<?xml version="1.0" encoding="UTF-8"?>
<svg xmlns="http://www.w3.org/2000/svg" xmlns:xlink="http://www.w3.org/1999/xlink" width="399.200012pt" height="399.200012pt" viewBox="0 0 399.200012 399.200012" version="1.1">
<defs>
<filter id="alpha" filterUnits="objectBoundingBox" x="0%" y="0%" width="100%" height="100%">
  <feColorMatrix type="matrix" in="SourceGraphic" values="0 0 0 0 1 0 0 0 0 1 0 0 0 0 1 0 0 0 1 0"/>
</filter>
<clipPath id="clip2">
  <path d="M 0 399.199219 L 399.199219 399.199219 L 399.199219 0 L 0 0 Z M 0 399.199219 "/>
</clipPath>
<clipPath id="clip1">
  <rect width="400" height="400"/>
</clipPath>
<g id="surface10" clip-path="url(#clip1)">
<g clip-path="url(#clip2)" clip-rule="nonzero">
<path style=" stroke:none;fill-rule:nonzero;fill:rgb(0%,0%,0%);fill-opacity:0.99;" d="M 0 399.199219 L 399.199219 399.199219 L 399.199219 0 L 0 0 Z M 0 399.199219 "/>
</g>
</g>
<mask id="mask0">
  <g filter="url(#alpha)">
<use xlink:href="#surface10"/>
  </g>
</mask>
<clipPath id="clip4">
  <path d="M 0 399.199219 L 399.199219 399.199219 L 399.199219 0 L 0 0 Z M 0 399.199219 "/>
</clipPath>
<clipPath id="clip6">
  <path d="M 0 399.199219 L 399.199219 399.199219 L 399.199219 0 L 0 0 Z M 0 399.199219 "/>
</clipPath>
<clipPath id="clip5">
  <rect width="400" height="400"/>
</clipPath>
<g id="surface48" clip-path="url(#clip5)">
<g clip-path="url(#clip6)" clip-rule="nonzero">
<path style=" stroke:none;fill-rule:nonzero;fill:rgb(2%,2%,2%);fill-opacity:1;" d="M 113.871094 -0.90625 L 116.503906 -0.90625 C 116.210938 -0.351562 116.210938 0.125 116.503906 0.535156 C 118.996094 0.667969 121.480469 0.808594 123.96875 0.945312 L 124.847656 1.769531 C 126.371094 1.890625 127.839844 2.234375 129.238281 2.796875 C 129.585938 2.621094 129.953125 2.484375 130.335938 2.386719 C 135.03125 4.359375 139.347656 6.894531 143.289062 9.996094 C 146.753906 11.867188 149.683594 14.335938 152.070312 17.398438 C 152.511719 17.535156 152.949219 17.675781 153.390625 17.8125 C 154.632812 19.527344 156.167969 20.964844 158 22.128906 C 158.289062 22.738281 158.65625 23.289062 159.097656 23.777344 C 158.902344 23.746094 158.757812 23.816406 158.65625 23.980469 C 159.183594 24.351562 159.554688 24.832031 159.753906 25.421875 C 160.058594 25.933594 160.277344 25.933594 160.414062 25.421875 C 163.988281 29.390625 167.136719 33.640625 169.855469 38.175781 C 170.492188 38.980469 171.292969 39.53125 172.269531 39.820312 L 172.269531 41.054688 C 172.789062 41.144531 173.226562 41.007812 173.585938 40.640625 C 174.046875 40.257812 174.046875 39.984375 173.585938 39.820312 C 178.542969 33.042969 184.253906 26.804688 190.710938 21.101562 C 194.140625 18.875 197.507812 16.542969 200.808594 14.109375 C 206.394531 11.78125 211.953125 9.449219 217.496094 7.117188 C 219.707031 6.148438 222.054688 5.601562 224.519531 5.46875 C 225.253906 5.058594 225.984375 4.648438 226.714844 4.234375 C 242.527344 1.226562 258.335938 1.226562 274.136719 4.234375 C 277.855469 5.652344 281.664062 6.886719 285.554688 7.9375 C 287.269531 8.582031 288.882812 9.402344 290.382812 10.40625 C 292.839844 10.773438 294.886719 11.871094 296.53125 13.699219 C 299.179688 14.113281 301.230469 15.347656 302.679688 17.398438 C 304.582031 18.632812 306.484375 19.867188 308.386719 21.101562 C 312.636719 24.699219 316.808594 28.328125 320.902344 32.003906 C 330.574219 43.800781 336.867188 57.101562 339.78125 71.90625 C 339.855469 73.414062 339.925781 74.921875 340 76.429688 C 339.796875 82.199219 339.796875 87.957031 340 93.707031 C 340.371094 98.722656 338.46875 102.695312 334.292969 105.636719 C 330.578125 105.800781 327.945312 104.292969 326.390625 101.113281 C 326.46875 96.996094 326.613281 92.882812 326.828125 88.773438 C 327.570312 64.453125 317.910156 44.640625 297.847656 29.328125 C 279.464844 16.609375 258.828125 11.808594 235.9375 14.933594 C 211.652344 20.140625 193.578125 32.957031 181.710938 53.394531 C 181.414062 54.902344 181.414062 56.410156 181.710938 57.917969 C 188.464844 69.488281 194.023438 81.554688 198.394531 94.121094 C 202.363281 105.011719 205.582031 116.121094 208.054688 127.441406 C 208.816406 127.882812 209.617188 127.949219 210.46875 127.644531 C 212.222656 126.355469 213.539062 124.773438 214.421875 122.914062 C 213.679688 118.820312 212.652344 114.847656 211.347656 110.984375 C 210.789062 103.582031 210.789062 96.175781 211.347656 88.773438 C 214.742188 74.242188 222.207031 61.832031 233.742188 51.542969 C 235.816406 49.878906 238.011719 48.367188 240.328125 47.019531 C 242.222656 46.242188 244.125 46.242188 246.035156 47.019531 C 254.480469 50.121094 261.429688 55.125 266.894531 62.03125 C 269.019531 65.394531 271.140625 68.753906 273.261719 72.113281 C 274.472656 72.351562 275.640625 72.214844 276.773438 71.699219 C 281.765625 69.246094 286.960938 67.257812 292.359375 65.734375 C 295.046875 65.984375 297.242188 67.085938 298.945312 69.027344 C 304.414062 78.449219 308.144531 88.464844 310.144531 99.054688 C 310.285156 101.460938 310.574219 103.792969 311.023438 106.050781 C 311.855469 114.308594 311.273438 122.535156 309.265625 130.730469 C 309.269531 131.605469 309.488281 132.429688 309.925781 133.199219 C 310.761719 134.085938 311.496094 135.046875 312.121094 136.078125 C 312.730469 136.511719 313.386719 136.582031 314.09375 136.285156 C 322.246094 128.789062 330.21875 121.179688 338.027344 113.453125 C 338.238281 113.0625 338.3125 112.652344 338.246094 112.21875 C 343.074219 109.632812 347.101562 110.453125 350.320312 114.6875 C 350.570312 119.761719 350.789062 124.835938 350.980469 129.910156 C 350.394531 168.164062 350.101562 206.558594 350.101562 245.089844 C 350.101562 283.554688 350.246094 321.945312 350.539062 360.273438 C 349.792969 365.175781 348.550781 369.976562 346.808594 374.671875 C 344.964844 377.925781 342.839844 381.007812 340.441406 383.925781 C 341.003906 384.863281 341.730469 385.6875 342.636719 386.394531 C 346.882812 386.53125 351.125 386.667969 355.371094 386.804688 C 361.730469 387.285156 363.851562 390.371094 361.738281 396.0625 C 360.550781 396.917969 359.308594 397.601562 358.003906 398.117188 C 357.636719 398.257812 357.492188 398.535156 357.566406 398.941406 L 44.054688 398.941406 C 43.613281 398.460938 43.023438 398.183594 42.300781 398.117188 C 37.699219 392.125 39.164062 388.011719 46.691406 385.777344 C 47.175781 385.992188 47.6875 386.132812 48.226562 386.1875 C 52.390625 385.871094 56.5625 385.667969 60.742188 385.570312 C 61.261719 385.152344 61.703125 384.671875 62.058594 384.132812 C 61.0625 382.582031 59.820312 381.207031 58.324219 380.019531 C 57.007812 377.84375 55.691406 375.644531 54.375 373.4375 C 53.117188 369.558594 52.09375 365.578125 51.300781 361.507812 C 51.007812 279.507812 51.007812 197.507812 51.300781 115.511719 C 52.023438 114.160156 52.828125 112.859375 53.714844 111.601562 C 55.457031 111.265625 57.066406 110.648438 58.546875 109.75 C 59.878906 110.617188 61.347656 111.230469 62.9375 111.601562 C 65.703125 114.605469 68.632812 117.484375 71.71875 120.242188 C 73.65625 120.136719 74.683594 119.109375 74.792969 117.15625 C 73.355469 112.730469 72.257812 108.203125 71.5 103.582031 C 71.328125 95.609375 70.8125 87.652344 69.960938 79.722656 C 70.488281 73.003906 71.003906 66.28125 71.5 59.566406 C 72.640625 58.941406 72.859375 58.117188 72.15625 57.097656 C 72.894531 54.855469 73.265625 52.527344 73.253906 50.101562 C 73.914062 48.136719 74.574219 46.144531 75.230469 44.140625 C 74.808594 43.265625 74.734375 42.375 75.011719 41.464844 C 75.464844 39.707031 76.121094 37.992188 76.988281 36.324219 C 76.882812 35.964844 76.738281 35.621094 76.546875 35.292969 C 78.417969 30.59375 80.394531 25.933594 82.476562 21.308594 C 84.980469 17.875 87.464844 14.441406 89.941406 11.023438 C 91.929688 9.019531 94.054688 7.167969 96.308594 5.46875 C 100.484375 4.339844 104.585938 2.964844 108.601562 1.355469 C 110.371094 1.160156 112.128906 0.882812 113.871094 0.535156 C 114.164062 0.125 114.164062 -0.351562 113.871094 -0.90625 Z M 113.871094 -0.90625 "/>
</g>
</g>
<clipPath id="clip3">
  <rect width="400" height="400"/>
</clipPath>
<g id="surface8" clip-path="url(#clip3)">
<g clip-path="url(#clip4)" clip-rule="nonzero">
<use xlink:href="#surface48"/>
</g>
</g>
<clipPath id="clip8">
  <path d="M 0 399.199219 L 399.199219 399.199219 L 399.199219 0 L 0 0 Z M 0 399.199219 "/>
</clipPath>
<clipPath id="clip7">
  <rect width="400" height="400"/>
</clipPath>
<g id="surface17" clip-path="url(#clip7)">
<g clip-path="url(#clip8)" clip-rule="nonzero">
<path style=" stroke:none;fill-rule:nonzero;fill:rgb(0%,0%,0%);fill-opacity:0.22;" d="M 0 399.199219 L 399.199219 399.199219 L 399.199219 0 L 0 0 Z M 0 399.199219 "/>
</g>
</g>
<mask id="mask1">
  <g filter="url(#alpha)">
<use xlink:href="#surface17"/>
  </g>
</mask>
<clipPath id="clip10">
  <path d="M 0 399.199219 L 399.199219 399.199219 L 399.199219 0 L 0 0 Z M 0 399.199219 "/>
</clipPath>
<clipPath id="clip12">
  <path d="M 0 399.199219 L 399.199219 399.199219 L 399.199219 0 L 0 0 Z M 0 399.199219 "/>
</clipPath>
<clipPath id="clip11">
  <rect width="400" height="400"/>
</clipPath>
<g id="surface64" clip-path="url(#clip11)">
<g clip-path="url(#clip12)" clip-rule="nonzero">
<path style=" stroke:none;fill-rule:nonzero;fill:rgb(51%,51%,51%);fill-opacity:1;" d="M 159.097656 23.777344 C 159.742188 24.164062 160.179688 24.710938 160.414062 25.421875 C 160.277344 25.933594 160.058594 25.933594 159.753906 25.421875 C 159.554688 24.832031 159.183594 24.351562 158.65625 23.980469 C 158.757812 23.816406 158.902344 23.746094 159.097656 23.777344 Z M 159.097656 23.777344 "/>
</g>
</g>
<clipPath id="clip9">
  <rect width="400" height="400"/>
</clipPath>
<g id="surface15" clip-path="url(#clip9)">
<g clip-path="url(#clip10)" clip-rule="nonzero">
<use xlink:href="#surface64"/>
</g>
</g>
<clipPath id="clip14">
  <path d="M 0 399.199219 L 399.199219 399.199219 L 399.199219 0 L 0 0 Z M 0 399.199219 "/>
</clipPath>
<clipPath id="clip13">
  <rect width="400" height="400"/>
</clipPath>
<g id="surface24" clip-path="url(#clip13)">
<g clip-path="url(#clip14)" clip-rule="nonzero">
<path style=" stroke:none;fill-rule:nonzero;fill:rgb(0%,0%,0%);fill-opacity:0.67;" d="M 0 399.199219 L 399.199219 399.199219 L 399.199219 0 L 0 0 Z M 0 399.199219 "/>
</g>
</g>
<mask id="mask2">
  <g filter="url(#alpha)">
<use xlink:href="#surface24"/>
  </g>
</mask>
<clipPath id="clip16">
  <path d="M 0 399.199219 L 399.199219 399.199219 L 399.199219 0 L 0 0 Z M 0 399.199219 "/>
</clipPath>
<clipPath id="clip18">
  <path d="M 0 399.199219 L 399.199219 399.199219 L 399.199219 0 L 0 0 Z M 0 399.199219 "/>
</clipPath>
<clipPath id="clip17">
  <rect width="400" height="400"/>
</clipPath>
<g id="surface80" clip-path="url(#clip17)">
<g clip-path="url(#clip18)" clip-rule="nonzero">
<path style=" stroke:none;fill-rule:nonzero;fill:rgb(60%,60%,60%);fill-opacity:1;" d="M 172.269531 39.820312 L 173.585938 39.820312 C 174.046875 39.984375 174.046875 40.257812 173.585938 40.640625 C 173.226562 41.007812 172.789062 41.144531 172.269531 41.054688 Z M 172.269531 39.820312 "/>
</g>
</g>
<clipPath id="clip15">
  <rect width="400" height="400"/>
</clipPath>
<g id="surface22" clip-path="url(#clip15)">
<g clip-path="url(#clip16)" clip-rule="nonzero">
<use xlink:href="#surface80"/>
</g>
</g>
<clipPath id="clip20">
  <path d="M 0 399.199219 L 399.199219 399.199219 L 399.199219 0 L 0 0 Z M 0 399.199219 "/>
</clipPath>
<clipPath id="clip19">
  <rect width="400" height="400"/>
</clipPath>
<g id="surface31" clip-path="url(#clip19)">
<g clip-path="url(#clip20)" clip-rule="nonzero">
<path style=" stroke:none;fill-rule:nonzero;fill:rgb(0%,0%,0%);fill-opacity:0.5;" d="M 0 399.199219 L 399.199219 399.199219 L 399.199219 0 L 0 0 Z M 0 399.199219 "/>
</g>
</g>
<mask id="mask3">
  <g filter="url(#alpha)">
<use xlink:href="#surface31"/>
  </g>
</mask>
<clipPath id="clip22">
  <path d="M 0 399.199219 L 399.199219 399.199219 L 399.199219 0 L 0 0 Z M 0 399.199219 "/>
</clipPath>
<clipPath id="clip24">
  <path d="M 0 399.199219 L 399.199219 399.199219 L 399.199219 0 L 0 0 Z M 0 399.199219 "/>
</clipPath>
<clipPath id="clip23">
  <rect width="400" height="400"/>
</clipPath>
<g id="surface96" clip-path="url(#clip23)">
<g clip-path="url(#clip24)" clip-rule="nonzero">
<path style=" stroke:none;fill-rule:nonzero;fill:rgb(14%,14%,14%);fill-opacity:1;" d="M 350.980469 129.910156 C 351.125 206.761719 350.980469 283.554688 350.539062 360.273438 C 350.246094 321.945312 350.101562 283.554688 350.101562 245.089844 C 350.101562 206.558594 350.394531 168.164062 350.980469 129.910156 Z M 350.980469 129.910156 "/>
</g>
</g>
<clipPath id="clip21">
  <rect width="400" height="400"/>
</clipPath>
<g id="surface29" clip-path="url(#clip21)">
<g clip-path="url(#clip22)" clip-rule="nonzero">
<use xlink:href="#surface96"/>
</g>
</g>
<clipPath id="clip26">
  <path d="M 0 399.199219 L 399.199219 399.199219 L 399.199219 0 L 0 0 Z M 0 399.199219 "/>
</clipPath>
<clipPath id="clip25">
  <rect width="400" height="400"/>
</clipPath>
<g id="surface38" clip-path="url(#clip25)">
<g clip-path="url(#clip26)" clip-rule="nonzero">
<path style=" stroke:none;fill-rule:nonzero;fill:rgb(0%,0%,0%);fill-opacity:0.2;" d="M 0 399.199219 L 399.199219 399.199219 L 399.199219 0 L 0 0 Z M 0 399.199219 "/>
</g>
</g>
<mask id="mask4">
  <g filter="url(#alpha)">
<use xlink:href="#surface38"/>
  </g>
</mask>
<clipPath id="clip28">
  <path d="M 0 399.199219 L 399.199219 399.199219 L 399.199219 0 L 0 0 Z M 0 399.199219 "/>
</clipPath>
<clipPath id="clip30">
  <path d="M 0 399.199219 L 399.199219 399.199219 L 399.199219 0 L 0 0 Z M 0 399.199219 "/>
</clipPath>
<clipPath id="clip29">
  <rect width="400" height="400"/>
</clipPath>
<g id="surface37" clip-path="url(#clip29)">
<g clip-path="url(#clip30)" clip-rule="nonzero">
<path style=" stroke:none;fill-rule:nonzero;fill:rgb(46%,46%,46%);fill-opacity:1;" d="M 358.003906 398.117188 C 358.371094 398.257812 358.519531 398.535156 358.441406 398.941406 L 357.566406 398.941406 C 357.492188 398.535156 357.636719 398.257812 358.003906 398.117188 Z M 358.003906 398.117188 "/>
</g>
</g>
<clipPath id="clip27">
  <rect width="400" height="400"/>
</clipPath>
<g id="surface36" clip-path="url(#clip27)">
<g clip-path="url(#clip28)" clip-rule="nonzero">
<use xlink:href="#surface37"/>
</g>
</g>
</defs>
<g id="surface1">
<use xlink:href="#surface8" mask="url(#mask0)"/>
<path style=" stroke:none;fill-rule:nonzero;fill:rgb(91%,91%,91%);fill-opacity:1;" d="M 111.234375 12.667969 C 119.371094 12.351562 126.6875 14.480469 133.191406 19.046875 C 142.175781 25.945312 150.003906 33.828125 156.683594 42.699219 C 174.671875 68.914062 187.039062 97.300781 193.785156 127.851562 C 192.839844 127.90625 191.960938 127.699219 191.152344 127.234375 C 186.136719 122.402344 181.015625 117.738281 175.78125 113.246094 C 173.046875 112.710938 170.558594 113.1875 168.316406 114.6875 C 161.105469 121.261719 153.933594 127.914062 146.800781 134.640625 C 145.628906 134.914062 144.460938 134.914062 143.289062 134.640625 C 138.25 130.144531 133.269531 125.546875 128.359375 120.859375 C 127.777344 119.761719 127.777344 118.664062 128.359375 117.566406 C 136.796875 109.65625 146.3125 103.210938 156.902344 98.234375 C 157.636719 97.410156 158.363281 96.585938 159.097656 95.765625 C 160.171875 92.21875 159.445312 89.132812 156.902344 86.507812 C 154.5625 86.234375 152.214844 86.234375 149.875 86.507812 C 140.898438 91.1875 132.410156 96.535156 124.410156 102.550781 C 114.539062 112.691406 104.292969 122.496094 93.671875 131.964844 C 92.792969 132.511719 91.917969 132.511719 91.039062 131.964844 C 89.769531 125.488281 88.523438 119.046875 87.304688 112.632812 C 87.09375 109.820312 86.875 107.007812 86.648438 104.199219 C 86.644531 102.855469 86.863281 101.554688 87.304688 100.289062 C 96.148438 88.304688 107.347656 78.773438 120.894531 71.699219 C 124.070312 67.886719 123.777344 64.320312 120.019531 61.003906 C 118.339844 60.207031 116.585938 59.929688 114.75 60.183594 C 104.101562 65.492188 94.734375 72.351562 86.648438 80.75 C 85.828125 81.042969 85.167969 80.835938 84.671875 80.132812 C 83.761719 64.078125 85.957031 48.445312 91.257812 33.238281 C 93.28125 28.316406 96.066406 23.792969 99.601562 19.664062 C 102.851562 16.332031 106.726562 13.996094 111.234375 12.667969 Z M 111.234375 12.667969 "/>
<path style=" stroke:none;fill-rule:nonzero;fill:rgb(71%,71%,71%);fill-opacity:1;" d="M 326.828125 88.773438 C 325.949219 92.867188 325.804688 96.984375 326.390625 101.113281 C 327.945312 104.292969 330.578125 105.800781 334.292969 105.636719 C 333.992188 108.632812 335.308594 110.824219 338.246094 112.21875 C 338.3125 112.652344 338.238281 113.0625 338.027344 113.453125 C 330.21875 121.179688 322.246094 128.789062 314.09375 136.285156 C 313.386719 136.582031 312.730469 136.511719 312.121094 136.078125 C 311.496094 135.046875 310.761719 134.085938 309.925781 133.199219 C 309.488281 132.429688 309.269531 131.605469 309.265625 130.730469 C 311.273438 122.535156 311.855469 114.308594 311.023438 106.050781 C 311.183594 103.609375 310.894531 101.277344 310.144531 99.054688 C 308.144531 88.464844 304.414062 78.449219 298.945312 69.027344 C 297.242188 67.085938 295.046875 65.984375 292.359375 65.734375 C 286.960938 67.257812 281.765625 69.246094 276.773438 71.699219 C 275.640625 72.214844 274.472656 72.351562 273.261719 72.113281 C 271.140625 68.753906 269.019531 65.394531 266.894531 62.03125 C 261.429688 55.125 254.480469 50.121094 246.035156 47.019531 C 244.125 46.242188 242.222656 46.242188 240.328125 47.019531 C 238.011719 48.367188 235.816406 49.878906 233.742188 51.542969 C 222.207031 61.832031 214.742188 74.242188 211.347656 88.773438 C 210.210938 96.175781 210.210938 103.582031 211.347656 110.984375 C 212.652344 114.847656 213.679688 118.820312 214.421875 122.914062 C 213.539062 124.773438 212.222656 126.355469 210.46875 127.644531 C 209.617188 127.949219 208.816406 127.882812 208.054688 127.441406 C 205.582031 116.121094 202.363281 105.011719 198.394531 94.121094 C 194.023438 81.554688 188.464844 69.488281 181.710938 57.917969 C 181.414062 56.410156 181.414062 54.902344 181.710938 53.394531 C 193.578125 32.957031 211.652344 20.140625 235.9375 14.933594 C 258.828125 11.808594 279.464844 16.609375 297.847656 29.328125 C 317.910156 44.640625 327.570312 64.453125 326.828125 88.773438 Z M 326.828125 88.773438 "/>
<use xlink:href="#surface15" mask="url(#mask1)"/>
<use xlink:href="#surface22" mask="url(#mask2)"/>
<path style=" stroke:none;fill-rule:nonzero;fill:rgb(67%,67%,67%);fill-opacity:1;" d="M 242.964844 60.800781 C 244.40625 60.699219 245.726562 61.042969 246.914062 61.828125 C 253.796875 66.351562 258.476562 72.386719 260.964844 79.925781 C 260.796875 80.597656 260.507812 81.214844 260.085938 81.777344 C 252.515625 87.972656 246.003906 94.96875 240.546875 102.757812 C 238.570312 106.464844 236.597656 110.167969 234.621094 113.863281 C 234.203125 114.066406 233.765625 114.203125 233.304688 114.277344 C 231.304688 113.679688 229.257812 113.339844 227.15625 113.246094 L 226.058594 112.21875 C 222.390625 95.988281 225.683594 81.179688 235.9375 67.792969 C 238.128906 65.328125 240.46875 62.996094 242.964844 60.800781 Z M 242.964844 60.800781 "/>
<path style=" stroke:none;fill-rule:nonzero;fill:rgb(67%,67%,67%);fill-opacity:1;" d="M 286.871094 80.957031 C 288.527344 80.675781 289.773438 81.226562 290.605469 82.601562 C 296.03125 94.109375 298.445312 106.175781 297.847656 118.800781 C 296.980469 119.152344 296.101562 119.355469 295.214844 119.417969 C 292.851562 117.34375 290.367188 115.425781 287.75 113.660156 C 285.992188 112.835938 284.238281 112.835938 282.480469 113.660156 C 274.5625 120.183594 266.949219 127.109375 259.648438 134.433594 C 258.761719 134.855469 257.882812 135.269531 257.015625 135.667969 C 253.046875 132.90625 249.460938 129.757812 246.257812 126.207031 C 245.960938 124.835938 245.960938 123.460938 246.257812 122.09375 C 248.648438 116.789062 251.285156 111.578125 254.160156 106.460938 C 256.742188 104.136719 258.9375 101.53125 260.746094 98.644531 C 265.132812 94.394531 269.886719 90.621094 275.015625 87.332031 C 278.949219 85.003906 282.902344 82.875 286.871094 80.957031 Z M 286.871094 80.957031 "/>
<path style=" stroke:none;fill-rule:nonzero;fill:rgb(39%,39%,39%);fill-opacity:1;" d="M 326.828125 88.773438 C 326.613281 92.882812 326.46875 96.996094 326.390625 101.113281 C 325.804688 96.984375 325.949219 92.867188 326.828125 88.773438 Z M 326.828125 88.773438 "/>
<path style=" stroke:none;fill-rule:nonzero;fill:rgb(52%,52%,52%);fill-opacity:1;" d="M 211.347656 88.773438 C 210.789062 96.175781 210.789062 103.582031 211.347656 110.984375 C 210.210938 103.582031 210.210938 96.175781 211.347656 88.773438 Z M 211.347656 88.773438 "/>
<path style=" stroke:none;fill-rule:nonzero;fill:rgb(31%,31%,31%);fill-opacity:1;" d="M 310.144531 99.054688 C 310.894531 101.277344 311.183594 103.609375 311.023438 106.050781 C 310.574219 103.792969 310.285156 101.460938 310.144531 99.054688 Z M 310.144531 99.054688 "/>
<path style=" stroke:none;fill-rule:nonzero;fill:rgb(78%,78%,78%);fill-opacity:1;" d="M 172.707031 129.496094 C 173.167969 129.433594 173.609375 129.503906 174.027344 129.703125 L 195.980469 150.269531 C 198.3125 152.058594 200.945312 152.542969 203.882812 151.710938 C 205.335938 150.625 206.800781 149.53125 208.273438 148.417969 C 214.03125 142.40625 220.035156 136.582031 226.277344 130.9375 C 227.628906 130.105469 229.09375 129.832031 230.667969 130.113281 C 238.414062 137.507812 246.316406 144.773438 254.378906 151.917969 C 256.851562 152.367188 259.195312 152.09375 261.40625 151.09375 L 283.796875 130.113281 C 284.675781 129.839844 285.554688 129.839844 286.433594 130.113281 C 294.347656 137.390625 302.253906 144.660156 310.144531 151.917969 C 312.042969 152.191406 313.949219 152.191406 315.851562 151.917969 C 322.398438 146.742188 328.546875 141.117188 334.292969 135.050781 C 335.144531 134.746094 335.949219 134.8125 336.707031 135.257812 C 337.003906 210.398438 337.003906 285.539062 336.707031 360.683594 C 335.101562 370.761719 329.46875 378.101562 319.804688 382.691406 C 315.953125 384.046875 312 385.144531 307.949219 385.984375 C 236.523438 386.257812 165.097656 386.257812 93.671875 385.984375 C 77.433594 383.246094 67.996094 374.265625 65.351562 359.039062 C 65.058594 284.855469 65.058594 210.671875 65.351562 136.488281 C 65.859375 134.910156 66.8125 134.566406 68.207031 135.460938 C 74.085938 141.246094 80.230469 146.734375 86.648438 151.917969 C 87.378906 151.984375 88.109375 152.050781 88.84375 152.121094 C 90.5625 151.496094 92.320312 150.808594 94.113281 150.066406 C 101.070312 143.339844 108.097656 136.691406 115.1875 130.113281 C 116.359375 129.839844 117.527344 129.839844 118.699219 130.113281 L 140.214844 150.269531 C 142.214844 152 144.554688 152.546875 147.242188 151.917969 C 148.351562 151.082031 149.523438 150.328125 150.753906 149.652344 C 157.683594 142.476562 165.003906 135.757812 172.707031 129.496094 Z M 172.707031 129.496094 "/>
<use xlink:href="#surface29" mask="url(#mask3)"/>
<path style=" stroke:none;fill-rule:nonzero;fill:rgb(2%,2%,2%);fill-opacity:1;" d="M 278.089844 168.164062 C 278.410156 169.269531 278.773438 170.367188 279.1875 171.457031 C 279.40625 216.019531 279.480469 260.585938 279.40625 305.148438 C 278.382812 309.53125 275.457031 311.585938 270.625 311.320312 L 127.921875 311.320312 C 124.964844 309.992188 123.285156 307.792969 122.871094 304.738281 C 122.578125 260.3125 122.578125 215.882812 122.871094 171.457031 C 123.257812 168.21875 125.085938 166.09375 128.359375 165.078125 C 176.515625 164.804688 224.667969 164.804688 272.820312 165.078125 C 275.226562 165.222656 276.984375 166.253906 278.089844 168.164062 Z M 278.089844 168.164062 "/>
<path style=" stroke:none;fill-rule:nonzero;fill:rgb(42%,42%,42%);fill-opacity:1;" d="M 278.089844 168.164062 C 278.886719 168.9375 279.398438 169.902344 279.625 171.042969 C 279.992188 215.8125 279.921875 260.515625 279.40625 305.148438 C 279.480469 260.585938 279.40625 216.019531 279.1875 171.457031 C 278.773438 170.367188 278.410156 169.269531 278.089844 168.164062 Z M 278.089844 168.164062 "/>
<path style=" stroke:none;fill-rule:nonzero;fill:rgb(26%,26%,26%);fill-opacity:1;" d="M 149.4375 178.449219 C 184.050781 178.039062 218.738281 177.902344 253.5 178.039062 C 253.621094 178.695312 253.46875 179.242188 253.0625 179.683594 L 253.0625 178.449219 Z M 149.4375 178.449219 "/>
<path style=" stroke:none;fill-rule:nonzero;fill:rgb(59%,59%,59%);fill-opacity:1;" d="M 149.4375 178.449219 L 253.0625 178.449219 L 253.0625 179.683594 C 236.9375 194.859375 220.839844 210.144531 204.761719 225.550781 C 203.628906 226.683594 202.3125 227.570312 200.808594 228.222656 C 186.339844 215.28125 172.066406 202.121094 158 188.734375 C 155.613281 185.761719 152.835938 183.160156 149.65625 180.917969 C 148.949219 180.109375 148.875 179.289062 149.4375 178.449219 Z M 149.4375 178.449219 "/>
<path style=" stroke:none;fill-rule:nonzero;fill:rgb(59%,59%,59%);fill-opacity:1;" d="M 264.917969 286.636719 C 264.023438 287.164062 263.144531 287.09375 262.28125 286.433594 C 258.320312 282.933594 254.664062 279.300781 251.304688 275.53125 C 250.84375 275.59375 250.40625 275.523438 249.988281 275.324219 C 237.621094 263.328125 225.105469 251.464844 212.445312 239.742188 C 212.269531 239.179688 212.050781 238.628906 211.789062 238.097656 C 212.507812 236.945312 213.3125 235.847656 214.203125 234.804688 C 230.460938 220.050781 246.488281 205.105469 262.28125 189.96875 C 263.128906 189.699219 264.007812 189.5625 264.917969 189.554688 Z M 264.917969 286.636719 "/>
<path style=" stroke:none;fill-rule:nonzero;fill:rgb(58%,58%,58%);fill-opacity:1;" d="M 137.582031 189.96875 C 138.5 190.195312 139.378906 190.535156 140.214844 190.996094 C 150.902344 200.460938 161.296875 210.195312 171.390625 220.203125 C 175.394531 223.066406 178.910156 226.421875 181.929688 230.28125 C 184.277344 232.546875 186.695312 234.746094 189.175781 236.863281 C 189.53125 237.71875 189.457031 238.542969 188.953125 239.332031 C 183.140625 245.121094 177.144531 250.671875 170.953125 255.992188 C 162.847656 263.925781 154.652344 271.8125 146.363281 279.644531 C 143.714844 282.195312 140.863281 284.523438 137.800781 286.636719 C 137.292969 270.484375 137.074219 254.300781 137.140625 238.097656 C 137.148438 222.039062 137.292969 205.996094 137.582031 189.96875 Z M 137.582031 189.96875 "/>
<path style=" stroke:none;fill-rule:nonzero;fill:rgb(37%,37%,37%);fill-opacity:1;" d="M 264.917969 286.636719 L 264.917969 189.554688 C 264.007812 189.5625 263.128906 189.699219 262.28125 189.96875 C 262.332031 189.710938 262.476562 189.507812 262.722656 189.351562 C 263.585938 189.144531 264.464844 189.078125 265.355469 189.144531 C 265.5 221.710938 265.355469 254.210938 264.917969 286.636719 Z M 264.917969 286.636719 "/>
<path style=" stroke:none;fill-rule:nonzero;fill:rgb(59%,59%,59%);fill-opacity:1;" d="M 199.933594 247.96875 C 200.71875 247.855469 201.445312 247.992188 202.128906 248.382812 C 203.722656 249.679688 205.328125 250.980469 206.957031 252.289062 C 222.414062 266.976562 237.925781 281.578125 253.5 296.101562 C 253.867188 296.492188 253.9375 296.902344 253.71875 297.332031 C 218.699219 297.8125 183.640625 297.882812 148.558594 297.539062 C 148.140625 297.242188 148.066406 296.902344 148.339844 296.511719 C 165.636719 280.375 182.835938 264.195312 199.933594 247.96875 Z M 199.933594 247.96875 "/>
<path style=" stroke:none;fill-rule:nonzero;fill:rgb(57%,57%,57%);fill-opacity:1;" d="M 127.921875 311.320312 L 270.625 311.320312 C 247.792969 311.867188 224.816406 312.144531 201.6875 312.144531 C 178.710938 312.074219 155.730469 312.007812 132.75 311.9375 C 131.058594 311.863281 129.449219 311.65625 127.921875 311.320312 Z M 127.921875 311.320312 "/>
<path style=" stroke:none;fill-rule:nonzero;fill:rgb(65%,65%,65%);fill-opacity:1;" d="M 42.300781 398.117188 C 43.023438 398.183594 43.613281 398.460938 44.054688 398.941406 L 41.859375 398.941406 C 41.785156 398.535156 41.929688 398.257812 42.300781 398.117188 Z M 42.300781 398.117188 "/>
<use xlink:href="#surface36" mask="url(#mask4)"/>
</g>
</svg>
