<?xml version="1.0"?>
<svg width="499" height="499" xmlns="http://www.w3.org/2000/svg" xmlns:svg="http://www.w3.org/2000/svg" xmlns:xlink="http://www.w3.org/1999/xlink" clip-rule="evenodd" fill-rule="evenodd" version="1.1">
 <g class="layer">
  <title>Layer 1</title>
  <use id="svg_83" transform="matrix(0.548861 0 0 0.514206 -119.309 -13.8999)" x="301.21" xlink:href="#svg_81" y="25.33"/>
 </g>
 <defs>
  <symbol clip-rule="evenodd" fill-rule="evenodd" height="972px" id="svg_81" version="1.1" width="745px" xmlns="http://www.w3.org/2000/svg" xmlns:xlink="http://www.w3.org/1999/xlink">
   <g>
    <path d="m175.5,-0.5c2,0 4,0 6,0c-0.67,1.35 -0.67,2.51 0,3.5c5.67,0.33 11.33,0.67 17,1c0.67,0.67 1.33,1.33 2,2c3.47,0.3 6.81,1.13 10,2.5c0.79,-0.43 1.63,-0.76 2.5,-1c10.69,4.8 20.52,10.96 29.5,18.5c7.89,4.55 14.56,10.55 20,18c1,0.33 2,0.67 3,1c2.83,4.17 6.33,7.67 10.5,10.5c0.66,1.48 1.5,2.82 2.5,4c-0.44,-0.07 -0.77,0.1 -1,0.5c1.2,0.9 2.04,2.07 2.5,3.5c0.69,1.24 1.19,1.24 1.5,0c8.14,9.65 15.31,19.98 21.5,31c1.45,1.96 3.28,3.3 5.5,4c0,1 0,2 0,3c1.18,0.22 2.18,-0.11 3,-1c1.05,-0.93 1.05,-1.6 0,-2c11.29,-16.47 24.29,-31.64 39,-45.5c7.81,-5.41 15.48,-11.08 23,-17c12.72,-5.66 25.38,-11.33 38,-17c5.04,-2.35 10.38,-3.68 16,-4c1.67,-1 3.33,-2 5,-3c36.01,-7.32 72.01,-7.32 108,0c8.47,3.44 17.14,6.44 26,9c3.91,1.56 7.58,3.56 11,6c5.59,0.89 10.25,3.56 14,8c6.03,1.01 10.7,4.01 14,9c4.33,3 8.67,6 13,9c9.68,8.74 19.18,17.57 28.5,26.5c22.03,28.68 36.36,61.01 43,97c0.17,3.67 0.33,7.33 0.5,11c-0.47,14.02 -0.47,28.02 0,42c0.84,12.19 -3.49,21.85 -13,29c-8.46,0.4 -14.46,-3.27 -18,-11c0.18,-10.01 0.51,-20.01 1,-30c1.69,-59.12 -20.31,-107.28 -66,-144.5c-41.87,-30.92 -88.87,-42.59 -141,-35c-55.31,12.66 -96.47,43.82 -123.5,93.5c-0.67,3.67 -0.67,7.33 0,11c15.38,28.12 28.04,57.46 38,88c9.04,26.48 16.37,53.48 22,81c1.73,1.08 3.56,1.24 5.5,0.5c3.99,-3.14 6.99,-6.98 9,-11.5c-1.69,-9.95 -4.03,-19.61 -7,-29c-1.27,-18 -1.27,-36 0,-54c7.73,-35.32 24.73,-65.49 51,-90.5c4.72,-4.05 9.72,-7.72 15,-11c4.31,-1.89 8.65,-1.89 13,0c19.23,7.54 35.06,19.71 47.5,36.5c4.84,8.17 9.67,16.34 14.5,24.5c2.76,0.58 5.42,0.25 8,-1c11.37,-5.97 23.2,-10.8 35.5,-14.5c6.12,0.61 11.12,3.28 15,8c12.45,22.91 20.95,47.25 25.5,73c0.32,5.85 0.98,11.52 2,17c1.9,20.08 0.57,40.08 -4,60c0.01,2.13 0.51,4.13 1.5,6c1.91,2.16 3.58,4.49 5,7c1.39,1.05 2.89,1.22 4.5,0.5c18.56,-18.22 36.72,-36.72 54.5,-55.5c0.48,-0.95 0.65,-1.95 0.5,-3c11,-6.29 20.17,-4.29 27.5,6c0.57,12.33 1.07,24.67 1.5,37c-1.33,93 -2,186.33 -2,280c0,93.5 0.33,186.83 1,280c-1.7,11.92 -4.53,23.59 -8.5,35c-4.2,7.91 -9.04,15.41 -14.5,22.5c1.28,2.28 2.94,4.28 5,6c9.67,0.33 19.33,0.67 29,1c14.49,1.17 19.32,8.67 14.5,22.5c-2.7,2.08 -5.53,3.74 -8.5,5c-0.84,0.34 -1.17,1.01 -1,2c-238,0 -476,0 -714,0c-1.01,-1.17 -2.35,-1.84 -4,-2c-10.48,-14.57 -7.14,-24.57 10,-30c1.11,0.52 2.27,0.86 3.5,1c9.48,-0.77 18.98,-1.27 28.5,-1.5c1.19,-1.02 2.19,-2.19 3,-3.5c-2.27,-3.77 -5.1,-7.11 -8.5,-10c-3,-5.29 -6,-10.63 -9,-16c-2.86,-9.43 -5.19,-19.1 -7,-29c-0.67,-199.33 -0.67,-398.67 0,-598c1.65,-3.28 3.48,-6.44 5.5,-9.5c3.97,-0.82 7.63,-2.32 11,-4.5c3.04,2.1 6.38,3.6 10,4.5c6.3,7.3 12.97,14.3 20,21c4.41,-0.25 6.75,-2.75 7,-7.5c-3.27,-10.76 -5.77,-21.76 -7.5,-33c-0.39,-19.38 -1.56,-38.72 -3.5,-58c1.2,-16.33 2.37,-32.67 3.5,-49c2.6,-1.52 3.1,-3.52 1.5,-6c1.68,-5.45 2.52,-11.11 2.5,-17c1.5,-4.78 3,-9.62 4.5,-14.5c-0.96,-2.12 -1.13,-4.29 -0.5,-6.5c1.03,-4.27 2.53,-8.44 4.5,-12.5c-0.24,-0.87 -0.57,-1.71 -1,-2.5c4.26,-11.43 8.76,-22.76 13.5,-34c5.7,-8.35 11.36,-16.69 17,-25c4.53,-4.87 9.37,-9.37 14.5,-13.5c9.51,-2.75 18.85,-6.09 28,-10c4.03,-0.48 8.03,-1.15 12,-2c0.67,-0.99 0.67,-2.15 0,-3.5z" fill="#050606" opacity="0.99"/>
   </g>
   <g>
    <path d="m169.5,32.5c18.53,-0.77 35.19,4.4 50,15.5c20.46,16.77 38.29,35.94 53.5,57.5c40.97,63.73 69.14,132.73 84.5,207c-2.15,0.13 -4.15,-0.37 -6,-1.5c-11.42,-11.75 -23.08,-23.08 -35,-34c-6.23,-1.31 -11.9,-0.15 -17,3.5c-16.43,15.98 -32.76,32.15 -49,48.5c-2.67,0.67 -5.33,0.67 -8,0c-11.48,-10.93 -22.82,-22.1 -34,-33.5c-1.33,-2.67 -1.33,-5.33 0,-8c19.21,-19.23 40.88,-34.9 65,-47c1.67,-2 3.33,-4 5,-6c2.45,-8.62 0.79,-16.12 -5,-22.5c-5.33,-0.67 -10.67,-0.67 -16,0c-20.45,11.37 -39.78,24.37 -58,39c-22.48,24.65 -45.81,48.48 -70,71.5c-2,1.33 -4,1.33 -6,0c-2.89,-15.74 -5.73,-31.4 -8.5,-47c-0.48,-6.83 -0.98,-13.67 -1.5,-20.5c-0.01,-3.26 0.49,-6.43 1.5,-9.5c20.14,-29.14 45.64,-52.31 76.5,-69.5c7.23,-9.27 6.56,-17.94 -2,-26c-3.82,-1.94 -7.82,-2.61 -12,-2c-24.25,12.91 -45.58,29.58 -64,50c-1.87,0.71 -3.37,0.21 -4.5,-1.5c-2.07,-39.03 2.93,-77.03 15,-114c4.61,-11.96 10.95,-22.96 19,-33c7.4,-8.1 16.23,-13.77 26.5,-17z" fill="#f9ebb7"/>
   </g>
   <g>
    <path d="m660.5,217.5c-2,9.96 -2.33,19.96 -1,30c3.54,7.73 9.54,11.4 18,11c-0.69,7.28 2.31,12.61 9,16c0.15,1.05 -0.02,2.05 -0.5,3c-17.78,18.78 -35.94,37.28 -54.5,55.5c-1.61,0.72 -3.11,0.55 -4.5,-0.5c-1.42,-2.51 -3.09,-4.84 -5,-7c-0.99,-1.87 -1.49,-3.87 -1.5,-6c4.57,-19.92 5.9,-39.92 4,-60c0.37,-5.93 -0.29,-11.6 -2,-17c-4.55,-25.75 -13.05,-50.09 -25.5,-73c-3.88,-4.72 -8.88,-7.39 -15,-8c-12.3,3.7 -24.13,8.53 -35.5,14.5c-2.58,1.25 -5.24,1.58 -8,1c-4.83,-8.16 -9.66,-16.33 -14.5,-24.5c-12.44,-16.79 -28.27,-28.96 -47.5,-36.5c-4.35,-1.89 -8.69,-1.89 -13,0c-5.28,3.28 -10.28,6.95 -15,11c-26.27,25.01 -43.27,55.18 -51,90.5c-2.59,18 -2.59,36 0,54c2.97,9.39 5.31,19.05 7,29c-2.01,4.52 -5.01,8.36 -9,11.5c-1.94,0.74 -3.77,0.58 -5.5,-0.5c-5.63,-27.52 -12.96,-54.52 -22,-81c-9.96,-30.54 -22.62,-59.88 -38,-88c-0.67,-3.67 -0.67,-7.33 0,-11c27.03,-49.68 68.19,-80.84 123.5,-93.5c52.13,-7.59 99.13,4.08 141,35c45.69,37.22 67.69,85.38 66,144.5z" fill="#f8a93c"/>
   </g>
   <g>
    <path d="m278.5,59.5c1.47,0.94 2.47,2.27 3,4c-0.31,1.24 -0.81,1.24 -1.5,0c-0.46,-1.43 -1.3,-2.6 -2.5,-3.5c0.23,-0.4 0.56,-0.57 1,-0.5z" fill="#b27a2c" opacity="0.22"/>
   </g>
   <g>
    <path d="m308.5,98.5c1,0 2,0 3,0c1.05,0.4 1.05,1.07 0,2c-0.82,0.89 -1.82,1.22 -3,1c0,-1 0,-2 0,-3z" fill="#d18f34" opacity="0.67"/>
   </g>
   <g>
    <path d="m469.5,149.5c3.29,-0.24 6.29,0.59 9,2.5c15.67,11 26.33,25.67 32,44c-0.38,1.63 -1.04,3.13 -2,4.5c-17.24,15.06 -32.07,32.06 -44.5,51c-4.5,9.01 -9,18.01 -13.5,27c-0.95,0.49 -1.95,0.82 -3,1c-4.55,-1.45 -9.21,-2.28 -14,-2.5c-0.83,-0.83 -1.67,-1.67 -2.5,-2.5c-8.35,-39.46 -0.85,-75.46 22.5,-108c4.99,-5.99 10.32,-11.66 16,-17z" fill="#85c587"/>
   </g>
   <g>
    <path d="m569.5,198.5c3.77,-0.68 6.61,0.66 8.5,4c12.36,27.98 17.86,57.31 16.5,88c-1.98,0.85 -3.98,1.35 -6,1.5c-5.38,-5.04 -11.04,-9.71 -17,-14c-4,-2 -8,-2 -12,0c-18.03,15.86 -35.37,32.7 -52,50.5c-2.02,1.03 -4.02,2.03 -6,3c-9.03,-6.71 -17.2,-14.37 -24.5,-23c-0.67,-3.33 -0.67,-6.67 0,-10c5.45,-12.89 11.45,-25.56 18,-38c5.88,-5.65 10.88,-11.98 15,-19c9.99,-10.33 20.82,-19.5 32.5,-27.5c8.96,-5.66 17.96,-10.83 27,-15.5z" fill="#85c587"/>
   </g>
   <g>
    <path d="m660.5,217.5c-0.49,9.99 -0.82,19.99 -1,30c-1.33,-10.04 -1,-20.04 1,-30z" fill="#895e23"/>
   </g>
   <g>
    <path d="m397.5,217.5c-1.27,18 -1.27,36 0,54c-2.59,-18 -2.59,-36 0,-54z" fill="#b77d2d"/>
   </g>
   <g>
    <path d="m622.5,242.5c1.71,5.4 2.37,11.07 2,17c-1.02,-5.48 -1.68,-11.15 -2,-17z" fill="#6a4a1c"/>
   </g>
   <g>
    <path d="m309.5,316.5c1.05,-0.15 2.05,0.02 3,0.5c16.67,16.67 33.33,33.33 50,50c5.31,4.35 11.31,5.52 18,3.5c3.31,-2.64 6.64,-5.3 10,-8c13.11,-14.62 26.78,-28.78 41,-42.5c3.08,-2.02 6.41,-2.69 10,-2c17.64,17.97 35.64,35.64 54,53c5.63,1.1 10.97,0.43 16,-2c17,-17 34,-34 51,-51c2,-0.67 4,-0.67 6,0c18.03,17.69 36.03,35.36 54,53c4.33,0.67 8.67,0.67 13,0c14.91,-12.58 28.91,-26.25 42,-41c1.94,-0.74 3.77,-0.58 5.5,0.5c0.67,182.67 0.67,365.33 0,548c-3.66,24.5 -16.49,42.34 -38.5,53.5c-8.77,3.29 -17.77,5.96 -27,8c-162.67,0.67 -325.33,0.67 -488,0c-36.98,-6.65 -58.48,-28.48 -64.5,-65.5c-0.67,-180.33 -0.67,-360.67 0,-541c1.16,-3.84 3.33,-4.68 6.5,-2.5c13.39,14.06 27.39,27.4 42,40c1.67,0.17 3.33,0.33 5,0.5c3.92,-1.52 7.92,-3.19 12,-5c15.85,-16.35 31.85,-32.51 48,-48.5c2.67,-0.67 5.33,-0.67 8,0c16.31,16.31 32.64,32.64 49,49c4.55,4.2 9.88,5.53 16,4c2.53,-2.03 5.2,-3.86 8,-5.5c15.78,-17.45 32.45,-33.78 50,-49z" fill="#a0d8d5"/>
   </g>
   <g>
    <path d="m715.5,317.5c0.33,186.83 0,373.5 -1,560c-0.67,-93.17 -1,-186.5 -1,-280c0,-93.67 0.67,-187 2,-280z" fill="#152928" opacity="0.5"/>
   </g>
   <g>
    <path d="m549.5,410.5c0.73,2.68 1.56,5.35 2.5,8c0.5,108.33 0.67,216.67 0.5,325c-2.33,10.65 -9,15.65 -20,15c-108.33,0 -216.67,0 -325,0c-6.73,-3.23 -10.56,-8.57 -11.5,-16c-0.67,-108 -0.67,-216 0,-324c0.88,-7.87 5.04,-13.04 12.5,-15.5c109.67,-0.67 219.33,-0.67 329,0c5.48,0.35 9.48,2.85 12,7.5z" fill="#040606"/>
   </g>
   <g>
    <path d="m549.5,410.5c1.81,1.88 2.98,4.22 3.5,7c0.83,108.83 0.67,217.5 -0.5,326c0.17,-108.33 0,-216.67 -0.5,-325c-0.94,-2.65 -1.77,-5.32 -2.5,-8z" fill="#567472"/>
   </g>
   <g>
    <path d="m256.5,435.5c78.83,-1 157.83,-1.33 237,-1c0.27,1.6 -0.07,2.93 -1,4c0,-1 0,-2 0,-3c-78.67,0 -157.33,0 -236,0z" fill="#27504e"/>
   </g>
   <g>
    <path d="m256.5,435.5c78.67,0 157.33,0 236,0c0,1 0,2 0,3c-36.72,36.89 -73.38,74.05 -110,111.5c-2.58,2.75 -5.58,4.91 -9,6.5c-32.96,-31.46 -65.46,-63.46 -97.5,-96c-5.43,-7.22 -11.76,-13.55 -19,-19c-1.61,-1.96 -1.78,-3.96 -0.5,-6z" fill="#54b3ad"/>
   </g>
   <g>
    <path d="m519.5,698.5c-2.04,1.28 -4.04,1.11 -6,-0.5c-9.02,-8.51 -17.35,-17.34 -25,-26.5c-1.05,0.15 -2.05,-0.02 -3,-0.5c-28.17,-29.17 -56.67,-58 -85.5,-86.5c-0.4,-1.37 -0.9,-2.71 -1.5,-4c1.64,-2.8 3.47,-5.47 5.5,-8c37.03,-35.87 73.53,-72.2 109.5,-109c1.93,-0.65 3.93,-0.98 6,-1c0,78.67 0,157.33 0,236z" fill="#54b3ad"/>
   </g>
   <g>
    <path d="m229.5,463.5c2.09,0.55 4.09,1.38 6,2.5c24.34,23.01 48.01,46.67 71,71c9.12,6.96 17.12,15.12 24,24.5c5.35,5.51 10.85,10.85 16.5,16c0.81,2.08 0.64,4.08 -0.5,6c-13.24,14.07 -26.9,27.57 -41,40.5c-18.46,19.29 -37.12,38.46 -56,57.5c-6.03,6.2 -12.53,11.86 -19.5,17c-1.16,-39.27 -1.66,-78.61 -1.5,-118c0.01,-39.04 0.34,-78.04 1,-117z" fill="#54b1ac"/>
   </g>
   <g>
    <path d="m519.5,698.5c0,-78.67 0,-157.33 0,-236c-2.07,0.02 -4.07,0.35 -6,1c0.11,-0.62 0.44,-1.12 1,-1.5c1.97,-0.5 3.97,-0.66 6,-0.5c0.33,79.17 0,158.17 -1,237z" fill="#36726e"/>
   </g>
   <g>
    <path d="m371.5,604.5c1.79,-0.28 3.45,0.05 5,1c3.63,3.16 7.29,6.32 11,9.5c35.2,35.7 70.53,71.2 106,106.5c0.83,0.95 0.99,1.95 0.5,3c-79.76,1.16 -159.6,1.33 -239.5,0.5c-0.95,-0.72 -1.12,-1.55 -0.5,-2.5c39.39,-39.23 78.56,-78.56 117.5,-118z" fill="#54b2ac"/>
   </g>
   <g>
    <path d="m207.5,758.5c108.33,0 216.67,0 325,0c-52,1.33 -104.33,2 -157,2c-52.33,-0.17 -104.67,-0.33 -157,-0.5c-3.86,-0.18 -7.52,-0.68 -11,-1.5z" fill="#759e9c"/>
   </g>
   <g>
    <path d="m744.5,950.5c0,0.67 0,1.33 0,2c-1.33,-0.67 -1.33,-1.33 0,-2z" fill="#4f4e17" opacity="0"/>
   </g>
   <g>
    <path d="m12.5,969.5c1.65,0.16 2.99,0.83 4,2c-1.67,0 -3.33,0 -5,0c-0.17,-0.99 0.16,-1.66 1,-2z" fill="#de9b40"/>
   </g>
   <g>
    <path d="m731.5,969.5c0.84,0.34 1.17,1.01 1,2c-0.67,0 -1.33,0 -2,0c-0.17,-0.99 0.16,-1.66 1,-2z" fill="#9f6e23" opacity="0.2"/>
   </g>
  </symbol>
 </defs>
</svg>