<?xml version="1.0" encoding="UTF-8"?>
<!DOCTYPE svg PUBLIC "-//W3C//DTD SVG 1.1//EN" "http://www.w3.org/Graphics/SVG/1.1/DTD/svg11.dtd">
<svg xmlns="http://www.w3.org/2000/svg" version="1.1" width="512px" height="512px" style="shape-rendering:geometricPrecision; text-rendering:geometricPrecision; image-rendering:optimizeQuality; fill-rule:evenodd; clip-rule:evenodd" xmlns:xlink="http://www.w3.org/1999/xlink">
<g><path style="opacity:1" fill="#010203" d="M 243.5,23.5 C 255.818,25.3351 264.484,32.0018 269.5,43.5C 271.175,46.5072 271.841,49.8405 271.5,53.5C 271.335,56.8499 271.502,60.1832 272,63.5C 274.678,66.214 276.845,69.214 278.5,72.5C 281.351,81.3908 279.518,89.3908 273,96.5C 272.842,105.622 270.842,114.288 267,122.5C 265.264,125.739 262.764,128.073 259.5,129.5C 249.066,135.762 238.399,136.096 227.5,130.5C 224.269,128.78 221.436,126.447 219,123.5C 214.002,118.137 209.502,112.47 205.5,106.5C 205.489,104.983 204.823,103.816 203.5,103C 185.543,96.2544 180.377,84.0877 188,66.5C 191.903,61.132 197.07,57.632 203.5,56C 204.823,55.1841 205.489,54.0174 205.5,52.5C 209.127,46.9306 213.46,41.9306 218.5,37.5C 221.631,34.8712 224.631,32.0379 227.5,29C 230.391,27.7258 233.058,26.2258 235.5,24.5C 237.948,23.5269 240.615,23.1936 243.5,23.5 Z"/></g>
<g><path style="opacity:0.632" fill="#1a2b3b" d="M 235.5,24.5 C 233.058,26.2258 230.391,27.7258 227.5,29C 224.631,32.0379 221.631,34.8712 218.5,37.5C 222.131,30.539 227.798,26.2057 235.5,24.5 Z"/></g>
<g><path style="opacity:0.665" fill="#182b3a" d="M 243.5,23.5 C 257.024,23.9216 265.691,30.5883 269.5,43.5C 264.484,32.0018 255.818,25.3351 243.5,23.5 Z"/></g>
<g><path style="opacity:1" fill="#cdd6e0" d="M 255.5,55.5 C 244.986,55.8276 234.653,55.4942 224.5,54.5C 228.635,50.1941 232.635,45.6941 236.5,41C 248.345,38.3251 254.678,43.1584 255.5,55.5 Z"/></g>
<g><path style="opacity:1" fill="#253747" d="M 224.5,54.5 C 234.653,55.4942 244.986,55.8276 255.5,55.5C 244.993,56.8235 234.326,56.8235 223.5,55.5C 223.624,54.8933 223.957,54.56 224.5,54.5 Z"/></g>
<g><path style="opacity:0.778" fill="#1a2c3e" d="M 271.5,53.5 C 272.319,56.3054 272.819,59.3054 273,62.5C 276.147,65.1283 277.98,68.4616 278.5,72.5C 276.845,69.214 274.678,66.214 272,63.5C 271.502,60.1832 271.335,56.8499 271.5,53.5 Z"/></g>
<g><path style="opacity:1" fill="#637fc4" d="M 203.5,71.5 C 222.17,71.3334 240.836,71.5001 259.5,72C 264.756,76.9244 264.756,81.9244 259.5,87C 240.833,87.6667 222.167,87.6667 203.5,87C 198.197,81.7603 198.197,76.5936 203.5,71.5 Z"/></g>
<g><path style="opacity:0.898" fill="#1a293a" d="M 310.5,71.5 C 303.787,73.6054 301.953,77.9387 305,84.5C 306.876,85.6087 308.709,86.6087 310.5,87.5C 305.032,87.7021 302.032,85.0355 301.5,79.5C 302.032,73.9645 305.032,71.2979 310.5,71.5 Z"/></g>
<g><path style="opacity:1" fill="#010203" d="M 310.5,71.5 C 311.833,71.5 313.167,71.5 314.5,71.5C 321.266,73.8575 323.266,78.5241 320.5,85.5C 320.082,86.2216 319.416,86.7216 318.5,87C 315.854,87.4974 313.187,87.6641 310.5,87.5C 308.709,86.6087 306.876,85.6087 305,84.5C 301.953,77.9387 303.787,73.6054 310.5,71.5 Z"/></g>
<g><path style="opacity:1" fill="#030508" d="M 347.5,71.5 C 351.514,71.3345 355.514,71.5012 359.5,72C 364.299,75.0711 365.465,79.2378 363,84.5C 362.097,85.7014 360.931,86.5348 359.5,87C 355.514,87.4988 351.514,87.6655 347.5,87.5C 340.787,85.3946 338.953,81.0613 342,74.5C 343.876,73.3913 345.709,72.3913 347.5,71.5 Z"/></g>
<g><path style="opacity:1" fill="#05080c" d="M 401.5,88.5 C 394.114,89.7045 387.447,88.0378 381.5,83.5C 379.352,74.4753 383.019,70.642 392.5,72C 399.555,72.2706 403.888,75.7706 405.5,82.5C 404.833,84.1667 404.167,85.8333 403.5,87.5C 403.043,88.2975 402.376,88.6309 401.5,88.5 Z"/></g>
<g><path style="opacity:0.814" fill="#1a2c3c" d="M 205.5,52.5 C 205.489,54.0174 204.823,55.1841 203.5,56C 197.07,57.632 191.903,61.132 188,66.5C 180.377,84.0877 185.543,96.2544 203.5,103C 204.823,103.816 205.489,104.983 205.5,106.5C 198.434,103.541 192.267,99.2081 187,93.5C 180.59,80.291 182.757,68.791 193.5,59C 197.92,57.4821 201.92,55.3155 205.5,52.5 Z"/></g>
<g><path style="opacity:0.782" fill="#182f3e" d="M 314.5,71.5 C 321.726,72.2517 324.226,76.2517 322,83.5C 321.722,84.4158 321.222,85.0825 320.5,85.5C 323.266,78.5241 321.266,73.8575 314.5,71.5 Z"/></g>
<g><path style="opacity:0.825" fill="#1b2c3c" d="M 347.5,71.5 C 345.709,72.3913 343.876,73.3913 342,74.5C 338.953,81.0613 340.787,85.3946 347.5,87.5C 341.842,87.8422 339.176,85.1756 339.5,79.5C 339.176,73.8244 341.842,71.1578 347.5,71.5 Z"/></g>
<g><path style="opacity:0.625" fill="#192b3b" d="M 381.5,83.5 C 387.447,88.0378 394.114,89.7045 401.5,88.5C 401.389,89.1174 401.056,89.6174 400.5,90C 394.557,90.6888 388.89,89.6888 383.5,87C 382.177,86.1841 381.511,85.0174 381.5,83.5 Z"/></g>
<g><path style="opacity:0.997" fill="#05080b" d="M 422.5,104.5 C 422.897,109.959 422.397,115.292 421,120.5C 417.959,123.542 414.459,124.208 410.5,122.5C 407.079,119.932 405.746,116.432 406.5,112C 405.466,102.03 409.8,98.0303 419.5,100C 421.141,101.129 422.141,102.629 422.5,104.5 Z"/></g>
<g><path style="opacity:1" fill="#ced8e1" d="M 224.5,104.5 C 234.653,103.506 244.986,103.172 255.5,103.5C 254.633,115.895 248.299,120.729 236.5,118C 232.635,113.306 228.635,108.806 224.5,104.5 Z"/></g>
<g><path style="opacity:0.931" fill="#1a2b3b" d="M 422.5,104.5 C 423.92,110.099 423.753,115.765 422,121.5C 418.251,124.925 414.418,125.259 410.5,122.5C 414.459,124.208 417.959,123.542 421,120.5C 422.397,115.292 422.897,109.959 422.5,104.5 Z"/></g>
<g><path style="opacity:1" fill="#000102" d="M 393.5,133.5 C 399.247,132.866 402.58,135.366 403.5,141C 403.297,143.406 402.297,145.406 400.5,147C 395.804,149.68 390.804,150.68 385.5,150C 378.712,144.811 379.046,139.977 386.5,135.5C 388.599,134.388 390.933,133.721 393.5,133.5 Z"/></g>
<g><path style="opacity:0.769" fill="#1a2b3b" d="M 259.5,129.5 C 255.083,134.142 249.583,136.142 243,135.5C 236.981,136.104 231.814,134.437 227.5,130.5C 238.399,136.096 249.066,135.762 259.5,129.5 Z"/></g>
<g><path style="opacity:1" fill="#04070a" d="M 359.5,152.5 C 354.63,154.295 349.63,155.128 344.5,155C 339.509,150.875 339.175,146.375 343.5,141.5C 348.254,138.147 353.587,136.981 359.5,138C 363.788,141.771 364.621,146.271 362,151.5C 361.329,152.252 360.496,152.586 359.5,152.5 Z"/></g>
<g><path style="opacity:0.858" fill="#1a2b3c" d="M 82.5,144.5 C 110.997,143.336 139.664,143.17 168.5,144C 169.416,144.278 170.082,144.778 170.5,145.5C 141.198,144.524 111.865,144.191 82.5,144.5 Z"/></g>
<g><path style="opacity:1" fill="#010202" d="M 82.5,144.5 C 111.865,144.191 141.198,144.524 170.5,145.5C 173.056,146.543 175.223,148.21 177,150.5C 179.78,155.062 182.28,159.728 184.5,164.5C 187.911,171.094 191.577,177.594 195.5,184C 273.166,184.5 350.833,184.667 428.5,184.5C 433.647,185.473 437.147,188.473 439,193.5C 439.333,211.5 439.667,229.5 440,247.5C 441.947,249.063 443.114,251.063 443.5,253.5C 444.807,258.066 445.474,262.733 445.5,267.5C 443.788,276.951 442.788,286.618 442.5,296.5C 440.788,305.951 439.788,315.618 439.5,325.5C 437.788,334.951 436.788,344.618 436.5,354.5C 434.788,363.951 433.788,373.618 433.5,383.5C 431.788,392.951 430.788,402.618 430.5,412.5C 430.143,422.375 429.143,432.041 427.5,441.5C 426.121,447.617 425.454,453.95 425.5,460.5C 426.09,465.64 425.09,470.307 422.5,474.5C 419.862,477.474 417.195,480.474 414.5,483.5C 411.172,486.447 407.172,487.947 402.5,488C 304.332,488.832 206.332,488.666 108.5,487.5C 101.401,486.281 95.4006,482.947 90.5,477.5C 87.8352,475.165 86.5018,472.165 86.5,468.5C 86.1466,458.956 85.1466,449.623 83.5,440.5C 83.2123,430.618 82.2123,420.951 80.5,411.5C 80.2123,401.618 79.2123,391.951 77.5,382.5C 77.5459,375.95 76.8792,369.617 75.5,363.5C 74.5206,360.375 74.1872,357.042 74.5,353.5C 74.5459,346.95 73.8792,340.617 72.5,334.5C 72.2123,324.618 71.2123,314.951 69.5,305.5C 69.2123,295.618 68.2123,285.951 66.5,276.5C 64.185,266.083 65.8516,256.416 71.5,247.5C 71.3334,216.165 71.5,184.832 72,153.5C 73.8534,148.473 77.3534,145.473 82.5,144.5 Z"/></g>
<g><path style="opacity:0.571" fill="#192b3c" d="M 393.5,133.5 C 400.039,131.451 403.705,133.951 404.5,141C 404.592,143.814 403.592,146.147 401.5,148C 396.182,151.035 390.515,152.035 384.5,151C 378.393,146.442 378.06,141.442 383.5,136C 384.448,135.517 385.448,135.351 386.5,135.5C 379.046,139.977 378.712,144.811 385.5,150C 390.804,150.68 395.804,149.68 400.5,147C 402.297,145.406 403.297,143.406 403.5,141C 402.58,135.366 399.247,132.866 393.5,133.5 Z"/></g>
<g><path style="opacity:0.578" fill="#1a2d3c" d="M 343.5,141.5 C 339.175,146.375 339.509,150.875 344.5,155C 349.63,155.128 354.63,154.295 359.5,152.5C 354.722,155.806 349.388,156.973 343.5,156C 339.212,152.229 338.379,147.729 341,142.5C 341.671,141.748 342.504,141.414 343.5,141.5 Z"/></g>
<g><path style="opacity:1" fill="#d78751" d="M 87.5,159.5 C 112.842,159.167 138.175,159.5 163.5,160.5C 169.667,170.833 175.833,181.167 182,191.5C 184.491,194.832 187.658,197.332 191.5,199C 230.167,199.333 268.833,199.667 307.5,200C 305.333,200.833 303.833,202.333 303,204.5C 301.875,209.399 302.709,213.899 305.5,218C 310.82,220.702 314.987,219.535 318,214.5C 318.667,211.167 318.667,207.833 318,204.5C 317.167,202.333 315.667,200.833 313.5,200C 350.165,199.5 386.832,199.333 423.5,199.5C 423.5,212.833 423.5,226.167 423.5,239.5C 311.5,239.5 199.5,239.5 87.5,239.5C 87.5,212.833 87.5,186.167 87.5,159.5 Z"/></g>
<g><path style="opacity:1" fill="#030507" d="M 329.5,165.5 C 328.841,172.314 325.841,177.814 320.5,182C 310.722,182.017 308.055,177.517 312.5,168.5C 314.647,160.986 319.314,158.486 326.5,161C 328.141,162.129 329.141,163.629 329.5,165.5 Z"/></g>
<g><path style="opacity:0.857" fill="#1a2b3c" d="M 184.5,164.5 C 189.031,170.222 193.031,176.389 196.5,183C 235.5,183.667 274.5,183.667 313.5,183C 308.569,178.412 308.236,173.578 312.5,168.5C 308.055,177.517 310.722,182.017 320.5,182C 325.841,177.814 328.841,172.314 329.5,165.5C 330.622,167.288 330.789,169.288 330,171.5C 327.996,176.034 325.163,179.867 321.5,183C 357.336,183.167 393.002,183.667 428.5,184.5C 350.833,184.667 273.166,184.5 195.5,184C 191.577,177.594 187.911,171.094 184.5,164.5 Z"/></g>
<g><path style="opacity:0.845" fill="#192b3c" d="M 71.5,247.5 C 65.8516,256.416 64.185,266.083 66.5,276.5C 64.4174,269.662 64.2507,262.662 66,255.5C 67.116,252.244 68.9493,249.578 71.5,247.5 Z"/></g>
<g><path style="opacity:1" fill="#ecad64" d="M 85.5,255.5 C 199.248,255.004 312.914,255.504 426.5,257C 428.888,259.306 429.888,262.139 429.5,265.5C 422.171,332.451 415.337,399.451 409,466.5C 407.457,468.378 405.624,469.878 403.5,471C 304.5,471.667 205.5,471.667 106.5,471C 104.622,469.457 103.122,467.624 102,465.5C 95.453,401.483 88.7864,337.483 82,273.5C 81.3333,268.833 81.3333,264.167 82,259.5C 83.3756,258.295 84.5423,256.962 85.5,255.5 Z"/></g>
<g><path style="opacity:0.267" fill="#1a2d3d" d="M 443.5,253.5 C 446.301,257.914 446.968,262.58 445.5,267.5C 445.474,262.733 444.807,258.066 443.5,253.5 Z"/></g>
<g><path style="opacity:0.75" fill="#1a2a3a" d="M 66.5,276.5 C 68.2123,285.951 69.2123,295.618 69.5,305.5C 67.7877,296.049 66.7877,286.382 66.5,276.5 Z"/></g>
<g><path style="opacity:0.624" fill="#192a3b" d="M 445.5,267.5 C 445.212,277.382 444.212,287.049 442.5,296.5C 442.788,286.618 443.788,276.951 445.5,267.5 Z"/></g>
<g><path style="opacity:0.756" fill="#192a3a" d="M 442.5,296.5 C 442.212,306.382 441.212,316.049 439.5,325.5C 439.788,315.618 440.788,305.951 442.5,296.5 Z"/></g>
<g><path style="opacity:0.695" fill="#192c3c" d="M 69.5,305.5 C 71.2123,314.951 72.2123,324.618 72.5,334.5C 70.7877,325.049 69.7877,315.382 69.5,305.5 Z"/></g>
<g><path style="opacity:0.853" fill="#1a2a3a" d="M 439.5,325.5 C 439.212,335.382 438.212,345.049 436.5,354.5C 436.788,344.618 437.788,334.951 439.5,325.5 Z"/></g>
<g><path style="opacity:0.794" fill="#1a2d3d" d="M 72.5,334.5 C 73.8792,340.617 74.5459,346.95 74.5,353.5C 73.1208,347.383 72.4541,341.05 72.5,334.5 Z"/></g>
<g><path style="opacity:0.697" fill="#1a2a3a" d="M 436.5,354.5 C 436.212,364.382 435.212,374.049 433.5,383.5C 433.788,373.618 434.788,363.951 436.5,354.5 Z"/></g>
<g><path style="opacity:0.43" fill="#1a2d3d" d="M 75.5,363.5 C 76.8792,369.617 77.5459,375.95 77.5,382.5C 76.1208,376.383 75.4541,370.05 75.5,363.5 Z"/></g>
<g><path style="opacity:0.716" fill="#192b3b" d="M 77.5,382.5 C 79.2123,391.951 80.2123,401.618 80.5,411.5C 78.7877,402.049 77.7877,392.382 77.5,382.5 Z"/></g>
<g><path style="opacity:1" fill="#030303" d="M 134.5,391.5 C 154.503,391.333 174.503,391.5 194.5,392C 201.075,396.867 201.075,401.867 194.5,407C 174.5,407.667 154.5,407.667 134.5,407C 127.889,401.798 127.889,396.631 134.5,391.5 Z"/></g>
<g><path style="opacity:0.695" fill="#1b2b3b" d="M 433.5,383.5 C 433.212,393.382 432.212,403.049 430.5,412.5C 430.788,402.618 431.788,392.951 433.5,383.5 Z"/></g>
<g><path style="opacity:0.814" fill="#192b3c" d="M 80.5,411.5 C 82.2123,420.951 83.2123,430.618 83.5,440.5C 81.7877,431.049 80.7877,421.382 80.5,411.5 Z"/></g>
<g><path style="opacity:1" fill="#050506" d="M 134.5,423.5 C 145.838,423.333 157.172,423.5 168.5,424C 175.075,428.867 175.075,433.867 168.5,439C 157.167,439.667 145.833,439.667 134.5,439C 129.465,435.987 128.298,431.82 131,426.5C 132.145,425.364 133.312,424.364 134.5,423.5 Z"/></g>
<g><path style="opacity:0.644" fill="#1a2b3a" d="M 83.5,440.5 C 85.1466,449.623 86.1466,458.956 86.5,468.5C 84.7214,459.391 83.7214,450.058 83.5,440.5 Z"/></g>
<g><path style="opacity:0.686" fill="#1a2e3e" d="M 427.5,441.5 C 427.546,448.05 426.879,454.383 425.5,460.5C 425.454,453.95 426.121,447.617 427.5,441.5 Z"/></g>
<g><path style="opacity:0.498" fill="#1a2c3e" d="M 90.5,477.5 C 95.4006,482.947 101.401,486.281 108.5,487.5C 100.356,487.767 94.3561,484.433 90.5,477.5 Z"/></g>
<g><path style="opacity:0.173" fill="#182d3e" d="M 422.5,474.5 C 421.232,478.767 418.565,481.767 414.5,483.5C 417.195,480.474 419.862,477.474 422.5,474.5 Z"/></g>
</svg>
