<?xml version="1.0" encoding="UTF-8"?>
<!DOCTYPE svg PUBLIC "-//W3C//DTD SVG 1.1//EN" "http://www.w3.org/Graphics/SVG/1.1/DTD/svg11.dtd">
<svg xmlns="http://www.w3.org/2000/svg" version="1.1" width="512px" height="512px" style="shape-rendering:geometricPrecision; text-rendering:geometricPrecision; image-rendering:optimizeQuality; fill-rule:evenodd; clip-rule:evenodd" xmlns:xlink="http://www.w3.org/1999/xlink">
<g><path style="opacity:0.972" fill="#020100" d="M 419.5,-0.5 C 424.5,-0.5 429.5,-0.5 434.5,-0.5C 451.449,7.14237 468.116,15.6424 484.5,25C 495.087,36.9595 496.253,49.7929 488,63.5C 480.925,70.5665 472.759,76.0665 463.5,80C 461,81.8333 458.833,84 457,86.5C 441,118.5 425,150.5 409,182.5C 407.084,187.664 405.917,192.997 405.5,198.5C 406.717,206.394 406.717,214.227 405.5,222C 422.167,222.333 438.833,222.667 455.5,223C 464.604,226.276 469.271,232.776 469.5,242.5C 468.74,278.211 459.574,311.545 442,342.5C 434.433,355.269 424.766,366.269 413,375.5C 400.477,417.903 375.81,451.237 339,475.5C 338.667,482.167 338.333,488.833 338,495.5C 336.915,503.376 332.749,508.71 325.5,511.5C 314.5,511.5 303.5,511.5 292.5,511.5C 289.905,509.986 288.571,507.652 288.5,504.5C 288.544,500.91 290.211,498.41 293.5,497C 302.833,496.667 312.167,496.333 321.5,496C 322.475,490.259 322.808,484.425 322.5,478.5C 269.167,478.5 215.833,478.5 162.5,478.5C 162.334,483.844 162.501,489.177 163,494.5C 163.5,495 164,495.5 164.5,496C 195.833,496.333 227.167,496.667 258.5,497C 259.766,497.309 260.933,497.809 262,498.5C 262.845,500.611 263.678,502.611 264.5,504.5C 264.429,507.652 263.095,509.986 260.5,511.5C 226.833,511.5 193.167,511.5 159.5,511.5C 155.238,509.074 151.738,505.74 149,501.5C 147.756,492.909 147.089,484.242 147,475.5C 110.748,451.346 86.4148,418.346 74,376.5C 43.1163,348.406 25.1163,313.406 20,271.5C 18.0058,259.566 17.3391,247.566 18,235.5C 20.2634,228.903 24.7634,224.736 31.5,223C 55.1737,222.833 78.8404,222.333 102.5,221.5C 107.073,214.426 113.073,208.926 120.5,205C 128.833,202 137.167,199 145.5,196C 151.2,189.438 156.033,182.271 160,174.5C 172.997,158.604 189.83,150.771 210.5,151C 232.5,137 254.5,137 276.5,151C 297.414,151.042 314.248,159.209 327,175.5C 332.921,171.456 338.755,167.289 344.5,163C 347,159.833 349.5,156.667 352,153.5C 368,121.5 384,89.5 400,57.5C 400.658,55.2001 401.158,52.8668 401.5,50.5C 400.406,42.8453 399.406,35.1786 398.5,27.5C 399.48,13.5351 406.48,4.20173 419.5,-0.5 Z"/></g>
<g><path style="opacity:1" fill="#f9ca7d" d="M 453.5,26.5 C 452.947,31.3312 451.447,35.9978 449,40.5C 441.454,47.0478 433.621,53.2145 425.5,59C 422.96,61.2047 420.793,63.7047 419,66.5C 402.333,99.8333 385.667,133.167 369,166.5C 368.003,170.985 367.17,175.485 366.5,180C 367.384,186.155 367.551,192.322 367,198.5C 365.002,206.822 362.169,214.822 358.5,222.5C 343.99,222.829 329.657,222.496 315.5,221.5C 319.623,211.252 324.79,201.585 331,192.5C 338.269,185.896 346.102,180.063 354.5,175C 358.935,170.622 362.768,165.788 366,160.5C 382,128.5 398,96.5 414,64.5C 415.553,59.7872 416.387,54.9538 416.5,50C 415.899,42.6609 415.233,35.3275 414.5,28C 416.073,16.7047 422.406,12.7047 433.5,16C 440.386,19.2743 447.053,22.7743 453.5,26.5 Z"/></g>
<g><path style="opacity:1" fill="#f9c36c" d="M 453.5,26.5 C 462.389,29.5224 470.222,34.1891 477,40.5C 479.774,47.1305 478.274,52.6305 472.5,57C 464.906,60.9349 457.573,65.2682 450.5,70C 447.639,72.894 445.139,76.0607 443,79.5C 426.062,113.043 409.395,146.71 393,180.5C 391.218,185.681 390.385,191.015 390.5,196.5C 391.682,205.181 391.682,213.848 390.5,222.5C 379.833,222.5 369.167,222.5 358.5,222.5C 362.169,214.822 365.002,206.822 367,198.5C 367.551,192.322 367.384,186.155 366.5,180C 367.17,175.485 368.003,170.985 369,166.5C 385.667,133.167 402.333,99.8333 419,66.5C 420.793,63.7047 422.96,61.2047 425.5,59C 433.621,53.2145 441.454,47.0478 449,40.5C 451.447,35.9978 452.947,31.3312 453.5,26.5 Z"/></g>
<g><path style="opacity:1" fill="#fcf0bc" d="M 202.5,230.5 C 191.5,230.5 180.5,230.5 169.5,230.5C 169.759,226.763 168.093,224.43 164.5,223.5C 150.833,222.833 137.167,222.167 123.5,221.5C 131.242,216.973 139.575,213.806 148.5,212C 153.858,209.646 158.358,206.146 162,201.5C 166.992,190.013 174.492,180.513 184.5,173C 192.519,168.281 201.185,166.281 210.5,167C 219.167,163.333 227.833,159.667 236.5,156C 240.833,155.333 245.167,155.333 249.5,156C 257.75,158.793 265.75,162.127 273.5,166C 291.21,165.773 305.377,172.607 316,186.5C 310.088,198.323 304.088,210.323 298,222.5C 267.238,223.329 236.405,223.829 205.5,224C 203.081,225.509 202.081,227.675 202.5,230.5 Z"/></g>
<g><path style="opacity:1" fill="#888265" d="M 123.5,221.5 C 137.167,222.167 150.833,222.833 164.5,223.5C 150.484,223.833 136.484,223.499 122.5,222.5C 122.624,221.893 122.957,221.56 123.5,221.5 Z"/></g>
<g><path style="opacity:1" fill="#84693c" d="M 315.5,221.5 C 329.657,222.496 343.99,222.829 358.5,222.5C 369.167,222.5 379.833,222.5 390.5,222.5C 365.33,223.829 339.997,223.829 314.5,222.5C 314.624,221.893 314.957,221.56 315.5,221.5 Z"/></g>
<g><path style="opacity:1" fill="#fdcf5a" d="M 169.5,230.5 C 180.5,230.5 191.5,230.5 202.5,230.5C 202.081,233.325 203.081,235.491 205.5,237C 271.668,237.167 337.668,237.667 403.5,238.5C 392.833,238.5 382.167,238.5 371.5,238.5C 371.904,275.519 371.404,312.519 370,349.5C 362.797,396.106 340.63,433.606 303.5,462C 312.16,462.5 320.827,462.666 329.5,462.5C 272.001,463.665 214.335,463.832 156.5,463C 108.634,430.785 84.1344,385.618 83,327.5C 82.5,297.502 82.3334,267.502 82.5,237.5C 110.502,237.667 138.502,237.5 166.5,237C 168.451,235.266 169.451,233.099 169.5,230.5 Z"/></g>
<g><path style="opacity:1" fill="#73521d" d="M 34.5,238.5 C 45.3206,237.505 56.3206,237.172 67.5,237.5C 67.8222,243.358 67.4889,249.025 66.5,254.5C 66.5,249.167 66.5,243.833 66.5,238.5C 55.8333,238.5 45.1667,238.5 34.5,238.5 Z"/></g>
<g><path style="opacity:1" fill="#fab240" d="M 34.5,238.5 C 45.1667,238.5 55.8333,238.5 66.5,238.5C 66.5,243.833 66.5,249.167 66.5,254.5C 66.5495,285.523 67.0495,316.523 68,347.5C 55.0608,331.957 46.0608,314.29 41,294.5C 35.1956,276.064 33.0289,257.397 34.5,238.5 Z"/></g>
<g><path style="opacity:1" fill="#fec243" d="M 403.5,238.5 C 403.667,269.835 403.5,301.168 403,332.5C 400.499,388.525 375.999,431.859 329.5,462.5C 320.827,462.666 312.16,462.5 303.5,462C 340.63,433.606 362.797,396.106 370,349.5C 371.404,312.519 371.904,275.519 371.5,238.5C 382.167,238.5 392.833,238.5 403.5,238.5 Z"/></g>
<g><path style="opacity:1" fill="#f7b03f" d="M 419.5,237.5 C 430.172,237.333 440.839,237.5 451.5,238C 453.826,269.029 447.659,298.529 433,326.5C 428.494,334.18 423.494,341.513 418,348.5C 419.152,311.542 419.652,274.542 419.5,237.5 Z"/></g>
<g><path style="opacity:1" fill="#040402" d="M 236.5,273.5 C 243.809,272.858 250.809,274.025 257.5,277C 264.806,281.986 272.806,285.319 281.5,287C 297.073,292.595 305.573,303.762 307,320.5C 310.255,326.008 313.255,331.675 316,337.5C 318.193,345.604 317.86,353.604 315,361.5C 308.739,371.023 304.406,381.356 302,392.5C 298.77,400.063 293.27,405.229 285.5,408C 275.023,410.073 265.356,414.073 256.5,420C 248.271,424.028 239.938,424.362 231.5,421C 221.992,414.747 211.659,410.414 200.5,408C 191.937,404.436 186.103,398.269 183,389.5C 180.936,379.037 176.936,369.371 171,360.5C 167.667,352.167 167.667,343.833 171,335.5C 176.752,326.584 180.752,316.917 183,306.5C 186.106,298.395 191.606,292.561 199.5,289C 212.623,285.43 224.956,280.264 236.5,273.5 Z"/></g>
<g><path style="opacity:1" fill="#56bd91" d="M 238.5,288.5 C 243.371,288.192 248.037,289.025 252.5,291C 257.341,293.921 262.341,296.588 267.5,299C 272.922,300.356 278.255,302.023 283.5,304C 286.531,306.559 288.698,309.726 290,313.5C 292.073,323.977 296.073,333.644 302,342.5C 302.667,346.167 302.667,349.833 302,353.5C 299.921,357.993 297.588,362.326 295,366.5C 292.299,374.66 289.299,382.66 286,390.5C 279.93,393.982 273.43,396.482 266.5,398C 258.902,402.22 251.068,405.72 243,408.5C 240.047,408.109 237.213,407.275 234.5,406C 225.618,400.257 215.951,396.257 205.5,394C 203.04,392.542 200.873,390.709 199,388.5C 196.082,376.742 191.415,365.742 185,355.5C 183.566,351.594 183.233,347.594 184,343.5C 189.986,333.524 194.32,322.858 197,311.5C 198.461,307.74 200.961,304.907 204.5,303C 216.74,300.04 228.073,295.207 238.5,288.5 Z"/></g>
<g><path style="opacity:0.996" fill="#fcb340" d="M 288.5,504.5 C 280.5,504.5 272.5,504.5 264.5,504.5C 263.678,502.611 262.845,500.611 262,498.5C 260.933,497.809 259.766,497.309 258.5,497C 227.167,496.667 195.833,496.333 164.5,496C 164,495.5 163.5,495 163,494.5C 162.501,489.177 162.334,483.844 162.5,478.5C 215.833,478.5 269.167,478.5 322.5,478.5C 322.808,484.425 322.475,490.259 321.5,496C 312.167,496.333 302.833,496.667 293.5,497C 290.211,498.41 288.544,500.91 288.5,504.5 Z"/></g>
</svg>
