<?xml version="1.0" encoding="UTF-8"?>
<!DOCTYPE svg PUBLIC "-//W3C//DTD SVG 1.1//EN" "http://www.w3.org/Graphics/SVG/1.1/DTD/svg11.dtd">
<svg xmlns="http://www.w3.org/2000/svg" version="1.1" width="96px" height="96px" style="shape-rendering:geometricPrecision; text-rendering:geometricPrecision; image-rendering:optimizeQuality; fill-rule:evenodd; clip-rule:evenodd" xmlns:xlink="http://www.w3.org/1999/xlink">
<g><path style="opacity:0.942" fill="#fefffe" d="M 73.5,3.5 C 78.8327,2.74066 83.4994,4.07399 87.5,7.5C 90.1667,10.1667 90.1667,12.8333 87.5,15.5C 84.5372,16.6291 82.3706,18.6291 81,21.5C 78.94,26.6203 76.6067,31.6203 74,36.5C 73.51,37.7932 73.3433,39.1266 73.5,40.5C 84.0475,38.9335 87.5475,43.2668 84,53.5C 82.3728,59.2485 79.5395,64.2485 75.5,68.5C 73.4069,74.3605 70.0735,79.3605 65.5,83.5C 64.675,84.3857 63.675,84.719 62.5,84.5C 62.7564,86.7925 62.4231,88.9592 61.5,91C 50.8333,91.6667 40.1667,91.6667 29.5,91C 28.7511,89.2663 28.2511,87.433 28,85.5C 26,83.8333 24,82.1667 22,80.5C 18.6957,74.5641 15.029,68.8974 11,63.5C 8.09566,58.2288 6.26232,52.5622 5.5,46.5C 5.38977,44.626 6.05644,43.126 7.5,42C 12.0509,40.7852 16.7176,40.1186 21.5,40C 23.221,38.4728 25.221,37.4728 27.5,37C 30.4909,32.0012 34.8243,29.0012 40.5,28C 43.8333,27.3333 47.1667,27.3333 50.5,28C 54.3336,29.2154 58.0002,30.5488 61.5,32C 67.5966,23.3157 71.5966,13.8157 73.5,3.5 Z"/></g>
</svg>
