<?xml version="1.0" encoding="UTF-8"?>
<!DOCTYPE svg PUBLIC "-//W3C//DTD SVG 1.1//EN" "http://www.w3.org/Graphics/SVG/1.1/DTD/svg11.dtd">
<svg xmlns="http://www.w3.org/2000/svg" version="1.1" width="512px" height="512px" style="shape-rendering:geometricPrecision; text-rendering:geometricPrecision; image-rendering:optimizeQuality; fill-rule:evenodd; clip-rule:evenodd" xmlns:xlink="http://www.w3.org/1999/xlink">
<g><path style="opacity:1" fill="#010203" d="M 187.5,23.5 C 199.818,25.3351 208.484,32.0018 213.5,43.5C 215.175,46.5072 215.841,49.8405 215.5,53.5C 215.335,56.8499 215.502,60.1832 216,63.5C 218.678,66.214 220.845,69.214 222.5,72.5C 225.167,77.1667 225.167,81.8333 222.5,86.5C 220.845,89.786 218.678,92.786 216,95.5C 215.502,98.8168 215.335,102.15 215.5,105.5C 215.689,115.789 211.689,123.789 203.5,129.5C 193.066,135.762 182.399,136.096 171.5,130.5C 168.269,128.78 165.436,126.447 163,123.5C 158.002,118.137 153.502,112.47 149.5,106.5C 149.489,104.983 148.823,103.816 147.5,103C 129.543,96.2544 124.377,84.0877 132,66.5C 135.903,61.132 141.07,57.632 147.5,56C 148.823,55.1841 149.489,54.0174 149.5,52.5C 155.893,43.9307 162.893,35.7641 170.5,28C 175.662,24.5566 181.328,23.0566 187.5,23.5 Z"/></g>
<g><path style="opacity:0.839" fill="#192a3a" d="M 187.5,23.5 C 201.024,23.9216 209.691,30.5883 213.5,43.5C 208.484,32.0018 199.818,25.3351 187.5,23.5 Z"/></g>
<g><path style="opacity:1" fill="#cdd6e0" d="M 199.5,55.5 C 188.986,55.8276 178.653,55.4942 168.5,54.5C 172.635,50.1941 176.635,45.6941 180.5,41C 192.345,38.3251 198.678,43.1584 199.5,55.5 Z"/></g>
<g><path style="opacity:1" fill="#253747" d="M 168.5,54.5 C 178.653,55.4942 188.986,55.8276 199.5,55.5C 188.993,56.8235 178.326,56.8235 167.5,55.5C 167.624,54.8933 167.957,54.56 168.5,54.5 Z"/></g>
<g><path style="opacity:0.778" fill="#1a2c3e" d="M 215.5,53.5 C 216.319,56.3054 216.819,59.3054 217,62.5C 220.147,65.1283 221.98,68.4616 222.5,72.5C 220.845,69.214 218.678,66.214 216,63.5C 215.502,60.1832 215.335,56.8499 215.5,53.5 Z"/></g>
<g><path style="opacity:1" fill="#637fc4" d="M 147.5,71.5 C 166.17,71.3334 184.836,71.5001 203.5,72C 208.756,76.9244 208.756,81.9244 203.5,87C 184.833,87.6667 166.167,87.6667 147.5,87C 142.197,81.7603 142.197,76.5936 147.5,71.5 Z"/></g>
<g><path style="opacity:0.916" fill="#192b3b" d="M 307.5,81.5 C 307.589,77.5674 305.922,74.7341 302.5,73C 297.833,72.3333 293.167,72.3333 288.5,73C 283.529,77.0343 283.196,81.5343 287.5,86.5C 284.414,85.3456 283.081,83.0123 283.5,79.5C 283.151,76.0286 284.484,73.5286 287.5,72C 292.833,71.3333 298.167,71.3333 303.5,72C 307.509,74.2202 308.842,77.3869 307.5,81.5 Z"/></g>
<g><path style="opacity:1" fill="#020305" d="M 259.5,87.5 C 255.78,88.7748 252.113,88.2748 248.5,86C 247.748,85.3292 247.414,84.4959 247.5,83.5C 246.987,73.5606 251.654,70.0606 261.5,73C 265.696,75.9811 266.529,79.8144 264,84.5C 262.348,85.3994 260.848,86.3994 259.5,87.5 Z"/></g>
<g><path style="opacity:1" fill="#030407" d="M 307.5,81.5 C 307.607,83.9032 306.607,85.7365 304.5,87C 298.613,89.1406 292.946,88.9739 287.5,86.5C 283.196,81.5343 283.529,77.0343 288.5,73C 293.167,72.3333 297.833,72.3333 302.5,73C 305.922,74.7341 307.589,77.5674 307.5,81.5 Z"/></g>
<g><path style="opacity:1" fill="#080d11" d="M 329.5,71.5 C 335.622,71.2804 341.288,72.7804 346.5,76C 350.122,80.0571 350.288,84.2238 347,88.5C 340.377,91.1149 333.877,90.6149 327.5,87C 323.083,81.0873 323.75,75.9206 329.5,71.5 Z"/></g>
<g><path style="opacity:0.814" fill="#1a2c3c" d="M 149.5,52.5 C 149.489,54.0174 148.823,55.1841 147.5,56C 141.07,57.632 135.903,61.132 132,66.5C 124.377,84.0877 129.543,96.2544 147.5,103C 148.823,103.816 149.489,104.983 149.5,106.5C 142.434,103.541 136.267,99.2081 131,93.5C 124.59,80.291 126.757,68.791 137.5,59C 141.92,57.4821 145.92,55.3155 149.5,52.5 Z"/></g>
<g><path style="opacity:0.64" fill="#1a2b3a" d="M 259.5,87.5 C 260.848,86.3994 262.348,85.3994 264,84.5C 266.529,79.8144 265.696,75.9811 261.5,73C 251.654,70.0606 246.987,73.5606 247.5,83.5C 245.227,80.005 245.56,76.505 248.5,73C 253.047,71.4548 257.713,71.1215 262.5,72C 264.333,72.5 265.5,73.6667 266,75.5C 266.929,79.2441 266.429,82.7441 264.5,86C 262.975,87.0086 261.308,87.5086 259.5,87.5 Z"/></g>
<g><path style="opacity:0.634" fill="#1b2c3e" d="M 222.5,86.5 C 221.98,90.5384 220.147,93.8717 217,96.5C 216.819,99.6946 216.319,102.695 215.5,105.5C 215.335,102.15 215.502,98.8168 216,95.5C 218.678,92.786 220.845,89.786 222.5,86.5 Z"/></g>
<g><path style="opacity:1" fill="#05070a" d="M 366.5,104.5 C 366.897,109.959 366.397,115.292 365,120.5C 361.959,123.542 358.459,124.208 354.5,122.5C 352.665,121.878 351.498,120.544 351,118.5C 349.89,112.574 350.556,106.908 353,101.5C 355.917,99.6067 359.084,99.1067 362.5,100C 364.751,100.748 366.084,102.248 366.5,104.5 Z"/></g>
<g><path style="opacity:1" fill="#ced8e1" d="M 168.5,104.5 C 178.653,103.506 188.986,103.172 199.5,103.5C 198.633,115.895 192.299,120.729 180.5,118C 176.635,113.306 172.635,108.806 168.5,104.5 Z"/></g>
<g><path style="opacity:0.78" fill="#1a2b3c" d="M 366.5,104.5 C 367.92,110.099 367.753,115.765 366,121.5C 362.251,124.925 358.418,125.259 354.5,122.5C 358.459,124.208 361.959,123.542 365,120.5C 366.397,115.292 366.897,109.959 366.5,104.5 Z"/></g>
<g><path style="opacity:1" fill="#090d11" d="M 337.5,132.5 C 347.371,132.571 350.538,137.237 347,146.5C 340.78,151.375 333.946,152.542 326.5,150C 322.231,145.01 322.564,140.344 327.5,136C 331.052,135.122 334.386,133.956 337.5,132.5 Z"/></g>
<g><path style="opacity:0.769" fill="#1a2b3b" d="M 203.5,129.5 C 199.083,134.142 193.583,136.142 187,135.5C 180.981,136.104 175.814,134.437 171.5,130.5C 182.399,136.096 193.066,135.762 203.5,129.5 Z"/></g>
<g><path style="opacity:1" fill="#040405" d="M 285.5,143.5 C 290.731,140.255 296.398,138.755 302.5,139C 306.048,141.591 307.382,145.091 306.5,149.5C 304.852,150.81 303.186,152.143 301.5,153.5C 328.831,165.332 356.498,176.332 384.5,186.5C 397.025,190.759 409.358,195.593 421.5,201C 432.333,214.5 443.167,228 454,241.5C 457.473,246.44 456.973,250.94 452.5,255C 443.245,258.798 433.911,262.298 424.5,265.5C 424.987,317.226 424.487,368.893 423,420.5C 422.167,421.333 421.333,422.167 420.5,423C 367.914,444.13 315.247,464.963 262.5,485.5C 258.869,486.412 255.203,486.579 251.5,486C 198.25,464.53 144.917,443.363 91.5,422.5C 90.4955,421.317 89.6622,419.984 89,418.5C 88.6667,367.5 88.3333,316.5 88,265.5C 78.124,261.48 68.2907,257.313 58.5,253C 56.077,249.621 55.9103,246.121 58,242.5C 68.7582,229.288 79.2582,215.954 89.5,202.5C 89.9528,201.542 90.6195,200.708 91.5,200C 144.086,178.87 196.753,158.037 249.5,137.5C 252.469,136.671 255.469,136.505 258.5,137C 266.667,140.167 274.833,143.333 283,146.5C 284.749,146.252 285.582,145.252 285.5,143.5 Z"/></g>
<g><path style="opacity:0.739" fill="#192a3a" d="M 306.5,149.5 C 307.382,145.091 306.048,141.591 302.5,139C 296.398,138.755 290.731,140.255 285.5,143.5C 285.369,142.624 285.702,141.957 286.5,141.5C 291.786,138.346 297.452,137.179 303.5,138C 307.448,141.156 308.448,144.99 306.5,149.5 Z"/></g>
<g><path style="opacity:0.637" fill="#182837" d="M 285.5,143.5 C 285.582,145.252 284.749,146.252 283,146.5C 274.833,143.333 266.667,140.167 258.5,137C 255.469,136.505 252.469,136.671 249.5,137.5C 249.918,136.778 250.584,136.278 251.5,136C 254.167,135.333 256.833,135.333 259.5,136C 267.43,138.976 275.264,142.142 283,145.5C 283.708,144.619 284.542,143.953 285.5,143.5 Z"/></g>
<g><path style="opacity:1" fill="#6f2d24" d="M 253.5,152.5 C 300.131,169.979 346.464,188.312 392.5,207.5C 347.55,225.762 302.55,243.929 257.5,262C 256.167,262.667 254.833,262.667 253.5,262C 208.45,243.929 163.45,225.762 118.5,207.5C 163.671,189.338 208.671,171.005 253.5,152.5 Z"/></g>
<g><path style="opacity:1" fill="#0a090b" d="M 262.5,160.5 C 268.888,159.55 272.888,162.217 274.5,168.5C 272.975,172.855 270.808,176.855 268,180.5C 260.588,185.728 255.754,183.895 253.5,175C 255.359,169.446 258.359,164.613 262.5,160.5 Z"/></g>
<g><path style="opacity:0.686" fill="#1c2c3b" d="M 306.5,149.5 C 306.297,151.044 305.63,152.378 304.5,153.5C 331.257,164.523 357.924,175.523 384.5,186.5C 356.498,176.332 328.831,165.332 301.5,153.5C 303.186,152.143 304.852,150.81 306.5,149.5 Z"/></g>
<g><path style="opacity:1" fill="#0a0a0d" d="M 251.5,199.5 C 261.315,199.746 264.815,204.746 262,214.5C 259.774,218.861 256.274,220.361 251.5,219C 249.333,218.167 247.833,216.667 247,214.5C 246.333,211.167 246.333,207.833 247,204.5C 248.025,202.313 249.525,200.646 251.5,199.5 Z"/></g>
<g><path style="opacity:1" fill="#884b3d" d="M 411.5,217.5 C 413.371,217.859 414.871,218.859 416,220.5C 421.805,228.606 427.972,236.439 434.5,244C 386.723,263.305 338.89,282.472 291,301.5C 289.395,300.899 288.062,299.899 287,298.5C 281.195,290.394 275.028,282.561 268.5,275C 316.386,256.1 364.053,236.933 411.5,217.5 Z"/></g>
<g><path style="opacity:1" fill="#a06954" d="M 97.5,217.5 C 145.837,236.559 194.171,255.726 242.5,275C 235.74,283.85 228.74,292.516 221.5,301C 220.167,301.667 218.833,301.667 217.5,301C 170.5,282 123.5,263 76.5,244C 83.3881,235.045 90.3881,226.212 97.5,217.5 Z"/></g>
<g><path style="opacity:0.921" fill="#192b3b" d="M 89.5,202.5 C 79.2582,215.954 68.7582,229.288 58,242.5C 55.9103,246.121 56.077,249.621 58.5,253C 68.2907,257.313 78.124,261.48 88,265.5C 88.3333,316.5 88.6667,367.5 89,418.5C 89.6622,419.984 90.4955,421.317 91.5,422.5C 89.5891,422.426 88.4224,421.426 88,419.5C 87.6667,368.5 87.3333,317.5 87,266.5C 77.124,262.48 67.2907,258.313 57.5,254C 55.0577,249.948 54.891,245.781 57,241.5C 67.3753,228.06 78.2086,215.06 89.5,202.5 Z"/></g>
<g><path style="opacity:1" fill="#c2957a" d="M 103.5,272.5 C 143.499,288.166 183.499,303.833 223.5,319.5C 225.937,319.402 227.937,318.402 229.5,316.5C 235.143,309.023 240.976,301.689 247,294.5C 247.5,352.166 247.667,409.832 247.5,467.5C 199.715,448.902 151.882,429.902 104,410.5C 103.5,364.501 103.333,318.501 103.5,272.5 Z"/></g>
<g><path style="opacity:1" fill="#a16954" d="M 405.5,272.5 C 406.833,295.157 407.5,318.157 407.5,341.5C 407.167,364.5 406.833,387.5 406.5,410.5C 359.167,429.5 311.833,448.5 264.5,467.5C 263.333,409.836 263.167,352.17 264,294.5C 269.667,301.833 275.333,309.167 281,316.5C 282.722,318.444 284.889,319.444 287.5,319.5C 327.228,304.596 366.562,288.929 405.5,272.5 Z"/></g>
<g><path style="opacity:0.665" fill="#172734" d="M 91.5,422.5 C 144.917,443.363 198.25,464.53 251.5,486C 255.203,486.579 258.869,486.412 262.5,485.5C 262.082,486.222 261.416,486.722 260.5,487C 257.167,487.667 253.833,487.667 250.5,487C 197.2,465.962 144.2,444.462 91.5,422.5 Z"/></g>
</svg>
