<?xml version="1.0" encoding="utf-8"?>
<svg width="399.200012pt" height="399.200012pt" viewBox="0 0 399.200012 399.200012" version="1.1" xmlns="http://www.w3.org/2000/svg" xmlns:bx="https://boxy-svg.com">
  <defs>
    <clipPath id="clip1">
      <rect width="400" height="400"/>
    </clipPath>
    <g id="surface5" clip-path="url(#clip1)">
      <path style=" stroke:none;fill-rule:nonzero;fill:rgb(5%,5%,5%);fill-opacity:1;" d="M 398.800781 246 L 398.800781 259.601562 C 395.929688 267.273438 390.59375 272.605469 382.800781 275.601562 C 382.132812 308.398438 381.734375 341.195312 381.601562 374 C 381.066406 377.859375 380.132812 381.589844 378.800781 385.199219 C 385.105469 384.6875 391.238281 385.355469 397.199219 387.199219 C 397.652344 387.996094 398.1875 388.664062 398.800781 389.199219 L 398.800781 396.398438 C 397.734375 396.933594 396.933594 397.734375 396.398438 398.800781 L 2 398.800781 C 1.191406 397.703125 0.390625 396.636719 -0.398438 395.601562 L -0.398438 389.199219 C 1.539062 387.164062 3.941406 385.964844 6.800781 385.601562 C 11.058594 385.199219 15.324219 385.066406 19.601562 385.199219 C 18.855469 381.761719 18.191406 378.296875 17.601562 374.800781 C 17.464844 341.730469 17.066406 308.664062 16.398438 275.601562 C 7.804688 272.871094 2.203125 267.269531 -0.398438 258.800781 L -0.398438 247.601562 C 1.96875 239.757812 7.035156 234.292969 14.800781 231.199219 C 22.9375 230.316406 31.070312 229.652344 39.199219 229.199219 C 39.324219 220.632812 39.859375 212.101562 40.800781 203.601562 C 45.417969 190.738281 49.417969 177.671875 52.800781 164.398438 C 56.929688 147.605469 56.132812 131.070312 50.398438 114.800781 C 48.457031 95.746094 56.054688 82.144531 73.199219 74 C 51.152344 71.285156 38.484375 59.015625 35.199219 37.199219 C 36.097656 35.5 37.296875 34.035156 38.800781 32.800781 C 51.222656 26.265625 64.019531 25.199219 77.199219 29.601562 C 79.933594 22.933594 83 16.402344 86.398438 10 C 88.402344 7.175781 90.667969 4.640625 93.199219 2.398438 C 98.792969 0.667969 101.992188 2.667969 102.800781 8.398438 C 98.199219 16.632812 94.066406 25.164062 90.398438 34 C 87.074219 44.976562 86.007812 56.175781 87.199219 67.601562 C 105.304688 64.742188 119.4375 70.875 129.601562 86 C 134.144531 98.007812 141.210938 108.277344 150.800781 116.800781 C 154.761719 119.429688 158.496094 122.363281 162 125.601562 C 175.820312 133.773438 189.285156 142.441406 202.398438 151.601562 C 210.6875 144.1875 220.15625 138.71875 230.800781 135.199219 C 243.203125 132.402344 255.46875 132.667969 267.601562 136 C 268.113281 132.054688 268.246094 127.921875 268 123.601562 C 258.070312 104.320312 261.402344 87.652344 278 73.601562 C 283.019531 69.621094 288.621094 66.691406 294.800781 64.800781 C 302.65625 62.527344 307.589844 65.328125 309.601562 73.199219 C 314.238281 88.085938 312.640625 102.21875 304.800781 115.601562 C 299.0625 122.671875 291.730469 127.203125 282.800781 129.199219 C 282.007812 132.355469 281.742188 135.554688 282 138.800781 C 318.574219 125.953125 346.972656 136.085938 367.199219 169.199219 C 377.226562 188.023438 380.960938 208.023438 378.398438 229.199219 C 388.351562 231.152344 395.152344 236.75 398.800781 246 Z M 398.800781 246 "/>
    </g>
    <filter id="grayscale-filter-0" color-interpolation-filters="sRGB" x="-50%" y="-50%" width="200%" height="200%" bx:preset="grayscale 1 1">
      <title>Escala de grises</title>
      <feColorMatrix type="matrix" values="0.213 0.715 0.072 0 0 0.213 0.715 0.072 0 0 0.213 0.715 0.072 0 0 0 0 0 1 0"/>
    </filter>
  </defs>
  <g id="surface1" style="filter: url('#grayscale-filter-0'); opacity: 0.74;">
    <g clip-path="url(#clip1)">
      <path style=" stroke:none;fill-rule:nonzero;fill:rgb(5%,5%,5%);fill-opacity:1;" d="M 398.800781 246 L 398.800781 259.601562 C 395.929688 267.273438 390.59375 272.605469 382.800781 275.601562 C 382.132812 308.398438 381.734375 341.195312 381.601562 374 C 381.066406 377.859375 380.132812 381.589844 378.800781 385.199219 C 385.105469 384.6875 391.238281 385.355469 397.199219 387.199219 C 397.652344 387.996094 398.1875 388.664062 398.800781 389.199219 L 398.800781 396.398438 C 397.734375 396.933594 396.933594 397.734375 396.398438 398.800781 L 2 398.800781 C 1.191406 397.703125 0.390625 396.636719 -0.398438 395.601562 L -0.398438 389.199219 C 1.539062 387.164062 3.941406 385.964844 6.800781 385.601562 C 11.058594 385.199219 15.324219 385.066406 19.601562 385.199219 C 18.855469 381.761719 18.191406 378.296875 17.601562 374.800781 C 17.464844 341.730469 17.066406 308.664062 16.398438 275.601562 C 7.804688 272.871094 2.203125 267.269531 -0.398438 258.800781 L -0.398438 247.601562 C 1.96875 239.757812 7.035156 234.292969 14.800781 231.199219 C 22.9375 230.316406 31.070312 229.652344 39.199219 229.199219 C 39.324219 220.632812 39.859375 212.101562 40.800781 203.601562 C 45.417969 190.738281 49.417969 177.671875 52.800781 164.398438 C 56.929688 147.605469 56.132812 131.070312 50.398438 114.800781 C 48.457031 95.746094 56.054688 82.144531 73.199219 74 C 51.152344 71.285156 38.484375 59.015625 35.199219 37.199219 C 36.097656 35.5 37.296875 34.035156 38.800781 32.800781 C 51.222656 26.265625 64.019531 25.199219 77.199219 29.601562 C 79.933594 22.933594 83 16.402344 86.398438 10 C 88.402344 7.175781 90.667969 4.640625 93.199219 2.398438 C 98.792969 0.667969 101.992188 2.667969 102.800781 8.398438 C 98.199219 16.632812 94.066406 25.164062 90.398438 34 C 87.074219 44.976562 86.007812 56.175781 87.199219 67.601562 C 105.304688 64.742188 119.4375 70.875 129.601562 86 C 134.144531 98.007812 141.210938 108.277344 150.800781 116.800781 C 154.761719 119.429688 158.496094 122.363281 162 125.601562 C 175.820312 133.773438 189.285156 142.441406 202.398438 151.601562 C 210.6875 144.1875 220.15625 138.71875 230.800781 135.199219 C 243.203125 132.402344 255.46875 132.667969 267.601562 136 C 268.113281 132.054688 268.246094 127.921875 268 123.601562 C 258.070312 104.320312 261.402344 87.652344 278 73.601562 C 283.019531 69.621094 288.621094 66.691406 294.800781 64.800781 C 302.65625 62.527344 307.589844 65.328125 309.601562 73.199219 C 314.238281 88.085938 312.640625 102.21875 304.800781 115.601562 C 299.0625 122.671875 291.730469 127.203125 282.800781 129.199219 C 282.007812 132.355469 281.742188 135.554688 282 138.800781 C 318.574219 125.953125 346.972656 136.085938 367.199219 169.199219 C 377.226562 188.023438 380.960938 208.023438 378.398438 229.199219 C 388.351562 231.152344 395.152344 236.75 398.800781 246 Z M 398.800781 246 "/>
    </g>
    <path style=" stroke:none;fill-rule:nonzero;fill:rgb(49%,49%,49%);fill-opacity:1;" d="M 57.199219 39.601562 C 63.253906 38.773438 68.71875 40.105469 73.601562 43.601562 C 73.832031 48.933594 73.699219 54.269531 73.199219 59.601562 C 65.566406 60.113281 59.296875 57.449219 54.398438 51.601562 C 52.933594 48.800781 51.464844 46 50 43.199219 C 50.117188 42.582031 50.382812 42.050781 50.800781 41.601562 C 53.046875 40.972656 55.179688 40.308594 57.199219 39.601562 Z M 57.199219 39.601562 "/>
    <path style=" stroke:none;fill-rule:nonzero;fill:rgb(49%,49%,49%);fill-opacity:1;" d="M 293.199219 78.800781 L 298 78.800781 C 299.785156 88.476562 298.851562 97.808594 295.199219 106.800781 C 291.484375 111.589844 286.683594 114.523438 280.800781 115.601562 C 278.996094 115.511719 277.664062 114.710938 276.800781 113.199219 C 273.441406 103.964844 275.042969 95.699219 281.601562 88.398438 C 285.386719 85.007812 289.253906 81.804688 293.199219 78.800781 Z M 293.199219 78.800781 "/>
    <path style=" stroke:none;fill-rule:nonzero;fill:rgb(92%,92%,92%);fill-opacity:1;" d="M 191.601562 160.398438 C 192.175781 162.210938 192.441406 164.078125 192.398438 166 C 188.558594 172.347656 185.359375 179.015625 182.800781 186 C 180.855469 191.105469 179.386719 196.4375 178.398438 202 C 178 211.328125 177.867188 220.664062 178 230 L 53.199219 230 C 52.246094 222.535156 52.382812 215.070312 53.601562 207.601562 C 57.121094 195.300781 60.722656 183.03125 64.398438 170.800781 C 65.632812 168.929688 66.164062 166.796875 66 164.398438 C 68.375 151.9375 68.773438 139.40625 67.199219 126.800781 C 63.324219 118.351562 62.257812 109.550781 64 100.398438 C 64.292969 98.839844 64.960938 97.503906 66 96.398438 C 67.667969 95.53125 68.734375 94.199219 69.199219 92.398438 C 71.71875 89.9375 74.652344 88.070312 78 86.800781 C 79.917969 86.992188 81.519531 86.460938 82.800781 85.199219 C 96.398438 78.050781 108.265625 80.1875 118.398438 91.601562 C 122.902344 104.097656 129.96875 114.898438 139.601562 124 C 151.3125 134.390625 164.113281 143.1875 178 150.398438 C 182.871094 153.359375 187.40625 156.691406 191.601562 160.398438 Z M 191.601562 160.398438 "/>
    <path style=" stroke:none;fill-rule:nonzero;fill:rgb(59%,59%,59%);fill-opacity:1;" d="M 82.800781 85.199219 C 81.519531 86.460938 79.917969 86.992188 78 86.800781 C 79.28125 85.539062 80.882812 85.007812 82.800781 85.199219 Z M 82.800781 85.199219 "/>
    <path style=" stroke:none;fill-rule:nonzero;fill:rgb(63%,63%,63%);fill-opacity:1;" d="M 69.199219 92.398438 C 68.734375 94.199219 67.667969 95.53125 66 96.398438 C 66.464844 94.601562 67.53125 93.269531 69.199219 92.398438 Z M 69.199219 92.398438 "/>
    <path style=" stroke:none;fill-rule:nonzero;fill:rgb(67%,67%,67%);fill-opacity:1;" d="M 192.398438 200.398438 C 193.53125 198.226562 194.0625 195.824219 194 193.199219 C 199.425781 172.710938 211.691406 157.910156 230.800781 148.800781 C 241.734375 145.066406 252.667969 145.066406 263.601562 148.800781 C 268.28125 151.359375 272.949219 153.890625 277.601562 156.398438 C 308.453125 138.429688 334.054688 144.027344 354.398438 173.199219 C 364.367188 190.851562 367.964844 209.785156 365.199219 230 L 191.601562 230 C 189.339844 220.0625 189.605469 210.195312 192.398438 200.398438 Z M 192.398438 200.398438 "/>
    <path style=" stroke:none;fill-rule:nonzero;fill:rgb(64%,64%,64%);fill-opacity:1;" d="M 191.601562 160.398438 C 194.34375 162.015625 194.609375 163.882812 192.398438 166 C 192.441406 164.078125 192.175781 162.210938 191.601562 160.398438 Z M 191.601562 160.398438 "/>
    <path style=" stroke:none;fill-rule:nonzero;fill:rgb(57%,57%,57%);fill-opacity:1;" d="M 66 164.398438 C 66.164062 166.796875 65.632812 168.929688 64.398438 170.800781 C 64.453125 168.457031 64.984375 166.324219 66 164.398438 Z M 66 164.398438 "/>
    <path style=" stroke:none;fill-rule:nonzero;fill:rgb(44%,44%,44%);fill-opacity:1;" d="M 194 193.199219 C 194.0625 195.824219 193.53125 198.226562 192.398438 200.398438 C 192.335938 197.773438 192.871094 195.375 194 193.199219 Z M 194 193.199219 "/>
    <path style=" stroke:none;fill-rule:nonzero;fill:rgb(58%,58%,58%);fill-opacity:1;" d="M 182.800781 186 C 181.519531 192.640625 180.320312 199.308594 179.199219 206 C 178.621094 213.753906 178.753906 221.488281 179.601562 229.199219 C 179.066406 229.464844 178.535156 229.734375 178 230 C 177.867188 220.664062 178 211.328125 178.398438 202 C 179.386719 196.4375 180.855469 191.105469 182.800781 186 Z M 182.800781 186 "/>
    <path style=" stroke:none;fill-rule:nonzero;fill:rgb(22%,22%,22%);fill-opacity:1;" d="M 179.601562 229.199219 C 158.808594 230.265625 137.738281 230.800781 116.398438 230.800781 C 95.199219 230.800781 74.132812 230.535156 53.199219 230 L 178 230 C 178.535156 229.734375 179.066406 229.464844 179.601562 229.199219 Z M 179.601562 229.199219 "/>
    <path style=" stroke:none;fill-rule:nonzero;fill:rgb(49%,49%,49%);fill-opacity:1;" d="M 18 242.800781 C 139.066406 242.535156 260.132812 242.800781 381.199219 243.601562 C 387.167969 247.796875 388.367188 253.128906 384.800781 259.601562 C 383.671875 260.628906 382.472656 261.5625 381.199219 262.398438 C 260.132812 262.933594 139.066406 262.933594 18 262.398438 C 12.394531 258.476562 10.929688 253.277344 13.601562 246.800781 C 14.984375 245.277344 16.449219 243.945312 18 242.800781 Z M 18 242.800781 "/>
    <path style=" stroke:none;fill-rule:nonzero;fill:rgb(58%,58%,58%);fill-opacity:1;" d="M 98.800781 276.398438 C 114.128906 275.601562 129.59375 275.335938 145.199219 275.601562 C 145.390625 276.632812 145.125 277.433594 144.398438 278 C 129.492188 276.410156 114.289062 275.875 98.800781 276.398438 Z M 98.800781 276.398438 "/>
    <path style=" stroke:none;fill-rule:nonzero;fill:rgb(58%,58%,58%);fill-opacity:1;" d="M 281.199219 278.800781 L 281.199219 276.398438 L 238 276.398438 L 238 278.800781 C 236.425781 278.195312 236.160156 277.261719 237.199219 276 C 252.132812 275.601562 267.0625 275.464844 282 275.601562 C 282.214844 276.878906 281.945312 277.945312 281.199219 278.800781 Z M 281.199219 278.800781 "/>
    <path style=" stroke:none;fill-rule:nonzero;fill:rgb(74%,74%,74%);fill-opacity:1;" d="M 38.800781 275.601562 C 48.136719 275.464844 57.46875 275.601562 66.800781 276 C 67.164062 276.332031 67.433594 276.730469 67.601562 277.199219 C 63.207031 280.925781 59.207031 285.058594 55.601562 289.601562 C 54.617188 290.226562 53.550781 290.625 52.398438 290.800781 C 47.703125 287.3125 43.304688 283.3125 39.199219 278.800781 C 38.808594 277.765625 38.675781 276.699219 38.800781 275.601562 Z M 38.800781 275.601562 "/>
    <path style=" stroke:none;fill-rule:nonzero;fill:rgb(76%,76%,76%);fill-opacity:1;" d="M 98.800781 276.398438 C 114.289062 275.875 129.492188 276.410156 144.398438 278 C 137.195312 285.871094 129.59375 293.339844 121.601562 300.398438 C 113.898438 293.5 106.433594 286.300781 99.199219 278.800781 C 98.8125 278.042969 98.679688 277.242188 98.800781 276.398438 Z M 98.800781 276.398438 "/>
    <path style=" stroke:none;fill-rule:nonzero;fill:rgb(76%,76%,76%);fill-opacity:1;" d="M 281.199219 278.800781 C 274.292969 285.207031 267.625 292.007812 261.199219 299.199219 C 260.132812 299.734375 259.066406 299.734375 258 299.199219 C 251.171875 292.503906 244.503906 285.707031 238 278.800781 L 238 276.398438 L 281.199219 276.398438 Z M 281.199219 278.800781 "/>
    <path style=" stroke:none;fill-rule:nonzero;fill:rgb(75%,75%,75%);fill-opacity:1;" d="M 340.398438 279.601562 C 337.464844 283.066406 334.265625 286.265625 330.800781 289.199219 C 329.441406 289.328125 328.105469 289.195312 326.800781 288.800781 L 315.601562 277.601562 C 323.863281 277.199219 332.128906 277.066406 340.398438 277.199219 Z M 340.398438 279.601562 "/>
    <path style=" stroke:none;fill-rule:nonzero;fill:rgb(76%,76%,76%);fill-opacity:1;" d="M 177.199219 276.398438 L 204.398438 276.398438 C 204.519531 277.242188 204.386719 278.042969 204 278.800781 C 199.417969 282.722656 195.015625 286.722656 190.800781 290.800781 C 185.871094 287.453125 181.472656 283.453125 177.601562 278.800781 C 177.214844 278.042969 177.082031 277.242188 177.199219 276.398438 Z M 177.199219 276.398438 "/>
    <path style=" stroke:none;fill-rule:nonzero;fill:rgb(76%,76%,76%);fill-opacity:1;" d="M 82 280.398438 C 92.496094 289.429688 102.363281 299.164062 111.601562 309.601562 C 105.574219 316.828125 98.90625 323.359375 91.601562 329.199219 C 90.1875 328.726562 88.855469 328.0625 87.601562 327.199219 C 80.308594 318.84375 72.445312 310.976562 64 303.601562 C 63.464844 302.265625 63.464844 300.933594 64 299.601562 C 70.457031 293.546875 76.457031 287.144531 82 280.398438 Z M 82 280.398438 "/>
    <path style=" stroke:none;fill-rule:nonzero;fill:rgb(76%,76%,76%);fill-opacity:1;" d="M 158 282 C 159.621094 281.871094 161.222656 282.003906 162.800781 282.398438 C 169.03125 288.089844 174.628906 294.222656 179.601562 300.800781 C 179.464844 301.464844 179.332031 302.132812 179.199219 302.800781 C 170.488281 311.246094 162.085938 319.910156 154 328.800781 C 152.667969 329.332031 151.332031 329.332031 150 328.800781 C 143.519531 322.589844 137.386719 316.191406 131.601562 309.601562 C 140.171875 300.355469 148.972656 291.15625 158 282 Z M 158 282 "/>
    <path style=" stroke:none;fill-rule:nonzero;fill:rgb(77%,77%,77%);fill-opacity:1;" d="M 219.601562 281.199219 C 220.441406 281.082031 221.242188 281.214844 222 281.601562 C 231.367188 290.699219 240.433594 300.03125 249.199219 309.601562 C 242.957031 316.777344 236.289062 323.578125 229.199219 330 C 223.855469 324.785156 218.386719 319.71875 212.800781 314.800781 C 208.734375 310.34375 204.867188 305.808594 201.199219 301.199219 C 207.03125 294.300781 213.164062 287.632812 219.601562 281.199219 Z M 219.601562 281.199219 "/>
    <path style=" stroke:none;fill-rule:nonzero;fill:rgb(76%,76%,76%);fill-opacity:1;" d="M 297.199219 281.199219 C 298.042969 281.082031 298.839844 281.214844 299.601562 281.601562 C 306.195312 287.792969 312.332031 294.328125 318 301.199219 C 309.707031 310.699219 300.90625 319.898438 291.601562 328.800781 C 291.066406 328.933594 290.535156 329.066406 290 329.199219 C 288.042969 328.1875 286.179688 326.988281 284.398438 325.601562 C 280.222656 320.355469 275.558594 315.691406 270.398438 311.601562 C 269.867188 310.265625 269.867188 308.933594 270.398438 307.601562 C 279.25 298.617188 288.183594 289.816406 297.199219 281.199219 Z M 297.199219 281.199219 "/>
    <path style=" stroke:none;fill-rule:nonzero;fill:rgb(76%,76%,76%);fill-opacity:1;" d="M 356.398438 282 C 357.757812 281.871094 359.09375 282.003906 360.398438 282.398438 C 362.164062 284.433594 364.164062 286.164062 366.398438 287.601562 C 367.089844 288.871094 367.625 290.203125 368 291.601562 C 368.398438 304.128906 368.535156 316.664062 368.398438 329.199219 C 367.300781 329.324219 366.234375 329.191406 365.199219 328.800781 C 355.988281 319.722656 346.921875 310.523438 338 301.199219 C 344.152344 294.78125 350.285156 288.382812 356.398438 282 Z M 356.398438 282 "/>
    <path style=" stroke:none;fill-rule:nonzero;fill:rgb(66%,66%,66%);fill-opacity:1;" d="M 340.398438 279.601562 L 340.398438 277.199219 C 332.128906 277.066406 323.863281 277.199219 315.601562 277.601562 L 326.800781 288.800781 C 328.105469 289.195312 329.441406 289.328125 330.800781 289.199219 C 330.074219 291.132812 328.742188 291.796875 326.800781 291.199219 L 314.398438 278.800781 C 314.007812 277.765625 313.875 276.699219 314 275.601562 L 342.800781 275.601562 C 342.980469 277.546875 342.179688 278.878906 340.398438 279.601562 Z M 340.398438 279.601562 "/>
    <path style=" stroke:none;fill-rule:nonzero;fill:rgb(74%,74%,74%);fill-opacity:1;" d="M 31.601562 290 C 32.984375 290.492188 34.183594 291.292969 35.199219 292.398438 C 37.746094 295.476562 40.277344 298.542969 42.800781 301.601562 C 39.699219 305.765625 36.101562 309.367188 32 312.398438 C 31.085938 308.804688 30.6875 305.070312 30.800781 301.199219 C 30.820312 297.402344 31.089844 293.667969 31.601562 290 Z M 31.601562 290 "/>
    <path style=" stroke:none;fill-rule:nonzero;fill:rgb(76%,76%,76%);fill-opacity:1;" d="M 51.601562 311.601562 C 52.441406 311.480469 53.242188 311.613281 54 312 C 63.390625 321.121094 72.457031 330.453125 81.199219 340 C 72.265625 350 62.800781 359.464844 52.800781 368.398438 C 50.277344 366.410156 47.742188 364.410156 45.199219 362.398438 C 40.285156 357.75 35.617188 352.816406 31.199219 347.601562 C 30.535156 342.246094 30.667969 336.914062 31.601562 331.601562 C 38.550781 325.183594 45.21875 318.515625 51.601562 311.601562 Z M 51.601562 311.601562 "/>
    <path style=" stroke:none;fill-rule:nonzero;fill:rgb(76%,76%,76%);fill-opacity:1;" d="M 189.199219 311.601562 C 190.042969 311.480469 190.839844 311.613281 191.601562 312 C 201.304688 320.503906 210.371094 329.703125 218.800781 339.601562 C 210.027344 349.839844 200.558594 359.441406 190.398438 368.398438 C 180.398438 359.464844 170.933594 350 162 340 C 170.929688 330.40625 179.996094 320.9375 189.199219 311.601562 Z M 189.199219 311.601562 "/>
    <path style=" stroke:none;fill-rule:nonzero;fill:rgb(77%,77%,77%);fill-opacity:1;" d="M 326.800781 311.601562 C 328.246094 311.59375 329.578125 311.992188 330.800781 312.800781 C 339.816406 321.414062 348.351562 330.347656 356.398438 339.601562 C 352.433594 344.636719 348.164062 349.4375 343.601562 354 C 338.945312 358.253906 334.410156 362.65625 330 367.199219 C 328.667969 367.734375 327.332031 367.734375 326 367.199219 C 316.953125 358.457031 308.417969 349.386719 300.398438 340 C 300.535156 339.332031 300.667969 338.667969 300.800781 338 C 309.628906 329.304688 318.296875 320.503906 326.800781 311.601562 Z M 326.800781 311.601562 "/>
    <path style=" stroke:none;fill-rule:nonzero;fill:rgb(76%,76%,76%);fill-opacity:1;" d="M 258.800781 319.601562 C 259.9375 319.765625 261.003906 320.167969 262 320.800781 C 267.207031 326.566406 272.671875 332.035156 278.398438 337.199219 C 278.910156 338.085938 279.308594 339.019531 279.601562 340 C 273.574219 347.226562 266.90625 353.761719 259.601562 359.601562 C 256.574219 357.511719 253.640625 355.246094 250.800781 352.800781 C 246.914062 348.515625 243.179688 344.117188 239.601562 339.601562 C 245.457031 332.410156 251.855469 325.746094 258.800781 319.601562 Z M 258.800781 319.601562 "/>
    <path style=" stroke:none;fill-rule:nonzero;fill:rgb(76%,76%,76%);fill-opacity:1;" d="M 119.601562 320.398438 C 120.960938 320.273438 122.292969 320.40625 123.601562 320.800781 C 130.097656 326.757812 135.960938 333.15625 141.199219 340 C 141.066406 340.667969 140.933594 341.332031 140.800781 342 C 134.742188 348.269531 128.339844 354.136719 121.601562 359.601562 C 114.472656 353.808594 108.207031 347.277344 102.800781 340 C 102.933594 339.332031 103.066406 338.667969 103.199219 338 C 109.101562 332.5 114.570312 326.632812 119.601562 320.398438 Z M 119.601562 320.398438 "/>
    <path style=" stroke:none;fill-rule:nonzero;fill:rgb(76%,76%,76%);fill-opacity:1;" d="M 365.199219 349.199219 L 368.398438 349.199219 C 368.535156 358.535156 368.398438 367.871094 368 377.199219 C 362.914062 385.992188 355.3125 389.058594 345.199219 386.398438 C 341.949219 384.480469 339.546875 381.816406 338 378.398438 C 339.699219 376.160156 341.433594 373.894531 343.199219 371.601562 C 350.941406 364.527344 358.273438 357.058594 365.199219 349.199219 Z M 365.199219 349.199219 "/>
    <path style=" stroke:none;fill-rule:nonzero;fill:rgb(76%,76%,76%);fill-opacity:1;" d="M 90 350 C 90.839844 349.878906 91.640625 350.011719 92.398438 350.398438 C 98.910156 356.109375 105.175781 362.109375 111.199219 368.398438 C 111.734375 369.464844 111.734375 370.535156 111.199219 371.601562 C 106.632812 376.300781 101.96875 380.832031 97.199219 385.199219 C 87.609375 386.132812 78.011719 386.265625 68.398438 385.601562 C 66.964844 383.363281 65.230469 381.363281 63.199219 379.601562 C 62.667969 378.800781 62.667969 378 63.199219 377.199219 C 72.296875 368.238281 81.226562 359.171875 90 350 Z M 90 350 "/>
    <path style=" stroke:none;fill-rule:nonzero;fill:rgb(76%,76%,76%);fill-opacity:1;" d="M 150.800781 350 C 151.640625 349.878906 152.441406 350.011719 153.199219 350.398438 L 180 377.199219 C 180.535156 378 180.535156 378.800781 180 379.601562 L 174 385.601562 C 164.65625 386.265625 155.320312 386.132812 146 385.199219 C 141.597656 380.398438 136.929688 375.863281 132 371.601562 C 131.464844 370.800781 131.464844 370 132 369.199219 C 138.429688 362.90625 144.695312 356.503906 150.800781 350 Z M 150.800781 350 "/>
    <path style=" stroke:none;fill-rule:nonzero;fill:rgb(76%,76%,76%);fill-opacity:1;" d="M 227.601562 350 C 228.699219 349.875 229.765625 350.007812 230.800781 350.398438 L 248.800781 368.398438 C 249.332031 369.464844 249.332031 370.535156 248.800781 371.601562 C 244.109375 376.558594 239.175781 381.226562 234 385.601562 C 224.933594 386.132812 215.867188 386.132812 206.800781 385.601562 L 200.800781 379.601562 C 200.265625 378.800781 200.265625 378 200.800781 377.199219 C 209.9375 368.195312 218.871094 359.128906 227.601562 350 Z M 227.601562 350 "/>
    <path style=" stroke:none;fill-rule:nonzero;fill:rgb(77%,77%,77%);fill-opacity:1;" d="M 288.398438 350 C 289.242188 349.878906 290.042969 350.011719 290.800781 350.398438 L 317.601562 377.199219 C 316.839844 380.425781 315.105469 383.226562 312.398438 385.601562 C 303.066406 386.132812 293.734375 386.132812 284.398438 385.601562 C 280.28125 381.21875 275.882812 377.085938 271.199219 373.199219 C 270.160156 371.707031 269.890625 370.109375 270.398438 368.398438 C 276.5625 362.371094 282.5625 356.238281 288.398438 350 Z M 288.398438 350 "/>
    <path style=" stroke:none;fill-rule:nonzero;fill:rgb(74%,74%,74%);fill-opacity:1;" d="M 30.800781 367.601562 C 31.640625 367.480469 32.441406 367.613281 33.199219 368 C 36.265625 371.066406 39.332031 374.132812 42.398438 377.199219 C 42.328125 379.714844 41.128906 381.714844 38.800781 383.199219 C 37.734375 383.734375 36.667969 383.734375 35.601562 383.199219 C 31.59375 378.796875 29.992188 373.597656 30.800781 367.601562 Z M 30.800781 367.601562 "/>
    <path style=" stroke:none;fill-rule:nonzero;fill:rgb(71%,71%,71%);fill-opacity:1;" d="M 120.398438 380.398438 C 124.167969 380.4375 126.035156 382.300781 126 386 C 123.054688 386.132812 120.121094 386 117.199219 385.601562 C 116.4375 385.027344 116.304688 384.359375 116.800781 383.601562 C 118.394531 382.9375 119.59375 381.871094 120.398438 380.398438 Z M 120.398438 380.398438 "/>
    <path style=" stroke:none;fill-rule:nonzero;fill:rgb(71%,71%,71%);fill-opacity:1;" d="M 258 380.398438 C 261.378906 380.457031 263.378906 382.058594 264 385.199219 C 261.015625 385.96875 257.949219 386.234375 254.800781 386 C 255.167969 383.757812 256.234375 381.890625 258 380.398438 Z M 258 380.398438 "/>
  </g>
</svg>