<?xml version="1.0" encoding="UTF-8"?>
<!DOCTYPE svg PUBLIC "-//W3C//DTD SVG 1.1//EN" "http://www.w3.org/Graphics/SVG/1.1/DTD/svg11.dtd">
<svg xmlns="http://www.w3.org/2000/svg" version="1.1" width="499px" height="499px" style="shape-rendering:geometricPrecision; text-rendering:geometricPrecision; image-rendering:optimizeQuality; fill-rule:evenodd; clip-rule:evenodd" xmlns:xlink="http://www.w3.org/1999/xlink">
<g><path style="opacity:0.999" fill="#0b0e0d" d="M 498.5,307.5 C 498.5,313.167 498.5,318.833 498.5,324.5C 494.91,334.091 488.243,340.757 478.5,344.5C 477.667,385.496 477.167,426.496 477,467.5C 476.335,472.322 475.168,476.988 473.5,481.5C 481.382,480.861 489.049,481.694 496.5,484C 497.066,484.995 497.733,485.828 498.5,486.5C 498.5,489.5 498.5,492.5 498.5,495.5C 497.167,496.167 496.167,497.167 495.5,498.5C 331.167,498.5 166.833,498.5 2.5,498.5C 1.48837,497.128 0.488369,495.795 -0.5,494.5C -0.5,491.833 -0.5,489.167 -0.5,486.5C 1.92484,483.954 4.92484,482.454 8.5,482C 13.8229,481.501 19.1563,481.334 24.5,481.5C 23.5704,477.204 22.7371,472.87 22,468.5C 21.8333,427.163 21.3333,385.829 20.5,344.5C 9.75595,341.089 2.75595,334.089 -0.5,323.5C -0.5,318.833 -0.5,314.167 -0.5,309.5C 2.46148,299.699 8.79481,292.866 18.5,289C 28.6712,287.896 38.8378,287.063 49,286.5C 49.1552,275.791 49.8219,265.125 51,254.5C 56.7707,238.421 61.7707,222.088 66,205.5C 71.164,184.505 70.164,163.838 63,143.5C 60.5696,119.683 70.0696,102.683 91.5,92.5C 63.9405,89.1052 48.1071,73.7718 44,46.5C 45.1217,44.3762 46.6217,42.5429 48.5,41C 64.0268,32.8318 80.0268,31.4984 96.5,37C 99.9153,28.6678 103.749,20.5011 108,12.5C 110.501,8.96869 113.334,5.80202 116.5,3C 123.489,0.834318 127.489,3.33432 128.5,10.5C 122.749,20.79 117.582,31.4567 113,42.5C 108.844,56.2201 107.511,70.2201 109,84.5C 131.63,80.9261 149.296,88.5927 162,107.5C 167.681,122.512 176.514,135.346 188.5,146C 193.454,149.285 198.12,152.952 202.5,157C 219.775,167.216 236.608,178.05 253,189.5C 263.36,180.233 275.194,173.399 288.5,169C 304.002,165.502 319.335,165.836 334.5,170C 335.142,165.067 335.309,159.9 335,154.5C 322.588,130.399 326.754,109.566 347.5,92C 353.774,87.0288 360.774,83.3621 368.5,81C 378.319,78.1578 384.486,81.6578 387,91.5C 392.799,110.106 390.799,127.773 381,144.5C 373.83,153.338 364.663,159.005 353.5,161.5C 352.509,165.445 352.176,169.445 352.5,173.5C 398.217,157.439 433.717,170.105 459,211.5C 471.533,235.028 476.199,260.028 473,286.5C 485.441,288.939 493.941,295.939 498.5,307.5 Z"/></g>
<g><path style="opacity:1" fill="#578f84" d="M 71.5,49.5 C 79.0657,48.4658 85.899,50.1324 92,54.5C 92.2882,61.1692 92.1216,67.8359 91.5,74.5C 81.9562,75.1438 74.1229,71.8104 68,64.5C 66.1667,61 64.3333,57.5 62.5,54C 62.6448,53.228 62.9781,52.5613 63.5,52C 66.3102,51.2177 68.9768,50.3844 71.5,49.5 Z"/></g>
<g><path style="opacity:1" fill="#589085" d="M 366.5,98.5 C 368.5,98.5 370.5,98.5 372.5,98.5C 374.73,110.596 373.563,122.262 369,133.5C 364.354,139.485 358.354,143.152 351,144.5C 348.745,144.39 347.078,143.39 346,141.5C 341.803,129.955 343.803,119.622 352,110.5C 356.732,106.258 361.565,102.258 366.5,98.5 Z"/></g>
<g><path style="opacity:1" fill="#f9ebb9" d="M 239.5,200.5 C 240.219,202.764 240.552,205.097 240.5,207.5C 235.698,215.437 231.698,223.77 228.5,232.5C 226.068,238.882 224.235,245.549 223,252.5C 222.5,264.162 222.333,275.829 222.5,287.5C 170.5,287.5 118.5,287.5 66.5,287.5C 65.3095,278.17 65.4762,268.837 67,259.5C 71.4036,244.124 75.9036,228.791 80.5,213.5C 82.0395,211.162 82.7062,208.495 82.5,205.5C 85.4692,189.924 85.9692,174.257 84,158.5C 79.1553,147.939 77.822,136.939 80,125.5C 80.3661,123.548 81.1995,121.882 82.5,120.5C 84.5869,119.415 85.9202,117.749 86.5,115.5C 89.6505,112.421 93.3171,110.087 97.5,108.5C 99.8984,108.741 101.898,108.074 103.5,106.5C 120.498,97.5659 135.331,100.233 148,114.5C 153.626,130.121 162.459,143.621 174.5,155C 189.14,167.986 205.14,178.986 222.5,188C 228.59,191.699 234.257,195.866 239.5,200.5 Z"/></g>
<g><path style="opacity:1" fill="#7fa979" d="M 103.5,106.5 C 101.898,108.074 99.8984,108.741 97.5,108.5C 99.1016,106.926 101.102,106.259 103.5,106.5 Z"/></g>
<g><path style="opacity:1" fill="#96ac80" d="M 86.5,115.5 C 85.9202,117.749 84.5869,119.415 82.5,120.5C 83.0798,118.251 84.4131,116.585 86.5,115.5 Z"/></g>
<g><path style="opacity:1" fill="#88c489" d="M 240.5,250.5 C 241.913,247.781 242.58,244.781 242.5,241.5C 249.28,215.889 264.613,197.389 288.5,186C 302.167,181.333 315.833,181.333 329.5,186C 335.351,189.197 341.185,192.363 347,195.5C 385.567,173.035 417.567,180.035 443,216.5C 455.457,238.563 459.957,262.23 456.5,287.5C 384.167,287.5 311.833,287.5 239.5,287.5C 236.674,275.077 237.008,262.744 240.5,250.5 Z"/></g>
<g><path style="opacity:1" fill="#93b182" d="M 239.5,200.5 C 242.929,202.519 243.262,204.852 240.5,207.5C 240.552,205.097 240.219,202.764 239.5,200.5 Z"/></g>
<g><path style="opacity:1" fill="#9b9374" d="M 82.5,205.5 C 82.7062,208.495 82.0395,211.162 80.5,213.5C 80.5651,210.572 81.2318,207.905 82.5,205.5 Z"/></g>
<g><path style="opacity:1" fill="#587f5a" d="M 242.5,241.5 C 242.58,244.781 241.913,247.781 240.5,250.5C 240.42,247.219 241.087,244.219 242.5,241.5 Z"/></g>
<g><path style="opacity:1" fill="#7da777" d="M 228.5,232.5 C 226.901,240.803 225.401,249.136 224,257.5C 223.275,267.194 223.441,276.86 224.5,286.5C 223.833,286.833 223.167,287.167 222.5,287.5C 222.333,275.829 222.5,264.162 223,252.5C 224.235,245.549 226.068,238.882 228.5,232.5 Z"/></g>
<g><path style="opacity:1" fill="#39392e" d="M 224.5,286.5 C 198.509,287.833 172.175,288.5 145.5,288.5C 118.998,288.5 92.6645,288.167 66.5,287.5C 118.5,287.5 170.5,287.5 222.5,287.5C 223.167,287.167 223.833,286.833 224.5,286.5 Z"/></g>
<g><path style="opacity:1" fill="#589085" d="M 22.5,303.5 C 173.835,303.167 325.168,303.5 476.5,304.5C 483.96,309.745 485.46,316.412 481,324.5C 479.59,325.787 478.09,326.954 476.5,328C 325.167,328.667 173.833,328.667 22.5,328C 15.4939,323.096 13.6606,316.596 17,308.5C 18.7297,306.598 20.563,304.931 22.5,303.5 Z"/></g>
<g><path style="opacity:1" fill="#7ca09e" d="M 123.5,345.5 C 142.659,344.503 161.993,344.17 181.5,344.5C 181.737,345.791 181.404,346.791 180.5,347.5C 161.863,345.513 142.863,344.846 123.5,345.5 Z"/></g>
<g><path style="opacity:1" fill="#7b9f9d" d="M 351.5,348.5 C 351.5,347.5 351.5,346.5 351.5,345.5C 333.5,345.5 315.5,345.5 297.5,345.5C 297.5,346.5 297.5,347.5 297.5,348.5C 295.534,347.745 295.2,346.579 296.5,345C 315.164,344.5 333.83,344.333 352.5,344.5C 352.768,346.099 352.434,347.432 351.5,348.5 Z"/></g>
<g><path style="opacity:1" fill="#9dcac8" d="M 48.5,344.5 C 60.1714,344.333 71.8381,344.5 83.5,345C 83.9574,345.414 84.2907,345.914 84.5,346.5C 79.0098,351.157 74.0098,356.324 69.5,362C 68.2713,362.781 66.938,363.281 65.5,363.5C 59.6304,359.141 54.1304,354.141 49,348.5C 48.51,347.207 48.3433,345.873 48.5,344.5 Z"/></g>
<g><path style="opacity:1" fill="#a2d1cf" d="M 123.5,345.5 C 142.863,344.846 161.863,345.513 180.5,347.5C 171.493,357.34 161.993,366.674 152,375.5C 142.375,366.876 133.042,357.876 124,348.5C 123.517,347.552 123.351,346.552 123.5,345.5 Z"/></g>
<g><path style="opacity:1" fill="#a2d0ce" d="M 351.5,348.5 C 342.865,356.508 334.531,365.008 326.5,374C 325.167,374.667 323.833,374.667 322.5,374C 313.964,365.632 305.631,357.132 297.5,348.5C 297.5,347.5 297.5,346.5 297.5,345.5C 315.5,345.5 333.5,345.5 351.5,345.5C 351.5,346.5 351.5,347.5 351.5,348.5 Z"/></g>
<g><path style="opacity:1" fill="#a0cfc9" d="M 425.5,349.5 C 421.833,353.833 417.833,357.833 413.5,361.5C 411.801,361.66 410.134,361.494 408.5,361C 403.833,356.333 399.167,351.667 394.5,347C 404.828,346.5 415.161,346.334 425.5,346.5C 425.5,347.5 425.5,348.5 425.5,349.5 Z"/></g>
<g><path style="opacity:1" fill="#a2d0ce" d="M 221.5,345.5 C 232.833,345.5 244.167,345.5 255.5,345.5C 255.649,346.552 255.483,347.552 255,348.5C 249.271,353.402 243.771,358.402 238.5,363.5C 232.34,359.318 226.84,354.318 222,348.5C 221.517,347.552 221.351,346.552 221.5,345.5 Z"/></g>
<g><path style="opacity:1" fill="#a3d1cf" d="M 102.5,350.5 C 115.621,361.787 127.954,373.954 139.5,387C 131.966,396.034 123.633,404.201 114.5,411.5C 112.734,410.909 111.067,410.076 109.5,409C 100.387,398.554 90.5542,388.721 80,379.5C 79.3333,377.833 79.3333,376.167 80,374.5C 88.0715,366.932 95.5715,358.932 102.5,350.5 Z"/></g>
<g><path style="opacity:1" fill="#a2d0ce" d="M 197.5,352.5 C 199.527,352.338 201.527,352.505 203.5,353C 211.287,360.113 218.287,367.779 224.5,376C 224.333,376.833 224.167,377.667 224,378.5C 213.109,389.056 202.609,399.889 192.5,411C 190.833,411.667 189.167,411.667 187.5,411C 179.401,403.238 171.734,395.238 164.5,387C 175.216,375.446 186.216,363.946 197.5,352.5 Z"/></g>
<g><path style="opacity:1" fill="#a3d2d0" d="M 274.5,351.5 C 275.552,351.351 276.552,351.517 277.5,352C 289.209,363.375 300.542,375.041 311.5,387C 303.695,395.972 295.362,404.472 286.5,412.5C 279.817,405.983 272.984,399.65 266,393.5C 260.919,387.929 256.085,382.262 251.5,376.5C 258.79,367.874 266.457,359.541 274.5,351.5 Z"/></g>
<g><path style="opacity:1" fill="#a2d0ce" d="M 371.5,351.5 C 372.552,351.351 373.552,351.517 374.5,352C 382.746,359.742 390.413,367.909 397.5,376.5C 387.132,388.374 376.132,399.874 364.5,411C 363.833,411.167 363.167,411.333 362.5,411.5C 360.056,410.233 357.723,408.733 355.5,407C 350.279,400.446 344.446,394.612 338,389.5C 337.333,387.833 337.333,386.167 338,384.5C 349.062,373.271 360.228,362.271 371.5,351.5 Z"/></g>
<g><path style="opacity:1" fill="#a1cfcd" d="M 445.5,352.5 C 447.199,352.34 448.866,352.506 450.5,353C 452.705,355.54 455.205,357.707 458,359.5C 458.862,361.087 459.529,362.754 460,364.5C 460.5,380.163 460.667,395.83 460.5,411.5C 459.127,411.657 457.793,411.49 456.5,411C 444.986,399.653 433.652,388.153 422.5,376.5C 430.188,368.479 437.855,360.479 445.5,352.5 Z"/></g>
<g><path style="opacity:1" fill="#8abb9e" d="M 425.5,349.5 C 425.5,348.5 425.5,347.5 425.5,346.5C 415.161,346.334 404.828,346.5 394.5,347C 399.167,351.667 403.833,356.333 408.5,361C 410.134,361.494 411.801,361.66 413.5,361.5C 412.594,363.914 410.928,364.747 408.5,364C 403.333,358.833 398.167,353.667 393,348.5C 392.51,347.207 392.343,345.873 392.5,344.5C 404.5,344.5 416.5,344.5 428.5,344.5C 428.727,346.933 427.727,348.599 425.5,349.5 Z"/></g>
<g><path style="opacity:1" fill="#9dcac8" d="M 39.5,362.5 C 41.2292,363.117 42.7292,364.117 44,365.5C 47.1802,369.345 50.3469,373.178 53.5,377C 49.6247,382.209 45.1247,386.709 40,390.5C 38.8585,386.007 38.3585,381.34 38.5,376.5C 38.5268,371.753 38.8601,367.087 39.5,362.5 Z"/></g>
<g><path style="opacity:1" fill="#a3d1cf" d="M 64.5,389.5 C 65.552,389.351 66.552,389.517 67.5,390C 79.2364,401.401 90.5698,413.068 101.5,425C 90.3333,437.5 78.5,449.333 66,460.5C 62.8444,458.014 59.6777,455.514 56.5,453C 50.3567,447.188 44.5233,441.022 39,434.5C 38.1691,427.808 38.3358,421.142 39.5,414.5C 48.1877,406.479 56.521,398.146 64.5,389.5 Z"/></g>
<g><path style="opacity:1" fill="#a3d1cf" d="M 236.5,389.5 C 237.552,389.351 238.552,389.517 239.5,390C 251.63,400.631 262.964,412.131 273.5,424.5C 262.533,437.301 250.7,449.301 238,460.5C 225.5,449.333 213.667,437.5 202.5,425C 213.66,413.007 224.993,401.173 236.5,389.5 Z"/></g>
<g><path style="opacity:1" fill="#a3d2d0" d="M 408.5,389.5 C 410.308,389.491 411.975,389.991 413.5,391C 424.771,401.767 435.438,412.933 445.5,424.5C 440.54,430.796 435.206,436.796 429.5,442.5C 423.681,447.818 418.015,453.318 412.5,459C 410.833,459.667 409.167,459.667 407.5,459C 396.19,448.069 385.523,436.735 375.5,425C 375.667,424.167 375.833,423.333 376,422.5C 387.035,411.632 397.869,400.632 408.5,389.5 Z"/></g>
<g><path style="opacity:1" fill="#a2d0ce" d="M 323.5,399.5 C 324.922,399.709 326.255,400.209 327.5,401C 334.009,408.209 340.842,415.043 348,421.5C 348.638,422.609 349.138,423.775 349.5,425C 341.966,434.034 333.633,442.201 324.5,449.5C 320.716,446.891 317.049,444.057 313.5,441C 308.644,435.645 303.977,430.145 299.5,424.5C 306.819,415.514 314.819,407.181 323.5,399.5 Z"/></g>
<g><path style="opacity:1" fill="#a3d1cf" d="M 149.5,400.5 C 151.199,400.34 152.866,400.506 154.5,401C 162.62,408.445 169.953,416.445 176.5,425C 176.333,425.833 176.167,426.667 176,427.5C 168.426,435.337 160.426,442.67 152,449.5C 143.093,442.262 135.26,434.096 128.5,425C 128.667,424.167 128.833,423.333 129,422.5C 136.378,415.624 143.211,408.291 149.5,400.5 Z"/></g>
<g><path style="opacity:1" fill="#a1cfcd" d="M 456.5,436.5 C 457.833,436.5 459.167,436.5 460.5,436.5C 460.667,448.171 460.5,459.838 460,471.5C 453.643,482.491 444.143,486.324 431.5,483C 427.435,480.603 424.435,477.27 422.5,473C 424.623,470.2 426.79,467.367 429,464.5C 438.676,455.657 447.843,446.324 456.5,436.5 Z"/></g>
<g><path style="opacity:1" fill="#a2d0ce" d="M 112.5,437.5 C 113.552,437.351 114.552,437.517 115.5,438C 123.636,445.135 131.47,452.635 139,460.5C 139.667,461.833 139.667,463.167 139,464.5C 133.292,470.376 127.459,476.042 121.5,481.5C 109.514,482.666 97.5139,482.833 85.5,482C 83.7068,479.205 81.5402,476.705 79,474.5C 78.3333,473.5 78.3333,472.5 79,471.5C 90.3687,460.298 101.535,448.965 112.5,437.5 Z"/></g>
<g><path style="opacity:1" fill="#a2d1cf" d="M 188.5,437.5 C 189.552,437.351 190.552,437.517 191.5,438C 202.667,449.167 213.833,460.333 225,471.5C 225.667,472.5 225.667,473.5 225,474.5C 222.5,477 220,479.5 217.5,482C 205.819,482.833 194.152,482.666 182.5,481.5C 176.998,475.498 171.164,469.831 165,464.5C 164.333,463.5 164.333,462.5 165,461.5C 173.036,453.632 180.869,445.632 188.5,437.5 Z"/></g>
<g><path style="opacity:1" fill="#a1d0ce" d="M 284.5,437.5 C 285.873,437.343 287.207,437.51 288.5,438C 295.919,445.419 303.419,452.919 311,460.5C 311.667,461.833 311.667,463.167 311,464.5C 305.136,470.699 298.969,476.532 292.5,482C 281.167,482.667 269.833,482.667 258.5,482C 256,479.5 253.5,477 251,474.5C 250.333,473.5 250.333,472.5 251,471.5C 262.423,460.245 273.59,448.911 284.5,437.5 Z"/></g>
<g><path style="opacity:1" fill="#a3d2d0" d="M 360.5,437.5 C 361.552,437.351 362.552,437.517 363.5,438C 374.667,449.167 385.833,460.333 397,471.5C 396.05,475.532 393.883,479.032 390.5,482C 378.833,482.667 367.167,482.667 355.5,482C 350.354,476.523 344.854,471.356 339,466.5C 337.699,464.635 337.365,462.635 338,460.5C 345.702,452.965 353.202,445.298 360.5,437.5 Z"/></g>
<g><path style="opacity:1" fill="#9ecbc9" d="M 38.5,459.5 C 39.552,459.351 40.552,459.517 41.5,460C 45.3333,463.833 49.1667,467.667 53,471.5C 52.9122,474.642 51.4122,477.142 48.5,479C 47.1667,479.667 45.8333,479.667 44.5,479C 39.4912,473.497 37.4912,466.997 38.5,459.5 Z"/></g>
<g><path style="opacity:1" fill="#97c2c0" d="M 150.5,475.5 C 155.212,475.545 157.545,477.878 157.5,482.5C 153.818,482.665 150.152,482.499 146.5,482C 145.549,481.282 145.383,480.449 146,479.5C 147.992,478.672 149.492,477.339 150.5,475.5 Z"/></g>
<g><path style="opacity:1" fill="#97c2c0" d="M 322.5,475.5 C 326.723,475.572 329.223,477.572 330,481.5C 326.27,482.46 322.437,482.793 318.5,482.5C 318.961,479.697 320.295,477.363 322.5,475.5 Z"/></g>
</svg>
