<?xml version="1.0" encoding="UTF-8"?>
<!DOCTYPE svg PUBLIC "-//W3C//DTD SVG 1.1//EN" "http://www.w3.org/Graphics/SVG/1.1/DTD/svg11.dtd">
<svg xmlns="http://www.w3.org/2000/svg" version="1.1" width="512px" height="512px" style="shape-rendering:geometricPrecision; text-rendering:geometricPrecision; image-rendering:optimizeQuality; fill-rule:evenodd; clip-rule:evenodd" xmlns:xlink="http://www.w3.org/1999/xlink">
<g><path style="opacity:0.994" fill="#000000" d="M 117.5,15.5 C 214.167,15.3333 310.834,15.5 407.5,16C 420,19.1667 427.833,27 431,39.5C 431.667,167.5 431.667,295.5 431,423.5C 427.833,436 420,443.833 407.5,447C 348.834,447.5 290.168,447.667 231.5,447.5C 231.667,462.17 231.5,476.837 231,491.5C 229.471,494.516 226.971,495.849 223.5,495.5C 221.366,495.485 219.366,494.985 217.5,494C 208.986,485.319 200.319,476.819 191.5,468.5C 182.681,476.819 174.014,485.319 165.5,494C 161.5,496 157.5,496 153.5,494C 152.874,493.25 152.374,492.416 152,491.5C 151.5,476.837 151.333,462.17 151.5,447.5C 140.162,447.667 128.828,447.5 117.5,447C 97.6667,441.833 85.1667,429.333 80,409.5C 79.3333,290.833 79.3333,172.167 80,53.5C 85.3488,33.6518 97.8488,20.9852 117.5,15.5 Z"/></g>
<g><path style="opacity:1" fill="#fb5f66" d="M 120.5,31.5 C 215.167,31.3333 309.834,31.5 404.5,32C 409.333,34.1667 412.833,37.6667 415,42.5C 415.5,145.499 415.667,248.499 415.5,351.5C 316.499,351.333 217.499,351.5 118.5,352C 110.088,354.122 102.588,357.956 96,363.5C 95.3333,261.167 95.3333,158.833 96,56.5C 99.6829,43.6514 107.85,35.3181 120.5,31.5 Z"/></g>
<g><path style="opacity:1" fill="#030202" d="M 245.5,71.5 C 273.575,69.2064 295.242,79.7064 310.5,103C 349.093,102.288 373.26,120.455 383,157.5C 385.771,189.643 372.771,212.643 344,226.5C 343.667,247.833 343.333,269.167 343,290.5C 341.561,299.941 336.395,306.441 327.5,310C 303.214,311.147 278.881,311.647 254.5,311.5C 231.5,311.333 208.5,311.167 185.5,311C 176.599,307.765 170.766,301.598 168,292.5C 167.833,270.492 167.333,248.492 166.5,226.5C 138.093,212.366 125.26,189.366 128,157.5C 137.776,120.411 161.942,102.245 200.5,103C 211.26,86.4012 226.26,75.9012 245.5,71.5 Z"/></g>
<g><path style="opacity:1" fill="#e6e9ee" d="M 246.5,87.5 C 273.82,85.3999 292.32,97.0665 302,122.5C 302.94,128.519 303.94,134.519 305,140.5C 309.298,144.379 313.631,144.379 318,140.5C 319.993,133.432 319.827,126.432 317.5,119.5C 343.546,120.379 360.046,133.379 367,158.5C 369.251,188.179 356.084,207.012 327.5,215C 319.701,215.924 312.034,215.424 304.5,213.5C 297.848,213.649 295.015,216.982 296,223.5C 297.167,226 299,227.833 301.5,229C 310.013,231.196 318.68,232.029 327.5,231.5C 327.5,242.167 327.5,252.833 327.5,263.5C 279.5,263.5 231.5,263.5 183.5,263.5C 183.5,252.833 183.5,242.167 183.5,231.5C 193.058,231.972 202.391,230.805 211.5,228C 216.313,223.959 216.646,219.625 212.5,215C 210.801,214.042 208.967,213.542 207,213.5C 185.346,219.281 167.346,213.615 153,196.5C 137.804,171.378 140.971,148.878 162.5,129C 171.813,122.17 182.146,119.336 193.5,120.5C 191.115,127.115 190.949,133.782 193,140.5C 196.419,143.848 200.252,144.348 204.5,142C 205.893,140.829 206.727,139.329 207,137.5C 208.492,111.517 221.659,94.8506 246.5,87.5 Z"/></g>
<g><path style="opacity:1" fill="#d7dadf" d="M 183.5,279.5 C 231.5,279.5 279.5,279.5 327.5,279.5C 327.79,283.936 327.29,288.27 326,292.5C 324.829,293.893 323.329,294.727 321.5,295C 277.167,295.667 232.833,295.667 188.5,295C 186.333,294.167 184.833,292.667 184,290.5C 183.501,286.848 183.335,283.182 183.5,279.5 Z"/></g>
<g><path style="opacity:1" fill="#e6e9ee" d="M 120.5,367.5 C 218.833,367.5 317.167,367.5 415.5,367.5C 415.667,384.837 415.5,402.17 415,419.5C 413.65,424.185 410.817,427.685 406.5,430C 348.225,431.488 289.892,431.988 231.5,431.5C 231.5,423.5 231.5,415.5 231.5,407.5C 283.893,407.987 336.226,407.487 388.5,406C 392.379,401.631 392.379,397.298 388.5,393C 387.5,392.667 386.5,392.333 385.5,392C 301.167,391.333 216.833,391.333 132.5,392C 126.665,395.855 125.998,400.522 130.5,406C 137.385,407.425 144.385,407.925 151.5,407.5C 151.5,415.5 151.5,423.5 151.5,431.5C 141.161,431.666 130.828,431.5 120.5,431C 99.1365,423.27 91.6365,408.436 98,386.5C 102.902,376.982 110.402,370.649 120.5,367.5 Z"/></g>
<g><path style="opacity:1" fill="#fbb75f" d="M 167.5,407.5 C 183.5,407.5 199.5,407.5 215.5,407.5C 215.667,427.503 215.5,447.503 215,467.5C 208.833,461.333 202.667,455.167 196.5,449C 193.134,447.121 189.8,447.121 186.5,449C 180.333,455.167 174.167,461.333 168,467.5C 167.5,447.503 167.333,427.503 167.5,407.5 Z"/></g>
</svg>
