<?xml version="1.0" encoding="UTF-8"?>
<!DOCTYPE svg PUBLIC "-//W3C//DTD SVG 1.1//EN" "http://www.w3.org/Graphics/SVG/1.1/DTD/svg11.dtd">
<svg xmlns="http://www.w3.org/2000/svg" version="1.1" width="512px" height="512px" style="shape-rendering:geometricPrecision; text-rendering:geometricPrecision; image-rendering:optimizeQuality; fill-rule:evenodd; clip-rule:evenodd" xmlns:xlink="http://www.w3.org/1999/xlink">
<g><path style="opacity:0.668" fill="#284267" d="M 197.5,161.5 C 201.311,160.355 205.311,160.188 209.5,161C 212.663,162.48 214.496,164.98 215,168.5C 215.815,173.352 215.648,178.019 214.5,182.5C 215.061,176.268 214.228,170.268 212,164.5C 211.097,163.299 209.931,162.465 208.5,162C 204.848,161.501 201.182,161.335 197.5,161.5 Z"/></g>
<g><path style="opacity:1" fill="#020204" d="M 197.5,161.5 C 201.182,161.335 204.848,161.501 208.5,162C 209.931,162.465 211.097,163.299 212,164.5C 214.228,170.268 215.061,176.268 214.5,182.5C 212.883,190.651 212.05,198.985 212,207.5C 212.399,207.272 212.565,206.938 212.5,206.5C 213.338,206.842 213.672,207.508 213.5,208.5C 212.596,209.209 212.263,210.209 212.5,211.5C 215.85,211.665 219.183,211.498 222.5,211C 231.369,202.298 240.036,193.465 248.5,184.5C 253.381,182.374 258.381,182.041 263.5,183.5C 265.674,183.75 267.341,184.75 268.5,186.5C 270.629,188.95 273.296,190.617 276.5,191.5C 279.65,194.579 283.317,196.913 287.5,198.5C 290.65,201.579 294.317,203.913 298.5,205.5C 300.629,207.95 303.296,209.617 306.5,210.5C 311.101,213.924 315.601,217.591 320,221.5C 320.845,223.611 321.678,225.611 322.5,227.5C 323.735,229.017 323.735,230.684 322.5,232.5C 325.592,233.855 328.592,235.188 331.5,236.5C 335.577,238.173 338.577,236.84 340.5,232.5C 343.089,231.581 345.089,229.914 346.5,227.5C 349.089,226.581 351.089,224.914 352.5,222.5C 355.089,221.581 357.089,219.914 358.5,217.5C 361.685,215.497 365.185,214.164 369,213.5C 374.159,214.833 378.992,216.833 383.5,219.5C 387.148,222.66 391.148,225.327 395.5,227.5C 397.833,227.833 399.167,229.167 399.5,231.5C 402.057,236.505 402.057,241.505 399.5,246.5C 400.614,247.776 401.614,247.776 402.5,246.5C 403.209,245.596 404.209,245.263 405.5,245.5C 412.616,243.386 417.949,239.053 421.5,232.5C 424.277,230.049 426.277,227.049 427.5,223.5C 429,219.827 431,216.494 433.5,213.5C 436.66,209.852 439.327,205.852 441.5,201.5C 447.472,195.193 453.472,188.86 459.5,182.5C 464.114,179.883 468.447,176.883 472.5,173.5C 475.659,171.92 478.993,170.92 482.5,170.5C 484.2,172.21 485.533,174.21 486.5,176.5C 485.544,178.075 484.877,179.742 484.5,181.5C 484.672,182.492 484.338,183.158 483.5,183.5C 483.565,183.062 483.399,182.728 483,182.5C 479.834,184.853 477.667,187.853 476.5,191.5C 472.879,195.071 470.546,199.404 469.5,204.5C 469.02,207.443 468.02,210.11 466.5,212.5C 464.425,216.474 463.425,220.808 463.5,225.5C 463.407,231.516 463.074,237.516 462.5,243.5C 461.992,257.818 465.659,270.818 473.5,282.5C 474.906,282.973 475.573,283.973 475.5,285.5C 477.777,290.777 481.444,294.777 486.5,297.5C 487.992,300.323 490.326,301.99 493.5,302.5C 495.355,304.033 497.188,305.7 499,307.5C 500.379,311.475 499.213,314.309 495.5,316C 491.514,316.499 487.514,316.666 483.5,316.5C 480.941,316.802 478.607,316.468 476.5,315.5C 473.381,314.13 470.048,313.13 466.5,312.5C 464.151,310.659 461.485,309.326 458.5,308.5C 456.45,306.453 454.117,304.786 451.5,303.5C 449.167,300.5 446.5,297.833 443.5,295.5C 442.92,293.251 441.587,291.585 439.5,290.5C 436.791,287.792 434.458,284.792 432.5,281.5C 427.808,276.146 421.808,273.812 414.5,274.5C 404.376,272.952 394.376,273.618 384.5,276.5C 383.624,276.369 382.957,276.702 382.5,277.5C 385.625,281.122 388.125,285.122 390,289.5C 390.543,292.868 390.376,296.201 389.5,299.5C 388.167,302.833 385.833,305.167 382.5,306.5C 378.975,307.759 375.975,309.759 373.5,312.5C 369.886,314.307 366.22,316.14 362.5,318C 359.518,318.498 356.518,318.665 353.5,318.5C 345.839,312.507 338.172,306.507 330.5,300.5C 329.751,298.754 328.417,297.754 326.5,297.5C 321.802,298.899 317.136,300.399 312.5,302C 312.372,304.752 311.539,307.585 310,310.5C 306.708,313.873 303.208,316.873 299.5,319.5C 295.317,321.087 291.65,323.421 288.5,326.5C 284.317,328.087 280.65,330.421 277.5,333.5C 274.296,334.383 271.629,336.05 269.5,338.5C 265.317,340.087 261.65,342.421 258.5,345.5C 255.669,346.079 253.336,347.412 251.5,349.5C 246.551,350.041 241.884,349.208 237.5,347C 228.912,337.908 219.912,329.408 210.5,321.5C 197.051,320.776 183.718,319.776 170.5,318.5C 165.367,317.335 160.034,316.668 154.5,316.5C 154.869,322.513 155.036,328.513 155,334.5C 153.233,337.772 150.733,340.105 147.5,341.5C 146.833,342.833 146.167,342.833 145.5,341.5C 142.872,340.186 140.205,338.853 137.5,337.5C 134.833,334.167 131.833,331.167 128.5,328.5C 125.287,322.697 122.953,316.53 121.5,310C 116.221,308.513 110.888,307.347 105.5,306.5C 102.495,304.723 99.1621,303.723 95.5,303.5C 91.7843,301.595 87.7843,300.261 83.5,299.5C 77.7795,296.647 71.7795,294.314 65.5,292.5C 63.5739,290.707 61.2406,289.707 58.5,289.5C 50.151,284.659 41.4843,280.325 32.5,276.5C 30.6644,274.412 28.3311,273.079 25.5,272.5C 19.8333,268.833 15.1667,264.167 11.5,258.5C 10.0736,250.426 12.0736,243.426 17.5,237.5C 18.4006,235.273 20.0672,234.273 22.5,234.5C 36.3081,230.966 49.9748,227.3 63.5,223.5C 68.4439,223.246 73.1106,222.246 77.5,220.5C 78.9187,219.549 80.5853,219.216 82.5,219.5C 90.7323,218.795 98.7323,217.461 106.5,215.5C 108.607,214.532 110.941,214.198 113.5,214.5C 119.389,214.55 125.056,213.884 130.5,212.5C 134.514,212.666 138.514,212.499 142.5,212C 145.846,210.149 147.846,207.316 148.5,203.5C 151.241,201.025 153.241,198.025 154.5,194.5C 154.738,192.596 155.738,191.262 157.5,190.5C 159.914,189.089 161.581,187.089 162.5,184.5C 165.5,182.167 168.167,179.5 170.5,176.5C 173.089,175.581 175.089,173.914 176.5,171.5C 177.802,169.178 179.802,167.845 182.5,167.5C 186.354,166.07 190.021,164.403 193.5,162.5C 194.568,161.566 195.901,161.232 197.5,161.5 Z"/></g>
<g><path style="opacity:0.655" fill="#284469" d="M 193.5,162.5 C 190.021,164.403 186.354,166.07 182.5,167.5C 185.481,164.512 189.148,162.846 193.5,162.5 Z"/></g>
<g><path style="opacity:0.336" fill="#294366" d="M 482.5,170.5 C 478.993,170.92 475.659,171.92 472.5,173.5C 475.258,170.099 478.591,169.099 482.5,170.5 Z"/></g>
<g><path style="opacity:1" fill="#a2bec5" d="M 202.5,206.5 C 202.5,207.5 202.5,208.5 202.5,209.5C 189.989,209.171 177.655,209.505 165.5,210.5C 162.15,210.665 158.817,210.498 155.5,210C 164.911,193.588 177.911,180.921 194.5,172C 198.086,170.892 201.753,170.392 205.5,170.5C 204.828,182.537 203.828,194.537 202.5,206.5 Z"/></g>
<g><path style="opacity:0.621" fill="#274267" d="M 176.5,171.5 C 175.089,173.914 173.089,175.581 170.5,176.5C 171.911,174.086 173.911,172.419 176.5,171.5 Z"/></g>
<g><path style="opacity:0.669" fill="#264268" d="M 472.5,173.5 C 468.447,176.883 464.114,179.883 459.5,182.5C 463.001,178.338 467.335,175.338 472.5,173.5 Z"/></g>
<g><path style="opacity:0.649" fill="#284168" d="M 482.5,170.5 C 485.555,171.246 487.222,173.246 487.5,176.5C 487.243,178.692 486.243,180.359 484.5,181.5C 484.877,179.742 485.544,178.075 486.5,176.5C 485.533,174.21 484.2,172.21 482.5,170.5 Z"/></g>
<g><path style="opacity:0.714" fill="#274062" d="M 170.5,176.5 C 168.167,179.5 165.5,182.167 162.5,184.5C 164.167,180.833 166.833,178.167 170.5,176.5 Z"/></g>
<g><path style="opacity:0.638" fill="#284468" d="M 263.5,183.5 C 258.381,182.041 253.381,182.374 248.5,184.5C 250.759,182.245 253.592,181.245 257,181.5C 259.544,181.336 261.71,182.003 263.5,183.5 Z"/></g>
<g><path style="opacity:0.565" fill="#294169" d="M 162.5,184.5 C 161.581,187.089 159.914,189.089 157.5,190.5C 158.419,187.911 160.086,185.911 162.5,184.5 Z"/></g>
<g><path style="opacity:0.603" fill="#274065" d="M 459.5,182.5 C 453.472,188.86 447.472,195.193 441.5,201.5C 446.121,193.878 452.121,187.545 459.5,182.5 Z"/></g>
<g><path style="opacity:0.664" fill="#274467" d="M 483.5,183.5 C 481.157,186.207 478.823,188.874 476.5,191.5C 477.667,187.853 479.834,184.853 483,182.5C 483.399,182.728 483.565,183.062 483.5,183.5 Z"/></g>
<g><path style="opacity:0.537" fill="#274267" d="M 268.5,186.5 C 271.704,187.383 274.371,189.05 276.5,191.5C 273.296,190.617 270.629,188.95 268.5,186.5 Z"/></g>
<g><path style="opacity:0.558" fill="#274063" d="M 214.5,182.5 C 214.188,190.552 213.522,198.552 212.5,206.5C 212.565,206.938 212.399,207.272 212,207.5C 212.05,198.985 212.883,190.651 214.5,182.5 Z"/></g>
<g><path style="opacity:1" fill="#9fbcc3" d="M 237.5,213.5 C 237.082,212.778 236.416,212.278 235.5,212C 240.037,207.631 244.37,203.131 248.5,198.5C 250.333,193.25 253.999,191.083 259.5,192C 276.528,203.512 293.862,214.512 311.5,225C 312.38,226.356 312.714,227.856 312.5,229.5C 297.28,225.362 281.947,221.528 266.5,218C 256.875,216.173 247.208,214.673 237.5,213.5 Z"/></g>
<g><path style="opacity:0.579" fill="#283d63" d="M 276.5,191.5 C 280.683,193.087 284.35,195.421 287.5,198.5C 283.317,196.913 279.65,194.579 276.5,191.5 Z"/></g>
<g><path style="opacity:1" fill="#ddf1f7" d="M 463.5,190.5 C 464.376,190.369 465.043,190.702 465.5,191.5C 456.956,205.147 452.623,220.147 452.5,236.5C 452.086,257.404 457.586,276.404 469,293.5C 472.5,298.333 476.667,302.5 481.5,306C 469.062,304.862 458.895,299.362 451,289.5C 446.428,282.871 441.262,276.704 435.5,271C 431.202,268.421 426.535,266.755 421.5,266C 420.919,265.107 420.585,264.107 420.5,263C 422.139,258.112 421.806,253.445 419.5,249C 421.978,246.522 424.478,244.022 427,241.5C 433.084,232.335 438.917,223.002 444.5,213.5C 450.514,205.494 456.847,197.827 463.5,190.5 Z"/></g>
<g><path style="opacity:0.569" fill="#233756" d="M 154.5,194.5 C 153.241,198.025 151.241,201.025 148.5,203.5C 149.723,199.951 151.723,196.951 154.5,194.5 Z"/></g>
<g><path style="opacity:1" fill="#5b748e" d="M 248.5,198.5 C 244.37,203.131 240.037,207.631 235.5,212C 236.416,212.278 237.082,212.778 237.5,213.5C 236.022,213.762 234.689,213.429 233.5,212.5C 237.912,207.084 242.912,202.417 248.5,198.5 Z"/></g>
<g><path style="opacity:0.595" fill="#274368" d="M 476.5,191.5 C 474.417,196 472.084,200.334 469.5,204.5C 470.546,199.404 472.879,195.071 476.5,191.5 Z"/></g>
<g><path style="opacity:0.678" fill="#274366" d="M 287.5,198.5 C 291.683,200.087 295.35,202.421 298.5,205.5C 294.317,203.913 290.65,201.579 287.5,198.5 Z"/></g>
<g><path style="opacity:0.7" fill="#273d61" d="M 441.5,201.5 C 439.327,205.852 436.66,209.852 433.5,213.5C 435.178,208.803 437.844,204.803 441.5,201.5 Z"/></g>
<g><path style="opacity:0.641" fill="#2a4169" d="M 298.5,205.5 C 301.704,206.383 304.371,208.05 306.5,210.5C 303.296,209.617 300.629,207.95 298.5,205.5 Z"/></g>
<g><path style="opacity:0.51" fill="#284267" d="M 248.5,184.5 C 240.036,193.465 231.369,202.298 222.5,211C 219.183,211.498 215.85,211.665 212.5,211.5C 212.263,210.209 212.596,209.209 213.5,208.5C 214.334,209.748 215.667,210.415 217.5,210.5C 218.833,210.333 220.167,210.167 221.5,210C 230.088,200.908 239.088,192.408 248.5,184.5 Z"/></g>
<g><path style="opacity:1" fill="#4e6985" d="M 202.5,206.5 C 203.434,207.568 203.768,208.901 203.5,210.5C 190.833,210.5 178.167,210.5 165.5,210.5C 177.655,209.505 189.989,209.171 202.5,209.5C 202.5,208.5 202.5,207.5 202.5,206.5 Z"/></g>
<g><path style="opacity:0.634" fill="#274064" d="M 148.5,203.5 C 147.846,207.316 145.846,210.149 142.5,212C 138.514,212.499 134.514,212.666 130.5,212.5C 133.977,211.677 137.644,211.177 141.5,211C 144.412,208.985 146.745,206.485 148.5,203.5 Z"/></g>
<g><path style="opacity:0.591" fill="#284167" d="M 130.5,212.5 C 125.056,213.884 119.389,214.55 113.5,214.5C 118.944,213.116 124.611,212.45 130.5,212.5 Z"/></g>
<g><path style="opacity:0.758" fill="#274368" d="M 383.5,219.5 C 378.992,216.833 374.159,214.833 369,213.5C 365.185,214.164 361.685,215.497 358.5,217.5C 363.256,212.505 368.923,211.338 375.5,214C 378.621,215.306 381.287,217.14 383.5,219.5 Z"/></g>
<g><path style="opacity:0.605" fill="#284367" d="M 466.5,212.5 C 465.943,217.052 464.943,221.385 463.5,225.5C 463.425,220.808 464.425,216.474 466.5,212.5 Z"/></g>
<g><path style="opacity:0.608" fill="#274266" d="M 306.5,210.5 C 311.985,212.807 316.818,216.14 321,220.5C 322.202,222.677 322.702,225.011 322.5,227.5C 321.678,225.611 320.845,223.611 320,221.5C 315.601,217.591 311.101,213.924 306.5,210.5 Z"/></g>
<g><path style="opacity:0.565" fill="#263f61" d="M 106.5,215.5 C 98.7323,217.461 90.7323,218.795 82.5,219.5C 90.2332,217.322 98.2332,215.989 106.5,215.5 Z"/></g>
<g><path style="opacity:1" fill="#bfdbe5" d="M 358.5,254.5 C 353.025,255.489 347.358,255.822 341.5,255.5C 338.15,255.665 334.817,255.498 331.5,255C 296.066,247.594 260.399,241.594 224.5,237C 190.22,234.407 155.887,233.073 121.5,233C 112.01,232.168 102.677,230.502 93.5,228C 114.178,223.516 135.178,220.849 156.5,220C 203.289,217.417 249.289,222.083 294.5,234C 315.683,241.529 337.016,248.362 358.5,254.5 Z"/></g>
<g><path style="opacity:0.637" fill="#284268" d="M 358.5,217.5 C 357.089,219.914 355.089,221.581 352.5,222.5C 353.911,220.086 355.911,218.419 358.5,217.5 Z"/></g>
<g><path style="opacity:0.638" fill="#274267" d="M 77.5,220.5 C 73.1106,222.246 68.4439,223.246 63.5,223.5C 67.8894,221.754 72.5561,220.754 77.5,220.5 Z"/></g>
<g><path style="opacity:1" fill="#9ebbc2" d="M 366.5,222.5 C 368.288,222.215 369.955,222.548 371.5,223.5C 378.167,227.833 384.833,232.167 391.5,236.5C 392.485,238.098 392.651,239.765 392,241.5C 390.581,243.336 389.414,245.336 388.5,247.5C 373.731,248.515 359.397,246.348 345.5,241C 352.397,234.596 359.397,228.429 366.5,222.5 Z"/></g>
<g><path style="opacity:0.636" fill="#294268" d="M 383.5,219.5 C 388.197,221.178 392.197,223.844 395.5,227.5C 391.148,225.327 387.148,222.66 383.5,219.5 Z"/></g>
<g><path style="opacity:0.628" fill="#274367" d="M 352.5,222.5 C 351.089,224.914 349.089,226.581 346.5,227.5C 347.911,225.086 349.911,223.419 352.5,222.5 Z"/></g>
<g><path style="opacity:0.648" fill="#294169" d="M 427.5,223.5 C 426.277,227.049 424.277,230.049 421.5,232.5C 422.759,228.975 424.759,225.975 427.5,223.5 Z"/></g>
<g><path style="opacity:0.625" fill="#274468" d="M 63.5,223.5 C 49.9748,227.3 36.3081,230.966 22.5,234.5C 35.6802,229.453 49.3469,225.786 63.5,223.5 Z"/></g>
<g><path style="opacity:0.62" fill="#284369" d="M 346.5,227.5 C 345.089,229.914 343.089,231.581 340.5,232.5C 341.911,230.086 343.911,228.419 346.5,227.5 Z"/></g>
<g><path style="opacity:1" fill="#87999f" d="M 76.5,232.5 C 67.0217,234.381 58.0217,237.548 49.5,242C 43.4845,250.52 44.4845,258.187 52.5,265C 74.0167,277.924 96.6833,288.424 120.5,296.5C 120.586,297.496 120.252,298.329 119.5,299C 86.2204,292.532 55.2204,280.198 26.5,262C 25.0422,259.54 23.2089,257.373 21,255.5C 19.0776,249.617 20.9109,245.451 26.5,243C 40.3324,238.709 54.3324,235.042 68.5,232C 71.367,231.199 74.0336,231.366 76.5,232.5 Z"/></g>
<g><path style="opacity:1" fill="#aabec4" d="M 76.5,232.5 C 83.8406,234.557 91.1739,236.724 98.5,239C 106.653,239.748 114.653,241.248 122.5,243.5C 129.715,257.627 131.215,272.293 127,287.5C 125.301,290.921 123.135,293.921 120.5,296.5C 96.6833,288.424 74.0167,277.924 52.5,265C 44.4845,258.187 43.4845,250.52 49.5,242C 58.0217,237.548 67.0217,234.381 76.5,232.5 Z"/></g>
<g><path style="opacity:0.555" fill="#284468" d="M 340.5,232.5 C 338.577,236.84 335.577,238.173 331.5,236.5C 332.873,236.657 334.207,236.49 335.5,236C 336.789,234.198 338.456,233.031 340.5,232.5 Z"/></g>
<g><path style="opacity:0.333" fill="#264366" d="M 399.5,231.5 C 400.966,232.347 401.8,233.68 402,235.5C 402.188,239.378 402.354,243.044 402.5,246.5C 401.614,247.776 400.614,247.776 399.5,246.5C 402.057,241.505 402.057,236.505 399.5,231.5 Z"/></g>
<g><path style="opacity:0.54" fill="#284268" d="M 421.5,232.5 C 417.949,239.053 412.616,243.386 405.5,245.5C 411.388,241.954 416.722,237.621 421.5,232.5 Z"/></g>
<g><path style="opacity:0.676" fill="#263f60" d="M 17.5,237.5 C 12.0736,243.426 10.0736,250.426 11.5,258.5C 9.40353,251.354 10.5702,244.687 15,238.5C 15.6708,237.748 16.5041,237.414 17.5,237.5 Z"/></g>
<g><path style="opacity:1" fill="#90a9b1" d="M 204.5,244.5 C 200.5,245.167 196.5,245.833 192.5,246.5C 176.907,247.852 161.573,250.685 146.5,255C 141.632,257.477 141.299,260.477 145.5,264C 148.878,264.048 152.211,263.548 155.5,262.5C 156.5,262.5 157.5,262.5 158.5,262.5C 158.5,265.833 158.5,269.167 158.5,272.5C 155.002,280.422 157.669,285.256 166.5,287C 173.5,289 180.5,289 187.5,287C 198.892,280.758 210.892,276.092 223.5,273C 234.989,271.278 246.489,271.111 258,272.5C 263.023,271.392 264.69,268.392 263,263.5C 254.828,257.663 245.995,253.33 236.5,250.5C 235.737,249.732 234.737,249.232 233.5,249C 235.81,248.503 238.143,248.337 240.5,248.5C 277.879,254.508 315.212,260.508 352.5,266.5C 360.167,267.167 367.833,267.833 375.5,268.5C 352.625,278.086 329.292,286.919 305.5,295C 247.056,312.711 188.056,315.045 128.5,302C 136.986,290.918 140.153,278.418 138,264.5C 137.083,257.581 135.249,250.915 132.5,244.5C 156.513,243.217 180.513,243.217 204.5,244.5 Z"/></g>
<g><path style="opacity:1" fill="#60798f" d="M 204.5,244.5 C 216.727,245.054 228.727,246.388 240.5,248.5C 238.143,248.337 235.81,248.503 233.5,249C 234.737,249.232 235.737,249.732 236.5,250.5C 222.036,247.117 207.37,245.783 192.5,246.5C 196.5,245.833 200.5,245.167 204.5,244.5 Z"/></g>
<g><path style="opacity:1" fill="#010203" d="M 192.5,246.5 C 207.37,245.783 222.036,247.117 236.5,250.5C 245.995,253.33 254.828,257.663 263,263.5C 264.69,268.392 263.023,271.392 258,272.5C 246.489,271.111 234.989,271.278 223.5,273C 210.892,276.092 198.892,280.758 187.5,287C 180.5,289 173.5,289 166.5,287C 157.669,285.256 155.002,280.422 158.5,272.5C 159.482,269.038 159.815,265.371 159.5,261.5C 157.901,261.232 156.568,261.566 155.5,262.5C 152.211,263.548 148.878,264.048 145.5,264C 141.299,260.477 141.632,257.477 146.5,255C 161.573,250.685 176.907,247.852 192.5,246.5 Z"/></g>
<g><path style="opacity:1" fill="#96b1c3" d="M 358.5,254.5 C 361.166,254.933 363.832,255.433 366.5,256C 357.99,256.823 349.656,256.657 341.5,255.5C 347.358,255.822 353.025,255.489 358.5,254.5 Z"/></g>
<g><path style="opacity:1" fill="#bedae4" d="M 236.5,260.5 C 234.5,261.167 232.5,261.833 230.5,262.5C 214.988,264.89 200.322,270.056 186.5,278C 180.209,279.83 173.876,279.996 167.5,278.5C 168.212,271.857 168.546,265.191 168.5,258.5C 186.095,255.364 203.762,254.864 221.5,257C 226.645,257.704 231.645,258.87 236.5,260.5 Z"/></g>
<g><path style="opacity:0.544" fill="#294167" d="M 462.5,243.5 C 463.498,257.145 467.164,270.145 473.5,282.5C 465.659,270.818 461.992,257.818 462.5,243.5 Z"/></g>
<g><path style="opacity:1" fill="#57718e" d="M 236.5,260.5 C 237.756,260.461 238.756,260.961 239.5,262C 236.518,262.498 233.518,262.665 230.5,262.5C 232.5,261.833 234.5,261.167 236.5,260.5 Z"/></g>
<g><path style="opacity:0.633" fill="#294269" d="M 11.5,258.5 C 15.1667,264.167 19.8333,268.833 25.5,272.5C 18.4647,270.131 13.7981,265.465 11.5,258.5 Z"/></g>
<g><path style="opacity:1" fill="#506984" d="M 155.5,262.5 C 156.568,261.566 157.901,261.232 159.5,261.5C 159.815,265.371 159.482,269.038 158.5,272.5C 158.5,269.167 158.5,265.833 158.5,262.5C 157.5,262.5 156.5,262.5 155.5,262.5 Z"/></g>
<g><path style="opacity:1" fill="#637d92" d="M 352.5,266.5 C 362.839,266.334 373.172,266.5 383.5,267C 380.883,267.822 378.216,268.322 375.5,268.5C 367.833,267.833 360.167,267.167 352.5,266.5 Z"/></g>
<g><path style="opacity:0.566" fill="#284067" d="M 25.5,272.5 C 28.3311,273.079 30.6644,274.412 32.5,276.5C 29.6689,275.921 27.3356,274.588 25.5,272.5 Z"/></g>
<g><path style="opacity:0.699" fill="#274467" d="M 414.5,274.5 C 404.438,274.347 394.438,275.013 384.5,276.5C 394.376,273.618 404.376,272.952 414.5,274.5 Z"/></g>
<g><path style="opacity:0.559" fill="#283f64" d="M 414.5,274.5 C 421.808,273.812 427.808,276.146 432.5,281.5C 427.043,277.642 421.043,275.308 414.5,274.5 Z"/></g>
<g><path style="opacity:1" fill="#9dbac1" d="M 369.5,279.5 C 373.974,281.125 377.474,284.125 380,288.5C 381.373,290.695 381.706,293.029 381,295.5C 374.413,299.877 367.913,304.377 361.5,309C 358.697,309.755 356.03,309.422 353.5,308C 348.167,303.333 342.833,298.667 337.5,294C 348.108,288.86 358.774,284.026 369.5,279.5 Z"/></g>
<g><path style="opacity:0.792" fill="#284267" d="M 32.5,276.5 C 41.4843,280.325 50.151,284.659 58.5,289.5C 49.2477,286.207 40.581,281.874 32.5,276.5 Z"/></g>
<g><path style="opacity:0.508" fill="#274366" d="M 384.5,276.5 C 386.844,280.36 389.011,284.36 391,288.5C 391.667,291.5 391.667,294.5 391,297.5C 390.722,298.416 390.222,299.082 389.5,299.5C 390.376,296.201 390.543,292.868 390,289.5C 388.125,285.122 385.625,281.122 382.5,277.5C 382.957,276.702 383.624,276.369 384.5,276.5 Z"/></g>
<g><path style="opacity:0.636" fill="#264064" d="M 475.5,285.5 C 479.138,289.474 482.805,293.474 486.5,297.5C 481.444,294.777 477.777,290.777 475.5,285.5 Z"/></g>
<g><path style="opacity:0.757" fill="#274268" d="M 58.5,289.5 C 61.2406,289.707 63.5739,290.707 65.5,292.5C 62.7594,292.293 60.4261,291.293 58.5,289.5 Z"/></g>
<g><path style="opacity:0.624" fill="#284168" d="M 439.5,290.5 C 441.587,291.585 442.92,293.251 443.5,295.5C 441.413,294.415 440.08,292.749 439.5,290.5 Z"/></g>
<g><path style="opacity:0.563" fill="#263f61" d="M 65.5,292.5 C 71.7795,294.314 77.7795,296.647 83.5,299.5C 76.9973,298.241 70.9973,295.907 65.5,292.5 Z"/></g>
<g><path style="opacity:0.546" fill="#274167" d="M 486.5,297.5 C 489.117,298.786 491.45,300.453 493.5,302.5C 490.326,301.99 487.992,300.323 486.5,297.5 Z"/></g>
<g><path style="opacity:0.051" fill="#274663" d="M 443.5,295.5 C 446.5,297.833 449.167,300.5 451.5,303.5C 447.833,301.833 445.167,299.167 443.5,295.5 Z"/></g>
<g><path style="opacity:0.559" fill="#233654" d="M 83.5,299.5 C 87.7843,300.261 91.7843,301.595 95.5,303.5C 91.0845,303.139 87.0845,301.806 83.5,299.5 Z"/></g>
<g><path style="opacity:0.692" fill="#284167" d="M 95.5,303.5 C 99.1621,303.723 102.495,304.723 105.5,306.5C 101.838,306.277 98.5046,305.277 95.5,303.5 Z"/></g>
<g><path style="opacity:0.68" fill="#263e61" d="M 451.5,303.5 C 454.117,304.786 456.45,306.453 458.5,308.5C 455.326,307.99 452.992,306.323 451.5,303.5 Z"/></g>
<g><path style="opacity:0.641" fill="#274166" d="M 105.5,306.5 C 110.888,307.347 116.221,308.513 121.5,310C 122.953,316.53 125.287,322.697 128.5,328.5C 126.292,327.106 124.792,325.106 124,322.5C 122.62,318.695 121.453,314.862 120.5,311C 115.244,309.942 110.244,308.442 105.5,306.5 Z"/></g>
<g><path style="opacity:1" fill="#9ebac2" d="M 298.5,305.5 C 299.873,305.343 301.207,305.51 302.5,306C 284.586,316.908 266.919,328.241 249.5,340C 247.167,340.667 244.833,340.667 242.5,340C 235.652,333.319 228.985,326.486 222.5,319.5C 239.931,317.7 257.264,315.2 274.5,312C 282.787,310.431 290.787,308.264 298.5,305.5 Z"/></g>
<g><path style="opacity:0.736" fill="#284067" d="M 493.5,302.5 C 500.046,304.006 502.213,308.006 500,314.5C 499.097,315.701 497.931,316.535 496.5,317C 491.98,317.814 487.646,317.647 483.5,316.5C 487.514,316.666 491.514,316.499 495.5,316C 499.213,314.309 500.379,311.475 499,307.5C 497.188,305.7 495.355,304.033 493.5,302.5 Z"/></g>
<g><path style="opacity:0.575" fill="#274569" d="M 382.5,306.5 C 380.049,309.277 377.049,311.277 373.5,312.5C 375.975,309.759 378.975,307.759 382.5,306.5 Z"/></g>
<g><path style="opacity:0.558" fill="#284367" d="M 458.5,308.5 C 461.485,309.326 464.151,310.659 466.5,312.5C 463.246,312.206 460.579,310.873 458.5,308.5 Z"/></g>
<g><path style="opacity:0.625" fill="#284368" d="M 330.5,300.5 C 328.956,300.297 327.622,299.63 326.5,298.5C 322.275,300.242 317.941,301.576 313.5,302.5C 312.507,311.162 307.841,316.829 299.5,319.5C 303.208,316.873 306.708,313.873 310,310.5C 311.539,307.585 312.372,304.752 312.5,302C 317.136,300.399 321.802,298.899 326.5,297.5C 328.417,297.754 329.751,298.754 330.5,300.5 Z"/></g>
<g><path style="opacity:0.654" fill="#273d60" d="M 330.5,300.5 C 338.172,306.507 345.839,312.507 353.5,318.5C 351.217,318.392 349.217,317.559 347.5,316C 341.638,310.967 335.971,305.801 330.5,300.5 Z"/></g>
<g><path style="opacity:1" fill="#b9d5e0" d="M 132.5,313.5 C 136.85,313.23 141.017,313.897 145,315.5C 145.829,320.533 145.662,325.533 144.5,330.5C 138.062,326.42 134.062,320.753 132.5,313.5 Z"/></g>
<g><path style="opacity:0.54" fill="#29486b" d="M 466.5,312.5 C 470.048,313.13 473.381,314.13 476.5,315.5C 472.714,315.68 469.381,314.68 466.5,312.5 Z"/></g>
<g><path style="opacity:0.655" fill="#284166" d="M 170.5,318.5 C 165.473,318.497 160.473,318.164 155.5,317.5C 156.134,323.496 156.3,329.496 156,335.5C 154.359,339.323 151.526,341.323 147.5,341.5C 150.733,340.105 153.233,337.772 155,334.5C 155.036,328.513 154.869,322.513 154.5,316.5C 160.034,316.668 165.367,317.335 170.5,318.5 Z"/></g>
<g><path style="opacity:0.798" fill="#274065" d="M 373.5,312.5 C 367.952,318.626 361.286,320.626 353.5,318.5C 356.518,318.665 359.518,318.498 362.5,318C 366.22,316.14 369.886,314.307 373.5,312.5 Z"/></g>
<g><path style="opacity:0.685" fill="#274367" d="M 299.5,319.5 C 296.35,322.579 292.683,324.913 288.5,326.5C 291.65,323.421 295.317,321.087 299.5,319.5 Z"/></g>
<g><path style="opacity:0.639" fill="#274267" d="M 210.5,321.5 C 219.912,329.408 228.912,337.908 237.5,347C 241.884,349.208 246.551,350.041 251.5,349.5C 246.416,351.083 241.416,350.583 236.5,348C 227.631,339.298 218.964,330.465 210.5,321.5 Z"/></g>
<g><path style="opacity:0.58" fill="#283f65" d="M 288.5,326.5 C 285.35,329.579 281.683,331.913 277.5,333.5C 280.65,330.421 284.317,328.087 288.5,326.5 Z"/></g>
<g><path style="opacity:0.564" fill="#284167" d="M 128.5,328.5 C 131.833,331.167 134.833,334.167 137.5,337.5C 133.5,335.5 130.5,332.5 128.5,328.5 Z"/></g>
<g><path style="opacity:0.626" fill="#284466" d="M 277.5,333.5 C 275.371,335.95 272.704,337.617 269.5,338.5C 271.629,336.05 274.296,334.383 277.5,333.5 Z"/></g>
<g><path style="opacity:0.605" fill="#264366" d="M 137.5,337.5 C 140.205,338.853 142.872,340.186 145.5,341.5C 141.981,341.741 139.315,340.407 137.5,337.5 Z"/></g>
<g><path style="opacity:0.67" fill="#274368" d="M 269.5,338.5 C 266.35,341.579 262.683,343.913 258.5,345.5C 261.65,342.421 265.317,340.087 269.5,338.5 Z"/></g>
<g><path style="opacity:0.647" fill="#263e61" d="M 258.5,345.5 C 256.66,347.669 254.326,349.002 251.5,349.5C 253.336,347.412 255.669,346.079 258.5,345.5 Z"/></g>
</svg>
