<?xml version="1.0" encoding="UTF-8"?>
<!DOCTYPE svg PUBLIC "-//W3C//DTD SVG 1.1//EN" "http://www.w3.org/Graphics/SVG/1.1/DTD/svg11.dtd">
<svg xmlns="http://www.w3.org/2000/svg" version="1.1" width="512px" height="512px" style="shape-rendering:geometricPrecision; text-rendering:geometricPrecision; image-rendering:optimizeQuality; fill-rule:evenodd; clip-rule:evenodd" xmlns:xlink="http://www.w3.org/1999/xlink">
<g><path style="opacity:0.979" fill="#000101" d="M 209.5,-0.5 C 236.5,-0.5 263.5,-0.5 290.5,-0.5C 291.122,0.626561 291.955,1.62656 293,2.5C 293.5,21.4971 293.667,40.4971 293.5,59.5C 316.057,59.545 325.223,70.545 321,92.5C 318.305,98.0287 314.138,102.029 308.5,104.5C 307.333,130.494 307.167,156.494 308,182.5C 339.703,163.424 369.87,165.59 398.5,189C 418.84,210.682 424.673,235.849 416,264.5C 413.392,268.312 409.892,269.645 405.5,268.5C 404.77,267.288 403.77,266.288 402.5,265.5C 401.923,263.894 401.59,262.228 401.5,260.5C 409.889,230.489 400.889,207.322 374.5,191C 349.358,180.063 327.191,184.23 308,203.5C 307.333,215.167 307.333,226.833 308,238.5C 313.022,211.421 329.188,198.921 356.5,201C 379.168,207.163 390.001,221.996 389,245.5C 385.697,264.135 374.864,275.635 356.5,280C 347.434,281.46 338.768,280.293 330.5,276.5C 329.304,276.846 329.304,277.346 330.5,278C 340.1,283.714 349.6,289.548 359,295.5C 369.813,293.126 379.313,288.293 387.5,281C 391.103,280.157 394.436,280.657 397.5,282.5C 398.569,285.408 398.736,288.408 398,291.5C 391.259,298.453 383.426,303.786 374.5,307.5C 412.229,347.209 418.729,391.542 394,440.5C 387.095,450.742 379.428,460.409 371,469.5C 370,479.5 369,489.5 368,499.5C 365.231,505.105 361.064,509.105 355.5,511.5C 285.167,511.5 214.833,511.5 144.5,511.5C 138.936,509.105 134.769,505.105 132,499.5C 130.752,490.575 130.085,481.575 130,472.5C 129.529,470.754 128.862,469.087 128,467.5C 121.499,463.375 119.999,458.041 123.5,451.5C 125.896,449.788 128.562,449.288 131.5,450C 138.569,454.31 143.069,460.476 145,468.5C 145.333,476.833 145.667,485.167 146,493.5C 146.833,494.333 147.667,495.167 148.5,496C 209.166,496.5 269.832,496.667 330.5,496.5C 337.508,496.666 344.508,496.5 351.5,496C 352.333,495.167 353.167,494.333 354,493.5C 354.108,483.774 354.775,474.107 356,464.5C 358.86,458.635 362.86,453.635 368,449.5C 398.164,414.244 401.498,376.578 378,336.5C 372.697,329.364 366.863,322.697 360.5,316.5C 286.668,315.168 213.001,315.168 139.5,316.5C 104.782,349.259 97.4491,387.425 117.5,431C 117.452,433.922 116.452,436.422 114.5,438.5C 110.579,440.152 107.079,439.485 104,436.5C 82.5177,391.4 88.1844,350.067 121,312.5C 135.303,298.101 151.47,286.267 169.5,277C 184.092,264.981 191.592,249.481 192,230.5C 192.333,205.833 192.667,181.167 193,156.5C 194.272,153.778 196.439,152.444 199.5,152.5C 203.09,152.544 205.59,154.211 207,157.5C 207.667,183.833 207.667,210.167 207,236.5C 203.661,265.665 188.828,286.665 162.5,299.5C 161.711,299.783 161.044,300.283 160.5,301C 220.57,301.831 279.904,301.664 338.5,300.5C 315.063,289.22 300.23,270.887 294,245.5C 292.53,198.867 292.03,152.2 292.5,105.5C 284.833,105.5 277.167,105.5 269.5,105.5C 248.833,105.5 228.167,105.5 207.5,105.5C 207.666,113.174 207.5,120.841 207,128.5C 205.59,131.789 203.09,133.456 199.5,133.5C 196.439,133.556 194.272,132.222 193,129.5C 192.832,121.147 192.332,112.813 191.5,104.5C 177.03,96.2503 173.53,84.5837 181,69.5C 187.656,61.5925 196.156,58.2591 206.5,59.5C 206.333,40.4971 206.5,21.4971 207,2.5C 208.045,1.62656 208.878,0.626561 209.5,-0.5 Z M 344.5,215.5 C 365.498,215.996 374.998,226.662 373,247.5C 364.822,265.09 351.988,269.59 334.5,261C 324.196,252.043 321.696,241.21 327,228.5C 331.049,221.599 336.882,217.266 344.5,215.5 Z"/></g>
<g><path style="opacity:1" fill="#d57a41" d="M 256.5,14.5 C 256.5,29.5 256.5,44.5 256.5,59.5C 244.833,59.5 233.167,59.5 221.5,59.5C 221.5,44.5 221.5,29.5 221.5,14.5C 233.167,14.5 244.833,14.5 256.5,14.5 Z"/></g>
<g><path style="opacity:1" fill="#bd652b" d="M 256.5,14.5 C 263.833,14.5 271.167,14.5 278.5,14.5C 278.5,29.8333 278.5,45.1667 278.5,60.5C 259.326,60.8303 240.326,60.497 221.5,59.5C 233.167,59.5 244.833,59.5 256.5,59.5C 256.5,44.5 256.5,29.5 256.5,14.5 Z"/></g>
<g><path style="opacity:1" fill="#8aeffe" d="M 283.5,75.5 C 284.767,79.835 284.767,84.1684 283.5,88.5C 254.841,89.4998 226.174,89.8332 197.5,89.5C 193.074,87.6408 191.574,84.3075 193,79.5C 194.167,78.3333 195.333,77.1667 196.5,76C 225.498,75.5 254.498,75.3334 283.5,75.5 Z"/></g>
<g><path style="opacity:1" fill="#66e0f5" d="M 283.5,75.5 C 290.175,75.3337 296.842,75.5004 303.5,76C 308.986,81.0814 308.653,85.7481 302.5,90C 267.331,90.8309 232.331,90.6643 197.5,89.5C 226.174,89.8332 254.841,89.4998 283.5,88.5C 284.767,84.1684 284.767,79.835 283.5,75.5 Z"/></g>
<g><path style="opacity:0.999" fill="#baf6fe" d="M 269.5,105.5 C 269.333,153.168 269.5,200.834 270,248.5C 272.508,270.468 282.674,287.801 300.5,300.5C 254.33,300.832 208.33,300.499 162.5,299.5C 188.828,286.665 203.661,265.665 207,236.5C 207.667,210.167 207.667,183.833 207,157.5C 205.59,154.211 203.09,152.544 199.5,152.5C 199.5,146.167 199.5,139.833 199.5,133.5C 203.09,133.456 205.59,131.789 207,128.5C 207.5,120.841 207.666,113.174 207.5,105.5C 228.167,105.5 248.833,105.5 269.5,105.5 Z"/></g>
<g><path style="opacity:1" fill="#8beffe" d="M 269.5,105.5 C 277.167,105.5 284.833,105.5 292.5,105.5C 292.03,152.2 292.53,198.867 294,245.5C 300.23,270.887 315.063,289.22 338.5,300.5C 325.833,300.5 313.167,300.5 300.5,300.5C 282.674,287.801 272.508,270.468 270,248.5C 269.5,200.834 269.333,153.168 269.5,105.5 Z"/></g>
<g><path style="opacity:0.999" fill="#87eaf9" d="M 405.5,268.5 C 403.351,273.465 400.684,278.132 397.5,282.5C 394.436,280.657 391.103,280.157 387.5,281C 379.313,288.293 369.813,293.126 359,295.5C 349.6,289.548 340.1,283.714 330.5,278C 329.304,277.346 329.304,276.846 330.5,276.5C 338.768,280.293 347.434,281.46 356.5,280C 374.864,275.635 385.697,264.135 389,245.5C 390.001,221.996 379.168,207.163 356.5,201C 329.188,198.921 313.022,211.421 308,238.5C 307.333,226.833 307.333,215.167 308,203.5C 327.191,184.23 349.358,180.063 374.5,191C 400.889,207.322 409.889,230.489 401.5,260.5C 401.59,262.228 401.923,263.894 402.5,265.5C 403.77,266.288 404.77,267.288 405.5,268.5 Z"/></g>
<g><path style="opacity:1" fill="#486266" d="M 162.5,299.5 C 208.33,300.499 254.33,300.832 300.5,300.5C 313.167,300.5 325.833,300.5 338.5,300.5C 279.904,301.664 220.57,301.831 160.5,301C 161.044,300.283 161.711,299.783 162.5,299.5 Z"/></g>
<g><path style="opacity:1" fill="#fec708" d="M 139.5,316.5 C 206.834,316.333 274.167,316.5 341.5,317C 374.461,353.076 379.627,392.909 357,436.5C 351.286,445.239 344.62,453.239 337,460.5C 335.08,463.339 333.413,466.339 332,469.5C 331.806,478.577 331.306,487.577 330.5,496.5C 269.832,496.667 209.166,496.5 148.5,496C 147.667,495.167 146.833,494.333 146,493.5C 145.667,485.167 145.333,476.833 145,468.5C 143.069,460.476 138.569,454.31 131.5,450C 128.562,449.288 125.896,449.788 123.5,451.5C 119.763,447.698 116.763,443.365 114.5,438.5C 116.452,436.422 117.452,433.922 117.5,431C 97.4491,387.425 104.782,349.259 139.5,316.5 Z"/></g>
<g><path style="opacity:1" fill="#f6a907" d="M 139.5,316.5 C 213.001,315.168 286.668,315.168 360.5,316.5C 366.863,322.697 372.697,329.364 378,336.5C 401.498,376.578 398.164,414.244 368,449.5C 362.86,453.635 358.86,458.635 356,464.5C 354.775,474.107 354.108,483.774 354,493.5C 353.167,494.333 352.333,495.167 351.5,496C 344.508,496.5 337.508,496.666 330.5,496.5C 331.306,487.577 331.806,478.577 332,469.5C 333.413,466.339 335.08,463.339 337,460.5C 344.62,453.239 351.286,445.239 357,436.5C 379.627,392.909 374.461,353.076 341.5,317C 274.167,316.5 206.834,316.333 139.5,316.5 Z"/></g>
</svg>
