<?xml version="1.0" encoding="UTF-8"?>
<!DOCTYPE svg PUBLIC "-//W3C//DTD SVG 1.1//EN" "http://www.w3.org/Graphics/SVG/1.1/DTD/svg11.dtd">
<svg xmlns="http://www.w3.org/2000/svg" version="1.1" width="512px" height="512px" style="shape-rendering:geometricPrecision; text-rendering:geometricPrecision; image-rendering:optimizeQuality; fill-rule:evenodd; clip-rule:evenodd" xmlns:xlink="http://www.w3.org/1999/xlink">
<g><path style="opacity:0.974" fill="#010100" d="M 227.5,47.5 C 231.257,47.0708 234.757,47.7375 238,49.5C 243.87,64.609 249.036,79.9423 253.5,95.5C 313.931,100.281 357.098,129.948 383,184.5C 389.108,199.826 394.608,215.326 399.5,231C 399.044,238.58 395.044,241.246 387.5,239C 377.579,229.742 367.079,221.242 356,213.5C 359.362,222.253 362.362,231.253 365,240.5C 444.723,273.571 490.723,332.904 503,418.5C 503.667,424.167 503.667,429.833 503,435.5C 499.278,440.518 494.778,441.351 489.5,438C 449.004,387.064 397.337,352.564 334.5,334.5C 318.077,346.683 299.743,352.516 279.5,352C 277.286,364.645 273.452,376.811 268,388.5C 260.062,402.099 251.729,415.433 243,428.5C 214.923,462.23 180.089,471.73 138.5,457C 103.639,439.77 86.4724,411.603 87,372.5C 75.4088,380.756 65.0754,390.422 56,401.5C 44.1604,421.175 32.8271,441.175 22,461.5C 17.6667,464.167 13.3333,464.167 9,461.5C 7.45482,456.953 7.12148,452.287 8,447.5C 12.0537,418.124 16.387,388.791 21,359.5C 40.4648,276.531 87.7981,215.197 163,175.5C 175,159.5 187,143.5 199,127.5C 199.499,121.509 199.666,115.509 199.5,109.5C 196.126,109.674 192.793,110.174 189.5,111C 174.692,137.079 153.359,155.745 125.5,167C 103.12,172.428 81.12,179.095 59.5,187C 45.609,192.612 32.2756,199.279 19.5,207C 11.332,209.268 7.33197,206.268 7.5,198C 15.3826,153.253 40.3826,122.253 82.5,105C 94.4912,100.586 106.825,97.5855 119.5,96C 140.5,95.6667 161.5,95.3333 182.5,95C 189.167,93.6667 195.833,92.3333 202.5,91C 208.939,75.2742 217.272,60.7742 227.5,47.5 Z M 228.5,76.5 C 235.343,92.5357 240.51,109.202 244,126.5C 246.116,132.186 248.616,137.686 251.5,143C 241.576,144.022 232.076,146.522 223,150.5C 212.858,124.91 214.691,100.243 228.5,76.5 Z M 203.5,149.5 C 205.195,152.404 206.528,155.571 207.5,159C 196.387,168.407 187.554,179.574 181,192.5C 179.564,189.526 178.564,186.526 178,183.5C 186.717,172.29 195.217,160.956 203.5,149.5 Z"/></g>
<g><path style="opacity:1" fill="#7da900" d="M 32.5,180.5 C 31.4265,179.749 31.2599,178.749 32,177.5C 47.8337,146.34 72.667,126.174 106.5,117C 107.571,116.148 108.571,115.315 109.5,114.5C 114.35,112.795 119.35,112.295 124.5,113C 110.223,119.636 96.7232,127.469 84,136.5C 85.7951,140.896 88.2951,145.063 91.5,149C 92.9078,149.315 94.2411,148.982 95.5,148C 117.121,132.688 140.788,122.021 166.5,116C 154.973,130.925 140.639,142.258 123.5,150C 103.121,155.793 82.7873,161.793 62.5,168C 52.364,171.903 42.364,176.07 32.5,180.5 Z"/></g>
<g><path style="opacity:1" fill="#678900" d="M 109.5,114.5 C 108.571,115.315 107.571,116.148 106.5,117C 72.667,126.174 47.8337,146.34 32,177.5C 31.2599,178.749 31.4265,179.749 32.5,180.5C 31.2449,182.641 29.5782,183.307 27.5,182.5C 42.3734,144.972 69.7067,122.305 109.5,114.5 Z"/></g>
<g><path style="opacity:1" fill="#7ba700" d="M 364.5,199.5 C 356.661,182.144 345.661,167.144 331.5,154.5C 331.489,152.983 330.823,151.816 329.5,151C 312.326,139.58 295.326,127.914 278.5,116C 324.745,128.568 356.079,157.568 372.5,203C 372.167,203.5 371.833,204 371.5,204.5C 369.313,202.578 366.98,200.912 364.5,199.5 Z"/></g>
<g><path style="opacity:1" fill="#6c8f00" d="M 331.5,154.5 C 345.661,167.144 356.661,182.144 364.5,199.5C 353.867,192.684 342.533,187.184 330.5,183C 320.305,171.128 308.639,161.128 295.5,153C 287.272,149.816 279.105,146.649 271,143.5C 266.33,137.176 263.163,130.51 261.5,123.5C 281.283,138.281 301.617,152.281 322.5,165.5C 325.747,161.986 328.747,158.32 331.5,154.5 Z"/></g>
<g><path style="opacity:1" fill="#cfd833" d="M 348.5,286.5 C 341.677,291.81 334.677,296.977 327.5,302C 320.216,305.817 312.549,308.317 304.5,309.5C 304.5,308.167 304.5,306.833 304.5,305.5C 308.061,294.274 315.728,288.274 327.5,287.5C 327.5,282.167 327.5,276.833 327.5,271.5C 303.167,273.833 289.833,287.167 287.5,311.5C 264.847,310.423 246.013,301.423 231,284.5C 218.377,267.195 207.377,248.861 198,229.5C 195.559,223.017 194.059,216.351 193.5,209.5C 202.773,178.44 223.606,161.773 256,159.5C 271.77,159.756 285.936,164.59 298.5,174C 309,184.5 319.5,195 330,205.5C 349.249,229.499 355.416,256.499 348.5,286.5 Z"/></g>
<g><path style="opacity:1" fill="#6d9000" d="M 148.5,211.5 C 148.483,209.972 147.816,209.472 146.5,210C 97.6524,252.343 68.3191,305.677 58.5,370C 58.528,371.07 58.8614,371.903 59.5,372.5C 48.2932,383.875 38.7932,396.542 31,410.5C 35.5777,319.624 75.911,249.958 152,201.5C 151.684,205.131 150.518,208.465 148.5,211.5 Z"/></g>
<g><path style="opacity:1" fill="#7eab00" d="M 59.5,372.5 C 58.8614,371.903 58.528,371.07 58.5,370C 68.3191,305.677 97.6524,252.343 146.5,210C 147.816,209.472 148.483,209.972 148.5,211.5C 134.192,243.977 114.525,272.811 89.5,298C 93.3127,301.736 97.3127,305.236 101.5,308.5C 130.601,279.534 152.768,245.868 168,207.5C 182.736,247.133 177.069,283.466 151,316.5C 142.515,325.819 132.682,333.319 121.5,339C 98.2831,345.77 77.6165,356.936 59.5,372.5 Z"/></g>
<g><path style="opacity:1" fill="#bcc625" d="M 193.5,209.5 C 194.059,216.351 195.559,223.017 198,229.5C 207.377,248.861 218.377,267.195 231,284.5C 246.013,301.423 264.847,310.423 287.5,311.5C 292.833,311.5 298.167,311.5 303.5,311.5C 303.205,309.265 303.539,307.265 304.5,305.5C 304.5,306.833 304.5,308.167 304.5,309.5C 312.549,308.317 320.216,305.817 327.5,302C 334.677,296.977 341.677,291.81 348.5,286.5C 333.77,323.708 306.437,339.542 266.5,334C 252.085,330.546 239.919,323.38 230,312.5C 218.664,296.504 208.331,279.837 199,262.5C 192.058,245.198 190.224,227.532 193.5,209.5 Z"/></g>
<g><path style="opacity:1" fill="#7daa00" d="M 467.5,389.5 C 453.066,351.892 429.4,321.392 396.5,298C 386.603,291.557 376.603,285.391 366.5,279.5C 367.32,273.203 367.653,266.869 367.5,260.5C 415.999,280.831 450.832,315.164 472,363.5C 478.259,377.268 482.259,391.601 484,406.5C 478.297,400.965 472.797,395.298 467.5,389.5 Z"/></g>
<g><path style="opacity:1" fill="#030300" d="M 304.5,305.5 C 303.539,307.265 303.205,309.265 303.5,311.5C 298.167,311.5 292.833,311.5 287.5,311.5C 289.833,287.167 303.167,273.833 327.5,271.5C 327.5,276.833 327.5,282.167 327.5,287.5C 315.728,288.274 308.061,294.274 304.5,305.5 Z"/></g>
<g><path style="opacity:1" fill="#bec725" d="M 253.5,346.5 C 252.864,350.781 251.364,354.781 249,358.5C 241.06,371.437 232.726,384.104 224,396.5C 208.993,413.419 190.16,422.419 167.5,423.5C 165.208,399.208 151.875,385.875 127.5,383.5C 127.5,388.833 127.5,394.167 127.5,399.5C 139.288,400.293 146.955,406.293 150.5,417.5C 150.5,418.833 150.5,420.167 150.5,421.5C 142.305,420.713 134.638,418.213 127.5,414C 120.323,408.977 113.323,403.81 106.5,398.5C 103.377,386.61 102.877,374.61 105,362.5C 147.718,349.282 175.551,321.282 188.5,278.5C 197.333,292.167 206.167,305.833 215,319.5C 225.263,332.278 238.096,341.278 253.5,346.5 Z"/></g>
<g><path style="opacity:1" fill="#6d9000" d="M 366.5,279.5 C 376.603,285.391 386.603,291.557 396.5,298C 429.4,321.392 453.066,351.892 467.5,389.5C 432.569,358.189 392.569,335.356 347.5,321C 352.42,314.419 356.92,307.586 361,300.5C 378.442,310.112 394.942,321.112 410.5,333.5C 413.953,329.425 417.287,325.258 420.5,321C 403.588,307.431 385.588,295.431 366.5,285C 365.193,283.057 365.193,281.223 366.5,279.5 Z"/></g>
<g><path style="opacity:1" fill="#91a006" d="M 253.5,346.5 C 256.303,347.928 259.303,348.595 262.5,348.5C 260.607,364.013 255.44,378.346 247,391.5C 241,400.833 235,410.167 229,419.5C 211.94,440.749 189.773,449.916 162.5,447C 134.364,441.693 115.697,425.526 106.5,398.5C 113.323,403.81 120.323,408.977 127.5,414C 134.638,418.213 142.305,420.713 150.5,421.5C 150.5,420.167 150.5,418.833 150.5,417.5C 151.461,419.265 151.795,421.265 151.5,423.5C 156.833,423.5 162.167,423.5 167.5,423.5C 190.16,422.419 208.993,413.419 224,396.5C 232.726,384.104 241.06,371.437 249,358.5C 251.364,354.781 252.864,350.781 253.5,346.5 Z"/></g>
<g><path style="opacity:1" fill="#030300" d="M 167.5,423.5 C 162.167,423.5 156.833,423.5 151.5,423.5C 151.795,421.265 151.461,419.265 150.5,417.5C 146.955,406.293 139.288,400.293 127.5,399.5C 127.5,394.167 127.5,388.833 127.5,383.5C 151.875,385.875 165.208,399.208 167.5,423.5 Z"/></g>
</svg>
