<?xml version="1.0" encoding="UTF-8"?>
<!DOCTYPE svg PUBLIC "-//W3C//DTD SVG 1.1//EN" "http://www.w3.org/Graphics/SVG/1.1/DTD/svg11.dtd">
<svg xmlns="http://www.w3.org/2000/svg" version="1.1" width="512px" height="512px" style="shape-rendering:geometricPrecision; text-rendering:geometricPrecision; image-rendering:optimizeQuality; fill-rule:evenodd; clip-rule:evenodd" xmlns:xlink="http://www.w3.org/1999/xlink">
<g><path style="opacity:0.984" fill="#010201" d="M 327.5,-0.5 C 334.5,-0.5 341.5,-0.5 348.5,-0.5C 380.046,8.85083 395.212,30.1842 394,63.5C 406.185,59.4437 418.352,59.6104 430.5,64C 433.62,66.4077 434.953,69.5743 434.5,73.5C 433.167,74.1667 432.167,75.1667 431.5,76.5C 427.948,78.8683 424.281,79.0349 420.5,77C 414.167,76.3333 407.833,76.3333 401.5,77C 395.062,79.385 388.728,82.0517 382.5,85C 357.683,79.3224 336.517,85.4891 319,103.5C 315.002,109.979 310.168,115.812 304.5,121C 298.292,124.481 291.625,126.481 284.5,127C 276.1,130.114 269.267,135.281 264,142.5C 259.836,149.826 256.502,157.493 254,165.5C 250.9,170.8 246.4,174.3 240.5,176C 206.629,177.704 186.129,195.204 179,228.5C 176.929,243.208 177.262,257.875 180,272.5C 180.667,284.5 180.667,296.5 180,308.5C 177.53,326.323 174.53,343.99 171,361.5C 179,352.167 187.667,343.5 197,335.5C 207.163,320.012 213.163,303.012 215,284.5C 215.049,274.451 215.216,264.451 215.5,254.5C 221.068,250.048 225.568,251.048 229,257.5C 229.943,263.293 230.443,269.127 230.5,275C 230.203,285.677 229.036,296.177 227,306.5C 252.246,281.411 271.746,252.411 285.5,219.5C 283.448,213.728 280.614,208.394 277,203.5C 271.863,197.609 266.53,191.943 261,186.5C 260.132,182.328 261.632,179.162 265.5,177C 267.167,176.333 268.833,176.333 270.5,177C 279.712,183.212 287.212,191.045 293,200.5C 296.553,187.755 298.887,174.755 300,161.5C 304.171,155.271 308.837,154.938 314,160.5C 311.995,196.181 301.495,229.181 282.5,259.5C 282.833,259.833 283.167,260.167 283.5,260.5C 300.547,244.62 316.714,227.954 332,210.5C 340.947,189.711 346.614,168.045 349,145.5C 353.714,140.177 358.38,140.177 363,145.5C 362.541,155.91 361.541,166.243 360,176.5C 369.713,164.242 379.547,152.075 389.5,140C 397.575,135.91 404.075,137.744 409,145.5C 409.738,149.261 409.405,152.928 408,156.5C 393.852,185.48 377.685,213.147 359.5,239.5C 371.341,234.844 383.841,231.177 397,228.5C 401.132,229.14 403.632,231.473 404.5,235.5C 403.758,240.909 400.758,243.909 395.5,244.5C 370.229,249.384 348.396,260.717 330,278.5C 321.757,289.134 312.923,299.301 303.5,309C 321.441,303.554 339.774,302.221 358.5,305C 362.5,309 362.5,313 358.5,317C 325.896,315.984 295.896,324.318 268.5,342C 260.996,348.338 253.996,355.171 247.5,362.5C 236.584,371.871 227.417,381.871 220,392.5C 252.88,377.657 287.38,369.824 323.5,369C 367.179,360.778 387.013,334.611 383,290.5C 384.713,286.127 387.213,282.293 390.5,279C 401.096,274.399 409.929,267.566 417,258.5C 419.225,254.719 420.891,250.719 422,246.5C 422.108,239.089 422.775,231.755 424,224.5C 428.573,217.256 433.907,210.59 440,204.5C 449.754,191.822 453.754,177.488 452,161.5C 449.548,154.48 447.715,147.314 446.5,140C 447.587,134.736 449.087,129.569 451,124.5C 451.667,119.167 451.667,113.833 451,108.5C 449.773,103.72 448.273,99.0536 446.5,94.5C 446.974,91.6887 448.307,89.3554 450.5,87.5C 454.703,85.7784 458.203,86.7784 461,90.5C 468.563,107.16 469.063,123.993 462.5,141C 465.303,150.205 467.303,159.538 468.5,169C 467.748,175.833 466.748,182.667 465.5,189.5C 480.821,195.401 490.655,206.401 495,222.5C 498.678,239.114 495.345,254.114 485,267.5C 486.693,290.104 479.193,308.938 462.5,324C 455.579,328.71 448.746,333.544 442,338.5C 438.371,356.129 428.204,368.296 411.5,375C 405.777,376.514 400.11,378.18 394.5,380C 385.757,418.394 361.59,438.227 322,439.5C 305.373,437.886 288.873,435.386 272.5,432C 259.492,430.156 246.492,430.156 233.5,432C 228.167,438.333 222.833,444.667 217.5,451C 214.546,452.719 211.546,452.885 208.5,451.5C 205.284,447.868 204.784,443.868 207,439.5C 217.082,426.08 227.915,413.247 239.5,401C 228.117,404.685 217.117,409.519 206.5,415.5C 201.527,418.321 196.527,421.155 191.5,424C 175.824,442.522 161.49,462.022 148.5,482.5C 149.931,484.938 151.931,486.604 154.5,487.5C 157.674,492.402 162.008,495.235 167.5,496C 173.673,485.985 180.34,476.319 187.5,467C 190.555,466.366 193.555,466.532 196.5,467.5C 199.715,470.721 200.215,474.388 198,478.5C 191.94,486.897 186.273,495.563 181,504.5C 178.175,507.476 175.008,509.809 171.5,511.5C 167.5,511.5 163.5,511.5 159.5,511.5C 152.332,507.354 145.665,502.354 139.5,496.5C 131.912,501.485 124.245,501.652 116.5,497C 107.318,489.481 98.485,481.647 90,473.5C 86.6086,466.742 86.7753,460.075 90.5,453.5C 82.8387,446.675 75.0053,440.009 67,433.5C 59.2786,439.586 51.112,440.086 42.5,435C 33.7032,427.872 25.2032,420.372 17,412.5C 13.6667,405.833 13.6667,399.167 17,392.5C 33.9148,370.914 51.5815,349.914 70,329.5C 90.0999,283.132 96.2666,234.966 88.5,185C 88.3876,156.639 98.7209,132.972 119.5,114C 132.881,104.236 147.881,99.2359 164.5,99C 166.617,97.2691 168.117,95.1024 169,92.5C 173.242,75.2725 183.076,62.4391 198.5,54C 206.824,51.2272 215.157,48.5605 223.5,46C 228.435,38.0662 234.435,31.0662 241.5,25C 244.904,23.1795 248.237,23.3461 251.5,25.5C 253.097,28.3188 253.597,31.3188 253,34.5C 246.575,40.9208 240.909,47.9208 236,55.5C 232.707,58.7869 228.873,61.2869 224.5,63C 209.598,63.6958 198.098,70.1958 190,82.5C 186.221,89.1718 183.221,96.1718 181,103.5C 177.551,109.611 172.385,113.444 165.5,115C 138.958,115.535 120.458,128.035 110,152.5C 107.551,158.63 105.884,164.963 105,171.5C 105.993,193.465 106.66,215.465 107,237.5C 106.667,243.167 106.333,248.833 106,254.5C 103.789,269.66 101.123,284.66 98,299.5C 126.995,272.861 139.661,239.861 136,200.5C 141.081,195.014 145.748,195.347 150,201.5C 151.519,210.781 151.853,220.114 151,229.5C 149.743,237.251 148.41,244.917 147,252.5C 151.967,246.531 157.301,240.865 163,235.5C 166.071,204.134 181.405,181.134 209,166.5C 210.444,163.945 211.611,161.279 212.5,158.5C 209.366,150.87 205.199,143.87 200,137.5C 195.721,133.711 191.721,129.711 188,125.5C 188.587,114.833 193.421,112.667 202.5,119C 209.099,124.761 214.766,131.261 219.5,138.5C 223.436,125.783 225.936,112.783 227,99.5C 231.667,94.1667 236.333,94.1667 241,99.5C 240.47,121.007 235.97,141.673 227.5,161.5C 233.7,163.644 238.534,161.978 242,156.5C 246.738,135.991 258.738,121.658 278,113.5C 283.185,96.5434 286.519,79.21 288,61.5C 292.171,55.271 296.837,54.9377 302,60.5C 302.667,64.5 302.667,68.5 302,72.5C 299.728,84.5146 297.728,96.5146 296,108.5C 300.38,103.789 304.38,98.7886 308,93.5C 320.576,79.7957 336.076,71.7957 354.5,69.5C 361.55,69.9179 368.55,69.9179 375.5,69.5C 381.687,51.0756 377.354,35.7422 362.5,23.5C 352.953,15.6821 341.953,12.8487 329.5,15C 323.264,17.1175 317.264,19.7841 311.5,23C 308.374,23.7586 305.207,24.2586 302,24.5C 292.911,22.9685 283.745,22.1351 274.5,22C 272.807,20.7501 271.473,19.2501 270.5,17.5C 269.464,12.3764 271.464,9.20976 276.5,8C 285.468,7.0564 294.302,7.5564 303,9.5C 310.867,5.14024 319.034,1.8069 327.5,-0.5 Z"/></g>
<g><path style="opacity:1" fill="#148d5d" d="M 362.5,23.5 C 363.589,30.1167 363.756,36.7834 363,43.5C 361.319,48.3761 360.153,53.3761 359.5,58.5C 359.481,61.8419 360.148,65.0086 361.5,68C 358.964,68.1862 356.631,68.6862 354.5,69.5C 336.076,71.7957 320.576,79.7957 308,93.5C 304.38,98.7886 300.38,103.789 296,108.5C 297.728,96.5146 299.728,84.5146 302,72.5C 302.667,68.5 302.667,64.5 302,60.5C 296.837,54.9377 292.171,55.271 288,61.5C 286.519,79.21 283.185,96.5434 278,113.5C 258.738,121.658 246.738,135.991 242,156.5C 238.534,161.978 233.7,163.644 227.5,161.5C 235.97,141.673 240.47,121.007 241,99.5C 236.333,94.1667 231.667,94.1667 227,99.5C 225.936,112.783 223.436,125.783 219.5,138.5C 214.766,131.261 209.099,124.761 202.5,119C 193.421,112.667 188.587,114.833 188,125.5C 191.721,129.711 195.721,133.711 200,137.5C 205.199,143.87 209.366,150.87 212.5,158.5C 211.611,161.279 210.444,163.945 209,166.5C 181.405,181.134 166.071,204.134 163,235.5C 157.301,240.865 151.967,246.531 147,252.5C 148.41,244.917 149.743,237.251 151,229.5C 151.853,220.114 151.519,210.781 150,201.5C 145.748,195.347 141.081,195.014 136,200.5C 139.661,239.861 126.995,272.861 98,299.5C 101.123,284.66 103.789,269.66 106,254.5C 106.333,248.833 106.667,243.167 107,237.5C 106.66,215.465 105.993,193.465 105,171.5C 105.884,164.963 107.551,158.63 110,152.5C 120.458,128.035 138.958,115.535 165.5,115C 172.385,113.444 177.551,109.611 181,103.5C 183.221,96.1718 186.221,89.1718 190,82.5C 198.098,70.1958 209.598,63.6958 224.5,63C 228.873,61.2869 232.707,58.7869 236,55.5C 240.909,47.9208 246.575,40.9208 253,34.5C 253.597,31.3188 253.097,28.3188 251.5,25.5C 256.364,22.8221 261.364,20.3221 266.5,18C 267.793,17.51 269.127,17.3433 270.5,17.5C 271.473,19.2501 272.807,20.7501 274.5,22C 283.745,22.1351 292.911,22.9685 302,24.5C 305.207,24.2586 308.374,23.7586 311.5,23C 317.264,19.7841 323.264,17.1175 329.5,15C 341.953,12.8487 352.953,15.6821 362.5,23.5 Z"/></g>
<g><path style="opacity:1" fill="#0e774d" d="M 362.5,23.5 C 377.354,35.7422 381.687,51.0756 375.5,69.5C 368.55,69.9179 361.55,69.9179 354.5,69.5C 356.631,68.6862 358.964,68.1862 361.5,68C 360.148,65.0086 359.481,61.8419 359.5,58.5C 360.153,53.3761 361.319,48.3761 363,43.5C 363.756,36.7834 363.589,30.1167 362.5,23.5 Z"/></g>
<g><path style="opacity:1" fill="#148d5d" d="M 434.5,73.5 C 440.747,77.0776 446.08,81.7442 450.5,87.5C 448.307,89.3554 446.974,91.6887 446.5,94.5C 448.273,99.0536 449.773,103.72 451,108.5C 451.667,113.833 451.667,119.167 451,124.5C 449.087,129.569 447.587,134.736 446.5,140C 447.715,147.314 449.548,154.48 452,161.5C 453.754,177.488 449.754,191.822 440,204.5C 433.907,210.59 428.573,217.256 424,224.5C 422.775,231.755 422.108,239.089 422,246.5C 420.891,250.719 419.225,254.719 417,258.5C 409.929,267.566 401.096,274.399 390.5,279C 387.213,282.293 384.713,286.127 383,290.5C 387.013,334.611 367.179,360.778 323.5,369C 287.38,369.824 252.88,377.657 220,392.5C 227.417,381.871 236.584,371.871 247.5,362.5C 247.735,363.097 248.235,363.43 249,363.5C 251.774,362.464 254.607,361.631 257.5,361C 276.202,358.832 294.869,356.499 313.5,354C 341.97,346.529 360.137,328.695 368,300.5C 368.692,292.815 368.525,285.149 367.5,277.5C 367.804,273.886 368.971,270.552 371,267.5C 378.413,262.21 385.913,257.043 393.5,252C 395.5,249.667 397.5,247.333 399.5,245C 398.207,244.51 396.873,244.343 395.5,244.5C 400.758,243.909 403.758,240.909 404.5,235.5C 405.956,232.386 407.122,229.052 408,225.5C 408.333,219.5 408.667,213.5 409,207.5C 410.08,205.004 411.414,202.67 413,200.5C 437.985,178.199 444.485,151.366 432.5,120C 435.033,112.029 436.7,103.863 437.5,95.5C 437.574,90.6574 436.741,85.9907 435,81.5C 434.451,79.2404 433.284,77.5738 431.5,76.5C 432.167,75.1667 433.167,74.1667 434.5,73.5 Z"/></g>
<g><path style="opacity:1" fill="#1ba36e" d="M 431.5,76.5 C 433.284,77.5738 434.451,79.2404 435,81.5C 436.741,85.9907 437.574,90.6574 437.5,95.5C 436.7,103.863 435.033,112.029 432.5,120C 444.485,151.366 437.985,178.199 413,200.5C 411.414,202.67 410.08,205.004 409,207.5C 408.667,213.5 408.333,219.5 408,225.5C 407.122,229.052 405.956,232.386 404.5,235.5C 403.632,231.473 401.132,229.14 397,228.5C 383.841,231.177 371.341,234.844 359.5,239.5C 377.685,213.147 393.852,185.48 408,156.5C 409.405,152.928 409.738,149.261 409,145.5C 404.075,137.744 397.575,135.91 389.5,140C 379.547,152.075 369.713,164.242 360,176.5C 361.541,166.243 362.541,155.91 363,145.5C 358.38,140.177 353.714,140.177 349,145.5C 346.614,168.045 340.947,189.711 332,210.5C 316.714,227.954 300.547,244.62 283.5,260.5C 283.167,260.167 282.833,259.833 282.5,259.5C 301.495,229.181 311.995,196.181 314,160.5C 308.837,154.938 304.171,155.271 300,161.5C 298.887,174.755 296.553,187.755 293,200.5C 287.212,191.045 279.712,183.212 270.5,177C 268.833,176.333 267.167,176.333 265.5,177C 261.632,179.162 260.132,182.328 261,186.5C 266.53,191.943 271.863,197.609 277,203.5C 280.614,208.394 283.448,213.728 285.5,219.5C 271.746,252.411 252.246,281.411 227,306.5C 229.036,296.177 230.203,285.677 230.5,275C 230.443,269.127 229.943,263.293 229,257.5C 225.568,251.048 221.068,250.048 215.5,254.5C 215.216,264.451 215.049,274.451 215,284.5C 213.163,303.012 207.163,320.012 197,335.5C 187.667,343.5 179,352.167 171,361.5C 174.53,343.99 177.53,326.323 180,308.5C 180.667,296.5 180.667,284.5 180,272.5C 177.262,257.875 176.929,243.208 179,228.5C 186.129,195.204 206.629,177.704 240.5,176C 246.4,174.3 250.9,170.8 254,165.5C 256.502,157.493 259.836,149.826 264,142.5C 269.267,135.281 276.1,130.114 284.5,127C 291.625,126.481 298.292,124.481 304.5,121C 310.168,115.812 315.002,109.979 319,103.5C 336.517,85.4891 357.683,79.3224 382.5,85C 388.728,82.0517 395.062,79.385 401.5,77C 407.833,76.3333 414.167,76.3333 420.5,77C 424.281,79.0349 427.948,78.8683 431.5,76.5 Z"/></g>
<g><path style="opacity:1" fill="#df2233" d="M 116.5,476.5 C 149.954,424.176 189.287,376.343 234.5,333C 261.43,310.572 285.763,285.739 307.5,258.5C 333.545,232.363 357.712,204.696 380,175.5C 348.862,237.048 306.028,290.881 251.5,337C 204.633,381.203 163.966,430.203 129.5,484C 128.167,484.667 126.833,484.667 125.5,484C 122.335,481.665 119.335,479.165 116.5,476.5 Z"/></g>
<g><path style="opacity:1" fill="#0b6741" d="M 316.5,423.5 C 337.631,415.279 350.297,399.946 354.5,377.5C 354.457,376.584 354.124,375.917 353.5,375.5C 359.495,371.841 365.495,368.174 371.5,364.5C 390.928,359.57 402.761,347.237 407,327.5C 413.395,322.052 420.228,317.219 427.5,313C 444.045,298.725 451.212,280.558 449,258.5C 454.54,251.752 458.207,244.086 460,235.5C 460.667,229.833 460.667,224.167 460,218.5C 459.156,214.771 457.656,211.437 455.5,208.5C 456.126,206.237 457.46,204.57 459.5,203.5C 478.818,213.246 484.984,228.579 478,249.5C 474.479,254.542 471.479,259.875 469,265.5C 471.368,283.899 465.868,299.399 452.5,312C 445.661,316.252 438.994,320.752 432.5,325.5C 430.808,327.359 429.308,329.359 428,331.5C 424.045,351.451 411.878,362.284 391.5,364C 380.028,369.491 374.195,378.658 374,391.5C 366.801,409.355 353.634,419.855 334.5,423C 328.509,423.499 322.509,423.666 316.5,423.5 Z"/></g>
<g><path style="opacity:1" fill="#0e784e" d="M 455.5,208.5 C 457.656,211.437 459.156,214.771 460,218.5C 460.667,224.167 460.667,229.833 460,235.5C 458.207,244.086 454.54,251.752 449,258.5C 451.212,280.558 444.045,298.725 427.5,313C 420.228,317.219 413.395,322.052 407,327.5C 402.761,347.237 390.928,359.57 371.5,364.5C 391.553,347.18 399.886,325.347 396.5,299C 396.833,294.667 398.833,291.333 402.5,289C 427.501,277.185 439.334,257.351 438,229.5C 443.852,222.429 449.685,215.429 455.5,208.5 Z"/></g>
<g><path style="opacity:1" fill="#1ba36d" d="M 395.5,244.5 C 396.873,244.343 398.207,244.51 399.5,245C 397.5,247.333 395.5,249.667 393.5,252C 385.913,257.043 378.413,262.21 371,267.5C 368.971,270.552 367.804,273.886 367.5,277.5C 368.525,285.149 368.692,292.815 368,300.5C 360.137,328.695 341.97,346.529 313.5,354C 294.869,356.499 276.202,358.832 257.5,361C 254.607,361.631 251.774,362.464 249,363.5C 248.235,363.43 247.735,363.097 247.5,362.5C 253.996,355.171 260.996,348.338 268.5,342C 295.896,324.318 325.896,315.984 358.5,317C 362.5,313 362.5,309 358.5,305C 339.774,302.221 321.441,303.554 303.5,309C 312.923,299.301 321.757,289.134 330,278.5C 348.396,260.717 370.229,249.384 395.5,244.5 Z"/></g>
<g><path style="opacity:1" fill="#f8b14b" d="M 164.5,269.5 C 117.823,312.816 77.4901,361.15 43.5,414.5C 39.1205,411.544 34.9538,408.211 31,404.5C 30.3333,402.833 30.3333,401.167 31,399.5C 70.7049,348.451 114.705,301.118 163,257.5C 164.156,261.418 164.656,265.418 164.5,269.5 Z"/></g>
<g><path style="opacity:1" fill="#f89726" d="M 164.5,269.5 C 165.653,275.653 165.82,281.986 165,288.5C 123.578,329.562 87.0782,374.396 55.5,423C 54.5,423.667 53.5,423.667 52.5,423C 49.0435,420.613 46.0435,417.78 43.5,414.5C 77.4901,361.15 117.823,312.816 164.5,269.5 Z"/></g>
<g><path style="opacity:1" fill="#f74857" d="M 307.5,258.5 C 285.763,285.739 261.43,310.572 234.5,333C 189.287,376.343 149.954,424.176 116.5,476.5C 112.084,473.194 107.917,469.527 104,465.5C 103.333,464.167 103.333,462.833 104,461.5C 147.808,404.837 196.974,353.003 251.5,306C 271.214,291.457 289.88,275.624 307.5,258.5 Z"/></g>
<g><path style="opacity:1" fill="#0e7149" d="M 163.5,310.5 C 164.047,314.978 164.047,319.645 163.5,324.5C 157.089,326.719 150.756,328.886 144.5,331C 151.407,324.597 157.74,317.764 163.5,310.5 Z"/></g>
<g><path style="opacity:1" fill="#f9b2b7" d="M 158.5,342.5 C 135.236,369.6 114.069,398.267 95,428.5C 93.6288,430.041 92.1288,431.375 90.5,432.5C 85.3732,428.545 80.3732,424.378 75.5,420C 88.5236,400.288 102.524,381.288 117.5,363C 130.627,355.028 144.294,348.194 158.5,342.5 Z"/></g>
<g><path style="opacity:1" fill="#f9989f" d="M 90.5,432.5 C 92.1288,431.375 93.6288,430.041 95,428.5C 114.069,398.267 135.236,369.6 158.5,342.5C 158.969,341.255 159.303,341.421 159.5,343C 156.547,354.977 153.047,366.81 149,378.5C 147.388,384.391 144.721,389.725 141,394.5C 127.292,409.873 113.958,425.539 101,441.5C 97.3081,438.635 93.8081,435.635 90.5,432.5 Z"/></g>
<g><path style="opacity:1" fill="#0e784d" d="M 353.5,375.5 C 354.124,375.917 354.457,376.584 354.5,377.5C 350.297,399.946 337.631,415.279 316.5,423.5C 302.807,421.662 289.14,419.496 275.5,417C 265.852,416.075 256.185,415.408 246.5,415C 253.5,407.333 260.5,399.667 267.5,392C 274.634,389.477 281.967,387.811 289.5,387C 302.851,385.856 316.184,384.523 329.5,383C 337.665,381 345.665,378.5 353.5,375.5 Z"/></g>
<g><path style="opacity:1" fill="#f79726" d="M 208.5,451.5 C 204.147,456.527 200.147,461.86 196.5,467.5C 193.555,466.532 190.555,466.366 187.5,467C 180.34,476.319 173.673,485.985 167.5,496C 162.008,495.235 157.674,492.402 154.5,487.5C 155.794,486.71 156.961,485.71 158,484.5C 172.855,460.495 189.022,437.495 206.5,415.5C 217.117,409.519 228.117,404.685 239.5,401C 227.915,413.247 217.082,426.08 207,439.5C 204.784,443.868 205.284,447.868 208.5,451.5 Z"/></g>
<g><path style="opacity:1" fill="#f6af4a" d="M 206.5,415.5 C 189.022,437.495 172.855,460.495 158,484.5C 156.961,485.71 155.794,486.71 154.5,487.5C 151.931,486.604 149.931,484.938 148.5,482.5C 161.49,462.022 175.824,442.522 191.5,424C 196.527,421.155 201.527,418.321 206.5,415.5 Z"/></g>
</svg>
