<?xml version="1.0" encoding="UTF-8"?>
<!DOCTYPE svg PUBLIC "-//W3C//DTD SVG 1.1//EN" "http://www.w3.org/Graphics/SVG/1.1/DTD/svg11.dtd">
<svg xmlns="http://www.w3.org/2000/svg" version="1.1" width="512px" height="512px" style="shape-rendering:geometricPrecision; text-rendering:geometricPrecision; image-rendering:optimizeQuality; fill-rule:evenodd; clip-rule:evenodd" xmlns:xlink="http://www.w3.org/1999/xlink">
<g><path style="opacity:0.959" fill="#030000" d="M 320.5,36.5 C 326.093,37.6179 327.926,40.9512 326,46.5C 310.673,54.9057 298.507,66.5724 289.5,81.5C 290,81.8333 290.5,82.1667 291,82.5C 310.68,78.2859 330.513,77.4526 350.5,80C 386.717,86.6826 413.55,106.183 431,138.5C 439.654,153.789 444.654,170.123 446,187.5C 444.426,188.848 442.593,189.514 440.5,189.5C 414.596,183.253 389.929,173.753 366.5,161C 336.438,144.309 308.104,125.142 281.5,103.5C 280.914,103.709 280.414,104.043 280,104.5C 278.306,111.137 276.806,117.804 275.5,124.5C 335.794,153.725 377.794,199.725 401.5,262.5C 408.287,262.353 414.954,263.187 421.5,265C 427.769,267.72 433.936,270.553 440,273.5C 468.634,269.806 486.967,281.806 495,309.5C 495.667,344.833 495.667,380.167 495,415.5C 486.773,440.035 469.607,452.868 443.5,454C 437.169,458.665 430.169,461.998 422.5,464C 415.816,470.923 407.65,474.089 398,473.5C 389.543,473.792 382.043,471.292 375.5,466C 365.339,465.061 356.339,461.394 348.5,455C 330.014,455.33 314.181,449.163 301,436.5C 296.662,430.824 293.662,424.49 292,417.5C 290.4,384.525 290.067,351.525 291,318.5C 292.008,297.975 301.842,283.475 320.5,275C 332.043,271.297 343.376,271.797 354.5,276.5C 364.43,268.409 375.763,263.409 388.5,261.5C 369.651,215.494 339.651,178.661 298.5,151C 289.729,145.896 280.729,141.229 271.5,137C 265.849,137.812 260.516,139.812 255.5,143C 216.715,167.482 191.215,201.982 179,246.5C 177.358,251.402 176.191,256.402 175.5,261.5C 180.232,261.378 184.898,261.878 189.5,263C 196.218,265.445 202.718,268.278 209,271.5C 231.041,267.395 248.041,274.729 260,293.5C 262.593,298.535 264.259,303.868 265,309.5C 265.667,340.5 265.667,371.5 265,402.5C 261.351,420.489 250.851,432.655 233.5,439C 226.674,441.232 219.674,442.565 212.5,443C 206.338,447.08 199.671,450.08 192.5,452C 177.012,463.867 161.012,464.534 144.5,454C 134.557,453.194 125.557,449.861 117.5,444C 101.611,443.785 87.278,439.118 74.5,430C 67.4614,423.627 62.9614,415.794 61,406.5C 60.3333,373.5 60.3333,340.5 61,307.5C 68.0071,280.522 85.5071,268.356 113.5,271C 117.153,271.773 120.653,272.94 124,274.5C 135.152,265.392 147.986,260.725 162.5,260.5C 170.63,222.571 187.464,189.238 213,160.5C 227.526,146.155 244.026,134.655 262.5,126C 263.977,122.324 264.977,118.491 265.5,114.5C 265.267,113.068 264.6,112.568 263.5,113C 236.345,140.422 204.678,161.088 168.5,175C 126.677,188.48 87.0102,183.814 49.5,161C 37.7649,153.267 26.5983,144.767 16,135.5C 15.3333,132.833 15.3333,130.167 16,127.5C 86.6476,26.232 173.148,10.5653 275.5,80.5C 285.933,61.0662 300.933,46.3995 320.5,36.5 Z"/></g>
<g><path style="opacity:1" fill="#639327" d="M 145.5,48.5 C 185.113,48.32 221.446,59.1534 254.5,81C 217.219,77.8675 180.219,79.8675 143.5,87C 115.431,92.9537 89.9313,104.454 67,121.5C 65.5,128 68,130.5 74.5,129C 106.444,107.35 141.778,95.0167 180.5,92C 208.897,89.7797 237.23,90.4464 265.5,94C 237.828,123.343 205.494,146.009 168.5,162C 128.172,176.798 89.8382,172.798 53.5,150C 44.2631,144.099 35.5964,137.432 27.5,130C 41.7087,108.789 59.0421,90.4557 79.5,75C 99.3391,60.5588 121.339,51.7254 145.5,48.5 Z"/></g>
<g><path style="opacity:1" fill="#74a83b" d="M 309.5,89.5 C 373.324,84.9054 414.324,113.239 432.5,174.5C 432,174.833 431.5,175.167 431,175.5C 392.311,162.739 356.477,144.573 323.5,121C 311.807,112.818 300.473,104.152 289.5,95C 290.328,94.0853 291.328,93.4186 292.5,93C 298.315,91.8712 303.981,90.7045 309.5,89.5 Z"/></g>
<g><path style="opacity:1" fill="#d10b09" d="M 150.5,272.5 C 161.172,272.333 171.839,272.5 182.5,273C 186.777,274.09 190.777,275.757 194.5,278C 190.686,280.98 187.019,284.146 183.5,287.5C 174.174,283.2 164.507,282.366 154.5,285C 150.271,288.128 145.604,289.462 140.5,289C 138.539,286.037 136.206,283.371 133.5,281C 138.712,277.061 144.379,274.227 150.5,272.5 Z"/></g>
<g><path style="opacity:1" fill="#cd0b09" d="M 383.5,273.5 C 392.506,273.334 401.506,273.5 410.5,274C 415.905,275.023 420.905,277.023 425.5,280C 421.326,283.008 417.659,286.508 414.5,290.5C 400.534,284.348 387.201,285.348 374.5,293.5C 373.833,293.333 373.167,293.167 372.5,293C 369.734,289.478 366.734,286.145 363.5,283C 369.616,278.44 376.282,275.273 383.5,273.5 Z"/></g>
<g><path style="opacity:1" fill="#d20b09" d="M 97.5,281.5 C 108.456,280.251 118.123,283.084 126.5,290C 109.276,295.293 99.1092,306.793 96,324.5C 95.3333,352.833 95.3333,381.167 96,409.5C 97.0836,417.09 99.9169,423.924 104.5,430C 86.2747,428.773 75.108,419.273 71,401.5C 70.3333,370.833 70.3333,340.167 71,309.5C 74.2469,294.756 83.0802,285.423 97.5,281.5 Z"/></g>
<g><path style="opacity:1" fill="#d10b09" d="M 211.5,281.5 C 231.549,279.406 245.049,287.739 252,306.5C 252.667,338.833 252.667,371.167 252,403.5C 247.751,415.583 239.585,423.916 227.5,428.5C 227.167,428.167 226.833,427.833 226.5,427.5C 230.339,422.821 232.839,417.488 234,411.5C 234.667,381.167 234.667,350.833 234,320.5C 228.444,302.945 216.611,292.445 198.5,289C 202.602,285.954 206.935,283.454 211.5,281.5 Z"/></g>
<g><path style="opacity:1" fill="#d30b09" d="M 327.5,283.5 C 339.062,281.966 349.062,285.133 357.5,293C 341.395,298.771 331.228,309.938 327,326.5C 326.333,357.5 326.333,388.5 327,419.5C 327.876,427.465 330.709,434.631 335.5,441C 317.87,439.762 306.704,430.595 302,413.5C 301.333,379.5 301.333,345.5 302,311.5C 305.857,297.815 314.357,288.482 327.5,283.5 Z"/></g>
<g><path style="opacity:1" fill="#d30b09" d="M 442.5,283.5 C 463.292,281.641 476.792,290.641 483,310.5C 483.667,344.5 483.667,378.5 483,412.5C 478.711,426.123 469.878,434.956 456.5,439C 461.122,432.922 463.955,426.088 465,418.5C 465.667,387.833 465.667,357.167 465,326.5C 459.96,307.46 447.793,295.96 428.5,292C 432.764,288.374 437.431,285.541 442.5,283.5 Z"/></g>
<g><path style="opacity:1" fill="#d40b09" d="M 159.5,294.5 C 174.882,291.933 185.049,297.933 190,312.5C 190.667,351.5 190.667,390.5 190,429.5C 185.283,446.948 174.116,453.115 156.5,448C 148.956,444.088 144.456,437.921 143,429.5C 142.667,400.5 142.333,371.5 142,342.5C 138.171,338.337 134.837,338.671 132,343.5C 131.333,371.833 131.333,400.167 132,428.5C 132.356,432.146 133.189,435.646 134.5,439C 121.547,435.052 112.713,426.552 108,413.5C 106.365,383.548 106.032,353.548 107,323.5C 111.361,309.293 120.861,301.626 135.5,300.5C 134.492,304.194 133.325,307.861 132,311.5C 131.333,314.833 131.333,318.167 132,321.5C 135.333,325.5 138.667,325.5 142,321.5C 141.857,308.417 147.69,299.417 159.5,294.5 Z"/></g>
<g><path style="opacity:1" fill="#d40b09" d="M 392.5,296.5 C 405.93,295.457 415.096,301.124 420,313.5C 421.304,345.786 421.971,378.119 422,410.5C 425.794,414.741 429.127,414.408 432,409.5C 432.667,378.5 432.667,347.5 432,316.5C 431.089,312.099 429.589,307.932 427.5,304C 441.546,305.701 450.38,313.534 454,327.5C 454.978,359.561 454.644,391.561 453,423.5C 448.47,433.864 441.303,441.864 431.5,447.5C 431.167,447 430.833,446.5 430.5,446C 432.035,441.595 432.535,437.095 432,432.5C 429.627,429.698 426.793,429.031 423.5,430.5C 422.034,436.103 420.534,441.77 419,447.5C 414.611,457.039 407.111,462.039 396.5,462.5C 384.915,461.087 377.415,454.754 374,443.5C 373.333,400.833 373.333,358.167 374,315.5C 377.017,305.984 383.184,299.651 392.5,296.5 Z"/></g>
<g><path style="opacity:1" fill="#d40b09" d="M 197.5,300.5 C 210.37,302.204 218.87,309.204 223,321.5C 223.667,351.167 223.667,380.833 223,410.5C 218.93,421.41 211.764,429.743 201.5,435.5C 201.637,393.913 201.471,352.247 201,310.5C 199.925,307.106 198.758,303.772 197.5,300.5 Z"/></g>
<g><path style="opacity:1" fill="#d30b09" d="M 359.5,303.5 C 361.5,303.5 363.5,303.5 365.5,303.5C 365.274,307.292 364.44,310.959 363,314.5C 362.333,356.833 362.333,399.167 363,441.5C 363.1,444.903 363.934,448.07 365.5,451C 351.632,445.791 342.465,435.958 338,421.5C 337.333,390.167 337.333,358.833 338,327.5C 341.191,315.815 348.357,307.815 359.5,303.5 Z"/></g>
</svg>
