<?xml version="1.0" encoding="UTF-8"?>
<!DOCTYPE svg PUBLIC "-//W3C//DTD SVG 1.1//EN" "http://www.w3.org/Graphics/SVG/1.1/DTD/svg11.dtd">
<svg xmlns="http://www.w3.org/2000/svg" version="1.1" width="512px" height="512px" style="shape-rendering:geometricPrecision; text-rendering:geometricPrecision; image-rendering:optimizeQuality; fill-rule:evenodd; clip-rule:evenodd" xmlns:xlink="http://www.w3.org/1999/xlink">
<g><path style="opacity:0.988" fill="#252525" d="M 219.5,-0.5 C 222.167,-0.5 224.833,-0.5 227.5,-0.5C 236.816,7.14524 246.149,14.8119 255.5,22.5C 264.851,14.8119 274.184,7.14524 283.5,-0.5C 286.167,-0.5 288.833,-0.5 291.5,-0.5C 372.673,71.2263 411.173,161.56 407,270.5C 403.516,309.286 392.182,345.619 373,379.5C 355.082,408.333 337.416,437.333 320,466.5C 319.667,473.5 319.333,480.5 319,487.5C 315.651,500.015 307.818,508.015 295.5,511.5C 268.833,511.5 242.167,511.5 215.5,511.5C 203.182,508.015 195.349,500.015 192,487.5C 191.667,480.5 191.333,473.5 191,466.5C 173.584,437.333 155.918,408.333 138,379.5C 103.125,315.706 94.1253,248.373 111,177.5C 128.995,106.761 165.162,47.4273 219.5,-0.5 Z"/></g>
<g><path style="opacity:1" fill="#add171" d="M 218.5,80.5 C 214.592,86.6423 210.926,92.9756 207.5,99.5C 197.036,91.7616 186.036,84.7616 174.5,78.5C 173.417,77.635 173.251,76.635 174,75.5C 188.131,54.3633 204.797,35.3633 224,18.5C 231.116,23.9453 237.949,29.7786 244.5,36C 232.862,47.2864 223.195,59.9531 215.5,74C 215.84,76.5113 216.84,78.678 218.5,80.5 Z"/></g>
<g><path style="opacity:1" fill="#67a922" d="M 207.5,99.5 C 210.926,92.9756 214.592,86.6423 218.5,80.5C 221.913,81.9869 225.247,81.8203 228.5,80C 244.893,56.6058 264.393,36.1058 287,18.5C 306.532,35.7735 323.365,55.2735 337.5,77C 306.125,95.1934 278.791,118.36 255.5,146.5C 240.779,129.444 224.779,113.778 207.5,99.5 Z"/></g>
<g><path style="opacity:1" fill="#8bbd42" d="M 193.5,289.5 C 187.773,283.14 181.44,277.473 174.5,272.5C 175.435,269.887 175.602,267.221 175,264.5C 165.139,256.984 154.306,251.151 142.5,247C 135.606,244.693 128.606,242.86 121.5,241.5C 120.559,236.93 120.226,232.263 120.5,227.5C 123.655,178.203 138.489,132.869 165,91.5C 174.906,96.8688 184.406,102.869 193.5,109.5C 184.536,126.225 178.703,143.892 176,162.5C 180.171,168.729 184.837,169.062 190,163.5C 193.882,149.022 199.048,135.022 205.5,121.5C 206.365,120.417 207.365,120.251 208.5,121C 222.239,132.737 234.573,145.737 245.5,160C 218.068,199.133 200.735,242.299 193.5,289.5 Z"/></g>
<g><path style="opacity:1" fill="#aed271" d="M 391.5,249.5 C 386.107,250.182 380.773,251.182 375.5,252.5C 372.935,248.583 369.268,247.083 364.5,248C 359.743,250.601 358.409,254.434 360.5,259.5C 358.692,259.491 357.025,259.991 355.5,261C 351.931,262.942 348.598,265.108 345.5,267.5C 342.864,264.349 339.531,263.182 335.5,264C 298.37,289.727 277.203,325.227 272,370.5C 271.333,388.833 271.333,407.167 272,425.5C 272.863,429.518 275.363,431.518 279.5,431.5C 279.5,439.5 279.5,447.5 279.5,455.5C 255.5,455.5 231.5,455.5 207.5,455.5C 207.333,406.832 207.5,358.166 208,309.5C 209.96,280.329 216.627,252.329 228,225.5C 239.814,237.46 247.148,251.794 250,268.5C 255.766,273.013 260.433,272.013 264,265.5C 261.285,243.069 251.452,224.403 234.5,209.5C 240.906,195.676 248.573,182.676 257.5,170.5C 269.967,181.425 277.8,195.091 281,211.5C 284.958,216.436 289.291,216.769 294,212.5C 294.923,210.966 295.423,209.299 295.5,207.5C 292.369,187.226 283.036,170.56 267.5,157.5C 278.464,143.536 290.797,130.869 304.5,119.5C 311.681,133.876 317.181,148.876 321,164.5C 326.389,168.755 331.055,168.088 335,162.5C 332.297,143.892 326.464,126.225 317.5,109.5C 326.257,102.369 335.757,96.3689 346,91.5C 370.154,129.285 384.821,170.619 390,215.5C 390.693,226.828 391.193,238.161 391.5,249.5 Z"/></g>
<g><path style="opacity:1" fill="#556c33" d="M 120.5,227.5 C 120.226,232.263 120.559,236.93 121.5,241.5C 120.195,239.603 119.529,237.269 119.5,234.5C 119.503,231.975 119.837,229.641 120.5,227.5 Z"/></g>
<g><path style="opacity:1" fill="#2a2a28" d="M 375.5,252.5 C 376.175,260.66 372.508,264.16 364.5,263C 362.676,262.34 361.343,261.173 360.5,259.5C 358.409,254.434 359.743,250.601 364.5,248C 369.268,247.083 372.935,248.583 375.5,252.5 Z"/></g>
<g><path style="opacity:1" fill="#e7e1be" d="M 391.5,249.5 C 391.105,292.642 380.272,332.975 359,370.5C 342.084,398.667 324.918,426.667 307.5,454.5C 298.19,455.498 288.857,455.832 279.5,455.5C 279.5,447.5 279.5,439.5 279.5,431.5C 283.65,431.513 286.15,429.513 287,425.5C 287.333,406.833 287.667,388.167 288,369.5C 292.765,335.092 308.265,306.592 334.5,284C 338.458,281.766 341.958,278.933 345,275.5C 345.497,272.854 345.664,270.187 345.5,267.5C 348.598,265.108 351.931,262.942 355.5,261C 357.025,259.991 358.692,259.491 360.5,259.5C 361.343,261.173 362.676,262.34 364.5,263C 372.508,264.16 376.175,260.66 375.5,252.5C 380.773,251.182 386.107,250.182 391.5,249.5 Z"/></g>
<g><path style="opacity:1" fill="#e7e1be" d="M 174.5,272.5 C 181.44,277.473 187.773,283.14 193.5,289.5C 193.026,296.163 192.526,302.829 192,309.5C 191.667,351.167 191.333,392.833 191,434.5C 173.324,406.489 156.657,377.822 141,348.5C 129.045,322.104 122.211,294.437 120.5,265.5C 120.833,262.833 121.167,260.167 121.5,257.5C 136.573,260.873 150.573,266.706 163.5,275C 167.599,275.875 171.266,275.041 174.5,272.5 Z"/></g>
<g><path style="opacity:1" fill="#262626" d="M 345.5,267.5 C 345.664,270.187 345.497,272.854 345,275.5C 341.958,278.933 338.458,281.766 334.5,284C 308.265,306.592 292.765,335.092 288,369.5C 287.667,388.167 287.333,406.833 287,425.5C 286.15,429.513 283.65,431.513 279.5,431.5C 275.363,431.518 272.863,429.518 272,425.5C 271.333,407.167 271.333,388.833 272,370.5C 277.203,325.227 298.37,289.727 335.5,264C 339.531,263.182 342.864,264.349 345.5,267.5 Z"/></g>
<g><path style="opacity:1" fill="#8dbf44" d="M 236.5,311.5 C 244.658,310.823 248.158,314.49 247,322.5C 244.774,326.861 241.274,328.361 236.5,327C 232.139,324.774 230.639,321.274 232,316.5C 233.025,314.313 234.525,312.646 236.5,311.5 Z"/></g>
<g><path style="opacity:1" fill="#8cbf43" d="M 236.5,351.5 C 241.28,350.641 244.78,352.308 247,356.5C 247.667,379.5 247.667,402.5 247,425.5C 244.567,431.448 240.4,432.948 234.5,430C 233.107,428.829 232.273,427.329 232,425.5C 231.333,402.5 231.333,379.5 232,356.5C 233.025,354.313 234.525,352.646 236.5,351.5 Z"/></g>
<g><path style="opacity:1" fill="#d0c7a0" d="M 207.5,471.5 C 239.5,471.5 271.5,471.5 303.5,471.5C 305.856,482.283 302.19,490.116 292.5,495C 267.833,495.667 243.167,495.667 218.5,495C 208.81,490.116 205.144,482.283 207.5,471.5 Z"/></g>
</svg>
