<?xml version="1.0" encoding="UTF-8"?>
<!DOCTYPE svg PUBLIC "-//W3C//DTD SVG 1.1//EN" "http://www.w3.org/Graphics/SVG/1.1/DTD/svg11.dtd">
<svg xmlns="http://www.w3.org/2000/svg" version="1.1" width="512px" height="512px" style="shape-rendering:geometricPrecision; text-rendering:geometricPrecision; image-rendering:optimizeQuality; fill-rule:evenodd; clip-rule:evenodd" xmlns:xlink="http://www.w3.org/1999/xlink">
<g><path style="opacity:0.974" fill="#010000" d="M 152.5,-0.5 C 159.833,-0.5 167.167,-0.5 174.5,-0.5C 177.095,1.01439 178.429,3.34772 178.5,6.5C 178.076,10.146 176.076,12.646 172.5,14C 167.167,14.3333 161.833,14.6667 156.5,15C 155.069,15.4652 153.903,16.2986 153,17.5C 151.393,26.0638 151.06,34.7305 152,43.5C 152.833,45.6667 154.333,47.1667 156.5,48C 164.493,48.4997 172.493,48.6664 180.5,48.5C 238.168,48.6667 295.834,48.5 353.5,48C 356.232,47.6019 358.065,46.1019 359,43.5C 359.667,35.5 359.667,27.5 359,19.5C 358.065,16.8981 356.232,15.3981 353.5,15C 301.5,14.6667 249.5,14.3333 197.5,14C 194.72,12.0867 193.053,9.58675 192.5,6.5C 193.063,3.70516 194.396,1.37183 196.5,-0.5C 250.5,-0.5 304.5,-0.5 358.5,-0.5C 365.728,2.22525 370.894,7.22525 374,14.5C 375.562,24.4394 375.895,34.4394 375,44.5C 370.422,59.5458 360.256,65.8792 344.5,63.5C 344.666,72.8393 344.5,82.1726 344,91.5C 341.977,105.023 334.144,112.023 320.5,112.5C 321.601,166.379 330.101,219.046 346,270.5C 355.221,292.276 363.888,314.276 372,336.5C 381.194,370.029 380.528,403.362 370,436.5C 367.477,439.288 364.31,440.621 360.5,440.5C 359.207,438.704 357.707,437.037 356,435.5C 355.833,434.333 355.667,433.167 355.5,432C 366.648,398.324 366.148,364.824 354,331.5C 341.708,304.58 331.375,276.913 323,248.5C 321.842,243.882 321.008,239.216 320.5,234.5C 304.054,235.472 289.054,231.306 275.5,222C 267.747,213.626 258.747,206.96 248.5,202C 241.45,199.079 234.117,197.912 226.5,198.5C 217.068,197.878 207.901,198.544 199,200.5C 194.865,226.509 188.199,251.843 179,276.5C 169.778,298.946 161.111,321.612 153,344.5C 139.344,402.398 153.844,451.898 196.5,493C 198.5,494 200.5,495 202.5,496C 209.492,496.5 216.492,496.666 223.5,496.5C 251.502,496.667 279.502,496.5 307.5,496C 315.886,490.621 323.386,484.121 330,476.5C 335.623,468.754 341.123,460.921 346.5,453C 349.482,452.502 352.482,452.335 355.5,452.5C 358.143,455.34 358.976,458.673 358,462.5C 348.994,478.67 337.494,492.837 323.5,505C 319.353,507.74 315.02,509.907 310.5,511.5C 273.5,511.5 236.5,511.5 199.5,511.5C 194.98,509.907 190.647,507.74 186.5,505C 139.255,459.914 123.088,405.414 138,341.5C 150.193,308.588 162.193,275.588 174,242.5C 182.092,214.041 187.092,185.041 189,155.5C 190.41,152.211 192.91,150.544 196.5,150.5C 199.042,151.039 201.208,152.372 203,154.5C 203.541,162.182 203.374,169.848 202.5,177.5C 201.539,179.265 201.205,181.265 201.5,183.5C 211.833,183.5 222.167,183.5 232.5,183.5C 247.506,184.509 260.84,189.676 272.5,199C 284.011,212.589 298.677,219.422 316.5,219.5C 309.978,184.137 306.312,148.471 305.5,112.5C 281.167,112.5 256.833,112.5 232.5,112.5C 223.167,112.5 213.833,112.5 204.5,112.5C 204.666,118.842 204.5,125.175 204,131.5C 203.626,132.416 203.126,133.25 202.5,134C 200.389,134.845 198.389,135.678 196.5,136.5C 193.805,136.067 191.638,134.734 190,132.5C 189.5,125.842 189.334,119.175 189.5,112.5C 176.383,111.55 168.883,104.55 167,91.5C 166.5,82.1726 166.334,72.8393 166.5,63.5C 150.744,65.8792 140.578,59.5458 136,44.5C 135.105,34.4394 135.438,24.4394 137,14.5C 140.106,7.22525 145.272,2.22525 152.5,-0.5 Z"/></g>
<g><path style="opacity:1" fill="#e5377e" d="M 178.5,6.5 C 182.833,6.5 187.167,6.5 191.5,6.5C 185.936,8.89468 181.769,12.8947 179,18.5C 177.971,28.6306 178.471,38.6306 180.5,48.5C 172.493,48.6664 164.493,48.4997 156.5,48C 154.333,47.1667 152.833,45.6667 152,43.5C 151.06,34.7305 151.393,26.0638 153,17.5C 153.903,16.2986 155.069,15.4652 156.5,15C 161.833,14.6667 167.167,14.3333 172.5,14C 176.076,12.646 178.076,10.146 178.5,6.5 Z"/></g>
<g><path style="opacity:1" fill="#ea5692" d="M 191.5,6.5 C 191.833,6.5 192.167,6.5 192.5,6.5C 193.053,9.58675 194.72,12.0867 197.5,14C 249.5,14.3333 301.5,14.6667 353.5,15C 356.232,15.3981 358.065,16.8981 359,19.5C 359.667,27.5 359.667,35.5 359,43.5C 358.065,46.1019 356.232,47.6019 353.5,48C 295.834,48.5 238.168,48.6667 180.5,48.5C 178.471,38.6306 177.971,28.6306 179,18.5C 181.769,12.8947 185.936,8.89468 191.5,6.5 Z"/></g>
<g><path style="opacity:1" fill="#e10a61" d="M 209.5,63.5 C 209.334,72.8393 209.5,82.1726 210,91.5C 210.573,93.6406 211.406,95.6406 212.5,97.5C 204.16,97.6664 195.827,97.4997 187.5,97C 186.069,96.5348 184.903,95.7014 184,94.5C 182.549,84.271 182.049,73.9377 182.5,63.5C 191.5,63.5 200.5,63.5 209.5,63.5 Z"/></g>
<g><path style="opacity:1" fill="#e6377e" d="M 209.5,63.5 C 249.167,63.5 288.833,63.5 328.5,63.5C 328.666,73.1724 328.5,82.8391 328,92.5C 326.891,94.8147 325.057,96.3147 322.5,97C 285.835,97.5 249.168,97.6667 212.5,97.5C 211.406,95.6406 210.573,93.6406 210,91.5C 209.5,82.1726 209.334,72.8393 209.5,63.5 Z"/></g>
<g><path style="opacity:1" fill="#d7e7fd" d="M 232.5,112.5 C 232.937,135.903 231.937,159.237 229.5,182.5C 220.5,182.5 211.5,182.5 202.5,182.5C 202.5,180.833 202.5,179.167 202.5,177.5C 203.374,169.848 203.541,162.182 203,154.5C 201.208,152.372 199.042,151.039 196.5,150.5C 196.5,145.833 196.5,141.167 196.5,136.5C 198.389,135.678 200.389,134.845 202.5,134C 203.126,133.25 203.626,132.416 204,131.5C 204.5,125.175 204.666,118.842 204.5,112.5C 213.833,112.5 223.167,112.5 232.5,112.5 Z"/></g>
<g><path style="opacity:1" fill="#e4effd" d="M 232.5,112.5 C 256.833,112.5 281.167,112.5 305.5,112.5C 306.312,148.471 309.978,184.137 316.5,219.5C 298.677,219.422 284.011,212.589 272.5,199C 260.84,189.676 247.506,184.509 232.5,183.5C 231.791,182.596 230.791,182.263 229.5,182.5C 231.937,159.237 232.937,135.903 232.5,112.5 Z"/></g>
<g><path style="opacity:1" fill="#727a85" d="M 202.5,177.5 C 202.5,179.167 202.5,180.833 202.5,182.5C 211.5,182.5 220.5,182.5 229.5,182.5C 230.791,182.263 231.791,182.596 232.5,183.5C 222.167,183.5 211.833,183.5 201.5,183.5C 201.205,181.265 201.539,179.265 202.5,177.5 Z"/></g>
<g><path style="opacity:1" fill="#ac573d" d="M 226.5,198.5 C 224.097,217.546 219.931,236.213 214,254.5C 203.197,283.911 192.197,313.244 181,342.5C 166.843,401.836 181.009,453.169 223.5,496.5C 216.492,496.666 209.492,496.5 202.5,496C 200.5,495 198.5,494 196.5,493C 153.844,451.898 139.344,402.398 153,344.5C 161.111,321.612 169.778,298.946 179,276.5C 188.199,251.843 194.865,226.509 199,200.5C 207.901,198.544 217.068,197.878 226.5,198.5 Z"/></g>
<g><path style="opacity:1" fill="#bf684d" d="M 226.5,198.5 C 234.117,197.912 241.45,199.079 248.5,202C 258.747,206.96 267.747,213.626 275.5,222C 289.054,231.306 304.054,235.472 320.5,234.5C 321.008,239.216 321.842,243.882 323,248.5C 331.375,276.913 341.708,304.58 354,331.5C 366.148,364.824 366.648,398.324 355.5,432C 355.667,433.167 355.833,434.333 356,435.5C 357.707,437.037 359.207,438.704 360.5,440.5C 358.835,444.495 357.168,448.495 355.5,452.5C 352.482,452.335 349.482,452.502 346.5,453C 341.123,460.921 335.623,468.754 330,476.5C 323.386,484.121 315.886,490.621 307.5,496C 279.502,496.5 251.502,496.667 223.5,496.5C 181.009,453.169 166.843,401.836 181,342.5C 192.197,313.244 203.197,283.911 214,254.5C 219.931,236.213 224.097,217.546 226.5,198.5 Z"/></g>
</svg>
