<?xml version="1.0" encoding="UTF-8"?>
<!DOCTYPE svg PUBLIC "-//W3C//DTD SVG 1.1//EN" "http://www.w3.org/Graphics/SVG/1.1/DTD/svg11.dtd">
<svg xmlns="http://www.w3.org/2000/svg" version="1.1" width="512px" height="512px" style="shape-rendering:geometricPrecision; text-rendering:geometricPrecision; image-rendering:optimizeQuality; fill-rule:evenodd; clip-rule:evenodd" xmlns:xlink="http://www.w3.org/1999/xlink">
<g><path style="opacity:0.962" fill="#010100" d="M 436.5,-0.5 C 455.5,-0.5 474.5,-0.5 493.5,-0.5C 496.626,2.26225 497.96,5.76225 497.5,10C 495.578,46.1273 482.911,77.794 459.5,105C 467.767,120.807 472.601,137.64 474,155.5C 476.155,197.241 470.488,237.908 457,277.5C 437.719,337.407 409.052,392.074 371,441.5C 339.248,480.791 298.415,504.124 248.5,511.5C 236.167,511.5 223.833,511.5 211.5,511.5C 144.421,500.922 91.2544,467.922 52,412.5C 22.5382,370.773 10.2048,324.44 15,273.5C 21.8019,228.388 42.3019,190.888 76.5,161C 153.675,97.6985 242.175,60.8652 342,50.5C 347.161,50.8291 350.327,53.4958 351.5,58.5C 350.59,61.7926 348.59,64.2926 345.5,66C 309.822,68.0022 275.155,75.0022 241.5,87C 182.996,106.903 130.329,136.569 83.5,176C 26.2627,232.903 14.096,298.403 47,372.5C 76.1347,430.632 121.635,469.798 183.5,490C 248.008,506.176 303.175,490.342 349,442.5C 398.29,383.257 432.29,315.923 451,240.5C 458.719,208.826 460.719,176.826 457,144.5C 447.468,97.3088 418.635,71.4755 370.5,67C 367.679,64.8587 366.346,62.0254 366.5,58.5C 366.393,56.0968 367.393,54.2635 369.5,53C 388.721,52.7634 406.555,57.5967 423,67.5C 426.564,59.9182 428.898,51.9182 430,43.5C 431.815,30.5658 432.815,17.5658 433,4.5C 433.997,2.67694 435.164,1.01027 436.5,-0.5 Z"/></g>
<g><path style="opacity:1" fill="#89511e" d="M 480.5,20.5 C 480.5,18.8333 480.5,17.1667 480.5,15.5C 474.5,15.5 468.5,15.5 462.5,15.5C 461.027,39.7257 455.027,62.7257 444.5,84.5C 441.91,82.043 439.576,79.3763 437.5,76.5C 444.324,56.3959 447.991,35.7293 448.5,14.5C 459.5,14.5 470.5,14.5 481.5,14.5C 481.795,16.7354 481.461,18.7354 480.5,20.5 Z"/></g>
<g><path style="opacity:1" fill="#aa6f35" d="M 480.5,20.5 C 477.55,46.529 467.883,69.6957 451.5,90C 448.536,89.2281 446.202,87.3948 444.5,84.5C 455.027,62.7257 461.027,39.7257 462.5,15.5C 468.5,15.5 474.5,15.5 480.5,15.5C 480.5,17.1667 480.5,18.8333 480.5,20.5 Z"/></g>
<g><path style="opacity:1" fill="#6fd55a" d="M 351.5,58.5 C 356.5,58.5 361.5,58.5 366.5,58.5C 366.346,62.0254 367.679,64.8587 370.5,67C 418.635,71.4755 447.468,97.3088 457,144.5C 460.719,176.826 458.719,208.826 451,240.5C 432.29,315.923 398.29,383.257 349,442.5C 303.175,490.342 248.008,506.176 183.5,490C 121.635,469.798 76.1347,430.632 47,372.5C 14.096,298.403 26.2627,232.903 83.5,176C 130.329,136.569 182.996,106.903 241.5,87C 275.155,75.0022 309.822,68.0022 345.5,66C 348.59,64.2926 350.59,61.7926 351.5,58.5 Z"/></g>
<g><path style="opacity:1" fill="#020201" d="M 193.5,406.5 C 195.015,403.647 197.348,401.981 200.5,401.5C 215.581,405 230.581,405.333 245.5,402.5C 289.777,392.93 317.944,366.263 330,322.5C 338.569,271.147 320.735,231.98 276.5,205C 266.029,199.8 255.029,196.3 243.5,194.5C 195.682,188.993 159.182,206.66 134,247.5C 119.578,276.286 117.578,305.953 128,336.5C 137.935,360.375 153.935,379.042 176,392.5C 177.813,395.078 177.98,397.745 176.5,400.5C 173.408,403.355 169.741,404.188 165.5,403C 119.328,372.556 100.161,329.722 108,274.5C 120.957,223.877 152.79,192.377 203.5,180C 253.303,172.482 293.803,188.316 325,227.5C 348.844,262.912 353.844,300.912 340,341.5C 319.056,390.154 282.056,416.154 229,419.5C 218.352,419.451 207.852,418.284 197.5,416C 194.038,413.761 192.705,410.594 193.5,406.5 Z"/></g>
<g><path style="opacity:1" fill="#8b521e" d="M 243.5,194.5 C 196.372,218.055 173.872,256.388 176,309.5C 181.753,353.732 204.919,384.732 245.5,402.5C 230.581,405.333 215.581,405 200.5,401.5C 197.348,401.981 195.015,403.647 193.5,406.5C 187.543,405.292 181.876,403.292 176.5,400.5C 177.98,397.745 177.813,395.078 176,392.5C 153.935,379.042 137.935,360.375 128,336.5C 117.578,305.953 119.578,276.286 134,247.5C 159.182,206.66 195.682,188.993 243.5,194.5 Z"/></g>
<g><path style="opacity:1" fill="#ac7035" d="M 243.5,194.5 C 255.029,196.3 266.029,199.8 276.5,205C 320.735,231.98 338.569,271.147 330,322.5C 317.944,366.263 289.777,392.93 245.5,402.5C 204.919,384.732 181.753,353.732 176,309.5C 173.872,256.388 196.372,218.055 243.5,194.5 Z"/></g>
<g><path style="opacity:1" fill="#080402" d="M 301.5,262.5 C 309.161,261.663 312.661,264.996 312,272.5C 308.455,278.209 304.121,278.875 299,274.5C 296.511,269.757 297.345,265.757 301.5,262.5 Z"/></g>
<g><path style="opacity:1" fill="#080402" d="M 282.5,280.5 C 289.368,280.53 292.535,283.864 292,290.5C 289.928,295.143 286.428,296.643 281.5,295C 277.876,292.839 276.709,289.672 278,285.5C 279.025,283.313 280.525,281.646 282.5,280.5 Z"/></g>
<g><path style="opacity:1" fill="#0a0602" d="M 307.5,286.5 C 316.33,285.162 319.83,288.829 318,297.5C 312.885,303.075 308.219,302.742 304,296.5C 303.182,292.469 304.349,289.136 307.5,286.5 Z"/></g>
</svg>
