<?xml version="1.0" encoding="UTF-8"?>
<!DOCTYPE svg PUBLIC "-//W3C//DTD SVG 1.1//EN" "http://www.w3.org/Graphics/SVG/1.1/DTD/svg11.dtd">
<svg xmlns="http://www.w3.org/2000/svg" version="1.1" width="512px" height="512px" style="shape-rendering:geometricPrecision; text-rendering:geometricPrecision; image-rendering:optimizeQuality; fill-rule:evenodd; clip-rule:evenodd" xmlns:xlink="http://www.w3.org/1999/xlink">
<g><path style="opacity:0.979" fill="#010101" d="M 199.5,-0.5 C 236.833,-0.5 274.167,-0.5 311.5,-0.5C 311.5,18.1667 311.5,36.8333 311.5,55.5C 306.489,55.3341 301.489,55.5007 296.5,56C 320.383,86.2147 343.883,116.715 367,147.5C 367.667,174.833 367.667,202.167 367,229.5C 365.234,239.201 360.734,247.368 353.5,254C 368.876,268.244 371.709,284.744 362,303.5C 359.825,306.376 357.325,308.876 354.5,311C 368.445,324.368 371.278,339.868 363,357.5C 360.203,361.299 357.036,364.799 353.5,368C 361.02,374.872 365.52,383.372 367,393.5C 367.667,418.833 367.667,444.167 367,469.5C 364.036,487.282 353.87,498.448 336.5,503C 320.167,503.333 303.833,503.667 287.5,504C 282.687,507.073 277.687,509.573 272.5,511.5C 261.5,511.5 250.5,511.5 239.5,511.5C 234.152,509.872 229.152,507.372 224.5,504C 207.833,503.667 191.167,503.333 174.5,503C 158.333,498.833 148.167,488.667 144,472.5C 143.333,445.167 143.333,417.833 144,390.5C 146.317,381.7 150.817,374.2 157.5,368C 141.453,352.608 139.286,335.442 151,316.5C 152.833,314.667 154.667,312.833 156.5,311C 141.796,296.22 139.629,279.72 150,261.5C 152.5,259 155,256.5 157.5,254C 150.817,247.8 146.317,240.3 144,231.5C 143.333,203.167 143.333,174.833 144,146.5C 167.5,116.333 191,86.1667 214.5,56C 209.511,55.5007 204.511,55.3341 199.5,55.5C 199.5,36.8333 199.5,18.1667 199.5,-0.5 Z"/></g>
<g><path style="opacity:1" fill="#d70026" d="M 223.5,14.5 C 223.5,19.8333 223.5,25.1667 223.5,30.5C 247.5,30.5 271.5,30.5 295.5,30.5C 295.5,33.5 295.5,36.5 295.5,39.5C 268.5,39.5 241.5,39.5 214.5,39.5C 214.5,31.1667 214.5,22.8333 214.5,14.5C 217.5,14.5 220.5,14.5 223.5,14.5 Z"/></g>
<g><path style="opacity:1" fill="#fe6142" d="M 223.5,14.5 C 247.5,14.5 271.5,14.5 295.5,14.5C 295.5,19.8333 295.5,25.1667 295.5,30.5C 271.5,30.5 247.5,30.5 223.5,30.5C 223.5,25.1667 223.5,19.8333 223.5,14.5 Z"/></g>
<g><path style="opacity:1" fill="#89dcfc" d="M 281.5,62.5 C 267.829,62.3334 254.163,62.5001 240.5,63C 231.795,73.5928 223.461,84.4262 215.5,95.5C 211.122,100.545 207.122,105.878 203.5,111.5C 202.167,111.5 200.833,111.5 199.5,111.5C 199.5,113.167 199.5,114.833 199.5,116.5C 194.697,122.146 190.031,127.979 185.5,134C 236.002,134.832 286.335,134.665 336.5,133.5C 339.185,136.19 341.518,139.19 343.5,142.5C 285.002,143.499 226.336,143.832 167.5,143.5C 189.795,113.76 212.461,84.2596 235.5,55C 249.167,54.3333 262.833,54.3333 276.5,55C 278.415,57.3996 280.081,59.8996 281.5,62.5 Z"/></g>
<g><path style="opacity:1" fill="#b9effe" d="M 281.5,62.5 C 300.185,85.8568 318.518,109.523 336.5,133.5C 286.335,134.665 236.002,134.832 185.5,134C 190.031,127.979 194.697,122.146 199.5,116.5C 199.5,119.833 199.5,123.167 199.5,126.5C 204.833,126.5 210.167,126.5 215.5,126.5C 215.5,121.5 215.5,116.5 215.5,111.5C 211.5,111.5 207.5,111.5 203.5,111.5C 207.122,105.878 211.122,100.545 215.5,95.5C 223.461,84.4262 231.795,73.5928 240.5,63C 254.163,62.5001 267.829,62.3334 281.5,62.5 Z"/></g>
<g><path style="opacity:1" fill="#fdfeff" d="M 215.5,95.5 C 220.833,95.5 226.167,95.5 231.5,95.5C 231.5,100.5 231.5,105.5 231.5,110.5C 226.167,110.5 220.833,110.5 215.5,110.5C 215.5,105.5 215.5,100.5 215.5,95.5 Z"/></g>
<g><path style="opacity:1" fill="#fdfeff" d="M 203.5,111.5 C 207.5,111.5 211.5,111.5 215.5,111.5C 215.5,116.5 215.5,121.5 215.5,126.5C 210.167,126.5 204.833,126.5 199.5,126.5C 199.5,123.167 199.5,119.833 199.5,116.5C 199.5,114.833 199.5,113.167 199.5,111.5C 200.833,111.5 202.167,111.5 203.5,111.5 Z"/></g>
<g><path style="opacity:1" fill="#253b44" d="M 343.5,142.5 C 344.043,142.56 344.376,142.893 344.5,143.5C 285.335,144.831 226.335,144.831 167.5,143.5C 226.336,143.832 285.002,143.499 343.5,142.5 Z"/></g>
<g><path style="opacity:1" fill="#32aee0" d="M 158.5,159.5 C 162.833,159.5 167.167,159.5 171.5,159.5C 171.333,182.836 171.5,206.169 172,229.5C 173.587,236.512 177.087,242.345 182.5,247C 209.498,247.5 236.498,247.667 263.5,247.5C 263.5,247.833 263.5,248.167 263.5,248.5C 235.498,248.667 207.498,248.5 179.5,248C 169.098,245.265 162.264,238.765 159,228.5C 158.5,205.502 158.333,182.502 158.5,159.5 Z"/></g>
<g><path style="opacity:1" fill="#89ddfe" d="M 171.5,159.5 C 231.5,159.5 291.5,159.5 351.5,159.5C 351.5,181.5 351.5,203.5 351.5,225.5C 349.939,238.06 342.939,245.393 330.5,247.5C 324.167,247.5 317.833,247.5 311.5,247.5C 311.5,250.167 311.5,252.833 311.5,255.5C 306.5,255.5 301.5,255.5 296.5,255.5C 296.802,258.059 296.468,260.393 295.5,262.5C 295.5,257.5 295.5,252.5 295.5,247.5C 290.167,247.5 284.833,247.5 279.5,247.5C 279.5,250.167 279.5,252.833 279.5,255.5C 274.5,255.5 269.5,255.5 264.5,255.5C 264.806,252.615 264.473,249.948 263.5,247.5C 236.498,247.667 209.498,247.5 182.5,247C 177.087,242.345 173.587,236.512 172,229.5C 171.5,206.169 171.333,182.836 171.5,159.5 Z"/></g>
<g><path style="opacity:1" fill="#497789" d="M 158.5,159.5 C 222.998,158.501 287.665,158.168 352.5,158.5C 352.831,181.006 352.497,203.34 351.5,225.5C 351.5,203.5 351.5,181.5 351.5,159.5C 291.5,159.5 231.5,159.5 171.5,159.5C 167.167,159.5 162.833,159.5 158.5,159.5 Z"/></g>
<g><path style="opacity:1" fill="#fcfefe" d="M 295.5,262.5 C 290.167,262.5 284.833,262.5 279.5,262.5C 279.5,260.167 279.5,257.833 279.5,255.5C 279.5,252.833 279.5,250.167 279.5,247.5C 284.833,247.5 290.167,247.5 295.5,247.5C 295.5,252.5 295.5,257.5 295.5,262.5 Z"/></g>
<g><path style="opacity:1" fill="#2fb5ea" d="M 263.5,247.5 C 264.473,249.948 264.806,252.615 264.5,255.5C 269.5,255.5 274.5,255.5 279.5,255.5C 279.5,257.833 279.5,260.167 279.5,262.5C 284.833,262.5 290.167,262.5 295.5,262.5C 296.468,260.393 296.802,258.059 296.5,255.5C 301.5,255.5 306.5,255.5 311.5,255.5C 311.5,258.167 311.5,260.833 311.5,263.5C 319.167,263.5 326.833,263.5 334.5,263.5C 349.363,267.216 354.863,276.55 351,291.5C 348.005,298.331 342.838,302.331 335.5,303.5C 327.5,303.5 319.5,303.5 311.5,303.5C 311.5,306.167 311.5,308.833 311.5,311.5C 306.5,311.5 301.5,311.5 296.5,311.5C 296.806,308.615 296.473,305.948 295.5,303.5C 290.5,303.5 285.5,303.5 280.5,303.5C 279.527,305.948 279.194,308.615 279.5,311.5C 274.5,311.5 269.5,311.5 264.5,311.5C 264.806,314.385 264.473,317.052 263.5,319.5C 263.5,314.5 263.5,309.5 263.5,304.5C 235.67,303.668 207.67,303.168 179.5,303C 168.875,289.931 168.875,276.931 179.5,264C 207.67,263.832 235.67,263.332 263.5,262.5C 263.5,257.833 263.5,253.167 263.5,248.5C 263.5,248.167 263.5,247.833 263.5,247.5 Z"/></g>
<g><path style="opacity:1" fill="#25576c" d="M 330.5,247.5 C 324.69,248.49 318.69,248.823 312.5,248.5C 312.5,253.167 312.5,257.833 312.5,262.5C 320.019,262.175 327.352,262.508 334.5,263.5C 326.833,263.5 319.167,263.5 311.5,263.5C 311.5,260.833 311.5,258.167 311.5,255.5C 311.5,252.833 311.5,250.167 311.5,247.5C 317.833,247.5 324.167,247.5 330.5,247.5 Z"/></g>
<g><path style="opacity:1" fill="#0c87b0" d="M 263.5,262.5 C 235.67,263.332 207.67,263.832 179.5,264C 168.875,276.931 168.875,289.931 179.5,303C 207.67,303.168 235.67,303.668 263.5,304.5C 234.165,304.667 204.831,304.5 175.5,304C 160.317,298.123 155.817,287.623 162,272.5C 165.531,267.295 170.364,264.129 176.5,263C 205.498,262.5 234.498,262.333 263.5,262.5 Z"/></g>
<g><path style="opacity:1" fill="#89ddfe" d="M 280.5,303.5 C 280.5,308.5 280.5,313.5 280.5,318.5C 285.5,318.5 290.5,318.5 295.5,318.5C 295.5,313.5 295.5,308.5 295.5,303.5C 296.473,305.948 296.806,308.615 296.5,311.5C 301.5,311.5 306.5,311.5 311.5,311.5C 311.5,314.167 311.5,316.833 311.5,319.5C 318.833,319.5 326.167,319.5 333.5,319.5C 345.277,320.945 351.61,327.611 352.5,339.5C 351.761,350.407 346.094,357.24 335.5,360C 327.841,360.5 320.174,360.666 312.5,360.5C 311.532,362.607 311.198,364.941 311.5,367.5C 306.5,367.5 301.5,367.5 296.5,367.5C 296.802,370.059 296.468,372.393 295.5,374.5C 295.5,369.5 295.5,364.5 295.5,359.5C 290.167,359.5 284.833,359.5 279.5,359.5C 279.5,362.167 279.5,364.833 279.5,367.5C 274.5,367.5 269.5,367.5 264.5,367.5C 264.802,364.941 264.468,362.607 263.5,360.5C 235.67,359.668 207.67,359.168 179.5,359C 168.916,345.735 168.916,332.569 179.5,319.5C 207.5,319.5 235.5,319.5 263.5,319.5C 264.473,317.052 264.806,314.385 264.5,311.5C 269.5,311.5 274.5,311.5 279.5,311.5C 279.194,308.615 279.527,305.948 280.5,303.5 Z"/></g>
<g><path style="opacity:1" fill="#fdfefe" d="M 280.5,303.5 C 285.5,303.5 290.5,303.5 295.5,303.5C 295.5,308.5 295.5,313.5 295.5,318.5C 290.5,318.5 285.5,318.5 280.5,318.5C 280.5,313.5 280.5,308.5 280.5,303.5 Z"/></g>
<g><path style="opacity:1" fill="#305c6f" d="M 335.5,303.5 C 328.018,304.492 320.352,304.825 312.5,304.5C 312.5,309.167 312.5,313.833 312.5,318.5C 319.687,318.175 326.687,318.509 333.5,319.5C 326.167,319.5 318.833,319.5 311.5,319.5C 311.5,316.833 311.5,314.167 311.5,311.5C 311.5,308.833 311.5,306.167 311.5,303.5C 319.5,303.5 327.5,303.5 335.5,303.5 Z"/></g>
<g><path style="opacity:1" fill="#3bb0e0" d="M 179.5,319.5 C 168.916,332.569 168.916,345.735 179.5,359C 207.67,359.168 235.67,359.668 263.5,360.5C 233.104,360.977 202.77,360.477 172.5,359C 161.266,353.679 157.1,344.845 160,332.5C 163.814,324.017 170.314,319.684 179.5,319.5 Z"/></g>
<g><path style="opacity:1" fill="#fafdfe" d="M 295.5,374.5 C 290.167,374.5 284.833,374.5 279.5,374.5C 279.5,372.167 279.5,369.833 279.5,367.5C 279.5,364.833 279.5,362.167 279.5,359.5C 284.833,359.5 290.167,359.5 295.5,359.5C 295.5,364.5 295.5,369.5 295.5,374.5 Z"/></g>
<g><path style="opacity:1" fill="#2eb5ea" d="M 263.5,360.5 C 264.468,362.607 264.802,364.941 264.5,367.5C 269.5,367.5 274.5,367.5 279.5,367.5C 279.5,369.833 279.5,372.167 279.5,374.5C 284.833,374.5 290.167,374.5 295.5,374.5C 296.468,372.393 296.802,370.059 296.5,367.5C 301.5,367.5 306.5,367.5 311.5,367.5C 311.5,370.167 311.5,372.833 311.5,375.5C 317.833,375.5 324.167,375.5 330.5,375.5C 340.36,376.85 347.193,382.183 351,391.5C 351.965,418.882 351.632,446.216 350,473.5C 346.384,480.448 340.884,485.282 333.5,488C 322.167,488.667 310.833,488.667 299.5,488C 301.694,482.723 303.027,477.223 303.5,471.5C 298.5,471.5 293.5,471.5 288.5,471.5C 285.298,490.175 274.131,498.508 255,496.5C 236.275,498.256 225.775,489.923 223.5,471.5C 218.5,471.5 213.5,471.5 208.5,471.5C 208.858,477.29 209.858,482.956 211.5,488.5C 202.167,488.5 192.833,488.5 183.5,488.5C 177.367,483.244 173.534,476.578 172,468.5C 171.333,443.167 171.333,417.833 172,392.5C 174.127,386.218 177.294,380.551 181.5,375.5C 208.833,375.5 236.167,375.5 263.5,375.5C 263.5,370.5 263.5,365.5 263.5,360.5 Z"/></g>
<g><path style="opacity:1" fill="#123846" d="M 312.5,360.5 C 312.5,365.167 312.5,369.833 312.5,374.5C 318.69,374.177 324.69,374.51 330.5,375.5C 324.167,375.5 317.833,375.5 311.5,375.5C 311.5,372.833 311.5,370.167 311.5,367.5C 311.198,364.941 311.532,362.607 312.5,360.5 Z"/></g>
<g><path style="opacity:1" fill="#0095c3" d="M 181.5,375.5 C 177.294,380.551 174.127,386.218 172,392.5C 171.333,417.833 171.333,443.167 172,468.5C 173.534,476.578 177.367,483.244 183.5,488.5C 171.059,487.238 162.892,480.572 159,468.5C 158.333,443.5 158.333,418.5 159,393.5C 162.838,382.82 170.338,376.82 181.5,375.5 Z"/></g>
</svg>
