<?xml version="1.0" encoding="UTF-8"?>
<!DOCTYPE svg PUBLIC "-//W3C//DTD SVG 1.1//EN" "http://www.w3.org/Graphics/SVG/1.1/DTD/svg11.dtd">
<svg xmlns="http://www.w3.org/2000/svg" version="1.1" width="512px" height="512px" style="shape-rendering:geometricPrecision; text-rendering:geometricPrecision; image-rendering:optimizeQuality; fill-rule:evenodd; clip-rule:evenodd" xmlns:xlink="http://www.w3.org/1999/xlink">
<g><path style="opacity:0.97" fill="#000000" d="M 213.5,-0.5 C 217.5,-0.5 221.5,-0.5 225.5,-0.5C 229.428,1.59151 232.594,4.59151 235,8.5C 242.088,21.0073 248.921,33.6739 255.5,46.5C 262.079,33.6739 268.912,21.0073 276,8.5C 278.406,4.59151 281.572,1.59151 285.5,-0.5C 289.5,-0.5 293.5,-0.5 297.5,-0.5C 311.573,8.38194 325.573,17.5486 339.5,27C 345.339,32.8745 346.839,39.7078 344,47.5C 338,56.1667 332,64.8333 326,73.5C 324.699,75.4021 324.032,77.4021 324,79.5C 336.283,72.4418 349.116,66.6085 362.5,62C 372.271,59.1453 379.771,61.9787 385,70.5C 390.346,87.7037 395.18,105.037 399.5,122.5C 399.628,128.534 397.294,133.368 392.5,137C 367.818,149.348 346.318,165.848 328,186.5C 311.337,206.469 301.671,229.469 299,255.5C 296.563,289.517 298.896,323.184 306,356.5C 311.077,374.397 315.744,392.397 320,410.5C 321.951,421.605 323.451,432.772 324.5,444C 323.152,465.854 311.819,479.354 290.5,484.5C 293,489.5 295.5,494.5 298,499.5C 299.255,504.262 298.088,508.262 294.5,511.5C 291.5,511.5 288.5,511.5 285.5,511.5C 284.312,510.636 283.145,509.636 282,508.5C 278.5,501.5 275,494.5 271.5,487.5C 269.257,486.526 266.924,486.192 264.5,486.5C 264.666,493.175 264.5,499.842 264,506.5C 262.975,508.687 261.475,510.354 259.5,511.5C 256.833,511.5 254.167,511.5 251.5,511.5C 249.525,510.354 248.025,508.687 247,506.5C 246.5,499.842 246.334,493.175 246.5,486.5C 244.076,486.192 241.743,486.526 239.5,487.5C 236,494.5 232.5,501.5 229,508.5C 227.855,509.636 226.688,510.636 225.5,511.5C 222.5,511.5 219.5,511.5 216.5,511.5C 212.912,508.262 211.745,504.262 213,499.5C 215.5,494.5 218,489.5 220.5,484.5C 199.181,479.354 187.848,465.854 186.5,444C 187.549,432.772 189.049,421.605 191,410.5C 195.256,392.397 199.923,374.397 205,356.5C 213.335,316.721 214.669,276.721 209,236.5C 201.562,211.45 188.395,189.95 169.5,172C 154.064,158.11 137.064,146.444 118.5,137C 113.706,133.368 111.372,128.534 111.5,122.5C 115.82,105.037 120.654,87.7037 126,70.5C 131.373,61.9621 138.873,59.1288 148.5,62C 161.796,66.4813 174.462,72.3147 186.5,79.5C 186.833,79.1667 187.167,78.8333 187.5,78.5C 181.163,67.8236 174.33,57.4903 167,47.5C 164.473,39.7772 165.973,32.9439 171.5,27C 185.427,17.5486 199.427,8.38194 213.5,-0.5 Z"/></g>
<g><path style="opacity:1" fill="#8ea900" d="M 217.5,100.5 C 222.053,90.867 226.053,80.867 229.5,70.5C 223.473,55.447 216.64,40.7803 209,26.5C 208.329,25.7476 207.496,25.4142 206.5,25.5C 210.485,22.3632 214.652,19.3632 219,16.5C 229.611,33.8893 238.778,52.056 246.5,71C 240.35,85.1143 235.183,99.6143 231,114.5C 226.242,109.911 221.742,105.245 217.5,100.5 Z"/></g>
<g><path style="opacity:1" fill="#529113" d="M 247.5,133.5 C 255.802,124.366 264.635,115.699 274,107.5C 282.671,84.479 294.671,63.479 310,44.5C 310.667,41.8333 310.667,39.1667 310,36.5C 303.499,30.6754 296.332,26.0087 288.5,22.5C 289.403,20.3635 290.569,18.3635 292,16.5C 303.97,24.3043 315.803,32.3043 327.5,40.5C 312.586,59.6516 300.752,80.6516 292,103.5C 278.195,114.981 266.362,128.148 256.5,143C 255.551,143.617 254.718,143.451 254,142.5C 252.314,139.117 250.147,136.117 247.5,133.5 Z"/></g>
<g><path style="opacity:1" fill="#5fa716" d="M 288.5,22.5 C 296.332,26.0087 303.499,30.6754 310,36.5C 310.667,39.1667 310.667,41.8333 310,44.5C 294.671,63.479 282.671,84.479 274,107.5C 264.635,115.699 255.802,124.366 247.5,133.5C 245.568,130.823 245.068,127.823 246,124.5C 255.596,88.5311 269.763,54.5311 288.5,22.5 Z"/></g>
<g><path style="opacity:1" fill="#a2c100" d="M 206.5,25.5 C 207.496,25.4142 208.329,25.7476 209,26.5C 216.64,40.7803 223.473,55.447 229.5,70.5C 226.053,80.867 222.053,90.867 217.5,100.5C 209.056,78.7573 197.723,58.7573 183.5,40.5C 190.932,35.0542 198.599,30.0542 206.5,25.5 Z"/></g>
<g><path style="opacity:1" fill="#529213" d="M 264.5,255.5 C 266.516,228.478 276.016,204.478 293,183.5C 312.554,160.271 335.887,141.937 363,128.5C 364.483,125.298 364.817,121.964 364,118.5C 361,107.833 358,97.1667 355,86.5C 354.329,85.7476 353.496,85.4142 352.5,85.5C 357.566,82.8018 362.9,80.4685 368.5,78.5C 373.418,92.5934 377.752,106.927 381.5,121.5C 376.082,126.054 370.082,129.888 363.5,133C 337.38,148.786 316.214,169.62 300,195.5C 288.891,213.993 282.724,233.993 281.5,255.5C 275.833,255.5 270.167,255.5 264.5,255.5 Z"/></g>
<g><path style="opacity:1" fill="#008900" d="M 141.5,79.5 C 177.004,96.5033 205.504,121.503 227,154.5C 228.59,156.65 229.257,158.983 229,161.5C 222.74,172.019 217.573,183.019 213.5,194.5C 212.5,194.5 211.5,194.5 210.5,194.5C 190.106,163.773 163.439,140.106 130.5,123.5C 129.472,121.56 129.472,119.56 130.5,117.5C 134.174,104.799 137.841,92.1319 141.5,79.5 Z"/></g>
<g><path style="opacity:1" fill="#007700" d="M 141.5,79.5 C 141.56,78.9569 141.893,78.6236 142.5,78.5C 186.575,93.6912 220.908,121.025 245.5,160.5C 235.842,178.479 227.842,197.146 221.5,216.5C 217.822,209.145 214.156,201.811 210.5,194.5C 211.5,194.5 212.5,194.5 213.5,194.5C 217.573,183.019 222.74,172.019 229,161.5C 229.257,158.983 228.59,156.65 227,154.5C 205.504,121.503 177.004,96.5033 141.5,79.5 Z"/></g>
<g><path style="opacity:1" fill="#5fa816" d="M 352.5,85.5 C 353.496,85.4142 354.329,85.7476 355,86.5C 358,97.1667 361,107.833 364,118.5C 364.817,121.964 364.483,125.298 363,128.5C 335.887,141.937 312.554,160.271 293,183.5C 276.016,204.478 266.516,228.478 264.5,255.5C 253.5,255.5 242.5,255.5 231.5,255.5C 238.87,197.916 264.204,150.083 307.5,112C 321.282,101.109 336.282,92.2753 352.5,85.5 Z"/></g>
<g><path style="opacity:1" fill="#fddeb0" d="M 264.5,272.5 C 262.849,300.5 265.016,328.167 271,355.5C 278.583,381.162 284.583,407.162 289,433.5C 291.542,446.322 288.709,457.655 280.5,467.5C 262.171,468.944 243.838,468.777 225.5,467C 207.633,462.79 200.8,451.623 205,433.5C 205.503,428.81 206.17,424.143 207,419.5C 213.737,393.283 220.071,366.95 226,340.5C 229.157,317.95 230.324,295.283 229.5,272.5C 241.167,272.5 252.833,272.5 264.5,272.5 Z"/></g>
<g><path style="opacity:1" fill="#dbc199" d="M 264.5,272.5 C 270.167,272.5 275.833,272.5 281.5,272.5C 279.659,302.549 282.159,332.216 289,361.5C 293.156,375.789 297.156,390.122 301,404.5C 305.054,419.931 306.721,435.598 306,451.5C 300.867,461.993 292.367,467.327 280.5,467.5C 288.709,457.655 291.542,446.322 289,433.5C 284.583,407.162 278.583,381.162 271,355.5C 265.016,328.167 262.849,300.5 264.5,272.5 Z"/></g>
</svg>
