<?xml version="1.0" encoding="UTF-8"?>
<!DOCTYPE svg PUBLIC "-//W3C//DTD SVG 1.1//EN" "http://www.w3.org/Graphics/SVG/1.1/DTD/svg11.dtd">
<svg xmlns="http://www.w3.org/2000/svg" version="1.1" width="512px" height="512px" style="shape-rendering:geometricPrecision; text-rendering:geometricPrecision; image-rendering:optimizeQuality; fill-rule:evenodd; clip-rule:evenodd" xmlns:xlink="http://www.w3.org/1999/xlink">
<g><path style="opacity:0.976" fill="#030202" d="M 262.5,-0.5 C 266.833,-0.5 271.167,-0.5 275.5,-0.5C 283.247,2.08524 288.081,7.41857 290,15.5C 290.667,26.1667 290.667,36.8333 290,47.5C 288.67,51.0067 286.17,52.6734 282.5,52.5C 279.713,52.2204 277.547,50.887 276,48.5C 275.667,38.5 275.333,28.5 275,18.5C 274.578,16.5743 273.411,15.5743 271.5,15.5C 270.054,14.3871 268.387,14.2204 266.5,15C 260.103,19.727 253.436,24.0604 246.5,28C 240.785,32.531 237.451,38.3643 236.5,45.5C 235.337,68.3297 235.17,91.3297 236,114.5C 236.717,113.956 237.217,113.289 237.5,112.5C 239.936,109.129 242.936,106.462 246.5,104.5C 257.4,101.14 266.4,103.807 273.5,112.5C 273.783,113.289 274.283,113.956 275,114.5C 275.5,101.504 275.667,88.5043 275.5,75.5C 276.643,72.0185 278.976,70.0185 282.5,69.5C 286.09,69.5441 288.59,71.2108 290,74.5C 290.089,108.519 290.756,142.519 292,176.5C 302.833,185.333 313.667,194.167 324.5,203C 352.282,214.391 379.949,226.058 407.5,238C 415.97,242.31 423.803,247.477 431,253.5C 431.722,256.261 431.555,258.927 430.5,261.5C 427.66,264.143 424.327,264.976 420.5,264C 405.614,253.977 389.614,246.144 372.5,240.5C 369.751,238.64 366.751,237.473 363.5,237C 404.489,274.458 430.322,320.625 441,375.5C 443.694,398.531 439.527,420.197 428.5,440.5C 436.242,439.133 443.242,435.8 449.5,430.5C 465.148,418.229 474.981,402.229 479,382.5C 480.835,356.476 475.168,332.143 462,309.5C 455.734,299.303 448.734,289.636 441,280.5C 440.403,277.319 440.903,274.319 442.5,271.5C 446.243,270.011 449.91,270.178 453.5,272C 479.037,299.42 493.037,331.92 495.5,369.5C 492.024,420.81 465.024,451.31 414.5,461C 386.897,488.654 353.897,498.487 315.5,490.5C 301.848,501.328 286.515,508.328 269.5,511.5C 260.167,511.5 250.833,511.5 241.5,511.5C 224.481,508.326 209.147,501.326 195.5,490.5C 157.103,498.487 124.103,488.654 96.5,461C 45.9661,451.301 18.9661,420.801 15.5,369.5C 21.2837,308.734 51.2837,264.567 105.5,237C 132.419,225.472 159.419,214.138 186.5,203C 197.333,194.167 208.167,185.333 219,176.5C 219.938,130.143 220.938,83.8099 222,37.5C 224.551,28.242 229.718,20.742 237.5,15C 245.897,9.80822 254.231,4.64155 262.5,-0.5 Z"/></g>
<g><path style="opacity:1" fill="#40c27b" d="M 271.5,15.5 C 273.411,15.5743 274.578,16.5743 275,18.5C 275.333,28.5 275.667,38.5 276,48.5C 277.547,50.887 279.713,52.2204 282.5,52.5C 282.5,58.1667 282.5,63.8333 282.5,69.5C 278.976,70.0185 276.643,72.0185 275.5,75.5C 274.833,87.8333 274.167,100.167 273.5,112.5C 266.4,103.807 257.4,101.14 246.5,104.5C 246.333,83.1641 246.5,61.8307 247,40.5C 251.319,28.3478 259.486,20.0145 271.5,15.5 Z"/></g>
<g><path style="opacity:1" fill="#3bb171" d="M 271.5,15.5 C 259.486,20.0145 251.319,28.3478 247,40.5C 246.5,61.8307 246.333,83.1641 246.5,104.5C 242.936,106.462 239.936,109.129 237.5,112.5C 236.503,90.3396 236.169,68.0062 236.5,45.5C 237.451,38.3643 240.785,32.531 246.5,28C 253.436,24.0604 260.103,19.727 266.5,15C 268.387,14.2204 270.054,14.3871 271.5,15.5 Z"/></g>
<g><path style="opacity:1" fill="#1b5435" d="M 236.5,45.5 C 236.169,68.0062 236.503,90.3396 237.5,112.5C 237.217,113.289 236.717,113.956 236,114.5C 235.17,91.3297 235.337,68.3297 236.5,45.5 Z"/></g>
<g><path style="opacity:1" fill="#1f5e3c" d="M 275.5,75.5 C 275.667,88.5043 275.5,101.504 275,114.5C 274.283,113.956 273.783,113.289 273.5,112.5C 274.167,100.167 274.833,87.8333 275.5,75.5 Z"/></g>
<g><path style="opacity:1" fill="#fdf1d6" d="M 176.5,338.5 C 177.182,333.107 178.182,327.773 179.5,322.5C 181.415,322.784 183.081,322.451 184.5,321.5C 186.371,321.141 187.871,320.141 189,318.5C 191.444,310.281 194.444,302.281 198,294.5C 224.624,247.672 237.29,197.339 236,143.5C 240.959,135.75 245.792,127.917 250.5,120C 253.833,118 257.167,118 260.5,120C 265.208,127.917 270.041,135.75 275,143.5C 273.898,183.653 280.898,222.32 296,259.5C 302.667,273.5 309.333,287.5 316,301.5C 332.421,344.452 337.755,388.786 332,434.5C 323.089,468.744 301.255,489.244 266.5,496C 233.497,498.746 207.664,486.579 189,459.5C 184.682,451.543 181.349,443.209 179,434.5C 176.391,405.055 177.224,375.721 181.5,346.5C 181.833,342.484 180.166,339.818 176.5,338.5 Z"/></g>
<g><path style="opacity:1" fill="#f7d9a9" d="M 184.5,321.5 C 183.081,322.451 181.415,322.784 179.5,322.5C 178.182,327.773 177.182,333.107 176.5,338.5C 173.728,338.22 171.228,338.887 169,340.5C 166.887,345.284 165.554,350.284 165,355.5C 162.609,379.445 161.942,403.445 163,427.5C 165.047,446.08 171.88,462.58 183.5,477C 179.179,477.499 174.846,477.666 170.5,477.5C 158.874,468.028 150.04,456.362 144,442.5C 132.875,389.967 140.542,340.3 167,293.5C 175.667,280.167 184.333,266.833 193,253.5C 201.9,236.963 208.734,219.63 213.5,201.5C 214.322,199.272 215.655,198.605 217.5,199.5C 213.385,219.013 207.551,238.013 200,256.5C 190.447,273.833 182.447,291.833 176,310.5C 173.844,318.167 176.678,321.834 184.5,321.5 Z"/></g>
<g><path style="opacity:1" fill="#f7d9a9" d="M 297.5,201.5 C 302.266,219.63 309.1,236.963 318,253.5C 326.667,266.833 335.333,280.167 344,293.5C 368.704,336.771 377.371,383.104 370,432.5C 366.52,445.798 360.187,457.465 351,467.5C 346.999,470.335 343.499,473.668 340.5,477.5C 336.154,477.666 331.821,477.499 327.5,477C 337.347,464.466 343.847,450.299 347,434.5C 354.211,371.221 342.211,311.888 311,256.5C 303.681,238.877 298.181,220.71 294.5,202C 295.033,198.935 296.033,198.768 297.5,201.5 Z"/></g>
<g><path style="opacity:1" fill="#fdf1d5" d="M 213.5,201.5 C 208.734,219.63 201.9,236.963 193,253.5C 184.333,266.833 175.667,280.167 167,293.5C 140.542,340.3 132.875,389.967 144,442.5C 150.04,456.362 158.874,468.028 170.5,477.5C 128.362,474.866 100.529,453.532 87,413.5C 82.9233,393.569 83.9233,373.902 90,354.5C 102.838,313.639 124.671,278.472 155.5,249C 174.707,232.954 194.04,217.121 213.5,201.5 Z"/></g>
<g><path style="opacity:1" fill="#fdf1d5" d="M 297.5,201.5 C 321.715,220.54 345.215,240.54 368,261.5C 397.756,293.998 417.089,331.998 426,375.5C 430.25,419.513 412.75,451.347 373.5,471C 362.953,475.543 351.953,477.709 340.5,477.5C 343.499,473.668 346.999,470.335 351,467.5C 360.187,457.465 366.52,445.798 370,432.5C 377.371,383.104 368.704,336.771 344,293.5C 335.333,280.167 326.667,266.833 318,253.5C 309.1,236.963 302.266,219.63 297.5,201.5 Z"/></g>
<g><path style="opacity:1" fill="#fcf0d4" d="M 140.5,239.5 C 94.8798,275.37 65.3798,321.704 52,378.5C 50.1112,396.786 53.2778,414.119 61.5,430.5C 37.8539,411.17 28.0206,386.17 32,355.5C 45.904,296.094 82.0706,257.427 140.5,239.5 Z"/></g>
<g><path style="opacity:1" fill="#f5d8a8" d="M 61.5,430.5 C 53.2778,414.119 50.1112,396.786 52,378.5C 65.3798,321.704 94.8798,275.37 140.5,239.5C 141.943,238.297 143.609,237.797 145.5,238C 104.904,275.984 79.7378,322.484 70,377.5C 67.5733,399.866 71.7399,420.866 82.5,440.5C 74.7356,439.121 67.7356,435.788 61.5,430.5 Z"/></g>
<g><path style="opacity:1" fill="#f5d8a8" d="M 372.5,240.5 C 398.541,261.764 420.041,287.43 437,317.5C 449.026,339.411 456.526,362.745 459.5,387.5C 459.726,402.708 456.393,417.042 449.5,430.5C 443.242,435.8 436.242,439.133 428.5,440.5C 439.527,420.197 443.694,398.531 441,375.5C 430.322,320.625 404.489,274.458 363.5,237C 366.751,237.473 369.751,238.64 372.5,240.5 Z"/></g>
<g><path style="opacity:0.999" fill="#fdf0d5" d="M 372.5,240.5 C 389.614,246.144 405.614,253.977 420.5,264C 424.327,264.976 427.66,264.143 430.5,261.5C 434.792,264.457 438.792,267.79 442.5,271.5C 440.903,274.319 440.403,277.319 441,280.5C 448.734,289.636 455.734,299.303 462,309.5C 475.168,332.143 480.835,356.476 479,382.5C 474.981,402.229 465.148,418.229 449.5,430.5C 456.393,417.042 459.726,402.708 459.5,387.5C 456.526,362.745 449.026,339.411 437,317.5C 420.041,287.43 398.541,261.764 372.5,240.5 Z"/></g>
</svg>
