<?xml version="1.0" encoding="UTF-8"?>
<!DOCTYPE svg PUBLIC "-//W3C//DTD SVG 1.1//EN" "http://www.w3.org/Graphics/SVG/1.1/DTD/svg11.dtd">
<svg xmlns="http://www.w3.org/2000/svg" version="1.1" width="512px" height="512px" style="shape-rendering:geometricPrecision; text-rendering:geometricPrecision; image-rendering:optimizeQuality; fill-rule:evenodd; clip-rule:evenodd" xmlns:xlink="http://www.w3.org/1999/xlink">
<g><path style="opacity:0.98" fill="#030302" d="M 117.5,-0.5 C 126.167,-0.5 134.833,-0.5 143.5,-0.5C 145.85,1.21328 146.85,3.54661 146.5,6.5C 146.456,10.0897 144.789,12.5897 141.5,14C 135.509,14.4995 129.509,14.6662 123.5,14.5C 123.5,28.8333 123.5,43.1667 123.5,57.5C 171.336,57.8321 219.003,57.4988 266.5,56.5C 266.5,42.5 266.5,28.5 266.5,14.5C 262.5,14.5 258.5,14.5 254.5,14.5C 226.831,14.6666 199.165,14.5 171.5,14C 168.211,12.5897 166.544,10.0897 166.5,6.5C 166.15,3.54661 167.15,1.21328 169.5,-0.5C 203.833,-0.5 238.167,-0.5 272.5,-0.5C 277.64,1.81949 280.806,5.81949 282,11.5C 282.667,27.5 282.667,43.5 282,59.5C 280.902,65.1024 277.735,69.1024 272.5,71.5C 271.504,77.4632 271.171,83.4632 271.5,89.5C 285.894,92.3939 294.394,101.061 297,115.5C 297.333,204.833 297.667,294.167 298,383.5C 311.305,379.961 323.472,382.461 334.5,391C 346.31,400.628 355.643,412.128 362.5,425.5C 362.389,427.714 361.722,429.714 360.5,431.5C 357.232,433.656 353.899,433.823 350.5,432C 344.667,424.833 338.833,417.667 333,410.5C 326.139,402.82 317.639,398.487 307.5,397.5C 304.473,397.287 301.807,397.953 299.5,399.5C 292.95,403.541 287.117,408.541 282,414.5C 260.975,441.357 240.142,468.357 219.5,495.5C 273.496,496.5 327.496,496.833 381.5,496.5C 387.509,496.666 393.509,496.499 399.5,496C 388.97,483.104 378.804,469.937 369,456.5C 368.333,454.167 368.333,451.833 369,449.5C 370.481,448.529 371.315,447.196 371.5,445.5C 375.369,443.95 378.869,444.617 382,447.5C 393.667,462.833 405.333,478.167 417,493.5C 420.033,501.076 418.2,507.076 411.5,511.5C 312.833,511.5 214.167,511.5 115.5,511.5C 103.31,507.473 95.8098,499.139 93,486.5C 92.3333,362.5 92.3333,238.5 93,114.5C 96.059,100.608 104.559,92.2742 118.5,89.5C 118.5,83.5 118.5,77.5 118.5,71.5C 112.852,70.016 109.352,66.3494 108,60.5C 107.333,44.1667 107.333,27.8333 108,11.5C 109.194,5.81949 112.36,1.81949 117.5,-0.5 Z"/></g>
<g><path style="opacity:0.998" fill="#b3f3ac" d="M 146.5,6.5 C 153.167,6.5 159.833,6.5 166.5,6.5C 166.544,10.0897 168.211,12.5897 171.5,14C 199.165,14.5 226.831,14.6666 254.5,14.5C 254.5,28.5 254.5,42.5 254.5,56.5C 258.5,56.5 262.5,56.5 266.5,56.5C 219.003,57.4988 171.336,57.8321 123.5,57.5C 123.5,43.1667 123.5,28.8333 123.5,14.5C 129.509,14.6662 135.509,14.4995 141.5,14C 144.789,12.5897 146.456,10.0897 146.5,6.5 Z"/></g>
<g><path style="opacity:1" fill="#9ef396" d="M 254.5,14.5 C 258.5,14.5 262.5,14.5 266.5,14.5C 266.5,28.5 266.5,42.5 266.5,56.5C 262.5,56.5 258.5,56.5 254.5,56.5C 254.5,42.5 254.5,28.5 254.5,14.5 Z"/></g>
<g><path style="opacity:1" fill="#f2edf1" d="M 133.5,72.5 C 174.167,72.5 214.833,72.5 255.5,72.5C 255.5,78.1667 255.5,83.8333 255.5,89.5C 214.833,89.5 174.167,89.5 133.5,89.5C 133.5,83.8333 133.5,78.1667 133.5,72.5 Z"/></g>
<g><path style="opacity:1" fill="#757374" d="M 133.5,72.5 C 174.33,71.5014 215.33,71.168 256.5,71.5C 256.823,77.69 256.49,83.69 255.5,89.5C 255.5,83.8333 255.5,78.1667 255.5,72.5C 214.833,72.5 174.167,72.5 133.5,72.5 Z"/></g>
<g><path style="opacity:1" fill="#b4f5ad" d="M 263.5,104.5 C 265.847,107.861 267.681,111.528 269,115.5C 269.5,161.832 269.667,208.165 269.5,254.5C 258.828,254.667 248.161,254.5 237.5,254C 219.406,238.379 198.739,233.712 175.5,240C 166.548,243.139 158.548,247.806 151.5,254C 137.171,254.5 122.837,254.667 108.5,254.5C 108.333,207.832 108.5,161.165 109,114.5C 111.106,109.853 114.606,106.686 119.5,105C 167.499,104.5 215.499,104.333 263.5,104.5 Z"/></g>
<g><path style="opacity:1" fill="#9ef396" d="M 263.5,104.5 C 271.521,104.092 277.354,107.425 281,114.5C 281.5,161.165 281.667,207.832 281.5,254.5C 277.5,254.5 273.5,254.5 269.5,254.5C 269.667,208.165 269.5,161.832 269,115.5C 267.681,111.528 265.847,107.861 263.5,104.5 Z"/></g>
<g><path style="opacity:1" fill="#7f6c79" d="M 217.5,257.5 C 219.696,262.232 222.196,266.898 225,271.5C 234.773,297.79 229.273,320.29 208.5,339C 202.85,342.99 196.85,346.157 190.5,348.5C 171.396,346.186 157.896,336.186 150,318.5C 141.768,290.801 150.268,269.968 175.5,256C 189.742,250.941 203.742,251.441 217.5,257.5 Z"/></g>
<g><path style="opacity:1" fill="#6a5c67" d="M 217.5,257.5 C 243.73,275.036 249.897,298.036 236,326.5C 225.065,342.551 209.898,349.884 190.5,348.5C 196.85,346.157 202.85,342.99 208.5,339C 229.273,320.29 234.773,297.79 225,271.5C 222.196,266.898 219.696,262.232 217.5,257.5 Z"/></g>
<g><path style="opacity:1" fill="#f3eef1" d="M 108.5,269.5 C 118.839,269.334 129.172,269.5 139.5,270C 129.048,290.271 129.048,310.604 139.5,331C 129.172,331.5 118.839,331.666 108.5,331.5C 108.5,310.833 108.5,290.167 108.5,269.5 Z"/></g>
<g><path style="opacity:1" fill="#f3eef1" d="M 251.5,270.5 C 257.5,270.5 263.5,270.5 269.5,270.5C 269.5,290.833 269.5,311.167 269.5,331.5C 263.158,331.666 256.825,331.5 250.5,331C 260.804,311.013 261.138,290.846 251.5,270.5 Z"/></g>
<g><path style="opacity:1" fill="#e3dee2" d="M 269.5,331.5 C 269.5,311.167 269.5,290.833 269.5,270.5C 263.5,270.5 257.5,270.5 251.5,270.5C 260.749,269.501 270.749,269.168 281.5,269.5C 281.5,290.167 281.5,310.833 281.5,331.5C 277.5,331.5 273.5,331.5 269.5,331.5 Z"/></g>
<g><path style="opacity:1" fill="#b4f5ad" d="M 269.5,346.5 C 269.5,366.167 269.5,385.833 269.5,405.5C 246.498,435.179 223.831,465.179 201.5,495.5C 174.173,496.667 146.839,496.833 119.5,496C 113.974,494.474 110.474,490.974 109,485.5C 108.5,439.168 108.333,392.835 108.5,346.5C 122.837,346.333 137.171,346.5 151.5,347C 171.684,364.412 194.351,368.412 219.5,359C 226.34,355.75 232.673,351.75 238.5,347C 248.828,346.5 259.161,346.334 269.5,346.5 Z"/></g>
<g><path style="opacity:1" fill="#9ef296" d="M 269.5,346.5 C 273.5,346.5 277.5,346.5 281.5,346.5C 281.667,362.503 281.5,378.503 281,394.5C 277.351,398.315 273.517,401.982 269.5,405.5C 269.5,385.833 269.5,366.167 269.5,346.5 Z"/></g>
<g><path style="opacity:1" fill="#e1dce0" d="M 360.5,431.5 C 363.435,436.765 367.101,441.432 371.5,445.5C 371.315,447.196 370.481,448.529 369,449.5C 368.333,451.833 368.333,454.167 369,456.5C 378.804,469.937 388.97,483.104 399.5,496C 393.509,496.499 387.509,496.666 381.5,496.5C 376.516,489.52 371.183,482.854 365.5,476.5C 364.167,474.833 362.833,473.167 361.5,471.5C 355.575,463.063 349.409,454.729 343,446.5C 342.722,447.416 342.222,448.082 341.5,448.5C 341.833,442.167 338.833,439.167 332.5,439.5C 333.609,438.71 334.942,438.21 336.5,438C 327.641,426.629 318.308,415.629 308.5,405C 305.778,402.642 302.778,400.809 299.5,399.5C 301.807,397.953 304.473,397.287 307.5,397.5C 317.639,398.487 326.139,402.82 333,410.5C 338.833,417.667 344.667,424.833 350.5,432C 353.899,433.823 357.232,433.656 360.5,431.5 Z"/></g>
<g><path style="opacity:1" fill="#f3eef1" d="M 299.5,399.5 C 302.778,400.809 305.778,402.642 308.5,405C 318.308,415.629 327.641,426.629 336.5,438C 334.942,438.21 333.609,438.71 332.5,439.5C 327.106,441.617 325.606,445.283 328,450.5C 333.386,456.124 337.886,455.457 341.5,448.5C 342.222,448.082 342.722,447.416 343,446.5C 349.409,454.729 355.575,463.063 361.5,471.5C 352.228,471.083 349.228,475.083 352.5,483.5C 360.461,487.688 364.794,485.355 365.5,476.5C 371.183,482.854 376.516,489.52 381.5,496.5C 327.496,496.833 273.496,496.5 219.5,495.5C 240.142,468.357 260.975,441.357 282,414.5C 287.117,408.541 292.95,403.541 299.5,399.5 Z"/></g>
<g><path style="opacity:1" fill="#080808" d="M 309.5,418.5 C 315.523,417.197 319.189,419.53 320.5,425.5C 318.172,432.726 313.672,434.393 307,430.5C 304.517,425.713 305.35,421.713 309.5,418.5 Z"/></g>
<g><path style="opacity:1" fill="#0d0d0d" d="M 332.5,439.5 C 338.833,439.167 341.833,442.167 341.5,448.5C 337.886,455.457 333.386,456.124 328,450.5C 325.606,445.283 327.106,441.617 332.5,439.5 Z"/></g>
<g><path style="opacity:1" fill="#0c0b0c" d="M 305.5,450.5 C 313.161,449.663 316.661,452.996 316,460.5C 312.171,466.703 307.838,467.036 303,461.5C 300.826,457.193 301.659,453.526 305.5,450.5 Z"/></g>
<g><path style="opacity:1" fill="#0d0c0c" d="M 264.5,466.5 C 271.657,466.155 274.824,469.488 274,476.5C 271.774,480.861 268.274,482.361 263.5,481C 258.003,475.683 258.336,470.85 264.5,466.5 Z"/></g>
<g><path style="opacity:1" fill="#080708" d="M 361.5,471.5 C 362.833,473.167 364.167,474.833 365.5,476.5C 364.794,485.355 360.461,487.688 352.5,483.5C 349.228,475.083 352.228,471.083 361.5,471.5 Z"/></g>
</svg>
