<?xml version="1.0" encoding="UTF-8"?>
<!DOCTYPE svg PUBLIC "-//W3C//DTD SVG 1.1//EN" "http://www.w3.org/Graphics/SVG/1.1/DTD/svg11.dtd">
<svg xmlns="http://www.w3.org/2000/svg" version="1.1" width="512px" height="512px" style="shape-rendering:geometricPrecision; text-rendering:geometricPrecision; image-rendering:optimizeQuality; fill-rule:evenodd; clip-rule:evenodd" xmlns:xlink="http://www.w3.org/1999/xlink">
<g><path style="opacity:0.969" fill="#030100" d="M 248.5,-0.5 C 253.5,-0.5 258.5,-0.5 263.5,-0.5C 277.318,4.09583 284.652,13.7625 285.5,28.5C 284.823,35.562 283.823,42.562 282.5,49.5C 282.833,49.8333 283.167,50.1667 283.5,50.5C 305.238,35.5864 328.905,31.4198 354.5,38C 361.309,39.9873 367.475,43.154 373,47.5C 374.701,49.9 375.534,52.5666 375.5,55.5C 373.813,72.3694 367.146,86.8694 355.5,99C 411.465,116.962 449.965,153.462 471,208.5C 490.555,266.98 488.222,324.647 464,381.5C 447.798,419.37 423.631,451.204 391.5,477C 386.854,481.181 382.187,481.348 377.5,477.5C 376.11,474.07 376.276,470.736 378,467.5C 430.311,426.238 460.311,372.238 468,305.5C 473.749,250.455 459.082,201.788 424,159.5C 407.427,140.469 387.261,126.802 363.5,118.5C 356.595,115.979 349.429,113.979 342,112.5C 333.731,116.379 325.231,119.879 316.5,123C 311.239,124.385 305.906,125.385 300.5,126C 310.667,134.833 320.167,144.333 329,154.5C 329.976,158.327 329.143,161.66 326.5,164.5C 323.416,165.984 320.416,165.818 317.5,164C 305.342,148.326 290.676,135.826 273.5,126.5C 246.696,110.804 217.696,104.97 186.5,109C 128.909,116.867 87.0762,146.7 61,198.5C 45.2179,231.417 39.2179,266.084 43,302.5C 49.7782,370.246 79.6115,425.08 132.5,467C 161.112,487.144 192.778,496.644 227.5,495.5C 238.186,494.104 248.186,490.604 257.5,485C 298.305,460.93 326.471,426.43 342,381.5C 358.708,334.452 362.041,286.452 352,237.5C 347.634,219.949 341.468,203.115 333.5,187C 333.927,183.977 335.261,181.477 337.5,179.5C 341.909,178.618 345.409,179.952 348,183.5C 367.757,223.88 375.757,266.546 372,311.5C 368.09,366.26 349.09,414.927 315,457.5C 302.295,471.216 288.128,483.049 272.5,493C 274.911,494.583 277.578,495.583 280.5,496C 302.243,496.443 323.243,492.943 343.5,485.5C 346.693,484.603 349.859,483.603 353,482.5C 356.463,483.137 359.296,484.803 361.5,487.5C 361.957,492.421 359.957,495.921 355.5,498C 338.831,504.226 321.831,508.726 304.5,511.5C 295.833,511.5 287.167,511.5 278.5,511.5C 270.663,509.664 262.997,506.997 255.5,503.5C 248.003,506.997 240.337,509.664 232.5,511.5C 223.833,511.5 215.167,511.5 206.5,511.5C 169.33,507.081 136.664,492.581 108.5,468C 52.0062,414.142 24.8396,347.975 27,269.5C 30.4722,216.4 51.3056,171.566 89.5,135C 129.18,102.168 174.846,88.3348 226.5,93.5C 225.063,70.1519 225.23,46.8186 227,23.5C 229.509,11.1651 236.676,3.16507 248.5,-0.5 Z"/></g>
<g><path style="opacity:1" fill="#c56b35" d="M 251.5,15.5 C 266.106,13.9567 271.939,20.6234 269,35.5C 265.651,58.0557 263.484,80.7224 262.5,103.5C 258.297,102.73 254.297,101.396 250.5,99.5C 251.927,75.7471 254.261,52.0804 257.5,28.5C 257.393,25.433 256.893,22.433 256,19.5C 255.252,17.249 253.752,15.9156 251.5,15.5 Z"/></g>
<g><path style="opacity:1" fill="#d47d49" d="M 251.5,15.5 C 253.752,15.9156 255.252,17.249 256,19.5C 256.893,22.433 257.393,25.433 257.5,28.5C 254.261,52.0804 251.927,75.7471 250.5,99.5C 245.9,99.7869 243.233,97.7869 242.5,93.5C 241.376,71.1804 241.209,48.8471 242,26.5C 242.907,20.7674 246.073,17.1007 251.5,15.5 Z"/></g>
<g><path style="opacity:1" fill="#00c079" d="M 350.5,53.5 C 338.267,87.7216 313.933,105.388 277.5,106.5C 277.472,96.8079 277.972,87.1412 279,77.5C 297.428,53.6351 321.261,45.6351 350.5,53.5 Z"/></g>
<g><path style="opacity:1" fill="#07b463" d="M 350.5,53.5 C 354.54,53.8438 357.54,55.6771 359.5,59C 352.459,83.7093 336.793,100.376 312.5,109C 301.168,111.946 289.834,112.113 278.5,109.5C 277.614,108.675 277.281,107.675 277.5,106.5C 313.933,105.388 338.267,87.7216 350.5,53.5 Z"/></g>
<g><path style="opacity:1" fill="#fd9637" d="M 273.5,126.5 C 315.178,161.833 338.678,207.5 344,263.5C 348.568,320.671 336.568,374.005 308,423.5C 287.389,455.382 260.555,479.382 227.5,495.5C 192.778,496.644 161.112,487.144 132.5,467C 79.6115,425.08 49.7782,370.246 43,302.5C 39.2179,266.084 45.2179,231.417 61,198.5C 87.0762,146.7 128.909,116.867 186.5,109C 217.696,104.97 246.696,110.804 273.5,126.5 Z"/></g>
<g><path style="opacity:1" fill="#fd9637" d="M 363.5,118.5 C 418.203,152.288 448.703,201.955 455,267.5C 457.231,336.651 435.564,396.984 390,448.5C 375.275,462.804 359.775,475.137 343.5,485.5C 323.243,492.943 302.243,496.443 280.5,496C 277.578,495.583 274.911,494.583 272.5,493C 288.128,483.049 302.295,471.216 315,457.5C 349.09,414.927 368.09,366.26 372,311.5C 375.757,266.546 367.757,223.88 348,183.5C 345.409,179.952 341.909,178.618 337.5,179.5C 334.22,174.219 330.553,169.219 326.5,164.5C 329.143,161.66 329.976,158.327 329,154.5C 320.167,144.333 310.667,134.833 300.5,126C 305.906,125.385 311.239,124.385 316.5,123C 325.231,119.879 333.731,116.379 342,112.5C 349.429,113.979 356.595,115.979 363.5,118.5 Z"/></g>
<g><path style="opacity:1" fill="#fa840a" d="M 363.5,118.5 C 387.261,126.802 407.427,140.469 424,159.5C 459.082,201.788 473.749,250.455 468,305.5C 460.311,372.238 430.311,426.238 378,467.5C 376.276,470.736 376.11,474.07 377.5,477.5C 372.131,480.847 366.797,484.181 361.5,487.5C 359.296,484.803 356.463,483.137 353,482.5C 349.859,483.603 346.693,484.603 343.5,485.5C 359.775,475.137 375.275,462.804 390,448.5C 435.564,396.984 457.231,336.651 455,267.5C 448.703,201.955 418.203,152.288 363.5,118.5 Z"/></g>
<g><path style="opacity:1" fill="#fa840b" d="M 273.5,126.5 C 290.676,135.826 305.342,148.326 317.5,164C 320.416,165.818 323.416,165.984 326.5,164.5C 330.553,169.219 334.22,174.219 337.5,179.5C 335.261,181.477 333.927,183.977 333.5,187C 341.468,203.115 347.634,219.949 352,237.5C 362.041,286.452 358.708,334.452 342,381.5C 326.471,426.43 298.305,460.93 257.5,485C 248.186,490.604 238.186,494.104 227.5,495.5C 260.555,479.382 287.389,455.382 308,423.5C 336.568,374.005 348.568,320.671 344,263.5C 338.678,207.5 315.178,161.833 273.5,126.5 Z"/></g>
</svg>
