<?xml version="1.0" encoding="UTF-8"?>
<!DOCTYPE svg PUBLIC "-//W3C//DTD SVG 1.1//EN" "http://www.w3.org/Graphics/SVG/1.1/DTD/svg11.dtd">
<svg xmlns="http://www.w3.org/2000/svg" version="1.1" width="512px" height="512px" style="shape-rendering:geometricPrecision; text-rendering:geometricPrecision; image-rendering:optimizeQuality; fill-rule:evenodd; clip-rule:evenodd" xmlns:xlink="http://www.w3.org/1999/xlink">
<g><path style="opacity:0.981" fill="#010200" d="M 365.5,-0.5 C 368.167,-0.5 370.833,-0.5 373.5,-0.5C 401.348,34.8771 419.182,74.8771 427,119.5C 432.533,158.877 423.033,194.044 398.5,225C 414.101,230.883 428.601,238.716 442,248.5C 443.483,251.702 443.817,255.036 443,258.5C 436.864,273.281 428.364,286.448 417.5,298C 464.915,317.764 493.748,352.931 504,403.5C 507.875,421.123 510.375,438.79 511.5,456.5C 511.5,464.167 511.5,471.833 511.5,479.5C 510.67,487.349 509.837,495.349 509,503.5C 508.333,504.833 507.667,506.167 507,507.5C 500.187,509.445 493.353,510.778 486.5,511.5C 471.5,511.5 456.5,511.5 441.5,511.5C 409.896,508.912 380.229,499.745 352.5,484C 327.138,467.801 308.971,445.635 298,417.5C 293.591,420.274 289.757,419.607 286.5,415.5C 285.61,413.218 285.444,410.885 286,408.5C 312.724,384.833 318.391,356.833 303,324.5C 300.921,320.007 298.588,315.674 296,311.5C 290.177,331.794 284.51,352.127 279,372.5C 277.887,373.305 276.721,373.972 275.5,374.5C 270.171,375.329 266.837,373.162 265.5,368C 268.323,356.86 270.989,345.693 273.5,334.5C 276.737,325.616 279.07,316.616 280.5,307.5C 275.414,310.364 270.747,313.698 266.5,317.5C 236.542,339.585 229.042,367.919 244,402.5C 245.608,406.056 247.441,409.389 249.5,412.5C 251.637,417.437 254.304,422.104 257.5,426.5C 262.056,423.065 266.723,422.732 271.5,425.5C 274.337,430.176 273.67,434.343 269.5,438C 265.952,439.941 262.286,441.607 258.5,443C 255.366,443.79 252.366,443.457 249.5,442C 239.31,428.794 231.31,414.294 225.5,398.5C 189.073,424.687 148.74,433.187 104.5,424C 68.0042,415.915 35.0042,400.582 5.5,378C 2.9255,376.263 0.925503,374.096 -0.5,371.5C -0.5,370.167 -0.5,368.833 -0.5,367.5C 17.1253,325.027 43.792,289.194 79.5,260C 110.611,238.139 144.945,229.639 182.5,234.5C 179.682,219.975 178.849,205.308 180,190.5C 179.465,184.711 181.965,181.211 187.5,180C 203.507,178.61 219.507,179.11 235.5,181.5C 229.843,144.129 238.01,110.129 260,79.5C 268.014,69.0065 276.847,59.1731 286.5,50C 290.444,46.9698 294.444,46.8032 298.5,49.5C 299.156,51.484 299.822,53.484 300.5,55.5C 299.946,57.6096 299.112,59.6096 298,61.5C 272.228,83.0345 256.228,110.368 250,143.5C 248.991,158.616 249.825,173.616 252.5,188.5C 271.661,195.492 285.161,208.492 293,227.5C 295.27,232.644 296.937,237.978 298,243.5C 302.688,227.23 307.188,210.897 311.5,194.5C 293.182,182.029 284.515,164.529 285.5,142C 285.266,135.03 286.1,128.197 288,121.5C 292.171,115.271 296.837,114.938 302,120.5C 301.035,128.098 300.202,135.765 299.5,143.5C 299.866,153.097 302.366,162.097 307,170.5C 309.026,174.026 311.859,176.693 315.5,178.5C 320.833,159.5 326.167,140.5 331.5,121.5C 320.974,113.277 315.974,102.444 316.5,89C 316.494,84.7642 316.994,80.5975 318,76.5C 321.661,72.0238 325.994,71.3571 331,74.5C 331.875,75.8732 332.375,77.3732 332.5,79C 331.433,85.4734 331.266,91.9734 332,98.5C 332.748,100.332 333.748,101.999 335,103.5C 340.082,88.7847 344.415,73.7847 348,58.5C 351.07,54.2929 354.903,53.4595 359.5,56C 361.297,57.5941 362.297,59.5941 362.5,62C 357.945,77.0527 354.112,92.2193 351,107.5C 357.819,102.547 362.153,95.8808 364,87.5C 368.261,83.5773 372.594,83.5773 377,87.5C 376.167,103.329 368.667,114.829 354.5,122C 351.635,122.837 348.802,123.67 346,124.5C 340.199,143.706 335.033,163.039 330.5,182.5C 340.881,180.309 349.381,174.975 356,166.5C 361.366,157.882 365.866,148.882 369.5,139.5C 375.751,136.904 379.751,138.738 381.5,145C 376.474,168.421 363.14,185.088 341.5,195C 336.245,196.376 330.912,197.209 325.5,197.5C 321.176,213.791 317.343,230.124 314,246.5C 332.301,227.174 354.801,218.674 381.5,221C 405.874,193.536 416.041,161.369 412,124.5C 405.823,84.9916 390.989,49.1583 367.5,17C 352.931,22.4541 339.264,29.7875 326.5,39C 324.833,39.6667 323.167,39.6667 321.5,39C 319.935,37.5881 318.269,36.4214 316.5,35.5C 315.115,30.8247 316.448,26.9914 320.5,24C 334.954,14.7741 349.954,6.60746 365.5,-0.5 Z"/></g>
<g><path style="opacity:1" fill="#4dbe22" d="M 298.5,49.5 C 304.81,45.1846 310.81,40.5179 316.5,35.5C 318.269,36.4214 319.935,37.5881 321.5,39C 323.167,39.6667 324.833,39.6667 326.5,39C 339.264,29.7875 352.931,22.4541 367.5,17C 390.989,49.1583 405.823,84.9916 412,124.5C 416.041,161.369 405.874,193.536 381.5,221C 354.801,218.674 332.301,227.174 314,246.5C 317.343,230.124 321.176,213.791 325.5,197.5C 330.912,197.209 336.245,196.376 341.5,195C 363.14,185.088 376.474,168.421 381.5,145C 379.751,138.738 375.751,136.904 369.5,139.5C 365.866,148.882 361.366,157.882 356,166.5C 349.381,174.975 340.881,180.309 330.5,182.5C 335.033,163.039 340.199,143.706 346,124.5C 348.802,123.67 351.635,122.837 354.5,122C 368.667,114.829 376.167,103.329 377,87.5C 372.594,83.5773 368.261,83.5773 364,87.5C 362.153,95.8808 357.819,102.547 351,107.5C 354.112,92.2193 357.945,77.0527 362.5,62C 362.297,59.5941 361.297,57.5941 359.5,56C 354.903,53.4595 351.07,54.2929 348,58.5C 344.415,73.7847 340.082,88.7847 335,103.5C 333.748,101.999 332.748,100.332 332,98.5C 331.266,91.9734 331.433,85.4734 332.5,79C 332.375,77.3732 331.875,75.8732 331,74.5C 325.994,71.3571 321.661,72.0238 318,76.5C 316.994,80.5975 316.494,84.7642 316.5,89C 315.974,102.444 320.974,113.277 331.5,121.5C 326.167,140.5 320.833,159.5 315.5,178.5C 311.859,176.693 309.026,174.026 307,170.5C 302.366,162.097 299.866,153.097 299.5,143.5C 300.202,135.765 301.035,128.098 302,120.5C 296.837,114.938 292.171,115.271 288,121.5C 286.1,128.197 285.266,135.03 285.5,142C 284.515,164.529 293.182,182.029 311.5,194.5C 307.188,210.897 302.688,227.23 298,243.5C 296.937,237.978 295.27,232.644 293,227.5C 285.161,208.492 271.661,195.492 252.5,188.5C 249.825,173.616 248.991,158.616 250,143.5C 256.228,110.368 272.228,83.0345 298,61.5C 299.112,59.6096 299.946,57.6096 300.5,55.5C 299.822,53.484 299.156,51.484 298.5,49.5 Z"/></g>
<g><path style="opacity:1" fill="#95d779" d="M 219.5,195.5 C 217.801,195.34 216.134,195.506 214.5,196C 230.927,204.585 241.593,217.751 246.5,235.5C 237.736,230.64 233.569,233.307 234,243.5C 240.005,250.337 246.171,257.004 252.5,263.5C 252.5,270.5 252.5,277.5 252.5,284.5C 222.967,279.65 204.801,262.65 198,233.5C 195.023,220.667 193.856,207.667 194.5,194.5C 203.017,194.174 211.35,194.507 219.5,195.5 Z"/></g>
<g><path style="opacity:1" fill="#7dce5f" d="M 219.5,195.5 C 258.815,198.982 280.982,220.315 286,259.5C 286.667,264.833 286.667,270.167 286,275.5C 272.631,262.299 259.465,248.965 246.5,235.5C 241.593,217.751 230.927,204.585 214.5,196C 216.134,195.506 217.801,195.34 219.5,195.5 Z"/></g>
<g><path style="opacity:1" fill="#7ecf60" d="M 357.5,310.5 C 373.602,296.716 385.935,280.05 394.5,260.5C 382.329,251.08 368.995,243.747 354.5,238.5C 381.006,234.545 405.006,240.878 426.5,257.5C 418.943,273.109 408.609,286.609 395.5,298C 384.454,307.019 371.787,311.186 357.5,310.5 Z"/></g>
<g><path style="opacity:1" fill="#94d779" d="M 354.5,238.5 C 368.995,243.747 382.329,251.08 394.5,260.5C 385.935,280.05 373.602,296.716 357.5,310.5C 341.037,309.445 325.704,304.612 311.5,296C 332.688,289.701 354.021,283.701 375.5,278C 379.41,273.925 379.41,269.925 375.5,266C 372.634,264.543 369.634,264.21 366.5,265C 346.707,270.907 327.04,276.073 307.5,280.5C 316.216,265.283 327.883,252.783 342.5,243C 346.203,240.646 350.203,239.146 354.5,238.5 Z"/></g>
<g><path style="opacity:1" fill="#4ebe22" d="M 142.5,249.5 C 157.59,248.97 172.59,249.804 187.5,252C 195.808,270.975 209.474,284.641 228.5,293C 233.5,294.667 238.5,296.333 243.5,298C 227.239,302.273 211.072,306.773 195,311.5C 182.768,293.05 165.434,284.384 143,285.5C 136.04,285.323 129.207,286.157 122.5,288C 116.271,292.171 115.938,296.837 121.5,302C 132.752,300.615 144.085,300.282 155.5,301C 165.33,302.58 173.33,307.246 179.5,315C 160.544,320.322 141.544,325.489 122.5,330.5C 110.417,317.75 95.7507,313.584 78.5,318C 72.6229,321.804 71.9562,326.471 76.5,332C 83.4823,331.669 90.4823,331.669 97.5,332C 100.032,332.619 102.365,333.619 104.5,335C 89.1617,339.334 73.8284,343.668 58.5,348C 54.5773,352.261 54.5773,356.594 58.5,361C 61.1667,361.667 63.8333,361.667 66.5,361C 78.8609,357.826 91.1942,354.493 103.5,351C 105.167,350.333 106.833,350.333 108.5,351C 103.513,357.832 96.8465,362.166 88.5,364C 85.114,367.373 84.614,371.206 87,375.5C 88.47,377.152 90.3033,378.152 92.5,378.5C 110.66,374.173 121.993,363.006 126.5,345C 145.31,340.273 163.977,335.106 182.5,329.5C 182.93,334.413 181.763,339.08 179,343.5C 169.998,356.26 157.832,364.427 142.5,368C 138.577,372.261 138.577,376.594 142.5,381C 167.707,377.965 185.541,364.799 196,341.5C 197.231,336.176 198.398,330.843 199.5,325.5C 215.426,321.482 231.259,317.149 247,312.5C 247.5,312.667 248,312.833 248.5,313C 228.112,330.945 219.279,353.445 222,380.5C 202.463,397.848 179.63,408.014 153.5,411C 115.044,412.773 79.0444,404.107 45.5,385C 36.0795,379.541 26.9128,373.708 18,367.5C 34.3107,327.11 60.1441,293.943 95.5,268C 110.091,258.754 125.758,252.588 142.5,249.5 Z"/></g>
<g><path style="opacity:1" fill="#7bca5d" d="M 252.5,263.5 C 260.298,270.798 267.965,278.298 275.5,286C 267.738,286.731 260.071,286.231 252.5,284.5C 252.5,277.5 252.5,270.5 252.5,263.5 Z"/></g>
<g><path style="opacity:1" fill="#7bca5d" d="M 273.5,334.5 C 272.123,328.353 269.79,322.687 266.5,317.5C 270.747,313.698 275.414,310.364 280.5,307.5C 279.07,316.616 276.737,325.616 273.5,334.5 Z"/></g>
<g><path style="opacity:1" fill="#4ebe22" d="M 403.5,309.5 C 439.919,320.747 465.419,344.08 480,379.5C 494.261,416.588 499.094,454.921 494.5,494.5C 453.823,499.148 414.49,493.981 376.5,479C 343.751,463.747 321.751,438.914 310.5,404.5C 325.781,382.915 329.948,359.248 323,333.5C 333.667,344.167 344.333,354.833 355,365.5C 346.962,384.784 347.962,403.784 358,422.5C 362.07,429.24 366.904,435.407 372.5,441C 379.078,443.372 383.078,441.039 384.5,434C 384.333,433.167 384.167,432.333 384,431.5C 369.184,418.051 362.85,401.384 365,381.5C 365.667,380.167 366.333,378.833 367,377.5C 381.167,391.667 395.333,405.833 409.5,420C 403.86,437.435 407.86,452.435 421.5,465C 430.566,465.939 433.732,462.106 431,453.5C 424.94,447.724 421.94,440.724 422,432.5C 433.5,444 445,455.5 456.5,467C 462.907,469.796 466.907,467.796 468.5,461C 468.375,459.373 467.875,457.873 467,456.5C 455.5,445 444,433.5 432.5,422C 440.996,421.412 447.996,424.412 453.5,431C 462.106,433.732 465.939,430.566 465,421.5C 452.246,407.907 437.079,403.74 419.5,409C 405.5,395 391.5,381 377.5,367C 385.984,362.763 394.651,362.43 403.5,366C 413.952,369.391 422.952,375.058 430.5,383C 436.789,385.353 440.789,383.186 442.5,376.5C 442.281,375.062 441.781,373.729 441,372.5C 419.505,349.873 394.338,344.039 365.5,355C 354.5,344 343.5,333 332.5,322C 355.114,328.636 376.781,326.303 397.5,315C 399.996,313.669 401.996,311.836 403.5,309.5 Z"/></g>
<g><path style="opacity:1" fill="#7ece5f" d="M 286.5,415.5 C 281.672,419.081 276.672,422.415 271.5,425.5C 266.723,422.732 262.056,423.065 257.5,426.5C 254.304,422.104 251.637,417.437 249.5,412.5C 254.829,407.003 259.996,401.336 265,395.5C 269.568,389.031 273.068,382.031 275.5,374.5C 276.721,373.972 277.887,373.305 279,372.5C 284.51,352.127 290.177,331.794 296,311.5C 298.588,315.674 300.921,320.007 303,324.5C 318.391,356.833 312.724,384.833 286,408.5C 285.444,410.885 285.61,413.218 286.5,415.5 Z"/></g>
<g><path style="opacity:1" fill="#95d779" d="M 266.5,317.5 C 269.79,322.687 272.123,328.353 273.5,334.5C 270.989,345.693 268.323,356.86 265.5,368C 266.837,373.162 270.171,375.329 275.5,374.5C 273.068,382.031 269.568,389.031 265,395.5C 259.996,401.336 254.829,407.003 249.5,412.5C 247.441,409.389 245.608,406.056 244,402.5C 229.042,367.919 236.542,339.585 266.5,317.5 Z"/></g>
</svg>
