<?xml version="1.0" encoding="UTF-8"?>
<!DOCTYPE svg PUBLIC "-//W3C//DTD SVG 1.1//EN" "http://www.w3.org/Graphics/SVG/1.1/DTD/svg11.dtd">
<svg xmlns="http://www.w3.org/2000/svg" version="1.1" width="512px" height="512px" style="shape-rendering:geometricPrecision; text-rendering:geometricPrecision; image-rendering:optimizeQuality; fill-rule:evenodd; clip-rule:evenodd" xmlns:xlink="http://www.w3.org/1999/xlink">
<g><path style="opacity:0.982" fill="#010101" d="M 249.5,-0.5 C 253.5,-0.5 257.5,-0.5 261.5,-0.5C 275.103,11.2686 287.936,23.9353 300,37.5C 306.217,31.3153 312.717,25.4819 319.5,20C 324.688,17.6509 329.522,18.1509 334,21.5C 348.861,39.0469 361.361,58.2136 371.5,79C 375.74,77.9041 380.073,76.7374 384.5,75.5C 388.905,76.3939 392.405,78.7272 395,82.5C 413.357,107.533 426.357,135.2 434,165.5C 435.985,175.403 436.818,185.403 436.5,195.5C 441.72,195.697 444.887,198.364 446,203.5C 452.251,258.45 433.751,302.616 390.5,336C 365.401,352.693 337.734,360.527 307.5,359.5C 309.955,403.039 312.955,446.539 316.5,490C 316.129,493.455 314.795,496.455 312.5,499C 280.558,511.979 247.892,513.979 214.5,505C 209.012,503.393 203.678,501.393 198.5,499C 197.789,497.745 196.956,496.579 196,495.5C 197.837,450.112 200.67,404.779 204.5,359.5C 139.799,358.755 95.6321,328.422 72,268.5C 69.2107,259.676 67.2107,250.676 66,241.5C 65.3333,227.833 65.3333,214.167 66,200.5C 68.0194,197.288 70.8527,195.622 74.5,195.5C 74.4649,176.175 77.9649,157.509 85,139.5C 93.9857,116.679 106.152,95.8458 121.5,77C 123.278,76.296 125.112,75.796 127,75.5C 131.092,76.5457 135.092,77.879 139,79.5C 145.907,66.9234 153.24,54.59 161,42.5C 166.746,34.0832 173.246,26.2499 180.5,19C 185.111,17.993 189.445,18.6597 193.5,21C 199.667,26.5 205.833,32 212,37.5C 223.364,23.6362 235.864,10.9695 249.5,-0.5 Z"/></g>
<g><path style="opacity:1" fill="#7bc086" d="M 254.5,22.5 C 266.458,31.1244 276.791,41.4577 285.5,53.5C 275.435,65.2932 266.601,77.9599 259,91.5C 256.667,92.8333 254.333,92.8333 252,91.5C 248.586,85.0031 244.919,78.6697 241,72.5C 235.767,66.2713 230.934,59.7713 226.5,53C 235.29,42.375 244.623,32.2084 254.5,22.5 Z"/></g>
<g><path style="opacity:1" fill="#7cc086" d="M 186.5,42.5 C 207.496,59.9829 224.163,80.8162 236.5,105C 227.686,113.316 219.353,122.149 211.5,131.5C 196.598,114.882 179.264,101.382 159.5,91C 158.978,90.4387 158.645,89.772 158.5,89C 166.204,72.4096 175.537,56.9096 186.5,42.5 Z"/></g>
<g><path style="opacity:1" fill="#7bc086" d="M 323.5,43.5 C 325.017,43.5106 326.184,44.1772 327,45.5C 337.091,59.3368 345.924,74.0035 353.5,89.5C 333.515,100.639 315.682,114.639 300,131.5C 291.864,122.363 283.364,113.53 274.5,105C 287.136,81.5657 303.469,61.0657 323.5,43.5 Z"/></g>
<g><path style="opacity:1" fill="#7cc087" d="M 130.5,98.5 C 157.414,109.417 180.081,126.084 198.5,148.5C 193.158,157.182 188.325,166.182 184,175.5C 180.847,184.471 178.013,193.471 175.5,202.5C 166.365,199.506 157.032,197.339 147.5,196C 130.17,195.5 112.837,195.333 95.5,195.5C 95.7073,169.039 102.541,144.372 116,121.5C 120.844,113.805 125.677,106.139 130.5,98.5 Z"/></g>
<g><path style="opacity:1" fill="#7cc087" d="M 379.5,98.5 C 381.074,98.9371 382.241,99.9371 383,101.5C 399.763,125.367 410.763,151.7 416,180.5C 416.499,185.489 416.666,190.489 416.5,195.5C 398.497,195.333 380.497,195.5 362.5,196C 353.319,197.469 344.319,199.636 335.5,202.5C 331.33,182.982 323.663,164.982 312.5,148.5C 321.059,137.44 331.059,127.94 342.5,120C 354.241,111.797 366.574,104.63 379.5,98.5 Z"/></g>
<g><path style="opacity:1" fill="#7cc087" d="M 254.5,115.5 C 278.12,133.708 296.286,156.375 309,183.5C 312.97,192.513 314.803,201.846 314.5,211.5C 287.793,227.207 268.126,249.207 255.5,277.5C 243.21,249.412 223.876,227.579 197.5,212C 196.166,202.47 197.666,193.304 202,184.5C 210.557,165.617 221.891,148.617 236,133.5C 242.062,127.27 248.229,121.27 254.5,115.5 Z"/></g>
<g><path style="opacity:1" fill="#7cc187" d="M 85.5,215.5 C 106.169,215.333 126.836,215.5 147.5,216C 202.403,226.57 234.903,259.403 245,314.5C 245.5,322.493 245.666,330.493 245.5,338.5C 222.132,338.925 198.799,338.425 175.5,337C 137.841,328.013 111.007,305.846 95,270.5C 87.7001,252.906 84.5334,234.572 85.5,215.5 Z"/></g>
<g><path style="opacity:1" fill="#7cc087" d="M 363.5,215.5 C 384.167,215.5 404.833,215.5 425.5,215.5C 428.224,268.578 405.891,306.745 358.5,330C 348.433,333.767 338.1,336.433 327.5,338C 306.836,338.5 286.169,338.667 265.5,338.5C 264.577,282.145 289.91,242.978 341.5,221C 348.885,218.829 356.218,216.996 363.5,215.5 Z"/></g>
<g><path style="opacity:1" fill="#040704" d="M 392.5,238.5 C 404.183,239.207 407.683,244.874 403,255.5C 394.21,260.515 388.377,258.182 385.5,248.5C 386.379,244.05 388.713,240.717 392.5,238.5 Z"/></g>
<g><path style="opacity:1" fill="#020302" d="M 371.5,272.5 C 381.453,272.096 385.62,276.763 384,286.5C 364.98,308.588 340.814,319.088 311.5,318C 302.705,309.985 303.705,303.652 314.5,299C 337.376,298.225 356.376,289.392 371.5,272.5 Z"/></g>
<g><path style="opacity:1" fill="#639b6c" d="M 286.5,359.5 C 266.167,359.5 245.833,359.5 225.5,359.5C 225.737,360.791 225.404,361.791 224.5,362.5C 224.5,361.167 224.5,359.833 224.5,358.5C 245.34,358.169 266.007,358.503 286.5,359.5 Z"/></g>
<g><path style="opacity:1" fill="#7bc086" d="M 286.5,359.5 C 289.983,401.107 292.649,442.774 294.5,484.5C 268.83,492.417 243.164,492.417 217.5,484.5C 216.336,478.528 216.17,472.528 217,466.5C 219.463,431.826 221.963,397.159 224.5,362.5C 225.404,361.791 225.737,360.791 225.5,359.5C 245.833,359.5 266.167,359.5 286.5,359.5 Z"/></g>
</svg>
