<?xml version="1.0" encoding="UTF-8"?>
<!DOCTYPE svg PUBLIC "-//W3C//DTD SVG 1.1//EN" "http://www.w3.org/Graphics/SVG/1.1/DTD/svg11.dtd">
<svg xmlns="http://www.w3.org/2000/svg" version="1.1" width="512px" height="512px" style="shape-rendering:geometricPrecision; text-rendering:geometricPrecision; image-rendering:optimizeQuality; fill-rule:evenodd; clip-rule:evenodd" xmlns:xlink="http://www.w3.org/1999/xlink">
<g><path style="opacity:0.989" fill="#333333" d="M 111.5,-0.5 C 207.5,-0.5 303.5,-0.5 399.5,-0.5C 453.548,8.7041 489.382,39.3708 507,91.5C 508.715,98.2585 510.215,104.925 511.5,111.5C 511.5,207.5 511.5,303.5 511.5,399.5C 502.296,453.548 471.629,489.382 419.5,507C 412.741,508.715 406.075,510.215 399.5,511.5C 303.5,511.5 207.5,511.5 111.5,511.5C 57.4517,502.296 21.6184,471.629 4,419.5C 2.28494,412.741 0.784944,406.075 -0.5,399.5C -0.5,303.5 -0.5,207.5 -0.5,111.5C 8.7041,57.4517 39.3708,21.6184 91.5,4C 98.2585,2.28494 104.925,0.784944 111.5,-0.5 Z"/></g>
<g><path style="opacity:1" fill="#faf6f3" d="M 489.5,92.5 C 489.19,93.7383 488.69,93.7383 488,92.5C 467.187,57.1672 436.354,37.0005 395.5,32C 302.167,31.3333 208.833,31.3333 115.5,32C 73.6038,37.0153 42.4372,57.8486 22,94.5C 21.5357,93.9056 21.369,93.2389 21.5,92.5C 34.5735,54.929 60.2401,30.429 98.5,19C 103.448,17.7437 108.448,16.7437 113.5,16C 207.5,15.3333 301.5,15.3333 395.5,16C 442.064,23.0869 473.397,48.5869 489.5,92.5 Z"/></g>
<g><path style="opacity:1" fill="#faf3ee" d="M 489.5,92.5 C 492.394,99.0997 494.227,106.1 495,113.5C 495.667,207.5 495.667,301.5 495,395.5C 492.659,413.701 486.492,430.368 476.5,445.5C 469.725,451.102 463.058,456.935 456.5,463C 440.834,474.337 423.501,482.004 404.5,486C 354.857,487.148 305.191,487.648 255.5,487.5C 206.14,487.65 156.806,487.15 107.5,486C 87.9897,482.407 70.323,474.741 54.5,463C 47.6088,456.603 40.6088,450.436 33.5,444.5C 24.2065,429.456 18.3732,413.123 16,395.5C 15.3333,301.5 15.3333,207.5 16,113.5C 16.773,106.1 18.6063,99.0997 21.5,92.5C 21.369,93.2389 21.5357,93.9056 22,94.5C 42.4372,57.8486 73.6038,37.0153 115.5,32C 208.833,31.3333 302.167,31.3333 395.5,32C 436.354,37.0005 467.187,57.1672 488,92.5C 488.69,93.7383 489.19,93.7383 489.5,92.5 Z"/></g>
<g><path style="opacity:1" fill="#343434" d="M 346.5,55.5 C 359.244,55.0129 371.577,57.0129 383.5,61.5C 415.604,50.1425 443.438,56.8092 467,81.5C 485.268,105.387 488.434,131.221 476.5,159C 485.797,180.342 485.797,201.676 476.5,223C 485.797,244.342 485.797,265.676 476.5,287C 485.797,308.342 485.797,329.676 476.5,351C 490.132,387.219 482.132,417.552 452.5,442C 430.555,455.665 407.389,458.165 383,449.5C 362.85,456.743 343.017,456.076 323.5,447.5C 302.144,456.714 280.811,456.714 259.5,447.5C 238.144,456.714 216.811,456.714 195.5,447.5C 174.144,456.714 152.811,456.714 131.5,447.5C 93.9248,462.359 63.0915,453.693 39,421.5C 26.7016,398.73 25.2016,375.23 34.5,351C 25.1987,329.653 25.1987,308.319 34.5,287C 25.1987,265.653 25.1987,244.319 34.5,223C 25.1987,201.653 25.1987,180.319 34.5,159C 21.4384,125.924 27.7717,97.2575 53.5,73C 77.5272,54.6024 103.527,51.4357 131.5,63.5C 152.793,54.2844 174.127,54.2844 195.5,63.5C 216.793,54.2844 238.127,54.2844 259.5,63.5C 280.793,54.2844 302.127,54.2844 323.5,63.5C 331.002,60.0008 338.669,57.3342 346.5,55.5 Z"/></g>
<g><path style="opacity:1" fill="#589115" d="M 465.5,113.5 C 465.649,114.552 465.483,115.552 465,116.5C 449.527,94.686 428.36,85.186 401.5,88C 395.343,89.3302 389.343,91.1635 383.5,93.5C 363.154,84.8559 343.154,85.5225 323.5,95.5C 302.114,84.9938 280.781,84.9938 259.5,95.5C 238.114,84.9938 216.781,84.9938 195.5,95.5C 174.114,84.9938 152.781,84.9938 131.5,95.5C 100.721,81.3238 73.5547,86.3238 50,110.5C 48.6667,112.5 47.3333,114.5 46,116.5C 45.5357,115.906 45.369,115.239 45.5,114.5C 53.27,88.0989 70.9367,73.7655 98.5,71.5C 110.353,72.0063 121.353,75.3396 131.5,81.5C 152.807,69.5268 174.14,69.5268 195.5,81.5C 216.807,69.5268 238.14,69.5268 259.5,81.5C 280.807,69.5268 302.14,69.5268 323.5,81.5C 342.94,69.3636 362.94,68.3636 383.5,78.5C 414.678,65.0981 440.178,72.0981 460,99.5C 462.684,103.863 464.518,108.53 465.5,113.5 Z"/></g>
<g><path style="opacity:1" fill="#447b0f" d="M 465.5,113.5 C 468.432,124.525 467.932,135.525 464,146.5C 461.833,150.833 459.667,155.167 457.5,159.5C 470.798,180.801 470.798,202.134 457.5,223.5C 470.798,244.801 470.798,266.134 457.5,287.5C 470.798,308.801 470.798,330.134 457.5,351.5C 466.158,363.467 469.492,376.8 467.5,391.5C 450.567,416.958 426.901,427.125 396.5,422C 392.216,420.346 387.882,418.846 383.5,417.5C 363.153,426.106 343.153,425.44 323.5,415.5C 302.134,426.096 280.801,426.096 259.5,415.5C 238.134,426.096 216.801,426.096 195.5,415.5C 174.134,426.096 152.801,426.096 131.5,415.5C 101.272,429.801 74.4391,425.135 51,401.5C 48.5828,398.598 46.4161,395.598 44.5,392.5C 41.9426,377.789 44.9426,364.289 53.5,352C 40.329,330.639 40.329,309.305 53.5,288C 40.329,266.639 40.329,245.305 53.5,224C 40.329,202.639 40.329,181.305 53.5,160C 44.3132,145.801 41.6466,130.634 45.5,114.5C 45.369,115.239 45.5357,115.906 46,116.5C 47.3333,114.5 48.6667,112.5 50,110.5C 73.5547,86.3238 100.721,81.3238 131.5,95.5C 152.781,84.9938 174.114,84.9938 195.5,95.5C 216.781,84.9938 238.114,84.9938 259.5,95.5C 280.781,84.9938 302.114,84.9938 323.5,95.5C 343.154,85.5225 363.154,84.8559 383.5,93.5C 389.343,91.1635 395.343,89.3302 401.5,88C 428.36,85.186 449.527,94.686 465,116.5C 465.483,115.552 465.649,114.552 465.5,113.5 Z"/></g>
<g><path style="opacity:1" fill="#333332" d="M 414.5,103.5 C 419.297,103.121 423.964,103.621 428.5,105C 432.5,109.333 432.5,113.667 428.5,118C 410.909,118.874 397.076,126.374 387,140.5C 386.333,141.5 386.333,142.5 387,143.5C 394.8,153.901 398.8,165.568 399,178.5C 396.774,182.861 393.274,184.361 388.5,183C 386.333,182.167 384.833,180.667 384,178.5C 380.36,151.859 365.193,137.026 338.5,134C 333.998,128.522 334.665,123.855 340.5,120C 353.053,119.573 364.386,123.073 374.5,130.5C 384.514,116.499 397.847,107.499 414.5,103.5 Z"/></g>
<g><path style="opacity:1" fill="#4e8311" d="M 272.5,117.5 C 286.872,118.033 293.706,125.366 293,139.5C 289.22,145.39 284.053,146.89 277.5,144C 268.317,140.132 264.484,133.299 266,123.5C 267.494,120.686 269.66,118.686 272.5,117.5 Z"/></g>
<g><path style="opacity:1" fill="#333332" d="M 176.5,143.5 C 207.877,141.02 230.544,153.854 244.5,182C 269.36,179.622 291.194,186.456 310,202.5C 313.215,211.526 310.048,215.692 300.5,215C 280.664,197.833 258.331,193.5 233.5,202C 224.893,205.302 216.893,209.635 209.5,215C 203.239,216.078 199.906,213.411 199.5,207C 199.625,205.373 200.125,203.873 201,202.5C 209.461,196.017 218.628,190.684 228.5,186.5C 212.811,158.663 190.478,151.829 161.5,166C 156.334,168.748 151.334,171.748 146.5,175C 137.21,176.622 133.71,172.789 136,163.5C 148.302,154.265 161.802,147.598 176.5,143.5 Z"/></g>
<g><path style="opacity:1" fill="#4e8311" d="M 92.5,175.5 C 113.647,177.838 128.481,188.838 137,208.5C 139.583,217.568 136.249,222.568 127,223.5C 108.827,220.068 95.4936,210.068 87,193.5C 85.0614,188.473 85.0614,183.473 87,178.5C 88.8761,177.391 90.7095,176.391 92.5,175.5 Z"/></g>
<g><path style="opacity:1" fill="#4e8311" d="M 383.5,214.5 C 398.174,213.532 405.674,220.198 406,234.5C 405.215,236.286 404.049,237.786 402.5,239C 388.957,242.731 380.29,237.898 376.5,224.5C 376.898,219.673 379.231,216.339 383.5,214.5 Z"/></g>
<g><path style="opacity:1" fill="#333332" d="M 124.5,239.5 C 129.152,238.984 132.652,240.651 135,244.5C 135.739,273.142 143.739,299.476 159,323.5C 164.023,329.521 169.356,335.188 175,340.5C 175.34,349.581 171.173,352.748 162.5,350C 151.401,340.64 142.567,329.473 136,316.5C 108.414,320.746 91.7473,336.746 86,364.5C 78.4069,369.721 73.5736,367.888 71.5,359C 75.3532,337.48 86.6866,321.146 105.5,310C 113.237,305.87 121.237,302.537 129.5,300C 123.148,282.053 119.981,263.553 120,244.5C 121.025,242.313 122.525,240.646 124.5,239.5 Z"/></g>
<g><path style="opacity:1" fill="#4e8311" d="M 216.5,257.5 C 239.023,256.282 258.189,263.615 274,279.5C 287.2,299.541 282.7,314.041 260.5,323C 233.917,328.029 211.75,320.529 194,300.5C 183.683,283.498 187.183,270.331 204.5,261C 208.647,259.891 212.647,258.724 216.5,257.5 Z"/></g>
<g><path style="opacity:1" fill="#4e8311" d="M 316.5,289.5 C 330.957,289.135 339.624,295.968 342.5,310C 342.05,316.573 338.716,320.907 332.5,323C 319.2,324.938 310.033,319.771 305,307.5C 303.572,298.002 307.406,292.002 316.5,289.5 Z"/></g>
<g><path style="opacity:1" fill="#333432" d="M 407.5,299.5 C 414.395,299.398 418.061,302.732 418.5,309.5C 415.089,340.824 398.756,362.324 369.5,374C 364.622,375.806 359.622,376.473 354.5,376C 347.852,371.048 347.852,366.048 354.5,361C 384.743,354.394 400.91,335.561 403,304.5C 404.193,302.503 405.693,300.836 407.5,299.5 Z"/></g>
<g><path style="opacity:1" fill="#333432" d="M 212.5,383.5 C 219.216,384.852 225.549,387.352 231.5,391C 242.302,394.78 253.302,395.446 264.5,393C 272.553,390.218 280.386,387.052 288,383.5C 293.167,383.333 295.667,385.833 295.5,391C 295.561,393.261 294.894,395.261 293.5,397C 265.959,414.424 238.292,414.757 210.5,398C 206.072,392.332 206.738,387.498 212.5,383.5 Z"/></g>
<g><path style="opacity:1" fill="#36650c" d="M 467.5,391.5 C 460.608,422.227 441.441,438.227 410,439.5C 400.681,439.003 391.848,436.67 383.5,432.5C 363.123,442.43 343.123,441.763 323.5,430.5C 302.14,442.464 280.806,442.464 259.5,430.5C 238.14,442.464 216.806,442.464 195.5,430.5C 174.14,442.464 152.806,442.464 131.5,430.5C 117.831,438.416 103.164,441.25 87.5,439C 63.5568,432.229 49.2234,416.729 44.5,392.5C 46.4161,395.598 48.5828,398.598 51,401.5C 74.4391,425.135 101.272,429.801 131.5,415.5C 152.801,426.096 174.134,426.096 195.5,415.5C 216.801,426.096 238.134,426.096 259.5,415.5C 280.801,426.096 302.134,426.096 323.5,415.5C 343.153,425.44 363.153,426.106 383.5,417.5C 387.882,418.846 392.216,420.346 396.5,422C 426.901,427.125 450.567,416.958 467.5,391.5 Z"/></g>
<g><path style="opacity:1" fill="#f6eae2" d="M 33.5,444.5 C 40.6088,450.436 47.6088,456.603 54.5,463C 70.323,474.741 87.9897,482.407 107.5,486C 156.806,487.15 206.14,487.65 255.5,487.5C 305.191,487.648 354.857,487.148 404.5,486C 423.501,482.004 440.834,474.337 456.5,463C 463.058,456.935 469.725,451.102 476.5,445.5C 457.207,474.167 430.207,490.667 395.5,495C 301.5,495.667 207.5,495.667 113.5,495C 79.3856,489.675 52.7189,472.842 33.5,444.5 Z"/></g>
</svg>
