<?xml version="1.0" encoding="UTF-8"?>
<!DOCTYPE svg PUBLIC "-//W3C//DTD SVG 1.1//EN" "http://www.w3.org/Graphics/SVG/1.1/DTD/svg11.dtd">
<svg xmlns="http://www.w3.org/2000/svg" version="1.1" width="512px" height="512px" style="shape-rendering:geometricPrecision; text-rendering:geometricPrecision; image-rendering:optimizeQuality; fill-rule:evenodd; clip-rule:evenodd" xmlns:xlink="http://www.w3.org/1999/xlink">
<g><path style="opacity:0.979" fill="#040201" d="M 244.5,-0.5 C 251.833,-0.5 259.167,-0.5 266.5,-0.5C 285.201,4.93499 302.035,13.935 317,26.5C 321.253,31.0066 323.92,36.3399 325,42.5C 325.142,50.8391 325.142,59.1724 325,67.5C 327.315,74.6191 331.481,80.4524 337.5,85C 345.156,90.8295 353.156,96.1628 361.5,101C 369.536,107.366 374.703,115.533 377,125.5C 384.212,121.294 390.545,115.961 396,109.5C 419.661,71.5856 453.494,56.4189 497.5,64C 504.778,68.757 509.444,75.257 511.5,83.5C 511.5,89.8333 511.5,96.1667 511.5,102.5C 508.576,113.94 502.242,123.107 492.5,130C 484.671,134.08 477.004,138.413 469.5,143C 464.227,148.49 462.394,154.99 464,162.5C 467.966,173.275 468.966,184.275 467,195.5C 465.864,199.243 464.53,202.91 463,206.5C 458,212.833 453,219.167 448,225.5C 442.871,234.187 441.204,243.52 443,253.5C 445.047,260.595 447.38,267.595 450,274.5C 454.392,292.423 452.059,309.423 443,325.5C 437.751,332.996 432.751,340.663 428,348.5C 426.612,355.602 426.445,362.768 427.5,370C 427.679,392.817 419.346,411.817 402.5,427C 390.833,434.667 379.167,442.333 367.5,450C 356.51,459.648 347.01,470.482 339,482.5C 319.584,501.124 296.417,510.791 269.5,511.5C 258.833,511.5 248.167,511.5 237.5,511.5C 212.449,509.057 190.616,499.39 172,482.5C 163.99,470.482 154.49,459.648 143.5,450C 131.833,442.333 120.167,434.667 108.5,427C 88.065,407.864 80.065,384.364 84.5,356.5C 84.3184,353.774 83.8184,351.107 83,348.5C 75.9361,337.763 69.2694,326.763 63,315.5C 58.0206,302.041 57.3539,288.374 61,274.5C 63.6195,267.595 65.9529,260.595 68,253.5C 69.7959,243.52 68.1292,234.187 63,225.5C 58,219.167 53,212.833 48,206.5C 44.6299,199.555 42.7965,192.222 42.5,184.5C 43.3651,177.039 44.8651,169.706 47,162.5C 48.6063,154.99 46.7729,148.49 41.5,143C 33.9955,138.413 26.3288,134.08 18.5,130C 8.75755,123.107 2.42421,113.94 -0.5,102.5C -0.5,96.1667 -0.5,89.8333 -0.5,83.5C 4.86094,66.4723 16.5276,58.9723 34.5,61C 70.2285,62.7664 97.0618,78.9331 115,109.5C 120.455,115.961 126.788,121.294 134,125.5C 136.297,115.533 141.464,107.366 149.5,101C 162.473,94.4326 173.64,85.5993 183,74.5C 184.275,72.2827 185.275,69.9494 186,67.5C 185.858,59.1724 185.858,50.8391 186,42.5C 187.08,36.3399 189.747,31.0066 194,26.5C 208.965,13.935 225.799,4.93499 244.5,-0.5 Z"/></g>
<g><path style="opacity:1" fill="#fc7d59" d="M 247.5,15.5 C 249.857,15.3367 252.19,15.5034 254.5,16C 213.551,82.6399 203.385,153.807 224,229.5C 229.358,245.081 235.191,260.415 241.5,275.5C 239.591,293.448 239.091,311.448 240,329.5C 243.113,357.851 246.446,386.184 250,414.5C 250.667,425.833 250.667,437.167 250,448.5C 241.195,442.031 234.195,434.031 229,424.5C 228,421.167 227,417.833 226,414.5C 226.343,399.805 227.01,385.138 228,370.5C 224.257,362.013 219.257,354.346 213,347.5C 203.407,328.027 203.074,308.361 212,288.5C 215.37,275.6 213.37,263.6 206,252.5C 199.501,243.506 193.501,234.173 188,224.5C 186.263,220.339 185.263,216.005 185,211.5C 184.667,204.167 184.333,196.833 184,189.5C 182.254,186.71 179.754,185.043 176.5,184.5C 176.06,177.517 174.394,170.85 171.5,164.5C 175.175,160.632 175.342,156.632 172,152.5C 166.017,146.181 159.184,141.014 151.5,137C 148.616,130.946 149.116,125.113 153,119.5C 155.167,117.333 157.333,115.167 159.5,113C 173.668,105.663 185.834,95.8298 196,83.5C 197.941,79.9523 199.607,76.2857 201,72.5C 201.046,61.7355 201.713,51.0688 203,40.5C 215.535,28.1474 230.368,19.814 247.5,15.5 Z"/></g>
<g><path style="opacity:1" fill="#fe8e70" d="M 247.5,15.5 C 254.039,14.269 260.705,14.4356 267.5,16C 279.221,20.3599 290.221,26.0266 300.5,33C 303.704,35.8688 306.537,39.0354 309,42.5C 304.294,64.5435 310.461,82.7102 327.5,97C 335.156,102.83 343.156,108.163 351.5,113C 355.847,116.337 359.014,120.504 361,125.5C 361.738,129.261 361.405,132.928 360,136.5C 341.731,145.7 330.731,160.366 327,180.5C 326.848,193.203 326.182,205.869 325,218.5C 323.885,222.729 322.219,226.729 320,230.5C 311.716,241.403 304.716,253.07 299,265.5C 297.561,270.762 297.228,276.096 298,281.5C 299.926,289.944 302.259,298.278 305,306.5C 307.436,321.231 304.936,334.898 297.5,347.5C 281.258,331.94 266.925,314.94 254.5,296.5C 256.023,274.742 260.856,253.742 269,233.5C 269.65,228.145 267.316,224.812 262,223.5C 259.077,223.795 256.743,225.129 255,227.5C 248.927,243.199 244.427,259.199 241.5,275.5C 235.191,260.415 229.358,245.081 224,229.5C 203.385,153.807 213.551,82.6399 254.5,16C 252.19,15.5034 249.857,15.3367 247.5,15.5 Z"/></g>
<g><path style="opacity:1" fill="#fc8d6f" d="M 171.5,164.5 C 174.394,170.85 176.06,177.517 176.5,184.5C 173.737,184.744 171.571,186.077 170,188.5C 167.342,206.54 170.342,223.54 179,239.5C 186.158,249.326 192.492,259.659 198,270.5C 198.667,274.5 198.667,278.5 198,282.5C 187.111,307.715 188.111,332.381 201,356.5C 205.418,361.911 209.418,367.577 213,373.5C 213.667,378.167 213.667,382.833 213,387.5C 205.808,418.935 215.641,443.435 242.5,461C 244.046,463.257 245.712,465.424 247.5,467.5C 246.335,471.494 245.168,475.494 244,479.5C 237.167,474 230.333,468.5 223.5,463C 214.989,461.84 211.822,465.34 214,473.5C 221.914,481.418 230.414,488.585 239.5,495C 219.341,494.837 201.674,488.171 186.5,475C 179.214,466.258 172.047,457.425 165,448.5C 160.867,445.369 157.034,441.869 153.5,438C 142.004,430.085 130.338,422.418 118.5,415C 109.375,406.251 103.208,395.751 100,383.5C 99.6667,371.167 99.3333,358.833 99,346.5C 94.5565,336.397 88.8898,327.064 82,318.5C 75.4341,307.337 73.1007,295.337 75,282.5C 78.8098,272.404 81.8098,262.07 84,251.5C 85.3691,231.903 78.7025,215.569 64,202.5C 58.8208,194.942 57.1542,186.609 59,177.5C 67.0075,160.157 64.5075,144.657 51.5,131C 44.6628,126.747 37.6628,122.747 30.5,119C 16.8716,110.603 12.205,98.7697 16.5,83.5C 59.8083,112.649 91.6417,151.315 112,199.5C 120.65,222.748 125.983,246.748 128,271.5C 125.985,331.775 142.652,386.108 178,434.5C 182.264,440.55 187.098,446.05 192.5,451C 200.122,452.378 203.622,449.211 203,441.5C 172.185,406.527 153.185,365.86 146,319.5C 150.084,232.357 121.251,158.524 59.5,98C 51.1228,90.6208 42.4561,83.6208 33.5,77C 64.5465,78.3973 87.7132,92.5639 103,119.5C 106.833,123.333 110.667,127.167 114.5,131C 126.33,139.418 138.663,147.085 151.5,154C 155.8,157.298 159.8,160.965 163.5,165C 166.221,165.602 168.887,165.435 171.5,164.5 Z"/></g>
<g><path style="opacity:1" fill="#fc9f85" d="M 470.5,76.5 C 472.857,76.3367 475.19,76.5034 477.5,77C 421.577,118.304 386.411,173.138 372,241.5C 369.94,252.763 368.94,264.096 369,275.5C 372.958,280.436 377.291,280.769 382,276.5C 389.642,194.446 427.142,130.113 494.5,83.5C 498.795,98.7697 494.128,110.603 480.5,119C 469.588,123.191 460.422,129.691 453,138.5C 449.653,144.04 447.82,150.04 447.5,156.5C 448.523,163.593 450.023,170.593 452,177.5C 453.846,186.609 452.179,194.942 447,202.5C 436.546,211.966 429.879,223.632 427,237.5C 426.311,243.882 426.645,250.215 428,256.5C 430.657,265.153 433.323,273.819 436,282.5C 437.967,295.37 435.634,307.37 429,318.5C 422.11,327.064 416.443,336.397 412,346.5C 411.667,358.833 411.333,371.167 411,383.5C 407.792,395.751 401.625,406.251 392.5,415C 377.293,423.768 362.96,433.768 349.5,445C 341.622,453.876 334.122,463.043 327,472.5C 312.095,487.077 294.262,494.077 273.5,493.5C 326.944,454.195 361.444,402.195 377,337.5C 379.321,326.582 380.655,315.582 381,304.5C 377.408,298.781 373.074,298.114 368,302.5C 358.584,379.03 322.751,439.697 260.5,484.5C 259.109,478.055 260.275,472.055 264,466.5C 272.637,458.864 280.97,450.864 289,442.5C 300.003,425.477 303.003,407.143 298,387.5C 297.333,382.5 297.333,377.5 298,372.5C 322.163,345.814 327.163,315.814 313,282.5C 311.544,274.955 312.877,267.955 317,261.5C 325.271,250.63 332.271,238.963 338,226.5C 339.158,222.203 340.158,217.869 341,213.5C 341.333,202.833 341.667,192.167 342,181.5C 343.766,171.799 348.266,163.632 355.5,157C 369.336,148.583 383.002,139.916 396.5,131C 406.461,121.379 415.295,110.879 423,99.5C 436.407,86.757 452.24,79.0903 470.5,76.5 Z"/></g>
<g><path style="opacity:1" fill="#050201" d="M 190.5,118.5 C 194.794,118.198 197.961,119.864 200,123.5C 200.667,129.167 200.667,134.833 200,140.5C 195.333,147.167 190.667,147.167 186,140.5C 185.333,134.833 185.333,129.167 186,123.5C 187.025,121.313 188.525,119.646 190.5,118.5 Z"/></g>
<g><path style="opacity:1" fill="#060302" d="M 315.5,118.5 C 319.794,118.198 322.961,119.864 325,123.5C 325.667,129.167 325.667,134.833 325,140.5C 322.774,144.861 319.274,146.361 314.5,145C 312.951,143.786 311.785,142.286 311,140.5C 310.333,134.833 310.333,129.167 311,123.5C 312.025,121.313 313.525,119.646 315.5,118.5 Z"/></g>
<g><path style="opacity:1" fill="#070302" d="M 235.5,130.5 C 237.857,130.337 240.19,130.503 242.5,131C 251.135,139.598 259.802,139.598 268.5,131C 276.17,129.673 279.67,132.839 279,140.5C 271.177,150.223 261.01,154.056 248.5,152C 242.447,150.226 237.28,147.059 233,142.5C 230.511,137.757 231.345,133.757 235.5,130.5 Z"/></g>
<g><path style="opacity:1" fill="#fc7d59" d="M 254.5,296.5 C 266.925,314.94 281.258,331.94 297.5,347.5C 294.602,352.572 291.102,357.239 287,361.5C 282.711,369.653 281.378,378.319 283,387.5C 289.571,410.229 283.904,429.229 266,444.5C 265.666,430.483 264.999,416.483 264,402.5C 260.625,378.877 257.625,355.211 255,331.5C 254.5,319.838 254.333,308.171 254.5,296.5 Z"/></g>
</svg>
