<?xml version="1.0" encoding="UTF-8"?>
<!DOCTYPE svg PUBLIC "-//W3C//DTD SVG 1.1//EN" "http://www.w3.org/Graphics/SVG/1.1/DTD/svg11.dtd">
<svg xmlns="http://www.w3.org/2000/svg" version="1.1" width="512px" height="512px" style="shape-rendering:geometricPrecision; text-rendering:geometricPrecision; image-rendering:optimizeQuality; fill-rule:evenodd; clip-rule:evenodd" xmlns:xlink="http://www.w3.org/1999/xlink">
<g><path style="opacity:0.963" fill="#020001" d="M 384.5,319.5 C 382.404,317.646 381.071,315.313 380.5,312.5C 396.27,277.082 388.937,247.582 358.5,224C 346.43,217.066 333.43,213.399 319.5,213C 314.274,208.585 314.274,204.251 319.5,200C 342.339,199.612 362.172,207.112 379,222.5C 387.701,216.095 391.868,207.429 391.5,196.5C 391.719,185.769 387.719,176.936 379.5,170C 373.886,166.946 368.386,163.779 363,160.5C 362.333,158.5 362.333,156.5 363,154.5C 379.217,127.005 375.05,103.172 350.5,83C 335.841,74.0229 320.341,72.1896 304,77.5C 300.765,77.7165 298.432,76.3832 297,73.5C 291.243,43.8655 273.41,31.3655 243.5,36C 225.35,43.1631 215.017,56.4965 212.5,76C 204.479,79.8027 200.479,77.3027 200.5,68.5C 204.891,43.2714 219.558,27.4381 244.5,21C 277.125,17.5538 299.291,31.0538 311,61.5C 343.8,57.3963 367.466,70.063 382,99.5C 388.383,117.564 387.883,135.398 380.5,153C 404.457,168.872 411.624,190.372 402,217.5C 398.81,223.878 394.643,229.544 389.5,234.5C 405.61,261.123 407.11,288.456 394,316.5C 391.454,319.186 388.287,320.186 384.5,319.5 Z"/></g>
<g><path style="opacity:1" fill="#f95f95" d="M 384.5,319.5 C 380.865,325.101 376.532,330.101 371.5,334.5C 368.355,332.809 365.021,332.309 361.5,333C 347.442,342.932 331.775,347.099 314.5,345.5C 316.566,337.97 317.4,330.304 317,322.5C 312.763,317.192 308.429,317.192 304,322.5C 303.332,347 291.499,363.5 268.5,372C 239.534,377.031 219.701,365.864 209,338.5C 208.07,333.201 207.403,327.867 207,322.5C 202.489,317.243 198.156,317.243 194,322.5C 193.6,330.304 194.434,337.97 196.5,345.5C 168.049,347.358 146.216,336.358 131,312.5C 117.4,285.045 120.067,259.378 139,235.5C 139.667,233.5 139.667,231.5 139,229.5C 120.634,217.403 115.301,201.07 123,180.5C 126.721,173.779 132.054,168.779 139,165.5C 153.647,182.818 171.98,189.818 194,186.5C 196.793,181.386 195.626,177.553 190.5,175C 164.892,174.282 148.058,161.782 140,137.5C 137.697,126.525 138.197,115.692 141.5,105C 141.566,101.913 140.232,99.7459 137.5,98.5C 140.715,91.9554 145.048,86.2887 150.5,81.5C 153.007,84.036 156.007,84.8693 159.5,84C 164.774,80.5302 170.44,77.8636 176.5,76C 178.93,73.6954 179.93,70.8621 179.5,67.5C 186.543,67.2803 193.543,67.6136 200.5,68.5C 200.479,77.3027 204.479,79.8027 212.5,76C 215.017,56.4965 225.35,43.1631 243.5,36C 273.41,31.3655 291.243,43.8655 297,73.5C 298.432,76.3832 300.765,77.7165 304,77.5C 320.341,72.1896 335.841,74.0229 350.5,83C 375.05,103.172 379.217,127.005 363,154.5C 362.333,156.5 362.333,158.5 363,160.5C 368.386,163.779 373.886,166.946 379.5,170C 387.719,176.936 391.719,185.769 391.5,196.5C 391.868,207.429 387.701,216.095 379,222.5C 362.172,207.112 342.339,199.612 319.5,200C 314.274,204.251 314.274,208.585 319.5,213C 333.43,213.399 346.43,217.066 358.5,224C 388.937,247.582 396.27,277.082 380.5,312.5C 381.071,315.313 382.404,317.646 384.5,319.5 Z"/></g>
<g><path style="opacity:0.935" fill="#040102" d="M 179.5,67.5 C 179.93,70.8621 178.93,73.6954 176.5,76C 170.44,77.8636 164.774,80.5302 159.5,84C 156.007,84.8693 153.007,84.036 150.5,81.5C 149.115,78.4543 149.281,75.4543 151,72.5C 158.786,65.791 167.62,62.9577 177.5,64C 178.823,64.8159 179.489,65.9826 179.5,67.5 Z"/></g>
<g><path style="opacity:1" fill="#090305" d="M 256.5,80.5 C 265.036,80.1996 268.87,84.1996 268,92.5C 262.667,100.5 257.333,100.5 252,92.5C 250.474,87.2389 251.974,83.2389 256.5,80.5 Z"/></g>
<g><path style="opacity:0.97" fill="#020001" d="M 137.5,98.5 C 140.232,99.7459 141.566,101.913 141.5,105C 138.197,115.692 137.697,126.525 140,137.5C 148.058,161.782 164.892,174.282 190.5,175C 195.626,177.553 196.793,181.386 194,186.5C 171.98,189.818 153.647,182.818 139,165.5C 132.054,168.779 126.721,173.779 123,180.5C 115.301,201.07 120.634,217.403 139,229.5C 139.667,231.5 139.667,233.5 139,235.5C 120.067,259.378 117.4,285.045 131,312.5C 146.216,336.358 168.049,347.358 196.5,345.5C 194.434,337.97 193.6,330.304 194,322.5C 198.156,317.243 202.489,317.243 207,322.5C 207.403,327.867 208.07,333.201 209,338.5C 219.701,365.864 239.534,377.031 268.5,372C 291.499,363.5 303.332,347 304,322.5C 308.429,317.192 312.763,317.192 317,322.5C 317.4,330.304 316.566,337.97 314.5,345.5C 331.775,347.099 347.442,342.932 361.5,333C 365.021,332.309 368.355,332.809 371.5,334.5C 373.287,340.629 371.287,345.129 365.5,348C 347.819,358.471 328.986,361.971 309,358.5C 301.55,370.793 291.05,379.126 277.5,383.5C 277.667,417.835 277.5,452.168 277,486.5C 276.535,487.931 275.701,489.097 274.5,490C 261.833,490.667 249.167,490.667 236.5,490C 235.299,489.097 234.465,487.931 234,486.5C 233.5,452.168 233.333,417.835 233.5,383.5C 219.95,379.126 209.45,370.793 202,358.5C 161.267,363.137 131.933,347.137 114,310.5C 104.57,283.929 107.07,258.596 121.5,234.5C 101.893,214.116 99.3926,191.782 114,167.5C 118.907,161.922 124.407,157.089 130.5,153C 124.832,140.435 122.998,127.268 125,113.5C 125.729,108.979 127.063,104.646 129,100.5C 131.511,98.0441 134.344,97.3774 137.5,98.5 Z"/></g>
<g><path style="opacity:1" fill="#0b0405" d="M 306.5,116.5 C 315.259,115.261 319.426,118.928 319,127.5C 316.598,133.092 312.431,134.925 306.5,133C 299.899,127.504 299.899,122.004 306.5,116.5 Z"/></g>
<g><path style="opacity:1" fill="#060203" d="M 188.5,232.5 C 200.635,232.456 203.635,237.623 197.5,248C 187.907,251.116 183.407,247.616 184,237.5C 185.025,235.313 186.525,233.646 188.5,232.5 Z"/></g>
<g><path style="opacity:1" fill="#090304" d="M 296.5,249.5 C 305.015,249.844 308.515,254.177 307,262.5C 301.257,269.421 295.924,269.088 291,261.5C 289.873,256.089 291.707,252.089 296.5,249.5 Z"/></g>
<g><path style="opacity:1" fill="#090304" d="M 220.5,279.5 C 229.702,279.241 233.202,283.574 231,292.5C 225.159,299.394 219.825,299.061 215,291.5C 214.333,289.167 214.333,286.833 215,284.5C 216.73,282.598 218.563,280.931 220.5,279.5 Z"/></g>
<g><path style="opacity:1" fill="#f5cbba" d="M 247.5,387.5 C 252.833,387.5 258.167,387.5 263.5,387.5C 263.5,417.167 263.5,446.833 263.5,476.5C 258.167,476.5 252.833,476.5 247.5,476.5C 247.5,446.833 247.5,417.167 247.5,387.5 Z"/></g>
</svg>
