<?xml version="1.0" encoding="UTF-8"?>
<!DOCTYPE svg PUBLIC "-//W3C//DTD SVG 1.1//EN" "http://www.w3.org/Graphics/SVG/1.1/DTD/svg11.dtd">
<svg xmlns="http://www.w3.org/2000/svg" version="1.1" width="512px" height="512px" style="shape-rendering:geometricPrecision; text-rendering:geometricPrecision; image-rendering:optimizeQuality; fill-rule:evenodd; clip-rule:evenodd" xmlns:xlink="http://www.w3.org/1999/xlink">
<g><path style="opacity:0.988" fill="#061a25" d="M 360.5,279.5 C 353.73,279.217 350.563,275.551 351,268.5C 346.802,230.111 342.135,191.777 337,153.5C 335.668,143.188 335.001,132.855 335,122.5C 338.925,118.59 342.925,118.59 347,122.5C 347.57,126.76 348.403,130.926 349.5,135C 389.756,142.849 427.089,135.849 461.5,114C 465.5,110.667 469.5,107.333 473.5,104C 426.416,82.8605 379.416,61.5271 332.5,40C 303.122,27.2141 275.789,30.5474 250.5,50C 237.825,62.8565 230.658,78.3565 229,96.5C 228.333,103.833 228.333,111.167 229,118.5C 234.251,172.84 239.584,227.173 245,281.5C 245.948,289.823 246.282,298.156 246,306.5C 242.385,311.423 238.385,311.756 234,307.5C 232.537,296.872 231.203,286.206 230,275.5C 218.295,264.793 206.295,254.459 194,244.5C 192.18,241.247 192.013,237.913 193.5,234.5C 196.259,232.707 199.259,232.207 202.5,233C 210.667,239.833 218.833,246.667 227,253.5C 222.603,205.698 218.103,157.864 213.5,110C 213.253,85.0718 220.753,62.9051 236,43.5C 262.157,20.0873 292.323,12.9206 326.5,22C 380.952,46.0589 435.285,70.3923 489.5,95C 492.902,98.719 493.402,102.886 491,107.5C 457.962,140.074 418.129,154.908 371.5,152C 364.879,151.742 358.379,150.909 352,149.5C 356.254,190.532 361.087,231.532 366.5,272.5C 365.892,276.103 363.892,278.436 360.5,279.5 Z"/></g>
<g><path style="opacity:1" fill="#f3a76b" d="M 360.5,279.5 C 360.423,283.215 360.756,286.881 361.5,290.5C 357.713,291.95 355.38,294.617 354.5,298.5C 355.17,303.86 356.003,309.193 357,314.5C 358.715,317.397 361.215,318.731 364.5,318.5C 365.087,322.206 365.754,325.873 366.5,329.5C 361.582,330.424 359.249,333.424 359.5,338.5C 363.413,361.71 365.247,385.043 365,408.5C 354.09,458.722 322.924,481.888 271.5,478C 244.176,474.252 217.843,466.919 192.5,456C 148.586,436.726 107.92,412.392 70.5,383C 33.6766,346.215 24.1766,303.382 42,254.5C 54.6396,227.87 75.4729,211.703 104.5,206C 130.088,203.06 152.754,209.727 172.5,226C 176.103,226.843 179.436,226.343 182.5,224.5C 186.167,227.833 189.833,231.167 193.5,234.5C 192.013,237.913 192.18,241.247 194,244.5C 206.295,254.459 218.295,264.793 230,275.5C 231.203,286.206 232.537,296.872 234,307.5C 238.385,311.756 242.385,311.423 246,306.5C 246.282,298.156 245.948,289.823 245,281.5C 239.584,227.173 234.251,172.84 229,118.5C 228.333,111.167 228.333,103.833 229,96.5C 230.658,78.3565 237.825,62.8565 250.5,50C 275.789,30.5474 303.122,27.2141 332.5,40C 379.416,61.5271 426.416,82.8605 473.5,104C 469.5,107.333 465.5,110.667 461.5,114C 427.089,135.849 389.756,142.849 349.5,135C 348.403,130.926 347.57,126.76 347,122.5C 342.925,118.59 338.925,118.59 335,122.5C 335.001,132.855 335.668,143.188 337,153.5C 342.135,191.777 346.802,230.111 351,268.5C 350.563,275.551 353.73,279.217 360.5,279.5 Z"/></g>
<g><path style="opacity:1" fill="#0b1b26" d="M 246.5,152.5 C 251.772,151.549 255.272,153.549 257,158.5C 258.332,168.144 258.998,177.81 259,187.5C 256.442,191.212 252.942,192.378 248.5,191C 247.299,190.097 246.465,188.931 246,187.5C 244.301,176.882 243.634,166.216 244,155.5C 245.045,154.627 245.878,153.627 246.5,152.5 Z"/></g>
<g><path style="opacity:0.985" fill="#061925" d="M 182.5,224.5 C 179.436,226.343 176.103,226.843 172.5,226C 152.754,209.727 130.088,203.06 104.5,206C 75.4729,211.703 54.6396,227.87 42,254.5C 24.1766,303.382 33.6766,346.215 70.5,383C 107.92,412.392 148.586,436.726 192.5,456C 217.843,466.919 244.176,474.252 271.5,478C 322.924,481.888 354.09,458.722 365,408.5C 365.247,385.043 363.413,361.71 359.5,338.5C 359.249,333.424 361.582,330.424 366.5,329.5C 371.099,329.599 373.599,331.932 374,336.5C 377.765,359.71 379.765,383.043 380,406.5C 375.261,444.175 355.761,471.008 321.5,487C 314.99,489.294 308.323,490.961 301.5,492C 266.606,493.795 232.939,488.129 200.5,475C 152.599,455.895 108.266,430.895 67.5,400C 19.2331,357.101 6.7331,305.601 30,245.5C 48.2533,210.522 77.2533,192.188 117,190.5C 139.313,191.16 159.48,197.993 177.5,211C 182.73,214.277 184.397,218.777 182.5,224.5 Z"/></g>
<g><path style="opacity:1" fill="#091b26" d="M 105.5,238.5 C 111.05,237.433 114.383,239.6 115.5,245C 105.88,267.872 100.047,291.705 98,316.5C 96.8344,329.487 95.8344,342.487 95,355.5C 94.2884,358.95 92.1218,360.616 88.5,360.5C 82.6093,359.586 80.276,356.086 81.5,350C 81.9339,315.172 87.7673,281.339 99,248.5C 100.458,244.552 102.625,241.219 105.5,238.5 Z"/></g>
<g><path style="opacity:1" fill="#091b26" d="M 152.5,272.5 C 158.183,271.169 161.849,273.169 163.5,278.5C 154.403,300.963 148.903,324.297 147,348.5C 146.112,358.485 145.445,368.485 145,378.5C 143.588,383.291 140.421,385.124 135.5,384C 133.951,382.786 132.785,381.286 132,379.5C 131.643,352.781 134.643,326.447 141,300.5C 143.471,290.565 147.304,281.232 152.5,272.5 Z"/></g>
<g><path style="opacity:0.982" fill="#091b26" d="M 361.5,290.5 C 364.099,290.549 366.266,291.549 368,293.5C 370.099,300.68 370.765,308.014 370,315.5C 368.736,317.607 366.903,318.607 364.5,318.5C 361.215,318.731 358.715,317.397 357,314.5C 356.003,309.193 355.17,303.86 354.5,298.5C 355.38,294.617 357.713,291.95 361.5,290.5 Z"/></g>
<g><path style="opacity:1" fill="#081b26" d="M 201.5,305.5 C 206.829,304.671 210.163,306.838 211.5,312C 200.78,341.148 195.28,371.315 195,402.5C 192.156,407.866 188.156,408.866 183,405.5C 181.911,401.952 181.411,398.285 181.5,394.5C 182.578,369.697 186.412,345.364 193,321.5C 194.809,315.535 197.642,310.201 201.5,305.5 Z"/></g>
<g><path style="opacity:1" fill="#0a1b26" d="M 250.5,338.5 C 255.59,338.266 258.59,340.599 259.5,345.5C 249.854,371.57 245.021,398.57 245,426.5C 241.087,432.617 236.754,432.951 232,427.5C 231.027,401.924 234.36,376.924 242,352.5C 243.605,346.932 246.439,342.265 250.5,338.5 Z"/></g>
</svg>
