<?xml version="1.0" encoding="UTF-8"?>
<!DOCTYPE svg PUBLIC "-//W3C//DTD SVG 1.1//EN" "http://www.w3.org/Graphics/SVG/1.1/DTD/svg11.dtd">
<svg xmlns="http://www.w3.org/2000/svg" version="1.1" width="512px" height="512px" style="shape-rendering:geometricPrecision; text-rendering:geometricPrecision; image-rendering:optimizeQuality; fill-rule:evenodd; clip-rule:evenodd" xmlns:xlink="http://www.w3.org/1999/xlink">
<g><path style="opacity:0.983" fill="#030201" d="M 344.5,46.5 C 342.112,51.7759 337.945,53.7759 332,52.5C 289.627,47.3761 247.127,46.2094 204.5,49C 171.149,51.8384 139.149,59.6718 108.5,72.5C 88.3861,80.7217 70.3861,92.2217 54.5,107C 61.0476,104.728 67.3809,101.894 73.5,98.5C 118.499,81.0663 165.165,71.2329 213.5,69C 270.719,65.7607 327.386,69.7607 383.5,81C 409.259,87.4705 433.926,96.4705 457.5,108C 435.135,87.144 409.135,72.4773 379.5,64C 375.043,61.9206 373.043,58.4206 373.5,53.5C 374.861,50.2177 377.361,48.2177 381,47.5C 420.626,58.2984 453.959,78.965 481,109.5C 497.855,132.54 508.022,158.207 511.5,186.5C 511.5,198.5 511.5,210.5 511.5,222.5C 507.127,251.783 497.627,279.449 483,305.5C 444.299,372.202 391.132,424.035 323.5,461C 302.167,472.166 279.5,478.666 255.5,480.5C 231.5,478.666 208.833,472.166 187.5,461C 119.868,424.035 66.7014,372.202 28,305.5C 13.3732,279.449 3.8732,251.783 -0.5,222.5C -0.5,211.167 -0.5,199.833 -0.5,188.5C 6.26882,133.135 34.2688,92.3017 83.5,66C 126.747,45.1481 172.413,33.8148 220.5,32C 254.571,30.1453 288.571,31.1453 322.5,35C 329.036,35.5034 335.369,36.8367 341.5,39C 343.377,41.126 344.377,43.626 344.5,46.5 Z"/></g>
<g><path style="opacity:0.997" fill="#f6cf73" d="M 344.5,46.5 C 354.307,48.3686 363.973,50.7019 373.5,53.5C 373.043,58.4206 375.043,61.9206 379.5,64C 409.135,72.4773 435.135,87.144 457.5,108C 433.926,96.4705 409.259,87.4705 383.5,81C 327.386,69.7607 270.719,65.7607 213.5,69C 165.165,71.2329 118.499,81.0663 73.5,98.5C 83.4049,88.6139 94.7382,80.6139 107.5,74.5C 108.298,74.0431 108.631,73.3764 108.5,72.5C 139.149,59.6718 171.149,51.8384 204.5,49C 247.127,46.2094 289.627,47.3761 332,52.5C 337.945,53.7759 342.112,51.7759 344.5,46.5 Z"/></g>
<g><path style="opacity:1" fill="#c39f5a" d="M 108.5,72.5 C 108.631,73.3764 108.298,74.0431 107.5,74.5C 94.7382,80.6139 83.4049,88.6139 73.5,98.5C 67.3809,101.894 61.0476,104.728 54.5,107C 70.3861,92.2217 88.3861,80.7217 108.5,72.5 Z"/></g>
<g><path style="opacity:1" fill="#f7ad6f" d="M 29.5,215.5 C 28.3454,208.679 28.1787,201.679 29,194.5C 35.1667,188.333 41.3333,182.167 47.5,176C 58.1344,168.206 68.8011,160.706 79.5,153.5C 105.725,142.272 133.059,134.439 161.5,130C 232.469,119.872 303.135,121.539 373.5,135C 376.833,135.667 380.167,135.667 383.5,135C 389.062,129.837 388.729,125.171 382.5,121C 326.068,109.391 269.068,105.391 211.5,109C 162.633,111.072 115.633,121.406 70.5,140C 58.6598,145.417 47.3265,151.583 36.5,158.5C 36.7657,149.637 40.4323,142.137 47.5,136C 59.2457,126.804 71.579,118.638 84.5,111.5C 105.653,102.54 127.653,96.0401 150.5,92C 221.901,80.4949 293.234,80.8282 364.5,93C 404.593,100.021 441.26,115.021 474.5,138C 477.369,141.204 480.535,144.037 484,146.5C 488.228,154.761 490.895,163.428 492,172.5C 471.225,155.356 448.058,142.189 422.5,133C 413.667,131.167 410.167,134.667 412,143.5C 413.167,144.667 414.333,145.833 415.5,147C 446.182,157.415 472.682,174.248 495,197.5C 495.667,205.5 495.667,213.5 495,221.5C 494.808,223.577 494.308,225.577 493.5,227.5C 464.5,198.155 429.833,178.321 389.5,168C 317.909,150.269 245.576,146.602 172.5,157C 130.767,162.022 91.7674,175.022 55.5,196C 46.3905,201.947 37.7239,208.447 29.5,215.5 Z"/></g>
<g><path style="opacity:1" fill="#c5854c" d="M 84.5,111.5 C 71.579,118.638 59.2457,126.804 47.5,136C 40.4323,142.137 36.7657,149.637 36.5,158.5C 30.6451,163.027 24.8117,167.694 19,172.5C 20.1533,165.025 22.1533,157.692 25,150.5C 25.8834,147.898 27.3834,145.731 29.5,144C 45.9427,130.107 64.276,119.273 84.5,111.5 Z"/></g>
<g><path style="opacity:1" fill="#c7864d" d="M 79.5,153.5 C 68.8011,160.706 58.1344,168.206 47.5,176C 41.3333,182.167 35.1667,188.333 29,194.5C 28.1787,201.679 28.3454,208.679 29.5,215.5C 25.5368,219.964 21.3702,224.298 17,228.5C 15.5295,218.207 15.1961,207.873 16,197.5C 34,178.251 55.1667,163.584 79.5,153.5 Z"/></g>
<g><path style="opacity:1" fill="#faaf70" d="M 213.5,454.5 C 147.059,418.227 94.8919,367.227 57,301.5C 56.3333,300.5 56.3333,299.5 57,298.5C 72.7183,276.932 92.2183,259.932 115.5,247.5C 138.19,237.888 161.856,231.388 186.5,228C 217.368,223.839 248.368,222.505 279.5,224C 297.161,225.757 314.828,227.091 332.5,228C 336.212,225.487 337.378,221.987 336,217.5C 335.626,216.584 335.126,215.75 334.5,215C 320.042,211.591 305.376,209.591 290.5,209C 238.285,204.777 186.952,209.444 136.5,223C 101.234,232.837 70.5672,250.337 44.5,275.5C 40.4742,267.266 37.3075,258.599 35,249.5C 34.3653,247.365 34.6986,245.365 36,243.5C 51.4133,223.602 69.9133,207.602 91.5,195.5C 118.637,183.796 146.97,175.963 176.5,172C 228.852,166.071 281.185,166.071 333.5,172C 371.533,176.9 407.533,188.233 441.5,206C 460.023,216.69 475.856,230.523 489,247.5C 485.944,260.659 481.277,273.326 475,285.5C 447.846,254.156 414.013,233.323 373.5,223C 364.667,221.167 361.167,224.667 363,233.5C 363.833,234.5 364.667,235.5 365.5,236.5C 395.619,244.558 422.619,258.391 446.5,278C 453.739,284.569 460.239,291.735 466,299.5C 466.667,300.5 466.667,301.5 466,302.5C 431.5,359.667 385.667,405.5 328.5,440C 309.504,451.221 289.171,458.887 267.5,463C 248.553,465.372 230.553,462.539 213.5,454.5 Z"/></g>
<g><path style="opacity:1" fill="#c8864d" d="M 91.5,195.5 C 69.9133,207.602 51.4133,223.602 36,243.5C 34.6986,245.365 34.3653,247.365 35,249.5C 37.3075,258.599 40.4742,267.266 44.5,275.5C 41.9118,278.988 39.0785,282.321 36,285.5C 29.7228,273.326 25.0561,260.659 22,247.5C 40.7282,224.221 63.8949,206.887 91.5,195.5 Z"/></g>
<g><path style="opacity:1" fill="#c7864d" d="M 115.5,247.5 C 92.2183,259.932 72.7183,276.932 57,298.5C 56.3333,299.5 56.3333,300.5 57,301.5C 94.8919,367.227 147.059,418.227 213.5,454.5C 190.999,445.251 169.999,433.418 150.5,419C 107.912,386.752 72.7456,347.919 45,302.5C 44.3333,301.5 44.3333,300.5 45,299.5C 63.5478,275.474 87.0478,258.14 115.5,247.5 Z"/></g>
</svg>
