<?xml version="1.0" encoding="UTF-8"?>
<!DOCTYPE svg PUBLIC "-//W3C//DTD SVG 1.1//EN" "http://www.w3.org/Graphics/SVG/1.1/DTD/svg11.dtd">
<svg xmlns="http://www.w3.org/2000/svg" version="1.1" width="512px" height="512px" style="shape-rendering:geometricPrecision; text-rendering:geometricPrecision; image-rendering:optimizeQuality; fill-rule:evenodd; clip-rule:evenodd" xmlns:xlink="http://www.w3.org/1999/xlink">
<g><path style="opacity:0.984" fill="#020100" d="M 155.5,-0.5 C 161.833,-0.5 168.167,-0.5 174.5,-0.5C 180.792,1.47678 186.792,4.31011 192.5,8C 230.211,41.8876 258.711,82.3876 278,129.5C 328.937,95.353 385.104,76.0196 446.5,71.5C 466.368,72.6727 480.201,82.3394 488,100.5C 497.476,151.325 495.142,201.659 481,251.5C 474.914,273.091 467.248,294.091 458,314.5C 455.093,317.861 451.593,318.861 447.5,317.5C 444.349,314.864 443.182,311.531 444,307.5C 466.876,258.539 478.376,207.039 478.5,153C 478.513,144.465 478.013,135.965 477,127.5C 463.816,178.059 443.816,225.726 417,270.5C 385.927,322.735 350.427,371.735 310.5,417.5C 301.074,427.486 291.241,437.153 281,446.5C 267.689,467.479 250.189,483.979 228.5,496C 236.345,496.822 244.011,496.656 251.5,495.5C 286.196,490.483 316.529,476.316 342.5,453C 378.219,417.71 407.719,377.877 431,333.5C 433.651,329.536 437.151,328.536 441.5,330.5C 445.252,332.794 446.419,336.128 445,340.5C 422.208,382.957 394.375,421.79 361.5,457C 331.536,486.315 295.869,504.482 254.5,511.5C 243.5,511.5 232.5,511.5 221.5,511.5C 215.145,510.128 208.645,508.795 202,507.5C 195.023,508.798 188.189,510.131 181.5,511.5C 170.5,511.5 159.5,511.5 148.5,511.5C 94.8045,501.71 56.9712,471.71 35,421.5C 22.3769,390.433 16.2103,358.1 16.5,324.5C 16.6252,272.163 23.7919,220.829 38,170.5C 39.4696,165.757 41.1363,161.091 43,156.5C 45.3046,154.07 48.1379,153.07 51.5,153.5C 52.3149,154.837 53.4815,155.837 55,156.5C 55.9581,158.199 56.4581,160.033 56.5,162C 37.9762,221.772 30.1429,282.939 33,345.5C 35.3246,382.81 46.9912,416.81 68,447.5C 79.0444,461.552 92.211,473.052 107.5,482C 112.273,484.898 117.273,486.898 122.5,488C 111.598,474.034 103.432,458.534 98,441.5C 89.7629,413.412 84.7629,384.745 83,355.5C 79.8194,281.792 85.486,208.792 100,136.5C 107.637,101.261 118.637,67.2611 133,34.5C 103.583,64.9674 80.9165,99.9674 65,139.5C 62.4355,141.179 59.6021,141.846 56.5,141.5C 51.4853,138.278 50.3187,133.945 53,128.5C 71.8983,82.9478 99.3983,43.4478 135.5,10C 141.544,5.14612 148.211,1.64612 155.5,-0.5 Z"/></g>
<g><path style="opacity:1" fill="#2c1511" d="M 156.5,23.5 C 156.56,22.9569 156.893,22.6236 157.5,22.5C 158.833,180.333 158.833,337.999 157.5,495.5C 157.833,337.999 157.5,180.666 156.5,23.5 Z"/></g>
<g><path style="opacity:1" fill="#99493a" d="M 174.5,24.5 C 173.833,102.666 173.5,180.999 173.5,259.5C 173.5,338.17 174.167,416.503 175.5,494.5C 174.791,495.404 173.791,495.737 172.5,495.5C 172.333,337.833 172.5,180.166 173,22.5C 173.717,23.0442 174.217,23.7109 174.5,24.5 Z"/></g>
<g><path style="opacity:1" fill="#cb614d" d="M 156.5,23.5 C 157.5,180.666 157.833,337.999 157.5,495.5C 148.217,492.399 140.384,487.066 134,479.5C 119.294,458.742 109.627,435.742 105,410.5C 99.3074,379.097 96.8074,347.43 97.5,315.5C 97.2304,257.271 102.73,199.604 114,142.5C 122.135,100.589 136.302,60.9219 156.5,23.5 Z"/></g>
<g><path style="opacity:1" fill="#cb614d" d="M 174.5,24.5 C 194.899,62.1913 209.066,102.191 217,144.5C 221.309,165.351 224.642,186.351 227,207.5C 229.619,236.861 231.952,266.194 234,295.5C 238.709,299.769 243.042,299.436 247,294.5C 246.789,224.456 237.122,155.789 218,88.5C 214.765,78.3725 211.265,68.3725 207.5,58.5C 207.775,56.1582 208.608,56.1582 210,58.5C 241.496,102.603 263.163,151.269 275,204.5C 284.867,251.3 288.867,298.633 287,346.5C 284.74,385.99 272.073,421.656 249,453.5C 243.199,460.302 237.032,466.802 230.5,473C 224.603,477.418 218.936,481.918 213.5,486.5C 211.948,487.622 210.282,488.122 208.5,488C 221.265,470.635 230.431,451.468 236,430.5C 244.812,395.377 248.812,359.711 248,323.5C 243.781,317.258 239.115,316.925 234,322.5C 234.254,361.644 228.92,399.978 218,437.5C 212.387,457.753 201.887,474.92 186.5,489C 183.09,491.372 179.423,493.205 175.5,494.5C 174.167,416.503 173.5,338.17 173.5,259.5C 173.5,180.999 173.833,102.666 174.5,24.5 Z"/></g>
<g><path style="opacity:1" fill="#ca614d" d="M 51.5,153.5 C 53.5388,149.734 55.2055,145.734 56.5,141.5C 59.6021,141.846 62.4355,141.179 65,139.5C 80.9165,99.9674 103.583,64.9674 133,34.5C 118.637,67.2611 107.637,101.261 100,136.5C 85.486,208.792 79.8194,281.792 83,355.5C 84.7629,384.745 89.7629,413.412 98,441.5C 103.432,458.534 111.598,474.034 122.5,488C 117.273,486.898 112.273,484.898 107.5,482C 92.211,473.052 79.0444,461.552 68,447.5C 46.9912,416.81 35.3246,382.81 33,345.5C 30.1429,282.939 37.9762,221.772 56.5,162C 56.4581,160.033 55.9581,158.199 55,156.5C 53.4815,155.837 52.3149,154.837 51.5,153.5 Z"/></g>
<g><path style="opacity:1" fill="#b85548" d="M 213.5,486.5 C 218.936,481.918 224.603,477.418 230.5,473C 237.032,466.802 243.199,460.302 249,453.5C 272.073,421.656 284.74,385.99 287,346.5C 288.867,298.633 284.867,251.3 275,204.5C 263.163,151.269 241.496,102.603 210,58.5C 208.608,56.1582 207.775,56.1582 207.5,58.5C 203.506,50.3454 200.006,42.0121 197,33.5C 241.276,81.7079 270.609,138.041 285,202.5C 298.012,258.652 301.012,315.319 294,372.5C 287.209,413.947 267.709,447.78 235.5,474C 228.535,478.795 221.202,482.961 213.5,486.5 Z"/></g>
<g><path style="opacity:1" fill="#964c36" d="M 305.5,175.5 C 304.25,175.423 303.417,174.756 303,173.5C 299.656,161.969 295.823,150.635 291.5,139.5C 333.14,112.025 378.806,95.1919 428.5,89C 395.952,105.429 365.618,125.095 337.5,148C 326.961,157.376 316.294,166.543 305.5,175.5 Z"/></g>
<g><path style="opacity:1" fill="#974d36" d="M 321.5,259.5 C 318.174,237.497 314.174,215.497 309.5,193.5C 348.85,153.812 393.85,121.979 444.5,98C 447.089,96.6859 449.756,96.0192 452.5,96C 409.349,150.976 365.683,205.476 321.5,259.5 Z"/></g>
<g><path style="opacity:1" fill="#984d36" d="M 322.5,379.5 C 321.853,378.726 321.52,377.726 321.5,376.5C 326.137,345.261 326.804,313.928 323.5,282.5C 370.453,223.042 417.619,163.708 465,104.5C 459.391,140.333 448.724,174.666 433,207.5C 402.875,269.484 366.042,326.817 322.5,379.5 Z"/></g>
<g><path style="opacity:1" fill="#984d36" d="M 447.5,317.5 C 445.774,321.953 443.774,326.286 441.5,330.5C 437.151,328.536 433.651,329.536 431,333.5C 407.719,377.877 378.219,417.71 342.5,453C 316.529,476.316 286.196,490.483 251.5,495.5C 250.448,495.649 249.448,495.483 248.5,495C 277.861,476.137 298.527,450.304 310.5,417.5C 350.427,371.735 385.927,322.735 417,270.5C 443.816,225.726 463.816,178.059 477,127.5C 478.013,135.965 478.513,144.465 478.5,153C 478.376,207.039 466.876,258.539 444,307.5C 443.182,311.531 444.349,314.864 447.5,317.5 Z"/></g>
<g><path style="opacity:1" fill="#8a4433" d="M 291.5,139.5 C 295.823,150.635 299.656,161.969 303,173.5C 303.417,174.756 304.25,175.423 305.5,175.5C 303.038,178.464 300.371,181.297 297.5,184C 296.517,184.591 295.85,184.257 295.5,183C 292.001,170.335 288.001,157.835 283.5,145.5C 285.762,143.028 288.428,141.028 291.5,139.5 Z"/></g>
<g><path style="opacity:1" fill="#894333" d="M 309.5,193.5 C 314.174,215.497 318.174,237.497 321.5,259.5C 318.626,264.554 315.126,269.22 311,273.5C 309.234,249.742 305.734,226.242 300.5,203C 302.962,199.37 305.962,196.203 309.5,193.5 Z"/></g>
<g><path style="opacity:1" fill="#884332" d="M 323.5,282.5 C 326.804,313.928 326.137,345.261 321.5,376.5C 321.52,377.726 321.853,378.726 322.5,379.5C 315.879,387.96 309.046,396.293 302,404.5C 311.264,368.859 314.931,332.526 313,295.5C 316.04,290.731 319.54,286.397 323.5,282.5 Z"/></g>
<g><path style="opacity:1" fill="#894333" d="M 310.5,417.5 C 298.527,450.304 277.861,476.137 248.5,495C 249.448,495.483 250.448,495.649 251.5,495.5C 244.011,496.656 236.345,496.822 228.5,496C 250.189,483.979 267.689,467.479 281,446.5C 291.241,437.153 301.074,427.486 310.5,417.5 Z"/></g>
</svg>
