<?xml version="1.0" encoding="UTF-8"?>
<!DOCTYPE svg PUBLIC "-//W3C//DTD SVG 1.1//EN" "http://www.w3.org/Graphics/SVG/1.1/DTD/svg11.dtd">
<svg xmlns="http://www.w3.org/2000/svg" version="1.1" width="512px" height="512px" style="shape-rendering:geometricPrecision; text-rendering:geometricPrecision; image-rendering:optimizeQuality; fill-rule:evenodd; clip-rule:evenodd" xmlns:xlink="http://www.w3.org/1999/xlink">
<g><path style="opacity:0.984" fill="#020101" d="M 156.5,-0.5 C 222.5,-0.5 288.5,-0.5 354.5,-0.5C 370.027,4.19751 379.527,14.5308 383,30.5C 383.333,42.1667 383.667,53.8333 384,65.5C 396.211,89.2552 407.878,113.255 419,137.5C 420.973,143.696 422.306,150.029 423,156.5C 423.5,174.83 423.667,193.164 423.5,211.5C 443.35,204.952 459.517,209.952 472,226.5C 480.873,244.762 478.04,260.929 463.5,275C 459.779,277.527 455.779,279.527 451.5,281C 442.224,282.92 432.891,284.42 423.5,285.5C 423.5,295.833 423.5,306.167 423.5,316.5C 462.987,321.822 490.487,342.822 506,379.5C 508.166,386.208 509.999,392.874 511.5,399.5C 511.5,409.167 511.5,418.833 511.5,428.5C 501.5,473.833 473.833,501.5 428.5,511.5C 327.5,511.5 226.5,511.5 125.5,511.5C 104.516,505.68 92.0164,492.013 88,470.5C 87.5,443.835 87.3334,417.169 87.5,390.5C 40.8916,380.557 11.5583,352.557 -0.5,306.5C -0.5,301.167 -0.5,295.833 -0.5,290.5C 3.99004,277.903 12.99,271.07 26.5,270C 28.286,269.215 29.786,268.049 31,266.5C 41.3333,251.5 51.6667,236.5 62,221.5C 68.0218,211.913 76.5218,205.913 87.5,203.5C 87.3334,187.83 87.5001,172.163 88,156.5C 89.2446,146.434 91.9112,136.767 96,127.5C 106.333,106.833 116.667,86.1667 127,65.5C 127.333,53.8333 127.667,42.1667 128,30.5C 131.473,14.5308 140.973,4.19751 156.5,-0.5 Z"/></g>
<g><path style="opacity:1" fill="#d59a8b" d="M 225.5,14.5 C 220.903,18.9423 217.737,24.2756 216,30.5C 215.5,40.1609 215.334,49.8276 215.5,59.5C 210.214,60.1265 207.88,63.1265 208.5,68.5C 201.5,67.1667 194.5,67.1667 187.5,68.5C 188.265,64.1918 186.598,61.3584 182.5,60C 169.171,59.5001 155.837,59.3334 142.5,59.5C 142.105,49.4343 142.605,39.4343 144,29.5C 146.899,22.2684 152.066,17.4351 159.5,15C 181.497,14.5 203.497,14.3334 225.5,14.5 Z"/></g>
<g><path style="opacity:1" fill="#dfada1" d="M 225.5,14.5 C 267.168,14.3333 308.835,14.5 350.5,15C 358.502,17.0029 364.002,21.8362 367,29.5C 368.395,39.4343 368.895,49.4343 368.5,59.5C 317.5,59.5 266.5,59.5 215.5,59.5C 215.334,49.8276 215.5,40.1609 216,30.5C 217.737,24.2756 220.903,18.9423 225.5,14.5 Z"/></g>
<g><path style="opacity:1" fill="#f1d0a4" d="M 208.5,68.5 C 209.057,71.0499 210.39,73.0499 212.5,74.5C 207.072,83.0209 202.405,92.0209 198.5,101.5C 193.187,98.0761 189.02,99.0761 186,104.5C 185.01,111.344 185.51,118.01 187.5,124.5C 180.864,134.408 177.197,145.408 176.5,157.5C 152.5,157.5 128.5,157.5 104.5,157.5C 104.5,155.833 104.5,154.167 104.5,152.5C 105.082,146.919 106.582,141.586 109,136.5C 119.167,116.167 129.333,95.8333 139.5,75.5C 153.822,74.6672 168.155,74.1672 182.5,74C 185.421,73.2484 187.087,71.4151 187.5,68.5C 194.5,67.1667 201.5,67.1667 208.5,68.5 Z"/></g>
<g><path style="opacity:1" fill="#fee3c1" d="M 212.5,74.5 C 265.504,74.1667 318.504,74.5001 371.5,75.5C 381.667,95.8333 391.833,116.167 402,136.5C 404.418,141.586 405.918,146.919 406.5,152.5C 406.5,154.167 406.5,155.833 406.5,157.5C 329.833,157.5 253.167,157.5 176.5,157.5C 177.197,145.408 180.864,134.408 187.5,124.5C 192.712,127.758 196.878,126.758 200,121.5C 200.667,115.5 200.667,109.5 200,103.5C 199.283,102.956 198.783,102.289 198.5,101.5C 202.405,92.0209 207.072,83.0209 212.5,74.5 Z"/></g>
<g><path style="opacity:1" fill="#060504" d="M 198.5,101.5 C 198.783,102.289 199.283,102.956 200,103.5C 200.667,109.5 200.667,115.5 200,121.5C 196.878,126.758 192.712,127.758 187.5,124.5C 185.51,118.01 185.01,111.344 186,104.5C 189.02,99.0761 193.187,98.0761 198.5,101.5 Z"/></g>
<g><path style="opacity:1" fill="#060504" d="M 314.5,99.5 C 319.28,98.6409 322.78,100.308 325,104.5C 325.667,109.833 325.667,115.167 325,120.5C 322.91,126.292 319.076,127.792 313.5,125C 312.299,124.097 311.465,122.931 311,121.5C 310.333,115.5 310.333,109.5 311,103.5C 312.376,102.295 313.542,100.962 314.5,99.5 Z"/></g>
<g><path style="opacity:1" fill="#070605" d="M 235.5,111.5 C 241.005,110.586 245.338,112.42 248.5,117C 256.223,119.649 262.89,117.983 268.5,112C 279.522,111.697 282.022,116.197 276,125.5C 261.673,136.414 247.673,136.08 234,124.5C 230.287,119.589 230.787,115.256 235.5,111.5 Z"/></g>
<g><path style="opacity:1" fill="#d9c1a1" d="M 104.5,152.5 C 104.5,154.167 104.5,155.833 104.5,157.5C 128.5,157.5 152.5,157.5 176.5,157.5C 253.167,157.5 329.833,157.5 406.5,157.5C 406.5,155.833 406.5,154.167 406.5,152.5C 407.461,154.265 407.795,156.265 407.5,158.5C 306.167,158.5 204.833,158.5 103.5,158.5C 103.205,156.265 103.539,154.265 104.5,152.5 Z"/></g>
<g><path style="opacity:1" fill="#fde2c0" d="M 175.5,173.5 C 175.169,197.006 175.502,220.339 176.5,243.5C 175.054,244.613 173.387,244.78 171.5,244C 154.675,231.754 137.675,219.754 120.5,208C 114.829,205.054 108.829,203.22 102.5,202.5C 102.5,192.833 102.5,183.167 102.5,173.5C 126.833,173.5 151.167,173.5 175.5,173.5 Z"/></g>
<g><path style="opacity:1" fill="#fdf1dd" d="M 175.5,173.5 C 253.167,173.5 330.833,173.5 408.5,173.5C 408.5,187.5 408.5,201.5 408.5,215.5C 342.698,229.561 276.865,243.561 211,257.5C 207.298,254.81 203.798,251.643 200.5,248C 193.009,244.008 185.009,242.508 176.5,243.5C 175.502,220.339 175.169,197.006 175.5,173.5 Z"/></g>
<g><path style="opacity:1" fill="#fccf53" d="M 127.5,231.5 C 122.887,238.62 118.054,245.62 113,252.5C 112.472,253.816 112.972,254.483 114.5,254.5C 93.5841,258.305 72.5841,262.305 51.5,266.5C 50.479,265.998 50.3123,265.332 51,264.5C 60.8904,249.888 71.3904,235.721 82.5,222C 91.8024,216.78 101.469,216.113 111.5,220C 117.077,223.61 122.41,227.443 127.5,231.5 Z"/></g>
<g><path style="opacity:1" fill="#d5998a" d="M 278.5,289.5 C 275.737,289.256 273.571,287.923 272,285.5C 266.675,277.422 266.175,269.089 270.5,260.5C 324.718,248.356 379.051,236.522 433.5,225C 446.55,222.607 455.717,227.44 461,239.5C 463.317,251.917 458.817,260.751 447.5,266C 391.214,274.102 334.881,281.936 278.5,289.5 Z"/></g>
<g><path style="opacity:1" fill="#fada5f" d="M 127.5,231.5 C 135.645,236.743 143.645,242.243 151.5,248C 139.277,250.815 126.944,252.982 114.5,254.5C 112.972,254.483 112.472,253.816 113,252.5C 118.054,245.62 122.887,238.62 127.5,231.5 Z"/></g>
<g><path style="opacity:1" fill="#deada1" d="M 151.5,364.5 C 114.393,350.212 92.3934,323.379 85.5,284C 85.8641,281.079 86.5308,278.246 87.5,275.5C 116.959,269.596 146.626,264.096 176.5,259C 189.383,255.569 196.55,260.402 198,273.5C 200.496,309.327 187.663,338.161 159.5,360C 156.941,361.777 154.274,363.277 151.5,364.5 Z"/></g>
<g><path style="opacity:1" fill="#c08576" d="M 270.5,260.5 C 266.175,269.089 266.675,277.422 272,285.5C 273.571,287.923 275.737,289.256 278.5,289.5C 256.753,293.364 234.753,296.364 212.5,298.5C 213.446,289.581 213.779,280.748 213.5,272C 232.413,267.717 251.413,263.884 270.5,260.5 Z"/></g>
<g><path style="opacity:1" fill="#d59a8b" d="M 87.5,275.5 C 86.5308,278.246 85.8641,281.079 85.5,284C 92.3934,323.379 114.393,350.212 151.5,364.5C 130.93,375.993 108.93,379.493 85.5,375C 45.8563,364.024 22.1896,338.358 14.5,298C 14.9317,291.569 18.265,287.569 24.5,286C 45.402,281.85 66.402,278.35 87.5,275.5 Z"/></g>
<g><path style="opacity:1" fill="#fdf0dd" d="M 338.5,364.5 C 333.795,369.207 328.795,373.54 323.5,377.5C 321.484,374.856 318.817,374.023 315.5,375C 306.833,380.333 298.167,385.667 289.5,391C 265.532,412.246 258.699,438.079 269,468.5C 273.172,479.669 280.005,488.836 289.5,496C 256.835,496.5 224.168,496.667 191.5,496.5C 183.716,489.863 178.549,481.53 176,471.5C 175.5,436.502 175.333,401.502 175.5,366.5C 191.533,352.45 202.533,335.117 208.5,314.5C 275.101,305.129 341.767,296.129 408.5,287.5C 408.666,297.172 408.5,306.839 408,316.5C 378.46,319.27 354.46,332.27 336,355.5C 335.131,358.993 335.964,361.993 338.5,364.5 Z"/></g>
<g><path style="opacity:1" fill="#fdd053" d="M 433.5,334.5 C 416.712,342.116 403.879,354.116 395,370.5C 392.201,376.402 389.701,382.402 387.5,388.5C 378.161,388.334 368.827,388.5 359.5,389C 353.271,393.171 352.938,397.837 358.5,403C 373.496,403.5 388.496,403.667 403.5,403.5C 397.355,404.49 391.022,404.823 384.5,404.5C 381.971,440.937 395.637,469.437 425.5,490C 428.11,491.481 430.777,492.648 433.5,493.5C 429.736,494.832 425.736,495.665 421.5,496C 388.833,496.667 356.167,496.667 323.5,496C 292.97,487.962 278.303,468.128 279.5,436.5C 303.836,436.667 328.169,436.5 352.5,436C 357.599,434.305 359.432,430.805 358,425.5C 356.549,423.536 354.716,422.203 352.5,421.5C 330.167,420.833 307.833,420.167 285.5,419.5C 288.49,413.062 292.823,407.562 298.5,403C 307.255,397.874 315.755,392.374 324,386.5C 326.12,383.303 325.953,380.303 323.5,377.5C 328.795,373.54 333.795,369.207 338.5,364.5C 341.913,365.987 345.247,365.82 348.5,364C 370.831,336.502 399.164,326.669 433.5,334.5 Z"/></g>
<g><path style="opacity:1" fill="#fddd60" d="M 433.5,334.5 C 444.971,336.737 455.305,341.404 464.5,348.5C 454.833,349.167 445.167,349.833 435.5,350.5C 431.074,352.359 429.574,355.692 431,360.5C 432.167,361.667 433.333,362.833 434.5,364C 449.844,364.167 465.178,364.667 480.5,365.5C 496.441,387.716 500.607,412.05 493,438.5C 490.221,446.724 486.388,454.391 481.5,461.5C 463.843,462.333 446.176,462.833 428.5,463C 424.304,465.981 423.471,469.814 426,474.5C 426.816,475.823 427.983,476.489 429.5,476.5C 441.5,477.167 453.5,477.833 465.5,478.5C 456.14,486.179 445.473,491.179 433.5,493.5C 430.777,492.648 428.11,491.481 425.5,490C 395.637,469.437 381.971,440.937 384.5,404.5C 391.022,404.823 397.355,404.49 403.5,403.5C 408.987,401.862 410.82,398.195 409,392.5C 408.167,391.667 407.333,390.833 406.5,390C 400.285,388.584 393.952,388.084 387.5,388.5C 389.701,382.402 392.201,376.402 395,370.5C 403.879,354.116 416.712,342.116 433.5,334.5 Z"/></g>
<g><path style="opacity:1" fill="#554a20" d="M 464.5,348.5 C 465.043,348.56 465.376,348.893 465.5,349.5C 455.522,350.499 445.522,350.832 435.5,350.5C 445.167,349.833 454.833,349.167 464.5,348.5 Z"/></g>
<g><path style="opacity:1" fill="#fee3c1" d="M 175.5,366.5 C 175.333,401.502 175.5,436.502 176,471.5C 178.549,481.53 183.716,489.863 191.5,496.5C 170.497,496.667 149.497,496.5 128.5,496C 114.391,492.059 106.058,482.892 103.5,468.5C 103.5,443.167 103.5,417.833 103.5,392.5C 106.385,392.806 109.052,392.473 111.5,391.5C 135.729,390.208 157.063,381.875 175.5,366.5 Z"/></g>
<g><path style="opacity:1" fill="#070502" d="M 387.5,388.5 C 393.952,388.084 400.285,388.584 406.5,390C 407.333,390.833 408.167,391.667 409,392.5C 410.82,398.195 408.987,401.862 403.5,403.5C 388.496,403.667 373.496,403.5 358.5,403C 352.938,397.837 353.271,393.171 359.5,389C 368.827,388.5 378.161,388.334 387.5,388.5 Z"/></g>
<g><path style="opacity:1" fill="#7d7060" d="M 111.5,391.5 C 109.052,392.473 106.385,392.806 103.5,392.5C 103.5,417.833 103.5,443.167 103.5,468.5C 102.502,443.005 102.169,417.339 102.5,391.5C 105.5,391.5 108.5,391.5 111.5,391.5 Z"/></g>
<g><path style="opacity:1" fill="#cba642" d="M 285.5,419.5 C 307.833,420.167 330.167,420.833 352.5,421.5C 329.824,421.833 307.157,421.5 284.5,420.5C 284.624,419.893 284.957,419.56 285.5,419.5 Z"/></g>
<g><path style="opacity:1" fill="#060502" d="M 401.5,421.5 C 416.504,421.333 431.504,421.5 446.5,422C 451.676,424.517 452.843,428.351 450,433.5C 448.829,434.893 447.329,435.727 445.5,436C 430.833,436.667 416.167,436.667 401.5,436C 396.174,430.999 396.174,426.165 401.5,421.5 Z"/></g>
<g><path style="opacity:1" fill="#090702" d="M 331.5,462.5 C 340.506,462.334 349.506,462.5 358.5,463C 363.986,468.081 363.653,472.748 357.5,477C 349.167,477.667 340.833,477.667 332.5,477C 326.292,472.58 325.958,467.747 331.5,462.5 Z"/></g>
<g><path style="opacity:1" fill="#473d1b" d="M 429.5,476.5 C 441.851,476.168 454.185,476.501 466.5,477.5C 466.376,478.107 466.043,478.44 465.5,478.5C 453.5,477.833 441.5,477.167 429.5,476.5 Z"/></g>
</svg>
