<?xml version="1.0" encoding="UTF-8"?>
<!DOCTYPE svg PUBLIC "-//W3C//DTD SVG 1.1//EN" "http://www.w3.org/Graphics/SVG/1.1/DTD/svg11.dtd">
<svg xmlns="http://www.w3.org/2000/svg" version="1.1" width="512px" height="512px" style="shape-rendering:geometricPrecision; text-rendering:geometricPrecision; image-rendering:optimizeQuality; fill-rule:evenodd; clip-rule:evenodd" xmlns:xlink="http://www.w3.org/1999/xlink">
<g><path style="opacity:0.978" fill="#0c0504" d="M 239.5,-0.5 C 253.833,-0.5 268.167,-0.5 282.5,-0.5C 323.045,4.90591 355.545,23.9059 380,56.5C 382.372,61.4118 384.872,66.2451 387.5,71C 430.159,71.9047 457.659,92.738 470,133.5C 474.877,156.117 470.877,177.117 458,196.5C 455.948,194.942 453.781,193.608 451.5,192.5C 451.5,191.833 451.167,191.5 450.5,191.5C 448.122,190.308 446.122,188.641 444.5,186.5C 448.26,180.98 450.927,174.98 452.5,168.5C 453.338,168.158 453.672,167.492 453.5,166.5C 453.517,164.435 453.85,162.435 454.5,160.5C 455.833,154.167 455.833,147.833 454.5,141.5C 445.854,106.66 423.521,88.6605 387.5,87.5C 351.796,88.5251 321.129,101.358 295.5,126C 250.939,173.824 229.939,230.657 232.5,296.5C 234.621,296.325 236.621,296.659 238.5,297.5C 239.209,298.404 240.209,298.737 241.5,298.5C 261.49,303.153 277.49,313.82 289.5,330.5C 287.878,332.641 285.878,334.308 283.5,335.5C 282.508,335.328 281.842,335.662 281.5,336.5C 279.812,338.387 277.812,339.553 275.5,340C 271.302,334.637 266.636,329.804 261.5,325.5C 261.027,324.094 260.027,323.427 258.5,323.5C 258.027,322.094 257.027,321.427 255.5,321.5C 249.174,318.173 242.507,315.673 235.5,314C 223.451,312.477 211.451,310.977 199.5,309.5C 197.485,308.076 195.152,307.41 192.5,307.5C 185.97,305.899 179.97,303.233 174.5,299.5C 174.027,298.094 173.027,297.427 171.5,297.5C 154.572,286.384 143.072,271.05 137,251.5C 133.983,246.121 130.483,241.121 126.5,236.5C 125.833,233.833 124.167,232.167 121.5,231.5C 97.0995,212.911 71.4329,211.078 44.5,226C 40.3068,229.365 36.3068,232.865 32.5,236.5C 30.4131,237.585 29.0798,239.251 28.5,241.5C 26.2713,244.184 24.6047,247.184 23.5,250.5C 18.0561,260.693 15.3895,271.693 15.5,283.5C 16.2875,318.388 28.6209,348.388 52.5,373.5C 54.1667,377.167 56.8333,379.833 60.5,381.5C 92.1254,409.976 129.125,427.809 171.5,435C 185.959,437.459 200.459,438.959 215,439.5C 229.295,438.759 242.628,434.759 255,427.5C 256.327,408.195 263.16,391.195 275.5,376.5C 276.167,376.167 276.833,375.833 277.5,375.5C 280.089,374.581 282.089,372.914 283.5,370.5C 286.06,367.542 289.06,365.042 292.5,363C 293.252,362.329 293.586,361.496 293.5,360.5C 314.064,355.818 330.231,344.485 342,326.5C 344.925,320.725 347.258,314.725 349,308.5C 349.961,294.743 351.628,281.076 354,267.5C 359.812,255.876 366.146,244.542 373,233.5C 390.14,215.171 411.306,206.505 436.5,207.5C 437.167,207.5 437.833,207.5 438.5,207.5C 470.148,212.642 492.315,229.975 505,259.5C 507.718,266.807 509.885,274.141 511.5,281.5C 511.5,293.833 511.5,306.167 511.5,318.5C 507.026,366.443 490.526,409.776 462,448.5C 435.794,482.556 401.627,503.556 359.5,511.5C 347.167,511.5 334.833,511.5 322.5,511.5C 286.752,503.92 264.585,482.254 256,446.5C 247.356,450.936 238.189,453.77 228.5,455C 160.071,458.747 100.071,438.414 48.5,394C 21.9758,369.32 5.64249,339.153 -0.5,303.5C -0.5,291.167 -0.5,278.833 -0.5,266.5C 3.30314,246.899 12.8031,230.566 28,217.5C 28.4828,216.552 28.6495,215.552 28.5,214.5C 29.1174,214.611 29.6174,214.944 30,215.5C 54.9016,198.205 81.7349,194.705 110.5,205C 125.371,211.542 137.537,221.375 147,234.5C 152.516,246.366 158.683,257.866 165.5,269C 182.356,267.894 198.69,264.228 214.5,258C 215.667,257.5 216.5,256.667 217,255.5C 223.92,195.992 249.086,145.992 292.5,105.5C 277.573,96.5838 261.573,94.0838 244.5,98C 229.569,102.463 216.902,110.463 206.5,122C 186.112,137.847 163.112,143.514 137.5,139C 128.227,136.798 119.227,133.798 110.5,130C 76.1526,123.757 51.3192,136.257 36,167.5C 33.2083,177.62 31.7083,187.954 31.5,198.5C 29.5914,199.348 27.5914,199.682 25.5,199.5C 24.5084,199.328 23.8417,199.662 23.5,200.5C 20.7938,200.575 18.1272,200.908 15.5,201.5C 12.4148,157.633 31.4148,128.3 72.5,113.5C 75.681,102.639 80.3476,92.4722 86.5,83C 89.3001,83.0665 91.6334,84.2332 93.5,86.5C 93.8333,87.5 94.5,88.1667 95.5,88.5C 97.7545,89.0868 99.4212,90.4202 100.5,92.5C 97.4051,97.6018 94.7385,102.935 92.5,108.5C 91.596,109.209 91.2627,110.209 91.5,111.5C 94.1667,111.5 96.8333,111.5 99.5,111.5C 104.232,111.378 108.898,111.878 113.5,113C 122.167,116 130.833,119 139.5,122C 156.039,125.41 171.705,123.077 186.5,115C 195.79,108.045 204.79,100.712 213.5,93C 239.783,77.3339 267.116,75.3339 295.5,87C 299.766,89.3809 303.932,91.8809 308,94.5C 326.487,82.6125 346.653,74.9458 368.5,71.5C 350.857,43.6635 325.857,26.1635 293.5,19C 258.576,12.5993 224.576,15.9327 191.5,29C 160.232,41.2052 132.732,59.0385 109,82.5C 107.293,80.9625 105.793,79.2959 104.5,77.5C 104.158,76.6618 103.492,76.3284 102.5,76.5C 100.856,74.5193 99.1897,72.5193 97.5,70.5C 136.727,30.8865 184.06,7.21981 239.5,-0.5 Z"/></g>
<g><path style="opacity:1" fill="#e0e5e8" d="M 99.5,111.5 C 96.8411,111.083 94.5078,110.083 92.5,108.5C 94.7385,102.935 97.4051,97.6018 100.5,92.5C 99.4212,90.4202 97.7545,89.0868 95.5,88.5C 96.0427,85.9616 97.0427,83.6282 98.5,81.5C 100.246,79.7484 102.246,78.4151 104.5,77.5C 105.793,79.2959 107.293,80.9625 109,82.5C 132.732,59.0385 160.232,41.2052 191.5,29C 224.576,15.9327 258.576,12.5993 293.5,19C 325.857,26.1635 350.857,43.6635 368.5,71.5C 346.653,74.9458 326.487,82.6125 308,94.5C 303.932,91.8809 299.766,89.3809 295.5,87C 267.116,75.3339 239.783,77.3339 213.5,93C 204.79,100.712 195.79,108.045 186.5,115C 171.705,123.077 156.039,125.41 139.5,122C 130.833,119 122.167,116 113.5,113C 108.898,111.878 104.232,111.378 99.5,111.5 Z"/></g>
<g><path style="opacity:0.761" fill="#9b4737" d="M 102.5,76.5 C 103.492,76.3284 104.158,76.6618 104.5,77.5C 102.246,78.4151 100.246,79.7484 98.5,81.5C 99.0798,79.2512 100.413,77.5846 102.5,76.5 Z"/></g>
<g><path style="opacity:0.737" fill="#914333" d="M 98.5,81.5 C 97.0427,83.6282 96.0427,85.9616 95.5,88.5C 94.5,88.1667 93.8333,87.5 93.5,86.5C 94.806,84.5273 96.4727,82.8606 98.5,81.5 Z"/></g>
<g><path style="opacity:1" fill="#f5fafe" d="M 454.5,141.5 C 454.649,142.552 454.483,143.552 454,144.5C 453.329,143.748 452.496,143.414 451.5,143.5C 450.738,141.738 449.404,140.738 447.5,140.5C 447.027,139.094 446.027,138.427 444.5,138.5C 441.086,135.46 437.086,133.46 432.5,132.5C 430.786,131.262 428.786,130.595 426.5,130.5C 420.537,128.01 414.204,127.01 407.5,127.5C 387.52,125.996 368.52,129.329 350.5,137.5C 346.418,138.376 342.751,140.043 339.5,142.5C 336.669,143.079 334.336,144.412 332.5,146.5C 330.973,146.427 329.973,147.094 329.5,148.5C 327.973,148.427 326.973,149.094 326.5,150.5C 324.596,150.738 323.262,151.738 322.5,153.5C 320.596,153.738 319.262,154.738 318.5,156.5C 316.596,156.738 315.262,157.738 314.5,159.5C 313.167,159.5 312.5,160.167 312.5,161.5C 309.911,162.419 307.911,164.086 306.5,166.5C 302.473,169.86 298.806,173.527 295.5,177.5C 293.413,178.585 292.08,180.251 291.5,182.5C 290.5,182.833 289.833,183.5 289.5,184.5C 287.413,185.585 286.08,187.251 285.5,189.5C 284.094,189.973 283.427,190.973 283.5,192.5C 282.833,192.5 282.5,192.833 282.5,193.5C 281.094,193.973 280.427,194.973 280.5,196.5C 279.026,197.436 278.026,198.77 277.5,200.5C 275.05,202.629 273.383,205.296 272.5,208.5C 271.662,208.842 271.328,209.508 271.5,210.5C 270.094,210.973 269.427,211.973 269.5,213.5C 268.326,214.514 267.66,215.847 267.5,217.5C 263.793,222.247 261.126,227.581 259.5,233.5C 258.662,233.842 258.328,234.508 258.5,235.5C 257.069,236.78 256.402,238.447 256.5,240.5C 255.069,241.78 254.402,243.447 254.5,245.5C 252.733,247.792 251.733,250.458 251.5,253.5C 250.262,255.214 249.595,257.214 249.5,259.5C 248.076,261.515 247.41,263.848 247.5,266.5C 245.548,271.564 244.215,276.897 243.5,282.5C 242.566,283.568 242.232,284.901 242.5,286.5C 241.691,290.463 240.358,294.13 238.5,297.5C 236.621,296.659 234.621,296.325 232.5,296.5C 229.939,230.657 250.939,173.824 295.5,126C 321.129,101.358 351.796,88.5251 387.5,87.5C 423.521,88.6605 445.854,106.66 454.5,141.5 Z"/></g>
<g><path style="opacity:1" fill="#e0e5e8" d="M 28.5,214.5 C 27.0253,209.6 26.0253,204.6 25.5,199.5C 27.5914,199.682 29.5914,199.348 31.5,198.5C 31.7083,187.954 33.2083,177.62 36,167.5C 51.3192,136.257 76.1526,123.757 110.5,130C 119.227,133.798 128.227,136.798 137.5,139C 163.112,143.514 186.112,137.847 206.5,122C 216.902,110.463 229.569,102.463 244.5,98C 261.573,94.0838 277.573,96.5838 292.5,105.5C 249.086,145.992 223.92,195.992 217,255.5C 216.5,256.667 215.667,257.5 214.5,258C 198.69,264.228 182.356,267.894 165.5,269C 158.683,257.866 152.516,246.366 147,234.5C 137.537,221.375 125.371,211.542 110.5,205C 81.7349,194.705 54.9016,198.205 30,215.5C 29.6174,214.944 29.1174,214.611 28.5,214.5 Z"/></g>
<g><path style="opacity:1" fill="#c7bab3" d="M 408.5,100.5 C 415.583,100.916 419.916,104.583 421.5,111.5C 420.474,117.097 417.141,118.93 411.5,117C 403.631,112.381 402.631,106.881 408.5,100.5 Z"/></g>
<g><path style="opacity:1" fill="#843d2f" d="M 92.5,108.5 C 94.5078,110.083 96.8411,111.083 99.5,111.5C 96.8333,111.5 94.1667,111.5 91.5,111.5C 91.2627,110.209 91.596,109.209 92.5,108.5 Z"/></g>
<g><path style="opacity:1" fill="#e0e3e7" d="M 407.5,127.5 C 413.71,128.429 420.043,129.429 426.5,130.5C 428.786,130.595 430.786,131.262 432.5,132.5C 436.182,135.008 440.182,137.008 444.5,138.5C 444.973,139.906 445.973,140.573 447.5,140.5C 448.262,142.262 449.596,143.262 451.5,143.5C 452.122,144.627 452.955,145.627 454,146.5C 454.499,151.155 454.666,155.821 454.5,160.5C 453.85,162.435 453.517,164.435 453.5,166.5C 449.975,167.759 446.975,169.759 444.5,172.5C 437.099,175.54 429.766,178.54 422.5,181.5C 419.848,181.41 417.515,182.076 415.5,183.5C 412.848,183.41 410.515,184.076 408.5,185.5C 407.5,185.5 406.5,185.5 405.5,185.5C 399.949,176.569 391.949,173.403 381.5,176C 345.888,194.288 322.722,222.788 312,261.5C 309.742,270.394 311.908,277.894 318.5,284C 320.993,285.419 323.326,286.919 325.5,288.5C 324.549,289.919 324.216,291.585 324.5,293.5C 322.989,296.544 322.322,299.878 322.5,303.5C 321.408,308.362 320.408,313.362 319.5,318.5C 318.167,319.167 317.167,320.167 316.5,321.5C 312.567,322.143 309.234,321.143 306.5,318.5C 305.92,316.251 304.587,314.585 302.5,313.5C 300.5,310.167 297.833,307.5 294.5,305.5C 293.415,303.413 291.749,302.08 289.5,301.5C 288.738,299.738 287.404,298.738 285.5,298.5C 285.158,297.662 284.492,297.328 283.5,297.5C 283.027,296.094 282.027,295.427 280.5,295.5C 277.753,292.793 274.42,291.127 270.5,290.5C 263.999,287.121 256.999,285.121 249.5,284.5C 247.5,283.833 245.5,283.167 243.5,282.5C 244.215,276.897 245.548,271.564 247.5,266.5C 248.924,264.485 249.59,262.152 249.5,259.5C 249.595,257.214 250.262,255.214 251.5,253.5C 253.267,251.208 254.267,248.542 254.5,245.5C 255.931,244.22 256.598,242.553 256.5,240.5C 257.931,239.22 258.598,237.553 258.5,235.5C 258.328,234.508 258.662,233.842 259.5,233.5C 262.674,228.484 265.341,223.151 267.5,217.5C 267.66,215.847 268.326,214.514 269.5,213.5C 270.906,213.027 271.573,212.027 271.5,210.5C 271.328,209.508 271.662,208.842 272.5,208.5C 274.95,206.371 276.617,203.704 277.5,200.5C 278.026,198.77 279.026,197.436 280.5,196.5C 281.906,196.027 282.573,195.027 282.5,193.5C 282.5,192.833 282.833,192.5 283.5,192.5C 284.906,192.027 285.573,191.027 285.5,189.5C 287.587,188.415 288.92,186.749 289.5,184.5C 289.833,183.5 290.5,182.833 291.5,182.5C 293.587,181.415 294.92,179.749 295.5,177.5C 298.806,173.527 302.473,169.86 306.5,166.5C 309.089,165.581 311.089,163.914 312.5,161.5C 312.5,160.167 313.167,159.5 314.5,159.5C 316.404,159.262 317.738,158.262 318.5,156.5C 320.404,156.262 321.738,155.262 322.5,153.5C 324.404,153.262 325.738,152.262 326.5,150.5C 328.027,150.573 329.027,149.906 329.5,148.5C 331.027,148.573 332.027,147.906 332.5,146.5C 335.331,145.921 337.664,144.588 339.5,142.5C 343.582,141.624 347.249,139.957 350.5,137.5C 368.52,129.329 387.52,125.996 407.5,127.5 Z"/></g>
<g><path style="opacity:1" fill="#ba5541" d="M 407.5,127.5 C 414.204,127.01 420.537,128.01 426.5,130.5C 420.043,129.429 413.71,128.429 407.5,127.5 Z"/></g>
<g><path style="opacity:1" fill="#0c0604" d="M 213.5,130.5 C 233.384,133.271 239.551,143.937 232,162.5C 223.985,169.594 214.818,174.761 204.5,178C 175.269,187.603 145.935,187.936 116.5,179C 106.231,171.419 104.064,161.919 110,150.5C 114.396,144.719 120.229,141.719 127.5,141.5C 142.615,145.865 157.948,147.032 173.5,145C 179.668,143.944 185.668,142.277 191.5,140C 198.83,136.42 206.163,133.253 213.5,130.5 Z"/></g>
<g><path style="opacity:1" fill="#b95541" d="M 432.5,132.5 C 437.086,133.46 441.086,135.46 444.5,138.5C 440.182,137.008 436.182,135.008 432.5,132.5 Z"/></g>
<g><path style="opacity:1" fill="#b85440" d="M 350.5,137.5 C 347.249,139.957 343.582,141.624 339.5,142.5C 342.751,140.043 346.418,138.376 350.5,137.5 Z"/></g>
<g><path style="opacity:1" fill="#bb5641" d="M 444.5,138.5 C 446.027,138.427 447.027,139.094 447.5,140.5C 445.973,140.573 444.973,139.906 444.5,138.5 Z"/></g>
<g><path style="opacity:1" fill="#bb5641" d="M 447.5,140.5 C 449.404,140.738 450.738,141.738 451.5,143.5C 449.596,143.262 448.262,142.262 447.5,140.5 Z"/></g>
<g><path style="opacity:1" fill="#ba5641" d="M 339.5,142.5 C 337.664,144.588 335.331,145.921 332.5,146.5C 334.336,144.412 336.669,143.079 339.5,142.5 Z"/></g>
<g><path style="opacity:1" fill="#dcb98c" d="M 212.5,147.5 C 215.885,146.79 218.219,147.956 219.5,151C 217.286,153.458 214.619,155.458 211.5,157C 183.859,170.5 155.193,173.167 125.5,165C 122.41,161.508 123.077,159.342 127.5,158.5C 151.543,164.772 175.21,163.606 198.5,155C 203.674,153.249 208.341,150.749 212.5,147.5 Z"/></g>
<g><path style="opacity:1" fill="#b85440" d="M 332.5,146.5 C 332.027,147.906 331.027,148.573 329.5,148.5C 329.973,147.094 330.973,146.427 332.5,146.5 Z"/></g>
<g><path style="opacity:1" fill="#b85540" d="M 329.5,148.5 C 329.027,149.906 328.027,150.573 326.5,150.5C 326.973,149.094 327.973,148.427 329.5,148.5 Z"/></g>
<g><path style="opacity:1" fill="#984635" d="M 454.5,141.5 C 455.833,147.833 455.833,154.167 454.5,160.5C 454.666,155.821 454.499,151.155 454,146.5C 452.955,145.627 452.122,144.627 451.5,143.5C 452.496,143.414 453.329,143.748 454,144.5C 454.483,143.552 454.649,142.552 454.5,141.5 Z"/></g>
<g><path style="opacity:1" fill="#b75440" d="M 326.5,150.5 C 325.738,152.262 324.404,153.262 322.5,153.5C 323.262,151.738 324.596,150.738 326.5,150.5 Z"/></g>
<g><path style="opacity:1" fill="#b75440" d="M 322.5,153.5 C 321.738,155.262 320.404,156.262 318.5,156.5C 319.262,154.738 320.596,153.738 322.5,153.5 Z"/></g>
<g><path style="opacity:1" fill="#b75440" d="M 318.5,156.5 C 317.738,158.262 316.404,159.262 314.5,159.5C 315.262,157.738 316.596,156.738 318.5,156.5 Z"/></g>
<g><path style="opacity:1" fill="#b65340" d="M 312.5,161.5 C 311.089,163.914 309.089,165.581 306.5,166.5C 307.911,164.086 309.911,162.419 312.5,161.5 Z"/></g>
<g><path style="opacity:1" fill="#c7c9cc" d="M 452.5,168.5 C 450.927,174.98 448.26,180.98 444.5,186.5C 446.122,188.641 448.122,190.308 450.5,191.5C 446.206,197.129 441.539,202.463 436.5,207.5C 411.306,206.505 390.14,215.171 373,233.5C 366.146,244.542 359.812,255.876 354,267.5C 351.628,281.076 349.961,294.743 349,308.5C 347.258,314.725 344.925,320.725 342,326.5C 330.231,344.485 314.064,355.818 293.5,360.5C 293.59,357.848 292.924,355.515 291.5,353.5C 291.598,351.447 290.931,349.78 289.5,348.5C 289.206,345.246 287.873,342.579 285.5,340.5C 285.107,338.716 284.441,337.05 283.5,335.5C 285.878,334.308 287.878,332.641 289.5,330.5C 277.49,313.82 261.49,303.153 241.5,298.5C 241.833,294.5 242.167,290.5 242.5,286.5C 244.456,284.852 246.789,284.185 249.5,284.5C 256.999,285.121 263.999,287.121 270.5,290.5C 273.515,292.674 276.849,294.341 280.5,295.5C 280.973,296.906 281.973,297.573 283.5,297.5C 284.492,297.328 285.158,297.662 285.5,298.5C 286.262,300.262 287.596,301.262 289.5,301.5C 290.585,303.587 292.251,304.92 294.5,305.5C 297.833,307.5 300.5,310.167 302.5,313.5C 303.08,315.749 304.413,317.415 306.5,318.5C 309.234,321.143 312.567,322.143 316.5,321.5C 318.5,321.5 319.5,320.5 319.5,318.5C 320.408,313.362 321.408,308.362 322.5,303.5C 323.785,300.411 324.451,297.078 324.5,293.5C 324.216,291.585 324.549,289.919 325.5,288.5C 342.457,288.698 351.457,280.531 352.5,264C 357.954,253.589 363.787,243.422 370,233.5C 378.862,223.657 389.362,216.157 401.5,211C 407.331,204.091 408.997,196.257 406.5,187.5C 407.167,186.833 407.833,186.167 408.5,185.5C 410.515,184.076 412.848,183.41 415.5,183.5C 418.152,183.59 420.485,182.924 422.5,181.5C 429.766,178.54 437.099,175.54 444.5,172.5C 447.395,171.601 450.062,170.267 452.5,168.5 Z"/></g>
<g><path style="opacity:1" fill="#a34b39" d="M 453.5,166.5 C 453.672,167.492 453.338,168.158 452.5,168.5C 450.062,170.267 447.395,171.601 444.5,172.5C 446.975,169.759 449.975,167.759 453.5,166.5 Z"/></g>
<g><path style="opacity:1" fill="#0a0503" d="M 405.5,185.5 C 405.328,186.492 405.662,187.158 406.5,187.5C 408.997,196.257 407.331,204.091 401.5,211C 389.362,216.157 378.862,223.657 370,233.5C 363.787,243.422 357.954,253.589 352.5,264C 351.457,280.531 342.457,288.698 325.5,288.5C 323.326,286.919 320.993,285.419 318.5,284C 311.908,277.894 309.742,270.394 312,261.5C 322.722,222.788 345.888,194.288 381.5,176C 391.949,173.403 399.949,176.569 405.5,185.5 Z"/></g>
<g><path style="opacity:1" fill="#b85440" d="M 295.5,177.5 C 294.92,179.749 293.587,181.415 291.5,182.5C 292.08,180.251 293.413,178.585 295.5,177.5 Z"/></g>
<g><path style="opacity:1" fill="#a24b39" d="M 422.5,181.5 C 420.485,182.924 418.152,183.59 415.5,183.5C 417.515,182.076 419.848,181.41 422.5,181.5 Z"/></g>
<g><path style="opacity:1" fill="#9c4737" d="M 405.5,185.5 C 406.5,185.5 407.5,185.5 408.5,185.5C 407.833,186.167 407.167,186.833 406.5,187.5C 405.662,187.158 405.328,186.492 405.5,185.5 Z"/></g>
<g><path style="opacity:1" fill="#ba5641" d="M 289.5,184.5 C 288.92,186.749 287.587,188.415 285.5,189.5C 286.08,187.251 287.413,185.585 289.5,184.5 Z"/></g>
<g><path style="opacity:1" fill="#b85440" d="M 285.5,189.5 C 285.573,191.027 284.906,192.027 283.5,192.5C 283.427,190.973 284.094,189.973 285.5,189.5 Z"/></g>
<g><path style="opacity:1" fill="#ddba8d" d="M 386.5,191.5 C 390.487,191.652 391.987,193.652 391,197.5C 362.275,213.589 343.608,237.589 335,269.5C 331.418,272.582 328.918,271.915 327.5,267.5C 336.74,233.943 356.407,208.61 386.5,191.5 Z"/></g>
<g><path style="opacity:1" fill="#b85540" d="M 282.5,193.5 C 282.573,195.027 281.906,196.027 280.5,196.5C 280.427,194.973 281.094,193.973 282.5,193.5 Z"/></g>
<g><path style="opacity:0.627" fill="#a44d39" d="M 450.5,191.5 C 451.167,191.5 451.5,191.833 451.5,192.5C 447.54,197.795 443.207,202.795 438.5,207.5C 437.833,207.5 437.167,207.5 436.5,207.5C 441.539,202.463 446.206,197.129 450.5,191.5 Z"/></g>
<g><path style="opacity:1" fill="#ba5641" d="M 277.5,200.5 C 276.617,203.704 274.95,206.371 272.5,208.5C 273.383,205.296 275.05,202.629 277.5,200.5 Z"/></g>
<g><path style="opacity:0.896" fill="#ad503c" d="M 23.5,200.5 C 23.8417,199.662 24.5084,199.328 25.5,199.5C 26.0253,204.6 27.0253,209.6 28.5,214.5C 26.2194,210.039 24.5527,205.372 23.5,200.5 Z"/></g>
<g><path style="opacity:1" fill="#b95541" d="M 271.5,210.5 C 271.573,212.027 270.906,213.027 269.5,213.5C 269.427,211.973 270.094,210.973 271.5,210.5 Z"/></g>
<g><path style="opacity:1" fill="#f5fafe" d="M 121.5,231.5 C 122.833,233.5 124.5,235.167 126.5,236.5C 130.483,241.121 133.983,246.121 137,251.5C 143.072,271.05 154.572,286.384 171.5,297.5C 171.973,298.906 172.973,299.573 174.5,299.5C 179.97,303.233 185.97,305.899 192.5,307.5C 194.515,308.924 196.848,309.59 199.5,309.5C 211.451,310.977 223.451,312.477 235.5,314C 242.507,315.673 249.174,318.173 255.5,321.5C 255.973,322.906 256.973,323.573 258.5,323.5C 258.973,324.906 259.973,325.573 261.5,325.5C 266.636,329.804 271.302,334.637 275.5,340C 277.812,339.553 279.812,338.387 281.5,336.5C 282.833,337.833 284.167,339.167 285.5,340.5C 286.326,343.485 287.659,346.151 289.5,348.5C 289.402,350.553 290.069,352.22 291.5,353.5C 291.41,356.152 292.076,358.485 293.5,360.5C 293.586,361.496 293.252,362.329 292.5,363C 289.06,365.042 286.06,367.542 283.5,370.5C 280.911,371.419 278.911,373.086 277.5,375.5C 276.833,375.833 276.167,376.167 275.5,376.5C 275.598,374.447 274.931,372.78 273.5,371.5C 273.539,368.911 272.539,366.911 270.5,365.5C 270.672,364.508 270.338,363.842 269.5,363.5C 269.573,361.973 268.906,360.973 267.5,360.5C 267.262,358.596 266.262,357.262 264.5,356.5C 261.5,351.5 257.5,347.5 252.5,344.5C 251.738,342.738 250.404,341.738 248.5,341.5C 248.027,340.094 247.027,339.427 245.5,339.5C 244.341,337.75 242.674,336.75 240.5,336.5C 239.713,334.896 238.38,334.229 236.5,334.5C 233.34,332 229.673,330.667 225.5,330.5C 221.111,328.754 216.444,327.754 211.5,327.5C 210.04,325.537 208.373,323.704 206.5,322C 175.558,314.049 152.558,296.049 137.5,268C 133.69,265.008 129.357,263.508 124.5,263.5C 123.833,262.167 122.833,261.167 121.5,260.5C 121.262,258.596 120.262,257.262 118.5,256.5C 116.167,253.5 113.5,250.833 110.5,248.5C 109.738,246.738 108.404,245.738 106.5,245.5C 106.027,244.094 105.027,243.427 103.5,243.5C 102.341,241.75 100.674,240.75 98.5,240.5C 96.8185,238.992 94.8185,237.992 92.5,237.5C 91.2196,236.069 89.5529,235.402 87.5,235.5C 85.4855,234.076 83.1522,233.41 80.5,233.5C 69.216,230.338 57.8827,230.171 46.5,233C 42.1402,233.838 38.1402,235.338 34.5,237.5C 33.5084,237.672 32.8417,237.338 32.5,236.5C 36.3068,232.865 40.3068,229.365 44.5,226C 71.4329,211.078 97.0995,212.911 121.5,231.5 Z"/></g>
<g><path style="opacity:1" fill="#f5fafe" d="M 457.5,230.5 C 455.833,231.167 454.167,231.833 452.5,232.5C 448.43,232.432 444.763,233.432 441.5,235.5C 440.209,235.263 439.209,235.596 438.5,236.5C 434.58,237.127 431.247,238.793 428.5,241.5C 427.508,241.328 426.842,241.662 426.5,242.5C 424.973,242.427 423.973,243.094 423.5,244.5C 421.973,244.427 420.973,245.094 420.5,246.5C 419.5,246.833 418.833,247.5 418.5,248.5C 414.167,250.833 410.833,254.167 408.5,258.5C 407.833,258.5 407.5,258.833 407.5,259.5C 406.094,259.973 405.427,260.973 405.5,262.5C 404.833,262.5 404.5,262.833 404.5,263.5C 402.75,264.659 401.75,266.326 401.5,268.5C 399.896,269.287 399.229,270.62 399.5,272.5C 398.326,273.514 397.66,274.847 397.5,276.5C 394.456,281.662 392.789,287.328 392.5,293.5C 391.5,294.5 390.5,295.5 389.5,296.5C 384.768,297.71 380.934,300.377 378,304.5C 370.049,335.442 352.049,358.442 324,373.5C 322.139,375.888 320.806,378.554 320,381.5C 319.772,385.917 319.272,390.25 318.5,394.5C 316.167,396.167 314.167,398.167 312.5,400.5C 311.094,400.973 310.427,401.973 310.5,403.5C 309.833,403.5 309.5,403.833 309.5,404.5C 308.094,404.973 307.427,405.973 307.5,407.5C 305.75,408.659 304.75,410.326 304.5,412.5C 302.992,414.181 301.992,416.181 301.5,418.5C 299.194,422.085 297.861,426.085 297.5,430.5C 295.752,436.574 295.085,442.907 295.5,449.5C 295.01,456.204 296.01,462.537 298.5,468.5C 299.766,474.36 302.1,479.693 305.5,484.5C 306.116,485.798 306.116,486.798 305.5,487.5C 295.897,481.896 287.897,474.563 281.5,465.5C 281.573,463.973 280.906,462.973 279.5,462.5C 266.458,433.326 270.791,407.16 292.5,384C 303.262,376.175 314.929,369.842 327.5,365C 346.166,353.167 358.666,336.667 365,315.5C 366.692,300.455 368.692,285.455 371,270.5C 382.914,237.614 406.414,222.448 441.5,225C 447.033,226.344 452.366,228.177 457.5,230.5 Z"/></g>
<g><path style="opacity:1" fill="#ba5541" d="M 267.5,217.5 C 265.341,223.151 262.674,228.484 259.5,233.5C 261.126,227.581 263.793,222.247 267.5,217.5 Z"/></g>
<g><path style="opacity:1" fill="#e1e4e8" d="M 80.5,233.5 C 82.5145,234.924 84.8478,235.59 87.5,235.5C 88.7804,236.931 90.4471,237.598 92.5,237.5C 94.8185,237.992 96.8185,238.992 98.5,240.5C 99.6594,242.25 101.326,243.25 103.5,243.5C 103.973,244.906 104.973,245.573 106.5,245.5C 107.262,247.262 108.596,248.262 110.5,248.5C 113.5,250.833 116.167,253.5 118.5,256.5C 118.738,258.404 119.738,259.738 121.5,260.5C 121.557,261.609 121.89,262.609 122.5,263.5C 107.297,265.536 101.13,274.202 104,289.5C 122.288,325.112 150.788,348.278 189.5,359C 208.667,361.167 217.167,352.667 215,333.5C 214.436,331.113 213.27,329.113 211.5,327.5C 216.444,327.754 221.111,328.754 225.5,330.5C 228.95,332.208 232.617,333.541 236.5,334.5C 237.514,335.674 238.847,336.34 240.5,336.5C 242.674,336.75 244.341,337.75 245.5,339.5C 245.973,340.906 246.973,341.573 248.5,341.5C 249.262,343.262 250.596,344.262 252.5,344.5C 253.793,346.296 255.293,347.963 257,349.5C 257.47,350.577 257.303,351.577 256.5,352.5C 254.5,353.833 252.833,355.5 251.5,357.5C 249.086,358.911 247.419,360.911 246.5,363.5C 244.738,364.262 243.738,365.596 243.5,367.5C 241.412,369.336 240.079,371.669 239.5,374.5C 238.662,374.842 238.328,375.508 238.5,376.5C 236.415,378.684 235.415,381.351 235.5,384.5C 234.596,385.209 234.263,386.209 234.5,387.5C 232.882,390.171 232.215,393.171 232.5,396.5C 231.512,399.076 230.512,401.743 229.5,404.5C 228.094,404.973 227.427,405.973 227.5,407.5C 226.833,407.5 226.5,407.833 226.5,408.5C 224.596,408.738 223.262,409.738 222.5,411.5C 219.341,412.331 216.341,413.331 213.5,414.5C 202.799,413.447 192.132,412.114 181.5,410.5C 178.781,409.087 175.781,408.42 172.5,408.5C 170.095,407.232 167.428,406.565 164.5,406.5C 162.485,405.076 160.152,404.41 157.5,404.5C 151.047,401.792 144.38,399.459 137.5,397.5C 135.574,395.707 133.241,394.707 130.5,394.5C 129.486,393.326 128.153,392.66 126.5,392.5C 125.486,391.326 124.153,390.66 122.5,390.5C 120.151,388.659 117.485,387.326 114.5,386.5C 114.158,385.662 113.492,385.328 112.5,385.5C 111.341,383.75 109.674,382.75 107.5,382.5C 107.158,381.662 106.492,381.328 105.5,381.5C 103.371,379.05 100.704,377.383 97.5,376.5C 96.7377,374.738 95.4044,373.738 93.5,373.5C 93.0269,372.094 92.0269,371.427 90.5,371.5C 89.7377,369.738 88.4044,368.738 86.5,368.5C 85.7377,366.738 84.4044,365.738 82.5,365.5C 82.5,364.833 82.1667,364.5 81.5,364.5C 80.4154,362.413 78.7488,361.08 76.5,360.5C 76.5,359.833 76.1667,359.5 75.5,359.5C 70.8333,354.167 65.8333,349.167 60.5,344.5C 60.5,343.833 60.1667,343.5 59.5,343.5C 58.2427,340.573 56.2427,338.239 53.5,336.5C 53.573,334.973 52.9063,333.973 51.5,333.5C 51.5,332.833 51.1667,332.5 50.5,332.5C 50.573,330.973 49.9063,329.973 48.5,329.5C 48.573,327.973 47.9063,326.973 46.5,326.5C 46.5,325.833 46.1667,325.5 45.5,325.5C 45.2503,323.326 44.2503,321.659 42.5,320.5C 42.6716,319.508 42.3382,318.842 41.5,318.5C 41.2503,316.326 40.2503,314.659 38.5,313.5C 38.0075,311.181 37.0075,309.181 35.5,307.5C 35.5979,305.447 34.9313,303.78 33.5,302.5C 33.6716,301.508 33.3382,300.842 32.5,300.5C 32.2671,297.458 31.2671,294.792 29.5,292.5C 28.9448,288.603 27.9448,284.937 26.5,281.5C 26.3541,277.613 25.6874,273.946 24.5,270.5C 24.5458,263.809 24.2125,257.143 23.5,250.5C 24.6047,247.184 26.2713,244.184 28.5,241.5C 30.5368,240.154 32.5368,238.82 34.5,237.5C 38.1402,235.338 42.1402,233.838 46.5,233C 57.8827,230.171 69.216,230.338 80.5,233.5 Z"/></g>
<g><path style="opacity:1" fill="#853d2f" d="M 121.5,231.5 C 124.167,232.167 125.833,233.833 126.5,236.5C 124.5,235.167 122.833,233.5 121.5,231.5 Z"/></g>
<g><path style="opacity:1" fill="#b95540" d="M 457.5,230.5 C 459.027,230.427 460.027,231.094 460.5,232.5C 459.209,232.263 458.209,232.596 457.5,233.5C 455.958,232.699 454.292,232.366 452.5,232.5C 454.167,231.833 455.833,231.167 457.5,230.5 Z"/></g>
<g><path style="opacity:1" fill="#e1e4e8" d="M 452.5,232.5 C 454.292,232.366 455.958,232.699 457.5,233.5C 457.427,235.027 458.094,236.027 459.5,236.5C 459.66,238.153 460.326,239.486 461.5,240.5C 461.66,242.153 462.326,243.486 463.5,244.5C 464.658,247.989 465.991,251.322 467.5,254.5C 467.41,257.152 468.076,259.485 469.5,261.5C 471.438,282.49 470.772,303.49 467.5,324.5C 466.215,327.589 465.549,330.922 465.5,334.5C 463.389,340.606 461.722,346.939 460.5,353.5C 458.928,356.215 457.928,359.215 457.5,362.5C 456.596,363.209 456.263,364.209 456.5,365.5C 455.069,366.78 454.402,368.447 454.5,370.5C 453.596,371.209 453.263,372.209 453.5,373.5C 452.069,374.78 451.402,376.447 451.5,378.5C 450.326,379.514 449.66,380.847 449.5,382.5C 446.326,387.516 443.659,392.849 441.5,398.5C 439.412,400.336 438.079,402.669 437.5,405.5C 436.094,405.973 435.427,406.973 435.5,408.5C 433.75,409.659 432.75,411.326 432.5,413.5C 430.738,414.262 429.738,415.596 429.5,417.5C 428.094,417.973 427.427,418.973 427.5,420.5C 426.094,420.973 425.427,421.973 425.5,423.5C 424.833,423.5 424.5,423.833 424.5,424.5C 423.094,424.973 422.427,425.973 422.5,427.5C 421.5,427.833 420.833,428.5 420.5,429.5C 418.738,430.262 417.738,431.596 417.5,433.5C 415.833,434.5 414.5,435.833 413.5,437.5C 408.833,441.5 404.5,445.833 400.5,450.5C 399.5,450.833 398.833,451.5 398.5,452.5C 396.251,453.08 394.585,454.413 393.5,456.5C 392.833,456.5 392.5,456.833 392.5,457.5C 390.596,457.738 389.262,458.738 388.5,460.5C 386.973,460.427 385.973,461.094 385.5,462.5C 383.205,463.475 381.205,464.808 379.5,466.5C 377.973,466.427 376.973,467.094 376.5,468.5C 374.326,468.75 372.659,469.75 371.5,471.5C 368.515,472.326 365.849,473.659 363.5,475.5C 360.759,475.707 358.426,476.707 356.5,478.5C 353.458,478.733 350.792,479.733 348.5,481.5C 345.848,481.41 343.515,482.076 341.5,483.5C 330.6,485.636 319.6,486.969 308.5,487.5C 307.728,486.306 306.728,485.306 305.5,484.5C 302.1,479.693 299.766,474.36 298.5,468.5C 297.429,462.043 296.429,455.71 295.5,449.5C 295.085,442.907 295.752,436.574 297.5,430.5C 299.405,426.784 300.739,422.784 301.5,418.5C 301.992,416.181 302.992,414.181 304.5,412.5C 306.25,411.341 307.25,409.674 307.5,407.5C 308.906,407.027 309.573,406.027 309.5,404.5C 309.5,403.833 309.833,403.5 310.5,403.5C 311.906,403.027 312.573,402.027 312.5,400.5C 314.167,398.167 316.167,396.167 318.5,394.5C 321.211,399.049 324.877,402.882 329.5,406C 334.746,407.506 340.079,407.839 345.5,407C 380.859,388.469 404.026,359.969 415,321.5C 418.105,309.225 413.939,300.892 402.5,296.5C 398.881,296.119 395.548,295.119 392.5,293.5C 394.334,287.987 396.001,282.32 397.5,276.5C 397.66,274.847 398.326,273.514 399.5,272.5C 400.674,271.486 401.34,270.153 401.5,268.5C 403.25,267.341 404.25,265.674 404.5,263.5C 404.5,262.833 404.833,262.5 405.5,262.5C 406.906,262.027 407.573,261.027 407.5,259.5C 407.5,258.833 407.833,258.5 408.5,258.5C 412.167,255.5 415.5,252.167 418.5,248.5C 418.833,247.5 419.5,246.833 420.5,246.5C 422.027,246.573 423.027,245.906 423.5,244.5C 425.027,244.573 426.027,243.906 426.5,242.5C 426.842,241.662 427.508,241.328 428.5,241.5C 432.151,240.341 435.485,238.674 438.5,236.5C 439.209,235.596 440.209,235.263 441.5,235.5C 445.397,234.945 449.063,233.945 452.5,232.5 Z"/></g>
<g><path style="opacity:1" fill="#c8c9cb" d="M 457.5,233.5 C 458.209,232.596 459.209,232.263 460.5,232.5C 478.633,244.726 489.8,261.726 494,283.5C 497.506,346.484 479.006,401.817 438.5,449.5C 433.5,453.833 428.833,458.5 424.5,463.5C 399.838,484.113 371.338,494.78 339,495.5C 328.747,495.349 318.913,493.349 309.5,489.5C 309.167,488.833 308.833,488.167 308.5,487.5C 319.6,486.969 330.6,485.636 341.5,483.5C 344.152,483.59 346.485,482.924 348.5,481.5C 351.542,481.267 354.208,480.267 356.5,478.5C 359.241,478.293 361.574,477.293 363.5,475.5C 365.849,473.659 368.515,472.326 371.5,471.5C 373.674,471.25 375.341,470.25 376.5,468.5C 378.027,468.573 379.027,467.906 379.5,466.5C 381.205,464.808 383.205,463.475 385.5,462.5C 387.027,462.573 388.027,461.906 388.5,460.5C 390.404,460.262 391.738,459.262 392.5,457.5C 392.5,456.833 392.833,456.5 393.5,456.5C 395.749,455.92 397.415,454.587 398.5,452.5C 398.833,451.5 399.5,450.833 400.5,450.5C 405.833,447.167 410.167,442.833 413.5,437.5C 414.5,435.833 415.833,434.5 417.5,433.5C 419.262,432.738 420.262,431.404 420.5,429.5C 420.833,428.5 421.5,427.833 422.5,427.5C 423.906,427.027 424.573,426.027 424.5,424.5C 424.5,423.833 424.833,423.5 425.5,423.5C 426.906,423.027 427.573,422.027 427.5,420.5C 428.906,420.027 429.573,419.027 429.5,417.5C 431.262,416.738 432.262,415.404 432.5,413.5C 434.25,412.341 435.25,410.674 435.5,408.5C 436.906,408.027 437.573,407.027 437.5,405.5C 439.588,403.664 440.921,401.331 441.5,398.5C 445.207,393.753 447.874,388.419 449.5,382.5C 449.66,380.847 450.326,379.514 451.5,378.5C 452.931,377.22 453.598,375.553 453.5,373.5C 453.263,372.209 453.596,371.209 454.5,370.5C 455.931,369.22 456.598,367.553 456.5,365.5C 456.263,364.209 456.596,363.209 457.5,362.5C 459.472,359.916 460.472,356.916 460.5,353.5C 461.722,346.939 463.389,340.606 465.5,334.5C 467.011,331.456 467.678,328.122 467.5,324.5C 470.772,303.49 471.438,282.49 469.5,261.5C 469.59,258.848 468.924,256.515 467.5,254.5C 465.991,251.322 464.658,247.989 463.5,244.5C 463.771,242.62 463.104,241.287 461.5,240.5C 460.326,239.486 459.66,238.153 459.5,236.5C 459.573,234.973 458.906,233.973 457.5,233.5 Z"/></g>
<g><path style="opacity:1" fill="#d06049" d="M 80.5,233.5 C 83.1522,233.41 85.4855,234.076 87.5,235.5C 84.8478,235.59 82.5145,234.924 80.5,233.5 Z"/></g>
<g><path style="opacity:1" fill="#cc5e47" d="M 452.5,232.5 C 449.063,233.945 445.397,234.945 441.5,235.5C 444.763,233.432 448.43,232.432 452.5,232.5 Z"/></g>
<g><path style="opacity:1" fill="#b95541" d="M 457.5,233.5 C 458.906,233.973 459.573,234.973 459.5,236.5C 458.094,236.027 457.427,235.027 457.5,233.5 Z"/></g>
<g><path style="opacity:1" fill="#ce5f48" d="M 87.5,235.5 C 89.5529,235.402 91.2196,236.069 92.5,237.5C 90.4471,237.598 88.7804,236.931 87.5,235.5 Z"/></g>
<g><path style="opacity:1" fill="#b95541" d="M 258.5,235.5 C 258.598,237.553 257.931,239.22 256.5,240.5C 256.402,238.447 257.069,236.78 258.5,235.5 Z"/></g>
<g><path style="opacity:1" fill="#ce5e47" d="M 438.5,236.5 C 435.485,238.674 432.151,240.341 428.5,241.5C 431.247,238.793 434.58,237.127 438.5,236.5 Z"/></g>
<g><path style="opacity:1" fill="#b75440" d="M 32.5,236.5 C 32.8417,237.338 33.5084,237.672 34.5,237.5C 32.5368,238.82 30.5368,240.154 28.5,241.5C 29.0798,239.251 30.4131,237.585 32.5,236.5 Z"/></g>
<g><path style="opacity:1" fill="#ce5f48" d="M 98.5,240.5 C 100.674,240.75 102.341,241.75 103.5,243.5C 101.326,243.25 99.6594,242.25 98.5,240.5 Z"/></g>
<g><path style="opacity:1" fill="#ba5642" d="M 461.5,240.5 C 463.104,241.287 463.771,242.62 463.5,244.5C 462.326,243.486 461.66,242.153 461.5,240.5 Z"/></g>
<g><path style="opacity:1" fill="#d16049" d="M 103.5,243.5 C 105.027,243.427 106.027,244.094 106.5,245.5C 104.973,245.573 103.973,244.906 103.5,243.5 Z"/></g>
<g><path style="opacity:1" fill="#b95541" d="M 256.5,240.5 C 256.598,242.553 255.931,244.22 254.5,245.5C 254.402,243.447 255.069,241.78 256.5,240.5 Z"/></g>
<g><path style="opacity:1" fill="#cc5e47" d="M 426.5,242.5 C 426.027,243.906 425.027,244.573 423.5,244.5C 423.973,243.094 424.973,242.427 426.5,242.5 Z"/></g>
<g><path style="opacity:1" fill="#d16049" d="M 106.5,245.5 C 108.404,245.738 109.738,246.738 110.5,248.5C 108.596,248.262 107.262,247.262 106.5,245.5 Z"/></g>
<g><path style="opacity:1" fill="#ce5f48" d="M 423.5,244.5 C 423.027,245.906 422.027,246.573 420.5,246.5C 420.973,245.094 421.973,244.427 423.5,244.5 Z"/></g>
<g><path style="opacity:1" fill="#c2beb8" d="M 437.5,245.5 C 445.917,244.45 452.751,247.783 458,255.5C 462.928,263.236 462.428,270.069 456.5,276C 444.33,279.253 435.33,274.753 429.5,262.5C 429.833,261.833 430.167,261.167 430.5,260.5C 430.154,259.304 429.654,259.304 429,260.5C 428.333,257.833 428.333,255.167 429,252.5C 429.333,252.833 429.667,253.167 430,253.5C 428.93,250.778 429.763,248.612 432.5,247C 434.829,246.065 436.496,245.565 437.5,245.5 Z"/></g>
<g><path style="opacity:1" fill="#c8cacc" d="M 23.5,250.5 C 24.2125,257.143 24.5458,263.809 24.5,270.5C 24.2511,274.458 24.9177,278.124 26.5,281.5C 27.9448,284.937 28.9448,288.603 29.5,292.5C 29.7329,295.542 30.7329,298.208 32.5,300.5C 33.3382,300.842 33.6716,301.508 33.5,302.5C 33.4021,304.553 34.0687,306.22 35.5,307.5C 37.0075,309.181 38.0075,311.181 38.5,313.5C 38.7497,315.674 39.7497,317.341 41.5,318.5C 42.3382,318.842 42.6716,319.508 42.5,320.5C 42.7497,322.674 43.7497,324.341 45.5,325.5C 46.1667,325.5 46.5,325.833 46.5,326.5C 46.427,328.027 47.0937,329.027 48.5,329.5C 48.427,331.027 49.0937,332.027 50.5,332.5C 51.1667,332.5 51.5,332.833 51.5,333.5C 51.427,335.027 52.0937,336.027 53.5,336.5C 54.7573,339.427 56.7573,341.761 59.5,343.5C 60.1667,343.5 60.5,343.833 60.5,344.5C 64.5,350.5 69.5,355.5 75.5,359.5C 76.1667,359.5 76.5,359.833 76.5,360.5C 77.5846,362.587 79.2512,363.92 81.5,364.5C 82.1667,364.5 82.5,364.833 82.5,365.5C 83.2623,367.262 84.5956,368.262 86.5,368.5C 87.2623,370.262 88.5956,371.262 90.5,371.5C 90.9731,372.906 91.9731,373.573 93.5,373.5C 94.2623,375.262 95.5956,376.262 97.5,376.5C 99.6291,378.95 102.296,380.617 105.5,381.5C 106.492,381.328 107.158,381.662 107.5,382.5C 108.659,384.25 110.326,385.25 112.5,385.5C 113.492,385.328 114.158,385.662 114.5,386.5C 116.579,388.873 119.246,390.206 122.5,390.5C 123.287,392.104 124.62,392.771 126.5,392.5C 128.153,392.66 129.486,393.326 130.5,394.5C 132.426,396.293 134.759,397.293 137.5,397.5C 144.38,399.459 151.047,401.792 157.5,404.5C 159.515,405.924 161.848,406.59 164.5,406.5C 167.428,406.565 170.095,407.232 172.5,408.5C 175.219,409.913 178.219,410.58 181.5,410.5C 192.132,412.114 202.799,413.447 213.5,414.5C 217.081,414.862 220.081,413.862 222.5,411.5C 224.404,411.262 225.738,410.262 226.5,408.5C 226.5,407.833 226.833,407.5 227.5,407.5C 228.906,407.027 229.573,406.027 229.5,404.5C 230.512,401.743 231.512,399.076 232.5,396.5C 233.657,393.727 234.324,390.727 234.5,387.5C 234.263,386.209 234.596,385.209 235.5,384.5C 237.02,382.11 238.02,379.443 238.5,376.5C 238.328,375.508 238.662,374.842 239.5,374.5C 241.588,372.664 242.921,370.331 243.5,367.5C 245.262,366.738 246.262,365.404 246.5,363.5C 248.914,362.089 250.581,360.089 251.5,357.5C 252.833,355.5 254.5,353.833 256.5,352.5C 257.496,352.586 258.329,352.252 259,351.5C 260.704,353.373 262.537,355.04 264.5,356.5C 264.738,358.404 265.738,359.738 267.5,360.5C 267.427,362.027 268.094,363.027 269.5,363.5C 270.338,363.842 270.672,364.508 270.5,365.5C 270.992,367.819 271.992,369.819 273.5,371.5C 273.402,373.553 274.069,375.22 275.5,376.5C 263.16,391.195 256.327,408.195 255,427.5C 242.628,434.759 229.295,438.759 215,439.5C 200.459,438.959 185.959,437.459 171.5,435C 129.125,427.809 92.1254,409.976 60.5,381.5C 58.1667,378.5 55.5,375.833 52.5,373.5C 28.6209,348.388 16.2875,318.388 15.5,283.5C 15.3895,271.693 18.0561,260.693 23.5,250.5 Z"/></g>
<g><path style="opacity:1" fill="#b95541" d="M 254.5,245.5 C 254.267,248.542 253.267,251.208 251.5,253.5C 251.733,250.458 252.733,247.792 254.5,245.5 Z"/></g>
<g><path style="opacity:1" fill="#cc5e47" d="M 418.5,248.5 C 415.5,252.167 412.167,255.5 408.5,258.5C 410.833,254.167 414.167,250.833 418.5,248.5 Z"/></g>
<g><path style="opacity:1" fill="#c2beb7" d="M 44.5,253.5 C 60.5595,253.056 68.7261,261.056 69,277.5C 68.3457,276.304 67.8457,276.304 67.5,277.5C 68.3409,280.251 67.3409,282.418 64.5,284C 52.1984,287.186 43.1984,282.686 37.5,270.5C 37.8333,269.833 38.1667,269.167 38.5,268.5C 38.1543,267.304 37.6543,267.304 37,268.5C 35.9252,264.142 36.5919,260.142 39,256.5C 39.9138,257.654 40.7471,257.487 41.5,256C 40.1667,255.333 40.1667,254.667 41.5,254C 43.4361,254.666 44.4361,254.5 44.5,253.5 Z"/></g>
<g><path style="opacity:1" fill="#cd5f47" d="M 118.5,256.5 C 120.262,257.262 121.262,258.596 121.5,260.5C 119.738,259.738 118.738,258.404 118.5,256.5 Z"/></g>
<g><path style="opacity:1" fill="#bc5742" d="M 467.5,254.5 C 468.924,256.515 469.59,258.848 469.5,261.5C 468.076,259.485 467.41,257.152 467.5,254.5 Z"/></g>
<g><path style="opacity:1" fill="#cc5e47" d="M 407.5,259.5 C 407.573,261.027 406.906,262.027 405.5,262.5C 405.427,260.973 406.094,259.973 407.5,259.5 Z"/></g>
<g><path style="opacity:1" fill="#cd5e47" d="M 121.5,260.5 C 122.833,261.167 123.833,262.167 124.5,263.5C 123.833,263.5 123.167,263.5 122.5,263.5C 121.89,262.609 121.557,261.609 121.5,260.5 Z"/></g>
<g><path style="opacity:1" fill="#b85440" d="M 249.5,259.5 C 249.59,262.152 248.924,264.485 247.5,266.5C 247.41,263.848 248.076,261.515 249.5,259.5 Z"/></g>
<g><path style="opacity:1" fill="#0d0705" d="M 122.5,263.5 C 123.167,263.5 123.833,263.5 124.5,263.5C 129.357,263.508 133.69,265.008 137.5,268C 152.558,296.049 175.558,314.049 206.5,322C 208.373,323.704 210.04,325.537 211.5,327.5C 213.27,329.113 214.436,331.113 215,333.5C 217.167,352.667 208.667,361.167 189.5,359C 150.788,348.278 122.288,325.112 104,289.5C 101.13,274.202 107.297,265.536 122.5,263.5 Z"/></g>
<g><path style="opacity:1" fill="#ce5f48" d="M 404.5,263.5 C 404.25,265.674 403.25,267.341 401.5,268.5C 401.75,266.326 402.75,264.659 404.5,263.5 Z"/></g>
<g><path style="opacity:1" fill="#cf5f48" d="M 401.5,268.5 C 401.34,270.153 400.674,271.486 399.5,272.5C 399.229,270.62 399.896,269.287 401.5,268.5 Z"/></g>
<g><path style="opacity:1" fill="#b95541" d="M 24.5,270.5 C 25.6874,273.946 26.3541,277.613 26.5,281.5C 24.9177,278.124 24.2511,274.458 24.5,270.5 Z"/></g>
<g><path style="opacity:1" fill="#eef1f4" d="M 212.5,275.5 C 213.5,275.5 214.5,275.5 215.5,275.5C 215.5,281.833 215.5,288.167 215.5,294.5C 202.934,295.194 191.601,291.86 181.5,284.5C 192.213,282.481 202.547,279.481 212.5,275.5 Z"/></g>
<g><path style="opacity:1" fill="#ce5f48" d="M 397.5,276.5 C 396.001,282.32 394.334,287.987 392.5,293.5C 392.789,287.328 394.456,281.662 397.5,276.5 Z"/></g>
<g><path style="opacity:1" fill="#f5d4ac" d="M 121.5,279.5 C 124.325,279.081 126.491,280.081 128,282.5C 143.6,310.093 166.767,327.926 197.5,336C 200.582,339.582 199.915,342.082 195.5,343.5C 161.407,334.23 136.073,314.063 119.5,283C 119.978,281.697 120.645,280.531 121.5,279.5 Z"/></g>
<g><path style="opacity:1" fill="#aa4e3b" d="M 243.5,282.5 C 245.5,283.167 247.5,283.833 249.5,284.5C 246.789,284.185 244.456,284.852 242.5,286.5C 242.232,284.901 242.566,283.568 243.5,282.5 Z"/></g>
<g><path style="opacity:1" fill="#a64c3a" d="M 270.5,290.5 C 274.42,291.127 277.753,292.793 280.5,295.5C 276.849,294.341 273.515,292.674 270.5,290.5 Z"/></g>
<g><path style="opacity:1" fill="#c6bab3" d="M 64.5,292.5 C 65.8734,292.343 67.2068,292.51 68.5,293C 67.3044,293.654 67.3044,294.154 68.5,294.5C 69.451,293.674 70.451,293.508 71.5,294C 73,295.5 74.5,297 76,298.5C 76.6172,299.449 76.4506,300.282 75.5,301C 78.1928,303.905 77.8595,306.571 74.5,309C 64.6667,309.833 60.1667,305.333 61,295.5C 61.3333,295.833 61.6667,296.167 62,296.5C 62.2315,294.843 63.0648,293.509 64.5,292.5 Z"/></g>
<g><path style="opacity:1" fill="#c7bbb3" d="M 440.5,292.5 C 441.873,292.343 443.207,292.51 444.5,293C 443.304,293.654 443.304,294.154 444.5,294.5C 445.451,293.674 446.451,293.508 447.5,294C 449,295.5 450.5,297 452,298.5C 452.617,299.449 452.451,300.282 451.5,301C 454.001,303.399 454.001,305.899 451.5,308.5C 445.991,310.593 441.491,309.26 438,304.5C 435.383,299.578 436.217,295.578 440.5,292.5 Z"/></g>
<g><path style="opacity:1" fill="#a24a38" d="M 242.5,286.5 C 242.167,290.5 241.833,294.5 241.5,298.5C 240.209,298.737 239.209,298.404 238.5,297.5C 240.358,294.13 241.691,290.463 242.5,286.5 Z"/></g>
<g><path style="opacity:1" fill="#45221b" d="M 392.5,293.5 C 395.548,295.119 398.881,296.119 402.5,296.5C 398.167,296.5 393.833,296.5 389.5,296.5C 390.5,295.5 391.5,294.5 392.5,293.5 Z"/></g>
<g><path style="opacity:1" fill="#a44b39" d="M 280.5,295.5 C 282.027,295.427 283.027,296.094 283.5,297.5C 281.973,297.573 280.973,296.906 280.5,295.5 Z"/></g>
<g><path style="opacity:1" fill="#0d0604" d="M 389.5,296.5 C 393.833,296.5 398.167,296.5 402.5,296.5C 413.939,300.892 418.105,309.225 415,321.5C 404.026,359.969 380.859,388.469 345.5,407C 340.079,407.839 334.746,407.506 329.5,406C 324.877,402.882 321.211,399.049 318.5,394.5C 319.272,390.25 319.772,385.917 320,381.5C 320.806,378.554 322.139,375.888 324,373.5C 352.049,358.442 370.049,335.442 378,304.5C 380.934,300.377 384.768,297.71 389.5,296.5 Z"/></g>
<g><path style="opacity:1" fill="#ba5641" d="M 29.5,292.5 C 31.2671,294.792 32.2671,297.458 32.5,300.5C 30.7329,298.208 29.7329,295.542 29.5,292.5 Z"/></g>
<g><path style="opacity:1" fill="#863e2f" d="M 171.5,297.5 C 173.027,297.427 174.027,298.094 174.5,299.5C 172.973,299.573 171.973,298.906 171.5,297.5 Z"/></g>
<g><path style="opacity:1" fill="#a74d3a" d="M 285.5,298.5 C 287.404,298.738 288.738,299.738 289.5,301.5C 287.596,301.262 286.262,300.262 285.5,298.5 Z"/></g>
<g><path style="opacity:1" fill="#a44b39" d="M 324.5,293.5 C 324.451,297.078 323.785,300.411 322.5,303.5C 322.322,299.878 322.989,296.544 324.5,293.5 Z"/></g>
<g><path style="opacity:1" fill="#a64c3a" d="M 289.5,301.5 C 291.749,302.08 293.415,303.413 294.5,305.5C 292.251,304.92 290.585,303.587 289.5,301.5 Z"/></g>
<g><path style="opacity:1" fill="#bc5742" d="M 33.5,302.5 C 34.9313,303.78 35.5979,305.447 35.5,307.5C 34.0687,306.22 33.4021,304.553 33.5,302.5 Z"/></g>
<g><path style="opacity:1" fill="#622e23" d="M 192.5,307.5 C 195.152,307.41 197.485,308.076 199.5,309.5C 196.848,309.59 194.515,308.924 192.5,307.5 Z"/></g>
<g><path style="opacity:1" fill="#f5d4ac" d="M 393.5,311.5 C 396.571,310.925 398.571,312.091 399.5,315C 391.11,346.13 373.444,370.463 346.5,388C 343.702,389.914 340.702,390.914 337.5,391C 335.675,389.534 335.175,387.701 336,385.5C 365.062,368.595 384.229,343.928 393.5,311.5 Z"/></g>
<g><path style="opacity:1" fill="#a44b3a" d="M 302.5,313.5 C 304.587,314.585 305.92,316.251 306.5,318.5C 304.413,317.415 303.08,315.749 302.5,313.5 Z"/></g>
<g><path style="opacity:1" fill="#bb5641" d="M 38.5,313.5 C 40.2503,314.659 41.2503,316.326 41.5,318.5C 39.7497,317.341 38.7497,315.674 38.5,313.5 Z"/></g>
<g><path style="opacity:1" fill="#a34b39" d="M 319.5,318.5 C 319.5,320.5 318.5,321.5 316.5,321.5C 317.167,320.167 318.167,319.167 319.5,318.5 Z"/></g>
<g><path style="opacity:1" fill="#b85541" d="M 42.5,320.5 C 44.2503,321.659 45.2503,323.326 45.5,325.5C 43.7497,324.341 42.7497,322.674 42.5,320.5 Z"/></g>
<g><path style="opacity:1" fill="#8a3f30" d="M 255.5,321.5 C 257.027,321.427 258.027,322.094 258.5,323.5C 256.973,323.573 255.973,322.906 255.5,321.5 Z"/></g>
<g><path style="opacity:1" fill="#843d2e" d="M 258.5,323.5 C 260.027,323.427 261.027,324.094 261.5,325.5C 259.973,325.573 258.973,324.906 258.5,323.5 Z"/></g>
<g><path style="opacity:1" fill="#b95541" d="M 467.5,324.5 C 467.678,328.122 467.011,331.456 465.5,334.5C 465.549,330.922 466.215,327.589 467.5,324.5 Z"/></g>
<g><path style="opacity:1" fill="#ba5540" d="M 46.5,326.5 C 47.9063,326.973 48.573,327.973 48.5,329.5C 47.0937,329.027 46.427,328.027 46.5,326.5 Z"/></g>
<g><path style="opacity:1" fill="#cf5f48" d="M 225.5,330.5 C 229.673,330.667 233.34,332 236.5,334.5C 232.617,333.541 228.95,332.208 225.5,330.5 Z"/></g>
<g><path style="opacity:1" fill="#b95540" d="M 48.5,329.5 C 49.9063,329.973 50.573,330.973 50.5,332.5C 49.0937,332.027 48.427,331.027 48.5,329.5 Z"/></g>
<g><path style="opacity:1" fill="#b85440" d="M 51.5,333.5 C 52.9063,333.973 53.573,334.973 53.5,336.5C 52.0937,336.027 51.427,335.027 51.5,333.5 Z"/></g>
<g><path style="opacity:1" fill="#d06048" d="M 236.5,334.5 C 238.38,334.229 239.713,334.896 240.5,336.5C 238.847,336.34 237.514,335.674 236.5,334.5 Z"/></g>
<g><path style="opacity:1" fill="#ac503c" d="M 281.5,336.5 C 281.842,335.662 282.508,335.328 283.5,335.5C 284.441,337.05 285.107,338.716 285.5,340.5C 284.167,339.167 282.833,337.833 281.5,336.5 Z"/></g>
<g><path style="opacity:1" fill="#b95541" d="M 53.5,336.5 C 56.2427,338.239 58.2427,340.573 59.5,343.5C 56.7573,341.761 54.7573,339.427 53.5,336.5 Z"/></g>
<g><path style="opacity:1" fill="#ce5e48" d="M 245.5,339.5 C 247.027,339.427 248.027,340.094 248.5,341.5C 246.973,341.573 245.973,340.906 245.5,339.5 Z"/></g>
<g><path style="opacity:1" fill="#cf5f48" d="M 248.5,341.5 C 250.404,341.738 251.738,342.738 252.5,344.5C 250.596,344.262 249.262,343.262 248.5,341.5 Z"/></g>
<g><path style="opacity:1" fill="#b95541" d="M 60.5,344.5 C 65.8333,349.167 70.8333,354.167 75.5,359.5C 69.5,355.5 64.5,350.5 60.5,344.5 Z"/></g>
<g><path style="opacity:0.961" fill="#b2523e" d="M 285.5,340.5 C 287.873,342.579 289.206,345.246 289.5,348.5C 287.659,346.151 286.326,343.485 285.5,340.5 Z"/></g>
<g><path style="opacity:1" fill="#c75b45" d="M 252.5,344.5 C 257.5,347.5 261.5,351.5 264.5,356.5C 262.537,355.04 260.704,353.373 259,351.5C 258.329,352.252 257.496,352.586 256.5,352.5C 257.303,351.577 257.47,350.577 257,349.5C 255.293,347.963 253.793,346.296 252.5,344.5 Z"/></g>
<g><path style="opacity:0.965" fill="#b5533f" d="M 289.5,348.5 C 290.931,349.78 291.598,351.447 291.5,353.5C 290.069,352.22 289.402,350.553 289.5,348.5 Z"/></g>
<g><path style="opacity:1" fill="#bf5843" d="M 291.5,353.5 C 292.924,355.515 293.59,357.848 293.5,360.5C 292.076,358.485 291.41,356.152 291.5,353.5 Z"/></g>
<g><path style="opacity:1" fill="#b85441" d="M 460.5,353.5 C 460.472,356.916 459.472,359.916 457.5,362.5C 457.928,359.215 458.928,356.215 460.5,353.5 Z"/></g>
<g><path style="opacity:1" fill="#bf5843" d="M 264.5,356.5 C 266.262,357.262 267.262,358.596 267.5,360.5C 265.738,359.738 264.738,358.404 264.5,356.5 Z"/></g>
<g><path style="opacity:1" fill="#bc5641" d="M 76.5,360.5 C 78.7488,361.08 80.4154,362.413 81.5,364.5C 79.2512,363.92 77.5846,362.587 76.5,360.5 Z"/></g>
<g><path style="opacity:1" fill="#b85440" d="M 251.5,357.5 C 250.581,360.089 248.914,362.089 246.5,363.5C 247.419,360.911 249.086,358.911 251.5,357.5 Z"/></g>
<g><path style="opacity:1" fill="#c45a44" d="M 267.5,360.5 C 268.906,360.973 269.573,361.973 269.5,363.5C 268.094,363.027 267.427,362.027 267.5,360.5 Z"/></g>
<g><path style="opacity:1" fill="#b85440" d="M 246.5,363.5 C 246.262,365.404 245.262,366.738 243.5,367.5C 243.738,365.596 244.738,364.262 246.5,363.5 Z"/></g>
<g><path style="opacity:1" fill="#bb5641" d="M 82.5,365.5 C 84.4044,365.738 85.7377,366.738 86.5,368.5C 84.5956,368.262 83.2623,367.262 82.5,365.5 Z"/></g>
<g><path style="opacity:1" fill="#c55b45" d="M 270.5,365.5 C 272.539,366.911 273.539,368.911 273.5,371.5C 271.992,369.819 270.992,367.819 270.5,365.5 Z"/></g>
<g><path style="opacity:1" fill="#bc5642" d="M 86.5,368.5 C 88.4044,368.738 89.7377,369.738 90.5,371.5C 88.5956,371.262 87.2623,370.262 86.5,368.5 Z"/></g>
<g><path style="opacity:1" fill="#bc5742" d="M 456.5,365.5 C 456.598,367.553 455.931,369.22 454.5,370.5C 454.402,368.447 455.069,366.78 456.5,365.5 Z"/></g>
<g><path style="opacity:1" fill="#bd5742" d="M 90.5,371.5 C 92.0269,371.427 93.0269,372.094 93.5,373.5C 91.9731,373.573 90.9731,372.906 90.5,371.5 Z"/></g>
<g><path style="opacity:1" fill="#bd5742" d="M 93.5,373.5 C 95.4044,373.738 96.7377,374.738 97.5,376.5C 95.5956,376.262 94.2623,375.262 93.5,373.5 Z"/></g>
<g><path style="opacity:1" fill="#b85541" d="M 243.5,367.5 C 242.921,370.331 241.588,372.664 239.5,374.5C 240.079,371.669 241.412,369.336 243.5,367.5 Z"/></g>
<g><path style="opacity:1" fill="#642e23" d="M 283.5,370.5 C 282.089,372.914 280.089,374.581 277.5,375.5C 278.911,373.086 280.911,371.419 283.5,370.5 Z"/></g>
<g><path style="opacity:1" fill="#733529" d="M 52.5,373.5 C 55.5,375.833 58.1667,378.5 60.5,381.5C 56.8333,379.833 54.1667,377.167 52.5,373.5 Z"/></g>
<g><path style="opacity:1" fill="#c25943" d="M 273.5,371.5 C 274.931,372.78 275.598,374.447 275.5,376.5C 274.069,375.22 273.402,373.553 273.5,371.5 Z"/></g>
<g><path style="opacity:1" fill="#b95540" d="M 453.5,373.5 C 453.598,375.553 452.931,377.22 451.5,378.5C 451.402,376.447 452.069,374.78 453.5,373.5 Z"/></g>
<g><path style="opacity:1" fill="#b95541" d="M 97.5,376.5 C 100.704,377.383 103.371,379.05 105.5,381.5C 102.296,380.617 99.6291,378.95 97.5,376.5 Z"/></g>
<g><path style="opacity:1" fill="#b95541" d="M 238.5,376.5 C 238.02,379.443 237.02,382.11 235.5,384.5C 235.415,381.351 236.415,378.684 238.5,376.5 Z"/></g>
<g><path style="opacity:1" fill="#bb5642" d="M 107.5,382.5 C 109.674,382.75 111.341,383.75 112.5,385.5C 110.326,385.25 108.659,384.25 107.5,382.5 Z"/></g>
<g><path style="opacity:1" fill="#b95541" d="M 449.5,382.5 C 447.874,388.419 445.207,393.753 441.5,398.5C 443.659,392.849 446.326,387.516 449.5,382.5 Z"/></g>
<g><path style="opacity:1" fill="#b95541" d="M 114.5,386.5 C 117.485,387.326 120.151,388.659 122.5,390.5C 119.246,390.206 116.579,388.873 114.5,386.5 Z"/></g>
<g><path style="opacity:1" fill="#ba5641" d="M 122.5,390.5 C 124.153,390.66 125.486,391.326 126.5,392.5C 124.62,392.771 123.287,392.104 122.5,390.5 Z"/></g>
<g><path style="opacity:1" fill="#b95541" d="M 234.5,387.5 C 234.324,390.727 233.657,393.727 232.5,396.5C 232.215,393.171 232.882,390.171 234.5,387.5 Z"/></g>
<g><path style="opacity:1" fill="#b95541" d="M 130.5,394.5 C 133.241,394.707 135.574,395.707 137.5,397.5C 134.759,397.293 132.426,396.293 130.5,394.5 Z"/></g>
<g><path style="opacity:1" fill="#bb5641" d="M 441.5,398.5 C 440.921,401.331 439.588,403.664 437.5,405.5C 438.079,402.669 439.412,400.336 441.5,398.5 Z"/></g>
<g><path style="opacity:1" fill="#cd5e47" d="M 312.5,400.5 C 312.573,402.027 311.906,403.027 310.5,403.5C 310.427,401.973 311.094,400.973 312.5,400.5 Z"/></g>
<g><path style="opacity:1" fill="#bc5642" d="M 157.5,404.5 C 160.152,404.41 162.485,405.076 164.5,406.5C 161.848,406.59 159.515,405.924 157.5,404.5 Z"/></g>
<g><path style="opacity:1" fill="#b85440" d="M 229.5,404.5 C 229.573,406.027 228.906,407.027 227.5,407.5C 227.427,405.973 228.094,404.973 229.5,404.5 Z"/></g>
<g><path style="opacity:1" fill="#cd5f48" d="M 309.5,404.5 C 309.573,406.027 308.906,407.027 307.5,407.5C 307.427,405.973 308.094,404.973 309.5,404.5 Z"/></g>
<g><path style="opacity:1" fill="#ba5541" d="M 437.5,405.5 C 437.573,407.027 436.906,408.027 435.5,408.5C 435.427,406.973 436.094,405.973 437.5,405.5 Z"/></g>
<g><path style="opacity:1" fill="#bd5742" d="M 172.5,408.5 C 175.781,408.42 178.781,409.087 181.5,410.5C 178.219,410.58 175.219,409.913 172.5,408.5 Z"/></g>
<g><path style="opacity:1" fill="#b95541" d="M 226.5,408.5 C 225.738,410.262 224.404,411.262 222.5,411.5C 223.262,409.738 224.596,408.738 226.5,408.5 Z"/></g>
<g><path style="opacity:1" fill="#cd5e48" d="M 307.5,407.5 C 307.25,409.674 306.25,411.341 304.5,412.5C 304.75,410.326 305.75,408.659 307.5,407.5 Z"/></g>
<g><path style="opacity:1" fill="#bb5641" d="M 435.5,408.5 C 435.25,410.674 434.25,412.341 432.5,413.5C 432.75,411.326 433.75,409.659 435.5,408.5 Z"/></g>
<g><path style="opacity:1" fill="#bb5642" d="M 222.5,411.5 C 220.081,413.862 217.081,414.862 213.5,414.5C 216.341,413.331 219.341,412.331 222.5,411.5 Z"/></g>
<g><path style="opacity:1" fill="#b95540" d="M 432.5,413.5 C 432.262,415.404 431.262,416.738 429.5,417.5C 429.738,415.596 430.738,414.262 432.5,413.5 Z"/></g>
<g><path style="opacity:1" fill="#bb5641" d="M 429.5,417.5 C 429.573,419.027 428.906,420.027 427.5,420.5C 427.427,418.973 428.094,417.973 429.5,417.5 Z"/></g>
<g><path style="opacity:1" fill="#ce5f47" d="M 301.5,418.5 C 300.739,422.784 299.405,426.784 297.5,430.5C 297.861,426.085 299.194,422.085 301.5,418.5 Z"/></g>
<g><path style="opacity:1" fill="#b85540" d="M 427.5,420.5 C 427.573,422.027 426.906,423.027 425.5,423.5C 425.427,421.973 426.094,420.973 427.5,420.5 Z"/></g>
<g><path style="opacity:1" fill="#b75540" d="M 424.5,424.5 C 424.573,426.027 423.906,427.027 422.5,427.5C 422.427,425.973 423.094,424.973 424.5,424.5 Z"/></g>
<g><path style="opacity:1" fill="#b85540" d="M 420.5,429.5 C 420.262,431.404 419.262,432.738 417.5,433.5C 417.738,431.596 418.738,430.262 420.5,429.5 Z"/></g>
<g><path style="opacity:1" fill="#b85540" d="M 413.5,437.5 C 410.167,442.833 405.833,447.167 400.5,450.5C 404.5,445.833 408.833,441.5 413.5,437.5 Z"/></g>
<g><path style="opacity:1" fill="#592920" d="M 438.5,449.5 C 434.833,455.167 430.167,459.833 424.5,463.5C 428.833,458.5 433.5,453.833 438.5,449.5 Z"/></g>
<g><path style="opacity:1" fill="#b85540" d="M 398.5,452.5 C 397.415,454.587 395.749,455.92 393.5,456.5C 394.585,454.413 396.251,453.08 398.5,452.5 Z"/></g>
<g><path style="opacity:1" fill="#b75440" d="M 392.5,457.5 C 391.738,459.262 390.404,460.262 388.5,460.5C 389.262,458.738 390.596,457.738 392.5,457.5 Z"/></g>
<g><path style="opacity:1" fill="#b85440" d="M 388.5,460.5 C 388.027,461.906 387.027,462.573 385.5,462.5C 385.973,461.094 386.973,460.427 388.5,460.5 Z"/></g>
<g><path style="opacity:1" fill="#cf6048" d="M 295.5,449.5 C 296.429,455.71 297.429,462.043 298.5,468.5C 296.01,462.537 295.01,456.204 295.5,449.5 Z"/></g>
<g><path style="opacity:1" fill="#8c4031" d="M 279.5,462.5 C 280.906,462.973 281.573,463.973 281.5,465.5C 280.094,465.027 279.427,464.027 279.5,462.5 Z"/></g>
<g><path style="opacity:1" fill="#b85540" d="M 379.5,466.5 C 379.027,467.906 378.027,468.573 376.5,468.5C 376.973,467.094 377.973,466.427 379.5,466.5 Z"/></g>
<g><path style="opacity:1" fill="#b95541" d="M 376.5,468.5 C 375.341,470.25 373.674,471.25 371.5,471.5C 372.659,469.75 374.326,468.75 376.5,468.5 Z"/></g>
<g><path style="opacity:1" fill="#ba5641" d="M 363.5,475.5 C 361.574,477.293 359.241,478.293 356.5,478.5C 358.426,476.707 360.759,475.707 363.5,475.5 Z"/></g>
<g><path style="opacity:1" fill="#b95541" d="M 356.5,478.5 C 354.208,480.267 351.542,481.267 348.5,481.5C 350.792,479.733 353.458,478.733 356.5,478.5 Z"/></g>
<g><path style="opacity:1" fill="#b75440" d="M 348.5,481.5 C 346.485,482.924 344.152,483.59 341.5,483.5C 343.515,482.076 345.848,481.41 348.5,481.5 Z"/></g>
<g><path style="opacity:1" fill="#c85c46" d="M 305.5,484.5 C 306.728,485.306 307.728,486.306 308.5,487.5C 308.833,488.167 309.167,488.833 309.5,489.5C 307.847,489.34 306.514,488.674 305.5,487.5C 306.116,486.798 306.116,485.798 305.5,484.5 Z"/></g>
</svg>
