<?xml version="1.0" encoding="UTF-8"?>
<!DOCTYPE svg PUBLIC "-//W3C//DTD SVG 1.1//EN" "http://www.w3.org/Graphics/SVG/1.1/DTD/svg11.dtd">
<svg xmlns="http://www.w3.org/2000/svg" version="1.1" width="512px" height="512px" style="shape-rendering:geometricPrecision; text-rendering:geometricPrecision; image-rendering:optimizeQuality; fill-rule:evenodd; clip-rule:evenodd" xmlns:xlink="http://www.w3.org/1999/xlink">
<g><path style="opacity:0.978" fill="#000000" d="M 239.5,-0.5 C 253.833,-0.5 268.167,-0.5 282.5,-0.5C 323.045,4.90591 355.545,23.9059 380,56.5C 382.372,61.4118 384.872,66.2451 387.5,71C 430.159,71.9047 457.659,92.738 470,133.5C 474.877,156.117 470.877,177.117 458,196.5C 455.948,194.942 453.781,193.608 451.5,192.5C 451.5,192.167 451.5,191.833 451.5,191.5C 449.519,189.856 447.519,188.19 445.5,186.5C 449.135,180.927 451.802,174.927 453.5,168.5C 453.5,167.833 453.5,167.167 453.5,166.5C 454.903,163.091 455.57,159.425 455.5,155.5C 455.5,151.5 455.5,147.5 455.5,143.5C 450.231,115.397 433.897,97.2303 406.5,89C 372.107,83.4322 340.773,90.7656 312.5,111C 273.933,141.586 249.099,181.086 238,229.5C 232.552,251.528 230.552,273.862 232,296.5C 235.085,297.432 238.252,298.099 241.5,298.5C 260.754,303.956 276.42,314.622 288.5,330.5C 286.606,331.945 284.94,333.612 283.5,335.5C 280.86,336.993 278.193,338.16 275.5,339C 263.873,323.848 248.54,314.848 229.5,312C 181.354,312.515 149.52,290.015 134,244.5C 115.484,219.508 90.9839,210.675 60.5,218C 47.0978,222.253 36.4311,230.086 28.5,241.5C 25.7589,243.975 23.7589,246.975 22.5,250.5C 19.2724,256.008 17.1057,262.008 16,268.5C 11.5805,309.747 23.7472,345.081 52.5,374.5C 54.5691,377.573 57.2358,379.906 60.5,381.5C 79.0148,399.787 100.681,413.621 125.5,423C 159.667,436.473 195.001,441.473 231.5,438C 239.629,436.179 247.296,433.179 254.5,429C 256.772,410.677 263.438,394.177 274.5,379.5C 280.886,372.781 287.886,366.781 295.5,361.5C 336.501,348.217 355.668,319.883 353,276.5C 363.207,232.149 391.04,209.149 436.5,207.5C 437.167,207.5 437.833,207.5 438.5,207.5C 470.148,212.642 492.315,229.975 505,259.5C 507.718,266.807 509.885,274.141 511.5,281.5C 511.5,293.833 511.5,306.167 511.5,318.5C 507.026,366.443 490.526,409.776 462,448.5C 435.794,482.556 401.627,503.556 359.5,511.5C 347.167,511.5 334.833,511.5 322.5,511.5C 286.752,503.92 264.585,482.254 256,446.5C 247.356,450.936 238.189,453.77 228.5,455C 160.071,458.747 100.071,438.414 48.5,394C 21.9758,369.32 5.64249,339.153 -0.5,303.5C -0.5,291.167 -0.5,278.833 -0.5,266.5C 3.47994,246.541 13.1466,229.874 28.5,216.5C 58.8515,195.667 90.1849,194.167 122.5,212C 140.447,224.701 152.947,241.535 160,262.5C 161.833,265 163.667,267.5 165.5,270C 183.348,268.746 200.515,264.58 217,257.5C 223.116,208.769 241.449,165.435 272,127.5C 279.374,119.958 286.874,112.625 294.5,105.5C 261.332,88.432 231.999,93.5987 206.5,121C 185.862,137.326 162.529,142.992 136.5,138C 126.224,134.463 115.89,131.13 105.5,128C 69.1831,124.733 45.0164,140.233 33,174.5C 31.6785,182.439 31.1785,190.439 31.5,198.5C 29.2646,198.205 27.2646,198.539 25.5,199.5C 24.5084,199.328 23.8417,199.662 23.5,200.5C 20.7938,200.575 18.1272,200.908 15.5,201.5C 12.4148,157.633 31.4148,128.3 72.5,113.5C 75.681,102.639 80.3476,92.4722 86.5,83C 89.3001,83.0665 91.6334,84.2332 93.5,86.5C 95.727,88.4491 97.727,90.6158 99.5,93C 95.869,98.7608 93.2023,104.927 91.5,111.5C 97.5551,111.338 103.555,111.838 109.5,113C 119.926,116.047 130.26,119.38 140.5,123C 156.65,126.086 171.983,123.753 186.5,116C 196.88,107.285 207.547,98.9516 218.5,91C 249.285,74.7703 279.118,76.2703 308,95.5C 326.808,83.2839 347.308,75.2839 369.5,71.5C 350.378,41.2492 323.045,23.0825 287.5,17C 236.383,11.1957 189.383,22.5291 146.5,51C 133.13,60.0307 120.63,70.1973 109,81.5C 107.223,79.2101 105.056,77.5434 102.5,76.5C 100.856,74.5193 99.1897,72.5193 97.5,70.5C 136.727,30.8865 184.06,7.21981 239.5,-0.5 Z"/></g>
<g><path style="opacity:1" fill="#4a241a" d="M 93.5,86.5 C 96.5,83.1667 99.5,79.8333 102.5,76.5C 105.056,77.5434 107.223,79.2101 109,81.5C 120.63,70.1973 133.13,60.0307 146.5,51C 189.383,22.5291 236.383,11.1957 287.5,17C 323.045,23.0825 350.378,41.2492 369.5,71.5C 347.308,75.2839 326.808,83.2839 308,95.5C 279.118,76.2703 249.285,74.7703 218.5,91C 207.547,98.9516 196.88,107.285 186.5,116C 171.983,123.753 156.65,126.086 140.5,123C 130.26,119.38 119.926,116.047 109.5,113C 103.555,111.838 97.5551,111.338 91.5,111.5C 93.2023,104.927 95.869,98.7608 99.5,93C 97.727,90.6158 95.727,88.4491 93.5,86.5 Z"/></g>
<g><path style="opacity:1" fill="#5d2d21" d="M 455.5,143.5 C 454.298,144.405 452.964,144.405 451.5,143.5C 448.883,142.214 446.55,140.547 444.5,138.5C 441.086,135.46 437.086,133.46 432.5,132.5C 430.214,132.405 428.214,131.738 426.5,130.5C 420.537,128.01 414.204,127.01 407.5,127.5C 387.855,127.274 368.855,130.607 350.5,137.5C 346.418,138.376 342.751,140.043 339.5,142.5C 308.684,160.982 284.684,185.982 267.5,217.5C 263.793,222.247 261.126,227.581 259.5,233.5C 252.863,249.579 247.529,266.079 243.5,283C 245.708,283.191 247.708,283.691 249.5,284.5C 247.396,284.201 245.396,284.534 243.5,285.5C 242.293,289.744 241.626,294.077 241.5,298.5C 238.252,298.099 235.085,297.432 232,296.5C 230.552,273.862 232.552,251.528 238,229.5C 249.099,181.086 273.933,141.586 312.5,111C 340.773,90.7656 372.107,83.4322 406.5,89C 433.897,97.2303 450.231,115.397 455.5,143.5 Z"/></g>
<g><path style="opacity:1" fill="#4a241a" d="M 28.5,216.5 C 28.5,215.833 28.5,215.167 28.5,214.5C 27.0253,209.6 26.0253,204.6 25.5,199.5C 27.2646,198.539 29.2646,198.205 31.5,198.5C 31.1785,190.439 31.6785,182.439 33,174.5C 45.0164,140.233 69.1831,124.733 105.5,128C 115.89,131.13 126.224,134.463 136.5,138C 162.529,142.992 185.862,137.326 206.5,121C 231.999,93.5987 261.332,88.432 294.5,105.5C 286.874,112.625 279.374,119.958 272,127.5C 241.449,165.435 223.116,208.769 217,257.5C 200.515,264.58 183.348,268.746 165.5,270C 163.667,267.5 161.833,265 160,262.5C 152.947,241.535 140.447,224.701 122.5,212C 90.1849,194.167 58.8515,195.667 28.5,216.5 Z"/></g>
<g><path style="opacity:1" fill="#c6bfb9" d="M 407.5,101.5 C 415.085,100.944 419.751,104.277 421.5,111.5C 420.422,117.095 417.088,118.928 411.5,117C 407.983,114.485 405.649,111.151 404.5,107C 404.685,104.624 405.685,102.791 407.5,101.5 Z"/></g>
<g><path style="opacity:1" fill="#4a241a" d="M 407.5,127.5 C 413.71,128.429 420.043,129.429 426.5,130.5C 428.214,131.738 430.214,132.405 432.5,132.5C 436.182,135.008 440.182,137.008 444.5,138.5C 446.55,140.547 448.883,142.214 451.5,143.5C 452.122,144.627 452.955,145.627 454,146.5C 454.181,149.695 454.681,152.695 455.5,155.5C 455.57,159.425 454.903,163.091 453.5,166.5C 449.975,167.759 446.975,169.759 444.5,172.5C 440.507,175.163 436.173,177.33 431.5,179C 422.787,181.842 414.12,184.675 405.5,187.5C 400.434,177.527 392.434,174.027 381.5,177C 344.517,196.497 321.184,226.664 311.5,267.5C 311.995,277.53 316.995,283.864 326.5,286.5C 324.22,296.399 322.387,306.399 321,316.5C 318.589,322.267 314.423,323.933 308.5,321.5C 304.183,315.851 299.517,310.517 294.5,305.5C 293.415,303.413 291.749,302.08 289.5,301.5C 286.32,299.745 283.32,297.745 280.5,295.5C 277.753,292.793 274.42,291.127 270.5,290.5C 263.441,288.322 256.441,286.322 249.5,284.5C 247.708,283.691 245.708,283.191 243.5,283C 247.529,266.079 252.863,249.579 259.5,233.5C 262.674,228.484 265.341,223.151 267.5,217.5C 284.684,185.982 308.684,160.982 339.5,142.5C 343.582,141.624 347.249,139.957 350.5,137.5C 368.855,130.607 387.855,127.274 407.5,127.5 Z"/></g>
<g><path style="opacity:1" fill="#ba5541" d="M 407.5,127.5 C 414.204,127.01 420.537,128.01 426.5,130.5C 420.043,129.429 413.71,128.429 407.5,127.5 Z"/></g>
<g><path style="opacity:1" fill="#020101" d="M 211.5,131.5 C 228.033,131.861 235.533,140.194 234,156.5C 232.71,160.24 230.543,163.407 227.5,166C 193.041,185.9 156.708,190.233 118.5,179C 107.055,171.982 104.555,162.482 111,150.5C 115.259,145.287 120.759,142.621 127.5,142.5C 149.001,148.275 170.335,147.775 191.5,141C 198.42,138.037 205.087,134.87 211.5,131.5 Z"/></g>
<g><path style="opacity:1" fill="#b95541" d="M 432.5,132.5 C 437.086,133.46 441.086,135.46 444.5,138.5C 440.182,137.008 436.182,135.008 432.5,132.5 Z"/></g>
<g><path style="opacity:1" fill="#b85440" d="M 350.5,137.5 C 347.249,139.957 343.582,141.624 339.5,142.5C 342.751,140.043 346.418,138.376 350.5,137.5 Z"/></g>
<g><path style="opacity:1" fill="#a54b39" d="M 451.5,143.5 C 452.964,144.405 454.298,144.405 455.5,143.5C 455.5,147.5 455.5,151.5 455.5,155.5C 454.681,152.695 454.181,149.695 454,146.5C 452.955,145.627 452.122,144.627 451.5,143.5 Z"/></g>
<g><path style="opacity:1" fill="#dbb98c" d="M 212.5,147.5 C 215.885,146.79 218.219,147.956 219.5,151C 217.286,153.458 214.619,155.458 211.5,157C 183.852,170.488 155.185,173.155 125.5,165C 122.41,161.508 123.077,159.342 127.5,158.5C 151.543,164.772 175.21,163.606 198.5,155C 203.674,153.249 208.341,150.749 212.5,147.5 Z"/></g>
<g><path style="opacity:1" fill="#321812" d="M 453.5,168.5 C 451.802,174.927 449.135,180.927 445.5,186.5C 447.519,188.19 449.519,189.856 451.5,191.5C 446.528,196.807 441.528,202.14 436.5,207.5C 391.04,209.149 363.207,232.149 353,276.5C 355.668,319.883 336.501,348.217 295.5,361.5C 292.099,352.663 288.099,343.997 283.5,335.5C 284.94,333.612 286.606,331.945 288.5,330.5C 276.42,314.622 260.754,303.956 241.5,298.5C 241.626,294.077 242.293,289.744 243.5,285.5C 245.396,284.534 247.396,284.201 249.5,284.5C 256.441,286.322 263.441,288.322 270.5,290.5C 273.515,292.674 276.849,294.341 280.5,295.5C 283.32,297.745 286.32,299.745 289.5,301.5C 290.585,303.587 292.251,304.92 294.5,305.5C 299.517,310.517 304.183,315.851 308.5,321.5C 314.423,323.933 318.589,322.267 321,316.5C 322.387,306.399 324.22,296.399 326.5,286.5C 334.583,288.052 341.416,285.718 347,279.5C 352.01,262.814 359.676,247.48 370,233.5C 379.161,223.84 389.661,216.007 401.5,210C 406.929,203.139 408.262,195.639 405.5,187.5C 414.12,184.675 422.787,181.842 431.5,179C 436.173,177.33 440.507,175.163 444.5,172.5C 447.5,171.167 450.5,169.833 453.5,168.5 Z"/></g>
<g><path style="opacity:1" fill="#a34b39" d="M 453.5,166.5 C 453.5,167.167 453.5,167.833 453.5,168.5C 450.5,169.833 447.5,171.167 444.5,172.5C 446.975,169.759 449.975,167.759 453.5,166.5 Z"/></g>
<g><path style="opacity:1" fill="#020101" d="M 405.5,187.5 C 408.262,195.639 406.929,203.139 401.5,210C 389.661,216.007 379.161,223.84 370,233.5C 359.676,247.48 352.01,262.814 347,279.5C 341.416,285.718 334.583,288.052 326.5,286.5C 316.995,283.864 311.995,277.53 311.5,267.5C 321.184,226.664 344.517,196.497 381.5,177C 392.434,174.027 400.434,177.527 405.5,187.5 Z"/></g>
<g><path style="opacity:1" fill="#ddba8d" d="M 386.5,191.5 C 390.487,191.652 391.987,193.652 391,197.5C 362.275,213.589 343.608,237.589 335,269.5C 331.418,272.582 328.918,271.915 327.5,267.5C 336.74,233.943 356.407,208.61 386.5,191.5 Z"/></g>
<g><path style="opacity:0.627" fill="#a44d39" d="M 451.5,191.5 C 451.5,191.833 451.5,192.167 451.5,192.5C 447.54,197.795 443.207,202.795 438.5,207.5C 437.833,207.5 437.167,207.5 436.5,207.5C 441.528,202.14 446.528,196.807 451.5,191.5 Z"/></g>
<g><path style="opacity:0.896" fill="#ad503c" d="M 23.5,200.5 C 23.8417,199.662 24.5084,199.328 25.5,199.5C 26.0253,204.6 27.0253,209.6 28.5,214.5C 26.2194,210.039 24.5527,205.372 23.5,200.5 Z"/></g>
<g><path style="opacity:1" fill="#612f22" d="M 283.5,335.5 C 288.099,343.997 292.099,352.663 295.5,361.5C 287.886,366.781 280.886,372.781 274.5,379.5C 274.414,378.504 274.748,377.671 275.5,377C 274.139,375.416 273.472,373.582 273.5,371.5C 273.539,368.911 272.539,366.911 270.5,365.5C 268.255,362.68 266.255,359.68 264.5,356.5C 263.581,353.911 261.914,351.911 259.5,350.5C 258.833,350.5 258.5,350.167 258.5,349.5C 257.089,347.086 255.089,345.419 252.5,344.5C 247.355,340.422 241.688,337.089 235.5,334.5C 232.808,331.819 229.475,330.486 225.5,330.5C 220.853,329.704 216.186,329.037 211.5,328.5C 210.04,326.537 208.373,324.704 206.5,323C 176.816,315.924 154.649,299.091 140,272.5C 135.598,266.752 129.764,263.752 122.5,263.5C 113.795,250.461 102.128,241.128 87.5,235.5C 85.4855,234.076 83.1522,233.41 80.5,233.5C 65.5455,230.661 50.8788,231.827 36.5,237C 33.6441,238.259 30.9774,239.759 28.5,241.5C 36.4311,230.086 47.0978,222.253 60.5,218C 90.9839,210.675 115.484,219.508 134,244.5C 149.52,290.015 181.354,312.515 229.5,312C 248.54,314.848 263.873,323.848 275.5,339C 278.193,338.16 280.86,336.993 283.5,335.5 Z"/></g>
<g><path style="opacity:1" fill="#5f2e21" d="M 460.5,232.5 C 458.64,231.929 456.973,231.929 455.5,232.5C 454.5,232.5 453.5,232.5 452.5,232.5C 448.43,232.432 444.763,233.432 441.5,235.5C 440.791,236.404 439.791,236.737 438.5,236.5C 434.58,237.127 431.247,238.793 428.5,241.5C 425.204,243.821 421.871,246.154 418.5,248.5C 414.167,250.833 410.833,254.167 408.5,258.5C 404.799,264.522 401.132,270.522 397.5,276.5C 394.456,281.662 392.789,287.328 392.5,293.5C 392.443,294.609 392.11,295.609 391.5,296.5C 386.491,297.76 382.325,300.426 379,304.5C 371.924,334.184 355.091,356.351 328.5,371C 320.841,377.136 318.174,384.97 320.5,394.5C 317.606,395.882 315.106,397.882 313,400.5C 308.893,406.395 305.059,412.395 301.5,418.5C 299.194,422.085 297.861,426.085 297.5,430.5C 296.899,436.842 296.232,443.176 295.5,449.5C 295.01,456.204 296.01,462.537 298.5,468.5C 300.795,473.765 303.128,479.098 305.5,484.5C 306.405,485.964 306.405,487.298 305.5,488.5C 275.617,470.048 265.451,443.715 275,409.5C 279.817,398.007 286.984,388.174 296.5,380C 310.123,373.189 323.456,365.855 336.5,358C 359.503,337.016 370.003,310.85 368,279.5C 374.386,249.447 392.553,230.947 422.5,224C 436.44,221.822 449.107,224.655 460.5,232.5 Z"/></g>
<g><path style="opacity:1" fill="#ba5541" d="M 267.5,217.5 C 265.341,223.151 262.674,228.484 259.5,233.5C 261.126,227.581 263.793,222.247 267.5,217.5 Z"/></g>
<g><path style="opacity:1" fill="#49241a" d="M 80.5,233.5 C 82.5145,234.924 84.8478,235.59 87.5,235.5C 102.128,241.128 113.795,250.461 122.5,263.5C 107.918,266.341 102.084,275.008 105,289.5C 124.529,326.675 154.862,350.008 196,359.5C 207.833,358.333 214.333,351.833 215.5,340C 214.999,335.805 213.666,331.971 211.5,328.5C 216.186,329.037 220.853,329.704 225.5,330.5C 228.678,332.009 232.011,333.342 235.5,334.5C 241.688,337.089 247.355,340.422 252.5,344.5C 253.833,346.5 255.5,348.167 257.5,349.5C 246.916,359.659 239.082,371.659 234,385.5C 233.413,396.731 228.579,405.564 219.5,412C 216.893,412.818 214.226,413.318 211.5,413.5C 197.086,411.846 182.752,409.679 168.5,407C 139.61,398.22 112.944,385.22 88.5,368C 65.5824,351.085 47.7491,329.919 35,304.5C 28.8737,289.074 25.5404,273.074 25,256.5C 23.9808,254.498 23.1475,252.498 22.5,250.5C 23.7589,246.975 25.7589,243.975 28.5,241.5C 30.9774,239.759 33.6441,238.259 36.5,237C 50.8788,231.827 65.5455,230.661 80.5,233.5 Z"/></g>
<g><path style="opacity:1" fill="#321812" d="M 460.5,232.5 C 470.766,238.265 478.933,246.265 485,256.5C 492.82,269.948 496.32,284.448 495.5,300C 494.895,350.814 479.728,396.648 450,437.5C 426.48,469.004 395.314,488.171 356.5,495C 345.833,495.667 335.167,495.667 324.5,495C 318.971,494.217 313.971,492.384 309.5,489.5C 309.167,488.833 308.833,488.167 308.5,487.5C 332.792,486.568 355.459,480.068 376.5,468C 387.832,459.754 398.665,450.921 409,441.5C 411.907,437.586 415.24,433.919 419,430.5C 421.496,424.009 425.496,418.676 431,414.5C 432.542,407.746 435.875,402.079 441,397.5C 448.398,379.969 455.398,362.302 462,344.5C 468.844,320.32 471.511,295.654 470,270.5C 465.842,257.518 461.008,244.851 455.5,232.5C 456.973,231.929 458.64,231.929 460.5,232.5 Z"/></g>
<g><path style="opacity:1" fill="#49241a" d="M 452.5,232.5 C 453.5,232.5 454.5,232.5 455.5,232.5C 461.008,244.851 465.842,257.518 470,270.5C 471.511,295.654 468.844,320.32 462,344.5C 455.398,362.302 448.398,379.969 441,397.5C 435.875,402.079 432.542,407.746 431,414.5C 425.496,418.676 421.496,424.009 419,430.5C 415.24,433.919 411.907,437.586 409,441.5C 398.665,450.921 387.832,459.754 376.5,468C 355.459,480.068 332.792,486.568 308.5,487.5C 307.728,486.306 306.728,485.306 305.5,484.5C 303.128,479.098 300.795,473.765 298.5,468.5C 297.429,462.043 296.429,455.71 295.5,449.5C 296.232,443.176 296.899,436.842 297.5,430.5C 299.405,426.784 300.739,422.784 301.5,418.5C 305.059,412.395 308.893,406.395 313,400.5C 315.106,397.882 317.606,395.882 320.5,394.5C 325.587,405.149 333.92,408.982 345.5,406C 382.902,386.411 406.236,355.911 415.5,314.5C 413.25,300.718 405.25,294.718 391.5,296.5C 392.11,295.609 392.443,294.609 392.5,293.5C 394.334,287.987 396.001,282.32 397.5,276.5C 401.132,270.522 404.799,264.522 408.5,258.5C 412.167,255.5 415.5,252.167 418.5,248.5C 421.871,246.154 425.204,243.821 428.5,241.5C 432.151,240.341 435.485,238.674 438.5,236.5C 439.791,236.737 440.791,236.404 441.5,235.5C 445.397,234.945 449.063,233.945 452.5,232.5 Z"/></g>
<g><path style="opacity:1" fill="#d06049" d="M 80.5,233.5 C 83.1522,233.41 85.4855,234.076 87.5,235.5C 84.8478,235.59 82.5145,234.924 80.5,233.5 Z"/></g>
<g><path style="opacity:1" fill="#cc5e47" d="M 452.5,232.5 C 449.063,233.945 445.397,234.945 441.5,235.5C 444.763,233.432 448.43,232.432 452.5,232.5 Z"/></g>
<g><path style="opacity:1" fill="#ce5e47" d="M 438.5,236.5 C 435.485,238.674 432.151,240.341 428.5,241.5C 431.247,238.793 434.58,237.127 438.5,236.5 Z"/></g>
<g><path style="opacity:1" fill="#c2c0ba" d="M 434.5,245.5 C 449.388,244.552 458.388,251.385 461.5,266C 459.947,275.113 454.614,278.779 445.5,277C 433.448,272.315 428.115,263.648 429.5,251C 431.293,249.221 432.959,247.388 434.5,245.5 Z"/></g>
<g><path style="opacity:1" fill="#321711" d="M 22.5,250.5 C 23.1475,252.498 23.9808,254.498 25,256.5C 25.5404,273.074 28.8737,289.074 35,304.5C 47.7491,329.919 65.5824,351.085 88.5,368C 112.944,385.22 139.61,398.22 168.5,407C 182.752,409.679 197.086,411.846 211.5,413.5C 214.226,413.318 216.893,412.818 219.5,412C 228.579,405.564 233.413,396.731 234,385.5C 239.082,371.659 246.916,359.659 257.5,349.5C 257.833,349.5 258.167,349.5 258.5,349.5C 258.5,350.167 258.833,350.5 259.5,350.5C 260.419,353.089 262.086,355.089 264.5,356.5C 266.255,359.68 268.255,362.68 270.5,365.5C 270.992,367.819 271.992,369.819 273.5,371.5C 273.472,373.582 274.139,375.416 275.5,377C 274.748,377.671 274.414,378.504 274.5,379.5C 263.438,394.177 256.772,410.677 254.5,429C 247.296,433.179 239.629,436.179 231.5,438C 195.001,441.473 159.667,436.473 125.5,423C 100.681,413.621 79.0148,399.787 60.5,381.5C 58.1595,378.114 55.4929,375.78 52.5,374.5C 23.7472,345.081 11.5805,309.747 16,268.5C 17.1057,262.008 19.2724,256.008 22.5,250.5 Z"/></g>
<g><path style="opacity:1" fill="#cc5e47" d="M 418.5,248.5 C 415.5,252.167 412.167,255.5 408.5,258.5C 410.833,254.167 414.167,250.833 418.5,248.5 Z"/></g>
<g><path style="opacity:1" fill="#c2c0ba" d="M 44.5,252.5 C 53.3263,252.83 60.4929,256.497 66,263.5C 69.4524,270.153 69.2858,276.653 65.5,283C 59.8624,286.257 54.1957,286.257 48.5,283C 39.9478,277.397 36.1145,269.564 37,259.5C 38.7668,256.228 41.2668,253.895 44.5,252.5 Z"/></g>
<g><path style="opacity:1" fill="#020101" d="M 122.5,263.5 C 129.764,263.752 135.598,266.752 140,272.5C 154.649,299.091 176.816,315.924 206.5,323C 208.373,324.704 210.04,326.537 211.5,328.5C 213.666,331.971 214.999,335.805 215.5,340C 214.333,351.833 207.833,358.333 196,359.5C 154.862,350.008 124.529,326.675 105,289.5C 102.084,275.008 107.918,266.341 122.5,263.5 Z"/></g>
<g><path style="opacity:1" fill="#eef1f4" d="M 212.5,275.5 C 213.5,275.5 214.5,275.5 215.5,275.5C 215.5,281.833 215.5,288.167 215.5,294.5C 202.934,295.194 191.601,291.86 181.5,284.5C 192.213,282.481 202.547,279.481 212.5,275.5 Z"/></g>
<g><path style="opacity:1" fill="#ce5f48" d="M 397.5,276.5 C 396.001,282.32 394.334,287.987 392.5,293.5C 392.789,287.328 394.456,281.662 397.5,276.5 Z"/></g>
<g><path style="opacity:1" fill="#f5d4ac" d="M 121.5,279.5 C 124.325,279.081 126.491,280.081 128,282.5C 143.6,310.093 166.767,327.926 197.5,336C 200.582,339.582 199.915,342.082 195.5,343.5C 161.407,334.23 136.073,314.063 119.5,283C 119.978,281.697 120.645,280.531 121.5,279.5 Z"/></g>
<g><path style="opacity:1" fill="#a64c3a" d="M 270.5,290.5 C 274.42,291.127 277.753,292.793 280.5,295.5C 276.849,294.341 273.515,292.674 270.5,290.5 Z"/></g>
<g><path style="opacity:1" fill="#c7bdb6" d="M 64.5,292.5 C 71.7959,292.962 76.1292,296.795 77.5,304C 76.0886,309.141 72.7553,310.808 67.5,309C 62.0871,305.956 59.9204,301.456 61,295.5C 62.1451,294.364 63.3117,293.364 64.5,292.5 Z"/></g>
<g><path style="opacity:1" fill="#c7bfb8" d="M 438.5,293.5 C 446.741,292.604 451.741,296.104 453.5,304C 452.089,309.141 448.755,310.808 443.5,309C 436.504,305.45 434.837,300.283 438.5,293.5 Z"/></g>
<g><path style="opacity:1" fill="#020201" d="M 320.5,394.5 C 318.174,384.97 320.841,377.136 328.5,371C 355.091,356.351 371.924,334.184 379,304.5C 382.325,300.426 386.491,297.76 391.5,296.5C 405.25,294.718 413.25,300.718 415.5,314.5C 406.236,355.911 382.902,386.411 345.5,406C 333.92,408.982 325.587,405.149 320.5,394.5 Z"/></g>
<g><path style="opacity:1" fill="#a64c3a" d="M 289.5,301.5 C 291.749,302.08 293.415,303.413 294.5,305.5C 292.251,304.92 290.585,303.587 289.5,301.5 Z"/></g>
<g><path style="opacity:1" fill="#f5d4ac" d="M 393.5,311.5 C 396.571,310.925 398.571,312.091 399.5,315C 391.11,346.13 373.444,370.463 346.5,388C 343.702,389.914 340.702,390.914 337.5,391C 335.675,389.534 335.175,387.701 336,385.5C 365.094,368.57 384.261,343.903 393.5,311.5 Z"/></g>
<g><path style="opacity:1" fill="#cf5f48" d="M 225.5,330.5 C 229.475,330.486 232.808,331.819 235.5,334.5C 232.011,333.342 228.678,332.009 225.5,330.5 Z"/></g>
<g><path style="opacity:1" fill="#d05f49" d="M 252.5,344.5 C 255.089,345.419 257.089,347.086 258.5,349.5C 258.167,349.5 257.833,349.5 257.5,349.5C 255.5,348.167 253.833,346.5 252.5,344.5 Z"/></g>
<g><path style="opacity:1" fill="#c35944" d="M 259.5,350.5 C 261.914,351.911 263.581,353.911 264.5,356.5C 262.086,355.089 260.419,353.089 259.5,350.5 Z"/></g>
<g><path style="opacity:1" fill="#c55b45" d="M 270.5,365.5 C 272.539,366.911 273.539,368.911 273.5,371.5C 271.992,369.819 270.992,367.819 270.5,365.5 Z"/></g>
<g><path style="opacity:1" fill="#733529" d="M 60.5,381.5 C 57.2358,379.906 54.5691,377.573 52.5,374.5C 55.4929,375.78 58.1595,378.114 60.5,381.5 Z"/></g>
<g><path style="opacity:1" fill="#ce5f47" d="M 301.5,418.5 C 300.739,422.784 299.405,426.784 297.5,430.5C 297.861,426.085 299.194,422.085 301.5,418.5 Z"/></g>
<g><path style="opacity:1" fill="#cf6048" d="M 295.5,449.5 C 296.429,455.71 297.429,462.043 298.5,468.5C 296.01,462.537 295.01,456.204 295.5,449.5 Z"/></g>
<g><path style="opacity:1" fill="#c85c46" d="M 305.5,484.5 C 306.728,485.306 307.728,486.306 308.5,487.5C 308.833,488.167 309.167,488.833 309.5,489.5C 308.167,489.167 306.833,488.833 305.5,488.5C 306.405,487.298 306.405,485.964 305.5,484.5 Z"/></g>
</svg>
