<?xml version="1.0" encoding="UTF-8"?>
<!DOCTYPE svg PUBLIC "-//W3C//DTD SVG 1.1//EN" "http://www.w3.org/Graphics/SVG/1.1/DTD/svg11.dtd">
<svg xmlns="http://www.w3.org/2000/svg" version="1.1" width="512px" height="512px" style="shape-rendering:geometricPrecision; text-rendering:geometricPrecision; image-rendering:optimizeQuality; fill-rule:evenodd; clip-rule:evenodd" xmlns:xlink="http://www.w3.org/1999/xlink">
<g><path style="opacity:0.978" fill="#010000" d="M 239.5,-0.5 C 253.833,-0.5 268.167,-0.5 282.5,-0.5C 323.045,4.90591 355.545,23.9059 380,56.5C 382.372,61.4118 384.872,66.2451 387.5,71C 430.159,71.9047 457.659,92.738 470,133.5C 474.877,156.117 470.877,177.117 458,196.5C 455.948,194.942 453.781,193.608 451.5,192.5C 451.5,192.167 451.5,191.833 451.5,191.5C 449.519,189.856 447.519,188.19 445.5,186.5C 449.135,180.927 451.802,174.927 453.5,168.5C 453.5,167.833 453.5,167.167 453.5,166.5C 454.341,164.621 454.675,162.621 454.5,160.5C 455.833,154.167 455.833,147.833 454.5,141.5C 446.285,105.132 423.452,87.1317 386,87.5C 349.601,88.1199 318.767,101.453 293.5,127.5C 256.879,166.471 236.379,212.804 232,266.5C 231.5,276.494 231.334,286.494 231.5,296.5C 233.806,296.993 236.139,297.326 238.5,297.5C 239.209,298.404 240.209,298.737 241.5,298.5C 260.963,303.636 276.63,314.303 288.5,330.5C 286.606,331.945 284.94,333.612 283.5,335.5C 282.508,335.328 281.842,335.662 281.5,336.5C 279.787,338.195 277.787,339.028 275.5,339C 266.299,326.725 254.299,318.392 239.5,314C 224.465,312.254 209.465,310.254 194.5,308C 164.563,297.394 144.729,276.894 135,246.5C 132.86,242.538 130.027,239.204 126.5,236.5C 125.833,233.833 124.167,232.167 121.5,231.5C 112.651,222.911 101.984,217.744 89.5,216C 66.7369,212.862 47.7369,219.695 32.5,236.5C 30.4131,237.585 29.0798,239.251 28.5,241.5C 25.7589,243.975 23.7589,246.975 22.5,250.5C 19.0699,256.288 16.9032,262.621 16,269.5C 12.0341,310.115 24.2008,344.782 52.5,373.5C 54.1667,377.167 56.8333,379.833 60.5,381.5C 79.0515,399.801 100.718,413.634 125.5,423C 159.662,436.472 194.995,441.472 231.5,438C 239.629,436.179 247.296,433.179 254.5,429C 256.374,410.539 263.041,394.039 274.5,379.5C 280.886,372.781 287.886,366.781 295.5,361.5C 313.651,356.347 328.484,346.347 340,331.5C 343.803,325.561 346.803,319.227 349,312.5C 350.623,297.108 352.623,281.774 355,266.5C 368.596,228.116 395.763,208.449 436.5,207.5C 437.167,207.5 437.833,207.5 438.5,207.5C 470.148,212.642 492.315,229.975 505,259.5C 507.718,266.807 509.885,274.141 511.5,281.5C 511.5,293.833 511.5,306.167 511.5,318.5C 507.026,366.443 490.526,409.776 462,448.5C 435.794,482.556 401.627,503.556 359.5,511.5C 347.167,511.5 334.833,511.5 322.5,511.5C 286.752,503.92 264.585,482.254 256,446.5C 247.356,450.936 238.189,453.77 228.5,455C 160.071,458.747 100.071,438.414 48.5,394C 21.9758,369.32 5.64249,339.153 -0.5,303.5C -0.5,291.167 -0.5,278.833 -0.5,266.5C 3.47994,246.541 13.1466,229.874 28.5,216.5C 58.876,195.964 90.2093,194.464 122.5,212C 140.435,224.662 152.935,241.496 160,262.5C 161.833,265 163.667,267.5 165.5,270C 182.302,268.639 198.635,264.972 214.5,259C 216.333,258.5 217.5,257.333 218,255.5C 224.754,195.655 250.254,145.655 294.5,105.5C 261.332,88.432 231.999,93.5987 206.5,121C 187.466,136.117 165.799,142.117 141.5,139C 129.308,135.901 117.308,132.234 105.5,128C 69.1778,124.735 45.0111,140.235 33,174.5C 31.6785,182.439 31.1785,190.439 31.5,198.5C 29.2646,198.205 27.2646,198.539 25.5,199.5C 24.5084,199.328 23.8417,199.662 23.5,200.5C 20.7938,200.575 18.1272,200.908 15.5,201.5C 12.4148,157.633 31.4148,128.3 72.5,113.5C 75.681,102.639 80.3476,92.4722 86.5,83C 89.3001,83.0665 91.6334,84.2332 93.5,86.5C 93.8333,87.5 94.5,88.1667 95.5,88.5C 97.3226,89.4933 98.6559,90.9933 99.5,93C 96.4801,97.8719 94.1468,103.039 92.5,108.5C 91.596,109.209 91.2627,110.209 91.5,111.5C 94.1667,111.5 96.8333,111.5 99.5,111.5C 104.526,112.115 109.526,112.949 114.5,114C 123.103,117.201 131.769,120.201 140.5,123C 156.666,126.083 172,123.75 186.5,116C 196.88,107.285 207.547,98.9516 218.5,91C 235.599,81.1448 253.933,77.8115 273.5,81C 286.122,83.3139 297.622,88.1472 308,95.5C 326.781,83.2916 347.281,75.2916 369.5,71.5C 348.896,39.4376 319.562,20.9376 281.5,16C 235.953,12.3032 193.619,22.3032 154.5,46C 138.188,56.3059 123.021,68.1393 109,81.5C 107.629,79.9586 106.129,78.6253 104.5,77.5C 104.158,76.6618 103.492,76.3284 102.5,76.5C 100.856,74.5193 99.1897,72.5193 97.5,70.5C 136.727,30.8865 184.06,7.21981 239.5,-0.5 Z"/></g>
<g><path style="opacity:1" fill="#333233" d="M 99.5,111.5 C 96.8411,111.083 94.5078,110.083 92.5,108.5C 94.1468,103.039 96.4801,97.8719 99.5,93C 98.6559,90.9933 97.3226,89.4933 95.5,88.5C 96.0427,85.9616 97.0427,83.6282 98.5,81.5C 100.246,79.7484 102.246,78.4151 104.5,77.5C 106.129,78.6253 107.629,79.9586 109,81.5C 123.021,68.1393 138.188,56.3059 154.5,46C 193.619,22.3032 235.953,12.3032 281.5,16C 319.562,20.9376 348.896,39.4376 369.5,71.5C 347.281,75.2916 326.781,83.2916 308,95.5C 297.622,88.1472 286.122,83.3139 273.5,81C 253.933,77.8115 235.599,81.1448 218.5,91C 207.547,98.9516 196.88,107.285 186.5,116C 172,123.75 156.666,126.083 140.5,123C 131.769,120.201 123.103,117.201 114.5,114C 109.526,112.949 104.526,112.115 99.5,111.5 Z"/></g>
<g><path style="opacity:0.761" fill="#9b4737" d="M 102.5,76.5 C 103.492,76.3284 104.158,76.6618 104.5,77.5C 102.246,78.4151 100.246,79.7484 98.5,81.5C 99.0798,79.2512 100.413,77.5846 102.5,76.5 Z"/></g>
<g><path style="opacity:0.737" fill="#914333" d="M 98.5,81.5 C 97.0427,83.6282 96.0427,85.9616 95.5,88.5C 94.5,88.1667 93.8333,87.5 93.5,86.5C 94.806,84.5273 96.4727,82.8606 98.5,81.5 Z"/></g>
<g><path style="opacity:1" fill="#676566" d="M 454.5,141.5 C 454.649,142.552 454.483,143.552 454,144.5C 453.329,143.748 452.496,143.414 451.5,143.5C 450.738,141.738 449.404,140.738 447.5,140.5C 447.027,139.094 446.027,138.427 444.5,138.5C 441.086,135.46 437.086,133.46 432.5,132.5C 430.214,132.405 428.214,131.738 426.5,130.5C 420.537,128.01 414.204,127.01 407.5,127.5C 387.855,127.274 368.855,130.607 350.5,137.5C 346.418,138.376 342.751,140.043 339.5,142.5C 336.669,143.079 334.336,144.412 332.5,146.5C 330.973,146.427 329.973,147.094 329.5,148.5C 327.973,148.427 326.973,149.094 326.5,150.5C 324.596,150.738 323.262,151.738 322.5,153.5C 320.596,153.738 319.262,154.738 318.5,156.5C 316.596,156.738 315.262,157.738 314.5,159.5C 314.167,160.5 313.5,161.167 312.5,161.5C 309.911,162.419 307.911,164.086 306.5,166.5C 303.119,170.548 299.452,174.215 295.5,177.5C 293.413,178.585 292.08,180.251 291.5,182.5C 291.167,183.5 290.5,184.167 289.5,184.5C 287.413,185.585 286.08,187.251 285.5,189.5C 284.094,189.973 283.427,190.973 283.5,192.5C 283.5,193.167 283.167,193.5 282.5,193.5C 281.094,193.973 280.427,194.973 280.5,196.5C 279.974,198.23 278.974,199.564 277.5,200.5C 275.05,202.629 273.383,205.296 272.5,208.5C 272.672,209.492 272.338,210.158 271.5,210.5C 270.094,210.973 269.427,211.973 269.5,213.5C 269.34,215.153 268.674,216.486 267.5,217.5C 263.793,222.247 261.126,227.581 259.5,233.5C 259.672,234.492 259.338,235.158 258.5,235.5C 257.069,236.78 256.402,238.447 256.5,240.5C 255.069,241.78 254.402,243.447 254.5,245.5C 252.733,247.792 251.733,250.458 251.5,253.5C 251.405,255.786 250.738,257.786 249.5,259.5C 248.076,261.515 247.41,263.848 247.5,266.5C 246.531,272.039 245.198,277.372 243.5,282.5C 242.566,283.568 242.232,284.901 242.5,286.5C 241.691,290.463 240.358,294.13 238.5,297.5C 236.139,297.326 233.806,296.993 231.5,296.5C 231.334,286.494 231.5,276.494 232,266.5C 236.379,212.804 256.879,166.471 293.5,127.5C 318.767,101.453 349.601,88.1199 386,87.5C 423.452,87.1317 446.285,105.132 454.5,141.5 Z"/></g>
<g><path style="opacity:1" fill="#353333" d="M 28.5,216.5 C 28.5,215.833 28.5,215.167 28.5,214.5C 27.0253,209.6 26.0253,204.6 25.5,199.5C 27.2646,198.539 29.2646,198.205 31.5,198.5C 31.1785,190.439 31.6785,182.439 33,174.5C 45.0111,140.235 69.1778,124.735 105.5,128C 117.308,132.234 129.308,135.901 141.5,139C 165.799,142.117 187.466,136.117 206.5,121C 231.999,93.5987 261.332,88.432 294.5,105.5C 250.254,145.655 224.754,195.655 218,255.5C 217.5,257.333 216.333,258.5 214.5,259C 198.635,264.972 182.302,268.639 165.5,270C 163.667,267.5 161.833,265 160,262.5C 152.935,241.496 140.435,224.662 122.5,212C 90.2093,194.464 58.876,195.964 28.5,216.5 Z"/></g>
<g><path style="opacity:1" fill="#c6beb8" d="M 406.5,101.5 C 414.778,100.134 419.778,103.467 421.5,111.5C 420.422,117.095 417.088,118.928 411.5,117C 405.079,113.181 403.413,108.014 406.5,101.5 Z"/></g>
<g><path style="opacity:1" fill="#843d2f" d="M 92.5,108.5 C 94.5078,110.083 96.8411,111.083 99.5,111.5C 96.8333,111.5 94.1667,111.5 91.5,111.5C 91.2627,110.209 91.596,109.209 92.5,108.5 Z"/></g>
<g><path style="opacity:1" fill="#333333" d="M 407.5,127.5 C 413.71,128.429 420.043,129.429 426.5,130.5C 428.214,131.738 430.214,132.405 432.5,132.5C 436.182,135.008 440.182,137.008 444.5,138.5C 444.973,139.906 445.973,140.573 447.5,140.5C 448.262,142.262 449.596,143.262 451.5,143.5C 452.122,144.627 452.955,145.627 454,146.5C 454.499,151.155 454.666,155.821 454.5,160.5C 454.675,162.621 454.341,164.621 453.5,166.5C 449.975,167.759 446.975,169.759 444.5,172.5C 437.714,176.656 430.381,179.656 422.5,181.5C 419.848,181.41 417.515,182.076 415.5,183.5C 412.043,184.466 408.71,185.799 405.5,187.5C 400.568,177.204 392.568,173.704 381.5,177C 344.311,196.54 320.978,226.873 311.5,268C 312.302,276.807 316.635,282.974 324.5,286.5C 324.85,288.626 324.85,290.959 324.5,293.5C 322.989,296.544 322.322,299.878 322.5,303.5C 321.419,308.486 320.419,313.486 319.5,318.5C 318.167,319.167 317.167,320.167 316.5,321.5C 313.428,321.817 310.428,321.484 307.5,320.5C 307.137,319.817 306.804,319.15 306.5,318.5C 305.92,316.251 304.587,314.585 302.5,313.5C 299.5,311.167 296.833,308.5 294.5,305.5C 293.415,303.413 291.749,302.08 289.5,301.5C 288.738,299.738 287.404,298.738 285.5,298.5C 284.508,298.672 283.842,298.338 283.5,297.5C 283.027,296.094 282.027,295.427 280.5,295.5C 277.753,292.793 274.42,291.127 270.5,290.5C 266.942,289.758 263.609,288.424 260.5,286.5C 256.911,285.352 253.244,284.685 249.5,284.5C 247.5,283.833 245.5,283.167 243.5,282.5C 245.198,277.372 246.531,272.039 247.5,266.5C 248.924,264.485 249.59,262.152 249.5,259.5C 250.738,257.786 251.405,255.786 251.5,253.5C 253.267,251.208 254.267,248.542 254.5,245.5C 255.931,244.22 256.598,242.553 256.5,240.5C 257.931,239.22 258.598,237.553 258.5,235.5C 259.338,235.158 259.672,234.492 259.5,233.5C 262.674,228.484 265.341,223.151 267.5,217.5C 268.674,216.486 269.34,215.153 269.5,213.5C 270.906,213.027 271.573,212.027 271.5,210.5C 272.338,210.158 272.672,209.492 272.5,208.5C 274.95,206.371 276.617,203.704 277.5,200.5C 278.974,199.564 279.974,198.23 280.5,196.5C 281.906,196.027 282.573,195.027 282.5,193.5C 283.167,193.5 283.5,193.167 283.5,192.5C 284.906,192.027 285.573,191.027 285.5,189.5C 287.587,188.415 288.92,186.749 289.5,184.5C 290.5,184.167 291.167,183.5 291.5,182.5C 293.587,181.415 294.92,179.749 295.5,177.5C 299.452,174.215 303.119,170.548 306.5,166.5C 309.089,165.581 311.089,163.914 312.5,161.5C 313.5,161.167 314.167,160.5 314.5,159.5C 316.404,159.262 317.738,158.262 318.5,156.5C 320.404,156.262 321.738,155.262 322.5,153.5C 324.404,153.262 325.738,152.262 326.5,150.5C 328.027,150.573 329.027,149.906 329.5,148.5C 331.027,148.573 332.027,147.906 332.5,146.5C 335.331,145.921 337.664,144.588 339.5,142.5C 343.582,141.624 347.249,139.957 350.5,137.5C 368.855,130.607 387.855,127.274 407.5,127.5 Z"/></g>
<g><path style="opacity:1" fill="#ba5541" d="M 407.5,127.5 C 414.204,127.01 420.537,128.01 426.5,130.5C 420.043,129.429 413.71,128.429 407.5,127.5 Z"/></g>
<g><path style="opacity:1" fill="#020101" d="M 212.5,131.5 C 231.714,133.216 238.214,143.216 232,161.5C 224.873,167.984 216.707,172.818 207.5,176C 179.246,186.633 150.58,187.966 121.5,180C 107.691,173.908 104.191,164.075 111,150.5C 115.38,145.144 121.046,142.477 128,142.5C 149.346,148.232 170.513,147.732 191.5,141C 198.645,137.753 205.645,134.587 212.5,131.5 Z"/></g>
<g><path style="opacity:1" fill="#b95541" d="M 432.5,132.5 C 437.086,133.46 441.086,135.46 444.5,138.5C 440.182,137.008 436.182,135.008 432.5,132.5 Z"/></g>
<g><path style="opacity:1" fill="#b85440" d="M 350.5,137.5 C 347.249,139.957 343.582,141.624 339.5,142.5C 342.751,140.043 346.418,138.376 350.5,137.5 Z"/></g>
<g><path style="opacity:1" fill="#bb5641" d="M 444.5,138.5 C 446.027,138.427 447.027,139.094 447.5,140.5C 445.973,140.573 444.973,139.906 444.5,138.5 Z"/></g>
<g><path style="opacity:1" fill="#bb5641" d="M 447.5,140.5 C 449.404,140.738 450.738,141.738 451.5,143.5C 449.596,143.262 448.262,142.262 447.5,140.5 Z"/></g>
<g><path style="opacity:1" fill="#ba5641" d="M 339.5,142.5 C 337.664,144.588 335.331,145.921 332.5,146.5C 334.336,144.412 336.669,143.079 339.5,142.5 Z"/></g>
<g><path style="opacity:1" fill="#dbb98c" d="M 212.5,147.5 C 215.885,146.79 218.219,147.956 219.5,151C 217.286,153.458 214.619,155.458 211.5,157C 183.852,170.488 155.185,173.155 125.5,165C 122.41,161.508 123.077,159.342 127.5,158.5C 151.543,164.772 175.21,163.606 198.5,155C 203.674,153.249 208.341,150.749 212.5,147.5 Z"/></g>
<g><path style="opacity:1" fill="#b85440" d="M 332.5,146.5 C 332.027,147.906 331.027,148.573 329.5,148.5C 329.973,147.094 330.973,146.427 332.5,146.5 Z"/></g>
<g><path style="opacity:1" fill="#b85540" d="M 329.5,148.5 C 329.027,149.906 328.027,150.573 326.5,150.5C 326.973,149.094 327.973,148.427 329.5,148.5 Z"/></g>
<g><path style="opacity:1" fill="#984635" d="M 454.5,141.5 C 455.833,147.833 455.833,154.167 454.5,160.5C 454.666,155.821 454.499,151.155 454,146.5C 452.955,145.627 452.122,144.627 451.5,143.5C 452.496,143.414 453.329,143.748 454,144.5C 454.483,143.552 454.649,142.552 454.5,141.5 Z"/></g>
<g><path style="opacity:1" fill="#b75440" d="M 326.5,150.5 C 325.738,152.262 324.404,153.262 322.5,153.5C 323.262,151.738 324.596,150.738 326.5,150.5 Z"/></g>
<g><path style="opacity:1" fill="#b75440" d="M 322.5,153.5 C 321.738,155.262 320.404,156.262 318.5,156.5C 319.262,154.738 320.596,153.738 322.5,153.5 Z"/></g>
<g><path style="opacity:1" fill="#b75440" d="M 318.5,156.5 C 317.738,158.262 316.404,159.262 314.5,159.5C 315.262,157.738 316.596,156.738 318.5,156.5 Z"/></g>
<g><path style="opacity:1" fill="#b65340" d="M 312.5,161.5 C 311.089,163.914 309.089,165.581 306.5,166.5C 307.911,164.086 309.911,162.419 312.5,161.5 Z"/></g>
<g><path style="opacity:1" fill="#322f2f" d="M 453.5,168.5 C 451.802,174.927 449.135,180.927 445.5,186.5C 447.519,188.19 449.519,189.856 451.5,191.5C 446.528,196.807 441.528,202.14 436.5,207.5C 395.763,208.449 368.596,228.116 355,266.5C 352.623,281.774 350.623,297.108 349,312.5C 346.803,319.227 343.803,325.561 340,331.5C 328.484,346.347 313.651,356.347 295.5,361.5C 294.833,361.167 294.167,360.833 293.5,360.5C 293.59,357.848 292.924,355.515 291.5,353.5C 291.598,351.447 290.931,349.78 289.5,348.5C 289.206,345.246 287.873,342.579 285.5,340.5C 285.107,338.716 284.441,337.05 283.5,335.5C 284.94,333.612 286.606,331.945 288.5,330.5C 276.63,314.303 260.963,303.636 241.5,298.5C 241.833,294.5 242.167,290.5 242.5,286.5C 244.456,284.852 246.789,284.185 249.5,284.5C 253.244,284.685 256.911,285.352 260.5,286.5C 263.609,288.424 266.942,289.758 270.5,290.5C 273.515,292.674 276.849,294.341 280.5,295.5C 280.973,296.906 281.973,297.573 283.5,297.5C 283.842,298.338 284.508,298.672 285.5,298.5C 286.262,300.262 287.596,301.262 289.5,301.5C 290.585,303.587 292.251,304.92 294.5,305.5C 296.833,308.5 299.5,311.167 302.5,313.5C 303.08,315.749 304.413,317.415 306.5,318.5C 306.804,319.15 307.137,319.817 307.5,320.5C 310.428,321.484 313.428,321.817 316.5,321.5C 318.5,321.5 319.5,320.5 319.5,318.5C 320.419,313.486 321.419,308.486 322.5,303.5C 323.785,300.411 324.451,297.078 324.5,293.5C 324.85,290.959 324.85,288.626 324.5,286.5C 333.929,288.514 341.762,285.848 348,278.5C 353.231,257.195 363.731,239.028 379.5,224C 385.166,219.831 391.166,216.165 397.5,213C 406.256,206.522 408.923,198.022 405.5,187.5C 408.71,185.799 412.043,184.466 415.5,183.5C 418.152,183.59 420.485,182.924 422.5,181.5C 430.381,179.656 437.714,176.656 444.5,172.5C 447.5,171.167 450.5,169.833 453.5,168.5 Z"/></g>
<g><path style="opacity:1" fill="#a34b39" d="M 453.5,166.5 C 453.5,167.167 453.5,167.833 453.5,168.5C 450.5,169.833 447.5,171.167 444.5,172.5C 446.975,169.759 449.975,167.759 453.5,166.5 Z"/></g>
<g><path style="opacity:1" fill="#020101" d="M 405.5,187.5 C 408.923,198.022 406.256,206.522 397.5,213C 391.166,216.165 385.166,219.831 379.5,224C 363.731,239.028 353.231,257.195 348,278.5C 341.762,285.848 333.929,288.514 324.5,286.5C 316.635,282.974 312.302,276.807 311.5,268C 320.978,226.873 344.311,196.54 381.5,177C 392.568,173.704 400.568,177.204 405.5,187.5 Z"/></g>
<g><path style="opacity:1" fill="#b85440" d="M 295.5,177.5 C 294.92,179.749 293.587,181.415 291.5,182.5C 292.08,180.251 293.413,178.585 295.5,177.5 Z"/></g>
<g><path style="opacity:1" fill="#a24b39" d="M 422.5,181.5 C 420.485,182.924 418.152,183.59 415.5,183.5C 417.515,182.076 419.848,181.41 422.5,181.5 Z"/></g>
<g><path style="opacity:1" fill="#ba5641" d="M 289.5,184.5 C 288.92,186.749 287.587,188.415 285.5,189.5C 286.08,187.251 287.413,185.585 289.5,184.5 Z"/></g>
<g><path style="opacity:1" fill="#b85440" d="M 285.5,189.5 C 285.573,191.027 284.906,192.027 283.5,192.5C 283.427,190.973 284.094,189.973 285.5,189.5 Z"/></g>
<g><path style="opacity:1" fill="#ddba8d" d="M 386.5,191.5 C 390.487,191.652 391.987,193.652 391,197.5C 362.275,213.589 343.608,237.589 335,269.5C 331.418,272.582 328.918,271.915 327.5,267.5C 336.74,233.943 356.407,208.61 386.5,191.5 Z"/></g>
<g><path style="opacity:1" fill="#b85540" d="M 282.5,193.5 C 282.573,195.027 281.906,196.027 280.5,196.5C 280.427,194.973 281.094,193.973 282.5,193.5 Z"/></g>
<g><path style="opacity:0.627" fill="#a44d39" d="M 451.5,191.5 C 451.5,191.833 451.5,192.167 451.5,192.5C 447.54,197.795 443.207,202.795 438.5,207.5C 437.833,207.5 437.167,207.5 436.5,207.5C 441.528,202.14 446.528,196.807 451.5,191.5 Z"/></g>
<g><path style="opacity:1" fill="#ba5641" d="M 277.5,200.5 C 276.617,203.704 274.95,206.371 272.5,208.5C 273.383,205.296 275.05,202.629 277.5,200.5 Z"/></g>
<g><path style="opacity:0.896" fill="#ad503c" d="M 23.5,200.5 C 23.8417,199.662 24.5084,199.328 25.5,199.5C 26.0253,204.6 27.0253,209.6 28.5,214.5C 26.2194,210.039 24.5527,205.372 23.5,200.5 Z"/></g>
<g><path style="opacity:1" fill="#b95541" d="M 271.5,210.5 C 271.573,212.027 270.906,213.027 269.5,213.5C 269.427,211.973 270.094,210.973 271.5,210.5 Z"/></g>
<g><path style="opacity:1" fill="#6a6363" d="M 121.5,231.5 C 122.833,233.5 124.5,235.167 126.5,236.5C 130.027,239.204 132.86,242.538 135,246.5C 144.729,276.894 164.563,297.394 194.5,308C 209.465,310.254 224.465,312.254 239.5,314C 254.299,318.392 266.299,326.725 275.5,339C 277.787,339.028 279.787,338.195 281.5,336.5C 282.833,337.833 284.167,339.167 285.5,340.5C 286.326,343.485 287.659,346.151 289.5,348.5C 290.931,349.78 291.598,351.447 291.5,353.5C 291.41,356.152 292.076,358.485 293.5,360.5C 294.167,360.833 294.833,361.167 295.5,361.5C 287.886,366.781 280.886,372.781 274.5,379.5C 274.557,378.391 274.89,377.391 275.5,376.5C 275.598,374.447 274.931,372.78 273.5,371.5C 273.539,368.911 272.539,366.911 270.5,365.5C 269.662,365.158 269.328,364.492 269.5,363.5C 269.573,361.973 268.906,360.973 267.5,360.5C 267.262,358.596 266.262,357.262 264.5,356.5C 263.581,353.911 261.914,351.911 259.5,350.5C 258.833,350.5 258.5,350.167 258.5,349.5C 257.089,347.086 255.089,345.419 252.5,344.5C 251.738,342.738 250.404,341.738 248.5,341.5C 248.027,340.094 247.027,339.427 245.5,339.5C 243.632,338.737 241.965,337.737 240.5,336.5C 239.713,334.896 238.38,334.229 236.5,334.5C 236.167,334.5 235.833,334.5 235.5,334.5C 232.808,331.819 229.475,330.486 225.5,330.5C 220.853,329.704 216.186,329.037 211.5,328.5C 210.04,326.537 208.373,324.704 206.5,323C 176.112,315.327 153.445,297.827 138.5,270.5C 135.536,267.185 131.87,265.185 127.5,264.5C 126.791,263.596 125.791,263.263 124.5,263.5C 123.833,262.167 122.833,261.167 121.5,260.5C 121.262,258.596 120.262,257.262 118.5,256.5C 115.452,254.118 112.785,251.452 110.5,248.5C 109.738,246.738 108.404,245.738 106.5,245.5C 106.027,244.094 105.027,243.427 103.5,243.5C 102.341,241.75 100.674,240.75 98.5,240.5C 96.1815,240.008 94.1815,239.008 92.5,237.5C 91.2196,236.069 89.5529,235.402 87.5,235.5C 85.4855,234.076 83.1522,233.41 80.5,233.5C 64.821,230.649 49.4876,231.982 34.5,237.5C 33.5084,237.672 32.8417,237.338 32.5,236.5C 47.7369,219.695 66.7369,212.862 89.5,216C 101.984,217.744 112.651,222.911 121.5,231.5 Z"/></g>
<g><path style="opacity:1" fill="#6a6464" d="M 460.5,232.5 C 458.64,231.929 456.973,231.929 455.5,232.5C 454.5,232.5 453.5,232.5 452.5,232.5C 448.43,232.432 444.763,233.432 441.5,235.5C 440.791,236.404 439.791,236.737 438.5,236.5C 434.58,237.127 431.247,238.793 428.5,241.5C 428.158,242.338 427.492,242.672 426.5,242.5C 424.973,242.427 423.973,243.094 423.5,244.5C 421.973,244.427 420.973,245.094 420.5,246.5C 420.167,247.5 419.5,248.167 418.5,248.5C 414.167,250.833 410.833,254.167 408.5,258.5C 408.5,259.167 408.167,259.5 407.5,259.5C 406.094,259.973 405.427,260.973 405.5,262.5C 405.5,263.167 405.167,263.5 404.5,263.5C 402.75,264.659 401.75,266.326 401.5,268.5C 399.896,269.287 399.229,270.62 399.5,272.5C 399.34,274.153 398.674,275.486 397.5,276.5C 394.456,281.662 392.789,287.328 392.5,293.5C 392.328,294.492 392.662,295.158 393.5,295.5C 387.859,296.931 383.025,299.931 379,304.5C 371.924,334.184 355.091,356.351 328.5,371C 324.908,373.921 322.075,377.421 320,381.5C 319.294,385.887 319.46,390.22 320.5,394.5C 317.569,396.091 314.902,398.091 312.5,400.5C 311.094,400.973 310.427,401.973 310.5,403.5C 310.5,404.167 310.167,404.5 309.5,404.5C 308.094,404.973 307.427,405.973 307.5,407.5C 305.75,408.659 304.75,410.326 304.5,412.5C 304.008,414.819 303.008,416.819 301.5,418.5C 299.194,422.085 297.861,426.085 297.5,430.5C 296.899,436.842 296.232,443.176 295.5,449.5C 295.01,456.204 296.01,462.537 298.5,468.5C 300.795,473.765 303.128,479.098 305.5,484.5C 306.405,485.964 306.405,487.298 305.5,488.5C 275.99,469.825 265.824,443.492 275,409.5C 284.615,387.222 301.115,372.722 324.5,366C 356.061,346.046 370.561,317.212 368,279.5C 374.392,249.442 392.558,230.942 422.5,224C 433.187,222.647 443.52,223.98 453.5,228C 456.239,229.026 458.572,230.526 460.5,232.5 Z"/></g>
<g><path style="opacity:1" fill="#ba5541" d="M 267.5,217.5 C 265.341,223.151 262.674,228.484 259.5,233.5C 261.126,227.581 263.793,222.247 267.5,217.5 Z"/></g>
<g><path style="opacity:1" fill="#323333" d="M 80.5,233.5 C 82.5145,234.924 84.8478,235.59 87.5,235.5C 88.7804,236.931 90.4471,237.598 92.5,237.5C 94.1815,239.008 96.1815,240.008 98.5,240.5C 99.6594,242.25 101.326,243.25 103.5,243.5C 103.973,244.906 104.973,245.573 106.5,245.5C 107.262,247.262 108.596,248.262 110.5,248.5C 112.785,251.452 115.452,254.118 118.5,256.5C 118.738,258.404 119.738,259.738 121.5,260.5C 121.5,262.5 122.5,263.5 124.5,263.5C 125.791,263.263 126.791,263.596 127.5,264.5C 111.893,262.945 104.06,269.945 104,285.5C 107.016,294.191 111.35,302.191 117,309.5C 137.314,335.444 163.647,352.111 196,359.5C 207.833,358.333 214.333,351.833 215.5,340C 214.999,335.805 213.666,331.971 211.5,328.5C 216.186,329.037 220.853,329.704 225.5,330.5C 228.678,332.009 232.011,333.342 235.5,334.5C 235.833,334.5 236.167,334.5 236.5,334.5C 237.514,335.674 238.847,336.34 240.5,336.5C 241.965,337.737 243.632,338.737 245.5,339.5C 245.973,340.906 246.973,341.573 248.5,341.5C 249.262,343.262 250.596,344.262 252.5,344.5C 253.833,346.5 255.5,348.167 257.5,349.5C 246.916,359.659 239.082,371.659 234,385.5C 233.413,396.731 228.579,405.564 219.5,412C 216.893,412.818 214.226,413.318 211.5,413.5C 197.086,411.846 182.752,409.679 168.5,407C 139.61,398.22 112.944,385.22 88.5,368C 65.5824,351.085 47.7491,329.919 35,304.5C 28.8737,289.074 25.5404,273.074 25,256.5C 23.9808,254.498 23.1475,252.498 22.5,250.5C 23.7589,246.975 25.7589,243.975 28.5,241.5C 30.5368,240.154 32.5368,238.82 34.5,237.5C 49.4876,231.982 64.821,230.649 80.5,233.5 Z"/></g>
<g><path style="opacity:1" fill="#853d2f" d="M 121.5,231.5 C 124.167,232.167 125.833,233.833 126.5,236.5C 124.5,235.167 122.833,233.5 121.5,231.5 Z"/></g>
<g><path style="opacity:1" fill="#302f2f" d="M 460.5,232.5 C 474.261,240.309 484.094,251.642 490,266.5C 492.277,272.332 493.944,278.332 495,284.5C 497.754,340.888 482.754,391.888 450,437.5C 447.332,441.334 444.165,444.667 440.5,447.5C 435.833,451.5 431.5,455.833 427.5,460.5C 395.161,490.996 357.161,501.496 313.5,492C 311.934,491.392 310.6,490.558 309.5,489.5C 309.167,488.833 308.833,488.167 308.5,487.5C 332.792,486.568 355.459,480.068 376.5,468C 387.832,459.754 398.665,450.921 409,441.5C 411.907,437.586 415.24,433.919 419,430.5C 421.496,424.009 425.496,418.676 431,414.5C 432.542,407.746 435.875,402.079 441,397.5C 448.398,379.969 455.398,362.302 462,344.5C 468.844,320.32 471.511,295.654 470,270.5C 465.842,257.518 461.008,244.851 455.5,232.5C 456.973,231.929 458.64,231.929 460.5,232.5 Z"/></g>
<g><path style="opacity:1" fill="#323333" d="M 452.5,232.5 C 453.5,232.5 454.5,232.5 455.5,232.5C 461.008,244.851 465.842,257.518 470,270.5C 471.511,295.654 468.844,320.32 462,344.5C 455.398,362.302 448.398,379.969 441,397.5C 435.875,402.079 432.542,407.746 431,414.5C 425.496,418.676 421.496,424.009 419,430.5C 415.24,433.919 411.907,437.586 409,441.5C 398.665,450.921 387.832,459.754 376.5,468C 355.459,480.068 332.792,486.568 308.5,487.5C 307.728,486.306 306.728,485.306 305.5,484.5C 303.128,479.098 300.795,473.765 298.5,468.5C 297.429,462.043 296.429,455.71 295.5,449.5C 296.232,443.176 296.899,436.842 297.5,430.5C 299.405,426.784 300.739,422.784 301.5,418.5C 303.008,416.819 304.008,414.819 304.5,412.5C 306.25,411.341 307.25,409.674 307.5,407.5C 308.906,407.027 309.573,406.027 309.5,404.5C 310.167,404.5 310.5,404.167 310.5,403.5C 311.906,403.027 312.573,402.027 312.5,400.5C 314.902,398.091 317.569,396.091 320.5,394.5C 326.646,406.06 335.979,409.56 348.5,405C 384.146,385.007 406.479,355.007 415.5,315C 413.977,301.978 406.643,295.478 393.5,295.5C 392.662,295.158 392.328,294.492 392.5,293.5C 394.334,287.987 396.001,282.32 397.5,276.5C 398.674,275.486 399.34,274.153 399.5,272.5C 400.674,271.486 401.34,270.153 401.5,268.5C 403.25,267.341 404.25,265.674 404.5,263.5C 405.167,263.5 405.5,263.167 405.5,262.5C 406.906,262.027 407.573,261.027 407.5,259.5C 408.167,259.5 408.5,259.167 408.5,258.5C 412.167,255.5 415.5,252.167 418.5,248.5C 419.5,248.167 420.167,247.5 420.5,246.5C 422.027,246.573 423.027,245.906 423.5,244.5C 425.027,244.573 426.027,243.906 426.5,242.5C 427.492,242.672 428.158,242.338 428.5,241.5C 432.151,240.341 435.485,238.674 438.5,236.5C 439.791,236.737 440.791,236.404 441.5,235.5C 445.397,234.945 449.063,233.945 452.5,232.5 Z"/></g>
<g><path style="opacity:1" fill="#d06049" d="M 80.5,233.5 C 83.1522,233.41 85.4855,234.076 87.5,235.5C 84.8478,235.59 82.5145,234.924 80.5,233.5 Z"/></g>
<g><path style="opacity:1" fill="#cc5e47" d="M 452.5,232.5 C 449.063,233.945 445.397,234.945 441.5,235.5C 444.763,233.432 448.43,232.432 452.5,232.5 Z"/></g>
<g><path style="opacity:1" fill="#ce5f48" d="M 87.5,235.5 C 89.5529,235.402 91.2196,236.069 92.5,237.5C 90.4471,237.598 88.7804,236.931 87.5,235.5 Z"/></g>
<g><path style="opacity:1" fill="#b95541" d="M 258.5,235.5 C 258.598,237.553 257.931,239.22 256.5,240.5C 256.402,238.447 257.069,236.78 258.5,235.5 Z"/></g>
<g><path style="opacity:1" fill="#ce5e47" d="M 438.5,236.5 C 435.485,238.674 432.151,240.341 428.5,241.5C 431.247,238.793 434.58,237.127 438.5,236.5 Z"/></g>
<g><path style="opacity:1" fill="#b75440" d="M 32.5,236.5 C 32.8417,237.338 33.5084,237.672 34.5,237.5C 32.5368,238.82 30.5368,240.154 28.5,241.5C 29.0798,239.251 30.4131,237.585 32.5,236.5 Z"/></g>
<g><path style="opacity:1" fill="#ce5f48" d="M 98.5,240.5 C 100.674,240.75 102.341,241.75 103.5,243.5C 101.326,243.25 99.6594,242.25 98.5,240.5 Z"/></g>
<g><path style="opacity:1" fill="#d16049" d="M 103.5,243.5 C 105.027,243.427 106.027,244.094 106.5,245.5C 104.973,245.573 103.973,244.906 103.5,243.5 Z"/></g>
<g><path style="opacity:1" fill="#b95541" d="M 256.5,240.5 C 256.598,242.553 255.931,244.22 254.5,245.5C 254.402,243.447 255.069,241.78 256.5,240.5 Z"/></g>
<g><path style="opacity:1" fill="#cc5e47" d="M 426.5,242.5 C 426.027,243.906 425.027,244.573 423.5,244.5C 423.973,243.094 424.973,242.427 426.5,242.5 Z"/></g>
<g><path style="opacity:1" fill="#d16049" d="M 106.5,245.5 C 108.404,245.738 109.738,246.738 110.5,248.5C 108.596,248.262 107.262,247.262 106.5,245.5 Z"/></g>
<g><path style="opacity:1" fill="#ce5f48" d="M 423.5,244.5 C 423.027,245.906 422.027,246.573 420.5,246.5C 420.973,245.094 421.973,244.427 423.5,244.5 Z"/></g>
<g><path style="opacity:1" fill="#c3beb8" d="M 437.5,244.5 C 454.808,246.166 462.308,255.499 460,272.5C 453.403,278.643 446.236,279.143 438.5,274C 431.078,268.66 427.911,261.493 429,252.5C 430.419,248.245 433.253,245.578 437.5,244.5 Z"/></g>
<g><path style="opacity:1" fill="#302f2f" d="M 22.5,250.5 C 23.1475,252.498 23.9808,254.498 25,256.5C 25.5404,273.074 28.8737,289.074 35,304.5C 47.7491,329.919 65.5824,351.085 88.5,368C 112.944,385.22 139.61,398.22 168.5,407C 182.752,409.679 197.086,411.846 211.5,413.5C 214.226,413.318 216.893,412.818 219.5,412C 228.579,405.564 233.413,396.731 234,385.5C 239.082,371.659 246.916,359.659 257.5,349.5C 257.833,349.5 258.167,349.5 258.5,349.5C 258.5,350.167 258.833,350.5 259.5,350.5C 260.419,353.089 262.086,355.089 264.5,356.5C 264.738,358.404 265.738,359.738 267.5,360.5C 267.427,362.027 268.094,363.027 269.5,363.5C 269.328,364.492 269.662,365.158 270.5,365.5C 270.992,367.819 271.992,369.819 273.5,371.5C 273.402,373.553 274.069,375.22 275.5,376.5C 274.89,377.391 274.557,378.391 274.5,379.5C 263.041,394.039 256.374,410.539 254.5,429C 247.296,433.179 239.629,436.179 231.5,438C 194.995,441.472 159.662,436.472 125.5,423C 100.718,413.634 79.0515,399.801 60.5,381.5C 58.1667,378.5 55.5,375.833 52.5,373.5C 24.2008,344.782 12.0341,310.115 16,269.5C 16.9032,262.621 19.0699,256.288 22.5,250.5 Z"/></g>
<g><path style="opacity:1" fill="#b95541" d="M 254.5,245.5 C 254.267,248.542 253.267,251.208 251.5,253.5C 251.733,250.458 252.733,247.792 254.5,245.5 Z"/></g>
<g><path style="opacity:1" fill="#cc5e47" d="M 418.5,248.5 C 415.5,252.167 412.167,255.5 408.5,258.5C 410.833,254.167 414.167,250.833 418.5,248.5 Z"/></g>
<g><path style="opacity:1" fill="#c3beb8" d="M 44.5,252.5 C 62.435,253.587 70.2683,262.921 68,280.5C 60.7777,286.925 53.2777,287.092 45.5,281C 38.3467,275.529 35.5134,268.362 37,259.5C 38.7668,256.228 41.2668,253.895 44.5,252.5 Z"/></g>
<g><path style="opacity:1" fill="#cd5f47" d="M 118.5,256.5 C 120.262,257.262 121.262,258.596 121.5,260.5C 119.738,259.738 118.738,258.404 118.5,256.5 Z"/></g>
<g><path style="opacity:1" fill="#cc5e47" d="M 407.5,259.5 C 407.573,261.027 406.906,262.027 405.5,262.5C 405.427,260.973 406.094,259.973 407.5,259.5 Z"/></g>
<g><path style="opacity:1" fill="#cd5e47" d="M 121.5,260.5 C 122.833,261.167 123.833,262.167 124.5,263.5C 122.5,263.5 121.5,262.5 121.5,260.5 Z"/></g>
<g><path style="opacity:1" fill="#b85440" d="M 249.5,259.5 C 249.59,262.152 248.924,264.485 247.5,266.5C 247.41,263.848 248.076,261.515 249.5,259.5 Z"/></g>
<g><path style="opacity:1" fill="#020201" d="M 127.5,264.5 C 131.87,265.185 135.536,267.185 138.5,270.5C 153.445,297.827 176.112,315.327 206.5,323C 208.373,324.704 210.04,326.537 211.5,328.5C 213.666,331.971 214.999,335.805 215.5,340C 214.333,351.833 207.833,358.333 196,359.5C 163.647,352.111 137.314,335.444 117,309.5C 111.35,302.191 107.016,294.191 104,285.5C 104.06,269.945 111.893,262.945 127.5,264.5 Z"/></g>
<g><path style="opacity:1" fill="#ce5f48" d="M 404.5,263.5 C 404.25,265.674 403.25,267.341 401.5,268.5C 401.75,266.326 402.75,264.659 404.5,263.5 Z"/></g>
<g><path style="opacity:1" fill="#cf5f48" d="M 401.5,268.5 C 401.34,270.153 400.674,271.486 399.5,272.5C 399.229,270.62 399.896,269.287 401.5,268.5 Z"/></g>
<g><path style="opacity:1" fill="#eef1f4" d="M 212.5,275.5 C 213.5,275.5 214.5,275.5 215.5,275.5C 215.5,281.833 215.5,288.167 215.5,294.5C 202.934,295.194 191.601,291.86 181.5,284.5C 192.213,282.481 202.547,279.481 212.5,275.5 Z"/></g>
<g><path style="opacity:1" fill="#ce5f48" d="M 397.5,276.5 C 396.001,282.32 394.334,287.987 392.5,293.5C 392.789,287.328 394.456,281.662 397.5,276.5 Z"/></g>
<g><path style="opacity:1" fill="#f5d4ac" d="M 121.5,279.5 C 124.325,279.081 126.491,280.081 128,282.5C 143.6,310.093 166.767,327.926 197.5,336C 200.582,339.582 199.915,342.082 195.5,343.5C 161.407,334.23 136.073,314.063 119.5,283C 119.978,281.697 120.645,280.531 121.5,279.5 Z"/></g>
<g><path style="opacity:1" fill="#aa4e3b" d="M 243.5,282.5 C 245.5,283.167 247.5,283.833 249.5,284.5C 246.789,284.185 244.456,284.852 242.5,286.5C 242.232,284.901 242.566,283.568 243.5,282.5 Z"/></g>
<g><path style="opacity:1" fill="#a64c3a" d="M 270.5,290.5 C 274.42,291.127 277.753,292.793 280.5,295.5C 276.849,294.341 273.515,292.674 270.5,290.5 Z"/></g>
<g><path style="opacity:1" fill="#c7bbb4" d="M 64.5,292.5 C 71.7959,292.962 76.1292,296.795 77.5,304C 76.0886,309.141 72.7553,310.808 67.5,309C 59.6314,304.381 58.6314,298.881 64.5,292.5 Z"/></g>
<g><path style="opacity:1" fill="#c8bbb4" d="M 440.5,292.5 C 447.796,292.962 452.129,296.795 453.5,304C 453.507,305.812 452.84,307.312 451.5,308.5C 445.991,310.593 441.491,309.26 438,304.5C 435.383,299.578 436.217,295.578 440.5,292.5 Z"/></g>
<g><path style="opacity:1" fill="#a24a38" d="M 242.5,286.5 C 242.167,290.5 241.833,294.5 241.5,298.5C 240.209,298.737 239.209,298.404 238.5,297.5C 240.358,294.13 241.691,290.463 242.5,286.5 Z"/></g>
<g><path style="opacity:1" fill="#a44b39" d="M 280.5,295.5 C 282.027,295.427 283.027,296.094 283.5,297.5C 281.973,297.573 280.973,296.906 280.5,295.5 Z"/></g>
<g><path style="opacity:1" fill="#030201" d="M 393.5,295.5 C 406.643,295.478 413.977,301.978 415.5,315C 406.479,355.007 384.146,385.007 348.5,405C 335.979,409.56 326.646,406.06 320.5,394.5C 319.46,390.22 319.294,385.887 320,381.5C 322.075,377.421 324.908,373.921 328.5,371C 355.091,356.351 371.924,334.184 379,304.5C 383.025,299.931 387.859,296.931 393.5,295.5 Z"/></g>
<g><path style="opacity:1" fill="#a74d3a" d="M 285.5,298.5 C 287.404,298.738 288.738,299.738 289.5,301.5C 287.596,301.262 286.262,300.262 285.5,298.5 Z"/></g>
<g><path style="opacity:1" fill="#a44b39" d="M 324.5,293.5 C 324.451,297.078 323.785,300.411 322.5,303.5C 322.322,299.878 322.989,296.544 324.5,293.5 Z"/></g>
<g><path style="opacity:1" fill="#a64c3a" d="M 289.5,301.5 C 291.749,302.08 293.415,303.413 294.5,305.5C 292.251,304.92 290.585,303.587 289.5,301.5 Z"/></g>
<g><path style="opacity:1" fill="#f5d4ac" d="M 393.5,311.5 C 396.571,310.925 398.571,312.091 399.5,315C 391.11,346.13 373.444,370.463 346.5,388C 343.702,389.914 340.702,390.914 337.5,391C 335.675,389.534 335.175,387.701 336,385.5C 365.094,368.57 384.261,343.903 393.5,311.5 Z"/></g>
<g><path style="opacity:1" fill="#a44b3a" d="M 302.5,313.5 C 304.587,314.585 305.92,316.251 306.5,318.5C 304.413,317.415 303.08,315.749 302.5,313.5 Z"/></g>
<g><path style="opacity:1" fill="#a34b39" d="M 319.5,318.5 C 319.5,320.5 318.5,321.5 316.5,321.5C 317.167,320.167 318.167,319.167 319.5,318.5 Z"/></g>
<g><path style="opacity:1" fill="#cf5f48" d="M 225.5,330.5 C 229.475,330.486 232.808,331.819 235.5,334.5C 232.011,333.342 228.678,332.009 225.5,330.5 Z"/></g>
<g><path style="opacity:1" fill="#d06048" d="M 236.5,334.5 C 238.38,334.229 239.713,334.896 240.5,336.5C 238.847,336.34 237.514,335.674 236.5,334.5 Z"/></g>
<g><path style="opacity:1" fill="#ac503c" d="M 281.5,336.5 C 281.842,335.662 282.508,335.328 283.5,335.5C 284.441,337.05 285.107,338.716 285.5,340.5C 284.167,339.167 282.833,337.833 281.5,336.5 Z"/></g>
<g><path style="opacity:1" fill="#ce5e48" d="M 245.5,339.5 C 247.027,339.427 248.027,340.094 248.5,341.5C 246.973,341.573 245.973,340.906 245.5,339.5 Z"/></g>
<g><path style="opacity:1" fill="#cf5f48" d="M 248.5,341.5 C 250.404,341.738 251.738,342.738 252.5,344.5C 250.596,344.262 249.262,343.262 248.5,341.5 Z"/></g>
<g><path style="opacity:1" fill="#d05f49" d="M 252.5,344.5 C 255.089,345.419 257.089,347.086 258.5,349.5C 258.167,349.5 257.833,349.5 257.5,349.5C 255.5,348.167 253.833,346.5 252.5,344.5 Z"/></g>
<g><path style="opacity:0.961" fill="#b2523e" d="M 285.5,340.5 C 287.873,342.579 289.206,345.246 289.5,348.5C 287.659,346.151 286.326,343.485 285.5,340.5 Z"/></g>
<g><path style="opacity:1" fill="#c35944" d="M 259.5,350.5 C 261.914,351.911 263.581,353.911 264.5,356.5C 262.086,355.089 260.419,353.089 259.5,350.5 Z"/></g>
<g><path style="opacity:1" fill="#bf5843" d="M 291.5,353.5 C 292.924,355.515 293.59,357.848 293.5,360.5C 292.076,358.485 291.41,356.152 291.5,353.5 Z"/></g>
<g><path style="opacity:1" fill="#bf5843" d="M 264.5,356.5 C 266.262,357.262 267.262,358.596 267.5,360.5C 265.738,359.738 264.738,358.404 264.5,356.5 Z"/></g>
<g><path style="opacity:1" fill="#c45a44" d="M 267.5,360.5 C 268.906,360.973 269.573,361.973 269.5,363.5C 268.094,363.027 267.427,362.027 267.5,360.5 Z"/></g>
<g><path style="opacity:1" fill="#c55b45" d="M 270.5,365.5 C 272.539,366.911 273.539,368.911 273.5,371.5C 271.992,369.819 270.992,367.819 270.5,365.5 Z"/></g>
<g><path style="opacity:1" fill="#733529" d="M 52.5,373.5 C 55.5,375.833 58.1667,378.5 60.5,381.5C 56.8333,379.833 54.1667,377.167 52.5,373.5 Z"/></g>
<g><path style="opacity:1" fill="#c25943" d="M 273.5,371.5 C 274.931,372.78 275.598,374.447 275.5,376.5C 274.069,375.22 273.402,373.553 273.5,371.5 Z"/></g>
<g><path style="opacity:1" fill="#cd5e47" d="M 312.5,400.5 C 312.573,402.027 311.906,403.027 310.5,403.5C 310.427,401.973 311.094,400.973 312.5,400.5 Z"/></g>
<g><path style="opacity:1" fill="#cd5f48" d="M 309.5,404.5 C 309.573,406.027 308.906,407.027 307.5,407.5C 307.427,405.973 308.094,404.973 309.5,404.5 Z"/></g>
<g><path style="opacity:1" fill="#cd5e48" d="M 307.5,407.5 C 307.25,409.674 306.25,411.341 304.5,412.5C 304.75,410.326 305.75,408.659 307.5,407.5 Z"/></g>
<g><path style="opacity:1" fill="#ce5f47" d="M 301.5,418.5 C 300.739,422.784 299.405,426.784 297.5,430.5C 297.861,426.085 299.194,422.085 301.5,418.5 Z"/></g>
<g><path style="opacity:1" fill="#5f2c22" d="M 440.5,447.5 C 437.167,452.833 432.833,457.167 427.5,460.5C 431.5,455.833 435.833,451.5 440.5,447.5 Z"/></g>
<g><path style="opacity:1" fill="#cf6048" d="M 295.5,449.5 C 296.429,455.71 297.429,462.043 298.5,468.5C 296.01,462.537 295.01,456.204 295.5,449.5 Z"/></g>
<g><path style="opacity:1" fill="#c85c46" d="M 305.5,484.5 C 306.728,485.306 307.728,486.306 308.5,487.5C 308.833,488.167 309.167,488.833 309.5,489.5C 308.167,489.167 306.833,488.833 305.5,488.5C 306.405,487.298 306.405,485.964 305.5,484.5 Z"/></g>
</svg>
