<?xml version="1.0" encoding="UTF-8"?>
<!DOCTYPE svg PUBLIC "-//W3C//DTD SVG 1.1//EN" "http://www.w3.org/Graphics/SVG/1.1/DTD/svg11.dtd">
<svg xmlns="http://www.w3.org/2000/svg" version="1.1" width="512px" height="512px" style="shape-rendering:geometricPrecision; text-rendering:geometricPrecision; image-rendering:optimizeQuality; fill-rule:evenodd; clip-rule:evenodd" xmlns:xlink="http://www.w3.org/1999/xlink">
<g><path style="opacity:0.978" fill="#030201" d="M 310.5,47.5 C 353.474,43.3265 386.807,58.9931 410.5,94.5C 455.195,99.0704 485.029,122.404 500,164.5C 510.499,222.356 492.332,268.856 445.5,304C 416.171,324.663 384.171,339.996 349.5,350C 294.808,415.601 224.808,453.267 139.5,463C 123.468,463.866 107.468,463.532 91.5,462C 55.0463,454.879 29.213,434.379 14,400.5C 1.55001,366.674 5.88334,335.34 27,306.5C 32.1983,300.967 37.6983,295.8 43.5,291C 55.0929,284.037 67.0929,277.87 79.5,272.5C 60.2228,251.275 43.3895,228.275 29,203.5C 13.7034,175.231 11.37,145.898 22,115.5C 39.8887,76.4714 70.3887,56.4714 113.5,55.5C 135.654,55.3721 156.321,60.8721 175.5,72C 191.614,82.4384 208.448,91.6051 226,99.5C 246.987,70.5858 275.154,53.2524 310.5,47.5 Z"/></g>
<g><path style="opacity:1" fill="#fee0b1" d="M 373.5,78.5 C 380.448,91.9597 383.781,106.293 383.5,121.5C 378.72,243.964 323.72,335.797 218.5,397C 167.96,424.147 114.293,435.314 57.5,430.5C 29.6953,407.93 19.1953,378.93 26,343.5C 31.5691,325.27 42.4024,311.103 58.5,301C 73.5949,293.452 88.9282,286.452 104.5,280C 170.096,249.05 211.596,198.216 229,127.5C 242.666,97.4807 265.166,77.9807 296.5,69C 269.149,97.5294 251.649,131.363 244,170.5C 229.056,218.918 199.889,256.085 156.5,282C 140.167,289.667 123.833,297.333 107.5,305C 80.3567,321.643 58.3567,343.477 41.5,370.5C 45.3036,374.385 49.6369,377.219 54.5,379C 70.9803,352.186 92.9803,331.186 120.5,316C 167.884,299.921 205.717,271.421 234,230.5C 243.766,215.551 251.433,199.551 257,182.5C 263.978,141.04 282.145,105.54 311.5,76C 316.167,72 320.833,68 325.5,64C 343.072,63.6914 359.072,68.5247 373.5,78.5 Z"/></g>
<g><path style="opacity:1" fill="#fad58e" d="M 61.5,97.5 C 62.5481,93.7356 63.8815,90.069 65.5,86.5C 84.8196,72.8685 106.153,68.3685 129.5,73C 138.051,74.5543 146.384,76.8877 154.5,80C 170.158,88.1603 185.491,96.827 200.5,106C 205.876,108.403 211.209,110.903 216.5,113.5C 217.583,114.365 217.749,115.365 217,116.5C 213.079,124.594 209.746,132.928 207,141.5C 195.2,131.369 183.7,120.869 172.5,110C 137.683,85.3943 100.683,81.2277 61.5,97.5 Z"/></g>
<g><path style="opacity:1" fill="#f7c965" d="M 373.5,78.5 C 395.685,95.2016 407.018,117.535 407.5,145.5C 403.47,255.766 356.137,341.599 265.5,403C 223.952,429.294 178.618,443.96 129.5,447C 103.249,450.455 79.249,444.955 57.5,430.5C 114.293,435.314 167.96,424.147 218.5,397C 323.72,335.797 378.72,243.964 383.5,121.5C 383.781,106.293 380.448,91.9597 373.5,78.5 Z"/></g>
<g><path style="opacity:1" fill="#d5a72f" d="M 65.5,86.5 C 63.8815,90.069 62.5481,93.7356 61.5,97.5C 56.6437,101.087 51.6437,103.753 46.5,105.5C 51.8545,98.1455 58.1878,91.8122 65.5,86.5 Z"/></g>
<g><path style="opacity:1" fill="#fed891" d="M 124.5,250.5 C 102.464,226.628 83.297,200.628 67,172.5C 58.4286,156.214 54.5953,138.881 55.5,120.5C 76.6541,104.235 100.321,99.4017 126.5,106C 138.639,109.265 149.972,114.265 160.5,121C 174.051,133.224 187.551,145.39 201,157.5C 198.501,166.517 194.834,175.183 190,183.5C 173.696,211.304 151.862,233.637 124.5,250.5 Z"/></g>
<g><path style="opacity:1" fill="#f7d28c" d="M 418.5,112.5 C 447.05,117.263 467.217,132.596 479,158.5C 463.234,144.543 444.734,137.043 423.5,136C 422.078,128.142 420.412,120.309 418.5,112.5 Z"/></g>
<g><path style="opacity:1" fill="#e5b332" d="M 55.5,120.5 C 54.5953,138.881 58.4286,156.214 67,172.5C 83.297,200.628 102.464,226.628 124.5,250.5C 115.863,257.485 106.197,262.318 95.5,265C 72.775,240.72 53.6083,213.887 38,184.5C 31.477,168.672 29.8103,152.339 33,135.5C 33.3742,134.584 33.8742,133.75 34.5,133C 41.4039,128.58 48.4039,124.413 55.5,120.5 Z"/></g>
<g><path style="opacity:1" fill="#fdd791" d="M 428.5,152.5 C 454.833,156.416 474.333,170.083 487,193.5C 485.607,233.788 468.773,265.955 436.5,290C 426.305,297.264 415.639,303.764 404.5,309.5C 393.949,312.906 383.283,315.906 372.5,318.5C 401.762,271.379 418.428,220.045 422.5,164.5C 423.483,160.702 423.817,156.702 423.5,152.5C 425.167,152.5 426.833,152.5 428.5,152.5 Z"/></g>
<g><path style="opacity:1" fill="#645436" d="M 428.5,152.5 C 426.833,152.5 425.167,152.5 423.5,152.5C 423.817,156.702 423.483,160.702 422.5,164.5C 422.5,160.167 422.5,155.833 422.5,151.5C 424.735,151.205 426.735,151.539 428.5,152.5 Z"/></g>
<g><path style="opacity:1" fill="#dbac34" d="M 404.5,309.5 C 392.395,316.388 379.728,321.888 366.5,326C 368.364,323.312 370.364,320.812 372.5,318.5C 383.283,315.906 393.949,312.906 404.5,309.5 Z"/></g>
</svg>
