<?xml version="1.0" encoding="UTF-8"?>
<!DOCTYPE svg PUBLIC "-//W3C//DTD SVG 1.1//EN" "http://www.w3.org/Graphics/SVG/1.1/DTD/svg11.dtd">
<svg xmlns="http://www.w3.org/2000/svg" version="1.1" width="512px" height="512px" style="shape-rendering:geometricPrecision; text-rendering:geometricPrecision; image-rendering:optimizeQuality; fill-rule:evenodd; clip-rule:evenodd" xmlns:xlink="http://www.w3.org/1999/xlink">
<g><path style="opacity:0.965" fill="#020101" d="M 361.5,244.5 C 359.837,246.438 359.171,248.772 359.5,251.5C 326.648,244.63 293.648,238.463 260.5,233C 213.329,228.71 166.329,230.044 119.5,237C 118.572,237.388 117.905,238.055 117.5,239C 119.34,243.02 120.674,247.187 121.5,251.5C 124.15,262.986 125.817,274.653 126.5,286.5C 126.5,291.167 126.5,295.833 126.5,300.5C 181.984,307.986 237.318,307.153 292.5,298C 318.452,292.41 344.452,287.076 370.5,282C 387.254,279.323 403.921,277.156 420.5,275.5C 428.833,275.5 437.167,275.5 445.5,275.5C 462.456,287.95 479.29,300.617 496,313.5C 496.641,299.422 491.808,287.589 481.5,278C 476.65,274.637 471.983,271.137 467.5,267.5C 486.324,258.711 495.658,244.044 495.5,223.5C 481.148,234.191 466.815,244.858 452.5,255.5C 450.445,257.555 448.112,259.221 445.5,260.5C 432.165,260.23 418.831,259.897 405.5,259.5C 405.5,256.5 405.5,253.5 405.5,250.5C 404.578,246.435 406.078,244.102 410,243.5C 421.246,244.97 432.413,244.803 443.5,243C 465.781,225.54 488.447,208.706 511.5,192.5C 511.5,206.833 511.5,221.167 511.5,235.5C 508.775,247.949 503.108,258.949 494.5,268.5C 504.194,278.268 509.861,289.935 511.5,303.5C 511.5,316.833 511.5,330.167 511.5,343.5C 488.048,326.596 464.715,309.429 441.5,292C 417.424,290.976 393.757,293.309 370.5,299C 378.572,304.697 386.238,310.864 393.5,317.5C 360.331,322.336 331.831,336.336 308,359.5C 293.971,345.805 280.304,331.805 267,317.5C 254.892,319.295 242.725,320.795 230.5,322C 240.014,331.347 249.348,340.847 258.5,350.5C 234.575,352.811 210.908,351.311 187.5,346C 176.886,343.192 167.219,338.526 158.5,332C 153.821,326.987 148.821,322.321 143.5,318C 106.757,314.252 70.7573,306.918 35.5,296C 25.6089,292.388 16.2756,287.721 7.5,282C 4.21655,279.228 1.54988,276.061 -0.5,272.5C -0.5,269.833 -0.5,267.167 -0.5,264.5C 3.97563,257.532 9.97563,252.032 17.5,248C 47.0224,235.619 77.689,227.285 109.5,223C 130.718,219.611 152.052,217.278 173.5,216C 181.696,205.126 190.696,194.792 200.5,185C 202.286,184.215 203.786,183.049 205,181.5C 206.704,183.373 208.537,185.04 210.5,186.5C 211.558,189.334 212.724,192.001 214,194.5C 206.719,200.537 200.219,207.371 194.5,215C 212.179,215.285 229.846,215.785 247.5,216.5C 247.5,202.5 247.5,188.5 247.5,174.5C 240.209,176.896 233.375,180.229 227,184.5C 225.172,182.863 223.339,181.197 221.5,179.5C 220.046,177.429 218.713,175.262 217.5,173C 231.133,163.185 246.133,156.018 262.5,151.5C 263.5,173.823 263.833,196.157 263.5,218.5C 296.73,223.212 329.73,229.212 362.5,236.5C 362.167,239.167 361.833,241.833 361.5,244.5 Z"/></g>
<g><path style="opacity:1" fill="#48474a" d="M 210.5,186.5 C 214.026,183.906 217.692,181.573 221.5,179.5C 223.339,181.197 225.172,182.863 227,184.5C 233.375,180.229 240.209,176.896 247.5,174.5C 247.5,188.5 247.5,202.5 247.5,216.5C 229.846,215.785 212.179,215.285 194.5,215C 200.219,207.371 206.719,200.537 214,194.5C 212.724,192.001 211.558,189.334 210.5,186.5 Z"/></g>
<g><path style="opacity:1" fill="#565559" d="M 467.5,267.5 C 465.745,266.928 464.078,266.094 462.5,265C 458.619,262.282 455.285,259.116 452.5,255.5C 466.815,244.858 481.148,234.191 495.5,223.5C 495.658,244.044 486.324,258.711 467.5,267.5 Z"/></g>
<g><path style="opacity:1" fill="#cdd9f7" d="M 361.5,244.5 C 366.272,244.705 370.938,245.372 375.5,246.5C 375.296,249.518 374.963,252.518 374.5,255.5C 379.833,255.833 385.167,256.167 390.5,256.5C 390.194,253.615 390.527,250.948 391.5,248.5C 396.114,249.445 400.781,250.112 405.5,250.5C 405.5,253.5 405.5,256.5 405.5,259.5C 418.831,259.897 432.165,260.23 445.5,260.5C 445.5,265.5 445.5,270.5 445.5,275.5C 437.167,275.5 428.833,275.5 420.5,275.5C 402.807,273.413 385.141,271.08 367.5,268.5C 329.578,259.822 291.244,252.655 252.5,247C 208.647,243.887 164.98,245.387 121.5,251.5C 120.674,247.187 119.34,243.02 117.5,239C 117.905,238.055 118.572,237.388 119.5,237C 166.329,230.044 213.329,228.71 260.5,233C 293.648,238.463 326.648,244.63 359.5,251.5C 359.171,248.772 359.837,246.438 361.5,244.5 Z"/></g>
<g><path style="opacity:0.928" fill="#060607" d="M 391.5,248.5 C 390.527,250.948 390.194,253.615 390.5,256.5C 385.167,256.167 379.833,255.833 374.5,255.5C 374.963,252.518 375.296,249.518 375.5,246.5C 375.674,244.139 376.007,241.806 376.5,239.5C 381.847,240.073 387.18,240.74 392.5,241.5C 392.326,243.861 391.993,246.194 391.5,248.5 Z"/></g>
<g><path style="opacity:1" fill="#cbd7f5" d="M 106.5,254.5 C 95.5054,255.367 84.8388,257.367 74.5,260.5C 71.3019,259.964 68.6353,260.631 66.5,262.5C 59.2033,263.753 52.2033,265.753 45.5,268.5C 44.391,268.557 43.391,268.89 42.5,269.5C 42.5299,268.503 42.0299,267.836 41,267.5C 35.9451,265.767 31.1117,263.767 26.5,261.5C 50.6357,250.509 75.8024,243.843 102,241.5C 104.207,245.624 105.707,249.957 106.5,254.5 Z"/></g>
<g><path style="opacity:1" fill="#faf1e1" d="M 367.5,268.5 C 347.398,272.144 327.398,276.311 307.5,281C 247.491,292.871 187.157,294.705 126.5,286.5C 125.817,274.653 124.15,262.986 121.5,251.5C 164.98,245.387 208.647,243.887 252.5,247C 291.244,252.655 329.578,259.822 367.5,268.5 Z"/></g>
<g><path style="opacity:1" fill="#fefefd" d="M 142.5,252.5 C 147.5,252.5 152.5,252.5 157.5,252.5C 157.5,257.833 157.5,263.167 157.5,268.5C 152.5,268.5 147.5,268.5 142.5,268.5C 142.5,263.167 142.5,257.833 142.5,252.5 Z"/></g>
<g><path style="opacity:1" fill="#fefefe" d="M 172.5,253.5 C 177.5,253.5 182.5,253.5 187.5,253.5C 187.5,258.5 187.5,263.5 187.5,268.5C 182.5,268.5 177.5,268.5 172.5,268.5C 172.5,263.5 172.5,258.5 172.5,253.5 Z"/></g>
<g><path style="opacity:1" fill="#f8efdf" d="M 106.5,254.5 C 109.002,261.84 110.335,269.507 110.5,277.5C 110.5,279.5 110.5,281.5 110.5,283.5C 98.1477,282.367 86.1477,280.033 74.5,276.5C 77.0593,276.802 79.3926,276.468 81.5,275.5C 82.4872,270.695 82.8205,265.695 82.5,260.5C 79.8333,260.5 77.1667,260.5 74.5,260.5C 84.8388,257.367 95.5054,255.367 106.5,254.5 Z"/></g>
<g><path style="opacity:1" fill="#474649" d="M 452.5,255.5 C 455.285,259.116 458.619,262.282 462.5,265C 464.078,266.094 465.745,266.928 467.5,267.5C 471.983,271.137 476.65,274.637 481.5,278C 491.808,287.589 496.641,299.422 496,313.5C 479.29,300.617 462.456,287.95 445.5,275.5C 445.5,270.5 445.5,265.5 445.5,260.5C 448.112,259.221 450.445,257.555 452.5,255.5 Z"/></g>
<g><path style="opacity:1" fill="#6d6963" d="M 74.5,260.5 C 77.1667,260.5 79.8333,260.5 82.5,260.5C 82.8205,265.695 82.4872,270.695 81.5,275.5C 79.3926,276.468 77.0593,276.802 74.5,276.5C 71.3019,277.036 68.6353,276.369 66.5,274.5C 66.5,270.5 66.5,266.5 66.5,262.5C 68.6353,260.631 71.3019,259.964 74.5,260.5 Z"/></g>
<g><path style="opacity:1" fill="#000000" d="M 81.5,275.5 C 76.8333,275.5 72.1667,275.5 67.5,275.5C 67.5,270.833 67.5,266.167 67.5,261.5C 72.1667,261.5 76.8333,261.5 81.5,261.5C 81.5,266.167 81.5,270.833 81.5,275.5 Z"/></g>
<g><path style="opacity:1" fill="#9cb3ef" d="M 26.5,261.5 C 31.1117,263.767 35.9451,265.767 41,267.5C 42.0299,267.836 42.5299,268.503 42.5,269.5C 37.1049,270.738 32.1049,272.738 27.5,275.5C 23.0235,273.762 19.0235,271.262 15.5,268C 18.8647,265.318 22.5313,263.151 26.5,261.5 Z"/></g>
<g><path style="opacity:1" fill="#f9f0e1" d="M 66.5,262.5 C 66.5,266.5 66.5,270.5 66.5,274.5C 59.2465,273.303 52.2465,271.303 45.5,268.5C 52.2033,265.753 59.2033,263.753 66.5,262.5 Z"/></g>
<g><path style="opacity:1" fill="#f4deb8" d="M 367.5,268.5 C 385.141,271.08 402.807,273.413 420.5,275.5C 403.921,277.156 387.254,279.323 370.5,282C 344.452,287.076 318.452,292.41 292.5,298C 237.318,307.153 181.984,307.986 126.5,300.5C 126.5,295.833 126.5,291.167 126.5,286.5C 187.157,294.705 247.491,292.871 307.5,281C 327.398,276.311 347.398,272.144 367.5,268.5 Z"/></g>
<g><path style="opacity:1" fill="#f1dbb6" d="M 45.5,268.5 C 52.2465,271.303 59.2465,273.303 66.5,274.5C 68.6353,276.369 71.3019,277.036 74.5,276.5C 86.1477,280.033 98.1477,282.367 110.5,283.5C 110.5,281.5 110.5,279.5 110.5,277.5C 111.491,283.979 111.824,290.646 111.5,297.5C 82.4879,293.914 54.4879,286.581 27.5,275.5C 32.1049,272.738 37.1049,270.738 42.5,269.5C 43.391,268.89 44.391,268.557 45.5,268.5 Z"/></g>
<g><path style="opacity:1" fill="#f1dbb6" d="M 303.5,311.5 C 306.195,313.697 308.695,316.03 311,318.5C 315.823,315.015 320.656,311.515 325.5,308C 324.906,307.536 324.239,307.369 323.5,307.5C 331.503,305.328 339.67,303.328 348,301.5C 351.915,303.577 355.415,306.244 358.5,309.5C 340.29,316.267 323.623,325.6 308.5,337.5C 301.375,329.874 294.042,322.374 286.5,315C 291.994,313.048 297.661,311.881 303.5,311.5 Z"/></g>
<g><path style="opacity:1" fill="#f2e9d9" d="M 323.5,307.5 C 324.239,307.369 324.906,307.536 325.5,308C 320.656,311.515 315.823,315.015 311,318.5C 308.695,316.03 306.195,313.697 303.5,311.5C 309.923,309.549 316.589,308.215 323.5,307.5 Z"/></g>
<g><path style="opacity:1" fill="#ebd5b1" d="M 168.5,320.5 C 169.964,319.84 171.631,319.507 173.5,319.5C 184.488,320.214 195.488,320.714 206.5,321C 211.167,325.667 215.833,330.333 220.5,335C 201.521,335.725 184.188,330.891 168.5,320.5 Z"/></g>
</svg>
