<?xml version="1.0" encoding="UTF-8"?>
<!DOCTYPE svg PUBLIC "-//W3C//DTD SVG 1.1//EN" "http://www.w3.org/Graphics/SVG/1.1/DTD/svg11.dtd">
<svg xmlns="http://www.w3.org/2000/svg" version="1.1" width="512px" height="512px" style="shape-rendering:geometricPrecision; text-rendering:geometricPrecision; image-rendering:optimizeQuality; fill-rule:evenodd; clip-rule:evenodd" xmlns:xlink="http://www.w3.org/1999/xlink">
<g><path style="opacity:0.98" fill="#010101" d="M 223.5,-0.5 C 275.833,-0.5 328.167,-0.5 380.5,-0.5C 432.159,9.98754 467.992,39.6542 488,88.5C 502.299,129.215 506.633,170.882 501,213.5C 486.992,269.841 452.492,307.341 397.5,326C 385.748,329.488 373.748,331.488 361.5,332C 301.5,332.333 241.5,332.667 181.5,333C 165.051,338.117 157.218,349.283 158,366.5C 161.532,381.7 171.032,390.2 186.5,392C 224.167,392.333 261.833,392.667 299.5,393C 328.092,395.641 354.426,404.641 378.5,420C 387.712,426.212 395.212,434.045 401,443.5C 403.397,450.797 402.731,457.797 399,464.5C 378.804,487.306 353.638,501.806 323.5,508C 316.686,509.136 310.019,510.302 303.5,511.5C 259.167,511.5 214.833,511.5 170.5,511.5C 102.589,500.097 59.4224,461.097 41,394.5C 35.0982,354.836 38.0982,315.836 50,277.5C 70.1261,221.375 109.626,188.542 168.5,179C 221.5,178.333 274.5,178.333 327.5,179C 341.9,181.275 353.067,188.441 361,200.5C 362.741,203.309 363.908,206.309 364.5,209.5C 376.942,205.202 383.608,196.369 384.5,183C 383.438,168.529 376.104,158.863 362.5,154C 279.197,152.683 195.864,152.016 112.5,152C 84.036,150.468 57.036,143.468 31.5,131C 23.4782,126.471 22.4782,120.804 28.5,114C 32.9531,112.274 37.2864,110.274 41.5,108C 30.8333,103.333 20.1667,98.6667 9.5,94C 7.08452,88.982 6.91786,83.8154 9,78.5C 13.6757,68.157 20.8423,59.9904 30.5,54C 48.0529,44.6102 66.7196,38.6102 86.5,36C 96.7778,34.4236 107.111,33.4236 117.5,33C 141.5,32.6667 165.5,32.3333 189.5,32C 193.647,21.6948 199.98,13.0282 208.5,6C 213.367,3.22592 218.367,1.05926 223.5,-0.5 Z"/></g>
<g><path style="opacity:1" fill="#ac9376" d="M 437.5,43.5 C 417.282,32.0386 395.616,24.872 372.5,22C 320.68,20.9051 269.013,20.0717 217.5,19.5C 220.16,17.5033 223.16,16.0033 226.5,15C 276.5,14.3333 326.5,14.3333 376.5,15C 399.751,18.6301 420.085,28.1301 437.5,43.5 Z"/></g>
<g><path style="opacity:1" fill="#7f6648" d="M 217.5,19.5 C 269.013,20.0717 320.68,20.9051 372.5,22C 395.616,24.872 417.282,32.0386 437.5,43.5C 450.267,54.0081 460.434,66.6748 468,81.5C 469.59,83.6498 470.257,85.9832 470,88.5C 440.162,53.1667 401.995,34.8334 355.5,33.5C 306.167,32.8333 256.833,32.1667 207.5,31.5C 209.733,26.599 213.066,22.599 217.5,19.5 Z"/></g>
<g><path style="opacity:1" fill="#67533a" d="M 207.5,31.5 C 256.833,32.1667 306.167,32.8333 355.5,33.5C 305.829,33.8333 256.162,33.4999 206.5,32.5C 206.624,31.8933 206.957,31.56 207.5,31.5 Z"/></g>
<g><path style="opacity:1" fill="#b1987b" d="M 232.5,92.5 C 225.51,103.165 215.843,110.165 203.5,113.5C 203.5,111.833 203.5,110.167 203.5,108.5C 204.779,91.6096 197.112,81.4429 180.5,78C 165.913,74.649 152.579,77.3157 140.5,86C 136,89.9999 133.666,94.9999 133.5,101C 133.666,106.497 134.999,111.664 137.5,116.5C 114.579,117.533 91.9128,115.867 69.5,111.5C 69.7947,109.265 69.4614,107.265 68.5,105.5C 67.9717,104.279 67.305,103.113 66.5,102C 52.1803,95.9604 38.1803,89.4604 24.5,82.5C 31.6568,71.4 41.6568,63.9 54.5,60C 71.4692,54.6162 88.8026,50.9495 106.5,49C 135.167,48.3333 163.833,48.3333 192.5,49C 217.376,52.9343 230.709,67.4343 232.5,92.5 Z"/></g>
<g><path style="opacity:1" fill="#937755" d="M 149.5,388.5 C 149.365,409.176 159.032,422.676 178.5,429C 219.851,429.078 261.184,429.745 302.5,431C 318.883,432.969 334.55,437.135 349.5,443.5C 291.499,443.667 233.499,443.5 175.5,443C 146.859,437.43 126.025,421.597 113,395.5C 99.0332,358.759 106.2,326.926 134.5,300C 145.579,290.795 158.246,284.795 172.5,282C 236.802,280.688 301.136,280.021 365.5,280C 406.817,273.764 434.317,250.931 448,211.5C 454.806,189.376 453.806,167.71 445,146.5C 442.435,144.821 439.602,144.154 436.5,144.5C 435.5,142.5 434.5,140.5 433.5,138.5C 436.143,135.66 436.976,132.327 436,128.5C 433.667,125.167 431.333,121.833 429,118.5C 425.318,115.107 421.485,114.773 417.5,117.5C 415.833,116.167 414.167,114.833 412.5,113.5C 415.406,109.181 414.739,105.348 410.5,102C 395.994,92.1644 379.994,86.4978 362.5,85C 324.167,84.6667 285.833,84.3333 247.5,84C 245.305,70.078 238.972,58.4113 228.5,49C 276.517,48.0663 324.517,48.3996 372.5,50C 425.435,59.038 461.602,88.538 481,138.5C 496.247,189.274 486.58,234.607 452,274.5C 429.195,297.486 401.695,311.319 369.5,316C 307.833,316.333 246.167,316.667 184.5,317C 163.151,319.341 149.318,330.841 143,351.5C 140.766,364.7 142.933,377.034 149.5,388.5 Z"/></g>
<g><path style="opacity:1" fill="#b2987a" d="M 307.5,50.5 C 316.034,50.861 319.534,55.1943 318,63.5C 312.715,70.1559 307.382,70.1559 302,63.5C 301.333,60.8333 301.333,58.1667 302,55.5C 303.73,53.5981 305.563,51.9314 307.5,50.5 Z"/></g>
<g><path style="opacity:1" fill="#b1987a" d="M 347.5,59.5 C 356.037,59.2006 359.871,63.2006 359,71.5C 355.96,77.3682 351.46,78.8682 345.5,76C 339.744,69.6335 340.411,64.1335 347.5,59.5 Z"/></g>
<g><path style="opacity:1" fill="#b1987a" d="M 391.5,59.5 C 401.091,59.6999 404.591,64.3666 402,73.5C 397.037,78.7123 392.037,78.7123 387,73.5C 385.75,70.9234 385.416,68.2567 386,65.5C 387.36,62.9774 389.193,60.9774 391.5,59.5 Z"/></g>
<g><path style="opacity:1" fill="#403f43" d="M 71.5,65.5 C 80.8253,64.3271 84.992,68.3271 84,77.5C 79.02,83.7064 73.6866,84.0397 68,78.5C 65.9908,73.3548 67.1574,69.0215 71.5,65.5 Z"/></g>
<g><path style="opacity:1" fill="#030201" d="M 203.5,108.5 C 202.596,123.74 194.596,132.74 179.5,135.5C 174.848,136.762 170.181,136.762 165.5,135.5C 154.089,132.135 144.756,125.802 137.5,116.5C 134.999,111.664 133.666,106.497 133.5,101C 133.666,94.9999 136,89.9999 140.5,86C 152.579,77.3157 165.913,74.649 180.5,78C 197.112,81.4429 204.779,91.6096 203.5,108.5 Z"/></g>
<g><path style="opacity:1" fill="#7d6547" d="M 185.5,115.5 C 171.999,113.423 161.999,106.423 155.5,94.5C 165.118,90.0242 174.451,90.5242 183.5,96C 188.045,102.021 188.712,108.521 185.5,115.5 Z"/></g>
<g><path style="opacity:1" fill="#7e6548" d="M 232.5,92.5 C 230.277,119.056 215.944,133.722 189.5,136.5C 185.958,136.813 182.625,136.479 179.5,135.5C 194.596,132.74 202.596,123.74 203.5,108.5C 203.5,110.167 203.5,111.833 203.5,113.5C 215.843,110.165 225.51,103.165 232.5,92.5 Z"/></g>
<g><path style="opacity:1" fill="#68543c" d="M 155.5,94.5 C 161.999,106.423 171.999,113.423 185.5,115.5C 180.926,120.413 175.259,122.246 168.5,121C 158.85,117.681 152.184,111.348 148.5,102C 149.605,98.3933 151.939,95.8933 155.5,94.5 Z"/></g>
<g><path style="opacity:1" fill="#bea98f" d="M 412.5,113.5 C 414.167,114.833 415.833,116.167 417.5,117.5C 414.431,123.085 415.264,128.085 420,132.5C 421.833,134.333 423.667,136.167 425.5,138C 428.146,138.497 430.813,138.664 433.5,138.5C 434.5,140.5 435.5,142.5 436.5,144.5C 433.53,145.822 432.197,148.156 432.5,151.5C 442.675,184.135 436.842,213.468 415,239.5C 400.712,253.727 383.545,262.227 363.5,265C 301.167,265.333 238.833,265.667 176.5,266C 136.066,272.43 108.9,294.93 95,333.5C 84.4316,377.799 96.9316,413.966 132.5,442C 145.018,450.284 158.685,455.617 173.5,458C 243.167,458.333 312.833,458.667 382.5,459C 367.971,473.935 350.637,484.269 330.5,490C 318.671,493.033 306.671,495.033 294.5,496C 255.5,496.667 216.5,496.667 177.5,496C 118.444,488.903 78.9437,457.403 59,401.5C 44.4151,345.325 58.5818,297.825 101.5,259C 121.696,242.739 144.696,232.739 170.5,229C 234.857,228.971 299.191,228.304 363.5,227C 390.477,218.913 402.31,200.747 399,172.5C 397.289,166.748 394.789,161.414 391.5,156.5C 392.617,135.645 382.95,122.145 362.5,116C 322.835,115.5 283.168,115.333 243.5,115.5C 245.07,110.387 246.403,105.221 247.5,100C 284.833,99.3333 322.167,99.3333 359.5,100C 375.265,101.032 389.598,106.032 402.5,115C 406.149,115.963 409.482,115.463 412.5,113.5 Z"/></g>
<g><path style="opacity:1" fill="#7e6548" d="M 68.5,105.5 C 69.4614,107.265 69.7947,109.265 69.5,111.5C 91.9128,115.867 114.579,117.533 137.5,116.5C 144.756,125.802 154.089,132.135 165.5,135.5C 150.676,136.496 135.676,136.829 120.5,136.5C 95.9582,135.876 72.2915,131.043 49.5,122C 55.1978,119.151 60.8644,116.318 66.5,113.5C 68.2289,111.149 68.8956,108.482 68.5,105.5 Z"/></g>
<g><path style="opacity:1" fill="#eae4dc" d="M 243.5,115.5 C 283.168,115.333 322.835,115.5 362.5,116C 382.95,122.145 392.617,135.645 391.5,156.5C 382.634,144.399 370.634,138.065 355.5,137.5C 313.5,136.833 271.5,136.167 229.5,135.5C 235.176,129.461 239.842,122.795 243.5,115.5 Z"/></g>
<g><path style="opacity:1" fill="#050403" d="M 433.5,138.5 C 430.813,138.664 428.146,138.497 425.5,138C 423.667,136.167 421.833,134.333 420,132.5C 415.264,128.085 414.431,123.085 417.5,117.5C 421.485,114.773 425.318,115.107 429,118.5C 431.333,121.833 433.667,125.167 436,128.5C 436.976,132.327 436.143,135.66 433.5,138.5 Z"/></g>
<g><path style="opacity:1" fill="#2f251a" d="M 165.5,135.5 C 170.181,136.762 174.848,136.762 179.5,135.5C 182.625,136.479 185.958,136.813 189.5,136.5C 166.5,137.833 143.5,137.833 120.5,136.5C 135.676,136.829 150.676,136.496 165.5,135.5 Z"/></g>
<g><path style="opacity:1" fill="#7c7975" d="M 229.5,135.5 C 271.5,136.167 313.5,136.833 355.5,137.5C 313.161,137.833 270.828,137.5 228.5,136.5C 228.624,135.893 228.957,135.56 229.5,135.5 Z"/></g>
<g><path style="opacity:1" fill="#b1987a" d="M 464.5,177.5 C 475.716,178.11 478.716,183.276 473.5,193C 467.376,197.043 462.542,195.876 459,189.5C 457.873,184.089 459.707,180.089 464.5,177.5 Z"/></g>
<g><path style="opacity:1" fill="#a79073" d="M 338.5,199.5 C 282.335,200.333 226.001,200.833 169.5,201C 147.623,203.348 127.29,210.181 108.5,221.5C 107.893,221.376 107.56,221.043 107.5,220.5C 127.181,205.321 149.514,196.488 174.5,194C 222.5,193.333 270.5,193.333 318.5,194C 325.59,194.383 332.257,196.217 338.5,199.5 Z"/></g>
<g><path style="opacity:1" fill="#7f6648" d="M 338.5,199.5 C 342.934,202.599 346.267,206.599 348.5,211.5C 291.167,212.167 233.833,212.833 176.5,213.5C 134.233,217.382 99.3994,235.382 72,267.5C 79.7548,248.891 91.5881,233.224 107.5,220.5C 107.56,221.043 107.893,221.376 108.5,221.5C 127.29,210.181 147.623,203.348 169.5,201C 226.001,200.833 282.335,200.333 338.5,199.5 Z"/></g>
<g><path style="opacity:1" fill="#392d20" d="M 348.5,211.5 C 349.043,211.56 349.376,211.893 349.5,212.5C 291.837,213.5 234.171,213.833 176.5,213.5C 233.833,212.833 291.167,212.167 348.5,211.5 Z"/></g>
<g><path style="opacity:1" fill="#b1987a" d="M 454.5,219.5 C 463.427,218.594 467.593,222.594 467,231.5C 461.247,239.393 455.581,239.393 450,231.5C 448.976,226.548 450.476,222.548 454.5,219.5 Z"/></g>
<g><path style="opacity:1" fill="#b2987a" d="M 307.5,284.5 C 316.034,284.861 319.534,289.194 318,297.5C 312.715,304.156 307.382,304.156 302,297.5C 301.333,294.833 301.333,292.167 302,289.5C 303.73,287.598 305.563,285.931 307.5,284.5 Z"/></g>
<g><path style="opacity:1" fill="#b1987a" d="M 267.5,293.5 C 276.55,293.377 280.383,297.71 279,306.5C 273.57,313.145 268.236,313.145 263,306.5C 261.381,300.968 262.881,296.634 267.5,293.5 Z"/></g>
<g><path style="opacity:1" fill="#b1987a" d="M 347.5,293.5 C 356.037,293.201 359.871,297.201 359,305.5C 355.025,311.895 350.025,312.895 344,308.5C 340.018,302.235 341.185,297.235 347.5,293.5 Z"/></g>
<g><path style="opacity:1" fill="#b1987a" d="M 125.5,330.5 C 134.014,330.843 137.514,335.176 136,343.5C 132.544,348.614 128.044,349.781 122.5,347C 116.737,340.224 117.737,334.724 125.5,330.5 Z"/></g>
<g><path style="opacity:1" fill="#b2987a" d="M 123.5,362.5 C 132.825,361.327 136.992,365.327 136,374.5C 133.103,379.155 128.937,380.655 123.5,379C 116.902,373.464 116.902,367.964 123.5,362.5 Z"/></g>
<g><path style="opacity:1" fill="#69553c" d="M 149.5,388.5 C 152.971,392.803 156.971,396.636 161.5,400C 166.599,402.883 171.933,405.217 177.5,407C 214.5,407.333 251.5,407.667 288.5,408C 313.903,409.017 337.903,415.351 360.5,427C 367.744,431.573 374.41,436.907 380.5,443C 370.172,443.5 359.839,443.666 349.5,443.5C 334.55,437.135 318.883,432.969 302.5,431C 261.184,429.745 219.851,429.078 178.5,429C 159.032,422.676 149.365,409.176 149.5,388.5 Z"/></g>
</svg>
