<?xml version="1.0" encoding="UTF-8"?>
<!DOCTYPE svg PUBLIC "-//W3C//DTD SVG 1.1//EN" "http://www.w3.org/Graphics/SVG/1.1/DTD/svg11.dtd">
<svg xmlns="http://www.w3.org/2000/svg" version="1.1" width="512px" height="512px" style="shape-rendering:geometricPrecision; text-rendering:geometricPrecision; image-rendering:optimizeQuality; fill-rule:evenodd; clip-rule:evenodd" xmlns:xlink="http://www.w3.org/1999/xlink">
<g><path style="opacity:0.982" fill="#020101" d="M 250.5,-0.5 C 253.833,-0.5 257.167,-0.5 260.5,-0.5C 293.279,19.9638 314.612,48.9638 324.5,86.5C 335.18,81.5023 346.18,77.0023 357.5,73C 383.084,66.0887 408.75,65.7553 434.5,72C 436,73.5 437.5,75 439,76.5C 445.245,102.25 444.911,127.916 438,153.5C 434.016,164.79 429.516,175.79 424.5,186.5C 462.032,196.382 491.032,217.716 511.5,250.5C 511.5,253.833 511.5,257.167 511.5,260.5C 491.036,293.279 462.036,314.612 424.5,324.5C 429.516,335.21 434.016,346.21 438,357.5C 444.911,383.084 445.245,408.75 439,434.5C 437.5,436 436,437.5 434.5,439C 408.75,445.245 383.084,444.911 357.5,438C 346.21,434.016 335.21,429.516 324.5,424.5C 314.612,462.036 293.279,491.036 260.5,511.5C 257.167,511.5 253.833,511.5 250.5,511.5C 217.721,491.036 196.388,462.036 186.5,424.5C 175.79,429.516 164.79,434.016 153.5,438C 127.916,444.911 102.25,445.245 76.5,439C 75,437.5 73.5,436 72,434.5C 65.7553,408.75 66.0887,383.084 73,357.5C 76.9843,346.21 81.4843,335.21 86.5,324.5C 48.9638,314.612 19.9638,293.279 -0.5,260.5C -0.5,257.167 -0.5,253.833 -0.5,250.5C 19.9638,217.721 48.9638,196.388 86.5,186.5C 81.4843,175.79 76.9843,164.79 73,153.5C 66.0887,127.916 65.7553,102.25 72,76.5C 73.5,75 75,73.5 76.5,72C 102.25,65.7553 127.916,66.0887 153.5,73C 164.79,76.9843 175.79,81.4843 186.5,86.5C 196.388,48.9638 217.721,19.9638 250.5,-0.5 Z"/></g>
<g><path style="opacity:1" fill="#dab6a1" d="M 254.5,21.5 C 273.85,33.8106 288.35,50.4772 298,71.5C 309.462,99.0662 313.462,127.733 310,157.5C 308.142,171.123 305.642,184.623 302.5,198C 302.594,204.389 305.76,207.889 312,208.5C 344.797,199.614 377.964,198.114 411.5,204C 444.435,210.948 470.435,228.115 489.5,255.5C 470.435,282.885 444.435,300.052 411.5,307C 377.99,312.808 344.823,311.308 312,302.5C 306.167,303 303,306.167 302.5,312C 311.3,344.829 312.8,377.996 307,411.5C 300.052,444.435 282.885,470.435 255.5,489.5C 228.115,470.435 210.948,444.435 204,411.5C 198.133,377.969 199.633,344.803 208.5,312C 207.889,305.76 204.389,302.594 198,302.5C 163.736,311.669 129.236,312.835 94.5,306C 63.6826,298.32 39.3492,281.486 21.5,255.5C 39.3492,229.514 63.6826,212.68 94.5,205C 129.251,198.14 163.751,199.307 198,208.5C 204.833,208.333 208.333,204.833 208.5,198C 199.307,163.751 198.14,129.251 205,94.5C 212.703,64.0044 229.203,39.6711 254.5,21.5 Z"/></g>
<g><path style="opacity:1" fill="#020201" d="M 105.5,233.5 C 106.3,238.126 104.966,241.96 101.5,245C 93.3549,247.101 85.6883,250.268 78.5,254.5C 77.479,255.002 77.3123,255.668 78,256.5C 105.456,269.621 134.289,273.788 164.5,269C 178.14,266.84 191.14,262.673 203.5,256.5C 204.833,255.833 204.833,255.167 203.5,254.5C 196.116,250.65 188.449,247.483 180.5,245C 177.13,242.303 175.796,238.803 176.5,234.5C 177.609,229.725 180.609,227.058 185.5,226.5C 196.963,229.317 207.796,233.65 218,239.5C 223.167,230.333 230.333,223.167 239.5,218C 227.803,196.715 221.636,173.881 221,149.5C 219.36,125.008 223.027,101.341 232,78.5C 236.322,68.0016 242.489,58.8349 250.5,51C 254.836,48.778 258.836,49.278 262.5,52.5C 275.214,67.5979 283.38,84.9312 287,104.5C 293.618,139.039 290.618,172.706 278,205.5C 275.953,209.761 273.787,213.928 271.5,218C 280.338,222.671 287.004,229.505 291.5,238.5C 292.365,239.583 293.365,239.749 294.5,239C 313.399,228.348 333.733,222.348 355.5,221C 382.75,219.042 409.083,223.042 434.5,233C 444.96,237.461 453.793,243.961 461,252.5C 461.979,256.295 461.146,259.628 458.5,262.5C 444.311,274.593 427.978,282.426 409.5,286C 374.788,293.781 340.788,291.447 307.5,279C 302.573,276.62 297.739,274.12 293,271.5C 288.329,280.338 281.495,287.004 272.5,291.5C 271.417,292.365 271.251,293.365 272,294.5C 281.253,310.259 286.92,327.259 289,345.5C 293.746,380.168 288.413,413.168 273,444.5C 269.743,449.346 266.243,454.012 262.5,458.5C 258.787,461.545 254.787,462.045 250.5,460C 237.139,445.78 228.639,428.946 225,409.5C 217.771,376.698 219.438,344.365 230,312.5C 232.774,305.785 235.941,299.285 239.5,293C 230.333,287.833 223.167,280.667 218,271.5C 196.403,283.358 173.236,289.525 148.5,290C 119.536,292.063 92.2024,286.396 66.5,273C 61.6544,269.743 56.9878,266.243 52.5,262.5C 49.278,258.836 48.778,254.836 51,250.5C 64.256,237.455 80.0893,229.622 98.5,227C 101.987,227.989 104.32,230.155 105.5,233.5 Z"/></g>
<g><path style="opacity:1" fill="#fa9044" d="M 254.5,77.5 C 255.496,77.4142 256.329,77.7476 257,78.5C 271.495,111.074 274.495,144.741 266,179.5C 263.762,188.385 260.262,196.718 255.5,204.5C 244.843,184.396 239.843,162.896 240.5,140C 240.134,117.991 244.801,97.1575 254.5,77.5 Z"/></g>
<g><path style="opacity:1" fill="#c28762" d="M 100.5,87.5 C 129.71,85.5105 156.543,92.5105 181,108.5C 181.232,116.528 180.732,124.528 179.5,132.5C 161.816,118.659 141.816,110.326 119.5,107.5C 115.501,107.022 112.001,108.022 109,110.5C 107.437,115.718 107.104,121.051 108,126.5C 112.402,145.968 120.569,163.635 132.5,179.5C 124.528,180.732 116.528,181.232 108.5,181C 90.1052,153.013 83.7718,122.513 89.5,89.5C 93.3597,89.1916 97.0264,88.5249 100.5,87.5 Z"/></g>
<g><path style="opacity:1" fill="#c28763" d="M 385.5,87.5 C 397.569,87.1694 409.569,87.836 421.5,89.5C 427.227,122.535 420.894,153.035 402.5,181C 394.457,181.394 386.457,180.894 378.5,179.5C 392.341,161.816 400.674,141.816 403.5,119.5C 403.978,115.501 402.978,112.001 400.5,109C 389.568,106.518 378.902,107.518 368.5,112C 355.232,117.297 342.899,124.13 331.5,132.5C 331.167,130 330.833,127.5 330.5,125C 329.668,119.256 329.668,113.589 330.5,108C 347.439,97.2997 365.772,90.4664 385.5,87.5 Z"/></g>
<g><path style="opacity:1" fill="#fae55e" d="M 129.5,129.5 C 143.861,133.347 156.861,139.847 168.5,149C 172.5,152.333 176.5,155.667 180.5,159C 182.221,167.399 183.555,175.899 184.5,184.5C 176.094,183.649 167.761,182.316 159.5,180.5C 145.319,165.98 135.319,148.98 129.5,129.5 Z"/></g>
<g><path style="opacity:1" fill="#fae65e" d="M 377.5,129.5 C 378.978,129.238 380.311,129.571 381.5,130.5C 375.217,149.438 365.217,166.104 351.5,180.5C 343.159,181.835 334.825,183.169 326.5,184.5C 327.351,176.094 328.684,167.761 330.5,159.5C 344.434,146.705 360.101,136.705 377.5,129.5 Z"/></g>
<g><path style="opacity:1" fill="#070402" d="M 150.5,231.5 C 148.436,239.589 143.436,242.089 135.5,239C 132.976,237.117 131.642,234.617 131.5,231.5C 132.261,221.782 137.261,218.615 146.5,222C 149.62,224.408 150.953,227.574 150.5,231.5 Z"/></g>
<g><path style="opacity:1" fill="#fb9145" d="M 131.5,231.5 C 131.642,234.617 132.976,237.117 135.5,239C 143.436,242.089 148.436,239.589 150.5,231.5C 159.307,231.413 167.974,232.413 176.5,234.5C 175.796,238.803 177.13,242.303 180.5,245C 188.449,247.483 196.116,250.65 203.5,254.5C 204.833,255.167 204.833,255.833 203.5,256.5C 191.14,262.673 178.14,266.84 164.5,269C 134.289,273.788 105.456,269.621 78,256.5C 77.3123,255.668 77.479,255.002 78.5,254.5C 85.6883,250.268 93.3549,247.101 101.5,245C 104.966,241.96 106.3,238.126 105.5,233.5C 114.1,232.076 122.767,231.409 131.5,231.5 Z"/></g>
<g><path style="opacity:1" fill="#c28763" d="M 250.5,235.5 C 267.979,234.812 276.146,243.145 275,260.5C 269.365,274.383 259.532,278.549 245.5,273C 235.486,265.95 232.986,256.784 238,245.5C 241.191,240.837 245.358,237.503 250.5,235.5 Z"/></g>
<g><path style="opacity:1" fill="#fa9044" d="M 353.5,240.5 C 377.534,238.872 400.867,242.038 423.5,250C 426.994,251.579 430.327,253.413 433.5,255.5C 421.025,262.454 407.692,266.954 393.5,269C 367.902,272.77 342.902,270.436 318.5,262C 314.072,260.481 310.072,258.314 306.5,255.5C 312.93,251.289 319.93,248.122 327.5,246C 336.237,243.821 344.903,241.988 353.5,240.5 Z"/></g>
<g><path style="opacity:1" fill="#fa9044" d="M 254.5,306.5 C 255.496,306.414 256.329,306.748 257,307.5C 271.495,340.074 274.495,373.741 266,408.5C 263.762,417.385 260.262,425.718 255.5,433.5C 248.552,421.06 244.052,407.727 242,393.5C 237.253,363.131 241.42,334.131 254.5,306.5 Z"/></g>
<g><path style="opacity:1" fill="#fae55e" d="M 178.5,326.5 C 180.5,326.5 182.5,326.5 184.5,326.5C 183.012,334.778 181.845,343.112 181,351.5C 171.787,359.523 161.954,366.689 151.5,373C 144.484,376.726 137.151,379.56 129.5,381.5C 135.302,362.031 145.302,345.031 159.5,330.5C 166.056,329.606 172.39,328.273 178.5,326.5 Z"/></g>
<g><path style="opacity:1" fill="#fae65e" d="M 326.5,326.5 C 334.825,327.831 343.159,329.165 351.5,330.5C 365.698,345.031 375.698,362.031 381.5,381.5C 362.031,375.698 345.031,365.698 330.5,351.5C 329.165,343.159 327.831,334.825 326.5,326.5 Z"/></g>
<g><path style="opacity:1" fill="#c28763" d="M 108.5,329.5 C 116.531,329.769 124.531,330.435 132.5,331.5C 121.132,346.904 112.966,363.904 108,382.5C 107.091,388.612 107.424,394.612 109,400.5C 112.001,402.978 115.501,403.978 119.5,403.5C 141.816,400.674 161.816,392.341 179.5,378.5C 180.996,386.448 181.496,394.448 181,402.5C 153.013,420.895 122.513,427.228 89.5,421.5C 83.8106,388.278 90.1439,357.612 108.5,329.5 Z"/></g>
<g><path style="opacity:1" fill="#c28763" d="M 391.5,329.5 C 395.437,329.207 399.27,329.54 403,330.5C 421.297,358.314 427.13,388.481 420.5,421C 387.798,427.115 357.632,420.949 330,402.5C 329.606,394.457 330.106,386.457 331.5,378.5C 344.666,388.085 359,395.585 374.5,401C 382.354,403.324 390.354,403.991 398.5,403C 399.931,402.535 401.097,401.701 402,400.5C 404.482,389.568 403.482,378.902 399,368.5C 393.703,355.232 386.87,342.899 378.5,331.5C 382.982,330.833 387.316,330.166 391.5,329.5 Z"/></g>
</svg>
