<?xml version="1.0" encoding="UTF-8"?>
<!DOCTYPE svg PUBLIC "-//W3C//DTD SVG 1.1//EN" "http://www.w3.org/Graphics/SVG/1.1/DTD/svg11.dtd">
<svg xmlns="http://www.w3.org/2000/svg" version="1.1" width="512px" height="512px" style="shape-rendering:geometricPrecision; text-rendering:geometricPrecision; image-rendering:optimizeQuality; fill-rule:evenodd; clip-rule:evenodd" xmlns:xlink="http://www.w3.org/1999/xlink">
<g><path style="opacity:0.973" fill="#010201" d="M 345.5,-0.5 C 349.833,-0.5 354.167,-0.5 358.5,-0.5C 361.021,1.01922 363.521,2.68589 366,4.5C 367.586,6.67047 368.92,9.00381 370,11.5C 370.185,18.7466 370.685,25.9133 371.5,33C 382.51,37.3226 393.843,40.6559 405.5,43C 409.446,46.387 412.28,50.5537 414,55.5C 415.085,56.2931 416.252,56.9598 417.5,57.5C 424.752,54.2486 432.252,51.9153 440,50.5C 454.983,52.117 461.65,60.4503 460,75.5C 458.393,80.9884 456.393,86.3217 454,91.5C 453.333,92.8333 453.333,94.1667 454,95.5C 456.511,97.5628 459.344,99.0628 462.5,100C 469.928,105.595 473.094,113.095 472,122.5C 475.528,127.581 477.694,133.247 478.5,139.5C 485.45,140.298 492.45,140.798 499.5,141C 501.996,142.08 504.33,143.414 506.5,145C 508.314,147.479 509.981,149.979 511.5,152.5C 511.5,156.5 511.5,160.5 511.5,164.5C 507.219,170.462 502.885,176.462 498.5,182.5C 500.415,185.261 502.582,187.928 505,190.5C 509.567,201.406 507.067,210.24 497.5,217C 489.902,218.652 482.402,220.485 475,222.5C 476.37,226.632 477.204,230.965 477.5,235.5C 477.56,245.204 472.893,251.371 463.5,254C 453.506,254.5 443.506,254.666 433.5,254.5C 434.077,259.081 433.077,263.248 430.5,267C 433.687,272.851 434.354,279.018 432.5,285.5C 439.508,285.334 446.508,285.5 453.5,286C 464.363,291.667 467.53,300.167 463,311.5C 461.954,313.09 460.787,314.59 459.5,316C 464,319.833 468.5,323.667 473,327.5C 477.635,336.387 476.469,344.553 469.5,352C 463.445,354.778 457.112,356.611 450.5,357.5C 451.638,371.011 445.638,379.011 432.5,381.5C 425.427,380.296 419.094,377.463 413.5,373C 412.207,372.51 410.873,372.343 409.5,372.5C 408.414,382.974 402.581,388.64 392,389.5C 388.237,389.135 384.737,387.968 381.5,386C 359.764,370.723 345.264,350.223 338,324.5C 274.719,391.158 205.552,450.325 130.5,502C 123.905,506.302 116.905,509.469 109.5,511.5C 102.5,511.5 95.5,511.5 88.5,511.5C 80.5995,509.385 73.2662,505.885 66.5,501C 47.6667,482.167 28.8333,463.333 10,444.5C 5.11514,437.734 1.61514,430.4 -0.5,422.5C -0.5,415.833 -0.5,409.167 -0.5,402.5C 1.04075,396.725 3.20742,391.058 6,385.5C 12.4252,375.083 19.5918,365.249 27.5,356C 30.592,355.264 33.592,355.431 36.5,356.5C 38.343,359.564 38.843,362.897 38,366.5C 32,375.167 26,383.833 20,392.5C 12.3377,406.885 13.0043,420.885 22,434.5C 27,439.5 32,444.5 37,449.5C 44.8161,446.004 52.6495,442.504 60.5,439C 63.2654,433.531 65.9321,428.031 68.5,422.5C 109.325,337.193 162.825,260.86 229,193.5C 228.625,190.27 227.125,187.603 224.5,185.5C 221.36,179.22 218.193,172.886 215,166.5C 182.609,198.224 150.942,230.557 120,263.5C 98.9094,287.92 78.576,312.92 59,338.5C 55.5558,342.436 51.3891,343.436 46.5,341.5C 43.5532,338.162 43.0532,334.495 45,330.5C 87.7225,274.421 134.889,221.921 186.5,173C 180.093,170.806 173.759,168.306 167.5,165.5C 164.923,163.08 163.923,160.08 164.5,156.5C 165.837,155.685 166.837,154.518 167.5,153C 168.873,152.125 170.373,151.625 172,151.5C 179.758,154.197 187.592,156.697 195.5,159C 197.712,159.789 199.712,159.622 201.5,158.5C 204.13,156.372 206.63,154.039 209,151.5C 208.946,145.161 208.446,138.828 207.5,132.5C 207.369,124.933 210.702,119.433 217.5,116C 223.69,114.631 229.856,114.131 236,114.5C 236.5,107.508 236.666,100.508 236.5,93.5C 227.348,96.3623 219.515,94.3623 213,87.5C 212.138,85.913 211.471,84.2464 211,82.5C 210.814,75.5863 210.314,68.7529 209.5,62C 206.258,63.1587 202.925,64.4921 199.5,66C 196.518,66.498 193.518,66.6646 190.5,66.5C 188.86,65.6799 187.193,64.8466 185.5,64C 181.427,59.3031 177.26,54.8031 173,50.5C 172.228,50.6448 171.561,50.9781 171,51.5C 170.095,57.5999 168.761,63.5999 167,69.5C 161.286,75.8932 154.119,78.5598 145.5,77.5C 147.774,83.3813 150.607,89.0479 154,94.5C 155.895,106.88 150.728,114.38 138.5,117C 137.978,117.561 137.645,118.228 137.5,119C 141.22,125.393 145.72,131.226 151,136.5C 151.597,139.681 151.097,142.681 149.5,145.5C 145.444,148.197 141.444,148.03 137.5,145C 132.281,138.782 127.448,132.282 123,125.5C 119.876,112.07 125.043,104.07 138.5,101.5C 136.846,95.854 134.346,90.5206 131,85.5C 128.435,76.9332 130.601,69.7665 137.5,64C 142.655,62.1491 147.988,60.9824 153.5,60.5C 154.389,53.888 156.222,47.5546 159,41.5C 166.325,34.983 174.492,33.8163 183.5,38C 187.333,42.5 191.167,47 195,51.5C 202.297,45.9052 210.13,45.0719 218.5,49C 221.433,51.2643 223.6,54.0976 225,57.5C 225.5,64.4921 225.666,71.4921 225.5,78.5C 231.968,76.6869 238.134,77.3535 244,80.5C 248.218,78.322 252.718,76.9887 257.5,76.5C 256.36,67.2145 256.194,57.8812 257,48.5C 260.693,36.395 268.86,31.5616 281.5,34C 283.974,36.0985 286.641,36.5985 289.5,35.5C 290.804,29.2065 291.971,22.8731 293,16.5C 296.265,8.5215 302.265,4.18817 311,3.5C 314.716,4.04228 318.216,5.20895 321.5,7C 323.385,9.22236 325.551,11.0557 328,12.5C 333.724,7.9323 339.557,3.59897 345.5,-0.5 Z M 142.5,324.5 C 171,281.475 203.5,241.475 240,204.5C 243.667,208.167 247.333,211.833 251,215.5C 251.667,216.167 251.667,216.833 251,217.5C 215.25,253.752 179.083,289.418 142.5,324.5 Z M 257.5,324.5 C 253.413,328.922 248.746,332.589 243.5,335.5C 240.221,334.508 236.888,334.341 233.5,335C 218.635,346.59 203.301,357.423 187.5,367.5C 223.132,331.368 258.965,295.368 295,259.5C 298.833,263.333 302.667,267.167 306.5,271C 290.933,286.57 274.767,301.404 258,315.5C 256.182,318.416 256.016,321.416 257.5,324.5 Z"/></g>
<g><path style="opacity:1" fill="#39b34d" d="M 355.5,35.5 C 347.717,42.5445 340.384,42.0445 333.5,34C 325.697,30.4885 320.197,32.6551 317,40.5C 315.907,46.4835 314.907,52.4835 314,58.5C 312.065,62.8019 308.732,64.8019 304,64.5C 301.109,64.7404 298.609,63.9071 296.5,62C 289.84,60.1657 285.174,62.3323 282.5,68.5C 279.675,72.1366 276.842,75.8033 274,79.5C 272.155,73.5002 271.322,67.3336 271.5,61C 271.407,57.0497 271.907,53.2164 273,49.5C 273.725,48.9415 274.558,48.6082 275.5,48.5C 288.309,55.286 298.143,52.286 305,39.5C 305.521,32.8411 306.688,26.3411 308.5,20C 309.833,19.3333 311.167,19.3333 312.5,20C 321.27,29.9717 330.936,30.9717 341.5,23C 344.432,19.3946 347.932,16.5613 352,14.5C 353.261,14.7591 354.261,15.4258 355,16.5C 355.5,22.8246 355.666,29.1579 355.5,35.5 Z"/></g>
<g><path style="opacity:1" fill="#4dc35e" d="M 355.5,35.5 C 359.242,44.7285 366.242,49.5618 376.5,50C 373.207,55.4184 370.04,60.9184 367,66.5C 364.936,67.5914 362.769,67.7581 360.5,67C 348.656,54.235 337.156,54.4017 326,67.5C 322.112,75.945 318.778,84.6117 316,93.5C 314.118,88.3708 312.784,83.0374 312,77.5C 305.291,64.3195 295.457,61.3195 282.5,68.5C 285.174,62.3323 289.84,60.1657 296.5,62C 298.609,63.9071 301.109,64.7404 304,64.5C 308.732,64.8019 312.065,62.8019 314,58.5C 314.907,52.4835 315.907,46.4835 317,40.5C 320.197,32.6551 325.697,30.4885 333.5,34C 340.384,42.0445 347.717,42.5445 355.5,35.5 Z"/></g>
<g><path style="opacity:0.997" fill="#3ab44e" d="M 190.5,66.5 C 190.084,68.7525 188.751,70.2525 186.5,71C 180.321,69.1007 175.155,70.6007 171,75.5C 169.578,78.0301 169.245,80.6967 170,83.5C 172.416,88.0006 175.083,92.3339 178,96.5C 179.494,101.526 178.327,105.692 174.5,109C 170.937,109.84 167.603,111.174 164.5,113C 160.759,117.37 160.593,121.87 164,126.5C 173.646,140.656 186.146,151.323 201.5,158.5C 199.712,159.622 197.712,159.789 195.5,159C 187.592,156.697 179.758,154.197 172,151.5C 170.373,151.625 168.873,152.125 167.5,153C 166.837,154.518 165.837,155.685 164.5,156.5C 159.322,153.078 154.322,149.411 149.5,145.5C 151.097,142.681 151.597,139.681 151,136.5C 145.72,131.226 141.22,125.393 137.5,119C 137.645,118.228 137.978,117.561 138.5,117C 150.728,114.38 155.895,106.88 154,94.5C 150.607,89.0479 147.774,83.3813 145.5,77.5C 154.119,78.5598 161.286,75.8932 167,69.5C 168.761,63.5999 170.095,57.5999 171,51.5C 171.561,50.9781 172.228,50.6448 173,50.5C 177.26,54.8031 181.427,59.3031 185.5,64C 187.193,64.8466 188.86,65.6799 190.5,66.5 Z"/></g>
<g><path style="opacity:1" fill="#8ece94" d="M 438.5,96.5 C 437.596,95.791 437.263,94.791 437.5,93.5C 434.575,93.5402 431.909,92.7068 429.5,91C 427.349,87.5671 425.015,84.2337 422.5,81C 416.353,77.3859 410.519,77.8859 405,82.5C 401.333,89.1667 397.667,95.8333 394,102.5C 389.559,105.331 384.726,106.164 379.5,105C 376.09,101.262 372.09,98.2621 367.5,96C 362.562,95.313 358.395,96.813 355,100.5C 348.096,113.375 343.93,127.041 342.5,141.5C 339.657,140.229 336.657,139.396 333.5,139C 332.941,138.275 332.608,137.442 332.5,136.5C 335.649,130.203 338.815,123.87 342,117.5C 343.225,111.732 342.225,106.399 339,101.5C 336.298,99.0929 333.798,96.5929 331.5,94C 333.8,86.4031 337.134,79.4031 341.5,73C 342.833,72.3333 344.167,72.3333 345.5,73C 355.943,84.5372 367.11,85.3705 379,75.5C 382.333,69.5 385.667,63.5 389,57.5C 392,53.5 395,53.5 398,57.5C 402.378,69.442 410.878,74.2754 423.5,72C 428.921,69.6374 434.421,67.4707 440,65.5C 443.355,65.8524 444.855,67.6858 444.5,71C 443.073,76.6153 441.239,82.1153 439,87.5C 438.502,90.4816 438.335,93.4816 438.5,96.5 Z"/></g>
<g><path style="opacity:1" fill="#4ec45f" d="M 201.5,158.5 C 186.146,151.323 173.646,140.656 164,126.5C 160.593,121.87 160.759,117.37 164.5,113C 167.603,111.174 170.937,109.84 174.5,109C 178.327,105.692 179.494,101.526 178,96.5C 175.083,92.3339 172.416,88.0006 170,83.5C 169.245,80.6967 169.578,78.0301 171,75.5C 175.155,70.6007 180.321,69.1007 186.5,71C 188.751,70.2525 190.084,68.7525 190.5,66.5C 193.518,66.6646 196.518,66.498 199.5,66C 202.925,64.4921 206.258,63.1587 209.5,62C 210.314,68.7529 210.814,75.5863 211,82.5C 211.471,84.2464 212.138,85.913 213,87.5C 219.515,94.3623 227.348,96.3623 236.5,93.5C 236.666,100.508 236.5,107.508 236,114.5C 229.856,114.131 223.69,114.631 217.5,116C 210.702,119.433 207.369,124.933 207.5,132.5C 208.446,138.828 208.946,145.161 209,151.5C 206.63,154.039 204.13,156.372 201.5,158.5 Z"/></g>
<g><path style="opacity:1" fill="#a1e3a6" d="M 438.5,96.5 C 440.174,105.008 445.174,110.508 453.5,113C 457.582,116.697 457.249,120.03 452.5,123C 444.854,126.321 438.021,130.821 432,136.5C 426.281,147.695 428.281,157.361 438,165.5C 438.687,167.92 438.187,170.087 436.5,172C 429.95,174.795 423.283,177.295 416.5,179.5C 411.082,171.125 403.415,167.625 393.5,169C 387.509,172.579 381.342,175.745 375,178.5C 374.167,178.167 373.333,177.833 372.5,177.5C 371.453,169.966 367.786,164.133 361.5,160C 376.667,144.833 391.833,129.667 407,114.5C 409.5,105 406,101.5 396.5,104C 381.333,119.167 366.167,134.333 351,149.5C 348.886,146.034 346.052,143.367 342.5,141.5C 343.93,127.041 348.096,113.375 355,100.5C 358.395,96.813 362.562,95.313 367.5,96C 372.09,98.2621 376.09,101.262 379.5,105C 384.726,106.164 389.559,105.331 394,102.5C 397.667,95.8333 401.333,89.1667 405,82.5C 410.519,77.8859 416.353,77.3859 422.5,81C 425.015,84.2337 427.349,87.5671 429.5,91C 431.909,92.7068 434.575,93.5402 437.5,93.5C 437.263,94.791 437.596,95.791 438.5,96.5 Z"/></g>
<g><path style="opacity:1" fill="#8ece94" d="M 301.5,99.5 C 298.694,103.137 295.361,106.304 291.5,109C 288.5,109.667 285.5,109.667 282.5,109C 275.781,102.842 269.281,103.008 263,109.5C 261.199,116.414 261.032,123.414 262.5,130.5C 262.415,135.178 260.415,138.678 256.5,141C 251.149,141.263 245.816,141.263 240.5,141C 234.177,143.811 231.677,148.645 233,155.5C 234.056,162.615 235.556,169.615 237.5,176.5C 227.96,162.71 223.126,147.377 223,130.5C 228.064,130.372 233.23,130.205 238.5,130C 245.07,127.762 249.237,123.262 251,116.5C 251.333,108.833 251.667,101.167 252,93.5C 253.049,92.4829 254.216,92.3162 255.5,93C 263.275,99.6027 271.609,100.269 280.5,95C 284.382,90.7861 287.882,86.2861 291,81.5C 293.84,78.6293 296.174,78.9626 298,82.5C 298.845,88.2602 300.012,93.9268 301.5,99.5 Z"/></g>
<g><path style="opacity:1" fill="#a1e2a6" d="M 301.5,99.5 C 303.742,104.237 307.408,107.404 312.5,109C 317.418,109.195 322.251,109.695 327,110.5C 327.667,111.833 327.667,113.167 327,114.5C 322.849,120.963 319.683,127.796 317.5,135C 318.091,147.092 324.424,153.926 336.5,155.5C 336.931,156.293 337.265,157.127 337.5,158C 323.325,181.944 302.659,197.444 275.5,204.5C 275.167,203.667 274.833,202.833 274.5,202C 278.693,182.869 282.693,163.702 286.5,144.5C 285.141,137.154 281.141,135.154 274.5,138.5C 273.416,139.665 272.583,140.998 272,142.5C 268.177,162.28 263.844,181.947 259,201.5C 250.501,194.178 243.334,185.845 237.5,176.5C 235.556,169.615 234.056,162.615 233,155.5C 231.677,148.645 234.177,143.811 240.5,141C 245.816,141.263 251.149,141.263 256.5,141C 260.415,138.678 262.415,135.178 262.5,130.5C 261.032,123.414 261.199,116.414 263,109.5C 269.281,103.008 275.781,102.842 282.5,109C 285.5,109.667 288.5,109.667 291.5,109C 295.361,106.304 298.694,103.137 301.5,99.5 Z"/></g>
<g><path style="opacity:1" fill="#3ab34d" d="M 483.5,176.5 C 472.319,177.199 467.152,171.865 468,160.5C 463.443,153.106 457.61,151.772 450.5,156.5C 445.944,154.138 443.777,150.471 444,145.5C 449.25,141.79 454.75,138.456 460.5,135.5C 461.543,144.694 466.209,151.194 474.5,155C 481.167,155.333 487.833,155.667 494.5,156C 496.211,157.133 496.711,158.633 496,160.5C 491.237,165.422 487.07,170.756 483.5,176.5 Z"/></g>
<g><path style="opacity:1" fill="#4dc25e" d="M 483.5,176.5 C 481.693,185.244 484.193,192.578 491,198.5C 491.667,199.833 491.667,201.167 491,202.5C 483.842,203.877 476.676,205.377 469.5,207C 462.702,210.433 459.369,215.933 459.5,223.5C 459.874,228.391 460.707,233.057 462,237.5C 461.5,238 461,238.5 460.5,239C 456.5,239.167 452.5,239.333 448.5,239.5C 442.703,239.691 437.037,239.025 431.5,237.5C 437.911,233.589 442.744,228.256 446,221.5C 447.688,213.711 445.522,207.211 439.5,202C 432.303,199.393 424.97,197.227 417.5,195.5C 425.572,192.635 433.572,189.468 441.5,186C 453.472,178.917 456.472,169.083 450.5,156.5C 457.61,151.772 463.443,153.106 468,160.5C 467.152,171.865 472.319,177.199 483.5,176.5 Z"/></g>
<g><path style="opacity:0.999" fill="#8fcf95" d="M 224.5,185.5 C 152.844,251.707 89.6778,324.707 35,404.5C 29.0952,414.455 30.9285,422.622 40.5,429C 43.406,430.318 46.406,430.652 49.5,430C 55.8651,427.48 62.1985,424.98 68.5,422.5C 65.9321,428.031 63.2654,433.531 60.5,439C 52.6495,442.504 44.8161,446.004 37,449.5C 32,444.5 27,439.5 22,434.5C 13.0043,420.885 12.3377,406.885 20,392.5C 26,383.833 32,375.167 38,366.5C 38.843,362.897 38.343,359.564 36.5,356.5C 39.575,351.357 42.9084,346.357 46.5,341.5C 51.3891,343.436 55.5558,342.436 59,338.5C 78.576,312.92 98.9094,287.92 120,263.5C 150.942,230.557 182.609,198.224 215,166.5C 218.193,172.886 221.36,179.22 224.5,185.5 Z"/></g>
<g><path style="opacity:1" fill="#3ab34d" d="M 403.5,202.5 C 400.023,200.742 396.357,200.242 392.5,201C 386.992,204.255 381.325,207.255 375.5,210C 369.798,211.72 365.298,210.22 362,205.5C 361.575,196.922 357.242,191.922 349,190.5C 342.99,192.756 337.49,195.923 332.5,200C 325.924,205.749 319.591,211.583 313.5,217.5C 321.593,198.074 334.926,183.407 353.5,173.5C 354.442,173.608 355.275,173.941 356,174.5C 358.778,189.623 367.611,195.456 382.5,192C 387.167,189.333 391.833,186.667 396.5,184C 397.833,183.333 399.167,183.333 400.5,184C 401.07,190.221 402.07,196.388 403.5,202.5 Z"/></g>
<g><path style="opacity:1" fill="#a1e3a6" d="M 224.5,185.5 C 227.125,187.603 228.625,190.27 229,193.5C 162.825,260.86 109.325,337.193 68.5,422.5C 62.1985,424.98 55.8651,427.48 49.5,430C 46.406,430.652 43.406,430.318 40.5,429C 30.9285,422.622 29.0952,414.455 35,404.5C 89.6778,324.707 152.844,251.707 224.5,185.5 Z"/></g>
<g><path style="opacity:1" fill="#4ec45e" d="M 403.5,202.5 C 404.401,203.29 405.068,204.29 405.5,205.5C 407.732,209.09 408.065,212.923 406.5,217C 407.037,224.034 410.704,227.867 417.5,228.5C 410.742,237.604 410.909,246.604 418,255.5C 418.711,257.367 418.211,258.867 416.5,260C 414.333,260.167 412.167,260.333 410,260.5C 388.044,256.459 378.377,265.459 381,287.5C 380.044,288.894 378.711,289.561 377,289.5C 349.737,285.454 327.237,272.954 309.5,252C 329.43,247.017 349.43,242.351 369.5,238C 374.092,235.224 375.258,231.391 373,226.5C 371.177,224.833 369.01,223.833 366.5,223.5C 346.57,227.903 326.737,232.569 307,237.5C 308.071,230.455 310.237,223.789 313.5,217.5C 319.591,211.583 325.924,205.749 332.5,200C 337.49,195.923 342.99,192.756 349,190.5C 357.242,191.922 361.575,196.922 362,205.5C 365.298,210.22 369.798,211.72 375.5,210C 381.325,207.255 386.992,204.255 392.5,201C 396.357,200.242 400.023,200.742 403.5,202.5 Z"/></g>
<g><path style="opacity:1" fill="#3ab44d" d="M 405.5,205.5 C 407.805,206.989 410.138,208.489 412.5,210C 418.75,211.271 424.917,212.771 431,214.5C 431.667,215.833 431.667,217.167 431,218.5C 426.904,222.436 422.404,225.77 417.5,228.5C 410.704,227.867 407.037,224.034 406.5,217C 408.065,212.923 407.732,209.09 405.5,205.5 Z"/></g>
<g><path style="opacity:1" fill="#8dcd93" d="M 177.5,354.5 C 163.383,362.729 149.049,370.729 134.5,378.5C 133.713,377.758 133.047,376.925 132.5,376C 140.356,362.003 148.356,348.17 156.5,334.5C 193.299,297.201 230.299,260.035 267.5,223C 278.259,218.912 288.925,215.412 299.5,212.5C 295.211,222.652 291.377,232.986 288,243.5C 251.66,281.007 214.826,318.007 177.5,354.5 Z"/></g>
<g><path style="opacity:1" fill="#a1e2a6" d="M 437.5,347.5 C 433.696,344.761 429.696,342.261 425.5,340C 416.751,338.082 411.917,341.582 411,350.5C 407.044,356.759 401.878,357.926 395.5,354C 380.438,343.7 369.271,330.2 362,313.5C 360.096,310.077 359.263,306.41 359.5,302.5C 360.097,301.861 360.93,301.528 362,301.5C 369.412,303.327 376.912,303.827 384.5,303C 388.948,300.886 392.448,297.719 395,293.5C 396.369,287.31 396.869,281.144 396.5,275C 403.492,274.5 410.492,274.334 417.5,274.5C 414.069,285.786 417.403,294.286 427.5,300C 434.747,300.185 441.913,300.685 449,301.5C 449.667,302.5 449.667,303.5 449,304.5C 443.786,310.978 443.119,317.978 447,325.5C 451.697,329.573 456.197,333.74 460.5,338C 460.355,338.772 460.022,339.439 459.5,340C 451.123,339.826 443.79,342.326 437.5,347.5 Z"/></g>
<g><path style="opacity:1" fill="#a1e3a6" d="M 243.5,335.5 C 248.746,332.589 253.413,328.922 257.5,324.5C 259.621,325.943 261.954,326.943 264.5,327.5C 266.299,327.423 267.966,326.923 269.5,326C 286.282,311.721 302.615,296.887 318.5,281.5C 326.714,287.108 335.381,291.941 344.5,296C 315.139,325.695 285.472,355.028 255.5,384C 212.189,422.806 166.522,458.472 118.5,491C 105.485,498.288 92.4851,498.288 79.5,491C 68.8627,481.364 58.5294,471.364 48.5,461C 118.253,431.478 182.92,393.811 242.5,348C 244.824,344.036 245.157,339.87 243.5,335.5 Z"/></g>
<g><path style="opacity:1" fill="#8ece94" d="M 359.5,302.5 C 359.263,306.41 360.096,310.077 362,313.5C 369.271,330.2 380.438,343.7 395.5,354C 401.878,357.926 407.044,356.759 411,350.5C 411.917,341.582 416.751,338.082 425.5,340C 429.696,342.261 433.696,344.761 437.5,347.5C 433.966,352.914 432.633,358.914 433.5,365.5C 428.193,363.712 423.193,361.212 418.5,358C 405.18,354.648 396.847,359.648 393.5,373C 392.5,373.667 391.5,373.667 390.5,373C 367.466,357.409 354.966,335.909 353,308.5C 355.037,306.294 357.203,304.294 359.5,302.5 Z"/></g>
<g><path style="opacity:1" fill="#84c18a" d="M 156.5,334.5 C 148.356,348.17 140.356,362.003 132.5,376C 133.047,376.925 133.713,377.758 134.5,378.5C 149.049,370.729 163.383,362.729 177.5,354.5C 163.374,370.463 149.04,386.296 134.5,402C 117.814,411.344 100.814,420.177 83.5,428.5C 83.1667,428.167 82.8333,427.833 82.5,427.5C 90.4898,410.852 98.9898,394.519 108,378.5C 124.037,363.627 140.204,348.96 156.5,334.5 Z"/></g>
</svg>
