<?xml version="1.0" encoding="UTF-8"?>
<!DOCTYPE svg PUBLIC "-//W3C//DTD SVG 1.1//EN" "http://www.w3.org/Graphics/SVG/1.1/DTD/svg11.dtd">
<svg xmlns="http://www.w3.org/2000/svg" version="1.1" width="512px" height="512px" style="shape-rendering:geometricPrecision; text-rendering:geometricPrecision; image-rendering:optimizeQuality; fill-rule:evenodd; clip-rule:evenodd" xmlns:xlink="http://www.w3.org/1999/xlink">
<g><path style="opacity:0.975" fill="#020201" d="M 246.5,-0.5 C 252.167,-0.5 257.833,-0.5 263.5,-0.5C 294.679,6.17307 315.846,24.5064 327,54.5C 336.085,89.57 326.919,118.737 299.5,142C 309.537,142.204 319.537,142.871 329.5,144C 357.838,154.51 367.672,174.344 359,203.5C 357.545,206.912 355.712,210.079 353.5,213C 379.514,212.549 395.847,224.716 402.5,249.5C 408.842,249.334 415.175,249.5 421.5,250C 429.722,252.936 434.222,258.769 435,267.5C 435.903,280.881 435.57,294.214 434,307.5C 431.727,313.44 427.727,317.773 422,320.5C 420.608,343.57 414.775,365.404 404.5,386C 406.35,388.018 408.35,389.851 410.5,391.5C 418.615,389.611 425.282,385.445 430.5,379C 436.67,375.58 442.67,375.914 448.5,380C 453.655,386.482 460.321,390.482 468.5,392C 491.642,403.299 505.975,421.465 511.5,446.5C 511.5,456.167 511.5,465.833 511.5,475.5C 505.779,496.53 492.113,508.53 470.5,511.5C 468.167,511.5 465.833,511.5 463.5,511.5C 454.503,510.16 446.17,506.827 438.5,501.5C 431.301,507.004 423.301,510.337 414.5,511.5C 411.833,511.5 409.167,511.5 406.5,511.5C 402.48,510.455 398.313,509.455 394,508.5C 389.373,509.555 384.873,510.555 380.5,511.5C 377.833,511.5 375.167,511.5 372.5,511.5C 361.025,510.113 350.691,505.779 341.5,498.5C 332.309,505.779 321.975,510.113 310.5,511.5C 307.833,511.5 305.167,511.5 302.5,511.5C 299.167,510.167 295.833,510.167 292.5,511.5C 242.167,511.5 191.833,511.5 141.5,511.5C 134.471,510.052 129.304,506.052 126,499.5C 124.432,491.579 124.099,483.579 125,475.5C 125.45,473.481 126.283,471.648 127.5,470C 70.4028,449.902 33.5695,410.736 17,352.5C 14.6837,341.935 13.017,331.269 12,320.5C 6.62712,317.294 2.46046,312.961 -0.5,307.5C -0.5,292.5 -0.5,277.5 -0.5,262.5C 1.98203,256.52 6.31536,252.353 12.5,250C 18.8594,249.831 25.1928,249.331 31.5,248.5C 38.7804,224.499 55.1137,212.666 80.5,213C 68.1206,194.165 68.6206,175.665 82,157.5C 88.1556,150.836 95.6556,146.336 104.5,144C 113.819,143.056 123.153,142.223 132.5,141.5C 120.239,122.824 120.739,104.491 134,86.5C 147.269,72.4533 162.935,68.4533 181,74.5C 182.009,76.0249 182.509,77.6916 182.5,79.5C 181.69,82.2702 180.023,84.4369 177.5,86C 159.012,83.978 146.512,91.478 140,108.5C 137.444,124.558 143.61,135.725 158.5,142C 163.201,142.928 167.868,143.928 172.5,145C 175.916,150.464 174.916,154.797 169.5,158C 148.833,158.333 128.167,158.667 107.5,159C 88.287,167.296 82.787,181.129 91,200.5C 97.3958,210.449 106.562,215.283 118.5,215C 123.986,220.081 123.653,224.748 117.5,229C 100.5,229.333 83.5,229.667 66.5,230C 61.9305,231.774 57.9305,234.274 54.5,237.5C 51.4425,240.593 49.1091,244.26 47.5,248.5C 128.165,249.333 208.831,249.833 289.5,250C 293.007,251.33 294.673,253.83 294.5,257.5C 294.256,260.263 292.923,262.429 290.5,264C 199.5,264.333 108.5,264.667 17.5,265C 16.5838,265.374 15.7504,265.874 15,266.5C 14.5002,275.16 14.3336,283.827 14.5,292.5C 14.335,295.85 14.5017,299.183 15,302.5C 15.8333,303.333 16.6667,304.167 17.5,305C 150.5,305.667 283.5,305.667 416.5,305C 417.667,304.5 418.5,303.667 419,302.5C 419.667,290.5 419.667,278.5 419,266.5C 418.25,265.874 417.416,265.374 416.5,265C 384.835,264.5 353.168,264.333 321.5,264.5C 316.068,263.388 314.068,260.054 315.5,254.5C 316.282,252.549 317.616,251.049 319.5,250C 341.841,249.833 364.174,249.333 386.5,248.5C 383.643,239.962 377.976,234.129 369.5,231C 351.886,229.722 334.219,229.055 316.5,229C 310.504,224.701 310.171,220.034 315.5,215C 339.913,212.599 349.747,199.433 345,175.5C 338.402,162.76 327.902,157.093 313.5,158.5C 291.497,158.667 269.497,158.5 247.5,158C 241.347,153.748 241.014,149.081 246.5,144C 274.676,143.344 295.51,130.844 309,106.5C 320.923,77.6127 315.756,52.2794 293.5,30.5C 297.453,51.7748 290.453,68.6082 272.5,81C 268.323,83.0591 263.99,84.7258 259.5,86C 241.5,86.6667 223.5,86.6667 205.5,86C 203.372,84.2082 202.039,82.0416 201.5,79.5C 201.544,75.9103 203.211,73.4103 206.5,72C 223.886,71.9439 241.219,71.2772 258.5,70C 275.804,62.8939 281.97,50.3939 277,32.5C 270.767,20.1223 260.6,13.9556 246.5,14C 241.232,9.17064 241.232,4.33731 246.5,-0.5 Z"/></g>
<g><path style="opacity:1" fill="#fdeab1" d="M 313.5,158.5 C 315.406,197.092 298.073,222.592 261.5,235C 257.781,235.388 254.114,236.055 250.5,237C 185.168,237.5 119.834,237.667 54.5,237.5C 57.9305,234.274 61.9305,231.774 66.5,230C 83.5,229.667 100.5,229.333 117.5,229C 123.653,224.748 123.986,220.081 118.5,215C 106.562,215.283 97.3958,210.449 91,200.5C 82.787,181.129 88.287,167.296 107.5,159C 128.167,158.667 148.833,158.333 169.5,158C 174.916,154.797 175.916,150.464 172.5,145C 167.868,143.928 163.201,142.928 158.5,142C 143.61,135.725 137.444,124.558 140,108.5C 146.512,91.478 159.012,83.978 177.5,86C 180.023,84.4369 181.69,82.2702 182.5,79.5C 188.833,79.5 195.167,79.5 201.5,79.5C 202.039,82.0416 203.372,84.2082 205.5,86C 223.5,86.6667 241.5,86.6667 259.5,86C 263.99,84.7258 268.323,83.0591 272.5,81C 290.453,68.6082 297.453,51.7748 293.5,30.5C 315.756,52.2794 320.923,77.6127 309,106.5C 295.51,130.844 274.676,143.344 246.5,144C 241.014,149.081 241.347,153.748 247.5,158C 269.497,158.5 291.497,158.667 313.5,158.5 Z"/></g>
<g><path style="opacity:1" fill="#fed44f" d="M 313.5,158.5 C 327.902,157.093 338.402,162.76 345,175.5C 349.747,199.433 339.913,212.599 315.5,215C 310.171,220.034 310.504,224.701 316.5,229C 334.219,229.055 351.886,229.722 369.5,231C 377.976,234.129 383.643,239.962 386.5,248.5C 364.174,249.333 341.841,249.833 319.5,250C 317.616,251.049 316.282,252.549 315.5,254.5C 314.596,255.209 314.263,256.209 314.5,257.5C 307.833,257.5 301.167,257.5 294.5,257.5C 294.673,253.83 293.007,251.33 289.5,250C 208.831,249.833 128.165,249.333 47.5,248.5C 49.1091,244.26 51.4425,240.593 54.5,237.5C 119.834,237.667 185.168,237.5 250.5,237C 254.114,236.055 257.781,235.388 261.5,235C 298.073,222.592 315.406,197.092 313.5,158.5 Z"/></g>
<g><path style="opacity:1" fill="#dbe5ea" d="M 315.5,254.5 C 314.068,260.054 316.068,263.388 321.5,264.5C 343.004,265.167 364.67,265.833 386.5,266.5C 383.045,279.788 374.712,288.288 361.5,292C 245.834,292.5 130.167,292.667 14.5,292.5C 14.3336,283.827 14.5002,275.16 15,266.5C 15.7504,265.874 16.5838,265.374 17.5,265C 108.5,264.667 199.5,264.333 290.5,264C 292.923,262.429 294.256,260.263 294.5,257.5C 301.167,257.5 307.833,257.5 314.5,257.5C 314.263,256.209 314.596,255.209 315.5,254.5 Z"/></g>
<g><path style="opacity:1" fill="#b5bfc8" d="M 321.5,264.5 C 353.168,264.333 384.835,264.5 416.5,265C 417.416,265.374 418.25,265.874 419,266.5C 419.667,278.5 419.667,290.5 419,302.5C 418.5,303.667 417.667,304.5 416.5,305C 283.5,305.667 150.5,305.667 17.5,305C 16.6667,304.167 15.8333,303.333 15,302.5C 14.5017,299.183 14.335,295.85 14.5,292.5C 130.167,292.667 245.834,292.5 361.5,292C 374.712,288.288 383.045,279.788 386.5,266.5C 364.67,265.833 343.004,265.167 321.5,264.5 Z"/></g>
<g><path style="opacity:1" fill="#484c4d" d="M 406.5,320.5 C 394.5,320.5 382.5,320.5 370.5,320.5C 256.5,320.5 142.5,320.5 28.5,320.5C 28.5,321.833 28.5,323.167 28.5,324.5C 27.5489,323.081 27.2155,321.415 27.5,319.5C 154.001,319.167 280.334,319.5 406.5,320.5 Z"/></g>
<g><path style="opacity:1" fill="#dbe5ea" d="M 370.5,320.5 C 368.665,333.343 364.998,345.676 359.5,357.5C 359.043,358.298 358.376,358.631 357.5,358.5C 354.28,355.117 350.614,352.284 346.5,350C 342.833,349.333 339.167,349.333 335.5,350C 330.58,352.916 326.247,356.582 322.5,361C 312.58,364.044 303.413,368.544 295,374.5C 294.503,377.146 294.336,379.813 294.5,382.5C 288.833,386.833 283.833,391.833 279.5,397.5C 273.368,394.961 268.868,396.627 266,402.5C 258.083,415.414 253.917,429.414 253.5,444.5C 252.833,444.5 252.5,444.833 252.5,445.5C 246.446,445.877 240.446,446.71 234.5,448C 195.168,448.5 155.835,448.667 116.5,448.5C 71.4378,427.591 42.9378,392.924 31,344.5C 29.9314,337.854 29.0981,331.188 28.5,324.5C 28.5,323.167 28.5,321.833 28.5,320.5C 142.5,320.5 256.5,320.5 370.5,320.5 Z"/></g>
<g><path style="opacity:1" fill="#b7c1cb" d="M 370.5,320.5 C 382.5,320.5 394.5,320.5 406.5,320.5C 404.802,339.959 399.968,358.625 392,376.5C 380.671,370.014 369.171,364.014 357.5,358.5C 358.376,358.631 359.043,358.298 359.5,357.5C 364.998,345.676 368.665,333.343 370.5,320.5 Z"/></g>
<g><path style="opacity:1" fill="#fab44b" d="M 338.5,367.5 C 359.08,378.077 372.746,394.411 379.5,416.5C 366.773,436.194 363.106,457.528 368.5,480.5C 364.304,483.759 359.97,486.759 355.5,489.5C 353.855,488.521 352.521,487.188 351.5,485.5C 357.343,475.451 359.51,464.784 358,453.5C 354.341,449.885 350.341,449.552 346,452.5C 345.487,466.727 339.987,478.56 329.5,488C 307.039,501.267 288.206,497.433 273,476.5C 269.121,468.095 267.621,459.261 268.5,450C 267.8,434.099 271.967,419.599 281,406.5C 281.788,403.228 281.288,400.228 279.5,397.5C 283.833,391.833 288.833,386.833 294.5,382.5C 297.34,385.143 300.673,385.976 304.5,385C 313.417,380.806 322.417,376.806 331.5,373C 333.501,370.675 335.834,368.842 338.5,367.5 Z"/></g>
<g><path style="opacity:1" fill="#f4970f" d="M 379.5,416.5 C 372.746,394.411 359.08,378.077 338.5,367.5C 339.254,365.554 340.588,364.721 342.5,365C 345.916,369.087 349.916,372.42 354.5,375C 370.685,379.755 384.685,388.089 396.5,400C 390.303,405.031 384.636,410.531 379.5,416.5 Z"/></g>
<g><path style="opacity:1" fill="#f7980f" d="M 451.5,483.5 C 456.728,479.398 460.228,474.065 462,467.5C 468.253,438.081 459.753,414.081 436.5,395.5C 437.314,393.727 438.648,393.227 440.5,394C 442.539,396.374 444.872,398.374 447.5,400C 483.282,411.068 499.449,435.235 496,472.5C 489.946,489.882 477.78,497.382 459.5,495C 455.637,493.819 452.137,491.986 449,489.5C 449.451,487.48 450.284,485.48 451.5,483.5 Z"/></g>
<g><path style="opacity:1" fill="#fab34b" d="M 436.5,395.5 C 459.753,414.081 468.253,438.081 462,467.5C 460.228,474.065 456.728,479.398 451.5,483.5C 454.1,477.066 454.934,470.399 454,463.5C 453.535,462.069 452.701,460.903 451.5,460C 447.409,458.773 443.909,459.606 441,462.5C 439.261,485.913 426.761,496.747 403.5,495C 392.333,491.833 385.167,484.667 382,473.5C 377.739,435.523 393.905,411.023 430.5,400C 432.66,398.668 434.66,397.168 436.5,395.5 Z"/></g>
<g><path style="opacity:1" fill="#b8c2cc" d="M 252.5,445.5 C 252.5,450.5 252.5,455.5 252.5,460.5C 222.5,460.5 192.5,460.5 162.5,460.5C 146.33,459.292 130.997,455.292 116.5,448.5C 155.835,448.667 195.168,448.5 234.5,448C 240.446,446.71 246.446,445.877 252.5,445.5 Z"/></g>
<g><path style="opacity:1" fill="#82888f" d="M 253.5,444.5 C 253.5,450.167 253.5,455.833 253.5,461.5C 222.995,461.831 192.662,461.498 162.5,460.5C 192.5,460.5 222.5,460.5 252.5,460.5C 252.5,455.5 252.5,450.5 252.5,445.5C 252.5,444.833 252.833,444.5 253.5,444.5 Z"/></g>
<g><path style="opacity:1" fill="#dae4e9" d="M 257.5,479.5 C 257.426,481.411 256.426,482.578 254.5,483C 216.501,483.5 178.501,483.667 140.5,483.5C 140.244,481.208 140.577,479.041 141.5,477C 179.833,476.333 218.167,476.333 256.5,477C 257.252,477.671 257.586,478.504 257.5,479.5 Z"/></g>
<g><path style="opacity:1" fill="#f1940f" d="M 368.5,480.5 C 370.252,485.837 372.919,490.67 376.5,495C 368.775,495.819 361.775,493.986 355.5,489.5C 359.97,486.759 364.304,483.759 368.5,480.5 Z"/></g>
<g><path style="opacity:1" fill="#b8c2cc" d="M 257.5,479.5 C 260.434,485.033 264.1,490.033 268.5,494.5C 227.003,495.499 185.337,495.832 143.5,495.5C 142.504,495.586 141.671,495.252 141,494.5C 140.501,490.848 140.335,487.182 140.5,483.5C 178.501,483.667 216.501,483.5 254.5,483C 256.426,482.578 257.426,481.411 257.5,479.5 Z"/></g>
<g><path style="opacity:1" fill="#191a1b" d="M 268.5,494.5 C 269.043,494.56 269.376,494.893 269.5,495.5C 227.335,496.831 185.335,496.831 143.5,495.5C 185.337,495.832 227.003,495.499 268.5,494.5 Z"/></g>
</svg>
