<?xml version="1.0" encoding="UTF-8"?>
<!DOCTYPE svg PUBLIC "-//W3C//DTD SVG 1.1//EN" "http://www.w3.org/Graphics/SVG/1.1/DTD/svg11.dtd">
<svg xmlns="http://www.w3.org/2000/svg" version="1.1" width="512px" height="512px" style="shape-rendering:geometricPrecision; text-rendering:geometricPrecision; image-rendering:optimizeQuality; fill-rule:evenodd; clip-rule:evenodd" xmlns:xlink="http://www.w3.org/1999/xlink">
<g><path style="opacity:0.977" fill="#151516" d="M 330.5,57.5 C 333.97,56.8748 336.804,57.8748 339,60.5C 344.135,69.1033 348.468,78.1033 352,87.5C 353.976,94.3787 355.309,101.379 356,108.5C 415.897,96.4576 460.564,117.124 490,170.5C 504.17,203.441 505.17,236.775 493,270.5C 474.293,312.363 442.126,336.03 396.5,341.5C 393.424,385.501 372.757,418.334 334.5,440C 286.594,462.024 241.594,457.357 199.5,426C 185.369,413.877 174.535,399.377 167,382.5C 125.045,398.554 86.2117,393.054 50.5,366C 14.6622,332.476 2.16215,291.643 13,243.5C 24.0476,205.119 47.8809,177.952 84.5,162C 104.269,154.733 124.602,152.566 145.5,155.5C 145.333,136.83 145.5,118.164 146,99.5C 146.273,97.6711 147.107,96.1711 148.5,95C 171.5,94.3333 194.5,94.3333 217.5,95C 241.088,98.6986 259.254,110.532 272,130.5C 274.395,106.2 285.229,86.7003 304.5,72C 313.068,66.8854 321.734,62.0521 330.5,57.5 Z"/></g>
<g><path style="opacity:1" fill="#66a628" d="M 338.5,87.5 C 336.862,111.277 326.862,130.777 308.5,146C 302.468,150.516 295.802,153.683 288.5,155.5C 279.68,125.128 288.013,100.295 313.5,81C 318.781,77.7762 324.281,74.9428 330,72.5C 333.859,76.8814 336.693,81.8814 338.5,87.5 Z"/></g>
<g><path style="opacity:1" fill="#8ad240" d="M 338.5,87.5 C 349.073,118.037 342.073,143.87 317.5,165C 311.383,169.143 304.883,172.643 298,175.5C 293.499,169.496 290.332,162.829 288.5,155.5C 295.802,153.683 302.468,150.516 308.5,146C 326.862,130.777 336.862,111.277 338.5,87.5 Z"/></g>
<g><path style="opacity:1" fill="#8cd440" d="M 167.5,106.5 C 164.51,150.066 183.844,177.899 225.5,190C 240.83,190.5 256.163,190.667 271.5,190.5C 271.5,200.167 271.5,209.833 271.5,219.5C 251.831,219.667 232.164,219.5 212.5,219C 185.614,212.447 168.114,195.947 160,169.5C 158.571,148.54 158.071,127.54 158.5,106.5C 161.5,106.5 164.5,106.5 167.5,106.5 Z"/></g>
<g><path style="opacity:1" fill="#66a728" d="M 167.5,106.5 C 184.875,106.088 202.209,106.588 219.5,108C 247.52,115.354 264.687,133.187 271,161.5C 271.5,171.161 271.666,180.828 271.5,190.5C 256.163,190.667 240.83,190.5 225.5,190C 183.844,177.899 164.51,150.066 167.5,106.5 Z"/></g>
<g><path style="opacity:1" fill="#524f8a" d="M 411.5,120.5 C 372.063,128.754 344.896,151.754 330,189.5C 324.898,203.382 322.731,217.715 323.5,232.5C 310.605,227.609 297.272,224.943 283.5,224.5C 283.118,211.657 285.285,199.324 290,187.5C 291.525,190.087 293.692,190.92 296.5,190C 313.149,183.675 327.316,173.842 339,160.5C 347.382,148.566 352.882,135.399 355.5,121C 374.247,115.27 392.914,115.104 411.5,120.5 Z"/></g>
<g><path style="opacity:1" fill="#6b62b4" d="M 411.5,120.5 C 455.7,134.542 481.533,164.542 489,210.5C 492.539,252.573 477.705,286.406 444.5,312C 429.763,322.19 413.429,327.69 395.5,328.5C 389.39,283.06 365.39,251.06 323.5,232.5C 322.731,217.715 324.898,203.382 330,189.5C 344.896,151.754 372.063,128.754 411.5,120.5 Z"/></g>
<g><path style="opacity:1" fill="#524f8b" d="M 148.5,171.5 C 113.185,180.014 87.5188,200.68 71.5,233.5C 71.8627,234.183 72.1961,234.85 72.5,235.5C 68.2793,232.6 64.446,232.933 61,236.5C 61.1783,242.057 62.0117,247.557 63.5,253C 62.9933,262.187 58.4933,268.687 50,272.5C 47.9478,275.46 48.1145,278.293 50.5,281C 54.5313,282.491 58.5313,283.657 62.5,284.5C 62.583,325.329 79.9163,356.663 114.5,378.5C 75.8094,374.235 47.976,354.568 31,319.5C 11.2605,266.414 23.0939,221.914 66.5,186C 90.9904,168.568 117.99,162.902 147.5,169C 148.252,169.671 148.586,170.504 148.5,171.5 Z"/></g>
<g><path style="opacity:1" fill="#161617" d="M 409.5,169.5 C 415.149,169.963 418.982,172.963 421,178.5C 424.346,183.505 429.012,186.172 435,186.5C 439.326,185.503 443.659,184.503 448,183.5C 451.278,184.277 453.445,186.277 454.5,189.5C 453.196,193.44 451.363,197.107 449,200.5C 446.698,210.23 449.698,217.897 458,223.5C 460.623,227.969 459.79,231.469 455.5,234C 439.491,233 430.324,240.5 428,256.5C 425,259.167 422,259.167 419,256.5C 412.485,242.662 401.985,238.329 387.5,243.5C 383.304,243.81 381.304,241.81 381.5,237.5C 383.304,233.217 385.137,228.884 387,224.5C 387.739,215.642 384.406,208.642 377,203.5C 374.636,199.454 375.47,196.287 379.5,194C 394.872,195.416 403.705,188.583 406,173.5C 407.032,171.973 408.199,170.64 409.5,169.5 Z"/></g>
<g><path style="opacity:1" fill="#6b62b4" d="M 148.5,171.5 C 160.394,210.382 186.727,230.382 227.5,231.5C 227.67,232.822 227.337,233.989 226.5,235C 178.238,259.678 156.071,299.178 160,353.5C 161.337,359.194 162.337,364.861 163,370.5C 147.427,377.215 131.26,379.881 114.5,378.5C 79.9163,356.663 62.583,325.329 62.5,284.5C 66.3319,285.818 69.4986,288.152 72,291.5C 73.6177,297.74 75.451,303.907 77.5,310C 79.8333,310.667 82.1667,310.667 84.5,310C 88.6571,304.832 93.6571,300.832 99.5,298C 105.619,297.215 111.286,298.549 116.5,302C 121.681,302.989 124.348,300.822 124.5,295.5C 123.5,290.833 122.5,286.167 121.5,281.5C 121.594,279.077 122.094,276.744 123,274.5C 126.667,269.5 131,265.167 136,261.5C 137.041,258.364 136.207,255.864 133.5,254C 117.799,253.3 109.965,245.133 110,229.5C 108.517,225.335 105.684,223.835 101.5,225C 97.3429,230.168 92.3429,234.168 86.5,237C 81.6099,237.966 76.9432,237.466 72.5,235.5C 72.1961,234.85 71.8627,234.183 71.5,233.5C 87.5188,200.68 113.185,180.014 148.5,171.5 Z"/></g>
<g><path style="opacity:1" fill="#2f2f50" d="M 413.5,189.5 C 420.446,195.133 428.446,198.3 437.5,199C 435.68,207.146 436.68,214.979 440.5,222.5C 432.358,225.806 425.858,231.14 421,238.5C 414.714,232.46 407.214,229.46 398.5,229.5C 398.666,223.824 398.499,218.157 398,212.5C 397.361,209.888 396.194,207.554 394.5,205.5C 402.639,202.365 408.973,197.031 413.5,189.5 Z"/></g>
<g><path style="opacity:1" fill="#161617" d="M 62.5,284.5 C 58.5313,283.657 54.5313,282.491 50.5,281C 48.1145,278.293 47.9478,275.46 50,272.5C 58.4933,268.687 62.9933,262.187 63.5,253C 62.0117,247.557 61.1783,242.057 61,236.5C 64.446,232.933 68.2793,232.6 72.5,235.5C 76.9432,237.466 81.6099,237.966 86.5,237C 92.3429,234.168 97.3429,230.168 101.5,225C 105.684,223.835 108.517,225.335 110,229.5C 109.965,245.133 117.799,253.3 133.5,254C 136.207,255.864 137.041,258.364 136,261.5C 131,265.167 126.667,269.5 123,274.5C 122.094,276.744 121.594,279.077 121.5,281.5C 122.5,286.167 123.5,290.833 124.5,295.5C 124.348,300.822 121.681,302.989 116.5,302C 111.286,298.549 105.619,297.215 99.5,298C 93.6571,300.832 88.6571,304.832 84.5,310C 82.1667,310.667 79.8333,310.667 77.5,310C 75.451,303.907 73.6177,297.74 72,291.5C 69.4986,288.152 66.3319,285.818 62.5,284.5 Z"/></g>
<g><path style="opacity:1" fill="#524f8b" d="M 303.5,239.5 C 256.779,248.38 226.613,275.713 213,321.5C 204.712,373.209 222.546,412.875 266.5,440.5C 219.449,434.28 188.615,408.613 174,363.5C 164.989,307.352 186.156,267.185 237.5,243C 259.296,234.644 281.296,233.477 303.5,239.5 Z"/></g>
<g><path style="opacity:1" fill="#6b62b4" d="M 303.5,239.5 C 344.663,249.829 370.829,275.496 382,316.5C 389.161,360.993 374.661,396.493 338.5,423C 316.387,437.316 292.387,443.149 266.5,440.5C 222.546,412.875 204.712,373.209 213,321.5C 226.613,275.713 256.779,248.38 303.5,239.5 Z"/></g>
<g><path style="opacity:1" fill="#2f2f50" d="M 99.5,243.5 C 101.123,247.4 103.289,251.067 106,254.5C 109.358,257.358 112.858,260.025 116.5,262.5C 111.14,269.247 108.806,276.914 109.5,285.5C 100.701,284.435 92.7012,286.435 85.5,291.5C 81.7536,283.586 76.0869,277.42 68.5,273C 74.0068,266.145 76.3401,258.312 75.5,249.5C 79.8461,249.666 84.1794,249.499 88.5,249C 92.7764,248.195 96.443,246.362 99.5,243.5 Z"/></g>
<g><path style="opacity:1" fill="#161617" d="M 260.5,330.5 C 265.703,331.84 270.37,334.34 274.5,338C 284.168,340.557 292.501,338.223 299.5,331C 302.815,330.295 305.315,331.461 307,334.5C 304.311,344.882 306.811,353.716 314.5,361C 318.609,362.801 322.442,364.968 326,367.5C 326.667,369.5 326.667,371.5 326,373.5C 322.442,376.032 318.609,378.199 314.5,380C 306.942,386.011 304.609,393.678 307.5,403C 307.586,408.584 304.92,410.917 299.5,410C 294.399,405.283 288.399,402.45 281.5,401.5C 275.037,402.731 269.37,405.565 264.5,410C 261.211,410.746 258.711,409.58 257,406.5C 256.464,402.151 256.631,397.818 257.5,393.5C 257.033,387.738 254.367,383.238 249.5,380C 245.207,378.576 241.374,376.409 238,373.5C 237.333,371.5 237.333,369.5 238,367.5C 241.558,364.968 245.391,362.801 249.5,361C 254.952,357.262 257.619,352.096 257.5,345.5C 255.188,339.679 256.188,334.679 260.5,330.5 Z"/></g>
<g><path style="opacity:1" fill="#2f2f50" d="M 269.5,348.5 C 277.749,352.316 286.083,352.316 294.5,348.5C 295.892,357.286 299.892,364.62 306.5,370.5C 300.01,376.477 295.843,383.81 294,392.5C 285.983,388.504 277.983,388.504 270,392.5C 268.842,383.847 264.842,376.847 258,371.5C 257.333,370.833 257.333,370.167 258,369.5C 264.935,364.195 268.768,357.195 269.5,348.5 Z"/></g>
</svg>
