<?xml version="1.0" encoding="UTF-8"?>
<!DOCTYPE svg PUBLIC "-//W3C//DTD SVG 1.1//EN" "http://www.w3.org/Graphics/SVG/1.1/DTD/svg11.dtd">
<svg xmlns="http://www.w3.org/2000/svg" version="1.1" width="512px" height="512px" style="shape-rendering:geometricPrecision; text-rendering:geometricPrecision; image-rendering:optimizeQuality; fill-rule:evenodd; clip-rule:evenodd" xmlns:xlink="http://www.w3.org/1999/xlink">
<g><path style="opacity:0.972" fill="#010201" d="M 128.5,-0.5 C 133.167,-0.5 137.833,-0.5 142.5,-0.5C 148.907,3.38015 155.241,7.54682 161.5,12C 164.303,12.755 166.97,12.4217 169.5,11C 175.427,6.87806 181.427,3.04473 187.5,-0.5C 191.833,-0.5 196.167,-0.5 200.5,-0.5C 206.573,3.04473 212.573,6.87806 218.5,11C 221.03,12.4217 223.697,12.755 226.5,12C 232.759,7.54682 239.093,3.38015 245.5,-0.5C 250.167,-0.5 254.833,-0.5 259.5,-0.5C 266.527,4.34711 273.861,8.68044 281.5,12.5C 283.299,12.423 284.966,11.923 286.5,11C 291.887,6.64848 297.553,2.81514 303.5,-0.5C 308.167,-0.5 312.833,-0.5 317.5,-0.5C 325.093,3.90754 332.593,8.57421 340,13.5C 347.407,8.57421 354.907,3.90754 362.5,-0.5C 367.167,-0.5 371.833,-0.5 376.5,-0.5C 382.447,2.81514 388.113,6.64848 393.5,11C 396.833,13 400.167,13 403.5,11C 407.156,7.83718 411.156,5.17051 415.5,3C 421.378,1.34684 426.212,2.84684 430,7.5C 450.239,106.985 461.406,207.485 463.5,309C 464.356,358.902 458.856,408.068 447,456.5C 441.341,481.215 427.507,499.548 405.5,511.5C 401.167,511.5 396.833,511.5 392.5,511.5C 386.089,508.452 380.089,504.619 374.5,500C 371.167,498 367.833,498 364.5,500C 358.573,504.122 352.573,507.955 346.5,511.5C 342.167,511.5 337.833,511.5 333.5,511.5C 325.928,507.124 318.428,502.457 311,497.5C 303.352,502.066 295.852,506.733 288.5,511.5C 283.833,511.5 279.167,511.5 274.5,511.5C 268.553,508.185 262.887,504.352 257.5,500C 254.167,498 250.833,498 247.5,500C 242.113,504.352 236.447,508.185 230.5,511.5C 225.833,511.5 221.167,511.5 216.5,511.5C 208.907,507.092 201.407,502.426 194,497.5C 186.593,502.426 179.093,507.092 171.5,511.5C 166.833,511.5 162.167,511.5 157.5,511.5C 151.553,508.185 145.887,504.352 140.5,500C 137.167,498 133.833,498 130.5,500C 125.113,504.352 119.447,508.185 113.5,511.5C 108.833,511.5 104.167,511.5 99.5,511.5C 83.5762,502.388 72.4095,489.055 66,471.5C 52.8047,412.074 46.638,351.907 47.5,291C 48.5801,195.699 57.7468,101.199 75,7.5C 78.7885,2.84684 83.6218,1.34684 89.5,3C 93.5,5.66667 97.5,8.33333 101.5,11C 104.833,13 108.167,13 111.5,11C 116.887,6.64848 122.553,2.81514 128.5,-0.5 Z M 294.5,48.5 C 298.182,48.3347 301.848,48.5014 305.5,49C 306.737,49.2321 307.737,49.7321 308.5,50.5C 307.366,52.9664 307.199,55.633 308,58.5C 314.345,66.9591 312.845,73.7924 303.5,79C 271.5,79.6667 239.5,79.6667 207.5,79C 196.877,72.5228 196.21,65.1894 205.5,57C 233.772,55.6913 262.105,55.0246 290.5,55C 293.238,53.6884 294.572,51.5217 294.5,48.5 Z"/></g>
<g><path style="opacity:1" fill="#6cc629" d="M 431.5,107.5 C 320.833,107.5 210.167,107.5 99.5,107.5C 102.587,81.1348 105.921,54.8015 109.5,28.5C 110.791,28.7373 111.791,28.404 112.5,27.5C 120.42,23.2907 128.253,18.9574 136,14.5C 141.996,17.1513 147.496,20.6513 152.5,25C 158.793,28.9523 165.46,29.619 172.5,27C 179.646,22.6811 186.813,18.5144 194,14.5C 199.656,16.8131 204.823,19.9798 209.5,24C 217.113,29.1824 225.113,29.849 233.5,26C 239.44,21.711 245.607,17.8776 252,14.5C 258.186,17.3458 264.019,20.8458 269.5,25C 275.793,28.9523 282.46,29.619 289.5,27C 296.446,22.3727 303.613,18.206 311,14.5C 317.393,17.8776 323.56,21.711 329.5,26C 336.459,29.154 343.459,29.154 350.5,26C 356.44,21.711 362.607,17.8776 369,14.5C 376.854,18.8473 384.687,23.3473 392.5,28C 401.765,29.4056 409.765,26.9056 416.5,20.5C 422.889,49.2163 427.889,78.2163 431.5,107.5 Z M 294.5,48.5 C 298.182,48.3347 301.848,48.5014 305.5,49C 306.737,49.2321 307.737,49.7321 308.5,50.5C 307.366,52.9664 307.199,55.633 308,58.5C 314.345,66.9591 312.845,73.7924 303.5,79C 271.5,79.6667 239.5,79.6667 207.5,79C 196.877,72.5228 196.21,65.1894 205.5,57C 233.772,55.6913 262.105,55.0246 290.5,55C 293.238,53.6884 294.572,51.5217 294.5,48.5 Z"/></g>
<g><path style="opacity:1" fill="#59a322" d="M 112.5,27.5 C 111.791,28.404 110.791,28.7373 109.5,28.5C 105.921,54.8015 102.587,81.1348 99.5,107.5C 210.167,107.5 320.833,107.5 431.5,107.5C 313.001,108.5 194.335,108.833 75.5,108.5C 78.5976,79.3869 82.5976,50.3869 87.5,21.5C 91.8956,23.359 96.2289,25.5256 100.5,28C 104.524,28.4973 108.524,28.3307 112.5,27.5 Z"/></g>
<g><path style="opacity:0.965" fill="#000100" d="M 294.5,48.5 C 294.572,51.5217 293.238,53.6884 290.5,55C 262.105,55.0246 233.772,55.6913 205.5,57C 196.21,65.1894 196.877,72.5228 207.5,79C 239.5,79.6667 271.5,79.6667 303.5,79C 312.845,73.7924 314.345,66.9591 308,58.5C 307.199,55.633 307.366,52.9664 308.5,50.5C 312.052,47.1603 316.052,46.6603 320.5,49C 330.852,63.7653 329.519,77.432 316.5,90C 312.186,92.6601 307.519,94.3268 302.5,95C 270.167,95.6667 237.833,95.6667 205.5,95C 187.619,89.0733 180.785,76.9066 185,58.5C 188.26,49.5725 194.427,43.7392 203.5,41C 232.5,40.3333 261.5,40.3333 290.5,41C 293.359,42.6909 294.692,45.1909 294.5,48.5 Z M 294.5,48.5 C 298.182,48.3347 301.848,48.5014 305.5,49C 306.737,49.2321 307.737,49.7321 308.5,50.5C 307.366,52.9664 307.199,55.633 308,58.5C 314.345,66.9591 312.845,73.7924 303.5,79C 271.5,79.6667 239.5,79.6667 207.5,79C 196.877,72.5228 196.21,65.1894 205.5,57C 233.772,55.6913 262.105,55.0246 290.5,55C 293.238,53.6884 294.572,51.5217 294.5,48.5 Z"/></g>
<g><path style="opacity:1" fill="#58a7e3" d="M 97.5,123.5 C 96.3815,136.14 95.3815,148.806 94.5,161.5C 94.502,164.686 94.8353,167.686 95.5,170.5C 67.2219,206.857 61.7219,246.523 79,289.5C 82.2616,296.571 86.095,303.238 90.5,309.5C 89.8343,313.486 89.501,317.653 89.5,322C 90.3265,366.937 94.9932,411.437 103.5,455.5C 108.032,455.182 112.366,455.515 116.5,456.5C 103.816,456.832 91.1492,456.499 78.5,455.5C 71.7066,422.487 67.2066,389.154 65,355.5C 61.5887,278.626 64.2554,201.959 73,125.5C 80.8942,123.551 89.0608,122.884 97.5,123.5 Z"/></g>
<g><path style="opacity:1" fill="#77b7e9" d="M 97.5,123.5 C 209.833,123.5 322.167,123.5 434.5,123.5C 438.795,163.455 442.629,203.455 446,243.5C 448.57,291.892 447.903,340.226 444,388.5C 441.608,411.295 437.108,433.629 430.5,455.5C 406.328,455.831 382.328,455.498 358.5,454.5C 365.103,453.23 368.436,449.23 368.5,442.5C 364.837,421.343 352.837,407.509 332.5,401C 326.388,400.091 320.388,400.424 314.5,402C 310.281,405.602 308.781,410.102 310,415.5C 315.856,439.532 331.022,452.532 355.5,454.5C 285.5,455.167 215.5,455.833 145.5,456.5C 141.32,457.01 139.32,459.344 139.5,463.5C 134.167,463.5 128.833,463.5 123.5,463.5C 122.833,459.5 120.5,457.167 116.5,456.5C 112.366,455.515 108.032,455.182 103.5,455.5C 94.9932,411.437 90.3265,366.937 89.5,322C 89.501,317.653 89.8343,313.486 90.5,309.5C 122.943,350.855 164.943,365.355 216.5,353C 268.423,334.558 295.756,297.724 298.5,242.5C 296.891,199.437 277.891,166.603 241.5,144C 195.432,120.186 151.765,123.853 110.5,155C 105.297,160.035 100.297,165.202 95.5,170.5C 94.8353,167.686 94.502,164.686 94.5,161.5C 95.3815,148.806 96.3815,136.14 97.5,123.5 Z"/></g>
<g><path style="opacity:1" fill="#030403" d="M 90.5,309.5 C 86.095,303.238 82.2616,296.571 79,289.5C 61.7219,246.523 67.2219,206.857 95.5,170.5C 100.297,165.202 105.297,160.035 110.5,155C 151.765,123.853 195.432,120.186 241.5,144C 277.891,166.603 296.891,199.437 298.5,242.5C 295.756,297.724 268.423,334.558 216.5,353C 164.943,365.355 122.943,350.855 90.5,309.5 Z"/></g>
<g><path style="opacity:1" fill="#fbd642" d="M 172.5,143.5 C 224.111,142.034 259.611,165.034 279,212.5C 290.917,260.76 276.751,299.26 236.5,328C 187.758,353.404 144.592,346.238 107,306.5C 80.8149,271.23 77.4816,233.897 97,194.5C 114.349,165.91 139.516,148.91 172.5,143.5 Z"/></g>
<g><path style="opacity:1" fill="#030200" d="M 248.5,206.5 C 245.416,207.984 242.416,207.818 239.5,206C 227.864,189.849 212.197,180.349 192.5,177.5C 186.833,176.167 181.167,176.167 175.5,177.5C 150.261,181.383 132.427,195.05 122,218.5C 111.215,254.157 121.382,281.99 152.5,302C 160.035,306.012 168.035,308.512 176.5,309.5C 176.666,304.489 176.499,299.489 176,294.5C 167.953,299.62 159.787,299.787 151.5,295C 141.618,289.301 134.951,281.134 131.5,270.5C 131.279,267.209 132.613,264.709 135.5,263C 141.627,260.589 147.96,258.922 154.5,258C 146.877,249.928 142.71,240.428 142,229.5C 143.167,227 145,225.167 147.5,224C 154.941,223.152 162.274,223.652 169.5,225.5C 169.833,225.167 170.167,224.833 170.5,224.5C 165.232,216.52 164.065,207.853 167,198.5C 169.935,192.573 173.268,186.906 177,181.5C 178.734,179.549 180.901,178.549 183.5,178.5C 183.833,178.5 184.167,178.5 184.5,178.5C 186.991,178.829 189.157,179.829 191,181.5C 194.732,186.906 198.065,192.573 201,198.5C 203.935,207.853 202.768,216.52 197.5,224.5C 198.79,225.408 200.123,225.241 201.5,224C 208.582,223.116 215.582,223.449 222.5,225C 226.13,228.05 227.297,231.883 226,236.5C 223.235,244.536 219.069,251.703 213.5,258C 219.799,259.492 226.132,261.159 232.5,263C 236.327,266.308 237.494,270.474 236,275.5C 230.833,283.333 224.333,289.833 216.5,295C 208.157,299.759 199.99,299.592 192,294.5C 191.171,299.533 191.338,304.533 192.5,309.5C 224.416,303.417 243.583,284.417 250,252.5C 250.315,242.821 250.315,233.155 250,223.5C 252.196,220.875 255.03,219.875 258.5,220.5C 261.091,221.254 262.924,222.921 264,225.5C 269.96,267.751 254.127,298.584 216.5,318C 175.754,332.414 142.254,322.581 116,288.5C 92.3448,244.909 99.5115,207.409 137.5,176C 166.177,157.827 195.51,156.827 225.5,173C 235.677,179.512 244.177,187.678 251,197.5C 251.869,200.993 251.036,203.993 248.5,206.5 Z"/></g>
<g><path style="opacity:1" fill="#8a6f00" d="M 175.5,177.5 C 181.167,176.167 186.833,176.167 192.5,177.5C 189.615,177.194 186.948,177.527 184.5,178.5C 184.167,178.5 183.833,178.5 183.5,178.5C 181.052,177.527 178.385,177.194 175.5,177.5 Z"/></g>
<g><path style="opacity:1" fill="#d8ae00" d="M 175.5,177.5 C 178.385,177.194 181.052,177.527 183.5,178.5C 180.901,178.549 178.734,179.549 177,181.5C 173.268,186.906 169.935,192.573 167,198.5C 164.065,207.853 165.232,216.52 170.5,224.5C 170.167,224.833 169.833,225.167 169.5,225.5C 162.274,223.652 154.941,223.152 147.5,224C 145,225.167 143.167,227 142,229.5C 142.71,240.428 146.877,249.928 154.5,258C 147.96,258.922 141.627,260.589 135.5,263C 132.613,264.709 131.279,267.209 131.5,270.5C 134.951,281.134 141.618,289.301 151.5,295C 159.787,299.787 167.953,299.62 176,294.5C 176.499,299.489 176.666,304.489 176.5,309.5C 168.035,308.512 160.035,306.012 152.5,302C 121.382,281.99 111.215,254.157 122,218.5C 132.427,195.05 150.261,181.383 175.5,177.5 Z"/></g>
<g><path style="opacity:1" fill="#d8ae00" d="M 184.5,178.5 C 186.948,177.527 189.615,177.194 192.5,177.5C 212.197,180.349 227.864,189.849 239.5,206C 242.416,207.818 245.416,207.984 248.5,206.5C 251.003,210.507 252.67,214.84 253.5,219.5C 255.415,219.216 257.081,219.549 258.5,220.5C 255.03,219.875 252.196,220.875 250,223.5C 250.315,233.155 250.315,242.821 250,252.5C 243.583,284.417 224.416,303.417 192.5,309.5C 191.338,304.533 191.171,299.533 192,294.5C 199.99,299.592 208.157,299.759 216.5,295C 224.333,289.833 230.833,283.333 236,275.5C 237.494,270.474 236.327,266.308 232.5,263C 226.132,261.159 219.799,259.492 213.5,258C 219.069,251.703 223.235,244.536 226,236.5C 227.297,231.883 226.13,228.05 222.5,225C 215.582,223.449 208.582,223.116 201.5,224C 200.123,225.241 198.79,225.408 197.5,224.5C 202.768,216.52 203.935,207.853 201,198.5C 198.065,192.573 194.732,186.906 191,181.5C 189.157,179.829 186.991,178.829 184.5,178.5 Z"/></g>
<g><path style="opacity:1" fill="#d4aa00" d="M 183.5,198.5 C 187.157,202.813 188.324,207.813 187,213.5C 182.393,216.272 180.226,214.772 180.5,209C 180.597,205.212 181.597,201.712 183.5,198.5 Z"/></g>
<g><path style="opacity:1" fill="#020304" d="M 365.5,222.5 C 370.377,221.812 374.71,222.979 378.5,226C 395.44,240.424 400.273,258.258 393,279.5C 390.533,290.814 384.033,294.314 373.5,290C 353.51,273.202 348.677,252.702 359,228.5C 361.063,226.266 363.229,224.266 365.5,222.5 Z"/></g>
<g><path style="opacity:1" fill="#cca400" d="M 159.5,238.5 C 165.032,238.843 169.865,240.843 174,244.5C 174.667,245.833 174.667,247.167 174,248.5C 171.936,249.591 169.769,249.758 167.5,249C 163.825,246.172 161.158,242.672 159.5,238.5 Z"/></g>
<g><path style="opacity:1" fill="#cba300" d="M 203.5,238.5 C 205.288,238.215 206.955,238.548 208.5,239.5C 206.368,243.131 203.701,246.298 200.5,249C 192.43,249.439 191.43,246.772 197.5,241C 199.723,240.434 201.723,239.6 203.5,238.5 Z"/></g>
<g><path style="opacity:1" fill="#c8bcad" d="M 375.5,244.5 C 373.561,248.531 373.061,252.864 374,257.5C 375.185,262.255 377.018,266.588 379.5,270.5C 379.762,271.978 379.429,273.311 378.5,274.5C 368.888,264.384 366.388,252.717 371,239.5C 372.707,241.037 374.207,242.704 375.5,244.5 Z"/></g>
<g><path style="opacity:1" fill="#e2dcd3" d="M 375.5,244.5 C 377.514,247.194 379.014,250.194 380,253.5C 380.818,259.349 380.652,265.015 379.5,270.5C 377.018,266.588 375.185,262.255 374,257.5C 373.061,252.864 373.561,248.531 375.5,244.5 Z"/></g>
<g><path style="opacity:1" fill="#cfa700" d="M 150.5,273.5 C 155.599,273.175 160.599,273.675 165.5,275C 168.917,277.321 169.25,279.988 166.5,283C 159.218,283.19 153.885,280.023 150.5,273.5 Z"/></g>
<g><path style="opacity:1" fill="#cca400" d="M 203.5,273.5 C 208.297,273.121 212.964,273.621 217.5,275C 213.786,278.899 209.453,281.732 204.5,283.5C 201.673,283.592 199.673,282.425 198.5,280C 199.283,277.062 200.95,274.896 203.5,273.5 Z"/></g>
<g><path style="opacity:1" fill="#020304" d="M 400.5,285.5 C 419.305,287.009 432.138,296.676 439,314.5C 441.838,324.085 442.172,333.752 440,343.5C 436.376,348.486 431.543,350.319 425.5,349C 400.886,338.289 390.386,319.456 394,292.5C 395.694,289.642 397.861,287.309 400.5,285.5 Z"/></g>
<g><path style="opacity:1" fill="#030304" d="M 349.5,288.5 C 357.924,286.628 363.757,289.628 367,297.5C 374.709,320.709 369.209,340.209 350.5,356C 338.797,359.341 331.964,354.841 330,342.5C 325.118,325.676 328.451,310.676 340,297.5C 343.062,294.268 346.229,291.268 349.5,288.5 Z"/></g>
<g><path style="opacity:1" fill="#dbd3c9" d="M 408.5,302.5 C 420.958,308.63 426.625,318.63 425.5,332.5C 414.167,325.845 408.5,315.845 408.5,302.5 Z"/></g>
<g><path style="opacity:1" fill="#c9bdae" d="M 354.5,308.5 C 349.244,315.591 347.077,323.591 348,332.5C 348.278,333.416 348.778,334.082 349.5,334.5C 348.165,336.903 346.498,338.236 344.5,338.5C 340.783,325.704 343.783,314.704 353.5,305.5C 354.386,306.325 354.719,307.325 354.5,308.5 Z"/></g>
<g><path style="opacity:1" fill="#e5ded6" d="M 354.5,308.5 C 356.65,317.899 354.984,326.566 349.5,334.5C 348.778,334.082 348.278,333.416 348,332.5C 347.077,323.591 349.244,315.591 354.5,308.5 Z"/></g>
<g><path style="opacity:1" fill="#030304" d="M 286.5,337.5 C 316.345,336.628 334.179,350.628 340,379.5C 339.332,383.499 337.165,386.332 333.5,388C 306.039,391.209 287.872,379.709 279,353.5C 277.27,346.093 279.77,340.76 286.5,337.5 Z"/></g>
<g><path style="opacity:1" fill="#030404" d="M 387.5,342.5 C 393.848,341.884 398.682,344.218 402,349.5C 402.868,376.647 390.035,393.48 363.5,400C 353.411,402.13 347.744,398.13 346.5,388C 349.858,363.478 363.525,348.311 387.5,342.5 Z"/></g>
<g><path style="opacity:1" fill="#ded7ce" d="M 294.5,353.5 C 300.568,352.641 306.235,354.141 311.5,358C 317.006,361.984 320.673,367.15 322.5,373.5C 309.285,372.229 299.951,365.562 294.5,353.5 Z"/></g>
<g><path style="opacity:1" fill="#ddd5cc" d="M 386.5,358.5 C 386.014,367.591 381.681,374.758 373.5,380C 370.285,381.774 366.952,383.274 363.5,384.5C 362.628,382.534 362.795,380.534 364,378.5C 368.744,368.715 376.244,362.048 386.5,358.5 Z"/></g>
<g><path style="opacity:1" fill="#020303" d="M 200.5,365.5 C 225.327,363.656 242.827,373.989 253,396.5C 255.003,406.153 251.17,411.653 241.5,413C 217.126,414.952 199.96,404.786 190,382.5C 187.978,373.366 191.478,367.699 200.5,365.5 Z"/></g>
<g><path style="opacity:1" fill="#e1dad1" d="M 206.5,380.5 C 219.747,380.456 229.747,386.123 236.5,397.5C 222.764,398.628 212.764,392.961 206.5,380.5 Z"/></g>
<g><path style="opacity:1" fill="#030405" d="M 409.5,387.5 C 416.74,386.369 421.906,389.035 425,395.5C 429.774,421.785 420.274,440.951 396.5,453C 388.302,454.805 383.135,451.638 381,443.5C 376.985,417.861 386.485,399.195 409.5,387.5 Z"/></g>
<g><path style="opacity:1" fill="#020304" d="M 280.5,398.5 C 304.163,397.144 309.996,406.81 298,427.5C 285.443,444.689 268.61,451.523 247.5,448C 243.963,445.592 242.296,442.259 242.5,438C 246.862,416.805 259.529,403.639 280.5,398.5 Z"/></g>
<g><path style="opacity:1" fill="#020304" d="M 358.5,454.5 C 357.5,454.5 356.5,454.5 355.5,454.5C 331.022,452.532 315.856,439.532 310,415.5C 308.781,410.102 310.281,405.602 314.5,402C 320.388,400.424 326.388,400.091 332.5,401C 352.837,407.509 364.837,421.343 368.5,442.5C 368.436,449.23 365.103,453.23 358.5,454.5 Z"/></g>
<g><path style="opacity:1" fill="#ddd5ca" d="M 410.5,404.5 C 412.174,418.161 407.007,428.827 395,436.5C 394.007,422.819 399.174,412.153 410.5,404.5 Z"/></g>
<g><path style="opacity:1" fill="#020304" d="M 184.5,411.5 C 197.495,411.063 209.495,414.23 220.5,421C 226.986,425.745 228.152,431.578 224,438.5C 208.851,453.085 191.351,456.585 171.5,449C 167.5,447 163.5,445 159.5,443C 155.359,438.375 154.526,433.209 157,427.5C 164.649,419.43 173.816,414.096 184.5,411.5 Z"/></g>
<g><path style="opacity:1" fill="#ded7ce" d="M 282.5,413.5 C 284.288,413.215 285.955,413.548 287.5,414.5C 281.846,426.992 272.179,433.492 258.5,434C 263.162,423.181 271.162,416.348 282.5,413.5 Z"/></g>
<g><path style="opacity:1" fill="#ded7cd" d="M 325.5,416.5 C 333.829,416.077 340.663,419.41 346,426.5C 356.246,440.921 353.746,443.421 338.5,434C 332.55,429.222 328.216,423.389 325.5,416.5 Z"/></g>
<g><path style="opacity:1" fill="#ded8d1" d="M 186.5,426.5 C 194.347,426.396 201.68,428.229 208.5,432C 200.634,437.279 191.967,438.946 182.5,437C 179.215,436.241 176.215,434.908 173.5,433C 177.398,429.769 181.731,427.602 186.5,426.5 Z"/></g>
<g><path style="opacity:1" fill="#5685a9" d="M 355.5,454.5 C 356.5,454.5 357.5,454.5 358.5,454.5C 382.328,455.498 406.328,455.831 430.5,455.5C 335.668,456.499 240.668,456.833 145.5,456.5C 215.5,455.833 285.5,455.167 355.5,454.5 Z"/></g>
<g><path style="opacity:1" fill="#6bc529" d="M 123.5,463.5 C 128.833,463.5 134.167,463.5 139.5,463.5C 139.269,466.785 140.603,469.285 143.5,471C 237.168,471.167 330.835,471.667 424.5,472.5C 417.975,483.033 409.308,491.033 398.5,496.5C 397.5,496.333 396.5,496.167 395.5,496C 390.442,491.943 385.108,488.276 379.5,485C 373.575,482.483 367.575,482.15 361.5,484C 354.554,488.627 347.387,492.794 340,496.5C 332.813,492.486 325.646,488.319 318.5,484C 311.46,481.381 304.793,482.048 298.5,486C 293.496,490.349 287.996,493.849 282,496.5C 279.679,496.091 277.513,495.257 275.5,494C 268.674,486.921 260.341,483.088 250.5,482.5C 242.01,485.079 234.344,489.246 227.5,495C 226.127,495.875 224.627,496.375 223,496.5C 216.607,493.122 210.44,489.289 204.5,485C 198.275,482.262 191.942,481.929 185.5,484C 178.855,488.568 172.021,492.735 165,496.5C 157.613,492.794 150.446,488.627 143.5,484C 138.875,482.838 134.208,482.504 129.5,483C 123.974,485.926 118.641,489.093 113.5,492.5C 111.031,485.625 109.031,478.625 107.5,471.5C 111.936,471.79 116.27,471.29 120.5,470C 122.451,468.266 123.451,466.099 123.5,463.5 Z"/></g>
<g><path style="opacity:1" fill="#5caa23" d="M 107.5,471.5 C 109.031,478.625 111.031,485.625 113.5,492.5C 110.899,495.628 107.566,496.795 103.5,496C 94.8295,489.833 88.1628,481.999 83.5,472.5C 91.4723,471.502 99.4723,471.169 107.5,471.5 Z"/></g>
</svg>
