<?xml version="1.0" encoding="UTF-8"?>
<!DOCTYPE svg PUBLIC "-//W3C//DTD SVG 1.1//EN" "http://www.w3.org/Graphics/SVG/1.1/DTD/svg11.dtd">
<svg xmlns="http://www.w3.org/2000/svg" version="1.1" width="512px" height="512px" style="shape-rendering:geometricPrecision; text-rendering:geometricPrecision; image-rendering:optimizeQuality; fill-rule:evenodd; clip-rule:evenodd" xmlns:xlink="http://www.w3.org/1999/xlink">
<g><path style="opacity:0.926" fill="#000000" d="M 56.5,63.5 C 66.33,61.8292 70.1634,65.8292 68,75.5C 64.3874,79.1126 60.7208,82.7792 57,86.5C 50.2384,97.9303 51.905,107.93 62,116.5C 68.2351,126.263 70.2351,136.929 68,148.5C 64.9432,159.887 58.4432,168.72 48.5,175C 38.6667,177.167 34.8333,173.333 37,163.5C 40.6126,159.887 44.2792,156.221 48,152.5C 54.7616,141.07 53.095,131.07 43,122.5C 30.4548,98.8219 34.9548,79.1552 56.5,63.5 Z"/></g>
<g><path style="opacity:0.926" fill="#000000" d="M 128.5,63.5 C 138.33,61.8292 142.163,65.8292 140,75.5C 136.387,79.1126 132.721,82.7792 129,86.5C 122.238,97.9303 123.905,107.93 134,116.5C 140.235,126.263 142.235,136.929 140,148.5C 136.943,159.887 130.443,168.72 120.5,175C 110.667,177.167 106.833,173.333 109,163.5C 112.613,159.887 116.279,156.221 120,152.5C 126.762,141.07 125.095,131.07 115,122.5C 102.455,98.8219 106.955,79.1552 128.5,63.5 Z"/></g>
<g><path style="opacity:0.981" fill="#000000" d="M 445.5,87.5 C 462.755,85.7031 473.921,93.0364 479,109.5C 480.61,118.724 478.61,127.057 473,134.5C 443.29,163.709 414.124,193.376 385.5,223.5C 389.131,228.298 392.131,233.465 394.5,239C 418.497,239.575 434.664,251.075 443,273.5C 444.225,278.085 444.725,282.752 444.5,287.5C 472.978,285.811 486.145,299.144 484,327.5C 480.006,341.43 470.84,349.763 456.5,352.5C 433.742,383.427 410.408,413.927 386.5,444C 384.283,445.275 381.949,446.275 379.5,447C 294.833,447.667 210.167,447.667 125.5,447C 119.914,445.419 115.414,442.252 112,437.5C 91.0258,409.025 69.8592,380.692 48.5,352.5C 27.2176,347.038 18.0509,333.372 21,311.5C 27.369,292.717 40.5357,284.717 60.5,287.5C 61.2085,264.256 72.5418,248.756 94.5,241C 99.7695,239.894 105.103,239.227 110.5,239C 119.536,217.975 135.536,207.308 158.5,207C 167.536,185.975 183.536,175.308 206.5,175C 220.228,146.635 242.228,137.302 272.5,147C 284.642,153.14 293.308,162.474 298.5,175C 313.413,174.522 325.913,179.688 336,190.5C 368.5,158 401,125.5 433.5,93C 437.481,90.8381 441.481,89.0048 445.5,87.5 Z"/></g>
<g><path style="opacity:1" fill="#f72223" d="M 459.5,107.5 C 458.364,111.771 456.198,115.437 453,118.5C 422.632,148.701 392.465,179.035 362.5,209.5C 356.884,208.46 351.217,207.793 345.5,207.5C 345.343,206.127 345.51,204.793 346,203.5C 378.861,170.305 412.028,137.472 445.5,105C 450.87,102.505 455.536,103.338 459.5,107.5 Z"/></g>
<g><path style="opacity:1" fill="#b01732" d="M 459.5,107.5 C 460.79,108.058 461.623,109.058 462,110.5C 462.667,113.833 462.667,117.167 462,120.5C 460,123.167 458,125.833 456,128.5C 427.667,156.833 399.333,185.167 371,213.5C 368.337,211.751 365.503,210.418 362.5,209.5C 392.465,179.035 422.632,148.701 453,118.5C 456.198,115.437 458.364,111.771 459.5,107.5 Z"/></g>
<g><path style="opacity:1" fill="#e2ab1b" d="M 410.5,287.5 C 406.686,276.187 399.019,268.687 387.5,265C 381.564,263.861 375.564,263.195 369.5,263C 367.365,259.591 365.365,256.757 363.5,254.5C 362.662,254.158 362.328,253.492 362.5,252.5C 359.162,246.476 354.162,242.31 347.5,240C 340.414,237.298 333.081,235.798 325.5,235.5C 319.937,212.02 304.937,200.52 280.5,201C 272.216,181.848 257.55,173.515 236.5,176C 231.71,177.563 227.044,179.396 222.5,181.5C 225.088,172.406 230.754,165.906 239.5,162C 258.098,156.307 272.265,161.807 282,178.5C 282.908,183.702 285.075,188.202 288.5,192C 302.617,188.988 314.784,192.488 325,202.5C 329.207,207.775 331.873,213.775 333,220.5C 334.167,221.667 335.333,222.833 336.5,224C 348.607,221.473 359.607,223.806 369.5,231C 375.814,236.793 379.648,243.959 381,252.5C 382.167,253.667 383.333,254.833 384.5,256C 396.607,253.473 407.607,255.806 417.5,263C 424.836,269.506 428.502,277.672 428.5,287.5C 422.5,287.5 416.5,287.5 410.5,287.5 Z"/></g>
<g><path style="opacity:1" fill="#fdf52f" d="M 362.5,252.5 C 354.182,245.045 347.016,246.045 341,255.5C 339.485,262.624 341.985,267.791 348.5,271C 360.314,271.686 365.314,266.186 363.5,254.5C 365.365,256.757 367.365,259.591 369.5,263C 375.564,263.195 381.564,263.861 387.5,265C 399.019,268.687 406.686,276.187 410.5,287.5C 336.833,287.667 263.166,287.5 189.5,287C 194.083,283.088 197.917,278.588 201,273.5C 202.354,267.332 201.354,261.666 198,256.5C 193.833,252.333 189.667,248.167 185.5,244C 178.404,239.462 171.404,239.462 164.5,244C 154.599,253.231 145.433,263.064 137,273.5C 136.148,277.996 136.648,282.33 138.5,286.5C 117.844,287.5 97.1774,287.833 76.5,287.5C 77.5509,271.236 85.8843,260.736 101.5,256C 106.524,255.335 111.524,255.502 116.5,256.5C 119.63,256.352 122.13,255.018 124,252.5C 129.208,231.12 142.708,221.787 164.5,224.5C 167.63,224.352 170.13,223.018 172,220.5C 177.722,197.799 192.222,188.299 215.5,192C 217.286,191.215 218.786,190.049 220,188.5C 220.39,185.896 221.224,183.562 222.5,181.5C 227.044,179.396 231.71,177.563 236.5,176C 257.55,173.515 272.216,181.848 280.5,201C 304.937,200.52 319.937,212.02 325.5,235.5C 333.081,235.798 340.414,237.298 347.5,240C 354.162,242.31 359.162,246.476 362.5,252.5 Z"/></g>
<g><path style="opacity:1" fill="#070601" d="M 212.5,207.5 C 223.18,207.015 228.347,212.015 228,222.5C 225.315,229.841 220.148,232.674 212.5,231C 201.874,223.132 201.874,215.299 212.5,207.5 Z"/></g>
<g><path style="opacity:1" fill="#040400" d="M 274.5,210.5 C 281.43,210.198 287.763,212.031 293.5,216C 301.5,220.667 309.5,225.333 317.5,230C 322.722,236.036 323.889,242.869 321,250.5C 317.452,257.099 313.286,263.265 308.5,269C 304.514,271.665 300.181,272.665 295.5,272C 282.922,265.464 270.755,258.297 259,250.5C 255.826,245.94 254.826,240.94 256,235.5C 259.333,229.5 262.667,223.5 266,217.5C 268.441,214.546 271.275,212.213 274.5,210.5 Z"/></g>
<g><path style="opacity:1" fill="#5bcf00" d="M 278.5,226.5 C 287.607,231.222 296.607,236.222 305.5,241.5C 306.583,242.365 306.749,243.365 306,244.5C 303.667,248.5 301.333,252.5 299,256.5C 290,251.167 281,245.833 272,240.5C 273.844,235.804 276.011,231.138 278.5,226.5 Z"/></g>
<g><path style="opacity:1" fill="#060501" d="M 362.5,252.5 C 362.328,253.492 362.662,254.158 363.5,254.5C 365.314,266.186 360.314,271.686 348.5,271C 341.985,267.791 339.485,262.624 341,255.5C 347.016,246.045 354.182,245.045 362.5,252.5 Z"/></g>
<g><path style="opacity:1" fill="#5dd400" d="M 174.5,256.5 C 178.479,259.812 182.146,263.479 185.5,267.5C 179.348,274.152 173.015,280.652 166.5,287C 164.5,287.667 162.5,287.667 160.5,287C 157.833,284.333 155.167,281.667 152.5,279C 160.036,271.632 167.369,264.132 174.5,256.5 Z"/></g>
<g><path style="opacity:1" fill="#72ccfe" d="M 430.5,303.5 C 438.5,314.167 438.5,324.833 430.5,335.5C 302.833,335.667 175.166,335.5 47.5,335C 37.0804,329.496 34.2471,321.329 39,310.5C 41.2643,307.567 44.0976,305.4 47.5,304C 175.166,303.5 302.833,303.333 430.5,303.5 Z"/></g>
<g><path style="opacity:1" fill="#5889d5" d="M 430.5,303.5 C 439.506,303.334 448.506,303.5 457.5,304C 468.41,309.327 471.243,317.494 466,328.5C 463.736,331.433 460.902,333.6 457.5,335C 448.506,335.5 439.506,335.666 430.5,335.5C 438.5,324.833 438.5,314.167 430.5,303.5 Z"/></g>
<g><path style="opacity:1" fill="#72ccfe" d="M 406.5,351.5 C 386.5,378.167 366.5,404.833 346.5,431.5C 274.166,431.667 201.833,431.5 129.5,431C 128.069,430.535 126.903,429.701 126,428.5C 107.218,402.717 88.0512,377.217 68.5,352C 181.166,351.5 293.833,351.333 406.5,351.5 Z"/></g>
<g><path style="opacity:1" fill="#588ad6" d="M 406.5,351.5 C 416.506,351.334 426.506,351.5 436.5,352C 416.59,377.821 396.924,403.821 377.5,430C 367.246,431.426 356.912,431.926 346.5,431.5C 366.5,404.833 386.5,378.167 406.5,351.5 Z"/></g>
</svg>
