<?xml version="1.0" encoding="UTF-8"?>
<!DOCTYPE svg PUBLIC "-//W3C//DTD SVG 1.1//EN" "http://www.w3.org/Graphics/SVG/1.1/DTD/svg11.dtd">
<svg xmlns="http://www.w3.org/2000/svg" version="1.1" width="512px" height="512px" style="shape-rendering:geometricPrecision; text-rendering:geometricPrecision; image-rendering:optimizeQuality; fill-rule:evenodd; clip-rule:evenodd" xmlns:xlink="http://www.w3.org/1999/xlink">
<g><path style="opacity:0.983" fill="#212121" d="M 511.5,151.5 C 511.5,220.833 511.5,290.167 511.5,359.5C 509.518,365.802 506.684,371.802 503,377.5C 492.042,389.784 478.875,398.95 463.5,405C 428.621,418.043 392.621,426.377 355.5,430C 275.216,438.892 195.216,436.892 115.5,424C 88.0571,419.557 61.7237,411.557 36.5,400C 25.8186,394.066 16.3186,386.566 8,377.5C 4.31011,371.792 1.47678,365.792 -0.5,359.5C -0.5,290.167 -0.5,220.833 -0.5,151.5C 1.47678,145.208 4.31011,139.208 8,133.5C 16.3186,124.434 25.8186,116.934 36.5,111C 63.3598,98.9502 91.3598,90.6169 120.5,86C 210.5,72 300.5,72 390.5,86C 419.64,90.6169 447.64,98.9502 474.5,111C 485.181,116.934 494.681,124.434 503,133.5C 506.69,139.208 509.523,145.208 511.5,151.5 Z"/></g>
<g><path style="opacity:1" fill="#d8dcde" d="M 210.5,92.5 C 279.479,89.6394 347.812,94.8061 415.5,108C 437.794,113.206 458.794,121.539 478.5,133C 498.733,147.578 500.733,164.244 484.5,183C 476.166,190.174 466.832,195.84 456.5,200C 421.842,212.327 386.175,220.327 349.5,224C 276.346,231.083 203.346,229.749 130.5,220C 104.39,216.14 79.0563,209.473 54.5,200C 42.9926,195.473 32.8259,188.973 24,180.5C 11.5922,164.925 12.7588,150.425 27.5,137C 49.2771,121.955 73.2771,111.955 99.5,107C 136.266,99.3434 173.266,94.5101 210.5,92.5 Z"/></g>
<g><path style="opacity:1" fill="#222222" d="M 221.5,105.5 C 285.198,103.501 348.198,109.001 410.5,122C 427.846,126.56 444.513,132.893 460.5,141C 480.714,152.694 480.381,164.028 459.5,175C 442.835,183.111 425.501,189.445 407.5,194C 327.766,210.203 247.432,213.87 166.5,205C 138.941,202.352 111.941,197.019 85.5,189C 69.9928,184.745 55.6595,178.078 42.5,169C 34.0743,162.614 33.4076,155.614 40.5,148C 59.8767,134.653 81.21,125.653 104.5,121C 143.227,112.776 182.227,107.609 221.5,105.5 Z"/></g>
<g><path style="opacity:1" fill="#7b7c7c" d="M 202.5,123.5 C 205.687,122.194 209.02,122.194 212.5,123.5C 212.376,124.107 212.043,124.44 211.5,124.5C 208.713,123.523 205.713,123.19 202.5,123.5 Z"/></g>
<g><path style="opacity:1" fill="#a1a1a2" d="M 229.5,121.5 C 246.837,121.333 264.17,121.5 281.5,122C 283.757,127.271 285.09,132.771 285.5,138.5C 265.5,138.5 245.5,138.5 225.5,138.5C 226.014,132.628 227.347,126.961 229.5,121.5 Z"/></g>
<g><path style="opacity:1" fill="#656565" d="M 307.5,123.5 C 304.615,123.194 301.948,123.527 299.5,124.5C 298.957,124.44 298.624,124.107 298.5,123.5C 301.645,122.197 304.645,122.197 307.5,123.5 Z"/></g>
<g><path style="opacity:1" fill="#e9eaeb" d="M 202.5,123.5 C 205.713,123.19 208.713,123.523 211.5,124.5C 210.297,128.778 209.297,133.111 208.5,137.5C 209.459,146.627 214.459,152.127 223.5,154C 244.833,154.667 266.167,154.667 287.5,154C 296.541,152.127 301.541,146.627 302.5,137.5C 301.703,133.111 300.703,128.778 299.5,124.5C 301.948,123.527 304.615,123.194 307.5,123.5C 338.479,125.385 369.146,129.552 399.5,136C 411.782,138.788 423.782,142.455 435.5,147C 442.942,149.887 449.942,153.554 456.5,158C 432.953,170.602 407.953,178.936 381.5,183C 300.596,196.131 219.596,196.798 138.5,185C 115.6,181.046 93.2664,175.046 71.5,167C 65.675,164.255 60.0084,161.255 54.5,158C 71.8946,147.533 90.5613,140.2 110.5,136C 140.833,129.357 171.499,125.191 202.5,123.5 Z"/></g>
<g><path style="opacity:1" fill="#a6a9ab" d="M 17.5,196.5 C 16.5011,248.664 16.1677,300.997 16.5,353.5C 15.1688,300.998 15.1688,248.332 16.5,195.5C 17.1067,195.624 17.44,195.957 17.5,196.5 Z"/></g>
<g><path style="opacity:1" fill="#bec1c3" d="M 493.5,196.5 C 493.56,195.957 493.893,195.624 494.5,195.5C 495.831,247.665 495.831,299.665 494.5,351.5C 494.832,299.664 494.499,247.997 493.5,196.5 Z"/></g>
<g><path style="opacity:1" fill="#bfc2c4" d="M 17.5,196.5 C 23.0288,200.758 28.6955,204.758 34.5,208.5C 33.335,257.665 33.1684,306.998 34,356.5C 36.8644,367.192 42.6977,375.859 51.5,382.5C 51.6621,384.527 51.4955,386.527 51,388.5C 37.8208,383.26 27.1542,374.927 19,363.5C 17.6476,360.28 16.8143,356.947 16.5,353.5C 16.1677,300.997 16.5011,248.664 17.5,196.5 Z"/></g>
<g><path style="opacity:1" fill="#dadee0" d="M 493.5,196.5 C 494.499,247.997 494.832,299.664 494.5,351.5C 494.236,360.615 490.569,368.115 483.5,374C 475.196,380.986 465.863,386.153 455.5,389.5C 455.667,352.832 455.5,316.165 455,279.5C 453.249,276.708 450.749,275.041 447.5,274.5C 447.5,270.833 447.5,267.167 447.5,263.5C 451.637,263.518 454.137,261.518 455,257.5C 455.333,244.167 455.667,230.833 456,217.5C 469.676,212.417 482.176,205.417 493.5,196.5 Z"/></g>
<g><path style="opacity:1" fill="#dbdfe1" d="M 34.5,208.5 C 40.0632,211.116 45.7299,213.449 51.5,215.5C 51.5,271.167 51.5,326.833 51.5,382.5C 42.6977,375.859 36.8644,367.192 34,356.5C 33.1684,306.998 33.335,257.665 34.5,208.5 Z"/></g>
<g><path style="opacity:1" fill="#923d3d" d="M 68.5,222.5 C 68.1667,279.504 68.5,336.504 69.5,393.5C 71.1446,394.696 72.8113,395.696 74.5,396.5C 72.139,396.326 69.8056,395.993 67.5,395.5C 67.1676,337.664 67.501,279.998 68.5,222.5 Z"/></g>
<g><path style="opacity:1" fill="#e75252" d="M 68.5,222.5 C 112.321,234.547 156.988,241.714 202.5,244C 268.223,247.275 333.557,243.608 398.5,233C 412.234,229.983 425.901,226.816 439.5,223.5C 439.333,235.171 439.5,246.838 440,258.5C 441.41,261.789 443.91,263.456 447.5,263.5C 447.5,267.167 447.5,270.833 447.5,274.5C 444.386,275.091 441.886,276.758 440,279.5C 439.5,318.499 439.333,357.499 439.5,396.5C 378.588,412.526 316.588,419.859 253.5,418.5C 201.589,419.542 150.255,414.709 99.5,404C 90.8854,402.002 82.5521,399.502 74.5,396.5C 72.8113,395.696 71.1446,394.696 69.5,393.5C 68.5,336.504 68.1667,279.504 68.5,222.5 Z"/></g>
<g><path style="opacity:1" fill="#222120" d="M 258.5,264.5 C 296.033,262.621 328.867,273.954 357,298.5C 360.422,302.803 360.256,306.97 356.5,311C 318.706,342.775 276.039,351.442 228.5,337C 214.809,331.743 202.309,324.576 191,315.5C 180.475,324.35 168.641,331.016 155.5,335.5C 152.786,335.06 150.62,333.726 149,331.5C 147.376,314.233 147.042,296.9 148,279.5C 149.467,276.198 151.967,274.198 155.5,273.5C 168.609,277.969 180.443,284.636 191,293.5C 210.869,277.647 233.369,267.981 258.5,264.5 Z"/></g>
<g><path style="opacity:1" fill="#ecaa51" d="M 260.5,280.5 C 271.636,280.063 282.636,281.063 293.5,283.5C 290.182,290.088 288.515,297.088 288.5,304.5C 288.936,312.01 290.269,319.343 292.5,326.5C 259.48,332.102 229.813,324.769 203.5,304.5C 220.299,291.267 239.299,283.267 260.5,280.5 Z"/></g>
<g><path style="opacity:1" fill="#eeb26b" d="M 308.5,287.5 C 319.423,291.626 329.423,297.292 338.5,304.5C 329.16,312.003 318.827,317.669 307.5,321.5C 306.131,315.585 305.131,309.585 304.5,303.5C 305.212,297.984 306.546,292.65 308.5,287.5 Z"/></g>
<g><path style="opacity:1" fill="#98713d" d="M 165.5,295.5 C 164.51,301.31 164.177,307.31 164.5,313.5C 163.789,311.265 163.455,308.265 163.5,304.5C 163.833,301.167 164.167,297.833 164.5,294.5C 165.107,294.624 165.44,294.957 165.5,295.5 Z"/></g>
<g><path style="opacity:1" fill="#e8a750" d="M 165.5,295.5 C 170.365,297.763 174.698,300.763 178.5,304.5C 174.335,308.341 169.668,311.341 164.5,313.5C 164.177,307.31 164.51,301.31 165.5,295.5 Z"/></g>
<g><path style="opacity:1" fill="#232020" d="M 180.5,357.5 C 226.663,361.451 272.829,361.451 319,357.5C 327.966,356.795 331.632,360.795 330,369.5C 328.786,371.049 327.286,372.215 325.5,373C 277.163,377.323 228.83,377.323 180.5,373C 175.931,370.459 174.431,366.625 176,361.5C 177.397,359.93 178.897,358.596 180.5,357.5 Z"/></g>
<g><path style="opacity:1" fill="#222020" d="M 179.5,385.5 C 224.833,388.096 270.166,388.096 315.5,385.5C 318.833,385.667 322.167,385.833 325.5,386C 330.689,388.913 331.856,393.08 329,398.5C 327.829,399.893 326.329,400.727 324.5,401C 287.2,403.363 249.867,404.03 212.5,403C 201.393,402.616 190.393,401.616 179.5,400C 174.189,395.045 174.189,390.212 179.5,385.5 Z"/></g>
</svg>
