<?xml version="1.0" encoding="UTF-8"?>
<!DOCTYPE svg PUBLIC "-//W3C//DTD SVG 1.1//EN" "http://www.w3.org/Graphics/SVG/1.1/DTD/svg11.dtd">
<svg xmlns="http://www.w3.org/2000/svg" version="1.1" width="512px" height="512px" style="shape-rendering:geometricPrecision; text-rendering:geometricPrecision; image-rendering:optimizeQuality; fill-rule:evenodd; clip-rule:evenodd" xmlns:xlink="http://www.w3.org/1999/xlink">
<g><path style="opacity:0.969" fill="#010101" d="M 511.5,161.5 C 511.5,164.5 511.5,167.5 511.5,170.5C 500.333,199.991 489.333,229.658 478.5,259.5C 489.53,289.599 500.53,319.599 511.5,349.5C 511.5,352.167 511.5,354.833 511.5,357.5C 510.354,359.475 508.687,360.975 506.5,362C 476.693,362.847 453.859,350.68 438,325.5C 432.769,313.372 427.269,301.372 421.5,289.5C 388.957,305.938 356.29,322.105 323.5,338C 331.876,350.587 340.376,363.087 349,375.5C 350.384,385.778 345.884,389.945 335.5,388C 320.206,385.791 305.872,380.791 292.5,373C 284.338,367.66 276.338,362.16 268.5,356.5C 251.969,359.816 235.303,362.15 218.5,363.5C 222.726,373.624 228.226,382.958 235,391.5C 239.139,398.372 237.639,403.538 230.5,407C 201.561,407.358 177.061,397.192 157,376.5C 151.833,370 146.667,363.5 141.5,357C 96.9247,348.704 56.9247,330.704 21.5,303C 13.6354,296.301 6.30207,289.135 -0.5,281.5C -0.5,278.5 -0.5,275.5 -0.5,272.5C 2.67899,266.993 5.67899,261.326 8.5,255.5C 7.03814,251.599 7.53814,247.932 10,244.5C 43.4193,208.352 83.9193,183.185 131.5,169C 141.434,166.017 151.434,163.35 161.5,161C 168.041,154.128 174.207,146.961 180,139.5C 200.349,116.712 225.849,105.545 256.5,106C 262.092,108.402 263.925,112.569 262,118.5C 253.547,131.069 246.38,144.402 240.5,158.5C 250.181,160.392 259.848,162.392 269.5,164.5C 278.368,156.134 287.701,148.301 297.5,141C 308.173,133.829 319.84,129.163 332.5,127C 337.287,126.121 341.953,126.455 346.5,128C 349.318,131.338 350.151,135.171 349,139.5C 339.988,154.023 332.154,169.19 325.5,185C 330.287,186.893 334.953,189.06 339.5,191.5C 341.329,187.842 343.162,184.176 345,180.5C 346.049,179.483 347.216,179.316 348.5,180C 353.167,182.333 357.833,184.667 362.5,187C 359.564,191.144 357.898,195.477 357.5,200C 360.5,201.5 363.5,203 366.5,204.5C 368.761,200.303 371.261,196.303 374,192.5C 379.76,194.625 384.926,197.625 389.5,201.5C 387.374,204.919 385.374,208.419 383.5,212C 386.804,214.212 390.304,216.045 394,217.5C 396.421,213.66 398.588,209.66 400.5,205.5C 401.365,204.417 402.365,204.251 403.5,205C 408.326,207.246 412.992,209.746 417.5,212.5C 415.5,216.5 413.5,220.5 411.5,224.5C 414.377,226.861 417.544,228.861 421,230.5C 426.984,217.864 432.984,205.197 439,192.5C 455.355,167.072 478.522,155.739 508.5,158.5C 509.288,159.77 510.288,160.77 511.5,161.5 Z"/></g>
<g><path style="opacity:1" fill="#fab130" d="M 231.5,125.5 C 233.288,125.215 234.955,125.548 236.5,126.5C 230.828,136.344 225.828,146.51 221.5,157C 210.5,157.667 199.5,157.667 188.5,157C 199.7,142.082 214.033,131.582 231.5,125.5 Z"/></g>
<g><path style="opacity:1" fill="#f5ae2f" d="M 321.5,147.5 C 322.376,147.369 323.043,147.702 323.5,148.5C 318.378,158.409 313.545,168.409 309,178.5C 302.76,175.962 296.593,173.296 290.5,170.5C 299.443,160.881 309.776,153.215 321.5,147.5 Z"/></g>
<g><path style="opacity:1" fill="#338ed7" d="M 340.5,211.5 C 339.118,214.394 337.118,216.894 334.5,219C 321.344,230.491 307.344,240.824 292.5,250C 254.331,250.167 216.331,250.667 178.5,251.5C 178.5,254.167 178.5,256.833 178.5,259.5C 172.167,259.5 165.833,259.5 159.5,259.5C 159.795,261.735 159.461,263.735 158.5,265.5C 160.38,247.647 155.88,231.647 145,217.5C 140.7,212.199 136.034,207.199 131,202.5C 126.533,205.965 122.367,209.798 118.5,214C 129.662,223.17 137.162,234.67 141,248.5C 141.499,252.152 141.665,255.818 141.5,259.5C 112.167,259.5 82.8333,259.5 53.5,259.5C 45.7197,256.444 38.3864,252.611 31.5,248C 55.4294,223.79 83.4294,205.457 115.5,193C 175.219,169.079 235.219,168.412 295.5,191C 310.764,197.3 325.764,204.133 340.5,211.5 Z"/></g>
<g><path style="opacity:1" fill="#3c4c61" d="M 485.5,176.5 C 486.833,176.5 488.167,176.5 489.5,176.5C 479.64,204.079 469.973,231.745 460.5,259.5C 469.809,287.594 479.809,315.427 490.5,343C 474.834,339.692 462.668,331.192 454,317.5C 447.473,303.584 441.139,289.584 435,275.5C 434.333,264.833 434.333,254.167 435,243.5C 441,230.167 447,216.833 453,203.5C 460.979,191.017 471.812,182.017 485.5,176.5 Z"/></g>
<g><path style="opacity:1" fill="#020405" d="M 158.5,265.5 C 156.69,282.789 149.357,297.123 136.5,308.5C 131.531,312.323 126.198,315.656 120.5,318.5C 119.143,316.435 117.81,314.435 116.5,312.5C 115.572,309.477 114.238,306.643 112.5,304C 130.367,294.966 140.034,280.466 141.5,260.5C 141.5,260.167 141.5,259.833 141.5,259.5C 141.665,255.818 141.499,252.152 141,248.5C 137.162,234.67 129.662,223.17 118.5,214C 122.367,209.798 126.533,205.965 131,202.5C 136.034,207.199 140.7,212.199 145,217.5C 155.88,231.647 160.38,247.647 158.5,265.5 Z"/></g>
<g><path style="opacity:1" fill="#2f84ca" d="M 340.5,211.5 C 365.807,223.486 391.14,235.486 416.5,247.5C 417.491,251.445 417.824,255.445 417.5,259.5C 377.833,259.5 338.167,259.5 298.5,259.5C 297.817,255.98 295.817,253.48 292.5,252C 254.501,251.5 216.501,251.333 178.5,251.5C 216.331,250.667 254.331,250.167 292.5,250C 307.344,240.824 321.344,230.491 334.5,219C 337.118,216.894 339.118,214.394 340.5,211.5 Z"/></g>
<g><path style="opacity:1" fill="#010203" d="M 87.5,217.5 C 106.522,216.681 113.356,225.347 108,243.5C 95.8991,255.152 85.5658,253.818 77,239.5C 74.89,229.389 78.39,222.056 87.5,217.5 Z"/></g>
<g><path style="opacity:1" fill="#010202" d="M 178.5,251.5 C 216.501,251.333 254.501,251.5 292.5,252C 295.817,253.48 297.817,255.98 298.5,259.5C 297.83,262.338 296.496,264.838 294.5,267C 271.332,281.083 248.332,295.416 225.5,310C 222.833,310.667 220.167,310.667 217.5,310C 206.098,305.59 194.765,301.09 183.5,296.5C 180.581,295.707 177.915,294.374 175.5,292.5C 176.9,289.965 177.9,287.298 178.5,284.5C 179.539,282.099 180.873,279.765 182.5,277.5C 194.88,282.794 207.38,287.794 220,292.5C 233.067,285.05 245.9,277.216 258.5,269C 231.835,268.5 205.169,268.333 178.5,268.5C 178.5,265.5 178.5,262.5 178.5,259.5C 178.5,256.833 178.5,254.167 178.5,251.5 Z"/></g>
<g><path style="opacity:1" fill="#b1c9dc" d="M 53.5,259.5 C 82.8333,259.5 112.167,259.5 141.5,259.5C 141.5,259.833 141.5,260.167 141.5,260.5C 112.995,260.169 84.6618,260.502 56.5,261.5C 55.2905,261.068 54.2905,260.401 53.5,259.5 Z"/></g>
<g><path style="opacity:1" fill="#dededc" d="M 56.5,261.5 C 84.6618,260.502 112.995,260.169 141.5,260.5C 140.034,280.466 130.367,294.966 112.5,304C 114.238,306.643 115.572,309.477 116.5,312.5C 116.389,313.117 116.056,313.617 115.5,314C 104.879,316.159 94.2121,317.992 83.5,319.5C 59.4245,309.044 37.9245,294.711 19,276.5C 18.5172,275.552 18.3505,274.552 18.5,273.5C 33.0538,277.305 47.7205,280.805 62.5,284C 68.2721,286.969 74.1055,289.803 80,292.5C 80.772,292.355 81.4387,292.022 82,291.5C 84.6152,286.954 86.6152,282.287 88,277.5C 77.5513,272.026 67.0513,266.692 56.5,261.5 Z"/></g>
<g><path style="opacity:1" fill="#dddedc" d="M 178.5,259.5 C 178.5,262.5 178.5,265.5 178.5,268.5C 178.5,273.833 178.5,279.167 178.5,284.5C 177.9,287.298 176.9,289.965 175.5,292.5C 177.915,294.374 180.581,295.707 183.5,296.5C 168.589,301.826 153.256,306.16 137.5,309.5C 136.893,309.376 136.56,309.043 136.5,308.5C 149.357,297.123 156.69,282.789 158.5,265.5C 159.461,263.735 159.795,261.735 159.5,259.5C 165.833,259.5 172.167,259.5 178.5,259.5 Z"/></g>
<g><path style="opacity:1" fill="#d4d4d2" d="M 298.5,259.5 C 338.167,259.5 377.833,259.5 417.5,259.5C 417.797,263.767 417.464,267.934 416.5,272C 381.833,289.333 347.167,306.667 312.5,324C 258.852,345.814 203.519,351.148 146.5,340C 124.447,336.037 103.447,329.204 83.5,319.5C 94.2121,317.992 104.879,316.159 115.5,314C 116.056,313.617 116.389,313.117 116.5,312.5C 117.81,314.435 119.143,316.435 120.5,318.5C 126.198,315.656 131.531,312.323 136.5,308.5C 136.56,309.043 136.893,309.376 137.5,309.5C 153.256,306.16 168.589,301.826 183.5,296.5C 194.765,301.09 206.098,305.59 217.5,310C 220.167,310.667 222.833,310.667 225.5,310C 248.332,295.416 271.332,281.083 294.5,267C 296.496,264.838 297.83,262.338 298.5,259.5 Z"/></g>
<g><path style="opacity:1" fill="#3c4c62" d="M 178.5,268.5 C 205.169,268.333 231.835,268.5 258.5,269C 245.9,277.216 233.067,285.05 220,292.5C 207.38,287.794 194.88,282.794 182.5,277.5C 180.873,279.765 179.539,282.099 178.5,284.5C 178.5,279.167 178.5,273.833 178.5,268.5 Z"/></g>
<g><path style="opacity:1" fill="#f2ac2e" d="M 305.5,344.5 C 306.496,344.414 307.329,344.748 308,345.5C 311.605,352.1 315.605,358.434 320,364.5C 320.688,365.332 320.521,365.998 319.5,366.5C 309.72,362.537 300.554,357.537 292,351.5C 291.312,350.668 291.479,350.002 292.5,349.5C 297.011,348.001 301.344,346.335 305.5,344.5 Z"/></g>
<g><path style="opacity:1" fill="#f7af2f" d="M 167.5,361.5 C 168.793,360.842 170.293,360.508 172,360.5C 180.82,361.196 189.653,361.696 198.5,362C 201.828,370.489 205.828,378.656 210.5,386.5C 193.146,383.647 178.813,375.314 167.5,361.5 Z"/></g>
</svg>
