<?xml version="1.0" encoding="UTF-8"?>
<!DOCTYPE svg PUBLIC "-//W3C//DTD SVG 1.1//EN" "http://www.w3.org/Graphics/SVG/1.1/DTD/svg11.dtd">
<svg xmlns="http://www.w3.org/2000/svg" version="1.1" width="512px" height="512px" style="shape-rendering:geometricPrecision; text-rendering:geometricPrecision; image-rendering:optimizeQuality; fill-rule:evenodd; clip-rule:evenodd" xmlns:xlink="http://www.w3.org/1999/xlink">
<g><path style="opacity:0.993" fill="#010000" d="M 511.5,164.5 C 511.5,189.167 511.5,213.833 511.5,238.5C 508.418,246.402 502.584,250.735 494,251.5C 456.679,238.573 418.846,237.073 380.5,247C 373.106,248.962 366.106,251.796 359.5,255.5C 376.827,263.916 395.16,268.749 414.5,270C 442.107,272.362 468.941,268.862 495,259.5C 503.224,260.006 508.724,264.006 511.5,271.5C 511.5,296.833 511.5,322.167 511.5,347.5C 494.185,374.978 471.185,396.478 442.5,412C 387.384,440.592 328.717,454.759 266.5,454.5C 213.592,454.968 162.592,445.468 113.5,426C 77.9799,411.796 48.1466,389.962 24,360.5C 11.4194,343.345 3.25278,324.345 -0.5,303.5C -0.5,271.5 -0.5,239.5 -0.5,207.5C 5.59776,175.48 20.9311,148.647 45.5,127C 78.3284,99.5842 115.662,80.5842 157.5,70C 238.733,49.541 319.067,52.541 398.5,79C 436.017,92.2163 468.517,113.05 496,141.5C 502.208,148.62 507.375,156.287 511.5,164.5 Z"/></g>
<g><path style="opacity:1" fill="#ee524f" d="M 441.5,138.5 C 432.167,139.167 422.833,139.833 413.5,140.5C 382.074,141.92 353.407,151.42 327.5,169C 315.037,178.606 305.704,190.606 299.5,205C 280.833,205.667 262.167,205.667 243.5,205C 235.283,190.882 223.283,181.548 207.5,177C 184.331,169.691 161.998,171.691 140.5,183C 131.307,188.026 124.307,195.193 119.5,204.5C 91.1725,205.667 62.8392,205.833 34.5,205C 38.3199,190.525 45.1532,177.692 55,166.5C 77.6523,142.576 104.486,124.742 135.5,113C 204.43,88.2223 274.763,83.5557 346.5,99C 380.815,106.168 412.482,119.335 441.5,138.5 Z"/></g>
<g><path style="opacity:0.945" fill="#662322" d="M 441.5,138.5 C 442.289,138.783 442.956,139.283 443.5,140C 433.506,140.5 423.506,140.666 413.5,140.5C 422.833,139.833 432.167,139.167 441.5,138.5 Z"/></g>
<g><path style="opacity:1" fill="#cf2e2e" d="M 416.5,172.5 C 437.2,171.743 457.534,174.077 477.5,179.5C 477.832,190.187 477.499,200.854 476.5,211.5C 425.711,199.079 377.711,205.746 332.5,231.5C 330.068,225.575 329.902,219.575 332,213.5C 340.282,199.58 352.115,189.747 367.5,184C 383.439,177.917 399.772,174.083 416.5,172.5 Z"/></g>
<g><path style="opacity:1" fill="#f7f7f7" d="M 169.5,206.5 C 185.243,203.775 199.41,207.109 212,216.5C 214.19,218.783 214.857,221.449 214,224.5C 208.506,232.171 201.006,236.671 191.5,238C 176.367,241.22 162.867,238.054 151,228.5C 146.868,221.222 148.702,215.722 156.5,212C 160.741,209.651 165.075,207.818 169.5,206.5 Z"/></g>
<g><path style="opacity:1" fill="#7e2b29" d="M 118.5,239.5 C 90.8333,239.5 63.1667,239.5 35.5,239.5C 35.5,240.5 35.5,241.5 35.5,242.5C 34.5655,241.432 34.2322,240.099 34.5,238.5C 62.6716,238.169 90.6716,238.502 118.5,239.5 Z"/></g>
<g><path style="opacity:1" fill="#ed524f" d="M 408.5,304.5 C 419.5,305.167 430.5,305.833 441.5,306.5C 409.222,326.963 374.222,340.796 336.5,348C 267.978,361.134 200.978,355.8 135.5,332C 102.359,319.527 74.1926,300.027 51,273.5C 43.7135,264.26 38.5468,253.927 35.5,242.5C 35.5,241.5 35.5,240.5 35.5,239.5C 63.1667,239.5 90.8333,239.5 118.5,239.5C 132.837,261.585 153.337,272.252 180,271.5C 202.777,272.247 222.11,264.58 238,248.5C 239.833,245.5 241.667,242.5 243.5,239.5C 262.158,238.334 280.824,238.167 299.5,239C 303.506,251.341 310.506,261.675 320.5,270C 346.404,290.114 375.738,301.614 408.5,304.5 Z"/></g>
<g><path style="opacity:1" fill="#722c2b" d="M 408.5,304.5 C 420.171,304.333 431.838,304.5 443.5,305C 442.956,305.717 442.289,306.217 441.5,306.5C 430.5,305.833 419.5,305.167 408.5,304.5 Z"/></g>
<g><path style="opacity:1" fill="#5f7b89" d="M 35.5,307.5 C 74.3791,343.61 120.046,367.11 172.5,378C 260.316,397.267 345.316,388.934 427.5,353C 445.042,344.274 461.375,333.774 476.5,321.5C 477.664,327.472 477.83,333.472 477,339.5C 458.578,361.911 436.078,379.077 409.5,391C 331.548,423.585 251.548,429.585 169.5,409C 133.79,399.976 101.456,384.31 72.5,362C 60.8229,351.996 50.9895,340.496 43,327.5C 39.6461,321.131 37.1461,314.464 35.5,307.5 Z"/></g>
</svg>
