<?xml version="1.0" encoding="UTF-8"?>
<!DOCTYPE svg PUBLIC "-//W3C//DTD SVG 1.1//EN" "http://www.w3.org/Graphics/SVG/1.1/DTD/svg11.dtd">
<svg xmlns="http://www.w3.org/2000/svg" version="1.1" width="512px" height="512px" style="shape-rendering:geometricPrecision; text-rendering:geometricPrecision; image-rendering:optimizeQuality; fill-rule:evenodd; clip-rule:evenodd" xmlns:xlink="http://www.w3.org/1999/xlink">
<g><path style="opacity:0.981" fill="#030201" d="M 229.5,-0.5 C 246.833,-0.5 264.167,-0.5 281.5,-0.5C 419.818,14.4868 492.818,91.4868 500.5,230.5C 499.116,307.075 471.116,371.908 416.5,425C 412.91,426.822 409.243,426.989 405.5,425.5C 405.085,423.253 404.418,421.086 403.5,419C 403.625,417.373 404.125,415.873 405,414.5C 464.505,356.004 490.838,285.004 484,201.5C 479.079,165.225 466.579,131.892 446.5,101.5C 441.075,104.213 435.741,106.879 430.5,109.5C 422.009,112.441 413.676,115.775 405.5,119.5C 431.555,203.067 428.889,285.733 397.5,367.5C 385.816,395.208 370.316,420.541 351,443.5C 344.768,449.386 339.101,455.386 334,461.5C 350.363,454.072 365.863,445.239 380.5,435C 384.655,433.946 388.322,434.78 391.5,437.5C 391.421,438.93 391.754,440.264 392.5,441.5C 390.779,446.057 387.779,449.557 383.5,452C 370.109,460.697 356.109,468.364 341.5,475C 326.833,480.333 312.167,485.667 297.5,491C 286.067,498.378 274.4,505.211 262.5,511.5C 257.833,511.5 253.167,511.5 248.5,511.5C 236.6,505.211 224.933,498.378 213.5,491C 126.158,466.093 64.6582,411.926 29,328.5C 0.524341,252.863 4.85767,179.196 42,107.5C 67.2176,64.2887 103.384,34.122 150.5,17C 176.245,7.8871 202.578,2.05377 229.5,-0.5 Z"/></g>
<g><path style="opacity:1" fill="#fcf6e0" d="M 389.5,48.5 C 403.124,62.4656 414.458,78.1322 423.5,95.5C 377.501,114.783 329.501,125.616 279.5,128C 240.8,129.936 202.467,127.102 164.5,119.5C 160.357,119.654 157.691,121.654 156.5,125.5C 150.128,123.99 143.795,122.324 137.5,120.5C 138.178,116.727 136.844,113.894 133.5,112C 112.628,106.489 92.6278,98.8224 73.5,89C 100.996,57.5706 134.996,36.2372 175.5,25C 237.38,8.62858 298.38,11.2952 358.5,33C 369.418,37.1255 379.751,42.2922 389.5,48.5 Z"/></g>
<g><path style="opacity:1" fill="#060605" d="M 212.5,28.5 C 219.676,28.173 222.842,31.5064 222,38.5C 212.183,60.6194 205.183,83.6194 201,107.5C 198.928,112.143 195.428,113.643 190.5,112C 188.145,110.294 186.811,107.96 186.5,105C 190.675,79.4611 198.175,54.9611 209,31.5C 210.145,30.3636 211.312,29.3636 212.5,28.5 Z"/></g>
<g><path style="opacity:1" fill="#050505" d="M 293.5,28.5 C 296.862,28.0695 299.695,29.0695 302,31.5C 312.53,55.0634 320.03,79.5634 324.5,105C 323.424,111.41 319.757,113.743 313.5,112C 311.951,110.786 310.785,109.286 310,107.5C 305.816,83.617 298.816,60.617 289,38.5C 288.077,34.0165 289.577,30.6832 293.5,28.5 Z"/></g>
<g><path style="opacity:1" fill="#060605" d="M 139.5,50.5 C 147.794,49.0363 151.294,52.3696 150,60.5C 142.251,70.9922 135.251,81.9922 129,93.5C 123.785,98.0192 119.451,97.3525 116,91.5C 115.333,89.8333 115.333,88.1667 116,86.5C 122.6,73.6176 130.433,61.6176 139.5,50.5 Z"/></g>
<g><path style="opacity:1" fill="#060605" d="M 364.5,50.5 C 368.909,49.6185 372.409,50.9518 375,54.5C 383.244,65.1534 390.077,76.6534 395.5,89C 394.424,95.4098 390.757,97.7431 384.5,96C 377.392,84.5606 369.892,73.394 362,62.5C 359.523,57.6692 360.356,53.6692 364.5,50.5 Z"/></g>
<g><path style="opacity:1" fill="#f5eec2" d="M 389.5,48.5 C 407.729,59.2181 423.729,72.7181 437.5,89C 433.056,91.648 428.389,93.8146 423.5,95.5C 414.458,78.1322 403.124,62.4656 389.5,48.5 Z"/></g>
<g><path style="opacity:1" fill="#c4855b" d="M 63.5,101.5 C 77.2733,107.815 91.2733,113.648 105.5,119C 80.411,198.934 81.911,278.434 110,357.5C 124.891,397.362 147.224,432.028 177,461.5C 101.6,425.759 53.2671,367.426 32,286.5C 17.4497,220.467 27.9497,158.8 63.5,101.5 Z"/></g>
<g><path style="opacity:1" fill="#af6d3c" d="M 405.5,425.5 C 400.514,429.155 395.847,433.155 391.5,437.5C 388.322,434.78 384.655,433.946 380.5,435C 365.863,445.239 350.363,454.072 334,461.5C 339.101,455.386 344.768,449.386 351,443.5C 370.316,420.541 385.816,395.208 397.5,367.5C 397.369,368.239 397.536,368.906 398,369.5C 449.436,300.815 464.436,224.815 443,141.5C 439.61,130.41 435.444,119.743 430.5,109.5C 435.741,106.879 441.075,104.213 446.5,101.5C 466.579,131.892 479.079,165.225 484,201.5C 490.838,285.004 464.505,356.004 405,414.5C 404.125,415.873 403.625,417.373 403.5,419C 404.418,421.086 405.085,423.253 405.5,425.5 Z"/></g>
<g><path style="opacity:1" fill="#c4845b" d="M 430.5,109.5 C 435.444,119.743 439.61,130.41 443,141.5C 464.436,224.815 449.436,300.815 398,369.5C 397.536,368.906 397.369,368.239 397.5,367.5C 428.889,285.733 431.555,203.067 405.5,119.5C 413.676,115.775 422.009,112.441 430.5,109.5 Z"/></g>
<g><path style="opacity:1" fill="#c4855b" d="M 137.5,120.5 C 143.795,122.324 150.128,123.99 156.5,125.5C 156.695,129.196 158.362,132.029 161.5,134C 168.728,135.866 176.062,137.033 183.5,137.5C 172.59,231.604 178.423,324.604 201,416.5C 203.769,425.474 206.936,434.308 210.5,443C 204.487,446.627 198.154,449.794 191.5,452.5C 168.651,432.817 150.484,409.483 137,382.5C 101.097,304.903 93.4304,224.57 114,141.5C 115.601,135.363 117.601,129.363 120,123.5C 125.208,126.762 130.375,126.929 135.5,124C 136.305,122.887 136.972,121.721 137.5,120.5 Z"/></g>
<g><path style="opacity:1" fill="#c5855b" d="M 354.5,414.5 C 338.832,426.34 322.165,436.673 304.5,445.5C 302.365,445.853 301.032,445.02 300.5,443C 313.668,405.828 322.501,367.661 327,328.5C 331.328,289.614 332.995,250.614 332,211.5C 330.607,208.634 328.274,207.301 325,207.5C 321.765,207.283 319.432,208.617 318,211.5C 319.289,277.761 312.289,343.095 297,407.5C 293.534,418.23 289.868,428.897 286,439.5C 285.275,440.059 284.442,440.392 283.5,440.5C 264.28,436.606 245.113,436.606 226,440.5C 218.403,421.706 212.403,402.373 208,382.5C 192.471,302.322 189.304,221.656 198.5,140.5C 215.958,141.961 233.458,142.628 251,142.5C 271.528,142.369 292.028,141.869 312.5,141C 314.024,153.413 315.191,165.913 316,178.5C 319.692,185.637 324.359,186.304 330,180.5C 330.096,166.121 329.263,151.788 327.5,137.5C 348.801,134.922 369.635,130.255 390,123.5C 390.5,123.833 391,124.167 391.5,124.5C 406.523,169.352 411.689,215.352 407,262.5C 402.78,310.382 389.113,355.382 366,397.5C 362.304,403.344 358.47,409.011 354.5,414.5 Z"/></g>
<g><path style="opacity:1" fill="#ad6c3c" d="M 354.5,414.5 C 345.165,428.676 333.831,441.176 320.5,452C 315.071,450.133 309.738,447.966 304.5,445.5C 322.165,436.673 338.832,426.34 354.5,414.5 Z"/></g>
<g><path style="opacity:1" fill="#f9f3dd" d="M 279.5,454.5 C 273.175,456.332 266.841,458.498 260.5,461C 248.763,466.928 237.429,473.428 226.5,480.5C 216.635,475.236 206.301,471.069 195.5,468C 208.947,459.628 223.614,454.628 239.5,453C 252.907,452.058 266.24,452.558 279.5,454.5 Z"/></g>
<g><path style="opacity:1" fill="#f8f1c4" d="M 279.5,454.5 C 292.239,456.857 304.239,461.19 315.5,467.5C 295.959,473.77 277.959,482.937 261.5,495C 258.262,496.368 254.928,496.701 251.5,496C 243.103,490.808 234.769,485.642 226.5,480.5C 237.429,473.428 248.763,466.928 260.5,461C 266.841,458.498 273.175,456.332 279.5,454.5 Z"/></g>
</svg>
