<?xml version="1.0" encoding="UTF-8"?>
<!DOCTYPE svg PUBLIC "-//W3C//DTD SVG 1.1//EN" "http://www.w3.org/Graphics/SVG/1.1/DTD/svg11.dtd">
<svg xmlns="http://www.w3.org/2000/svg" version="1.1" width="512px" height="512px" style="shape-rendering:geometricPrecision; text-rendering:geometricPrecision; image-rendering:optimizeQuality; fill-rule:evenodd; clip-rule:evenodd" xmlns:xlink="http://www.w3.org/1999/xlink">
<g><path style="opacity:0.975" fill="#030202" d="M 124.5,-0.5 C 127.167,-0.5 129.833,-0.5 132.5,-0.5C 133.172,0.267389 134.005,0.934056 135,1.5C 137.374,7.49489 140.207,13.1616 143.5,18.5C 163.514,14.3082 182.848,16.4749 201.5,25C 238.975,43.6275 270.309,69.7942 295.5,103.5C 313.4,88.0425 333.4,75.8759 355.5,67C 372.21,61.3961 389.21,60.0628 406.5,63C 408.857,58.2675 411.023,53.4342 413,48.5C 415.955,44.7235 419.788,43.5568 424.5,45C 426.871,46.7432 428.205,49.0766 428.5,52C 426.855,58.0986 424.522,63.9319 421.5,69.5C 437.858,81.5293 449.358,97.196 456,116.5C 465.53,147.135 468.864,178.469 466,210.5C 465.597,215.867 464.93,221.201 464,226.5C 462.285,229.397 459.785,230.731 456.5,230.5C 453.325,230.16 451.159,228.493 450,225.5C 451.145,206.53 451.478,187.53 451,168.5C 449.597,152.076 446.264,136.076 441,120.5C 435.749,105.984 427.082,93.984 415,84.5C 412.211,89.7004 409.711,95.0337 407.5,100.5C 378.848,165.807 350.181,231.141 321.5,296.5C 332.25,306.417 341.75,317.417 350,329.5C 354.005,336.506 357.171,343.839 359.5,351.5C 360.234,352.708 360.567,354.041 360.5,355.5C 380.985,351.172 397.818,340.838 411,324.5C 427.726,301.705 439.059,276.371 445,248.5C 446.894,245.156 449.727,243.822 453.5,244.5C 457.168,245.667 459.168,248.167 459.5,252C 453.482,285.862 439.316,315.696 417,341.5C 401.843,356.316 384.009,366.483 363.5,372C 363.894,423.88 343.227,465.213 301.5,496C 288.667,503.662 275,508.829 260.5,511.5C 250.833,511.5 241.167,511.5 231.5,511.5C 206.934,506.722 184.267,497.222 163.5,483C 120.018,452.86 87.518,413.693 66,365.5C 59.2138,348.784 56.5472,331.451 58,313.5C 58.6472,307.743 60.1472,302.243 62.5,297C 57.1667,294 51.8333,291 46.5,288C 42.4054,280.73 44.2387,275.896 52,273.5C 58.1752,275.843 64.0085,278.843 69.5,282.5C 79.4686,270.719 91.8019,262.219 106.5,257C 90.8822,223.247 83.0488,187.747 83,150.5C 84.1585,147.507 86.3252,145.84 89.5,145.5C 93.5587,145.72 96.392,147.72 98,151.5C 98.5722,186.774 106.405,220.274 121.5,252C 128.461,251.196 135.461,250.196 142.5,249C 165.238,248.028 187.905,248.861 210.5,251.5C 211.563,242.223 213.23,233.056 215.5,224C 188.978,162.258 161.978,100.758 134.5,39.5C 119.686,51.1004 109.853,66.1004 105,84.5C 101.553,97.2977 99.2193,110.298 98,123.5C 97.6258,124.416 97.1258,125.25 96.5,126C 94.3885,126.845 92.3885,127.678 90.5,128.5C 84.7983,127.291 82.465,123.791 83.5,118C 84.866,90.0011 93.366,64.5011 109,41.5C 114.743,35.2525 120.909,29.5859 127.5,24.5C 124.744,18.8236 122.411,12.9902 120.5,7C 120.927,3.97656 122.261,1.47656 124.5,-0.5 Z"/></g>
<g><path style="opacity:1" fill="#f7ecd5" d="M 169.5,32.5 C 212.448,54.4445 246.448,86.1112 271.5,127.5C 251.843,150.122 235.677,175.122 223,202.5C 198.184,146.197 173.35,89.8638 148.5,33.5C 152.299,31.9499 156.299,31.2832 160.5,31.5C 163.686,31.502 166.686,31.8353 169.5,32.5 Z"/></g>
<g><path style="opacity:1" fill="#e6ddc0" d="M 169.5,32.5 C 182.974,34.1581 195.641,38.3248 207.5,45C 237.861,63.0208 263.527,86.3541 284.5,115C 280.298,119.37 275.964,123.537 271.5,127.5C 246.448,86.1112 212.448,54.4445 169.5,32.5 Z"/></g>
<g><path style="opacity:1" fill="#d3c4ac" d="M 89.5,145.5 C 89.313,139.788 89.6463,134.121 90.5,128.5C 92.3885,127.678 94.3885,126.845 96.5,126C 97.1258,125.25 97.6258,124.416 98,123.5C 99.2193,110.298 101.553,97.2977 105,84.5C 109.853,66.1004 119.686,51.1004 134.5,39.5C 161.978,100.758 188.978,162.258 215.5,224C 213.23,233.056 211.563,242.223 210.5,251.5C 187.905,248.861 165.238,248.028 142.5,249C 135.461,250.196 128.461,251.196 121.5,252C 106.405,220.274 98.5722,186.774 98,151.5C 96.392,147.72 93.5587,145.72 89.5,145.5 Z"/></g>
<g><path style="opacity:1" fill="#f7ecd5" d="M 379.5,76.5 C 386.515,76.5782 393.515,76.9115 400.5,77.5C 370.46,147.251 340.127,216.918 309.5,286.5C 308.635,287.583 307.635,287.749 306.5,287C 281.4,271.688 254.4,261.188 225.5,255.5C 227.656,227.533 236.489,201.866 252,178.5C 273.076,144.757 300.242,116.924 333.5,95C 347.937,86.2703 363.27,80.1036 379.5,76.5 Z"/></g>
<g><path style="opacity:1" fill="#bdb099" d="M 456.5,230.5 C 455.5,235.167 454.5,239.833 453.5,244.5C 449.727,243.822 446.894,245.156 445,248.5C 439.059,276.371 427.726,301.705 411,324.5C 397.818,340.838 380.985,351.172 360.5,355.5C 360.567,354.041 360.234,352.708 359.5,351.5C 362.714,350.56 365.714,349.06 368.5,347C 390.265,328.661 405.432,305.827 414,278.5C 430.518,228.447 432.851,177.78 421,126.5C 418.553,118.939 415.553,111.606 412,104.5C 411.124,102.365 409.624,101.031 407.5,100.5C 409.711,95.0337 412.211,89.7004 415,84.5C 427.082,93.984 435.749,105.984 441,120.5C 446.264,136.076 449.597,152.076 451,168.5C 451.478,187.53 451.145,206.53 450,225.5C 451.159,228.493 453.325,230.16 456.5,230.5 Z"/></g>
<g><path style="opacity:1" fill="#d4c5ac" d="M 407.5,100.5 C 409.624,101.031 411.124,102.365 412,104.5C 415.553,111.606 418.553,118.939 421,126.5C 432.851,177.78 430.518,228.447 414,278.5C 405.432,305.827 390.265,328.661 368.5,347C 365.714,349.06 362.714,350.56 359.5,351.5C 357.171,343.839 354.005,336.506 350,329.5C 341.75,317.417 332.25,306.417 321.5,296.5C 350.181,231.141 378.848,165.807 407.5,100.5 Z"/></g>
<g><path style="opacity:1" fill="#f8edd6" d="M 226.5,270.5 C 245.805,277.821 264.138,287.321 281.5,299C 322.963,330.061 335.463,370.228 319,419.5C 318.583,420.756 317.75,421.423 316.5,421.5C 238.74,378.256 161.073,334.756 83.5,291C 98.0573,276.222 115.724,267.555 136.5,265C 166.83,261.714 196.83,263.547 226.5,270.5 Z"/></g>
<g><path style="opacity:1" fill="#e6ddc1" d="M 226.5,270.5 C 258.281,277.727 287.281,290.893 313.5,310C 352.377,345.054 359.543,385.887 335,432.5C 328.687,428.933 322.521,425.266 316.5,421.5C 317.75,421.423 318.583,420.756 319,419.5C 335.463,370.228 322.963,330.061 281.5,299C 264.138,287.321 245.805,277.821 226.5,270.5 Z"/></g>
<g><path style="opacity:1" fill="#d4c5ac" d="M 310.5,436.5 C 294.787,464.044 272.12,483.544 242.5,495C 239.854,495.497 237.187,495.664 234.5,495.5C 215.504,492.667 197.838,486.167 181.5,476C 147,453.5 118.5,425 96,390.5C 84.9209,372.927 77.5876,353.927 74,333.5C 73.012,323.715 73.512,314.049 75.5,304.5C 76.552,304.351 77.552,304.517 78.5,305C 156.058,348.608 233.392,392.441 310.5,436.5 Z"/></g>
<g><path style="opacity:1" fill="#bcaf99" d="M 310.5,436.5 C 315.757,438.462 320.757,440.962 325.5,444C 326.357,444.689 327.023,445.522 327.5,446.5C 313.701,470.225 293.701,486.058 267.5,494C 256.425,496.347 245.425,496.847 234.5,495.5C 237.187,495.664 239.854,495.497 242.5,495C 272.12,483.544 294.787,464.044 310.5,436.5 Z"/></g>
</svg>
