<?xml version="1.0" encoding="UTF-8"?>
<!DOCTYPE svg PUBLIC "-//W3C//DTD SVG 1.1//EN" "http://www.w3.org/Graphics/SVG/1.1/DTD/svg11.dtd">
<svg xmlns="http://www.w3.org/2000/svg" version="1.1" width="512px" height="512px" style="shape-rendering:geometricPrecision; text-rendering:geometricPrecision; image-rendering:optimizeQuality; fill-rule:evenodd; clip-rule:evenodd" xmlns:xlink="http://www.w3.org/1999/xlink">
<g><path style="opacity:0.992" fill="#010101" d="M 50.5,-0.5 C 151.833,-0.5 253.167,-0.5 354.5,-0.5C 368.791,3.62546 377.958,12.9588 382,27.5C 382.667,43.1667 382.667,58.8333 382,74.5C 378.353,79.1132 373.52,80.7798 367.5,79.5C 367.169,87.5277 367.502,95.5277 368.5,103.5C 385.349,110.849 396.849,123.183 403,140.5C 464.788,166.434 500.955,212.434 511.5,278.5C 511.5,290.833 511.5,303.167 511.5,315.5C 508.479,338.397 501.312,360.064 490,380.5C 486.048,384.098 481.548,385.098 476.5,383.5C 472.724,379.95 471.224,375.616 472,370.5C 502.767,310.572 497.434,254.239 456,201.5C 409.357,153.185 354.191,140.018 290.5,162C 240.44,184.738 210.607,223.238 201,277.5C 195.77,349.239 225.27,400.739 289.5,432C 320.495,443.727 352.161,445.727 384.5,438C 394.808,434.786 404.808,430.786 414.5,426C 419.678,425.264 424.012,426.764 427.5,430.5C 428.954,434.702 428.454,438.702 426,442.5C 419.719,446.594 413.052,449.928 406,452.5C 403.384,483.94 386.884,503.606 356.5,511.5C 253.833,511.5 151.167,511.5 48.5,511.5C 22.5,504.833 6.16667,488.5 -0.5,462.5C -0.5,357.833 -0.5,253.167 -0.5,148.5C 4.48785,127.558 16.8212,112.558 36.5,103.5C 37.4977,95.5277 37.831,87.5277 37.5,79.5C 31.4801,80.7798 26.6467,79.1132 23,74.5C 22.3333,58.8333 22.3333,43.1667 23,27.5C 26.9893,13.0112 36.156,3.67788 50.5,-0.5 Z"/></g>
<g><path style="opacity:1" fill="#fee5b3" d="M 54.5,19.5 C 153.167,19.3333 251.834,19.5 350.5,20C 356.36,21.8595 360.193,25.6928 362,31.5C 362.5,40.8274 362.666,50.1607 362.5,59.5C 255.833,59.5 149.167,59.5 42.5,59.5C 42.3335,50.1607 42.5002,40.8274 43,31.5C 45.0188,25.6498 48.8522,21.6498 54.5,19.5 Z"/></g>
<g><path style="opacity:1" fill="#fcfcfc" d="M 88.5,150.5 C 66.1667,149.833 43.8333,149.167 21.5,148.5C 25.5771,134.589 34.5771,125.422 48.5,121C 124.833,120.667 201.167,120.333 277.5,120C 282.419,117.259 284.252,113.092 283,107.5C 281.833,105 280,103.167 277.5,102C 204.167,101.5 130.834,101.333 57.5,101.5C 57.5,94.1667 57.5,86.8333 57.5,79.5C 154.167,79.5 250.833,79.5 347.5,79.5C 347.061,91.9085 347.561,104.242 349,116.5C 349.833,117.333 350.667,118.167 351.5,119C 360.454,121.471 368.121,125.971 374.5,132.5C 311.33,125.049 258.83,145.049 217,192.5C 204.831,207.83 195.498,224.83 189,243.5C 178.885,247.114 168.551,250.114 158,252.5C 152.684,250.727 147.518,248.56 142.5,246C 141,245.833 139.5,245.667 138,245.5C 131.834,246.555 125.834,248.222 120,250.5C 113.542,248.354 107.042,246.354 100.5,244.5C 95.0445,246.263 89.5445,247.929 84,249.5C 79.6696,248.086 75.503,246.253 71.5,244C 69.0912,243.065 66.5912,242.565 64,242.5C 57.7452,243.917 51.5785,245.75 45.5,248C 37.5,248.667 29.5,248.667 21.5,248C 19.5144,222.06 18.8477,195.894 19.5,169.5C 43.169,169.667 66.8357,169.5 90.5,169C 96.2137,165.523 97.7137,160.69 95,154.5C 93.3621,152.266 91.1955,150.933 88.5,150.5 Z"/></g>
<g><path style="opacity:1" fill="#878787" d="M 21.5,148.5 C 43.8333,149.167 66.1667,149.833 88.5,150.5C 65.8235,150.833 43.1569,150.5 20.5,149.5C 20.6236,148.893 20.9569,148.56 21.5,148.5 Z"/></g>
<g><path style="opacity:1" fill="#030303" d="M 161.5,150.5 C 176.504,150.333 191.504,150.5 206.5,151C 212.484,154.363 213.984,159.197 211,165.5C 209.786,167.049 208.286,168.215 206.5,169C 191.5,169.667 176.5,169.667 161.5,169C 153.565,162.838 153.565,156.671 161.5,150.5 Z"/></g>
<g><path style="opacity:1" fill="#fde4b2" d="M 476.5,383.5 C 472.253,390.084 467.253,396.084 461.5,401.5C 449.619,396.89 444.119,400.89 445,413.5C 445.791,414.745 446.291,416.078 446.5,417.5C 440.34,422.08 434.007,426.414 427.5,430.5C 424.012,426.764 419.678,425.264 414.5,426C 404.808,430.786 394.808,434.786 384.5,438C 352.161,445.727 320.495,443.727 289.5,432C 225.27,400.739 195.77,349.239 201,277.5C 210.607,223.238 240.44,184.738 290.5,162C 354.191,140.018 409.357,153.185 456,201.5C 497.434,254.239 502.767,310.572 472,370.5C 471.224,375.616 472.724,379.95 476.5,383.5 Z"/></g>
<g><path style="opacity:1" fill="#030202" d="M 342.5,192.5 C 346.131,192.16 349.464,192.994 352.5,195C 358.341,202.338 364.341,209.504 370.5,216.5C 376.355,211.477 382.355,206.644 388.5,202C 395.532,199.461 400.699,201.627 404,208.5C 408.361,216.56 412.694,224.56 417,232.5C 425.951,227.608 435.118,223.108 444.5,219C 455.592,217.091 460.592,221.757 459.5,233C 457.56,284.868 437.56,328.201 399.5,363C 392.67,368.415 385.004,372.248 376.5,374.5C 375.667,389.489 375.167,404.489 375,419.5C 373.612,422.945 371.112,425.111 367.5,426C 352.5,426.667 337.5,426.667 322.5,426C 319.272,424.437 317.105,421.937 316,418.5C 315.5,403.837 315.333,389.17 315.5,374.5C 305.434,372.134 296.434,367.634 288.5,361C 249.736,323.945 230.902,278.445 232,224.5C 234.919,218.975 239.419,217.142 245.5,219C 254.955,223.228 264.289,227.728 273.5,232.5C 279.011,222.652 284.678,212.819 290.5,203C 293.217,200.924 296.217,200.257 299.5,201C 306.931,205.928 313.931,211.428 320.5,217.5C 327.169,208.503 334.503,200.169 342.5,192.5 Z"/></g>
<g><path style="opacity:1" fill="#cface3" d="M 336.5,324.5 C 335.833,335.833 335.167,347.167 334.5,358.5C 321.279,343.036 313.779,325.036 312,304.5C 310.672,288.806 313.339,273.806 320,259.5C 326.511,244.454 335.011,230.787 345.5,218.5C 362.187,237.539 373.354,259.539 379,284.5C 381.092,307.798 376.092,329.465 364,349.5C 361.705,352.797 359.038,355.797 356,358.5C 355.961,346.071 355.294,333.738 354,321.5C 346.804,315.449 340.97,316.449 336.5,324.5 Z"/></g>
<g><path style="opacity:1" fill="#cba9df" d="M 299.5,226.5 C 303.255,228.748 306.588,231.582 309.5,235C 300.872,250.885 295.039,267.718 292,285.5C 291.263,296.908 291.93,308.241 294,319.5C 296.365,327.916 298.699,336.249 301,344.5C 286.664,331.172 279.497,314.672 279.5,295C 281.007,270.648 287.674,247.814 299.5,226.5 Z"/></g>
<g><path style="opacity:1" fill="#c9a7dc" d="M 389.5,226.5 C 393.035,230.539 395.869,235.206 398,240.5C 406.033,257.799 410.533,275.965 411.5,295C 411.02,314.455 403.854,330.955 390,344.5C 393.036,334.706 395.702,324.706 398,314.5C 401.573,293.032 398.907,272.365 390,252.5C 387.031,246.728 384.197,240.895 381.5,235C 383.941,231.948 386.607,229.115 389.5,226.5 Z"/></g>
<g><path style="opacity:1" fill="#c7a6da" d="M 252.5,244.5 C 256.598,246.048 260.598,247.881 264.5,250C 265.804,250.804 266.471,251.971 266.5,253.5C 264.142,262.456 261.976,271.456 260,280.5C 255.902,268.843 253.402,256.843 252.5,244.5 Z"/></g>
<g><path style="opacity:1" fill="#cba9df" d="M 436.5,244.5 C 437.376,244.369 438.043,244.702 438.5,245.5C 437.231,257.179 434.565,268.512 430.5,279.5C 428.949,270.294 426.615,261.294 423.5,252.5C 427.694,249.571 432.027,246.905 436.5,244.5 Z"/></g>
<g><path style="opacity:1" fill="#fd7a78" d="M 59.5,263.5 C 62.2492,263.274 64.9159,263.607 67.5,264.5C 67.0723,275.898 72.4056,280.065 83.5,277C 85.7433,274.512 87.7433,271.846 89.5,269C 93.2755,267.63 97.1088,266.464 101,265.5C 107.139,267.602 113.306,269.602 119.5,271.5C 125.699,270.1 131.699,268.1 137.5,265.5C 143.565,268.705 149.898,271.038 156.5,272.5C 165.175,270.831 173.841,269.164 182.5,267.5C 180.427,284.462 179.927,301.462 181,318.5C 177.284,316.066 173.451,315.899 169.5,318C 164.35,322.47 161.517,327.97 161,334.5C 164.373,342.701 169.873,344.535 177.5,340C 179.34,337.331 181.34,334.831 183.5,332.5C 195.435,381.253 223.102,418.086 266.5,443C 256.899,444.24 253.399,449.406 256,458.5C 257.812,461.28 259.979,463.78 262.5,466C 272.783,469.05 277.95,465.216 278,454.5C 275.558,451.916 274.058,449.25 273.5,446.5C 309.043,463.229 346.043,467.229 384.5,458.5C 383.785,464.151 381.618,469.151 378,473.5C 374.535,471.037 371.369,468.204 368.5,465C 357.597,462.042 352.764,466.209 354,477.5C 356.463,480.965 359.296,484.131 362.5,487C 358.802,489.122 354.802,490.455 350.5,491C 267.833,491.667 185.167,491.667 102.5,491C 109.429,481.35 107.262,474.85 96,471.5C 92.5753,471.919 89.9086,473.586 88,476.5C 84.9577,481.419 81.791,486.252 78.5,491C 70.1667,491.667 61.8333,491.667 53.5,491C 34.0838,486.918 22.9171,475.085 20,455.5C 19.5,393.168 19.3333,330.834 19.5,268.5C 28.8393,268.666 38.1726,268.5 47.5,268C 51.7152,266.766 55.7152,265.266 59.5,263.5 Z"/></g>
<g><path style="opacity:1" fill="#0a0404" d="M 102.5,287.5 C 110.019,287.177 115.186,290.51 118,297.5C 120.498,307.334 116.664,312.167 106.5,312C 100.59,308.742 96.9232,303.742 95.5,297C 96.5164,292.823 98.8497,289.656 102.5,287.5 Z"/></g>
<g><path style="opacity:1" fill="#362e3c" d="M 336.5,324.5 C 336.832,336.186 336.499,347.852 335.5,359.5C 334.893,359.376 334.56,359.043 334.5,358.5C 335.167,347.167 335.833,335.833 336.5,324.5 Z"/></g>
<g><path style="opacity:1" fill="#060202" d="M 88.5,340.5 C 92.4102,340.263 96.0769,341.096 99.5,343C 105,347.167 110.5,351.333 116,355.5C 120.676,366.162 117.176,371.662 105.5,372C 98.144,367.321 91.144,362.155 84.5,356.5C 81.147,349.918 82.4803,344.585 88.5,340.5 Z"/></g>
<g><path style="opacity:1" fill="#fdfdfd" d="M 355.5,405.5 C 349.167,405.5 342.833,405.5 336.5,405.5C 336.175,398.313 336.509,391.313 337.5,384.5C 343.498,387.307 349.331,386.974 355,383.5C 355.5,390.826 355.666,398.159 355.5,405.5 Z"/></g>
<g><path style="opacity:1" fill="#060202" d="M 172.5,391.5 C 175.607,391.351 178.607,391.851 181.5,393C 185.973,397.473 190.473,401.973 195,406.5C 199.444,415.499 196.777,421.166 187,423.5C 185.373,423.375 183.873,422.875 182.5,422C 178.027,417.527 173.527,413.027 169,408.5C 164.999,401.666 166.166,396 172.5,391.5 Z"/></g>
<g><path style="opacity:0.935" fill="#030202" d="M 461.5,401.5 C 466.125,408.292 465.125,414.125 458.5,419C 454.238,419.917 450.238,419.417 446.5,417.5C 446.291,416.078 445.791,414.745 445,413.5C 444.119,400.89 449.619,396.89 461.5,401.5 Z"/></g>
<g><path style="opacity:1" fill="#bababa" d="M 337.5,384.5 C 336.509,391.313 336.175,398.313 336.5,405.5C 342.833,405.5 349.167,405.5 355.5,405.5C 349.021,406.491 342.354,406.824 335.5,406.5C 335.169,398.804 335.503,391.138 336.5,383.5C 337.107,383.624 337.44,383.957 337.5,384.5 Z"/></g>
<g><path style="opacity:1" fill="#070302" d="M 82.5,417.5 C 93.8614,416.686 98.0281,421.686 95,432.5C 91.4187,436.752 87.252,440.252 82.5,443C 73.7139,443.547 69.5472,439.381 70,430.5C 73.6972,425.638 77.8639,421.304 82.5,417.5 Z"/></g>
<g><path style="opacity:1" fill="#090404" d="M 155.5,444.5 C 164.318,444.483 168.484,448.816 168,457.5C 165.704,461.744 162.537,465.244 158.5,468C 153.025,471.735 148.025,471.235 143.5,466.5C 140.617,461.753 140.95,457.253 144.5,453C 148.067,449.92 151.733,447.087 155.5,444.5 Z"/></g>
</svg>
