<?xml version="1.0" encoding="UTF-8"?>
<!DOCTYPE svg PUBLIC "-//W3C//DTD SVG 1.1//EN" "http://www.w3.org/Graphics/SVG/1.1/DTD/svg11.dtd">
<svg xmlns="http://www.w3.org/2000/svg" version="1.1" width="512px" height="512px" style="shape-rendering:geometricPrecision; text-rendering:geometricPrecision; image-rendering:optimizeQuality; fill-rule:evenodd; clip-rule:evenodd" xmlns:xlink="http://www.w3.org/1999/xlink">
<g><path style="opacity:0.989" fill="#0f0e0f" d="M 439.5,123.5 C 435.197,124.204 431.697,122.87 429,119.5C 424.368,104.572 418.368,90.2386 411,76.5C 410.25,75.8742 409.416,75.3742 408.5,75C 375.85,78.7678 347.183,91.4345 322.5,113C 339.342,122.255 356.342,131.255 373.5,140C 379.418,144.07 383.085,149.57 384.5,156.5C 403,148.375 422.333,143.375 442.5,141.5C 453.838,141.333 465.172,141.5 476.5,142C 489.799,141.526 499.633,147.026 506,158.5C 508.537,167.151 510.37,175.818 511.5,184.5C 511.5,197.5 511.5,210.5 511.5,223.5C 500.792,297.046 458.792,340.88 385.5,355C 382.711,362.263 378.044,367.93 371.5,372C 314.626,401.937 257.626,431.603 200.5,461C 193.725,463.1 187.059,462.767 180.5,460C 123.342,430.255 66.342,400.255 9.5,370C 5.10254,365.792 1.76921,360.958 -0.5,355.5C -0.5,288.833 -0.5,222.167 -0.5,155.5C 0.890847,153.04 2.05751,150.374 3,147.5C 6.5,144.667 10,141.833 13.5,139C 68.1667,110 122.833,81 177.5,52C 186.053,47.9658 194.72,47.6325 203.5,51C 236.99,67.9114 270.323,85.078 303.5,102.5C 332.222,76.1853 366.056,60.5186 405,55.5C 415.583,55.6824 423.917,60.0158 430,68.5C 438.004,82.8487 443.838,98.0154 447.5,114C 447.478,119.514 444.812,122.681 439.5,123.5 Z"/></g>
<g><path style="opacity:1" fill="#dc7146" d="M 41.5,169.5 C 34.9677,166.071 28.6343,162.404 22.5,158.5C 22.9528,157.542 23.6195,156.708 24.5,156C 80.3144,126.677 136.148,97.5106 192,68.5C 245.675,95.588 299.175,123.088 352.5,151C 353.711,151.893 353.711,152.726 352.5,153.5C 299.51,181.578 246.343,209.245 193,236.5C 147.622,213.468 102.456,189.968 57.5,166C 51.1052,163.12 45.7719,164.287 41.5,169.5 Z"/></g>
<g><path style="opacity:0.999" fill="#65a33c" d="M 439.5,123.5 C 440.686,129.469 441.686,135.469 442.5,141.5C 422.333,143.375 403,148.375 384.5,156.5C 383.085,149.57 379.418,144.07 373.5,140C 356.342,131.255 339.342,122.255 322.5,113C 347.183,91.4345 375.85,78.7678 408.5,75C 409.416,75.3742 410.25,75.8742 411,76.5C 418.368,90.2386 424.368,104.572 429,119.5C 431.697,122.87 435.197,124.204 439.5,123.5 Z"/></g>
<g><path style="opacity:1" fill="#131010" d="M 150.5,114.5 C 161.361,113.516 165.527,118.183 163,128.5C 157.942,133.383 152.609,133.716 147,129.5C 144.206,123.408 145.373,118.408 150.5,114.5 Z"/></g>
<g><path style="opacity:1" fill="#be512f" d="M 22.5,158.5 C 28.6343,162.404 34.9677,166.071 41.5,169.5C 39.773,174.297 40.773,178.463 44.5,182C 89.9598,205.564 135.293,229.397 180.5,253.5C 181.833,314.5 181.833,375.5 180.5,436.5C 127.5,408.667 74.5,380.833 21.5,353C 20.2986,352.097 19.4652,350.931 19,349.5C 18.3333,286.833 18.3333,224.167 19,161.5C 20.0391,160.29 21.2058,159.29 22.5,158.5 Z"/></g>
<g><path style="opacity:1" fill="#7fd249" d="M 388.5,333.5 C 386.515,317.534 385.848,301.201 386.5,284.5C 399.162,271.003 411.662,257.337 424,243.5C 427.302,233.128 423.468,228.294 412.5,229C 403.992,237.342 395.658,245.842 387.5,254.5C 386.502,229.339 386.169,204.005 386.5,178.5C 400.207,169.811 415.207,164.311 431.5,162C 448.494,160.038 465.494,160.038 482.5,162C 486.205,163.699 488.372,166.533 489,170.5C 496.711,207.425 491.711,242.425 474,275.5C 454.059,307.246 425.559,326.58 388.5,333.5 Z"/></g>
<g><path style="opacity:1" fill="#9d3d27" d="M 363.5,169.5 C 364.499,228.998 364.832,288.664 364.5,348.5C 364.607,350.903 363.607,352.736 361.5,354C 308.5,381.833 255.5,409.667 202.5,437.5C 201.333,376.503 201.167,315.503 202,254.5C 255.781,226.027 309.615,197.693 363.5,169.5 Z"/></g>
<g><path style="opacity:1" fill="#642a1d" d="M 363.5,169.5 C 363.56,168.957 363.893,168.624 364.5,168.5C 365.831,228.665 365.831,288.665 364.5,348.5C 364.832,288.664 364.499,228.998 363.5,169.5 Z"/></g>
<g><path style="opacity:1" fill="#121010" d="M 203.5,176.5 C 213.876,175.706 218.043,180.373 216,190.5C 210.295,197.046 204.628,197.046 199,190.5C 198.333,187.5 198.333,184.5 199,181.5C 200.193,179.503 201.693,177.836 203.5,176.5 Z"/></g>
<g><path style="opacity:1" fill="#528532" d="M 386.5,178.5 C 386.169,204.005 386.502,229.339 387.5,254.5C 387.217,255.289 386.717,255.956 386,256.5C 385.17,230.33 385.337,204.33 386.5,178.5 Z"/></g>
<g><path style="opacity:1" fill="#110f0f" d="M 328.5,270.5 C 338.654,268.496 343.154,272.496 342,282.5C 339.232,288.172 334.732,290.006 328.5,288C 321.889,282.133 321.889,276.299 328.5,270.5 Z"/></g>
<g><path style="opacity:1" fill="#518331" d="M 386.5,284.5 C 385.848,301.201 386.515,317.534 388.5,333.5C 387.791,334.404 386.791,334.737 385.5,334.5C 385.17,317.658 385.503,300.992 386.5,284.5 Z"/></g>
<g><path style="opacity:1" fill="#13100f" d="M 57.5,302.5 C 67.0242,302.522 70.8576,307.189 69,316.5C 64.3667,322.329 59.0333,322.996 53,318.5C 48.9401,311.616 50.4401,306.283 57.5,302.5 Z"/></g>
<g><path style="opacity:1" fill="#110f0f" d="M 280.5,334.5 C 290.654,332.496 295.154,336.496 294,346.5C 291.232,352.172 286.732,354.006 280.5,352C 273.889,346.133 273.889,340.299 280.5,334.5 Z"/></g>
</svg>
