<?xml version="1.0" encoding="UTF-8"?>
<!DOCTYPE svg PUBLIC "-//W3C//DTD SVG 1.1//EN" "http://www.w3.org/Graphics/SVG/1.1/DTD/svg11.dtd">
<svg xmlns="http://www.w3.org/2000/svg" version="1.1" width="512px" height="512px" style="shape-rendering:geometricPrecision; text-rendering:geometricPrecision; image-rendering:optimizeQuality; fill-rule:evenodd; clip-rule:evenodd" xmlns:xlink="http://www.w3.org/1999/xlink">
<g><path style="opacity:1" fill="#fefefe" d="M -0.5,-0.5 C 170.167,-0.5 340.833,-0.5 511.5,-0.5C 511.5,66.1667 511.5,132.833 511.5,199.5C 508.198,186.071 501.198,174.905 490.5,166C 481.587,161.294 472.753,156.46 464,151.5C 463.5,144.842 463.334,138.175 463.5,131.5C 469.842,131.666 476.175,131.5 482.5,131C 485.333,129.5 487.5,127.333 489,124.5C 489.667,106.833 489.667,89.1667 489,71.5C 486.071,62.9035 480.237,57.4035 471.5,55C 398.167,54.3333 324.833,54.3333 251.5,55C 242.182,56.9857 236.015,62.4857 233,71.5C 232.333,89.5 232.333,107.5 233,125.5C 234.167,128 236,129.833 238.5,131C 244.825,131.5 251.158,131.666 257.5,131.5C 258.12,137.926 257.453,143.926 255.5,149.5C 217.269,143.039 187.769,156.039 167,188.5C 161.292,198.787 158.126,209.787 157.5,221.5C 107.166,221.333 56.8322,221.5 6.5,222C 2.98529,223.018 0.651961,225.185 -0.5,228.5C -0.5,152.167 -0.5,75.8333 -0.5,-0.5 Z"/></g>
<g><path style="opacity:1" fill="#030303" d="M 511.5,199.5 C 511.5,270.833 511.5,342.167 511.5,413.5C 507.717,438.116 493.383,452.282 468.5,456C 395.5,456.667 322.5,456.667 249.5,456C 230.284,451.783 217.784,440.283 212,421.5C 210.866,393.209 210.033,364.876 209.5,336.5C 184.917,326.917 168.583,309.584 160.5,284.5C 151.852,283.668 143.186,283.168 134.5,283C 131.404,280.971 129.738,278.138 129.5,274.5C 129.5,273.5 129.5,272.5 129.5,271.5C 130.927,268.236 133.261,265.736 136.5,264C 147.833,263.333 159.167,263.333 170.5,264C 173.102,264.883 175.269,266.383 177,268.5C 181.837,293.326 196.004,310.159 219.5,319C 221.473,319.495 223.473,319.662 225.5,319.5C 232.826,322.107 240.16,322.107 247.5,319.5C 276.074,313.258 292.074,295.591 295.5,266.5C 296.833,258.167 296.833,249.833 295.5,241.5C 203.5,241.5 111.5,241.5 19.5,241.5C 19.5,242.5 19.5,243.5 19.5,244.5C 19.5,251.167 19.5,257.833 19.5,264.5C 30.8382,264.333 42.1716,264.5 53.5,265C 56.8922,267.285 58.5589,270.452 58.5,274.5C 58.2759,278.562 56.2759,281.395 52.5,283C 36.8333,283.667 21.1667,283.667 5.5,283C 2.55813,281.564 0.55813,279.397 -0.5,276.5C -0.5,260.5 -0.5,244.5 -0.5,228.5C 0.651961,225.185 2.98529,223.018 6.5,222C 56.8322,221.5 107.166,221.333 157.5,221.5C 158.126,209.787 161.292,198.787 167,188.5C 187.769,156.039 217.269,143.039 255.5,149.5C 256.209,150.404 257.209,150.737 258.5,150.5C 258.823,143.978 258.49,137.645 257.5,131.5C 251.158,131.666 244.825,131.5 238.5,131C 236,129.833 234.167,128 233,125.5C 232.333,107.5 232.333,89.5 233,71.5C 236.015,62.4857 242.182,56.9857 251.5,55C 324.833,54.3333 398.167,54.3333 471.5,55C 480.237,57.4035 486.071,62.9035 489,71.5C 489.667,89.1667 489.667,106.833 489,124.5C 487.5,127.333 485.333,129.5 482.5,131C 476.175,131.5 469.842,131.666 463.5,131.5C 463.334,138.175 463.5,144.842 464,151.5C 472.753,156.46 481.587,161.294 490.5,166C 501.198,174.905 508.198,186.071 511.5,199.5 Z"/></g>
<g><path style="opacity:1" fill="#1b0000" d="M 466.5,74.5 C 395.331,74.1675 324.331,74.5008 253.5,75.5C 252.833,75.5 252.5,75.8333 252.5,76.5C 251.596,77.209 251.263,78.209 251.5,79.5C 250.154,76.8161 250.82,74.4827 253.5,72.5C 324.627,73.1635 395.627,73.8302 466.5,74.5 Z"/></g>
<g><path style="opacity:1" fill="#be696c" d="M 253.5,75.5 C 324.331,74.5008 395.331,74.1675 466.5,74.5C 469.084,75.0483 470.084,76.715 469.5,79.5C 468.167,79.5 467.5,78.8333 467.5,77.5C 467.389,76.8826 467.056,76.3826 466.5,76C 395.501,75.5 324.501,75.3333 253.5,75.5 Z"/></g>
<g><path style="opacity:1" fill="#f87d84" d="M 253.5,75.5 C 324.501,75.3333 395.501,75.5 466.5,76C 467.056,76.3826 467.389,76.8826 467.5,77.5C 396.859,76.1765 326.193,76.1765 255.5,77.5C 253.554,88.3131 252.887,99.3131 253.5,110.5C 252.505,99.3456 252.172,88.0123 252.5,76.5C 252.5,75.8333 252.833,75.5 253.5,75.5 Z"/></g>
<g><path style="opacity:1" fill="#fe7a78" d="M 467.5,77.5 C 467.5,78.8333 468.167,79.5 469.5,79.5C 469.828,90.3464 469.494,101.013 468.5,111.5C 397.002,110.501 325.335,110.167 253.5,110.5C 252.887,99.3131 253.554,88.3131 255.5,77.5C 326.193,76.1765 396.859,76.1765 467.5,77.5 Z"/></g>
<g><path style="opacity:1" fill="#ce5756" d="M 252.5,76.5 C 252.172,88.0123 252.505,99.3456 253.5,110.5C 325.335,110.167 397.002,110.501 468.5,111.5C 396.167,111.5 323.833,111.5 251.5,111.5C 251.5,100.833 251.5,90.1667 251.5,79.5C 251.263,78.209 251.596,77.209 252.5,76.5 Z"/></g>
<g><path style="opacity:1" fill="#ccf4fa" d="M 230.5,412.5 C 230.5,388.833 230.5,365.167 230.5,341.5C 234.702,341.817 238.702,341.483 242.5,340.5C 246.519,340.354 250.519,340.021 254.5,339.5C 254.333,361.836 254.5,384.169 255,406.5C 256.251,409.381 258.417,411.214 261.5,412C 328.582,412.993 395.582,412.66 462.5,411C 464.81,409.363 466.31,407.196 467,404.5C 467.667,350.833 467.667,297.167 467,243.5C 461.717,217.884 446.217,202.717 420.5,198C 393.536,195.895 374.369,207.062 363,231.5C 361.438,235.014 360.605,238.681 360.5,242.5C 345.833,242.5 331.167,242.5 316.5,242.5C 316.825,234.648 316.492,226.982 315.5,219.5C 312.555,194.239 300.555,174.573 279.5,160.5C 278.502,150.856 278.168,141.19 278.5,131.5C 333.5,131.5 388.5,131.5 443.5,131.5C 443.049,141.938 443.549,152.271 445,162.5C 456.087,169.963 467.587,176.796 479.5,183C 485.488,187.805 489.321,193.972 491,201.5C 491.667,272.833 491.667,344.167 491,415.5C 487.295,426.54 479.795,433.373 468.5,436C 396.167,436.667 323.833,436.667 251.5,436C 239.349,432.687 232.349,424.853 230.5,412.5 Z"/></g>
<g><path style="opacity:1" fill="#a7a7a7" d="M 257.5,131.5 C 258.49,137.645 258.823,143.978 258.5,150.5C 257.209,150.737 256.209,150.404 255.5,149.5C 257.453,143.926 258.12,137.926 257.5,131.5 Z"/></g>
<g><path style="opacity:1" fill="#f9f5f2" d="M 228.5,167.5 C 262.763,166.289 284.93,181.955 295,214.5C 295.497,216.81 295.663,219.143 295.5,221.5C 256.167,221.5 216.833,221.5 177.5,221.5C 182.203,191.8 199.203,173.8 228.5,167.5 Z"/></g>
<g><path style="opacity:1" fill="#faf6f3" d="M 447.5,391.5 C 389.833,391.5 332.167,391.5 274.5,391.5C 274.5,371.5 274.5,351.5 274.5,331.5C 300.423,316.334 314.09,293.668 315.5,263.5C 334.17,263.667 352.836,263.5 371.5,263C 375.333,261.833 377.833,259.333 379,255.5C 380.837,226.66 396.003,214.493 424.5,219C 436.51,223.518 444.01,232.018 447,244.5C 447.5,293.499 447.667,342.499 447.5,391.5 Z"/></g>
<g><path style="opacity:1" fill="#708688" d="M 315.5,219.5 C 316.492,226.982 316.825,234.648 316.5,242.5C 331.167,242.5 345.833,242.5 360.5,242.5C 345.676,243.496 330.676,243.829 315.5,243.5C 315.5,235.5 315.5,227.5 315.5,219.5 Z"/></g>
<g><path style="opacity:1" fill="#fb99a0" d="M 295.5,241.5 C 295.657,242.873 295.49,244.207 295,245.5C 204.07,244.52 112.903,244.186 21.5,244.5C 22.3517,247.592 22.0183,250.592 20.5,253.5C 20.81,250.287 20.4767,247.287 19.5,244.5C 19.5,243.5 19.5,242.5 19.5,241.5C 111.5,241.5 203.5,241.5 295.5,241.5 Z"/></g>
<g><path style="opacity:1" fill="#f79b9a" d="M 295.5,241.5 C 296.833,249.833 296.833,258.167 295.5,266.5C 295.674,260.075 295.007,253.741 293.5,247.5C 292.393,248.022 291.226,248.355 290,248.5C 203.904,246.514 117.737,245.847 31.5,246.5C 31.5,247.5 31.5,248.5 31.5,249.5C 116.836,249.167 202.169,249.5 287.5,250.5C 244,250.833 200.5,251.167 157,251.5C 113.122,251.497 69.4556,250.831 26,249.5C 25.3333,250.5 25.3333,251.5 26,252.5C 27.341,254.244 28.5077,256.077 29.5,258C 29.3333,258.833 29.1667,259.667 29,260.5C 27.1246,259.377 24.9579,259.377 22.5,260.5C 22.9227,258.219 22.256,256.552 20.5,255.5C 20.5,254.833 20.5,254.167 20.5,253.5C 22.0183,250.592 22.3517,247.592 21.5,244.5C 112.903,244.186 204.07,244.52 295,245.5C 295.49,244.207 295.657,242.873 295.5,241.5 Z"/></g>
<g><path style="opacity:1" fill="#fd9a9a" d="M 295.5,266.5 C 292.074,295.591 276.074,313.258 247.5,319.5C 240.167,319.5 232.833,319.5 225.5,319.5C 223.473,319.662 221.473,319.495 219.5,319C 196.004,310.159 181.837,293.326 177,268.5C 175.269,266.383 173.102,264.883 170.5,264C 159.167,263.333 147.833,263.333 136.5,264C 133.261,265.736 130.927,268.236 129.5,271.5C 123.38,273.317 117.047,273.984 110.5,273.5C 108.981,272.59 107.315,271.757 105.5,271C 102.243,263.443 96.5763,260.777 88.5,263C 85.4931,265.166 83.4931,267.999 82.5,271.5C 75.5267,272.797 68.5267,272.797 61.5,271.5C 59.2975,269.705 58.1308,267.371 58,264.5C 56.9326,263.809 55.7659,263.309 54.5,263C 43.1716,262.5 31.8382,262.333 20.5,262.5C 20.5,260.167 20.5,257.833 20.5,255.5C 22.256,256.552 22.9227,258.219 22.5,260.5C 24.9579,259.377 27.1246,259.377 29,260.5C 29.1667,259.667 29.3333,258.833 29.5,258C 28.5077,256.077 27.341,254.244 26,252.5C 25.3333,251.5 25.3333,250.5 26,249.5C 69.4556,250.831 113.122,251.497 157,251.5C 200.5,251.167 244,250.833 287.5,250.5C 202.169,249.5 116.836,249.167 31.5,249.5C 31.5,248.5 31.5,247.5 31.5,246.5C 117.737,245.847 203.904,246.514 290,248.5C 291.226,248.355 292.393,248.022 293.5,247.5C 295.007,253.741 295.674,260.075 295.5,266.5 Z"/></g>
<g><path style="opacity:1" fill="#0c0606" d="M 104.5,273.5 C 104.5,273.833 104.5,274.167 104.5,274.5C 102.098,283.043 96.7644,285.543 88.5,282C 85.9756,280.117 84.6423,277.617 84.5,274.5C 85.93,264.627 91.2633,261.794 100.5,266C 102.87,267.941 104.203,270.441 104.5,273.5 Z"/></g>
<g><path style="opacity:1" fill="#d79193" d="M 19.5,244.5 C 20.4767,247.287 20.81,250.287 20.5,253.5C 20.5,254.167 20.5,254.833 20.5,255.5C 20.5,257.833 20.5,260.167 20.5,262.5C 31.8382,262.333 43.1716,262.5 54.5,263C 55.7659,263.309 56.9326,263.809 58,264.5C 58.1308,267.371 59.2975,269.705 61.5,271.5C 68.5267,272.797 75.5267,272.797 82.5,271.5C 83.4931,267.999 85.4931,265.166 88.5,263C 96.5763,260.777 102.243,263.443 105.5,271C 107.315,271.757 108.981,272.59 110.5,273.5C 108.5,273.5 106.5,273.5 104.5,273.5C 104.203,270.441 102.87,267.941 100.5,266C 91.2633,261.794 85.93,264.627 84.5,274.5C 75.8333,273.167 67.1667,273.167 58.5,274.5C 58.5589,270.452 56.8922,267.285 53.5,265C 42.1716,264.5 30.8382,264.333 19.5,264.5C 19.5,257.833 19.5,251.167 19.5,244.5 Z"/></g>
<g><path style="opacity:1" fill="#f5ccca" d="M 129.5,271.5 C 129.5,272.5 129.5,273.5 129.5,274.5C 121.167,274.5 112.833,274.5 104.5,274.5C 104.5,274.167 104.5,273.833 104.5,273.5C 106.5,273.5 108.5,273.5 110.5,273.5C 117.047,273.984 123.38,273.317 129.5,271.5 Z"/></g>
<g><path style="opacity:1" fill="#fefefe" d="M 84.5,274.5 C 84.6423,277.617 85.9756,280.117 88.5,282C 96.7644,285.543 102.098,283.043 104.5,274.5C 112.833,274.5 121.167,274.5 129.5,274.5C 129.738,278.138 131.404,280.971 134.5,283C 143.186,283.168 151.852,283.668 160.5,284.5C 168.583,309.584 184.917,326.917 209.5,336.5C 210.033,364.876 210.866,393.209 212,421.5C 217.784,440.283 230.284,451.783 249.5,456C 322.5,456.667 395.5,456.667 468.5,456C 493.383,452.282 507.717,438.116 511.5,413.5C 511.5,446.167 511.5,478.833 511.5,511.5C 340.833,511.5 170.167,511.5 -0.5,511.5C -0.5,433.167 -0.5,354.833 -0.5,276.5C 0.55813,279.397 2.55813,281.564 5.5,283C 21.1667,283.667 36.8333,283.667 52.5,283C 56.2759,281.395 58.2759,278.562 58.5,274.5C 67.1667,273.167 75.8333,273.167 84.5,274.5 Z"/></g>
<g><path style="opacity:1" fill="#ca878d" d="M 225.5,319.5 C 232.833,319.5 240.167,319.5 247.5,319.5C 240.16,322.107 232.826,322.107 225.5,319.5 Z"/></g>
<g><path style="opacity:1" fill="#0a0909" d="M 391.5,321.5 C 399.84,321.334 408.173,321.5 416.5,322C 423.686,326.797 424.352,332.464 418.5,339C 416.913,339.862 415.246,340.529 413.5,341C 406.833,341.667 400.167,341.667 393.5,341C 386.947,338.27 384.78,333.437 387,326.5C 388.366,324.638 389.866,322.972 391.5,321.5 Z"/></g>
<g><path style="opacity:1" fill="#53646b" d="M 242.5,340.5 C 238.702,341.483 234.702,341.817 230.5,341.5C 230.5,365.167 230.5,388.833 230.5,412.5C 229.502,388.672 229.169,364.672 229.5,340.5C 233.833,340.5 238.167,340.5 242.5,340.5 Z"/></g>
<g><path style="opacity:1" fill="#050504" d="M 377.5,352.5 C 384.841,352.334 392.174,352.5 399.5,353C 405.542,356.748 407.042,361.915 404,368.5C 402.2,370.317 400.034,371.484 397.5,372C 390.5,372.667 383.5,372.667 376.5,372C 368.977,367.885 367.643,362.218 372.5,355C 374.315,354.243 375.981,353.41 377.5,352.5 Z"/></g>
<g><path style="opacity:1" fill="#b2b1af" d="M 274.5,331.5 C 274.5,351.5 274.5,371.5 274.5,391.5C 332.167,391.5 389.833,391.5 447.5,391.5C 389.669,392.499 331.669,392.832 273.5,392.5C 273.17,371.993 273.503,351.66 274.5,331.5 Z"/></g>
</svg>
