<?xml version="1.0" encoding="UTF-8"?>
<!DOCTYPE svg PUBLIC "-//W3C//DTD SVG 1.1//EN" "http://www.w3.org/Graphics/SVG/1.1/DTD/svg11.dtd">
<svg xmlns="http://www.w3.org/2000/svg" version="1.1" width="512px" height="512px" style="shape-rendering:geometricPrecision; text-rendering:geometricPrecision; image-rendering:optimizeQuality; fill-rule:evenodd; clip-rule:evenodd" xmlns:xlink="http://www.w3.org/1999/xlink">
<g><path style="opacity:0.973" fill="#020203" d="M 158.5,-0.5 C 169.167,-0.5 179.833,-0.5 190.5,-0.5C 211.563,1.36253 226.896,11.6959 236.5,30.5C 314.498,31.3333 392.498,31.8333 470.5,32C 490.935,37.8207 499.102,51.3207 495,72.5C 492.716,84.7845 485.549,92.6178 473.5,96C 448.167,96.6667 422.833,96.6667 397.5,96C 394.051,93.7239 392.051,90.5572 391.5,86.5C 392.711,82.6068 395.044,79.4401 398.5,77C 422.563,76.9707 446.563,76.304 470.5,75C 472.333,74.5 473.5,73.3333 474,71.5C 474.667,66.5 474.667,61.5 474,56.5C 472.786,54.9512 471.286,53.7845 469.5,53C 388.833,52.6667 308.167,52.3333 227.5,52C 224.829,50.75 222.663,48.9167 221,46.5C 215.349,29.5731 203.516,20.7397 185.5,20C 155.875,16.5397 130.708,25.373 110,46.5C 101.696,57.5621 101.363,68.8954 109,80.5C 122.137,95.4578 138.637,104.625 158.5,108C 170.868,108.815 183.201,108.482 195.5,107C 208.667,103.167 217.167,94.6667 221,81.5C 222.543,79.6217 224.376,78.1217 226.5,77C 256.167,76.3333 285.833,76.3333 315.5,77C 319.713,78.9608 322.38,82.1275 323.5,86.5C 322.949,90.5572 320.949,93.7239 317.5,96C 290.494,96.1668 263.494,96.6668 236.5,97.5C 227.877,115.497 213.544,125.664 193.5,128C 155.233,133.909 122.399,123.409 95,96.5C 76.4477,68.8572 79.9477,44.0239 105.5,22C 121.46,10.297 139.126,2.79699 158.5,-0.5 Z"/></g>
<g><path style="opacity:1" fill="#bedafd" d="M 391.5,86.5 C 383.833,86.5 376.167,86.5 368.5,86.5C 367.332,80.0127 363.332,76.6793 356.5,76.5C 350.759,77.2901 347.759,80.6234 347.5,86.5C 339.5,86.5 331.5,86.5 323.5,86.5C 322.38,82.1275 319.713,78.9608 315.5,77C 285.833,76.3333 256.167,76.3333 226.5,77C 224.376,78.1217 222.543,79.6217 221,81.5C 217.167,94.6667 208.667,103.167 195.5,107C 183.201,108.482 170.868,108.815 158.5,108C 138.637,104.625 122.137,95.4578 109,80.5C 101.363,68.8954 101.696,57.5621 110,46.5C 130.708,25.373 155.875,16.5397 185.5,20C 203.516,20.7397 215.349,29.5731 221,46.5C 222.663,48.9167 224.829,50.75 227.5,52C 308.167,52.3333 388.833,52.6667 469.5,53C 471.286,53.7845 472.786,54.9512 474,56.5C 474.667,61.5 474.667,66.5 474,71.5C 473.5,73.3333 472.333,74.5 470.5,75C 446.563,76.304 422.563,76.9707 398.5,77C 395.044,79.4401 392.711,82.6068 391.5,86.5 Z"/></g>
<g><path style="opacity:0.944" fill="#030405" d="M 368.5,86.5 C 365.925,96.5789 359.925,99.2456 350.5,94.5C 348.014,92.422 347.014,89.7553 347.5,86.5C 347.759,80.6234 350.759,77.2901 356.5,76.5C 363.332,76.6793 367.332,80.0127 368.5,86.5 Z"/></g>
<g><path style="opacity:0.944" fill="#000000" d="M 98.5,148.5 C 104.995,146.927 109.828,148.927 113,154.5C 113.667,187.833 113.667,221.167 113,254.5C 108.483,259.745 102.983,260.912 96.5,258C 94.683,256.2 93.5163,254.034 93,251.5C 92.3333,219.833 92.3333,188.167 93,156.5C 93.6249,152.891 95.4582,150.224 98.5,148.5 Z"/></g>
<g><path style="opacity:0.92" fill="#000000" d="M 144.5,148.5 C 151.445,146.775 156.278,149.108 159,155.5C 159.667,163.167 159.667,170.833 159,178.5C 156.27,185.053 151.437,187.22 144.5,185C 141.572,183.74 139.739,181.573 139,178.5C 138.333,170.5 138.333,162.5 139,154.5C 140.36,151.977 142.193,149.977 144.5,148.5 Z"/></g>
<g><path style="opacity:0.936" fill="#000000" d="M 189.5,148.5 C 195.52,147.22 200.353,148.887 204,153.5C 204.667,169.167 204.667,184.833 204,200.5C 200.252,206.542 195.085,208.042 188.5,205C 185.819,202.806 184.319,199.973 184,196.5C 183.07,182.111 183.403,167.778 185,153.5C 186.366,151.638 187.866,149.972 189.5,148.5 Z"/></g>
<g><path style="opacity:0.923" fill="#000000" d="M 235.5,148.5 C 242.489,146.77 247.323,149.103 250,155.5C 250.667,163.5 250.667,171.5 250,179.5C 247.27,186.053 242.437,188.22 235.5,186C 232.619,184.749 230.786,182.583 230,179.5C 229.087,170.424 229.42,161.424 231,152.5C 232.397,150.93 233.897,149.596 235.5,148.5 Z"/></g>
<g><path style="opacity:0.939" fill="#000000" d="M 145.5,209.5 C 151.739,208.536 156.239,210.869 159,216.5C 159.667,242.167 159.667,267.833 159,293.5C 156.028,300.717 150.861,302.883 143.5,300C 141.622,298.457 140.122,296.624 139,294.5C 138.333,268.5 138.333,242.5 139,216.5C 140.018,212.985 142.185,210.652 145.5,209.5 Z"/></g>
<g><path style="opacity:0.933" fill="#000000" d="M 236.5,210.5 C 242.739,209.536 247.239,211.869 250,217.5C 250.667,232.5 250.667,247.5 250,262.5C 246.413,268.691 241.247,270.524 234.5,268C 232.19,266.363 230.69,264.196 230,261.5C 229.333,246.833 229.333,232.167 230,217.5C 231.694,214.642 233.861,212.309 236.5,210.5 Z"/></g>
<g><path style="opacity:0.929" fill="#000000" d="M 190.5,230.5 C 196.59,229.137 201.09,231.137 204,236.5C 204.667,248.5 204.667,260.5 204,272.5C 199.66,278.864 194.16,280.031 187.5,276C 185.396,273.958 184.229,271.458 184,268.5C 183.333,259.167 183.333,249.833 184,240.5C 184.435,235.945 186.602,232.611 190.5,230.5 Z"/></g>
<g><path style="opacity:0.926" fill="#000000" d="M 100.5,283.5 C 105.907,283.125 110.073,285.125 113,289.5C 113.667,302.167 113.667,314.833 113,327.5C 108.591,333.633 103.091,334.8 96.5,331C 94.683,329.2 93.5163,327.034 93,324.5C 92.3333,313.833 92.3333,303.167 93,292.5C 93.9227,288.086 96.4227,285.086 100.5,283.5 Z"/></g>
<g><path style="opacity:0.979" fill="#010101" d="M 401.5,511.5 C 281.167,511.5 160.833,511.5 40.5,511.5C 24.1847,505.81 15.8514,494.143 15.5,476.5C 19.2364,443.498 35.9031,419.664 65.5,405C 71.4351,403.017 77.4351,401.35 83.5,400C 96.9292,374.767 117.929,360.267 146.5,356.5C 161.416,324.867 186.416,308.534 221.5,307.5C 256.84,308.494 281.84,324.994 296.5,357C 325.077,360.615 346.077,375.115 359.5,400.5C 384.525,405.016 403.358,418.349 416,440.5C 424.382,454.027 427.715,468.694 426,484.5C 423.187,498.475 415.02,507.475 401.5,511.5 Z"/></g>
<g><path style="opacity:1" fill="#f9f6f4" d="M 211.5,327.5 C 247.246,326.092 270.912,342.258 282.5,376C 283.833,376.667 285.167,377.333 286.5,378C 305.751,377.078 321.584,383.912 334,398.5C 338.242,405.155 342.075,411.988 345.5,419C 372.962,421.101 392.128,434.935 403,460.5C 407.48,469.571 407.48,478.571 403,487.5C 401.421,489.041 399.587,490.208 397.5,491C 279.833,491.667 162.167,491.667 44.5,491C 40.5721,489.407 38.0721,486.573 37,482.5C 36.1955,476.431 36.5288,470.431 38,464.5C 44.8991,445.601 57.3991,431.768 75.5,423C 82.2134,422.094 88.88,421.094 95.5,420C 99.4665,415.91 102.3,411.077 104,405.5C 115.793,386.517 132.96,377.35 155.5,378C 158.102,377.117 160.269,375.617 162,373.5C 169.766,348.561 186.266,333.227 211.5,327.5 Z"/></g>
<g><path style="opacity:1" fill="#080808" d="M 217.5,360.5 C 228.198,360.348 232.365,365.348 230,375.5C 224.591,381.574 218.925,381.907 213,376.5C 209.975,369.742 211.475,364.409 217.5,360.5 Z"/></g>
<g><path style="opacity:1" fill="#090908" d="M 176.5,401.5 C 187.884,400.706 192.051,405.706 189,416.5C 183.333,423.167 177.667,423.167 172,416.5C 169.473,410.235 170.973,405.235 176.5,401.5 Z"/></g>
<g><path style="opacity:1" fill="#060606" d="M 258.5,401.5 C 268.482,400.982 272.649,405.648 271,415.5C 264.918,423.41 258.918,423.41 253,415.5C 251.025,409.177 252.858,404.51 258.5,401.5 Z"/></g>
<g><path style="opacity:1" fill="#060606" d="M 116.5,445.5 C 126.496,443.681 131.329,447.681 131,457.5C 128.575,463.795 124.075,465.962 117.5,464C 112.581,461.259 110.748,457.092 112,451.5C 113.332,449.34 114.832,447.34 116.5,445.5 Z"/></g>
<g><path style="opacity:1" fill="#070707" d="M 216.5,445.5 C 224.829,443.655 229.829,446.821 231.5,455C 230.12,463.027 225.453,466.027 217.5,464C 211.975,461.081 210.142,456.581 212,450.5C 213.707,448.963 215.207,447.296 216.5,445.5 Z"/></g>
<g><path style="opacity:1" fill="#050505" d="M 316.5,445.5 C 327.66,443.826 332.16,448.492 330,459.5C 326.702,464.22 322.202,465.72 316.5,464C 309.85,457.713 309.85,451.546 316.5,445.5 Z"/></g>
</svg>
