<?xml version="1.0" encoding="UTF-8"?>
<!DOCTYPE svg PUBLIC "-//W3C//DTD SVG 1.1//EN" "http://www.w3.org/Graphics/SVG/1.1/DTD/svg11.dtd">
<svg xmlns="http://www.w3.org/2000/svg" version="1.1" width="512px" height="512px" style="shape-rendering:geometricPrecision; text-rendering:geometricPrecision; image-rendering:optimizeQuality; fill-rule:evenodd; clip-rule:evenodd" xmlns:xlink="http://www.w3.org/1999/xlink">
<g><path style="opacity:0.973" fill="#020203" d="M 158.5,-0.5 C 169.167,-0.5 179.833,-0.5 190.5,-0.5C 211.563,1.36253 226.896,11.6959 236.5,30.5C 314.498,31.3333 392.498,31.8333 470.5,32C 490.935,37.8207 499.102,51.3207 495,72.5C 492.716,84.7845 485.549,92.6178 473.5,96C 448.167,96.6667 422.833,96.6667 397.5,96C 394.051,93.7239 392.051,90.5572 391.5,86.5C 392.711,82.6068 395.044,79.4401 398.5,77C 422.563,76.9707 446.563,76.304 470.5,75C 472.333,74.5 473.5,73.3333 474,71.5C 474.667,66.5 474.667,61.5 474,56.5C 472.786,54.9512 471.286,53.7845 469.5,53C 388.833,52.6667 308.167,52.3333 227.5,52C 224.829,50.75 222.663,48.9167 221,46.5C 215.349,29.5731 203.516,20.7397 185.5,20C 155.875,16.5397 130.708,25.373 110,46.5C 101.696,57.5621 101.363,68.8954 109,80.5C 122.137,95.4578 138.637,104.625 158.5,108C 170.868,108.815 183.201,108.482 195.5,107C 208.667,103.167 217.167,94.6667 221,81.5C 222.543,79.6217 224.376,78.1217 226.5,77C 256.167,76.3333 285.833,76.3333 315.5,77C 319.713,78.9608 322.38,82.1275 323.5,86.5C 322.949,90.5572 320.949,93.7239 317.5,96C 290.494,96.1668 263.494,96.6668 236.5,97.5C 227.877,115.497 213.544,125.664 193.5,128C 155.233,133.909 122.399,123.409 95,96.5C 76.4477,68.8572 79.9477,44.0239 105.5,22C 121.46,10.297 139.126,2.79699 158.5,-0.5 Z"/></g>
<g><path style="opacity:1" fill="#bedafd" d="M 391.5,86.5 C 383.833,86.5 376.167,86.5 368.5,86.5C 367.332,80.0127 363.332,76.6793 356.5,76.5C 350.759,77.2901 347.759,80.6234 347.5,86.5C 339.5,86.5 331.5,86.5 323.5,86.5C 322.38,82.1275 319.713,78.9608 315.5,77C 285.833,76.3333 256.167,76.3333 226.5,77C 224.376,78.1217 222.543,79.6217 221,81.5C 217.167,94.6667 208.667,103.167 195.5,107C 183.201,108.482 170.868,108.815 158.5,108C 138.637,104.625 122.137,95.4578 109,80.5C 101.363,68.8954 101.696,57.5621 110,46.5C 130.708,25.373 155.875,16.5397 185.5,20C 203.516,20.7397 215.349,29.5731 221,46.5C 222.663,48.9167 224.829,50.75 227.5,52C 308.167,52.3333 388.833,52.6667 469.5,53C 471.286,53.7845 472.786,54.9512 474,56.5C 474.667,61.5 474.667,66.5 474,71.5C 473.5,73.3333 472.333,74.5 470.5,75C 446.563,76.304 422.563,76.9707 398.5,77C 395.044,79.4401 392.711,82.6068 391.5,86.5 Z"/></g>
<g><path style="opacity:0.944" fill="#030405" d="M 368.5,86.5 C 365.925,96.5789 359.925,99.2456 350.5,94.5C 348.014,92.422 347.014,89.7553 347.5,86.5C 347.759,80.6234 350.759,77.2901 356.5,76.5C 363.332,76.6793 367.332,80.0127 368.5,86.5 Z"/></g>
<g><path style="opacity:0.944" fill="#000000" d="M 98.5,148.5 C 104.995,146.927 109.828,148.927 113,154.5C 113.667,187.833 113.667,221.167 113,254.5C 108.483,259.745 102.983,260.912 96.5,258C 94.683,256.2 93.5163,254.034 93,251.5C 92.3333,219.833 92.3333,188.167 93,156.5C 93.6249,152.891 95.4582,150.224 98.5,148.5 Z"/></g>
<g><path style="opacity:0.92" fill="#000000" d="M 144.5,148.5 C 151.445,146.775 156.278,149.108 159,155.5C 159.667,163.167 159.667,170.833 159,178.5C 156.27,185.053 151.437,187.22 144.5,185C 141.572,183.74 139.739,181.573 139,178.5C 138.333,170.5 138.333,162.5 139,154.5C 140.36,151.977 142.193,149.977 144.5,148.5 Z"/></g>
<g><path style="opacity:0.936" fill="#000000" d="M 189.5,148.5 C 195.52,147.22 200.353,148.887 204,153.5C 204.667,169.167 204.667,184.833 204,200.5C 200.252,206.542 195.085,208.042 188.5,205C 185.819,202.806 184.319,199.973 184,196.5C 183.07,182.111 183.403,167.778 185,153.5C 186.366,151.638 187.866,149.972 189.5,148.5 Z"/></g>
<g><path style="opacity:0.923" fill="#000000" d="M 235.5,148.5 C 242.489,146.77 247.323,149.103 250,155.5C 250.667,163.5 250.667,171.5 250,179.5C 247.27,186.053 242.437,188.22 235.5,186C 232.619,184.749 230.786,182.583 230,179.5C 229.087,170.424 229.42,161.424 231,152.5C 232.397,150.93 233.897,149.596 235.5,148.5 Z"/></g>
<g><path style="opacity:0.939" fill="#000000" d="M 145.5,209.5 C 151.739,208.536 156.239,210.869 159,216.5C 159.667,242.167 159.667,267.833 159,293.5C 156.028,300.717 150.861,302.883 143.5,300C 141.622,298.457 140.122,296.624 139,294.5C 138.333,268.5 138.333,242.5 139,216.5C 140.018,212.985 142.185,210.652 145.5,209.5 Z"/></g>
<g><path style="opacity:0.933" fill="#000000" d="M 236.5,210.5 C 242.739,209.536 247.239,211.869 250,217.5C 250.667,232.5 250.667,247.5 250,262.5C 246.413,268.691 241.247,270.524 234.5,268C 232.19,266.363 230.69,264.196 230,261.5C 229.333,246.833 229.333,232.167 230,217.5C 231.694,214.642 233.861,212.309 236.5,210.5 Z"/></g>
<g><path style="opacity:0.929" fill="#000000" d="M 190.5,230.5 C 196.59,229.137 201.09,231.137 204,236.5C 204.667,248.5 204.667,260.5 204,272.5C 199.66,278.864 194.16,280.031 187.5,276C 185.396,273.958 184.229,271.458 184,268.5C 183.333,259.167 183.333,249.833 184,240.5C 184.435,235.945 186.602,232.611 190.5,230.5 Z"/></g>
<g><path style="opacity:0.926" fill="#000000" d="M 100.5,283.5 C 105.907,283.125 110.073,285.125 113,289.5C 113.667,302.167 113.667,314.833 113,327.5C 108.591,333.633 103.091,334.8 96.5,331C 94.683,329.2 93.5163,327.034 93,324.5C 92.3333,313.833 92.3333,303.167 93,292.5C 93.9227,288.086 96.4227,285.086 100.5,283.5 Z"/></g>
<g><path style="opacity:0.979" fill="#000000" d="M 401.5,511.5 C 281.167,511.5 160.833,511.5 40.5,511.5C 24.1847,505.81 15.8514,494.143 15.5,476.5C 19.2364,443.498 35.9031,419.664 65.5,405C 71.4351,403.017 77.4351,401.35 83.5,400C 96.9292,374.767 117.929,360.267 146.5,356.5C 161.416,324.867 186.416,308.534 221.5,307.5C 256.84,308.494 281.84,324.994 296.5,357C 325.077,360.615 346.077,375.115 359.5,400.5C 384.525,405.016 403.358,418.349 416,440.5C 424.382,454.027 427.715,468.694 426,484.5C 423.187,498.475 415.02,507.475 401.5,511.5 Z"/></g>
<g><path style="opacity:1" fill="#353535" d="M 210.5,327.5 C 245.785,324.977 269.285,340.311 281,373.5C 281.833,374.333 282.667,375.167 283.5,376C 302.443,375.864 318.61,382.364 332,395.5C 336.696,401.556 340.363,408.223 343,415.5C 344.167,417.333 345.667,418.833 347.5,420C 367.806,420.235 383.639,428.735 395,445.5C 401.493,454.655 405.326,464.821 406.5,476C 406.95,482.771 404.284,487.771 398.5,491C 280.5,491.667 162.5,491.667 44.5,491C 38.4663,487.949 35.4663,482.949 35.5,476C 40.0746,450.163 54.4079,432.163 78.5,422C 84.565,421.179 90.565,420.179 96.5,419C 100.609,411.284 105.109,403.784 110,396.5C 123.509,382.658 140.009,375.825 159.5,376C 162.947,368.341 166.781,360.841 171,353.5C 181.181,340.168 194.347,331.502 210.5,327.5 Z"/></g>
<g><path style="opacity:1" fill="#fdfdfd" d="M 226.5,361.5 C 226.062,361.435 225.728,361.601 225.5,362C 229.493,364.819 231.16,368.653 230.5,373.5C 228.53,375.647 226.697,377.98 225,380.5C 222.959,379.577 220.792,379.244 218.5,379.5C 215.155,378.32 212.989,375.987 212,372.5C 211.601,372.728 211.435,373.062 211.5,373.5C 210.378,371.712 210.211,369.712 211,367.5C 211.333,367.833 211.667,368.167 212,368.5C 213.722,364.154 216.722,361.154 221,359.5C 221.388,360.428 222.055,361.095 223,361.5C 224.373,360.485 225.54,360.485 226.5,361.5 Z"/></g>
<g><path style="opacity:1" fill="#706e6d" d="M 226.5,361.5 C 228.504,362.673 230.004,364.34 231,366.5C 231.802,369.638 231.636,371.971 230.5,373.5C 231.16,368.653 229.493,364.819 225.5,362C 225.728,361.601 226.062,361.435 226.5,361.5 Z"/></g>
<g><path style="opacity:1" fill="#797877" d="M 218.5,379.5 C 214.582,379.952 212.248,377.952 211.5,373.5C 211.435,373.062 211.601,372.728 212,372.5C 212.989,375.987 215.155,378.32 218.5,379.5 Z"/></g>
<g><path style="opacity:1" fill="#fbfbfb" d="M 172.5,405.5 C 174.001,404.248 175.668,403.248 177.5,402.5C 178.261,401.609 179.261,400.942 180.5,400.5C 185.841,402.507 189.507,406.174 191.5,411.5C 190.559,411.489 189.892,411.989 189.5,413C 190.187,414.162 190.353,415.328 190,416.5C 189.667,416.167 189.333,415.833 189,415.5C 187.265,417.611 185.432,419.611 183.5,421.5C 181.5,420.167 179.5,420.167 177.5,421.5C 175.999,419.185 173.665,417.019 170.5,415C 171.788,412.534 171.788,410.034 170.5,407.5C 170.855,406.478 171.522,405.811 172.5,405.5 Z"/></g>
<g><path style="opacity:1" fill="#f9f9f9" d="M 259.5,420.5 C 256.891,419.557 254.891,417.89 253.5,415.5C 253.082,414.778 252.416,414.278 251.5,414C 252.767,412.204 252.767,410.371 251.5,408.5C 253.305,407.231 255.305,405.397 257.5,403C 257.167,402.667 256.833,402.333 256.5,402C 258.657,401.312 261.323,400.978 264.5,401C 263.66,402.666 264.16,402.833 266,401.5C 266.953,403.455 268.287,405.122 270,406.5C 271.666,405.66 271.833,406.16 270.5,408C 272.418,409.77 272.918,411.937 272,414.5C 271.667,414.167 271.333,413.833 271,413.5C 269.632,414.993 269.465,416.493 270.5,418C 269.667,418.833 268.833,419.667 268,420.5C 267.282,419.549 266.449,419.383 265.5,420C 266.696,420.654 266.696,421.154 265.5,421.5C 263.591,420.652 261.591,420.318 259.5,420.5 Z"/></g>
<g><path style="opacity:1" fill="#908e8d" d="M 177.5,402.5 C 175.668,403.248 174.001,404.248 172.5,405.5C 172.858,403.299 174.192,401.965 176.5,401.5C 177.107,401.624 177.44,401.957 177.5,402.5 Z"/></g>
<g><path style="opacity:1" fill="#949291" d="M 253.5,415.5 C 254.891,417.89 256.891,419.557 259.5,420.5C 256.451,421.131 254.118,419.798 252.5,416.5C 252.624,415.893 252.957,415.56 253.5,415.5 Z"/></g>
<g><path style="opacity:1" fill="#faf9f9" d="M 117.5,445.5 C 119.667,445.542 122,445.209 124.5,444.5C 125.252,446.165 126.752,447.832 129,449.5C 130.045,452.436 130.879,455.436 131.5,458.5C 131.154,459.696 130.654,459.696 130,458.5C 129.383,459.449 129.549,460.282 130.5,461C 129.531,462.758 128.364,463.258 127,462.5C 126.676,464.569 125.842,464.902 124.5,463.5C 123.304,463.846 123.304,464.346 124.5,465C 122.5,465.667 120.5,465.667 118.5,465C 119.696,464.346 119.696,463.846 118.5,463.5C 117.549,464.326 116.549,464.492 115.5,464C 115.833,463.667 116.167,463.333 116.5,463C 109.693,456.516 110.36,450.849 118.5,446C 118.272,445.601 117.938,445.435 117.5,445.5 Z"/></g>
<g><path style="opacity:1" fill="#fafafa" d="M 225.5,446.5 C 227.89,447.891 229.557,449.891 230.5,452.5C 230.318,454.591 230.652,456.591 231.5,458.5C 231.154,459.696 230.654,459.696 230,458.5C 229.02,460.259 228.353,461.926 228,463.5C 226.493,462.465 224.993,462.632 223.5,464C 223.833,464.333 224.167,464.667 224.5,465C 219.652,465.527 215.819,463.693 213,459.5C 212.667,459.833 212.333,460.167 212,460.5C 211.508,459.451 211.674,458.451 212.5,457.5C 212.154,456.304 211.654,456.304 211,457.5C 210.333,455.833 210.333,454.167 211,452.5C 211.654,453.696 212.154,453.696 212.5,452.5C 211.674,451.549 211.508,450.549 212,449.5C 212.333,449.833 212.667,450.167 213,450.5C 215.397,448.305 217.231,446.305 218.5,444.5C 220.371,445.767 222.204,445.767 224,444.5C 224.278,445.416 224.778,446.082 225.5,446.5 Z"/></g>
<g><path style="opacity:1" fill="#9a9897" d="M 225.5,446.5 C 225.56,445.957 225.893,445.624 226.5,445.5C 229.798,447.118 231.131,449.451 230.5,452.5C 229.557,449.891 227.89,447.891 225.5,446.5 Z"/></g>
<g><path style="opacity:1" fill="#f9f8f8" d="M 323.5,444.5 C 325.629,445.768 327.962,447.602 330.5,450C 329.167,451.84 329.334,452.34 331,451.5C 331.667,453.833 331.667,456.167 331,458.5C 330.667,458.167 330.333,457.833 330,457.5C 329.167,461 327,463.167 323.5,464C 323.833,464.333 324.167,464.667 324.5,465C 319.496,465.539 315.329,463.039 312,457.5C 311.667,457.833 311.333,458.167 311,458.5C 310.333,456.167 310.333,453.833 311,451.5C 311.333,451.833 311.667,452.167 312,452.5C 314.398,447.722 318.231,445.055 323.5,444.5 Z"/></g>
</svg>
