<?xml version="1.0" encoding="UTF-8"?>
<!DOCTYPE svg PUBLIC "-//W3C//DTD SVG 1.1//EN" "http://www.w3.org/Graphics/SVG/1.1/DTD/svg11.dtd">
<svg xmlns="http://www.w3.org/2000/svg" version="1.1" width="512px" height="512px" style="shape-rendering:geometricPrecision; text-rendering:geometricPrecision; image-rendering:optimizeQuality; fill-rule:evenodd; clip-rule:evenodd" xmlns:xlink="http://www.w3.org/1999/xlink">
<g><path style="opacity:0.981" fill="#010101" d="M 417.5,-0.5 C 428.167,-0.5 438.833,-0.5 449.5,-0.5C 492.801,7.34368 511.968,33.3437 507,77.5C 504.458,96.3349 499.125,114.335 491,131.5C 475.156,163.88 455.823,193.88 433,221.5C 417.736,239.434 401.736,256.767 385,273.5C 385.162,299.883 382.162,325.883 376,351.5C 372.087,367.525 363.587,380.359 350.5,390C 334.595,396.395 318.928,395.728 303.5,388C 291.825,381.817 280.825,374.651 270.5,366.5C 241.113,385.696 210.113,402.029 177.5,415.5C 176.667,440.493 176.167,465.493 176,490.5C 173.077,500.92 166.577,507.92 156.5,511.5C 148.5,511.5 140.5,511.5 132.5,511.5C 115.871,509.17 99.8711,504.337 84.5,497C 80.0167,493.387 78.6834,488.887 80.5,483.5C 82.6967,480.142 85.8634,478.142 90,477.5C 104.492,484.219 119.658,488.719 135.5,491C 140.833,491.667 146.167,491.667 151.5,491C 153.667,490.167 155.167,488.667 156,486.5C 156.833,464.826 156.666,443.159 155.5,421.5C 143.32,424.255 130.987,425.088 118.5,424C 107.255,421.089 99.422,414.256 95,403.5C 92.4072,396.036 90.9072,388.369 90.5,380.5C 90.5,373.167 90.5,365.833 90.5,358.5C 69.9931,358.17 49.6598,358.503 29.5,359.5C 27.8297,359.751 26.3297,360.418 25,361.5C 23.9276,364.544 23.4276,367.71 23.5,371C 25.1947,389.779 29.8614,407.779 37.5,425C 36.8729,429.099 34.8729,432.265 31.5,434.5C 26.0251,436.594 21.5251,435.261 18,430.5C 6.20871,406.751 1.87538,381.751 5,355.5C 8.23001,347.937 13.73,342.771 21.5,340C 45.466,338.883 69.466,338.05 93.5,337.5C 95.1433,333.271 95.9766,328.938 96,324.5C 83.7936,310.097 74.127,294.097 67,276.5C 57.5895,249.369 65.4228,229.203 90.5,216C 97.638,213.065 104.971,210.732 112.5,209C 128.075,206.486 143.742,204.82 159.5,204C 171.302,187.565 183.469,171.398 196,155.5C 196.667,154.5 196.667,153.5 196,152.5C 183.4,137.298 175.067,119.965 171,100.5C 168.355,75.2902 178.855,58.1235 202.5,49C 223.42,42.0304 244.92,38.8638 267,39.5C 282.574,39.7918 298.074,40.6251 313.5,42C 344.983,19.8983 379.65,5.73159 417.5,-0.5 Z"/></g>
<g><path style="opacity:1" fill="#858fad" d="M 419.5,19.5 C 433.826,18.4195 447.826,19.9195 461.5,24C 463.167,24.8333 464.833,25.6667 466.5,26.5C 467.521,27.0016 467.688,27.6683 467,28.5C 418.5,75.6667 370,122.833 321.5,170C 310.73,170.367 300.73,173.367 291.5,179C 270.667,190.5 254.5,206.667 243,227.5C 239.182,235.727 237.515,244.393 238,253.5C 194.579,295.919 152.245,339.253 111,383.5C 109.437,375.913 109.104,368.246 110,360.5C 115.066,332.032 124.4,305.032 138,279.5C 175.211,212.629 221.045,152.129 275.5,98C 304.248,71.1158 336.581,49.4491 372.5,33C 387.794,26.7642 403.46,22.2642 419.5,19.5 Z"/></g>
<g><path style="opacity:1" fill="#b4bacd" d="M 481.5,41.5 C 484.577,45.5446 486.411,50.2113 487,55.5C 487.385,79.2997 482.385,101.966 472,123.5C 455.536,156.272 435.536,186.605 412,214.5C 353.478,282.387 284.978,337.553 206.5,380C 184.127,392.02 160.461,400.354 135.5,405C 130.196,406.066 125.196,405.4 120.5,403C 162.07,357.776 204.903,313.609 249,270.5C 258.287,279.311 269.287,284.311 282,285.5C 294.004,285.664 303.671,280.998 311,271.5C 321.918,254.759 328.918,236.426 332,216.5C 333.481,205.465 335.148,194.465 337,183.5C 385.062,135.937 433.228,88.6038 481.5,41.5 Z"/></g>
<g><path style="opacity:1" fill="#030304" d="M 370.5,55.5 C 385.675,53.8407 392.175,60.5074 390,75.5C 384.393,85.7205 376.559,87.8872 366.5,82C 358.744,71.6972 360.077,62.8639 370.5,55.5 Z"/></g>
<g><path style="opacity:1" fill="#9ca4bc" d="M 239.5,60.5 C 255.837,60.3334 272.17,60.5001 288.5,61C 260.368,84.1319 234.535,109.632 211,137.5C 201.165,125.83 194.498,112.497 191,97.5C 189.539,86.5895 193.373,78.0895 202.5,72C 214.285,66.0138 226.618,62.1804 239.5,60.5 Z"/></g>
<g><path style="opacity:1" fill="#9ca4bd" d="M 312.5,190.5 C 313.5,190.5 314.5,190.5 315.5,190.5C 313.565,213.24 307.732,234.907 298,255.5C 291.828,265.74 283.328,268.24 272.5,263C 268.4,260.533 264.566,257.699 261,254.5C 258.095,249.349 257.762,244.015 260,238.5C 272.316,216.677 289.816,200.677 312.5,190.5 Z"/></g>
<g><path style="opacity:1" fill="#9ba3bc" d="M 136.5,225.5 C 139.85,225.335 143.183,225.502 146.5,226C 130.477,250.205 116.644,275.705 105,302.5C 94.9505,290.091 87.9505,276.091 84,260.5C 83.2787,246.793 89.4454,237.627 102.5,233C 113.734,229.389 125.067,226.889 136.5,225.5 Z"/></g>
<g><path style="opacity:1" fill="#9ca4bd" d="M 362.5,293.5 C 362.775,310.198 360.941,326.864 357,343.5C 354.286,354.1 349.119,363.267 341.5,371C 335.184,374.832 328.518,375.498 321.5,373C 309.368,368.357 298.368,361.857 288.5,353.5C 314.659,335.341 339.326,315.341 362.5,293.5 Z"/></g>
<g><path style="opacity:1" fill="#2a2c33" d="M 29.5,359.5 C 49.6598,358.503 69.9931,358.17 90.5,358.5C 90.5,365.833 90.5,373.167 90.5,380.5C 89.5088,373.687 89.1755,366.687 89.5,359.5C 69.5,359.5 49.5,359.5 29.5,359.5 Z"/></g>
<g><path style="opacity:0.998" fill="#9ca4bd" d="M 29.5,359.5 C 49.5,359.5 69.5,359.5 89.5,359.5C 89.1755,366.687 89.5088,373.687 90.5,380.5C 90.9072,388.369 92.4072,396.036 95,403.5C 99.422,414.256 107.255,421.089 118.5,424C 130.987,425.088 143.32,424.255 155.5,421.5C 156.666,443.159 156.833,464.826 156,486.5C 155.167,488.667 153.667,490.167 151.5,491C 146.167,491.667 140.833,491.667 135.5,491C 119.658,488.719 104.492,484.219 90,477.5C 85.8634,478.142 82.6967,480.142 80.5,483.5C 73.5568,479.223 66.8901,474.556 60.5,469.5C 66.0182,460.2 63.5182,454.2 53,451.5C 50.2915,452.109 47.7915,453.109 45.5,454.5C 40.444,448.11 35.7774,441.443 31.5,434.5C 34.8729,432.265 36.8729,429.099 37.5,425C 29.8614,407.779 25.1947,389.779 23.5,371C 23.4276,367.71 23.9276,364.544 25,361.5C 26.3297,360.418 27.8297,359.751 29.5,359.5 Z"/></g>
<g><path style="opacity:0.933" fill="#030304" d="M 60.5,469.5 C 56.0754,473.282 51.4087,473.449 46.5,470C 41.6669,465.046 41.3336,459.88 45.5,454.5C 47.7915,453.109 50.2915,452.109 53,451.5C 63.5182,454.2 66.0182,460.2 60.5,469.5 Z"/></g>
</svg>
