<?xml version="1.0" encoding="UTF-8"?>
<!DOCTYPE svg PUBLIC "-//W3C//DTD SVG 1.1//EN" "http://www.w3.org/Graphics/SVG/1.1/DTD/svg11.dtd">
<svg xmlns="http://www.w3.org/2000/svg" version="1.1" width="512px" height="512px" style="shape-rendering:geometricPrecision; text-rendering:geometricPrecision; image-rendering:optimizeQuality; fill-rule:evenodd; clip-rule:evenodd" xmlns:xlink="http://www.w3.org/1999/xlink">
<g><path style="opacity:0.977" fill="#020000" d="M 349.5,-0.5 C 354.167,-0.5 358.833,-0.5 363.5,-0.5C 398.079,22.1365 432.413,45.3031 466.5,69C 475.427,75.7015 478.594,84.5349 476,95.5C 470.638,105.199 463.471,113.366 454.5,120C 442.976,126.927 431.976,134.594 421.5,143C 407.895,156.371 397.395,171.871 390,189.5C 385.98,205.578 381.647,221.578 377,237.5C 373.199,247.105 368.366,256.105 362.5,264.5C 364.666,266.493 366.999,268.327 369.5,270C 382.946,276.222 395.946,283.222 408.5,291C 437.528,313.523 456.695,342.689 466,378.5C 468.667,383.167 471.333,387.833 474,392.5C 480.323,409.375 476.823,423.875 463.5,436C 441.202,455.296 419.202,474.963 397.5,495C 378.679,508.868 361.179,507.368 345,490.5C 337.757,475.113 331.091,459.446 325,443.5C 310.649,418.982 290.483,400.982 264.5,389.5C 256.823,422.042 240.156,448.876 214.5,470C 196.807,480.012 181.141,492.679 167.5,508C 165.075,509.213 162.741,510.379 160.5,511.5C 156.167,511.5 151.833,511.5 147.5,511.5C 114.092,489.285 80.7584,466.785 47.5,444C 33.9338,435.444 30.7672,423.944 38,409.5C 43.5,402.667 49.6667,396.5 56.5,391C 68.0239,384.073 79.0239,376.406 89.5,368C 113.052,344.414 126.885,315.914 131,282.5C 134.975,269.55 140.809,257.55 148.5,246.5C 146.334,244.507 144.001,242.673 141.5,241C 128.054,234.778 115.054,227.778 102.5,220C 73.4717,197.477 54.305,168.311 45,132.5C 42.3333,127.833 39.6667,123.167 37,118.5C 30.677,101.625 34.177,87.1254 47.5,75C 69.7979,55.7041 91.7979,36.0374 113.5,16C 132.321,2.13217 149.821,3.63217 166,20.5C 173.243,35.8871 179.909,51.5538 186,67.5C 200.351,92.0176 220.517,110.018 246.5,121.5C 254.177,88.9577 270.844,62.1243 296.5,41C 314.193,30.9875 329.859,18.3209 343.5,3C 345.727,2.05898 347.727,0.892318 349.5,-0.5 Z"/></g>
<g><path style="opacity:1" fill="#a2001d" d="M 307.5,107.5 C 305.076,110.008 303.41,113.008 302.5,116.5C 302.167,116.5 301.833,116.5 301.5,116.5C 299.047,113.217 296.047,110.384 292.5,108C 285.934,103.887 279.267,100.054 272.5,96.5C 285.93,70.5694 305.597,50.736 331.5,37C 339.167,30.6667 346.167,23.6667 352.5,16C 354.365,14.6986 356.365,14.3653 358.5,15C 364.167,18.6667 369.833,22.3333 375.5,26C 377.211,27.1332 377.711,28.6332 377,30.5C 373.182,35.2852 369.015,39.7852 364.5,44C 353.517,52.4918 342.184,60.4918 330.5,68C 320.917,76.5806 312.417,86.0806 305,96.5C 303.812,100.741 304.645,104.408 307.5,107.5 Z"/></g>
<g><path style="opacity:1" fill="#c40023" d="M 282.5,247.5 C 280.441,242.99 278.774,238.323 277.5,233.5C 282.342,228.396 282.842,222.73 279,216.5C 268.193,195.356 253.36,177.523 234.5,163C 219.661,154.413 204.661,146.08 189.5,138C 171.511,124.192 157.678,107.025 148,86.5C 142.906,66.0008 133.739,47.6675 120.5,31.5C 130.754,20.3229 141.587,19.6562 153,29.5C 157.783,39.1813 161.783,49.1813 165,59.5C 175.573,84.0715 191.406,104.571 212.5,121C 228.996,130.08 245.329,139.414 261.5,149C 276.301,161.128 288.134,175.628 297,192.5C 302.08,206.74 307.747,220.74 314,234.5C 324.289,251.13 337.122,265.63 352.5,278C 368.5,287 384.5,296 400.5,305C 424.815,324.447 440.982,349.28 449,379.5C 452.745,387.324 456.745,394.991 461,402.5C 462.225,408.268 461.225,413.601 458,418.5C 454.833,421.667 451.667,424.833 448.5,428C 447.365,428.749 446.365,428.583 445.5,427.5C 434.714,412.676 426.881,396.342 422,378.5C 404.843,342.344 377.677,316.844 340.5,302C 319.853,289.021 303.686,271.854 292,250.5C 289.51,246.99 286.344,245.99 282.5,247.5 Z"/></g>
<g><path style="opacity:1" fill="#fd9277" d="M 337.5,162.5 C 328.903,144.894 317.236,129.56 302.5,116.5C 303.41,113.008 305.076,110.008 307.5,107.5C 310.187,107.664 312.854,107.497 315.5,107C 322.363,98.2915 329.696,89.9581 337.5,82C 348.5,74.3333 359.5,66.6667 370.5,59C 378.065,52.3573 385.065,45.1907 391.5,37.5C 403.42,45.3762 415.253,53.3762 427,61.5C 427.315,62.9078 426.982,64.2411 426,65.5C 418.485,73.6802 410.319,81.1802 401.5,88C 371.406,105.383 350.073,130.216 337.5,162.5 Z"/></g>
<g><path style="opacity:1" fill="#fd9277" d="M 277.5,233.5 C 278.774,238.323 280.441,242.99 282.5,247.5C 278.686,250.152 277.519,253.819 279,258.5C 295.654,289.82 320.487,311.986 353.5,325C 386.345,344.206 407.512,372.372 417,409.5C 421.791,420.26 427.957,430.093 435.5,439C 424.049,448.816 412.883,458.983 402,469.5C 395.999,462.173 390.999,454.173 387,445.5C 380.508,422.511 369.841,401.844 355,383.5C 345.302,372.125 334.135,362.625 321.5,355C 309.184,349.176 297.184,342.843 285.5,336C 282.177,335.068 279.177,335.568 276.5,337.5C 272.209,334.877 268.543,331.544 265.5,327.5C 267.842,324.283 268.009,320.95 266,317.5C 258.838,310.004 252.838,301.671 248,292.5C 242.253,276.924 235.919,261.591 229,246.5C 217.257,227.423 202.091,211.59 183.5,199C 170.72,193.111 158.386,186.444 146.5,179C 142.356,176.862 138.356,177.029 134.5,179.5C 131.124,176.122 127.457,173.122 123.5,170.5C 125.347,167.406 125.847,164.072 125,160.5C 119.177,153.521 113.844,146.188 109,138.5C 102.251,121.253 94.9173,104.253 87,87.5C 83.1667,82.3333 79.3333,77.1667 75.5,72C 86.5913,62.0446 97.758,52.2112 109,42.5C 112.691,46.5288 116.025,50.8621 119,55.5C 126.528,72.4177 133.861,89.4177 141,106.5C 151.66,123.831 165.16,138.664 181.5,151C 192.517,157.509 203.85,163.509 215.5,169C 239.79,183.79 257.456,204.29 268.5,230.5C 270.92,233.077 273.92,234.077 277.5,233.5 Z"/></g>
<g><path style="opacity:1" fill="#a3001d" d="M 366.5,218.5 C 357.823,210.122 351.49,200.122 347.5,188.5C 352.608,159.784 365.941,135.617 387.5,116C 398.325,108.087 409.325,100.42 420.5,93C 427.709,85.9589 434.709,78.7922 441.5,71.5C 447.929,75.4642 454.096,79.7976 460,84.5C 460.79,87.634 460.457,90.634 459,93.5C 453.802,99.033 448.302,104.2 442.5,109C 399.347,133.009 374.014,169.509 366.5,218.5 Z"/></g>
<g><path style="opacity:1" fill="#c40023" d="M 123.5,170.5 C 127.457,173.122 131.124,176.122 134.5,179.5C 132.741,183.783 133.408,187.617 136.5,191C 151.339,199.587 166.339,207.92 181.5,216C 207.184,236.374 224.018,262.541 232,294.5C 238.091,307.532 246.258,319.032 256.5,329C 259.741,329.793 262.741,329.293 265.5,327.5C 268.543,331.544 272.209,334.877 276.5,337.5C 273.718,341.396 274.051,345.063 277.5,348.5C 289.688,356.096 302.355,362.93 315.5,369C 336.342,383.178 352.175,401.678 363,424.5C 368.476,444.786 377.643,463.119 390.5,479.5C 383.492,487.781 374.825,490.281 364.5,487C 362.04,485.542 359.873,483.709 358,481.5C 351.918,465.588 345.251,449.921 338,434.5C 321.571,405.405 297.737,384.905 266.5,373C 244.282,360.449 227.115,342.949 215,320.5C 209.16,303.64 202.16,287.307 194,271.5C 175.42,243.929 150.587,224.096 119.5,212C 89.9255,192.714 70.7589,165.881 62,131.5C 58.255,123.676 54.255,116.009 50,108.5C 49.2093,104.074 49.5427,99.7411 51,95.5C 54.679,90.4876 59.0124,86.1543 64,82.5C 67.6913,86.5288 71.0246,90.8621 74,95.5C 80.3103,108.097 85.6437,121.097 90,134.5C 96.0602,148.133 104.227,160.299 114.5,171C 117.555,171.634 120.555,171.468 123.5,170.5 Z"/></g>
<g><path style="opacity:1" fill="#700014" d="M 272.5,96.5 C 279.267,100.054 285.934,103.887 292.5,108C 296.047,110.384 299.047,113.217 301.5,116.5C 300.766,117.708 300.433,119.041 300.5,120.5C 296.812,118.753 293.645,119.42 291,122.5C 287.324,130.526 284.658,138.86 283,147.5C 277.076,141.572 270.576,136.406 263.5,132C 262.426,131.261 261.759,130.261 261.5,129C 263.504,117.486 267.171,106.653 272.5,96.5 Z"/></g>
<g><path style="opacity:1" fill="#fc6142" d="M 301.5,116.5 C 301.833,116.5 302.167,116.5 302.5,116.5C 317.236,129.56 328.903,144.894 337.5,162.5C 334.774,174.517 331.941,186.517 329,198.5C 327.439,204.523 325.106,210.19 322,215.5C 316.607,195.716 307.774,177.716 295.5,161.5C 297.877,149.991 300.877,138.658 304.5,127.5C 304.439,124.372 303.106,122.039 300.5,120.5C 300.433,119.041 300.766,117.708 301.5,116.5 Z"/></g>
<g><path style="opacity:1" fill="#060201" d="M 265.5,327.5 C 262.741,329.293 259.741,329.793 256.5,329C 246.258,319.032 238.091,307.532 232,294.5C 224.018,262.541 207.184,236.374 181.5,216C 166.339,207.92 151.339,199.587 136.5,191C 133.408,187.617 132.741,183.783 134.5,179.5C 138.356,177.029 142.356,176.862 146.5,179C 158.386,186.444 170.72,193.111 183.5,199C 202.091,211.59 217.257,227.423 229,246.5C 235.919,261.591 242.253,276.924 248,292.5C 252.838,301.671 258.838,310.004 266,317.5C 268.009,320.95 267.842,324.283 265.5,327.5 Z"/></g>
<g><path style="opacity:1" fill="#700014" d="M 347.5,188.5 C 351.49,200.122 357.823,210.122 366.5,218.5C 362.751,231.418 357.084,243.418 349.5,254.5C 342.257,247.758 335.924,240.258 330.5,232C 338.648,218.376 344.314,203.876 347.5,188.5 Z"/></g>
<g><path style="opacity:1" fill="#700014" d="M 185.5,287.5 C 182.836,289.484 181.169,292.151 180.5,295.5C 177.277,294.448 174.277,295.114 171.5,297.5C 168.549,303.695 166.216,310.028 164.5,316.5C 160.978,305.804 155.145,296.471 147,288.5C 146.617,289.056 146.117,289.389 145.5,289.5C 148.964,277.573 154.297,266.573 161.5,256.5C 171.191,265.56 179.191,275.893 185.5,287.5 Z"/></g>
<g><path style="opacity:1" fill="#a2001d" d="M 164.5,316.5 C 160.712,347.912 147.045,374.079 123.5,395C 112.675,402.913 101.675,410.58 90.5,418C 83.2913,425.041 76.2913,432.208 69.5,439.5C 63.0706,435.536 56.904,431.202 51,426.5C 50.3333,423.833 50.3333,421.167 51,418.5C 56.5313,412.634 62.3647,407.134 68.5,402C 112.357,377.169 138.023,339.669 145.5,289.5C 146.117,289.389 146.617,289.056 147,288.5C 155.145,296.471 160.978,305.804 164.5,316.5 Z"/></g>
<g><path style="opacity:1" fill="#fb6042" d="M 185.5,287.5 C 190.815,299.607 195.649,311.94 200,324.5C 203.913,332.667 208.58,340.333 214,347.5C 214.518,351.551 214.184,355.551 213,359.5C 211.071,368.584 208.237,377.251 204.5,385.5C 191.229,372.882 181.563,357.882 175.5,340.5C 177.801,327.492 180.801,314.659 184.5,302C 184.602,298.938 183.269,296.771 180.5,295.5C 181.169,292.151 182.836,289.484 185.5,287.5 Z"/></g>
<g><path style="opacity:1" fill="#fd9277" d="M 175.5,340.5 C 181.563,357.882 191.229,372.882 204.5,385.5C 196.472,403.701 184.805,419.201 169.5,432C 150.727,442.774 134.394,456.441 120.5,473C 119.092,473.315 117.759,472.982 116.5,472C 105.667,464.5 94.8333,457 84,449.5C 83.6848,448.092 84.0181,446.759 85,445.5C 92.5147,437.32 100.681,429.82 109.5,423C 142.072,403.931 164.072,376.431 175.5,340.5 Z"/></g>
<g><path style="opacity:1" fill="#700014" d="M 239.5,412.5 C 239.586,411.504 239.252,410.671 238.5,410C 230.753,406.068 223.42,401.568 216.5,396.5C 221.418,385.915 225.251,374.915 228,363.5C 228.75,364.126 229.584,364.626 230.5,365C 236.745,370.925 243.079,376.591 249.5,382C 247.233,392.633 243.899,402.8 239.5,412.5 Z"/></g>
<g><path style="opacity:1" fill="#a2001d" d="M 216.5,396.5 C 223.42,401.568 230.753,406.068 238.5,410C 239.252,410.671 239.586,411.504 239.5,412.5C 230.767,430.747 218.434,446.247 202.5,459C 185.549,468.151 170.883,480.151 158.5,495C 156.635,496.301 154.635,496.635 152.5,496C 146.833,492.333 141.167,488.667 135.5,485C 133.789,483.867 133.289,482.367 134,480.5C 137.818,475.715 141.985,471.215 146.5,467C 160.6,457.2 174.433,447.033 188,436.5C 199.66,424.678 209.16,411.345 216.5,396.5 Z"/></g>
</svg>
