<?xml version="1.0" encoding="UTF-8"?>
<!DOCTYPE svg PUBLIC "-//W3C//DTD SVG 1.1//EN" "http://www.w3.org/Graphics/SVG/1.1/DTD/svg11.dtd">
<svg xmlns="http://www.w3.org/2000/svg" version="1.1" width="512px" height="512px" style="shape-rendering:geometricPrecision; text-rendering:geometricPrecision; image-rendering:optimizeQuality; fill-rule:evenodd; clip-rule:evenodd" xmlns:xlink="http://www.w3.org/1999/xlink">
<g><path style="opacity:0.967" fill="#010102" d="M 257.5,-0.5 C 261.5,-0.5 265.5,-0.5 269.5,-0.5C 272.495,1.09757 275.329,3.09757 278,5.5C 305.557,53.0596 319.057,104.393 318.5,159.5C 347.832,160.205 377.165,160.372 406.5,160C 414.591,159.373 422.591,158.207 430.5,156.5C 430.453,153.072 429.287,150.072 427,147.5C 420.98,145.043 418.98,140.709 421,134.5C 423.513,130.788 427.013,129.622 431.5,131C 435.933,133.133 439.433,136.3 442,140.5C 450.357,130.038 449.023,121.038 438,113.5C 435.519,104.312 439.019,100.478 448.5,102C 463.088,111.832 467.088,124.999 460.5,141.5C 485.938,148.377 493.772,164.044 484,188.5C 478.305,192.719 473.638,191.719 470,185.5C 470.293,181.104 471.126,176.771 472.5,172.5C 470.466,160.981 463.799,156.814 452.5,160C 449.569,161.526 447.569,163.859 446.5,167C 449.915,182.305 451.415,197.805 451,213.5C 449.67,217.007 447.17,218.673 443.5,218.5C 440.012,217.857 437.512,215.857 436,212.5C 435.895,199.758 434.895,187.092 433,174.5C 431.874,173.056 430.374,172.39 428.5,172.5C 422.74,173.226 417.073,174.226 411.5,175.5C 402.003,175.845 392.503,176.178 383,176.5C 355.184,174.877 327.351,174.377 299.5,175C 287.871,175.625 276.371,177.125 265,179.5C 261.167,179.168 258.667,177.168 257.5,173.5C 257.625,167.082 260.959,163.749 267.5,163.5C 279.1,161.839 290.767,160.839 302.5,160.5C 304.027,108.442 291.694,59.9421 265.5,15C 264.5,14.3333 263.5,14.3333 262.5,15C 256.938,17.941 251.605,21.1077 246.5,24.5C 213.64,37.2878 180.64,49.7878 147.5,62C 119.836,73.072 95.6689,89.2386 75,110.5C 70.1134,116.386 65.6134,122.553 61.5,129C 106.417,149.194 151.417,169.194 196.5,189C 197.833,189.667 199.167,189.667 200.5,189C 208.561,183.301 217.228,178.635 226.5,175C 230.142,173.93 233.142,174.764 235.5,177.5C 237.043,181.032 236.709,184.365 234.5,187.5C 207.741,199.093 185.908,216.76 169,240.5C 154.688,260.463 144.688,282.463 139,306.5C 138.333,309.5 138.333,312.5 139,315.5C 157,333.5 175,351.5 193,369.5C 196.451,376.464 194.451,380.797 187,382.5C 184.968,382.142 183.134,381.308 181.5,380C 166.939,364.273 151.939,349.107 136.5,334.5C 136.44,333.957 136.107,333.624 135.5,333.5C 134.175,345.66 134.175,357.66 135.5,369.5C 135.789,376.178 136.289,382.844 137,389.5C 140.441,409.815 143.775,430.148 147,450.5C 147.499,456.491 147.666,462.491 147.5,468.5C 146.501,477.487 146.001,486.487 146,495.5C 223.141,490.088 290.807,462.088 349,411.5C 349.667,410.833 349.667,410.167 349,409.5C 340.632,400.964 332.132,392.631 323.5,384.5C 299.202,359.701 274.702,335.035 250,310.5C 247.204,304.093 249.204,300.093 256,298.5C 257.627,298.625 259.127,299.125 260.5,300C 285.368,325.035 310.368,349.868 335.5,374.5C 343.798,383.298 352.298,391.965 361,400.5C 404.424,357.639 429.091,305.639 435,244.5C 436.674,240.911 439.507,239.245 443.5,239.5C 446.148,239.738 447.982,241.072 449,243.5C 443.484,314.697 414.317,374.197 361.5,422C 303.403,472.206 236.07,502.039 159.5,511.5C 153.833,511.5 148.167,511.5 142.5,511.5C 136.852,509.35 133.019,505.35 131,499.5C 131.343,483.175 131.343,466.841 131,450.5C 130.302,443.628 128.968,436.961 127,430.5C 124.57,431.965 122.07,433.298 119.5,434.5C 122.501,439.656 123.001,444.99 121,450.5C 116.8,453.133 112.633,453.133 108.5,450.5C 99.967,460.42 101.134,469.087 112,476.5C 115.569,483.985 113.403,488.318 105.5,489.5C 97.7064,487.214 92.2064,482.214 89,474.5C 85.5508,465.755 86.0508,457.255 90.5,449C 68.9001,444.948 59.7334,432.114 63,410.5C 65.6613,399.847 71.328,397.513 80,403.5C 80.5677,408.622 80.0677,413.622 78.5,418.5C 79.5521,428.703 85.2187,433.203 95.5,432C 97.8442,431.163 99.8442,429.829 101.5,428C 96.9275,415.554 92.4275,403.054 88,390.5C 77.8392,371.508 67.1725,352.841 56,334.5C 49.9538,323.075 44.4538,311.408 39.5,299.5C 40.2357,297.459 41.0691,295.459 42,293.5C 42.6708,292.748 43.5041,292.414 44.5,292.5C 48.9536,291.617 52.4536,292.95 55,296.5C 66.3061,321.12 79.1394,344.787 93.5,367.5C 102.653,383.48 109.319,400.48 113.5,418.5C 118.847,418.17 122.847,415.837 125.5,411.5C 119.42,379.654 118.254,347.654 122,315.5C 130.131,270.564 150.797,232.564 184,201.5C 184.688,200.668 184.521,200.002 183.5,199.5C 181.473,198.487 179.473,197.487 177.5,196.5C 136.497,178.916 95.6635,160.916 55,142.5C 36.6097,181.572 32.7764,222.072 43.5,264C 43.4581,265.967 42.9581,267.801 42,269.5C 40.3333,270.733 38.8333,272.067 37.5,273.5C 33.6032,273.502 30.7699,271.835 29,268.5C 15.9531,216.163 22.6198,166.496 49,119.5C 67.9963,91.5051 92.8296,70.3384 123.5,56C 134.167,51.3333 144.833,46.6667 155.5,42C 179.243,33.5301 202.91,24.8634 226.5,16C 237.498,11.5042 247.831,6.00423 257.5,-0.5 Z"/></g>
<g><path style="opacity:1" fill="#955ab9" d="M 267.5,163.5 C 268.687,157.448 268.687,151.448 267.5,145.5C 275.379,145.784 278.212,142.117 276,134.5C 273.83,132.177 271.33,130.51 268.5,129.5C 269.115,92.9138 261.782,57.9138 246.5,24.5C 251.605,21.1077 256.938,17.941 262.5,15C 263.5,14.3333 264.5,14.3333 265.5,15C 291.694,59.9421 304.027,108.442 302.5,160.5C 290.767,160.839 279.1,161.839 267.5,163.5 Z"/></g>
<g><path style="opacity:1" fill="#ad69d6" d="M 246.5,24.5 C 261.782,57.9138 269.115,92.9138 268.5,129.5C 253.483,123.103 238.483,116.603 223.5,110C 215.212,108.709 212.045,112.209 214,120.5C 214.833,121.333 215.667,122.167 216.5,123C 233.4,130.797 250.4,138.297 267.5,145.5C 268.687,151.448 268.687,157.448 267.5,163.5C 260.959,163.749 257.625,167.082 257.5,173.5C 250.292,175.475 242.958,176.808 235.5,177.5C 233.142,174.764 230.142,173.93 226.5,175C 217.228,178.635 208.561,183.301 200.5,189C 199.167,189.667 197.833,189.667 196.5,189C 151.417,169.194 106.417,149.194 61.5,129C 65.6134,122.553 70.1134,116.386 75,110.5C 95.6689,89.2386 119.836,73.072 147.5,62C 180.64,49.7878 213.64,37.2878 246.5,24.5 Z"/></g>
<g><path style="opacity:1" fill="#060308" d="M 162.5,84.5 C 164.199,84.3398 165.866,84.5065 167.5,85C 173.5,87.6667 179.5,90.3333 185.5,93C 190.833,97.3333 190.833,101.667 185.5,106C 182.833,106.667 180.167,106.667 177.5,106C 172.167,103.667 166.833,101.333 161.5,99C 155.99,93.7302 156.323,88.8968 162.5,84.5 Z"/></g>
<g><path style="opacity:1" fill="#030104" d="M 268.5,129.5 C 271.33,130.51 273.83,132.177 276,134.5C 278.212,142.117 275.379,145.784 267.5,145.5C 250.4,138.297 233.4,130.797 216.5,123C 215.667,122.167 214.833,121.333 214,120.5C 212.045,112.209 215.212,108.709 223.5,110C 238.483,116.603 253.483,123.103 268.5,129.5 Z"/></g>
<g><path style="opacity:1" fill="#ac69d6" d="M 177.5,196.5 C 120.946,238.617 93.4457,295.284 95,366.5C 94.6174,367.056 94.1174,367.389 93.5,367.5C 79.1394,344.787 66.3061,321.12 55,296.5C 52.4536,292.95 48.9536,291.617 44.5,292.5C 41.9457,286.162 39.6123,279.829 37.5,273.5C 38.8333,272.067 40.3333,270.733 42,269.5C 42.9581,267.801 43.4581,265.967 43.5,264C 32.7764,222.072 36.6097,181.572 55,142.5C 95.6635,160.916 136.497,178.916 177.5,196.5 Z"/></g>
<g><path style="opacity:1" fill="#ad69d6" d="M 443.5,218.5 C 443.5,225.5 443.5,232.5 443.5,239.5C 439.507,239.245 436.674,240.911 435,244.5C 429.091,305.639 404.424,357.639 361,400.5C 352.298,391.965 343.798,383.298 335.5,374.5C 388.743,319.141 414.077,252.808 411.5,175.5C 417.073,174.226 422.74,173.226 428.5,172.5C 430.374,172.39 431.874,173.056 433,174.5C 434.895,187.092 435.895,199.758 436,212.5C 437.512,215.857 440.012,217.857 443.5,218.5 Z"/></g>
<g><path style="opacity:1" fill="#bb82de" d="M 257.5,173.5 C 258.667,177.168 261.167,179.168 265,179.5C 276.371,177.125 287.871,175.625 299.5,175C 327.351,174.377 355.184,174.877 383,176.5C 392.503,176.178 402.003,175.845 411.5,175.5C 414.077,252.808 388.743,319.141 335.5,374.5C 310.368,349.868 285.368,325.035 260.5,300C 259.127,299.125 257.627,298.625 256,298.5C 249.204,300.093 247.204,304.093 250,310.5C 274.702,335.035 299.202,359.701 323.5,384.5C 293.812,411.026 260.479,432.026 223.5,447.5C 219.702,444.204 216.036,440.704 212.5,437C 206.093,434.204 202.093,436.204 200.5,443C 201.821,447.158 204.154,450.658 207.5,453.5C 195.152,456.936 182.819,460.436 170.5,464C 162.775,465.312 155.108,466.812 147.5,468.5C 147.666,462.491 147.499,456.491 147,450.5C 143.775,430.148 140.441,409.815 137,389.5C 136.289,382.844 135.789,376.178 135.5,369.5C 135.172,357.655 135.505,345.988 136.5,334.5C 151.939,349.107 166.939,364.273 181.5,380C 183.134,381.308 184.968,382.142 187,382.5C 194.451,380.797 196.451,376.464 193,369.5C 175,351.5 157,333.5 139,315.5C 138.333,312.5 138.333,309.5 139,306.5C 144.688,282.463 154.688,260.463 169,240.5C 185.908,216.76 207.741,199.093 234.5,187.5C 236.709,184.365 237.043,181.032 235.5,177.5C 242.958,176.808 250.292,175.475 257.5,173.5 Z"/></g>
<g><path style="opacity:1" fill="#040205" d="M 105.5,188.5 C 107.199,188.34 108.866,188.506 110.5,189C 123.167,194.667 135.833,200.333 148.5,206C 152.782,214.706 150.115,219.04 140.5,219C 128.5,213.667 116.5,208.333 104.5,203C 99.0028,197.683 99.3361,192.85 105.5,188.5 Z"/></g>
<g><path style="opacity:1" fill="#955ab9" d="M 177.5,196.5 C 179.473,197.487 181.473,198.487 183.5,199.5C 184.521,200.002 184.688,200.668 184,201.5C 150.797,232.564 130.131,270.564 122,315.5C 118.254,347.654 119.42,379.654 125.5,411.5C 122.847,415.837 118.847,418.17 113.5,418.5C 109.319,400.48 102.653,383.48 93.5,367.5C 94.1174,367.389 94.6174,367.056 95,366.5C 93.4457,295.284 120.946,238.617 177.5,196.5 Z"/></g>
<g><path style="opacity:1" fill="#0a070c" d="M 267.5,211.5 C 270.928,211.547 273.928,212.713 276.5,215C 296.667,235.167 316.833,255.333 337,275.5C 341.638,286.533 338.138,290.366 326.5,287C 305.667,266.167 284.833,245.333 264,224.5C 261.348,219.039 262.514,214.706 267.5,211.5 Z"/></g>
<g><path style="opacity:1" fill="#040305" d="M 348.5,225.5 C 350.655,225.372 352.655,225.872 354.5,227C 362,234.5 369.5,242 377,249.5C 378.591,259.128 374.758,262.295 365.5,259C 358.667,252.167 351.833,245.333 345,238.5C 342.186,232.938 343.352,228.605 348.5,225.5 Z"/></g>
<g><path style="opacity:1" fill="#030204" d="M 177.5,311.5 C 180.32,311.248 182.986,311.748 185.5,313C 189.667,317.167 193.833,321.333 198,325.5C 199.833,334.333 196.333,337.833 187.5,336C 183.333,331.833 179.167,327.667 175,323.5C 172.523,318.669 173.356,314.669 177.5,311.5 Z"/></g>
<g><path style="opacity:1" fill="#8d62a7" d="M 136.5,334.5 C 135.505,345.988 135.172,357.655 135.5,369.5C 134.175,357.66 134.175,345.66 135.5,333.5C 136.107,333.624 136.44,333.957 136.5,334.5 Z"/></g>
<g><path style="opacity:1" fill="#ac69d6" d="M 323.5,384.5 C 332.132,392.631 340.632,400.964 349,409.5C 349.667,410.167 349.667,410.833 349,411.5C 290.807,462.088 223.141,490.088 146,495.5C 146.001,486.487 146.501,477.487 147.5,468.5C 155.108,466.812 162.775,465.312 170.5,464C 182.819,460.436 195.152,456.936 207.5,453.5C 209.963,455.461 212.297,457.628 214.5,460C 223.156,462.677 226.989,459.511 226,450.5C 224.955,449.627 224.122,448.627 223.5,447.5C 260.479,432.026 293.812,411.026 323.5,384.5 Z"/></g>
<g><path style="opacity:1" fill="#050306" d="M 223.5,447.5 C 224.122,448.627 224.955,449.627 226,450.5C 226.989,459.511 223.156,462.677 214.5,460C 212.297,457.628 209.963,455.461 207.5,453.5C 204.154,450.658 201.821,447.158 200.5,443C 202.093,436.204 206.093,434.204 212.5,437C 216.036,440.704 219.702,444.204 223.5,447.5 Z"/></g>
</svg>
