<?xml version="1.0" encoding="UTF-8"?>
<!DOCTYPE svg PUBLIC "-//W3C//DTD SVG 1.1//EN" "http://www.w3.org/Graphics/SVG/1.1/DTD/svg11.dtd">
<svg xmlns="http://www.w3.org/2000/svg" version="1.1" width="512px" height="512px" style="shape-rendering:geometricPrecision; text-rendering:geometricPrecision; image-rendering:optimizeQuality; fill-rule:evenodd; clip-rule:evenodd" xmlns:xlink="http://www.w3.org/1999/xlink">
<g><path style="opacity:0.986" fill="#000000" d="M 191.5,-0.5 C 234.167,-0.5 276.833,-0.5 319.5,-0.5C 326.237,2.40736 330.737,7.40736 333,14.5C 333.667,28.5 333.667,42.5 333,56.5C 331.156,63.0111 327.156,67.6778 321,70.5C 320.526,102.28 329.193,131.28 347,157.5C 357.956,171.458 369.29,185.125 381,198.5C 396.044,217.935 405.044,239.935 408,264.5C 408.667,334.833 408.667,405.167 408,475.5C 403.319,494.681 391.485,506.681 372.5,511.5C 294.5,511.5 216.5,511.5 138.5,511.5C 119.515,506.681 107.681,494.681 103,475.5C 102.333,405.167 102.333,334.833 103,264.5C 105.956,239.935 114.956,217.935 130,198.5C 144.81,182.029 158.477,164.695 171,146.5C 184.105,122.854 190.438,97.5207 190,70.5C 183.844,67.6778 179.844,63.0111 178,56.5C 177.333,42.5 177.333,28.5 178,14.5C 180.263,7.40736 184.763,2.40736 191.5,-0.5 Z"/></g>
<g><path style="opacity:1" fill="#a8a9c7" d="M 284.5,14.5 C 285.816,28.4876 285.816,42.4876 284.5,56.5C 255.165,56.6666 225.831,56.5 196.5,56C 194.667,55.5 193.5,54.3333 193,52.5C 192.333,41.1667 192.333,29.8333 193,18.5C 193.5,16.6667 194.667,15.5 196.5,15C 225.831,14.5 255.165,14.3334 284.5,14.5 Z"/></g>
<g><path style="opacity:1" fill="#7e7ea2" d="M 284.5,14.5 C 295.27,14.0471 305.937,14.5471 316.5,16C 317.126,16.7504 317.626,17.5838 318,18.5C 318.667,29.8333 318.667,41.1667 318,52.5C 317.626,53.4162 317.126,54.2496 316.5,55C 305.937,56.4529 295.27,56.9529 284.5,56.5C 285.816,42.4876 285.816,28.4876 284.5,14.5 Z"/></g>
<g><path style="opacity:1" fill="#c2dcfe" d="M 266.5,71.5 C 266.519,90.6309 269.519,109.298 275.5,127.5C 249.145,128.158 223.145,127.491 197.5,125.5C 202.87,107.913 205.536,89.9129 205.5,71.5C 225.833,71.5 246.167,71.5 266.5,71.5 Z"/></g>
<g><path style="opacity:1" fill="#a3cafc" d="M 266.5,71.5 C 279.5,71.5 292.5,71.5 305.5,71.5C 305.464,89.9129 308.13,107.913 313.5,125.5C 301.211,127.48 288.544,128.147 275.5,127.5C 269.519,109.298 266.519,90.6309 266.5,71.5 Z"/></g>
<g><path style="opacity:1" fill="#272d35" d="M 197.5,125.5 C 223.145,127.491 249.145,128.158 275.5,127.5C 288.544,128.147 301.211,127.48 313.5,125.5C 314.404,126.209 314.737,127.209 314.5,128.5C 275.167,128.5 235.833,128.5 196.5,128.5C 196.263,127.209 196.596,126.209 197.5,125.5 Z"/></g>
<g><path style="opacity:1" fill="#da875d" d="M 190.5,143.5 C 221.168,143.333 251.835,143.5 282.5,144C 287.941,153.104 293.774,161.938 300,170.5C 310.379,182.707 320.545,195.04 330.5,207.5C 324.832,216.109 327.165,220.776 337.5,221.5C 339.017,221.511 340.184,222.177 341,223.5C 349.633,239.763 353.799,257.097 353.5,275.5C 325.165,275.333 296.831,275.5 268.5,276C 265.603,277.715 264.269,280.215 264.5,283.5C 258.167,283.5 251.833,283.5 245.5,283.5C 245.673,279.83 244.007,277.33 240.5,276C 199.501,275.5 158.501,275.333 117.5,275.5C 118.369,250.441 126.536,228.108 142,208.5C 153.71,195.125 165.044,181.458 176,167.5C 181.11,159.603 185.944,151.603 190.5,143.5 Z"/></g>
<g><path style="opacity:1" fill="#c37041" d="M 190.5,143.5 C 233.665,142.335 276.998,142.169 320.5,143C 324.955,151.414 329.789,159.581 335,167.5C 345.956,181.458 357.29,195.125 369,208.5C 384.463,228.106 392.63,250.439 393.5,275.5C 380.167,275.5 366.833,275.5 353.5,275.5C 353.799,257.097 349.633,239.763 341,223.5C 340.184,222.177 339.017,221.511 337.5,221.5C 344.101,216.662 344.101,211.829 337.5,207C 335.115,206.444 332.782,206.61 330.5,207.5C 320.545,195.04 310.379,182.707 300,170.5C 293.774,161.938 287.941,153.104 282.5,144C 251.835,143.5 221.168,143.333 190.5,143.5 Z"/></g>
<g><path style="opacity:1" fill="#0b0604" d="M 229.5,173.5 C 240.132,173.593 242.799,178.093 237.5,187C 228.895,189.734 225.062,186.567 226,177.5C 227.376,176.295 228.542,174.962 229.5,173.5 Z"/></g>
<g><path style="opacity:1" fill="#0b0503" d="M 337.5,221.5 C 327.165,220.776 324.832,216.109 330.5,207.5C 332.782,206.61 335.115,206.444 337.5,207C 344.101,211.829 344.101,216.662 337.5,221.5 Z"/></g>
<g><path style="opacity:1" fill="#080402" d="M 275.5,221.5 C 282.706,221.202 285.873,224.535 285,231.5C 282.774,235.861 279.274,237.361 274.5,236C 269.003,230.683 269.336,225.85 275.5,221.5 Z"/></g>
<g><path style="opacity:1" fill="#080402" d="M 177.5,223.5 C 184.676,223.173 187.842,226.506 187,233.5C 184.774,237.861 181.274,239.361 176.5,238C 170.881,232.595 171.215,227.762 177.5,223.5 Z"/></g>
<g><path style="opacity:1" fill="#fdde7c" d="M 245.5,283.5 C 251.833,283.5 258.167,283.5 264.5,283.5C 264.933,286.195 266.266,288.362 268.5,290C 297.165,290.5 325.831,290.667 354.5,290.5C 354.5,300.167 354.5,309.833 354.5,319.5C 333.678,307.396 315.844,310.729 301,329.5C 291.326,347.71 292.659,365.043 305,381.5C 319.078,394.915 334.578,396.915 351.5,387.5C 352.855,388.188 353.855,389.188 354.5,390.5C 354.5,401.5 354.5,412.5 354.5,423.5C 325.831,423.333 297.165,423.5 268.5,424C 265.603,425.715 264.269,428.215 264.5,431.5C 258.077,431.791 251.744,431.458 245.5,430.5C 245.201,427.358 243.534,425.191 240.5,424C 199.501,423.5 158.501,423.333 117.5,423.5C 117.5,379.167 117.5,334.833 117.5,290.5C 158.501,290.667 199.501,290.5 240.5,290C 243.534,288.809 245.201,286.642 245.5,283.5 Z"/></g>
<g><path style="opacity:1" fill="#fec67c" d="M 354.5,290.5 C 367.5,290.5 380.5,290.5 393.5,290.5C 393.5,334.833 393.5,379.167 393.5,423.5C 380.5,423.5 367.5,423.5 354.5,423.5C 354.5,412.5 354.5,401.5 354.5,390.5C 357.738,394.088 361.738,395.255 366.5,394C 368.871,392.257 370.205,389.923 370.5,387C 369,382.827 366.667,379.161 363.5,376C 375.221,354.8 372.221,335.967 354.5,319.5C 354.5,309.833 354.5,300.167 354.5,290.5 Z"/></g>
<g><path style="opacity:1" fill="#040301" d="M 143.5,312.5 C 154.505,312.333 165.505,312.5 176.5,313C 193.623,319.623 198.623,331.457 191.5,348.5C 203.35,358.281 205.517,369.948 198,383.5C 193.781,388.86 188.281,392.027 181.5,393C 169.167,393.667 156.833,393.667 144.5,393C 143.421,392.044 142.255,391.211 141,390.5C 139.362,365.896 139.029,341.23 140,316.5C 141.376,315.295 142.542,313.962 143.5,312.5 Z"/></g>
<g><path style="opacity:1" fill="#050402" d="M 223.5,312.5 C 234.505,312.333 245.505,312.5 256.5,313C 273.15,319.808 278.15,331.642 271.5,348.5C 282.593,357.6 285.093,368.6 279,381.5C 274.768,387.726 268.934,391.559 261.5,393C 249.167,393.667 236.833,393.667 224.5,393C 223.069,392.535 221.903,391.701 221,390.5C 219.353,365.921 219.02,341.254 220,316.5C 221.376,315.295 222.542,313.962 223.5,312.5 Z"/></g>
<g><path style="opacity:1" fill="#050402" d="M 354.5,319.5 C 372.221,335.967 375.221,354.8 363.5,376C 366.667,379.161 369,382.827 370.5,387C 370.205,389.923 368.871,392.257 366.5,394C 361.738,395.255 357.738,394.088 354.5,390.5C 353.855,389.188 352.855,388.188 351.5,387.5C 334.578,396.915 319.078,394.915 305,381.5C 292.659,365.043 291.326,347.71 301,329.5C 315.844,310.729 333.678,307.396 354.5,319.5 Z"/></g>
<g><path style="opacity:1" fill="#fbdc7b" d="M 154.5,327.5 C 161.175,327.334 167.842,327.5 174.5,328C 179.155,330.897 180.655,335.063 179,340.5C 177.457,342.378 175.624,343.878 173.5,345C 167.175,345.5 160.842,345.666 154.5,345.5C 154.5,339.5 154.5,333.5 154.5,327.5 Z"/></g>
<g><path style="opacity:1" fill="#fadc7a" d="M 234.5,327.5 C 241.175,327.334 247.842,327.5 254.5,328C 259.612,331.411 260.778,335.911 258,341.5C 256.786,343.049 255.286,344.215 253.5,345C 247.175,345.5 240.842,345.666 234.5,345.5C 234.5,339.5 234.5,333.5 234.5,327.5 Z"/></g>
<g><path style="opacity:1" fill="#fadb7a" d="M 326.5,327.5 C 341.196,326.027 350.696,332.361 355,346.5C 356.405,353.375 355.239,359.708 351.5,365.5C 348.314,362.479 344.98,359.646 341.5,357C 333.667,355.5 330.5,358.667 332,366.5C 334.463,369.965 337.296,373.131 340.5,376C 329.851,380.456 321.017,377.956 314,368.5C 304.452,350.442 308.618,336.776 326.5,327.5 Z"/></g>
<g><path style="opacity:1" fill="#fadb7a" d="M 154.5,360.5 C 163.839,360.334 173.173,360.5 182.5,361C 187.612,364.411 188.778,368.911 186,374.5C 184.681,376.487 182.848,377.654 180.5,378C 171.84,378.5 163.173,378.666 154.5,378.5C 154.5,372.5 154.5,366.5 154.5,360.5 Z"/></g>
<g><path style="opacity:1" fill="#fadb7a" d="M 234.5,360.5 C 243.506,360.334 252.506,360.5 261.5,361C 267.876,364.542 269.043,369.376 265,375.5C 263.581,376.46 262.081,377.293 260.5,378C 251.84,378.5 243.173,378.666 234.5,378.5C 234.5,372.5 234.5,366.5 234.5,360.5 Z"/></g>
<g><path style="opacity:1" fill="#da875d" d="M 245.5,430.5 C 251.744,431.458 258.077,431.791 264.5,431.5C 264.933,434.195 266.266,436.362 268.5,438C 297.165,438.5 325.831,438.667 354.5,438.5C 354.894,450.886 354.394,463.22 353,475.5C 350.979,484.237 346.479,491.237 339.5,496.5C 273.499,496.667 207.499,496.5 141.5,496C 128.099,492.6 120.266,484.1 118,470.5C 117.5,459.839 117.333,449.172 117.5,438.5C 158.835,438.667 200.168,438.5 241.5,438C 244.397,436.285 245.731,433.785 245.5,430.5 Z"/></g>
<g><path style="opacity:1" fill="#c37041" d="M 354.5,438.5 C 367.5,438.5 380.5,438.5 393.5,438.5C 393.667,449.838 393.5,461.172 393,472.5C 389.833,485 382,492.833 369.5,496C 359.506,496.5 349.506,496.666 339.5,496.5C 346.479,491.237 350.979,484.237 353,475.5C 354.394,463.22 354.894,450.886 354.5,438.5 Z"/></g>
</svg>
