<?xml version="1.0" encoding="UTF-8"?>
<!DOCTYPE svg PUBLIC "-//W3C//DTD SVG 1.1//EN" "http://www.w3.org/Graphics/SVG/1.1/DTD/svg11.dtd">
<svg xmlns="http://www.w3.org/2000/svg" version="1.1" width="512px" height="512px" style="shape-rendering:geometricPrecision; text-rendering:geometricPrecision; image-rendering:optimizeQuality; fill-rule:evenodd; clip-rule:evenodd" xmlns:xlink="http://www.w3.org/1999/xlink">
<g><path style="opacity:0.983" fill="#020303" d="M 173.5,-0.5 C 228.167,-0.5 282.833,-0.5 337.5,-0.5C 345.55,2.38949 350.717,8.05616 353,16.5C 353.038,29.2617 353.705,41.9284 355,54.5C 380.311,87.124 404.645,120.457 428,154.5C 428.333,156.167 428.667,157.833 429,159.5C 429.667,274.5 429.667,389.5 429,504.5C 428.062,507.598 426.228,509.931 423.5,511.5C 311.5,511.5 199.5,511.5 87.5,511.5C 84.7716,509.931 82.9383,507.598 82,504.5C 81.3333,475.167 81.3333,445.833 82,416.5C 82.9029,412.469 85.4029,410.469 89.5,410.5C 92.5867,411.053 95.0867,412.72 97,415.5C 97.1998,419.753 97.6998,423.92 98.5,428C 117.443,439.457 137.776,442.79 159.5,438C 169.733,434.217 179.733,429.884 189.5,425C 194.054,423.259 198.721,421.926 203.5,421C 223.945,417.775 243.278,420.942 261.5,430.5C 262.665,423.189 262.831,415.856 262,408.5C 241.012,396.018 218.679,393.018 195,399.5C 188.46,397.215 186.794,392.882 190,386.5C 199.146,382.133 208.812,380.467 219,381.5C 234.109,380.814 248.275,384.147 261.5,391.5C 262.833,365.5 262.833,339.5 261.5,313.5C 243.159,302.582 223.493,299.082 202.5,303C 191.255,307.082 180.255,311.749 169.5,317C 144.733,324.338 120.733,322.505 97.5,311.5C 97.1682,321.19 97.5016,330.856 98.5,340.5C 121.116,353.972 144.783,356.139 169.5,347C 181.311,339.953 193.978,335.286 207.5,333C 212.167,332.333 216.833,332.333 221.5,333C 226.687,335.867 227.854,340.033 225,345.5C 224.25,346.126 223.416,346.626 222.5,347C 215.782,347.225 209.115,347.892 202.5,349C 191.255,353.082 180.255,357.749 169.5,363C 144.733,370.338 120.733,368.505 97.5,357.5C 97.6665,366.839 97.4998,376.173 97,385.5C 95.4583,388.892 92.9583,390.892 89.5,391.5C 85.4029,391.531 82.9029,389.531 82,385.5C 81.3333,310.167 81.3333,234.833 82,159.5C 82.9016,154.363 84.9016,149.697 88,145.5C 101.333,127.5 114.667,109.5 128,91.5C 131.152,86.8403 135.319,85.5069 140.5,87.5C 143.716,91.1322 144.216,95.1322 142,99.5C 129.641,115.692 117.474,132.026 105.5,148.5C 159.164,149.667 212.83,149.833 266.5,149C 288.077,120.512 309.41,91.8451 330.5,63C 305.5,62.3333 280.5,62.3333 255.5,63C 261.661,72.4745 262.161,82.3078 257,92.5C 244.84,113.842 226.34,124.842 201.5,125.5C 174.24,123.43 163.073,109.097 168,82.5C 171.005,74.6622 175.839,68.1622 182.5,63C 177.798,62.1717 173.131,62.3384 168.5,63.5C 166.028,68.4771 162.194,71.8104 157,73.5C 155.175,73.0566 153.342,72.7233 151.5,72.5C 149.653,69.4057 149.153,66.0723 150,62.5C 152.333,59.1667 154.667,55.8333 157,52.5C 157.333,40.5 157.667,28.5 158,16.5C 160.283,8.05616 165.45,2.38949 173.5,-0.5 Z"/></g>
<g><path style="opacity:1" fill="#8ed5f5" d="M 177.5,14.5 C 229.501,14.3333 281.501,14.5 333.5,15C 335.552,15.9299 337.052,17.4299 338,19.5C 338.5,28.8274 338.666,38.1607 338.5,47.5C 331.5,47.5 324.5,47.5 317.5,47.5C 317.666,43.4862 317.499,39.4862 317,35.5C 314.087,30.3106 309.92,29.1439 304.5,32C 303.874,32.7504 303.374,33.5838 303,34.5C 302.501,38.8206 302.334,43.1539 302.5,47.5C 295.167,47.5 287.833,47.5 280.5,47.5C 280.666,42.8215 280.499,38.1548 280,33.5C 275.667,29.5 271.333,29.5 267,33.5C 266.501,38.1548 266.334,42.8215 266.5,47.5C 259.167,47.5 251.833,47.5 244.5,47.5C 244.666,43.1539 244.499,38.8206 244,34.5C 241.487,30.7885 237.987,29.6218 233.5,31C 231.951,32.214 230.785,33.714 230,35.5C 229.501,39.4862 229.334,43.4862 229.5,47.5C 222.5,47.5 215.5,47.5 208.5,47.5C 208.666,43.1539 208.499,38.8206 208,34.5C 205.487,30.7885 201.987,29.6218 197.5,31C 195.951,32.214 194.785,33.714 194,35.5C 193.501,39.4862 193.334,43.4862 193.5,47.5C 186.5,47.5 179.5,47.5 172.5,47.5C 172.334,38.1607 172.5,28.8274 173,19.5C 174.059,17.3408 175.559,15.6741 177.5,14.5 Z"/></g>
<g><path style="opacity:0.999" fill="#d1ecf8" d="M 140.5,87.5 C 144.411,82.6776 148.078,77.6776 151.5,72.5C 153.342,72.7233 155.175,73.0566 157,73.5C 162.194,71.8104 166.028,68.4771 168.5,63.5C 173.131,62.3384 177.798,62.1717 182.5,63C 175.839,68.1622 171.005,74.6622 168,82.5C 163.073,109.097 174.24,123.43 201.5,125.5C 226.34,124.842 244.84,113.842 257,92.5C 262.161,82.3078 261.661,72.4745 255.5,63C 280.5,62.3333 305.5,62.3333 330.5,63C 309.41,91.8451 288.077,120.512 266.5,149C 212.83,149.833 159.164,149.667 105.5,148.5C 117.474,132.026 129.641,115.692 142,99.5C 144.216,95.1322 143.716,91.1322 140.5,87.5 Z"/></g>
<g><path style="opacity:1" fill="#ededf0" d="M 216.5,62.5 C 226.657,61.0544 235.49,63.7211 243,70.5C 246.514,78.3431 245.514,85.6764 240,92.5C 228.348,105.409 213.848,111.242 196.5,110C 179.909,104.897 176.409,95.0639 186,80.5C 194.191,70.9938 204.358,64.9938 216.5,62.5 Z"/></g>
<g><path style="opacity:1" fill="#70c6ef" d="M 344.5,68.5 C 346.017,68.5106 347.184,69.1772 348,70.5C 358.114,84.9485 368.614,99.1151 379.5,113C 364.721,102.926 350.388,91.9263 336.5,80C 339.802,76.5444 342.469,72.711 344.5,68.5 Z"/></g>
<g><path style="opacity:1" fill="#6abcf3" d="M 382.5,156.5 C 375.833,156.5 369.167,156.5 362.5,156.5C 362.16,153.325 360.493,151.159 357.5,150C 333.5,149.667 309.5,149.333 285.5,149C 299.378,130.077 313.378,111.244 327.5,92.5C 351.357,111.524 375.357,130.357 399.5,149C 395.167,149.333 390.833,149.667 386.5,150C 384.077,151.571 382.744,153.737 382.5,156.5 Z"/></g>
<g><path style="opacity:1" fill="#74ccf7" d="M 362.5,156.5 C 369.167,156.5 375.833,156.5 382.5,156.5C 382.544,160.09 384.211,162.59 387.5,164C 396.16,164.5 404.827,164.666 413.5,164.5C 413.5,275.167 413.5,385.833 413.5,496.5C 368.167,496.5 322.833,496.5 277.5,496.5C 277.5,385.833 277.5,275.167 277.5,164.5C 304.169,164.667 330.835,164.5 357.5,164C 360.708,162.563 362.375,160.063 362.5,156.5 Z"/></g>
<g><path style="opacity:1" fill="#8fd7f8" d="M 97.5,164.5 C 152.5,164.5 207.5,164.5 262.5,164.5C 262.667,208.835 262.5,253.168 262,297.5C 240.185,286.005 217.352,283.505 193.5,290C 181.729,295.552 169.729,300.552 157.5,305C 136.39,309.574 116.723,306.074 98.5,294.5C 97.5001,251.172 97.1667,207.838 97.5,164.5 Z"/></g>
<g><path style="opacity:1" fill="#010102" d="M 138.5,197.5 C 165.835,197.333 193.169,197.5 220.5,198C 227.237,199.736 231.737,203.903 234,210.5C 234.667,220.167 234.667,229.833 234,239.5C 232.264,246.237 228.097,250.737 221.5,253C 193.833,253.667 166.167,253.667 138.5,253C 131.903,250.737 127.736,246.237 126,239.5C 125.333,229.833 125.333,220.167 126,210.5C 128.353,204.315 132.52,199.982 138.5,197.5 Z"/></g>
<g><path style="opacity:1" fill="#f0f0f3" d="M 141.5,212.5 C 167.169,212.333 192.835,212.5 218.5,213C 219.648,221.088 219.815,229.254 219,237.5C 193.239,238.661 167.406,238.828 141.5,238C 140.181,229.5 140.181,221 141.5,212.5 Z"/></g>
<g><path style="opacity:1" fill="#030405" d="M 302.5,233.5 C 331.169,233.333 359.835,233.5 388.5,234C 395.573,236.072 400.406,240.572 403,247.5C 403.667,294.167 403.667,340.833 403,387.5C 399.863,395.641 394.03,400.474 385.5,402C 358.5,402.667 331.5,402.667 304.5,402C 295.219,399.719 289.719,393.886 288,384.5C 287.333,339.5 287.333,294.5 288,249.5C 290.6,242.07 295.433,236.737 302.5,233.5 Z"/></g>
<g><path style="opacity:1" fill="#fbdd7b" d="M 305.5,248.5 C 332.169,248.333 358.835,248.5 385.5,249C 386.667,249.5 387.5,250.333 388,251.5C 388.499,255.486 388.666,259.486 388.5,263.5C 359.833,263.5 331.167,263.5 302.5,263.5C 302.334,259.486 302.501,255.486 303,251.5C 304.045,250.627 304.878,249.627 305.5,248.5 Z"/></g>
<g><path style="opacity:1" fill="#ececef" d="M 302.5,278.5 C 331.167,278.5 359.833,278.5 388.5,278.5C 388.667,313.835 388.5,349.168 388,384.5C 387.167,385.333 386.333,386.167 385.5,387C 359.167,387.667 332.833,387.667 306.5,387C 304.667,386.5 303.5,385.333 303,383.5C 302.5,348.502 302.333,313.502 302.5,278.5 Z"/></g>
<g><path style="opacity:1" fill="#040405" d="M 318.5,294.5 C 326.507,294.334 334.507,294.5 342.5,295C 347.143,297.072 348.643,300.572 347,305.5C 345.786,307.049 344.286,308.215 342.5,309C 334.5,309.667 326.5,309.667 318.5,309C 313.235,304.076 313.235,299.242 318.5,294.5 Z"/></g>
<g><path style="opacity:1" fill="#080808" d="M 362.5,294.5 C 366.637,294.146 370.637,294.646 374.5,296C 378.654,301.056 377.987,305.39 372.5,309C 368.229,310.008 364.229,309.508 360.5,307.5C 358.534,304.451 358.034,301.118 359,297.5C 360.145,296.364 361.312,295.364 362.5,294.5 Z"/></g>
<g><path style="opacity:1" fill="#fcf6df" d="M 89.5,410.5 C 89.5,404.167 89.5,397.833 89.5,391.5C 92.9583,390.892 95.4583,388.892 97,385.5C 97.4998,376.173 97.6665,366.839 97.5,357.5C 120.733,368.505 144.733,370.338 169.5,363C 180.255,357.749 191.255,353.082 202.5,349C 209.115,347.892 215.782,347.225 222.5,347C 223.416,346.626 224.25,346.126 225,345.5C 227.854,340.033 226.687,335.867 221.5,333C 216.833,332.333 212.167,332.333 207.5,333C 193.978,335.286 181.311,339.953 169.5,347C 144.783,356.139 121.116,353.972 98.5,340.5C 97.5016,330.856 97.1682,321.19 97.5,311.5C 120.733,322.505 144.733,324.338 169.5,317C 180.255,311.749 191.255,307.082 202.5,303C 223.493,299.082 243.159,302.582 261.5,313.5C 262.833,339.5 262.833,365.5 261.5,391.5C 248.275,384.147 234.109,380.814 219,381.5C 208.812,380.467 199.146,382.133 190,386.5C 186.794,392.882 188.46,397.215 195,399.5C 218.679,393.018 241.012,396.018 262,408.5C 262.831,415.856 262.665,423.189 261.5,430.5C 243.278,420.942 223.945,417.775 203.5,421C 198.721,421.926 194.054,423.259 189.5,425C 179.733,429.884 169.733,434.217 159.5,438C 137.776,442.79 117.443,439.457 98.5,428C 97.6998,423.92 97.1998,419.753 97,415.5C 95.0867,412.72 92.5867,411.053 89.5,410.5 Z"/></g>
<g><path style="opacity:1" fill="#060606" d="M 318.5,325.5 C 326.84,325.334 335.173,325.5 343.5,326C 347.124,328.161 348.291,331.328 347,335.5C 346.167,337.667 344.667,339.167 342.5,340C 334.833,340.667 327.167,340.667 319.5,340C 314.311,337.087 313.144,332.92 316,327.5C 316.995,326.934 317.828,326.267 318.5,325.5 Z"/></g>
<g><path style="opacity:1" fill="#0b0b0b" d="M 362.5,325.5 C 366.637,325.146 370.637,325.646 374.5,327C 379.07,332.574 378.07,336.908 371.5,340C 364.115,342.43 359.448,339.93 357.5,332.5C 358.06,329.288 359.727,326.955 362.5,325.5 Z"/></g>
<g><path style="opacity:1" fill="#080808" d="M 318.5,356.5 C 326.84,356.334 335.173,356.5 343.5,357C 347.124,359.161 348.291,362.328 347,366.5C 346.167,368.667 344.667,370.167 342.5,371C 334.833,371.667 327.167,371.667 319.5,371C 314.311,368.087 313.144,363.92 316,358.5C 316.995,357.934 317.828,357.267 318.5,356.5 Z"/></g>
<g><path style="opacity:1" fill="#0b0b0b" d="M 361.5,356.5 C 365.514,356.334 369.514,356.501 373.5,357C 377.961,360.143 378.628,363.977 375.5,368.5C 371.156,371.793 366.489,372.293 361.5,370C 356.248,365.506 356.248,361.006 361.5,356.5 Z"/></g>
<g><path style="opacity:1" fill="#040403" d="M 167.5,395.5 C 178.818,395.081 181.485,399.581 175.5,409C 163.007,414.261 150.007,416.261 136.5,415C 132.5,410.667 132.5,406.333 136.5,402C 142.515,401.465 148.515,400.799 154.5,400C 159.119,398.962 163.452,397.462 167.5,395.5 Z"/></g>
<g><path style="opacity:1" fill="#8fd7f8" d="M 204.5,435.5 C 225.193,432.585 244.359,436.585 262,447.5C 262.5,463.83 262.667,480.163 262.5,496.5C 207.5,496.5 152.5,496.5 97.5,496.5C 97.1672,479.154 97.5005,461.821 98.5,444.5C 115.659,454.038 133.992,457.205 153.5,454C 159.307,453.287 164.974,451.954 170.5,450C 181.586,444.283 192.919,439.449 204.5,435.5 Z"/></g>
</svg>
