<?xml version="1.0" encoding="UTF-8"?>
<!DOCTYPE svg PUBLIC "-//W3C//DTD SVG 1.1//EN" "http://www.w3.org/Graphics/SVG/1.1/DTD/svg11.dtd">
<svg xmlns="http://www.w3.org/2000/svg" version="1.1" width="512px" height="512px" style="shape-rendering:geometricPrecision; text-rendering:geometricPrecision; image-rendering:optimizeQuality; fill-rule:evenodd; clip-rule:evenodd" xmlns:xlink="http://www.w3.org/1999/xlink">
<g><path style="opacity:0.974" fill="#010102" d="M 183.5,-0.5 C 207.167,-0.5 230.833,-0.5 254.5,-0.5C 256.604,1.37183 257.937,3.70516 258.5,6.5C 257.892,9.95832 255.892,12.4583 252.5,14C 232.169,14.5 211.836,14.6666 191.5,14.5C 191.5,24.1667 191.5,33.8333 191.5,43.5C 233.997,44.4987 276.663,44.832 319.5,44.5C 319.5,34.5 319.5,24.5 319.5,14.5C 312.167,14.5 304.833,14.5 297.5,14.5C 293.154,14.6657 288.821,14.499 284.5,14C 283.584,13.6258 282.75,13.1258 282,12.5C 281.155,10.3885 280.322,8.3885 279.5,6.5C 279.571,3.34772 280.905,1.01439 283.5,-0.5C 298.167,-0.5 312.833,-0.5 327.5,-0.5C 331.761,2.34585 334.261,6.34585 335,11.5C 335.903,24.8811 335.57,38.2145 334,51.5C 331.381,57.2764 326.881,59.9431 320.5,59.5C 320.586,63.8566 320.92,68.19 321.5,72.5C 325.514,72.3345 329.514,72.5012 333.5,73C 337.753,76.4204 338.587,80.5871 336,85.5C 335.097,86.7014 333.931,87.5348 332.5,88C 329.833,88.3333 327.167,88.6667 324.5,89C 326.122,94.8671 327.955,100.7 330,106.5C 336.828,119.494 344.162,132.161 352,144.5C 364.622,168.32 372.289,193.653 375,220.5C 376.611,306.489 376.944,392.489 376,478.5C 374.277,495.374 365.443,506.374 349.5,511.5C 286.833,511.5 224.167,511.5 161.5,511.5C 145.557,506.374 136.723,495.374 135,478.5C 134.056,392.489 134.389,306.489 136,220.5C 138.711,193.653 146.378,168.32 159,144.5C 166.838,132.161 174.172,119.494 181,106.5C 183.045,100.7 184.878,94.8671 186.5,89C 176.871,90.0384 172.704,85.8717 174,76.5C 175.167,75.3333 176.333,74.1667 177.5,73C 181.486,72.5012 185.486,72.3345 189.5,72.5C 190.08,68.19 190.414,63.8566 190.5,59.5C 181.738,59.5724 176.905,55.2391 176,46.5C 175.097,33.1189 175.43,19.7855 177,6.5C 178.694,3.64238 180.861,1.30904 183.5,-0.5 Z"/></g>
<g><path style="opacity:0.997" fill="#98b7c8" d="M 258.5,6.5 C 265.5,6.5 272.5,6.5 279.5,6.5C 280.322,8.3885 281.155,10.3885 282,12.5C 282.75,13.1258 283.584,13.6258 284.5,14C 288.821,14.499 293.154,14.6657 297.5,14.5C 297.5,24.1667 297.5,33.8333 297.5,43.5C 262.167,43.5 226.833,43.5 191.5,43.5C 191.5,33.8333 191.5,24.1667 191.5,14.5C 211.836,14.6666 232.169,14.5 252.5,14C 255.892,12.4583 257.892,9.95832 258.5,6.5 Z"/></g>
<g><path style="opacity:1" fill="#74919c" d="M 297.5,14.5 C 304.833,14.5 312.167,14.5 319.5,14.5C 319.5,24.5 319.5,34.5 319.5,44.5C 276.663,44.832 233.997,44.4987 191.5,43.5C 226.833,43.5 262.167,43.5 297.5,43.5C 297.5,33.8333 297.5,24.1667 297.5,14.5 Z"/></g>
<g><path style="opacity:1" fill="#d4f0fe" d="M 282.5,59.5 C 282.739,63.8422 283.073,68.1756 283.5,72.5C 257.5,72.5 231.5,72.5 205.5,72.5C 205.927,68.1756 206.261,63.8422 206.5,59.5C 231.833,59.5 257.167,59.5 282.5,59.5 Z"/></g>
<g><path style="opacity:1" fill="#b0e8fd" d="M 282.5,59.5 C 289.833,59.5 297.167,59.5 304.5,59.5C 304.739,63.8422 305.073,68.1756 305.5,72.5C 298.167,72.5 290.833,72.5 283.5,72.5C 283.073,68.1756 282.739,63.8422 282.5,59.5 Z"/></g>
<g><path style="opacity:1" fill="#d4f0fe" d="M 202.5,88.5 C 230.508,88.1669 258.508,88.5002 286.5,89.5C 288.968,99.0715 292.135,108.405 296,117.5C 301.845,127.194 307.678,136.861 313.5,146.5C 267.833,146.5 222.167,146.5 176.5,146.5C 182.478,136.329 188.311,125.996 194,115.5C 197.319,106.528 200.152,97.5285 202.5,88.5 Z"/></g>
<g><path style="opacity:1" fill="#ade1f5" d="M 202.5,88.5 C 237.663,87.5016 272.996,87.1683 308.5,87.5C 312.847,108.853 321.513,128.186 334.5,145.5C 327.687,146.491 320.687,146.825 313.5,146.5C 307.678,136.861 301.845,127.194 296,117.5C 292.135,108.405 288.968,99.0715 286.5,89.5C 258.508,88.5002 230.508,88.1669 202.5,88.5 Z"/></g>
<g><path style="opacity:1" fill="#6e7f86" d="M 334.5,145.5 C 335.043,145.56 335.376,145.893 335.5,146.5C 308.833,146.833 282.167,147.167 255.5,147.5C 228.429,147.504 202.095,147.171 176.5,146.5C 222.167,146.5 267.833,146.5 313.5,146.5C 320.687,146.825 327.687,146.491 334.5,145.5 Z"/></g>
<g><path style="opacity:1" fill="#fbe8c6" d="M 167.5,162.5 C 218.834,162.333 270.168,162.5 321.5,163C 333.167,188.168 338.5,214.668 337.5,242.5C 289.33,242.168 241.33,242.501 193.5,243.5C 190.054,244.612 188.054,246.945 187.5,250.5C 175.167,250.5 162.833,250.5 150.5,250.5C 148.987,219.731 154.654,190.398 167.5,162.5 Z"/></g>
<g><path style="opacity:1" fill="#e4c79f" d="M 167.5,162.5 C 226.001,161.169 284.668,161.169 343.5,162.5C 355.341,188.2 361.008,215.2 360.5,243.5C 304.833,243.5 249.167,243.5 193.5,243.5C 241.33,242.501 289.33,242.168 337.5,242.5C 338.5,214.668 333.167,188.168 321.5,163C 270.168,162.5 218.834,162.333 167.5,162.5 Z"/></g>
<g><path style="opacity:1" fill="#87dffb" d="M 150.5,250.5 C 162.833,250.5 175.167,250.5 187.5,250.5C 188.134,253.643 189.8,256.143 192.5,258C 240.832,258.5 289.166,258.667 337.5,258.5C 337.5,279.5 337.5,300.5 337.5,321.5C 332.275,307.775 323.275,297.275 310.5,290C 307.568,288.855 304.568,288.022 301.5,287.5C 302.946,281.042 300.446,277.375 294,276.5C 288.289,277.905 286.123,281.572 287.5,287.5C 274.773,290.388 264.939,297.388 258,308.5C 246.257,330.536 246.923,352.202 260,373.5C 268.518,387.509 280.018,390.843 294.5,383.5C 306.613,390.17 317.113,388.17 326,377.5C 330.541,371.751 334.041,365.418 336.5,358.5C 337.496,373.991 337.83,389.658 337.5,405.5C 275.167,405.5 212.833,405.5 150.5,405.5C 150.5,353.833 150.5,302.167 150.5,250.5 Z"/></g>
<g><path style="opacity:1" fill="#5cd0f6" d="M 337.5,258.5 C 345.167,258.5 352.833,258.5 360.5,258.5C 360.5,307.833 360.5,357.167 360.5,406.5C 290.331,406.833 220.331,406.499 150.5,405.5C 212.833,405.5 275.167,405.5 337.5,405.5C 337.83,389.658 337.496,373.991 336.5,358.5C 340.004,346.263 340.337,333.93 337.5,321.5C 337.5,300.5 337.5,279.5 337.5,258.5 Z"/></g>
<g><path style="opacity:1" fill="#020303" d="M 337.5,321.5 C 340.337,333.93 340.004,346.263 336.5,358.5C 334.041,365.418 330.541,371.751 326,377.5C 317.113,388.17 306.613,390.17 294.5,383.5C 280.018,390.843 268.518,387.509 260,373.5C 246.923,352.202 246.257,330.536 258,308.5C 264.939,297.388 274.773,290.388 287.5,287.5C 286.123,281.572 288.289,277.905 294,276.5C 300.446,277.375 302.946,281.042 301.5,287.5C 304.568,288.022 307.568,288.855 310.5,290C 323.275,297.275 332.275,307.775 337.5,321.5 Z"/></g>
<g><path style="opacity:1" fill="#010203" d="M 174.5,293.5 C 192.836,293.333 211.17,293.5 229.5,294C 234.143,296.072 235.643,299.572 234,304.5C 232.786,306.049 231.286,307.215 229.5,308C 211.167,308.667 192.833,308.667 174.5,308C 167.899,303.171 167.899,298.338 174.5,293.5 Z"/></g>
<g><path style="opacity:1" fill="#f5d5a9" d="M 285.5,303.5 C 286.497,325.327 286.831,347.327 286.5,369.5C 284.947,372.254 282.614,373.087 279.5,372C 268.812,363.14 263.812,351.64 264.5,337.5C 265.064,321.985 272.064,310.652 285.5,303.5 Z"/></g>
<g><path style="opacity:1" fill="#7a6a53" d="M 285.5,303.5 C 285.56,302.957 285.893,302.624 286.5,302.5C 287.828,324.996 287.828,347.33 286.5,369.5C 286.831,347.327 286.497,325.327 285.5,303.5 Z"/></g>
<g><path style="opacity:1" fill="#755738" d="M 303.5,303.5 C 302.503,325.327 302.169,347.327 302.5,369.5C 301.172,347.33 301.172,324.996 302.5,302.5C 303.107,302.624 303.44,302.957 303.5,303.5 Z"/></g>
<g><path style="opacity:1" fill="#ebb070" d="M 303.5,303.5 C 316.936,310.652 323.936,321.985 324.5,337.5C 325.188,351.64 320.188,363.14 309.5,372C 306.386,373.087 304.053,372.254 302.5,369.5C 302.169,347.327 302.503,325.327 303.5,303.5 Z"/></g>
<g><path style="opacity:1" fill="#010203" d="M 174.5,324.5 C 192.836,324.333 211.17,324.5 229.5,325C 234.143,327.072 235.643,330.572 234,335.5C 232.786,337.049 231.286,338.215 229.5,339C 211.167,339.667 192.833,339.667 174.5,339C 167.899,334.171 167.899,329.338 174.5,324.5 Z"/></g>
<g><path style="opacity:1" fill="#030606" d="M 174.5,355.5 C 192.836,355.333 211.17,355.5 229.5,356C 234.143,358.072 235.643,361.572 234,366.5C 233.5,368.333 232.333,369.5 230.5,370C 211.5,370.667 192.5,370.667 173.5,370C 167.99,364.73 168.323,359.897 174.5,355.5 Z"/></g>
<g><path style="opacity:1" fill="#fbe8c6" d="M 150.5,421.5 C 213.167,421.5 275.833,421.5 338.5,421.5C 338.5,433.5 338.5,445.5 338.5,457.5C 275.833,457.5 213.167,457.5 150.5,457.5C 150.5,445.5 150.5,433.5 150.5,421.5 Z"/></g>
<g><path style="opacity:1" fill="#e0c49c" d="M 150.5,421.5 C 220.331,420.501 290.331,420.167 360.5,420.5C 360.5,432.833 360.5,445.167 360.5,457.5C 353.167,457.5 345.833,457.5 338.5,457.5C 338.5,445.5 338.5,433.5 338.5,421.5C 275.833,421.5 213.167,421.5 150.5,421.5 Z"/></g>
<g><path style="opacity:1" fill="#d4f0fe" d="M 338.5,472.5 C 338.595,481.464 335.929,489.464 330.5,496.5C 275.166,496.667 219.832,496.5 164.5,496C 154.08,491.669 149.414,483.836 150.5,472.5C 213.167,472.5 275.833,472.5 338.5,472.5 Z"/></g>
<g><path style="opacity:1" fill="#afe6fb" d="M 338.5,472.5 C 345.833,472.5 353.167,472.5 360.5,472.5C 361.602,483.8 356.935,491.633 346.5,496C 341.177,496.499 335.844,496.666 330.5,496.5C 335.929,489.464 338.595,481.464 338.5,472.5 Z"/></g>
</svg>
