<?xml version="1.0" encoding="UTF-8"?>
<!DOCTYPE svg PUBLIC "-//W3C//DTD SVG 1.1//EN" "http://www.w3.org/Graphics/SVG/1.1/DTD/svg11.dtd">
<svg xmlns="http://www.w3.org/2000/svg" version="1.1" width="256px" height="256px" style="shape-rendering:geometricPrecision; text-rendering:geometricPrecision; image-rendering:optimizeQuality; fill-rule:evenodd; clip-rule:evenodd" xmlns:xlink="http://www.w3.org/1999/xlink">
<g><path style="opacity:0.977" fill="#050403" d="M 60.5,23.5 C 72.2423,21.2984 81.5756,24.9651 88.5,34.5C 102.194,34.3709 111.361,40.7042 116,53.5C 124.513,48.4376 133.68,44.9376 143.5,43C 166.626,37.2576 189.293,38.5909 211.5,47C 233.218,58.6185 237.551,74.9519 224.5,96C 237.805,104.129 246.638,115.629 251,130.5C 251.667,144.5 251.667,158.5 251,172.5C 247.016,185.488 239.516,195.988 228.5,204C 204.272,219.965 177.605,228.965 148.5,231C 108.662,235.298 70.9948,228.298 35.5,210C 5.69606,191.656 -4.80394,165.156 4,130.5C 6.95092,119.93 12.4509,110.93 20.5,103.5C 14.4519,93.8166 13.9519,83.8166 19,73.5C 20.3333,72.1667 21.6667,70.8333 23,69.5C 21.3561,52.9876 28.5227,42.6543 44.5,38.5C 47.9656,31.3634 53.299,26.3634 60.5,23.5 Z"/></g>
<g><path style="opacity:1" fill="#afd77b" d="M 62.5,31.5 C 69.9769,30.5701 76.1435,32.9034 81,38.5C 81.8481,40.8743 83.1814,42.8743 85,44.5C 94.61,41.8521 101.777,44.8521 106.5,53.5C 106,53.8333 105.5,54.1667 105,54.5C 93.9989,51.6888 82.8323,50.8555 71.5,52C 45.3707,58.0605 31.8707,74.5605 31,101.5C 20.2877,90.5326 21.1211,80.5326 33.5,71.5C 29.1591,55.8331 35.1591,47.8331 51.5,47.5C 52.0163,39.9863 55.6829,34.653 62.5,31.5 Z"/></g>
<g><path style="opacity:1" fill="#c7ccd4" d="M 172.5,48.5 C 185.912,47.6618 194.746,53.9952 199,67.5C 200.76,80.6465 196.926,91.8132 187.5,101C 184.688,101.466 182.021,100.966 179.5,99.5C 184.977,85.0549 184.811,70.7216 179,56.5C 176.969,53.6447 174.803,50.978 172.5,48.5 Z"/></g>
<g><path style="opacity:1" fill="#c7ccd4" d="M 155.5,48.5 C 158.564,48.1437 161.231,48.9771 163.5,51C 174.721,60.3314 178.554,72.1647 175,86.5C 174.409,90.8821 172.909,94.8821 170.5,98.5C 168.257,99.4742 165.924,99.8076 163.5,99.5C 163.799,101.604 163.466,103.604 162.5,105.5C 159.006,103.167 155.673,100.667 152.5,98C 162.127,82.1965 161.793,66.6965 151.5,51.5C 152.624,50.1408 153.958,49.1408 155.5,48.5 Z"/></g>
<g><path style="opacity:1" fill="#c7ccd4" d="M 138.5,52.5 C 145.282,55.1311 149.449,60.1311 151,67.5C 152.465,76.7699 150.799,85.4366 146,93.5C 145.439,94.0219 144.772,94.3552 144,94.5C 141.106,93.3032 138.273,91.9699 135.5,90.5C 134.996,82.5241 134.83,74.5241 135,66.5C 134.08,62.7367 132.58,59.2367 130.5,56C 133.309,54.9066 135.976,53.7399 138.5,52.5 Z"/></g>
<g><path style="opacity:1" fill="#c6cbd3" d="M 200.5,53.5 C 209.723,54.3976 216.89,59.0643 222,67.5C 224.795,75.8865 223.461,83.5531 218,90.5C 211.69,97.2282 204.19,101.728 195.5,104C 206.583,91.256 209.749,76.756 205,60.5C 203.974,57.7613 202.474,55.428 200.5,53.5 Z"/></g>
<g><path style="opacity:1" fill="#fae5a3" d="M 70.5,59.5 C 88.0926,56.0735 103.593,60.0735 117,71.5C 128.766,85.3052 130.6,100.305 122.5,116.5C 118.889,115.738 115.222,115.238 111.5,115C 107.5,111.667 103.5,108.333 99.5,105C 90.9105,103.424 82.2438,103.09 73.5,104C 68.5463,107.285 63.8797,110.952 59.5,115C 53.9162,115.806 48.4162,115.639 43,114.5C 35.1499,87.5333 44.3166,69.2 70.5,59.5 Z"/></g>
<g><path style="opacity:1" fill="#b5b9c0" d="M 121.5,59.5 C 123.888,60.2187 125.388,61.8854 126,64.5C 126.837,66.8212 127.17,69.1546 127,71.5C 124.537,68.0354 121.704,64.8688 118.5,62C 119.571,61.1482 120.571,60.3149 121.5,59.5 Z"/></g>
<g><path style="opacity:1" fill="#070604" d="M 73.5,67.5 C 85.0852,66.1823 96.0852,68.0156 106.5,73C 114.996,79.8252 119.33,88.6585 119.5,99.5C 116.833,99.5 114.167,99.5 111.5,99.5C 111.4,87.2245 105.4,79.3912 93.5,76C 86.5,75.3333 79.5,75.3333 72.5,76C 67.0709,77.802 62.5709,80.9686 59,85.5C 56.6921,84.3589 54.8587,82.6922 53.5,80.5C 58.619,73.6178 65.2856,69.2845 73.5,67.5 Z"/></g>
<g><path style="opacity:1" fill="#060503" d="M 48.5,90.5 C 54.3292,90.6558 56.6625,93.6558 55.5,99.5C 52.8333,99.5 50.1667,99.5 47.5,99.5C 47.5079,96.4552 47.8413,93.4552 48.5,90.5 Z"/></g>
<g><path style="opacity:1" fill="#cb9a68" d="M 135.5,99.5 C 143.082,102.291 150.082,106.124 156.5,111C 148.572,115.854 140.239,119.521 131.5,122C 131.021,118.048 131.855,114.215 134,110.5C 134.936,106.886 135.436,103.22 135.5,99.5 Z"/></g>
<g><path style="opacity:1" fill="#ce9c69" d="M 215.5,102.5 C 226.965,107.125 235.465,115.125 241,126.5C 246.024,144.429 241.191,159.263 226.5,171C 208.63,184.186 188.63,192.52 166.5,196C 127.841,203.367 90.1743,200.034 53.5,186C 37.3216,179.479 24.4882,168.979 15,154.5C 9.5476,142.262 10.5476,130.595 18,119.5C 20.7969,115.701 23.9636,112.201 27.5,109C 29.2555,108.86 30.9222,109.36 32.5,110.5C 34.3123,113.429 35.6456,116.595 36.5,120C 34.1445,123.543 32.4778,127.377 31.5,131.5C 29.8008,131.34 28.1341,131.506 26.5,132C 32.7089,162.21 51.2089,178.043 82,179.5C 97.0432,180.152 110.376,175.818 122,166.5C 147.391,179.128 173.891,182.294 201.5,176C 212.033,173.651 221.199,168.818 229,161.5C 239.623,144.522 237.123,129.689 221.5,117C 217.167,114.167 212.833,111.333 208.5,108.5C 211.051,106.729 213.384,104.729 215.5,102.5 Z"/></g>
<g><path style="opacity:1" fill="#c7ccd3" d="M 170.5,107.5 C 172.857,107.337 175.19,107.503 177.5,108C 188.724,113.557 196.89,122.057 202,133.5C 206.183,148.958 201.683,161.125 188.5,170C 184.504,170.811 180.504,171.144 176.5,171C 192.651,149.305 190.817,129.139 171,110.5C 170.517,109.552 170.351,108.552 170.5,107.5 Z"/></g>
<g><path style="opacity:1" fill="#fc806c" d="M 75.5,111.5 C 82.175,111.334 88.8417,111.5 95.5,112C 99.1317,114.63 102.465,117.63 105.5,121C 106.833,121.667 108.167,122.333 109.5,123C 114.251,123.189 118.917,123.855 123.5,125C 125.414,126.413 126.747,128.247 127.5,130.5C 98.1667,131.833 68.8333,131.833 39.5,130.5C 40.6367,127.53 42.6367,125.364 45.5,124C 50.5,123.667 55.5,123.333 60.5,123C 62.2464,122.529 63.913,121.862 65.5,121C 68.7289,117.601 72.0622,114.435 75.5,111.5 Z"/></g>
<g><path style="opacity:1" fill="#c6cbd3" d="M 198.5,114.5 C 211.395,117.434 220.895,125.101 227,137.5C 227.746,153.429 220.246,162.929 204.5,166C 215.431,147.238 213.431,130.071 198.5,114.5 Z"/></g>
<g><path style="opacity:1" fill="#c7ccd3" d="M 163.5,115.5 C 179.485,127.302 183.318,142.302 175,160.5C 171.479,165.037 167.146,168.37 162,170.5C 159.411,170.149 156.911,169.482 154.5,168.5C 165.732,153.17 166.399,137.336 156.5,121C 158.871,119.156 161.205,117.323 163.5,115.5 Z"/></g>
<g><path style="opacity:1" fill="#c7ccd4" d="M 146.5,124.5 C 147.822,124.33 148.989,124.663 150,125.5C 156.847,137.013 157.181,148.68 151,160.5C 148.95,162.888 146.616,164.888 144,166.5C 140.5,165.333 137,164.167 133.5,163C 131.445,162.313 129.779,161.146 128.5,159.5C 134.424,151.409 138.424,142.409 140.5,132.5C 138.922,131.702 137.256,131.202 135.5,131C 139.23,128.807 142.897,126.64 146.5,124.5 Z"/></g>
<g><path style="opacity:1" fill="#efcc6a" d="M 36.5,140.5 C 39.9619,139.518 43.6286,139.185 47.5,139.5C 48.6705,147.845 51.3372,155.678 55.5,163C 55.1667,163.167 54.8333,163.333 54.5,163.5C 46.2194,157.56 40.2194,149.894 36.5,140.5 Z"/></g>
<g><path style="opacity:1" fill="#edca69" d="M 55.5,139.5 C 58.1667,139.5 60.8333,139.5 63.5,139.5C 64.4062,148.362 65.9062,157.029 68,165.5C 60.6828,158.399 56.5161,149.732 55.5,139.5 Z"/></g>
<g><path style="opacity:1" fill="#f6d26d" d="M 71.5,139.5 C 79.5,139.5 87.5,139.5 95.5,139.5C 95.0339,149.698 92.5339,159.364 88,168.5C 85,172.5 82,172.5 79,168.5C 74.4661,159.364 71.9661,149.698 71.5,139.5 Z"/></g>
<g><path style="opacity:1" fill="#eac868" d="M 103.5,139.5 C 106.167,139.5 108.833,139.5 111.5,139.5C 110.484,149.732 106.317,158.399 99,165.5C 101.243,157.046 102.743,148.38 103.5,139.5 Z"/></g>
<g><path style="opacity:1" fill="#eecb6a" d="M 119.5,139.5 C 123.182,139.335 126.848,139.501 130.5,140C 126.925,149.735 120.925,157.568 112.5,163.5C 112.167,163.333 111.833,163.167 111.5,163C 115.663,155.678 118.33,147.845 119.5,139.5 Z"/></g>
<g><path style="opacity:1" fill="#ae7644" d="M 11.5,164.5 C 23.4806,178.341 38.1473,188.508 55.5,195C 101.251,210.922 147.251,211.589 193.5,197C 213.312,191.024 229.812,180.19 243,164.5C 242.727,172.649 240.06,179.983 235,186.5C 220.82,201.346 203.654,211.179 183.5,216C 141.408,227.191 99.7413,225.857 58.5,212C 43.7875,206.279 30.9542,197.779 20,186.5C 15.0992,179.964 12.2659,172.631 11.5,164.5 Z"/></g>
</svg>
