<?xml version="1.0" encoding="UTF-8"?>
<!DOCTYPE svg PUBLIC "-//W3C//DTD SVG 1.1//EN" "http://www.w3.org/Graphics/SVG/1.1/DTD/svg11.dtd">
<svg xmlns="http://www.w3.org/2000/svg" version="1.1" width="512px" height="512px" style="shape-rendering:geometricPrecision; text-rendering:geometricPrecision; image-rendering:optimizeQuality; fill-rule:evenodd; clip-rule:evenodd" xmlns:xlink="http://www.w3.org/1999/xlink">
<g><path style="opacity:0.998" fill="#040304" d="M 511.5,17.5 C 511.5,20.5 511.5,23.5 511.5,26.5C 506.943,32.4816 500.943,34.1483 493.5,31.5C 490.298,32.0993 487.298,33.266 484.5,35C 474.942,41.5515 466.276,49.2181 458.5,58C 475.381,70.9054 485.214,88.0721 488,109.5C 495.716,143.561 489.383,174.561 469,202.5C 460.202,213.146 449.368,220.812 436.5,225.5C 432.11,225.054 428.277,223.387 425,220.5C 416.298,229.369 407.465,238.036 398.5,246.5C 397.094,246.973 396.427,247.973 396.5,249.5C 395.396,251.389 394.063,253.055 392.5,254.5C 391.094,254.973 390.427,255.973 390.5,257.5C 388.819,260.203 387.153,262.869 385.5,265.5C 384.094,265.973 383.427,266.973 383.5,268.5C 379.418,276.998 375.085,285.332 370.5,293.5C 368.707,295.426 367.707,297.759 367.5,300.5C 366.674,303.485 365.341,306.151 363.5,308.5C 361.707,310.426 360.707,312.759 360.5,315.5C 360.34,317.153 359.674,318.486 358.5,319.5C 357.069,320.78 356.402,322.447 356.5,324.5C 356.34,326.153 355.674,327.486 354.5,328.5C 353.069,329.78 352.402,331.447 352.5,333.5C 352.672,334.492 352.338,335.158 351.5,335.5C 350.069,336.78 349.402,338.447 349.5,340.5C 348.397,344.497 346.731,348.164 344.5,351.5C 343.069,352.78 342.402,354.447 342.5,356.5C 342.672,357.492 342.338,358.158 341.5,358.5C 340.069,359.78 339.402,361.447 339.5,363.5C 339.672,364.492 339.338,365.158 338.5,365.5C 337.069,366.78 336.402,368.447 336.5,370.5C 336.34,372.153 335.674,373.486 334.5,374.5C 333.069,375.78 332.402,377.447 332.5,379.5C 332.672,380.492 332.338,381.158 331.5,381.5C 329.375,384.088 328.042,387.088 327.5,390.5C 326.674,393.485 325.341,396.151 323.5,398.5C 321.375,401.088 320.042,404.088 319.5,407.5C 318.341,411.151 316.674,414.485 314.5,417.5C 312.75,418.659 311.75,420.326 311.5,422.5C 311.34,424.153 310.674,425.486 309.5,426.5C 308.094,426.973 307.427,427.973 307.5,429.5C 307.672,430.492 307.338,431.158 306.5,431.5C 305.094,431.973 304.427,432.973 304.5,434.5C 304.573,436.027 303.906,437.027 302.5,437.5C 301.094,437.973 300.427,438.973 300.5,440.5C 299.876,442.754 298.543,444.421 296.5,445.5C 295.094,445.973 294.427,446.973 294.5,448.5C 260.644,483.498 219.144,501.498 170,502.5C 97.0147,499.201 44.6813,464.868 13,399.5C 6.6002,383.225 2.1002,366.559 -0.5,349.5C -0.5,337.167 -0.5,324.833 -0.5,312.5C 2.34905,290.619 9.01571,269.952 19.5,250.5C 20.9063,250.027 21.573,249.027 21.5,247.5C 21.6596,245.847 22.3263,244.514 23.5,243.5C 24.9063,243.027 25.573,242.027 25.5,240.5C 27.7629,235.635 30.7629,231.302 34.5,227.5C 35.9063,227.027 36.573,226.027 36.5,224.5C 36.8333,223.5 37.5,222.833 38.5,222.5C 40.914,221.089 42.5806,219.089 43.5,216.5C 45.5482,213.785 47.8816,211.452 50.5,209.5C 53.7642,207.906 56.4309,205.573 58.5,202.5C 60.4044,202.262 61.7377,201.262 62.5,199.5C 64.0269,199.573 65.0269,198.906 65.5,197.5C 69.3233,194.084 73.6566,191.418 78.5,189.5C 80.0269,189.573 81.0269,188.906 81.5,187.5C 114.372,171.068 148.039,156.235 182.5,143C 196.642,136.762 210.642,130.262 224.5,123.5C 226.027,123.573 227.027,122.906 227.5,121.5C 227.842,120.662 228.508,120.328 229.5,120.5C 231.027,120.573 232.027,119.906 232.5,118.5C 232.842,117.662 233.508,117.328 234.5,117.5C 236.027,117.573 237.027,116.906 237.5,115.5C 239.027,115.573 240.027,114.906 240.5,113.5C 242.027,113.573 243.027,112.906 243.5,111.5C 243.973,110.094 244.973,109.427 246.5,109.5C 248.404,109.262 249.738,108.262 250.5,106.5C 253.764,104.906 256.431,102.573 258.5,99.5C 261.243,97.7607 263.243,95.4274 264.5,92.5C 264.833,91.5 265.5,90.8333 266.5,90.5C 268.914,89.0892 270.581,87.0892 271.5,84.5C 269.5,83.1667 267.5,81.8333 265.5,80.5C 264.415,78.4131 262.749,77.0798 260.5,76.5C 258.292,75.1064 256.792,73.1064 256,70.5C 254.231,63.2106 255.898,56.8773 261,51.5C 271.659,39.5809 284.492,30.7476 299.5,25C 337.24,8.2789 375.573,6.61224 414.5,20C 421.527,22.8396 427.86,26.6729 433.5,31.5C 434.08,33.7488 435.413,35.4154 437.5,36.5C 439.339,37.5077 440.672,39.0077 441.5,41C 442.167,41.6667 442.833,41.6667 443.5,41C 454.504,28.3195 467.504,18.3195 482.5,11C 490.646,8.72173 498.646,9.05506 506.5,12C 508.744,13.4055 510.41,15.2389 511.5,17.5 Z"/></g>
<g><path style="opacity:1" fill="#4bad4f" d="M 358.5,32.5 C 375.737,32.2361 392.404,35.0694 408.5,41C 421.378,46.5831 427.878,56.4164 428,70.5C 429.543,72.3783 431.376,73.8783 433.5,75C 443.709,74.1886 451.543,78.022 457,86.5C 467.26,106.644 470.927,127.977 468,150.5C 465.069,171.379 455.236,188.046 438.5,200.5C 436.56,191.261 436.06,181.928 437,172.5C 439.158,154.045 442.658,135.878 447.5,118C 444.968,107.736 438.968,105.069 429.5,110C 422.967,118.945 414.3,124.945 403.5,128C 390.078,132.272 376.412,135.439 362.5,137.5C 360.951,117.201 364.451,97.868 373,79.5C 376.703,76.1325 380.036,72.4658 383,68.5C 384.54,59.5331 380.873,54.8664 372,54.5C 359.231,57.233 346.397,59.733 333.5,62C 321.204,63.4058 308.87,64.2391 296.5,64.5C 290.998,64.6453 285.664,64.1453 280.5,63C 297.377,48.897 316.71,39.5636 338.5,35C 345.308,34.1167 351.975,33.2834 358.5,32.5 Z"/></g>
<g><path style="opacity:0.055" fill="#245225" d="M 433.5,31.5 C 435.587,32.5846 436.92,34.2512 437.5,36.5C 435.413,35.4154 434.08,33.7488 433.5,31.5 Z"/></g>
<g><path style="opacity:1" fill="#1d3e1e" d="M 260.5,76.5 C 262.749,77.0798 264.415,78.4131 265.5,80.5C 263.251,79.9202 261.585,78.5869 260.5,76.5 Z"/></g>
<g><path style="opacity:1" fill="#aa46bb" d="M 344.5,81.5 C 345.5,81.5 346.5,81.5 347.5,81.5C 340.569,105.788 338.735,130.455 342,155.5C 343.543,157.378 345.376,158.878 347.5,160C 371.948,159.777 395.448,154.944 418,145.5C 416.093,163.406 415.093,181.406 415,199.5C 402.637,211.529 390.637,223.862 379,236.5C 363.188,259.693 349.855,284.359 339,310.5C 324.019,346.794 307.686,382.461 290,417.5C 281.259,432.242 269.759,444.409 255.5,454C 216.31,479.6 173.977,486.6 128.5,475C 66.7653,453.93 31.2653,411.097 22,346.5C 17.5486,296.838 33.382,255.005 69.5,221C 81.0496,212.472 93.383,205.139 106.5,199C 136.936,185.449 167.602,172.449 198.5,160C 225.271,149.461 249.605,135.128 271.5,117C 280.875,107.56 289.542,97.5604 297.5,87C 313.476,86.5666 329.142,84.7332 344.5,81.5 Z"/></g>
<g><path style="opacity:0.914" fill="#55245d" d="M 271.5,84.5 C 270.581,87.0892 268.914,89.0892 266.5,90.5C 267.419,87.9108 269.086,85.9108 271.5,84.5 Z"/></g>
<g><path style="opacity:0.953" fill="#52235b" d="M 264.5,92.5 C 263.243,95.4274 261.243,97.7607 258.5,99.5C 259.757,96.5726 261.757,94.2393 264.5,92.5 Z"/></g>
<g><path style="opacity:0.969" fill="#471f4e" d="M 258.5,99.5 C 256.431,102.573 253.764,104.906 250.5,106.5C 252.569,103.427 255.236,101.094 258.5,99.5 Z"/></g>
<g><path style="opacity:0.89" fill="#55245e" d="M 250.5,106.5 C 249.738,108.262 248.404,109.262 246.5,109.5C 247.262,107.738 248.596,106.738 250.5,106.5 Z"/></g>
<g><path style="opacity:0.933" fill="#5b2564" d="M 243.5,111.5 C 243.027,112.906 242.027,113.573 240.5,113.5C 240.973,112.094 241.973,111.427 243.5,111.5 Z"/></g>
<g><path style="opacity:0.871" fill="#672b71" d="M 240.5,113.5 C 240.027,114.906 239.027,115.573 237.5,115.5C 237.973,114.094 238.973,113.427 240.5,113.5 Z"/></g>
<g><path style="opacity:0.941" fill="#5b2664" d="M 237.5,115.5 C 237.027,116.906 236.027,117.573 234.5,117.5C 234.973,116.094 235.973,115.427 237.5,115.5 Z"/></g>
<g><path style="opacity:0.945" fill="#5a2563" d="M 232.5,118.5 C 232.027,119.906 231.027,120.573 229.5,120.5C 229.973,119.094 230.973,118.427 232.5,118.5 Z"/></g>
<g><path style="opacity:0.945" fill="#592562" d="M 227.5,121.5 C 227.027,122.906 226.027,123.573 224.5,123.5C 224.973,122.094 225.973,121.427 227.5,121.5 Z"/></g>
<g><path style="opacity:0.941" fill="#55235d" d="M 81.5,187.5 C 81.0269,188.906 80.0269,189.573 78.5,189.5C 78.9731,188.094 79.9731,187.427 81.5,187.5 Z"/></g>
<g><path style="opacity:0.949" fill="#53225b" d="M 65.5,197.5 C 65.0269,198.906 64.0269,199.573 62.5,199.5C 62.9731,198.094 63.9731,197.427 65.5,197.5 Z"/></g>
<g><path style="opacity:0.882" fill="#55235d" d="M 62.5,199.5 C 61.7377,201.262 60.4044,202.262 58.5,202.5C 59.2623,200.738 60.5956,199.738 62.5,199.5 Z"/></g>
<g><path style="opacity:0.973" fill="#421d48" d="M 58.5,202.5 C 56.4309,205.573 53.7642,207.906 50.5,209.5C 52.5691,206.427 55.2358,204.094 58.5,202.5 Z"/></g>
<g><path style="opacity:0.898" fill="#5e2768" d="M 43.5,216.5 C 42.5806,219.089 40.914,221.089 38.5,222.5C 39.4194,219.911 41.086,217.911 43.5,216.5 Z"/></g>
<g><path style="opacity:0.651" fill="#652a6f" d="M 36.5,224.5 C 36.573,226.027 35.9063,227.027 34.5,227.5C 34.427,225.973 35.0937,224.973 36.5,224.5 Z"/></g>
<g><path style="opacity:1" fill="#020102" d="M 84.5,237.5 C 94.2918,237.793 98.4585,242.793 97,252.5C 92.711,258.458 88.0443,264.124 83,269.5C 69.3701,289.666 62.3701,312 62,336.5C 58.6567,341.218 54.1567,342.718 48.5,341C 43.0658,337.546 41.0658,332.546 42.5,326C 44.0925,290.325 58.0925,260.825 84.5,237.5 Z"/></g>
<g><path style="opacity:0.537" fill="#63296d" d="M 25.5,240.5 C 25.573,242.027 24.9063,243.027 23.5,243.5C 23.427,241.973 24.0937,240.973 25.5,240.5 Z"/></g>
<g><path style="opacity:0.012" fill="#80358c" d="M 398.5,246.5 C 398.573,248.027 397.906,249.027 396.5,249.5C 396.427,247.973 397.094,246.973 398.5,246.5 Z"/></g>
<g><path style="opacity:0.71" fill="#54235c" d="M 21.5,247.5 C 21.573,249.027 20.9063,250.027 19.5,250.5C 19.427,248.973 20.0937,247.973 21.5,247.5 Z"/></g>
<g><path style="opacity:0.153" fill="#7a3286" d="M 392.5,254.5 C 392.573,256.027 391.906,257.027 390.5,257.5C 390.427,255.973 391.094,254.973 392.5,254.5 Z"/></g>
<g><path style="opacity:0.314" fill="#743080" d="M 385.5,265.5 C 385.573,267.027 384.906,268.027 383.5,268.5C 383.427,266.973 384.094,265.973 385.5,265.5 Z"/></g>
<g><path style="opacity:0.478" fill="#6f2e7a" d="M 370.5,293.5 C 370.293,296.241 369.293,298.574 367.5,300.5C 367.707,297.759 368.707,295.426 370.5,293.5 Z"/></g>
<g><path style="opacity:0.455" fill="#712f7d" d="M 363.5,308.5 C 363.293,311.241 362.293,313.574 360.5,315.5C 360.707,312.759 361.707,310.426 363.5,308.5 Z"/></g>
<g><path style="opacity:0.525" fill="#712f7d" d="M 358.5,319.5 C 358.598,321.553 357.931,323.22 356.5,324.5C 356.402,322.447 357.069,320.78 358.5,319.5 Z"/></g>
<g><path style="opacity:0.631" fill="#692b74" d="M 354.5,328.5 C 354.598,330.553 353.931,332.22 352.5,333.5C 352.402,331.447 353.069,329.78 354.5,328.5 Z"/></g>
<g><path style="opacity:0.569" fill="#6e2e79" d="M 351.5,335.5 C 351.598,337.553 350.931,339.22 349.5,340.5C 349.402,338.447 350.069,336.78 351.5,335.5 Z"/></g>
<g><path style="opacity:0.624" fill="#6c2d76" d="M 344.5,351.5 C 344.598,353.553 343.931,355.22 342.5,356.5C 342.402,354.447 343.069,352.78 344.5,351.5 Z"/></g>
<g><path style="opacity:0.573" fill="#732f7e" d="M 341.5,358.5 C 341.598,360.553 340.931,362.22 339.5,363.5C 339.402,361.447 340.069,359.78 341.5,358.5 Z"/></g>
<g><path style="opacity:0.525" fill="#793285" d="M 338.5,365.5 C 338.598,367.553 337.931,369.22 336.5,370.5C 336.402,368.447 337.069,366.78 338.5,365.5 Z"/></g>
<g><path style="opacity:0.647" fill="#722f7d" d="M 334.5,374.5 C 334.598,376.553 333.931,378.22 332.5,379.5C 332.402,377.447 333.069,375.78 334.5,374.5 Z"/></g>
<g><path style="opacity:0.576" fill="#793285" d="M 331.5,381.5 C 330.958,384.912 329.625,387.912 327.5,390.5C 328.042,387.088 329.375,384.088 331.5,381.5 Z"/></g>
<g><path style="opacity:0.616" fill="#763182" d="M 323.5,398.5 C 322.958,401.912 321.625,404.912 319.5,407.5C 320.042,404.088 321.375,401.088 323.5,398.5 Z"/></g>
<g><path style="opacity:0.443" fill="#7a3286" d="M 314.5,417.5 C 314.25,419.674 313.25,421.341 311.5,422.5C 311.75,420.326 312.75,418.659 314.5,417.5 Z"/></g>
<g><path style="opacity:0.263" fill="#7e348b" d="M 309.5,426.5 C 309.573,428.027 308.906,429.027 307.5,429.5C 307.427,427.973 308.094,426.973 309.5,426.5 Z"/></g>
<g><path style="opacity:0.31" fill="#783284" d="M 306.5,431.5 C 306.573,433.027 305.906,434.027 304.5,434.5C 304.427,432.973 305.094,431.973 306.5,431.5 Z"/></g>
<g><path style="opacity:0.169" fill="#7c3388" d="M 302.5,437.5 C 302.573,439.027 301.906,440.027 300.5,440.5C 300.427,438.973 301.094,437.973 302.5,437.5 Z"/></g>
<g><path style="opacity:0.008" fill="#843691" d="M 296.5,445.5 C 296.573,447.027 295.906,448.027 294.5,448.5C 294.427,446.973 295.094,445.973 296.5,445.5 Z"/></g>
</svg>
