<?xml version="1.0" encoding="UTF-8"?>
<!DOCTYPE svg PUBLIC "-//W3C//DTD SVG 1.1//EN" "http://www.w3.org/Graphics/SVG/1.1/DTD/svg11.dtd">
<svg xmlns="http://www.w3.org/2000/svg" version="1.1" width="512px" height="512px" style="shape-rendering:geometricPrecision; text-rendering:geometricPrecision; image-rendering:optimizeQuality; fill-rule:evenodd; clip-rule:evenodd" xmlns:xlink="http://www.w3.org/1999/xlink">
<g><path style="opacity:0.992" fill="#051a26" d="M 415.5,310.5 C 411.762,310.048 409.262,308.048 408,304.5C 407.667,260.5 407.333,216.5 407,172.5C 404.089,158.344 397.756,146.011 388,135.5C 378.695,118.338 374.528,100.005 375.5,80.5C 292.833,80.5 210.167,80.5 127.5,80.5C 114.869,82.4476 106.703,77.4476 103,65.5C 102.085,53.4422 102.419,41.4422 104,29.5C 106.247,24.2884 110.08,20.7884 115.5,19C 208.833,18.3333 302.167,18.3333 395.5,19C 400.92,20.7884 404.753,24.2884 407,29.5C 408.581,41.4422 408.915,53.4422 408,65.5C 405.861,74.8182 400.028,79.8182 390.5,80.5C 388.908,96.3705 391.741,111.37 399,125.5C 412.39,140.62 420.057,158.287 422,178.5C 422.667,220.833 422.667,263.167 422,305.5C 420.841,308.493 418.675,310.16 415.5,310.5 Z"/></g>
<g><path style="opacity:1" fill="#3aa8fc" d="M 119.5,32.5 C 127.833,32.5 136.167,32.5 144.5,32.5C 144.5,43.8333 144.5,55.1667 144.5,66.5C 136.16,66.6664 127.827,66.4997 119.5,66C 119,65.5 118.5,65 118,64.5C 117.333,54.5 117.333,44.5 118,34.5C 118.717,33.9558 119.217,33.2891 119.5,32.5 Z"/></g>
<g><path style="opacity:1" fill="#3aa6f9" d="M 158.5,32.5 C 167.833,32.5 177.167,32.5 186.5,32.5C 186.5,43.8333 186.5,55.1667 186.5,66.5C 177.167,66.5 167.833,66.5 158.5,66.5C 158.5,55.1667 158.5,43.8333 158.5,32.5 Z"/></g>
<g><path style="opacity:1" fill="#3ba9fd" d="M 200.5,32.5 C 209.5,32.5 218.5,32.5 227.5,32.5C 227.5,43.8333 227.5,55.1667 227.5,66.5C 218.5,66.5 209.5,66.5 200.5,66.5C 200.5,55.1667 200.5,43.8333 200.5,32.5 Z"/></g>
<g><path style="opacity:1" fill="#3aa6f9" d="M 241.5,32.5 C 250.833,32.5 260.167,32.5 269.5,32.5C 269.5,43.8333 269.5,55.1667 269.5,66.5C 260.167,66.5 250.833,66.5 241.5,66.5C 241.5,55.1667 241.5,43.8333 241.5,32.5 Z"/></g>
<g><path style="opacity:1" fill="#3ba9fd" d="M 283.5,32.5 C 292.5,32.5 301.5,32.5 310.5,32.5C 310.5,43.8333 310.5,55.1667 310.5,66.5C 301.5,66.5 292.5,66.5 283.5,66.5C 283.5,55.1667 283.5,43.8333 283.5,32.5 Z"/></g>
<g><path style="opacity:1" fill="#3aa6f9" d="M 324.5,32.5 C 333.833,32.5 343.167,32.5 352.5,32.5C 352.5,43.8333 352.5,55.1667 352.5,66.5C 343.167,66.5 333.833,66.5 324.5,66.5C 324.5,55.1667 324.5,43.8333 324.5,32.5 Z"/></g>
<g><path style="opacity:1" fill="#3aa8fc" d="M 366.5,32.5 C 374.84,32.3336 383.173,32.5003 391.5,33C 392,33.5 392.5,34 393,34.5C 393.667,44.5 393.667,54.5 393,64.5C 392.5,65 392,65.5 391.5,66C 383.173,66.4997 374.84,66.6664 366.5,66.5C 366.5,55.1667 366.5,43.8333 366.5,32.5 Z"/></g>
<g><path style="opacity:1" fill="#e9e9ef" d="M 127.5,80.5 C 210.167,80.5 292.833,80.5 375.5,80.5C 374.528,100.005 378.695,118.338 388,135.5C 397.756,146.011 404.089,158.344 407,172.5C 407.333,216.5 407.667,260.5 408,304.5C 409.262,308.048 411.762,310.048 415.5,310.5C 415.5,313.833 415.5,317.167 415.5,320.5C 412.901,320.549 410.734,321.549 409,323.5C 407.896,327.72 407.396,332.053 407.5,336.5C 407.667,340.167 407.833,343.833 408,347.5C 409.41,350.789 411.91,352.456 415.5,352.5C 415.5,357.5 415.5,362.5 415.5,367.5C 411.976,367.667 409.476,369.333 408,372.5C 407.5,395.831 407.333,419.164 407.5,442.5C 306.167,442.5 204.833,442.5 103.5,442.5C 103.333,352.499 103.5,262.499 104,172.5C 106.911,158.344 113.244,146.011 123,135.5C 129.602,125.038 132.935,113.705 133,101.5C 131.512,99.84 129.679,98.84 127.5,98.5C 127.5,92.5 127.5,86.5 127.5,80.5 Z"/></g>
<g><path style="opacity:0.997" fill="#051a26" d="M 127.5,98.5 C 129.679,98.84 131.512,99.84 133,101.5C 132.935,113.705 129.602,125.038 123,135.5C 113.244,146.011 106.911,158.344 104,172.5C 103.5,262.499 103.333,352.499 103.5,442.5C 204.833,442.5 306.167,442.5 407.5,442.5C 407.333,419.164 407.5,395.831 408,372.5C 409.476,369.333 411.976,367.667 415.5,367.5C 418.642,367.799 420.809,369.466 422,372.5C 422.667,403.5 422.667,434.5 422,465.5C 419.467,479.033 411.634,487.866 398.5,492C 330.833,492.667 263.167,492.667 195.5,492C 192.778,490.728 191.444,488.561 191.5,485.5C 191.841,482.438 193.508,480.272 196.5,479C 262.833,478.667 329.167,478.333 395.5,478C 404.793,473.925 408.793,466.758 407.5,456.5C 306.167,456.5 204.833,456.5 103.5,456.5C 102.207,466.758 106.207,473.925 115.5,478C 132.167,478.333 148.833,478.667 165.5,479C 168.534,480.191 170.201,482.358 170.5,485.5C 170.919,488.325 169.919,490.491 167.5,492C 149.167,492.667 130.833,492.667 112.5,492C 99.3664,487.866 91.5331,479.033 89,465.5C 88.3333,369.833 88.3333,274.167 89,178.5C 90.9405,158.292 98.6072,140.625 112,125.5C 115.795,117.449 118.795,109.116 121,100.5C 122.897,98.9837 125.064,98.317 127.5,98.5 Z"/></g>
<g><path style="opacity:1" fill="#081c28" d="M 360.5,118.5 C 363.93,118.107 367.096,118.773 370,120.5C 372.946,129.058 376.946,137.058 382,144.5C 382.131,151.696 378.631,154.529 371.5,153C 363.805,143.787 359.305,133.287 358,121.5C 359.045,120.627 359.878,119.627 360.5,118.5 Z"/></g>
<g><path style="opacity:1" fill="#081c29" d="M 136.5,200.5 C 216.582,200.006 296.582,200.506 376.5,202C 377.333,202.833 378.167,203.667 379,204.5C 379.991,260.249 379.658,315.916 378,371.5C 377.097,372.701 375.931,373.535 374.5,374C 294.419,374.994 214.419,374.661 134.5,373C 133.299,372.097 132.465,370.931 132,369.5C 131.333,314.5 131.333,259.5 132,204.5C 133.397,202.93 134.897,201.596 136.5,200.5 Z"/></g>
<g><path style="opacity:1" fill="#3aa7fa" d="M 145.5,214.5 C 218.833,214.5 292.167,214.5 365.5,214.5C 365.5,263.167 365.5,311.833 365.5,360.5C 292.167,360.5 218.833,360.5 145.5,360.5C 145.5,311.833 145.5,263.167 145.5,214.5 Z"/></g>
<g><path style="opacity:1" fill="#061b28" d="M 214.5,240.5 C 221.489,239.907 228.156,241.074 234.5,244C 239.884,249.929 245.384,255.762 251,261.5C 253.18,264.359 254.68,267.526 255.5,271C 280.167,271.333 304.833,271.667 329.5,272C 330.667,273.167 331.833,274.333 333,275.5C 333.95,285.933 333.617,296.266 332,306.5C 331.097,307.701 329.931,308.535 328.5,309C 305.833,309.333 283.167,309.667 260.5,310C 248.812,330.173 231.479,337.84 208.5,333C 190.881,326.613 180.715,314.113 178,295.5C 177.333,288.833 177.333,282.167 178,275.5C 180.239,272.038 183.406,270.705 187.5,271.5C 188.718,264.594 192.384,259.261 198.5,255.5C 201.966,248.363 207.299,243.363 214.5,240.5 Z"/></g>
<g><path style="opacity:1" fill="#d0d0d1" d="M 216.5,254.5 C 225.601,252.799 231.101,256.465 233,265.5C 235.589,267.211 238.089,269.045 240.5,271C 227.82,271.833 215.154,271.666 202.5,270.5C 204.583,269.041 206.75,267.708 209,266.5C 210.247,261.663 212.747,257.663 216.5,254.5 Z"/></g>
<g><path style="opacity:1" fill="#e8e8ee" d="M 318.5,285.5 C 318.5,288.5 318.5,291.5 318.5,294.5C 296.993,294.169 275.66,294.503 254.5,295.5C 252.629,295.859 251.129,296.859 250,298.5C 243.772,315.537 231.605,322.704 213.5,320C 197.736,313.991 190.403,302.491 191.5,285.5C 233.833,285.5 276.167,285.5 318.5,285.5 Z"/></g>
<g><path style="opacity:1" fill="#acb2b9" d="M 318.5,285.5 C 319.479,288.625 319.813,291.958 319.5,295.5C 297.833,295.5 276.167,295.5 254.5,295.5C 275.66,294.503 296.993,294.169 318.5,294.5C 318.5,291.5 318.5,288.5 318.5,285.5 Z"/></g>
<g><path style="opacity:0.989" fill="#081c28" d="M 415.5,320.5 C 418.642,320.799 420.809,322.466 422,325.5C 422.667,332.833 422.667,340.167 422,347.5C 420.809,350.534 418.642,352.201 415.5,352.5C 411.91,352.456 409.41,350.789 408,347.5C 407.833,343.833 407.667,340.167 407.5,336.5C 407.396,332.053 407.896,327.72 409,323.5C 410.734,321.549 412.901,320.549 415.5,320.5 Z"/></g>
<g><path style="opacity:1" fill="#3aa8fc" d="M 191.5,485.5 C 184.5,485.5 177.5,485.5 170.5,485.5C 170.201,482.358 168.534,480.191 165.5,479C 148.833,478.667 132.167,478.333 115.5,478C 106.207,473.925 102.207,466.758 103.5,456.5C 204.833,456.5 306.167,456.5 407.5,456.5C 408.793,466.758 404.793,473.925 395.5,478C 329.167,478.333 262.833,478.667 196.5,479C 193.508,480.272 191.841,482.438 191.5,485.5 Z"/></g>
</svg>
