<?xml version="1.0" encoding="UTF-8"?>
<!DOCTYPE svg PUBLIC "-//W3C//DTD SVG 1.1//EN" "http://www.w3.org/Graphics/SVG/1.1/DTD/svg11.dtd">
<svg xmlns="http://www.w3.org/2000/svg" version="1.1" width="512px" height="512px" style="shape-rendering:geometricPrecision; text-rendering:geometricPrecision; image-rendering:optimizeQuality; fill-rule:evenodd; clip-rule:evenodd" xmlns:xlink="http://www.w3.org/1999/xlink">
<g><path style="opacity:0.988" fill="#040100" d="M 80.5,-0.5 C 86.1667,-0.5 91.8333,-0.5 97.5,-0.5C 99.6959,0.854084 101.196,2.85408 102,5.5C 102.333,33.5 102.667,61.5 103,89.5C 113.301,71.0644 123.467,52.5644 133.5,34C 128.682,26.5103 123.849,19.0103 119,11.5C 117.474,6.23886 118.974,2.23886 123.5,-0.5C 126.167,-0.5 128.833,-0.5 131.5,-0.5C 145.601,10.6885 153.768,25.3552 156,43.5C 161.404,77.3857 155.071,109.052 137,138.5C 136.667,155.833 136.333,173.167 136,190.5C 135.727,192.101 135.227,193.601 134.5,195C 136.902,195.814 139.235,195.647 141.5,194.5C 158.745,161.009 176.245,127.676 194,94.5C 206.7,83.0655 220.534,81.5655 235.5,90C 244.961,98.7036 249.127,109.537 248,122.5C 253,117.167 258,117.167 263,122.5C 262.307,96.526 274.807,84.026 300.5,85C 305.418,86.1258 309.752,88.2925 313.5,91.5C 313.738,93.4044 314.738,94.7377 316.5,95.5C 318.796,97.4006 320.629,99.7339 322,102.5C 337.578,133.323 353.411,163.99 369.5,194.5C 371.765,195.647 374.098,195.814 376.5,195C 375.773,193.601 375.273,192.101 375,190.5C 374.833,167.333 374.667,144.167 374.5,121C 374.362,95.7995 374.862,70.6328 376,45.5C 378.247,35.7402 382.58,27.0736 389,19.5C 396.961,12.4555 405.128,5.78885 413.5,-0.5C 419.167,-0.5 424.833,-0.5 430.5,-0.5C 475.167,8.83333 502.167,35.8333 511.5,80.5C 511.5,105.833 511.5,131.167 511.5,156.5C 507.843,175.308 498.843,191.141 484.5,204C 465.211,217.965 446.544,232.632 428.5,248C 420.234,252.985 411.234,255.652 401.5,256C 408.477,269.453 415.31,282.953 422,296.5C 423.963,302.016 425.13,307.683 425.5,313.5C 425.5,342.5 425.5,371.5 425.5,400.5C 420.167,400.5 414.833,400.5 409.5,400.5C 409.831,372.328 409.498,344.328 408.5,316.5C 407.292,310.344 405.459,304.344 403,298.5C 395.627,284.254 388.127,270.088 380.5,256C 364.833,255.667 349.167,255.333 333.5,255C 327.052,253.853 321.219,251.353 316,247.5C 315.5,258.495 315.333,269.495 315.5,280.5C 323.507,280.666 331.507,280.5 339.5,280C 349.833,274.833 360.167,269.667 370.5,264.5C 373.864,269.386 376.864,274.552 379.5,280C 367.99,286.255 356.323,292.255 344.5,298C 334.839,298.5 325.172,298.666 315.5,298.5C 315.113,303.874 314.446,309.207 313.5,314.5C 336.833,314.5 360.167,314.5 383.5,314.5C 383.5,320.5 383.5,326.5 383.5,332.5C 359.491,332.167 335.491,332.5 311.5,333.5C 310.274,338.415 309.607,343.415 309.5,348.5C 321.562,348.085 333.562,348.585 345.5,350C 356.99,355.578 368.323,361.411 379.5,367.5C 376.921,372.992 374.088,378.325 371,383.5C 360.245,377.872 349.411,372.372 338.5,367C 327.839,366.5 317.172,366.333 306.5,366.5C 305.915,372.178 305.249,377.845 304.5,383.5C 315.172,383.333 325.839,383.5 336.5,384C 346.318,392.651 355.651,401.817 364.5,411.5C 360.515,415.985 356.349,420.318 352,424.5C 344.5,417 337,409.5 329.5,402C 320.173,401.5 310.839,401.334 301.5,401.5C 300.595,411.169 299.595,420.835 298.5,430.5C 298.833,432.5 299.167,434.5 299.5,436.5C 313.598,440.699 327.598,445.199 341.5,450C 358.793,462.447 362.627,478.28 353,497.5C 347.938,504.271 341.438,508.938 333.5,511.5C 281.5,511.5 229.5,511.5 177.5,511.5C 156.76,503.355 149.26,488.355 155,466.5C 157.872,459.243 162.705,453.743 169.5,450C 183.402,445.199 197.402,440.699 211.5,436.5C 211.833,434.5 212.167,432.5 212.5,430.5C 211.405,420.835 210.405,411.169 209.5,401.5C 200.161,401.334 190.827,401.5 181.5,402C 174,409.5 166.5,417 159,424.5C 155.296,420.964 151.796,417.298 148.5,413.5C 148.351,412.448 148.517,411.448 149,410.5C 157.369,402.298 165.536,393.965 173.5,385.5C 173.611,384.883 173.944,384.383 174.5,384C 185.161,383.5 195.828,383.333 206.5,383.5C 205.646,377.858 204.98,372.191 204.5,366.5C 193.828,366.333 183.161,366.5 172.5,367C 161.589,372.372 150.755,377.872 140,383.5C 136.912,378.325 134.079,372.992 131.5,367.5C 142.677,361.411 154.01,355.578 165.5,350C 177.438,348.585 189.438,348.085 201.5,348.5C 201.393,343.415 200.726,338.415 199.5,333.5C 175.509,332.5 151.509,332.167 127.5,332.5C 127.5,326.5 127.5,320.5 127.5,314.5C 150.833,314.5 174.167,314.5 197.5,314.5C 196.554,309.207 195.887,303.874 195.5,298.5C 185.828,298.666 176.161,298.5 166.5,298C 154.677,292.255 143.01,286.255 131.5,280C 134.136,274.552 137.136,269.386 140.5,264.5C 150.833,269.667 161.167,274.833 171.5,280C 179.493,280.5 187.493,280.666 195.5,280.5C 195.667,269.828 195.5,259.161 195,248.5C 190.241,251.629 185.074,253.796 179.5,255C 163.167,255.333 146.833,255.667 130.5,256C 122.873,270.088 115.373,284.254 108,298.5C 105.541,304.344 103.708,310.344 102.5,316.5C 101.502,344.328 101.169,372.328 101.5,400.5C 96.1667,400.5 90.8333,400.5 85.5,400.5C 85.5,371.5 85.5,342.5 85.5,313.5C 85.8704,307.683 87.0371,302.016 89,296.5C 95.6901,282.953 102.523,269.453 109.5,256C 93.0016,255.466 79.6683,248.799 69.5,236C 54.9882,225.577 40.6549,214.91 26.5,204C 12.1571,191.141 3.15708,175.308 -0.5,156.5C -0.5,131.167 -0.5,105.833 -0.5,80.5C 8.83333,35.8333 35.8333,8.83333 80.5,-0.5 Z M 213.5,102.5 C 220.883,101.772 226.049,104.772 229,111.5C 229.667,124.5 229.667,137.5 229,150.5C 219.03,164.101 210.863,178.768 204.5,194.5C 190.178,195.666 175.845,195.833 161.5,195C 176.716,166.736 191.549,138.236 206,109.5C 208.015,106.588 210.515,104.255 213.5,102.5 Z M 290.5,102.5 C 296.872,101.77 301.706,104.104 305,109.5C 319.451,138.236 334.284,166.736 349.5,195C 335.155,195.833 320.822,195.666 306.5,194.5C 300.137,178.768 291.97,164.101 282,150.5C 281.333,137.833 281.333,125.167 282,112.5C 283.261,107.745 286.095,104.412 290.5,102.5 Z"/></g>
<g><path style="opacity:1" fill="#dc4b3b" d="M 83.5,17.5 C 84.1667,44.1667 84.8333,70.8333 85.5,97.5C 85.8979,102.193 87.3979,106.526 90,110.5C 93.3709,113.703 96.5375,117.036 99.5,120.5C 101.073,137.469 101.573,154.469 101,171.5C 98.4951,179.667 93.9951,186.5 87.5,192C 78.2962,197.603 68.6295,202.103 58.5,205.5C 44.3078,197.81 32.8078,187.144 24,173.5C 21.8043,168.58 19.8043,163.58 18,158.5C 16.3918,133.536 16.0585,108.536 17,83.5C 21.8947,54.5407 37.728,34.0407 64.5,22C 70.5888,19.3943 76.9221,17.8943 83.5,17.5 Z"/></g>
<g><path style="opacity:1" fill="#4c1a14" d="M 83.5,17.5 C 83.56,16.9569 83.8933,16.6236 84.5,16.5C 85.4998,43.4918 85.8331,70.4918 85.5,97.5C 84.8333,70.8333 84.1667,44.1667 83.5,17.5 Z"/></g>
<g><path style="opacity:1" fill="#dd4b3b" d="M 452.5,25.5 C 460.118,37.0826 465.285,49.7492 468,63.5C 468.5,84.8307 468.667,106.164 468.5,127.5C 465.833,127.5 463.167,127.5 460.5,127.5C 460.5,133.167 460.5,138.833 460.5,144.5C 462.292,145.309 464.292,145.809 466.5,146C 461.685,161.627 452.685,174.294 439.5,184C 429.884,190.615 420.55,197.615 411.5,205C 410.255,205.791 408.922,206.291 407.5,206.5C 400.453,203.281 395.62,197.948 393,190.5C 392.333,173.167 392.333,155.833 393,138.5C 402.333,129.167 411.667,119.833 421,110.5C 422.608,107.618 423.941,104.618 425,101.5C 426.466,73.5506 426.966,45.5506 426.5,17.5C 435.783,18.3734 444.449,21.0401 452.5,25.5 Z"/></g>
<g><path style="opacity:1" fill="#a82e25" d="M 407.5,26.5 C 408.498,49.6607 408.831,72.994 408.5,96.5C 408.291,97.9217 407.791,99.255 407,100.5C 402.333,105.167 397.667,109.833 393,114.5C 392.333,92.8333 392.333,71.1667 393,49.5C 395.334,40.1459 400.167,32.4792 407.5,26.5 Z"/></g>
<g><path style="opacity:1" fill="#641b16" d="M 407.5,26.5 C 407.56,25.9569 407.893,25.6236 408.5,25.5C 409.829,49.3299 409.829,72.9966 408.5,96.5C 408.831,72.994 408.498,49.6607 407.5,26.5 Z"/></g>
<g><path style="opacity:1" fill="#cf4738" d="M 452.5,25.5 C 475.862,37.8495 489.696,57.1828 494,83.5C 494.167,95 494.333,106.5 494.5,118C 500.236,147.11 492.569,171.776 471.5,192C 459.217,200.615 447.217,209.615 435.5,219C 434.167,219.667 432.833,219.667 431.5,219C 423.281,215.059 415.281,210.892 407.5,206.5C 408.922,206.291 410.255,205.791 411.5,205C 420.55,197.615 429.884,190.615 439.5,184C 452.685,174.294 461.685,161.627 466.5,146C 464.292,145.809 462.292,145.309 460.5,144.5C 466.167,144.5 471.833,144.5 477.5,144.5C 477.5,138.833 477.5,133.167 477.5,127.5C 474.5,127.5 471.5,127.5 468.5,127.5C 468.667,106.164 468.5,84.8307 468,63.5C 465.285,49.7492 460.118,37.0826 452.5,25.5 Z"/></g>
<g><path style="opacity:1" fill="#b83829" d="M 139.5,59.5 C 141.619,81.5558 136.952,102.223 125.5,121.5C 120.833,117.5 116.5,113.167 112.5,108.5C 121.778,92.2731 130.778,75.9397 139.5,59.5 Z"/></g>
<g><path style="opacity:0.859" fill="#661c18" d="M 313.5,91.5 C 315.262,92.2623 316.262,93.5956 316.5,95.5C 314.738,94.7377 313.738,93.4044 313.5,91.5 Z"/></g>
<g><path style="opacity:1" fill="#010000" d="M 33.5,110.5 C 39.1667,110.5 44.8333,110.5 50.5,110.5C 50.5,116.167 50.5,121.833 50.5,127.5C 44.8333,127.5 39.1667,127.5 33.5,127.5C 33.5,121.833 33.5,116.167 33.5,110.5 Z"/></g>
<g><path style="opacity:1" fill="#cf4738" d="M 99.5,120.5 C 105.798,126.297 111.965,132.297 118,138.5C 118.667,155.833 118.667,173.167 118,190.5C 116.186,195.964 113.02,200.464 108.5,204C 98.9903,209.255 89.3236,214.255 79.5,219C 78.1667,219.667 76.8333,219.667 75.5,219C 69.6461,214.636 63.9795,210.136 58.5,205.5C 68.6295,202.103 78.2962,197.603 87.5,192C 93.9951,186.5 98.4951,179.667 101,171.5C 101.573,154.469 101.073,137.469 99.5,120.5 Z"/></g>
<g><path style="opacity:1" fill="#020000" d="M 468.5,127.5 C 471.5,127.5 474.5,127.5 477.5,127.5C 477.5,133.167 477.5,138.833 477.5,144.5C 471.833,144.5 466.167,144.5 460.5,144.5C 460.5,138.833 460.5,133.167 460.5,127.5C 463.167,127.5 465.833,127.5 468.5,127.5 Z"/></g>
<g><path style="opacity:1" fill="#0b0201" d="M 59.5,136.5 C 65.1667,136.5 70.8333,136.5 76.5,136.5C 76.5,142.167 76.5,147.833 76.5,153.5C 70.8333,153.5 65.1667,153.5 59.5,153.5C 59.5,147.833 59.5,142.167 59.5,136.5 Z"/></g>
<g><path style="opacity:1" fill="#cd4637" d="M 297.5,234.5 C 297.829,248.344 297.496,262.01 296.5,275.5C 292.668,271.836 288.668,268.336 284.5,265C 265.836,264.5 247.17,264.333 228.5,264.5C 242.99,263.504 257.657,263.171 272.5,263.5C 275.699,225.637 267.865,190.304 249,157.5C 248.329,156.748 247.496,156.414 246.5,156.5C 249.243,152.021 252.243,147.688 255.5,143.5C 263.862,155.363 272.029,167.363 280,179.5C 290.35,196.385 296.184,214.718 297.5,234.5 Z"/></g>
<g><path style="opacity:1" fill="#dd4b3b" d="M 246.5,156.5 C 247.496,156.414 248.329,156.748 249,157.5C 267.865,190.304 275.699,225.637 272.5,263.5C 257.657,263.171 242.99,263.504 228.5,264.5C 227.078,264.709 225.745,265.209 224.5,266C 221.297,269.371 217.964,272.538 214.5,275.5C 213.504,262.01 213.171,248.344 213.5,234.5C 214.817,214.716 220.651,196.382 231,179.5C 236.177,171.805 241.343,164.138 246.5,156.5 Z"/></g>
<g><path style="opacity:1" fill="#561a15" d="M 409.5,153.5 C 414.975,152.511 420.642,152.178 426.5,152.5C 426.5,158.5 426.5,164.5 426.5,170.5C 420.5,170.5 414.5,170.5 408.5,170.5C 408.178,164.642 408.511,158.975 409.5,153.5 Z"/></g>
<g><path style="opacity:1" fill="#000000" d="M 409.5,153.5 C 414.833,153.5 420.167,153.5 425.5,153.5C 425.5,158.833 425.5,164.167 425.5,169.5C 420.167,169.5 414.833,169.5 409.5,169.5C 409.5,164.167 409.5,158.833 409.5,153.5 Z"/></g>
<g><path style="opacity:1" fill="#7a251b" d="M 151.5,213.5 C 166.658,212.504 181.991,212.17 197.5,212.5C 197.737,213.791 197.404,214.791 196.5,215.5C 181.871,213.516 166.871,212.85 151.5,213.5 Z"/></g>
<g><path style="opacity:1" fill="#b73829" d="M 123.5,212.5 C 126.572,212.183 129.572,212.516 132.5,213.5C 128.167,221.5 123.833,229.5 119.5,237.5C 109.231,240.035 99.8978,238.202 91.5,232C 99.9906,227.922 108.324,223.588 116.5,219C 119.331,217.334 121.664,215.168 123.5,212.5 Z"/></g>
<g><path style="opacity:1" fill="#ba392a" d="M 151.5,213.5 C 166.871,212.85 181.871,213.516 196.5,215.5C 194.311,226.862 187.644,234.362 176.5,238C 163.833,238.667 151.167,238.667 138.5,238C 142.719,229.727 147.052,221.561 151.5,213.5 Z"/></g>
<g><path style="opacity:1" fill="#b83829" d="M 315.5,212.5 C 330.182,212.167 344.848,212.501 359.5,213.5C 363.961,221.587 368.294,229.754 372.5,238C 359.43,238.942 346.43,238.609 333.5,237C 322.672,232.344 316.672,224.177 315.5,212.5 Z"/></g>
<g><path style="opacity:1" fill="#b73829" d="M 378.5,212.5 C 381.518,212.335 384.518,212.502 387.5,213C 397.176,220.844 407.842,227.178 419.5,232C 411.123,238.037 401.79,240.037 391.5,238C 387.013,229.525 382.679,221.025 378.5,212.5 Z"/></g>
<g><path style="opacity:1" fill="#812c23" d="M 297.5,234.5 C 298.661,248.661 298.827,262.994 298,277.5C 297.283,276.956 296.783,276.289 296.5,275.5C 297.496,262.01 297.829,248.344 297.5,234.5 Z"/></g>
<g><path style="opacity:1" fill="#882e24" d="M 213.5,234.5 C 213.171,248.344 213.504,262.01 214.5,275.5C 214.217,276.289 213.717,276.956 213,277.5C 212.173,262.994 212.339,248.661 213.5,234.5 Z"/></g>
<g><path style="opacity:1" fill="#dc4b3b" d="M 272.5,281.5 C 272.5,289.833 272.5,298.167 272.5,306.5C 260.162,306.333 247.829,306.5 235.5,307C 229.167,311.167 222.833,315.333 216.5,319.5C 214.614,313.303 213.78,306.97 214,300.5C 220.167,294.333 226.333,288.167 232.5,282C 245.829,281.5 259.163,281.333 272.5,281.5 Z"/></g>
<g><path style="opacity:1" fill="#cd4638" d="M 272.5,281.5 C 274.527,281.338 276.527,281.505 278.5,282C 285.622,288.447 291.956,295.447 297.5,303C 297.056,308.631 296.056,314.131 294.5,319.5C 287.626,314.272 280.293,309.938 272.5,306.5C 272.5,298.167 272.5,289.833 272.5,281.5 Z"/></g>
<g><path style="opacity:0.651" fill="#3a100d" d="M 85.5,313.5 C 85.5,342.5 85.5,371.5 85.5,400.5C 90.8333,400.5 96.1667,400.5 101.5,400.5C 101.169,372.328 101.502,344.328 102.5,316.5C 102.5,344.833 102.5,373.167 102.5,401.5C 96.5,401.5 90.5,401.5 84.5,401.5C 84.1686,371.995 84.5019,342.662 85.5,313.5 Z"/></g>
<g><path style="opacity:0.651" fill="#3a100d" d="M 425.5,313.5 C 426.498,342.662 426.831,371.995 426.5,401.5C 420.5,401.5 414.5,401.5 408.5,401.5C 408.5,373.167 408.5,344.833 408.5,316.5C 409.498,344.328 409.831,372.328 409.5,400.5C 414.833,400.5 420.167,400.5 425.5,400.5C 425.5,371.5 425.5,342.5 425.5,313.5 Z"/></g>
<g><path style="opacity:1" fill="#dc4b3b" d="M 240.5,324.5 C 250.167,324.5 259.833,324.5 269.5,324.5C 269.102,332.449 268.102,340.282 266.5,348C 256.991,348.17 247.658,348.67 238.5,349.5C 235.984,349.755 233.65,350.589 231.5,352C 228.337,354.416 225.004,356.582 221.5,358.5C 220.437,353.016 219.437,347.516 218.5,342C 218.559,340.564 218.892,339.231 219.5,338C 226.528,333.489 233.528,328.989 240.5,324.5 Z"/></g>
<g><path style="opacity:1" fill="#ca4536" d="M 240.5,324.5 C 250.325,323.342 260.325,323.175 270.5,324C 277.328,328.915 284.328,333.581 291.5,338C 292.108,339.231 292.441,340.564 292.5,342C 291.563,347.516 290.563,353.016 289.5,358.5C 284.965,355.468 280.298,352.635 275.5,350C 263.171,349.5 250.838,349.333 238.5,349.5C 247.658,348.67 256.991,348.17 266.5,348C 268.102,340.282 269.102,332.449 269.5,324.5C 259.833,324.5 250.167,324.5 240.5,324.5 Z"/></g>
<g><path style="opacity:1" fill="#dc4b3b" d="M 264.5,366.5 C 262.908,374.751 261.908,383.085 261.5,391.5C 253.316,391.174 245.316,391.508 237.5,392.5C 233.159,393.431 229.659,395.764 227,399.5C 224.902,392.173 224.069,384.84 224.5,377.5C 229.698,373.803 235.031,370.303 240.5,367C 248.493,366.5 256.493,366.334 264.5,366.5 Z"/></g>
<g><path style="opacity:1" fill="#c84536" d="M 264.5,366.5 C 267.32,366.248 269.986,366.748 272.5,368C 277.708,371.432 282.708,375.099 287.5,379C 286.825,385.91 285.659,392.743 284,399.5C 281.795,396.96 279.295,394.793 276.5,393C 263.504,392.5 250.504,392.333 237.5,392.5C 245.316,391.508 253.316,391.174 261.5,391.5C 261.908,383.085 262.908,374.751 264.5,366.5 Z"/></g>
<g><path style="opacity:0.953" fill="#2e100a" d="M 173.5,385.5 C 165.536,393.965 157.369,402.298 149,410.5C 148.517,411.448 148.351,412.448 148.5,413.5C 146.915,412.998 146.415,411.998 147,410.5C 155.421,401.574 164.254,393.241 173.5,385.5 Z"/></g>
<g><path style="opacity:1" fill="#dc4b3b" d="M 258.5,409.5 C 257.081,417.773 256.081,426.106 255.5,434.5C 246.833,434.5 238.167,434.5 229.5,434.5C 229.334,430.154 229.501,425.821 230,421.5C 233.833,417.667 237.667,413.833 241.5,410C 247.157,409.501 252.824,409.334 258.5,409.5 Z"/></g>
<g><path style="opacity:1" fill="#cf4738" d="M 258.5,409.5 C 262.182,409.335 265.848,409.501 269.5,410C 273.333,413.833 277.167,417.667 281,421.5C 281.499,425.821 281.666,430.154 281.5,434.5C 272.833,434.5 264.167,434.5 255.5,434.5C 256.081,426.106 257.081,417.773 258.5,409.5 Z"/></g>
<g><path style="opacity:1" fill="#943328" d="M 277.5,453.5 C 269.35,452.507 261.017,452.174 252.5,452.5C 245.978,452.177 239.645,452.51 233.5,453.5C 232.957,453.44 232.624,453.107 232.5,452.5C 247.833,451.167 263.167,451.167 278.5,452.5C 278.376,453.107 278.043,453.44 277.5,453.5 Z"/></g>
<g><path style="opacity:1" fill="#dc4b3b" d="M 252.5,452.5 C 250.815,465.342 248.815,478.008 246.5,490.5C 244.292,489.106 242.792,487.106 242,484.5C 239.261,474.12 236.428,463.787 233.5,453.5C 239.645,452.51 245.978,452.177 252.5,452.5 Z"/></g>
<g><path style="opacity:1" fill="#cf4738" d="M 252.5,452.5 C 261.017,452.174 269.35,452.507 277.5,453.5C 274.465,465.308 270.965,476.975 267,488.5C 260.584,495.447 253.751,496.114 246.5,490.5C 248.815,478.008 250.815,465.342 252.5,452.5 Z"/></g>
<g><path style="opacity:1" fill="#a42d24" d="M 191.5,460.5 C 192.043,460.56 192.376,460.893 192.5,461.5C 186.251,471.935 185.917,482.602 191.5,493.5C 175.97,495.804 169.137,489.137 171,473.5C 172.449,470.384 174.616,467.884 177.5,466C 182.161,463.849 186.828,462.016 191.5,460.5 Z"/></g>
<g><path style="opacity:1" fill="#b73829" d="M 215.5,462.5 C 216.5,462.5 217.5,462.5 218.5,462.5C 221.031,472.955 224.031,483.289 227.5,493.5C 212.149,496.309 204.649,489.975 205,474.5C 206.963,469.044 210.463,465.044 215.5,462.5 Z"/></g>
<g><path style="opacity:1" fill="#b73829" d="M 292.5,462.5 C 302.705,465.229 307.205,471.895 306,482.5C 301.923,492.925 294.423,496.592 283.5,493.5C 286.969,483.289 289.969,472.955 292.5,462.5 Z"/></g>
<g><path style="opacity:1" fill="#a52d24" d="M 318.5,460.5 C 323.51,462.226 328.51,464.06 333.5,466C 342.093,473.605 342.759,481.938 335.5,491C 330.567,494.393 325.234,495.227 319.5,493.5C 325.022,482.273 324.689,471.273 318.5,460.5 Z"/></g>
</svg>
