<?xml version="1.0" encoding="UTF-8"?>
<!DOCTYPE svg PUBLIC "-//W3C//DTD SVG 1.1//EN" "http://www.w3.org/Graphics/SVG/1.1/DTD/svg11.dtd">
<svg xmlns="http://www.w3.org/2000/svg" version="1.1" width="512px" height="512px" style="shape-rendering:geometricPrecision; text-rendering:geometricPrecision; image-rendering:optimizeQuality; fill-rule:evenodd; clip-rule:evenodd" xmlns:xlink="http://www.w3.org/1999/xlink">
<g><path style="opacity:0.997" fill="#1f2020" d="M 37.5,-0.5 C 182.833,-0.5 328.167,-0.5 473.5,-0.5C 493.167,5.16667 505.833,17.8333 511.5,37.5C 511.5,182.833 511.5,328.167 511.5,473.5C 505.833,493.167 493.167,505.833 473.5,511.5C 328.167,511.5 182.833,511.5 37.5,511.5C 17.8333,505.833 5.16667,493.167 -0.5,473.5C -0.5,328.167 -0.5,182.833 -0.5,37.5C 5.16667,17.8333 17.8333,5.16667 37.5,-0.5 Z"/></g>
<g><path style="opacity:1" fill="#0467b1" d="M 40.5,15.5 C 183.834,15.3333 327.167,15.5 470.5,16C 483.36,19.5264 491.526,27.6931 495,40.5C 495.667,183.833 495.667,327.167 495,470.5C 491.5,483.333 483.333,491.5 470.5,495C 327.167,495.667 183.833,495.667 40.5,495C 27.6931,491.526 19.5264,483.36 16,470.5C 15.3333,327.167 15.3333,183.833 16,40.5C 19.6829,27.6514 27.8496,19.3181 40.5,15.5 Z"/></g>
<g><path style="opacity:1" fill="#202020" d="M 41.5,23.5 C 183.167,23.3333 324.834,23.5 466.5,24C 476.705,25.8709 483.538,31.7042 487,41.5C 487.667,183.167 487.667,324.833 487,466.5C 484.833,478 478,484.833 466.5,487C 324.833,487.667 183.167,487.667 41.5,487C 31.7042,483.538 25.8709,476.705 24,466.5C 23.3333,324.833 23.3333,183.167 24,41.5C 27.3531,32.9815 33.1865,26.9815 41.5,23.5 Z"/></g>
<g><path style="opacity:1" fill="#7f7f7f" d="M 247.5,63.5 C 228.659,63.1698 209.993,63.5031 191.5,64.5C 185.492,63.2258 179.492,63.2258 173.5,64.5C 153.5,63.1667 133.5,63.1667 113.5,64.5C 107.487,63.2159 101.487,63.2159 95.5,64.5C 88.6791,63.3454 81.6791,63.1787 74.5,64C 65.3152,68.1984 61.9819,75.0317 64.5,84.5C 55.1507,101.176 52.9841,118.842 58,137.5C 59.496,143.166 61.6626,148.499 64.5,153.5C 63.5018,184.662 63.1685,215.996 63.5,247.5C 55.5,247.5 47.5,247.5 39.5,247.5C 39.0068,179.084 39.5068,110.751 41,42.5C 41.9025,41.2986 43.0692,40.4652 44.5,40C 112.166,39.5 179.833,39.3333 247.5,39.5C 247.5,47.5 247.5,55.5 247.5,63.5 Z"/></g>
<g><path style="opacity:1" fill="#7f7f7f" d="M 471.5,63.5 C 440.329,63.1685 409.329,63.5018 378.5,64.5C 371.138,63.353 363.804,63.353 356.5,64.5C 333.673,63.5025 310.673,63.1692 287.5,63.5C 287.169,86.3395 287.503,109.006 288.5,131.5C 287.307,139.151 287.307,146.817 288.5,154.5C 287.502,185.329 287.169,216.329 287.5,247.5C 279.5,247.5 271.5,247.5 263.5,247.5C 263.5,178.167 263.5,108.833 263.5,39.5C 330.834,39.3333 398.167,39.5 465.5,40C 468.232,40.3981 470.065,41.8981 471,44.5C 471.5,50.8246 471.666,57.1579 471.5,63.5 Z"/></g>
<g><path style="opacity:1" fill="#afafaf" d="M 95.5,64.5 C 82.3544,66.9005 72.021,73.5671 64.5,84.5C 61.9819,75.0317 65.3152,68.1984 74.5,64C 81.6791,63.1787 88.6791,63.3454 95.5,64.5 Z"/></g>
<g><path style="opacity:1" fill="#212121" d="M 113.5,64.5 C 125.73,66.9418 135.73,72.9418 143.5,82.5C 148.394,77.4364 153.727,72.9364 159.5,69C 163.905,66.6278 168.572,65.1278 173.5,64.5C 179.492,63.2258 185.492,63.2258 191.5,64.5C 212.81,69.1437 225.81,82.1437 230.5,103.5C 233.041,119.368 231.207,134.702 225,149.5C 216.753,166.836 205.919,182.336 192.5,196C 179.492,207.816 165.825,218.649 151.5,228.5C 148.899,229.979 146.066,230.979 143,231.5C 118.404,217.916 97.0704,200.249 79,178.5C 73.1332,170.767 68.2999,162.433 64.5,153.5C 61.6626,148.499 59.496,143.166 58,137.5C 52.9841,118.842 55.1507,101.176 64.5,84.5C 72.021,73.5671 82.3544,66.9005 95.5,64.5C 101.487,63.2159 107.487,63.2159 113.5,64.5 Z"/></g>
<g><path style="opacity:1" fill="#afafaf" d="M 113.5,64.5 C 133.5,63.1667 153.5,63.1667 173.5,64.5C 168.572,65.1278 163.905,66.6278 159.5,69C 153.727,72.9364 148.394,77.4364 143.5,82.5C 135.73,72.9418 125.73,66.9418 113.5,64.5 Z"/></g>
<g><path style="opacity:1" fill="#b2b2b2" d="M 191.5,64.5 C 209.993,63.5031 228.659,63.1698 247.5,63.5C 247.5,124.833 247.5,186.167 247.5,247.5C 186.167,247.5 124.833,247.5 63.5,247.5C 63.1685,215.996 63.5018,184.662 64.5,153.5C 68.2999,162.433 73.1332,170.767 79,178.5C 97.0704,200.249 118.404,217.916 143,231.5C 146.066,230.979 148.899,229.979 151.5,228.5C 160.28,232.772 168.946,232.272 177.5,227C 194.626,214.874 209.46,200.374 222,183.5C 231.409,170.273 237.075,155.606 239,139.5C 240.791,126.262 237.957,114.262 230.5,103.5C 225.81,82.1437 212.81,69.1437 191.5,64.5 Z"/></g>
<g><path style="opacity:1" fill="#b1b1b1" d="M 356.5,64.5 C 318.622,71.3779 295.955,93.7113 288.5,131.5C 287.503,109.006 287.169,86.3395 287.5,63.5C 310.673,63.1692 333.673,63.5025 356.5,64.5 Z"/></g>
<g><path style="opacity:1" fill="#212020" d="M 378.5,64.5 C 401.833,67.9881 420.167,79.3215 433.5,98.5C 450.064,124.35 451.898,151.35 439,179.5C 419.315,213.589 389.815,227.756 350.5,222C 340.303,219.661 330.969,215.494 322.5,209.5C 303.324,196.173 291.991,177.84 288.5,154.5C 287.307,146.817 287.307,139.151 288.5,131.5C 295.955,93.7113 318.622,71.3779 356.5,64.5C 363.804,63.353 371.138,63.353 378.5,64.5 Z"/></g>
<g><path style="opacity:1" fill="#b2b2b2" d="M 378.5,64.5 C 409.329,63.5018 440.329,63.1685 471.5,63.5C 471.5,124.833 471.5,186.167 471.5,247.5C 410.167,247.5 348.833,247.5 287.5,247.5C 287.169,216.329 287.502,185.329 288.5,154.5C 291.991,177.84 303.324,196.173 322.5,209.5C 323.526,212.372 325.192,214.872 327.5,217C 356.688,242.407 388.688,246.407 423.5,229C 456.246,207.473 468.746,177.306 461,138.5C 457.244,125.647 450.91,114.313 442,104.5C 439.721,101.619 436.888,99.6194 433.5,98.5C 420.167,79.3215 401.833,67.9881 378.5,64.5 Z"/></g>
<g><path style="opacity:1" fill="#ed7eaa" d="M 188.5,80.5 C 192.16,93.4017 192.493,106.402 189.5,119.5C 187.771,120.117 186.271,121.117 185,122.5C 180.42,133.33 174.086,142.997 166,151.5C 164.304,154.119 164.137,156.786 165.5,159.5C 165.85,162.453 164.85,164.787 162.5,166.5C 159.741,164.707 156.741,164.207 153.5,165C 147.709,169.122 142.209,173.622 137,178.5C 135.182,181.416 135.016,184.416 136.5,187.5C 136.079,189.91 134.746,191.743 132.5,193C 129.233,195.135 125.899,196.969 122.5,198.5C 98.7065,181.59 82.2065,159.257 73,131.5C 69.7316,117.812 71.3983,104.812 78,92.5C 92.2736,77.3241 108.107,75.4907 125.5,87C 130.356,91.8801 134.356,97.3801 137.5,103.5C 140.396,106.779 143.73,107.279 147.5,105C 151.122,100.255 154.622,95.4218 158,90.5C 166.219,81.0377 176.386,77.7044 188.5,80.5 Z"/></g>
<g><path style="opacity:1" fill="#b05e7e" d="M 188.5,80.5 C 203.6,83.7692 212.433,93.1025 215,108.5C 217.162,125.521 213.495,141.187 204,155.5C 188.548,179.786 168.381,199.119 143.5,213.5C 136.18,208.831 129.18,203.831 122.5,198.5C 125.899,196.969 129.233,195.135 132.5,193C 134.746,191.743 136.079,189.91 136.5,187.5C 139.669,191.644 143.669,192.477 148.5,190C 153.634,185.867 158.468,181.367 163,176.5C 165.009,173.05 164.842,169.717 162.5,166.5C 164.85,164.787 165.85,162.453 165.5,159.5C 168.205,163.17 171.872,164.337 176.5,163C 187.313,153.207 194.98,141.373 199.5,127.5C 198.88,121.553 195.546,118.887 189.5,119.5C 192.493,106.402 192.16,93.4017 188.5,80.5 Z"/></g>
<g><path style="opacity:1" fill="#693c28" d="M 349.5,81.5 C 379.063,79.9218 397.896,93.2552 406,121.5C 408.256,160.249 390.423,175.749 352.5,168C 338.403,160.746 332.903,149.246 336,133.5C 341.848,118.564 351.848,114.564 366,121.5C 369.494,126.533 369.327,131.367 365.5,136C 357.63,137.685 355.463,142.185 359,149.5C 360.793,150.97 362.793,151.97 365,152.5C 381.102,148.359 387.435,138.026 384,121.5C 377.337,106.582 365.837,100.082 349.5,102C 326.291,109.903 316.457,126.07 320,150.5C 326.562,173.881 342.062,185.881 366.5,186.5C 395.419,187.076 413.586,173.41 421,145.5C 422.351,137.203 422.684,128.87 422,120.5C 420.628,115.074 419.294,109.741 418,104.5C 433.577,126.232 435.577,149.232 424,173.5C 409.284,198.276 387.45,209.443 358.5,207C 320.126,197.61 301.959,173.11 304,133.5C 309.457,107.551 324.623,90.2173 349.5,81.5 Z"/></g>
<g><path style="opacity:1" fill="#f4b1cc" d="M 96.5,91.5 C 106.854,92.3448 113.02,98.0114 115,108.5C 116.667,117.498 115,125.831 110,133.5C 101.678,141.911 94.0114,141.245 87,131.5C 82.3333,120.833 82.3333,110.167 87,99.5C 89.7348,96.2308 92.9014,93.5641 96.5,91.5 Z"/></g>
<g><path style="opacity:1" fill="#7f7f7f" d="M 433.5,98.5 C 436.888,99.6194 439.721,101.619 442,104.5C 450.91,114.313 457.244,125.647 461,138.5C 468.746,177.306 456.246,207.473 423.5,229C 388.688,246.407 356.688,242.407 327.5,217C 325.192,214.872 323.526,212.372 322.5,209.5C 330.969,215.494 340.303,219.661 350.5,222C 389.815,227.756 419.315,213.589 439,179.5C 451.898,151.35 450.064,124.35 433.5,98.5 Z"/></g>
<g><path style="opacity:1" fill="#7f7f7f" d="M 230.5,103.5 C 237.957,114.262 240.791,126.262 239,139.5C 237.075,155.606 231.409,170.273 222,183.5C 209.46,200.374 194.626,214.874 177.5,227C 168.946,232.272 160.28,232.772 151.5,228.5C 165.825,218.649 179.492,207.816 192.5,196C 205.919,182.336 216.753,166.836 225,149.5C 231.207,134.702 233.041,119.368 230.5,103.5 Z"/></g>
<g><path style="opacity:1" fill="#232122" d="M 189.5,119.5 C 195.546,118.887 198.88,121.553 199.5,127.5C 194.98,141.373 187.313,153.207 176.5,163C 171.872,164.337 168.205,163.17 165.5,159.5C 164.137,156.786 164.304,154.119 166,151.5C 174.086,142.997 180.42,133.33 185,122.5C 186.271,121.117 187.771,120.117 189.5,119.5 Z"/></g>
<g><path style="opacity:1" fill="#232122" d="M 162.5,166.5 C 164.842,169.717 165.009,173.05 163,176.5C 158.468,181.367 153.634,185.867 148.5,190C 143.669,192.477 139.669,191.644 136.5,187.5C 135.016,184.416 135.182,181.416 137,178.5C 142.209,173.622 147.709,169.122 153.5,165C 156.741,164.207 159.741,164.707 162.5,166.5 Z"/></g>
<g><path style="opacity:1" fill="#7f7f7f" d="M 247.5,287.5 C 215.996,287.168 184.662,287.502 153.5,288.5C 130.748,275.201 108.081,275.201 85.5,288.5C 78.3524,287.508 71.0191,287.175 63.5,287.5C 63.175,295.019 63.5084,302.352 64.5,309.5C 51.1756,332.099 51.1756,354.766 64.5,377.5C 63.5018,408.662 63.1685,439.996 63.5,471.5C 57.1579,471.666 50.8246,471.5 44.5,471C 41.8981,470.065 40.3981,468.232 40,465.5C 39.5,398.167 39.3333,330.834 39.5,263.5C 108.833,263.5 178.167,263.5 247.5,263.5C 247.5,271.5 247.5,279.5 247.5,287.5 Z"/></g>
<g><path style="opacity:1" fill="#7f7f7f" d="M 471.5,287.5 C 452.659,287.17 433.993,287.503 415.5,288.5C 409.479,287.274 403.479,287.274 397.5,288.5C 377.5,287.167 357.5,287.167 337.5,288.5C 331.479,287.274 325.479,287.274 319.5,288.5C 309.013,287.506 298.346,287.172 287.5,287.5C 287.175,294.687 287.509,301.687 288.5,308.5C 282.238,318.543 279.238,329.543 279.5,341.5C 279.328,354.648 282.328,366.981 288.5,378.5C 287.502,409.329 287.169,440.329 287.5,471.5C 279.5,471.5 271.5,471.5 263.5,471.5C 263.5,402.167 263.5,332.833 263.5,263.5C 332.833,263.5 402.167,263.5 471.5,263.5C 471.5,271.5 471.5,279.5 471.5,287.5 Z"/></g>
<g><path style="opacity:1" fill="#212120" d="M 153.5,288.5 C 156.621,290.448 159.621,292.615 162.5,295C 180.333,312.833 198.167,330.667 216,348.5C 223.486,356.805 228.319,366.472 230.5,377.5C 235.094,404.554 226.761,426.72 205.5,444C 190.311,454.13 173.644,457.963 155.5,455.5C 143.794,452.98 133.461,447.814 124.5,440C 106.667,422.167 88.8333,404.333 71,386.5C 68.6148,383.621 66.4482,380.621 64.5,377.5C 51.1756,354.766 51.1756,332.099 64.5,309.5C 69.8333,300.833 76.8333,293.833 85.5,288.5C 108.081,275.201 130.748,275.201 153.5,288.5 Z"/></g>
<g><path style="opacity:1" fill="#b0b0b0" d="M 85.5,288.5 C 76.8333,293.833 69.8333,300.833 64.5,309.5C 63.5084,302.352 63.175,295.019 63.5,287.5C 71.0191,287.175 78.3524,287.508 85.5,288.5 Z"/></g>
<g><path style="opacity:1" fill="#b2b2b2" d="M 153.5,288.5 C 184.662,287.502 215.996,287.168 247.5,287.5C 247.5,348.833 247.5,410.167 247.5,471.5C 186.167,471.5 124.833,471.5 63.5,471.5C 63.1685,439.996 63.5018,408.662 64.5,377.5C 66.4482,380.621 68.6148,383.621 71,386.5C 88.8333,404.333 106.667,422.167 124.5,440C 133.461,447.814 143.794,452.98 155.5,455.5C 159.561,458.7 164.228,460.867 169.5,462C 192.29,466.07 211.457,459.57 227,442.5C 239.877,424.574 242.543,405.241 235,384.5C 233.974,381.761 232.474,379.428 230.5,377.5C 228.319,366.472 223.486,356.805 216,348.5C 198.167,330.667 180.333,312.833 162.5,295C 159.621,292.615 156.621,290.448 153.5,288.5 Z"/></g>
<g><path style="opacity:1" fill="#b1b1b1" d="M 319.5,288.5 C 306.354,290.9 296.021,297.567 288.5,308.5C 287.509,301.687 287.175,294.687 287.5,287.5C 298.346,287.172 309.013,287.506 319.5,288.5 Z"/></g>
<g><path style="opacity:1" fill="#212121" d="M 337.5,288.5 C 343.543,289.572 349.21,291.738 354.5,295C 358.982,298.647 363.315,302.481 367.5,306.5C 375.321,296.92 385.321,290.92 397.5,288.5C 403.479,287.274 409.479,287.274 415.5,288.5C 436.823,293.157 449.823,306.157 454.5,327.5C 456.459,340.36 455.626,353.027 452,365.5C 443.878,387.279 431.378,406.113 414.5,422C 401.218,433.13 387.552,443.63 373.5,453.5C 369.909,455.72 366.243,455.887 362.5,454C 344.847,442.354 328.347,429.187 313,414.5C 303.439,403.441 295.272,391.441 288.5,378.5C 282.328,366.981 279.328,354.648 279.5,341.5C 279.238,329.543 282.238,318.543 288.5,308.5C 296.021,297.567 306.354,290.9 319.5,288.5C 325.479,287.274 331.479,287.274 337.5,288.5 Z"/></g>
<g><path style="opacity:1" fill="#afafaf" d="M 337.5,288.5 C 357.5,287.167 377.5,287.167 397.5,288.5C 385.321,290.92 375.321,296.92 367.5,306.5C 363.315,302.481 358.982,298.647 354.5,295C 349.21,291.738 343.543,289.572 337.5,288.5 Z"/></g>
<g><path style="opacity:1" fill="#b2b2b2" d="M 415.5,288.5 C 433.993,287.503 452.659,287.17 471.5,287.5C 471.989,347.892 471.489,408.225 470,468.5C 468.829,469.893 467.329,470.727 465.5,471C 406.168,471.5 346.834,471.667 287.5,471.5C 287.169,440.329 287.502,409.329 288.5,378.5C 295.272,391.441 303.439,403.441 313,414.5C 328.347,429.187 344.847,442.354 362.5,454C 366.243,455.887 369.909,455.72 373.5,453.5C 383.203,456.785 392.537,455.951 401.5,451C 425.732,434.773 444.232,413.606 457,387.5C 464.367,370.862 465.367,353.862 460,336.5C 458.643,333.102 456.81,330.102 454.5,327.5C 449.823,306.157 436.823,293.157 415.5,288.5 Z"/></g>
<g><path style="opacity:1" fill="#643811" d="M 111.5,295.5 C 124.526,294.288 136.526,297.121 147.5,304C 125,326.5 102.5,349 80,371.5C 66.0251,347.158 69.1918,325.325 89.5,306C 96.2662,301.115 103.6,297.615 111.5,295.5 Z"/></g>
<g><path style="opacity:1" fill="#db4a83" d="M 412.5,304.5 C 416.159,317.396 416.492,330.396 413.5,343.5C 411.771,344.117 410.271,345.117 409,346.5C 404.42,357.33 398.086,366.997 390,375.5C 387.991,378.95 388.158,382.283 390.5,385.5C 389.194,387.473 387.527,389.139 385.5,390.5C 383.074,388.782 380.407,388.282 377.5,389C 371.021,393.481 365.188,398.648 360,404.5C 359.398,407.221 359.565,409.887 360.5,412.5C 356.645,417.03 351.978,420.363 346.5,422.5C 321.305,404.801 304.472,381.135 296,351.5C 293.929,339.094 295.929,327.427 302,316.5C 316.303,301.349 332.137,299.515 349.5,311C 353.774,315.274 357.274,320.107 360,325.5C 362.756,330.447 366.59,331.613 371.5,329C 375.036,324.763 378.202,320.263 381,315.5C 389.326,305.413 399.826,301.746 412.5,304.5 Z"/></g>
<g><path style="opacity:1" fill="#a43762" d="M 412.5,304.5 C 427.6,307.769 436.433,317.103 439,332.5C 440.71,349.382 437.043,365.049 428,379.5C 412.548,403.786 392.381,423.119 367.5,437.5C 360.18,432.831 353.18,427.831 346.5,422.5C 351.978,420.363 356.645,417.03 360.5,412.5C 363.34,415.143 366.673,415.976 370.5,415C 376.593,410.911 382.093,406.078 387,400.5C 387.963,396.851 387.463,393.518 385.5,390.5C 387.527,389.139 389.194,387.473 390.5,385.5C 393.594,387.347 396.928,387.847 400.5,387C 411.313,377.207 418.98,365.373 423.5,351.5C 422.88,345.553 419.546,342.887 413.5,343.5C 416.492,330.396 416.159,317.396 412.5,304.5 Z"/></g>
<g><path style="opacity:1" fill="#9e6f44" d="M 158.5,315.5 C 163.072,318.563 167.239,322.23 171,326.5C 171.667,327.167 171.667,327.833 171,328.5C 148.833,350.667 126.667,372.833 104.5,395C 103.833,395.667 103.167,395.667 102.5,395C 99,391.5 95.5,388 92,384.5C 91.3333,383.833 91.3333,383.167 92,382.5C 114.368,360.299 136.535,337.965 158.5,315.5 Z"/></g>
<g><path style="opacity:1" fill="#ea91b4" d="M 320.5,315.5 C 330.871,316.363 337.037,322.03 339,332.5C 340.35,341.433 338.684,349.766 334,357.5C 325.678,365.911 318.011,365.245 311,355.5C 306.333,344.833 306.333,334.167 311,323.5C 313.772,320.217 316.939,317.55 320.5,315.5 Z"/></g>
<g><path style="opacity:1" fill="#7f7f7f" d="M 454.5,327.5 C 456.81,330.102 458.643,333.102 460,336.5C 465.367,353.862 464.367,370.862 457,387.5C 444.232,413.606 425.732,434.773 401.5,451C 392.537,455.951 383.203,456.785 373.5,453.5C 387.552,443.63 401.218,433.13 414.5,422C 431.378,406.113 443.878,387.279 452,365.5C 455.626,353.027 456.459,340.36 454.5,327.5 Z"/></g>
<g><path style="opacity:1" fill="#864b16" d="M 182.5,339.5 C 187.072,342.563 191.239,346.23 195,350.5C 195.667,351.167 195.667,351.833 195,352.5C 172.833,374.667 150.667,396.833 128.5,419C 127.833,419.667 127.167,419.667 126.5,419C 123,415.5 119.5,412 116,408.5C 115.333,407.833 115.333,407.167 116,406.5C 138.368,384.299 160.535,361.965 182.5,339.5 Z"/></g>
<g><path style="opacity:1" fill="#232021" d="M 413.5,343.5 C 419.546,342.887 422.88,345.553 423.5,351.5C 418.98,365.373 411.313,377.207 400.5,387C 396.928,387.847 393.594,387.347 390.5,385.5C 388.158,382.283 387.991,378.95 390,375.5C 398.086,366.997 404.42,357.33 409,346.5C 410.271,345.117 411.771,344.117 413.5,343.5 Z"/></g>
<g><path style="opacity:1" fill="#643811" d="M 206.5,363.5 C 215.328,375.507 217.828,388.841 214,403.5C 204.537,429.322 186.037,441.155 158.5,439C 151.574,437.693 145.24,435.026 139.5,431C 162.035,408.632 184.368,386.132 206.5,363.5 Z"/></g>
<g><path style="opacity:1" fill="#7f7f7f" d="M 230.5,377.5 C 232.474,379.428 233.974,381.761 235,384.5C 242.543,405.241 239.877,424.574 227,442.5C 211.457,459.57 192.29,466.07 169.5,462C 164.228,460.867 159.561,458.7 155.5,455.5C 173.644,457.963 190.311,454.13 205.5,444C 226.761,426.72 235.094,404.554 230.5,377.5 Z"/></g>
<g><path style="opacity:1" fill="#232021" d="M 385.5,390.5 C 387.463,393.518 387.963,396.851 387,400.5C 382.093,406.078 376.593,410.911 370.5,415C 366.673,415.976 363.34,415.143 360.5,412.5C 359.565,409.887 359.398,407.221 360,404.5C 365.188,398.648 371.021,393.481 377.5,389C 380.407,388.282 383.074,388.782 385.5,390.5 Z"/></g>
</svg>
