<?xml version="1.0" encoding="UTF-8"?>
<!DOCTYPE svg PUBLIC "-//W3C//DTD SVG 1.1//EN" "http://www.w3.org/Graphics/SVG/1.1/DTD/svg11.dtd">
<svg xmlns="http://www.w3.org/2000/svg" version="1.1" width="512px" height="512px" style="shape-rendering:geometricPrecision; text-rendering:geometricPrecision; image-rendering:optimizeQuality; fill-rule:evenodd; clip-rule:evenodd" xmlns:xlink="http://www.w3.org/1999/xlink">
<g><path style="opacity:0.982" fill="#111016" d="M 511.5,370.5 C 511.5,376.167 511.5,381.833 511.5,387.5C 509.455,395.401 505.455,402.234 499.5,408C 493.444,412.696 486.777,416.363 479.5,419C 452.977,429.396 426.311,439.396 399.5,449C 349.667,460.917 299.667,461.583 249.5,451C 235.385,446.219 225.885,436.719 221,422.5C 194.425,436.693 166.258,446.526 136.5,452C 101.263,455.839 65.9298,457.839 30.5,458C 20.3822,456.019 12.2156,450.852 6,442.5C 3.33271,437.966 1.16604,433.3 -0.5,428.5C -0.5,417.5 -0.5,406.5 -0.5,395.5C -0.427713,281.687 44.239,189.853 133.5,120C 195.035,73.2693 264.702,50.936 342.5,53C 391.333,45.8333 412.167,66.6667 405,115.5C 403.445,135.485 402.112,155.485 401,175.5C 399.725,186.876 397.558,198.043 394.5,209C 424.532,231.697 449.698,258.863 470,290.5C 480.825,311.487 492.159,332.154 504,352.5C 506.834,358.485 509.334,364.485 511.5,370.5 Z"/></g>
<g><path style="opacity:1" fill="#ae4545" d="M 371.5,67.5 C 364.937,105.52 353.937,142.187 338.5,177.5C 327.036,176.626 316.369,179.126 306.5,185C 282.793,201.276 264.293,222.109 251,247.5C 244.454,259.924 238.454,272.591 233,285.5C 228.473,280.973 223.973,276.473 219.5,272C 211.667,270.5 208.5,273.667 210,281.5C 216.221,288.051 222.055,294.884 227.5,302C 225.652,306.708 224.319,311.541 223.5,316.5C 160.943,356.976 92.2768,375.643 17.5,372.5C 17.5,368.167 17.5,363.833 17.5,359.5C 17.2388,351.417 17.9055,343.417 19.5,335.5C 22.8025,340.603 26.4691,345.436 30.5,350C 38.6603,352.178 42.1603,349.011 41,340.5C 33.8315,332.155 27.6648,323.155 22.5,313.5C 47.4646,220.715 101.798,150.882 185.5,104C 209.743,90.4772 235.41,81.1439 262.5,76C 270.722,81.7319 279.055,87.2319 287.5,92.5C 293.648,91.8566 296.148,88.5233 295,82.5C 290.926,78.8811 286.759,75.3811 282.5,72C 304.537,70.8755 326.537,69.2089 348.5,67C 356.215,66.2332 363.882,66.3999 371.5,67.5 Z"/></g>
<g><path style="opacity:1" fill="#9e3f3f" d="M 371.5,67.5 C 381.446,70.279 387.946,76.6124 391,86.5C 389.809,115.841 388.142,145.175 386,174.5C 385.146,183.349 383.479,192.015 381,200.5C 367.851,190.844 353.684,183.177 338.5,177.5C 353.937,142.187 364.937,105.52 371.5,67.5 Z"/></g>
<g><path style="opacity:1" fill="#131116" d="M 220.5,121.5 C 223.32,121.248 225.986,121.748 228.5,123C 240.167,133.333 251.833,143.667 263.5,154C 268.741,158.463 268.741,162.796 263.5,167C 261.167,167.667 258.833,167.667 256.5,167C 243.667,155.5 230.833,144 218,132.5C 215.584,128.078 216.417,124.411 220.5,121.5 Z"/></g>
<g><path style="opacity:1" fill="#fddb6d" d="M 326.5,191.5 C 339.103,189.885 348.603,194.552 355,205.5C 363.68,224.594 366.68,244.594 364,265.5C 358.509,314.456 341.843,359.122 314,399.5C 304.417,412.418 292.917,423.252 279.5,432C 271.426,436.804 262.759,438.471 253.5,437C 246.481,434.649 241.314,430.149 238,423.5C 228.618,401.361 225.952,378.361 230,354.5C 236.398,309.62 252.398,268.62 278,231.5C 287.873,218.627 299.373,207.46 312.5,198C 317.137,195.511 321.804,193.344 326.5,191.5 Z"/></g>
<g><path style="opacity:1" fill="#c36460" d="M 488.5,356.5 C 486.761,359.41 484.428,361.91 481.5,364C 436.842,397.338 387.508,408.172 333.5,396.5C 364.489,347.019 379.323,293.019 378,234.5C 376.907,227.04 375.573,219.706 374,212.5C 408.471,235.303 436.471,264.303 458,299.5C 468.192,318.554 478.358,337.554 488.5,356.5 Z"/></g>
<g><path style="opacity:1" fill="#131116" d="M 100.5,255.5 C 102.989,255.298 105.323,255.798 107.5,257C 119.97,270.471 132.804,283.638 146,296.5C 147.955,304.791 144.788,308.291 136.5,307C 122.971,293.805 109.804,280.305 97,266.5C 95.6631,261.872 96.8298,258.205 100.5,255.5 Z"/></g>
<g><path style="opacity:1" fill="#9e3f3f" d="M 223.5,316.5 C 214.31,345.822 212.31,375.656 217.5,406C 215.946,409.444 213.279,410.777 209.5,410C 191.956,397.39 174.956,384.057 158.5,370C 149.315,368.182 146.148,371.682 149,380.5C 164.258,393.762 180.092,406.262 196.5,418C 173.012,427.955 148.678,434.955 123.5,439C 99.796,440.136 76.1293,441.802 52.5,444C 38.7034,447.509 27.2034,444.009 18,433.5C 16.0728,430.052 14.7394,426.385 14,422.5C 14.2356,401.309 15.4022,380.309 17.5,359.5C 17.5,363.833 17.5,368.167 17.5,372.5C 92.2768,375.643 160.943,356.976 223.5,316.5 Z"/></g>
<g><path style="opacity:1" fill="#b05b57" d="M 488.5,356.5 C 503.485,378.358 498.819,394.525 474.5,405C 446.955,415.736 419.288,426.07 391.5,436C 357.728,444.119 323.728,446.119 289.5,442C 299.019,436.141 307.519,428.974 315,420.5C 321.429,412.612 327.595,404.612 333.5,396.5C 387.508,408.172 436.842,397.338 481.5,364C 484.428,361.91 486.761,359.41 488.5,356.5 Z"/></g>
</svg>
