<?xml version="1.0" encoding="UTF-8"?>
<!DOCTYPE svg PUBLIC "-//W3C//DTD SVG 1.1//EN" "http://www.w3.org/Graphics/SVG/1.1/DTD/svg11.dtd">
<svg xmlns="http://www.w3.org/2000/svg" version="1.1" width="512px" height="512px" style="shape-rendering:geometricPrecision; text-rendering:geometricPrecision; image-rendering:optimizeQuality; fill-rule:evenodd; clip-rule:evenodd" xmlns:xlink="http://www.w3.org/1999/xlink">
<g><path style="opacity:0.967" fill="#010101" d="M 511.5,251.5 C 511.5,254.167 511.5,256.833 511.5,259.5C 506.603,263.89 501.27,267.723 495.5,271C 501.123,274.956 506.456,279.123 511.5,283.5C 511.5,286.167 511.5,288.833 511.5,291.5C 492.071,298.6 472.738,306.433 453.5,315C 425.218,326.404 395.884,333.404 365.5,336C 359.719,347.78 351.719,357.78 341.5,366C 337.979,368.615 334.312,368.949 330.5,367C 328.513,365.681 327.346,363.848 327,361.5C 327.384,355.86 327.384,350.194 327,344.5C 326.75,341.15 325.917,337.983 324.5,335C 293.293,332.965 262.626,327.799 232.5,319.5C 216.189,337.88 195.856,345.713 171.5,343C 167.723,340.089 166.556,336.256 168,331.5C 172.027,326.783 175.027,321.449 177,315.5C 177.947,310.96 177.447,306.626 175.5,302.5C 149.882,292.513 123.549,285.179 96.5,280.5C 94.8333,280.667 93.1667,280.833 91.5,281C 75.2444,303.257 56.2444,322.923 34.5,340C 27.4928,345.003 19.8262,348.67 11.5,351C 6.64268,352.407 2.64268,351.24 -0.5,347.5C -0.5,344.833 -0.5,342.167 -0.5,339.5C 14.028,318.458 26.528,296.125 37,272.5C 39.1579,265.391 38.8245,258.391 36,251.5C 25.602,228.99 13.4354,207.656 -0.5,187.5C -0.5,184.833 -0.5,182.167 -0.5,179.5C 1.42293,176.86 4.0896,175.193 7.5,174.5C 22.6603,178.844 35.9936,186.344 47.5,197C 55.3333,204.833 63.1667,212.667 71,220.5C 77.9534,228.909 84.7867,237.409 91.5,246C 103.722,245.615 115.722,243.615 127.5,240C 152.286,232.127 176.953,223.96 201.5,215.5C 205.599,201.625 202.433,189.625 192,179.5C 189.885,172.388 192.385,168.055 199.5,166.5C 213.642,168.572 225.976,174.405 236.5,184C 240,187.5 243.5,191 247,194.5C 255.7,185.561 265.867,178.727 277.5,174C 291.891,169.82 306.224,165.486 320.5,161C 327.781,157.386 333.448,152.052 337.5,145C 344.851,141.822 350.684,143.655 355,150.5C 363.487,162.799 367.654,176.466 367.5,191.5C 421.221,198.378 469.221,218.378 511.5,251.5 Z"/></g>
<g><path style="opacity:1" fill="#6b8892" d="M 342.5,164.5 C 343.496,164.414 344.329,164.748 345,165.5C 349.365,173.628 351.199,182.295 350.5,191.5C 322.258,191.917 294.258,194.417 266.5,199C 273.058,194.554 280.058,190.887 287.5,188C 300.257,184.644 312.924,180.977 325.5,177C 332.193,174.128 337.86,169.961 342.5,164.5 Z"/></g>
<g><path style="opacity:1" fill="#698690" d="M 218.5,191.5 C 224.507,195.851 230.174,200.685 235.5,206C 230.934,207.808 226.267,209.308 221.5,210.5C 220.855,204.082 219.855,197.749 218.5,191.5 Z"/></g>
<g><path style="opacity:1" fill="#71b2c5" d="M 485.5,257.5 C 475.656,256.702 465.656,256.036 455.5,255.5C 455.123,250.291 452.29,247.625 447,247.5C 443.15,247.854 440.65,249.854 439.5,253.5C 422.124,251.048 404.791,248.382 387.5,245.5C 388.074,241.675 389.241,238.009 391,234.5C 392.078,228.239 389.411,224.906 383,224.5C 380.594,224.703 378.594,225.703 377,227.5C 374.782,232.59 372.616,237.59 370.5,242.5C 359.668,241.55 349.002,241.55 338.5,242.5C 322.928,238.099 307.595,238.765 292.5,244.5C 290.866,243.839 289.033,243.506 287,243.5C 265.097,245.014 243.264,247.181 221.5,250C 184.863,255.282 148.196,260.282 111.5,265C 112.737,265.232 113.737,265.732 114.5,266.5C 108.889,265.304 103.222,264.304 97.5,263.5C 109.963,261.241 122.296,258.407 134.5,255C 169.315,243.172 204.315,232.172 239.5,222C 283.824,210.332 328.824,205.999 374.5,209C 416.11,215.982 454.11,231.482 488.5,255.5C 487.643,256.425 486.643,257.092 485.5,257.5 Z"/></g>
<g><path style="opacity:1" fill="#6b8892" d="M 31.5,205.5 C 48.9225,220.755 64.4225,237.755 78,256.5C 80.2047,259.04 82.7047,261.207 85.5,263C 77.0159,272.492 68.8492,282.325 61,292.5C 52.3162,302.684 42.8162,312.017 32.5,320.5C 32.1667,320.333 31.8333,320.167 31.5,320C 43.3751,302.589 51.3751,283.589 55.5,263C 54.5631,254.852 52.3965,247.019 49,239.5C 43.396,227.957 37.5627,216.623 31.5,205.5 Z"/></g>
<g><path style="opacity:1" fill="#020303" d="M 338.5,242.5 C 343.922,244.03 349.255,245.863 354.5,248C 361.154,252.951 361.154,257.951 354.5,263C 353.552,263.483 352.552,263.649 351.5,263.5C 343.411,260.305 335.078,257.805 326.5,256C 319.418,255.116 312.418,255.449 305.5,257C 315.002,262.919 324.669,268.586 334.5,274C 337.5,274.667 340.5,274.667 343.5,274C 346.096,272.864 348.763,272.031 351.5,271.5C 360.865,274.823 361.865,279.99 354.5,287C 345.301,291.139 335.967,291.473 326.5,288C 311.166,279.335 296.166,270.169 281.5,260.5C 279.031,257.326 278.864,253.993 281,250.5C 284.493,247.837 288.327,245.837 292.5,244.5C 307.595,238.765 322.928,238.099 338.5,242.5 Z"/></g>
<g><path style="opacity:1" fill="#8fd5cb" d="M 338.5,242.5 C 349.002,241.55 359.668,241.55 370.5,242.5C 367.637,256.338 366.803,270.338 368,284.5C 369.015,288.895 370.182,293.229 371.5,297.5C 344.896,302.429 318.563,301.262 292.5,294C 284.489,291.33 276.489,288.663 268.5,286C 249.176,281.438 229.843,281.438 210.5,286C 205.103,287.087 200.103,288.92 195.5,291.5C 168.783,282.149 141.783,273.816 114.5,266.5C 113.737,265.732 112.737,265.232 111.5,265C 148.196,260.282 184.863,255.282 221.5,250C 243.264,247.181 265.097,245.014 287,243.5C 289.033,243.506 290.866,243.839 292.5,244.5C 288.327,245.837 284.493,247.837 281,250.5C 278.864,253.993 279.031,257.326 281.5,260.5C 296.166,270.169 311.166,279.335 326.5,288C 335.967,291.473 345.301,291.139 354.5,287C 361.865,279.99 360.865,274.823 351.5,271.5C 351.5,268.833 351.5,266.167 351.5,263.5C 352.552,263.649 353.552,263.483 354.5,263C 361.154,257.951 361.154,252.951 354.5,248C 349.255,245.863 343.922,244.03 338.5,242.5 Z"/></g>
<g><path style="opacity:1" fill="#90d5cb" d="M 387.5,245.5 C 404.791,248.382 422.124,251.048 439.5,253.5C 439.315,259.136 441.982,262.47 447.5,263.5C 452.177,262.823 454.844,260.156 455.5,255.5C 465.656,256.036 475.656,256.702 485.5,257.5C 482.011,260.137 478.345,262.637 474.5,265C 471.191,268.077 470.691,271.577 473,275.5C 476.408,278.453 479.908,281.287 483.5,284C 457.998,296.085 431.665,305.919 404.5,313.5C 388.94,303.042 381.94,288.375 383.5,269.5C 382.784,261.025 384.117,253.025 387.5,245.5 Z"/></g>
<g><path style="opacity:1" fill="#090d0d" d="M 455.5,255.5 C 454.844,260.156 452.177,262.823 447.5,263.5C 441.982,262.47 439.315,259.136 439.5,253.5C 440.65,249.854 443.15,247.854 447,247.5C 452.29,247.625 455.123,250.291 455.5,255.5 Z"/></g>
<g><path style="opacity:1" fill="#6b8993" d="M 351.5,263.5 C 351.5,266.167 351.5,268.833 351.5,271.5C 348.763,272.031 346.096,272.864 343.5,274C 340.5,274.667 337.5,274.667 334.5,274C 324.669,268.586 315.002,262.919 305.5,257C 312.418,255.449 319.418,255.116 326.5,256C 335.078,257.805 343.411,260.305 351.5,263.5 Z"/></g>
<g><path style="opacity:1" fill="#b4e3e4" d="M 371.5,297.5 C 374.347,304.692 378.347,311.192 383.5,317C 332.318,321.54 281.984,316.874 232.5,303C 220.042,299.458 207.709,295.624 195.5,291.5C 200.103,288.92 205.103,287.087 210.5,286C 229.843,281.438 249.176,281.438 268.5,286C 276.489,288.663 284.489,291.33 292.5,294C 318.563,301.262 344.896,302.429 371.5,297.5 Z"/></g>
<g><path style="opacity:1" fill="#698690" d="M 193.5,307.5 C 200.164,309.832 206.83,312.166 213.5,314.5C 207.284,320.275 199.951,323.941 191.5,325.5C 193.066,319.616 193.732,313.616 193.5,307.5 Z"/></g>
<g><path style="opacity:1" fill="#5e7880" d="M 342.5,335.5 C 347.188,335.237 347.521,336.57 343.5,339.5C 342.571,338.311 342.238,336.978 342.5,335.5 Z"/></g>
</svg>
