<?xml version="1.0" encoding="UTF-8"?>
<!DOCTYPE svg PUBLIC "-//W3C//DTD SVG 1.1//EN" "http://www.w3.org/Graphics/SVG/1.1/DTD/svg11.dtd">
<svg xmlns="http://www.w3.org/2000/svg" version="1.1" width="512px" height="512px" style="shape-rendering:geometricPrecision; text-rendering:geometricPrecision; image-rendering:optimizeQuality; fill-rule:evenodd; clip-rule:evenodd" xmlns:xlink="http://www.w3.org/1999/xlink">
<g><path style="opacity:0.984" fill="#181814" d="M 511.5,149.5 C 511.5,154.167 511.5,158.833 511.5,163.5C 506.771,174.064 499.104,181.897 488.5,187C 471.315,195.395 453.315,201.395 434.5,205C 415.327,209.025 395.993,212.025 376.5,214C 361.976,224.769 346.309,233.769 329.5,241C 324.297,243.013 318.963,244.513 313.5,245.5C 303.004,244.513 298.171,238.846 299,228.5C 300.371,224.927 301.871,221.427 303.5,218C 289.5,217.333 275.5,217.333 261.5,218C 253.833,225 246.167,232 238.5,239C 235.55,240.65 232.383,241.483 229,241.5C 204.162,238.374 179.328,235.208 154.5,232C 144.538,228.907 141.371,222.407 145,212.5C 148.557,208.975 152.39,205.809 156.5,203C 143.386,200.014 130.553,196.181 118,191.5C 81.8565,213.27 42.6898,224.603 0.5,225.5C 0.737305,224.209 0.403972,223.209 -0.5,222.5C -0.5,215.833 -0.5,209.167 -0.5,202.5C 3.99464,183.814 13.9946,168.647 29.5,157C 13.9946,145.353 3.99464,130.186 -0.5,111.5C -0.5,104.833 -0.5,98.1667 -0.5,91.5C 0.403972,90.791 0.737305,89.791 0.5,88.5C 30.0341,88.4666 58.3674,94.2999 85.5,106C 96.5051,111.169 107.505,116.336 118.5,121.5C 131.662,117.21 144.995,113.543 158.5,110.5C 159.442,110.608 160.275,110.941 161,111.5C 161.505,113.518 162.005,115.518 162.5,117.5C 162.963,120.482 163.296,123.482 163.5,126.5C 138.454,130.348 115.12,138.848 93.5,152C 91.8757,153.117 90.8757,154.617 90.5,156.5C 91.8974,159.406 93.8974,161.906 96.5,164C 115.601,174.813 135.934,182.48 157.5,187C 185.457,193.732 213.791,197.899 242.5,199.5C 246.312,200.324 250.312,200.824 254.5,201C 286.18,201.822 317.847,201.489 349.5,200C 359.568,199.55 369.568,198.55 379.5,197C 377.963,195.293 376.296,193.793 374.5,192.5C 364.875,182.784 361.375,171.117 364,157.5C 367.218,145.011 371.718,133.011 377.5,121.5C 378.601,120.152 379.601,118.652 380.5,117C 339.453,111.635 298.453,110.468 257.5,113.5C 231.097,114.99 204.931,117.99 179,122.5C 178.721,119.543 177.887,116.877 176.5,114.5C 175.908,111.873 175.575,109.206 175.5,106.5C 192.239,104.109 208.905,101.443 225.5,98.5C 231.333,88.1667 237.167,77.8333 243,67.5C 248.94,58.9495 257.107,55.4495 267.5,57C 295.068,69.7838 322.402,83.1171 349.5,97C 385.328,99.5945 420.661,105.261 455.5,114C 471.28,118.365 485.947,125.031 499.5,134C 504.609,138.423 508.609,143.59 511.5,149.5 Z"/></g>
<g><path style="opacity:1" fill="#a2a0a2" d="M 259.5,72.5 C 261.527,72.3379 263.527,72.5045 265.5,73C 280.833,80.6667 296.167,88.3333 311.5,96C 289.5,96.6667 267.5,96.6667 245.5,96C 249.8,87.891 254.467,80.0577 259.5,72.5 Z"/></g>
<g><path style="opacity:1" fill="#797778" d="M 87.5,137.5 C 65.5239,129.338 42.8572,123.338 19.5,119.5C 16.9482,114.842 15.6149,109.842 15.5,104.5C 44.8117,107.937 72.4784,116.604 98.5,130.5C 94.6358,132.594 90.9692,134.928 87.5,137.5 Z"/></g>
<g><path style="opacity:1" fill="#706e6f" d="M 377.5,121.5 C 375.189,119.932 372.522,119.098 369.5,119C 332.272,114.995 294.939,113.162 257.5,113.5C 298.453,110.468 339.453,111.635 380.5,117C 379.601,118.652 378.601,120.152 377.5,121.5 Z"/></g>
<g><path style="opacity:1" fill="#a3a1a3" d="M 257.5,113.5 C 294.939,113.162 332.272,114.995 369.5,119C 372.522,119.098 375.189,119.932 377.5,121.5C 371.718,133.011 367.218,145.011 364,157.5C 361.375,171.117 364.875,182.784 374.5,192.5C 373.666,193.748 372.333,194.415 370.5,194.5C 327.951,198.946 285.285,200.613 242.5,199.5C 213.791,197.899 185.457,193.732 157.5,187C 135.934,182.48 115.601,174.813 96.5,164C 93.8974,161.906 91.8974,159.406 90.5,156.5C 90.8757,154.617 91.8757,153.117 93.5,152C 115.12,138.848 138.454,130.348 163.5,126.5C 163.296,123.482 162.963,120.482 162.5,117.5C 167.171,116.499 171.838,115.499 176.5,114.5C 177.887,116.877 178.721,119.543 179,122.5C 204.931,117.99 231.097,114.99 257.5,113.5 Z"/></g>
<g><path style="opacity:1" fill="#7a7879" d="M 397.5,190.5 C 421.649,187.972 444.649,181.472 466.5,171C 478.451,163.4 479.451,154.733 469.5,145C 456.975,137.712 443.642,132.379 429.5,129C 418.196,126.6 406.863,124.434 395.5,122.5C 395.572,120.689 396.405,119.356 398,118.5C 420.671,121.501 442.838,126.668 464.5,134C 475.837,137.414 485.671,143.247 494,151.5C 496.891,157.897 495.391,163.064 489.5,167C 475.995,175.841 461.329,182.175 445.5,186C 431.692,188.962 417.858,191.795 404,194.5C 401.406,193.715 399.239,192.382 397.5,190.5 Z"/></g>
<g><path style="opacity:1" fill="#a2a0a2" d="M 19.5,119.5 C 42.8572,123.338 65.5239,129.338 87.5,137.5C 70.6056,149.838 70.2722,162.505 86.5,175.5C 86.5299,176.497 86.0299,177.164 85,177.5C 63.6519,185.094 41.8186,190.761 19.5,194.5C 23.4213,185.197 29.4213,177.364 37.5,171C 44.328,166.085 51.328,161.419 58.5,157C 47.1607,150.74 36.994,142.907 28,133.5C 24.5168,129.193 21.6834,124.527 19.5,119.5 Z"/></g>
<g><path style="opacity:1" fill="#a2a0a2" d="M 395.5,122.5 C 406.863,124.434 418.196,126.6 429.5,129C 443.642,132.379 456.975,137.712 469.5,145C 479.451,154.733 478.451,163.4 466.5,171C 444.649,181.472 421.649,187.972 397.5,190.5C 386.728,185.795 380.395,177.628 378.5,166C 381.144,150.22 386.811,135.72 395.5,122.5 Z"/></g>
<g><path style="opacity:1" fill="#171813" d="M 409.5,133.5 C 415.167,133.5 420.833,133.5 426.5,133.5C 426.5,138.5 426.5,143.5 426.5,148.5C 420.833,148.5 415.167,148.5 409.5,148.5C 409.5,143.5 409.5,138.5 409.5,133.5 Z"/></g>
<g><path style="opacity:1" fill="#7a7879" d="M 86.5,175.5 C 90.4714,178.156 94.4714,180.823 98.5,183.5C 72.5678,197.701 44.9011,206.034 15.5,208.5C 15.6102,203.378 16.9436,198.712 19.5,194.5C 41.8186,190.761 63.6519,185.094 85,177.5C 86.0299,177.164 86.5299,176.497 86.5,175.5 Z"/></g>
<g><path style="opacity:1" fill="#7b797a" d="M 374.5,192.5 C 376.296,193.793 377.963,195.293 379.5,197C 369.568,198.55 359.568,199.55 349.5,200C 317.847,201.489 286.18,201.822 254.5,201C 250.312,200.824 246.312,200.324 242.5,199.5C 285.285,200.613 327.951,198.946 370.5,194.5C 372.333,194.415 373.666,193.748 374.5,192.5 Z"/></g>
<g><path style="opacity:1" fill="#9f9d9f" d="M 175.5,207.5 C 196.875,210.079 218.209,212.912 239.5,216C 236.089,220.598 231.756,223.765 226.5,225.5C 205.876,222.339 185.209,219.505 164.5,217C 168.359,213.968 172.026,210.802 175.5,207.5 Z"/></g>
<g><path style="opacity:1" fill="#9c9a9c" d="M 320.5,216.5 C 327.508,216.334 334.508,216.5 341.5,217C 333.633,222.286 325.299,225.786 316.5,227.5C 318.238,223.951 319.571,220.284 320.5,216.5 Z"/></g>
<g><path style="opacity:0.985" fill="#181814" d="M 511.5,358.5 C 511.5,363.167 511.5,367.833 511.5,372.5C 508.973,378.356 505.306,383.522 500.5,388C 486.482,397.672 471.149,404.672 454.5,409C 428.242,415.985 401.576,420.651 374.5,423C 356.587,438.374 336.087,448.874 313,454.5C 302.799,453.305 298.132,447.638 299,437.5C 300.371,433.927 301.871,430.427 303.5,427C 290.122,426.815 276.788,426.315 263.5,425.5C 255.017,432.815 246.684,440.315 238.5,448C 235.698,449.545 232.698,450.378 229.5,450.5C 203.448,447.327 177.448,443.827 151.5,440C 144.567,436.628 142.067,431.128 144,423.5C 147.167,419 151,415.167 155.5,412C 142.802,408.767 130.302,404.934 118,400.5C 81.8409,422.165 42.6742,433.499 0.5,434.5C 0.737305,433.209 0.403972,432.209 -0.5,431.5C -0.5,424.5 -0.5,417.5 -0.5,410.5C 4.4505,392.362 14.4505,377.528 29.5,366C 14.3251,354.125 4.32507,338.958 -0.5,320.5C -0.5,313.833 -0.5,307.167 -0.5,300.5C 0.403972,299.791 0.737305,298.791 0.5,297.5C 31.9273,297.356 61.9273,303.856 90.5,317C 99.9914,321.246 109.325,325.746 118.5,330.5C 153.49,319.635 189.157,311.969 225.5,307.5C 231.667,296.5 237.833,285.5 244,274.5C 250.528,267.101 258.694,264.268 268.5,266C 295.623,279.062 322.623,292.395 349.5,306C 390.01,308.363 429.677,315.363 468.5,327C 483.353,331.67 496.187,339.503 507,350.5C 508.274,353.391 509.774,356.058 511.5,358.5 Z"/></g>
<g><path style="opacity:1" fill="#a2a0a2" d="M 259.5,281.5 C 261.527,281.338 263.527,281.505 265.5,282C 280.833,289.667 296.167,297.333 311.5,305C 289.492,305.833 267.492,305.666 245.5,304.5C 249.927,296.639 254.593,288.972 259.5,281.5 Z"/></g>
<g><path style="opacity:1" fill="#797778" d="M 87.5,346.5 C 65.6939,337.713 43.0273,331.713 19.5,328.5C 17.2869,323.739 15.9536,318.739 15.5,313.5C 44.8863,316.762 72.553,325.428 98.5,339.5C 94.6358,341.594 90.9692,343.928 87.5,346.5 Z"/></g>
<g><path style="opacity:1" fill="#706f6f" d="M 378.5,328.5 C 335.997,323.412 293.33,321.412 250.5,322.5C 293.761,319.546 337.094,320.546 380.5,325.5C 380.058,326.739 379.391,327.739 378.5,328.5 Z"/></g>
<g><path style="opacity:1" fill="#a3a1a3" d="M 250.5,322.5 C 293.33,321.412 335.997,323.412 378.5,328.5C 373.656,338.192 369.49,348.192 366,358.5C 360.314,374.707 363.147,389.04 374.5,401.5C 372.695,403.197 370.361,404.03 367.5,404C 327.271,408.06 286.938,409.56 246.5,408.5C 199.983,406.595 154.983,397.428 111.5,381C 105.843,378.507 100.51,375.507 95.5,372C 93.2256,370.235 91.5589,368.068 90.5,365.5C 91.9416,362.223 94.275,359.723 97.5,358C 113.619,349.181 130.619,342.514 148.5,338C 182.021,329.662 216.021,324.496 250.5,322.5 Z"/></g>
<g><path style="opacity:1" fill="#7a7879" d="M 397.5,399.5 C 419.185,396.662 440.185,391.162 460.5,383C 465.554,380.611 470.054,377.445 474,373.5C 478.664,364.316 476.497,357.149 467.5,352C 444.658,341.123 420.658,334.289 395.5,331.5C 395.532,329.433 396.532,328.1 398.5,327.5C 422.134,330.393 445.134,335.893 467.5,344C 505.088,359.269 504.755,373.936 466.5,388C 446.645,394.88 426.312,399.714 405.5,402.5C 402.342,402.579 399.675,401.579 397.5,399.5 Z"/></g>
<g><path style="opacity:1" fill="#a2a0a2" d="M 19.5,328.5 C 43.0273,331.713 65.6939,337.713 87.5,346.5C 70.5349,358.738 70.2015,371.405 86.5,384.5C 85.9423,385.79 84.9423,386.623 83.5,387C 63.7608,393.81 43.5942,398.976 23,402.5C 21.9302,402.472 21.0968,402.139 20.5,401.5C 24.7422,392.74 30.7422,385.24 38.5,379C 44.8971,374.273 51.5637,369.94 58.5,366C 50.6588,360.913 42.9921,355.58 35.5,350C 28.769,343.784 23.4356,336.617 19.5,328.5 Z"/></g>
<g><path style="opacity:1" fill="#a2a0a2" d="M 395.5,331.5 C 420.658,334.289 444.658,341.123 467.5,352C 476.497,357.149 478.664,364.316 474,373.5C 470.054,377.445 465.554,380.611 460.5,383C 440.185,391.162 419.185,396.662 397.5,399.5C 378.635,390.074 373.802,375.741 383,356.5C 386.143,347.548 390.309,339.215 395.5,331.5 Z"/></g>
<g><path style="opacity:1" fill="#171813" d="M 409.5,342.5 C 415.167,342.5 420.833,342.5 426.5,342.5C 426.5,347.5 426.5,352.5 426.5,357.5C 420.833,357.5 415.167,357.5 409.5,357.5C 409.5,352.5 409.5,347.5 409.5,342.5 Z"/></g>
<g><path style="opacity:1" fill="#7a7879" d="M 86.5,384.5 C 90.3037,387.239 94.3037,389.739 98.5,392C 72.6011,406.244 44.9344,414.744 15.5,417.5C 15.5842,411.585 17.2508,406.252 20.5,401.5C 21.0968,402.139 21.9302,402.472 23,402.5C 43.5942,398.976 63.7608,393.81 83.5,387C 84.9423,386.623 85.9423,385.79 86.5,384.5 Z"/></g>
<g><path style="opacity:1" fill="#767475" d="M 374.5,401.5 C 376.296,402.793 377.963,404.293 379.5,406C 364.896,407.994 350.229,409.327 335.5,410C 309.167,410.667 282.833,410.667 256.5,410C 252.975,409.821 249.641,409.321 246.5,408.5C 286.938,409.56 327.271,408.06 367.5,404C 370.361,404.03 372.695,403.197 374.5,401.5 Z"/></g>
<g><path style="opacity:1" fill="#9f9d9e" d="M 176.5,415.5 C 197.391,419.155 218.391,422.155 239.5,424.5C 236.324,429.186 232.158,432.52 227,434.5C 206.196,431.503 185.363,428.669 164.5,426C 168.693,422.635 172.693,419.135 176.5,415.5 Z"/></g>
<g><path style="opacity:1" fill="#51504e" d="M 328.5,425.5 C 333.015,424.188 337.682,424.188 342.5,425.5C 342.376,426.107 342.043,426.44 341.5,426.5C 337.366,425.515 333.032,425.182 328.5,425.5 Z"/></g>
<g><path style="opacity:1" fill="#9c9a9c" d="M 328.5,425.5 C 333.032,425.182 337.366,425.515 341.5,426.5C 333.534,431.337 325.2,434.67 316.5,436.5C 318.029,433.246 319.362,429.913 320.5,426.5C 323.086,425.52 325.753,425.187 328.5,425.5 Z"/></g>
</svg>
