<?xml version="1.0" encoding="UTF-8"?>
<!DOCTYPE svg PUBLIC "-//W3C//DTD SVG 1.1//EN" "http://www.w3.org/Graphics/SVG/1.1/DTD/svg11.dtd">
<svg xmlns="http://www.w3.org/2000/svg" version="1.1" width="512px" height="512px" style="shape-rendering:geometricPrecision; text-rendering:geometricPrecision; image-rendering:optimizeQuality; fill-rule:evenodd; clip-rule:evenodd" xmlns:xlink="http://www.w3.org/1999/xlink">
<g><path style="opacity:0.979" fill="#000000" d="M 144.5,-0.5 C 162.5,-0.5 180.5,-0.5 198.5,-0.5C 201.139,1.30904 203.306,3.64238 205,6.5C 205.667,21.5 205.667,36.5 205,51.5C 204.047,53.4552 202.713,55.1218 201,56.5C 200.333,76.8333 200.333,97.1667 201,117.5C 201.888,137.609 206.222,156.943 214,175.5C 227.333,200.833 240.667,226.167 254,251.5C 255.741,256.054 257.074,260.721 258,265.5C 258.667,340.5 258.667,415.5 258,490.5C 254.224,501.111 247.057,508.111 236.5,511.5C 193.167,511.5 149.833,511.5 106.5,511.5C 95.508,508.007 88.3413,500.674 85,489.5C 84.3333,431.5 84.3333,373.5 85,315.5C 86.6379,313.266 88.8045,311.933 91.5,311.5C 93.3885,312.322 95.3885,313.155 97.5,314C 98.1258,314.75 98.6258,315.584 99,316.5C 99.3333,373.167 99.6667,429.833 100,486.5C 101.744,491.079 104.91,494.079 109.5,495.5C 150.665,496.665 191.998,496.831 233.5,496C 238,494.167 241.167,491 243,486.5C 243.667,414.167 243.667,341.833 243,269.5C 242.408,265.724 241.408,262.057 240,258.5C 227,233.833 214,209.167 201,184.5C 195.855,172.565 192.022,160.232 189.5,147.5C 177.5,147.5 165.5,147.5 153.5,147.5C 152.312,155.394 150.312,163.061 147.5,170.5C 142.502,183.499 136.669,196.166 130,208.5C 120.598,224.915 111.598,241.581 103,258.5C 100.086,267.922 98.7522,277.589 99,287.5C 98.6258,288.416 98.1258,289.25 97.5,290C 95.3885,290.845 93.3885,291.678 91.5,292.5C 88.8045,292.067 86.6379,290.734 85,288.5C 82.5714,270.976 85.9047,254.643 95,239.5C 105.921,219.993 116.588,200.326 127,180.5C 139.617,151.135 144.783,120.468 142.5,88.5C 142.333,77.8333 142.167,67.1667 142,56.5C 140.287,55.1218 138.953,53.4552 138,51.5C 137.333,36.5 137.333,21.5 138,6.5C 139.694,3.64238 141.861,1.30904 144.5,-0.5 Z"/></g>
<g><path style="opacity:1" fill="#fa4f29" d="M 152.5,14.5 C 165.167,14.5 177.833,14.5 190.5,14.5C 190.5,24.1667 190.5,33.8333 190.5,43.5C 177.833,43.5 165.167,43.5 152.5,43.5C 152.5,33.8333 152.5,24.1667 152.5,14.5 Z"/></g>
<g><path style="opacity:1" fill="#94979a" d="M 158.5,58.5 C 158.5,61.8333 158.5,65.1667 158.5,68.5C 167.167,68.5 175.833,68.5 184.5,68.5C 184.5,65.1667 184.5,61.8333 184.5,58.5C 185.482,61.9619 185.815,65.6286 185.5,69.5C 176.167,69.5 166.833,69.5 157.5,69.5C 157.185,65.6286 157.518,61.9619 158.5,58.5 Z"/></g>
<g><path style="opacity:1" fill="#cfd4d7" d="M 158.5,58.5 C 167.167,58.5 175.833,58.5 184.5,58.5C 184.5,61.8333 184.5,65.1667 184.5,68.5C 175.833,68.5 167.167,68.5 158.5,68.5C 158.5,65.1667 158.5,61.8333 158.5,58.5 Z"/></g>
<g><path style="opacity:1" fill="#726a80" d="M 157.5,84.5 C 166.833,84.5 176.167,84.5 185.5,84.5C 185.343,100.514 185.676,116.514 186.5,132.5C 176.5,132.5 166.5,132.5 156.5,132.5C 157.366,116.517 157.7,100.517 157.5,84.5 Z"/></g>
<g><path style="opacity:1" fill="#342e3e" d="M 109.5,495.5 C 136.835,495.667 164.169,495.5 191.5,495C 192.794,492.913 193.961,490.746 195,488.5C 195.5,475.838 195.667,463.171 195.5,450.5C 204.173,450.666 212.84,450.5 221.5,450C 227,448.5 230.5,445 232,439.5C 232.667,397.5 232.667,355.5 232,313.5C 230.167,309 227,305.833 222.5,304C 189.502,303.5 156.502,303.333 123.5,303.5C 147.328,302.502 171.328,302.169 195.5,302.5C 195.667,290.829 195.5,279.162 195,267.5C 194.408,263.724 193.408,260.057 192,256.5C 176.427,228.128 161.594,199.461 147.5,170.5C 150.312,163.061 152.312,155.394 153.5,147.5C 165.5,147.5 177.5,147.5 189.5,147.5C 192.022,160.232 195.855,172.565 201,184.5C 214,209.167 227,233.833 240,258.5C 241.408,262.057 242.408,265.724 243,269.5C 243.667,341.833 243.667,414.167 243,486.5C 241.167,491 238,494.167 233.5,496C 191.998,496.831 150.665,496.665 109.5,495.5 Z"/></g>
<g><path style="opacity:1" fill="#494155" d="M 147.5,170.5 C 161.594,199.461 176.427,228.128 192,256.5C 193.408,260.057 194.408,263.724 195,267.5C 195.5,279.162 195.667,290.829 195.5,302.5C 171.328,302.169 147.328,302.502 123.5,303.5C 117.43,304.399 113.263,307.732 111,313.5C 110.016,356.559 110.35,399.559 112,442.5C 114.124,446.313 117.291,448.813 121.5,450C 146.164,450.5 170.831,450.667 195.5,450.5C 195.667,463.171 195.5,475.838 195,488.5C 193.961,490.746 192.794,492.913 191.5,495C 164.169,495.5 136.835,495.667 109.5,495.5C 104.91,494.079 101.744,491.079 100,486.5C 99.6667,429.833 99.3333,373.167 99,316.5C 98.6258,315.584 98.1258,314.75 97.5,314C 95.3885,313.155 93.3885,312.322 91.5,311.5C 91.5,305.167 91.5,298.833 91.5,292.5C 93.3885,291.678 95.3885,290.845 97.5,290C 98.1258,289.25 98.6258,288.416 99,287.5C 98.7522,277.589 100.086,267.922 103,258.5C 111.598,241.581 120.598,224.915 130,208.5C 136.669,196.166 142.502,183.499 147.5,170.5 Z"/></g>
<g><path style="opacity:1" fill="#010101" d="M 123.5,303.5 C 156.502,303.333 189.502,303.5 222.5,304C 227,305.833 230.167,309 232,313.5C 232.667,355.5 232.667,397.5 232,439.5C 230.5,445 227,448.5 221.5,450C 212.84,450.5 204.173,450.666 195.5,450.5C 170.831,450.667 146.164,450.5 121.5,450C 117.291,448.813 114.124,446.313 112,442.5C 110.35,399.559 110.016,356.559 111,313.5C 113.263,307.732 117.43,304.399 123.5,303.5 Z"/></g>
<g><path style="opacity:1" fill="#cbb490" d="M 126.5,318.5 C 126.5,357.167 126.5,395.833 126.5,434.5C 149.5,434.5 172.5,434.5 195.5,434.5C 202.5,434.5 209.5,434.5 216.5,434.5C 216.5,395.833 216.5,357.167 216.5,318.5C 217.499,357.33 217.832,396.33 217.5,435.5C 186.833,435.5 156.167,435.5 125.5,435.5C 125.168,396.33 125.501,357.33 126.5,318.5 Z"/></g>
<g><path style="opacity:1" fill="#eacea4" d="M 195.5,318.5 C 202.5,318.5 209.5,318.5 216.5,318.5C 216.5,357.167 216.5,395.833 216.5,434.5C 209.5,434.5 202.5,434.5 195.5,434.5C 195.5,430.5 195.5,426.5 195.5,422.5C 203.542,423.077 207.042,419.41 206,411.5C 204.786,409.951 203.286,408.785 201.5,408C 182.17,407.5 162.836,407.333 143.5,407.5C 160.659,406.503 177.992,406.17 195.5,406.5C 195.5,402.833 195.5,399.167 195.5,395.5C 203.542,396.077 207.042,392.41 206,384.5C 204.786,382.951 203.286,381.785 201.5,381C 182.17,380.5 162.836,380.333 143.5,380.5C 160.659,379.503 177.992,379.17 195.5,379.5C 195.5,372.167 195.5,364.833 195.5,357.5C 201.577,359.46 205.243,357.294 206.5,351C 204.528,344.864 200.861,340.031 195.5,336.5C 195.5,330.5 195.5,324.5 195.5,318.5 Z"/></g>
<g><path style="opacity:1" fill="#fde4b7" d="M 126.5,318.5 C 149.5,318.5 172.5,318.5 195.5,318.5C 195.5,324.5 195.5,330.5 195.5,336.5C 177.977,327.753 160.977,328.586 144.5,339C 140.57,342.204 137.903,346.204 136.5,351C 138.298,357.473 142.298,359.473 148.5,357C 156.11,347.237 166.11,343.57 178.5,346C 185.576,347.862 191.242,351.696 195.5,357.5C 195.5,364.833 195.5,372.167 195.5,379.5C 177.992,379.17 160.659,379.503 143.5,380.5C 136.427,382.152 134.76,386.152 138.5,392.5C 139.5,393.333 140.5,394.167 141.5,395C 159.497,395.5 177.497,395.667 195.5,395.5C 195.5,399.167 195.5,402.833 195.5,406.5C 177.992,406.17 160.659,406.503 143.5,407.5C 136.427,409.152 134.76,413.152 138.5,419.5C 139.5,420.333 140.5,421.167 141.5,422C 159.497,422.5 177.497,422.667 195.5,422.5C 195.5,426.5 195.5,430.5 195.5,434.5C 172.5,434.5 149.5,434.5 126.5,434.5C 126.5,395.833 126.5,357.167 126.5,318.5 Z"/></g>
<g><path style="opacity:1" fill="#060504" d="M 195.5,336.5 C 200.861,340.031 204.528,344.864 206.5,351C 205.243,357.294 201.577,359.46 195.5,357.5C 191.242,351.696 185.576,347.862 178.5,346C 166.11,343.57 156.11,347.237 148.5,357C 142.298,359.473 138.298,357.473 136.5,351C 137.903,346.204 140.57,342.204 144.5,339C 160.977,328.586 177.977,327.753 195.5,336.5 Z"/></g>
<g><path style="opacity:0.97" fill="#020101" d="M 388.5,511.5 C 364.833,511.5 341.167,511.5 317.5,511.5C 302.964,505.465 292.464,495.132 286,480.5C 279.849,464.727 277.849,448.394 280,431.5C 282.585,408.659 286.251,385.992 291,363.5C 292.167,355.667 296.667,351.167 304.5,350C 336.833,349.333 369.167,349.333 401.5,350C 408.882,351.049 413.382,355.216 415,362.5C 419.857,385.311 423.524,408.311 426,431.5C 430.579,460.429 422.413,484.929 401.5,505C 397.353,507.74 393.02,509.907 388.5,511.5 Z"/></g>
<g><path style="opacity:1" fill="#ddebe5" d="M 351.5,365.5 C 353.622,375.445 355.622,385.445 357.5,395.5C 353.154,395.334 348.821,395.501 344.5,396C 341.211,397.41 339.544,399.91 339.5,403.5C 332.833,403.5 326.167,403.5 319.5,403.5C 319.451,400.901 318.451,398.734 316.5,397C 311.264,395.661 305.93,395.161 300.5,395.5C 302.055,385.556 304.055,375.723 306.5,366C 321.496,365.5 336.496,365.333 351.5,365.5 Z"/></g>
<g><path style="opacity:1" fill="#d5deda" d="M 351.5,365.5 C 367.833,365.5 384.167,365.5 400.5,365.5C 401.907,375.535 403.573,385.535 405.5,395.5C 389.5,395.5 373.5,395.5 357.5,395.5C 355.622,385.445 353.622,375.445 351.5,365.5 Z"/></g>
<g><path style="opacity:1" fill="#060504" d="M 143.5,380.5 C 162.836,380.333 182.17,380.5 201.5,381C 203.286,381.785 204.786,382.951 206,384.5C 207.042,392.41 203.542,396.077 195.5,395.5C 177.497,395.667 159.497,395.5 141.5,395C 140.5,394.167 139.5,393.333 138.5,392.5C 134.76,386.152 136.427,382.152 143.5,380.5 Z"/></g>
<g><path style="opacity:1" fill="#fb9626" d="M 319.5,403.5 C 326.167,403.5 332.833,403.5 339.5,403.5C 340.2,407.533 342.533,409.866 346.5,410.5C 350.97,411.486 355.637,411.819 360.5,411.5C 361.5,422.835 362.5,434.168 363.5,445.5C 363.619,455.231 361.952,464.564 358.5,473.5C 338.833,473.5 319.167,473.5 299.5,473.5C 296.023,463.999 294.356,454.166 294.5,444C 295.869,432.878 296.869,421.711 297.5,410.5C 303.176,410.666 308.843,410.499 314.5,410C 317.534,408.809 319.201,406.642 319.5,403.5 Z"/></g>
<g><path style="opacity:1" fill="#060504" d="M 143.5,407.5 C 162.836,407.333 182.17,407.5 201.5,408C 203.286,408.785 204.786,409.951 206,411.5C 207.042,419.41 203.542,423.077 195.5,422.5C 177.497,422.667 159.497,422.5 141.5,422C 140.5,421.167 139.5,420.333 138.5,419.5C 134.76,413.152 136.427,409.152 143.5,407.5 Z"/></g>
<g><path style="opacity:1" fill="#ba691c" d="M 346.5,410.5 C 367.167,410.5 387.833,410.5 408.5,410.5C 408.5,411.833 408.5,413.167 408.5,414.5C 407.596,413.791 407.263,412.791 407.5,411.5C 391.833,411.5 376.167,411.5 360.5,411.5C 355.637,411.819 350.97,411.486 346.5,410.5 Z"/></g>
<g><path style="opacity:1" fill="#e37e22" d="M 360.5,411.5 C 376.167,411.5 391.833,411.5 407.5,411.5C 407.263,412.791 407.596,413.791 408.5,414.5C 411.111,428.385 411.944,442.385 411,456.5C 409.596,462.208 408.096,467.875 406.5,473.5C 390.5,473.5 374.5,473.5 358.5,473.5C 361.952,464.564 363.619,455.231 363.5,445.5C 362.5,434.168 361.5,422.835 360.5,411.5 Z"/></g>
<g><path style="opacity:1" fill="#99a29e" d="M 393.5,490.5 C 366.5,489.167 339.5,489.167 312.5,490.5C 311.711,490.217 311.044,489.717 310.5,489C 338.833,488.333 367.167,488.333 395.5,489C 394.956,489.717 394.289,490.217 393.5,490.5 Z"/></g>
<g><path style="opacity:1" fill="#d7e1dd" d="M 393.5,490.5 C 391.2,493.324 388.2,495.157 384.5,496C 363.167,496.667 341.833,496.667 320.5,496C 317.244,494.884 314.578,493.051 312.5,490.5C 339.5,489.167 366.5,489.167 393.5,490.5 Z"/></g>
</svg>
