<?xml version="1.0" encoding="UTF-8"?>
<!DOCTYPE svg PUBLIC "-//W3C//DTD SVG 1.1//EN" "http://www.w3.org/Graphics/SVG/1.1/DTD/svg11.dtd">
<svg xmlns="http://www.w3.org/2000/svg" version="1.1" width="512px" height="512px" style="shape-rendering:geometricPrecision; text-rendering:geometricPrecision; image-rendering:optimizeQuality; fill-rule:evenodd; clip-rule:evenodd" xmlns:xlink="http://www.w3.org/1999/xlink">
<g><path style="opacity:0.979" fill="#000100" d="M 299.5,-0.5 C 308.5,-0.5 317.5,-0.5 326.5,-0.5C 353.774,5.60462 373.107,21.438 384.5,47C 422.068,53.7344 444.068,75.901 450.5,113.5C 481.959,119.623 498.959,138.623 501.5,170.5C 501.313,183.729 496.98,195.396 488.5,205.5C 493.896,210.726 498.729,216.392 503,222.5C 506.752,229.607 509.585,236.94 511.5,244.5C 511.5,251.833 511.5,259.167 511.5,266.5C 506.513,287.936 494.18,303.769 474.5,314C 484.581,336.948 482.414,358.781 468,379.5C 445.545,405.744 417.712,413.577 384.5,403C 372.054,398.058 361.388,390.558 352.5,380.5C 325.44,411.692 313.94,448.026 318,489.5C 318.541,493.662 319.041,497.828 319.5,502C 319.772,506.294 318.105,509.46 314.5,511.5C 275.167,511.5 235.833,511.5 196.5,511.5C 192.895,509.46 191.228,506.294 191.5,502C 200.027,457.619 190.86,417.453 164,381.5C 145.853,408.816 120.353,420.316 87.5,416C 52.5841,407.748 33.2508,385.748 29.5,350C 30.0785,341.018 32.0785,332.352 35.5,324C 16.3951,313.068 4.39509,296.901 -0.5,275.5C -0.5,268.167 -0.5,260.833 -0.5,253.5C 3.1755,238.321 10.8422,225.488 22.5,215C 6.54703,193.692 5.38036,171.525 19,148.5C 34.7535,127.743 55.5868,119.41 81.5,123.5C 87.165,85.6685 108.832,63.5019 146.5,57C 164.397,19.5466 194.064,3.87997 235.5,10C 243.692,11.8459 251.525,14.6792 259,18.5C 270.961,8.79534 284.461,2.46201 299.5,-0.5 Z"/></g>
<g><path style="opacity:1" fill="#009144" d="M 304.5,301.5 C 303.523,298.713 303.19,295.713 303.5,292.5C 303.979,278.125 304.979,263.792 306.5,249.5C 312.41,245.538 318.743,242.038 325.5,239C 333.342,234.799 334.342,229.466 328.5,223C 325.97,221.578 323.303,221.245 320.5,222C 285.113,242.882 248.113,246.215 209.5,232C 203.009,228.922 196.675,225.588 190.5,222C 184.944,220.222 181.11,222.055 179,227.5C 178.149,232.958 180.315,236.791 185.5,239C 194.385,243.86 203.551,248.027 213,251.5C 215.253,269.449 216.586,287.449 217,305.5C 201.667,290.167 186.333,274.833 171,259.5C 170.906,253.722 170.239,248.056 169,242.5C 163.474,236.842 158.474,237.175 154,243.5C 156.236,273.186 145.403,296.686 121.5,314C 111.409,319.474 100.743,323.141 89.5,325C 85.2468,328.42 84.4135,332.587 87,337.5C 89.9948,340.265 93.4948,341.098 97.5,340C 102.611,339.306 107.611,338.139 112.5,336.5C 113.938,336.719 115.271,337.219 116.5,338C 127.682,346.426 138.682,355.092 149.5,364C 150.554,365.388 150.72,366.888 150,368.5C 137.336,392.251 117.503,402.417 90.5,399C 64.554,392.556 50.2207,376.056 47.5,349.5C 47.8268,339.511 50.9935,330.511 57,322.5C 58.2272,318.409 57.3939,314.909 54.5,312C 28.1697,303.338 15.6697,285.172 17,257.5C 20.7455,241.929 29.5789,230.262 43.5,222.5C 46.6665,219.174 47.1665,215.507 45,211.5C 26.2974,197.593 22.2974,180.259 33,159.5C 43.2521,144.46 57.4187,138.293 75.5,141C 80.7772,141.778 85.9438,142.945 91,144.5C 94.804,144.6 97.4707,142.934 99,139.5C 98.3868,98.4437 118.554,75.9437 159.5,72C 175.645,31.1588 204.645,17.8255 246.5,32C 250.846,35.0086 255.513,37.1753 260.5,38.5C 262.634,38.4847 264.634,37.9847 266.5,37C 286.277,16.6417 309.611,11.3084 336.5,21C 347.783,25.6164 356.616,33.1164 363,43.5C 366.327,49.9852 369.493,56.4852 372.5,63C 411.784,66.6164 432.284,88.1164 434,127.5C 434.903,128.701 436.069,129.535 437.5,130C 469.467,131.293 484.634,147.793 483,179.5C 479.338,189.175 473.338,197.175 465,203.5C 464.245,206.303 464.578,208.97 466,211.5C 478.982,218.815 487.982,229.482 493,243.5C 496.945,273.579 484.445,293.412 455.5,303C 453.571,306.256 453.071,309.756 454,313.5C 465.92,330.322 466.586,347.656 456,365.5C 439.669,387.558 418.169,394.724 391.5,387C 381.354,383.17 372.854,377.003 366,368.5C 365.731,365.72 366.898,363.554 369.5,362C 380.833,354 392.167,346 403.5,338C 409.293,339.869 415.293,340.536 421.5,340C 427.12,335.923 427.787,331.256 423.5,326C 382.13,314.971 360.296,288.138 358,245.5C 356.749,240.916 353.749,238.583 349,238.5C 343.229,239.606 340.395,243.106 340.5,249C 341.073,252.176 341.24,255.343 341,258.5C 328.623,272.706 316.456,287.039 304.5,301.5 Z"/></g>
<g><path style="opacity:1" fill="#000200" d="M 303.5,76.5 C 321.993,75.379 336.493,82.379 347,97.5C 349.694,101.879 351.527,106.546 352.5,111.5C 378.142,115.636 390.975,130.636 391,156.5C 387.987,161.535 383.82,162.702 378.5,160C 377.299,159.097 376.465,157.931 376,156.5C 373.419,136.287 361.919,126.453 341.5,127C 340.333,125.833 339.167,124.667 338,123.5C 335.216,103.379 323.716,93.2121 303.5,93C 298.931,90.4586 297.431,86.6253 299,81.5C 300.025,79.313 301.525,77.6464 303.5,76.5 Z"/></g>
<g><path style="opacity:1" fill="#000200" d="M 155.5,136.5 C 162.284,136.08 168.95,136.58 175.5,138C 180.096,144.086 179.096,149.086 172.5,153C 153.631,150.672 141.465,158.506 136,176.5C 135.926,183.606 135.26,190.606 134,197.5C 127.88,199.579 121.713,201.746 115.5,204C 109.497,207.671 105.331,212.838 103,219.5C 102.258,225.155 101.091,230.655 99.5,236C 94.0141,239.902 89.5141,239.069 86,233.5C 84.3297,208.344 95.4964,192.011 119.5,184.5C 119.001,159.013 131.001,143.013 155.5,136.5 Z"/></g>
<g><path style="opacity:1" fill="#000301" d="M 254.5,144.5 C 271.103,142.357 285.937,146.357 299,156.5C 302.493,164.181 300.16,168.847 292,170.5C 286.206,167.022 280.039,164.189 273.5,162C 260.846,159.335 249.513,162.001 239.5,170C 230.184,170 227.017,165.5 230,156.5C 237.255,150.455 245.421,146.455 254.5,144.5 Z"/></g>
<g><path style="opacity:1" fill="#5f8845" d="M 282.5,254.5 C 284.5,254.5 286.5,254.5 288.5,254.5C 286.809,280.174 285.309,305.841 284,331.5C 286.735,337.122 290.901,338.622 296.5,336C 312.715,317.956 328.715,299.79 344.5,281.5C 353.962,301.09 367.629,317.09 385.5,329.5C 374.359,337.474 363.359,345.641 352.5,354C 312.323,392.219 294.99,439.053 300.5,494.5C 296.5,494.5 292.5,494.5 288.5,494.5C 284.157,467.751 284.657,441.084 290,414.5C 292.268,404.262 294.768,394.095 297.5,384C 296.777,376.629 292.777,373.962 285.5,376C 284.333,377.167 283.167,378.333 282,379.5C 269.414,416.942 265.581,455.275 270.5,494.5C 260.5,494.5 250.5,494.5 240.5,494.5C 245.226,458.981 241.726,424.315 230,390.5C 227.352,384.172 222.852,382.339 216.5,385C 214.129,386.743 212.795,389.077 212.5,392C 224.995,425.282 228.329,459.448 222.5,494.5C 218.5,494.5 214.5,494.5 210.5,494.5C 217.529,424.072 191.863,369.238 133.5,330C 150.316,317.512 162.149,301.346 169,281.5C 187.167,299.667 205.333,317.833 223.5,336C 232.777,338.24 237.11,334.406 236.5,324.5C 234.444,301.493 232.444,278.493 230.5,255.5C 248.038,258.433 265.371,258.1 282.5,254.5 Z"/></g>
<g><path style="opacity:1" fill="#014d24" d="M 303.5,292.5 C 303.19,295.713 303.523,298.713 304.5,301.5C 304.217,302.289 303.717,302.956 303,303.5C 302.19,299.642 302.357,295.976 303.5,292.5 Z"/></g>
</svg>
