<?xml version="1.0" encoding="UTF-8"?>
<!DOCTYPE svg PUBLIC "-//W3C//DTD SVG 1.1//EN" "http://www.w3.org/Graphics/SVG/1.1/DTD/svg11.dtd">
<svg xmlns="http://www.w3.org/2000/svg" version="1.1" width="512px" height="512px" style="shape-rendering:geometricPrecision; text-rendering:geometricPrecision; image-rendering:optimizeQuality; fill-rule:evenodd; clip-rule:evenodd" xmlns:xlink="http://www.w3.org/1999/xlink">
<g><path style="opacity:0.963" fill="#080606" d="M 155.5,99.5 C 157.137,100.974 158.137,102.808 158.5,105C 157.159,108.846 155.159,112.346 152.5,115.5C 156.29,116.93 160.124,118.264 164,119.5C 172.283,110.938 182.116,104.771 193.5,101C 221.937,100.155 240.771,113.322 250,140.5C 253.88,157.684 254.547,175.017 252,192.5C 249.799,202.963 247.465,213.296 245,223.5C 259.367,213.081 264.7,199.081 261,181.5C 262.033,176.433 264.366,172.1 268,168.5C 268.246,149.734 263.912,132.067 255,115.5C 243.672,98.7467 227.839,89.58 207.5,88C 205.372,86.2082 204.039,84.0416 203.5,81.5C 204.65,77.8538 207.15,75.8538 211,75.5C 239.946,78.8081 260.28,93.8081 272,120.5C 276.733,133.099 279.733,146.099 281,159.5C 293.894,156.179 305.727,158.513 316.5,166.5C 348.514,153.136 376.347,159.136 400,184.5C 420.23,208.426 424.564,235.093 413,264.5C 394.56,304.496 365.393,333.996 325.5,353C 310.324,358.702 294.658,362.369 278.5,364C 256.809,365.745 235.142,367.745 213.5,370C 193.869,371.536 176.702,378.703 162,391.5C 160.367,393.453 159.201,395.62 158.5,398C 159.16,414.303 162.993,429.803 170,444.5C 175.824,453.478 179.99,463.144 182.5,473.5C 182.015,480.305 178.682,485.138 172.5,488C 163.751,490.94 155.751,489.607 148.5,484C 140.727,477.225 134.893,469.059 131,459.5C 128.826,477.349 119.326,483.182 102.5,477C 94.5442,469.81 90.8776,460.81 91.5,450C 94.3005,422.909 104.134,398.742 121,377.5C 124.586,356.665 133.253,338.332 147,322.5C 166.027,303.473 185.027,284.473 204,265.5C 202.71,247.068 210.71,234.735 228,228.5C 238.891,204.925 242.891,180.259 240,154.5C 237.6,137.509 229.1,124.676 214.5,116C 200.186,110.77 187.853,113.77 177.5,125C 192.063,135.251 201.563,149.084 206,166.5C 213.337,192.123 211.004,216.789 199,240.5C 189.127,255.528 175.294,264.694 157.5,268C 144.955,270.556 132.621,269.89 120.5,266C 106.605,258.712 100.772,247.212 103,231.5C 103.879,226.864 105.545,222.531 108,218.5C 120.954,205.077 123.287,190.077 115,173.5C 100.755,161.52 97.755,147.187 106,130.5C 114.555,119.972 125.721,114.305 139.5,113.5C 141.537,108.587 144.204,104.087 147.5,100C 150.227,98.3643 152.893,98.1976 155.5,99.5 Z M 344.5,198.5 C 366.664,200.108 377.998,212.108 378.5,234.5C 376.161,251.843 368.995,266.843 357,279.5C 329.39,308.386 295.556,324.553 255.5,328C 233.004,329.623 210.67,331.956 188.5,335C 201.711,321.287 215.378,308.121 229.5,295.5C 259.02,311.78 286.354,308.614 311.5,286C 327.824,270.189 337.991,251.023 342,228.5C 342.667,222.167 342.667,215.833 342,209.5C 341.75,206.15 340.917,202.983 339.5,200C 341.382,199.802 343.048,199.302 344.5,198.5 Z"/></g>
<g><path style="opacity:0.933" fill="#070606" d="M 186.5,82.5 C 186.447,86.3499 184.78,89.1832 181.5,91C 178.915,92.1277 176.248,92.961 173.5,93.5C 170.755,93.2903 168.422,92.2903 166.5,90.5C 165.943,86.1116 167.61,82.9449 171.5,81C 175.753,78.5401 180.087,78.2068 184.5,80C 185.066,80.9947 185.733,81.828 186.5,82.5 Z"/></g>
<g><path style="opacity:0.994" fill="#f9eab5" d="M 203.5,81.5 C 204.039,84.0416 205.372,86.2082 207.5,88C 227.839,89.58 243.672,98.7467 255,115.5C 263.912,132.067 268.246,149.734 268,168.5C 264.366,172.1 262.033,176.433 261,181.5C 264.7,199.081 259.367,213.081 245,223.5C 247.465,213.296 249.799,202.963 252,192.5C 254.547,175.017 253.88,157.684 250,140.5C 240.771,113.322 221.937,100.155 193.5,101C 182.116,104.771 172.283,110.938 164,119.5C 160.124,118.264 156.29,116.93 152.5,115.5C 155.159,112.346 157.159,108.846 158.5,105C 158.137,102.808 157.137,100.974 155.5,99.5C 158.901,96.0917 162.568,93.0917 166.5,90.5C 168.422,92.2903 170.755,93.2903 173.5,93.5C 176.248,92.961 178.915,92.1277 181.5,91C 184.78,89.1832 186.447,86.3499 186.5,82.5C 192.145,81.8658 197.811,81.5324 203.5,81.5 Z"/></g>
<g><path style="opacity:1" fill="#fcc869" d="M 196.5,184.5 C 196.736,187.226 195.903,189.559 194,191.5C 173.338,213.419 148.171,225.419 118.5,227.5C 118.414,226.504 118.748,225.671 119.5,225C 130.113,223.687 139.779,220.02 148.5,214C 158.497,204.175 160.997,192.675 156,179.5C 151.567,172.353 145.4,167.186 137.5,164C 131.026,161.924 124.526,160.091 118,158.5C 110.849,143.295 115.349,133.128 131.5,128C 163.9,125.119 184.733,139.286 194,170.5C 195.475,175.063 196.308,179.73 196.5,184.5 Z"/></g>
<g><path style="opacity:1" fill="#fcc869" d="M 315.5,260.5 C 283.92,266.518 254.92,260.518 228.5,242.5C 229.946,241.387 231.613,241.22 233.5,242C 241.79,247.153 250.79,249.986 260.5,250.5C 281.013,248.481 290.513,237.148 289,216.5C 286.115,206.384 280.948,197.717 273.5,190.5C 272.113,182.34 275.113,176.173 282.5,172C 292.096,168.855 300.763,170.522 308.5,177C 330.589,195.867 335.756,218.7 324,245.5C 321.661,250.852 318.828,255.852 315.5,260.5 Z"/></g>
<g><path style="opacity:1" fill="#f9ebb6" d="M 337.5,172.5 C 367.746,171.88 389.58,185.214 403,212.5C 408.581,231.117 406.914,249.117 398,266.5C 379.922,300.579 353.422,325.746 318.5,342C 310.395,345.11 302.062,347.443 293.5,349C 264.182,352.117 234.849,355.117 205.5,358C 183.801,360.933 165.301,370.1 150,385.5C 137.643,399.871 128.643,416.204 123,434.5C 120.851,444.879 118.518,455.213 116,465.5C 110.708,467.834 107.375,466.167 106,460.5C 103.419,445.568 105.419,431.235 112,417.5C 131.903,372.463 166.403,347.963 215.5,344C 235.591,342.851 255.591,340.851 275.5,338C 315.009,330.503 347.509,311.337 373,280.5C 384.068,266.799 389.901,251.132 390.5,233.5C 390.695,208.885 379.029,193.385 355.5,187C 348.089,186.408 340.755,186.408 333.5,187C 331.074,183.484 328.407,180.151 325.5,177C 329.432,174.972 333.432,173.472 337.5,172.5 Z"/></g>
<g><path style="opacity:1" fill="#f2d8a2" d="M 130.5,174.5 C 145.374,179.238 149.541,188.572 143,202.5C 138.777,206.439 133.944,208.939 128.5,210C 131.689,204.09 133.022,197.756 132.5,191C 132.583,185.39 131.917,179.89 130.5,174.5 Z"/></g>
<g><path style="opacity:1" fill="#e6ba65" d="M 196.5,184.5 C 200.662,207.684 194.662,227.851 178.5,245C 162.916,255.321 145.916,258.654 127.5,255C 115.539,248.621 112.539,239.454 118.5,227.5C 148.171,225.419 173.338,213.419 194,191.5C 195.903,189.559 196.736,187.226 196.5,184.5 Z"/></g>
<g><path style="opacity:1" fill="#f3d8a3" d="M 271.5,208.5 C 280.933,220.629 278.933,230.463 265.5,238C 260.362,238.82 255.362,238.32 250.5,236.5C 249.479,235.998 249.312,235.332 250,234.5C 260.71,228.738 267.876,220.072 271.5,208.5 Z"/></g>
<g><path style="opacity:1" fill="#e5ba65" d="M 228.5,242.5 C 254.92,260.518 283.92,266.518 315.5,260.5C 305.302,277.428 290.635,288.261 271.5,293C 250.53,294.096 233.363,286.596 220,270.5C 213.707,258.221 216.54,248.887 228.5,242.5 Z"/></g>
<g><path style="opacity:1" fill="#f9eab5" d="M 209.5,278.5 C 212.391,280.884 215.224,283.551 218,286.5C 218.667,287.167 218.667,287.833 218,288.5C 204.333,301.5 190.667,314.5 177,327.5C 171.789,333.042 166.956,338.875 162.5,345C 154.462,349.045 146.962,353.878 140,359.5C 141.049,355.382 142.716,351.382 145,347.5C 148.946,341.221 153.279,335.221 158,329.5C 175.062,312.271 192.228,295.271 209.5,278.5 Z"/></g>
<g><path style="opacity:1" fill="#f9eab5" d="M 145.5,411.5 C 146.649,411.791 147.316,412.624 147.5,414C 151.11,434.158 158.276,452.992 169,470.5C 169.825,472.701 169.325,474.534 167.5,476C 163.467,477.04 159.801,476.374 156.5,474C 146.145,462.957 139.478,449.957 136.5,435C 138.523,426.788 141.523,418.954 145.5,411.5 Z"/></g>
</svg>
