<?xml version="1.0" encoding="UTF-8"?>
<!DOCTYPE svg PUBLIC "-//W3C//DTD SVG 1.1//EN" "http://www.w3.org/Graphics/SVG/1.1/DTD/svg11.dtd">
<svg xmlns="http://www.w3.org/2000/svg" version="1.1" width="512px" height="512px" style="shape-rendering:geometricPrecision; text-rendering:geometricPrecision; image-rendering:optimizeQuality; fill-rule:evenodd; clip-rule:evenodd" xmlns:xlink="http://www.w3.org/1999/xlink">
<g><path style="opacity:0.513" fill="#03263a" d="M 257.5,150.5 C 255.732,147.394 254.232,144.061 253,140.5C 249.93,136.293 246.097,135.46 241.5,138C 237.24,142.768 232.573,146.934 227.5,150.5C 231.63,145.869 235.963,141.369 240.5,137C 245.729,134.379 250.229,135.212 254,139.5C 255.674,143.021 256.84,146.687 257.5,150.5 Z"/></g>
<g><path style="opacity:1" fill="#020305" d="M 257.5,150.5 C 259.964,154.444 261.63,158.777 262.5,163.5C 263.37,168.223 265.036,172.556 267.5,176.5C 270.67,183.317 273.67,190.317 276.5,197.5C 279.759,198.98 283.092,199.98 286.5,200.5C 300.987,202.898 315.487,205.898 330,209.5C 330.765,209.43 331.265,209.097 331.5,208.5C 339.328,202.749 347.661,197.749 356.5,193.5C 358.512,192.986 360.512,192.82 362.5,193C 365.665,195.335 368.665,197.835 371.5,200.5C 374.456,205.399 378.123,209.732 382.5,213.5C 386.716,217.57 390.716,221.903 394.5,226.5C 399.073,228.817 403.74,229.817 408.5,229.5C 412.203,225.798 415.537,221.798 418.5,217.5C 422.898,214.105 426.564,210.105 429.5,205.5C 432.208,202.791 435.208,200.458 438.5,198.5C 443.071,196.262 447.071,193.262 450.5,189.5C 450.973,188.094 451.973,187.427 453.5,187.5C 457.683,185.913 461.35,183.579 464.5,180.5C 466.629,178.05 469.296,176.383 472.5,175.5C 477.216,172.957 482.05,170.624 487,168.5C 492.634,169.42 495.134,172.753 494.5,178.5C 493.696,181.442 492.362,184.109 490.5,186.5C 486.072,193.019 482.406,200.019 479.5,207.5C 479.672,208.492 479.338,209.158 478.5,209.5C 473.739,216.686 469.739,224.353 466.5,232.5C 466.34,234.153 465.674,235.486 464.5,236.5C 459.444,242.61 456.611,249.61 456,257.5C 466.395,279.29 477.061,300.956 488,322.5C 488.818,326.531 487.651,329.864 484.5,332.5C 482.372,333.629 480.039,333.796 477.5,333C 476.058,332.623 475.058,331.79 474.5,330.5C 471.35,327.421 467.683,325.087 463.5,323.5C 458.291,321.281 453.624,318.281 449.5,314.5C 440.839,308.174 432.172,301.84 423.5,295.5C 418.521,289.854 413.188,284.521 407.5,279.5C 404.921,280.706 402.421,282.039 400,283.5C 400.398,285.631 401.398,287.631 403,289.5C 403.667,291.5 403.667,293.5 403,295.5C 399.99,298.677 396.824,301.677 393.5,304.5C 389.608,306.062 386.275,308.395 383.5,311.5C 377.747,316.223 371.747,320.723 365.5,325C 364.207,325.49 362.873,325.657 361.5,325.5C 357.504,323.836 353.504,322.169 349.5,320.5C 346.322,317.742 342.655,315.742 338.5,314.5C 336.235,312.358 333.568,310.691 330.5,309.5C 324.676,311.035 319.009,312.701 313.5,314.5C 284.708,321.363 255.374,324.696 225.5,324.5C 222.753,324.187 220.086,324.52 217.5,325.5C 218.365,328.662 219.365,331.662 220.5,334.5C 223.777,340.512 222.444,345.345 216.5,349C 214.613,349.78 212.946,349.613 211.5,348.5C 205.919,346.527 200.252,344.527 194.5,342.5C 190.559,340.86 186.892,338.694 183.5,336C 180.882,333.894 178.882,331.394 177.5,328.5C 177.489,326.983 176.823,325.816 175.5,325C 169.509,324.501 163.509,324.334 157.5,324.5C 153.629,324.815 149.962,324.482 146.5,323.5C 141.384,322.194 136.051,321.527 130.5,321.5C 125.924,321.562 121.591,320.895 117.5,319.5C 104.773,316.817 92.1064,313.484 79.5,309.5C 73.2198,307.971 67.5532,305.304 62.5,301.5C 55.3136,296.739 47.6469,292.739 39.5,289.5C 34.3128,287.99 29.8128,285.323 26,281.5C 23.9569,274.416 26.4569,269.916 33.5,268C 28.8053,267.128 24.1386,266.128 19.5,265C 18.6195,264.292 17.9528,263.458 17.5,262.5C 15.5771,253.004 18.2438,245.004 25.5,238.5C 29.8803,234.252 35.2137,231.919 41.5,231.5C 46.1646,230.943 50.4979,229.61 54.5,227.5C 60.1662,226.61 65.4995,224.943 70.5,222.5C 73.5046,220.723 76.8379,219.723 80.5,219.5C 85.4385,218.769 90.1051,217.435 94.5,215.5C 99.4968,213.251 104.83,211.917 110.5,211.5C 120.385,209.99 130.052,207.99 139.5,205.5C 147.911,203.345 156.577,202.011 165.5,201.5C 169.308,201.837 172.974,201.337 176.5,200C 180.439,196.571 183.772,192.737 186.5,188.5C 187.29,187.599 188.29,186.932 189.5,186.5C 195.576,181.931 201.242,176.764 206.5,171C 206.272,170.601 205.938,170.435 205.5,170.5C 206.29,169.599 207.29,168.932 208.5,168.5C 215.11,163.559 221.11,157.892 226.5,151.5C 226.5,150.833 226.833,150.5 227.5,150.5C 232.573,146.934 237.24,142.768 241.5,138C 246.097,135.46 249.93,136.293 253,140.5C 254.232,144.061 255.732,147.394 257.5,150.5 Z"/></g>
<g><path style="opacity:1" fill="#ded5cf" d="M 214.5,197.5 C 210.298,197.817 206.298,197.483 202.5,196.5C 215.484,183.517 228.817,170.851 242.5,158.5C 245.484,162.454 247.317,166.787 248,171.5C 238.594,180.117 229.094,188.617 219.5,197C 217.866,197.494 216.199,197.66 214.5,197.5 Z"/></g>
<g><path style="opacity:0.648" fill="#01273f" d="M 226.5,151.5 C 221.11,157.892 215.11,163.559 208.5,168.5C 213.89,162.108 219.89,156.441 226.5,151.5 Z"/></g>
<g><path style="opacity:0.676" fill="#01263e" d="M 262.5,163.5 C 264.964,167.444 266.63,171.777 267.5,176.5C 265.036,172.556 263.37,168.223 262.5,163.5 Z"/></g>
<g><path style="opacity:0.568" fill="#00283f" d="M 494.5,178.5 C 495.134,172.753 492.634,169.42 487,168.5C 482.05,170.624 477.216,172.957 472.5,175.5C 476.473,171.379 481.307,168.712 487,167.5C 494.049,168.295 496.549,171.961 494.5,178.5 Z"/></g>
<g><path style="opacity:0.637" fill="#00293f" d="M 205.5,170.5 C 205.938,170.435 206.272,170.601 206.5,171C 201.242,176.764 195.576,181.931 189.5,186.5C 194.5,180.833 199.833,175.5 205.5,170.5 Z"/></g>
<g><path style="opacity:0.688" fill="#01283e" d="M 464.5,180.5 C 461.35,183.579 457.683,185.913 453.5,187.5C 456.65,184.421 460.317,182.087 464.5,180.5 Z"/></g>
<g><path style="opacity:1" fill="#d4cdc9" d="M 253.5,187.5 C 255.913,189.985 257.58,192.985 258.5,196.5C 253.533,197.662 248.533,197.829 243.5,197C 246.729,193.601 250.062,190.435 253.5,187.5 Z"/></g>
<g><path style="opacity:0.604" fill="#012740" d="M 490.5,186.5 C 487.594,193.981 483.928,200.981 479.5,207.5C 482.406,200.019 486.072,193.019 490.5,186.5 Z"/></g>
<g><path style="opacity:0.623" fill="#01283e" d="M 371.5,200.5 C 368.665,197.835 365.665,195.335 362.5,193C 360.512,192.82 358.512,192.986 356.5,193.5C 358.455,191.674 360.788,191.174 363.5,192C 367.07,194.068 369.737,196.901 371.5,200.5 Z"/></g>
<g><path style="opacity:1" fill="#4b616f" d="M 202.5,196.5 C 206.298,197.483 210.298,197.817 214.5,197.5C 210.019,198.648 205.352,198.815 200.5,198C 201.044,197.283 201.711,196.783 202.5,196.5 Z"/></g>
<g><path style="opacity:0.661" fill="#01293e" d="M 450.5,189.5 C 447.071,193.262 443.071,196.262 438.5,198.5C 441.929,194.738 445.929,191.738 450.5,189.5 Z"/></g>
<g><path style="opacity:0.571" fill="#002941" d="M 186.5,188.5 C 183.772,192.737 180.439,196.571 176.5,200C 172.974,201.337 169.308,201.837 165.5,201.5C 168.758,200.829 172.091,199.996 175.5,199C 179.036,195.296 182.702,191.796 186.5,188.5 Z"/></g>
<g><path style="opacity:1" fill="#e14941" d="M 463.5,199.5 C 464.239,199.369 464.906,199.536 465.5,200C 462.872,204.755 460.372,209.588 458,214.5C 446.667,223.167 435.333,231.833 424,240.5C 422.635,239.407 422.301,238.074 423,236.5C 434.847,222.144 448.347,209.811 463.5,199.5 Z"/></g>
<g><path style="opacity:0.591" fill="#01293e" d="M 371.5,200.5 C 375.877,204.268 379.544,208.601 382.5,213.5C 378.123,209.732 374.456,205.399 371.5,200.5 Z"/></g>
<g><path style="opacity:0.606" fill="#01273d" d="M 286.5,200.5 C 301.734,201.88 316.734,204.547 331.5,208.5C 331.265,209.097 330.765,209.43 330,209.5C 315.487,205.898 300.987,202.898 286.5,200.5 Z"/></g>
<g><path style="opacity:0.552" fill="#00283e" d="M 139.5,205.5 C 130.052,207.99 120.385,209.99 110.5,211.5C 119.843,208.497 129.509,206.497 139.5,205.5 Z"/></g>
<g><path style="opacity:0.678" fill="#03273e" d="M 429.5,205.5 C 426.564,210.105 422.898,214.105 418.5,217.5C 421.436,212.895 425.102,208.895 429.5,205.5 Z"/></g>
<g><path style="opacity:0.59" fill="#012740" d="M 478.5,209.5 C 475.261,217.647 471.261,225.314 466.5,232.5C 469.739,224.353 473.739,216.686 478.5,209.5 Z"/></g>
<g><path style="opacity:1" fill="#ccc7c3" d="M 357.5,210.5 C 358.239,210.369 358.906,210.536 359.5,211C 361.5,213.333 363.5,215.667 365.5,218C 361.044,217.575 356.711,216.408 352.5,214.5C 354.419,213.388 356.086,212.054 357.5,210.5 Z"/></g>
<g><path style="opacity:1" fill="#679cbe" d="M 389.5,242.5 C 388.081,243.451 386.415,243.784 384.5,243.5C 325.215,237.523 266.048,238.523 207,246.5C 204.091,246.269 201.591,245.103 199.5,243C 197.833,242.833 196.167,242.667 194.5,242.5C 183.41,244.088 172.41,246.088 161.5,248.5C 160.368,240.771 158.035,233.438 154.5,226.5C 149.185,221.956 144.685,222.623 141,228.5C 140.333,230.167 140.333,231.833 141,233.5C 147.489,246.12 149.823,259.453 148,273.5C 143.789,286.035 136.789,296.702 127,305.5C 99.9937,302.113 75.1603,293.113 52.5,278.5C 57.7104,275.907 62.8771,273.24 68,270.5C 70.9402,267.477 71.2735,264.144 69,260.5C 67.8289,259.107 66.3289,258.273 64.5,258C 54.4186,256.151 44.4186,253.984 34.5,251.5C 84.7009,231.488 136.868,219.155 191,214.5C 193.167,214.667 195.333,214.833 197.5,215C 198,215.5 198.5,216 199,216.5C 202.235,222.966 204.902,229.632 207,236.5C 210.596,240.481 214.263,240.481 218,236.5C 219.378,234.938 220.211,233.105 220.5,231C 219.206,225.092 217.54,219.259 215.5,213.5C 221.868,213.17 228.202,213.504 234.5,214.5C 236.159,215.817 237.326,217.483 238,219.5C 239.514,224.56 241.181,229.56 243,234.5C 247.913,237.387 251.913,236.387 255,231.5C 256.006,225.563 255.173,219.896 252.5,214.5C 258.171,213.465 263.838,213.632 269.5,215C 272.529,220.086 274.362,225.586 275,231.5C 280.167,237.092 284.833,236.759 289,230.5C 289.772,225.616 289.272,220.949 287.5,216.5C 302.343,218.392 317.01,221.225 331.5,225C 351.162,230.393 370.496,236.227 389.5,242.5 Z"/></g>
<g><path style="opacity:0.55" fill="#022741" d="M 94.5,215.5 C 90.1051,217.435 85.4385,218.769 80.5,219.5C 84.8047,217.254 89.4713,215.92 94.5,215.5 Z"/></g>
<g><path style="opacity:0.596" fill="#01263e" d="M 418.5,217.5 C 415.537,221.798 412.203,225.798 408.5,229.5C 410.709,224.619 414.043,220.619 418.5,217.5 Z"/></g>
<g><path style="opacity:0.582" fill="#002740" d="M 70.5,222.5 C 65.4995,224.943 60.1662,226.61 54.5,227.5C 59.5005,225.057 64.8338,223.39 70.5,222.5 Z"/></g>
<g><path style="opacity:0.608" fill="#012640" d="M 54.5,227.5 C 50.4979,229.61 46.1646,230.943 41.5,231.5C 45.5021,229.39 49.8354,228.057 54.5,227.5 Z"/></g>
<g><path style="opacity:1" fill="#022c43" d="M 78.5,238.5 C 88.3227,237.488 92.4893,241.822 91,251.5C 84.5831,259.754 78.5831,259.421 73,250.5C 71.8735,245.089 73.7068,241.089 78.5,238.5 Z"/></g>
<g><path style="opacity:1" fill="#2b5873" d="M 389.5,242.5 C 392.392,242.721 395.059,243.554 397.5,245C 392.997,245.111 388.664,244.611 384.5,243.5C 386.415,243.784 388.081,243.451 389.5,242.5 Z"/></g>
<g><path style="opacity:0.698" fill="#002840" d="M 25.5,238.5 C 18.2438,245.004 15.5771,253.004 17.5,262.5C 16.8826,262.389 16.3826,262.056 16,261.5C 14.28,251.629 17.4467,243.962 25.5,238.5 Z"/></g>
<g><path style="opacity:1" fill="#df4841" d="M 439.5,248.5 C 440.643,251.976 440.81,255.642 440,259.5C 437.555,258.023 435.388,256.19 433.5,254C 435.396,251.932 437.396,250.099 439.5,248.5 Z"/></g>
<g><path style="opacity:1" fill="#e3d8d2" d="M 207.5,271.5 C 208.237,268.275 208.903,264.941 209.5,261.5C 275.503,253.475 341.503,253.642 407.5,262C 348.371,294.02 285.038,309.687 217.5,309C 194.161,309.585 170.827,309.418 147.5,308.5C 149.64,303.501 152.474,298.834 156,294.5C 158.364,290.781 159.864,286.781 160.5,282.5C 173.326,285.899 186.326,288.066 199.5,289C 201.667,288.167 203.167,286.667 204,284.5C 205.949,280.371 207.116,276.037 207.5,271.5 Z"/></g>
<g><path style="opacity:1" fill="#9ea0a0" d="M 188.5,259.5 C 189.5,259.5 190.5,259.5 191.5,259.5C 191.5,263.833 191.5,268.167 191.5,272.5C 183.121,271.325 174.788,269.825 166.5,268C 164.893,266.951 164.227,265.451 164.5,263.5C 172.475,262.038 180.475,260.705 188.5,259.5 Z"/></g>
<g><path style="opacity:1" fill="#506673" d="M 209.5,261.5 C 208.903,264.941 208.237,268.275 207.5,271.5C 206.931,267.671 207.598,264.337 209.5,261.5 Z"/></g>
<g><path style="opacity:1" fill="#566973" d="M 188.5,259.5 C 189.568,258.566 190.901,258.232 192.5,258.5C 192.819,263.363 192.486,268.03 191.5,272.5C 191.5,268.167 191.5,263.833 191.5,259.5C 190.5,259.5 189.5,259.5 188.5,259.5 Z"/></g>
<g><path style="opacity:0.68" fill="#002a42" d="M 464.5,236.5 C 461.708,242.587 459.041,248.754 456.5,255C 466.925,277.351 477.759,299.517 489,321.5C 489.667,323.833 489.667,326.167 489,328.5C 488.252,330.751 486.752,332.084 484.5,332.5C 487.651,329.864 488.818,326.531 488,322.5C 477.061,300.956 466.395,279.29 456,257.5C 456.611,249.61 459.444,242.61 464.5,236.5 Z"/></g>
<g><path style="opacity:1" fill="#de4841" d="M 424.5,268.5 C 435.389,275.876 445.889,283.876 456,292.5C 457.955,295.719 459.288,299.053 460,302.5C 445.989,294.153 433.489,283.986 422.5,272C 422.978,270.697 423.645,269.531 424.5,268.5 Z"/></g>
<g><path style="opacity:0.699" fill="#012841" d="M 423.5,295.5 C 417.881,291.053 412.381,286.387 407,281.5C 404.942,282.112 403.109,283.112 401.5,284.5C 407.203,294.435 404.536,301.102 393.5,304.5C 396.824,301.677 399.99,298.677 403,295.5C 403.667,293.5 403.667,291.5 403,289.5C 401.398,287.631 400.398,285.631 400,283.5C 402.421,282.039 404.921,280.706 407.5,279.5C 413.188,284.521 418.521,289.854 423.5,295.5 Z"/></g>
<g><path style="opacity:1" fill="#485e6c" d="M 380.5,294.5 C 380.158,293.662 379.492,293.328 378.5,293.5C 380.291,292.609 382.124,291.609 384,290.5C 384.124,292.741 382.958,294.074 380.5,294.5 Z"/></g>
<g><path style="opacity:0.603" fill="#01273e" d="M 39.5,289.5 C 47.6469,292.739 55.3136,296.739 62.5,301.5C 54.3531,298.261 46.6864,294.261 39.5,289.5 Z"/></g>
<g><path style="opacity:1" fill="#ccc7c3" d="M 378.5,293.5 C 379.492,293.328 380.158,293.662 380.5,294.5C 374.355,298.41 368.355,302.577 362.5,307C 358.671,307.758 355.338,306.758 352.5,304C 361.122,300.404 369.788,296.904 378.5,293.5 Z"/></g>
<g><path style="opacity:0.676" fill="#03263b" d="M 423.5,295.5 C 432.172,301.84 440.839,308.174 449.5,314.5C 439.706,309.706 431.039,303.372 423.5,295.5 Z"/></g>
<g><path style="opacity:0.608" fill="#01273e" d="M 393.5,304.5 C 390.725,307.605 387.392,309.938 383.5,311.5C 386.275,308.395 389.608,306.062 393.5,304.5 Z"/></g>
<g><path style="opacity:0.572" fill="#03253c" d="M 338.5,314.5 C 335.605,313.221 332.605,312.221 329.5,311.5C 324.214,312.822 318.881,313.822 313.5,314.5C 319.009,312.701 324.676,311.035 330.5,309.5C 333.568,310.691 336.235,312.358 338.5,314.5 Z"/></g>
<g><path style="opacity:0.602" fill="#01283f" d="M 79.5,309.5 C 92.1064,313.484 104.773,316.817 117.5,319.5C 104.154,318.331 91.4871,314.998 79.5,309.5 Z"/></g>
<g><path style="opacity:0.555" fill="#01273e" d="M 338.5,314.5 C 342.655,315.742 346.322,317.742 349.5,320.5C 345.345,319.258 341.678,317.258 338.5,314.5 Z"/></g>
<g><path style="opacity:0.536" fill="#002941" d="M 130.5,321.5 C 136.051,321.527 141.384,322.194 146.5,323.5C 140.931,323.624 135.598,322.957 130.5,321.5 Z"/></g>
<g><path style="opacity:0.613" fill="#01273f" d="M 349.5,320.5 C 353.504,322.169 357.504,323.836 361.5,325.5C 361.44,326.043 361.107,326.376 360.5,326.5C 356.322,325.248 352.655,323.248 349.5,320.5 Z"/></g>
<g><path style="opacity:0.621" fill="#002840" d="M 157.5,324.5 C 163.509,324.334 169.509,324.501 175.5,325C 176.823,325.816 177.489,326.983 177.5,328.5C 176.373,327.878 175.373,327.045 174.5,326C 168.652,325.827 162.985,325.327 157.5,324.5 Z"/></g>
<g><path style="opacity:0.499" fill="#012841" d="M 225.5,324.5 C 223.735,325.461 221.735,325.795 219.5,325.5C 219.963,328.482 220.296,331.482 220.5,334.5C 219.365,331.662 218.365,328.662 217.5,325.5C 220.086,324.52 222.753,324.187 225.5,324.5 Z"/></g>
<g><path style="opacity:1" fill="#b8b7b7" d="M 198.5,326.5 C 199.568,325.566 200.901,325.232 202.5,325.5C 202.719,326.675 202.386,327.675 201.5,328.5C 200.482,327.807 199.482,327.141 198.5,326.5 Z"/></g>
<g><path style="opacity:0.604" fill="#01273e" d="M 463.5,323.5 C 467.683,325.087 471.35,327.421 474.5,330.5C 470.317,328.913 466.65,326.579 463.5,323.5 Z"/></g>
<g><path style="opacity:0.705" fill="#01283f" d="M 194.5,342.5 C 200.252,344.527 205.919,346.527 211.5,348.5C 205.168,348.058 199.501,346.058 194.5,342.5 Z"/></g>
</svg>
