<?xml version="1.0" encoding="UTF-8"?>
<!DOCTYPE svg PUBLIC "-//W3C//DTD SVG 1.1//EN" "http://www.w3.org/Graphics/SVG/1.1/DTD/svg11.dtd">
<svg xmlns="http://www.w3.org/2000/svg" version="1.1" width="512px" height="512px" style="shape-rendering:geometricPrecision; text-rendering:geometricPrecision; image-rendering:optimizeQuality; fill-rule:evenodd; clip-rule:evenodd" xmlns:xlink="http://www.w3.org/1999/xlink">
<g><path style="opacity:0.957" fill="#020100" d="M 364.5,-0.5 C 370.833,-0.5 377.167,-0.5 383.5,-0.5C 396.169,2.42622 406.003,9.42622 413,20.5C 432.608,64.9701 432.275,109.303 412,153.5C 409.358,156.029 406.192,157.029 402.5,156.5C 401.542,155.038 400.376,153.705 399,152.5C 398.833,151.167 398.667,149.833 398.5,148.5C 402.613,137.386 406.113,126.053 409,114.5C 415.149,84.3221 411.816,55.3221 399,27.5C 398.292,26.6195 397.458,25.9528 396.5,25.5C 386.878,14.8018 375.211,11.9685 361.5,17C 353.455,23.0243 344.788,28.0243 335.5,32C 315.654,37.6356 295.654,42.6356 275.5,47C 233.632,58.2021 204.132,83.7021 187,123.5C 181.47,138.897 176.804,154.564 173,170.5C 167.533,182.615 159.366,192.449 148.5,200C 123.891,210.295 101.224,223.628 80.5,240C 58.2835,259.268 45.1169,283.435 41,312.5C 38.4214,337.099 45.588,358.266 62.5,376C 65.0472,378.054 67.7139,379.887 70.5,381.5C 88.1923,392.892 107.692,398.559 129,398.5C 160.89,399.713 187.223,388.38 208,364.5C 230.396,338.375 245.396,308.375 253,274.5C 260.833,256 274,242.833 292.5,235C 330.109,225.209 360.109,204.543 382.5,173C 386.075,171.258 389.741,171.092 393.5,172.5C 396.314,176.96 396.148,181.294 393,185.5C 366.996,218.81 333.496,240.977 292.5,252C 281.166,258.334 272.999,267.501 268,279.5C 257.955,321.775 237.455,357.941 206.5,388C 184.365,406.045 158.865,414.545 130,413.5C 105.328,413.958 82.4948,407.791 61.5,395C 36.6412,376.986 24.6412,352.486 25.5,321.5C 25.9774,291.894 35.8107,265.894 55,243.5C 70.5466,226.608 88.38,212.775 108.5,202C 119.621,196.852 130.621,191.519 141.5,186C 149.182,179.979 155.015,172.479 159,163.5C 163.723,138.66 172.39,115.327 185,93.5C 207.274,60.9226 237.774,40.0893 276.5,31C 292.172,27.3325 307.838,23.6658 323.5,20C 333.907,15.9642 343.573,10.6309 352.5,4C 356.571,2.36954 360.571,0.869545 364.5,-0.5 Z"/></g>
<g><path style="opacity:1" fill="#e8b664" d="M 396.5,25.5 C 376.4,32.2167 357.733,41.55 340.5,53.5C 328.539,60.9589 316.706,68.6255 305,76.5C 300.261,73.88 295.427,71.38 290.5,69C 281.667,67.1667 278.167,70.6667 280,79.5C 283.923,82.3677 288.09,84.8677 292.5,87C 285.039,92.7926 277.872,98.9593 271,105.5C 263.659,100.413 255.825,96.2459 247.5,93C 240.844,92.6584 238.011,95.8251 239,102.5C 239.465,103.931 240.299,105.097 241.5,106C 247.822,108.826 253.822,112.159 259.5,116C 251.969,123.197 244.802,130.697 238,138.5C 232.39,134.431 226.223,132.264 219.5,132C 215.293,135.07 214.46,138.903 217,143.5C 220.623,145.722 224.123,148.056 227.5,150.5C 216.706,162.791 206.873,175.791 198,189.5C 194.167,193.333 190.333,197.167 186.5,201C 173.355,211.31 160.355,221.81 147.5,232.5C 142.813,229.716 137.813,227.716 132.5,226.5C 126.059,228.382 124.226,232.382 127,238.5C 129.748,240.458 132.582,242.291 135.5,244C 128.793,251.038 122.46,258.372 116.5,266C 112.813,264.762 108.98,263.596 105,262.5C 99.2078,263.419 96.8744,266.752 98,272.5C 100.42,275.427 103.253,277.761 106.5,279.5C 99.9849,288.342 94.3182,297.675 89.5,307.5C 76.3569,330.302 70.0235,354.969 70.5,381.5C 67.7139,379.887 65.0472,378.054 62.5,376C 45.588,358.266 38.4214,337.099 41,312.5C 45.1169,283.435 58.2835,259.268 80.5,240C 101.224,223.628 123.891,210.295 148.5,200C 159.366,192.449 167.533,182.615 173,170.5C 176.804,154.564 181.47,138.897 187,123.5C 204.132,83.7021 233.632,58.2021 275.5,47C 295.654,42.6356 315.654,37.6356 335.5,32C 344.788,28.0243 353.455,23.0243 361.5,17C 375.211,11.9685 386.878,14.8018 396.5,25.5 Z"/></g>
<g><path style="opacity:1" fill="#faca7e" d="M 396.5,25.5 C 397.458,25.9528 398.292,26.6195 399,27.5C 411.816,55.3221 415.149,84.3221 409,114.5C 406.113,126.053 402.613,137.386 398.5,148.5C 398.667,149.833 398.833,151.167 399,152.5C 400.376,153.705 401.542,155.038 402.5,156.5C 399.472,161.85 396.472,167.184 393.5,172.5C 389.741,171.092 386.075,171.258 382.5,173C 360.109,204.543 330.109,225.209 292.5,235C 274,242.833 260.833,256 253,274.5C 245.396,308.375 230.396,338.375 208,364.5C 187.223,388.38 160.89,399.713 129,398.5C 107.692,398.559 88.1923,392.892 70.5,381.5C 70.0235,354.969 76.3569,330.302 89.5,307.5C 90.3277,314.161 93.9943,316.661 100.5,315C 107.124,305.587 113.624,296.087 120,286.5C 135.458,296.958 148.625,309.791 159.5,325C 151.219,331.946 142.386,338.112 133,343.5C 130.32,356.262 134.82,359.428 146.5,353C 153.932,348.201 161.098,343.034 168,337.5C 171.477,345.017 176.477,346.351 183,341.5C 183.875,340.127 184.375,338.627 184.5,337C 183.191,334.043 181.857,331.043 180.5,328C 187.687,320.98 194.687,313.814 201.5,306.5C 203.475,309.609 205.808,312.443 208.5,315C 216.122,316.378 219.622,313.211 219,305.5C 216.302,301.633 213.802,297.633 211.5,293.5C 215.333,287.833 219.167,282.167 223,276.5C 229.159,264.178 235.826,252.178 243,240.5C 255.086,226.636 268.752,214.636 284,204.5C 286.045,207.423 288.212,210.257 290.5,213C 298.791,214.955 302.291,211.788 301,203.5C 299.561,200.397 297.727,197.564 295.5,195C 303.351,187.648 311.351,180.481 319.5,173.5C 323.956,179.579 328.29,185.746 332.5,192C 336.388,194.223 339.888,193.723 343,190.5C 344.373,188.305 344.706,185.971 344,183.5C 339.558,176.06 334.725,168.894 329.5,162C 335.692,155.109 341.526,147.942 347,140.5C 349.501,144.031 352.334,147.198 355.5,150C 362.652,150.848 365.818,147.682 365,140.5C 362.542,135.747 359.708,131.247 356.5,127C 364.782,114.103 371.449,100.436 376.5,86C 375.296,79.8941 371.629,77.5607 365.5,79C 364.333,80.1667 363.167,81.3333 362,82.5C 358.41,93.0121 353.744,103.012 348,112.5C 347.282,113.451 346.449,113.617 345.5,113C 337.167,103.333 328.167,94.3333 318.5,86C 328.246,79.0434 338.079,72.2101 348,65.5C 350.839,58.1804 348.339,54.1804 340.5,53.5C 357.733,41.55 376.4,32.2167 396.5,25.5 Z"/></g>
<g><path style="opacity:1" fill="#050402" d="M 340.5,53.5 C 348.339,54.1804 350.839,58.1804 348,65.5C 338.079,72.2101 328.246,79.0434 318.5,86C 328.167,94.3333 337.167,103.333 345.5,113C 346.449,113.617 347.282,113.451 348,112.5C 353.744,103.012 358.41,93.0121 362,82.5C 363.167,81.3333 364.333,80.1667 365.5,79C 371.629,77.5607 375.296,79.8941 376.5,86C 371.449,100.436 364.782,114.103 356.5,127C 359.708,131.247 362.542,135.747 365,140.5C 365.818,147.682 362.652,150.848 355.5,150C 352.334,147.198 349.501,144.031 347,140.5C 341.526,147.942 335.692,155.109 329.5,162C 334.725,168.894 339.558,176.06 344,183.5C 344.706,185.971 344.373,188.305 343,190.5C 339.888,193.723 336.388,194.223 332.5,192C 328.29,185.746 323.956,179.579 319.5,173.5C 311.351,180.481 303.351,187.648 295.5,195C 297.727,197.564 299.561,200.397 301,203.5C 302.291,211.788 298.791,214.955 290.5,213C 288.212,210.257 286.045,207.423 284,204.5C 268.752,214.636 255.086,226.636 243,240.5C 235.826,252.178 229.159,264.178 223,276.5C 219.167,282.167 215.333,287.833 211.5,293.5C 213.802,297.633 216.302,301.633 219,305.5C 219.622,313.211 216.122,316.378 208.5,315C 205.808,312.443 203.475,309.609 201.5,306.5C 194.687,313.814 187.687,320.98 180.5,328C 181.857,331.043 183.191,334.043 184.5,337C 184.375,338.627 183.875,340.127 183,341.5C 176.477,346.351 171.477,345.017 168,337.5C 161.098,343.034 153.932,348.201 146.5,353C 134.82,359.428 130.32,356.262 133,343.5C 142.386,338.112 151.219,331.946 159.5,325C 148.625,309.791 135.458,296.958 120,286.5C 113.624,296.087 107.124,305.587 100.5,315C 93.9943,316.661 90.3277,314.161 89.5,307.5C 94.3182,297.675 99.9849,288.342 106.5,279.5C 103.253,277.761 100.42,275.427 98,272.5C 96.8744,266.752 99.2078,263.419 105,262.5C 108.98,263.596 112.813,264.762 116.5,266C 122.46,258.372 128.793,251.038 135.5,244C 132.582,242.291 129.748,240.458 127,238.5C 124.226,232.382 126.059,228.382 132.5,226.5C 137.813,227.716 142.813,229.716 147.5,232.5C 160.355,221.81 173.355,211.31 186.5,201C 190.333,197.167 194.167,193.333 198,189.5C 206.873,175.791 216.706,162.791 227.5,150.5C 224.123,148.056 220.623,145.722 217,143.5C 214.46,138.903 215.293,135.07 219.5,132C 226.223,132.264 232.39,134.431 238,138.5C 244.802,130.697 251.969,123.197 259.5,116C 253.822,112.159 247.822,108.826 241.5,106C 240.299,105.097 239.465,103.931 239,102.5C 238.011,95.8251 240.844,92.6584 247.5,93C 255.825,96.2459 263.659,100.413 271,105.5C 277.872,98.9593 285.039,92.7926 292.5,87C 288.09,84.8677 283.923,82.3677 280,79.5C 278.167,70.6667 281.667,67.1667 290.5,69C 295.427,71.38 300.261,73.88 305,76.5C 316.706,68.6255 328.539,60.9589 340.5,53.5 Z"/></g>
<g><path style="opacity:1" fill="#f8c87e" d="M 305.5,95.5 C 317.812,104.479 328.479,115.146 337.5,127.5C 332.618,135.554 326.784,142.887 320,149.5C 309.621,136.287 297.788,124.62 284.5,114.5C 291.221,107.775 298.221,101.442 305.5,95.5 Z"/></g>
<g><path style="opacity:1" fill="#f9ca7e" d="M 271.5,125.5 C 272.552,125.351 273.552,125.517 274.5,126C 287.316,136.316 298.982,147.816 309.5,160.5C 302.484,168.35 294.984,175.683 287,182.5C 276.324,169.324 264.49,157.324 251.5,146.5C 258.188,139.48 264.855,132.48 271.5,125.5 Z"/></g>
<g><path style="opacity:1" fill="#f9ca7e" d="M 240.5,158.5 C 253.898,167.729 265.565,178.896 275.5,192C 260.799,202.03 247.299,213.53 235,226.5C 225.739,239.345 217.739,253.012 211,267.5C 208,271.833 205,276.167 202,280.5C 190.108,265.607 176.608,252.44 161.5,241C 172.231,230.935 183.565,221.602 195.5,213C 207.555,201.361 218.055,188.528 227,174.5C 231.711,169.294 236.211,163.961 240.5,158.5 Z"/></g>
<g><path style="opacity:1" fill="#f8c97e" d="M 148.5,252.5 C 150.783,252.608 152.783,253.441 154.5,255C 169.167,265.667 181.833,278.333 192.5,293C 186.372,301.462 179.206,308.962 171,315.5C 159.286,299.619 145.453,285.952 129.5,274.5C 135.108,266.557 141.442,259.224 148.5,252.5 Z"/></g>
<g><path style="opacity:0.962" fill="#020101" d="M 359.5,511.5 C 351.833,511.5 344.167,511.5 336.5,511.5C 320.764,507.879 307.264,500.212 296,488.5C 293.891,485.345 294.058,482.345 296.5,479.5C 299.594,477.653 302.928,477.153 306.5,478C 314.567,485.702 323.9,491.369 334.5,495C 354.974,498.953 372.474,493.453 387,478.5C 389.358,475.778 391.191,472.778 392.5,469.5C 394.993,465.542 396.827,461.209 398,456.5C 399.269,446.25 398.269,436.25 395,426.5C 371.447,413.947 353.613,395.78 341.5,372C 331.172,371.5 320.839,371.334 310.5,371.5C 303.98,371.296 297.647,370.129 291.5,368C 282.641,365.515 276.141,368.348 272,376.5C 270.662,398.129 273.662,419.129 281,439.5C 283.645,445.288 286.145,451.121 288.5,457C 288.073,460.023 286.739,462.523 284.5,464.5C 280.397,465.231 276.897,464.231 274,461.5C 258.372,431.735 253.372,400.402 259,367.5C 266.625,354.941 277.791,349.774 292.5,352C 306.239,356.308 320.239,357.475 334.5,355.5C 328.564,334.907 326.397,313.907 328,292.5C 332.898,278.276 342.898,270.943 358,270.5C 368.762,272.619 379.595,274.286 390.5,275.5C 413.91,271.432 434.243,277.432 451.5,293.5C 468.441,311.38 479.608,332.38 485,356.5C 487.024,392.305 471.191,416.138 437.5,428C 429.304,430.117 420.971,430.95 412.5,430.5C 418.449,465.77 405.449,491.27 373.5,507C 368.714,508.522 364.048,510.022 359.5,511.5 Z"/></g>
<g><path style="opacity:1" fill="#dd7d65" d="M 382.5,290.5 C 385.811,329.65 403.811,359.817 436.5,381C 445.143,385.993 454.476,388.16 464.5,387.5C 450.458,410.689 430.125,419.189 403.5,413C 373.228,398.375 354.395,374.542 347,341.5C 343.831,326.649 342.498,311.649 343,296.5C 346.482,288.178 352.649,284.678 361.5,286C 368.368,288.144 375.368,289.644 382.5,290.5 Z"/></g>
<g><path style="opacity:1" fill="#e5927f" d="M 464.5,387.5 C 454.476,388.16 445.143,385.993 436.5,381C 403.811,359.817 385.811,329.65 382.5,290.5C 407.749,284.864 428.916,291.53 446,310.5C 456.53,323.222 464.196,337.555 469,353.5C 471.89,365.448 470.39,376.781 464.5,387.5 Z"/></g>
<g><path style="opacity:0.999" fill="#de7d65" d="M 310.5,371.5 C 314.316,411.335 332.983,441.835 366.5,463C 374.602,467.31 383.269,469.476 392.5,469.5C 391.191,472.778 389.358,475.778 387,478.5C 372.474,493.453 354.974,498.953 334.5,495C 323.9,491.369 314.567,485.702 306.5,478C 302.928,477.153 299.594,477.653 296.5,479.5C 292.47,474.476 288.47,469.476 284.5,464.5C 286.739,462.523 288.073,460.023 288.5,457C 286.145,451.121 283.645,445.288 281,439.5C 273.662,419.129 270.662,398.129 272,376.5C 276.141,368.348 282.641,365.515 291.5,368C 297.647,370.129 303.98,371.296 310.5,371.5 Z"/></g>
<g><path style="opacity:1" fill="#e6927f" d="M 310.5,371.5 C 320.839,371.334 331.172,371.5 341.5,372C 353.613,395.78 371.447,413.947 395,426.5C 398.269,436.25 399.269,446.25 398,456.5C 396.827,461.209 394.993,465.542 392.5,469.5C 383.269,469.476 374.602,467.31 366.5,463C 332.983,441.835 314.316,411.335 310.5,371.5 Z"/></g>
</svg>
