<?xml version="1.0" encoding="UTF-8"?>
<!DOCTYPE svg PUBLIC "-//W3C//DTD SVG 1.1//EN" "http://www.w3.org/Graphics/SVG/1.1/DTD/svg11.dtd">
<svg xmlns="http://www.w3.org/2000/svg" version="1.1" width="512px" height="512px" style="shape-rendering:geometricPrecision; text-rendering:geometricPrecision; image-rendering:optimizeQuality; fill-rule:evenodd; clip-rule:evenodd" xmlns:xlink="http://www.w3.org/1999/xlink">
<g><path style="opacity:0.981" fill="#010000" d="M 331.5,15.5 C 342.485,14.4569 345.985,19.1235 342,29.5C 294.122,61.5132 241.288,78.1799 183.5,79.5C 183.5,87.5 183.5,95.5 183.5,103.5C 205.814,105.407 223.981,115.073 238,132.5C 241.916,137.996 245.582,143.663 249,149.5C 251.016,151.684 253.183,153.684 255.5,155.5C 258.456,152.042 261.623,148.708 265,145.5C 283.448,113.193 311.281,99.3598 348.5,104C 368.658,107.16 385.158,116.66 398,132.5C 401.916,137.996 405.582,143.663 409,149.5C 476.046,222.415 490.712,305.081 453,397.5C 448.304,408.401 442.471,418.567 435.5,428C 440.159,434.137 441.826,440.97 440.5,448.5C 449.621,449.596 457.955,452.763 465.5,458C 471.167,463.319 473.001,469.819 471,477.5C 467.222,483.989 461.722,488.489 454.5,491C 449.297,492.841 443.964,494.174 438.5,495C 428.5,495.667 418.5,495.667 408.5,495C 399.588,493.863 391.254,491.029 383.5,486.5C 375.746,491.029 367.412,493.863 358.5,495C 348.5,495.667 338.5,495.667 328.5,495C 316.691,493.759 306.358,489.259 297.5,481.5C 286.663,486.2 275.33,488.2 263.5,487.5C 249.908,488.215 237.075,485.549 225,479.5C 198.927,497.208 171.093,500.375 141.5,489C 125.719,480.886 113.553,469.053 105,453.5C 84.4688,438.129 69.4688,418.462 60,394.5C 44.463,354.611 37.7964,313.278 40,270.5C 44.1065,241.293 54.1065,214.293 70,189.5C 80.2232,173.74 91.8898,159.073 105,145.5C 118.526,120.652 139.36,106.652 167.5,103.5C 167.5,95.5 167.5,87.5 167.5,79.5C 132.215,80.2618 99.2146,72.0951 68.5,55C 61.3522,49.8503 54.8522,44.0169 49,37.5C 45.1579,29.7096 47.4913,24.7096 56,22.5C 61.6841,26.1689 66.8507,30.6689 71.5,36C 88.665,47.9502 107.665,55.6168 128.5,59C 141.396,61.3563 154.396,62.5229 167.5,62.5C 167.334,53.4938 167.5,44.4938 168,35.5C 169.529,32.484 172.029,31.1506 175.5,31.5C 178.971,31.1506 181.471,32.484 183,35.5C 183.5,44.4938 183.666,53.4938 183.5,62.5C 237.456,60.8457 286.789,45.1791 331.5,15.5 Z"/></g>
<g><path style="opacity:1" fill="#945639" d="M 164.5,119.5 C 187.472,117.1 206.972,124.1 223,140.5C 227.125,145.301 230.458,150.635 233,156.5C 303.379,230.808 315.713,314.141 270,406.5C 261.78,421.72 249.947,433.22 234.5,441C 233.257,442.154 232.257,443.488 231.5,445C 221.539,448.29 216.039,455.123 215,465.5C 196.39,479.476 175.89,482.976 153.5,476C 137.146,469.647 125.313,458.48 118,442.5C 95.0649,425.864 79.3982,403.864 71,376.5C 61.2309,346.618 56.0642,315.951 55.5,284.5C 56.6835,258.114 63.8502,233.447 77,210.5C 88.239,190.704 101.906,172.704 118,156.5C 127.783,136.874 143.283,124.541 164.5,119.5 Z"/></g>
<g><path style="opacity:1" fill="#aa6442" d="M 324.5,119.5 C 347.472,117.1 366.972,124.1 383,140.5C 387.125,145.301 390.458,150.635 393,156.5C 463.418,230.788 475.752,314.121 430,406.5C 427.667,409.833 425.333,413.167 423,416.5C 419.434,413.301 415.6,410.467 411.5,408C 422.113,392.266 429.613,375.099 434,356.5C 440.862,322.878 441.195,289.211 435,255.5C 420.575,191.392 380.742,162.559 315.5,169C 301.413,171.628 288.58,177.128 277,185.5C 273.167,180.333 269.333,175.167 265.5,170C 269.299,165.199 273.466,160.699 278,156.5C 287.783,136.874 303.283,124.541 324.5,119.5 Z"/></g>
<g><path style="opacity:1" fill="#000000" d="M 172.5,135.5 C 177.152,134.984 180.652,136.651 183,140.5C 183.667,246.167 183.667,351.833 183,457.5C 182.018,461.624 179.352,463.624 175,463.5C 171.112,463.277 168.779,461.277 168,457.5C 167.333,351.833 167.333,246.167 168,140.5C 169.025,138.313 170.525,136.646 172.5,135.5 Z"/></g>
<g><path style="opacity:1" fill="#030101" d="M 140.5,151.5 C 148.678,150.842 152.178,154.509 151,162.5C 127.398,205.913 114.231,252.247 111.5,301.5C 113.208,349.797 126.375,394.797 151,436.5C 151.742,446.039 147.575,449.205 138.5,446C 104.735,391.443 91.2354,332.276 98,268.5C 104.816,228.384 117.816,190.384 137,154.5C 138.145,153.364 139.312,152.364 140.5,151.5 Z"/></g>
<g><path style="opacity:1" fill="#030101" d="M 204.5,151.5 C 208.192,150.971 211.358,151.971 214,154.5C 238.916,200.408 252.749,249.408 255.5,301.5C 253.801,353.471 239.467,401.638 212.5,446C 203.42,449.215 199.253,446.048 200,436.5C 224.51,394.79 237.676,349.79 239.5,301.5C 236.769,252.247 223.602,205.913 200,162.5C 198.776,157.626 200.276,153.959 204.5,151.5 Z"/></g>
<g><path style="opacity:1" fill="#77462e" d="M 323.5,183.5 C 336.492,182.613 349.158,184.113 361.5,188C 368.167,190.333 368.167,192.667 361.5,195C 344.92,200.417 328.253,200.75 311.5,196C 302.167,193 302.167,190 311.5,187C 315.623,185.808 319.623,184.641 323.5,183.5 Z"/></g>
<g><path style="opacity:1" fill="#5a3523" d="M 290.5,207.5 C 293.518,207.335 296.518,207.502 299.5,208C 308.022,212.214 317.022,214.714 326.5,215.5C 316.093,216.748 306.093,219.415 296.5,223.5C 294.5,218.167 292.5,212.833 290.5,207.5 Z"/></g>
<g><path style="opacity:1" fill="#5a3523" d="M 371.5,207.5 C 380.908,207.727 389.741,210.06 398,214.5C 398.617,215.449 398.451,216.282 397.5,217C 385.656,223.658 373.656,224.325 361.5,219C 355.518,217.725 349.518,216.559 343.5,215.5C 349.518,214.441 355.518,213.275 361.5,212C 365.229,211.156 368.563,209.656 371.5,207.5 Z"/></g>
<g><path style="opacity:1" fill="#824d34" d="M 406.5,229.5 C 409.434,230.289 411.268,232.289 412,235.5C 413.697,239.59 415.197,243.757 416.5,248C 416.167,248.5 415.833,249 415.5,249.5C 405.66,243.705 394.993,240.705 383.5,240.5C 383.5,239.5 383.5,238.5 383.5,237.5C 392.097,237.191 399.764,234.525 406.5,229.5 Z"/></g>
<g><path style="opacity:1" fill="#76452e" d="M 323.5,231.5 C 332.874,231.269 342.208,231.769 351.5,233C 356.905,234.023 361.905,236.023 366.5,239C 355.35,240.201 345.017,243.701 335.5,249.5C 325.972,243.769 315.639,240.435 304.5,239.5C 306.457,237.515 308.79,236.015 311.5,235C 315.623,233.808 319.623,232.641 323.5,231.5 Z"/></g>
<g><path style="opacity:1" fill="#5b3524" d="M 364.5,255.5 C 377.167,254.581 389.501,256.081 401.5,260C 408.167,262.333 408.167,264.667 401.5,267C 388.063,272.656 374.73,272.656 361.5,267C 355.83,265.833 350.163,264.666 344.5,263.5C 346.457,261.515 348.79,260.015 351.5,259C 355.919,257.648 360.252,256.481 364.5,255.5 Z"/></g>
<g><path style="opacity:1" fill="#593423" d="M 308.5,256.5 C 315.182,257.279 321.182,259.613 326.5,263.5C 320.784,264.304 315.118,265.304 309.5,266.5C 309.384,263.14 309.051,259.807 308.5,256.5 Z"/></g>
<g><path style="opacity:1" fill="#834e34" d="M 420.5,271.5 C 422.091,275.204 422.924,279.204 423,283.5C 423.667,291.5 423.667,299.5 423,307.5C 419.352,299.413 413.185,294.246 404.5,292C 397.564,290.18 390.564,288.68 383.5,287.5C 395.29,286.306 406.29,282.806 416.5,277C 418.464,275.549 419.797,273.716 420.5,271.5 Z"/></g>
<g><path style="opacity:1" fill="#76452e" d="M 323.5,279.5 C 332.874,279.269 342.208,279.769 351.5,281C 356.905,282.023 361.905,284.023 366.5,287C 355.429,288.412 345.096,291.912 335.5,297.5C 328.227,292.681 320.227,290.014 311.5,289.5C 311.5,287.167 311.5,284.833 311.5,282.5C 315.687,281.787 319.687,280.787 323.5,279.5 Z"/></g>
<g><path style="opacity:1" fill="#5b3524" d="M 364.5,303.5 C 377.167,302.581 389.501,304.081 401.5,308C 408.167,310.333 408.167,312.667 401.5,315C 388.063,320.656 374.73,320.656 361.5,315C 355.83,313.833 350.163,312.666 344.5,311.5C 346.457,309.515 348.79,308.015 351.5,307C 355.919,305.648 360.252,304.481 364.5,303.5 Z"/></g>
<g><path style="opacity:1" fill="#573322" d="M 310.5,305.5 C 316.564,305.741 321.897,307.741 326.5,311.5C 321.096,312.239 315.762,313.239 310.5,314.5C 310.5,311.5 310.5,308.5 310.5,305.5 Z"/></g>
<g><path style="opacity:1" fill="#834e34" d="M 421.5,318.5 C 422.271,328.445 421.437,338.445 419,348.5C 415.707,345.213 411.873,342.713 407.5,341C 399.629,338.593 391.629,336.759 383.5,335.5C 395.29,334.306 406.29,330.806 416.5,325C 418.765,323.242 420.432,321.075 421.5,318.5 Z"/></g>
<g><path style="opacity:1" fill="#76462e" d="M 323.5,327.5 C 332.874,327.269 342.208,327.769 351.5,329C 356.905,330.023 361.905,332.023 366.5,335C 355.35,336.201 345.017,339.701 335.5,345.5C 327.172,340.501 318.172,337.501 308.5,336.5C 308.286,334.856 308.62,333.356 309.5,332C 314.184,330.17 318.851,328.67 323.5,327.5 Z"/></g>
<g><path style="opacity:1" fill="#5b3524" d="M 365.5,351.5 C 377.836,350.612 389.836,352.112 401.5,356C 408.167,358.333 408.167,360.667 401.5,363C 391.795,366.577 381.795,367.91 371.5,367C 362.974,362.805 353.974,360.305 344.5,359.5C 346.457,357.515 348.79,356.015 351.5,355C 356.224,353.506 360.891,352.339 365.5,351.5 Z"/></g>
<g><path style="opacity:1" fill="#5a3523" d="M 305.5,352.5 C 313.11,352.759 320.11,354.926 326.5,359C 318.711,360.364 311.045,362.197 303.5,364.5C 304.038,360.476 304.705,356.476 305.5,352.5 Z"/></g>
<g><path style="opacity:1" fill="#75452e" d="M 323.5,375.5 C 336.492,374.613 349.158,376.113 361.5,380C 363.555,380.687 365.221,381.854 366.5,383.5C 359.737,388.45 352.07,391.117 343.5,391.5C 336.18,384.671 327.513,380.171 317.5,378C 319.502,376.981 321.502,376.148 323.5,375.5 Z"/></g>
<g><path style="opacity:1" fill="#844e34" d="M 409.5,376.5 C 407.5,384.182 404,391.516 399,398.5C 398.196,399.804 397.029,400.471 395.5,400.5C 389.873,398.677 384.206,397.01 378.5,395.5C 381.546,391.696 383.212,387.362 383.5,382.5C 392.714,382.361 401.38,380.361 409.5,376.5 Z"/></g>
<g><path style="opacity:1" fill="#5b3524" d="M 294.5,391.5 C 301.92,391.536 309.253,392.369 316.5,394C 320.319,395.074 323.652,396.907 326.5,399.5C 322.132,402.908 317.132,405.075 311.5,406C 303.542,407.39 295.542,407.723 287.5,407C 290.522,402.124 292.856,396.957 294.5,391.5 Z"/></g>
<g><path style="opacity:1" fill="#794730" d="M 356.5,404.5 C 357.5,404.5 358.5,404.5 359.5,404.5C 360.259,408.24 358.759,409.907 355,409.5C 351.75,409.208 348.583,408.542 345.5,407.5C 349.319,406.598 352.986,405.598 356.5,404.5 Z"/></g>
<g><path style="opacity:1" fill="#5b3524" d="M 374.5,411.5 C 393.05,415.22 408.884,423.887 422,437.5C 423.559,439.217 424.392,441.217 424.5,443.5C 405.962,439.8 390.129,431.133 377,417.5C 375.878,415.593 375.045,413.593 374.5,411.5 Z"/></g>
<g><path style="opacity:1" fill="#a66240" d="M 278.5,422.5 C 282.273,422.263 285.94,422.763 289.5,424C 286.395,430.928 287.395,437.261 292.5,443C 283.287,441.467 273.954,440.133 264.5,439C 270.005,434.119 274.672,428.619 278.5,422.5 Z"/></g>
<g><path style="opacity:1" fill="#76462e" d="M 323.5,423.5 C 336.492,422.613 349.158,424.113 361.5,428C 368.167,430.333 368.167,432.667 361.5,435C 344.937,440.416 328.27,440.749 311.5,436C 302.167,433 302.167,430 311.5,427C 315.623,425.808 319.623,424.641 323.5,423.5 Z"/></g>
<g><path style="opacity:1" fill="#a66240" d="M 379.5,441.5 C 384.641,444.907 389.974,448.074 395.5,451C 391.372,452.898 387.372,455.065 383.5,457.5C 378.518,454.175 373.185,451.675 367.5,450C 372.236,448.08 376.236,445.247 379.5,441.5 Z"/></g>
<g><path style="opacity:1" fill="#955839" d="M 306.5,452.5 C 308.089,451.379 309.756,451.546 311.5,453C 309.443,455.081 307.777,454.914 306.5,452.5 Z"/></g>
<g><path style="opacity:1" fill="#5b3524" d="M 253.5,455.5 C 265.819,454.612 277.819,456.112 289.5,460C 296.167,462.333 296.167,464.667 289.5,467C 272.938,472.556 256.272,472.889 239.5,468C 230.167,465 230.167,462 239.5,459C 244.224,457.506 248.891,456.339 253.5,455.5 Z"/></g>
<g><path style="opacity:1" fill="#5b3524" d="M 333.5,463.5 C 345.836,462.612 357.836,464.112 369.5,468C 376.167,470.333 376.167,472.667 369.5,475C 352.938,480.556 336.272,480.889 319.5,476C 310.167,473 310.167,470 319.5,467C 324.224,465.506 328.891,464.339 333.5,463.5 Z"/></g>
<g><path style="opacity:1" fill="#5b3524" d="M 413.5,463.5 C 425.836,462.612 437.836,464.112 449.5,468C 456.167,470.333 456.167,472.667 449.5,475C 432.938,480.556 416.272,480.889 399.5,476C 390.167,473 390.167,470 399.5,467C 404.224,465.506 408.891,464.339 413.5,463.5 Z"/></g>
</svg>
