<?xml version="1.0" encoding="UTF-8"?>
<!DOCTYPE svg PUBLIC "-//W3C//DTD SVG 1.1//EN" "http://www.w3.org/Graphics/SVG/1.1/DTD/svg11.dtd">
<svg xmlns="http://www.w3.org/2000/svg" version="1.1" width="512px" height="512px" style="shape-rendering:geometricPrecision; text-rendering:geometricPrecision; image-rendering:optimizeQuality; fill-rule:evenodd; clip-rule:evenodd" xmlns:xlink="http://www.w3.org/1999/xlink">
<g><path style="opacity:0.962" fill="#010000" d="M 218.5,-0.5 C 220.833,-0.5 223.167,-0.5 225.5,-0.5C 264.5,6.32783 289,28.9945 299,67.5C 299.333,73.1667 299.667,78.8333 300,84.5C 306.418,87.9576 312.585,91.791 318.5,96C 322.203,98.354 326.203,99.854 330.5,100.5C 327.849,84.4389 326.182,68.2723 325.5,52C 325.815,36.3102 327.649,20.8102 331,5.5C 336.728,0.0122527 342.062,0.345586 347,6.5C 345.933,21.6469 344.767,36.8136 343.5,52C 344.02,68.8067 346.353,85.3067 350.5,101.5C 361.49,97.2561 371.657,91.5895 381,84.5C 382.187,46.67 400.021,20.17 434.5,5C 441.509,2.66597 448.509,0.832638 455.5,-0.5C 458.167,-0.5 460.833,-0.5 463.5,-0.5C 491.518,4.82807 504.685,21.8281 503,50.5C 496.364,84.8024 476.531,107.636 443.5,119C 427.745,123.644 412.745,121.978 398.5,114C 394.275,110.73 390.608,106.897 387.5,102.5C 376.742,110.046 365.075,115.713 352.5,119.5C 351.678,142.085 348.845,164.419 344,186.5C 343.002,194.471 342.335,202.471 342,210.5C 337.809,218.015 332.476,219.015 326,213.5C 324.907,209.784 324.407,205.95 324.5,202C 326.626,181.409 329.459,160.909 333,140.5C 333.811,133.586 333.645,126.752 332.5,120C 318.429,117.13 305.762,111.297 294.5,102.5C 279.337,120.547 260.337,126.047 237.5,119C 202.357,106.183 182.357,81.1831 177.5,44C 179.325,18.0154 192.992,3.18211 218.5,-0.5 Z"/></g>
<g><path style="opacity:1" fill="#775447" d="M 243.5,23.5 C 249.162,29.3299 254.662,35.3299 260,41.5C 269.562,54.6373 273.562,69.304 272,85.5C 270.922,89.9805 269.089,93.9805 266.5,97.5C 258.37,93.5312 252.87,87.1979 250,78.5C 248.13,66.9036 246.796,55.2369 246,43.5C 243.787,34.5713 239.62,26.7379 233.5,20C 237.068,20.2738 240.401,21.4405 243.5,23.5 Z"/></g>
<g><path style="opacity:1" fill="#fbe9b0" d="M 445.5,19.5 C 446.239,19.369 446.906,19.5357 447.5,20C 440.443,28.6166 435.943,38.4499 434,49.5C 436.577,65.8488 432.744,80.3488 422.5,93C 419.167,95 415.833,97 412.5,99C 411.167,99.6667 409.833,99.6667 408.5,99C 404.072,95.9075 401.239,91.7409 400,86.5C 397.711,70.3732 401.711,56.0399 412,43.5C 421.162,32.4745 432.329,24.4745 445.5,19.5 Z"/></g>
<g><path style="opacity:1" fill="#fbe8b0" d="M 204.5,22.5 C 218.83,25.7224 227.33,34.7224 230,49.5C 227.772,69.0622 232.605,86.5622 244.5,102C 217.614,94.1046 201.447,76.2713 196,48.5C 194.549,38.4084 197.382,29.7418 204.5,22.5 Z"/></g>
<g><path style="opacity:1" fill="#4d332d" d="M 444.5,91.5 C 450.866,87.6052 456.033,81.9385 460,74.5C 468.268,60.2949 470.268,45.2949 466,29.5C 465.329,28.7476 464.496,28.4142 463.5,28.5C 466.661,25.7496 470.327,23.7496 474.5,22.5C 482.223,27.4438 485.89,34.6105 485.5,44C 481.936,72.2717 466.769,91.4384 440,101.5C 439.5,101.167 439,100.833 438.5,100.5C 440.275,97.2624 442.275,94.2624 444.5,91.5 Z"/></g>
<g><path style="opacity:1" fill="#4c332d" d="M 243.5,23.5 C 266.263,34.1126 279.263,51.9459 282.5,77C 282.39,85.0005 279.723,92.0005 274.5,98C 271.645,99.8691 268.978,99.7024 266.5,97.5C 269.089,93.9805 270.922,89.9805 272,85.5C 273.562,69.304 269.562,54.6373 260,41.5C 254.662,35.3299 249.162,29.3299 243.5,23.5 Z"/></g>
<g><path style="opacity:1" fill="#765246" d="M 463.5,28.5 C 464.496,28.4142 465.329,28.7476 466,29.5C 470.268,45.2949 468.268,60.2949 460,74.5C 456.033,81.9385 450.866,87.6052 444.5,91.5C 446.091,87.2276 447.591,82.8942 449,78.5C 449.937,68.1494 450.937,57.816 452,47.5C 453.824,39.836 457.657,33.5027 463.5,28.5 Z"/></g>
<g><path style="opacity:0.928" fill="#000000" d="M 97.5,59.5 C 104.381,59.0998 108.381,62.2664 109.5,69C 104.721,80.1687 101.055,91.6687 98.5,103.5C 99.4846,115.132 103.985,125.132 112,133.5C 119.667,147.835 121.333,162.835 117,178.5C 114.53,185.578 111.863,192.578 109,199.5C 105.707,205.612 100.873,207.112 94.5,204C 92.2585,202.014 91.2585,199.514 91.5,196.5C 93.749,187.994 96.5823,179.661 100,171.5C 102.874,156.121 98.874,142.787 88,131.5C 79.4451,115.285 78.4451,98.6182 85,81.5C 87.3333,75.8333 89.6667,70.1667 92,64.5C 93.4055,62.2563 95.2389,60.5897 97.5,59.5 Z"/></g>
<g><path style="opacity:0.93" fill="#000000" d="M 140.5,59.5 C 149.034,59.861 152.534,64.1943 151,72.5C 147.603,80.692 144.603,89.0253 142,97.5C 140.771,105.921 142.105,113.921 146,121.5C 160.318,137.759 164.985,156.425 160,177.5C 156.933,186.715 153.099,195.548 148.5,204C 140.581,207.733 135.581,205.399 133.5,197C 136.663,188.18 139.829,179.347 143,170.5C 144.829,160.194 143.162,150.527 138,141.5C 123.682,124.24 120.015,104.906 127,83.5C 129.667,76.8333 132.333,70.1667 135,63.5C 136.812,62.0229 138.645,60.6896 140.5,59.5 Z"/></g>
<g><path style="opacity:0.968" fill="#010100" d="M 511.5,172.5 C 511.5,178.833 511.5,185.167 511.5,191.5C 504.643,220.532 487.643,241.365 460.5,254C 440.978,262.531 422.311,261.198 404.5,250C 388.579,232.709 385.413,213.209 395,191.5C 408.843,159.404 433.176,141.404 468,137.5C 491.022,138.89 505.522,150.557 511.5,172.5 Z"/></g>
<g><path style="opacity:0.968" fill="#020101" d="M 299.5,210.5 C 296.138,210.93 293.305,209.93 291,207.5C 285.788,190.302 275.954,176.469 261.5,166C 259.593,164.878 257.593,164.045 255.5,163.5C 251.606,160.551 247.273,158.718 242.5,158C 252.614,170.343 257.114,184.509 256,200.5C 254.917,204.418 252.417,206.752 248.5,207.5C 244.804,207.305 241.971,205.638 240,202.5C 240.419,190.839 237.419,180.172 231,170.5C 226.75,165.751 221.584,162.418 215.5,160.5C 210.127,163.206 206.627,167.539 205,173.5C 204.075,181.278 204.575,188.944 206.5,196.5C 206.096,200.229 204.429,203.229 201.5,205.5C 192.024,205.86 187.191,201.194 187,191.5C 185.206,153.294 203.373,135.794 241.5,139C 265.931,144.774 284.764,158.274 298,179.5C 301.494,185.488 304.161,191.821 306,198.5C 307.717,204.74 305.55,208.74 299.5,210.5 Z"/></g>
<g><path style="opacity:1" fill="#775447" d="M 255.5,163.5 C 267.475,174.442 275.642,187.775 280,203.5C 280.763,210.882 280.597,218.216 279.5,225.5C 270.515,224.645 261.515,223.978 252.5,223.5C 250.553,218.325 249.22,212.992 248.5,207.5C 252.417,206.752 254.917,204.418 256,200.5C 257.114,184.509 252.614,170.343 242.5,158C 247.273,158.718 251.606,160.551 255.5,163.5 Z"/></g>
<g><path style="opacity:1" fill="#fbe8b0" d="M 453.5,157.5 C 454.376,157.369 455.043,157.702 455.5,158.5C 444.629,172.976 440.129,189.309 442,207.5C 440.542,221.613 433.376,231.446 420.5,237C 416.422,237.28 413.589,235.447 412,231.5C 406.125,219.568 406.125,207.568 412,195.5C 420.972,177.355 434.805,164.688 453.5,157.5 Z"/></g>
<g><path style="opacity:0.997" fill="#fce9b1" d="M 248.5,207.5 C 249.22,212.992 250.553,218.325 252.5,223.5C 238.439,222.95 224.439,222.284 210.5,221.5C 206.981,216.463 203.981,211.13 201.5,205.5C 204.429,203.229 206.096,200.229 206.5,196.5C 204.575,188.944 204.075,181.278 205,173.5C 206.627,167.539 210.127,163.206 215.5,160.5C 221.584,162.418 226.75,165.751 231,170.5C 237.419,180.172 240.419,190.839 240,202.5C 241.971,205.638 244.804,207.305 248.5,207.5 Z"/></g>
<g><path style="opacity:1" fill="#4d332d" d="M 451.5,232.5 C 467.443,219.116 476.109,201.949 477.5,181C 477.333,175.498 476,170.331 473.5,165.5C 476.747,162.045 480.747,160.545 485.5,161C 494.695,170.738 496.862,181.904 492,194.5C 484.438,216.396 469.772,231.396 448,239.5C 447.5,239.333 447,239.167 446.5,239C 448.03,236.648 449.697,234.481 451.5,232.5 Z"/></g>
<g><path style="opacity:0.992" fill="#4d332d" d="M 255.5,163.5 C 257.593,164.045 259.593,164.878 261.5,166C 275.954,176.469 285.788,190.302 291,207.5C 293.305,209.93 296.138,210.93 299.5,210.5C 299.625,216.203 299.292,221.87 298.5,227.5C 292.13,227.16 285.796,226.494 279.5,225.5C 280.597,218.216 280.763,210.882 280,203.5C 275.642,187.775 267.475,174.442 255.5,163.5 Z"/></g>
<g><path style="opacity:1" fill="#765346" d="M 473.5,165.5 C 476,170.331 477.333,175.498 477.5,181C 476.109,201.949 467.443,219.116 451.5,232.5C 458.452,216.954 461.618,200.62 461,183.5C 462.986,175.819 467.153,169.819 473.5,165.5 Z"/></g>
<g><path style="opacity:0.983" fill="#030200" d="M 210.5,221.5 C 224.439,222.284 238.439,222.95 252.5,223.5C 261.515,223.978 270.515,224.645 279.5,225.5C 285.796,226.494 292.13,227.16 298.5,227.5C 320.469,230.06 341.802,235.227 362.5,243C 372.649,246.49 381.149,252.324 388,260.5C 389.908,263.215 391.241,266.215 392,269.5C 392.58,279.56 392.08,289.56 390.5,299.5C 390.917,300.124 391.584,300.457 392.5,300.5C 396.331,299.973 399.998,299.306 403.5,298.5C 438.343,302.583 453.843,321.917 450,356.5C 445.29,370.883 436.456,382.049 423.5,390C 408.625,397.937 393.625,405.604 378.5,413C 394.044,417.519 407.877,425.019 420,435.5C 429.503,448.969 428.337,461.469 416.5,473C 402.272,483.279 386.605,490.613 369.5,495C 335.53,503.636 301.196,509.136 266.5,511.5C 230.833,511.5 195.167,511.5 159.5,511.5C 123.412,509.08 87.7449,503.247 52.5,494C 33.8795,489.444 17.7128,480.61 4,467.5C 2.72576,464.609 1.22576,461.942 -0.5,459.5C -0.5,454.833 -0.5,450.167 -0.5,445.5C 4.23184,436.266 11.2318,429.1 20.5,424C 39.9452,414.72 60.2786,408.053 81.5,404C 47.7965,364.896 31.9632,319.396 34,267.5C 36.6413,260.521 41.1413,255.021 47.5,251C 62.4253,242.246 78.4253,236.246 95.5,233C 133.456,225.476 171.79,221.642 210.5,221.5 Z M 403.5,316.5 C 408.075,317.814 412.741,319.147 417.5,320.5C 417.842,321.338 418.508,321.672 419.5,321.5C 419.973,322.906 420.973,323.573 422.5,323.5C 435.082,335.09 436.582,348.09 427,362.5C 422.041,368.465 416.208,373.298 409.5,377C 386.944,388.613 363.944,399.113 340.5,408.5C 363.73,383.051 379.396,353.384 387.5,319.5C 392.637,317.473 397.971,316.473 403.5,316.5 Z"/></g>
<g><path style="opacity:1" fill="#f9ae01" d="M 176.5,239.5 C 221.418,238.041 266.085,240.541 310.5,247C 331.596,250.476 351.596,257.143 370.5,267C 376.121,272.4 375.454,276.9 368.5,280.5C 344.709,270.973 320.042,264.807 294.5,262C 224.646,252.484 155.313,255.151 86.5,270C 76.3902,272.703 66.5569,276.203 57,280.5C 52.8694,278.738 50.8694,275.738 51,271.5C 56.8989,265.126 64.0655,260.626 72.5,258C 106.504,247.39 141.171,241.223 176.5,239.5 Z"/></g>
<g><path style="opacity:1" fill="#775447" d="M 314.5,282.5 C 322.5,287.833 322.5,293.167 314.5,298.5C 247.959,309.894 181.293,310.394 114.5,300C 102.231,297.766 90.2311,294.6 78.5,290.5C 102.641,283.121 127.307,278.288 152.5,276C 206.834,270.981 260.834,273.148 314.5,282.5 Z"/></g>
<g><path style="opacity:1" fill="#4d332d" d="M 314.5,282.5 C 325.159,283.943 335.492,286.609 345.5,290.5C 335.463,294.259 325.129,296.926 314.5,298.5C 322.5,293.167 322.5,287.833 314.5,282.5 Z"/></g>
<g><path style="opacity:0.512" fill="#60381c" d="M 403.5,298.5 C 399.998,299.306 396.331,299.973 392.5,300.5C 391.584,300.457 390.917,300.124 390.5,299.5C 394.768,298.627 399.102,298.294 403.5,298.5 Z"/></g>
<g><path style="opacity:1" fill="#fde939" d="M 352.5,307.5 C 339.979,363.761 307.979,404.594 256.5,430C 237.674,438.138 218.007,442.638 197.5,443.5C 147.086,438.722 107.919,415.389 80,373.5C 65.9435,351.215 56.7768,327.048 52.5,301C 52.8333,300.167 53.1667,299.333 53.5,298.5C 72.4263,308.066 92.4263,314.233 113.5,317C 173.027,325.805 232.694,326.805 292.5,320C 312.749,316.917 332.749,312.75 352.5,307.5 Z"/></g>
<g><path style="opacity:1" fill="#fab001" d="M 197.5,443.5 C 218.007,442.638 237.674,438.138 256.5,430C 307.979,404.594 339.979,363.761 352.5,307.5C 358.985,304.677 365.485,301.677 372,298.5C 365.597,353.156 339.097,394.989 292.5,424C 262.712,440.404 231.045,446.904 197.5,443.5 Z"/></g>
<g><path style="opacity:0.58" fill="#ba6f36" d="M 403.5,316.5 C 408.713,316.3 413.38,317.633 417.5,320.5C 412.741,319.147 408.075,317.814 403.5,316.5 Z"/></g>
<g><path style="opacity:0.635" fill="#b16835" d="M 419.5,321.5 C 421.027,321.427 422.027,322.094 422.5,323.5C 420.973,323.573 419.973,322.906 419.5,321.5 Z"/></g>
<g><path style="opacity:1" fill="#0c0a03" d="M 89.5,333.5 C 98.6584,332.491 102.492,336.491 101,345.5C 95.2077,352.408 89.8744,352.074 85,344.5C 84.3333,342.833 84.3333,341.167 85,339.5C 86.332,337.34 87.832,335.34 89.5,333.5 Z"/></g>
<g><path style="opacity:1" fill="#040401" d="M 107.5,358.5 C 110.39,358.278 113.057,358.945 115.5,360.5C 138.408,391.959 169.408,408.792 208.5,411C 213.756,415.924 213.756,420.924 208.5,426C 164,425.668 128.833,407.501 103,371.5C 101.379,365.923 102.879,361.589 107.5,358.5 Z"/></g>
<g><path style="opacity:1" fill="#fbbf07" d="M 369.5,428.5 C 376.226,432.296 382.393,436.962 388,442.5C 392.3,448.562 392.634,454.895 389,461.5C 383.918,467.268 378.084,471.934 371.5,475.5C 340.214,484.882 308.214,490.715 275.5,493C 214.863,498.074 154.529,495.741 94.5,486C 72.3194,482.456 50.9861,476.122 30.5,467C 23.6039,464.271 18.9372,459.438 16.5,452.5C 17.8343,448.656 20.1676,445.489 23.5,443C 45.6612,430.73 69.3279,422.897 94.5,419.5C 95.8333,419.667 97.1667,419.833 98.5,420C 138.226,453.022 183.893,466.355 235.5,460C 261.049,456.818 284.715,448.485 306.5,435C 322.25,433.438 337.417,429.604 352,423.5C 357.729,425.557 363.562,427.224 369.5,428.5 Z"/></g>
<g><path style="opacity:1" fill="#f89401" d="M 369.5,428.5 C 382.889,432.123 395.055,438.123 406,446.5C 408.33,449.459 408.996,452.793 408,456.5C 397.736,466.383 385.57,472.716 371.5,475.5C 378.084,471.934 383.918,467.268 389,461.5C 392.634,454.895 392.3,448.562 388,442.5C 382.393,436.962 376.226,432.296 369.5,428.5 Z"/></g>
</svg>
