<?xml version="1.0" encoding="UTF-8"?>
<!DOCTYPE svg PUBLIC "-//W3C//DTD SVG 1.1//EN" "http://www.w3.org/Graphics/SVG/1.1/DTD/svg11.dtd">
<svg xmlns="http://www.w3.org/2000/svg" version="1.1" width="512px" height="512px" style="shape-rendering:geometricPrecision; text-rendering:geometricPrecision; image-rendering:optimizeQuality; fill-rule:evenodd; clip-rule:evenodd" xmlns:xlink="http://www.w3.org/1999/xlink">
<g><path style="opacity:0.987" fill="#010000" d="M 431.5,360.5 C 430.066,357.889 428.399,355.389 426.5,353C 445.625,327.202 443.625,303.202 420.5,281C 408.958,273.432 396.291,270.265 382.5,271.5C 382.431,276.854 382.098,282.187 381.5,287.5C 392.793,286.257 403.127,288.757 412.5,295C 424.966,307.743 426.8,321.91 418,337.5C 412.736,344.89 405.569,349.39 396.5,351C 387.506,351.5 378.506,351.666 369.5,351.5C 368.37,356.888 367.037,362.222 365.5,367.5C 376.172,367.667 386.839,367.5 397.5,367C 402.102,366.224 406.602,365.058 411,363.5C 412.919,365.711 414.752,368.045 416.5,370.5C 417.946,372.704 418.78,375.037 419,377.5C 414.207,380.32 409.04,382.154 403.5,383C 389.155,383.167 374.822,383.667 360.5,384.5C 354.788,400.422 348.122,415.922 340.5,431C 364.167,431.333 387.833,431.667 411.5,432C 412.416,432.374 413.25,432.874 414,433.5C 416.668,465.961 402.168,486.461 370.5,495C 293.833,495.667 217.167,495.667 140.5,495C 118.411,489.556 103.911,476.056 97,454.5C 94.8838,447.197 95.0504,440.031 97.5,433C 121.746,431.686 146.079,431.019 170.5,431C 137.48,365.904 123.98,297.071 130,224.5C 137.607,210.893 148.44,200.726 162.5,194C 178.437,186.521 195.103,181.355 212.5,178.5C 213.647,178.818 214.481,179.484 215,180.5C 215.495,182.473 215.662,184.473 215.5,186.5C 216.092,189.127 216.425,191.794 216.5,194.5C 191.221,197.305 169.054,206.972 150,223.5C 143.133,231.294 141.8,239.961 146,249.5C 146.689,250.357 147.522,251.023 148.5,251.5C 173.368,235.278 200.701,226.445 230.5,225C 231.49,211.579 231.823,198.079 231.5,184.5C 231.333,159.831 231.5,135.164 232,110.5C 232.994,104.847 235.327,99.8467 239,95.5C 239.333,76.8333 239.667,58.1667 240,39.5C 243.167,27 251,19.1667 263.5,16C 339.5,15.3333 415.5,15.3333 491.5,16C 494.516,17.5286 495.849,20.0286 495.5,23.5C 494.077,29.019 492.077,34.3524 489.5,39.5C 492.077,44.6476 494.077,49.981 495.5,55.5C 494.077,61.019 492.077,66.3524 489.5,71.5C 492.077,76.6476 494.077,81.981 495.5,87.5C 494.077,93.019 492.077,98.3524 489.5,103.5C 491.057,107.614 492.89,111.614 495,115.5C 495.817,118.964 495.483,122.298 494,125.5C 493.25,126.126 492.416,126.626 491.5,127C 420.834,127.5 350.167,127.667 279.5,127.5C 279.5,143.833 279.5,160.167 279.5,176.5C 310.947,177.927 339.614,187.427 365.5,205C 381.489,218.127 387.489,234.96 383.5,255.5C 421.317,253.84 445.15,271.173 455,307.5C 458.141,327.604 453.475,345.604 441,361.5C 439.938,362.899 438.605,363.899 437,364.5C 435.019,363.35 433.186,362.016 431.5,360.5 Z M 380.5,303.5 C 385.899,303.309 391.233,303.809 396.5,305C 404.871,308.909 408.037,315.409 406,324.5C 403.399,331.053 398.566,334.553 391.5,335C 385.804,335.83 380.137,335.663 374.5,334.5C 376.827,324.197 378.827,313.863 380.5,303.5 Z"/></g>
<g><path style="opacity:1" fill="#794229" d="M 266.5,31.5 C 276.146,30.071 282.979,33.7376 287,42.5C 287.5,54.8288 287.667,67.1622 287.5,79.5C 280.159,79.3337 272.826,79.5003 265.5,80C 262.373,80.3918 259.373,81.2251 256.5,82.5C 255.334,69.1792 255.167,55.8458 256,42.5C 258.357,37.6455 261.857,33.9788 266.5,31.5 Z"/></g>
<g><path style="opacity:1" fill="#c6473b" d="M 299.5,31.5 C 334.5,31.5 369.5,31.5 404.5,31.5C 402.026,43.1189 397.86,54.1189 392,64.5C 382.019,81.9208 369.519,97.4208 354.5,111C 336.158,111.833 317.824,111.666 299.5,110.5C 301.163,107.344 302.33,104.011 303,100.5C 303.667,80.5 303.667,60.5 303,40.5C 301.82,37.4788 300.654,34.4788 299.5,31.5 Z"/></g>
<g><path style="opacity:1" fill="#334f7a" d="M 421.5,31.5 C 439.17,31.3334 456.836,31.5001 474.5,32C 472.951,34.0983 471.951,36.4316 471.5,39C 473.137,44.7766 475.47,50.2766 478.5,55.5C 475.749,60.501 473.415,65.6677 471.5,71C 473.137,76.7766 475.47,82.2766 478.5,87.5C 475.749,92.501 473.415,97.6677 471.5,103C 471.911,105.903 472.911,108.569 474.5,111C 468.175,111.5 461.842,111.666 455.5,111.5C 455.5,90.1667 455.5,68.8333 455.5,47.5C 450.167,47.5 444.833,47.5 439.5,47.5C 439.5,68.8333 439.5,90.1667 439.5,111.5C 418.497,111.667 397.497,111.5 376.5,111C 398.88,88.7461 413.88,62.2461 421.5,31.5 Z"/></g>
<g><path style="opacity:1" fill="#000000" d="M 319.5,47.5 C 338.167,47.5 356.833,47.5 375.5,47.5C 375.5,52.8333 375.5,58.1667 375.5,63.5C 356.833,63.5 338.167,63.5 319.5,63.5C 319.5,58.1667 319.5,52.8333 319.5,47.5 Z"/></g>
<g><path style="opacity:0.927" fill="#000000" d="M 216.5,73.5 C 221.419,76.7483 225.753,80.7483 229.5,85.5C 220.838,95.1505 216.504,106.484 216.5,119.5C 210.833,119.5 205.167,119.5 199.5,119.5C 199.178,111.608 200.345,103.942 203,96.5C 206.531,88.1659 211.031,80.4992 216.5,73.5 Z"/></g>
<g><path style="opacity:1" fill="#000000" d="M 319.5,79.5 C 330.167,79.5 340.833,79.5 351.5,79.5C 351.5,84.8333 351.5,90.1667 351.5,95.5C 340.833,95.5 330.167,95.5 319.5,95.5C 319.5,90.1667 319.5,84.8333 319.5,79.5 Z"/></g>
<g><path style="opacity:1" fill="#8f5539" d="M 265.5,95.5 C 272.833,95.5 280.167,95.5 287.5,95.5C 286.031,106.462 279.698,111.962 268.5,112C 266.333,112.833 264.833,114.333 264,116.5C 263.5,162.832 263.333,209.165 263.5,255.5C 268.833,255.5 274.167,255.5 279.5,255.5C 279.5,250.5 279.5,245.5 279.5,240.5C 304.653,242.661 328.153,249.995 350,262.5C 350.667,263.167 350.667,263.833 350,264.5C 331.278,275.519 311.111,282.352 289.5,285C 251.493,291.033 214.493,287.366 178.5,274C 171.972,271.242 165.972,267.742 160.5,263.5C 170.184,256.493 180.85,251.326 192.5,248C 205.27,244.279 218.27,241.779 231.5,240.5C 231.5,245.5 231.5,250.5 231.5,255.5C 236.833,255.5 242.167,255.5 247.5,255.5C 247.333,208.165 247.5,160.832 248,113.5C 251.353,104.982 257.186,98.9815 265.5,95.5 Z"/></g>
<g><path style="opacity:0.999" fill="#fcb230" d="M 231.5,184.5 C 231.823,198.079 231.49,211.579 230.5,225C 200.701,226.445 173.368,235.278 148.5,251.5C 147.522,251.023 146.689,250.357 146,249.5C 141.8,239.961 143.133,231.294 150,223.5C 169.054,206.972 191.221,197.305 216.5,194.5C 216.425,191.794 216.092,189.127 215.5,186.5C 220.711,185.185 226.044,184.518 231.5,184.5 Z"/></g>
<g><path style="opacity:1" fill="#fbb130" d="M 279.5,192.5 C 303.046,194.803 325.379,201.303 346.5,212C 355,216.5 361.5,223 366,231.5C 368.613,239.046 367.613,246.046 363,252.5C 352.921,244.709 341.754,238.876 329.5,235C 313.13,230.026 296.463,226.526 279.5,224.5C 279.5,213.833 279.5,203.167 279.5,192.5 Z"/></g>
<g><path style="opacity:0.999" fill="#c44330" d="M 431.5,360.5 C 426.701,364.071 421.701,367.405 416.5,370.5C 414.752,368.045 412.919,365.711 411,363.5C 406.602,365.058 402.102,366.224 397.5,367C 386.839,367.5 376.172,367.667 365.5,367.5C 367.037,362.222 368.37,356.888 369.5,351.5C 378.506,351.666 387.506,351.5 396.5,351C 405.569,349.39 412.736,344.89 418,337.5C 426.8,321.91 424.966,307.743 412.5,295C 403.127,288.757 392.793,286.257 381.5,287.5C 382.098,282.187 382.431,276.854 382.5,271.5C 396.291,270.265 408.958,273.432 420.5,281C 443.625,303.202 445.625,327.202 426.5,353C 428.399,355.389 430.066,357.889 431.5,360.5 Z"/></g>
<g><path style="opacity:1" fill="#c6473b" d="M 144.5,272.5 C 166.382,287.966 190.715,297.466 217.5,301C 253.335,306.093 288.669,303.759 323.5,294C 339.146,289.594 353.312,282.428 366,272.5C 362.675,328.109 348.341,380.775 323,430.5C 278.238,431.663 233.404,431.83 188.5,431C 163.166,381.161 148.5,328.327 144.5,272.5 Z"/></g>
<g><path style="opacity:1" fill="#050101" d="M 177.5,310.5 C 178.833,310.5 180.167,310.5 181.5,310.5C 182.296,315.816 182.963,321.149 183.5,326.5C 178.5,327.167 173.5,327.833 168.5,328.5C 167.5,323.167 166.5,317.833 165.5,312.5C 169.733,312.461 173.733,311.795 177.5,310.5 Z"/></g>
<g><path style="opacity:1" fill="#060101" d="M 185.5,341.5 C 186.5,341.5 187.5,341.5 188.5,341.5C 193.104,359.312 199.104,376.645 206.5,393.5C 205.221,395.146 203.555,396.313 201.5,397C 198.242,398.467 194.908,399.633 191.5,400.5C 184.278,382.668 177.945,364.502 172.5,346C 177.092,344.929 181.425,343.429 185.5,341.5 Z"/></g>
<g><path style="opacity:1" fill="#d55145" d="M 112.5,447.5 C 207.836,447.167 303.169,447.5 398.5,448.5C 393.861,464.972 383.195,475.138 366.5,479C 292.167,479.667 217.833,479.667 143.5,479C 126.935,474.602 116.602,464.102 112.5,447.5 Z"/></g>
</svg>
