<?xml version="1.0" encoding="UTF-8"?>
<!DOCTYPE svg PUBLIC "-//W3C//DTD SVG 1.1//EN" "http://www.w3.org/Graphics/SVG/1.1/DTD/svg11.dtd">
<svg xmlns="http://www.w3.org/2000/svg" version="1.1" width="512px" height="512px" style="shape-rendering:geometricPrecision; text-rendering:geometricPrecision; image-rendering:optimizeQuality; fill-rule:evenodd; clip-rule:evenodd" xmlns:xlink="http://www.w3.org/1999/xlink">
<g><path style="opacity:0.972" fill="#020101" d="M 248.5,-0.5 C 253.167,-0.5 257.833,-0.5 262.5,-0.5C 275.01,5.17338 284.51,14.1734 291,26.5C 294.5,32.8333 298,39.1667 301.5,45.5C 328.643,62.8064 351.81,84.473 371,110.5C 393.465,150.585 383.631,179.918 341.5,198.5C 341.677,209.311 341.344,220.145 340.5,231C 346.933,236.1 352.767,241.933 358,248.5C 369.473,268.227 368.64,287.393 355.5,306C 364.742,302.774 374.076,302.774 383.5,306C 396.721,314.636 401.554,326.802 398,342.5C 396.366,350.709 394.366,358.709 392,366.5C 404.479,358.279 416.646,358.779 428.5,368C 434.632,374.388 437.632,382.054 437.5,391C 436.261,415.139 426.927,435.473 409.5,452C 405.606,454.125 401.939,453.958 398.5,451.5C 396.712,448.772 396.212,445.772 397,442.5C 414.371,427.055 422.371,407.721 421,384.5C 412.92,373.901 404.92,373.901 397,384.5C 393.838,420.655 374.338,436.155 338.5,431C 323.471,424.968 313.638,414.134 309,398.5C 308.836,358.429 308.336,319.095 307.5,280.5C 294.249,290.965 279.582,299.131 263.5,305C 258.167,305.667 252.833,305.667 247.5,305C 231.45,299.146 216.783,290.979 203.5,280.5C 202.664,319.095 202.164,358.429 202,398.5C 193.425,424.214 175.591,435.381 148.5,432C 125.911,424.387 114.411,408.554 114,384.5C 105.92,373.901 97.9197,373.901 90,384.5C 89.3472,416.167 103.181,439 131.5,453C 161.978,463.726 188.478,457.559 211,434.5C 214.726,429.772 218.059,424.772 221,419.5C 224.457,410.333 227.291,401 229.5,391.5C 233.869,387.618 238.035,387.952 242,392.5C 242.333,423.833 242.667,455.167 243,486.5C 247.092,495.639 253.592,498.139 262.5,494C 265.106,492.062 266.939,489.562 268,486.5C 268.333,455.167 268.667,423.833 269,392.5C 274.641,386.696 279.308,387.363 283,394.5C 288.498,429.664 308.665,450.831 343.5,458C 349.167,458.667 354.833,458.667 360.5,458C 368.898,455.984 377.232,453.817 385.5,451.5C 386.833,451.667 388.167,451.833 389.5,452C 390.373,453.045 391.373,453.878 392.5,454.5C 393.885,457.546 393.719,460.546 392,463.5C 385.717,467.555 378.884,470.388 371.5,472C 335.867,478.567 306.7,467.734 284,439.5C 283.667,456.5 283.333,473.5 283,490.5C 279.948,501.383 273.115,508.383 262.5,511.5C 257.833,511.5 253.167,511.5 248.5,511.5C 237.858,508.357 231.025,501.357 228,490.5C 227.667,473.5 227.333,456.5 227,439.5C 202.102,469.91 170.602,480.077 132.5,470C 96.1145,456.266 76.4478,429.933 73.5,391C 74.0537,372.447 83.5537,362.28 102,360.5C 108.338,360.723 114.005,362.723 119,366.5C 115.117,355.948 112.951,344.948 112.5,333.5C 113.817,311.496 125.483,301.663 147.5,304C 150.265,304.743 152.931,305.41 155.5,306C 142.487,287.365 141.653,268.198 153,248.5C 157.709,242.124 163.375,236.791 170,232.5C 169.178,222.368 169.345,212.201 170.5,202C 170.167,200.833 169.833,199.667 169.5,198.5C 124.503,177.186 116.003,145.853 144,104.5C 163.194,81.8015 185.027,62.1348 209.5,45.5C 215.331,33.8287 222.165,22.8287 230,12.5C 235.305,6.77915 241.472,2.44582 248.5,-0.5 Z M 164.5,315.5 C 171.387,320.441 179.053,323.441 187.5,324.5C 187.832,335.52 187.499,346.52 186.5,357.5C 173.156,350.718 166.989,339.718 168,324.5C 167.111,321.324 165.945,318.324 164.5,315.5 Z M 345.5,315.5 C 346.043,315.56 346.376,315.893 346.5,316.5C 344.855,318.925 343.689,321.592 343,324.5C 343.55,339.411 337.383,350.411 324.5,357.5C 323.501,346.52 323.168,335.52 323.5,324.5C 331.837,323.656 339.171,320.656 345.5,315.5 Z M 129.5,383.5 C 141.03,397.838 155.696,407.671 173.5,413C 155.051,421.295 141.217,416.462 132,398.5C 130.839,393.554 130.006,388.554 129.5,383.5 Z M 380.5,383.5 C 381.854,395.644 377.52,405.477 367.5,413C 357.471,418.932 347.471,418.932 337.5,413C 355.001,407.598 369.335,397.765 380.5,383.5 Z"/></g>
<g><path style="opacity:1" fill="#fc9277" d="M 265.5,20.5 C 257.849,29.7768 251.683,40.1101 247,51.5C 226.222,103.777 213.389,157.944 208.5,214C 207.376,227.621 210.543,240.121 218,251.5C 229.579,267.255 243.745,279.922 260.5,289.5C 257.024,290.643 253.358,290.81 249.5,290C 225.859,280.436 206.692,265.27 192,244.5C 186.998,235.826 184.832,226.493 185.5,216.5C 186.219,194.518 189.219,172.851 194.5,151.5C 193.353,146.017 190.02,143.684 184.5,144.5C 185.568,143.566 186.901,143.232 188.5,143.5C 188.629,141.784 188.962,140.117 189.5,138.5C 194.658,139.669 197.658,137.669 198.5,132.5C 200.21,127.609 200.71,122.609 200,117.5C 198.729,116.117 197.229,115.117 195.5,114.5C 195.629,112.784 195.962,111.117 196.5,109.5C 199.675,109.497 202.508,108.497 205,106.5C 209.874,89.8776 215.541,73.5442 222,57.5C 226.89,46.7173 232.557,36.3839 239,26.5C 242.912,21.9167 247.412,18.0834 252.5,15C 258.017,14.0932 262.35,15.9265 265.5,20.5 Z"/></g>
<g><path style="opacity:1" fill="#febbaa" d="M 265.5,20.5 C 267.797,22.2941 269.963,24.2941 272,26.5C 284.889,46.2846 294.556,67.6179 301,90.5C 313.668,131.672 322.168,173.672 326.5,216.5C 326.423,230.493 321.923,242.826 313,253.5C 298.786,270.352 281.286,282.352 260.5,289.5C 243.745,279.922 229.579,267.255 218,251.5C 210.543,240.121 207.376,227.621 208.5,214C 213.389,157.944 226.222,103.777 247,51.5C 251.683,40.1101 257.849,29.7768 265.5,20.5 Z"/></g>
<g><path style="opacity:1" fill="#fc6142" d="M 196.5,109.5 C 195.962,111.117 195.629,112.784 195.5,114.5C 190.867,113.458 187.701,115.125 186,119.5C 184.355,124.065 183.688,128.731 184,133.5C 185.076,136.079 186.909,137.746 189.5,138.5C 188.962,140.117 188.629,141.784 188.5,143.5C 186.901,143.232 185.568,143.566 184.5,144.5C 181.265,145.595 179.432,147.928 179,151.5C 177.064,161.894 174.897,172.227 172.5,182.5C 166.576,179.556 161.242,175.889 156.5,171.5C 160.883,145.864 166.55,120.53 173.5,95.5C 181.34,87.4955 189.673,79.9955 198.5,73C 199.167,72.3333 199.833,72.3333 200.5,73C 197.007,81.9786 194.007,91.1453 191.5,100.5C 191.5,104.56 193.167,107.56 196.5,109.5 Z"/></g>
<g><path style="opacity:1" fill="#fb6142" d="M 336.5,94.5 C 341.595,109.542 345.761,124.875 349,140.5C 351.474,151.035 352.974,161.701 353.5,172.5C 349.082,176.554 344.082,179.887 338.5,182.5C 333.964,157.659 328.464,132.992 322,108.5C 318.764,96.4581 314.93,84.6247 310.5,73C 312.976,73.7473 315.309,75.0806 317.5,77C 324.03,82.6994 330.363,88.5327 336.5,94.5 Z"/></g>
<g><path style="opacity:1" fill="#fb9176" d="M 173.5,95.5 C 166.55,120.53 160.883,145.864 156.5,171.5C 143.44,160.255 140.274,146.589 147,130.5C 153.777,117.23 162.61,105.564 173.5,95.5 Z"/></g>
<g><path style="opacity:1" fill="#fb9175" d="M 336.5,94.5 C 350.415,106.923 360.582,121.923 367,139.5C 369.033,153.247 364.533,164.247 353.5,172.5C 352.974,161.701 351.474,151.035 349,140.5C 345.761,124.875 341.595,109.542 336.5,94.5 Z"/></g>
<g><path style="opacity:1" fill="#ff758c" d="M 251.5,111.5 C 260.431,112.378 263.597,117.045 261,125.5C 255.283,131.111 249.95,130.778 245,124.5C 243.881,118.469 246.048,114.136 251.5,111.5 Z"/></g>
<g><path style="opacity:1" fill="#090302" d="M 195.5,114.5 C 197.229,115.117 198.729,116.117 200,117.5C 200.71,122.609 200.21,127.609 198.5,132.5C 197.658,137.669 194.658,139.669 189.5,138.5C 186.909,137.746 185.076,136.079 184,133.5C 183.688,128.731 184.355,124.065 186,119.5C 187.701,115.125 190.867,113.458 195.5,114.5 Z"/></g>
<g><path style="opacity:1" fill="#ff748c" d="M 279.5,157.5 C 288.492,156.661 292.659,160.661 292,169.5C 289.058,174.153 284.891,175.653 279.5,174C 274.931,171.459 273.431,167.625 275,162.5C 276.707,160.963 278.207,159.296 279.5,157.5 Z"/></g>
<g><path style="opacity:1" fill="#ff748c" d="M 240.5,191.5 C 252.433,191.551 255.767,196.718 250.5,207C 240.067,210.884 235.234,207.384 236,196.5C 237.707,194.963 239.207,193.296 240.5,191.5 Z"/></g>
<g><path style="opacity:1" fill="#ff758c" d="M 288.5,212.5 C 300.372,212.5 303.705,217.667 298.5,228C 292.376,232.043 287.542,230.876 284,224.5C 283.333,222.167 283.333,219.833 284,217.5C 285.707,215.963 287.207,214.296 288.5,212.5 Z"/></g>
<g><path style="opacity:1" fill="#f48e73" d="M 175.5,247.5 C 177.184,249.017 178.517,250.85 179.5,253C 167.411,264.104 165.245,276.937 173,291.5C 176.821,296.072 181.488,299.405 187,301.5C 187.497,303.81 187.663,306.143 187.5,308.5C 167.872,303.01 159.039,290.01 161,269.5C 163.313,260.381 168.146,253.048 175.5,247.5 Z"/></g>
<g><path style="opacity:1" fill="#f48e73" d="M 334.5,247.5 C 351.303,260.097 354.803,275.764 345,294.5C 339.819,302.175 332.652,306.842 323.5,308.5C 323.337,306.143 323.503,303.81 324,301.5C 342.318,292.578 346.985,278.912 338,260.5C 335.447,258.284 333.28,255.784 331.5,253C 332.632,251.235 333.632,249.402 334.5,247.5 Z"/></g>
<g><path style="opacity:1" fill="#545359" d="M 186.5,268.5 C 187.65,273.316 187.816,278.316 187,283.5C 182.625,278.605 182.458,273.605 186.5,268.5 Z"/></g>
<g><path style="opacity:1" fill="#545359" d="M 323.5,268.5 C 328.622,273.236 328.789,278.236 324,283.5C 323.501,278.511 323.334,273.511 323.5,268.5 Z"/></g>
<g><path style="opacity:1" fill="#fb7088" d="M 203.5,280.5 C 203.186,288.087 203.519,295.587 204.5,303C 219.511,314.337 236.344,321.17 255,323.5C 274.313,321.396 291.646,314.396 307,302.5C 307.5,295.174 307.666,287.841 307.5,280.5C 308.336,319.095 308.836,358.429 309,398.5C 313.638,414.134 323.471,424.968 338.5,431C 374.338,436.155 393.838,420.655 397,384.5C 404.92,373.901 412.92,373.901 421,384.5C 422.371,407.721 414.371,427.055 397,442.5C 396.212,445.772 396.712,448.772 398.5,451.5C 396.784,453.025 394.784,454.025 392.5,454.5C 391.373,453.878 390.373,453.045 389.5,452C 388.167,451.833 386.833,451.667 385.5,451.5C 377.232,453.817 368.898,455.984 360.5,458C 354.833,458.667 349.167,458.667 343.5,458C 308.665,450.831 288.498,429.664 283,394.5C 279.308,387.363 274.641,386.696 269,392.5C 268.667,423.833 268.333,455.167 268,486.5C 266.939,489.562 265.106,492.062 262.5,494C 253.592,498.139 247.092,495.639 243,486.5C 242.667,455.167 242.333,423.833 242,392.5C 238.035,387.952 233.869,387.618 229.5,391.5C 227.291,401 224.457,410.333 221,419.5C 218.059,424.772 214.726,429.772 211,434.5C 188.478,457.559 161.978,463.726 131.5,453C 103.181,439 89.3472,416.167 90,384.5C 97.9197,373.901 105.92,373.901 114,384.5C 114.411,408.554 125.911,424.387 148.5,432C 175.591,435.381 193.425,424.214 202,398.5C 202.164,358.429 202.664,319.095 203.5,280.5 Z M 129.5,383.5 C 130.006,388.554 130.839,393.554 132,398.5C 141.217,416.462 155.051,421.295 173.5,413C 155.696,407.671 141.03,397.838 129.5,383.5 Z M 380.5,383.5 C 369.335,397.765 355.001,407.598 337.5,413C 347.471,418.932 357.471,418.932 367.5,413C 377.52,405.477 381.854,395.644 380.5,383.5 Z"/></g>
<g><path style="opacity:1" fill="#fc3e61" d="M 203.5,280.5 C 216.783,290.979 231.45,299.146 247.5,305C 252.833,305.667 258.167,305.667 263.5,305C 279.582,299.131 294.249,290.965 307.5,280.5C 307.666,287.841 307.5,295.174 307,302.5C 291.646,314.396 274.313,321.396 255,323.5C 236.344,321.17 219.511,314.337 204.5,303C 203.519,295.587 203.186,288.087 203.5,280.5 Z"/></g>
<g><path style="opacity:1" fill="#fb3e60" d="M 170.5,366.5 C 169.809,375.734 169.142,385.068 168.5,394.5C 140.663,380.509 127.497,357.842 129,326.5C 133.461,318.676 139.628,316.843 147.5,321C 152.789,325.981 154.956,332.148 154,339.5C 156.473,350.462 161.973,359.462 170.5,366.5 Z"/></g>
<g><path style="opacity:1" fill="#fb3e60" d="M 342.5,394.5 C 341.858,385.068 341.191,375.734 340.5,366.5C 351.96,356.572 357.793,343.905 358,328.5C 361.935,319.08 368.435,316.58 377.5,321C 379.378,322.543 380.878,324.376 382,326.5C 383.503,357.842 370.337,380.509 342.5,394.5 Z"/></g>
<g><path style="opacity:1" fill="#fb0d38" d="M 170.5,366.5 C 175.528,369.681 180.861,372.347 186.5,374.5C 187.664,381.476 187.831,388.476 187,395.5C 186.519,397.478 185.353,398.811 183.5,399.5C 178.267,398.422 173.267,396.756 168.5,394.5C 169.142,385.068 169.809,375.734 170.5,366.5 Z"/></g>
<g><path style="opacity:1" fill="#fb0d37" d="M 340.5,366.5 C 341.191,375.734 341.858,385.068 342.5,394.5C 337.003,397.123 331.336,398.456 325.5,398.5C 325,397.5 324.5,396.5 324,395.5C 323.5,388.174 323.334,380.841 323.5,373.5C 329.746,372.543 335.412,370.21 340.5,366.5 Z"/></g>
</svg>
