<?xml version="1.0" encoding="UTF-8"?>
<!DOCTYPE svg PUBLIC "-//W3C//DTD SVG 1.1//EN" "http://www.w3.org/Graphics/SVG/1.1/DTD/svg11.dtd">
<svg xmlns="http://www.w3.org/2000/svg" version="1.1" width="512px" height="512px" style="shape-rendering:geometricPrecision; text-rendering:geometricPrecision; image-rendering:optimizeQuality; fill-rule:evenodd; clip-rule:evenodd" xmlns:xlink="http://www.w3.org/1999/xlink">
<g><path style="opacity:0.981" fill="#010000" d="M 511.5,292.5 C 511.5,305.833 511.5,319.167 511.5,332.5C 506.901,381.483 486.901,422.983 451.5,457C 432.03,474.061 409.363,481.394 383.5,479C 370.174,476.565 358.34,471.065 348,462.5C 324.695,481.131 299.195,484.631 271.5,473C 266.274,469.597 260.94,466.43 255.5,463.5C 231.691,481.127 206.025,484.294 178.5,473C 173.06,469.891 167.893,466.391 163,462.5C 134.243,483.49 104.41,484.99 73.5,467C 48.8358,450 30.3358,427.834 18,400.5C 8.37395,378.653 2.20729,355.986 -0.5,332.5C -0.5,319.167 -0.5,305.833 -0.5,292.5C 3.52327,252.26 18.0233,216.26 43,184.5C 54.4347,171.715 67.6014,161.215 82.5,153C 111.287,140.356 138.12,143.523 163,162.5C 176.314,151.394 191.648,145.394 209,144.5C 221.469,108.091 234.136,71.7582 247,35.5C 250.396,31.7973 254.563,30.6306 259.5,32C 273.328,39.4133 286.995,47.08 300.5,55C 302.049,56.214 303.215,57.714 304,59.5C 304.667,63.8333 304.667,68.1667 304,72.5C 300.598,96.8114 297.432,121.145 294.5,145.5C 314.828,143.943 332.828,149.61 348.5,162.5C 373.174,143.508 399.841,140.341 428.5,153C 454.437,167.604 474.271,188.104 488,214.5C 500.618,239.178 508.452,265.178 511.5,292.5 Z"/></g>
<g><path style="opacity:1" fill="#43c671" d="M 260.5,56.5 C 268.052,60.0416 275.386,64.0416 282.5,68.5C 282.833,69.1667 283.167,69.8333 283.5,70.5C 279.864,97.8643 276.03,125.198 272,152.5C 266.379,155.723 260.879,159.056 255.5,162.5C 247.673,156.587 239.007,152.253 229.5,149.5C 239.632,118.438 249.965,87.4379 260.5,56.5 Z"/></g>
<g><path style="opacity:1" fill="#fd7c45" d="M 108.5,165.5 C 120.985,165.038 132.652,167.871 143.5,174C 145.327,174.899 146.66,176.233 147.5,178C 126.704,205.353 113.871,236.187 109,270.5C 102.567,317.461 107.567,363.128 124,407.5C 130.573,421.656 138.406,434.989 147.5,447.5C 132.533,459.904 115.866,462.737 97.5,456C 74.9047,445.407 57.4047,429.24 45,407.5C 15.5989,354.034 11.5989,298.701 33,241.5C 41.8938,219.947 54.7272,201.114 71.5,185C 82.525,175.823 94.8583,169.323 108.5,165.5 Z"/></g>
<g><path style="opacity:1" fill="#fe7c45" d="M 201.5,165.5 C 218.036,164.689 232.536,169.689 245,180.5C 245.667,268.5 245.667,356.5 245,444.5C 223.872,462.331 201.705,463.831 178.5,449C 167.485,440.657 158.652,430.49 152,418.5C 134.407,385.04 125.907,349.374 126.5,311.5C 125.406,268.861 136.572,229.861 160,194.5C 170.475,179.833 184.308,170.166 201.5,165.5 Z"/></g>
<g><path style="opacity:1" fill="#fe7c45" d="M 294.5,165.5 C 311.358,164.545 326.025,169.712 338.5,181C 353.717,196.233 364.883,214.067 372,234.5C 386.74,280.312 388.407,326.645 377,373.5C 370.529,400.619 357.696,424.119 338.5,444C 314.466,464.465 290.299,464.631 266,444.5C 265.333,356.5 265.333,268.5 266,180.5C 274.271,173.038 283.771,168.038 294.5,165.5 Z"/></g>
<g><path style="opacity:1" fill="#fc7c45" d="M 387.5,165.5 C 401.114,164.803 413.781,167.97 425.5,175C 447.791,189.963 464.291,209.796 475,234.5C 499.559,293.623 496.559,351.289 466,407.5C 453.118,430.386 434.618,446.886 410.5,457C 393.109,461.925 377.442,458.758 363.5,447.5C 387.972,413.594 401.472,375.594 404,333.5C 407.936,285.512 398.936,240.179 377,197.5C 372.864,190.722 368.364,184.222 363.5,178C 364.34,176.233 365.673,174.899 367.5,174C 373.92,170.282 380.586,167.449 387.5,165.5 Z"/></g>
<g><path style="opacity:1" fill="#0a0402" d="M 445.5,244.5 C 454.761,244.682 458.594,249.348 457,258.5C 453.466,263.929 448.633,265.429 442.5,263C 438.797,259.604 437.631,255.437 439,250.5C 440.436,247.558 442.603,245.558 445.5,244.5 Z"/></g>
<g><path style="opacity:1" fill="#060201" d="M 451.5,275.5 C 458.617,274.14 463.451,276.807 466,283.5C 469.125,302.46 469.125,321.46 466,340.5C 462.498,349.94 456.498,351.94 448,346.5C 446.928,343.456 446.428,340.29 446.5,337C 449.056,320.159 449.056,303.325 446.5,286.5C 445.779,281.616 447.445,277.95 451.5,275.5 Z"/></g>
</svg>
