<?xml version="1.0" encoding="UTF-8"?>
<!DOCTYPE svg PUBLIC "-//W3C//DTD SVG 1.1//EN" "http://www.w3.org/Graphics/SVG/1.1/DTD/svg11.dtd">
<svg xmlns="http://www.w3.org/2000/svg" version="1.1" width="512px" height="512px" style="shape-rendering:geometricPrecision; text-rendering:geometricPrecision; image-rendering:optimizeQuality; fill-rule:evenodd; clip-rule:evenodd" xmlns:xlink="http://www.w3.org/1999/xlink">
<g><path style="opacity:0.963" fill="#000100" d="M 413.5,-0.5 C 416.167,-0.5 418.833,-0.5 421.5,-0.5C 439.423,9.57051 457.257,19.9038 475,30.5C 476.065,33.3754 476.565,36.3754 476.5,39.5C 476.139,47.8946 475.306,56.2279 474,64.5C 472.117,67.0244 469.617,68.3577 466.5,68.5C 463.972,67.4923 461.805,65.8257 460,63.5C 459.669,55.4845 459.669,47.4845 460,39.5C 446.419,31.9599 432.919,24.2932 419.5,16.5C 401.64,33.5269 384.306,51.0269 367.5,69C 369.602,79.1085 371.435,89.2752 373,99.5C 373.308,100.308 373.808,100.975 374.5,101.5C 390.188,96.3339 405.188,97.8339 419.5,106C 425.032,110.535 430.199,115.369 435,120.5C 441.895,117.303 448.728,113.969 455.5,110.5C 456.498,103.522 457.332,96.5224 458,89.5C 459.715,86.6026 462.215,85.2693 465.5,85.5C 468.561,85.4443 470.728,86.7776 472,89.5C 472.249,98.1768 472.249,106.843 472,115.5C 478.1,133.855 479.1,152.522 475,171.5C 424.208,306.951 338.708,414.784 218.5,495C 203.65,503.226 187.983,508.726 171.5,511.5C 161.167,511.5 150.833,511.5 140.5,511.5C 86.9645,501.803 52.4645,470.803 37,418.5C 25.508,363.62 42.008,319.453 86.5,286C 92.8773,281.811 99.544,278.145 106.5,275C 110.566,274.205 113.899,275.372 116.5,278.5C 117.1,282.516 116.1,286.016 113.5,289C 69.407,310.667 47.907,346.167 49,395.5C 51.446,422.379 61.946,445.379 80.5,464.5C 115.237,497.079 154.904,504.579 199.5,487C 211.966,480.853 223.633,473.52 234.5,465C 339.283,387.963 414.449,288.463 460,166.5C 462.686,155.22 463.019,143.886 461,132.5C 460.885,129.992 459.885,127.992 458,126.5C 451.105,129.697 444.272,133.031 437.5,136.5C 430.09,154.654 421.59,172.321 412,189.5C 407.283,196.152 402.617,196.152 398,189.5C 397.333,187.5 397.333,185.5 398,183.5C 407.378,166.91 415.545,149.743 422.5,132C 413.173,116.216 399.506,110.55 381.5,115C 378.24,115.975 375.073,117.142 372,118.5C 358.337,144.337 341.837,168.171 322.5,190C 316.031,192.211 312.031,190.044 310.5,183.5C 310.719,182.062 311.219,180.729 312,179.5C 328.697,159.978 343.197,138.978 355.5,116.5C 357.58,114.682 358.914,112.349 359.5,109.5C 357.653,98.0783 355.486,86.7449 353,75.5C 339.963,81.532 328.963,90.1987 320,101.5C 276.582,175.919 217.082,233.752 141.5,275C 137.469,275.818 134.136,274.651 131.5,271.5C 130.146,267.39 131.146,263.89 134.5,261C 192.578,228.935 241.412,186.102 281,132.5C 291.06,118.104 300.726,103.438 310,88.5C 322.747,73.8807 338.247,63.3807 356.5,57C 346.5,57.6667 336.5,57.6667 326.5,57C 316.388,65.6409 304.888,71.8076 292,75.5C 284.615,73.308 282.615,68.6414 286,61.5C 292.703,58.565 299.203,55.2316 305.5,51.5C 285.697,42.6029 281.864,29.2696 294,11.5C 306.461,3.03739 318.461,3.70406 330,13.5C 336.884,21.7062 339.051,31.0395 336.5,41.5C 351.301,41.5889 365.634,39.0889 379.5,34C 391.035,22.6318 402.369,11.1318 413.5,-0.5 Z M 307.5,21.5 C 315.054,21.3777 319.72,25.0444 321.5,32.5C 321.125,34.4594 320.459,36.2927 319.5,38C 313.425,37.5468 308.258,35.0468 304,30.5C 303.333,28.8333 303.333,27.1667 304,25.5C 305.376,24.2949 306.542,22.9616 307.5,21.5 Z"/></g>
<g><path style="opacity:0.999" fill="#499e31" d="M 466.5,68.5 C 466.625,74.2031 466.292,79.8698 465.5,85.5C 462.215,85.2693 459.715,86.6026 458,89.5C 457.332,96.5224 456.498,103.522 455.5,110.5C 448.728,113.969 441.895,117.303 435,120.5C 430.199,115.369 425.032,110.535 419.5,106C 405.188,97.8339 390.188,96.3339 374.5,101.5C 373.808,100.975 373.308,100.308 373,99.5C 371.435,89.2752 369.602,79.1085 367.5,69C 384.306,51.0269 401.64,33.5269 419.5,16.5C 432.919,24.2932 446.419,31.9599 460,39.5C 459.669,47.4845 459.669,55.4845 460,63.5C 461.805,65.8257 463.972,67.4923 466.5,68.5 Z"/></g>
<g><path style="opacity:1" fill="#57b640" d="M 355.5,116.5 C 355.103,115.475 354.437,115.308 353.5,116C 350,120.167 346.5,124.333 343,128.5C 290.709,216.457 217.543,280.623 123.5,321C 74.0979,358.071 59.7646,405.905 80.5,464.5C 61.946,445.379 51.446,422.379 49,395.5C 47.907,346.167 69.407,310.667 113.5,289C 116.1,286.016 117.1,282.516 116.5,278.5C 121.615,276.354 126.615,274.02 131.5,271.5C 134.136,274.651 137.469,275.818 141.5,275C 217.082,233.752 276.582,175.919 320,101.5C 328.963,90.1987 339.963,81.532 353,75.5C 355.486,86.7449 357.653,98.0783 359.5,109.5C 358.914,112.349 357.58,114.682 355.5,116.5 Z"/></g>
<g><path style="opacity:1" fill="#6fd55a" d="M 80.5,464.5 C 59.7646,405.905 74.0979,358.071 123.5,321C 217.543,280.623 290.709,216.457 343,128.5C 346.5,124.333 350,120.167 353.5,116C 354.437,115.308 355.103,115.475 355.5,116.5C 343.197,138.978 328.697,159.978 312,179.5C 311.219,180.729 310.719,182.062 310.5,183.5C 312.031,190.044 316.031,192.211 322.5,190C 341.837,168.171 358.337,144.337 372,118.5C 375.073,117.142 378.24,115.975 381.5,115C 399.506,110.55 413.173,116.216 422.5,132C 415.545,149.743 407.378,166.91 398,183.5C 397.333,185.5 397.333,187.5 398,189.5C 402.617,196.152 407.283,196.152 412,189.5C 421.59,172.321 430.09,154.654 437.5,136.5C 444.272,133.031 451.105,129.697 458,126.5C 459.885,127.992 460.885,129.992 461,132.5C 463.019,143.886 462.686,155.22 460,166.5C 414.449,288.463 339.283,387.963 234.5,465C 223.633,473.52 211.966,480.853 199.5,487C 154.904,504.579 115.237,497.079 80.5,464.5 Z"/></g>
</svg>
