<?xml version="1.0" encoding="UTF-8"?>
<!DOCTYPE svg PUBLIC "-//W3C//DTD SVG 1.1//EN" "http://www.w3.org/Graphics/SVG/1.1/DTD/svg11.dtd">
<svg xmlns="http://www.w3.org/2000/svg" version="1.1" width="512px" height="512px" style="shape-rendering:geometricPrecision; text-rendering:geometricPrecision; image-rendering:optimizeQuality; fill-rule:evenodd; clip-rule:evenodd" xmlns:xlink="http://www.w3.org/1999/xlink">
<g><path style="opacity:1" fill="#040404" d="M 511.5,62.5 C 511.5,68.5 511.5,74.5 511.5,80.5C 508.503,90.6268 502.837,99.1268 494.5,106C 467.203,129.629 440.203,153.629 413.5,178C 435.064,183.184 455.064,191.85 473.5,204C 481.784,209.939 487.284,217.772 490,227.5C 489.954,323.453 449.454,396.62 368.5,447C 305.329,481.834 239.162,489 170,468.5C 94.9427,442.972 42.9427,393.305 14,319.5C 6.65523,298.592 1.8219,277.258 -0.5,255.5C -0.5,245.833 -0.5,236.167 -0.5,226.5C 1.87133,220.767 5.038,215.434 9,210.5C 19.7766,200.856 31.9432,193.356 45.5,188C 75.3208,177.212 105.987,169.878 137.5,166C 186.321,159.894 235.321,157.894 284.5,160C 301.195,161.002 317.861,162.002 334.5,163C 343.331,152.337 352.664,142.171 362.5,132.5C 364.587,131.415 365.92,129.749 366.5,127.5C 367.833,125.5 369.5,123.833 371.5,122.5C 373.587,121.415 374.92,119.749 375.5,117.5C 376.833,115.5 378.5,113.833 380.5,112.5C 382.587,111.415 383.92,109.749 384.5,107.5C 385.833,105.5 387.5,103.833 389.5,102.5C 391.587,101.415 392.92,99.7488 393.5,97.5C 394.833,95.5 396.5,93.8333 398.5,92.5C 400.587,91.4154 401.92,89.7488 402.5,87.5C 403.833,85.5 405.5,83.8333 407.5,82.5C 409.587,81.4154 410.92,79.7488 411.5,77.5C 412.833,75.5 414.5,73.8333 416.5,72.5C 418.587,71.4154 419.92,69.7488 420.5,67.5C 421.833,65.5 423.5,63.8333 425.5,62.5C 427.587,61.4154 428.92,59.7488 429.5,57.5C 435.666,49.1677 442.999,42.001 451.5,36C 474.361,26.1698 492.861,31.3365 507,51.5C 508.559,55.2656 510.059,58.9323 511.5,62.5 Z"/></g>
<g><path style="opacity:1" fill="#ccd5d9" d="M 466.5,52.5 C 479.997,51.3454 487.997,57.3454 490.5,70.5C 490.264,74.7787 489.097,78.7787 487,82.5C 426.5,136.333 366,190.167 305.5,244C 300.5,244.667 295.5,244.667 290.5,244C 347.167,181.333 403.833,118.667 460.5,56C 462.727,55.059 464.727,53.8923 466.5,52.5 Z"/></g>
<g><path style="opacity:0.859" fill="#5f6365" d="M 429.5,57.5 C 428.92,59.7488 427.587,61.4154 425.5,62.5C 426.08,60.2512 427.413,58.5846 429.5,57.5 Z"/></g>
<g><path style="opacity:0.859" fill="#5f6365" d="M 420.5,67.5 C 419.92,69.7488 418.587,71.4154 416.5,72.5C 417.08,70.2512 418.413,68.5846 420.5,67.5 Z"/></g>
<g><path style="opacity:0.859" fill="#5f6365" d="M 411.5,77.5 C 410.92,79.7488 409.587,81.4154 407.5,82.5C 408.08,80.2512 409.413,78.5846 411.5,77.5 Z"/></g>
<g><path style="opacity:0.859" fill="#5f6365" d="M 402.5,87.5 C 401.92,89.7488 400.587,91.4154 398.5,92.5C 399.08,90.2512 400.413,88.5846 402.5,87.5 Z"/></g>
<g><path style="opacity:0.859" fill="#5e6163" d="M 393.5,97.5 C 392.92,99.7488 391.587,101.415 389.5,102.5C 390.08,100.251 391.413,98.5846 393.5,97.5 Z"/></g>
<g><path style="opacity:0.859" fill="#5d6163" d="M 384.5,107.5 C 383.92,109.749 382.587,111.415 380.5,112.5C 381.08,110.251 382.413,108.585 384.5,107.5 Z"/></g>
<g><path style="opacity:0.859" fill="#5d6163" d="M 375.5,117.5 C 374.92,119.749 373.587,121.415 371.5,122.5C 372.08,120.251 373.413,118.585 375.5,117.5 Z"/></g>
<g><path style="opacity:0.859" fill="#5d6163" d="M 366.5,127.5 C 365.92,129.749 364.587,131.415 362.5,132.5C 363.08,130.251 364.413,128.585 366.5,127.5 Z"/></g>
<g><path style="opacity:1" fill="#f7f7f7" d="M 206.5,181.5 C 243.201,180.978 279.868,181.812 316.5,184C 310.95,190.262 305.283,196.428 299.5,202.5C 268.19,202.481 236.857,202.648 205.5,203C 166.408,204.311 127.741,208.977 89.5,217C 72.134,220.561 56.134,227.228 41.5,237C 37.8966,240.38 34.8966,244.213 32.5,248.5C 18.2499,239.434 17.9165,229.934 31.5,220C 51.1502,208.669 72.1502,200.669 94.5,196C 131.587,188.195 168.92,183.362 206.5,181.5 Z"/></g>
<g><path style="opacity:1" fill="#f5f5f5" d="M 391.5,195.5 C 415.666,200.164 438.332,208.664 459.5,221C 471.758,230.986 471.092,240.152 457.5,248.5C 451.749,239.111 443.749,232.278 433.5,228C 414.313,220.787 394.647,215.287 374.5,211.5C 380.213,206.117 385.88,200.784 391.5,195.5 Z"/></g>
<g><path style="opacity:1" fill="#fcbf07" d="M 223.5,223.5 C 242.179,223.167 260.845,223.5 279.5,224.5C 274.02,231.148 268.353,237.648 262.5,244C 255.833,244.333 249.167,244.667 242.5,245C 234.198,248.73 232.365,254.564 237,262.5C 238.579,264.041 240.413,265.208 242.5,266C 276.881,266.973 311.214,266.639 345.5,265C 353.5,258.667 353.5,252.333 345.5,246C 343.122,245.489 340.788,244.822 338.5,244C 343.087,238.741 348.253,234.241 354,230.5C 378.873,233.427 403.04,239.26 426.5,248C 428.67,249.586 431.004,250.92 433.5,252C 435.448,253.439 436.781,255.272 437.5,257.5C 437.182,258.647 436.516,259.481 435.5,260C 397.216,273.07 357.882,281.07 317.5,284C 243.592,291.322 170.259,287.655 97.5,273C 83.6066,269.777 69.9399,265.777 56.5,261C 54.522,260.519 53.1887,259.353 52.5,257.5C 53.5589,254.932 55.2256,252.765 57.5,251C 66.4379,246.353 75.7713,242.687 85.5,240C 110.859,233.829 136.525,229.496 162.5,227C 182.957,225.329 203.29,224.163 223.5,223.5 Z"/></g>
<g><path style="opacity:1" fill="#5f7c8a" d="M 23.5,268.5 C 39.7712,278.094 57.1046,285.261 75.5,290C 128.7,302.952 182.7,309.119 237.5,308.5C 284.494,309.211 331.16,305.711 377.5,298C 400.023,293.869 422.023,287.869 443.5,280C 450.779,277.027 457.779,273.527 464.5,269.5C 465.221,274.872 464.721,280.205 463,285.5C 442.993,361.699 396.493,414.532 323.5,444C 241.539,471.786 166.873,458.786 99.5,405C 58.2014,368.586 32.8681,323.086 23.5,268.5 Z"/></g>
</svg>
