<?xml version="1.0" encoding="UTF-8"?>
<!DOCTYPE svg PUBLIC "-//W3C//DTD SVG 1.1//EN" "http://www.w3.org/Graphics/SVG/1.1/DTD/svg11.dtd">
<svg xmlns="http://www.w3.org/2000/svg" version="1.1" width="512px" height="512px" style="shape-rendering:geometricPrecision; text-rendering:geometricPrecision; image-rendering:optimizeQuality; fill-rule:evenodd; clip-rule:evenodd" xmlns:xlink="http://www.w3.org/1999/xlink">
<g><path style="opacity:0.977" fill="#020100" d="M 511.5,231.5 C 511.5,237.167 511.5,242.833 511.5,248.5C 509.422,255.801 505.422,261.967 499.5,267C 475.197,276.934 450.864,286.767 426.5,296.5C 435.421,305.593 442.588,315.926 448,327.5C 457.524,335.934 466.857,344.601 476,353.5C 488.26,372.495 483.76,385.995 462.5,394C 438.722,401.181 414.389,404.848 389.5,405C 377.833,405.667 366.167,405.667 354.5,405C 351.778,403.728 350.444,401.561 350.5,398.5C 350.544,394.91 352.211,392.41 355.5,391C 383.637,390.395 411.637,388.228 439.5,384.5C 447.806,382.564 455.806,379.731 463.5,376C 468.519,372.153 468.685,367.986 464,363.5C 454.667,354.833 445.333,346.167 436,337.5C 429.687,324.03 420.854,312.53 409.5,303C 393.523,295.9 378.523,297.4 364.5,307.5C 359.32,311.171 353.986,314.671 348.5,318C 342.463,321.123 336.13,323.457 329.5,325C 314.508,326.714 299.508,328.38 284.5,330C 262.03,331.365 243.196,340.198 228,356.5C 221.08,365.072 222.247,372.238 231.5,378C 245.261,383.69 259.595,387.023 274.5,388C 291.481,389.272 308.481,390.272 325.5,391C 328.892,392.542 330.892,395.042 331.5,398.5C 331.067,401.195 329.734,403.362 327.5,405C 298.548,406.17 269.881,403.837 241.5,398C 228.917,395.384 218.584,389.218 210.5,379.5C 176.611,392.944 142.611,406.111 108.5,419C 74.6316,426.044 47.1316,415.877 26,388.5C 12.3873,369.814 3.55396,349.148 -0.5,326.5C -0.5,316.5 -0.5,306.5 -0.5,296.5C 4.19996,266.618 20.8666,246.451 49.5,236C 98.6112,217.277 147.611,198.277 196.5,179C 201.999,176.374 206.666,177.207 210.5,181.5C 211.204,185.803 209.87,189.303 206.5,192C 162.5,209 118.5,226 74.5,243C 73.5494,243.718 73.3828,244.551 74,245.5C 78.5075,249.867 82.0075,254.867 84.5,260.5C 85.8299,267.432 86.8299,274.432 87.5,281.5C 207.539,234.765 327.539,187.931 447.5,141C 451.227,136.948 452.894,132.114 452.5,126.5C 452.713,123.473 452.047,120.807 450.5,118.5C 447.351,108.761 440.684,104.261 430.5,105C 367.755,129.137 305.088,153.471 242.5,178C 237.643,179.407 233.643,178.24 230.5,174.5C 229.352,169.561 231.019,166.061 235.5,164C 299.088,139.137 362.755,114.471 426.5,90C 449.894,88.3753 463.728,99.2086 468,122.5C 469.994,139.854 463.161,152.187 447.5,159.5C 453.118,174.693 459.118,189.693 465.5,204.5C 480.917,198.915 493.75,202.581 504,215.5C 507.357,220.542 509.857,225.876 511.5,231.5 Z"/></g>
<g><path style="opacity:0.999" fill="#d67c48" d="M 450.5,118.5 C 328.654,166.008 206.654,213.342 84.5,260.5C 82.0075,254.867 78.5075,249.867 74,245.5C 73.3828,244.551 73.5494,243.718 74.5,243C 118.5,226 162.5,209 206.5,192C 209.87,189.303 211.204,185.803 210.5,181.5C 217.177,179.16 223.844,176.826 230.5,174.5C 233.643,178.24 237.643,179.407 242.5,178C 305.088,153.471 367.755,129.137 430.5,105C 440.684,104.261 447.351,108.761 450.5,118.5 Z"/></g>
<g><path style="opacity:1" fill="#c66c34" d="M 450.5,118.5 C 452.047,120.807 452.713,123.473 452.5,126.5C 452.894,132.114 451.227,136.948 447.5,141C 327.539,187.931 207.539,234.765 87.5,281.5C 86.8299,274.432 85.8299,267.432 84.5,260.5C 206.654,213.342 328.654,166.008 450.5,118.5 Z"/></g>
<g><path style="opacity:1" fill="#aa5c2b" d="M 430.5,163.5 C 432.335,164.122 433.502,165.456 434,167.5C 439.798,182.089 445.298,196.755 450.5,211.5C 329.261,257.637 208.261,304.47 87.5,352C 83.3024,356.632 83.6357,360.965 88.5,365C 91.6571,365.24 94.8238,365.073 98,364.5C 103.191,364.672 107.191,367.005 110,371.5C 115.937,380.369 116.937,389.702 113,399.5C 95.0131,409.172 77.1798,408.672 59.5,398C 33.782,379.094 18.9486,353.594 15,321.5C 11.259,297.051 18.4256,276.551 36.5,260C 41.2689,256.897 46.2689,254.231 51.5,252C 59.8911,251.693 65.7245,255.526 69,263.5C 72.2923,271.526 72.2923,279.526 69,287.5C 64.5605,289.103 61.7271,292.103 60.5,296.5C 61.129,302.631 64.4624,305.131 70.5,304C 190.7,257.389 310.7,210.556 430.5,163.5 Z"/></g>
<g><path style="opacity:1" fill="#d57c48" d="M 494.5,231.5 C 421.734,259.062 349.401,287.395 277.5,316.5C 259.126,318.511 242.459,324.844 227.5,335.5C 194.101,347.967 160.767,360.634 127.5,373.5C 125.071,367.478 121.737,361.978 117.5,357C 118.167,356.333 118.833,355.667 119.5,355C 237.278,309.611 354.945,263.944 472.5,218C 483.768,216.132 491.101,220.632 494.5,231.5 Z"/></g>
<g><path style="opacity:1" fill="#c56b34" d="M 494.5,231.5 C 497.063,237.729 496.896,244.062 494,250.5C 488.927,254.977 483.094,258.143 476.5,260C 453.588,268.637 430.755,277.471 408,286.5C 390.478,281.005 373.978,283.172 358.5,293C 349.703,300.734 339.703,306.4 328.5,310C 311.449,311.923 294.449,314.09 277.5,316.5C 349.401,287.395 421.734,259.062 494.5,231.5 Z"/></g>
<g><path style="opacity:1" fill="#f9b857" d="M 439.5,384.5 C 438.141,380.118 435.974,376.118 433,372.5C 425.296,365.127 417.296,358.127 409,351.5C 403.499,341.827 397.499,332.494 391,323.5C 383.912,315.209 375.079,309.876 364.5,307.5C 378.523,297.4 393.523,295.9 409.5,303C 420.854,312.53 429.687,324.03 436,337.5C 445.333,346.167 454.667,354.833 464,363.5C 468.685,367.986 468.519,372.153 463.5,376C 455.806,379.731 447.806,382.564 439.5,384.5 Z"/></g>
<g><path style="opacity:0.999" fill="#fdd571" d="M 364.5,307.5 C 375.079,309.876 383.912,315.209 391,323.5C 397.499,332.494 403.499,341.827 409,351.5C 417.296,358.127 425.296,365.127 433,372.5C 435.974,376.118 438.141,380.118 439.5,384.5C 411.637,388.228 383.637,390.395 355.5,391C 352.211,392.41 350.544,394.91 350.5,398.5C 344.167,398.5 337.833,398.5 331.5,398.5C 330.892,395.042 328.892,392.542 325.5,391C 308.481,390.272 291.481,389.272 274.5,388C 259.595,387.023 245.261,383.69 231.5,378C 222.247,372.238 221.08,365.072 228,356.5C 243.196,340.198 262.03,331.365 284.5,330C 299.508,328.38 314.508,326.714 329.5,325C 336.13,323.457 342.463,321.123 348.5,318C 353.986,314.671 359.32,311.171 364.5,307.5 Z"/></g>
<g><path style="opacity:1" fill="#c66c34" d="M 227.5,335.5 C 223.87,339.631 220.037,343.631 216,347.5C 212.166,352.84 209.166,358.507 207,364.5C 181.581,374.472 156.081,384.138 130.5,393.5C 130.933,386.574 129.933,379.907 127.5,373.5C 160.767,360.634 194.101,347.967 227.5,335.5 Z"/></g>
</svg>
