<?xml version="1.0" encoding="UTF-8"?>
<!DOCTYPE svg PUBLIC "-//W3C//DTD SVG 1.1//EN" "http://www.w3.org/Graphics/SVG/1.1/DTD/svg11.dtd">
<svg xmlns="http://www.w3.org/2000/svg" version="1.1" width="512px" height="512px" style="shape-rendering:geometricPrecision; text-rendering:geometricPrecision; image-rendering:optimizeQuality; fill-rule:evenodd; clip-rule:evenodd" xmlns:xlink="http://www.w3.org/1999/xlink">
<g><path style="opacity:0.987" fill="#010101" d="M 247.5,7.5 C 309.522,6.74254 354.022,34.0759 381,89.5C 387.033,104.965 390.866,120.965 392.5,137.5C 395.109,136.77 397.776,136.27 400.5,136C 434.832,135.5 469.165,135.333 503.5,135.5C 504.849,183.641 485.516,220.808 445.5,247C 438.379,250.644 431.213,254.144 424,257.5C 422.958,308.653 405.458,353.153 371.5,391C 407.5,391.333 443.5,391.667 479.5,392C 489.31,394.646 496.477,400.48 501,409.5C 506.009,423.468 503.842,436.135 494.5,447.5C 504.69,460.501 506.19,474.501 499,489.5C 494.158,496.334 487.658,500.834 479.5,503C 367.5,503.667 255.5,503.667 143.5,503C 124.562,496.645 116.728,483.478 120,463.5C 121.531,457.437 124.364,452.103 128.5,447.5C 126.136,444.301 123.97,440.968 122,437.5C 45.6262,397.452 7.6262,334.118 8,247.5C 12.2048,236.253 19.3715,227.42 29.5,221C 44.1804,211.995 59.8471,205.162 76.5,200.5C 81.9933,181.349 92.9933,166.183 109.5,155C 122.37,147.897 135.703,141.897 149.5,137C 190.22,130.523 219.22,145.857 236.5,183C 247.193,183.935 257.86,184.602 268.5,185C 257.513,167.71 250.68,148.876 248,128.5C 247.5,88.168 247.333,47.8347 247.5,7.5 Z"/></g>
<g><path style="opacity:1" fill="#b1da7d" d="M 263.5,24.5 C 312.311,29.1429 346.811,53.8095 367,98.5C 372.93,112.643 375.43,127.31 374.5,142.5C 359.365,148.561 345.699,156.894 333.5,167.5C 331.676,151.746 329.343,136.079 326.5,120.5C 330.985,107.856 336.319,95.523 342.5,83.5C 338.22,80.7764 333.72,78.4431 329,76.5C 325.773,81.949 322.773,87.6156 320,93.5C 312.697,72.5564 302.031,53.5564 288,36.5C 287.163,34.9926 285.996,34.4926 284.5,35C 281.333,38.1667 278.167,41.3333 275,44.5C 274.333,45.1667 274.333,45.8333 275,46.5C 288.459,60.4209 297.459,76.7542 302,95.5C 296.258,90.7132 290.425,86.0465 284.5,81.5C 281.167,85.5 277.833,89.5 274.5,93.5C 286.812,103.311 298.979,113.311 311,123.5C 313.319,133.074 314.652,142.74 315,152.5C 304.578,147.039 294.078,141.706 283.5,136.5C 280.776,140.78 278.443,145.28 276.5,150C 289.734,157.536 303.234,164.702 317,171.5C 319.599,178.505 318.766,185.005 314.5,191C 306.768,190.789 299.101,189.789 291.5,188C 275.538,169.14 266.372,147.307 264,122.5C 263.5,89.835 263.333,57.1684 263.5,24.5 Z"/></g>
<g><path style="opacity:1" fill="#cd9d75" d="M 157.5,151.5 C 183.313,149.325 203.147,158.992 217,180.5C 221.363,192.615 226.029,204.615 231,216.5C 242.421,228.906 256.587,234.073 273.5,232C 279.187,232.928 283.687,235.761 287,240.5C 292.154,252.32 300.987,259.82 313.5,263C 326.889,263.075 340.222,263.742 353.5,265C 362.971,270.127 367.638,277.96 367.5,288.5C 333.127,300.208 297.794,307.375 261.5,310C 207.329,314.427 153.662,311.093 100.5,300C 88.0134,296.962 75.68,293.462 63.5,289.5C 64.3458,282.78 67.0124,276.947 71.5,272C 90.1637,271.5 108.83,271.333 127.5,271.5C 127.5,266.167 127.5,260.833 127.5,255.5C 114.5,255.5 101.5,255.5 88.5,255.5C 89.163,237.373 90.9963,219.373 94,201.5C 98.392,187.781 106.559,176.947 118.5,169C 131.142,162.006 144.142,156.172 157.5,151.5 Z"/></g>
<g><path style="opacity:1" fill="#9dd166" d="M 402.5,151.5 C 430.5,151.5 458.5,151.5 486.5,151.5C 482.194,193.267 460.861,222.767 422.5,240C 421.5,240.667 420.5,240.667 419.5,240C 411.315,228.819 400.982,220.152 388.5,214C 394.994,209.252 401.661,204.752 408.5,200.5C 420.167,205.167 431.833,209.833 443.5,214.5C 446.197,210.118 448.53,205.451 450.5,200.5C 442.434,197.091 434.434,193.591 426.5,190C 440.389,181.648 455.389,176.814 471.5,175.5C 471.5,170.167 471.5,164.833 471.5,159.5C 460.5,159.933 449.834,162.1 439.5,166C 422.488,172.918 406.654,181.751 392,192.5C 391.5,184.173 391.334,175.84 391.5,167.5C 386.167,167.5 380.833,167.5 375.5,167.5C 375.822,180.08 375.489,192.58 374.5,205C 372.635,206.301 370.635,206.635 368.5,206C 357.053,201.888 345.386,198.555 333.5,196C 332.044,195.577 331.544,194.744 332,193.5C 350.055,170.388 373.555,156.388 402.5,151.5 Z"/></g>
<g><path style="opacity:1" fill="#000000" d="M 175.5,167.5 C 180.833,167.5 186.167,167.5 191.5,167.5C 191.5,172.833 191.5,178.167 191.5,183.5C 186.167,183.5 180.833,183.5 175.5,183.5C 175.5,178.167 175.5,172.833 175.5,167.5 Z"/></g>
<g><path style="opacity:1" fill="#000000" d="M 135.5,175.5 C 140.833,175.5 146.167,175.5 151.5,175.5C 151.5,180.833 151.5,186.167 151.5,191.5C 146.167,191.5 140.833,191.5 135.5,191.5C 135.5,186.167 135.5,180.833 135.5,175.5 Z"/></g>
<g><path style="opacity:1" fill="#000000" d="M 183.5,199.5 C 188.833,199.5 194.167,199.5 199.5,199.5C 199.5,204.833 199.5,210.167 199.5,215.5C 194.167,215.5 188.833,215.5 183.5,215.5C 183.5,210.167 183.5,204.833 183.5,199.5 Z"/></g>
<g><path style="opacity:1" fill="#e3e6ea" d="M 241.5,200.5 C 284.307,201.304 325.973,208.471 366.5,222C 382.347,226.995 395.514,235.828 406,248.5C 408.373,254.518 407.706,260.185 404,265.5C 398.163,272.162 391.329,277.495 383.5,281.5C 380.229,263.731 369.896,252.565 352.5,248C 340.167,247.667 327.833,247.333 315.5,247C 307.274,243.107 301.441,236.941 298,228.5C 292.859,223.013 286.692,219.18 279.5,217C 271.543,215.891 263.543,215.224 255.5,215C 247.907,212.908 243.24,208.075 241.5,200.5 Z"/></g>
<g><path style="opacity:1" fill="#000000" d="M 151.5,215.5 C 156.833,215.5 162.167,215.5 167.5,215.5C 167.5,220.833 167.5,226.167 167.5,231.5C 162.167,231.5 156.833,231.5 151.5,231.5C 151.5,226.167 151.5,220.833 151.5,215.5 Z"/></g>
<g><path style="opacity:1" fill="#e3e6ea" d="M 72.5,218.5 C 73.5,218.5 74.5,218.5 75.5,218.5C 74.4845,230.837 73.3178,243.17 72,255.5C 58.3461,258.664 50.8461,267.331 49.5,281.5C 15.2352,264.829 14.9019,247.329 48.5,229C 56.4727,225.174 64.4727,221.674 72.5,218.5 Z"/></g>
<g><path style="opacity:1" fill="#000000" d="M 103.5,223.5 C 108.833,223.5 114.167,223.5 119.5,223.5C 119.5,228.833 119.5,234.167 119.5,239.5C 114.167,239.5 108.833,239.5 103.5,239.5C 103.5,234.167 103.5,228.833 103.5,223.5 Z"/></g>
<g><path style="opacity:1" fill="#000000" d="M 199.5,247.5 C 204.833,247.5 210.167,247.5 215.5,247.5C 215.5,252.833 215.5,258.167 215.5,263.5C 210.167,263.5 204.833,263.5 199.5,263.5C 199.5,258.167 199.5,252.833 199.5,247.5 Z"/></g>
<g><path style="opacity:1" fill="#000000" d="M 143.5,255.5 C 148.833,255.5 154.167,255.5 159.5,255.5C 159.5,260.833 159.5,266.167 159.5,271.5C 154.167,271.5 148.833,271.5 143.5,271.5C 143.5,266.167 143.5,260.833 143.5,255.5 Z"/></g>
<g><path style="opacity:1" fill="#000000" d="M 255.5,271.5 C 260.833,271.5 266.167,271.5 271.5,271.5C 271.5,276.833 271.5,282.167 271.5,287.5C 266.167,287.5 260.833,287.5 255.5,287.5C 255.5,282.167 255.5,276.833 255.5,271.5 Z"/></g>
<g><path style="opacity:1" fill="#000000" d="M 183.5,279.5 C 188.833,279.5 194.167,279.5 199.5,279.5C 199.5,284.833 199.5,290.167 199.5,295.5C 194.167,295.5 188.833,295.5 183.5,295.5C 183.5,290.167 183.5,284.833 183.5,279.5 Z"/></g>
<g><path style="opacity:1" fill="#000000" d="M 287.5,279.5 C 292.833,279.5 298.167,279.5 303.5,279.5C 303.5,284.833 303.5,290.167 303.5,295.5C 298.167,295.5 292.833,295.5 287.5,295.5C 287.5,290.167 287.5,284.833 287.5,279.5 Z"/></g>
<g><path style="opacity:1" fill="#cacfd7" d="M 26.5,287.5 C 50.5587,302.136 76.5587,311.969 104.5,317C 185.855,332.419 266.855,330.753 347.5,312C 367.645,306.734 386.478,298.567 404,287.5C 397.049,328.575 378.215,363.075 347.5,391C 279.833,391.333 212.167,391.667 144.5,392C 131.292,395.708 122.959,404.208 119.5,417.5C 69.217,388.18 38.217,344.846 26.5,287.5 Z"/></g>
<g><path style="opacity:1" fill="#040404" d="M 66.5,316.5 C 70.7844,322.373 74.6178,328.707 78,335.5C 88.1705,351.01 100.504,364.676 115,376.5C 115.315,377.908 114.982,379.241 114,380.5C 111.833,383.333 109.667,386.167 107.5,389C 105.369,388.602 103.369,387.602 101.5,386C 80.5756,368.744 64.5756,347.744 53.5,323C 57.9811,320.91 62.3144,318.743 66.5,316.5 Z"/></g>
<g><path style="opacity:1" fill="#080808" d="M 352.5,335.5 C 357.114,338.117 361.447,341.117 365.5,344.5C 363.226,348.772 360.559,352.772 357.5,356.5C 352.812,353.822 348.479,350.656 344.5,347C 347.777,343.563 350.443,339.729 352.5,335.5 Z"/></g>
<g><path style="opacity:1" fill="#0a0a0a" d="M 333.5,359.5 C 334.552,359.351 335.552,359.517 336.5,360C 339.833,363.333 343.167,366.667 346.5,370C 342.954,373.882 339.121,377.382 335,380.5C 330.656,377.656 327.156,373.989 324.5,369.5C 327.522,366.147 330.522,362.813 333.5,359.5 Z"/></g>
<g><path style="opacity:1" fill="#d29f6b" d="M 146.5,407.5 C 256.501,407.333 366.501,407.5 476.5,408C 486.405,412.644 489.572,420.144 486,430.5C 480.039,439.283 472.206,441.449 462.5,437C 457.904,433.64 455.571,429.14 455.5,423.5C 450.167,423.5 444.833,423.5 439.5,423.5C 439.738,428.787 441.072,433.787 443.5,438.5C 372.836,439.5 302.17,439.833 231.5,439.5C 231.5,444.833 231.5,450.167 231.5,455.5C 302.17,455.167 372.836,455.5 443.5,456.5C 440.76,461.125 439.427,466.125 439.5,471.5C 444.833,471.5 450.167,471.5 455.5,471.5C 458.349,457.073 466.683,452.573 480.5,458C 489.677,466.949 489.677,475.949 480.5,485C 478.913,485.862 477.246,486.529 475.5,487C 365.833,487.667 256.167,487.667 146.5,487C 136.08,481.496 133.247,473.329 138,462.5C 140.264,459.567 143.098,457.4 146.5,456C 169.498,455.5 192.498,455.333 215.5,455.5C 215.5,450.167 215.5,444.833 215.5,439.5C 192.498,439.667 169.498,439.5 146.5,439C 136.08,433.496 133.247,425.329 138,414.5C 140.441,411.546 143.275,409.213 146.5,407.5 Z"/></g>
</svg>
