<?xml version="1.0" encoding="UTF-8"?>
<!DOCTYPE svg PUBLIC "-//W3C//DTD SVG 1.1//EN" "http://www.w3.org/Graphics/SVG/1.1/DTD/svg11.dtd">
<svg xmlns="http://www.w3.org/2000/svg" version="1.1" width="512px" height="512px" style="shape-rendering:geometricPrecision; text-rendering:geometricPrecision; image-rendering:optimizeQuality; fill-rule:evenodd; clip-rule:evenodd" xmlns:xlink="http://www.w3.org/1999/xlink">
<g><path style="opacity:0.982" fill="#020100" d="M 336.5,-0.5 C 343.833,-0.5 351.167,-0.5 358.5,-0.5C 379.906,8.15049 387.239,23.6505 380.5,46C 386.5,46.6667 392.5,46.6667 398.5,46C 408.658,35.8337 417.491,24.667 425,12.5C 431.001,6.62969 437.834,2.29636 445.5,-0.5C 451.5,-0.5 457.5,-0.5 463.5,-0.5C 481.772,5.28181 491.772,17.7818 493.5,37C 492.745,39.1748 491.912,41.3415 491,43.5C 431.167,112.667 371.333,181.833 311.5,251C 374.027,314.194 436.527,377.36 499,440.5C 501.922,448.208 503.089,456.208 502.5,464.5C 504.751,488.394 494.751,504.061 472.5,511.5C 447.833,511.5 423.167,511.5 398.5,511.5C 393.804,509.656 389.137,507.489 384.5,505C 332.637,452.137 281.137,398.971 230,345.5C 211.157,367.736 191.99,389.57 172.5,411C 168.719,413.225 164.719,414.891 160.5,416C 140.031,417.124 119.531,417.624 99,417.5C 78.4688,417.624 57.9688,417.124 37.5,416C 16.6211,409.1 7.12111,394.6 9,372.5C 10.1672,366.326 12.5006,360.66 16,355.5C 21.2912,350.03 26.9579,345.03 33,340.5C 63.6861,305.982 94.1861,271.315 124.5,236.5C 97.1511,208.318 69.9845,179.985 43,151.5C 34.4444,135.774 34.4444,120.107 43,104.5C 53.6119,94.3615 66.1119,91.1949 80.5,95C 91.3333,105.833 102.167,116.667 113,127.5C 113.704,102.153 126.87,90.9861 152.5,94C 154.246,94.4709 155.913,95.1376 157.5,96C 173.681,112.347 190.014,128.514 206.5,144.5C 249.884,96.1211 293.217,47.7878 336.5,-0.5 Z"/></g>
<g><path style="opacity:1" fill="#bd6314" d="M 344.5,18.5 C 355.931,16.6827 362.264,21.3493 363.5,32.5C 363.756,36.1227 362.923,39.456 361,42.5C 319.333,86.8333 277.667,131.167 236,175.5C 231,170.5 226,165.5 221,160.5C 220.333,159.5 220.333,158.5 221,157.5C 262.746,111.593 303.913,65.2596 344.5,18.5 Z"/></g>
<g><path style="opacity:1" fill="#bd6314" d="M 449.5,18.5 C 462.227,17.109 470.06,22.4424 473,34.5C 414.707,102.462 356.04,170.129 297,237.5C 290,230.5 283,223.5 276,216.5C 275.333,215.5 275.333,214.5 276,213.5C 333.699,148.306 391.532,83.3058 449.5,18.5 Z"/></g>
<g><path style="opacity:1" fill="#92641c" d="M 364.5,66.5 C 370.013,65.1843 375.68,65.1843 381.5,66.5C 381.376,67.1067 381.043,67.44 380.5,67.5C 375.36,66.5119 370.026,66.1786 364.5,66.5 Z"/></g>
<g><path style="opacity:1" fill="#eda22f" d="M 364.5,66.5 C 370.026,66.1786 375.36,66.5119 380.5,67.5C 341.174,112.324 301.341,156.657 261,200.5C 255.748,197.269 252.082,192.936 250,187.5C 288.399,147.271 326.566,106.938 364.5,66.5 Z"/></g>
<g><path style="opacity:1" fill="#be6314" d="M 61.5,113.5 C 65.1817,113.335 68.8484,113.501 72.5,114C 174.637,219.804 277.137,325.304 380,430.5C 379.28,433.265 377.613,435.599 375,437.5C 370.187,444.726 368.187,452.726 369,461.5C 266.03,354.196 162.697,247.196 59,140.5C 56.5404,133.379 55.8737,126.045 57,118.5C 58.7073,116.963 60.2073,115.296 61.5,113.5 Z"/></g>
<g><path style="opacity:1" fill="#bc6314" d="M 138.5,113.5 C 141.898,113.18 145.232,113.513 148.5,114.5C 252.319,219.486 356.319,324.32 460.5,429C 455.833,432.333 451.833,436.333 448.5,441C 447.004,441.507 445.837,441.007 445,439.5C 341.333,333.167 237.667,226.833 134,120.5C 134.004,117.307 135.504,114.974 138.5,113.5 Z"/></g>
<g><path style="opacity:1" fill="#bc6314" d="M 138.5,250.5 C 142.798,254.296 146.964,258.296 151,262.5C 151.667,263.5 151.667,264.5 151,265.5C 125.181,293.62 99.0141,321.453 72.5,349C 71.5,349.667 70.5,349.667 69.5,349C 65.7958,346.148 61.7958,343.815 57.5,342C 84.7082,311.629 111.708,281.129 138.5,250.5 Z"/></g>
<g><path style="opacity:1" fill="#d6922a" d="M 114.5,129.5 C 124.413,137.909 133.913,146.909 143,156.5C 230.47,246.971 318.304,337.138 406.5,427C 405.167,427.667 403.833,427.667 402.5,427C 305.912,328.248 209.912,229.081 114.5,129.5 Z"/></g>
<g><path style="opacity:1" fill="#efa32f" d="M 164.5,278.5 C 169.74,282.233 174.574,286.566 179,291.5C 179.667,292.5 179.667,293.5 179,294.5C 163.932,310.978 149.099,327.645 134.5,344.5C 114.008,357.33 108.675,374.83 118.5,397C 105.5,397.667 92.5,397.667 79.5,397C 82.27,393.293 83.77,389.126 84,384.5C 84.6806,378.037 84.3473,371.704 83,365.5C 110.005,336.329 137.172,307.329 164.5,278.5 Z"/></g>
<g><path style="opacity:1" fill="#bc6314" d="M 191.5,307.5 C 192.552,307.351 193.552,307.517 194.5,308C 202.198,315.364 209.531,323.03 216.5,331C 206.548,342.407 196.715,353.907 187,365.5C 181.711,354.212 173.211,346.379 161.5,342C 171.732,330.609 181.732,319.109 191.5,307.5 Z"/></g>
<g><path style="opacity:1" fill="#884224" d="M 42.5,359.5 C 63.1766,360.998 69.6766,371.332 62,390.5C 51.3028,400.128 40.9694,399.795 31,389.5C 25.15,375.563 28.9834,365.563 42.5,359.5 Z"/></g>
<g><path style="opacity:1" fill="#884224" d="M 147.5,359.5 C 165.803,360.439 172.636,369.772 168,387.5C 162.855,396.006 155.355,399.173 145.5,397C 133.121,390.871 129.621,381.371 135,368.5C 138.299,364.118 142.466,361.118 147.5,359.5 Z"/></g>
<g><path style="opacity:1" fill="#854023" d="M 393.5,445.5 C 404.311,444.47 408.477,449.136 406,459.5C 401.039,463.926 395.206,465.593 388.5,464.5C 388.334,459.821 388.501,455.155 389,450.5C 390.707,448.963 392.207,447.296 393.5,445.5 Z"/></g>
<g><path style="opacity:1" fill="#844023" d="M 469.5,445.5 C 476.419,444.277 480.919,446.943 483,453.5C 483.499,457.152 483.665,460.818 483.5,464.5C 479.818,464.665 476.152,464.499 472.5,464C 465.474,462.122 462.974,457.622 465,450.5C 466.366,448.638 467.866,446.972 469.5,445.5 Z"/></g>
<g><path style="opacity:1" fill="#eea22f" d="M 469.5,482.5 C 472.833,483.167 476.167,483.833 479.5,484.5C 476.424,488.396 472.424,490.896 467.5,492C 445.5,492.667 423.5,492.667 401.5,492C 397.382,490.045 394.048,487.212 391.5,483.5C 416.77,483.071 427.937,470.405 425,445.5C 434.864,455.03 444.364,464.863 453.5,475C 458.249,478.876 463.582,481.376 469.5,482.5 Z"/></g>
<g><path style="opacity:1" fill="#6f4b16" d="M 469.5,482.5 C 473.226,482.177 476.893,482.511 480.5,483.5C 480.376,484.107 480.043,484.44 479.5,484.5C 476.167,483.833 472.833,483.167 469.5,482.5 Z"/></g>
</svg>
