<?xml version="1.0" encoding="UTF-8"?>
<!DOCTYPE svg PUBLIC "-//W3C//DTD SVG 1.1//EN" "http://www.w3.org/Graphics/SVG/1.1/DTD/svg11.dtd">
<svg xmlns="http://www.w3.org/2000/svg" version="1.1" width="512px" height="512px" style="shape-rendering:geometricPrecision; text-rendering:geometricPrecision; image-rendering:optimizeQuality; fill-rule:evenodd; clip-rule:evenodd" xmlns:xlink="http://www.w3.org/1999/xlink">
<g><path style="opacity:0.967" fill="#020100" d="M 511.5,312.5 C 511.5,321.833 511.5,331.167 511.5,340.5C 503.516,388.312 479.516,425.812 439.5,453C 418.535,465.828 395.868,470.495 371.5,467C 362.228,464.849 352.895,463.015 343.5,461.5C 334.101,463.017 324.768,464.85 315.5,467C 296.832,469.449 278.832,467.115 261.5,460C 220.908,439.4 194.074,407.233 181,363.5C 176.952,348.783 174.785,333.783 174.5,318.5C 169.889,317.39 165.222,317.223 160.5,318C 124.677,329.418 91.6768,324.085 61.5,302C 27.3212,274.814 6.6545,239.647 -0.5,196.5C -0.5,186.833 -0.5,177.167 -0.5,167.5C 7.79267,120.873 35.126,92.5395 81.5,82.5C 77.6363,73.7421 74.4696,64.7421 72,55.5C 70.0469,45.2082 74.2135,41.3749 84.5,44C 113.554,51.9377 138.721,66.4377 160,87.5C 161.69,70.7342 168.19,56.2342 179.5,44C 186.25,41.7661 190.25,44.0994 191.5,51C 187.73,58.1289 183.897,65.2956 180,72.5C 178.503,76.8125 177.503,81.1458 177,85.5C 197.966,65.5951 222.466,51.7618 250.5,44C 259.661,41.8378 263.827,45.3378 263,54.5C 260.879,64.5333 257.379,74.0333 252.5,83C 295.316,90.4796 322.149,115.313 333,157.5C 335.864,172.108 336.198,186.774 334,201.5C 332.464,209.298 330.797,216.964 329,224.5C 333.681,229.349 338.515,234.015 343.5,238.5C 365.838,215.157 392.504,198.657 423.5,189C 427.122,187.894 430.789,187.561 434.5,188C 437.934,189.529 439.6,192.196 439.5,196C 437.3,206.921 434.134,217.421 430,227.5C 464.327,233.161 488.66,251.828 503,283.5C 506.946,292.973 509.78,302.64 511.5,312.5 Z"/></g>
<g><path style="opacity:1" fill="#a8d37c" d="M 90.5,62.5 C 111.307,69.2335 129.64,80.0669 145.5,95C 130.442,91.7623 115.442,88.0957 100.5,84C 95.9492,77.3984 92.6158,70.2317 90.5,62.5 Z"/></g>
<g><path style="opacity:1" fill="#a9d57e" d="M 243.5,61.5 C 244.573,62.2506 244.74,63.2506 244,64.5C 241.234,71.1993 238.067,77.6993 234.5,84C 223.16,85.7805 212.16,88.7805 201.5,93C 197.878,94.1056 194.211,94.4389 190.5,94C 206.292,80.1045 223.958,69.2711 243.5,61.5 Z"/></g>
<g><path style="opacity:1" fill="#fea95e" d="M 240.5,235.5 C 239.776,237.218 239.109,239.052 238.5,241C 233.925,243.078 229.258,244.911 224.5,246.5C 220.44,243.766 216.44,243.932 212.5,247C 199.526,257.798 189.859,270.964 183.5,286.5C 127.464,284.241 84.9643,259.241 56,211.5C 38.6202,180.919 35.1202,148.919 45.5,115.5C 61.2117,101.879 79.5451,96.3789 100.5,99C 109.637,101.201 118.637,103.868 127.5,107C 161.867,114.791 195.533,112.457 228.5,100C 269.055,95.0248 297.555,111.191 314,148.5C 322.499,170.458 322.665,192.458 314.5,214.5C 298.216,202.527 280.216,194.027 260.5,189C 251.175,186.662 247.341,190.162 249,199.5C 251.479,209.436 254.646,219.103 258.5,228.5C 253.784,229.008 249.118,229.842 244.5,231C 242.356,231.792 241.023,233.292 240.5,235.5 Z"/></g>
<g><path style="opacity:1" fill="#fd8b59" d="M 45.5,115.5 C 35.1202,148.919 38.6202,180.919 56,211.5C 84.9643,259.241 127.464,284.241 183.5,286.5C 181.641,291.409 179.975,296.409 178.5,301.5C 170.855,302.331 163.188,302.831 155.5,303C 127.963,312.8 101.963,309.8 77.5,294C 32.9475,262.39 12.4475,219.224 16,164.5C 20.3774,145.574 29.544,129.408 43.5,116C 44.0944,115.536 44.7611,115.369 45.5,115.5 Z"/></g>
<g><path style="opacity:1" fill="#a8d37d" d="M 266.5,206.5 C 287.021,213.756 305.355,224.589 321.5,239C 319.833,239.667 318.167,239.667 316.5,239C 303.655,235.052 290.655,231.718 277.5,229C 272.403,222.214 268.736,214.714 266.5,206.5 Z"/></g>
<g><path style="opacity:1" fill="#aad67e" d="M 418.5,206.5 C 419.376,206.369 420.043,206.702 420.5,207.5C 418.049,214.404 415.049,221.07 411.5,227.5C 398.994,230.278 386.661,233.778 374.5,238C 371.479,238.673 368.479,239.007 365.5,239C 381.292,225.104 398.958,214.271 418.5,206.5 Z"/></g>
<g><path style="opacity:1" fill="#fe8b59" d="M 240.5,235.5 C 239.458,240.133 241.125,243.299 245.5,245C 254.707,243.773 264.04,243.273 273.5,243.5C 277.591,252.01 282.924,259.677 289.5,266.5C 286.78,269.678 285.946,273.345 287,277.5C 292.815,280.998 298.648,284.498 304.5,288C 309.41,292.987 312.91,298.82 315,305.5C 316.07,317.532 317.403,329.532 319,341.5C 322.654,357.155 332.488,364.322 348.5,363C 360.865,358.967 367.698,350.467 369,337.5C 369.741,325.756 371.074,314.089 373,302.5C 378.15,290.497 386.983,282.497 399.5,278.5C 402.569,273.441 401.569,269.441 396.5,266.5C 397.239,266.631 397.906,266.464 398.5,266C 404.702,259.086 410.036,251.586 414.5,243.5C 452.829,243.58 478.662,261.58 492,297.5C 497.632,316.052 497.966,334.718 493,353.5C 482.566,392.58 460.066,422.413 425.5,443C 402.088,454.124 378.088,455.457 353.5,447C 350.167,446.833 346.833,446.667 343.5,446.5C 331.224,448.482 318.89,450.316 306.5,452C 291.336,453.751 277.002,451.084 263.5,444C 218.454,417.06 194.12,377.227 190.5,324.5C 191.734,296.7 203.067,274.033 224.5,256.5C 227.071,253.061 227.071,249.727 224.5,246.5C 229.258,244.911 233.925,243.078 238.5,241C 239.109,239.052 239.776,237.218 240.5,235.5 Z"/></g>
<g><path style="opacity:1" fill="#fbc067" d="M 273.5,243.5 C 277.163,243.952 280.83,244.452 284.5,245C 323.801,258.963 363.134,258.963 402.5,245C 406.466,244.172 410.466,243.672 414.5,243.5C 410.036,251.586 404.702,259.086 398.5,266C 397.906,266.464 397.239,266.631 396.5,266.5C 376.69,269.803 363.857,281.137 358,300.5C 356.662,314.22 354.995,327.887 353,341.5C 349.865,347.989 345.032,349.823 338.5,347C 336.19,345.363 334.69,343.196 334,340.5C 332.187,328.565 330.854,316.565 330,304.5C 324.969,282.631 311.469,269.964 289.5,266.5C 282.924,259.677 277.591,252.01 273.5,243.5 Z"/></g>
<g><path style="opacity:1" fill="#050301" d="M 289.5,266.5 C 311.469,269.964 324.969,282.631 330,304.5C 330.854,316.565 332.187,328.565 334,340.5C 334.69,343.196 336.19,345.363 338.5,347C 345.032,349.823 349.865,347.989 353,341.5C 354.995,327.887 356.662,314.22 358,300.5C 363.857,281.137 376.69,269.803 396.5,266.5C 401.569,269.441 402.569,273.441 399.5,278.5C 386.983,282.497 378.15,290.497 373,302.5C 371.074,314.089 369.741,325.756 369,337.5C 367.698,350.467 360.865,358.967 348.5,363C 332.488,364.322 322.654,357.155 319,341.5C 317.403,329.532 316.07,317.532 315,305.5C 312.91,298.82 309.41,292.987 304.5,288C 298.648,284.498 292.815,280.998 287,277.5C 285.946,273.345 286.78,269.678 289.5,266.5 Z"/></g>
</svg>
