<?xml version="1.0" encoding="UTF-8"?>
<!DOCTYPE svg PUBLIC "-//W3C//DTD SVG 1.1//EN" "http://www.w3.org/Graphics/SVG/1.1/DTD/svg11.dtd">
<svg xmlns="http://www.w3.org/2000/svg" version="1.1" width="512px" height="512px" style="shape-rendering:geometricPrecision; text-rendering:geometricPrecision; image-rendering:optimizeQuality; fill-rule:evenodd; clip-rule:evenodd" xmlns:xlink="http://www.w3.org/1999/xlink">
<g><path style="opacity:0.981" fill="#020301" d="M 309.5,177.5 C 305.197,178.204 301.697,176.87 299,173.5C 290.358,141.878 275.692,113.545 255,88.5C 237.726,69.1188 216.56,56.2855 191.5,50C 228.157,100.842 247.657,157.675 250,220.5C 248.549,222.464 246.716,223.797 244.5,224.5C 242.5,224.5 240.5,224.5 238.5,224.5C 236.304,223.146 234.804,221.146 234,218.5C 230.216,156.991 209.716,101.991 172.5,53.5C 172.217,52.7109 171.717,52.0442 171,51.5C 170.167,164.001 170.334,276.334 171.5,388.5C 173.767,389.423 176.1,390.256 178.5,391C 185.518,391.331 192.518,391.331 199.5,391C 201.323,391.997 202.99,393.164 204.5,394.5C 204.833,395.167 205.167,395.833 205.5,396.5C 206.029,400.192 205.029,403.358 202.5,406C 188.662,411.09 175.162,410.256 162,403.5C 148.31,410.573 134.31,411.24 120,405.5C 84.1456,421.706 54.8122,414.039 32,382.5C 19.4665,362.088 10.7999,340.088 6,316.5C 3.20867,302.449 1.042,288.449 -0.5,274.5C -0.5,257.833 -0.5,241.167 -0.5,224.5C 2.64327,176.57 17.4766,132.57 44,92.5C 83.788,38.0359 136.621,18.5359 202.5,34C 234.591,44.7613 260.425,63.9279 280,91.5C 296.146,115.071 307.979,140.738 315.5,168.5C 315.075,172.585 313.075,175.585 309.5,177.5 Z"/></g>
<g><path style="opacity:1" fill="#9bea62" d="M 113.5,99.5 C 122.211,80.8268 132.878,63.4934 145.5,47.5C 148.054,46.612 150.721,46.2786 153.5,46.5C 153.833,160.502 153.5,274.502 152.5,388.5C 138.935,394.82 127.769,392.153 119,380.5C 104.744,355.729 96.077,329.063 93,300.5C 86.099,250.882 89.099,201.882 102,153.5C 106.515,137.619 112.015,122.119 118.5,107C 118.196,103.55 116.529,101.05 113.5,99.5 Z"/></g>
<g><path style="opacity:1" fill="#d8fdbd" d="M 145.5,47.5 C 132.878,63.4934 122.211,80.8268 113.5,99.5C 109.579,97.8483 106.079,98.515 103,101.5C 84.1605,144.862 73.9938,190.195 72.5,237.5C 59.7805,248.534 45.4472,257.034 29.5,263C 25.428,263.956 21.5946,263.456 18,261.5C 17.502,264.482 17.3354,267.482 17.5,270.5C 12.6425,215.624 23.4759,163.958 50,115.5C 67.1106,85.7188 91.6106,64.5521 123.5,52C 130.655,49.5438 137.988,48.0438 145.5,47.5 Z"/></g>
<g><path style="opacity:0.999" fill="#9ae962" d="M 309.5,177.5 C 311.599,188.092 313.265,198.759 314.5,209.5C 314.649,210.552 314.483,211.552 314,212.5C 305.606,225.562 296.439,238.062 286.5,250C 272.323,255.003 257.99,259.503 243.5,263.5C 243.186,250.421 243.52,237.421 244.5,224.5C 246.716,223.797 248.549,222.464 250,220.5C 247.657,157.675 228.157,100.842 191.5,50C 216.56,56.2855 237.726,69.1188 255,88.5C 275.692,113.545 290.358,141.878 299,173.5C 301.697,176.87 305.197,178.204 309.5,177.5 Z"/></g>
<g><path style="opacity:1" fill="#748b62" d="M 172.5,53.5 C 171.501,122.331 171.167,191.331 171.5,260.5C 171.5,303.167 171.5,345.833 171.5,388.5C 170.334,276.334 170.167,164.001 171,51.5C 171.717,52.0442 172.217,52.7109 172.5,53.5 Z"/></g>
<g><path style="opacity:1" fill="#d9fdbe" d="M 172.5,53.5 C 209.716,101.991 230.216,156.991 234,218.5C 234.804,221.146 236.304,223.146 238.5,224.5C 223.179,249.988 200.846,261.988 171.5,260.5C 171.167,191.331 171.501,122.331 172.5,53.5 Z"/></g>
<g><path style="opacity:0.973" fill="#020201" d="M 436.5,262.5 C 432.512,269.561 426.845,271.228 419.5,267.5C 413.983,264.497 409.149,260.497 405,255.5C 393.278,237.113 380.778,219.28 367.5,202C 357.07,196.38 347.57,197.547 339,205.5C 328.667,220.833 318.333,236.167 308,251.5C 303.017,258.819 296.517,264.319 288.5,268C 266.945,274.054 245.612,280.72 224.5,288C 213.479,298.011 212.646,308.844 222,320.5C 233,334.5 244,348.5 255,362.5C 257.254,366.007 259.254,369.673 261,373.5C 262.422,386.439 262.922,399.439 262.5,412.5C 261.054,426.148 261.221,439.815 263,453.5C 269.847,464.671 279.347,467.838 291.5,463C 309.167,456.667 326.833,450.333 344.5,444C 351.174,442.093 357.841,442.093 364.5,444C 384.5,451 404.5,458 424.5,465C 436.096,466.125 443.929,461.291 448,450.5C 448.603,431.662 448.436,412.828 447.5,394C 446.037,381.96 448.87,371.127 456,361.5C 467,347.5 478,333.5 489,319.5C 498.937,303.881 495.437,292.381 478.5,285C 474.507,282.181 472.84,278.347 473.5,273.5C 475.227,269.938 478.06,268.271 482,268.5C 497.531,271.865 507.364,281.198 511.5,296.5C 511.5,302.167 511.5,307.833 511.5,313.5C 510.192,318.456 508.025,323.123 505,327.5C 491.513,344.476 478.513,361.809 466,379.5C 465.81,403.503 465.81,427.503 466,451.5C 459.873,474.16 445.04,484.327 421.5,482C 401.028,475.398 380.695,468.398 360.5,461C 355.743,460.19 351.076,460.524 346.5,462C 328.833,468.333 311.167,474.667 293.5,481C 270.247,485.792 254.081,477.292 245,455.5C 243.994,450.389 243.494,445.222 243.5,440C 244.22,428.177 244.553,416.343 244.5,404.5C 245.657,396.344 245.823,388.01 245,379.5C 240.057,371.397 234.557,363.73 228.5,356.5C 220.166,345.994 211.999,335.328 204,324.5C 194.375,305.506 197.542,289.006 213.5,275C 222.887,269.65 232.887,265.816 243.5,263.5C 257.99,259.503 272.323,255.003 286.5,250C 296.439,238.062 305.606,225.562 314,212.5C 314.483,211.552 314.649,210.552 314.5,209.5C 318.557,204.41 322.39,199.077 326,193.5C 339.057,180.621 354.224,177.455 371.5,184C 376.633,186.654 381.133,190.154 385,194.5C 397.219,213.105 410.052,231.272 423.5,249C 426.982,250.83 430.482,252.664 434,254.5C 435.707,256.909 436.54,259.575 436.5,262.5 Z"/></g>
<g><path style="opacity:1" fill="#fceda4" d="M 419.5,267.5 C 419.248,276.929 418.248,286.262 416.5,295.5C 409.026,293.842 401.692,291.676 394.5,289C 387.333,278.5 380.167,268 373,257.5C 366.316,250.45 358.149,247.95 348.5,250C 341.143,252.024 336.476,256.691 334.5,264C 334.927,267.023 336.261,269.523 338.5,271.5C 333.008,278.478 328.008,285.812 323.5,293.5C 321.398,291.115 318.731,289.782 315.5,289.5C 303.07,292.7 290.736,296.2 278.5,300C 264.529,307.577 260.696,318.743 267,333.5C 274.667,343.5 282.333,353.5 290,363.5C 290.197,379.211 290.697,394.877 291.5,410.5C 281.894,411.955 272.228,412.621 262.5,412.5C 262.922,399.439 262.422,386.439 261,373.5C 259.254,369.673 257.254,366.007 255,362.5C 244,348.5 233,334.5 222,320.5C 212.646,308.844 213.479,298.011 224.5,288C 245.612,280.72 266.945,274.054 288.5,268C 296.517,264.319 303.017,258.819 308,251.5C 318.333,236.167 328.667,220.833 339,205.5C 347.57,197.547 357.07,196.38 367.5,202C 380.778,219.28 393.278,237.113 405,255.5C 409.149,260.497 413.983,264.497 419.5,267.5 Z"/></g>
<g><path style="opacity:1" fill="#bdf990" d="M 238.5,224.5 C 240.5,224.5 242.5,224.5 244.5,224.5C 243.52,237.421 243.186,250.421 243.5,263.5C 232.887,265.816 222.887,269.65 213.5,275C 197.542,289.006 194.375,305.506 204,324.5C 211.999,335.328 220.166,345.994 228.5,356.5C 224.141,364.211 219.975,372.211 216,380.5C 212.68,385.647 208.847,390.314 204.5,394.5C 202.99,393.164 201.323,391.997 199.5,391C 192.518,391.331 185.518,391.331 178.5,391C 176.1,390.256 173.767,389.423 171.5,388.5C 171.5,345.833 171.5,303.167 171.5,260.5C 200.846,261.988 223.179,249.988 238.5,224.5 Z"/></g>
<g><path style="opacity:1" fill="#bcf890" d="M 72.5,237.5 C 71.1413,279.536 76.9747,320.536 90,360.5C 94.4145,371.659 99.5811,382.326 105.5,392.5C 94.296,395.575 82.9626,396.075 71.5,394C 61.5292,389.366 53.3626,382.533 47,373.5C 34.7756,353.038 26.4423,331.038 22,307.5C 19.6265,295.262 18.1265,282.929 17.5,270.5C 17.3354,267.482 17.502,264.482 18,261.5C 21.5946,263.456 25.428,263.956 29.5,263C 45.4472,257.034 59.7805,248.534 72.5,237.5 Z"/></g>
<g><path style="opacity:1" fill="#040403" d="M 416.5,295.5 C 424.099,297.426 431.432,300.259 438.5,304C 447.209,312.707 448.709,322.54 443,333.5C 435.716,343.785 428.05,353.785 420,363.5C 419.667,378.5 419.333,393.5 419,408.5C 413.966,421.604 404.466,426.771 390.5,424C 378.653,419.829 366.82,415.662 355,411.5C 342.772,415.465 330.605,419.632 318.5,424C 305.944,426.389 296.944,421.889 291.5,410.5C 290.697,394.877 290.197,379.211 290,363.5C 282.333,353.5 274.667,343.5 267,333.5C 260.696,318.743 264.529,307.577 278.5,300C 290.736,296.2 303.07,292.7 315.5,289.5C 318.731,289.782 321.398,291.115 323.5,293.5C 325.353,298.065 324.353,301.898 320.5,305C 308.571,308.865 296.571,312.532 284.5,316C 281.651,318.559 280.817,321.726 282,325.5C 291.31,336.122 299.643,347.456 307,359.5C 307.333,374.833 307.667,390.167 308,405.5C 308.383,406.056 308.883,406.389 309.5,406.5C 311.288,407.622 313.288,407.789 315.5,407C 328.31,402.119 341.31,397.952 354.5,394.5C 367.836,397.556 380.836,401.723 393.5,407C 397.781,408.458 400.947,407.292 403,403.5C 403.212,393.837 403.045,384.171 402.5,374.5C 402.406,368.754 402.906,363.087 404,357.5C 411.513,346.476 419.513,335.809 428,325.5C 430.052,322.54 429.886,319.707 427.5,317C 422.237,315.185 416.903,313.685 411.5,312.5C 404.582,310.185 397.582,308.018 390.5,306C 388.004,304.92 385.67,303.586 383.5,302C 375.167,290.333 366.833,278.667 358.5,267C 356.167,266.333 353.833,266.333 351.5,267C 348.324,271.924 343.991,273.424 338.5,271.5C 336.261,269.523 334.927,267.023 334.5,264C 336.476,256.691 341.143,252.024 348.5,250C 358.149,247.95 366.316,250.45 373,257.5C 380.167,268 387.333,278.5 394.5,289C 401.692,291.676 409.026,293.842 416.5,295.5 Z"/></g>
<g><path style="opacity:1" fill="#fce572" d="M 436.5,262.5 C 448.56,266.739 460.894,270.406 473.5,273.5C 472.84,278.347 474.507,282.181 478.5,285C 495.437,292.381 498.937,303.881 489,319.5C 478,333.5 467,347.5 456,361.5C 448.87,371.127 446.037,381.96 447.5,394C 448.436,412.828 448.603,431.662 448,450.5C 443.929,461.291 436.096,466.125 424.5,465C 404.5,458 384.5,451 364.5,444C 357.841,442.093 351.174,442.093 344.5,444C 326.833,450.333 309.167,456.667 291.5,463C 279.347,467.838 269.847,464.671 263,453.5C 261.221,439.815 261.054,426.148 262.5,412.5C 272.228,412.621 281.894,411.955 291.5,410.5C 296.944,421.889 305.944,426.389 318.5,424C 330.605,419.632 342.772,415.465 355,411.5C 366.82,415.662 378.653,419.829 390.5,424C 404.466,426.771 413.966,421.604 419,408.5C 419.333,393.5 419.667,378.5 420,363.5C 428.05,353.785 435.716,343.785 443,333.5C 448.709,322.54 447.209,312.707 438.5,304C 431.432,300.259 424.099,297.426 416.5,295.5C 418.248,286.262 419.248,276.929 419.5,267.5C 426.845,271.228 432.512,269.561 436.5,262.5 Z"/></g>
<g><path style="opacity:1" fill="#fef7d5" d="M 411.5,312.5 C 393.214,360.782 359.214,392.115 309.5,406.5C 308.883,406.389 308.383,406.056 308,405.5C 307.667,390.167 307.333,374.833 307,359.5C 299.643,347.456 291.31,336.122 282,325.5C 280.817,321.726 281.651,318.559 284.5,316C 296.571,312.532 308.571,308.865 320.5,305C 324.353,301.898 325.353,298.065 323.5,293.5C 328.008,285.812 333.008,278.478 338.5,271.5C 343.991,273.424 348.324,271.924 351.5,267C 353.833,266.333 356.167,266.333 358.5,267C 366.833,278.667 375.167,290.333 383.5,302C 385.67,303.586 388.004,304.92 390.5,306C 397.582,308.018 404.582,310.185 411.5,312.5 Z"/></g>
<g><path style="opacity:1" fill="#fceda4" d="M 411.5,312.5 C 416.903,313.685 422.237,315.185 427.5,317C 429.886,319.707 430.052,322.54 428,325.5C 419.513,335.809 411.513,346.476 404,357.5C 402.906,363.087 402.406,368.754 402.5,374.5C 403.045,384.171 403.212,393.837 403,403.5C 400.947,407.292 397.781,408.458 393.5,407C 380.836,401.723 367.836,397.556 354.5,394.5C 341.31,397.952 328.31,402.119 315.5,407C 313.288,407.789 311.288,407.622 309.5,406.5C 359.214,392.115 393.214,360.782 411.5,312.5 Z"/></g>
<g><path style="opacity:0.992" fill="#9be962" d="M 228.5,356.5 C 234.557,363.73 240.057,371.397 245,379.5C 245.823,388.01 245.657,396.344 244.5,404.5C 230.798,405.157 217.798,402.49 205.5,396.5C 205.167,395.833 204.833,395.167 204.5,394.5C 208.847,390.314 212.68,385.647 216,380.5C 219.975,372.211 224.141,364.211 228.5,356.5 Z"/></g>
</svg>
