<?xml version="1.0" encoding="UTF-8"?>
<!DOCTYPE svg PUBLIC "-//W3C//DTD SVG 1.1//EN" "http://www.w3.org/Graphics/SVG/1.1/DTD/svg11.dtd">
<svg xmlns="http://www.w3.org/2000/svg" version="1.1" width="512px" height="512px" style="shape-rendering:geometricPrecision; text-rendering:geometricPrecision; image-rendering:optimizeQuality; fill-rule:evenodd; clip-rule:evenodd" xmlns:xlink="http://www.w3.org/1999/xlink">
<g><path style="opacity:0.95" fill="#020100" d="M 183.5,-0.5 C 186.5,-0.5 189.5,-0.5 192.5,-0.5C 194.604,1.37183 195.937,3.70516 196.5,6.5C 205.252,23.5772 212.752,41.2438 219,59.5C 220.224,64.374 218.724,68.0407 214.5,70.5C 210.406,71.2954 207.239,69.962 205,66.5C 198.742,47.3881 190.742,29.0548 181,11.5C 179.773,6.93804 180.607,2.93804 183.5,-0.5 Z"/></g>
<g><path style="opacity:0.959" fill="#020201" d="M 318.5,-0.5 C 321.5,-0.5 324.5,-0.5 327.5,-0.5C 330.393,2.93804 331.227,6.93804 330,11.5C 301.071,65.1332 288.071,122.466 291,183.5C 294.96,205.78 306.46,222.947 325.5,235C 335.288,239.481 344.955,244.148 354.5,249C 357.542,252.041 358.208,255.541 356.5,259.5C 353.322,262.22 349.655,263.054 345.5,262C 290.23,241.655 267.063,202.155 276,143.5C 279.057,95.028 291.89,49.3613 314.5,6.5C 315.063,3.70516 316.396,1.37183 318.5,-0.5 Z"/></g>
<g><path style="opacity:0.996" fill="#faa52f" d="M 196.5,6.5 C 203.167,6.5 209.833,6.5 216.5,6.5C 247.917,65.4193 260.417,128.086 254,194.5C 245.42,215.24 229.92,226.573 207.5,228.5C 222.856,218.628 232.023,204.628 235,186.5C 237,155.168 234.667,124.168 228,93.5C 225.761,90.038 222.594,88.7046 218.5,89.5C 217.323,83.1274 215.99,76.7941 214.5,70.5C 218.724,68.0407 220.224,64.374 219,59.5C 212.752,41.2438 205.252,23.5772 196.5,6.5 Z"/></g>
<g><path style="opacity:0.998" fill="#fabf6c" d="M 216.5,6.5 C 249.167,6.5 281.833,6.5 314.5,6.5C 291.89,49.3613 279.057,95.028 276,143.5C 267.063,202.155 290.23,241.655 345.5,262C 349.655,263.054 353.322,262.22 356.5,259.5C 362.047,262.779 367.047,266.779 371.5,271.5C 369.84,273.322 368.84,275.489 368.5,278C 369.957,281.616 371.624,285.116 373.5,288.5C 335.064,312.867 293.064,326.2 247.5,328.5C 248.154,324.317 246.488,321.484 242.5,320C 223.528,317.639 204.861,313.806 186.5,308.5C 181.502,309.492 179.168,312.492 179.5,317.5C 173.158,314.269 166.491,311.603 159.5,309.5C 161.286,305.494 160.62,301.994 157.5,299C 141.265,293.309 127.098,284.475 115,272.5C 110.072,267.278 109.405,261.611 113,255.5C 120.132,247.675 128.966,242.508 139.5,240C 144.448,238.744 149.448,237.744 154.5,237C 166.847,236.091 179.181,235.091 191.5,234C 197.033,232.656 202.366,230.823 207.5,228.5C 229.92,226.573 245.42,215.24 254,194.5C 260.417,128.086 247.917,65.4193 216.5,6.5 Z"/></g>
<g><path style="opacity:1" fill="#0a0703" d="M 232.5,9.5 C 242.11,9.93592 244.776,14.4359 240.5,23C 231.319,26.3249 227.485,23.1582 229,13.5C 230.376,12.2949 231.542,10.9616 232.5,9.5 Z"/></g>
<g><path style="opacity:1" fill="#0a0703" d="M 272.5,9.5 C 282.11,9.93592 284.776,14.4359 280.5,23C 271.319,26.3249 267.485,23.1582 269,13.5C 270.376,12.2949 271.542,10.9616 272.5,9.5 Z"/></g>
<g><path style="opacity:1" fill="#0a0703" d="M 252.5,29.5 C 262.11,29.9359 264.776,34.4359 260.5,43C 251.319,46.3249 247.485,43.1582 249,33.5C 250.376,32.2949 251.542,30.9616 252.5,29.5 Z"/></g>
<g><path style="opacity:0.967" fill="#020100" d="M 218.5,89.5 C 222.594,88.7046 225.761,90.038 228,93.5C 234.667,124.168 237,155.168 235,186.5C 232.023,204.628 222.856,218.628 207.5,228.5C 202.366,230.823 197.033,232.656 191.5,234C 179.181,235.091 166.847,236.091 154.5,237C 149.448,237.744 144.448,238.744 139.5,240C 128.966,242.508 120.132,247.675 113,255.5C 109.405,261.611 110.072,267.278 115,272.5C 127.098,284.475 141.265,293.309 157.5,299C 160.62,301.994 161.286,305.494 159.5,309.5C 158.102,311.533 156.102,312.533 153.5,312.5C 137.933,307.302 123.767,299.635 111,289.5C 110.667,317.167 110.333,344.833 110,372.5C 109.338,373.984 108.504,375.317 107.5,376.5C 102.434,378.591 98.6008,377.257 96,372.5C 95.5,348.502 95.3334,324.502 95.5,300.5C 92.6146,300.194 89.9479,300.527 87.5,301.5C 55.3064,305.828 32.1397,322.494 18,351.5C 11.3458,382.894 15.3458,412.894 30,441.5C 36.0129,451.684 44.8463,457.684 56.5,459.5C 59.1969,459.297 61.8636,458.964 64.5,458.5C 74.2673,453.781 83.6007,448.281 92.5,442C 110.16,430.876 127.827,430.71 145.5,441.5C 150.543,445.377 154.71,450.043 158,455.5C 163,466.167 168,476.833 173,487.5C 179.731,496.468 188.231,498.802 198.5,494.5C 201.464,492.038 204.297,489.371 207,486.5C 213.273,475.898 219.939,465.564 227,455.5C 240.618,440.308 256.284,437.641 274,447.5C 274.495,449.473 274.662,451.473 274.5,453.5C 274.167,454.833 273.833,456.167 273.5,457.5C 271.841,458.97 269.841,459.637 267.5,459.5C 254.165,454.141 243.665,457.474 236,469.5C 230.333,478.5 224.667,487.5 219,496.5C 213.615,503.752 206.782,508.752 198.5,511.5C 192.833,511.5 187.167,511.5 181.5,511.5C 173.166,509.234 166.333,504.567 161,497.5C 154.667,484.833 148.333,472.167 142,459.5C 133.117,449.238 122.284,446.404 109.5,451C 100.669,455.245 92.3361,460.245 84.5,466C 59.5746,480.6 38.0746,476.766 20,454.5C 8.39004,435.707 1.55671,415.374 -0.5,393.5C -0.5,382.167 -0.5,370.833 -0.5,359.5C 7.91296,327.574 27.5796,305.408 58.5,293C 70.4477,288.429 82.781,285.596 95.5,284.5C 89.3997,257.864 98.7331,239.364 123.5,229C 127.773,227.465 132.106,226.131 136.5,225C 155.088,221.878 173.754,219.545 192.5,218C 207.542,211.628 216.708,200.461 220,184.5C 220.861,155.28 218.694,126.28 213.5,97.5C 212.769,93.2476 214.435,90.581 218.5,89.5 Z"/></g>
<g><path style="opacity:1" fill="#090603" d="M 129.5,254.5 C 139.525,253.731 142.525,257.898 138.5,267C 131.864,270.33 127.531,268.497 125.5,261.5C 126.071,258.687 127.404,256.354 129.5,254.5 Z"/></g>
<g><path style="opacity:1" fill="#0a0704" d="M 153.5,270.5 C 159.523,269.197 163.189,271.53 164.5,277.5C 162.091,284.702 157.591,286.369 151,282.5C 148.523,277.669 149.356,273.669 153.5,270.5 Z"/></g>
<g><path style="opacity:0.964" fill="#020100" d="M 511.5,360.5 C 511.5,371.5 511.5,382.5 511.5,393.5C 509.443,415.374 502.61,435.707 491,454.5C 472.925,476.766 451.425,480.6 426.5,466C 418.664,460.245 410.331,455.245 401.5,451C 388.716,446.404 377.883,449.238 369,459.5C 362.667,472.167 356.333,484.833 350,497.5C 344.667,504.567 337.834,509.234 329.5,511.5C 323.833,511.5 318.167,511.5 312.5,511.5C 304.218,508.752 297.385,503.752 292,496.5C 289,491.833 286,487.167 283,482.5C 281.812,478.259 282.645,474.592 285.5,471.5C 288.978,471.184 292.312,471.684 295.5,473C 299.683,480.853 305.016,487.853 311.5,494C 317.755,497.16 324.088,497.326 330.5,494.5C 333.13,492.372 335.63,490.039 338,487.5C 343.387,474.325 349.72,461.658 357,449.5C 374.917,431.152 395.084,428.485 417.5,441.5C 427.013,448.092 437.013,453.926 447.5,459C 451.689,459.812 455.689,459.645 459.5,458.5C 468.636,455.346 475.803,449.679 481,441.5C 490.54,423.007 495.54,403.341 496,382.5C 498.513,358.024 490.346,337.857 471.5,322C 449.574,305.638 424.908,298.472 397.5,300.5C 403.618,323.306 408.951,346.306 413.5,369.5C 413.619,374.549 411.119,377.216 406,377.5C 404.167,377.481 402.667,376.815 401.5,375.5C 400.442,374.4 399.608,373.066 399,371.5C 394.775,351.817 390.441,332.15 386,312.5C 383.109,303.714 378.942,295.714 373.5,288.5C 371.624,285.116 369.957,281.616 368.5,278C 368.84,275.489 369.84,273.322 371.5,271.5C 374.877,270.099 378.21,270.265 381.5,272C 384.751,275.419 387.418,279.253 389.5,283.5C 423.577,281.179 454.244,290.013 481.5,310C 497.571,323.321 507.571,340.155 511.5,360.5 Z"/></g>
<g><path style="opacity:1" fill="#faa52e" d="M 373.5,288.5 C 378.942,295.714 383.109,303.714 386,312.5C 390.441,332.15 394.775,351.817 399,371.5C 399.608,373.066 400.442,374.4 401.5,375.5C 401.291,376.922 400.791,378.255 400,379.5C 387.159,388.564 372.992,394.73 357.5,398C 322.158,404.729 286.491,407.562 250.5,406.5C 219.204,407.503 188.204,405.003 157.5,399C 142.204,396.182 127.87,390.849 114.5,383C 111.712,381.281 109.379,379.115 107.5,376.5C 108.504,375.317 109.338,373.984 110,372.5C 110.333,344.833 110.667,317.167 111,289.5C 123.767,299.635 137.933,307.302 153.5,312.5C 156.102,312.533 158.102,311.533 159.5,309.5C 166.491,311.603 173.158,314.269 179.5,317.5C 179.738,320.148 181.072,321.982 183.5,323C 202.811,328.899 222.478,332.566 242.5,334C 245.079,332.924 246.746,331.091 247.5,328.5C 293.064,326.2 335.064,312.867 373.5,288.5 Z"/></g>
<g><path style="opacity:1" fill="#fac06c" d="M 459.5,458.5 C 449.922,450.874 439.256,445.041 427.5,441C 423.973,440.192 420.64,440.359 417.5,441.5C 395.084,428.485 374.917,431.152 357,449.5C 349.72,461.658 343.387,474.325 338,487.5C 335.63,490.039 333.13,492.372 330.5,494.5C 324.427,485.363 318.594,476.03 313,466.5C 307.927,458.756 301.094,453.256 292.5,450C 287.5,449.333 282.5,449.333 277.5,450C 276.186,450.985 275.186,452.152 274.5,453.5C 274.662,451.473 274.495,449.473 274,447.5C 256.284,437.641 240.618,440.308 227,455.5C 219.939,465.564 213.273,475.898 207,486.5C 204.297,489.371 201.464,492.038 198.5,494.5C 194.381,487.926 191.047,480.926 188.5,473.5C 191.303,470.796 192.137,467.463 191,463.5C 188.592,460.38 185.426,459.047 181.5,459.5C 178.833,455.833 176.167,452.167 173.5,448.5C 178.109,446.275 179.609,442.609 178,437.5C 169.754,430.9 165.254,432.9 164.5,443.5C 158.24,440.775 151.907,440.108 145.5,441.5C 127.827,430.71 110.16,430.876 92.5,442C 83.6007,448.281 74.2673,453.781 64.5,458.5C 60.7899,454.792 57.4566,450.792 54.5,446.5C 62.7938,446.258 65.2938,442.258 62,434.5C 56.8859,431.397 52.3859,432.064 48.5,436.5C 46.8374,431.178 45.1708,425.845 43.5,420.5C 48.6169,416.051 48.6169,411.551 43.5,407C 41.8659,406.506 40.1992,406.34 38.5,406.5C 39.6304,402.192 39.4637,397.859 38,393.5C 32.6163,364.325 40.4496,339.492 61.5,319C 70.2072,312.226 78.8739,306.392 87.5,301.5C 89.9479,300.527 92.6146,300.194 95.5,300.5C 95.3334,324.502 95.5,348.502 96,372.5C 98.6008,377.257 102.434,378.591 107.5,376.5C 109.379,379.115 111.712,381.281 114.5,383C 127.87,390.849 142.204,396.182 157.5,399C 188.204,405.003 219.204,407.503 250.5,406.5C 286.491,407.562 322.158,404.729 357.5,398C 372.992,394.73 387.159,388.564 400,379.5C 400.791,378.255 401.291,376.922 401.5,375.5C 402.667,376.815 404.167,377.481 406,377.5C 411.119,377.216 413.619,374.549 413.5,369.5C 408.951,346.306 403.618,323.306 397.5,300.5C 424.908,298.472 449.574,305.638 471.5,322C 490.346,337.857 498.513,358.024 496,382.5C 495.54,403.341 490.54,423.007 481,441.5C 475.803,449.679 468.636,455.346 459.5,458.5 Z"/></g>
<g><path style="opacity:1" fill="#f8a42e" d="M 87.5,301.5 C 78.8739,306.392 70.2072,312.226 61.5,319C 40.4496,339.492 32.6163,364.325 38,393.5C 39.4637,397.859 39.6304,402.192 38.5,406.5C 33.4581,408.047 31.6248,411.38 33,416.5C 35.3049,421.072 38.8049,422.405 43.5,420.5C 45.1708,425.845 46.8374,431.178 48.5,436.5C 47.9745,441.463 49.9745,444.796 54.5,446.5C 57.4566,450.792 60.7899,454.792 64.5,458.5C 61.8636,458.964 59.1969,459.297 56.5,459.5C 44.8463,457.684 36.0129,451.684 30,441.5C 15.3458,412.894 11.3458,382.894 18,351.5C 32.1397,322.494 55.3064,305.828 87.5,301.5 Z"/></g>
<g><path style="opacity:1" fill="#040201" d="M 247.5,328.5 C 246.746,331.091 245.079,332.924 242.5,334C 222.478,332.566 202.811,328.899 183.5,323C 181.072,321.982 179.738,320.148 179.5,317.5C 179.168,312.492 181.502,309.492 186.5,308.5C 204.861,313.806 223.528,317.639 242.5,320C 246.488,321.484 248.154,324.317 247.5,328.5 Z"/></g>
<g><path style="opacity:1" fill="#0a0501" d="M 179.5,344.5 C 189.525,343.731 192.525,347.898 188.5,357C 181.864,360.33 177.531,358.497 175.5,351.5C 176.071,348.687 177.404,346.354 179.5,344.5 Z"/></g>
<g><path style="opacity:1" fill="#0a0501" d="M 335.5,346.5 C 345.525,345.731 348.525,349.898 344.5,359C 337.864,362.33 333.531,360.497 331.5,353.5C 332.071,350.687 333.404,348.354 335.5,346.5 Z"/></g>
<g><path style="opacity:1" fill="#090501" d="M 207.5,351.5 C 217.23,351.791 219.896,356.291 215.5,365C 206.894,367.732 203.061,364.566 204,355.5C 205.376,354.295 206.542,352.962 207.5,351.5 Z"/></g>
<g><path style="opacity:1" fill="#0e0802" d="M 364.5,352.5 C 371.319,352.483 374.486,355.817 374,362.5C 369.748,368.653 365.081,368.986 360,363.5C 358.776,358.626 360.276,354.959 364.5,352.5 Z"/></g>
<g><path style="opacity:1" fill="#080401" d="M 329.5,373.5 C 339.23,373.791 341.896,378.291 337.5,387C 328.876,389.713 325.043,386.546 326,377.5C 327.376,376.295 328.542,374.962 329.5,373.5 Z"/></g>
<g><path style="opacity:1" fill="#0f0903" d="M 38.5,406.5 C 40.1992,406.34 41.8659,406.506 43.5,407C 48.6169,411.551 48.6169,416.051 43.5,420.5C 38.8049,422.405 35.3049,421.072 33,416.5C 31.6248,411.38 33.4581,408.047 38.5,406.5 Z"/></g>
<g><path style="opacity:1" fill="#090603" d="M 68.5,406.5 C 76.5432,406.04 79.7099,409.706 78,417.5C 73.5371,422.741 69.2037,422.741 65,417.5C 63.6631,412.872 64.8298,409.205 68.5,406.5 Z"/></g>
<g><path style="opacity:1" fill="#0a0602" d="M 54.5,446.5 C 49.9745,444.796 47.9745,441.463 48.5,436.5C 52.3859,432.064 56.8859,431.397 62,434.5C 65.2938,442.258 62.7938,446.258 54.5,446.5 Z"/></g>
<g><path style="opacity:1" fill="#080502" d="M 173.5,448.5 C 169.103,449.139 166.103,447.473 164.5,443.5C 165.254,432.9 169.754,430.9 178,437.5C 179.609,442.609 178.109,446.275 173.5,448.5 Z"/></g>
<g><path style="opacity:1" fill="#f8a32e" d="M 145.5,441.5 C 151.907,440.108 158.24,440.775 164.5,443.5C 166.103,447.473 169.103,449.139 173.5,448.5C 176.167,452.167 178.833,455.833 181.5,459.5C 177.829,462.293 176.662,465.96 178,470.5C 180.601,474.411 184.101,475.411 188.5,473.5C 191.047,480.926 194.381,487.926 198.5,494.5C 188.231,498.802 179.731,496.468 173,487.5C 168,476.833 163,466.167 158,455.5C 154.71,450.043 150.543,445.377 145.5,441.5 Z"/></g>
<g><path style="opacity:1" fill="#f4a12f" d="M 417.5,441.5 C 420.64,440.359 423.973,440.192 427.5,441C 439.256,445.041 449.922,450.874 459.5,458.5C 455.689,459.645 451.689,459.812 447.5,459C 437.013,453.926 427.013,448.092 417.5,441.5 Z"/></g>
<g><path style="opacity:0.993" fill="#faa42f" d="M 330.5,494.5 C 324.088,497.326 317.755,497.16 311.5,494C 305.016,487.853 299.683,480.853 295.5,473C 292.312,471.684 288.978,471.184 285.5,471.5C 282.447,466.089 278.447,461.422 273.5,457.5C 273.833,456.167 274.167,454.833 274.5,453.5C 275.186,452.152 276.186,450.985 277.5,450C 282.5,449.333 287.5,449.333 292.5,450C 301.094,453.256 307.927,458.756 313,466.5C 318.594,476.03 324.427,485.363 330.5,494.5 Z"/></g>
<g><path style="opacity:1" fill="#0a0602" d="M 181.5,459.5 C 185.426,459.047 188.592,460.38 191,463.5C 192.137,467.463 191.303,470.796 188.5,473.5C 184.101,475.411 180.601,474.411 178,470.5C 176.662,465.96 177.829,462.293 181.5,459.5 Z"/></g>
<g><path style="opacity:1" fill="#090603" d="M 324.5,460.5 C 334.525,459.731 337.525,463.898 333.5,473C 326.864,476.33 322.531,474.497 320.5,467.5C 321.071,464.687 322.404,462.354 324.5,460.5 Z"/></g>
</svg>
