<?xml version="1.0" encoding="UTF-8"?>
<!DOCTYPE svg PUBLIC "-//W3C//DTD SVG 1.1//EN" "http://www.w3.org/Graphics/SVG/1.1/DTD/svg11.dtd">
<svg xmlns="http://www.w3.org/2000/svg" version="1.1" width="512px" height="512px" style="shape-rendering:geometricPrecision; text-rendering:geometricPrecision; image-rendering:optimizeQuality; fill-rule:evenodd; clip-rule:evenodd" xmlns:xlink="http://www.w3.org/1999/xlink">
<g><path style="opacity:0.987" fill="#030201" d="M 511.5,187.5 C 511.5,250.833 511.5,314.167 511.5,377.5C 495.556,410.053 479.056,442.387 462,474.5C 457.529,479.641 452.029,483.141 445.5,485C 432.504,485.5 419.504,485.667 406.5,485.5C 406.5,483.167 406.5,480.833 406.5,478.5C 406.5,475.833 406.5,473.167 406.5,470.5C 417.838,470.667 429.172,470.5 440.5,470C 444.207,469.064 447.374,467.231 450,464.5C 465.589,434.322 480.922,403.989 496,373.5C 496.667,325.167 496.667,276.833 496,228.5C 485.254,248.993 474.254,269.326 463,289.5C 455.14,302.214 449.807,315.881 447,330.5C 446.667,357.167 446.333,383.833 446,410.5C 440.436,432.36 426.602,440.527 404.5,435C 396.606,431.439 391.106,425.605 388,417.5C 386.702,390.549 386.035,363.549 386,336.5C 379.506,323.144 370.506,321.144 359,330.5C 358.333,331.833 357.667,333.167 357,334.5C 356.667,347.5 356.333,360.5 356,373.5C 349.089,396.539 334.256,404.039 311.5,396C 303.975,391.478 299.141,384.978 297,376.5C 296.667,363.167 296.333,349.833 296,336.5C 294.066,330.233 289.9,326.399 283.5,325C 260.169,324.5 236.836,324.333 213.5,324.5C 212.5,324.5 211.5,324.5 210.5,324.5C 210.333,371.835 210.5,419.168 211,466.5C 211.5,468.333 212.667,469.5 214.5,470C 218.486,470.499 222.486,470.666 226.5,470.5C 271.5,470.5 316.5,470.5 361.5,470.5C 361.194,473.385 361.527,476.052 362.5,478.5C 362.5,480.833 362.5,483.167 362.5,485.5C 311.832,485.667 261.166,485.5 210.5,485C 201.175,481.869 196.008,475.369 195,465.5C 194.5,423.501 194.333,381.501 194.5,339.5C 134.499,339.667 74.4991,339.5 14.5,339C 6.98409,336.649 1.98409,331.816 -0.5,324.5C -0.5,266.167 -0.5,207.833 -0.5,149.5C 8.31699,133.199 17.6503,117.199 27.5,101.5C 29.5336,102.559 31.5336,103.559 33.5,104.5C 35.2702,106.557 37.2702,108.391 39.5,110C 31.467,124.565 23.3003,139.065 15,153.5C 13.9963,156.993 14.4963,160.159 16.5,163C 25.5,163.333 34.5,163.667 43.5,164C 57.4503,166.616 66.2836,174.783 70,188.5C 70.4999,205.83 70.6666,223.163 70.5,240.5C 68.8407,255.675 75.5074,262.175 90.5,260C 95.4882,258.18 98.4882,254.68 99.5,249.5C 100.332,229.004 100.832,208.337 101,187.5C 106.268,170.571 117.768,162.738 135.5,164C 155.154,170.781 163.487,184.615 160.5,205.5C 161.145,221.153 168.811,226.32 183.5,221C 186.98,218.703 188.98,215.536 189.5,211.5C 190.33,202.342 190.83,193.009 191,183.5C 196.834,168.158 208.001,161.325 224.5,163C 228.241,161.262 231.408,158.762 234,155.5C 255.272,121.232 276.939,87.2323 299,53.5C 301.269,49.2865 300.769,45.4531 297.5,42C 226.248,40.34 154.915,40.0067 83.5,41C 79.3882,42.7786 76.2215,45.6119 74,49.5C 65.4924,65.1908 56.4924,80.5241 47,95.5C 44.7473,94.6227 42.5806,93.6227 40.5,92.5C 36.6354,92.1437 34.802,90.1437 35,86.5C 43.6667,71.1667 52.3333,55.8333 61,40.5C 65.7986,33.3535 72.2986,28.5201 80.5,26C 153.5,25.3333 226.5,25.3333 299.5,26C 309.39,29.2705 314.89,36.1039 316,46.5C 316.5,88.1653 316.667,129.832 316.5,171.5C 376.168,171.333 435.834,171.5 495.5,172C 503.325,174.659 508.658,179.825 511.5,187.5 Z"/></g>
<g><path style="opacity:1" fill="#fea980" d="M 189.5,211.5 C 189.799,209.396 189.466,207.396 188.5,205.5C 179.128,209.374 169.795,209.374 160.5,205.5C 163.487,184.615 155.154,170.781 135.5,164C 117.768,162.738 106.268,170.571 101,187.5C 100.832,208.337 100.332,229.004 99.5,249.5C 99.8134,246.753 99.48,244.086 98.5,241.5C 94.3835,244.649 89.7169,245.982 84.5,245.5C 78.9846,246.07 74.3179,244.403 70.5,240.5C 70.6666,223.163 70.4999,205.83 70,188.5C 66.2836,174.783 57.4503,166.616 43.5,164C 34.5,163.667 25.5,163.333 16.5,163C 14.4963,160.159 13.9963,156.993 15,153.5C 23.3003,139.065 31.467,124.565 39.5,110C 37.2702,108.391 35.2702,106.557 33.5,104.5C 35.8333,100.5 38.1667,96.5 40.5,92.5C 42.5806,93.6227 44.7473,94.6227 47,95.5C 56.4924,80.5241 65.4924,65.1908 74,49.5C 76.2215,45.6119 79.3882,42.7786 83.5,41C 154.915,40.0067 226.248,40.34 297.5,42C 300.769,45.4531 301.269,49.2865 299,53.5C 276.939,87.2323 255.272,121.232 234,155.5C 231.408,158.762 228.241,161.262 224.5,163C 208.001,161.325 196.834,168.158 191,183.5C 190.83,193.009 190.33,202.342 189.5,211.5 Z"/></g>
<g><path style="opacity:1" fill="#fffdfc" d="M 227.5,55.5 C 232.5,55.5 237.5,55.5 242.5,55.5C 242.5,60.5 242.5,65.5 242.5,70.5C 237.5,70.5 232.5,70.5 227.5,70.5C 227.5,65.5 227.5,60.5 227.5,55.5 Z"/></g>
<g><path style="opacity:1" fill="#fffdfc" d="M 257.5,55.5 C 262.5,55.5 267.5,55.5 272.5,55.5C 272.5,60.5 272.5,65.5 272.5,70.5C 267.5,70.5 262.5,70.5 257.5,70.5C 257.5,65.5 257.5,60.5 257.5,55.5 Z"/></g>
<g><path style="opacity:1" fill="#fda880" d="M 300.5,156.5 C 290.161,156.334 279.828,156.5 269.5,157C 262.02,158.743 255.02,161.577 248.5,165.5C 248.5,163.833 248.5,162.167 248.5,160.5C 265.656,133.528 282.823,106.528 300,79.5C 300.5,105.165 300.667,130.831 300.5,156.5 Z"/></g>
<g><path style="opacity:1" fill="#fe8f5b" d="M 300.5,156.5 C 300.5,161.5 300.5,166.5 300.5,171.5C 290.494,171.334 280.494,171.5 270.5,172C 260.802,174.17 253.802,179.67 249.5,188.5C 248.508,181.018 248.175,173.352 248.5,165.5C 255.02,161.577 262.02,158.743 269.5,157C 279.828,156.5 290.161,156.334 300.5,156.5 Z"/></g>
<g><path style="opacity:1" fill="#b16643" d="M 248.5,160.5 C 248.5,162.167 248.5,163.833 248.5,165.5C 248.175,173.352 248.508,181.018 249.5,188.5C 249.217,189.289 248.717,189.956 248,190.5C 247.175,180.325 247.342,170.325 248.5,160.5 Z"/></g>
<g><path style="opacity:1" fill="#fda980" d="M 231.5,176.5 C 232.485,180.634 232.818,184.968 232.5,189.5C 214.292,223.917 197.125,258.917 181,294.5C 180.5,304.494 180.334,314.494 180.5,324.5C 126.499,324.667 72.499,324.5 18.5,324C 17.3333,322.833 16.1667,321.667 15,320.5C 14.5,273.168 14.3333,225.835 14.5,178.5C 24.1724,178.334 33.8391,178.5 43.5,179C 49.3333,180.833 53.1667,184.667 55,190.5C 55.3333,211.5 55.6667,232.5 56,253.5C 62.5341,270.856 75.0341,278.022 93.5,275C 105.721,270.778 112.887,262.278 115,249.5C 115.333,229.167 115.667,208.833 116,188.5C 123.737,176.443 132.737,175.443 143,185.5C 143.862,187.087 144.529,188.754 145,190.5C 145.333,198.5 145.667,206.5 146,214.5C 151.208,232.195 163.041,240.029 181.5,238C 194.181,233.985 202.014,225.485 205,212.5C 205.333,203.833 205.667,195.167 206,186.5C 207.105,183.063 209.272,180.563 212.5,179C 218.933,178.77 225.266,177.937 231.5,176.5 Z"/></g>
<g><path style="opacity:1" fill="#482a1c" d="M 231.5,176.5 C 231.56,175.957 231.893,175.624 232.5,175.5C 233.826,190.995 233.826,206.328 232.5,221.5C 232.5,210.833 232.5,200.167 232.5,189.5C 232.818,184.968 232.485,180.634 231.5,176.5 Z"/></g>
<g><path style="opacity:1" fill="#fc8e5a" d="M 272.5,187.5 C 275.247,187.187 277.914,187.52 280.5,188.5C 262.682,224.136 244.849,259.802 227,295.5C 225.691,300.066 225.191,304.733 225.5,309.5C 221.154,309.666 216.821,309.499 212.5,309C 210.496,306.159 209.996,302.993 211,299.5C 228.062,264.377 245.395,229.377 263,194.5C 265.042,190.569 268.209,188.236 272.5,187.5 Z"/></g>
<g><path style="opacity:1" fill="#fea980" d="M 272.5,187.5 C 345.332,186.334 418.332,186.168 491.5,187C 495.328,189.136 496.828,192.303 496,196.5C 479.254,228.326 462.254,259.992 445,291.5C 438.472,303.418 434.138,316.085 432,329.5C 431.832,356.336 431.332,383.003 430.5,409.5C 430.808,407.076 430.474,404.743 429.5,402.5C 420.14,407.83 410.807,407.83 401.5,402.5C 401.667,380.164 401.5,357.831 401,335.5C 395.494,316.017 382.66,307.85 362.5,311C 352.359,314.474 345.526,321.307 342,331.5C 341.831,345.339 341.331,359.006 340.5,372.5C 340.664,369.813 340.497,367.146 340,364.5C 330.456,371.083 320.956,371.083 311.5,364.5C 311.906,353.436 311.406,342.436 310,331.5C 305.778,319.279 297.278,312.113 284.5,310C 264.836,309.5 245.169,309.333 225.5,309.5C 225.191,304.733 225.691,300.066 227,295.5C 244.849,259.802 262.682,224.136 280.5,188.5C 277.914,187.52 275.247,187.187 272.5,187.5 Z"/></g>
<g><path style="opacity:1" fill="#fc8f5a" d="M 232.5,189.5 C 232.5,200.167 232.5,210.833 232.5,221.5C 220.678,245.811 208.845,270.145 197,294.5C 195.605,304.434 195.105,314.434 195.5,324.5C 190.5,324.5 185.5,324.5 180.5,324.5C 180.334,314.494 180.5,304.494 181,294.5C 197.125,258.917 214.292,223.917 232.5,189.5 Z"/></g>
<g><path style="opacity:1" fill="#fffcfb" d="M 421.5,201.5 C 426.5,201.5 431.5,201.5 436.5,201.5C 436.5,206.5 436.5,211.5 436.5,216.5C 431.5,216.5 426.5,216.5 421.5,216.5C 421.5,211.5 421.5,206.5 421.5,201.5 Z"/></g>
<g><path style="opacity:1" fill="#fffcfb" d="M 451.5,201.5 C 456.5,201.5 461.5,201.5 466.5,201.5C 466.5,206.5 466.5,211.5 466.5,216.5C 461.5,216.5 456.5,216.5 451.5,216.5C 451.5,211.5 451.5,206.5 451.5,201.5 Z"/></g>
<g><path style="opacity:1" fill="#fb8e5a" d="M 160.5,205.5 C 169.795,209.374 179.128,209.374 188.5,205.5C 189.466,207.396 189.799,209.396 189.5,211.5C 188.98,215.536 186.98,218.703 183.5,221C 168.811,226.32 161.145,221.153 160.5,205.5 Z"/></g>
<g><path style="opacity:0.999" fill="#fda880" d="M 406.5,478.5 C 401.833,478.5 397.167,478.5 392.5,478.5C 391.527,476.052 391.194,473.385 391.5,470.5C 386.5,470.5 381.5,470.5 376.5,470.5C 376.5,473.167 376.5,475.833 376.5,478.5C 371.833,478.5 367.167,478.5 362.5,478.5C 361.527,476.052 361.194,473.385 361.5,470.5C 316.5,470.5 271.5,470.5 226.5,470.5C 225.514,422.197 225.181,373.863 225.5,325.5C 221.298,325.817 217.298,325.483 213.5,324.5C 236.836,324.333 260.169,324.5 283.5,325C 289.9,326.399 294.066,330.233 296,336.5C 296.333,349.833 296.667,363.167 297,376.5C 299.141,384.978 303.975,391.478 311.5,396C 334.256,404.039 349.089,396.539 356,373.5C 356.333,360.5 356.667,347.5 357,334.5C 357.667,333.167 358.333,331.833 359,330.5C 370.506,321.144 379.506,323.144 386,336.5C 386.035,363.549 386.702,390.549 388,417.5C 391.106,425.605 396.606,431.439 404.5,435C 426.602,440.527 440.436,432.36 446,410.5C 446.333,383.833 446.667,357.167 447,330.5C 449.807,315.881 455.14,302.214 463,289.5C 474.254,269.326 485.254,248.993 496,228.5C 496.667,276.833 496.667,325.167 496,373.5C 480.922,403.989 465.589,434.322 450,464.5C 447.374,467.231 444.207,469.064 440.5,470C 429.172,470.5 417.838,470.667 406.5,470.5C 406.5,473.167 406.5,475.833 406.5,478.5 Z"/></g>
<g><path style="opacity:1" fill="#fb8e5a" d="M 70.5,240.5 C 74.3179,244.403 78.9846,246.07 84.5,245.5C 89.7169,245.982 94.3835,244.649 98.5,241.5C 99.48,244.086 99.8134,246.753 99.5,249.5C 98.4882,254.68 95.4882,258.18 90.5,260C 75.5074,262.175 68.8407,255.675 70.5,240.5 Z"/></g>
<g><path style="opacity:1" fill="#fe8f5b" d="M 213.5,324.5 C 217.298,325.483 221.298,325.817 225.5,325.5C 225.181,373.863 225.514,422.197 226.5,470.5C 222.486,470.666 218.486,470.499 214.5,470C 212.667,469.5 211.5,468.333 211,466.5C 210.5,419.168 210.333,371.835 210.5,324.5C 211.5,324.5 212.5,324.5 213.5,324.5 Z"/></g>
<g><path style="opacity:1" fill="#fc8f5a" d="M 311.5,364.5 C 320.956,371.083 330.456,371.083 340,364.5C 340.497,367.146 340.664,369.813 340.5,372.5C 337.68,381.917 331.347,385.751 321.5,384C 313.293,380.087 309.959,373.587 311.5,364.5 Z"/></g>
<g><path style="opacity:1" fill="#f98d59" d="M 401.5,402.5 C 410.807,407.83 420.14,407.83 429.5,402.5C 430.474,404.743 430.808,407.076 430.5,409.5C 428.183,418.834 422.183,423.001 412.5,422C 403.599,418.57 399.932,412.07 401.5,402.5 Z"/></g>
<g><path style="opacity:0.966" fill="#050302" d="M 392.5,478.5 C 392.5,480.833 392.5,483.167 392.5,485.5C 387.167,485.5 381.833,485.5 376.5,485.5C 376.5,483.167 376.5,480.833 376.5,478.5C 376.5,475.833 376.5,473.167 376.5,470.5C 381.5,470.5 386.5,470.5 391.5,470.5C 391.194,473.385 391.527,476.052 392.5,478.5 Z"/></g>
</svg>
