<?xml version="1.0" encoding="UTF-8"?>
<!DOCTYPE svg PUBLIC "-//W3C//DTD SVG 1.1//EN" "http://www.w3.org/Graphics/SVG/1.1/DTD/svg11.dtd">
<svg xmlns="http://www.w3.org/2000/svg" version="1.1" width="512px" height="512px" style="shape-rendering:geometricPrecision; text-rendering:geometricPrecision; image-rendering:optimizeQuality; fill-rule:evenodd; clip-rule:evenodd" xmlns:xlink="http://www.w3.org/1999/xlink">
<g><path style="opacity:0.977" fill="#010100" d="M 356.5,-0.5 C 361.833,-0.5 367.167,-0.5 372.5,-0.5C 385.474,3.64221 393.974,12.3089 398,25.5C 398.333,41.5 398.667,57.5 399,73.5C 425.769,86.9336 446.769,106.6 462,132.5C 504.411,205.968 517.078,284.301 500,367.5C 490.774,406.493 470.608,438.326 439.5,463C 427.219,471.473 413.886,477.806 399.5,482C 400.064,492.09 395.731,499.09 386.5,503C 372.167,503.667 357.833,503.667 343.5,503C 333.881,499.459 329.215,492.459 329.5,482C 312.111,476.974 296.445,468.807 282.5,457.5C 281.354,458.145 280.354,458.978 279.5,460C 285.973,470.574 284.306,479.574 274.5,487C 263.833,492.333 253.167,497.667 242.5,503C 231.812,505.729 224.145,502.229 219.5,492.5C 176.743,497.967 138.41,487.467 104.5,461C 73.0962,434.917 49.2629,403.083 33,365.5C 9.35673,313.618 0.023393,259.285 5,202.5C 7.51691,174.438 17.0169,149.104 33.5,126.5C 27,113.5 20.5,100.5 14,87.5C 8.69215,70.4244 13.1921,56.5911 27.5,46C 47.2548,36.4839 63.4215,40.6505 76,58.5C 82.0389,70.7445 88.2055,82.9112 94.5,95C 129.371,96.29 161.037,106.957 189.5,127C 209.837,141.331 228.337,157.831 245,176.5C 257.93,143.115 277.43,114.282 303.5,90C 311.745,83.6236 320.579,78.1236 330,73.5C 330.073,56.4557 330.74,39.4557 332,22.5C 336.517,10.8128 344.683,3.14614 356.5,-0.5 Z"/></g>
<g><path style="opacity:1" fill="#773d21" d="M 381.5,87.5 C 376.072,84.7028 370.572,82.0361 365,79.5C 364.667,61.8333 364.333,44.1667 364,26.5C 362.502,23.5046 361.002,20.5046 359.5,17.5C 369.853,14.6447 377.02,18.3114 381,28.5C 381.5,48.1638 381.667,67.8305 381.5,87.5 Z"/></g>
<g><path style="opacity:1" fill="#9f512c" d="M 359.5,17.5 C 361.002,20.5046 362.502,23.5046 364,26.5C 364.333,44.1667 364.667,61.8333 365,79.5C 370.572,82.0361 376.072,84.7028 381.5,87.5C 383.325,94.7737 385.492,102.107 388,109.5C 422.66,188.465 436.66,270.798 430,356.5C 435.736,362.157 440.736,361.491 445,354.5C 452.049,287.38 445.049,221.713 424,157.5C 418.985,142.284 413.485,127.284 407.5,112.5C 407.369,111.761 407.536,111.094 408,110.5C 424.244,128.629 437.244,148.962 447,171.5C 474.267,235.62 480.267,301.62 465,369.5C 454.354,411.198 430.854,443.198 394.5,465.5C 389.816,465.663 385.816,467.33 382.5,470.5C 376.544,472.156 370.544,473.49 364.5,474.5C 364.5,478.167 364.5,481.833 364.5,485.5C 359.167,485.5 353.833,485.5 348.5,485.5C 348.817,481.298 348.483,477.298 347.5,473.5C 346.797,471.284 345.464,469.451 343.5,468C 324.722,464.196 308.055,456.196 293.5,444C 299.704,436.431 305.038,428.265 309.5,419.5C 316.851,430.695 325.185,441.195 334.5,451C 344.101,454.07 348.267,450.57 347,440.5C 335.779,427.943 326.112,414.277 318,399.5C 319.401,388.565 320.734,377.565 322,366.5C 323.109,329.49 315.943,294.157 300.5,260.5C 302.394,244.741 304.894,229.075 308,213.5C 309.5,204.333 305.667,200.5 296.5,202C 295.333,203.167 294.167,204.333 293,205.5C 290.682,215.438 288.682,225.438 287,235.5C 277.85,220.68 268.35,206.18 258.5,192C 269.13,160.063 286.13,132.063 309.5,108C 315.321,103.257 321.321,98.7567 327.5,94.5C 327.833,94.8333 328.167,95.1667 328.5,95.5C 318.047,120.359 308.88,145.692 301,171.5C 299.379,178.262 301.879,182.595 308.5,184.5C 310.857,183.905 313.023,182.905 315,181.5C 325.394,151.05 336.061,120.717 347,90.5C 347.333,70.1667 347.667,49.8333 348,29.5C 349.821,23.4923 353.654,19.4923 359.5,17.5 Z"/></g>
<g><path style="opacity:1" fill="#8ea900" d="M 79.5,104.5 C 74.1254,104.828 68.7921,104.495 63.5,103.5C 56.0627,89.6251 48.896,75.6251 42,61.5C 41.1841,60.1772 40.0174,59.5106 38.5,59.5C 47.0542,55.8435 54.2208,57.8435 60,65.5C 66.5266,78.5531 73.0266,91.5531 79.5,104.5 Z"/></g>
<g><path style="opacity:1" fill="#a3c200" d="M 38.5,59.5 C 40.0174,59.5106 41.1841,60.1772 42,61.5C 48.896,75.6251 56.0627,89.6251 63.5,103.5C 68.7921,104.495 74.1254,104.828 79.5,104.5C 82.4734,110.438 85.9734,116.104 90,121.5C 100.201,131.37 110.701,140.87 121.5,150C 178.307,201.782 221.307,263.115 250.5,334C 257.912,336.134 262.246,333.467 263.5,326C 253.916,297.334 240.75,270.501 224,245.5C 199.237,207.245 170.07,172.411 136.5,141C 126.202,132.37 116.202,123.37 106.5,114C 109.5,113.333 112.5,113.333 115.5,114C 120.487,115.275 125.487,116.441 130.5,117.5C 197.146,154.656 244.979,208.656 274,279.5C 289.241,317.152 292.574,355.818 284,395.5C 276.897,420.579 263.397,441.413 243.5,458C 245.461,461.421 247.294,464.921 249,468.5C 249.755,471.303 249.422,473.97 248,476.5C 243.797,479.518 239.297,481.851 234.5,483.5C 233.153,478.963 230.486,475.463 226.5,473C 215.268,474.702 203.935,475.869 192.5,476.5C 167.23,475.86 144.23,468.36 123.5,454C 99.7936,436.295 80.2936,414.795 65,389.5C 30.3094,330.079 16.3094,266.079 23,197.5C 25.5276,179.076 31.6943,162.076 41.5,146.5C 44.2018,163.048 46.0351,179.715 47,196.5C 48.7832,207.866 50.7832,219.199 53,230.5C 55.4353,235.224 59.2686,236.724 64.5,235C 67.8395,233.114 69.1728,230.281 68.5,226.5C 64.1585,196.585 60.3252,166.585 57,136.5C 48.2115,116.923 38.8782,97.5892 29,78.5C 27.4063,69.6871 30.573,63.3538 38.5,59.5 Z"/></g>
<g><path style="opacity:1" fill="#773d21" d="M 394.5,465.5 C 430.854,443.198 454.354,411.198 465,369.5C 480.267,301.62 474.267,235.62 447,171.5C 437.244,148.962 424.244,128.629 408,110.5C 407.536,111.094 407.369,111.761 407.5,112.5C 404.452,106.69 402.452,100.69 401.5,94.5C 421.994,107.84 438.16,125.173 450,146.5C 489.334,217.51 499.667,292.51 481,371.5C 472.735,401.892 456.568,427.059 432.5,447C 421.028,455.569 408.361,461.736 394.5,465.5 Z"/></g>
<g><path style="opacity:1" fill="#8ea900" d="M 130.5,117.5 C 159.788,127.638 185.788,143.138 208.5,164C 251.217,203.068 281.383,250.235 299,305.5C 306.444,333.6 307.444,361.934 302,390.5C 298.002,405.827 291.335,419.827 282,432.5C 275.309,440.189 268.309,447.522 261,454.5C 260.333,456.5 260.333,458.5 261,460.5C 262.76,463.689 264.26,467.023 265.5,470.5C 265.167,471.167 264.833,471.833 264.5,472.5C 255.24,477.047 246.073,481.713 237,486.5C 235.69,485.87 234.856,484.87 234.5,483.5C 239.297,481.851 243.797,479.518 248,476.5C 249.422,473.97 249.755,471.303 249,468.5C 247.294,464.921 245.461,461.421 243.5,458C 263.397,441.413 276.897,420.579 284,395.5C 292.574,355.818 289.241,317.152 274,279.5C 244.979,208.656 197.146,154.656 130.5,117.5 Z"/></g>
<g><path style="opacity:1" fill="#020300" d="M 64.5,253.5 C 69.2225,252.553 73.0558,253.886 76,257.5C 85.9668,293.438 99.3001,328.105 116,361.5C 138.731,401.448 171.564,429.615 214.5,446C 218.432,450.737 218.432,455.404 214.5,460C 211.923,461.25 209.257,461.584 206.5,461C 154.746,440.58 117.246,405.08 94,354.5C 80.4321,325.465 69.4321,295.465 61,264.5C 59.8824,260.077 61.0491,256.41 64.5,253.5 Z"/></g>
<g><path style="opacity:1" fill="#040400" d="M 258.5,352.5 C 263.421,352.043 266.921,354.043 269,358.5C 271.437,384.236 269.104,409.569 262,434.5C 258.491,438.613 254.324,439.446 249.5,437C 247.556,435.278 246.556,433.111 246.5,430.5C 252.396,406.836 254.562,382.836 253,358.5C 254.36,355.977 256.193,353.977 258.5,352.5 Z"/></g>
<g><path style="opacity:1" fill="#030100" d="M 423.5,377.5 C 429.916,376.587 433.916,379.254 435.5,385.5C 426.514,411.281 412.181,433.448 392.5,452C 382.952,452.747 379.785,448.58 383,439.5C 399.098,422.327 411.432,402.66 420,380.5C 421.145,379.364 422.312,378.364 423.5,377.5 Z"/></g>
<g><path style="opacity:1" fill="#763d21" d="M 382.5,470.5 C 381.551,475.74 381.218,481.073 381.5,486.5C 370.167,486.5 358.833,486.5 347.5,486.5C 347.5,482.167 347.5,477.833 347.5,473.5C 348.483,477.298 348.817,481.298 348.5,485.5C 353.833,485.5 359.167,485.5 364.5,485.5C 364.5,481.833 364.5,478.167 364.5,474.5C 370.544,473.49 376.544,472.156 382.5,470.5 Z"/></g>
</svg>
