<?xml version="1.0" encoding="UTF-8"?>
<!DOCTYPE svg PUBLIC "-//W3C//DTD SVG 1.1//EN" "http://www.w3.org/Graphics/SVG/1.1/DTD/svg11.dtd">
<svg xmlns="http://www.w3.org/2000/svg" version="1.1" width="512px" height="512px" style="shape-rendering:geometricPrecision; text-rendering:geometricPrecision; image-rendering:optimizeQuality; fill-rule:evenodd; clip-rule:evenodd" xmlns:xlink="http://www.w3.org/1999/xlink">
<g><path style="opacity:0.971" fill="#050202" d="M 233.5,-0.5 C 241.167,-0.5 248.833,-0.5 256.5,-0.5C 262.819,0.98747 266.652,4.98747 268,11.5C 267.618,24.5376 267.784,37.5376 268.5,50.5C 291.293,52.7585 313.626,57.2585 335.5,64C 358.89,73.223 371.223,90.3897 372.5,115.5C 369.788,136.562 366.621,157.562 363,178.5C 362.298,190.831 361.632,203.165 361,215.5C 357.968,232.962 354.301,250.296 350,267.5C 348.691,279.47 347.691,291.47 347,303.5C 345.944,309.668 344.277,315.668 342,321.5C 334.171,336.822 327.171,352.489 321,368.5C 319.304,384.549 317.304,400.549 315,416.5C 308.617,438.287 294.117,450.621 271.5,453.5C 271.538,469.183 271.704,484.85 272,500.5C 271.751,503.177 270.751,505.51 269,507.5C 266.486,509.004 263.986,510.338 261.5,511.5C 255.833,511.5 250.167,511.5 244.5,511.5C 236.847,510.012 232.347,505.345 231,497.5C 230.5,482.17 230.333,466.837 230.5,451.5C 209.704,447.86 194.871,436.526 186,417.5C 179.787,405.742 174.121,393.742 169,381.5C 166.591,372.639 164.925,363.639 164,354.5C 163.943,320.282 156.943,287.615 143,256.5C 142.206,253.529 141.539,250.529 141,247.5C 140.842,233.098 141.675,218.765 143.5,204.5C 141.603,190.383 139.936,176.217 138.5,162C 139.245,142.164 140.079,122.331 141,102.5C 141.246,83.6121 150.079,70.7788 167.5,64C 188.222,62.7777 208.555,59.2777 228.5,53.5C 229.271,39.4115 228.271,25.4115 225.5,11.5C 225.723,5.68241 228.39,1.68241 233.5,-0.5 Z"/></g>
<g><path style="opacity:1" fill="#a3b0b9" d="M 253.5,7.5 C 249.445,7.17575 245.445,7.50909 241.5,8.5C 243.459,12.6689 244.959,17.0022 246,21.5C 246.17,31.6751 246.67,41.6751 247.5,51.5C 245.393,52.4682 243.059,52.8016 240.5,52.5C 239.167,52.5 237.833,52.5 236.5,52.5C 236.5,51.5 236.5,50.5 236.5,49.5C 236.987,45.6909 237.321,41.8576 237.5,38C 236.242,28.4976 235.409,18.9976 235,9.5C 236.171,8.10679 237.671,7.27346 239.5,7C 244.352,6.18492 249.019,6.35159 253.5,7.5 Z"/></g>
<g><path style="opacity:1" fill="#c7d3da" d="M 253.5,7.5 C 257.192,7.93817 259.692,9.93817 261,13.5C 261.667,17.5 261.667,21.5 261,25.5C 258.708,34.0766 258.208,42.7433 259.5,51.5C 255.5,51.5 251.5,51.5 247.5,51.5C 246.67,41.6751 246.17,31.6751 246,21.5C 244.959,17.0022 243.459,12.6689 241.5,8.5C 245.445,7.50909 249.445,7.17575 253.5,7.5 Z"/></g>
<g><path style="opacity:1" fill="#52585d" d="M 236.5,49.5 C 236.5,50.5 236.5,51.5 236.5,52.5C 237.833,52.5 239.167,52.5 240.5,52.5C 239.081,53.4511 237.415,53.7845 235.5,53.5C 235.232,51.901 235.566,50.5676 236.5,49.5 Z"/></g>
<g><path style="opacity:1" fill="#ab5049" d="M 236.5,104.5 C 238.757,96.8916 240.923,89.2249 243,81.5C 243.961,75.1348 244.795,68.8015 245.5,62.5C 258.738,60.4774 272.071,59.9774 285.5,61C 298.921,64.3553 312.255,68.022 325.5,72C 339.908,77.5752 350.241,87.4085 356.5,101.5C 352.197,103.968 347.53,104.968 342.5,104.5C 330.212,102.843 317.879,102.343 305.5,103C 294.692,106.33 283.692,108.496 272.5,109.5C 260.35,108.87 248.35,107.203 236.5,104.5 Z"/></g>
<g><path style="opacity:1" fill="#9a403d" d="M 245.5,62.5 C 244.795,68.8015 243.961,75.1348 243,81.5C 240.923,89.2249 238.757,96.8916 236.5,104.5C 220.138,104.102 204.138,106.269 188.5,111C 175.851,113.712 163.518,112.712 151.5,108C 150.586,90.5697 158.92,80.5697 176.5,78C 183.484,77.168 190.484,76.5013 197.5,76C 209.156,72.3372 220.822,68.6705 232.5,65C 236.782,63.8434 241.116,63.0101 245.5,62.5 Z"/></g>
<g><path style="opacity:1" fill="#cc6d69" d="M 305.5,107.5 C 313.174,107.334 320.841,107.5 328.5,108C 338.138,111.041 347.804,111.207 357.5,108.5C 358.833,110.167 358.833,111.833 357.5,113.5C 353.261,114.982 348.927,116.148 344.5,117C 332.037,117.812 319.704,119.479 307.5,122C 297.873,126.814 288.54,132.147 279.5,138C 272.372,141.46 265.039,142.126 257.5,140C 249.12,134.81 240.454,130.143 231.5,126C 225.167,125.333 218.833,125.333 212.5,126C 203.172,128.332 193.838,130.665 184.5,133C 171.36,136.005 160.027,132.839 150.5,123.5C 149.338,118.869 149.172,114.202 150,109.5C 157.782,114.982 166.448,117.649 176,117.5C 193.351,114.941 210.684,112.275 228,109.5C 238.977,109.979 249.81,111.479 260.5,114C 276.106,115.169 291.106,113.003 305.5,107.5 Z"/></g>
<g><path style="opacity:1" fill="#aa4f48" d="M 235.5,163.5 C 231.011,152.992 229.344,141.992 230.5,130.5C 233.691,131.092 236.691,132.259 239.5,134C 247.374,141.021 256.541,145.187 267,146.5C 272.357,146.202 277.524,145.036 282.5,143C 291.259,137.236 300.259,131.903 309.5,127C 323.092,125.036 336.759,123.703 350.5,123C 353,122.625 355.333,121.792 357.5,120.5C 357.489,129.582 356.156,138.582 353.5,147.5C 346.186,150.664 338.519,152.497 330.5,153C 304.343,152.801 278.676,156.134 253.5,163C 247.509,163.499 241.509,163.666 235.5,163.5 Z"/></g>
<g><path style="opacity:1" fill="#9b403d" d="M 150.5,128.5 C 157.241,136.422 165.908,140.089 176.5,139.5C 183.232,139.211 189.899,138.378 196.5,137C 207.347,131.796 218.681,129.63 230.5,130.5C 229.344,141.992 231.011,152.992 235.5,163.5C 229.112,163.154 222.778,162.321 216.5,161C 209.15,159.769 202.15,160.769 195.5,164C 192.604,167.671 193.271,170.671 197.5,173C 200.833,174 204.167,175 207.5,176C 221.583,177.93 235.583,179.43 249.5,180.5C 247.5,180.5 245.5,180.5 243.5,180.5C 246.088,188.305 246.921,196.305 246,204.5C 243.97,214.285 241.47,223.952 238.5,233.5C 231.871,231.208 225.037,229.874 218,229.5C 206.333,231.5 194.667,233.5 183,235.5C 170.712,234.564 162.378,228.23 158,216.5C 158.212,200.464 155.879,184.798 151,169.5C 150.088,164.536 149.588,159.536 149.5,154.5C 149.174,145.651 149.507,136.984 150.5,128.5 Z"/></g>
<g><path style="opacity:1" fill="#371615" d="M 150.5,128.5 C 149.507,136.984 149.174,145.651 149.5,154.5C 148.178,145.658 148.178,136.658 149.5,127.5C 150.107,127.624 150.44,127.957 150.5,128.5 Z"/></g>
<g><path style="opacity:1" fill="#c66a66" d="M 351.5,151.5 C 352.376,151.369 353.043,151.702 353.5,152.5C 352.449,155.757 351.782,159.09 351.5,162.5C 336.886,161.49 322.553,162.99 308.5,167C 300.235,170.532 291.902,173.865 283.5,177C 279.389,177.941 275.222,178.441 271,178.5C 248.113,176.468 225.28,173.968 202.5,171C 199.378,169.579 199.044,167.913 201.5,166C 211.71,165.59 221.71,166.923 231.5,170C 238.833,170.667 246.167,170.667 253.5,170C 264.239,167.649 274.905,164.982 285.5,162C 301.104,159.94 316.771,158.606 332.5,158C 339.507,157.481 345.841,155.315 351.5,151.5 Z"/></g>
<g><path style="opacity:1" fill="#ab5049" d="M 232.5,285.5 C 231.176,281.893 230.509,277.893 230.5,273.5C 230.584,268.465 230.918,263.465 231.5,258.5C 247.374,251.826 264.04,248.66 281.5,249C 286.835,247.759 291.002,244.926 294,240.5C 294.225,233.379 290.725,229.212 283.5,228C 279.833,227.333 276.167,227.333 272.5,228C 263.635,230.512 254.802,233.012 246,235.5C 243.24,235.354 240.74,234.687 238.5,233.5C 241.47,223.952 243.97,214.285 246,204.5C 246.921,196.305 246.088,188.305 243.5,180.5C 245.5,180.5 247.5,180.5 249.5,180.5C 255.554,180.877 261.554,181.71 267.5,183C 273.167,183.667 278.833,183.667 284.5,183C 296.293,178.069 308.293,173.736 320.5,170C 330.161,169.5 339.828,169.334 349.5,169.5C 348.084,200.263 343.584,230.596 336,260.5C 335.535,261.931 334.701,263.097 333.5,264C 316.781,272.264 299.115,277.264 280.5,279C 269.828,279.589 259.162,280.255 248.5,281C 243.062,282.203 237.729,283.703 232.5,285.5 Z"/></g>
<g><path style="opacity:1" fill="#ca6c68" d="M 155.5,224.5 C 163.444,238.299 175.444,243.799 191.5,241C 207.594,235.236 223.594,235.236 239.5,241C 241.667,241.167 243.833,241.333 246,241.5C 256.562,239.48 267.062,237.147 277.5,234.5C 281.377,233.776 284.044,235.109 285.5,238.5C 285.471,240.029 284.804,241.196 283.5,242C 265.818,243.593 248.484,246.927 231.5,252C 226.167,252.667 220.833,252.667 215.5,252C 204.295,246.454 192.962,246.121 181.5,251C 171.881,252.851 163.048,251.018 155,245.5C 154.377,238.477 154.543,231.477 155.5,224.5 Z"/></g>
<g><path style="opacity:1" fill="#99403d" d="M 231.5,258.5 C 230.918,263.465 230.584,268.465 230.5,273.5C 230.509,277.893 231.176,281.893 232.5,285.5C 225.323,289.023 217.656,290.19 209.5,289C 198.749,286.312 188.083,283.312 177.5,280C 173.56,278.985 169.56,278.485 165.5,278.5C 163.214,270.422 160.214,262.589 156.5,255C 159.244,255.019 161.911,255.686 164.5,257C 167.167,257.167 169.833,257.333 172.5,257.5C 180.291,256.31 188.124,255.31 196,254.5C 203.129,254.657 209.962,256.157 216.5,259C 221.537,259.663 226.537,259.496 231.5,258.5 Z"/></g>
<g><path style="opacity:1" fill="#ca6c68" d="M 331.5,270.5 C 332.649,270.791 333.316,271.624 333.5,273C 332.787,278.476 332.287,283.976 332,289.5C 324.925,293.192 317.425,295.692 309.5,297C 304.167,297.667 298.833,297.667 293.5,297C 284.221,293.805 274.721,291.638 265,290.5C 261.742,290.493 258.575,290.993 255.5,292C 247.593,297.62 238.926,301.62 229.5,304C 218.5,304.667 207.5,304.667 196.5,304C 187.794,303.24 179.461,301.074 171.5,297.5C 169.697,293.673 168.863,289.673 169,285.5C 185.325,293.027 202.491,296.527 220.5,296C 229.355,293.574 238.021,290.574 246.5,287C 271.364,286.801 295.697,283.134 319.5,276C 323.814,274.628 327.814,272.795 331.5,270.5 Z"/></g>
<g><path style="opacity:1" fill="#ab5049" d="M 264.5,350.5 C 250.192,339.833 240.525,325.833 235.5,308.5C 243.335,305.586 251.002,302.086 258.5,298C 263.167,297.333 267.833,297.333 272.5,298C 291.954,304.788 311.621,305.288 331.5,299.5C 330.239,308.872 327.572,317.872 323.5,326.5C 310.412,327.355 298.078,330.855 286.5,337C 279.278,341.773 271.945,346.273 264.5,350.5 Z"/></g>
<g><path style="opacity:1" fill="#9a403d" d="M 235.5,308.5 C 240.525,325.833 250.192,339.833 264.5,350.5C 261.32,352.867 257.653,353.867 253.5,353.5C 246.061,352.241 238.728,350.575 231.5,348.5C 224.037,349.366 216.704,350.866 209.5,353C 200.99,354.114 192.656,353.448 184.5,351C 182.04,349.542 179.873,347.709 178,345.5C 175.532,330.767 173.698,316.101 172.5,301.5C 180.005,305.544 188.005,308.044 196.5,309C 209.514,309.661 222.514,309.494 235.5,308.5 Z"/></g>
<g><path style="opacity:1" fill="#cc6d69" d="M 314.5,334.5 C 316.167,334.5 317.833,334.5 319.5,334.5C 319.202,337.265 318.202,339.765 316.5,342C 307.893,343.803 299.559,346.47 291.5,350C 287.759,351.738 284.592,354.238 282,357.5C 280.655,363.309 282.822,367.143 288.5,369C 295.076,370.377 301.743,370.877 308.5,370.5C 308.5,373.167 308.5,375.833 308.5,378.5C 292.983,384.038 276.983,385.872 260.5,384C 256.789,383.156 253.123,382.156 249.5,381C 238.134,374.648 226.134,369.982 213.5,367C 209.5,366.333 205.5,366.333 201.5,367C 194.55,368.714 187.55,370.214 180.5,371.5C 179.384,364.862 178.884,358.196 179,351.5C 183.314,355.607 188.48,357.774 194.5,358C 206.821,358.087 218.988,356.587 231,353.5C 237.017,354.728 242.851,356.561 248.5,359C 256.721,360.066 264.388,358.4 271.5,354C 284.425,344.201 298.758,337.701 314.5,334.5 Z"/></g>
<g><path style="opacity:1" fill="#a64e47" d="M 312.5,345.5 C 313.552,345.351 314.552,345.517 315.5,346C 312.9,351.467 310.9,357.134 309.5,363C 302.833,363.667 296.167,363.667 289.5,363C 286.813,359.697 287.479,357.031 291.5,355C 298.56,351.714 305.56,348.547 312.5,345.5 Z"/></g>
<g><path style="opacity:1" fill="#99403d" d="M 293.5,388.5 C 298.161,402.761 297.161,416.594 290.5,430C 290.728,430.399 291.062,430.565 291.5,430.5C 281.356,436.706 270.189,439.706 258,439.5C 242.96,439.295 228.793,435.795 215.5,429C 229.359,428.707 243.026,427.04 256.5,424C 263.488,422.032 266.988,417.532 267,410.5C 263.457,406.426 258.957,404.259 253.5,404C 234.98,403.802 216.48,403.302 198,402.5C 197.167,402.167 196.333,401.833 195.5,401.5C 191.245,393.991 187.245,386.324 183.5,378.5C 195.008,375.581 206.675,374.414 218.5,375C 231.842,381.171 245.509,386.505 259.5,391C 271.017,392.174 282.351,391.341 293.5,388.5 Z"/></g>
<g><path style="opacity:1" fill="#aa4f48" d="M 291.5,430.5 C 291.062,430.565 290.728,430.399 290.5,430C 297.161,416.594 298.161,402.761 293.5,388.5C 297.923,387.124 302.256,385.457 306.5,383.5C 309.326,398.2 306.826,411.866 299,424.5C 296.914,427.094 294.414,429.094 291.5,430.5 Z"/></g>
<g><path style="opacity:1" fill="#cd6e6a" d="M 198.5,405.5 C 203.717,406.923 209.05,407.756 214.5,408C 227.167,408.333 239.833,408.667 252.5,409C 255.743,409.288 258.41,410.622 260.5,413C 259.899,414.605 258.899,415.938 257.5,417C 253.716,418.947 249.716,420.28 245.5,421C 232.865,422.459 220.198,422.792 207.5,422C 203.586,417.006 200.586,411.506 198.5,405.5 Z"/></g>
<g><path style="opacity:1" fill="#9facb5" d="M 245.5,454.5 C 247.816,470.392 248.816,486.392 248.5,502.5C 250.833,502.5 253.167,502.5 255.5,502.5C 248.003,505.004 242.503,502.671 239,495.5C 238.901,481.945 238.067,468.445 236.5,455C 236.833,454.167 237.167,453.333 237.5,452.5C 240.311,453.08 242.977,453.746 245.5,454.5 Z"/></g>
<g><path style="opacity:1" fill="#c7d3da" d="M 245.5,454.5 C 251.167,454.5 256.833,454.5 262.5,454.5C 262.623,468.847 262.79,483.18 263,497.5C 261.999,501.259 259.499,502.926 255.5,502.5C 253.167,502.5 250.833,502.5 248.5,502.5C 248.816,486.392 247.816,470.392 245.5,454.5 Z"/></g>
</svg>
