<?xml version="1.0" encoding="UTF-8"?>
<!DOCTYPE svg PUBLIC "-//W3C//DTD SVG 1.1//EN" "http://www.w3.org/Graphics/SVG/1.1/DTD/svg11.dtd">
<svg xmlns="http://www.w3.org/2000/svg" version="1.1" width="512px" height="512px" style="shape-rendering:geometricPrecision; text-rendering:geometricPrecision; image-rendering:optimizeQuality; fill-rule:evenodd; clip-rule:evenodd" xmlns:xlink="http://www.w3.org/1999/xlink">
<g><path style="opacity:1" fill="#040303" d="M 197.5,-0.5 C 274.833,-0.5 352.167,-0.5 429.5,-0.5C 446.832,2.16683 462.166,9.16683 475.5,20.5C 480.167,25.8333 485.167,30.8333 490.5,35.5C 501.739,48.8756 508.739,64.2089 511.5,81.5C 511.5,116.5 511.5,151.5 511.5,186.5C 510.734,195.447 509.4,204.447 507.5,213.5C 497.833,245.167 477.167,265.833 445.5,275.5C 436.768,277.29 428.101,278.624 419.5,279.5C 406.79,280.163 394.79,277.829 383.5,272.5C 373.172,266.508 362.838,260.508 352.5,254.5C 338.925,247.698 324.592,243.198 309.5,241C 272.183,239.762 234.85,239.095 197.5,239C 159.129,231.297 133.962,208.797 122,171.5C 121.333,168.167 120.667,164.833 120,161.5C 119.333,133.5 119.333,105.5 120,77.5C 120.198,75.6183 120.698,73.9516 121.5,72.5C 126.008,56.149 133.675,41.4823 144.5,28.5C 158.849,12.8244 176.516,3.15776 197.5,-0.5 Z"/></g>
<g><path style="opacity:1" fill="#d54b4b" d="M 239.5,175.5 C 232.833,175.5 226.167,175.5 219.5,175.5C 219.456,171.91 217.789,169.41 214.5,168C 175.918,166.737 150.418,147.903 138,111.5C 130.285,69.0958 145.785,38.5958 184.5,20C 188.123,18.8443 191.789,17.8443 195.5,17C 234.296,15.8482 273.129,15.3482 312,15.5C 351.858,15.3572 391.691,15.8572 431.5,17C 466.18,25.6802 487.346,47.5136 495,82.5C 495.667,101.5 495.667,120.5 495,139.5C 488.325,176.665 466.492,199.165 429.5,207C 417.61,208.31 405.943,207.31 394.5,204C 378.5,195.333 362.5,186.667 346.5,178C 336.079,174.062 325.412,171.062 314.5,169C 291.187,167.486 267.854,167.152 244.5,168C 241.211,169.41 239.544,171.91 239.5,175.5 Z"/></g>
<g><path style="opacity:0.58" fill="#262626" d="M 475.5,20.5 C 481.5,24.5 486.5,29.5 490.5,35.5C 485.167,30.8333 480.167,25.8333 475.5,20.5 Z"/></g>
<g><path style="opacity:1" fill="#040202" d="M 359.5,47.5 C 358.909,50.6136 357.242,53.1136 354.5,55C 344.167,55.3333 333.833,55.6667 323.5,56C 313.573,64.3504 307.073,74.8504 304,87.5C 303.5,101.163 303.333,114.829 303.5,128.5C 338.837,129.666 370.504,140.832 398.5,162C 413.137,169.715 427.47,169.048 441.5,160C 448.966,153.904 453.466,146.071 455,136.5C 455.667,119.833 455.667,103.167 455,86.5C 448.555,65.7362 434.388,55.2362 412.5,55C 409.834,53.1674 408.168,50.6674 407.5,47.5C 408.12,41.5542 411.453,38.8875 417.5,39.5C 446.094,42.9281 463.928,58.5948 471,86.5C 471.667,103.833 471.667,121.167 471,138.5C 462.845,170.332 442.345,185.166 409.5,183C 406.107,182.202 402.774,181.202 399.5,180C 386.493,171.828 373.16,164.161 359.5,157C 343.602,149.858 326.935,145.525 309.5,144C 272.453,143.975 235.453,143.308 198.5,142C 173.741,133.564 160.741,116.231 159.5,90C 161.529,64.9445 174.529,48.6112 198.5,41C 250.455,39.3512 302.455,39.0178 354.5,40C 357.789,41.4103 359.456,43.9103 359.5,47.5 Z"/></g>
<g><path style="opacity:1" fill="#2a2626" d="M 391.5,47.5 C 391.123,52.7087 388.29,55.3754 383,55.5C 378.265,54.932 375.765,52.2653 375.5,47.5C 377.054,40.0558 381.388,37.8892 388.5,41C 390.451,42.7342 391.451,44.9009 391.5,47.5 Z"/></g>
<g><path style="opacity:1" fill="#9e6a6a" d="M 359.5,47.5 C 364.833,47.5 370.167,47.5 375.5,47.5C 375.765,52.2653 378.265,54.932 383,55.5C 388.29,55.3754 391.123,52.7087 391.5,47.5C 396.833,47.5 402.167,47.5 407.5,47.5C 408.168,50.6674 409.834,53.1674 412.5,55C 434.388,55.2362 448.555,65.7362 455,86.5C 455.667,103.167 455.667,119.833 455,136.5C 453.466,146.071 448.966,153.904 441.5,160C 427.47,169.048 413.137,169.715 398.5,162C 370.504,140.832 338.837,129.666 303.5,128.5C 303.333,114.829 303.5,101.163 304,87.5C 307.073,74.8504 313.573,64.3504 323.5,56C 333.833,55.6667 344.167,55.3333 354.5,55C 357.242,53.1136 358.909,50.6136 359.5,47.5 Z"/></g>
<g><path style="opacity:1" fill="#8b4a4a" d="M 202.5,55.5 C 235.507,55.1668 268.507,55.5001 301.5,56.5C 295.709,64.6864 291.542,73.6864 289,83.5C 287.606,98.1223 287.106,112.789 287.5,127.5C 259.165,127.667 230.831,127.5 202.5,127C 182.285,119.086 173.452,104.253 176,82.5C 180.685,69.3159 189.518,60.3159 202.5,55.5 Z"/></g>
<g><path style="opacity:0.656" fill="#232323" d="M 144.5,28.5 C 133.675,41.4823 126.008,56.149 121.5,72.5C 124.455,55.2532 132.121,40.5865 144.5,28.5 Z"/></g>
<g><path style="opacity:1" fill="#262626" d="M 400.5,71.5 C 426.89,70.7239 439.723,83.3906 439,109.5C 433.318,128.602 420.485,137.102 400.5,135C 382.143,128.81 373.976,115.976 376,96.5C 379.683,83.6514 387.85,75.3181 400.5,71.5 Z"/></g>
<g><path style="opacity:1" fill="#9f6a6a" d="M 207.5,79.5 C 220.018,79.5049 224.851,85.5049 222,97.5C 214.966,105.413 207.966,105.413 201,97.5C 197.82,89.5325 199.987,83.5325 207.5,79.5 Z"/></g>
<g><path style="opacity:1" fill="#d4cbaf" d="M 402.5,87.5 C 418.678,87.1677 425.178,94.8344 422,110.5C 416.039,119.283 408.206,121.449 398.5,117C 388.083,105.501 389.416,95.6674 402.5,87.5 Z"/></g>
<g><path style="opacity:1" fill="#e27e7e" d="M 219.5,175.5 C 226.167,175.5 232.833,175.5 239.5,175.5C 240.04,178.745 241.706,181.245 244.5,183C 264.833,183.333 285.167,183.667 305.5,184C 331.567,187.24 354.901,196.907 375.5,213C 412.592,229.605 447.258,225.605 479.5,201C 485.41,195.761 490.577,189.928 495,183.5C 494.204,221.95 475.704,247.45 439.5,260C 424.446,264.465 409.446,264.465 394.5,260C 378.532,251.348 362.532,242.681 346.5,234C 336.091,230.064 325.424,227.064 314.5,225C 275.857,223.723 237.19,223.056 198.5,223C 166.581,215.749 146.415,196.249 138,164.5C 137.703,161.086 137.036,157.753 136,154.5C 135.333,150.833 135.333,147.167 136,143.5C 155.071,170.619 181.237,183.786 214.5,183C 217.29,181.254 218.957,178.754 219.5,175.5 Z"/></g>
<g><path style="opacity:0.92" fill="#252525" d="M 511.5,186.5 C 511.5,191.167 511.5,195.833 511.5,200.5C 510.634,204.96 509.301,209.293 507.5,213.5C 509.4,204.447 510.734,195.447 511.5,186.5 Z"/></g>
<g><path style="opacity:0.62" fill="#242424" d="M 91.5,231.5 C 82.899,232.376 74.2324,233.71 65.5,235.5C 73.7362,232.24 82.4028,230.907 91.5,231.5 Z"/></g>
<g><path style="opacity:1" fill="#040303" d="M 91.5,231.5 C 99.8287,230.992 107.829,231.992 115.5,234.5C 123.761,237.124 131.761,240.624 139.5,245C 145.474,249.483 151.807,253.317 158.5,256.5C 172.075,263.302 186.408,267.802 201.5,270C 238.817,271.238 276.15,271.905 313.5,272C 346.936,278.134 370.769,296.634 385,327.5C 387.816,334.614 389.816,341.947 391,349.5C 391.667,377.5 391.667,405.5 391,433.5C 384.866,466.936 366.366,490.769 335.5,505C 328.193,507.718 320.859,509.885 313.5,511.5C 236.167,511.5 158.833,511.5 81.5,511.5C 36.5,501.833 9.16667,474.5 -0.5,429.5C -0.5,389.833 -0.5,350.167 -0.5,310.5C 2.00918,295.308 8.00918,281.641 17.5,269.5C 23.8333,262.5 30.5,255.833 37.5,249.5C 43.104,244.688 49.4374,240.854 56.5,238C 59.3527,236.57 62.3527,235.737 65.5,235.5C 74.2324,233.71 82.899,232.376 91.5,231.5 Z"/></g>
<g><path style="opacity:1" fill="#e27e7e" d="M 151.5,447.5 C 146.167,447.5 140.833,447.5 135.5,447.5C 135.123,442.291 132.29,439.625 127,439.5C 122.255,440.078 119.755,442.744 119.5,447.5C 114.167,447.5 108.833,447.5 103.5,447.5C 103.456,443.91 101.789,441.41 98.5,440C 57.8344,438.762 31.001,418.928 18,380.5C 17.0881,376.205 16.4215,371.872 16,367.5C 15.3333,348.833 15.3333,330.167 16,311.5C 21.3459,286.947 34.8459,268.447 56.5,256C 78.4914,245.346 100.825,244.68 123.5,254C 135.839,261.838 148.506,269.172 161.5,276C 176.753,282.813 192.753,286.479 209.5,287C 242.833,287.333 276.167,287.667 309.5,288C 344.655,294.821 366.489,315.654 375,350.5C 378.62,388.102 363.786,415.602 330.5,433C 323.746,435.878 316.746,437.878 309.5,439C 258.5,439.333 207.5,439.667 156.5,440C 153.211,441.41 151.544,443.91 151.5,447.5 Z"/></g>
<g><path style="opacity:0.574" fill="#242424" d="M 115.5,234.5 C 124.443,235.982 132.776,239.149 140.5,244C 146.679,248.03 152.679,252.196 158.5,256.5C 151.807,253.317 145.474,249.483 139.5,245C 131.761,240.624 123.761,237.124 115.5,234.5 Z"/></g>
<g><path style="opacity:0.57" fill="#252525" d="M 352.5,254.5 C 362.838,260.508 373.172,266.508 383.5,272.5C 372.153,268.132 361.82,262.132 352.5,254.5 Z"/></g>
<g><path style="opacity:0.577" fill="#242424" d="M 37.5,249.5 C 30.5,255.833 23.8333,262.5 17.5,269.5C 22.5,261.167 29.1667,254.5 37.5,249.5 Z"/></g>
<g><path style="opacity:1" fill="#030202" d="M 279.5,319.5 C 278.974,322.707 277.308,325.207 274.5,327C 263.923,327.179 253.423,327.679 243,328.5C 227.644,349.579 221.144,373.245 223.5,399.5C 250.169,399.667 276.835,399.5 303.5,399C 317.971,396.874 328.138,389.041 334,375.5C 338.543,360.075 335.377,346.575 324.5,335C 317.271,329.09 308.937,326.256 299.5,326.5C 297.266,324.619 295.933,322.285 295.5,319.5C 295.544,315.91 297.211,313.41 300.5,312C 332.009,313.34 349.009,329.84 351.5,361.5C 350.257,391.502 334.924,409.335 305.5,415C 232.5,415.667 159.5,415.667 86.5,415C 60.2287,408.628 44.7287,392.128 40,365.5C 39.3333,348.833 39.3333,332.167 40,315.5C 48.4576,284.69 68.6243,270.19 100.5,272C 112.551,274.692 123.218,280.026 132.5,288C 153.192,300.453 175.526,308.12 199.5,311C 224.5,311.333 249.5,311.667 274.5,312C 277.789,313.41 279.456,315.91 279.5,319.5 Z"/></g>
<g><path style="opacity:0.732" fill="#242424" d="M 445.5,275.5 C 437.264,278.76 428.597,280.093 419.5,279.5C 428.101,278.624 436.768,277.29 445.5,275.5 Z"/></g>
<g><path style="opacity:1" fill="#8b4a4a" d="M 83.5,287.5 C 91.0053,286.988 98.3387,287.822 105.5,290C 117.12,297.443 129.12,304.276 141.5,310.5C 109.776,331.253 92.1097,360.587 88.5,398.5C 70.9943,394.829 60.161,384.163 56,366.5C 55.3333,349.5 55.3333,332.5 56,315.5C 60.6844,301.65 69.8511,292.316 83.5,287.5 Z"/></g>
<g><path style="opacity:1" fill="#9f6a6a" d="M 158.5,318.5 C 167.86,320.341 177.193,322.507 186.5,325C 199.088,326.73 211.755,327.896 224.5,328.5C 211.77,350.422 206.103,374.089 207.5,399.5C 172.833,399.5 138.167,399.5 103.5,399.5C 107.966,363.042 126.299,336.042 158.5,318.5 Z"/></g>
<g><path style="opacity:1" fill="#8b4a4a" d="M 279.5,319.5 C 284.833,319.5 290.167,319.5 295.5,319.5C 295.933,322.285 297.266,324.619 299.5,326.5C 308.937,326.256 317.271,329.09 324.5,335C 335.377,346.575 338.543,360.075 334,375.5C 328.138,389.041 317.971,396.874 303.5,399C 276.835,399.5 250.169,399.667 223.5,399.5C 221.144,373.245 227.644,349.579 243,328.5C 253.423,327.679 263.923,327.179 274.5,327C 277.308,325.207 278.974,322.707 279.5,319.5 Z"/></g>
<g><path style="opacity:1" fill="#9f6a6a" d="M 295.5,351.5 C 308.018,351.505 312.851,357.505 310,369.5C 302.966,377.413 295.966,377.413 289,369.5C 285.82,361.532 287.987,355.532 295.5,351.5 Z"/></g>
<g><path style="opacity:1" fill="#d64b4b" d="M 103.5,447.5 C 108.833,447.5 114.167,447.5 119.5,447.5C 121.068,454.951 125.402,457.118 132.5,454C 134.451,452.266 135.451,450.099 135.5,447.5C 140.833,447.5 146.167,447.5 151.5,447.5C 152.057,450.792 153.724,453.292 156.5,455C 209.189,455.96 261.856,455.626 314.5,454C 339.98,449.353 360.147,436.519 375,415.5C 374.842,448.997 360.009,473.497 330.5,489C 323.744,491.879 316.744,493.879 309.5,495C 233.833,495.667 158.167,495.667 82.5,495C 40.1999,484.358 18.0332,457.192 16,413.5C 36.1661,441.833 63.6661,455.666 98.5,455C 101.308,453.207 102.974,450.707 103.5,447.5 Z"/></g>
<g><path style="opacity:1" fill="#2b2727" d="M 135.5,447.5 C 135.451,450.099 134.451,452.266 132.5,454C 125.402,457.118 121.068,454.951 119.5,447.5C 119.755,442.744 122.255,440.078 127,439.5C 132.29,439.625 135.123,442.291 135.5,447.5 Z"/></g>
</svg>
