<?xml version="1.0" encoding="UTF-8"?>
<!DOCTYPE svg PUBLIC "-//W3C//DTD SVG 1.1//EN" "http://www.w3.org/Graphics/SVG/1.1/DTD/svg11.dtd">
<svg xmlns="http://www.w3.org/2000/svg" version="1.1" width="512px" height="512px" style="shape-rendering:geometricPrecision; text-rendering:geometricPrecision; image-rendering:optimizeQuality; fill-rule:evenodd; clip-rule:evenodd" xmlns:xlink="http://www.w3.org/1999/xlink">
<g><path style="opacity:0.977" fill="#010101" d="M 511.5,317.5 C 511.5,320.833 511.5,324.167 511.5,327.5C 482.951,358.284 448.285,379.118 407.5,390C 396.643,392.599 385.643,394.265 374.5,395C 348.5,395.667 322.5,395.667 296.5,395C 292.403,393.078 290.07,389.912 289.5,385.5C 289.875,380.249 292.541,376.749 297.5,375C 325.167,374.667 352.833,374.333 380.5,374C 416.057,369.211 447.723,355.711 475.5,333.5C 476.043,333.44 476.376,333.107 476.5,332.5C 329.334,331.167 182.334,331.167 35.5,332.5C 62.4434,354.963 93.4434,368.796 128.5,374C 157.167,374.333 185.833,374.667 214.5,375C 219.459,376.749 222.125,380.249 222.5,385.5C 221.93,389.912 219.597,393.078 215.5,395C 189.167,395.667 162.833,395.667 136.5,395C 94.1697,391.342 56.503,376.342 23.5,350C 15.3289,342.662 7.32887,335.162 -0.5,327.5C -0.5,324.167 -0.5,320.833 -0.5,317.5C 1.22405,314.458 3.89071,312.625 7.5,312C 24.5,311.667 41.5,311.333 58.5,311C 52.4282,298.764 50.9282,285.931 54,272.5C 60.8139,235.682 80.3139,207.848 112.5,189C 128.849,179.716 146.182,172.883 164.5,168.5C 152.601,154.969 147.434,139.303 149,121.5C 149.785,119.714 150.951,118.214 152.5,117C 181.96,109.473 205.793,117.639 224,141.5C 236.189,122.323 253.689,113.656 276.5,115.5C 295.676,112.172 302.842,119.838 298,138.5C 295.598,150.138 290.431,160.305 282.5,169C 298.411,173.209 313.244,179.709 327,188.5C 339.759,177.744 351.926,166.244 363.5,154C 375.947,144.304 389.281,142.97 403.5,150C 418.14,162.535 420.973,177.369 412,194.5C 404.374,207.585 396.874,220.752 389.5,234C 401.322,226.56 412.989,218.56 424.5,210C 437.343,203.978 449.676,204.978 461.5,213C 473.346,225.337 475.513,239.17 468,254.5C 452.262,272.982 436.762,291.649 421.5,310.5C 448.827,311.333 476.161,311.833 503.5,312C 507.109,312.625 509.776,314.458 511.5,317.5 Z"/></g>
<g><path style="opacity:1" fill="#345336" d="M 182.5,136.5 C 178.298,136.183 174.298,136.517 170.5,137.5C 169.957,137.44 169.624,137.107 169.5,136.5C 173.984,135.189 178.317,135.189 182.5,136.5 Z"/></g>
<g><path style="opacity:1" fill="#86d98b" d="M 182.5,136.5 C 197.858,139.838 207.524,149.171 211.5,164.5C 207.03,165.486 202.363,165.819 197.5,165.5C 183.13,161.461 174.13,152.128 170.5,137.5C 174.298,136.517 178.298,136.183 182.5,136.5 Z"/></g>
<g><path style="opacity:1" fill="#85d88a" d="M 260.5,136.5 C 266.176,136.334 271.843,136.501 277.5,137C 271.265,157.947 257.265,167.78 235.5,166.5C 238.757,152.245 247.09,142.245 260.5,136.5 Z"/></g>
<g><path style="opacity:1" fill="#59915d" d="M 211.5,164.5 C 212.043,164.56 212.376,164.893 212.5,165.5C 207.348,166.814 202.348,166.814 197.5,165.5C 202.363,165.819 207.03,165.486 211.5,164.5 Z"/></g>
<g><path style="opacity:1" fill="#fb9043" d="M 382.5,165.5 C 392.807,165.306 397.307,170.306 396,180.5C 386.586,197.663 376.92,214.663 367,231.5C 360.125,221.1 352.292,211.434 343.5,202.5C 356.218,189.78 369.218,177.446 382.5,165.5 Z"/></g>
<g><path style="opacity:1" fill="#fd9244" d="M 211.5,309.5 C 171.847,311.494 131.847,312.161 91.5,311.5C 83.8175,309.989 78.3175,305.656 75,298.5C 71.43,274.448 77.0967,252.781 92,233.5C 115.759,206.535 145.592,191.035 181.5,187C 208.5,186.333 235.5,186.333 262.5,187C 287.023,189.944 308.689,199.277 327.5,215C 292.323,209.853 264.156,221.353 243,249.5C 238.771,256.568 239.938,262.401 246.5,267C 250.12,267.841 253.454,267.174 256.5,265C 278.524,233.411 306.857,226.077 341.5,243C 350.949,250.538 359.282,259.205 366.5,269C 370.136,270.899 373.803,270.899 377.5,269C 397.15,254.508 417.15,240.508 437.5,227C 448.476,225.779 452.976,230.612 451,241.5C 435.379,261.457 419.379,281.123 403,300.5C 398.12,306.376 391.953,310.209 384.5,312C 333.834,312.5 283.168,312.667 232.5,312.5C 226.413,282.248 208.08,264.748 177.5,260C 161.805,258.006 147.139,261.006 133.5,269C 126.5,269.333 119.5,269.667 112.5,270C 105.983,274.245 104.817,279.745 109,286.5C 110.419,287.46 111.919,288.293 113.5,289C 121.833,289.667 130.167,289.667 138.5,289C 159.176,276.011 179.509,276.344 199.5,290C 205.165,295.502 209.165,302.002 211.5,309.5 Z"/></g>
<g><path style="opacity:1" fill="#d97d3b" d="M 211.5,309.5 C 212.404,310.209 212.737,311.209 212.5,312.5C 171.997,312.832 131.663,312.499 91.5,311.5C 131.847,312.161 171.847,311.494 211.5,309.5 Z"/></g>
<g><path style="opacity:1" fill="#1d1e21" d="M 35.5,332.5 C 182.334,331.167 329.334,331.167 476.5,332.5C 476.376,333.107 476.043,333.44 475.5,333.5C 329.001,332.5 182.334,332.167 35.5,332.5 Z"/></g>
<g><path style="opacity:0.998" fill="#deebfe" d="M 35.5,332.5 C 182.334,332.167 329.001,332.5 475.5,333.5C 447.723,355.711 416.057,369.211 380.5,374C 352.833,374.333 325.167,374.667 297.5,375C 292.541,376.749 289.875,380.249 289.5,385.5C 281.5,385.5 273.5,385.5 265.5,385.5C 264.145,376.813 259.145,373.647 250.5,376C 247.319,378.551 245.319,381.718 244.5,385.5C 237.167,385.5 229.833,385.5 222.5,385.5C 222.125,380.249 219.459,376.749 214.5,375C 185.833,374.667 157.167,374.333 128.5,374C 93.4434,368.796 62.4434,354.963 35.5,332.5 Z"/></g>
<g><path style="opacity:0.937" fill="#010101" d="M 265.5,385.5 C 263.507,394.332 258.174,397.166 249.5,394C 246.926,391.682 245.259,388.849 244.5,385.5C 245.319,381.718 247.319,378.551 250.5,376C 259.145,373.647 264.145,376.813 265.5,385.5 Z"/></g>
</svg>
