<?xml version="1.0" encoding="UTF-8"?>
<!DOCTYPE svg PUBLIC "-//W3C//DTD SVG 1.1//EN" "http://www.w3.org/Graphics/SVG/1.1/DTD/svg11.dtd">
<svg xmlns="http://www.w3.org/2000/svg" version="1.1" width="512px" height="511px" style="shape-rendering:geometricPrecision; text-rendering:geometricPrecision; image-rendering:optimizeQuality; fill-rule:evenodd; clip-rule:evenodd" xmlns:xlink="http://www.w3.org/1999/xlink">
<g><path style="opacity:0.972" fill="#030101" d="M 511.5,220.5 C 511.5,233.167 511.5,245.833 511.5,258.5C 509.282,275.402 505.449,292.069 500,308.5C 487.896,341.048 471.896,371.381 452,399.5C 428.046,430.121 397.879,452.288 361.5,466C 330.01,476.318 298.677,475.984 267.5,465C 242.554,455.952 221.054,441.785 203,422.5C 195.724,412.953 189.724,402.62 185,391.5C 178.794,371.676 172.127,352.009 165,332.5C 153.441,306.608 135.274,286.774 110.5,273C 88.9548,262.394 67.2881,252.061 45.5,242C 19.2561,228.658 3.92277,207.492 -0.5,178.5C -0.5,169.833 -0.5,161.167 -0.5,152.5C 4.08404,133.333 12.9174,116.333 26,101.5C 53.2137,71.969 86.7137,53.469 126.5,46C 201.058,32.7659 275.058,35.4326 348.5,54C 386.748,64.9532 421.081,82.9532 451.5,108C 485.587,138.008 505.587,175.508 511.5,220.5 Z"/></g>
<g><path style="opacity:1" fill="#efe4d4" d="M 445.5,125.5 C 453.321,141.299 458.321,157.966 460.5,175.5C 460.493,177.369 460.16,179.036 459.5,180.5C 440.162,145.636 412.162,120.136 375.5,104C 340.586,89.3463 304.253,80.3463 266.5,77C 235.235,73.2334 203.902,72.5667 172.5,75C 143.385,77.5282 115.718,85.1949 89.5,98C 76.947,104.886 67.447,114.72 61,127.5C 56.108,146.826 61.2747,162.992 76.5,176C 85.6369,183.152 95.8036,188.319 107,191.5C 110.366,191.57 112.866,190.237 114.5,187.5C 120.935,189.22 127.269,191.22 133.5,193.5C 133.063,196.807 133.73,199.807 135.5,202.5C 161.196,213.596 183.696,229.263 203,249.5C 213.026,261.888 221.026,275.555 227,290.5C 234.49,313.464 241.824,336.464 249,359.5C 254.662,370.328 262.829,378.662 273.5,384.5C 259.887,383.769 246.554,380.769 233.5,375.5C 230.837,371.507 228.67,367.173 227,362.5C 220.657,341.819 214.323,321.153 208,300.5C 195.914,271.086 176.08,248.586 148.5,233C 123.5,222 98.5,211 73.5,200C 49.0322,186.584 37.3655,165.751 38.5,137.5C 38.4221,123.997 42.5888,111.997 51,101.5C 65.3116,86.2544 82.4783,75.4211 102.5,69C 149.167,55.0496 196.834,50.0496 245.5,54C 295.322,55.3554 342.988,66.022 388.5,86C 409.884,95.9106 428.884,109.077 445.5,125.5 Z"/></g>
<g><path style="opacity:1" fill="#040202" d="M 459.5,180.5 C 465.818,192.453 470.151,205.119 472.5,218.5C 472.353,222.637 470.353,225.303 466.5,226.5C 463.728,226.78 461.228,226.113 459,224.5C 454.643,203.576 446.143,184.576 433.5,167.5C 428.88,166.507 424.214,166.173 419.5,166.5C 381.199,165.576 345.199,174.076 311.5,192C 332.831,206.56 350.331,224.727 364,246.5C 372.972,264.254 380.472,282.587 386.5,301.5C 390.225,313.175 394.058,324.842 398,336.5C 400.771,343.044 404.771,348.71 410,353.5C 438.592,326.314 454.925,292.981 459,253.5C 460.641,249.677 463.474,247.677 467.5,247.5C 469.667,248.198 471.5,249.531 473,251.5C 470.005,301.327 449.171,341.827 410.5,373C 371.04,400.523 328.707,406.189 283.5,390C 280.277,387.938 276.943,386.104 273.5,384.5C 262.829,378.662 254.662,370.328 249,359.5C 241.824,336.464 234.49,313.464 227,290.5C 221.026,275.555 213.026,261.888 203,249.5C 183.696,229.263 161.196,213.596 135.5,202.5C 133.73,199.807 133.063,196.807 133.5,193.5C 134.962,192.542 136.295,191.376 137.5,190C 139.167,189.333 140.833,189.333 142.5,190C 197.168,211.674 232.668,250.84 249,307.5C 252.504,320.185 256.004,332.852 259.5,345.5C 262.479,354.606 267.812,362.106 275.5,368C 299.445,383.581 325.445,388.248 353.5,382C 369.482,378.567 384.149,372.233 397.5,363C 392.219,357.611 388.053,351.444 385,344.5C 381.171,334.838 377.671,325.172 374.5,315.5C 368.598,293.63 360.432,272.63 350,252.5C 340.666,237.827 329.166,224.994 315.5,214C 292.716,196.848 268.216,182.348 242,170.5C 226.044,189.692 207.21,193.192 185.5,181C 174.976,172.31 169.642,161.143 169.5,147.5C 137.828,141.041 105.828,137.708 73.5,137.5C 73.562,144.853 75.7286,151.519 80,157.5C 88.632,167.119 99.132,173.952 111.5,178C 114.186,180.546 115.186,183.713 114.5,187.5C 112.866,190.237 110.366,191.57 107,191.5C 95.8036,188.319 85.6369,183.152 76.5,176C 61.2747,162.992 56.108,146.826 61,127.5C 67.447,114.72 76.947,104.886 89.5,98C 115.718,85.1949 143.385,77.5282 172.5,75C 203.902,72.5667 235.235,73.2334 266.5,77C 304.253,80.3463 340.586,89.3463 375.5,104C 412.162,120.136 440.162,145.636 459.5,180.5 Z"/></g>
<g><path style="opacity:1" fill="#f94d50" d="M 191.5,88.5 C 241.378,87.3536 290.378,93.1869 338.5,106C 368.653,114.902 395.32,129.735 418.5,150.5C 386.412,150.751 355.412,156.585 325.5,168C 315.727,172.053 306.394,176.886 297.5,182.5C 281.765,172.965 265.431,164.465 248.5,157C 249.077,132.807 237.743,117.473 214.5,111C 196.638,109.764 182.972,116.764 173.5,132C 160.129,130.566 146.796,128.566 133.5,126C 116.527,124.335 99.5272,123.002 82.5,122C 93.8734,112.144 106.873,105.144 121.5,101C 144.475,94.0353 167.809,89.8686 191.5,88.5 Z"/></g>
<g><path style="opacity:1" fill="#efe4d3" d="M 201.5,126.5 C 223.93,125.093 233.764,135.426 231,157.5C 225.607,169.282 216.44,174.448 203.5,173C 186.558,166.463 181.391,154.629 188,137.5C 191.702,132.748 196.202,129.082 201.5,126.5 Z"/></g>
<g><path style="opacity:1" fill="#e1d2be" d="M 445.5,125.5 C 478.704,155.934 495.704,193.934 496.5,239.5C 494.611,298.768 471.611,347.935 427.5,387C 378.127,424.969 324.793,431.302 267.5,406C 252.836,399.5 241.502,389.334 233.5,375.5C 246.554,380.769 259.887,383.769 273.5,384.5C 276.943,386.104 280.277,387.938 283.5,390C 328.707,406.189 371.04,400.523 410.5,373C 449.171,341.827 470.005,301.327 473,251.5C 471.5,249.531 469.667,248.198 467.5,247.5C 467.498,240.48 467.165,233.48 466.5,226.5C 470.353,225.303 472.353,222.637 472.5,218.5C 470.151,205.119 465.818,192.453 459.5,180.5C 460.16,179.036 460.493,177.369 460.5,175.5C 458.321,157.966 453.321,141.299 445.5,125.5 Z"/></g>
<g><path style="opacity:1" fill="#e63840" d="M 22.5,133.5 C 21.5482,174.434 39.8815,202.934 77.5,219C 99.5156,227.507 121.182,236.841 142.5,247C 167.977,262.098 185.81,283.598 196,311.5C 201.712,332.347 208.046,353.014 215,373.5C 224.127,394.259 238.96,409.426 259.5,419C 298.924,437.846 339.591,441.179 381.5,429C 393.657,424.745 405.323,419.745 416.5,414C 379.083,450.138 334.749,463.471 283.5,454C 261.883,446.696 242.216,436.029 224.5,422C 213.602,412.094 205.436,400.26 200,386.5C 193.46,364.879 186.126,343.545 178,322.5C 161.274,289.774 136.107,265.941 102.5,251C 83.7729,243.136 65.4396,234.469 47.5,225C 20.9078,207.597 10.4078,183.097 16,151.5C 17.4813,145.22 19.648,139.22 22.5,133.5 Z"/></g>
<g><path style="opacity:1" fill="#fa4d50" d="M 374.5,315.5 C 341.132,344.426 302.799,354.426 259.5,345.5C 256.004,332.852 252.504,320.185 249,307.5C 232.668,250.84 197.168,211.674 142.5,190C 140.833,189.333 139.167,189.333 137.5,190C 136.295,191.376 134.962,192.542 133.5,193.5C 127.269,191.22 120.935,189.22 114.5,187.5C 115.186,183.713 114.186,180.546 111.5,178C 99.132,173.952 88.632,167.119 80,157.5C 75.7286,151.519 73.562,144.853 73.5,137.5C 105.828,137.708 137.828,141.041 169.5,147.5C 169.642,161.143 174.976,172.31 185.5,181C 207.21,193.192 226.044,189.692 242,170.5C 268.216,182.348 292.716,196.848 315.5,214C 329.166,224.994 340.666,237.827 350,252.5C 360.432,272.63 368.598,293.63 374.5,315.5 Z"/></g>
<g><path style="opacity:1" fill="#fa4d50" d="M 419.5,166.5 C 429.565,213.008 420.731,255.675 393,294.5C 390.817,296.907 388.65,299.24 386.5,301.5C 380.472,282.587 372.972,264.254 364,246.5C 350.331,224.727 332.831,206.56 311.5,192C 345.199,174.076 381.199,165.576 419.5,166.5 Z"/></g>
<g><path style="opacity:1" fill="#e83841" d="M 419.5,166.5 C 424.214,166.173 428.88,166.507 433.5,167.5C 446.143,184.576 454.643,203.576 459,224.5C 461.228,226.113 463.728,226.78 466.5,226.5C 467.165,233.48 467.498,240.48 467.5,247.5C 463.474,247.677 460.641,249.677 459,253.5C 454.925,292.981 438.592,326.314 410,353.5C 404.771,348.71 400.771,343.044 398,336.5C 394.058,324.842 390.225,313.175 386.5,301.5C 388.65,299.24 390.817,296.907 393,294.5C 420.731,255.675 429.565,213.008 419.5,166.5 Z"/></g>
<g><path style="opacity:1" fill="#e83841" d="M 374.5,315.5 C 377.671,325.172 381.171,334.838 385,344.5C 388.053,351.444 392.219,357.611 397.5,363C 384.149,372.233 369.482,378.567 353.5,382C 325.445,388.248 299.445,383.581 275.5,368C 267.812,362.106 262.479,354.606 259.5,345.5C 302.799,354.426 341.132,344.426 374.5,315.5 Z"/></g>
</svg>
