<?xml version="1.0" encoding="UTF-8"?>
<!DOCTYPE svg PUBLIC "-//W3C//DTD SVG 1.1//EN" "http://www.w3.org/Graphics/SVG/1.1/DTD/svg11.dtd">
<svg xmlns="http://www.w3.org/2000/svg" version="1.1" width="512px" height="512px" style="shape-rendering:geometricPrecision; text-rendering:geometricPrecision; image-rendering:optimizeQuality; fill-rule:evenodd; clip-rule:evenodd" xmlns:xlink="http://www.w3.org/1999/xlink">
<g><path style="opacity:0.983" fill="#020101" d="M 511.5,265.5 C 511.5,271.833 511.5,278.167 511.5,284.5C 510.202,289.196 508.202,293.696 505.5,298C 508.023,299.36 510.023,301.193 511.5,303.5C 511.5,309.167 511.5,314.833 511.5,320.5C 503.899,353.266 483.566,373.1 450.5,380C 433.833,380.667 417.167,380.667 400.5,380C 397.051,377.724 395.051,374.557 394.5,370.5C 395.711,366.607 398.044,363.44 401.5,361C 418.201,360.891 434.868,360.224 451.5,359C 471.759,353.575 484.425,340.742 489.5,320.5C 490.404,319.791 490.737,318.791 490.5,317.5C 333.833,317.5 177.167,317.5 20.5,317.5C 20.2627,318.791 20.596,319.791 21.5,320.5C 25.0642,335.23 33.3975,346.397 46.5,354C 51.8701,356.852 57.5368,358.852 63.5,360C 151.5,360.333 239.5,360.667 327.5,361C 332.617,362.053 335.284,365.219 335.5,370.5C 335.857,374.664 334.19,377.831 330.5,380C 240.5,380.667 150.5,380.667 60.5,380C 27.434,373.1 7.10069,353.266 -0.5,320.5C -0.5,314.833 -0.5,309.167 -0.5,303.5C 0.977392,301.193 2.97739,299.36 5.5,298C 2.79801,293.696 0.798005,289.196 -0.5,284.5C -0.5,278.167 -0.5,271.833 -0.5,265.5C 4.16234,250.663 13.6623,239.997 28,233.5C 30.9081,215.259 41.0748,203.093 58.5,197C 63.0853,195.775 67.752,195.275 72.5,195.5C 76.9808,182.187 85.9808,173.353 99.5,169C 105.436,167.861 111.436,167.195 117.5,167C 129.34,146.501 146.84,139.001 170,144.5C 175.282,139.896 181.115,136.063 187.5,133C 202.458,128.25 216.458,130.084 229.5,138.5C 244.505,129.221 260.171,128.054 276.5,135C 278.167,136.167 279.833,137.333 281.5,138.5C 292.034,131.119 303.701,128.619 316.5,131C 325.881,133.4 334.048,137.9 341,144.5C 364.16,139.001 381.66,146.501 393.5,167C 410.897,166.117 424.73,172.617 435,186.5C 436.741,189.309 437.908,192.309 438.5,195.5C 455.107,194.949 467.941,201.615 477,215.5C 480.201,221.102 482.201,227.102 483,233.5C 497.338,239.997 506.838,250.663 511.5,265.5 Z"/></g>
<g><path style="opacity:1" fill="#fc8e8c" d="M 198.5,150.5 C 209.19,149.677 217.857,153.51 224.5,162C 231.454,164.53 236.787,162.53 240.5,156C 254.237,147.131 266.237,149.131 276.5,162C 279.833,164 283.167,164 286.5,162C 297.585,148.475 310.085,146.975 324,157.5C 328.808,169.16 336.308,171.326 346.5,164C 363.932,160.811 374.432,167.977 378,185.5C 380,188.167 382.667,189.5 386,189.5C 406.095,183.872 418.095,191.205 422,211.5C 423.8,215.235 426.8,216.902 431,216.5C 445.503,213.102 455.836,218.102 462,231.5C 462.148,237.249 462.814,242.915 464,248.5C 465.214,250.049 466.714,251.215 468.5,252C 486.526,255.244 493.693,265.744 490,283.5C 487.192,290.661 482.026,295.161 474.5,297C 327.111,297.995 179.778,297.662 32.5,296C 18.7918,287.204 15.9584,275.704 24,261.5C 28.7215,255.556 34.8882,252.389 42.5,252C 44.286,251.215 45.786,250.049 47,248.5C 48.1856,242.915 48.8522,237.249 49,231.5C 55.1314,217.935 65.4647,212.935 80,216.5C 82.2998,216.506 84.4664,216.006 86.5,215C 89.0758,208.415 91.9092,201.915 95,195.5C 103.49,187.244 113.323,185.244 124.5,189.5C 128.035,189.649 130.868,188.316 133,185.5C 138.817,163.794 151.65,157.961 171.5,168C 175.896,169.136 179.562,167.969 182.5,164.5C 185.868,157.498 191.202,152.831 198.5,150.5 Z"/></g>
<g><path style="opacity:1" fill="#040201" d="M 183.5,188.5 C 197.722,186.843 209.222,191.51 218,202.5C 218.984,212.515 214.484,216.682 204.5,215C 197.235,207.674 189.235,206.674 180.5,212C 169.333,214.167 164.833,209.667 167,198.5C 171.69,193.742 177.19,190.409 183.5,188.5 Z"/></g>
<g><path style="opacity:1" fill="#070403" d="M 306.5,190.5 C 312.173,189.839 317.506,190.672 322.5,193C 327.256,200.501 325.59,206.167 317.5,210C 312.648,209.807 308.315,211.14 304.5,214C 301.29,218.756 298.623,223.756 296.5,229C 290.163,232.933 284.997,231.766 281,225.5C 279.985,214.358 283.818,205.191 292.5,198C 297.101,195.202 301.768,192.702 306.5,190.5 Z"/></g>
<g><path style="opacity:1" fill="#040202" d="M 107.5,231.5 C 120.441,229.928 125.274,235.261 122,247.5C 121.167,248.333 120.333,249.167 119.5,250C 107.157,250.348 99.6571,256.514 97,268.5C 93.1457,272.671 88.6457,273.504 83.5,271C 79.6951,266.909 78.5284,262.076 80,256.5C 85.273,243.72 94.4396,235.387 107.5,231.5 Z"/></g>
<g><path style="opacity:1" fill="#030101" d="M 369.5,231.5 C 386.313,232.805 397.48,241.472 403,257.5C 403.667,261.833 403.667,266.167 403,270.5C 399.608,276.467 394.774,277.967 388.5,275C 386.951,273.786 385.785,272.286 385,270.5C 384.598,259.094 378.765,252.26 367.5,250C 363.797,246.604 362.631,242.437 364,237.5C 365.36,234.977 367.193,232.977 369.5,231.5 Z"/></g>
<g><path style="opacity:1" fill="#050202" d="M 239.5,233.5 C 248.822,233.652 252.989,238.319 252,247.5C 245.453,267.344 231.953,275.844 211.5,273C 205.342,265.767 206.342,259.767 214.5,255C 225.562,254.94 232.062,249.44 234,238.5C 235.73,236.598 237.563,234.931 239.5,233.5 Z"/></g>
<g><path style="opacity:1" fill="#85a1a9" d="M 489.5,320.5 C 411.836,319.167 333.836,318.5 255.5,318.5C 177.164,318.5 99.1638,319.167 21.5,320.5C 20.596,319.791 20.2627,318.791 20.5,317.5C 177.167,317.5 333.833,317.5 490.5,317.5C 490.737,318.791 490.404,319.791 489.5,320.5 Z"/></g>
<g><path style="opacity:1" fill="#c8f2fe" d="M 489.5,320.5 C 484.425,340.742 471.759,353.575 451.5,359C 434.868,360.224 418.201,360.891 401.5,361C 398.044,363.44 395.711,366.607 394.5,370.5C 388.167,370.5 381.833,370.5 375.5,370.5C 375.027,363.75 371.36,360.416 364.5,360.5C 358.932,361.662 355.599,364.995 354.5,370.5C 348.167,370.5 341.833,370.5 335.5,370.5C 335.284,365.219 332.617,362.053 327.5,361C 239.5,360.667 151.5,360.333 63.5,360C 57.5368,358.852 51.8701,356.852 46.5,354C 33.3975,346.397 25.0642,335.23 21.5,320.5C 99.1638,319.167 177.164,318.5 255.5,318.5C 333.836,318.5 411.836,319.167 489.5,320.5 Z"/></g>
<g><path style="opacity:0.948" fill="#040405" d="M 375.5,370.5 C 375.149,377.016 371.649,380.349 365,380.5C 358.765,380.1 355.265,376.767 354.5,370.5C 355.599,364.995 358.932,361.662 364.5,360.5C 371.36,360.416 375.027,363.75 375.5,370.5 Z"/></g>
</svg>
