<?xml version="1.0" encoding="UTF-8"?>
<!DOCTYPE svg PUBLIC "-//W3C//DTD SVG 1.1//EN" "http://www.w3.org/Graphics/SVG/1.1/DTD/svg11.dtd">
<svg xmlns="http://www.w3.org/2000/svg" version="1.1" width="512px" height="512px" style="shape-rendering:geometricPrecision; text-rendering:geometricPrecision; image-rendering:optimizeQuality; fill-rule:evenodd; clip-rule:evenodd" xmlns:xlink="http://www.w3.org/1999/xlink">
<g><path style="opacity:0.975" fill="#030101" d="M 178.5,-0.5 C 187.833,-0.5 197.167,-0.5 206.5,-0.5C 255.098,8.96662 298.431,29.4666 336.5,61C 345.864,70.0297 354.864,79.363 363.5,89C 398.82,86.7469 431.82,94.4136 462.5,112C 493.002,133.166 509.336,162.333 511.5,199.5C 511.5,200.167 511.5,200.833 511.5,201.5C 510.394,216.304 505.061,229.47 495.5,241C 484.502,249.889 471.836,254.222 457.5,254C 456.069,254.465 454.903,255.299 454,256.5C 445.062,274.372 438.395,293.039 434,312.5C 433.667,327.5 433.333,342.5 433,357.5C 431.59,360.789 429.09,362.456 425.5,362.5C 422.042,361.892 419.542,359.892 418,356.5C 415.31,330.894 417.81,305.894 425.5,281.5C 421.19,280.92 416.857,280.586 412.5,280.5C 392.559,278.803 373.225,281.97 354.5,290C 330.469,301.004 308.469,315.004 288.5,332C 278.631,341.768 269.964,352.435 262.5,364C 267.931,383.606 268.931,403.439 265.5,423.5C 295.23,417.469 321.23,404.302 343.5,384C 350.954,375.724 358.621,367.724 366.5,360C 373.701,358.267 378.701,360.767 381.5,367.5C 381.5,385.167 381.5,402.833 381.5,420.5C 384.059,420.802 386.393,420.468 388.5,419.5C 390.861,419.326 393.194,418.993 395.5,418.5C 403.062,416.924 410.228,414.257 417,410.5C 417.333,402.833 417.667,395.167 418,387.5C 419.707,384.41 422.207,382.41 425.5,381.5C 429.324,381.979 431.824,383.979 433,387.5C 433.333,409.167 433.667,430.833 434,452.5C 437.041,457.082 441.208,460.249 446.5,462C 460.348,473.195 464.182,487.028 458,503.5C 455.06,507.037 451.56,509.703 447.5,511.5C 426.5,511.5 405.5,511.5 384.5,511.5C 374.899,507.725 369.065,500.725 367,490.5C 366.667,454.833 366.333,419.167 366,383.5C 333.053,418.39 292.553,438.556 244.5,444C 238.892,447.276 233.558,450.943 228.5,455C 245.5,455.333 262.5,455.667 279.5,456C 298.129,458.797 307.796,469.631 308.5,488.5C 308.726,499.249 304.059,506.916 294.5,511.5C 236.833,511.5 179.167,511.5 121.5,511.5C 101.966,505.123 91.633,491.623 90.5,471C 59.0884,483.083 34.5884,474.583 17,445.5C 6.00009,422.645 0.166753,398.645 -0.5,373.5C -0.5,372.833 -0.5,372.167 -0.5,371.5C 2.21284,361.298 8.87951,357.465 19.5,360C 25.927,361.531 32.2603,363.365 38.5,365.5C 36.2776,309.647 54.9443,262.147 94.5,223C 121.174,200.213 152.174,188.213 187.5,187C 221.167,186.667 254.833,186.333 288.5,186C 298.879,182.949 304.546,175.949 305.5,165C 305.167,164.167 304.833,163.333 304.5,162.5C 279.194,150.344 252.527,143.177 224.5,141C 201.5,140.667 178.5,140.333 155.5,140C 135.597,138.429 123.43,127.929 119,108.5C 115.854,88.7287 121.187,71.7287 135,57.5C 134.713,26.6698 149.213,7.33646 178.5,-0.5 Z"/></g>
<g><path style="opacity:1" fill="#fb4e77" d="M 181.5,14.5 C 195.705,14.1457 209.705,15.6457 223.5,19C 271.087,32.1122 311.753,56.4456 345.5,92C 339.657,92.862 333.991,94.362 328.5,96.5C 284.098,64.9753 234.598,47.6419 180,44.5C 170.342,44.8112 160.842,46.1446 151.5,48.5C 153.416,29.9227 163.416,18.5894 181.5,14.5 Z"/></g>
<g><path style="opacity:1" fill="#fd668c" d="M 406.5,107.5 C 452.704,127.581 474.538,162.914 472,213.5C 469.09,222.994 463.923,230.994 456.5,237.5C 452.299,239.018 448.299,241.018 444.5,243.5C 426.77,241.174 415.77,248.507 411.5,265.5C 380.692,264.026 352.192,271.359 326,287.5C 310.398,260.191 299.231,231.191 292.5,200.5C 307.58,195.918 317.08,185.918 321,170.5C 327.295,172.771 330.795,170.605 331.5,164C 331.604,161.855 330.937,160.021 329.5,158.5C 295.054,138.963 258.054,127.796 218.5,125C 195.104,124.97 171.77,124.303 148.5,123C 141.599,120.432 137.099,115.598 135,108.5C 130.173,82.9798 140.339,67.1465 165.5,61C 194.399,57.4613 222.399,61.128 249.5,72C 283.305,83.528 313.305,101.195 339.5,125C 347.5,133.667 355.5,142.333 363.5,151C 372.567,151.938 375.734,148.105 373,139.5C 363.869,128.035 353.702,117.535 342.5,108C 363.834,103.573 385.168,103.406 406.5,107.5 Z"/></g>
<g><path style="opacity:1" fill="#fc4f77" d="M 406.5,107.5 C 446.254,112.935 474.087,133.935 490,170.5C 496.714,187.111 497.047,203.778 491,220.5C 483.211,233.478 471.711,239.144 456.5,237.5C 463.923,230.994 469.09,222.994 472,213.5C 474.538,162.914 452.704,127.581 406.5,107.5 Z"/></g>
<g><path style="opacity:1" fill="#fd668c" d="M 181.5,202.5 C 213.5,202.5 245.5,202.5 277.5,202.5C 284.824,234.803 296.49,265.469 312.5,294.5C 291.309,308.689 272.643,325.689 256.5,345.5C 239.862,311.692 215.362,285.025 183,265.5C 180.641,245.203 176.807,225.203 171.5,205.5C 174.759,204.02 178.092,203.02 181.5,202.5 Z"/></g>
<g><path style="opacity:1" fill="#fd668c" d="M 153.5,208.5 C 154.833,208.5 156.167,208.5 157.5,208.5C 171.84,264.27 174.34,320.604 165,377.5C 164.667,378.167 164.333,378.833 164,379.5C 154.793,367.293 143.96,356.793 131.5,348C 125.093,345.204 121.093,347.204 119.5,354C 119.625,355.627 120.125,357.127 121,358.5C 154.584,383.826 174.584,417.493 181,459.5C 183.09,471.743 183.924,484.077 183.5,496.5C 163.831,496.667 144.164,496.5 124.5,496C 110.793,490.104 104.626,479.604 106,464.5C 104.885,460.271 103.219,456.271 101,452.5C 91.6102,442.045 82.9436,431.045 75,419.5C 59.7061,394.324 52.8728,366.991 54.5,337.5C 68.5352,338.339 82.2018,341.006 95.5,345.5C 102.649,344.203 104.815,340.203 102,333.5C 100.2,331.683 98.0336,330.516 95.5,330C 82.7652,326.02 69.7652,323.52 56.5,322.5C 63.7712,280.113 85.4379,247.28 121.5,224C 131.86,217.985 142.527,212.818 153.5,208.5 Z"/></g>
<g><path style="opacity:1" fill="#fa4f77" d="M 444.5,243.5 C 439.208,250.415 435.208,258.082 432.5,266.5C 431.833,266.833 431.167,267.167 430.5,267.5C 424.226,266.257 417.893,265.591 411.5,265.5C 415.77,248.507 426.77,241.174 444.5,243.5 Z"/></g>
<g><path style="opacity:1" fill="#fd668c" d="M 412.5,280.5 C 409.753,280.187 407.086,280.52 404.5,281.5C 401.14,288.551 398.64,295.884 397,303.5C 395.564,341.81 395.064,380.143 395.5,418.5C 393.194,418.993 390.861,419.326 388.5,419.5C 386.5,419.5 384.5,419.5 382.5,419.5C 382.83,401.992 382.497,384.659 381.5,367.5C 378.701,360.767 373.701,358.267 366.5,360C 358.621,367.724 350.954,375.724 343.5,384C 321.23,404.302 295.23,417.469 265.5,423.5C 268.931,403.439 267.931,383.606 262.5,364C 269.964,352.435 278.631,341.768 288.5,332C 308.469,315.004 330.469,301.004 354.5,290C 373.225,281.97 392.559,278.803 412.5,280.5 Z"/></g>
<g><path style="opacity:1" fill="#fe4f78" d="M 412.5,280.5 C 416.857,280.586 421.19,280.92 425.5,281.5C 417.81,305.894 415.31,330.894 418,356.5C 419.542,359.892 422.042,361.892 425.5,362.5C 425.5,368.833 425.5,375.167 425.5,381.5C 422.207,382.41 419.707,384.41 418,387.5C 417.667,395.167 417.333,402.833 417,410.5C 410.228,414.257 403.062,416.924 395.5,418.5C 395.064,380.143 395.564,341.81 397,303.5C 398.64,295.884 401.14,288.551 404.5,281.5C 407.086,280.52 409.753,280.187 412.5,280.5 Z"/></g>
<g><path style="opacity:1" fill="#fd668b" d="M 185.5,285.5 C 222.187,309.524 244.354,343.191 252,386.5C 253.068,400.299 252.235,413.965 249.5,427.5C 243.822,427.753 238.489,429.253 233.5,432C 226.989,436.423 220.655,441.089 214.5,446C 208.043,451.528 206.876,458.028 211,465.5C 212.938,468.106 215.438,469.939 218.5,471C 239.833,471.333 261.167,471.667 282.5,472C 292.096,476.593 295.263,484.093 292,494.5C 291.25,495.126 290.416,495.626 289.5,496C 259.168,496.5 228.835,496.667 198.5,496.5C 199.09,462.03 191.756,429.364 176.5,398.5C 183.978,361.194 186.978,323.527 185.5,285.5 Z"/></g>
<g><path style="opacity:1" fill="#fb4e77" d="M 15.5,375.5 C 24.9958,377.554 34.3291,380.22 43.5,383.5C 50.8682,411.085 64.5349,434.918 84.5,455C 71.0334,463.84 57.7001,463.507 44.5,454C 31.5493,441.943 23.3827,427.109 20,409.5C 17.2223,398.334 15.7223,387 15.5,375.5 Z"/></g>
<g><path style="opacity:1" fill="#431b25" d="M 381.5,367.5 C 382.497,384.659 382.83,401.992 382.5,419.5C 384.5,419.5 386.5,419.5 388.5,419.5C 386.393,420.468 384.059,420.802 381.5,420.5C 381.5,402.833 381.5,385.167 381.5,367.5 Z"/></g>
<g><path style="opacity:1" fill="#fc4f78" d="M 422.5,496.5 C 424.541,486.057 421.541,477.224 413.5,470C 409.5,467.667 405.5,465.333 401.5,463C 399.044,460.592 397.211,457.759 396,454.5C 395.5,447.508 395.334,440.508 395.5,433.5C 402.704,432.282 409.704,430.282 416.5,427.5C 417.332,436.148 417.832,444.814 418,453.5C 420.971,463.807 427.471,470.974 437.5,475C 445.041,480.603 447.041,487.603 443.5,496C 436.508,496.5 429.508,496.666 422.5,496.5 Z"/></g>
<g><path style="opacity:1" fill="#fe668c" d="M 395.5,433.5 C 395.334,440.508 395.5,447.508 396,454.5C 397.211,457.759 399.044,460.592 401.5,463C 405.5,465.333 409.5,467.667 413.5,470C 421.541,477.224 424.541,486.057 422.5,496.5C 411.162,496.667 399.828,496.5 388.5,496C 386.714,495.215 385.214,494.049 384,492.5C 382.525,473.593 382.025,454.593 382.5,435.5C 386.894,435.156 391.228,434.49 395.5,433.5 Z"/></g>
</svg>
