<?xml version="1.0" encoding="UTF-8"?>
<!DOCTYPE svg PUBLIC "-//W3C//DTD SVG 1.1//EN" "http://www.w3.org/Graphics/SVG/1.1/DTD/svg11.dtd">
<svg xmlns="http://www.w3.org/2000/svg" version="1.1" width="512px" height="512px" style="shape-rendering:geometricPrecision; text-rendering:geometricPrecision; image-rendering:optimizeQuality; fill-rule:evenodd; clip-rule:evenodd" xmlns:xlink="http://www.w3.org/1999/xlink">
<g><path style="opacity:0.978" fill="#2d2c2b" d="M 239.5,19.5 C 270.849,18.4244 295.349,30.7578 313,56.5C 318.333,65.1667 323.667,73.8333 329,82.5C 333.333,88.1667 338.333,93.1667 344,97.5C 344.667,99.5 344.667,101.5 344,103.5C 319.39,126.703 290.224,136.537 256.5,133C 237.801,128.406 222.968,118.239 212,102.5C 206.147,89.648 197.147,79.648 185,72.5C 178.761,77.2882 174.761,83.6215 173,91.5C 170.489,101.732 169.989,112.065 171.5,122.5C 182.209,120.094 191.876,122.261 200.5,129C 207.135,136.636 214.135,143.97 221.5,151C 233.956,160.454 246.123,170.288 258,180.5C 268.233,192.629 277.233,205.629 285,219.5C 307.719,208.427 330.219,208.927 352.5,221C 356.092,223.713 359.592,226.547 363,229.5C 378.162,220.525 394.328,218.359 411.5,223C 465.388,235.899 494.554,270.065 499,325.5C 501.723,361.614 493.056,394.614 473,424.5C 469.201,429.301 465.034,433.801 460.5,438C 450.5,444.333 440.5,450.667 430.5,457C 422.486,465.679 413.82,473.679 404.5,481C 385.523,491.853 365.523,494.187 344.5,488C 338.097,484.898 332.597,480.731 328,475.5C 298.655,488.94 274.988,482.273 257,455.5C 252.286,444.936 248.952,433.936 247,422.5C 243.114,413.06 238.447,404.06 233,395.5C 228,402.5 223,409.5 218,416.5C 206.124,429.682 191.624,434.182 174.5,430C 180.105,434.808 179.605,438.641 173,441.5C 170.679,441.091 168.513,440.257 166.5,439C 164.667,436.5 162.833,434 161,431.5C 160.667,435.5 160.333,439.5 160,443.5C 157.163,448.329 153.829,448.663 150,444.5C 149.831,438.141 149.331,431.807 148.5,425.5C 146.234,429.851 143.567,434.018 140.5,438C 137.37,440.898 133.703,442.732 129.5,443.5C 125.926,443.425 124.259,441.592 124.5,438C 124.667,436.833 124.833,435.667 125,434.5C 126.918,433.458 128.751,432.292 130.5,431C 114.393,433.517 101.226,428.35 91,415.5C 87.3333,410.167 83.6667,404.833 80,399.5C 68.3625,388.863 57.0292,377.863 46,366.5C 7.39734,319.081 1.39734,267.747 28,212.5C 35.9304,199.156 45.4304,186.989 56.5,176C 75.5641,161.959 93.2308,146.292 109.5,129C 116.494,123.416 124.494,120.916 133.5,121.5C 131.704,100.85 135.204,81.1828 144,62.5C 147.399,56.4325 151.565,50.9325 156.5,46C 164.39,41.5103 172.39,41.3436 180.5,45.5C 197.917,31.6226 217.584,22.9559 239.5,19.5 Z"/></g>
<g><path style="opacity:1" fill="#a3d384" d="M 235.5,30.5 C 239.182,30.3347 242.848,30.5014 246.5,31C 240.21,34.9564 234.876,39.9564 230.5,46C 215.411,46.5529 201.078,50.0529 187.5,56.5C 187.167,56.1667 186.833,55.8333 186.5,55.5C 200.533,42.6503 216.866,34.3169 235.5,30.5 Z"/></g>
<g><path style="opacity:1" fill="#a5d586" d="M 259.5,35.5 C 271.015,33.9256 280.682,37.4256 288.5,46C 279.18,46.3951 270.347,48.5618 262,52.5C 255.707,49.9681 249.207,48.1348 242.5,47C 247.273,41.7073 252.939,37.8739 259.5,35.5 Z"/></g>
<g><path style="opacity:1" fill="#6b4f45" d="M 165.5,52.5 C 173.545,52.0476 177.378,55.7143 177,63.5C 167.008,74.1569 161.341,86.8235 160,101.5C 159.536,110.192 159.536,118.858 160,127.5C 158.045,128.453 156.378,129.787 155,131.5C 152.234,128.907 149.067,126.907 145.5,125.5C 141.881,104.827 144.714,85.1599 154,66.5C 157.35,61.3283 161.183,56.6616 165.5,52.5 Z"/></g>
<g><path style="opacity:1" fill="#a6d786" d="M 220.5,56.5 C 237.743,54.498 253.577,58.1647 268,67.5C 271.416,79.577 273.083,91.9103 273,104.5C 274.707,111.584 278.207,117.584 283.5,122.5C 275.572,124.994 267.572,125.16 259.5,123C 247.568,112.983 240.402,100.15 238,84.5C 237.667,79.1667 237.333,73.8333 237,68.5C 234.294,65.0221 231.294,64.6888 228,67.5C 226.504,83.3469 229.671,98.1802 237.5,112C 236.833,112.667 236.167,112.667 235.5,112C 225.093,102.601 216.593,91.7675 210,79.5C 205.093,73.922 199.593,69.0887 193.5,65C 202.246,61.0689 211.246,58.2355 220.5,56.5 Z"/></g>
<g><path style="opacity:1" fill="#a4d585" d="M 281.5,56.5 C 288.856,55.7676 295.856,56.9343 302.5,60C 309.167,70.3333 315.833,80.6667 322.5,91C 304.17,83.6504 287.836,72.9838 273.5,59C 276.251,58.0572 278.917,57.2239 281.5,56.5 Z"/></g>
<g><path style="opacity:1" fill="#a5d686" d="M 281.5,79.5 C 295.288,89.7304 310.288,97.8971 326.5,104C 317.188,111.16 306.855,115.827 295.5,118C 287.553,114.381 283.053,108.214 282,99.5C 281.5,92.8417 281.334,86.175 281.5,79.5 Z"/></g>
<g><path style="opacity:1" fill="#fecf65" d="M 260.5,201.5 C 225.474,220.815 202.307,249.815 191,288.5C 186.296,305.907 182.963,323.574 181,341.5C 171.028,371.674 150.028,386.674 118,386.5C 101.335,386.208 85.5018,382.541 70.5,375.5C 23.2766,333.659 11.1099,283.326 34,224.5C 47.9255,198.905 67.0921,178.072 91.5,162C 100.833,154 109.5,145.333 117.5,136C 131.44,129.162 143.107,131.829 152.5,144C 154.167,144.667 155.833,144.667 157.5,144C 164.369,134.237 173.702,130.571 185.5,133C 188.952,133.892 191.952,135.558 194.5,138C 208.246,153.525 223.579,167.191 240.5,179C 248.117,185.776 254.784,193.276 260.5,201.5 Z"/></g>
<g><path style="opacity:1" fill="#fff6df" d="M 185.5,170.5 C 202.491,169.459 210.324,177.459 209,194.5C 202.272,206.532 193.105,208.698 181.5,201C 174.656,193.044 173.822,184.544 179,175.5C 180.965,173.45 183.132,171.783 185.5,170.5 Z"/></g>
<g><path style="opacity:1" fill="#ed9f3f" d="M 89.5,200.5 C 94.8351,200.005 97.3351,202.338 97,207.5C 95.2912,210.418 93.4579,213.252 91.5,216C 88.9699,217.422 86.3033,217.755 83.5,217C 81.9644,215.401 81.4644,213.567 82,211.5C 85.0045,208.151 87.5045,204.484 89.5,200.5 Z"/></g>
<g><path style="opacity:1" fill="#eb9c3e" d="M 260.5,201.5 C 265.834,208.856 270.834,216.523 275.5,224.5C 227.684,255.482 208.851,299.148 219,355.5C 220.97,365.41 224.137,374.91 228.5,384C 220.605,395.235 211.938,405.902 202.5,416C 195.458,421.011 187.792,422.345 179.5,420C 182.295,418.207 184.795,416.04 187,413.5C 187.667,407.839 185.167,405.672 179.5,407C 176.516,409.826 173.183,412.159 169.5,414C 159.807,415.795 150.141,415.795 140.5,414C 135.697,411.853 131.197,409.353 127,406.5C 122.949,407.208 121.282,409.541 122,413.5C 124.22,416.021 126.72,418.188 129.5,420C 120.206,422.353 111.873,420.353 104.5,414C 98.152,407.464 92.652,400.297 88,392.5C 82.2714,386.603 76.4381,380.936 70.5,375.5C 85.5018,382.541 101.335,386.208 118,386.5C 150.028,386.674 171.028,371.674 181,341.5C 182.963,323.574 186.296,305.907 191,288.5C 202.307,249.815 225.474,220.815 260.5,201.5 Z"/></g>
<g><path style="opacity:1" fill="#fde8c4" d="M 349.5,232.5 C 346.807,240.909 345.807,249.575 346.5,258.5C 346.334,264.176 346.501,269.843 347,275.5C 350.472,278.418 353.472,278.085 356,274.5C 357.345,237.071 375.845,224.238 411.5,236C 431.789,244.956 445.955,259.789 454,280.5C 466.942,317.976 464.942,354.643 448,390.5C 445.394,395.435 442.394,400.102 439,404.5C 430.054,413.446 421.054,422.446 412,431.5C 403.026,446.478 391.86,459.645 378.5,471C 361.222,484.276 346.388,482.11 334,464.5C 327.699,446.09 329.699,428.756 340,412.5C 355.278,374.62 359.611,335.62 353,295.5C 351.274,294.424 349.441,294.257 347.5,295C 332.199,318.905 323.699,345.072 322,373.5C 321.807,391.17 321.807,408.837 322,426.5C 318.802,435.23 314.802,443.563 310,451.5C 305.979,457.859 300.479,462.359 293.5,465C 285.785,466.864 279.118,465.031 273.5,459.5C 269.591,455.353 266.424,450.686 264,445.5C 261.484,436.568 259.15,427.568 257,418.5C 251.857,407.548 246.191,396.881 240,386.5C 225.238,355.46 222.571,323.46 232,290.5C 246.238,254.598 272.071,231.764 309.5,222C 324.374,220.217 337.707,223.717 349.5,232.5 Z"/></g>
<g><path style="opacity:1" fill="#ed9f3f" d="M 96.5,230.5 C 103.03,230.243 105.197,233.243 103,239.5C 101.27,244.064 98.1035,247.064 93.5,248.5C 90.8333,247.833 89.1667,246.167 88.5,243.5C 91.1568,239.173 93.8235,234.84 96.5,230.5 Z"/></g>
<g><path style="opacity:1" fill="#e4b195" d="M 349.5,232.5 C 352.293,233.459 354.293,235.293 355.5,238C 351.493,244.503 348.493,251.336 346.5,258.5C 345.807,249.575 346.807,240.909 349.5,232.5 Z"/></g>
<g><path style="opacity:1" fill="#ed9e3f" d="M 65.5,234.5 C 69.5617,234.012 71.895,235.678 72.5,239.5C 71.3807,245.61 68.0474,249.943 62.5,252.5C 59.8333,251.833 58.1667,250.167 57.5,247.5C 60.1568,243.173 62.8235,238.84 65.5,234.5 Z"/></g>
<g><path style="opacity:1" fill="#facc64" d="M 480.5,388.5 C 472.024,394.738 462.69,399.405 452.5,402.5C 470.651,369.653 476.485,334.653 470,297.5C 466.192,279.05 458.026,262.884 445.5,249C 460.344,257.522 471.511,269.689 479,285.5C 487.921,308.695 490.921,332.695 488,357.5C 486.83,368.189 484.33,378.522 480.5,388.5 Z"/></g>
<g><path style="opacity:1" fill="#2e2d2c" d="M 280.5,313.5 C 291.945,312.634 300.112,317.301 305,327.5C 305.368,343.593 306.035,359.593 307,375.5C 300.54,388.975 290.373,392.808 276.5,387C 260.764,372.105 256.264,354.272 263,333.5C 266.237,324.438 272.07,317.771 280.5,313.5 Z"/></g>
<g><path style="opacity:1" fill="#e3b094" d="M 345.5,318.5 C 347.401,348.347 342.901,377.347 332,405.5C 329.414,375.322 333.914,346.322 345.5,318.5 Z"/></g>
<g><path style="opacity:1" fill="#d76565" d="M 295.5,342.5 C 287.842,344.368 280.509,343.534 273.5,340C 272.748,339.329 272.414,338.496 272.5,337.5C 274.498,332.003 277.831,327.503 282.5,324C 287.952,322.977 292.119,324.81 295,329.5C 295.499,333.821 295.666,338.154 295.5,342.5 Z"/></g>
<g><path style="opacity:1" fill="#2e2d2d" d="M 389.5,325.5 C 397.81,324.406 404.643,327.072 410,333.5C 419.52,349.514 419.853,365.848 411,382.5C 406.368,390.468 399.868,396.301 391.5,400C 373,401.5 364.5,393 366,374.5C 371.139,362.678 374.473,350.345 376,337.5C 378.85,331.514 383.35,327.514 389.5,325.5 Z"/></g>
<g><path style="opacity:1" fill="#d76565" d="M 407.5,355.5 C 399.586,356.056 391.92,355.056 384.5,352.5C 384.5,351.167 384.5,349.833 384.5,348.5C 383.77,339.063 388.104,334.896 397.5,336C 404.125,340.748 407.458,347.248 407.5,355.5 Z"/></g>
<g><path style="opacity:1" fill="#973636" d="M 272.5,337.5 C 272.414,338.496 272.748,339.329 273.5,340C 280.509,343.534 287.842,344.368 295.5,342.5C 295.5,347.167 295.5,351.833 295.5,356.5C 287.003,356.774 279.67,359.774 273.5,365.5C 268.775,356.277 268.442,346.944 272.5,337.5 Z"/></g>
<g><path style="opacity:1" fill="#983636" d="M 384.5,348.5 C 384.5,349.833 384.5,351.167 384.5,352.5C 391.92,355.056 399.586,356.056 407.5,355.5C 407.831,365.168 405.164,373.835 399.5,381.5C 399.649,380.448 399.483,379.448 399,378.5C 393.64,372.988 387.14,369.655 379.5,368.5C 381.183,361.724 382.85,355.057 384.5,348.5 Z"/></g>
<g><path style="opacity:1" fill="#d66565" d="M 295.5,356.5 C 297.368,361.911 297.868,367.577 297,373.5C 293.63,379.443 288.796,381.276 282.5,379C 277.85,375.514 274.85,371.014 273.5,365.5C 279.67,359.774 287.003,356.774 295.5,356.5 Z"/></g>
<g><path style="opacity:1" fill="#d66565" d="M 379.5,368.5 C 387.14,369.655 393.64,372.988 399,378.5C 399.483,379.448 399.649,380.448 399.5,381.5C 395.733,387.542 390.399,390.709 383.5,391C 378.398,389.138 375.732,385.472 375.5,380C 376.361,375.913 377.694,372.08 379.5,368.5 Z"/></g>
<g><path style="opacity:1" fill="#e89a3d" d="M 480.5,388.5 C 474.129,406.404 463.462,421.237 448.5,433C 432.088,441.706 417.755,453.039 405.5,467C 402.443,469.723 399.11,472.056 395.5,474C 392.702,475.914 389.702,476.914 386.5,477C 391.301,473.201 395.801,469.034 400,464.5C 407.052,455.782 413.719,446.782 420,437.5C 427.697,429.469 435.697,421.802 444,414.5C 446.696,410.32 449.53,406.32 452.5,402.5C 462.69,399.405 472.024,394.738 480.5,388.5 Z"/></g>
<g><path style="opacity:1" fill="#e3973d" d="M 320.5,452.5 C 321.863,456.632 322.863,460.965 323.5,465.5C 318.343,467.611 313.009,468.778 307.5,469C 313.168,464.468 317.501,458.968 320.5,452.5 Z"/></g>
</svg>
