<?xml version="1.0" encoding="UTF-8"?>
<!DOCTYPE svg PUBLIC "-//W3C//DTD SVG 1.1//EN" "http://www.w3.org/Graphics/SVG/1.1/DTD/svg11.dtd">
<svg xmlns="http://www.w3.org/2000/svg" version="1.1" width="512px" height="512px" style="shape-rendering:geometricPrecision; text-rendering:geometricPrecision; image-rendering:optimizeQuality; fill-rule:evenodd; clip-rule:evenodd" xmlns:xlink="http://www.w3.org/1999/xlink">
<g><path style="opacity:0.99" fill="#010000" d="M 75.5,87.5 C 195.5,87.3333 315.5,87.5 435.5,88C 468,95.1667 487.833,115 495,147.5C 495.667,209.5 495.667,271.5 495,333.5C 488.974,371.189 468.807,398.356 434.5,415C 425.225,419.069 415.558,421.736 405.5,423C 363.833,423.667 322.167,423.667 280.5,423C 269.161,421 258.828,416.667 249.5,410C 239.525,400.357 229.858,390.357 220.5,380C 210.454,372.429 199.121,368.429 186.5,368C 169.5,367.667 152.5,367.333 135.5,367C 77.0165,357.511 38.5165,324.678 20,268.5C 18.2368,261.921 16.9034,255.254 16,248.5C 15.3333,214.833 15.3333,181.167 16,147.5C 23.3473,114.986 43.1807,94.9864 75.5,87.5 Z"/></g>
<g><path style="opacity:1" fill="#ea413e" d="M 78.5,103.5 C 126.833,103.5 175.167,103.5 223.5,103.5C 223.667,118.837 223.5,134.17 223,149.5C 218.5,178 202,194.5 173.5,199C 126.501,199.5 79.5012,199.667 32.5,199.5C 31.4449,183.182 31.2782,166.849 32,150.5C 37.6807,124.987 53.1807,109.32 78.5,103.5 Z"/></g>
<g><path style="opacity:1" fill="#ea413e" d="M 239.5,103.5 C 292.833,103.5 346.167,103.5 399.5,103.5C 399.667,124.169 399.5,144.836 399,165.5C 394.5,194 378,210.5 349.5,215C 307.814,215.586 281.98,236.086 272,276.5C 271.667,302.833 271.333,329.167 271,355.5C 266.585,353.377 262.418,350.877 258.5,348C 250.167,339 241.833,330 233.5,321C 222.076,311.79 209.076,306.123 194.5,304C 173.134,303.918 151.801,303.251 130.5,302C 82.3224,291.317 50.9891,262.484 36.5,215.5C 82.8345,215.667 129.168,215.5 175.5,215C 211.333,208.5 232.5,187.333 239,151.5C 239.5,135.503 239.667,119.503 239.5,103.5 Z"/></g>
<g><path style="opacity:1" fill="#ea413e" d="M 415.5,103.5 C 446.797,102.214 467.63,116.214 478,145.5C 479.641,190.796 479.974,236.129 479,281.5C 471.167,325.333 445.333,351.167 401.5,359C 363.501,359.5 325.501,359.667 287.5,359.5C 287.333,332.498 287.5,305.498 288,278.5C 296.514,246.01 317.68,230.177 351.5,231C 387.333,224.5 408.5,203.333 415,167.5C 415.5,146.169 415.667,124.836 415.5,103.5 Z"/></g>
<g><path style="opacity:1" fill="#c5302d" d="M 33.5,252.5 C 55.9821,287.935 87.9821,309.768 129.5,318C 150.467,319.25 171.467,319.916 192.5,320C 202.863,321.12 212.197,324.786 220.5,331C 227.407,337.236 233.573,344.069 239,351.5C 249.592,362.717 262.425,370.217 277.5,374C 298.965,375.132 320.465,375.632 342,375.5C 361.5,375.333 381,375.167 400.5,375C 433.306,371.492 459.139,356.326 478,329.5C 473.938,363.571 456.104,387.405 424.5,401C 417.33,403.626 409.997,405.626 402.5,407C 362.833,407.667 323.167,407.667 283.5,407C 274.304,405.234 265.971,401.567 258.5,396C 250.167,387 241.833,378 233.5,369C 222.076,359.79 209.076,354.123 194.5,352C 175.5,351.667 156.5,351.333 137.5,351C 90.2402,343.398 57.4069,317.564 39,273.5C 36.6944,266.61 34.861,259.61 33.5,252.5 Z"/></g>
</svg>
