<?xml version="1.0" encoding="UTF-8"?>
<!DOCTYPE svg PUBLIC "-//W3C//DTD SVG 1.1//EN" "http://www.w3.org/Graphics/SVG/1.1/DTD/svg11.dtd">
<svg xmlns="http://www.w3.org/2000/svg" version="1.1" width="512px" height="512px" style="shape-rendering:geometricPrecision; text-rendering:geometricPrecision; image-rendering:optimizeQuality; fill-rule:evenodd; clip-rule:evenodd" xmlns:xlink="http://www.w3.org/1999/xlink">
<g><path style="opacity:0.99" fill="#010000" d="M 75.5,87.5 C 195.5,87.3333 315.5,87.5 435.5,88C 468,95.1667 487.833,115 495,147.5C 495.667,209.5 495.667,271.5 495,333.5C 488.974,371.189 468.807,398.356 434.5,415C 425.225,419.069 415.558,421.736 405.5,423C 363.833,423.667 322.167,423.667 280.5,423C 269.161,421 258.828,416.667 249.5,410C 239.525,400.357 229.858,390.357 220.5,380C 210.454,372.429 199.121,368.429 186.5,368C 169.5,367.667 152.5,367.333 135.5,367C 77.0165,357.511 38.5165,324.678 20,268.5C 18.2368,261.921 16.9034,255.254 16,248.5C 15.3333,214.833 15.3333,181.167 16,147.5C 23.3473,114.986 43.1807,94.9864 75.5,87.5 Z"/></g>
<g><path style="opacity:1" fill="#fe4743" d="M 78.5,103.5 C 126.833,103.5 175.167,103.5 223.5,103.5C 223.667,119.17 223.5,134.837 223,150.5C 218.167,178 202,194.167 174.5,199C 127.168,199.5 79.8345,199.667 32.5,199.5C 31.4449,183.182 31.2782,166.849 32,150.5C 37.6807,124.987 53.1807,109.32 78.5,103.5 Z"/></g>
<g><path style="opacity:1" fill="#fe4743" d="M 239.5,103.5 C 292.833,103.5 346.167,103.5 399.5,103.5C 399.667,124.503 399.5,145.503 399,166.5C 394.89,189.272 382.057,204.772 360.5,213C 349.569,214.84 338.569,216.173 327.5,217C 296.813,226.019 278.313,246.186 272,277.5C 271.667,303.5 271.333,329.5 271,355.5C 266.585,353.377 262.418,350.877 258.5,348C 250.167,339 241.833,330 233.5,321C 222.076,311.79 209.076,306.123 194.5,304C 173.134,303.918 151.801,303.251 130.5,302C 82.3309,291.326 50.9976,262.493 36.5,215.5C 82.8345,215.667 129.168,215.5 175.5,215C 211.333,208.5 232.5,187.333 239,151.5C 239.5,135.503 239.667,119.503 239.5,103.5 Z"/></g>
<g><path style="opacity:1" fill="#fe4743" d="M 415.5,103.5 C 446.771,102.204 467.604,116.204 478,145.5C 479.641,190.796 479.974,236.129 479,281.5C 471.167,325.333 445.333,351.167 401.5,359C 363.501,359.5 325.501,359.667 287.5,359.5C 287.333,332.498 287.5,305.498 288,278.5C 296.514,246.01 317.68,230.177 351.5,231C 387.333,224.5 408.5,203.333 415,167.5C 415.5,146.169 415.667,124.836 415.5,103.5 Z"/></g>
<g><path style="opacity:1" fill="#de3633" d="M 33.5,252.5 C 57.2913,289.921 91.2913,312.088 135.5,319C 154.5,319.333 173.5,319.667 192.5,320C 202.725,321.517 212.059,325.184 220.5,331C 230.191,341.691 240.191,352.024 250.5,362C 258.431,367.535 267.098,371.535 276.5,374C 298.132,375.133 319.799,375.633 341.5,375.5C 363.861,375.621 386.194,375.121 408.5,374C 437.795,368.61 460.962,353.777 478,329.5C 475.174,357.317 462.007,378.817 438.5,394C 426.735,400.922 414.068,405.255 400.5,407C 361.5,407.667 322.5,407.667 283.5,407C 274.304,405.234 265.971,401.567 258.5,396C 250.167,387 241.833,378 233.5,369C 222.076,359.79 209.076,354.123 194.5,352C 175.5,351.667 156.5,351.333 137.5,351C 86.2199,342.614 52.3866,313.78 36,264.5C 34.9722,260.527 34.1389,256.527 33.5,252.5 Z"/></g>
</svg>
