<?xml version="1.0" encoding="UTF-8"?>
<!DOCTYPE svg PUBLIC "-//W3C//DTD SVG 1.1//EN" "http://www.w3.org/Graphics/SVG/1.1/DTD/svg11.dtd">
<svg xmlns="http://www.w3.org/2000/svg" version="1.1" width="512px" height="512px" style="shape-rendering:geometricPrecision; text-rendering:geometricPrecision; image-rendering:optimizeQuality; fill-rule:evenodd; clip-rule:evenodd" xmlns:xlink="http://www.w3.org/1999/xlink">
<g><path style="opacity:0.99" fill="#020000" d="M 75.5,87.5 C 195.5,87.3333 315.5,87.5 435.5,88C 468,95.1667 487.833,115 495,147.5C 495.667,209.5 495.667,271.5 495,333.5C 488.974,371.189 468.807,398.356 434.5,415C 425.225,419.069 415.558,421.736 405.5,423C 363.833,423.667 322.167,423.667 280.5,423C 269.161,421 258.828,416.667 249.5,410C 239.525,400.357 229.858,390.357 220.5,380C 210.454,372.429 199.121,368.429 186.5,368C 169.5,367.667 152.5,367.333 135.5,367C 77.0165,357.511 38.5165,324.678 20,268.5C 18.2368,261.921 16.9034,255.254 16,248.5C 15.3333,214.833 15.3333,181.167 16,147.5C 23.3473,114.986 43.1807,94.9864 75.5,87.5 Z"/></g>
<g><path style="opacity:1" fill="#fe6565" d="M 78.5,103.5 C 126.833,103.5 175.167,103.5 223.5,103.5C 223.667,119.17 223.5,134.837 223,150.5C 218.18,177.987 202.013,194.154 174.5,199C 127.168,199.5 79.8345,199.667 32.5,199.5C 31.4449,183.182 31.2782,166.849 32,150.5C 37.6807,124.987 53.1807,109.32 78.5,103.5 Z"/></g>
<g><path style="opacity:1" fill="#fe6565" d="M 239.5,103.5 C 292.833,103.5 346.167,103.5 399.5,103.5C 399.667,124.503 399.5,145.503 399,166.5C 394.18,193.987 378.013,210.154 350.5,215C 307.836,215.235 281.669,236.069 272,277.5C 271.667,303.5 271.333,329.5 271,355.5C 266.585,353.377 262.418,350.877 258.5,348C 250.167,339 241.833,330 233.5,321C 222.076,311.79 209.076,306.123 194.5,304C 173.134,303.918 151.801,303.251 130.5,302C 82.3224,291.317 50.9891,262.484 36.5,215.5C 82.8345,215.667 129.168,215.5 175.5,215C 211.333,208.5 232.5,187.333 239,151.5C 239.5,135.503 239.667,119.503 239.5,103.5 Z"/></g>
<g><path style="opacity:1" fill="#fe6565" d="M 415.5,103.5 C 446.791,102.212 467.625,116.212 478,145.5C 479.641,190.796 479.974,236.129 479,281.5C 471.167,325.333 445.333,351.167 401.5,359C 363.501,359.5 325.501,359.667 287.5,359.5C 287.333,332.498 287.5,305.498 288,278.5C 296.514,246.01 317.68,230.177 351.5,231C 387.333,224.5 408.5,203.333 415,167.5C 415.5,146.169 415.667,124.836 415.5,103.5 Z"/></g>
<g><path style="opacity:1" fill="#fb3d3a" d="M 33.5,252.5 C 57.3187,289.932 91.3187,312.098 135.5,319C 155.5,319.333 175.5,319.667 195.5,320C 204.968,322.402 213.634,326.402 221.5,332C 230.858,342.357 240.525,352.357 250.5,362C 259.61,368.441 269.61,372.774 280.5,375C 323.192,375.955 365.859,375.622 408.5,374C 437.854,368.587 461.021,353.754 478,329.5C 473.55,364.299 455.05,388.466 422.5,402C 415.379,404.614 408.046,406.28 400.5,407C 361.5,407.667 322.5,407.667 283.5,407C 274.304,405.234 265.971,401.567 258.5,396C 249.833,386.667 241.167,377.333 232.5,368C 221.192,359.343 208.525,354.01 194.5,352C 175.5,351.667 156.5,351.333 137.5,351C 81.2352,340.9 46.5685,308.067 33.5,252.5 Z"/></g>
</svg>
