<?xml version="1.0" encoding="UTF-8"?>
<!DOCTYPE svg PUBLIC "-//W3C//DTD SVG 1.1//EN" "http://www.w3.org/Graphics/SVG/1.1/DTD/svg11.dtd">
<svg xmlns="http://www.w3.org/2000/svg" version="1.1" width="512px" height="512px" style="shape-rendering:geometricPrecision; text-rendering:geometricPrecision; image-rendering:optimizeQuality; fill-rule:evenodd; clip-rule:evenodd" xmlns:xlink="http://www.w3.org/1999/xlink">
<g><path style="opacity:0.976" fill="#020101" d="M 511.5,175.5 C 511.5,185.5 511.5,195.5 511.5,205.5C 503.755,259.753 473.755,295.586 421.5,313C 401.007,319.52 380.007,322.687 358.5,322.5C 350.208,377.95 320.875,417.783 270.5,442C 195.917,474.465 124.917,468.132 57.5,423C 47.5271,414.799 38.6938,405.632 31,395.5C 30.2069,392.259 30.7069,389.259 32.5,386.5C 35.4686,385.671 38.4686,385.505 41.5,386C 44.886,388.263 47.7193,391.097 50,394.5C 64.9874,382.425 81.4874,373.092 99.5,366.5C 149.537,351.399 199.871,350.566 250.5,364C 272.459,369.978 292.126,380.144 309.5,394.5C 328.423,373.091 339.423,348.091 342.5,319.5C 305.863,314.433 275.03,298.433 250,271.5C 233.109,248.67 223.609,223.003 221.5,194.5C 218.5,193.833 215.5,193.167 212.5,192.5C 203.179,206.463 194.346,220.796 186,235.5C 181.291,239.769 176.958,239.436 173,234.5C 164.876,220.416 156.376,206.583 147.5,193C 138.594,193.539 129.927,195.039 121.5,197.5C 102.393,199.954 83.3928,203.121 64.5,207C 21.4509,237.448 5.95092,278.614 18,330.5C 21.0023,342.507 25.0023,354.174 30,365.5C 31.3376,370.04 30.1709,373.707 26.5,376.5C 19.7945,377.734 15.6278,375.067 14,368.5C 6.63854,351.045 1.80521,333.045 -0.5,314.5C -0.5,303.5 -0.5,292.5 -0.5,281.5C 6.00915,241.477 26.6758,210.977 61.5,190C 91.2021,174.431 121.202,159.431 151.5,145C 155.833,142 160.167,139 164.5,136C 167.934,131.81 171.6,127.81 175.5,124C 178.463,122.15 181.463,122.15 184.5,124C 195.768,137.813 209.768,147.979 226.5,154.5C 234.429,136.85 246.096,122.016 261.5,110C 271.836,103.163 282.503,96.8296 293.5,91C 311.108,83.1957 328.441,74.8624 345.5,66C 352.125,61.7093 357.791,56.376 362.5,50C 365.5,49.3333 368.5,49.3333 371.5,50C 376.209,56.376 381.875,61.7093 388.5,66C 410.833,77 433.167,88 455.5,99C 479.731,111.894 496.897,131.061 507,156.5C 508.692,162.929 510.192,169.263 511.5,175.5 Z"/></g>
<g><path style="opacity:1" fill="#f88e15" d="M 338.5,92.5 C 341.194,89.1395 344.194,86.1395 347.5,83.5C 354.299,79.5868 360.633,74.9201 366.5,69.5C 380.233,80.0388 395.233,88.5388 411.5,95C 402.883,93.8985 394.216,93.2318 385.5,93C 378.711,102.074 372.544,111.574 367,121.5C 360.958,111.915 354.791,102.415 348.5,93C 345.183,92.5017 341.85,92.335 338.5,92.5 Z"/></g>
<g><path style="opacity:1" fill="#d3520b" d="M 347.5,83.5 C 344.194,86.1395 341.194,89.1395 338.5,92.5C 333.247,93.9177 327.914,94.751 322.5,95C 330.855,91.1549 339.188,87.3216 347.5,83.5 Z"/></g>
<g><path style="opacity:1" fill="#92695f" d="M 429.5,250.5 C 426.539,249.677 423.539,249.01 420.5,248.5C 421.296,244.316 419.963,241.15 416.5,239C 378.458,229.41 340.791,230.576 303.5,242.5C 297.832,217.94 295.999,192.94 298,167.5C 300.365,146.891 307.532,128.225 319.5,111.5C 326.733,109.292 334.066,108.625 341.5,109.5C 348.251,120 354.751,130.667 361,141.5C 365,145.5 369,145.5 373,141.5C 379.333,130.833 385.667,120.167 392,109.5C 393.062,108.903 394.228,108.57 395.5,108.5C 416.174,111.953 436.841,115.453 457.5,119C 492.082,143.729 503.915,176.896 493,218.5C 489.564,231.7 484.231,244.033 477,255.5C 475.022,258.645 472.522,261.312 469.5,263.5C 460.452,256.974 450.785,251.474 440.5,247C 435.916,245.663 432.249,246.829 429.5,250.5 Z"/></g>
<g><path style="opacity:1" fill="#7b4141" d="M 319.5,111.5 C 307.532,128.225 300.365,146.891 298,167.5C 295.999,192.94 297.832,217.94 303.5,242.5C 289.12,247.608 275.954,254.941 264,264.5C 244.071,239.371 235.405,210.704 238,178.5C 241.909,152.839 254.742,133.006 276.5,119C 290.836,116.452 305.17,113.952 319.5,111.5 Z"/></g>
<g><path style="opacity:1" fill="#fb9015" d="M 142.5,177.5 C 142.062,177.565 141.728,177.399 141.5,177C 148.294,171.277 154.627,165.11 160.5,158.5C 167.078,153.935 173.411,148.935 179.5,143.5C 192.398,154.545 206.732,163.378 222.5,170C 223.788,172.466 223.788,174.966 222.5,177.5C 221.333,177.833 220.167,178.167 219,178.5C 214.201,177.337 209.368,176.837 204.5,177C 203.333,178.167 202.167,179.333 201,180.5C 194.321,192.537 187.154,204.204 179.5,215.5C 172.415,204.333 165.582,192.999 159,181.5C 154.505,176.384 149.005,175.051 142.5,177.5 Z"/></g>
<g><path style="opacity:1" fill="#dc550b" d="M 160.5,158.5 C 154.627,165.11 148.294,171.277 141.5,177C 141.728,177.399 142.062,177.565 142.5,177.5C 131.689,179.969 120.689,181.802 109.5,183C 126.74,175.31 143.74,167.144 160.5,158.5 Z"/></g>
<g><path style="opacity:1" fill="#92695f" d="M 99.5,366.5 C 92.6312,334.497 90.4645,302.163 93,269.5C 95.9605,242.762 105.461,218.762 121.5,197.5C 129.927,195.039 138.594,193.539 147.5,193C 156.376,206.583 164.876,220.416 173,234.5C 176.958,239.436 181.291,239.769 186,235.5C 194.346,220.796 203.179,206.463 212.5,192.5C 215.5,193.167 218.5,193.833 221.5,194.5C 223.609,223.003 233.109,248.67 250,271.5C 275.03,298.433 305.863,314.433 342.5,319.5C 339.423,348.091 328.423,373.091 309.5,394.5C 292.126,380.144 272.459,369.978 250.5,364C 199.871,350.566 149.537,351.399 99.5,366.5 Z"/></g>
<g><path style="opacity:1" fill="#7b4141" d="M 121.5,197.5 C 105.461,218.762 95.9605,242.762 93,269.5C 90.4645,302.163 92.6312,334.497 99.5,366.5C 81.4874,373.092 64.9874,382.425 50,394.5C 47.7193,391.097 44.886,388.263 41.5,386C 38.4686,385.505 35.4686,385.671 32.5,386.5C 30.4967,383.159 28.4967,379.825 26.5,376.5C 30.1709,373.707 31.3376,370.04 30,365.5C 25.0023,354.174 21.0023,342.507 18,330.5C 5.95092,278.614 21.4509,237.448 64.5,207C 83.3928,203.121 102.393,199.954 121.5,197.5 Z"/></g>
<g><path style="opacity:1" fill="#e4e4e4" d="M 420.5,248.5 C 423.539,249.01 426.539,249.677 429.5,250.5C 428.923,254.08 429.923,257.08 432.5,259.5C 441.961,263.395 450.628,268.561 458.5,275C 437.363,291.559 413.363,301.559 386.5,305C 368.948,307.537 351.614,306.704 334.5,302.5C 328.476,295.968 322.976,288.968 318,281.5C 313.627,273.883 310.127,265.883 307.5,257.5C 332.139,248.979 357.472,246.145 383.5,249C 393.31,249.663 402.976,251.163 412.5,253.5C 416.154,253.343 418.821,251.676 420.5,248.5 Z"/></g>
<g><path style="opacity:1" fill="#c1bbc9" d="M 307.5,257.5 C 310.127,265.883 313.627,273.883 318,281.5C 322.976,288.968 328.476,295.968 334.5,302.5C 312.511,298.171 292.845,289.004 275.5,275C 285.136,267.348 295.802,261.514 307.5,257.5 Z"/></g>
<g><path style="opacity:1" fill="#e4e4e4" d="M 146.5,443.5 C 125.082,428.039 111.082,407.373 104.5,381.5C 151.844,366.392 199.511,365.559 247.5,379C 266.343,384.254 283.343,392.921 298.5,405C 277.075,422.545 252.742,434.545 225.5,441C 199.289,448.209 172.956,449.042 146.5,443.5 Z"/></g>
<g><path style="opacity:1" fill="#c1bbc9" d="M 104.5,381.5 C 111.082,407.373 125.082,428.039 146.5,443.5C 114.595,438.543 86.2617,425.876 61.5,405.5C 74.1722,394.661 88.5055,386.661 104.5,381.5 Z"/></g>
</svg>
