<?xml version="1.0" encoding="UTF-8"?>
<!DOCTYPE svg PUBLIC "-//W3C//DTD SVG 1.1//EN" "http://www.w3.org/Graphics/SVG/1.1/DTD/svg11.dtd">
<svg xmlns="http://www.w3.org/2000/svg" version="1.1" width="512px" height="512px" style="shape-rendering:geometricPrecision; text-rendering:geometricPrecision; image-rendering:optimizeQuality; fill-rule:evenodd; clip-rule:evenodd" xmlns:xlink="http://www.w3.org/1999/xlink">
<g><path style="opacity:0.98" fill="#010100" d="M 332.5,-0.5 C 338.5,-0.5 344.5,-0.5 350.5,-0.5C 357.288,1.56075 363.622,4.72741 369.5,9C 379.827,17.9846 388.66,28.1513 396,39.5C 399.201,43.0364 402.701,46.2031 406.5,49C 422.666,59.2509 439,69.2509 455.5,79C 487.084,104.434 505.751,137.268 511.5,177.5C 511.5,188.833 511.5,200.167 511.5,211.5C 500.493,276.015 463.493,317.515 400.5,336C 394.564,337.387 388.564,338.387 382.5,339C 367.837,339.5 353.17,339.667 338.5,339.5C 344.696,406.605 319.363,457.772 262.5,493C 244.521,502.716 225.521,508.883 205.5,511.5C 193.833,511.5 182.167,511.5 170.5,511.5C 139.751,507.627 112.418,495.794 88.5,476C 70.6667,458.167 52.8333,440.333 35,422.5C 15.2062,398.582 3.3729,371.249 -0.5,340.5C -0.5,328.833 -0.5,317.167 -0.5,305.5C 9.41757,242.41 44.4176,199.91 104.5,178C 113.978,175.104 123.644,173.104 133.5,172C 146.578,171.604 159.578,171.437 172.5,171.5C 179.205,133.566 197.538,102.732 227.5,79C 244,69.2509 260.334,59.2509 276.5,49C 285.058,41.4415 292.558,32.9415 299,23.5C 303.833,18.6667 308.667,13.8333 313.5,9C 319.378,4.72741 325.712,1.56075 332.5,-0.5 Z"/></g>
<g><path style="opacity:1" fill="#c48964" d="M 340.5,23.5 C 342.335,24.1223 343.502,25.4556 344,27.5C 347.94,39.3211 352.273,50.9878 357,62.5C 362.507,71.5152 368.507,80.1818 375,88.5C 382.086,100.752 387.419,113.752 391,127.5C 394.822,131.721 399.322,132.554 404.5,130C 408.305,125.909 409.472,121.076 408,115.5C 404.366,102.932 399.366,90.9324 393,79.5C 383.567,68.309 375.901,55.9756 370,42.5C 369.333,41.5 369.333,40.5 370,39.5C 376.752,49.5873 384.918,58.4206 394.5,66C 410.168,76.1694 426.168,85.836 442.5,95C 485.67,130.846 500.17,176.013 486,230.5C 480.94,247.293 472.773,262.293 461.5,275.5C 460.333,275.833 459.167,276.167 458,276.5C 441.147,275.282 424.313,273.948 407.5,272.5C 414.139,250.537 416.973,228.204 416,205.5C 409.176,198.414 403.176,199.081 398,207.5C 396.776,229.571 393.276,251.238 387.5,272.5C 366.167,272.5 344.833,272.5 323.5,272.5C 324.698,259.521 325.698,246.521 326.5,233.5C 327.084,210.605 316.75,195.105 295.5,187C 292.243,185.957 288.91,185.457 285.5,185.5C 285.678,158.421 290.178,132.087 299,106.5C 301.473,100.221 304.473,94.2211 308,88.5C 314.493,80.1818 320.493,71.5152 326,62.5C 331.135,49.5922 335.969,36.5922 340.5,23.5 Z"/></g>
<g><path style="opacity:1" fill="#c48864" d="M 312.5,39.5 C 313.573,40.2506 313.74,41.2506 313,42.5C 311.274,46.9531 309.274,51.2864 307,55.5C 299.753,65.6604 292.753,75.9937 286,86.5C 272.592,117.741 265.592,150.408 265,184.5C 253.627,186.594 242.127,187.427 230.5,187C 217.609,185.11 204.942,182.277 192.5,178.5C 197.516,144.295 213.516,116.462 240.5,95C 258.698,84.7919 276.364,73.7919 293.5,62C 300.673,55.1179 307.006,47.6179 312.5,39.5 Z"/></g>
<g><path style="opacity:1" fill="#080504" d="M 404.5,155.5 C 413.334,156.161 417.168,160.827 416,169.5C 411.385,176.203 405.719,177.203 399,172.5C 394.581,164.768 396.415,159.101 404.5,155.5 Z"/></g>
<g><path style="opacity:1" fill="#ce9e82" d="M 136.5,191.5 C 149.256,191.059 161.923,191.892 174.5,194C 191.879,199.428 209.546,203.761 227.5,207C 246.856,206.323 266.189,205.656 285.5,205C 301.558,209.246 308.558,219.746 306.5,236.5C 306.433,245.239 305.599,253.905 304,262.5C 303.333,268.833 303.333,275.167 304,281.5C 308.588,303.264 313.588,324.93 319,346.5C 322.256,402.83 300.089,445.663 252.5,475C 198.341,501.737 147.674,496.404 100.5,459C 82.3045,441.138 64.4712,422.972 47,404.5C 18.4458,364.835 12.1125,321.835 28,275.5C 48.8986,227.767 85.0653,199.767 136.5,191.5 Z"/></g>
<g><path style="opacity:1" fill="#030302" d="M 138.5,211.5 C 149.937,211.035 161.271,211.868 172.5,214C 190.155,219.774 208.155,224.107 226.5,227C 244.505,226.523 262.505,225.857 280.5,225C 283,226.167 284.833,228 286,230.5C 284.768,247.8 284.101,265.133 284,282.5C 285.055,290.218 286.388,297.885 288,305.5C 292.609,319.934 296.275,334.601 299,349.5C 301.057,403.577 277.557,441.743 228.5,464C 185.225,478.734 146.225,471.401 111.5,442C 92.5699,424.074 74.7366,405.24 58,385.5C 34.5413,346.04 33.5413,306.04 55,265.5C 74.6213,234.774 102.455,216.774 138.5,211.5 Z"/></g>
<g><path style="opacity:1" fill="#efe5e1" d="M 138.5,231.5 C 147.879,231.224 157.212,231.724 166.5,233C 185.898,238.843 205.565,243.51 225.5,247C 238.882,247.72 252.215,247.22 265.5,245.5C 263.297,260.149 263.13,274.816 265,289.5C 268.231,308.092 272.565,326.426 278,344.5C 283.073,384.177 269.24,415.344 236.5,438C 193.5,460.551 154.5,455.218 119.5,422C 109.553,410.93 99.0527,400.43 88,390.5C 58.4305,359.202 51.7638,323.535 68,283.5C 83.0724,254.565 106.572,237.232 138.5,231.5 Z"/></g>
<g><path style="opacity:1" fill="#080807" d="M 143.5,281.5 C 152.672,280.514 157.172,284.514 157,293.5C 154.109,300.198 149.276,302.365 142.5,300C 135.612,293.397 135.946,287.23 143.5,281.5 Z"/></g>
<g><path style="opacity:1" fill="#786131" d="M 369.5,292.5 C 354.99,292.171 340.657,292.504 326.5,293.5C 325.957,293.44 325.624,293.107 325.5,292.5C 340.328,291.174 354.995,291.174 369.5,292.5 Z"/></g>
<g><path style="opacity:1" fill="#fbca67" d="M 369.5,292.5 C 393.197,292.507 416.864,293.341 440.5,295C 421.454,308.907 400.12,316.907 376.5,319C 362.155,319.833 347.822,319.666 333.5,318.5C 330.693,310.269 328.36,301.935 326.5,293.5C 340.657,292.504 354.99,292.171 369.5,292.5 Z"/></g>
<g><path style="opacity:1" fill="#080807" d="M 201.5,315.5 C 210.672,314.514 215.172,318.514 215,327.5C 212.109,334.198 207.276,336.365 200.5,334C 193.612,327.397 193.946,321.23 201.5,315.5 Z"/></g>
<g><path style="opacity:1" fill="#080807" d="M 123.5,345.5 C 132.672,344.514 137.172,348.514 137,357.5C 134.109,364.198 129.276,366.365 122.5,364C 115.612,357.397 115.946,351.23 123.5,345.5 Z"/></g>
<g><path style="opacity:1" fill="#080807" d="M 197.5,386.5 C 206.672,385.514 211.172,389.514 211,398.5C 208.109,405.198 203.276,407.365 196.5,405C 189.612,398.397 189.946,392.23 197.5,386.5 Z"/></g>
</svg>
