<?xml version="1.0" encoding="UTF-8"?>
<!DOCTYPE svg PUBLIC "-//W3C//DTD SVG 1.1//EN" "http://www.w3.org/Graphics/SVG/1.1/DTD/svg11.dtd">
<svg xmlns="http://www.w3.org/2000/svg" version="1.1" width="512px" height="512px" style="shape-rendering:geometricPrecision; text-rendering:geometricPrecision; image-rendering:optimizeQuality; fill-rule:evenodd; clip-rule:evenodd" xmlns:xlink="http://www.w3.org/1999/xlink">
<g><path style="opacity:0.979" fill="#010100" d="M 229.5,-0.5 C 246.833,-0.5 264.167,-0.5 281.5,-0.5C 292.004,3.51637 297.838,11.183 299,22.5C 299.333,30.5 299.667,38.5 300,46.5C 313.413,55.549 316.08,67.2157 308,81.5C 305.933,84.07 303.433,86.07 300.5,87.5C 294.953,134.615 305.12,177.948 331,217.5C 347.941,247.656 357.607,279.989 360,314.5C 360.978,367.204 360.645,419.87 359,472.5C 353.219,493.115 340.052,506.115 319.5,511.5C 310.167,511.5 300.833,511.5 291.5,511.5C 289.396,509.628 288.063,507.295 287.5,504.5C 288.053,501.413 289.72,498.913 292.5,497C 301.21,496.798 309.876,496.131 318.5,495C 333.472,490.254 342.305,480.088 345,464.5C 345.5,454.839 345.666,445.172 345.5,435.5C 340.833,435.5 336.167,435.5 331.5,435.5C 331.667,446.172 331.5,456.839 331,467.5C 327.674,475.493 321.841,480.659 313.5,483C 274.5,483.667 235.5,483.667 196.5,483C 191.488,481.163 187.154,478.33 183.5,474.5C 182.073,471.976 180.906,469.31 180,466.5C 179.5,456.172 179.334,445.839 179.5,435.5C 174.833,435.5 170.167,435.5 165.5,435.5C 165.334,445.172 165.5,454.839 166,464.5C 166.373,468.218 167.539,471.551 169.5,474.5C 174.122,485.834 182.455,493.001 194.5,496C 216.833,496.333 239.167,496.667 261.5,497C 265.076,498.354 267.076,500.854 267.5,504.5C 267.002,507.326 265.669,509.66 263.5,511.5C 239.5,511.5 215.5,511.5 191.5,511.5C 168.877,505.372 155.377,490.705 151,467.5C 150.333,416.5 150.333,365.5 151,314.5C 152.952,283.025 161.285,253.358 176,225.5C 178.546,222.814 181.713,221.814 185.5,222.5C 189.171,225.293 190.338,228.96 189,233.5C 175.488,259.536 167.988,287.202 166.5,316.5C 165.539,318.265 165.205,320.265 165.5,322.5C 170.363,322.819 175.03,322.486 179.5,321.5C 180.378,289.362 188.878,259.362 205,231.5C 209.667,223.5 214.333,215.5 219,207.5C 220.833,206.333 222.667,205.167 224.5,204C 244.164,203.5 263.831,203.333 283.5,203.5C 286.745,203.97 289.579,205.303 292,207.5C 306.835,230.172 318.169,254.506 326,280.5C 329.659,293.921 331.493,307.587 331.5,321.5C 335.833,321.5 340.167,321.5 344.5,321.5C 343.978,292.746 337.478,265.413 325,239.5C 315.555,223.61 306.888,207.277 299,190.5C 293.446,176.95 289.446,162.95 287,148.5C 278.251,147.516 269.418,147.183 260.5,147.5C 248.495,147.333 236.495,147.5 224.5,148C 220.813,166.893 214.813,185.06 206.5,202.5C 203.387,205.192 199.721,206.192 195.5,205.5C 192.645,202.408 191.812,198.741 193,194.5C 209.21,160.575 215.043,124.908 210.5,87.5C 200.97,81.434 197.137,72.7673 199,61.5C 200.872,54.7344 204.872,49.7344 211,46.5C 211.333,38.1667 211.667,29.8333 212,21.5C 213.624,10.7197 219.457,3.38637 229.5,-0.5 Z"/></g>
<g><path style="opacity:1" fill="#fcc002" d="M 258.5,14.5 C 259.594,16.3594 260.427,18.3594 261,20.5C 261.5,28.4931 261.666,36.4931 261.5,44.5C 250.167,44.5 238.833,44.5 227.5,44.5C 227.334,36.16 227.5,27.8267 228,19.5C 229.5,18 231,16.5 232.5,15C 241.16,14.5002 249.827,14.3336 258.5,14.5 Z"/></g>
<g><path style="opacity:1" fill="#fca202" d="M 258.5,14.5 C 264.842,14.3338 271.175,14.5005 277.5,15C 279.624,16.1217 281.457,17.6217 283,19.5C 283.5,27.8267 283.666,36.16 283.5,44.5C 276.167,44.5 268.833,44.5 261.5,44.5C 261.666,36.4931 261.5,28.4931 261,20.5C 260.427,18.3594 259.594,16.3594 258.5,14.5 Z"/></g>
<g><path style="opacity:1" fill="#7ecf60" d="M 272.5,59.5 C 275.09,64.4713 275.09,69.4713 272.5,74.5C 254.497,74.6666 236.497,74.4999 218.5,74C 211.833,69.3333 211.833,64.6667 218.5,60C 236.497,59.5001 254.497,59.3334 272.5,59.5 Z"/></g>
<g><path style="opacity:1" fill="#66c542" d="M 272.5,59.5 C 279.175,59.3337 285.842,59.5004 292.5,60C 299.152,64.7168 299.152,69.3835 292.5,74C 285.842,74.4996 279.175,74.6663 272.5,74.5C 275.09,69.4713 275.09,64.4713 272.5,59.5 Z"/></g>
<g><path style="opacity:1" fill="#fcbf01" d="M 261.5,89.5 C 261.5,103.833 261.5,118.167 261.5,132.5C 249.833,132.5 238.167,132.5 226.5,132.5C 227.323,118.183 227.656,103.849 227.5,89.5C 238.833,89.5 250.167,89.5 261.5,89.5 Z"/></g>
<g><path style="opacity:1" fill="#fba201" d="M 261.5,89.5 C 268.833,89.5 276.167,89.5 283.5,89.5C 283.344,103.849 283.677,118.183 284.5,132.5C 276.833,132.5 269.167,132.5 261.5,132.5C 261.5,118.167 261.5,103.833 261.5,89.5 Z"/></g>
<g><path style="opacity:0.999" fill="#94d678" d="M 260.5,147.5 C 262.371,166.988 268.537,184.988 279,201.5C 280.622,202.099 282.122,202.766 283.5,203.5C 263.831,203.333 244.164,203.5 224.5,204C 222.667,205.167 220.833,206.333 219,207.5C 214.333,215.5 209.667,223.5 205,231.5C 188.878,259.362 180.378,289.362 179.5,321.5C 175.167,321.5 170.833,321.5 166.5,321.5C 166.5,319.833 166.5,318.167 166.5,316.5C 167.988,287.202 175.488,259.536 189,233.5C 190.338,228.96 189.171,225.293 185.5,222.5C 189.071,217.033 192.404,211.367 195.5,205.5C 199.721,206.192 203.387,205.192 206.5,202.5C 214.813,185.06 220.813,166.893 224.5,148C 236.495,147.5 248.495,147.333 260.5,147.5 Z"/></g>
<g><path style="opacity:1" fill="#66c642" d="M 260.5,147.5 C 269.418,147.183 278.251,147.516 287,148.5C 289.446,162.95 293.446,176.95 299,190.5C 306.888,207.277 315.555,223.61 325,239.5C 337.478,265.413 343.978,292.746 344.5,321.5C 340.167,321.5 335.833,321.5 331.5,321.5C 331.493,307.587 329.659,293.921 326,280.5C 318.169,254.506 306.835,230.172 292,207.5C 289.579,205.303 286.745,203.97 283.5,203.5C 282.122,202.766 280.622,202.099 279,201.5C 268.537,184.988 262.371,166.988 260.5,147.5 Z"/></g>
<g><path style="opacity:1" fill="#fbd599" d="M 281.5,218.5 C 274.159,218.334 266.826,218.5 259.5,219C 281.02,249.727 292.687,283.893 294.5,321.5C 261.167,321.5 227.833,321.5 194.5,321.5C 195.295,292.656 202.795,265.656 217,240.5C 221.42,233.329 225.586,225.996 229.5,218.5C 246.995,217.173 264.329,217.173 281.5,218.5 Z"/></g>
<g><path style="opacity:1" fill="#f8c36c" d="M 281.5,218.5 C 290.961,233.755 299.128,249.755 306,266.5C 312.65,284.249 316.15,302.582 316.5,321.5C 309.167,321.5 301.833,321.5 294.5,321.5C 292.687,283.893 281.02,249.727 259.5,219C 266.826,218.5 274.159,218.334 281.5,218.5 Z"/></g>
<g><path style="opacity:1" fill="#344b2a" d="M 166.5,316.5 C 166.5,318.167 166.5,319.833 166.5,321.5C 170.833,321.5 175.167,321.5 179.5,321.5C 175.03,322.486 170.363,322.819 165.5,322.5C 165.205,320.265 165.539,318.265 166.5,316.5 Z"/></g>
<g><path style="opacity:1" fill="#948e8b" d="M 165.5,336.5 C 225.5,336.5 285.5,336.5 345.5,336.5C 345.5,364.5 345.5,392.5 345.5,420.5C 285.5,420.5 225.5,420.5 165.5,420.5C 165.5,392.5 165.5,364.5 165.5,336.5 Z"/></g>
<g><path style="opacity:1" fill="#f3e9e4" d="M 166.5,337.5 C 225.833,337.5 285.167,337.5 344.5,337.5C 344.5,364.833 344.5,392.167 344.5,419.5C 285.167,419.5 225.833,419.5 166.5,419.5C 166.5,392.167 166.5,364.833 166.5,337.5 Z"/></g>
<g><path style="opacity:1" fill="#080707" d="M 204.5,354.5 C 238.502,354.333 272.502,354.5 306.5,355C 310.696,357.981 311.529,361.814 309,366.5C 308.097,367.701 306.931,368.535 305.5,369C 272.167,369.667 238.833,369.667 205.5,369C 200.465,365.987 199.298,361.82 202,356.5C 202.995,355.934 203.828,355.267 204.5,354.5 Z"/></g>
<g><path style="opacity:1" fill="#080808" d="M 225.5,383.5 C 245.503,383.333 265.503,383.5 285.5,384C 291.232,389.608 290.565,394.274 283.5,398C 264.5,398.667 245.5,398.667 226.5,398C 220.292,393.58 219.958,388.747 225.5,383.5 Z"/></g>
<g><path style="opacity:1" fill="#8dcd73" d="M 183.5,474.5 C 178.833,474.5 174.167,474.5 169.5,474.5C 167.539,471.551 166.373,468.218 166,464.5C 165.5,454.839 165.334,445.172 165.5,435.5C 170.167,435.5 174.833,435.5 179.5,435.5C 179.334,445.839 179.5,456.172 180,466.5C 180.906,469.31 182.073,471.976 183.5,474.5 Z"/></g>
<g><path style="opacity:1" fill="#fbd59a" d="M 294.5,435.5 C 294.666,445.172 294.5,454.839 294,464.5C 293.209,465.745 292.709,467.078 292.5,468.5C 261.498,468.667 230.498,468.5 199.5,468C 197,466.833 195.167,465 194,462.5C 193.5,453.506 193.334,444.506 193.5,435.5C 227.167,435.5 260.833,435.5 294.5,435.5 Z"/></g>
<g><path style="opacity:1" fill="#f5c16a" d="M 294.5,435.5 C 302.167,435.5 309.833,435.5 317.5,435.5C 317.948,445.273 317.448,454.939 316,464.5C 314.786,466.049 313.286,467.215 311.5,468C 305.175,468.5 298.842,468.666 292.5,468.5C 292.709,467.078 293.209,465.745 294,464.5C 294.5,454.839 294.666,445.172 294.5,435.5 Z"/></g>
<g><path style="opacity:1" fill="#66c642" d="M 287.5,504.5 C 280.833,504.5 274.167,504.5 267.5,504.5C 267.076,500.854 265.076,498.354 261.5,497C 239.167,496.667 216.833,496.333 194.5,496C 182.455,493.001 174.122,485.834 169.5,474.5C 174.167,474.5 178.833,474.5 183.5,474.5C 187.154,478.33 191.488,481.163 196.5,483C 235.5,483.667 274.5,483.667 313.5,483C 321.841,480.659 327.674,475.493 331,467.5C 331.5,456.839 331.667,446.172 331.5,435.5C 336.167,435.5 340.833,435.5 345.5,435.5C 345.666,445.172 345.5,454.839 345,464.5C 342.305,480.088 333.472,490.254 318.5,495C 309.876,496.131 301.21,496.798 292.5,497C 289.72,498.913 288.053,501.413 287.5,504.5 Z"/></g>
</svg>
