<?xml version="1.0" encoding="UTF-8"?>
<!DOCTYPE svg PUBLIC "-//W3C//DTD SVG 1.1//EN" "http://www.w3.org/Graphics/SVG/1.1/DTD/svg11.dtd">
<svg xmlns="http://www.w3.org/2000/svg" version="1.1" width="512px" height="512px" style="shape-rendering:geometricPrecision; text-rendering:geometricPrecision; image-rendering:optimizeQuality; fill-rule:evenodd; clip-rule:evenodd" xmlns:xlink="http://www.w3.org/1999/xlink">
<g><path style="opacity:0.984" fill="#1f0c2f" d="M 224.5,301.5 C 227.716,305.132 228.216,309.132 226,313.5C 193.277,371.245 152.611,422.912 104,468.5C 103.011,475.175 105.844,478.342 112.5,478C 156.183,463.666 195.849,442.333 231.5,414C 305.298,353.701 359.631,279.201 394.5,190.5C 399.197,179.577 403.031,168.243 406,156.5C 410.217,132.442 402.051,113.942 381.5,101C 366.003,92.1511 349.67,90.1511 332.5,95C 316.212,101.778 305.879,113.612 301.5,130.5C 312.174,129.971 322.674,128.304 333,125.5C 335.923,125.795 338.257,127.129 340,129.5C 340.345,142.179 340.845,154.845 341.5,167.5C 354.086,164.705 364.753,158.539 373.5,149C 377.898,147.622 381.398,148.788 384,152.5C 384.438,158.264 386.105,163.597 389,168.5C 389.976,172.327 389.143,175.66 386.5,178.5C 384.143,178.663 381.81,178.497 379.5,178C 377.033,174.884 374.699,171.718 372.5,168.5C 360.884,178.14 347.551,182.307 332.5,181C 331.667,180.167 330.833,179.333 330,178.5C 327.644,166.277 326.478,153.944 326.5,141.5C 316.512,142.927 306.512,144.26 296.5,145.5C 285.997,184.517 271.663,222.017 253.5,258C 250.854,258.497 248.187,258.664 245.5,258.5C 242.695,255.754 241.861,252.421 243,248.5C 262.32,206.183 277.987,162.516 290,117.5C 300.317,94.8569 317.817,81.6902 342.5,78C 348.957,77.6441 355.29,77.4774 361.5,77.5C 364.002,59.4774 370.502,43.1441 381,28.5C 384.251,24.5783 388.084,21.4117 392.5,19C 395.167,18.3333 397.833,18.3333 400.5,19C 407.687,26.5526 414.52,34.3859 421,42.5C 421.667,45.1667 421.667,47.8333 421,50.5C 408.634,62.3969 401.134,76.8969 398.5,94C 408.966,103.807 416.133,115.641 420,129.5C 422.209,141.575 421.875,153.575 419,165.5C 387.776,259.834 335.61,340.334 262.5,407C 220.845,444.177 173.512,472.177 120.5,491C 107.552,495.76 97.719,492.26 91,480.5C 88.3199,472.302 89.3199,464.635 94,457.5C 141.95,412.572 181.95,361.572 214,304.5C 216.89,301.146 220.39,300.146 224.5,301.5 Z"/></g>
<g><path style="opacity:1" fill="#a0c52a" d="M 394.5,35.5 C 398.07,38.4036 401.404,41.7369 404.5,45.5C 394.972,58.0553 388.306,72.0553 384.5,87.5C 381.956,85.9814 379.289,84.648 376.5,83.5C 377.158,65.5284 383.158,49.5284 394.5,35.5 Z"/></g>
<g><path style="opacity:1" fill="#b8e242" d="M 394.5,190.5 C 391.833,186.5 389.167,182.5 386.5,178.5C 389.143,175.66 389.976,172.327 389,168.5C 386.105,163.597 384.438,158.264 384,152.5C 381.398,148.788 377.898,147.622 373.5,149C 364.753,158.539 354.086,164.705 341.5,167.5C 340.845,154.845 340.345,142.179 340,129.5C 338.257,127.129 335.923,125.795 333,125.5C 322.674,128.304 312.174,129.971 301.5,130.5C 305.879,113.612 316.212,101.778 332.5,95C 349.67,90.1511 366.003,92.1511 381.5,101C 402.051,113.942 410.217,132.442 406,156.5C 403.031,168.243 399.197,179.577 394.5,190.5 Z"/></g>
<g><path style="opacity:1" fill="#fa4a00" d="M 386.5,178.5 C 389.167,182.5 391.833,186.5 394.5,190.5C 359.631,279.201 305.298,353.701 231.5,414C 195.849,442.333 156.183,463.666 112.5,478C 105.844,478.342 103.011,475.175 104,468.5C 152.611,422.912 193.277,371.245 226,313.5C 228.216,309.132 227.716,305.132 224.5,301.5C 225.833,298.167 227.167,294.833 228.5,291.5C 232.482,293.296 235.982,292.629 239,289.5C 241.776,284.282 244.276,278.949 246.5,273.5C 245.412,270.986 244.079,268.653 242.5,266.5C 243.5,263.833 244.5,261.167 245.5,258.5C 248.187,258.664 250.854,258.497 253.5,258C 271.663,222.017 285.997,184.517 296.5,145.5C 306.512,144.26 316.512,142.927 326.5,141.5C 326.478,153.944 327.644,166.277 330,178.5C 330.833,179.333 331.667,180.167 332.5,181C 347.551,182.307 360.884,178.14 372.5,168.5C 374.699,171.718 377.033,174.884 379.5,178C 381.81,178.497 384.143,178.663 386.5,178.5 Z"/></g>
<g><path style="opacity:0.975" fill="#210d2f" d="M 242.5,266.5 C 244.079,268.653 245.412,270.986 246.5,273.5C 244.276,278.949 241.776,284.282 239,289.5C 235.982,292.629 232.482,293.296 228.5,291.5C 227.03,289.61 226.03,287.443 225.5,285C 228.051,278.564 231.384,272.564 235.5,267C 237.81,266.503 240.143,266.337 242.5,266.5 Z"/></g>
<g><path style="opacity:1" fill="#230d2f" d="M 250.5,364.5 C 257.978,364.485 260.811,368.152 259,375.5C 251.5,382.333 244,389.167 236.5,396C 230.578,397.876 226.912,395.876 225.5,390C 225.858,387.968 226.692,386.134 228,384.5C 235.992,378.339 243.492,371.673 250.5,364.5 Z"/></g>
</svg>
