<?xml version="1.0" encoding="UTF-8"?>
<!DOCTYPE svg PUBLIC "-//W3C//DTD SVG 1.1//EN" "http://www.w3.org/Graphics/SVG/1.1/DTD/svg11.dtd">
<svg xmlns="http://www.w3.org/2000/svg" version="1.1" width="512px" height="512px" style="shape-rendering:geometricPrecision; text-rendering:geometricPrecision; image-rendering:optimizeQuality; fill-rule:evenodd; clip-rule:evenodd" xmlns:xlink="http://www.w3.org/1999/xlink">
<g><path style="opacity:0.97" fill="#010201" d="M 347.5,-0.5 C 350.833,-0.5 354.167,-0.5 357.5,-0.5C 367.102,7.25959 376.602,15.2596 386,23.5C 388.856,27.6389 389.19,31.9723 387,36.5C 383.333,43.1667 379.667,49.8333 376,56.5C 373.096,58.2268 369.93,58.8935 366.5,58.5C 364.522,56.0402 363.188,53.2069 362.5,50C 364.625,45.5802 366.625,41.0802 368.5,36.5C 369.601,35.1516 370.601,33.6516 371.5,32C 365.98,26.9793 360.314,22.1459 354.5,17.5C 306.039,107.587 257.706,197.754 209.5,288C 212.665,290.335 215.665,292.835 218.5,295.5C 221.144,297.969 223.977,300.302 227,302.5C 267.452,226.428 308.285,150.594 349.5,75C 352.482,74.502 355.482,74.3354 358.5,74.5C 361.376,78.0934 362.209,82.0934 361,86.5C 382.333,61.1667 403.667,35.8333 425,10.5C 427.537,7.62804 430.37,5.12804 433.5,3C 437.295,2.16277 440.961,2.4961 444.5,4C 452.167,10.3333 459.833,16.6667 467.5,23C 473.275,27.3271 474.775,32.8271 472,39.5C 450.833,64.6667 429.667,89.8333 408.5,115C 409.167,115.667 409.833,115.667 410.5,115C 421.833,106 433.167,97 444.5,88C 447.457,85.6884 450.791,84.1884 454.5,83.5C 457.779,84.4728 460.779,85.9728 463.5,88C 471.963,94.7943 480.13,101.961 488,109.5C 490.775,116.173 489.275,121.673 483.5,126C 471.833,135 460.167,144 448.5,153C 444.928,153.847 441.594,153.347 438.5,151.5C 436.888,147.588 437.221,143.921 439.5,140.5C 447.519,134.143 455.519,127.81 463.5,121.5C 466.029,119.735 468.362,117.735 470.5,115.5C 465.175,110.344 459.675,105.344 454,100.5C 395.833,146 337.667,191.5 279.5,237C 275.76,242.981 272.427,249.148 269.5,255.5C 263.511,265.146 258.345,275.146 254,285.5C 306.5,244.333 359,203.167 411.5,162C 413.134,160.692 414.968,159.858 417,159.5C 419.708,160.109 422.208,161.109 424.5,162.5C 425.167,164.819 425.334,167.153 425,169.5C 423.207,172.295 421.04,174.795 418.5,177C 404.547,187.285 390.88,197.952 377.5,209C 397.801,206.719 418.135,204.719 438.5,203C 444.025,205.919 445.858,210.419 444,216.5C 443.215,218.286 442.049,219.786 440.5,221C 378.048,249.059 315.714,277.393 253.5,306C 246.058,311.474 238.891,317.308 232,323.5C 223.022,334.646 213.855,345.646 204.5,356.5C 201.352,358.788 198.019,359.122 194.5,357.5C 193.928,355.745 193.094,354.078 192,352.5C 191.333,350.833 191.333,349.167 192,347.5C 198.38,339.959 204.547,332.292 210.5,324.5C 213.384,321.761 216.051,318.761 218.5,315.5C 212.986,310.155 207.153,305.155 201,300.5C 180.667,324.833 160.333,349.167 140,373.5C 135.62,377.548 130.954,381.215 126,384.5C 128.213,388.206 131.38,391.206 135.5,393.5C 139.473,397.301 143.64,400.968 148,404.5C 154.542,391.614 163.042,380.114 173.5,370C 176.741,369.207 179.741,369.707 182.5,371.5C 184.427,374.137 184.927,377.137 184,380.5C 179.711,386.458 175.044,392.124 170,397.5C 166.889,401.387 164.556,405.72 163,410.5C 162.158,426.486 161.492,442.486 161,458.5C 153.758,487.577 135.592,505.244 106.5,511.5C 98.8333,511.5 91.1667,511.5 83.5,511.5C 41.2063,499.273 23.3729,471.273 30,427.5C 37.7067,401.793 54.54,385.626 80.5,379C 89.8891,378.025 99.2225,376.692 108.5,375C 114.896,373.303 120.562,370.303 125.5,366C 147.333,340.167 169.167,314.333 191,288.5C 195.587,280.996 199.92,273.329 204,265.5C 221.358,198.069 239.024,130.736 257,63.5C 263.445,57.7903 269.112,58.457 274,65.5C 275.477,85.8029 276.811,106.136 278,126.5C 299.667,85.8333 321.333,45.1667 343,4.5C 344.707,2.96252 346.207,1.29585 347.5,-0.5 Z"/></g>
<g><path style="opacity:1" fill="#0dcf8e" d="M 368.5,36.5 C 366.122,34.9588 363.622,33.6255 361,32.5C 360.167,32.8333 359.333,33.1667 358.5,33.5C 311.821,120.86 265.154,208.194 218.5,295.5C 215.665,292.835 212.665,290.335 209.5,288C 257.706,197.754 306.039,107.587 354.5,17.5C 360.314,22.1459 365.98,26.9793 371.5,32C 370.601,33.6516 369.601,35.1516 368.5,36.5 Z"/></g>
<g><path style="opacity:1" fill="#06ae78" d="M 447.5,43.5 C 444.617,40.0488 441.284,37.0488 437.5,34.5C 394.134,84.3675 351.3,134.701 309,185.5C 308.184,186.823 307.017,187.489 305.5,187.5C 311.067,176.7 316.9,166.034 323,155.5C 361.376,110.793 399.376,65.7932 437,20.5C 437.718,19.5494 438.551,19.3828 439.5,20C 445.009,24.677 450.342,29.5103 455.5,34.5C 453.52,38.137 450.854,41.137 447.5,43.5 Z"/></g>
<g><path style="opacity:0.998" fill="#05df99" d="M 368.5,36.5 C 366.625,41.0802 364.625,45.5802 362.5,50C 363.188,53.2069 364.522,56.0402 366.5,58.5C 363.399,63.6051 360.733,68.9384 358.5,74.5C 355.482,74.3354 352.482,74.502 349.5,75C 308.285,150.594 267.452,226.428 227,302.5C 223.977,300.302 221.144,297.969 218.5,295.5C 265.154,208.194 311.821,120.86 358.5,33.5C 359.333,33.1667 360.167,32.8333 361,32.5C 363.622,33.6255 366.122,34.9588 368.5,36.5 Z"/></g>
<g><path style="opacity:1" fill="#00bf83" d="M 447.5,43.5 C 413.211,84.9602 378.711,126.294 344,167.5C 329.258,179.454 314.425,191.287 299.5,203C 298.668,203.688 298.002,203.521 297.5,202.5C 299.925,197.314 302.591,192.314 305.5,187.5C 307.017,187.489 308.184,186.823 309,185.5C 351.3,134.701 394.134,84.3675 437.5,34.5C 441.284,37.0488 444.617,40.0488 447.5,43.5 Z"/></g>
<g><path style="opacity:1" fill="#0dce8d" d="M 463.5,121.5 C 460.574,118.683 457.574,115.849 454.5,113C 453.5,112.333 452.5,112.333 451.5,113C 390.984,160.75 330.318,208.25 269.5,255.5C 272.427,249.148 275.76,242.981 279.5,237C 337.667,191.5 395.833,146 454,100.5C 459.675,105.344 465.175,110.344 470.5,115.5C 468.362,117.735 466.029,119.735 463.5,121.5 Z"/></g>
<g><path style="opacity:1" fill="#06a874" d="M 260.5,107.5 C 262.409,124.302 262.909,141.302 262,158.5C 253,175.167 244,191.833 235,208.5C 243.327,174.858 251.827,141.191 260.5,107.5 Z"/></g>
<g><path style="opacity:0.998" fill="#05e09a" d="M 463.5,121.5 C 455.519,127.81 447.519,134.143 439.5,140.5C 437.221,143.921 436.888,147.588 438.5,151.5C 433.833,155.167 429.167,158.833 424.5,162.5C 422.208,161.109 419.708,160.109 417,159.5C 414.968,159.858 413.134,160.692 411.5,162C 359,203.167 306.5,244.333 254,285.5C 258.345,275.146 263.511,265.146 269.5,255.5C 330.318,208.25 390.984,160.75 451.5,113C 452.5,112.333 453.5,112.333 454.5,113C 457.574,115.849 460.574,118.683 463.5,121.5 Z"/></g>
<g><path style="opacity:0.961" fill="#000000" d="M 66.5,167.5 C 84.2607,167.027 101.927,167.527 119.5,169C 122.181,171.194 123.681,174.027 124,177.5C 124.667,185.833 124.667,194.167 124,202.5C 123.698,207.463 121.198,210.629 116.5,212C 99.4086,212.971 82.4086,212.638 65.5,211C 63.1898,209.363 61.6898,207.196 61,204.5C 60.3333,194.5 60.3333,184.5 61,174.5C 61.9668,171.379 63.8001,169.046 66.5,167.5 Z"/></g>
<g><path style="opacity:1" fill="#0bd793" d="M 76.5,182.5 C 87.1667,182.5 97.8333,182.5 108.5,182.5C 108.5,187.167 108.5,191.833 108.5,196.5C 97.8333,196.5 87.1667,196.5 76.5,196.5C 76.5,191.833 76.5,187.167 76.5,182.5 Z"/></g>
<g><path style="opacity:1" fill="#078158" d="M 76.5,182.5 C 76.5,187.167 76.5,191.833 76.5,196.5C 87.1667,196.5 97.8333,196.5 108.5,196.5C 97.6794,197.495 86.6794,197.828 75.5,197.5C 75.1795,192.305 75.5128,187.305 76.5,182.5 Z"/></g>
<g><path style="opacity:1" fill="#06a974" d="M 393.5,222.5 C 395.199,222.34 396.866,222.506 398.5,223C 367.207,237.417 335.874,251.417 304.5,265C 319.833,253 335.167,241 350.5,229C 365.011,227.065 379.345,224.898 393.5,222.5 Z"/></g>
<g><path style="opacity:0.947" fill="#000100" d="M 57.5,253.5 C 61.3076,253.163 64.9743,253.663 68.5,255C 74.6667,261.167 80.8333,267.333 87,273.5C 90.3333,278.5 90.3333,283.5 87,288.5C 77.1667,298.333 67.3333,308.167 57.5,318C 52.6974,321.831 47.6974,322.164 42.5,319C 36,312.5 29.5,306 23,299.5C 21.0873,295.471 21.0873,291.471 23,287.5C 34.3951,275.937 45.8951,264.604 57.5,253.5 Z"/></g>
<g><path style="opacity:1" fill="#05e09a" d="M 66.5,275.5 C 66.6495,276.552 66.4828,277.552 66,278.5C 61.1667,283.333 56.3333,288.167 51.5,293C 48.1369,293.48 45.4703,292.313 43.5,289.5C 49.4639,283.035 55.6306,276.702 62,270.5C 63.7073,272.037 65.2073,273.704 66.5,275.5 Z"/></g>
<g><path style="opacity:1" fill="#0dc788" d="M 66.5,275.5 C 69.5317,276.999 71.0317,279.332 71,282.5C 64.1667,289.333 57.3333,296.167 50.5,303C 49.8333,303.667 49.1667,303.667 48.5,303C 45.6667,300.167 42.8333,297.333 40,294.5C 40.0768,292.228 41.2435,290.562 43.5,289.5C 45.4703,292.313 48.1369,293.48 51.5,293C 56.3333,288.167 61.1667,283.333 66,278.5C 66.4828,277.552 66.6495,276.552 66.5,275.5 Z"/></g>
<g><path style="opacity:0.94" fill="#000000" d="M 419.5,292.5 C 422.425,292.46 425.091,293.293 427.5,295C 434.698,301.864 441.532,309.03 448,316.5C 448.667,319.833 448.667,323.167 448,326.5C 437.53,337.971 426.697,349.137 415.5,360C 411.625,361.52 407.625,361.854 403.5,361C 396.698,355.199 390.198,349.032 384,342.5C 380.09,337.704 379.757,332.704 383,327.5C 394.783,315.213 406.95,303.546 419.5,292.5 Z"/></g>
<g><path style="opacity:1" fill="#faf0c2" d="M 210.5,324.5 C 205.011,320.89 199.344,320.723 193.5,324C 173.556,346.767 154.222,369.934 135.5,393.5C 131.38,391.206 128.213,388.206 126,384.5C 130.954,381.215 135.62,377.548 140,373.5C 160.333,349.167 180.667,324.833 201,300.5C 207.153,305.155 212.986,310.155 218.5,315.5C 216.051,318.761 213.384,321.761 210.5,324.5 Z"/></g>
<g><path style="opacity:1" fill="#0bcf8e" d="M 420.5,311.5 C 424.147,314.811 427.813,318.145 431.5,321.5C 424.167,329.5 416.5,337.167 408.5,344.5C 404.833,341.5 401.5,338.167 398.5,334.5C 405.855,326.813 413.188,319.146 420.5,311.5 Z"/></g>
<g><path style="opacity:1" fill="#fdf7df" d="M 210.5,324.5 C 204.547,332.292 198.38,339.959 192,347.5C 191.333,349.167 191.333,350.833 192,352.5C 193.094,354.078 193.928,355.745 194.5,357.5C 190.155,361.847 186.155,366.514 182.5,371.5C 179.741,369.707 176.741,369.207 173.5,370C 163.042,380.114 154.542,391.614 148,404.5C 143.64,400.968 139.473,397.301 135.5,393.5C 154.222,369.934 173.556,346.767 193.5,324C 199.344,320.723 205.011,320.89 210.5,324.5 Z"/></g>
<g><path style="opacity:0.972" fill="#000000" d="M 305.5,355.5 C 322.503,355.333 339.503,355.5 356.5,356C 359.381,357.251 361.214,359.417 362,362.5C 362.931,373.573 362.597,384.573 361,395.5C 359.457,397.378 357.624,398.878 355.5,400C 338.1,400.958 320.767,400.624 303.5,399C 301.951,397.786 300.785,396.286 300,394.5C 299.333,383.5 299.333,372.5 300,361.5C 301.36,358.977 303.193,356.977 305.5,355.5 Z"/></g>
<g><path style="opacity:1" fill="#02bd81" d="M 346.5,370.5 C 346.5,375.167 346.5,379.833 346.5,384.5C 335.833,384.5 325.167,384.5 314.5,384.5C 314.5,379.833 314.5,375.167 314.5,370.5C 325.167,370.5 335.833,370.5 346.5,370.5 Z"/></g>
<g><path style="opacity:1" fill="#01734f" d="M 346.5,370.5 C 347.487,375.305 347.821,380.305 347.5,385.5C 336.321,385.828 325.321,385.495 314.5,384.5C 325.167,384.5 335.833,384.5 346.5,384.5C 346.5,379.833 346.5,375.167 346.5,370.5 Z"/></g>
<g><path style="opacity:1" fill="#f9efc1" d="M 100.5,391.5 C 103.518,391.335 106.518,391.502 109.5,392C 110.451,392.718 110.617,393.551 110,394.5C 82.0512,411.742 61.5512,435.408 48.5,465.5C 38.6533,442.377 42.9866,422.21 61.5,405C 73.1631,396.391 86.1631,391.891 100.5,391.5 Z"/></g>
<g><path style="opacity:1" fill="#faecab" d="M 122.5,403.5 C 125.583,405.076 128.249,407.242 130.5,410C 119.465,441.755 99.4654,466.088 70.5,483C 67.5682,483.953 64.5682,484.453 61.5,484.5C 60.8487,477.816 62.0154,471.483 65,465.5C 78.152,439.184 97.3186,418.517 122.5,403.5 Z"/></g>
<g><path style="opacity:0.945" fill="#000000" d="M 224.5,405.5 C 227.941,405.301 231.274,405.801 234.5,407C 246.03,418.196 257.197,429.696 268,441.5C 268.965,445.782 268.298,449.782 266,453.5C 259.431,460.739 252.265,467.239 244.5,473C 240.548,473.912 236.881,473.245 233.5,471C 221.935,460.104 211.101,448.604 201,436.5C 200.348,433.406 200.682,430.406 202,427.5C 209.395,419.937 216.895,412.603 224.5,405.5 Z"/></g>
<g><path style="opacity:1" fill="#faf0c2" d="M 142.5,419.5 C 143.458,419.953 144.292,420.619 145,421.5C 146.232,432.479 146.566,443.479 146,454.5C 138.775,481.215 121.275,495.215 93.5,496.5C 89.3858,496.481 85.3858,495.814 81.5,494.5C 110.317,476.354 130.651,451.354 142.5,419.5 Z"/></g>
<g><path style="opacity:1" fill="#0dca8a" d="M 232.5,427.5 C 229.468,428.999 227.968,431.332 228,434.5C 233.061,441.063 238.894,446.729 245.5,451.5C 244.304,454.221 242.304,455.387 239.5,455C 232.667,448.167 225.833,441.333 219,434.5C 218.333,433.833 218.333,433.167 219,432.5C 221.833,429.667 224.667,426.833 227.5,424C 229.772,424.077 231.438,425.243 232.5,427.5 Z"/></g>
<g><path style="opacity:1" fill="#05dd98" d="M 232.5,427.5 C 238.965,433.464 245.298,439.631 251.5,446C 249.63,448.04 247.63,449.873 245.5,451.5C 238.894,446.729 233.061,441.063 228,434.5C 227.968,431.332 229.468,428.999 232.5,427.5 Z"/></g>
<g><path style="opacity:0.952" fill="#000000" d="M 373.5,441.5 C 390.237,441.044 406.903,441.544 423.5,443C 425.378,444.543 426.878,446.376 428,448.5C 428.955,459.931 428.622,471.264 427,482.5C 425.363,484.81 423.196,486.31 420.5,487C 404.833,487.667 389.167,487.667 373.5,487C 369.64,485.807 367.14,483.307 366,479.5C 365.333,469.167 365.333,458.833 366,448.5C 367.767,445.228 370.267,442.895 373.5,441.5 Z"/></g>
<g><path style="opacity:1" fill="#02bc81" d="M 413.5,457.5 C 413.5,462.167 413.5,466.833 413.5,471.5C 402.833,471.5 392.167,471.5 381.5,471.5C 381.5,466.833 381.5,462.167 381.5,457.5C 392.167,457.5 402.833,457.5 413.5,457.5 Z"/></g>
<g><path style="opacity:1" fill="#013c29" d="M 413.5,457.5 C 402.833,457.5 392.167,457.5 381.5,457.5C 381.5,462.167 381.5,466.833 381.5,471.5C 392.167,471.5 402.833,471.5 413.5,471.5C 402.679,472.495 391.679,472.828 380.5,472.5C 380.5,467.167 380.5,461.833 380.5,456.5C 391.679,456.172 402.679,456.505 413.5,457.5 Z"/></g>
</svg>
