<?xml version="1.0" encoding="UTF-8"?>
<!DOCTYPE svg PUBLIC "-//W3C//DTD SVG 1.1//EN" "http://www.w3.org/Graphics/SVG/1.1/DTD/svg11.dtd">
<svg xmlns="http://www.w3.org/2000/svg" version="1.1" width="512px" height="512px" style="shape-rendering:geometricPrecision; text-rendering:geometricPrecision; image-rendering:optimizeQuality; fill-rule:evenodd; clip-rule:evenodd" xmlns:xlink="http://www.w3.org/1999/xlink">
<g><path style="opacity:0.972" fill="#000100" d="M 327.5,-0.5 C 330.5,-0.5 333.5,-0.5 336.5,-0.5C 341.908,3.76785 343.908,9.43452 342.5,16.5C 341.548,52.567 337.714,88.2337 331,123.5C 356.238,101.801 385.405,88.6339 418.5,84C 424.16,85.1636 427.16,88.6636 427.5,94.5C 421.75,126.323 408.75,154.657 388.5,179.5C 389.167,179.833 389.833,180.167 390.5,180.5C 428.075,172.376 466.075,168.543 504.5,169C 507.621,169.967 509.954,171.8 511.5,174.5C 511.5,177.5 511.5,180.5 511.5,183.5C 508.664,187.269 504.998,190.102 500.5,192C 415.342,236.412 330.342,281.078 245.5,326C 224.306,342.194 208.806,362.694 199,387.5C 195.944,405.229 192.611,422.896 189,440.5C 177.283,467.871 156.783,484.704 127.5,491C 109.037,495.109 91.0374,493.609 73.5,486.5C 73.1667,486.833 72.8333,487.167 72.5,487.5C 74.4451,492.001 75.7785,496.668 76.5,501.5C 76.5255,506.123 74.5255,509.456 70.5,511.5C 67.5,511.5 64.5,511.5 61.5,511.5C 59.8968,510.404 58.3968,509.07 57,507.5C 54.0504,497.982 50.7171,488.648 47,479.5C 41.1356,485.699 34.9689,491.532 28.5,497C 17,498.833 12.1667,494 14,482.5C 19.4677,476.031 25.301,469.864 31.5,464C 22.3518,460.283 13.0185,456.95 3.5,454C 1.92975,452.603 0.596413,451.103 -0.5,449.5C -0.5,446.5 -0.5,443.5 -0.5,440.5C 1.54373,436.474 4.87707,434.474 9.5,434.5C 14.8789,435.801 20.2123,436.968 25.5,438C 10.9719,399.1 18.3052,364.767 47.5,335C 55.494,328.502 64.494,323.836 74.5,321C 90.8179,317.919 107.151,314.919 123.5,312C 148.306,302.194 168.806,286.694 185,265.5C 231.51,178.483 277.51,91.1493 323,3.5C 324.397,1.92975 325.897,0.596413 327.5,-0.5 Z"/></g>
<g><path style="opacity:1" fill="#83e072" d="M 318.5,55.5 C 311.386,149.672 280.553,235.338 226,312.5C 218,321.833 210,331.167 202,340.5C 191.5,330 181,319.5 170.5,309C 185.845,297.659 198.345,283.826 208,267.5C 245.114,196.937 281.947,126.27 318.5,55.5 Z"/></g>
<g><path style="opacity:1" fill="#3aca90" d="M 398.5,108.5 C 399.833,108.5 401.167,108.5 402.5,108.5C 392.77,144.048 372.77,172.214 342.5,193C 330.306,197.009 318.306,201.509 306.5,206.5C 306.167,206.167 305.833,205.833 305.5,205.5C 310.361,193.752 314.527,181.752 318,169.5C 337.566,139.628 364.4,119.294 398.5,108.5 Z"/></g>
<g><path style="opacity:1" fill="#82df72" d="M 448.5,191.5 C 450.857,191.337 453.19,191.503 455.5,192C 391.615,226.104 327.615,259.27 263.5,291.5C 274.994,272.681 285.328,253.181 294.5,233C 343.753,211.022 395.087,197.189 448.5,191.5 Z"/></g>
<g><path style="opacity:1" fill="#eee4dc" d="M 152.5,320.5 C 165.761,332.092 178.427,344.426 190.5,357.5C 184.978,366.212 180.811,375.546 178,385.5C 175.255,398.717 173.255,412.051 172,425.5C 164.749,450.57 148.249,465.737 122.5,471C 87.6723,476.169 61.839,463.336 45,432.5C 32.5542,402.571 37.3876,375.905 59.5,352.5C 68.5808,344.301 79.2474,339.467 91.5,338C 108.769,336.928 125.435,333.261 141.5,327C 145.56,325.311 149.227,323.144 152.5,320.5 Z"/></g>
<g><path style="opacity:1" fill="#050505" d="M 146.5,350.5 C 157.041,349.539 161.541,354.205 160,364.5C 156.702,369.22 152.202,370.72 146.5,369C 144.333,368.167 142.833,366.667 142,364.5C 140.311,358.655 141.811,353.988 146.5,350.5 Z"/></g>
<g><path style="opacity:1" fill="#050505" d="M 142.5,389.5 C 148.327,388.937 152.494,391.27 155,396.5C 154.674,408.111 152.674,419.445 149,430.5C 141.389,442.55 130.556,449.383 116.5,451C 109.947,448.27 107.78,443.437 110,436.5C 111.5,435 113,433.5 114.5,432C 122.445,430.626 128.278,426.459 132,419.5C 132.963,411.425 134.296,403.425 136,395.5C 137.494,392.686 139.66,390.686 142.5,389.5 Z"/></g>
</svg>
