<?xml version="1.0" encoding="UTF-8"?>
<!DOCTYPE svg PUBLIC "-//W3C//DTD SVG 1.1//EN" "http://www.w3.org/Graphics/SVG/1.1/DTD/svg11.dtd">
<svg xmlns="http://www.w3.org/2000/svg" version="1.1" width="512px" height="512px" style="shape-rendering:geometricPrecision; text-rendering:geometricPrecision; image-rendering:optimizeQuality; fill-rule:evenodd; clip-rule:evenodd" xmlns:xlink="http://www.w3.org/1999/xlink">
<g><path style="opacity:0.978" fill="#020100" d="M 187.5,15.5 C 190.978,15.1842 194.312,15.6842 197.5,17C 204.464,23.0876 209.298,30.5876 212,39.5C 213.547,46.8327 215.047,54.166 216.5,61.5C 237.503,43.111 261.836,35.9443 289.5,40C 296.909,41.955 303.742,45.1217 310,49.5C 312.109,53.7809 311.942,57.9476 309.5,62C 292.563,69.1358 275.897,76.8024 259.5,85C 248.728,92.4361 240.062,101.769 233.5,113C 237.608,124.658 242.108,136.158 247,147.5C 248.833,149.333 250.667,151.167 252.5,153C 293.89,163.673 325.89,187.006 348.5,223C 354.942,223.083 361.275,223.749 367.5,225C 371.268,234.283 375.434,243.45 380,252.5C 387.04,262.431 396.207,269.598 407.5,274C 453.443,286.276 482.276,315.443 494,361.5C 501.559,408.844 486.392,447.011 448.5,476C 433.349,486.239 416.682,492.572 398.5,495C 367.167,495.667 335.833,495.667 304.5,495C 286.864,492.568 270.698,486.401 256,476.5C 255.097,477.701 253.931,478.535 252.5,479C 238.254,480.885 225.088,478.052 213,470.5C 209.071,480.085 203.238,488.251 195.5,495C 190.563,496.369 186.396,495.203 183,491.5C 177.861,485.551 174.027,478.884 171.5,471.5C 166.497,473.224 161.497,475.058 156.5,477C 147.23,479.624 137.897,479.957 128.5,478C 124.633,474.34 123.466,469.84 125,464.5C 127.105,455.288 130.605,446.621 135.5,438.5C 83.3176,427.811 46.4843,398.144 25,349.5C 3.57478,285.775 17.4081,230.942 66.5,185C 85.6122,170.111 106.945,159.444 130.5,153C 134.491,150.011 137.324,146.178 139,141.5C 142.361,131.946 145.861,122.446 149.5,113C 140.687,97.8543 128.354,86.5209 112.5,79C 99.3347,73.7223 86.3347,68.0556 73.5,62C 71.0577,57.9476 70.891,53.7809 73,49.5C 90.1184,38.244 108.618,35.4107 128.5,41C 142.475,45.4863 155.142,52.3196 166.5,61.5C 167.593,47.7818 171.76,35.1152 179,23.5C 181.729,20.6007 184.562,17.934 187.5,15.5 Z"/></g>
<g><path style="opacity:1" fill="#0fab5d" d="M 190.5,35.5 C 192.074,35.9371 193.241,36.9371 194,38.5C 199.073,51.7175 200.74,65.3842 199,79.5C 196.308,82.6919 193.808,86.0252 191.5,89.5C 189.192,86.0252 186.692,82.6919 184,79.5C 181.937,64.1005 184.104,49.4338 190.5,35.5 Z"/></g>
<g><path style="opacity:1" fill="#009851" d="M 101.5,54.5 C 116.9,54.13 131.233,57.9633 144.5,66C 159.357,75.3567 171.357,87.5233 180.5,102.5C 174.863,103.663 169.196,103.83 163.5,103C 154.452,88.285 142.452,76.6183 127.5,68C 118.618,63.7254 109.618,59.7254 100.5,56C 101.056,55.6174 101.389,55.1174 101.5,54.5 Z"/></g>
<g><path style="opacity:1" fill="#009851" d="M 266.5,54.5 C 272.021,54.0543 277.355,54.5543 282.5,56C 255.724,64.1332 234.724,79.7998 219.5,103C 213.804,103.83 208.137,103.663 202.5,102.5C 217.355,77.7513 238.689,61.7513 266.5,54.5 Z"/></g>
<g><path style="opacity:1" fill="#e79448" d="M 164.5,119.5 C 166.833,119.5 169.167,119.5 171.5,119.5C 170.041,130.962 167.874,142.296 165,153.5C 157.868,175.896 150.535,198.229 143,220.5C 135.941,244.679 133.608,269.346 136,294.5C 137.102,332.226 143.769,368.892 156,404.5C 158.897,410.627 162.064,416.627 165.5,422.5C 151.964,424.494 138.798,423.16 126,418.5C 120.333,404.5 114.667,390.5 109,376.5C 104.495,364.824 101.162,352.824 99,340.5C 95.7862,335.661 91.6196,334.494 86.5,337C 84.5559,338.722 83.5559,340.889 83.5,343.5C 84.6925,351.323 86.5258,358.99 89,366.5C 94.1743,381.698 99.5076,396.698 105,411.5C 57.8938,387.158 33.3938,348.324 31.5,295C 34.0213,243.763 57.688,205.93 102.5,181.5C 102.833,181.833 103.167,182.167 103.5,182.5C 83.5792,223.939 75.4126,267.606 79,313.5C 83.0913,320.681 88.0913,321.348 94,315.5C 91.0367,265.147 101.537,217.813 125.5,173.5C 135.668,170.67 143.835,165.003 150,156.5C 155.401,144.369 160.234,132.036 164.5,119.5 Z"/></g>
<g><path style="opacity:1" fill="#ed9e5f" d="M 232.5,223.5 C 233.501,228.839 234.501,234.172 235.5,239.5C 232.202,240.914 230.202,243.414 229.5,247C 232.125,270.833 231.959,294.666 229,318.5C 210.519,344.761 203.852,373.761 209,405.5C 205.926,411.808 201.76,417.308 196.5,422C 193.167,424 189.833,424 186.5,422C 180.094,416.384 175.261,409.55 172,401.5C 158.509,365.444 151.842,328.111 152,289.5C 149.747,264.191 152.747,239.524 161,215.5C 173.245,184.765 182.245,153.098 188,120.5C 190.333,119.167 192.667,119.167 195,120.5C 197.584,135.673 200.917,150.673 205,165.5C 211,183.5 217,201.5 223,219.5C 225.408,222.62 228.574,223.953 232.5,223.5 Z"/></g>
<g><path style="opacity:1" fill="#e79448" d="M 248.5,297.5 C 247.518,294.038 247.185,290.371 247.5,286.5C 248.094,272.392 247.261,258.392 245,244.5C 242.961,240.864 239.794,239.198 235.5,239.5C 234.501,234.172 233.501,228.839 232.5,223.5C 237.257,220.508 238.757,216.175 237,210.5C 230.264,191.626 223.931,172.626 218,153.5C 214.878,142.345 212.711,131.011 211.5,119.5C 213.924,119.192 216.257,119.526 218.5,120.5C 222.278,129.724 225.778,139.057 229,148.5C 234.263,161.06 243.43,169.394 256.5,173.5C 271.844,202.034 281.678,232.367 286,264.5C 286.828,268.871 286.661,273.205 285.5,277.5C 272.118,282.356 259.784,289.022 248.5,297.5 Z"/></g>
<g><path style="opacity:1" fill="#e79448" d="M 277.5,180.5 C 301.672,191.169 320.338,208.002 333.5,231C 329.013,248.819 318.847,262.319 303,271.5C 299.67,239.683 291.17,209.349 277.5,180.5 Z"/></g>
<g><path style="opacity:1" fill="#e79448" d="M 346.5,239.5 C 349.898,239.18 353.232,239.513 356.5,240.5C 363.713,264.546 379.046,281.046 402.5,290C 445.122,300.621 470.622,327.454 479,370.5C 482.467,417.421 463.301,451.254 421.5,472C 412.811,475.564 403.811,477.897 394.5,479C 365.167,479.667 335.833,479.667 306.5,479C 264.71,470.876 237.877,446.376 226,405.5C 218.089,354.487 237.255,317.654 283.5,295C 306.398,290.731 324.565,279.231 338,260.5C 341.919,253.904 344.752,246.904 346.5,239.5 Z"/></g>
<g><path style="opacity:1" fill="#040201" d="M 348.5,274.5 C 350.857,274.337 353.19,274.503 355.5,275C 364.04,285.217 374.04,293.551 385.5,300C 399.004,304.945 412.337,310.278 425.5,316C 461.067,341.073 471.567,374.24 457,415.5C 453.679,423.146 449.179,429.979 443.5,436C 436.931,438.475 432.931,436.142 431.5,429C 434.938,422.871 438.438,416.705 442,410.5C 454.793,373.538 444.293,345.372 410.5,326C 387.919,320.713 368.252,310.213 351.5,294.5C 342.886,302.808 333.22,309.642 322.5,315C 314.333,316.167 310.833,312.667 312,304.5C 319.921,299.123 327.754,293.623 335.5,288C 340.092,283.578 344.425,279.078 348.5,274.5 Z"/></g>
<g><path style="opacity:1" fill="#764c24" d="M 247.5,286.5 C 247.185,290.371 247.518,294.038 248.5,297.5C 248.217,298.289 247.717,298.956 247,299.5C 246.186,294.98 246.353,290.646 247.5,286.5 Z"/></g>
<g><path style="opacity:1" fill="#060301" d="M 349.5,317.5 C 350.873,317.343 352.207,317.51 353.5,318C 362.016,323.761 371.016,328.761 380.5,333C 384.446,337.128 384.446,341.295 380.5,345.5C 378.043,347.225 375.377,347.725 372.5,347C 365.179,343.675 358.179,339.841 351.5,335.5C 345.961,338.867 340.294,342.034 334.5,345C 323.822,349.003 313.156,353.003 302.5,357C 299.37,359.128 296.537,361.628 294,364.5C 290.776,370.189 287.943,376.023 285.5,382C 277.889,385.194 273.556,382.694 272.5,374.5C 275.775,360.092 283.775,349.259 296.5,342C 315.761,336.983 333.427,328.816 349.5,317.5 Z"/></g>
<g><path style="opacity:1" fill="#040201" d="M 268.5,322.5 C 276.372,322.201 279.872,325.868 279,333.5C 251.097,361.392 248.097,391.725 270,424.5C 280.549,436.526 293.715,444.026 309.5,447C 336.833,447.667 364.167,447.667 391.5,447C 397.651,444.095 402.817,445.262 407,450.5C 408.361,455.274 406.861,458.774 402.5,461C 399.247,462.036 395.914,462.703 392.5,463C 364.167,463.667 335.833,463.667 307.5,463C 274.024,455.866 252.191,436.033 242,403.5C 235.152,371.212 243.985,344.212 268.5,322.5 Z"/></g>
<g><path style="opacity:1" fill="#030201" d="M 403.5,344.5 C 406.187,344.336 408.854,344.503 411.5,345C 432.631,362.488 437.131,383.655 425,408.5C 416.68,421.417 404.846,428.917 389.5,431C 363.167,431.667 336.833,431.667 310.5,431C 298.503,428.253 288.669,422.086 281,412.5C 278.019,405.826 280.019,401.492 287,399.5C 289.321,399.909 291.487,400.743 293.5,402C 298.181,408.671 304.515,413.004 312.5,415C 338.5,415.667 364.5,415.667 390.5,415C 409.225,408.933 417.391,396.1 415,376.5C 413.607,372.714 411.941,369.048 410,365.5C 406.297,362.133 402.964,358.466 400,354.5C 399.182,350.469 400.349,347.136 403.5,344.5 Z"/></g>
<g><path style="opacity:1" fill="#040201" d="M 348.5,355.5 C 355.846,356.831 362.846,359.331 369.5,363C 376.363,365.732 383.363,368.066 390.5,370C 394.926,375.441 394.259,380.108 388.5,384C 386.167,384.667 383.833,384.667 381.5,384C 371.163,380.996 361.163,377.163 351.5,372.5C 342.444,376.686 333.11,380.186 323.5,383C 337.235,383.054 350.902,383.72 364.5,385C 368.379,389.298 368.379,393.631 364.5,398C 355.738,399.124 346.905,399.624 338,399.5C 330.167,399.333 322.333,399.167 314.5,399C 304.255,393.857 301.422,386.023 306,375.5C 308.264,372.567 311.098,370.4 314.5,369C 326.474,365.837 337.807,361.337 348.5,355.5 Z"/></g>
<g><path style="opacity:1" fill="#e59347" d="M 154.5,439.5 C 177.169,439.333 199.836,439.5 222.5,440C 227.784,447.619 233.451,454.952 239.5,462C 235.318,462.611 231.318,461.944 227.5,460C 221.819,456.827 216.486,453.161 211.5,449C 206.867,446.393 203.033,447.226 200,451.5C 198.954,457.642 197.288,463.642 195,469.5C 194.028,471.305 192.861,472.972 191.5,474.5C 187.122,468.203 184.622,461.203 184,453.5C 181.179,449.337 177.345,447.837 172.5,449C 164.137,457.183 154.137,461.516 142.5,462C 145.861,454.108 149.861,446.608 154.5,439.5 Z"/></g>
</svg>
