<?xml version="1.0" encoding="UTF-8"?>
<!DOCTYPE svg PUBLIC "-//W3C//DTD SVG 1.1//EN" "http://www.w3.org/Graphics/SVG/1.1/DTD/svg11.dtd">
<svg xmlns="http://www.w3.org/2000/svg" version="1.1" width="512px" height="512px" style="shape-rendering:geometricPrecision; text-rendering:geometricPrecision; image-rendering:optimizeQuality; fill-rule:evenodd; clip-rule:evenodd" xmlns:xlink="http://www.w3.org/1999/xlink">
<g><path style="opacity:0.981" fill="#020201" d="M 178.5,-0.5 C 185.5,-0.5 192.5,-0.5 199.5,-0.5C 217.246,3.4669 232.08,12.4669 244,26.5C 249.997,34.4905 255.497,42.8238 260.5,51.5C 268.747,40.4195 278.747,31.2529 290.5,24C 303.78,17.5777 317.78,15.0777 332.5,16.5C 334.052,32.5259 330.886,47.5259 323,61.5C 316.379,70.4561 309.379,79.1228 302,87.5C 292.831,102.177 288.998,118.177 290.5,135.5C 296.167,135.5 301.833,135.5 307.5,135.5C 305.439,159.871 314.106,179.371 333.5,194C 355.859,210.181 377.859,226.848 399.5,244C 440.75,286.167 452.916,335.667 436,392.5C 417.601,439.896 383.767,470.062 334.5,483C 325.503,484.498 316.503,485.832 307.5,487C 313.067,494.203 315.734,502.369 315.5,511.5C 309.5,511.5 303.5,511.5 297.5,511.5C 296.867,500.713 291.701,493.046 282,488.5C 281.5,488.667 281,488.833 280.5,489C 281.481,496.413 281.814,503.913 281.5,511.5C 275.5,511.5 269.5,511.5 263.5,511.5C 263.666,505.158 263.5,498.825 263,492.5C 260.326,486.364 256.16,485.03 250.5,488.5C 249.416,489.665 248.583,490.998 248,492.5C 247.5,498.825 247.334,505.158 247.5,511.5C 241.5,511.5 235.5,511.5 229.5,511.5C 229.186,503.913 229.519,496.413 230.5,489C 227.261,489.446 224.261,490.779 221.5,493C 216.412,498.091 213.745,504.257 213.5,511.5C 207.5,511.5 201.5,511.5 195.5,511.5C 195.277,502.335 197.944,494.169 203.5,487C 139.819,481.441 96.6526,448.941 74,389.5C 58.4979,333.037 71.3313,284.204 112.5,243C 133.987,226.424 155.654,210.09 177.5,194C 196.9,179.36 205.566,159.86 203.5,135.5C 209.167,135.5 214.833,135.5 220.5,135.5C 226.019,101.889 216.519,73.5555 192,50.5C 181.418,35.1773 176.918,18.1773 178.5,-0.5 Z"/></g>
<g><path style="opacity:1" fill="#32b800" d="M 196.5,17.5 C 210.9,20.6203 222.734,27.9537 232,39.5C 253.141,68.4039 260.975,100.737 255.5,136.5C 249.833,136.5 244.167,136.5 238.5,136.5C 242.221,108.939 237.055,83.272 223,59.5C 215.621,51.1228 208.621,42.4561 202,33.5C 199.551,28.3664 197.718,23.0331 196.5,17.5 Z"/></g>
<g><path style="opacity:1" fill="#007d00" d="M 311.5,34.5 C 312.675,34.281 313.675,34.6143 314.5,35.5C 313.125,40.6686 311.291,45.6686 309,50.5C 303.756,58.4144 297.756,65.7477 291,72.5C 281.079,86.2571 275.079,101.59 273,118.5C 272.667,110.167 272.333,101.833 272,93.5C 270.339,86.2112 269.339,78.8779 269,71.5C 278.455,53.5317 292.622,41.1984 311.5,34.5 Z"/></g>
<g><path style="opacity:1" fill="#6d563c" d="M 293.5,167.5 C 292.833,167.5 292.5,167.833 292.5,168.5C 290.848,164.756 290.348,160.756 291,156.5C 291.407,160.285 292.241,163.952 293.5,167.5 Z"/></g>
<g><path style="opacity:1" fill="#6e573c" d="M 218.5,168.5 C 218.5,167.833 218.167,167.5 217.5,167.5C 218.759,163.952 219.593,160.285 220,156.5C 220.652,160.756 220.152,164.756 218.5,168.5 Z"/></g>
<g><path style="opacity:1" fill="#fae8cb" d="M 253.5,170.5 C 254.833,170.5 256.167,170.5 257.5,170.5C 260.962,203.346 270.462,234.346 286,263.5C 293.416,276.001 301.083,288.335 309,300.5C 330.581,336.725 336.581,375.391 327,416.5C 311.837,454.609 283.671,471.776 242.5,468C 211.694,461.192 191.861,442.692 183,412.5C 174.821,375.596 179.821,340.596 198,307.5C 207,292.833 216,278.167 225,263.5C 240.848,234.439 250.348,203.439 253.5,170.5 Z"/></g>
<g><path style="opacity:1" fill="#94816c" d="M 235.5,177.5 C 235.672,176.508 235.338,175.842 234.5,175.5C 235.524,170.545 236.357,165.545 237,160.5C 237.547,166.384 237.047,172.051 235.5,177.5 Z"/></g>
<g><path style="opacity:1" fill="#f8c487" d="M 217.5,167.5 C 218.167,167.5 218.5,167.833 218.5,168.5C 214.604,187.623 206.437,204.623 194,219.5C 175.305,237.862 156.971,256.528 139,275.5C 106.217,319.583 101.55,366.583 125,416.5C 134.29,433.124 146.457,447.291 161.5,459C 127.66,445.824 104.494,421.99 92,387.5C 75.5389,330.893 90.0389,284.06 135.5,247C 155.345,232.577 175.012,217.91 194.5,203C 205.598,193.4 213.264,181.567 217.5,167.5 Z"/></g>
<g><path style="opacity:1" fill="#f7c387" d="M 293.5,167.5 C 298.02,181.372 305.686,193.206 316.5,203C 335.988,217.91 355.655,232.577 375.5,247C 416.982,279.821 432.816,322.321 423,374.5C 413.284,412.132 391.117,439.632 356.5,457C 354.156,458.028 351.823,458.694 349.5,459C 382.745,432.508 399.745,397.841 400.5,355C 399.465,322.445 388.299,293.945 367,269.5C 347.273,250.441 328.273,230.774 310,210.5C 301.537,197.615 295.704,183.615 292.5,168.5C 292.5,167.833 292.833,167.5 293.5,167.5 Z"/></g>
<g><path style="opacity:1" fill="#f6d8b4" d="M 234.5,175.5 C 235.338,175.842 235.672,176.508 235.5,177.5C 231.715,205.023 223.215,231.023 210,255.5C 198.496,273.837 187.496,292.504 177,311.5C 162.285,344.267 158.619,378.267 166,413.5C 169.202,429.479 176.369,443.313 187.5,455C 160.018,440.655 141.518,418.488 132,388.5C 121.452,348.033 129.785,312.033 157,280.5C 176.727,261.441 195.727,241.774 214,221.5C 223.82,207.525 230.653,192.191 234.5,175.5 Z"/></g>
<g><path style="opacity:1" fill="#f6d7b4" d="M 274.5,170.5 C 279.772,192.712 289.606,212.712 304,230.5C 325.428,250.925 345.762,272.258 365,294.5C 387.383,331.393 389.383,369.393 371,408.5C 359.971,429.198 344.138,444.698 323.5,455C 334.631,443.313 341.798,429.479 345,413.5C 353.867,370.368 346.867,330.035 324,292.5C 304.917,266.333 290.583,237.666 281,206.5C 277.862,194.67 275.695,182.67 274.5,170.5 Z"/></g>
</svg>
