<?xml version="1.0" encoding="UTF-8"?>
<!DOCTYPE svg PUBLIC "-//W3C//DTD SVG 1.1//EN" "http://www.w3.org/Graphics/SVG/1.1/DTD/svg11.dtd">
<svg xmlns="http://www.w3.org/2000/svg" version="1.1" width="512px" height="512px" style="shape-rendering:geometricPrecision; text-rendering:geometricPrecision; image-rendering:optimizeQuality; fill-rule:evenodd; clip-rule:evenodd" xmlns:xlink="http://www.w3.org/1999/xlink">
<g><path style="opacity:0.95" fill="#010000" d="M 247.5,20.5 C 266.31,17.6483 279.143,24.9817 286,42.5C 290.098,62.472 282.598,75.972 263.5,83C 244.957,85.8167 232.124,78.6501 225,61.5C 221.045,41.4011 228.545,27.7345 247.5,20.5 Z"/></g>
<g><path style="opacity:1" fill="#b66d30" d="M 250.5,34.5 C 269.277,34.7363 275.777,43.7363 270,61.5C 261.975,70.8777 252.975,71.8777 243,64.5C 234.938,51.6441 237.438,41.6441 250.5,34.5 Z"/></g>
<g><path style="opacity:0.944" fill="#010000" d="M 314.5,73.5 C 335.372,71.8841 347.039,81.3841 349.5,102C 348.043,119.457 338.543,128.957 321,130.5C 303.495,128.995 293.995,119.495 292.5,102C 293.319,87.3604 300.652,77.8604 314.5,73.5 Z"/></g>
<g><path style="opacity:0.942" fill="#010000" d="M 181.5,78.5 C 203.301,78.7994 213.467,89.7994 212,111.5C 206.622,127.614 195.455,134.114 178.5,131C 163.745,125.669 157.578,115.169 160,99.5C 163.115,88.217 170.282,81.217 181.5,78.5 Z"/></g>
<g><path style="opacity:0.98" fill="#020101" d="M 432.5,144.5 C 430.903,141.681 430.403,138.681 431,135.5C 438.279,128.221 445.613,120.887 453,113.5C 457.049,100.902 452.549,94.4021 439.5,94C 437.275,94.5611 435.275,95.5611 433.5,97C 410.349,121.651 387.016,146.151 363.5,170.5C 366.668,175.834 369.001,181.501 370.5,187.5C 372.074,188.631 373.741,188.798 375.5,188C 386.137,178.364 396.471,168.364 406.5,158C 409.981,156.001 413.315,156.168 416.5,158.5C 418.842,161.717 419.009,165.05 417,168.5C 407.53,176.969 398.363,185.803 389.5,195C 398.42,202.678 404.42,212.178 407.5,223.5C 426.659,228.324 438.326,240.324 442.5,259.5C 457.504,259.333 472.504,259.5 487.5,260C 489.788,261.959 491.121,264.459 491.5,267.5C 491.576,328.141 470.576,379.974 428.5,423C 418.536,431.799 407.869,439.632 396.5,446.5C 395.667,460.154 395.167,473.821 395,487.5C 394.167,488.333 393.333,489.167 392.5,490C 353.5,490.667 314.5,490.667 275.5,490C 273.081,488.491 272.081,486.325 272.5,483.5C 272.744,480.737 274.077,478.571 276.5,477C 311.498,476.5 346.498,476.333 381.5,476.5C 381.5,467.5 381.5,458.5 381.5,449.5C 297.5,449.5 213.5,449.5 129.5,449.5C 129.5,458.5 129.5,467.5 129.5,476.5C 149.169,476.333 168.836,476.5 188.5,477C 191.492,478.272 193.159,480.438 193.5,483.5C 193.451,486.099 192.451,488.266 190.5,490C 166.5,490.667 142.5,490.667 118.5,490C 117.667,489.167 116.833,488.333 116,487.5C 115.833,473.821 115.333,460.154 114.5,446.5C 57.7778,409.771 26.6111,357.438 21,289.5C 20.3333,280.5 20.3333,271.5 21,262.5C 21.8333,261.667 22.6667,260.833 23.5,260C 38.4963,259.5 53.4963,259.333 68.5,259.5C 72.6742,240.324 84.3409,228.324 103.5,223.5C 108.492,204.508 120.492,192.508 139.5,187.5C 149.092,157.748 169.092,146.582 199.5,154C 207.763,157.095 214.429,162.261 219.5,169.5C 234.248,151.535 252.582,146.701 274.5,155C 281.221,158.551 286.887,163.384 291.5,169.5C 306.31,151.713 324.643,146.88 346.5,155C 348.833,156.5 351.167,158 353.5,159.5C 377.652,134.181 401.985,109.015 426.5,84C 439.145,77.1797 450.979,78.3464 462,87.5C 473.401,104.773 470.901,119.939 454.5,133C 450.2,136.298 446.2,139.965 442.5,144C 439.247,145.82 435.913,145.987 432.5,144.5 Z"/></g>
<g><path style="opacity:1" fill="#b56c2f" d="M 317.5,87.5 C 329.526,87.0273 335.359,92.694 335,104.5C 331.853,114.007 325.353,117.507 315.5,115C 307.963,110.968 305.463,104.802 308,96.5C 310.256,92.47 313.422,89.47 317.5,87.5 Z"/></g>
<g><path style="opacity:1" fill="#b56c2f" d="M 181.5,93.5 C 192.651,92.4902 198.151,97.4902 198,108.5C 193.635,117.066 187.135,119.233 178.5,115C 171.3,106.697 172.3,99.5307 181.5,93.5 Z"/></g>
<g><path style="opacity:0.998" fill="#fbd62d" d="M 432.5,144.5 C 427.463,149.539 422.129,154.206 416.5,158.5C 413.315,156.168 409.981,156.001 406.5,158C 396.471,168.364 386.137,178.364 375.5,188C 373.741,188.798 372.074,188.631 370.5,187.5C 369.001,181.501 366.668,175.834 363.5,170.5C 387.016,146.151 410.349,121.651 433.5,97C 435.275,95.5611 437.275,94.5611 439.5,94C 452.549,94.4021 457.049,100.902 453,113.5C 445.613,120.887 438.279,128.221 431,135.5C 430.403,138.681 430.903,141.681 432.5,144.5 Z"/></g>
<g><path style="opacity:1" fill="#b76d30" d="M 176.5,165.5 C 193.672,163.859 205.339,171.026 211.5,187C 200.353,190.753 191.02,197.253 183.5,206.5C 176.45,196.974 167.117,190.974 155.5,188.5C 156.306,183.22 158.473,178.554 162,174.5C 166.343,170.585 171.177,167.585 176.5,165.5 Z"/></g>
<g><path style="opacity:1" fill="#b76d30" d="M 249.5,165.5 C 266.286,163.884 277.62,170.884 283.5,186.5C 283.167,187.167 282.833,187.833 282.5,188.5C 271.347,191.328 262.347,197.328 255.5,206.5C 248.653,197.328 239.653,191.328 228.5,188.5C 227.752,184.929 228.585,181.595 231,178.5C 235.713,171.931 241.88,167.598 249.5,165.5 Z"/></g>
<g><path style="opacity:1" fill="#b76d30" d="M 321.5,165.5 C 338.326,163.901 349.66,170.901 355.5,186.5C 355.167,187.167 354.833,187.833 354.5,188.5C 343.347,191.328 334.347,197.328 327.5,206.5C 319.98,197.253 310.647,190.753 299.5,187C 303.438,176.227 310.771,169.06 321.5,165.5 Z"/></g>
<g><path style="opacity:1" fill="#a75925" d="M 141.5,201.5 C 158.169,200.33 169.502,207.496 175.5,223C 164.353,226.753 155.02,233.253 147.5,242.5C 140.484,232.987 131.151,226.987 119.5,224.5C 122.082,212.252 129.416,204.585 141.5,201.5 Z"/></g>
<g><path style="opacity:1" fill="#a75925" d="M 213.5,201.5 C 230.169,200.33 241.502,207.496 247.5,223C 236.315,226.766 226.982,233.266 219.5,242.5C 212.66,233.338 203.66,227.338 192.5,224.5C 191.752,220.929 192.585,217.595 195,214.5C 199.963,208.284 206.13,203.95 213.5,201.5 Z"/></g>
<g><path style="opacity:1" fill="#a75925" d="M 285.5,201.5 C 302.326,199.901 313.66,206.901 319.5,222.5C 319.167,223.167 318.833,223.833 318.5,224.5C 307.347,227.328 298.347,233.328 291.5,242.5C 284.653,233.328 275.653,227.328 264.5,224.5C 264.167,223.833 263.833,223.167 263.5,222.5C 267.644,212.019 274.978,205.019 285.5,201.5 Z"/></g>
<g><path style="opacity:1" fill="#a75925" d="M 357.5,201.5 C 370.22,200.121 380.387,204.454 388,214.5C 390.035,217.561 391.201,220.895 391.5,224.5C 379.883,226.974 370.55,232.974 363.5,242.5C 355.98,233.253 346.647,226.753 335.5,223C 339.43,212.236 346.763,205.069 357.5,201.5 Z"/></g>
<g><path style="opacity:1" fill="#b76d30" d="M 105.5,237.5 C 121.902,236.365 133.236,243.365 139.5,258.5C 120.845,259.5 102.179,259.833 83.5,259.5C 86.5325,247.801 93.8658,240.467 105.5,237.5 Z"/></g>
<g><path style="opacity:1" fill="#b76d30" d="M 177.5,237.5 C 193.95,236.294 205.283,243.294 211.5,258.5C 192.845,259.5 174.179,259.833 155.5,259.5C 159.199,248.468 166.532,241.135 177.5,237.5 Z"/></g>
<g><path style="opacity:1" fill="#b76d30" d="M 249.5,237.5 C 266.464,236.306 277.797,243.639 283.5,259.5C 264.833,259.5 246.167,259.5 227.5,259.5C 231.19,248.477 238.523,241.143 249.5,237.5 Z"/></g>
<g><path style="opacity:1" fill="#b76d30" d="M 321.5,237.5 C 334.138,236.192 344.305,240.526 352,250.5C 353.741,253.309 354.908,256.309 355.5,259.5C 336.821,259.833 318.155,259.5 299.5,258.5C 303.64,248.024 310.974,241.024 321.5,237.5 Z"/></g>
<g><path style="opacity:1" fill="#b76d30" d="M 393.5,237.5 C 410.901,235.847 422.235,243.18 427.5,259.5C 408.821,259.833 390.155,259.5 371.5,258.5C 375.64,248.024 382.974,241.024 393.5,237.5 Z"/></g>
<g><path style="opacity:1" fill="#2bbad5" d="M 475.5,283.5 C 475.5,280.5 475.5,277.5 475.5,274.5C 328.833,274.5 182.167,274.5 35.5,274.5C 35.5,277.5 35.5,280.5 35.5,283.5C 34.5206,280.375 34.1872,277.042 34.5,273.5C 181.833,273.5 329.167,273.5 476.5,273.5C 476.813,277.042 476.479,280.375 475.5,283.5 Z"/></g>
<g><path style="opacity:1" fill="#32d8f7" d="M 475.5,283.5 C 471.979,349.422 442.645,399.922 387.5,435C 299.5,435.667 211.5,435.667 123.5,435C 68.3357,399.878 39.0023,349.378 35.5,283.5C 35.5,280.5 35.5,277.5 35.5,274.5C 182.167,274.5 328.833,274.5 475.5,274.5C 475.5,277.5 475.5,280.5 475.5,283.5 Z"/></g>
<g><path style="opacity:1" fill="#2bbff0" d="M 272.5,483.5 C 264.5,483.5 256.5,483.5 248.5,483.5C 248.159,480.438 246.492,478.272 243.5,477C 235.833,476.333 228.167,476.333 220.5,477C 217.508,478.272 215.841,480.438 215.5,483.5C 208.167,483.5 200.833,483.5 193.5,483.5C 193.159,480.438 191.492,478.272 188.5,477C 168.836,476.5 149.169,476.333 129.5,476.5C 129.5,467.5 129.5,458.5 129.5,449.5C 213.5,449.5 297.5,449.5 381.5,449.5C 381.5,458.5 381.5,467.5 381.5,476.5C 346.498,476.333 311.498,476.5 276.5,477C 274.077,478.571 272.744,480.737 272.5,483.5 Z"/></g>
<g><path style="opacity:0.969" fill="#000102" d="M 248.5,483.5 C 248.556,486.561 247.222,488.728 244.5,490C 236.167,490.667 227.833,490.667 219.5,490C 216.778,488.728 215.444,486.561 215.5,483.5C 215.841,480.438 217.508,478.272 220.5,477C 228.167,476.333 235.833,476.333 243.5,477C 246.492,478.272 248.159,480.438 248.5,483.5 Z"/></g>
</svg>
