<?xml version="1.0" encoding="UTF-8"?>
<!DOCTYPE svg PUBLIC "-//W3C//DTD SVG 1.1//EN" "http://www.w3.org/Graphics/SVG/1.1/DTD/svg11.dtd">
<svg xmlns="http://www.w3.org/2000/svg" version="1.1" width="512px" height="512px" style="shape-rendering:geometricPrecision; text-rendering:geometricPrecision; image-rendering:optimizeQuality; fill-rule:evenodd; clip-rule:evenodd" xmlns:xlink="http://www.w3.org/1999/xlink">
<g><path style="opacity:0.962" fill="#010000" d="M 341.5,-0.5 C 349.167,-0.5 356.833,-0.5 364.5,-0.5C 373.005,1.57985 381.005,5.07985 388.5,10C 408.059,25.9929 425.226,44.1595 440,64.5C 447,74.1667 454,83.8333 461,93.5C 463,97.5 463,101.5 461,105.5C 424.127,126.45 384.961,132.284 343.5,123C 312.769,115.27 294.936,95.7704 290,64.5C 270.501,89.171 259.001,117.171 255.5,148.5C 256.928,175.026 268.095,196.359 289,212.5C 303.915,167.35 335.249,143.684 383,141.5C 417.612,143.473 446.278,157.473 469,183.5C 492.751,212.003 506.918,244.67 511.5,281.5C 511.5,292.167 511.5,302.833 511.5,313.5C 502.382,376.788 467.382,418.288 406.5,438C 365.649,448.148 326.316,443.982 288.5,425.5C 270.505,458.66 244.505,483.493 210.5,500C 197.105,505.262 183.438,509.095 169.5,511.5C 158.5,511.5 147.5,511.5 136.5,511.5C 69.6368,498.273 26.1368,458.939 6,393.5C 3.22802,382.476 1.06135,371.476 -0.5,360.5C -0.5,351.5 -0.5,342.5 -0.5,333.5C 3.98387,298.851 20.6505,271.685 49.5,252C 80.4241,234.983 111.757,234.149 143.5,249.5C 146.499,217.843 151.999,186.51 160,155.5C 170.517,114.613 190.683,79.4464 220.5,50C 246.302,28.9469 275.969,17.6136 309.5,16C 318.713,7.56087 329.38,2.06087 341.5,-0.5 Z M 283.5,37.5 C 285.355,37.272 286.188,37.9387 286,39.5C 265.014,63.7985 250.014,91.4651 241,122.5C 232.029,162.584 242.863,196.084 273.5,223C 260.975,228.176 249.475,235.01 239,243.5C 213.483,235.473 188.649,237.14 164.5,248.5C 165.252,196.492 177.752,147.492 202,101.5C 220.577,69.0754 247.743,47.7421 283.5,37.5 Z"/></g>
<g><path style="opacity:1" fill="#2d7c31" d="M 415.5,105.5 C 397.279,76.9654 375.612,51.1321 350.5,28C 346.025,24.4289 341.025,21.9289 335.5,20.5C 340.042,17.9173 345.042,16.5839 350.5,16.5C 364.073,16.2996 375.739,20.7996 385.5,30C 405.828,50.7001 424.495,72.7001 441.5,96C 433.062,99.8674 424.395,103.034 415.5,105.5 Z"/></g>
<g><path style="opacity:1" fill="#4bae4f" d="M 335.5,20.5 C 341.025,21.9289 346.025,24.4289 350.5,28C 375.612,51.1321 397.279,76.9654 415.5,105.5C 397.698,109.167 379.698,110.333 361.5,109C 345.508,107.456 331.674,101.289 320,90.5C 308.852,76.4947 305.852,60.8281 311,43.5C 316.166,32.4962 324.333,24.8295 335.5,20.5 Z"/></g>
<g><path style="opacity:1" fill="#c32727" d="M 461.5,383.5 C 466.353,371.776 470.52,359.776 474,347.5C 476.217,337.075 476.717,326.742 475.5,316.5C 476.747,309.48 476.747,302.48 475.5,295.5C 468.765,250.839 447.765,214.672 412.5,187C 389.608,172.863 364.941,168.03 338.5,172.5C 354.807,161.668 372.807,157.501 392.5,160C 420.501,164.414 443.001,177.914 460,200.5C 496.093,247.39 503.427,298.39 482,353.5C 476.866,364.776 470.033,374.776 461.5,383.5 Z"/></g>
<g><path style="opacity:1" fill="#f34234" d="M 475.5,295.5 C 469.862,290.931 465.028,291.597 461,297.5C 460.026,323.447 450.692,345.78 433,364.5C 429.429,369.988 430.262,374.822 435.5,379C 437.833,379.667 440.167,379.667 442.5,379C 460.192,361.786 471.192,340.953 475.5,316.5C 476.717,326.742 476.217,337.075 474,347.5C 470.52,359.776 466.353,371.776 461.5,383.5C 447.867,399.169 431.2,410.669 411.5,418C 371.282,431.528 332.449,428.361 295,408.5C 300.183,392.596 303.85,376.262 306,359.5C 309.337,321.038 297.17,288.538 269.5,262C 265.167,259 260.833,256 256.5,253C 266.555,244.724 278.055,239.558 291,237.5C 297.762,239.629 304.262,242.462 310.5,246C 319.61,248.216 323.777,244.716 323,235.5C 322.535,234.069 321.701,232.903 320.5,232C 315.588,229.628 310.755,227.128 306,224.5C 308.966,202.231 319.8,184.898 338.5,172.5C 364.941,168.03 389.608,172.863 412.5,187C 447.765,214.672 468.765,250.839 475.5,295.5 Z"/></g>
<g><path style="opacity:1" fill="#070201" d="M 371.5,176.5 C 376.998,176.068 382.331,176.735 387.5,178.5C 391.926,184.017 391.26,188.85 385.5,193C 379.006,193.068 372.673,194.068 366.5,196C 359.289,199.236 352.622,203.236 346.5,208C 338.782,208.106 335.616,204.273 337,196.5C 341.579,190.926 347.079,186.426 353.5,183C 359.43,180.304 365.43,178.137 371.5,176.5 Z"/></g>
<g><path style="opacity:1" fill="#c02727" d="M 143.5,270.5 C 138.968,271.763 134.635,273.597 130.5,276C 126.656,278.515 122.823,281.015 119,283.5C 115.569,281.739 112.403,279.572 109.5,277C 108.251,276.26 107.251,276.427 106.5,277.5C 105.684,275.856 104.35,274.69 102.5,274C 98.5138,273.501 94.5138,273.334 90.5,273.5C 93.3054,272.681 96.3054,272.181 99.5,272C 88.3337,267.139 76.6671,264.639 64.5,264.5C 84.4904,253.903 105.157,252.736 126.5,261C 132.825,263.196 138.491,266.363 143.5,270.5 Z"/></g>
<g><path style="opacity:1" fill="#c22727" d="M 223.5,472.5 C 229.647,463.558 235.813,454.558 242,445.5C 253.815,423.568 260.982,400.235 263.5,375.5C 262.757,374.818 262.091,374.151 261.5,373.5C 265.493,373.755 268.326,372.089 270,368.5C 271.895,359.576 272.562,350.576 272,341.5C 269.847,335.341 265.681,333.341 259.5,335.5C 250.186,299.351 227.519,276.185 191.5,266C 185.535,265.037 179.535,264.537 173.5,264.5C 183.854,258.409 195.188,255.409 207.5,255.5C 249.323,259.479 275.823,281.812 287,322.5C 294.152,378.051 277.318,424.884 236.5,463C 232.137,466.176 227.804,469.343 223.5,472.5 Z"/></g>
<g><path style="opacity:1" fill="#f34234" d="M 64.5,264.5 C 76.6671,264.639 88.3337,267.139 99.5,272C 96.3054,272.181 93.3054,272.681 90.5,273.5C 65.5709,278.919 48.4042,293.585 39,317.5C 35.3862,327.183 33.7195,337.183 34,347.5C 35.756,353.964 39.9227,356.13 46.5,354C 47.6667,352.833 48.8333,351.667 50,350.5C 49.4705,329.734 56.9705,312.568 72.5,299C 81.3197,292.291 91.3197,288.958 102.5,289C 107.251,286.276 108.584,282.442 106.5,277.5C 107.251,276.427 108.251,276.26 109.5,277C 112.403,279.572 115.569,281.739 119,283.5C 122.823,281.015 126.656,278.515 130.5,276C 134.635,273.597 138.968,271.763 143.5,270.5C 144.169,275.396 145.002,280.396 146,285.5C 151.408,291.012 156.408,290.679 161,284.5C 161.333,280.167 161.667,275.833 162,271.5C 165.21,268.12 169.043,265.787 173.5,264.5C 179.535,264.537 185.535,265.037 191.5,266C 227.519,276.185 250.186,299.351 259.5,335.5C 258.542,336.962 257.376,338.295 256,339.5C 254.844,349.481 254.511,359.481 255,369.5C 256.571,371.923 258.737,373.256 261.5,373.5C 262.091,374.151 262.757,374.818 263.5,375.5C 260.982,400.235 253.815,423.568 242,445.5C 235.813,454.558 229.647,463.558 223.5,472.5C 168.828,505.197 116.828,501.363 67.5,461C 28.6867,423.23 12.52,377.397 19,323.5C 24.4202,302.807 35.2535,285.64 51.5,272C 55.5615,268.971 59.8949,266.471 64.5,264.5 Z"/></g>
<g><path style="opacity:1" fill="#050100" d="M 90.5,273.5 C 94.5138,273.334 98.5138,273.501 102.5,274C 104.35,274.69 105.684,275.856 106.5,277.5C 108.584,282.442 107.251,286.276 102.5,289C 91.3197,288.958 81.3197,292.291 72.5,299C 56.9705,312.568 49.4705,329.734 50,350.5C 48.8333,351.667 47.6667,352.833 46.5,354C 39.9227,356.13 35.756,353.964 34,347.5C 33.7195,337.183 35.3862,327.183 39,317.5C 48.4042,293.585 65.5709,278.919 90.5,273.5 Z"/></g>
<g><path style="opacity:1" fill="#060100" d="M 475.5,295.5 C 476.747,302.48 476.747,309.48 475.5,316.5C 471.192,340.953 460.192,361.786 442.5,379C 440.167,379.667 437.833,379.667 435.5,379C 430.262,374.822 429.429,369.988 433,364.5C 450.692,345.78 460.026,323.447 461,297.5C 465.028,291.597 469.862,290.931 475.5,295.5 Z"/></g>
<g><path style="opacity:1" fill="#050100" d="M 261.5,373.5 C 258.737,373.256 256.571,371.923 255,369.5C 254.511,359.481 254.844,349.481 256,339.5C 257.376,338.295 258.542,336.962 259.5,335.5C 265.681,333.341 269.847,335.341 272,341.5C 272.562,350.576 271.895,359.576 270,368.5C 268.326,372.089 265.493,373.755 261.5,373.5 Z"/></g>
</svg>
