<?xml version="1.0" encoding="UTF-8"?>
<!DOCTYPE svg PUBLIC "-//W3C//DTD SVG 1.1//EN" "http://www.w3.org/Graphics/SVG/1.1/DTD/svg11.dtd">
<svg xmlns="http://www.w3.org/2000/svg" version="1.1" width="512px" height="512px" style="shape-rendering:geometricPrecision; text-rendering:geometricPrecision; image-rendering:optimizeQuality; fill-rule:evenodd; clip-rule:evenodd" xmlns:xlink="http://www.w3.org/1999/xlink">
<g><path style="opacity:0.988" fill="#000000" d="M 100.5,-0.5 C 119.833,-0.5 139.167,-0.5 158.5,-0.5C 168.333,3.10237 174.5,10.1024 177,20.5C 177.667,31.1667 177.667,41.8333 177,52.5C 175.655,57.349 172.489,59.6823 167.5,59.5C 172.806,99.3165 175.64,139.317 176,179.5C 195.169,200.509 206.835,225.175 211,253.5C 211.667,332.167 211.667,410.833 211,489.5C 207.65,500.682 200.483,508.016 189.5,511.5C 149.5,511.5 109.5,511.5 69.5,511.5C 58.5167,508.016 51.3501,500.682 48,489.5C 47.3333,410.833 47.3333,332.167 48,253.5C 52.1646,225.175 63.8313,200.509 83,179.5C 83.3229,139.313 86.1562,99.3134 91.5,59.5C 86.5115,59.6823 83.3448,57.349 82,52.5C 81.3333,41.8333 81.3333,31.1667 82,20.5C 84.5005,10.1024 90.6671,3.10237 100.5,-0.5 Z"/></g>
<g><path style="opacity:1" fill="#e1e8ed" d="M 105.5,19.5 C 121.503,19.3334 137.503,19.5001 153.5,20C 154.333,20.8333 155.167,21.6667 156,22.5C 156.499,28.1569 156.666,33.8236 156.5,39.5C 138.5,39.5 120.5,39.5 102.5,39.5C 102.334,33.8236 102.501,28.1569 103,22.5C 104.045,21.6266 104.878,20.6266 105.5,19.5 Z"/></g>
<g><path style="opacity:1" fill="#b5e9b9" d="M 112.5,59.5 C 123.833,59.5 135.167,59.5 146.5,59.5C 149.815,78.6854 151.815,98.0187 152.5,117.5C 137.167,117.5 121.833,117.5 106.5,117.5C 107.11,98.0104 109.11,78.677 112.5,59.5 Z"/></g>
<g><path style="opacity:0.985" fill="#020101" d="M 420.5,511.5 C 372.833,511.5 325.167,511.5 277.5,511.5C 275.193,510.023 273.36,508.023 272,505.5C 271.937,462.814 271.271,420.147 270,377.5C 268.769,367.346 266.769,357.346 264,347.5C 257,328.833 250,310.167 243,291.5C 235.631,265.013 232.464,238.013 233.5,210.5C 233.667,203.167 233.833,195.833 234,188.5C 234.303,186.112 235.137,183.945 236.5,182C 230.545,161.905 236.212,145.905 253.5,134C 263.665,129.083 274.332,127.417 285.5,129C 304.098,108.348 326.765,102.348 353.5,111C 363.756,115.263 372.256,121.763 379,130.5C 391.379,127.141 402.879,129.141 413.5,136.5C 438.444,130.219 454.944,139.219 463,163.5C 463.93,195.192 463.597,226.858 462,258.5C 460.434,269.661 458.101,280.661 455,291.5C 447.803,310.089 440.803,328.756 434,347.5C 430.262,360.927 427.929,374.593 427,388.5C 426.667,427.167 426.333,465.833 426,504.5C 425.062,507.598 423.228,509.931 420.5,511.5 Z"/></g>
<g><path style="opacity:1" fill="#fcf0d7" d="M 323.5,127.5 C 334.202,126.509 344.202,128.676 353.5,134C 359.532,139.698 365.199,145.698 370.5,152C 373.5,152.667 376.5,152.667 379.5,152C 384.57,149.576 389.903,148.909 395.5,150C 400.044,151.882 404.044,154.549 407.5,158C 410.167,158.667 412.833,158.667 415.5,158C 427.406,151.969 436.573,154.802 443,166.5C 443.499,170.821 443.666,175.154 443.5,179.5C 426.993,178.668 415.159,185.668 408,200.5C 406.705,219.102 406.038,237.768 406,256.5C 402.975,264.494 397.475,266.661 389.5,263C 386.278,259.489 384.778,255.322 385,250.5C 379.975,244.645 374.308,243.979 368,248.5C 367.333,249.833 366.667,251.167 366,252.5C 365.667,272.5 365.333,292.5 365,312.5C 359.408,319.987 353.408,320.32 347,313.5C 346.667,312.5 346.333,311.5 346,310.5C 345.667,275.833 345.333,241.167 345,206.5C 341.509,192.342 332.676,183.509 318.5,180C 298.167,179.667 277.833,179.333 257.5,179C 252.066,168.317 254.066,159.317 263.5,152C 270.458,148.781 277.458,148.781 284.5,152C 287.5,152.667 290.5,152.667 293.5,152C 297.756,145.74 302.756,140.073 308.5,135C 313.313,131.927 318.313,129.427 323.5,127.5 Z"/></g>
<g><path style="opacity:1" fill="#9fe3a4" d="M 163.5,283.5 C 155.974,279.547 147.974,277.214 139.5,276.5C 139.037,267.547 134.37,264.047 125.5,266C 121.043,268.079 119.043,271.579 119.5,276.5C 110.891,276.815 102.891,279.148 95.5,283.5C 91.9188,279.835 87.5855,278.668 82.5,280C 77.2004,283.575 72.3671,287.742 68,292.5C 62.7817,252.49 74.115,218.156 102,189.5C 102.333,188.5 102.667,187.5 103,186.5C 103.297,170.154 103.797,153.821 104.5,137.5C 121.167,137.5 137.833,137.5 154.5,137.5C 155.203,153.821 155.703,170.154 156,186.5C 161.256,194.097 166.923,201.43 173,208.5C 189.209,234.206 195.209,262.206 191,292.5C 186.633,287.742 181.8,283.575 176.5,280C 171.415,278.668 167.081,279.835 163.5,283.5 Z"/></g>
<g><path style="opacity:1" fill="#fde4b2" d="M 254.5,199.5 C 274.503,199.333 294.503,199.5 314.5,200C 319.573,201.406 323.073,204.572 325,209.5C 325.5,222.162 325.667,234.829 325.5,247.5C 302.167,247.5 278.833,247.5 255.5,247.5C 254.654,231.516 254.321,215.516 254.5,199.5 Z"/></g>
<g><path style="opacity:1" fill="#fde4b3" d="M 442.5,246.5 C 437.167,246.5 431.833,246.5 426.5,246.5C 426.5,234.167 426.5,221.833 426.5,209.5C 429.079,201.364 434.746,198.03 443.5,199.5C 443.696,215.184 443.363,230.851 442.5,246.5 Z"/></g>
<g><path style="opacity:1" fill="#8f8165" d="M 426.5,209.5 C 426.5,221.833 426.5,234.167 426.5,246.5C 431.833,246.5 437.167,246.5 442.5,246.5C 437.025,247.489 431.358,247.822 425.5,247.5C 425.171,234.656 425.505,221.989 426.5,209.5 Z"/></g>
<g><path style="opacity:1" fill="#050705" d="M 139.5,276.5 C 136.645,284.381 131.311,286.548 123.5,283C 121.334,281.322 120.001,279.155 119.5,276.5C 119.043,271.579 121.043,268.079 125.5,266C 134.37,264.047 139.037,267.547 139.5,276.5 Z"/></g>
<g><path style="opacity:1" fill="#fdcb68" d="M 258.5,267.5 C 280.833,267.5 303.167,267.5 325.5,267.5C 325.333,282.504 325.5,297.504 326,312.5C 329.632,327.633 339.132,336.3 354.5,338.5C 370.081,337.964 380.248,330.298 385,315.5C 385.168,304.818 385.668,294.151 386.5,283.5C 402.29,287.264 414.29,282.264 422.5,268.5C 428.128,267.505 433.794,267.171 439.5,267.5C 438.339,272.813 437.172,278.146 436,283.5C 429,301.833 422,320.167 415,338.5C 410.795,352.192 408.128,366.192 407,380.5C 406.667,401.833 406.333,423.167 406,444.5C 404.833,447.667 402.667,449.833 399.5,451C 365.5,451.667 331.5,451.667 297.5,451C 294.619,449.749 292.786,447.583 292,444.5C 291.667,422.167 291.333,399.833 291,377.5C 288.419,360.177 284.419,343.177 279,326.5C 269.871,307.611 263.037,287.944 258.5,267.5 Z"/></g>
<g><path style="opacity:1" fill="#fcfcfc" d="M 119.5,276.5 C 120.001,279.155 121.334,281.322 123.5,283C 131.311,286.548 136.645,284.381 139.5,276.5C 147.974,277.214 155.974,279.547 163.5,283.5C 162.011,287.243 162.178,290.91 164,294.5C 185.364,311.077 194.531,332.91 191.5,360C 194.7,385.411 187.033,406.744 168.5,424C 142.466,441.929 116.466,441.929 90.5,424C 71.9666,406.744 64.2999,385.411 67.5,360C 64.4631,332.921 73.6298,311.088 95,294.5C 96.8223,290.91 96.9889,287.243 95.5,283.5C 102.891,279.148 110.891,276.815 119.5,276.5 Z"/></g>
<g><path style="opacity:1" fill="#040403" d="M 125.5,320.5 C 130.548,320.127 135.215,321.294 139.5,324C 143.003,328.668 146.003,333.668 148.5,339C 154.51,338.962 160.176,340.295 165.5,343C 172.472,349.751 173.306,357.251 168,365.5C 164.984,368.349 162.15,371.349 159.5,374.5C 162.841,382.941 161.841,390.775 156.5,398C 151.638,401.224 146.304,402.224 140.5,401C 136.833,399.167 133.167,397.333 129.5,395.5C 125.833,397.333 122.167,399.167 118.5,401C 105.776,403.141 98.7762,397.808 97.5,385C 98.0075,381.636 98.6742,378.303 99.5,375C 97.0775,371.571 94.2442,368.405 91,365.5C 84.2722,353.793 87.1055,345.293 99.5,340C 103.656,339.815 107.656,338.982 111.5,337.5C 114.102,329.866 118.769,324.199 125.5,320.5 Z"/></g>
<g><path style="opacity:1" fill="#f8bb42" d="M 128.5,347.5 C 130.915,350.1 133.249,352.934 135.5,356C 138.911,356.909 142.245,357.909 145.5,359C 142.96,361.205 140.793,363.705 139,366.5C 139.077,370.229 138.91,373.896 138.5,377.5C 132.5,373.5 126.5,373.5 120.5,377.5C 120.09,373.896 119.923,370.229 120,366.5C 118.207,363.705 116.04,361.205 113.5,359C 121.536,358.96 126.536,355.126 128.5,347.5 Z"/></g>
<g><path style="opacity:1" fill="#9fe3a4" d="M 67.5,429.5 C 100.862,462.04 137.529,466.207 177.5,442C 182.301,438.201 186.801,434.034 191,429.5C 191.962,448.565 191.628,467.565 190,486.5C 188.661,489.094 186.494,490.594 183.5,491C 146.833,491.667 110.167,491.667 73.5,491C 70.3374,489.52 68.504,487.02 68,483.5C 67.5001,465.503 67.3334,447.503 67.5,429.5 Z"/></g>
<g><path style="opacity:1" fill="#fcbf43" d="M 291.5,470.5 C 329.823,471.821 368.156,471.821 406.5,470.5C 406.5,477.5 406.5,484.5 406.5,491.5C 368.167,491.5 329.833,491.5 291.5,491.5C 291.5,484.5 291.5,477.5 291.5,470.5 Z"/></g>
</svg>
