<?xml version="1.0" encoding="UTF-8"?>
<!DOCTYPE svg PUBLIC "-//W3C//DTD SVG 1.1//EN" "http://www.w3.org/Graphics/SVG/1.1/DTD/svg11.dtd">
<svg xmlns="http://www.w3.org/2000/svg" version="1.1" width="512px" height="512px" style="shape-rendering:geometricPrecision; text-rendering:geometricPrecision; image-rendering:optimizeQuality; fill-rule:evenodd; clip-rule:evenodd" xmlns:xlink="http://www.w3.org/1999/xlink">
<g><path style="opacity:0.982" fill="#2d2b2c" d="M 173.5,14.5 C 176.099,14.5494 178.266,15.5494 180,17.5C 181.252,25.8454 182.585,34.1787 184,42.5C 187,46.1667 190,49.8333 193,53.5C 194.197,56.0891 195.197,58.7558 196,61.5C 192.843,89.9152 201.176,114.249 221,134.5C 235.968,147.8 250.634,161.466 265,175.5C 289.546,203.804 300.546,236.804 298,274.5C 303.031,269.078 308.531,264.245 314.5,260C 325.919,248.92 335.419,236.42 343,222.5C 346.429,213.873 350.429,205.54 355,197.5C 367.386,187.246 380.053,186.913 393,196.5C 398.179,206.342 403.179,216.342 408,226.5C 411.667,232.167 415.333,237.833 419,243.5C 433.642,258.474 448.642,273.141 464,287.5C 497.839,327.865 507.839,373.532 494,424.5C 484.134,451.701 465.967,471.201 439.5,483C 391.519,502.416 344.519,500.416 298.5,477C 259.03,450.325 242.53,413.159 249,365.5C 234.949,375.696 219.949,384.363 204,391.5C 196.463,402.741 190.963,414.907 187.5,428C 184.833,430 182.167,430 179.5,428C 176,424.5 172.5,421 169,417.5C 166.167,421 163.333,424.5 160.5,428C 158.635,429.301 156.635,429.635 154.5,429C 151.135,425.739 148.135,422.239 145.5,418.5C 141.343,422.826 137.343,427.326 133.5,432C 130.743,432.782 128.243,432.282 126,430.5C 123.067,419.132 117.9,408.966 110.5,400C 94.2793,387.383 76.6126,377.049 57.5,369C 31.0499,351.302 15.8832,326.469 12,294.5C 8.18674,259.084 14.8534,225.751 32,194.5C 40.3287,180.832 50.8287,168.999 63.5,159C 79.5141,147.661 94.3475,134.828 108,120.5C 117.757,109.316 123.424,96.3156 125,81.5C 126.742,62.8445 126.909,44.1778 125.5,25.5C 125.429,21.6329 127.262,19.2996 131,18.5C 139.348,22.8417 147.014,28.175 154,34.5C 155.757,37.0139 157.257,39.6806 158.5,42.5C 162.864,34.4365 166.698,26.1032 170,17.5C 171.145,16.3636 172.312,15.3636 173.5,14.5 Z"/></g>
<g><path style="opacity:1" fill="#f77f9f" d="M 56.5,281.5 C 55.1083,262.74 57.1083,244.407 62.5,226.5C 64.7224,226.822 66.5557,226.155 68,224.5C 74.4462,204.606 83.7796,186.273 96,169.5C 118.278,143.262 131.611,112.928 136,78.5C 137.131,64.1925 137.797,49.8592 138,35.5C 141.982,37.8169 145.315,40.8169 148,44.5C 148.214,60.1714 148.214,75.8381 148,91.5C 148.333,94.5 148.667,97.5 149,100.5C 151.581,104.057 154.581,104.39 158,101.5C 158.202,95.0066 158.035,88.5066 157.5,82C 157.511,77.1107 158.011,72.2774 159,67.5C 163.333,58.1667 167.667,48.8333 172,39.5C 173.943,47.384 177.943,54.0507 184,59.5C 184.862,61.087 185.529,62.7536 186,64.5C 185.555,96.6087 191.888,127.275 205,156.5C 223.945,184.738 235.945,215.738 241,249.5C 244.837,293.158 234.17,332.825 209,368.5C 196.892,381.79 187.392,396.79 180.5,413.5C 177.727,410.804 175.06,407.971 172.5,405C 169.165,402.709 166.332,403.209 164,406.5C 161.667,409.5 159.333,412.5 157,415.5C 154.277,412.443 151.944,409.11 150,405.5C 145.997,402.499 142.664,403.165 140,407.5C 137.667,410.5 135.333,413.5 133,416.5C 121.711,392.253 106.711,370.587 88,351.5C 73.7799,331.043 65.1132,308.376 62,283.5C 60.5557,281.845 58.7224,281.178 56.5,281.5 Z"/></g>
<g><path style="opacity:1" fill="#2f2d2e" d="M 138.5,367.5 C 125.738,331.098 119.072,293.598 118.5,255C 118.292,239.997 119.792,225.164 123,210.5C 130.143,187.572 136.977,164.572 143.5,141.5C 144.772,136.209 145.938,130.876 147,125.5C 149.153,123.556 151.653,123.056 154.5,124C 155.894,124.956 156.561,126.289 156.5,128C 151.947,151.376 145.447,174.209 137,196.5C 128.996,222.275 126.329,248.609 129,275.5C 132.44,311.26 140.606,345.927 153.5,379.5C 152.359,383.987 149.692,385.32 145.5,383.5C 142.762,378.265 140.429,372.932 138.5,367.5 Z"/></g>
<g><path style="opacity:1" fill="#b0436a" d="M 206.5,134.5 C 217.417,147.251 229.75,158.418 243.5,168C 279.25,200.583 293.083,240.749 285,288.5C 270.172,306.148 259.506,326.148 253,348.5C 242.544,357.729 231.21,365.729 219,372.5C 253.936,318.795 260.603,261.462 239,200.5C 233.5,185.166 226.167,170.833 217,157.5C 212.94,150.05 209.44,142.383 206.5,134.5 Z"/></g>
<g><path style="opacity:1" fill="#f7c8d9" d="M 143.5,141.5 C 136.977,164.572 130.143,187.572 123,210.5C 119.792,225.164 118.292,239.997 118.5,255C 119.072,293.598 125.738,331.098 138.5,367.5C 136.692,367.509 135.025,367.009 133.5,366C 90.0088,321.61 79.8421,270.444 103,212.5C 108.575,201.01 114.909,190.01 122,179.5C 127.883,167.736 133.216,155.736 138,143.5C 139.444,141.845 141.278,141.178 143.5,141.5 Z"/></g>
<g><path style="opacity:1" fill="#b0436a" d="M 62.5,226.5 C 57.1083,244.407 55.1083,262.74 56.5,281.5C 54.9826,281.511 53.8159,282.177 53,283.5C 56.1338,320.266 70.9671,351.433 97.5,377C 83.3316,370.247 69.3316,362.913 55.5,355C 37.8207,339.49 26.9873,319.99 23,296.5C 15.693,247.754 29.5264,206.254 64.5,172C 78.8739,161.392 92.5406,150.559 105.5,139.5C 91.2558,157.642 78.7558,176.975 68,197.5C 64.9419,204.007 62.2752,210.674 60,217.5C 59.3333,219.833 59.3333,222.167 60,224.5C 60.7083,225.381 61.5416,226.047 62.5,226.5 Z"/></g>
<g><path style="opacity:1" fill="#f9c9db" d="M 186.5,188.5 C 188.792,188.244 190.959,188.577 193,189.5C 209.178,218.2 215.511,248.867 212,281.5C 208.168,301.66 199.668,319.493 186.5,335C 181.515,336.757 178.849,335.09 178.5,330C 192.179,285.406 194.179,240.239 184.5,194.5C 184.363,192.159 185.03,190.159 186.5,188.5 Z"/></g>
<g><path style="opacity:1" fill="#b0436a" d="M 370.5,199.5 C 377.304,198.822 382.804,201.155 387,206.5C 393.327,222.139 401.327,236.806 411,250.5C 427.333,266.833 443.667,283.167 460,299.5C 490.108,337.809 497.441,380.142 482,426.5C 473.413,446.75 459.247,461.25 439.5,470C 454.369,453.75 462.869,434.583 465,412.5C 469.285,377.963 460.952,346.963 440,319.5C 427.297,303.796 412.963,289.796 397,277.5C 388.297,267.248 380.464,256.414 373.5,245C 371.299,244.175 369.466,244.675 368,246.5C 359.153,263.356 347.986,278.523 334.5,292C 317.853,305.645 303.686,321.479 292,339.5C 269.422,383.85 273.422,425.517 304,464.5C 306.537,467.372 309.37,469.872 312.5,472C 281.32,458.098 263.82,433.931 260,399.5C 255.695,364.43 264.028,332.763 285,304.5C 294.833,290.667 306.667,278.833 320.5,269C 338.87,251.774 352.37,231.274 361,207.5C 363.325,203.765 366.491,201.099 370.5,199.5 Z"/></g>
<g><path style="opacity:1" fill="#f67f9e" d="M 345.5,349.5 C 336.095,361.639 328.762,374.973 323.5,389.5C 320.675,389.081 318.509,390.081 317,392.5C 310.505,419.158 312.838,444.825 324,469.5C 296.791,446.571 284.791,417.238 288,381.5C 291.256,362.663 298.59,345.663 310,330.5C 322.279,316.887 335.279,303.887 349,291.5C 357.438,281.73 365.104,271.397 372,260.5C 381.547,276.101 393.714,289.268 408.5,300C 426.632,316.109 440.465,335.276 450,357.5C 460.531,389.181 458.197,419.847 443,449.5C 438.424,457.412 432.424,464.078 425,469.5C 440.404,434.213 438.738,399.546 420,365.5C 408.464,345.797 393.298,329.464 374.5,316.5C 370.787,318.04 367.453,320.207 364.5,323C 358.333,329.167 352.167,335.333 346,341.5C 344.304,344.119 344.137,346.786 345.5,349.5 Z"/></g>
<g><path style="opacity:1" fill="#f5c7d9" d="M 323.5,389.5 C 328.762,374.973 336.095,361.639 345.5,349.5C 347.402,350.511 349.402,350.678 351.5,350C 358.715,342.283 366.381,335.117 374.5,328.5C 396.457,346.076 412.291,368.076 422,394.5C 426.3,411.741 426.633,429.074 423,446.5C 420.153,457.868 414.486,467.534 406,475.5C 420.288,437.256 412.122,404.756 381.5,378C 379.44,376.304 377.107,375.137 374.5,374.5C 362.937,380.561 353.771,389.227 347,400.5C 336.945,417.907 333.612,436.573 337,456.5C 338.852,463.048 340.852,469.382 343,475.5C 334.514,467.534 328.847,457.868 326,446.5C 322.57,429.134 322.737,411.8 326.5,394.5C 326.714,392.058 325.714,390.392 323.5,389.5 Z"/></g>
<g><path style="opacity:1" fill="#fdecf3" d="M 373.5,385.5 C 388.949,395.689 398.449,410.023 402,428.5C 404.065,443.455 402.065,457.789 396,471.5C 382.775,489.201 368.775,489.868 354,473.5C 338.748,439.19 345.248,409.856 373.5,385.5 Z"/></g>
</svg>
