<?xml version="1.0" encoding="UTF-8"?>
<!DOCTYPE svg PUBLIC "-//W3C//DTD SVG 1.1//EN" "http://www.w3.org/Graphics/SVG/1.1/DTD/svg11.dtd">
<svg xmlns="http://www.w3.org/2000/svg" version="1.1" width="512px" height="512px" style="shape-rendering:geometricPrecision; text-rendering:geometricPrecision; image-rendering:optimizeQuality; fill-rule:evenodd; clip-rule:evenodd" xmlns:xlink="http://www.w3.org/1999/xlink">
<g><path style="opacity:0.96" fill="#020100" d="M 337.5,-0.5 C 348.167,-0.5 358.833,-0.5 369.5,-0.5C 430.037,11.5203 473.537,45.5203 500,101.5C 505.576,114.818 509.409,128.484 511.5,142.5C 511.5,152.833 511.5,163.167 511.5,173.5C 508.257,196.721 498.257,216.554 481.5,233C 470.201,239.968 458.201,241.301 445.5,237C 421.908,228.46 400.741,215.96 382,199.5C 371.944,216.502 365.777,234.835 363.5,254.5C 361.167,254.5 358.833,254.5 356.5,254.5C 353.946,253.612 351.279,253.279 348.5,253.5C 350.383,230.351 357.383,208.851 369.5,189C 356.656,177.322 344.322,165.156 332.5,152.5C 330.188,149.521 327.521,146.854 324.5,144.5C 288.01,180.778 270.844,224.778 273,276.5C 275.682,288.339 282.515,296.672 293.5,301.5C 312.313,309.735 328.147,305.735 341,289.5C 344.911,283.019 347.077,276.019 347.5,268.5C 350.385,268.806 353.052,268.473 355.5,267.5C 357.833,267.5 360.167,267.5 362.5,267.5C 360.399,300.435 342.899,318.435 310,321.5C 282.521,320.018 265.188,306.018 258,279.5C 255.016,222.104 273.516,172.937 313.5,132C 304.223,119.953 295.556,107.453 287.5,94.5C 289.162,92.3483 291.162,90.6817 293.5,89.5C 296.179,89.3274 298.513,88.3274 300.5,86.5C 333.023,137.189 374.689,178.689 425.5,211C 434.379,216.108 443.713,220.108 453.5,223C 463.719,225.903 471.719,223.07 477.5,214.5C 486.258,203.31 492.091,190.643 495,176.5C 499.079,149.406 494.746,123.74 482,99.5C 459.011,57.0782 424.177,29.5782 377.5,17C 352.983,11.2613 329.65,14.2613 307.5,26C 303.7,27.9789 300.366,30.4789 297.5,33.5C 289.439,38.2892 286.272,45.2892 288,54.5C 289.373,60.3264 291.206,65.993 293.5,71.5C 290.846,72.9681 288.513,74.6348 286.5,76.5C 284.45,76.9612 282.45,77.6279 280.5,78.5C 273.749,67.1438 271.249,54.8105 273,41.5C 273.774,37.9513 275.107,34.618 277,31.5C 293.294,13.6019 313.461,2.93527 337.5,-0.5 Z"/></g>
<g><path style="opacity:1" fill="#d8684a" d="M 477.5,214.5 C 471.989,214.795 466.656,213.962 461.5,212C 438.42,202.232 417.42,189.232 398.5,173C 364.982,145.492 336.482,113.659 313,77.5C 307.256,68.0121 302.59,58.0121 299,47.5C 297.775,42.9147 297.275,38.248 297.5,33.5C 300.366,30.4789 303.7,27.9789 307.5,26C 329.65,14.2613 352.983,11.2613 377.5,17C 424.177,29.5782 459.011,57.0782 482,99.5C 494.746,123.74 499.079,149.406 495,176.5C 492.091,190.643 486.258,203.31 477.5,214.5 Z"/></g>
<g><path style="opacity:1" fill="#a84a2f" d="M 297.5,33.5 C 297.275,38.248 297.775,42.9147 299,47.5C 302.59,58.0121 307.256,68.0121 313,77.5C 336.482,113.659 364.982,145.492 398.5,173C 417.42,189.232 438.42,202.232 461.5,212C 466.656,213.962 471.989,214.795 477.5,214.5C 471.719,223.07 463.719,225.903 453.5,223C 443.713,220.108 434.379,216.108 425.5,211C 374.689,178.689 333.023,137.189 300.5,86.5C 298.513,88.3274 296.179,89.3274 293.5,89.5C 291.39,84.9409 289.057,80.6076 286.5,76.5C 288.513,74.6348 290.846,72.9681 293.5,71.5C 291.206,65.993 289.373,60.3264 288,54.5C 286.272,45.2892 289.439,38.2892 297.5,33.5 Z"/></g>
<g><path style="opacity:1" fill="#edbaac" d="M 330.5,38.5 C 325.833,38.5 321.167,38.5 316.5,38.5C 316.5,43.1667 316.5,47.8333 316.5,52.5C 321.167,52.5 325.833,52.5 330.5,52.5C 325.695,53.4872 320.695,53.8205 315.5,53.5C 315.5,48.1667 315.5,42.8333 315.5,37.5C 320.695,37.1795 325.695,37.5128 330.5,38.5 Z"/></g>
<g><path style="opacity:1" fill="#fefffe" d="M 330.5,38.5 C 330.5,43.1667 330.5,47.8333 330.5,52.5C 325.833,52.5 321.167,52.5 316.5,52.5C 316.5,47.8333 316.5,43.1667 316.5,38.5C 321.167,38.5 325.833,38.5 330.5,38.5 Z"/></g>
<g><path style="opacity:1" fill="#000000" d="M 388.5,46.5 C 398.5,46.5 408.5,46.5 418.5,46.5C 418.5,51.5 418.5,56.5 418.5,61.5C 408.5,61.5 398.5,61.5 388.5,61.5C 388.5,56.5 388.5,51.5 388.5,46.5 Z"/></g>
<g><path style="opacity:1" fill="#030100" d="M 434.5,65.5 C 438.75,68.0786 442.417,71.4119 445.5,75.5C 438.848,82.6523 432.015,89.6523 425,96.5C 421.5,93 418,89.5 414.5,86C 421.369,79.2982 428.036,72.4649 434.5,65.5 Z"/></g>
<g><path style="opacity:1" fill="#050201" d="M 449.5,92.5 C 454.5,92.5 459.5,92.5 464.5,92.5C 464.5,102.5 464.5,112.5 464.5,122.5C 459.5,122.5 454.5,122.5 449.5,122.5C 449.5,112.5 449.5,102.5 449.5,92.5 Z"/></g>
<g><path style="opacity:1" fill="#fbbf75" d="M 332.5,152.5 C 327.753,157.67 323.753,163.336 320.5,169.5C 318.5,171.5 316.5,173.5 314.5,175.5C 300.94,197.659 291.774,221.659 287,247.5C 285.512,260.132 285.179,272.799 286,285.5C 287.711,291.252 290.211,296.586 293.5,301.5C 282.515,296.672 275.682,288.339 273,276.5C 270.844,224.778 288.01,180.778 324.5,144.5C 327.521,146.854 330.188,149.521 332.5,152.5 Z"/></g>
<g><path style="opacity:0.999" fill="#fed6a4" d="M 332.5,152.5 C 344.322,165.156 356.656,177.322 369.5,189C 357.383,208.851 350.383,230.351 348.5,253.5C 351.279,253.279 353.946,253.612 356.5,254.5C 355.705,258.785 355.372,263.119 355.5,267.5C 353.052,268.473 350.385,268.806 347.5,268.5C 347.077,276.019 344.911,283.019 341,289.5C 328.147,305.735 312.313,309.735 293.5,301.5C 290.211,296.586 287.711,291.252 286,285.5C 285.179,272.799 285.512,260.132 287,247.5C 291.774,221.659 300.94,197.659 314.5,175.5C 316.893,179.402 319.893,182.902 323.5,186C 327.797,183.892 331.464,180.725 334.5,176.5C 331.683,173.182 328.683,170.015 325.5,167C 323.565,167.058 321.898,167.891 320.5,169.5C 323.753,163.336 327.753,157.67 332.5,152.5 Z"/></g>
<g><path style="opacity:1" fill="#fffdfc" d="M 314.5,175.5 C 316.5,173.5 318.5,171.5 320.5,169.5C 321.898,167.891 323.565,167.058 325.5,167C 328.683,170.015 331.683,173.182 334.5,176.5C 331.464,180.725 327.797,183.892 323.5,186C 319.893,182.902 316.893,179.402 314.5,175.5 Z"/></g>
<g><path style="opacity:0.961" fill="#020100" d="M 277.5,511.5 C 267.833,511.5 258.167,511.5 248.5,511.5C 234.706,509.638 221.039,506.638 207.5,502.5C 207.963,499.779 208.629,497.112 209.5,494.5C 210.823,492.238 212.157,489.904 213.5,487.5C 232.592,494.237 252.258,497.071 272.5,496C 279.856,495.171 286.19,492.337 291.5,487.5C 307.353,472.318 309.52,455.318 298,436.5C 292.986,430.411 286.819,425.911 279.5,423C 253.846,422.752 229.18,417.752 205.5,408C 199.706,405.034 194.039,401.867 188.5,398.5C 177.511,410.823 166.178,422.823 154.5,434.5C 150.411,437.083 146.744,440.25 143.5,444C 152.102,452.774 161.435,460.607 171.5,467.5C 169.89,469.725 168.557,472.059 167.5,474.5C 166.585,476.754 165.252,478.754 163.5,480.5C 151.981,473.155 141.481,464.488 132,454.5C 115.955,468.113 98.4551,479.613 79.5,489C 51.8521,503.8 30.0188,497.967 14,471.5C 6.66018,458.973 1.82684,445.64 -0.5,431.5C -0.5,420.833 -0.5,410.167 -0.5,399.5C 11.1035,338.385 45.1035,294.552 101.5,268C 132.923,254.735 164.923,253.069 197.5,263C 211.58,268.744 223.747,277.244 234,288.5C 238.25,297.011 239.584,306.011 238,315.5C 234.396,331.372 228.063,346.038 219,359.5C 212.694,368.64 206.194,377.64 199.5,386.5C 213.614,395.384 228.947,401.217 245.5,404C 256.505,404.963 267.505,405.963 278.5,407C 299.154,412.321 312.654,425.154 319,445.5C 324.091,479.69 310.258,501.69 277.5,511.5 Z"/></g>
<g><path style="opacity:1" fill="#d8684a" d="M 209.5,344.5 C 186.177,373.326 160.177,399.826 131.5,424C 118.858,433.991 105.524,442.991 91.5,451C 82.144,455.512 72.4773,459.179 62.5,462C 49.2154,463.775 39.0487,458.941 32,447.5C 22.0392,433.785 16.5392,418.452 15.5,401.5C 19.6199,373.267 30.7866,348.267 49,326.5C 69.6777,302.511 95.1777,285.678 125.5,276C 157.213,266.748 186.546,271.415 213.5,290C 216,292.5 218.5,295 221,297.5C 222.838,300.037 223.671,302.871 223.5,306C 221.784,319.927 217.118,332.76 209.5,344.5 Z"/></g>
<g><path style="opacity:1" fill="#fdf6f4" d="M 157.5,285.5 C 162.833,285.5 168.167,285.5 173.5,285.5C 173.5,290.5 173.5,295.5 173.5,300.5C 168.167,300.5 162.833,300.5 157.5,300.5C 157.5,295.5 157.5,290.5 157.5,285.5 Z"/></g>
<g><path style="opacity:1" fill="#030100" d="M 92.5,303.5 C 102.5,303.5 112.5,303.5 122.5,303.5C 122.5,308.5 122.5,313.5 122.5,318.5C 112.5,318.5 102.5,318.5 92.5,318.5C 92.5,313.5 92.5,308.5 92.5,303.5 Z"/></g>
<g><path style="opacity:1" fill="#0f0604" d="M 74.5,322.5 C 82.4245,328.755 89.7578,335.755 96.5,343.5C 93.6828,346.818 90.6828,349.985 87.5,353C 86.5,353.667 85.5,353.667 84.5,353C 77.6153,346.618 71.282,339.784 65.5,332.5C 68.5222,329.147 71.5222,325.813 74.5,322.5 Z"/></g>
<g><path style="opacity:1" fill="#020000" d="M 46.5,350.5 C 51.5,350.5 56.5,350.5 61.5,350.5C 61.5,360.167 61.5,369.833 61.5,379.5C 56.5,379.5 51.5,379.5 46.5,379.5C 46.5,369.833 46.5,360.167 46.5,350.5 Z"/></g>
<g><path style="opacity:1" fill="#a74a2f" d="M 209.5,344.5 C 178.799,392.368 139.799,432.202 92.5,464C 81.9528,470.94 70.6195,476.273 58.5,480C 47.9001,483.004 39.4001,480.17 33,471.5C 17.4553,450.542 11.6219,427.209 15.5,401.5C 16.5392,418.452 22.0392,433.785 32,447.5C 39.0487,458.941 49.2154,463.775 62.5,462C 72.4773,459.179 82.144,455.512 91.5,451C 105.524,442.991 118.858,433.991 131.5,424C 160.177,399.826 186.177,373.326 209.5,344.5 Z"/></g>
<g><path style="opacity:1" fill="#fed6a4" d="M 291.5,487.5 C 260.614,489.613 231.28,483.78 203.5,470C 194.445,464.81 185.445,459.643 176.5,454.5C 179.678,451.155 182.678,447.655 185.5,444C 182.716,440.213 179.549,436.713 176,433.5C 172.296,437.036 168.796,440.702 165.5,444.5C 161.808,441.138 158.141,437.805 154.5,434.5C 166.178,422.823 177.511,410.823 188.5,398.5C 194.039,401.867 199.706,405.034 205.5,408C 229.18,417.752 253.846,422.752 279.5,423C 286.819,425.911 292.986,430.411 298,436.5C 309.52,455.318 307.353,472.318 291.5,487.5 Z"/></g>
<g><path style="opacity:1" fill="#fffcfa" d="M 176.5,454.5 C 172.229,451.899 168.563,448.566 165.5,444.5C 168.796,440.702 172.296,437.036 176,433.5C 179.549,436.713 182.716,440.213 185.5,444C 182.678,447.655 179.678,451.155 176.5,454.5 Z"/></g>
<g><path style="opacity:1" fill="#fbbf75" d="M 154.5,434.5 C 158.141,437.805 161.808,441.138 165.5,444.5C 168.563,448.566 172.229,451.899 176.5,454.5C 185.445,459.643 194.445,464.81 203.5,470C 231.28,483.78 260.614,489.613 291.5,487.5C 286.19,492.337 279.856,495.171 272.5,496C 252.258,497.071 232.592,494.237 213.5,487.5C 212.157,489.904 210.823,492.238 209.5,494.5C 204.833,492.833 200.167,491.167 195.5,489.5C 196.059,487.321 196.726,485.154 197.5,483C 194.175,480.246 190.342,478.079 186,476.5C 184.374,478.803 182.541,480.803 180.5,482.5C 176.37,479.597 172.037,476.93 167.5,474.5C 168.557,472.059 169.89,469.725 171.5,467.5C 161.435,460.607 152.102,452.774 143.5,444C 146.744,440.25 150.411,437.083 154.5,434.5 Z"/></g>
<g><path style="opacity:0.919" fill="#020101" d="M 195.5,489.5 C 194.872,492.09 193.705,494.423 192,496.5C 186.971,494.379 182.138,491.879 177.5,489C 178.914,487.007 179.914,484.84 180.5,482.5C 182.541,480.803 184.374,478.803 186,476.5C 190.342,478.079 194.175,480.246 197.5,483C 196.726,485.154 196.059,487.321 195.5,489.5 Z"/></g>
</svg>
