<?xml version="1.0" encoding="UTF-8"?>
<!DOCTYPE svg PUBLIC "-//W3C//DTD SVG 1.1//EN" "http://www.w3.org/Graphics/SVG/1.1/DTD/svg11.dtd">
<svg xmlns="http://www.w3.org/2000/svg" version="1.1" width="512px" height="512px" style="shape-rendering:geometricPrecision; text-rendering:geometricPrecision; image-rendering:optimizeQuality; fill-rule:evenodd; clip-rule:evenodd" xmlns:xlink="http://www.w3.org/1999/xlink">
<g><path style="opacity:0.985" fill="#020101" d="M 231.5,-0.5 C 248.5,-0.5 265.5,-0.5 282.5,-0.5C 299.954,1.24442 317.287,4.41109 334.5,9C 337.963,11.1496 339.296,14.3162 338.5,18.5C 336.859,21.6609 334.193,23.3276 330.5,23.5C 317.939,20.5178 305.272,18.1845 292.5,16.5C 246.449,10.4269 201.782,15.5935 158.5,32C 145.321,37.5256 134.155,45.6923 125,56.5C 119.469,65.3297 119.136,74.3297 124,83.5C 133.877,95.3677 146.044,104.201 160.5,110C 183.65,119.121 207.65,124.454 232.5,126C 252.874,126.816 273.208,126.316 293.5,124.5C 315.193,121.66 336.193,116.16 356.5,108C 369.758,102.47 380.592,93.9702 389,82.5C 393.876,70.4545 391.876,59.7878 383,50.5C 374.397,42.4443 364.564,36.2777 353.5,32C 350.971,29.3583 349.971,26.1916 350.5,22.5C 352.683,18.5769 356.017,17.0769 360.5,18C 375.611,24.1243 388.444,33.291 399,45.5C 402.754,51.0081 405.42,57.0081 407,63.5C 407.667,191.5 407.667,319.5 407,447.5C 404.835,456.165 400.835,463.831 395,470.5C 376.591,486.456 355.425,497.289 331.5,503C 315.211,506.936 298.878,509.769 282.5,511.5C 265.833,511.5 249.167,511.5 232.5,511.5C 203.182,509.255 174.849,502.422 147.5,491C 135.164,485.248 124.331,477.415 115,467.5C 110.946,462.058 107.946,456.058 106,449.5C 105.333,320.167 105.333,190.833 106,61.5C 109.364,50.4655 115.531,41.2988 124.5,34C 142.935,20.9539 163.269,11.9539 185.5,7C 200.856,3.71797 216.189,1.21797 231.5,-0.5 Z"/></g>
<g><path style="opacity:1" fill="#bbbbbb" d="M 292.5,16.5 C 300.461,20.3254 308.795,23.4921 317.5,26C 332.45,32.0442 344.617,41.5442 354,54.5C 359.998,65.179 359.998,75.8457 354,86.5C 348.121,95.3796 340.621,102.546 331.5,108C 325.5,111 319.5,114 313.5,117C 306.541,119.038 299.874,121.538 293.5,124.5C 273.208,126.316 252.874,126.816 232.5,126C 207.65,124.454 183.65,119.121 160.5,110C 146.044,104.201 133.877,95.3677 124,83.5C 119.136,74.3297 119.469,65.3297 125,56.5C 134.155,45.6923 145.321,37.5256 158.5,32C 201.782,15.5935 246.449,10.4269 292.5,16.5 Z"/></g>
<g><path style="opacity:1" fill="#a4a4a4" d="M 292.5,16.5 C 305.272,18.1845 317.939,20.5178 330.5,23.5C 334.193,23.3276 336.859,21.6609 338.5,18.5C 342.579,19.6373 346.579,20.9706 350.5,22.5C 349.971,26.1916 350.971,29.3583 353.5,32C 364.564,36.2777 374.397,42.4443 383,50.5C 391.876,59.7878 393.876,70.4545 389,82.5C 380.592,93.9702 369.758,102.47 356.5,108C 336.193,116.16 315.193,121.66 293.5,124.5C 299.874,121.538 306.541,119.038 313.5,117C 319.5,114 325.5,111 331.5,108C 340.621,102.546 348.121,95.3796 354,86.5C 359.998,75.8457 359.998,65.179 354,54.5C 344.617,41.5442 332.45,32.0442 317.5,26C 308.795,23.4921 300.461,20.3254 292.5,16.5 Z"/></g>
<g><path style="opacity:1" fill="#030303" d="M 175.5,42.5 C 194.129,40.4933 211.795,43.6599 228.5,52C 239.239,52.0705 249.906,52.7371 260.5,54C 270.173,59.1812 273.339,67.0145 270,77.5C 267.668,83.1644 263.501,86.6644 257.5,88C 248.167,88.3333 238.833,88.6667 229.5,89C 220.784,92.7942 211.784,95.7942 202.5,98C 193.5,98.6667 184.5,98.6667 175.5,98C 164.697,96.183 155.531,91.3497 148,83.5C 140.326,67.6532 144.493,55.8199 160.5,48C 165.447,45.6923 170.447,43.859 175.5,42.5 Z"/></g>
<g><path style="opacity:1" fill="#a2a2a2" d="M 177.5,57.5 C 185.507,57.3336 193.507,57.5003 201.5,58C 209.833,61 218.167,64 226.5,67C 236.167,67.3333 245.833,67.6667 255.5,68C 256.833,69.6667 256.833,71.3333 255.5,73C 244.801,73.2235 234.134,73.8901 223.5,75C 215.031,78.6005 206.365,81.6005 197.5,84C 183.64,85.8983 171.14,82.7316 160,74.5C 159.219,73.2713 158.719,71.938 158.5,70.5C 159.897,67.5935 161.897,65.0935 164.5,63C 168.741,60.6512 173.075,58.8179 177.5,57.5 Z"/></g>
<g><path style="opacity:1" fill="#f6e19b" d="M 351.5,126.5 C 351.5,179.167 351.5,231.833 351.5,284.5C 349.609,285.536 347.776,285.536 346,284.5C 329.32,237.175 295.82,214.342 245.5,216C 238.729,217.287 232.062,218.954 225.5,221C 221.767,223.769 220.767,227.269 222.5,231.5C 218.749,233.707 214.749,235.374 210.5,236.5C 208.142,233.764 205.142,232.93 201.5,234C 183.596,247.283 171.762,264.783 166,286.5C 151.03,281.185 138.03,272.852 127,261.5C 124.19,257.547 122.19,253.213 121,248.5C 120.333,199.833 120.333,151.167 121,102.5C 133.049,113.52 146.883,121.686 162.5,127C 225.564,146.268 288.564,146.102 351.5,126.5 Z"/></g>
<g><path style="opacity:1" fill="#e3cf8f" d="M 351.5,284.5 C 351.5,231.833 351.5,179.167 351.5,126.5C 366.439,120.946 379.939,112.946 392,102.5C 392.667,151.167 392.667,199.833 392,248.5C 389.729,256.206 385.563,262.706 379.5,268C 370.962,274.772 361.629,280.272 351.5,284.5 Z"/></g>
<g><path style="opacity:1" fill="#ebeaeb" d="M 210.5,236.5 C 214.749,235.374 218.749,233.707 222.5,231.5C 223.627,232.122 224.627,232.955 225.5,234C 226.833,234.167 228.167,234.333 229.5,234.5C 263.836,225.04 293.003,233.373 317,259.5C 335.625,285.377 338.625,313.043 326,342.5C 305.297,377.593 274.797,391.093 234.5,383C 193.219,366.963 175.052,336.796 180,292.5C 184.796,272.905 195.129,256.905 211,244.5C 211.722,241.739 211.555,239.073 210.5,236.5 Z"/></g>
<g><path style="opacity:1" fill="#050505" d="M 233.5,265.5 C 237.287,264.814 240.454,265.814 243,268.5C 245.101,272.471 246.601,276.637 247.5,281C 246.729,287.565 243.062,289.898 236.5,288C 232.964,283.423 230.63,278.257 229.5,272.5C 229.577,269.335 230.91,267.001 233.5,265.5 Z"/></g>
<g><path style="opacity:1" fill="#080808" d="M 272.5,265.5 C 278.331,264.186 281.998,266.353 283.5,272C 282.091,276.987 280.258,281.82 278,286.5C 271.003,290.515 266.503,288.681 264.5,281C 265.96,275.054 268.626,269.888 272.5,265.5 Z"/></g>
<g><path style="opacity:1" fill="#be7a4b" d="M 349.5,301.5 C 350.833,325.324 351.5,349.491 351.5,374C 351.333,398.167 351.167,422.333 351,446.5C 346.904,459.268 339.07,469.101 327.5,476C 312.891,484.478 297.558,490.978 281.5,495.5C 242.934,498.977 205.268,494.811 168.5,483C 151.341,477.352 136.841,467.852 125,454.5C 123.392,451.618 122.059,448.618 121,445.5C 120.333,389.167 120.333,332.833 121,276.5C 133.246,287.629 147.246,295.963 163,301.5C 163.643,346.991 184.809,378.491 226.5,396C 261.139,405.807 292.139,399.14 319.5,376C 339.933,355.309 349.933,330.476 349.5,301.5 Z"/></g>
<g><path style="opacity:1" fill="#a66b42" d="M 281.5,495.5 C 297.558,490.978 312.891,484.478 327.5,476C 339.07,469.101 346.904,459.268 351,446.5C 351.167,422.333 351.333,398.167 351.5,374C 351.5,349.491 350.833,325.324 349.5,301.5C 359.067,297.688 368.4,293.188 377.5,288C 382.621,284.547 387.454,280.714 392,276.5C 392.988,333.558 392.654,390.558 391,447.5C 387.693,454.813 382.86,460.98 376.5,466C 360.382,477.153 342.716,484.82 323.5,489C 309.597,491.821 295.597,493.988 281.5,495.5 Z"/></g>
<g><path style="opacity:1" fill="#090909" d="M 206.5,284.5 C 208.655,284.372 210.655,284.872 212.5,286C 215.333,288.833 218.167,291.667 221,294.5C 224.325,303.681 221.158,307.515 211.5,306C 208.333,302.833 205.167,299.667 202,296.5C 199.821,291.181 201.321,287.181 206.5,284.5 Z"/></g>
<g><path style="opacity:1" fill="#040404" d="M 300.5,285.5 C 308.825,283.993 312.325,287.327 311,295.5C 308.203,299.299 305.036,302.799 301.5,306C 292.721,307.888 289.221,304.388 291,295.5C 294.371,292.297 297.538,288.964 300.5,285.5 Z"/></g>
<g><path style="opacity:1" fill="#050404" d="M 246.5,293.5 C 270.532,290.925 287.365,300.592 297,322.5C 298.954,329.514 298.954,336.514 297,343.5C 293.736,348.876 288.903,351.543 282.5,351.5C 276.277,350.926 270.277,349.426 264.5,347C 261.833,346.833 259.167,346.667 256.5,346.5C 247.489,347.295 238.656,348.962 230,351.5C 217.026,349.845 211.693,342.512 214,329.5C 217.74,310.973 228.574,298.973 246.5,293.5 Z"/></g>
<g><path style="opacity:1" fill="#bb784a" d="M 248.5,308.5 C 269.56,306.348 281.56,315.681 284.5,336.5C 279.603,336.276 274.936,335.109 270.5,333C 262.542,331.61 254.542,331.277 246.5,332C 240.503,333.612 234.503,335.112 228.5,336.5C 229.353,322.985 236.02,313.651 248.5,308.5 Z"/></g>
</svg>
