<?xml version="1.0" encoding="UTF-8"?>
<!DOCTYPE svg PUBLIC "-//W3C//DTD SVG 1.1//EN" "http://www.w3.org/Graphics/SVG/1.1/DTD/svg11.dtd">
<svg xmlns="http://www.w3.org/2000/svg" version="1.1" width="512px" height="512px" style="shape-rendering:geometricPrecision; text-rendering:geometricPrecision; image-rendering:optimizeQuality; fill-rule:evenodd; clip-rule:evenodd" xmlns:xlink="http://www.w3.org/1999/xlink">
<g><path style="opacity:0.967" fill="#020302" d="M 355.5,23.5 C 358.978,23.1842 362.312,23.6842 365.5,25C 405.667,65.1667 445.833,105.333 486,145.5C 487.483,148.702 487.817,152.036 487,155.5C 377.527,265.973 267.694,376.139 157.5,486C 154.298,487.483 150.964,487.817 147.5,487C 106.361,446.861 65.5276,406.361 25,365.5C 23.5167,362.298 23.1834,358.964 24,355.5C 134.034,244.299 244.534,133.632 355.5,23.5 Z"/></g>
<g><path style="opacity:1" fill="#fece82" d="M 358.5,43.5 C 395.43,78.7624 431.763,114.762 467.5,151.5C 442.5,177.167 417.167,202.5 391.5,227.5C 355.167,191.833 319.167,155.833 283.5,119.5C 308.521,94.1458 333.521,68.8125 358.5,43.5 Z"/></g>
<g><path style="opacity:1" fill="#ffe8c2" d="M 356.5,71.5 C 364.678,70.8424 368.178,74.5091 367,82.5C 363.108,88.2591 358.441,88.9258 353,84.5C 350.325,79.011 351.492,74.6776 356.5,71.5 Z"/></g>
<g><path style="opacity:1" fill="#ffe9c3" d="M 336.5,91.5 C 345.59,91.7116 348.757,96.045 346,104.5C 338.833,111.667 331.667,118.833 324.5,126C 314.019,128.853 310.186,125.019 313,114.5C 320.728,106.604 328.562,98.9369 336.5,91.5 Z"/></g>
<g><path style="opacity:1" fill="#c2e5f2" d="M 270.5,131.5 C 307.43,166.762 343.763,202.762 379.5,239.5C 365.833,253.833 351.833,267.833 337.5,281.5C 310.271,236.412 283.604,190.912 257.5,145C 262.037,140.631 266.37,136.131 270.5,131.5 Z"/></g>
<g><path style="opacity:1" fill="#c2e6f3" d="M 245.5,156.5 C 258.6,178.521 271.6,200.688 284.5,223C 273.833,223.333 263.167,223.667 252.5,224C 251.069,224.465 249.903,225.299 249,226.5C 247.533,241.403 247.033,256.403 247.5,271.5C 232.403,271.033 217.403,271.533 202.5,273C 201.299,273.903 200.465,275.069 200,276.5C 199.5,290.829 199.333,305.163 199.5,319.5C 184.403,319.033 169.403,319.533 154.5,321C 153.299,321.903 152.465,323.069 152,324.5C 151.5,338.829 151.333,353.163 151.5,367.5C 139.162,367.667 126.829,367.5 114.5,367C 109.404,361.23 103.737,356.23 97.5,352C 82.1667,351.667 66.8333,351.333 51.5,351C 116.368,286.299 181.035,221.465 245.5,156.5 Z"/></g>
<g><path style="opacity:1" fill="#fcfefe" d="M 204.5,223.5 C 215.167,224.003 217.833,228.836 212.5,238C 203.42,241.215 199.253,238.048 200,228.5C 201.025,226.313 202.525,224.646 204.5,223.5 Z"/></g>
<g><path style="opacity:1" fill="#c2e6f3" d="M 263.5,239.5 C 273.855,239.168 284.188,239.501 294.5,240.5C 304.707,258.415 315.04,276.248 325.5,294C 270.333,349.167 215.167,404.333 160,459.5C 159.667,443.833 159.333,428.167 159,412.5C 150.197,402.696 141.03,393.196 131.5,384C 141.5,383.667 151.5,383.333 161.5,383C 163.329,382.727 164.829,381.893 166,380.5C 167.451,365.572 167.951,350.572 167.5,335.5C 182.572,335.951 197.572,335.451 212.5,334C 213.893,332.829 214.727,331.329 215,329.5C 215.5,315.504 215.667,301.504 215.5,287.5C 230.572,287.951 245.572,287.451 260.5,286C 261.893,284.829 262.727,283.329 263,281.5C 263.5,267.504 263.667,253.504 263.5,239.5 Z"/></g>
<g><path style="opacity:1" fill="#fdfefe" d="M 184.5,243.5 C 193.59,243.712 196.757,248.045 194,256.5C 173.5,277 153,297.5 132.5,318C 121.981,320.814 118.147,316.981 121,306.5C 142.062,285.271 163.228,264.271 184.5,243.5 Z"/></g>
<g><path style="opacity:1" fill="#91cfee" d="M 248.5,323.5 C 257.59,323.712 260.757,328.045 258,336.5C 237.5,357 217,377.5 196.5,398C 186,400.833 182.167,397 185,386.5C 206.062,365.271 227.228,344.271 248.5,323.5 Z"/></g>
<g><path style="opacity:1" fill="#c2e6f3" d="M 51.5,368.5 C 64.9938,367.339 78.6604,367.173 92.5,368C 109.333,384.833 126.167,401.667 143,418.5C 143.667,432.167 143.667,445.833 143,459.5C 112.632,428.965 82.132,398.632 51.5,368.5 Z"/></g>
</svg>
