<?xml version="1.0" encoding="UTF-8"?>
<!DOCTYPE svg PUBLIC "-//W3C//DTD SVG 1.1//EN" "http://www.w3.org/Graphics/SVG/1.1/DTD/svg11.dtd">
<svg xmlns="http://www.w3.org/2000/svg" version="1.1" width="512px" height="512px" style="shape-rendering:geometricPrecision; text-rendering:geometricPrecision; image-rendering:optimizeQuality; fill-rule:evenodd; clip-rule:evenodd" xmlns:xlink="http://www.w3.org/1999/xlink">
<g><path style="opacity:0.984" fill="#020000" d="M 478.5,396.5 C 478.775,398.842 479.608,398.842 481,396.5C 486.904,384.871 489.07,372.537 487.5,359.5C 492.833,359.5 498.167,359.5 503.5,359.5C 506.046,378.283 502.046,395.45 491.5,411C 500.868,442.265 491.535,466.265 463.5,483C 428.896,502.519 391.896,508.852 352.5,502C 343.254,500.564 334.088,498.73 325,496.5C 319.333,499.082 313.499,501.249 307.5,503C 219.5,503.667 131.5,503.667 43.5,503C 15.8974,494.33 4.06412,475.497 8,446.5C 18.9181,361.488 29.9181,276.488 41,191.5C 47.7019,165.129 63.8686,147.296 89.5,138C 86.131,128.658 87.131,119.825 92.5,111.5C 87.5408,103.822 86.2075,95.4891 88.5,86.5C 66.4792,74.3 58.9792,55.9666 66,31.5C 71.592,18.9064 81.092,11.0731 94.5,8C 148.5,7.33333 202.5,7.33333 256.5,8C 280.429,15.3327 290.595,31.4993 287,56.5C 285.672,62.822 283.005,68.4887 279,73.5C 273.882,78.4663 268.382,82.7997 262.5,86.5C 264.793,95.4891 263.459,103.822 258.5,111.5C 263.869,119.825 264.869,128.658 261.5,138C 289.662,148.17 306.162,168.003 311,197.5C 315.749,233.823 320.415,270.156 325,306.5C 337.366,287.382 343.699,266.382 344,243.5C 344.5,241.667 345.667,240.5 347.5,240C 353.903,239.028 359.569,240.694 364.5,245C 384.375,260.928 393.875,281.762 393,307.5C 393.91,312.651 395.91,317.318 399,321.5C 402.655,303.846 413.155,292.68 430.5,288C 435.618,287.112 440.618,287.445 445.5,289C 446.958,291.077 447.624,293.41 447.5,296C 444.905,305.677 444.072,315.51 445,325.5C 448.94,337.656 452.274,349.99 455,362.5C 455.5,372.161 455.666,381.828 455.5,391.5C 463.679,390.895 471.346,392.562 478.5,396.5 Z"/></g>
<g><path style="opacity:1" fill="#c7c7c7" d="M 269.5,55.5 C 220.166,55.6667 170.832,55.5 121.5,55C 105.173,51.0947 96.8397,40.928 96.5,24.5C 148.429,23.3383 200.429,23.1716 252.5,24C 268.164,29.4189 273.831,39.9189 269.5,55.5 Z"/></g>
<g><path style="opacity:1" fill="#b3b3b3" d="M 96.5,24.5 C 96.8397,40.928 105.173,51.0947 121.5,55C 170.832,55.5 220.166,55.6667 269.5,55.5C 266.588,63.5744 260.921,68.741 252.5,71C 200.833,71.6667 149.167,71.6667 97.5,71C 80.7086,63.6311 75.8753,51.4644 83,34.5C 86.5519,29.7672 91.0519,26.4338 96.5,24.5 Z"/></g>
<g><path style="opacity:1" fill="#767676" d="M 113.5,87.5 C 115.725,90.8886 118.725,93.3886 122.5,95C 164.165,95.5 205.832,95.6667 247.5,95.5C 247.513,99.6501 245.513,102.15 241.5,103C 197.167,103.667 152.833,103.667 108.5,103C 102.741,99.1081 102.074,94.4414 106.5,89C 108.677,87.7978 111.011,87.2978 113.5,87.5 Z"/></g>
<g><path style="opacity:1" fill="#949494" d="M 113.5,87.5 C 156.501,87.3333 199.501,87.5 242.5,88C 245.789,89.4103 247.456,91.9103 247.5,95.5C 205.832,95.6667 164.165,95.5 122.5,95C 118.725,93.3886 115.725,90.8886 113.5,87.5 Z"/></g>
<g><path style="opacity:1" fill="#767676" d="M 113.5,119.5 C 115.725,122.889 118.725,125.389 122.5,127C 164.165,127.5 205.832,127.667 247.5,127.5C 247.513,131.65 245.513,134.15 241.5,135C 197.167,135.667 152.833,135.667 108.5,135C 102.741,131.108 102.074,126.441 106.5,121C 108.677,119.798 111.011,119.298 113.5,119.5 Z"/></g>
<g><path style="opacity:1" fill="#949494" d="M 113.5,119.5 C 156.501,119.333 199.501,119.5 242.5,120C 245.789,121.41 247.456,123.91 247.5,127.5C 205.832,127.667 164.165,127.5 122.5,127C 118.725,125.389 115.725,122.889 113.5,119.5 Z"/></g>
<g><path style="opacity:1" fill="#b3b3b3" d="M 83.5,210.5 C 84.5766,192.224 86.9099,173.891 90.5,155.5C 94.3746,154.03 98.3746,152.863 102.5,152C 150.167,151.333 197.833,151.333 245.5,152C 270.393,156.227 286.559,170.394 294,194.5C 296.408,209.428 298.241,224.428 299.5,239.5C 275.743,238.824 252.41,235.324 229.5,229C 194.954,215.424 159.12,208.257 122,207.5C 109.129,208.071 96.2954,209.071 83.5,210.5 Z"/></g>
<g><path style="opacity:1" fill="#939393" d="M 90.5,155.5 C 86.9099,173.891 84.5766,192.224 83.5,210.5C 73.9629,212.259 64.4629,214.592 55,217.5C 53.1619,188.827 64.9952,168.16 90.5,155.5 Z"/></g>
<g><path style="opacity:1" fill="#f16b21" d="M 73.5,280.5 C 75.5981,262.706 78.2648,245.04 81.5,227.5C 118.535,220.891 155.202,222.724 191.5,233C 227.186,247.064 264.186,254.564 302.5,255.5C 302.784,258.777 302.451,261.943 301.5,265C 227.363,299.51 151.363,304.677 73.5,280.5 Z"/></g>
<g><path style="opacity:1" fill="#e6451d" d="M 81.5,227.5 C 78.2648,245.04 75.5981,262.706 73.5,280.5C 64.8396,278.502 56.173,276.502 47.5,274.5C 48.1766,261.09 49.5099,247.756 51.5,234.5C 61.5088,232.16 71.5088,229.826 81.5,227.5 Z"/></g>
<g><path style="opacity:1" fill="#da4845" d="M 327.5,413.5 C 307.58,392.083 300.246,367.083 305.5,338.5C 311.03,347.722 316.697,356.889 322.5,366C 326.665,368.101 330.498,367.601 334,364.5C 335.277,351.569 335.943,338.569 336,325.5C 336.511,323.122 337.178,320.788 338,318.5C 348.752,301.245 355.752,282.578 359,262.5C 371.322,274.12 376.988,288.453 376,305.5C 378.892,325.978 389.225,341.311 407,351.5C 409.7,351.27 412.033,350.27 414,348.5C 415.248,339.575 415.915,330.575 416,321.5C 418.133,315.031 422.133,310.031 428,306.5C 428.192,315.543 428.859,324.543 430,333.5C 433.606,343.986 436.606,354.653 439,365.5C 439.809,376.263 439.143,386.93 437,397.5C 429.692,402.641 422.526,407.974 415.5,413.5C 415.759,407.121 415.259,400.787 414,394.5C 412.033,392.73 409.7,391.73 407,391.5C 401.737,392.865 396.571,394.532 391.5,396.5C 387.212,379.093 378.212,364.593 364.5,353C 360.252,350.652 356.419,351.152 353,354.5C 351.76,360.165 350.427,365.832 349,371.5C 344.719,378.115 340.053,384.448 335,390.5C 330.791,397.628 328.291,405.295 327.5,413.5 Z"/></g>
<g><path style="opacity:1" fill="#f26b21" d="M 257.5,463.5 C 200.166,463.667 142.832,463.5 85.5,463C 69.2161,459.05 59.3827,448.883 56,432.5C 55.8333,429.833 55.6667,427.167 55.5,424.5C 60.542,382.121 65.8754,339.787 71.5,297.5C 136.615,316.565 201.615,316.065 266.5,296C 279.574,291.254 292.574,286.421 305.5,281.5C 306.577,291.361 307.911,301.194 309.5,311C 309.167,311.833 308.833,312.667 308.5,313.5C 306.043,311.775 303.377,311.275 300.5,312C 289.032,325.708 282.198,341.541 280,359.5C 277.189,387.945 285.022,412.945 303.5,434.5C 298.954,434.178 294.287,433.011 289.5,431C 276.244,425.803 262.911,420.803 249.5,416C 242.251,415.249 238.918,418.582 239.5,426C 240.826,440.816 246.826,453.316 257.5,463.5 Z"/></g>
<g><path style="opacity:1" fill="#e9461d" d="M 71.5,297.5 C 65.8754,339.787 60.542,382.121 55.5,424.5C 55.6667,427.167 55.8333,429.833 56,432.5C 59.3827,448.883 69.2161,459.05 85.5,463C 142.832,463.5 200.166,463.667 257.5,463.5C 270.609,472.741 284.609,480.574 299.5,487C 215.167,487.667 130.833,487.667 46.5,487C 31.6691,482.501 24.0024,472.501 23.5,457C 29.8952,401.003 37.2286,345.169 45.5,289.5C 54.2843,292.189 62.9509,294.856 71.5,297.5 Z"/></g>
<g><path style="opacity:1" fill="#c0322f" d="M 305.5,338.5 C 300.246,367.083 307.58,392.083 327.5,413.5C 327.618,420.061 328.285,426.561 329.5,433C 328.423,434.543 327.089,434.543 325.5,433C 302.781,414.197 292.948,390.03 296,360.5C 297.273,351.681 299.94,343.348 304,335.5C 304.513,336.527 305.013,337.527 305.5,338.5 Z"/></g>
<g><path style="opacity:0.594" fill="#3a8235" d="M 503.5,359.5 C 498.167,359.5 492.833,359.5 487.5,359.5C 489.07,372.537 486.904,384.871 481,396.5C 479.608,398.842 478.775,398.842 478.5,396.5C 485.923,384.237 488.589,370.904 486.5,356.5C 492.167,356.5 497.833,356.5 503.5,356.5C 503.5,357.5 503.5,358.5 503.5,359.5 Z"/></g>
<g><path style="opacity:1" fill="#f5c764" d="M 385.5,429.5 C 375.828,429.666 366.161,429.5 356.5,429C 352.38,428.138 348.38,426.971 344.5,425.5C 341.917,414.981 343.75,405.314 350,396.5C 356.196,390.806 361.03,384.14 364.5,376.5C 372.199,386.095 376.032,397.095 376,409.5C 376.805,413.307 379.139,415.307 383,415.5C 388.105,413.853 393.272,412.519 398.5,411.5C 397.646,416.231 396.48,420.898 395,425.5C 392.104,427.533 388.937,428.866 385.5,429.5 Z"/></g>
<g><path style="opacity:1" fill="#c3322f" d="M 468.5,457.5 C 449.187,468.103 428.52,474.603 406.5,477C 361.219,479.846 319.219,469.513 280.5,446C 281.094,445.536 281.761,445.369 282.5,445.5C 325.673,460.773 367.673,457.94 408.5,437C 421.359,429.072 433.692,420.405 445.5,411C 460.8,404.1 471.966,408.266 479,423.5C 480.425,436.494 476.925,447.827 468.5,457.5 Z"/></g>
<g><path style="opacity:1" fill="#e1b030" d="M 344.5,425.5 C 348.38,426.971 352.38,428.138 356.5,429C 366.161,429.5 375.828,429.666 385.5,429.5C 373.607,435.282 360.941,438.282 347.5,438.5C 346.344,434.207 345.344,429.874 344.5,425.5 Z"/></g>
<g><path style="opacity:1" fill="#9e221f" d="M 282.5,445.5 C 281.761,445.369 281.094,445.536 280.5,446C 319.219,469.513 361.219,479.846 406.5,477C 428.52,474.603 449.187,468.103 468.5,457.5C 458.719,466.903 447.386,474.07 434.5,479C 375.001,495.75 319.667,486.75 268.5,452C 263.321,447.756 260.321,442.589 259.5,436.5C 267.345,439.332 275.012,442.332 282.5,445.5 Z"/></g>
</svg>
