<?xml version="1.0" encoding="UTF-8"?>
<!DOCTYPE svg PUBLIC "-//W3C//DTD SVG 1.1//EN" "http://www.w3.org/Graphics/SVG/1.1/DTD/svg11.dtd">
<svg xmlns="http://www.w3.org/2000/svg" version="1.1" width="512px" height="512px" style="shape-rendering:geometricPrecision; text-rendering:geometricPrecision; image-rendering:optimizeQuality; fill-rule:evenodd; clip-rule:evenodd" xmlns:xlink="http://www.w3.org/1999/xlink">
<g><path style="opacity:0.977" fill="#000100" d="M 136.5,95.5 C 136.864,100.247 135.198,104.081 131.5,107C 71.179,125.321 34.5123,165.321 21.5,227C 21.8333,227.5 22.1667,228 22.5,228.5C 37.7337,212.631 56.4004,203.631 78.5,201.5C 97.4643,155.604 131.798,135.604 181.5,141.5C 184.72,128.39 191.054,117.056 200.5,107.5C 195.469,106.492 190.469,105.326 185.5,104C 177.756,103.897 170.089,103.231 162.5,102C 159.48,99.3806 157.48,96.2139 156.5,92.5C 157.066,88.0914 159.4,84.9247 163.5,83C 187.066,81.8463 209.733,85.8463 231.5,95C 238.224,104.359 236.224,111.192 225.5,115.5C 214.315,121.02 206.648,129.687 202.5,141.5C 200.471,146.654 198.971,151.988 198,157.5C 197.167,159.667 195.667,161.167 193.5,162C 184.279,162.52 175.112,162.02 166,160.5C 140.036,160.647 119.703,171.313 105,192.5C 100.428,201.578 96.2614,210.745 92.5,220C 91.3279,220.419 90.3279,221.085 89.5,222C 67.2335,221.224 48.7335,229.057 34,245.5C 31.8882,248.727 30.0549,252.06 28.5,255.5C 25.0124,261.098 22.1791,267.098 20,273.5C 15.7823,278.63 10.6157,279.796 4.5,277C 2.17694,274.83 0.51027,272.33 -0.5,269.5C -0.5,257.833 -0.5,246.167 -0.5,234.5C 4.03243,196.602 19.0324,163.435 44.5,135C 29.3926,120.953 19.8926,103.786 16,83.5C 13.214,47.5585 27.714,21.3918 59.5,5C 63.4174,3.52728 67.4174,2.36061 71.5,1.5C 78.7327,2.43734 82.066,6.60401 81.5,14C 75.9315,43.8283 79.0982,72.6616 91,100.5C 102.198,94.489 114.031,90.1556 126.5,87.5C 131.936,87.6075 135.269,90.2741 136.5,95.5 Z"/></g>
<g><path style="opacity:1" fill="#29b170" d="M 56.5,30.5 C 56.2695,58.0146 61.6028,84.6813 72.5,110.5C 69.402,114.743 65.402,118.077 60.5,120.5C 37.2279,100.857 31.0613,76.8571 42,48.5C 45.9083,41.758 50.7416,35.758 56.5,30.5 Z"/></g>
<g><path style="opacity:0.999" fill="#29b371" d="M 156.5,92.5 C 157.48,96.2139 159.48,99.3806 162.5,102C 170.089,103.231 177.756,103.897 185.5,104C 190.469,105.326 195.469,106.492 200.5,107.5C 191.054,117.056 184.72,128.39 181.5,141.5C 131.798,135.604 97.4643,155.604 78.5,201.5C 56.4004,203.631 37.7337,212.631 22.5,228.5C 22.1667,228 21.8333,227.5 21.5,227C 34.5123,165.321 71.179,125.321 131.5,107C 135.198,104.081 136.864,100.247 136.5,95.5C 143.099,94.1287 149.765,93.1287 156.5,92.5 Z"/></g>
<g><path style="opacity:1" fill="#dc3450" d="M 225.5,115.5 C 230.761,117.816 236.095,120.15 241.5,122.5C 240.11,125.93 240.276,129.264 242,132.5C 251.769,139.302 261.269,146.469 270.5,154C 286.51,169.179 298.677,187.013 307,207.5C 328.271,285.1 368.104,351.1 426.5,405.5C 393.44,390.139 361.44,372.973 330.5,354C 300.18,335.682 275.014,311.849 255,282.5C 247.783,270.184 242.116,257.184 238,243.5C 232.602,219.909 226.269,196.575 219,173.5C 215.942,165.717 212.608,158.05 209,150.5C 207.301,147.079 205.135,144.079 202.5,141.5C 206.648,129.687 214.315,121.02 225.5,115.5 Z"/></g>
<g><path style="opacity:0.969" fill="#010000" d="M 511.5,451.5 C 511.5,456.833 511.5,462.167 511.5,467.5C 509.059,474.843 504.725,481.01 498.5,486C 475.347,495.382 451.347,501.715 426.5,505C 352.039,515.526 280.039,506.526 210.5,478C 204.946,474.599 202.946,469.766 204.5,463.5C 206.671,461.5 209.004,459.666 211.5,458C 219.428,459.084 227.094,461.417 234.5,465C 318.041,494.886 402.041,496.219 486.5,469C 493.423,461.956 493.09,455.289 485.5,449C 464.549,436.212 444.882,421.712 426.5,405.5C 368.104,351.1 328.271,285.1 307,207.5C 298.677,187.013 286.51,169.179 270.5,154C 261.269,146.469 251.769,139.302 242,132.5C 240.276,129.264 240.11,125.93 241.5,122.5C 242.673,120.496 244.34,118.996 246.5,118C 250.295,117.163 253.961,117.496 257.5,119C 285.199,135.702 306.365,158.535 321,187.5C 327.944,205.268 334.277,223.268 340,241.5C 371.716,323.879 425.216,388.045 500.5,434C 505.848,438.88 509.514,444.714 511.5,451.5 Z"/></g>
<g><path style="opacity:1" fill="#f65368" d="M 202.5,141.5 C 205.135,144.079 207.301,147.079 209,150.5C 212.608,158.05 215.942,165.717 219,173.5C 226.269,196.575 232.602,219.909 238,243.5C 242.116,257.184 247.783,270.184 255,282.5C 275.014,311.849 300.18,335.682 330.5,354C 361.44,372.973 393.44,390.139 426.5,405.5C 444.882,421.712 464.549,436.212 485.5,449C 493.09,455.289 493.423,461.956 486.5,469C 402.041,496.219 318.041,494.886 234.5,465C 227.094,461.417 219.428,459.084 211.5,458C 209.004,459.666 206.671,461.5 204.5,463.5C 200.967,462.626 197.634,461.293 194.5,459.5C 194.665,456.15 194.498,452.817 194,449.5C 193.535,448.069 192.701,446.903 191.5,446C 136.056,416.691 90.5565,376.191 55,324.5C 50.2708,314.966 45.9374,305.3 42,295.5C 39.1763,292.502 35.6763,291.168 31.5,291.5C 29.1821,279.62 28.1821,267.62 28.5,255.5C 30.0549,252.06 31.8882,248.727 34,245.5C 48.7335,229.057 67.2335,221.224 89.5,222C 90.3279,221.085 91.3279,220.419 92.5,220C 96.2614,210.745 100.428,201.578 105,192.5C 119.703,171.313 140.036,160.647 166,160.5C 175.112,162.02 184.279,162.52 193.5,162C 195.667,161.167 197.167,159.667 198,157.5C 198.971,151.988 200.471,146.654 202.5,141.5 Z"/></g>
<g><path style="opacity:0.966" fill="#020000" d="M 31.5,291.5 C 35.6763,291.168 39.1763,292.502 42,295.5C 45.9374,305.3 50.2708,314.966 55,324.5C 90.5565,376.191 136.056,416.691 191.5,446C 192.701,446.903 193.535,448.069 194,449.5C 194.498,452.817 194.665,456.15 194.5,459.5C 191.249,463.779 186.915,465.279 181.5,464C 125.5,435.012 78.9997,394.845 42,343.5C 33.9003,330.536 27.7336,316.703 23.5,302C 23.3709,296.303 26.0376,292.803 31.5,291.5 Z"/></g>
</svg>
