<?xml version="1.0" encoding="UTF-8"?>
<!DOCTYPE svg PUBLIC "-//W3C//DTD SVG 1.1//EN" "http://www.w3.org/Graphics/SVG/1.1/DTD/svg11.dtd">
<svg xmlns="http://www.w3.org/2000/svg" version="1.1" width="512px" height="512px" style="shape-rendering:geometricPrecision; text-rendering:geometricPrecision; image-rendering:optimizeQuality; fill-rule:evenodd; clip-rule:evenodd" xmlns:xlink="http://www.w3.org/1999/xlink">
<g><path style="opacity:0.976" fill="#010102" d="M 426.5,-0.5 C 431.167,-0.5 435.833,-0.5 440.5,-0.5C 453.788,5.07059 458.955,15.0706 456,29.5C 434.879,66.912 413.379,104.079 391.5,141C 417.113,146.811 441.113,156.478 463.5,170C 486.092,185.418 493.925,206.585 487,233.5C 482.246,275.982 467.246,314.315 442,348.5C 438.659,350.668 435.159,351.002 431.5,349.5C 428.857,346.66 428.024,343.327 429,339.5C 451.117,310.282 464.617,277.615 469.5,241.5C 450.828,255.334 430.162,265.167 407.5,271C 334.53,289.936 260.53,295.27 185.5,287C 147.34,283.21 110.34,274.543 74.5,261C 62.5433,256.025 51.5433,249.525 41.5,241.5C 52.4368,309.529 87.4368,361.362 146.5,397C 156.045,401.939 165.711,406.606 175.5,411C 181.223,415.501 183.39,421.335 182,428.5C 177.212,443.982 173.545,459.649 171,475.5C 172.457,477.658 174.29,479.491 176.5,481C 194.444,489.903 213.444,494.903 233.5,496C 260.122,497.529 286.455,495.529 312.5,490C 322.178,487.555 331.012,483.389 339,477.5C 339.923,475.966 340.423,474.299 340.5,472.5C 336.98,457.753 333.147,443.087 329,428.5C 327.739,421.366 329.906,415.532 335.5,411C 363.053,399.735 387.387,383.735 408.5,363C 412.237,361.111 415.904,361.278 419.5,363.5C 421.745,366.733 421.912,370.067 420,373.5C 398.496,395.011 373.662,411.678 345.5,423.5C 344.369,425.074 344.202,426.741 345,428.5C 349.07,443.614 352.903,458.78 356.5,474C 354.606,483.226 349.606,490.226 341.5,495C 321.416,504.436 300.416,509.936 278.5,511.5C 263.167,511.5 247.833,511.5 232.5,511.5C 210.598,509.88 189.598,504.38 169.5,495C 161.064,490.463 156.064,483.463 154.5,474C 158.097,458.78 161.93,443.614 166,428.5C 166.798,426.741 166.631,425.074 165.5,423.5C 98.4417,394.054 53.9417,344.387 32,274.5C 24.6382,249.947 21.9716,224.947 24,199.5C 28.6101,187.121 36.4434,177.287 47.5,170C 56.0601,164.553 65.0601,159.886 74.5,156C 78.4096,154.959 81.4096,156.125 83.5,159.5C 85.2326,163.731 84.2326,167.231 80.5,170C 65.4512,175.762 52.6179,184.595 42,196.5C 35.8107,208.575 37.9774,218.908 48.5,227.5C 60.8542,219.984 71.5209,210.484 80.5,199C 85.887,194.638 91.887,191.305 98.5,189C 110.498,189.07 122.498,189.07 134.5,189C 145.414,184.209 156.081,178.876 166.5,173C 171.995,170.817 177.661,170.151 183.5,171C 190.536,172.509 197.536,174.176 204.5,176C 209.833,176.667 215.167,176.667 220.5,176C 227.61,173.611 234.61,170.944 241.5,168C 250.459,164.781 259.459,164.781 268.5,168C 275.422,170.863 282.422,173.53 289.5,176C 295.557,177.162 301.223,176.162 306.5,173C 311.556,172.144 316.556,171.144 321.5,170C 327.658,163.019 332.324,155.186 335.5,146.5C 276.055,139.205 216.722,140.039 157.5,149C 141.445,151.61 125.612,155.11 110,159.5C 106.205,158.873 103.372,156.873 101.5,153.5C 101.349,148.486 103.683,145.32 108.5,144C 166.636,129.579 225.636,123.912 285.5,127C 304.961,127.733 324.294,129.566 343.5,132.5C 357.253,109.33 370.753,85.9969 384,62.5C 386.546,58.9504 390.046,57.6171 394.5,58.5C 398.171,61.293 399.338,64.9597 398,69.5C 377.131,106.744 355.631,143.577 333.5,180C 326.882,184.442 319.549,186.776 311.5,187C 304.244,189.545 298.077,193.712 293,199.5C 289.248,205.336 285.748,211.336 282.5,217.5C 283.667,217.833 284.833,218.167 286,218.5C 294.349,215.997 302.849,214.33 311.5,213.5C 319.796,213.47 327.796,214.97 335.5,218C 341.491,218.499 347.491,218.666 353.5,218.5C 352.844,211.846 351.01,205.513 348,199.5C 347.228,194.096 347.561,188.762 349,183.5C 379.919,130.664 410.586,77.6636 441,24.5C 441.671,16.8408 438.171,13.6741 430.5,15C 424.709,22.7444 419.542,30.9111 415,39.5C 411.921,42.485 408.421,43.1517 404.5,41.5C 402.078,40.3077 401.078,38.3077 401.5,35.5C 404.91,26.0137 409.41,17.0137 415,8.5C 418.161,4.49052 421.994,1.49052 426.5,-0.5 Z"/></g>
<g><path style="opacity:0.999" fill="#3e71c4" d="M 394.5,58.5 C 398.071,53.0334 401.404,47.3668 404.5,41.5C 408.421,43.1517 411.921,42.485 415,39.5C 419.542,30.9111 424.709,22.7444 430.5,15C 438.171,13.6741 441.671,16.8408 441,24.5C 410.586,77.6636 379.919,130.664 349,183.5C 347.561,188.762 347.228,194.096 348,199.5C 351.01,205.513 352.844,211.846 353.5,218.5C 347.491,218.666 341.491,218.499 335.5,218C 327.796,214.97 319.796,213.47 311.5,213.5C 302.849,214.33 294.349,215.997 286,218.5C 284.833,218.167 283.667,217.833 282.5,217.5C 285.748,211.336 289.248,205.336 293,199.5C 298.077,193.712 304.244,189.545 311.5,187C 319.549,186.776 326.882,184.442 333.5,180C 355.631,143.577 377.131,106.744 398,69.5C 399.338,64.9597 398.171,61.293 394.5,58.5 Z"/></g>
<g><path style="opacity:0.999" fill="#2f559b" d="M 83.5,159.5 C 89.7746,158.014 95.7746,156.014 101.5,153.5C 103.372,156.873 106.205,158.873 110,159.5C 125.612,155.11 141.445,151.61 157.5,149C 216.722,140.039 276.055,139.205 335.5,146.5C 332.324,155.186 327.658,163.019 321.5,170C 316.556,171.144 311.556,172.144 306.5,173C 301.223,176.162 295.557,177.162 289.5,176C 282.422,173.53 275.422,170.863 268.5,168C 259.459,164.781 250.459,164.781 241.5,168C 234.61,170.944 227.61,173.611 220.5,176C 215.167,176.667 209.833,176.667 204.5,176C 197.536,174.176 190.536,172.509 183.5,171C 177.661,170.151 171.995,170.817 166.5,173C 156.081,178.876 145.414,184.209 134.5,189C 122.498,189.07 110.498,189.07 98.5,189C 91.887,191.305 85.887,194.638 80.5,199C 71.5209,210.484 60.8542,219.984 48.5,227.5C 37.9774,218.908 35.8107,208.575 42,196.5C 52.6179,184.595 65.4512,175.762 80.5,170C 84.2326,167.231 85.2326,163.731 83.5,159.5 Z"/></g>
<g><path style="opacity:1" fill="#2f569b" d="M 382.5,155.5 C 409.42,160.527 434.42,170.361 457.5,185C 463.624,189.739 468.458,195.573 472,202.5C 473.85,212.787 470.684,221.121 462.5,227.5C 450.146,219.984 439.479,210.484 430.5,199C 421.956,191.429 411.956,187.929 400.5,188.5C 392.501,189.191 384.501,189.358 376.5,189C 372.456,188.144 368.789,186.478 365.5,184C 371.052,174.39 376.719,164.89 382.5,155.5 Z"/></g>
<g><path style="opacity:1" fill="#b5e144" d="M 403.5,203.5 C 410.297,208.564 412.297,215.23 409.5,223.5C 405.373,223.635 402.706,225.635 401.5,229.5C 391.476,235.239 380.809,239.739 369.5,243C 350.529,248.894 331.195,253.061 311.5,255.5C 311.737,254.209 311.404,253.209 310.5,252.5C 309.578,248.917 307.244,247.25 303.5,247.5C 299.756,247.25 297.422,248.917 296.5,252.5C 295.953,254.518 294.953,256.351 293.5,258C 286.893,259.294 280.226,260.127 273.5,260.5C 267.31,250.941 258.644,247.774 247.5,251C 242.281,253.385 238.614,257.218 236.5,262.5C 186.995,264.511 137.995,260.511 89.5,250.5C 79.5167,247.342 70.1834,242.842 61.5,237C 64.328,234.752 67.328,232.752 70.5,231C 78.5541,222.946 86.5541,214.946 94.5,207C 96.5,206 98.5,205 100.5,204C 108.339,203.544 116.172,203.711 124,204.5C 130.278,204.481 136.444,203.648 142.5,202C 153.167,196.667 163.833,191.333 174.5,186C 177.5,185.333 180.5,185.333 183.5,186C 195.783,190.491 208.449,192.158 221.5,191C 230.127,188.791 238.46,185.791 246.5,182C 251.095,180.607 255.761,180.274 260.5,181C 267.699,183.344 274.699,186.177 281.5,189.5C 276.556,199.078 270.889,208.078 264.5,216.5C 256.902,213.766 249.236,213.266 241.5,215C 237.354,219.625 237.687,223.959 242.5,228C 251.13,228.146 259.463,229.813 267.5,233C 280.16,234.532 292.494,233.198 304.5,229C 310.167,228.333 315.833,228.333 321.5,229C 338.118,234.909 354.785,234.909 371.5,229C 375.167,228.667 378.833,228.333 382.5,228C 388.15,224.588 388.817,220.421 384.5,215.5C 378.983,213.181 373.317,212.848 367.5,214.5C 367.094,209.649 366.261,204.982 365,200.5C 367.93,202.255 371.097,203.422 374.5,204C 384.176,204.482 393.843,204.315 403.5,203.5 Z"/></g>
<g><path style="opacity:1" fill="#a7d13f" d="M 403.5,203.5 C 410.518,203.507 416.518,206.007 421.5,211C 425.833,216 430.167,221 434.5,226C 439.322,229.911 444.322,233.578 449.5,237C 444.49,240.507 439.157,243.507 433.5,246C 398.402,259.686 362.068,268.352 324.5,272C 308.224,273.955 291.89,274.788 275.5,274.5C 275.967,269.6 275.301,264.933 273.5,260.5C 280.226,260.127 286.893,259.294 293.5,258C 294.953,256.351 295.953,254.518 296.5,252.5C 295.744,258.013 298.077,261.013 303.5,261.5C 309.198,261.134 311.532,258.134 310.5,252.5C 311.404,253.209 311.737,254.209 311.5,255.5C 331.195,253.061 350.529,248.894 369.5,243C 380.809,239.739 391.476,235.239 401.5,229.5C 401.742,237.794 405.742,240.294 413.5,237C 417.107,230.984 415.774,226.484 409.5,223.5C 412.297,215.23 410.297,208.564 403.5,203.5 Z"/></g>
<g><path style="opacity:1" fill="#040401" d="M 165.5,210.5 C 187.29,210.441 195.123,220.775 189,241.5C 177.393,254.724 165.726,254.724 154,241.5C 148.33,227.524 152.164,217.191 165.5,210.5 Z"/></g>
<g><path style="opacity:1" fill="#0a0c04" d="M 109.5,223.5 C 116.029,223.857 119.195,227.19 119,233.5C 116.774,237.861 113.274,239.361 108.5,238C 104.876,235.839 103.709,232.672 105,228.5C 106.025,226.313 107.525,224.646 109.5,223.5 Z"/></g>
<g><path style="opacity:1" fill="#070802" d="M 409.5,223.5 C 415.774,226.484 417.107,230.984 413.5,237C 405.742,240.294 401.742,237.794 401.5,229.5C 402.706,225.635 405.373,223.635 409.5,223.5 Z"/></g>
<g><path style="opacity:1" fill="#efe65f" d="M 168.5,225.5 C 175,224.499 177.5,227.165 176,233.5C 173,237.5 170,237.5 167,233.5C 166.109,230.502 166.609,227.836 168.5,225.5 Z"/></g>
<g><path style="opacity:1" fill="#0a0c04" d="M 212.5,236.5 C 218.766,235.117 222.433,237.45 223.5,243.5C 221.171,252.207 216.671,253.54 210,247.5C 207.826,243.193 208.659,239.526 212.5,236.5 Z"/></g>
<g><path style="opacity:1" fill="#3f72c7" d="M 431.5,349.5 C 427.874,354.461 423.874,359.128 419.5,363.5C 415.904,361.278 412.237,361.111 408.5,363C 387.387,383.735 363.053,399.735 335.5,411C 329.906,415.532 327.739,421.366 329,428.5C 333.147,443.087 336.98,457.753 340.5,472.5C 340.423,474.299 339.923,475.966 339,477.5C 331.012,483.389 322.178,487.555 312.5,490C 286.455,495.529 260.122,497.529 233.5,496C 213.444,494.903 194.444,489.903 176.5,481C 174.29,479.491 172.457,477.658 171,475.5C 173.545,459.649 177.212,443.982 182,428.5C 183.39,421.335 181.223,415.501 175.5,411C 165.711,406.606 156.045,401.939 146.5,397C 87.4368,361.362 52.4368,309.529 41.5,241.5C 51.5433,249.525 62.5433,256.025 74.5,261C 110.34,274.543 147.34,283.21 185.5,287C 260.53,295.27 334.53,289.936 407.5,271C 430.162,265.167 450.828,255.334 469.5,241.5C 464.617,277.615 451.117,310.282 429,339.5C 428.024,343.327 428.857,346.66 431.5,349.5 Z"/></g>
<g><path style="opacity:1" fill="#040501" d="M 310.5,252.5 C 311.532,258.134 309.198,261.134 303.5,261.5C 298.077,261.013 295.744,258.013 296.5,252.5C 297.422,248.917 299.756,247.25 303.5,247.5C 307.244,247.25 309.578,248.917 310.5,252.5 Z"/></g>
<g><path style="opacity:1" fill="#a3cc3d" d="M 89.5,250.5 C 137.995,260.511 186.995,264.511 236.5,262.5C 235.564,266.735 235.231,271.069 235.5,275.5C 193.141,274.568 151.474,268.734 110.5,258C 103.288,255.765 96.2878,253.265 89.5,250.5 Z"/></g>
<g><path style="opacity:1" fill="#eadc35" d="M 252.5,264.5 C 260.053,263.882 262.386,267.049 259.5,274C 250.411,276.174 248.078,273.007 252.5,264.5 Z"/></g>
<g><path style="opacity:1" fill="#020205" d="M 199.5,419.5 C 235.52,427.469 271.52,427.469 307.5,419.5C 315.401,420.868 317.568,425.201 314,432.5C 305.035,435.295 295.868,437.461 286.5,439C 261.402,441.509 236.402,440.843 211.5,437C 206.648,436.287 201.981,434.954 197.5,433C 194.397,427.886 195.064,423.386 199.5,419.5 Z"/></g>
</svg>
