<?xml version="1.0" encoding="UTF-8"?>
<!DOCTYPE svg PUBLIC "-//W3C//DTD SVG 1.1//EN" "http://www.w3.org/Graphics/SVG/1.1/DTD/svg11.dtd">
<svg xmlns="http://www.w3.org/2000/svg" version="1.1" width="512px" height="512px" style="shape-rendering:geometricPrecision; text-rendering:geometricPrecision; image-rendering:optimizeQuality; fill-rule:evenodd; clip-rule:evenodd" xmlns:xlink="http://www.w3.org/1999/xlink">
<g><path style="opacity:0.967" fill="#010102" d="M 335.5,7.5 C 342.508,7.33371 349.508,7.50038 356.5,8C 376.661,13.457 396.994,18.1237 417.5,22C 427.833,22.6667 438.167,22.6667 448.5,22C 461.182,19.8968 473.848,17.7302 486.5,15.5C 489.253,15.3533 491.753,16.0199 494,17.5C 495.52,21.3749 495.854,25.3749 495,29.5C 492.743,40.119 490.743,50.7857 489,61.5C 488.333,72.1667 488.333,82.8333 489,93.5C 492.876,114.006 497.543,134.339 503,154.5C 506.489,185.717 493.322,205.883 463.5,215C 458,215.167 452.5,215.333 447,215.5C 432.064,215.135 417.231,213.969 402.5,212C 376.204,249.794 341.204,275.961 297.5,290.5C 300.692,297.562 304.192,304.562 308,311.5C 316.421,338.318 310.254,361.152 289.5,380C 275.5,389.667 261.5,399.333 247.5,409C 235.193,418.585 230.36,431.085 233,446.5C 237.383,458.933 242.049,471.267 247,483.5C 249.167,493.333 245.333,497.167 235.5,495C 188.972,476.791 173.805,444.291 190,397.5C 166.105,412.723 148.771,433.39 138,459.5C 133.494,473.372 129.494,487.372 126,501.5C 121.948,503.942 117.781,504.109 113.5,502C 112.283,500.352 111.45,498.519 111,496.5C 107.356,478.139 104.856,459.639 103.5,441C 103.138,423.941 107.804,408.441 117.5,394.5C 117.167,394.167 116.833,393.833 116.5,393.5C 98.2847,405.552 78.2847,410.052 56.5,407C 42.5,404.667 28.5,402.333 14.5,400C 9.45156,399.403 7.11823,396.57 7.5,391.5C 7.15062,388.029 8.48396,385.529 11.5,384C 55.0435,378.063 89.0435,357.063 113.5,321C 108.621,322.626 103.621,324.293 98.5,326C 68.2742,332.154 44.4409,322.654 27,297.5C 22.6894,289.046 18.5228,280.546 14.5,272C 15.7373,264.54 20.0706,261.873 27.5,264C 39.7332,268.951 52.0665,273.617 64.5,278C 79.7818,280.273 92.2818,275.44 102,263.5C 111.667,249.5 121.333,235.5 131,221.5C 149.835,200.749 172.668,194.582 199.5,203C 206.438,206.808 213.438,210.308 220.5,213.5C 235.039,169.796 261.206,134.796 299,108.5C 297.031,93.7691 295.865,78.9358 295.5,64C 294.326,34.7031 307.659,15.8698 335.5,7.5 Z M 180.5,247.5 C 182.086,248.148 183.753,248.648 185.5,249C 181.571,254.692 178.571,260.858 176.5,267.5C 165.57,273.88 155.07,280.88 145,288.5C 145.044,286.721 145.711,285.055 147,283.5C 154.361,273.639 161.527,263.639 168.5,253.5C 172.061,250.386 176.061,248.386 180.5,247.5 Z M 137.5,373.5 C 149.35,352.806 164.684,334.972 183.5,320C 185.055,318.711 186.721,318.044 188.5,318C 190.351,319.684 192.018,321.517 193.5,323.5C 178.822,344.806 160.155,361.473 137.5,373.5 Z M 261.5,325.5 C 263.057,330.255 262.557,334.921 260,339.5C 257.131,342.704 253.965,345.537 250.5,348C 241.833,354 233.167,360 224.5,366C 223.833,366.667 223.167,366.667 222.5,366C 230.037,356.432 236.704,346.265 242.5,335.5C 249.306,332.932 255.639,329.598 261.5,325.5 Z"/></g>
<g><path style="opacity:1" fill="#d5deed" d="M 444.5,39.5 C 418.359,84.4455 391.193,128.779 363,172.5C 320.159,232.509 269.325,284.843 210.5,329.5C 213.669,325.144 214.169,320.477 212,315.5C 205.167,311.333 199.667,305.833 195.5,299C 192.634,297.543 189.634,297.21 186.5,298C 158.869,316.299 136.702,339.799 120,368.5C 102.098,387.438 80.2643,394.605 54.5,390C 86.0258,377.141 110.859,356.307 129,327.5C 136.833,317 146,307.833 156.5,300C 168.085,292.624 179.585,285.124 191,277.5C 192.818,267.526 197.485,259.193 205,252.5C 208.129,245.589 206.296,240.422 199.5,237C 182.955,227.89 168.121,230.056 155,243.5C 143.333,260.167 131.667,276.833 120,293.5C 104.321,310.462 85.4881,315.295 63.5,308C 52.9185,303.746 45.4185,296.579 41,286.5C 67.5262,300.855 91.5262,297.522 113,276.5C 124,260.833 135,245.167 146,229.5C 162.34,213.858 180.507,211.358 200.5,222C 207.5,226.333 214.5,230.667 221.5,235C 224.377,235.725 227.043,235.225 229.5,233.5C 257.978,146.696 317.645,98.0291 408.5,87.5C 407.997,82.1408 407.33,76.8075 406.5,71.5C 389.987,73.7026 373.653,76.8693 357.5,81C 342.655,85.7764 328.322,91.6098 314.5,98.5C 312.449,82.5688 311.616,66.5688 312,50.5C 318.473,31.6937 331.64,22.8604 351.5,24C 370.22,28.1799 388.887,32.6799 407.5,37.5C 419.766,39.2507 432.099,39.9174 444.5,39.5 Z M 180.5,247.5 C 176.061,248.386 172.061,250.386 168.5,253.5C 161.527,263.639 154.361,273.639 147,283.5C 145.711,285.055 145.044,286.721 145,288.5C 155.07,280.88 165.57,273.88 176.5,267.5C 178.571,260.858 181.571,254.692 185.5,249C 183.753,248.648 182.086,248.148 180.5,247.5 Z"/></g>
<g><path style="opacity:1" fill="#bfcde5" d="M 210.5,329.5 C 269.325,284.843 320.159,232.509 363,172.5C 391.193,128.779 418.359,84.4455 444.5,39.5C 455.506,37.61 466.506,35.61 477.5,33.5C 470.189,60.0226 469.689,86.6893 476,113.5C 479.667,128.167 483.333,142.833 487,157.5C 489.208,178.926 480.041,192.76 459.5,199C 443.732,199.958 428.066,199.124 412.5,196.5C 424.773,172.179 432.94,146.513 437,119.5C 437.748,114.519 438.248,109.519 438.5,104.5C 433.485,103.915 428.485,103.248 423.5,102.5C 416.362,177.406 379.695,232.24 313.5,267C 302.719,271.594 291.719,275.594 280.5,279C 276.713,281.111 275.213,284.278 276,288.5C 279.935,296.094 284.268,303.427 289,310.5C 299.869,332.535 296.036,351.701 277.5,368C 262.992,377.754 248.659,387.754 234.5,398C 213.348,418.632 209.682,442.132 223.5,468.5C 222.21,469.408 220.877,469.241 219.5,468C 203.038,454.619 196.871,437.453 201,416.5C 203.681,406.157 209.181,397.657 217.5,391C 233.659,379.42 249.992,368.087 266.5,357C 280.196,343.656 282.696,328.489 274,311.5C 271.24,305.703 266.74,303.537 260.5,305C 256.833,308 253.167,311 249.5,314C 244.311,316.396 238.977,318.396 233.5,320C 225.876,331.415 218.376,342.915 211,354.5C 203.167,365 194,374.167 183.5,382C 154.693,400.141 133.859,424.974 121,456.5C 115.974,430.58 123.14,408.746 142.5,391C 169.479,375.184 192.145,354.684 210.5,329.5 Z M 261.5,325.5 C 255.639,329.598 249.306,332.932 242.5,335.5C 236.704,346.265 230.037,356.432 222.5,366C 223.167,366.667 223.833,366.667 224.5,366C 233.167,360 241.833,354 250.5,348C 253.965,345.537 257.131,342.704 260,339.5C 262.557,334.921 263.057,330.255 261.5,325.5 Z"/></g>
</svg>
