<?xml version="1.0" encoding="UTF-8"?>
<!DOCTYPE svg PUBLIC "-//W3C//DTD SVG 1.1//EN" "http://www.w3.org/Graphics/SVG/1.1/DTD/svg11.dtd">
<svg xmlns="http://www.w3.org/2000/svg" version="1.1" width="512px" height="512px" style="shape-rendering:geometricPrecision; text-rendering:geometricPrecision; image-rendering:optimizeQuality; fill-rule:evenodd; clip-rule:evenodd" xmlns:xlink="http://www.w3.org/1999/xlink">
<g><path style="opacity:0.962" fill="#020200" d="M 99.5,1.5 C 142.679,1.24357 174.512,19.9102 195,57.5C 202.582,39.2809 212.582,22.6143 225,7.5C 231.826,1.37845 239.66,-0.121549 248.5,3C 256.625,8.36047 259.458,15.8605 257,25.5C 248.847,37.1279 241.18,49.1279 234,61.5C 229.179,71.6278 225.346,82.1278 222.5,93C 227.111,96.5522 231.944,99.7188 237,102.5C 259.907,96.3081 279.574,101.641 296,118.5C 298.75,122.332 301.25,126.332 303.5,130.5C 316.941,131.892 328.607,137.058 338.5,146C 346.67,148.085 354.004,151.752 360.5,157C 380.317,151.961 397.983,155.961 413.5,169C 417.57,173.138 420.903,177.805 423.5,183C 451.667,187.167 467.833,203.333 472,231.5C 495.37,245.406 503.87,265.74 497.5,292.5C 510.094,309.253 512.927,327.586 506,347.5C 503.15,352.537 500.317,357.537 497.5,362.5C 503.87,389.26 495.37,409.594 472,423.5C 467.833,451.667 451.667,467.833 423.5,472C 409.594,495.37 389.26,503.87 362.5,497.5C 345.747,510.094 327.414,512.927 307.5,506C 302.463,503.15 297.463,500.317 292.5,497.5C 267.037,503.835 247.203,496.168 233,474.5C 220.11,484.347 205.61,487.847 189.5,485C 185.724,484.408 182.057,483.408 178.5,482C 172.857,478.933 167.357,475.767 162,472.5C 132.615,479.711 110.449,470.378 95.5,444.5C 64.8333,439.833 47.1667,422.167 42.5,391.5C 16.6176,376.544 7.2843,354.377 14.5,325C 0.961923,307.305 -2.20474,287.805 5,266.5C 7.00271,261.154 10.0027,256.487 14,252.5C 12.6552,242.245 12.3219,231.912 13,221.5C 17.0668,204.277 26.9002,191.61 42.5,183.5C 47.1667,152.833 64.8333,135.167 95.5,130.5C 108.396,107.715 128.063,97.5488 154.5,100C 115.977,79.4662 97.1441,47.2995 98,3.5C 98.7172,2.9558 99.2172,2.28913 99.5,1.5 Z"/></g>
<g><path style="opacity:1" fill="#43b153" d="M 109.5,13.5 C 148.012,18.3235 174.512,38.6568 189,74.5C 189.667,75.8333 189.667,77.1667 189,78.5C 187.934,83.0217 186.434,87.3551 184.5,91.5C 178.151,95.179 171.818,95.0123 165.5,91C 132.347,75.6744 113.681,49.841 109.5,13.5 Z"/></g>
<g><path style="opacity:1" fill="#53c261" d="M 236.5,13.5 C 242.83,12.6662 245.663,15.3329 245,21.5C 228.494,41.5111 216.994,64.1778 210.5,89.5C 206.575,89.9976 202.575,89.9976 198.5,89.5C 204.819,60.861 217.486,35.5277 236.5,13.5 Z"/></g>
<g><path style="opacity:1" fill="#9fd827" d="M 150.5,461.5 C 141.967,455.294 135.634,447.294 131.5,437.5C 100.619,435.12 83.7861,418.453 81,387.5C 54.0903,373.505 45.257,352.005 54.5,323C 34.5252,299.156 34.5252,275.322 54.5,251.5C 44.9057,222.434 53.7391,201.101 81,187.5C 83.8333,156.667 100.667,139.833 131.5,137C 135.805,127.529 142.138,119.695 150.5,113.5C 153.988,113.705 157.321,114.539 160.5,116C 162.833,116.667 165.167,116.667 167.5,116C 181.32,101.463 197.654,97.7963 216.5,105C 222.062,107.894 227.062,111.561 231.5,116C 233.5,116.667 235.5,116.667 237.5,116C 264.953,107.892 284.619,116.892 296.5,143C 303.452,143.267 310.118,144.601 316.5,147C 307.779,149.063 299.945,152.897 293,158.5C 265.972,151.435 245.472,159.935 231.5,184C 203.667,187.833 187.833,203.667 184,231.5C 159.932,245.477 151.432,265.977 158.5,293C 141.347,315.92 141.347,338.92 158.5,362C 155.447,369.785 154.781,377.785 156.5,386C 154.286,388.458 151.619,390.458 148.5,392C 134.597,406.406 133.93,421.406 146.5,437C 151.977,439.595 155.311,437.928 156.5,432C 153.995,428.461 151.829,424.628 150,420.5C 148.182,412.622 150.348,406.122 156.5,401C 157.759,400.018 159.092,399.685 160.5,400C 163.052,404.938 166.218,409.438 170,413.5C 174.491,417.079 179.157,420.412 184,423.5C 186.682,445.339 198.182,460.339 218.5,468.5C 199.26,477.609 182.26,474.442 167.5,459C 161.795,459.283 156.129,460.116 150.5,461.5 Z"/></g>
<g><path style="opacity:1" fill="#b1e83b" d="M 150.5,113.5 C 142.138,119.695 135.805,127.529 131.5,137C 100.667,139.833 83.8333,156.667 81,187.5C 53.7391,201.101 44.9057,222.434 54.5,251.5C 34.5252,275.322 34.5252,299.156 54.5,323C 45.257,352.005 54.0903,373.505 81,387.5C 83.7861,418.453 100.619,435.12 131.5,437.5C 135.634,447.294 141.967,455.294 150.5,461.5C 135.118,464.068 122.285,459.401 112,447.5C 108.695,442.384 105.528,437.217 102.5,432C 72.3677,430.534 56.5344,414.701 55,384.5C 40.9107,378.745 31.244,368.745 26,354.5C 25.1222,350.211 24.6222,345.878 24.5,341.5C 25.3916,334.036 26.5582,326.703 28,319.5C 12.1862,303.137 9.5195,284.804 20,264.5C 22.2954,261.203 24.962,258.203 28,255.5C 26.7742,247.404 25.6076,239.237 24.5,231C 25.2097,218.581 30.2097,208.248 39.5,200C 44.5832,196.708 49.7498,193.541 55,190.5C 56.4712,160.362 72.3045,144.529 102.5,143C 108.857,127.307 120.19,117.307 136.5,113C 141.252,112.227 145.919,112.393 150.5,113.5 Z"/></g>
<g><path style="opacity:1" fill="#050701" d="M 184.5,137.5 C 204.949,136.033 217.282,145.2 221.5,165C 221.917,171.585 218.917,174.252 212.5,173C 210.059,169.989 208.893,166.489 209,162.5C 202.753,149.456 193.253,146.289 180.5,153C 175.17,157.978 172.337,164.145 172,171.5C 165.043,175.233 161.543,173.066 161.5,165C 163.576,151.096 171.242,141.929 184.5,137.5 Z"/></g>
<g><path style="opacity:1" fill="#beef49" d="M 319.5,157.5 C 333.521,156.006 345.521,160.173 355.5,170C 356.729,170.781 358.062,171.281 359.5,171.5C 385.237,162.536 403.904,170.37 415.5,195C 443.667,196.5 458.5,211.333 460,239.5C 472.667,244.167 481.333,252.833 486,265.5C 486.956,268.93 487.456,272.43 487.5,276C 486.548,283.282 485.381,290.449 484,297.5C 497.683,310.555 501.016,325.889 494,343.5C 490.661,348.993 487.161,354.326 483.5,359.5C 492.312,385.247 484.478,403.913 460,415.5C 458.49,443.676 443.657,458.51 415.5,460C 403.952,484.603 385.286,492.437 359.5,483.5C 354.326,487.161 348.993,490.661 343.5,494C 326.748,501.04 312.082,498.04 299.5,485C 298.127,484.125 296.627,483.625 295,483.5C 269.401,492.281 250.901,484.447 239.5,460C 211.353,458.519 196.519,443.686 195,415.5C 170.37,403.904 162.536,385.237 171.5,359.5C 167.839,354.326 164.339,348.993 161,343.5C 153.951,326.699 156.951,312.032 170,299.5C 170.875,298.127 171.375,296.627 171.5,295C 162.739,269.365 170.572,250.865 195,239.5C 196.51,211.324 211.343,196.49 239.5,195C 243.496,184.321 250.496,176.321 260.5,171C 265.396,168.651 270.562,167.485 276,167.5C 283.282,168.452 290.449,169.619 297.5,171C 300.833,168.333 304.167,165.667 307.5,163C 311.475,160.854 315.475,159.02 319.5,157.5 Z"/></g>
<g><path style="opacity:1" fill="#050503" d="M 322.5,169.5 C 330.097,168.96 337.097,170.793 343.5,175C 347.682,179.015 351.682,183.182 355.5,187.5C 380.908,172.967 397.908,179.633 406.5,207.5C 436.532,204.865 450.198,218.532 447.5,248.5C 475.559,256.966 482.226,273.966 467.5,299.5C 491.5,318.167 491.5,336.833 467.5,355.5C 470.55,360.932 473.05,366.598 475,372.5C 476.421,383.913 472.588,393.079 463.5,400C 458.207,402.264 452.873,404.431 447.5,406.5C 450.363,436.136 437.03,449.636 407.5,447C 398.538,475.153 381.205,481.986 355.5,467.5C 336.781,491.375 318.114,491.375 299.5,467.5C 273.966,482.226 256.966,475.559 248.5,447.5C 218.532,450.198 204.865,436.532 207.5,406.5C 200.292,404.38 193.625,401.213 187.5,397C 181.364,389.928 178.864,381.761 180,372.5C 181.95,366.598 184.45,360.932 187.5,355.5C 163.711,336.767 163.711,318.1 187.5,299.5C 172.774,273.966 179.441,256.966 207.5,248.5C 204.638,218.863 217.971,205.363 247.5,208C 256.368,179.733 273.702,172.9 299.5,187.5C 305.512,179.128 313.179,173.128 322.5,169.5 Z"/></g>
<g><path style="opacity:1" fill="#f6ece8" d="M 323.5,181.5 C 327.792,181.035 331.792,181.868 335.5,184C 340.534,188.699 345.2,193.699 349.5,199C 350.873,199.875 352.373,200.375 354,200.5C 360.651,198.059 367.151,195.226 373.5,192C 379.523,190.675 384.689,192.175 389,196.5C 392.124,204.552 395.624,212.385 399.5,220C 407.833,220.333 416.167,220.667 424.5,221C 429.235,222.068 432.402,224.901 434,229.5C 434.333,238.167 434.667,246.833 435,255.5C 442.615,259.376 450.448,262.876 458.5,266C 463.087,270.228 464.587,275.394 463,281.5C 459.472,287.72 456.639,294.22 454.5,301C 454.625,302.627 455.125,304.127 456,305.5C 461.635,310.133 466.968,315.133 472,320.5C 474.122,325.652 473.789,330.652 471,335.5C 465.613,340.887 460.279,346.221 455,351.5C 456.44,359.142 459.107,366.476 463,373.5C 464.325,379.523 462.825,384.689 458.5,389C 450.444,392.114 442.61,395.614 435,399.5C 434.667,407.833 434.333,416.167 434,424.5C 432.833,429.667 429.667,432.833 424.5,434C 416.5,434.333 408.5,434.667 400.5,435C 398.951,436.214 397.785,437.714 397,439.5C 394.943,445.281 392.61,450.947 390,456.5C 386.061,462.373 380.561,464.54 373.5,463C 367.151,459.774 360.651,456.941 354,454.5C 352.373,454.625 350.873,455.125 349.5,456C 345.2,461.301 340.534,466.301 335.5,471C 330.137,474.246 324.803,474.246 319.5,471C 314.466,466.301 309.8,461.301 305.5,456C 304.127,455.125 302.627,454.625 301,454.5C 294.007,456.912 287.174,459.745 280.5,463C 274.716,464.509 269.883,463.009 266,458.5C 262.886,450.444 259.386,442.61 255.5,435C 246.833,434.667 238.167,434.333 229.5,434C 224.901,432.402 222.068,429.235 221,424.5C 220.667,416.167 220.333,407.833 220,399.5C 213.055,395.947 205.889,392.78 198.5,390C 192.627,386.061 190.46,380.561 192,373.5C 195.893,366.476 198.56,359.142 200,351.5C 194.721,346.221 189.387,340.887 184,335.5C 180.667,330.167 180.667,324.833 184,319.5C 188.699,314.466 193.699,309.8 199,305.5C 199.875,304.127 200.375,302.627 200.5,301C 198.361,294.22 195.528,287.72 192,281.5C 190.166,274.345 192.333,268.845 198.5,265C 205.889,262.22 213.055,259.053 220,255.5C 220.333,246.833 220.667,238.167 221,229.5C 222.5,225.333 225.333,222.5 229.5,221C 237.833,220.667 246.167,220.333 254.5,220C 255.333,219.167 256.167,218.333 257,217.5C 259.391,211.051 262.058,204.718 265,198.5C 268.627,192.842 273.793,190.675 280.5,192C 286.5,194.667 292.5,197.333 298.5,200C 300.167,200.667 301.833,200.667 303.5,200C 309.71,193.288 316.377,187.121 323.5,181.5 Z"/></g>
<g><path style="opacity:1" fill="#050601" d="M 98.5,192.5 C 108.764,192.197 117.597,195.53 125,202.5C 127.595,207.977 125.928,211.311 120,212.5C 116.461,209.995 112.628,207.829 108.5,206C 92.3333,204.833 84.8333,212.333 86,228.5C 87.8287,232.628 89.9953,236.461 92.5,240C 91.3108,245.928 87.9774,247.595 82.5,245C 68.3439,228.396 69.3439,212.729 85.5,198C 89.7168,195.549 94.0501,193.715 98.5,192.5 Z"/></g>
<g><path style="opacity:1" fill="#070707" d="M 262.5,233.5 C 271.257,232.355 278.09,235.355 283,242.5C 287.488,251.629 290.988,261.129 293.5,271C 292.331,275.847 289.331,277.847 284.5,277C 275.52,274.452 266.853,271.118 258.5,267C 248.922,259.834 247.089,251 253,240.5C 256.068,237.917 259.235,235.584 262.5,233.5 Z"/></g>
<g><path style="opacity:1" fill="#060605" d="M 383.5,233.5 C 400.494,233.652 407.328,241.985 404,258.5C 401.753,263.712 397.92,267.212 392.5,269C 383.72,272.707 374.72,275.374 365.5,277C 363.323,275.503 361.99,273.503 361.5,271C 364.105,259.844 368.272,249.344 374,239.5C 376.843,236.837 380.009,234.837 383.5,233.5 Z"/></g>
<g><path style="opacity:1" fill="#97675d" d="M 264.5,245.5 C 267.365,245.055 269.865,245.722 272,247.5C 274.684,251.863 276.518,256.53 277.5,261.5C 271.786,260.393 266.619,258.06 262,254.5C 260.927,250.9 261.76,247.9 264.5,245.5 Z"/></g>
<g><path style="opacity:1" fill="#97675d" d="M 384.5,245.5 C 392.807,245.28 395.14,248.78 391.5,256C 387.074,258.529 382.408,260.362 377.5,261.5C 378.747,255.674 381.081,250.341 384.5,245.5 Z"/></g>
<g><path style="opacity:1" fill="#050701" d="M 118.5,256.5 C 122.025,256.346 124.859,257.679 127,260.5C 138.356,276.899 136.523,291.733 121.5,305C 106.076,313.999 92.5758,311.832 81,298.5C 80.1667,292.667 82.6667,290.167 88.5,291C 98.5472,299.826 108.381,299.66 118,290.5C 121.225,285.601 122.225,280.268 121,274.5C 118.769,270.296 116.602,266.129 114.5,262C 114.901,259.44 116.234,257.607 118.5,256.5 Z"/></g>
<g><path style="opacity:1" fill="#060505" d="M 246.5,309.5 C 258.635,310.723 269.969,314.556 280.5,321C 285.256,323.339 286.423,326.839 284,331.5C 272.614,339.404 260.114,343.904 246.5,345C 233.74,338.719 230.573,329.219 237,316.5C 239.79,313.535 242.957,311.202 246.5,309.5 Z"/></g>
<g><path style="opacity:1" fill="#060606" d="M 399.5,309.5 C 414.666,309.165 421.833,316.498 421,331.5C 416.435,343.532 407.935,347.699 395.5,344C 388.379,340.939 381.379,337.606 374.5,334C 369.432,331.391 368.432,327.724 371.5,323C 380.538,317.646 389.871,313.146 399.5,309.5 Z"/></g>
<g><path style="opacity:1" fill="#96665d" d="M 248.5,321.5 C 254.741,321.913 260.408,323.913 265.5,327.5C 260.415,331.251 254.748,333.084 248.5,333C 244.542,329.092 244.542,325.259 248.5,321.5 Z"/></g>
<g><path style="opacity:1" fill="#97675d" d="M 401.5,321.5 C 409.303,321.789 411.303,325.289 407.5,332C 400.954,333.33 394.954,331.83 389.5,327.5C 393.313,324.927 397.313,322.927 401.5,321.5 Z"/></g>
<g><path style="opacity:1" fill="#050601" d="M 68.5,345.5 C 76.0684,345.24 79.2351,348.907 78,356.5C 84.2105,369.521 93.7105,372.688 106.5,366C 111.6,361.298 114.1,355.464 114,348.5C 117.588,344.607 121.254,344.607 125,348.5C 124.229,371.931 112.062,382.764 88.5,381C 74.0029,376.511 66.3363,366.678 65.5,351.5C 65.6284,349.045 66.6284,347.045 68.5,345.5 Z"/></g>
<g><path style="opacity:1" fill="#060505" d="M 284.5,377.5 C 289.096,377.094 292.096,379.094 293.5,383.5C 290.6,394.708 286.433,405.374 281,415.5C 269.094,424.809 259.094,423.143 251,410.5C 247.692,397.953 252.192,389.453 264.5,385C 271.304,382.569 277.971,380.069 284.5,377.5 Z"/></g>
<g><path style="opacity:1" fill="#060505" d="M 365.5,377.5 C 374.7,379.622 383.7,382.455 392.5,386C 405.507,392.187 408.673,401.687 402,414.5C 392.92,423.326 383.586,423.66 374,415.5C 368.567,405.374 364.4,394.708 361.5,383.5C 362.432,381.235 363.765,379.235 365.5,377.5 Z"/></g>
<g><path style="opacity:1" fill="#97675d" d="M 274.5,393.5 C 275.5,393.5 276.5,393.5 277.5,393.5C 276.362,398.408 274.529,403.074 272,407.5C 264.629,411.141 261.296,408.807 262,400.5C 266.019,397.745 270.185,395.411 274.5,393.5 Z"/></g>
<g><path style="opacity:1" fill="#97675d" d="M 377.5,393.5 C 382.47,394.482 387.137,396.316 391.5,399C 394.816,404.208 393.483,407.708 387.5,409.5C 386.062,409.281 384.729,408.781 383.5,408C 380.616,403.511 378.616,398.678 377.5,393.5 Z"/></g>
</svg>
