<?xml version="1.0" encoding="UTF-8"?>
<!DOCTYPE svg PUBLIC "-//W3C//DTD SVG 1.1//EN" "http://www.w3.org/Graphics/SVG/1.1/DTD/svg11.dtd">
<svg xmlns="http://www.w3.org/2000/svg" version="1.1" width="512px" height="512px" style="shape-rendering:geometricPrecision; text-rendering:geometricPrecision; image-rendering:optimizeQuality; fill-rule:evenodd; clip-rule:evenodd" xmlns:xlink="http://www.w3.org/1999/xlink">
<g><path style="opacity:0.966" fill="#020202" d="M 437.5,-0.5 C 442.5,-0.5 447.5,-0.5 452.5,-0.5C 471.73,7.81467 477.73,21.9813 470.5,42C 487.659,44.1581 496.992,53.8248 498.5,71C 498.637,76.9513 497.137,82.4513 494,87.5C 490.5,91.6667 487,95.8333 483.5,100C 496.924,107.688 502.091,119.188 499,134.5C 495.255,144.579 488.422,151.746 478.5,156C 489.849,173.537 487.182,188.537 470.5,201C 460.129,204.523 449.462,205.856 438.5,205C 435.785,204.125 434.452,202.292 434.5,199.5C 434.346,195.975 435.679,193.141 438.5,191C 445.812,189.869 453.145,188.869 460.5,188C 468.276,184.712 471.109,178.879 469,170.5C 468.208,168.413 467.041,166.579 465.5,165C 453.699,160.366 452.699,154.366 462.5,147C 469.594,143.706 476.094,139.54 482,134.5C 486.75,119.22 480.916,112.053 464.5,113C 460.251,109.623 459.418,105.457 462,100.5C 468.707,93.4618 475.04,86.1284 481,78.5C 485.497,68.6585 482.664,61.8252 472.5,58C 470.167,57.3333 467.833,57.3333 465.5,58C 462.27,60.0726 458.937,61.906 455.5,63.5C 450.069,62.2491 447.569,58.9158 448,53.5C 450.729,48.7117 452.896,43.7117 454.5,38.5C 460.732,29.9597 459.732,22.4597 451.5,16C 443.748,12.7196 437.581,14.5529 433,21.5C 430,28.1667 427,34.8333 424,41.5C 422.603,43.0703 421.103,44.4036 419.5,45.5C 417.379,45.6747 415.379,45.3414 413.5,44.5C 410.024,41.0372 408.524,36.7039 409,31.5C 404.259,24.142 397.759,21.9753 389.5,25C 386.567,27.2643 384.4,30.0976 383,33.5C 381.211,44.2397 379.211,54.9064 377,65.5C 373.888,68.7225 370.388,69.2225 366.5,67C 361.526,58.6833 354.526,56.3499 345.5,60C 341.629,63.0746 339.629,67.0746 339.5,72C 340.833,79.9939 342.166,87.9939 343.5,96C 340.791,103.86 335.791,105.527 328.5,101C 320.72,99.4732 315.22,102.306 312,109.5C 311.262,113.261 311.595,116.928 313,120.5C 321.667,133.167 330.333,145.833 339,158.5C 343.83,166.312 345.996,174.812 345.5,184C 345.212,191.289 344.378,198.456 343,205.5C 346.21,207.476 349.543,208.142 353,207.5C 357.178,198.478 361.345,189.478 365.5,180.5C 372.926,165.313 380.093,149.98 387,134.5C 391.717,127.848 396.383,127.848 401,134.5C 401.584,137.257 401.25,139.923 400,142.5C 388.423,166.487 377.256,190.654 366.5,215C 368.874,217.277 371.374,219.443 374,221.5C 381.736,209.434 392.236,200.601 405.5,195C 410.5,194.485 413.833,196.652 415.5,201.5C 415.628,203.655 415.128,205.655 414,207.5C 401.96,212.545 392.794,220.712 386.5,232C 410.868,266.173 411.702,301.006 389,336.5C 344.972,399.868 288.138,448.035 218.5,481C 185.243,495.647 150.577,504.647 114.5,508C 112.536,506.549 111.203,504.716 110.5,502.5C 110.318,497.511 112.651,494.345 117.5,493C 130.133,491.785 142.466,489.285 154.5,485.5C 154.833,485 155.167,484.5 155.5,484C 154.066,479.864 152.732,475.697 151.5,471.5C 154.191,464.062 158.691,462.728 165,467.5C 166.835,472.504 169.169,477.171 172,481.5C 212.45,469.36 249.283,450.527 282.5,425C 277.966,420.801 273.799,416.301 270,411.5C 270.112,402.846 274.279,400.346 282.5,404C 286.367,408.202 290.533,412.035 295,415.5C 315.299,398.868 333.966,380.535 351,360.5C 351.507,359.004 351.007,357.837 349.5,357C 343.247,352.957 337.08,348.79 331,344.5C 327.675,335.319 330.842,331.485 340.5,333C 347.421,337.71 354.254,342.544 361,347.5C 369.841,336.987 377.508,325.653 384,313.5C 395.91,282.983 390.077,256.483 366.5,234C 356.579,225.967 345.245,221.134 332.5,219.5C 302.245,216.044 279.412,227.378 264,253.5C 261.402,258.857 259.236,264.357 257.5,270C 264.072,273.121 270.739,275.955 277.5,278.5C 282.107,280.772 283.607,284.438 282,289.5C 279.85,292.963 276.684,294.296 272.5,293.5C 266.578,289.916 260.245,287.416 253.5,286C 250.676,294.473 247.842,302.973 245,311.5C 242.859,314.321 240.025,315.654 236.5,315.5C 231.799,313.766 229.965,310.432 231,305.5C 236.132,289.97 240.799,274.304 245,258.5C 259.629,221.721 286.796,203.387 326.5,203.5C 328.691,197.027 330.024,190.36 330.5,183.5C 330.301,179.37 329.467,175.37 328,171.5C 319.163,157.156 309.83,143.156 300,129.5C 293.867,115.711 295.7,103.211 305.5,92C 311.323,87.337 317.99,85.1704 325.5,85.5C 321.127,70.8708 324.46,58.3708 335.5,48C 344.918,41.8709 354.751,41.0376 365,45.5C 366.24,39.1574 367.573,32.8241 369,26.5C 377.137,10.3355 389.971,4.83548 407.5,10C 411.792,11.3957 415.292,13.8957 418,17.5C 421.567,8.16292 428.067,2.16292 437.5,-0.5 Z"/></g>
<g><path style="opacity:1" fill="#8ece94" d="M 454.5,38.5 C 454.565,38.0618 454.399,37.7284 454,37.5C 446.543,43.0574 441.543,50.3908 439,59.5C 437.667,60.8333 436.333,60.8333 435,59.5C 432.788,51.4506 427.622,46.7839 419.5,45.5C 421.103,44.4036 422.603,43.0703 424,41.5C 427,34.8333 430,28.1667 433,21.5C 437.581,14.5529 443.748,12.7196 451.5,16C 459.732,22.4597 460.732,29.9597 454.5,38.5 Z"/></g>
<g><path style="opacity:1" fill="#8ece94" d="M 413.5,44.5 C 405.692,44.9891 399.859,48.6558 396,55.5C 393.242,65.5531 391.075,75.7197 389.5,86C 385.853,84.3364 382.187,82.3364 378.5,80C 362.42,76.87 353.086,83.37 350.5,99.5C 351.256,107.216 352.256,114.883 353.5,122.5C 343.062,120.258 337.895,124.258 338,134.5C 344.607,145.437 351.607,156.104 359,166.5C 361.295,171.273 363.462,175.939 365.5,180.5C 361.345,189.478 357.178,198.478 353,207.5C 349.543,208.142 346.21,207.476 343,205.5C 344.378,198.456 345.212,191.289 345.5,184C 345.996,174.812 343.83,166.312 339,158.5C 330.333,145.833 321.667,133.167 313,120.5C 311.595,116.928 311.262,113.261 312,109.5C 315.22,102.306 320.72,99.4732 328.5,101C 335.791,105.527 340.791,103.86 343.5,96C 342.166,87.9939 340.833,79.9939 339.5,72C 339.629,67.0746 341.629,63.0746 345.5,60C 354.526,56.3499 361.526,58.6833 366.5,67C 370.388,69.2225 373.888,68.7225 377,65.5C 379.211,54.9064 381.211,44.2397 383,33.5C 384.4,30.0976 386.567,27.2643 389.5,25C 397.759,21.9753 404.259,24.142 409,31.5C 408.524,36.7039 410.024,41.0372 413.5,44.5 Z"/></g>
<g><path style="opacity:1" fill="#a2e3a7" d="M 454.5,38.5 C 452.896,43.7117 450.729,48.7117 448,53.5C 447.569,58.9158 450.069,62.2491 455.5,63.5C 458.937,61.906 462.27,60.0726 465.5,58C 467.833,57.3333 470.167,57.3333 472.5,58C 482.664,61.8252 485.497,68.6585 481,78.5C 475.04,86.1284 468.707,93.4618 462,100.5C 459.418,105.457 460.251,109.623 464.5,113C 480.916,112.053 486.75,119.22 482,134.5C 476.094,139.54 469.594,143.706 462.5,147C 452.699,154.366 453.699,160.366 465.5,165C 467.041,166.579 468.208,168.413 469,170.5C 471.109,178.879 468.276,184.712 460.5,188C 453.145,188.869 445.812,189.869 438.5,191C 435.679,193.141 434.346,195.975 434.5,199.5C 428.072,199.709 421.739,200.376 415.5,201.5C 413.833,196.652 410.5,194.485 405.5,195C 392.236,200.601 381.736,209.434 374,221.5C 371.374,219.443 368.874,217.277 366.5,215C 377.256,190.654 388.423,166.487 400,142.5C 401.25,139.923 401.584,137.257 401,134.5C 396.383,127.848 391.717,127.848 387,134.5C 380.093,149.98 372.926,165.313 365.5,180.5C 363.462,175.939 361.295,171.273 359,166.5C 351.607,156.104 344.607,145.437 338,134.5C 337.895,124.258 343.062,120.258 353.5,122.5C 352.256,114.883 351.256,107.216 350.5,99.5C 353.086,83.37 362.42,76.87 378.5,80C 382.187,82.3364 385.853,84.3364 389.5,86C 391.075,75.7197 393.242,65.5531 396,55.5C 399.859,48.6558 405.692,44.9891 413.5,44.5C 415.379,45.3414 417.379,45.6747 419.5,45.5C 427.622,46.7839 432.788,51.4506 435,59.5C 436.333,60.8333 437.667,60.8333 439,59.5C 441.543,50.3908 446.543,43.0574 454,37.5C 454.399,37.7284 454.565,38.0618 454.5,38.5 Z"/></g>
<g><path style="opacity:1" fill="#030403" d="M 421.5,65.5 C 428.655,65.1527 431.821,68.486 431,75.5C 425.726,86.381 420.726,97.381 416,108.5C 410.833,114.092 406.167,113.759 402,107.5C 401.333,105.833 401.333,104.167 402,102.5C 407.333,91.1667 412.667,79.8333 418,68.5C 419.145,67.3636 420.312,66.3636 421.5,65.5 Z"/></g>
<g><path style="opacity:1" fill="#fbf1c3" d="M 332.5,219.5 C 303.477,229.19 285.143,248.857 277.5,278.5C 270.739,275.955 264.072,273.121 257.5,270C 259.236,264.357 261.402,258.857 264,253.5C 279.412,227.378 302.245,216.044 332.5,219.5 Z"/></g>
<g><path style="opacity:1" fill="#fdf7e0" d="M 332.5,219.5 C 345.245,221.134 356.579,225.967 366.5,234C 390.077,256.483 395.91,282.983 384,313.5C 377.508,325.653 369.841,336.987 361,347.5C 354.254,342.544 347.421,337.71 340.5,333C 330.842,331.485 327.675,335.319 331,344.5C 337.08,348.79 343.247,352.957 349.5,357C 351.007,357.837 351.507,359.004 351,360.5C 333.966,380.535 315.299,398.868 295,415.5C 290.533,412.035 286.367,408.202 282.5,404C 274.279,400.346 270.112,402.846 270,411.5C 273.799,416.301 277.966,420.801 282.5,425C 249.283,450.527 212.45,469.36 172,481.5C 169.169,477.171 166.835,472.504 165,467.5C 158.691,462.728 154.191,464.062 151.5,471.5C 152.732,475.697 154.066,479.864 155.5,484C 155.167,484.5 154.833,485 154.5,485.5C 142.466,489.285 130.133,491.785 117.5,493C 112.651,494.345 110.318,497.511 110.5,502.5C 104.178,503.014 97.845,503.347 91.5,503.5C 90.6896,500.73 89.0229,498.563 86.5,497C 72.5,496.667 58.5,496.333 44.5,496C 40.0823,495.792 35.749,495.126 31.5,494C 24.3132,486.989 24.9798,480.989 33.5,476C 37.4862,475.501 41.4862,475.334 45.5,475.5C 88.755,482.103 129.088,473.936 166.5,451C 181.493,441.512 195.159,430.346 207.5,417.5C 217.796,419.208 221.129,415.208 217.5,405.5C 232.618,386.033 245.285,365.033 255.5,342.5C 255.623,345.374 256.623,347.874 258.5,350C 265.833,354.667 273.167,359.333 280.5,364C 286.629,365.439 290.296,363.106 291.5,357C 291.297,354.594 290.297,352.594 288.5,351C 281,346.082 273.333,341.416 265.5,337C 262.593,336.282 259.926,336.782 257.5,338.5C 263.093,323.721 268.093,308.721 272.5,293.5C 276.684,294.296 279.85,292.963 282,289.5C 283.607,284.438 282.107,280.772 277.5,278.5C 285.143,248.857 303.477,229.19 332.5,219.5 Z"/></g>
<g><path style="opacity:0.998" fill="#fcf2c4" d="M 272.5,293.5 C 268.093,308.721 263.093,323.721 257.5,338.5C 256.833,339.833 256.167,341.167 255.5,342.5C 245.285,365.033 232.618,386.033 217.5,405.5C 213.279,400.752 209.279,395.752 205.5,390.5C 216.066,375.402 225.232,359.402 233,342.5C 233.667,340.833 233.667,339.167 233,337.5C 231.624,336.295 230.458,334.962 229.5,333.5C 231.833,327.5 234.167,321.5 236.5,315.5C 240.025,315.654 242.859,314.321 245,311.5C 247.842,302.973 250.676,294.473 253.5,286C 260.245,287.416 266.578,289.916 272.5,293.5 Z"/></g>
<g><path style="opacity:0.963" fill="#010101" d="M 229.5,333.5 C 230.458,334.962 231.624,336.295 233,337.5C 233.667,339.167 233.667,340.833 233,342.5C 225.232,359.402 216.066,375.402 205.5,390.5C 209.279,395.752 213.279,400.752 217.5,405.5C 221.129,415.208 217.796,419.208 207.5,417.5C 203.868,412.533 199.868,407.867 195.5,403.5C 155.746,448.374 105.746,472.374 45.5,475.5C 41.4862,475.334 37.4862,475.501 33.5,476C 24.9798,480.989 24.3132,486.989 31.5,494C 35.749,495.126 40.0823,495.792 44.5,496C 58.5,496.333 72.5,496.667 86.5,497C 89.0229,498.563 90.6896,500.73 91.5,503.5C 91.333,507.179 89.6663,509.846 86.5,511.5C 71.8333,511.5 57.1667,511.5 42.5,511.5C 31.4486,512.063 22.2819,508.063 15,499.5C 9.167,487.278 10.667,476.112 19.5,466C 22.5544,463.806 25.8878,462.139 29.5,461C 119.373,459.072 182.54,417.239 219,335.5C 222.079,332.515 225.579,331.848 229.5,333.5 Z"/></g>
<g><path style="opacity:1" fill="#080707" d="M 255.5,342.5 C 256.167,341.167 256.833,339.833 257.5,338.5C 259.926,336.782 262.593,336.282 265.5,337C 273.333,341.416 281,346.082 288.5,351C 290.297,352.594 291.297,354.594 291.5,357C 290.296,363.106 286.629,365.439 280.5,364C 273.167,359.333 265.833,354.667 258.5,350C 256.623,347.874 255.623,345.374 255.5,342.5 Z"/></g>
<g><path style="opacity:1" fill="#fbf1c3" d="M 207.5,417.5 C 195.159,430.346 181.493,441.512 166.5,451C 129.088,473.936 88.755,482.103 45.5,475.5C 105.746,472.374 155.746,448.374 195.5,403.5C 199.868,407.867 203.868,412.533 207.5,417.5 Z"/></g>
</svg>
