<?xml version="1.0" encoding="UTF-8"?>
<!DOCTYPE svg PUBLIC "-//W3C//DTD SVG 1.1//EN" "http://www.w3.org/Graphics/SVG/1.1/DTD/svg11.dtd">
<svg xmlns="http://www.w3.org/2000/svg" version="1.1" width="512px" height="512px" style="shape-rendering:geometricPrecision; text-rendering:geometricPrecision; image-rendering:optimizeQuality; fill-rule:evenodd; clip-rule:evenodd" xmlns:xlink="http://www.w3.org/1999/xlink">
<g><path style="opacity:0.976" fill="#000000" d="M 111.5,-0.5 C 207.5,-0.5 303.5,-0.5 399.5,-0.5C 415.027,4.19751 424.527,14.5308 428,30.5C 428.667,180.5 428.667,330.5 428,480.5C 424.527,496.469 415.027,506.802 399.5,511.5C 303.5,511.5 207.5,511.5 111.5,511.5C 95.9726,506.802 86.4726,496.469 83,480.5C 82.3333,448.5 82.3333,416.5 83,384.5C 84.3296,380.993 86.8296,379.327 90.5,379.5C 93.1955,379.933 95.3621,381.266 97,383.5C 97.036,416.206 97.7027,448.873 99,481.5C 101.899,488.732 107.066,493.565 114.5,496C 203.166,496.5 291.833,496.667 380.5,496.5C 392.729,498.817 402.563,495.151 410,485.5C 411.152,482.56 412.152,479.56 413,476.5C 413.667,328.833 413.667,181.167 413,33.5C 410.945,23.7779 405.112,17.6113 395.5,15C 390.511,14.5007 385.511,14.3341 380.5,14.5C 291.833,14.3333 203.166,14.5 114.5,15C 105.458,18.0404 99.9579,24.2071 98,33.5C 97.6667,142.5 97.3333,251.5 97,360.5C 95.4369,363.023 93.2702,364.69 90.5,365.5C 86.9373,365.375 84.4373,363.708 83,360.5C 82.3333,250.5 82.3333,140.5 83,30.5C 86.4726,14.5308 95.9726,4.19751 111.5,-0.5 Z"/></g>
<g><path style="opacity:1" fill="#f4efd9" d="M 380.5,14.5 C 384.782,18.7316 387.782,23.7316 389.5,29.5C 348.832,29.3333 308.165,29.5 267.5,30C 266.5,30.8333 265.5,31.6667 264.5,32.5C 263.337,103.126 263.17,173.793 264,244.5C 264.833,245.333 265.667,246.167 266.5,247C 308.499,247.5 350.499,247.667 392.5,247.5C 389.833,252.833 389.833,258.167 392.5,263.5C 350.499,263.333 308.499,263.5 266.5,264C 265.667,264.833 264.833,265.667 264,266.5C 263.17,337.207 263.337,407.874 264.5,478.5C 265.5,479.333 266.5,480.167 267.5,481C 308.165,481.5 348.832,481.667 389.5,481.5C 387.784,487.264 384.784,492.264 380.5,496.5C 291.833,496.667 203.166,496.5 114.5,496C 107.066,493.565 101.899,488.732 99,481.5C 97.7027,448.873 97.036,416.206 97,383.5C 95.3621,381.266 93.1955,379.933 90.5,379.5C 90.5,374.833 90.5,370.167 90.5,365.5C 93.2702,364.69 95.4369,363.023 97,360.5C 97.3333,251.5 97.6667,142.5 98,33.5C 99.9579,24.2071 105.458,18.0404 114.5,15C 203.166,14.5 291.833,14.3333 380.5,14.5 Z"/></g>
<g><path style="opacity:1" fill="#f0e299" d="M 380.5,14.5 C 385.511,14.3341 390.511,14.5007 395.5,15C 405.112,17.6113 410.945,23.7779 413,33.5C 413.667,181.167 413.667,328.833 413,476.5C 412.152,479.56 411.152,482.56 410,485.5C 402.563,495.151 392.729,498.817 380.5,496.5C 384.784,492.264 387.784,487.264 389.5,481.5C 392.654,481.341 395.154,480.007 397,477.5C 397.667,407.167 397.667,336.833 397,266.5C 395.871,264.859 394.371,263.859 392.5,263.5C 389.833,258.167 389.833,252.833 392.5,247.5C 394.371,247.141 395.871,246.141 397,244.5C 397.667,174.167 397.667,103.833 397,33.5C 395.154,30.9928 392.654,29.6594 389.5,29.5C 387.782,23.7316 384.782,18.7316 380.5,14.5 Z"/></g>
<g><path style="opacity:1" fill="#000000" d="M 117.5,29.5 C 159.168,29.3333 200.835,29.5 242.5,30C 244.002,30.5831 245.335,31.4164 246.5,32.5C 247.663,103.126 247.83,173.793 247,244.5C 246.167,245.333 245.333,246.167 244.5,247C 201.833,247.667 159.167,247.667 116.5,247C 115.667,246.167 114.833,245.333 114,244.5C 113.333,174.167 113.333,103.833 114,33.5C 115.102,32.051 116.269,30.7177 117.5,29.5 Z"/></g>
<g><path style="opacity:1" fill="#000000" d="M 389.5,29.5 C 392.654,29.6594 395.154,30.9928 397,33.5C 397.667,103.833 397.667,174.167 397,244.5C 395.871,246.141 394.371,247.141 392.5,247.5C 350.499,247.667 308.499,247.5 266.5,247C 265.667,246.167 264.833,245.333 264,244.5C 263.17,173.793 263.337,103.126 264.5,32.5C 265.5,31.6667 266.5,30.8333 267.5,30C 308.165,29.5 348.832,29.3333 389.5,29.5 Z"/></g>
<g><path style="opacity:1" fill="#feca58" d="M 139.5,45.5 C 166.664,44.3364 193.997,44.1697 221.5,45C 216.833,49.6667 212.167,54.3333 207.5,59C 189.5,59.6667 171.5,59.6667 153.5,59C 148.965,54.2967 144.298,49.7967 139.5,45.5 Z"/></g>
<g><path style="opacity:1" fill="#feca58" d="M 289.5,45.5 C 316.664,44.3364 343.997,44.1697 371.5,45C 366.833,49.6667 362.167,54.3333 357.5,59C 339.5,59.6667 321.5,59.6667 303.5,59C 298.965,54.2967 294.298,49.7967 289.5,45.5 Z"/></g>
<g><path style="opacity:1" fill="#7e7750" d="M 129.5,56.5 C 128.501,111.331 128.168,166.331 128.5,221.5C 127.829,194.738 127.496,167.238 127.5,139C 127.833,111.167 128.167,83.3333 128.5,55.5C 129.107,55.6236 129.44,55.9569 129.5,56.5 Z"/></g>
<g><path style="opacity:1" fill="#7e6f36" d="M 231.5,56.5 C 231.56,55.9569 231.893,55.6236 232.5,55.5C 232.833,83.3333 233.167,111.167 233.5,139C 233.504,167.238 233.171,194.738 232.5,221.5C 232.832,166.331 232.499,111.331 231.5,56.5 Z"/></g>
<g><path style="opacity:1" fill="#7e7750" d="M 279.5,56.5 C 278.501,111.331 278.168,166.331 278.5,221.5C 277.829,194.738 277.496,167.238 277.5,139C 277.833,111.167 278.167,83.3333 278.5,55.5C 279.107,55.6236 279.44,55.9569 279.5,56.5 Z"/></g>
<g><path style="opacity:1" fill="#7e6f36" d="M 381.5,56.5 C 381.56,55.9569 381.893,55.6236 382.5,55.5C 382.833,83.3333 383.167,111.167 383.5,139C 383.504,167.238 383.171,194.738 382.5,221.5C 382.832,166.331 382.499,111.331 381.5,56.5 Z"/></g>
<g><path style="opacity:1" fill="#f6d86a" d="M 231.5,56.5 C 232.499,111.331 232.832,166.331 232.5,221.5C 227.535,217.037 222.702,212.37 218,207.5C 217.167,161.496 217.333,115.496 218.5,69.5C 223.188,65.479 227.521,61.1456 231.5,56.5 Z"/></g>
<g><path style="opacity:1" fill="#f6d86a" d="M 381.5,56.5 C 382.499,111.331 382.832,166.331 382.5,221.5C 377.535,217.037 372.702,212.37 368,207.5C 367.167,161.496 367.333,115.496 368.5,69.5C 373.188,65.479 377.521,61.1456 381.5,56.5 Z"/></g>
<g><path style="opacity:1" fill="#f6e89d" d="M 129.5,56.5 C 133.479,61.1456 137.812,65.479 142.5,69.5C 143.667,115.496 143.833,161.496 143,207.5C 138.298,212.37 133.465,217.037 128.5,221.5C 128.168,166.331 128.501,111.331 129.5,56.5 Z"/></g>
<g><path style="opacity:1" fill="#f8e99e" d="M 279.5,56.5 C 283.479,61.1456 287.812,65.479 292.5,69.5C 293.333,88.8247 293.833,108.158 294,127.5C 295.638,129.734 297.805,131.067 300.5,131.5C 300.5,136.5 300.5,141.5 300.5,146.5C 297.439,146.444 295.272,147.778 294,150.5C 293.667,169.5 293.333,188.5 293,207.5C 288.298,212.37 283.465,217.037 278.5,221.5C 278.168,166.331 278.501,111.331 279.5,56.5 Z"/></g>
<g><path style="opacity:1" fill="#7f7d71" d="M 158.5,74.5 C 158.5,117.167 158.5,159.833 158.5,202.5C 165.833,202.5 173.167,202.5 180.5,202.5C 180.5,202.833 180.5,203.167 180.5,203.5C 172.833,203.5 165.167,203.5 157.5,203.5C 157.168,160.33 157.501,117.33 158.5,74.5 Z"/></g>
<g><path style="opacity:1" fill="#fefae2" d="M 158.5,74.5 C 165.833,74.5 173.167,74.5 180.5,74.5C 180.5,117.167 180.5,159.833 180.5,202.5C 173.167,202.5 165.833,202.5 158.5,202.5C 158.5,159.833 158.5,117.167 158.5,74.5 Z"/></g>
<g><path style="opacity:1" fill="#fef0a2" d="M 180.5,74.5 C 187.833,74.5 195.167,74.5 202.5,74.5C 202.5,117.167 202.5,159.833 202.5,202.5C 195.167,202.5 187.833,202.5 180.5,202.5C 180.5,159.833 180.5,117.167 180.5,74.5 Z"/></g>
<g><path style="opacity:1" fill="#7f7851" d="M 202.5,74.5 C 203.499,117.33 203.832,160.33 203.5,203.5C 195.833,203.5 188.167,203.5 180.5,203.5C 180.5,203.167 180.5,202.833 180.5,202.5C 187.833,202.5 195.167,202.5 202.5,202.5C 202.5,159.833 202.5,117.167 202.5,74.5 Z"/></g>
<g><path style="opacity:1" fill="#fcf7e0" d="M 330.5,74.5 C 330.5,117.167 330.5,159.833 330.5,202.5C 323.167,202.5 315.833,202.5 308.5,202.5C 308.83,185.325 308.497,168.325 307.5,151.5C 306.441,148.131 304.108,146.464 300.5,146.5C 300.5,141.5 300.5,136.5 300.5,131.5C 303.195,131.067 305.362,129.734 307,127.5C 307.5,109.836 307.667,92.1698 307.5,74.5C 315.167,74.5 322.833,74.5 330.5,74.5 Z"/></g>
<g><path style="opacity:1" fill="#fef0a2" d="M 330.5,74.5 C 337.833,74.5 345.167,74.5 352.5,74.5C 352.5,117.167 352.5,159.833 352.5,202.5C 345.167,202.5 337.833,202.5 330.5,202.5C 330.5,159.833 330.5,117.167 330.5,74.5 Z"/></g>
<g><path style="opacity:1" fill="#7f7851" d="M 352.5,74.5 C 353.499,117.33 353.832,160.33 353.5,203.5C 345.833,203.5 338.167,203.5 330.5,203.5C 330.5,203.167 330.5,202.833 330.5,202.5C 337.833,202.5 345.167,202.5 352.5,202.5C 352.5,159.833 352.5,117.167 352.5,74.5 Z"/></g>
<g><path style="opacity:1" fill="#817e72" d="M 307.5,151.5 C 308.497,168.325 308.83,185.325 308.5,202.5C 315.833,202.5 323.167,202.5 330.5,202.5C 330.5,202.833 330.5,203.167 330.5,203.5C 322.833,203.5 315.167,203.5 307.5,203.5C 307.5,186.167 307.5,168.833 307.5,151.5 Z"/></g>
<g><path style="opacity:1" fill="#eebd53" d="M 153.5,217.5 C 171.503,217.333 189.503,217.5 207.5,218C 212.5,223 217.5,228 222.5,233C 194.5,233.667 166.5,233.667 138.5,233C 143.703,227.965 148.703,222.798 153.5,217.5 Z"/></g>
<g><path style="opacity:1" fill="#eebd53" d="M 303.5,217.5 C 321.503,217.333 339.503,217.5 357.5,218C 362.5,223 367.5,228 372.5,233C 344.5,233.667 316.5,233.667 288.5,233C 293.703,227.965 298.703,222.798 303.5,217.5 Z"/></g>
<g><path style="opacity:1" fill="#000000" d="M 116.5,263.5 C 159.168,263.333 201.835,263.5 244.5,264C 245.333,264.833 246.167,265.667 247,266.5C 247.667,336.833 247.667,407.167 247,477.5C 245.992,479.259 244.492,480.426 242.5,481C 200.833,481.667 159.167,481.667 117.5,481C 116.5,480.167 115.5,479.333 114.5,478.5C 113.337,407.874 113.17,337.207 114,266.5C 115.045,265.627 115.878,264.627 116.5,263.5 Z"/></g>
<g><path style="opacity:1" fill="#000000" d="M 392.5,263.5 C 394.371,263.859 395.871,264.859 397,266.5C 397.667,336.833 397.667,407.167 397,477.5C 395.154,480.007 392.654,481.341 389.5,481.5C 348.832,481.667 308.165,481.5 267.5,481C 266.5,480.167 265.5,479.333 264.5,478.5C 263.337,407.874 263.17,337.207 264,266.5C 264.833,265.667 265.667,264.833 266.5,264C 308.499,263.5 350.499,263.333 392.5,263.5 Z"/></g>
<g><path style="opacity:1" fill="#edbd53" d="M 138.5,278.5 C 166.33,277.336 194.33,277.17 222.5,278C 217.5,283 212.5,288 207.5,293C 189.5,293.667 171.5,293.667 153.5,293C 148.631,287.963 143.631,283.13 138.5,278.5 Z"/></g>
<g><path style="opacity:1" fill="#edbd53" d="M 288.5,278.5 C 316.33,277.336 344.33,277.17 372.5,278C 367.5,283 362.5,288 357.5,293C 339.5,293.667 321.5,293.667 303.5,293C 298.631,287.963 293.631,283.13 288.5,278.5 Z"/></g>
<g><path style="opacity:1" fill="#7e7750" d="M 128.5,289.5 C 128.168,344.669 128.501,399.669 129.5,454.5C 129.44,455.043 129.107,455.376 128.5,455.5C 128.167,427.667 127.833,399.833 127.5,372C 127.496,343.762 127.829,316.262 128.5,289.5 Z"/></g>
<g><path style="opacity:1" fill="#7e6f36" d="M 231.5,454.5 C 232.499,399.669 232.832,344.669 232.5,289.5C 233.171,316.262 233.504,343.762 233.5,372C 233.167,399.833 232.833,427.667 232.5,455.5C 231.893,455.376 231.56,455.043 231.5,454.5 Z"/></g>
<g><path style="opacity:1" fill="#7e7750" d="M 278.5,289.5 C 278.168,344.669 278.501,399.669 279.5,454.5C 279.44,455.043 279.107,455.376 278.5,455.5C 278.167,427.667 277.833,399.833 277.5,372C 277.496,343.762 277.829,316.262 278.5,289.5 Z"/></g>
<g><path style="opacity:1" fill="#7e6f36" d="M 381.5,454.5 C 382.499,399.669 382.832,344.669 382.5,289.5C 383.171,316.262 383.504,343.762 383.5,372C 383.167,399.833 382.833,427.667 382.5,455.5C 381.893,455.376 381.56,455.043 381.5,454.5 Z"/></g>
<g><path style="opacity:1" fill="#f6e89d" d="M 128.5,289.5 C 133.465,293.963 138.298,298.63 143,303.5C 143.833,349.504 143.667,395.504 142.5,441.5C 137.812,445.521 133.479,449.854 129.5,454.5C 128.501,399.669 128.168,344.669 128.5,289.5 Z"/></g>
<g><path style="opacity:1" fill="#f6d86a" d="M 232.5,289.5 C 232.832,344.669 232.499,399.669 231.5,454.5C 227.521,449.854 223.188,445.521 218.5,441.5C 217.333,395.504 217.167,349.504 218,303.5C 222.702,298.63 227.535,293.963 232.5,289.5 Z"/></g>
<g><path style="opacity:1" fill="#f6e89d" d="M 278.5,289.5 C 283.465,293.963 288.298,298.63 293,303.5C 293.833,349.504 293.667,395.504 292.5,441.5C 287.812,445.521 283.479,449.854 279.5,454.5C 278.501,399.669 278.168,344.669 278.5,289.5 Z"/></g>
<g><path style="opacity:1" fill="#f6d86a" d="M 382.5,289.5 C 382.832,344.669 382.499,399.669 381.5,454.5C 377.521,449.854 373.188,445.521 368.5,441.5C 367.333,395.504 367.167,349.504 368,303.5C 372.702,298.63 377.535,293.963 382.5,289.5 Z"/></g>
<g><path style="opacity:1" fill="#f9f4dd" d="M 158.5,308.5 C 165.833,308.5 173.167,308.5 180.5,308.5C 180.5,351.167 180.5,393.833 180.5,436.5C 172.833,436.5 165.167,436.5 157.5,436.5C 157.168,393.663 157.501,350.997 158.5,308.5 Z"/></g>
<g><path style="opacity:1" fill="#fef0a2" d="M 180.5,308.5 C 187.833,308.5 195.167,308.5 202.5,308.5C 202.5,351.167 202.5,393.833 202.5,436.5C 195.167,436.5 187.833,436.5 180.5,436.5C 180.5,393.833 180.5,351.167 180.5,308.5 Z"/></g>
<g><path style="opacity:1" fill="#7d7651" d="M 158.5,308.5 C 173.324,307.504 188.324,307.171 203.5,307.5C 203.832,350.67 203.499,393.67 202.5,436.5C 202.5,393.833 202.5,351.167 202.5,308.5C 195.167,308.5 187.833,308.5 180.5,308.5C 173.167,308.5 165.833,308.5 158.5,308.5 Z"/></g>
<g><path style="opacity:1" fill="#f9f4dd" d="M 308.5,308.5 C 315.833,308.5 323.167,308.5 330.5,308.5C 330.5,351.167 330.5,393.833 330.5,436.5C 322.833,436.5 315.167,436.5 307.5,436.5C 307.168,393.663 307.501,350.997 308.5,308.5 Z"/></g>
<g><path style="opacity:1" fill="#fef0a2" d="M 330.5,308.5 C 337.833,308.5 345.167,308.5 352.5,308.5C 352.5,351.167 352.5,393.833 352.5,436.5C 345.167,436.5 337.833,436.5 330.5,436.5C 330.5,393.833 330.5,351.167 330.5,308.5 Z"/></g>
<g><path style="opacity:1" fill="#7d7651" d="M 308.5,308.5 C 323.324,307.504 338.324,307.171 353.5,307.5C 353.832,350.67 353.499,393.67 352.5,436.5C 352.5,393.833 352.5,351.167 352.5,308.5C 345.167,308.5 337.833,308.5 330.5,308.5C 323.167,308.5 315.833,308.5 308.5,308.5 Z"/></g>
<g><path style="opacity:1" fill="#feca58" d="M 153.5,451.5 C 171.503,451.333 189.503,451.5 207.5,452C 212.167,456.667 216.833,461.333 221.5,466C 194.167,466.667 166.833,466.667 139.5,466C 144.37,461.298 149.037,456.465 153.5,451.5 Z"/></g>
<g><path style="opacity:1" fill="#feca58" d="M 303.5,451.5 C 321.503,451.333 339.503,451.5 357.5,452C 362.167,456.667 366.833,461.333 371.5,466C 344.167,466.667 316.833,466.667 289.5,466C 294.37,461.298 299.037,456.465 303.5,451.5 Z"/></g>
</svg>
