<?xml version="1.0" encoding="UTF-8"?>
<!DOCTYPE svg PUBLIC "-//W3C//DTD SVG 1.1//EN" "http://www.w3.org/Graphics/SVG/1.1/DTD/svg11.dtd">
<svg xmlns="http://www.w3.org/2000/svg" version="1.1" width="512px" height="512px" style="shape-rendering:geometricPrecision; text-rendering:geometricPrecision; image-rendering:optimizeQuality; fill-rule:evenodd; clip-rule:evenodd" xmlns:xlink="http://www.w3.org/1999/xlink">
<g><path style="opacity:0.995" fill="#010000" d="M 121.5,15.5 C 210.834,15.3333 300.167,15.5 389.5,16C 394,17.8333 397.167,21 399,25.5C 399.333,95.5 399.667,165.5 400,235.5C 412.5,245.333 425,255.167 437.5,265C 438.998,267.417 439.665,270.083 439.5,273C 434.593,303.278 429.093,333.445 423,363.5C 422.5,365.333 421.333,366.5 419.5,367C 412.868,367.739 406.368,367.239 400,365.5C 399.667,405.5 399.333,445.5 399,485.5C 397.167,490 394,493.167 389.5,495C 300.167,495.667 210.833,495.667 121.5,495C 117,493.167 113.833,490 112,485.5C 111.667,439.5 111.333,393.5 111,347.5C 99.7996,319.728 89.2996,291.728 79.5,263.5C 79.4035,261.074 80.0702,258.907 81.5,257C 91.3076,250.026 100.974,242.859 110.5,235.5C 111.333,165.502 111.833,95.5024 112,25.5C 114.022,20.98 117.189,17.6467 121.5,15.5 Z"/></g>
<g><path style="opacity:1" fill="#602e15" d="M 127.5,31.5 C 212.833,31.5 298.167,31.5 383.5,31.5C 383.5,113.5 383.5,195.5 383.5,277.5C 378.222,279.037 372.888,280.37 367.5,281.5C 368.057,277.112 366.39,273.945 362.5,272C 344.5,271.333 326.5,271.333 308.5,272C 306.333,272.833 304.833,274.333 304,276.5C 303.5,284.827 303.334,293.16 303.5,301.5C 298.4,302.422 293.4,303.755 288.5,305.5C 287.668,295.851 287.168,286.184 287,276.5C 286.167,274.333 284.667,272.833 282.5,272C 264.5,271.333 246.5,271.333 228.5,272C 226.333,272.833 224.833,274.333 224,276.5C 223.667,292.5 223.333,308.5 223,324.5C 221.293,325.459 219.459,326.125 217.5,326.5C 214.387,325.444 211.387,324.111 208.5,322.5C 207.667,307.178 207.167,291.844 207,276.5C 206.535,275.069 205.701,273.903 204.5,273C 185.924,271.36 167.257,271.026 148.5,272C 146.333,272.833 144.833,274.333 144,276.5C 143.667,279.5 143.333,282.5 143,285.5C 138.086,282.96 133.253,280.294 128.5,277.5C 127.5,195.503 127.167,113.503 127.5,31.5 Z"/></g>
<g><path style="opacity:1" fill="#000000" d="M 148.5,47.5 C 166.503,47.3334 184.503,47.5001 202.5,48C 203.931,48.4652 205.097,49.2986 206,50.5C 207.65,79.7472 207.983,109.081 207,138.5C 206.535,139.931 205.701,141.097 204.5,142C 185.924,143.64 167.257,143.974 148.5,143C 147.069,142.535 145.903,141.701 145,140.5C 143.35,111.253 143.017,81.9195 144,52.5C 145.025,50.313 146.525,48.6464 148.5,47.5 Z"/></g>
<g><path style="opacity:1" fill="#000000" d="M 228.5,47.5 C 246.503,47.3334 264.503,47.5001 282.5,48C 283.931,48.4652 285.097,49.2986 286,50.5C 287.65,79.7472 287.983,109.081 287,138.5C 286.535,139.931 285.701,141.097 284.5,142C 265.924,143.64 247.257,143.974 228.5,143C 227.069,142.535 225.903,141.701 225,140.5C 223.35,111.253 223.017,81.9195 224,52.5C 225.025,50.313 226.525,48.6464 228.5,47.5 Z"/></g>
<g><path style="opacity:1" fill="#000000" d="M 308.5,47.5 C 326.503,47.3334 344.503,47.5001 362.5,48C 363.931,48.4652 365.097,49.2986 366,50.5C 367.65,79.7472 367.983,109.081 367,138.5C 366.535,139.931 365.701,141.097 364.5,142C 345.924,143.64 327.257,143.974 308.5,143C 307.069,142.535 305.903,141.701 305,140.5C 303.35,111.253 303.017,81.9195 304,52.5C 305.025,50.313 306.525,48.6464 308.5,47.5 Z"/></g>
<g><path style="opacity:1" fill="#7f3915" d="M 159.5,63.5 C 170.167,63.5 180.833,63.5 191.5,63.5C 191.5,84.8333 191.5,106.167 191.5,127.5C 180.833,127.5 170.167,127.5 159.5,127.5C 159.5,106.167 159.5,84.8333 159.5,63.5 Z"/></g>
<g><path style="opacity:1" fill="#7f3915" d="M 239.5,63.5 C 250.167,63.5 260.833,63.5 271.5,63.5C 271.5,84.8333 271.5,106.167 271.5,127.5C 260.833,127.5 250.167,127.5 239.5,127.5C 239.5,106.167 239.5,84.8333 239.5,63.5 Z"/></g>
<g><path style="opacity:1" fill="#7f3915" d="M 319.5,63.5 C 330.167,63.5 340.833,63.5 351.5,63.5C 351.5,84.8333 351.5,106.167 351.5,127.5C 340.833,127.5 330.167,127.5 319.5,127.5C 319.5,106.167 319.5,84.8333 319.5,63.5 Z"/></g>
<g><path style="opacity:1" fill="#000000" d="M 148.5,159.5 C 166.503,159.333 184.503,159.5 202.5,160C 203.931,160.465 205.097,161.299 206,162.5C 207.65,191.747 207.983,221.081 207,250.5C 206.535,251.931 205.701,253.097 204.5,254C 185.924,255.64 167.257,255.974 148.5,255C 147.069,254.535 145.903,253.701 145,252.5C 143.35,223.253 143.017,193.919 144,164.5C 145.025,162.313 146.525,160.646 148.5,159.5 Z"/></g>
<g><path style="opacity:1" fill="#000000" d="M 228.5,159.5 C 246.503,159.333 264.503,159.5 282.5,160C 283.931,160.465 285.097,161.299 286,162.5C 287.65,191.747 287.983,221.081 287,250.5C 286.535,251.931 285.701,253.097 284.5,254C 265.924,255.64 247.257,255.974 228.5,255C 227.069,254.535 225.903,253.701 225,252.5C 223.35,223.253 223.017,193.919 224,164.5C 225.025,162.313 226.525,160.646 228.5,159.5 Z"/></g>
<g><path style="opacity:1" fill="#000000" d="M 308.5,159.5 C 326.503,159.333 344.503,159.5 362.5,160C 363.931,160.465 365.097,161.299 366,162.5C 367.65,191.747 367.983,221.081 367,250.5C 366.535,251.931 365.701,253.097 364.5,254C 345.924,255.64 327.257,255.974 308.5,255C 307.069,254.535 305.903,253.701 305,252.5C 303.35,223.253 303.017,193.919 304,164.5C 305.025,162.313 306.525,160.646 308.5,159.5 Z"/></g>
<g><path style="opacity:1" fill="#7f3915" d="M 159.5,175.5 C 170.167,175.5 180.833,175.5 191.5,175.5C 191.5,196.833 191.5,218.167 191.5,239.5C 180.833,239.5 170.167,239.5 159.5,239.5C 159.5,218.167 159.5,196.833 159.5,175.5 Z"/></g>
<g><path style="opacity:1" fill="#7f3915" d="M 239.5,175.5 C 250.167,175.5 260.833,175.5 271.5,175.5C 271.5,196.833 271.5,218.167 271.5,239.5C 260.833,239.5 250.167,239.5 239.5,239.5C 239.5,218.167 239.5,196.833 239.5,175.5 Z"/></g>
<g><path style="opacity:1" fill="#7f3915" d="M 319.5,175.5 C 330.167,175.5 340.833,175.5 351.5,175.5C 351.5,196.833 351.5,218.167 351.5,239.5C 340.833,239.5 330.167,239.5 319.5,239.5C 319.5,218.167 319.5,196.833 319.5,175.5 Z"/></g>
<g><path style="opacity:1" fill="#5b5b5b" d="M 110.5,255.5 C 111.645,259.311 111.812,263.311 111,267.5C 108.084,265.959 105.251,264.293 102.5,262.5C 105.239,260.149 107.905,257.816 110.5,255.5 Z"/></g>
<g><path style="opacity:1" fill="#5c5c5c" d="M 399.5,256.5 C 404.47,260.325 409.47,264.158 414.5,268C 409.828,269.501 405.161,271.001 400.5,272.5C 399.505,267.208 399.172,261.875 399.5,256.5 Z"/></g>
<g><path style="opacity:1" fill="#bdbdbd" d="M 103.5,281.5 C 136.429,299.775 169.096,318.441 201.5,337.5C 183.514,355.986 165.347,374.319 147,392.5C 131.945,355.722 117.445,318.722 103.5,281.5 Z"/></g>
<g><path style="opacity:1" fill="#bdbdbd" d="M 416.5,283.5 C 417.833,283.5 419.167,283.5 420.5,283.5C 416.925,305.857 413.259,328.19 409.5,350.5C 391.825,348.093 374.159,345.927 356.5,344C 340.988,358.846 325.488,373.679 310,388.5C 284.745,372.403 259.912,355.736 235.5,338.5C 295.843,320.001 356.176,301.667 416.5,283.5 Z"/></g>
<g><path style="opacity:1" fill="#7e3815" d="M 159.5,287.5 C 170.167,287.5 180.833,287.5 191.5,287.5C 191.666,295.84 191.5,304.173 191,312.5C 180.753,306.96 170.586,301.293 160.5,295.5C 159.52,292.914 159.187,290.247 159.5,287.5 Z"/></g>
<g><path style="opacity:1" fill="#7f3815" d="M 239.5,287.5 C 250.167,287.5 260.833,287.5 271.5,287.5C 271.831,295.196 271.497,302.862 270.5,310.5C 260.289,313.969 249.955,316.969 239.5,319.5C 239.5,308.833 239.5,298.167 239.5,287.5 Z"/></g>
<g><path style="opacity:1" fill="#7d3715" d="M 319.5,287.5 C 328.839,287.334 338.173,287.5 347.5,288C 338.189,290.451 329.022,293.285 320,296.5C 319.502,293.518 319.335,290.518 319.5,287.5 Z"/></g>
<g><path style="opacity:1" fill="#c84236" d="M 383.5,387.5 C 375.518,386.864 367.684,385.531 360,383.5C 349,396.833 338,410.167 327,423.5C 289.911,404.705 252.744,386.039 215.5,367.5C 186.497,391.176 157.83,415.176 129.5,439.5C 128.169,431.528 127.502,423.194 127.5,414.5C 127.667,406.167 127.833,397.833 128,389.5C 131,397.167 134,404.833 137,412.5C 140.419,415.848 144.252,416.348 148.5,414C 171.04,391.126 193.874,368.626 217,346.5C 246.903,366.203 276.736,386.037 306.5,406C 309.8,407.879 313.134,407.879 316.5,406C 331.5,391 346.5,376 361.5,361C 368.825,361.259 376.158,361.759 383.5,362.5C 383.5,370.833 383.5,379.167 383.5,387.5 Z"/></g>
<g><path style="opacity:1" fill="#f25041" d="M 383.5,387.5 C 383.5,404.833 383.5,422.167 383.5,439.5C 298.833,439.5 214.167,439.5 129.5,439.5C 157.83,415.176 186.497,391.176 215.5,367.5C 252.744,386.039 289.911,404.705 327,423.5C 338,410.167 349,396.833 360,383.5C 367.684,385.531 375.518,386.864 383.5,387.5 Z"/></g>
<g><path style="opacity:1" fill="#602f15" d="M 127.5,455.5 C 212.833,455.5 298.167,455.5 383.5,455.5C 383.5,463.5 383.5,471.5 383.5,479.5C 298.167,479.5 212.833,479.5 127.5,479.5C 127.5,471.5 127.5,463.5 127.5,455.5 Z"/></g>
</svg>
