<?xml version="1.0" encoding="UTF-8"?>
<!DOCTYPE svg PUBLIC "-//W3C//DTD SVG 1.1//EN" "http://www.w3.org/Graphics/SVG/1.1/DTD/svg11.dtd">
<svg xmlns="http://www.w3.org/2000/svg" version="1.1" width="512px" height="512px" style="shape-rendering:geometricPrecision; text-rendering:geometricPrecision; image-rendering:optimizeQuality; fill-rule:evenodd; clip-rule:evenodd" xmlns:xlink="http://www.w3.org/1999/xlink">
<g><path style="opacity:0.985" fill="#020101" d="M 128.5,-0.5 C 142.5,-0.5 156.5,-0.5 170.5,-0.5C 172.85,1.21328 173.85,3.54661 173.5,6.5C 173.375,10.0627 171.708,12.5627 168.5,14C 157.505,14.4998 146.505,14.6665 135.5,14.5C 134.501,117.332 134.167,220.332 134.5,323.5C 140.551,322.29 146.551,320.957 152.5,319.5C 152.5,277.167 152.5,234.833 152.5,192.5C 153.277,189.888 154.944,188.055 157.5,187C 191.894,186.021 226.227,186.354 260.5,188C 262.049,189.214 263.215,190.714 264,192.5C 264.5,216.831 264.667,241.164 264.5,265.5C 264.5,273.167 264.5,280.833 264.5,288.5C 270.494,287.168 276.494,285.835 282.5,284.5C 282.5,254.5 282.5,224.5 282.5,194.5C 283.143,191.012 285.143,188.512 288.5,187C 318.832,186.5 349.165,186.333 379.5,186.5C 386.546,184.86 391.546,187.193 394.5,193.5C 394.167,213.844 394.5,234.178 395.5,254.5C 396.107,254.376 396.44,254.043 396.5,253.5C 401.382,252.031 406.382,251.031 411.5,250.5C 411.5,171.833 411.5,93.1667 411.5,14.5C 400.833,14.5 390.167,14.5 379.5,14.5C 319.166,14.6667 258.832,14.5 198.5,14C 195.211,12.5897 193.544,10.0897 193.5,6.5C 193.15,3.54661 194.15,1.21328 196.5,-0.5C 270.5,-0.5 344.5,-0.5 418.5,-0.5C 423.508,1.81306 426.341,5.81306 427,11.5C 427.333,93.5 427.667,175.5 428,257.5C 434.118,278.853 439.618,300.353 444.5,322C 444.506,324.3 444.006,326.466 443,328.5C 438,333.5 433,338.5 428,343.5C 427.667,395.5 427.333,447.5 427,499.5C 426.341,505.187 423.508,509.187 418.5,511.5C 321.833,511.5 225.167,511.5 128.5,511.5C 124.095,509.588 121.261,506.255 120,501.5C 119.333,476.167 119.333,450.833 120,425.5C 121.437,422.292 123.937,420.625 127.5,420.5C 130.793,421.41 133.293,423.41 135,426.5C 135.5,445.83 135.667,465.164 135.5,484.5C 135.5,488.5 135.5,492.5 135.5,496.5C 227.5,496.5 319.5,496.5 411.5,496.5C 412.831,450.998 412.831,405.332 411.5,359.5C 410.893,359.624 410.56,359.957 410.5,360.5C 400.167,371.167 389.833,381.833 379.5,392.5C 363.701,407.798 348.035,423.298 332.5,439C 323.881,446.762 314.214,448.428 303.5,444C 247.806,411.822 192.139,379.655 136.5,347.5C 136.44,346.957 136.107,346.624 135.5,346.5C 134.501,362.82 134.167,379.153 134.5,395.5C 133.422,398.908 131.089,400.908 127.5,401.5C 123.91,401.456 121.41,399.789 120,396.5C 119.667,376.5 119.333,356.5 119,336.5C 103,320.5 87,304.5 71,288.5C 65.4103,279.737 65.0769,270.737 70,261.5C 86.3333,245.167 102.667,228.833 119,212.5C 119.333,144.833 119.667,77.1667 120,9.5C 121.261,4.74518 124.095,1.41184 128.5,-0.5 Z"/></g>
<g><path style="opacity:0.999" fill="#a9583c" d="M 173.5,6.5 C 180.167,6.5 186.833,6.5 193.5,6.5C 193.544,10.0897 195.211,12.5897 198.5,14C 258.832,14.5 319.166,14.6667 379.5,14.5C 379.5,19.8333 379.5,25.1667 379.5,30.5C 349.329,30.1686 319.329,30.5019 289.5,31.5C 286.325,31.8399 284.159,33.5066 283,36.5C 282.333,78.8333 282.333,121.167 283,163.5C 284.159,166.493 286.325,168.16 289.5,168.5C 319.329,169.498 349.329,169.831 379.5,169.5C 379.5,175.167 379.5,180.833 379.5,186.5C 349.165,186.333 318.832,186.5 288.5,187C 285.143,188.512 283.143,191.012 282.5,194.5C 281.833,216.67 281.167,239.004 280.5,261.5C 275.325,263.468 269.992,264.802 264.5,265.5C 264.667,241.164 264.5,216.831 264,192.5C 263.215,190.714 262.049,189.214 260.5,188C 226.227,186.354 191.894,186.021 157.5,187C 154.944,188.055 153.277,189.888 152.5,192.5C 151.668,226.998 151.168,261.664 151,296.5C 146.172,297.749 141.339,299.083 136.5,300.5C 135.5,205.169 135.167,109.836 135.5,14.5C 146.505,14.6665 157.505,14.4998 168.5,14C 171.708,12.5627 173.375,10.0627 173.5,6.5 Z"/></g>
<g><path style="opacity:1" fill="#904b35" d="M 379.5,14.5 C 390.167,14.5 400.833,14.5 411.5,14.5C 411.5,93.1667 411.5,171.833 411.5,250.5C 406.382,251.031 401.382,252.031 396.5,253.5C 395.833,233.5 395.167,213.5 394.5,193.5C 391.546,187.193 386.546,184.86 379.5,186.5C 379.5,180.833 379.5,175.167 379.5,169.5C 349.329,169.831 319.329,169.498 289.5,168.5C 322.835,168.667 356.168,168.5 389.5,168C 391.667,167.167 393.167,165.667 394,163.5C 394.667,154.5 394.667,145.5 394,136.5C 392.188,133.179 389.355,131.845 385.5,132.5C 386.748,129.262 387.415,125.762 387.5,122C 387.415,118.238 386.748,114.738 385.5,111.5C 389.49,112.384 392.323,111.051 394,107.5C 394.667,83.8333 394.667,60.1667 394,36.5C 393.535,35.0692 392.701,33.9025 391.5,33C 357.587,31.5139 323.587,31.0139 289.5,31.5C 319.329,30.5019 349.329,30.1686 379.5,30.5C 379.5,25.1667 379.5,19.8333 379.5,14.5 Z"/></g>
<g><path style="opacity:1" fill="#030101" d="M 156.5,31.5 C 190.502,31.3333 224.502,31.5 258.5,32C 260.624,33.1217 262.457,34.6217 264,36.5C 264.667,78.5 264.667,120.5 264,162.5C 263.226,164.939 261.726,166.773 259.5,168C 225.167,168.667 190.833,168.667 156.5,168C 155.333,166.833 154.167,165.667 153,164.5C 151.345,122.251 151.011,79.9172 152,37.5C 153.332,35.34 154.832,33.34 156.5,31.5 Z"/></g>
<g><path style="opacity:1" fill="#020100" d="M 289.5,31.5 C 323.587,31.0139 357.587,31.5139 391.5,33C 392.701,33.9025 393.535,35.0692 394,36.5C 394.667,60.1667 394.667,83.8333 394,107.5C 392.323,111.051 389.49,112.384 385.5,111.5C 382.885,110.55 380.885,108.883 379.5,106.5C 379.667,90.1633 379.5,73.8299 379,57.5C 375.333,61.1667 371.667,64.8333 368,68.5C 367.333,89.5 367.333,110.5 368,131.5C 371.667,135.167 375.333,138.833 379,142.5C 379.494,140.866 379.66,139.199 379.5,137.5C 380.885,135.117 382.885,133.45 385.5,132.5C 389.355,131.845 392.188,133.179 394,136.5C 394.667,145.5 394.667,154.5 394,163.5C 393.167,165.667 391.667,167.167 389.5,168C 356.168,168.5 322.835,168.667 289.5,168.5C 286.325,168.16 284.159,166.493 283,163.5C 282.333,121.167 282.333,78.8333 283,36.5C 284.159,33.5066 286.325,31.8399 289.5,31.5 Z"/></g>
<g><path style="opacity:1" fill="#261510" d="M 238.5,46.5 C 218.326,46.1695 198.326,46.5029 178.5,47.5C 177.957,47.44 177.624,47.1067 177.5,46.5C 197.996,45.172 218.329,45.172 238.5,46.5 Z"/></g>
<g><path style="opacity:1" fill="#25140f" d="M 308.5,46.5 C 328.671,45.172 349.004,45.172 369.5,46.5C 369.376,47.1067 369.043,47.44 368.5,47.5C 348.674,46.5029 328.674,46.1695 308.5,46.5 Z"/></g>
<g><path style="opacity:1" fill="#bc684e" d="M 178.5,47.5 C 198.326,46.5029 218.326,46.1695 238.5,46.5C 235.037,50.4643 231.37,54.2977 227.5,58C 214.833,58.6667 202.167,58.6667 189.5,58C 185.964,54.2961 182.298,50.7961 178.5,47.5 Z"/></g>
<g><path style="opacity:1" fill="#bc684e" d="M 308.5,46.5 C 328.674,46.1695 348.674,46.5029 368.5,47.5C 364.702,50.7961 361.036,54.2961 357.5,58C 344.833,58.6667 332.167,58.6667 319.5,58C 315.63,54.2977 311.963,50.4643 308.5,46.5 Z"/></g>
<g><path style="opacity:1" fill="#754030" d="M 168.5,58.5 C 167.167,86.1667 167.167,113.833 168.5,141.5C 168.44,142.043 168.107,142.376 167.5,142.5C 166.167,114.167 166.167,85.8333 167.5,57.5C 168.107,57.6236 168.44,57.9569 168.5,58.5 Z"/></g>
<g><path style="opacity:1" fill="#21120d" d="M 297.5,57.5 C 297.169,86.0049 297.502,114.338 298.5,142.5C 298.44,143.043 298.107,143.376 297.5,143.5C 296.17,114.669 296.17,86.0028 297.5,57.5 Z"/></g>
<g><path style="opacity:1" fill="#b9664d" d="M 168.5,58.5 C 172.104,61.6015 175.604,64.9349 179,68.5C 179.667,89.5 179.667,110.5 179,131.5C 175.631,135.037 172.131,138.371 168.5,141.5C 167.167,113.833 167.167,86.1667 168.5,58.5 Z"/></g>
<g><path style="opacity:1" fill="#bd684e" d="M 297.5,57.5 C 301.464,60.9629 305.298,64.6295 309,68.5C 309.667,89.5 309.667,110.5 309,131.5C 305.296,135.036 301.796,138.702 298.5,142.5C 297.502,114.338 297.169,86.0049 297.5,57.5 Z"/></g>
<g><path style="opacity:1" fill="#b6654b" d="M 248.5,57.5 C 249.664,85.6637 249.83,113.997 249,142.5C 245.318,138.651 241.485,134.984 237.5,131.5C 236.334,110.841 236.167,90.1747 237,69.5C 241.037,65.631 244.87,61.631 248.5,57.5 Z"/></g>
<g><path style="opacity:1" fill="#bc674d" d="M 379.5,106.5 C 379.5,116.833 379.5,127.167 379.5,137.5C 379.66,139.199 379.494,140.866 379,142.5C 375.333,138.833 371.667,135.167 368,131.5C 367.333,110.5 367.333,89.5 368,68.5C 371.667,64.8333 375.333,61.1667 379,57.5C 379.5,73.8299 379.667,90.1633 379.5,106.5 Z"/></g>
<g><path style="opacity:1" fill="#c47c65" d="M 194.5,73.5 C 203.5,73.5 212.5,73.5 221.5,73.5C 221.5,91.1667 221.5,108.833 221.5,126.5C 212.5,126.5 203.5,126.5 194.5,126.5C 194.5,108.833 194.5,91.1667 194.5,73.5 Z"/></g>
<g><path style="opacity:1" fill="#8e5949" d="M 352.5,74.5 C 343.5,74.5 334.5,74.5 325.5,74.5C 325.5,91.8333 325.5,109.167 325.5,126.5C 324.503,109.008 324.17,91.3412 324.5,73.5C 334.015,73.1731 343.348,73.5064 352.5,74.5 Z"/></g>
<g><path style="opacity:1" fill="#c47c65" d="M 352.5,74.5 C 352.5,91.8333 352.5,109.167 352.5,126.5C 343.5,126.5 334.5,126.5 325.5,126.5C 325.5,109.167 325.5,91.8333 325.5,74.5C 334.5,74.5 343.5,74.5 352.5,74.5 Z"/></g>
<g><path style="opacity:1" fill="#a8583c" d="M 379.5,106.5 C 380.885,108.883 382.885,110.55 385.5,111.5C 386.748,114.738 387.415,118.238 387.5,122C 387.415,125.762 386.748,129.262 385.5,132.5C 382.885,133.45 380.885,135.117 379.5,137.5C 379.5,127.167 379.5,116.833 379.5,106.5 Z"/></g>
<g><path style="opacity:1" fill="#bc674e" d="M 237.5,152.5 C 217.833,153.833 198.167,153.833 178.5,152.5C 182.298,149.204 185.964,145.704 189.5,142C 202.18,141.167 214.846,141.334 227.5,142.5C 231.188,145.521 234.521,148.854 237.5,152.5 Z"/></g>
<g><path style="opacity:1" fill="#bc684e" d="M 319.5,141.5 C 332.171,141.333 344.838,141.5 357.5,142C 361.167,145.667 364.833,149.333 368.5,153C 348.5,153.667 328.5,153.667 308.5,153C 312.37,149.298 316.037,145.464 319.5,141.5 Z"/></g>
<g><path style="opacity:1" fill="#3f231a" d="M 178.5,152.5 C 198.167,153.833 217.833,153.833 237.5,152.5C 238.043,152.56 238.376,152.893 238.5,153.5C 218.167,154.833 197.833,154.833 177.5,153.5C 177.624,152.893 177.957,152.56 178.5,152.5 Z"/></g>
<g><path style="opacity:1" fill="#633324" d="M 394.5,193.5 C 395.167,213.5 395.833,233.5 396.5,253.5C 396.44,254.043 396.107,254.376 395.5,254.5C 394.5,234.178 394.167,213.844 394.5,193.5 Z"/></g>
<g><path style="opacity:1" fill="#894c39" d="M 237.5,202.5 C 217.993,202.17 198.659,202.503 179.5,203.5C 178.711,203.217 178.044,202.717 177.5,202C 198.24,201.173 218.24,201.34 237.5,202.5 Z"/></g>
<g><path style="opacity:1" fill="#8a4c39" d="M 367.5,203.5 C 348.341,202.503 329.007,202.17 309.5,202.5C 318.424,201.821 328.091,201.488 338.5,201.5C 348.5,201.833 358.5,202.167 368.5,202.5C 368.376,203.107 368.043,203.44 367.5,203.5 Z"/></g>
<g><path style="opacity:1" fill="#b9664d" d="M 237.5,202.5 C 234.037,206.464 230.37,210.298 226.5,214C 214.167,214.667 201.833,214.667 189.5,214C 185.963,210.631 182.629,207.131 179.5,203.5C 198.659,202.503 217.993,202.17 237.5,202.5 Z"/></g>
<g><path style="opacity:1" fill="#b9664c" d="M 309.5,202.5 C 329.007,202.17 348.341,202.503 367.5,203.5C 364.343,207.157 361.01,210.657 357.5,214C 345.167,214.667 332.833,214.667 320.5,214C 316.63,210.298 312.963,206.464 309.5,202.5 Z"/></g>
<g><path style="opacity:1" fill="#22130e" d="M 298.5,213.5 C 297.504,227.99 297.171,242.657 297.5,257.5C 296.87,265.243 297.537,272.576 299.5,279.5C 298.791,280.404 297.791,280.737 296.5,280.5C 296.167,257.824 296.5,235.157 297.5,212.5C 298.107,212.624 298.44,212.957 298.5,213.5 Z"/></g>
<g><path style="opacity:1" fill="#bb674e" d="M 298.5,213.5 C 302.104,216.602 305.604,219.935 309,223.5C 309.5,233.828 309.666,244.161 309.5,254.5C 305.381,255.097 301.381,256.097 297.5,257.5C 297.171,242.657 297.504,227.99 298.5,213.5 Z"/></g>
<g><path style="opacity:1" fill="#361c13" d="M 378.5,213.5 C 378.56,212.957 378.893,212.624 379.5,212.5C 380.826,227.995 380.826,243.328 379.5,258.5C 379.829,243.324 379.496,228.324 378.5,213.5 Z"/></g>
<g><path style="opacity:1" fill="#b4634a" d="M 166.5,212.5 C 170.798,216.296 174.964,220.296 179,224.5C 179.667,245.167 179.667,265.833 179,286.5C 175,290.5 171,294.5 167,298.5C 166.5,269.835 166.333,241.169 166.5,212.5 Z"/></g>
<g><path style="opacity:1" fill="#bd684e" d="M 247.5,214.5 C 248.828,233.004 248.828,251.671 247.5,270.5C 244.287,271.427 241.12,272.427 238,273.5C 237.5,257.17 237.333,240.837 237.5,224.5C 240.5,220.833 243.833,217.5 247.5,214.5 Z"/></g>
<g><path style="opacity:1" fill="#aa593d" d="M 378.5,213.5 C 379.496,228.324 379.829,243.324 379.5,258.5C 375.715,259.03 372.048,260.03 368.5,261.5C 367.334,249.18 367.167,236.847 368,224.5C 371.704,220.964 375.204,217.298 378.5,213.5 Z"/></g>
<g><path style="opacity:1" fill="#c57c65" d="M 194.5,229.5 C 203.5,229.5 212.5,229.5 221.5,229.5C 221.5,246.833 221.5,264.167 221.5,281.5C 212.5,281.5 203.5,281.5 194.5,281.5C 194.5,264.167 194.5,246.833 194.5,229.5 Z"/></g>
<g><path style="opacity:1" fill="#c57c65" d="M 325.5,229.5 C 334.5,229.5 343.5,229.5 352.5,229.5C 352.5,233.5 352.5,237.5 352.5,241.5C 343.755,244.937 334.755,247.604 325.5,249.5C 325.5,242.833 325.5,236.167 325.5,229.5 Z"/></g>
<g><path style="opacity:1" fill="#625f65" d="M 118.5,234.5 C 118.56,233.957 118.893,233.624 119.5,233.5C 119.833,247.167 120.167,260.833 120.5,274.5C 120.509,288.574 120.175,301.907 119.5,314.5C 119.831,287.661 119.498,260.995 118.5,234.5 Z"/></g>
<g><path style="opacity:1" fill="#aea9b2" d="M 118.5,234.5 C 119.498,260.995 119.831,287.661 119.5,314.5C 107.202,302.702 95.0349,290.702 83,278.5C 81.627,276.305 81.2937,273.971 82,271.5C 94.3687,259.298 106.535,246.965 118.5,234.5 Z"/></g>
<g><path style="opacity:1" fill="#b9664d" d="M 325.5,229.5 C 325.5,236.167 325.5,242.833 325.5,249.5C 334.755,247.604 343.755,244.937 352.5,241.5C 352.831,249.528 352.498,257.528 351.5,265.5C 342.671,268.466 333.671,270.799 324.5,272.5C 324.171,257.99 324.504,243.657 325.5,229.5 Z"/></g>
<g><path style="opacity:1" fill="#a9583d" d="M 309.5,254.5 C 309.5,262.167 309.5,269.833 309.5,277.5C 306.097,277.851 302.763,278.518 299.5,279.5C 297.537,272.576 296.87,265.243 297.5,257.5C 301.381,256.097 305.381,255.097 309.5,254.5 Z"/></g>
<g><path style="opacity:1" fill="#904b35" d="M 282.5,194.5 C 282.5,224.5 282.5,254.5 282.5,284.5C 276.494,285.835 270.494,287.168 264.5,288.5C 264.5,280.833 264.5,273.167 264.5,265.5C 269.992,264.802 275.325,263.468 280.5,261.5C 281.167,239.004 281.833,216.67 282.5,194.5 Z"/></g>
<g><path style="opacity:1" fill="#c4bfc6" d="M 412.5,268.5 C 414.411,268.574 415.578,269.574 416,271.5C 420.65,288.096 424.65,304.763 428,321.5C 391.472,358.361 354.639,394.861 317.5,431C 313.091,431.805 309.091,430.805 305.5,428C 252.833,397.333 200.167,366.667 147.5,336C 223.565,315.587 299.565,295.087 375.5,274.5C 336.709,301.643 297.043,328.476 256.5,355C 253.114,358.373 252.614,362.206 255,366.5C 257.579,368.347 260.412,368.847 263.5,368C 313.576,335.306 363.243,302.139 412.5,268.5 Z"/></g>
<g><path style="opacity:1" fill="#9d533a" d="M 237.5,224.5 C 237.333,240.837 237.5,257.17 238,273.5C 241.12,272.427 244.287,271.427 247.5,270.5C 248.828,251.671 248.828,233.004 247.5,214.5C 247.783,213.711 248.283,213.044 249,212.5C 249.833,239.506 249.667,266.506 248.5,293.5C 247.232,294.428 245.899,294.595 244.5,294C 242,291.5 239.5,289 237,286.5C 236.171,265.663 236.337,244.996 237.5,224.5 Z"/></g>
<g><path style="opacity:1" fill="#723c29" d="M 135.5,14.5 C 135.167,109.836 135.5,205.169 136.5,300.5C 141.339,299.083 146.172,297.749 151,296.5C 151.168,261.664 151.668,226.998 152.5,192.5C 152.5,234.833 152.5,277.167 152.5,319.5C 146.551,320.957 140.551,322.29 134.5,323.5C 134.167,220.332 134.501,117.332 135.5,14.5 Z"/></g>
<g><path style="opacity:1" fill="#a05439" d="M 189.5,296.5 C 201.838,296.333 214.171,296.5 226.5,297C 226.957,297.414 227.291,297.914 227.5,298.5C 213.387,303.624 198.887,307.29 184,309.5C 181.833,309.333 179.667,309.167 177.5,309C 181.704,304.964 185.704,300.798 189.5,296.5 Z"/></g>
<g><path style="opacity:1" fill="#273e50" d="M 136.5,347.5 C 135.833,363.5 135.167,379.5 134.5,395.5C 134.167,379.153 134.501,362.82 135.5,346.5C 136.107,346.624 136.44,346.957 136.5,347.5 Z"/></g>
<g><path style="opacity:1" fill="#5b8fb8" d="M 136.5,347.5 C 192.139,379.655 247.806,411.822 303.5,444C 314.214,448.428 323.881,446.762 332.5,439C 348.035,423.298 363.701,407.798 379.5,392.5C 379.667,407.837 379.5,423.17 379,438.5C 373.479,465.021 357.313,480.188 330.5,484C 265.501,484.5 200.501,484.667 135.5,484.5C 135.667,465.164 135.5,445.83 135,426.5C 133.293,423.41 130.793,421.41 127.5,420.5C 127.5,414.167 127.5,407.833 127.5,401.5C 131.089,400.908 133.422,398.908 134.5,395.5C 135.167,379.5 135.833,363.5 136.5,347.5 Z"/></g>
<g><path style="opacity:1" fill="#0a1117" d="M 410.5,360.5 C 410.56,359.957 410.893,359.624 411.5,359.5C 412.831,405.332 412.831,450.998 411.5,496.5C 411.832,450.997 411.499,405.664 410.5,360.5 Z"/></g>
<g><path style="opacity:1" fill="#4a80aa" d="M 410.5,360.5 C 411.499,405.664 411.832,450.997 411.5,496.5C 319.5,496.5 227.5,496.5 135.5,496.5C 135.5,492.5 135.5,488.5 135.5,484.5C 200.501,484.667 265.501,484.5 330.5,484C 357.313,480.188 373.479,465.021 379,438.5C 379.5,423.17 379.667,407.837 379.5,392.5C 389.833,381.833 400.167,371.167 410.5,360.5 Z"/></g>
</svg>
