<?xml version="1.0" encoding="UTF-8"?>
<!DOCTYPE svg PUBLIC "-//W3C//DTD SVG 1.1//EN" "http://www.w3.org/Graphics/SVG/1.1/DTD/svg11.dtd">
<svg xmlns="http://www.w3.org/2000/svg" version="1.1" width="512px" height="512px" style="shape-rendering:geometricPrecision; text-rendering:geometricPrecision; image-rendering:optimizeQuality; fill-rule:evenodd; clip-rule:evenodd" xmlns:xlink="http://www.w3.org/1999/xlink">
<g><path style="opacity:0.975" fill="#020000" d="M 62.5,-0.5 C 88.8333,-0.5 115.167,-0.5 141.5,-0.5C 150.834,3.83061 154.667,11.1639 153,21.5C 148.696,30.6072 144.53,39.7738 140.5,49C 170.328,63.8414 188.494,87.6747 195,120.5C 196.111,140.489 197.111,160.489 198,180.5C 199.546,207.235 205.546,232.902 216,257.5C 231.053,286.211 254.22,305.045 285.5,314C 297.649,317.303 309.982,319.636 322.5,321C 343.165,322.481 363.831,323.815 384.5,325C 416.204,332.209 439.204,350.376 453.5,379.5C 464.067,374.131 474.9,369.464 486,365.5C 493.261,366.438 498.595,370.104 502,376.5C 503.64,402.771 503.973,429.104 503,455.5C 499.894,465.638 493.061,470.138 482.5,469C 472.472,464.902 462.639,460.402 453,455.5C 438.25,486.423 414.083,505.09 380.5,511.5C 364.5,511.5 348.5,511.5 332.5,511.5C 139.922,498.758 32.7553,396.424 11,204.5C 9.01907,184.382 7.8524,164.215 7.5,144C 6.68471,100.603 25.3514,68.9362 63.5,49C 60.053,40.6627 56.2197,32.4961 52,24.5C 48.0486,12.8183 51.5486,4.48501 62.5,-0.5 Z"/></g>
<g><path style="opacity:1" fill="#b8183a" d="M 68.5,16.5 C 90.8433,16.167 113.177,16.5003 135.5,17.5C 131.567,26.5332 127.233,35.3665 122.5,44C 114.907,43.1408 107.24,42.6408 99.5,42.5C 93.5518,42.3229 87.7185,42.9896 82,44.5C 79.8442,42.1992 78.1776,39.5325 77,36.5C 73.8725,29.9169 71.0391,23.2502 68.5,16.5 Z"/></g>
<g><path style="opacity:1" fill="#ee304b" d="M 118.5,61.5 C 142.112,76.0384 156.279,97.0384 161,124.5C 160.736,151.994 162.569,179.328 166.5,206.5C 152.004,208.838 137.337,211.005 122.5,213C 103.401,220.375 97.9006,233.542 106,252.5C 113.152,262.324 122.652,265.824 134.5,263C 148.467,260.838 162.467,259.005 176.5,257.5C 178.144,257.286 179.644,257.62 181,258.5C 184.683,266.541 188.85,274.207 193.5,281.5C 179.535,294.965 165.701,308.631 152,322.5C 141.17,336.704 142.337,349.871 155.5,362C 165.167,368 174.833,368 184.5,362C 201.339,345.994 218.006,329.827 234.5,313.5C 241.775,317.297 249.442,320.297 257.5,322.5C 258.814,324.915 259.481,327.748 259.5,331C 257.691,352.817 256.525,374.65 256,396.5C 261.895,415.022 274.062,421.188 292.5,415C 299.675,410.82 304.175,404.653 306,396.5C 307.501,376.825 309.001,357.158 310.5,337.5C 334.494,339.509 358.494,341.175 382.5,342.5C 419.528,366.739 432.695,400.406 422,443.5C 414.862,464.453 402.029,480.787 383.5,492.5C 318.346,497.808 255.679,487.641 195.5,462C 127.643,429.827 80.1431,378.66 53,308.5C 32.0766,248.286 23.0766,186.286 26,122.5C 34.2787,88.5545 55.4454,67.7212 89.5,60C 96.8333,59.3333 104.167,59.3333 111.5,60C 114.036,60.1862 116.369,60.6862 118.5,61.5 Z"/></g>
<g><path style="opacity:1" fill="#b9183a" d="M 118.5,61.5 C 151.056,69.8909 170.89,90.5575 178,123.5C 178.315,150.904 179.815,178.237 182.5,205.5C 177.178,205.98 171.845,206.313 166.5,206.5C 162.569,179.328 160.736,151.994 161,124.5C 156.279,97.0384 142.112,76.0384 118.5,61.5 Z"/></g>
<g><path style="opacity:1" fill="#b41838" d="M 180.5,221.5 C 182.604,221.201 184.604,221.534 186.5,222.5C 187.676,227.539 189.01,232.539 190.5,237.5C 168.361,242.068 146.027,244.901 123.5,246C 116.566,239.731 117.233,234.398 125.5,230C 144.003,227.359 162.337,224.526 180.5,221.5 Z"/></g>
<g><path style="opacity:1" fill="#b61839" d="M 193.5,281.5 C 188.85,274.207 184.683,266.541 181,258.5C 179.644,257.62 178.144,257.286 176.5,257.5C 181.98,256.236 187.646,255.236 193.5,254.5C 194.5,254.833 195.5,255.167 196.5,255.5C 198.696,260.726 201.03,265.893 203.5,271C 199.957,274.374 196.624,277.874 193.5,281.5 Z"/></g>
<g><path style="opacity:1" fill="#b31838" d="M 211.5,286.5 C 212.239,286.369 212.906,286.536 213.5,287C 216.316,290.783 219.483,294.283 223,297.5C 223.667,298.5 223.667,299.5 223,300.5C 207.833,315.667 192.667,330.833 177.5,346C 169.484,351.822 164.151,349.989 161.5,340.5C 161.622,338.209 162.455,336.209 164,334.5C 180.035,318.632 195.868,302.632 211.5,286.5 Z"/></g>
<g><path style="opacity:1" fill="#b41939" d="M 257.5,322.5 C 249.442,320.297 241.775,317.297 234.5,313.5C 235.145,312.188 236.145,311.188 237.5,310.5C 244.23,314.526 250.897,318.526 257.5,322.5 Z"/></g>
<g><path style="opacity:1" fill="#b51839" d="M 276.5,329.5 C 281.97,331.58 287.637,332.913 293.5,333.5C 292.332,354.187 290.832,374.854 289,395.5C 286.459,400.069 282.625,401.569 277.5,400C 273.208,396.913 271.542,392.746 272.5,387.5C 273.878,368.165 275.211,348.831 276.5,329.5 Z"/></g>
<g><path style="opacity:1" fill="#b8183a" d="M 382.5,342.5 C 414.211,350.711 434.045,370.711 442,402.5C 446.823,437.392 434.656,464.559 405.5,484C 398.484,487.726 391.151,490.56 383.5,492.5C 402.029,480.787 414.862,464.453 422,443.5C 432.695,400.406 419.528,366.739 382.5,342.5 Z"/></g>
<g><path style="opacity:1" fill="#b9183a" d="M 484.5,383.5 C 485.663,405.996 485.83,428.663 485,451.5C 476.454,447.477 467.954,443.311 459.5,439C 458.892,437.769 458.559,436.436 458.5,435C 460.945,422.144 461.112,409.311 459,396.5C 467.543,392.055 476.043,387.722 484.5,383.5 Z"/></g>
</svg>
