<?xml version="1.0" encoding="UTF-8"?>
<!DOCTYPE svg PUBLIC "-//W3C//DTD SVG 1.1//EN" "http://www.w3.org/Graphics/SVG/1.1/DTD/svg11.dtd">
<svg xmlns="http://www.w3.org/2000/svg" version="1.1" width="512px" height="512px" style="shape-rendering:geometricPrecision; text-rendering:geometricPrecision; image-rendering:optimizeQuality; fill-rule:evenodd; clip-rule:evenodd" xmlns:xlink="http://www.w3.org/1999/xlink">
<g><path style="opacity:0.961" fill="#010202" d="M 232.5,-0.5 C 247.833,-0.5 263.167,-0.5 278.5,-0.5C 379.371,12.3469 450.871,65.0136 493,157.5C 502.497,181.819 508.663,206.819 511.5,232.5C 511.5,247.833 511.5,263.167 511.5,278.5C 499.099,376.153 448.766,446.653 360.5,490C 334.11,501.263 306.776,508.429 278.5,511.5C 263.167,511.5 247.833,511.5 232.5,511.5C 143.853,500.61 76.6868,456.943 31,380.5C 13.7076,348.465 3.20759,314.465 -0.5,278.5C -0.5,264.5 -0.5,250.5 -0.5,236.5C 1.15959,233.374 3.82626,231.707 7.5,231.5C 10.2702,232.31 12.4369,233.977 14,236.5C 11.0731,329.14 46.9065,402.306 121.5,456C 191.425,500.527 265.425,508.527 343.5,480C 355.119,475.524 366.119,470.024 376.5,463.5C 447.094,420.386 486.927,357.386 496,274.5C 499.572,171.876 457.405,94.7094 369.5,43C 294.312,5.33696 218.979,5.00363 143.5,42C 102.085,64.249 69.7519,95.749 46.5,136.5C 33.4901,158.545 24.3234,182.212 19,207.5C 17.3258,211.089 14.4925,212.755 10.5,212.5C 7.70808,212.548 5.87474,211.215 5,208.5C 6.47334,191.94 10.4733,175.94 17,160.5C 58.598,66.4428 130.431,12.7762 232.5,-0.5 Z"/></g>
<g><path style="opacity:1" fill="#f3f6f7" d="M 376.5,463.5 C 277.756,501.804 188.09,486.971 107.5,419C 38.8753,351.438 14.3753,270.271 34,175.5C 37.6764,162.305 41.8431,149.305 46.5,136.5C 69.7519,95.749 102.085,64.249 143.5,42C 218.979,5.00363 294.312,5.33696 369.5,43C 457.405,94.7094 499.572,171.876 496,274.5C 486.927,357.386 447.094,420.386 376.5,463.5 Z"/></g>
<g><path style="opacity:1" fill="#040302" d="M 262.5,69.5 C 261.817,73.0198 259.817,75.5198 256.5,77C 224.574,78.1381 196.241,88.6381 171.5,108.5C 154.5,121.83 144.166,139.163 140.5,160.5C 140.833,161.833 141.167,163.167 141.5,164.5C 146.938,161.965 152.605,160.132 158.5,159C 160.898,152.795 164.564,147.628 169.5,143.5C 191.779,131.024 214.112,118.524 236.5,106C 256.846,104.68 266.013,114.18 264,134.5C 260.493,142.514 254.66,148.18 246.5,151.5C 242.194,153.988 237.861,156.488 233.5,159C 232.289,159.893 232.289,160.726 233.5,161.5C 241.153,164.992 248.487,168.992 255.5,173.5C 259.401,171.392 263.067,169.059 266.5,166.5C 281.445,158.024 296.445,149.524 311.5,141C 324.274,138.026 333.774,142.192 340,153.5C 343.513,165.302 340.346,174.802 330.5,182C 319.33,188.363 308.33,194.863 297.5,201.5C 293.346,203.077 289.679,205.41 286.5,208.5C 290.446,215.405 295.113,221.738 300.5,227.5C 304.401,225.392 308.067,223.059 311.5,220.5C 319.987,215.756 328.654,211.256 337.5,207C 353.184,205.857 362.184,213.023 364.5,228.5C 364.443,237.291 360.776,243.957 353.5,248.5C 349.313,251.172 344.98,253.672 340.5,256C 339.167,256.667 339.167,257.333 340.5,258C 348.999,261.167 357.166,265 365,269.5C 369.795,267.192 374.295,264.525 378.5,261.5C 383.402,258.384 388.735,256.384 394.5,255.5C 411.085,256.917 418.919,265.917 418,282.5C 416.76,285.978 415.26,289.311 413.5,292.5C 410.158,295.169 406.825,297.836 403.5,300.5C 414.013,314.689 419.013,330.689 418.5,348.5C 423.188,344.479 427.521,340.146 431.5,335.5C 450.14,314.166 452.307,291.166 438,266.5C 425.165,246.994 409.499,229.994 391,215.5C 383.234,206.975 377.234,197.308 373,186.5C 367.624,169.959 362.624,153.293 358,136.5C 344.62,103.801 320.454,84.301 285.5,78C 282.959,76.1516 281.959,73.6516 282.5,70.5C 282.393,68.0968 283.393,66.2635 285.5,65C 304.42,66.2063 321.586,72.373 337,83.5C 355.556,77.9447 372.723,80.7781 388.5,92C 395.53,99.3648 402.864,106.365 410.5,113C 418.5,117.667 426.5,122.333 434.5,127C 442.672,134.179 448.172,143.013 451,153.5C 450.995,166.52 450.662,179.52 450,192.5C 454.075,203.642 458.408,214.642 463,225.5C 465.313,240.426 462.813,254.426 455.5,267.5C 467.01,295.431 463.176,321.097 444,344.5C 438.833,349.667 433.667,354.833 428.5,360C 422.755,364.289 416.921,368.456 411,372.5C 403.373,390.602 392.206,406.102 377.5,419C 374.177,419.932 371.177,419.432 368.5,417.5C 367.058,416.18 366.392,414.514 366.5,412.5C 366.491,410.692 366.991,409.025 368,407.5C 386.325,391.848 397.659,372.181 402,348.5C 404.103,336.245 401.769,324.912 395,314.5C 387.078,303.243 377.245,294.077 365.5,287C 350.684,278.592 335.351,271.259 319.5,265C 307.174,258.013 296.674,248.846 288,237.5C 277.077,219.569 264.244,203.069 249.5,188C 225.883,170.226 199.549,164.559 170.5,171C 130.654,180.564 99.654,202.397 77.5,236.5C 58.2293,266.386 59.0626,295.719 80,324.5C 88.9091,335.411 99.0758,344.911 110.5,353C 136.761,370.302 164.427,385.302 193.5,398C 220.69,410.175 248.356,421.175 276.5,431C 291.418,435.189 306.418,435.522 321.5,432C 329.427,429.691 337.26,427.191 345,424.5C 347.712,424.391 349.878,425.391 351.5,427.5C 352.881,430.822 352.548,433.988 350.5,437C 324.022,450.913 296.689,453.08 268.5,443.5C 259.424,461.708 244.757,469.208 224.5,466C 220.462,465.101 216.795,463.434 213.5,461C 198.965,462.826 185.298,460.16 172.5,453C 167.5,449.333 162.5,445.667 157.5,442C 146.415,436.729 135.082,432.062 123.5,428C 110.583,419.68 103.083,407.846 101,392.5C 101.981,380.824 99.814,369.824 94.5,359.5C 42.8546,318.629 35.5213,270.962 72.5,216.5C 63.7456,201.317 60.5789,184.983 63,167.5C 70.1667,135 90,115.167 122.5,108C 131.865,107.481 141.198,107.481 150.5,108C 180.216,78.1483 216.216,63.1483 258.5,63C 260.734,64.6379 262.067,66.8045 262.5,69.5 Z"/></g>
<g><path style="opacity:1" fill="#dd7c5e" d="M 262.5,69.5 C 269.191,69.4542 275.857,69.7875 282.5,70.5C 281.959,73.6516 282.959,76.1516 285.5,78C 320.454,84.301 344.62,103.801 358,136.5C 362.624,153.293 367.624,169.959 373,186.5C 377.234,197.308 383.234,206.975 391,215.5C 409.499,229.994 425.165,246.994 438,266.5C 452.307,291.166 450.14,314.166 431.5,335.5C 428.652,319.987 422.652,305.653 413.5,292.5C 415.26,289.311 416.76,285.978 418,282.5C 418.919,265.917 411.085,256.917 394.5,255.5C 388.735,256.384 383.402,258.384 378.5,261.5C 370.563,257.868 362.563,254.201 354.5,250.5C 353.702,250.043 353.369,249.376 353.5,248.5C 360.776,243.957 364.443,237.291 364.5,228.5C 362.184,213.023 353.184,205.857 337.5,207C 328.654,211.256 319.987,215.756 311.5,220.5C 305.649,215.171 300.982,208.838 297.5,201.5C 308.33,194.863 319.33,188.363 330.5,182C 340.346,174.802 343.513,165.302 340,153.5C 333.774,142.192 324.274,138.026 311.5,141C 296.445,149.524 281.445,158.024 266.5,166.5C 260.701,161.761 254.368,157.761 247.5,154.5C 246.614,153.675 246.281,152.675 246.5,151.5C 254.66,148.18 260.493,142.514 264,134.5C 266.013,114.18 256.846,104.68 236.5,106C 214.112,118.524 191.779,131.024 169.5,143.5C 163.924,144.749 161.257,142.583 161.5,137C 162.953,126.807 166.286,117.307 171.5,108.5C 196.241,88.6381 224.574,78.1381 256.5,77C 259.817,75.5198 261.817,73.0198 262.5,69.5 Z"/></g>
<g><path style="opacity:1" fill="#36c171" d="M 370.5,99.5 C 370.062,99.4346 369.728,99.6012 369.5,100C 378.418,113.004 384.752,127.171 388.5,142.5C 384.116,142.826 379.783,142.492 375.5,141.5C 370.52,124.532 362.187,109.532 350.5,96.5C 357.618,94.9965 364.285,95.9965 370.5,99.5 Z"/></g>
<g><path style="opacity:1" fill="#4ed986" d="M 370.5,99.5 C 373.757,100.462 376.757,101.962 379.5,104C 391.971,118.82 406.971,130.153 424.5,138C 429.936,142.771 433.769,148.605 436,155.5C 436.608,164.722 436.108,173.888 434.5,183C 434.926,192.128 436.759,200.961 440,209.5C 442.94,215.046 445.606,220.713 448,226.5C 448.497,228.81 448.663,231.143 448.5,233.5C 436.864,219.698 424.031,207.031 410,195.5C 409.536,194.906 409.369,194.239 409.5,193.5C 418.322,176.224 415.656,161.058 401.5,148C 397.361,145.594 393.028,143.761 388.5,142.5C 384.752,127.171 378.418,113.004 369.5,100C 369.728,99.6012 370.062,99.4346 370.5,99.5 Z"/></g>
<g><path style="opacity:1" fill="#0d0604" d="M 283.5,99.5 C 290.657,99.155 293.824,102.488 293,109.5C 290.928,114.143 287.428,115.643 282.5,114C 277.003,108.683 277.336,103.85 283.5,99.5 Z"/></g>
<g><path style="opacity:1" fill="#0d0604" d="M 312.5,108.5 C 319.657,108.155 322.824,111.488 322,118.5C 319.928,123.143 316.428,124.643 311.5,123C 306.003,117.683 306.336,112.85 312.5,108.5 Z"/></g>
<g><path style="opacity:1" fill="#c96555" d="M 171.5,108.5 C 166.286,117.307 162.953,126.807 161.5,137C 161.257,142.583 163.924,144.749 169.5,143.5C 164.564,147.628 160.898,152.795 158.5,159C 152.605,160.132 146.938,161.965 141.5,164.5C 141.167,163.167 140.833,161.833 140.5,160.5C 144.166,139.163 154.5,121.83 171.5,108.5 Z"/></g>
<g><path style="opacity:1" fill="#c76253" d="M 239.5,120.5 C 247.201,120.362 250.367,124.029 249,131.5C 237.252,139.627 225.085,147.127 212.5,154C 203.175,153.983 193.842,153.65 184.5,153C 202.897,142.14 221.23,131.307 239.5,120.5 Z"/></g>
<g><path style="opacity:1" fill="#fbed55" d="M 97.5,190.5 C 89.8082,175.078 87.4749,159.078 90.5,142.5C 103.051,127.537 119.051,121.204 138.5,123.5C 129.332,138.5 124.665,154.833 124.5,172.5C 114.955,177.766 105.955,183.766 97.5,190.5 Z"/></g>
<g><path style="opacity:0.999" fill="#dbe9ee" d="M 46.5,136.5 C 41.8431,149.305 37.6764,162.305 34,175.5C 14.3753,270.271 38.8753,351.438 107.5,419C 188.09,486.971 277.756,501.804 376.5,463.5C 366.119,470.024 355.119,475.524 343.5,480C 265.425,508.527 191.425,500.527 121.5,456C 46.9065,402.306 11.0731,329.14 14,236.5C 12.4369,233.977 10.2702,232.31 7.5,231.5C 8.0947,225.066 9.0947,218.733 10.5,212.5C 14.4925,212.755 17.3258,211.089 19,207.5C 24.3234,182.212 33.4901,158.545 46.5,136.5 Z"/></g>
<g><path style="opacity:1" fill="#f9da2f" d="M 90.5,142.5 C 87.4749,159.078 89.8082,175.078 97.5,190.5C 92.562,194.936 87.7287,199.603 83,204.5C 80.7339,200.034 79.0672,195.368 78,190.5C 74.6871,172.413 78.8538,156.413 90.5,142.5 Z"/></g>
<g><path style="opacity:1" fill="#c96555" d="M 246.5,151.5 C 246.281,152.675 246.614,153.675 247.5,154.5C 254.368,157.761 260.701,161.761 266.5,166.5C 263.067,169.059 259.401,171.392 255.5,173.5C 248.487,168.992 241.153,164.992 233.5,161.5C 232.289,160.726 232.289,159.893 233.5,159C 237.861,156.488 242.194,153.988 246.5,151.5 Z"/></g>
<g><path style="opacity:1" fill="#c76353" d="M 317.5,154.5 C 324.632,154.802 327.465,158.469 326,165.5C 325.07,167.552 323.57,169.052 321.5,170C 306.67,178.247 292.003,186.747 277.5,195.5C 274.544,192.042 271.377,188.708 268,185.5C 267.383,184.551 267.549,183.718 268.5,183C 284.896,173.473 301.23,163.973 317.5,154.5 Z"/></g>
<g><path style="opacity:1" fill="#2cb563" d="M 379.5,158.5 C 388.583,156.292 395.083,159.626 399,168.5C 401.139,177.256 398.639,184.256 391.5,189.5C 389.747,186.995 388.247,184.329 387,181.5C 384.361,173.751 381.861,166.084 379.5,158.5 Z"/></g>
<g><path style="opacity:1" fill="#de7c5e" d="M 366.5,412.5 C 342.611,424.803 317.611,427.636 291.5,421C 241.129,403.809 192.796,382.309 146.5,356.5C 156.847,357.775 165.347,354.442 172,346.5C 187.667,328.167 203.333,309.833 219,291.5C 219.932,288.177 219.432,285.177 217.5,282.5C 221.489,277.179 225.822,272.179 230.5,267.5C 233.877,268.901 237.21,268.735 240.5,267C 244.333,262.5 248.167,258 252,253.5C 261.504,238.699 258.671,226.865 243.5,218C 234.735,215.036 226.735,216.369 219.5,222C 191,255.167 162.5,288.333 134,321.5C 129.531,330.028 129.364,338.695 133.5,347.5C 133.103,348.525 132.437,348.692 131.5,348C 112.64,335.507 96.8067,320.007 84,301.5C 72.7724,280.727 70.6057,259.06 77.5,236.5C 99.654,202.397 130.654,180.564 170.5,171C 199.549,164.559 225.883,170.226 249.5,188C 264.244,203.069 277.077,219.569 288,237.5C 296.674,248.846 307.174,258.013 319.5,265C 335.351,271.259 350.684,278.592 365.5,287C 377.245,294.077 387.078,303.243 395,314.5C 401.769,324.912 404.103,336.245 402,348.5C 397.659,372.181 386.325,391.848 368,407.5C 366.991,409.025 366.491,410.692 366.5,412.5 Z"/></g>
<g><path style="opacity:1" fill="#0d0604" d="M 199.5,186.5 C 206.657,186.155 209.824,189.488 209,196.5C 206.928,201.143 203.428,202.643 198.5,201C 193.003,195.683 193.336,190.85 199.5,186.5 Z"/></g>
<g><path style="opacity:1" fill="#37c372" d="M 409.5,193.5 C 409.369,194.239 409.536,194.906 410,195.5C 424.031,207.031 436.864,219.698 448.5,233.5C 448.984,239.711 448.151,245.711 446,251.5C 432.777,233.94 417.777,217.94 401,203.5C 402.794,199.519 405.627,196.186 409.5,193.5 Z"/></g>
<g><path style="opacity:1" fill="#040201" d="M 151.5,200.5 C 168.549,198.079 178.216,205.245 180.5,222C 180.765,226.872 179.598,231.372 177,235.5C 160.205,255.297 143.039,274.797 125.5,294C 109.043,301.632 97.5427,297.132 91,280.5C 89.6989,274.078 90.6989,268.078 94,262.5C 110.795,242.703 127.961,223.203 145.5,204C 147.727,203.059 149.727,201.892 151.5,200.5 Z"/></g>
<g><path style="opacity:1" fill="#ca6655" d="M 297.5,201.5 C 300.982,208.838 305.649,215.171 311.5,220.5C 308.067,223.059 304.401,225.392 300.5,227.5C 295.113,221.738 290.446,215.405 286.5,208.5C 289.679,205.41 293.346,203.077 297.5,201.5 Z"/></g>
<g><path style="opacity:1" fill="#c96555" d="M 154.5,215.5 C 160.979,213.784 164.979,216.117 166.5,222.5C 166.281,223.938 165.781,225.271 165,226.5C 149.206,245.296 133.039,263.796 116.5,282C 107.667,283.833 104.167,280.333 106,271.5C 122.003,252.666 138.169,233.999 154.5,215.5 Z"/></g>
<g><path style="opacity:1" fill="#050201" d="M 230.5,267.5 C 227.964,264.993 227.131,261.993 228,258.5C 232.333,253.5 236.667,248.5 241,243.5C 243.732,234.894 240.566,231.061 231.5,232C 203.667,263.833 175.833,295.667 148,327.5C 142.317,337.297 145.151,341.797 156.5,341C 173.5,321.333 190.5,301.667 207.5,282C 210.95,279.991 214.283,280.158 217.5,282.5C 219.432,285.177 219.932,288.177 219,291.5C 203.333,309.833 187.667,328.167 172,346.5C 165.347,354.442 156.847,357.775 146.5,356.5C 144.259,355.379 141.925,354.213 139.5,353C 137.63,350.96 135.63,349.127 133.5,347.5C 129.364,338.695 129.531,330.028 134,321.5C 162.5,288.333 191,255.167 219.5,222C 226.735,216.369 234.735,215.036 243.5,218C 258.671,226.865 261.504,238.699 252,253.5C 248.167,258 244.333,262.5 240.5,267C 237.21,268.735 233.877,268.901 230.5,267.5 Z"/></g>
<g><path style="opacity:1" fill="#ca6655" d="M 230.5,267.5 C 225.822,272.179 221.489,277.179 217.5,282.5C 214.283,280.158 210.95,279.991 207.5,282C 190.5,301.667 173.5,321.333 156.5,341C 145.151,341.797 142.317,337.297 148,327.5C 175.833,295.667 203.667,263.833 231.5,232C 240.566,231.061 243.732,234.894 241,243.5C 236.667,248.5 232.333,253.5 228,258.5C 227.131,261.993 227.964,264.993 230.5,267.5 Z"/></g>
<g><path style="opacity:1" fill="#c15d50" d="M 339.5,221.5 C 345.53,220.868 348.863,223.535 349.5,229.5C 349.402,231.937 348.402,233.937 346.5,235.5C 338.5,240.167 330.5,244.833 322.5,249.5C 318.523,246.691 314.69,243.691 311,240.5C 310.911,238.887 311.745,237.72 313.5,237C 322.395,232.059 331.062,226.892 339.5,221.5 Z"/></g>
<g><path style="opacity:1" fill="#cb6655" d="M 77.5,236.5 C 70.6057,259.06 72.7724,280.727 84,301.5C 96.8067,320.007 112.64,335.507 131.5,348C 132.437,348.692 133.103,348.525 133.5,347.5C 135.63,349.127 137.63,350.96 139.5,353C 141.925,354.213 144.259,355.379 146.5,356.5C 192.796,382.309 241.129,403.809 291.5,421C 317.611,427.636 342.611,424.803 366.5,412.5C 366.392,414.514 367.058,416.18 368.5,417.5C 363.327,421.59 357.66,424.923 351.5,427.5C 349.878,425.391 347.712,424.391 345,424.5C 337.26,427.191 329.427,429.691 321.5,432C 306.418,435.522 291.418,435.189 276.5,431C 248.356,421.175 220.69,410.175 193.5,398C 164.427,385.302 136.761,370.302 110.5,353C 99.0758,344.911 88.9091,335.411 80,324.5C 59.0626,295.719 58.2293,266.386 77.5,236.5 Z"/></g>
<g><path style="opacity:1" fill="#c96655" d="M 353.5,248.5 C 353.369,249.376 353.702,250.043 354.5,250.5C 362.563,254.201 370.563,257.868 378.5,261.5C 374.295,264.525 369.795,267.192 365,269.5C 357.166,265 348.999,261.167 340.5,258C 339.167,257.333 339.167,256.667 340.5,256C 344.98,253.672 349.313,251.172 353.5,248.5 Z"/></g>
<g><path style="opacity:1" fill="#040201" d="M 271.5,272.5 C 284.916,270.289 294.416,275.289 300,287.5C 301.964,297.657 299.297,306.324 292,313.5C 283.518,323.616 274.685,333.45 265.5,343C 251.214,350.288 240.047,347.121 232,333.5C 228.954,324.356 230.288,316.022 236,308.5C 245.464,297.368 255.297,286.534 265.5,276C 267.727,275.059 269.727,273.892 271.5,272.5 Z"/></g>
<g><path style="opacity:1" fill="#bf5a4f" d="M 392.5,270.5 C 398.629,269.555 402.296,272.055 403.5,278C 403.297,280.406 402.297,282.406 400.5,284C 397.705,285.3 395.039,286.8 392.5,288.5C 388.183,285.514 384.183,282.18 380.5,278.5C 384.565,275.81 388.565,273.143 392.5,270.5 Z"/></g>
<g><path style="opacity:1" fill="#c96555" d="M 274.5,287.5 C 284.245,286.405 287.411,290.405 284,299.5C 275.167,309.667 266.333,319.833 257.5,330C 250.864,333.33 246.531,331.497 244.5,324.5C 244.719,323.062 245.219,321.729 246,320.5C 255.71,309.628 265.21,298.628 274.5,287.5 Z"/></g>
<g><path style="opacity:1" fill="#cb6756" d="M 413.5,292.5 C 422.652,305.653 428.652,319.987 431.5,335.5C 427.521,340.146 423.188,344.479 418.5,348.5C 419.013,330.689 414.013,314.689 403.5,300.5C 406.825,297.836 410.158,295.169 413.5,292.5 Z"/></g>
<g><path style="opacity:1" fill="#040201" d="M 339.5,300.5 C 355.407,299.272 364.741,306.438 367.5,322C 367.314,327.243 365.814,332.076 363,336.5C 342.206,360.963 321.039,385.13 299.5,409C 283.172,417.07 271.339,412.904 264,396.5C 262.699,390.078 263.699,384.078 267,378.5C 288.461,353.37 310.294,328.537 332.5,304C 334.925,302.787 337.259,301.621 339.5,300.5 Z"/></g>
<g><path style="opacity:1" fill="#c96555" d="M 341.5,315.5 C 350.56,315.046 353.727,319.046 351,327.5C 331.626,349.205 312.626,371.205 294,393.5C 288.818,400.09 283.818,400.09 279,393.5C 278.333,391.5 278.333,389.5 279,387.5C 299.669,363.333 320.503,339.333 341.5,315.5 Z"/></g>
<g><path style="opacity:1" fill="#0c0604" d="M 205.5,336.5 C 212.319,336.483 215.486,339.817 215,346.5C 210.748,352.653 206.081,352.986 201,347.5C 199.776,342.626 201.276,338.959 205.5,336.5 Z"/></g>
<g><path style="opacity:1" fill="#0d0604" d="M 371.5,353.5 C 378.657,353.155 381.824,356.488 381,363.5C 378.928,368.143 375.428,369.643 370.5,368C 365.003,362.683 365.336,357.85 371.5,353.5 Z"/></g>
<g><path style="opacity:1" fill="#0b0504" d="M 223.5,359.5 C 230.319,359.483 233.486,362.817 233,369.5C 228.748,375.653 224.081,375.986 219,370.5C 217.776,365.626 219.276,361.959 223.5,359.5 Z"/></g>
<g><path style="opacity:1" fill="#0d0705" d="M 189.5,360.5 C 196.368,360.53 199.535,363.864 199,370.5C 196.928,375.143 193.428,376.643 188.5,375C 183.057,369.809 183.391,364.976 189.5,360.5 Z"/></g>
<g><path style="opacity:1" fill="#37c171" d="M 132.5,384.5 C 131.325,384.281 130.325,384.614 129.5,385.5C 132.425,396.188 138.425,404.688 147.5,411C 155.148,414.913 163.148,417.913 171.5,420C 179.842,423.833 187.508,428.667 194.5,434.5C 195.167,431.023 195.834,427.689 196.5,424.5C 195.897,432.102 196.897,439.436 199.5,446.5C 195.414,446.116 191.414,445.283 187.5,444C 178.563,438.727 169.897,433.06 161.5,427C 153.877,423.014 145.877,420.014 137.5,418C 127.333,414.5 120.5,407.667 117,397.5C 115.522,389.889 115.188,382.222 116,374.5C 121.647,377.733 127.147,381.067 132.5,384.5 Z"/></g>
<g><path style="opacity:1" fill="#0d0604" d="M 351.5,376.5 C 358.657,376.155 361.824,379.488 361,386.5C 358.928,391.143 355.428,392.643 350.5,391C 345.003,385.683 345.336,380.85 351.5,376.5 Z"/></g>
<g><path style="opacity:1" fill="#4eda87" d="M 132.5,384.5 C 154.381,395.608 176.381,406.441 198.5,417C 197.446,419.382 196.779,421.882 196.5,424.5C 195.834,427.689 195.167,431.023 194.5,434.5C 187.508,428.667 179.842,423.833 171.5,420C 163.148,417.913 155.148,414.913 147.5,411C 138.425,404.688 132.425,396.188 129.5,385.5C 130.325,384.614 131.325,384.281 132.5,384.5 Z"/></g>
<g><path style="opacity:1" fill="#faec54" d="M 211.5,422.5 C 225.788,427.65 239.788,433.317 253.5,439.5C 245.112,452.068 234.112,454.902 220.5,448C 212.65,441.288 209.65,432.788 211.5,422.5 Z"/></g>
</svg>
