<?xml version="1.0" encoding="UTF-8"?>
<!DOCTYPE svg PUBLIC "-//W3C//DTD SVG 1.1//EN" "http://www.w3.org/Graphics/SVG/1.1/DTD/svg11.dtd">
<svg xmlns="http://www.w3.org/2000/svg" version="1.1" width="512px" height="512px" style="shape-rendering:geometricPrecision; text-rendering:geometricPrecision; image-rendering:optimizeQuality; fill-rule:evenodd; clip-rule:evenodd" xmlns:xlink="http://www.w3.org/1999/xlink">
<g><path style="opacity:0.972" fill="#010201" d="M 417.5,-0.5 C 422.5,-0.5 427.5,-0.5 432.5,-0.5C 441.577,2.81164 448.41,8.81164 453,17.5C 469.616,8.65599 483.616,11.656 495,26.5C 499.992,37.2569 499.492,47.7569 493.5,58C 497.57,60.4578 501.403,63.2912 505,66.5C 507.902,70.2005 510.068,74.2005 511.5,78.5C 511.5,83.5 511.5,88.5 511.5,93.5C 508.753,101.258 503.753,107.258 496.5,111.5C 504.806,129.797 500.139,143.63 482.5,153C 476.928,154.351 471.262,154.851 465.5,154.5C 466.529,161.445 464.863,167.612 460.5,173C 467.661,179.158 471.161,186.991 471,196.5C 485.432,201.364 491.766,211.364 490,226.5C 488.888,231.391 486.721,235.725 483.5,239.5C 492.231,247.874 494.731,257.874 491,269.5C 484.972,281.624 475.306,286.291 462,283.5C 459.091,300.741 448.924,308.575 431.5,307C 427.839,306.171 424.505,304.671 421.5,302.5C 415.752,307.421 409.086,310.421 401.5,311.5C 399.684,313.817 397.684,315.984 395.5,318C 398.109,323.955 398.109,329.955 395.5,336C 398.771,339.283 401.271,343.116 403,347.5C 417.169,341.667 428.169,345.334 436,358.5C 437.792,363 438.625,367.667 438.5,372.5C 452.725,376.938 458.892,386.605 457,401.5C 455.61,405.947 453.444,409.947 450.5,413.5C 460.168,423.147 462.001,434.147 456,446.5C 449.184,455.33 440.351,458.663 429.5,456.5C 428.062,470.937 420.062,478.603 405.5,479.5C 400.042,479.219 395.042,477.552 390.5,474.5C 383.401,481.069 375.068,483.235 365.5,481C 356.835,478.17 351.502,472.337 349.5,463.5C 344.936,464.474 340.436,464.474 336,463.5C 333.303,469.697 328.803,474.031 322.5,476.5C 320.025,494.904 309.692,502.238 291.5,498.5C 289.503,505.164 285.169,509.497 278.5,511.5C 274.167,511.5 269.833,511.5 265.5,511.5C 257.904,508.238 253.237,502.571 251.5,494.5C 233.113,495.448 224.113,486.448 224.5,467.5C 214.172,459.55 211.672,449.55 217,437.5C 218.677,435.324 220.511,433.324 222.5,431.5C 216.897,422.2 217.397,413.2 224,404.5C 233.549,399.642 242.715,394.142 251.5,388C 258.602,380.905 264.935,373.238 270.5,365C 249.016,353.005 226.016,346.171 201.5,344.5C 194.619,353.092 187.619,361.592 180.5,370C 177.854,370.497 175.187,370.664 172.5,370.5C 169.563,367.749 168.396,364.415 169,360.5C 177.286,349.213 185.952,338.213 195,327.5C 234.579,284.92 275.245,243.253 317,202.5C 316.833,197 314,194.167 308.5,194C 299.804,203.031 290.804,211.697 281.5,220C 277.687,222.026 274.02,221.86 270.5,219.5C 268.255,216.267 268.088,212.933 270,209.5C 278.596,201.449 287.096,193.282 295.5,185C 287.525,179.864 279.192,175.364 270.5,171.5C 268.172,175.454 265.339,179.12 262,182.5C 265.627,200.422 258.46,210.922 240.5,214C 237.938,225.565 230.771,231.731 219,232.5C 209.792,230.392 200.458,229.059 191,228.5C 181.086,229.25 171.253,230.583 161.5,232.5C 169.639,253.083 176.472,274.083 182,295.5C 202.5,273.667 223.667,252.5 245.5,232C 249.682,229.862 253.682,230.029 257.5,232.5C 258.468,235.445 258.634,238.445 258,241.5C 230.44,268.413 203.44,295.746 177,323.5C 158.087,344.072 141.087,366.072 126,389.5C 120.991,397.514 116.491,405.848 112.5,414.5C 119.187,418.263 126.021,421.93 133,425.5C 137.924,412.318 143.924,399.652 151,387.5C 154.361,384.328 158.195,383.662 162.5,385.5C 164.487,388.859 164.987,392.525 164,396.5C 156.924,408.652 150.924,421.318 146,434.5C 141.068,440.486 134.902,442.32 127.5,440C 118.833,435.667 110.167,431.333 101.5,427C 96.6231,421.526 95.4564,415.359 98,408.5C 111.249,382.272 127.249,357.938 146,335.5C 153,327.5 160,319.5 167,311.5C 164.027,286.911 157.194,263.411 146.5,241C 129.167,250.017 117,263.85 110,282.5C 101.492,292.768 91.3252,294.768 79.5,288.5C 70.6461,297.241 60.6461,298.741 49.5,293C 44.1931,286.513 37.1931,283.513 28.5,284C 18.7411,278.649 14.7411,270.482 16.5,259.5C 8.38031,257.706 2.71364,253.039 -0.5,245.5C -0.5,241.167 -0.5,236.833 -0.5,232.5C 0.704964,229.766 2.20496,227.099 4,224.5C 6.85264,222.308 9.68597,220.142 12.5,218C 9.24158,200.371 16.5749,190.537 34.5,188.5C 36.6332,181.867 40.9666,177.367 47.5,175C 46.5257,170.564 46.5257,166.064 47.5,161.5C 32.7756,156.896 26.9422,146.896 30,131.5C 31.1454,127.206 33.3121,123.539 36.5,120.5C 29.0098,107.924 30.3431,96.4243 40.5,86C 44.9014,83.4776 49.5681,81.6443 54.5,80.5C 52.6675,67.998 57.3342,58.8314 68.5,53C 79.871,49.1357 89.5377,51.6357 97.5,60.5C 110.882,50.3983 123.382,51.3983 135,63.5C 136.741,66.3093 137.908,69.3093 138.5,72.5C 155.166,72.335 164.5,80.5017 166.5,97C 166.254,100.911 165.254,104.578 163.5,108C 167.606,110.133 171.439,112.633 175,115.5C 181.046,112.906 187.046,112.906 193,115.5C 195.016,113.316 197.183,111.316 199.5,109.5C 200.877,102.082 203.877,95.4149 208.5,89.5C 200.565,76.2611 202.232,64.4278 213.5,54C 217.78,51.3503 222.447,49.6836 227.5,49C 225.396,27.1034 235.396,17.1034 257.5,19C 262.967,20.5644 267.633,23.3978 271.5,27.5C 285.237,17.3401 298.071,18.3401 310,30.5C 312.035,33.5612 313.201,36.8945 313.5,40.5C 323.441,39.556 331.608,42.8893 338,50.5C 343.458,46.4261 349.625,44.7594 356.5,45.5C 355.469,21.0362 367.136,9.53616 391.5,11C 394.308,11.598 396.808,12.7647 399,14.5C 403.592,7.39366 409.758,2.39366 417.5,-0.5 Z M 270.5,219.5 C 265.833,223.5 261.5,227.833 257.5,232.5C 253.682,230.029 249.682,229.862 245.5,232C 223.667,252.5 202.5,273.667 182,295.5C 176.472,274.083 169.639,253.083 161.5,232.5C 171.253,230.583 181.086,229.25 191,228.5C 200.458,229.059 209.792,230.392 219,232.5C 230.771,231.731 237.938,225.565 240.5,214C 258.46,210.922 265.627,200.422 262,182.5C 265.339,179.12 268.172,175.454 270.5,171.5C 279.192,175.364 287.525,179.864 295.5,185C 287.096,193.282 278.596,201.449 270,209.5C 268.088,212.933 268.255,216.267 270.5,219.5 Z M 325.5,215.5 C 330.937,223.303 335.603,231.636 339.5,240.5C 335.546,242.828 331.88,245.661 328.5,249C 310.578,245.373 300.078,252.54 297,270.5C 285.42,273.076 279.253,280.243 278.5,292C 280.608,301.208 281.941,310.542 282.5,320C 282.197,330.178 280.364,340.011 277,349.5C 257.377,340.014 236.877,333.014 215.5,328.5C 251.462,290.204 288.129,252.537 325.5,215.5 Z"/></g>
<g><path style="opacity:1" fill="#7bb481" d="M 438.5,37.5 C 437.778,37.0825 437.278,36.4158 437,35.5C 429.296,39.8807 424.796,46.5473 423.5,55.5C 414.5,44.3799 403.833,42.5465 391.5,50C 384.967,55.7948 382.8,62.9615 385,71.5C 386.269,75.1414 387.436,78.8081 388.5,82.5C 385.115,82.6876 381.782,81.8542 378.5,80C 367.445,78.8568 359.779,83.3568 355.5,93.5C 353.562,89.8075 351.229,86.3075 348.5,83C 346.024,80.4289 343.024,78.9289 339.5,78.5C 340.035,70.5763 343.702,64.743 350.5,61C 352.833,60.3333 355.167,60.3333 357.5,61C 361.219,62.8595 364.886,64.6928 368.5,66.5C 373.266,66.2338 375.933,63.7338 376.5,59C 375.387,53.3814 373.887,47.8814 372,42.5C 370.881,34.5742 374.048,29.0742 381.5,26C 386.802,25.1006 391.302,26.6006 395,30.5C 396.373,33.4125 397.873,36.2458 399.5,39C 404.82,41.7019 408.987,40.5352 412,35.5C 412.109,30.3859 412.776,25.3859 414,20.5C 423.649,11.5934 431.649,12.9267 438,24.5C 438.499,28.8206 438.666,33.1539 438.5,37.5 Z"/></g>
<g><path style="opacity:1" fill="#84c28a" d="M 327.5,146.5 C 328.897,140.308 330.897,134.308 333.5,128.5C 336.187,128.664 338.854,128.497 341.5,128C 347.406,121.683 351.906,114.516 355,106.5C 355.499,102.179 355.666,97.8461 355.5,93.5C 359.779,83.3568 367.445,78.8568 378.5,80C 381.782,81.8542 385.115,82.6876 388.5,82.5C 387.436,78.8081 386.269,75.1414 385,71.5C 382.8,62.9615 384.967,55.7948 391.5,50C 403.833,42.5465 414.5,44.3799 423.5,55.5C 424.796,46.5473 429.296,39.8807 437,35.5C 437.278,36.4158 437.778,37.0825 438.5,37.5C 440.047,42.5419 443.38,44.3752 448.5,43C 453.467,39.034 458.134,34.7007 462.5,30C 470.636,25.9331 477.136,27.7664 482,35.5C 483.041,40.4398 482.374,45.1065 480,49.5C 476.333,53.1667 472.667,56.8333 469,60.5C 466.633,64.9991 467.467,68.8324 471.5,72C 476.5,72.3333 481.5,72.6667 486.5,73C 497.743,78.6271 499.41,86.2937 491.5,96C 486.423,98.0948 481.09,99.0948 475.5,99C 470.465,102.013 469.298,106.18 472,111.5C 476.972,113.308 480.972,116.308 484,120.5C 486.896,131.358 482.73,137.691 471.5,139.5C 464.886,138.222 458.386,136.555 452,134.5C 447.5,135 445,137.5 444.5,142C 445.866,145.712 447.699,149.212 450,152.5C 451.53,159.267 449.364,164.434 443.5,168C 439.835,169.278 436.168,170.444 432.5,171.5C 430.233,162.738 424.567,157.571 415.5,156C 411.167,155.333 406.833,155.333 402.5,156C 395.564,159.94 388.897,164.273 382.5,169C 369.919,175.479 356.585,178.812 342.5,179C 376,145.5 409.5,112 443,78.5C 444.833,69.6667 441.333,66.1667 432.5,68C 399,101.5 365.5,135 332,168.5C 332,162.5 332,156.5 332,150.5C 330.603,148.93 329.103,147.596 327.5,146.5 Z"/></g>
<g><path style="opacity:1" fill="#84c18a" d="M 272.5,53.5 C 272.077,54.2646 271.743,55.0979 271.5,56C 273.304,59.7749 274.971,63.6083 276.5,67.5C 276,67.8333 275.5,68.1667 275,68.5C 263.39,63.4375 254.724,66.4375 249,77.5C 246.895,87.5485 250.395,94.8818 259.5,99.5C 254.997,101.486 251.164,104.486 248,108.5C 246.748,111.014 246.248,113.68 246.5,116.5C 240.701,114.739 235.201,115.406 230,118.5C 226.867,113.363 222.534,109.696 217,107.5C 216.76,105.023 217.594,102.856 219.5,101C 223.569,100.062 227.569,98.8952 231.5,97.5C 235.812,92.9119 235.479,88.7452 230.5,85C 222.563,83.7458 218.729,79.2458 219,71.5C 220.5,68.6667 222.667,66.5 225.5,65C 230.552,65.1738 235.552,66.0071 240.5,67.5C 246.095,67.072 248.595,64.072 248,58.5C 245.688,53.3786 243.522,48.2119 241.5,43C 244.029,34.0663 249.362,31.7329 257.5,36C 260.714,40.9261 263.548,46.0927 266,51.5C 267.897,53.0163 270.064,53.683 272.5,53.5 Z"/></g>
<g><path style="opacity:1" fill="#8fcf95" d="M 333.5,128.5 C 330.897,134.308 328.897,140.308 327.5,146.5C 322.952,146.199 319.785,148.199 318,152.5C 316.853,161.197 315.52,169.864 314,178.5C 299.489,167.828 283.656,159.661 266.5,154C 263.812,151.312 261.145,148.645 258.5,146C 263.707,132.264 259.707,122.431 246.5,116.5C 246.248,113.68 246.748,111.014 248,108.5C 251.164,104.486 254.997,101.486 259.5,99.5C 250.395,94.8818 246.895,87.5485 249,77.5C 254.724,66.4375 263.39,63.4375 275,68.5C 275.5,68.1667 276,67.8333 276.5,67.5C 274.971,63.6083 273.304,59.7749 271.5,56C 271.743,55.0979 272.077,54.2646 272.5,53.5C 274.17,53.2488 275.67,52.5822 277,51.5C 278.782,46.7707 280.949,42.2707 283.5,38C 295.095,34.2597 299.928,38.4263 298,50.5C 295.323,59.1561 298.489,62.9895 307.5,62C 309.493,60.3793 311.493,58.7127 313.5,57C 323.006,55.1812 327.506,59.0146 327,68.5C 324.247,73.0076 321.247,77.3409 318,81.5C 316.773,85.5913 317.606,89.0913 320.5,92C 325.179,92.1637 329.845,92.1637 334.5,92C 340.089,94.4507 341.922,98.6174 340,104.5C 336.606,108.898 333.606,113.565 331,118.5C 329.861,122.421 330.695,125.754 333.5,128.5 Z"/></g>
<g><path style="opacity:1" fill="#8ece94" d="M 89.5,174.5 C 88.4324,173.566 87.099,173.232 85.5,173.5C 86.4738,168.061 89.1404,163.561 93.5,160C 84.4587,160.306 76.7921,157.473 70.5,151.5C 65.3827,139.072 69.0493,130.405 81.5,125.5C 76.7336,122.229 73.2336,117.896 71,112.5C 69.85,102.641 74.0166,96.1407 83.5,93C 88.3083,92.1631 92.8083,92.9965 97,95.5C 96.9368,92.5133 96.1035,89.68 94.5,87C 96.3817,86.8019 98.0484,86.3019 99.5,85.5C 103.721,82.7541 106.221,78.7541 107,73.5C 112.841,66.6056 118.175,66.9389 123,74.5C 123.623,78.8053 123.123,82.972 121.5,87C 122.271,93.5647 125.938,95.898 132.5,94C 136.419,88.5371 141.419,87.2038 147.5,90C 150.265,92.9948 151.098,96.4948 150,100.5C 147.333,104.5 144.667,108.5 142,112.5C 140.866,122.462 145.2,125.796 155,122.5C 158.804,122.4 161.471,124.066 163,127.5C 163.498,130.482 163.665,133.482 163.5,136.5C 148.897,139.618 142.731,148.618 145,163.5C 149.327,176.722 149.66,190.055 146,203.5C 130.667,170.833 115.333,138.167 100,105.5C 96.6269,102.114 92.7936,101.614 88.5,104C 86.6533,106.579 86.1533,109.412 87,112.5C 101.97,144.273 116.803,176.107 131.5,208C 131.333,208.5 131.167,209 131,209.5C 126.585,207.377 122.418,204.877 118.5,202C 110.696,194.042 103.363,185.709 96.5,177C 94.257,175.864 91.9237,175.03 89.5,174.5 Z"/></g>
<g><path style="opacity:1" fill="#83c089" d="M 99.5,85.5 C 98.0484,86.3019 96.3817,86.8019 94.5,87C 96.1035,89.68 96.9368,92.5133 97,95.5C 92.8083,92.9965 88.3083,92.1631 83.5,93C 74.0166,96.1407 69.85,102.641 71,112.5C 73.2336,117.896 76.7336,122.229 81.5,125.5C 69.0493,130.405 65.3827,139.072 70.5,151.5C 68.9897,150.164 67.3231,148.997 65.5,148C 60.5,147.667 55.5,147.333 50.5,147C 44.6318,143.96 43.1318,139.46 46,133.5C 47.214,131.951 48.714,130.785 50.5,130C 60.6785,130.127 63.6785,125.627 59.5,116.5C 55.4927,115.336 51.9927,113.336 49,110.5C 46.2243,104.866 47.391,100.366 52.5,97C 57.6179,96.8657 62.6179,97.699 67.5,99.5C 73.6309,98.871 76.1309,95.5376 75,89.5C 72.3113,85.1299 70.478,80.4633 69.5,75.5C 70.8507,67.8248 75.184,65.3248 82.5,68C 86.4817,72.1257 89.315,76.9591 91,82.5C 93.1962,85.1252 96.0295,86.1252 99.5,85.5 Z"/></g>
<g><path style="opacity:1" fill="#a1e2a6" d="M 208.5,121.5 C 211.652,120.959 214.152,121.959 216,124.5C 216.333,128.167 216.667,131.833 217,135.5C 219.665,140.434 223.498,141.601 228.5,139C 231.203,135.962 234.203,133.295 237.5,131C 244.56,129.729 247.06,132.562 245,139.5C 230.674,151.924 232.841,158.757 251.5,160C 255.01,163.048 255.343,166.381 252.5,170C 248.954,171.174 245.287,171.84 241.5,172C 237.423,175.139 236.59,178.972 239,183.5C 241.846,185.257 244.512,187.257 247,189.5C 248.063,194.439 246.063,197.106 241,197.5C 235.845,196.216 230.678,195.383 225.5,195C 221.723,197.955 220.557,201.788 222,206.5C 225.422,210.147 225.255,213.647 221.5,217C 210.991,214.88 200.324,213.38 189.5,212.5C 179.058,213.537 168.725,215.204 158.5,217.5C 161.638,206.402 163.304,195.068 163.5,183.5C 162.773,173.72 161.606,164.053 160,154.5C 161.182,152.643 162.849,151.643 165,151.5C 167.765,153.241 170.765,154.574 174,155.5C 178.97,154.862 181.47,152.029 181.5,147C 179.78,142.293 178.946,137.46 179,132.5C 181.21,129.71 184.044,128.877 187.5,130C 189.657,131.981 191.324,134.314 192.5,137C 197.186,139.529 201.019,138.696 204,134.5C 203.527,129.339 205.027,125.006 208.5,121.5 Z"/></g>
<g><path style="opacity:1" fill="#83bf89" d="M 70.5,151.5 C 76.7921,157.473 84.4587,160.306 93.5,160C 89.1404,163.561 86.4738,168.061 85.5,173.5C 87.099,173.232 88.4324,173.566 89.5,174.5C 81.8131,172.996 75.3131,174.996 70,180.5C 60.0664,173.698 60.0664,167.031 70,160.5C 71.5744,157.508 71.741,154.508 70.5,151.5 Z"/></g>
<g><path style="opacity:1" fill="#8ecf94" d="M 405.5,170.5 C 413.352,168.702 418.019,171.702 419.5,179.5C 418.585,183.144 418.419,186.81 419,190.5C 421.559,193.349 424.726,194.183 428.5,193C 433.167,190 437.833,187 442.5,184C 452.04,183.544 455.873,188.044 454,197.5C 448.812,201.009 447.312,205.676 449.5,211.5C 453.557,215.148 457.89,215.315 462.5,212C 472.04,211.544 475.873,216.044 474,225.5C 469.986,229.627 465.153,232.46 459.5,234C 456.833,237.667 456.833,241.333 459.5,245C 465.408,247.535 470.908,250.702 476,254.5C 479.008,262.49 476.341,267.156 468,268.5C 461.879,267.404 456.045,265.404 450.5,262.5C 446.225,263.272 443.892,265.772 443.5,270C 445.197,275.07 446.03,280.237 446,285.5C 443.185,291.169 438.685,293.002 432.5,291C 429.193,288.222 427.026,284.722 426,280.5C 420.885,274.925 416.219,275.258 412,281.5C 413.019,287.803 410.686,292.137 405,294.5C 404.5,294.167 404,293.833 403.5,293.5C 400.901,288.572 397.568,284.239 393.5,280.5C 398.351,259.517 390.018,249.683 368.5,251C 366.854,252.401 365.187,252.568 363.5,251.5C 361.517,249.016 359.35,246.683 357,244.5C 351.339,227.344 343.172,211.511 332.5,197C 344.086,194.725 355.752,192.725 367.5,191C 381.857,186.993 394.524,180.16 405.5,170.5 Z"/></g>
<g><path style="opacity:1" fill="#a1e3a6" d="M 116.5,218.5 C 106.526,227.771 99.026,238.771 94,251.5C 88.5247,258.037 82.0247,259.204 74.5,255C 72.3002,252.766 70.4669,250.266 69,247.5C 66.785,252.1 63.9517,256.266 60.5,260C 58.0912,261.707 55.4245,262.54 52.5,262.5C 51.8333,262.5 51.1667,262.5 50.5,262.5C 42.9534,259.936 39.2867,254.603 39.5,246.5C 38.5,246.5 37.5,246.5 36.5,246.5C 35.7109,246.217 35.0442,245.717 34.5,245C 28.8333,244.667 23.1667,244.333 17.5,244C 13.3689,239.974 13.7023,236.307 18.5,233C 22.5,232.667 26.5,232.333 30.5,232C 34.8608,229.774 36.3608,226.274 35,221.5C 32.3874,218.887 29.7208,216.221 27,213.5C 25.6263,208.572 27.4597,205.906 32.5,205.5C 36.0366,205.935 39.0366,207.435 41.5,210C 47.5376,211.131 50.871,208.631 51.5,202.5C 49.8155,199.389 49.3155,196.056 50,192.5C 52.264,189.48 55.0973,188.813 58.5,190.5C 61.3793,194.424 64.3793,198.257 67.5,202C 71.2702,204.279 74.6035,203.779 77.5,200.5C 78.9696,197.692 79.8029,194.692 80,191.5C 81.8637,188.793 84.3637,187.959 87.5,189C 95.3332,200.666 105,210.5 116.5,218.5 Z"/></g>
<g><path style="opacity:0.998" fill="#a0e1a5" d="M 172.5,370.5 C 168.425,374.976 165.092,379.976 162.5,385.5C 158.195,383.662 154.361,384.328 151,387.5C 143.924,399.652 137.924,412.318 133,425.5C 126.021,421.93 119.187,418.263 112.5,414.5C 116.491,405.848 120.991,397.514 126,389.5C 141.087,366.072 158.087,344.072 177,323.5C 203.44,295.746 230.44,268.413 258,241.5C 258.634,238.445 258.468,235.445 257.5,232.5C 261.5,227.833 265.833,223.5 270.5,219.5C 274.02,221.86 277.687,222.026 281.5,220C 290.804,211.697 299.804,203.031 308.5,194C 314,194.167 316.833,197 317,202.5C 275.245,243.253 234.579,284.92 195,327.5C 185.952,338.213 177.286,349.213 169,360.5C 168.396,364.415 169.563,367.749 172.5,370.5 Z"/></g>
<g><path style="opacity:1" fill="#8ece94" d="M 116.5,218.5 C 122.473,221.821 128.473,225.155 134.5,228.5C 126.091,235.472 117.925,242.806 110,250.5C 104.192,258.616 99.0256,267.116 94.5,276C 88.4772,277.324 85.3106,274.824 85,268.5C 80.5847,263.274 76.2514,263.274 72,268.5C 70.1288,273.081 67.6288,277.248 64.5,281C 61.3637,282.041 58.8637,281.207 57,278.5C 56.8922,274.823 56.8922,271.157 57,267.5C 55.975,265.313 54.475,263.646 52.5,262.5C 55.4245,262.54 58.0912,261.707 60.5,260C 63.9517,256.266 66.785,252.1 69,247.5C 70.4669,250.266 72.3002,252.766 74.5,255C 82.0247,259.204 88.5247,258.037 94,251.5C 99.026,238.771 106.526,227.771 116.5,218.5 Z"/></g>
<g><path style="opacity:1" fill="#8bca91" d="M 36.5,246.5 C 37.5,246.5 38.5,246.5 39.5,246.5C 39.2867,254.603 42.9534,259.936 50.5,262.5C 46.3219,263.145 42.9886,265.312 40.5,269C 35.3076,270.872 32.3076,269.205 31.5,264C 32.4729,260.355 34.3062,257.188 37,254.5C 37.7218,251.739 37.5552,249.073 36.5,246.5 Z"/></g>
<g><path style="opacity:1" fill="#a1e3a6" d="M 342.5,256.5 C 345.97,255.875 348.804,256.875 351,259.5C 352.243,278.159 359.076,280.326 371.5,266C 378.438,263.94 381.271,266.44 380,273.5C 376.63,276.535 373.63,279.868 371,283.5C 369.639,288.274 371.139,291.774 375.5,294C 379.167,294.333 382.833,294.667 386.5,295C 390.5,298.333 390.5,301.667 386.5,305C 382.954,306.174 379.287,306.84 375.5,307C 372.806,309.653 371.973,312.82 373,316.5C 375.172,319.348 377.838,321.682 381,323.5C 382.69,328.458 381.023,331.458 376,332.5C 370.591,330.769 365.091,329.935 359.5,330C 357.09,331.562 355.756,333.729 355.5,336.5C 356.193,339.997 357.526,343.164 359.5,346C 359.357,348.151 358.357,349.818 356.5,351C 345.628,349.267 334.628,348.101 323.5,347.5C 313.277,347.878 303.277,349.545 293.5,352.5C 295.808,341.266 297.475,329.933 298.5,318.5C 297.564,308.675 296.064,299.009 294,289.5C 297.353,285.745 300.853,285.578 304.5,289C 311.25,291.234 315.25,288.901 316.5,282C 314.613,276.964 313.779,271.797 314,266.5C 315.864,263.793 318.364,262.959 321.5,264C 324.214,266.181 326.214,268.847 327.5,272C 332.502,274.601 336.335,273.434 339,268.5C 338.761,263.948 339.928,259.948 342.5,256.5 Z"/></g>
<g><path style="opacity:1" fill="#8ece94" d="M 373.5,347.5 C 376.85,347.335 380.183,347.502 383.5,348C 386.784,349.396 388.451,351.896 388.5,355.5C 386.613,360.463 387.28,364.963 390.5,369C 393.167,369.667 395.833,369.667 398.5,369C 402.5,366.333 406.5,363.667 410.5,361C 421.053,359.926 424.553,364.426 421,374.5C 416.315,377.939 415.315,382.273 418,387.5C 419.574,388.848 421.407,389.514 423.5,389.5C 427.683,387.769 432.017,387.269 436.5,388C 438.286,388.785 439.786,389.951 441,391.5C 442.262,395.909 441.428,399.743 438.5,403C 433.94,404.529 429.773,406.696 426,409.5C 424.773,413.591 425.606,417.091 428.5,420C 433.929,421.911 438.762,424.744 443,428.5C 445.721,436.05 443.054,440.383 435,441.5C 430.246,440.376 425.746,438.542 421.5,436C 415.689,434.899 412.356,437.232 411.5,443C 411.891,445.953 412.725,448.787 414,451.5C 415.279,461.22 411.113,465.053 401.5,463C 398.337,459.686 396.004,455.852 394.5,451.5C 385.202,446.94 380.702,449.94 381,460.5C 378.647,465.426 374.814,467.26 369.5,466C 367.333,465.167 365.833,463.667 365,461.5C 363.783,455.551 362.783,449.551 362,443.5C 358.832,439.467 354.999,438.633 350.5,441C 343.918,450.923 337.251,450.923 330.5,441C 336.202,434.555 338.036,427.055 336,418.5C 335.333,417.167 334.667,415.833 334,414.5C 325.291,407.637 316.958,400.304 309,392.5C 306.042,388.084 303.208,383.584 300.5,379C 311.956,383.388 323.29,388.388 334.5,394C 340.538,395.131 343.871,392.631 344.5,386.5C 344.594,384.088 343.594,382.255 341.5,381C 330.167,375.667 318.833,370.333 307.5,365C 320.561,361.595 333.561,361.928 346.5,366C 358.845,368.9 367.679,364.734 373,353.5C 373.495,351.527 373.662,349.527 373.5,347.5 Z"/></g>
<g><path style="opacity:1" fill="#a1e2a6" d="M 281.5,376.5 C 282.458,376.953 283.292,377.619 284,378.5C 291.961,397.462 304.627,412.462 322,423.5C 322.421,430.072 319.254,432.905 312.5,432C 307.56,434.711 306.393,438.544 309,443.5C 312.358,446.358 315.858,449.025 319.5,451.5C 322.368,454.995 322.035,458.162 318.5,461C 314.845,461.641 311.345,461.141 308,459.5C 302.208,460.419 299.874,463.752 301,469.5C 303.565,471.963 305.065,474.963 305.5,478.5C 305.094,483.54 302.428,485.374 297.5,484C 295.126,481.961 293.126,479.628 291.5,477C 286.18,474.298 282.013,475.465 279,480.5C 278.667,484.5 278.333,488.5 278,492.5C 274.693,497.298 271.026,497.631 267,493.5C 266.667,487.833 266.333,482.167 266,476.5C 260.725,472.179 255.892,472.679 251.5,478C 244.318,481.462 240.818,479.295 241,471.5C 243,469.5 245,467.5 247,465.5C 249.601,460.498 248.434,456.665 243.5,454C 239.843,454.108 236.177,454.108 232.5,454C 228.5,450.667 228.5,447.333 232.5,444C 235.833,442.333 239.167,440.667 242.5,439C 247.726,434.585 247.726,430.251 242.5,426C 236.176,425.689 233.676,422.523 235,416.5C 244.344,411.823 253.177,406.323 261.5,400C 268.752,392.588 275.419,384.755 281.5,376.5 Z"/></g>
<g><path style="opacity:1" fill="#030403" d="M 366.5,394.5 C 379.896,398.859 392.896,404.359 405.5,411C 408.886,414.373 409.386,418.206 407,422.5C 404.421,424.347 401.588,424.847 398.5,424C 387.167,418.667 375.833,413.333 364.5,408C 360.188,402.731 360.855,398.231 366.5,394.5 Z"/></g>
</svg>
