<?xml version="1.0" encoding="UTF-8"?>
<!DOCTYPE svg PUBLIC "-//W3C//DTD SVG 1.1//EN" "http://www.w3.org/Graphics/SVG/1.1/DTD/svg11.dtd">
<svg xmlns="http://www.w3.org/2000/svg" version="1.1" width="512px" height="512px" style="shape-rendering:geometricPrecision; text-rendering:geometricPrecision; image-rendering:optimizeQuality; fill-rule:evenodd; clip-rule:evenodd" xmlns:xlink="http://www.w3.org/1999/xlink">
<g><path style="opacity:0.961" fill="#010001" d="M 325.5,-0.5 C 336.167,-0.5 346.833,-0.5 357.5,-0.5C 361.79,1.78998 363.624,5.45665 363,10.5C 363.854,26.4395 362.187,42.1062 358,57.5C 355.592,60.6201 352.426,61.9534 348.5,61.5C 347.685,60.1634 346.518,59.1634 345,58.5C 344.077,56.9656 343.577,55.299 343.5,53.5C 346.889,41.0535 348.223,28.3869 347.5,15.5C 324.969,12.7993 304.303,17.9659 285.5,31C 270.336,46.3077 262.67,64.8077 262.5,86.5C 261.514,90.97 261.181,95.6367 261.5,100.5C 266.695,100.821 271.695,100.487 276.5,99.5C 299.35,99.1778 318.35,90.6778 333.5,74C 336.736,72.2763 340.07,72.1096 343.5,73.5C 345.388,76.9312 345.888,80.5979 345,84.5C 332.133,100.026 315.633,109.526 295.5,113C 284.93,115.039 274.263,115.872 263.5,115.5C 263.372,117.655 263.872,119.655 265,121.5C 302.34,111.877 335.84,119.377 365.5,144C 394.104,169.248 412.604,200.414 421,237.5C 420.208,239.644 418.708,240.977 416.5,241.5C 413.398,241.846 410.565,241.179 408,239.5C 397.941,206.858 380.441,179.025 355.5,156C 347.139,149.485 338.139,143.985 328.5,139.5C 313.708,133.643 298.375,131.476 282.5,133C 279.957,133.14 277.623,133.806 275.5,135C 308.798,158.619 330.631,190.119 341,229.5C 339.975,231.687 338.475,233.354 336.5,234.5C 333.138,234.93 330.305,233.93 328,231.5C 317.245,199.774 299.078,173.274 273.5,152C 266.627,147.062 259.293,142.896 251.5,139.5C 215.71,126.132 183.377,131.965 154.5,157C 128.971,181.204 111.471,210.371 102,244.5C 94.8333,270.335 91.5,296.668 92,323.5C 90.1951,325.826 88.0284,327.492 85.5,328.5C 81.9103,328.456 79.4103,326.789 78,323.5C 75.0048,266.122 90.0048,214.122 123,167.5C 138.1,148.056 156.933,133.556 179.5,124C 201.585,116.359 223.919,115.526 246.5,121.5C 247.32,87.3046 234.654,59.1379 208.5,37C 202.245,32.6223 196.078,28.1223 190,23.5C 187.71,14.2115 191.21,10.3782 200.5,12C 222.288,24.0671 238.788,41.2338 250,63.5C 255.967,36.6857 271.467,17.8524 296.5,7C 306.095,3.68558 315.762,1.18558 325.5,-0.5 Z"/></g>
<g><path style="opacity:1" fill="#96d97b" d="M 347.5,15.5 C 344.5,15.5 341.5,15.5 338.5,15.5C 336.878,64.7867 311.545,91.12 262.5,94.5C 262.5,91.8333 262.5,89.1667 262.5,86.5C 262.67,64.8077 270.336,46.3077 285.5,31C 304.303,17.9659 324.969,12.7993 347.5,15.5 Z"/></g>
<g><path style="opacity:1" fill="#81d060" d="M 347.5,15.5 C 348.223,28.3869 346.889,41.0535 343.5,53.5C 343.577,55.299 344.077,56.9656 345,58.5C 346.518,59.1634 347.685,60.1634 348.5,61.5C 346.825,65.534 345.158,69.534 343.5,73.5C 340.07,72.1096 336.736,72.2763 333.5,74C 318.35,90.6778 299.35,99.1778 276.5,99.5C 271.833,99.5 267.167,99.5 262.5,99.5C 262.5,97.8333 262.5,96.1667 262.5,94.5C 311.545,91.12 336.878,64.7867 338.5,15.5C 341.5,15.5 344.5,15.5 347.5,15.5 Z"/></g>
<g><path style="opacity:1" fill="#4b7839" d="M 262.5,86.5 C 262.5,89.1667 262.5,91.8333 262.5,94.5C 262.5,96.1667 262.5,97.8333 262.5,99.5C 267.167,99.5 271.833,99.5 276.5,99.5C 271.695,100.487 266.695,100.821 261.5,100.5C 261.181,95.6367 261.514,90.97 262.5,86.5 Z"/></g>
<g><path style="opacity:1" fill="#926bfe" d="M 251.5,139.5 C 274.762,156.28 292.929,177.613 306,203.5C 331.609,258.655 337.609,315.989 324,375.5C 314.948,415.786 295.448,449.953 265.5,478C 259.847,481.965 254.514,486.131 249.5,490.5C 222.527,500.247 196.527,498.08 171.5,484C 142.149,464.303 121.316,437.803 109,404.5C 101.825,386.468 97.1587,367.801 95,348.5C 93.395,344.724 90.5616,342.724 86.5,342.5C 85.8734,337.859 85.5401,333.193 85.5,328.5C 88.0284,327.492 90.1951,325.826 92,323.5C 91.5,296.668 94.8333,270.335 102,244.5C 111.471,210.371 128.971,181.204 154.5,157C 183.377,131.965 215.71,126.132 251.5,139.5 Z"/></g>
<g><path style="opacity:1" fill="#926bfe" d="M 328.5,139.5 C 362.368,164.937 385.202,198.27 397,239.5C 414.177,300.506 410.51,360.173 386,418.5C 372.807,447.849 352.974,471.516 326.5,489.5C 309.723,496.603 292.39,498.103 274.5,494C 300.085,477.015 319.252,454.515 332,426.5C 335.195,419.247 338.195,411.914 341,404.5C 342.429,399.783 340.929,396.45 336.5,394.5C 352.454,341.155 352.454,287.822 336.5,234.5C 338.475,233.354 339.975,231.687 341,229.5C 330.631,190.119 308.798,158.619 275.5,135C 277.623,133.806 279.957,133.14 282.5,133C 298.375,131.476 313.708,133.643 328.5,139.5 Z"/></g>
<g><path style="opacity:1" fill="#8064e8" d="M 251.5,139.5 C 259.293,142.896 266.627,147.062 273.5,152C 299.078,173.274 317.245,199.774 328,231.5C 330.305,233.93 333.138,234.93 336.5,234.5C 352.454,287.822 352.454,341.155 336.5,394.5C 333.138,394.07 330.305,395.07 328,397.5C 317.278,429.202 299.111,455.702 273.5,477C 265.958,482.272 257.958,486.772 249.5,490.5C 254.514,486.131 259.847,481.965 265.5,478C 295.448,449.953 314.948,415.786 324,375.5C 337.609,315.989 331.609,258.655 306,203.5C 292.929,177.613 274.762,156.28 251.5,139.5 Z"/></g>
<g><path style="opacity:1" fill="#7e63e6" d="M 328.5,139.5 C 338.139,143.985 347.139,149.485 355.5,156C 380.441,179.025 397.941,206.858 408,239.5C 410.565,241.179 413.398,241.846 416.5,241.5C 417.499,246.165 418.499,250.831 419.5,255.5C 416.04,256.624 414.04,258.957 413.5,262.5C 424.655,321.226 416.822,377.226 390,430.5C 379.443,449.73 365.276,465.897 347.5,479C 341.025,483.571 334.025,487.071 326.5,489.5C 352.974,471.516 372.807,447.849 386,418.5C 410.51,360.173 414.177,300.506 397,239.5C 385.202,198.27 362.368,164.937 328.5,139.5 Z"/></g>
<g><path style="opacity:0.967" fill="#010102" d="M 419.5,255.5 C 422.97,254.875 425.804,255.875 428,258.5C 439.424,314.508 434.09,368.842 412,421.5C 398.056,452.774 376.89,477.941 348.5,497C 335.803,503.951 322.469,508.785 308.5,511.5C 298.833,511.5 289.167,511.5 279.5,511.5C 271.444,509.814 263.444,507.481 255.5,504.5C 247.556,507.481 239.556,509.814 231.5,511.5C 222.167,511.5 212.833,511.5 203.5,511.5C 180.845,507.674 160.845,498.174 143.5,483C 116.803,457.601 98.3029,427.101 88,391.5C 84.1437,378.219 81.3104,364.719 79.5,351C 79.5237,346.151 81.857,343.318 86.5,342.5C 90.5616,342.724 93.395,344.724 95,348.5C 97.1587,367.801 101.825,386.468 109,404.5C 121.316,437.803 142.149,464.303 171.5,484C 196.527,498.08 222.527,500.247 249.5,490.5C 257.958,486.772 265.958,482.272 273.5,477C 299.111,455.702 317.278,429.202 328,397.5C 330.305,395.07 333.138,394.07 336.5,394.5C 340.929,396.45 342.429,399.783 341,404.5C 338.195,411.914 335.195,419.247 332,426.5C 319.252,454.515 300.085,477.015 274.5,494C 292.39,498.103 309.723,496.603 326.5,489.5C 334.025,487.071 341.025,483.571 347.5,479C 365.276,465.897 379.443,449.73 390,430.5C 416.822,377.226 424.655,321.226 413.5,262.5C 414.04,258.957 416.04,256.624 419.5,255.5 Z"/></g>
</svg>
