<?xml version="1.0" encoding="UTF-8"?>
<!DOCTYPE svg PUBLIC "-//W3C//DTD SVG 1.1//EN" "http://www.w3.org/Graphics/SVG/1.1/DTD/svg11.dtd">
<svg xmlns="http://www.w3.org/2000/svg" version="1.1" width="256px" height="256px" style="shape-rendering:geometricPrecision; text-rendering:geometricPrecision; image-rendering:optimizeQuality; fill-rule:evenodd; clip-rule:evenodd" xmlns:xlink="http://www.w3.org/1999/xlink">
<g><path style="opacity:0.92" fill="#040404" d="M 255.5,91.5 C 255.5,97.8333 255.5,104.167 255.5,110.5C 241.993,139.853 228.16,169.186 214,198.5C 188.941,236.976 153.775,251.476 108.5,242C 101.152,239.826 94.1518,236.826 87.5,233C 71.1321,221.638 55.6321,209.138 41,195.5C 17.9767,170.12 4.14332,140.453 -0.5,106.5C -0.5,96.5 -0.5,86.5 -0.5,76.5C 8.324,34.7953 34.1573,12.4619 77,9.5C 96.5572,10.3519 114.724,15.8519 131.5,26C 146.104,36.4712 161.771,45.1379 178.5,52C 191.736,56.8171 205.402,59.1504 219.5,59C 238.665,62.0027 250.665,72.836 255.5,91.5 Z"/></g>
<g><path style="opacity:1" fill="#fefefe" d="M 198.5,205.5 C 187.391,214.057 175.058,220.557 161.5,225C 128.278,232.395 99.2778,224.562 74.5,201.5C 73.6143,200.675 73.281,199.675 73.5,198.5C 74.6854,197.143 75.6854,195.643 76.5,194C 74.9395,191.733 72.9395,190.4 70.5,190C 69.2668,191.667 67.9335,193.167 66.5,194.5C 64.5,193.167 62.8333,191.5 61.5,189.5C 63.002,187.825 64.3353,185.992 65.5,184C 63.9571,182.122 62.1238,180.622 60,179.5C 58.2927,181.037 56.7927,182.704 55.5,184.5C 24.1008,154.34 8.43416,117.34 8.5,73.5C 17.5385,38.6296 40.0385,19.963 76,17.5C 94.0328,18.0654 110.866,22.8987 126.5,32C 142.617,43.7696 159.951,53.4363 178.5,61C 192.491,65.3576 206.824,67.691 221.5,68C 241.32,73.1691 250.153,86.0025 248,106.5C 235.492,135.185 222.158,163.519 208,191.5C 205.071,196.369 201.904,201.035 198.5,205.5 Z"/></g>
<g><path style="opacity:1" fill="#111111" d="M 66.5,23.5 C 68.5,23.5 70.5,23.5 72.5,23.5C 73.7297,29.4852 71.3964,32.1518 65.5,31.5C 65.5668,29.5992 65.2335,27.7659 64.5,26C 65.0556,24.9889 65.7222,24.1556 66.5,23.5 Z"/></g>
<g><path style="opacity:1" fill="#0d0d0d" d="M 54.5,27.5 C 55.4959,27.4142 56.3292,27.7476 57,28.5C 59.5842,32.7202 58.4175,35.3868 53.5,36.5C 47.9212,32.5602 48.2546,29.5602 54.5,27.5 Z"/></g>
<g><path style="opacity:1" fill="#131313" d="M 41.5,34.5 C 43.1482,36.4293 44.8149,38.4293 46.5,40.5C 44.8333,41.8333 43.1667,43.1667 41.5,44.5C 39.5,43.1667 37.8333,41.5 36.5,39.5C 38.0063,37.5986 39.6729,35.9319 41.5,34.5 Z"/></g>
<g><path style="opacity:1" fill="#090909" d="M 227.5,82.5 C 234.682,85.1137 235.016,88.1137 228.5,91.5C 223.634,88.9265 223.301,85.9265 227.5,82.5 Z"/></g>
<g><path style="opacity:1" fill="#c3cbd4" d="M 8.5,73.5 C 8.43416,117.34 24.1008,154.34 55.5,184.5C 56.9108,186.914 58.9108,188.581 61.5,189.5C 62.8333,191.5 64.5,193.167 66.5,194.5C 68.3548,196.033 70.1881,197.7 72,199.5C 72.3826,198.944 72.8826,198.611 73.5,198.5C 73.281,199.675 73.6143,200.675 74.5,201.5C 99.2778,224.562 128.278,232.395 161.5,225C 175.058,220.557 187.391,214.057 198.5,205.5C 184.235,223.475 165.568,233.975 142.5,237C 122.175,238.919 103.509,234.252 86.5,223C 70.4859,211.661 55.6525,198.828 42,184.5C 15.4615,151.986 4.2948,114.986 8.5,73.5 Z"/></g>
<g><path style="opacity:1" fill="#151515" d="M 61.5,189.5 C 58.9108,188.581 56.9108,186.914 55.5,184.5C 56.7927,182.704 58.2927,181.037 60,179.5C 62.1238,180.622 63.9571,182.122 65.5,184C 64.3353,185.992 63.002,187.825 61.5,189.5 Z"/></g>
<g><path style="opacity:1" fill="#121212" d="M 73.5,198.5 C 72.8826,198.611 72.3826,198.944 72,199.5C 70.1881,197.7 68.3548,196.033 66.5,194.5C 67.9335,193.167 69.2668,191.667 70.5,190C 72.9395,190.4 74.9395,191.733 76.5,194C 75.6854,195.643 74.6854,197.143 73.5,198.5 Z"/></g>
</svg>
