<?xml version="1.0" encoding="UTF-8"?>
<!DOCTYPE svg PUBLIC "-//W3C//DTD SVG 1.1//EN" "http://www.w3.org/Graphics/SVG/1.1/DTD/svg11.dtd">
<svg xmlns="http://www.w3.org/2000/svg" version="1.1" width="512px" height="512px" style="shape-rendering:geometricPrecision; text-rendering:geometricPrecision; image-rendering:optimizeQuality; fill-rule:evenodd; clip-rule:evenodd" xmlns:xlink="http://www.w3.org/1999/xlink">
<g><path style="opacity:0.966" fill="#010100" d="M 511.5,131.5 C 511.5,138.833 511.5,146.167 511.5,153.5C 506.984,186.523 488.65,207.69 456.5,217C 447.343,218.652 438.176,219.818 429,220.5C 420.667,239.833 412.333,259.167 404,278.5C 401.358,281.029 398.192,282.029 394.5,281.5C 390.583,278.935 389.083,275.268 390,270.5C 397.833,252.833 405.667,235.167 413.5,217.5C 401.552,214.74 390.218,210.407 379.5,204.5C 377.565,208.304 376.232,212.304 375.5,216.5C 364.375,252.377 353.542,288.377 343,324.5C 342.333,328.5 342.333,332.5 343,336.5C 343.996,338.66 345.496,340.327 347.5,341.5C 352.153,343.228 356.32,342.228 360,338.5C 366.257,325.65 372.257,312.65 378,299.5C 378.903,298.299 380.069,297.465 381.5,297C 384.025,296.856 386.358,296.69 388.5,296.5C 391.894,300.062 392.727,304.062 391,308.5C 386,319.833 381,331.167 376,342.5C 366.598,357.633 353.764,361.466 337.5,354C 327.28,344.936 324.114,333.769 328,320.5C 340.308,279.246 352.808,238.079 365.5,197C 330.571,168.69 323.405,134.524 344,94.5C 348.045,88.9103 352.212,83.4103 356.5,78C 359.366,76.5432 362.366,76.2099 365.5,77C 368.312,78.9773 370.978,81.144 373.5,83.5C 394.547,54.4289 422.213,45.2622 456.5,56C 477.006,65.5114 489.506,81.3447 494,103.5C 495.287,111.781 495.787,120.114 495.5,128.5C 499.846,128.334 504.179,128.501 508.5,129C 509.373,130.045 510.373,130.878 511.5,131.5 Z"/></g>
<g><path style="opacity:1" fill="#f5b656" d="M 460.5,132.5 C 462.345,110.027 454.678,91.5269 437.5,77C 431.867,73.3499 425.867,70.5165 419.5,68.5C 450.509,63.2987 470.342,75.9654 479,106.5C 480.831,114.803 480.998,123.136 479.5,131.5C 473.171,131.9 466.838,132.233 460.5,132.5 Z"/></g>
<g><path style="opacity:1" fill="#fcd470" d="M 419.5,68.5 C 425.867,70.5165 431.867,73.3499 437.5,77C 454.678,91.5269 462.345,110.027 460.5,132.5C 457.696,133.638 454.696,133.805 451.5,133C 446.133,126.433 441.133,119.6 436.5,112.5C 435.335,111.416 434.002,110.583 432.5,110C 422.585,111.976 412.585,113.643 402.5,115C 396.14,108.974 390.14,102.641 384.5,96C 392.429,82.0401 404.096,72.8734 419.5,68.5 Z"/></g>
<g><path style="opacity:0.965" fill="#020100" d="M 202.5,71.5 C 228.985,72.6588 249.485,84.3255 264,106.5C 266.22,103.979 268.72,101.812 271.5,100C 274.634,99.2099 277.634,99.5432 280.5,101C 302.405,125.116 308.238,152.616 298,183.5C 291.392,197.724 281.726,209.39 269,218.5C 278.864,260.289 289.531,301.956 301,343.5C 305.661,359.65 300.828,371.817 286.5,380C 269.549,383.774 257.715,377.607 251,361.5C 235.333,321.5 219.667,281.5 204,241.5C 148.394,237.228 121.728,207.228 124,151.5C 125.8,147.765 128.8,146.098 133,146.5C 135.528,146.725 138.028,147.058 140.5,147.5C 138.538,120.939 147.871,99.4394 168.5,83C 178.912,76.0732 190.245,72.2399 202.5,71.5 Z"/></g>
<g><path style="opacity:1" fill="#f8b857" d="M 238.5,131.5 C 221.371,106.454 198.038,97.7871 168.5,105.5C 173.986,97.2116 181.653,91.7116 191.5,89C 218.585,84.876 238.919,94.7094 252.5,118.5C 247.843,122.831 243.176,127.165 238.5,131.5 Z"/></g>
<g><path style="opacity:1" fill="#d67d48" d="M 464.5,147.5 C 466.167,147.5 467.833,147.5 469.5,147.5C 462.359,172.472 446.025,187.638 420.5,193C 411.552,194.307 402.552,194.807 393.5,194.5C 371.578,185.078 356.744,169.078 349,146.5C 345.523,127.408 350.023,110.408 362.5,95.5C 373.959,107.459 385.625,119.292 397.5,131C 407.288,130.843 416.788,129.009 426,125.5C 427.261,125.759 428.261,126.426 429,127.5C 433.64,134.307 438.473,140.973 443.5,147.5C 450.459,148.356 457.459,148.356 464.5,147.5 Z"/></g>
<g><path style="opacity:1" fill="#fcd570" d="M 238.5,131.5 C 236.722,134.449 234.222,136.449 231,137.5C 223.444,135.537 215.944,133.37 208.5,131C 206.5,130.333 204.5,130.333 202.5,131C 196.261,138.15 190.261,145.483 184.5,153C 175.198,152.261 165.865,151.427 156.5,150.5C 154.579,136.289 157.079,122.956 164,110.5C 165.049,108.382 166.549,106.716 168.5,105.5C 198.038,97.7871 221.371,106.454 238.5,131.5 Z"/></g>
<g><path style="opacity:1" fill="#c66c34" d="M 225.5,221.5 C 239.013,212.816 249.179,201.149 256,186.5C 262.147,170.025 261.98,153.692 255.5,137.5C 261.464,131.035 267.631,124.702 274,118.5C 295.567,151.04 291.401,179.873 261.5,205C 250.634,212.932 238.634,218.432 225.5,221.5 Z"/></g>
<g><path style="opacity:1" fill="#d67d48" d="M 255.5,137.5 C 261.98,153.692 262.147,170.025 256,186.5C 249.179,201.149 239.013,212.816 225.5,221.5C 222.372,222.632 219.038,223.465 215.5,224C 189.982,228.383 168.482,221.216 151,202.5C 142.669,190.844 138.835,177.844 139.5,163.5C 156.167,165.593 172.834,167.426 189.5,169C 191.624,167.878 193.457,166.378 195,164.5C 199.667,158.5 204.333,152.5 209,146.5C 218.198,150.175 227.698,152.342 237.5,153C 243.372,147.624 249.372,142.457 255.5,137.5 Z"/></g>
<g><path style="opacity:1" fill="#c56b34" d="M 393.5,194.5 C 402.552,194.807 411.552,194.307 420.5,193C 446.025,187.638 462.359,172.472 469.5,147.5C 467.833,147.5 466.167,147.5 464.5,147.5C 474.956,145.791 485.623,144.791 496.5,144.5C 494.907,177.585 477.907,197.085 445.5,203C 427.087,205.86 409.754,203.027 393.5,194.5 Z"/></g>
<g><path style="opacity:1" fill="#a95b2b" d="M 394.5,281.5 C 392.226,286.383 390.226,291.383 388.5,296.5C 386.358,296.69 384.025,296.856 381.5,297C 380.069,297.465 378.903,298.299 378,299.5C 372.257,312.65 366.257,325.65 360,338.5C 356.32,342.228 352.153,343.228 347.5,341.5C 350.027,339.49 351.861,336.823 353,333.5C 368.071,298.12 383.237,262.787 398.5,227.5C 397.62,224.542 395.62,222.709 392.5,222C 387.146,220.238 381.979,218.072 377,215.5C 376.617,216.056 376.117,216.389 375.5,216.5C 376.232,212.304 377.565,208.304 379.5,204.5C 390.218,210.407 401.552,214.74 413.5,217.5C 405.667,235.167 397.833,252.833 390,270.5C 389.083,275.268 390.583,278.935 394.5,281.5 Z"/></g>
<g><path style="opacity:1" fill="#c56b34" d="M 347.5,341.5 C 345.496,340.327 343.996,338.66 343,336.5C 342.333,332.5 342.333,328.5 343,324.5C 353.542,288.377 364.375,252.377 375.5,216.5C 376.117,216.389 376.617,216.056 377,215.5C 381.979,218.072 387.146,220.238 392.5,222C 395.62,222.709 397.62,224.542 398.5,227.5C 383.237,262.787 368.071,298.12 353,333.5C 351.861,336.823 350.027,339.49 347.5,341.5 Z"/></g>
<g><path style="opacity:0.964" fill="#020100" d="M 179.5,412.5 C 182.251,409.563 185.585,408.396 189.5,409C 208.001,420.083 226.334,431.416 244.5,443C 249.357,445.21 254.024,444.877 258.5,442C 259.252,441.329 259.586,440.496 259.5,439.5C 260.638,436.696 260.805,433.696 260,430.5C 257.203,426.701 254.036,423.201 250.5,420C 219.833,395.333 189.167,370.667 158.5,346C 157.216,345.316 156.049,345.483 155,346.5C 150.054,356.778 143.554,365.944 135.5,374C 138.691,376.426 142.025,378.593 145.5,380.5C 152.021,384.686 158.521,389.019 165,393.5C 166.54,396.721 166.707,400.054 165.5,403.5C 162.076,406.111 158.409,406.611 154.5,405C 144.167,398.5 133.833,392 123.5,385.5C 84.4407,412.303 48.6074,408.637 16,374.5C 12.7533,370.341 9.75334,366.008 7,361.5C 6.24501,358.697 6.57834,356.03 8,353.5C 11.2534,351.457 14.4201,349.29 17.5,347C 8.68341,336.533 2.68341,324.7 -0.5,311.5C -0.5,303.833 -0.5,296.167 -0.5,288.5C 7.98478,255.195 29.4848,237.861 64,236.5C 74.1472,236.356 83.8138,238.356 93,242.5C 93.3753,238.332 94.3753,234.332 96,230.5C 97.722,228.556 99.8887,227.556 102.5,227.5C 124.581,231.782 142.415,242.782 156,260.5C 163.885,272.825 167.719,286.325 167.5,301C 167.166,310.996 165.999,320.83 164,330.5C 195.878,356.713 228.044,382.546 260.5,408C 268.05,413.535 273.217,420.702 276,429.5C 277.16,451.671 266.66,461.504 244.5,459C 239.611,457.557 234.945,455.557 230.5,453C 215.433,442.938 200.1,433.271 184.5,424C 180.095,421.422 178.428,417.589 179.5,412.5 Z"/></g>
<g><path style="opacity:1" fill="#a85a2b" d="M 280.5,365.5 C 270.656,326.126 260.49,286.793 250,247.5C 248.982,244.317 246.815,242.984 243.5,243.5C 237.522,244.995 231.522,246.495 225.5,248C 224.748,248.671 224.414,249.504 224.5,250.5C 222.562,246.875 220.895,243.041 219.5,239C 231.175,236.408 242.508,232.575 253.5,227.5C 264.931,267.214 275.764,307.214 286,347.5C 286.667,351.5 286.667,355.5 286,359.5C 285.008,362.323 283.175,364.323 280.5,365.5 Z"/></g>
<g><path style="opacity:1" fill="#c66c34" d="M 280.5,365.5 C 272.486,366.002 267.319,362.335 265,354.5C 251.21,319.924 237.71,285.257 224.5,250.5C 224.414,249.504 224.748,248.671 225.5,248C 231.522,246.495 237.522,244.995 243.5,243.5C 246.815,242.984 248.982,244.317 250,247.5C 260.49,286.793 270.656,326.126 280.5,365.5 Z"/></g>
<g><path style="opacity:1" fill="#c56b34" d="M 129.5,357.5 C 132.953,347.286 134.953,336.786 135.5,326C 135.083,302.329 124.916,284.163 105,271.5C 104.617,272.056 104.117,272.389 103.5,272.5C 104.942,263.514 106.276,254.514 107.5,245.5C 137.978,254.467 152.812,274.801 152,306.5C 149.889,326.04 142.389,343.04 129.5,357.5 Z"/></g>
<g><path style="opacity:1" fill="#f8b857" d="M 87.5,276.5 C 61.076,267.15 38.2427,272.483 19,292.5C 16.051,295.95 14.8843,299.95 15.5,304.5C 13.934,278.203 25.934,261.037 51.5,253C 64.1771,251.419 76.5104,252.752 88.5,257C 89.5156,257.519 90.1822,258.353 90.5,259.5C 89.591,265.201 88.591,270.867 87.5,276.5 Z"/></g>
<g><path style="opacity:1" fill="#fdd571" d="M 87.5,276.5 C 87.0192,279.522 86.3525,282.522 85.5,285.5C 77.8719,288.432 70.2052,291.265 62.5,294C 60.714,294.785 59.214,295.951 58,297.5C 56.8811,307.419 56.0478,317.419 55.5,327.5C 47.5862,331.706 39.7529,336.04 32,340.5C 22.4236,330.348 16.9236,318.348 15.5,304.5C 14.8843,299.95 16.051,295.95 19,292.5C 38.2427,272.483 61.076,267.15 87.5,276.5 Z"/></g>
<g><path style="opacity:1" fill="#d67d48" d="M 129.5,357.5 C 111.737,380.544 88.4039,390.044 59.5,386C 45.633,381.136 34.2997,372.803 25.5,361C 40.7408,353.132 55.5741,344.632 70,335.5C 71.117,325.915 71.9504,316.248 72.5,306.5C 81.0709,303.296 89.5709,299.963 98,296.5C 98.6667,295.167 99.3333,293.833 100,292.5C 100.85,285.733 102.016,279.066 103.5,272.5C 104.117,272.389 104.617,272.056 105,271.5C 124.916,284.163 135.083,302.329 135.5,326C 134.953,336.786 132.953,347.286 129.5,357.5 Z"/></g>
<g><path style="opacity:1" fill="#a95b2b" d="M 259.5,439.5 C 227.708,414.213 196.041,388.713 164.5,363C 162.956,361.813 161.289,361.48 159.5,362C 153.965,367.599 149.298,373.765 145.5,380.5C 142.025,378.593 138.691,376.426 135.5,374C 143.554,365.944 150.054,356.778 155,346.5C 156.049,345.483 157.216,345.316 158.5,346C 189.167,370.667 219.833,395.333 250.5,420C 254.036,423.201 257.203,426.701 260,430.5C 260.805,433.696 260.638,436.696 259.5,439.5 Z"/></g>
<g><path style="opacity:0.998" fill="#c66c34" d="M 259.5,439.5 C 259.586,440.496 259.252,441.329 258.5,442C 254.024,444.877 249.357,445.21 244.5,443C 226.334,431.416 208.001,420.083 189.5,409C 185.585,408.396 182.251,409.563 179.5,412.5C 175.181,409.004 170.515,406.004 165.5,403.5C 166.707,400.054 166.54,396.721 165,393.5C 158.521,389.019 152.021,384.686 145.5,380.5C 149.298,373.765 153.965,367.599 159.5,362C 161.289,361.48 162.956,361.813 164.5,363C 196.041,388.713 227.708,414.213 259.5,439.5 Z"/></g>
</svg>
