<?xml version="1.0" encoding="UTF-8"?>
<!DOCTYPE svg PUBLIC "-//W3C//DTD SVG 1.1//EN" "http://www.w3.org/Graphics/SVG/1.1/DTD/svg11.dtd">
<svg xmlns="http://www.w3.org/2000/svg" version="1.1" width="512px" height="512px" style="shape-rendering:geometricPrecision; text-rendering:geometricPrecision; image-rendering:optimizeQuality; fill-rule:evenodd; clip-rule:evenodd" xmlns:xlink="http://www.w3.org/1999/xlink">
<g><path style="opacity:0.978" fill="#010100" d="M 511.5,324.5 C 511.5,335.833 511.5,347.167 511.5,358.5C 503.288,414.523 474.955,457.023 426.5,486C 388.196,505.454 348.196,509.787 306.5,499C 266.144,489.498 231.478,470.164 202.5,441C 139.761,439.545 88.5946,414.712 49,366.5C 20.8423,329.868 4.34234,288.535 -0.5,242.5C -0.5,228.5 -0.5,214.5 -0.5,200.5C 5.40386,141.859 30.0705,92.6921 73.5,53C 132.054,6.58777 196.054,-2.41223 265.5,26C 281.945,33.9654 297.111,43.7987 311,55.5C 316.755,38.8191 325.922,24.3191 338.5,12C 345.007,7.02298 351.674,6.68965 358.5,11C 366.449,17.6167 372.949,25.45 378,34.5C 381.549,40.9297 384.549,47.5964 387,54.5C 400.529,47.7005 414.862,43.7005 430,42.5C 445.379,42.2117 452.546,49.7117 451.5,65C 450.512,80.7975 446.179,95.6308 438.5,109.5C 452.135,115.305 463.968,123.639 474,134.5C 478.667,141.5 478.667,148.5 474,155.5C 465.684,164.904 455.851,172.237 444.5,177.5C 454.286,185.45 462.452,194.783 469,205.5C 491.715,242.234 505.882,281.9 511.5,324.5 Z"/></g>
<g><path style="opacity:1" fill="#785447" d="M 172.5,27.5 C 246.826,25.4048 302.993,56.0715 341,119.5C 346.584,130.167 351.751,141 356.5,152C 285.958,161.01 230.792,194.843 191,253.5C 174.184,279.615 164.351,308.115 161.5,339C 161.305,369.746 170.305,397.413 188.5,422C 150.193,419.678 116.526,406.011 87.5,381C 34.1666,330.688 10.9999,268.855 18,195.5C 26.1115,132.397 56.6115,83.5638 109.5,49C 129.255,37.7692 150.255,30.6025 172.5,27.5 Z"/></g>
<g><path style="opacity:1" fill="#89c049" d="M 348.5,26.5 C 361.241,37.9535 369.407,52.2868 373,69.5C 376.365,91.3757 374.365,112.709 367,133.5C 357.236,110.753 343.902,90.4198 327,72.5C 326.795,63.9875 328.795,55.9875 333,48.5C 337.438,40.6116 342.605,33.2783 348.5,26.5 Z"/></g>
<g><path style="opacity:1" fill="#020101" d="M 171.5,61.5 C 186.496,59.7821 199.329,64.1155 210,74.5C 217.388,89.6696 213.555,101.17 198.5,109C 184.481,114.244 170.814,113.578 157.5,107C 145.832,98.8264 142.999,88.3264 149,75.5C 155.08,68.3852 162.58,63.7185 171.5,61.5 Z"/></g>
<g><path style="opacity:1" fill="#53882f" d="M 387.5,127.5 C 387.435,127.938 387.601,128.272 388,128.5C 405.535,110.408 415.035,88.7415 416.5,63.5C 415.167,63.5 413.833,63.5 412.5,63.5C 419.147,61.0212 426.147,60.0212 433.5,60.5C 433.406,80.6161 427.239,98.6161 415,114.5C 405.569,125.266 394.902,134.599 383,142.5C 383.599,137.206 385.099,132.206 387.5,127.5 Z"/></g>
<g><path style="opacity:1" fill="#88bf48" d="M 412.5,63.5 C 413.833,63.5 415.167,63.5 416.5,63.5C 415.035,88.7415 405.535,110.408 388,128.5C 387.601,128.272 387.435,127.938 387.5,127.5C 391.132,109.316 392.299,90.9829 391,72.5C 397.461,67.8454 404.628,64.8454 412.5,63.5 Z"/></g>
<g><path style="opacity:1" fill="#4c322d" d="M 175.5,78.5 C 183.142,77.924 189.975,79.924 196,84.5C 196.268,90.2551 193.435,93.7551 187.5,95C 178.938,96.7522 171.105,95.2522 164,90.5C 161.759,86.881 162.592,84.0477 166.5,82C 169.571,80.7043 172.571,79.5377 175.5,78.5 Z"/></g>
<g><path style="opacity:1" fill="#030101" d="M 83.5,104.5 C 90.9852,104.483 94.4852,108.15 94,115.5C 90.3679,120.134 86.3679,124.467 82,128.5C 72.8146,142.401 68.1479,157.734 68,174.5C 66.5349,180.653 62.7016,182.82 56.5,181C 54.3333,180.167 52.8333,178.667 52,176.5C 50.3788,154.701 56.0455,135.034 69,117.5C 73.4319,112.56 78.2653,108.227 83.5,104.5 Z"/></g>
<g><path style="opacity:1" fill="#020101" d="M 220.5,113.5 C 235.346,111.395 248.179,115.395 259,125.5C 267.703,143.947 262.203,156.447 242.5,163C 226.214,167.553 212.047,164.053 200,152.5C 192.799,140.736 194.299,130.236 204.5,121C 209.542,117.643 214.876,115.143 220.5,113.5 Z"/></g>
<g><path style="opacity:1" fill="#020101" d="M 135.5,119.5 C 147.409,118.196 158.409,120.696 168.5,127C 178.274,135.694 180.108,145.86 174,157.5C 163.272,168.997 150.105,173.163 134.5,170C 117.313,166.835 109.147,156.668 110,139.5C 115.147,128.516 123.647,121.849 135.5,119.5 Z"/></g>
<g><path style="opacity:1" fill="#53872e" d="M 422.5,164.5 C 431.606,160.278 438.606,153.778 443.5,145C 439.684,137.351 434.018,131.518 426.5,127.5C 426.866,126.305 427.699,125.639 429,125.5C 440.728,129.611 450.895,136.111 459.5,145C 449.401,156.377 437.068,162.877 422.5,164.5 Z"/></g>
<g><path style="opacity:1" fill="#88c048" d="M 426.5,127.5 C 434.018,131.518 439.684,137.351 443.5,145C 438.606,153.778 431.606,160.278 422.5,164.5C 413.581,161.028 404.581,157.861 395.5,155C 406.647,146.682 416.981,137.515 426.5,127.5 Z"/></g>
<g><path style="opacity:1" fill="#4c322c" d="M 222.5,130.5 C 229.01,130.07 235.344,130.903 241.5,133C 245.665,134.483 247.165,137.316 246,141.5C 237.149,147.82 227.649,148.987 217.5,145C 216.315,143.647 214.981,142.48 213.5,141.5C 212.515,139.902 212.349,138.235 213,136.5C 215.843,133.837 219.009,131.837 222.5,130.5 Z"/></g>
<g><path style="opacity:1" fill="#4c322c" d="M 138.5,136.5 C 146.615,135.375 153.781,137.375 160,142.5C 160.667,144.167 160.667,145.833 160,147.5C 157.374,150.231 154.207,152.064 150.5,153C 142.262,154.72 134.762,153.22 128,148.5C 125.759,144.881 126.592,142.048 130.5,140C 133.158,138.522 135.825,137.355 138.5,136.5 Z"/></g>
<g><path style="opacity:1" fill="#cad3d7" d="M 396.5,173.5 C 427.504,190.8 445.671,217.134 451,252.5C 453.356,278.677 449.023,303.677 438,327.5C 415.032,373.967 380.532,408.967 334.5,432.5C 311.237,440.724 287.237,443.89 262.5,442C 208.871,430.707 180.871,397.707 178.5,343C 180.772,312.184 190.605,284.018 208,258.5C 238.972,214.249 280.805,185.749 333.5,173C 354.627,168.235 375.627,168.401 396.5,173.5 Z"/></g>
<g><path style="opacity:1" fill="#5f7c8a" d="M 396.5,173.5 C 438.842,185.68 462.675,213.68 468,257.5C 468.997,287.177 461.997,314.843 447,340.5C 425.637,375.197 397.137,402.364 361.5,422C 352.897,426.589 343.897,430.089 334.5,432.5C 380.532,408.967 415.032,373.967 438,327.5C 449.023,303.677 453.356,278.677 451,252.5C 445.671,217.134 427.504,190.8 396.5,173.5 Z"/></g>
<g><path style="opacity:1" fill="#030303" d="M 347.5,187.5 C 366.652,185.845 385.318,188.012 403.5,194C 434.883,208.23 450.55,232.73 450.5,267.5C 448.774,296.179 439.608,322.179 423,345.5C 391.229,390.234 348.062,416.401 293.5,424C 262.453,428.318 235.953,419.485 214,397.5C 195.945,372.982 191.279,345.982 200,316.5C 221.199,254.968 262.699,213.801 324.5,193C 332.291,191.155 339.957,189.321 347.5,187.5 Z"/></g>
<g><path style="opacity:1" fill="#f4f4f4" d="M 358.5,203.5 C 383.789,201.538 404.956,209.871 422,228.5C 433.4,245.6 436.734,264.267 432,284.5C 427.859,301.26 421.193,316.926 412,331.5C 411.261,332.574 410.261,333.241 409,333.5C 385.252,327.081 361.419,326.915 337.5,333C 303.784,340.772 274.951,356.939 251,381.5C 247.334,386.162 244.167,391.162 241.5,396.5C 240.998,397.521 240.332,397.688 239.5,397C 224.525,387.23 216.025,373.397 214,355.5C 211.661,330.523 217.328,307.523 231,286.5C 260.761,239.234 303.261,211.568 358.5,203.5 Z"/></g>
<g><path style="opacity:1" fill="#020101" d="M 49.5,233.5 C 53.548,233.441 56.7146,235.108 59,238.5C 62.845,273.739 76.1783,304.739 99,331.5C 104.738,337.908 111.071,343.575 118,348.5C 121.794,358.028 118.627,362.528 108.5,362C 81.6522,342.132 62.8189,316.298 52,284.5C 47.1629,269.798 44.1629,254.798 43,239.5C 44.4361,236.558 46.6028,234.558 49.5,233.5 Z"/></g>
<g><path style="opacity:1" fill="#4d332d" d="M 393.5,479.5 C 445.83,449.562 473.83,404.229 477.5,343.5C 477.347,337.656 477.013,331.822 476.5,326C 476.453,323.705 475.787,321.871 474.5,320.5C 478.763,308.783 482.097,296.783 484.5,284.5C 503.065,338.722 495.231,388.722 461,434.5C 443.239,456.629 420.739,471.629 393.5,479.5 Z"/></g>
<g><path style="opacity:1" fill="#785447" d="M 474.5,320.5 C 475.787,321.871 476.453,323.705 476.5,326C 477.013,331.822 477.347,337.656 477.5,343.5C 473.83,404.229 445.83,449.562 393.5,479.5C 369.688,486.932 345.355,488.432 320.5,484C 296.526,479.455 274.193,470.788 253.5,458C 311.765,463.686 363.432,448.02 408.5,411C 438.438,386.571 460.438,356.404 474.5,320.5 Z"/></g>
<g><path style="opacity:1" fill="#ccd5d9" d="M 360.5,345.5 C 369.506,345.334 378.506,345.5 387.5,346C 391.37,346.105 395.037,346.938 398.5,348.5C 364.82,388.337 321.82,408.17 269.5,408C 264.934,407.609 260.601,406.442 256.5,404.5C 260.601,396.151 266.267,388.985 273.5,383C 299.287,363.016 328.287,350.516 360.5,345.5 Z"/></g>
</svg>
