<?xml version="1.0" encoding="UTF-8"?>
<!DOCTYPE svg PUBLIC "-//W3C//DTD SVG 1.1//EN" "http://www.w3.org/Graphics/SVG/1.1/DTD/svg11.dtd">
<svg xmlns="http://www.w3.org/2000/svg" version="1.1" width="512px" height="512px" style="shape-rendering:geometricPrecision; text-rendering:geometricPrecision; image-rendering:optimizeQuality; fill-rule:evenodd; clip-rule:evenodd" xmlns:xlink="http://www.w3.org/1999/xlink">
<g><path style="opacity:0.987" fill="#020301" d="M 237.5,-0.5 C 249.167,-0.5 260.833,-0.5 272.5,-0.5C 340.895,10.7204 384.728,49.7204 404,116.5C 410.685,148.436 408.185,179.603 396.5,210C 461.855,230.847 500.188,275.013 511.5,342.5C 511.5,353.833 511.5,365.167 511.5,376.5C 504.337,427.002 479.003,465.502 435.5,492C 416.935,502.244 397.268,508.744 376.5,511.5C 365.167,511.5 353.833,511.5 342.5,511.5C 321.732,508.744 302.065,502.244 283.5,492C 279.886,489.056 278.553,485.223 279.5,480.5C 281.539,478.147 284.206,476.813 287.5,476.5C 295.596,479.713 303.596,483.213 311.5,487C 353.39,501.738 393.39,497.738 431.5,475C 432.711,474.107 432.711,473.274 431.5,472.5C 427.472,470.155 423.472,467.822 419.5,465.5C 406.807,457.316 394.807,448.149 383.5,438C 380.655,438.049 377.822,438.549 375,439.5C 370.266,438.933 367.766,436.266 367.5,431.5C 367.556,428.889 368.556,426.722 370.5,425C 339.877,389.92 319.71,349.42 310,303.5C 306.744,287.3 304.577,270.967 303.5,254.5C 303.83,248.132 303.496,241.798 302.5,235.5C 301.893,235.624 301.56,235.957 301.5,236.5C 288.717,242.548 277.384,250.548 267.5,260.5C 299.798,301.414 310.465,347.414 299.5,398.5C 302.196,397.149 304.53,395.316 306.5,393C 317,390.167 320.833,394 318,404.5C 314.098,407.868 309.931,410.868 305.5,413.5C 311.176,418.327 317.509,422.16 324.5,425C 328.379,429.298 328.379,433.631 324.5,438C 321.923,439.25 319.257,439.584 316.5,439C 307.165,434.487 298.498,428.987 290.5,422.5C 285.352,432.126 279.685,441.459 273.5,450.5C 269.262,455.309 265.262,460.309 261.5,465.5C 235.715,491.225 204.715,506.559 168.5,511.5C 157.167,511.5 145.833,511.5 134.5,511.5C 74.791,502.385 32.9577,470.052 9,414.5C 4.70532,402.318 1.53865,389.985 -0.5,377.5C -0.5,365.5 -0.5,353.5 -0.5,341.5C 8.90814,282.203 41.2415,240.703 96.5,217C 105.116,214.181 113.783,211.681 122.5,209.5C 173.014,202.123 217.347,215.123 255.5,248.5C 260.486,244.845 265.153,240.845 269.5,236.5C 265.812,232.146 261.812,228.146 257.5,224.5C 220.743,180.954 199.243,130.621 193,73.5C 191.966,59.519 191.299,45.519 191,31.5C 167.065,44.4337 148.899,62.9337 136.5,87C 137.942,92.4887 139.275,97.9887 140.5,103.5C 145.127,103.427 149.46,102.26 153.5,100C 157.419,96.107 161.085,92.107 164.5,88C 174.048,87.2534 177.215,91.4201 174,100.5C 167.995,110.673 159.162,116.673 147.5,118.5C 152.706,133.413 160.373,146.913 170.5,159C 172.833,159.667 175.167,159.667 177.5,159C 182.038,156.437 186.538,153.937 191,151.5C 198.815,152.793 201.148,157.127 198,164.5C 194.098,167.868 189.931,170.868 185.5,173.5C 191.911,178.458 198.744,182.791 206,186.5C 208.289,191.226 207.455,195.226 203.5,198.5C 201.218,199.39 198.885,199.556 196.5,199C 192.78,197.14 189.114,195.307 185.5,193.5C 165.227,180.058 149.727,162.391 139,140.5C 134.464,130.548 130.131,120.548 126,110.5C 119.966,127.322 117.966,144.655 120,162.5C 121.519,170.789 122.186,179.122 122,187.5C 120.568,189.439 118.735,190.772 116.5,191.5C 112.112,192.057 108.945,190.39 107,186.5C 94.3679,117.026 116.868,62.1924 174.5,22C 194.074,10.1998 215.074,2.6998 237.5,-0.5 Z"/></g>
<g><path style="opacity:1" fill="#aed678" d="M 241.5,15.5 C 271.967,13.2588 300.3,19.9255 326.5,35.5C 324.725,51.7204 318.058,65.7204 306.5,77.5C 290.971,54.7991 270.971,37.2991 246.5,25C 240.388,22.8534 234.388,20.52 228.5,18C 232.988,17.2398 237.322,16.4065 241.5,15.5 Z"/></g>
<g><path style="opacity:1" fill="#afd879" d="M 207.5,31.5 C 224.143,32.77 239.477,37.9367 253.5,47C 270.083,58.1763 283.749,72.1763 294.5,89C 291.196,92.6328 287.529,95.9662 283.5,99C 264.228,112.26 243.228,121.76 220.5,127.5C 211.5,96.1662 207.167,64.1662 207.5,31.5 Z"/></g>
<g><path style="opacity:1" fill="#aed778" d="M 257.5,224.5 C 257.585,225.995 256.919,226.995 255.5,227.5C 240.193,215.762 223.36,206.762 205,200.5C 203.97,200.164 203.47,199.497 203.5,198.5C 207.455,195.226 208.289,191.226 206,186.5C 198.744,182.791 191.911,178.458 185.5,173.5C 189.931,170.868 194.098,167.868 198,164.5C 201.148,157.127 198.815,152.793 191,151.5C 186.538,153.937 182.038,156.437 177.5,159C 175.167,159.667 172.833,159.667 170.5,159C 160.373,146.913 152.706,133.413 147.5,118.5C 159.162,116.673 167.995,110.673 174,100.5C 177.215,91.4201 174.048,87.2534 164.5,88C 161.085,92.107 157.419,96.107 153.5,100C 149.46,102.26 145.127,103.427 140.5,103.5C 139.275,97.9887 137.942,92.4887 136.5,87C 148.899,62.9337 167.065,44.4337 191,31.5C 191.299,45.519 191.966,59.519 193,73.5C 199.243,130.621 220.743,180.954 257.5,224.5 Z"/></g>
<g><path style="opacity:1" fill="#afd778" d="M 384.5,193.5 C 368.71,191.645 353.044,190.978 337.5,191.5C 344.13,187.895 345.13,183.061 340.5,177C 338.722,176.296 336.888,175.796 335,175.5C 329.142,178.338 322.975,179.505 316.5,179C 324.017,170.794 330.684,161.961 336.5,152.5C 349.273,153.052 360.939,149.885 371.5,143C 375.414,139.431 376.247,135.264 374,130.5C 372.033,128.73 369.7,127.73 367,127.5C 362.538,129.937 358.038,132.437 353.5,135C 351.167,135.667 348.833,135.667 346.5,135C 352.873,124.207 357.04,112.707 359,100.5C 357.434,97.1874 354.767,95.5208 351,95.5C 348.594,95.7029 346.594,96.7029 345,98.5C 328.932,142.643 301.765,178.31 263.5,205.5C 247.631,187.121 235.298,166.454 226.5,143.5C 262.236,133.223 293.069,114.89 319,88.5C 329.621,76.1884 337.288,62.1884 342,46.5C 386.775,86.5939 400.942,135.594 384.5,193.5 Z"/></g>
<g><path style="opacity:1" fill="#aed678" d="M 185.5,193.5 C 184.551,194.152 183.385,194.486 182,194.5C 160.509,190.726 139.009,190.726 117.5,194.5C 116.89,193.609 116.557,192.609 116.5,191.5C 118.735,190.772 120.568,189.439 122,187.5C 122.186,179.122 121.519,170.789 120,162.5C 117.966,144.655 119.966,127.322 126,110.5C 130.131,120.548 134.464,130.548 139,140.5C 149.727,162.391 165.227,180.058 185.5,193.5 Z"/></g>
<g><path style="opacity:1" fill="#94bd5a" d="M 185.5,193.5 C 189.114,195.307 192.78,197.14 196.5,199C 198.885,199.556 201.218,199.39 203.5,198.5C 203.47,199.497 203.97,200.164 205,200.5C 223.36,206.762 240.193,215.762 255.5,227.5C 256.919,226.995 257.585,225.995 257.5,224.5C 261.812,228.146 265.812,232.146 269.5,236.5C 265.153,240.845 260.486,244.845 255.5,248.5C 217.347,215.123 173.014,202.123 122.5,209.5C 120.636,204.574 118.969,199.574 117.5,194.5C 139.009,190.726 160.509,190.726 182,194.5C 183.385,194.486 184.551,194.152 185.5,193.5 Z"/></g>
<g><path style="opacity:1" fill="#94bc5a" d="M 337.5,191.5 C 353.044,190.978 368.71,191.645 384.5,193.5C 383.235,198.295 381.568,202.962 379.5,207.5C 367.534,207.63 355.534,207.797 343.5,208C 322.48,210.516 302.813,217.016 284.5,227.5C 280.544,225.212 277.211,222.212 274.5,218.5C 278.974,213.773 283.974,209.773 289.5,206.5C 299.703,202.212 310.036,198.545 320.5,195.5C 326.274,194.64 331.941,193.306 337.5,191.5 Z"/></g>
<g><path style="opacity:1" fill="#add576" d="M 320.5,195.5 C 310.036,198.545 299.703,202.212 289.5,206.5C 294.454,201.883 299.454,197.216 304.5,192.5C 309.594,194.773 314.927,195.773 320.5,195.5 Z"/></g>
<g><path style="opacity:1" fill="#aed678" d="M 136.5,223.5 C 167.252,221.355 195.919,228.022 222.5,243.5C 220.725,259.72 214.058,273.72 202.5,285.5C 186.971,262.799 166.971,245.299 142.5,233C 136.46,230.642 130.46,228.309 124.5,226C 128.665,225.295 132.665,224.461 136.5,223.5 Z"/></g>
<g><path style="opacity:1" fill="#aed678" d="M 344.5,223.5 C 375.252,221.355 403.919,228.022 430.5,243.5C 428.955,259.934 422.455,274.267 411,286.5C 393.084,260.743 370.917,239.743 344.5,223.5 Z"/></g>
<g><path style="opacity:1" fill="#afd879" d="M 321.5,233.5 C 344.528,241.105 364.028,254.105 380,272.5C 387.23,280.63 393.73,289.297 399.5,298.5C 383.389,313.069 365.055,324.236 344.5,332C 341.57,333.318 338.57,333.985 335.5,334C 325.614,306.402 320.281,277.902 319.5,248.5C 318.892,243.056 319.558,238.056 321.5,233.5 Z"/></g>
<g><path style="opacity:1" fill="#3a4828" d="M 321.5,233.5 C 319.558,238.056 318.892,243.056 319.5,248.5C 318.512,243.36 318.179,238.026 318.5,232.5C 319.791,232.263 320.791,232.596 321.5,233.5 Z"/></g>
<g><path style="opacity:1" fill="#afd878" d="M 301.5,236.5 C 302.167,242.5 302.833,248.5 303.5,254.5C 304.577,270.967 306.744,287.3 310,303.5C 319.71,349.42 339.877,389.92 370.5,425C 368.556,426.722 367.556,428.889 367.5,431.5C 367.766,436.266 370.266,438.933 375,439.5C 377.822,438.549 380.655,438.049 383.5,438C 394.807,448.149 406.807,457.316 419.5,465.5C 395.666,477.419 370.333,481.919 343.5,479C 317.43,475.785 294.097,466.285 273.5,450.5C 279.685,441.459 285.352,432.126 290.5,422.5C 298.498,428.987 307.165,434.487 316.5,439C 319.257,439.584 321.923,439.25 324.5,438C 328.379,433.631 328.379,429.298 324.5,425C 317.509,422.16 311.176,418.327 305.5,413.5C 309.931,410.868 314.098,407.868 318,404.5C 320.833,394 317,390.167 306.5,393C 304.53,395.316 302.196,397.149 299.5,398.5C 310.465,347.414 299.798,301.414 267.5,260.5C 277.384,250.548 288.717,242.548 301.5,236.5 Z"/></g>
<g><path style="opacity:1" fill="#afd879" d="M 103.5,239.5 C 120.143,240.77 135.477,245.937 149.5,255C 166.083,266.176 179.749,280.176 190.5,297C 187.196,300.633 183.529,303.966 179.5,307C 160.228,320.26 139.228,329.76 116.5,335.5C 107.13,304.238 102.796,272.238 103.5,239.5 Z"/></g>
<g><path style="opacity:1" fill="#afd778" d="M 198.5,470.5 C 146.336,488.102 99.0023,479.268 56.5,444C 42.4999,430.742 30.8332,415.909 21.5,399.5C 14.0959,374.355 13.5959,349.022 20,323.5C 21.7545,317.23 24.0878,311.23 27,305.5C 32.9779,343.803 47.3112,378.47 70,409.5C 80.8402,422.016 93.6735,431.849 108.5,439C 118.034,439.769 121.2,435.602 118,426.5C 110.744,422.791 103.911,418.458 97.5,413.5C 101.931,410.868 106.098,407.868 110,404.5C 113.148,397.127 110.815,392.793 103,391.5C 98.538,393.937 94.038,396.437 89.5,399C 87.1667,399.667 84.8333,399.667 82.5,399C 72.3725,386.913 64.7059,373.413 59.5,358.5C 71.1617,356.673 79.995,350.673 86,340.5C 89.2149,331.42 86.0482,327.253 76.5,328C 73.0852,332.107 69.4185,336.107 65.5,340C 61.4604,342.26 57.1271,343.427 52.5,343.5C 47.2048,326.528 43.3715,309.194 41,291.5C 40.3333,287.833 40.3333,284.167 41,280.5C 53.5009,263.666 68.8342,250 87,239.5C 85.723,297.73 100.056,351.73 130,401.5C 148.36,429.027 171.194,452.027 198.5,470.5 Z"/></g>
<g><path style="opacity:1" fill="#7c9955" d="M 301.5,236.5 C 301.56,235.957 301.893,235.624 302.5,235.5C 303.496,241.798 303.83,248.132 303.5,254.5C 302.833,248.5 302.167,242.5 301.5,236.5 Z"/></g>
<g><path style="opacity:1" fill="#afd879" d="M 280.5,400.5 C 267.939,424.233 250.272,443.4 227.5,458C 224.46,460.22 221.127,461.72 217.5,462.5C 203.275,454.789 190.275,445.289 178.5,434C 186.016,428.407 193.349,422.574 200.5,416.5C 213.676,421.346 226.176,420.013 238,412.5C 241.159,405.149 238.825,400.816 231,399.5C 225.142,402.338 218.975,403.505 212.5,403C 220.264,394.572 227.264,385.572 233.5,376C 247.412,377.297 259.578,373.463 270,364.5C 273.215,355.42 270.048,351.253 260.5,352C 257.341,355.082 253.675,357.416 249.5,359C 247.167,359.667 244.833,359.667 242.5,359C 247.623,349.586 251.789,339.753 255,329.5C 256.131,323.462 253.631,320.129 247.5,319.5C 245.063,319.598 243.063,320.598 241.5,322.5C 227.15,363.678 202.317,397.011 167,422.5C 147.044,401.552 132.544,377.552 123.5,350.5C 159.054,340.816 189.554,322.816 215,296.5C 225.621,284.188 233.288,270.188 238,254.5C 282.632,294.37 296.799,343.037 280.5,400.5 Z"/></g>
<g><path style="opacity:1" fill="#afd878" d="M 488.5,400.5 C 476.375,423.96 459.041,442.627 436.5,456.5C 421.48,448.647 407.813,438.813 395.5,427C 399.689,423.31 404.022,419.81 408.5,416.5C 420.822,420.95 432.822,420.117 444.5,414C 448.5,409.667 448.5,405.333 444.5,401C 442.722,400.296 440.888,399.796 439,399.5C 433.142,402.338 426.975,403.505 420.5,403C 428.264,394.572 435.264,385.572 441.5,376C 455.412,377.297 467.578,373.463 478,364.5C 481.215,355.42 478.048,351.253 468.5,352C 465.341,355.082 461.675,357.416 457.5,359C 455.167,359.667 452.833,359.667 450.5,359C 455.623,349.586 459.789,339.753 463,329.5C 464.131,323.462 461.631,320.129 455.5,319.5C 453.063,319.598 451.063,320.598 449.5,322.5C 436.473,359.561 414.806,390.561 384.5,415.5C 365.946,396.754 351.613,375.087 341.5,350.5C 373.943,339.861 401.443,321.861 424,296.5C 433.942,283.952 441.276,269.952 446,254.5C 490.632,294.37 504.799,343.037 488.5,400.5 Z"/></g>
<g><path style="opacity:1" fill="#93bb59" d="M 280.5,400.5 C 271.88,429.437 255.213,452.437 230.5,469.5C 225.663,467.918 221.33,465.585 217.5,462.5C 221.127,461.72 224.46,460.22 227.5,458C 250.272,443.4 267.939,424.233 280.5,400.5 Z"/></g>
<g><path style="opacity:1" fill="#92ba59" d="M 488.5,400.5 C 481.2,425.45 467.533,446.117 447.5,462.5C 443.611,460.726 439.945,458.726 436.5,456.5C 459.041,442.627 476.375,423.96 488.5,400.5 Z"/></g>
<g><path style="opacity:1" fill="#93bc59" d="M 21.5,399.5 C 30.8332,415.909 42.4999,430.742 56.5,444C 99.0023,479.268 146.336,488.102 198.5,470.5C 203.947,473.44 209.28,476.607 214.5,480C 153.404,507.712 98.9041,498.212 51,451.5C 37.6069,436.252 27.7736,418.919 21.5,399.5 Z"/></g>
<g><path style="opacity:1" fill="#94bc5a" d="M 273.5,450.5 C 294.097,466.285 317.43,475.785 343.5,479C 370.333,481.919 395.666,477.419 419.5,465.5C 423.472,467.822 427.472,470.155 431.5,472.5C 432.711,473.274 432.711,474.107 431.5,475C 393.39,497.738 353.39,501.738 311.5,487C 303.596,483.213 295.596,479.713 287.5,476.5C 284.206,476.813 281.539,478.147 279.5,480.5C 273.131,475.977 267.131,470.977 261.5,465.5C 265.262,460.309 269.262,455.309 273.5,450.5 Z"/></g>
</svg>
