<?xml version="1.0" encoding="UTF-8"?>
<!DOCTYPE svg PUBLIC "-//W3C//DTD SVG 1.1//EN" "http://www.w3.org/Graphics/SVG/1.1/DTD/svg11.dtd">
<svg xmlns="http://www.w3.org/2000/svg" version="1.1" width="512px" height="512px" style="shape-rendering:geometricPrecision; text-rendering:geometricPrecision; image-rendering:optimizeQuality; fill-rule:evenodd; clip-rule:evenodd" xmlns:xlink="http://www.w3.org/1999/xlink">
<g><path style="opacity:0.974" fill="#020201" d="M 511.5,283.5 C 511.5,289.833 511.5,296.167 511.5,302.5C 501.164,369.667 462.164,407.167 394.5,415C 366.395,417.025 338.895,413.859 312,405.5C 307.288,409.921 303.288,414.921 300,420.5C 295.727,428.712 291.727,437.045 288,445.5C 279.21,454.882 268.377,458.215 255.5,455.5C 242.623,458.215 231.79,454.882 223,445.5C 219.606,437.712 215.939,430.045 212,422.5C 210.685,419.508 208.685,417.175 206,415.5C 188.782,420.036 171.782,419.369 155,413.5C 123.81,418.58 93.6429,415.08 64.5,403C 34.9947,387.834 15.4947,364.334 6,332.5C 3.23573,322.83 1.06906,313.163 -0.5,303.5C -0.5,296.833 -0.5,290.167 -0.5,283.5C 2.29302,279.829 5.95968,278.662 10.5,280C 17.2786,288.947 24.9453,297.114 33.5,304.5C 33.8333,304 34.1667,303.5 34.5,303C 25.4269,265.713 36.0936,235.546 66.5,212.5C 57.9873,177.192 68.6539,149.358 98.5,129C 108.121,123.511 118.455,120.345 129.5,119.5C 135.169,99.3264 147.502,84.8264 166.5,76C 170.787,74.5117 175.12,73.1783 179.5,72C 189.931,71.2368 200.264,71.5701 210.5,73C 231.18,54.9319 254.513,50.5986 280.5,60C 293.509,65.993 303.842,74.993 311.5,87C 339.555,88.4093 359.555,101.743 371.5,127C 418.286,134.463 441.119,161.963 440,209.5C 473.739,232.67 486.073,264.337 477,304.5C 485.871,297.296 493.705,289.129 500.5,280C 505.04,278.662 508.707,279.829 511.5,283.5 Z"/></g>
<g><path style="opacity:1" fill="#fef5d7" d="M 207.5,343.5 C 184.006,336.667 163.839,324.333 147,306.5C 118.229,268.946 121.229,234.279 156,202.5C 157.434,198.594 157.767,194.594 157,190.5C 144.511,150.5 153.344,116.166 183.5,87.5C 192.032,85.7776 200.365,86.6109 208.5,90C 212.12,90.8407 215.454,90.174 218.5,88C 230.578,73.9776 245.911,68.3109 264.5,71C 284.998,76.3288 298.165,89.1622 304,109.5C 309.044,113.826 313.378,113.16 317,107.5C 317.49,106.207 317.657,104.873 317.5,103.5C 343.924,107.967 358.257,123.633 360.5,150.5C 360.077,153.657 359.743,156.824 359.5,160C 358.59,165.711 360.923,168.878 366.5,169.5C 372.659,168.553 375.492,164.886 375,158.5C 375.499,153.511 375.666,148.511 375.5,143.5C 402.868,148.701 419.034,165.035 424,192.5C 424.499,196.152 424.665,199.818 424.5,203.5C 418.925,201.936 413.258,201.436 407.5,202C 403.354,206.625 403.687,210.959 408.5,215C 442.373,222.537 461.04,243.537 464.5,278C 464.381,295.7 458.381,311.034 446.5,324C 411.621,338.239 375.288,345.406 337.5,345.5C 338.665,337.176 339.832,328.843 341,320.5C 341.667,315.5 341.667,310.5 341,305.5C 336.304,298.087 330.137,296.587 322.5,301C 311.081,314.742 297.081,325.075 280.5,332C 261.118,340.01 240.952,344.176 220,344.5C 215.752,344.47 211.586,344.136 207.5,343.5 Z"/></g>
<g><path style="opacity:1" fill="#fdebaf" d="M 183.5,87.5 C 153.344,116.166 144.511,150.5 157,190.5C 157.767,194.594 157.434,198.594 156,202.5C 121.229,234.279 118.229,268.946 147,306.5C 163.839,324.333 184.006,336.667 207.5,343.5C 168.606,339.555 136.606,322.722 111.5,293C 104.12,288.735 97.953,289.902 93,296.5C 92.5356,302.529 92.869,308.529 94,314.5C 95.5665,321.5 97.0665,328.5 98.5,335.5C 86.6929,333.098 75.3595,329.265 64.5,324C 47.2068,304.664 42.3734,282.497 50,257.5C 59.4127,235.088 75.9127,220.921 99.5,215C 103.875,209.879 103.209,205.545 97.5,202C 91.9223,201.798 86.589,202.964 81.5,205.5C 75.0227,179.262 83.0227,158.429 105.5,143C 112.639,138.757 120.306,136.257 128.5,135.5C 128.133,139.967 128.633,144.3 130,148.5C 135.044,152.826 139.378,152.16 143,146.5C 140.071,120.853 149.905,102.02 172.5,90C 176.112,88.85 179.778,88.0166 183.5,87.5 Z"/></g>
<g><path style="opacity:1" fill="#060505" d="M 244.5,142.5 C 251.657,142.155 254.824,145.488 254,152.5C 247.721,157.446 242.054,163.112 237,169.5C 232.423,176.556 230.757,184.223 232,192.5C 239.627,197.793 246.294,204.126 252,211.5C 253.833,220.333 250.333,223.833 241.5,222C 226.862,202.286 207.529,195.12 183.5,200.5C 176.892,199.727 174.725,196.06 177,189.5C 179.772,187.239 182.938,185.739 186.5,185C 196.545,182.949 206.545,183.115 216.5,185.5C 219.069,166.679 228.402,152.346 244.5,142.5 Z"/></g>
<g><path style="opacity:1" fill="#070605" d="M 305.5,209.5 C 329.651,216.681 341.651,233.015 341.5,258.5C 350.39,260.364 357.89,264.697 364,271.5C 364.67,279.161 361.17,282.327 353.5,281C 342.584,271.29 330.251,268.956 316.5,274C 312.957,275.608 309.957,277.942 307.5,281C 298.553,285.398 294.386,282.565 295,272.5C 303.271,262.781 313.771,257.448 326.5,256.5C 326.128,239.949 318.128,228.782 302.5,223C 297.949,217.255 298.949,212.755 305.5,209.5 Z"/></g>
<g><path style="opacity:1" fill="#050504" d="M 159.5,250.5 C 163.287,249.814 166.454,250.814 169,253.5C 170.715,276.214 182.881,288.714 205.5,291C 209.41,294.925 209.41,298.925 205.5,303C 185.16,304.743 169.994,296.576 160,278.5C 156.422,270.86 155.089,262.86 156,254.5C 156.69,252.65 157.856,251.316 159.5,250.5 Z"/></g>
<g><path style="opacity:1" fill="#94cb80" d="M 132.5,398.5 C 126.355,399.49 120.022,399.823 113.5,399.5C 60.4233,394.426 28.4233,365.759 17.5,313.5C 17.6667,312.833 17.8333,312.167 18,311.5C 43.0963,332.716 71.9296,346.383 104.5,352.5C 109.775,370.399 119.109,385.732 132.5,398.5 Z"/></g>
<g><path style="opacity:1" fill="#add980" d="M 492.5,311.5 C 487.335,348.214 467.669,374.38 433.5,390C 395.959,403.38 358.292,403.88 320.5,391.5C 325.934,381.966 330.267,371.966 333.5,361.5C 366.479,360.289 398.812,355.122 430.5,346C 448.265,340.116 464.931,332.116 480.5,322C 484.759,318.718 488.759,315.218 492.5,311.5 Z"/></g>
<g><path style="opacity:1" fill="#adda80" d="M 217.5,359.5 C 219.32,363.782 220.986,368.115 222.5,372.5C 216.975,374.26 215.142,377.927 217,383.5C 219.463,386.965 222.296,390.131 225.5,393C 172.374,415.515 136.208,399.681 117,345.5C 113.386,335.05 111.052,324.383 110,313.5C 139.796,342.641 175.629,357.974 217.5,359.5 Z"/></g>
<g><path style="opacity:1" fill="#cae380" d="M 222.5,372.5 C 220.986,368.115 219.32,363.782 217.5,359.5C 255.29,359.403 289.29,348.236 319.5,326C 321.333,324.167 323.167,322.333 325,320.5C 324.419,344.658 317.753,366.992 305,387.5C 292.975,400.717 278.475,404.217 261.5,398C 248.058,392.949 236.725,384.949 227.5,374C 225.975,372.991 224.308,372.491 222.5,372.5 Z"/></g>
<g><path style="opacity:1" fill="#506d45" d="M 132.5,398.5 C 133.043,398.56 133.376,398.893 133.5,399.5C 126.678,400.818 120.011,400.818 113.5,399.5C 120.022,399.823 126.355,399.49 132.5,398.5 Z"/></g>
<g><path style="opacity:1" fill="#acd87f" d="M 268.5,414.5 C 273.833,415.167 279.167,415.833 284.5,416.5C 281.074,423.019 277.908,429.686 275,436.5C 274.167,437.333 273.333,438.167 272.5,439C 261.932,440.619 251.265,440.952 240.5,440C 238.714,439.215 237.214,438.049 236,436.5C 232.527,428.221 228.527,420.221 224,412.5C 223.251,411.365 223.417,410.365 224.5,409.5C 228.958,407.403 233.458,405.403 238,403.5C 247.49,409.052 257.656,412.719 268.5,414.5 Z"/></g>
<g><path style="opacity:1" fill="#2b3520" d="M 268.5,414.5 C 274.206,414.171 279.872,414.505 285.5,415.5C 285.376,416.107 285.043,416.44 284.5,416.5C 279.167,415.833 273.833,415.167 268.5,414.5 Z"/></g>
</svg>
