<?xml version="1.0" encoding="UTF-8"?>
<!DOCTYPE svg PUBLIC "-//W3C//DTD SVG 1.1//EN" "http://www.w3.org/Graphics/SVG/1.1/DTD/svg11.dtd">
<svg xmlns="http://www.w3.org/2000/svg" version="1.1" width="512px" height="512px" style="shape-rendering:geometricPrecision; text-rendering:geometricPrecision; image-rendering:optimizeQuality; fill-rule:evenodd; clip-rule:evenodd" xmlns:xlink="http://www.w3.org/1999/xlink">
<g><path style="opacity:0.967" fill="#010201" d="M 368.5,-0.5 C 375.833,-0.5 383.167,-0.5 390.5,-0.5C 399.896,1.47349 408.562,5.30683 416.5,11C 423.573,17.4024 429.906,24.4024 435.5,32C 437.5,33 439.5,34 441.5,35C 470.25,37.4081 483.417,52.9081 481,81.5C 480.191,85.7602 478.691,89.7602 476.5,93.5C 493.077,113.3 492.411,132.466 474.5,151C 471.96,152.431 469.627,154.098 467.5,156C 471.918,177.743 466.418,196.577 451,212.5C 450.014,214.778 449.18,217.111 448.5,219.5C 459.045,237.958 457.378,255.125 443.5,271C 437.888,275.473 431.555,278.306 424.5,279.5C 421.6,302.574 409.6,319.074 388.5,329C 380.322,331.75 371.989,333.75 363.5,335C 358.809,344.027 352.309,351.527 344,357.5C 341.249,374.012 332.415,386.012 317.5,393.5C 320.225,407.882 316.225,420.049 305.5,430C 291.505,440.09 276.838,441.09 261.5,433C 256.833,429.667 252.833,425.667 249.5,421C 243.743,416.799 237.743,416.465 231.5,420C 224.395,429.439 215.728,437.105 205.5,443C 199.744,446.47 193.744,447.137 187.5,445C 186.418,443.67 185.751,442.17 185.5,440.5C 185.253,437.495 186.253,434.995 188.5,433C 194.458,430.905 200.124,428.239 205.5,425C 211.199,419.635 216.533,413.969 221.5,408C 234.845,399.067 247.845,399.567 260.5,409.5C 269.376,423.487 281.043,426.32 295.5,418C 301.734,411.793 304.068,404.293 302.5,395.5C 296.197,395.016 290.531,392.849 285.5,389C 281.635,384.306 277.635,379.806 273.5,375.5C 272.4,374.442 271.066,373.608 269.5,373C 264.718,372.881 260.051,372.215 255.5,371C 251.114,365.926 251.781,361.592 257.5,358C 268.155,356.024 277.488,358.524 285.5,365.5C 295.937,384.106 308.437,385.44 323,369.5C 326.662,362.845 329.328,355.845 331,348.5C 335.314,343.856 339.98,339.522 345,335.5C 347.771,327.73 352.937,322.23 360.5,319C 394.885,316.288 411.052,297.788 409,263.5C 406.148,258.828 404.814,253.828 405,248.5C 408.07,244.293 411.903,243.46 416.5,246C 420.645,251.121 422.978,256.955 423.5,263.5C 436.04,259.442 441.207,250.775 439,237.5C 429.786,221.238 432.12,206.905 446,194.5C 459.976,168.407 454.81,147.074 430.5,130.5C 427.368,121.607 430.701,117.607 440.5,118.5C 448.18,125.181 455.18,132.514 461.5,140.5C 469.026,136.453 472.693,130.12 472.5,121.5C 472.132,111.435 467.299,104.435 458,100.5C 456,97.1667 456,93.8333 458,90.5C 469.755,78.1376 469.255,66.3043 456.5,55C 454.167,54 451.833,53 449.5,52C 444.985,51.854 440.652,51.0207 436.5,49.5C 432.577,48.2049 428.91,46.3716 425.5,44C 419.5,37.3333 413.5,30.6667 407.5,24C 386.759,10.3033 366.925,11.4699 348,27.5C 344.48,35.6429 344.813,43.6429 349,51.5C 352.632,56.1337 356.632,60.467 361,64.5C 366.087,71.0068 369.254,78.3402 370.5,86.5C 370.035,93.4136 366.368,95.9136 359.5,94C 357.951,92.786 356.785,91.286 356,89.5C 354.829,81.841 351.329,75.5077 345.5,70.5C 342.906,71.5922 340.739,73.2589 339,75.5C 335.921,80.1449 333.588,85.1449 332,90.5C 329.441,93.3492 326.274,94.1825 322.5,93C 318.207,89.2001 317.374,84.7001 320,79.5C 323.328,71.0127 328.494,63.846 335.5,58C 330.854,48.6211 329.52,38.7877 331.5,28.5C 327.818,28.3347 324.152,28.5014 320.5,29C 317.536,30.973 314.369,32.473 311,33.5C 307.518,32.033 304.018,30.533 300.5,29C 281.208,27.2917 272.041,36.1251 273,55.5C 274.523,61.3596 276.689,66.8596 279.5,72C 277.969,78.7656 273.969,80.7656 267.5,78C 261.229,70.6894 258.229,62.1894 258.5,52.5C 244.732,49.6105 232.065,52.1105 220.5,60C 214.762,66.4081 208.429,72.0748 201.5,77C 194.326,79.013 186.992,80.013 179.5,80C 167.042,84.828 161.542,93.9947 163,107.5C 162.167,109.667 160.667,111.167 158.5,112C 149.838,111.805 141.505,113.305 133.5,116.5C 130.269,116.218 127.602,114.885 125.5,112.5C 124.618,108.091 125.952,104.591 129.5,102C 135.578,99.3972 141.911,97.8972 148.5,97.5C 152.34,74.5114 165.84,63.5114 189,64.5C 191.634,64.0664 194.134,63.233 196.5,62C 212.44,41.4627 233.273,33.296 259,37.5C 270.127,15.273 287.461,8.27305 311,16.5C 319.901,12.1962 329.068,11.5295 338.5,14.5C 347.498,7.33435 357.498,2.33435 368.5,-0.5 Z"/></g>
<g><path style="opacity:1" fill="#7bc7a5" d="M 436.5,49.5 C 437.527,53.446 437.694,57.446 437,61.5C 435.595,66.5467 434.095,71.5467 432.5,76.5C 432.692,78.5767 433.192,80.5767 434,82.5C 437.768,87.0353 440.768,92.0353 443,97.5C 443.667,102.833 443.667,108.167 443,113.5C 442.243,115.315 441.41,116.981 440.5,118.5C 430.701,117.607 427.368,121.607 430.5,130.5C 427.441,132.397 425.274,135.064 424,138.5C 426.467,153.329 424.134,167.329 417,180.5C 416.292,181.381 415.458,182.047 414.5,182.5C 411.162,181.577 408.662,179.577 407,176.5C 405.915,171.563 405.248,166.563 405,161.5C 395.991,155.664 391.157,158.164 390.5,169C 390.753,180.688 395.753,189.522 405.5,195.5C 403.581,203.289 404.747,210.622 409,217.5C 412.958,232.635 408.458,244.468 395.5,253C 391.63,254.287 387.964,255.953 384.5,258C 382.951,260.711 380.951,262.877 378.5,264.5C 377.657,262.827 376.324,261.66 374.5,261C 368.167,260.667 361.833,260.333 355.5,260C 349.898,257.614 344.398,255.114 339,252.5C 332.59,253.576 330.257,257.243 332,263.5C 344.233,274.021 358.4,277.854 374.5,275C 375.984,274.338 377.317,273.504 378.5,272.5C 369.585,296.475 352.252,308.975 326.5,310C 320.364,313.085 316.198,317.919 314,324.5C 309.625,328.509 305.292,332.509 301,336.5C 298.957,347.923 293.791,357.59 285.5,365.5C 277.488,358.524 268.155,356.024 257.5,358C 251.781,361.592 251.114,365.926 255.5,371C 260.051,372.215 264.718,372.881 269.5,373C 271.066,373.608 272.4,374.442 273.5,375.5C 273.666,381.509 273.499,387.509 273,393.5C 270.973,400.577 266.806,405.911 260.5,409.5C 247.845,399.567 234.845,399.067 221.5,408C 216.533,413.969 211.199,419.635 205.5,425C 200.124,428.239 194.458,430.905 188.5,433C 186.253,434.995 185.253,437.495 185.5,440.5C 178.479,441.778 171.479,441.445 164.5,439.5C 164.789,436.351 164.289,433.351 163,430.5C 155.87,427.191 150.037,422.358 145.5,416C 151.279,408.55 157.446,401.383 164,394.5C 166.035,390.719 165.868,387.052 163.5,383.5C 168.546,378.784 173.546,374.117 178.5,369.5C 181.877,370.901 185.21,370.735 188.5,369C 197.167,360.333 205.833,351.667 214.5,343C 243.882,322.485 276.549,313.152 312.5,315C 319.167,310.333 319.167,305.667 312.5,301C 302.167,300.333 291.833,300.333 281.5,301C 271.706,302.832 262.039,304.832 252.5,307C 264.38,295.121 275.546,282.621 286,269.5C 307.09,250.873 331.59,239.04 359.5,234C 360.931,233.535 362.097,232.701 363,231.5C 365.215,224.979 363.048,220.979 356.5,219.5C 342.183,221.828 328.516,226.162 315.5,232.5C 315.167,232.167 314.833,231.833 314.5,231.5C 334.35,202.483 352.184,172.15 368,140.5C 371.566,131.137 368.732,124.637 359.5,121C 355.88,120.159 352.546,120.826 349.5,123C 338,137.167 326.5,151.333 315,165.5C 316.318,157.565 317.652,149.565 319,141.5C 319.667,137.167 319.667,132.833 319,128.5C 313.885,122.925 309.219,123.258 305,129.5C 303.075,154.35 296.741,178.016 286,200.5C 268.365,220.469 249.698,239.469 230,257.5C 236.577,245.17 242.91,232.504 249,219.5C 256.361,202.084 261.695,184.084 265,165.5C 266.119,158.859 266.453,152.192 266,145.5C 262.876,141.475 259.042,140.642 254.5,143C 251.596,158.568 248.096,174.068 244,189.5C 240.098,183.541 235.598,178.041 230.5,173C 221.434,172.061 218.268,175.894 221,184.5C 228.065,191.463 233.232,199.629 236.5,209C 221.974,243.849 201.474,274.683 175,301.5C 175.932,293.833 177.265,286.166 179,278.5C 179.667,267.5 179.667,256.5 179,245.5C 174.7,239.336 170.033,239.003 165,244.5C 166.666,271.529 161.666,297.195 150,321.5C 146.743,326.346 143.243,331.012 139.5,335.5C 128.318,345.849 117.651,356.682 107.5,368C 90.6378,374.484 76.8045,370.65 66,356.5C 58.3664,344.206 58.6998,332.206 67,320.5C 79.7289,310.663 85.7289,297.663 85,281.5C 91.8029,267.072 101.803,264.072 115,272.5C 116.281,276.037 118.114,279.204 120.5,282C 129.79,283.622 133.29,279.789 131,270.5C 122.832,255.336 110.332,249.836 93.5,254C 90.7919,255.069 88.1253,256.236 85.5,257.5C 81.3932,254.884 78.5599,251.218 77,246.5C 74.054,233.225 78.8874,224.058 91.5,219C 103.003,219.678 114.003,217.678 124.5,213C 132.06,209.607 137.394,204.107 140.5,196.5C 138.969,189.956 134.969,187.789 128.5,190C 121.712,199.062 112.712,203.229 101.5,202.5C 106.871,196.089 110.371,188.756 112,180.5C 111.621,172.666 110.788,164.832 109.5,157C 109.594,153.112 110.094,149.279 111,145.5C 112.669,141.992 113.836,138.325 114.5,134.5C 114.218,131.269 112.885,128.602 110.5,126.5C 114.871,121.127 119.871,116.461 125.5,112.5C 127.602,114.885 130.269,116.218 133.5,116.5C 141.505,113.305 149.838,111.805 158.5,112C 160.667,111.167 162.167,109.667 163,107.5C 161.542,93.9947 167.042,84.828 179.5,80C 186.992,80.013 194.326,79.013 201.5,77C 208.429,72.0748 214.762,66.4081 220.5,60C 232.065,52.1105 244.732,49.6105 258.5,52.5C 258.229,62.1894 261.229,70.6894 267.5,78C 273.969,80.7656 277.969,78.7656 279.5,72C 276.689,66.8596 274.523,61.3596 273,55.5C 272.041,36.1251 281.208,27.2917 300.5,29C 304.018,30.533 307.518,32.033 311,33.5C 314.369,32.473 317.536,30.973 320.5,29C 324.152,28.5014 327.818,28.3347 331.5,28.5C 329.52,38.7877 330.854,48.6211 335.5,58C 328.494,63.846 323.328,71.0127 320,79.5C 317.374,84.7001 318.207,89.2001 322.5,93C 326.274,94.1825 329.441,93.3492 332,90.5C 333.588,85.1449 335.921,80.1449 339,75.5C 340.739,73.2589 342.906,71.5922 345.5,70.5C 351.329,75.5077 354.829,81.841 356,89.5C 356.785,91.286 357.951,92.786 359.5,94C 366.368,95.9136 370.035,93.4136 370.5,86.5C 369.254,78.3402 366.087,71.0068 361,64.5C 356.632,60.467 352.632,56.1337 349,51.5C 344.813,43.6429 344.48,35.6429 348,27.5C 366.925,11.4699 386.759,10.3033 407.5,24C 413.5,30.6667 419.5,37.3333 425.5,44C 428.91,46.3716 432.577,48.2049 436.5,49.5 Z"/></g>
<g><path style="opacity:1" fill="#5abb91" d="M 436.5,49.5 C 440.652,51.0207 444.985,51.854 449.5,52C 451.833,53 454.167,54 456.5,55C 469.255,66.3043 469.755,78.1376 458,90.5C 456,93.8333 456,97.1667 458,100.5C 467.299,104.435 472.132,111.435 472.5,121.5C 472.693,130.12 469.026,136.453 461.5,140.5C 455.18,132.514 448.18,125.181 440.5,118.5C 441.41,116.981 442.243,115.315 443,113.5C 443.667,108.167 443.667,102.833 443,97.5C 440.768,92.0353 437.768,87.0353 434,82.5C 433.192,80.5767 432.692,78.5767 432.5,76.5C 434.095,71.5467 435.595,66.5467 437,61.5C 437.694,57.446 437.527,53.446 436.5,49.5 Z"/></g>
<g><path style="opacity:1" fill="#030504" d="M 197.5,108.5 C 201.426,108.047 204.592,109.38 207,112.5C 205.772,120.052 205.439,127.719 206,135.5C 207.42,141.336 210.587,146.003 215.5,149.5C 217.908,157.59 214.908,161.423 206.5,161C 191.891,149.504 187.058,134.671 192,116.5C 193.273,113.403 195.107,110.736 197.5,108.5 Z"/></g>
<g><path style="opacity:0.985" fill="#010202" d="M 178.5,369.5 C 175.964,366.993 175.131,363.993 176,360.5C 202.387,334.779 228.72,309.112 255,283.5C 290.086,244.296 319.42,201.296 343,154.5C 315.86,189.482 286.694,222.815 255.5,254.5C 237.492,272.325 218.159,288.492 197.5,303C 139.305,354.006 86.4714,409.839 39,470.5C 38.3333,472.167 38.3333,473.833 39,475.5C 42.9169,479.527 47.0835,483.194 51.5,486.5C 55.095,489.649 58.7616,492.816 62.5,496C 64.1667,496.667 65.8333,496.667 67.5,496C 92.6716,455.481 121.672,417.815 154.5,383C 157.555,382.366 160.555,382.532 163.5,383.5C 165.868,387.052 166.035,390.719 164,394.5C 157.446,401.383 151.279,408.55 145.5,416C 150.037,422.358 155.87,427.191 163,430.5C 164.289,433.351 164.789,436.351 164.5,439.5C 161.751,443.171 158.084,444.337 153.5,443C 146.517,439.253 140.351,434.419 135,428.5C 115.447,452.722 97.4466,478.055 81,504.5C 78.2099,507.465 75.0433,509.798 71.5,511.5C 67.1667,511.5 62.8333,511.5 58.5,511.5C 48.2328,503.745 38.0662,495.745 28,487.5C 21.6028,479.262 20.9362,470.595 26,461.5C 46.376,435.451 67.876,410.284 90.5,386C 68.5093,383.924 54.0093,372.424 47,351.5C 44.0875,339.331 45.4208,327.664 51,316.5C 56.3333,309.833 61.6667,303.167 67,296.5C 68.1307,290.535 69.1307,284.535 70,278.5C 70.6058,275.287 71.7725,272.287 73.5,269.5C 57.6085,252.081 56.4419,233.747 70,214.5C 74.2242,210.303 79.0575,206.97 84.5,204.5C 86.7466,196.007 90.5799,188.34 96,181.5C 95.6412,173.353 95.1412,165.186 94.5,157C 94.3518,147.759 96.1852,138.925 100,130.5C 102.697,127.13 106.197,125.796 110.5,126.5C 112.885,128.602 114.218,131.269 114.5,134.5C 113.836,138.325 112.669,141.992 111,145.5C 110.094,149.279 109.594,153.112 109.5,157C 110.788,164.832 111.621,172.666 112,180.5C 110.371,188.756 106.871,196.089 101.5,202.5C 112.712,203.229 121.712,199.062 128.5,190C 134.969,187.789 138.969,189.956 140.5,196.5C 137.394,204.107 132.06,209.607 124.5,213C 114.003,217.678 103.003,219.678 91.5,219C 78.8874,224.058 74.054,233.225 77,246.5C 78.5599,251.218 81.3932,254.884 85.5,257.5C 88.1253,256.236 90.7919,255.069 93.5,254C 110.332,249.836 122.832,255.336 131,270.5C 133.29,279.789 129.79,283.622 120.5,282C 118.114,279.204 116.281,276.037 115,272.5C 101.803,264.072 91.8029,267.072 85,281.5C 85.7289,297.663 79.7289,310.663 67,320.5C 58.6998,332.206 58.3664,344.206 66,356.5C 76.8045,370.65 90.6378,374.484 107.5,368C 117.651,356.682 128.318,345.849 139.5,335.5C 143.243,331.012 146.743,326.346 150,321.5C 161.666,297.195 166.666,271.529 165,244.5C 170.033,239.003 174.7,239.336 179,245.5C 179.667,256.5 179.667,267.5 179,278.5C 177.265,286.166 175.932,293.833 175,301.5C 201.474,274.683 221.974,243.849 236.5,209C 233.232,199.629 228.065,191.463 221,184.5C 218.268,175.894 221.434,172.061 230.5,173C 235.598,178.041 240.098,183.541 244,189.5C 248.096,174.068 251.596,158.568 254.5,143C 259.042,140.642 262.876,141.475 266,145.5C 266.453,152.192 266.119,158.859 265,165.5C 261.695,184.084 256.361,202.084 249,219.5C 242.91,232.504 236.577,245.17 230,257.5C 249.698,239.469 268.365,220.469 286,200.5C 296.741,178.016 303.075,154.35 305,129.5C 309.219,123.258 313.885,122.925 319,128.5C 319.667,132.833 319.667,137.167 319,141.5C 317.652,149.565 316.318,157.565 315,165.5C 326.5,151.333 338,137.167 349.5,123C 352.546,120.826 355.88,120.159 359.5,121C 368.732,124.637 371.566,131.137 368,140.5C 352.184,172.15 334.35,202.483 314.5,231.5C 314.833,231.833 315.167,232.167 315.5,232.5C 328.516,226.162 342.183,221.828 356.5,219.5C 363.048,220.979 365.215,224.979 363,231.5C 362.097,232.701 360.931,233.535 359.5,234C 331.59,239.04 307.09,250.873 286,269.5C 275.546,282.621 264.38,295.121 252.5,307C 262.039,304.832 271.706,302.832 281.5,301C 291.833,300.333 302.167,300.333 312.5,301C 319.167,305.667 319.167,310.333 312.5,315C 276.549,313.152 243.882,322.485 214.5,343C 205.833,351.667 197.167,360.333 188.5,369C 185.21,370.735 181.877,370.901 178.5,369.5 Z"/></g>
<g><path style="opacity:1" fill="#5abb92" d="M 430.5,130.5 C 454.81,147.074 459.976,168.407 446,194.5C 432.12,206.905 429.786,221.238 439,237.5C 441.207,250.775 436.04,259.442 423.5,263.5C 422.978,256.955 420.645,251.121 416.5,246C 411.903,243.46 408.07,244.293 405,248.5C 404.814,253.828 406.148,258.828 409,263.5C 411.052,297.788 394.885,316.288 360.5,319C 352.937,322.23 347.771,327.73 345,335.5C 339.98,339.522 335.314,343.856 331,348.5C 329.328,355.845 326.662,362.845 323,369.5C 308.437,385.44 295.937,384.106 285.5,365.5C 293.791,357.59 298.957,347.923 301,336.5C 305.292,332.509 309.625,328.509 314,324.5C 316.198,317.919 320.364,313.085 326.5,310C 352.252,308.975 369.585,296.475 378.5,272.5C 379.53,269.771 379.53,267.104 378.5,264.5C 380.951,262.877 382.951,260.711 384.5,258C 387.964,255.953 391.63,254.287 395.5,253C 408.458,244.468 412.958,232.635 409,217.5C 404.747,210.622 403.581,203.289 405.5,195.5C 410.037,198.034 414.537,198.034 419,195.5C 421.905,189.509 420.405,185.176 414.5,182.5C 415.458,182.047 416.292,181.381 417,180.5C 424.134,167.329 426.467,153.329 424,138.5C 425.274,135.064 427.441,132.397 430.5,130.5 Z"/></g>
<g><path style="opacity:1" fill="#030504" d="M 143.5,137.5 C 148.513,137.256 152.346,139.256 155,143.5C 169.48,164.606 176.48,187.939 176,213.5C 171.748,219.653 167.081,219.986 162,214.5C 161.84,190.02 154.507,168.02 140,148.5C 138.663,143.872 139.83,140.205 143.5,137.5 Z"/></g>
<g><path style="opacity:1" fill="#030504" d="M 414.5,182.5 C 420.405,185.176 421.905,189.509 419,195.5C 414.537,198.034 410.037,198.034 405.5,195.5C 395.753,189.522 390.753,180.688 390.5,169C 391.157,158.164 395.991,155.664 405,161.5C 405.248,166.563 405.915,171.563 407,176.5C 408.662,179.577 411.162,181.577 414.5,182.5 Z"/></g>
<g><path style="opacity:1" fill="#0e784e" d="M 178.5,369.5 C 173.546,374.117 168.546,378.784 163.5,383.5C 160.555,382.532 157.555,382.366 154.5,383C 121.672,417.815 92.6716,455.481 67.5,496C 65.8333,496.667 64.1667,496.667 62.5,496C 58.7616,492.816 55.095,489.649 51.5,486.5C 53.7157,485.797 55.549,484.464 57,482.5C 99.0385,416.433 149.872,357.6 209.5,306C 226.452,290.22 242.118,273.387 256.5,255.5C 256.376,254.893 256.043,254.56 255.5,254.5C 286.694,222.815 315.86,189.482 343,154.5C 319.42,201.296 290.086,244.296 255,283.5C 228.72,309.112 202.387,334.779 176,360.5C 175.131,363.993 175.964,366.993 178.5,369.5 Z"/></g>
<g><path style="opacity:1" fill="#030604" d="M 378.5,264.5 C 379.53,267.104 379.53,269.771 378.5,272.5C 377.317,273.504 375.984,274.338 374.5,275C 358.4,277.854 344.233,274.021 332,263.5C 330.257,257.243 332.59,253.576 339,252.5C 344.398,255.114 349.898,257.614 355.5,260C 361.833,260.333 368.167,260.667 374.5,261C 376.324,261.66 377.657,262.827 378.5,264.5 Z"/></g>
<g><path style="opacity:1" fill="#148d5c" d="M 255.5,254.5 C 256.043,254.56 256.376,254.893 256.5,255.5C 242.118,273.387 226.452,290.22 209.5,306C 149.872,357.6 99.0385,416.433 57,482.5C 55.549,484.464 53.7157,485.797 51.5,486.5C 47.0835,483.194 42.9169,479.527 39,475.5C 38.3333,473.833 38.3333,472.167 39,470.5C 86.4714,409.839 139.305,354.006 197.5,303C 218.159,288.492 237.492,272.325 255.5,254.5 Z"/></g>
<g><path style="opacity:1" fill="#5abb91" d="M 273.5,375.5 C 277.635,379.806 281.635,384.306 285.5,389C 290.531,392.849 296.197,395.016 302.5,395.5C 304.068,404.293 301.734,411.793 295.5,418C 281.043,426.32 269.376,423.487 260.5,409.5C 266.806,405.911 270.973,400.577 273,393.5C 273.499,387.509 273.666,381.509 273.5,375.5 Z"/></g>
</svg>
