<?xml version="1.0" encoding="UTF-8"?>
<!DOCTYPE svg PUBLIC "-//W3C//DTD SVG 1.1//EN" "http://www.w3.org/Graphics/SVG/1.1/DTD/svg11.dtd">
<svg xmlns="http://www.w3.org/2000/svg" version="1.1" width="512px" height="512px" style="shape-rendering:geometricPrecision; text-rendering:geometricPrecision; image-rendering:optimizeQuality; fill-rule:evenodd; clip-rule:evenodd" xmlns:xlink="http://www.w3.org/1999/xlink">
<g><path style="opacity:0.986" fill="#010101" d="M 179.5,7.5 C 230.917,7.00909 282.251,7.50909 333.5,9C 336.196,12.3442 336.696,15.8442 335,19.5C 329.167,31.1667 323.333,42.8333 317.5,54.5C 342.208,54.7038 353.375,67.0372 351,91.5C 347.278,103.059 339.444,109.726 327.5,111.5C 327.5,116.833 327.5,122.167 327.5,127.5C 345.153,123.776 360.319,128.109 373,140.5C 376.111,144.387 378.444,148.72 380,153.5C 407.163,264.556 405.83,375.223 376,485.5C 370.478,494.345 362.644,500.179 352.5,503C 287.833,503.667 223.167,503.667 158.5,503C 145.17,499.669 136.336,491.502 132,478.5C 121.864,435.02 115.198,391.02 112,346.5C 108.515,281.196 114.849,216.863 131,153.5C 135.666,140.168 144.833,131.668 158.5,128C 166.827,127.5 175.16,127.334 183.5,127.5C 183.5,122.167 183.5,116.833 183.5,111.5C 167.966,108.632 159.966,99.2991 159.5,83.5C 159.683,69.6399 166.349,60.4732 179.5,56C 184.202,55.8283 188.868,55.3283 193.5,54.5C 187.667,42.8333 181.833,31.1667 176,19.5C 174.593,14.556 175.759,10.556 179.5,7.5 Z"/></g>
<g><path style="opacity:1" fill="#72402c" d="M 196.5,24.5 C 235.665,23.3355 274.998,23.1688 314.5,24C 309.167,34.3333 303.833,44.6667 298.5,55C 269.833,55.6667 241.167,55.6667 212.5,55C 207.265,44.6931 201.932,34.5264 196.5,24.5 Z"/></g>
<g><path style="opacity:1" fill="#becce5" d="M 223.5,103.5 C 223.667,114.505 223.5,125.505 223,136.5C 209.105,153.622 199.439,172.956 194,194.5C 188.633,219.566 185.467,244.899 184.5,270.5C 176.505,278.599 168.338,286.599 160,294.5C 159.394,262.504 162.394,230.837 169,199.5C 170.999,189.836 173.999,180.503 178,171.5C 183.997,159.497 190.997,148.163 199,137.5C 199.667,125.167 199.667,112.833 199,100.5C 198.535,99.0692 197.701,97.9025 196.5,97C 191.467,96.0653 186.467,95.0653 181.5,94C 172.956,85.8119 173.623,78.4785 183.5,72C 189.833,71.3333 196.167,71.3333 202.5,72C 207.461,81.422 212.294,90.922 217,100.5C 218.734,102.451 220.901,103.451 223.5,103.5 Z"/></g>
<g><path style="opacity:1" fill="#985b49" d="M 220.5,72.5 C 243.663,71.3369 266.996,71.1703 290.5,72C 287.833,77 285.167,82 282.5,87C 264.5,87.6667 246.5,87.6667 228.5,87C 225.932,82.0242 223.266,77.1909 220.5,72.5 Z"/></g>
<g><path style="opacity:1" fill="#d6dfee" d="M 350.5,270.5 C 350.5,275.833 350.5,281.167 350.5,286.5C 348.833,286.5 347.167,286.5 345.5,286.5C 316.795,281.635 296.295,265.968 284,239.5C 269.172,222.497 251.672,218.997 231.5,229C 215.645,242.692 199.979,256.526 184.5,270.5C 185.467,244.899 188.633,219.566 194,194.5C 199.439,172.956 209.105,153.622 223,136.5C 223.5,125.505 223.667,114.505 223.5,103.5C 245.503,103.667 267.503,103.5 289.5,103C 291.329,102.727 292.829,101.893 294,100.5C 298.706,90.922 303.539,81.422 308.5,72C 314.833,71.3333 321.167,71.3333 327.5,72C 337.377,78.4785 338.044,85.8119 329.5,94C 325.284,95.2036 320.951,95.8702 316.5,96C 314.333,96.8333 312.833,98.3333 312,100.5C 311.333,112.833 311.333,125.167 312,137.5C 323.601,152.698 332.601,169.365 339,187.5C 345.658,214.781 349.491,242.447 350.5,270.5 Z"/></g>
<g><path style="opacity:1" fill="#92accd" d="M 161.5,143.5 C 166.179,143.334 170.845,143.501 175.5,144C 160.515,167.287 151.681,192.787 149,220.5C 141.019,276.998 142.019,333.332 152,389.5C 156.161,410.975 160.828,432.309 166,453.5C 175.273,469.377 188.773,474.543 206.5,469C 240.008,450.735 273.341,451.068 306.5,470C 326.328,474.464 339.828,467.298 347,448.5C 352.847,421.265 358.18,393.932 363,366.5C 370.537,308.487 368.537,250.82 357,193.5C 352.965,175.602 345.799,159.102 335.5,144C 349.991,141.326 359.825,146.826 365,160.5C 379.498,219.307 385.498,278.973 383,339.5C 379.992,386.579 372.659,432.913 361,478.5C 357.908,482.928 353.741,485.761 348.5,487C 286.5,487.667 224.5,487.667 162.5,487C 154.667,484.5 149.5,479.333 147,471.5C 140.923,440.292 135.589,408.959 131,377.5C 123.402,306.012 128.069,235.345 145,165.5C 146.538,155.137 152.038,147.804 161.5,143.5 Z"/></g>
<g><path style="opacity:1" fill="#955234" d="M 348.5,353.5 C 347.12,354.706 345.953,354.373 345,352.5C 339.806,342.11 333.139,332.777 325,324.5C 308.523,306.336 290.023,290.836 269.5,278C 262.136,274.879 254.802,274.879 247.5,278C 231.581,286.533 218.748,298.367 209,313.5C 195.343,328.679 179.843,341.346 162.5,351.5C 161.711,351.217 161.044,350.717 160.5,350C 161.804,349.196 162.471,348.029 162.5,346.5C 160.736,335.895 160.236,325.228 161,314.5C 186.5,291 212,267.5 237.5,244C 247.748,237.751 257.748,238.085 267.5,245C 273.629,254.76 280.129,264.26 287,273.5C 304.491,291.994 325.991,301.994 351.5,303.5C 350.99,320.2 349.99,336.866 348.5,353.5 Z"/></g>
<g><path style="opacity:1" fill="#733f28" d="M 348.5,353.5 C 344.398,385.574 338.231,417.241 330,448.5C 325.569,454.467 319.735,456.633 312.5,455C 274.49,434.415 236.49,434.415 198.5,455C 190.275,456.637 184.108,453.804 180,446.5C 172.171,415.189 166.338,383.522 162.5,351.5C 179.843,341.346 195.343,328.679 209,313.5C 218.748,298.367 231.581,286.533 247.5,278C 254.802,274.879 262.136,274.879 269.5,278C 290.023,290.836 308.523,306.336 325,324.5C 333.139,332.777 339.806,342.11 345,352.5C 345.953,354.373 347.12,354.706 348.5,353.5 Z"/></g>
<g><path style="opacity:1" fill="#6e727a" d="M 350.5,270.5 C 351.489,275.975 351.822,281.642 351.5,287.5C 349.265,287.795 347.265,287.461 345.5,286.5C 347.167,286.5 348.833,286.5 350.5,286.5C 350.5,281.167 350.5,275.833 350.5,270.5 Z"/></g>
</svg>
