<?xml version="1.0" encoding="UTF-8"?>
<!DOCTYPE svg PUBLIC "-//W3C//DTD SVG 1.1//EN" "http://www.w3.org/Graphics/SVG/1.1/DTD/svg11.dtd">
<svg xmlns="http://www.w3.org/2000/svg" version="1.1" width="256px" height="256px" style="shape-rendering:geometricPrecision; text-rendering:geometricPrecision; image-rendering:optimizeQuality; fill-rule:evenodd; clip-rule:evenodd" xmlns:xlink="http://www.w3.org/1999/xlink">
<g><path style="opacity:0.951" fill="#060506" d="M 120.5,-0.5 C 125.167,-0.5 129.833,-0.5 134.5,-0.5C 139.921,1.39738 144.421,4.73071 148,9.5C 170.712,2.19875 181.045,10.5321 179,34.5C 178.127,37.6181 176.961,40.6181 175.5,43.5C 185.125,45.959 191.292,51.959 194,61.5C 194.945,75.2361 194.612,88.9028 193,102.5C 187.456,113.029 178.623,118.029 166.5,117.5C 156.619,115.982 147.286,112.649 138.5,107.5C 132.73,110.509 126.73,111.175 120.5,109.5C 118.167,107.5 115.833,105.5 113.5,103.5C 111.506,95.3032 111.006,86.9698 112,78.5C 112.816,77.1772 113.983,76.5106 115.5,76.5C 117.911,76.1367 119.411,77.1367 120,79.5C 120.333,85.8333 120.667,92.1667 121,98.5C 123.457,102.31 126.623,103.31 130.5,101.5C 132.844,100.653 134.344,98.9861 135,96.5C 135.667,85.8333 135.667,75.1667 135,64.5C 134.623,63.0577 133.79,62.0577 132.5,61.5C 130.593,58.6676 127.927,57.8343 124.5,59C 122.326,62.3699 119.326,64.2033 115.5,64.5C 108.801,58.1531 100.801,54.4864 91.5,53.5C 81.8069,50.2588 74.6402,53.2588 70,62.5C 69.3333,73.8333 69.3333,85.1667 70,96.5C 71.2545,101.249 74.0878,104.582 78.5,106.5C 80.8476,107.952 83.5143,108.618 86.5,108.5C 90.7167,108.157 94.8834,107.49 99,106.5C 100.833,106.519 102.333,107.185 103.5,108.5C 103.822,110.722 103.155,112.556 101.5,114C 99.1955,114.895 96.8622,115.729 94.5,116.5C 88.4961,129.186 80.9961,140.853 72,151.5C 60.9235,162.572 50.5902,174.239 41,186.5C 30.0886,202.367 29.7553,218.367 40,234.5C 44.9253,239.713 50.7586,243.546 57.5,246C 68.8284,246.5 80.1618,246.667 91.5,246.5C 126.502,246.667 161.502,246.5 196.5,246C 219.438,237.289 227.271,221.122 220,197.5C 216.835,191.166 213.169,185.166 209,179.5C 196.294,166.396 184.294,152.729 173,138.5C 172.391,135.935 172.891,133.601 174.5,131.5C 177.652,130.959 180.152,131.959 182,134.5C 184.422,138.344 187.089,142.01 190,145.5C 200.036,155.868 209.703,166.534 219,177.5C 226.705,187.743 231.205,199.243 232.5,212C 230.65,234.591 218.983,249.091 197.5,255.5C 150.833,255.5 104.167,255.5 57.5,255.5C 30.1292,246.106 19.2959,227.106 25,198.5C 28.4705,188.885 33.4705,180.218 40,172.5C 50.0362,162.132 59.7029,151.466 69,140.5C 74.8216,133.5 79.6549,125.834 83.5,117.5C 72.1894,116.113 64.6894,110.113 61,99.5C 60.3333,86.8333 60.3333,74.1667 61,61.5C 64.6568,50.0844 72.4901,44.0844 84.5,43.5C 88.3998,44.4299 92.3998,44.7633 96.5,44.5C 103.717,46.8576 110.55,50.1909 117,54.5C 121.439,50.658 126.605,49.4913 132.5,51C 135.938,52.6107 138.938,54.7774 141.5,57.5C 141.709,58.9217 142.209,60.255 143,61.5C 143.167,74.5128 143.667,87.5128 144.5,100.5C 145.183,100.863 145.85,101.196 146.5,101.5C 155.641,107.783 165.641,109.616 176.5,107C 180.817,104.685 183.65,101.185 185,96.5C 185.667,85.1667 185.667,73.8333 185,62.5C 183.988,58.9916 181.822,56.6582 178.5,55.5C 177.942,54.2101 176.942,53.3768 175.5,53C 168.852,52.0428 162.352,52.5428 156,54.5C 153.817,54.4779 152.317,53.4779 151.5,51.5C 151.286,49.8561 151.62,48.3561 152.5,47C 155.957,45.2565 159.623,44.2565 163.5,44C 169.496,37.672 171.663,30.172 170,21.5C 167.929,17.0466 164.429,15.0466 159.5,15.5C 157.833,15.6667 156.167,15.8333 154.5,16C 151.946,18.0634 149.28,19.8967 146.5,21.5C 145.833,21.3333 145.167,21.1667 144.5,21C 142.563,18.9291 140.896,16.7625 139.5,14.5C 137.905,11.7401 135.572,9.90679 132.5,9C 124.726,6.75659 118.559,8.92326 114,15.5C 113.626,17.4913 112.793,19.158 111.5,20.5C 109.833,21.8333 108.167,21.8333 106.5,20.5C 102.126,15.9447 96.7931,14.4447 90.5,16C 85.2121,19.2917 83.0455,24.125 84,30.5C 82.8549,31.6364 81.6883,32.6364 80.5,33.5C 76.0889,33.0349 74.4223,30.5349 75.5,26C 77.2281,10.4496 85.8948,4.11627 101.5,7C 103.519,7.44966 105.352,8.283 107,9.5C 110.579,4.73071 115.079,1.39738 120.5,-0.5 Z"/></g>
<g><path style="opacity:1" fill="#eaf4fc" d="M 139.5,14.5 C 136.324,15.4212 133.324,16.9212 130.5,19C 128.942,22.0595 126.609,24.2262 123.5,25.5C 119.59,23.4245 115.59,21.7579 111.5,20.5C 112.793,19.158 113.626,17.4913 114,15.5C 118.559,8.92326 124.726,6.75659 132.5,9C 135.572,9.90679 137.905,11.7401 139.5,14.5 Z"/></g>
<g><path style="opacity:1" fill="#e9f2fa" d="M 106.5,20.5 C 101.812,23.7066 98.3118,28.0399 96,33.5C 95.4213,37.2027 95.588,40.8694 96.5,44.5C 92.3998,44.7633 88.3998,44.4299 84.5,43.5C 82.6092,40.3858 81.2759,37.0525 80.5,33.5C 81.6883,32.6364 82.8549,31.6364 84,30.5C 83.0455,24.125 85.2121,19.2917 90.5,16C 96.7931,14.4447 102.126,15.9447 106.5,20.5 Z"/></g>
<g><path style="opacity:1" fill="#c9e1f8" d="M 139.5,14.5 C 140.896,16.7625 142.563,18.9291 144.5,21C 145.167,21.1667 145.833,21.3333 146.5,21.5C 149.28,19.8967 151.946,18.0634 154.5,16C 156.167,15.8333 157.833,15.6667 159.5,15.5C 164.429,15.0466 167.929,17.0466 170,21.5C 171.663,30.172 169.496,37.672 163.5,44C 159.623,44.2565 155.957,45.2565 152.5,47C 151.62,48.3561 151.286,49.8561 151.5,51.5C 147.799,53.0116 144.466,55.0116 141.5,57.5C 138.938,54.7774 135.938,52.6107 132.5,51C 126.605,49.4913 121.439,50.658 117,54.5C 110.55,50.1909 103.717,46.8576 96.5,44.5C 95.588,40.8694 95.4213,37.2027 96,33.5C 98.3118,28.0399 101.812,23.7066 106.5,20.5C 108.167,21.8333 109.833,21.8333 111.5,20.5C 115.59,21.7579 119.59,23.4245 123.5,25.5C 126.609,24.2262 128.942,22.0595 130.5,19C 133.324,16.9212 136.324,15.4212 139.5,14.5 Z"/></g>
<g><path style="opacity:1" fill="#fc8a93" d="M 91.5,53.5 C 91.6567,54.8734 91.49,56.2068 91,57.5C 87.2435,60.5858 84.2435,64.2525 82,68.5C 81.6667,80.1667 81.3333,91.8333 81,103.5C 80.6232,104.942 79.7899,105.942 78.5,106.5C 74.0878,104.582 71.2545,101.249 70,96.5C 69.3333,85.1667 69.3333,73.8333 70,62.5C 74.6402,53.2588 81.8069,50.2588 91.5,53.5 Z"/></g>
<g><path style="opacity:1" fill="#f7868f" d="M 151.5,51.5 C 152.317,53.4779 153.817,54.4779 156,54.5C 162.352,52.5428 168.852,52.0428 175.5,53C 176.942,53.3768 177.942,54.2101 178.5,55.5C 167.31,54.4028 156.976,56.7361 147.5,62.5C 147.349,58.686 145.349,57.0193 141.5,57.5C 144.466,55.0116 147.799,53.0116 151.5,51.5 Z"/></g>
<g><path style="opacity:1" fill="#fd6c79" d="M 91.5,53.5 C 100.801,54.4864 108.801,58.1531 115.5,64.5C 115.5,68.5 115.5,72.5 115.5,76.5C 113.983,76.5106 112.816,77.1772 112,78.5C 111.006,86.9698 111.506,95.3032 113.5,103.5C 110.45,105.692 107.117,107.358 103.5,108.5C 102.333,107.185 100.833,106.519 99,106.5C 94.8834,107.49 90.7167,108.157 86.5,108.5C 83.5143,108.618 80.8476,107.952 78.5,106.5C 79.7899,105.942 80.6232,104.942 81,103.5C 81.3333,91.8333 81.6667,80.1667 82,68.5C 84.2435,64.2525 87.2435,60.5858 91,57.5C 91.49,56.2068 91.6567,54.8734 91.5,53.5 Z"/></g>
<g><path style="opacity:1" fill="#fd6c79" d="M 178.5,55.5 C 181.822,56.6582 183.988,58.9916 185,62.5C 185.667,73.8333 185.667,85.1667 185,96.5C 183.65,101.185 180.817,104.685 176.5,107C 165.641,109.616 155.641,107.783 146.5,101.5C 147.463,88.5494 147.796,75.5494 147.5,62.5C 156.976,56.7361 167.31,54.4028 178.5,55.5 Z"/></g>
<g><path style="opacity:1" fill="#e54756" d="M 141.5,57.5 C 145.349,57.0193 147.349,58.686 147.5,62.5C 147.796,75.5494 147.463,88.5494 146.5,101.5C 145.85,101.196 145.183,100.863 144.5,100.5C 143.667,87.5128 143.167,74.5128 143,61.5C 142.209,60.255 141.709,58.9217 141.5,57.5 Z"/></g>
<g><path style="opacity:1" fill="#fa8891" d="M 132.5,61.5 C 130.164,63.0038 128.331,65.0038 127,67.5C 126.5,78.8284 126.333,90.1618 126.5,101.5C 127.833,101.5 129.167,101.5 130.5,101.5C 126.623,103.31 123.457,102.31 121,98.5C 120.667,92.1667 120.333,85.8333 120,79.5C 119.411,77.1367 117.911,76.1367 115.5,76.5C 115.5,72.5 115.5,68.5 115.5,64.5C 119.326,64.2033 122.326,62.3699 124.5,59C 127.927,57.8343 130.593,58.6676 132.5,61.5 Z"/></g>
<g><path style="opacity:1" fill="#f26774" d="M 132.5,61.5 C 133.79,62.0577 134.623,63.0577 135,64.5C 135.667,75.1667 135.667,85.8333 135,96.5C 134.344,98.9861 132.844,100.653 130.5,101.5C 129.167,101.5 127.833,101.5 126.5,101.5C 126.333,90.1618 126.5,78.8284 127,67.5C 128.331,65.0038 130.164,63.0038 132.5,61.5 Z"/></g>
<g><path style="opacity:1" fill="#ebf4fc" d="M 113.5,103.5 C 115.833,105.5 118.167,107.5 120.5,109.5C 118.826,117.187 116.16,124.52 112.5,131.5C 103.904,138.7 99.5705,148.033 99.5,159.5C 92.1225,162.211 87.1225,167.211 84.5,174.5C 82.9012,179.738 81.2345,185.071 79.5,190.5C 63.4072,200.281 59.5738,213.614 68,230.5C 73.1193,237.475 79.9526,241.475 88.5,242.5C 89.5,243.833 90.5,245.167 91.5,246.5C 80.1618,246.667 68.8284,246.5 57.5,246C 50.7586,243.546 44.9253,239.713 40,234.5C 29.7553,218.367 30.0886,202.367 41,186.5C 50.5902,174.239 60.9235,162.572 72,151.5C 80.9961,140.853 88.4961,129.186 94.5,116.5C 96.8622,115.729 99.1955,114.895 101.5,114C 103.155,112.556 103.822,110.722 103.5,108.5C 107.117,107.358 110.45,105.692 113.5,103.5 Z"/></g>
<g><path style="opacity:0.999" fill="#c8e0f7" d="M 166.5,117.5 C 169.167,122.167 171.833,126.833 174.5,131.5C 172.891,133.601 172.391,135.935 173,138.5C 184.294,152.729 196.294,166.396 209,179.5C 213.169,185.166 216.835,191.166 220,197.5C 227.271,221.122 219.438,237.289 196.5,246C 161.502,246.5 126.502,246.667 91.5,246.5C 90.5,245.167 89.5,243.833 88.5,242.5C 96.3196,242.284 103.153,239.617 109,234.5C 114.16,239.669 120.327,241.836 127.5,241C 128.823,240.184 129.489,239.017 129.5,237.5C 134.908,237.127 139.575,235.127 143.5,231.5C 158.223,246.356 172.723,246.022 187,230.5C 195.83,209.831 189.663,195.831 168.5,188.5C 168.5,185.833 168.5,183.167 168.5,180.5C 170.246,179.751 171.246,178.417 171.5,176.5C 167.736,165.962 160.402,159.629 149.5,157.5C 149.5,154.167 149.5,150.833 149.5,147.5C 152.196,144.103 152.029,140.77 149,137.5C 138.337,126.529 126.171,124.529 112.5,131.5C 116.16,124.52 118.826,117.187 120.5,109.5C 126.73,111.175 132.73,110.509 138.5,107.5C 147.286,112.649 156.619,115.982 166.5,117.5 Z"/></g>
<g><path style="opacity:1" fill="#080807" d="M 149.5,147.5 C 148.127,147.657 146.793,147.49 145.5,147C 142.479,141.806 138.146,138.306 132.5,136.5C 116.568,134.759 108.901,142.092 109.5,158.5C 111.5,158.5 113.5,158.5 115.5,158.5C 119.932,159.896 123.932,162.23 127.5,165.5C 133.722,159.87 141.055,157.203 149.5,157.5C 160.402,159.629 167.736,165.962 171.5,176.5C 171.246,178.417 170.246,179.751 168.5,180.5C 167.127,180.657 165.793,180.49 164.5,180C 161.851,172.85 156.851,168.35 149.5,166.5C 139.736,165.466 132.902,169.466 129,178.5C 128.501,182.152 128.335,185.818 128.5,189.5C 130.5,189.5 132.5,189.5 134.5,189.5C 140.255,191.555 145.255,194.888 149.5,199.5C 151.55,203.309 153.216,207.309 154.5,211.5C 154.986,216.966 153.986,222.132 151.5,227C 154.559,231.114 158.726,233.281 164,233.5C 178.34,231.82 184.34,223.82 182,209.5C 179.197,203.527 174.697,199.527 168.5,197.5C 164.486,197.666 160.486,197.499 156.5,197C 155.944,196.617 155.611,196.117 155.5,195.5C 155.178,193.278 155.845,191.444 157.5,190C 161.06,188.763 164.727,188.263 168.5,188.5C 189.663,195.831 195.83,209.831 187,230.5C 172.723,246.022 158.223,246.356 143.5,231.5C 142.957,230.258 142.623,228.925 142.5,227.5C 147.837,216.999 146.17,207.832 137.5,200C 135.975,198.991 134.308,198.491 132.5,198.5C 128.158,197.146 123.824,197.312 119.5,199C 116.203,201.295 113.203,203.962 110.5,207C 109.552,207.483 108.552,207.649 107.5,207.5C 104.28,202.3 99.6138,198.967 93.5,197.5C 83.7358,196.466 76.9025,200.466 73,209.5C 70.9029,217.707 73.0696,224.374 79.5,229.5C 80.7489,231.136 82.4156,232.303 84.5,233C 95.707,235.067 103.374,230.901 107.5,220.5C 109.583,218.396 111.917,218.062 114.5,219.5C 115.198,222.428 115.364,225.428 115,228.5C 118.443,231.874 122.61,233.707 127.5,234C 128.823,234.816 129.489,235.983 129.5,237.5C 129.489,239.017 128.823,240.184 127.5,241C 120.327,241.836 114.16,239.669 109,234.5C 103.153,239.617 96.3196,242.284 88.5,242.5C 79.9526,241.475 73.1193,237.475 68,230.5C 59.5738,213.614 63.4072,200.281 79.5,190.5C 82.0098,190.073 84.3432,189.407 86.5,188.5C 88.8333,188.5 91.1667,188.5 93.5,188.5C 99.2059,189.937 104.373,192.604 109,196.5C 111.919,193.4 115.419,191.4 119.5,190.5C 118.856,184.19 119.856,178.19 122.5,172.5C 120.203,169.529 117.203,167.862 113.5,167.5C 102.996,165.419 95.3289,169.252 90.5,179C 89.2068,179.49 87.8734,179.657 86.5,179.5C 84.7868,178.365 84.1201,176.698 84.5,174.5C 87.1225,167.211 92.1225,162.211 99.5,159.5C 99.5705,148.033 103.904,138.7 112.5,131.5C 126.171,124.529 138.337,126.529 149,137.5C 152.029,140.77 152.196,144.103 149.5,147.5 Z"/></g>
<g><path style="opacity:1" fill="#d7af9c" d="M 132.5,136.5 C 122.26,140.395 116.593,147.729 115.5,158.5C 113.5,158.5 111.5,158.5 109.5,158.5C 108.901,142.092 116.568,134.759 132.5,136.5 Z"/></g>
<g><path style="opacity:1" fill="#c49881" d="M 132.5,136.5 C 138.146,138.306 142.479,141.806 145.5,147C 146.793,147.49 148.127,147.657 149.5,147.5C 149.5,150.833 149.5,154.167 149.5,157.5C 141.055,157.203 133.722,159.87 127.5,165.5C 123.932,162.23 119.932,159.896 115.5,158.5C 116.593,147.729 122.26,140.395 132.5,136.5 Z"/></g>
<g><path style="opacity:1" fill="#dab29e" d="M 113.5,167.5 C 104.21,170.963 98.7103,177.63 97,187.5C 95.9887,188.337 94.8221,188.67 93.5,188.5C 91.1667,188.5 88.8333,188.5 86.5,188.5C 86.5,185.5 86.5,182.5 86.5,179.5C 87.8734,179.657 89.2068,179.49 90.5,179C 95.3289,169.252 102.996,165.419 113.5,167.5 Z"/></g>
<g><path style="opacity:1" fill="#d9b19e" d="M 149.5,166.5 C 149.611,167.117 149.944,167.617 150.5,168C 140.717,171.938 135.383,179.105 134.5,189.5C 132.5,189.5 130.5,189.5 128.5,189.5C 128.335,185.818 128.501,182.152 129,178.5C 132.902,169.466 139.736,165.466 149.5,166.5 Z"/></g>
<g><path style="opacity:1" fill="#c39781" d="M 149.5,166.5 C 156.851,168.35 161.851,172.85 164.5,180C 165.793,180.49 167.127,180.657 168.5,180.5C 168.5,183.167 168.5,185.833 168.5,188.5C 164.727,188.263 161.06,188.763 157.5,190C 155.845,191.444 155.178,193.278 155.5,195.5C 153.147,196.34 151.147,197.674 149.5,199.5C 145.255,194.888 140.255,191.555 134.5,189.5C 135.383,179.105 140.717,171.938 150.5,168C 149.944,167.617 149.611,167.117 149.5,166.5 Z"/></g>
<g><path style="opacity:1" fill="#c49881" d="M 113.5,167.5 C 117.203,167.862 120.203,169.529 122.5,172.5C 119.856,178.19 118.856,184.19 119.5,190.5C 115.419,191.4 111.919,193.4 109,196.5C 104.373,192.604 99.2059,189.937 93.5,188.5C 94.8221,188.67 95.9887,188.337 97,187.5C 98.7103,177.63 104.21,170.963 113.5,167.5 Z"/></g>
<g><path style="opacity:1" fill="#c7ddf3" d="M 84.5,174.5 C 84.1201,176.698 84.7868,178.365 86.5,179.5C 86.5,182.5 86.5,185.5 86.5,188.5C 84.3432,189.407 82.0098,190.073 79.5,190.5C 81.2345,185.071 82.9012,179.738 84.5,174.5 Z"/></g>
<g><path style="opacity:1" fill="#dab29e" d="M 155.5,195.5 C 155.611,196.117 155.944,196.617 156.5,197C 160.486,197.499 164.486,197.666 168.5,197.5C 168.611,198.117 168.944,198.617 169.5,199C 162.829,201.312 157.829,205.479 154.5,211.5C 153.216,207.309 151.55,203.309 149.5,199.5C 151.147,197.674 153.147,196.34 155.5,195.5 Z"/></g>
<g><path style="opacity:1" fill="#dcb3a0" d="M 93.5,197.5 C 93.6107,198.117 93.944,198.617 94.5,199C 81.0829,205.001 76.0829,215.168 79.5,229.5C 73.0696,224.374 70.9029,217.707 73,209.5C 76.9025,200.466 83.7358,196.466 93.5,197.5 Z"/></g>
<g><path style="opacity:1" fill="#dbb29f" d="M 132.5,198.5 C 122.885,202.445 116.885,209.445 114.5,219.5C 111.917,218.062 109.583,218.396 107.5,220.5C 106.206,218.952 105.539,216.952 105.5,214.5C 105.667,212.5 105.833,210.5 106,208.5C 106.383,207.944 106.883,207.611 107.5,207.5C 108.552,207.649 109.552,207.483 110.5,207C 113.203,203.962 116.203,201.295 119.5,199C 123.824,197.312 128.158,197.146 132.5,198.5 Z"/></g>
<g><path style="opacity:1" fill="#c59881" d="M 93.5,197.5 C 99.6138,198.967 104.28,202.3 107.5,207.5C 106.883,207.611 106.383,207.944 106,208.5C 105.833,210.5 105.667,212.5 105.5,214.5C 105.539,216.952 106.206,218.952 107.5,220.5C 103.374,230.901 95.707,235.067 84.5,233C 82.4156,232.303 80.7489,231.136 79.5,229.5C 76.0829,215.168 81.0829,205.001 94.5,199C 93.944,198.617 93.6107,198.117 93.5,197.5 Z"/></g>
<g><path style="opacity:1" fill="#c69a83" d="M 132.5,198.5 C 134.308,198.491 135.975,198.991 137.5,200C 146.17,207.832 147.837,216.999 142.5,227.5C 142.623,228.925 142.957,230.258 143.5,231.5C 139.575,235.127 134.908,237.127 129.5,237.5C 129.489,235.983 128.823,234.816 127.5,234C 122.61,233.707 118.443,231.874 115,228.5C 115.364,225.428 115.198,222.428 114.5,219.5C 116.885,209.445 122.885,202.445 132.5,198.5 Z"/></g>
<g><path style="opacity:1" fill="#c59882" d="M 168.5,197.5 C 174.697,199.527 179.197,203.527 182,209.5C 184.34,223.82 178.34,231.82 164,233.5C 158.726,233.281 154.559,231.114 151.5,227C 153.986,222.132 154.986,216.966 154.5,211.5C 157.829,205.479 162.829,201.312 169.5,199C 168.944,198.617 168.611,198.117 168.5,197.5 Z"/></g>
</svg>
