<?xml version="1.0" encoding="UTF-8"?>
<!DOCTYPE svg PUBLIC "-//W3C//DTD SVG 1.1//EN" "http://www.w3.org/Graphics/SVG/1.1/DTD/svg11.dtd">
<svg xmlns="http://www.w3.org/2000/svg" version="1.1" width="256px" height="256px" style="shape-rendering:geometricPrecision; text-rendering:geometricPrecision; image-rendering:optimizeQuality; fill-rule:evenodd; clip-rule:evenodd" xmlns:xlink="http://www.w3.org/1999/xlink">
<g><path style="opacity:0.979" fill="#040505" d="M 66.5,-0.5 C 107.167,-0.5 147.833,-0.5 188.5,-0.5C 195.908,5.47041 198.575,13.3037 196.5,23C 196.333,27.5 196.167,32 196,36.5C 194.395,40.2759 191.562,42.2759 187.5,42.5C 187.5,45.1667 187.5,47.8333 187.5,50.5C 204.824,49.3398 215.991,57.0064 221,73.5C 221.667,126.5 221.667,179.5 221,232.5C 218.091,244.24 210.924,251.906 199.5,255.5C 151.5,255.5 103.5,255.5 55.5,255.5C 44.5167,252.016 37.3501,244.682 34,233.5C 33.3333,180.167 33.3333,126.833 34,73.5C 38.9901,57.0313 50.1568,49.3646 67.5,50.5C 67.5,47.8333 67.5,45.1667 67.5,42.5C 63.4384,42.2759 60.605,40.2759 59,36.5C 58.0769,26.4255 58.4103,16.4255 60,6.5C 61.6941,3.64238 63.8607,1.30904 66.5,-0.5 Z"/></g>
<g><path style="opacity:1" fill="#40474a" d="M 70.5,8.5 C 108.331,7.33553 146.331,7.16886 184.5,8C 187.125,10.1962 188.125,13.0295 187.5,16.5C 184.5,16.5 181.5,16.5 178.5,16.5C 178.5,13.8333 178.5,11.1667 178.5,8.5C 142.5,8.5 106.5,8.5 70.5,8.5 Z"/></g>
<g><path style="opacity:1" fill="#7e8d93" d="M 70.5,8.5 C 106.5,8.5 142.5,8.5 178.5,8.5C 178.5,11.1667 178.5,13.8333 178.5,16.5C 141.5,16.5 104.5,16.5 67.5,16.5C 66.8283,13.0581 67.8283,10.3914 70.5,8.5 Z"/></g>
<g><path style="opacity:1" fill="#5f7c8a" d="M 178.5,25.5 C 178.5,28.1667 178.5,30.8333 178.5,33.5C 141.5,33.5 104.5,33.5 67.5,33.5C 67.5,30.8333 67.5,28.1667 67.5,25.5C 104.5,25.5 141.5,25.5 178.5,25.5 Z"/></g>
<g><path style="opacity:1" fill="#36464e" d="M 178.5,25.5 C 181.5,25.5 184.5,25.5 187.5,25.5C 187.5,28.1667 187.5,30.8333 187.5,33.5C 184.5,33.5 181.5,33.5 178.5,33.5C 178.5,30.8333 178.5,28.1667 178.5,25.5 Z"/></g>
<g><path style="opacity:1" fill="#3d4eb2" d="M 76.5,42.5 C 110.5,42.5 144.5,42.5 178.5,42.5C 178.5,45.1667 178.5,47.8333 178.5,50.5C 144.5,50.5 110.5,50.5 76.5,50.5C 76.5,47.8333 76.5,45.1667 76.5,42.5 Z"/></g>
<g><path style="opacity:1" fill="#02a8f2" d="M 194.5,59.5 C 199.097,63.9423 202.263,69.2756 204,75.5C 204.5,86.8284 204.667,98.1618 204.5,109.5C 203.167,109.5 201.833,109.5 200.5,109.5C 194.491,109.666 188.491,109.499 182.5,109C 174.515,103.776 165.848,102.276 156.5,104.5C 143.707,88.6277 128.04,85.1277 109.5,94C 105.311,96.8553 101.811,100.355 99,104.5C 84.9402,99.5813 72.7735,102.415 62.5,113C 55.4715,112.53 48.9715,114.03 43,117.5C 42.3333,102.833 42.3333,88.1667 43,73.5C 45.3576,67.9333 49.191,63.7666 54.5,61C 101.107,59.5149 147.773,59.0149 194.5,59.5 Z"/></g>
<g><path style="opacity:1" fill="#0275b9" d="M 194.5,59.5 C 204.848,61.1809 210.848,67.1809 212.5,77.5C 212.829,90.0113 212.495,102.345 211.5,114.5C 208.074,112.249 204.408,110.583 200.5,109.5C 201.833,109.5 203.167,109.5 204.5,109.5C 204.667,98.1618 204.5,86.8284 204,75.5C 202.263,69.2756 199.097,63.9423 194.5,59.5 Z"/></g>
<g><path style="opacity:1" fill="#e8f0f5" d="M 57.5,67.5 C 61.0071,66.9935 64.1737,67.6602 67,69.5C 67.8959,72.025 67.3959,74.1917 65.5,76C 56.7799,78.1266 54.1132,75.2933 57.5,67.5 Z"/></g>
<g><path style="opacity:1" fill="#e9f1f5" d="M 78.5,67.5 C 89.505,67.3335 100.505,67.5002 111.5,68C 115.065,70.1775 115.399,72.8442 112.5,76C 101.167,76.6667 89.8333,76.6667 78.5,76C 75.8987,73.1705 75.8987,70.3371 78.5,67.5 Z"/></g>
<g><path style="opacity:1" fill="#01263c" d="M 212.5,77.5 C 213.825,90.0062 213.825,102.673 212.5,115.5C 211.893,115.376 211.56,115.043 211.5,114.5C 212.495,102.345 212.829,90.0113 212.5,77.5 Z"/></g>
<g><path style="opacity:1" fill="#fde939" d="M 186.5,118.5 C 196.067,116.235 201.9,119.901 204,129.5C 204.667,162.833 204.667,196.167 204,229.5C 202.718,236.267 199.551,241.934 194.5,246.5C 150.002,247.665 105.335,247.831 60.5,247C 51.0791,245.244 45.2458,239.744 43,230.5C 42.3333,197.167 42.3333,163.833 43,130.5C 45.5919,125.034 49.9252,122.034 56,121.5C 59.1365,122.501 62.3032,123.001 65.5,123C 74.1273,110.016 85.4607,107.016 99.5,114C 101.167,114.667 102.833,114.667 104.5,114C 109.586,100.62 119.253,95.2869 133.5,98C 142.095,100.263 147.762,105.596 150.5,114C 155.293,113.433 160.126,112.6 165,111.5C 170.935,111.886 176.102,114.052 180.5,118C 182.473,118.495 184.473,118.662 186.5,118.5 Z"/></g>
<g><path style="opacity:1" fill="#fad633" d="M 186.5,118.5 C 193.363,116.713 200.029,117.546 206.5,121C 209.106,122.938 210.939,125.438 212,128.5C 212.667,162.5 212.667,196.5 212,230.5C 209.831,239.835 203.998,245.169 194.5,246.5C 199.551,241.934 202.718,236.267 204,229.5C 204.667,196.167 204.667,162.833 204,129.5C 201.9,119.901 196.067,116.235 186.5,118.5 Z"/></g>
<g><path style="opacity:1" fill="#ff9c04" d="M 108.5,131.5 C 113.494,131.329 115.328,133.662 114,138.5C 113,139.167 112,139.833 111,140.5C 111.241,147.965 108.241,149.965 102,146.5C 100.984,140.03 103.15,135.03 108.5,131.5 Z"/></g>
<g><path style="opacity:1" fill="#ff9a02" d="M 182.5,140.5 C 185.685,140.02 188.519,140.686 191,142.5C 191.787,146.723 189.953,148.889 185.5,149C 183.401,151.409 181.734,154.076 180.5,157C 178.299,157.825 176.466,157.325 175,155.5C 174.333,153.167 174.333,150.833 175,148.5C 177.028,145.308 179.528,142.641 182.5,140.5 Z"/></g>
<g><path style="opacity:1" fill="#ff9b03" d="M 77.5,166.5 C 88.3332,165.174 93.4998,169.84 93,180.5C 87.3442,184.054 84.1776,182.387 83.5,175.5C 77.3754,175.065 75.3754,172.065 77.5,166.5 Z"/></g>
<g><path style="opacity:1" fill="#ff9a02" d="M 133.5,174.5 C 141.913,174.026 146.913,177.86 148.5,186C 148.581,190.256 146.581,191.923 142.5,191C 140.98,189.115 139.98,186.949 139.5,184.5C 136.945,183.24 134.445,181.906 132,180.5C 131.252,178.16 131.752,176.16 133.5,174.5 Z"/></g>
<g><path style="opacity:1" fill="#ff9a02" d="M 186.5,200.5 C 189.187,200.336 191.854,200.503 194.5,201C 196.602,205.913 194.935,208.58 189.5,209C 188.167,211.333 186.833,213.667 185.5,216C 181.492,217.416 179.159,216.082 178.5,212C 179.418,206.921 182.085,203.087 186.5,200.5 Z"/></g>
<g><path style="opacity:1" fill="#ff9c03" d="M 65.5,208.5 C 73.8825,208.06 78.8825,211.894 80.5,220C 80.3707,224.966 78.0374,226.466 73.5,224.5C 72.066,222.78 71.2326,220.78 71,218.5C 64.0791,217.651 62.2458,214.317 65.5,208.5 Z"/></g>
<g><path style="opacity:1" fill="#ff9b03" d="M 133.5,217.5 C 145.764,217.287 150.098,222.787 146.5,234C 141.798,234.633 139.631,232.466 140,227.5C 137.333,226.167 134.667,224.833 132,223.5C 131.252,221.16 131.752,219.16 133.5,217.5 Z"/></g>
</svg>
