<?xml version="1.0" encoding="UTF-8"?>
<!DOCTYPE svg PUBLIC "-//W3C//DTD SVG 1.1//EN" "http://www.w3.org/Graphics/SVG/1.1/DTD/svg11.dtd">
<svg xmlns="http://www.w3.org/2000/svg" version="1.1" width="512px" height="512px" style="shape-rendering:geometricPrecision; text-rendering:geometricPrecision; image-rendering:optimizeQuality; fill-rule:evenodd; clip-rule:evenodd" xmlns:xlink="http://www.w3.org/1999/xlink">
<g><path style="opacity:0.982" fill="#030302" d="M 511.5,286.5 C 511.5,294.5 511.5,302.5 511.5,310.5C 499.028,360.965 472.361,402.131 431.5,434C 428.726,436.054 425.726,437.554 422.5,438.5C 419.782,438.305 417.449,437.305 415.5,435.5C 414.737,432.859 414.57,430.192 415,427.5C 419.074,423.881 423.241,420.381 427.5,417C 425.229,414.218 422.563,412.051 419.5,410.5C 405.758,398.741 389.758,391.908 371.5,390C 341.099,386.718 314.599,395.218 292,415.5C 291.837,417.387 292.671,418.887 294.5,420C 313.194,433.846 333.861,443.679 356.5,449.5C 368.603,447.8 380.27,444.467 391.5,439.5C 394.692,440.366 397.359,442.032 399.5,444.5C 400.029,448.192 399.029,451.358 396.5,454C 384.696,459.546 372.363,463.379 359.5,465.5C 304.877,453.277 263.044,423.277 234,375.5C 220.013,352.195 210.513,327.195 205.5,300.5C 188.611,310.13 170.611,316.797 151.5,320.5C 94.5326,307.281 51.6993,275.281 23,224.5C 12.6816,205.689 4.84824,186.022 -0.5,165.5C -0.5,157.167 -0.5,148.833 -0.5,140.5C 2.18785,128.118 7.35452,116.785 15,106.5C 57.8439,60.6557 110.677,40.8223 173.5,47C 223.334,52.8198 263.501,75.3198 294,114.5C 304.862,134.199 307.195,154.865 301,176.5C 298.083,185.588 294.583,194.422 290.5,203C 345.859,183.489 399.525,187.489 451.5,215C 471.771,226.267 488.604,241.433 502,260.5C 506.29,268.882 509.457,277.548 511.5,286.5 Z"/></g>
<g><path style="opacity:1" fill="#fbbf64" d="M 260.5,101.5 C 272.54,116.636 277.54,133.969 275.5,153.5C 233.467,119.061 185.133,104.228 130.5,109C 85.5292,114.403 47.3625,133.236 16,165.5C 12.2471,147.511 15.9137,131.178 27,116.5C 72.6172,69.0768 127.784,52.2435 192.5,66C 218.245,72.3684 240.911,84.2018 260.5,101.5 Z"/></g>
<g><path style="opacity:1" fill="#f6af40" d="M 260.5,101.5 C 282.37,116.913 291.37,137.913 287.5,164.5C 283.48,160.811 279.48,157.145 275.5,153.5C 277.54,133.969 272.54,116.636 260.5,101.5 Z"/></g>
<g><path style="opacity:1" fill="#f5f2f2" d="M 100.5,159.5 C 94.7148,161.56 89.0482,163.893 83.5,166.5C 81.5234,164.261 79.0234,162.927 76,162.5C 57.4261,171.397 41.4261,183.73 28,199.5C 25.6374,194.079 23.4707,188.579 21.5,183C 27.4482,174.717 34.4482,167.384 42.5,161C 98.444,119.676 158.777,112.009 223.5,138C 246.867,148.007 266.534,162.841 282.5,182.5C 280.553,188.009 278.22,193.342 275.5,198.5C 237.659,158.439 190.992,140.272 135.5,144C 125.403,145.486 115.403,147.486 105.5,150C 101.61,151.945 99.9433,155.112 100.5,159.5 Z"/></g>
<g><path style="opacity:1" fill="#fbbf64" d="M 259.5,203.5 C 253.955,211.563 248.622,219.896 243.5,228.5C 204.744,196.045 160.744,186.212 111.5,199C 87.9227,206.783 67.5894,219.617 50.5,237.5C 44.1129,230.376 39.6129,222.376 37,213.5C 42.4267,206.069 48.5934,199.236 55.5,193C 64.0712,186.464 72.9046,180.297 82,174.5C 83.2525,171.986 83.7525,169.32 83.5,166.5C 89.0482,163.893 94.7148,161.56 100.5,159.5C 101.989,162.319 104.323,163.986 107.5,164.5C 158.743,151.049 205.41,160.216 247.5,192C 251.395,196.065 255.395,199.898 259.5,203.5 Z"/></g>
<g><path style="opacity:1" fill="#f6af40" d="M 259.5,203.5 C 262.165,206.335 264.665,209.335 267,212.5C 267.667,213.5 267.667,214.5 267,215.5C 259.903,219.965 253.07,224.798 246.5,230C 245.002,230.585 244.002,230.085 243.5,228.5C 248.622,219.896 253.955,211.563 259.5,203.5 Z"/></g>
<g><path style="opacity:1" fill="#fbbf64" d="M 470.5,248.5 C 469.957,248.56 469.624,248.893 469.5,249.5C 480.461,263.937 485.128,280.27 483.5,298.5C 432.693,257.854 375.36,244.687 311.5,259C 277.374,268.221 248.041,285.387 223.5,310.5C 219.429,289.22 224.929,270.887 240,255.5C 283.889,213.877 335.722,198.71 395.5,210C 423.94,216.551 448.94,229.384 470.5,248.5 Z"/></g>
<g><path style="opacity:1" fill="#f5f2f2" d="M 136.5,208.5 C 170.597,205.853 201.263,214.687 228.5,235C 230.351,236.684 232.018,238.517 233.5,240.5C 229.481,244.685 225.647,249.018 222,253.5C 189.364,229.39 153.531,223.223 114.5,235C 98.6179,241.185 84.4512,250.019 72,261.5C 67.5124,258.346 63.6791,254.512 60.5,250C 72.6438,235.201 87.6438,224.201 105.5,217C 115.672,213.075 126.006,210.242 136.5,208.5 Z"/></g>
<g><path style="opacity:1" fill="#fcbf64" d="M 212.5,265.5 C 193.7,282.571 172.366,295.571 148.5,304.5C 124.634,297.901 102.968,287.067 83.5,272C 114.093,243.748 149.093,236.748 188.5,251C 197.362,254.589 205.362,259.423 212.5,265.5 Z"/></g>
<g><path style="opacity:1" fill="#f6af3f" d="M 470.5,248.5 C 490.913,263.984 499.08,284.317 495,309.5C 491.188,305.702 487.355,302.035 483.5,298.5C 485.128,280.27 480.461,263.937 469.5,249.5C 469.624,248.893 469.957,248.56 470.5,248.5 Z"/></g>
<g><path style="opacity:1" fill="#f6af40" d="M 212.5,265.5 C 213.289,265.783 213.956,266.283 214.5,267C 212.252,270.74 210.585,274.74 209.5,279C 191.298,292.43 170.965,300.93 148.5,304.5C 172.366,295.571 193.7,282.571 212.5,265.5 Z"/></g>
<g><path style="opacity:1" fill="#f6f2f2" d="M 339.5,268.5 C 398.628,263.811 448.462,282.811 489,325.5C 488.219,331.843 486.219,337.843 483,343.5C 443.473,301.764 394.973,283.93 337.5,290C 296.798,295.762 262.964,313.929 236,344.5C 233.116,339.186 230.616,333.686 228.5,328C 247.991,304.915 271.991,288.248 300.5,278C 313.371,273.698 326.371,270.531 339.5,268.5 Z"/></g>
<g><path style="opacity:1" fill="#fbbf63" d="M 466.5,348.5 C 461.263,356.632 456.263,364.965 451.5,373.5C 409.503,339.069 362.503,330.236 310.5,347C 290.524,355.14 273.19,366.973 258.5,382.5C 253.114,375.936 248.281,368.936 244,361.5C 243.333,360.5 243.333,359.5 244,358.5C 270.838,325.494 305.671,307.327 348.5,304C 386.957,301.943 421.623,312.277 452.5,335C 457.669,339.003 462.336,343.503 466.5,348.5 Z"/></g>
<g><path style="opacity:1" fill="#f8b040" d="M 466.5,348.5 C 469.825,351.832 472.825,355.499 475.5,359.5C 471.247,367.679 466.247,375.346 460.5,382.5C 457.146,379.812 454.146,376.812 451.5,373.5C 456.263,364.965 461.263,356.632 466.5,348.5 Z"/></g>
<g><path style="opacity:1" fill="#f5f2f2" d="M 344.5,353.5 C 380.22,350.715 411.887,360.548 439.5,383C 443.535,386.7 447.202,390.7 450.5,395C 447.215,399.423 443.382,403.256 439,406.5C 406.256,377.012 368.423,367.845 325.5,379C 308.112,384.855 292.778,394.022 279.5,406.5C 275.301,403.136 271.635,399.302 268.5,395C 288.5,371.498 313.833,357.665 344.5,353.5 Z"/></g>
<g><path style="opacity:1" fill="#fcbf64" d="M 419.5,410.5 C 400.916,427.298 379.916,440.298 356.5,449.5C 333.861,443.679 313.194,433.846 294.5,420C 292.671,418.887 291.837,417.387 292,415.5C 314.599,395.218 341.099,386.718 371.5,390C 389.758,391.908 405.758,398.741 419.5,410.5 Z"/></g>
<g><path style="opacity:1" fill="#f9b140" d="M 419.5,410.5 C 422.563,412.051 425.229,414.218 427.5,417C 423.241,420.381 419.074,423.881 415,427.5C 414.57,430.192 414.737,432.859 415.5,435.5C 410.167,438.5 404.833,441.5 399.5,444.5C 397.359,442.032 394.692,440.366 391.5,439.5C 380.27,444.467 368.603,447.8 356.5,449.5C 379.916,440.298 400.916,427.298 419.5,410.5 Z"/></g>
</svg>
