<?xml version="1.0" encoding="UTF-8"?>
<!DOCTYPE svg PUBLIC "-//W3C//DTD SVG 1.1//EN" "http://www.w3.org/Graphics/SVG/1.1/DTD/svg11.dtd">
<svg xmlns="http://www.w3.org/2000/svg" version="1.1" width="512px" height="512px" style="shape-rendering:geometricPrecision; text-rendering:geometricPrecision; image-rendering:optimizeQuality; fill-rule:evenodd; clip-rule:evenodd" xmlns:xlink="http://www.w3.org/1999/xlink">
<g><path style="opacity:0.985" fill="#010000" d="M 136.5,31.5 C 151.837,31.3334 167.17,31.5001 182.5,32C 190.667,34.8333 196.167,40.3333 199,48.5C 199.333,58.5 199.667,68.5 200,78.5C 205.879,81.1892 211.712,84.0226 217.5,87C 221.5,87.6667 225.5,87.6667 229.5,87C 237.808,83.2564 246.474,80.7564 255.5,79.5C 255.334,69.1613 255.5,58.828 256,48.5C 258.833,40.3333 264.333,34.8333 272.5,32C 287.833,31.3333 303.167,31.3333 318.5,32C 326.667,34.8333 332.167,40.3333 335,48.5C 335.5,64.1631 335.667,79.8298 335.5,95.5C 342.175,95.6663 348.842,95.4996 355.5,95C 365.922,86.2922 377.922,81.1255 391.5,79.5C 391.334,69.1613 391.5,58.828 392,48.5C 394.833,40.3333 400.333,34.8333 408.5,32C 423.833,31.3333 439.167,31.3333 454.5,32C 462.667,34.8333 468.167,40.3333 471,48.5C 471.333,63.8333 471.667,79.1667 472,94.5C 489.05,108.595 499.383,126.595 503,148.5C 503.667,172.833 503.667,197.167 503,221.5C 491.333,279.833 479.667,338.167 468,396.5C 465.828,408.839 458.995,417.505 447.5,422.5C 438.027,446.389 421.36,453.222 397.5,443C 394,440.167 390.5,437.333 387,434.5C 384.628,440.001 382.628,445.667 381,451.5C 378.117,456.05 374.284,459.55 369.5,462C 347.897,463.633 326.231,463.967 304.5,463C 290.518,457.543 285.018,447.376 288,432.5C 289.419,429.026 290.752,425.693 292,422.5C 278.969,425.822 267.636,422.822 258,413.5C 253.201,425.232 249.201,437.232 246,449.5C 242.686,456.149 237.519,460.649 230.5,463C 209.833,463.667 189.167,463.667 168.5,463C 154.518,457.543 149.018,447.376 152,432.5C 154.757,427.318 157.257,421.985 159.5,416.5C 146.452,417.369 134.952,413.702 125,405.5C 119.399,419.97 114.399,434.637 110,449.5C 106.686,456.149 101.519,460.649 94.5,463C 73.8333,463.667 53.1667,463.667 32.5,463C 18.5184,457.543 13.0184,447.376 16,432.5C 24.2385,413.854 32.0719,395.02 39.5,376C 17.935,376.767 7.26832,366.434 7.5,345C 7.75832,325.134 12.925,306.634 23,289.5C 36,267.5 49,245.5 62,223.5C 79.6226,189.341 88.2893,153.008 88,114.5C 92.3377,97.9929 102.504,86.6595 118.5,80.5C 119.063,68.7778 119.896,57.1111 121,45.5C 124.492,38.8344 129.659,34.1678 136.5,31.5 Z"/></g>
<g><path style="opacity:1" fill="#f5ca7e" d="M 140.5,47.5 C 153.932,47.037 167.265,47.537 180.5,49C 181.701,49.9025 182.535,51.0692 183,52.5C 183.5,59.4921 183.666,66.4921 183.5,73.5C 167.444,71.9136 151.444,72.2469 135.5,74.5C 135.334,67.1591 135.5,59.8258 136,52.5C 137.025,50.313 138.525,48.6464 140.5,47.5 Z"/></g>
<g><path style="opacity:1" fill="#f7cb7f" d="M 276.5,47.5 C 289.932,47.037 303.265,47.537 316.5,49C 317.701,49.9025 318.535,51.0692 319,52.5C 319.833,64.8468 319.666,77.1802 318.5,89.5C 303.54,82.8414 287.873,79.508 271.5,79.5C 271.334,70.4938 271.5,61.4938 272,52.5C 273.025,50.313 274.525,48.6464 276.5,47.5 Z"/></g>
<g><path style="opacity:1" fill="#f7cb7f" d="M 412.5,47.5 C 425.932,47.037 439.265,47.537 452.5,49C 453.701,49.9025 454.535,51.0692 455,52.5C 455.5,63.1615 455.667,73.8281 455.5,84.5C 450.821,83.1072 446.154,81.6072 441.5,80C 430.172,79.5001 418.838,79.3335 407.5,79.5C 407.334,70.4938 407.5,61.4938 408,52.5C 409.025,50.313 410.525,48.6464 412.5,47.5 Z"/></g>
<g><path style="opacity:1" fill="#72402c" d="M 39.5,357.5 C 48.1597,338.846 59.3264,321.846 73,306.5C 88.1479,290.677 104.481,276.344 122,263.5C 122.687,261.08 122.187,258.913 120.5,257C 102.39,254.916 95.2238,245.082 99,227.5C 116.162,186.44 121.996,144.107 116.5,100.5C 146.537,83.2458 176.703,83.2458 207,100.5C 206.523,164.172 197.19,226.505 179,287.5C 171.292,312.67 163.126,337.67 154.5,362.5C 143.567,354.741 132.234,347.574 120.5,341C 104.256,334.212 87.9223,333.879 71.5,340C 60.619,345.604 49.9523,351.437 39.5,357.5 Z"/></g>
<g><path style="opacity:1" fill="#713523" d="M 255.5,96.5 C 280.251,92.6013 303.251,97.4346 324.5,111C 333.494,111.5 342.494,111.666 351.5,111.5C 350.541,166.587 341.374,220.254 324,272.5C 313.394,302.986 302.394,333.32 291,363.5C 274.766,353.7 257.266,347.366 238.5,344.5C 243.136,318.025 258.136,300.191 283.5,291C 286.425,287.304 286.092,283.971 282.5,281C 277.833,278.667 273.167,276.333 268.5,274C 262.947,269.382 261.114,263.549 263,256.5C 266.13,251.956 269.464,247.623 273,243.5C 273.743,240.217 273.076,237.217 271,234.5C 265.57,232.485 260.07,230.651 254.5,229C 246.83,223.816 243.996,216.649 246,207.5C 252.898,187.355 257.898,166.689 261,145.5C 261.953,129.07 261.12,112.737 258.5,96.5C 257.5,96.5 256.5,96.5 255.5,96.5 Z"/></g>
<g><path style="opacity:1" fill="#88503c" d="M 429.5,95.5 C 438.348,111.288 437.181,126.288 426,140.5C 419.311,144.678 412.978,149.345 407,154.5C 401.821,162.058 400.154,170.391 402,179.5C 406.431,187.624 408.931,196.291 409.5,205.5C 409.01,217.125 406.177,228.125 401,238.5C 398.565,262.41 409.065,277.243 432.5,283C 441.481,293.756 439.481,302.089 426.5,308C 423.09,309.028 419.59,309.528 416,309.5C 399.487,305.758 387.487,311.425 380,326.5C 378.231,334.28 376.731,342.114 375.5,350C 375.316,351.376 374.649,352.209 373.5,352.5C 362.481,351.064 351.481,351.231 340.5,353C 329.682,355.833 319.015,358.833 308.5,362C 326.457,317.462 341.624,271.962 354,225.5C 362.684,186.317 367.35,146.65 368,106.5C 374.425,101.538 381.591,98.0379 389.5,96C 402.829,95.5001 416.163,95.3334 429.5,95.5 Z"/></g>
<g><path style="opacity:1" fill="#72402c" d="M 429.5,95.5 C 445.804,96.4017 459.304,103.068 470,115.5C 479.463,126.428 485.129,139.095 487,153.5C 487.667,174.833 487.667,196.167 487,217.5C 475.049,278.254 462.716,338.92 450,399.5C 442.718,408.869 434.384,409.869 425,402.5C 418.191,389.709 410.024,377.876 400.5,367C 392.298,360.567 383.298,355.734 373.5,352.5C 374.649,352.209 375.316,351.376 375.5,350C 376.731,342.114 378.231,334.28 380,326.5C 387.487,311.425 399.487,305.758 416,309.5C 419.59,309.528 423.09,309.028 426.5,308C 439.481,302.089 441.481,293.756 432.5,283C 409.065,277.243 398.565,262.41 401,238.5C 406.177,228.125 409.01,217.125 409.5,205.5C 408.931,196.291 406.431,187.624 402,179.5C 400.154,170.391 401.821,162.058 407,154.5C 412.978,149.345 419.311,144.678 426,140.5C 437.181,126.288 438.348,111.288 429.5,95.5 Z"/></g>
<g><path style="opacity:1" fill="#88503c" d="M 255.5,96.5 C 256.5,96.5 257.5,96.5 258.5,96.5C 261.12,112.737 261.953,129.07 261,145.5C 257.898,166.689 252.898,187.355 246,207.5C 243.996,216.649 246.83,223.816 254.5,229C 260.07,230.651 265.57,232.485 271,234.5C 273.076,237.217 273.743,240.217 273,243.5C 269.464,247.623 266.13,251.956 263,256.5C 261.114,263.549 262.947,269.382 268.5,274C 273.167,276.333 277.833,278.667 282.5,281C 286.092,283.971 286.425,287.304 283.5,291C 258.136,300.191 243.136,318.025 238.5,344.5C 216.049,341.116 194.882,344.783 175,355.5C 181.23,333.468 187.897,311.468 195,289.5C 212.746,228.781 222.246,166.781 223.5,103.5C 226.85,103.665 230.183,103.498 233.5,103C 240.459,99.5132 247.792,97.3465 255.5,96.5 Z"/></g>
<g><path style="opacity:1" fill="#88503c" d="M 116.5,100.5 C 121.996,144.107 116.162,186.44 99,227.5C 95.2238,245.082 102.39,254.916 120.5,257C 122.187,258.913 122.687,261.08 122,263.5C 104.481,276.344 88.1479,290.677 73,306.5C 59.3264,321.846 48.1597,338.846 39.5,357.5C 33.9521,360.725 29.1188,359.725 25,354.5C 22.7663,334.593 26.7663,315.927 37,298.5C 54.6138,270.278 70.9471,241.278 86,211.5C 97.9739,180.297 104.307,147.963 105,114.5C 107.625,108.721 111.458,104.054 116.5,100.5 Z"/></g>
<g><path style="opacity:1" fill="#f7cb7e" d="M 86.5,351.5 C 98.6768,350.211 110.01,352.711 120.5,359C 121.574,359.739 122.241,360.739 122.5,362C 115.526,381.089 108.86,400.256 102.5,419.5C 98.8548,418.348 95.1882,417.182 91.5,416C 74.8233,415.833 58.1567,415.333 41.5,414.5C 48.4312,397.54 55.2645,380.54 62,363.5C 69.5162,357.991 77.6828,353.991 86.5,351.5 Z"/></g>
<g><path style="opacity:1" fill="#f6cb7e" d="M 208.5,359.5 C 224.786,358.475 240.62,360.475 256,365.5C 250.691,383.596 244.857,401.596 238.5,419.5C 234.855,418.348 231.188,417.182 227.5,416C 210.823,415.833 194.157,415.333 177.5,414.5C 184.431,397.54 191.265,380.54 198,363.5C 201.415,361.644 204.915,360.311 208.5,359.5 Z"/></g>
<g><path style="opacity:1" fill="#f6cb7e" d="M 347.5,367.5 C 362.384,365.596 375.884,368.93 388,377.5C 383.629,391.45 379.129,405.45 374.5,419.5C 370.855,418.348 367.188,417.182 363.5,416C 346.823,415.833 330.157,415.333 313.5,414.5C 319.167,400.5 324.833,386.5 330.5,372.5C 336.191,370.51 341.858,368.843 347.5,367.5 Z"/></g>
<g><path style="opacity:1" fill="#b95f49" d="M 136.5,370.5 C 142.613,374.062 148.613,377.896 154.5,382C 157.833,384 161.167,384 164.5,382C 167.833,379.333 171.167,376.667 174.5,374C 175.483,373.409 176.15,373.743 176.5,375C 173.825,381.348 171.158,387.682 168.5,394C 154.161,403.1 141.994,400.934 132,387.5C 132.16,381.515 133.66,375.848 136.5,370.5 Z"/></g>
<g><path style="opacity:1" fill="#ba6049" d="M 271.5,371.5 C 278.766,374.801 285.766,378.634 292.5,383C 298.121,382.722 303.621,381.555 309,379.5C 308.466,391.305 302.632,400.138 291.5,406C 278.587,409.747 269.587,405.414 264.5,393C 266.944,385.835 269.277,378.668 271.5,371.5 Z"/></g>
<g><path style="opacity:1" fill="#b85f49" d="M 399.5,393.5 C 401.074,393.937 402.241,394.937 403,396.5C 407.859,409.359 416.692,418.192 429.5,423C 425.102,430.028 418.769,432.695 410.5,431C 404.388,427.221 398.555,423.055 393,418.5C 392.333,416.833 392.333,415.167 393,413.5C 395.673,406.981 397.84,400.314 399.5,393.5 Z"/></g>
<g><path style="opacity:1" fill="#71402c" d="M 36.5,431.5 C 54.5031,431.333 72.5031,431.5 90.5,432C 95.5352,435.013 96.7019,439.18 94,444.5C 93.0975,445.701 91.9308,446.535 90.5,447C 72.5,447.667 54.5,447.667 36.5,447C 31.4648,443.987 30.2981,439.82 33,434.5C 34.1451,433.364 35.3117,432.364 36.5,431.5 Z"/></g>
<g><path style="opacity:1" fill="#71402c" d="M 172.5,431.5 C 190.503,431.333 208.503,431.5 226.5,432C 231.535,435.013 232.702,439.18 230,444.5C 229.097,445.701 227.931,446.535 226.5,447C 208.5,447.667 190.5,447.667 172.5,447C 167.465,443.987 166.298,439.82 169,434.5C 170.145,433.364 171.312,432.364 172.5,431.5 Z"/></g>
<g><path style="opacity:1" fill="#71402c" d="M 308.5,431.5 C 326.503,431.333 344.503,431.5 362.5,432C 367.535,435.013 368.702,439.18 366,444.5C 365.097,445.701 363.931,446.535 362.5,447C 344.5,447.667 326.5,447.667 308.5,447C 303.465,443.987 302.298,439.82 305,434.5C 306.145,433.364 307.312,432.364 308.5,431.5 Z"/></g>
</svg>
