<?xml version="1.0" encoding="UTF-8"?>
<!DOCTYPE svg PUBLIC "-//W3C//DTD SVG 1.1//EN" "http://www.w3.org/Graphics/SVG/1.1/DTD/svg11.dtd">
<svg xmlns="http://www.w3.org/2000/svg" version="1.1" width="512px" height="512px" style="shape-rendering:geometricPrecision; text-rendering:geometricPrecision; image-rendering:optimizeQuality; fill-rule:evenodd; clip-rule:evenodd" xmlns:xlink="http://www.w3.org/1999/xlink">
<g><path style="opacity:0.996" fill="#020101" d="M 511.5,158.5 C 511.5,260.5 511.5,362.5 511.5,464.5C 507.015,480.484 496.681,490.651 480.5,495C 330.5,495.667 180.5,495.667 30.5,495C 14.3186,490.651 3.98523,480.484 -0.5,464.5C -0.5,362.5 -0.5,260.5 -0.5,158.5C 4.0205,141.98 14.6872,131.98 31.5,128.5C 31.5,122.167 31.5,115.833 31.5,109.5C 23.6157,107.451 18.449,102.451 16,94.5C 15.3333,73.8333 15.3333,53.1667 16,32.5C 18.2998,25.3898 22.7998,20.2232 29.5,17C 104.777,15.8377 180.11,15.3377 255.5,15.5C 330.89,15.3377 406.223,15.8377 481.5,17C 488.2,20.2232 492.7,25.3898 495,32.5C 495.667,53.1667 495.667,73.8333 495,94.5C 492.551,102.451 487.384,107.451 479.5,109.5C 479.5,115.833 479.5,122.167 479.5,128.5C 496.313,131.98 506.979,141.98 511.5,158.5 Z"/></g>
<g><path style="opacity:1" fill="#e3636d" d="M 35.5,30.5 C 39.5,30.5 43.5,30.5 47.5,30.5C 47.5,52.1667 47.5,73.8333 47.5,95.5C 43.4862,95.6655 39.4862,95.4988 35.5,95C 33.1853,93.8906 31.6853,92.0573 31,89.5C 30.3333,71.5 30.3333,53.5 31,35.5C 32.7073,33.9625 34.2073,32.2959 35.5,30.5 Z"/></g>
<g><path style="opacity:1" fill="#e4636d" d="M 62.5,30.5 C 70.8333,30.5 79.1667,30.5 87.5,30.5C 87.5,52.1667 87.5,73.8333 87.5,95.5C 79.1667,95.5 70.8333,95.5 62.5,95.5C 62.5,73.8333 62.5,52.1667 62.5,30.5 Z"/></g>
<g><path style="opacity:1" fill="#e3636d" d="M 102.5,30.5 C 110.833,30.5 119.167,30.5 127.5,30.5C 127.5,52.1667 127.5,73.8333 127.5,95.5C 119.167,95.5 110.833,95.5 102.5,95.5C 102.5,73.8333 102.5,52.1667 102.5,30.5 Z"/></g>
<g><path style="opacity:1" fill="#fe7f85" d="M 143.5,30.5 C 151.5,30.5 159.5,30.5 167.5,30.5C 167.5,46.8333 167.5,63.1667 167.5,79.5C 159.5,79.5 151.5,79.5 143.5,79.5C 143.5,63.1667 143.5,46.8333 143.5,30.5 Z"/></g>
<g><path style="opacity:1" fill="#fe7f85" d="M 183.5,30.5 C 191.5,30.5 199.5,30.5 207.5,30.5C 207.5,46.8333 207.5,63.1667 207.5,79.5C 199.5,79.5 191.5,79.5 183.5,79.5C 183.5,63.1667 183.5,46.8333 183.5,30.5 Z"/></g>
<g><path style="opacity:1" fill="#fe7f85" d="M 327.5,30.5 C 327.5,46.8333 327.5,63.1667 327.5,79.5C 319.5,79.5 311.5,79.5 303.5,79.5C 303.5,63.1667 303.5,46.8333 303.5,30.5C 311.5,30.5 319.5,30.5 327.5,30.5 Z"/></g>
<g><path style="opacity:1" fill="#fe7f85" d="M 367.5,30.5 C 367.5,46.8333 367.5,63.1667 367.5,79.5C 359.5,79.5 351.5,79.5 343.5,79.5C 343.5,63.1667 343.5,46.8333 343.5,30.5C 351.5,30.5 359.5,30.5 367.5,30.5 Z"/></g>
<g><path style="opacity:1" fill="#fe7f85" d="M 407.5,30.5 C 407.5,46.8333 407.5,63.1667 407.5,79.5C 399.5,79.5 391.5,79.5 383.5,79.5C 383.5,63.1667 383.5,46.8333 383.5,30.5C 391.5,30.5 399.5,30.5 407.5,30.5 Z"/></g>
<g><path style="opacity:1" fill="#fe7f85" d="M 447.5,30.5 C 447.5,46.8333 447.5,63.1667 447.5,79.5C 439.5,79.5 431.5,79.5 423.5,79.5C 423.5,63.1667 423.5,46.8333 423.5,30.5C 431.5,30.5 439.5,30.5 447.5,30.5 Z"/></g>
<g><path style="opacity:1" fill="#fd7f85" d="M 480.5,79.5 C 474.833,79.5 469.167,79.5 463.5,79.5C 463.5,63.1667 463.5,46.8333 463.5,30.5C 470.016,29.237 475.516,30.9036 480,35.5C 480.5,50.1629 480.667,64.8295 480.5,79.5 Z"/></g>
<g><path style="opacity:1" fill="#df626c" d="M 143.5,30.5 C 143.5,46.8333 143.5,63.1667 143.5,79.5C 151.5,79.5 159.5,79.5 167.5,79.5C 167.5,84.8333 167.5,90.1667 167.5,95.5C 159.167,95.5 150.833,95.5 142.5,95.5C 142.169,73.6602 142.503,51.9936 143.5,30.5 Z"/></g>
<g><path style="opacity:1" fill="#dc616a" d="M 183.5,30.5 C 183.5,46.8333 183.5,63.1667 183.5,79.5C 191.5,79.5 199.5,79.5 207.5,79.5C 207.5,84.8333 207.5,90.1667 207.5,95.5C 199.167,95.5 190.833,95.5 182.5,95.5C 182.169,73.6602 182.503,51.9936 183.5,30.5 Z"/></g>
<g><path style="opacity:1" fill="#cf5c64" d="M 223.5,30.5 C 223.5,46.8333 223.5,63.1667 223.5,79.5C 231.5,79.5 239.5,79.5 247.5,79.5C 247.5,63.1667 247.5,46.8333 247.5,30.5C 248.497,51.9936 248.831,73.6602 248.5,95.5C 239.833,95.5 231.167,95.5 222.5,95.5C 222.169,73.6602 222.503,51.9936 223.5,30.5 Z"/></g>
<g><path style="opacity:1" fill="#fe7f85" d="M 223.5,30.5 C 231.5,30.5 239.5,30.5 247.5,30.5C 247.5,46.8333 247.5,63.1667 247.5,79.5C 239.5,79.5 231.5,79.5 223.5,79.5C 223.5,63.1667 223.5,46.8333 223.5,30.5 Z"/></g>
<g><path style="opacity:1" fill="#cf5c64" d="M 263.5,30.5 C 263.5,46.8333 263.5,63.1667 263.5,79.5C 271.5,79.5 279.5,79.5 287.5,79.5C 287.5,63.1667 287.5,46.8333 287.5,30.5C 288.497,51.9936 288.831,73.6602 288.5,95.5C 279.833,95.5 271.167,95.5 262.5,95.5C 262.169,73.6602 262.503,51.9936 263.5,30.5 Z"/></g>
<g><path style="opacity:1" fill="#fe7f85" d="M 263.5,30.5 C 271.5,30.5 279.5,30.5 287.5,30.5C 287.5,46.8333 287.5,63.1667 287.5,79.5C 279.5,79.5 271.5,79.5 263.5,79.5C 263.5,63.1667 263.5,46.8333 263.5,30.5 Z"/></g>
<g><path style="opacity:1" fill="#dc616a" d="M 327.5,30.5 C 328.497,51.9936 328.831,73.6602 328.5,95.5C 320.167,95.5 311.833,95.5 303.5,95.5C 303.5,90.1667 303.5,84.8333 303.5,79.5C 311.5,79.5 319.5,79.5 327.5,79.5C 327.5,63.1667 327.5,46.8333 327.5,30.5 Z"/></g>
<g><path style="opacity:1" fill="#df626c" d="M 367.5,30.5 C 368.497,51.9936 368.831,73.6602 368.5,95.5C 360.167,95.5 351.833,95.5 343.5,95.5C 343.5,90.1667 343.5,84.8333 343.5,79.5C 351.5,79.5 359.5,79.5 367.5,79.5C 367.5,63.1667 367.5,46.8333 367.5,30.5 Z"/></g>
<g><path style="opacity:1" fill="#e2646d" d="M 407.5,30.5 C 408.497,51.9936 408.831,73.6602 408.5,95.5C 400.167,95.5 391.833,95.5 383.5,95.5C 383.5,90.1667 383.5,84.8333 383.5,79.5C 391.5,79.5 399.5,79.5 407.5,79.5C 407.5,63.1667 407.5,46.8333 407.5,30.5 Z"/></g>
<g><path style="opacity:1" fill="#e4656e" d="M 447.5,30.5 C 448.497,51.9936 448.831,73.6602 448.5,95.5C 440.167,95.5 431.833,95.5 423.5,95.5C 423.5,90.1667 423.5,84.8333 423.5,79.5C 431.5,79.5 439.5,79.5 447.5,79.5C 447.5,63.1667 447.5,46.8333 447.5,30.5 Z"/></g>
<g><path style="opacity:1" fill="#e3636d" d="M 463.5,79.5 C 469.167,79.5 474.833,79.5 480.5,79.5C 482.606,93.0605 476.939,98.3938 463.5,95.5C 463.5,90.1667 463.5,84.8333 463.5,79.5 Z"/></g>
<g><path style="opacity:1" fill="#e9ba81" d="M 448.5,135.5 C 442.833,135.5 437.167,135.5 431.5,135.5C 431.062,131.808 429.062,129.308 425.5,128C 299.167,127.5 172.834,127.333 46.5,127.5C 46.5,121.833 46.5,116.167 46.5,110.5C 185.833,110.5 325.167,110.5 464.5,110.5C 464.5,116.167 464.5,121.833 464.5,127.5C 460.818,127.335 457.152,127.501 453.5,128C 450.211,129.41 448.544,131.91 448.5,135.5 Z"/></g>
<g><path style="opacity:1" fill="#fedf9e" d="M 431.5,135.5 C 437.167,135.5 442.833,135.5 448.5,135.5C 448.933,138.195 450.266,140.362 452.5,142C 460.5,142.333 468.5,142.667 476.5,143C 486.567,145.4 493.067,151.566 496,161.5C 496.829,262.207 496.662,362.873 495.5,463.5C 487.184,463.023 482.017,458.69 480,450.5C 479.667,354.833 479.333,259.167 479,163.5C 477.833,162.333 476.667,161.167 475.5,160C 343.5,159.5 211.5,159.333 79.5,159.5C 79.5,154.167 79.5,148.833 79.5,143.5C 195.001,143.833 310.335,143.5 425.5,142.5C 428.932,141.401 430.932,139.067 431.5,135.5 Z"/></g>
<g><path style="opacity:1" fill="#f5d08f" d="M 425.5,142.5 C 310.335,143.5 195.001,143.833 79.5,143.5C 79.5,148.833 79.5,154.167 79.5,159.5C 211.5,159.333 343.5,159.5 475.5,160C 476.667,161.167 477.833,162.333 479,163.5C 479.333,259.167 479.667,354.833 480,450.5C 482.017,458.69 487.184,463.023 495.5,463.5C 492.228,471.937 486.228,477.437 477.5,480C 329.5,480.667 181.5,480.667 33.5,480C 24,477.167 17.8333,471 15,461.5C 14.3333,361.5 14.3333,261.5 15,161.5C 17.8333,152 24,145.833 33.5,143C 164.166,142.5 294.833,142.333 425.5,142.5 Z"/></g>
<g><path style="opacity:1" fill="#ecbd83" d="M 79.5,159.5 C 79.3333,247.834 79.5,336.167 80,424.5C 84.6408,444.474 96.8075,457.307 116.5,463C 89.5,463.667 62.5,463.667 35.5,463C 33.6667,462.5 32.5,461.333 32,459.5C 31.3333,360.833 31.3333,262.167 32,163.5C 33.1667,162.333 34.3333,161.167 35.5,160C 50.1629,159.5 64.8295,159.333 79.5,159.5 Z"/></g>
<g><path style="opacity:1" fill="#060403" d="M 160.5,434.5 C 160.5,432.833 160.5,431.167 160.5,429.5C 160.916,427.248 162.249,425.748 164.5,425C 241.915,424.994 319.248,424.328 396.5,423C 398.049,421.786 399.215,420.286 400,418.5C 400.832,346.999 400.665,275.665 399.5,204.5C 398.732,201.438 396.732,199.772 393.5,199.5C 347.501,198.833 301.335,198.5 255,198.5C 208.084,198.338 161.251,198.838 114.5,200C 112.951,201.214 111.785,202.714 111,204.5C 110.333,275.833 110.333,347.167 111,418.5C 112.167,421 114,422.833 116.5,424C 123.833,424.333 131.167,424.667 138.5,425C 140.923,426.571 142.256,428.737 142.5,431.5C 142.5,431.833 142.5,432.167 142.5,432.5C 142.16,435.675 140.493,437.841 137.5,439C 129.5,439.667 121.5,439.667 113.5,439C 104.573,435.74 98.7392,429.573 96,420.5C 95.3333,347.833 95.3333,275.167 96,202.5C 98.8333,193 105,186.833 114.5,184C 207.833,183.333 301.167,183.333 394.5,184C 405.119,185.951 411.952,192.118 415,202.5C 415.667,274.833 415.667,347.167 415,419.5C 412.491,430.009 405.991,436.509 395.5,439C 318.5,439.667 241.5,439.667 164.5,439C 162.616,437.951 161.282,436.451 160.5,434.5 Z"/></g>
<g><path style="opacity:1" fill="#e0626c" d="M 393.5,199.5 C 304.833,199.5 216.167,199.5 127.5,199.5C 127.333,260.834 127.5,322.168 128,383.5C 131.833,395.333 139.667,403.167 151.5,407C 234.166,407.5 316.833,407.667 399.5,407.5C 399.5,339.833 399.5,272.167 399.5,204.5C 400.665,275.665 400.832,346.999 400,418.5C 399.215,420.286 398.049,421.786 396.5,423C 319.248,424.328 241.915,424.994 164.5,425C 162.249,425.748 160.916,427.248 160.5,429.5C 154.792,431.386 148.792,432.053 142.5,431.5C 142.256,428.737 140.923,426.571 138.5,425C 131.167,424.667 123.833,424.333 116.5,424C 114,422.833 112.167,421 111,418.5C 110.333,347.167 110.333,275.833 111,204.5C 111.785,202.714 112.951,201.214 114.5,200C 161.251,198.838 208.084,198.338 255,198.5C 301.335,198.5 347.501,198.833 393.5,199.5 Z"/></g>
<g><path style="opacity:1" fill="#fd7f85" d="M 393.5,199.5 C 396.732,199.772 398.732,201.438 399.5,204.5C 399.5,272.167 399.5,339.833 399.5,407.5C 316.833,407.667 234.166,407.5 151.5,407C 139.667,403.167 131.833,395.333 128,383.5C 127.5,322.168 127.333,260.834 127.5,199.5C 216.167,199.5 304.833,199.5 393.5,199.5 Z"/></g>
<g><path style="opacity:1" fill="#020101" d="M 147.5,232.5 C 163.503,232.333 179.503,232.5 195.5,233C 199.749,237.801 199.416,242.134 194.5,246C 178.833,246.667 163.167,246.667 147.5,246C 142.248,241.506 142.248,237.006 147.5,232.5 Z"/></g>
<g><path style="opacity:1" fill="#040302" d="M 248.5,232.5 C 277.043,232.208 289.543,246.208 286,274.5C 287,275.5 288,276.5 289,277.5C 297.859,301.026 314.026,317.192 337.5,326C 348.773,334.483 352.94,345.65 350,359.5C 343.939,378.125 331.105,385.958 311.5,383C 303.905,380.398 297.738,375.898 293,369.5C 284.5,346.333 268.667,330.5 245.5,322C 242.745,320.289 240.411,318.122 238.5,315.5C 236.142,317.024 234.309,319.024 233,321.5C 230.003,330.528 225.17,338.361 218.5,345C 201.475,355.442 186.309,353.275 173,338.5C 163.042,320.47 166.209,305.303 182.5,293C 196.884,287.292 209.051,278.458 219,266.5C 222.809,258.744 226.809,251.078 231,243.5C 235.88,238.152 241.714,234.486 248.5,232.5 Z"/></g>
<g><path style="opacity:1" fill="#020101" d="M 315.5,232.5 C 331.503,232.333 347.503,232.5 363.5,233C 368.833,237.333 368.833,241.667 363.5,246C 347.833,246.667 332.167,246.667 316.5,246C 311.529,241.966 311.196,237.466 315.5,232.5 Z"/></g>
<g><path style="opacity:1" fill="#e7ba81" d="M 231.5,297.5 C 222.544,305.989 212.211,312.489 200.5,317C 195.236,321.696 192.236,327.529 191.5,334.5C 182.61,329.51 180.11,322.176 184,312.5C 185.141,310.391 186.641,308.558 188.5,307C 205.251,300.036 219.417,289.536 231,275.5C 235.194,268.446 238.861,261.112 242,253.5C 248.945,246.931 256.778,245.764 265.5,250C 270.142,254.117 272.475,259.284 272.5,265.5C 255.287,261.528 242.453,267.195 234,282.5C 231.967,287.295 231.134,292.295 231.5,297.5 Z"/></g>
<g><path style="opacity:1" fill="#040101" d="M 147.5,264.5 C 155.174,264.334 162.841,264.5 170.5,265C 174.124,267.161 175.291,270.328 174,274.5C 173.5,276.333 172.333,277.5 170.5,278C 162.833,278.667 155.167,278.667 147.5,278C 142.248,273.506 142.248,269.006 147.5,264.5 Z"/></g>
<g><path style="opacity:1" fill="#040202" d="M 340.5,264.5 C 348.174,264.334 355.841,264.5 363.5,265C 368.833,269.333 368.833,273.667 363.5,278C 355.5,278.667 347.5,278.667 339.5,278C 335.305,273.044 335.639,268.544 340.5,264.5 Z"/></g>
<g><path style="opacity:1" fill="#f3ce8e" d="M 255.5,281.5 C 255.71,288.753 258.71,294.586 264.5,299C 288.974,308.808 306.141,325.974 316,350.5C 320.697,356.599 326.863,359.599 334.5,359.5C 330.06,367.132 323.393,369.966 314.5,368C 312.336,367.086 310.336,365.919 308.5,364.5C 304.08,357.329 299.914,349.996 296,342.5C 285.787,326.985 271.954,316.151 254.5,310C 246.185,303.714 244.352,295.881 249,286.5C 250.777,284.21 252.944,282.543 255.5,281.5 Z"/></g>
<g><path style="opacity:1" fill="#f2cd8d" d="M 231.5,297.5 C 231.649,298.552 231.483,299.552 231,300.5C 227.667,304.5 224.333,308.5 221,312.5C 217.537,319.571 213.704,326.405 209.5,333C 203.65,336.887 197.65,337.387 191.5,334.5C 192.236,327.529 195.236,321.696 200.5,317C 212.211,312.489 222.544,305.989 231.5,297.5 Z"/></g>
<g><path style="opacity:1" fill="#fadb9c" d="M 334.5,359.5 C 326.863,359.599 320.697,356.599 316,350.5C 306.141,325.974 288.974,308.808 264.5,299C 258.71,294.586 255.71,288.753 255.5,281.5C 263.741,277.694 270.907,279.361 277,286.5C 286.833,311 304,328.167 328.5,338C 336.118,343.679 338.118,350.845 334.5,359.5 Z"/></g>
<g><path style="opacity:1" fill="#080303" d="M 148.5,376.5 C 171.836,376.333 195.169,376.5 218.5,377C 222.212,379.513 223.378,383.013 222,387.5C 220.786,389.049 219.286,390.215 217.5,391C 194.5,391.667 171.5,391.667 148.5,391C 141.848,385.986 141.848,381.153 148.5,376.5 Z"/></g>
<g><path style="opacity:1" fill="#d98d76" d="M 160.5,429.5 C 160.5,431.167 160.5,432.833 160.5,434.5C 154.792,432.614 148.792,431.947 142.5,432.5C 142.5,432.167 142.5,431.833 142.5,431.5C 148.792,432.053 154.792,431.386 160.5,429.5 Z"/></g>
</svg>
