<?xml version="1.0" encoding="UTF-8"?>
<!DOCTYPE svg PUBLIC "-//W3C//DTD SVG 1.1//EN" "http://www.w3.org/Graphics/SVG/1.1/DTD/svg11.dtd">
<svg xmlns="http://www.w3.org/2000/svg" version="1.1" width="512px" height="512px" style="shape-rendering:geometricPrecision; text-rendering:geometricPrecision; image-rendering:optimizeQuality; fill-rule:evenodd; clip-rule:evenodd" xmlns:xlink="http://www.w3.org/1999/xlink">
<g><path style="opacity:0.991" fill="#020100" d="M 51.5,-0.5 C 188.833,-0.5 326.167,-0.5 463.5,-0.5C 488.599,8.35707 499.432,26.0237 496,52.5C 492.925,64.9854 485.759,74.3187 474.5,80.5C 473.501,92.1477 473.168,103.814 473.5,115.5C 488.364,120.858 496.197,131.525 497,147.5C 497.667,247.833 497.667,348.167 497,448.5C 494.523,482.134 477.023,503.134 444.5,511.5C 318.5,511.5 192.5,511.5 66.5,511.5C 38.8439,504.677 21.6773,487.343 15,459.5C 14.3333,352.833 14.3333,246.167 15,139.5C 19.3789,124.62 29.2122,115.953 44.5,113.5C 44.8319,103.145 44.4986,92.8119 43.5,82.5C 20.0143,69.5643 12.5143,50.231 21,24.5C 27.4575,11.5362 37.6241,3.20287 51.5,-0.5 Z"/></g>
<g><path style="opacity:1" fill="#fabd58" d="M 56.5,19.5 C 190.167,19.3333 323.834,19.5 457.5,20C 475.277,26.6796 480.11,38.5129 472,55.5C 468.245,60.2953 463.412,63.462 457.5,65C 323.833,65.6667 190.167,65.6667 56.5,65C 38.5493,57.8149 34.0493,45.6482 43,28.5C 46.8258,24.3476 51.3258,21.3476 56.5,19.5 Z"/></g>
<g><path style="opacity:1" fill="#fed79d" d="M 65.5,85.5 C 194.5,85.5 323.5,85.5 452.5,85.5C 452.5,94.8333 452.5,104.167 452.5,113.5C 323.5,113.5 194.5,113.5 65.5,113.5C 65.5,104.167 65.5,94.8333 65.5,85.5 Z"/></g>
<g><path style="opacity:1" fill="#c58964" d="M 475.5,144.5 C 475.5,154.5 475.5,164.5 475.5,174.5C 328.833,174.5 182.167,174.5 35.5,174.5C 35.5,164.5 35.5,154.5 35.5,144.5C 36.8633,140.298 39.5299,137.131 43.5,135C 184.5,134.333 325.5,134.333 466.5,135C 471.052,136.718 474.052,139.885 475.5,144.5 Z"/></g>
<g><path style="opacity:1" fill="#473124" d="M 35.5,144.5 C 35.5,154.5 35.5,164.5 35.5,174.5C 182.167,174.5 328.833,174.5 475.5,174.5C 475.5,164.5 475.5,154.5 475.5,144.5C 476.494,154.653 476.828,164.986 476.5,175.5C 329.167,175.5 181.833,175.5 34.5,175.5C 34.1724,164.986 34.5058,154.653 35.5,144.5 Z"/></g>
<g><path style="opacity:1" fill="#cae457" d="M 35.5,195.5 C 182.167,195.5 328.833,195.5 475.5,195.5C 475.5,262.167 475.5,328.833 475.5,395.5C 414.664,395.168 353.998,395.501 293.5,396.5C 289.5,397.167 287.167,399.5 286.5,403.5C 285.596,404.209 285.263,405.209 285.5,406.5C 278.833,406.5 272.167,406.5 265.5,406.5C 265.018,400.347 261.685,396.681 255.5,395.5C 249.447,396.22 246.113,399.553 245.5,405.5C 237.92,406.466 230.253,406.799 222.5,406.5C 222.42,401.087 219.753,397.754 214.5,396.5C 155.002,395.501 95.3357,395.168 35.5,395.5C 35.5,328.833 35.5,262.167 35.5,195.5 Z"/></g>
<g><path style="opacity:1" fill="#030301" d="M 214.5,220.5 C 244.408,219.778 266.408,232.444 280.5,258.5C 309.495,272.5 322.995,295.5 321,327.5C 312.281,356.463 292.781,368.629 262.5,364C 242.059,358.368 226.892,346.202 217,327.5C 198.404,318.237 185.404,303.904 178,284.5C 170.787,251.91 182.954,230.576 214.5,220.5 Z"/></g>
<g><path style="opacity:1" fill="#fdbf59" d="M 214.5,241.5 C 231.201,239.464 245.035,244.798 256,257.5C 260.204,263.457 264.037,269.624 267.5,276C 287.524,282.845 298.857,296.679 301.5,317.5C 300.761,335.072 291.594,344.072 274,344.5C 260.042,343.52 248.709,337.52 240,326.5C 237.04,321.414 234.206,316.247 231.5,311C 222.268,307.47 214.102,302.304 207,295.5C 197.904,284.787 194.571,272.454 197,258.5C 200.207,250.006 206.04,244.339 214.5,241.5 Z"/></g>
<g><path style="opacity:1" fill="#4b5520" d="M 35.5,195.5 C 35.5,262.167 35.5,328.833 35.5,395.5C 95.3357,395.168 155.002,395.501 214.5,396.5C 154.5,396.5 94.5,396.5 34.5,396.5C 34.1675,329.331 34.5008,262.331 35.5,195.5 Z"/></g>
<g><path style="opacity:1" fill="#4d5621" d="M 475.5,195.5 C 476.499,262.331 476.832,329.331 476.5,396.5C 415.5,396.5 354.5,396.5 293.5,396.5C 353.998,395.501 414.664,395.168 475.5,395.5C 475.5,328.833 475.5,262.167 475.5,195.5 Z"/></g>
<g><path style="opacity:1" fill="#080703" d="M 265.5,406.5 C 263.702,415.04 258.702,417.874 250.5,415C 247.108,412.715 245.441,409.548 245.5,405.5C 246.113,399.553 249.447,396.22 255.5,395.5C 261.685,396.681 265.018,400.347 265.5,406.5 Z"/></g>
<g><path style="opacity:1" fill="#c48964" d="M 286.5,403.5 C 285.28,409.743 287.613,413.743 293.5,415.5C 353.998,416.499 414.664,416.832 475.5,416.5C 475.5,428.5 475.5,440.5 475.5,452.5C 471.885,473.617 459.552,486.45 438.5,491C 316.5,491.667 194.5,491.667 72.5,491C 51.9175,486.584 39.5842,474.084 35.5,453.5C 35.5,441.167 35.5,428.833 35.5,416.5C 95.3357,416.832 155.002,416.499 214.5,415.5C 219.228,414.401 221.895,411.401 222.5,406.5C 230.253,406.799 237.92,406.466 245.5,405.5C 245.441,409.548 247.108,412.715 250.5,415C 258.702,417.874 263.702,415.04 265.5,406.5C 272.167,406.5 278.833,406.5 285.5,406.5C 285.263,405.209 285.596,404.209 286.5,403.5 Z"/></g>
<g><path style="opacity:1" fill="#483225" d="M 214.5,415.5 C 155.002,416.499 95.3357,416.832 35.5,416.5C 35.5,428.833 35.5,441.167 35.5,453.5C 34.5046,441.011 34.1713,428.344 34.5,415.5C 94.5,415.5 154.5,415.5 214.5,415.5 Z"/></g>
<g><path style="opacity:1" fill="#5d4130" d="M 293.5,415.5 C 354.5,415.5 415.5,415.5 476.5,415.5C 476.829,428.011 476.495,440.345 475.5,452.5C 475.5,440.5 475.5,428.5 475.5,416.5C 414.664,416.832 353.998,416.499 293.5,415.5 Z"/></g>
</svg>
