<?xml version="1.0" encoding="UTF-8"?>
<!DOCTYPE svg PUBLIC "-//W3C//DTD SVG 1.1//EN" "http://www.w3.org/Graphics/SVG/1.1/DTD/svg11.dtd">
<svg xmlns="http://www.w3.org/2000/svg" version="1.1" width="512px" height="512px" style="shape-rendering:geometricPrecision; text-rendering:geometricPrecision; image-rendering:optimizeQuality; fill-rule:evenodd; clip-rule:evenodd" xmlns:xlink="http://www.w3.org/1999/xlink">
<g><path style="opacity:0.993" fill="#020101" d="M 97.5,-0.5 C 202.833,-0.5 308.167,-0.5 413.5,-0.5C 417.811,1.6467 420.978,4.98004 423,9.5C 423.667,29.1667 423.667,48.8333 423,68.5C 420.306,74.9359 415.472,78.6026 408.5,79.5C 405.963,91.6037 407.796,102.937 414,113.5C 432.695,131.862 451.029,150.528 469,169.5C 473.681,176.531 477.015,184.198 479,192.5C 479.667,290.833 479.667,389.167 479,487.5C 475.651,500.015 467.818,508.015 455.5,511.5C 322.167,511.5 188.833,511.5 55.5,511.5C 43.1824,508.015 35.349,500.015 32,487.5C 31.3333,389.167 31.3333,290.833 32,192.5C 33.9854,184.198 37.3188,176.531 42,169.5C 59.9712,150.528 78.3046,131.862 97,113.5C 103.205,102.949 105.038,91.6159 102.5,79.5C 95.5278,78.6026 90.6945,74.9359 88,68.5C 87.3333,48.8333 87.3333,29.1667 88,9.5C 90.0223,4.98004 93.189,1.6467 97.5,-0.5 Z"/></g>
<g><path style="opacity:1" fill="#e3636d" d="M 159.5,14.5 C 159.5,20.1667 159.5,25.8333 159.5,31.5C 155.91,31.5441 153.41,33.2108 152,36.5C 151.5,45.4938 151.334,54.4938 151.5,63.5C 145.833,63.5 140.167,63.5 134.5,63.5C 134.666,54.1607 134.5,44.8274 134,35.5C 128.837,29.9377 124.171,30.271 120,36.5C 119.5,45.4938 119.334,54.4938 119.5,63.5C 113.833,63.5 108.167,63.5 102.5,63.5C 102.5,47.1667 102.5,30.8333 102.5,14.5C 121.5,14.5 140.5,14.5 159.5,14.5 Z"/></g>
<g><path style="opacity:1" fill="#fe7f85" d="M 159.5,14.5 C 242.167,14.5 324.833,14.5 407.5,14.5C 407.5,25.5 407.5,36.5 407.5,47.5C 402.167,47.5 396.833,47.5 391.5,47.5C 391.665,43.8183 391.499,40.1516 391,36.5C 388.774,32.1392 385.274,30.6392 380.5,32C 378.536,33.451 377.203,35.2843 376.5,37.5C 375.521,40.6248 375.187,43.9581 375.5,47.5C 370.167,47.5 364.833,47.5 359.5,47.5C 360.257,42.1919 359.257,37.3586 356.5,33C 350.681,29.9851 346.681,31.4851 344.5,37.5C 343.521,40.6248 343.187,43.9581 343.5,47.5C 338.167,47.5 332.833,47.5 327.5,47.5C 327.665,43.8183 327.499,40.1516 327,36.5C 321.428,29.522 316.594,29.8553 312.5,37.5C 311.521,40.6248 311.187,43.9581 311.5,47.5C 306.167,47.5 300.833,47.5 295.5,47.5C 295.665,43.8183 295.499,40.1516 295,36.5C 289.428,29.522 284.594,29.8553 280.5,37.5C 279.521,40.6248 279.187,43.9581 279.5,47.5C 274.167,47.5 268.833,47.5 263.5,47.5C 263.813,43.9581 263.479,40.6248 262.5,37.5C 260.797,32.8133 257.463,30.9799 252.5,32C 250.536,33.451 249.203,35.2843 248.5,37.5C 247.521,40.6248 247.187,43.9581 247.5,47.5C 242.167,47.5 236.833,47.5 231.5,47.5C 231.813,43.9581 231.479,40.6248 230.5,37.5C 228.002,31.5818 224.002,30.2485 218.5,33.5C 217.575,34.3569 216.908,35.3569 216.5,36.5C 215.518,39.9619 215.185,43.6286 215.5,47.5C 210.167,47.5 204.833,47.5 199.5,47.5C 199.813,43.9581 199.479,40.6248 198.5,37.5C 194.225,30.0156 189.391,29.6823 184,36.5C 183.501,40.1516 183.335,43.8183 183.5,47.5C 178.167,47.5 172.833,47.5 167.5,47.5C 167.813,43.9581 167.479,40.6248 166.5,37.5C 165.422,34.0922 163.089,32.0922 159.5,31.5C 159.5,25.8333 159.5,20.1667 159.5,14.5 Z"/></g>
<g><path style="opacity:1" fill="#df616b" d="M 166.5,37.5 C 167.479,40.6248 167.813,43.9581 167.5,47.5C 172.833,47.5 178.167,47.5 183.5,47.5C 183.5,52.8333 183.5,58.1667 183.5,63.5C 177.833,63.5 172.167,63.5 166.5,63.5C 166.5,54.8333 166.5,46.1667 166.5,37.5 Z"/></g>
<g><path style="opacity:1" fill="#d45d66" d="M 216.5,36.5 C 216.5,45.5 216.5,54.5 216.5,63.5C 210.5,63.5 204.5,63.5 198.5,63.5C 198.5,54.8333 198.5,46.1667 198.5,37.5C 199.479,40.6248 199.813,43.9581 199.5,47.5C 204.833,47.5 210.167,47.5 215.5,47.5C 215.185,43.6286 215.518,39.9619 216.5,36.5 Z"/></g>
<g><path style="opacity:1" fill="#d45d66" d="M 230.5,37.5 C 231.479,40.6248 231.813,43.9581 231.5,47.5C 236.833,47.5 242.167,47.5 247.5,47.5C 247.187,43.9581 247.521,40.6248 248.5,37.5C 248.5,46.1667 248.5,54.8333 248.5,63.5C 242.5,63.5 236.5,63.5 230.5,63.5C 230.5,54.8333 230.5,46.1667 230.5,37.5 Z"/></g>
<g><path style="opacity:1" fill="#d45d66" d="M 262.5,37.5 C 263.479,40.6248 263.813,43.9581 263.5,47.5C 268.833,47.5 274.167,47.5 279.5,47.5C 279.187,43.9581 279.521,40.6248 280.5,37.5C 280.5,46.1667 280.5,54.8333 280.5,63.5C 274.5,63.5 268.5,63.5 262.5,63.5C 262.5,54.8333 262.5,46.1667 262.5,37.5 Z"/></g>
<g><path style="opacity:1" fill="#dd616a" d="M 312.5,37.5 C 312.5,46.1667 312.5,54.8333 312.5,63.5C 306.833,63.5 301.167,63.5 295.5,63.5C 295.5,58.1667 295.5,52.8333 295.5,47.5C 300.833,47.5 306.167,47.5 311.5,47.5C 311.187,43.9581 311.521,40.6248 312.5,37.5 Z"/></g>
<g><path style="opacity:1" fill="#df616b" d="M 344.5,37.5 C 344.5,46.1667 344.5,54.8333 344.5,63.5C 338.833,63.5 333.167,63.5 327.5,63.5C 327.5,58.1667 327.5,52.8333 327.5,47.5C 332.833,47.5 338.167,47.5 343.5,47.5C 343.187,43.9581 343.521,40.6248 344.5,37.5 Z"/></g>
<g><path style="opacity:1" fill="#e0626c" d="M 376.5,37.5 C 376.5,46.1667 376.5,54.8333 376.5,63.5C 370.833,63.5 365.167,63.5 359.5,63.5C 359.5,58.1667 359.5,52.8333 359.5,47.5C 364.833,47.5 370.167,47.5 375.5,47.5C 375.187,43.9581 375.521,40.6248 376.5,37.5 Z"/></g>
<g><path style="opacity:1" fill="#e1636d" d="M 407.5,14.5 C 408.496,30.6581 408.83,46.9915 408.5,63.5C 402.833,63.5 397.167,63.5 391.5,63.5C 391.5,58.1667 391.5,52.8333 391.5,47.5C 396.833,47.5 402.167,47.5 407.5,47.5C 407.5,36.5 407.5,25.5 407.5,14.5 Z"/></g>
<g><path style="opacity:1" fill="#b0bccd" d="M 392.5,95.5 C 392.167,95.5 391.833,95.5 391.5,95.5C 391.5,90.1667 391.5,84.8333 391.5,79.5C 300.833,79.5 210.167,79.5 119.5,79.5C 119.821,85.0262 119.488,90.3595 118.5,95.5C 118.5,89.8333 118.5,84.1667 118.5,78.5C 209.833,78.5 301.167,78.5 392.5,78.5C 392.5,84.1667 392.5,89.8333 392.5,95.5 Z"/></g>
<g><path style="opacity:1" fill="#ccdbef" d="M 391.5,95.5 C 327.832,95.3333 264.166,95.5 200.5,96C 193.091,98.4084 187.924,103.242 185,110.5C 183.59,119.084 183.09,127.75 183.5,136.5C 172.571,140.124 161.904,144.624 151.5,150C 143.23,151.537 134.897,151.87 126.5,151C 116.724,146.695 106.891,142.529 97,138.5C 95.7425,138.15 95.4092,137.483 96,136.5C 109.771,126.292 117.271,112.626 118.5,95.5C 119.488,90.3595 119.821,85.0262 119.5,79.5C 210.167,79.5 300.833,79.5 391.5,79.5C 391.5,84.8333 391.5,90.1667 391.5,95.5 Z"/></g>
<g><path style="opacity:1" fill="#dee7f6" d="M 391.5,95.5 C 391.833,95.5 392.167,95.5 392.5,95.5C 392.793,103.212 394.626,110.546 398,117.5C 402.94,124.277 408.44,130.61 414.5,136.5C 404.512,142.657 393.846,147.491 382.5,151C 375.5,151.667 368.5,151.667 361.5,151C 353.261,147.881 345.261,144.214 337.5,140C 324.039,134.947 310.372,134.28 296.5,138C 288.261,141.119 280.261,144.786 272.5,149C 261.912,151.863 251.246,152.196 240.5,150C 231.884,145.193 222.884,141.193 213.5,138C 203.585,135.483 193.585,134.983 183.5,136.5C 183.09,127.75 183.59,119.084 185,110.5C 187.924,103.242 193.091,98.4084 200.5,96C 264.166,95.5 327.832,95.3333 391.5,95.5 Z"/></g>
<g><path style="opacity:1" fill="#775252" d="M 183.5,152.5 C 183.5,170.833 183.5,189.167 183.5,207.5C 137.833,207.5 92.1667,207.5 46.5,207.5C 45.6503,198.566 47.4837,190.233 52,182.5C 62.0117,171.322 72.5117,160.655 83.5,150.5C 95.5939,153.046 106.927,157.546 117.5,164C 129.75,166.913 142.084,167.246 154.5,165C 164.199,160.815 173.866,156.648 183.5,152.5 Z"/></g>
<g><path style="opacity:1" fill="#95695a" d="M 416.5,215.5 C 410.208,214.947 404.208,215.614 398.5,217.5C 399.542,212.867 397.875,209.701 393.5,208C 323.501,207.5 253.501,207.333 183.5,207.5C 183.5,189.167 183.5,170.833 183.5,152.5C 191.965,150.067 200.632,149.9 209.5,152C 219.048,156.608 228.715,160.941 238.5,165C 250.575,167.219 262.575,166.886 274.5,164C 283.648,160.258 292.648,156.258 301.5,152C 312.035,149.613 322.369,150.28 332.5,154C 340.261,158.214 348.261,161.881 356.5,165C 367.492,166.973 378.492,166.973 389.5,165C 399.46,160.69 409.46,156.356 419.5,152C 422.833,151.333 426.167,151.333 429.5,152C 438.667,161.167 447.833,170.333 457,179.5C 462.931,187.887 465.431,197.22 464.5,207.5C 450.163,207.333 435.829,207.5 421.5,208C 418.211,209.41 416.544,211.91 416.5,215.5 Z"/></g>
<g><path style="opacity:1" fill="#ebe9eb" d="M 416.5,215.5 C 416.41,219.665 418.41,221.998 422.5,222.5C 435.99,223.496 449.656,223.829 463.5,223.5C 463.5,298.167 463.5,372.833 463.5,447.5C 370.167,447.5 276.833,447.5 183.5,447.5C 183.169,421.328 183.502,395.328 184.5,369.5C 202.54,391.044 225.207,405.878 252.5,414C 283.243,407.546 308.41,392.046 328,367.5C 341.706,347.016 346.372,324.683 342,300.5C 330.691,268.753 308.191,254.587 274.5,258C 268.171,260.334 261.671,261.834 255,262.5C 247.768,261.425 240.601,259.925 233.5,258C 214.569,255.256 198.235,260.423 184.5,273.5C 183.503,257.008 183.17,240.342 183.5,223.5C 253.669,223.833 323.669,223.499 393.5,222.5C 396.167,221.833 397.833,220.167 398.5,217.5C 404.208,215.614 410.208,214.947 416.5,215.5 Z"/></g>
<g><path style="opacity:1" fill="#d8d6d9" d="M 393.5,222.5 C 323.669,223.499 253.669,223.833 183.5,223.5C 183.17,240.342 183.503,257.008 184.5,273.5C 165.12,295.936 161.286,320.936 173,348.5C 175.825,356.131 179.658,363.131 184.5,369.5C 183.502,395.328 183.169,421.328 183.5,447.5C 276.833,447.5 370.167,447.5 463.5,447.5C 463.5,372.833 463.5,298.167 463.5,223.5C 449.656,223.829 435.99,223.496 422.5,222.5C 436.5,222.5 450.5,222.5 464.5,222.5C 464.5,297.833 464.5,373.167 464.5,448.5C 325.167,448.5 185.833,448.5 46.5,448.5C 46.5,373.167 46.5,297.833 46.5,222.5C 162.167,222.5 277.833,222.5 393.5,222.5 Z"/></g>
<g><path style="opacity:1" fill="#010101" d="M 83.5,256.5 C 104.503,256.333 125.503,256.5 146.5,257C 150.696,259.981 151.529,263.814 149,268.5C 148.25,269.126 147.416,269.626 146.5,270C 125.5,270.667 104.5,270.667 83.5,270C 78.2086,265.423 78.2086,260.923 83.5,256.5 Z"/></g>
<g><path style="opacity:1" fill="#030202" d="M 184.5,369.5 C 179.658,363.131 175.825,356.131 173,348.5C 161.286,320.936 165.12,295.936 184.5,273.5C 198.235,260.423 214.569,255.256 233.5,258C 240.601,259.925 247.768,261.425 255,262.5C 261.671,261.834 268.171,260.334 274.5,258C 308.191,254.587 330.691,268.753 342,300.5C 346.372,324.683 341.706,347.016 328,367.5C 308.41,392.046 283.243,407.546 252.5,414C 225.207,405.878 202.54,391.044 184.5,369.5 Z"/></g>
<g><path style="opacity:1" fill="#efd7af" d="M 214.5,272.5 C 221.175,272.334 227.842,272.5 234.5,273C 248.461,278.852 262.461,278.852 276.5,273C 282.833,272.333 289.167,272.333 295.5,273C 296.938,273.219 298.271,273.719 299.5,274.5C 284.718,293.598 265.385,300.764 241.5,296C 228.823,292.479 218.823,285.312 211.5,274.5C 212.602,273.824 213.602,273.158 214.5,272.5 Z"/></g>
<g><path style="opacity:1" fill="#926758" d="M 197.5,281.5 C 200.812,284.319 203.146,287.819 204.5,292C 199.078,322.969 203.745,352.302 218.5,380C 191.57,362.632 179.737,337.799 183,305.5C 185.557,296.041 190.39,288.041 197.5,281.5 Z"/></g>
<g><path style="opacity:1" fill="#b07b5c" d="M 312.5,281.5 C 326.956,294.371 332.123,310.371 328,329.5C 323.568,350.702 312.401,367.369 294.5,379.5C 294.167,379.167 293.833,378.833 293.5,378.5C 307.542,351.155 311.875,322.322 306.5,292C 307.866,288.135 309.866,284.635 312.5,281.5 Z"/></g>
<g><path style="opacity:1" fill="#090909" d="M 83.5,288.5 C 96.5043,288.333 109.504,288.5 122.5,289C 126.124,291.161 127.291,294.328 126,298.5C 125.07,300.552 123.57,302.052 121.5,303C 109.5,303.667 97.5,303.667 85.5,303C 78.5103,298.908 77.8437,294.075 83.5,288.5 Z"/></g>
<g><path style="opacity:1" fill="#765252" d="M 247.5,312.5 C 247.831,339.005 247.498,365.339 246.5,391.5C 232.754,378.351 223.92,362.351 220,343.5C 216.896,329.591 216.229,315.591 218,301.5C 226.926,307.544 236.759,311.21 247.5,312.5 Z"/></g>
<g><path style="opacity:1" fill="#946859" d="M 264.5,391.5 C 263.502,365.339 263.169,339.005 263.5,312.5C 273.889,311.033 283.556,307.366 292.5,301.5C 296.442,329.179 290.942,354.846 276,378.5C 272.33,383.002 268.497,387.335 264.5,391.5 Z"/></g>
<g><path style="opacity:1" fill="#3b2828" d="M 247.5,312.5 C 248.829,339.003 248.829,365.67 247.5,392.5C 246.893,392.376 246.56,392.043 246.5,391.5C 247.498,365.339 247.831,339.005 247.5,312.5 Z"/></g>
<g><path style="opacity:1" fill="#4a342c" d="M 263.5,312.5 C 263.169,339.005 263.502,365.339 264.5,391.5C 264.44,392.043 264.107,392.376 263.5,392.5C 262.171,365.67 262.171,339.003 263.5,312.5 Z"/></g>
<g><path style="opacity:1" fill="#070707" d="M 388.5,368.5 C 401.171,368.333 413.838,368.5 426.5,369C 433.406,374.146 433.073,378.813 425.5,383C 413.5,383.667 401.5,383.667 389.5,383C 383.292,378.58 382.958,373.747 388.5,368.5 Z"/></g>
<g><path style="opacity:1" fill="#050505" d="M 364.5,400.5 C 385.169,400.333 405.836,400.5 426.5,401C 433.406,406.146 433.073,410.813 425.5,415C 405.5,415.667 385.5,415.667 365.5,415C 359.292,410.58 358.958,405.747 364.5,400.5 Z"/></g>
<g><path style="opacity:1" fill="#785352" d="M 184.5,463.5 C 187.37,471.203 192.704,476.37 200.5,479C 288.499,479.5 376.499,479.667 464.5,479.5C 463.79,487.428 459.79,492.928 452.5,496C 321.167,496.667 189.833,496.667 58.5,496C 52.6667,494.167 48.8333,490.333 47,484.5C 46.5004,477.508 46.3337,470.508 46.5,463.5C 92.5,463.5 138.5,463.5 184.5,463.5 Z"/></g>
<g><path style="opacity:1" fill="#95695a" d="M 184.5,463.5 C 277.833,463.5 371.167,463.5 464.5,463.5C 464.5,468.833 464.5,474.167 464.5,479.5C 376.499,479.667 288.499,479.5 200.5,479C 192.704,476.37 187.37,471.203 184.5,463.5 Z"/></g>
</svg>
