<?xml version="1.0" encoding="UTF-8"?>
<!DOCTYPE svg PUBLIC "-//W3C//DTD SVG 1.1//EN" "http://www.w3.org/Graphics/SVG/1.1/DTD/svg11.dtd">
<svg xmlns="http://www.w3.org/2000/svg" version="1.1" width="512px" height="512px" style="shape-rendering:geometricPrecision; text-rendering:geometricPrecision; image-rendering:optimizeQuality; fill-rule:evenodd; clip-rule:evenodd" xmlns:xlink="http://www.w3.org/1999/xlink">
<g><path style="opacity:0.994" fill="#000000" d="M 157.5,-0.5 C 222.833,-0.5 288.167,-0.5 353.5,-0.5C 364.483,2.98437 371.65,10.3177 375,21.5C 375.667,33.5 375.667,45.5 375,57.5C 372.162,67.6714 365.828,74.6714 356,78.5C 355.168,86.8533 355.335,95.1866 356.5,103.5C 378.055,116.918 390.889,136.251 395,161.5C 395.667,264.833 395.667,368.167 395,471.5C 389.652,492.681 376.485,506.014 355.5,511.5C 288.833,511.5 222.167,511.5 155.5,511.5C 134.515,506.014 121.348,492.681 116,471.5C 115.333,368.5 115.333,265.5 116,162.5C 119.824,136.826 132.658,117.159 154.5,103.5C 155.665,95.1866 155.832,86.8533 155,78.5C 145.172,74.6714 138.838,67.6714 136,57.5C 135.333,45.5 135.333,33.5 136,21.5C 139.35,10.3177 146.517,2.98437 157.5,-0.5 Z"/></g>
<g><path style="opacity:1" fill="#feb54b" d="M 161.5,19.5 C 223.501,19.3333 285.501,19.5 347.5,20C 351.02,20.504 353.52,22.3374 355,25.5C 355.667,34.1667 355.667,42.8333 355,51.5C 354.5,56 352,58.5 347.5,59C 285.5,59.6667 223.5,59.6667 161.5,59C 158.337,57.5202 156.504,55.0202 156,51.5C 155.333,42.8333 155.333,34.1667 156,25.5C 157.36,22.9774 159.193,20.9774 161.5,19.5 Z"/></g>
<g><path style="opacity:1" fill="#feb64b" d="M 175.5,79.5 C 228.833,79.5 282.167,79.5 335.5,79.5C 335.5,86.1667 335.5,92.8333 335.5,99.5C 282.167,99.5 228.833,99.5 175.5,99.5C 175.5,92.8333 175.5,86.1667 175.5,79.5 Z"/></g>
<g><path style="opacity:1" fill="#c57059" d="M 285.5,215.5 C 278.833,215.5 272.167,215.5 265.5,215.5C 265.107,208.941 261.607,205.607 255,205.5C 248.966,206.035 245.8,209.368 245.5,215.5C 238.833,215.5 232.167,215.5 225.5,215.5C 225.284,210.219 222.617,207.053 217.5,206C 190.169,205.5 162.835,205.333 135.5,205.5C 135.333,191.829 135.5,178.163 136,164.5C 139.523,144.586 150.023,129.752 167.5,120C 226.167,119.333 284.833,119.333 343.5,120C 359.241,128.755 369.407,141.921 374,159.5C 375.418,174.784 375.918,190.117 375.5,205.5C 347.498,205.333 319.498,205.5 291.5,206C 287.865,208.096 285.865,211.263 285.5,215.5 Z"/></g>
<g><path style="opacity:1" fill="#060302" d="M 265.5,215.5 C 263.687,224.044 258.687,226.877 250.5,224C 247.437,221.97 245.771,219.136 245.5,215.5C 245.8,209.368 248.966,206.035 255,205.5C 261.607,205.607 265.107,208.941 265.5,215.5 Z"/></g>
<g><path style="opacity:1" fill="#feb54b" d="M 225.5,215.5 C 232.167,215.5 238.833,215.5 245.5,215.5C 245.771,219.136 247.437,221.97 250.5,224C 258.687,226.877 263.687,224.044 265.5,215.5C 272.167,215.5 278.833,215.5 285.5,215.5C 285.765,220.2 288.099,223.366 292.5,225C 320.165,225.5 347.831,225.667 375.5,225.5C 375.5,278.833 375.5,332.167 375.5,385.5C 295.5,385.5 215.5,385.5 135.5,385.5C 135.5,332.167 135.5,278.833 135.5,225.5C 162.835,225.667 190.169,225.5 217.5,225C 222.162,223.505 224.828,220.339 225.5,215.5 Z"/></g>
<g><path style="opacity:1" fill="#c57059" d="M 135.5,405.5 C 215.5,405.5 295.5,405.5 375.5,405.5C 375.667,425.503 375.5,445.503 375,465.5C 372.5,480 364,488.5 349.5,491C 285.833,491.667 222.167,491.667 158.5,491C 145.666,487.168 138.166,478.668 136,465.5C 135.5,445.503 135.333,425.503 135.5,405.5 Z"/></g>
</svg>
