<?xml version="1.0" encoding="UTF-8"?>
<!DOCTYPE svg PUBLIC "-//W3C//DTD SVG 1.1//EN" "http://www.w3.org/Graphics/SVG/1.1/DTD/svg11.dtd">
<svg xmlns="http://www.w3.org/2000/svg" version="1.1" width="256px" height="256px" style="shape-rendering:geometricPrecision; text-rendering:geometricPrecision; image-rendering:optimizeQuality; fill-rule:evenodd; clip-rule:evenodd" xmlns:xlink="http://www.w3.org/1999/xlink">
<g><path style="opacity:0.959" fill="#030201" d="M 255.5,174.5 C 255.5,181.167 255.5,187.833 255.5,194.5C 250.72,205.39 242.386,209.557 230.5,207C 226.663,205.827 223.329,203.827 220.5,201C 213.587,193.416 206.087,186.582 198,180.5C 182.717,185.136 169.217,182.136 157.5,171.5C 138.191,172.642 118.858,172.809 99.5,172C 98.5838,171.626 97.7504,171.126 97,170.5C 85.2916,182.177 71.4583,185.677 55.5,181C 48.1972,187.302 41.1972,193.968 34.5,201C 27.2221,207.531 18.8887,209.198 9.5,206C 4.83883,203.182 1.50549,199.349 -0.5,194.5C -0.5,187.833 -0.5,181.167 -0.5,174.5C 2.56834,158.014 8.73501,142.681 18,128.5C 15.3479,113.122 19.8479,100.288 31.5,90C 43.536,82.318 56.536,76.818 70.5,73.5C 74.6611,64.5064 81.3278,58.0064 90.5,54C 107.306,47.8763 124.64,45.8763 142.5,48C 155.146,48.9929 166.479,53.3262 176.5,61C 180.189,64.5204 182.856,68.687 184.5,73.5C 198.464,76.818 211.464,82.318 223.5,90C 235.152,100.288 239.652,113.122 237,128.5C 246.265,142.681 252.432,158.014 255.5,174.5 Z"/></g>
<g><path style="opacity:1" fill="#f3b754" d="M 115.5,57.5 C 132.959,56.096 149.626,58.9293 165.5,66C 168.667,67.8333 171.167,70.3333 173,73.5C 174.516,98.7361 170.516,123.069 161,146.5C 158.912,152.121 156.078,157.287 152.5,162C 135.833,162.667 119.167,162.667 102.5,162C 92.6373,144.08 86.1373,124.913 83,104.5C 81.5295,94.2067 81.1961,83.8733 82,73.5C 86.3265,68.0783 91.8265,64.2449 98.5,62C 104.253,60.3137 109.919,58.8137 115.5,57.5 Z"/></g>
<g><path style="opacity:1" fill="#050301" d="M 118.5,67.5 C 131.525,66.9559 144.192,68.7893 156.5,73C 159.883,77.783 158.716,80.6163 153,81.5C 141.749,78.2223 130.249,76.7223 118.5,77C 114.562,73.8872 114.562,70.7205 118.5,67.5 Z"/></g>
<g><path style="opacity:1" fill="#100b05" d="M 98.5,72.5 C 105.048,72.2072 107.048,75.0405 104.5,81C 98.086,83.5925 95.586,81.4259 97,74.5C 97.7172,73.9558 98.2172,73.2891 98.5,72.5 Z"/></g>
<g><path style="opacity:1" fill="#f1b653" d="M 68.5,84.5 C 69.5,84.5 70.5,84.5 71.5,84.5C 72.3428,111.538 78.6761,137.204 90.5,161.5C 77.6678,175.333 64.1678,175.999 50,163.5C 43.0791,151.326 36.4124,138.993 30,126.5C 26.175,114.978 29.0083,105.478 38.5,98C 47.9777,92.0898 57.9777,87.5898 68.5,84.5 Z"/></g>
<g><path style="opacity:1" fill="#f1b653" d="M 183.5,84.5 C 198.663,87.3314 211.83,93.9981 223,104.5C 227.553,113.457 227.553,122.457 223,131.5C 217,142.167 211,152.833 205,163.5C 190.979,175.903 177.479,175.403 164.5,162C 176.557,137.604 182.891,111.77 183.5,84.5 Z"/></g>
<g><path style="opacity:1" fill="#0a0703" d="M 53.5,100.5 C 59.5548,100.052 61.7214,102.719 60,108.5C 56.3333,110.833 52.6667,113.167 49,115.5C 48.8724,118.514 48.8724,121.514 49,124.5C 45.9515,128.482 42.9515,128.482 40,124.5C 36.9926,117.198 38.4926,111.032 44.5,106C 47.8981,104.643 50.8981,102.81 53.5,100.5 Z"/></g>
<g><path style="opacity:1" fill="#0b0703" d="M 196.5,100.5 C 203.157,101.746 208.99,104.746 214,109.5C 217.294,115.272 217.128,120.938 213.5,126.5C 209.308,128.32 206.641,126.987 205.5,122.5C 206.396,120.199 206.562,117.866 206,115.5C 202.333,113.167 198.667,110.833 195,108.5C 194.109,105.502 194.609,102.836 196.5,100.5 Z"/></g>
<g><path style="opacity:1" fill="#efb553" d="M 23.5,138.5 C 29.3696,146.544 34.5363,155.21 39,164.5C 41.2567,168.012 43.7567,171.346 46.5,174.5C 38.677,182.155 30.677,189.655 22.5,197C 16.7992,198.565 12.6326,196.732 10,191.5C 8.94339,179.78 10.6101,168.446 15,157.5C 17.3616,150.899 20.195,144.566 23.5,138.5 Z"/></g>
<g><path style="opacity:1" fill="#f0b553" d="M 229.5,138.5 C 230.376,138.369 231.043,138.702 231.5,139.5C 241.425,155.439 245.925,172.772 245,191.5C 240.384,198.242 234.884,199.075 228.5,194C 221.959,187.291 215.292,180.791 208.5,174.5C 217.037,163.429 224.037,151.429 229.5,138.5 Z"/></g>
</svg>
