<?xml version="1.0" encoding="UTF-8"?>
<!DOCTYPE svg PUBLIC "-//W3C//DTD SVG 1.1//EN" "http://www.w3.org/Graphics/SVG/1.1/DTD/svg11.dtd">
<svg xmlns="http://www.w3.org/2000/svg" version="1.1" width="512px" height="512px" style="shape-rendering:geometricPrecision; text-rendering:geometricPrecision; image-rendering:optimizeQuality; fill-rule:evenodd; clip-rule:evenodd" xmlns:xlink="http://www.w3.org/1999/xlink">
<g><path style="opacity:0.964" fill="#010000" d="M 205.5,-0.5 C 212.5,-0.5 219.5,-0.5 226.5,-0.5C 234.067,1.4481 241.067,4.78143 247.5,9.5C 253.933,4.78143 260.933,1.4481 268.5,-0.5C 275.167,-0.5 281.833,-0.5 288.5,-0.5C 300.305,3.08291 309.639,10.0829 316.5,20.5C 330.63,15.1058 344.63,15.2725 358.5,21C 367.414,27.4817 373.08,36.1484 375.5,47C 406.16,54.4441 419.326,73.9441 415,105.5C 413.316,114.704 409.149,122.538 402.5,129C 405.9,135.93 407.9,143.263 408.5,151C 408.195,156.807 405.195,159.64 399.5,159.5C 397.071,159.415 395.071,158.415 393.5,156.5C 392.108,150.503 390.608,144.503 389,138.5C 386.467,135.148 384.634,131.481 383.5,127.5C 384.254,122.906 386.754,119.573 391,117.5C 401.353,103.603 402.02,89.2697 393,74.5C 389.381,70.8845 385.214,68.0512 380.5,66C 374.471,64.6648 368.471,63.3314 362.5,62C 361.107,60.8289 360.273,59.3289 360,57.5C 357.816,35.0034 345.983,27.5034 324.5,35C 319.416,37.5887 314.082,38.922 308.5,39C 307.069,38.5348 305.903,37.7014 305,36.5C 296.302,16.0415 281.802,10.5415 261.5,20C 258.462,22.7026 255.795,25.7026 253.5,29C 249.426,32.226 245.426,32.226 241.5,29C 235.497,19.4974 226.83,14.9974 215.5,15.5C 199.563,16.9331 189.063,25.2664 184,40.5C 181.005,43.2648 177.505,44.0981 173.5,43C 151.238,35.2148 136.071,42.3815 128,64.5C 127.363,69.6874 127.529,74.854 128.5,80C 128.333,85.5 125.5,88.3333 120,88.5C 102.793,85.1051 90.1261,91.1051 82,106.5C 80.3706,112.834 78.8706,119.167 77.5,125.5C 70.7374,127.81 64.404,130.976 58.5,135C 47.8978,146.135 44.3978,159.301 48,174.5C 41.9825,178.008 36.3159,182.008 31,186.5C 24.5878,194.409 22.2545,203.409 24,213.5C 26.2538,219.665 28.7538,225.665 31.5,231.5C 30.7463,236.094 28.2463,239.427 24,241.5C 13.8429,254.058 12.8429,267.391 21,281.5C 26.0318,286.867 31.3651,291.867 37,296.5C 37.1631,301.204 35.8298,305.537 33,309.5C 28.9471,330.104 36.7805,343.938 56.5,351C 61.3538,351.62 66.1872,351.453 71,350.5C 78.134,351.71 81.8007,356.043 82,363.5C 87.3925,374.714 96.2258,381.714 108.5,384.5C 110.854,386.246 111.854,388.579 111.5,391.5C 111.192,396.474 108.526,399.141 103.5,399.5C 85.2658,395.77 72.5991,385.27 65.5,368C 39.3613,367.518 22.8613,354.685 16,329.5C 15.3333,322.833 15.3333,316.167 16,309.5C 16.4523,306.851 17.2857,304.351 18.5,302C 8.76744,294.684 2.4341,285.184 -0.5,273.5C -0.5,266.833 -0.5,260.167 -0.5,253.5C 1.70757,244.423 6.04091,236.423 12.5,229.5C 1.59283,203.116 7.7595,181.782 31,165.5C 29.9785,140.861 40.6452,123.527 63,113.5C 68.5583,87.1007 84.7249,73.1007 111.5,71.5C 112.464,46.3639 125.13,30.5306 149.5,24C 156.864,23.2351 164.197,23.4018 171.5,24.5C 177.732,15.4387 185.732,8.27206 195.5,3C 198.98,1.89744 202.313,0.73077 205.5,-0.5 Z"/></g>
<g><path style="opacity:1" fill="#ac4c18" d="M 399.5,159.5 C 398.699,161.042 398.366,162.708 398.5,164.5C 379.323,154.181 360.989,155.515 343.5,168.5C 322.347,153.755 301.347,153.922 280.5,169C 276.11,173.122 272.443,177.789 269.5,183C 242.847,177.91 223.347,187.41 211,211.5C 208.611,217.612 207.444,223.945 207.5,230.5C 180.689,231.969 164.689,245.969 159.5,272.5C 143.819,279.348 133.652,291.015 129,307.5C 126.618,320.312 123.618,332.979 120,345.5C 119.051,360.675 120.218,375.675 123.5,390.5C 119.548,391.272 115.548,391.605 111.5,391.5C 111.854,388.579 110.854,386.246 108.5,384.5C 96.2258,381.714 87.3925,374.714 82,363.5C 81.8007,356.043 78.134,351.71 71,350.5C 66.1872,351.453 61.3538,351.62 56.5,351C 36.7805,343.938 28.9471,330.104 33,309.5C 35.8298,305.537 37.1631,301.204 37,296.5C 31.3651,291.867 26.0318,286.867 21,281.5C 12.8429,267.391 13.8429,254.058 24,241.5C 28.2463,239.427 30.7463,236.094 31.5,231.5C 28.7538,225.665 26.2538,219.665 24,213.5C 22.2545,203.409 24.5878,194.409 31,186.5C 36.3159,182.008 41.9825,178.008 48,174.5C 44.3978,159.301 47.8978,146.135 58.5,135C 64.404,130.976 70.7374,127.81 77.5,125.5C 78.8706,119.167 80.3706,112.834 82,106.5C 90.1261,91.1051 102.793,85.1051 120,88.5C 125.5,88.3333 128.333,85.5 128.5,80C 127.529,74.854 127.363,69.6874 128,64.5C 136.071,42.3815 151.238,35.2148 173.5,43C 177.505,44.0981 181.005,43.2648 184,40.5C 189.063,25.2664 199.563,16.9331 215.5,15.5C 226.83,14.9974 235.497,19.4974 241.5,29C 245.426,32.226 249.426,32.226 253.5,29C 255.795,25.7026 258.462,22.7026 261.5,20C 281.802,10.5415 296.302,16.0415 305,36.5C 305.903,37.7014 307.069,38.5348 308.5,39C 314.082,38.922 319.416,37.5887 324.5,35C 345.983,27.5034 357.816,35.0034 360,57.5C 360.273,59.3289 361.107,60.8289 362.5,62C 368.471,63.3314 374.471,64.6648 380.5,66C 385.214,68.0512 389.381,70.8845 393,74.5C 402.02,89.2697 401.353,103.603 391,117.5C 386.754,119.573 384.254,122.906 383.5,127.5C 384.634,131.481 386.467,135.148 389,138.5C 390.608,144.503 392.108,150.503 393.5,156.5C 395.071,158.415 397.071,159.415 399.5,159.5 Z"/></g>
<g><path style="opacity:1" fill="#000000" d="M 255.5,47.5 C 260.833,47.5 266.167,47.5 271.5,47.5C 271.5,52.8333 271.5,58.1667 271.5,63.5C 266.167,63.5 260.833,63.5 255.5,63.5C 255.5,58.1667 255.5,52.8333 255.5,47.5 Z"/></g>
<g><path style="opacity:1" fill="#000000" d="M 295.5,63.5 C 300.833,63.5 306.167,63.5 311.5,63.5C 311.5,68.8333 311.5,74.1667 311.5,79.5C 306.167,79.5 300.833,79.5 295.5,79.5C 295.5,74.1667 295.5,68.8333 295.5,63.5 Z"/></g>
<g><path style="opacity:1" fill="#040100" d="M 204.5,87.5 C 209.511,87.3341 214.511,87.5007 219.5,88C 230.837,88.3608 233.837,93.3608 228.5,103C 226.577,103.808 224.577,104.308 222.5,104.5C 208.622,101.07 197.455,105.07 189,116.5C 185.962,122.634 183.128,128.801 180.5,135C 178.966,135.923 177.299,136.423 175.5,136.5C 157.67,132.673 146.504,139.673 142,157.5C 138.498,160.601 134.665,161.101 130.5,159C 127.125,155.238 126.625,151.072 129,146.5C 136.402,127.596 150.235,118.596 170.5,119.5C 176.362,102.97 187.695,92.3032 204.5,87.5 Z"/></g>
<g><path style="opacity:1" fill="#040100" d="M 332.5,102.5 C 340.668,101.95 348.668,102.783 356.5,105C 359.848,108.419 360.348,112.252 358,116.5C 356.177,118.167 354.01,119.167 351.5,119.5C 337.051,115.883 325.718,120.383 317.5,133C 309.918,137.539 305.251,135.539 303.5,127C 306.285,119.872 310.952,114.206 317.5,110C 322.313,106.927 327.313,104.427 332.5,102.5 Z"/></g>
<g><path style="opacity:0.981" fill="#030101" d="M 398.5,164.5 C 404,168.524 408.833,173.19 413,178.5C 427.463,172.713 441.63,173.213 455.5,180C 464.12,186.56 469.453,195.227 471.5,206C 492.701,209.707 506.035,221.874 511.5,242.5C 511.5,249.5 511.5,256.5 511.5,263.5C 509.292,272.577 504.959,280.577 498.5,287.5C 506.79,305.363 505.457,322.53 494.5,339C 498.822,365.189 488.988,384.023 465,395.5C 464.263,403.538 463.263,411.538 462,419.5C 459.088,427.413 453.755,433.079 446,436.5C 438.882,455.276 425.382,466.443 405.5,470C 398.867,485.964 387.2,496.297 370.5,501C 351.545,503.693 332.878,507.193 314.5,511.5C 305.833,511.5 297.167,511.5 288.5,511.5C 274.126,507.544 259.793,503.044 245.5,498C 229.124,495.578 212.791,492.911 196.5,490C 180.82,484.75 168.987,474.917 161,460.5C 152.189,440.868 141.856,422.201 130,404.5C 127.546,399.927 125.379,395.261 123.5,390.5C 120.218,375.675 119.051,360.675 120,345.5C 123.618,332.979 126.618,320.312 129,307.5C 133.652,291.015 143.819,279.348 159.5,272.5C 164.689,245.969 180.689,231.969 207.5,230.5C 207.444,223.945 208.611,217.612 211,211.5C 223.347,187.41 242.847,177.91 269.5,183C 272.443,177.789 276.11,173.122 280.5,169C 301.347,153.922 322.347,153.755 343.5,168.5C 360.989,155.515 379.323,154.181 398.5,164.5 Z"/></g>
<g><path style="opacity:1" fill="#000000" d="M 95.5,167.5 C 100.833,167.5 106.167,167.5 111.5,167.5C 111.5,172.833 111.5,178.167 111.5,183.5C 106.167,183.5 100.833,183.5 95.5,183.5C 95.5,178.167 95.5,172.833 95.5,167.5 Z"/></g>
<g><path style="opacity:1" fill="#d2601f" d="M 305.5,173.5 C 319.45,171.888 330.45,176.721 338.5,188C 341.833,190 345.167,190 348.5,188C 359.402,173.366 373.069,170.033 389.5,178C 394.502,182.671 398.335,188.171 401,194.5C 403.653,197.194 406.82,198.027 410.5,197C 420.629,191.952 431.296,190.286 442.5,192C 448.061,194.562 451.894,198.728 454,204.5C 454.908,209.193 455.908,213.86 457,218.5C 457.903,219.701 459.069,220.535 460.5,221C 488.881,223.706 499.714,238.873 493,266.5C 489.773,272.728 485.439,278.061 480,282.5C 479.833,283.5 479.667,284.5 479.5,285.5C 481.365,290.235 483.532,294.902 486,299.5C 489.693,312.08 487.026,323.08 478,332.5C 479.096,340.43 479.429,348.43 479,356.5C 474.98,370.519 465.813,379.019 451.5,382C 450.333,383.167 449.167,384.333 448,385.5C 447.921,395.24 447.255,404.907 446,414.5C 445.293,416.081 444.46,417.581 443.5,419C 439.205,419.898 435.372,421.731 432,424.5C 427.874,444.293 415.708,454.126 395.5,454C 391.493,457.998 388.993,462.831 388,468.5C 384.64,474.693 379.807,479.36 373.5,482.5C 373.167,482.167 372.833,481.833 372.5,481.5C 376.107,472.14 377.273,462.473 376,452.5C 371.883,441.599 367.217,430.933 362,420.5C 361.146,407.386 359.479,394.386 357,381.5C 354.335,375.171 350.502,369.671 345.5,365C 338.441,359.609 331.107,354.609 323.5,350C 316.24,342.64 310.073,334.473 305,325.5C 298.787,316.957 290.62,311.123 280.5,308C 268.772,307.122 257.106,305.788 245.5,304C 235.057,298.778 224.391,294.111 213.5,290C 206.111,289.199 198.777,289.533 191.5,291C 182.833,295 174.167,299 165.5,303C 159.79,304.344 154.123,305.844 148.5,307.5C 147.833,307.167 147.167,306.833 146.5,306.5C 152.207,294.621 161.374,286.954 174,283.5C 176.691,255.143 192.191,242.643 220.5,246C 221.333,245.167 222.167,244.333 223,243.5C 223.434,235.526 224.101,227.526 225,219.5C 234.781,199.244 249.948,193.411 270.5,202C 274.421,202.959 277.588,201.792 280,198.5C 284.443,185.889 292.943,177.555 305.5,173.5 Z"/></g>
<g><path style="opacity:1" fill="#000000" d="M 175.5,183.5 C 180.833,183.5 186.167,183.5 191.5,183.5C 191.5,188.833 191.5,194.167 191.5,199.5C 186.167,199.5 180.833,199.5 175.5,199.5C 175.5,194.167 175.5,188.833 175.5,183.5 Z"/></g>
<g><path style="opacity:1" fill="#000000" d="M 55.5,199.5 C 60.8333,199.5 66.1667,199.5 71.5,199.5C 71.5,204.833 71.5,210.167 71.5,215.5C 66.1667,215.5 60.8333,215.5 55.5,215.5C 55.5,210.167 55.5,204.833 55.5,199.5 Z"/></g>
<g><path style="opacity:1" fill="#050100" d="M 325.5,222.5 C 333.337,221.968 341.003,222.801 348.5,225C 352.379,229.298 352.379,233.631 348.5,238C 346.577,238.808 344.577,239.308 342.5,239.5C 330.055,235.475 321.888,239.808 318,252.5C 316.829,253.893 315.329,254.727 313.5,255C 308.687,255.07 303.853,254.904 299,254.5C 283.715,254.778 273.882,262.278 269.5,277C 258.128,281.299 253.961,277.466 257,265.5C 267.312,244.754 284.146,235.588 307.5,238C 311.77,230.716 317.77,225.55 325.5,222.5 Z"/></g>
<g><path style="opacity:1" fill="#040100" d="M 60.5,239.5 C 68.1835,238.686 71.6835,242.019 71,249.5C 67.9075,255.849 66.9075,262.515 68,269.5C 68.8834,272.102 70.3834,274.269 72.5,276C 77.0524,278.177 81.5524,280.344 86,282.5C 88.9204,289.768 86.5871,294.101 79,295.5C 58.3725,290.585 49.3725,277.585 52,256.5C 52.8645,249.673 55.6978,244.006 60.5,239.5 Z"/></g>
<g><path style="opacity:1" fill="#060200" d="M 420.5,247.5 C 443.205,252.366 454.705,266.366 455,289.5C 454.018,293.624 451.352,295.624 447,295.5C 445.373,295.375 443.873,294.875 442.5,294C 440.449,287.541 438.282,281.041 436,274.5C 430.699,268.358 424.366,263.691 417,260.5C 414.325,255.011 415.492,250.678 420.5,247.5 Z"/></g>
<g><path style="opacity:1" fill="#e6d8c4" d="M 196.5,305.5 C 201.179,305.334 205.845,305.501 210.5,306C 221.384,310.942 232.384,315.609 243.5,320C 253.445,321.528 263.445,322.528 273.5,323C 280.8,324.066 286.633,327.566 291,333.5C 297.628,344.933 305.794,355.1 315.5,364C 323.958,368.981 331.791,374.814 339,381.5C 340.908,384.215 342.241,387.215 343,390.5C 343.837,401.901 345.17,413.234 347,424.5C 350.783,434.733 355.116,444.733 360,454.5C 361.197,466.211 358.697,477.044 352.5,487C 338.131,489.541 323.798,492.207 309.5,495C 303.5,495.667 297.5,495.667 291.5,495C 276.04,490.735 260.707,486.069 245.5,481C 231.45,479.327 217.45,477.327 203.5,475C 190.694,471.195 181.194,463.362 175,451.5C 166.536,432.565 156.536,414.565 145,397.5C 133.372,373.712 132.538,349.546 142.5,325C 152.952,322.804 163.285,320.137 173.5,317C 181.259,313.121 188.925,309.287 196.5,305.5 Z"/></g>
<g><path style="opacity:1" fill="#000000" d="M 383.5,311.5 C 388.833,311.5 394.167,311.5 399.5,311.5C 399.5,316.833 399.5,322.167 399.5,327.5C 394.167,327.5 388.833,327.5 383.5,327.5C 383.5,322.167 383.5,316.833 383.5,311.5 Z"/></g>
<g><path style="opacity:1" fill="#000000" d="M 87.5,319.5 C 92.8333,319.5 98.1667,319.5 103.5,319.5C 103.5,324.833 103.5,330.167 103.5,335.5C 98.1667,335.5 92.8333,335.5 87.5,335.5C 87.5,330.167 87.5,324.833 87.5,319.5 Z"/></g>
<g><path style="opacity:1" fill="#000000" d="M 415.5,335.5 C 420.833,335.5 426.167,335.5 431.5,335.5C 431.5,340.833 431.5,346.167 431.5,351.5C 426.167,351.5 420.833,351.5 415.5,351.5C 415.5,346.167 415.5,340.833 415.5,335.5 Z"/></g>
<g><path style="opacity:1" fill="#020201" d="M 204.5,351.5 C 209.152,350.984 212.652,352.651 215,356.5C 215.333,374.5 215.667,392.5 216,410.5C 219.892,416.259 224.559,416.926 230,412.5C 231.251,406.275 231.917,399.942 232,393.5C 239.703,375.71 252.203,371.21 269.5,380C 274.031,383.571 277.198,388.071 279,393.5C 279.333,409.833 279.667,426.167 280,442.5C 282.226,446.861 285.726,448.361 290.5,447C 292.667,446.167 294.167,444.667 295,442.5C 295.333,424.5 295.667,406.5 296,388.5C 299.855,382.665 304.522,381.998 310,386.5C 311.641,405.743 311.975,425.077 311,444.5C 306.203,458.651 296.369,464.817 281.5,463C 272.599,459.765 266.766,453.598 264,444.5C 263.667,428.5 263.333,412.5 263,396.5C 259.108,390.741 254.441,390.074 249,394.5C 247.958,401.472 246.958,408.472 246,415.5C 237.572,431.421 225.405,435.255 209.5,427C 204.705,423.245 201.538,418.412 200,412.5C 199.333,393.833 199.333,375.167 200,356.5C 201.025,354.313 202.525,352.646 204.5,351.5 Z"/></g>
<g><path style="opacity:1" fill="#000000" d="M 383.5,359.5 C 388.833,359.5 394.167,359.5 399.5,359.5C 399.5,364.833 399.5,370.167 399.5,375.5C 394.167,375.5 388.833,375.5 383.5,375.5C 383.5,370.167 383.5,364.833 383.5,359.5 Z"/></g>
<g><path style="opacity:1" fill="#000000" d="M 415.5,383.5 C 420.833,383.5 426.167,383.5 431.5,383.5C 431.5,388.833 431.5,394.167 431.5,399.5C 426.167,399.5 420.833,399.5 415.5,399.5C 415.5,394.167 415.5,388.833 415.5,383.5 Z"/></g>
<g><path style="opacity:1" fill="#000000" d="M 383.5,407.5 C 388.833,407.5 394.167,407.5 399.5,407.5C 399.5,412.833 399.5,418.167 399.5,423.5C 394.167,423.5 388.833,423.5 383.5,423.5C 383.5,418.167 383.5,412.833 383.5,407.5 Z"/></g>
</svg>
