<?xml version="1.0" encoding="UTF-8"?>
<!DOCTYPE svg PUBLIC "-//W3C//DTD SVG 1.1//EN" "http://www.w3.org/Graphics/SVG/1.1/DTD/svg11.dtd">
<svg xmlns="http://www.w3.org/2000/svg" version="1.1" width="512px" height="512px" style="shape-rendering:geometricPrecision; text-rendering:geometricPrecision; image-rendering:optimizeQuality; fill-rule:evenodd; clip-rule:evenodd" xmlns:xlink="http://www.w3.org/1999/xlink">
<g><path style="opacity:0.98" fill="#020201" d="M 511.5,278.5 C 511.5,287.5 511.5,296.5 511.5,305.5C 508.998,316.834 505.165,327.834 500,338.5C 497.189,341.163 494.022,341.83 490.5,340.5C 487.763,338.866 486.43,336.366 486.5,333C 489.326,324.521 492.16,316.021 495,307.5C 495.665,302.844 496.165,298.177 496.5,293.5C 336.001,292.5 175.334,292.167 14.5,292.5C 14.9649,304.731 17.7983,316.398 23,327.5C 37.0778,359.51 56.9111,387.343 82.5,411C 93.997,419.75 106.664,426.417 120.5,431C 210.668,431.832 300.668,431.666 390.5,430.5C 411.822,423.755 429.988,412.089 445,395.5C 454.939,383.562 464.106,371.062 472.5,358C 475.736,356.276 479.07,356.11 482.5,357.5C 486.254,361.635 486.421,365.968 483,370.5C 468.662,393.838 450.495,413.672 428.5,430C 447.5,430.333 466.5,430.667 485.5,431C 496.825,434.807 500.991,442.64 498,454.5C 494.446,470.387 484.946,480.887 469.5,486C 328.209,487.66 186.876,487.994 45.5,487C 20.0979,479.671 9.93127,463.171 15,437.5C 17.4881,433.675 20.9881,431.508 25.5,431C 44.5,430.667 63.5,430.333 82.5,430C 62.9116,416.412 46.7449,399.579 34,379.5C 18.4047,356.648 6.9047,331.981 -0.5,305.5C -0.5,296.5 -0.5,287.5 -0.5,278.5C 1.91635,266.972 6.08302,255.972 12,245.5C 24.3606,228.639 36.5273,211.639 48.5,194.5C 42.8919,186.286 38.0586,177.619 34,168.5C 31.4376,154.081 36.9376,144.248 50.5,139C 55.4702,138.114 60.4702,137.448 65.5,137C 89.8344,119.836 116.501,107.502 145.5,100C 205.252,84.8813 265.586,82.048 326.5,91.5C 327.5,91.1667 328.5,90.8333 329.5,90.5C 342.735,73.6966 355.235,56.3633 367,38.5C 381.618,22.8901 398.784,19.3901 418.5,28C 439.894,43.417 444.394,62.917 432,86.5C 429.167,90 426,93.1667 422.5,96C 414.728,100.616 407.394,105.782 400.5,111.5C 416.442,118.467 431.442,126.967 445.5,137C 458.036,135.942 467.869,140.442 475,150.5C 477.318,156.307 477.984,162.307 477,168.5C 472.941,177.619 468.108,186.286 462.5,194.5C 474.473,211.639 486.639,228.639 499,245.5C 504.917,255.972 509.084,266.972 511.5,278.5 Z"/></g>
<g><path style="opacity:1" fill="#d07c4a" d="M 393.5,38.5 C 413.997,38.1626 423.83,48.1626 423,68.5C 421.368,74.9302 417.868,80.0969 412.5,84C 387.413,100.081 363.746,118.081 341.5,138C 330.167,138.667 318.833,138.667 307.5,138C 334.578,110.63 358.412,80.7962 379,48.5C 383.208,44.1025 388.042,40.7692 393.5,38.5 Z"/></g>
<g><path style="opacity:1" fill="#eeeef1" d="M 286.5,137.5 C 222.664,137.832 158.998,137.499 95.5,136.5C 129.747,119.017 166.08,108.184 204.5,104C 237.831,100.684 271.164,100.684 304.5,104C 308.573,104.512 312.573,105.345 316.5,106.5C 307.178,117.488 297.178,127.822 286.5,137.5 Z"/></g>
<g><path style="opacity:1" fill="#dedce0" d="M 382.5,122.5 C 395.049,126.272 407.049,131.438 418.5,138C 400.5,138.667 382.5,138.667 364.5,138C 370.397,132.594 376.397,127.428 382.5,122.5 Z"/></g>
<g><path style="opacity:1" fill="#cfcfd2" d="M 95.5,136.5 C 158.998,137.499 222.664,137.832 286.5,137.5C 222.001,138.665 157.335,138.832 92.5,138C 93.5266,137.487 94.5266,136.987 95.5,136.5 Z"/></g>
<g><path style="opacity:1" fill="#f8bb65" d="M 432.5,153.5 C 434.349,157.64 434.849,161.974 434,166.5C 430.677,173.816 426.843,180.816 422.5,187.5C 322.499,187.333 222.499,187.5 122.5,188C 118.019,190.061 116.352,193.561 117.5,198.5C 116.596,197.791 116.263,196.791 116.5,195.5C 109.833,195.5 103.167,195.5 96.5,195.5C 96.4559,191.91 94.7892,189.41 91.5,188C 81.8333,187.667 72.1667,187.333 62.5,187C 57.6023,179.762 53.1023,172.262 49,164.5C 48.0454,159.577 49.8788,156.077 54.5,154C 180.5,153.5 306.5,153.333 432.5,153.5 Z"/></g>
<g><path style="opacity:1" fill="#f8ac42" d="M 432.5,153.5 C 440.507,153.334 448.507,153.5 456.5,154C 461.121,156.077 462.955,159.577 462,164.5C 457.898,172.262 453.398,179.762 448.5,187C 439.84,187.5 431.173,187.666 422.5,187.5C 426.843,180.816 430.677,173.816 434,166.5C 434.849,161.974 434.349,157.64 432.5,153.5 Z"/></g>
<g><path style="opacity:1" fill="#f9ad42" d="M 96.5,195.5 C 103.167,195.5 109.833,195.5 116.5,195.5C 116.263,196.791 116.596,197.791 117.5,198.5C 118.316,200.144 119.65,201.31 121.5,202C 231.001,202.167 340.334,202.667 449.5,203.5C 440.827,203.334 432.16,203.5 423.5,204C 435.387,219.553 446.887,235.387 458,251.5C 462.585,259.666 465.752,268.333 467.5,277.5C 316.999,277.833 166.666,277.5 16.5,276.5C 18.1922,267.925 21.3589,259.925 26,252.5C 37.8333,236.167 49.6667,219.833 61.5,203.5C 71.8173,202.668 82.1506,202.168 92.5,202C 94.7337,200.362 96.067,198.195 96.5,195.5 Z"/></g>
<g><path style="opacity:1" fill="#f9a415" d="M 449.5,203.5 C 461.324,219.804 473.157,236.137 485,252.5C 489.641,259.925 492.808,267.925 494.5,276.5C 485.682,277.493 476.682,277.827 467.5,277.5C 465.752,268.333 462.585,259.666 458,251.5C 446.887,235.387 435.387,219.553 423.5,204C 432.16,203.5 440.827,203.334 449.5,203.5 Z"/></g>
<g><path style="opacity:1" fill="#523915" d="M 16.5,276.5 C 166.666,277.5 316.999,277.833 467.5,277.5C 476.682,277.827 485.682,277.493 494.5,276.5C 495.043,276.56 495.376,276.893 495.5,277.5C 335.5,278.833 175.5,278.833 15.5,277.5C 15.6236,276.893 15.9569,276.56 16.5,276.5 Z"/></g>
<g><path style="opacity:1" fill="#f7bb65" d="M 496.5,293.5 C 487.167,293.5 477.833,293.5 468.5,293.5C 468.322,300.571 467.489,307.571 466,314.5C 451.168,355.305 427.668,390.139 395.5,419C 389.764,423.064 383.764,426.73 377.5,430C 381.821,430.499 386.154,430.666 390.5,430.5C 300.668,431.666 210.668,431.832 120.5,431C 106.664,426.417 93.997,419.75 82.5,411C 56.9111,387.343 37.0778,359.51 23,327.5C 17.7983,316.398 14.9649,304.731 14.5,292.5C 175.334,292.167 336.001,292.5 496.5,293.5 Z"/></g>
<g><path style="opacity:1" fill="#f8ad42" d="M 496.5,293.5 C 496.165,298.177 495.665,302.844 495,307.5C 492.16,316.021 489.326,324.521 486.5,333C 486.43,336.366 487.763,338.866 490.5,340.5C 488.09,346.318 485.423,351.985 482.5,357.5C 479.07,356.11 475.736,356.276 472.5,358C 464.106,371.062 454.939,383.562 445,395.5C 429.988,412.089 411.822,423.755 390.5,430.5C 386.154,430.666 381.821,430.499 377.5,430C 383.764,426.73 389.764,423.064 395.5,419C 427.668,390.139 451.168,355.305 466,314.5C 467.489,307.571 468.322,300.571 468.5,293.5C 477.833,293.5 487.167,293.5 496.5,293.5 Z"/></g>
<g><path style="opacity:1" fill="#c7c0c8" d="M 455.5,446.5 C 455.502,456.328 451.836,464.494 444.5,471C 312.5,471.5 180.5,471.667 48.5,471.5C 35.1869,468.517 28.5203,460.184 28.5,446.5C 170.833,446.5 313.167,446.5 455.5,446.5 Z"/></g>
<g><path style="opacity:1" fill="#a7a1aa" d="M 455.5,446.5 C 464.5,446.5 473.5,446.5 482.5,446.5C 482.272,460.563 475.272,469.063 461.5,472C 323.666,472.833 185.999,472.666 48.5,471.5C 180.5,471.667 312.5,471.5 444.5,471C 451.836,464.494 455.502,456.328 455.5,446.5 Z"/></g>
</svg>
