<?xml version="1.0" encoding="UTF-8"?>
<!DOCTYPE svg PUBLIC "-//W3C//DTD SVG 1.1//EN" "http://www.w3.org/Graphics/SVG/1.1/DTD/svg11.dtd">
<svg xmlns="http://www.w3.org/2000/svg" version="1.1" width="512px" height="512px" style="shape-rendering:geometricPrecision; text-rendering:geometricPrecision; image-rendering:optimizeQuality; fill-rule:evenodd; clip-rule:evenodd" xmlns:xlink="http://www.w3.org/1999/xlink">
<g><path style="opacity:0.987" fill="#030201" d="M 511.5,256.5 C 511.5,261.167 511.5,265.833 511.5,270.5C 508.185,278.647 502.351,284.314 494,287.5C 482.822,325.213 471.488,362.879 460,400.5C 449.749,425.744 431.249,441.244 404.5,447C 305.167,447.667 205.833,447.667 106.5,447C 79.7507,441.244 61.2507,425.744 51,400.5C 39.5115,362.879 28.1782,325.213 17,287.5C 8.64856,284.314 2.81523,278.647 -0.5,270.5C -0.5,265.833 -0.5,261.167 -0.5,256.5C 2.82188,247.687 9.15521,242.187 18.5,240C 24.5,239.667 30.5,239.333 36.5,239C 87.1667,188.333 137.833,137.667 188.5,87C 220.326,62.5465 255.326,56.8798 293.5,70C 303.956,74.3921 313.623,80.0587 322.5,87C 373.167,137.667 423.833,188.333 474.5,239C 480.5,239.333 486.5,239.667 492.5,240C 501.845,242.187 508.178,247.687 511.5,256.5 Z"/></g>
<g><path style="opacity:1" fill="#fe9f00" d="M 268.5,79.5 C 263.054,85.1202 258.554,91.4536 255,98.5C 244.628,121.153 233.794,143.486 222.5,165.5C 220.275,160.891 216.609,159.391 211.5,161C 208.606,163.909 207.773,167.409 209,171.5C 211.642,174.029 214.808,175.029 218.5,174.5C 207.896,196.041 197.563,217.707 187.5,239.5C 144.33,239.832 101.33,239.499 58.5,238.5C 105.632,191.868 152.632,145.035 199.5,98C 220.02,82.6199 243.02,76.4532 268.5,79.5 Z"/></g>
<g><path style="opacity:1" fill="#feb300" d="M 268.5,79.5 C 284.475,81.8795 298.808,88.0462 311.5,98C 358.368,145.035 405.368,191.868 452.5,238.5C 364.335,239.499 276.002,239.833 187.5,239.5C 197.563,217.707 207.896,196.041 218.5,174.5C 221.686,172.453 223.019,169.453 222.5,165.5C 233.794,143.486 244.628,121.153 255,98.5C 258.554,91.4536 263.054,85.1202 268.5,79.5 Z"/></g>
<g><path style="opacity:1" fill="#080400" d="M 259.5,112.5 C 269.745,111.57 272.745,115.736 268.5,125C 259.319,128.325 255.485,125.158 257,115.5C 258.045,114.627 258.878,113.627 259.5,112.5 Z"/></g>
<g><path style="opacity:1" fill="#070300" d="M 222.5,165.5 C 223.019,169.453 221.686,172.453 218.5,174.5C 214.808,175.029 211.642,174.029 209,171.5C 207.773,167.409 208.606,163.909 211.5,161C 216.609,159.391 220.275,160.891 222.5,165.5 Z"/></g>
<g><path style="opacity:1" fill="#070400" d="M 324.5,192.5 C 332.829,191.664 335.995,195.33 334,203.5C 330.341,207.115 326.341,207.448 322,204.5C 319.523,199.669 320.356,195.669 324.5,192.5 Z"/></g>
<g><path style="opacity:1" fill="#966700" d="M 58.5,238.5 C 101.33,239.499 144.33,239.832 187.5,239.5C 276.002,239.833 364.335,239.499 452.5,238.5C 453.043,238.56 453.376,238.893 453.5,239.5C 321.5,240.833 189.5,240.833 57.5,239.5C 57.6236,238.893 57.9569,238.56 58.5,238.5 Z"/></g>
<g><path style="opacity:1" fill="#9c775a" d="M 129.5,255.5 C 126.865,260.64 126.865,265.806 129.5,271C 249.5,271.5 369.5,271.667 489.5,271.5C 333.334,272.666 177.001,272.833 20.5,272C 14.3795,268.314 13.2128,263.48 17,257.5C 17.7504,256.874 18.5838,256.374 19.5,256C 56.1652,255.5 92.8318,255.333 129.5,255.5 Z"/></g>
<g><path style="opacity:1" fill="#b8906d" d="M 129.5,255.5 C 250.167,255.333 370.834,255.5 491.5,256C 496.568,258.983 497.735,263.149 495,268.5C 493.736,270.607 491.903,271.607 489.5,271.5C 369.5,271.667 249.5,271.5 129.5,271C 126.865,265.806 126.865,260.64 129.5,255.5 Z"/></g>
<g><path style="opacity:1" fill="#986c53" d="M 416.5,311.5 C 410.833,311.5 405.167,311.5 399.5,311.5C 399.16,308.325 397.493,306.159 394.5,305C 275.833,304.667 157.167,304.333 38.5,304C 36.7602,298.88 35.0935,293.713 33.5,288.5C 181.5,287.167 329.5,287.167 477.5,288.5C 475.907,293.713 474.24,298.88 472.5,304C 455.167,304.333 437.833,304.667 420.5,305C 418.077,306.571 416.744,308.737 416.5,311.5 Z"/></g>
<g><path style="opacity:1" fill="#775252" d="M 399.5,311.5 C 405.167,311.5 410.833,311.5 416.5,311.5C 416.544,315.09 418.211,317.59 421.5,319C 436.83,319.5 452.163,319.667 467.5,319.5C 466.37,324.888 465.037,330.222 463.5,335.5C 353.5,335.5 243.5,335.5 133.5,335.5C 132.399,330.227 131.733,324.894 131.5,319.5C 218.668,319.833 305.668,319.499 392.5,318.5C 396.795,318.205 399.128,315.872 399.5,311.5 Z"/></g>
<g><path style="opacity:1" fill="#201616" d="M 392.5,318.5 C 305.668,319.499 218.668,319.833 131.5,319.5C 101.814,318.841 72.481,319.508 43.5,321.5C 42.596,320.791 42.2627,319.791 42.5,318.5C 159.167,318.5 275.833,318.5 392.5,318.5 Z"/></g>
<g><path style="opacity:1" fill="#6a4646" d="M 131.5,319.5 C 131.733,324.894 132.399,330.227 133.5,335.5C 243.5,335.5 353.5,335.5 463.5,335.5C 325.001,336.5 186.334,336.833 47.5,336.5C 46.5695,331.378 45.2362,326.378 43.5,321.5C 72.481,319.508 101.814,318.841 131.5,319.5 Z"/></g>
<g><path style="opacity:1" fill="#9a6d54" d="M 136.5,351.5 C 139.834,378.833 144.834,405.833 151.5,432.5C 137.496,432.667 123.496,432.5 109.5,432C 89.7054,427.862 75.5387,416.695 67,398.5C 62.0859,383.006 57.2526,367.506 52.5,352C 80.498,351.5 108.498,351.333 136.5,351.5 Z"/></g>
<g><path style="opacity:1" fill="#a47c5e" d="M 136.5,351.5 C 243.834,351.333 351.167,351.5 458.5,352C 453.951,365.69 449.785,379.523 446,393.5C 437.539,415.954 421.372,428.787 397.5,432C 315.501,432.5 233.501,432.667 151.5,432.5C 144.834,405.833 139.834,378.833 136.5,351.5 Z"/></g>
</svg>
