<?xml version="1.0" encoding="UTF-8"?>
<!DOCTYPE svg PUBLIC "-//W3C//DTD SVG 1.1//EN" "http://www.w3.org/Graphics/SVG/1.1/DTD/svg11.dtd">
<svg xmlns="http://www.w3.org/2000/svg" version="1.1" width="512px" height="512px" style="shape-rendering:geometricPrecision; text-rendering:geometricPrecision; image-rendering:optimizeQuality; fill-rule:evenodd; clip-rule:evenodd" xmlns:xlink="http://www.w3.org/1999/xlink">
<g><path style="opacity:0.976" fill="#020201" d="M 511.5,255.5 C 511.5,262.833 511.5,270.167 511.5,277.5C 501.449,342.727 465.449,386.893 403.5,410C 392.405,413.486 381.072,415.819 369.5,417C 293.5,417.667 217.5,417.667 141.5,417C 77.8938,408.378 33.7271,374.544 9,315.5C 4.54504,303.014 1.37837,290.347 -0.5,277.5C -0.5,270.167 -0.5,262.833 -0.5,255.5C 1.01027,254.164 2.67694,252.997 4.5,252C 13.0783,251.818 21.5783,251.318 30,250.5C 30.9199,246.737 32.4199,243.237 34.5,240C 29.8775,226.898 31.7109,214.732 40,203.5C 38.5279,188.466 43.1946,175.799 54,165.5C 54.4986,151.032 60.832,140.032 73,132.5C 76.1147,118.42 84.2813,108.586 97.5,103C 102.956,89.2102 112.956,80.8769 127.5,78C 135.398,65.71 146.732,59.0434 161.5,58C 171.285,47.3498 183.285,43.1831 197.5,45.5C 208.857,36.4132 221.524,34.0798 235.5,38.5C 248.833,31.8333 262.167,31.8333 275.5,38.5C 289.476,34.0798 302.143,36.4132 313.5,45.5C 327.715,43.1831 339.715,47.3498 349.5,58C 364.268,59.0434 375.602,65.71 383.5,78C 397.405,80.5303 406.905,88.3636 412,101.5C 426.067,107.298 434.733,117.631 438,132.5C 450.168,140.032 456.501,151.032 457,165.5C 467.572,175.873 472.239,188.539 471,203.5C 479.289,214.732 481.122,226.898 476.5,240C 478.58,243.237 480.08,246.737 481,250.5C 489.422,251.318 497.922,251.818 506.5,252C 508.323,252.997 509.99,254.164 511.5,255.5 Z"/></g>
<g><path style="opacity:1" fill="#fee7b4" d="M 311.5,61.5 C 312.476,62.8149 313.476,64.1482 314.5,65.5C 329.35,65.4173 340.35,71.7507 347.5,84.5C 362.086,86.5948 371.586,94.5948 376,108.5C 390.248,113.074 398.248,122.741 400,137.5C 411.649,142.814 417.816,151.814 418.5,164.5C 411.769,159.547 407.102,161.047 404.5,169C 405.576,175.41 409.243,177.743 415.5,176C 417.464,174.549 418.797,172.716 419.5,170.5C 430.882,179.473 435.049,191.14 432,205.5C 442.28,216.015 444.113,227.848 437.5,241C 440.115,244.062 441.781,247.562 442.5,251.5C 310.5,251.5 178.5,251.5 46.5,251.5C 48.5137,248.298 49.847,244.798 50.5,241C 50.1086,238.047 49.2753,235.213 48,232.5C 47.3333,228.5 47.3333,224.5 48,220.5C 50.6057,215.565 53.6057,210.898 57,206.5C 56.0393,201.249 55.7059,195.916 56,190.5C 58.1639,183.171 62.4973,177.504 69,173.5C 67.5602,158.698 73.5602,148.365 87,142.5C 88.0181,127.935 95.5181,118.768 109.5,115C 111.703,111.389 113.536,107.556 115,103.5C 120.871,95.8125 128.704,91.6459 138.5,91C 143.683,77.902 153.35,72.2353 167.5,74C 171.167,71.6667 174.167,68.6667 176.5,65C 178.888,63.1395 181.554,61.8061 184.5,61C 190.849,60.7248 197.182,60.7248 203.5,61C 213.217,50.6094 224.384,48.7761 237,55.5C 240.677,54.0777 244.177,52.2443 247.5,50C 251.741,48.5427 256.074,48.2093 260.5,49C 265.257,50.7965 269.757,52.9631 274,55.5C 286.587,48.7948 297.754,50.6281 307.5,61C 308.793,61.49 310.127,61.6567 311.5,61.5 Z"/></g>
<g><path style="opacity:1" fill="#090806" d="M 252.5,71.5 C 260.775,70.7064 263.942,74.373 262,82.5C 257.667,87.8333 253.333,87.8333 249,82.5C 247.663,77.8721 248.83,74.2054 252.5,71.5 Z"/></g>
<g><path style="opacity:1" fill="#fbcd69" d="M 464.5,250.5 C 457.352,251.492 450.019,251.825 442.5,251.5C 441.781,247.562 440.115,244.062 437.5,241C 444.113,227.848 442.28,216.015 432,205.5C 435.049,191.14 430.882,179.473 419.5,170.5C 419.483,168.435 419.15,166.435 418.5,164.5C 417.816,151.814 411.649,142.814 400,137.5C 398.248,122.741 390.248,113.074 376,108.5C 371.586,94.5948 362.086,86.5948 347.5,84.5C 340.35,71.7507 329.35,65.4173 314.5,65.5C 313.476,64.1482 312.476,62.8149 311.5,61.5C 324.802,58.3226 335.136,62.4893 342.5,74C 357.051,71.9355 367.051,77.6021 372.5,91C 387.101,92.0292 396.268,99.5292 400,113.5C 403.315,116.279 407.149,118.113 411.5,119C 419.187,124.871 423.354,132.704 424,142.5C 437.424,148.329 443.424,158.663 442,173.5C 454.138,181.585 458.138,192.585 454,206.5C 457.394,210.898 460.394,215.565 463,220.5C 463.904,227.558 463.071,234.391 460.5,241C 460.884,244.597 462.217,247.764 464.5,250.5 Z"/></g>
<g><path style="opacity:1" fill="#050503" d="M 184.5,134.5 C 192.201,134.362 195.367,138.029 194,145.5C 189.585,150.726 185.251,150.726 181,145.5C 179.663,140.916 180.829,137.249 184.5,134.5 Z"/></g>
<g><path style="opacity:1" fill="#0d0c09" d="M 96.5,161.5 C 103.319,161.483 106.486,164.817 106,171.5C 101.748,177.653 97.0814,177.986 92,172.5C 90.7758,167.626 92.2758,163.959 96.5,161.5 Z"/></g>
<g><path style="opacity:1" fill="#0e0c09" d="M 418.5,164.5 C 419.15,166.435 419.483,168.435 419.5,170.5C 418.797,172.716 417.464,174.549 415.5,176C 409.243,177.743 405.576,175.41 404.5,169C 407.102,161.047 411.769,159.547 418.5,164.5 Z"/></g>
<g><path style="opacity:1" fill="#050503" d="M 214.5,164.5 C 222.201,164.362 225.367,168.029 224,175.5C 219.585,180.726 215.251,180.726 211,175.5C 209.663,170.916 210.829,167.249 214.5,164.5 Z"/></g>
<g><path style="opacity:1" fill="#0e0d0a" d="M 350.5,222.5 C 358.161,221.663 361.661,224.996 361,232.5C 357.455,238.209 353.121,238.875 348,234.5C 345.455,229.723 346.288,225.723 350.5,222.5 Z"/></g>
<g><path style="opacity:1" fill="#baa881" d="M 464.5,250.5 C 465.043,250.56 465.376,250.893 465.5,251.5C 395.5,251.833 325.5,252.167 255.5,252.5C 185.097,252.502 115.43,252.168 46.5,251.5C 178.5,251.5 310.5,251.5 442.5,251.5C 450.019,251.825 457.352,251.492 464.5,250.5 Z"/></g>
<g><path style="opacity:1" fill="#44381f" d="M 465.5,271.5 C 465.5,270.167 465.5,268.833 465.5,267.5C 458.167,267.5 450.833,267.5 443.5,267.5C 308.167,267.5 172.833,267.5 37.5,267.5C 30.1667,267.5 22.8333,267.5 15.5,267.5C 15.5,269.833 15.5,272.167 15.5,274.5C 14.5269,272.052 14.1936,269.385 14.5,266.5C 165.167,266.5 315.833,266.5 466.5,266.5C 466.784,268.415 466.451,270.081 465.5,271.5 Z"/></g>
<g><path style="opacity:1" fill="#2c4a51" d="M 481.5,267.5 C 486.305,266.513 491.305,266.179 496.5,266.5C 496.806,269.385 496.473,272.052 495.5,274.5C 495.5,272.167 495.5,269.833 495.5,267.5C 490.833,267.5 486.167,267.5 481.5,267.5 Z"/></g>
<g><path style="opacity:1" fill="#d4f0fa" d="M 37.5,267.5 C 38.0534,272.482 38.3867,277.482 38.5,282.5C 35.6473,284.015 33.9806,286.348 33.5,289.5C 44.7404,332.238 70.7404,362.071 111.5,379C 119.917,382.271 128.584,384.604 137.5,386C 175.972,387.145 214.472,387.645 253,387.5C 292.852,387.633 332.686,387.133 372.5,386C 398.011,381.907 420.345,371.407 439.5,354.5C 423.505,374.827 403.505,389.827 379.5,399.5C 374.873,400.438 370.206,401.271 365.5,402C 291.5,402.667 217.5,402.667 143.5,402C 89.8491,394.661 51.0158,366.828 27,318.5C 20.9736,304.394 17.1403,289.727 15.5,274.5C 15.5,272.167 15.5,269.833 15.5,267.5C 22.8333,267.5 30.1667,267.5 37.5,267.5 Z"/></g>
<g><path style="opacity:1" fill="#fecf69" d="M 37.5,267.5 C 172.833,267.5 308.167,267.5 443.5,267.5C 438.459,315.297 414.459,349.63 371.5,370.5C 369.518,370.995 367.518,371.495 365.5,372C 292.167,372.667 218.833,372.667 145.5,372C 94.6077,363.777 61.7743,334.943 47,285.5C 44.6954,283.07 41.8621,282.07 38.5,282.5C 38.3867,277.482 38.0534,272.482 37.5,267.5 Z"/></g>
<g><path style="opacity:1" fill="#fcb15b" d="M 443.5,267.5 C 450.833,267.5 458.167,267.5 465.5,267.5C 465.5,268.833 465.5,270.167 465.5,271.5C 458.531,319.908 431.865,352.075 385.5,368C 380.904,369.286 376.237,370.119 371.5,370.5C 414.459,349.63 438.459,315.297 443.5,267.5 Z"/></g>
<g><path style="opacity:1" fill="#87e2f9" d="M 481.5,267.5 C 486.167,267.5 490.833,267.5 495.5,267.5C 495.5,269.833 495.5,272.167 495.5,274.5C 488.921,324.214 463.921,361.381 420.5,386C 407.496,392.613 393.829,397.113 379.5,399.5C 403.505,389.827 423.505,374.827 439.5,354.5C 464.506,330.822 478.506,301.822 481.5,267.5 Z"/></g>
<g><path style="opacity:1" fill="#0d0a05" d="M 95.5,282.5 C 103.164,281.666 106.664,285 106,292.5C 101.283,299.152 96.6165,299.152 92,292.5C 91.3333,290.5 91.3333,288.5 92,286.5C 93.3756,285.295 94.5423,283.962 95.5,282.5 Z"/></g>
<g><path style="opacity:1" fill="#0f0c06" d="M 183.5,312.5 C 191.161,311.663 194.661,314.996 194,322.5C 190.455,328.209 186.121,328.875 181,324.5C 178.511,319.757 179.345,315.757 183.5,312.5 Z"/></g>
<g><path style="opacity:1" fill="#0f0c06" d="M 153.5,342.5 C 161.161,341.663 164.661,344.996 164,352.5C 160.455,358.209 156.121,358.875 151,354.5C 148.511,349.757 149.345,345.757 153.5,342.5 Z"/></g>
<g><path style="opacity:0.964" fill="#000000" d="M 511.5,435.5 C 511.5,439.833 511.5,444.167 511.5,448.5C 506.915,463.582 496.915,473.082 481.5,477C 330.833,477.667 180.167,477.667 29.5,477C 14.0849,473.082 4.08491,463.582 -0.5,448.5C -0.5,444.167 -0.5,439.833 -0.5,435.5C 1.01027,434.164 2.67694,432.997 4.5,432C 171.833,431.333 339.167,431.333 506.5,432C 508.323,432.997 509.99,434.164 511.5,435.5 Z"/></g>
<g><path style="opacity:1" fill="#434344" d="M 494.5,448.5 C 487.352,447.508 480.019,447.175 472.5,447.5C 320.332,447.167 168.332,447.5 16.5,448.5C 15.9569,448.44 15.6236,448.107 15.5,447.5C 175.5,446.167 335.5,446.167 495.5,447.5C 495.376,448.107 495.043,448.44 494.5,448.5 Z"/></g>
<g><path style="opacity:1" fill="#fefefe" d="M 472.5,447.5 C 471.361,452.611 469.028,457.111 465.5,461C 321.167,461.5 176.834,461.667 32.5,461.5C 24.7527,460.082 19.4194,455.748 16.5,448.5C 168.332,447.5 320.332,447.167 472.5,447.5 Z"/></g>
<g><path style="opacity:1" fill="#ccdce2" d="M 472.5,447.5 C 480.019,447.175 487.352,447.508 494.5,448.5C 491.489,455.672 486.156,460.172 478.5,462C 329.666,462.833 180.999,462.666 32.5,461.5C 176.834,461.667 321.167,461.5 465.5,461C 469.028,457.111 471.361,452.611 472.5,447.5 Z"/></g>
</svg>
