<?xml version="1.0" encoding="UTF-8"?>
<!DOCTYPE svg PUBLIC "-//W3C//DTD SVG 1.1//EN" "http://www.w3.org/Graphics/SVG/1.1/DTD/svg11.dtd">
<svg xmlns="http://www.w3.org/2000/svg" version="1.1" width="512px" height="512px" style="shape-rendering:geometricPrecision; text-rendering:geometricPrecision; image-rendering:optimizeQuality; fill-rule:evenodd; clip-rule:evenodd" xmlns:xlink="http://www.w3.org/1999/xlink">
<g><path style="opacity:0.969" fill="#010000" d="M 371.5,-0.5 C 381.833,-0.5 392.167,-0.5 402.5,-0.5C 463.376,10.7092 499.709,46.7092 511.5,107.5C 511.5,176.167 511.5,244.833 511.5,313.5C 501.297,367.372 469.963,402.372 417.5,418.5C 414.391,427.597 411.891,436.93 410,446.5C 409.215,448.286 408.049,449.786 406.5,451C 393.072,451.962 379.739,451.629 366.5,450C 362.822,439.79 360.156,429.29 358.5,418.5C 302.749,402.699 270.915,366.032 263,308.5C 262.333,243.167 262.333,177.833 263,112.5C 269.743,60.817 297.243,25.317 345.5,6C 354.14,3.17319 362.807,1.00652 371.5,-0.5 Z"/></g>
<g><path style="opacity:1" fill="#f54f30" d="M 373.5,14.5 C 431.378,12.1732 470.878,37.8399 492,91.5C 493.717,97.7525 495.05,104.086 496,110.5C 496.667,176.5 496.667,242.5 496,308.5C 488.625,356.544 461.792,388.044 415.5,403C 359.52,413.754 317.353,394.587 289,345.5C 282.967,332.106 279.3,318.106 278,303.5C 277.333,241.167 277.333,178.833 278,116.5C 285.945,60.0569 317.778,26.0569 373.5,14.5 Z"/></g>
<g><path style="opacity:1" fill="#030100" d="M 300.5,218.5 C 303.325,218.081 305.491,219.081 307,221.5C 307.333,248.167 307.667,274.833 308,301.5C 312.683,339.842 333.516,364.342 370.5,375C 387.474,378.293 403.807,376.46 419.5,369.5C 445.755,357.056 461.255,336.39 466,307.5C 466.667,242.5 466.667,177.5 466,112.5C 460.821,84.1714 445.321,63.8381 419.5,51.5C 382.002,37.1661 350.169,45.1661 324,75.5C 316.492,85.6775 311.492,97.0109 309,109.5C 307.714,139.466 307.048,169.466 307,199.5C 305.491,201.919 303.325,202.919 300.5,202.5C 297.675,202.919 295.509,201.919 294,199.5C 293.333,169.167 293.333,138.833 294,108.5C 303.053,66.4467 328.553,40.6134 370.5,31C 414.037,25.5214 447.204,41.3547 470,78.5C 475.665,88.829 479.332,99.829 481,111.5C 481.667,176.833 481.667,242.167 481,307.5C 472.5,354.667 444.667,382.5 397.5,391C 357.18,393.259 326.347,377.425 305,343.5C 299.314,332.444 295.648,320.778 294,308.5C 293.333,279.5 293.333,250.5 294,221.5C 295.509,219.081 297.675,218.081 300.5,218.5 Z"/></g>
<g><path style="opacity:1" fill="#fdd189" d="M 419.5,51.5 C 432.444,67.1303 440.278,85.1303 443,105.5C 443.667,175.5 443.667,245.5 443,315.5C 439.892,335.69 432.059,353.69 419.5,369.5C 403.807,376.46 387.474,378.293 370.5,375C 333.516,364.342 312.683,339.842 308,301.5C 307.667,274.833 307.333,248.167 307,221.5C 305.491,219.081 303.325,218.081 300.5,218.5C 300.5,213.167 300.5,207.833 300.5,202.5C 303.325,202.919 305.491,201.919 307,199.5C 307.048,169.466 307.714,139.466 309,109.5C 311.492,97.0109 316.492,85.6775 324,75.5C 350.169,45.1661 382.002,37.1661 419.5,51.5 Z"/></g>
<g><path style="opacity:1" fill="#fdbe54" d="M 419.5,51.5 C 445.321,63.8381 460.821,84.1714 466,112.5C 466.667,177.5 466.667,242.5 466,307.5C 461.255,336.39 445.755,357.056 419.5,369.5C 432.059,353.69 439.892,335.69 443,315.5C 443.667,245.5 443.667,175.5 443,105.5C 440.278,85.1303 432.444,67.1303 419.5,51.5 Z"/></g>
<g><path style="opacity:0.969" fill="#010000" d="M 139.5,511.5 C 129.167,511.5 118.833,511.5 108.5,511.5C 47.6621,500.245 11.3288,464.245 -0.5,403.5C -0.5,334.833 -0.5,266.167 -0.5,197.5C 9.70333,143.628 41.0367,108.628 93.5,92.5C 96.6088,83.4029 99.1088,74.0696 101,64.5C 101.785,62.714 102.951,61.214 104.5,60C 117.928,59.0377 131.261,59.371 144.5,61C 148.178,71.2096 150.844,81.7096 152.5,92.5C 208.251,108.301 240.085,144.968 248,202.5C 248.667,267.833 248.667,333.167 248,398.5C 241.257,450.183 213.757,485.683 165.5,505C 156.86,507.827 148.193,509.993 139.5,511.5 Z"/></g>
<g><path style="opacity:1" fill="#fa873a" d="M 135.5,87.5 C 134.448,89.256 132.781,89.9227 130.5,89.5C 124.167,89.5 117.833,89.5 111.5,89.5C 111.866,84.7036 112.866,80.0369 114.5,75.5C 120.798,74.5037 127.132,74.1703 133.5,74.5C 134.327,78.8072 134.993,83.1405 135.5,87.5 Z"/></g>
<g><path style="opacity:1" fill="#7d441d" d="M 135.5,87.5 C 136.404,88.209 136.737,89.209 136.5,90.5C 134.265,90.7947 132.265,90.4614 130.5,89.5C 132.781,89.9227 134.448,89.256 135.5,87.5 Z"/></g>
<g><path style="opacity:1" fill="#fb5031" d="M 171.5,115.5 C 193.955,138.425 206.788,166.092 210,198.5C 210.963,267.852 210.629,337.185 209,406.5C 205.505,436.478 193.671,462.478 173.5,484.5C 131.258,504.088 91.5913,499.921 54.5,472C 32.0115,452.524 18.8448,428.024 15,398.5C 14.3333,332.5 14.3333,266.5 15,200.5C 22.6888,155.142 48.1888,124.642 91.5,109C 119.014,101.319 145.681,103.485 171.5,115.5 Z"/></g>
<g><path style="opacity:1" fill="#f03726" d="M 171.5,115.5 C 207.603,134.67 228.103,164.67 233,205.5C 233.667,268.167 233.667,330.833 233,393.5C 229.187,434.494 209.354,464.827 173.5,484.5C 193.671,462.478 205.505,436.478 209,406.5C 210.629,337.185 210.963,267.852 210,198.5C 206.788,166.092 193.955,138.425 171.5,115.5 Z"/></g>
<g><path style="opacity:1" fill="#050201" d="M 384.5,138.5 C 386.989,138.298 389.323,138.798 391.5,140C 421.375,171.391 428.875,207.558 414,248.5C 408.84,260.987 401.34,271.82 391.5,281C 388.5,283 385.5,283 382.5,281C 353.394,249.809 345.894,213.976 360,173.5C 365.74,159.979 373.907,148.313 384.5,138.5 Z"/></g>
<g><path style="opacity:1" fill="#ce372d" d="M 386.5,157.5 C 397.211,168.931 403.711,182.597 406,198.5C 408.536,222.73 402.369,244.397 387.5,263.5C 379.689,254.886 374.189,244.886 371,233.5C 363.834,205.518 369.001,180.184 386.5,157.5 Z"/></g>
<g><path style="opacity:1" fill="#542d15" d="M 381.5,421.5 C 378.918,421.025 376.918,421.692 375.5,423.5C 374.596,422.791 374.263,421.791 374.5,420.5C 377.059,420.198 379.393,420.532 381.5,421.5 Z"/></g>
<g><path style="opacity:1" fill="#fb883b" d="M 381.5,421.5 C 387.5,421.5 393.5,421.5 399.5,421.5C 398.343,426.462 397.343,431.462 396.5,436.5C 390.167,436.5 383.833,436.5 377.5,436.5C 377.252,432.094 376.585,427.76 375.5,423.5C 376.918,421.692 378.918,421.025 381.5,421.5 Z"/></g>
</svg>
