<?xml version="1.0" encoding="UTF-8"?>
<!DOCTYPE svg PUBLIC "-//W3C//DTD SVG 1.1//EN" "http://www.w3.org/Graphics/SVG/1.1/DTD/svg11.dtd">
<svg xmlns="http://www.w3.org/2000/svg" version="1.1" width="512px" height="512px" style="shape-rendering:geometricPrecision; text-rendering:geometricPrecision; image-rendering:optimizeQuality; fill-rule:evenodd; clip-rule:evenodd" xmlns:xlink="http://www.w3.org/1999/xlink">
<g><path style="opacity:0.973" fill="#010101" d="M 297.5,136.5 C 294.707,140.171 291.04,141.338 286.5,140C 251.004,121.876 213.337,112.709 173.5,112.5C 155.741,112.071 138.408,114.571 121.5,120C 98.881,127.931 87.0477,143.765 86,167.5C 102.236,159.317 119.403,154.151 137.5,152C 152.83,151.5 168.163,151.333 183.5,151.5C 237.221,156.887 287.721,172.554 335,198.5C 340,193.5 345,188.5 350,183.5C 350.667,182.5 350.667,181.5 350,180.5C 339.387,171.888 328.22,164.055 316.5,157C 313.846,153.673 312.846,149.839 313.5,145.5C 317.967,141.707 322.634,141.54 327.5,145C 340.181,152.678 352.014,161.512 363,171.5C 367.776,179.395 367.443,187.062 362,194.5C 358.217,197.316 354.717,200.483 351.5,204C 361.239,207.548 371.239,209.548 381.5,210C 407.78,189.896 437.447,177.563 470.5,173C 479.456,171.471 488.456,170.804 497.5,171C 504.28,172.954 508.947,177.12 511.5,183.5C 511.5,187.5 511.5,191.5 511.5,195.5C 497.069,212.227 480.402,226.394 461.5,238C 456.833,240.333 452.167,242.667 447.5,245C 445.473,246.396 445.14,248.062 446.5,250C 472.049,262.076 493.716,278.91 511.5,300.5C 511.5,304.5 511.5,308.5 511.5,312.5C 508.309,320.831 502.142,325.164 493,325.5C 458.643,323.205 426.476,313.705 396.5,297C 390.653,292.909 384.987,288.576 379.5,284C 371.373,284.152 363.707,286.152 356.5,290C 363.254,295.247 367.254,302.08 368.5,310.5C 367.592,316.316 365.092,321.316 361,325.5C 342.486,346.836 319.986,362.336 293.5,372C 280.174,377.168 266.507,378.501 252.5,376C 235.884,370.72 224.384,359.887 218,343.5C 207.194,345.455 196.36,347.289 185.5,349C 201.824,362.415 204.991,378.581 195,397.5C 180.455,419.324 165.121,419.99 149,399.5C 139.962,383.22 133.795,365.887 130.5,347.5C 112.23,345.946 94.2295,342.78 76.5,338C 71.5538,336.289 68.8872,332.789 68.5,327.5C 70.5638,327.238 71.8971,326.071 72.5,324C 74.0344,323.077 75.701,322.577 77.5,322.5C 88.4368,325.321 99.4368,327.488 110.5,329C 133.409,295.718 134.243,261.885 113,227.5C 101.981,212.479 87.6473,201.813 70,195.5C 50.7862,210.897 36.1196,229.897 26,252.5C 21.743,262.27 18.0764,272.27 15,282.5C 13.2967,292.259 16.7967,299.426 25.5,304C 33.1667,307 40.8333,310 48.5,313C 51.0288,315.642 52.0288,318.808 51.5,322.5C 49.9497,325.529 47.4497,327.196 44,327.5C 34.6906,324.397 25.524,320.897 16.5,317C 7.82162,312.108 2.15495,304.942 -0.5,295.5C -0.5,290.167 -0.5,284.833 -0.5,279.5C 8.96535,245.066 26.2987,215.233 51.5,190C 57.2431,185.379 63.0764,180.879 69,176.5C 68.7939,139.744 85.9605,115.577 120.5,104C 174.825,91.0393 227.492,96.0393 278.5,119C 284.287,121.394 289.954,124.06 295.5,127C 297.227,129.904 297.893,133.07 297.5,136.5 Z"/></g>
<g><path style="opacity:1" fill="#48545f" d="M 173.5,112.5 C 170.5,121.34 171,130.007 175,138.5C 177.854,142.89 180.687,147.224 183.5,151.5C 168.163,151.333 152.83,151.5 137.5,152C 119.403,154.151 102.236,159.317 86,167.5C 87.0477,143.765 98.881,127.931 121.5,120C 138.408,114.571 155.741,112.071 173.5,112.5 Z"/></g>
<g><path style="opacity:1" fill="#53626f" d="M 173.5,112.5 C 213.337,112.709 251.004,121.876 286.5,140C 291.04,141.338 294.707,140.171 297.5,136.5C 302.833,139.5 308.167,142.5 313.5,145.5C 312.846,149.839 313.846,153.673 316.5,157C 328.22,164.055 339.387,171.888 350,180.5C 350.667,181.5 350.667,182.5 350,183.5C 345,188.5 340,193.5 335,198.5C 287.721,172.554 237.221,156.887 183.5,151.5C 180.687,147.224 177.854,142.89 175,138.5C 171,130.007 170.5,121.34 173.5,112.5 Z"/></g>
<g><path style="opacity:1" fill="#6a7c8d" d="M 179.5,167.5 C 178.178,167.33 177.011,167.663 176,168.5C 167.696,191.359 167.363,214.359 175,237.5C 175.417,238.756 176.25,239.423 177.5,239.5C 164.267,240.87 150.934,242.536 137.5,244.5C 128.489,216.987 110.822,197.154 84.5,185C 114.253,168.415 145.92,162.582 179.5,167.5 Z"/></g>
<g><path style="opacity:1" fill="#8596a5" d="M 179.5,167.5 C 220.444,170.314 259.777,179.814 297.5,196C 311.434,203.8 325.768,210.8 340.5,217C 355.939,222.109 371.606,226.109 387.5,229C 388.787,230.41 389.954,231.91 391,233.5C 391.667,241.833 391.667,250.167 391,258.5C 390.31,261.196 388.81,263.363 386.5,265C 375.091,267.572 363.757,270.572 352.5,274C 334.358,284.24 316.025,294.24 297.5,304C 282.882,310.311 267.882,315.477 252.5,319.5C 250.801,319.66 249.134,319.494 247.5,319C 236.36,313.516 226.027,306.849 216.5,299C 215.177,298.184 214.511,297.017 214.5,295.5C 233.964,285.601 253.298,275.434 272.5,265C 279.891,253.114 276.891,245.114 263.5,241C 234.847,239.773 206.18,239.273 177.5,239.5C 176.25,239.423 175.417,238.756 175,237.5C 167.363,214.359 167.696,191.359 176,168.5C 177.011,167.663 178.178,167.33 179.5,167.5 Z"/></g>
<g><path style="opacity:1" fill="#53616e" d="M 484.5,186.5 C 488.182,186.335 491.848,186.501 495.5,187C 496.517,188.049 496.684,189.216 496,190.5C 478.345,208.488 458.178,222.988 435.5,234C 426.974,244.277 427.641,253.943 437.5,263C 459.124,273.644 478.457,287.477 495.5,304.5C 496.428,305.768 496.595,307.101 496,308.5C 459.249,308.472 425.749,297.972 395.5,277C 404.998,269.009 408.665,258.843 406.5,246.5C 408.509,235.197 405.509,225.53 397.5,217.5C 423.926,199.803 452.926,189.47 484.5,186.5 Z"/></g>
<g><path style="opacity:1" fill="#53626f" d="M 68.5,327.5 C 62.7748,326.036 57.1081,324.369 51.5,322.5C 52.0288,318.808 51.0288,315.642 48.5,313C 40.8333,310 33.1667,307 25.5,304C 16.7967,299.426 13.2967,292.259 15,282.5C 18.0764,272.27 21.743,262.27 26,252.5C 36.1196,229.897 50.7862,210.897 70,195.5C 87.6473,201.813 101.981,212.479 113,227.5C 134.243,261.885 133.409,295.718 110.5,329C 99.4368,327.488 88.4368,325.321 77.5,322.5C 75.701,322.577 74.0344,323.077 72.5,324C 71.8971,326.071 70.5638,327.238 68.5,327.5 Z"/></g>
<g><path style="opacity:1" fill="#010102" d="M 70.5,233.5 C 74.9093,232.618 78.4093,233.952 81,237.5C 81.6667,243.167 81.6667,248.833 81,254.5C 78.9754,259.145 75.4754,260.645 70.5,259C 68.6667,258.5 67.5,257.333 67,255.5C 66.3333,249.5 66.3333,243.5 67,237.5C 68.0319,235.973 69.1986,234.64 70.5,233.5 Z"/></g>
<g><path style="opacity:1" fill="#52616e" d="M 208.5,281.5 C 193.582,280.457 181.082,274.457 171,263.5C 169.295,261.423 168.128,259.09 167.5,256.5C 169.631,255.686 171.964,255.186 174.5,255C 202.19,254.092 229.857,254.425 257.5,256C 241.14,264.513 224.807,273.013 208.5,281.5 Z"/></g>
<g><path style="opacity:1" fill="#47535e" d="M 167.5,256.5 C 168.128,259.09 169.295,261.423 171,263.5C 181.082,274.457 193.582,280.457 208.5,281.5C 200.893,286.19 192.56,288.023 183.5,287C 170.311,282.326 156.978,278.159 143.5,274.5C 143.431,269.146 143.098,263.813 142.5,258.5C 150.77,257.12 159.103,256.454 167.5,256.5 Z"/></g>
<g><path style="opacity:1" fill="#6a7b8c" d="M 214.5,295.5 C 214.511,297.017 215.177,298.184 216.5,299C 226.027,306.849 236.36,313.516 247.5,319C 249.134,319.494 250.801,319.66 252.5,319.5C 211.792,331.652 170.125,335.985 127.5,332.5C 130.043,326.412 132.876,320.412 136,314.5C 138.805,306.276 141.139,297.943 143,289.5C 155.879,293.459 168.712,297.626 181.5,302C 193.229,303.354 204.229,301.187 214.5,295.5 Z"/></g>
<g><path style="opacity:1" fill="#53616e" d="M 315.5,343.5 C 304.323,344.404 293.656,342.571 283.5,338C 279.538,335.86 276.204,333.027 273.5,329.5C 297.336,321.332 319.836,310.332 341,296.5C 345.035,300.2 348.702,304.2 352,308.5C 352.667,309.5 352.667,310.5 352,311.5C 341.77,324.575 329.603,335.242 315.5,343.5 Z"/></g>
<g><path style="opacity:1" fill="#48545e" d="M 273.5,329.5 C 276.204,333.027 279.538,335.86 283.5,338C 293.656,342.571 304.323,344.404 315.5,343.5C 297.625,356.288 277.625,362.122 255.5,361C 244.912,357.247 237.912,350.08 234.5,339.5C 247.707,336.948 260.707,333.615 273.5,329.5 Z"/></g>
<g><path style="opacity:1" fill="#48535e" d="M 146.5,348.5 C 161.175,350.588 173.342,357.254 183,368.5C 186.842,376.759 185.842,384.426 180,391.5C 177.467,396.179 173.633,398.345 168.5,398C 162.387,391.879 157.887,384.712 155,376.5C 151.655,367.299 148.821,357.966 146.5,348.5 Z"/></g>
</svg>
