<?xml version="1.0" encoding="UTF-8"?>
<!DOCTYPE svg PUBLIC "-//W3C//DTD SVG 1.1//EN" "http://www.w3.org/Graphics/SVG/1.1/DTD/svg11.dtd">
<svg xmlns="http://www.w3.org/2000/svg" version="1.1" width="512px" height="512px" style="shape-rendering:geometricPrecision; text-rendering:geometricPrecision; image-rendering:optimizeQuality; fill-rule:evenodd; clip-rule:evenodd" xmlns:xlink="http://www.w3.org/1999/xlink">
<g><path style="opacity:0.963" fill="#010200" d="M 130.5,-0.5 C 139.167,-0.5 147.833,-0.5 156.5,-0.5C 179.91,3.45475 200.41,13.4548 218,29.5C 219.747,33.1251 219.914,36.7917 218.5,40.5C 215.355,42.1908 212.021,42.6908 208.5,42C 189.482,23.9355 166.815,14.7689 140.5,14.5C 104.501,16.8191 87.8346,35.8191 90.5,71.5C 113.447,76.2721 129.28,89.6054 138,111.5C 139.769,116.772 141.602,121.939 143.5,127C 151.844,130.42 160.511,132.253 169.5,132.5C 185.516,133.663 200.182,129.83 213.5,121C 226.523,108.929 231.356,94.0958 228,76.5C 226.773,71.7203 225.273,67.0536 223.5,62.5C 224.307,59.5535 225.64,56.8869 227.5,54.5C 230.93,54.1065 234.096,54.7732 237,56.5C 247.56,78.2033 246.893,99.5366 235,120.5C 219.502,139.517 199.336,148.851 174.5,148.5C 164.342,148.503 154.509,146.836 145,143.5C 143.605,181.802 127.438,211.969 96.5,234C 75.1606,245.87 53.494,246.537 31.5,236C 13.3014,223.105 2.63469,205.605 -0.5,183.5C -0.5,173.833 -0.5,164.167 -0.5,154.5C 5.06715,122.847 21.0672,98.0141 47.5,80C 55.9316,75.6345 64.765,72.4679 74,70.5C 72.8414,30.7783 91.6747,7.1116 130.5,-0.5 Z"/></g>
<g><path style="opacity:0.97" fill="#020200" d="M 457.5,-0.5 C 461.5,-0.5 465.5,-0.5 469.5,-0.5C 476.468,3.36995 481.635,9.03662 485,16.5C 490.626,30.6303 493.96,45.297 495,60.5C 500.043,118.914 489.377,174.247 463,226.5C 446.403,255.102 422.57,274.936 391.5,286C 385.914,287.617 380.247,288.784 374.5,289.5C 375.389,320.391 365.556,347.391 345,370.5C 317.492,401.335 282.992,417.835 241.5,420C 233.646,448.185 217.646,470.518 193.5,487C 188.52,490.476 183.853,490.309 179.5,486.5C 178.136,483.396 178.302,480.396 180,477.5C 197.148,466.686 210.482,452.353 220,434.5C 223.694,424.919 226.861,415.252 229.5,405.5C 273.21,405.657 309.043,388.991 337,355.5C 354.585,332.414 362.251,306.414 360,277.5C 406.548,270.309 439.214,244.975 458,201.5C 480.084,147.159 485.751,91.1588 475,33.5C 473.188,25.8645 469.355,19.5312 463.5,14.5C 459.572,18.0164 456.905,22.3497 455.5,27.5C 451.24,37.3536 446.407,47.0202 441,56.5C 433.958,67.5429 424.458,75.7096 412.5,81C 368.479,85.3965 335.979,106.896 315,145.5C 301.249,171.674 296.916,199.341 302,228.5C 301.167,229.333 300.333,230.167 299.5,231C 251.554,232.381 214.388,252.881 188,292.5C 180.204,305.093 175.538,318.759 174,333.5C 172.561,338.141 169.394,340.141 164.5,339.5C 116.224,333.745 76.7244,349.412 46,386.5C 30.0645,407.178 26.3979,429.845 35,454.5C 53.7405,464.028 73.5738,467.194 94.5,464C 132.363,459.329 162.196,441.496 184,410.5C 190.246,399.998 194.246,388.665 196,376.5C 196.465,375.069 197.299,373.903 198.5,373C 246.85,373.411 284.684,353.911 312,314.5C 324.579,295.268 329.412,274.268 326.5,251.5C 326.736,247.429 328.736,244.596 332.5,243C 361.415,240.792 385.249,228.626 404,206.5C 412.921,195.555 420.254,183.555 426,170.5C 430.333,158.833 434.667,147.167 439,135.5C 441.228,133.887 443.728,133.22 446.5,133.5C 451.261,135.616 452.761,139.283 451,144.5C 444.89,166.713 435.556,187.38 423,206.5C 403.266,234.367 376.599,251.367 343,257.5C 340.901,304.539 320.068,340.706 280.5,366C 258.759,379.469 235.092,386.469 209.5,387C 200.633,419.867 181.3,444.534 151.5,461C 120.725,477.463 88.0587,483.129 53.5,478C 74.9555,493.63 98.9555,499.63 125.5,496C 136.027,494.285 146.36,491.785 156.5,488.5C 159.692,489.366 162.359,491.032 164.5,493.5C 165.029,497.192 164.029,500.358 161.5,503C 151.339,506.924 141.006,509.757 130.5,511.5C 119.167,511.5 107.833,511.5 96.5,511.5C 71.3807,508.19 49.8807,497.524 32,479.5C 13.7611,454.931 10.0945,428.264 21,399.5C 35.0614,368.542 57.8947,346.709 89.5,334C 111.995,324.695 135.328,321.028 159.5,323C 174.635,268.533 209.635,234.199 264.5,220C 271.401,218.294 278.401,217.461 285.5,217.5C 282.621,170.294 298.287,130.46 332.5,98C 353.42,79.9069 377.753,69.5735 405.5,67C 415.506,62.6608 423.339,55.8275 429,46.5C 435.296,32.9211 441.963,19.5878 449,6.5C 451.441,3.54644 454.275,1.21311 457.5,-0.5 Z"/></g>
<g><path style="opacity:1" fill="#a0e42e" d="M 140.5,14.5 C 166.815,14.7689 189.482,23.9355 208.5,42C 212.021,42.6908 215.355,42.1908 218.5,40.5C 221.489,45.1384 224.489,49.8051 227.5,54.5C 225.64,56.8869 224.307,59.5535 223.5,62.5C 225.273,67.0536 226.773,71.7203 228,76.5C 231.356,94.0958 226.523,108.929 213.5,121C 200.182,129.83 185.516,133.663 169.5,132.5C 189.753,120.324 198.587,102.324 196,78.5C 188.005,48.0079 169.505,26.6745 140.5,14.5 Z"/></g>
<g><path style="opacity:1" fill="#baea6b" d="M 140.5,14.5 C 169.505,26.6745 188.005,48.0079 196,78.5C 198.587,102.324 189.753,120.324 169.5,132.5C 160.511,132.253 151.844,130.42 143.5,127C 141.602,121.939 139.769,116.772 138,111.5C 129.28,89.6054 113.447,76.2721 90.5,71.5C 87.8346,35.8191 104.501,16.8191 140.5,14.5 Z"/></g>
<g><path style="opacity:1" fill="#a0e32d" d="M 179.5,486.5 C 174.795,489.405 169.795,491.738 164.5,493.5C 162.359,491.032 159.692,489.366 156.5,488.5C 146.36,491.785 136.027,494.285 125.5,496C 98.9555,499.63 74.9555,493.63 53.5,478C 88.0587,483.129 120.725,477.463 151.5,461C 181.3,444.534 200.633,419.867 209.5,387C 235.092,386.469 258.759,379.469 280.5,366C 320.068,340.706 340.901,304.539 343,257.5C 376.599,251.367 403.266,234.367 423,206.5C 435.556,187.38 444.89,166.713 451,144.5C 452.761,139.283 451.261,135.616 446.5,133.5C 455.066,98.6853 458.066,63.352 455.5,27.5C 456.905,22.3497 459.572,18.0164 463.5,14.5C 469.355,19.5312 473.188,25.8645 475,33.5C 485.751,91.1588 480.084,147.159 458,201.5C 439.214,244.975 406.548,270.309 360,277.5C 362.251,306.414 354.585,332.414 337,355.5C 309.043,388.991 273.21,405.657 229.5,405.5C 226.861,415.252 223.694,424.919 220,434.5C 210.482,452.353 197.148,466.686 180,477.5C 178.302,480.396 178.136,483.396 179.5,486.5 Z"/></g>
<g><path style="opacity:1" fill="#baeb6b" d="M 455.5,27.5 C 458.066,63.352 455.066,98.6853 446.5,133.5C 443.728,133.22 441.228,133.887 439,135.5C 434.667,147.167 430.333,158.833 426,170.5C 420.254,183.555 412.921,195.555 404,206.5C 385.249,228.626 361.415,240.792 332.5,243C 328.736,244.596 326.736,247.429 326.5,251.5C 329.412,274.268 324.579,295.268 312,314.5C 284.684,353.911 246.85,373.411 198.5,373C 197.299,373.903 196.465,375.069 196,376.5C 194.246,388.665 190.246,399.998 184,410.5C 162.196,441.496 132.363,459.329 94.5,464C 73.5738,467.194 53.7405,464.028 35,454.5C 26.3979,429.845 30.0645,407.178 46,386.5C 76.7244,349.412 116.224,333.745 164.5,339.5C 169.394,340.141 172.561,338.141 174,333.5C 175.538,318.759 180.204,305.093 188,292.5C 214.388,252.881 251.554,232.381 299.5,231C 300.333,230.167 301.167,229.333 302,228.5C 296.916,199.341 301.249,171.674 315,145.5C 335.979,106.896 368.479,85.3965 412.5,81C 424.458,75.7096 433.958,67.5429 441,56.5C 446.407,47.0202 451.24,37.3536 455.5,27.5 Z"/></g>
<g><path style="opacity:1" fill="#cfee9c" d="M 76.5,85.5 C 103.407,85.8893 120.24,99.2226 127,125.5C 132.834,161.33 122.334,191.497 95.5,216C 80.8333,227.61 64.5,230.944 46.5,226C 29.4559,217.772 19.2892,204.272 16,185.5C 10.8983,147.229 23.7316,116.729 54.5,94C 61.6067,90.248 68.9401,87.4147 76.5,85.5 Z"/></g>
<g><path style="opacity:1" fill="#050603" d="M 73.5,100.5 C 77.9017,100.228 82.2351,100.561 86.5,101.5C 90.59,105.922 90.2566,110.089 85.5,114C 73.1906,115.64 63.3572,121.473 56,131.5C 51.8873,137.391 48.5539,143.724 46,150.5C 40.8409,154.958 36.5076,154.292 33,148.5C 32.3333,146.833 32.3333,145.167 33,143.5C 40.6225,123.384 54.1225,109.051 73.5,100.5 Z"/></g>
<g><path style="opacity:0.956" fill="#010100" d="M 511.5,408.5 C 511.5,416.167 511.5,423.833 511.5,431.5C 503.054,464.458 483.388,488.292 452.5,503C 443.027,506.946 433.36,509.78 423.5,511.5C 415.167,511.5 406.833,511.5 398.5,511.5C 362.563,504.379 344.73,482.379 345,445.5C 351.702,408.127 372.535,381.96 407.5,367C 431.084,357.487 454.751,357.154 478.5,366C 496.128,375.116 507.128,389.283 511.5,408.5 Z"/></g>
<g><path style="opacity:1" fill="#baeb6b" d="M 453.5,375.5 C 448.821,375.334 444.155,375.501 439.5,376C 458.929,389.036 466.762,407.203 463,430.5C 457.924,452.488 446.424,470.322 428.5,484C 421.767,488.696 414.767,492.863 407.5,496.5C 373.612,493.111 358.112,474.445 361,440.5C 371.666,407.834 393.499,386.668 426.5,377C 435.572,374.693 444.572,374.193 453.5,375.5 Z"/></g>
<g><path style="opacity:1" fill="#a0e42e" d="M 453.5,375.5 C 479.787,378.287 494.121,392.787 496.5,419C 496.087,434.905 490.921,449.072 481,461.5C 461.983,484.591 437.483,496.258 407.5,496.5C 414.767,492.863 421.767,488.696 428.5,484C 446.424,470.322 457.924,452.488 463,430.5C 466.762,407.203 458.929,389.036 439.5,376C 444.155,375.501 448.821,375.334 453.5,375.5 Z"/></g>
</svg>
