<?xml version="1.0" encoding="UTF-8"?>
<!DOCTYPE svg PUBLIC "-//W3C//DTD SVG 1.1//EN" "http://www.w3.org/Graphics/SVG/1.1/DTD/svg11.dtd">
<svg xmlns="http://www.w3.org/2000/svg" version="1.1" width="512px" height="512px" style="shape-rendering:geometricPrecision; text-rendering:geometricPrecision; image-rendering:optimizeQuality; fill-rule:evenodd; clip-rule:evenodd" xmlns:xlink="http://www.w3.org/1999/xlink">
<g><path style="opacity:0.974" fill="#020201" d="M 350.5,-0.5 C 356.5,-0.5 362.5,-0.5 368.5,-0.5C 374.056,1.61155 379.39,4.27821 384.5,7.5C 393.071,4.18689 401.737,3.85356 410.5,6.5C 415.717,4.39446 421.051,2.56113 426.5,1C 431.167,0.333333 435.833,0.333333 440.5,1C 445.949,2.56113 451.283,4.39446 456.5,6.5C 485.518,2.04298 502.185,14.2097 506.5,43C 505.633,46.754 504.966,50.5873 504.5,54.5C 505.709,58.5893 507.209,62.5893 509,66.5C 511,73.8333 511,81.1667 509,88.5C 507.209,92.4107 505.709,96.4107 504.5,100.5C 507.085,109.259 506.751,117.925 503.5,126.5C 506.722,131.61 509.388,136.944 511.5,142.5C 511.5,148.5 511.5,154.5 511.5,160.5C 509.889,164.406 508.222,168.406 506.5,172.5C 510.481,192.532 503.648,207.532 486,217.5C 478.754,244.575 468.754,270.575 456,295.5C 453.358,298.029 450.192,299.029 446.5,298.5C 442.76,295.357 441.593,291.357 443,286.5C 450.95,270.605 457.783,254.271 463.5,237.5C 466.792,228.004 469.625,218.338 472,208.5C 475.497,204.766 479.663,201.932 484.5,200C 489.617,195.099 492.284,189.099 492.5,182C 490.973,176.95 490.473,171.783 491,166.5C 494.305,162.421 496.138,157.754 496.5,152.5C 495.575,138.408 488.075,130.741 474,129.5C 393.364,146.564 322.864,182.731 262.5,238C 248.266,251.732 234.6,265.898 221.5,280.5C 209.874,293.729 198.707,307.396 188,321.5C 172.166,345.831 156.832,370.498 142,395.5C 118.725,431.287 91.2249,463.62 59.5,492.5C 63.297,494.283 67.297,495.45 71.5,496C 77.8333,496.667 84.1667,496.667 90.5,496C 115.201,489.56 140.201,484.726 165.5,481.5C 279.452,464.647 367.286,407.981 429,311.5C 432.303,309.256 435.803,308.923 439.5,310.5C 443.304,314.512 443.471,318.845 440,323.5C 380.901,414.182 298.068,470.682 191.5,493C 158.578,496.817 126.245,502.984 94.5,511.5C 86.1667,511.5 77.8333,511.5 69.5,511.5C 31.619,503.286 8.28568,480.286 -0.5,442.5C -0.5,433.833 -0.5,425.167 -0.5,416.5C 2.79116,403.665 5.95783,390.665 9,377.5C 12.3471,353.389 16.3471,329.389 21,305.5C 22.4482,300.856 25.6149,298.856 30.5,299.5C 33.7664,300.938 35.7664,303.438 36.5,307C 31.5573,331.701 27.3907,356.534 24,381.5C 21.002,393.829 18.002,406.162 15,418.5C 13.6373,429.473 14.804,440.139 18.5,450.5C 58.3399,408.263 103.673,373.263 154.5,345.5C 186.237,295.078 224.904,250.411 270.5,211.5C 290.51,195.407 311.343,180.407 333,166.5C 356.191,125.784 372.358,82.4512 381.5,36.5C 380.042,22.7088 372.375,15.3755 358.5,14.5C 353.087,14.4702 348.421,16.3035 344.5,20C 337.19,19.4564 329.857,19.123 322.5,19C 313.634,22.366 307.634,28.5327 304.5,37.5C 174.626,73.6703 87.4594,155.337 43,282.5C 40.4537,285.186 37.287,286.186 33.5,285.5C 30.6539,284.187 28.9872,281.853 28.5,278.5C 60.1635,180.345 121.163,106.511 211.5,57C 237.594,43.1903 264.927,32.5236 293.5,25C 303.468,7.35236 318.468,0.519024 338.5,4.5C 342.594,2.77792 346.594,1.11125 350.5,-0.5 Z"/></g>
<g><path style="opacity:1" fill="#fef0d5" d="M 358.5,14.5 C 364.083,20.5002 364.917,27.1668 361,34.5C 335.433,59.6342 314.766,88.3009 299,120.5C 287.179,150.128 277.679,180.462 270.5,211.5C 224.904,250.411 186.237,295.078 154.5,345.5C 103.673,373.263 58.3399,408.263 18.5,450.5C 14.804,440.139 13.6373,429.473 15,418.5C 18.002,406.162 21.002,393.829 24,381.5C 27.3907,356.534 31.5573,331.701 36.5,307C 35.7664,303.438 33.7664,300.938 30.5,299.5C 31.5,294.833 32.5,290.167 33.5,285.5C 37.287,286.186 40.4537,285.186 43,282.5C 87.4594,155.337 174.626,73.6703 304.5,37.5C 307.634,28.5327 313.634,22.366 322.5,19C 329.857,19.123 337.19,19.4564 344.5,20C 348.421,16.3035 353.087,14.4702 358.5,14.5 Z"/></g>
<g><path style="opacity:1" fill="#c9e48d" d="M 358.5,14.5 C 372.375,15.3755 380.042,22.7088 381.5,36.5C 372.358,82.4512 356.191,125.784 333,166.5C 311.343,180.407 290.51,195.407 270.5,211.5C 277.679,180.462 287.179,150.128 299,120.5C 314.766,88.3009 335.433,59.6342 361,34.5C 364.917,27.1668 364.083,20.5002 358.5,14.5 Z"/></g>
<g><path style="opacity:1" fill="#60cc59" d="M 476.5,22.5 C 476.883,27.155 475.883,31.4884 473.5,35.5C 483.997,49.4258 483.997,63.4258 473.5,77.5C 479.296,91.4298 476.963,103.763 466.5,114.5C 428.685,123.442 392.352,136.776 357.5,154.5C 357.167,154.167 356.833,153.833 356.5,153.5C 375.534,116.23 388.867,77.0637 396.5,36C 396.366,30.6375 395.366,25.4708 393.5,20.5C 400.253,20.0365 406.753,21.0365 413,23.5C 414.967,23.4581 416.801,22.9581 418.5,22C 429.321,13.3437 439.988,13.677 450.5,23C 452.833,23.6667 455.167,23.6667 457.5,23C 463.877,19.8874 470.21,19.7207 476.5,22.5 Z"/></g>
<g><path style="opacity:1" fill="#2cb54b" d="M 476.5,22.5 C 483.452,24.6897 487.952,29.3564 490,36.5C 490.667,40.5 490.667,44.5 490,48.5C 487.844,52.2616 487.177,56.2616 488,60.5C 497.637,70.9106 497.97,81.5773 489,92.5C 486.968,97.2921 487.301,101.959 490,106.5C 490.499,110.152 490.665,113.818 490.5,117.5C 482.674,115.202 474.674,114.202 466.5,114.5C 476.963,103.763 479.296,91.4298 473.5,77.5C 483.997,63.4258 483.997,49.4258 473.5,35.5C 475.883,31.4884 476.883,27.155 476.5,22.5 Z"/></g>
<g><path style="opacity:1" fill="#93e167" d="M 496.5,152.5 C 488.985,146.214 481.319,146.047 473.5,152C 437.999,189.096 395.332,214.429 345.5,228C 300.213,236.69 258.88,254.19 221.5,280.5C 234.6,265.898 248.266,251.732 262.5,238C 322.864,182.731 393.364,146.564 474,129.5C 488.075,130.741 495.575,138.408 496.5,152.5 Z"/></g>
<g><path style="opacity:1" fill="#c9e48d" d="M 496.5,152.5 C 496.138,157.754 494.305,162.421 491,166.5C 490.473,171.783 490.973,176.95 492.5,182C 492.284,189.099 489.617,195.099 484.5,200C 479.663,201.932 475.497,204.766 472,208.5C 469.625,218.338 466.792,228.004 463.5,237.5C 429.958,287.246 391.292,333.079 347.5,375C 294.63,423.678 233.963,459.178 165.5,481.5C 140.201,484.726 115.201,489.56 90.5,496C 84.1667,496.667 77.8333,496.667 71.5,496C 67.297,495.45 63.297,494.283 59.5,492.5C 91.2249,463.62 118.725,431.287 142,395.5C 156.832,370.498 172.166,345.831 188,321.5C 198.707,307.396 209.874,293.729 221.5,280.5C 258.88,254.19 300.213,236.69 345.5,228C 395.332,214.429 437.999,189.096 473.5,152C 481.319,146.047 488.985,146.214 496.5,152.5 Z"/></g>
<g><path style="opacity:0.999" fill="#93e067" d="M 463.5,237.5 C 457.783,254.271 450.95,270.605 443,286.5C 441.593,291.357 442.76,295.357 446.5,298.5C 443.665,302.164 441.332,306.164 439.5,310.5C 435.803,308.923 432.303,309.256 429,311.5C 367.286,407.981 279.452,464.647 165.5,481.5C 233.963,459.178 294.63,423.678 347.5,375C 391.292,333.079 429.958,287.246 463.5,237.5 Z"/></g>
<g><path style="opacity:1" fill="#92e066" d="M 63.5,468.5 C 56.2225,466.741 50.3892,462.741 46,456.5C 44.2589,453.691 43.0922,450.691 42.5,447.5C 70.858,418.996 102.191,394.329 136.5,373.5C 136.833,373.833 137.167,374.167 137.5,374.5C 116.671,408.809 92.0043,440.142 63.5,468.5 Z"/></g>
<g><path style="opacity:1" fill="#5ec857" d="M 42.5,447.5 C 43.0922,450.691 44.2589,453.691 46,456.5C 50.3892,462.741 56.2225,466.741 63.5,468.5C 59.5666,473.932 54.5666,478.099 48.5,481C 40.6437,482.322 34.8103,479.488 31,472.5C 28.6696,466.811 29.3363,461.477 33,456.5C 36.0359,453.296 39.2026,450.296 42.5,447.5 Z"/></g>
</svg>
