<?xml version="1.0" encoding="UTF-8"?>
<!DOCTYPE svg PUBLIC "-//W3C//DTD SVG 1.1//EN" "http://www.w3.org/Graphics/SVG/1.1/DTD/svg11.dtd">
<svg xmlns="http://www.w3.org/2000/svg" version="1.1" width="512px" height="512px" style="shape-rendering:geometricPrecision; text-rendering:geometricPrecision; image-rendering:optimizeQuality; fill-rule:evenodd; clip-rule:evenodd" xmlns:xlink="http://www.w3.org/1999/xlink">
<g><path style="opacity:0.965" fill="#010201" d="M 340.5,-0.5 C 345.167,-0.5 349.833,-0.5 354.5,-0.5C 368.332,7.10866 373.166,18.7753 369,34.5C 367.726,50.979 364.893,67.1457 360.5,83C 366.428,81.5436 372.094,79.2103 377.5,76C 375.088,60.9717 377.588,46.8051 385,33.5C 394.537,24.329 405.037,23.1623 416.5,30C 420.993,33.8337 423.826,38.667 425,44.5C 436.4,37.1425 447.067,38.1425 457,47.5C 462.582,56.3138 462.915,65.3138 458,74.5C 449.422,83.0826 440.255,90.916 430.5,98C 439.211,110.219 438.211,121.552 427.5,132C 408.823,139.212 390.99,137.378 374,126.5C 363.604,129.724 353.104,132.557 342.5,135C 331.552,156.908 317.885,176.908 301.5,195C 307.023,207.939 310.523,221.439 312,235.5C 312.333,256.5 312.667,277.5 313,298.5C 327.241,285.438 339.408,270.771 349.5,254.5C 337.635,233.95 334.802,212.284 341,189.5C 348.892,178.761 359.059,175.928 371.5,181C 375.333,183.5 378.5,186.667 381,190.5C 383.874,180.001 387.207,169.668 391,159.5C 400.051,149.755 410.551,147.922 422.5,154C 430.878,160.602 433.711,169.102 431,179.5C 424.333,204.848 415.333,229.181 404,252.5C 411.592,246.395 420.092,244.895 429.5,248C 437.745,252.318 442.078,259.151 442.5,268.5C 442.264,272.779 441.097,276.779 439,280.5C 423.217,298.118 403.384,307.951 379.5,310C 374.167,310.333 368.833,310.667 363.5,311C 348.52,328.653 331.686,344.153 313,357.5C 312.667,381.167 312.333,404.833 312,428.5C 310.491,430.919 308.325,431.919 305.5,431.5C 301.83,431.673 299.33,430.007 298,426.5C 297.019,400.413 297.352,374.413 299,348.5C 308.924,340.787 318.758,332.954 328.5,325C 338.197,315.637 347.53,305.97 356.5,296C 377.298,297.037 396.631,292.37 414.5,282C 417.5,279.667 420.5,277.333 423.5,275C 426.265,272.005 427.098,268.505 426,264.5C 422.888,261.277 419.388,260.777 415.5,263C 406.553,272.642 395.553,277.642 382.5,278C 377.845,275.103 376.345,270.937 378,265.5C 396.57,235.78 409.237,203.78 416,169.5C 411.069,163.828 406.735,164.161 403,170.5C 398.531,188.382 392.531,205.715 385,222.5C 379.969,228.676 374.636,229.009 369,223.5C 366.484,216.321 365.984,208.988 367.5,201.5C 367.453,196.786 365.119,194.452 360.5,194.5C 358.307,194.326 356.473,194.993 355,196.5C 350.975,216.374 354.642,234.708 366,251.5C 366.667,253.5 366.667,255.5 366,257.5C 351.462,281.715 333.296,302.882 311.5,321C 304.708,323.276 300.208,321.11 298,314.5C 297.667,289.167 297.333,263.833 297,238.5C 295.361,224.278 291.695,210.611 286,197.5C 285.333,194.833 285.333,192.167 286,189.5C 304.33,169.163 319.496,146.663 331.5,122C 345.888,118.484 360.222,114.65 374.5,110.5C 375.833,110.667 377.167,110.833 378.5,111C 384.439,114.803 390.773,117.803 397.5,120C 404.608,120.924 411.608,120.591 418.5,119C 420.478,116.503 420.978,113.669 420,110.5C 417.039,108.178 414.039,105.845 411,103.5C 408.496,98.3543 409.329,93.8543 413.5,90C 424.858,82.9796 435.358,74.8129 445,65.5C 446.822,58.0013 443.989,54.5013 436.5,55C 431.5,59.3333 426.5,63.6667 421.5,68C 410.536,71.0387 405.702,66.872 407,55.5C 412.003,45.6378 409.169,41.1378 398.5,42C 391.449,53.5321 389.782,65.8654 393.5,79C 393.513,82.6373 392.18,85.6373 389.5,88C 376.759,94.6897 363.426,99.3563 349.5,102C 344.964,100.276 342.631,96.943 342.5,92C 349.594,68.0083 353.427,43.5083 354,18.5C 349.667,13.1667 345.333,13.1667 341,18.5C 338.676,69.8064 323.009,116.473 294,158.5C 290.5,162.667 287,166.833 283.5,171C 276.182,174.023 271.015,171.857 268,164.5C 257.973,145.579 249.806,125.913 243.5,105.5C 243.622,103.209 244.455,101.209 246,99.5C 255.961,92.8646 262.961,83.8646 267,72.5C 267.784,65.2842 264.618,62.1176 257.5,63C 256.333,64.1667 255.167,65.3333 254,66.5C 253.053,74.1135 249.053,79.1135 242,81.5C 237.461,81.0721 234.461,78.7388 233,74.5C 229.414,63.3267 226.414,51.9934 224,40.5C 220.087,34.3825 215.754,34.0492 211,39.5C 210.333,41.8333 210.333,44.1667 211,46.5C 214.812,52.7692 214.312,58.6025 209.5,64C 206.594,65.3185 203.594,65.6518 200.5,65C 195.549,61.702 190.382,58.8687 185,56.5C 179.768,57.2895 177.768,60.2895 179,65.5C 189.237,76.7045 202.07,82.5378 217.5,83C 220.381,84.2506 222.214,86.4173 223,89.5C 225.36,97.6078 228.027,105.608 231,113.5C 231.735,128.212 225.902,131.712 213.5,124C 206.844,123.658 204.011,126.825 205,133.5C 215.805,144.55 228.971,150.384 244.5,151C 254.127,167.752 263.627,184.586 273,201.5C 282.887,226.598 286.221,252.598 283,279.5C 280.367,284.732 276.201,286.565 270.5,285C 250.713,274.879 232.88,262.046 217,246.5C 215.101,243.626 214.267,240.459 214.5,237C 215.091,231.799 215.925,226.633 217,221.5C 218.034,214.633 217.367,207.967 215,201.5C 208.938,195.482 204.438,196.482 201.5,204.5C 204.678,209.924 204.011,214.758 199.5,219C 194.467,220.567 190.633,219.067 188,214.5C 169.189,189.555 154.523,162.222 144,132.5C 140.908,125.93 136.574,124.93 131,129.5C 130.517,135.068 131.517,140.401 134,145.5C 136.3,153.354 133.467,158.021 125.5,159.5C 121.132,158.483 117.132,156.65 113.5,154C 106.847,153.656 104.013,156.823 105,163.5C 111.069,169.286 118.236,173.119 126.5,175C 133.246,175.121 139.913,175.788 146.5,177C 155.941,192.105 165.774,206.938 176,221.5C 178.881,228.197 177.048,233.031 170.5,236C 152.829,236.299 135.496,233.966 118.5,229C 115.814,226.454 114.814,223.287 115.5,219.5C 116.649,215.997 119.149,214.331 123,214.5C 130.757,216.385 138.59,217.885 146.5,219C 149.227,219.818 151.894,219.652 154.5,218.5C 148.77,210.098 143.437,201.431 138.5,192.5C 123.176,191.337 109.176,186.504 96.5,178C 88.577,168.709 87.4103,158.542 93,147.5C 98.467,140.518 105.634,137.518 114.5,138.5C 113.351,122.154 120.851,112.821 137,110.5C 144.218,111.109 150.218,114.109 155,119.5C 164.132,144.097 175.632,167.43 189.5,189.5C 190.002,190.521 190.668,190.688 191.5,190C 201.888,179.657 212.888,178.99 224.5,188C 227.844,191.521 230.011,195.688 231,200.5C 234.016,212.714 233.516,224.88 229.5,237C 241.177,247.847 253.843,257.347 267.5,265.5C 269.439,245.797 266.605,226.797 259,208.5C 251.167,194.167 243.333,179.833 235.5,165.5C 220.495,162.829 207.162,156.663 195.5,147C 189.395,139.408 187.895,130.908 191,121.5C 195.405,112.707 202.571,108.041 212.5,107.5C 211.091,104.273 210.091,100.94 209.5,97.5C 192.702,95.6838 178.535,88.6838 167,76.5C 161.41,65.4576 162.577,55.291 170.5,46C 177.222,41.7499 184.555,40.4165 192.5,42C 193.416,42.3742 194.25,42.8742 195,43.5C 197.401,24.5456 207.901,17.3789 226.5,22C 231.667,24.5 235.5,28.3333 238,33.5C 239.701,40.3153 241.701,46.982 244,53.5C 252.753,46.2159 262.253,45.0492 272.5,50C 280.998,56.4907 284.164,64.9907 282,75.5C 277.997,88.8093 270.83,99.976 260.5,109C 265.704,123.576 271.871,137.742 279,151.5C 298.769,125.954 312.103,97.2874 319,65.5C 322.562,48.6708 324.895,31.6708 326,14.5C 327.413,11.3388 329.08,8.33883 331,5.5C 334.18,3.33769 337.346,1.33769 340.5,-0.5 Z"/></g>
<g><path style="opacity:1" fill="#6cd29f" d="M 305.5,431.5 C 305.5,438.167 305.5,444.833 305.5,451.5C 301.91,451.544 299.41,453.211 298,456.5C 297.667,468.5 297.333,480.5 297,492.5C 292.155,498.079 287.822,497.746 284,491.5C 283.667,468.5 283.333,445.5 283,422.5C 278.367,418.286 272.867,415.786 266.5,415C 264.5,414.333 262.5,414.333 260.5,415C 255.887,419.613 251.221,424.279 246.5,429C 237.963,435.734 228.297,439.067 217.5,439C 211.778,433.913 212.445,429.58 219.5,426C 228.041,424.648 235.207,420.814 241,414.5C 242.227,409.97 241.394,405.97 238.5,402.5C 226.796,395.649 215.796,387.815 205.5,379C 202.833,378.333 200.167,378.333 197.5,379C 187.944,388.073 176.611,393.073 163.5,394C 158.222,389.842 158.222,385.509 163.5,381C 174.024,379.833 182.19,375 188,366.5C 188.667,364.167 188.667,361.833 188,359.5C 179.67,348.848 172.337,337.514 166,325.5C 165.284,320.208 167.617,317.208 173,316.5C 175.503,316.99 177.503,318.323 179,320.5C 186.779,335.583 196.612,349.083 208.5,361C 216.601,362.64 220.934,359.474 221.5,351.5C 220.808,347.502 220.641,343.502 221,339.5C 226.044,335.174 230.378,335.84 234,341.5C 235.473,346.057 236.306,350.723 236.5,355.5C 235.873,362.801 234.54,369.968 232.5,377C 233.194,382.037 235.86,385.704 240.5,388C 251.124,394.061 262.291,398.895 274,402.5C 278.044,401.984 281.044,399.984 283,396.5C 283.667,367.167 283.667,337.833 283,308.5C 282.308,307.975 281.808,307.308 281.5,306.5C 258.088,295.965 236.088,283.132 215.5,268C 208.693,260.855 201.027,254.855 192.5,250C 177.167,249.667 161.833,249.333 146.5,249C 135.864,247.473 125.364,245.306 115,242.5C 113.373,242.625 111.873,243.125 110.5,244C 101.979,255.091 90.9793,262.424 77.5,266C 70.3246,267.48 66.8246,264.647 67,257.5C 68.1667,255.667 69.6667,254.167 71.5,253C 78.3397,252.163 84.173,249.33 89,244.5C 90.4937,239.474 89.3271,235.308 85.5,232C 78.4739,229.405 71.9739,225.905 66,221.5C 63.8509,215.361 65.8509,211.694 72,210.5C 77.4256,213.378 83.0922,215.712 89,217.5C 92.4987,217.332 95.332,215.998 97.5,213.5C 103.437,215.701 109.437,217.701 115.5,219.5C 114.814,223.287 115.814,226.454 118.5,229C 135.496,233.966 152.829,236.299 170.5,236C 177.048,233.031 178.881,228.197 176,221.5C 165.774,206.938 155.941,192.105 146.5,177C 139.913,175.788 133.246,175.121 126.5,175C 118.236,173.119 111.069,169.286 105,163.5C 104.013,156.823 106.847,153.656 113.5,154C 117.132,156.65 121.132,158.483 125.5,159.5C 133.467,158.021 136.3,153.354 134,145.5C 131.517,140.401 130.517,135.068 131,129.5C 136.574,124.93 140.908,125.93 144,132.5C 154.523,162.222 169.189,189.555 188,214.5C 190.633,219.067 194.467,220.567 199.5,219C 204.011,214.758 204.678,209.924 201.5,204.5C 204.438,196.482 208.938,195.482 215,201.5C 217.367,207.967 218.034,214.633 217,221.5C 215.925,226.633 215.091,231.799 214.5,237C 214.267,240.459 215.101,243.626 217,246.5C 232.88,262.046 250.713,274.879 270.5,285C 276.201,286.565 280.367,284.732 283,279.5C 286.221,252.598 282.887,226.598 273,201.5C 263.627,184.586 254.127,167.752 244.5,151C 228.971,150.384 215.805,144.55 205,133.5C 204.011,126.825 206.844,123.658 213.5,124C 225.902,131.712 231.735,128.212 231,113.5C 228.027,105.608 225.36,97.6078 223,89.5C 222.214,86.4173 220.381,84.2506 217.5,83C 202.07,82.5378 189.237,76.7045 179,65.5C 177.768,60.2895 179.768,57.2895 185,56.5C 190.382,58.8687 195.549,61.702 200.5,65C 203.594,65.6518 206.594,65.3185 209.5,64C 214.312,58.6025 214.812,52.7692 211,46.5C 210.333,44.1667 210.333,41.8333 211,39.5C 215.754,34.0492 220.087,34.3825 224,40.5C 226.414,51.9934 229.414,63.3267 233,74.5C 234.461,78.7388 237.461,81.0721 242,81.5C 249.053,79.1135 253.053,74.1135 254,66.5C 255.167,65.3333 256.333,64.1667 257.5,63C 264.618,62.1176 267.784,65.2842 267,72.5C 262.961,83.8646 255.961,92.8646 246,99.5C 244.455,101.209 243.622,103.209 243.5,105.5C 249.806,125.913 257.973,145.579 268,164.5C 271.015,171.857 276.182,174.023 283.5,171C 287,166.833 290.5,162.667 294,158.5C 323.009,116.473 338.676,69.8064 341,18.5C 345.333,13.1667 349.667,13.1667 354,18.5C 353.427,43.5083 349.594,68.0083 342.5,92C 342.631,96.943 344.964,100.276 349.5,102C 363.426,99.3563 376.759,94.6897 389.5,88C 392.18,85.6373 393.513,82.6373 393.5,79C 389.782,65.8654 391.449,53.5321 398.5,42C 409.169,41.1378 412.003,45.6378 407,55.5C 405.702,66.872 410.536,71.0387 421.5,68C 426.5,63.6667 431.5,59.3333 436.5,55C 443.989,54.5013 446.822,58.0013 445,65.5C 435.358,74.8129 424.858,82.9796 413.5,90C 409.329,93.8543 408.496,98.3543 411,103.5C 414.039,105.845 417.039,108.178 420,110.5C 420.978,113.669 420.478,116.503 418.5,119C 411.608,120.591 404.608,120.924 397.5,120C 390.773,117.803 384.439,114.803 378.5,111C 377.167,110.833 375.833,110.667 374.5,110.5C 360.222,114.65 345.888,118.484 331.5,122C 319.496,146.663 304.33,169.163 286,189.5C 285.333,192.167 285.333,194.833 286,197.5C 291.695,210.611 295.361,224.278 297,238.5C 297.333,263.833 297.667,289.167 298,314.5C 300.208,321.11 304.708,323.276 311.5,321C 333.296,302.882 351.462,281.715 366,257.5C 366.667,255.5 366.667,253.5 366,251.5C 354.642,234.708 350.975,216.374 355,196.5C 356.473,194.993 358.307,194.326 360.5,194.5C 365.119,194.452 367.453,196.786 367.5,201.5C 365.984,208.988 366.484,216.321 369,223.5C 374.636,229.009 379.969,228.676 385,222.5C 392.531,205.715 398.531,188.382 403,170.5C 406.735,164.161 411.069,163.828 416,169.5C 409.237,203.78 396.57,235.78 378,265.5C 376.345,270.937 377.845,275.103 382.5,278C 395.553,277.642 406.553,272.642 415.5,263C 419.388,260.777 422.888,261.277 426,264.5C 427.098,268.505 426.265,272.005 423.5,275C 420.5,277.333 417.5,279.667 414.5,282C 396.631,292.37 377.298,297.037 356.5,296C 347.53,305.97 338.197,315.637 328.5,325C 318.758,332.954 308.924,340.787 299,348.5C 297.352,374.413 297.019,400.413 298,426.5C 299.33,430.007 301.83,431.673 305.5,431.5 Z"/></g>
<g><path style="opacity:0.964" fill="#000101" d="M 97.5,213.5 C 95.332,215.998 92.4987,217.332 89,217.5C 83.0922,215.712 77.4256,213.378 72,210.5C 65.8509,211.694 63.8509,215.361 66,221.5C 71.9739,225.905 78.4739,229.405 85.5,232C 89.3271,235.308 90.4937,239.474 89,244.5C 84.173,249.33 78.3397,252.163 71.5,253C 69.6667,254.167 68.1667,255.667 67,257.5C 66.8246,264.647 70.3246,267.48 77.5,266C 90.9793,262.424 101.979,255.091 110.5,244C 111.873,243.125 113.373,242.625 115,242.5C 125.364,245.306 135.864,247.473 146.5,249C 161.833,249.333 177.167,249.667 192.5,250C 201.027,254.855 208.693,260.855 215.5,268C 236.088,283.132 258.088,295.965 281.5,306.5C 281.808,307.308 282.308,307.975 283,308.5C 283.667,337.833 283.667,367.167 283,396.5C 281.044,399.984 278.044,401.984 274,402.5C 262.291,398.895 251.124,394.061 240.5,388C 235.86,385.704 233.194,382.037 232.5,377C 234.54,369.968 235.873,362.801 236.5,355.5C 236.306,350.723 235.473,346.057 234,341.5C 230.378,335.84 226.044,335.174 221,339.5C 220.641,343.502 220.808,347.502 221.5,351.5C 220.934,359.474 216.601,362.64 208.5,361C 196.612,349.083 186.779,335.583 179,320.5C 177.503,318.323 175.503,316.99 173,316.5C 167.617,317.208 165.284,320.208 166,325.5C 172.337,337.514 179.67,348.848 188,359.5C 188.667,361.833 188.667,364.167 188,366.5C 182.19,375 174.024,379.833 163.5,381C 158.222,385.509 158.222,389.842 163.5,394C 176.611,393.073 187.944,388.073 197.5,379C 200.167,378.333 202.833,378.333 205.5,379C 215.796,387.815 226.796,395.649 238.5,402.5C 241.394,405.97 242.227,409.97 241,414.5C 235.207,420.814 228.041,424.648 219.5,426C 212.445,429.58 211.778,433.913 217.5,439C 228.297,439.067 237.963,435.734 246.5,429C 251.221,424.279 255.887,419.613 260.5,415C 262.5,414.333 264.5,414.333 266.5,415C 272.867,415.786 278.367,418.286 283,422.5C 283.333,445.5 283.667,468.5 284,491.5C 287.822,497.746 292.155,498.079 297,492.5C 297.333,480.5 297.667,468.5 298,456.5C 299.41,453.211 301.91,451.544 305.5,451.5C 308.561,451.444 310.728,452.778 312,455.5C 312.667,469.167 312.667,482.833 312,496.5C 309.649,504.016 304.816,509.016 297.5,511.5C 292.833,511.5 288.167,511.5 283.5,511.5C 276.433,508.263 271.6,502.93 269,495.5C 268.5,474.169 268.333,452.836 268.5,431.5C 267.448,431.351 266.448,431.517 265.5,432C 252.575,446.963 236.241,454.63 216.5,455C 202.093,450.9 196.259,441.4 199,426.5C 202.938,416.906 210.105,411.406 220.5,410C 213.88,405.77 207.713,400.937 202,395.5C 189.626,405.625 175.459,410.125 159.5,409C 149.343,405.691 144.01,398.691 143.5,388C 143.681,379.969 147.015,373.636 153.5,369C 159.267,366.814 164.934,364.48 170.5,362C 162.58,351.66 156.08,340.493 151,328.5C 150.011,309.156 159.178,300.323 178.5,302C 183.741,303.239 187.908,306.072 191,310.5C 195.499,318.836 200.499,326.836 206,334.5C 214.452,320.605 225.952,317.438 240.5,325C 246.815,331.132 250.315,338.632 251,347.5C 251.884,356.086 251.384,364.586 249.5,373C 249.833,373.833 250.167,374.667 250.5,375.5C 256.13,378.898 261.963,381.898 268,384.5C 268.833,361.826 268.666,339.159 267.5,316.5C 238.754,304.142 213.087,287.309 190.5,266C 188.722,265.296 186.888,264.796 185,264.5C 162.749,266.387 140.749,264.72 119,259.5C 113.256,263.885 107.423,268.385 101.5,273C 92.947,277.93 83.7804,281.097 74,282.5C 55.8593,279.695 48.8593,269.362 53,251.5C 55.1055,245.728 58.9389,241.562 64.5,239C 52.8142,233.967 47.9809,225.134 50,212.5C 54.3652,199.155 63.5318,193.655 77.5,196C 83.2874,198.394 88.9541,201.06 94.5,204C 97.0288,206.642 98.0288,209.808 97.5,213.5 Z"/></g>
</svg>
