<?xml version="1.0" encoding="UTF-8"?>
<!DOCTYPE svg PUBLIC "-//W3C//DTD SVG 1.1//EN" "http://www.w3.org/Graphics/SVG/1.1/DTD/svg11.dtd">
<svg xmlns="http://www.w3.org/2000/svg" version="1.1" width="512px" height="512px" style="shape-rendering:geometricPrecision; text-rendering:geometricPrecision; image-rendering:optimizeQuality; fill-rule:evenodd; clip-rule:evenodd" xmlns:xlink="http://www.w3.org/1999/xlink">
<g><path style="opacity:0.98" fill="#010202" d="M 345.5,-0.5 C 348.167,-0.5 350.833,-0.5 353.5,-0.5C 354.836,1.01027 356.003,2.67694 357,4.5C 357.5,15.1615 357.667,25.8281 357.5,36.5C 374.977,36.1444 385.477,44.4777 389,61.5C 389.667,203.167 389.667,344.833 389,486.5C 386.954,499.371 379.787,507.704 367.5,511.5C 294.5,511.5 221.5,511.5 148.5,511.5C 136.676,507.835 129.509,499.835 127,487.5C 126.333,345.167 126.333,202.833 127,60.5C 129.312,48.1897 136.478,40.3564 148.5,37C 186.833,36.6667 225.167,36.3333 263.5,36C 291.041,24.0577 318.375,11.8911 345.5,-0.5 Z"/></g>
<g><path style="opacity:1" fill="#6f6f6f" d="M 339.5,19.5 C 341.45,24.7351 342.117,30.4018 341.5,36.5C 328.829,36.6666 316.162,36.4999 303.5,36C 315.71,30.7247 327.71,25.2247 339.5,19.5 Z"/></g>
<g><path style="opacity:1" fill="#e2e2e2" d="M 350.5,52.5 C 350.5,57.1667 350.5,61.8333 350.5,66.5C 281.5,66.5 212.5,66.5 143.5,66.5C 143.5,64.8333 143.5,63.1667 143.5,61.5C 144.524,57.6381 146.857,54.8048 150.5,53C 217.166,52.5 283.833,52.3333 350.5,52.5 Z"/></g>
<g><path style="opacity:1" fill="#cccccc" d="M 350.5,52.5 C 355.179,52.3342 359.845,52.5008 364.5,53C 368.748,54.4129 371.415,57.2462 372.5,61.5C 372.5,63.1667 372.5,64.8333 372.5,66.5C 365.167,66.5 357.833,66.5 350.5,66.5C 350.5,61.8333 350.5,57.1667 350.5,52.5 Z"/></g>
<g><path style="opacity:1" fill="#a1a1a1" d="M 143.5,61.5 C 143.5,63.1667 143.5,64.8333 143.5,66.5C 212.5,66.5 281.5,66.5 350.5,66.5C 357.833,66.5 365.167,66.5 372.5,66.5C 372.5,64.8333 372.5,63.1667 372.5,61.5C 373.461,63.2646 373.795,65.2646 373.5,67.5C 296.5,67.5 219.5,67.5 142.5,67.5C 142.205,65.2646 142.539,63.2646 143.5,61.5 Z"/></g>
<g><path style="opacity:1" fill="#23606f" d="M 142.5,83.5 C 219.332,82.5007 296.332,82.1674 373.5,82.5C 373.5,95.8333 373.5,109.167 373.5,122.5C 296.332,122.833 219.332,122.499 142.5,121.5C 211.833,121.5 281.167,121.5 350.5,121.5C 357.833,121.5 365.167,121.5 372.5,121.5C 372.5,108.833 372.5,96.1667 372.5,83.5C 365.167,83.5 357.833,83.5 350.5,83.5C 281.167,83.5 211.833,83.5 142.5,83.5 Z"/></g>
<g><path style="opacity:1" fill="#399bb3" d="M 142.5,83.5 C 211.833,83.5 281.167,83.5 350.5,83.5C 350.5,96.1667 350.5,108.833 350.5,121.5C 281.167,121.5 211.833,121.5 142.5,121.5C 142.5,108.833 142.5,96.1667 142.5,83.5 Z"/></g>
<g><path style="opacity:1" fill="#348da2" d="M 350.5,83.5 C 357.833,83.5 365.167,83.5 372.5,83.5C 372.5,96.1667 372.5,108.833 372.5,121.5C 365.167,121.5 357.833,121.5 350.5,121.5C 350.5,108.833 350.5,96.1667 350.5,83.5 Z"/></g>
<g><path style="opacity:1" fill="#64ccee" d="M 350.5,137.5 C 350.832,176.67 350.499,215.67 349.5,254.5C 340.101,210.268 313.101,184.102 268.5,176C 221.059,173.963 188.225,194.797 170,238.5C 158.772,279.782 169.272,314.282 201.5,342C 230.793,362.475 262.127,366.142 295.5,353C 325.708,338.43 343.708,314.596 349.5,281.5C 350.499,324.33 350.832,367.33 350.5,410.5C 281.167,410.5 211.833,410.5 142.5,410.5C 142.5,319.5 142.5,228.5 142.5,137.5C 211.833,137.5 281.167,137.5 350.5,137.5 Z"/></g>
<g><path style="opacity:1" fill="#5ab7d6" d="M 350.5,137.5 C 358.167,137.5 365.833,137.5 373.5,137.5C 373.5,228.5 373.5,319.5 373.5,410.5C 365.833,410.5 358.167,410.5 350.5,410.5C 350.832,367.33 350.499,324.33 349.5,281.5C 350.833,272.5 350.833,263.5 349.5,254.5C 350.499,215.67 350.832,176.67 350.5,137.5 Z"/></g>
<g><path style="opacity:1" fill="#030303" d="M 349.5,254.5 C 350.833,263.5 350.833,272.5 349.5,281.5C 343.708,314.596 325.708,338.43 295.5,353C 262.127,366.142 230.793,362.475 201.5,342C 169.272,314.282 158.772,279.782 170,238.5C 188.225,194.797 221.059,173.963 268.5,176C 313.101,184.102 340.101,210.268 349.5,254.5 Z"/></g>
<g><path style="opacity:1" fill="#fcfcfc" d="M 246.5,191.5 C 253.532,191.17 260.532,191.503 267.5,192.5C 245.526,222.308 223.359,251.975 201,281.5C 197.886,284.959 196.886,288.959 198,293.5C 199.214,295.049 200.714,296.215 202.5,297C 217.163,297.5 231.83,297.667 246.5,297.5C 241.556,312.053 236.056,326.386 230,340.5C 198.723,326.358 182.223,302.025 180.5,267.5C 184.392,226.284 206.392,200.951 246.5,191.5 Z"/></g>
<g><path style="opacity:1" fill="#fbfbfb" d="M 285.5,196.5 C 303.865,203.695 317.698,216.029 327,233.5C 341.571,268.307 335.738,299.14 309.5,326C 291.845,340.94 271.511,347.107 248.5,344.5C 271.855,316.98 295.021,289.313 318,261.5C 319.643,256.572 318.143,253.072 313.5,251C 298.504,250.5 283.504,250.333 268.5,250.5C 273.766,232.369 279.433,214.369 285.5,196.5 Z"/></g>
<g><path style="opacity:0.909" fill="#000000" d="M 78.5,208.5 C 81.5184,208.335 84.5184,208.502 87.5,209C 94.2821,213.448 100.782,218.281 107,223.5C 109.167,233.333 105.333,237.167 95.5,235C 89.8333,231.167 84.1667,227.333 78.5,223.5C 73.1783,218.464 73.1783,213.464 78.5,208.5 Z"/></g>
<g><path style="opacity:0.909" fill="#000000" d="M 423.5,208.5 C 433.497,206.991 437.33,210.991 435,220.5C 428.806,225.687 422.306,230.52 415.5,235C 405.667,237.167 401.833,233.333 404,223.5C 410.4,218.254 416.9,213.254 423.5,208.5 Z"/></g>
<g><path style="opacity:1" fill="#f7be31" d="M 259.5,282.5 C 246.833,281.833 234.167,281.167 221.5,280.5C 233.116,264.378 244.949,248.378 257,232.5C 254.433,240.711 251.933,249.044 249.5,257.5C 249.648,260.63 250.982,263.13 253.5,265C 267.167,265.333 280.833,265.667 294.5,266C 283.333,279.167 272.167,292.333 261,305.5C 262.967,300.417 264.467,295.083 265.5,289.5C 265.629,285.299 263.629,282.965 259.5,282.5 Z"/></g>
<g><path style="opacity:0.905" fill="#000000" d="M 47.5,253.5 C 66.1696,253.333 84.8363,253.5 103.5,254C 108.906,255.98 110.739,259.814 109,265.5C 107.891,267.815 106.057,269.315 103.5,270C 84.8333,270.667 66.1667,270.667 47.5,270C 41.5318,267.609 39.6985,263.442 42,257.5C 43.4998,255.531 45.3331,254.198 47.5,253.5 Z"/></g>
<g><path style="opacity:0.905" fill="#000000" d="M 407.5,253.5 C 426.17,253.333 444.836,253.5 463.5,254C 469.468,256.391 471.302,260.558 469,266.5C 467.681,268.487 465.848,269.654 463.5,270C 444.833,270.667 426.167,270.667 407.5,270C 401.458,267.163 399.958,262.663 403,256.5C 404.409,255.219 405.909,254.219 407.5,253.5 Z"/></g>
<g><path style="opacity:1" fill="#513e10" d="M 221.5,280.5 C 234.167,281.167 246.833,281.833 259.5,282.5C 246.483,282.832 233.483,282.499 220.5,281.5C 220.624,280.893 220.957,280.56 221.5,280.5 Z"/></g>
<g><path style="opacity:0.908" fill="#000000" d="M 95.5,288.5 C 105.33,286.829 109.163,290.829 107,300.5C 101.59,304.788 96.0897,308.955 90.5,313C 84.4485,317.696 79.2818,316.863 75,310.5C 74.4163,307.743 74.7496,305.077 76,302.5C 82.6811,297.97 89.1811,293.304 95.5,288.5 Z"/></g>
<g><path style="opacity:0.908" fill="#000000" d="M 407.5,288.5 C 410.187,288.336 412.854,288.503 415.5,289C 421.5,293 427.5,297 433.5,301C 438.602,308.63 436.768,313.796 428,316.5C 420.66,313.159 413.827,308.992 407.5,304C 402.227,298.743 402.227,293.577 407.5,288.5 Z"/></g>
<g><path style="opacity:1" fill="#05090a" d="M 228.5,374.5 C 248.169,374.333 267.836,374.5 287.5,375C 292.721,378.159 293.721,382.326 290.5,387.5C 289.088,388.806 287.421,389.64 285.5,390C 266.833,390.667 248.167,390.667 229.5,390C 224.096,387.917 222.263,384.084 224,378.5C 225.397,376.93 226.897,375.596 228.5,374.5 Z"/></g>
<g><path style="opacity:1" fill="#399bb3" d="M 350.5,426.5 C 350.912,438.229 350.412,449.896 349,461.5C 347.668,463.66 346.168,465.66 344.5,467.5C 277.167,467.5 209.833,467.5 142.5,467.5C 142.5,453.833 142.5,440.167 142.5,426.5C 211.833,426.5 281.167,426.5 350.5,426.5 Z"/></g>
<g><path style="opacity:1" fill="#348da2" d="M 350.5,426.5 C 357.833,426.5 365.167,426.5 372.5,426.5C 372.5,440.167 372.5,453.833 372.5,467.5C 363.167,467.5 353.833,467.5 344.5,467.5C 346.168,465.66 347.668,463.66 349,461.5C 350.412,449.896 350.912,438.229 350.5,426.5 Z"/></g>
<g><path style="opacity:1" fill="#23606f" d="M 372.5,426.5 C 373.496,440.323 373.829,454.323 373.5,468.5C 296.332,468.833 219.332,468.499 142.5,467.5C 209.833,467.5 277.167,467.5 344.5,467.5C 353.833,467.5 363.167,467.5 372.5,467.5C 372.5,453.833 372.5,440.167 372.5,426.5 Z"/></g>
<g><path style="opacity:1" fill="#a4a4a4" d="M 372.5,485.5 C 296.167,484.167 219.833,484.167 143.5,485.5C 142.957,485.44 142.624,485.107 142.5,484.5C 219.5,483.167 296.5,483.167 373.5,484.5C 373.376,485.107 373.043,485.44 372.5,485.5 Z"/></g>
<g><path style="opacity:1" fill="#cccccc" d="M 372.5,485.5 C 371.764,489.791 369.431,492.958 365.5,495C 293.833,495.667 222.167,495.667 150.5,495C 146.403,493.078 144.07,489.912 143.5,485.5C 219.833,484.167 296.167,484.167 372.5,485.5 Z"/></g>
</svg>
