<?xml version="1.0" encoding="UTF-8"?>
<!DOCTYPE svg PUBLIC "-//W3C//DTD SVG 1.1//EN" "http://www.w3.org/Graphics/SVG/1.1/DTD/svg11.dtd">
<svg xmlns="http://www.w3.org/2000/svg" version="1.1" width="512px" height="512px" style="shape-rendering:geometricPrecision; text-rendering:geometricPrecision; image-rendering:optimizeQuality; fill-rule:evenodd; clip-rule:evenodd" xmlns:xlink="http://www.w3.org/1999/xlink">
<g><path style="opacity:0.596" fill="#4d0225" d="M 151.5,56.5 C 217.332,55.3346 283.332,55.1679 349.5,56C 354.88,56.8595 359.547,59.0262 363.5,62.5C 358.728,60.1174 353.728,58.284 348.5,57C 282.834,56.5 217.168,56.3333 151.5,56.5 Z"/></g>
<g><path style="opacity:1" fill="#010000" d="M 151.5,56.5 C 217.168,56.3333 282.834,56.5 348.5,57C 353.728,58.284 358.728,60.1174 363.5,62.5C 365.795,65.2971 368.295,67.9638 371,70.5C 372.859,73.5638 374.692,76.5638 376.5,79.5C 377.887,81.8766 378.721,84.5432 379,87.5C 379.83,115.67 379.664,143.67 378.5,171.5C 377.114,176.961 375.114,182.295 372.5,187.5C 370.704,188.793 369.037,190.293 367.5,192C 373.168,197.84 376.834,204.673 378.5,212.5C 378.821,303.851 378.488,395.185 377.5,486.5C 377.737,487.791 377.404,488.791 376.5,489.5C 374.992,491.181 373.992,493.181 373.5,495.5C 371.177,498.126 368.843,500.793 366.5,503.5C 363.489,504.669 360.822,506.336 358.5,508.5C 353.748,509.667 349.082,510.667 344.5,511.5C 278.833,511.5 213.167,511.5 147.5,511.5C 147.5,511.167 147.5,510.833 147.5,510.5C 141.883,508.024 136.549,505.024 131.5,501.5C 127.976,496.451 124.976,491.117 122.5,485.5C 121.52,395.845 121.187,306.179 121.5,216.5C 122.525,213.026 123.192,209.36 123.5,205.5C 125.341,203.151 126.674,200.485 127.5,197.5C 133.401,194.795 133.734,191.795 128.5,188.5C 126.777,186.747 125.277,184.747 124,182.5C 122.268,177.65 121.268,172.65 121,167.5C 120.333,142.167 120.333,116.833 121,91.5C 120.969,85.6103 122.469,80.2769 125.5,75.5C 128.427,71.2328 131.76,67.2328 135.5,63.5C 140.647,60.5895 145.981,58.2562 151.5,56.5 Z"/></g>
<g><path style="opacity:0.63" fill="#4c0323" d="M 151.5,56.5 C 145.981,58.2562 140.647,60.5895 135.5,63.5C 139.809,59.0159 145.143,56.6825 151.5,56.5 Z"/></g>
<g><path style="opacity:0.541" fill="#4e0223" d="M 363.5,62.5 C 370.461,66.1312 374.794,71.7978 376.5,79.5C 374.692,76.5638 372.859,73.5638 371,70.5C 368.295,67.9638 365.795,65.2971 363.5,62.5 Z"/></g>
<g><path style="opacity:0.765" fill="#510223" d="M 135.5,63.5 C 131.76,67.2328 128.427,71.2328 125.5,75.5C 127.04,69.9638 130.373,65.9638 135.5,63.5 Z"/></g>
<g><path style="opacity:1" fill="#fb8abd" d="M 156.5,76.5 C 166.5,76.5 176.5,76.5 186.5,76.5C 186.5,107.167 186.5,137.833 186.5,168.5C 173.163,168.667 159.829,168.5 146.5,168C 143.233,166.085 141.9,167.252 142.5,171.5C 141.336,143.67 141.17,115.67 142,87.5C 144.131,80.1954 148.964,76.5287 156.5,76.5 Z"/></g>
<g><path style="opacity:1" fill="#8f345e" d="M 156.5,76.5 C 166.653,75.5058 176.986,75.1724 187.5,75.5C 187.5,111.5 187.5,147.5 187.5,183.5C 176.321,183.828 165.321,183.495 154.5,182.5C 165.167,182.5 175.833,182.5 186.5,182.5C 186.5,177.833 186.5,173.167 186.5,168.5C 186.5,137.833 186.5,107.167 186.5,76.5C 176.5,76.5 166.5,76.5 156.5,76.5 Z"/></g>
<g><path style="opacity:1" fill="#7c254d" d="M 198.5,75.5 C 213.833,75.5 229.167,75.5 244.5,75.5C 244.5,111.5 244.5,147.5 244.5,183.5C 229.167,183.5 213.833,183.5 198.5,183.5C 198.5,147.5 198.5,111.5 198.5,75.5 Z"/></g>
<g><path style="opacity:1" fill="#fe8cbf" d="M 243.5,168.5 C 228.833,168.5 214.167,168.5 199.5,168.5C 199.5,137.833 199.5,107.167 199.5,76.5C 214.167,76.5 228.833,76.5 243.5,76.5C 243.5,107.167 243.5,137.833 243.5,168.5 Z"/></g>
<g><path style="opacity:1" fill="#7b244c" d="M 255.5,75.5 C 270.5,75.5 285.5,75.5 300.5,75.5C 300.5,111.5 300.5,147.5 300.5,183.5C 285.5,183.5 270.5,183.5 255.5,183.5C 255.5,147.5 255.5,111.5 255.5,75.5 Z"/></g>
<g><path style="opacity:1" fill="#fe8cbf" d="M 299.5,168.5 C 285.167,168.5 270.833,168.5 256.5,168.5C 256.5,137.833 256.5,107.167 256.5,76.5C 270.833,76.5 285.167,76.5 299.5,76.5C 299.5,107.167 299.5,137.833 299.5,168.5 Z"/></g>
<g><path style="opacity:1" fill="#701b43" d="M 343.5,76.5 C 335.833,76.5 328.167,76.5 320.5,76.5C 317.833,76.5 315.167,76.5 312.5,76.5C 312.5,106.167 312.5,135.833 312.5,165.5C 312.5,171.167 312.5,176.833 312.5,182.5C 323.5,182.5 334.5,182.5 345.5,182.5C 334.346,183.495 323.012,183.828 311.5,183.5C 311.5,147.5 311.5,111.5 311.5,75.5C 322.346,75.1722 333.013,75.5056 343.5,76.5 Z"/></g>
<g><path style="opacity:1" fill="#ff8bc0" d="M 320.5,76.5 C 321.594,78.3594 322.427,80.3594 323,82.5C 323.667,105.5 323.667,128.5 323,151.5C 321.644,157.921 318.144,162.588 312.5,165.5C 312.5,135.833 312.5,106.167 312.5,76.5C 315.167,76.5 317.833,76.5 320.5,76.5 Z"/></g>
<g><path style="opacity:1" fill="#fd67bf" d="M 320.5,76.5 C 328.167,76.5 335.833,76.5 343.5,76.5C 350.083,77.2429 354.916,80.5762 358,86.5C 358.667,115.167 358.667,143.833 358,172.5C 355.664,178.089 351.498,181.422 345.5,182.5C 334.5,182.5 323.5,182.5 312.5,182.5C 312.5,176.833 312.5,171.167 312.5,165.5C 318.144,162.588 321.644,157.921 323,151.5C 323.667,128.5 323.667,105.5 323,82.5C 322.427,80.3594 321.594,78.3594 320.5,76.5 Z"/></g>
<g><path style="opacity:1" fill="#fffcfd" d="M 158.5,90.5 C 170.896,90.2322 175.396,96.2322 172,108.5C 167.298,115.076 161.631,116.076 155,111.5C 152.599,106.768 151.932,101.768 153,96.5C 154.36,93.9774 156.193,91.9774 158.5,90.5 Z"/></g>
<g><path style="opacity:1" fill="#fffdfe" d="M 159.5,128.5 C 164.948,127.975 169.115,129.975 172,134.5C 172.667,140.5 172.667,146.5 172,152.5C 168.82,158.234 163.987,160.067 157.5,158C 155.19,156.363 153.69,154.196 153,151.5C 152.333,146.167 152.333,140.833 153,135.5C 154.694,132.642 156.861,130.309 159.5,128.5 Z"/></g>
<g><path style="opacity:1" fill="#fd67bf" d="M 186.5,168.5 C 186.5,173.167 186.5,177.833 186.5,182.5C 175.833,182.5 165.167,182.5 154.5,182.5C 148.134,181.452 144.134,177.786 142.5,171.5C 141.9,167.252 143.233,166.085 146.5,168C 159.829,168.5 173.163,168.667 186.5,168.5 Z"/></g>
<g><path style="opacity:1" fill="#ff68c1" d="M 199.5,168.5 C 214.167,168.5 228.833,168.5 243.5,168.5C 243.5,173.167 243.5,177.833 243.5,182.5C 228.833,182.5 214.167,182.5 199.5,182.5C 199.5,177.833 199.5,173.167 199.5,168.5 Z"/></g>
<g><path style="opacity:1" fill="#ff68c1" d="M 256.5,168.5 C 270.833,168.5 285.167,168.5 299.5,168.5C 299.5,173.167 299.5,177.833 299.5,182.5C 285.167,182.5 270.833,182.5 256.5,182.5C 256.5,177.833 256.5,173.167 256.5,168.5 Z"/></g>
<g><path style="opacity:0.546" fill="#4c0321" d="M 378.5,171.5 C 378.649,177.728 376.649,183.061 372.5,187.5C 375.114,182.295 377.114,176.961 378.5,171.5 Z"/></g>
<g><path style="opacity:0.628" fill="#4f0225" d="M 128.5,188.5 C 133.734,191.795 133.401,194.795 127.5,197.5C 128.048,195.606 129.048,193.94 130.5,192.5C 129.37,191.378 128.703,190.044 128.5,188.5 Z"/></g>
<g><path style="opacity:0.614" fill="#4d0224" d="M 127.5,197.5 C 126.674,200.485 125.341,203.151 123.5,205.5C 123.794,202.246 125.127,199.579 127.5,197.5 Z"/></g>
<g><path style="opacity:1" fill="#fef1a4" d="M 323.5,203.5 C 324.234,204.708 324.567,206.041 324.5,207.5C 324.5,220.833 324.5,234.167 324.5,247.5C 263.833,247.5 203.167,247.5 142.5,247.5C 142.5,236.167 142.5,224.833 142.5,213.5C 143.921,208.91 146.921,205.744 151.5,204C 208.832,203.5 266.166,203.333 323.5,203.5 Z"/></g>
<g><path style="opacity:1" fill="#fdb5a7" d="M 323.5,203.5 C 331.84,203.334 340.173,203.5 348.5,204C 353.245,205.115 356.412,207.948 358,212.5C 358.5,224.495 358.667,236.495 358.5,248.5C 347.5,248.5 336.5,248.5 325.5,248.5C 325.829,234.656 325.496,220.99 324.5,207.5C 324.567,206.041 324.234,204.708 323.5,203.5 Z"/></g>
<g><path style="opacity:0.605" fill="#4f0223" d="M 372.5,187.5 C 371.952,189.394 370.952,191.06 369.5,192.5C 375.201,197.93 378.201,204.597 378.5,212.5C 376.834,204.673 373.168,197.84 367.5,192C 369.037,190.293 370.704,188.793 372.5,187.5 Z"/></g>
<g><path style="opacity:0.833" fill="#4e0225" d="M 123.5,205.5 C 123.192,209.36 122.525,213.026 121.5,216.5C 121.116,212.511 121.783,208.845 123.5,205.5 Z"/></g>
<g><path style="opacity:0.309" fill="#4c0323" d="M 378.5,212.5 C 379.666,302.332 379.832,392.332 379,482.5C 378.79,484.058 378.29,485.391 377.5,486.5C 378.488,395.185 378.821,303.851 378.5,212.5 Z"/></g>
<g><path style="opacity:0.027" fill="#480023" d="M 121.5,216.5 C 121.187,306.179 121.52,395.845 122.5,485.5C 121.686,483.369 121.186,481.036 121,478.5C 120.168,390.999 120.334,303.666 121.5,216.5 Z"/></g>
<g><path style="opacity:1" fill="#ead596" d="M 324.5,207.5 C 325.496,220.99 325.829,234.656 325.5,248.5C 264.167,248.5 202.833,248.5 141.5,248.5C 141.172,236.655 141.505,224.988 142.5,213.5C 142.5,224.833 142.5,236.167 142.5,247.5C 203.167,247.5 263.833,247.5 324.5,247.5C 324.5,234.167 324.5,220.833 324.5,207.5 Z"/></g>
<g><path style="opacity:1" fill="#fdfdfd" d="M 325.5,260.5 C 325.5,260.833 325.5,261.167 325.5,261.5C 325.5,282.5 325.5,303.5 325.5,324.5C 264.167,324.5 202.833,324.5 141.5,324.5C 141.5,303.167 141.5,281.833 141.5,260.5C 202.833,260.5 264.167,260.5 325.5,260.5 Z"/></g>
<g><path style="opacity:1" fill="#fec0fd" d="M 325.5,261.5 C 336.167,261.5 346.833,261.5 357.5,261.5C 357.5,282.5 357.5,303.5 357.5,324.5C 346.833,324.5 336.167,324.5 325.5,324.5C 325.5,303.5 325.5,282.5 325.5,261.5 Z"/></g>
<g><path style="opacity:1" fill="#d796cd" d="M 325.5,261.5 C 325.5,261.167 325.5,260.833 325.5,260.5C 336.5,260.5 347.5,260.5 358.5,260.5C 358.831,282.007 358.497,303.34 357.5,324.5C 357.5,303.5 357.5,282.5 357.5,261.5C 346.833,261.5 336.167,261.5 325.5,261.5 Z"/></g>
<g><path style="opacity:1" fill="#fea684" d="M 325.5,337.5 C 325.667,368.502 325.5,399.502 325,430.5C 323.812,431.563 323.312,432.897 323.5,434.5C 323.167,434.5 322.833,434.5 322.5,434.5C 262.5,434.5 202.5,434.5 142.5,434.5C 142.5,402.167 142.5,369.833 142.5,337.5C 203.5,337.5 264.5,337.5 325.5,337.5 Z"/></g>
<g><path style="opacity:1" fill="#ff7d87" d="M 325.5,337.5 C 336.167,337.5 346.833,337.5 357.5,337.5C 357.5,369.833 357.5,402.167 357.5,434.5C 346.167,434.5 334.833,434.5 323.5,434.5C 323.312,432.897 323.812,431.563 325,430.5C 325.5,399.502 325.667,368.502 325.5,337.5 Z"/></g>
<g><path style="opacity:1" fill="#cb5a6a" d="M 325.5,337.5 C 325.5,337.167 325.5,336.833 325.5,336.5C 336.5,336.5 347.5,336.5 358.5,336.5C 358.5,369.5 358.5,402.5 358.5,435.5C 346.5,435.5 334.5,435.5 322.5,435.5C 322.5,435.167 322.5,434.833 322.5,434.5C 322.833,434.5 323.167,434.5 323.5,434.5C 334.833,434.5 346.167,434.5 357.5,434.5C 357.5,402.167 357.5,369.833 357.5,337.5C 346.833,337.5 336.167,337.5 325.5,337.5 Z"/></g>
<g><path style="opacity:1" fill="#510626" d="M 297.5,354.5 C 301.013,353.876 303.847,354.876 306,357.5C 306.667,365.167 306.667,372.833 306,380.5C 301.845,384.704 298.178,384.371 295,379.5C 294.333,372.5 294.333,365.5 295,358.5C 295.662,357.016 296.496,355.683 297.5,354.5 Z"/></g>
<g><path style="opacity:1" fill="#4f0426" d="M 258.5,388.5 C 261.97,387.875 264.804,388.875 267,391.5C 267.667,398.833 267.667,406.167 267,413.5C 263.74,418.285 260.073,418.619 256,414.5C 255.333,406.833 255.333,399.167 256,391.5C 257.045,390.627 257.878,389.627 258.5,388.5 Z"/></g>
<g><path style="opacity:1" fill="#b15e5a" d="M 325.5,336.5 C 325.5,336.833 325.5,337.167 325.5,337.5C 264.5,337.5 203.5,337.5 142.5,337.5C 142.5,369.833 142.5,402.167 142.5,434.5C 202.5,434.5 262.5,434.5 322.5,434.5C 322.5,434.833 322.5,435.167 322.5,435.5C 262.167,435.5 201.833,435.5 141.5,435.5C 141.5,402.5 141.5,369.5 141.5,336.5C 202.833,336.5 264.167,336.5 325.5,336.5 Z"/></g>
<g><path style="opacity:1" fill="#853e67" d="M 358.5,447.5 C 286.5,447.5 214.5,447.5 142.5,447.5C 142.5,458.833 142.5,470.167 142.5,481.5C 141.505,470.012 141.172,458.345 141.5,446.5C 214.002,446.167 286.335,446.501 358.5,447.5 Z"/></g>
<g><path style="opacity:1" fill="#fcbdfb" d="M 358.5,447.5 C 358.667,458.505 358.5,469.505 358,480.5C 356.594,485.573 353.428,489.073 348.5,491C 282.833,491.667 217.167,491.667 151.5,491C 146.944,489.278 143.944,486.111 142.5,481.5C 142.5,470.167 142.5,458.833 142.5,447.5C 214.5,447.5 286.5,447.5 358.5,447.5 Z"/></g>
<g><path style="opacity:0.651" fill="#500224" d="M 122.5,485.5 C 124.976,491.117 127.976,496.451 131.5,501.5C 126.437,497.379 123.437,492.046 122.5,485.5 Z"/></g>
<g><path style="opacity:0.694" fill="#4d0225" d="M 376.5,489.5 C 376.539,492.089 375.539,494.089 373.5,495.5C 373.992,493.181 374.992,491.181 376.5,489.5 Z"/></g>
<g><path style="opacity:0.035" fill="#4b0224" d="M 373.5,495.5 C 372.55,499.413 370.217,502.08 366.5,503.5C 368.843,500.793 371.177,498.126 373.5,495.5 Z"/></g>
<g><path style="opacity:0.605" fill="#4e0222" d="M 131.5,501.5 C 136.549,505.024 141.883,508.024 147.5,510.5C 140.954,509.563 135.621,506.563 131.5,501.5 Z"/></g>
<g><path style="opacity:0.212" fill="#4a0423" d="M 366.5,503.5 C 364.47,506.182 361.803,507.849 358.5,508.5C 360.822,506.336 363.489,504.669 366.5,503.5 Z"/></g>
<g><path style="opacity:0.795" fill="#4b0424" d="M 358.5,508.5 C 356.928,509.687 355.261,510.687 353.5,511.5C 350.5,511.5 347.5,511.5 344.5,511.5C 349.082,510.667 353.748,509.667 358.5,508.5 Z"/></g>
</svg>
