<?xml version="1.0" encoding="UTF-8"?>
<!DOCTYPE svg PUBLIC "-//W3C//DTD SVG 1.1//EN" "http://www.w3.org/Graphics/SVG/1.1/DTD/svg11.dtd">
<svg xmlns="http://www.w3.org/2000/svg" version="1.1" width="512px" height="512px" style="shape-rendering:geometricPrecision; text-rendering:geometricPrecision; image-rendering:optimizeQuality; fill-rule:evenodd; clip-rule:evenodd" xmlns:xlink="http://www.w3.org/1999/xlink">
<g><path style="opacity:0.965" fill="#020101" d="M 222.5,132.5 C 281.548,129.893 339.881,135.059 397.5,148C 419.564,153.038 440.231,161.371 459.5,173C 469.639,179.457 476.806,188.29 481,199.5C 481.667,236.833 481.667,274.167 481,311.5C 477.472,321.031 471.639,328.864 463.5,335C 447.487,345.67 430.154,353.67 411.5,359C 370.941,370.271 329.607,376.604 287.5,378C 228.786,381.052 170.786,376.052 113.5,363C 91.4358,357.962 70.7692,349.629 51.5,338C 41.3612,331.543 34.1945,322.71 30,311.5C 29.3333,274.167 29.3333,236.833 30,199.5C 31.3923,193.786 34.059,188.786 38,184.5C 51.5356,172.144 67.0356,162.977 84.5,157C 111.167,147.833 138.5,141.5 166.5,138C 185.276,135.715 203.943,133.882 222.5,132.5 Z"/></g>
<g><path style="opacity:0.999" fill="#a0877e" d="M 224.5,142.5 C 284.71,139.791 344.044,145.624 402.5,160C 423.193,165.183 442.193,173.85 459.5,186C 475.963,201.062 475.296,215.395 457.5,229C 436.252,242.451 413.252,251.784 388.5,257C 331.456,269.188 273.789,273.522 215.5,270C 168.325,268.417 122.658,259.417 78.5,243C 26.2143,218.14 26.5476,193.806 79.5,170C 110.156,158.268 141.823,150.601 174.5,147C 191.292,145.157 207.958,143.657 224.5,142.5 Z"/></g>
<g><path style="opacity:0.999" fill="#040303" d="M 213.5,167.5 C 215.199,167.34 216.866,167.506 218.5,168C 244.906,191.617 271.406,215.117 298,238.5C 299.352,245.232 296.852,247.399 290.5,245C 265.463,222.295 240.13,199.961 214.5,178C 209.876,174.711 209.542,171.211 213.5,167.5 Z"/></g>
<g><path style="opacity:0.999" fill="#040303" d="M 299.5,167.5 C 301.199,167.34 302.866,167.506 304.5,168C 330.314,189.816 355.48,212.316 380,235.5C 379.678,241.249 376.844,242.749 371.5,240C 347,218.167 322.5,196.333 298,174.5C 297.167,171.829 297.667,169.496 299.5,167.5 Z"/></g>
<g><path style="opacity:0.999" fill="#040303" d="M 132.5,173.5 C 134.527,173.338 136.527,173.505 138.5,174C 162.667,195.5 186.833,217 211,238.5C 212.143,243.859 209.976,246.026 204.5,245C 180.315,223.314 155.982,201.814 131.5,180.5C 130.328,177.995 130.662,175.661 132.5,173.5 Z"/></g>
<g><path style="opacity:1" fill="#936b75" d="M 39.5,229.5 C 58.1241,245.313 79.4575,256.147 103.5,262C 151.65,274.749 200.65,280.916 250.5,280.5C 304.756,281.342 358.089,274.842 410.5,261C 428.659,255.751 445.659,248.084 461.5,238C 464.965,235.537 468.131,232.704 471,229.5C 471.667,255.833 471.667,282.167 471,308.5C 468.803,315.703 464.636,321.537 458.5,326C 440.076,338.147 420.076,346.814 398.5,352C 334.97,366.989 270.637,371.989 205.5,367C 162.139,364.728 120.139,356.061 79.5,341C 66.4009,335.891 54.9009,328.391 45,318.5C 42.8061,315.446 41.1395,312.112 40,308.5C 39.5,282.169 39.3334,255.835 39.5,229.5 Z"/></g>
</svg>
