<?xml version="1.0" encoding="UTF-8"?>
<!DOCTYPE svg PUBLIC "-//W3C//DTD SVG 1.1//EN" "http://www.w3.org/Graphics/SVG/1.1/DTD/svg11.dtd">
<svg xmlns="http://www.w3.org/2000/svg" version="1.1" width="512px" height="512px" style="shape-rendering:geometricPrecision; text-rendering:geometricPrecision; image-rendering:optimizeQuality; fill-rule:evenodd; clip-rule:evenodd" xmlns:xlink="http://www.w3.org/1999/xlink">
<g><path style="opacity:0.968" fill="#020100" d="M 511.5,226.5 C 511.5,231.5 511.5,236.5 511.5,241.5C 507.725,252.431 500.059,258.931 488.5,261C 467.968,264.005 447.468,267.172 427,270.5C 422.704,270.036 420.204,267.703 419.5,263.5C 419.245,259.507 420.911,256.674 424.5,255C 445.828,251.667 467.162,248.334 488.5,245C 496.396,241.066 498.396,235.232 494.5,227.5C 492.012,223.836 488.512,221.836 484,221.5C 445.167,227.333 406.333,233.167 367.5,239C 365.152,239.346 363.319,240.513 362,242.5C 359.824,245.529 357.657,248.529 355.5,251.5C 350.697,257.135 345.363,262.302 339.5,267C 357.007,264.901 374.507,262.401 392,259.5C 396.756,259.764 399.922,262.098 401.5,266.5C 401.265,270.57 399.265,273.403 395.5,275C 371.714,278.326 348.047,282.159 324.5,286.5C 333.133,298.552 338.967,311.886 342,326.5C 345.063,338.668 346.396,351.001 346,363.5C 345.535,364.931 344.701,366.097 343.5,367C 337.206,367.905 331.206,366.905 325.5,364C 302.439,356.072 283.105,342.905 267.5,324.5C 248.106,346.375 224.106,360.875 195.5,368C 184.667,379.5 173.833,391 163,402.5C 153.804,412.03 144.304,421.197 134.5,430C 105.029,449.946 78.5292,446.446 55,419.5C 46.4723,408.452 39.4723,396.452 34,383.5C 29.6927,374.421 29.6927,365.421 34,356.5C 38.6233,351.979 44.1233,350.479 50.5,352C 53.9927,352.942 57.326,354.275 60.5,356C 69.1675,362.671 78.5008,368.338 88.5,373C 98.1955,376.663 107.196,375.33 115.5,369C 118.5,366.667 121.5,364.333 124.5,362C 141.5,344.333 158.5,326.667 175.5,309C 140.148,313.526 104.815,318.526 69.5,324C 52.5884,326.515 36.5884,323.848 21.5,316C 9.3938,306.286 2.06046,293.786 -0.5,278.5C -0.5,268.5 -0.5,258.5 -0.5,248.5C 0.961581,236.342 4.46158,224.675 10,213.5C 20.4772,202.378 30.1438,203.044 39,215.5C 43.2178,228.154 48.2178,240.487 54,252.5C 60.9294,262.103 70.4294,266.436 82.5,265.5C 93.0948,264.86 103.595,263.527 114,261.5C 118.332,262.002 120.832,264.335 121.5,268.5C 121.747,271.505 120.747,274.005 118.5,276C 102.054,279.972 85.387,281.305 68.5,280C 55.7324,277.7 46.2324,270.867 40,259.5C 34.2681,246.962 28.9347,234.296 24,221.5C 21.5867,224.062 19.92,227.062 19,230.5C 13.7926,248.753 13.2926,267.086 17.5,285.5C 24.6492,302.178 37.4826,310.178 56,309.5C 107.57,302.52 159.07,295.02 210.5,287C 211.975,284.691 213.642,282.524 215.5,280.5C 212.139,278.489 208.806,276.489 205.5,274.5C 200.778,271.269 195.944,268.269 191,265.5C 176.479,267.711 161.979,270.044 147.5,272.5C 143.527,271.52 140.86,269.186 139.5,265.5C 139.66,261.342 141.66,258.508 145.5,257C 156.584,255.597 167.584,253.764 178.5,251.5C 170.094,241.696 162.928,231.029 157,219.5C 156.107,216.084 156.607,212.917 158.5,210C 163.277,208.02 168.277,207.02 173.5,207C 193.665,204.963 213.332,207.129 232.5,213.5C 234.961,184.427 245.294,158.593 263.5,136C 267.505,134.902 271.005,135.735 274,138.5C 282.863,151.391 290.03,165.224 295.5,180C 295.85,181.257 296.517,181.591 297.5,181C 331.5,145.667 365.5,110.333 399.5,75C 410.259,66.9369 421.593,65.9369 433.5,72C 445.852,81.8248 449.018,93.9914 443,108.5C 441.333,110.833 439.667,113.167 438,115.5C 408.47,145.363 379.303,175.529 350.5,206C 358.573,206.582 366.573,207.582 374.5,209C 378.85,212.583 379.517,216.749 376.5,221.5C 410.035,217.209 443.701,212.376 477.5,207C 494.169,204.494 505.502,210.994 511.5,226.5 Z"/></g>
<g><path style="opacity:1" fill="#aa5c2b" d="M 306.5,212.5 C 337.129,180.036 367.963,147.702 399,115.5C 405.187,109.214 407.021,101.881 404.5,93.5C 406.962,90.5361 409.629,87.7028 412.5,85C 420.272,82.0342 426.105,84.2009 430,91.5C 430.701,94.9283 430.368,98.2617 429,101.5C 395.532,137.303 361.698,172.803 327.5,208C 320.235,208.401 313.235,209.901 306.5,212.5 Z"/></g>
<g><path style="opacity:1" fill="#c46b34" d="M 404.5,93.5 C 407.021,101.881 405.187,109.214 399,115.5C 367.963,147.702 337.129,180.036 306.5,212.5C 304.742,212.877 303.075,213.544 301.5,214.5C 300.338,209.869 300.172,205.202 301,200.5C 335.367,164.634 369.867,128.967 404.5,93.5 Z"/></g>
<g><path style="opacity:1" fill="#f5b656" d="M 267.5,158.5 C 275.935,170.948 281.769,184.614 285,199.5C 285.901,207.579 285.568,215.579 284,223.5C 281.469,226.888 278.302,229.221 274.5,230.5C 274.666,224.824 274.499,219.157 274,213.5C 272.362,211.266 270.195,209.933 267.5,209.5C 267.5,192.5 267.5,175.5 267.5,158.5 Z"/></g>
<g><path style="opacity:1" fill="#f9d16f" d="M 267.5,158.5 C 267.5,175.5 267.5,192.5 267.5,209.5C 264.293,210.026 261.793,211.692 260,214.5C 259.829,219.864 259.329,225.198 258.5,230.5C 255.759,228.047 252.925,225.714 250,223.5C 247.635,210.911 248.635,198.577 253,186.5C 256.865,176.436 261.532,166.77 267,157.5C 267.399,157.728 267.565,158.062 267.5,158.5 Z"/></g>
<g><path style="opacity:1" fill="#705327" d="M 197.5,222.5 C 191.5,222.5 185.5,222.5 179.5,222.5C 178.508,222.328 177.842,222.662 177.5,223.5C 176.957,223.44 176.624,223.107 176.5,222.5C 183.656,221.181 190.656,221.181 197.5,222.5 Z"/></g>
<g><path style="opacity:0.999" fill="#d57c47" d="M 121.5,268.5 C 127.462,267.315 133.462,266.315 139.5,265.5C 140.86,269.186 143.527,271.52 147.5,272.5C 161.979,270.044 176.479,267.711 191,265.5C 195.944,268.269 200.778,271.269 205.5,274.5C 205.082,275.222 204.416,275.722 203.5,276C 157.133,282.74 110.8,289.74 64.5,297C 47.1994,299.312 31.5327,295.478 17.5,285.5C 13.2926,267.086 13.7926,248.753 19,230.5C 19.92,227.062 21.5867,224.062 24,221.5C 28.9347,234.296 34.2681,246.962 40,259.5C 46.2324,270.867 55.7324,277.7 68.5,280C 85.387,281.305 102.054,279.972 118.5,276C 120.747,274.005 121.747,271.505 121.5,268.5 Z"/></g>
<g><path style="opacity:1" fill="#f7b756" d="M 179.5,222.5 C 185.5,222.5 191.5,222.5 197.5,222.5C 214.478,222.715 229.811,227.715 243.5,237.5C 244.521,238.002 244.688,238.668 244,239.5C 242.312,241.188 240.645,242.855 239,244.5C 234.7,241.684 230.033,239.684 225,238.5C 222.038,238.722 219.871,240.056 218.5,242.5C 205.023,236.596 192.023,229.929 179.5,222.5 Z"/></g>
<g><path style="opacity:1" fill="#f9d16f" d="M 356.5,223.5 C 342.961,229.268 329.628,235.601 316.5,242.5C 314.523,240.261 312.023,238.927 309,238.5C 304.336,240.081 299.836,242.081 295.5,244.5C 294.01,242.874 292.51,241.208 291,239.5C 290.493,238.004 290.993,236.837 292.5,236C 302.373,228.929 313.373,224.595 325.5,223C 336.579,222.179 346.912,222.346 356.5,223.5 Z"/></g>
<g><path style="opacity:1" fill="#d37b47" d="M 494.5,227.5 C 493.641,230.452 491.641,232.285 488.5,233C 445.329,239.501 402.162,246.001 359,252.5C 357.615,252.486 356.449,252.152 355.5,251.5C 357.657,248.529 359.824,245.529 362,242.5C 363.319,240.513 365.152,239.346 367.5,239C 406.333,233.167 445.167,227.333 484,221.5C 488.512,221.836 492.012,223.836 494.5,227.5 Z"/></g>
<g><path style="opacity:1" fill="#fad26f" d="M 179.5,222.5 C 192.023,229.929 205.023,236.596 218.5,242.5C 218.274,245.249 218.607,247.916 219.5,250.5C 223.841,253.672 228.508,256.339 233.5,258.5C 234.487,261.768 234.82,265.102 234.5,268.5C 228.829,268.888 223.496,267.721 218.5,265C 201.288,254.621 187.621,240.788 177.5,223.5C 177.842,222.662 178.508,222.328 179.5,222.5 Z"/></g>
<g><path style="opacity:1" fill="#f6b656" d="M 356.5,223.5 C 345.731,244.435 329.397,259.268 307.5,268C 304.773,268.818 302.106,268.652 299.5,267.5C 300.244,264.557 300.744,261.557 301,258.5C 305.829,256.086 310.496,253.42 315,250.5C 316.252,247.986 316.752,245.32 316.5,242.5C 329.628,235.601 342.961,229.268 356.5,223.5 Z"/></g>
<g><path style="opacity:1" fill="#c66c34" d="M 494.5,227.5 C 498.396,235.232 496.396,241.066 488.5,245C 467.162,248.334 445.828,251.667 424.5,255C 420.911,256.674 419.245,259.507 419.5,263.5C 413.564,264.682 407.564,265.682 401.5,266.5C 399.922,262.098 396.756,259.764 392,259.5C 374.507,262.401 357.007,264.901 339.5,267C 345.363,262.302 350.697,257.135 355.5,251.5C 356.449,252.152 357.615,252.486 359,252.5C 402.162,246.001 445.329,239.501 488.5,233C 491.641,232.285 493.641,230.452 494.5,227.5 Z"/></g>
<g><path style="opacity:1" fill="#facda0" d="M 261.5,244.5 C 281.802,244.275 288.635,253.609 282,272.5C 274.733,281.054 266.233,282.554 256.5,277C 245.798,264.154 247.464,253.321 261.5,244.5 Z"/></g>
<g><path style="opacity:1" fill="#c66c34" d="M 205.5,274.5 C 208.806,276.489 212.139,278.489 215.5,280.5C 213.642,282.524 211.975,284.691 210.5,287C 159.07,295.02 107.57,302.52 56,309.5C 37.4826,310.178 24.6492,302.178 17.5,285.5C 31.5327,295.478 47.1994,299.312 64.5,297C 110.8,289.74 157.133,282.74 203.5,276C 204.416,275.722 205.082,275.222 205.5,274.5 Z"/></g>
<g><path style="opacity:1" fill="#f4b555" d="M 236.5,305.5 C 225.833,319.167 215.167,332.833 204.5,346.5C 206.522,326.592 213.355,308.592 225,292.5C 227.884,289.315 231.051,286.482 234.5,284C 236.902,283.186 239.235,283.353 241.5,284.5C 238.858,288.309 236.025,291.976 233,295.5C 232.182,299.531 233.349,302.864 236.5,305.5 Z"/></g>
<g><path style="opacity:1" fill="#f8d16e" d="M 329.5,346.5 C 318.592,333.014 307.925,319.348 297.5,305.5C 301.17,302.795 302.337,299.128 301,294.5C 298.167,291 295.333,287.5 292.5,284C 295.634,283.21 298.634,283.543 301.5,285C 318.81,301.721 328.143,322.221 329.5,346.5 Z"/></g>
<g><path style="opacity:1" fill="#fad26f" d="M 204.5,346.5 C 215.167,332.833 225.833,319.167 236.5,305.5C 239.649,305.789 242.649,305.289 245.5,304C 248.138,299.895 251.138,296.061 254.5,292.5C 255.736,293.246 257.07,293.579 258.5,293.5C 258.637,297.876 258.804,302.209 259,306.5C 255.077,315.43 249.244,322.93 241.5,329C 230.555,337.308 218.555,343.808 205.5,348.5C 204.702,348.043 204.369,347.376 204.5,346.5 Z"/></g>
<g><path style="opacity:1" fill="#f7b756" d="M 297.5,305.5 C 307.925,319.348 318.592,333.014 329.5,346.5C 329.631,347.376 329.298,348.043 328.5,348.5C 309.776,341.905 293.943,331.238 281,316.5C 276.973,310.947 274.473,304.781 273.5,298C 273.933,294.595 275.933,292.762 279.5,292.5C 283.324,296.493 286.991,300.66 290.5,305C 292.81,305.497 295.143,305.663 297.5,305.5 Z"/></g>
<g><path style="opacity:1" fill="#c56b34" d="M 191.5,332.5 C 160.835,364.498 129.835,396.165 98.5,427.5C 85.6305,425.811 75.1305,419.811 67,409.5C 60.3286,400.833 54.6619,391.499 50,381.5C 47.7005,377.104 46.5339,372.438 46.5,367.5C 49.0163,367.755 51.3496,368.589 53.5,370C 63.7157,377.611 74.7157,383.944 86.5,389C 99.4054,392.443 111.405,390.443 122.5,383C 126.5,380 130.5,377 134.5,374C 155.667,352.167 176.833,330.333 198,308.5C 195.768,316.38 193.601,324.38 191.5,332.5 Z"/></g>
<g><path style="opacity:1" fill="#aa5b2b" d="M 191.5,332.5 C 190.341,339.112 189.508,345.779 189,352.5C 169.167,373 149.333,393.5 129.5,414C 120.749,422.085 110.415,426.585 98.5,427.5C 129.835,396.165 160.835,364.498 191.5,332.5 Z"/></g>
</svg>
