<?xml version="1.0" encoding="UTF-8"?>
<!DOCTYPE svg PUBLIC "-//W3C//DTD SVG 1.1//EN" "http://www.w3.org/Graphics/SVG/1.1/DTD/svg11.dtd">
<svg xmlns="http://www.w3.org/2000/svg" version="1.1" width="256px" height="256px" style="shape-rendering:geometricPrecision; text-rendering:geometricPrecision; image-rendering:optimizeQuality; fill-rule:evenodd; clip-rule:evenodd" xmlns:xlink="http://www.w3.org/1999/xlink">
<g><path style="opacity:0.971" fill="#020000" d="M 77.5,8.5 C 79.5273,8.33788 81.5273,8.50454 83.5,9C 85.0175,10.6851 86.6841,12.1851 88.5,13.5C 90.6909,10.9573 93.3575,9.29062 96.5,8.5C 99.6425,9.29062 102.309,10.9573 104.5,13.5C 106.691,10.9573 109.358,9.29062 112.5,8.5C 115.642,9.29062 118.309,10.9573 120.5,13.5C 122.691,10.9573 125.358,9.29062 128.5,8.5C 131.642,9.29062 134.309,10.9573 136.5,13.5C 138.691,10.9573 141.358,9.29062 144.5,8.5C 147.642,9.29062 150.309,10.9573 152.5,13.5C 154.316,12.1851 155.983,10.6851 157.5,9C 159.5,8.33333 161.5,8.33333 163.5,9C 165.017,10.6851 166.684,12.1851 168.5,13.5C 170.691,10.9573 173.358,9.29062 176.5,8.5C 180.99,10.4699 184.823,13.4699 188,17.5C 188.298,24.3227 187.298,30.9894 185,37.5C 184.333,99.5 184.333,161.5 185,223.5C 187.483,228.599 188.483,233.932 188,239.5C 185.167,242.333 182.333,245.167 179.5,248C 177.5,248.667 175.5,248.667 173.5,248C 171.983,246.315 170.316,244.815 168.5,243.5C 166.309,246.043 163.642,247.709 160.5,248.5C 157.358,247.709 154.691,246.043 152.5,243.5C 150.309,246.043 147.642,247.709 144.5,248.5C 141.358,247.709 138.691,246.043 136.5,243.5C 134.309,246.043 131.642,247.709 128.5,248.5C 125.358,247.709 122.691,246.043 120.5,243.5C 118.309,246.043 115.642,247.709 112.5,248.5C 109.358,247.709 106.691,246.043 104.5,243.5C 102.309,246.043 99.6425,247.709 96.5,248.5C 93.3575,247.709 90.6909,246.043 88.5,243.5C 86.3091,246.043 83.6425,247.709 80.5,248.5C 76.0102,246.53 72.1769,243.53 69,239.5C 68.5168,233.932 69.5168,228.599 72,223.5C 72.6667,161.5 72.6667,99.5 72,37.5C 69.702,30.9894 68.702,24.3227 69,17.5C 72.0379,14.6306 74.8712,11.6306 77.5,8.5 Z"/></g>
<g><path style="opacity:1" fill="#9d948f" d="M 79.5,18.5 C 82.4684,20.3006 85.3017,22.3006 88,24.5C 91.2084,23.1396 94.0418,21.1396 96.5,18.5C 98.8899,20.7324 101.39,22.7324 104,24.5C 107.208,23.1396 110.042,21.1396 112.5,18.5C 114.89,20.7324 117.39,22.7324 120,24.5C 123.208,23.1396 126.042,21.1396 128.5,18.5C 130.89,20.7324 133.39,22.7324 136,24.5C 139.208,23.1396 142.042,21.1396 144.5,18.5C 146.89,20.7324 149.39,22.7324 152,24.5C 155.208,23.1396 158.042,21.1396 160.5,18.5C 162.89,20.7324 165.39,22.7324 168,24.5C 171.208,23.1396 174.042,21.1396 176.5,18.5C 178.046,19.2116 179.046,20.3783 179.5,22C 178.274,25.4019 177.607,28.9019 177.5,32.5C 172.156,32.334 166.823,32.5006 161.5,33C 160.22,35.1317 160.22,37.2984 161.5,39.5C 166.456,40.4941 171.456,40.8275 176.5,40.5C 176.5,99.1667 176.5,157.833 176.5,216.5C 152.831,216.333 129.164,216.5 105.5,217C 104.22,219.132 104.22,221.298 105.5,223.5C 129.167,224.167 152.833,224.833 176.5,225.5C 177.699,228.432 178.699,231.432 179.5,234.5C 179.272,236.397 178.272,237.73 176.5,238.5C 174.042,235.86 171.208,233.86 168,232.5C 165.39,234.268 162.89,236.268 160.5,238.5C 158.042,235.86 155.208,233.86 152,232.5C 149.39,234.268 146.89,236.268 144.5,238.5C 142.042,235.86 139.208,233.86 136,232.5C 133.39,234.268 130.89,236.268 128.5,238.5C 126.042,235.86 123.208,233.86 120,232.5C 117.39,234.268 114.89,236.268 112.5,238.5C 110.042,235.86 107.208,233.86 104,232.5C 101.39,234.268 98.8899,236.268 96.5,238.5C 94.0418,235.86 91.2084,233.86 88,232.5C 85.3899,234.268 82.8899,236.268 80.5,238.5C 78.7282,237.73 77.7282,236.397 77.5,234.5C 78.3005,231.432 79.3005,228.432 80.5,225.5C 85.1315,224.672 89.7982,224.172 94.5,224C 97.0544,221.602 97.0544,219.269 94.5,217C 89.8452,216.501 85.1785,216.334 80.5,216.5C 80.5,157.833 80.5,99.1667 80.5,40.5C 103.836,40.6666 127.169,40.5 150.5,40C 153.054,37.6025 153.054,35.2691 150.5,33C 126.836,32.5 103.169,32.3334 79.5,32.5C 79.3926,28.9019 78.7259,25.4019 77.5,22C 77.9783,20.6974 78.645,19.5307 79.5,18.5 Z"/></g>
<g><path style="opacity:1" fill="#0e0503" d="M 118.5,48.5 C 130.62,47.1076 141.954,49.2743 152.5,55C 163.159,63.9521 163.159,72.9521 152.5,82C 136.588,90.3771 120.588,90.5438 104.5,82.5C 93.3434,71.894 94.01,62.0607 106.5,53C 110.527,51.3826 114.527,49.8826 118.5,48.5 Z"/></g>
<g><path style="opacity:1" fill="#fbecdd" d="M 120.5,56.5 C 132.522,54.5671 143.022,57.5671 152,65.5C 152.959,69.4214 151.792,72.5881 148.5,75C 137.274,80.9687 125.607,81.9687 113.5,78C 102.58,72.8018 101.914,66.8018 111.5,60C 114.571,58.7043 117.571,57.5377 120.5,56.5 Z"/></g>
<g><path style="opacity:1" fill="#000000" d="M 93.5,96.5 C 116.879,96.177 140.212,96.5103 163.5,97.5C 164.667,133.829 164.833,170.162 164,206.5C 163.5,207 163,207.5 162.5,208C 139.493,208.833 116.493,208.666 93.5,207.5C 92.1672,170.47 92.1672,133.47 93.5,96.5 Z"/></g>
<g><path style="opacity:1" fill="#fef7ef" d="M 100.5,104.5 C 103.167,104.5 105.833,104.5 108.5,104.5C 108.5,136.5 108.5,168.5 108.5,200.5C 105.833,200.5 103.167,200.5 100.5,200.5C 100.5,168.5 100.5,136.5 100.5,104.5 Z"/></g>
<g><path style="opacity:1" fill="#fef7ef" d="M 116.5,104.5 C 119.167,104.5 121.833,104.5 124.5,104.5C 124.5,136.5 124.5,168.5 124.5,200.5C 121.833,200.5 119.167,200.5 116.5,200.5C 116.5,168.5 116.5,136.5 116.5,104.5 Z"/></g>
<g><path style="opacity:1" fill="#fef7ef" d="M 132.5,104.5 C 135.167,104.5 137.833,104.5 140.5,104.5C 140.5,136.5 140.5,168.5 140.5,200.5C 137.833,200.5 135.167,200.5 132.5,200.5C 132.5,168.5 132.5,136.5 132.5,104.5 Z"/></g>
<g><path style="opacity:1" fill="#fef7ef" d="M 148.5,104.5 C 151.167,104.5 153.833,104.5 156.5,104.5C 156.5,136.5 156.5,168.5 156.5,200.5C 153.833,200.5 151.167,200.5 148.5,200.5C 148.5,168.5 148.5,136.5 148.5,104.5 Z"/></g>
</svg>
