<?xml version="1.0" encoding="UTF-8"?>
<!DOCTYPE svg PUBLIC "-//W3C//DTD SVG 1.1//EN" "http://www.w3.org/Graphics/SVG/1.1/DTD/svg11.dtd">
<svg xmlns="http://www.w3.org/2000/svg" version="1.1" width="256px" height="256px" style="shape-rendering:geometricPrecision; text-rendering:geometricPrecision; image-rendering:optimizeQuality; fill-rule:evenodd; clip-rule:evenodd" xmlns:xlink="http://www.w3.org/1999/xlink">
<g><path style="opacity:0.971" fill="#010000" d="M 77.5,8.5 C 79.5273,8.33788 81.5273,8.50454 83.5,9C 85.0175,10.6851 86.6841,12.1851 88.5,13.5C 90.6909,10.9573 93.3575,9.29062 96.5,8.5C 99.6425,9.29062 102.309,10.9573 104.5,13.5C 106.691,10.9573 109.358,9.29062 112.5,8.5C 115.642,9.29062 118.309,10.9573 120.5,13.5C 122.691,10.9573 125.358,9.29062 128.5,8.5C 131.642,9.29062 134.309,10.9573 136.5,13.5C 138.691,10.9573 141.358,9.29062 144.5,8.5C 147.642,9.29062 150.309,10.9573 152.5,13.5C 154.316,12.1851 155.983,10.6851 157.5,9C 159.5,8.33333 161.5,8.33333 163.5,9C 165.017,10.6851 166.684,12.1851 168.5,13.5C 170.691,10.9573 173.358,9.29062 176.5,8.5C 180.99,10.4699 184.823,13.4699 188,17.5C 188.298,24.3227 187.298,30.9894 185,37.5C 184.333,99.5 184.333,161.5 185,223.5C 187.483,228.599 188.483,233.932 188,239.5C 185.167,242.333 182.333,245.167 179.5,248C 177.5,248.667 175.5,248.667 173.5,248C 171.983,246.315 170.316,244.815 168.5,243.5C 166.309,246.043 163.642,247.709 160.5,248.5C 157.358,247.709 154.691,246.043 152.5,243.5C 150.309,246.043 147.642,247.709 144.5,248.5C 141.358,247.709 138.691,246.043 136.5,243.5C 134.309,246.043 131.642,247.709 128.5,248.5C 125.358,247.709 122.691,246.043 120.5,243.5C 118.309,246.043 115.642,247.709 112.5,248.5C 109.358,247.709 106.691,246.043 104.5,243.5C 102.309,246.043 99.6425,247.709 96.5,248.5C 93.3575,247.709 90.6909,246.043 88.5,243.5C 86.3091,246.043 83.6425,247.709 80.5,248.5C 76.0102,246.53 72.1769,243.53 69,239.5C 68.5168,233.932 69.5168,228.599 72,223.5C 72.6667,161.5 72.6667,99.5 72,37.5C 69.702,30.9894 68.702,24.3227 69,17.5C 72.0379,14.6306 74.8712,11.6306 77.5,8.5 Z"/></g>
<g><path style="opacity:1" fill="#e9413e" d="M 79.5,18.5 C 82.4887,20.4836 85.4887,22.4836 88.5,24.5C 91.4241,22.9181 94.0908,20.9181 96.5,18.5C 98.9092,20.9181 101.576,22.9181 104.5,24.5C 107.424,22.9181 110.091,20.9181 112.5,18.5C 114.909,20.9181 117.576,22.9181 120.5,24.5C 123.424,22.9181 126.091,20.9181 128.5,18.5C 130.909,20.9181 133.576,22.9181 136.5,24.5C 139.424,22.9181 142.091,20.9181 144.5,18.5C 146.909,20.9181 149.576,22.9181 152.5,24.5C 155.424,22.9181 158.091,20.9181 160.5,18.5C 162.909,20.9181 165.576,22.9181 168.5,24.5C 171.424,22.9181 174.091,20.9181 176.5,18.5C 178.505,19.3372 179.505,20.8372 179.5,23C 178.75,26.1635 178.084,29.3301 177.5,32.5C 172.489,32.3341 167.489,32.5007 162.5,33C 159.833,35.3333 159.833,37.6667 162.5,40C 167.155,40.4992 171.821,40.6658 176.5,40.5C 176.5,99.1667 176.5,157.833 176.5,216.5C 153.164,216.333 129.831,216.5 106.5,217C 103.833,219.333 103.833,221.667 106.5,224C 129.84,224.167 153.174,224.667 176.5,225.5C 177.699,228.432 178.699,231.432 179.5,234.5C 179.272,236.397 178.272,237.73 176.5,238.5C 174.091,236.082 171.424,234.082 168.5,232.5C 165.576,234.082 162.909,236.082 160.5,238.5C 158.091,236.082 155.424,234.082 152.5,232.5C 149.576,234.082 146.909,236.082 144.5,238.5C 142.091,236.082 139.424,234.082 136.5,232.5C 133.576,234.082 130.909,236.082 128.5,238.5C 126.091,236.082 123.424,234.082 120.5,232.5C 117.576,234.082 114.909,236.082 112.5,238.5C 110.091,236.082 107.424,234.082 104.5,232.5C 101.576,234.082 98.9092,236.082 96.5,238.5C 94.0908,236.082 91.4241,234.082 88.5,232.5C 85.5759,234.082 82.9092,236.082 80.5,238.5C 78.7282,237.73 77.7282,236.397 77.5,234.5C 78.3005,231.432 79.3005,228.432 80.5,225.5C 85.1315,224.672 89.7982,224.172 94.5,224C 97.1667,221.667 97.1667,219.333 94.5,217C 89.8452,216.501 85.1785,216.334 80.5,216.5C 80.5,157.833 80.5,99.1667 80.5,40.5C 103.836,40.6666 127.169,40.5 150.5,40C 153.167,37.6667 153.167,35.3333 150.5,33C 126.836,32.5 103.169,32.3334 79.5,32.5C 78.9164,29.3301 78.2497,26.1635 77.5,23C 77.5186,21.167 78.1852,19.667 79.5,18.5 Z"/></g>
<g><path style="opacity:1" fill="#090301" d="M 119.5,48.5 C 131.222,47.2301 142.222,49.3968 152.5,55C 163.167,64 163.167,73 152.5,82C 136.459,90.5882 120.459,90.5882 104.5,82C 93.9206,72.9652 93.9206,63.9652 104.5,55C 109.367,52.2259 114.367,50.0593 119.5,48.5 Z"/></g>
<g><path style="opacity:1" fill="#f9b231" d="M 120.5,56.5 C 132.536,54.5726 143.036,57.5726 152,65.5C 152.851,70.9582 150.685,74.7915 145.5,77C 134.935,81.1363 124.268,81.4696 113.5,78C 102.58,72.8018 101.914,66.8018 111.5,60C 114.571,58.7043 117.571,57.5377 120.5,56.5 Z"/></g>
<g><path style="opacity:1" fill="#000000" d="M 94.5,96.5 C 117.169,96.3334 139.836,96.5 162.5,97C 163,97.5 163.5,98 164,98.5C 164.667,134.5 164.667,170.5 164,206.5C 163.5,207 163,207.5 162.5,208C 139.833,208.667 117.167,208.667 94.5,208C 94,207.5 93.5,207 93,206.5C 92.3333,170.5 92.3333,134.5 93,98.5C 93.7172,97.9558 94.2172,97.2891 94.5,96.5 Z"/></g>
<g><path style="opacity:1" fill="#feb631" d="M 100.5,104.5 C 103.167,104.5 105.833,104.5 108.5,104.5C 108.5,136.5 108.5,168.5 108.5,200.5C 105.833,200.5 103.167,200.5 100.5,200.5C 100.5,168.5 100.5,136.5 100.5,104.5 Z"/></g>
<g><path style="opacity:1" fill="#eaa72d" d="M 116.5,104.5 C 119.167,104.5 121.833,104.5 124.5,104.5C 124.5,136.5 124.5,168.5 124.5,200.5C 121.833,200.5 119.167,200.5 116.5,200.5C 116.5,168.5 116.5,136.5 116.5,104.5 Z"/></g>
<g><path style="opacity:1" fill="#feb631" d="M 132.5,104.5 C 135.167,104.5 137.833,104.5 140.5,104.5C 140.5,136.5 140.5,168.5 140.5,200.5C 137.833,200.5 135.167,200.5 132.5,200.5C 132.5,168.5 132.5,136.5 132.5,104.5 Z"/></g>
<g><path style="opacity:1" fill="#eaa72d" d="M 148.5,104.5 C 151.167,104.5 153.833,104.5 156.5,104.5C 156.5,136.5 156.5,168.5 156.5,200.5C 153.833,200.5 151.167,200.5 148.5,200.5C 148.5,168.5 148.5,136.5 148.5,104.5 Z"/></g>
</svg>
