<?xml version="1.0" encoding="UTF-8"?>
<!DOCTYPE svg PUBLIC "-//W3C//DTD SVG 1.1//EN" "http://www.w3.org/Graphics/SVG/1.1/DTD/svg11.dtd">
<svg xmlns="http://www.w3.org/2000/svg" version="1.1" width="512px" height="512px" style="shape-rendering:geometricPrecision; text-rendering:geometricPrecision; image-rendering:optimizeQuality; fill-rule:evenodd; clip-rule:evenodd" xmlns:xlink="http://www.w3.org/1999/xlink">
<g><path style="opacity:0.962" fill="#020301" d="M 40.5,481.5 C 96.7844,426.883 152.451,371.549 207.5,315.5C 233.132,290.368 258.632,265.035 284,239.5C 282.694,235.71 281.861,231.71 281.5,227.5C 281.797,223.508 283.13,219.842 285.5,216.5C 289.811,212.086 294.811,208.586 300.5,206C 307.949,203.153 315.616,201.153 323.5,200C 343.347,180.32 363.014,160.486 382.5,140.5C 377.5,137.5 373.5,133.5 370.5,128.5C 363.181,135.319 356.014,142.319 349,149.5C 347.02,157.779 343.687,165.446 339,172.5C 333.274,179.898 325.774,183.064 316.5,182C 296.667,201.833 276.833,221.667 257,241.5C 254.127,253.706 246.627,261.206 234.5,264C 212.965,285.368 191.632,306.868 170.5,328.5C 122.784,375.216 75.7839,422.549 29.5,470.5C 21.9231,473.75 16.9231,471.417 14.5,463.5C 15.2357,461.459 16.0691,459.459 17,457.5C 83.8333,390.667 150.667,323.833 217.5,257C 205.55,245.26 205.55,233.594 217.5,222C 228.911,215.227 241.244,211.061 254.5,209.5C 257.351,210.287 260.017,211.12 262.5,212C 276.167,198.333 289.833,184.667 303.5,171C 296.522,162.765 295.689,153.931 301,144.5C 310.661,135.379 322.161,129.879 335.5,128C 339.548,126.958 343.548,126.624 347.5,127C 356.667,117.833 365.833,108.667 375,99.5C 373.731,78.8722 381.898,63.0389 399.5,52C 403.829,50.8485 407.662,51.6819 411,54.5C 412.975,37.7141 421.142,24.8808 435.5,16C 438.167,15.3333 440.833,15.3333 443.5,16C 447.34,18.6744 450.673,21.8411 453.5,25.5C 496.272,3.77229 506.939,14.2723 485.5,57C 490.848,60.3717 494.515,65.0383 496.5,71C 492.27,82.8979 484.27,91.2312 472.5,96C 467.277,97.7597 461.944,99.093 456.5,100C 459.318,103.338 460.151,107.171 459,111.5C 448.688,129.573 433.188,137.406 412.5,135C 387,160.5 361.5,186 336,211.5C 333.827,223.689 329.494,235.022 323,245.5C 320.258,249.116 316.758,251.616 312.5,253C 306.675,253.707 301.009,253.373 295.5,252C 214.833,332.667 134.167,413.333 53.5,494C 45.9842,497.77 40.9842,495.603 38.5,487.5C 39.3721,485.55 40.0388,483.55 40.5,481.5 Z"/></g>
<g><path style="opacity:0.967" fill="#020301" d="M 157.5,301.5 C 157.672,300.508 157.338,299.842 156.5,299.5C 156.173,297.512 155.84,295.512 155.5,293.5C 156.526,291.153 157.526,288.82 158.5,286.5C 159.906,286.027 160.573,285.027 160.5,283.5C 176.851,253.81 190.685,223.144 202,191.5C 203.684,187.284 204.851,182.951 205.5,178.5C 199.339,178.543 193.672,176.876 188.5,173.5C 183.296,187.277 177.796,200.944 172,214.5C 171.667,221.167 171.333,227.833 171,234.5C 169.903,245.596 163.903,252.263 153,254.5C 145.428,269.983 137.094,284.983 128,299.5C 127.805,308.244 127.305,316.911 126.5,325.5C 125.566,326.568 125.232,327.901 125.5,329.5C 123.385,337.948 118.052,342.948 109.5,344.5C 108.833,344.5 108.167,344.5 107.5,344.5C 104.413,344.457 101.413,344.29 98.5,344C 92.6675,351.994 86.6675,359.828 80.5,367.5C 77.016,371.134 74.016,375.134 71.5,379.5C 57.3352,395.834 43.3352,412.334 29.5,429C 22.1927,432.848 17.1927,430.848 14.5,423C 15.2266,421.601 15.7266,420.101 16,418.5C 31,400.833 46,383.167 61,365.5C 68.7123,355.243 76.5456,345.076 84.5,335C 78.0072,326.363 77.8406,317.53 84,308.5C 93.1308,297.521 104.297,289.354 117.5,284C 124.339,273.327 130.672,262.327 136.5,251C 123.697,242.582 121.197,231.749 129,218.5C 136.523,207.304 146.189,198.637 158,192.5C 159.825,192.943 161.658,193.277 163.5,193.5C 169.057,177.664 174.724,161.831 180.5,146C 170.073,128.02 169.906,109.853 180,91.5C 182.929,89.2355 186.095,88.5688 189.5,89.5C 189.833,89 190.167,88.5 190.5,88C 185.383,72.1944 186.883,57.0277 195,42.5C 201.415,39.7714 207.748,40.1047 214,43.5C 221.188,33.3123 230.021,24.8123 240.5,18C 244.389,16.8596 247.722,17.693 250.5,20.5C 255.63,31.9482 257.964,43.9482 257.5,56.5C 273.778,57.7005 278.945,66.0339 273,81.5C 269.342,92.6595 262.508,101.326 252.5,107.5C 257.041,109.37 259.708,112.704 260.5,117.5C 258.887,137.731 248.72,151.731 230,159.5C 215.088,209.483 194.588,256.983 168.5,302C 164.732,303.974 161.066,303.807 157.5,301.5 Z"/></g>
<g><path style="opacity:1" fill="#466220" d="M 472.5,35.5 C 473.568,34.5655 474.901,34.2322 476.5,34.5C 476.737,35.791 476.404,36.791 475.5,37.5C 475.179,35.9519 474.179,35.2852 472.5,35.5 Z"/></g>
<g><path style="opacity:1" fill="#e7efd2" d="M 442.5,50.5 C 442.218,51.7777 441.551,52.7777 440.5,53.5C 436.47,53.799 432.637,54.799 429,56.5C 428.91,48.5067 431.743,41.6734 437.5,36C 438.332,35.3123 438.998,35.479 439.5,36.5C 440.791,41.2344 441.791,45.9011 442.5,50.5 Z"/></g>
<g><path style="opacity:1" fill="#e7efd2" d="M 472.5,35.5 C 474.179,35.2852 475.179,35.9519 475.5,37.5C 474.151,42.5313 471.985,47.1979 469,51.5C 467.612,52.5536 466.112,52.7203 464.5,52C 462.667,50.1667 460.833,48.3333 459,46.5C 458.333,45.1667 458.333,43.8333 459,42.5C 463.232,39.4688 467.732,37.1355 472.5,35.5 Z"/></g>
<g><path style="opacity:1" fill="#e3ecce" d="M 237.5,41.5 C 238.586,41.62 239.253,42.2867 239.5,43.5C 240.575,49.1343 240.742,54.8009 240,60.5C 236.826,61.7279 233.659,61.5612 230.5,60C 228.82,59.6532 227.82,58.6532 227.5,57C 229.859,51.1535 233.193,45.9868 237.5,41.5 Z"/></g>
<g><path style="opacity:1" fill="#3e561c" d="M 442.5,50.5 C 443.404,51.209 443.737,52.209 443.5,53.5C 442.5,53.5 441.5,53.5 440.5,53.5C 441.551,52.7777 442.218,51.7777 442.5,50.5 Z"/></g>
<g><path style="opacity:1" fill="#e7f0d3" d="M 205.5,59.5 C 207.716,60.2026 209.549,61.5359 211,63.5C 212.677,66.8534 214.843,69.8534 217.5,72.5C 214.192,75.4715 210.859,78.4715 207.5,81.5C 206.194,80.0878 205.36,78.4211 205,76.5C 204.313,70.7963 204.479,65.1296 205.5,59.5 Z"/></g>
<g><path style="opacity:1" fill="#e7f0d3" d="M 458.5,68.5 C 463.785,69.2352 469.118,69.7352 474.5,70C 475.167,70.6667 475.833,71.3333 476.5,72C 470.932,79.116 463.598,82.4494 454.5,82C 456.219,77.624 457.553,73.124 458.5,68.5 Z"/></g>
<g><path style="opacity:1" fill="#425d1f" d="M 436.5,71.5 C 437.568,70.5655 438.901,70.2322 440.5,70.5C 440.737,71.791 440.404,72.791 439.5,73.5C 439.179,71.9519 438.179,71.2852 436.5,71.5 Z"/></g>
<g><path style="opacity:1" fill="#e7f0d3" d="M 394.5,81.5 C 395.674,80.4863 396.34,79.153 396.5,77.5C 398.099,75.3962 399.932,73.3962 402,71.5C 402.333,71.8333 402.667,72.1667 403,72.5C 404.621,78.3284 406.121,84.1617 407.5,90C 402.748,90.8546 398.081,92.0213 393.5,93.5C 392.51,89.434 392.843,85.434 394.5,81.5 Z"/></g>
<g><path style="opacity:1" fill="#e7efd2" d="M 436.5,71.5 C 438.179,71.2852 439.179,71.9519 439.5,73.5C 438.11,78.7804 435.777,83.6138 432.5,88C 426,88.1667 422.833,85 423,78.5C 427.329,75.6798 431.829,73.3465 436.5,71.5 Z"/></g>
<g><path style="opacity:1" fill="#e7efd3" d="M 239.5,80.5 C 240.802,78.9724 242.469,77.9724 244.5,77.5C 246.937,77.114 248.937,75.9473 250.5,74C 252.833,73.3333 255.167,73.3333 257.5,74C 255.417,82.338 250.584,88.5047 243,92.5C 241.729,88.5622 240.562,84.5622 239.5,80.5 Z"/></g>
<g><path style="opacity:1" fill="#304317" d="M 244.5,77.5 C 242.469,77.9724 240.802,78.9724 239.5,80.5C 238.596,79.791 238.263,78.791 238.5,77.5C 240.5,77.5 242.5,77.5 244.5,77.5 Z"/></g>
<g><path style="opacity:1" fill="#546e30" d="M 396.5,77.5 C 396.34,79.153 395.674,80.4863 394.5,81.5C 394.229,79.6203 394.896,78.287 396.5,77.5 Z"/></g>
<g><path style="opacity:1" fill="#e2ebcd" d="M 223.5,90.5 C 224.167,91.5 224.833,92.5 225.5,93.5C 226.62,98.9019 226.453,104.235 225,109.5C 220.045,111.182 215.879,110.015 212.5,106C 214.821,99.8511 218.487,94.6844 223.5,90.5 Z"/></g>
<g><path style="opacity:1" fill="#435e20" d="M 223.5,90.5 C 223.56,89.9569 223.893,89.6236 224.5,89.5C 225.429,90.6888 225.762,92.0222 225.5,93.5C 224.833,92.5 224.167,91.5 223.5,90.5 Z"/></g>
<g><path style="opacity:1" fill="#e5eed1" d="M 421.5,103.5 C 426.622,105.169 431.956,106.003 437.5,106C 438.672,106.419 439.672,107.085 440.5,108C 434.645,115.563 426.978,118.729 417.5,117.5C 418.84,112.804 420.173,108.138 421.5,103.5 Z"/></g>
<g><path style="opacity:1" fill="#e7f0d3" d="M 190.5,108.5 C 194.457,110.293 197.29,113.293 199,117.5C 200.543,119.378 202.376,120.878 204.5,122C 200.367,125.131 196.534,128.631 193,132.5C 189.446,124.808 188.613,116.808 190.5,108.5 Z"/></g>
<g><path style="opacity:1" fill="#466221" d="M 398.5,109.5 C 399.568,108.566 400.901,108.232 402.5,108.5C 402.737,109.791 402.404,110.791 401.5,111.5C 401.179,109.952 400.179,109.285 398.5,109.5 Z"/></g>
<g><path style="opacity:1" fill="#e7efd2" d="M 398.5,109.5 C 400.179,109.285 401.179,109.952 401.5,111.5C 400.151,116.531 397.985,121.198 395,125.5C 393.612,126.554 392.112,126.72 390.5,126C 388.667,124.167 386.833,122.333 385,120.5C 384.333,119.167 384.333,117.833 385,116.5C 389.232,113.469 393.732,111.135 398.5,109.5 Z"/></g>
<g><path style="opacity:1" fill="#e7efd3" d="M 228.5,141.5 C 227.391,141.443 226.391,141.11 225.5,140.5C 225.361,136.111 224.361,131.944 222.5,128C 224.833,127.667 227.167,127.333 229.5,127C 232.726,124.933 236.06,123.1 239.5,121.5C 240.672,121.919 241.672,122.585 242.5,123.5C 240.216,131.423 235.55,137.423 228.5,141.5 Z"/></g>
<g><path style="opacity:1" fill="#deecc4" d="M 207.5,315.5 C 195.309,319.592 183.309,324.259 171.5,329.5C 170.893,329.376 170.56,329.043 170.5,328.5C 191.632,306.868 212.965,285.368 234.5,264C 246.627,261.206 254.127,253.706 257,241.5C 276.833,221.667 296.667,201.833 316.5,182C 325.774,183.064 333.274,179.898 339,172.5C 343.687,165.446 347.02,157.779 349,149.5C 356.014,142.319 363.181,135.319 370.5,128.5C 373.5,133.5 377.5,137.5 382.5,140.5C 363.014,160.486 343.347,180.32 323.5,200C 315.616,201.153 307.949,203.153 300.5,206C 294.811,208.586 289.811,212.086 285.5,216.5C 283.13,219.842 281.797,223.508 281.5,227.5C 281.861,231.71 282.694,235.71 284,239.5C 258.632,265.035 233.132,290.368 207.5,315.5 Z"/></g>
<g><path style="opacity:1" fill="#e3ebce" d="M 207.5,141.5 C 208.117,141.611 208.617,141.944 209,142.5C 210.384,148.109 210.717,153.775 210,159.5C 209.333,160.833 208.333,161.833 207,162.5C 203.727,161.744 200.727,160.41 198,158.5C 197.985,156.209 197.818,154.042 197.5,152C 201.169,148.839 204.502,145.339 207.5,141.5 Z"/></g>
<g><path style="opacity:1" fill="#3f581d" d="M 225.5,140.5 C 226.391,141.11 227.391,141.443 228.5,141.5C 227.053,142.885 226.053,142.552 225.5,140.5 Z"/></g>
<g><path style="opacity:1" fill="#4a6722" d="M 331.5,149.5 C 331.179,147.952 330.179,147.285 328.5,147.5C 330.044,146.086 331.711,145.753 333.5,146.5C 333.058,147.739 332.391,148.739 331.5,149.5 Z"/></g>
<g><path style="opacity:1" fill="#e1ebca" d="M 328.5,147.5 C 330.179,147.285 331.179,147.952 331.5,149.5C 330.171,154.495 328.004,159.161 325,163.5C 323.612,164.554 322.112,164.72 320.5,164C 316.848,161.726 315.015,158.559 315,154.5C 319.05,151.315 323.55,148.982 328.5,147.5 Z"/></g>
<g><path style="opacity:1" fill="#e2eeca" d="M 160.5,283.5 C 159.094,283.973 158.427,284.973 158.5,286.5C 157.526,288.82 156.526,291.153 155.5,293.5C 155.84,295.512 156.173,297.512 156.5,299.5C 154.091,301.902 152.091,304.569 150.5,307.5C 150.167,307.5 149.833,307.5 149.5,307.5C 145.229,310.101 141.563,313.434 138.5,317.5C 138.5,318.167 138.167,318.5 137.5,318.5C 133.598,320.893 130.098,323.893 127,327.5C 126.536,326.906 126.369,326.239 126.5,325.5C 127.305,316.911 127.805,308.244 128,299.5C 137.094,284.983 145.428,269.983 153,254.5C 163.903,252.263 169.903,245.596 171,234.5C 171.333,227.833 171.667,221.167 172,214.5C 177.796,200.944 183.296,187.277 188.5,173.5C 193.672,176.876 199.339,178.543 205.5,178.5C 204.851,182.951 203.684,187.284 202,191.5C 190.685,223.144 176.851,253.81 160.5,283.5 Z"/></g>
<g><path style="opacity:1" fill="#dce7c5" d="M 152.5,216.5 C 153.167,217.5 153.833,218.5 154.5,219.5C 155.321,224.863 155.321,230.197 154.5,235.5C 153.5,236.167 152.5,236.833 151.5,237.5C 148.287,236.573 145.12,235.573 142,234.5C 141.275,231.623 141.775,228.957 143.5,226.5C 146.181,222.822 149.181,219.489 152.5,216.5 Z"/></g>
<g><path style="opacity:1" fill="#496621" d="M 152.5,216.5 C 152.56,215.957 152.893,215.624 153.5,215.5C 154.429,216.689 154.762,218.022 154.5,219.5C 153.833,218.5 153.167,217.5 152.5,216.5 Z"/></g>
<g><path style="opacity:1" fill="#4f6f24" d="M 312.5,219.5 C 313.568,218.566 314.901,218.232 316.5,218.5C 316.737,219.791 316.404,220.791 315.5,221.5C 315.179,219.952 314.179,219.285 312.5,219.5 Z"/></g>
<g><path style="opacity:1" fill="#e3edcd" d="M 312.5,219.5 C 314.179,219.285 315.179,219.952 315.5,221.5C 314.151,226.531 311.985,231.198 309,235.5C 307.204,236.767 305.371,236.767 303.5,235.5C 302.185,233.684 300.685,232.017 299,230.5C 298.318,226.82 299.818,224.32 303.5,223C 306.459,221.396 309.459,220.229 312.5,219.5 Z"/></g>
<g><path style="opacity:1" fill="#e0eaca" d="M 239.5,229.5 C 240.978,229.238 242.311,229.571 243.5,230.5C 241.803,236.226 239.303,241.559 236,246.5C 234.612,247.554 233.112,247.72 231.5,247C 228.198,244.549 226.365,241.383 226,237.5C 230.445,234.696 234.945,232.029 239.5,229.5 Z"/></g>
<g><path style="opacity:1" fill="#4e6c24" d="M 160.5,283.5 C 160.573,285.027 159.906,286.027 158.5,286.5C 158.427,284.973 159.094,283.973 160.5,283.5 Z"/></g>
<g><path style="opacity:0.035" fill="#76af37" d="M 156.5,299.5 C 157.338,299.842 157.672,300.508 157.5,301.5C 155.167,303.5 152.833,305.5 150.5,307.5C 152.091,304.569 154.091,301.902 156.5,299.5 Z"/></g>
<g><path style="opacity:1" fill="#dfe9c8" d="M 109.5,307.5 C 110.485,311.634 110.818,315.968 110.5,320.5C 109.585,327.441 105.918,329.275 99.5,326C 98.4841,324.323 97.4841,322.657 96.5,321C 99.6511,315.349 103.984,310.849 109.5,307.5 Z"/></g>
<g><path style="opacity:1" fill="#384f1a" d="M 109.5,307.5 C 109.56,306.957 109.893,306.624 110.5,306.5C 111.812,311.318 111.812,315.985 110.5,320.5C 110.818,315.968 110.485,311.634 109.5,307.5 Z"/></g>
<g><path style="opacity:0.082" fill="#7ba435" d="M 149.5,307.5 C 146.437,311.566 142.771,314.899 138.5,317.5C 141.563,313.434 145.229,310.101 149.5,307.5 Z"/></g>
<g><path style="opacity:0.998" fill="#b4c283" d="M 207.5,315.5 C 152.451,371.549 96.7844,426.883 40.5,481.5C 37.1667,477.5 33.5,473.833 29.5,470.5C 75.7839,422.549 122.784,375.216 170.5,328.5C 170.56,329.043 170.893,329.376 171.5,329.5C 183.309,324.259 195.309,319.592 207.5,315.5 Z"/></g>
<g><path style="opacity:0.702" fill="#75a133" d="M 137.5,318.5 C 134.126,322.876 130.126,326.542 125.5,329.5C 125.232,327.901 125.566,326.568 126.5,325.5C 126.369,326.239 126.536,326.906 127,327.5C 130.098,323.893 133.598,320.893 137.5,318.5 Z"/></g>
<g><path style="opacity:1" fill="#d5e5b9" d="M 107.5,344.5 C 106.167,346.167 104.833,347.833 103.5,349.5C 103.5,350.167 103.167,350.5 102.5,350.5C 98.1667,352.833 94.8333,356.167 92.5,360.5C 92.1667,360.5 91.8333,360.5 91.5,360.5C 87.5977,362.893 84.0977,365.893 81,369.5C 80.5357,368.906 80.369,368.239 80.5,367.5C 86.6675,359.828 92.6675,351.994 98.5,344C 101.413,344.29 104.413,344.457 107.5,344.5 Z"/></g>
<g><path style="opacity:0.082" fill="#78a333" d="M 107.5,344.5 C 108.167,344.5 108.833,344.5 109.5,344.5C 108.089,346.914 106.089,348.581 103.5,349.5C 104.833,347.833 106.167,346.167 107.5,344.5 Z"/></g>
<g><path style="opacity:0.605" fill="#78ac36" d="M 102.5,350.5 C 99.5,354.167 96.1667,357.5 92.5,360.5C 94.8333,356.167 98.1667,352.833 102.5,350.5 Z"/></g>
<g><path style="opacity:0.751" fill="#719b31" d="M 91.5,360.5 C 85.258,367.286 78.5913,373.62 71.5,379.5C 74.016,375.134 77.016,371.134 80.5,367.5C 80.369,368.239 80.5357,368.906 81,369.5C 84.0977,365.893 87.5977,362.893 91.5,360.5 Z"/></g>
</svg>
