<?xml version="1.0" encoding="UTF-8"?>
<!DOCTYPE svg PUBLIC "-//W3C//DTD SVG 1.1//EN" "http://www.w3.org/Graphics/SVG/1.1/DTD/svg11.dtd">
<svg xmlns="http://www.w3.org/2000/svg" version="1.1" width="512px" height="512px" style="shape-rendering:geometricPrecision; text-rendering:geometricPrecision; image-rendering:optimizeQuality; fill-rule:evenodd; clip-rule:evenodd" xmlns:xlink="http://www.w3.org/1999/xlink">
<g><path style="opacity:0.962" fill="#010100" d="M 40.5,481.5 C 96.4511,427.216 151.784,372.216 206.5,316.5C 232.465,291.035 258.299,265.368 284,239.5C 279.019,228.73 281.186,219.564 290.5,212C 300.556,205.475 311.556,201.475 323.5,200C 343.167,180.333 362.833,160.667 382.5,141C 377.667,137.5 373.5,133.333 370,128.5C 363,135.5 356,142.5 349,149.5C 347.02,157.779 343.687,165.446 339,172.5C 333.449,179.669 326.282,182.502 317.5,181C 297.333,201.167 277.167,221.333 257,241.5C 253.833,254 246,261.833 233.5,265C 211.298,287.035 189.298,309.201 167.5,331.5C 120.784,377.216 74.7839,423.549 29.5,470.5C 21.9231,473.75 16.9231,471.417 14.5,463.5C 15.2357,461.459 16.0691,459.459 17,457.5C 83.8333,390.667 150.667,323.833 217.5,257C 205.55,245.26 205.55,233.594 217.5,222C 228.911,215.227 241.244,211.061 254.5,209.5C 257.351,210.287 260.017,211.12 262.5,212C 276.167,198.333 289.833,184.667 303.5,171C 296.522,162.765 295.689,153.931 301,144.5C 310.661,135.379 322.161,129.879 335.5,128C 339.548,126.958 343.548,126.624 347.5,127C 356.667,117.833 365.833,108.667 375,99.5C 373.731,78.8722 381.898,63.0389 399.5,52C 403.829,50.8485 407.662,51.6819 411,54.5C 412.975,37.7141 421.142,24.8808 435.5,16C 438.167,15.3333 440.833,15.3333 443.5,16C 447.34,18.6744 450.673,21.8411 453.5,25.5C 496.272,3.77229 506.939,14.2723 485.5,57C 490.848,60.3717 494.515,65.0383 496.5,71C 492.27,82.8979 484.27,91.2312 472.5,96C 467.277,97.7597 461.944,99.093 456.5,100C 459.318,103.338 460.151,107.171 459,111.5C 448.688,129.573 433.188,137.406 412.5,135C 387,160.5 361.5,186 336,211.5C 333.827,223.689 329.494,235.022 323,245.5C 320.258,249.116 316.758,251.616 312.5,253C 306.675,253.707 301.009,253.373 295.5,252C 214.833,332.667 134.167,413.333 53.5,494C 45.9842,497.77 40.9842,495.603 38.5,487.5C 39.3721,485.55 40.0388,483.55 40.5,481.5 Z"/></g>
<g><path style="opacity:0.967" fill="#000000" d="M 157.5,301.5 C 155.809,298.355 155.309,295.021 156,291.5C 176.508,255.642 193.341,218.142 206.5,179C 200.044,178.405 194.21,176.238 189,172.5C 183.4,187.294 177.4,201.96 171,216.5C 172.135,225.278 171.468,233.945 169,242.5C 165.708,249.153 160.375,253.153 153,254.5C 145.134,270.346 136.467,285.68 127,300.5C 127.832,310.198 127.332,319.865 125.5,329.5C 123.385,337.948 118.052,342.948 109.5,344.5C 105.775,344.405 102.109,344.238 98.5,344C 89.2598,355.728 80.2598,367.562 71.5,379.5C 57.3352,395.834 43.3352,412.334 29.5,429C 22.1927,432.848 17.1927,430.848 14.5,423C 15.2266,421.601 15.7266,420.101 16,418.5C 31,400.833 46,383.167 61,365.5C 68.7123,355.243 76.5456,345.076 84.5,335C 78.0072,326.363 77.8406,317.53 84,308.5C 93.1308,297.521 104.297,289.354 117.5,284C 124.339,273.327 130.672,262.327 136.5,251C 123.697,242.582 121.197,231.749 129,218.5C 136.523,207.304 146.189,198.637 158,192.5C 159.825,192.943 161.658,193.277 163.5,193.5C 169.057,177.664 174.724,161.831 180.5,146C 170.073,128.02 169.906,109.853 180,91.5C 182.929,89.2355 186.095,88.5688 189.5,89.5C 189.833,89 190.167,88.5 190.5,88C 185.383,72.1944 186.883,57.0277 195,42.5C 201.415,39.7714 207.748,40.1047 214,43.5C 221.188,33.3123 230.021,24.8123 240.5,18C 244.389,16.8596 247.722,17.693 250.5,20.5C 255.63,31.9482 257.964,43.9482 257.5,56.5C 273.778,57.7005 278.945,66.0339 273,81.5C 269.342,92.6595 262.508,101.326 252.5,107.5C 257.041,109.37 259.708,112.704 260.5,117.5C 258.887,137.731 248.72,151.731 230,159.5C 215.088,209.483 194.588,256.983 168.5,302C 164.732,303.974 161.066,303.807 157.5,301.5 Z"/></g>
<g><path style="opacity:1" fill="#507025" d="M 472.5,34.5 C 473.833,34.5 475.167,34.5 476.5,34.5C 475.502,42.1677 472.168,48.501 466.5,53.5C 461.42,51.2889 458.586,47.6222 458,42.5C 462.686,39.4103 467.52,36.7436 472.5,34.5 Z"/></g>
<g><path style="opacity:1" fill="#507025" d="M 437.5,34.5 C 439.335,35.1223 440.502,36.4556 441,38.5C 441.179,43.6522 442.012,48.6522 443.5,53.5C 438.415,54.117 433.415,55.117 428.5,56.5C 428.197,47.7777 431.197,40.4443 437.5,34.5 Z"/></g>
<g><path style="opacity:1" fill="#507025" d="M 238.5,40.5 C 239.117,40.6107 239.617,40.944 240,41.5C 241.893,48.1904 241.893,54.8571 240,61.5C 235.57,62.5936 231.404,61.7602 227.5,59C 226.536,56.3533 227.036,53.8533 229,51.5C 232.002,47.6662 235.169,43.9995 238.5,40.5 Z"/></g>
<g><path style="opacity:1" fill="#507025" d="M 205.5,58.5 C 208.056,59.5434 210.223,61.2101 212,63.5C 213.586,66.9191 215.752,69.9191 218.5,72.5C 214.542,75.9567 210.708,79.6233 207,83.5C 203.016,75.3602 202.516,67.0269 205.5,58.5 Z"/></g>
<g><path style="opacity:1" fill="#507025" d="M 457.5,67.5 C 462.071,69.3743 466.738,69.7076 471.5,68.5C 473.955,68.8938 475.955,70.0604 477.5,72C 471.56,79.3039 463.893,82.8039 454.5,82.5C 455.657,77.5384 456.657,72.5384 457.5,67.5 Z"/></g>
<g><path style="opacity:1" fill="#507025" d="M 394.5,93.5 C 392.744,92.4479 392.077,90.7812 392.5,88.5C 393.234,81.0304 396.567,75.0304 402.5,70.5C 403.584,71.6651 404.417,72.9984 405,74.5C 405.011,79.9732 406.177,85.1398 408.5,90C 403.79,91.0614 399.123,92.2281 394.5,93.5 Z"/></g>
<g><path style="opacity:1" fill="#517125" d="M 436.5,70.5 C 437.978,70.238 439.311,70.5713 440.5,71.5C 439.088,77.6571 436.588,83.3237 433,88.5C 431.612,89.5536 430.112,89.7203 428.5,89C 426.333,86.8333 424.167,84.6667 422,82.5C 421.427,79.4819 422.594,77.3152 425.5,76C 429.259,74.1207 432.925,72.2874 436.5,70.5 Z"/></g>
<g><path style="opacity:1" fill="#517125" d="M 251.5,72.5 C 253.5,72.5 255.5,72.5 257.5,72.5C 256.182,82.1388 251.182,89.1388 242.5,93.5C 241.395,88.5784 240.062,83.7451 238.5,79C 243.567,78.0494 247.901,75.8827 251.5,72.5 Z"/></g>
<g><path style="opacity:1" fill="#507025" d="M 223.5,89.5 C 224.649,89.7911 225.316,90.6244 225.5,92C 227.152,98.5185 226.819,104.852 224.5,111C 211.788,111.305 209.288,106.472 217,96.5C 219.372,94.2968 221.539,91.9635 223.5,89.5 Z"/></g>
<g><path style="opacity:1" fill="#263512" d="M 392.5,88.5 C 392.077,90.7812 392.744,92.4479 394.5,93.5C 393.791,94.404 392.791,94.7373 391.5,94.5C 391.205,92.2646 391.539,90.2646 392.5,88.5 Z"/></g>
<g><path style="opacity:1" fill="#506f25" d="M 420.5,102.5 C 425.822,105.541 431.489,106.374 437.5,105C 439.116,105.615 440.449,106.615 441.5,108C 435.117,116.238 426.784,119.572 416.5,118C 418.221,112.95 419.554,107.783 420.5,102.5 Z"/></g>
<g><path style="opacity:1" fill="#507025" d="M 190.5,107.5 C 191.239,107.369 191.906,107.536 192.5,108C 196.522,113.02 200.856,117.686 205.5,122C 201.033,125.465 196.867,129.298 193,133.5C 188.088,125.221 187.255,116.554 190.5,107.5 Z"/></g>
<g><path style="opacity:1" fill="#517025" d="M 398.5,108.5 C 399.833,108.5 401.167,108.5 402.5,108.5C 401.563,113.81 399.729,118.81 397,123.5C 395.924,125.577 394.257,126.91 392,127.5C 387.697,125.226 385.031,121.893 384,117.5C 388.307,113.599 393.14,110.599 398.5,108.5 Z"/></g>
<g><path style="opacity:1" fill="#507025" d="M 236.5,121.5 C 238.5,121.5 240.5,121.5 242.5,121.5C 241.57,132.421 235.904,139.421 225.5,142.5C 224.817,137.769 223.817,133.102 222.5,128.5C 225.707,127.03 229.041,125.863 232.5,125C 234.093,124.051 235.426,122.885 236.5,121.5 Z"/></g>
<g><path style="opacity:1" fill="#78a636" d="M 206.5,316.5 C 193.4,321.216 180.4,326.216 167.5,331.5C 189.298,309.201 211.298,287.035 233.5,265C 246,261.833 253.833,254 257,241.5C 277.167,221.333 297.333,201.167 317.5,181C 326.282,182.502 333.449,179.669 339,172.5C 343.687,165.446 347.02,157.779 349,149.5C 356,142.5 363,135.5 370,128.5C 373.5,133.333 377.667,137.5 382.5,141C 362.833,160.667 343.167,180.333 323.5,200C 311.556,201.475 300.556,205.475 290.5,212C 281.186,219.564 279.019,228.73 284,239.5C 258.299,265.368 232.465,291.035 206.5,316.5 Z"/></g>
<g><path style="opacity:1" fill="#4f6f25" d="M 207.5,140.5 C 208.931,140.881 209.764,141.881 210,143.5C 212.006,149.798 211.839,155.965 209.5,162C 203.652,163.402 199.318,161.569 196.5,156.5C 199.402,150.605 203.069,145.272 207.5,140.5 Z"/></g>
<g><path style="opacity:1" fill="#5b7f29" d="M 331.5,145.5 C 332.376,145.369 333.043,145.702 333.5,146.5C 331.486,152.374 328.986,158.041 326,163.5C 324.867,165.211 323.367,165.711 321.5,165C 316.922,162.788 314.422,159.288 314,154.5C 319.451,150.636 325.284,147.636 331.5,145.5 Z"/></g>
<g><path style="opacity:0.997" fill="#77a536" d="M 157.5,301.5 C 147.129,311.206 136.463,320.539 125.5,329.5C 127.332,319.865 127.832,310.198 127,300.5C 136.467,285.68 145.134,270.346 153,254.5C 160.375,253.153 165.708,249.153 169,242.5C 171.468,233.945 172.135,225.278 171,216.5C 177.4,201.96 183.4,187.294 189,172.5C 194.21,176.238 200.044,178.405 206.5,179C 193.341,218.142 176.508,255.642 156,291.5C 155.309,295.021 155.809,298.355 157.5,301.5 Z"/></g>
<g><path style="opacity:1" fill="#5b802a" d="M 152.5,215.5 C 154.117,216.589 154.95,218.256 155,220.5C 155.687,226.204 155.521,231.87 154.5,237.5C 149.968,237.926 145.801,236.926 142,234.5C 141.257,231.217 141.924,228.217 144,225.5C 146.669,222 149.502,218.667 152.5,215.5 Z"/></g>
<g><path style="opacity:1" fill="#5c812a" d="M 312.5,218.5 C 313.833,218.5 315.167,218.5 316.5,218.5C 315.416,226.002 312.249,232.336 307,237.5C 302.5,235.667 299.333,232.5 297.5,228C 298.34,226.233 299.673,224.899 301.5,224C 305.259,222.121 308.925,220.287 312.5,218.5 Z"/></g>
<g><path style="opacity:1" fill="#5a7e29" d="M 242.5,228.5 C 243.376,228.369 244.043,228.702 244.5,229.5C 242.544,236.219 239.544,242.386 235.5,248C 230.712,247.578 227.212,245.078 225,240.5C 224.685,239.092 225.018,237.759 226,236.5C 231.162,232.957 236.662,230.29 242.5,228.5 Z"/></g>
<g><path style="opacity:1" fill="#5a7e29" d="M 109.5,306.5 C 110.805,308.397 111.471,310.731 111.5,313.5C 111.425,317.555 110.925,321.555 110,325.5C 106.913,328.909 103.413,329.076 99.5,326C 96.2091,323.668 95.7091,320.835 98,317.5C 101.729,313.602 105.562,309.935 109.5,306.5 Z"/></g>
<g><path style="opacity:0.998" fill="#b5c283" d="M 206.5,316.5 C 151.784,372.216 96.4511,427.216 40.5,481.5C 37.1667,477.5 33.5,473.833 29.5,470.5C 74.7839,423.549 120.784,377.216 167.5,331.5C 180.4,326.216 193.4,321.216 206.5,316.5 Z"/></g>
<g><path style="opacity:0.937" fill="#75a334" d="M 109.5,344.5 C 96.8593,356.138 84.1926,367.805 71.5,379.5C 80.2598,367.562 89.2598,355.728 98.5,344C 102.109,344.238 105.775,344.405 109.5,344.5 Z"/></g>
</svg>
