<?xml version="1.0" encoding="UTF-8"?>
<!DOCTYPE svg PUBLIC "-//W3C//DTD SVG 1.1//EN" "http://www.w3.org/Graphics/SVG/1.1/DTD/svg11.dtd">
<svg xmlns="http://www.w3.org/2000/svg" version="1.1" width="512px" height="512px" style="shape-rendering:geometricPrecision; text-rendering:geometricPrecision; image-rendering:optimizeQuality; fill-rule:evenodd; clip-rule:evenodd" xmlns:xlink="http://www.w3.org/1999/xlink">
<g><path style="opacity:0.967" fill="#030200" d="M 183.5,-0.5 C 186.167,-0.5 188.833,-0.5 191.5,-0.5C 221.456,9.95698 241.623,30.2903 252,60.5C 280.772,71.4385 300.272,91.4385 310.5,120.5C 338.596,131.43 357.763,151.097 368,179.5C 403.54,193.551 424.04,219.551 429.5,257.5C 451.406,261.957 470.739,271.457 487.5,286C 495.368,294.036 503.368,301.869 511.5,309.5C 511.5,312.167 511.5,314.833 511.5,317.5C 510.251,319.136 508.584,320.303 506.5,321C 475.307,322.882 453.474,338.049 441,366.5C 438.178,376.123 435.511,385.789 433,395.5C 430.045,399.277 426.212,400.443 421.5,399C 391.7,389.034 371.7,369.2 361.5,339.5C 333.377,328.544 314.211,308.878 304,280.5C 275.88,268.881 256.38,248.881 245.5,220.5C 210.386,206.046 189.719,180.046 183.5,142.5C 148.769,133.828 121.436,114.828 101.5,85.5C 101.556,82.8887 102.556,80.722 104.5,79C 136.112,77.126 158.612,61.9593 172,33.5C 175,23.1667 178,12.8333 181,2.5C 182.045,1.62656 182.878,0.626561 183.5,-0.5 Z"/></g>
<g><path style="opacity:1" fill="#fcd931" d="M 249.5,110.5 C 249.5,118.5 249.5,126.5 249.5,134.5C 246.852,134.738 245.018,136.072 244,138.5C 243.333,144.833 243.333,151.167 244,157.5C 245.191,160.534 247.358,162.201 250.5,162.5C 252.145,171.022 251.812,179.355 249.5,187.5C 247.629,187.859 246.129,188.859 245,190.5C 244.667,194.833 244.333,199.167 244,203.5C 216.478,189.627 201.144,167.294 198,136.5C 196.334,96.5069 195.334,56.5069 195,16.5C 230.322,35.4656 245.989,65.1322 242,105.5C 243.41,108.789 245.91,110.456 249.5,110.5 Z"/></g>
<g><path style="opacity:1" fill="#fbb100" d="M 180.5,47.5 C 182.33,73.9843 183.163,100.651 183,127.5C 159.735,121.058 140.235,108.725 124.5,90.5C 149.63,84.3457 168.297,70.0124 180.5,47.5 Z"/></g>
<g><path style="opacity:1" fill="#fdb200" d="M 249.5,187.5 C 251.812,179.355 252.145,171.022 250.5,162.5C 252.484,162.617 254.15,161.95 255.5,160.5C 257.05,156.691 257.716,152.691 257.5,148.5C 257.589,144.715 257.089,141.048 256,137.5C 254.266,135.549 252.099,134.549 249.5,134.5C 249.5,126.5 249.5,118.5 249.5,110.5C 251.755,109.785 253.588,108.452 255,106.5C 255.168,97.1489 255.668,87.8155 256.5,78.5C 279.673,91.1589 293.84,110.492 299,136.5C 300.757,178.503 301.591,220.503 301.5,262.5C 271.91,248.077 257.41,224.41 258,191.5C 256.106,188.156 253.273,186.822 249.5,187.5 Z"/></g>
<g><path style="opacity:1" fill="#0d0901" d="M 249.5,134.5 C 252.099,134.549 254.266,135.549 256,137.5C 257.089,141.048 257.589,144.715 257.5,148.5C 257.716,152.691 257.05,156.691 255.5,160.5C 254.15,161.95 252.484,162.617 250.5,162.5C 247.358,162.201 245.191,160.534 244,157.5C 243.333,151.167 243.333,144.833 244,138.5C 245.018,136.072 246.852,134.738 249.5,134.5 Z"/></g>
<g><path style="opacity:1" fill="#fcd931" d="M 313.5,137.5 C 334.33,148.18 348.163,164.846 355,187.5C 355.794,190.471 356.461,193.471 357,196.5C 358.41,238.162 359.576,279.829 360.5,321.5C 338.57,312.396 324.07,296.396 317,273.5C 315.228,228.181 314.061,182.848 313.5,137.5 Z"/></g>
<g><path style="opacity:0.969" fill="#030200" d="M 256.5,342.5 C 253.993,345.036 250.993,345.869 247.5,345C 242.923,341.46 238.09,338.294 233,335.5C 233.161,369.834 233.827,404.167 235,438.5C 238.087,463.366 250.587,481.699 272.5,493.5C 272.833,488.667 273.167,483.833 273.5,479C 272.541,448.504 271.707,418.004 271,387.5C 269.805,381.416 268.305,375.416 266.5,369.5C 266.577,366.335 267.91,364.001 270.5,362.5C 274.344,360.99 277.51,361.99 280,365.5C 282.471,372.201 284.304,379.034 285.5,386C 303.442,390.305 319.442,398.305 333.5,410C 340.364,417.198 347.53,424.032 355,430.5C 358.624,435.169 358.124,439.336 353.5,443C 326.568,444.53 307.401,457.363 296,481.5C 293.307,491.741 290.14,501.741 286.5,511.5C 283.167,511.5 279.833,511.5 276.5,511.5C 251.518,502.018 234.352,484.685 225,459.5C 200.576,450.077 183.91,433.077 175,408.5C 157.06,401.223 142.727,389.556 132,373.5C 128.653,367.812 126.153,361.812 124.5,355.5C 93.4517,343.762 75.4517,321.428 70.5,288.5C 52.9878,284.743 37.3211,277.243 23.5,266C 15.6316,257.964 7.63162,250.131 -0.5,242.5C -0.5,239.833 -0.5,237.167 -0.5,234.5C 0.626561,233.878 1.62656,233.045 2.5,232C 26.2802,230.87 44.4469,220.37 57,200.5C 61.4387,189.079 65.1054,177.412 68,165.5C 69.8234,163.833 71.99,162.833 74.5,162.5C 102.348,170.847 121.348,188.68 131.5,216C 155.731,225.232 172.231,242.065 181,266.5C 205.092,276.759 221.926,294.093 231.5,318.5C 240.599,322.275 248.933,327.275 256.5,333.5C 257.783,336.635 257.783,339.635 256.5,342.5 Z"/></g>
<g><path style="opacity:1" fill="#fcd931" d="M 120.5,323.5 C 120.819,328.363 120.486,333.03 119.5,337.5C 100.511,326.642 89.011,310.308 85,288.5C 83.3771,252.836 82.8771,217.17 83.5,181.5C 100.614,190.447 112.114,204.114 118,222.5C 118.791,256.17 119.624,289.836 120.5,323.5 Z"/></g>
<g><path style="opacity:1" fill="#fcb200" d="M 371.5,197.5 C 396.473,209.736 410.973,229.736 415,257.5C 416.428,298.828 417.594,340.161 418.5,381.5C 396.57,372.396 382.07,356.396 375,333.5C 373.008,288.188 371.841,242.855 371.5,197.5 Z"/></g>
<g><path style="opacity:1" fill="#fab100" d="M 67.5,210.5 C 68.1667,215.167 68.8333,219.833 69.5,224.5C 69.5,231.167 69.5,237.833 69.5,244.5C 70.1389,254.227 69.4722,263.56 67.5,272.5C 49.4825,267.325 34.1491,257.825 21.5,244C 41.1986,238.798 56.532,227.631 67.5,210.5 Z"/></g>
<g><path style="opacity:1" fill="#715000" d="M 67.5,210.5 C 67.56,209.957 67.8933,209.624 68.5,209.5C 69.4941,214.456 69.8275,219.456 69.5,224.5C 68.8333,219.833 68.1667,215.167 67.5,210.5 Z"/></g>
<g><path style="opacity:1" fill="#fcb100" d="M 132.5,232.5 C 149.776,240.946 161.61,254.28 168,272.5C 169.363,311.591 170.196,350.591 170.5,389.5C 148.541,376.936 136.708,357.936 135,332.5C 134.094,299.166 133.261,265.833 132.5,232.5 Z"/></g>
<g><path style="opacity:1" fill="#865e01" d="M 69.5,244.5 C 70.4938,253.986 70.8271,263.652 70.5,273.5C 69.209,273.737 68.209,273.404 67.5,272.5C 69.4722,263.56 70.1389,254.227 69.5,244.5 Z"/></g>
<g><path style="opacity:1" fill="#fbd831" d="M 431.5,272.5 C 454.432,278.465 473.765,290.299 489.5,308C 464.378,314.124 445.211,328.29 432,350.5C 431.288,330.504 430.788,310.504 430.5,290.5C 430.177,284.31 430.51,278.31 431.5,272.5 Z"/></g>
<g><path style="opacity:1" fill="#fdda31" d="M 182.5,284.5 C 199.78,292.95 211.614,306.283 218,324.5C 219.433,363.502 220.433,402.502 221,441.5C 202.022,430.894 190.355,414.894 186,393.5C 184.586,357.174 183.419,320.841 182.5,284.5 Z"/></g>
<g><path style="opacity:1" fill="#4a4010" d="M 431.5,272.5 C 430.51,278.31 430.177,284.31 430.5,290.5C 429.183,284.322 429.183,277.988 430.5,271.5C 431.107,271.624 431.44,271.957 431.5,272.5 Z"/></g>
<g><path style="opacity:1" fill="#463c0e" d="M 120.5,323.5 C 121.814,328.348 121.814,333.348 120.5,338.5C 119.893,338.376 119.56,338.043 119.5,337.5C 120.486,333.03 120.819,328.363 120.5,323.5 Z"/></g>
<g><path style="opacity:0.998" fill="#fcb200" d="M 256.5,342.5 C 262.36,348.355 267.027,355.022 270.5,362.5C 267.91,364.001 266.577,366.335 266.5,369.5C 268.305,375.416 269.805,381.416 271,387.5C 271.707,418.004 272.541,448.504 273.5,479C 273.167,483.833 272.833,488.667 272.5,493.5C 250.587,481.699 238.087,463.366 235,438.5C 233.827,404.167 233.161,369.834 233,335.5C 238.09,338.294 242.923,341.46 247.5,345C 250.993,345.869 253.993,345.036 256.5,342.5 Z"/></g>
<g><path style="opacity:1" fill="#fbd831" d="M 288.5,463.5 C 287.833,457.833 287.167,452.167 286.5,446.5C 286.196,431.499 285.862,416.499 285.5,401.5C 304.359,406.195 320.359,415.695 333.5,430C 318.136,435.098 304.97,443.598 294,455.5C 291.946,458.047 290.113,460.714 288.5,463.5 Z"/></g>
<g><path style="opacity:1" fill="#937f1c" d="M 286.5,446.5 C 287.167,452.167 287.833,457.833 288.5,463.5C 288.217,464.289 287.717,464.956 287,465.5C 286.5,459.175 286.334,452.842 286.5,446.5 Z"/></g>
</svg>
