<?xml version="1.0" encoding="UTF-8"?>
<!DOCTYPE svg PUBLIC "-//W3C//DTD SVG 1.1//EN" "http://www.w3.org/Graphics/SVG/1.1/DTD/svg11.dtd">
<svg xmlns="http://www.w3.org/2000/svg" version="1.1" width="512px" height="512px" style="shape-rendering:geometricPrecision; text-rendering:geometricPrecision; image-rendering:optimizeQuality; fill-rule:evenodd; clip-rule:evenodd" xmlns:xlink="http://www.w3.org/1999/xlink">
<g><path style="opacity:0.976" fill="#010200" d="M 134.5,-0.5 C 142.5,-0.5 150.5,-0.5 158.5,-0.5C 177.397,3.38969 191.064,14.0564 199.5,31.5C 209.692,32.7981 219.358,35.7981 228.5,40.5C 246.5,32.5 264.5,32.5 282.5,40.5C 291.642,35.7981 301.308,32.7981 311.5,31.5C 320.034,13.6296 334.034,2.96292 353.5,-0.5C 361.167,-0.5 368.833,-0.5 376.5,-0.5C 388.941,2.47321 399.774,8.47321 409,17.5C 409.659,20.8881 409.492,24.2214 408.5,27.5C 405.201,28.3761 401.868,28.5428 398.5,28C 386.122,16.5908 371.789,12.4242 355.5,15.5C 337.514,18.6526 326.514,29.1526 322.5,47C 315.941,48.2554 309.274,48.9221 302.5,49C 300.616,49.2163 298.949,49.883 297.5,51C 308.302,60.7719 314.136,72.9386 315,87.5C 330.575,92.7412 341.242,103.075 347,118.5C 347.725,119.059 348.558,119.392 349.5,119.5C 352.802,118.918 356.135,118.585 359.5,118.5C 364.609,118.629 369.609,119.129 374.5,120C 382.037,109.73 392.037,103.23 404.5,100.5C 411.746,99.536 419.08,99.2027 426.5,99.5C 426.159,96.4842 424.993,93.8175 423,91.5C 418.591,86.4196 413.591,82.0863 408,78.5C 406.967,73.1055 407.967,68.1055 411,63.5C 411.333,59.1667 411.667,54.8333 412,50.5C 413.73,48.5981 415.563,46.9314 417.5,45.5C 421.025,45.3459 423.859,46.6792 426,49.5C 426.981,56.8264 426.481,63.993 424.5,71C 435.116,79.3982 441.783,90.2316 444.5,103.5C 472.214,118.259 484.047,141.259 480,172.5C 478.581,177.17 476.748,181.67 474.5,186C 488.985,206.659 489.151,227.492 475,248.5C 467.515,258.318 459.015,267.152 449.5,275C 448.036,285.76 444.203,295.593 438,304.5C 430.667,313.167 422.667,321.167 414,328.5C 412.243,340.782 407.576,351.782 400,361.5C 394.5,368.333 388.333,374.5 381.5,380C 369.339,388.581 357.006,396.914 344.5,405C 353.698,419.691 352.031,433.024 339.5,445C 332.689,448.864 325.355,451.031 317.5,451.5C 321.553,461.273 326.386,470.606 332,479.5C 334.893,495.379 328.726,506.046 313.5,511.5C 308.833,511.5 304.167,511.5 299.5,511.5C 295.992,509.809 292.825,507.476 290,504.5C 287.05,499.882 283.716,495.548 280,491.5C 278.489,501.553 272.989,508.22 263.5,511.5C 258.167,511.5 252.833,511.5 247.5,511.5C 238.011,508.22 232.511,501.553 231,491.5C 227.425,495.653 224.091,499.986 221,504.5C 218.175,507.476 215.008,509.809 211.5,511.5C 206.833,511.5 202.167,511.5 197.5,511.5C 182.274,506.046 176.107,495.379 179,479.5C 184.614,470.606 189.447,461.273 193.5,451.5C 167.292,449.487 157.126,435.82 163,410.5C 164.167,408.667 165.333,406.833 166.5,405C 153.994,396.914 141.661,388.581 129.5,380C 118.084,370.66 108.917,359.493 102,346.5C 99.72,340.661 98.0533,334.661 97,328.5C 82.9911,318.166 72.3244,305.166 65,289.5C 63.453,284.216 62.1196,278.882 61,273.5C 54.7398,269.244 49.0731,264.244 44,258.5C 41.7706,254.429 42.2706,250.762 45.5,247.5C 48.9133,246.013 52.2467,246.18 55.5,248C 62.6925,254.528 69.8591,261.028 77,267.5C 77.0857,279.09 80.7523,289.423 88,298.5C 95.4003,306.57 103.4,313.904 112,320.5C 113.084,337.168 119.917,351.001 132.5,362C 147.675,374.171 163.675,385.171 180.5,395C 189.851,395.832 199.184,395.665 208.5,394.5C 197.547,369.261 186.047,344.261 174,319.5C 164.336,299.183 160.336,277.85 162,255.5C 163.54,249.713 165.374,244.046 167.5,238.5C 165.667,231.168 163.834,223.835 162,216.5C 159.952,201.601 161.785,187.267 167.5,173.5C 163.428,160.807 161.428,147.807 161.5,134.5C 152.518,132.511 143.851,133.344 135.5,137C 133.833,137.667 132.167,137.667 130.5,137C 126.511,132.039 122.511,127.039 118.5,122C 93.9234,108.369 72.4234,112.202 54,133.5C 46.1823,143.961 43.5156,155.628 46,168.5C 47.6413,173.786 50.308,178.453 54,182.5C 54.7901,185.634 54.4568,188.634 53,191.5C 43.0365,201.39 39.0365,213.39 41,227.5C 39.6032,229.07 38.1032,230.404 36.5,231.5C 33.0295,232.125 30.1962,231.125 28,228.5C 23.9111,213.012 26.7444,198.845 36.5,186C 23.8405,155.971 30.1738,130.638 55.5,110C 59.1667,107.833 62.8333,105.667 66.5,103.5C 69.2036,90.2652 75.8703,79.4319 86.5,71C 81.1744,43.9734 90.1744,22.9734 113.5,8C 120.182,4.05817 127.182,1.22484 134.5,-0.5 Z"/></g>
<g><path style="opacity:1" fill="#4ebf22" d="M 137.5,14.5 C 147.886,13.5312 157.886,15.0312 167.5,19C 178.666,25.1717 185.666,34.505 188.5,47C 194.725,48.2507 201.058,48.9173 207.5,49C 209.5,49.6667 211.5,50.3333 213.5,51C 202.834,60.832 196.834,72.9987 195.5,87.5C 180.199,92.9675 169.699,103.301 164,118.5C 162.769,119.108 161.436,119.441 160,119.5C 152.569,117.944 145.236,118.277 138,120.5C 124.102,104.024 106.269,97.0241 84.5,99.5C 84.8406,96.4842 86.0073,93.8175 88,91.5C 92.4094,86.4196 97.4094,82.0863 103,78.5C 104.033,73.1055 103.033,68.1055 100,63.5C 99.0807,42.3842 108.247,27.2176 127.5,18C 130.98,16.8974 134.313,15.7308 137.5,14.5 Z"/></g>
<g><path style="opacity:1" fill="#4ebf22" d="M 355.5,15.5 C 359.308,15.1632 362.974,15.6632 366.5,17C 386.917,31.7473 392.917,50.9139 384.5,74.5C 390.763,77.929 395.93,82.5957 400,88.5C 402.364,92.2186 403.864,96.2186 404.5,100.5C 392.037,103.23 382.037,109.73 374.5,120C 369.609,119.129 364.609,118.629 359.5,118.5C 356.135,118.585 352.802,118.918 349.5,119.5C 348.558,119.392 347.725,119.059 347,118.5C 341.242,103.075 330.575,92.7412 315,87.5C 314.136,72.9386 308.302,60.7719 297.5,51C 298.949,49.883 300.616,49.2163 302.5,49C 309.274,48.9221 315.941,48.2554 322.5,47C 326.514,29.1526 337.514,18.6526 355.5,15.5 Z"/></g>
<g><path style="opacity:1" fill="#46a61f" d="M 355.5,15.5 C 371.789,12.4242 386.122,16.5908 398.5,28C 401.868,28.5428 405.201,28.3761 408.5,27.5C 412.552,32.9376 415.552,38.9376 417.5,45.5C 415.563,46.9314 413.73,48.5981 412,50.5C 411.667,54.8333 411.333,59.1667 411,63.5C 407.967,68.1055 406.967,73.1055 408,78.5C 413.591,82.0863 418.591,86.4196 423,91.5C 424.993,93.8175 426.159,96.4842 426.5,99.5C 419.08,99.2027 411.746,99.536 404.5,100.5C 403.864,96.2186 402.364,92.2186 400,88.5C 395.93,82.5957 390.763,77.929 384.5,74.5C 392.917,50.9139 386.917,31.7473 366.5,17C 362.974,15.6632 359.308,15.1632 355.5,15.5 Z"/></g>
<g><path style="opacity:1" fill="#abde92" d="M 261.5,50.5 C 259.473,50.3379 257.473,50.5045 255.5,51C 270.861,60.8807 278.527,75.0474 278.5,93.5C 296.872,98.2275 308.039,109.894 312,128.5C 312.999,144.515 310.499,160.015 304.5,175C 309.996,183.493 312.663,192.826 312.5,203C 312.142,215.846 309.475,228.18 304.5,240C 312.233,252.901 314.4,266.734 311,281.5C 309.155,291.04 306.488,300.373 303,309.5C 289.893,337.381 277.059,365.381 264.5,393.5C 271.803,394.497 279.137,394.831 286.5,394.5C 266.007,395.497 245.34,395.831 224.5,395.5C 221.637,387.417 218.47,379.417 215,371.5C 204.787,351.074 195.12,330.408 186,309.5C 182.934,301.637 180.268,293.637 178,285.5C 176.569,276.541 176.235,267.541 177,258.5C 178.587,252.068 180.754,245.901 183.5,240C 181.9,233.433 180.067,226.933 178,220.5C 176.066,209.823 176.066,199.156 178,188.5C 180.524,184.285 182.357,179.785 183.5,175C 181.094,166.208 178.927,157.374 177,148.5C 172.141,126.723 179.641,111.223 199.5,102C 204.11,101.628 207.943,99.7945 211,96.5C 209.684,74.3042 219.517,59.4709 240.5,52C 247.54,49.6611 254.54,49.1611 261.5,50.5 Z"/></g>
<g><path style="opacity:1" fill="#7fd060" d="M 261.5,50.5 C 287.654,54.8113 300.487,70.1447 300,96.5C 303.698,100.185 308.198,102.352 313.5,103C 324.686,107.547 331.52,115.714 334,127.5C 334.667,134.5 334.667,141.5 334,148.5C 332.073,157.374 329.906,166.208 327.5,175C 328.643,179.785 330.476,184.285 333,188.5C 334.934,199.156 334.934,209.823 333,220.5C 330.933,226.933 329.1,233.433 327.5,240C 330.246,245.901 332.413,252.068 334,258.5C 334.765,267.541 334.431,276.541 333,285.5C 330.732,293.637 328.066,301.637 325,309.5C 311.607,337.617 298.773,365.951 286.5,394.5C 279.137,394.831 271.803,394.497 264.5,393.5C 277.059,365.381 289.893,337.381 303,309.5C 306.488,300.373 309.155,291.04 311,281.5C 314.4,266.734 312.233,252.901 304.5,240C 309.475,228.18 312.142,215.846 312.5,203C 312.663,192.826 309.996,183.493 304.5,175C 310.499,160.015 312.999,144.515 312,128.5C 308.039,109.894 296.872,98.2275 278.5,93.5C 278.527,75.0474 270.861,60.8807 255.5,51C 257.473,50.5045 259.473,50.3379 261.5,50.5 Z"/></g>
<g><path style="opacity:1" fill="#020201" d="M 262.5,108.5 C 262.167,125.846 262.5,143.179 263.5,160.5C 264.107,160.376 264.44,160.043 264.5,159.5C 269.727,153.096 274.394,146.263 278.5,139C 284.715,136.846 288.382,138.846 289.5,145C 284.612,159.612 275.946,171.445 263.5,180.5C 262.175,193.673 262.175,207.006 263.5,220.5C 264.107,220.376 264.44,220.043 264.5,219.5C 271.778,211.382 278.111,202.548 283.5,193C 289.593,190.546 293.259,192.546 294.5,199C 288.482,216.187 277.982,230.02 263,240.5C 262.333,258.167 262.333,275.833 263,293.5C 274.089,282.75 283.255,270.583 290.5,257C 296.397,255.609 300.064,257.776 301.5,263.5C 293.474,283.524 280.64,299.857 263,312.5C 262.667,324.5 262.333,336.5 262,348.5C 257.667,353.833 253.333,353.833 249,348.5C 248.667,336.5 248.333,324.5 248,312.5C 230.36,299.857 217.526,283.524 209.5,263.5C 211.091,256.611 215.091,254.778 221.5,258C 228.263,271.352 237.097,283.185 248,293.5C 248.667,275.833 248.667,258.167 248,240.5C 233.018,230.02 222.518,216.187 216.5,199C 217.741,192.546 221.407,190.546 227.5,193C 232.889,202.548 239.222,211.382 246.5,219.5C 246.56,220.043 246.893,220.376 247.5,220.5C 248.825,207.006 248.825,193.673 247.5,180.5C 238.127,172.952 230.294,163.952 224,153.5C 221.844,149.738 221.177,145.738 222,141.5C 224.909,138.606 228.409,137.773 232.5,139C 236.606,146.263 241.273,153.096 246.5,159.5C 246.56,160.043 246.893,160.376 247.5,160.5C 248.5,143.179 248.833,125.846 248.5,108.5C 250.353,102.627 254.02,101.127 259.5,104C 261.141,105.129 262.141,106.629 262.5,108.5 Z"/></g>
<g><path style="opacity:1" fill="#556f49" d="M 248.5,108.5 C 248.833,125.846 248.5,143.179 247.5,160.5C 246.893,160.376 246.56,160.043 246.5,159.5C 247.167,142.5 247.833,125.5 248.5,108.5 Z"/></g>
<g><path style="opacity:1" fill="#556f49" d="M 262.5,108.5 C 263.167,125.5 263.833,142.5 264.5,159.5C 264.44,160.043 264.107,160.376 263.5,160.5C 262.5,143.179 262.167,125.846 262.5,108.5 Z"/></g>
<g><path style="opacity:1" fill="#7fd060" d="M 45.5,247.5 C 40.9651,243.104 37.9651,237.77 36.5,231.5C 38.1032,230.404 39.6032,229.07 41,227.5C 39.0365,213.39 43.0365,201.39 53,191.5C 54.4568,188.634 54.7901,185.634 54,182.5C 50.308,178.453 47.6413,173.786 46,168.5C 43.5156,155.628 46.1823,143.961 54,133.5C 72.4234,112.202 93.9234,108.369 118.5,122C 122.511,127.039 126.511,132.039 130.5,137C 132.167,137.667 133.833,137.667 135.5,137C 143.851,133.344 152.518,132.511 161.5,134.5C 161.428,147.807 163.428,160.807 167.5,173.5C 161.785,187.267 159.952,201.601 162,216.5C 163.834,223.835 165.667,231.168 167.5,238.5C 165.374,244.046 163.54,249.713 162,255.5C 160.336,277.85 164.336,299.183 174,319.5C 186.047,344.261 197.547,369.261 208.5,394.5C 199.184,395.665 189.851,395.832 180.5,395C 163.675,385.171 147.675,374.171 132.5,362C 119.917,351.001 113.084,337.168 112,320.5C 103.4,313.904 95.4003,306.57 88,298.5C 80.7523,289.423 77.0857,279.09 77,267.5C 69.8591,261.028 62.6925,254.528 55.5,248C 52.2467,246.18 48.9133,246.013 45.5,247.5 Z"/></g>
<g><path style="opacity:1" fill="#7fd160" d="M 423.5,114.5 C 415.94,113.966 415.606,115.133 422.5,118C 442.551,135.277 447.717,156.11 438,180.5C 436.859,182.609 435.359,184.442 433.5,186C 446.368,199.311 449.868,214.811 444,232.5C 436.607,247.567 425.94,259.901 412,269.5C 409.997,288.007 401.83,303.174 387.5,315C 383.976,318.025 380.309,320.858 376.5,323.5C 374.963,336.569 370.13,348.236 362,358.5C 348.552,372.625 333.385,384.458 316.5,394C 320.025,394.179 323.359,394.679 326.5,395.5C 318.472,395.831 310.472,395.498 302.5,394.5C 313.453,369.261 324.953,344.261 337,319.5C 346.664,299.183 350.664,277.85 349,255.5C 347.16,249.823 345.326,244.156 343.5,238.5C 345.333,231.168 347.166,223.835 349,216.5C 351.048,201.601 349.215,187.267 343.5,173.5C 347.628,160.798 349.628,147.798 349.5,134.5C 352.467,134.002 355.467,133.669 358.5,133.5C 365.967,134.375 373.3,135.541 380.5,137C 384.175,133.828 387.008,129.995 389,125.5C 398.726,115.868 410.226,112.201 423.5,114.5 Z"/></g>
<g><path style="opacity:1" fill="#67c843" d="M 423.5,114.5 C 444.699,118.015 458.532,130.015 465,150.5C 467.751,162.627 465.084,173.294 457,182.5C 456.21,185.634 456.543,188.634 458,191.5C 470.968,204.935 472.968,219.935 464,236.5C 461.667,239.833 459.333,243.167 457,246.5C 449.307,253.528 441.641,260.528 434,267.5C 433.914,279.09 430.248,289.423 423,298.5C 415.6,306.57 407.6,313.904 399,320.5C 398.408,334.349 393.408,346.349 384,356.5C 366.842,372.647 347.675,385.647 326.5,395.5C 323.359,394.679 320.025,394.179 316.5,394C 333.385,384.458 348.552,372.625 362,358.5C 370.13,348.236 374.963,336.569 376.5,323.5C 380.309,320.858 383.976,318.025 387.5,315C 401.83,303.174 409.997,288.007 412,269.5C 425.94,259.901 436.607,247.567 444,232.5C 449.868,214.811 446.368,199.311 433.5,186C 435.359,184.442 436.859,182.609 438,180.5C 447.717,156.11 442.551,135.277 422.5,118C 415.606,115.133 415.94,113.966 423.5,114.5 Z"/></g>
<g><path style="opacity:1" fill="#556f49" d="M 247.5,180.5 C 248.825,193.673 248.825,207.006 247.5,220.5C 246.893,220.376 246.56,220.043 246.5,219.5C 247.495,206.677 247.829,193.677 247.5,180.5 Z"/></g>
<g><path style="opacity:1" fill="#556f49" d="M 263.5,180.5 C 263.171,193.677 263.505,206.677 264.5,219.5C 264.44,220.043 264.107,220.376 263.5,220.5C 262.175,207.006 262.175,193.673 263.5,180.5 Z"/></g>
<g><path style="opacity:1" fill="#f7bd01" d="M 185.5,409.5 C 232.168,409.333 278.835,409.5 325.5,410C 333.538,413.243 336.371,419.077 334,427.5C 332.437,430.728 329.937,432.895 326.5,434C 278.833,434.667 231.167,434.667 183.5,434C 176.451,429.513 174.617,423.346 178,415.5C 180.114,412.879 182.614,410.879 185.5,409.5 Z"/></g>
<g><path style="opacity:1" fill="#56913f" d="M 268.5,454.5 C 268.5,453.167 268.5,451.833 268.5,450.5C 259.833,450.5 251.167,450.5 242.5,450.5C 242.5,451.833 242.5,453.167 242.5,454.5C 241.549,453.081 241.216,451.415 241.5,449.5C 250.833,449.5 260.167,449.5 269.5,449.5C 269.784,451.415 269.451,453.081 268.5,454.5 Z"/></g>
<g><path style="opacity:1" fill="#7bcb5d" d="M 226.5,454.5 C 214.791,464.544 203.791,475.21 193.5,486.5C 200.107,474.951 205.94,462.951 211,450.5C 216.072,449.529 221.238,449.195 226.5,449.5C 226.5,451.167 226.5,452.833 226.5,454.5 Z"/></g>
<g><path style="opacity:1" fill="#7dcf5f" d="M 268.5,454.5 C 266.113,467.047 264.613,479.714 264,492.5C 258.301,497.746 252.634,497.746 247,492.5C 245.83,479.8 244.33,467.133 242.5,454.5C 242.5,453.167 242.5,451.833 242.5,450.5C 251.167,450.5 259.833,450.5 268.5,450.5C 268.5,451.833 268.5,453.167 268.5,454.5 Z"/></g>
<g><path style="opacity:1" fill="#7dcd5e" d="M 284.5,449.5 C 289.762,449.195 294.928,449.529 300,450.5C 304.72,462.342 310.387,473.675 317,484.5C 316.905,493.251 312.405,497.084 303.5,496C 297.085,486.914 289.918,478.414 282,470.5C 281.96,463.406 282.793,456.406 284.5,449.5 Z"/></g>
<g><path style="opacity:1" fill="#66c643" d="M 226.5,454.5 C 228.723,459.509 229.556,464.843 229,470.5C 221.082,478.414 213.915,486.914 207.5,496C 199.953,497.061 195.286,493.894 193.5,486.5C 203.791,475.21 214.791,464.544 226.5,454.5 Z"/></g>
</svg>
