<?xml version="1.0" encoding="UTF-8"?>
<!DOCTYPE svg PUBLIC "-//W3C//DTD SVG 1.1//EN" "http://www.w3.org/Graphics/SVG/1.1/DTD/svg11.dtd">
<svg xmlns="http://www.w3.org/2000/svg" version="1.1" width="512px" height="512px" style="shape-rendering:geometricPrecision; text-rendering:geometricPrecision; image-rendering:optimizeQuality; fill-rule:evenodd; clip-rule:evenodd" xmlns:xlink="http://www.w3.org/1999/xlink">
<g><path style="opacity:0.972" fill="#010100" d="M 123.5,-0.5 C 147.167,-0.5 170.833,-0.5 194.5,-0.5C 199.349,1.50549 203.182,4.83883 206,9.5C 207.086,18.7786 207.919,28.112 208.5,37.5C 262.798,53.9649 298.298,89.2982 315,143.5C 318.821,160.273 320.487,177.273 320,194.5C 386.66,183.515 440.66,204.515 482,257.5C 498.047,280.484 507.881,305.817 511.5,333.5C 511.5,345.5 511.5,357.5 511.5,369.5C 497.167,449.833 449.833,497.167 369.5,511.5C 357.5,511.5 345.5,511.5 333.5,511.5C 274.176,502.332 231.009,470.998 204,417.5C 142.786,432.863 89.4529,418.863 44,375.5C 19.1994,348.898 4.36608,317.565 -0.5,281.5C -0.5,242.833 -0.5,204.167 -0.5,165.5C 8.26348,110.907 37.2635,71.074 86.5,46C 94.0511,42.8716 101.718,40.0383 109.5,37.5C 110.201,28.8143 111.034,20.1476 112,11.5C 114.691,6.31113 118.524,2.31113 123.5,-0.5 Z"/></g>
<g><path style="opacity:1" fill="#9e5353" d="M 128.5,15.5 C 136.167,15.5 143.833,15.5 151.5,15.5C 151.5,20.8333 151.5,26.1667 151.5,31.5C 143.5,32.1667 135.5,32.8333 127.5,33.5C 127.211,27.4093 127.545,21.4093 128.5,15.5 Z"/></g>
<g><path style="opacity:1" fill="#8e4545" d="M 167.5,15.5 C 175.174,15.3336 182.841,15.5003 190.5,16C 191.476,22.0758 191.81,28.2424 191.5,34.5C 183.518,33.3539 175.518,32.3539 167.5,31.5C 167.5,26.1667 167.5,20.8333 167.5,15.5 Z"/></g>
<g><path style="opacity:1" fill="#9fd863" d="M 142.5,47.5 C 185.434,44.3085 223.767,55.8085 257.5,82C 291.959,113.521 307.292,152.688 303.5,199.5C 251.694,216.472 216.861,250.805 199,302.5C 189.038,335.848 189.205,369.181 199.5,402.5C 141.445,416.2 91.945,401.533 51,358.5C 31.4124,335.439 19.7457,308.772 16,278.5C 15.3333,242.167 15.3333,205.833 16,169.5C 25.0595,110.105 58.2262,71.2718 115.5,53C 124.588,50.9495 133.588,49.1161 142.5,47.5 Z"/></g>
<g><path style="opacity:1" fill="#030402" d="M 92.5,103.5 C 102.239,103.329 105.239,107.662 101.5,116.5C 87.5018,127.16 76.8352,140.494 69.5,156.5C 62.0853,161.577 57.4186,159.744 55.5,151C 62.8331,131.179 75.1665,115.346 92.5,103.5 Z"/></g>
<g><path style="opacity:1" fill="#070a04" d="M 188.5,127.5 C 194.915,126.61 198.582,129.277 199.5,135.5C 199.113,140.72 196.279,143.387 191,143.5C 185.398,141.971 183.065,138.304 184,132.5C 185.025,130.313 186.525,128.646 188.5,127.5 Z"/></g>
<g><path style="opacity:1" fill="#070a04" d="M 156.5,167.5 C 162.915,166.61 166.582,169.277 167.5,175.5C 167.113,180.72 164.279,183.387 159,183.5C 153.398,181.971 151.065,178.304 152,172.5C 153.025,170.313 154.525,168.646 156.5,167.5 Z"/></g>
<g><path style="opacity:1" fill="#070a04" d="M 220.5,167.5 C 226.915,166.61 230.582,169.277 231.5,175.5C 231.113,180.72 228.279,183.387 223,183.5C 217.398,181.971 215.065,178.304 216,172.5C 217.025,170.313 218.525,168.646 220.5,167.5 Z"/></g>
<g><path style="opacity:1" fill="#010201" d="M 60.5,183.5 C 65.1524,182.984 68.6524,184.651 71,188.5C 71.6667,206.167 71.6667,223.833 71,241.5C 68.305,247.098 64.1383,248.598 58.5,246C 57.1068,244.829 56.2735,243.329 56,241.5C 55.3333,223.833 55.3333,206.167 56,188.5C 57.025,186.313 58.525,184.646 60.5,183.5 Z"/></g>
<g><path style="opacity:1" fill="#b1da86" d="M 336.5,207.5 C 397.842,204.583 444.676,228.916 477,280.5C 506.418,338.973 501.085,393.973 461,445.5C 418.527,490.208 367.361,504.708 307.5,489C 249.537,467.365 216.37,425.865 208,364.5C 205.189,303.947 229.355,257.781 280.5,226C 298.199,216.489 316.866,210.322 336.5,207.5 Z"/></g>
<g><path style="opacity:1" fill="#040402" d="M 340.5,215.5 C 402.892,214.259 448.059,241.259 476,296.5C 493.458,340.263 490.458,382.596 467,423.5C 433.945,471.768 388.111,492.601 329.5,486C 262.401,470.635 224.567,428.801 216,360.5C 214.858,298.924 241.691,254.424 296.5,227C 310.721,220.946 325.388,217.113 340.5,215.5 Z"/></g>
<g><path style="opacity:1" fill="#fbd9b9" d="M 337.5,231.5 C 388.187,228.76 427.354,248.426 455,290.5C 480.117,338.837 476.45,384.837 444,428.5C 408.399,466.861 365.232,479.361 314.5,466C 256.663,442.861 229.163,400.028 232,337.5C 243.35,278.317 278.517,242.983 337.5,231.5 Z"/></g>
<g><path style="opacity:1" fill="#050403" d="M 340.5,239.5 C 360.549,237.498 378.549,242.498 394.5,254.5C 402.933,264.103 403.766,274.437 397,285.5C 387.211,295.246 380.377,306.746 376.5,320C 377.237,326.043 380.571,328.043 386.5,326C 390.286,324.607 393.952,322.941 397.5,321C 406.447,315.053 415.114,308.72 423.5,302C 437.059,298.745 447.226,303.245 454,315.5C 467.562,341.941 466.229,367.608 450,392.5C 442.759,400.692 433.926,403.192 423.5,400C 416.167,394.667 408.833,389.333 401.5,384C 395.7,380.514 389.534,378.014 383,376.5C 376.977,377.192 374.977,380.526 377,386.5C 378,389.167 379,391.833 380,394.5C 386.611,404.777 393.611,414.777 401,424.5C 403.214,434.492 400.714,442.992 393.5,450C 366.303,467.411 338.969,467.745 311.5,451C 302.246,443.496 299.413,433.996 303,422.5C 310.071,414.026 316.405,405.026 322,395.5C 324.589,390.416 325.922,385.082 326,379.5C 322.315,376.023 318.149,375.523 313.5,378C 302.615,382.939 292.948,389.606 284.5,398C 269.351,405.84 257.518,402.34 249,387.5C 235.642,361.584 236.642,336.251 252,311.5C 259.157,302.226 268.324,299.392 279.5,303C 286.833,308.333 294.167,313.667 301.5,319C 325.288,333.206 331.121,328.039 319,303.5C 314.056,295.557 308.723,287.891 303,280.5C 298.562,269.806 300.729,260.639 309.5,253C 319.027,246.443 329.36,241.943 340.5,239.5 Z"/></g>
<g><path style="opacity:1" fill="#fccc9e" d="M 341.5,255.5 C 357.76,253.537 372.26,257.537 385,267.5C 385.667,269.833 385.667,272.167 385,274.5C 373.937,285.952 365.937,299.286 361,314.5C 358.828,330.505 365.661,339.839 381.5,342.5C 400.047,339.228 415.714,330.728 428.5,317C 430.5,316.333 432.5,316.333 434.5,317C 446.458,330.773 450.291,346.607 446,364.5C 443.826,372.357 439.992,379.19 434.5,385C 432.5,385.667 430.5,385.667 428.5,385C 417.606,374.446 404.939,366.78 390.5,362C 372.764,357.692 362.764,364.525 360.5,382.5C 363.426,400.352 371.593,415.352 385,427.5C 386.922,433.383 385.089,437.549 379.5,440C 359.417,450.563 339.751,449.896 320.5,438C 317.231,434.547 316.731,430.714 319,426.5C 328.26,416.991 335.26,405.991 340,393.5C 344.292,365.467 332.792,355.634 305.5,364C 294.451,369.523 284.451,376.523 275.5,385C 270.59,387.613 266.756,386.447 264,381.5C 253.5,363.168 252.833,344.501 262,325.5C 263.832,322.639 265.999,320.139 268.5,318C 270.971,317.294 273.305,317.627 275.5,319C 285.958,328.777 297.958,336.111 311.5,341C 331.957,345.377 341.791,337.21 341,316.5C 336.683,300.858 329.017,287.191 318,275.5C 315.387,270.59 316.553,266.756 321.5,264C 327.92,260.282 334.586,257.449 341.5,255.5 Z"/></g>
</svg>
