<?xml version="1.0" encoding="UTF-8"?>
<!DOCTYPE svg PUBLIC "-//W3C//DTD SVG 1.1//EN" "http://www.w3.org/Graphics/SVG/1.1/DTD/svg11.dtd">
<svg xmlns="http://www.w3.org/2000/svg" version="1.1" width="512px" height="512px" style="shape-rendering:geometricPrecision; text-rendering:geometricPrecision; image-rendering:optimizeQuality; fill-rule:evenodd; clip-rule:evenodd" xmlns:xlink="http://www.w3.org/1999/xlink">
<g><path style="opacity:0.963" fill="#030201" d="M 166.5,74.5 C 165.404,76.1032 164.07,77.6032 162.5,79C 157.511,79.4993 152.511,79.6659 147.5,79.5C 123.842,76.5576 109.342,86.5576 104,109.5C 97.6555,148.567 90.9888,187.567 84,226.5C 76.2418,231.898 71.7418,229.898 70.5,220.5C 76.835,181.823 83.1684,143.157 89.5,104.5C 78.8281,104.333 68.1615,104.5 57.5,105C 40.7719,108.729 29.2719,118.562 23,134.5C 20.1316,142.772 17.465,151.105 15,159.5C 13.702,168.468 14.702,177.135 18,185.5C 32.1799,213.86 46.3466,242.193 60.5,270.5C 64.5196,279.374 69.1863,287.874 74.5,296C 79.3967,298.232 84.0633,297.899 88.5,295C 120,250.833 151.5,206.667 183,162.5C 189.453,150.477 191.12,137.81 188,124.5C 184.682,114.212 181.182,104.045 177.5,94C 177.927,90.9766 179.261,88.4766 181.5,86.5C 185.61,85.1455 189.11,86.1455 192,89.5C 198.844,104.862 203.344,120.862 205.5,137.5C 204.735,154.015 199.235,168.682 189,181.5C 160.421,220.991 132.088,260.657 104,300.5C 93.5853,313.977 80.752,316.811 65.5,309C 63.3333,306.833 61.1667,304.667 59,302.5C 40.3333,265.167 21.6667,227.833 3,190.5C 2.09647,186.628 0.929807,182.961 -0.5,179.5C -0.5,172.167 -0.5,164.833 -0.5,157.5C 3.01197,143.807 7.8453,130.473 14,117.5C 23.646,102.753 37.146,93.5863 54.5,90C 68.153,89.0211 81.8197,88.1878 95.5,87.5C 103.875,73.635 116.208,65.8016 132.5,64C 141.874,63.2242 151.207,63.5575 160.5,65C 165.129,66.4107 167.129,69.5774 166.5,74.5 Z"/></g>
<g><path style="opacity:0.965" fill="#030201" d="M 511.5,134.5 C 511.5,138.5 511.5,142.5 511.5,146.5C 504.736,165.29 498.236,184.29 492,203.5C 489.104,210.732 483.77,214.399 476,214.5C 472.824,213.927 469.657,213.76 466.5,214C 449.833,222.333 433.167,230.667 416.5,239C 408.545,241.439 400.878,240.773 393.5,237C 382.672,229.419 371.672,222.085 360.5,215C 356.675,211.864 355.675,208.031 357.5,203.5C 360.34,200.857 363.673,200.024 367.5,201C 371.385,203.725 375.385,206.225 379.5,208.5C 387.425,214.473 395.759,219.973 404.5,225C 407.656,225.603 410.656,225.103 413.5,223.5C 426.323,217.255 438.99,210.755 451.5,204C 441.111,198.154 430.444,192.988 419.5,188.5C 389.33,172.248 358.663,156.748 327.5,142C 321.827,136.75 322.16,132.084 328.5,128C 330.913,127.516 333.246,127.85 335.5,129C 371.399,147.116 407.399,164.949 443.5,182.5C 454.308,188.904 465.641,194.237 477.5,198.5C 483.327,179.185 489.661,160.018 496.5,141C 496.355,140.228 496.022,139.561 495.5,139C 484.432,134.923 473.432,130.757 462.5,126.5C 420.639,110.712 378.639,95.212 336.5,80C 314.907,77.0503 298.074,84.5503 286,102.5C 280.667,110.5 275.333,118.5 270,126.5C 268.348,131.846 269.848,136.013 274.5,139C 296.167,153.333 317.833,167.667 339.5,182C 342.791,185.339 343.457,189.172 341.5,193.5C 338.069,195.388 334.402,195.888 330.5,195C 306.407,179.205 282.574,163.038 259,146.5C 252.103,136.747 251.77,126.747 258,116.5C 265.333,105.833 272.667,95.1667 280,84.5C 298.007,66.3889 319.507,60.2223 344.5,66C 397.244,85.4701 449.911,105.137 502.5,125C 506.408,127.406 509.408,130.572 511.5,134.5 Z"/></g>
<g><path style="opacity:1" fill="#fdcf5a" d="M 166.5,74.5 C 172.452,77.3094 177.452,81.3094 181.5,86.5C 179.261,88.4766 177.927,90.9766 177.5,94C 181.182,104.045 184.682,114.212 188,124.5C 191.12,137.81 189.453,150.477 183,162.5C 151.5,206.667 120,250.833 88.5,295C 84.0633,297.899 79.3967,298.232 74.5,296C 69.1863,287.874 64.5196,279.374 60.5,270.5C 88.0827,231.735 115.916,193.069 144,154.5C 154.727,139.878 158.727,123.545 156,105.5C 153.457,96.7064 150.624,88.0397 147.5,79.5C 152.511,79.6659 157.511,79.4993 162.5,79C 164.07,77.6032 165.404,76.1032 166.5,74.5 Z"/></g>
<g><path style="opacity:1" fill="#fddf76" d="M 147.5,79.5 C 150.624,88.0397 153.457,96.7064 156,105.5C 158.727,123.545 154.727,139.878 144,154.5C 115.916,193.069 88.0827,231.735 60.5,270.5C 46.3466,242.193 32.1799,213.86 18,185.5C 14.702,177.135 13.702,168.468 15,159.5C 17.465,151.105 20.1316,142.772 23,134.5C 29.2719,118.562 40.7719,108.729 57.5,105C 68.1615,104.5 78.8281,104.333 89.5,104.5C 83.1684,143.157 76.835,181.823 70.5,220.5C 71.7418,229.898 76.2418,231.898 84,226.5C 90.9888,187.567 97.6555,148.567 104,109.5C 109.342,86.5576 123.842,76.5576 147.5,79.5 Z"/></g>
<g><path style="opacity:0.999" fill="#fddf76" d="M 462.5,126.5 C 456.167,145.167 449.833,163.833 443.5,182.5C 407.399,164.949 371.399,147.116 335.5,129C 333.246,127.85 330.913,127.516 328.5,128C 322.16,132.084 321.827,136.75 327.5,142C 358.663,156.748 389.33,172.248 419.5,188.5C 406.167,195.167 392.833,201.833 379.5,208.5C 375.385,206.225 371.385,203.725 367.5,201C 363.673,200.024 360.34,200.857 357.5,203.5C 352.167,200.167 346.833,196.833 341.5,193.5C 343.457,189.172 342.791,185.339 339.5,182C 317.833,167.667 296.167,153.333 274.5,139C 269.848,136.013 268.348,131.846 270,126.5C 275.333,118.5 280.667,110.5 286,102.5C 298.074,84.5503 314.907,77.0503 336.5,80C 378.639,95.212 420.639,110.712 462.5,126.5 Z"/></g>
<g><path style="opacity:1" fill="#fdd05a" d="M 462.5,126.5 C 473.432,130.757 484.432,134.923 495.5,139C 496.022,139.561 496.355,140.228 496.5,141C 489.661,160.018 483.327,179.185 477.5,198.5C 465.641,194.237 454.308,188.904 443.5,182.5C 449.833,163.833 456.167,145.167 462.5,126.5 Z"/></g>
<g><path style="opacity:1" fill="#fbcd59" d="M 419.5,188.5 C 430.444,192.988 441.111,198.154 451.5,204C 438.99,210.755 426.323,217.255 413.5,223.5C 410.656,225.103 407.656,225.603 404.5,225C 395.759,219.973 387.425,214.473 379.5,208.5C 392.833,201.833 406.167,195.167 419.5,188.5 Z"/></g>
<g><path style="opacity:0.96" fill="#010100" d="M 163.5,281.5 C 167.293,285.967 167.46,290.634 164,295.5C 152,313.5 140,331.5 128,349.5C 126.052,356.865 127.885,363.032 133.5,368C 168.065,385.449 202.732,402.616 237.5,419.5C 244.827,423.83 252.494,427.664 260.5,431C 269.5,431.667 278.5,431.667 287.5,431C 295.192,427.977 300.025,422.477 302,414.5C 302.667,400.833 302.667,387.167 302,373.5C 301.25,372.874 300.416,372.374 299.5,372C 289.506,371.5 279.506,371.334 269.5,371.5C 248.497,371.667 227.497,371.5 206.5,371C 203.634,369.607 202.301,367.274 202.5,364C 202.283,360.765 203.617,358.432 206.5,357C 227.497,356.5 248.497,356.333 269.5,356.5C 274.179,356.666 278.845,356.499 283.5,356C 292.833,349.667 302.167,343.333 311.5,337C 330.067,319.964 336.567,299.131 331,274.5C 325.582,257.815 316.749,243.315 304.5,231C 298.394,226.778 291.727,223.945 284.5,222.5C 270.339,221.339 256.006,221.173 241.5,222C 225.731,225.051 212.064,232.051 200.5,243C 194.118,250.38 188.118,258.047 182.5,266C 179.445,266.634 176.445,266.468 173.5,265.5C 169.744,261.751 169.578,257.751 173,253.5C 193.95,220.187 224.284,204.187 264,205.5C 295.593,203.291 318.927,215.958 334,243.5C 337.845,251.346 341.512,259.346 345,267.5C 354.416,306.647 342.249,336.981 308.5,358.5C 312.561,361.618 315.394,365.618 317,370.5C 317.667,386.5 317.667,402.5 317,418.5C 310.343,438.967 296.177,448.633 274.5,447.5C 264.711,447.924 255.377,446.091 246.5,442C 207.167,422.333 167.833,402.667 128.5,383C 112.37,372.609 107.87,358.442 115,340.5C 127.915,321.672 140.581,302.672 153,283.5C 156.106,280.681 159.606,280.014 163.5,281.5 Z"/></g>
<g><path style="opacity:1" fill="#fee076" d="M 284.5,222.5 C 289.262,232.36 293.762,242.36 298,252.5C 304.347,281.124 296.514,304.957 274.5,324C 266.913,329.043 259.413,334.21 252,339.5C 251.28,341.112 251.446,342.612 252.5,344C 260.102,343.049 265.602,345.882 269,352.5C 269.49,353.793 269.657,355.127 269.5,356.5C 248.497,356.333 227.497,356.5 206.5,357C 203.617,358.432 202.283,360.765 202.5,364C 202.301,367.274 203.634,369.607 206.5,371C 227.497,371.5 248.497,371.667 269.5,371.5C 269.666,379.84 269.5,388.173 269,396.5C 263.973,411.602 253.473,419.269 237.5,419.5C 202.732,402.616 168.065,385.449 133.5,368C 127.885,363.032 126.052,356.865 128,349.5C 140,331.5 152,313.5 164,295.5C 167.46,290.634 167.293,285.967 163.5,281.5C 167.256,276.415 170.589,271.082 173.5,265.5C 176.445,266.468 179.445,266.634 182.5,266C 188.118,258.047 194.118,250.38 200.5,243C 212.064,232.051 225.731,225.051 241.5,222C 256.006,221.173 270.339,221.339 284.5,222.5 Z"/></g>
<g><path style="opacity:1" fill="#fdcf5a" d="M 284.5,222.5 C 291.727,223.945 298.394,226.778 304.5,231C 316.749,243.315 325.582,257.815 331,274.5C 336.567,299.131 330.067,319.964 311.5,337C 302.167,343.333 292.833,349.667 283.5,356C 278.845,356.499 274.179,356.666 269.5,356.5C 269.657,355.127 269.49,353.793 269,352.5C 265.602,345.882 260.102,343.049 252.5,344C 251.446,342.612 251.28,341.112 252,339.5C 259.413,334.21 266.913,329.043 274.5,324C 296.514,304.957 304.347,281.124 298,252.5C 293.762,242.36 289.262,232.36 284.5,222.5 Z"/></g>
<g><path style="opacity:1" fill="#fcce5a" d="M 269.5,371.5 C 279.506,371.334 289.506,371.5 299.5,372C 300.416,372.374 301.25,372.874 302,373.5C 302.667,387.167 302.667,400.833 302,414.5C 300.025,422.477 295.192,427.977 287.5,431C 278.5,431.667 269.5,431.667 260.5,431C 252.494,427.664 244.827,423.83 237.5,419.5C 253.473,419.269 263.973,411.602 269,396.5C 269.5,388.173 269.666,379.84 269.5,371.5 Z"/></g>
</svg>
