<?xml version="1.0" encoding="UTF-8"?>
<!DOCTYPE svg PUBLIC "-//W3C//DTD SVG 1.1//EN" "http://www.w3.org/Graphics/SVG/1.1/DTD/svg11.dtd">
<svg xmlns="http://www.w3.org/2000/svg" version="1.1" width="512px" height="512px" style="shape-rendering:geometricPrecision; text-rendering:geometricPrecision; image-rendering:optimizeQuality; fill-rule:evenodd; clip-rule:evenodd" xmlns:xlink="http://www.w3.org/1999/xlink">
<g><path style="opacity:0.979" fill="#020101" d="M 458.5,330.5 C 455.66,329.314 453.494,327.314 452,324.5C 453.077,300.993 444.244,282.326 425.5,268.5C 424.35,267.15 423.683,267.316 423.5,269C 425.771,288.79 417.438,301.79 398.5,308C 377.12,310.564 363.954,301.398 359,280.5C 358.543,276.118 358.543,271.784 359,267.5C 329.606,289.72 323.272,317.386 340,350.5C 343.999,356.998 349.165,362.331 355.5,366.5C 369.279,377.361 384.946,381.194 402.5,378C 419.644,374.263 433.31,365.263 443.5,351C 446.192,350.57 448.859,350.737 451.5,351.5C 454.303,354.204 455.137,357.537 454,361.5C 449.876,367.958 444.71,373.458 438.5,378C 459.5,378.333 480.5,378.667 501.5,379C 506.255,380.261 509.588,383.095 511.5,387.5C 511.5,392.5 511.5,397.5 511.5,402.5C 506.054,420.44 494.054,431.273 475.5,435C 328.833,435.667 182.167,435.667 35.5,435C 16.9462,431.273 4.9462,420.44 -0.5,402.5C -0.5,397.5 -0.5,392.5 -0.5,387.5C 1.41184,383.095 4.74518,380.261 9.5,379C 30.5,378.667 51.5,378.333 72.5,378C 46.7806,355.986 38.2806,328.486 47,295.5C 58.2222,265.052 79.8889,247.385 112,242.5C 111.069,233.131 111.736,223.798 114,214.5C 115.945,210.61 119.112,208.943 123.5,209.5C 125.103,210.596 126.603,211.93 128,213.5C 127.577,223.482 127.577,233.482 128,243.5C 151.513,246.831 170.013,258.165 183.5,277.5C 184.051,280.267 185.384,282.6 187.5,284.5C 190.164,280.508 192.83,276.508 195.5,272.5C 201.22,265.447 207.887,259.447 215.5,254.5C 225.298,248.456 235.965,244.789 247.5,243.5C 250.26,218.371 241.594,198.371 221.5,183.5C 220.698,182.115 220.031,182.282 219.5,184C 221.776,203.778 213.443,216.778 194.5,223C 175.835,225.419 163.002,217.919 156,200.5C 154.593,194.472 154.26,188.472 155,182.5C 150.584,184.912 146.751,188.078 143.5,192C 140.112,192.659 136.779,192.492 133.5,191.5C 131.537,188.482 131.037,185.149 132,181.5C 144.926,168.203 160.593,160.203 179,157.5C 179.967,112.359 202.467,85.1919 246.5,76C 290.29,74.2991 318.124,94.4658 330,136.5C 331.064,143.458 331.731,150.458 332,157.5C 370.118,164.618 392.451,187.285 399,225.5C 399.806,231.084 399.639,236.584 398.5,242C 437.333,248.833 460.167,271.667 467,310.5C 467.667,315.167 467.667,319.833 467,324.5C 465.403,328.265 462.57,330.265 458.5,330.5 Z M 186.5,353.5 C 190.202,357.852 193.702,362.518 197,367.5C 200.534,371.369 204.367,374.869 208.5,378C 194.5,378.667 180.5,378.667 166.5,378C 175.614,371.73 182.28,363.564 186.5,353.5 Z M 322.5,353.5 C 326.113,357.343 329.28,361.677 332,366.5C 335.867,370.702 340.033,374.535 344.5,378C 330.5,378.667 316.5,378.667 302.5,378C 311.436,371.595 318.103,363.428 322.5,353.5 Z"/></g>
<g><path style="opacity:1" fill="#facea1" d="M 249.5,91.5 C 259.422,89.5469 266.922,92.8802 272,101.5C 275.242,111.518 272.409,119.351 263.5,125C 246.368,128.866 237.868,122.033 238,104.5C 240.273,98.7304 244.106,94.397 249.5,91.5 Z"/></g>
<g><path style="opacity:1" fill="#d68854" d="M 293.5,104.5 C 300.445,140.432 288.111,167.265 256.5,185C 253.647,186.43 250.647,187.263 247.5,187.5C 234.342,170.582 217.009,160.916 195.5,158.5C 193.663,133.845 202.83,114.511 223,100.5C 220.601,124.429 231.268,138.095 255,141.5C 279.282,138.549 290.282,124.882 288,100.5C 289.992,101.665 291.825,102.998 293.5,104.5 Z"/></g>
<g><path style="opacity:1" fill="#c27843" d="M 293.5,104.5 C 310.197,118.576 317.53,136.576 315.5,158.5C 288.715,162.227 268.715,175.893 255.5,199.5C 252.823,195.471 250.156,191.471 247.5,187.5C 250.647,187.263 253.647,186.43 256.5,185C 288.111,167.265 300.445,140.432 293.5,104.5 Z"/></g>
<g><path style="opacity:1" fill="#c17742" d="M 183.5,172.5 C 196.014,172.36 203.348,178.36 205.5,190.5C 202.804,205.35 194.137,210.85 179.5,207C 170.72,201.328 167.887,193.495 171,183.5C 174.124,178.536 178.291,174.87 183.5,172.5 Z"/></g>
<g><path style="opacity:1" fill="#6e4343" d="M 317.5,173.5 C 331.105,171.457 339.105,177.124 341.5,190.5C 338.857,205.328 330.19,210.828 315.5,207C 306.72,201.328 303.887,193.495 307,183.5C 309.738,179.26 313.238,175.926 317.5,173.5 Z"/></g>
<g><path style="opacity:0.999" fill="#fcd0a2" d="M 221.5,183.5 C 232.44,208.23 230.44,231.897 215.5,254.5C 207.887,259.447 201.22,265.447 195.5,272.5C 191.495,274.168 187.495,275.835 183.5,277.5C 170.013,258.165 151.513,246.831 128,243.5C 127.577,233.482 127.577,223.482 128,213.5C 126.603,211.93 125.103,210.596 123.5,209.5C 125.823,202.847 129.156,196.847 133.5,191.5C 136.779,192.492 140.112,192.659 143.5,192C 146.751,188.078 150.584,184.912 155,182.5C 154.26,188.472 154.593,194.472 156,200.5C 163.002,217.919 175.835,225.419 194.5,223C 213.443,216.778 221.776,203.778 219.5,184C 220.031,182.282 220.698,182.115 221.5,183.5 Z"/></g>
<g><path style="opacity:1" fill="#995d5d" d="M 357.5,183.5 C 365.855,201.059 366.689,219.059 360,237.5C 357.667,243.499 354.834,249.165 351.5,254.5C 339.76,262.24 330.427,272.24 323.5,284.5C 310.46,261.057 290.627,247.39 264,243.5C 260.639,217.547 269.639,197.214 291,182.5C 288.365,202.532 296.531,216.032 315.5,223C 340.094,225.242 353.761,214.075 356.5,189.5C 356.428,187.44 356.095,185.44 355.5,183.5C 355.97,182.537 356.637,182.537 357.5,183.5 Z"/></g>
<g><path style="opacity:1" fill="#fbba84" d="M 221.5,183.5 C 241.594,198.371 250.26,218.371 247.5,243.5C 235.965,244.789 225.298,248.456 215.5,254.5C 230.44,231.897 232.44,208.23 221.5,183.5 Z"/></g>
<g><path style="opacity:1" fill="#835050" d="M 357.5,183.5 C 377.599,198.38 386.266,218.38 383.5,243.5C 371.965,244.789 361.298,248.456 351.5,254.5C 354.834,249.165 357.667,243.499 360,237.5C 366.689,219.059 365.855,201.059 357.5,183.5 Z"/></g>
<g><path style="opacity:1" fill="#6e4343" d="M 113.5,258.5 C 127.123,256.48 135.123,262.147 137.5,275.5C 135.565,289.598 127.565,295.431 113.5,293C 101.542,286.597 98.7083,277.43 105,265.5C 107.441,262.546 110.275,260.213 113.5,258.5 Z"/></g>
<g><path style="opacity:1" fill="#fbba84" d="M 249.5,258.5 C 265.666,257.171 273.5,264.504 273,280.5C 267.339,293.055 258.173,296.555 245.5,291C 233.837,278.474 235.17,267.641 249.5,258.5 Z"/></g>
<g><path style="opacity:1" fill="#c17842" d="M 385.5,258.5 C 399.123,256.48 407.123,262.147 409.5,275.5C 406.422,291.873 397.089,297.04 381.5,291C 373.866,285.095 371.699,277.595 375,268.5C 377.738,264.26 381.238,260.926 385.5,258.5 Z"/></g>
<g><path style="opacity:1" fill="#ac6b6b" d="M 153.5,268.5 C 166.43,299.203 161.097,326.37 137.5,350C 121.689,362.435 103.689,367.935 83.5,366.5C 74.8852,360.3 68.3852,352.3 64,342.5C 53.1674,311.673 60.8341,286.673 87,267.5C 84.3527,286.04 91.5194,299.207 108.5,307C 131.959,311.86 146.459,302.693 152,279.5C 152.76,275.775 152.593,272.108 151.5,268.5C 151.97,267.537 152.637,267.537 153.5,268.5 Z"/></g>
<g><path style="opacity:1" fill="#fcd0a3" d="M 425.5,268.5 C 438.683,301.436 432.016,329.603 405.5,353C 390.458,363.377 373.792,367.877 355.5,366.5C 349.165,362.331 343.999,356.998 340,350.5C 323.272,317.386 329.606,289.72 359,267.5C 358.543,271.784 358.543,276.118 359,280.5C 363.954,301.398 377.12,310.564 398.5,308C 417.438,301.79 425.771,288.79 423.5,269C 423.683,267.316 424.35,267.15 425.5,268.5 Z"/></g>
<g><path style="opacity:1" fill="#d68954" d="M 289.5,268.5 C 302.882,301.471 296.215,329.637 269.5,353C 254.232,364.234 237.232,368.4 218.5,365.5C 206.237,356.674 198.737,344.674 196,329.5C 192.464,303.25 201.464,282.583 223,267.5C 220.358,286.052 227.525,299.219 244.5,307C 267.398,311.806 281.898,302.973 288,280.5C 288.767,276.442 288.6,272.442 287.5,268.5C 287.97,267.537 288.637,267.537 289.5,268.5 Z"/></g>
<g><path style="opacity:1" fill="#845050" d="M 153.5,268.5 C 178.546,287.819 185.713,312.485 175,342.5C 160.905,369.967 138.405,381.8 107.5,378C 98.5043,376 90.5043,372.167 83.5,366.5C 103.689,367.935 121.689,362.435 137.5,350C 161.097,326.37 166.43,299.203 153.5,268.5 Z"/></g>
<g><path style="opacity:1" fill="#c37843" d="M 289.5,268.5 C 311.757,285.09 319.924,307.09 314,334.5C 300.904,368.971 276.071,383.138 239.5,377C 231.539,374.691 224.539,370.857 218.5,365.5C 237.232,368.4 254.232,364.234 269.5,353C 296.215,329.637 302.882,301.471 289.5,268.5 Z"/></g>
<g><path style="opacity:1" fill="#fdbb85" d="M 425.5,268.5 C 444.244,282.326 453.077,300.993 452,324.5C 453.494,327.314 455.66,329.314 458.5,330.5C 457.562,337.982 455.228,344.982 451.5,351.5C 448.859,350.737 446.192,350.57 443.5,351C 433.31,365.263 419.644,374.263 402.5,378C 384.946,381.194 369.279,377.361 355.5,366.5C 373.792,367.877 390.458,363.377 405.5,353C 432.016,329.603 438.683,301.436 425.5,268.5 Z"/></g>
<g><path style="opacity:1" fill="#f2b480" d="M 195.5,272.5 C 192.83,276.508 190.164,280.508 187.5,284.5C 185.384,282.6 184.051,280.267 183.5,277.5C 187.495,275.835 191.495,274.168 195.5,272.5 Z"/></g>
<g><path style="opacity:1" fill="#98e5fb" d="M 14.5,394.5 C 164.835,394.167 315.168,394.5 465.5,395.5C 459.992,401.923 452.992,405.757 444.5,407C 302.834,407.5 161.167,407.667 19.5,407.5C 16.4849,403.804 14.8182,399.47 14.5,394.5 Z"/></g>
<g><path style="opacity:1" fill="#5eccea" d="M 14.5,394.5 C 174.999,393.5 335.666,393.167 496.5,393.5C 495.109,407.727 487.443,416.561 473.5,420C 328.167,420.667 182.833,420.667 37.5,420C 29.4854,418.511 23.4854,414.345 19.5,407.5C 161.167,407.667 302.834,407.5 444.5,407C 452.992,405.757 459.992,401.923 465.5,395.5C 315.168,394.5 164.835,394.167 14.5,394.5 Z"/></g>
</svg>
