<?xml version="1.0" encoding="UTF-8"?>
<!DOCTYPE svg PUBLIC "-//W3C//DTD SVG 1.1//EN" "http://www.w3.org/Graphics/SVG/1.1/DTD/svg11.dtd">
<svg xmlns="http://www.w3.org/2000/svg" version="1.1" width="512px" height="512px" style="shape-rendering:geometricPrecision; text-rendering:geometricPrecision; image-rendering:optimizeQuality; fill-rule:evenodd; clip-rule:evenodd" xmlns:xlink="http://www.w3.org/1999/xlink">
<g><path style="opacity:0.988" fill="#020201" d="M 119.5,7.5 C 236.833,7.5 354.167,7.5 471.5,7.5C 471.5,12.8333 471.5,18.1667 471.5,23.5C 414.166,23.3333 356.832,23.5 299.5,24C 296.333,27.1667 293.167,30.3333 290,33.5C 288.872,35.3453 288.372,37.3453 288.5,39.5C 349.5,39.5 410.5,39.5 471.5,39.5C 471.5,44.8333 471.5,50.1667 471.5,55.5C 411.832,55.3333 352.166,55.5 292.5,56C 304.204,66.9585 306.704,79.7919 300,94.5C 296.333,98.8333 292.667,103.167 289,107.5C 288.333,110.167 288.333,112.833 289,115.5C 292.667,119.833 296.333,124.167 300,128.5C 307.379,144.785 304.045,158.452 290,169.5C 288.399,172.094 288.233,174.761 289.5,177.5C 322.077,180.649 353.743,187.815 384.5,199C 396.792,204.056 407.625,211.222 417,220.5C 419.878,224.049 421.878,228.049 423,232.5C 423.909,257.526 423.575,282.526 422,307.5C 410.737,372.912 375.903,421.079 317.5,452C 312.913,454.13 308.247,455.963 303.5,457.5C 303.667,471.504 303.5,485.504 303,499.5C 302.626,500.416 302.126,501.25 301.5,502C 278.252,503.157 254.919,503.657 231.5,503.5C 208.081,503.657 184.748,503.157 161.5,502C 160.874,501.25 160.374,500.416 160,499.5C 159.5,485.504 159.333,471.504 159.5,457.5C 99.0956,431.915 60.5956,387.248 44,323.5C 42.1254,315.252 40.792,306.919 40,298.5C 39.3333,276.5 39.3333,254.5 40,232.5C 43.8859,221.941 50.7193,213.774 60.5,208C 76.484,198.845 93.484,192.178 111.5,188C 124.735,184.919 138.069,182.419 151.5,180.5C 149.973,167.552 154.473,157.219 165,149.5C 167,145.5 167,141.5 165,137.5C 150.139,125.037 147.472,110.371 157,93.5C 159.667,90.8333 162.333,88.1667 165,85.5C 166.483,82.2976 166.817,78.9643 166,75.5C 162.333,71.1667 158.667,66.8333 155,62.5C 154.069,60.5405 153.236,58.5405 152.5,56.5C 141.52,55.5012 130.52,55.1679 119.5,55.5C 119.5,50.1667 119.5,44.8333 119.5,39.5C 130.167,39.5 140.833,39.5 151.5,39.5C 150.895,33.8175 152.229,28.6508 155.5,24C 143.505,23.5001 131.505,23.3335 119.5,23.5C 119.5,18.1667 119.5,12.8333 119.5,7.5 Z"/></g>
<g><path style="opacity:1" fill="#eac960" d="M 178.5,23.5 C 184.509,23.3338 190.509,23.5005 196.5,24C 193.125,28.6239 191.459,33.7906 191.5,39.5C 183.5,39.5 175.5,39.5 167.5,39.5C 167.372,37.3453 167.872,35.3453 169,33.5C 172.371,30.2975 175.538,26.9641 178.5,23.5 Z"/></g>
<g><path style="opacity:1" fill="#eac960" d="M 218.5,23.5 C 224.509,23.3338 230.509,23.5005 236.5,24C 233.125,28.6239 231.459,33.7906 231.5,39.5C 223.5,39.5 215.5,39.5 207.5,39.5C 207.372,37.3453 207.872,35.3453 209,33.5C 212.371,30.2975 215.538,26.9641 218.5,23.5 Z"/></g>
<g><path style="opacity:1" fill="#eac960" d="M 258.5,23.5 C 264.509,23.3338 270.509,23.5005 276.5,24C 273.125,28.6239 271.459,33.7906 271.5,39.5C 263.5,39.5 255.5,39.5 247.5,39.5C 247.372,37.3453 247.872,35.3453 249,33.5C 252.371,30.2975 255.538,26.9641 258.5,23.5 Z"/></g>
<g><path style="opacity:1" fill="#eac85f" d="M 171.5,56.5 C 178.648,55.5084 185.981,55.175 193.5,55.5C 195.43,62.9503 199.597,68.9503 206,73.5C 207.913,77.4708 207.913,81.4708 206,85.5C 186.877,102.77 186.877,120.103 206,137.5C 207.913,141.471 207.913,145.471 206,149.5C 186.877,166.77 186.877,184.103 206,201.5C 207.913,205.471 207.913,209.471 206,213.5C 195.284,221.591 190.618,232.258 192,245.5C 193.139,248.583 194.472,251.583 196,254.5C 199.667,258.833 203.333,263.167 207,267.5C 207.5,273.825 207.666,280.158 207.5,286.5C 199.471,286.656 191.471,286.323 183.5,285.5C 186.673,269.18 181.84,255.847 169,245.5C 167.087,241.471 167.087,237.471 169,233.5C 188.277,216.135 188.277,198.801 169,181.5C 167.087,177.471 167.087,173.471 169,169.5C 188.277,152.135 188.277,134.801 169,117.5C 167.087,113.471 167.087,109.471 169,105.5C 183.284,94.3449 186.618,80.6783 179,64.5C 177,61.3343 174.5,58.6676 171.5,56.5 Z"/></g>
<g><path style="opacity:1" fill="#eac85f" d="M 211.5,56.5 C 218.648,55.5084 225.981,55.175 233.5,55.5C 235.43,62.9503 239.597,68.9503 246,73.5C 247.913,77.4708 247.913,81.4708 246,85.5C 226.877,102.77 226.877,120.103 246,137.5C 247.913,141.471 247.913,145.471 246,149.5C 226.877,166.77 226.877,184.103 246,201.5C 247.913,205.471 247.913,209.471 246,213.5C 235.284,221.591 230.618,232.258 232,245.5C 233.139,248.583 234.472,251.583 236,254.5C 239.667,258.833 243.333,263.167 247,267.5C 247.5,274.158 247.666,280.825 247.5,287.5C 239.5,287.5 231.5,287.5 223.5,287.5C 227.102,270.47 222.269,256.47 209,245.5C 207.087,241.471 207.087,237.471 209,233.5C 228.277,216.135 228.277,198.801 209,181.5C 207.087,177.471 207.087,173.471 209,169.5C 228.277,152.135 228.277,134.801 209,117.5C 207.087,113.471 207.087,109.471 209,105.5C 223.284,94.3449 226.618,80.6783 219,64.5C 217,61.3343 214.5,58.6676 211.5,56.5 Z"/></g>
<g><path style="opacity:1" fill="#e9c85f" d="M 251.5,56.5 C 258.648,55.5084 265.981,55.175 273.5,55.5C 275.43,62.9503 279.597,68.9503 286,73.5C 287.913,77.4708 287.913,81.4708 286,85.5C 266.877,102.77 266.877,120.103 286,137.5C 287.913,141.471 287.913,145.471 286,149.5C 266.877,166.77 266.877,184.103 286,201.5C 287.913,205.471 287.913,209.471 286,213.5C 275.284,221.591 270.618,232.258 272,245.5C 273.139,248.583 274.472,251.583 276,254.5C 279.667,258.833 283.333,263.167 287,267.5C 287.499,273.491 287.666,279.491 287.5,285.5C 279.505,285.935 271.505,286.269 263.5,286.5C 266.888,269.825 262.054,256.158 249,245.5C 247.087,241.471 247.087,237.471 249,233.5C 268.277,216.135 268.277,198.801 249,181.5C 247.087,177.471 247.087,173.471 249,169.5C 268.277,152.135 268.277,134.801 249,117.5C 247.087,113.471 247.087,109.471 249,105.5C 263.284,94.3449 266.618,80.6783 259,64.5C 257,61.3343 254.5,58.6676 251.5,56.5 Z"/></g>
<g><path style="opacity:0.951" fill="#000000" d="M 54.5,71.5 C 67.9083,69.1148 77.075,74.1148 82,86.5C 85.1218,95.9707 86.7884,105.637 87,115.5C 86.6258,116.416 86.1258,117.25 85.5,118C 81.9613,119.504 78.2946,119.837 74.5,119C 67.8333,117.333 61.1667,115.667 54.5,114C 41.9545,109.082 37.1212,99.9154 40,86.5C 42.3509,78.9841 47.1842,73.9841 54.5,71.5 Z"/></g>
<g><path style="opacity:0.951" fill="#000000" d="M 395.5,71.5 C 417.826,70.325 426.66,80.6583 422,102.5C 419.833,107.333 416.333,110.833 411.5,113C 401.077,116.609 390.411,118.609 379.5,119C 376.334,117.334 375,114.668 375.5,111C 377.114,101.71 379.281,92.5431 382,83.5C 384.85,77.5144 389.35,73.5144 395.5,71.5 Z"/></g>
<g><path style="opacity:1" fill="#afd5e7" d="M 58.5,87.5 C 61.6516,86.9586 64.1516,87.9586 66,90.5C 67.1503,93.7679 67.9836,97.1012 68.5,100.5C 63.7054,100.266 59.5387,98.5997 56,95.5C 55.0182,92.2253 55.8515,89.5586 58.5,87.5 Z"/></g>
<g><path style="opacity:1" fill="#b0d6e9" d="M 399.5,87.5 C 407.818,87.9869 409.485,91.4869 404.5,98C 401.51,98.8974 398.51,99.7308 395.5,100.5C 394.805,95.6288 396.138,91.2955 399.5,87.5 Z"/></g>
<g><path style="opacity:0.951" fill="#000000" d="M 98.5,135.5 C 109.33,133.496 113.497,137.83 111,148.5C 109.131,156.978 106.798,165.311 104,173.5C 97.7577,182.363 89.2577,185.529 78.5,183C 65.9545,178.082 61.1212,168.915 64,155.5C 65.6748,149.159 69.5082,144.659 75.5,142C 83.3287,139.963 90.9954,137.797 98.5,135.5 Z"/></g>
<g><path style="opacity:0.947" fill="#010101" d="M 355.5,135.5 C 368.01,136.127 380.01,138.961 391.5,144C 403.5,156 403.5,168 391.5,180C 375.571,187.777 364.071,183.611 357,167.5C 354.201,158.65 352.534,149.65 352,140.5C 352.997,138.677 354.164,137.01 355.5,135.5 Z"/></g>
<g><path style="opacity:1" fill="#afd4e7" d="M 89.5,154.5 C 90.675,154.281 91.675,154.614 92.5,155.5C 92.0835,159.929 90.4168,163.762 87.5,167C 81.6667,167.833 79.1667,165.333 80,159.5C 82.7931,156.97 85.9598,155.303 89.5,154.5 Z"/></g>
<g><path style="opacity:1" fill="#b3d9ec" d="M 371.5,155.5 C 375.007,155.307 378.34,155.973 381.5,157.5C 383.65,159.922 383.983,162.589 382.5,165.5C 380.004,167.953 377.338,168.12 374.5,166C 372.958,162.666 371.958,159.166 371.5,155.5 Z"/></g>
<g><path style="opacity:1" fill="#b9e0f4" d="M 150.5,196.5 C 157.948,194.64 163.448,196.973 167,203.5C 168.346,210.125 166.18,215.291 160.5,219C 135.766,221.601 111.432,226.267 87.5,233C 77.4632,236.291 67.7965,240.457 58.5,245.5C 55.8615,242.707 55.0282,239.374 56,235.5C 59.5,230 64,225.5 69.5,222C 95.1848,209.001 122.185,200.501 150.5,196.5 Z"/></g>
<g><path style="opacity:1" fill="#b8e0f3" d="M 301.5,196.5 C 333.843,199.085 364.509,207.585 393.5,222C 400.561,225.554 405.228,231.054 407.5,238.5C 407.452,241.329 406.452,243.663 404.5,245.5C 392.669,239.39 380.336,234.556 367.5,231C 345.796,225.352 323.796,221.519 301.5,219.5C 304.11,211.838 304.11,204.171 301.5,196.5 Z"/></g>
<g><path style="opacity:1" fill="#e1f1f9" d="M 288.5,234.5 C 324.52,235.937 359.186,243.437 392.5,257C 379.244,264.421 365.244,270.088 350.5,274C 334.993,277.715 319.326,280.549 303.5,282.5C 305.897,267.3 301.064,254.966 289,245.5C 287.282,241.877 287.116,238.211 288.5,234.5 Z"/></g>
<g><path style="opacity:1" fill="#dff0f8" d="M 142.5,236.5 C 145.5,236.5 148.5,236.5 151.5,236.5C 151.343,244.198 153.51,251.198 158,257.5C 161.37,260.535 164.37,263.868 167,267.5C 167.499,272.823 167.666,278.156 167.5,283.5C 139.292,281.298 111.959,275.131 85.5,265C 80.5076,262.839 75.8409,260.172 71.5,257C 94.4201,247.184 118.087,240.351 142.5,236.5 Z"/></g>
<g><path style="opacity:1" fill="#cacbc9" d="M 55.5,266.5 C 77.5456,280.465 101.546,289.631 127.5,294C 199.299,307.234 270.966,306.567 342.5,292C 361.677,288.052 380.01,281.719 397.5,273C 400.927,271.204 404.094,269.037 407,266.5C 409.227,338.558 380.06,393.725 319.5,432C 264.643,461.351 208.977,463.018 152.5,437C 86.1727,399.879 53.8394,343.045 55.5,266.5 Z"/></g>
<g><path style="opacity:1" fill="#cacbc9" d="M 190.5,467.5 C 193.626,471.238 197.626,473.738 202.5,475C 230.831,475.5 259.165,475.667 287.5,475.5C 287.5,479.5 287.5,483.5 287.5,487.5C 250.167,487.5 212.833,487.5 175.5,487.5C 175.5,479.5 175.5,471.5 175.5,463.5C 180.629,464.697 185.629,466.031 190.5,467.5 Z"/></g>
<g><path style="opacity:1" fill="#d7d7d6" d="M 287.5,475.5 C 259.165,475.667 230.831,475.5 202.5,475C 197.626,473.738 193.626,471.238 190.5,467.5C 223.137,473.52 255.47,472.187 287.5,463.5C 287.5,467.5 287.5,471.5 287.5,475.5 Z"/></g>
</svg>
