<?xml version="1.0" encoding="UTF-8"?>
<!DOCTYPE svg PUBLIC "-//W3C//DTD SVG 1.1//EN" "http://www.w3.org/Graphics/SVG/1.1/DTD/svg11.dtd">
<svg xmlns="http://www.w3.org/2000/svg" version="1.1" width="512px" height="512px" style="shape-rendering:geometricPrecision; text-rendering:geometricPrecision; image-rendering:optimizeQuality; fill-rule:evenodd; clip-rule:evenodd" xmlns:xlink="http://www.w3.org/1999/xlink">
<g><path style="opacity:0.979" fill="#020201" d="M 88.5,7.5 C 99.7184,5.40431 108.885,8.73764 116,17.5C 158.784,99.5705 201.951,181.404 245.5,263C 267.347,261.643 288.18,265.476 308,274.5C 335.416,249.355 367.25,241.521 403.5,251C 431.896,260.064 452.062,278.231 464,305.5C 473.54,310.019 482.706,315.186 491.5,321C 496.875,325.039 500.709,330.206 503,336.5C 503.818,407.398 472.651,458.564 409.5,490C 394.184,496.829 378.184,501.162 361.5,503C 288.473,503.978 215.473,503.645 142.5,502C 91.5071,492.78 53.0071,465.946 27,421.5C 12.2979,395.026 5.96457,366.693 8,336.5C 10.2913,330.206 14.1246,325.039 19.5,321C 35.1485,310.679 52.1485,303.346 70.5,299C 82.4071,286.878 96.4071,278.045 112.5,272.5C 78.5563,205.948 44.0563,139.615 9,73.5C 4.0084,57.6492 9.17507,46.4825 24.5,40C 35.719,37.4057 44.8856,40.5724 52,49.5C 89.5882,120.342 126.922,191.342 164,262.5C 173.131,263.947 182.298,265.114 191.5,266C 151.873,191.246 112.373,116.412 73,41.5C 68.111,25.6099 73.2777,14.2766 88.5,7.5 Z"/></g>
<g><path style="opacity:0.932" fill="#000000" d="M 254.5,7.5 C 275.815,4.5723 291.315,12.5723 301,31.5C 308.484,55.4073 301.317,73.2406 279.5,85C 274.344,86.9618 269.011,87.7951 263.5,87.5C 263.5,81.8333 263.5,76.1667 263.5,70.5C 280.522,68.3036 288.022,58.6369 286,41.5C 278.786,24.983 266.953,20.483 250.5,28C 240.92,36.4154 237.754,46.9154 241,59.5C 242.618,67.7308 245.618,75.3974 250,82.5C 259.333,93.8333 268.667,105.167 278,116.5C 292.651,137.111 300.984,160.111 303,185.5C 303.5,198.162 303.667,210.829 303.5,223.5C 298.167,223.5 292.833,223.5 287.5,223.5C 288.601,198.905 285.434,174.905 278,151.5C 274.508,143.847 270.508,136.513 266,129.5C 254.853,116.532 244.186,103.198 234,89.5C 222.533,69.6704 220.533,49.0038 228,27.5C 234.445,17.5404 243.279,10.8737 254.5,7.5 Z"/></g>
<g><path style="opacity:1" fill="#cb9b74" d="M 92.5,23.5 C 96.1916,22.9712 99.3583,23.9712 102,26.5C 143.833,106.167 185.667,185.833 227.5,265.5C 222.391,268.326 217.057,269.659 211.5,269.5C 170.333,191.167 129.167,112.833 88,34.5C 86.7758,29.626 88.2758,25.9593 92.5,23.5 Z"/></g>
<g><path style="opacity:0.927" fill="#000000" d="M 382.5,39.5 C 403.815,36.5723 419.315,44.5723 429,63.5C 434.962,84.6448 430.962,103.645 417,120.5C 403.378,133.795 388.878,145.962 373.5,157C 347.71,178.417 335.377,205.917 336.5,239.5C 330.833,239.5 325.167,239.5 319.5,239.5C 318.241,203.086 330.907,172.586 357.5,148C 372.793,136.431 387.626,124.264 402,111.5C 412.024,100.76 416.024,88.0938 414,73.5C 406.786,56.983 394.953,52.483 378.5,60C 367.836,69.091 365.669,79.9244 372,92.5C 376.821,99.1603 383.321,102.494 391.5,102.5C 391.5,108.167 391.5,113.833 391.5,119.5C 370.737,118.866 357.57,108.533 352,88.5C 349.024,63.7532 359.191,47.4199 382.5,39.5 Z"/></g>
<g><path style="opacity:1" fill="#cb9b73" d="M 28.5,55.5 C 32.1916,54.9712 35.3583,55.9712 38,58.5C 74.1343,127.105 109.968,195.772 145.5,264.5C 141.136,264.906 136.803,265.572 132.5,266.5C 130.626,266.61 129.126,265.944 128,264.5C 93.3333,198.5 58.6667,132.5 24,66.5C 22.7758,61.626 24.2758,57.9593 28.5,55.5 Z"/></g>
<g><path style="opacity:1" fill="#fae5a3" d="M 364.5,263.5 C 410.543,261.751 440.376,282.751 454,326.5C 456.102,340.263 455.602,353.93 452.5,367.5C 445.992,369.934 439.325,371.434 432.5,372C 446.578,337.241 438.245,309.241 407.5,288C 382.878,275.38 359.211,276.88 336.5,292.5C 332.307,289.14 327.974,285.973 323.5,283C 335.443,272.694 349.109,266.194 364.5,263.5 Z"/></g>
<g><path style="opacity:1" fill="#f6d26d" d="M 145.5,279.5 C 170.783,277.379 194.449,282.546 216.5,295C 219.236,296.362 221.569,298.196 223.5,300.5C 218.176,303.162 212.842,305.829 207.5,308.5C 161.819,285.961 121.319,292.961 86,329.5C 76.027,341.113 69.527,354.446 66.5,369.5C 61.4233,368.53 56.59,366.863 52,364.5C 57.3054,339.41 70.1388,318.91 90.5,303C 106.993,290.751 125.326,282.917 145.5,279.5 Z"/></g>
<g><path style="opacity:1" fill="#fae5a3" d="M 242.5,279.5 C 296.745,277.021 335.578,300.021 359,348.5C 364.202,360.306 366.702,372.639 366.5,385.5C 361.518,386.053 356.518,386.387 351.5,386.5C 344.88,335.38 316.213,305.213 265.5,296C 258.167,295.667 250.833,295.333 243.5,295C 238.5,291.167 233.5,287.333 228.5,283.5C 233.161,281.776 237.827,280.443 242.5,279.5 Z"/></g>
<g><path style="opacity:1" fill="#f9d56f" d="M 366.5,295.5 C 395.639,293.803 414.472,306.803 423,334.5C 425.376,352.042 420.209,366.875 407.5,379C 399.216,380.577 390.882,381.744 382.5,382.5C 380.566,352.178 369.233,326.012 348.5,304C 354.16,300.288 360.16,297.455 366.5,295.5 Z"/></g>
<g><path style="opacity:1" fill="#f7d26d" d="M 243.5,311.5 C 286.606,309.115 316.106,327.781 332,367.5C 334.137,374.349 335.303,381.349 335.5,388.5C 330.146,388.569 324.813,388.902 319.5,389.5C 314.783,351.117 293.116,330.451 254.5,327.5C 216.965,331.369 195.965,352.035 191.5,389.5C 186.138,389.528 180.805,389.194 175.5,388.5C 178.293,354.887 194.96,331.053 225.5,317C 231.531,314.832 237.531,312.999 243.5,311.5 Z"/></g>
<g><path style="opacity:1" fill="#f9e4a3" d="M 148.5,311.5 C 150.857,311.337 153.19,311.503 155.5,312C 151.277,317.224 147.444,322.724 144,328.5C 126.164,334.338 112.497,345.338 103,361.5C 100.298,366.563 98.4644,371.897 97.5,377.5C 92.1154,376.756 86.782,375.756 81.5,374.5C 89.1723,345.326 107.172,325.493 135.5,315C 139.999,313.961 144.332,312.794 148.5,311.5 Z"/></g>
<g><path style="opacity:1" fill="#f9e4a3" d="M 174.5,313.5 C 180.754,314.398 186.754,316.232 192.5,319C 172.541,337.085 161.874,359.585 160.5,386.5C 155.13,386.608 149.797,386.275 144.5,385.5C 144.804,365.088 150.638,346.421 162,329.5C 166,324.005 170.166,318.671 174.5,313.5 Z"/></g>
<g><path style="opacity:1" fill="#dee1e5" d="M 50.5,322.5 C 51.0431,322.56 51.3764,322.893 51.5,323.5C 44.5578,334.052 39.2244,345.386 35.5,357.5C 31.5584,355.062 28.0584,352.062 25,348.5C 23.5783,345.97 23.245,343.303 24,340.5C 26.1667,337 29,334.167 32.5,332C 38.4348,328.535 44.4348,325.368 50.5,322.5 Z"/></g>
<g><path style="opacity:1" fill="#dfe2e6" d="M 470.5,327.5 C 492.733,337.547 493.066,348.214 471.5,359.5C 471.733,348.861 471.4,338.195 470.5,327.5 Z"/></g>
<g><path style="opacity:1" fill="#fae5a3" d="M 246.5,343.5 C 279.754,342.1 298.754,357.767 303.5,390.5C 298.167,390.5 292.833,390.5 287.5,390.5C 285.162,370.731 273.995,360.398 254,359.5C 235.594,361.74 225.427,372.073 223.5,390.5C 218.167,390.5 212.833,390.5 207.5,390.5C 209.953,366.049 222.953,350.383 246.5,343.5 Z"/></g>
<g><path style="opacity:1" fill="#f2ce6b" d="M 132.5,351.5 C 133.097,351.735 133.43,352.235 133.5,353C 130.113,362.543 128.446,372.376 128.5,382.5C 122.918,382.79 117.584,381.957 112.5,380C 116.099,368.286 122.766,358.786 132.5,351.5 Z"/></g>
<g><path style="opacity:1" fill="#cacfd7" d="M 25.5,370.5 C 25.56,369.957 25.8933,369.624 26.5,369.5C 38.5135,376.451 51.1801,381.951 64.5,386C 113.342,398.453 163.009,405.453 213.5,407C 268.355,409.008 323.022,406.675 377.5,400C 406.821,396.136 435.488,389.469 463.5,380C 470.288,377.106 476.955,373.94 483.5,370.5C 475.254,414.43 451.588,447.596 412.5,470C 395.165,478.889 376.832,484.556 357.5,487C 289.167,487.667 220.833,487.667 152.5,487C 84.7402,475.735 42.4069,436.902 25.5,370.5 Z"/></g>
<g><path style="opacity:1" fill="#f6d16d" d="M 250.5,375.5 C 262.789,374.142 269.789,379.475 271.5,391.5C 260.833,391.5 250.167,391.5 239.5,391.5C 240.016,383.986 243.683,378.653 250.5,375.5 Z"/></g>
<g><path style="opacity:1" fill="#030303" d="M 442.5,395.5 C 447.465,397.649 452.132,400.316 456.5,403.5C 429.693,449.748 389.359,472.415 335.5,471.5C 335.5,466.167 335.5,460.833 335.5,455.5C 383.267,456.464 418.934,436.464 442.5,395.5 Z"/></g>
<g><path style="opacity:1" fill="#090909" d="M 59.5,401.5 C 64.5303,402.674 69.5303,404.008 74.5,405.5C 73.1788,409.784 72.0122,414.117 71,418.5C 70.6121,419.428 69.9454,420.095 69,420.5C 64.5789,419.359 60.2456,418.026 56,416.5C 56.0198,411.265 57.1865,406.265 59.5,401.5 Z"/></g>
<g><path style="opacity:1" fill="#070808" d="M 89.5,409.5 C 94.5754,409.649 99.5754,410.315 104.5,411.5C 104.113,416.874 103.446,422.207 102.5,427.5C 96.9437,426.801 91.6104,425.468 86.5,423.5C 87.5033,418.826 88.5033,414.16 89.5,409.5 Z"/></g>
<g><path style="opacity:1" fill="#0b0c0c" d="M 120.5,414.5 C 125.793,415.446 131.126,416.113 136.5,416.5C 135.997,421.859 135.33,427.193 134.5,432.5C 129.167,431.833 123.833,431.167 118.5,430.5C 119.037,425.149 119.704,419.816 120.5,414.5 Z"/></g>
<g><path style="opacity:1" fill="#000000" d="M 303.5,455.5 C 308.833,455.5 314.167,455.5 319.5,455.5C 319.5,460.833 319.5,466.167 319.5,471.5C 314.167,471.5 308.833,471.5 303.5,471.5C 303.5,466.167 303.5,460.833 303.5,455.5 Z"/></g>
</svg>
