<?xml version="1.0" encoding="UTF-8"?>
<!DOCTYPE svg PUBLIC "-//W3C//DTD SVG 1.1//EN" "http://www.w3.org/Graphics/SVG/1.1/DTD/svg11.dtd">
<svg xmlns="http://www.w3.org/2000/svg" version="1.1" width="512px" height="512px" style="shape-rendering:geometricPrecision; text-rendering:geometricPrecision; image-rendering:optimizeQuality; fill-rule:evenodd; clip-rule:evenodd" xmlns:xlink="http://www.w3.org/1999/xlink">
<g><path style="opacity:0.979" fill="#030202" d="M 463.5,-0.5 C 469.167,-0.5 474.833,-0.5 480.5,-0.5C 494.35,4.86214 503.184,14.8621 507,29.5C 507.341,35.1242 505.674,40.1242 502,44.5C 491.333,54.5 480.667,64.5 470,74.5C 443.536,103.752 425.703,137.752 416.5,176.5C 418.817,178.316 420.984,180.316 423,182.5C 425.966,193.783 424.633,204.449 419,214.5C 416.441,217.531 413.274,219.698 409.5,221C 395.081,304.012 381.248,387.178 368,470.5C 367.667,478.167 367.333,485.833 367,493.5C 364.408,502.255 358.908,508.255 350.5,511.5C 297.5,511.5 244.5,511.5 191.5,511.5C 183.519,508.351 178.019,502.684 175,494.5C 174.667,486.833 174.333,479.167 174,471.5C 160.86,387.828 147.027,304.328 132.5,221C 121.438,215.72 116.438,206.887 117.5,194.5C 116.264,187.698 118.264,182.198 123.5,178C 145.113,176.544 166.78,176.044 188.5,176.5C 188.5,155.167 188.5,133.833 188.5,112.5C 130.499,112.667 72.499,112.5 14.5,112C 10,110.167 6.83333,107 5,102.5C 3.89741,94.2255 3.39741,85.8921 3.5,77.5C 3.39741,69.1079 3.89741,60.7745 5,52.5C 6.90183,47.5995 10.4018,44.4329 15.5,43C 73.1657,42.5 130.832,42.3333 188.5,42.5C 187.493,24.1708 196.16,14.1708 214.5,12.5C 221.092,13.1973 227.259,15.1973 233,18.5C 244.78,10.5393 256.613,10.5393 268.5,18.5C 280.719,10.5216 292.886,10.5216 305,18.5C 317.274,10.3729 329.44,10.5396 341.5,19C 344.491,21.9904 346.657,25.4904 348,29.5C 348.5,78.4989 348.667,127.499 348.5,176.5C 358.167,176.5 367.833,176.5 377.5,176.5C 376.942,137.792 383.775,100.458 398,64.5C 405.774,44.7764 417.607,27.943 433.5,14C 442.669,7.24732 452.669,2.41399 463.5,-0.5 Z"/></g>
<g><path style="opacity:1" fill="#f6f2f3" d="M 483.5,19.5 C 463.251,38.5718 445.418,59.5718 430,82.5C 413.308,110.565 401.308,140.565 394,172.5C 393.501,167.177 393.334,161.844 393.5,156.5C 395.052,119.286 404.552,84.2856 422,51.5C 430.991,36.1755 443.491,24.6755 459.5,17C 465.307,14.6825 471.307,14.0158 477.5,15C 480.106,15.7918 482.106,17.2918 483.5,19.5 Z"/></g>
<g><path style="opacity:1" fill="#e8d7e8" d="M 483.5,19.5 C 488.375,22.9175 490.875,27.5841 491,33.5C 480,43.8333 469,54.1667 458,64.5C 428.81,96.8777 409.643,134.544 400.5,177.5C 397.833,177.5 395.167,177.5 392.5,177.5C 392.175,170.313 392.509,163.313 393.5,156.5C 393.334,161.844 393.501,167.177 394,172.5C 401.308,140.565 413.308,110.565 430,82.5C 445.418,59.5718 463.251,38.5718 483.5,19.5 Z"/></g>
<g><path style="opacity:1" fill="#f6cf6d" d="M 218.5,29.5 C 218.487,78.5874 218.487,127.921 218.5,177.5C 213.5,177.5 208.5,177.5 203.5,177.5C 203.333,129.832 203.5,82.1655 204,34.5C 207.483,28.7338 212.317,27.0671 218.5,29.5 Z"/></g>
<g><path style="opacity:1" fill="#fed671" d="M 253.5,28.5 C 254.491,78.1246 254.824,127.791 254.5,177.5C 249.833,177.5 245.167,177.5 240.5,177.5C 240.333,129.499 240.5,81.4988 241,33.5C 244.021,29.2475 248.187,27.5808 253.5,28.5 Z"/></g>
<g><path style="opacity:1" fill="#fed671" d="M 289.5,28.5 C 290.491,77.7912 290.824,127.125 290.5,176.5C 290.5,176.833 290.5,177.167 290.5,177.5C 285.833,177.5 281.167,177.5 276.5,177.5C 276.333,129.499 276.5,81.4988 277,33.5C 277.833,31.3333 279.333,29.8333 281.5,29C 284.146,28.5026 286.813,28.3359 289.5,28.5 Z"/></g>
<g><path style="opacity:1" fill="#fed671" d="M 325.5,28.5 C 326.491,78.1246 326.824,127.791 326.5,177.5C 321.833,177.5 317.167,177.5 312.5,177.5C 312.333,129.499 312.5,81.4988 313,33.5C 315.887,29.0061 320.054,27.3394 325.5,28.5 Z"/></g>
<g><path style="opacity:1" fill="#efaa3c" d="M 218.5,29.5 C 221.675,29.8399 223.841,31.5066 225,34.5C 225.5,82.1655 225.667,129.832 225.5,177.5C 223.167,177.5 220.833,177.5 218.5,177.5C 218.487,127.921 218.487,78.5874 218.5,29.5 Z"/></g>
<g><path style="opacity:1" fill="#f3ad3d" d="M 253.5,28.5 C 256.87,29.4323 259.37,31.4323 261,34.5C 261.5,82.1655 261.667,129.832 261.5,177.5C 259.167,177.5 256.833,177.5 254.5,177.5C 254.824,127.791 254.491,78.1246 253.5,28.5 Z"/></g>
<g><path style="opacity:1" fill="#fcb33f" d="M 289.5,28.5 C 292.674,29.0102 295.008,30.6769 296.5,33.5C 296.5,81.1667 296.5,128.833 296.5,176.5C 294.5,176.5 292.5,176.5 290.5,176.5C 290.824,127.125 290.491,77.7912 289.5,28.5 Z"/></g>
<g><path style="opacity:1" fill="#fbb340" d="M 325.5,28.5 C 328.643,29.1335 331.143,30.8002 333,33.5C 333.5,81.4988 333.667,129.499 333.5,177.5C 331.167,177.5 328.833,177.5 326.5,177.5C 326.824,127.791 326.491,78.1246 325.5,28.5 Z"/></g>
<g><path style="opacity:1" fill="#d79a36" d="M 296.5,33.5 C 297.499,81.3304 297.832,129.33 297.5,177.5C 295.167,177.5 292.833,177.5 290.5,177.5C 290.5,177.167 290.5,176.833 290.5,176.5C 292.5,176.5 294.5,176.5 296.5,176.5C 296.5,128.833 296.5,81.1667 296.5,33.5 Z"/></g>
<g><path style="opacity:1" fill="#cd9773" d="M 19.5,58.5 C 75.8333,58.5 132.167,58.5 188.5,58.5C 188.5,62.1667 188.5,65.8333 188.5,69.5C 132.167,69.5 75.8333,69.5 19.5,69.5C 19.5,65.8333 19.5,62.1667 19.5,58.5 Z"/></g>
<g><path style="opacity:1" fill="#83604a" d="M 19.5,58.5 C 75.9975,57.501 132.664,57.1677 189.5,57.5C 189.5,61.8333 189.5,66.1667 189.5,70.5C 132.664,70.8323 75.9975,70.499 19.5,69.5C 75.8333,69.5 132.167,69.5 188.5,69.5C 188.5,65.8333 188.5,62.1667 188.5,58.5C 132.167,58.5 75.8333,58.5 19.5,58.5 Z"/></g>
<g><path style="opacity:1" fill="#cd9873" d="M 188.5,85.5 C 188.5,89.1667 188.5,92.8333 188.5,96.5C 132.167,96.5 75.8333,96.5 19.5,96.5C 19.5,92.8333 19.5,89.1667 19.5,85.5C 75.8333,85.5 132.167,85.5 188.5,85.5 Z"/></g>
<g><path style="opacity:1" fill="#ad7f61" d="M 188.5,85.5 C 189.483,89.2984 189.817,93.2984 189.5,97.5C 132.664,97.8323 75.9975,97.499 19.5,96.5C 75.8333,96.5 132.167,96.5 188.5,96.5C 188.5,92.8333 188.5,89.1667 188.5,85.5 Z"/></g>
<g><path style="opacity:1" fill="#8fd7f8" d="M 379.5,192.5 C 379.882,197.367 379.215,202.034 377.5,206.5C 349.498,206.333 321.498,206.5 293.5,207C 290.692,208.793 289.026,211.293 288.5,214.5C 282.167,214.5 275.833,214.5 269.5,214.5C 269.456,210.91 267.789,208.41 264.5,207C 221.833,206.667 179.167,206.333 136.5,206C 135.299,205.097 134.465,203.931 134,202.5C 133.502,199.183 133.335,195.85 133.5,192.5C 215.5,192.5 297.5,192.5 379.5,192.5 Z"/></g>
<g><path style="opacity:1" fill="#74cdf7" d="M 379.5,192.5 C 389.167,192.5 398.833,192.5 408.5,192.5C 408.665,195.85 408.498,199.183 408,202.5C 407.5,204.333 406.333,205.5 404.5,206C 395.506,206.5 386.506,206.666 377.5,206.5C 379.215,202.034 379.882,197.367 379.5,192.5 Z"/></g>
<g><path style="opacity:1" fill="#d74953" d="M 269.5,214.5 C 275.833,214.5 282.167,214.5 288.5,214.5C 289.001,217.155 290.334,219.322 292.5,221C 325.838,221.167 359.172,221.667 392.5,222.5C 379.285,303.124 366.285,383.791 353.5,464.5C 348.833,464.5 344.167,464.5 339.5,464.5C 351.058,390.152 362.725,315.819 374.5,241.5C 300.5,241.5 226.5,241.5 152.5,241.5C 151.716,234.798 150.716,228.131 149.5,221.5C 188.168,221.667 226.835,221.5 265.5,221C 267.923,219.429 269.256,217.263 269.5,214.5 Z"/></g>
<g><path style="opacity:1" fill="#db626d" d="M 152.5,241.5 C 226.5,241.5 300.5,241.5 374.5,241.5C 362.725,315.819 351.058,390.152 339.5,464.5C 344.167,464.5 348.833,464.5 353.5,464.5C 333.337,465.332 313.004,465.832 292.5,466C 290.077,467.571 288.744,469.737 288.5,472.5C 282.167,472.5 275.833,472.5 269.5,472.5C 269.556,469.439 268.222,467.272 265.5,466C 239.835,465.5 214.169,465.333 188.5,465.5C 176.827,390.78 164.827,316.113 152.5,241.5 Z"/></g>
<g><path style="opacity:1" fill="#040201" d="M 258.5,253.5 C 299.602,251.754 326.769,270.421 340,309.5C 349.013,342.427 343.679,372.76 324,400.5C 302.649,425.172 276.482,432.338 245.5,422C 219.636,408.152 204.136,386.652 199,357.5C 193.233,322.132 203.4,292.298 229.5,268C 238.448,261.526 248.114,256.693 258.5,253.5 Z"/></g>
<g><path style="opacity:1" fill="#fcd470" d="M 273.5,268.5 C 301.324,289.406 313.157,317.406 309,352.5C 305.435,377.149 293.602,396.649 273.5,411C 270.518,411.498 267.518,411.665 264.5,411.5C 243.623,407.137 228.79,395.137 220,375.5C 207.415,345.092 210.415,316.425 229,289.5C 240.368,275.065 255.201,268.065 273.5,268.5 Z"/></g>
<g><path style="opacity:1" fill="#f9b13f" d="M 273.5,268.5 C 290.966,270.152 304.799,278.152 315,292.5C 331.654,318.875 333.987,346.542 322,375.5C 313.157,395.013 298.324,407.18 277.5,412C 272.98,412.814 268.646,412.647 264.5,411.5C 267.518,411.665 270.518,411.498 273.5,411C 293.602,396.649 305.435,377.149 309,352.5C 313.157,317.406 301.324,289.406 273.5,268.5 Z"/></g>
<g><path style="opacity:1" fill="#070502" d="M 249.5,303.5 C 261.945,304.807 263.779,310.14 255,319.5C 253.077,323.805 253.077,328.138 255,332.5C 259.548,339.26 262.715,346.593 264.5,354.5C 264.142,363.383 260.475,370.55 253.5,376C 245.412,378.875 241.579,376.042 242,367.5C 245.346,364.167 247.846,360.333 249.5,356C 246.144,348.12 242.644,340.287 239,332.5C 236.91,320.701 240.41,311.035 249.5,303.5 Z"/></g>
<g><path style="opacity:1" fill="#060402" d="M 289.5,303.5 C 297.775,302.706 300.942,306.373 299,314.5C 294.44,318.601 292.44,323.601 293,329.5C 295.745,335.325 298.745,340.992 302,346.5C 305.459,358.166 302.626,367.999 293.5,376C 284.319,379.325 280.485,376.158 282,366.5C 287.622,362.925 289.622,357.925 288,351.5C 282.54,343.587 279.04,334.92 277.5,325.5C 278.561,316.47 282.561,309.136 289.5,303.5 Z"/></g>
<g><path style="opacity:1" fill="#8dd6f8" d="M 269.5,472.5 C 275.833,472.5 282.167,472.5 288.5,472.5C 289.092,476.089 291.092,478.422 294.5,479.5C 313.326,480.497 332.326,480.83 351.5,480.5C 351.5,483.833 351.5,487.167 351.5,490.5C 350.746,493.091 349.079,494.924 346.5,496C 295.833,496.667 245.167,496.667 194.5,496C 192.536,494.549 191.203,492.716 190.5,490.5C 190.5,487.167 190.5,483.833 190.5,480.5C 215.006,480.831 239.339,480.498 263.5,479.5C 267.59,478.998 269.59,476.665 269.5,472.5 Z"/></g>
<g><path style="opacity:1" fill="#456877" d="M 263.5,479.5 C 239.339,480.498 215.006,480.831 190.5,480.5C 190.5,483.833 190.5,487.167 190.5,490.5C 189.518,487.038 189.185,483.371 189.5,479.5C 214.167,479.5 238.833,479.5 263.5,479.5 Z"/></g>
<g><path style="opacity:1" fill="#406474" d="M 294.5,479.5 C 313.833,479.5 333.167,479.5 352.5,479.5C 352.815,483.371 352.482,487.038 351.5,490.5C 351.5,487.167 351.5,483.833 351.5,480.5C 332.326,480.83 313.326,480.497 294.5,479.5 Z"/></g>
</svg>
