<?xml version="1.0" encoding="UTF-8"?>
<!DOCTYPE svg PUBLIC "-//W3C//DTD SVG 1.1//EN" "http://www.w3.org/Graphics/SVG/1.1/DTD/svg11.dtd">
<svg xmlns="http://www.w3.org/2000/svg" version="1.1" width="512px" height="512px" style="shape-rendering:geometricPrecision; text-rendering:geometricPrecision; image-rendering:optimizeQuality; fill-rule:evenodd; clip-rule:evenodd" xmlns:xlink="http://www.w3.org/1999/xlink">
<g><path style="opacity:0.986" fill="#020100" d="M 511.5,234.5 C 511.5,269.5 511.5,304.5 511.5,339.5C 506.606,371.789 489.939,395.955 461.5,412C 431.179,427.199 399.012,434.365 365,433.5C 334.136,433.825 304.969,426.992 277.5,413C 264.3,405.79 251.633,397.79 239.5,389C 221.651,375.241 203.985,361.241 186.5,347C 169.968,335.576 151.635,328.909 131.5,327C 107.498,326.867 83.4981,326.867 59.5,327C 35.9662,326.531 17.7995,316.698 5,297.5C 2.84209,292.841 1.00876,288.175 -0.5,283.5C -0.5,249.167 -0.5,214.833 -0.5,180.5C 3.62719,165.089 11.2939,151.589 22.5,140C 51.3411,115.579 84.3411,99.0794 121.5,90.5C 203.294,71.7316 284.627,73.565 365.5,96C 404.094,106.791 438.427,125.124 468.5,151C 492.52,173.875 506.854,201.708 511.5,234.5 Z"/></g>
<g><path style="opacity:1" fill="#fa6143" d="M 210.5,97.5 C 229.843,97.4209 249.176,97.7542 268.5,98.5C 258.905,160.255 248.739,221.922 238,283.5C 218.409,268.962 196.742,258.628 173,252.5C 172.333,249.833 172.333,247.167 173,244.5C 181,196.5 189,148.5 197,100.5C 201.378,98.904 205.878,97.904 210.5,97.5 Z"/></g>
<g><path style="opacity:1" fill="#fa6143" d="M 168.5,101.5 C 171.167,101.5 173.833,101.5 176.5,101.5C 168.608,150.517 160.608,199.517 152.5,248.5C 133.246,246.125 113.913,245.125 94.5,245.5C 101.402,201.423 108.735,157.423 116.5,113.5C 133.646,108.212 150.979,104.212 168.5,101.5 Z"/></g>
<g><path style="opacity:1" fill="#fb6143" d="M 288.5,101.5 C 312.351,103.737 335.684,108.404 358.5,115.5C 353.787,141.781 349.287,168.114 345,194.5C 344.333,198.5 344.333,202.5 345,206.5C 347.815,212.169 352.315,214.002 358.5,212C 361.176,210.16 363.009,207.66 364,204.5C 368.178,177.101 372.678,149.768 377.5,122.5C 399.494,129.162 419.494,139.496 437.5,153.5C 426.345,218.097 415.512,282.764 405,347.5C 383.404,353.839 361.571,354.839 339.5,350.5C 343.165,327.843 346.832,305.177 350.5,282.5C 349.483,274.148 344.816,270.981 336.5,273C 334.094,274.622 332.261,276.789 331,279.5C 327.333,300.833 323.667,322.167 320,343.5C 297.33,330.828 276.33,315.828 257,298.5C 267.06,232.805 277.56,167.138 288.5,101.5 Z"/></g>
<g><path style="opacity:1" fill="#fb6143" d="M 74.5,244.5 C 72.5441,246.148 70.2108,246.815 67.5,246.5C 43.8536,243.254 28.3536,230.254 21,207.5C 17.4723,192.985 19.4723,179.319 27,166.5C 45.071,144.942 67.571,129.942 94.5,121.5C 87.9416,162.517 81.2749,203.517 74.5,244.5 Z"/></g>
<g><path style="opacity:1" fill="#f96043" d="M 454.5,168.5 C 457.731,170.22 460.564,172.553 463,175.5C 494.243,212.779 499.576,253.446 479,297.5C 466.622,317.706 449.456,332.373 427.5,341.5C 427.167,340.5 426.833,339.5 426.5,338.5C 436.477,281.928 445.811,225.261 454.5,168.5 Z"/></g>
<g><path style="opacity:1" fill="#0a0301" d="M 345.5,232.5 C 355.162,233.313 358.662,238.313 356,247.5C 349.731,254.19 343.731,253.857 338,246.5C 336.412,239.599 338.912,234.932 345.5,232.5 Z"/></g>
<g><path style="opacity:1" fill="#fcc277" d="M 19.5,244.5 C 32.0145,256.757 47.0145,264.257 64.5,267C 79.9873,266.619 95.4873,266.119 111,265.5C 152.383,264.301 190.216,275.134 224.5,298C 247.263,316.765 270.596,334.765 294.5,352C 321.939,369.889 351.939,376.556 384.5,372C 408.79,369.178 431.79,362.178 453.5,351C 468.576,341.925 481.076,330.091 491,315.5C 493.849,354.989 477.349,382.823 441.5,399C 371.392,426.033 307.059,416.366 248.5,370C 232.167,357 215.833,344 199.5,331C 177,315.452 152,307.118 124.5,306C 103.478,305.737 82.4782,306.07 61.5,307C 46.9597,306.475 34.793,300.975 25,290.5C 22.9535,287.036 21.2868,283.37 20,279.5C 19.5001,267.838 19.3335,256.171 19.5,244.5 Z"/></g>
<g><path style="opacity:1" fill="#943927" d="M 74.5,244.5 C 74.5,245.5 74.5,246.5 74.5,247.5C 71.9407,247.802 69.6074,247.468 67.5,246.5C 70.2108,246.815 72.5441,246.148 74.5,244.5 Z"/></g>
</svg>
