<?xml version="1.0" encoding="UTF-8"?>
<!DOCTYPE svg PUBLIC "-//W3C//DTD SVG 1.1//EN" "http://www.w3.org/Graphics/SVG/1.1/DTD/svg11.dtd">
<svg xmlns="http://www.w3.org/2000/svg" version="1.1" width="512px" height="512px" style="shape-rendering:geometricPrecision; text-rendering:geometricPrecision; image-rendering:optimizeQuality; fill-rule:evenodd; clip-rule:evenodd" xmlns:xlink="http://www.w3.org/1999/xlink">
<g><path style="opacity:0.961" fill="#020202" d="M 232.5,-0.5 C 247.833,-0.5 263.167,-0.5 278.5,-0.5C 379.371,12.3469 450.871,65.0136 493,157.5C 502.497,181.819 508.663,206.819 511.5,232.5C 511.5,247.833 511.5,263.167 511.5,278.5C 509.048,301.318 503.881,323.651 496,345.5C 493.921,349.957 490.421,351.957 485.5,351.5C 482.701,349.411 481.034,346.578 480.5,343C 507.593,267.845 500.759,196.012 460,127.5C 438.149,93.814 409.983,66.814 375.5,46.5C 315.959,13.8279 253.293,6.32792 187.5,24C 117.473,46.5936 66.6397,91.0936 35,157.5C 5.21313,230.193 8.21313,301.526 44,371.5C 86.9168,444.68 150.75,486.18 235.5,496C 262.414,498.006 288.747,495.506 314.5,488.5C 382.715,470.781 433.882,431.114 468,369.5C 471.243,367.737 474.743,367.071 478.5,367.5C 481.143,370.34 481.976,373.673 481,377.5C 435.866,456.337 368.032,501.003 277.5,511.5C 262.5,511.5 247.5,511.5 232.5,511.5C 143.567,501.026 76.4004,457.36 31,380.5C 13.7076,348.465 3.20759,314.465 -0.5,278.5C -0.5,263.167 -0.5,247.833 -0.5,232.5C 9.97281,143.568 53.6395,76.4011 130.5,31C 162.535,13.7076 196.535,3.20759 232.5,-0.5 Z"/></g>
<g><path style="opacity:1" fill="#fef5eb" d="M 375.5,46.5 C 375.859,48.371 376.859,49.871 378.5,51C 445.276,100.208 479.943,166.542 482.5,250C 480.445,345.957 438.779,418.957 357.5,469C 343.552,476.646 329.218,483.146 314.5,488.5C 288.747,495.506 262.414,498.006 235.5,496C 150.75,486.18 86.9168,444.68 44,371.5C 8.21313,301.526 5.21313,230.193 35,157.5C 66.6397,91.0936 117.473,46.5936 187.5,24C 253.293,6.32792 315.959,13.8279 375.5,46.5 Z"/></g>
<g><path style="opacity:1" fill="#fbedd7" d="M 375.5,46.5 C 409.983,66.814 438.149,93.814 460,127.5C 500.759,196.012 507.593,267.845 480.5,343C 481.034,346.578 482.701,349.411 485.5,351.5C 483.169,356.829 480.836,362.162 478.5,367.5C 474.743,367.071 471.243,367.737 468,369.5C 433.882,431.114 382.715,470.781 314.5,488.5C 329.218,483.146 343.552,476.646 357.5,469C 438.779,418.957 480.445,345.957 482.5,250C 479.943,166.542 445.276,100.208 378.5,51C 376.859,49.871 375.859,48.371 375.5,46.5 Z"/></g>
<g><path style="opacity:1" fill="#060505" d="M 269.5,116.5 C 291.548,116.71 301.381,127.71 299,149.5C 293.949,163.117 284.115,169.284 269.5,168C 254.722,163.215 247.888,153.048 249,137.5C 252.016,126.652 258.849,119.652 269.5,116.5 Z"/></g>
<g><path style="opacity:1" fill="#da6d33" d="M 271.5,131.5 C 281.001,131.499 285.501,136.166 285,145.5C 281.128,153.518 275.294,155.351 267.5,151C 261.373,142.924 262.706,136.424 271.5,131.5 Z"/></g>
<g><path style="opacity:1" fill="#050404" d="M 327.5,148.5 C 350.994,148.494 362.494,160.16 362,183.5C 356.511,200.164 345.011,207.664 327.5,206C 310.846,200.536 303.346,189.036 305,171.5C 308.684,159.984 316.184,152.317 327.5,148.5 Z"/></g>
<g><path style="opacity:1" fill="#ea7c43" d="M 336.5,164.5 C 339.605,174.797 337.272,183.464 329.5,190.5C 321.676,187.524 318.509,181.857 320,173.5C 323.23,165.808 328.73,162.808 336.5,164.5 Z"/></g>
<g><path style="opacity:1" fill="#d9692c" d="M 336.5,164.5 C 340.912,165.07 344.078,167.403 346,171.5C 349.066,180.537 346.233,187.037 337.5,191C 334.633,191.801 331.966,191.634 329.5,190.5C 337.272,183.464 339.605,174.797 336.5,164.5 Z"/></g>
<g><path style="opacity:1" fill="#040303" d="M 107.5,268.5 C 110.923,268.128 113.423,269.461 115,272.5C 115.333,292.5 115.667,312.5 116,332.5C 121.139,357.825 136.639,369.825 162.5,368.5C 181.973,364.694 193.306,353.028 196.5,333.5C 197.497,317.008 197.83,300.342 197.5,283.5C 195.833,283.5 194.167,283.5 192.5,283.5C 189.281,283.224 186.615,281.891 184.5,279.5C 181.99,274.536 180.99,269.202 181.5,263.5C 181.667,259.833 181.833,256.167 182,252.5C 183.145,249.568 183.978,246.568 184.5,243.5C 187.65,237.885 191.317,232.552 195.5,227.5C 189.777,213.148 179.443,204.148 164.5,200.5C 140.536,197.813 124.536,207.813 116.5,230.5C 115.929,235.554 115.095,240.554 114,245.5C 112.512,247.16 110.679,248.16 108.5,248.5C 104.363,248.518 101.863,246.518 101,242.5C 101.464,213.018 115.964,194.185 144.5,186C 173.349,182.173 194.516,193.006 208,218.5C 220.981,210.804 234.481,209.638 248.5,215C 250.049,216.214 251.215,217.714 252,219.5C 256.848,247.305 246.681,267.472 221.5,280C 218.568,281.145 215.568,281.978 212.5,282.5C 212.667,299.837 212.5,317.17 212,334.5C 203.636,370.116 181.136,386.282 144.5,383C 119.781,375.95 105.281,359.783 101,334.5C 100.333,313.833 100.333,293.167 101,272.5C 102.312,269.762 104.478,268.428 107.5,268.5 Z"/></g>
<g><path style="opacity:1" fill="#ee7f44" d="M 164.5,200.5 C 174.018,208.522 180.518,218.522 184,230.5C 184.499,234.821 184.666,239.154 184.5,243.5C 183.978,246.568 183.145,249.568 182,252.5C 181.833,256.167 181.667,259.833 181.5,263.5C 180.99,269.202 181.99,274.536 184.5,279.5C 184.667,298.503 184.5,317.503 184,336.5C 181.309,350.327 174.142,360.993 162.5,368.5C 136.639,369.825 121.139,357.825 116,332.5C 115.667,312.5 115.333,292.5 115,272.5C 113.423,269.461 110.923,268.128 107.5,268.5C 108.46,261.922 108.793,255.255 108.5,248.5C 110.679,248.16 112.512,247.16 114,245.5C 115.095,240.554 115.929,235.554 116.5,230.5C 124.536,207.813 140.536,197.813 164.5,200.5 Z"/></g>
<g><path style="opacity:1" fill="#dc6a2d" d="M 164.5,200.5 C 179.443,204.148 189.777,213.148 195.5,227.5C 191.317,232.552 187.65,237.885 184.5,243.5C 184.666,239.154 184.499,234.821 184,230.5C 180.518,218.522 174.018,208.522 164.5,200.5 Z"/></g>
<g><path style="opacity:1" fill="#040302" d="M 368.5,211.5 C 392.471,210.301 405.971,221.634 409,245.5C 413.137,299.39 392.97,341.557 348.5,372C 317.184,389.719 283.518,396.719 247.5,393C 242.617,387.942 242.284,382.609 246.5,377C 266.235,370.132 284.902,361.132 302.5,350C 340.747,323.972 355.08,288.139 345.5,242.5C 344.952,232.431 348.618,224.264 356.5,218C 360.434,215.536 364.434,213.369 368.5,211.5 Z"/></g>
<g><path style="opacity:1" fill="#04d5a0" d="M 231.5,226.5 C 233.833,226.5 236.167,226.5 238.5,226.5C 239.331,248.868 228.998,262.868 207.5,268.5C 203.833,268.5 200.167,268.5 196.5,268.5C 196.5,266.167 196.5,263.833 196.5,261.5C 216.508,258.158 228.175,246.492 231.5,226.5 Z"/></g>
<g><path style="opacity:1" fill="#ed7e43" d="M 381.5,227.5 C 392.625,279.14 377.625,321.64 336.5,355C 322.959,364.604 308.293,371.771 292.5,376.5C 289.68,377.637 286.68,378.137 283.5,378C 306.366,367.644 325.866,352.811 342,333.5C 353.154,319.047 359.821,302.713 362,284.5C 362.358,268.136 362.025,251.803 361,235.5C 365.733,227.382 372.566,224.715 381.5,227.5 Z"/></g>
<g><path style="opacity:1" fill="#6ae397" d="M 231.5,226.5 C 228.175,246.492 216.508,258.158 196.5,261.5C 196.5,260.5 196.5,259.5 196.5,258.5C 200.505,239.497 212.171,228.83 231.5,226.5 Z"/></g>
<g><path style="opacity:1" fill="#de6b2d" d="M 381.5,227.5 C 386.822,229.324 390.322,232.991 392,238.5C 400.466,287.095 384.966,326.262 345.5,356C 329.485,367.061 311.818,373.895 292.5,376.5C 308.293,371.771 322.959,364.604 336.5,355C 377.625,321.64 392.625,279.14 381.5,227.5 Z"/></g>
<g><path style="opacity:1" fill="#0a0402" d="M 148.5,236.5 C 151.794,236.259 154.794,237.092 157.5,239C 160.576,241.62 163.742,244.12 167,246.5C 170.451,255.039 167.618,259.206 158.5,259C 154.603,255.469 150.436,252.303 146,249.5C 142.28,244.265 143.114,239.932 148.5,236.5 Z"/></g>
<g><path style="opacity:1" fill="#078261" d="M 196.5,258.5 C 196.5,259.5 196.5,260.5 196.5,261.5C 196.5,263.833 196.5,266.167 196.5,268.5C 200.167,268.5 203.833,268.5 207.5,268.5C 203.702,269.483 199.702,269.817 195.5,269.5C 195.185,265.629 195.518,261.962 196.5,258.5 Z"/></g>
<g><path style="opacity:1" fill="#060201" d="M 147.5,273.5 C 150.32,273.248 152.986,273.748 155.5,275C 159.759,278.381 163.926,281.881 168,285.5C 169.291,293.788 165.791,296.955 157.5,295C 153.049,292.217 148.883,289.05 145,285.5C 142.511,280.757 143.345,276.757 147.5,273.5 Z"/></g>
<g><path style="opacity:1" fill="#e06c2d" d="M 184.5,279.5 C 186.615,281.891 189.281,283.224 192.5,283.5C 193.568,284.434 194.901,284.768 196.5,284.5C 196.5,300.833 196.5,317.167 196.5,333.5C 193.306,353.028 181.973,364.694 162.5,368.5C 174.142,360.993 181.309,350.327 184,336.5C 184.5,317.503 184.667,298.503 184.5,279.5 Z"/></g>
<g><path style="opacity:1" fill="#93471e" d="M 192.5,283.5 C 194.167,283.5 195.833,283.5 197.5,283.5C 197.83,300.342 197.497,317.008 196.5,333.5C 196.5,317.167 196.5,300.833 196.5,284.5C 194.901,284.768 193.568,284.434 192.5,283.5 Z"/></g>
<g><path style="opacity:1" fill="#090402" d="M 148.5,309.5 C 151.271,309.421 153.937,309.921 156.5,311C 160.333,314.167 164.167,317.333 168,320.5C 170.884,328.566 168.051,332.4 159.5,332C 154.379,328.547 149.546,324.714 145,320.5C 143.662,315.96 144.829,312.293 148.5,309.5 Z"/></g>
</svg>
