<?xml version="1.0" encoding="UTF-8"?>
<!DOCTYPE svg PUBLIC "-//W3C//DTD SVG 1.1//EN" "http://www.w3.org/Graphics/SVG/1.1/DTD/svg11.dtd">
<svg xmlns="http://www.w3.org/2000/svg" version="1.1" width="512px" height="512px" style="shape-rendering:geometricPrecision; text-rendering:geometricPrecision; image-rendering:optimizeQuality; fill-rule:evenodd; clip-rule:evenodd" xmlns:xlink="http://www.w3.org/1999/xlink">
<g><path style="opacity:0.983" fill="#030000" d="M 195.5,-0.5 C 200.5,-0.5 205.5,-0.5 210.5,-0.5C 219.956,2.00182 226.122,8.00182 229,17.5C 227.104,33.9082 225.938,50.4082 225.5,67C 225.053,79.691 226.219,92.191 229,104.5C 237.896,95.3767 244.23,84.71 248,72.5C 249.907,65.8407 249.907,59.174 248,52.5C 245.877,45.4583 243.377,38.625 240.5,32C 240.556,28.9423 241.889,26.609 244.5,25C 257.775,25.2023 269.942,29.0357 281,36.5C 282.719,39.4543 282.885,42.4543 281.5,45.5C 279.878,47.6088 277.712,48.6088 275,48.5C 270.581,47.5433 266.414,45.8766 262.5,43.5C 267.775,70.5177 260.608,93.851 241,113.5C 231.736,128.649 228.902,144.982 232.5,162.5C 240.831,161.96 249.165,161.293 257.5,160.5C 264.506,143.492 276.839,132.492 294.5,127.5C 298.207,122.082 301.373,116.415 304,110.5C 306.045,93.009 301.712,77.3423 291,63.5C 290.333,61.8333 290.333,60.1667 291,58.5C 292.481,57.5291 293.315,56.1958 293.5,54.5C 296.877,53.0985 300.21,53.2652 303.5,55C 307.43,60.5916 310.93,66.4249 314,72.5C 320.982,65.2032 325.315,56.5365 327,46.5C 327.088,40.3902 327.755,34.3902 329,28.5C 333.615,24.5451 338.115,24.7118 342.5,29C 366.589,49.6771 377.589,75.8438 375.5,107.5C 387.936,116.592 395.936,128.592 399.5,143.5C 412.385,146.757 422.051,154.09 428.5,165.5C 428.043,167.598 427.043,169.264 425.5,170.5C 422.741,172.293 419.741,172.793 416.5,172C 412.56,167.222 407.894,163.388 402.5,160.5C 400.801,186.296 388.134,203.963 364.5,213.5C 360.274,213.951 358.441,216.284 359,220.5C 364.185,226.032 368.185,232.366 371,239.5C 384.525,246.189 398.025,246.022 411.5,239C 413.996,237.669 415.996,235.836 417.5,233.5C 424.772,225.535 428.439,216.035 428.5,205C 427.597,198.836 427.097,192.669 427,186.5C 428.667,185.267 430.167,183.933 431.5,182.5C 435.888,181.943 439.055,183.61 441,187.5C 443.277,197.09 443.944,206.757 443,216.5C 453.281,232.185 456.447,249.185 452.5,267.5C 468.023,290.617 469.523,314.617 457,339.5C 455.859,341.609 454.359,343.442 452.5,345C 458.065,354.424 460.565,364.591 460,375.5C 458.362,377.734 456.195,379.067 453.5,379.5C 451.212,378.926 449.045,377.926 447,376.5C 445.875,371.349 444.708,366.182 443.5,361C 442.659,355.696 440.159,354.529 436,357.5C 430.004,377.995 416.837,391.329 396.5,397.5C 391.215,398.235 385.882,398.735 380.5,399C 385.534,403.699 390.2,408.699 394.5,414C 409.737,419.56 423.07,416.726 434.5,405.5C 437.04,402.272 439.707,399.105 442.5,396C 445.146,395.503 447.813,395.336 450.5,395.5C 453.353,398.55 454.187,402.217 453,406.5C 449.414,412.091 445.08,417.091 440,421.5C 438.639,438.387 431.806,452.553 419.5,464C 414.047,468.06 408.047,471.06 401.5,473C 398.894,477.935 395.894,482.602 392.5,487C 389.421,488.805 386.421,488.639 383.5,486.5C 381.539,484.202 380.539,481.535 380.5,478.5C 389.137,466.555 391.97,453.222 389,438.5C 386.835,429.835 382.835,422.169 377,415.5C 369.288,435.049 355.121,446.716 334.5,450.5C 328.824,450.666 323.157,450.499 317.5,450C 314.494,449.668 311.66,448.834 309,447.5C 311.291,467.871 322.124,481.704 341.5,489C 349.386,491.091 357.219,490.925 365,488.5C 368.48,488.831 370.98,490.498 372.5,493.5C 373.816,497.707 372.483,500.873 368.5,503C 358.395,506.136 348.228,506.302 338,503.5C 331.718,506.867 325.218,509.534 318.5,511.5C 311.5,511.5 304.5,511.5 297.5,511.5C 288.705,509.503 280.705,505.67 273.5,500C 246.36,502.637 225.193,492.803 210,470.5C 207.597,466.365 205.763,462.032 204.5,457.5C 193.325,456.72 183.325,452.886 174.5,446C 163.479,437.144 155.812,425.977 151.5,412.5C 126.91,401.008 113.41,381.675 111,354.5C 103.491,348.477 99.4911,340.81 99,331.5C 99.4224,329.574 100.589,328.574 102.5,328.5C 105.255,327.02 107.922,327.187 110.5,329C 118.019,342.857 129.352,351.857 144.5,356C 157.458,358.165 168.458,354.665 177.5,345.5C 182.777,340.114 186.111,333.614 187.5,326C 184.276,318.23 181.943,310.23 180.5,302C 179,301.5 177.5,301 176,300.5C 156.44,313.882 136.273,314.882 115.5,303.5C 112.901,301.521 110.235,299.521 107.5,297.5C 106.673,301.459 106.173,305.459 106,309.5C 104.564,312.442 102.397,314.442 99.5,315.5C 96.383,315.358 93.883,314.024 92,311.5C 90.7848,302.323 91.9514,293.489 95.5,285C 86.712,272.309 83.0453,258.309 84.5,243C 55.9795,223.52 43.1462,196.353 46,161.5C 48.7071,157.965 52.2071,156.798 56.5,158C 67.7635,169.422 81.4301,174.756 97.5,174C 88.505,156.695 86.3383,138.528 91,119.5C 93.2223,109.999 96.7223,100.999 101.5,92.5C 106.328,88.2982 110.828,88.6316 115,93.5C 120.784,112.283 133.284,123.783 152.5,128C 161.791,129.15 171.124,129.816 180.5,130C 183.796,130.457 186.963,131.291 190,132.5C 183.965,111.652 179.965,90.3184 178,68.5C 177.333,59.1667 177.333,49.8333 178,40.5C 179.318,37.0586 181.818,35.7253 185.5,36.5C 188.195,36.933 190.362,38.2663 192,40.5C 191.866,75.8707 198.033,110.037 210.5,143C 212.305,143.972 213.972,145.139 215.5,146.5C 217.326,139.6 217.826,132.6 217,125.5C 211.07,98.8105 209.07,71.8105 211,44.5C 212.58,36.1956 213.58,27.8623 214,19.5C 209.86,14.7886 204.694,13.2886 198.5,15C 196.395,16.1934 194.728,17.8601 193.5,20C 191.655,21.128 189.655,21.628 187.5,21.5C 182.493,19.4861 180.66,15.8195 182,10.5C 185.213,5.10748 189.713,1.44082 195.5,-0.5 Z"/></g>
<g><path style="opacity:0.999" fill="#317426" d="M 185.5,36.5 C 185.434,31.3624 186.1,26.3624 187.5,21.5C 189.655,21.628 191.655,21.128 193.5,20C 194.728,17.8601 196.395,16.1934 198.5,15C 204.694,13.2886 209.86,14.7886 214,19.5C 213.58,27.8623 212.58,36.1956 211,44.5C 209.07,71.8105 211.07,98.8105 217,125.5C 217.826,132.6 217.326,139.6 215.5,146.5C 213.972,145.139 212.305,143.972 210.5,143C 198.033,110.037 191.866,75.8707 192,40.5C 190.362,38.2663 188.195,36.933 185.5,36.5 Z"/></g>
<g><path style="opacity:0.999" fill="#3f9234" d="M 281.5,45.5 C 286.047,47.706 290.047,50.706 293.5,54.5C 293.315,56.1958 292.481,57.5291 291,58.5C 290.333,60.1667 290.333,61.8333 291,63.5C 301.712,77.3423 306.045,93.009 304,110.5C 301.373,116.415 298.207,122.082 294.5,127.5C 276.839,132.492 264.506,143.492 257.5,160.5C 249.165,161.293 240.831,161.96 232.5,162.5C 228.902,144.982 231.736,128.649 241,113.5C 260.608,93.851 267.775,70.5177 262.5,43.5C 266.414,45.8766 270.581,47.5433 275,48.5C 277.712,48.6088 279.878,47.6088 281.5,45.5 Z"/></g>
<g><path style="opacity:1" fill="#307326" d="M 341.5,50.5 C 354.687,64.0439 361.02,80.3772 360.5,99.5C 350.912,97.6884 341.245,97.1884 331.5,98C 326.962,98.5122 322.796,100.012 319,102.5C 318.366,98.1454 318.033,93.8121 318,89.5C 330.943,79.6201 338.776,66.6201 341.5,50.5 Z"/></g>
<g><path style="opacity:1" fill="#e21f3a" d="M 333.5,111.5 C 366.019,111.681 384.019,128.014 387.5,160.5C 387.016,176.811 379.849,189.145 366,197.5C 367.161,170.99 356.994,150.157 335.5,135C 328.235,131.078 320.568,128.245 312.5,126.5C 318.026,119.254 325.026,114.254 333.5,111.5 Z"/></g>
<g><path style="opacity:1" fill="#3f9234" d="M 107.5,115.5 C 111.584,119.76 115.584,124.26 119.5,129C 129.019,137.07 140.019,142.07 152.5,144C 171.951,141.613 189.618,145.947 205.5,157C 210.356,160.355 214.356,164.522 217.5,169.5C 211.112,174.719 205.612,180.719 201,187.5C 191.011,184.692 180.844,183.858 170.5,185C 163.114,187.779 155.948,190.945 149,194.5C 130.204,192.072 116.871,182.072 109,164.5C 102.269,148.362 101.769,132.029 107.5,115.5 Z"/></g>
<g><path style="opacity:1" fill="#fd2f4a" d="M 338.5,219.5 C 327.485,221.594 316.818,220.594 306.5,216.5C 305.248,209.578 303.082,202.911 300,196.5C 297.454,193.814 294.287,192.814 290.5,193.5C 287.84,189.839 285.174,186.172 282.5,182.5C 283.167,180.181 283.334,177.847 283,175.5C 279.22,172.039 275.386,168.705 271.5,165.5C 279.13,145.681 293.463,137.848 314.5,142C 342.408,152.315 353.908,172.148 349,201.5C 347.266,208.649 343.766,214.649 338.5,219.5 Z"/></g>
<g><path style="opacity:0.998" fill="#fc2f4a" d="M 425.5,170.5 C 428.025,174.217 430.025,178.217 431.5,182.5C 430.167,183.933 428.667,185.267 427,186.5C 427.097,192.669 427.597,198.836 428.5,205C 428.439,216.035 424.772,225.535 417.5,233.5C 397.3,238.157 380.133,232.824 366,217.5C 365.209,216.255 364.709,214.922 364.5,213.5C 388.134,203.963 400.801,186.296 402.5,160.5C 407.894,163.388 412.56,167.222 416.5,172C 419.741,172.793 422.741,172.293 425.5,170.5 Z"/></g>
<g><path style="opacity:1" fill="#e41f3a" d="M 282.5,182.5 C 285.174,186.172 287.84,189.839 290.5,193.5C 288.056,194.871 286.722,197.038 286.5,200C 288.531,205.759 290.364,211.592 292,217.5C 293.399,226.594 292.065,235.261 288,243.5C 285.716,247.949 282.549,251.616 278.5,254.5C 246.846,257.036 226.346,243.036 217,212.5C 215.928,206.545 215.428,200.545 215.5,194.5C 224.31,178.932 237.643,172.766 255.5,176C 262.707,178.522 269.541,181.689 276,185.5C 278.511,185.16 280.678,184.16 282.5,182.5 Z"/></g>
<g><path style="opacity:1" fill="#317426" d="M 61.5,180.5 C 75.217,189.542 90.0503,191.875 106,187.5C 109.634,189.967 112.801,192.967 115.5,196.5C 103.03,203.47 93.8636,213.47 88,226.5C 72.2262,215.3 63.3929,199.967 61.5,180.5 Z"/></g>
<g><path style="opacity:1" fill="#c01a31" d="M 215.5,194.5 C 215.428,200.545 215.928,206.545 217,212.5C 226.346,243.036 246.846,257.036 278.5,254.5C 260.811,267.956 243.144,267.789 225.5,254C 209.78,237.726 205.613,218.892 213,197.5C 213.377,196.058 214.21,195.058 215.5,194.5 Z"/></g>
<g><path style="opacity:1" fill="#fd2f4a" d="M 215.5,277.5 C 181.516,280.693 160.349,265.693 152,232.5C 151.501,227.177 151.334,221.844 151.5,216.5C 157.857,205.06 167.691,199.06 181,198.5C 186.227,198.788 191.394,199.455 196.5,200.5C 191.549,228.313 199.882,251.313 221.5,269.5C 219.966,272.593 217.966,275.26 215.5,277.5 Z"/></g>
<g><path style="opacity:1" fill="#e31f3a" d="M 148.5,284.5 C 148.631,285.376 148.298,286.043 147.5,286.5C 118.892,276.299 104.892,255.966 105.5,225.5C 112.499,212.166 123.499,206.5 138.5,208.5C 125.311,236.03 128.644,261.363 148.5,284.5 Z"/></g>
<g><path style="opacity:1" fill="#d5283e" d="M 364.5,213.5 C 364.709,214.922 365.209,216.255 366,217.5C 380.133,232.824 397.3,238.157 417.5,233.5C 415.996,235.836 413.996,237.669 411.5,239C 398.025,246.022 384.525,246.189 371,239.5C 368.185,232.366 364.185,226.032 359,220.5C 358.441,216.284 360.274,213.951 364.5,213.5 Z"/></g>
<g><path style="opacity:1" fill="#d5283f" d="M 306.5,216.5 C 316.818,220.594 327.485,221.594 338.5,219.5C 334.174,225.005 328.507,228.505 321.5,230C 316.511,230.499 311.511,230.666 306.5,230.5C 306.5,225.833 306.5,221.167 306.5,216.5 Z"/></g>
<g><path style="opacity:1" fill="#d5283e" d="M 151.5,216.5 C 151.334,221.844 151.501,227.177 152,232.5C 160.349,265.693 181.516,280.693 215.5,277.5C 203.837,287.891 190.504,290.391 175.5,285C 151.522,273.213 141.689,254.047 146,227.5C 147.188,223.387 149.021,219.72 151.5,216.5 Z"/></g>
<g><path style="opacity:1" fill="#c11a31" d="M 105.5,225.5 C 104.892,255.966 118.892,276.299 147.5,286.5C 148.298,286.043 148.631,285.376 148.5,284.5C 151.839,287.506 155.172,290.506 158.5,293.5C 137.045,300.205 119.878,294.205 107,275.5C 99.4491,262.329 97.4491,248.329 101,233.5C 101.86,230.367 103.36,227.7 105.5,225.5 Z"/></g>
<g><path style="opacity:1" fill="#e31f3a" d="M 350.5,293.5 C 323.62,298.56 303.953,288.893 291.5,264.5C 295.926,258.653 299.593,252.32 302.5,245.5C 319.823,246.979 335.156,242.313 348.5,231.5C 356.827,240.629 361.16,251.462 361.5,264C 361.096,275.163 357.429,284.996 350.5,293.5 Z"/></g>
<g><path style="opacity:1" fill="#e11f39" d="M 427.5,282.5 C 420.897,284.525 414.23,284.859 407.5,283.5C 404.568,274.969 400.568,266.969 395.5,259.5C 412.82,256.937 425.987,248.27 435,233.5C 441.818,249.538 440.484,264.872 431,279.5C 429.961,280.71 428.794,281.71 427.5,282.5 Z"/></g>
<g><path style="opacity:1" fill="#e31f3a" d="M 382.5,329.5 C 372.285,331.352 362.285,330.686 352.5,327.5C 351.942,322.937 350.609,318.604 348.5,314.5C 366.861,301.787 376.361,284.121 377,261.5C 394.814,279.526 398.481,300.193 388,323.5C 386.669,325.996 384.836,327.996 382.5,329.5 Z"/></g>
<g><path style="opacity:1" fill="#c11a31" d="M 291.5,264.5 C 303.953,288.893 323.62,298.56 350.5,293.5C 340.631,303.729 328.631,307.229 314.5,304C 301.014,299.517 290.847,291.017 284,278.5C 282.972,276.156 282.306,273.823 282,271.5C 285.044,268.949 288.211,266.616 291.5,264.5 Z"/></g>
<g><path style="opacity:1" fill="#e41f3a" d="M 265.5,333.5 C 238.001,337.251 218.334,326.584 206.5,301.5C 206.863,300.817 207.196,300.15 207.5,299.5C 219.039,295.134 228.039,287.634 234.5,277C 240.336,278.451 246.336,279.284 252.5,279.5C 257.844,278.997 263.177,278.83 268.5,279C 270.684,284.536 273.517,289.703 277,294.5C 279.284,307.638 276.617,319.638 269,330.5C 267.961,331.71 266.794,332.71 265.5,333.5 Z"/></g>
<g><path style="opacity:1" fill="#bc1a30" d="M 427.5,282.5 C 423.427,287.05 418.427,290.383 412.5,292.5C 408.496,290.826 406.829,287.826 407.5,283.5C 414.23,284.859 420.897,284.525 427.5,282.5 Z"/></g>
<g><path style="opacity:1" fill="#f82e49" d="M 444.5,284.5 C 447.372,288.26 449.205,292.594 450,297.5C 452.657,313.221 448.657,326.887 438,338.5C 436.075,325.812 431.242,314.312 423.5,304C 432.263,299.305 439.263,292.805 444.5,284.5 Z"/></g>
<g><path style="opacity:1" fill="#d5283f" d="M 115.5,303.5 C 118.614,321.839 128.947,335.006 146.5,343C 156.577,346.61 166.91,347.444 177.5,345.5C 168.458,354.665 157.458,358.165 144.5,356C 129.352,351.857 118.019,342.857 110.5,329C 107.922,327.187 105.255,327.02 102.5,328.5C 101.029,324.282 100.029,319.949 99.5,315.5C 102.397,314.442 104.564,312.442 106,309.5C 106.173,305.459 106.673,301.459 107.5,297.5C 110.235,299.521 112.901,301.521 115.5,303.5 Z"/></g>
<g><path style="opacity:1" fill="#fd2f4a" d="M 177.5,345.5 C 166.91,347.444 156.577,346.61 146.5,343C 128.947,335.006 118.614,321.839 115.5,303.5C 136.273,314.882 156.44,313.882 176,300.5C 177.5,301 179,301.5 180.5,302C 181.943,310.23 184.276,318.23 187.5,326C 186.111,333.614 182.777,340.114 177.5,345.5 Z"/></g>
<g><path style="opacity:1" fill="#bf1a30" d="M 207.5,299.5 C 207.196,300.15 206.863,300.817 206.5,301.5C 218.334,326.584 238.001,337.251 265.5,333.5C 251.963,345.939 236.963,347.772 220.5,339C 206.381,330.383 198.381,318.049 196.5,302C 200.285,301.593 203.952,300.759 207.5,299.5 Z"/></g>
<g><path style="opacity:1" fill="#fc2f4a" d="M 327.5,370.5 C 305.391,374.189 287.558,367.189 274,349.5C 273.517,348.552 273.351,347.552 273.5,346.5C 284.163,336.594 290.496,324.261 292.5,309.5C 305.257,318.127 319.257,321.293 334.5,319C 342.724,337.692 340.39,354.859 327.5,370.5 Z"/></g>
<g><path style="opacity:1" fill="#e21f3a" d="M 408.5,374.5 C 402.158,374.666 395.825,374.5 389.5,374C 384.105,372.258 378.772,370.424 373.5,368.5C 371.597,363.693 368.93,359.36 365.5,355.5C 388.784,348.549 403.117,333.216 408.5,309.5C 417.934,318.213 422.267,329.046 421.5,342C 422.329,355.034 417.996,365.867 408.5,374.5 Z"/></g>
<g><path style="opacity:1" fill="#c11a31" d="M 352.5,327.5 C 362.285,330.686 372.285,331.352 382.5,329.5C 377.998,335.42 371.998,338.753 364.5,339.5C 361.167,339.5 357.833,339.5 354.5,339.5C 354.784,337.585 354.451,335.919 353.5,334.5C 353.702,332.05 353.369,329.717 352.5,327.5 Z"/></g>
<g><path style="opacity:1" fill="#7d1120" d="M 353.5,334.5 C 354.451,335.919 354.784,337.585 354.5,339.5C 357.833,339.5 361.167,339.5 364.5,339.5C 361.038,340.482 357.371,340.815 353.5,340.5C 353.5,338.5 353.5,336.5 353.5,334.5 Z"/></g>
<g><path style="opacity:1" fill="#e31f3a" d="M 260.5,386.5 C 235.983,390.158 217.149,381.491 204,360.5C 200.937,354.809 198.77,348.809 197.5,342.5C 197.517,340.972 198.184,340.472 199.5,341C 213.111,354.151 229.444,360.318 248.5,359.5C 252.365,367.896 257.699,375.229 264.5,381.5C 263.867,383.786 262.534,385.452 260.5,386.5 Z"/></g>
<g><path style="opacity:1" fill="#c11a31" d="M 197.5,342.5 C 198.77,348.809 200.937,354.809 204,360.5C 217.149,381.491 235.983,390.158 260.5,386.5C 253.921,393.948 245.588,397.281 235.5,396.5C 220.25,395.458 208.083,388.792 199,376.5C 193.552,369.355 190.885,361.355 191,352.5C 193.44,349.272 195.606,345.939 197.5,342.5 Z"/></g>
<g><path style="opacity:1" fill="#d6283f" d="M 273.5,346.5 C 273.351,347.552 273.517,348.552 274,349.5C 287.558,367.189 305.391,374.189 327.5,370.5C 321.794,373.561 320.461,377.894 323.5,383.5C 320.426,384.302 317.426,385.302 314.5,386.5C 313.723,383.888 312.056,382.055 309.5,381C 288.067,382.456 272.4,373.789 262.5,355C 265.983,352.027 269.65,349.194 273.5,346.5 Z"/></g>
<g><path style="opacity:0.996" fill="#fa2f49" d="M 453.5,379.5 C 452.756,384.885 451.756,390.218 450.5,395.5C 447.813,395.336 445.146,395.503 442.5,396C 439.707,399.105 437.04,402.272 434.5,405.5C 421.038,409.373 408.371,407.54 396.5,400C 395.402,399.23 395.402,398.397 396.5,397.5C 416.837,391.329 430.004,377.995 436,357.5C 440.159,354.529 442.659,355.696 443.5,361C 444.708,366.182 445.875,371.349 447,376.5C 449.045,377.926 451.212,378.926 453.5,379.5 Z"/></g>
<g><path style="opacity:1" fill="#e41f3a" d="M 353.5,425.5 C 326.632,429.566 306.965,419.566 294.5,395.5C 300.262,395.851 305.928,395.351 311.5,394C 313.747,392.005 314.747,389.505 314.5,386.5C 317.426,385.302 320.426,384.302 323.5,383.5C 326.95,387.285 330.617,387.451 334.5,384C 341.857,377.445 347.357,369.612 351,360.5C 366.286,378.906 368.619,398.906 358,420.5C 356.951,422.618 355.451,424.284 353.5,425.5 Z"/></g>
<g><path style="opacity:1" fill="#e21f3a" d="M 190.5,390.5 C 172.815,392.337 158.148,386.337 146.5,372.5C 149.977,371.833 153.311,371.166 156.5,370.5C 163.806,369.425 170.806,367.591 177.5,365C 180.395,374.292 184.729,382.792 190.5,390.5 Z"/></g>
<g><path style="opacity:1" fill="#c01a31" d="M 156.5,370.5 C 153.311,371.166 149.977,371.833 146.5,372.5C 158.148,386.337 172.815,392.337 190.5,390.5C 191.812,391.145 192.812,392.145 193.5,393.5C 173.386,404.985 155.219,402.318 139,385.5C 134.027,379.554 130.694,372.888 129,365.5C 137.589,369.992 146.755,371.658 156.5,370.5 Z"/></g>
<g><path style="opacity:1" fill="#c01a31" d="M 373.5,368.5 C 378.772,370.424 384.105,372.258 389.5,374C 395.825,374.5 402.158,374.666 408.5,374.5C 400.208,383.035 390.208,385.701 378.5,382.5C 377.39,377.617 375.723,372.95 373.5,368.5 Z"/></g>
<g><path style="opacity:1" fill="#c11a31" d="M 294.5,395.5 C 306.965,419.566 326.632,429.566 353.5,425.5C 342.846,436.097 330.18,439.263 315.5,435C 296.946,426.737 285.946,412.57 282.5,392.5C 286.499,393.5 290.499,394.5 294.5,395.5 Z"/></g>
<g><path style="opacity:1" fill="#d3273e" d="M 396.5,397.5 C 395.402,398.397 395.402,399.23 396.5,400C 408.371,407.54 421.038,409.373 434.5,405.5C 423.07,416.726 409.737,419.56 394.5,414C 390.2,408.699 385.534,403.699 380.5,399C 385.882,398.735 391.215,398.235 396.5,397.5 Z"/></g>
<g><path style="opacity:1" fill="#fa2f49" d="M 282.5,428.5 C 266.366,430.474 252.699,424.974 241.5,412C 242.737,411.768 243.737,411.268 244.5,410.5C 253.516,408.991 261.516,405.325 268.5,399.5C 271.312,410.122 275.978,419.788 282.5,428.5 Z"/></g>
<g><path style="opacity:1" fill="#fa2f49" d="M 220.5,431.5 C 220.03,432.693 219.03,433.36 217.5,433.5C 204.428,430.965 193.428,424.799 184.5,415C 185.056,414.617 185.389,414.117 185.5,413.5C 192.201,411.65 198.201,408.483 203.5,404C 204.833,403.333 206.167,403.333 207.5,404C 210.357,413.88 214.69,423.046 220.5,431.5 Z"/></g>
<g><path style="opacity:1" fill="#d5283e" d="M 244.5,410.5 C 243.737,411.268 242.737,411.768 241.5,412C 252.699,424.974 266.366,430.474 282.5,428.5C 283.779,430.123 285.113,431.79 286.5,433.5C 265.56,444.369 247.394,440.702 232,422.5C 229.329,419.163 227.163,415.496 225.5,411.5C 231.59,411.713 237.924,411.38 244.5,410.5 Z"/></g>
<g><path style="opacity:1" fill="#d3283e" d="M 185.5,413.5 C 185.389,414.117 185.056,414.617 184.5,415C 193.428,424.799 204.428,430.965 217.5,433.5C 219.03,433.36 220.03,432.693 220.5,431.5C 222.448,433.789 224.448,436.122 226.5,438.5C 218.066,443.587 209.066,444.754 199.5,442C 185.969,437.634 175.969,429.134 169.5,416.5C 174.849,415.498 180.182,414.498 185.5,413.5 Z"/></g>
<g><path style="opacity:1" fill="#fc2f4a" d="M 380.5,478.5 C 354.447,484.306 334.78,475.64 321.5,452.5C 325.982,451.833 330.316,451.166 334.5,450.5C 355.121,446.716 369.288,435.049 377,415.5C 382.835,422.169 386.835,429.835 389,438.5C 391.97,453.222 389.137,466.555 380.5,478.5 Z"/></g>
<g><path style="opacity:1" fill="#db1e38" d="M 418.5,429.5 C 419.833,429.5 421.167,429.5 422.5,429.5C 420.814,441.009 414.981,449.676 405,455.5C 404.976,447.711 404.143,440.045 402.5,432.5C 408.039,431.858 413.372,430.858 418.5,429.5 Z"/></g>
<g><path style="opacity:1" fill="#fb2f4a" d="M 285.5,474.5 C 264.344,477.95 247.177,471.284 234,454.5C 233.517,453.552 233.351,452.552 233.5,451.5C 235.781,450.392 237.948,449.058 240,447.5C 257.819,456.967 275.485,456.634 293,446.5C 297.816,457.849 295.316,467.182 285.5,474.5 Z"/></g>
<g><path style="opacity:1" fill="#d3283e" d="M 334.5,450.5 C 330.316,451.166 325.982,451.833 321.5,452.5C 334.78,475.64 354.447,484.306 380.5,478.5C 380.539,481.535 381.539,484.202 383.5,486.5C 380.101,489.228 376.434,491.561 372.5,493.5C 370.98,490.498 368.48,488.831 365,488.5C 357.219,490.925 349.386,491.091 341.5,489C 322.124,481.704 311.291,467.871 309,447.5C 311.66,448.834 314.494,449.668 317.5,450C 323.157,450.499 328.824,450.666 334.5,450.5 Z"/></g>
<g><path style="opacity:1" fill="#d5283e" d="M 233.5,451.5 C 233.351,452.552 233.517,453.552 234,454.5C 247.177,471.284 264.344,477.95 285.5,474.5C 281.084,479.713 275.417,482.879 268.5,484C 246.276,486.389 230.276,477.556 220.5,457.5C 224.744,455.519 229.077,453.519 233.5,451.5 Z"/></g>
<g><path style="opacity:1" fill="#c01a31" d="M 302.5,477.5 C 306.088,480.259 309.254,483.592 312,487.5C 314.979,489.644 317.812,491.978 320.5,494.5C 319.624,495.251 318.624,495.751 317.5,496C 307.777,497.501 298.443,496.334 289.5,492.5C 289.167,492.167 288.833,491.833 288.5,491.5C 294.188,487.812 298.855,483.145 302.5,477.5 Z"/></g>
</svg>
