<?xml version="1.0" encoding="UTF-8"?>
<!DOCTYPE svg PUBLIC "-//W3C//DTD SVG 1.1//EN" "http://www.w3.org/Graphics/SVG/1.1/DTD/svg11.dtd">
<svg xmlns="http://www.w3.org/2000/svg" version="1.1" width="512px" height="512px" style="shape-rendering:geometricPrecision; text-rendering:geometricPrecision; image-rendering:optimizeQuality; fill-rule:evenodd; clip-rule:evenodd" xmlns:xlink="http://www.w3.org/1999/xlink">
<g><path style="opacity:0.968" fill="#020201" d="M 15.5,-0.5 C 175.5,-0.5 335.5,-0.5 495.5,-0.5C 502.323,2.16635 506.49,7.16635 508,14.5C 508.667,21.5 508.667,28.5 508,35.5C 506.046,44.4548 500.546,49.6215 491.5,51C 458.168,51.5 424.835,51.6667 391.5,51.5C 391.5,56.1667 391.5,60.8333 391.5,65.5C 410.636,70.1372 422.136,82.1372 426,101.5C 426.667,136.5 426.667,171.5 426,206.5C 424.744,210.046 422.244,212.046 418.5,212.5C 415.207,211.59 412.707,209.59 411,206.5C 410.667,171.167 410.333,135.833 410,100.5C 403.818,84.3285 392.318,77.9951 375.5,81.5C 365.589,84.243 359.089,90.5763 356,100.5C 355.5,158.166 355.333,215.832 355.5,273.5C 366.5,273.5 377.5,273.5 388.5,273.5C 395.833,273.5 403.167,273.5 410.5,273.5C 410.333,262.162 410.5,250.828 411,239.5C 412.512,236.143 415.012,234.143 418.5,233.5C 422.17,233.327 424.67,234.993 426,238.5C 426.667,314.833 426.667,391.167 426,467.5C 424.697,474.941 421.197,481.108 415.5,486C 404.991,493.088 394.658,500.421 384.5,508C 381.691,509.093 379.024,510.26 376.5,511.5C 371.5,511.5 366.5,511.5 361.5,511.5C 349.667,507.826 342.5,499.826 340,487.5C 339.667,394.5 339.333,301.5 339,208.5C 316.967,215.935 298.967,210.268 285,191.5C 271.314,170.386 266.314,147.386 270,122.5C 272.747,103.504 280.914,87.3378 294.5,74C 300.532,69.4841 307.198,66.3174 314.5,64.5C 314.5,60.1667 314.5,55.8333 314.5,51.5C 278.5,51.5 242.5,51.5 206.5,51.5C 206.5,56.1667 206.5,60.8333 206.5,65.5C 228.381,70.8927 240.215,84.8927 242,107.5C 242.667,226.167 242.667,344.833 242,463.5C 241.504,471.323 238.67,478.156 233.5,484C 220.181,493.844 206.514,503.01 192.5,511.5C 187.167,511.5 181.833,511.5 176.5,511.5C 166.092,507.589 159.259,500.256 156,489.5C 155.333,458.833 155.333,428.167 156,397.5C 157.571,395.077 159.737,393.744 162.5,393.5C 167.04,393.708 169.707,396.041 170.5,400.5C 170.167,419.179 170.5,437.845 171.5,456.5C 172.107,456.376 172.44,456.043 172.5,455.5C 182.824,448.003 193.491,441.003 204.5,434.5C 212.11,432.548 219.277,433.548 226,437.5C 226.5,402.168 226.667,366.835 226.5,331.5C 219.167,331.5 211.833,331.5 204.5,331.5C 193.167,331.5 181.833,331.5 170.5,331.5C 170.667,343.838 170.5,356.171 170,368.5C 168.087,371.28 165.587,372.947 162.5,373.5C 159.325,373.16 157.159,371.493 156,368.5C 155.667,315.167 155.333,261.833 155,208.5C 132.383,215.961 114.049,209.961 100,190.5C 83.5664,163.45 80.2331,134.783 90,104.5C 95.4601,87.7349 105.96,75.2349 121.5,67C 124.432,65.8551 127.432,65.0218 130.5,64.5C 130.5,60.1667 130.5,55.8333 130.5,51.5C 91.7934,51.9697 53.1267,51.4697 14.5,50C 4.65121,44.6322 0.651209,36.2989 2.5,25C 0.701801,13.0912 5.03513,4.59124 15.5,-0.5 Z M 146.5,51.5 C 161.167,51.5 175.833,51.5 190.5,51.5C 190.5,56.1667 190.5,60.8333 190.5,65.5C 182.163,66.9185 174.996,70.5852 169,76.5C 162.849,70.0072 155.349,66.0072 146.5,64.5C 146.5,60.1667 146.5,55.8333 146.5,51.5 Z M 330.5,51.5 C 345.5,51.5 360.5,51.5 375.5,51.5C 375.5,56.1667 375.5,60.8333 375.5,65.5C 367.072,66.7982 359.572,70.1315 353,75.5C 346.501,69.8342 339.001,66.1676 330.5,64.5C 330.5,60.1667 330.5,55.8333 330.5,51.5 Z"/></g>
<g><path style="opacity:1" fill="#e99a57" d="M 19.5,14.5 C 72.8344,14.3333 126.168,14.5 179.5,15C 188.499,18.8236 192.499,25.6569 191.5,35.5C 134.166,35.6667 76.8324,35.5 19.5,35C 18.1842,28.1669 18.1842,21.3336 19.5,14.5 Z"/></g>
<g><path style="opacity:1" fill="#e99a57" d="M 201.5,15.5 C 255.665,14.3349 309.998,14.1682 364.5,15C 373.274,19.0452 376.94,25.8786 375.5,35.5C 319.167,35.5 262.833,35.5 206.5,35.5C 207.315,28.0934 205.649,21.4267 201.5,15.5 Z"/></g>
<g><path style="opacity:1" fill="#e99a57" d="M 386.5,14.5 C 421.74,14.1705 456.906,14.5039 492,15.5C 492.81,22.0816 492.643,28.5816 491.5,35C 457.835,35.5 424.168,35.6667 390.5,35.5C 391.3,28.0485 389.967,21.0485 386.5,14.5 Z"/></g>
<g><path style="opacity:1" fill="#f9672f" d="M 136.5,79.5 C 149.088,102.898 150.921,127.231 142,152.5C 141.284,154.879 140.117,156.879 138.5,158.5C 138.667,144.163 138.5,129.829 138,115.5C 135.487,111.788 131.987,110.622 127.5,112C 125.951,113.214 124.785,114.714 124,116.5C 123.333,130.833 123.333,145.167 124,159.5C 126.949,164.362 131.116,165.695 136.5,163.5C 131.588,172.413 124.922,179.746 116.5,185.5C 109.057,177.28 104.223,167.613 102,156.5C 96.7694,133.325 100.769,111.992 114,92.5C 119.721,84.9165 127.221,80.5832 136.5,79.5 Z"/></g>
<g><path style="opacity:1" fill="#fb5325" d="M 136.5,79.5 C 146.241,78.7075 153.908,82.2075 159.5,90C 157.948,93.7065 156.781,97.5398 156,101.5C 155.667,131.167 155.333,160.833 155,190.5C 140.701,199.825 127.868,198.158 116.5,185.5C 124.922,179.746 131.588,172.413 136.5,163.5C 137.441,161.95 138.107,160.284 138.5,158.5C 140.117,156.879 141.284,154.879 142,152.5C 150.921,127.231 149.088,102.898 136.5,79.5 Z"/></g>
<g><path style="opacity:1" fill="#f9672f" d="M 321.5,79.5 C 334.127,105.606 334.794,131.939 323.5,158.5C 323.667,144.163 323.5,129.829 323,115.5C 318.239,110.188 313.572,110.188 309,115.5C 308.333,130.5 308.333,145.5 309,160.5C 313.125,165.491 317.625,165.825 322.5,161.5C 317.912,171.755 310.579,179.422 300.5,184.5C 295.781,180.088 292.281,174.755 290,168.5C 282.394,147.038 282.728,125.705 291,104.5C 295.859,92.9744 304.026,84.8077 315.5,80C 317.473,79.5045 319.473,79.3379 321.5,79.5 Z"/></g>
<g><path style="opacity:1" fill="#f75225" d="M 321.5,79.5 C 330.747,79.2919 338.413,82.6252 344.5,89.5C 343.039,92.3819 341.873,95.3819 341,98.5C 340.667,129.167 340.333,159.833 340,190.5C 324.984,200.081 311.818,198.081 300.5,184.5C 310.579,179.422 317.912,171.755 322.5,161.5C 322.557,160.391 322.89,159.391 323.5,158.5C 334.794,131.939 334.127,105.606 321.5,79.5 Z"/></g>
<g><path style="opacity:1" fill="#eee1da" d="M 190.5,81.5 C 207.923,78.1307 219.757,84.7973 226,101.5C 226.5,158.832 226.667,216.166 226.5,273.5C 219.167,273.5 211.833,273.5 204.5,273.5C 204.667,217.832 204.5,162.166 204,106.5C 203.523,96.7151 199.69,88.5485 192.5,82C 191.906,81.5357 191.239,81.369 190.5,81.5 Z"/></g>
<g><path style="opacity:1" fill="#eee1da" d="M 375.5,81.5 C 392.318,77.9951 403.818,84.3285 410,100.5C 410.333,135.833 410.667,171.167 411,206.5C 412.707,209.59 415.207,211.59 418.5,212.5C 418.5,219.5 418.5,226.5 418.5,233.5C 415.012,234.143 412.512,236.143 411,239.5C 410.5,250.828 410.333,262.162 410.5,273.5C 403.167,273.5 395.833,273.5 388.5,273.5C 388.667,216.499 388.5,159.499 388,102.5C 386.857,93.5616 382.691,86.5616 375.5,81.5 Z"/></g>
<g><path style="opacity:1" fill="#f3e9e4" d="M 190.5,81.5 C 191.239,81.369 191.906,81.5357 192.5,82C 199.69,88.5485 203.523,96.7151 204,106.5C 204.5,162.166 204.667,217.832 204.5,273.5C 193.167,273.5 181.833,273.5 170.5,273.5C 170.333,216.499 170.5,159.499 171,102.5C 173.889,92.1121 180.389,85.1121 190.5,81.5 Z"/></g>
<g><path style="opacity:1" fill="#f4eae5" d="M 375.5,81.5 C 382.691,86.5616 386.857,93.5616 388,102.5C 388.5,159.499 388.667,216.499 388.5,273.5C 377.5,273.5 366.5,273.5 355.5,273.5C 355.333,215.832 355.5,158.166 356,100.5C 359.089,90.5763 365.589,84.243 375.5,81.5 Z"/></g>
<g><path style="opacity:1" fill="#0c0401" d="M 138.5,158.5 C 138.107,160.284 137.441,161.95 136.5,163.5C 131.116,165.695 126.949,164.362 124,159.5C 123.333,145.167 123.333,130.833 124,116.5C 124.785,114.714 125.951,113.214 127.5,112C 131.987,110.622 135.487,111.788 138,115.5C 138.5,129.829 138.667,144.163 138.5,158.5 Z"/></g>
<g><path style="opacity:1" fill="#060200" d="M 323.5,158.5 C 322.89,159.391 322.557,160.391 322.5,161.5C 317.625,165.825 313.125,165.491 309,160.5C 308.333,145.5 308.333,130.5 309,115.5C 313.572,110.188 318.239,110.188 323,115.5C 323.5,129.829 323.667,144.163 323.5,158.5 Z"/></g>
<g><path style="opacity:1" fill="#a03f1d" d="M 226.5,289.5 C 219.167,289.5 211.833,289.5 204.5,289.5C 193.5,289.5 182.5,289.5 171.5,289.5C 171.5,298.5 171.5,307.5 171.5,316.5C 170.506,307.348 170.173,298.015 170.5,288.5C 189.341,288.17 208.007,288.503 226.5,289.5 Z"/></g>
<g><path style="opacity:1" fill="#813216" d="M 410.5,316.5 C 410.5,307.5 410.5,298.5 410.5,289.5C 403.167,289.5 395.833,289.5 388.5,289.5C 377.5,289.5 366.5,289.5 355.5,289.5C 355.5,298.5 355.5,307.5 355.5,316.5C 354.506,307.348 354.173,298.015 354.5,288.5C 373.5,288.5 392.5,288.5 411.5,288.5C 411.827,298.015 411.494,307.348 410.5,316.5 Z"/></g>
<g><path style="opacity:1" fill="#fd682f" d="M 204.5,289.5 C 204.5,298.5 204.5,307.5 204.5,316.5C 193.5,316.5 182.5,316.5 171.5,316.5C 171.5,307.5 171.5,298.5 171.5,289.5C 182.5,289.5 193.5,289.5 204.5,289.5 Z"/></g>
<g><path style="opacity:1" fill="#fc5425" d="M 204.5,289.5 C 211.833,289.5 219.167,289.5 226.5,289.5C 226.5,298.5 226.5,307.5 226.5,316.5C 219.167,316.5 211.833,316.5 204.5,316.5C 204.5,307.5 204.5,298.5 204.5,289.5 Z"/></g>
<g><path style="opacity:1" fill="#fd682f" d="M 388.5,289.5 C 388.5,298.5 388.5,307.5 388.5,316.5C 377.5,316.5 366.5,316.5 355.5,316.5C 355.5,307.5 355.5,298.5 355.5,289.5C 366.5,289.5 377.5,289.5 388.5,289.5 Z"/></g>
<g><path style="opacity:1" fill="#fc5425" d="M 388.5,289.5 C 395.833,289.5 403.167,289.5 410.5,289.5C 410.5,298.5 410.5,307.5 410.5,316.5C 403.167,316.5 395.833,316.5 388.5,316.5C 388.5,307.5 388.5,298.5 388.5,289.5 Z"/></g>
<g><path style="opacity:1" fill="#f3e9e4" d="M 204.5,331.5 C 204.5,365.833 204.5,400.167 204.5,434.5C 193.491,441.003 182.824,448.003 172.5,455.5C 171.833,437.167 171.167,418.833 170.5,400.5C 169.707,396.041 167.04,393.708 162.5,393.5C 162.5,386.833 162.5,380.167 162.5,373.5C 165.587,372.947 168.087,371.28 170,368.5C 170.5,356.171 170.667,343.838 170.5,331.5C 181.833,331.5 193.167,331.5 204.5,331.5 Z"/></g>
<g><path style="opacity:1" fill="#eee1da" d="M 204.5,331.5 C 211.833,331.5 219.167,331.5 226.5,331.5C 226.667,366.835 226.5,402.168 226,437.5C 219.277,433.548 212.11,432.548 204.5,434.5C 204.5,400.167 204.5,365.833 204.5,331.5 Z"/></g>
<g><path style="opacity:1" fill="#f4eae5" d="M 388.5,331.5 C 388.5,365.833 388.5,400.167 388.5,434.5C 377.507,441.427 366.673,448.761 356,456.5C 355.5,414.835 355.333,373.168 355.5,331.5C 366.5,331.5 377.5,331.5 388.5,331.5 Z"/></g>
<g><path style="opacity:1" fill="#eee1da" d="M 388.5,331.5 C 395.833,331.5 403.167,331.5 410.5,331.5C 410.832,366.671 410.498,401.671 409.5,436.5C 402.722,433.522 395.722,432.856 388.5,434.5C 388.5,400.167 388.5,365.833 388.5,331.5 Z"/></g>
<g><path style="opacity:1" fill="#645f5c" d="M 410.5,331.5 C 411.83,366.669 411.83,402.002 410.5,437.5C 409.893,437.376 409.56,437.043 409.5,436.5C 410.498,401.671 410.832,366.671 410.5,331.5 Z"/></g>
<g><path style="opacity:1" fill="#b7b0ac" d="M 170.5,400.5 C 171.167,418.833 171.833,437.167 172.5,455.5C 172.44,456.043 172.107,456.376 171.5,456.5C 170.5,437.845 170.167,419.179 170.5,400.5 Z"/></g>
<g><path style="opacity:1" fill="#e87e69" d="M 175.5,492.5 C 184.521,488.225 192.688,482.558 200,475.5C 203.281,469.21 204.281,462.543 203,455.5C 202.329,454.748 201.496,454.414 200.5,454.5C 206.167,448.093 212.833,446.926 220.5,451C 226.507,456.032 228.007,462.198 225,469.5C 214.301,479.098 202.801,487.598 190.5,495C 184.808,497.547 179.808,496.713 175.5,492.5 Z"/></g>
<g><path style="opacity:1" fill="#e87e69" d="M 359.5,492.5 C 369.035,488.133 377.535,482.133 385,474.5C 388.851,467.689 389.351,460.689 386.5,453.5C 395.742,445.941 403.575,447.274 410,457.5C 411.041,462.44 410.374,467.106 408,471.5C 396.939,480.281 385.439,488.447 373.5,496C 368.051,497.393 363.384,496.226 359.5,492.5 Z"/></g>
<g><path style="opacity:1" fill="#f4927e" d="M 200.5,454.5 C 201.496,454.414 202.329,454.748 203,455.5C 204.281,462.543 203.281,469.21 200,475.5C 192.688,482.558 184.521,488.225 175.5,492.5C 170.058,487.236 169.224,481.236 173,474.5C 181.765,467.228 190.932,460.562 200.5,454.5 Z"/></g>
<g><path style="opacity:1" fill="#f5937e" d="M 386.5,453.5 C 389.351,460.689 388.851,467.689 385,474.5C 377.535,482.133 369.035,488.133 359.5,492.5C 357.864,491.251 356.697,489.584 356,487.5C 355.146,483.375 355.48,479.375 357,475.5C 359.843,472.325 363.01,469.491 366.5,467C 373.048,462.279 379.715,457.779 386.5,453.5 Z"/></g>
</svg>
