<?xml version="1.0" encoding="UTF-8"?>
<!DOCTYPE svg PUBLIC "-//W3C//DTD SVG 1.1//EN" "http://www.w3.org/Graphics/SVG/1.1/DTD/svg11.dtd">
<svg xmlns="http://www.w3.org/2000/svg" version="1.1" width="512px" height="512px" style="shape-rendering:geometricPrecision; text-rendering:geometricPrecision; image-rendering:optimizeQuality; fill-rule:evenodd; clip-rule:evenodd" xmlns:xlink="http://www.w3.org/1999/xlink">
<g><path style="opacity:0.971" fill="#030200" d="M 129.5,-0.5 C 132.167,-0.5 134.833,-0.5 137.5,-0.5C 147.962,4.22373 158.629,8.72373 169.5,13C 173.01,15.4896 174.01,18.6562 172.5,22.5C 170.999,25.0897 168.665,26.423 165.5,26.5C 155.963,23.4002 146.63,19.7335 137.5,15.5C 131.905,28.4495 126.405,41.4495 121,54.5C 117.142,71.901 121.975,86.401 135.5,98C 212.907,131.034 290.573,163.534 368.5,195.5C 375.144,181.874 380.977,167.874 386,153.5C 388.803,136.941 383.637,123.441 370.5,113C 313.396,88.4481 256.063,64.4481 198.5,41C 195.971,38.3583 194.971,35.1916 195.5,31.5C 197.902,27.9215 201.235,26.7549 205.5,28C 222.058,35.1127 238.724,41.946 255.5,48.5C 295.09,32.5329 334.423,16.1996 373.5,-0.5C 376.167,-0.5 378.833,-0.5 381.5,-0.5C 388.99,14.4431 395.824,29.7765 402,45.5C 410.235,69.7282 405.068,90.5615 386.5,108C 400.908,124.603 404.742,143.436 398,164.5C 392.695,176.943 387.529,189.443 382.5,202C 399.853,217.395 406.019,236.562 401,259.5C 395.553,273.845 389.72,288.012 383.5,302C 400.535,316.771 407.035,335.271 403,357.5C 397.305,372.389 391.472,387.223 385.5,402C 406.173,421.357 411.006,444.19 400,470.5C 394.805,482.419 389.805,494.419 385,506.5C 384.003,508.323 382.836,509.99 381.5,511.5C 378.833,511.5 376.167,511.5 373.5,511.5C 334.423,494.8 295.09,478.467 255.5,462.5C 215.91,478.467 176.577,494.8 137.5,511.5C 134.833,511.5 132.167,511.5 129.5,511.5C 120.046,493.247 112.213,474.247 106,454.5C 102.749,433.856 108.915,416.69 124.5,403C 110.092,386.397 106.258,367.564 113,346.5C 118.305,334.057 123.471,321.557 128.5,309C 111.147,293.605 104.981,274.438 110,251.5C 115.447,237.155 121.28,222.988 127.5,209C 109.262,192.951 103.095,173.118 109,149.5C 114.695,136.08 120.195,122.58 125.5,109C 104.827,89.6429 99.9941,66.8096 111,40.5C 116.666,26.5089 122.833,12.8422 129.5,-0.5 Z"/></g>
<g><path style="opacity:1" fill="#fdb353" d="M 172.5,22.5 C 180.272,25.219 187.939,28.219 195.5,31.5C 194.971,35.1916 195.971,38.3583 198.5,41C 256.063,64.4481 313.396,88.4481 370.5,113C 383.637,123.441 388.803,136.941 386,153.5C 380.977,167.874 375.144,181.874 368.5,195.5C 290.573,163.534 212.907,131.034 135.5,98C 121.975,86.401 117.142,71.901 121,54.5C 126.405,41.4495 131.905,28.4495 137.5,15.5C 146.63,19.7335 155.963,23.4002 165.5,26.5C 168.665,26.423 170.999,25.0897 172.5,22.5 Z"/></g>
<g><path style="opacity:1" fill="#fcda53" d="M 370.5,16.5 C 373.48,16.2411 375.313,17.5744 376,20.5C 380.667,31.8333 385.333,43.1667 390,54.5C 394.154,72.019 389.321,86.519 375.5,98C 374.167,98.6667 372.833,98.6667 371.5,98C 339.133,84.3248 306.799,70.6582 274.5,57C 306.56,43.3773 338.56,29.8773 370.5,16.5 Z"/></g>
<g><path style="opacity:1" fill="#fddc53" d="M 291.5,270.5 C 284.918,267.639 278.251,264.972 271.5,262.5C 272.451,257.228 270.451,253.728 265.5,252C 259.043,249.354 252.543,246.854 246,244.5C 243.458,245.205 241.292,246.539 239.5,248.5C 232.26,246.542 225.593,243.542 219.5,239.5C 220.041,236.348 219.041,233.848 216.5,232C 193.248,222.138 169.914,212.471 146.5,203C 127.182,193.537 119.016,178.037 122,156.5C 127.3,142.571 133.133,128.905 139.5,115.5C 213.793,146.431 288.126,177.264 362.5,208C 384.178,218.362 392.012,235.195 386,258.5C 380.593,270.642 375.759,282.975 371.5,295.5C 348.085,286.296 324.752,276.796 301.5,267C 297.235,265.755 293.902,266.922 291.5,270.5 Z"/></g>
<g><path style="opacity:1" fill="#fdb353" d="M 219.5,239.5 C 225.593,243.542 232.26,246.542 239.5,248.5C 238.549,253.772 240.549,257.272 245.5,259C 251.799,261.599 258.133,264.099 264.5,266.5C 267.313,265.929 269.646,264.596 271.5,262.5C 278.251,264.972 284.918,267.639 291.5,270.5C 291.07,273.862 292.07,276.695 294.5,279C 319.833,289.667 345.167,300.333 370.5,311C 386.051,320.946 392.217,335.113 389,353.5C 383.977,367.874 378.144,381.874 371.5,395.5C 297.207,364.569 222.874,333.736 148.5,303C 127.996,293.159 119.829,276.993 124,254.5C 129.405,241.449 134.905,228.449 140.5,215.5C 163.5,225 186.5,234.5 209.5,244C 214.217,245.429 217.55,243.929 219.5,239.5 Z"/></g>
<g><path style="opacity:1" fill="#080602" d="M 271.5,262.5 C 269.646,264.596 267.313,265.929 264.5,266.5C 258.133,264.099 251.799,261.599 245.5,259C 240.549,257.272 238.549,253.772 239.5,248.5C 241.292,246.539 243.458,245.205 246,244.5C 252.543,246.854 259.043,249.354 265.5,252C 270.451,253.728 272.451,257.228 271.5,262.5 Z"/></g>
<g><path style="opacity:1" fill="#fddb53" d="M 141.5,315.5 C 219.853,347.177 297.853,379.677 375.5,413C 391.853,426.917 395.687,443.751 387,463.5C 382.736,473.459 378.569,483.459 374.5,493.5C 373.833,493.833 373.167,494.167 372.5,494.5C 294.828,463.164 217.495,430.998 140.5,398C 125.247,385.24 120.747,369.406 127,350.5C 131.849,338.808 136.682,327.141 141.5,315.5 Z"/></g>
<g><path style="opacity:1" fill="#fcb253" d="M 135.5,412.5 C 169.347,425.752 203.014,439.586 236.5,454C 203.5,467.833 170.5,481.667 137.5,495.5C 132.905,484.884 128.405,474.217 124,463.5C 115.389,443.617 119.222,426.617 135.5,412.5 Z"/></g>
</svg>
