<?xml version="1.0" encoding="UTF-8"?>
<!DOCTYPE svg PUBLIC "-//W3C//DTD SVG 1.1//EN" "http://www.w3.org/Graphics/SVG/1.1/DTD/svg11.dtd">
<svg xmlns="http://www.w3.org/2000/svg" version="1.1" width="512px" height="512px" style="shape-rendering:geometricPrecision; text-rendering:geometricPrecision; image-rendering:optimizeQuality; fill-rule:evenodd; clip-rule:evenodd" xmlns:xlink="http://www.w3.org/1999/xlink">
<g><path style="opacity:0.962" fill="#010100" d="M 233.5,-0.5 C 248.167,-0.5 262.833,-0.5 277.5,-0.5C 367.555,10.0943 435.388,54.4276 481,132.5C 497.855,164.278 508.022,197.945 511.5,233.5C 511.5,248.167 511.5,262.833 511.5,277.5C 500.906,367.555 456.572,435.388 378.5,481C 346.722,497.855 313.055,508.022 277.5,511.5C 262.833,511.5 248.167,511.5 233.5,511.5C 143.445,500.906 75.612,456.572 30,378.5C 13.1449,346.722 2.97822,313.055 -0.5,277.5C -0.5,262.833 -0.5,248.167 -0.5,233.5C 10.0943,143.445 54.4276,75.612 132.5,30C 164.278,13.1449 197.945,2.97822 233.5,-0.5 Z"/></g>
<g><path style="opacity:1" fill="#d4a04f" d="M 431.5,91.5 C 434.068,97.2875 436.568,102.954 439,108.5C 431.826,99.4873 422.659,93.3207 411.5,90C 381.421,84.4562 359.588,95.2895 346,122.5C 337.953,146.681 343.12,167.515 361.5,185C 366.57,187.424 371.903,188.091 377.5,187C 380.096,185.864 382.763,185.031 385.5,184.5C 406.147,188.456 422.314,181.79 434,164.5C 438.716,155.973 439.882,147.14 437.5,138C 436.255,137.209 434.922,136.709 433.5,136.5C 433.5,136.167 433.5,135.833 433.5,135.5C 440.737,128.621 443.237,120.287 441,110.5C 467.534,171.101 470.701,232.935 450.5,296C 450.15,297.257 449.483,297.591 448.5,297C 431.041,279.06 410.375,274.06 386.5,282C 359.29,295.588 348.456,317.421 354,347.5C 357.371,360.189 364.537,370.023 375.5,377C 382.434,378.035 389.101,377.201 395.5,374.5C 398.482,374.963 401.482,375.296 404.5,375.5C 396.099,386.738 386.433,396.904 375.5,406C 365.963,413.595 355.963,420.428 345.5,426.5C 342.976,421.158 338.976,419.658 333.5,422C 329.731,426.121 329.731,430.288 333.5,434.5C 325.728,438.541 317.728,442.208 309.5,445.5C 308.702,445.043 308.369,444.376 308.5,443.5C 309.694,436.474 309.694,429.474 308.5,422.5C 310.009,417.798 311.009,412.965 311.5,408C 311.054,400.445 307.721,394.445 301.5,390C 277.277,374.04 253.61,374.706 230.5,392C 210.268,412.964 206.934,436.464 220.5,462.5C 182.845,464.603 146.845,457.769 112.5,442C 105.757,437.962 98.7568,434.462 91.5,431.5C 37.1483,379.33 11.6483,315.33 15,239.5C 24.5216,145.685 71.355,77.8518 155.5,36C 228.717,5.00676 300.717,7.67342 371.5,44C 393.935,56.7223 413.935,72.5556 431.5,91.5 Z"/></g>
<g><path style="opacity:1" fill="#0b0803" d="M 265.5,30.5 C 275.163,31.3266 277.496,35.8266 272.5,44C 264.412,46.8754 260.579,44.0421 261,35.5C 262.025,33.313 263.525,31.6464 265.5,30.5 Z"/></g>
<g><path style="opacity:1" fill="#ac702c" d="M 208.5,91.5 C 199.955,69.817 183.955,59.6503 160.5,61C 154.613,62.0532 151.946,65.5532 152.5,71.5C 145.44,74.392 140.106,79.2253 136.5,86C 134.618,86.1981 132.952,86.6981 131.5,87.5C 127.408,88.9868 125.242,91.9868 125,96.5C 123.741,120.021 133.907,136.021 155.5,144.5C 149.101,147.201 142.434,148.035 135.5,147C 122.009,138.198 114.509,125.698 113,109.5C 111.325,81.3488 123.491,61.8488 149.5,51C 172.175,44.4313 191.675,49.5979 208,66.5C 210.476,69.9482 211.643,73.7815 211.5,78C 211.215,82.6818 210.215,87.1818 208.5,91.5 Z"/></g>
<g><path style="opacity:1" fill="#040201" d="M 208.5,91.5 C 212.535,118.268 201.868,136.101 176.5,145C 169.472,145.675 162.472,145.508 155.5,144.5C 133.907,136.021 123.741,120.021 125,96.5C 125.242,91.9868 127.408,88.9868 131.5,87.5C 134.97,86.8748 137.804,87.8748 140,90.5C 138.366,99.4961 139.366,108.163 143,116.5C 143.949,118.093 145.115,119.426 146.5,120.5C 153.47,129.103 162.47,132.27 173.5,130C 190.624,123.589 197.124,111.423 193,93.5C 191.209,89.5613 188.709,86.228 185.5,83.5C 181.815,79.4183 177.149,76.9183 171.5,76C 166.821,75.8363 162.155,75.8363 157.5,76C 155.313,74.975 153.646,73.475 152.5,71.5C 151.946,65.5532 154.613,62.0532 160.5,61C 183.955,59.6503 199.955,69.817 208.5,91.5 Z"/></g>
<g><path style="opacity:1" fill="#0b0803" d="M 350.5,60.5 C 360.163,61.3266 362.496,65.8266 357.5,74C 349.412,76.8754 345.579,74.0421 346,65.5C 347.025,63.313 348.525,61.6464 350.5,60.5 Z"/></g>
<g><path style="opacity:1" fill="#785335" d="M 152.5,71.5 C 153.646,73.475 155.313,74.975 157.5,76C 162.155,75.8363 166.821,75.8363 171.5,76C 177.149,76.9183 181.815,79.4183 185.5,83.5C 185.738,104.103 175.738,116.603 155.5,121C 152.445,121.634 149.445,121.468 146.5,120.5C 145.115,119.426 143.949,118.093 143,116.5C 139.366,108.163 138.366,99.4961 140,90.5C 137.804,87.8748 134.97,86.8748 131.5,87.5C 132.952,86.6981 134.618,86.1981 136.5,86C 140.106,79.2253 145.44,74.392 152.5,71.5 Z"/></g>
<g><path style="opacity:1" fill="#0b0803" d="M 320.5,75.5 C 330.163,76.3266 332.496,80.8266 327.5,89C 319.412,91.8754 315.579,89.0421 316,80.5C 317.025,78.313 318.525,76.6464 320.5,75.5 Z"/></g>
<g><path style="opacity:1" fill="#553e31" d="M 185.5,83.5 C 188.709,86.228 191.209,89.5613 193,93.5C 197.124,111.423 190.624,123.589 173.5,130C 162.47,132.27 153.47,129.103 146.5,120.5C 149.445,121.468 152.445,121.634 155.5,121C 175.738,116.603 185.738,104.103 185.5,83.5 Z"/></g>
<g><path style="opacity:1" fill="#0b0803" d="M 235.5,90.5 C 245.163,91.3266 247.496,95.8266 242.5,104C 234.412,106.875 230.579,104.042 231,95.5C 232.025,93.313 233.525,91.6464 235.5,90.5 Z"/></g>
<g><path style="opacity:1" fill="#ab702b" d="M 431.5,91.5 C 488.334,154.56 507.834,227.894 490,311.5C 470.081,385.539 425.915,439.705 357.5,474C 270.752,510.873 188.752,502.54 111.5,449C 104.344,443.674 97.6773,437.841 91.5,431.5C 98.7568,434.462 105.757,437.962 112.5,442C 146.845,457.769 182.845,464.603 220.5,462.5C 206.934,436.464 210.268,412.964 230.5,392C 253.61,374.706 277.277,374.04 301.5,390C 307.721,394.445 311.054,400.445 311.5,408C 311.009,412.965 310.009,417.798 308.5,422.5C 300.621,400.472 284.955,390.306 261.5,392C 259.253,393.995 258.253,396.495 258.5,399.5C 244.706,402.96 236.372,411.627 233.5,425.5C 231.901,425.232 230.568,425.566 229.5,426.5C 227.887,426.944 226.72,427.944 226,429.5C 224.754,453.259 235.587,468.426 258.5,475C 283.489,477.355 300.156,466.855 308.5,443.5C 308.369,444.376 308.702,445.043 309.5,445.5C 317.728,442.208 325.728,438.541 333.5,434.5C 340.793,436.739 344.793,434.072 345.5,426.5C 355.963,420.428 365.963,413.595 375.5,406C 386.433,396.904 396.099,386.738 404.5,375.5C 410.537,376.123 413.871,373.457 414.5,367.5C 428.5,363.5 437.5,354.5 441.5,340.5C 444.785,340.731 447.285,339.397 449,336.5C 449.801,313.285 438.968,298.452 416.5,292C 392.843,288.33 376.343,297.497 367,319.5C 361.229,345.963 370.729,364.296 395.5,374.5C 389.101,377.201 382.434,378.035 375.5,377C 364.537,370.023 357.371,360.189 354,347.5C 348.456,317.421 359.29,295.588 386.5,282C 410.375,274.06 431.041,279.06 448.5,297C 449.483,297.591 450.15,297.257 450.5,296C 470.701,232.935 467.534,171.101 441,110.5C 443.237,120.287 440.737,128.621 433.5,135.5C 432.504,135.586 431.671,135.252 431,134.5C 427.175,120.841 418.341,112.507 404.5,109.5C 400.03,108.514 395.363,108.181 390.5,108.5C 388.985,105.647 386.652,103.981 383.5,103.5C 366.147,110.168 356.48,122.835 354.5,141.5C 355.343,162.909 365.677,177.243 385.5,184.5C 382.763,185.031 380.096,185.864 377.5,187C 371.903,188.091 366.57,187.424 361.5,185C 343.12,167.515 337.953,146.681 346,122.5C 359.588,95.2895 381.421,84.4562 411.5,90C 422.659,93.3207 431.826,99.4873 439,108.5C 436.568,102.954 434.068,97.2875 431.5,91.5 Z"/></g>
<g><path style="opacity:1" fill="#ab702b" d="M 328.5,141.5 C 319.387,119.103 302.72,109.269 278.5,112C 261.848,115.985 251.015,126.152 246,142.5C 245.333,146.167 245.333,149.833 246,153.5C 247.571,155.923 249.737,157.256 252.5,157.5C 252.263,158.791 252.596,159.791 253.5,160.5C 256.604,174.273 264.937,183.273 278.5,187.5C 279.298,187.957 279.631,188.624 279.5,189.5C 271.546,197.877 262.212,199.71 251.5,195C 231.326,175.127 227.16,152.293 239,126.5C 256.335,100.722 279.835,92.8882 309.5,103C 319.089,106.87 326.256,113.37 331,122.5C 331.989,129.15 331.156,135.483 328.5,141.5 Z"/></g>
<g><path style="opacity:1" fill="#040201" d="M 390.5,108.5 C 390.708,110.92 390.374,113.253 389.5,115.5C 371.736,124.347 366.236,138.014 373,156.5C 373.949,158.093 375.115,159.426 376.5,160.5C 384.469,170.096 394.469,172.93 406.5,169C 418.793,163.603 424.96,154.103 425,140.5C 426.85,137.159 429.683,135.826 433.5,136.5C 434.922,136.709 436.255,137.209 437.5,138C 439.882,147.14 438.716,155.973 434,164.5C 422.314,181.79 406.147,188.456 385.5,184.5C 365.677,177.243 355.343,162.909 354.5,141.5C 356.48,122.835 366.147,110.168 383.5,103.5C 386.652,103.981 388.985,105.647 390.5,108.5 Z"/></g>
<g><path style="opacity:1" fill="#785335" d="M 390.5,108.5 C 395.363,108.181 400.03,108.514 404.5,109.5C 414.789,115.327 418.289,123.994 415,135.5C 408.543,153.804 395.71,162.137 376.5,160.5C 375.115,159.426 373.949,158.093 373,156.5C 366.236,138.014 371.736,124.347 389.5,115.5C 390.374,113.253 390.708,110.92 390.5,108.5 Z"/></g>
<g><path style="opacity:1" fill="#030200" d="M 328.5,141.5 C 332.789,168.439 322.122,186.272 296.5,195C 292.167,195.667 287.833,195.667 283.5,195C 281.393,193.736 280.393,191.903 280.5,189.5C 279.959,186.348 280.959,183.848 283.5,182C 305.579,180.262 315.746,168.429 314,146.5C 312.513,141.2 309.68,136.867 305.5,133.5C 302.288,130.058 298.288,127.891 293.5,127C 281.123,124.347 271.29,128.181 264,138.5C 261.386,143.176 259.719,148.176 259,153.5C 257.362,155.734 255.195,157.067 252.5,157.5C 249.737,157.256 247.571,155.923 246,153.5C 245.333,149.833 245.333,146.167 246,142.5C 251.015,126.152 261.848,115.985 278.5,112C 302.72,109.269 319.387,119.103 328.5,141.5 Z"/></g>
<g><path style="opacity:1" fill="#563e31" d="M 404.5,109.5 C 418.341,112.507 427.175,120.841 431,134.5C 431.671,135.252 432.504,135.586 433.5,135.5C 433.5,135.833 433.5,136.167 433.5,136.5C 429.683,135.826 426.85,137.159 425,140.5C 424.96,154.103 418.793,163.603 406.5,169C 394.469,172.93 384.469,170.096 376.5,160.5C 395.71,162.137 408.543,153.804 415,135.5C 418.289,123.994 414.789,115.327 404.5,109.5 Z"/></g>
<g><path style="opacity:1" fill="#0b0803" d="M 85.5,120.5 C 95.1627,121.327 97.496,125.827 92.5,134C 84.4124,136.875 80.579,134.042 81,125.5C 82.025,123.313 83.525,121.646 85.5,120.5 Z"/></g>
<g><path style="opacity:1" fill="#795335" d="M 305.5,133.5 C 306.402,151.53 298.402,163.697 281.5,170C 269.176,173.512 259.843,170.345 253.5,160.5C 252.596,159.791 252.263,158.791 252.5,157.5C 255.195,157.067 257.362,155.734 259,153.5C 259.719,148.176 261.386,143.176 264,138.5C 271.29,128.181 281.123,124.347 293.5,127C 298.288,127.891 302.288,130.058 305.5,133.5 Z"/></g>
<g><path style="opacity:1" fill="#553e31" d="M 305.5,133.5 C 309.68,136.867 312.513,141.2 314,146.5C 315.746,168.429 305.579,180.262 283.5,182C 280.959,183.848 279.959,186.348 280.5,189.5C 280.167,189.5 279.833,189.5 279.5,189.5C 279.631,188.624 279.298,187.957 278.5,187.5C 264.937,183.273 256.604,174.273 253.5,160.5C 259.843,170.345 269.176,173.512 281.5,170C 298.402,163.697 306.402,151.53 305.5,133.5 Z"/></g>
<g><path style="opacity:1" fill="#0b0803" d="M 160.5,165.5 C 170.163,166.327 172.496,170.827 167.5,179C 159.412,181.875 155.579,179.042 156,170.5C 157.025,168.313 158.525,166.646 160.5,165.5 Z"/></g>
<g><path style="opacity:1" fill="#0b0803" d="M 45.5,180.5 C 55.1627,181.327 57.496,185.827 52.5,194C 44.4124,196.875 40.579,194.042 41,185.5C 42.025,183.313 43.525,181.646 45.5,180.5 Z"/></g>
<g><path style="opacity:1" fill="#0b0803" d="M 190.5,180.5 C 200.163,181.327 202.496,185.827 197.5,194C 189.412,196.875 185.579,194.042 186,185.5C 187.025,183.313 188.525,181.646 190.5,180.5 Z"/></g>
<g><path style="opacity:1" fill="#0b0803" d="M 330.5,180.5 C 340.163,181.327 342.496,185.827 337.5,194C 329.412,196.875 325.579,194.042 326,185.5C 327.025,183.313 328.525,181.646 330.5,180.5 Z"/></g>
<g><path style="opacity:1" fill="#0b0803" d="M 160.5,195.5 C 170.163,196.327 172.496,200.827 167.5,209C 159.412,211.875 155.579,209.042 156,200.5C 157.025,198.313 158.525,196.646 160.5,195.5 Z"/></g>
<g><path style="opacity:1" fill="#ab702b" d="M 128.5,251.5 C 117.322,225.413 97.9884,216.246 70.5,224C 66.9518,226.591 65.6185,230.091 66.5,234.5C 61.0707,239.116 56.9041,244.783 54,251.5C 52.3775,252.099 50.8775,252.766 49.5,253.5C 45.9906,255.982 44.6573,259.482 45.5,264C 46.5704,284.222 56.5704,297.722 75.5,304.5C 69.101,307.201 62.4344,308.035 55.5,307C 42.0088,298.198 34.5088,285.698 33,269.5C 31.3245,241.349 43.4912,221.849 69.5,211C 92.1749,204.431 111.675,209.598 128,226.5C 130.476,229.948 131.643,233.781 131.5,238C 131.215,242.682 130.215,247.182 128.5,251.5 Z"/></g>
<g><path style="opacity:1" fill="#ab702b" d="M 288.5,251.5 C 275.98,223.411 255.313,214.911 226.5,226C 203.12,242.691 198.62,263.525 213,288.5C 218.967,296.212 226.467,301.546 235.5,304.5C 229.101,307.201 222.434,308.035 215.5,307C 202.021,298.228 194.521,285.728 193,269.5C 191.325,241.349 203.491,221.849 229.5,211C 252.175,204.431 271.675,209.598 288,226.5C 290.476,229.948 291.643,233.781 291.5,238C 291.215,242.682 290.215,247.182 288.5,251.5 Z"/></g>
<g><path style="opacity:1" fill="#0b0803" d="M 445.5,210.5 C 455.163,211.327 457.496,215.827 452.5,224C 444.412,226.875 440.579,224.042 441,215.5C 442.025,213.313 443.525,211.646 445.5,210.5 Z"/></g>
<g><path style="opacity:1" fill="#030201" d="M 128.5,251.5 C 132.535,278.268 121.868,296.101 96.5,305C 89.4639,305.72 82.4639,305.553 75.5,304.5C 56.5704,297.722 46.5704,284.222 45.5,264C 44.6573,259.482 45.9906,255.982 49.5,253.5C 52.6852,253.02 55.5185,253.686 58,255.5C 58.821,262.671 60.4877,269.671 63,276.5C 64.0491,278.618 65.5491,280.284 67.5,281.5C 75.3851,290.369 85.0518,292.869 96.5,289C 112.555,281.051 117.722,268.551 112,251.5C 110.533,248.213 108.366,245.546 105.5,243.5C 99.175,237.163 91.5083,234.663 82.5,236C 79.3957,237.068 76.229,237.901 73,238.5C 70.4131,237.793 68.2464,236.459 66.5,234.5C 65.6185,230.091 66.9518,226.591 70.5,224C 97.9884,216.246 117.322,225.413 128.5,251.5 Z"/></g>
<g><path style="opacity:1" fill="#030201" d="M 288.5,251.5 C 292.535,278.268 281.868,296.101 256.5,305C 249.482,305.565 242.482,305.399 235.5,304.5C 226.467,301.546 218.967,296.212 213,288.5C 198.62,263.525 203.12,242.691 226.5,226C 255.313,214.911 275.98,223.411 288.5,251.5 Z"/></g>
<g><path style="opacity:1" fill="#0b0803" d="M 345.5,225.5 C 355.163,226.327 357.496,230.827 352.5,239C 344.412,241.875 340.579,239.042 341,230.5C 342.025,228.313 343.525,226.646 345.5,225.5 Z"/></g>
<g><path style="opacity:1" fill="#0b0803" d="M 375.5,225.5 C 385.163,226.327 387.496,230.827 382.5,239C 374.412,241.875 370.579,239.042 371,230.5C 372.025,228.313 373.525,226.646 375.5,225.5 Z"/></g>
<g><path style="opacity:1" fill="#785335" d="M 66.5,234.5 C 68.2464,236.459 70.4131,237.793 73,238.5C 76.229,237.901 79.3957,237.068 82.5,236C 91.5083,234.663 99.175,237.163 105.5,243.5C 106.44,260.452 99.1066,272.286 83.5,279C 78.3114,280.798 72.9781,281.631 67.5,281.5C 65.5491,280.284 64.0491,278.618 63,276.5C 60.4877,269.671 58.821,262.671 58,255.5C 55.5185,253.686 52.6852,253.02 49.5,253.5C 50.8775,252.766 52.3775,252.099 54,251.5C 56.9041,244.783 61.0707,239.116 66.5,234.5 Z"/></g>
<g><path style="opacity:1" fill="#785335" d="M 265.5,243.5 C 266.44,260.452 259.107,272.286 243.5,279C 238.311,280.798 232.978,281.631 227.5,281.5C 217.576,270.037 217.076,258.037 226,245.5C 238.714,233.022 251.881,232.355 265.5,243.5 Z"/></g>
<g><path style="opacity:1" fill="#0b0803" d="M 155.5,240.5 C 165.163,241.327 167.496,245.827 162.5,254C 154.412,256.875 150.579,254.042 151,245.5C 152.025,243.313 153.525,241.646 155.5,240.5 Z"/></g>
<g><path style="opacity:1" fill="#0b0803" d="M 300.5,240.5 C 310.163,241.327 312.496,245.827 307.5,254C 299.412,256.875 295.579,254.042 296,245.5C 297.025,243.313 298.525,241.646 300.5,240.5 Z"/></g>
<g><path style="opacity:1" fill="#553e31" d="M 105.5,243.5 C 108.366,245.546 110.533,248.213 112,251.5C 117.722,268.551 112.555,281.051 96.5,289C 85.0518,292.869 75.3851,290.369 67.5,281.5C 72.9781,281.631 78.3114,280.798 83.5,279C 99.1066,272.286 106.44,260.452 105.5,243.5 Z"/></g>
<g><path style="opacity:1" fill="#553e31" d="M 265.5,243.5 C 274.369,251.385 276.869,261.052 273,272.5C 265.697,287.566 253.864,293.066 237.5,289C 233.203,287.695 229.869,285.195 227.5,281.5C 232.978,281.631 238.311,280.798 243.5,279C 259.107,272.286 266.44,260.452 265.5,243.5 Z"/></g>
<g><path style="opacity:1" fill="#0b0803" d="M 375.5,255.5 C 385.163,256.327 387.496,260.827 382.5,269C 374.412,271.875 370.579,269.042 371,260.5C 372.025,258.313 373.525,256.646 375.5,255.5 Z"/></g>
<g><path style="opacity:1" fill="#0b0803" d="M 130.5,285.5 C 140.163,286.327 142.496,290.827 137.5,299C 129.412,301.875 125.579,299.042 126,290.5C 127.025,288.313 128.525,286.646 130.5,285.5 Z"/></g>
<g><path style="opacity:1" fill="#0b0803" d="M 180.5,285.5 C 190.163,286.327 192.496,290.827 187.5,299C 179.412,301.875 175.579,299.042 176,290.5C 177.025,288.313 178.525,286.646 180.5,285.5 Z"/></g>
<g><path style="opacity:1" fill="#030200" d="M 441.5,340.5 C 439.097,340.607 437.264,339.607 436,337.5C 435.099,332.065 433.766,326.732 432,321.5C 430.533,318.213 428.366,315.546 425.5,313.5C 414.011,303.571 402.011,303.071 389.5,312C 377.528,324.185 376.528,337.019 386.5,350.5C 392.983,358.063 401.316,361.896 411.5,362C 413.16,363.488 414.16,365.321 414.5,367.5C 413.871,373.457 410.537,376.123 404.5,375.5C 401.482,375.296 398.482,374.963 395.5,374.5C 370.729,364.296 361.229,345.963 367,319.5C 376.343,297.497 392.843,288.33 416.5,292C 438.968,298.452 449.801,313.285 449,336.5C 447.285,339.397 444.785,340.731 441.5,340.5 Z"/></g>
<g><path style="opacity:1" fill="#785335" d="M 425.5,313.5 C 425.738,334.103 415.738,346.603 395.5,351C 392.445,351.634 389.445,351.468 386.5,350.5C 376.528,337.019 377.528,324.185 389.5,312C 402.011,303.071 414.011,303.571 425.5,313.5 Z"/></g>
<g><path style="opacity:1" fill="#ac702c" d="M 198.5,351.5 C 189.955,329.817 173.955,319.65 150.5,321C 145.293,322.581 142.959,326.081 143.5,331.5C 141.407,332.045 139.407,332.878 137.5,334C 133.596,337.083 129.929,340.25 126.5,343.5C 120.129,343.032 116.629,346.032 116,352.5C 112.154,377.827 121.988,395.161 145.5,404.5C 139.101,407.201 132.434,408.035 125.5,407C 112.009,398.198 104.509,385.698 103,369.5C 101.325,341.349 113.491,321.849 139.5,311C 162.175,304.431 181.675,309.598 198,326.5C 200.476,329.948 201.643,333.781 201.5,338C 201.215,342.682 200.215,347.182 198.5,351.5 Z"/></g>
<g><path style="opacity:1" fill="#0b0803" d="M 325.5,310.5 C 335.163,311.327 337.496,315.827 332.5,324C 324.412,326.875 320.579,324.042 321,315.5C 322.025,313.313 323.525,311.646 325.5,310.5 Z"/></g>
<g><path style="opacity:1" fill="#563e31" d="M 425.5,313.5 C 428.366,315.546 430.533,318.213 432,321.5C 433.766,326.732 435.099,332.065 436,337.5C 437.264,339.607 439.097,340.607 441.5,340.5C 437.5,354.5 428.5,363.5 414.5,367.5C 414.16,365.321 413.16,363.488 411.5,362C 401.316,361.896 392.983,358.063 386.5,350.5C 389.445,351.468 392.445,351.634 395.5,351C 415.738,346.603 425.738,334.103 425.5,313.5 Z"/></g>
<g><path style="opacity:1" fill="#040201" d="M 198.5,351.5 C 202.535,378.268 191.868,396.101 166.5,405C 159.472,405.675 152.472,405.508 145.5,404.5C 121.988,395.161 112.154,377.827 116,352.5C 116.629,346.032 120.129,343.032 126.5,343.5C 128.593,344.058 130.093,345.391 131,347.5C 130.345,354.134 130.012,360.8 130,367.5C 131.143,372.453 133.31,376.786 136.5,380.5C 143.47,389.103 152.47,392.27 163.5,390C 180.624,383.589 187.124,371.423 183,353.5C 181.209,349.561 178.709,346.228 175.5,343.5C 171.815,339.418 167.149,336.918 161.5,336C 156.5,335.667 151.5,335.333 146.5,335C 145.364,333.855 144.364,332.688 143.5,331.5C 142.959,326.081 145.293,322.581 150.5,321C 173.955,319.65 189.955,329.817 198.5,351.5 Z"/></g>
<g><path style="opacity:1" fill="#0b0803" d="M 65.5,330.5 C 75.1627,331.327 77.496,335.827 72.5,344C 64.4124,346.875 60.579,344.042 61,335.5C 62.025,333.313 63.525,331.646 65.5,330.5 Z"/></g>
<g><path style="opacity:1" fill="#785335" d="M 143.5,331.5 C 144.364,332.688 145.364,333.855 146.5,335C 151.5,335.333 156.5,335.667 161.5,336C 167.149,336.918 171.815,339.418 175.5,343.5C 175.738,364.103 165.738,376.603 145.5,381C 142.445,381.634 139.445,381.468 136.5,380.5C 133.31,376.786 131.143,372.453 130,367.5C 130.012,360.8 130.345,354.134 131,347.5C 130.093,345.391 128.593,344.058 126.5,343.5C 129.929,340.25 133.596,337.083 137.5,334C 139.407,332.878 141.407,332.045 143.5,331.5 Z"/></g>
<g><path style="opacity:1" fill="#0b0803" d="M 305.5,330.5 C 315.163,331.327 317.496,335.827 312.5,344C 304.412,346.875 300.579,344.042 301,335.5C 302.025,333.313 303.525,331.646 305.5,330.5 Z"/></g>
<g><path style="opacity:1" fill="#0b0803" d="M 245.5,340.5 C 255.163,341.327 257.496,345.827 252.5,354C 244.412,356.875 240.579,354.042 241,345.5C 242.025,343.313 243.525,341.646 245.5,340.5 Z"/></g>
<g><path style="opacity:1" fill="#553e31" d="M 175.5,343.5 C 178.709,346.228 181.209,349.561 183,353.5C 187.124,371.423 180.624,383.589 163.5,390C 152.47,392.27 143.47,389.103 136.5,380.5C 139.445,381.468 142.445,381.634 145.5,381C 165.738,376.603 175.738,364.103 175.5,343.5 Z"/></g>
<g><path style="opacity:1" fill="#0b0803" d="M 335.5,360.5 C 345.163,361.327 347.496,365.827 342.5,374C 334.412,376.875 330.579,374.042 331,365.5C 332.025,363.313 333.525,361.646 335.5,360.5 Z"/></g>
<g><path style="opacity:1" fill="#030100" d="M 308.5,422.5 C 309.694,429.474 309.694,436.474 308.5,443.5C 300.156,466.855 283.489,477.355 258.5,475C 235.587,468.426 224.754,453.259 226,429.5C 226.72,427.944 227.887,426.944 229.5,426.5C 232.685,426.02 235.519,426.686 238,428.5C 239.01,433.904 240.343,439.237 242,444.5C 243.277,446.747 244.777,448.747 246.5,450.5C 253.47,459.103 262.47,462.27 273.5,460C 290.624,453.589 297.124,441.423 293,423.5C 291.695,419.203 289.195,415.869 285.5,413.5C 281.852,410.003 277.519,407.503 272.5,406C 268.778,405.762 265.111,405.262 261.5,404.5C 260.048,403.06 259.048,401.394 258.5,399.5C 258.253,396.495 259.253,393.995 261.5,392C 284.955,390.306 300.621,400.472 308.5,422.5 Z"/></g>
<g><path style="opacity:1" fill="#795335" d="M 258.5,399.5 C 259.048,401.394 260.048,403.06 261.5,404.5C 265.111,405.262 268.778,405.762 272.5,406C 277.519,407.503 281.852,410.003 285.5,413.5C 285.738,434.103 275.738,446.603 255.5,451C 252.445,451.634 249.445,451.468 246.5,450.5C 244.777,448.747 243.277,446.747 242,444.5C 240.343,439.237 239.01,433.904 238,428.5C 235.519,426.686 232.685,426.02 229.5,426.5C 230.568,425.566 231.901,425.232 233.5,425.5C 236.372,411.627 244.706,402.96 258.5,399.5 Z"/></g>
<g><path style="opacity:1" fill="#0b0803" d="M 195.5,400.5 C 205.163,401.327 207.496,405.827 202.5,414C 194.412,416.875 190.579,414.042 191,405.5C 192.025,403.313 193.525,401.646 195.5,400.5 Z"/></g>
<g><path style="opacity:1" fill="#0b0602" d="M 414.5,410.5 C 425.135,410.596 427.802,415.096 422.5,424C 413.945,426.789 410.112,423.622 411,414.5C 412.376,413.295 413.542,411.962 414.5,410.5 Z"/></g>
<g><path style="opacity:1" fill="#553e31" d="M 285.5,413.5 C 289.195,415.869 291.695,419.203 293,423.5C 297.124,441.423 290.624,453.589 273.5,460C 262.47,462.27 253.47,459.103 246.5,450.5C 249.445,451.468 252.445,451.634 255.5,451C 275.738,446.603 285.738,434.103 285.5,413.5 Z"/></g>
<g><path style="opacity:1" fill="#0b0703" d="M 345.5,426.5 C 344.793,434.072 340.793,436.739 333.5,434.5C 329.731,430.288 329.731,426.121 333.5,422C 338.976,419.658 342.976,421.158 345.5,426.5 Z"/></g>
<g><path style="opacity:1" fill="#0b0803" d="M 165.5,440.5 C 175.163,441.327 177.496,445.827 172.5,454C 164.412,456.875 160.579,454.042 161,445.5C 162.025,443.313 163.525,441.646 165.5,440.5 Z"/></g>
</svg>
