<?xml version="1.0" encoding="UTF-8"?>
<!DOCTYPE svg PUBLIC "-//W3C//DTD SVG 1.1//EN" "http://www.w3.org/Graphics/SVG/1.1/DTD/svg11.dtd">
<svg xmlns="http://www.w3.org/2000/svg" version="1.1" width="512px" height="512px" style="shape-rendering:geometricPrecision; text-rendering:geometricPrecision; image-rendering:optimizeQuality; fill-rule:evenodd; clip-rule:evenodd" xmlns:xlink="http://www.w3.org/1999/xlink">
<g><path style="opacity:0.97" fill="#020100" d="M 300.5,19.5 C 316.637,17.4296 329.971,22.4296 340.5,34.5C 355.618,34.0644 367.951,39.5644 377.5,51C 392.79,50.0595 405.29,55.5595 415,67.5C 429.28,66.0482 441.113,70.8816 450.5,82C 486.065,84.8844 500.232,103.718 493,138.5C 489.783,145.538 485.283,151.538 479.5,156.5C 480.767,170.64 475.934,182.307 465,191.5C 465.394,206.373 460.06,218.706 449,228.5C 449.394,243.373 444.06,255.706 433,265.5C 433.4,280.363 428.066,292.696 417,302.5C 417.548,317.06 412.381,329.06 401.5,338.5C 400.002,370.502 383.335,385.336 351.5,383C 341.533,380.703 333.366,375.536 327,367.5C 312.712,368.947 300.878,364.114 291.5,353C 287.961,352.718 284.461,352.218 281,351.5C 280.5,351.833 280,352.167 279.5,352.5C 289.172,366.259 290.006,380.592 282,395.5C 279.66,399.006 276.826,402.006 273.5,404.5C 280.168,424.333 274.502,439.5 256.5,450C 252.695,451.38 248.862,452.547 245,453.5C 240.396,475.393 226.896,485.56 204.5,484C 201.648,483.731 198.982,482.897 196.5,481.5C 182.487,496.884 166.154,499.717 147.5,490C 143.994,487.66 140.994,484.826 138.5,481.5C 117.597,488.297 102.097,481.963 92,462.5C 91.2886,459.266 90.4553,456.099 89.5,453C 70.2199,449.553 59.8866,438.053 58.5,418.5C 58.4807,413.595 59.4807,408.928 61.5,404.5C 46.1161,390.487 43.2828,374.154 53,355.5C 55.3405,351.994 58.1738,348.994 61.5,346.5C 55.3713,329.349 59.3713,315.016 73.5,303.5C 25.5268,270.785 7.36018,225.785 19,168.5C 34.3876,118.446 67.8876,88.9465 119.5,80C 168.56,75.3334 207.394,92.8334 236,132.5C 236.931,119.97 242.098,109.637 251.5,101.5C 251.128,86.5889 256.461,74.2556 267.5,64.5C 267.552,41.1567 278.552,26.1567 300.5,19.5 Z"/></g>
<g><path style="opacity:1" fill="#f1ad3d" d="M 303.5,35.5 C 310.393,34.6554 316.727,36.1554 322.5,40C 326.564,43.7261 330.23,47.7261 333.5,52C 342.664,50.2259 351.331,51.5592 359.5,56C 363.419,59.893 367.085,63.893 370.5,68C 379.633,66.345 388.3,67.6784 396.5,72C 399.952,76.2723 403.619,80.2723 407.5,84C 413.472,83.594 419.472,83.594 425.5,84C 428.167,85.3333 430.833,86.6667 433.5,88C 436.952,92.2723 440.619,96.2723 444.5,100C 449.816,99.7368 455.149,99.7368 460.5,100C 474.197,104.041 480.364,113.207 479,127.5C 478.226,131.049 476.893,134.382 475,137.5C 471.107,141.419 467.107,145.085 463,148.5C 463.406,154.472 463.406,160.472 463,166.5C 461.667,169.167 460.333,171.833 459,174.5C 454.728,177.952 450.728,181.619 447,185.5C 446.719,189.162 446.885,192.829 447.5,196.5C 447.505,202.486 445.672,207.819 442,212.5C 437.872,215.385 434.206,218.719 431,222.5C 431.471,228.462 431.471,234.462 431,240.5C 429.587,243.661 427.92,246.661 426,249.5C 421.872,252.385 418.206,255.719 415,259.5C 414.958,262.968 415.125,266.468 415.5,270C 415.773,276.349 413.773,281.849 409.5,286.5C 406.241,289.048 403.074,291.714 400,294.5C 401.87,303.68 400.536,312.346 396,320.5C 392.248,324.592 388.248,328.259 384,331.5C 387.024,343.931 383.858,354.431 374.5,363C 364.252,369.249 354.252,368.915 344.5,362C 341.615,357.872 338.281,354.206 334.5,351C 328.86,351.384 323.194,351.384 317.5,351C 315.051,350.275 312.717,349.275 310.5,348C 306.167,343.667 301.833,339.333 297.5,335C 293.676,334.773 289.842,334.94 286,335.5C 283.075,335.477 280.241,334.977 277.5,334C 275.359,314.023 264.359,302.189 244.5,298.5C 243.272,288.264 238.605,279.931 230.5,273.5C 257.069,235.644 262.069,195.144 245.5,152C 248.28,150.188 250.78,148.021 253,145.5C 251.13,136.32 252.464,127.654 257,119.5C 260.7,115.465 264.7,111.798 269,108.5C 267.183,99.3283 268.516,90.6616 273,82.5C 276.893,78.5815 280.893,74.9148 285,71.5C 281.453,54.2557 287.62,42.2557 303.5,35.5 Z"/></g>
<g><path style="opacity:1" fill="#080501" d="M 325.5,84.5 C 331.022,85.5977 336.022,87.7644 340.5,91C 338.968,95.8943 336.802,100.394 334,104.5C 329.078,102.816 324.578,100.483 320.5,97.5C 322.464,93.2457 324.131,88.9124 325.5,84.5 Z"/></g>
<g><path style="opacity:1" fill="#fb9125" d="M 122.5,95.5 C 168.453,92.5563 203.286,110.556 227,149.5C 243.25,181.965 243.583,214.631 228,247.5C 224.28,254.551 219.78,261.051 214.5,267C 210.167,267.333 205.833,267.667 201.5,268C 199.481,268.45 197.648,269.283 196,270.5C 182.721,254.891 166.888,251.724 148.5,261C 144.667,263.5 141.5,266.667 139,270.5C 134.506,268.107 129.673,266.94 124.5,267C 122.196,262.217 119.53,257.717 116.5,253.5C 112.007,255.579 107.674,257.912 103.5,260.5C 105.167,263.833 106.833,267.167 108.5,270.5C 99.8655,276.101 93.8655,283.768 90.5,293.5C 48.5768,270.335 29.0768,234.668 32,186.5C 41.6666,135.667 71.8333,105.334 122.5,95.5 Z"/></g>
<g><path style="opacity:1" fill="#070401" d="M 370.5,103.5 C 375.594,104.882 380.261,107.049 384.5,110C 382.968,114.894 380.802,119.394 378,123.5C 373.078,121.816 368.578,119.483 364.5,116.5C 366.24,112.021 368.24,107.687 370.5,103.5 Z"/></g>
<g><path style="opacity:1" fill="#090501" d="M 414.5,122.5 C 418.923,123.876 423.256,125.543 427.5,127.5C 428.614,128.723 428.781,130.056 428,131.5C 426.553,135.543 424.553,139.21 422,142.5C 417.657,140.331 413.157,138.664 408.5,137.5C 410.107,132.348 412.107,127.348 414.5,122.5 Z"/></g>
<g><path style="opacity:1" fill="#080401" d="M 159.5,124.5 C 162.645,128.778 165.312,133.445 167.5,138.5C 163.326,141.088 158.993,143.421 154.5,145.5C 151.47,141.283 148.804,136.783 146.5,132C 150.896,129.473 155.229,126.973 159.5,124.5 Z"/></g>
<g><path style="opacity:1" fill="#080401" d="M 306.5,128.5 C 312.022,129.598 317.022,131.764 321.5,135C 319.674,139.477 318.007,143.977 316.5,148.5C 311.322,147.384 306.489,145.384 302,142.5C 303.173,137.81 304.673,133.144 306.5,128.5 Z"/></g>
<g><path style="opacity:1" fill="#080400" d="M 115.5,146.5 C 116.675,146.281 117.675,146.614 118.5,147.5C 120.5,151.5 122.5,155.5 124.5,159.5C 120.22,162.224 115.72,164.557 111,166.5C 108.007,162.522 105.507,158.189 103.5,153.5C 107.563,151.14 111.563,148.807 115.5,146.5 Z"/></g>
<g><path style="opacity:1" fill="#090501" d="M 350.5,147.5 C 356.022,148.598 361.022,150.764 365.5,154C 363.968,158.894 361.802,163.394 359,167.5C 353.962,166.065 349.462,163.732 345.5,160.5C 347.464,156.246 349.131,151.912 350.5,147.5 Z"/></g>
<g><path style="opacity:1" fill="#090501" d="M 395.5,166.5 C 400.594,167.882 405.261,170.049 409.5,173C 407.968,177.894 405.802,182.394 403,186.5C 398.523,184.674 394.023,183.007 389.5,181.5C 391.107,176.348 393.107,171.348 395.5,166.5 Z"/></g>
<g><path style="opacity:1" fill="#0a0401" d="M 73.5,167.5 C 76.8679,171.202 79.5346,175.536 81.5,180.5C 77.2832,183.53 72.7832,186.196 68,188.5C 65.2455,183.992 62.7455,179.326 60.5,174.5C 64.9936,172.346 69.327,170.012 73.5,167.5 Z"/></g>
<g><path style="opacity:1" fill="#0d0601" d="M 180.5,167.5 C 184.002,171.311 186.669,175.811 188.5,181C 184.522,183.993 180.189,186.493 175.5,188.5C 172.47,184.283 169.804,179.783 167.5,175C 171.896,172.473 176.229,169.973 180.5,167.5 Z"/></g>
<g><path style="opacity:1" fill="#070401" d="M 287.5,172.5 C 292.574,173.969 297.574,175.636 302.5,177.5C 301.031,182.574 299.364,187.574 297.5,192.5C 292.426,191.031 287.426,189.364 282.5,187.5C 283.969,182.426 285.636,177.426 287.5,172.5 Z"/></g>
<g><path style="opacity:1" fill="#0c0501" d="M 136.5,189.5 C 137.822,189.33 138.989,189.663 140,190.5C 141.97,194.273 143.803,198.106 145.5,202C 141.986,205.351 137.819,207.851 133,209.5C 129.649,205.986 127.149,201.819 125.5,197C 125.645,196.228 125.978,195.561 126.5,195C 130.056,193.392 133.389,191.559 136.5,189.5 Z"/></g>
<g><path style="opacity:1" fill="#080501" d="M 332.5,191.5 C 337.177,193.174 341.844,194.84 346.5,196.5C 345.402,202.022 343.236,207.022 340,211.5C 335.523,209.674 331.023,208.007 326.5,206.5C 327.715,201.188 329.715,196.188 332.5,191.5 Z"/></g>
<g><path style="opacity:1" fill="#070401" d="M 376.5,210.5 C 381.177,212.174 385.844,213.84 390.5,215.5C 389.402,221.022 387.236,226.022 384,230.5C 379.523,228.674 375.023,227.007 370.5,225.5C 372.107,220.348 374.107,215.348 376.5,210.5 Z"/></g>
<g><path style="opacity:1" fill="#030100" d="M 94.5,210.5 C 97.8679,214.202 100.535,218.536 102.5,223.5C 98.2832,226.53 93.7832,229.196 89,231.5C 86.6971,227.061 84.5304,222.561 82.5,218C 86.3669,215.236 90.3669,212.736 94.5,210.5 Z"/></g>
<g><path style="opacity:1" fill="#080401" d="M 201.5,210.5 C 202.496,210.414 203.329,210.748 204,211.5C 206.039,215.745 208.206,219.912 210.5,224C 205.992,226.754 201.326,229.254 196.5,231.5C 194.291,226.915 191.958,222.415 189.5,218C 193.367,215.236 197.367,212.736 201.5,210.5 Z"/></g>
<g><path style="opacity:1" fill="#080501" d="M 268.5,216.5 C 273.678,217.616 278.511,219.616 283,222.5C 281.827,227.19 280.327,231.856 278.5,236.5C 272.978,235.402 267.978,233.236 263.5,230C 265.326,225.523 266.993,221.023 268.5,216.5 Z"/></g>
<g><path style="opacity:1" fill="#090401" d="M 159.5,231.5 C 162.14,236.104 164.806,240.771 167.5,245.5C 163.22,248.224 158.72,250.557 154,252.5C 151.007,248.522 148.507,244.189 146.5,239.5C 150.694,236.571 155.027,233.905 159.5,231.5 Z"/></g>
<g><path style="opacity:1" fill="#080501" d="M 313.5,235.5 C 318.737,236.785 323.404,239.118 327.5,242.5C 325.831,247.171 323.664,251.504 321,255.5C 316.106,253.968 311.606,251.802 307.5,249C 309.103,244.297 311.103,239.797 313.5,235.5 Z"/></g>
<g><path style="opacity:1" fill="#070401" d="M 357.5,254.5 C 362.602,256.082 367.268,258.415 371.5,261.5C 369.831,266.171 367.664,270.504 365,274.5C 360.106,272.968 355.606,270.802 351.5,268C 353.41,263.429 355.41,258.929 357.5,254.5 Z"/></g>
<g><path style="opacity:1" fill="#080501" d="M 249.5,260.5 C 254.516,262.007 259.35,264.007 264,266.5C 262.827,271.19 261.327,275.856 259.5,280.5C 253.994,279.411 248.994,277.245 244.5,274C 246.326,269.523 247.993,265.023 249.5,260.5 Z"/></g>
<g><path style="opacity:1" fill="#f5ba91" d="M 162.5,271.5 C 174.335,270.329 182.168,275.329 186,286.5C 188.653,289.194 191.82,290.027 195.5,289C 203.146,282.888 211.479,281.888 220.5,286C 227.829,292.463 230.662,300.629 229,310.5C 230.167,311.667 231.333,312.833 232.5,314C 242.265,312.638 250.432,315.472 257,322.5C 261.055,331.206 260.055,339.206 254,346.5C 252.286,353.244 254.786,357.41 261.5,359C 272.11,366.118 274.277,375.284 268,386.5C 264.731,389.883 260.897,392.383 256.5,394C 253.806,396.653 252.973,399.82 254,403.5C 260.112,411.146 261.112,419.479 257,428.5C 254.795,431.04 252.295,433.207 249.5,435C 243.119,435.899 236.785,436.899 230.5,438C 229.874,438.75 229.374,439.584 229,440.5C 230.362,450.265 227.528,458.432 220.5,465C 211.479,469.112 203.146,468.112 195.5,462C 189.137,460.599 185.303,463.099 184,469.5C 176.854,480.1 167.687,482.267 156.5,476C 153.117,472.731 150.617,468.897 149,464.5C 146.005,461.735 142.505,460.902 138.5,462C 131.168,468.057 123.168,469.057 114.5,465C 107.472,458.432 104.638,450.265 106,440.5C 104.833,439.333 103.667,438.167 102.5,437C 89.9053,439.454 81.072,434.954 76,423.5C 74.1798,415.89 75.8465,409.223 81,403.5C 82.4007,397.137 79.9007,393.303 73.5,392C 62.8996,384.854 60.7329,375.687 67,364.5C 70.2692,361.117 74.1026,358.617 78.5,357C 81.2648,354.005 82.0981,350.505 81,346.5C 74.9433,339.168 73.9433,331.168 78,322.5C 84.4627,315.171 92.6293,312.338 102.5,314C 103.667,312.833 104.833,311.667 106,310.5C 103.623,298.425 107.79,289.592 118.5,284C 126.11,282.18 132.777,283.846 138.5,289C 142.505,290.098 146.005,289.265 149,286.5C 151.263,279.407 155.763,274.407 162.5,271.5 Z"/></g>
<g><path style="opacity:1" fill="#090501" d="M 294.5,279.5 C 299.602,281.082 304.268,283.415 308.5,286.5C 306.897,291.382 304.564,295.715 301.5,299.5C 296.764,297.987 292.431,295.82 288.5,293C 290.103,288.297 292.103,283.797 294.5,279.5 Z"/></g>
<g><path style="opacity:1" fill="#090501" d="M 338.5,298.5 C 343.602,300.082 348.268,302.415 352.5,305.5C 350.897,310.382 348.564,314.715 345.5,318.5C 340.764,316.987 336.431,314.82 332.5,312C 334.103,307.297 336.103,302.797 338.5,298.5 Z"/></g>
<g><path style="opacity:1" fill="#000000" d="M 111.5,327.5 C 116.833,327.5 122.167,327.5 127.5,327.5C 127.5,332.833 127.5,338.167 127.5,343.5C 122.167,343.5 116.833,343.5 111.5,343.5C 111.5,338.167 111.5,332.833 111.5,327.5 Z"/></g>
<g><path style="opacity:1" fill="#000000" d="M 159.5,327.5 C 164.833,327.5 170.167,327.5 175.5,327.5C 175.5,332.833 175.5,338.167 175.5,343.5C 170.167,343.5 164.833,343.5 159.5,343.5C 159.5,338.167 159.5,332.833 159.5,327.5 Z"/></g>
<g><path style="opacity:1" fill="#000000" d="M 207.5,327.5 C 212.833,327.5 218.167,327.5 223.5,327.5C 223.5,332.833 223.5,338.167 223.5,343.5C 218.167,343.5 212.833,343.5 207.5,343.5C 207.5,338.167 207.5,332.833 207.5,327.5 Z"/></g>
<g><path style="opacity:1" fill="#000000" d="M 111.5,375.5 C 116.833,375.5 122.167,375.5 127.5,375.5C 127.5,380.833 127.5,386.167 127.5,391.5C 122.167,391.5 116.833,391.5 111.5,391.5C 111.5,386.167 111.5,380.833 111.5,375.5 Z"/></g>
<g><path style="opacity:1" fill="#000000" d="M 159.5,375.5 C 164.833,375.5 170.167,375.5 175.5,375.5C 175.5,380.833 175.5,386.167 175.5,391.5C 170.167,391.5 164.833,391.5 159.5,391.5C 159.5,386.167 159.5,380.833 159.5,375.5 Z"/></g>
<g><path style="opacity:1" fill="#000000" d="M 207.5,375.5 C 212.833,375.5 218.167,375.5 223.5,375.5C 223.5,380.833 223.5,386.167 223.5,391.5C 218.167,391.5 212.833,391.5 207.5,391.5C 207.5,386.167 207.5,380.833 207.5,375.5 Z"/></g>
<g><path style="opacity:1" fill="#000000" d="M 111.5,423.5 C 116.833,423.5 122.167,423.5 127.5,423.5C 127.5,428.833 127.5,434.167 127.5,439.5C 122.167,439.5 116.833,439.5 111.5,439.5C 111.5,434.167 111.5,428.833 111.5,423.5 Z"/></g>
<g><path style="opacity:1" fill="#000000" d="M 159.5,423.5 C 164.833,423.5 170.167,423.5 175.5,423.5C 175.5,428.833 175.5,434.167 175.5,439.5C 170.167,439.5 164.833,439.5 159.5,439.5C 159.5,434.167 159.5,428.833 159.5,423.5 Z"/></g>
<g><path style="opacity:1" fill="#000000" d="M 207.5,423.5 C 212.833,423.5 218.167,423.5 223.5,423.5C 223.5,428.833 223.5,434.167 223.5,439.5C 218.167,439.5 212.833,439.5 207.5,439.5C 207.5,434.167 207.5,428.833 207.5,423.5 Z"/></g>
</svg>
