<?xml version="1.0" encoding="UTF-8"?>
<!DOCTYPE svg PUBLIC "-//W3C//DTD SVG 1.1//EN" "http://www.w3.org/Graphics/SVG/1.1/DTD/svg11.dtd">
<svg xmlns="http://www.w3.org/2000/svg" version="1.1" width="512px" height="512px" style="shape-rendering:geometricPrecision; text-rendering:geometricPrecision; image-rendering:optimizeQuality; fill-rule:evenodd; clip-rule:evenodd" xmlns:xlink="http://www.w3.org/1999/xlink">
<g><path style="opacity:0.963" fill="#020100" d="M 511.5,238.5 C 511.5,249.833 511.5,261.167 511.5,272.5C 502.738,329.509 472.405,370.676 420.5,396C 405.749,402.188 390.416,406.188 374.5,408C 321.167,408.667 267.833,408.667 214.5,408C 203.573,404.98 197.74,397.814 197,386.5C 196.333,369.833 196.333,353.167 197,336.5C 198.909,318.603 208.742,311.436 226.5,315C 262.789,325.489 299.122,335.822 335.5,346C 356.357,350.414 374.524,345.581 390,331.5C 406.065,310.382 407.398,288.382 394,265.5C 388.116,256.308 379.95,250.142 369.5,247C 353.217,245.863 336.884,245.363 320.5,245.5C 305.5,245.833 290.5,246.167 275.5,246.5C 272.876,251.585 269.876,256.418 266.5,261C 258.471,264.319 253.471,261.819 251.5,253.5C 252.305,251.085 253.305,248.751 254.5,246.5C 249.021,244.647 243.521,244.314 238,245.5C 235.124,251.423 231.624,256.923 227.5,262C 219.44,264.272 214.773,261.272 213.5,253C 215.26,249.649 216.594,246.149 217.5,242.5C 212.478,242.218 207.478,242.051 202.5,242C 198.833,248.333 195.167,254.667 191.5,261C 183.202,264.841 178.202,262.341 176.5,253.5C 177.937,248.622 179.937,243.955 182.5,239.5C 161.249,235.104 140.249,229.937 119.5,224C 135.704,247.469 135.204,270.635 118,293.5C 95.7107,315.448 69.8773,320.948 40.5,310C 53.132,337.067 74.2987,352.234 104,355.5C 130.657,353.825 149.324,340.825 160,316.5C 165.534,296.104 160.368,278.937 144.5,265C 137.582,262.449 134.415,257.616 135,250.5C 139.245,243.983 144.745,242.817 151.5,247C 178.551,267.495 186.717,293.995 176,326.5C 157.672,362.083 128.506,377.25 88.5,372C 47.4829,360.486 23.6495,333.653 17,291.5C 8.4042,279.649 2.57087,266.649 -0.5,252.5C -0.5,244.167 -0.5,235.833 -0.5,227.5C 8.82958,189.006 32.9962,165.34 72,156.5C 78.2299,148.27 85.7299,141.437 94.5,136C 103.812,130.843 113.478,126.51 123.5,123C 131.889,106.637 144.889,100.97 162.5,106C 165.759,107.211 168.592,109.044 171,111.5C 178.654,109.198 186.487,108.365 194.5,109C 196.928,110.018 198.262,111.852 198.5,114.5C 198.747,117.505 197.747,120.005 195.5,122C 190.355,123.977 185.022,125.144 179.5,125.5C 182.382,143.242 175.382,155.076 158.5,161C 147.302,163.599 137.802,160.765 130,152.5C 127.344,148.856 125.511,144.856 124.5,140.5C 114.03,143.088 104.697,147.755 96.5,154.5C 86.4494,160.931 82.7827,169.931 85.5,181.5C 96.2995,177.869 107.3,175.202 118.5,173.5C 127.915,173.083 137.248,173.583 146.5,175C 150.397,178.087 151.397,181.92 149.5,186.5C 147.99,187.836 146.323,189.003 144.5,190C 135.5,190.333 126.5,190.667 117.5,191C 111.19,191.743 105.19,193.409 99.5,196C 122.244,208.693 146.578,217.027 172.5,221C 203.246,226.812 234.246,229.479 265.5,229C 278.045,225.619 285.045,217.453 286.5,204.5C 290.59,182.608 290.423,160.608 286,138.5C 283.473,127.973 276.973,121.473 266.5,119C 257.5,118.667 248.5,118.333 239.5,118C 236.977,116.437 235.31,114.27 234.5,111.5C 234.177,106.967 236.177,104.134 240.5,103C 285.167,102.333 329.833,102.333 374.5,103C 433.056,111.232 474.889,142.065 500,195.5C 505.27,209.59 509.104,223.924 511.5,238.5 Z M 67.5,176.5 C 69.1366,180.096 70.4699,183.929 71.5,188C 46.2152,203.459 28.8819,225.292 19.5,253.5C 14.2384,225.526 23.2384,203.359 46.5,187C 53.3132,182.927 60.3132,179.427 67.5,176.5 Z M 82.5,203.5 C 89.3041,208.741 96.6374,213.241 104.5,217C 99.8451,219.897 98.3451,224.063 100,229.5C 115.47,246.399 116.47,264.066 103,282.5C 84.4148,298.657 64.2481,300.824 42.5,289C 39.7198,287.188 37.2198,285.021 35,282.5C 34.567,261.798 40.9004,243.465 54,227.5C 62.2015,217.785 71.7015,209.785 82.5,203.5 Z"/></g>
<g><path style="opacity:0.939" fill="#020000" d="M 228.5,111.5 C 228.261,115.918 225.928,118.751 221.5,120C 217.167,120.667 212.833,120.667 208.5,120C 206.531,118.5 205.198,116.667 204.5,114.5C 204.553,108.612 207.553,105.445 213.5,105C 216.833,104.333 220.167,104.333 223.5,105C 226.493,106.159 228.16,108.325 228.5,111.5 Z"/></g>
<g><path style="opacity:1" fill="#fd6142" d="M 228.5,111.5 C 230.5,111.5 232.5,111.5 234.5,111.5C 235.31,114.27 236.977,116.437 239.5,118C 248.5,118.333 257.5,118.667 266.5,119C 276.973,121.473 283.473,127.973 286,138.5C 290.423,160.608 290.59,182.608 286.5,204.5C 240.156,204.894 194.489,198.894 149.5,186.5C 151.397,181.92 150.397,178.087 146.5,175C 137.248,173.583 127.915,173.083 118.5,173.5C 110.776,168.615 104.109,162.448 98.5,155C 97.9056,154.536 97.2389,154.369 96.5,154.5C 104.697,147.755 114.03,143.088 124.5,140.5C 125.511,144.856 127.344,148.856 130,152.5C 137.802,160.765 147.302,163.599 158.5,161C 175.382,155.076 182.382,143.242 179.5,125.5C 185.022,125.144 190.355,123.977 195.5,122C 197.747,120.005 198.747,117.505 198.5,114.5C 200.5,114.5 202.5,114.5 204.5,114.5C 205.198,116.667 206.531,118.5 208.5,120C 212.833,120.667 217.167,120.667 221.5,120C 225.928,118.751 228.261,115.918 228.5,111.5 Z"/></g>
<g><path style="opacity:1" fill="#fd9377" d="M 381.5,208.5 C 378.497,206.738 375.163,205.572 371.5,205C 348.502,204.5 325.502,204.333 302.5,204.5C 305.874,179.999 305.04,155.666 300,131.5C 298.088,127.34 295.921,123.34 293.5,119.5C 320.494,118.333 347.494,118.167 374.5,119C 381.672,119.77 388.672,121.27 395.5,123.5C 403.007,150.579 400.173,176.579 387,201.5C 385.303,204.02 383.47,206.353 381.5,208.5 Z"/></g>
<g><path style="opacity:1" fill="#2c2c2f" d="M 146.5,120.5 C 160.322,118.821 166.155,124.821 164,138.5C 160.292,144.85 154.792,147.35 147.5,146C 139.313,141.781 136.813,135.281 140,126.5C 142.063,124.266 144.229,122.266 146.5,120.5 Z"/></g>
<g><path style="opacity:1" fill="#fcbaa9" d="M 415.5,245.5 C 411.915,233.603 405.249,223.936 395.5,216.5C 406.318,200.882 412.485,183.549 414,164.5C 414.527,152.807 414.527,141.14 414,129.5C 451.062,146.563 476.229,174.396 489.5,213C 489.167,213.5 488.833,214 488.5,214.5C 464.261,225.121 439.928,235.455 415.5,245.5 Z"/></g>
<g><path style="opacity:1" fill="#fa4e22" d="M 96.5,154.5 C 97.2389,154.369 97.9056,154.536 98.5,155C 104.109,162.448 110.776,168.615 118.5,173.5C 107.3,175.202 96.2995,177.869 85.5,181.5C 82.7827,169.931 86.4494,160.931 96.5,154.5 Z"/></g>
<g><path style="opacity:1" fill="#ff9479" d="M 429.5,160.5 C 431.527,160.338 433.527,160.505 435.5,161C 442.667,166.833 449.167,173.333 455,180.5C 458.739,191.092 455.239,194.925 444.5,192C 438.699,185.198 432.532,178.698 426,172.5C 423.458,167.361 424.624,163.361 429.5,160.5 Z"/></g>
<g><path style="opacity:1" fill="#fb4e22" d="M 149.5,186.5 C 194.489,198.894 240.156,204.894 286.5,204.5C 285.045,217.453 278.045,225.619 265.5,229C 234.246,229.479 203.246,226.812 172.5,221C 146.578,217.027 122.244,208.693 99.5,196C 105.19,193.409 111.19,191.743 117.5,191C 126.5,190.667 135.5,190.333 144.5,190C 146.323,189.003 147.99,187.836 149.5,186.5 Z"/></g>
<g><path style="opacity:1" fill="#ff9579" d="M 457.5,197.5 C 464.932,197.094 469.266,200.594 470.5,208C 468.497,215.681 463.997,217.515 457,213.5C 452.382,207.84 452.549,202.507 457.5,197.5 Z"/></g>
<g><path style="opacity:1" fill="#fd7855" d="M 302.5,204.5 C 325.502,204.333 348.502,204.5 371.5,205C 375.163,205.572 378.497,206.738 381.5,208.5C 375.667,216.499 368.667,223.333 360.5,229C 338.159,229.833 315.826,229.666 293.5,228.5C 298.082,221.087 301.082,213.087 302.5,204.5 Z"/></g>
<g><path style="opacity:1" fill="#fb9276" d="M 395.5,216.5 C 405.249,223.936 411.915,233.603 415.5,245.5C 411.919,247.535 408.086,249.202 404,250.5C 396.899,243.91 389.065,238.243 380.5,233.5C 385.923,228.085 390.923,222.418 395.5,216.5 Z"/></g>
<g><path style="opacity:1" fill="#fd9277" d="M 487.5,301.5 C 462.898,337.742 428.898,359.409 385.5,366.5C 385.276,362.438 383.276,359.605 379.5,358C 409.334,342.171 422.167,317.338 418,283.5C 417.073,277.219 415.239,271.219 412.5,265.5C 412.833,264.833 413.167,264.167 413.5,263.5C 440.163,251.992 466.829,240.826 493.5,230C 494.282,232.74 494.782,235.574 495,238.5C 497.552,260.271 495.052,281.271 487.5,301.5 Z"/></g>
<g><path style="opacity:1" fill="#fb7755" d="M 487.5,301.5 C 479.208,325.626 465.208,345.793 445.5,362C 440.029,364.118 434.362,365.451 428.5,366C 418.833,366.333 409.167,366.667 399.5,367C 397.536,368.451 396.203,370.284 395.5,372.5C 391.668,372.118 388.335,370.785 385.5,368.5C 385.5,367.833 385.5,367.167 385.5,366.5C 428.898,359.409 462.898,337.742 487.5,301.5 Z"/></g>
<g><path style="opacity:1" fill="#fd6142" d="M 213.5,387.5 C 225.838,387.667 238.171,387.5 250.5,387C 257.647,384.862 259.814,380.362 257,373.5C 255.786,371.951 254.286,370.785 252.5,370C 239.504,369.5 226.504,369.333 213.5,369.5C 213.5,363.833 213.5,358.167 213.5,352.5C 225.413,355.812 237.413,358.812 249.5,361.5C 255.208,361.613 258.208,358.78 258.5,353C 258.031,349.196 256.031,346.529 252.5,345C 239.507,341.336 226.507,337.836 213.5,334.5C 213.5,334.167 213.5,333.833 213.5,333.5C 213.804,332.85 214.137,332.183 214.5,331.5C 217.446,330.345 220.446,330.179 223.5,331C 257.835,340.669 292.169,350.502 326.5,360.5C 327.499,371.146 327.832,381.813 327.5,392.5C 290.498,392.667 253.498,392.5 216.5,392C 214.859,390.871 213.859,389.371 213.5,387.5 Z"/></g>
<g><path style="opacity:1" fill="#ce2b01" d="M 213.5,334.5 C 226.507,337.836 239.507,341.336 252.5,345C 256.031,346.529 258.031,349.196 258.5,353C 258.208,358.78 255.208,361.613 249.5,361.5C 237.413,358.812 225.413,355.812 213.5,352.5C 213.5,346.5 213.5,340.5 213.5,334.5 Z"/></g>
<g><path style="opacity:1" fill="#f9b6a5" d="M 364.5,368.5 C 357.167,368.5 349.833,368.5 342.5,368.5C 342.5,366.5 342.5,364.5 342.5,362.5C 351.091,360.85 358.425,362.85 364.5,368.5 Z"/></g>
<g><path style="opacity:1" fill="#fb9276" d="M 342.5,368.5 C 349.833,368.5 357.167,368.5 364.5,368.5C 368.588,370.437 372.755,372.104 377,373.5C 380.895,373.475 383.728,371.808 385.5,368.5C 388.335,370.785 391.668,372.118 395.5,372.5C 395.253,375.505 396.253,378.005 398.5,380C 402.029,381.466 405.695,382.466 409.5,383C 387.903,391.017 365.569,394.183 342.5,392.5C 342.5,384.5 342.5,376.5 342.5,368.5 Z"/></g>
<g><path style="opacity:1" fill="#cb2c04" d="M 213.5,333.5 C 213.5,333.833 213.5,334.167 213.5,334.5C 213.5,340.5 213.5,346.5 213.5,352.5C 213.5,358.167 213.5,363.833 213.5,369.5C 226.504,369.333 239.504,369.5 252.5,370C 254.286,370.785 255.786,371.951 257,373.5C 259.814,380.362 257.647,384.862 250.5,387C 238.171,387.5 225.838,387.667 213.5,387.5C 212.176,369.402 212.176,351.402 213.5,333.5 Z"/></g>
</svg>
