<?xml version="1.0" encoding="UTF-8"?>
<!DOCTYPE svg PUBLIC "-//W3C//DTD SVG 1.1//EN" "http://www.w3.org/Graphics/SVG/1.1/DTD/svg11.dtd">
<svg xmlns="http://www.w3.org/2000/svg" version="1.1" width="512px" height="512px" style="shape-rendering:geometricPrecision; text-rendering:geometricPrecision; image-rendering:optimizeQuality; fill-rule:evenodd; clip-rule:evenodd" xmlns:xlink="http://www.w3.org/1999/xlink">
<g><path style="opacity:0.957" fill="#020000" d="M 503.5,264.5 C 499.727,265.178 496.894,263.844 495,260.5C 489.644,232.723 477.977,208.056 460,186.5C 439.29,210.372 418.79,234.372 398.5,258.5C 389.699,268.14 381.032,277.973 372.5,288C 386.93,304.543 392.263,323.709 388.5,345.5C 398.167,348.167 407.833,350.833 417.5,353.5C 435.002,359.132 452.668,364.632 470.5,370C 471.944,370.781 473.277,370.614 474.5,369.5C 489.118,342.818 497.118,314.318 498.5,284C 500.611,283.155 502.611,282.322 504.5,281.5C 507.652,281.571 509.986,282.905 511.5,285.5C 511.5,292.833 511.5,300.167 511.5,307.5C 501.246,375.927 464.579,424.427 401.5,453C 385.051,459.362 368.051,463.362 350.5,465C 328.492,465.167 306.492,465.667 284.5,466.5C 277.895,488.931 262.895,499.431 239.5,498C 235.271,497.271 232.938,494.771 232.5,490.5C 233.129,487.36 234.796,484.86 237.5,483C 248.474,484.75 257.641,481.583 265,473.5C 266.664,470.673 267.83,467.673 268.5,464.5C 269.494,454.013 269.828,443.346 269.5,432.5C 244.661,432.169 219.994,432.502 195.5,433.5C 187.737,449.531 180.07,465.697 172.5,482C 184.833,482.333 197.167,482.667 209.5,483C 213.518,483.863 215.518,486.363 215.5,490.5C 215.518,494.637 213.518,497.137 209.5,498C 192.833,498.667 176.167,498.667 159.5,498C 153.388,495.652 151.554,491.485 154,485.5C 163.443,465.614 172.61,445.614 181.5,425.5C 172.61,405.386 163.443,385.386 154,365.5C 152.46,362.058 152.46,358.725 154,355.5C 155.419,354.54 156.919,353.707 158.5,353C 189.833,352.333 221.167,352.333 252.5,353C 269.68,356.593 280.347,366.927 284.5,384C 300.167,384.667 315.833,384.667 331.5,384C 363.334,374.504 376.834,353.337 372,320.5C 365.998,299.35 352.332,286.35 331,281.5C 330.667,292.833 330.333,304.167 330,315.5C 325.862,322.527 320.862,323.194 315,317.5C 314.5,305.505 314.333,293.505 314.5,281.5C 306.167,281.5 297.833,281.5 289.5,281.5C 289.667,292.505 289.5,303.505 289,314.5C 285.395,322.421 280.395,323.421 274,317.5C 273.5,305.505 273.333,293.505 273.5,281.5C 264.833,281.5 256.167,281.5 247.5,281.5C 247.667,293.505 247.5,305.505 247,317.5C 240.555,323.411 235.555,322.411 232,314.5C 231.5,303.505 231.333,292.505 231.5,281.5C 201.645,284.923 174.311,278.423 149.5,262C 145.033,258.535 140.867,254.702 137,250.5C 136.333,247.833 136.333,245.167 137,242.5C 137.278,241.584 137.778,240.918 138.5,240.5C 140.896,238.788 143.562,238.288 146.5,239C 160.356,252.929 177.022,261.596 196.5,265C 235.832,265.5 275.165,265.667 314.5,265.5C 314.5,261.5 314.5,257.5 314.5,253.5C 314.5,211.167 314.5,168.833 314.5,126.5C 266.167,126.5 217.833,126.5 169.5,126.5C 154.833,126.5 140.167,126.5 125.5,126.5C 125.333,147.836 125.5,169.169 126,190.5C 126.735,198.176 128.235,205.676 130.5,213C 130.365,216.436 129.031,219.269 126.5,221.5C 122.808,222.029 119.642,221.029 117,218.5C 113.625,211.543 111.792,204.21 111.5,196.5C 77.1283,201.098 47.6283,191.431 23,167.5C 10.8368,153.176 3.00345,136.842 -0.5,118.5C -0.5,109.5 -0.5,100.5 -0.5,91.5C 9.61024,44.5627 38.6102,18.3961 86.5,13C 139.225,12.0133 191.892,12.3466 244.5,14C 247.902,17.719 248.402,21.8857 246,26.5C 245.25,27.1258 244.416,27.6258 243.5,28C 188.478,28.0385 133.478,28.7052 78.5,30C 43.8944,37.6056 23.0611,58.7723 16,93.5C 12.61,131.235 27.7767,158.402 61.5,175C 67.3315,177.277 73.3315,178.944 79.5,180C 89.828,180.5 100.161,180.666 110.5,180.5C 110.5,171.5 110.5,162.5 110.5,153.5C 97.9635,154.204 85.6302,153.037 73.5,150C 49.1253,137.573 40.6253,118.073 48,91.5C 54.9273,75.2343 67.0939,65.7343 84.5,63C 160.833,62.3333 237.167,62.3333 313.5,63C 320.987,67.606 321.321,72.606 314.5,78C 236.789,78.0117 159.123,78.6783 81.5,80C 63.6357,88.2502 57.8024,101.75 64,120.5C 69.3838,130.11 77.5504,135.61 88.5,137C 95.8258,137.5 103.159,137.666 110.5,137.5C 110.334,129.826 110.5,122.159 111,114.5C 112.214,112.951 113.714,111.785 115.5,111C 191.5,110.333 267.5,110.333 343.5,111C 404.986,115.979 452.486,144.145 486,195.5C 497.471,214.409 505.304,234.743 509.5,256.5C 508.923,260.355 506.923,263.022 503.5,264.5 Z"/></g>
<g><path style="opacity:1" fill="#fd636e" d="M 169.5,126.5 C 169.17,142.342 169.504,158.009 170.5,173.5C 171.219,175.764 171.552,178.097 171.5,180.5C 181.41,222.471 207.743,246.637 250.5,253C 271.831,253.5 293.164,253.667 314.5,253.5C 314.5,257.5 314.5,261.5 314.5,265.5C 275.165,265.667 235.832,265.5 196.5,265C 177.022,261.596 160.356,252.929 146.5,239C 143.562,238.288 140.896,238.788 138.5,240.5C 134.236,234.299 130.236,227.966 126.5,221.5C 129.031,219.269 130.365,216.436 130.5,213C 128.235,205.676 126.735,198.176 126,190.5C 125.5,169.169 125.333,147.836 125.5,126.5C 140.167,126.5 154.833,126.5 169.5,126.5 Z"/></g>
<g><path style="opacity:1" fill="#fc7f86" d="M 169.5,126.5 C 217.833,126.5 266.167,126.5 314.5,126.5C 314.5,168.833 314.5,211.167 314.5,253.5C 293.164,253.667 271.831,253.5 250.5,253C 207.743,246.637 181.41,222.471 171.5,180.5C 181.946,200.589 196.946,204.756 216.5,193C 226.635,181.923 228.135,169.757 221,156.5C 206.299,140.919 191.299,140.586 176,155.5C 172.255,160.904 170.421,166.904 170.5,173.5C 169.504,158.009 169.17,142.342 169.5,126.5 Z"/></g>
<g><path style="opacity:1" fill="#c27378" d="M 330.5,126.5 C 330.5,168.833 330.5,211.167 330.5,253.5C 330.231,257.931 330.564,262.265 331.5,266.5C 330.167,243.51 329.5,220.176 329.5,196.5C 329.5,172.998 329.833,149.664 330.5,126.5 Z"/></g>
<g><path style="opacity:1" fill="#fd989f" d="M 330.5,126.5 C 377.299,126.148 417.299,142.315 450.5,175C 427.635,201.36 404.635,227.527 381.5,253.5C 364.5,253.5 347.5,253.5 330.5,253.5C 330.5,211.167 330.5,168.833 330.5,126.5 Z"/></g>
<g><path style="opacity:1" fill="#050303" d="M 171.5,180.5 C 171.552,178.097 171.219,175.764 170.5,173.5C 170.421,166.904 172.255,160.904 176,155.5C 191.299,140.586 206.299,140.919 221,156.5C 228.135,169.757 226.635,181.923 216.5,193C 196.946,204.756 181.946,200.589 171.5,180.5 Z"/></g>
<g><path style="opacity:1" fill="#e4f0f8" d="M 194.5,159.5 C 207.55,159.705 212.383,166.038 209,178.5C 205.105,183.688 199.939,185.522 193.5,184C 185.372,179.251 183.539,172.751 188,164.5C 189.965,162.45 192.132,160.783 194.5,159.5 Z"/></g>
<g><path style="opacity:0.999" fill="#fb7f86" d="M 503.5,264.5 C 504.22,270.138 504.553,275.804 504.5,281.5C 502.611,282.322 500.611,283.155 498.5,284C 497.118,314.318 489.118,342.818 474.5,369.5C 473.277,370.614 471.944,370.781 470.5,370C 452.668,364.632 435.002,359.132 417.5,353.5C 433.74,333.112 436.907,310.779 427,286.5C 420.259,274.258 410.759,264.924 398.5,258.5C 418.79,234.372 439.29,210.372 460,186.5C 477.977,208.056 489.644,232.723 495,260.5C 496.894,263.844 499.727,265.178 503.5,264.5 Z"/></g>
<g><path style="opacity:1" fill="#f97e85" d="M 330.5,253.5 C 347.5,253.5 364.5,253.5 381.5,253.5C 375.261,262.078 368.261,270.078 360.5,277.5C 351.65,271.661 341.983,267.995 331.5,266.5C 330.564,262.265 330.231,257.931 330.5,253.5 Z"/></g>
<g><path style="opacity:1" fill="#fc636e" d="M 398.5,258.5 C 410.759,264.924 420.259,274.258 427,286.5C 436.907,310.779 433.74,333.112 417.5,353.5C 407.833,350.833 398.167,348.167 388.5,345.5C 392.263,323.709 386.93,304.543 372.5,288C 381.032,277.973 389.699,268.14 398.5,258.5 Z"/></g>
<g><path style="opacity:1" fill="#f77d84" d="M 402.5,365.5 C 394.577,369.294 386.244,371.628 377.5,372.5C 379.78,368.276 381.78,363.942 383.5,359.5C 390.051,361.13 396.384,363.13 402.5,365.5 Z"/></g>
<g><path style="opacity:1" fill="#fd989f" d="M 402.5,365.5 C 422.716,371.263 442.883,377.263 463,383.5C 464.257,383.85 464.591,384.517 464,385.5C 433.935,423.954 394.435,445.288 345.5,449.5C 340.5,449.5 335.5,449.5 330.5,449.5C 330.182,432.756 330.515,416.089 331.5,399.5C 350.338,396.3 365.671,387.3 377.5,372.5C 386.244,371.628 394.577,369.294 402.5,365.5 Z"/></g>
<g><path style="opacity:1" fill="#76464a" d="M 248.5,368.5 C 223.328,368.169 198.328,368.502 173.5,369.5C 172.957,369.44 172.624,369.107 172.5,368.5C 197.997,367.171 223.33,367.171 248.5,368.5 Z"/></g>
<g><path style="opacity:1" fill="#fd989f" d="M 248.5,368.5 C 259.296,369.965 265.963,375.965 268.5,386.5C 268.5,396.833 268.5,407.167 268.5,417.5C 244.167,417.5 219.833,417.5 195.5,417.5C 188.169,401.504 180.836,385.504 173.5,369.5C 198.328,368.502 223.328,368.169 248.5,368.5 Z"/></g>
<g><path style="opacity:1" fill="#fb7f86" d="M 284.5,400.5 C 294.5,400.5 304.5,400.5 314.5,400.5C 314.5,417.167 314.5,433.833 314.5,450.5C 304.5,450.5 294.5,450.5 284.5,450.5C 284.5,433.833 284.5,417.167 284.5,400.5 Z"/></g>
<g><path style="opacity:1" fill="#bb7175" d="M 331.5,399.5 C 330.515,416.089 330.182,432.756 330.5,449.5C 335.5,449.5 340.5,449.5 345.5,449.5C 340.36,450.488 335.026,450.821 329.5,450.5C 328.848,433.134 329.514,416.134 331.5,399.5 Z"/></g>
<g><path style="opacity:1" fill="#643c3e" d="M 268.5,386.5 C 269.494,396.987 269.828,407.654 269.5,418.5C 244.661,418.831 219.994,418.498 195.5,417.5C 219.833,417.5 244.167,417.5 268.5,417.5C 268.5,407.167 268.5,396.833 268.5,386.5 Z"/></g>
<g><path style="opacity:1" fill="#a45257" d="M 195.5,433.5 C 219.994,432.502 244.661,432.169 269.5,432.5C 269.828,443.346 269.494,454.013 268.5,464.5C 268.5,454.167 268.5,443.833 268.5,433.5C 244.167,433.5 219.833,433.5 195.5,433.5 Z"/></g>
<g><path style="opacity:0.998" fill="#fc7f86" d="M 195.5,433.5 C 219.833,433.5 244.167,433.5 268.5,433.5C 268.5,443.833 268.5,454.167 268.5,464.5C 267.83,467.673 266.664,470.673 265,473.5C 257.641,481.583 248.474,484.75 237.5,483C 234.796,484.86 233.129,487.36 232.5,490.5C 226.833,490.5 221.167,490.5 215.5,490.5C 215.518,486.363 213.518,483.863 209.5,483C 197.167,482.667 184.833,482.333 172.5,482C 180.07,465.697 187.737,449.531 195.5,433.5 Z"/></g>
</svg>
