<?xml version="1.0" encoding="UTF-8"?>
<!DOCTYPE svg PUBLIC "-//W3C//DTD SVG 1.1//EN" "http://www.w3.org/Graphics/SVG/1.1/DTD/svg11.dtd">
<svg xmlns="http://www.w3.org/2000/svg" version="1.1" width="512px" height="512px" style="shape-rendering:geometricPrecision; text-rendering:geometricPrecision; image-rendering:optimizeQuality; fill-rule:evenodd; clip-rule:evenodd" xmlns:xlink="http://www.w3.org/1999/xlink">
<g><path style="opacity:0.985" fill="#010203" d="M 511.5,360.5 C 511.5,365.5 511.5,370.5 511.5,375.5C 506.014,396.485 492.681,409.652 471.5,415C 466.778,434.722 454.778,447.722 435.5,454C 375.544,455.159 315.544,455.659 255.5,455.5C 195.456,455.659 135.456,455.159 75.5,454C 56.2217,447.722 44.2217,434.722 39.5,415C 18.319,409.652 4.98567,396.485 -0.5,375.5C -0.5,370.5 -0.5,365.5 -0.5,360.5C 0.971672,358.866 2.63834,357.366 4.5,356C 16.1619,355.5 27.8286,355.333 39.5,355.5C 40.7489,337.589 45.9155,320.922 55,305.5C 87.0579,259.107 118.725,212.44 150,165.5C 154.199,159.992 159.366,158.659 165.5,161.5C 165.5,162.167 165.833,162.5 166.5,162.5C 171.031,167.001 171.531,172.001 168,177.5C 136.247,224.673 104.247,271.673 72,318.5C 65.648,330.056 61.8147,342.389 60.5,355.5C 190.5,355.5 320.5,355.5 450.5,355.5C 449.185,342.389 445.352,330.056 439,318.5C 387.914,242.66 336.581,166.994 285,91.5C 265.455,70.6338 245.788,70.6338 226,91.5C 221.201,98.9316 216.034,106.098 210.5,113C 207.106,114.684 203.772,114.851 200.5,113.5C 199.791,112.596 198.791,112.263 197.5,112.5C 194.676,108.64 193.842,104.307 195,99.5C 201.685,88.4775 209.518,78.3109 218.5,69C 236.701,54.5497 256.701,51.5497 278.5,60C 289.145,65.3075 297.978,72.8075 305,82.5C 354.275,156.107 403.942,229.44 454,302.5C 464.333,318.666 470.166,336.332 471.5,355.5C 483.171,355.333 494.838,355.5 506.5,356C 508.362,357.366 510.028,358.866 511.5,360.5 Z"/></g>
<g><path style="opacity:1" fill="#b06224" d="M 166.5,162.5 C 168.5,158.833 170.5,155.167 172.5,151.5C 173.906,151.027 174.573,150.027 174.5,148.5C 175.5,147.833 176.5,147.167 177.5,146.5C 188.34,149.168 193.174,144.835 192,133.5C 191.34,131.676 190.173,130.343 188.5,129.5C 190.432,126.634 192.099,123.634 193.5,120.5C 194.906,120.027 195.573,119.027 195.5,117.5C 196.906,117.027 197.573,116.027 197.5,114.5C 198.391,113.89 199.391,113.557 200.5,113.5C 203.772,114.851 207.106,114.684 210.5,113C 216.034,106.098 221.201,98.9316 226,91.5C 245.788,70.6338 265.455,70.6338 285,91.5C 336.581,166.994 387.914,242.66 439,318.5C 445.352,330.056 449.185,342.389 450.5,355.5C 320.5,355.5 190.5,355.5 60.5,355.5C 61.8147,342.389 65.648,330.056 72,318.5C 104.247,271.673 136.247,224.673 168,177.5C 171.531,172.001 171.031,167.001 166.5,162.5 Z"/></g>
<g><path style="opacity:0.647" fill="#538fe0" d="M 197.5,112.5 C 198.791,112.263 199.791,112.596 200.5,113.5C 199.391,113.557 198.391,113.89 197.5,114.5C 197.5,113.833 197.5,113.167 197.5,112.5 Z"/></g>
<g><path style="opacity:0.61" fill="#5da4ff" d="M 197.5,114.5 C 197.573,116.027 196.906,117.027 195.5,117.5C 195.427,115.973 196.094,114.973 197.5,114.5 Z"/></g>
<g><path style="opacity:0.706" fill="#5ea3ff" d="M 195.5,117.5 C 195.573,119.027 194.906,120.027 193.5,120.5C 193.427,118.973 194.094,117.973 195.5,117.5 Z"/></g>
<g><path style="opacity:0.931" fill="#090c11" d="M 187.5,127.5 C 187.328,128.492 187.662,129.158 188.5,129.5C 190.173,130.343 191.34,131.676 192,133.5C 193.174,144.835 188.34,149.168 177.5,146.5C 177.158,145.662 176.492,145.328 175.5,145.5C 171.338,141.536 170.505,136.87 173,131.5C 176.892,126.821 181.725,125.487 187.5,127.5 Z"/></g>
<g><path style="opacity:0.523" fill="#5d9ff7" d="M 193.5,120.5 C 192.099,123.634 190.432,126.634 188.5,129.5C 187.662,129.158 187.328,128.492 187.5,127.5C 189.263,124.98 191.263,122.647 193.5,120.5 Z"/></g>
<g><path style="opacity:0.663" fill="#5b9ef6" d="M 175.5,145.5 C 176.492,145.328 177.158,145.662 177.5,146.5C 176.5,147.167 175.5,147.833 174.5,148.5C 174.557,147.391 174.89,146.391 175.5,145.5 Z"/></g>
<g><path style="opacity:0.678" fill="#5ea5ff" d="M 174.5,148.5 C 174.573,150.027 173.906,151.027 172.5,151.5C 172.427,149.973 173.094,148.973 174.5,148.5 Z"/></g>
<g><path style="opacity:0.571" fill="#65a0fe" d="M 172.5,151.5 C 170.5,155.167 168.5,158.833 166.5,162.5C 165.833,162.5 165.5,162.167 165.5,161.5C 167.062,157.608 169.395,154.275 172.5,151.5 Z"/></g>
<g><path style="opacity:1" fill="#0e1218" d="M 222.5,193.5 C 234.324,191.824 239.158,196.824 237,208.5C 230.667,216.5 224.333,216.5 218,208.5C 216.254,202.342 217.754,197.342 222.5,193.5 Z"/></g>
<g><path style="opacity:1" fill="#0e1218" d="M 251.5,260.5 C 263.324,258.824 268.158,263.824 266,275.5C 259.667,283.5 253.333,283.5 247,275.5C 245.254,269.342 246.754,264.342 251.5,260.5 Z"/></g>
<g><path style="opacity:1" fill="#0e1218" d="M 352.5,295.5 C 364.324,293.824 369.158,298.824 367,310.5C 360.667,318.5 354.333,318.5 348,310.5C 346.254,304.342 347.754,299.342 352.5,295.5 Z"/></g>
<g><path style="opacity:1" fill="#0e1218" d="M 157.5,297.5 C 169.324,295.824 174.158,300.824 172,312.5C 165.667,320.5 159.333,320.5 153,312.5C 151.254,306.342 152.754,301.342 157.5,297.5 Z"/></g>
<g><path style="opacity:1" fill="#febf58" d="M 21.5,375.5 C 177.501,375.167 333.501,375.5 489.5,376.5C 485.371,386.461 478.038,392.627 467.5,395C 450.833,395.333 434.167,395.667 417.5,396C 410.848,400.598 409.848,406.265 414.5,413C 415.833,413.667 417.167,414.333 418.5,415C 428.849,415.168 439.183,415.668 449.5,416.5C 445.371,426.461 438.038,432.627 427.5,435C 312.5,435.667 197.5,435.667 82.5,435C 72.5258,432.191 65.5258,426.025 61.5,416.5C 155.498,415.667 249.498,415.167 343.5,415C 351.533,411.404 353.199,405.904 348.5,398.5C 347.088,397.194 345.421,396.36 343.5,396C 243.167,395.667 142.833,395.333 42.5,395C 32.0867,392.084 25.0867,385.584 21.5,375.5 Z"/></g>
<g><path style="opacity:1" fill="#090602" d="M 378.5,395.5 C 390.516,396.365 393.849,402.199 388.5,413C 383.505,416.472 378.672,416.306 374,412.5C 369.762,405.157 371.262,399.49 378.5,395.5 Z"/></g>
</svg>
