<?xml version="1.0" encoding="UTF-8"?>
<!DOCTYPE svg PUBLIC "-//W3C//DTD SVG 1.1//EN" "http://www.w3.org/Graphics/SVG/1.1/DTD/svg11.dtd">
<svg xmlns="http://www.w3.org/2000/svg" version="1.1" width="512px" height="512px" style="shape-rendering:geometricPrecision; text-rendering:geometricPrecision; image-rendering:optimizeQuality; fill-rule:evenodd; clip-rule:evenodd" xmlns:xlink="http://www.w3.org/1999/xlink">
<g><path style="opacity:0.98" fill="#000000" d="M 129.5,-0.5 C 147.5,-0.5 165.5,-0.5 183.5,-0.5C 185.578,1.39043 186.911,3.72376 187.5,6.5C 186.59,9.79257 184.59,12.2926 181.5,14C 164.101,14.0414 146.767,14.7081 129.5,16C 115.407,24.9523 112.907,36.4523 122,50.5C 125.114,53.3061 128.614,55.4728 132.5,57C 153.164,57.5 173.831,57.6666 194.5,57.5C 255.834,57.6667 317.168,57.5 378.5,57C 390.176,52.4842 395.343,43.9842 394,31.5C 391.719,22.2189 385.886,16.7189 376.5,15C 319.833,14.6667 263.167,14.3333 206.5,14C 204.676,13.34 203.343,12.1733 202.5,10.5C 201.766,9.29208 201.433,7.95875 201.5,6.5C 201.571,3.34772 202.905,1.01439 205.5,-0.5C 264.167,-0.5 322.833,-0.5 381.5,-0.5C 405.367,8.56651 413.867,25.5665 407,50.5C 401.284,62.1216 392.117,69.6216 379.5,73C 380.833,77.3333 380.833,81.6667 379.5,86C 412.737,88.1885 436.237,104.355 450,134.5C 452.609,140.934 454.275,147.601 455,154.5C 455.984,253.193 455.65,351.859 454,450.5C 445.323,484.013 424.156,504.347 390.5,511.5C 300.5,511.5 210.5,511.5 120.5,511.5C 86.8174,504.32 65.6508,483.986 57,450.5C 55.3472,351.53 55.0138,252.53 56,153.5C 62.2137,119.206 82.047,97.3728 115.5,88C 120.799,87.07 126.133,86.4034 131.5,86C 130.167,81.6667 130.167,77.3333 131.5,73C 106.198,64.5672 97.0314,47.4005 104,21.5C 109.246,10.3079 117.746,2.9746 129.5,-0.5 Z"/></g>
<g><path style="opacity:1" fill="#94d5a3" d="M 187.5,6.5 C 192.167,6.5 196.833,6.5 201.5,6.5C 201.433,7.95875 201.766,9.29208 202.5,10.5C 193.775,13.9028 188.275,20.2361 186,29.5C 184.29,40.2919 187.123,49.6252 194.5,57.5C 173.831,57.6666 153.164,57.5 132.5,57C 128.614,55.4728 125.114,53.3061 122,50.5C 112.907,36.4523 115.407,24.9523 129.5,16C 146.767,14.7081 164.101,14.0414 181.5,14C 184.59,12.2926 186.59,9.79257 187.5,6.5 Z"/></g>
<g><path style="opacity:1" fill="#b2e49e" d="M 202.5,10.5 C 203.343,12.1733 204.676,13.34 206.5,14C 263.167,14.3333 319.833,14.6667 376.5,15C 385.886,16.7189 391.719,22.2189 394,31.5C 395.343,43.9842 390.176,52.4842 378.5,57C 317.168,57.5 255.834,57.6667 194.5,57.5C 187.123,49.6252 184.29,40.2919 186,29.5C 188.275,20.2361 193.775,13.9028 202.5,10.5 Z"/></g>
<g><path style="opacity:1" fill="#655d65" d="M 202.5,72.5 C 199.833,77.1667 199.833,81.8333 202.5,86.5C 184.83,86.6666 167.164,86.4999 149.5,86C 143.964,81.1624 144.297,76.8291 150.5,73C 167.83,72.5001 185.163,72.3334 202.5,72.5 Z"/></g>
<g><path style="opacity:1" fill="#746d77" d="M 202.5,72.5 C 255.168,72.3333 307.834,72.5 360.5,73C 367.167,77.3333 367.167,81.6667 360.5,86C 307.834,86.5 255.168,86.6667 202.5,86.5C 199.833,81.8333 199.833,77.1667 202.5,72.5 Z"/></g>
<g><path style="opacity:1" fill="#d9d6e8" d="M 201.5,101.5 C 180.112,113.421 167.779,131.588 164.5,156C 164.533,158.61 165.2,160.777 166.5,162.5C 160.15,164.514 154.483,167.848 149.5,172.5C 129.417,156.632 110.583,157.966 93,176.5C 89.5006,181.66 87.1672,187.326 86,193.5C 85.3333,275.5 85.3333,357.5 86,439.5C 90.189,461.356 103.022,475.189 124.5,481C 143.83,481.5 163.164,481.667 182.5,481.5C 187.971,487.643 194.305,492.643 201.5,496.5C 173.791,496.957 146.124,496.457 118.5,495C 92.0849,486.584 76.2515,468.75 71,441.5C 70.3333,346.5 70.3333,251.5 71,156.5C 76.2361,129.264 92.0694,111.43 118.5,103C 146.124,101.543 173.791,101.043 201.5,101.5 Z"/></g>
<g><path style="opacity:1" fill="#efeff1" d="M 201.5,101.5 C 262.501,101.333 323.501,101.5 384.5,102C 415.551,107.384 434.051,125.551 440,156.5C 440.667,251.5 440.667,346.5 440,441.5C 434.375,472.792 415.875,490.958 384.5,496C 323.501,496.5 262.501,496.667 201.5,496.5C 194.305,492.643 187.971,487.643 182.5,481.5C 249.167,481.667 315.834,481.5 382.5,481C 406.201,476.966 420.368,463.133 425,439.5C 425.667,417.5 425.667,395.5 425,373.5C 423.52,370.183 421.02,368.183 417.5,367.5C 417.5,362.5 417.5,357.5 417.5,352.5C 421.09,352.456 423.59,350.789 425,347.5C 425.667,296.167 425.667,244.833 425,193.5C 417.621,167.559 400.788,157.725 374.5,164C 369.761,166.243 365.428,169.077 361.5,172.5C 343.777,157.992 326.111,157.992 308.5,172.5C 290.764,157.99 273.097,157.99 255.5,172.5C 237.764,157.99 220.097,157.99 202.5,172.5C 192.16,163.277 180.16,159.943 166.5,162.5C 165.2,160.777 164.533,158.61 164.5,156C 167.779,131.588 180.112,113.421 201.5,101.5 Z"/></g>
<g><path style="opacity:1" fill="#050404" d="M 166.5,162.5 C 180.16,159.943 192.16,163.277 202.5,172.5C 220.097,157.99 237.764,157.99 255.5,172.5C 273.097,157.99 290.764,157.99 308.5,172.5C 326.111,157.992 343.777,157.992 361.5,172.5C 365.428,169.077 369.761,166.243 374.5,164C 400.788,157.725 417.621,167.559 425,193.5C 425.667,244.833 425.667,296.167 425,347.5C 423.59,350.789 421.09,352.456 417.5,352.5C 413.335,352.59 411.002,350.59 410.5,346.5C 410.833,307.161 410.5,267.828 409.5,228.5C 408.893,228.624 408.56,228.957 408.5,229.5C 391.608,238.868 375.941,237.202 361.5,224.5C 343.777,239.008 326.111,239.008 308.5,224.5C 290.764,239.01 273.097,239.01 255.5,224.5C 237.764,239.01 220.097,239.01 202.5,224.5C 191.104,234.512 178.104,237.512 163.5,233.5C 158.182,231.508 153.516,228.508 149.5,224.5C 134.932,236.908 119.265,238.574 102.5,229.5C 102.44,228.957 102.107,228.624 101.5,228.5C 100.168,298.665 100.168,368.665 101.5,438.5C 103.454,451.292 110.454,460.125 122.5,465C 138.776,466.44 155.11,466.94 171.5,466.5C 242.501,466.667 313.501,466.5 384.5,466C 398.519,461.98 407.019,452.813 410,438.5C 410.333,416.167 410.667,393.833 411,371.5C 412.638,369.266 414.805,367.933 417.5,367.5C 421.02,368.183 423.52,370.183 425,373.5C 425.667,395.5 425.667,417.5 425,439.5C 420.368,463.133 406.201,476.966 382.5,481C 315.834,481.5 249.167,481.667 182.5,481.5C 163.164,481.667 143.83,481.5 124.5,481C 103.022,475.189 90.189,461.356 86,439.5C 85.3333,357.5 85.3333,275.5 86,193.5C 87.1672,187.326 89.5006,181.66 93,176.5C 110.583,157.966 129.417,156.632 149.5,172.5C 154.483,167.848 160.15,164.514 166.5,162.5 Z"/></g>
<g><path style="opacity:1" fill="#de8223" d="M 170.5,177.5 C 171.873,177.343 173.207,177.51 174.5,178C 163.591,192.436 163.924,206.603 175.5,220.5C 171.187,220.452 167.187,219.285 163.5,217C 159.452,213.554 156.118,209.554 153.5,205C 147.049,202.822 142.882,204.989 141,211.5C 128.969,223.439 116.969,223.439 105,211.5C 97.0754,195.607 101.242,184.107 117.5,177C 124.388,175.656 130.722,176.99 136.5,181C 139.5,184.667 142.5,188.333 145.5,192C 148.167,194 150.833,194 153.5,192C 156.022,187.966 159.022,184.299 162.5,181C 164.818,179.007 167.484,177.841 170.5,177.5 Z"/></g>
<g><path style="opacity:1" fill="#e19341" d="M 170.5,177.5 C 179.788,175.457 187.622,178.124 194,185.5C 199.667,196.167 205.333,196.167 211,185.5C 220.243,175.358 230.743,173.858 242.5,181C 245.978,184.299 248.978,187.966 251.5,192C 257.762,194.285 261.928,192.118 264,185.5C 273.243,175.358 283.743,173.858 295.5,181C 298.978,184.299 301.978,187.966 304.5,192C 310.762,194.285 314.928,192.118 317,185.5C 328.969,173.561 340.969,173.561 353,185.5C 359.347,196.267 365.347,195.933 371,184.5C 382.959,173.586 394.626,173.919 406,185.5C 412.812,197.427 410.979,207.927 400.5,217C 391.593,221.916 382.927,221.583 374.5,216C 371.022,212.701 368.022,209.034 365.5,205C 362.833,204.333 360.167,204.333 357.5,205C 354.882,209.554 351.548,213.554 347.5,217C 338.564,221.97 329.898,221.636 321.5,216C 318.022,212.701 315.022,209.034 312.5,205C 306.049,202.822 301.882,204.989 300,211.5C 291.256,221.092 281.09,222.926 269.5,217C 265.452,213.554 262.118,209.554 259.5,205C 253.049,202.822 248.882,204.989 247,211.5C 238.256,221.092 228.09,222.926 216.5,217C 212.452,213.554 209.118,209.554 206.5,205C 200.049,202.822 195.882,204.989 194,211.5C 189.293,217.46 183.126,220.46 175.5,220.5C 163.924,206.603 163.591,192.436 174.5,178C 173.207,177.51 171.873,177.343 170.5,177.5 Z"/></g>
<g><path style="opacity:1" fill="#fec14f" d="M 163.5,233.5 C 163.5,246.167 163.5,258.833 163.5,271.5C 139.86,285.141 133.694,304.474 145,329.5C 149.808,336.479 155.975,341.813 163.5,345.5C 163.5,362.167 163.5,378.833 163.5,395.5C 161.585,395.216 159.919,395.549 158.5,396.5C 148.678,398.154 142.511,403.821 140,413.5C 138.222,431.639 146.389,440.972 164.5,441.5C 165.41,450.23 167.743,458.563 171.5,466.5C 155.11,466.94 138.776,466.44 122.5,465C 110.454,460.125 103.454,451.292 101.5,438.5C 101.167,368.665 101.501,298.998 102.5,229.5C 119.265,238.574 134.932,236.908 149.5,224.5C 153.516,228.508 158.182,231.508 163.5,233.5 Z"/></g>
<g><path style="opacity:1" fill="#fdcf63" d="M 408.5,229.5 C 409.167,268.5 409.833,307.5 410.5,346.5C 411.002,350.59 413.335,352.59 417.5,352.5C 417.5,357.5 417.5,362.5 417.5,367.5C 414.805,367.933 412.638,369.266 411,371.5C 410.667,393.833 410.333,416.167 410,438.5C 407.019,452.813 398.519,461.98 384.5,466C 313.501,466.5 242.501,466.667 171.5,466.5C 167.743,458.563 165.41,450.23 164.5,441.5C 179.866,437.944 186.366,428.278 184,412.5C 179.532,400.884 171.032,395.551 158.5,396.5C 159.919,395.549 161.585,395.216 163.5,395.5C 163.5,378.833 163.5,362.167 163.5,345.5C 186.03,352.935 203.53,346.602 216,326.5C 225.454,298.245 216.287,279.079 188.5,269C 179.889,267.772 171.555,268.605 163.5,271.5C 163.5,258.833 163.5,246.167 163.5,233.5C 178.104,237.512 191.104,234.512 202.5,224.5C 220.097,239.01 237.764,239.01 255.5,224.5C 273.097,239.01 290.764,239.01 308.5,224.5C 326.111,239.008 343.777,239.008 361.5,224.5C 375.941,237.202 391.608,238.868 408.5,229.5 Z"/></g>
<g><path style="opacity:1" fill="#9a7530" d="M 102.5,229.5 C 101.501,298.998 101.167,368.665 101.5,438.5C 100.168,368.665 100.168,298.665 101.5,228.5C 102.107,228.624 102.44,228.957 102.5,229.5 Z"/></g>
<g><path style="opacity:1" fill="#987c3b" d="M 408.5,229.5 C 408.56,228.957 408.893,228.624 409.5,228.5C 410.5,267.828 410.833,307.161 410.5,346.5C 409.833,307.5 409.167,268.5 408.5,229.5 Z"/></g>
<g><path style="opacity:1" fill="#050402" d="M 323.5,248.5 C 350.186,246.696 364.019,259.029 365,285.5C 359.824,306.659 346.324,316.159 324.5,314C 305.582,307.683 297.082,294.517 299,274.5C 302.925,261.744 311.092,253.078 323.5,248.5 Z"/></g>
<g><path style="opacity:1" fill="#fadc7a" d="M 325.5,263.5 C 345.333,262.485 352.833,271.485 348,290.5C 340.527,300.249 331.36,302.082 320.5,296C 313.558,289.779 311.725,282.279 315,273.5C 317.738,269.26 321.238,265.926 325.5,263.5 Z"/></g>
<g><path style="opacity:1" fill="#050402" d="M 163.5,345.5 C 155.975,341.813 149.808,336.479 145,329.5C 133.694,304.474 139.86,285.141 163.5,271.5C 171.555,268.605 179.889,267.772 188.5,269C 216.287,279.079 225.454,298.245 216,326.5C 203.53,346.602 186.03,352.935 163.5,345.5 Z"/></g>
<g><path style="opacity:1" fill="#fcdd7b" d="M 172.5,283.5 C 189.048,281.179 199.881,287.846 205,303.5C 205.264,325.57 194.431,335.403 172.5,333C 158.487,327.147 152.653,316.647 155,301.5C 158.379,292.956 164.212,286.956 172.5,283.5 Z"/></g>
<g><path style="opacity:1" fill="#050402" d="M 221.5,341.5 C 237.977,340.16 249.143,347.16 255,362.5C 256.459,386.374 245.292,397.541 221.5,396C 204.828,390.505 197.994,379.005 201,361.5C 205.106,351.893 211.939,345.226 221.5,341.5 Z"/></g>
<g><path style="opacity:1" fill="#050402" d="M 347.5,351.5 C 370.014,350.536 385.18,360.536 393,381.5C 397.222,405.564 388.056,422.064 365.5,431C 343.663,435.496 327.496,427.996 317,408.5C 309.155,379.849 319.321,360.849 347.5,351.5 Z"/></g>
<g><path style="opacity:1" fill="#fadc7a" d="M 223.5,356.5 C 237.059,356.212 242.226,362.545 239,375.5C 234.914,381.118 229.414,382.951 222.5,381C 216.333,377.155 214.166,371.655 216,364.5C 218.028,361.308 220.528,358.641 223.5,356.5 Z"/></g>
<g><path style="opacity:1" fill="#fbdd7b" d="M 348.5,366.5 C 369.339,366.504 379.506,376.838 379,397.5C 372.315,414.759 360.148,420.592 342.5,415C 328.099,405.447 324.932,392.947 333,377.5C 337.127,372.202 342.294,368.535 348.5,366.5 Z"/></g>
<g><path style="opacity:1" fill="#050402" d="M 158.5,396.5 C 171.032,395.551 179.532,400.884 184,412.5C 186.366,428.278 179.866,437.944 164.5,441.5C 146.389,440.972 138.222,431.639 140,413.5C 142.511,403.821 148.678,398.154 158.5,396.5 Z"/></g>
<g><path style="opacity:1" fill="#f8da79" d="M 158.5,411.5 C 167.33,410.162 170.83,413.829 169,422.5C 164.239,427.812 159.572,427.812 155,422.5C 153.663,417.872 154.83,414.205 158.5,411.5 Z"/></g>
</svg>
