<?xml version="1.0" encoding="UTF-8"?>
<!DOCTYPE svg PUBLIC "-//W3C//DTD SVG 1.1//EN" "http://www.w3.org/Graphics/SVG/1.1/DTD/svg11.dtd">
<svg xmlns="http://www.w3.org/2000/svg" version="1.1" width="512px" height="512px" style="shape-rendering:geometricPrecision; text-rendering:geometricPrecision; image-rendering:optimizeQuality; fill-rule:evenodd; clip-rule:evenodd" xmlns:xlink="http://www.w3.org/1999/xlink">
<g><path style="opacity:0.975" fill="#020100" d="M 345.5,23.5 C 380.713,20.0501 412.379,28.8835 440.5,50C 458.788,60.127 478.454,64.7937 499.5,64C 502.666,65.6657 504,68.3323 503.5,72C 498.901,90.3284 495.068,108.828 492,127.5C 489.667,155.178 487.333,182.845 485,210.5C 480.747,231.515 470.913,249.348 455.5,264C 471.732,296.634 475.899,330.8 468,366.5C 459.037,400.772 440.371,428.439 412,449.5C 410.561,451.275 409.561,453.275 409,455.5C 408.352,478.822 396.519,489.322 373.5,487C 357.319,478.078 340.319,471.078 322.5,466C 314.596,464.109 306.596,462.776 298.5,462C 275.463,460.723 252.463,459.057 229.5,457C 199.692,451.351 176.526,435.851 160,410.5C 143.213,384.473 134.713,355.973 134.5,325C 115.334,321.792 96.3345,317.792 77.5,313C 60.85,311.953 44.1833,311.286 27.5,311C 26.5838,310.626 25.7504,310.126 25,309.5C 23.8139,297.53 22.4806,285.53 21,273.5C 18.2279,264.622 14.8946,255.955 11,247.5C 0.26376,202.503 8.93043,161.836 37,125.5C 73.6453,87.6346 116.812,77.8013 166.5,96C 187.218,104.779 203.718,118.613 216,137.5C 221.712,147.39 224.379,158.056 224,169.5C 242.713,179.386 255.547,194.386 262.5,214.5C 268.864,211.65 275.197,208.816 281.5,206C 255.181,182.066 244.015,152.233 248,116.5C 255.307,76.1933 277.807,48.0266 315.5,32C 325.356,28.2066 335.356,25.3733 345.5,23.5 Z"/></g>
<g><path style="opacity:1" fill="#e6b431" d="M 449.5,246.5 C 437.686,230.187 422.686,217.687 404.5,209C 396.512,205.278 388.178,203.111 379.5,202.5C 359.607,199.811 339.607,198.811 319.5,199.5C 313.877,167.535 322.877,140.701 346.5,119C 359.723,108.724 374.723,103.557 391.5,103.5C 391.5,98.1667 391.5,92.8333 391.5,87.5C 343.306,90.8569 314.14,116.19 304,163.5C 303.833,176.18 303.333,188.846 302.5,201.5C 270.339,178.489 258.172,147.489 266,108.5C 277.915,73.5871 301.748,51.4205 337.5,42C 374.294,35.4485 407.294,43.7819 436.5,67C 451.594,74.652 467.594,78.8187 484.5,79.5C 481.475,93.7901 478.642,108.123 476,122.5C 472.959,150.46 470.626,178.46 469,206.5C 465.934,221.63 459.434,234.963 449.5,246.5 Z"/></g>
<g><path style="opacity:1" fill="#f7ca65" d="M 245.5,219.5 C 245.719,220.675 245.386,221.675 244.5,222.5C 236.88,227.467 229.88,233.133 223.5,239.5C 222.167,239.5 220.833,239.5 219.5,239.5C 180.465,241.067 153.632,259.734 139,295.5C 137.686,299.754 136.853,304.087 136.5,308.5C 115.42,304.814 94.42,300.647 73.5,296C 62.1716,295.5 50.8382,295.333 39.5,295.5C 39.8115,287.772 39.3115,280.105 38,272.5C 34.2301,260.294 29.8967,248.294 25,236.5C 17.1678,191.996 29.6678,154.496 62.5,124C 97.3221,99.3255 133.655,96.9922 171.5,117C 187.244,126.075 198.744,138.908 206,155.5C 206.953,158.432 207.453,161.432 207.5,164.5C 190.024,160.805 172.357,159.305 154.5,160C 138.224,162.64 123.891,169.307 111.5,180C 99.3333,192.167 87.1667,204.333 75,216.5C 77.4457,221.133 80.9457,225.133 85.5,228.5C 98.6527,215.847 111.653,203.014 124.5,190C 137.093,180.08 151.426,175.247 167.5,175.5C 186.356,175.438 204.356,179.271 221.5,187C 233.767,194.707 241.767,205.54 245.5,219.5 Z"/></g>
<g><path style="opacity:1" fill="#be8f26" d="M 379.5,202.5 C 388.178,203.111 396.512,205.278 404.5,209C 422.686,217.687 437.686,230.187 449.5,246.5C 448.878,247.627 448.045,248.627 447,249.5C 430.102,225.766 407.602,210.099 379.5,202.5 Z"/></g>
<g><path style="opacity:1" fill="#fed891" d="M 393.5,448.5 C 388.367,444.829 382.701,441.996 376.5,440C 367.632,436.867 358.632,434.2 349.5,432C 319.178,429.138 288.844,426.471 258.5,424C 225.744,414.914 202.577,394.748 189,363.5C 177.015,337.94 173.348,311.273 178,283.5C 179.012,278.482 180.845,273.815 183.5,269.5C 198.236,259.564 214.57,255.064 232.5,256C 305.72,275.274 353.387,321.107 375.5,393.5C 380.5,392.167 385.5,390.833 390.5,389.5C 373.003,328.168 335.67,283.335 278.5,255C 268.47,250.982 258.47,246.982 248.5,243C 281.905,218.65 319.239,209.65 360.5,216C 400.977,220.814 429.144,241.98 445,279.5C 461.224,320.486 458.557,360.153 437,398.5C 432.385,405.45 427.385,412.116 422,418.5C 414,425.833 406,433.167 398,440.5C 396.205,443.099 394.705,445.766 393.5,448.5 Z"/></g>
<g><path style="opacity:1" fill="#dcac31" d="M 245.5,219.5 C 246.793,221.364 246.793,223.364 245.5,225.5C 239.469,229.519 233.802,234.019 228.5,239C 226.866,239.494 225.199,239.66 223.5,239.5C 229.88,233.133 236.88,227.467 244.5,222.5C 245.386,221.675 245.719,220.675 245.5,219.5 Z"/></g>
<g><path style="opacity:1" fill="#ddad33" d="M 219.5,239.5 C 177.468,245.334 149.801,268.334 136.5,308.5C 136.853,304.087 137.686,299.754 139,295.5C 153.632,259.734 180.465,241.067 219.5,239.5 Z"/></g>
<g><path style="opacity:1" fill="#f7c965" d="M 183.5,269.5 C 180.845,273.815 179.012,278.482 178,283.5C 173.348,311.273 177.015,337.94 189,363.5C 202.577,394.748 225.744,414.914 258.5,424C 288.844,426.471 319.178,429.138 349.5,432C 358.632,434.2 367.632,436.867 376.5,440C 382.701,441.996 388.367,444.829 393.5,448.5C 392.137,454.445 390.971,460.445 390,466.5C 386.465,470.789 381.965,472.289 376.5,471C 351.266,455.923 323.933,447.256 294.5,445C 275.846,443.751 257.18,442.751 238.5,442C 212.278,438.312 191.445,425.812 176,404.5C 155.887,375.05 148.554,342.717 154,307.5C 158.884,290.806 168.718,278.14 183.5,269.5 Z"/></g>
</svg>
