<?xml version="1.0" encoding="UTF-8"?>
<!DOCTYPE svg PUBLIC "-//W3C//DTD SVG 1.1//EN" "http://www.w3.org/Graphics/SVG/1.1/DTD/svg11.dtd">
<svg xmlns="http://www.w3.org/2000/svg" version="1.1" width="512px" height="512px" style="shape-rendering:geometricPrecision; text-rendering:geometricPrecision; image-rendering:optimizeQuality; fill-rule:evenodd; clip-rule:evenodd" xmlns:xlink="http://www.w3.org/1999/xlink">
<g><path style="opacity:0.982" fill="#020202" d="M 269.5,-0.5 C 270.5,-0.5 271.5,-0.5 272.5,-0.5C 275.075,3.64701 277.409,7.98035 279.5,12.5C 270.109,18.6067 264.775,27.2734 263.5,38.5C 281.917,44.2933 290.084,56.9599 288,76.5C 286.882,81.7035 284.715,86.3701 281.5,90.5C 284.013,92.9257 287.013,94.5924 290.5,95.5C 312.076,85.6478 333.909,84.9811 356,93.5C 388.812,81.2725 417.645,87.4392 442.5,112C 440.937,113.736 439.27,115.236 437.5,116.5C 434.907,117.754 432.573,119.42 430.5,121.5C 423.899,115.035 416.233,110.369 407.5,107.5C 396.685,102.519 385.352,101.352 373.5,104C 386.199,114.562 395.032,127.728 400,143.5C 407.751,191.602 415.251,239.602 422.5,287.5C 437.324,288.496 452.324,288.829 467.5,288.5C 467.768,286.901 467.434,285.568 466.5,284.5C 466.147,278.028 465.147,271.694 463.5,265.5C 458.515,227.77 453.015,190.103 447,152.5C 445.477,145.622 442.977,139.122 439.5,133C 441.73,131.391 443.73,129.557 445.5,127.5C 447.473,126.513 449.473,125.513 451.5,124.5C 456.099,130.774 459.266,137.774 461,145.5C 468.68,192.762 475.847,240.096 482.5,287.5C 496.707,285.76 506.374,291.427 511.5,304.5C 511.5,308.833 511.5,313.167 511.5,317.5C 506.21,329.489 496.877,334.822 483.5,333.5C 478.958,362.211 462.958,381.377 435.5,391C 432.211,391.882 428.877,392.548 425.5,393C 379.835,393.5 334.168,393.667 288.5,393.5C 288.5,414.167 288.5,434.833 288.5,455.5C 301.129,454.773 313.462,456.273 325.5,460C 345.916,470.989 355.249,488.156 353.5,511.5C 288.167,511.5 222.833,511.5 157.5,511.5C 155.951,483.243 168.618,465.076 195.5,457C 204.463,455.835 213.463,455.335 222.5,455.5C 222.5,434.833 222.5,414.167 222.5,393.5C 194.833,393.5 167.167,393.5 139.5,393.5C 139.5,391.167 139.5,388.833 139.5,386.5C 139.5,383.833 139.5,381.167 139.5,378.5C 232.501,378.667 325.501,378.5 418.5,378C 435.113,377.034 448.113,369.867 457.5,356.5C 463.142,349.93 466.475,342.263 467.5,333.5C 326.167,333.5 184.833,333.5 43.5,333.5C 44.5672,341.72 47.5672,349.053 52.5,355.5C 61.2338,368.038 73.2338,375.538 88.5,378C 100.495,378.5 112.495,378.667 124.5,378.5C 124.5,381.167 124.5,383.833 124.5,386.5C 124.5,388.833 124.5,391.167 124.5,393.5C 111.496,393.667 98.4957,393.5 85.5,393C 60.1098,388.947 42.2765,375.113 32,351.5C 29.8696,345.645 28.3696,339.645 27.5,333.5C 14.1231,334.822 4.78976,329.489 -0.5,317.5C -0.5,313.167 -0.5,308.833 -0.5,304.5C 4.58602,291.444 14.2527,285.778 28.5,287.5C 35.0061,241.462 41.8394,195.462 49,149.5C 54.9761,122.855 70.4761,104.021 95.5,93C 115.447,85.5231 135.281,85.6898 155,93.5C 177.084,85.0194 198.918,85.6861 220.5,95.5C 223.667,94.2812 226.667,92.7812 229.5,91C 219.116,74.6578 220.449,59.3245 233.5,45C 237.537,41.4813 242.204,39.3146 247.5,38.5C 248.393,21.6993 255.726,8.69928 269.5,-0.5 Z"/></g>
<g><path style="opacity:1" fill="#f7f899" d="M 272.5,65.5 C 271.883,65.3893 271.383,65.056 271,64.5C 266.316,68.1718 260.983,69.8385 255,69.5C 249.228,70.1121 244.228,68.4454 240,64.5C 239.617,65.056 239.117,65.3893 238.5,65.5C 243.621,53.5103 252.288,50.0103 264.5,55C 268.143,57.803 270.81,61.303 272.5,65.5 Z"/></g>
<g><path style="opacity:1" fill="#f1ed66" d="M 272.5,65.5 C 273.059,83.1039 264.726,89.9373 247.5,86C 239.97,81.2688 236.97,74.4354 238.5,65.5C 239.117,65.3893 239.617,65.056 240,64.5C 244.228,68.4454 249.228,70.1121 255,69.5C 260.983,69.8385 266.316,68.1718 271,64.5C 271.383,65.056 271.883,65.3893 272.5,65.5 Z"/></g>
<g><path style="opacity:1" fill="#f55858" d="M 88.5,287.5 C 73.8333,287.5 59.1667,287.5 44.5,287.5C 44.5,286.5 44.5,285.5 44.5,284.5C 44.7325,279.106 45.3992,273.773 46.5,268.5C 47.404,267.791 47.7373,266.791 47.5,265.5C 54.8333,265.5 62.1667,265.5 69.5,265.5C 74.9119,225.784 80.7453,186.117 87,146.5C 89.8557,131.796 95.689,118.462 104.5,106.5C 115.122,102.38 126.122,101.546 137.5,104C 124.801,114.562 115.968,127.728 111,143.5C 103.049,191.422 95.5494,239.422 88.5,287.5 Z"/></g>
<g><path style="opacity:1" fill="#f55858" d="M 158.5,287.5 C 140.136,288.153 122.136,287.487 104.5,285.5C 105.014,278.63 106.014,271.963 107.5,265.5C 118.167,265.5 128.833,265.5 139.5,265.5C 145.255,224.465 151.422,183.465 158,142.5C 161.525,128.122 167.692,115.122 176.5,103.5C 186.022,102.189 195.355,103.189 204.5,106.5C 193.645,116.869 185.811,129.203 181,143.5C 173.063,191.571 165.563,239.571 158.5,287.5 Z"/></g>
<g><path style="opacity:1" fill="#fd7a7a" d="M 326.5,164.5 C 326.998,169.152 327.331,173.819 327.5,178.5C 325.914,179.148 324.247,179.648 322.5,180C 321.903,181.062 321.57,182.228 321.5,183.5C 325.781,210.803 329.781,238.136 333.5,265.5C 320.167,265.5 306.833,265.5 293.5,265.5C 293.5,262.833 293.5,260.167 293.5,257.5C 288.167,257.5 282.833,257.5 277.5,257.5C 277.5,260.167 277.5,262.833 277.5,265.5C 272.833,265.5 268.167,265.5 263.5,265.5C 263.802,262.941 263.468,260.607 262.5,258.5C 257.695,257.513 252.695,257.179 247.5,257.5C 247.5,260.167 247.5,262.833 247.5,265.5C 242.833,265.5 238.167,265.5 233.5,265.5C 233.802,262.941 233.468,260.607 232.5,258.5C 227.695,257.513 222.695,257.179 217.5,257.5C 217.5,260.167 217.5,262.833 217.5,265.5C 204.167,265.5 190.833,265.5 177.5,265.5C 182.875,225.378 189.041,185.378 196,145.5C 206.654,118.851 226.321,104.518 255,102.5C 292.794,106.127 313.96,126.794 318.5,164.5C 321.167,164.5 323.833,164.5 326.5,164.5 Z"/></g>
<g><path style="opacity:1" fill="#f55858" d="M 334.5,103.5 C 343.05,115.288 349.216,128.288 353,142.5C 359.604,183.453 365.77,224.453 371.5,265.5C 382.167,265.5 392.833,265.5 403.5,265.5C 404.978,271.962 405.978,278.628 406.5,285.5C 388.864,287.487 370.864,288.153 352.5,287.5C 346.785,252.007 341.285,216.34 336,180.5C 333.544,178.679 330.711,178.012 327.5,178.5C 327.331,173.819 326.998,169.152 326.5,164.5C 328.265,163.539 330.265,163.205 332.5,163.5C 331.731,140.463 322.731,121.296 305.5,106C 314.987,102.704 324.654,101.87 334.5,103.5 Z"/></g>
<g><path style="opacity:1" fill="#f55858" d="M 407.5,107.5 C 417.861,122.913 423.861,139.913 425.5,158.5C 423.393,159.468 421.059,159.802 418.5,159.5C 419.827,167.453 420.827,175.453 421.5,183.5C 423.167,183.5 424.833,183.5 426.5,183.5C 427.5,183.5 428.5,183.5 429.5,183.5C 429.957,188.201 430.624,192.868 431.5,197.5C 429.139,197.674 426.806,198.007 424.5,198.5C 425.085,203.515 425.752,208.515 426.5,213.5C 427.833,213.5 429.167,213.5 430.5,213.5C 431.833,213.5 433.167,213.5 434.5,213.5C 436.616,230.865 438.95,248.198 441.5,265.5C 448.833,265.5 456.167,265.5 463.5,265.5C 465.147,271.694 466.147,278.028 466.5,284.5C 466.5,285.5 466.5,286.5 466.5,287.5C 451.833,287.5 437.167,287.5 422.5,287.5C 415.251,239.602 407.751,191.602 400,143.5C 395.032,127.728 386.199,114.562 373.5,104C 385.352,101.352 396.685,102.519 407.5,107.5 Z"/></g>
<g><path style="opacity:1" fill="#fc7979" d="M 176.5,103.5 C 167.692,115.122 161.525,128.122 158,142.5C 151.422,183.465 145.255,224.465 139.5,265.5C 128.833,265.5 118.167,265.5 107.5,265.5C 112.583,229.836 117.75,194.169 123,158.5C 128.542,128.126 146.375,109.792 176.5,103.5 Z"/></g>
<g><path style="opacity:1" fill="#fd7979" d="M 334.5,103.5 C 367.67,110.844 385.837,131.511 389,165.5C 393.998,198.82 398.831,232.153 403.5,265.5C 392.833,265.5 382.167,265.5 371.5,265.5C 365.77,224.453 359.604,183.453 353,142.5C 349.216,128.288 343.05,115.288 334.5,103.5 Z"/></g>
<g><path style="opacity:1" fill="#fb7979" d="M 104.5,106.5 C 95.689,118.462 89.8557,131.796 87,146.5C 80.7453,186.117 74.9119,225.784 69.5,265.5C 62.1667,265.5 54.8333,265.5 47.5,265.5C 47.7373,266.791 47.404,267.791 46.5,268.5C 51.9981,231.51 57.4981,194.51 63,157.5C 67.1381,132.536 80.9714,115.536 104.5,106.5 Z"/></g>
<g><path style="opacity:0.997" fill="#fb7979" d="M 407.5,107.5 C 416.233,110.369 423.899,115.035 430.5,121.5C 432.573,119.42 434.907,117.754 437.5,116.5C 440.199,120.19 442.865,123.857 445.5,127.5C 443.73,129.557 441.73,131.391 439.5,133C 442.977,139.122 445.477,145.622 447,152.5C 453.015,190.103 458.515,227.77 463.5,265.5C 456.167,265.5 448.833,265.5 441.5,265.5C 438.95,248.198 436.616,230.865 434.5,213.5C 433.167,213.5 431.833,213.5 430.5,213.5C 433.909,212.097 437.575,211.43 441.5,211.5C 440.574,206.537 439.908,201.537 439.5,196.5C 436.833,196.833 434.167,197.167 431.5,197.5C 430.624,192.868 429.957,188.201 429.5,183.5C 428.5,183.5 427.5,183.5 426.5,183.5C 429.36,182.756 432.36,182.089 435.5,181.5C 435.833,180.333 436.167,179.167 436.5,178C 435.294,171.519 434.294,165.019 433.5,158.5C 430.833,158.5 428.167,158.5 425.5,158.5C 423.861,139.913 417.861,122.913 407.5,107.5 Z"/></g>
<g><path style="opacity:1" fill="#fffcfc" d="M 255.5,118.5 C 276.631,119.149 291.464,129.149 300,148.5C 302.468,157.007 303.968,165.673 304.5,174.5C 299.515,175.248 294.515,175.915 289.5,176.5C 289.351,165.892 286.851,155.892 282,146.5C 275.463,137.482 266.63,133.148 255.5,133.5C 255.5,128.5 255.5,123.5 255.5,118.5 Z"/></g>
<g><path style="opacity:1" fill="#fffbfb" d="M 425.5,158.5 C 428.167,158.5 430.833,158.5 433.5,158.5C 434.294,165.019 435.294,171.519 436.5,178C 436.167,179.167 435.833,180.333 435.5,181.5C 432.36,182.089 429.36,182.756 426.5,183.5C 424.833,183.5 423.167,183.5 421.5,183.5C 420.827,175.453 419.827,167.453 418.5,159.5C 421.059,159.802 423.393,159.468 425.5,158.5 Z"/></g>
<g><path style="opacity:1" fill="#fffafa" d="M 301.5,189.5 C 303.5,189.5 305.5,189.5 307.5,189.5C 308.164,194.473 308.497,199.473 308.5,204.5C 303.773,204.779 299.107,205.446 294.5,206.5C 293.965,202.489 293.298,198.489 292.5,194.5C 292.833,193.5 293.167,192.5 293.5,191.5C 296.311,190.92 298.977,190.254 301.5,189.5 Z"/></g>
<g><path style="opacity:1" fill="#fff9f9" d="M 430.5,213.5 C 429.167,213.5 427.833,213.5 426.5,213.5C 425.752,208.515 425.085,203.515 424.5,198.5C 426.806,198.007 429.139,197.674 431.5,197.5C 434.167,197.167 436.833,196.833 439.5,196.5C 439.908,201.537 440.574,206.537 441.5,211.5C 437.575,211.43 433.909,212.097 430.5,213.5 Z"/></g>
<g><path style="opacity:1" fill="#f15757" d="M 177.5,265.5 C 190.833,265.5 204.167,265.5 217.5,265.5C 217.5,268.167 217.5,270.833 217.5,273.5C 222.833,273.5 228.167,273.5 233.5,273.5C 233.5,270.833 233.5,268.167 233.5,265.5C 238.167,265.5 242.833,265.5 247.5,265.5C 247.5,268.167 247.5,270.833 247.5,273.5C 252.833,273.5 258.167,273.5 263.5,273.5C 263.5,270.833 263.5,268.167 263.5,265.5C 268.167,265.5 272.833,265.5 277.5,265.5C 277.5,268.167 277.5,270.833 277.5,273.5C 282.833,273.5 288.167,273.5 293.5,273.5C 293.5,270.833 293.5,268.167 293.5,265.5C 306.833,265.5 320.167,265.5 333.5,265.5C 335.254,273.03 336.254,280.697 336.5,288.5C 302.5,288.5 268.5,288.5 234.5,288.5C 234.5,290.833 234.5,293.167 234.5,295.5C 229.5,295.5 224.5,295.5 219.5,295.5C 219.5,293.167 219.5,290.833 219.5,288.5C 204.5,288.5 189.5,288.5 174.5,288.5C 174.664,280.685 175.664,273.019 177.5,265.5 Z"/></g>
<g><path style="opacity:1" fill="#fcb4b4" d="M 232.5,258.5 C 233.468,260.607 233.802,262.941 233.5,265.5C 233.5,268.167 233.5,270.833 233.5,273.5C 228.167,273.5 222.833,273.5 217.5,273.5C 217.5,270.833 217.5,268.167 217.5,265.5C 217.5,262.833 217.5,260.167 217.5,257.5C 222.695,257.179 227.695,257.513 232.5,258.5 Z"/></g>
<g><path style="opacity:1" fill="#fefffe" d="M 232.5,258.5 C 232.5,263.167 232.5,267.833 232.5,272.5C 227.833,272.5 223.167,272.5 218.5,272.5C 218.5,267.833 218.5,263.167 218.5,258.5C 223.167,258.5 227.833,258.5 232.5,258.5 Z"/></g>
<g><path style="opacity:1" fill="#fcb4b4" d="M 262.5,258.5 C 263.468,260.607 263.802,262.941 263.5,265.5C 263.5,268.167 263.5,270.833 263.5,273.5C 258.167,273.5 252.833,273.5 247.5,273.5C 247.5,270.833 247.5,268.167 247.5,265.5C 247.5,262.833 247.5,260.167 247.5,257.5C 252.695,257.179 257.695,257.513 262.5,258.5 Z"/></g>
<g><path style="opacity:1" fill="#fefffe" d="M 262.5,258.5 C 262.5,263.167 262.5,267.833 262.5,272.5C 257.833,272.5 253.167,272.5 248.5,272.5C 248.5,267.833 248.5,263.167 248.5,258.5C 253.167,258.5 257.833,258.5 262.5,258.5 Z"/></g>
<g><path style="opacity:1" fill="#fcb4b4" d="M 293.5,265.5 C 293.5,268.167 293.5,270.833 293.5,273.5C 288.167,273.5 282.833,273.5 277.5,273.5C 277.5,270.833 277.5,268.167 277.5,265.5C 277.5,262.833 277.5,260.167 277.5,257.5C 282.833,257.5 288.167,257.5 293.5,257.5C 293.5,260.167 293.5,262.833 293.5,265.5 Z"/></g>
<g><path style="opacity:1" fill="#fefffe" d="M 278.5,258.5 C 283.167,258.5 287.833,258.5 292.5,258.5C 292.5,263.167 292.5,267.833 292.5,272.5C 287.833,272.5 283.167,272.5 278.5,272.5C 278.5,267.833 278.5,263.167 278.5,258.5 Z"/></g>
<g><path style="opacity:1" fill="#8e3333" d="M 44.5,284.5 C 44.5,285.5 44.5,286.5 44.5,287.5C 59.1667,287.5 73.8333,287.5 88.5,287.5C 73.676,288.496 58.676,288.829 43.5,288.5C 43.2322,286.901 43.5655,285.568 44.5,284.5 Z"/></g>
<g><path style="opacity:1" fill="#8f3333" d="M 104.5,285.5 C 122.136,287.487 140.136,288.153 158.5,287.5C 140.341,288.497 122.008,288.83 103.5,288.5C 103.263,287.209 103.596,286.209 104.5,285.5 Z"/></g>
<g><path style="opacity:1" fill="#8e3333" d="M 406.5,285.5 C 407.404,286.209 407.737,287.209 407.5,288.5C 388.992,288.83 370.659,288.497 352.5,287.5C 370.864,288.153 388.864,287.487 406.5,285.5 Z"/></g>
<g><path style="opacity:1" fill="#8d3333" d="M 466.5,284.5 C 467.434,285.568 467.768,286.901 467.5,288.5C 452.324,288.829 437.324,288.496 422.5,287.5C 437.167,287.5 451.833,287.5 466.5,287.5C 466.5,286.5 466.5,285.5 466.5,284.5 Z"/></g>
<g><path style="opacity:1" fill="#cfe5ee" d="M 219.5,295.5 C 224.5,295.5 229.5,295.5 234.5,295.5C 234.5,298.167 234.5,300.833 234.5,303.5C 320.501,303.333 406.501,303.5 492.5,304C 498.474,310.157 497.474,314.824 489.5,318C 332.833,318.667 176.167,318.667 19.5,318C 13.3362,313.7 13.0028,309.033 18.5,304C 19.448,303.517 20.448,303.351 21.5,303.5C 87.5,303.5 153.5,303.5 219.5,303.5C 219.5,300.833 219.5,298.167 219.5,295.5 Z"/></g>
<g><path style="opacity:1" fill="#4e575a" d="M 219.5,295.5 C 219.5,298.167 219.5,300.833 219.5,303.5C 153.5,303.5 87.5,303.5 21.5,303.5C 86.9979,302.501 152.665,302.168 218.5,302.5C 218.198,299.941 218.532,297.607 219.5,295.5 Z"/></g>
<g><path style="opacity:1" fill="#addae9" d="M 457.5,356.5 C 370.335,355.501 283.002,355.167 195.5,355.5C 195.5,353.167 195.5,350.833 195.5,348.5C 175.5,348.5 155.5,348.5 135.5,348.5C 135.5,350.833 135.5,353.167 135.5,355.5C 130.5,355.5 125.5,355.5 120.5,355.5C 120.5,353.167 120.5,350.833 120.5,348.5C 115.5,348.5 110.5,348.5 105.5,348.5C 105.5,350.833 105.5,353.167 105.5,355.5C 87.8333,355.5 70.1667,355.5 52.5,355.5C 47.5672,349.053 44.5672,341.72 43.5,333.5C 184.833,333.5 326.167,333.5 467.5,333.5C 466.475,342.263 463.142,349.93 457.5,356.5 Z"/></g>
<g><path style="opacity:1" fill="#fdfefe" d="M 120.5,355.5 C 120.5,358.167 120.5,360.833 120.5,363.5C 115.5,363.5 110.5,363.5 105.5,363.5C 105.5,360.833 105.5,358.167 105.5,355.5C 105.5,353.167 105.5,350.833 105.5,348.5C 110.5,348.5 115.5,348.5 120.5,348.5C 120.5,350.833 120.5,353.167 120.5,355.5 Z"/></g>
<g><path style="opacity:1" fill="#fefefe" d="M 195.5,355.5 C 195.5,358.167 195.5,360.833 195.5,363.5C 175.5,363.5 155.5,363.5 135.5,363.5C 135.5,360.833 135.5,358.167 135.5,355.5C 135.5,353.167 135.5,350.833 135.5,348.5C 155.5,348.5 175.5,348.5 195.5,348.5C 195.5,350.833 195.5,353.167 195.5,355.5 Z"/></g>
<g><path style="opacity:0.999" fill="#d1e8f1" d="M 52.5,355.5 C 70.1667,355.5 87.8333,355.5 105.5,355.5C 105.5,358.167 105.5,360.833 105.5,363.5C 110.5,363.5 115.5,363.5 120.5,363.5C 120.5,360.833 120.5,358.167 120.5,355.5C 125.5,355.5 130.5,355.5 135.5,355.5C 135.5,358.167 135.5,360.833 135.5,363.5C 155.5,363.5 175.5,363.5 195.5,363.5C 195.5,360.833 195.5,358.167 195.5,355.5C 283.002,355.167 370.335,355.501 457.5,356.5C 448.113,369.867 435.113,377.034 418.5,378C 325.501,378.5 232.501,378.667 139.5,378.5C 139.5,381.167 139.5,383.833 139.5,386.5C 134.5,386.5 129.5,386.5 124.5,386.5C 124.5,383.833 124.5,381.167 124.5,378.5C 112.495,378.667 100.495,378.5 88.5,378C 73.2338,375.538 61.2338,368.038 52.5,355.5 Z"/></g>
<g><path style="opacity:1" fill="#a3cddb" d="M 272.5,456.5 C 272.5,442.833 272.5,429.167 272.5,415.5C 261.167,415.5 249.833,415.5 238.5,415.5C 238.5,429.167 238.5,442.833 238.5,456.5C 237.503,435.673 237.169,414.673 237.5,393.5C 249.5,393.5 261.5,393.5 273.5,393.5C 273.831,414.673 273.497,435.673 272.5,456.5 Z"/></g>
<g><path style="opacity:1" fill="#d3eaf3" d="M 272.5,456.5 C 261.167,456.5 249.833,456.5 238.5,456.5C 238.5,442.833 238.5,429.167 238.5,415.5C 249.833,415.5 261.167,415.5 272.5,415.5C 272.5,429.167 272.5,442.833 272.5,456.5 Z"/></g>
<g><path style="opacity:1" fill="#d2e9f2" d="M 198.5,471.5 C 236.501,471.333 274.501,471.5 312.5,472C 325.062,475.561 333.395,483.561 337.5,496C 282.83,496.833 228.164,496.667 173.5,495.5C 177.984,483.346 186.318,475.346 198.5,471.5 Z"/></g>
</svg>
