<?xml version="1.0" encoding="UTF-8"?>
<!DOCTYPE svg PUBLIC "-//W3C//DTD SVG 1.1//EN" "http://www.w3.org/Graphics/SVG/1.1/DTD/svg11.dtd">
<svg xmlns="http://www.w3.org/2000/svg" version="1.1" width="512px" height="512px" style="shape-rendering:geometricPrecision; text-rendering:geometricPrecision; image-rendering:optimizeQuality; fill-rule:evenodd; clip-rule:evenodd" xmlns:xlink="http://www.w3.org/1999/xlink">
<g><path style="opacity:0.983" fill="#010101" d="M 142.5,-0.5 C 162.833,-0.5 183.167,-0.5 203.5,-0.5C 207.232,1.40474 209.732,4.40474 211,8.5C 211.667,33.1667 211.667,57.8333 211,82.5C 210.163,84.8442 208.829,86.8442 207,88.5C 206.333,99.5 206.333,110.5 207,121.5C 208.371,124.88 210.538,127.713 213.5,130C 225.167,138.333 236.833,146.667 248.5,155C 253.341,159.513 256.508,165.013 258,171.5C 258.667,180.167 258.667,188.833 258,197.5C 257.106,200.392 255.44,202.726 253,204.5C 252.333,291.5 252.333,378.5 253,465.5C 257.901,470.836 259.734,477.169 258.5,484.5C 259.971,497.234 254.971,506.234 243.5,511.5C 196.833,511.5 150.167,511.5 103.5,511.5C 91.1415,506.638 85.8082,497.471 87.5,484C 86.4076,477.254 88.0742,471.421 92.5,466.5C 93.6667,379.169 93.8333,291.835 93,204.5C 90.3195,202.473 88.6528,199.807 88,196.5C 87.3333,188.5 87.3333,180.5 88,172.5C 88.91,167.349 90.91,162.682 94,158.5C 108.025,147.641 122.192,136.974 136.5,126.5C 137.806,125.088 138.64,123.421 139,121.5C 139.667,110.5 139.667,99.5 139,88.5C 137.667,86.5 136.333,84.5 135,82.5C 134.333,57.8333 134.333,33.1667 135,8.5C 136.642,4.69966 139.142,1.69966 142.5,-0.5 Z"/></g>
<g><path style="opacity:1" fill="#494155" d="M 149.5,14.5 C 165.167,14.5 180.833,14.5 196.5,14.5C 196.5,18.8333 196.5,23.1667 196.5,27.5C 180.833,27.5 165.167,27.5 149.5,27.5C 149.5,23.1667 149.5,18.8333 149.5,14.5 Z"/></g>
<g><path style="opacity:1" fill="#484053" d="M 149.5,42.5 C 165.167,42.5 180.833,42.5 196.5,42.5C 196.5,53.8333 196.5,65.1667 196.5,76.5C 180.833,76.5 165.167,76.5 149.5,76.5C 149.5,65.1667 149.5,53.8333 149.5,42.5 Z"/></g>
<g><path style="opacity:1" fill="#98a5a3" d="M 154.5,90.5 C 166.833,90.5 179.167,90.5 191.5,90.5C 191.5,97.5 191.5,104.5 191.5,111.5C 179.167,111.5 166.833,111.5 154.5,111.5C 154.5,104.5 154.5,97.5 154.5,90.5 Z"/></g>
<g><path style="opacity:1" fill="#e4f9f5" d="M 155.5,91.5 C 167.167,91.5 178.833,91.5 190.5,91.5C 190.5,97.8333 190.5,104.167 190.5,110.5C 178.833,110.5 167.167,110.5 155.5,110.5C 155.5,104.167 155.5,97.8333 155.5,91.5 Z"/></g>
<g><path style="opacity:1" fill="#bdd6cc" d="M 189.5,200.5 C 189.666,193.159 189.5,185.826 189,178.5C 188.882,173.481 187.549,168.815 185,164.5C 180.833,159 176,154.167 170.5,150C 165.211,146.38 160.211,142.38 155.5,138C 153.783,136.441 151.783,135.608 149.5,135.5C 150.82,132.86 152.153,130.193 153.5,127.5C 166.487,126.334 179.487,126.167 192.5,127C 194.592,133.101 198.259,138.101 203.5,142C 216.266,150.8 228.766,159.967 241,169.5C 241.667,170.833 242.333,172.167 243,173.5C 243.667,180.167 243.667,186.833 243,193.5C 240.597,195.305 238.93,197.638 238,200.5C 237.667,215.833 237.333,231.167 237,246.5C 228.775,223.106 212.942,207.772 189.5,200.5 Z"/></g>
<g><path style="opacity:1" fill="#cbe8de" d="M 149.5,135.5 C 151.783,135.608 153.783,136.441 155.5,138C 160.211,142.38 165.211,146.38 170.5,150C 176,154.167 180.833,159 185,164.5C 187.549,168.815 188.882,173.481 189,178.5C 189.5,185.826 189.666,193.159 189.5,200.5C 177.498,197.726 165.498,197.893 153.5,201C 149.019,203.061 147.352,206.561 148.5,211.5C 146.821,211.892 145.154,212.392 143.5,213C 139.025,215.65 135.025,218.817 131.5,222.5C 128.283,220.158 124.95,219.991 121.5,222C 116.104,228.409 111.937,235.576 109,243.5C 108.667,229.167 108.333,214.833 108,200.5C 107.139,197.632 105.472,195.298 103,193.5C 102.333,186.833 102.333,180.167 103,173.5C 104.377,171.246 105.877,169.08 107.5,167C 121.943,157.053 135.943,146.553 149.5,135.5 Z"/></g>
<g><path style="opacity:1" fill="#fbce2f" d="M 148.5,211.5 C 150.246,213.459 152.413,214.793 155,215.5C 166.69,212.5 178.19,212.833 189.5,216.5C 189.826,224.684 189.492,232.684 188.5,240.5C 164.364,232.984 146.864,240.651 136,263.5C 135.333,280.167 135.333,296.833 136,313.5C 143.308,333.912 157.808,342.746 179.5,340C 182.934,339.442 186.267,338.609 189.5,337.5C 189.5,345.833 189.5,354.167 189.5,362.5C 153.914,370.109 130.748,356.443 120,321.5C 118.362,319.266 116.195,317.933 113.5,317.5C 112.432,316.566 111.099,316.232 109.5,316.5C 108.867,297.931 109.534,279.598 111.5,261.5C 115.136,261.229 117.97,259.563 120,256.5C 122.752,246.997 127.085,238.33 133,230.5C 133.718,227.593 133.218,224.926 131.5,222.5C 135.025,218.817 139.025,215.65 143.5,213C 145.154,212.392 146.821,211.892 148.5,211.5 Z"/></g>
<g><path style="opacity:1" fill="#ecbc24" d="M 189.5,216.5 C 203.223,221.384 213.389,230.384 220,243.5C 221.399,249.043 223.566,254.21 226.5,259C 229.789,261.209 233.456,262.042 237.5,261.5C 237.5,279.833 237.5,298.167 237.5,316.5C 230.489,316.085 225.655,319.085 223,325.5C 218.273,343.725 207.106,356.058 189.5,362.5C 189.5,354.167 189.5,345.833 189.5,337.5C 207.353,326.084 214.02,309.751 209.5,288.5C 213.7,267.387 206.7,251.387 188.5,240.5C 189.492,232.684 189.826,224.684 189.5,216.5 Z"/></g>
<g><path style="opacity:1" fill="#060401" d="M 188.5,240.5 C 206.7,251.387 213.7,267.387 209.5,288.5C 214.02,309.751 207.353,326.084 189.5,337.5C 186.267,338.609 182.934,339.442 179.5,340C 157.808,342.746 143.308,333.912 136,313.5C 135.333,296.833 135.333,280.167 136,263.5C 146.864,240.651 164.364,232.984 188.5,240.5 Z"/></g>
<g><path style="opacity:1" fill="#ececec" d="M 165.5,252.5 C 178.336,250.601 187.836,255.267 194,266.5C 194.667,281.5 194.667,296.5 194,311.5C 188.741,322.715 179.907,327.549 167.5,326C 159.889,324.054 154.389,319.554 151,312.5C 150.333,297.167 150.333,281.833 151,266.5C 154.408,260.257 159.242,255.59 165.5,252.5 Z"/></g>
<g><path style="opacity:1" fill="#d4af28" d="M 111.5,261.5 C 109.534,279.598 108.867,297.931 109.5,316.5C 111.099,316.232 112.432,316.566 113.5,317.5C 111.833,317.5 110.167,317.5 108.5,317.5C 108.5,298.833 108.5,280.167 108.5,261.5C 109.5,261.5 110.5,261.5 111.5,261.5 Z"/></g>
<g><path style="opacity:0.962" fill="#010101" d="M 320.5,274.5 C 346.835,274.333 373.169,274.5 399.5,275C 402.333,276.5 404.5,278.667 406,281.5C 411.646,302.086 416.98,322.753 422,343.5C 426.475,370.754 417.975,392.921 396.5,410C 387.251,416.21 377.751,422.043 368,427.5C 367.167,442.511 367.334,457.511 368.5,472.5C 381.731,477.449 394.731,482.949 407.5,489C 411.764,493.168 412.597,498.002 410,503.5C 409.097,504.701 407.931,505.535 406.5,506C 375.167,506.667 343.833,506.667 312.5,506C 305.909,500.239 305.909,494.572 312.5,489C 325.174,483.078 338.008,477.578 351,472.5C 351.667,457.5 351.667,442.5 351,427.5C 342.251,421.875 333.417,416.375 324.5,411C 298.513,390.587 290.346,364.42 300,332.5C 304.667,315.167 309.333,297.833 314,280.5C 315.494,277.686 317.66,275.686 320.5,274.5 Z"/></g>
<g><path style="opacity:1" fill="#e2f6f3" d="M 327.5,290.5 C 333.206,290.171 338.872,290.505 344.5,291.5C 346.916,299.667 349.249,307.834 351.5,316C 341.172,316.5 330.839,316.666 320.5,316.5C 322.339,307.611 324.672,298.944 327.5,290.5 Z"/></g>
<g><path style="opacity:1" fill="#d0dfdc" d="M 327.5,290.5 C 349.004,289.172 370.67,289.172 392.5,290.5C 394.964,299.494 397.297,308.494 399.5,317.5C 395.154,317.334 390.821,317.501 386.5,318C 384.077,319.571 382.744,321.737 382.5,324.5C 375.833,324.5 369.167,324.5 362.5,324.5C 362.256,321.737 360.923,319.571 358.5,318C 345.66,317.831 332.993,317.331 320.5,316.5C 330.839,316.666 341.172,316.5 351.5,316C 349.249,307.834 346.916,299.667 344.5,291.5C 338.872,290.505 333.206,290.171 327.5,290.5 Z"/></g>
<g><path style="opacity:1" fill="#bcd5cb" d="M 362.5,324.5 C 369.167,324.5 375.833,324.5 382.5,324.5C 382.469,328.597 384.469,331.097 388.5,332C 393.75,332.193 398.917,332.693 404,333.5C 412.594,357.616 407.761,378.449 389.5,396C 380.5,401.667 371.5,407.333 362.5,413C 360.833,413.667 359.167,413.667 357.5,413C 350.601,409.059 343.934,404.892 337.5,400.5C 346.23,395.927 352.396,388.927 356,379.5C 362.013,364.136 361.846,348.802 355.5,333.5C 342.517,332.501 329.517,332.168 316.5,332.5C 330.327,331.669 344.327,331.169 358.5,331C 361.222,329.728 362.556,327.561 362.5,324.5 Z"/></g>
<g><path style="opacity:1" fill="#cce9df" d="M 316.5,332.5 C 329.517,332.168 342.517,332.501 355.5,333.5C 361.846,348.802 362.013,364.136 356,379.5C 352.396,388.927 346.23,395.927 337.5,400.5C 316.289,387.385 308.122,368.385 313,343.5C 313.724,339.573 314.891,335.906 316.5,332.5 Z"/></g>
<g><path style="opacity:1" fill="#bbd3c9" d="M 185.5,496.5 C 189.16,482.78 190.493,468.78 189.5,454.5C 168.66,454.831 147.993,454.497 127.5,453.5C 158.502,453.667 189.502,453.5 220.5,453C 225.833,448.667 225.833,444.333 220.5,440C 189.835,439.5 159.168,439.333 128.5,439.5C 148.66,438.503 168.993,438.17 189.5,438.5C 189.5,435.5 189.5,432.5 189.5,429.5C 199.912,429.926 210.246,429.426 220.5,428C 226.036,423.162 225.703,418.829 219.5,415C 189.168,414.5 158.835,414.333 128.5,414.5C 148.66,413.503 168.993,413.17 189.5,413.5C 190.145,401.452 189.478,389.785 187.5,378.5C 212.509,371.996 229.009,356.329 237,331.5C 237.333,377.833 237.667,424.167 238,470.5C 238.93,473.362 240.597,475.695 243,477.5C 243.667,482.167 243.667,486.833 243,491.5C 242.215,493.286 241.049,494.786 239.5,496C 221.503,496.5 203.503,496.667 185.5,496.5 Z"/></g>
<g><path style="opacity:1" fill="#b2ccc3" d="M 110.5,338.5 C 109.833,381.167 109.167,423.833 108.5,466.5C 108.333,422.499 108.5,378.499 109,334.5C 109.791,335.745 110.291,337.078 110.5,338.5 Z"/></g>
<g><path style="opacity:1" fill="#cce9df" d="M 110.5,338.5 C 126.235,370.537 151.901,383.87 187.5,378.5C 189.478,389.785 190.145,401.452 189.5,413.5C 168.993,413.17 148.66,413.503 128.5,414.5C 123.013,416.138 121.18,419.805 123,425.5C 124.214,427.049 125.714,428.215 127.5,429C 148.164,429.5 168.831,429.667 189.5,429.5C 189.5,432.5 189.5,435.5 189.5,438.5C 168.993,438.17 148.66,438.503 128.5,439.5C 124.371,439.965 122.371,442.299 122.5,446.5C 122.25,450.244 123.917,452.578 127.5,453.5C 147.993,454.497 168.66,454.831 189.5,454.5C 190.493,468.78 189.16,482.78 185.5,496.5C 159.165,496.667 132.831,496.5 106.5,496C 103.09,492.954 101.756,489.121 102.5,484.5C 101.84,480.425 103.007,477.091 106,474.5C 107.341,471.978 108.174,469.311 108.5,466.5C 109.167,423.833 109.833,381.167 110.5,338.5 Z"/></g>
<g><path style="opacity:1" fill="#070808" d="M 128.5,414.5 C 158.835,414.333 189.168,414.5 219.5,415C 225.703,418.829 226.036,423.162 220.5,428C 210.246,429.426 199.912,429.926 189.5,429.5C 168.831,429.667 148.164,429.5 127.5,429C 125.714,428.215 124.214,427.049 123,425.5C 121.18,419.805 123.013,416.138 128.5,414.5 Z"/></g>
<g><path style="opacity:1" fill="#010101" d="M 128.5,439.5 C 159.168,439.333 189.835,439.5 220.5,440C 225.833,444.333 225.833,448.667 220.5,453C 189.502,453.5 158.502,453.667 127.5,453.5C 123.917,452.578 122.25,450.244 122.5,446.5C 122.371,442.299 124.371,439.965 128.5,439.5 Z"/></g>
<g><path style="opacity:1" fill="#ccdad7" d="M 356.5,486.5 C 362.447,486.904 368.113,488.404 373.5,491C 364.167,491.667 354.833,491.667 345.5,491C 349.468,489.962 353.135,488.462 356.5,486.5 Z"/></g>
</svg>
