<?xml version="1.0" encoding="UTF-8"?>
<!DOCTYPE svg PUBLIC "-//W3C//DTD SVG 1.1//EN" "http://www.w3.org/Graphics/SVG/1.1/DTD/svg11.dtd">
<svg xmlns="http://www.w3.org/2000/svg" version="1.1" width="512px" height="512px" style="shape-rendering:geometricPrecision; text-rendering:geometricPrecision; image-rendering:optimizeQuality; fill-rule:evenodd; clip-rule:evenodd" xmlns:xlink="http://www.w3.org/1999/xlink">
<g><path style="opacity:0.982" fill="#040301" d="M 224.5,-0.5 C 232.833,-0.5 241.167,-0.5 249.5,-0.5C 312.021,11.4465 342.521,49.4465 341,113.5C 340.469,117.562 338.636,120.896 335.5,123.5C 337.441,127.264 338.441,131.264 338.5,135.5C 347.937,136.943 356.937,139.776 365.5,144C 367.7,146.234 369.533,148.734 371,151.5C 375.887,150.535 380.721,151.035 385.5,153C 396.982,159.494 407.482,167.327 417,176.5C 420.009,181.029 421.509,186.029 421.5,191.5C 426.901,190.966 431.901,192.133 436.5,195C 444.75,203.246 452.25,212.079 459,221.5C 461.606,227.213 463.106,233.213 463.5,239.5C 471.864,243.031 477.698,249.031 481,257.5C 484,264.167 487,270.833 490,277.5C 490.516,283.218 490.516,288.885 490,294.5C 496.274,298.11 500.274,303.443 502,310.5C 504.64,320.062 506.807,329.728 508.5,339.5C 508.173,345.652 506.173,351.152 502.5,356C 506.882,359.299 509.882,363.466 511.5,368.5C 511.5,378.833 511.5,389.167 511.5,399.5C 511.301,407.744 508.301,414.911 502.5,421C 504.496,425.271 504.996,429.771 504,434.5C 500.4,447.2 494.567,458.7 486.5,469C 483.779,469.602 481.113,469.435 478.5,468.5C 478.315,466.804 477.481,465.471 476,464.5C 475.333,462.5 475.333,460.5 476,458.5C 481.577,449.345 486.077,439.678 489.5,429.5C 488.635,428.417 487.635,428.251 486.5,429C 479.168,432.917 471.668,436.417 464,439.5C 461.413,438.793 459.246,437.459 457.5,435.5C 456.463,433.262 456.297,430.929 457,428.5C 458.73,426.598 460.563,424.931 462.5,423.5C 473.122,419.439 483.288,414.439 493,408.5C 494.916,405.102 495.916,401.435 496,397.5C 496.667,389.167 496.667,380.833 496,372.5C 493.081,366.975 488.581,365.142 482.5,367C 473.473,371.513 464.473,376.013 455.5,380.5C 411.013,402.576 366.347,424.409 321.5,446C 316.167,451.667 316.167,457.333 321.5,463C 328.559,468.391 335.893,473.391 343.5,478C 346.5,478.667 349.5,478.667 352.5,478C 377.654,465.923 402.654,453.589 427.5,441C 433.397,439.609 437.064,441.776 438.5,447.5C 438.444,450.111 437.444,452.278 435.5,454C 412.363,464.735 389.696,476.235 367.5,488.5C 379.333,494.034 391.833,496.701 405,496.5C 416.251,496.487 427.084,494.487 437.5,490.5C 442.752,488.541 447.752,486.041 452.5,483C 455.993,482.131 458.993,482.964 461.5,485.5C 464.134,489.801 463.468,493.634 459.5,497C 446.969,504.341 433.636,509.174 419.5,511.5C 410.167,511.5 400.833,511.5 391.5,511.5C 381.762,509.814 372.095,507.314 362.5,504C 357.911,502.376 354.577,499.376 352.5,495C 344.864,495.233 337.864,493.233 331.5,489C 322.431,483.267 313.931,476.767 306,469.5C 302.979,464.938 301.479,459.938 301.5,454.5C 291.72,454.36 283.886,450.36 278,442.5C 272.615,436.116 267.615,429.45 263,422.5C 260.881,417.035 260.048,411.369 260.5,405.5C 255.542,404.604 251.376,402.271 248,398.5C 240.71,386.756 235.21,374.256 231.5,361C 232.039,357.969 232.706,354.969 233.5,352C 228.25,348.747 224.417,344.247 222,338.5C 218.95,328.245 216.283,317.911 214,307.5C 205.798,315.066 196.298,317.4 185.5,314.5C 183.115,318.747 180.115,322.581 176.5,326C 163.427,332.562 149.593,336.728 135,338.5C 130.728,338.519 126.728,337.519 123,335.5C 120.328,338.84 116.828,340.674 112.5,341C 75.7978,343.112 45.2978,330.612 21,303.5C 18.697,299.332 19.197,295.665 22.5,292.5C 24.9262,290.782 27.5929,290.282 30.5,291C 34.2026,294.367 37.536,298.034 40.5,302C 43.3785,304.385 46.3785,306.552 49.5,308.5C 67.9604,321.949 88.6271,327.283 111.5,324.5C 106.48,319.812 101.48,315.145 96.5,310.5C 91.3802,305.578 91.3802,300.745 96.5,296C 100.207,295.004 103.541,295.67 106.5,298C 110.369,302.037 114.369,305.87 118.5,309.5C 122.296,313.798 126.296,317.964 130.5,322C 143.101,322.184 155.101,319.517 166.5,314C 169.36,310.319 170.193,306.152 169,301.5C 164.964,297.296 160.798,293.296 156.5,289.5C 117.701,250.201 78.7014,211.035 39.5,172C 33.2258,169.033 28.3924,170.533 25,176.5C 20.7542,186.809 18.4209,197.476 18,208.5C 37.9714,229.472 58.3047,250.138 79,270.5C 83.4106,277.41 81.7439,282.077 74,284.5C 71.6196,283.799 69.4529,282.633 67.5,281C 50.3195,263.653 32.9861,246.486 15.5,229.5C 14.3368,235.137 14.1701,240.804 15,246.5C 16.8804,253.465 17.3804,260.465 16.5,267.5C 15.0986,268.521 13.7653,269.521 12.5,270.5C 9.39787,270.846 6.56453,270.179 4,268.5C 2.15331,262.447 0.653314,256.447 -0.5,250.5C -0.5,241.5 -0.5,232.5 -0.5,223.5C 1.39022,221.41 3.05689,219.077 4.5,216.5C 3.1216,212.944 2.1216,209.277 1.5,205.5C 3.76936,191.196 7.93603,177.53 14,164.5C 17.4472,160.556 21.2805,157.223 25.5,154.5C 23.924,148.003 24.424,141.67 27,135.5C 31.6042,127.234 36.6042,119.234 42,111.5C 46.22,106.105 51.72,103.105 58.5,102.5C 58.2804,96.3783 59.7804,90.7116 63,85.5C 70.1667,78.3333 77.3333,71.1667 84.5,64C 89.8346,60.0967 95.8346,58.2634 102.5,58.5C 103.105,51.72 106.105,46.22 111.5,42C 120.915,35.2928 130.915,29.6262 141.5,25C 146.572,24.8501 151.572,24.6835 156.5,24.5C 158.208,20.2895 160.874,16.7895 164.5,14C 177.321,7.7256 190.821,3.89227 205,2.5C 208.995,2.35317 212.828,3.01983 216.5,4.5C 219.227,2.7411 221.894,1.07443 224.5,-0.5 Z"/></g>
<g><path style="opacity:1" fill="#fbd101" d="M 304.5,44.5 C 310.461,60.2711 312.961,76.6045 312,93.5C 311.623,94.9423 310.79,95.9423 309.5,96.5C 305.077,91.2086 300.577,91.2086 296,96.5C 295.333,98.8333 295.333,101.167 296,103.5C 304.303,112.804 312.969,121.804 322,130.5C 322.483,131.448 322.649,132.448 322.5,133.5C 316.824,133.334 311.157,133.501 305.5,134C 294.521,135.891 283.855,138.558 273.5,142C 257.167,125.667 240.833,109.333 224.5,93C 215.434,92.0606 212.268,95.8939 215,104.5C 230.347,119.681 245.514,135.014 260.5,150.5C 249.801,159.535 240.468,169.869 232.5,181.5C 193.819,143.653 155.653,105.319 118,66.5C 116.631,61.5626 117.797,57.396 121.5,54C 128.332,49.4161 135.332,45.0827 142.5,41C 145.5,40.3333 148.5,40.3333 151.5,41C 164.167,53.6667 176.833,66.3333 189.5,79C 198.105,81.7337 201.938,78.5671 201,69.5C 191.333,59.8333 181.667,50.1667 172,40.5C 168.834,33.8222 170.334,28.6556 176.5,25C 185.65,21.783 194.983,19.283 204.5,17.5C 206.634,17.5153 208.634,18.0153 210.5,19C 231.195,40.0286 252.195,60.6953 273.5,81C 281.788,82.2913 284.955,78.7913 283,70.5C 264.653,52.3195 246.486,33.9862 228.5,15.5C 251.075,13.1436 271.741,18.3103 290.5,31C 295.669,35.0032 300.336,39.5032 304.5,44.5 Z"/></g>
<g><path style="opacity:1" fill="#f2bf00" d="M 304.5,44.5 C 320.826,63.8231 327.493,86.1564 324.5,111.5C 319.146,106.812 314.146,101.812 309.5,96.5C 310.79,95.9423 311.623,94.9423 312,93.5C 312.961,76.6045 310.461,60.2711 304.5,44.5 Z"/></g>
<g><path style="opacity:1" fill="#fcd201" d="M 209.5,261.5 C 208.279,266.24 205.612,270.073 201.5,273C 193.57,278.124 185.57,282.957 177.5,287.5C 131.174,242.007 85.3404,196.007 40,149.5C 39.3333,147.833 39.3333,146.167 40,144.5C 44.6742,134.514 50.8408,125.681 58.5,118C 61.634,117.21 64.634,117.543 67.5,119C 80.8333,132.333 94.1667,145.667 107.5,159C 116.382,163.252 120.549,160.418 120,150.5C 104.638,135.471 89.6375,120.138 75,104.5C 74.1834,101.036 74.5167,97.7024 76,94.5C 82.1667,88.3333 88.3333,82.1667 94.5,76C 98.1667,74 101.833,74 105.5,76C 145,115.5 184.5,155 224,194.5C 224.667,195.833 224.667,197.167 224,198.5C 221.262,203.881 219.428,209.548 218.5,215.5C 218.651,218.453 219.317,221.286 220.5,224C 216.85,229.466 213.85,235.3 211.5,241.5C 188.68,219.181 166.014,196.681 143.5,174C 133.437,173.384 130.603,177.551 135,186.5C 160.035,211.368 184.868,236.368 209.5,261.5 Z"/></g>
<g><path style="opacity:1" fill="#f9df58" d="M 331.5,178.5 C 328.347,179.995 325.181,181.662 322,183.5C 324.582,178.503 323.749,174.003 319.5,170C 304.818,164.588 289.818,161.421 274.5,160.5C 295.795,147.925 318.461,145.091 342.5,152C 347.225,153.177 351.559,155.011 355.5,157.5C 348.779,161.527 341.779,165.027 334.5,168C 330.536,170.651 329.536,174.151 331.5,178.5 Z"/></g>
<g><path style="opacity:1" fill="#fce77c" d="M 274.5,160.5 C 289.818,161.421 304.818,164.588 319.5,170C 323.749,174.003 324.582,178.503 322,183.5C 325.181,181.662 328.347,179.995 331.5,178.5C 334.864,182.906 338.864,183.572 343.5,180.5C 352.433,186.919 361.266,193.586 370,200.5C 372.631,204.089 373.797,208.089 373.5,212.5C 351.715,223.559 329.715,234.392 307.5,245C 302.146,249.944 302.479,254.611 308.5,259C 310.167,259.667 311.833,259.667 313.5,259C 339.403,245.881 365.403,233.048 391.5,220.5C 397.446,227.291 403.279,234.291 409,241.5C 412.033,245.892 414.2,250.559 415.5,255.5C 359.925,282.954 304.258,310.454 248.5,338C 243.655,339.163 239.821,337.663 237,333.5C 233.057,323.174 231.057,312.507 231,301.5C 232.167,299.667 233.667,298.167 235.5,297C 251.289,289.605 266.956,281.939 282.5,274C 285.345,269.736 285.012,265.736 281.5,262C 279.305,260.627 276.971,260.294 274.5,261C 262.531,266.984 250.531,272.984 238.5,279C 233.186,280.26 229.353,278.426 227,273.5C 226.15,262.456 226.483,251.456 228,240.5C 228.707,238.919 229.54,237.419 230.5,236C 256.71,222.728 283.043,209.728 309.5,197C 313.5,193 313.5,189 309.5,185C 307.305,183.627 304.971,183.294 302.5,184C 281.408,194.046 260.408,204.379 239.5,215C 237.564,215.813 235.564,216.313 233.5,216.5C 239.231,196.538 249.897,179.705 265.5,166C 268.556,164.144 271.556,162.311 274.5,160.5 Z"/></g>
<g><path style="opacity:1" fill="#fbe159" d="M 373.5,212.5 C 373.797,208.089 372.631,204.089 370,200.5C 361.266,193.586 352.433,186.919 343.5,180.5C 353.372,175.147 363.538,170.48 374,166.5C 376.253,166.631 378.419,167.131 380.5,168C 389.234,173.398 397.4,179.565 405,186.5C 406.369,191.437 405.203,195.604 401.5,199C 392.267,203.784 382.933,208.284 373.5,212.5 Z"/></g>
<g><path style="opacity:0.999" fill="#fdd301" d="M 156.5,289.5 C 155.253,294.259 152.587,298.092 148.5,301C 138.738,304.755 128.738,307.589 118.5,309.5C 114.369,305.87 110.369,302.037 106.5,298C 103.541,295.67 100.207,295.004 96.5,296C 91.3802,300.745 91.3802,305.578 96.5,310.5C 92.9376,312.911 88.9376,313.911 84.5,313.5C 72.6465,313.024 60.9798,311.357 49.5,308.5C 46.3785,306.552 43.3785,304.385 40.5,302C 37.536,298.034 34.2026,294.367 30.5,291C 27.5929,290.282 24.9262,290.782 22.5,292.5C 18.0838,285.667 14.7504,278.334 12.5,270.5C 13.7653,269.521 15.0986,268.521 16.5,267.5C 17.3804,260.465 16.8804,253.465 15,246.5C 14.1701,240.804 14.3368,235.137 15.5,229.5C 32.9861,246.486 50.3195,263.653 67.5,281C 69.4529,282.633 71.6196,283.799 74,284.5C 81.7439,282.077 83.4106,277.41 79,270.5C 58.3047,250.138 37.9714,229.472 18,208.5C 18.4209,197.476 20.7542,186.809 25,176.5C 28.3924,170.533 33.2258,169.033 39.5,172C 78.7014,211.035 117.701,250.201 156.5,289.5 Z"/></g>
<g><path style="opacity:1" fill="#fbe159" d="M 415.5,255.5 C 414.2,250.559 412.033,245.892 409,241.5C 403.279,234.291 397.446,227.291 391.5,220.5C 401.472,215.014 411.805,210.347 422.5,206.5C 424.299,206.577 425.966,207.077 427.5,208C 433.708,214.539 439.541,221.373 445,228.5C 447.329,233.363 446.829,237.863 443.5,242C 434.267,246.784 424.933,251.284 415.5,255.5 Z"/></g>
<g><path style="opacity:1" fill="#fbe159" d="M 443.5,305.5 C 440.185,294.849 435.685,284.515 430,274.5C 427.96,272.63 426.127,270.63 424.5,268.5C 433.265,263.732 442.265,259.232 451.5,255C 456.437,253.631 460.604,254.797 464,258.5C 467.939,266.045 471.606,273.712 475,281.5C 475.912,286.603 474.079,290.436 469.5,293C 460.933,297.451 452.267,301.617 443.5,305.5 Z"/></g>
<g><path style="opacity:1" fill="#f6c300" d="M 209.5,261.5 C 210.117,261.611 210.617,261.944 211,262.5C 210.123,271.371 212.29,279.371 217.5,286.5C 210.187,292.644 202.02,297.31 193,300.5C 186.845,297.526 181.678,293.192 177.5,287.5C 185.57,282.957 193.57,278.124 201.5,273C 205.612,270.073 208.279,266.24 209.5,261.5 Z"/></g>
<g><path style="opacity:1" fill="#fce77c" d="M 424.5,268.5 C 426.127,270.63 427.96,272.63 430,274.5C 435.685,284.515 440.185,294.849 443.5,305.5C 415.048,319.892 386.382,334.059 357.5,348C 352.167,352.333 352.167,356.667 357.5,361C 360.167,361.667 362.833,361.667 365.5,361C 392.277,347.278 419.277,334.111 446.5,321.5C 449.553,324.39 452.053,327.724 454,331.5C 456.06,341.412 458.56,351.079 461.5,360.5C 409.258,386.287 356.925,412.12 304.5,438C 301.036,438.817 297.702,438.483 294.5,437C 288.308,430.109 282.474,422.942 277,415.5C 274.745,410.774 275.578,406.607 279.5,403C 297.219,394.532 314.885,385.866 332.5,377C 336.879,368.071 334.212,363.737 324.5,364C 307.896,372.302 291.229,380.636 274.5,389C 269.53,391.152 264.696,390.986 260,388.5C 255.473,380.779 251.473,372.779 248,364.5C 247.333,362.167 247.333,359.833 248,357.5C 249.833,355.667 251.667,353.833 253.5,352C 310.522,324.155 367.522,296.322 424.5,268.5 Z"/></g>
<g><path style="opacity:1" fill="#f7c400" d="M 156.5,289.5 C 160.798,293.296 164.964,297.296 169,301.5C 170.193,306.152 169.36,310.319 166.5,314C 155.101,319.517 143.101,322.184 130.5,322C 126.296,317.964 122.296,313.798 118.5,309.5C 128.738,307.589 138.738,304.755 148.5,301C 152.587,298.092 155.253,294.259 156.5,289.5 Z"/></g>
<g><path style="opacity:1" fill="#fbe159" d="M 461.5,360.5 C 458.56,351.079 456.06,341.412 454,331.5C 452.053,327.724 449.553,324.39 446.5,321.5C 455.16,316.503 464.16,312.003 473.5,308C 478.437,306.631 482.604,307.797 486,311.5C 489.924,321.853 491.924,332.519 492,343.5C 491.535,344.931 490.701,346.097 489.5,347C 480.267,351.784 470.933,356.284 461.5,360.5 Z"/></g>
<g><path style="opacity:1" fill="#f3c100" d="M 49.5,308.5 C 60.9798,311.357 72.6465,313.024 84.5,313.5C 88.9376,313.911 92.9376,312.911 96.5,310.5C 101.48,315.145 106.48,319.812 111.5,324.5C 88.6271,327.283 67.9604,321.949 49.5,308.5 Z"/></g>
<g><path style="opacity:1" fill="#fae159" d="M 462.5,423.5 C 463.577,412.193 463.743,400.86 463,389.5C 461.358,385.7 458.858,382.7 455.5,380.5C 464.473,376.013 473.473,371.513 482.5,367C 488.581,365.142 493.081,366.975 496,372.5C 496.667,380.833 496.667,389.167 496,397.5C 495.916,401.435 494.916,405.102 493,408.5C 483.288,414.439 473.122,419.439 462.5,423.5 Z"/></g>
<g><path style="opacity:1" fill="#fbe77b" d="M 455.5,380.5 C 458.858,382.7 461.358,385.7 463,389.5C 463.743,400.86 463.577,412.193 462.5,423.5C 460.563,424.931 458.73,426.598 457,428.5C 456.297,430.929 456.463,433.262 457.5,435.5C 454.553,436.973 451.553,438.473 448.5,440C 454.851,441.989 457.351,446.156 456,452.5C 451.664,466.17 445.497,478.837 437.5,490.5C 427.084,494.487 416.251,496.487 405,496.5C 391.833,496.701 379.333,494.034 367.5,488.5C 389.696,476.235 412.363,464.735 435.5,454C 437.444,452.278 438.444,450.111 438.5,447.5C 437.064,441.776 433.397,439.609 427.5,441C 402.654,453.589 377.654,465.923 352.5,478C 349.5,478.667 346.5,478.667 343.5,478C 335.893,473.391 328.559,468.391 321.5,463C 316.167,457.333 316.167,451.667 321.5,446C 366.347,424.409 411.013,402.576 455.5,380.5 Z"/></g>
<g><path style="opacity:1" fill="#fbe159" d="M 478.5,468.5 C 473.833,475.167 468.167,480.833 461.5,485.5C 458.993,482.964 455.993,482.131 452.5,483C 447.752,486.041 442.752,488.541 437.5,490.5C 445.497,478.837 451.664,466.17 456,452.5C 457.351,446.156 454.851,441.989 448.5,440C 451.553,438.473 454.553,436.973 457.5,435.5C 459.246,437.459 461.413,438.793 464,439.5C 471.668,436.417 479.168,432.917 486.5,429C 487.635,428.251 488.635,428.417 489.5,429.5C 486.077,439.678 481.577,449.345 476,458.5C 475.333,460.5 475.333,462.5 476,464.5C 477.481,465.471 478.315,466.804 478.5,468.5 Z"/></g>
</svg>
