<?xml version="1.0" encoding="UTF-8"?>
<!DOCTYPE svg PUBLIC "-//W3C//DTD SVG 1.1//EN" "http://www.w3.org/Graphics/SVG/1.1/DTD/svg11.dtd">
<svg xmlns="http://www.w3.org/2000/svg" version="1.1" width="256px" height="256px" style="shape-rendering:geometricPrecision; text-rendering:geometricPrecision; image-rendering:optimizeQuality; fill-rule:evenodd; clip-rule:evenodd" xmlns:xlink="http://www.w3.org/1999/xlink">
<g><path style="opacity:0.983" fill="#030201" d="M 255.5,57.5 C 255.5,117.833 255.5,178.167 255.5,238.5C 252.856,243.966 248.523,247.466 242.5,249C 180.833,249.667 119.167,249.667 57.5,249C 52.0896,247.257 48.2563,243.757 46,238.5C 44.6009,228.232 44.1009,217.898 44.5,207.5C 33.1618,207.667 21.8284,207.5 10.5,207C 5.64549,204.643 1.97883,201.143 -0.5,196.5C -0.5,172.5 -0.5,148.5 -0.5,124.5C 0.819534,123.058 2.4862,122.392 4.5,122.5C 6.09125,123.219 7.59125,124.219 9,125.5C 9.33333,147.833 9.66667,170.167 10,192.5C 10.8333,194.667 12.3333,196.167 14.5,197C 74.5,197.667 134.5,197.667 194.5,197C 196.667,196.167 198.167,194.667 199,192.5C 199.667,134.833 199.667,77.1667 199,19.5C 197.786,17.9512 196.286,16.7845 194.5,16C 134.167,15.3333 73.8333,15.3333 13.5,16C 12.3333,17.1667 11.1667,18.3333 10,19.5C 9.66667,42.5 9.33333,65.5 9,88.5C 7.59125,89.7811 6.09125,90.7811 4.5,91.5C 2.4862,91.6085 0.819534,90.9418 -0.5,89.5C -0.5,65.1667 -0.5,40.8333 -0.5,16.5C 1.64848,11.5204 5.31514,8.02036 10.5,6C 73.1667,5.33333 135.833,5.33333 198.5,6C 204,7.5 207.5,11 209,16.5C 210.395,26.4343 210.895,36.4343 210.5,46.5C 221.172,46.3335 231.839,46.5002 242.5,47C 248.523,48.5335 252.856,52.0335 255.5,57.5 Z"/></g>
<g><path style="opacity:1" fill="#f7bb57" d="M 4.5,122.5 C 4.5,118.833 4.5,115.167 4.5,111.5C 8.82672,110.52 10.3267,107.853 9,103.5C 7.59125,102.219 6.09125,101.219 4.5,100.5C 4.5,97.5 4.5,94.5 4.5,91.5C 6.09125,90.7811 7.59125,89.7811 9,88.5C 9.33333,65.5 9.66667,42.5 10,19.5C 11.1667,18.3333 12.3333,17.1667 13.5,16C 73.8333,15.3333 134.167,15.3333 194.5,16C 196.286,16.7845 197.786,17.9512 199,19.5C 199.667,77.1667 199.667,134.833 199,192.5C 198.167,194.667 196.667,196.167 194.5,197C 134.5,197.667 74.5,197.667 14.5,197C 12.3333,196.167 10.8333,194.667 10,192.5C 9.66667,170.167 9.33333,147.833 9,125.5C 7.59125,124.219 6.09125,123.219 4.5,122.5 Z"/></g>
<g><path style="opacity:1" fill="#090704" d="M 26.5,26.5 C 39.5043,26.3334 52.5043,26.5001 65.5,27C 66.3333,27.8333 67.1667,28.6667 68,29.5C 69.6269,42.0711 69.9602,54.7377 69,67.5C 68.5348,68.9308 67.7014,70.0975 66.5,71C 53.2615,72.629 39.9281,72.9623 26.5,72C 25.6667,71.1667 24.8333,70.3333 24,69.5C 22.372,56.5952 22.0387,43.5952 23,30.5C 24.3756,29.2949 25.5423,27.9616 26.5,26.5 Z"/></g>
<g><path style="opacity:1" fill="#020101" d="M 85.5,26.5 C 98.1711,26.3334 110.838,26.5001 123.5,27C 124.416,27.3742 125.25,27.8742 126,28.5C 127.629,41.7385 127.962,55.0719 127,68.5C 125.833,69.6667 124.667,70.8333 123.5,72C 110.833,72.6667 98.1667,72.6667 85.5,72C 84.3333,70.8333 83.1667,69.6667 82,68.5C 81.3333,55.8333 81.3333,43.1667 82,30.5C 82.6897,28.6498 83.8564,27.3164 85.5,26.5 Z"/></g>
<g><path style="opacity:1" fill="#040302" d="M 143.5,26.5 C 156.504,26.3334 169.504,26.5001 182.5,27C 183.667,28.1667 184.833,29.3333 186,30.5C 186.667,42.8333 186.667,55.1667 186,67.5C 185.535,68.9308 184.701,70.0975 183.5,71C 176.768,72.1304 169.935,72.6304 163,72.5C 156.833,72.3333 150.667,72.1667 144.5,72C 143.584,71.6258 142.75,71.1258 142,70.5C 140.37,56.9278 140.037,43.2611 141,29.5C 142.045,28.6266 142.878,27.6266 143.5,26.5 Z"/></g>
<g><path style="opacity:1" fill="#fcd59c" d="M 32.5,36.5 C 41.1667,36.5 49.8333,36.5 58.5,36.5C 58.5,45.1667 58.5,53.8333 58.5,62.5C 49.8333,62.5 41.1667,62.5 32.5,62.5C 32.5,53.8333 32.5,45.1667 32.5,36.5 Z"/></g>
<g><path style="opacity:1" fill="#fed79d" d="M 91.5,36.5 C 100.167,36.5 108.833,36.5 117.5,36.5C 117.5,45.1667 117.5,53.8333 117.5,62.5C 108.833,62.5 100.167,62.5 91.5,62.5C 91.5,53.8333 91.5,45.1667 91.5,36.5 Z"/></g>
<g><path style="opacity:1" fill="#fcd69c" d="M 150.5,36.5 C 159.167,36.5 167.833,36.5 176.5,36.5C 176.5,45.1667 176.5,53.8333 176.5,62.5C 167.833,62.5 159.167,62.5 150.5,62.5C 150.5,53.8333 150.5,45.1667 150.5,36.5 Z"/></g>
<g><path style="opacity:1" fill="#fbbe58" d="M 209.5,57.5 C 220.172,57.3335 230.839,57.5002 241.5,58C 242.667,59.1667 243.833,60.3333 245,61.5C 245.667,119.167 245.667,176.833 245,234.5C 244.626,235.416 244.126,236.25 243.5,237C 182.249,238.659 120.916,238.992 59.5,238C 57.6667,237.5 56.5,236.333 56,234.5C 55.5002,225.506 55.3336,216.506 55.5,207.5C 59.8333,207.5 64.1667,207.5 68.5,207.5C 64.8543,226.514 72.521,233.514 91.5,228.5C 97.5,228.333 103.5,228.167 109.5,228C 111.492,227.426 112.992,226.259 114,224.5C 114.499,218.843 114.666,213.176 114.5,207.5C 118.833,207.5 123.167,207.5 127.5,207.5C 123.764,226.261 131.264,233.261 150,228.5C 169.173,233.706 177.007,226.706 173.5,207.5C 177.5,207.5 181.5,207.5 185.5,207.5C 185.334,212.511 185.501,217.511 186,222.5C 186.774,224.939 188.274,226.773 190.5,228C 202.833,228.667 215.167,228.667 227.5,228C 228.931,227.535 230.097,226.701 231,225.5C 232.609,212.57 232.942,199.57 232,186.5C 231.07,184.448 229.57,182.948 227.5,182C 221.509,181.501 215.509,181.334 209.5,181.5C 209.5,178.167 209.5,174.833 209.5,171.5C 215.176,171.666 220.843,171.499 226.5,171C 228.329,170.727 229.829,169.893 231,168.5C 232.11,161.576 232.61,154.576 232.5,147.5C 232.629,140.731 232.129,134.064 231,127.5C 229.581,126.54 228.081,125.707 226.5,125C 220.843,124.501 215.176,124.334 209.5,124.5C 209.5,121.167 209.5,117.833 209.5,114.5C 215.509,114.666 221.509,114.499 227.5,114C 228.931,113.535 230.097,112.701 231,111.5C 232.11,104.576 232.61,97.5756 232.5,90.5C 232.629,83.7311 232.129,77.0644 231,70.5C 229.581,69.5399 228.081,68.7065 226.5,68C 220.843,67.5006 215.176,67.3339 209.5,67.5C 209.5,64.1667 209.5,60.8333 209.5,57.5 Z"/></g>
<g><path style="opacity:1" fill="#fdd69c" d="M 209.5,78.5 C 213.5,78.5 217.5,78.5 221.5,78.5C 221.5,86.8333 221.5,95.1667 221.5,103.5C 217.5,103.5 213.5,103.5 209.5,103.5C 209.5,95.1667 209.5,86.8333 209.5,78.5 Z"/></g>
<g><path style="opacity:1" fill="#9e8662" d="M 209.5,78.5 C 213.634,77.5151 217.968,77.1818 222.5,77.5C 222.5,86.5 222.5,95.5 222.5,104.5C 217.968,104.818 213.634,104.485 209.5,103.5C 213.5,103.5 217.5,103.5 221.5,103.5C 221.5,95.1667 221.5,86.8333 221.5,78.5C 217.5,78.5 213.5,78.5 209.5,78.5 Z"/></g>
<g><path style="opacity:1" fill="#090704" d="M 26.5,83.5 C 39.1711,83.3334 51.8377,83.5001 64.5,84C 65.9308,84.4652 67.0975,85.2986 68,86.5C 69.6269,99.0711 69.9602,111.738 69,124.5C 68.5348,125.931 67.7014,127.097 66.5,128C 53.2615,129.629 39.9281,129.962 26.5,129C 25.6667,128.167 24.8333,127.333 24,126.5C 22.372,113.595 22.0387,100.595 23,87.5C 24.3756,86.2949 25.5423,84.9616 26.5,83.5 Z"/></g>
<g><path style="opacity:1" fill="#020101" d="M 85.5,83.5 C 98.1711,83.3334 110.838,83.5001 123.5,84C 124.416,84.3742 125.25,84.8742 126,85.5C 127.131,92.3988 127.631,99.3988 127.5,106.5C 127.333,112.833 127.167,119.167 127,125.5C 126.626,126.416 126.126,127.25 125.5,128C 112.261,129.629 98.9281,129.962 85.5,129C 84.3333,127.833 83.1667,126.667 82,125.5C 81.3333,112.833 81.3333,100.167 82,87.5C 82.6897,85.6498 83.8564,84.3164 85.5,83.5 Z"/></g>
<g><path style="opacity:1" fill="#040302" d="M 144.5,83.5 C 157.171,83.3334 169.838,83.5001 182.5,84C 183.667,85.1667 184.833,86.3333 186,87.5C 186.667,99.8333 186.667,112.167 186,124.5C 185.535,125.931 184.701,127.097 183.5,128C 176.768,129.13 169.935,129.63 163,129.5C 156.833,129.333 150.667,129.167 144.5,129C 143.584,128.626 142.75,128.126 142,127.5C 140.37,113.928 140.037,100.261 141,86.5C 142.145,85.3636 143.312,84.3636 144.5,83.5 Z"/></g>
<g><path style="opacity:1" fill="#fcd59c" d="M 32.5,93.5 C 41.1667,93.5 49.8333,93.5 58.5,93.5C 58.5,102.167 58.5,110.833 58.5,119.5C 49.8333,119.5 41.1667,119.5 32.5,119.5C 32.5,110.833 32.5,102.167 32.5,93.5 Z"/></g>
<g><path style="opacity:1" fill="#fed79d" d="M 91.5,93.5 C 100.167,93.5 108.833,93.5 117.5,93.5C 117.5,102.167 117.5,110.833 117.5,119.5C 108.833,119.5 100.167,119.5 91.5,119.5C 91.5,110.833 91.5,102.167 91.5,93.5 Z"/></g>
<g><path style="opacity:1" fill="#fcd69c" d="M 150.5,93.5 C 159.167,93.5 167.833,93.5 176.5,93.5C 176.5,102.167 176.5,110.833 176.5,119.5C 167.833,119.5 159.167,119.5 150.5,119.5C 150.5,110.833 150.5,102.167 150.5,93.5 Z"/></g>
<g><path style="opacity:0.906" fill="#060401" d="M 4.5,100.5 C 6.09125,101.219 7.59125,102.219 9,103.5C 10.3267,107.853 8.82672,110.52 4.5,111.5C 2.4862,111.608 0.819534,110.942 -0.5,109.5C -0.5,107.167 -0.5,104.833 -0.5,102.5C 1.04953,101.559 2.7162,100.893 4.5,100.5 Z"/></g>
<g><path style="opacity:1" fill="#fdd69c" d="M 209.5,135.5 C 213.5,135.5 217.5,135.5 221.5,135.5C 221.5,143.833 221.5,152.167 221.5,160.5C 217.5,160.5 213.5,160.5 209.5,160.5C 209.5,152.167 209.5,143.833 209.5,135.5 Z"/></g>
<g><path style="opacity:1" fill="#9e8662" d="M 209.5,135.5 C 213.634,134.515 217.968,134.182 222.5,134.5C 222.5,143.5 222.5,152.5 222.5,161.5C 217.968,161.818 213.634,161.485 209.5,160.5C 213.5,160.5 217.5,160.5 221.5,160.5C 221.5,152.167 221.5,143.833 221.5,135.5C 217.5,135.5 213.5,135.5 209.5,135.5 Z"/></g>
<g><path style="opacity:1" fill="#090603" d="M 26.5,140.5 C 39.1711,140.333 51.8377,140.5 64.5,141C 65.9308,141.465 67.0975,142.299 68,143.5C 69.6269,156.071 69.9602,168.738 69,181.5C 68.5348,182.931 67.7014,184.097 66.5,185C 53.2615,186.629 39.9281,186.962 26.5,186C 25.6667,185.167 24.8333,184.333 24,183.5C 22.372,170.595 22.0387,157.595 23,144.5C 24.3756,143.295 25.5423,141.962 26.5,140.5 Z"/></g>
<g><path style="opacity:1" fill="#020100" d="M 85.5,140.5 C 98.1711,140.333 110.838,140.5 123.5,141C 124.416,141.374 125.25,141.874 126,142.5C 127.131,149.399 127.631,156.399 127.5,163.5C 127.333,169.833 127.167,176.167 127,182.5C 126.626,183.416 126.126,184.25 125.5,185C 112.261,186.629 98.9281,186.962 85.5,186C 84.3333,184.833 83.1667,183.667 82,182.5C 81.3333,169.833 81.3333,157.167 82,144.5C 82.6897,142.65 83.8564,141.316 85.5,140.5 Z"/></g>
<g><path style="opacity:1" fill="#030201" d="M 144.5,140.5 C 157.171,140.333 169.838,140.5 182.5,141C 183.667,142.167 184.833,143.333 186,144.5C 186.667,156.833 186.667,169.167 186,181.5C 185.215,183.286 184.049,184.786 182.5,186C 169.833,186.667 157.167,186.667 144.5,186C 143.584,185.626 142.75,185.126 142,184.5C 140.37,170.928 140.037,157.261 141,143.5C 142.145,142.364 143.312,141.364 144.5,140.5 Z"/></g>
<g><path style="opacity:1" fill="#fbd59c" d="M 32.5,150.5 C 41.1667,150.5 49.8333,150.5 58.5,150.5C 58.5,159.167 58.5,167.833 58.5,176.5C 49.8333,176.5 41.1667,176.5 32.5,176.5C 32.5,167.833 32.5,159.167 32.5,150.5 Z"/></g>
<g><path style="opacity:1" fill="#fed79d" d="M 91.5,150.5 C 100.167,150.5 108.833,150.5 117.5,150.5C 117.5,159.167 117.5,167.833 117.5,176.5C 108.833,176.5 100.167,176.5 91.5,176.5C 91.5,167.833 91.5,159.167 91.5,150.5 Z"/></g>
<g><path style="opacity:1" fill="#fcd69c" d="M 150.5,150.5 C 159.167,150.5 167.833,150.5 176.5,150.5C 176.5,159.167 176.5,167.833 176.5,176.5C 167.833,176.5 159.167,176.5 150.5,176.5C 150.5,167.833 150.5,159.167 150.5,150.5 Z"/></g>
<g><path style="opacity:1" fill="#fdd69c" d="M 209.5,192.5 C 213.5,192.5 217.5,192.5 221.5,192.5C 221.5,200.833 221.5,209.167 221.5,217.5C 213.167,217.5 204.833,217.5 196.5,217.5C 196.5,213.833 196.5,210.167 196.5,206.5C 203.577,204.421 207.911,199.755 209.5,192.5 Z"/></g>
<g><path style="opacity:1" fill="#fed89d" d="M 79.5,207.5 C 87.8333,207.5 96.1667,207.5 104.5,207.5C 104.5,210.833 104.5,214.167 104.5,217.5C 96.1667,217.5 87.8333,217.5 79.5,217.5C 79.5,214.167 79.5,210.833 79.5,207.5 Z"/></g>
<g><path style="opacity:1" fill="#f7d199" d="M 137.5,207.5 C 146.167,207.5 154.833,207.5 163.5,207.5C 163.5,211.167 163.5,214.833 163.5,218.5C 154.833,218.5 146.167,218.5 137.5,218.5C 137.5,214.833 137.5,211.167 137.5,207.5 Z"/></g>
<g><path style="opacity:1" fill="#af946c" d="M 79.5,207.5 C 79.5,210.833 79.5,214.167 79.5,217.5C 87.8333,217.5 96.1667,217.5 104.5,217.5C 96.0161,218.493 87.3494,218.826 78.5,218.5C 78.185,214.629 78.5184,210.962 79.5,207.5 Z"/></g>
<g><path style="opacity:1" fill="#98815e" d="M 209.5,192.5 C 213.634,191.515 217.968,191.182 222.5,191.5C 222.5,200.5 222.5,209.5 222.5,218.5C 213.5,218.5 204.5,218.5 195.5,218.5C 195.183,214.298 195.517,210.298 196.5,206.5C 196.5,210.167 196.5,213.833 196.5,217.5C 204.833,217.5 213.167,217.5 221.5,217.5C 221.5,209.167 221.5,200.833 221.5,192.5C 217.5,192.5 213.5,192.5 209.5,192.5 Z"/></g>
</svg>
