<?xml version="1.0" encoding="UTF-8"?>
<!DOCTYPE svg PUBLIC "-//W3C//DTD SVG 1.1//EN" "http://www.w3.org/Graphics/SVG/1.1/DTD/svg11.dtd">
<svg xmlns="http://www.w3.org/2000/svg" version="1.1" width="512px" height="512px" style="shape-rendering:geometricPrecision; text-rendering:geometricPrecision; image-rendering:optimizeQuality; fill-rule:evenodd; clip-rule:evenodd" xmlns:xlink="http://www.w3.org/1999/xlink">
<g><path style="opacity:0.991" fill="#241f20" d="M 511.5,292.5 C 511.5,304.5 511.5,316.5 511.5,328.5C 501.098,390.122 467.765,434.622 411.5,462C 361.909,482.846 311.909,483.846 261.5,465C 246.052,458.447 231.718,450.114 218.5,440C 147.445,452.537 87.278,432.703 38,380.5C 16.9666,355.102 4.13331,326.102 -0.5,293.5C -0.5,281.5 -0.5,269.5 -0.5,257.5C 10.7394,185.863 49.0728,134.363 114.5,103C 129.814,90.8815 133.814,75.7148 126.5,57.5C 127.623,52.7093 130.623,50.0427 135.5,49.5C 140.762,51.5876 145.928,53.9209 151,56.5C 155.114,55.7775 158.447,53.7775 161,50.5C 162.512,43.9663 165.679,38.4663 170.5,34C 176.882,31.598 182.882,32.2647 188.5,36C 191.567,40.855 194.067,46.0216 196,51.5C 198.403,54.2022 201.403,55.8689 205,56.5C 210.246,53.8749 215.579,51.5416 221,49.5C 226.122,49.9556 228.956,52.7889 229.5,58C 222.28,77.1541 226.947,92.4875 243.5,104C 256.489,110.157 268.822,117.324 280.5,125.5C 282.145,123.075 283.311,120.408 284,117.5C 285.065,109.132 284.231,100.965 281.5,93C 282.333,88.1667 285.167,85.3333 290,84.5C 294.724,86.2295 299.224,88.3962 303.5,91C 308.247,91.8617 312.08,90.3617 315,86.5C 316.862,82.5811 318.529,78.5811 320,74.5C 328.037,65.6345 336.37,65.3012 345,73.5C 346.862,77.4189 348.529,81.4189 350,85.5C 352.919,90.21 357.085,92.0434 362.5,91C 366.591,88.2879 370.924,86.1212 375.5,84.5C 380.833,85.1667 383.833,88.1667 384.5,93.5C 377.166,112.998 382.166,128.498 399.5,140C 463.025,171.532 500.358,222.365 511.5,292.5 Z"/></g>
<g><path style="opacity:1" fill="#fc7d8e" d="M 191.5,69.5 C 190.883,71.2292 189.883,72.7292 188.5,74C 183.773,76.5327 178.773,78.1993 173.5,79C 167.333,81.1667 163.167,85.3333 161,91.5C 160.598,104.394 155.765,115.227 146.5,124C 132.169,131.83 118.169,140.163 104.5,149C 47.0045,194.145 23.1712,252.978 33,325.5C 36.2195,338.661 40.7195,351.327 46.5,363.5C 18.9384,327.55 9.77178,287.216 19,242.5C 34.5922,182.91 70.4255,140.41 126.5,115C 140.044,104.077 146.711,89.9108 146.5,72.5C 162.103,73.7098 172.603,67.0432 178,52.5C 180.618,59.7733 185.118,65.4399 191.5,69.5 Z"/></g>
<g><path style="opacity:1" fill="#fe5771" d="M 191.5,69.5 C 197.16,72.1435 203.16,73.1435 209.5,72.5C 210.434,98.3558 223.101,115.689 247.5,124.5C 247.586,125.496 247.252,126.329 246.5,127C 178.361,165.066 138.861,222.899 128,300.5C 124.517,345.91 135.684,387.244 161.5,424.5C 160.311,425.429 158.978,425.762 157.5,425.5C 116.684,420.509 82.1839,403.175 54,373.5C 51.2833,370.29 48.7833,366.956 46.5,363.5C 40.7195,351.327 36.2195,338.661 33,325.5C 23.1712,252.978 47.0045,194.145 104.5,149C 118.169,140.163 132.169,131.83 146.5,124C 155.765,115.227 160.598,104.394 161,91.5C 163.167,85.3333 167.333,81.1667 173.5,79C 178.773,78.1993 183.773,76.5327 188.5,74C 189.883,72.7292 190.883,71.2292 191.5,69.5 Z"/></g>
<g><path style="opacity:1" fill="#fd7e8f" d="M 483.5,251.5 C 496.635,316.261 478.302,370.428 428.5,414C 373.098,454.68 313.098,463.18 248.5,439.5C 193.038,406.925 167.205,358.258 171,293.5C 173.585,273.413 179.585,254.413 189,236.5C 190.338,231.96 189.171,228.293 185.5,225.5C 188.253,220.992 191.253,216.659 194.5,212.5C 205.377,213.957 208.71,209.624 204.5,199.5C 206.087,196.732 207.92,194.065 210,191.5C 211.129,189.859 212.629,188.859 214.5,188.5C 217.384,190.805 220.384,190.971 223.5,189C 239.324,173.862 257.324,161.862 277.5,153C 293.489,142.194 301.489,127.028 301.5,107.5C 316.688,108.792 327.188,102.459 333,88.5C 338.785,102.643 349.285,108.976 364.5,107.5C 364.502,127.009 372.502,142.176 388.5,153C 432.944,173.609 464.61,206.442 483.5,251.5 Z"/></g>
<g><path style="opacity:1" fill="#da4867" d="M 247.5,124.5 C 254.559,128.448 261.392,132.781 268,137.5C 268.667,138.167 268.667,138.833 268,139.5C 246.848,148.993 228.182,161.993 212,178.5C 211.024,182.327 211.857,185.66 214.5,188.5C 212.629,188.859 211.129,189.859 210,191.5C 207.92,194.065 206.087,196.732 204.5,199.5C 194.967,195.854 190.8,199.188 192,209.5C 193.045,210.373 193.878,211.373 194.5,212.5C 191.253,216.659 188.253,220.992 185.5,225.5C 181.397,224.769 177.897,225.769 175,228.5C 149.546,278.034 147.879,328.368 170,379.5C 178.117,396.616 188.951,411.782 202.5,425C 187.364,426.716 172.364,426.883 157.5,425.5C 158.978,425.762 160.311,425.429 161.5,424.5C 135.684,387.244 124.517,345.91 128,300.5C 138.861,222.899 178.361,165.066 246.5,127C 247.252,126.329 247.586,125.496 247.5,124.5 Z"/></g>
<g><path style="opacity:1" fill="#262021" d="M 289.5,182.5 C 307.721,181.854 319.554,190.187 325,207.5C 325.667,272.5 325.667,337.5 325,402.5C 319.448,421.87 306.615,430.037 286.5,427C 252.854,417.668 227.021,398.168 209,368.5C 190.825,334.928 187.492,299.928 199,263.5C 215.563,221.094 245.729,194.094 289.5,182.5 Z"/></g>
<g><path style="opacity:1" fill="#252021" d="M 432.5,386.5 C 430.707,383.741 430.207,380.741 431,377.5C 462.179,336.955 465.845,293.955 442,248.5C 425.185,221.859 401.351,205.193 370.5,198.5C 363.564,199.214 359.064,202.88 357,209.5C 356.333,273.167 356.333,336.833 357,400.5C 358.934,407.108 363.268,410.774 370,411.5C 382.31,409.286 393.977,405.286 405,399.5C 408.023,399.927 410.523,401.261 412.5,403.5C 413.885,406.546 413.719,409.546 412,412.5C 397.045,422.596 380.545,427.429 362.5,427C 350.721,422.887 343.554,414.72 341,402.5C 340.333,337.167 340.333,271.833 341,206.5C 346.167,189.986 357.334,182.152 374.5,183C 431.562,197.728 464.396,234.228 473,292.5C 475.907,324.879 467.907,354.212 449,380.5C 446.825,383.376 444.325,385.876 441.5,388C 438.177,388.932 435.177,388.432 432.5,386.5 Z"/></g>
<g><path style="opacity:1" fill="#262021" d="M 204.5,199.5 C 208.71,209.624 205.377,213.957 194.5,212.5C 193.878,211.373 193.045,210.373 192,209.5C 190.8,199.188 194.967,195.854 204.5,199.5 Z"/></g>
<g><path style="opacity:1" fill="#fb5770" d="M 291.5,198.5 C 299.986,197.991 305.819,201.657 309,209.5C 309.667,273.167 309.667,336.833 309,400.5C 306.9,407.766 302.067,411.433 294.5,411.5C 248.753,400.252 220.587,371.586 210,325.5C 203.137,271.388 223.637,231.555 271.5,206C 278.176,203.168 284.843,200.668 291.5,198.5 Z"/></g>
<g><path style="opacity:1" fill="#fc5771" d="M 432.5,386.5 C 426.617,393.105 419.95,398.772 412.5,403.5C 410.523,401.261 408.023,399.927 405,399.5C 393.977,405.286 382.31,409.286 370,411.5C 363.268,410.774 358.934,407.108 357,400.5C 356.333,336.833 356.333,273.167 357,209.5C 359.064,202.88 363.564,199.214 370.5,198.5C 401.351,205.193 425.185,221.859 442,248.5C 465.845,293.955 462.179,336.955 431,377.5C 430.207,380.741 430.707,383.741 432.5,386.5 Z"/></g>
<g><path style="opacity:1" fill="#282021" d="M 375.5,222.5 C 384.772,221.919 388.272,225.919 386,234.5C 380.837,240.062 376.171,239.729 372,233.5C 370.662,228.96 371.829,225.293 375.5,222.5 Z"/></g>
<g><path style="opacity:1" fill="#292022" d="M 275.5,224.5 C 282.985,224.483 286.485,228.15 286,235.5C 283.565,240.224 279.731,241.724 274.5,240C 270.788,237.398 269.622,233.898 271,229.5C 272.707,227.963 274.207,226.296 275.5,224.5 Z"/></g>
<g><path style="opacity:1" fill="#282022" d="M 404.5,240.5 C 411.547,240.383 415.047,243.717 415,250.5C 412.983,255.924 409.15,257.758 403.5,256C 397.974,250.357 398.308,245.19 404.5,240.5 Z"/></g>
<g><path style="opacity:1" fill="#282021" d="M 250.5,247.5 C 259.783,247.767 262.783,252.1 259.5,260.5C 254.179,264.934 249.679,264.267 246,258.5C 244.393,253.438 245.893,249.772 250.5,247.5 Z"/></g>
<g><path style="opacity:1" fill="#fb5770" d="M 483.5,251.5 C 505.366,307.989 497.2,359.655 459,406.5C 421.147,446.348 374.647,464.848 319.5,462C 293.895,460.185 270.228,452.685 248.5,439.5C 313.098,463.18 373.098,454.68 428.5,414C 478.302,370.428 496.635,316.261 483.5,251.5 Z"/></g>
<g><path style="opacity:1" fill="#262021" d="M 377.5,258.5 C 385.661,257.171 389.495,260.505 389,268.5C 386.565,273.224 382.731,274.724 377.5,273C 372.202,268.092 372.202,263.258 377.5,258.5 Z"/></g>
<g><path style="opacity:1" fill="#292122" d="M 279.5,265.5 C 289.059,264.546 292.559,268.546 290,277.5C 284.837,283.062 280.171,282.729 276,276.5C 274.662,271.96 275.829,268.293 279.5,265.5 Z"/></g>
<g><path style="opacity:1" fill="#282022" d="M 428.5,265.5 C 437.33,264.162 440.83,267.829 439,276.5C 434.333,283.167 429.667,283.167 425,276.5C 423.663,271.872 424.83,268.205 428.5,265.5 Z"/></g>
<g><path style="opacity:1" fill="#272021" d="M 400.5,275.5 C 408.696,275.529 411.863,279.529 410,287.5C 405.38,292.823 400.714,292.823 396,287.5C 394.309,282.131 395.809,278.131 400.5,275.5 Z"/></g>
<g><path style="opacity:1" fill="#282021" d="M 227.5,278.5 C 235.87,278.681 239.037,282.681 237,290.5C 232.255,295.743 227.588,295.743 223,290.5C 221.309,285.131 222.809,281.131 227.5,278.5 Z"/></g>
<g><path style="opacity:1" fill="#292022" d="M 259.5,291.5 C 268.207,291.037 271.707,295.037 270,303.5C 264.042,309.339 259.042,308.672 255,301.5C 254.333,300.167 254.333,298.833 255,297.5C 256.332,295.34 257.832,293.34 259.5,291.5 Z"/></g>
<g><path style="opacity:1" fill="#292022" d="M 373.5,305.5 C 380.503,305.339 384.003,308.672 384,315.5C 379.876,322.613 374.876,323.28 369,317.5C 367.309,312.131 368.809,308.131 373.5,305.5 Z"/></g>
<g><path style="opacity:1" fill="#292022" d="M 402.5,310.5 C 410.033,310.529 413.533,314.196 413,321.5C 410.459,326.069 406.625,327.569 401.5,326C 395.974,320.357 396.308,315.19 402.5,310.5 Z"/></g>
<g><path style="opacity:1" fill="#292122" d="M 434.5,310.5 C 441.985,310.483 445.485,314.15 445,321.5C 440.408,327.679 435.408,328.012 430,322.5C 428.474,317.239 429.974,313.239 434.5,310.5 Z"/></g>
<g><path style="opacity:1" fill="#292122" d="M 279.5,316.5 C 289.059,315.546 292.559,319.546 290,328.5C 284.837,334.062 280.171,333.729 276,327.5C 274.662,322.96 275.829,319.293 279.5,316.5 Z"/></g>
<g><path style="opacity:1" fill="#292022" d="M 233.5,318.5 C 240.985,318.483 244.485,322.15 244,329.5C 239.408,335.679 234.408,336.012 229,330.5C 227.474,325.239 228.974,321.239 233.5,318.5 Z"/></g>
<g><path style="opacity:1" fill="#292022" d="M 255.5,346.5 C 265.023,346.217 268.19,350.55 265,359.5C 260.667,363.5 256.333,363.5 252,359.5C 249.325,354.011 250.492,349.678 255.5,346.5 Z"/></g>
<g><path style="opacity:1" fill="#282022" d="M 408.5,350.5 C 417.207,350.037 420.707,354.037 419,362.5C 413.091,368.348 408.091,367.681 404,360.5C 403.333,359.167 403.333,357.833 404,356.5C 405.332,354.34 406.832,352.34 408.5,350.5 Z"/></g>
<g><path style="opacity:1" fill="#292022" d="M 375.5,358.5 C 382.253,356.772 386.253,359.272 387.5,366C 386.862,370.97 384.029,373.47 379,373.5C 372.435,372.729 370.102,369.062 372,362.5C 372.69,360.65 373.856,359.316 375.5,358.5 Z"/></g>
<g><path style="opacity:1" fill="#272021" d="M 279.5,371.5 C 287.614,370.121 291.447,373.454 291,381.5C 288.565,386.224 284.731,387.724 279.5,386C 274.225,381.122 274.225,376.289 279.5,371.5 Z"/></g>
</svg>
