<?xml version="1.0" encoding="UTF-8"?>
<!DOCTYPE svg PUBLIC "-//W3C//DTD SVG 1.1//EN" "http://www.w3.org/Graphics/SVG/1.1/DTD/svg11.dtd">
<svg xmlns="http://www.w3.org/2000/svg" version="1.1" width="512px" height="512px" style="shape-rendering:geometricPrecision; text-rendering:geometricPrecision; image-rendering:optimizeQuality; fill-rule:evenodd; clip-rule:evenodd" xmlns:xlink="http://www.w3.org/1999/xlink">
<g><path style="opacity:0.976" fill="#010000" d="M 238.5,95.5 C 269.634,93.3018 288.8,107.302 296,137.5C 334.737,118.418 375.237,113.584 417.5,123C 446.134,129.9 471.634,142.733 494,161.5C 495.133,168.733 495.633,176.066 495.5,183.5C 495.633,190.934 495.133,198.267 494,205.5C 490.744,207.429 487.244,207.929 483.5,207C 460.136,192.652 435.469,180.985 409.5,172C 386.174,165.288 363.174,166.288 340.5,175C 323.449,181.355 307.782,190.021 293.5,201C 319.212,211.076 330.379,229.909 327,257.5C 324.936,267.889 319.936,276.555 312,283.5C 311.861,314.957 296.695,334.79 266.5,343C 259.167,343.667 251.833,343.667 244.5,343C 240.099,342.089 235.932,340.589 232,338.5C 228.65,371.515 210.817,391.681 178.5,399C 161.656,401.531 145.989,398.365 131.5,389.5C 116.452,414.02 95.1184,421.853 67.5,413C 48.9384,404.061 39.2717,389.228 38.5,368.5C 38.5489,360.137 40.5489,352.304 44.5,345C 21.9699,331.101 12.4699,310.935 16,284.5C 20.9774,262.032 34.4774,247.532 56.5,241C 60.4686,240.147 64.4686,239.481 68.5,239C 57.861,211.89 63.5277,188.89 85.5,170C 100.394,159.631 116.727,156.631 134.5,161C 139.804,162.208 144.637,164.375 149,167.5C 160.68,148.912 177.513,140.912 199.5,143.5C 200.775,117.899 213.775,101.899 238.5,95.5 Z M 150.5,262.5 C 152.528,265.772 153.195,269.272 152.5,273C 143.398,275.219 135.064,279.052 127.5,284.5C 126.124,280.203 124.457,276.036 122.5,272C 132.799,271.29 142.132,268.123 150.5,262.5 Z"/></g>
<g><path style="opacity:1" fill="#d71b4a" d="M 240.5,111.5 C 266.336,110.505 279.17,122.839 279,148.5C 273.856,168.287 261.023,177.121 240.5,175C 239.128,174.598 237.795,174.098 236.5,173.5C 231.964,163.796 225.13,156.13 216,150.5C 214.067,131.012 222.234,118.012 240.5,111.5 Z"/></g>
<g><path style="opacity:1" fill="#000000" d="M 239.5,135.5 C 244.833,135.5 250.167,135.5 255.5,135.5C 255.5,140.833 255.5,146.167 255.5,151.5C 250.167,151.5 244.833,151.5 239.5,151.5C 239.5,146.167 239.5,140.833 239.5,135.5 Z"/></g>
<g><path style="opacity:1" fill="#8abc3d" d="M 363.5,134.5 C 406.296,132.773 444.63,144.773 478.5,170.5C 479.662,175.467 479.829,180.467 479,185.5C 455.816,171.105 430.982,160.605 404.5,154C 384.664,149.009 364.998,149.676 345.5,156C 317.113,165.187 291.78,179.52 269.5,199C 264.956,201.519 260.289,203.852 255.5,206C 248.609,212.031 241.109,217.197 233,221.5C 232.13,220.892 231.63,220.059 231.5,219C 236.42,210.487 239.086,201.321 239.5,191.5C 266.212,193.326 284.212,181.826 293.5,157C 315.381,144.539 338.714,137.039 363.5,134.5 Z"/></g>
<g><path style="opacity:1" fill="#bc1848" d="M 184.5,159.5 C 210.822,158.656 223.655,171.322 223,197.5C 221.845,201.975 220.012,206.142 217.5,210C 209.341,208.125 201.007,207.458 192.5,208C 186.857,208.936 181.524,210.77 176.5,213.5C 175.315,207.425 173.815,201.425 172,195.5C 168.995,189.682 165.829,184.016 162.5,178.5C 167.041,168.901 174.374,162.568 184.5,159.5 Z"/></g>
<g><path style="opacity:1" fill="#d81b4a" d="M 111.5,175.5 C 135.871,173.731 151.704,184.398 159,207.5C 161.36,226.456 154.526,240.956 138.5,251C 128.84,255.512 118.84,256.512 108.5,254C 103.271,249.111 97.2712,245.445 90.5,243C 78.4406,228.92 76.2739,213.42 84,196.5C 90.5913,185.973 99.758,178.973 111.5,175.5 Z"/></g>
<g><path style="opacity:1" fill="#000000" d="M 183.5,183.5 C 188.833,183.5 194.167,183.5 199.5,183.5C 199.5,188.833 199.5,194.167 199.5,199.5C 194.167,199.5 188.833,199.5 183.5,199.5C 183.5,194.167 183.5,188.833 183.5,183.5 Z"/></g>
<g><path style="opacity:1" fill="#d51b49" d="M 272.5,215.5 C 300.612,215.106 313.112,228.773 310,256.5C 309.361,259.112 308.194,261.446 306.5,263.5C 294.923,242.362 276.923,231.362 252.5,230.5C 257.485,223.172 264.151,218.172 272.5,215.5 Z"/></g>
<g><path style="opacity:1" fill="#000000" d="M 103.5,223.5 C 108.833,223.5 114.167,223.5 119.5,223.5C 119.5,228.833 119.5,234.167 119.5,239.5C 114.167,239.5 108.833,239.5 103.5,239.5C 103.5,234.167 103.5,228.833 103.5,223.5 Z"/></g>
<g><path style="opacity:1" fill="#f0245f" d="M 192.5,223.5 C 207.042,221.558 218.376,226.558 226.5,238.5C 211.897,248.794 202.897,262.794 199.5,280.5C 191.199,275.567 182.199,272.734 172.5,272C 162.476,248.898 169.143,232.731 192.5,223.5 Z"/></g>
<g><path style="opacity:1" fill="#bd1848" d="M 247.5,247.5 C 271.831,245.679 287.664,256.345 295,279.5C 297.297,303.862 286.797,319.695 263.5,327C 250.52,329.117 239.02,325.95 229,317.5C 226.467,308.762 222.133,301.095 216,294.5C 214.391,270.625 224.891,254.959 247.5,247.5 Z"/></g>
<g><path style="opacity:1" fill="#bd1848" d="M 63.5,255.5 C 85.8384,253.743 101.338,263.076 110,283.5C 113.63,297.101 111.13,309.435 102.5,320.5C 85.0685,317.028 69.2352,320.695 55,331.5C 42.0527,325.629 34.386,315.629 32,301.5C 30.8485,278.124 41.3485,262.79 63.5,255.5 Z"/></g>
<g><path style="opacity:1" fill="#d81b4a" d="M 158.5,287.5 C 187.645,285.806 206.478,298.806 215,326.5C 217.348,357.328 203.515,376.162 173.5,383C 159.186,385.006 146.686,381.173 136,371.5C 135.952,363.926 134.618,356.593 132,349.5C 128.184,342.682 124.017,336.182 119.5,330C 124.034,307.97 137.034,293.803 158.5,287.5 Z"/></g>
<g><path style="opacity:1" fill="#000000" d="M 55.5,295.5 C 60.8333,295.5 66.1667,295.5 71.5,295.5C 71.5,300.833 71.5,306.167 71.5,311.5C 66.1667,311.5 60.8333,311.5 55.5,311.5C 55.5,306.167 55.5,300.833 55.5,295.5 Z"/></g>
<g><path style="opacity:1" fill="#000000" d="M 247.5,295.5 C 252.833,295.5 258.167,295.5 263.5,295.5C 263.5,300.833 263.5,306.167 263.5,311.5C 258.167,311.5 252.833,311.5 247.5,311.5C 247.5,306.167 247.5,300.833 247.5,295.5 Z"/></g>
<g><path style="opacity:1" fill="#f1245f" d="M 80.5,335.5 C 107.309,334.808 120.142,347.808 119,374.5C 112.734,392.887 99.9011,401.054 80.5,399C 62.1228,392.76 53.9561,379.926 56,360.5C 59.6829,347.651 67.8496,339.318 80.5,335.5 Z"/></g>
<g><path style="opacity:1" fill="#000000" d="M 167.5,351.5 C 172.833,351.5 178.167,351.5 183.5,351.5C 183.5,356.833 183.5,362.167 183.5,367.5C 178.167,367.5 172.833,367.5 167.5,367.5C 167.5,362.167 167.5,356.833 167.5,351.5 Z"/></g>
<g><path style="opacity:1" fill="#000000" d="M 79.5,367.5 C 84.8333,367.5 90.1667,367.5 95.5,367.5C 95.5,372.833 95.5,378.167 95.5,383.5C 90.1667,383.5 84.8333,383.5 79.5,383.5C 79.5,378.167 79.5,372.833 79.5,367.5 Z"/></g>
</svg>
