<?xml version="1.0" encoding="UTF-8"?>
<!DOCTYPE svg PUBLIC "-//W3C//DTD SVG 1.1//EN" "http://www.w3.org/Graphics/SVG/1.1/DTD/svg11.dtd">
<svg xmlns="http://www.w3.org/2000/svg" version="1.1" width="512px" height="512px" style="shape-rendering:geometricPrecision; text-rendering:geometricPrecision; image-rendering:optimizeQuality; fill-rule:evenodd; clip-rule:evenodd" xmlns:xlink="http://www.w3.org/1999/xlink">
<g><path style="opacity:0.981" fill="#010000" d="M 235.5,-0.5 C 240.5,-0.5 245.5,-0.5 250.5,-0.5C 257.933,2.3116 263.433,7.3116 267,14.5C 275.835,51.8389 284.668,89.1722 293.5,126.5C 320.035,126.258 339.702,137.591 352.5,160.5C 373.121,159.638 388.121,168.305 397.5,186.5C 436.242,184.252 460.242,201.919 469.5,239.5C 478.54,243.246 484.04,249.913 486,259.5C 486.667,278.833 486.667,298.167 486,317.5C 479.044,388.094 443.211,437.594 378.5,466C 374.57,467.477 370.57,468.644 366.5,469.5C 366.914,478.582 366.414,487.582 365,496.5C 361.178,503.496 355.678,508.496 348.5,511.5C 286.5,511.5 224.5,511.5 162.5,511.5C 155.322,508.496 149.822,503.496 146,496.5C 144.586,487.582 144.086,478.582 144.5,469.5C 92.8242,452.565 56.6575,418.898 36,368.5C 29.7769,352.051 26.1102,335.051 25,317.5C 24.3333,298.167 24.3333,278.833 25,259.5C 26.9602,249.913 32.4602,243.246 41.5,239.5C 48.9029,205.782 69.9029,187.948 104.5,186C 115.044,163.051 133.044,151.717 158.5,152C 163.735,142.097 171.068,134.097 180.5,128C 158.912,112.623 137.412,97.1225 116,81.5C 106.587,66.8087 108.42,53.642 121.5,42C 159.56,27.7059 197.56,13.5393 235.5,-0.5 Z"/></g>
<g><path style="opacity:1" fill="#f8d433" d="M 256.5,137.5 C 257.978,137.762 259.311,137.429 260.5,136.5C 251.208,97.9622 242.542,59.2956 234.5,20.5C 233.5,20.5 232.5,20.5 231.5,20.5C 234.938,18.796 238.604,17.4627 242.5,16.5C 246.188,16.7593 249.022,18.4259 251,21.5C 259.693,58.4659 268.193,95.4659 276.5,132.5C 270.143,134.189 264.476,137.189 259.5,141.5C 258.476,140.148 257.476,138.815 256.5,137.5 Z"/></g>
<g><path style="opacity:1" fill="#fde939" d="M 231.5,20.5 C 232.5,20.5 233.5,20.5 234.5,20.5C 242.542,59.2956 251.208,97.9622 260.5,136.5C 259.311,137.429 257.978,137.762 256.5,137.5C 240.52,122.249 221.52,116.416 199.5,120C 176.676,103.421 153.676,87.0877 130.5,71C 126.024,65.3314 126.691,60.3314 132.5,56C 165.497,44.0573 198.497,32.224 231.5,20.5 Z"/></g>
<g><path style="opacity:1" fill="#a3c200" d="M 290.5,145.5 C 295.297,145.121 299.964,145.621 304.5,147C 312.238,153.902 318.238,162.069 322.5,171.5C 327.435,170.552 332.435,170.219 337.5,170.5C 339.287,178.967 344.287,181.967 352.5,179.5C 353.873,179.343 355.207,179.51 356.5,180C 361.508,185.183 364.508,191.35 365.5,198.5C 370.737,197.132 376.07,196.132 381.5,195.5C 382.806,198.338 383.973,201.338 385,204.5C 385.903,205.701 387.069,206.535 388.5,207C 396.658,205.127 404.992,204.294 413.5,204.5C 421.609,211.379 427.775,219.712 432,229.5C 432.953,232.432 433.453,235.432 433.5,238.5C 309.167,238.5 184.833,238.5 60.5,238.5C 64.458,221.04 75.1247,209.873 92.5,205C 100.167,204.667 107.833,204.333 115.5,204C 117.049,202.786 118.215,201.286 119,199.5C 125.323,176.494 140.323,167.161 164,171.5C 165.967,171.458 167.801,170.958 169.5,170C 180.043,142.095 199.709,131.762 228.5,139C 238.55,143.051 246.05,149.885 251,159.5C 254.42,163.753 258.587,164.587 263.5,162C 270.372,152.95 279.372,147.45 290.5,145.5 Z"/></g>
<g><path style="opacity:1" fill="#8ca700" d="M 290.5,145.5 C 311.893,142.86 327.559,151.193 337.5,170.5C 332.435,170.219 327.435,170.552 322.5,171.5C 318.238,162.069 312.238,153.902 304.5,147C 299.964,145.621 295.297,145.121 290.5,145.5 Z"/></g>
<g><path style="opacity:1" fill="#040500" d="M 184.5,178.5 C 203.498,178.995 212.664,188.662 212,207.5C 209.459,212.069 205.625,213.569 200.5,212C 196.358,208.88 194.524,204.713 195,199.5C 191.931,196.193 188.098,194.693 183.5,195C 176.671,189.003 177.004,183.503 184.5,178.5 Z"/></g>
<g><path style="opacity:1" fill="#8ca700" d="M 352.5,179.5 C 366.228,177.202 375.895,182.535 381.5,195.5C 376.07,196.132 370.737,197.132 365.5,198.5C 364.508,191.35 361.508,185.183 356.5,180C 355.207,179.51 353.873,179.343 352.5,179.5 Z"/></g>
<g><path style="opacity:1" fill="#030400" d="M 309.5,187.5 C 313.308,187.163 316.974,187.663 320.5,189C 324.677,193.954 324.343,198.62 319.5,203C 310.813,202.688 306.313,206.854 306,215.5C 301.814,222.538 296.814,223.205 291,217.5C 288.217,207.212 291.05,198.712 299.5,192C 302.815,190.17 306.149,188.67 309.5,187.5 Z"/></g>
<g><path style="opacity:1" fill="#8da800" d="M 413.5,204.5 C 433.543,207.547 445.877,218.88 450.5,238.5C 444.833,238.5 439.167,238.5 433.5,238.5C 433.453,235.432 432.953,232.432 432,229.5C 427.775,219.712 421.609,211.379 413.5,204.5 Z"/></g>
<g><path style="opacity:1" fill="#fe9701" d="M 449.5,255.5 C 451.345,260.945 452.012,266.612 451.5,272.5C 422.165,272.333 392.831,272.5 363.5,273C 358.845,275.897 357.345,280.063 359,285.5C 360.214,287.049 361.714,288.215 363.5,289C 392.831,289.5 422.165,289.667 451.5,289.5C 455.055,350.072 433.388,399.239 386.5,437C 378.438,442.693 370.105,447.86 361.5,452.5C 349.738,457.086 337.405,459.586 324.5,460C 276.833,460.667 229.167,460.667 181.5,460C 120.606,451.66 77.7726,419.493 53,363.5C 43.7538,339.684 40.2538,315.018 42.5,289.5C 139.834,289.667 237.167,289.5 334.5,289C 338.666,288.015 340.666,285.348 340.5,281C 340.68,276.69 338.68,274.024 334.5,273C 237.167,272.5 139.834,272.333 42.5,272.5C 42.3345,268.486 42.5012,264.486 43,260.5C 43.8333,258.333 45.3333,256.833 47.5,256C 181.5,255.5 315.5,255.333 449.5,255.5 Z"/></g>
<g><path style="opacity:1" fill="#f37b00" d="M 449.5,255.5 C 464.483,251.824 470.816,257.49 468.5,272.5C 462.833,272.5 457.167,272.5 451.5,272.5C 452.012,266.612 451.345,260.945 449.5,255.5 Z"/></g>
<g><path style="opacity:1" fill="#f17a00" d="M 451.5,289.5 C 457.167,289.5 462.833,289.5 468.5,289.5C 472.189,357.641 444.855,408.808 386.5,443C 378.464,447.066 370.131,450.232 361.5,452.5C 370.105,447.86 378.438,442.693 386.5,437C 433.388,399.239 455.055,350.072 451.5,289.5 Z"/></g>
<g><path style="opacity:1" fill="#f37b00" d="M 161.5,474.5 C 168.812,475.44 176.145,476.274 183.5,477C 230.5,477.667 277.5,477.667 324.5,477C 332.827,476.024 341.16,475.191 349.5,474.5C 349.666,479.179 349.499,483.845 349,488.5C 347.833,491 346,492.833 343.5,494C 284.5,494.667 225.5,494.667 166.5,494C 164.622,492.457 163.122,490.624 162,488.5C 161.501,483.845 161.334,479.179 161.5,474.5 Z"/></g>
</svg>
