<?xml version="1.0" encoding="UTF-8"?>
<!DOCTYPE svg PUBLIC "-//W3C//DTD SVG 1.1//EN" "http://www.w3.org/Graphics/SVG/1.1/DTD/svg11.dtd">
<svg xmlns="http://www.w3.org/2000/svg" version="1.1" width="512px" height="512px" style="shape-rendering:geometricPrecision; text-rendering:geometricPrecision; image-rendering:optimizeQuality; fill-rule:evenodd; clip-rule:evenodd" xmlns:xlink="http://www.w3.org/1999/xlink">
<g><path style="opacity:0.979" fill="#030101" d="M 142.5,-0.5 C 145.5,-0.5 148.5,-0.5 151.5,-0.5C 154.294,0.970473 155.961,3.30381 156.5,6.5C 155.731,8.66735 154.731,10.834 153.5,13C 142.533,14.6541 132.533,18.6541 123.5,25C 121.773,26.3894 120.439,28.0561 119.5,30C 130.28,43.0585 137.78,57.8918 142,74.5C 150.191,92.1871 162.691,105.854 179.5,115.5C 180.749,117.136 182.416,118.303 184.5,119C 192.833,122.167 201.167,125.333 209.5,128.5C 230.308,118.36 245.308,102.693 254.5,81.5C 247.587,78.3065 240.587,75.3065 233.5,72.5C 215.596,62.7637 201.429,49.097 191,31.5C 185.641,26.8044 180.308,22.1377 175,17.5C 174.444,15.1152 174.61,12.7819 175.5,10.5C 179.211,5.7984 183.544,5.2984 188.5,9C 198.429,15.5946 206.262,24.0946 212,34.5C 224.096,49.5542 239.429,59.8876 258,65.5C 269.299,42.864 286.132,25.364 308.5,13C 320.916,8.36513 333.249,3.86513 345.5,-0.5C 353.167,-0.5 360.833,-0.5 368.5,-0.5C 379.104,1.79959 388.771,6.29959 397.5,13C 431,46.5 464.5,80 498,113.5C 504.7,122.229 509.2,131.896 511.5,142.5C 511.5,150.167 511.5,157.833 511.5,165.5C 506.558,185.957 494.892,201.457 476.5,212C 461.989,223.352 451.989,237.852 446.5,255.5C 454.435,278.266 468.768,295.766 489.5,308C 500.9,318.206 508.233,330.706 511.5,345.5C 511.5,353.167 511.5,360.833 511.5,368.5C 509.2,379.104 504.7,388.771 498,397.5C 464.5,431 431,464.5 397.5,498C 388.771,504.7 379.104,509.2 368.5,511.5C 361.167,511.5 353.833,511.5 346.5,511.5C 327.767,506.64 310.101,499.14 293.5,489C 278.598,476.788 266.764,462.288 258,445.5C 234.016,453.155 215.683,467.822 203,489.5C 194.44,499.227 183.94,505.894 171.5,509.5C 167.372,509.364 164.705,507.364 163.5,503.5C 163.014,500.245 164.014,497.578 166.5,495.5C 177.407,492.064 186.073,485.731 192.5,476.5C 203.977,459.904 218.644,446.738 236.5,437C 266.21,429.939 288.377,413.106 303,386.5C 310.327,356.637 326.827,333.47 352.5,317C 366.868,310.659 381.201,304.325 395.5,298C 406.708,289.792 416.208,279.959 424,268.5C 428.92,258.074 433.253,247.407 437,236.5C 446.734,217.201 460.901,202.035 479.5,191C 499.642,170.261 501.809,147.761 486,123.5C 484.611,121.773 482.944,120.439 481,119.5C 467.942,130.28 453.108,137.78 436.5,142C 420.298,149.531 407.131,160.698 397,175.5C 390.392,189.716 384.059,204.049 378,218.5C 361.979,243.498 339.479,259.665 310.5,267C 291.333,276.833 276.833,291.333 267,310.5C 259.665,339.479 243.498,361.979 218.5,378C 204.049,384.059 189.716,390.392 175.5,397C 170.718,400.381 166.385,404.214 162.5,408.5C 156.168,413.496 151.002,419.496 147,426.5C 141.277,439.004 135.943,451.67 131,464.5C 127.541,470.287 123.708,475.787 119.5,481C 125.103,487.576 132.103,492.242 140.5,495C 142.808,497.447 144.141,500.281 144.5,503.5C 143.295,507.364 140.628,509.364 136.5,509.5C 128.002,507.251 120.335,503.418 113.5,498C 80.3333,464.833 47.1667,431.667 14,398.5C 6.76018,389.587 1.92684,379.587 -0.5,368.5C -0.5,360.833 -0.5,353.167 -0.5,345.5C 3.86513,333.249 8.36513,320.916 13,308.5C 26.5813,282.748 47.0813,265.082 74.5,255.5C 47.0813,245.918 26.5813,228.252 13,202.5C 8.36513,190.084 3.86513,177.751 -0.5,165.5C -0.5,157.833 -0.5,150.167 -0.5,142.5C 1.79959,131.896 6.29959,122.229 13,113.5C 46.5,80 80,46.5 113.5,13C 122.229,6.29959 131.896,1.79959 142.5,-0.5 Z"/></g>
<g><path style="opacity:0.999" fill="#fa5b5b" d="M 156.5,6.5 C 163.004,7.06737 169.337,8.4007 175.5,10.5C 174.61,12.7819 174.444,15.1152 175,17.5C 180.308,22.1377 185.641,26.8044 191,31.5C 201.429,49.097 215.596,62.7637 233.5,72.5C 228.27,84.7666 220.27,94.9333 209.5,103C 199.708,107.653 189.708,111.82 179.5,115.5C 162.691,105.854 150.191,92.1871 142,74.5C 137.78,57.8918 130.28,43.0585 119.5,30C 120.439,28.0561 121.773,26.3894 123.5,25C 132.533,18.6541 142.533,14.6541 153.5,13C 154.731,10.834 155.731,8.66735 156.5,6.5 Z"/></g>
<g><path style="opacity:1" fill="#fb796d" d="M 143.5,310.5 C 142.254,280.293 144.087,250.293 149,220.5C 152.172,207.146 155.339,193.813 158.5,180.5C 165.314,170.187 173.98,161.687 184.5,155C 196.257,149.414 208.257,144.414 220.5,140C 248.083,124.408 265.916,101.241 274,70.5C 282.29,52.8759 294.79,39.0426 311.5,29C 323.611,23.7409 335.944,19.0742 348.5,15C 362.942,12.9032 375.942,16.2365 387.5,25C 395.681,33.0143 403.681,41.1809 411.5,49.5C 407.956,53.2072 403.956,56.3739 399.5,59C 389.659,63.3915 379.659,67.3915 369.5,71C 338.559,87.2889 318.726,112.456 310,146.5C 302.315,161.186 291.482,173.02 277.5,182C 266.489,187.448 255.156,192.115 243.5,196C 215.117,211.261 196.617,234.427 188,265.5C 178.96,286.372 164.127,301.372 143.5,310.5 Z"/></g>
<g><path style="opacity:1" fill="#fddeb4" d="M 163.5,124.5 C 144.347,136.651 129.347,152.651 118.5,172.5C 107.273,165.443 97.773,156.443 90,145.5C 83.7487,132.412 78.082,119.079 73,105.5C 69.2214,99.3883 65.0547,93.5549 60.5,88C 76.3333,72.1667 92.1667,56.3333 108,40.5C 110.667,43.8333 113.333,47.1667 116,50.5C 122.341,64.8677 128.675,79.201 135,93.5C 143.289,104.956 152.789,115.289 163.5,124.5 Z"/></g>
<g><path style="opacity:1" fill="#fdf1e2" d="M 157.5,391.5 C 151.255,370.375 147.255,348.708 145.5,326.5C 169.919,316.25 188.085,299.25 200,275.5C 207.5,244.682 225.333,222.182 253.5,208C 295.072,196.094 321.572,169.261 333,127.5C 342.447,109.053 356.28,94.8862 374.5,85C 384.167,81.3333 393.833,77.6667 403.5,74C 410.528,70.4709 416.861,65.9709 422.5,60.5C 438.653,76.1526 454.653,91.986 470.5,108C 467.167,110.667 463.833,113.333 460.5,116C 450.234,121.311 439.568,125.644 428.5,129C 406.333,140.5 389.5,157.333 378,179.5C 371.691,204.989 357.858,225.155 336.5,240C 322.167,246.333 307.833,252.667 293.5,259C 275.698,270.799 262.198,286.299 253,305.5C 243.14,343.36 219.307,367.193 181.5,377C 172.974,381.091 164.974,385.924 157.5,391.5 Z"/></g>
<g><path style="opacity:1" fill="#f63d47" d="M 233.5,72.5 C 240.587,75.3065 247.587,78.3065 254.5,81.5C 245.308,102.693 230.308,118.36 209.5,128.5C 201.167,125.333 192.833,122.167 184.5,119C 182.416,118.303 180.749,117.136 179.5,115.5C 189.708,111.82 199.708,107.653 209.5,103C 220.27,94.9333 228.27,84.7666 233.5,72.5 Z"/></g>
<g><path style="opacity:1" fill="#fa5b5b" d="M 112.5,187.5 C 105.676,211.319 90.6762,227.319 67.5,235.5C 48.0218,225.522 33.8551,210.522 25,190.5C 22.3333,183.167 19.6667,175.833 17,168.5C 11.8575,152.078 14.5242,137.078 25,123.5C 32.8333,115.667 40.6667,107.833 48.5,100C 49.1667,99.3333 49.8333,99.3333 50.5,100C 53.3614,102.894 55.8614,106.061 58,109.5C 63.311,119.766 67.6443,130.432 71,141.5C 80.8295,160.494 94.6628,175.827 112.5,187.5 Z"/></g>
<g><path style="opacity:1" fill="#fb796d" d="M 192.5,476.5 C 180,455.025 170,432.358 162.5,408.5C 166.385,404.214 170.718,400.381 175.5,397C 189.716,390.392 204.049,384.059 218.5,378C 243.498,361.979 259.665,339.479 267,310.5C 276.833,291.333 291.333,276.833 310.5,267C 339.479,259.665 361.979,243.498 378,218.5C 384.059,204.049 390.392,189.716 397,175.5C 407.131,160.698 420.298,149.531 436.5,142C 453.108,137.78 467.942,130.28 481,119.5C 482.944,120.439 484.611,121.773 486,123.5C 501.809,147.761 499.642,170.261 479.5,191C 460.901,202.035 446.734,217.201 437,236.5C 433.253,247.407 428.92,258.074 424,268.5C 416.208,279.959 406.708,289.792 395.5,298C 381.201,304.325 366.868,310.659 352.5,317C 326.827,333.47 310.327,356.637 303,386.5C 288.377,413.106 266.21,429.939 236.5,437C 218.644,446.738 203.977,459.904 192.5,476.5 Z"/></g>
<g><path style="opacity:1" fill="#fcc983" d="M 163.5,124.5 C 170.987,128.744 178.654,132.744 186.5,136.5C 166.243,147.257 150.41,162.59 139,182.5C 131.569,180.201 124.735,176.868 118.5,172.5C 129.347,152.651 144.347,136.651 163.5,124.5 Z"/></g>
<g><path style="opacity:1" fill="#fa5b5b" d="M 158.5,180.5 C 155.339,193.813 152.172,207.146 149,220.5C 144.087,250.293 142.254,280.293 143.5,310.5C 132.355,314.733 121.355,319.566 110.5,325C 93.4203,336.41 80.2536,351.243 71,369.5C 67.3915,379.659 63.3915,389.659 59,399.5C 56.3739,403.956 53.2072,407.956 49.5,411.5C 39.1146,402.283 29.6146,392.283 21,381.5C 15.4441,371.166 13.4441,360.166 15,348.5C 18.6632,338.178 22.3299,327.844 26,317.5C 35.8888,297.945 50.7221,283.445 70.5,274C 110.928,262.572 137.095,236.738 149,196.5C 151.437,190.608 154.604,185.274 158.5,180.5 Z"/></g>
<g><path style="opacity:1" fill="#f63d47" d="M 112.5,187.5 C 119.404,190.691 126.404,193.691 133.5,196.5C 127.229,217.924 114.729,234.591 96,246.5C 86.4321,242.923 76.9321,239.257 67.5,235.5C 90.6762,227.319 105.676,211.319 112.5,187.5 Z"/></g>
<g><path style="opacity:1" fill="#f63d47" d="M 450.5,295.5 C 443.782,305.391 435.782,314.225 426.5,322C 421.442,326.057 416.108,329.724 410.5,333C 406.781,335.364 402.781,336.864 398.5,337.5C 394.849,331.697 391.849,325.53 389.5,319C 408.627,308.873 424.294,294.873 436.5,277C 437.332,276.312 437.998,276.479 438.5,277.5C 442.014,283.873 446.014,289.873 450.5,295.5 Z"/></g>
<g><path style="opacity:1" fill="#fa5b5b" d="M 450.5,295.5 C 453.602,299.104 456.935,302.604 460.5,306C 468.955,312.12 477.121,318.62 485,325.5C 497.078,340.589 499.745,357.256 493,375.5C 490.366,381.272 486.866,386.439 482.5,391C 481.5,391.667 480.5,391.667 479.5,391C 473.316,385.157 466.316,380.49 458.5,377C 433.591,371.061 413.591,357.895 398.5,337.5C 402.781,336.864 406.781,335.364 410.5,333C 416.108,329.724 421.442,326.057 426.5,322C 435.782,314.225 443.782,305.391 450.5,295.5 Z"/></g>
<g><path style="opacity:1" fill="#fcc983" d="M 384.5,344.5 C 379.546,345.473 374.879,347.306 370.5,350C 354.353,361.131 344.353,376.298 340.5,395.5C 334.319,386.793 329.985,377.126 327.5,366.5C 329.283,360.937 332.117,355.937 336,351.5C 346.33,339.001 358.997,329.668 374,323.5C 377.482,330.463 380.982,337.463 384.5,344.5 Z"/></g>
<g><path style="opacity:1" fill="#fddeb5" d="M 145.5,326.5 C 147.255,348.708 151.255,370.375 157.5,391.5C 145.588,401.999 136.088,414.333 129,428.5C 125.644,439.568 121.311,450.234 116,460.5C 113.333,463.833 110.667,467.167 108,470.5C 92.1667,454.667 76.3333,438.833 60.5,423C 71.939,408.623 80.1057,392.456 85,374.5C 98.4421,350.028 118.609,334.028 145.5,326.5 Z"/></g>
<g><path style="opacity:1" fill="#fddeb5" d="M 384.5,344.5 C 395.867,359.7 409.867,371.867 426.5,381C 438.156,384.885 449.489,389.552 460.5,395C 463.833,397.667 467.167,400.333 470.5,403C 454.667,418.833 438.833,434.667 423,450.5C 417.445,445.945 411.612,441.779 405.5,438C 391.887,432.91 378.554,427.243 365.5,421C 355.603,413.937 347.27,405.437 340.5,395.5C 344.353,376.298 354.353,361.131 370.5,350C 374.879,347.306 379.546,345.473 384.5,344.5 Z"/></g>
<g><path style="opacity:1" fill="#f53d47" d="M 331.5,409.5 C 331.628,411.655 331.128,413.655 330,415.5C 318.455,433.55 303.288,447.55 284.5,457.5C 279.72,452.125 276.053,445.958 273.5,439C 293.168,426.326 308.335,409.493 319,388.5C 322.597,395.909 326.763,402.909 331.5,409.5 Z"/></g>
<g><path style="opacity:1" fill="#fa5b5b" d="M 162.5,408.5 C 170,432.358 180,455.025 192.5,476.5C 186.073,485.731 177.407,492.064 166.5,495.5C 164.014,497.578 163.014,500.245 163.5,503.5C 157.167,504.833 150.833,504.833 144.5,503.5C 144.141,500.281 142.808,497.447 140.5,495C 132.103,492.242 125.103,487.576 119.5,481C 123.708,475.787 127.541,470.287 131,464.5C 135.943,451.67 141.277,439.004 147,426.5C 151.002,419.496 156.168,413.496 162.5,408.5 Z"/></g>
<g><path style="opacity:1" fill="#fa5b5b" d="M 331.5,409.5 C 341.682,422.758 354.349,432.925 369.5,440C 380.407,443.747 391.074,448.08 401.5,453C 403.833,454.667 406.167,456.333 408.5,458C 410.329,459.113 411.163,460.613 411,462.5C 401.769,472.401 391.936,481.567 381.5,490C 369.802,496.336 357.469,498.002 344.5,495C 333.342,491.059 322.342,486.725 311.5,482C 300.758,475.758 291.758,467.591 284.5,457.5C 303.288,447.55 318.455,433.55 330,415.5C 331.128,413.655 331.628,411.655 331.5,409.5 Z"/></g>
</svg>
