<?xml version="1.0" encoding="UTF-8"?>
<!DOCTYPE svg PUBLIC "-//W3C//DTD SVG 1.1//EN" "http://www.w3.org/Graphics/SVG/1.1/DTD/svg11.dtd">
<svg xmlns="http://www.w3.org/2000/svg" version="1.1" width="512px" height="512px" style="shape-rendering:geometricPrecision; text-rendering:geometricPrecision; image-rendering:optimizeQuality; fill-rule:evenodd; clip-rule:evenodd" xmlns:xlink="http://www.w3.org/1999/xlink">
<g><path style="opacity:0.973" fill="#010200" d="M 511.5,225.5 C 511.5,245.5 511.5,265.5 511.5,285.5C 501.977,342.374 470.31,381.207 416.5,402C 403.825,406.135 390.825,408.468 377.5,409C 328.833,409.667 280.167,409.667 231.5,409C 218.093,408.252 204.927,406.085 192,402.5C 128.892,419.232 75.5587,403.565 32,355.5C 14.2749,333.057 3.44157,307.723 -0.5,279.5C -0.5,268.167 -0.5,256.833 -0.5,245.5C 3.80592,213.055 17.1393,184.888 39.5,161C 43.0248,158.872 46.3582,159.039 49.5,161.5C 51.2931,164.259 51.7931,167.259 51,170.5C 10.0452,218.531 3.71184,270.864 32,327.5C 48.9832,356.065 73.1499,375.731 104.5,386.5C 124.927,393.706 145.927,395.373 167.5,391.5C 110.854,357.897 83.6875,307.897 86,241.5C 91.5671,195.513 112.734,158.68 149.5,131C 127.708,129.367 107.374,133.867 88.5,144.5C 84.4682,144.814 81.1348,143.481 78.5,140.5C 77.1455,136.39 78.1455,132.89 81.5,130C 110.056,116.434 139.889,112.268 171,117.5C 186.361,110.047 202.527,105.214 219.5,103C 247.478,101.878 275.478,101.378 303.5,101.5C 328.167,101.667 352.833,101.833 377.5,102C 441.605,107.779 484.438,140.946 506,201.5C 508.169,209.562 510.002,217.562 511.5,225.5 Z"/></g>
<g><path style="opacity:1" fill="#fce897" d="M 231.5,117.5 C 282.514,116.591 323.014,136.591 353,177.5C 379.513,219.202 383.846,263.202 366,309.5C 338.825,365.464 293.992,393.464 231.5,393.5C 259.287,383.44 282.287,366.773 300.5,343.5C 310.889,347.707 319.389,345.374 326,336.5C 328.27,332.07 328.937,327.403 328,322.5C 326.558,316.29 324.058,310.624 320.5,305.5C 324.223,296.552 326.889,287.219 328.5,277.5C 336.847,276.999 344.513,274.499 351.5,270C 360.833,260.333 360.833,250.667 351.5,241C 344.513,236.501 336.847,234.001 328.5,233.5C 326.819,223.801 324.152,214.467 320.5,205.5C 324.049,200.372 326.549,194.706 328,188.5C 329.71,177.221 325.21,169.721 314.5,166C 309.682,165.221 305.015,165.721 300.5,167.5C 282.287,144.227 259.287,127.56 231.5,117.5 Z"/></g>
<g><path style="opacity:1" fill="#5dab23" d="M 494.5,290.5 C 476.739,291.16 458.905,291.494 441,291.5C 423.154,291.5 405.654,290.833 388.5,289.5C 400.226,224.483 380.226,171.65 328.5,131C 321.427,126.268 314.094,121.935 306.5,118C 332.833,117.333 359.167,117.333 385.5,118C 442.58,127.744 478.746,160.578 494,216.5C 497.139,241.138 497.305,265.805 494.5,290.5 Z"/></g>
<g><path style="opacity:1" fill="#fcf2ca" d="M 231.5,117.5 C 259.287,127.56 282.287,144.227 300.5,167.5C 285.881,174.62 275.047,185.62 268,200.5C 264.485,212.97 268.652,221.804 280.5,227C 289.824,228.252 298.157,225.919 305.5,220C 311.03,215.636 316.03,210.802 320.5,205.5C 324.152,214.467 326.819,223.801 328.5,233.5C 316.915,232.182 305.915,234.016 295.5,239C 286.158,245.948 283.991,254.781 289,265.5C 294.216,272.029 301.049,275.862 309.5,277C 315.825,277.5 322.158,277.666 328.5,277.5C 326.889,287.219 324.223,296.552 320.5,305.5C 313.214,297.011 304.547,290.177 294.5,285C 279.509,280.993 270.175,286.493 266.5,301.5C 268.797,314.645 275.131,325.478 285.5,334C 290.26,337.704 295.26,340.87 300.5,343.5C 282.287,366.773 259.287,383.44 231.5,393.5C 173.315,387.795 132.815,358.129 110,304.5C 89.2346,237.806 106.401,183.306 161.5,141C 182.706,126.876 206.039,119.042 231.5,117.5 Z"/></g>
<g><path style="opacity:1" fill="#4e901e" d="M 364.5,128.5 C 374.197,128.72 376.864,133.22 372.5,142C 363.732,144.862 359.899,141.695 361,132.5C 362.376,131.295 363.542,129.962 364.5,128.5 Z"/></g>
<g><path style="opacity:1" fill="#46811b" d="M 104.5,386.5 C 105.239,386.631 105.906,386.464 106.5,386C 57.9116,333.817 42.4116,272.984 60,203.5C 66.5447,182.243 76.3781,162.743 89.5,145C 89.2716,144.601 88.9382,144.435 88.5,144.5C 107.374,133.867 127.708,129.367 149.5,131C 112.734,158.68 91.5671,195.513 86,241.5C 83.6875,307.897 110.854,357.897 167.5,391.5C 145.927,395.373 124.927,393.706 104.5,386.5 Z"/></g>
<g><path style="opacity:1" fill="#030302" d="M 233.5,136.5 C 242.235,135.124 249.402,137.791 255,144.5C 263.309,161.956 263.643,179.623 256,197.5C 246.407,210.784 235.74,211.784 224,200.5C 217.494,187.976 215.161,174.642 217,160.5C 218.351,149.411 223.851,141.411 233.5,136.5 Z"/></g>
<g><path style="opacity:1" fill="#4e911e" d="M 410.5,136.5 C 416.766,135.117 420.433,137.45 421.5,143.5C 420.871,149.631 417.538,152.131 411.5,151C 405.281,146.533 404.948,141.699 410.5,136.5 Z"/></g>
<g><path style="opacity:0.94" fill="#010200" d="M 73.5,142.5 C 75.4859,147.407 74.4859,151.574 70.5,155C 67.1582,157.515 63.4915,159.348 59.5,160.5C 57.1992,160.016 55.1992,159.016 53.5,157.5C 51.5988,152.647 52.5988,148.48 56.5,145C 61.6663,140.187 67.3329,139.354 73.5,142.5 Z"/></g>
<g><path style="opacity:0.999" fill="#4c8d1d" d="M 78.5,140.5 C 81.1348,143.481 84.4682,144.814 88.5,144.5C 88.9382,144.435 89.2716,144.601 89.5,145C 76.3781,162.743 66.5447,182.243 60,203.5C 42.4116,272.984 57.9116,333.817 106.5,386C 105.906,386.464 105.239,386.631 104.5,386.5C 73.1499,375.731 48.9832,356.065 32,327.5C 3.71184,270.864 10.0452,218.531 51,170.5C 51.7931,167.259 51.2931,164.259 49.5,161.5C 51.1392,160.527 52.4726,159.194 53.5,157.5C 55.1992,159.016 57.1992,160.016 59.5,160.5C 63.4915,159.348 67.1582,157.515 70.5,155C 74.4859,151.574 75.4859,147.407 73.5,142.5C 75.1667,141.833 76.8333,141.167 78.5,140.5 Z"/></g>
<g><path style="opacity:1" fill="#65523a" d="M 236.5,151.5 C 241.238,151.397 244.072,153.73 245,158.5C 247.71,169.865 246.71,180.865 242,191.5C 240,192.833 238,192.833 236,191.5C 229.884,178.021 230.051,164.688 236.5,151.5 Z"/></g>
<g><path style="opacity:1" fill="#040403" d="M 163.5,165.5 C 171.114,164.987 178.114,166.82 184.5,171C 195.543,178.042 203.71,187.542 209,199.5C 213.057,220.443 204.557,229.276 183.5,226C 167.493,218.662 156.327,206.829 150,190.5C 147.477,178.228 151.977,169.895 163.5,165.5 Z"/></g>
<g><path style="opacity:1" fill="#4e901e" d="M 447.5,164.5 C 457.11,164.936 459.776,169.436 455.5,178C 448.485,181.159 444.151,178.992 442.5,171.5C 443.44,168.611 445.106,166.278 447.5,164.5 Z"/></g>
<g><path style="opacity:1" fill="#050403" d="M 320.5,205.5 C 316.03,210.802 311.03,215.636 305.5,220C 298.157,225.919 289.824,228.252 280.5,227C 268.652,221.804 264.485,212.97 268,200.5C 275.047,185.62 285.881,174.62 300.5,167.5C 305.015,165.721 309.682,165.221 314.5,166C 325.21,169.721 329.71,177.221 328,188.5C 326.549,194.706 324.049,200.372 320.5,205.5 Z"/></g>
<g><path style="opacity:1" fill="#4e911e" d="M 385.5,168.5 C 393.147,168.313 396.314,171.98 395,179.5C 392.794,183.125 389.627,184.292 385.5,183C 381.443,181.053 379.943,177.886 381,173.5C 382.366,171.638 383.866,169.972 385.5,168.5 Z"/></g>
<g><path style="opacity:1" fill="#67543b" d="M 166.5,180.5 C 179.514,184.672 189.014,193.006 195,205.5C 195.495,207.473 195.662,209.473 195.5,211.5C 190.713,212.03 186.38,210.863 182.5,208C 174.824,202.664 168.991,195.831 165,187.5C 164.167,184.829 164.667,182.496 166.5,180.5 Z"/></g>
<g><path style="opacity:1" fill="#67533b" d="M 306.5,181.5 C 308.527,181.338 310.527,181.505 312.5,182C 313.059,182.725 313.392,183.558 313.5,184.5C 308.563,197.77 299.563,207.104 286.5,212.5C 285.446,212.32 284.446,211.987 283.5,211.5C 281.961,206.219 283.128,201.552 287,197.5C 292.527,190.79 299.027,185.456 306.5,181.5 Z"/></g>
<g><path style="opacity:1" fill="#4e901e" d="M 425.5,189.5 C 435.493,188.655 438.493,192.822 434.5,202C 427.226,205.567 422.893,203.401 421.5,195.5C 422.432,193.235 423.765,191.235 425.5,189.5 Z"/></g>
<g><path style="opacity:1" fill="#4e901e" d="M 467.5,196.5 C 474.857,196.684 478.024,200.351 477,207.5C 472.333,212.833 467.667,212.833 463,207.5C 461.776,202.626 463.276,198.959 467.5,196.5 Z"/></g>
<g><path style="opacity:1" fill="#4e901e" d="M 406.5,220.5 C 414.775,219.706 417.942,223.373 416,231.5C 412.035,236.048 407.869,236.382 403.5,232.5C 401.567,227.607 402.567,223.607 406.5,220.5 Z"/></g>
<g><path style="opacity:1" fill="#4e901e" d="M 446.5,220.5 C 457.818,219.99 460.485,224.49 454.5,234C 443.105,234.803 440.439,230.303 446.5,220.5 Z"/></g>
<g><path style="opacity:1" fill="#040403" d="M 142.5,233.5 C 151.173,233.334 159.84,233.5 168.5,234C 178.502,235.688 186.002,240.855 191,249.5C 193.409,258.41 190.909,265.576 183.5,271C 170.554,277.264 156.888,279.264 142.5,277C 126.916,274.766 119.416,265.933 120,250.5C 124.371,240.577 131.871,234.91 142.5,233.5 Z"/></g>
<g><path style="opacity:1" fill="#040302" d="M 328.5,233.5 C 336.847,234.001 344.513,236.501 351.5,241C 360.833,250.667 360.833,260.333 351.5,270C 344.513,274.499 336.847,276.999 328.5,277.5C 322.158,277.666 315.825,277.5 309.5,277C 301.049,275.862 294.216,272.029 289,265.5C 283.991,254.781 286.158,245.948 295.5,239C 305.915,234.016 316.915,232.182 328.5,233.5 Z"/></g>
<g><path style="opacity:1" fill="#67533b" d="M 144.5,248.5 C 152.886,248.213 161.219,248.713 169.5,250C 178.833,253.667 178.833,257.333 169.5,261C 159.819,262.931 150.152,262.931 140.5,261C 135.223,259.466 133.89,256.466 136.5,252C 139.158,250.522 141.825,249.355 144.5,248.5 Z"/></g>
<g><path style="opacity:1" fill="#68543c" d="M 329.5,248.5 C 329.5,253.167 329.5,257.833 329.5,262.5C 323.491,262.666 317.491,262.499 311.5,262C 306.895,261.546 303.562,259.379 301.5,255.5C 302.38,252.542 304.38,250.709 307.5,250C 314.761,248.652 322.094,248.152 329.5,248.5 Z"/></g>
<g><path style="opacity:1" fill="#4e901e" d="M 466.5,248.5 C 474.494,247.329 477.994,250.663 477,258.5C 472.333,263.833 467.667,263.833 463,258.5C 461.755,254.235 462.922,250.902 466.5,248.5 Z"/></g>
<g><path style="opacity:1" fill="#53422f" d="M 329.5,248.5 C 346.833,253.167 346.833,257.833 329.5,262.5C 329.5,257.833 329.5,253.167 329.5,248.5 Z"/></g>
<g><path style="opacity:1" fill="#4e901e" d="M 418.5,262.5 C 424.629,261.555 428.296,264.055 429.5,270C 428.649,274.349 425.982,276.849 421.5,277.5C 415.351,276.185 413.185,272.518 415,266.5C 416.376,265.295 417.542,263.962 418.5,262.5 Z"/></g>
<g><path style="opacity:1" fill="#050403" d="M 320.5,305.5 C 324.058,310.624 326.558,316.29 328,322.5C 328.937,327.403 328.27,332.07 326,336.5C 319.389,345.374 310.889,347.707 300.5,343.5C 295.26,340.87 290.26,337.704 285.5,334C 275.131,325.478 268.797,314.645 266.5,301.5C 270.175,286.493 279.509,280.993 294.5,285C 304.547,290.177 313.214,297.011 320.5,305.5 Z"/></g>
<g><path style="opacity:1" fill="#040403" d="M 187.5,283.5 C 200.877,282.159 208.543,287.993 210.5,301C 209.806,311.218 205.973,320.052 199,327.5C 191.546,335.473 182.712,341.307 172.5,345C 161.698,346.684 154.198,342.517 150,332.5C 149.161,327.079 149.494,321.746 151,316.5C 158.979,300.679 171.146,289.679 187.5,283.5 Z"/></g>
<g><path style="opacity:1" fill="#4d8f1d" d="M 388.5,289.5 C 405.654,290.833 423.154,291.5 441,291.5C 458.905,291.494 476.739,291.16 494.5,290.5C 480.629,348.537 444.296,382.704 385.5,393C 359.167,393.667 332.833,393.667 306.5,393C 349.258,370.739 376.592,336.239 388.5,289.5 Z"/></g>
<g><path style="opacity:1" fill="#67543b" d="M 190.5,298.5 C 193.59,297.83 195.257,298.997 195.5,302C 191.147,314.361 183.147,323.694 171.5,330C 165.498,330.993 163.332,328.493 165,322.5C 171.151,311.845 179.651,303.845 190.5,298.5 Z"/></g>
<g><path style="opacity:1" fill="#67533b" d="M 283.5,298.5 C 297.484,302.31 307.317,310.976 313,324.5C 313.825,326.701 313.325,328.534 311.5,330C 308.581,330.552 305.914,329.885 303.5,328C 294.953,322.453 288.12,315.287 283,306.5C 282.278,303.739 282.445,301.073 283.5,298.5 Z"/></g>
<g><path style="opacity:1" fill="#050403" d="M 225.5,351.5 C 227.527,351.338 229.527,351.505 231.5,352C 233.5,354.333 235.5,356.667 237.5,359C 239.367,359.711 240.867,359.211 242,357.5C 247.613,345.342 247.946,333.008 243,320.5C 237.409,317.031 234.075,318.698 233,325.5C 232.161,330.227 231.161,334.894 230,339.5C 228.512,341.16 226.679,342.16 224.5,342.5C 220.937,342.375 218.437,340.708 217,337.5C 216.309,328.699 217.975,320.365 222,312.5C 230.957,300.839 241.291,299.505 253,308.5C 261.468,321.709 263.802,336.042 260,351.5C 258.782,361.461 253.948,368.961 245.5,374C 232.584,376.386 224.251,371.386 220.5,359C 220.318,355.18 221.985,352.68 225.5,351.5 Z"/></g>
<g><path style="opacity:1" fill="#47821c" d="M 459.5,308.5 C 464.492,308.495 467.825,310.828 469.5,315.5C 467.666,321.334 464.666,326.5 460.5,331C 454.755,331.96 451.088,329.626 449.5,324C 451.477,317.859 454.811,312.692 459.5,308.5 Z"/></g>
<g><path style="opacity:1" fill="#67533b" d="M 225.5,351.5 C 225.037,348.518 224.704,345.518 224.5,342.5C 226.679,342.16 228.512,341.16 230,339.5C 231.161,334.894 232.161,330.227 233,325.5C 234.075,318.698 237.409,317.031 243,320.5C 247.946,333.008 247.613,345.342 242,357.5C 240.867,359.211 239.367,359.711 237.5,359C 235.5,356.667 233.5,354.333 231.5,352C 229.527,351.505 227.527,351.338 225.5,351.5 Z"/></g>
<g><path style="opacity:1" fill="#47821c" d="M 440.5,333.5 C 448.775,332.706 451.942,336.373 450,344.5C 433.939,361.284 414.439,371.95 391.5,376.5C 384.897,375.647 382.73,371.98 385,365.5C 385.374,364.584 385.874,363.75 386.5,363C 407.375,358.069 425.375,348.236 440.5,333.5 Z"/></g>
</svg>
