<?xml version="1.0" encoding="UTF-8"?>
<!DOCTYPE svg PUBLIC "-//W3C//DTD SVG 1.1//EN" "http://www.w3.org/Graphics/SVG/1.1/DTD/svg11.dtd">
<svg xmlns="http://www.w3.org/2000/svg" version="1.1" width="512px" height="512px" style="shape-rendering:geometricPrecision; text-rendering:geometricPrecision; image-rendering:optimizeQuality; fill-rule:evenodd; clip-rule:evenodd" xmlns:xlink="http://www.w3.org/1999/xlink">
<g><path style="opacity:0.962" fill="#010201" d="M 228.5,-0.5 C 238.167,-0.5 247.833,-0.5 257.5,-0.5C 261.693,0.713511 266.026,1.88018 270.5,3C 272.871,4.74324 274.205,7.07657 274.5,10C 259.061,54.5797 228.061,81.2464 181.5,90C 171.452,91.2825 161.452,91.7825 151.5,91.5C 153.373,98.0324 154.54,104.699 155,111.5C 166.087,114.249 175.421,119.916 183,128.5C 190.662,141.827 200.162,153.66 211.5,164C 236.765,179.265 256.599,199.765 271,225.5C 281.267,216.565 292.1,208.398 303.5,201C 313.204,191.3 321.371,180.467 328,168.5C 345.177,150.199 365.011,146.699 387.5,158C 397.809,165.447 405.642,174.947 411,186.5C 421.661,199.239 434.161,209.739 448.5,218C 487.532,252.913 507.532,296.746 508.5,349.5C 508.414,383.774 499.914,415.774 483,445.5C 459.425,483.208 425.592,505.208 381.5,511.5C 369.833,511.5 358.167,511.5 346.5,511.5C 298.723,504.526 263.223,479.86 240,437.5C 208.539,464.499 172.039,475.666 130.5,471C 73.9157,462.749 35.4157,431.916 15,378.5C -0.299103,333.817 -0.299103,289.15 15,244.5C 29.2033,208.97 52.7033,181.47 85.5,162C 96.6927,150.814 106.359,138.48 114.5,125C 121.259,118.454 129.259,114.287 138.5,112.5C 137.073,91.6505 129.573,73.3172 116,57.5C 114.601,48.1295 118.434,44.6295 127.5,47C 131.714,51.5455 135.547,56.3788 139,61.5C 159.143,26.8594 188.976,6.19269 228.5,-0.5 Z"/></g>
<g><path style="opacity:1" fill="#76c0a2" d="M 254.5,18.5 C 254.44,17.9569 254.107,17.6236 253.5,17.5C 219.833,36.3333 186.167,55.1667 152.5,74C 153.056,74.3826 153.389,74.8826 153.5,75.5C 152.325,75.719 151.325,75.3857 150.5,74.5C 166.998,41.1895 193.665,21.3562 230.5,15C 239.208,14.2478 247.875,14.5811 256.5,16C 255.934,16.9947 255.267,17.828 254.5,18.5 Z"/></g>
<g><path style="opacity:1" fill="#94d5a3" d="M 254.5,18.5 C 239.868,48.2713 216.202,66.7713 183.5,74C 173.545,75.2952 163.545,75.7952 153.5,75.5C 153.389,74.8826 153.056,74.3826 152.5,74C 186.167,55.1667 219.833,36.3333 253.5,17.5C 254.107,17.6236 254.44,17.9569 254.5,18.5 Z"/></g>
<g><path style="opacity:1" fill="#e0f486" d="M 232.5,420.5 C 220.871,425.995 208.538,429.495 195.5,431C 118.555,434.269 69.7216,398.769 49,324.5C 37.9499,280.988 42.4499,239.321 62.5,199.5C 72.7088,190.052 83.7088,181.552 95.5,174C 106.238,164.271 115.071,153.104 122,140.5C 137.635,122.57 153.969,121.903 171,138.5C 179.334,152.499 189.5,164.999 201.5,176C 227.055,190.887 246.388,211.554 259.5,238C 223.541,284.516 212.041,336.683 225,394.5C 227.406,403.214 229.906,411.881 232.5,420.5 Z"/></g>
<g><path style="opacity:1" fill="#faf2d4" d="M 358.5,166.5 C 371.089,165.878 381.256,170.544 389,180.5C 396.265,193.441 405.432,204.941 416.5,215C 460.918,241.953 486.085,281.453 492,333.5C 495.03,373.035 486.363,409.702 466,443.5C 436.92,482.992 397.754,500.492 348.5,496C 301.535,489.037 268.368,463.87 249,420.5C 234.99,385.532 231.656,349.532 239,312.5C 249.795,268.72 274.628,235.554 313.5,213C 323.865,202.64 332.699,191.14 340,178.5C 345.037,172.606 351.204,168.606 358.5,166.5 Z"/></g>
<g><path style="opacity:1" fill="#050403" d="M 390.5,223.5 C 387.741,225.293 384.741,225.793 381.5,225C 377.12,220.289 373.12,215.289 369.5,210C 366.332,207.367 362.998,207.033 359.5,209C 346.322,227.514 329.989,242.514 310.5,254C 277.298,283.278 263.132,320.111 268,364.5C 270.116,388.186 277.783,409.852 291,429.5C 291.793,432.741 291.293,435.741 289.5,438.5C 286.555,439.468 283.555,439.634 280.5,439C 264.859,417.758 255.693,393.925 253,367.5C 247.626,317.12 263.792,275.287 301.5,242C 318.81,232.692 332.977,219.859 344,203.5C 353.932,192.321 365.432,190.488 378.5,198C 383.363,203.563 387.863,209.396 392,215.5C 392.446,218.333 391.946,220.999 390.5,223.5 Z"/></g>
<g><path style="opacity:1" fill="#cbe994" d="M 62.5,199.5 C 42.4499,239.321 37.9499,280.988 49,324.5C 69.7216,398.769 118.555,434.269 195.5,431C 208.538,429.495 220.871,425.995 232.5,420.5C 233.525,420.897 233.692,421.563 233,422.5C 212.75,441.871 188.583,453.038 160.5,456C 100.981,459.838 58.481,435.004 33,381.5C 13.7463,334.772 13.7463,288.105 33,241.5C 40.641,225.857 50.4743,211.857 62.5,199.5 Z"/></g>
<g><path style="opacity:1" fill="#fd999e" d="M 390.5,223.5 C 390.369,224.239 390.536,224.906 391,225.5C 395.694,229.365 400.194,233.365 404.5,237.5C 404.211,240.649 404.711,243.649 406,246.5C 441.839,271 460.006,305.167 460.5,349C 460.815,378.506 452.648,405.34 436,429.5C 414.105,456.021 385.939,467.521 351.5,464C 336.865,462.344 323.532,457.344 311.5,449C 307.851,448.037 304.518,448.537 301.5,450.5C 297.194,446.86 293.194,442.86 289.5,438.5C 291.293,435.741 291.793,432.741 291,429.5C 277.783,409.852 270.116,388.186 268,364.5C 263.132,320.111 277.298,283.278 310.5,254C 329.989,242.514 346.322,227.514 359.5,209C 362.998,207.033 366.332,207.367 369.5,210C 373.12,215.289 377.12,220.289 381.5,225C 384.741,225.793 387.741,225.293 390.5,223.5 Z"/></g>
<g><path style="opacity:1" fill="#050403" d="M 301.5,450.5 C 304.518,448.537 307.851,448.037 311.5,449C 323.532,457.344 336.865,462.344 351.5,464C 385.939,467.521 414.105,456.021 436,429.5C 452.648,405.34 460.815,378.506 460.5,349C 460.006,305.167 441.839,271 406,246.5C 404.711,243.649 404.211,240.649 404.5,237.5C 408.349,232.956 412.682,232.456 417.5,236C 449.436,258.649 468.269,289.483 474,328.5C 479.152,368.555 470.485,405.221 448,438.5C 422.847,469.121 390.347,482.621 350.5,479C 333.378,477.016 317.712,471.182 303.5,461.5C 300.36,458.331 299.693,454.664 301.5,450.5 Z"/></g>
<g><path style="opacity:1" fill="#0a0505" d="M 343.5,285.5 C 344.705,296.079 340.372,299.079 330.5,294.5C 327.991,291.638 326.324,288.305 325.5,284.5C 326.936,278.776 330.603,276.609 336.5,278C 339.067,280.396 341.4,282.896 343.5,285.5 Z"/></g>
<g><path style="opacity:1" fill="#080404" d="M 396.5,294.5 C 386.185,298.855 382.185,295.522 384.5,284.5C 386.5,282.028 388.833,279.862 391.5,278C 399.161,277.33 402.327,280.83 401,288.5C 399.668,290.66 398.168,292.66 396.5,294.5 Z"/></g>
<g><path style="opacity:1" fill="#fe7f86" d="M 384.5,284.5 C 382.185,295.522 386.185,298.855 396.5,294.5C 402.331,299.136 406.998,304.802 410.5,311.5C 407.313,313.35 404.147,315.35 401,317.5C 397.67,324.136 399.503,328.469 406.5,330.5C 409.665,329.415 412.665,328.082 415.5,326.5C 418.047,333.826 419.38,341.493 419.5,349.5C 410.842,348.327 407.008,351.994 408,360.5C 410.591,364.048 414.091,365.382 418.5,364.5C 417.969,369.959 416.802,375.292 415,380.5C 414.478,383.281 413.311,385.615 411.5,387.5C 408.249,384.423 404.415,382.423 400,381.5C 394.18,383.004 392.18,386.671 394,392.5C 396.747,395.754 399.914,398.42 403.5,400.5C 400.609,406.395 396.276,411.061 390.5,414.5C 388.617,412.602 386.617,410.769 384.5,409C 374.339,408.658 371.672,413.158 376.5,422.5C 368.852,423.43 361.185,423.597 353.5,423C 352.584,422.722 351.918,422.222 351.5,421.5C 355.314,412.477 352.314,408.31 342.5,409C 340.627,410.704 338.96,412.537 337.5,414.5C 331.572,411.574 326.906,407.241 323.5,401.5C 326.476,398.698 329.642,396.031 333,393.5C 335.816,386.799 333.649,382.799 326.5,381.5C 322.656,383.254 318.989,385.254 315.5,387.5C 312.102,380.262 309.769,372.596 308.5,364.5C 319.529,364.905 322.529,360.405 317.5,351C 314.312,349.684 310.978,349.184 307.5,349.5C 307.449,341.464 308.783,333.798 311.5,326.5C 314.489,327.814 317.489,329.147 320.5,330.5C 326.882,329.555 329.382,325.888 328,319.5C 324.701,316.449 321.201,313.782 317.5,311.5C 320.633,304.895 324.966,299.228 330.5,294.5C 340.372,299.079 344.705,296.079 343.5,285.5C 345.965,283.163 348.965,281.663 352.5,281C 363.593,278.34 374.26,279.506 384.5,284.5 Z"/></g>
<g><path style="opacity:1" fill="#080404" d="M 317.5,311.5 C 321.201,313.782 324.701,316.449 328,319.5C 329.382,325.888 326.882,329.555 320.5,330.5C 317.489,329.147 314.489,327.814 311.5,326.5C 308.821,324.399 305.988,322.399 303,320.5C 299.779,314.039 301.613,310.039 308.5,308.5C 311.605,309.221 314.605,310.221 317.5,311.5 Z"/></g>
<g><path style="opacity:1" fill="#080404" d="M 415.5,326.5 C 412.665,328.082 409.665,329.415 406.5,330.5C 399.503,328.469 397.67,324.136 401,317.5C 404.147,315.35 407.313,313.35 410.5,311.5C 414.552,308.379 418.885,307.879 423.5,310C 426.097,312.317 426.93,315.15 426,318.5C 422.701,321.551 419.201,324.218 415.5,326.5 Z"/></g>
<g><path style="opacity:1" fill="#080404" d="M 307.5,349.5 C 310.978,349.184 314.312,349.684 317.5,351C 322.529,360.405 319.529,364.905 308.5,364.5C 303.489,364.666 298.489,364.499 293.5,364C 288.395,359.216 288.395,354.549 293.5,350C 298.155,349.501 302.821,349.334 307.5,349.5 Z"/></g>
<g><path style="opacity:1" fill="#040202" d="M 419.5,349.5 C 424.179,349.334 428.845,349.501 433.5,350C 438.823,354.714 438.823,359.38 433.5,364C 428.511,364.499 423.511,364.666 418.5,364.5C 414.091,365.382 410.591,364.048 408,360.5C 407.008,351.994 410.842,348.327 419.5,349.5 Z"/></g>
<g><path style="opacity:1" fill="#060303" d="M 411.5,387.5 C 414.438,389.934 417.271,392.601 420,395.5C 420.206,404.618 416.039,407.451 407.5,404C 406.295,402.624 404.962,401.458 403.5,400.5C 399.914,398.42 396.747,395.754 394,392.5C 392.18,386.671 394.18,383.004 400,381.5C 404.415,382.423 408.249,384.423 411.5,387.5 Z"/></g>
<g><path style="opacity:1" fill="#080404" d="M 323.5,401.5 C 320.764,403.783 317.597,405.116 314,405.5C 311.966,405.646 310.299,404.98 309,403.5C 307.543,400.634 307.21,397.634 308,394.5C 310.479,392.034 312.979,389.701 315.5,387.5C 318.989,385.254 322.656,383.254 326.5,381.5C 333.649,382.799 335.816,386.799 333,393.5C 329.642,396.031 326.476,398.698 323.5,401.5 Z"/></g>
<g><path style="opacity:1" fill="#0b0606" d="M 351.5,421.5 C 349.734,423.771 347.734,425.937 345.5,428C 339.122,430.486 335.122,428.319 333.5,421.5C 334.071,418.687 335.404,416.354 337.5,414.5C 338.96,412.537 340.627,410.704 342.5,409C 352.314,408.31 355.314,412.477 351.5,421.5 Z"/></g>
<g><path style="opacity:1" fill="#090404" d="M 390.5,414.5 C 394.445,419.003 394.445,423.503 390.5,428C 388.305,429.373 385.971,429.706 383.5,429C 381.297,426.628 378.963,424.461 376.5,422.5C 371.672,413.158 374.339,408.658 384.5,409C 386.617,410.769 388.617,412.602 390.5,414.5 Z"/></g>
</svg>
