<?xml version="1.0" encoding="UTF-8"?>
<!DOCTYPE svg PUBLIC "-//W3C//DTD SVG 1.1//EN" "http://www.w3.org/Graphics/SVG/1.1/DTD/svg11.dtd">
<svg xmlns="http://www.w3.org/2000/svg" version="1.1" width="512px" height="512px" style="shape-rendering:geometricPrecision; text-rendering:geometricPrecision; image-rendering:optimizeQuality; fill-rule:evenodd; clip-rule:evenodd" xmlns:xlink="http://www.w3.org/1999/xlink">
<g><path style="opacity:0.964" fill="#020100" d="M 25.5,-0.5 C 30.8333,-0.5 36.1667,-0.5 41.5,-0.5C 50.2039,2.36314 57.0372,7.69647 62,15.5C 64.8918,27.1735 67.8918,38.8401 71,50.5C 73.4026,57.6483 77.0693,63.9816 82,69.5C 89.2392,66.5433 96.7392,65.3766 104.5,66C 107.708,67.4373 109.375,69.9373 109.5,73.5C 108.609,75.2905 107.609,77.1239 106.5,79C 90.5725,80.465 77.2391,86.965 66.5,98.5C 54.6071,112.458 51.1071,128.458 56,146.5C 58.637,153.777 62.3036,160.444 67,166.5C 67.8061,171.06 65.9727,174.226 61.5,176C 55.4494,176.26 49.4494,176.927 43.5,178C 41.7888,179.133 41.2888,180.633 42,182.5C 51.422,187.461 60.922,192.294 70.5,197C 90.3849,198.118 100.218,188.618 100,168.5C 101.075,165.106 102.242,161.772 103.5,158.5C 110.221,146.621 120.221,138.788 133.5,135C 143.226,134.892 152.893,134.225 162.5,133C 172.408,127.351 176.574,118.851 175,107.5C 172.557,98.1739 169.724,89.0072 166.5,80C 164.888,79.2797 163.388,79.4464 162,80.5C 160,86.5 158,92.5 156,98.5C 152.627,101.886 148.794,102.386 144.5,100C 139.925,94.7538 134.758,90.2538 129,86.5C 127.182,83.5839 127.016,80.5839 128.5,77.5C 130.144,75.1484 132.477,73.8151 135.5,73.5C 139.538,74.6011 143.038,76.6011 146,79.5C 150.649,65.051 160.149,60.551 174.5,66C 177.762,68.592 180.262,71.7587 182,75.5C 183.525,81.6039 185.359,87.6039 187.5,93.5C 237.712,96.3395 275.879,119.006 302,161.5C 320.387,212.945 345.054,260.945 376,305.5C 396.844,335.483 419.844,363.817 445,390.5C 445.747,393.924 445.58,397.257 444.5,400.5C 441.594,401.751 438.594,402.251 435.5,402C 383.953,349.114 342.12,289.281 310,222.5C 304.111,208.721 298.778,194.721 294,180.5C 273.287,136.985 238.787,113.319 190.5,109.5C 190.313,130.736 179.98,143.903 159.5,149C 130.526,144.451 114.859,156.618 112.5,185.5C 104.075,206.885 88.4088,215.552 65.5,211.5C 61.5735,246.266 70.4068,277.266 92,304.5C 116.247,330.757 142.914,354.09 172,374.5C 173.724,377.736 173.89,381.07 172.5,384.5C 169.162,387.447 165.495,387.947 161.5,386C 129.62,364.463 101.12,338.963 76,309.5C 53.8288,277.815 45.3288,242.815 50.5,204.5C 43.0916,201.383 36.2583,197.383 30,192.5C 22.3743,175.751 27.5409,165.418 45.5,161.5C 35.9578,140.816 36.2911,120.316 46.5,100C 24.681,84.1748 9.84762,63.3414 2,37.5C -0.0479743,18.5766 7.78536,5.90991 25.5,-0.5 Z"/></g>
<g><path style="opacity:1" fill="#b8e86a" d="M 28.5,14.5 C 37.6426,13.1548 44.4759,16.4882 49,24.5C 51.002,43.5079 57.1686,61.0079 67.5,77C 63.3672,80.1311 59.5338,83.6311 56,87.5C 37.4112,74.0069 24.4112,56.3402 17,34.5C 16.1771,30.2616 16.8438,26.2616 19,22.5C 21.772,19.2166 24.9386,16.5499 28.5,14.5 Z"/></g>
<g><path style="opacity:0.999" fill="#b9ea6b" d="M 109.5,73.5 C 116.072,73.7265 122.405,75.0598 128.5,77.5C 127.016,80.5839 127.182,83.5839 129,86.5C 134.758,90.2538 139.925,94.7538 144.5,100C 148.794,102.386 152.627,101.886 156,98.5C 158,92.5 160,86.5 162,80.5C 163.388,79.4464 164.888,79.2797 166.5,80C 169.724,89.0072 172.557,98.1739 175,107.5C 176.574,118.851 172.408,127.351 162.5,133C 152.893,134.225 143.226,134.892 133.5,135C 120.221,138.788 110.221,146.621 103.5,158.5C 83.2121,144.627 71.5454,125.293 68.5,100.5C 68.2528,99.2867 67.5862,98.62 66.5,98.5C 77.2391,86.965 90.5725,80.465 106.5,79C 107.609,77.1239 108.609,75.2905 109.5,73.5 Z"/></g>
<g><path style="opacity:1" fill="#a0e32d" d="M 66.5,98.5 C 67.5862,98.62 68.2528,99.2867 68.5,100.5C 71.5454,125.293 83.2121,144.627 103.5,158.5C 102.242,161.772 101.075,165.106 100,168.5C 100.218,188.618 90.3849,198.118 70.5,197C 60.922,192.294 51.422,187.461 42,182.5C 41.2888,180.633 41.7888,179.133 43.5,178C 49.4494,176.927 55.4494,176.26 61.5,176C 65.9727,174.226 67.8061,171.06 67,166.5C 62.3036,160.444 58.637,153.777 56,146.5C 51.1071,128.458 54.6071,112.458 66.5,98.5 Z"/></g>
<g><path style="opacity:1" fill="#fd636e" d="M 444.5,400.5 C 448.5,405.167 452.833,409.5 457.5,413.5C 455.132,417.052 454.965,420.719 457,424.5C 465.876,432.378 475.043,439.878 484.5,447C 495.616,458.03 497.282,470.197 489.5,483.5C 402.494,453.338 322.161,411.171 248.5,357C 201.826,321.335 163.326,278.502 133,228.5C 125.573,214.318 118.74,199.985 112.5,185.5C 114.859,156.618 130.526,144.451 159.5,149C 179.98,143.903 190.313,130.736 190.5,109.5C 238.787,113.319 273.287,136.985 294,180.5C 298.778,194.721 304.111,208.721 310,222.5C 342.12,289.281 383.953,349.114 435.5,402C 438.594,402.251 441.594,401.751 444.5,400.5 Z"/></g>
<g><path style="opacity:1" fill="#fb4654" d="M 112.5,185.5 C 118.74,199.985 125.573,214.318 133,228.5C 163.326,278.502 201.826,321.335 248.5,357C 322.161,411.171 402.494,453.338 489.5,483.5C 483.877,491.982 475.877,496.315 465.5,496.5C 370.062,476.527 280.728,441.36 197.5,391C 195.833,390.333 194.167,390.333 192.5,391C 191.211,392.802 189.544,393.969 187.5,394.5C 182.709,390.932 177.709,387.598 172.5,384.5C 173.89,381.07 173.724,377.736 172,374.5C 142.914,354.09 116.247,330.757 92,304.5C 70.4068,277.266 61.5735,246.266 65.5,211.5C 88.4088,215.552 104.075,206.885 112.5,185.5 Z"/></g>
<g><path style="opacity:0.957" fill="#020000" d="M 489.5,483.5 C 497.282,470.197 495.616,458.03 484.5,447C 475.043,439.878 465.876,432.378 457,424.5C 454.965,420.719 455.132,417.052 457.5,413.5C 460.137,411.573 463.137,411.073 466.5,412C 475.875,420.377 485.542,428.377 495.5,436C 510.776,452.142 513.609,470.308 504,490.5C 497.151,501.193 487.651,508.193 475.5,511.5C 469.167,511.5 462.833,511.5 456.5,511.5C 367.427,490.968 283.094,458.135 203.5,413C 198.581,409.958 193.748,406.791 189,403.5C 187.711,400.649 187.211,397.649 187.5,394.5C 189.544,393.969 191.211,392.802 192.5,391C 194.167,390.333 195.833,390.333 197.5,391C 280.728,441.36 370.062,476.527 465.5,496.5C 475.877,496.315 483.877,491.982 489.5,483.5 Z"/></g>
</svg>
