<?xml version="1.0" encoding="UTF-8"?>
<!DOCTYPE svg PUBLIC "-//W3C//DTD SVG 1.1//EN" "http://www.w3.org/Graphics/SVG/1.1/DTD/svg11.dtd">
<svg xmlns="http://www.w3.org/2000/svg" version="1.1" width="512px" height="512px" style="shape-rendering:geometricPrecision; text-rendering:geometricPrecision; image-rendering:optimizeQuality; fill-rule:evenodd; clip-rule:evenodd" xmlns:xlink="http://www.w3.org/1999/xlink">
<g><path style="opacity:0.977" fill="#010201" d="M 219.5,24.5 C 219.567,25.9587 219.234,27.2921 218.5,28.5C 218.047,29.4584 217.381,30.2917 216.5,31C 186.399,37.4354 167.899,55.6021 161,85.5C 160.333,114.5 160.333,143.5 161,172.5C 173.178,158.176 188.678,150.176 207.5,148.5C 225.836,148.667 244.17,148.5 262.5,148C 278.009,144.491 287.509,134.991 291,119.5C 294.642,98.0531 290.976,78.0531 280,59.5C 269.148,44.6632 254.648,35.4966 236.5,32C 233.72,30.0867 232.053,27.5867 231.5,24.5C 231.933,21.8045 233.266,19.6379 235.5,18C 241.339,17.1506 247.005,17.8173 252.5,20C 273.514,28.0143 289.181,42.0143 299.5,62C 312.833,62.3333 326.167,62.6667 339.5,63C 352.366,67.5429 358.033,76.7096 356.5,90.5C 358.05,104.25 352.383,113.417 339.5,118C 328.505,118.5 317.505,118.667 306.5,118.5C 305.318,129.219 301.318,138.719 294.5,147C 346.244,148.676 397.244,155.676 447.5,168C 463.745,172.191 479.078,178.524 493.5,187C 501.726,192 507.726,198.834 511.5,207.5C 511.5,285.167 511.5,362.833 511.5,440.5C 506.924,449.233 499.924,455.399 490.5,459C 441.431,477.081 390.765,487.747 338.5,491C 256.004,498.007 174.004,494.34 92.5,480C 69.8109,474.881 47.4776,468.548 25.5,461C 14.2022,457.222 5.53552,450.388 -0.5,440.5C -0.5,419.833 -0.5,399.167 -0.5,378.5C 1.01439,375.905 3.34772,374.571 6.5,374.5C 9.78719,375.055 12.2872,376.722 14,379.5C 14.0243,398.923 14.691,418.256 16,437.5C 21.4675,442.153 27.6342,445.653 34.5,448C 91.3093,466.746 149.643,476.746 209.5,478C 259.287,479.716 308.953,478.216 358.5,473.5C 401.422,469.348 443.088,459.848 483.5,445C 488.553,442.902 492.72,439.735 496,435.5C 496.667,370.167 496.667,304.833 496,239.5C 480.478,249.181 463.978,256.514 446.5,261.5C 407.339,270.642 367.673,276.475 327.5,279C 286.544,281.832 245.544,282.832 204.5,282C 163.114,279.029 122.114,273.362 81.5,265C 57.5986,260.814 35.432,252.314 15,239.5C 14.6667,278.5 14.3333,317.5 14,356.5C 12.4583,359.892 9.95832,361.892 6.5,362.5C 3.70516,361.937 1.37183,360.604 -0.5,358.5C -0.5,308.167 -0.5,257.833 -0.5,207.5C 4.32439,197.048 11.9911,189.214 22.5,184C 44.7893,173.259 68.1227,165.592 92.5,161C 109.397,157.681 126.397,155.015 143.5,153C 144.093,129.547 144.927,106.047 146,82.5C 153.702,46.7983 175.368,25.1316 211,17.5C 216.35,16.9111 219.184,19.2445 219.5,24.5 Z M 306.5,78.5 C 316.506,78.3335 326.506,78.5002 336.5,79C 339.993,81.9639 341.326,85.7972 340.5,90.5C 341.326,95.2028 339.993,99.0361 336.5,102C 326.506,102.5 316.506,102.666 306.5,102.5C 306.5,94.5 306.5,86.5 306.5,78.5 Z"/></g>
<g><path style="opacity:1" fill="#c8c8c8" d="M 219.5,24.5 C 223.5,24.5 227.5,24.5 231.5,24.5C 232.053,27.5867 233.72,30.0867 236.5,32C 254.648,35.4966 269.148,44.6632 280,59.5C 290.976,78.0531 294.642,98.0531 291,119.5C 287.509,134.991 278.009,144.491 262.5,148C 244.17,148.5 225.836,148.667 207.5,148.5C 221.994,147.669 236.661,147.169 251.5,147C 261.3,139.574 267.133,129.741 269,117.5C 273.319,92.405 267.986,69.7383 253,49.5C 243.889,38.5512 232.389,31.5512 218.5,28.5C 219.234,27.2921 219.567,25.9587 219.5,24.5 Z"/></g>
<g><path style="opacity:1" fill="#e7e7e7" d="M 218.5,28.5 C 232.389,31.5512 243.889,38.5512 253,49.5C 267.986,69.7383 273.319,92.405 269,117.5C 267.133,129.741 261.3,139.574 251.5,147C 236.661,147.169 221.994,147.669 207.5,148.5C 188.678,150.176 173.178,158.176 161,172.5C 160.333,143.5 160.333,114.5 161,85.5C 167.899,55.6021 186.399,37.4354 216.5,31C 217.381,30.2917 218.047,29.4584 218.5,28.5 Z"/></g>
<g><path style="opacity:1" fill="#bcbcbc" d="M 358.5,167.5 C 374.07,171.814 389.737,176.314 405.5,181C 420.29,185.306 433.123,192.806 444,203.5C 448.611,210.805 448.611,218.138 444,225.5C 436.198,233.625 427.031,239.792 416.5,244C 395.766,251.594 374.766,257.761 353.5,262.5C 320.22,265.183 286.887,266.85 253.5,267.5C 234.452,267.72 215.452,266.886 196.5,265C 169.963,254.112 158.129,234.278 161,205.5C 166.726,184.107 180.226,170.274 201.5,164C 253.95,160.913 306.283,162.079 358.5,167.5 Z"/></g>
<g><path style="opacity:1" fill="#5c5c5c" d="M 143.5,260.5 C 143.938,260.565 144.272,260.399 144.5,260C 135.029,251.857 128.862,241.69 126,229.5C 126.157,209.807 125.324,190.474 123.5,171.5C 130.619,169.928 137.953,168.928 145.5,168.5C 145.087,188.869 145.587,209.203 147,229.5C 149.577,242.157 155.41,252.99 164.5,262C 157.32,262.229 150.32,261.729 143.5,260.5 Z"/></g>
<g><path style="opacity:1" fill="#a4a4a4" d="M 358.5,167.5 C 393.601,171.153 427.935,178.32 461.5,189C 474.522,192.922 485.688,199.755 495,209.5C 497.263,214.256 496.597,218.589 493,222.5C 482.327,231.627 470.16,238.127 456.5,242C 422.828,251.968 388.494,258.801 353.5,262.5C 374.766,257.761 395.766,251.594 416.5,244C 427.031,239.792 436.198,233.625 444,225.5C 448.611,218.138 448.611,210.805 444,203.5C 433.123,192.806 420.29,185.306 405.5,181C 389.737,176.314 374.07,171.814 358.5,167.5 Z"/></g>
<g><path style="opacity:1" fill="#7c7c7c" d="M 123.5,171.5 C 125.324,190.474 126.157,209.807 126,229.5C 128.862,241.69 135.029,251.857 144.5,260C 144.272,260.399 143.938,260.565 143.5,260.5C 113.885,257.675 84.8854,251.841 56.5,243C 43.1646,238.5 30.8313,232.166 19.5,224C 14.6423,220.002 13.4756,215.169 16,209.5C 23.1967,201.814 31.6967,195.981 41.5,192C 67.9693,181.716 95.3026,174.883 123.5,171.5 Z"/></g>
<g><path style="opacity:1" fill="#73c16b" d="M 446.5,261.5 C 447.833,290.326 448.5,319.492 448.5,349C 448.333,378.167 448.167,407.333 448,436.5C 443.246,444.476 436.412,449.976 427.5,453C 404.516,460.613 381.516,467.446 358.5,473.5C 308.953,478.216 259.287,479.716 209.5,478C 149.643,476.746 91.3093,466.746 34.5,448C 27.6342,445.653 21.4675,442.153 16,437.5C 14.691,418.256 14.0243,398.923 14,379.5C 12.2872,376.722 9.78719,375.055 6.5,374.5C 6.5,370.5 6.5,366.5 6.5,362.5C 9.95832,361.892 12.4583,359.892 14,356.5C 14.3333,317.5 14.6667,278.5 15,239.5C 35.432,252.314 57.5986,260.814 81.5,265C 122.114,273.362 163.114,279.029 204.5,282C 245.544,282.832 286.544,281.832 327.5,279C 367.673,276.475 407.339,270.642 446.5,261.5 Z"/></g>
<g><path style="opacity:1" fill="#5c9b56" d="M 358.5,473.5 C 381.516,467.446 404.516,460.613 427.5,453C 436.412,449.976 443.246,444.476 448,436.5C 448.167,407.333 448.333,378.167 448.5,349C 448.5,319.492 447.833,290.326 446.5,261.5C 463.978,256.514 480.478,249.181 496,239.5C 496.667,304.833 496.667,370.167 496,435.5C 492.72,439.735 488.553,442.902 483.5,445C 443.088,459.848 401.422,469.348 358.5,473.5 Z"/></g>
<g><path style="opacity:1" fill="#030402" d="M 240.5,296.5 C 282.33,292.323 312.83,308.657 332,345.5C 345.615,382.098 338.781,414.265 311.5,442C 285.047,463.187 255.714,468.187 223.5,457C 185.166,438.181 168.333,407.348 173,364.5C 181.677,327.99 204.177,305.323 240.5,296.5 Z"/></g>
<g><path style="opacity:1" fill="#f5e09a" d="M 241.5,311.5 C 283.163,307.899 310.33,325.899 323,365.5C 327.249,399.837 314.415,425.337 284.5,442C 249.516,455.112 220.683,446.945 198,417.5C 178.902,382.589 184.068,351.756 213.5,325C 222.263,319.117 231.597,314.617 241.5,311.5 Z"/></g>
<g><path style="opacity:1" fill="#000000" d="M 249.5,344.5 C 271.648,342.831 286.148,352.497 293,373.5C 295.399,391.091 288.899,404.258 273.5,413C 247.541,421.69 230.041,413.19 221,387.5C 219.509,365.8 229.009,351.467 249.5,344.5 Z"/></g>
<g><path style="opacity:1" fill="#73c26b" d="M 252.5,354.5 C 273.159,353.993 283.326,363.993 283,384.5C 278.911,400.139 268.745,407.305 252.5,406C 237.169,402.188 230.003,392.355 231,376.5C 233.347,364.321 240.514,356.988 252.5,354.5 Z"/></g>
</svg>
