<?xml version="1.0" encoding="UTF-8"?>
<!DOCTYPE svg PUBLIC "-//W3C//DTD SVG 1.1//EN" "http://www.w3.org/Graphics/SVG/1.1/DTD/svg11.dtd">
<svg xmlns="http://www.w3.org/2000/svg" version="1.1" width="512px" height="512px" style="shape-rendering:geometricPrecision; text-rendering:geometricPrecision; image-rendering:optimizeQuality; fill-rule:evenodd; clip-rule:evenodd" xmlns:xlink="http://www.w3.org/1999/xlink">
<g><path style="opacity:0.977" fill="#000100" d="M 270.5,401.5 C 269.209,401.263 268.209,401.596 267.5,402.5C 266.508,402.328 265.842,402.662 265.5,403.5C 264.508,403.328 263.842,403.662 263.5,404.5C 209.285,430.11 152.285,441.277 92.5,438C 81.1924,431.774 77.0257,422.274 80,409.5C 81.6019,404.123 84.7685,399.956 89.5,397C 113.518,384.666 136.184,370.333 157.5,354C 160.38,345.406 164.213,337.239 169,329.5C 177.611,318.777 188.777,312.61 202.5,311C 206.356,306.645 210.023,302.145 213.5,297.5C 212.998,296.479 212.332,296.312 211.5,297C 192.245,310.295 171.578,320.962 149.5,329C 101.639,342.067 56.3055,336.067 13.5,311C 6.93329,302.948 5.76662,294.115 10,284.5C 11.5,281.667 13.6667,279.5 16.5,278C 27.6156,273.609 38.6156,268.942 49.5,264C 73.6829,238.962 102.016,232.962 134.5,246C 138.594,246.767 142.594,246.434 146.5,245C 152.308,236.856 159.641,230.523 168.5,226C 170.788,225.178 173.122,224.511 175.5,224C 181.859,223.831 188.193,223.331 194.5,222.5C 213.917,189.296 242.917,170.796 281.5,167C 284.95,152.753 292.616,141.42 304.5,133C 310.321,130.338 316.321,128.171 322.5,126.5C 336.502,102.33 356.502,85.1637 382.5,75C 396.624,70.7751 410.958,67.4417 425.5,65C 435.095,49.8075 445.429,35.1408 456.5,21C 467.932,14.0577 479.599,13.7243 491.5,20C 502.506,29.0188 506.34,40.5188 503,54.5C 500.429,65.739 494.595,74.9056 485.5,82C 472.333,91.8333 459.167,101.667 446,111.5C 446.215,153.64 436.548,193.307 417,230.5C 407.667,244.5 398.333,258.5 389,272.5C 379.078,291.344 369.411,310.344 360,329.5C 350.944,343.889 339.777,356.389 326.5,367C 308.606,379.779 289.939,391.279 270.5,401.5 Z"/></g>
<g><path style="opacity:1" fill="#87c481" d="M 486.5,40.5 C 485.725,48.5497 482.392,55.383 476.5,61C 466.91,68.0451 457.41,75.2118 448,82.5C 447.503,80.1902 447.337,77.8568 447.5,75.5C 447.585,71.6025 447.085,67.9358 446,64.5C 452.709,54.2471 459.543,44.0804 466.5,34C 471.803,30.754 477.137,30.754 482.5,34C 484.734,35.6379 486.067,37.8045 486.5,40.5 Z"/></g>
<g><path style="opacity:1" fill="#67ad62" d="M 486.5,40.5 C 488.279,51.3167 484.946,60.4834 476.5,68C 466.692,74.9739 457.026,82.1406 447.5,89.5C 446.188,84.6819 446.188,80.0152 447.5,75.5C 447.337,77.8568 447.503,80.1902 448,82.5C 457.41,75.2118 466.91,68.0451 476.5,61C 482.392,55.383 485.725,48.5497 486.5,40.5 Z"/></g>
<g><path style="opacity:1" fill="#4d9d49" d="M 24.5,293.5 C 45.3146,305.656 67.9812,311.656 92.5,311.5C 120.27,311.451 146.27,304.618 170.5,291C 200.362,273.793 229.695,255.793 258.5,237C 318.084,195.416 369.084,145.083 411.5,86C 410.552,85.5172 409.552,85.3505 408.5,85.5C 412.564,84.6449 416.731,83.6449 421,82.5C 421.5,82.8333 422,83.1667 422.5,83.5C 372.055,157.113 309.055,217.613 233.5,265C 213.668,276.415 194.002,288.081 174.5,300C 124.703,326.302 75.0363,325.968 25.5,299C 23.4468,297.322 23.1134,295.489 24.5,293.5 Z"/></g>
<g><path style="opacity:1" fill="#6ab465" d="M 408.5,85.5 C 409.552,85.3505 410.552,85.5172 411.5,86C 369.084,145.083 318.084,195.416 258.5,237C 229.695,255.793 200.362,273.793 170.5,291C 146.27,304.618 120.27,311.451 92.5,311.5C 67.9812,311.656 45.3146,305.656 24.5,293.5C 25.0577,292.21 26.0577,291.377 27.5,291C 37.9959,287.057 48.3293,282.723 58.5,278C 64.7921,273.377 70.7921,268.377 76.5,263C 86.9118,256.231 98.2451,253.897 110.5,256C 117.895,258.132 125.228,260.465 132.5,263C 141.893,264.055 150.56,262.055 158.5,257C 163.209,250.624 168.875,245.291 175.5,241C 185.167,240 194.833,239 204.5,238C 222.867,202.332 252.2,183.666 292.5,182C 296.61,172.346 301.11,162.846 306,153.5C 313.269,146.184 322.102,142.351 332.5,142C 348.302,110.366 373.636,91.5331 408.5,85.5 Z"/></g>
<g><path style="opacity:1" fill="#3b8336" d="M 412.5,123.5 C 413.573,124.251 413.74,125.251 413,126.5C 404.587,152.317 393.754,176.983 380.5,200.5C 374.333,193.915 366.999,189.082 358.5,186C 378.204,166.475 396.204,145.642 412.5,123.5 Z"/></g>
<g><path style="opacity:1" fill="#2a6523" d="M 426.5,133.5 C 425.7,168.662 415.866,201.328 397,231.5C 389.173,241.819 381.839,252.486 375,263.5C 365.078,282.344 355.411,301.344 346,320.5C 336.925,335.576 325.091,348.076 310.5,358C 273.946,383.61 233.946,401.61 190.5,412C 294.203,356.627 369.037,274.794 415,166.5C 419.412,155.681 423.246,144.681 426.5,133.5 Z"/></g>
<g><path style="opacity:1" fill="#a5d69f" d="M 342.5,261.5 C 331.727,258.03 323.561,251.363 318,241.5C 316.042,236.671 314.876,231.671 314.5,226.5C 324.306,217.532 334.306,208.699 344.5,200C 356.144,200.404 364.977,205.57 371,215.5C 371.667,216.5 371.667,217.5 371,218.5C 362.47,233.585 352.97,247.919 342.5,261.5 Z"/></g>
<g><path style="opacity:1" fill="#68af63" d="M 314.5,226.5 C 314.876,231.671 316.042,236.671 318,241.5C 323.561,251.363 331.727,258.03 342.5,261.5C 342.038,262.88 341.038,263.547 339.5,263.5C 325.213,260.777 316.046,252.444 312,238.5C 311.333,235.167 311.333,231.833 312,228.5C 312.708,227.619 313.542,226.953 314.5,226.5 Z"/></g>
<g><path style="opacity:1" fill="#397e34" d="M 295.5,240.5 C 298.201,249.728 302.867,257.895 309.5,265C 304.795,262.486 299.795,260.153 294.5,258C 288.55,256.721 282.55,255.721 276.5,255C 283.303,250.687 289.636,245.853 295.5,240.5 Z"/></g>
<g><path style="opacity:1" fill="#a5d69f" d="M 276.5,333.5 C 258.244,328.013 248.911,315.679 248.5,296.5C 251.574,283.592 259.574,275.425 272.5,272C 290.336,269.998 302.836,277.165 310,293.5C 310.667,296.167 310.667,298.833 310,301.5C 299.267,312.735 288.101,323.402 276.5,333.5 Z"/></g>
<g><path style="opacity:1" fill="#387b33" d="M 313.5,270.5 C 313.56,269.957 313.893,269.624 314.5,269.5C 318.721,272.778 323.388,275.278 328.5,277C 329.451,277.718 329.617,278.551 329,279.5C 327.304,281.566 325.471,283.066 323.5,284C 320.999,278.808 317.666,274.308 313.5,270.5 Z"/></g>
<g><path style="opacity:1" fill="#377a33" d="M 230.5,301.5 C 231.643,307.093 232.976,312.76 234.5,318.5C 234.167,318.833 233.833,319.167 233.5,319.5C 229.984,317.242 226.318,315.242 222.5,313.5C 225.611,309.736 228.277,305.736 230.5,301.5 Z"/></g>
<g><path style="opacity:1" fill="#67aa62" d="M 248.5,296.5 C 248.911,315.679 258.244,328.013 276.5,333.5C 268.145,334.093 260.979,331.093 255,324.5C 248.257,316.082 246.091,306.749 248.5,296.5 Z"/></g>
<g><path style="opacity:1" fill="#a5d69f" d="M 199.5,388.5 C 184.563,381.215 176.897,369.215 176.5,352.5C 179.574,339.592 187.574,331.425 200.5,328C 225.876,326.38 238.709,338.213 239,363.5C 226.466,372.874 213.299,381.207 199.5,388.5 Z"/></g>
<g><path style="opacity:1" fill="#377b33" d="M 253.5,344.5 C 260.655,345.766 261.155,348.099 255,351.5C 254.338,349.187 253.838,346.854 253.5,344.5 Z"/></g>
<g><path style="opacity:1" fill="#68ac63" d="M 176.5,352.5 C 176.897,369.215 184.563,381.215 199.5,388.5C 199.083,389.124 198.416,389.457 197.5,389.5C 180.857,382.539 173.857,370.206 176.5,352.5 Z"/></g>
<g><path style="opacity:0.966" fill="#000100" d="M 437.5,367.5 C 467.16,364.564 486.326,377.231 495,405.5C 498.421,435.18 485.921,454.346 457.5,463C 448.732,463.962 440.065,463.462 431.5,461.5C 428.043,463.063 424.71,464.896 421.5,467C 394.735,477.409 373.235,470.909 357,447.5C 346.127,423.551 350.293,402.717 369.5,385C 383.573,375.354 398.906,372.854 415.5,377.5C 422.451,373.189 429.785,369.856 437.5,367.5 Z"/></g>
<g><path style="opacity:1" fill="#3c8537" d="M 159.5,372.5 C 160.496,372.414 161.329,372.748 162,373.5C 165.354,384.042 171.521,392.542 180.5,399C 164.124,408.021 147.124,415.688 129.5,422C 119.522,423.221 109.522,423.554 99.5,423C 94.6789,419.399 94.3455,415.399 98.5,411C 120.248,400.142 140.581,387.308 159.5,372.5 Z"/></g>
<g><path style="opacity:1" fill="#a4d49e" d="M 454.5,446.5 C 437.823,446.325 425.99,438.659 419,423.5C 416.967,418.705 416.134,413.705 416.5,408.5C 419.574,395.592 427.574,387.425 440.5,384C 467.333,382.833 480.167,395.667 479,422.5C 475.584,435.417 467.417,443.417 454.5,446.5 Z"/></g>
<g><path style="opacity:1" fill="#69b264" d="M 392.5,391.5 C 396.884,391.174 401.217,391.508 405.5,392.5C 395.365,414.322 398.698,433.822 415.5,451C 392.584,460.457 376.75,453.623 368,430.5C 366.067,411.012 374.234,398.012 392.5,391.5 Z"/></g>
<g><path style="opacity:1" fill="#030503" d="M 436.5,394.5 C 438.932,395.75 441.266,397.25 443.5,399C 449.087,399.958 453.92,398.458 458,394.5C 461.112,397.726 464.445,400.726 468,403.5C 467.851,407.016 466.017,409.516 462.5,411C 449.03,418.381 437.03,416.547 426.5,405.5C 429.855,401.813 433.189,398.147 436.5,394.5 Z"/></g>
<g><path style="opacity:0.958" fill="#000100" d="M 263.5,404.5 C 264.492,404.672 265.158,404.338 265.5,403.5C 266.492,403.672 267.158,403.338 267.5,402.5C 268.791,402.737 269.791,402.404 270.5,401.5C 303.175,393.913 324.675,405.913 335,437.5C 338.421,467.18 325.921,486.346 297.5,495C 267.82,498.421 248.654,485.921 240,457.5C 236.449,434.615 244.282,416.949 263.5,404.5 Z"/></g>
<g><path style="opacity:1" fill="#a4d49e" d="M 292.5,416.5 C 306.515,418.677 315.348,426.677 319,440.5C 320.167,467.333 307.333,480.167 280.5,479C 267.583,475.584 259.583,467.417 256.5,454.5C 256.917,434.909 266.584,422.409 285.5,417C 287.81,416.503 290.143,416.337 292.5,416.5 Z"/></g>
<g><path style="opacity:1" fill="#67a962" d="M 292.5,416.5 C 290.143,416.337 287.81,416.503 285.5,417C 266.584,422.409 256.917,434.909 256.5,454.5C 253.887,435.253 261.887,422.42 280.5,416C 284.689,415.188 288.689,415.355 292.5,416.5 Z"/></g>
<g><path style="opacity:1" fill="#67a962" d="M 416.5,408.5 C 416.134,413.705 416.967,418.705 419,423.5C 425.99,438.659 437.823,446.325 454.5,446.5C 435.253,449.113 422.42,441.113 416,422.5C 415.185,417.648 415.352,412.981 416.5,408.5 Z"/></g>
<g><path style="opacity:1" fill="#030503" d="M 296.5,426.5 C 301.231,429.058 305.231,432.558 308.5,437C 301.877,443.817 301.877,450.65 308.5,457.5C 305.167,461.5 301.5,465.167 297.5,468.5C 284.533,454.865 284.2,440.865 296.5,426.5 Z"/></g>
</svg>
