<?xml version="1.0" encoding="UTF-8"?>
<!DOCTYPE svg PUBLIC "-//W3C//DTD SVG 1.1//EN" "http://www.w3.org/Graphics/SVG/1.1/DTD/svg11.dtd">
<svg xmlns="http://www.w3.org/2000/svg" version="1.1" width="512px" height="512px" style="shape-rendering:geometricPrecision; text-rendering:geometricPrecision; image-rendering:optimizeQuality; fill-rule:evenodd; clip-rule:evenodd" xmlns:xlink="http://www.w3.org/1999/xlink">
<g><path style="opacity:0.98" fill="#010101" d="M 221.5,-0.5 C 255.5,-0.5 289.5,-0.5 323.5,-0.5C 335.904,2.96404 346.404,9.6307 355,19.5C 360.375,28.4173 365.875,37.2506 371.5,46C 387.167,46.3333 402.833,46.6667 418.5,47C 423.713,49.7633 425.713,54.0966 424.5,60C 419.89,112.908 391.89,145.908 340.5,159C 334.207,160.023 327.874,160.689 321.5,161C 308.167,168.333 294.833,175.667 281.5,183C 262.262,189.82 246.762,184.987 235,168.5C 218.746,180.589 212.746,196.589 217,216.5C 223.238,235.708 236.404,246.542 256.5,249C 283.198,249.064 309.864,249.731 336.5,251C 380.177,260.029 412.343,284.196 433,323.5C 437.069,329.693 437.403,336.027 434,342.5C 432.887,343.305 431.721,343.972 430.5,344.5C 425.553,345.372 421.387,344.039 418,340.5C 399.992,299.727 368.825,276.227 324.5,270C 299.167,269.667 273.833,269.333 248.5,269C 209.214,257.929 191.714,232.096 196,191.5C 201.089,171.98 212.422,157.313 230,147.5C 235.575,122.456 251.075,111.956 276.5,116C 291.455,123.477 306.122,131.477 320.5,140C 367.072,136.931 394.739,112.431 403.5,66.5C 350.832,66.3333 298.166,66.5 245.5,67C 191.736,76.0998 155.569,106.266 137,157.5C 123.019,219.922 142.519,268.755 195.5,304C 210.727,312.853 227.06,318.52 244.5,321C 267.167,321.333 289.833,321.667 312.5,322C 349.273,327.938 369.273,349.438 372.5,386.5C 369.412,423.091 349.745,444.591 313.5,451C 264.834,451.5 216.168,451.667 167.5,451.5C 172.325,473.158 185.658,486.324 207.5,491C 248.524,491.947 289.524,491.614 330.5,490C 373.454,481.038 402.954,456.205 419,415.5C 422.387,411.961 426.553,410.628 431.5,411.5C 435.543,413.582 437.543,416.915 437.5,421.5C 422.459,465.038 392.792,493.538 348.5,507C 341.741,508.715 335.075,510.215 328.5,511.5C 287.167,511.5 245.833,511.5 204.5,511.5C 168.936,503.264 149.269,480.931 145.5,444.5C 144.41,437.162 147.41,432.662 154.5,431C 176.167,430.667 197.833,430.333 219.5,430C 216.371,425.241 214.204,420.074 213,414.5C 212.333,405.5 212.333,396.5 213,387.5C 213.785,385.714 214.951,384.214 216.5,383C 252.107,381.686 287.773,381.019 323.5,381C 335.972,376.892 340.806,368.392 338,355.5C 333.173,348.164 326.339,343.998 317.5,343C 288.833,342.667 260.167,342.333 231.5,342C 160.919,336.82 110.085,302.653 79,239.5C 54.1688,172.148 64.8355,111.148 111,56.5C 141.047,24.3927 177.881,5.39268 221.5,-0.5 Z"/></g>
<g><path style="opacity:1" fill="#ccd1da" d="M 227.5,19.5 C 259.208,19.0374 290.875,19.5374 322.5,21C 328.584,23.1269 333.751,26.6269 338,31.5C 341.042,36.4188 344.209,41.2522 347.5,46C 313.167,46.3333 278.833,46.6667 244.5,47C 174.743,58.7582 131.243,98.9249 114,167.5C 106.742,215.657 119.242,257.824 151.5,294C 113.942,269.12 92.4419,233.953 87,188.5C 83.7503,125.499 108.25,76.6653 160.5,42C 181.237,29.3656 203.571,21.8656 227.5,19.5 Z"/></g>
<g><path style="opacity:1" fill="#858dae" d="M 430.5,344.5 C 432.588,352.03 433.922,359.696 434.5,367.5C 425.453,370.262 422.953,375.929 427,384.5C 429.157,386.495 431.657,387.828 434.5,388.5C 434.26,396.272 433.26,403.939 431.5,411.5C 426.553,410.628 422.387,411.961 419,415.5C 402.954,456.205 373.454,481.038 330.5,490C 289.524,491.614 248.524,491.947 207.5,491C 185.658,486.324 172.325,473.158 167.5,451.5C 216.168,451.667 264.834,451.5 313.5,451C 349.745,444.591 369.412,423.091 372.5,386.5C 369.273,349.438 349.273,327.938 312.5,322C 289.833,321.667 267.167,321.333 244.5,321C 227.06,318.52 210.727,312.853 195.5,304C 142.519,268.755 123.019,219.922 137,157.5C 155.569,106.266 191.736,76.0998 245.5,67C 298.166,66.5 350.832,66.3333 403.5,66.5C 394.739,112.431 367.072,136.931 320.5,140C 306.122,131.477 291.455,123.477 276.5,116C 251.075,111.956 235.575,122.456 230,147.5C 212.422,157.313 201.089,171.98 196,191.5C 191.714,232.096 209.214,257.929 248.5,269C 273.833,269.333 299.167,269.667 324.5,270C 368.825,276.227 399.992,299.727 418,340.5C 421.387,344.039 425.553,345.372 430.5,344.5 Z"/></g>
<g><path style="opacity:1" fill="#040405" d="M 349.5,78.5 C 357.452,76.9682 362.119,80.1349 363.5,88C 361.828,96.3418 356.828,99.3418 348.5,97C 341.621,90.3498 341.955,84.1831 349.5,78.5 Z"/></g>
<g><path style="opacity:1" fill="#e6ecec" d="M 261.5,134.5 C 265.582,134.344 269.582,134.844 273.5,136C 281.5,140.667 289.5,145.333 297.5,150C 289.828,155.171 281.828,159.838 273.5,164C 260.367,167.769 252.701,162.936 250.5,149.5C 251.491,142.512 255.158,137.512 261.5,134.5 Z"/></g>
<g><path style="opacity:0.933" fill="#030304" d="M 434.5,367.5 C 440.924,368.09 444.591,371.59 445.5,378C 444.906,384.762 441.239,388.262 434.5,388.5C 431.657,387.828 429.157,386.495 427,384.5C 422.953,375.929 425.453,370.262 434.5,367.5 Z"/></g>
<g><path style="opacity:1" fill="#c9ced8" d="M 351.5,385.5 C 352.226,401.874 345.56,414.707 331.5,424C 325.606,427.52 319.273,429.854 312.5,431C 291.769,431.965 271.102,431.632 250.5,430C 238.081,424.682 232.081,415.182 232.5,401.5C 264.502,401.667 296.502,401.5 328.5,401C 338.31,398.779 345.977,393.613 351.5,385.5 Z"/></g>
</svg>
