<?xml version="1.0" encoding="UTF-8"?>
<!DOCTYPE svg PUBLIC "-//W3C//DTD SVG 1.1//EN" "http://www.w3.org/Graphics/SVG/1.1/DTD/svg11.dtd">
<svg xmlns="http://www.w3.org/2000/svg" version="1.1" width="512px" height="512px" style="shape-rendering:geometricPrecision; text-rendering:geometricPrecision; image-rendering:optimizeQuality; fill-rule:evenodd; clip-rule:evenodd" xmlns:xlink="http://www.w3.org/1999/xlink">
<g><path style="opacity:0.974" fill="#020100" d="M 171.5,106.5 C 217.664,110.082 242.997,134.915 247.5,181C 247.113,197.83 241.78,212.83 231.5,226C 244.296,229.155 256.963,228.655 269.5,224.5C 251.277,189.224 255.944,157.391 283.5,129C 306.371,110.895 331.704,106.562 359.5,116C 381.429,129.186 405.096,134.186 430.5,131C 466.008,136.842 487.508,157.342 495,192.5C 498.892,229.886 484.058,256.72 450.5,273C 437.05,277.534 423.217,279.7 409,279.5C 394.433,278.88 379.933,277.547 365.5,275.5C 372.811,315.136 358.811,344.303 323.5,363C 273.883,379.968 224.216,380.302 174.5,364C 141.301,348.452 125.968,322.285 128.5,285.5C 112.776,289.799 96.7764,291.632 80.5,291C 44.9917,285.158 23.4917,264.658 16,229.5C 12.3062,187.693 30.1395,159.86 69.5,146C 85.0855,144.693 99.7522,140.36 113.5,133C 123.355,124.821 134.022,117.821 145.5,112C 154.078,109.053 162.745,107.219 171.5,106.5 Z"/></g>
<g><path style="opacity:1" fill="#eaaa2b" d="M 163.5,123.5 C 198.292,121.622 220.459,137.289 230,170.5C 232.503,190.323 227.003,207.489 213.5,222C 176.835,219.33 150.169,234.33 133.5,267C 119.135,271.339 104.468,273.839 89.5,274.5C 57.9817,272.824 38.8151,256.491 32,225.5C 29.4505,199.932 39.1172,180.599 61,167.5C 64.3065,173.44 67.6398,179.44 71,185.5C 78.5664,193.245 87.7331,196.411 98.5,195C 121.388,192.806 140.554,183.306 156,166.5C 161.212,158.6 162.879,149.933 161,140.5C 158.58,135.67 156.746,130.67 155.5,125.5C 158.373,125.198 161.039,124.531 163.5,123.5 Z"/></g>
<g><path style="opacity:1" fill="#eaaa2b" d="M 322.5,127.5 C 328.167,127.5 333.833,127.5 339.5,127.5C 334.26,141.053 335.76,153.719 344,165.5C 365.396,182.383 389.563,188.216 416.5,183C 425.392,179.983 431.559,174.15 435,165.5C 436.19,160.071 437.69,154.738 439.5,149.5C 467.887,160.937 481.053,181.937 479,212.5C 472.976,240.523 455.809,257.023 427.5,262C 403.853,263.931 380.519,262.098 357.5,256.5C 340.415,232.79 317.082,220.956 287.5,221C 274.872,203.335 272.039,184.168 279,163.5C 287.687,144.3 302.187,132.3 322.5,127.5 Z"/></g>
<g><path style="opacity:1" fill="#fbc562" d="M 414.5,147.5 C 417.698,146.964 420.365,147.631 422.5,149.5C 421.56,164.925 413.394,171.258 398,168.5C 381.673,169.058 367.339,164.058 355,153.5C 351.909,146.503 352.076,139.503 355.5,132.5C 373.751,143.129 393.417,148.129 414.5,147.5 Z"/></g>
<g><path style="opacity:1" fill="#f9c361" d="M 138.5,134.5 C 139.675,134.281 140.675,134.614 141.5,135.5C 146.046,142.613 146.546,149.946 143,157.5C 128.247,172.292 110.413,179.459 89.5,179C 86.4384,177.939 83.9384,176.106 82,173.5C 80.3559,169.563 78.5226,165.73 76.5,162C 92.6218,159.627 107.955,154.627 122.5,147C 128.446,143.538 133.78,139.371 138.5,134.5 Z"/></g>
<g><path style="opacity:1" fill="#554221" d="M 414.5,147.5 C 417.287,146.523 420.287,146.19 423.5,146.5C 423.737,147.791 423.404,148.791 422.5,149.5C 420.365,147.631 417.698,146.964 414.5,147.5 Z"/></g>
<g><path style="opacity:1" fill="#eaaa2b" d="M 192.5,238.5 C 193.833,238.5 195.167,238.5 196.5,238.5C 196.179,244.026 196.512,249.36 197.5,254.5C 199.58,265.085 205.58,272.585 215.5,277C 239.241,285.094 262.575,284.094 285.5,274C 296.598,264.848 300.931,253.015 298.5,238.5C 325.716,241.877 342.883,256.877 350,283.5C 353.728,312.881 342.561,334.381 316.5,348C 271.589,362.81 226.589,363.143 181.5,349C 154.486,336.482 142.319,315.315 145,285.5C 150.762,259.571 166.596,243.904 192.5,238.5 Z"/></g>
<g><path style="opacity:1" fill="#674b13" d="M 192.5,238.5 C 193.919,237.549 195.585,237.216 197.5,237.5C 197.5,243.167 197.5,248.833 197.5,254.5C 196.512,249.36 196.179,244.026 196.5,238.5C 195.167,238.5 193.833,238.5 192.5,238.5 Z"/></g>
<g><path style="opacity:1" fill="#886a35" d="M 215.5,239.5 C 213.57,243.373 212.903,247.706 213.5,252.5C 212.514,248.03 212.181,243.363 212.5,238.5C 213.791,238.263 214.791,238.596 215.5,239.5 Z"/></g>
<g><path style="opacity:1" fill="#fbc562" d="M 213.5,252.5 C 212.903,247.706 213.57,243.373 215.5,239.5C 237.582,246.379 259.582,246.045 281.5,238.5C 283.082,245.027 282.582,251.36 280,257.5C 273.958,262.074 267.125,264.908 259.5,266C 247.268,267.366 235.268,266.366 223.5,263C 218.028,261.451 214.695,257.951 213.5,252.5 Z"/></g>
</svg>
