<?xml version="1.0" encoding="UTF-8"?>
<!DOCTYPE svg PUBLIC "-//W3C//DTD SVG 1.1//EN" "http://www.w3.org/Graphics/SVG/1.1/DTD/svg11.dtd">
<svg xmlns="http://www.w3.org/2000/svg" version="1.1" width="512px" height="512px" style="shape-rendering:geometricPrecision; text-rendering:geometricPrecision; image-rendering:optimizeQuality; fill-rule:evenodd; clip-rule:evenodd" xmlns:xlink="http://www.w3.org/1999/xlink">
<g><path style="opacity:0.972" fill="#010000" d="M 283.5,67.5 C 289.198,67.596 294.865,68.096 300.5,69C 333.037,79.7348 365.371,91.0681 397.5,103C 400.661,104.413 403.661,106.08 406.5,108C 413.167,114.667 419.833,121.333 426.5,128C 437.62,132.637 447.453,139.137 456,147.5C 464.039,160.911 471.039,174.911 477,189.5C 480.669,197.508 483.336,205.841 485,214.5C 485.981,234.553 485.481,254.553 483.5,274.5C 486.47,292.596 485.97,310.596 482,328.5C 480.607,332.286 478.941,335.952 477,339.5C 462.828,354.006 448.994,368.839 435.5,384C 427.996,388.587 420.329,392.92 412.5,397C 406.116,402.385 399.45,407.385 392.5,412C 371.561,419.985 349.895,423.985 327.5,424C 312.975,431.776 297.641,437.443 281.5,441C 272.049,441.037 262.716,439.871 253.5,437.5C 242.286,440.093 230.953,441.26 219.5,441C 209.456,438.208 199.456,435.208 189.5,432C 179.476,431.105 169.476,430.105 159.5,429C 151.604,425.437 143.938,421.437 136.5,417C 125.912,414.437 115.578,411.103 105.5,407C 95.5,399 85.5,391 75.5,383C 64,371.5 52.5,360 41,348.5C 28.5835,330.356 22.4168,310.189 22.5,288C 24.0949,276.718 25.0949,265.384 25.5,254C 24.6204,242.142 23.7871,230.309 23,218.5C 23.5275,214.057 24.5275,209.723 26,205.5C 33.9849,191.532 40.3182,176.865 45,161.5C 51.5791,147.252 61.4124,135.752 74.5,127C 86.3547,119.571 98.6881,112.904 111.5,107C 121.564,99.9392 131.898,93.2726 142.5,87C 168.205,78.9264 194.539,75.2598 221.5,76C 230.452,74.0764 239.452,72.4097 248.5,71C 260.389,70.5848 272.056,69.4181 283.5,67.5 Z"/></g>
<g><path style="opacity:1" fill="#6b4935" d="M 296.5,85.5 C 289.512,86.0659 282.512,86.5659 275.5,87C 264.216,89.2568 252.882,91.2568 241.5,93C 233.173,93.4997 224.84,93.6664 216.5,93.5C 242.808,86.9402 269.475,84.2735 296.5,85.5 Z"/></g>
<g><path style="opacity:1" fill="#865a3f" d="M 296.5,85.5 C 317.568,91.4358 338.235,98.6025 358.5,107C 371.617,110.483 384.284,115.15 396.5,121C 403.167,127.667 409.833,134.333 416.5,141C 423.513,145.508 430.847,149.508 438.5,153C 441.933,156.042 444.766,159.542 447,163.5C 455.728,180.619 463.062,198.285 469,216.5C 470.112,229.16 467.779,241.16 462,252.5C 456.419,262.495 451.253,272.662 446.5,283C 442.5,285.667 438.5,288.333 434.5,291C 428.725,297.896 422.725,304.563 416.5,311C 406.982,315.591 397.315,319.924 387.5,324C 383.5,327.333 379.5,330.667 375.5,334C 367.333,337.913 359.667,342.58 352.5,348C 350.043,349.562 347.376,350.562 344.5,351C 323.496,352.294 302.496,352.627 281.5,352C 274.761,353.351 268.095,355.018 261.5,357C 252.788,357.511 244.121,358.344 235.5,359.5C 225.851,355.337 215.851,351.837 205.5,349C 190.877,340.76 175.21,335.76 158.5,334C 145.777,329.138 133.444,323.471 121.5,317C 112.667,309.5 104.5,301.333 97,292.5C 94.1402,286.919 91.4735,281.252 89,275.5C 77.8883,262.277 70.2217,247.277 66,230.5C 65.1304,224.083 65.4638,217.749 67,211.5C 70.0785,205.009 73.4118,198.675 77,192.5C 80.9538,181.297 85.2871,170.297 90,159.5C 96.5829,150.915 104.416,143.748 113.5,138C 132.544,128.927 150.544,118.26 167.5,106C 170.833,104.333 174.167,102.667 177.5,101C 189.202,98.0556 200.869,95.5556 212.5,93.5C 213.833,93.5 215.167,93.5 216.5,93.5C 224.84,93.6664 233.173,93.4997 241.5,93C 252.882,91.2568 264.216,89.2568 275.5,87C 282.512,86.5659 289.512,86.0659 296.5,85.5 Z"/></g>
<g><path style="opacity:1" fill="#724e38" d="M 212.5,93.5 C 200.869,95.5556 189.202,98.0556 177.5,101C 174.167,102.667 170.833,104.333 167.5,106C 150.544,118.26 132.544,128.927 113.5,138C 104.416,143.748 96.5829,150.915 90,159.5C 85.2871,170.297 80.9538,181.297 77,192.5C 73.4118,198.675 70.0785,205.009 67,211.5C 65.4638,217.749 65.1304,224.083 66,230.5C 70.2217,247.277 77.8883,262.277 89,275.5C 91.4735,281.252 94.1402,286.919 97,292.5C 104.5,301.333 112.667,309.5 121.5,317C 133.444,323.471 145.777,329.138 158.5,334C 175.21,335.76 190.877,340.76 205.5,349C 215.851,351.837 225.851,355.337 235.5,359.5C 226.934,362.171 218.267,362.005 209.5,359C 199.689,355.094 189.689,351.761 179.5,349C 172.167,345.667 164.833,342.333 157.5,339C 134.933,335.546 113.933,327.88 94.5,316C 86.9031,308.682 79.4031,301.182 72,293.5C 68.6667,286.833 65.3333,280.167 62,273.5C 52.895,262.045 45.895,249.379 41,235.5C 39.3557,227.789 39.3557,220.122 41,212.5C 44.9844,204.531 48.9844,196.531 53,188.5C 56,180.167 59,171.833 62,163.5C 64.6153,159.217 67.6153,155.217 71,151.5C 84.5673,139.623 99.734,130.123 116.5,123C 127.661,114.916 139.328,107.583 151.5,101C 171.429,95.1805 191.762,92.6805 212.5,93.5 Z"/></g>
<g><path style="opacity:1" fill="#030201" d="M 311.5,142.5 C 319.372,142.201 322.872,145.868 322,153.5C 321.167,155.667 319.667,157.167 317.5,158C 254.216,175.319 190.883,191.986 127.5,208C 122.931,205.459 121.431,201.625 123,196.5C 124.637,194.19 126.804,192.69 129.5,192C 190.388,175.781 251.054,159.281 311.5,142.5 Z"/></g>
<g><path style="opacity:1" fill="#030201" d="M 343.5,192.5 C 349.589,192.029 353.256,194.696 354.5,200.5C 353.973,205.859 350.973,208.692 345.5,209C 284.372,225.407 223.205,241.573 162,257.5C 155.435,256.729 153.102,253.062 155,246.5C 156.109,244.185 157.943,242.685 160.5,242C 221.693,225.621 282.693,209.121 343.5,192.5 Z"/></g>
<g><path style="opacity:1" fill="#030201" d="M 370.5,238.5 C 380.552,237.047 384.385,241.047 382,250.5C 380.681,252.487 378.848,253.654 376.5,254C 315.5,270.333 254.5,286.667 193.5,303C 188.726,304.361 185.226,302.861 183,298.5C 182.298,292.186 185.132,288.352 191.5,287C 251.447,271.266 311.114,255.1 370.5,238.5 Z"/></g>
<g><path style="opacity:1" fill="#68442e" d="M 62.5,306.5 C 63.2914,317.159 66.7914,327.159 73,336.5C 92,357.175 112.5,376.008 134.5,393C 144.277,396.591 154.277,399.591 164.5,402C 171.765,406.461 179.099,410.628 186.5,414.5C 179.492,414.666 172.492,414.5 165.5,414C 158.167,410 150.833,406 143.5,402C 135.167,399.667 126.833,397.333 118.5,395C 114.835,393.503 111.502,391.503 108.5,389C 101.084,381.58 93.0842,374.913 84.5,369C 74.7635,358.984 64.9302,349.151 55,339.5C 46.6733,328.194 41.6733,315.527 40,301.5C 39.2441,291.464 39.5774,281.464 41,271.5C 47.8645,279.888 53.1978,289.221 57,299.5C 58.6971,302.02 60.5305,304.353 62.5,306.5 Z"/></g>
<g><path style="opacity:1" fill="#68432e" d="M 468.5,312.5 C 468.823,308.774 468.489,305.107 467.5,301.5C 467.167,301.667 466.833,301.833 466.5,302C 460.167,309 453.833,316 447.5,323C 438.202,328.102 428.536,332.435 418.5,336C 414.5,339.333 410.5,342.667 406.5,346C 396.003,351.748 385.67,357.748 375.5,364C 372.595,365.286 369.595,366.286 366.5,367C 357.84,367.5 349.173,367.666 340.5,367.5C 347.802,366.751 354.802,364.584 361.5,361C 368.667,355.58 376.333,350.913 384.5,347C 388.5,343.667 392.5,340.333 396.5,337C 406.315,332.924 415.982,328.591 425.5,324C 432.183,317.982 438.183,311.315 443.5,304C 449.449,300.44 454.949,296.274 460,291.5C 462.713,286.705 465.046,281.705 467,276.5C 468.092,279.044 468.759,281.711 469,284.5C 469.824,294.009 469.658,303.343 468.5,312.5 Z"/></g>
<g><path style="opacity:1" fill="#724e38" d="M 468.5,312.5 C 468.329,318.521 466.829,324.188 464,329.5C 457.333,337.5 450,344.833 442,351.5C 436.875,358.293 431.375,364.793 425.5,371C 419.154,375.174 412.488,378.841 405.5,382C 397.778,388.055 389.778,393.722 381.5,399C 371.136,401.54 360.803,404.206 350.5,407C 334.14,404.806 319.14,408.14 305.5,417C 297.707,418.931 290.04,421.265 282.5,424C 278.167,424.667 273.833,424.667 269.5,424C 257.884,421.027 246.218,420.86 234.5,423.5C 220.453,416.322 205.453,413.322 189.5,414.5C 188.5,414.5 187.5,414.5 186.5,414.5C 179.099,410.628 171.765,406.461 164.5,402C 154.277,399.591 144.277,396.591 134.5,393C 112.5,376.008 92,357.175 73,336.5C 66.7914,327.159 63.2914,317.159 62.5,306.5C 84.5514,332.364 112.551,347.53 146.5,352C 156.51,355.172 166.176,359.172 175.5,364C 186.884,367.461 198.218,371.128 209.5,375C 217.095,376.356 224.762,376.856 232.5,376.5C 240.174,376.666 247.841,376.5 255.5,376C 271.965,374.196 288.298,371.696 304.5,368.5C 316.487,367.794 328.487,367.461 340.5,367.5C 349.173,367.666 357.84,367.5 366.5,367C 369.595,366.286 372.595,365.286 375.5,364C 385.67,357.748 396.003,351.748 406.5,346C 410.5,342.667 414.5,339.333 418.5,336C 428.536,332.435 438.202,328.102 447.5,323C 453.833,316 460.167,309 466.5,302C 466.833,301.833 467.167,301.667 467.5,301.5C 468.489,305.107 468.823,308.774 468.5,312.5 Z"/></g>
<g><path style="opacity:1" fill="#62402b" d="M 304.5,368.5 C 288.298,371.696 271.965,374.196 255.5,376C 247.841,376.5 240.174,376.666 232.5,376.5C 243.27,374.341 254.27,372.841 265.5,372C 278.351,367.596 291.351,366.429 304.5,368.5 Z"/></g>
<g><path style="opacity:1" fill="#67432e" d="M 189.5,414.5 C 205.453,413.322 220.453,416.322 234.5,423.5C 228.582,424.621 222.582,424.788 216.5,424C 207.418,420.697 198.418,417.53 189.5,414.5 Z"/></g>
</svg>
