<?xml version="1.0" encoding="UTF-8"?>
<!DOCTYPE svg PUBLIC "-//W3C//DTD SVG 1.1//EN" "http://www.w3.org/Graphics/SVG/1.1/DTD/svg11.dtd">
<svg xmlns="http://www.w3.org/2000/svg" version="1.1" width="512px" height="512px" style="shape-rendering:geometricPrecision; text-rendering:geometricPrecision; image-rendering:optimizeQuality; fill-rule:evenodd; clip-rule:evenodd" xmlns:xlink="http://www.w3.org/1999/xlink">
<g><path style="opacity:0.993" fill="#010100" d="M 139.5,15.5 C 243.834,15.3333 348.167,15.5 452.5,16C 453.333,16.8333 454.167,17.6667 455,18.5C 456.308,37.0766 456.975,55.7433 457,74.5C 466.128,116.472 475.128,158.472 484,200.5C 494.863,263.711 498.696,327.378 495.5,391.5C 495.333,424.833 495.167,458.167 495,491.5C 494.626,492.416 494.126,493.25 493.5,494C 376.581,495.663 259.581,495.996 142.5,495C 89.2041,486.369 52.2041,457.202 31.5,407.5C 15.4402,398.82 11.2735,386.153 19,369.5C 22.4136,364.748 26.9136,361.581 32.5,360C 39.1667,359.667 45.8333,359.333 52.5,359C 66.6667,347.5 80.8333,336 95,324.5C 95.2936,290.644 97.9602,256.977 103,223.5C 112.771,172.314 123.437,121.314 135,70.5C 135.333,53.8333 135.667,37.1667 136,20.5C 136.997,18.6769 138.164,17.0103 139.5,15.5 Z"/></g>
<g><path style="opacity:1" fill="#e8e8e6" d="M 151.5,31.5 C 156.833,31.5 162.167,31.5 167.5,31.5C 167.116,38.5888 167.616,45.5888 169,52.5C 173.333,56.5 177.667,56.5 182,52.5C 183.384,45.5888 183.884,38.5888 183.5,31.5C 188.833,31.5 194.167,31.5 199.5,31.5C 199.116,38.5888 199.616,45.5888 201,52.5C 205.333,56.5 209.667,56.5 214,52.5C 215.384,45.5888 215.884,38.5888 215.5,31.5C 220.833,31.5 226.167,31.5 231.5,31.5C 231.5,42.1667 231.5,52.8333 231.5,63.5C 204.833,63.5 178.167,63.5 151.5,63.5C 151.5,52.8333 151.5,42.1667 151.5,31.5 Z"/></g>
<g><path style="opacity:1" fill="#92d1f6" d="M 247.5,31.5 C 258.167,31.5 268.833,31.5 279.5,31.5C 279.5,42.1667 279.5,52.8333 279.5,63.5C 268.833,63.5 258.167,63.5 247.5,63.5C 247.5,52.8333 247.5,42.1667 247.5,31.5 Z"/></g>
<g><path style="opacity:1" fill="#e9e9e7" d="M 295.5,31.5 C 300.833,31.5 306.167,31.5 311.5,31.5C 311.116,38.5888 311.616,45.5888 313,52.5C 317.333,56.5 321.667,56.5 326,52.5C 327.384,45.5888 327.884,38.5888 327.5,31.5C 332.833,31.5 338.167,31.5 343.5,31.5C 343.116,38.5888 343.616,45.5888 345,52.5C 349.333,56.5 353.667,56.5 358,52.5C 359.384,45.5888 359.884,38.5888 359.5,31.5C 364.833,31.5 370.167,31.5 375.5,31.5C 375.116,38.5888 375.616,45.5888 377,52.5C 381.333,56.5 385.667,56.5 390,52.5C 391.384,45.5888 391.884,38.5888 391.5,31.5C 396.833,31.5 402.167,31.5 407.5,31.5C 407.116,38.5888 407.616,45.5888 409,52.5C 413.333,56.5 417.667,56.5 422,52.5C 423.384,45.5888 423.884,38.5888 423.5,31.5C 428.833,31.5 434.167,31.5 439.5,31.5C 439.5,42.1667 439.5,52.8333 439.5,63.5C 391.5,63.5 343.5,63.5 295.5,63.5C 295.5,52.8333 295.5,42.1667 295.5,31.5 Z"/></g>
<g><path style="opacity:1" fill="#fc6167" d="M 149.5,79.5 C 176.167,79.5 202.833,79.5 229.5,79.5C 228.45,86.9186 226.95,94.2519 225,101.5C 176.332,120.325 149.498,155.659 144.5,207.5C 137.167,207.5 129.833,207.5 122.5,207.5C 131.285,164.787 140.285,122.121 149.5,79.5 Z"/></g>
<g><path style="opacity:1" fill="#5cbbf3" d="M 245.5,79.5 C 256.167,79.5 266.833,79.5 277.5,79.5C 276.038,87.4788 274.704,95.4788 273.5,103.5C 262.833,103.5 252.167,103.5 241.5,103.5C 242.704,95.4788 244.038,87.4788 245.5,79.5 Z"/></g>
<g><path style="opacity:1" fill="#fd6167" d="M 293.5,79.5 C 341.5,79.5 389.5,79.5 437.5,79.5C 428.246,122.105 419.246,164.772 410.5,207.5C 401.167,207.5 391.833,207.5 382.5,207.5C 378.105,159.538 354.105,125.371 310.5,105C 304.228,102.798 297.895,100.798 291.5,99C 290.919,98.1074 290.585,97.1074 290.5,96C 291.696,90.5234 292.696,85.0234 293.5,79.5 Z"/></g>
<g><path style="opacity:1" fill="#c9c9c9" d="M 446.5,110.5 C 448.045,111.23 448.878,112.563 449,114.5C 455.491,144.132 461.825,173.799 468,203.5C 473.144,233.983 476.81,264.65 479,295.5C 479.667,351.833 479.667,408.167 479,464.5C 471.333,455.5 463.667,446.5 456,437.5C 455.667,415.833 455.333,394.167 455,372.5C 451.987,367.465 447.82,366.298 442.5,369C 441.299,369.903 440.465,371.069 440,372.5C 439.667,394.167 439.333,415.833 439,437.5C 431.333,446.5 423.667,455.5 416,464.5C 415.333,410.5 415.333,356.5 416,302.5C 417.524,270.975 420.857,239.642 426,208.5C 432.838,175.818 439.671,143.151 446.5,110.5 Z"/></g>
<g><path style="opacity:1" fill="#f8b33f" d="M 320.5,302.5 C 319.833,299.833 319.167,297.167 318.5,294.5C 318.442,287.14 317.942,279.806 317,272.5C 315.604,269.216 313.104,267.549 309.5,267.5C 295.716,272.975 282.55,279.642 270,287.5C 269.211,283.909 269.378,280.409 270.5,277C 281.125,274.125 291.459,270.458 301.5,266C 311.518,259.142 317.351,249.642 319,237.5C 319.496,223.787 318.83,210.12 317,196.5C 314.774,192.139 311.274,190.639 306.5,192C 294.811,198.013 283.144,203.68 271.5,209C 292.937,190.793 296.104,169.96 281,146.5C 276.047,140.759 271.214,134.926 266.5,129C 263.97,127.578 261.303,127.245 258.5,128C 249.126,137.371 241.293,147.871 235,159.5C 229.704,180.24 235.704,196.906 253,209.5C 253.667,210.167 253.667,210.833 253,211.5C 240.351,203.509 227.018,196.842 213,191.5C 209.991,192.175 207.657,193.842 206,196.5C 204.584,211.142 204.251,225.809 205,240.5C 207.627,252.795 214.461,261.962 225.5,268C 234.352,271.395 243.352,274.395 252.5,277C 253.787,280.125 253.787,283.291 252.5,286.5C 239.778,279.222 226.612,272.889 213,267.5C 209.991,268.175 207.657,269.842 206,272.5C 205.501,276.486 205.334,280.486 205.5,284.5C 205.06,286.844 204.06,288.844 202.5,290.5C 198.211,289.512 193.878,288.679 189.5,288C 166.769,264.145 156.935,235.645 160,202.5C 166.694,162.048 188.861,134.048 226.5,118.5C 244.808,119.641 263.142,119.808 281.5,119C 284.215,118.283 286.382,116.783 288,114.5C 330.252,126.311 356.252,153.645 366,196.5C 371.853,241.102 356.687,276.435 320.5,302.5 Z"/></g>
<g><path style="opacity:1" fill="#e59a2c" d="M 261.5,148.5 C 265.46,152.397 268.96,156.731 272,161.5C 277.671,175.653 274.171,186.986 261.5,195.5C 248.887,186.304 245.72,174.637 252,160.5C 255.381,156.625 258.547,152.625 261.5,148.5 Z"/></g>
<g><path style="opacity:1" fill="#e69a2c" d="M 220.5,212.5 C 230.835,216.416 240.335,221.749 249,228.5C 250.368,231.186 251.701,233.853 253,236.5C 253.832,244.521 253.665,252.521 252.5,260.5C 245.321,258.496 238.321,255.996 231.5,253C 226.2,249.9 222.7,245.4 221,239.5C 220.5,230.506 220.334,221.506 220.5,212.5 Z"/></g>
<g><path style="opacity:1" fill="#cd8a27" d="M 300.5,212.5 C 302.117,213.589 302.95,215.256 303,217.5C 304.167,226.369 303.5,235.035 301,243.5C 298.872,246.63 296.372,249.463 293.5,252C 285.96,255.125 278.293,257.958 270.5,260.5C 268.855,251.014 269.355,241.681 272,232.5C 274.463,229.035 277.296,225.869 280.5,223C 287.386,219.726 294.053,216.226 300.5,212.5 Z"/></g>
<g><path style="opacity:1" fill="#e7e7e5" d="M 113.5,310.5 C 112.512,305.36 112.179,300.026 112.5,294.5C 113.676,270.717 116.01,247.051 119.5,223.5C 127.833,223.5 136.167,223.5 144.5,223.5C 145.473,246.755 152.807,267.755 166.5,286.5C 146.408,289.383 128.742,297.383 113.5,310.5 Z"/></g>
<g><path style="opacity:1" fill="#e9e9e7" d="M 382.5,223.5 C 390.86,223.169 399.193,223.502 407.5,224.5C 403.79,247.678 401.29,271.011 400,294.5C 399.5,356.166 399.333,417.832 399.5,479.5C 351.832,479.667 304.166,479.5 256.5,479C 285.892,462.27 306.725,438.104 319,406.5C 332.646,399.875 337.646,389.209 334,374.5C 330.285,367.119 324.451,362.285 316.5,360C 310.167,359.667 303.833,359.333 297.5,359C 287.876,351.711 278.542,344.045 269.5,336C 317.194,330.93 351.694,307.097 373,264.5C 379.16,251.521 382.327,237.854 382.5,223.5 Z"/></g>
<g><path style="opacity:1" fill="#020202" d="M 444.5,231.5 C 449.28,230.641 452.78,232.308 455,236.5C 455.667,256.833 455.667,277.167 455,297.5C 452.567,303.448 448.4,304.948 442.5,302C 441.107,300.829 440.273,299.329 440,297.5C 439.333,277.167 439.333,256.833 440,236.5C 441.025,234.313 442.525,232.646 444.5,231.5 Z"/></g>
<g><path style="opacity:1" fill="#815d21" d="M 205.5,284.5 C 205.5,286.833 205.5,289.167 205.5,291.5C 204.209,291.737 203.209,291.404 202.5,290.5C 204.06,288.844 205.06,286.844 205.5,284.5 Z"/></g>
<g><path style="opacity:1" fill="#e3982b" d="M 220.5,288.5 C 228.6,292.049 236.6,295.883 244.5,300C 250.076,304.984 253.076,311.151 253.5,318.5C 251.143,318.663 248.81,318.497 246.5,318C 238.09,311.379 229.59,304.879 221,298.5C 220.502,295.183 220.335,291.85 220.5,288.5 Z"/></g>
<g><path style="opacity:1" fill="#cb8927" d="M 300.5,288.5 C 302.117,289.589 302.95,291.256 303,293.5C 303.667,299.5 303.667,305.5 303,311.5C 292.381,316.329 281.215,318.996 269.5,319.5C 269.875,310.944 273.542,304.111 280.5,299C 287.386,295.726 294.053,292.226 300.5,288.5 Z"/></g>
<g><path style="opacity:1" fill="#614619" d="M 318.5,294.5 C 319.167,297.167 319.833,299.833 320.5,302.5C 320.44,303.043 320.107,303.376 319.5,303.5C 318.516,300.572 318.183,297.572 318.5,294.5 Z"/></g>
<g><path style="opacity:1" fill="#f9b33f" d="M 164.5,302.5 C 182.751,300.863 199.751,304.697 215.5,314C 234.5,329 253.5,344 272.5,359C 207.833,359.667 143.167,359.667 78.5,359C 97.5,344 116.5,329 135.5,314C 144.597,308.473 154.263,304.64 164.5,302.5 Z"/></g>
<g><path style="opacity:1" fill="#818180" d="M 112.5,294.5 C 112.179,300.026 112.512,305.36 113.5,310.5C 113.217,311.289 112.717,311.956 112,312.5C 111.181,306.319 111.347,300.319 112.5,294.5 Z"/></g>
<g><path style="opacity:1" fill="#0d0802" d="M 172.5,311.5 C 178.629,310.555 182.296,313.055 183.5,319C 183.333,324.5 180.5,327.333 175,327.5C 168.894,326.296 166.561,322.629 168,316.5C 169.025,314.313 170.525,312.646 172.5,311.5 Z"/></g>
<g><path style="opacity:1" fill="#050505" d="M 444.5,319.5 C 449.28,318.641 452.78,320.308 455,324.5C 455.667,331.5 455.667,338.5 455,345.5C 452.567,351.448 448.4,352.948 442.5,350C 441.107,348.829 440.273,347.329 440,345.5C 439.333,338.5 439.333,331.5 440,324.5C 441.025,322.313 442.525,320.646 444.5,319.5 Z"/></g>
<g><path style="opacity:1" fill="#0d0802" d="M 140.5,327.5 C 146.629,326.555 150.296,329.055 151.5,335C 151.333,340.5 148.5,343.333 143,343.5C 136.894,342.296 134.561,338.629 136,332.5C 137.025,330.313 138.525,328.646 140.5,327.5 Z"/></g>
<g><path style="opacity:1" fill="#0d0802" d="M 204.5,327.5 C 210.629,326.555 214.296,329.055 215.5,335C 215.333,340.5 212.5,343.333 207,343.5C 200.894,342.296 198.561,338.629 200,332.5C 201.025,330.313 202.525,328.646 204.5,327.5 Z"/></g>
<g><path style="opacity:1" fill="#91d0f6" d="M 36.5,375.5 C 129.167,375.333 221.834,375.5 314.5,376C 319.535,379.013 320.702,383.18 318,388.5C 317.097,389.701 315.931,390.535 314.5,391C 221.833,391.667 129.167,391.667 36.5,391C 31.4648,387.987 30.2981,383.82 33,378.5C 34.1451,377.364 35.3117,376.364 36.5,375.5 Z"/></g>
<g><path style="opacity:1" fill="#5dbdf6" d="M 49.5,408.5 C 133.332,407.334 217.332,407.168 301.5,408C 281.206,449.951 247.873,473.618 201.5,479C 182.833,479.667 164.167,479.667 145.5,479C 101.395,471.799 69.3953,448.299 49.5,408.5 Z"/></g>
<g><path style="opacity:1" fill="#05090c" d="M 156.5,415.5 C 167.167,416.003 169.833,420.836 164.5,430C 155.42,433.215 151.253,430.048 152,420.5C 153.025,418.313 154.525,416.646 156.5,415.5 Z"/></g>
<g><path style="opacity:1" fill="#05090c" d="M 116.5,431.5 C 127.167,432.003 129.833,436.836 124.5,446C 115.42,449.215 111.253,446.048 112,436.5C 113.025,434.313 114.525,432.646 116.5,431.5 Z"/></g>
<g><path style="opacity:1" fill="#05090c" d="M 228.5,431.5 C 239.167,432.003 241.833,436.836 236.5,446C 227.42,449.215 223.253,446.048 224,436.5C 225.025,434.313 226.525,432.646 228.5,431.5 Z"/></g>
<g><path style="opacity:1" fill="#05090c" d="M 188.5,447.5 C 199.167,448.003 201.833,452.836 196.5,462C 187.42,465.215 183.253,462.048 184,452.5C 185.025,450.313 186.525,448.646 188.5,447.5 Z"/></g>
<g><path style="opacity:1" fill="#b5b5b5" d="M 446.5,452.5 C 448.017,452.511 449.184,453.177 450,454.5C 456.714,462.759 463.548,470.926 470.5,479C 455.167,479.667 439.833,479.667 424.5,479C 432.045,470.293 439.378,461.46 446.5,452.5 Z"/></g>
</svg>
