<?xml version="1.0" encoding="UTF-8"?>
<!DOCTYPE svg PUBLIC "-//W3C//DTD SVG 1.1//EN" "http://www.w3.org/Graphics/SVG/1.1/DTD/svg11.dtd">
<svg xmlns="http://www.w3.org/2000/svg" version="1.1" width="512px" height="512px" style="shape-rendering:geometricPrecision; text-rendering:geometricPrecision; image-rendering:optimizeQuality; fill-rule:evenodd; clip-rule:evenodd" xmlns:xlink="http://www.w3.org/1999/xlink">
<g><path style="opacity:0.98" fill="#020101" d="M 204.5,-0.5 C 213.5,-0.5 222.5,-0.5 231.5,-0.5C 271.753,8.41944 296.42,33.0861 305.5,73.5C 342.881,80.0484 367.381,101.382 379,137.5C 381.42,142.217 380.92,146.551 377.5,150.5C 376.583,151.127 375.583,151.461 374.5,151.5C 371.728,151.78 369.228,151.113 367,149.5C 361.084,124.805 346.917,106.638 324.5,95C 318.083,92.2294 311.417,90.396 304.5,89.5C 304.5,92.1667 304.5,94.8333 304.5,97.5C 301.738,114.862 294.738,130.362 283.5,144C 304.358,163.226 314.025,187.059 312.5,215.5C 312.5,216.833 312.5,218.167 312.5,219.5C 321.276,219.941 329.942,219.441 338.5,218C 353.028,206.125 362.362,190.959 366.5,172.5C 368.578,170.014 371.245,169.014 374.5,169.5C 378.353,170.697 380.353,173.363 380.5,177.5C 376.823,195.024 368.823,210.191 356.5,223C 369.123,231.274 373.29,242.774 369,257.5C 364.289,267.867 356.289,274.201 345,276.5C 333.803,308.425 322.803,340.425 312,372.5C 309.358,375.029 306.192,376.029 302.5,375.5C 298.741,373.317 297.075,369.983 297.5,365.5C 290.578,365.188 283.744,365.521 277,366.5C 272.735,378.462 268.568,390.462 264.5,402.5C 271.468,403.497 278.468,403.83 285.5,403.5C 285.595,395.405 289.595,391.405 297.5,391.5C 300.529,393.05 302.196,395.55 302.5,399C 291.066,433.969 279.233,468.802 267,503.5C 264.23,506.781 261.064,509.447 257.5,511.5C 253.5,511.5 249.5,511.5 245.5,511.5C 240.857,509.021 237.357,505.355 235,500.5C 209.192,425.577 183.692,350.577 158.5,275.5C 137.527,271.241 129.36,258.574 134,237.5C 135.679,233.466 137.845,229.799 140.5,226.5C 135.568,198.894 141.901,174.227 159.5,152.5C 128.303,119.966 122.47,83.2995 142,42.5C 156.452,18.8799 177.285,4.54658 204.5,-0.5 Z"/></g>
<g><path style="opacity:1" fill="#6fd7e4" d="M 206.5,15.5 C 244.322,11.995 270.822,27.6616 286,62.5C 292.786,85.06 290.119,106.393 278,126.5C 275.988,129.846 273.321,132.512 270,134.5C 261.812,130.055 253.312,126.721 244.5,124.5C 247.415,121.01 249.582,117.01 251,112.5C 261.376,77.4978 252.876,47.9978 225.5,24C 221.334,21.0825 217.001,18.4159 212.5,16C 210.527,15.5045 208.527,15.3379 206.5,15.5 Z"/></g>
<g><path style="opacity:1" fill="#a7e5ed" d="M 206.5,15.5 C 208.527,15.3379 210.527,15.5045 212.5,16C 217.001,18.4159 221.334,21.0825 225.5,24C 252.876,47.9978 261.376,77.4978 251,112.5C 249.582,117.01 247.415,121.01 244.5,124.5C 243.5,124.5 242.5,124.5 241.5,124.5C 241.666,118.491 241.499,112.491 241,106.5C 237.295,102.018 232.962,101.351 228,104.5C 226.702,118.073 226.035,131.739 226,145.5C 220.667,153.5 215.333,153.5 210,145.5C 209.667,136.167 209.333,126.833 209,117.5C 205.455,111.791 201.121,111.125 196,115.5C 194.621,120.036 194.121,124.703 194.5,129.5C 186.303,131.931 178.97,135.931 172.5,141.5C 160.089,131.703 151.922,119.036 148,103.5C 141.741,66.5235 154.907,39.0235 187.5,21C 193.582,18.2497 199.916,16.4164 206.5,15.5 Z"/></g>
<g><path style="opacity:1" fill="#82d066" d="M 374.5,151.5 C 374.5,157.5 374.5,163.5 374.5,169.5C 371.245,169.014 368.578,170.014 366.5,172.5C 362.362,190.959 353.028,206.125 338.5,218C 329.942,219.441 321.276,219.941 312.5,219.5C 312.5,218.167 312.5,216.833 312.5,215.5C 315.33,210.123 318.497,204.789 322,199.5C 339.905,162.387 334.238,129.387 305,100.5C 304.517,99.552 304.351,98.552 304.5,97.5C 304.5,94.8333 304.5,92.1667 304.5,89.5C 311.417,90.396 318.083,92.2294 324.5,95C 346.917,106.638 361.084,124.805 367,149.5C 369.228,151.113 371.728,151.78 374.5,151.5 Z"/></g>
<g><path style="opacity:1" fill="#acdd95" d="M 304.5,97.5 C 304.351,98.552 304.517,99.552 305,100.5C 334.238,129.387 339.905,162.387 322,199.5C 318.497,204.789 315.33,210.123 312.5,215.5C 314.025,187.059 304.358,163.226 283.5,144C 294.738,130.362 301.738,114.862 304.5,97.5 Z"/></g>
<g><path style="opacity:1" fill="#f84958" d="M 281.5,227.5 C 275.5,227.5 269.5,227.5 263.5,227.5C 263.634,225.708 263.301,224.042 262.5,222.5C 266.411,195.234 258.744,171.901 239.5,152.5C 240.91,148.295 241.577,143.962 241.5,139.5C 276.343,149.523 295.343,172.69 298.5,209C 298.293,212.523 297.96,216.023 297.5,219.5C 293.818,219.335 290.152,219.501 286.5,220C 283.211,221.41 281.544,223.91 281.5,227.5 Z"/></g>
<g><path style="opacity:1" fill="#f96571" d="M 239.5,152.5 C 258.744,171.901 266.411,195.234 262.5,222.5C 261.317,221.496 259.984,220.662 258.5,220C 253.845,219.501 249.179,219.334 244.5,219.5C 244.665,216.15 244.498,212.817 244,209.5C 239.333,202.833 234.667,202.833 230,209.5C 229.667,229.833 229.333,250.167 229,270.5C 223.667,278.5 218.333,278.5 213,270.5C 212.667,246.833 212.333,223.167 212,199.5C 207.959,194.687 203.625,194.354 199,198.5C 197.575,205.385 197.075,212.385 197.5,219.5C 183.167,219.5 168.833,219.5 154.5,219.5C 152.263,188.14 164.263,163.974 190.5,147C 192.025,145.991 193.692,145.491 195.5,145.5C 198.25,160.404 207.25,167.237 222.5,166C 230.135,163.854 235.802,159.354 239.5,152.5 Z"/></g>
<g><path style="opacity:1" fill="#f9bf6b" d="M 263.5,227.5 C 269.5,227.5 275.5,227.5 281.5,227.5C 281.84,230.675 283.507,232.841 286.5,234C 299.162,234.5 311.829,234.667 324.5,234.5C 329.452,242.406 329.785,250.572 325.5,259C 332.158,259.5 338.825,259.666 345.5,259.5C 312.004,260.498 278.337,260.832 244.5,260.5C 244.5,251.833 244.5,243.167 244.5,234.5C 249.179,234.666 253.845,234.499 258.5,234C 261.534,232.809 263.201,230.642 263.5,227.5 Z"/></g>
<g><path style="opacity:1" fill="#f9bf6b" d="M 157.5,234.5 C 170.833,234.5 184.167,234.5 197.5,234.5C 197.5,243.167 197.5,251.833 197.5,260.5C 184.163,260.667 170.829,260.5 157.5,260C 149.462,256.757 146.629,250.923 149,242.5C 151.098,238.897 153.932,236.23 157.5,234.5 Z"/></g>
<g><path style="opacity:1" fill="#f9b24c" d="M 324.5,234.5 C 332.585,234.099 340.585,234.599 348.5,236C 357.333,242.981 357.666,250.314 349.5,258C 348.255,258.791 346.922,259.291 345.5,259.5C 338.825,259.666 332.158,259.5 325.5,259C 329.785,250.572 329.452,242.406 324.5,234.5 Z"/></g>
<g><path style="opacity:1" fill="#f9a42e" d="M 207.5,287.5 C 197.833,287.5 188.167,287.5 178.5,287.5C 177.465,283.561 176.131,279.728 174.5,276C 182.853,275.168 191.187,275.335 199.5,276.5C 201.418,280.745 204.085,284.412 207.5,287.5 Z"/></g>
<g><path style="opacity:1" fill="#f5a12d" d="M 252.5,287.5 C 246.5,287.5 240.5,287.5 234.5,287.5C 237.915,284.412 240.582,280.745 242.5,276.5C 247.167,275.167 251.833,275.167 256.5,276.5C 255.158,280.195 253.825,283.862 252.5,287.5 Z"/></g>
<g><path style="opacity:1" fill="#f8a32e" d="M 288.5,287.5 C 281.745,288.123 275.412,287.456 269.5,285.5C 269.998,282.171 270.998,279.005 272.5,276C 279.167,275.333 285.833,275.333 292.5,276C 290.869,279.728 289.535,283.561 288.5,287.5 Z"/></g>
<g><path style="opacity:1" fill="#f7a32e" d="M 321.5,297.5 C 314.646,297.824 307.979,297.491 301.5,296.5C 303.5,289.5 305.5,282.5 307.5,275.5C 314.532,275.17 321.532,275.503 328.5,276.5C 325.866,283.427 323.532,290.427 321.5,297.5 Z"/></g>
<g><path style="opacity:1" fill="#f3ad49" d="M 178.5,287.5 C 188.167,287.5 197.833,287.5 207.5,287.5C 210.262,288.38 212.929,289.546 215.5,291C 214.133,293.301 213.466,295.801 213.5,298.5C 203.161,298.666 192.828,298.5 182.5,298C 181.065,294.527 179.732,291.027 178.5,287.5 Z"/></g>
<g><path style="opacity:1" fill="#f9b14b" d="M 234.5,287.5 C 240.5,287.5 246.5,287.5 252.5,287.5C 251.101,290.699 250.101,294.032 249.5,297.5C 242.646,297.824 235.979,297.491 229.5,296.5C 230.226,293.821 231.059,291.154 232,288.5C 232.671,287.748 233.504,287.414 234.5,287.5 Z"/></g>
<g><path style="opacity:1" fill="#f7b04a" d="M 269.5,285.5 C 275.412,287.456 281.745,288.123 288.5,287.5C 287.343,290.984 286.01,294.317 284.5,297.5C 277.978,297.823 271.645,297.49 265.5,296.5C 266.462,292.605 267.796,288.939 269.5,285.5 Z"/></g>
<g><path style="opacity:1" fill="#9d702f" d="M 229.5,296.5 C 235.979,297.491 242.646,297.824 249.5,297.5C 242.656,298.819 235.656,298.819 228.5,297.5C 228.624,296.893 228.957,296.56 229.5,296.5 Z"/></g>
<g><path style="opacity:1" fill="#a07230" d="M 265.5,296.5 C 271.645,297.49 277.978,297.823 284.5,297.5C 277.989,298.818 271.322,298.818 264.5,297.5C 264.624,296.893 264.957,296.56 265.5,296.5 Z"/></g>
<g><path style="opacity:1" fill="#a16a1d" d="M 301.5,296.5 C 307.979,297.491 314.646,297.824 321.5,297.5C 314.656,298.819 307.656,298.819 300.5,297.5C 300.624,296.893 300.957,296.56 301.5,296.5 Z"/></g>
<g><path style="opacity:1" fill="#f7b14b" d="M 187.5,314.5 C 194.011,313.182 200.678,313.182 207.5,314.5C 204.439,323.618 201.106,332.618 197.5,341.5C 194.14,332.411 190.807,323.411 187.5,314.5 Z"/></g>
<g><path style="opacity:1" fill="#f8b14b" d="M 230.5,350.5 C 223.978,350.823 217.645,350.49 211.5,349.5C 215.223,337.832 219.056,326.165 223,314.5C 229.777,313.189 236.61,313.189 243.5,314.5C 239.137,326.598 234.803,338.598 230.5,350.5 Z"/></g>
<g><path style="opacity:1" fill="#f8b14b" d="M 267.5,349.5 C 260.734,350.809 254.068,350.809 247.5,349.5C 251.223,337.832 255.056,326.165 259,314.5C 265.752,313.355 272.586,313.189 279.5,314C 275.198,325.741 271.198,337.574 267.5,349.5 Z"/></g>
<g><path style="opacity:1" fill="#f8a32e" d="M 302.5,350.5 C 295.745,351.123 289.412,350.456 283.5,348.5C 287.365,336.905 291.031,325.239 294.5,313.5C 301.532,313.17 308.532,313.503 315.5,314.5C 311.137,326.598 306.803,338.598 302.5,350.5 Z"/></g>
<g><path style="opacity:1" fill="#523a19" d="M 211.5,349.5 C 217.645,350.49 223.978,350.823 230.5,350.5C 223.989,351.818 217.322,351.818 210.5,350.5C 210.624,349.893 210.957,349.56 211.5,349.5 Z"/></g>
<g><path style="opacity:1" fill="#503919" d="M 247.5,349.5 C 254.068,350.809 260.734,350.809 267.5,349.5C 264.402,350.821 260.902,351.488 257,351.5C 253.5,351.167 250,350.833 246.5,350.5C 246.624,349.893 246.957,349.56 247.5,349.5 Z"/></g>
<g><path style="opacity:1" fill="#583910" d="M 283.5,348.5 C 289.412,350.456 295.745,351.123 302.5,350.5C 296.021,351.491 289.354,351.824 282.5,351.5C 282.263,350.209 282.596,349.209 283.5,348.5 Z"/></g>
<g><path style="opacity:1" fill="#a57632" d="M 225.5,366.5 C 218.745,365.877 212.412,366.544 206.5,368.5C 205.596,367.791 205.263,366.791 205.5,365.5C 212.354,365.176 219.021,365.509 225.5,366.5 Z"/></g>
<g><path style="opacity:1" fill="#a67732" d="M 241.5,366.5 C 248.011,365.182 254.678,365.182 261.5,366.5C 261.376,367.107 261.043,367.44 260.5,367.5C 254.355,366.51 248.022,366.177 241.5,366.5 Z"/></g>
<g><path style="opacity:1" fill="#f6b04b" d="M 225.5,366.5 C 222.043,376.04 218.876,385.706 216,395.5C 212.347,386.709 209.18,377.709 206.5,368.5C 212.412,366.544 218.745,365.877 225.5,366.5 Z"/></g>
<g><path style="opacity:1" fill="#f8b14b" d="M 241.5,366.5 C 248.022,366.177 254.355,366.51 260.5,367.5C 256.777,379.168 252.944,390.835 249,402.5C 242.248,403.645 235.414,403.811 228.5,403C 232.738,390.784 237.072,378.617 241.5,366.5 Z"/></g>
<g><path style="opacity:1" fill="#f7a22e" d="M 302.5,375.5 C 301.232,380.97 299.565,386.304 297.5,391.5C 289.595,391.405 285.595,395.405 285.5,403.5C 278.468,403.83 271.468,403.497 264.5,402.5C 268.568,390.462 272.735,378.462 277,366.5C 283.744,365.521 290.578,365.188 297.5,365.5C 297.075,369.983 298.741,373.317 302.5,375.5 Z"/></g>
<g><path style="opacity:1" fill="#f7b04b" d="M 223.5,419.5 C 229.987,418.346 236.654,418.179 243.5,419C 240.267,428.198 236.934,437.364 233.5,446.5C 230.14,437.411 226.807,428.411 223.5,419.5 Z"/></g>
<g><path style="opacity:1" fill="#f8a32e" d="M 267.5,455.5 C 260.646,455.824 253.979,455.491 247.5,454.5C 251.167,442.5 254.833,430.5 258.5,418.5C 265.532,418.17 272.532,418.503 279.5,419.5C 274.895,431.314 270.895,443.314 267.5,455.5 Z"/></g>
<g><path style="opacity:1" fill="#92611b" d="M 247.5,454.5 C 253.979,455.491 260.646,455.824 267.5,455.5C 260.656,456.819 253.656,456.819 246.5,455.5C 246.624,454.893 246.957,454.56 247.5,454.5 Z"/></g>
<g><path style="opacity:1" fill="#f7a32e" d="M 241.5,472.5 C 247.987,471.346 254.654,471.179 261.5,472C 258.808,479.075 256.308,486.242 254,493.5C 252.333,497.5 250.667,497.5 249,493.5C 246.765,486.288 244.265,479.288 241.5,472.5 Z"/></g>
</svg>
