<?xml version="1.0" encoding="UTF-8"?>
<!DOCTYPE svg PUBLIC "-//W3C//DTD SVG 1.1//EN" "http://www.w3.org/Graphics/SVG/1.1/DTD/svg11.dtd">
<svg xmlns="http://www.w3.org/2000/svg" version="1.1" width="512px" height="512px" style="shape-rendering:geometricPrecision; text-rendering:geometricPrecision; image-rendering:optimizeQuality; fill-rule:evenodd; clip-rule:evenodd" xmlns:xlink="http://www.w3.org/1999/xlink">
<g><path style="opacity:0.968" fill="#020202" d="M 511.5,258.5 C 511.5,278.5 511.5,298.5 511.5,318.5C 509.986,321.095 507.652,322.429 504.5,322.5C 500.682,322.023 498.182,320.023 497,316.5C 496.667,298.833 496.333,281.167 496,263.5C 495.722,262.584 495.222,261.918 494.5,261.5C 457.394,239.441 420.061,217.608 382.5,196C 378.909,193.195 374.909,192.195 370.5,193C 331.833,215.333 293.167,237.667 254.5,260C 253.619,260.708 252.953,261.542 252.5,262.5C 251.335,309.332 251.168,356.332 252,403.5C 288.92,425.712 326.087,447.545 363.5,469C 366.778,470.809 370.111,472.309 373.5,473.5C 376.016,473.245 378.35,472.411 380.5,471C 418.749,448.96 456.915,426.793 495,404.5C 496.309,385.256 496.976,365.923 497,346.5C 498.913,343.72 501.413,342.053 504.5,341.5C 507.295,342.063 509.628,343.396 511.5,345.5C 511.5,365.833 511.5,386.167 511.5,406.5C 509.845,410.346 507.512,413.846 504.5,417C 463.663,440.919 422.663,464.586 381.5,488C 373.239,490.355 365.573,489.021 358.5,484C 321.663,462.414 284.663,441.081 247.5,420C 241.349,416.521 237.516,411.354 236,404.5C 235.667,384.167 235.333,363.833 235,343.5C 212.915,356.46 190.748,369.293 168.5,382C 163.254,383.506 157.921,383.839 152.5,383C 104.873,356.52 57.54,329.52 10.5,302C 5.26851,298.664 1.60184,294.164 -0.5,288.5C -0.5,231.5 -0.5,174.5 -0.5,117.5C 1.78001,111.374 5.78001,106.541 11.5,103C 38.2509,87.2938 65.2509,72.1271 92.5,57.5C 95.1812,57.9324 97.1812,59.2657 98.5,61.5C 100.152,65.4211 99.485,68.9211 96.5,72C 72.3299,86.2527 47.9966,100.253 23.5,114C 20.7339,115.371 18.4006,117.204 16.5,119.5C 15.7784,119.918 15.2784,120.584 15,121.5C 14.8333,148.667 14.6667,175.833 14.5,203C 14.3412,230.918 14.8412,258.751 16,286.5C 62.4802,314.155 109.314,341.155 156.5,367.5C 157.946,368.613 159.613,368.78 161.5,368C 186.296,354.033 210.962,339.867 235.5,325.5C 236.333,303.508 236.833,281.508 237,259.5C 238.647,254.844 241.48,251.011 245.5,248C 264.913,237.212 284.079,226.045 303,214.5C 303.667,183.5 303.667,152.5 303,121.5C 302.722,120.584 302.222,119.918 301.5,119.5C 299.599,117.204 297.266,115.371 294.5,114C 250.5,88.6667 206.5,63.3333 162.5,38C 160.167,37.3333 157.833,37.3333 155.5,38C 145.5,43.6667 135.5,49.3333 125.5,55C 121.235,56.2451 117.902,55.0785 115.5,51.5C 113.919,47.9057 114.586,44.739 117.5,42C 127.67,35.7475 138.003,29.7475 148.5,24C 156.301,20.6863 163.967,21.0196 171.5,25C 214.833,50 258.167,75 301.5,100C 309.421,103.586 314.921,109.42 318,117.5C 318.167,146.506 318.667,175.506 319.5,204.5C 334.296,196.2 348.963,187.7 363.5,179C 369.392,176.299 375.392,175.966 381.5,178C 422.167,201.333 462.833,224.667 503.5,248C 507.037,250.94 509.703,254.44 511.5,258.5 Z"/></g>
<g><path style="opacity:1" fill="#d9eff2" d="M 301.5,119.5 C 294.164,125.173 286.164,129.839 277.5,133.5C 273.371,129.715 269.037,129.548 264.5,133C 229.553,153.628 194.386,173.795 159,193.5C 122.821,173.659 86.9872,153.159 51.5,132C 47.3741,129.689 43.7075,130.189 40.5,133.5C 31.8356,129.839 23.8356,125.173 16.5,119.5C 18.4006,117.204 20.7339,115.371 23.5,114C 47.9966,100.253 72.3299,86.2527 96.5,72C 99.485,68.9211 100.152,65.4211 98.5,61.5C 104.331,58.4188 109.998,55.0855 115.5,51.5C 117.902,55.0785 121.235,56.2451 125.5,55C 135.5,49.3333 145.5,43.6667 155.5,38C 157.833,37.3333 160.167,37.3333 162.5,38C 206.5,63.3333 250.5,88.6667 294.5,114C 297.266,115.371 299.599,117.204 301.5,119.5 Z"/></g>
<g><path style="opacity:1" fill="#050505" d="M 104.5,78.5 C 112.161,77.663 115.661,80.9964 115,88.5C 114.167,89.5 113.333,90.5 112.5,91.5C 97.33,100.586 81.9966,109.419 66.5,118C 58.212,119.291 55.0454,115.791 57,107.5C 57.8333,106.667 58.6667,105.833 59.5,105C 74.8924,96.6445 89.8924,87.8111 104.5,78.5 Z"/></g>
<g><path style="opacity:1" fill="#b8e3ee" d="M 16.5,119.5 C 23.8356,125.173 31.8356,129.839 40.5,133.5C 38.5168,138.126 39.5168,141.96 43.5,145C 79.1667,165.5 114.833,186 150.5,206.5C 151.333,231.16 151.833,255.827 152,280.5C 152.792,282.644 154.292,283.977 156.5,284.5C 158.807,291.302 159.14,298.302 157.5,305.5C 155.284,306.203 153.451,307.536 152,309.5C 151.333,317.833 151.333,326.167 152,334.5C 153.076,337.079 154.909,338.746 157.5,339.5C 158.141,344.254 158.474,349.087 158.5,354C 158.493,358.886 157.826,363.386 156.5,367.5C 109.314,341.155 62.4802,314.155 16,286.5C 14.8412,258.751 14.3412,230.918 14.5,203C 14.6667,175.833 14.8333,148.667 15,121.5C 15.2784,120.584 15.7784,119.918 16.5,119.5 Z"/></g>
<g><path style="opacity:1" fill="#92d6e2" d="M 301.5,119.5 C 302.222,119.918 302.722,120.584 303,121.5C 303.667,152.5 303.667,183.5 303,214.5C 284.079,226.045 264.913,237.212 245.5,248C 241.48,251.011 238.647,254.844 237,259.5C 236.833,281.508 236.333,303.508 235.5,325.5C 210.962,339.867 186.296,354.033 161.5,368C 159.613,368.78 157.946,368.613 156.5,367.5C 157.826,363.386 158.493,358.886 158.5,354C 158.474,349.087 158.141,344.254 157.5,339.5C 160.652,340.041 163.152,339.041 165,336.5C 166.112,331.777 166.612,326.944 166.5,322C 166.333,317.833 166.167,313.667 166,309.5C 164.106,306.156 161.273,304.822 157.5,305.5C 159.14,298.302 158.807,291.302 156.5,284.5C 161.181,285.544 164.348,283.877 166,279.5C 166.167,255.16 166.667,230.826 167.5,206.5C 202.5,186.333 237.5,166.167 272.5,146C 277.926,143.317 279.593,139.15 277.5,133.5C 286.164,129.839 294.164,125.173 301.5,119.5 Z"/></g>
<g><path style="opacity:1" fill="#030404" d="M 277.5,133.5 C 279.593,139.15 277.926,143.317 272.5,146C 237.5,166.167 202.5,186.333 167.5,206.5C 166.667,230.826 166.167,255.16 166,279.5C 164.348,283.877 161.181,285.544 156.5,284.5C 154.292,283.977 152.792,282.644 152,280.5C 151.833,255.827 151.333,231.16 150.5,206.5C 114.833,186 79.1667,165.5 43.5,145C 39.5168,141.96 38.5168,138.126 40.5,133.5C 43.7075,130.189 47.3741,129.689 51.5,132C 86.9872,153.159 122.821,173.659 159,193.5C 194.386,173.795 229.553,153.628 264.5,133C 269.037,129.548 273.371,129.715 277.5,133.5 Z"/></g>
<g><path style="opacity:1" fill="#d8eff2" d="M 494.5,261.5 C 494.586,262.496 494.252,263.329 493.5,264C 487.806,267.179 482.139,270.345 476.5,273.5C 473.754,270.695 470.421,269.861 466.5,271C 435.5,288.833 404.5,306.667 373.5,324.5C 343.63,306.8 313.63,289.3 283.5,272C 280.298,270.517 276.964,270.183 273.5,271C 272.619,271.708 271.953,272.542 271.5,273.5C 264.903,270.225 258.57,266.558 252.5,262.5C 252.953,261.542 253.619,260.708 254.5,260C 293.167,237.667 331.833,215.333 370.5,193C 374.909,192.195 378.909,193.195 382.5,196C 420.061,217.608 457.394,239.441 494.5,261.5 Z"/></g>
<g><path style="opacity:1" fill="#050505" d="M 369.5,204.5 C 377.167,203.024 381,206.024 381,213.5C 380.215,215.286 379.049,216.786 377.5,218C 362.833,226.333 348.167,234.667 333.5,243C 327.742,244.253 324.408,241.919 323.5,236C 323.703,233.594 324.703,231.594 326.5,230C 341.227,221.978 355.56,213.478 369.5,204.5 Z"/></g>
<g><path style="opacity:1" fill="#b8e3ee" d="M 252.5,262.5 C 258.57,266.558 264.903,270.225 271.5,273.5C 270.026,276.831 270.359,279.997 272.5,283C 303.913,300.788 335.079,318.955 366,337.5C 366.333,373.833 366.667,410.167 367,446.5C 368.191,449.534 370.358,451.201 373.5,451.5C 373.5,458.833 373.5,466.167 373.5,473.5C 370.111,472.309 366.778,470.809 363.5,469C 326.087,447.545 288.92,425.712 252,403.5C 251.168,356.332 251.335,309.332 252.5,262.5 Z"/></g>
<g><path style="opacity:0.999" fill="#92d7e3" d="M 494.5,261.5 C 495.222,261.918 495.722,262.584 496,263.5C 496.333,281.167 496.667,298.833 497,316.5C 498.182,320.023 500.682,322.023 504.5,322.5C 504.5,328.833 504.5,335.167 504.5,341.5C 501.413,342.053 498.913,343.72 497,346.5C 496.976,365.923 496.309,385.256 495,404.5C 456.915,426.793 418.749,448.96 380.5,471C 378.35,472.411 376.016,473.245 373.5,473.5C 373.5,466.167 373.5,458.833 373.5,451.5C 377.637,451.518 380.137,449.518 381,445.5C 381.167,409.162 381.667,372.829 382.5,336.5C 412.833,319 443.167,301.5 473.5,284C 477.222,281.203 478.222,277.703 476.5,273.5C 482.139,270.345 487.806,267.179 493.5,264C 494.252,263.329 494.586,262.496 494.5,261.5 Z"/></g>
<g><path style="opacity:1" fill="#030405" d="M 476.5,273.5 C 478.222,277.703 477.222,281.203 473.5,284C 443.167,301.5 412.833,319 382.5,336.5C 381.667,372.829 381.167,409.162 381,445.5C 380.137,449.518 377.637,451.518 373.5,451.5C 370.358,451.201 368.191,449.534 367,446.5C 366.667,410.167 366.333,373.833 366,337.5C 335.079,318.955 303.913,300.788 272.5,283C 270.359,279.997 270.026,276.831 271.5,273.5C 271.953,272.542 272.619,271.708 273.5,271C 276.964,270.183 280.298,270.517 283.5,272C 313.63,289.3 343.63,306.8 373.5,324.5C 404.5,306.667 435.5,288.833 466.5,271C 470.421,269.861 473.754,270.695 476.5,273.5 Z"/></g>
<g><path style="opacity:1" fill="#020203" d="M 157.5,305.5 C 161.273,304.822 164.106,306.156 166,309.5C 166.167,313.667 166.333,317.833 166.5,322C 166.612,326.944 166.112,331.777 165,336.5C 163.152,339.041 160.652,340.041 157.5,339.5C 154.909,338.746 153.076,337.079 152,334.5C 151.333,326.167 151.333,317.833 152,309.5C 153.451,307.536 155.284,306.203 157.5,305.5 Z"/></g>
</svg>
