<?xml version="1.0" encoding="UTF-8"?>
<!DOCTYPE svg PUBLIC "-//W3C//DTD SVG 1.1//EN" "http://www.w3.org/Graphics/SVG/1.1/DTD/svg11.dtd">
<svg xmlns="http://www.w3.org/2000/svg" version="1.1" width="512px" height="512px" style="shape-rendering:geometricPrecision; text-rendering:geometricPrecision; image-rendering:optimizeQuality; fill-rule:evenodd; clip-rule:evenodd" xmlns:xlink="http://www.w3.org/1999/xlink">
<g><path style="opacity:0.962" fill="#000100" d="M 253.5,-0.5 C 254.833,-0.5 256.167,-0.5 257.5,-0.5C 276.672,14.8512 291.172,33.8512 301,56.5C 307.086,71.2818 309.086,86.6151 307,102.5C 301.489,126.178 286.989,141.178 263.5,147.5C 263.333,198.501 263.5,249.501 264,300.5C 271.624,289.42 279.124,278.253 286.5,267C 272.96,232.944 280.96,204.944 310.5,183C 338.698,163.801 369.031,159.467 401.5,170C 411.354,173.753 420.021,179.253 427.5,186.5C 413.744,206.094 400.577,226.094 388,246.5C 377.985,260.519 365.485,271.686 350.5,280C 333.293,286.4 316.293,285.9 299.5,278.5C 287.186,295.113 275.353,312.113 264,329.5C 263.5,337.159 263.334,344.826 263.5,352.5C 258.167,352.5 252.833,352.5 247.5,352.5C 247.667,334.83 247.5,317.164 247,299.5C 235.647,282.113 223.814,265.113 211.5,248.5C 189.581,258.443 168.581,256.609 148.5,243C 138.963,235.13 130.463,226.297 123,216.5C 110.423,196.094 97.2561,176.094 83.5,156.5C 103.722,138.597 127.389,131.431 154.5,135C 180.591,138.708 201.924,150.708 218.5,171C 216.937,172.736 215.27,174.236 213.5,175.5C 210.733,176.051 208.4,177.384 206.5,179.5C 193.032,164.433 176.365,155.1 156.5,151.5C 158.524,160.785 160.357,170.119 162,179.5C 179.68,193.444 196.514,208.444 212.5,224.5C 214.909,219.279 215.909,213.779 215.5,208C 215.928,202.357 214.928,197.024 212.5,192C 214.993,190.581 217.326,189.081 219.5,187.5C 222.006,186.25 224.673,185.584 227.5,185.5C 233.541,203.096 232.541,220.263 224.5,237C 231.876,248.253 239.376,259.42 247,270.5C 247.5,229.501 247.667,188.501 247.5,147.5C 228.577,142.622 215.077,131.289 207,113.5C 200.193,89.9249 202.86,67.2583 215,45.5C 224.776,27.5615 237.61,12.2282 253.5,-0.5 Z"/></g>
<g><path style="opacity:1" fill="#38bd79" d="M 261.5,24.5 C 247.012,40.8133 237.845,59.8133 234,81.5C 231.837,98.1979 236.17,112.865 247,125.5C 247.495,127.473 247.662,129.473 247.5,131.5C 225.368,122.255 215.868,105.588 219,81.5C 224.186,57.0227 236.02,36.5227 254.5,20C 257.386,20.4538 259.719,21.9538 261.5,24.5 Z"/></g>
<g><path style="opacity:1" fill="#78d4a4" d="M 261.5,24.5 C 279.436,42.2099 289.77,63.7099 292.5,89C 292.522,109.806 282.855,123.973 263.5,131.5C 262.5,113.846 262.167,96.1792 262.5,78.5C 257.833,78.5 253.167,78.5 248.5,78.5C 248.83,96.3412 248.497,114.008 247.5,131.5C 247.662,129.473 247.495,127.473 247,125.5C 236.17,112.865 231.837,98.1979 234,81.5C 237.845,59.8133 247.012,40.8133 261.5,24.5 Z"/></g>
<g><path style="opacity:1" fill="#beedd4" d="M 248.5,48.5 C 248.5,53.1667 248.5,57.8333 248.5,62.5C 253.167,62.5 257.833,62.5 262.5,62.5C 262.5,57.8333 262.5,53.1667 262.5,48.5C 263.487,53.3054 263.821,58.3054 263.5,63.5C 258.167,63.5 252.833,63.5 247.5,63.5C 247.179,58.3054 247.513,53.3054 248.5,48.5 Z"/></g>
<g><path style="opacity:1" fill="#fefffe" d="M 248.5,48.5 C 253.167,48.5 257.833,48.5 262.5,48.5C 262.5,53.1667 262.5,57.8333 262.5,62.5C 257.833,62.5 253.167,62.5 248.5,62.5C 248.5,57.8333 248.5,53.1667 248.5,48.5 Z"/></g>
<g><path style="opacity:1" fill="#73cc9e" d="M 131.5,149.5 C 134.833,149.5 138.167,149.5 141.5,149.5C 142.54,155.851 143.373,162.184 144,168.5C 134.6,163.05 124.766,158.55 114.5,155C 120.137,152.682 125.803,150.849 131.5,149.5 Z"/></g>
<g><path style="opacity:0.999" fill="#79d7a6" d="M 213.5,175.5 C 215.904,179.255 217.904,183.255 219.5,187.5C 217.326,189.081 214.993,190.581 212.5,192C 214.928,197.024 215.928,202.357 215.5,208C 215.909,213.779 214.909,219.279 212.5,224.5C 196.514,208.444 179.68,193.444 162,179.5C 160.357,170.119 158.524,160.785 156.5,151.5C 176.365,155.1 193.032,164.433 206.5,179.5C 208.4,177.384 210.733,176.051 213.5,175.5 Z"/></g>
<g><path style="opacity:1" fill="#38bd78" d="M 134.5,180.5 C 141.693,192.698 149.693,204.365 158.5,215.5C 154.307,217.401 149.973,218.568 145.5,219C 133.265,203.869 122.265,187.869 112.5,171C 120.393,172.778 127.727,175.944 134.5,180.5 Z"/></g>
<g><path style="opacity:1" fill="#41745a" d="M 377.5,180.5 C 374.721,180.279 372.054,180.612 369.5,181.5C 370.334,180.252 371.667,179.585 373.5,179.5C 375.045,179.511 376.378,179.844 377.5,180.5 Z"/></g>
<g><path style="opacity:1" fill="#74cfa0" d="M 377.5,180.5 C 384.172,180.585 390.505,182.085 396.5,185C 386.203,188.566 376.37,193.066 367,198.5C 367.37,192.807 368.203,187.14 369.5,181.5C 372.054,180.612 374.721,180.279 377.5,180.5 Z"/></g>
<g><path style="opacity:1" fill="#77d5a5" d="M 134.5,180.5 C 148.779,188.227 161.946,197.56 174,208.5C 174.591,209.483 174.257,210.15 173,210.5C 168.101,212.077 163.268,213.744 158.5,215.5C 149.693,204.365 141.693,192.698 134.5,180.5 Z"/></g>
<g><path style="opacity:1" fill="#79d7a6" d="M 349.5,181.5 C 351.167,181.5 352.833,181.5 354.5,181.5C 352.478,190.779 350.644,200.112 349,209.5C 331.32,223.444 314.486,238.444 298.5,254.5C 292.521,237.765 295.021,222.432 306,208.5C 317.972,195.272 332.472,186.272 349.5,181.5 Z"/></g>
<g><path style="opacity:1" fill="#38bc78" d="M 352.5,245.5 C 361.638,234.034 369.972,222.034 377.5,209.5C 384.132,205.509 391.132,202.676 398.5,201C 388.735,217.869 377.735,233.869 365.5,249C 361.033,248.57 356.699,247.404 352.5,245.5 Z"/></g>
<g><path style="opacity:1" fill="#77d4a4" d="M 377.5,209.5 C 369.972,222.034 361.638,234.034 352.5,245.5C 346.457,244.214 341.29,241.881 337,238.5C 349.543,227.451 363.043,217.784 377.5,209.5 Z"/></g>
<g><path style="opacity:1" fill="#78d5a5" d="M 184.5,239.5 C 178.953,236.221 173.953,232.221 169.5,227.5C 175.693,224.933 182.026,223.1 188.5,222C 193.015,226.348 197.349,230.848 201.5,235.5C 196.104,237.932 190.437,239.266 184.5,239.5 Z"/></g>
<g><path style="opacity:1" fill="#37b775" d="M 169.5,227.5 C 173.953,232.221 178.953,236.221 184.5,239.5C 175.106,239.758 166.772,236.924 159.5,231C 162.748,229.54 166.081,228.374 169.5,227.5 Z"/></g>
<g><path style="opacity:1" fill="#77d4a4" d="M 341.5,257.5 C 337.047,262.221 332.047,266.221 326.5,269.5C 320.384,269.887 314.718,268.554 309.5,265.5C 313.651,260.848 317.985,256.348 322.5,252C 328.943,253.208 335.276,255.041 341.5,257.5 Z"/></g>
<g><path style="opacity:1" fill="#38bb78" d="M 341.5,257.5 C 344.767,258.756 348.101,259.923 351.5,261C 344.119,266.516 335.785,269.35 326.5,269.5C 332.047,266.221 337.047,262.221 341.5,257.5 Z"/></g>
<g><path style="opacity:0.96" fill="#000101" d="M 263.5,511.5 C 258.167,511.5 252.833,511.5 247.5,511.5C 247.667,491.497 247.5,471.497 247,451.5C 235,434.167 223,416.833 211,399.5C 180.694,413.39 152.861,409.557 127.5,388C 122,382.5 116.5,377 111,371.5C 94.4311,349.268 78.2645,326.768 62.5,304C 77.4738,290.351 95.1404,282.351 115.5,280C 154.571,275.798 187.738,287.631 215,315.5C 232.398,337.913 235.231,362.079 223.5,388C 230.962,399.76 238.796,411.26 247,422.5C 247.5,413.84 247.666,405.173 247.5,396.5C 252.833,396.5 258.167,396.5 263.5,396.5C 263.333,415.17 263.5,433.836 264,452.5C 272.204,441.26 280.038,429.76 287.5,418C 273.644,385.754 279.977,358.087 306.5,335C 341.875,308.517 380.541,302.517 422.5,317C 432.222,321.185 440.888,326.852 448.5,334C 432.736,356.768 416.569,379.268 400,401.5C 391.015,411.827 380.849,420.66 369.5,428C 346.569,440.08 323.403,440.58 300,429.5C 288,446.833 276,464.167 264,481.5C 263.5,491.494 263.334,501.494 263.5,511.5 Z"/></g>
<g><path style="opacity:1" fill="#79d7a7" d="M 176.5,392.5 C 163.74,384.925 152.24,375.592 142,364.5C 125.78,344.945 111.113,324.278 98,302.5C 97.3292,301.748 96.4959,301.414 95.5,301.5C 105.817,296.508 116.817,294.175 128.5,294.5C 153.619,294.705 175.952,302.538 195.5,318C 209.877,330.248 216.377,345.748 215,364.5C 214.743,368.377 213.743,372.043 212,375.5C 192.321,353.935 169.821,336.101 144.5,322C 138.792,318.977 132.792,316.811 126.5,315.5C 125.508,319.482 124.508,323.482 123.5,327.5C 152.443,342.222 178.276,361.555 201,385.5C 201.688,386.332 201.521,386.998 200.5,387.5C 192.857,390.79 184.857,392.457 176.5,392.5 Z"/></g>
<g><path style="opacity:1" fill="#38be79" d="M 95.5,301.5 C 96.4959,301.414 97.3292,301.748 98,302.5C 111.113,324.278 125.78,344.945 142,364.5C 152.24,375.592 163.74,384.925 176.5,392.5C 161.637,391.402 148.637,385.902 137.5,376C 127.255,365.759 117.755,354.926 109,343.5C 101.029,331.363 92.8622,319.363 84.5,307.5C 87.7054,304.729 91.3721,302.729 95.5,301.5 Z"/></g>
<g><path style="opacity:1" fill="#79d7a6" d="M 414.5,330.5 C 402.33,350.168 389.163,369.168 375,387.5C 363.282,401.41 349.782,413.077 334.5,422.5C 326.103,422.734 318.103,421.067 310.5,417.5C 309.479,416.998 309.312,416.332 310,415.5C 332.638,391.629 358.472,372.296 387.5,357.5C 386.492,353.482 385.492,349.482 384.5,345.5C 377.522,347.155 370.855,349.655 364.5,353C 340.068,367.081 318.235,384.581 299,405.5C 292.109,387.062 295.109,370.395 308,355.5C 338.414,325.856 373.914,317.522 414.5,330.5 Z"/></g>
<g><path style="opacity:1" fill="#39be79" d="M 414.5,330.5 C 418.836,332.332 422.836,334.665 426.5,337.5C 413.735,356.697 400.235,375.364 386,393.5C 375.471,406.51 362.304,415.676 346.5,421C 342.534,421.828 338.534,422.328 334.5,422.5C 349.782,413.077 363.282,401.41 375,387.5C 389.163,369.168 402.33,350.168 414.5,330.5 Z"/></g>
<g><path style="opacity:0.879" fill="#000000" d="M 247.5,366.5 C 252.833,366.5 258.167,366.5 263.5,366.5C 263.5,371.833 263.5,377.167 263.5,382.5C 258.167,382.5 252.833,382.5 247.5,382.5C 247.5,377.167 247.5,371.833 247.5,366.5 Z"/></g>
</svg>
