<?xml version="1.0" encoding="UTF-8"?>
<!DOCTYPE svg PUBLIC "-//W3C//DTD SVG 1.1//EN" "http://www.w3.org/Graphics/SVG/1.1/DTD/svg11.dtd">
<svg xmlns="http://www.w3.org/2000/svg" version="1.1" width="512px" height="512px" style="shape-rendering:geometricPrecision; text-rendering:geometricPrecision; image-rendering:optimizeQuality; fill-rule:evenodd; clip-rule:evenodd" xmlns:xlink="http://www.w3.org/1999/xlink">
<g><path style="opacity:0.982" fill="#010000" d="M 310.5,-0.5 C 321.167,-0.5 331.833,-0.5 342.5,-0.5C 396.415,9.23943 431.915,40.2394 449,92.5C 455.111,115.556 454.944,138.556 448.5,161.5C 499.801,206.986 517.635,263.32 502,330.5C 496.278,351.612 486.612,370.612 473,387.5C 452.734,410.102 430.901,430.936 407.5,450C 366.871,477.595 322.204,487.595 273.5,480C 260.231,476.683 246.898,473.683 233.5,471C 221.839,470.333 210.505,471.999 199.5,476C 177.5,486 155.5,496 133.5,506C 127.469,508.168 121.469,510.001 115.5,511.5C 107.5,511.5 99.5,511.5 91.5,511.5C 75.3099,507.624 58.9765,503.791 42.5,500C 17.2153,490.446 4.21534,472.113 3.5,445C 3.2726,431.297 7.43927,419.13 16,408.5C 73.8333,346.167 131.667,283.833 189.5,221.5C 179.244,209.705 166.244,203.205 150.5,202C 129.761,200.661 109.094,198.661 88.5,196C 80.6089,193.388 73.2755,189.721 66.5,185C 54.6772,175.177 43.5106,164.677 33,153.5C 21.1136,132.599 22.4469,112.599 37,93.5C 41.714,88.5579 47.214,84.7246 53.5,82C 131.438,56.1319 209.438,30.4652 287.5,5C 295.194,2.69968 302.86,0.866349 310.5,-0.5 Z"/></g>
<g><path style="opacity:1" fill="#fdead2" d="M 405.5,74.5 C 346.202,65.4501 293.536,79.9501 247.5,118C 227.602,138.395 207.935,158.895 188.5,179.5C 181.086,176.307 173.419,173.807 165.5,172C 147.217,169.628 128.883,167.795 110.5,166.5C 134.897,138.932 160.23,112.098 186.5,86C 195.883,78.2828 205.549,70.9494 215.5,64C 214.906,63.5357 214.239,63.369 213.5,63.5C 246.06,51.9256 279.06,41.4256 312.5,32C 351.897,28.3733 382.897,42.54 405.5,74.5 Z"/></g>
<g><path style="opacity:1" fill="#fcf6f0" d="M 213.5,63.5 C 214.239,63.369 214.906,63.5357 215.5,64C 205.549,70.9494 195.883,78.2828 186.5,86C 160.23,112.098 134.897,138.932 110.5,166.5C 100.563,167.353 91.8963,164.519 84.5,158C 78.5,152.667 72.5,147.333 66.5,142C 57.2259,135.287 55.0592,126.787 60,116.5C 61.9384,113.894 64.4384,112.061 67.5,111C 116.092,94.858 164.759,79.0247 213.5,63.5 Z"/></g>
<g><path style="opacity:1" fill="#fcdebb" d="M 405.5,74.5 C 419.832,95.4999 424.498,118.5 419.5,143.5C 337.676,111.093 269.009,128.927 213.5,197C 212.5,197.667 211.5,197.667 210.5,197C 203.843,190.161 196.51,184.328 188.5,179.5C 207.935,158.895 227.602,138.395 247.5,118C 293.536,79.9501 346.202,65.4501 405.5,74.5 Z"/></g>
<g><path style="opacity:1" fill="#fcf6f0" d="M 424.5,184.5 C 423.653,185.966 422.32,186.8 420.5,187C 369.018,200.986 317.351,201.82 265.5,189.5C 289.101,168.89 316.767,158.557 348.5,158.5C 376.604,159.423 401.937,168.089 424.5,184.5 Z"/></g>
<g><path style="opacity:1" fill="#fef2e4" d="M 424.5,184.5 C 442.409,198.057 455.743,215.057 464.5,235.5C 464.489,237.017 463.823,238.184 462.5,239C 419.288,262.128 373.288,270.795 324.5,265C 303.834,260.334 283.167,255.667 262.5,251C 240.626,248.625 219.626,251.791 199.5,260.5C 198.893,260.376 198.56,260.043 198.5,259.5C 214.794,241.37 231.294,223.37 248,205.5C 253.424,199.569 259.258,194.236 265.5,189.5C 317.351,201.82 369.018,200.986 420.5,187C 422.32,186.8 423.653,185.966 424.5,184.5 Z"/></g>
<g><path style="opacity:1" fill="#050505" d="M 326.5,223.5 C 340.504,223.333 354.504,223.5 368.5,224C 377.436,228.038 380.936,234.871 379,244.5C 376.668,250.164 372.501,253.664 366.5,255C 353.5,255.667 340.5,255.667 327.5,255C 316.361,249.894 313.195,241.727 318,230.5C 320.441,227.546 323.275,225.213 326.5,223.5 Z"/></g>
<g><path style="opacity:1" fill="#fdead2" d="M 464.5,235.5 C 474.687,256.632 478.187,278.965 475,302.5C 474.514,308.111 473.347,313.444 471.5,318.5C 433.129,341.287 391.795,349.12 347.5,342C 346.244,341.583 345.577,340.75 345.5,339.5C 349.13,328.926 345.797,321.426 335.5,317C 301.5,316.333 267.5,316.333 233.5,317C 222.895,323.319 220.728,331.819 227,342.5C 229.603,345.278 232.77,346.944 236.5,347.5C 236.918,348.222 237.584,348.722 238.5,349C 222.5,356.333 206.5,363.667 190.5,371C 179.651,375.903 168.318,377.569 156.5,376C 138.42,372.146 120.42,367.98 102.5,363.5C 134.16,328.507 166.16,293.84 198.5,259.5C 198.56,260.043 198.893,260.376 199.5,260.5C 219.626,251.791 240.626,248.625 262.5,251C 283.167,255.667 303.834,260.334 324.5,265C 373.288,270.795 419.288,262.128 462.5,239C 463.823,238.184 464.489,237.017 464.5,235.5 Z"/></g>
<g><path style="opacity:1" fill="#010100" d="M 345.5,339.5 C 343.3,342.858 340.3,345.358 336.5,347C 303.168,347.5 269.835,347.667 236.5,347.5C 232.77,346.944 229.603,345.278 227,342.5C 220.728,331.819 222.895,323.319 233.5,317C 267.5,316.333 301.5,316.333 335.5,317C 345.797,321.426 349.13,328.926 345.5,339.5 Z"/></g>
<g><path style="opacity:1" fill="#fddebb" d="M 471.5,318.5 C 466.712,337.409 458.212,354.409 446,369.5C 430.138,385.696 413.971,401.529 397.5,417C 361.886,445.282 321.553,455.615 276.5,448C 263.97,444.378 251.303,441.378 238.5,439C 220.916,437.097 203.916,439.431 187.5,446C 162.666,457.389 137.666,468.389 112.5,479C 106.5,479.667 100.5,479.667 94.5,479C 80.1813,475.559 65.848,472.225 51.5,469C 38.7996,462.767 33.6329,452.6 36,438.5C 36.9562,435.623 38.2895,432.956 40,430.5C 60.3855,407.712 81.2188,385.378 102.5,363.5C 120.42,367.98 138.42,372.146 156.5,376C 168.318,377.569 179.651,375.903 190.5,371C 206.5,363.667 222.5,356.333 238.5,349C 237.584,348.722 236.918,348.222 236.5,347.5C 269.835,347.667 303.168,347.5 336.5,347C 340.3,345.358 343.3,342.858 345.5,339.5C 345.577,340.75 346.244,341.583 347.5,342C 391.795,349.12 433.129,341.287 471.5,318.5 Z"/></g>
</svg>
