<?xml version="1.0" encoding="UTF-8"?>
<!DOCTYPE svg PUBLIC "-//W3C//DTD SVG 1.1//EN" "http://www.w3.org/Graphics/SVG/1.1/DTD/svg11.dtd">
<svg xmlns="http://www.w3.org/2000/svg" version="1.1" width="512px" height="512px" style="shape-rendering:geometricPrecision; text-rendering:geometricPrecision; image-rendering:optimizeQuality; fill-rule:evenodd; clip-rule:evenodd" xmlns:xlink="http://www.w3.org/1999/xlink">
<g><path style="opacity:0.982" fill="#010100" d="M 310.5,-0.5 C 321.167,-0.5 331.833,-0.5 342.5,-0.5C 396.415,9.23943 431.915,40.2394 449,92.5C 455.111,115.556 454.944,138.556 448.5,161.5C 499.801,206.986 517.635,263.32 502,330.5C 496.278,351.612 486.612,370.612 473,387.5C 452.734,410.102 430.901,430.936 407.5,450C 366.871,477.595 322.204,487.595 273.5,480C 260.231,476.683 246.898,473.683 233.5,471C 221.839,470.333 210.505,471.999 199.5,476C 177.5,486 155.5,496 133.5,506C 127.469,508.168 121.469,510.001 115.5,511.5C 107.5,511.5 99.5,511.5 91.5,511.5C 75.3099,507.624 58.9765,503.791 42.5,500C 17.2153,490.446 4.21534,472.113 3.5,445C 3.2726,431.297 7.43927,419.13 16,408.5C 73.8333,346.167 131.667,283.833 189.5,221.5C 179.244,209.705 166.244,203.205 150.5,202C 129.761,200.661 109.094,198.661 88.5,196C 80.6089,193.388 73.2755,189.721 66.5,185C 54.6772,175.177 43.5106,164.677 33,153.5C 21.1136,132.599 22.4469,112.599 37,93.5C 41.714,88.5579 47.214,84.7246 53.5,82C 131.438,56.1319 209.438,30.4652 287.5,5C 295.194,2.69968 302.86,0.866349 310.5,-0.5 Z"/></g>
<g><path style="opacity:1" fill="#fdc58e" d="M 405.5,74.5 C 398.47,74.2102 391.47,73.5435 384.5,72.5C 376.16,73.7557 367.827,73.7557 359.5,72.5C 348.42,73.9261 337.42,75.7595 326.5,78C 313.357,82.294 300.357,86.9606 287.5,92C 286.62,93.3561 286.286,94.8561 286.5,96.5C 284.856,96.7135 283.356,96.3802 282,95.5C 272.346,100.471 263.179,106.305 254.5,113C 231.784,134.875 210.118,157.375 189.5,180.5C 180.64,176.047 171.307,172.88 161.5,171C 144.833,169.389 128.166,167.889 111.5,166.5C 136.962,139.203 162.629,112.036 188.5,85C 198.82,77.3685 208.82,69.5352 218.5,61.5C 249.537,50.7657 280.87,40.9324 312.5,32C 351.915,28.3825 382.915,42.5492 405.5,74.5 Z"/></g>
<g><path style="opacity:1" fill="#fddec1" d="M 218.5,61.5 C 208.82,69.5352 198.82,77.3685 188.5,85C 162.629,112.036 136.962,139.203 111.5,166.5C 103.187,167.139 95.5207,165.306 88.5,161C 78.702,152.871 69.202,144.371 60,135.5C 55.7908,127.098 56.9574,119.598 63.5,113C 115.017,95.3277 166.683,78.1611 218.5,61.5 Z"/></g>
<g><path style="opacity:1" fill="#fcbc7c" d="M 405.5,74.5 C 419.832,95.4999 424.498,118.5 419.5,143.5C 337.644,110.963 268.978,128.796 213.5,197C 212.5,197.667 211.5,197.667 210.5,197C 204.199,190.523 197.199,185.023 189.5,180.5C 210.118,157.375 231.784,134.875 254.5,113C 263.179,106.305 272.346,100.471 282,95.5C 283.356,96.3802 284.856,96.7135 286.5,96.5C 286.286,94.8561 286.62,93.3561 287.5,92C 300.357,86.9606 313.357,82.294 326.5,78C 337.42,75.7595 348.42,73.9261 359.5,72.5C 367.827,73.7557 376.16,73.7557 384.5,72.5C 391.47,73.5435 398.47,74.2102 405.5,74.5 Z"/></g>
<g><path style="opacity:1" fill="#fddfc2" d="M 466.5,239.5 C 465.85,239.196 465.183,238.863 464.5,238.5C 414.732,265.739 362.065,273.572 306.5,262C 294.829,258.998 283.162,255.998 271.5,253C 245.484,248.423 220.484,251.589 196.5,262.5C 213.652,243.564 230.819,224.564 248,205.5C 290.768,159.434 341.602,147.601 400.5,170C 431.3,184.963 453.3,208.13 466.5,239.5 Z"/></g>
<g><path style="opacity:1" fill="#050505" d="M 326.5,223.5 C 340.504,223.333 354.504,223.5 368.5,224C 377.436,228.038 380.936,234.871 379,244.5C 376.668,250.164 372.501,253.664 366.5,255C 353.5,255.667 340.5,255.667 327.5,255C 316.361,249.894 313.195,241.727 318,230.5C 320.441,227.546 323.275,225.213 326.5,223.5 Z"/></g>
<g><path style="opacity:1" fill="#fcc58e" d="M 466.5,239.5 C 474.585,259.636 477.419,280.636 475,302.5C 474.307,309.48 472.807,316.147 470.5,322.5C 470.631,321.624 470.298,320.957 469.5,320.5C 466.5,322.667 463.5,324.833 460.5,327C 456.462,327.899 452.795,329.566 449.5,332C 439.546,335.325 429.546,338.659 419.5,342C 406.265,344.006 392.932,345.172 379.5,345.5C 367.467,344.829 355.467,343.829 343.5,342.5C 348.349,333.81 347.349,325.977 340.5,319C 338.913,318.138 337.246,317.471 335.5,317C 301.5,316.333 267.5,316.333 233.5,317C 222.895,323.319 220.728,331.819 227,342.5C 229.08,344.123 231.246,345.623 233.5,347C 266.832,347.5 300.165,347.667 333.5,347.5C 302.338,348.498 271.004,348.832 239.5,348.5C 239.67,349.822 239.337,350.989 238.5,352C 223.248,357.522 208.581,364.189 194.5,372C 179.59,377.75 164.257,379.084 148.5,376C 132.843,372.121 117.177,368.287 101.5,364.5C 132.461,329.872 164.127,295.872 196.5,262.5C 220.484,251.589 245.484,248.423 271.5,253C 283.162,255.998 294.829,258.998 306.5,262C 362.065,273.572 414.732,265.739 464.5,238.5C 465.183,238.863 465.85,239.196 466.5,239.5 Z"/></g>
<g><path style="opacity:1" fill="#000000" d="M 343.5,342.5 C 340.718,345.224 337.385,346.891 333.5,347.5C 300.165,347.667 266.832,347.5 233.5,347C 231.246,345.623 229.08,344.123 227,342.5C 220.728,331.819 222.895,323.319 233.5,317C 267.5,316.333 301.5,316.333 335.5,317C 337.246,317.471 338.913,318.138 340.5,319C 347.349,325.977 348.349,333.81 343.5,342.5 Z"/></g>
<g><path style="opacity:1" fill="#fdbc7c" d="M 470.5,322.5 C 465.479,339.877 457.313,355.543 446,369.5C 430.138,385.696 413.971,401.529 397.5,417C 361.808,445.007 321.474,455.34 276.5,448C 263.976,444.38 251.309,441.38 238.5,439C 219.044,437.124 200.377,440.124 182.5,448C 159.174,459.164 135.508,469.497 111.5,479C 105.833,479.667 100.167,479.667 94.5,479C 80.1813,475.559 65.848,472.225 51.5,469C 38.8053,462.779 33.6387,452.612 36,438.5C 36.9562,435.623 38.2895,432.956 40,430.5C 60.2842,408.236 80.7842,386.236 101.5,364.5C 117.177,368.287 132.843,372.121 148.5,376C 164.257,379.084 179.59,377.75 194.5,372C 208.581,364.189 223.248,357.522 238.5,352C 239.337,350.989 239.67,349.822 239.5,348.5C 271.004,348.832 302.338,348.498 333.5,347.5C 337.385,346.891 340.718,345.224 343.5,342.5C 355.467,343.829 367.467,344.829 379.5,345.5C 392.932,345.172 406.265,344.006 419.5,342C 429.546,338.659 439.546,335.325 449.5,332C 452.795,329.566 456.462,327.899 460.5,327C 463.5,324.833 466.5,322.667 469.5,320.5C 470.298,320.957 470.631,321.624 470.5,322.5 Z"/></g>
</svg>
