<?xml version="1.0" encoding="UTF-8"?>
<!DOCTYPE svg PUBLIC "-//W3C//DTD SVG 1.1//EN" "http://www.w3.org/Graphics/SVG/1.1/DTD/svg11.dtd">
<svg xmlns="http://www.w3.org/2000/svg" version="1.1" width="512px" height="512px" style="shape-rendering:geometricPrecision; text-rendering:geometricPrecision; image-rendering:optimizeQuality; fill-rule:evenodd; clip-rule:evenodd" xmlns:xlink="http://www.w3.org/1999/xlink">
<g><path style="opacity:0.971" fill="#020202" d="M 511.5,341.5 C 511.5,352.167 511.5,362.833 511.5,373.5C 503.401,423.113 476.068,457.613 429.5,477C 374.083,496.906 318.416,497.572 262.5,479C 204.167,455.194 175.167,411.694 175.5,348.5C 140.757,349.717 107.424,343.551 75.5,330C 32.5109,309.845 7.1776,276.345 -0.5,229.5C -0.5,218.833 -0.5,208.167 -0.5,197.5C 3.16572,172.833 13.3324,151.166 30,132.5C 39.2311,122.599 49.0644,113.433 59.5,105C 84.1149,87.3857 108.448,69.3857 132.5,51C 141.581,41.9232 149.914,32.2565 157.5,22C 166.222,17.7641 174.055,18.9307 181,25.5C 187.67,36.1785 195.837,45.6785 205.5,54C 225.887,69.387 246.553,84.387 267.5,99C 275.5,105.667 283.5,112.333 291.5,119C 307.522,134.016 320.022,151.516 329,171.5C 334.731,163.595 342.231,161.428 351.5,165C 357.405,169.909 362.238,175.742 366,182.5C 371.167,187.667 376.333,192.833 381.5,198C 403.656,214.578 425.989,230.911 448.5,247C 469.225,262.053 486.058,280.553 499,302.5C 505.116,315.01 509.283,328.01 511.5,341.5 Z"/></g>
<g><path style="opacity:1" fill="#a990db" d="M 228.5,116.5 C 229.971,122.785 232.971,128.118 237.5,132.5C 235.119,134.239 233.452,136.572 232.5,139.5C 247.225,172.417 251.725,206.75 246,242.5C 228.022,255.813 212.022,271.146 198,288.5C 188.514,301.808 182.014,316.474 178.5,332.5C 144.913,335.292 120.08,321.959 104,292.5C 94.2624,272.617 88.5957,251.617 87,229.5C 83.4047,191.804 91.4047,156.804 111,124.5C 124.423,105.988 138.09,87.6548 152,69.5C 157.761,60.9835 162.761,51.9835 167,42.5C 171.601,51.425 176.601,60.0917 182,68.5C 194.451,85.2861 207.285,101.786 220.5,118C 223.407,118.718 226.074,118.218 228.5,116.5 Z"/></g>
<g><path style="opacity:1" fill="#9476cb" d="M 129.5,72.5 C 130.525,72.8966 130.692,73.5632 130,74.5C 114.115,92.5964 100.448,112.263 89,133.5C 73.5343,166.545 68.201,201.212 73,237.5C 75.5184,264.725 84.1851,289.725 99,312.5C 102.465,316.967 106.298,321.133 110.5,325C 71.3379,316.833 42.5046,294.999 24,259.5C 6.4582,217.289 12.1249,178.622 41,143.5C 64.7396,120.232 90.5729,99.732 118.5,82C 122.359,78.9684 126.026,75.8017 129.5,72.5 Z"/></g>
<g><path style="opacity:1" fill="#c5ade8" d="M 237.5,132.5 C 232.971,128.118 229.971,122.785 228.5,116.5C 230.432,113.823 230.932,110.823 230,107.5C 221.864,96.0637 213.364,84.8971 204.5,74C 233.841,92.8018 261.675,113.968 288,137.5C 299.791,149.64 308.791,163.64 315,179.5C 316.164,182.481 316.831,185.481 317,188.5C 299.905,203.708 281.905,217.708 263,230.5C 265.774,197.711 260.44,166.378 247,136.5C 244.592,133.38 241.426,132.047 237.5,132.5 Z"/></g>
<g><path style="opacity:1" fill="#fbf2d4" d="M 342.5,179.5 C 343.675,179.281 344.675,179.614 345.5,180.5C 352.864,191.372 361.531,201.205 371.5,210C 393.656,226.578 415.989,242.911 438.5,259C 452.754,270.043 465.587,282.543 477,296.5C 496.977,325.325 501.977,356.658 492,390.5C 481.659,422.018 461.492,444.851 431.5,459C 390.367,476.407 347.701,481.407 303.5,474C 268.773,469.215 239.606,454.048 216,428.5C 192.553,398.026 185.553,364.026 195,326.5C 199.109,314.945 204.776,304.278 212,294.5C 222.867,281.965 234.701,270.465 247.5,260C 272.523,242.154 297.19,223.821 321.5,205C 329.467,197.208 336.467,188.708 342.5,179.5 Z"/></g>
<g><path style="opacity:1" fill="#050303" d="M 375.5,243.5 C 373.471,245.07 371.138,246.07 368.5,246.5C 363.104,243.47 357.437,240.97 351.5,239C 343.173,237.685 335.173,238.685 327.5,242C 302.632,259.268 278.299,277.268 254.5,296C 241.068,307.706 231.235,321.873 225,338.5C 217.505,384.689 235.338,416.522 278.5,434C 312.421,447.698 330.088,436.198 331.5,399.5C 330.742,387.096 336.409,381.596 348.5,383C 351,384.167 352.833,386 354,388.5C 355.373,393.072 356.206,397.739 356.5,402.5C 356.323,412.077 358.489,421.077 363,429.5C 369.578,437.692 378.078,441.192 388.5,440C 415.305,434.694 436.805,421.194 453,399.5C 472.601,363.241 467.767,330.741 438.5,302C 422.306,287.659 405.473,274.159 388,261.5C 385.88,258.303 386.047,255.303 388.5,252.5C 391.461,249.425 394.794,248.925 398.5,251C 422.137,266.634 443.303,285.134 462,306.5C 481.971,334.983 484.971,365.316 471,397.5C 458.392,421.773 439.226,438.606 413.5,448C 405.954,450.738 398.287,453.071 390.5,455C 366.757,455.919 351.257,445.086 344,422.5C 332.382,451.552 311.548,461.052 281.5,451C 220.974,429.115 198.474,386.948 214,324.5C 222.499,308.323 233.665,294.156 247.5,282C 266.552,267.281 285.885,252.948 305.5,239C 311.566,234.605 317.9,230.605 324.5,227C 342.72,220.377 359.553,222.877 375,234.5C 376.818,237.416 376.984,240.416 375.5,243.5 Z"/></g>
<g><path style="opacity:1" fill="#e4636d" d="M 375.5,243.5 C 379.553,246.883 383.886,249.883 388.5,252.5C 386.047,255.303 385.88,258.303 388,261.5C 405.473,274.159 422.306,287.659 438.5,302C 467.767,330.741 472.601,363.241 453,399.5C 436.805,421.194 415.305,434.694 388.5,440C 378.078,441.192 369.578,437.692 363,429.5C 358.489,421.077 356.323,412.077 356.5,402.5C 384.287,394.357 398.621,375.691 399.5,346.5C 399.347,334.209 395.514,323.209 388,313.5C 386.195,311.174 384.028,309.508 381.5,308.5C 387.874,308.627 392.707,305.96 396,300.5C 396.882,293.382 393.716,290.216 386.5,291C 381.104,293.217 377.771,297.05 376.5,302.5C 354.393,289.304 332.393,289.304 310.5,302.5C 308.326,294.417 303.326,291.584 295.5,294C 291.694,301.562 293.694,307.062 301.5,310.5C 280.736,340.181 283.403,367.681 309.5,393C 315.759,397.796 322.759,400.963 330.5,402.5C 330.263,401.209 330.596,400.209 331.5,399.5C 330.088,436.198 312.421,447.698 278.5,434C 235.338,416.522 217.505,384.689 225,338.5C 231.235,321.873 241.068,307.706 254.5,296C 278.299,277.268 302.632,259.268 327.5,242C 335.173,238.685 343.173,237.685 351.5,239C 357.437,240.97 363.104,243.47 368.5,246.5C 371.138,246.07 373.471,245.07 375.5,243.5 Z"/></g>
<g><path style="opacity:1" fill="#070303" d="M 343.5,256.5 C 349.563,255.249 353.229,257.582 354.5,263.5C 353.726,269.236 350.392,272.236 344.5,272.5C 338.089,270.676 336.256,266.676 339,260.5C 340.667,259.267 342.167,257.933 343.5,256.5 Z"/></g>
<g><path style="opacity:1" fill="#050202" d="M 381.5,308.5 C 378.438,307.732 376.772,305.732 376.5,302.5C 377.771,297.05 381.104,293.217 386.5,291C 393.716,290.216 396.882,293.382 396,300.5C 392.707,305.96 387.874,308.627 381.5,308.5 Z"/></g>
<g><path style="opacity:1" fill="#0d0505" d="M 310.5,302.5 C 310.016,307.984 307.016,310.65 301.5,310.5C 293.694,307.062 291.694,301.562 295.5,294C 303.326,291.584 308.326,294.417 310.5,302.5 Z"/></g>
<g><path style="opacity:1" fill="#fd7f86" d="M 376.5,302.5 C 376.772,305.732 378.438,307.732 381.5,308.5C 384.028,309.508 386.195,311.174 388,313.5C 395.514,323.209 399.347,334.209 399.5,346.5C 398.621,375.691 384.287,394.357 356.5,402.5C 356.206,397.739 355.373,393.072 354,388.5C 352.833,386 351,384.167 348.5,383C 336.409,381.596 330.742,387.096 331.5,399.5C 330.596,400.209 330.263,401.209 330.5,402.5C 322.759,400.963 315.759,397.796 309.5,393C 283.403,367.681 280.736,340.181 301.5,310.5C 307.016,310.65 310.016,307.984 310.5,302.5C 332.393,289.304 354.393,289.304 376.5,302.5 Z"/></g>
<g><path style="opacity:1" fill="#0b0505" d="M 331.5,297.5 C 338.263,296.868 342.597,299.701 344.5,306C 343.296,312.106 339.629,314.439 333.5,313C 326.601,308.585 325.934,303.418 331.5,297.5 Z"/></g>
<g><path style="opacity:1" fill="#080303" d="M 408.5,321.5 C 416.744,321.077 420.744,325.077 420.5,333.5C 419.427,339.712 415.76,341.879 409.5,340C 403.646,333.978 403.313,327.811 408.5,321.5 Z"/></g>
<g><path style="opacity:1" fill="#0b0404" d="M 259.5,331.5 C 268.404,331.505 272.237,335.839 271,344.5C 266.412,349.743 261.745,349.743 257,344.5C 253.246,339.194 254.08,334.86 259.5,331.5 Z"/></g>
<g><path style="opacity:1" fill="#0f0807" d="M 353.5,331.5 C 358.899,331.564 362.232,334.23 363.5,339.5C 362.11,344.391 358.943,347.391 354,348.5C 347.894,347.296 345.561,343.629 347,337.5C 349.063,335.266 351.229,333.266 353.5,331.5 Z"/></g>
<g><path style="opacity:1" fill="#090404" d="M 301.5,340.5 C 303.655,340.372 305.655,340.872 307.5,342C 312.645,346.78 315.145,352.614 315,359.5C 312.442,363.212 308.942,364.378 304.5,363C 299.056,357.956 296.556,351.79 297,344.5C 298.397,342.93 299.897,341.596 301.5,340.5 Z"/></g>
<g><path style="opacity:1" fill="#080303" d="M 424.5,359.5 C 433.945,359.115 438.445,363.448 438,372.5C 431.817,378.008 426.15,377.342 421,370.5C 419.663,365.872 420.83,362.205 424.5,359.5 Z"/></g>
<g><path style="opacity:1" fill="#0b0505" d="M 375.5,362.5 C 381.925,361.534 385.592,364.201 386.5,370.5C 386.181,375.485 383.515,378.152 378.5,378.5C 370.599,374.425 369.599,369.092 375.5,362.5 Z"/></g>
<g><path style="opacity:1" fill="#080303" d="M 268.5,369.5 C 276.201,369.362 279.367,373.029 278,380.5C 274.673,386.081 269.84,388.248 263.5,387C 259.874,384.749 258.707,381.582 260,377.5C 262.729,374.601 265.562,371.934 268.5,369.5 Z"/></g>
<g><path style="opacity:1" fill="#0a0404" d="M 401.5,396.5 C 409.641,396.481 412.808,400.481 411,408.5C 406.667,413.833 402.333,413.833 398,408.5C 396.593,403.643 397.76,399.643 401.5,396.5 Z"/></g>
<g><path style="opacity:1" fill="#060202" d="M 295.5,399.5 C 305.534,400.318 308.534,405.151 304.5,414C 295,416.828 290.5,413.328 291,403.5C 292.397,401.93 293.897,400.596 295.5,399.5 Z"/></g>
</svg>
