<?xml version="1.0" encoding="UTF-8"?>
<!DOCTYPE svg PUBLIC "-//W3C//DTD SVG 1.1//EN" "http://www.w3.org/Graphics/SVG/1.1/DTD/svg11.dtd">
<svg xmlns="http://www.w3.org/2000/svg" version="1.1" width="512px" height="512px" style="shape-rendering:geometricPrecision; text-rendering:geometricPrecision; image-rendering:optimizeQuality; fill-rule:evenodd; clip-rule:evenodd" xmlns:xlink="http://www.w3.org/1999/xlink">
<g><path style="opacity:0.987" fill="#252625" d="M 227.5,-0.5 C 248.833,-0.5 270.167,-0.5 291.5,-0.5C 293.97,1.08167 295.47,3.41501 296,6.5C 298.223,48.1729 300.556,89.8396 303,131.5C 303.774,139.038 305.441,146.372 308,153.5C 328.883,113.568 349.383,73.4009 369.5,33C 372.702,31.5167 376.036,31.1834 379.5,32C 393.845,37.447 408.012,43.2804 422,49.5C 423.52,53.3749 423.854,57.3749 423,61.5C 415.667,96.1667 408.333,130.833 401,165.5C 398.681,168.773 395.514,170.44 391.5,170.5C 387.71,168.529 385.71,165.362 385.5,161C 392.619,127.237 399.286,93.4036 405.5,59.5C 396.643,56.7415 387.977,53.4082 379.5,49.5C 360.593,87.6466 341.427,125.647 322,163.5C 310.245,182.257 294.412,196.423 274.5,206C 263.24,209.865 251.906,213.531 240.5,217C 216.634,226.531 197.134,241.697 182,262.5C 180.126,264.569 179.126,266.902 179,269.5C 195.939,283.717 215.439,292.05 237.5,294.5C 240.962,295.482 244.629,295.815 248.5,295.5C 248.5,294.167 248.5,292.833 248.5,291.5C 251.209,275.247 259.543,262.747 273.5,254C 290.307,245.195 303.974,232.862 314.5,217C 321.281,213.892 325.614,215.892 327.5,223C 327.109,226.177 325.943,229.01 324,231.5C 318.908,238.596 313.074,245.096 306.5,251C 297.007,257.913 287.341,264.58 277.5,271C 269.868,277.105 265.534,284.938 264.5,294.5C 286.484,294.256 306.151,287.423 323.5,274C 343.05,256.784 360.883,237.95 377,217.5C 379.772,213.612 382.272,209.612 384.5,205.5C 408.97,174.853 433.303,144.02 457.5,113C 460.702,111.517 464.036,111.183 467.5,112C 482.772,120.455 497.438,129.621 511.5,139.5C 511.5,142.167 511.5,144.833 511.5,147.5C 486.501,202.842 462.001,258.509 438,314.5C 433.108,327.842 429.441,341.509 427,355.5C 425.284,376.536 423.284,397.536 421,418.5C 406.262,471.078 372.095,502.078 318.5,511.5C 276.5,511.5 234.5,511.5 192.5,511.5C 138.905,502.078 104.738,471.078 90,418.5C 87.7156,397.536 85.7156,376.536 84,355.5C 81.5578,341.506 77.8912,327.84 73,314.5C 48.9991,258.509 24.4991,202.842 -0.5,147.5C -0.5,144.833 -0.5,142.167 -0.5,139.5C 13.5617,129.621 28.2284,120.455 43.5,112C 46.1667,111.333 48.8333,111.333 51.5,112C 73.0055,138.148 94.1722,164.648 115,191.5C 106.343,148.189 97.3428,104.856 88,61.5C 87.3333,58.1667 87.3333,54.8333 88,51.5C 89.1094,49.1853 90.9427,47.6853 93.5,47C 107.361,41.4924 121.195,35.9924 135,30.5C 137.454,31.1981 139.787,32.1981 142,33.5C 161,71.5 180,109.5 199,147.5C 201.639,152.618 204.805,157.285 208.5,161.5C 208.351,162.552 208.517,163.552 209,164.5C 219.118,177.635 231.952,186.969 247.5,192.5C 247.334,183.161 247.5,173.827 248,164.5C 250.983,159.432 255.149,158.265 260.5,161C 261.701,161.903 262.535,163.069 263,164.5C 263.5,173.827 263.666,183.161 263.5,192.5C 277.017,188.297 288.017,180.63 296.5,169.5C 291.619,158.312 288.453,146.645 287,134.5C 284.169,94.8683 282.002,55.2017 280.5,15.5C 266.5,15.5 252.5,15.5 238.5,15.5C 234.298,52.8222 230.131,90.1555 226,127.5C 226.025,133.973 222.859,137.306 216.5,137.5C 211.387,136.459 209.054,133.292 209.5,128C 214,87.5 218.5,47 223,6.5C 223.53,3.41501 225.03,1.08167 227.5,-0.5 Z"/></g>
<g><path style="opacity:0.999" fill="#67a922" d="M 208.5,161.5 C 211.767,153.699 214.434,145.699 216.5,137.5C 222.859,137.306 226.025,133.973 226,127.5C 230.131,90.1555 234.298,52.8222 238.5,15.5C 252.5,15.5 266.5,15.5 280.5,15.5C 282.002,55.2017 284.169,94.8683 287,134.5C 288.453,146.645 291.619,158.312 296.5,169.5C 288.017,180.63 277.017,188.297 263.5,192.5C 263.666,183.161 263.5,173.827 263,164.5C 262.535,163.069 261.701,161.903 260.5,161C 255.149,158.265 250.983,159.432 248,164.5C 247.5,173.827 247.334,183.161 247.5,192.5C 231.952,186.969 219.118,177.635 209,164.5C 208.517,163.552 208.351,162.552 208.5,161.5 Z"/></g>
<g><path style="opacity:1" fill="#8bbd42" d="M 127.5,50.5 C 129.288,50.2148 130.955,50.5481 132.5,51.5C 149.667,85.8333 166.833,120.167 184,154.5C 194.929,175.596 210.762,191.929 231.5,203.5C 220.586,208.871 210.086,214.871 200,221.5C 189.126,211.279 180.292,199.446 173.5,186C 166.59,181.589 161.923,183.256 159.5,191C 166.099,206.357 175.099,220.19 186.5,232.5C 179.1,240.397 172.266,248.731 166,257.5C 155.858,247.03 146.858,235.697 139,223.5C 128.034,169.369 116.534,115.369 104.5,61.5C 112.041,57.563 119.707,53.8963 127.5,50.5 Z"/></g>
<g><path style="opacity:1" fill="#aed271" d="M 391.5,170.5 C 389.324,182.203 386.991,193.87 384.5,205.5C 382.272,209.612 379.772,213.612 377,217.5C 360.883,237.95 343.05,256.784 323.5,274C 306.151,287.423 286.484,294.256 264.5,294.5C 265.534,284.938 269.868,277.105 277.5,271C 287.341,264.58 297.007,257.913 306.5,251C 313.074,245.096 318.908,238.596 324,231.5C 325.943,229.01 327.109,226.177 327.5,223C 325.614,215.892 321.281,213.892 314.5,217C 303.974,232.862 290.307,245.195 273.5,254C 259.543,262.747 251.209,275.247 248.5,291.5C 247.596,292.209 247.263,293.209 247.5,294.5C 244.167,294.5 240.833,294.5 237.5,294.5C 215.439,292.05 195.939,283.717 179,269.5C 179.126,266.902 180.126,264.569 182,262.5C 197.134,241.697 216.634,226.531 240.5,217C 251.906,213.531 263.24,209.865 274.5,206C 294.412,196.423 310.245,182.257 322,163.5C 341.427,125.647 360.593,87.6466 379.5,49.5C 387.977,53.4082 396.643,56.7415 405.5,59.5C 399.286,93.4036 392.619,127.237 385.5,161C 385.71,165.362 387.71,168.529 391.5,170.5 Z"/></g>
<g><path style="opacity:1" fill="#272925" d="M 252.5,127.5 C 263.167,128.003 265.833,132.836 260.5,142C 251.42,145.215 247.253,142.048 248,132.5C 249.025,130.313 250.525,128.646 252.5,127.5 Z"/></g>
<g><path style="opacity:1" fill="#8bbe42" d="M 464.5,130.5 C 474.394,135.451 484.06,140.951 493.5,147C 469.538,201.093 445.704,255.259 422,309.5C 417.312,322.563 413.645,335.896 411,349.5C 408.634,371.487 406.634,393.487 405,415.5C 394.266,455.234 369.099,480.734 329.5,492C 326.515,492.868 323.515,493.201 320.5,493C 339.601,475.652 352.768,454.486 360,429.5C 366.022,408.235 368.356,386.568 367,364.5C 364.774,360.139 361.274,358.639 356.5,360C 354.333,360.833 352.833,362.333 352,364.5C 354.056,401.285 345.056,434.951 325,465.5C 314.845,478.322 302.345,488.155 287.5,495C 276.5,495.667 265.5,495.667 254.5,495C 260.595,484.977 265.761,474.477 270,463.5C 276.669,440.155 283.336,416.822 290,393.5C 294.446,382.267 301.112,372.6 310,364.5C 312.947,357.426 310.614,353.092 303,351.5C 300.968,351.858 299.134,352.692 297.5,354C 284.088,367.646 274.921,383.813 270,402.5C 265.181,430.111 256.515,456.445 244,481.5C 241.542,486.253 238.708,490.753 235.5,495C 227.479,495.832 219.479,495.665 211.5,494.5C 196.784,469.645 191.618,442.979 196,414.5C 199.025,402.057 204.692,391.057 213,381.5C 217.456,370.623 213.956,366.456 202.5,369C 180.757,395.577 173.591,425.743 181,459.5C 183.787,471.529 187.954,483.029 193.5,494C 153.325,487.477 125.492,465.311 110,427.5C 105.912,416.157 103.912,404.491 104,392.5C 142.791,332.191 198.291,305.024 270.5,311C 292.979,308.843 313.312,301.176 331.5,288C 350.369,272.132 367.535,254.632 383,235.5C 410.175,200.47 437.342,165.47 464.5,130.5 Z"/></g>
<g><path style="opacity:1" fill="#67a922" d="M 43.5,130.5 C 44.8221,130.33 45.9887,130.663 47,131.5C 78.7266,171.292 109.727,211.626 140,252.5C 155.962,273.467 175.796,289.634 199.5,301C 183.012,305.162 167.512,311.662 153,320.5C 145.165,307 136.165,294.333 126,282.5C 119.031,277.488 114.198,278.988 111.5,287C 111.796,288.888 112.296,290.722 113,292.5C 123.462,303.295 131.962,315.462 138.5,329C 131.701,336.13 124.534,342.964 117,349.5C 112.157,355.207 107.323,360.874 102.5,366.5C 99.7311,347.091 95.2311,328.091 89,309.5C 65.2955,255.259 41.4622,201.093 17.5,147C 26.4002,141.725 35.0669,136.225 43.5,130.5 Z"/></g>
<g><path style="opacity:1" fill="#738750" d="M 248.5,291.5 C 248.5,292.833 248.5,294.167 248.5,295.5C 244.629,295.815 240.962,295.482 237.5,294.5C 240.833,294.5 244.167,294.5 247.5,294.5C 247.263,293.209 247.596,292.209 248.5,291.5 Z"/></g>
<g><path style="opacity:1" fill="#282926" d="M 324.5,327.5 C 335.167,328.003 337.833,332.836 332.5,342C 323.42,345.215 319.253,342.048 320,332.5C 321.025,330.313 322.525,328.646 324.5,327.5 Z"/></g>
</svg>
