<?xml version="1.0" encoding="UTF-8"?>
<!DOCTYPE svg PUBLIC "-//W3C//DTD SVG 1.1//EN" "http://www.w3.org/Graphics/SVG/1.1/DTD/svg11.dtd">
<svg xmlns="http://www.w3.org/2000/svg" version="1.1" width="512px" height="512px" style="shape-rendering:geometricPrecision; text-rendering:geometricPrecision; image-rendering:optimizeQuality; fill-rule:evenodd; clip-rule:evenodd" xmlns:xlink="http://www.w3.org/1999/xlink">
<g><path style="opacity:0.961" fill="#010202" d="M 232.5,-0.5 C 247.833,-0.5 263.167,-0.5 278.5,-0.5C 379.371,12.3469 450.871,65.0136 493,157.5C 502.497,181.819 508.663,206.819 511.5,232.5C 511.5,247.833 511.5,263.167 511.5,278.5C 501.026,367.433 457.36,434.6 380.5,480C 348.466,497.292 314.466,507.792 278.5,511.5C 263.167,511.5 247.833,511.5 232.5,511.5C 143.853,500.61 76.6868,456.943 31,380.5C 13.7076,348.465 3.20759,314.465 -0.5,278.5C -0.5,263.167 -0.5,247.833 -0.5,232.5C 9.70964,146.544 51.3763,80.7111 124.5,35C 128.476,33.9973 131.476,35.164 133.5,38.5C 134.885,41.5457 134.719,44.5457 133,47.5C 52.7986,98.5514 13.4653,171.885 15,267.5C 23.1808,364.071 70.6808,433.571 157.5,476C 208.534,498.434 260.867,502.601 314.5,488.5C 388.346,468.829 441.846,424.495 475,355.5C 508.166,276.927 503.166,200.927 460,127.5C 438.149,93.814 409.983,66.814 375.5,46.5C 315.948,13.7353 253.281,6.2353 187.5,24C 177.637,27.0095 167.97,30.5095 158.5,34.5C 155.308,33.6344 152.641,31.9677 150.5,29.5C 149.971,25.8084 150.971,22.6417 153.5,20C 178.939,9.22457 205.273,2.39124 232.5,-0.5 Z"/></g>
<g><path style="opacity:1" fill="#d0ecfe" d="M 375.5,46.5 C 375.859,48.371 376.859,49.871 378.5,51C 438.848,95.1571 473.348,154.657 482,229.5C 487.364,324.519 452.197,400.352 376.5,457C 357.279,470.399 336.612,480.899 314.5,488.5C 260.867,502.601 208.534,498.434 157.5,476C 70.6808,433.571 23.1808,364.071 15,267.5C 13.4653,171.885 52.7986,98.5514 133,47.5C 134.719,44.5457 134.885,41.5457 133.5,38.5C 139.008,35.2453 144.675,32.2453 150.5,29.5C 152.641,31.9677 155.308,33.6344 158.5,34.5C 167.97,30.5095 177.637,27.0095 187.5,24C 253.281,6.2353 315.948,13.7353 375.5,46.5 Z"/></g>
<g><path style="opacity:1" fill="#b5dffb" d="M 375.5,46.5 C 409.983,66.814 438.149,93.814 460,127.5C 503.166,200.927 508.166,276.927 475,355.5C 441.846,424.495 388.346,468.829 314.5,488.5C 336.612,480.899 357.279,470.399 376.5,457C 452.197,400.352 487.364,324.519 482,229.5C 473.348,154.657 438.848,95.1571 378.5,51C 376.859,49.871 375.859,48.371 375.5,46.5 Z"/></g>
<g><path style="opacity:1" fill="#040403" d="M 262.5,366.5 C 260.653,363.406 260.153,360.072 261,356.5C 312.667,304.833 364.333,253.167 416,201.5C 419.715,194.815 418.548,189.149 412.5,184.5C 382.644,153.477 351.977,123.31 320.5,94C 316.705,93.1628 313.039,93.4961 309.5,95C 237.306,166.861 165.473,239.027 94,311.5C 93.1628,315.295 93.4961,318.961 95,322.5C 125.062,352.395 154.895,382.395 184.5,412.5C 189.19,418.566 194.857,419.733 201.5,416C 213.833,403.667 226.167,391.333 238.5,379C 242.313,376.974 245.98,377.14 249.5,379.5C 250.987,382.913 250.82,386.247 249,389.5C 236.167,402.333 223.333,415.167 210.5,428C 198.646,434.587 187.313,433.92 176.5,426C 146,395.5 115.5,365 85,334.5C 77.2226,323.613 76.5559,312.279 83,300.5C 155.167,228.333 227.333,156.167 299.5,84C 307.763,78.2848 316.763,76.9514 326.5,80C 329.433,81.2709 332.099,82.9376 334.5,85C 365,115.5 395.5,146 426,176.5C 433.92,187.313 434.587,198.646 428,210.5C 375.833,262.667 323.667,314.833 271.5,367C 268.445,367.634 265.445,367.468 262.5,366.5 Z"/></g>
<g><path style="opacity:1" fill="#fec15d" d="M 412.5,184.5 C 411.105,187.142 409.605,189.809 408,192.5C 336.167,264.333 264.333,336.167 192.5,408C 189.809,409.605 187.142,411.105 184.5,412.5C 154.895,382.395 125.062,352.395 95,322.5C 93.4961,318.961 93.1628,315.295 94,311.5C 165.473,239.027 237.306,166.861 309.5,95C 313.039,93.4961 316.705,93.1628 320.5,94C 351.977,123.31 382.644,153.477 412.5,184.5 Z"/></g>
<g><path style="opacity:1" fill="#060708" d="M 199.5,103.5 C 207.149,103.314 210.315,106.981 209,114.5C 203.377,120.914 196.543,123.081 188.5,121C 186.607,118.083 186.107,114.916 187,111.5C 190.977,108.435 195.144,105.768 199.5,103.5 Z"/></g>
<g><path style="opacity:1" fill="#050506" d="M 150.5,132.5 C 154.909,131.618 158.409,132.952 161,136.5C 162.262,141.787 162.596,147.12 162,152.5C 155.811,158.529 151.144,157.529 148,149.5C 147.547,146.16 147.047,142.826 146.5,139.5C 146.577,136.335 147.91,134.001 150.5,132.5 Z"/></g>
<g><path style="opacity:1" fill="#08090a" d="M 188.5,135.5 C 193.907,135.359 197.24,137.859 198.5,143C 197.333,147.5 196.167,152 195,156.5C 191.294,161.268 187.294,161.601 183,157.5C 181.088,151.766 181.421,146.1 184,140.5C 185.025,138.313 186.525,136.646 188.5,135.5 Z"/></g>
<g><path style="opacity:1" fill="#050607" d="M 145.5,175.5 C 151.75,175.396 157.75,176.563 163.5,179C 165.923,182.379 166.09,185.879 164,189.5C 162.352,191.028 160.352,191.695 158,191.5C 153.296,191.301 148.796,190.301 144.5,188.5C 140.353,183.744 140.686,179.411 145.5,175.5 Z"/></g>
<g><path style="opacity:1" fill="#fcb332" d="M 412.5,184.5 C 418.548,189.149 419.715,194.815 416,201.5C 364.333,253.167 312.667,304.833 261,356.5C 260.153,360.072 260.653,363.406 262.5,366.5C 257.833,370.5 253.5,374.833 249.5,379.5C 245.98,377.14 242.313,376.974 238.5,379C 226.167,391.333 213.833,403.667 201.5,416C 194.857,419.733 189.19,418.566 184.5,412.5C 187.142,411.105 189.809,409.605 192.5,408C 264.333,336.167 336.167,264.333 408,192.5C 409.605,189.809 411.105,187.142 412.5,184.5 Z"/></g>
<g><path style="opacity:1" fill="#050506" d="M 112.5,187.5 C 121.33,186.162 124.83,189.829 123,198.5C 117.556,203.87 111.056,206.037 103.5,205C 100.231,201.547 99.7306,197.714 102,193.5C 105.644,191.599 109.144,189.599 112.5,187.5 Z"/></g>
<g><path style="opacity:1" fill="#040505" d="M 399.5,305.5 C 409.118,304.404 412.284,308.404 409,317.5C 405.364,319.734 401.531,321.568 397.5,323C 389.212,324.291 386.045,320.791 388,312.5C 391.613,309.698 395.447,307.364 399.5,305.5 Z"/></g>
<g><path style="opacity:1" fill="#060708" d="M 351.5,333.5 C 355.909,332.618 359.409,333.952 362,337.5C 363.384,343.109 363.717,348.775 363,354.5C 358.245,358.759 353.912,358.426 350,353.5C 348.285,348.268 347.618,342.935 348,337.5C 349.376,336.295 350.542,334.962 351.5,333.5 Z"/></g>
<g><path style="opacity:1" fill="#070808" d="M 388.5,337.5 C 394.428,336.123 398.095,338.289 399.5,344C 398.92,348.979 397.754,353.812 396,358.5C 392,362.5 388,362.5 384,358.5C 383.042,356.801 382.542,354.967 382.5,353C 382.959,347.098 384.959,341.931 388.5,337.5 Z"/></g>
<g><path style="opacity:1" fill="#060708" d="M 346.5,376.5 C 352.69,376.714 358.69,377.881 364.5,380C 368.515,386.997 366.681,391.497 359,393.5C 355.252,392.292 351.419,391.459 347.5,391C 341.192,386.615 340.859,381.782 346.5,376.5 Z"/></g>
<g><path style="opacity:1" fill="#060708" d="M 314.5,388.5 C 322.775,387.706 325.942,391.373 324,399.5C 319.009,404.082 313.176,406.582 306.5,407C 300.347,402.748 300.014,398.081 305.5,393C 308.823,391.96 311.823,390.46 314.5,388.5 Z"/></g>
</svg>
