<?xml version="1.0" encoding="UTF-8"?>
<!DOCTYPE svg PUBLIC "-//W3C//DTD SVG 1.1//EN" "http://www.w3.org/Graphics/SVG/1.1/DTD/svg11.dtd">
<svg xmlns="http://www.w3.org/2000/svg" version="1.1" width="512px" height="512px" style="shape-rendering:geometricPrecision; text-rendering:geometricPrecision; image-rendering:optimizeQuality; fill-rule:evenodd; clip-rule:evenodd" xmlns:xlink="http://www.w3.org/1999/xlink">
<g><path style="opacity:0.992" fill="#010101" d="M 511.5,144.5 C 511.5,239.833 511.5,335.167 511.5,430.5C 506.223,436.147 499.89,440.314 492.5,443C 471.989,450.036 450.989,455.036 429.5,458C 313.5,473.333 197.5,473.333 81.5,458C 60.011,455.036 39.011,450.036 18.5,443C 11.11,440.314 4.77663,436.147 -0.5,430.5C -0.5,335.167 -0.5,239.833 -0.5,144.5C 4.77663,138.853 11.11,134.686 18.5,132C 36.4199,125.77 54.7532,121.27 73.5,118.5C 74.6429,97.8686 85.4762,86.5353 106,84.5C 113.972,84.5465 121.138,86.8798 127.5,91.5C 131.041,89.4701 134.708,87.6368 138.5,86C 134.214,67.2366 140.547,53.2366 157.5,44C 169.865,39.7077 181.198,41.541 191.5,49.5C 205.684,38.8788 219.85,38.8788 234,49.5C 248.333,38.8333 262.667,38.8333 277,49.5C 291.15,38.8788 305.316,38.8788 319.5,49.5C 336.722,37.7983 352.555,39.4649 367,54.5C 373.097,63.818 374.597,73.818 371.5,84.5C 371.709,85.086 372.043,85.586 372.5,86C 376.292,87.6368 379.959,89.4701 383.5,91.5C 401.647,80.2666 417.814,82.6 432,98.5C 435.639,104.666 437.473,111.333 437.5,118.5C 460.894,121.431 483.227,127.931 504.5,138C 506.703,140.372 509.037,142.539 511.5,144.5 Z"/></g>
<g><path style="opacity:1" fill="#f2694d" d="M 169.5,63.5 C 180.648,65.498 183.482,71.498 178,81.5C 168.016,87.5631 161.849,84.8964 159.5,73.5C 165.833,73.1667 169.167,69.8333 169.5,63.5 Z"/></g>
<g><path style="opacity:1" fill="#f36a4e" d="M 212.5,63.5 C 222.099,65.0336 225.266,70.3669 222,79.5C 215.183,86.4354 208.85,86.1021 203,78.5C 202.506,76.8659 202.34,75.1992 202.5,73.5C 208.818,73.1816 212.152,69.8483 212.5,63.5 Z"/></g>
<g><path style="opacity:1" fill="#f2694d" d="M 255.5,63.5 C 261.882,64.047 265.549,67.547 266.5,74C 264.321,83.5894 258.655,86.5894 249.5,83C 246.144,80.6531 245.144,77.6531 246.5,74C 252.182,72.8036 255.182,69.3036 255.5,63.5 Z"/></g>
<g><path style="opacity:1" fill="#f2694d" d="M 297.5,63.5 C 308.648,65.498 311.482,71.498 306,81.5C 296.016,87.5631 289.849,84.8964 287.5,73.5C 293.833,73.1667 297.167,69.8333 297.5,63.5 Z"/></g>
<g><path style="opacity:1" fill="#f36a4e" d="M 340.5,63.5 C 350.099,65.0336 353.266,70.3669 350,79.5C 343.183,86.4354 336.85,86.1021 331,78.5C 330.506,76.8659 330.34,75.1992 330.5,73.5C 336.818,73.1816 340.152,69.8483 340.5,63.5 Z"/></g>
<g><path style="opacity:1" fill="#f2694d" d="M 105.5,106.5 C 114.373,107.547 117.873,112.547 116,121.5C 110.023,129.022 103.689,129.355 97,122.5C 96.187,120.564 95.687,118.564 95.5,116.5C 101.848,116.152 105.182,112.818 105.5,106.5 Z"/></g>
<g><path style="opacity:1" fill="#f2694d" d="M 148.5,106.5 C 158.041,107.904 161.208,113.237 158,122.5C 151.358,129.365 145.024,129.031 139,121.5C 138.506,119.866 138.34,118.199 138.5,116.5C 144.833,116.167 148.167,112.833 148.5,106.5 Z"/></g>
<g><path style="opacity:1" fill="#f0694d" d="M 191.5,106.5 C 197.655,106.984 201.321,110.317 202.5,116.5C 199.946,126.921 193.946,129.754 184.5,125C 181.725,122.62 181.058,119.787 182.5,116.5C 187.637,115.032 190.637,111.699 191.5,106.5 Z"/></g>
<g><path style="opacity:1" fill="#f2694d" d="M 233.5,106.5 C 242.373,107.547 245.873,112.547 244,121.5C 238.023,129.022 231.689,129.355 225,122.5C 224.187,120.564 223.687,118.564 223.5,116.5C 229.848,116.152 233.182,112.818 233.5,106.5 Z"/></g>
<g><path style="opacity:1" fill="#f2694d" d="M 276.5,106.5 C 286.041,107.904 289.208,113.237 286,122.5C 279.358,129.365 273.024,129.031 267,121.5C 266.506,119.866 266.34,118.199 266.5,116.5C 272.833,116.167 276.167,112.833 276.5,106.5 Z"/></g>
<g><path style="opacity:1" fill="#f0694d" d="M 319.5,106.5 C 325.655,106.984 329.321,110.317 330.5,116.5C 327.946,126.921 321.946,129.754 312.5,125C 309.725,122.62 309.058,119.787 310.5,116.5C 315.637,115.032 318.637,111.699 319.5,106.5 Z"/></g>
<g><path style="opacity:1" fill="#f2694d" d="M 361.5,106.5 C 370.373,107.547 373.873,112.547 372,121.5C 366.023,129.022 359.689,129.355 353,122.5C 352.187,120.564 351.687,118.564 351.5,116.5C 357.848,116.152 361.182,112.818 361.5,106.5 Z"/></g>
<g><path style="opacity:1" fill="#f2694d" d="M 404.5,106.5 C 414.041,107.904 417.208,113.237 414,122.5C 407.358,129.365 401.024,129.031 395,121.5C 394.506,119.866 394.34,118.199 394.5,116.5C 400.833,116.167 404.167,112.833 404.5,106.5 Z"/></g>
<g><path style="opacity:1" fill="#9ca3ac" d="M 51.5,144.5 C 53.1992,144.34 54.8659,144.506 56.5,145C 55.0717,147.783 53.7383,150.617 52.5,153.5C 47.5515,151.846 42.5515,150.346 37.5,149C 42.2741,147.481 46.9408,145.981 51.5,144.5 Z"/></g>
<g><path style="opacity:1" fill="#a2a9b3" d="M 454.5,145.5 C 460.798,145.475 467.131,146.641 473.5,149C 468.191,150.839 462.858,151.673 457.5,151.5C 456.864,149.22 455.864,147.22 454.5,145.5 Z"/></g>
<g><path style="opacity:1" fill="#e9654b" d="M 84.5,149.5 C 91.8333,149.5 95.5,153.167 95.5,160.5C 90.0694,160.272 84.7361,159.439 79.5,158C 82.5956,155.971 84.2623,153.138 84.5,149.5 Z"/></g>
<g><path style="opacity:1" fill="#f2694e" d="M 127.5,149.5 C 134.194,149.692 137.861,153.192 138.5,160C 138.355,161.226 138.022,162.393 137.5,163.5C 130.848,164.477 124.181,164.477 117.5,163.5C 117.238,162.022 117.571,160.689 118.5,159.5C 123.624,158.044 126.624,154.711 127.5,149.5 Z"/></g>
<g><path style="opacity:1" fill="#f56a4e" d="M 169.5,149.5 C 178.453,149.963 181.953,154.63 180,163.5C 179.535,164.931 178.701,166.097 177.5,167C 172.5,167.667 167.5,167.667 162.5,167C 160.254,164.573 159.588,161.906 160.5,159C 166.34,158.469 169.34,155.302 169.5,149.5 Z"/></g>
<g><path style="opacity:1" fill="#f26a4e" d="M 212.5,149.5 C 217.421,149.043 220.921,151.043 223,155.5C 224.333,166.498 219.5,170.998 208.5,169C 204.184,167.194 202.35,164.027 203,159.5C 208.383,158.283 211.55,154.95 212.5,149.5 Z"/></g>
<g><path style="opacity:1" fill="#f2694d" d="M 255.5,149.5 C 261.963,149.625 265.63,152.959 266.5,159.5C 263.748,169.745 257.748,172.411 248.5,167.5C 245.67,165.342 245.003,162.676 246.5,159.5C 251.624,158.044 254.624,154.711 255.5,149.5 Z"/></g>
<g><path style="opacity:1" fill="#f46a4e" d="M 297.5,149.5 C 306.453,149.963 309.953,154.63 308,163.5C 304.723,169.109 299.89,170.942 293.5,169C 289.689,166.867 287.855,163.7 288,159.5C 294.111,158.89 297.278,155.557 297.5,149.5 Z"/></g>
<g><path style="opacity:1" fill="#f36a4e" d="M 340.5,149.5 C 348.417,149.679 351.917,153.679 351,161.5C 350.55,163.519 349.717,165.352 348.5,167C 343.5,167.667 338.5,167.667 333.5,167C 328.88,162.485 329.546,159.485 335.5,158C 338.563,155.97 340.229,153.136 340.5,149.5 Z"/></g>
<g><path style="opacity:1" fill="#f36a4e" d="M 383.5,149.5 C 389.963,149.625 393.63,152.959 394.5,159.5C 394.32,160.554 393.987,161.554 393.5,162.5C 386.913,163.947 380.247,164.614 373.5,164.5C 373.215,162.712 373.548,161.045 374.5,159.5C 379.624,158.044 382.624,154.711 383.5,149.5 Z"/></g>
<g><path style="opacity:1" fill="#ea664b" d="M 425.5,149.5 C 430.933,149.05 434.6,151.384 436.5,156.5C 429.591,158.404 422.591,159.571 415.5,160C 418.01,158.91 420.51,157.743 423,156.5C 424.903,154.559 425.736,152.226 425.5,149.5 Z"/></g>
<g><path style="opacity:1" fill="#dfe2e6" d="M 20.5,166.5 C 55.8533,176.337 91.8533,182.837 128.5,186C 227.349,194.61 326.016,192.944 424.5,181C 435.434,178.678 446.434,176.678 457.5,175C 468.548,172.26 479.548,169.427 490.5,166.5C 491.011,170.03 490.344,173.196 488.5,176C 455.527,185.992 421.86,192.658 387.5,196C 310.58,202.16 233.58,203.16 156.5,199C 120.455,196.613 84.7881,191.613 49.5,184C 40.3632,181.799 31.3632,179.132 22.5,176C 20.6556,173.196 19.9889,170.03 20.5,166.5 Z"/></g>
<g><path style="opacity:1" fill="#5c9aea" d="M 20.5,198.5 C 68.0222,210.835 116.356,218.335 165.5,221C 237.567,224.636 309.567,223.636 381.5,218C 418.456,214.641 454.789,208.141 490.5,198.5C 490.831,262.071 490.498,325.571 489.5,389C 457.2,398.99 424.2,405.657 390.5,409C 297.455,417.929 204.455,417.596 111.5,408C 80.8806,404.532 50.8806,398.198 21.5,389C 20.5021,325.571 20.1688,262.071 20.5,198.5 Z"/></g>
<g><path style="opacity:1" fill="#020203" d="M 106.5,245.5 C 125.971,256.737 145.304,268.237 164.5,280C 166.9,281.701 169.567,282.534 172.5,282.5C 219.421,274.856 266.588,269.523 314,266.5C 349.001,267.001 377.667,280.668 400,307.5C 403.428,312 404.762,317 404,322.5C 400.972,328.534 396.805,333.701 391.5,338C 372.061,354.054 350.061,365.388 325.5,372C 312.474,372.124 299.474,371.457 286.5,370C 248.323,365.199 210.156,360.366 172,355.5C 169.833,355.667 167.667,355.833 165.5,356C 146.717,361.291 127.884,366.458 109,371.5C 108.5,371.167 108,370.833 107.5,370.5C 114.567,352.297 121.234,333.964 127.5,315.5C 120.808,292.063 113.808,268.729 106.5,245.5 Z"/></g>
<g><path style="opacity:1" fill="#f2f4f7" d="M 296.5,287.5 C 330.034,283.509 358.368,293.676 381.5,318C 365.311,332.768 346.645,343.435 325.5,350C 316.833,350.667 308.167,350.667 299.5,350C 256.241,345.098 213.075,339.598 170,333.5C 160.41,335.607 150.91,337.774 141.5,340C 144.495,332.35 147.495,324.683 150.5,317C 148.167,309.333 145.833,301.667 143.5,294C 143.833,293.5 144.167,293 144.5,292.5C 150.167,296 155.833,299.5 161.5,303C 163.534,304.006 165.7,304.506 168,304.5C 210.913,298.257 253.746,292.59 296.5,287.5 Z"/></g>
<g><path style="opacity:1" fill="#060606" d="M 325.5,298.5 C 335.992,296.834 340.826,301.167 340,311.5C 337.315,318.057 332.481,320.223 325.5,318C 317.581,311.506 317.581,305.006 325.5,298.5 Z"/></g>
<g><path style="opacity:1" fill="#dde0e4" d="M 51.5,419.5 C 51.5,419.833 51.5,420.167 51.5,420.5C 49.6916,420.491 48.0249,420.991 46.5,422C 44.7596,424.035 42.9262,425.869 41,427.5C 34.0943,425.254 27.261,422.921 20.5,420.5C 20.1826,417.428 20.5159,414.428 21.5,411.5C 31.354,414.786 41.354,417.453 51.5,419.5 Z"/></g>
<g><path style="opacity:1" fill="#dbdee2" d="M 487.5,411.5 C 488.5,411.5 489.5,411.5 490.5,411.5C 490.5,414.5 490.5,417.5 490.5,420.5C 483.489,422.673 476.489,425.006 469.5,427.5C 467.065,423.238 463.398,420.738 458.5,420C 468.397,417.613 478.064,414.78 487.5,411.5 Z"/></g>
<g><path style="opacity:1" fill="#6a6c6e" d="M 51.5,420.5 C 51.5,420.167 51.5,419.833 51.5,419.5C 55.0781,419.549 58.4115,420.215 61.5,421.5C 60.5084,421.328 59.8417,421.662 59.5,422.5C 57.0075,421.226 54.3408,420.56 51.5,420.5 Z"/></g>
<g><path style="opacity:1" fill="#dbdee1" d="M 61.5,421.5 C 79.0925,424.727 96.7592,427.56 114.5,430C 109.784,431.541 107.117,434.708 106.5,439.5C 92.1505,437.608 77.8172,435.608 63.5,433.5C 63.7337,429.196 62.4004,425.529 59.5,422.5C 59.8417,421.662 60.5084,421.328 61.5,421.5 Z"/></g>
<g><path style="opacity:1" fill="#dbdee1" d="M 445.5,421.5 C 447.604,421.201 449.604,421.534 451.5,422.5C 448.848,425.717 446.848,429.217 445.5,433C 431.929,435.707 418.263,437.54 404.5,438.5C 403.515,434.67 401.181,431.837 397.5,430C 413.731,427.778 429.731,424.945 445.5,421.5 Z"/></g>
<g><path style="opacity:1" fill="#828386" d="M 381.5,431.5 C 383.628,430.371 385.961,430.204 388.5,431C 387.956,431.717 387.289,432.217 386.5,432.5C 385.081,431.549 383.415,431.216 381.5,431.5 Z"/></g>
<g><path style="opacity:1" fill="#dee0e4" d="M 122.5,431.5 C 123.449,430.848 124.615,430.514 126,430.5C 143.101,432.733 160.267,434.233 177.5,435C 173.403,436.922 171.07,440.088 170.5,444.5C 156.159,443.981 141.825,443.314 127.5,442.5C 128.244,437.66 126.578,433.993 122.5,431.5 Z"/></g>
<g><path style="opacity:1" fill="#dee1e5" d="M 381.5,431.5 C 383.415,431.216 385.081,431.549 386.5,432.5C 384.129,434.997 383.129,437.997 383.5,441.5C 369.193,442.809 354.859,443.809 340.5,444.5C 339.93,440.088 337.597,436.922 333.5,435C 349.496,433.705 365.496,432.539 381.5,431.5 Z"/></g>
<g><path style="opacity:1" fill="#dee0e4" d="M 186.5,436.5 C 189.482,435.835 192.648,435.502 196,435.5C 215.16,436.201 234.327,436.701 253.5,437C 248.283,438.7 245.616,442.2 245.5,447.5C 227.499,447.214 209.499,446.881 191.5,446.5C 191.944,442.054 190.277,438.721 186.5,436.5 Z"/></g>
<g><path style="opacity:1" fill="#dfe2e6" d="M 302.5,435.5 C 309.841,435.334 317.174,435.5 324.5,436C 320.808,438.55 319.142,442.05 319.5,446.5C 301.487,446.338 283.487,446.671 265.5,447.5C 265.279,441.769 262.279,438.269 256.5,437C 272.005,436.831 287.339,436.331 302.5,435.5 Z"/></g>
</svg>
