<?xml version="1.0" encoding="UTF-8"?>
<!DOCTYPE svg PUBLIC "-//W3C//DTD SVG 1.1//EN" "http://www.w3.org/Graphics/SVG/1.1/DTD/svg11.dtd">
<svg xmlns="http://www.w3.org/2000/svg" version="1.1" width="512px" height="512px" style="shape-rendering:geometricPrecision; text-rendering:geometricPrecision; image-rendering:optimizeQuality; fill-rule:evenodd; clip-rule:evenodd" xmlns:xlink="http://www.w3.org/1999/xlink">
<g><path style="opacity:0.967" fill="#020201" d="M 511.5,266.5 C 511.5,279.167 511.5,291.833 511.5,304.5C 501.956,379.879 461.29,430.045 389.5,455C 341.616,467.636 296.783,460.803 255,434.5C 206.775,464.026 156.275,468.526 103.5,448C 99.9212,446.294 96.4212,444.461 93,442.5C 91.7114,439.649 91.2114,436.649 91.5,433.5C 93.6531,431.921 95.9864,430.588 98.5,429.5C 115.993,437.623 134.326,442.79 153.5,445C 169.599,446.39 185.265,444.89 200.5,440.5C 215.248,437.641 228.915,432.141 241.5,424C 239.886,421.873 237.886,420.373 235.5,419.5C 194.082,379.446 174.915,330.446 178,272.5C 181.116,243.144 187.449,214.478 197,186.5C 199.362,181.936 202.862,180.603 207.5,182.5C 210.269,183.771 211.602,185.938 211.5,189C 203.553,211.953 197.72,235.453 194,259.5C 187.351,309.589 199.685,354.255 231,393.5C 270.958,436.875 319.791,452.875 377.5,441.5C 445.561,422.266 484.728,377.6 495,307.5C 498.545,238.142 479.879,175.476 439,119.5C 425.566,101.393 409.066,86.8925 389.5,76C 381.824,72.3852 373.824,69.8852 365.5,68.5C 334.682,62.0388 306.682,68.2055 281.5,87C 268.925,97.5726 257.759,109.406 248,122.5C 241.167,132.667 234.333,142.833 227.5,153C 224.922,154.813 222.255,154.98 219.5,153.5C 216.645,150.408 215.812,146.741 217,142.5C 223.347,131.795 230.18,121.462 237.5,111.5C 240.302,108.524 242.969,105.358 245.5,102C 230.229,84.3632 211.229,72.8632 188.5,67.5C 156.39,61.513 127.39,68.3463 101.5,88C 68.0537,118.824 44.2204,155.99 30,199.5C 20.9745,226.627 15.8079,254.46 14.5,283C 13.7973,331.613 30.964,372.447 66,405.5C 67.8223,409.09 67.9889,412.757 66.5,416.5C 63.482,418.463 60.1487,418.963 56.5,418C 22.7508,387.297 3.75078,349.13 -0.5,303.5C -0.5,290.5 -0.5,277.5 -0.5,264.5C 6.0589,210.316 24.5589,160.65 55,115.5C 68.1667,97 84,81.1667 102.5,68C 148.569,42.2511 193.569,43.9178 237.5,73C 243.65,78.3157 249.65,83.8157 255.5,89.5C 293.704,51.6183 338.371,41.4516 389.5,59C 402.137,63.987 413.471,70.987 423.5,80C 465.243,119.964 492.077,168.464 504,225.5C 506.953,239.233 509.453,252.9 511.5,266.5 Z"/></g>
<g><path style="opacity:1" fill="#e4966f" d="M 188.5,67.5 C 207.25,79.2379 223.583,93.9046 237.5,111.5C 230.18,121.462 223.347,131.795 217,142.5C 215.812,146.741 216.645,150.408 219.5,153.5C 216.249,160.064 213.082,166.731 210,173.5C 208.57,176.353 207.737,179.353 207.5,182.5C 202.862,180.603 199.362,181.936 197,186.5C 187.449,214.478 181.116,243.144 178,272.5C 174.915,330.446 194.082,379.446 235.5,419.5C 224.295,427.269 212.628,434.269 200.5,440.5C 185.265,444.89 169.599,446.39 153.5,445C 134.326,442.79 115.993,437.623 98.5,429.5C 95.9864,430.588 93.6531,431.921 91.5,433.5C 82.3219,428.974 73.9885,423.307 66.5,416.5C 67.9889,412.757 67.8223,409.09 66,405.5C 30.964,372.447 13.7973,331.613 14.5,283C 15.8079,254.46 20.9745,226.627 30,199.5C 44.2204,155.99 68.0537,118.824 101.5,88C 127.39,68.3463 156.39,61.513 188.5,67.5 Z"/></g>
<g><path style="opacity:1" fill="#f8e7d3" d="M 365.5,68.5 C 387.205,80.6949 405.372,97.0283 420,117.5C 460.703,174.618 479.37,238.285 476,308.5C 466.945,370.673 434.111,415.007 377.5,441.5C 319.791,452.875 270.958,436.875 231,393.5C 199.685,354.255 187.351,309.589 194,259.5C 197.72,235.453 203.553,211.953 211.5,189C 211.602,185.938 210.269,183.771 207.5,182.5C 207.737,179.353 208.57,176.353 210,173.5C 213.082,166.731 216.249,160.064 219.5,153.5C 222.255,154.98 224.922,154.813 227.5,153C 234.333,142.833 241.167,132.667 248,122.5C 257.759,109.406 268.925,97.5726 281.5,87C 306.682,68.2055 334.682,62.0388 365.5,68.5 Z"/></g>
<g><path style="opacity:1" fill="#d77c54" d="M 188.5,67.5 C 211.229,72.8632 230.229,84.3632 245.5,102C 242.969,105.358 240.302,108.524 237.5,111.5C 223.583,93.9046 207.25,79.2379 188.5,67.5 Z"/></g>
<g><path style="opacity:1" fill="#e5cdb8" d="M 365.5,68.5 C 373.824,69.8852 381.824,72.3852 389.5,76C 409.066,86.8925 425.566,101.393 439,119.5C 479.879,175.476 498.545,238.142 495,307.5C 484.728,377.6 445.561,422.266 377.5,441.5C 434.111,415.007 466.945,370.673 476,308.5C 479.37,238.285 460.703,174.618 420,117.5C 405.372,97.0283 387.205,80.6949 365.5,68.5 Z"/></g>
<g><path style="opacity:1" fill="#050402" d="M 330.5,226.5 C 376.774,223.203 409.274,242.536 428,284.5C 438.851,321.598 430.684,353.765 403.5,381C 366.799,409.405 329.132,410.739 290.5,385C 256.283,354.647 247.783,318.147 265,275.5C 279.323,248.996 301.156,232.663 330.5,226.5 Z"/></g>
<g><path style="opacity:1" fill="#fbc826" d="M 389.5,256.5 C 407.313,289.562 405.146,321.229 383,351.5C 364.355,372.775 340.855,382.442 312.5,380.5C 292.288,370.441 279.122,354.441 273,332.5C 266.539,292.587 281.372,263.754 317.5,246C 343.361,237.432 367.361,240.932 389.5,256.5 Z"/></g>
<g><path style="opacity:1" fill="#ebaa0a" d="M 389.5,256.5 C 421.263,284.995 426.763,317.995 406,355.5C 385.627,382.406 358.794,392.573 325.5,386C 320.78,384.824 316.446,382.99 312.5,380.5C 340.855,382.442 364.355,372.775 383,351.5C 405.146,321.229 407.313,289.562 389.5,256.5 Z"/></g>
<g><path style="opacity:1" fill="#d47a54" d="M 235.5,419.5 C 237.886,420.373 239.886,421.873 241.5,424C 228.915,432.141 215.248,437.641 200.5,440.5C 212.628,434.269 224.295,427.269 235.5,419.5 Z"/></g>
</svg>
