<?xml version="1.0" encoding="UTF-8"?>
<!DOCTYPE svg PUBLIC "-//W3C//DTD SVG 1.1//EN" "http://www.w3.org/Graphics/SVG/1.1/DTD/svg11.dtd">
<svg xmlns="http://www.w3.org/2000/svg" version="1.1" width="512px" height="512px" style="shape-rendering:geometricPrecision; text-rendering:geometricPrecision; image-rendering:optimizeQuality; fill-rule:evenodd; clip-rule:evenodd" xmlns:xlink="http://www.w3.org/1999/xlink">
<g><path style="opacity:0.961" fill="#000001" d="M 232.5,-0.5 C 247.833,-0.5 263.167,-0.5 278.5,-0.5C 379.371,12.3469 450.871,65.0136 493,157.5C 502.497,181.819 508.663,206.819 511.5,232.5C 511.5,247.833 511.5,263.167 511.5,278.5C 500.61,367.147 456.943,434.313 380.5,480C 348.466,497.292 314.466,507.792 278.5,511.5C 263.167,511.5 247.833,511.5 232.5,511.5C 143.853,500.61 76.6868,456.943 31,380.5C 13.7076,348.465 3.20759,314.465 -0.5,278.5C -0.5,263.167 -0.5,247.833 -0.5,232.5C 11.9144,134.808 62.2477,64.3083 150.5,21C 176.89,9.73718 204.224,2.57051 232.5,-0.5 Z"/></g>
<g><path style="opacity:1" fill="#586573" d="M 235.5,14.5 C 337.541,11.0894 414.708,52.7561 467,139.5C 503.389,210.219 506.056,282.219 475,355.5C 432.496,440.693 363.662,487.527 268.5,496C 175.232,497.954 102.732,460.454 51,383.5C 11.6707,316.551 4.33735,246.217 29,172.5C 58.123,99.3767 109.956,50.21 184.5,25C 201.41,20.3854 218.41,16.8854 235.5,14.5 Z"/></g>
<g><path style="opacity:1" fill="#010202" d="M 475.5,262.5 C 471.645,263.155 468.812,261.821 467,258.5C 463.455,167.363 420.955,101.863 339.5,62C 311.709,50.3606 282.709,44.3606 252.5,44C 249.179,42.1881 247.845,39.3547 248.5,35.5C 249.203,33.2843 250.536,31.451 252.5,30C 333.683,31.0031 397.516,64.5031 444,130.5C 469.289,169.036 481.622,211.369 481,257.5C 479.924,260.079 478.091,261.746 475.5,262.5 Z"/></g>
<g><path style="opacity:1" fill="#45515d" d="M 248.5,35.5 C 247.845,39.3547 249.179,42.1881 252.5,44C 282.709,44.3606 311.709,50.3606 339.5,62C 420.955,101.863 463.455,167.363 467,258.5C 468.812,261.821 471.645,263.155 475.5,262.5C 469.933,332.477 439.599,388.977 384.5,432C 349.319,456.765 310.152,470.598 267,473.5C 265.213,473.759 263.713,474.425 262.5,475.5C 263.155,471.645 261.821,468.812 258.5,467C 176.884,464.293 114.717,428.46 72,359.5C 53.5481,326.25 44.2148,290.583 44,252.5C 42.1881,249.179 39.3547,247.845 35.5,248.5C 42.0369,168.891 79.0369,108.058 146.5,66C 176.741,48.8089 209.241,39.3089 244,37.5C 245.787,37.2414 247.287,36.5747 248.5,35.5 Z"/></g>
<g><path style="opacity:1" fill="#040302" d="M 238.5,59.5 C 330.103,57.1883 395.937,96.855 436,178.5C 459.047,237.172 456.047,294.505 427,350.5C 384.8,420.195 322.634,453.695 240.5,451C 172.965,444.065 121.465,411.899 86,354.5C 55.2482,297.487 51.5815,238.82 75,178.5C 107.977,109.368 162.477,69.7016 238.5,59.5 Z"/></g>
<g><path style="opacity:1" fill="#fdc78b" d="M 361.5,109.5 C 357.102,119.862 357.935,129.862 364,139.5C 414.166,191.186 426.499,250.853 401,318.5C 393.024,335.793 382.69,351.46 370,365.5C 360.488,374.463 350.655,382.796 340.5,390.5C 295.487,413.423 249.154,416.589 201.5,400C 139.063,369.477 110.229,319.31 115,249.5C 125.325,200.841 154.492,170.008 202.5,157C 233.735,150.476 261.735,157.143 286.5,177C 289.551,179.714 292.218,182.714 294.5,186C 283.292,194.217 274.792,204.717 269,217.5C 256.047,204.851 240.547,200.018 222.5,203C 198.987,209.179 184.154,224.013 178,247.5C 175.168,290.656 194.668,317.489 236.5,328C 269.307,330.258 295.641,318.424 315.5,292.5C 342.514,293.077 363.681,282.41 379,260.5C 380.15,258.246 380.484,255.913 380,253.5C 373.197,240.696 363.197,231.362 350,225.5C 351.643,217.129 352.81,208.629 353.5,200C 353.397,195.455 352.897,190.955 352,186.5C 351.484,183.966 350.317,181.8 348.5,180C 342.181,177.781 335.681,176.615 329,176.5C 322.037,176.831 315.204,177.664 308.5,179C 283.693,149.776 252.026,136.776 213.5,140C 152.855,149.98 115.355,184.813 101,244.5C 95.4884,285.444 103.988,323.11 126.5,357.5C 120.744,357.989 115.077,359.323 109.5,361.5C 91.4948,337.131 80.3282,309.797 76,279.5C 69.1777,198.64 100.344,137.473 169.5,96C 222.755,69.1974 276.755,67.5307 331.5,91C 342.401,95.9385 352.401,102.105 361.5,109.5 Z"/></g>
<g><path style="opacity:1" fill="#090705" d="M 266.5,109.5 C 276.525,108.731 279.525,112.898 275.5,122C 268.864,125.33 264.531,123.497 262.5,116.5C 263.071,113.687 264.404,111.354 266.5,109.5 Z"/></g>
<g><path style="opacity:1" fill="#f49f6d" d="M 361.5,109.5 C 411.283,146.399 436.116,196.066 436,258.5C 424.916,317.724 393.083,361.724 340.5,390.5C 350.655,382.796 360.488,374.463 370,365.5C 382.69,351.46 393.024,335.793 401,318.5C 426.499,250.853 414.166,191.186 364,139.5C 357.935,129.862 357.102,119.862 361.5,109.5 Z"/></g>
<g><path style="opacity:1" fill="#090705" d="M 186.5,119.5 C 196.525,118.731 199.525,122.898 195.5,132C 188.864,135.33 184.531,133.497 182.5,126.5C 183.071,123.687 184.404,121.354 186.5,119.5 Z"/></g>
<g><path style="opacity:1" fill="#0a0705" d="M 346.5,121.5 C 356.525,120.731 359.525,124.898 355.5,134C 348.864,137.33 344.531,135.497 342.5,128.5C 343.071,125.687 344.404,123.354 346.5,121.5 Z"/></g>
<g><path style="opacity:1" fill="#0a0705" d="M 316.5,148.5 C 326.525,147.731 329.525,151.898 325.5,161C 318.864,164.33 314.531,162.497 312.5,155.5C 313.071,152.687 314.404,150.354 316.5,148.5 Z"/></g>
<g><path style="opacity:1" fill="#090705" d="M 121.5,151.5 C 131.525,150.731 134.525,154.898 130.5,164C 123.864,167.33 119.531,165.497 117.5,158.5C 118.071,155.687 119.404,153.354 121.5,151.5 Z"/></g>
<g><path style="opacity:1" fill="#090705" d="M 186.5,175.5 C 196.525,174.731 199.525,178.898 195.5,188C 188.864,191.33 184.531,189.497 182.5,182.5C 183.071,179.687 184.404,177.354 186.5,175.5 Z"/></g>
<g><path style="opacity:1" fill="#0a0705" d="M 386.5,191.5 C 396.525,190.731 399.525,194.898 395.5,204C 388.864,207.33 384.531,205.497 382.5,198.5C 383.071,195.687 384.404,193.354 386.5,191.5 Z"/></g>
<g><path style="opacity:1" fill="#27cd59" d="M 321.5,191.5 C 327.212,191.313 332.879,191.646 338.5,192.5C 340.278,221.196 327.612,240.029 300.5,249C 293.842,249.5 287.175,249.666 280.5,249.5C 278.697,219.003 292.363,199.67 321.5,191.5 Z"/></g>
<g><path style="opacity:1" fill="#fac589" d="M 224.5,217.5 C 235.944,215.778 246.277,218.278 255.5,225C 233.598,218.701 218.431,226.201 210,247.5C 207.531,271.191 218.031,284.858 241.5,288.5C 256.099,287.87 267.432,281.537 275.5,269.5C 282.693,277.018 291.026,283.018 300.5,287.5C 279.76,310.852 254.427,318.019 224.5,309C 198.929,295.355 188.763,274.189 194,245.5C 199.603,231.059 209.769,221.726 224.5,217.5 Z"/></g>
<g><path style="opacity:1" fill="#d54159" d="M 237.5,237.5 C 252.716,237.214 259.883,244.547 259,259.5C 254.709,271.229 246.542,275.396 234.5,272C 224.317,265.395 221.817,256.561 227,245.5C 229.975,241.952 233.475,239.286 237.5,237.5 Z"/></g>
<g><path style="opacity:1" fill="#00933a" d="M 340.5,238.5 C 349.014,241.013 356.181,245.679 362,252.5C 362.638,253.609 363.138,254.775 363.5,256C 351.494,271.996 335.494,278.663 315.5,276C 306.899,274.199 299.233,270.532 292.5,265C 312.845,263.668 328.845,254.835 340.5,238.5 Z"/></g>
<g><path style="opacity:1" fill="#010202" d="M 35.5,248.5 C 39.3547,247.845 42.1881,249.179 44,252.5C 44.2148,290.583 53.5481,326.25 72,359.5C 114.717,428.46 176.884,464.293 258.5,467C 261.821,468.812 263.155,471.645 262.5,475.5C 261.746,478.091 260.079,479.924 257.5,481C 176.718,479.698 113.218,446.198 67,380.5C 41.9274,341.547 29.5941,298.881 30,252.5C 31.451,250.536 33.2843,249.203 35.5,248.5 Z"/></g>
<g><path style="opacity:1" fill="#090705" d="M 136.5,261.5 C 146.525,260.731 149.525,264.898 145.5,274C 138.864,277.33 134.531,275.497 132.5,268.5C 133.071,265.687 134.404,263.354 136.5,261.5 Z"/></g>
<g><path style="opacity:1" fill="#0a0705" d="M 396.5,261.5 C 406.525,260.731 409.525,264.898 405.5,274C 398.864,277.33 394.531,275.497 392.5,268.5C 393.071,265.687 394.404,263.354 396.5,261.5 Z"/></g>
<g><path style="opacity:1" fill="#0a0705" d="M 296.5,331.5 C 306.525,330.731 309.525,334.898 305.5,344C 298.864,347.33 294.531,345.497 292.5,338.5C 293.071,335.687 294.404,333.354 296.5,331.5 Z"/></g>
<g><path style="opacity:1" fill="#ef9c6a" d="M 126.5,357.5 C 165.99,410.056 218.656,432.223 284.5,424C 327.872,417.564 365.038,399.064 396,368.5C 370.309,400.762 337.142,421.929 296.5,432C 226.013,445.504 166.513,426.004 118,373.5C 114.902,369.617 112.068,365.617 109.5,361.5C 115.077,359.323 120.744,357.989 126.5,357.5 Z"/></g>
<g><path style="opacity:1" fill="#090705" d="M 216.5,361.5 C 226.525,360.731 229.525,364.898 225.5,374C 218.864,377.33 214.531,375.497 212.5,368.5C 213.071,365.687 214.404,363.354 216.5,361.5 Z"/></g>
<g><path style="opacity:1" fill="#090705" d="M 326.5,361.5 C 336.525,360.731 339.525,364.898 335.5,374C 328.864,377.33 324.531,375.497 322.5,368.5C 323.071,365.687 324.404,363.354 326.5,361.5 Z"/></g>
</svg>
