<?xml version="1.0" encoding="UTF-8"?>
<!DOCTYPE svg PUBLIC "-//W3C//DTD SVG 1.1//EN" "http://www.w3.org/Graphics/SVG/1.1/DTD/svg11.dtd">
<svg xmlns="http://www.w3.org/2000/svg" version="1.1" width="512px" height="512px" style="shape-rendering:geometricPrecision; text-rendering:geometricPrecision; image-rendering:optimizeQuality; fill-rule:evenodd; clip-rule:evenodd" xmlns:xlink="http://www.w3.org/1999/xlink">
<g><path style="opacity:0.991" fill="#000000" d="M 343.5,487.5 C 343.5,484.833 343.5,482.167 343.5,479.5C 364.833,479.5 386.167,479.5 407.5,479.5C 407.5,386.167 407.5,292.833 407.5,199.5C 327.5,199.5 247.5,199.5 167.5,199.5C 167.5,212.833 167.5,226.167 167.5,239.5C 164.833,239.5 162.167,239.5 159.5,239.5C 156.833,239.5 154.167,239.5 151.5,239.5C 151.667,224.83 151.5,210.163 151,195.5C 135.255,184.241 131.255,169.574 139,151.5C 141.029,148.971 142.862,146.304 144.5,143.5C 136.484,134.274 133.65,123.607 136,111.5C 139.167,99 147,91.1667 159.5,88C 165.908,68.785 179.242,60.785 199.5,64C 208.003,66.5076 214.836,71.3409 220,78.5C 224.472,71.0396 230.972,66.2063 239.5,64C 251.502,61.5603 262.002,64.3937 271,72.5C 270.823,68.6824 272.323,65.8491 275.5,64C 299.5,63.3333 323.5,63.3333 347.5,64C 349.333,64.5 350.5,65.6667 351,67.5C 351.667,86.1667 351.667,104.833 351,123.5C 349.728,126.222 347.561,127.556 344.5,127.5C 345.867,142.436 350.7,156.103 359,168.5C 359.333,139.5 359.667,110.5 360,81.5C 365.668,53.3196 381.502,33.1529 407.5,21C 418.167,16.3333 428.833,16.3333 439.5,21C 465.498,33.1529 481.332,53.3196 487,81.5C 487.5,115.498 487.667,149.498 487.5,183.5C 491.514,183.334 495.514,183.501 499.5,184C 501.333,184.5 502.5,185.667 503,187.5C 503.667,288.833 503.667,390.167 503,491.5C 502.5,493.333 501.333,494.5 499.5,495C 447.501,495.5 395.501,495.667 343.5,495.5C 343.5,492.833 343.5,490.167 343.5,487.5 Z"/></g>
<g><path style="opacity:1" fill="#ae7c4c" d="M 417.5,34.5 C 421.514,34.3345 425.514,34.5012 429.5,35C 451.979,44.1537 465.812,60.6537 471,84.5C 471.5,117.498 471.667,150.498 471.5,183.5C 439.5,183.5 407.5,183.5 375.5,183.5C 375.5,178.167 375.5,172.833 375.5,167.5C 385.172,167.666 394.839,167.5 404.5,167C 418.651,162.203 424.817,152.369 423,137.5C 420.256,129.755 415.089,124.255 407.5,121C 396.912,119.571 386.245,119.071 375.5,119.5C 375.5,114.167 375.5,108.833 375.5,103.5C 385.172,103.666 394.839,103.5 404.5,103C 418.651,98.2028 424.817,88.3694 423,73.5C 416.552,59.1854 405.385,53.0188 389.5,55C 397.262,45.9589 406.595,39.1256 417.5,34.5 Z"/></g>
<g><path style="opacity:1" fill="#ecda99" d="M 379.5,71.5 C 387.174,71.3336 394.841,71.5003 402.5,72C 406.861,74.2258 408.361,77.7258 407,82.5C 406.167,84.6667 404.667,86.1667 402.5,87C 393.84,87.4998 385.173,87.6664 376.5,87.5C 376.251,81.9191 377.251,76.5857 379.5,71.5 Z"/></g>
<g><path style="opacity:1" fill="#339964" d="M 242.5,79.5 C 256.829,78.9913 264.329,85.9913 265,100.5C 266.734,102.451 268.901,103.451 271.5,103.5C 271.116,110.589 271.616,117.589 273,124.5C 274.242,125.872 275.742,126.872 277.5,127.5C 277.274,147.629 270.107,164.962 256,179.5C 255.5,151.502 255.333,123.502 255.5,95.5C 250.167,95.5 244.833,95.5 239.5,95.5C 239.5,124.833 239.5,154.167 239.5,183.5C 232.492,183.666 225.492,183.5 218.5,183C 207.569,177.638 204.735,169.472 210,158.5C 214.832,152.835 220.999,150.002 228.5,150C 232.379,145.631 232.379,141.298 228.5,137C 211.081,135.627 204.915,126.794 210,110.5C 211.5,109 213,107.5 214.5,106C 219.82,104.441 224.986,102.608 230,100.5C 230.107,90.9354 234.273,83.9354 242.5,79.5 Z"/></g>
<g><path style="opacity:1" fill="#efde9b" d="M 287.5,79.5 C 303.5,79.5 319.5,79.5 335.5,79.5C 335.5,90.1667 335.5,100.833 335.5,111.5C 319.5,111.5 303.5,111.5 287.5,111.5C 287.5,100.833 287.5,90.1667 287.5,79.5 Z"/></g>
<g><path style="opacity:1" fill="#339964" d="M 186.5,79.5 C 196.141,77.9832 202.807,81.6499 206.5,90.5C 203.327,94.042 200.16,97.7086 197,101.5C 188.696,116.504 190.196,130.504 201.5,143.5C 190.681,155.158 188.681,168.158 195.5,182.5C 184.515,183.666 173.515,183.832 162.5,183C 153.564,178.962 150.064,172.129 152,162.5C 156.194,154.147 163.027,149.981 172.5,150C 176.379,145.631 176.379,141.298 172.5,137C 157.843,136.352 151.01,128.852 152,114.5C 153.4,111.098 155.567,108.264 158.5,106C 163.82,104.441 168.986,102.608 174,100.5C 174.107,90.9354 178.273,83.9354 186.5,79.5 Z"/></g>
<g><path style="opacity:1" fill="#eebe32" d="M 294.5,127.5 C 305.833,127.5 317.167,127.5 328.5,127.5C 329.501,148.345 336.501,166.845 349.5,183C 324.167,183.667 298.833,183.667 273.5,183C 286.499,166.845 293.499,148.345 294.5,127.5 Z"/></g>
<g><path style="opacity:1" fill="#eddb9a" d="M 375.5,135.5 C 384.506,135.334 393.506,135.5 402.5,136C 407.535,139.013 408.702,143.18 406,148.5C 405.097,149.701 403.931,150.535 402.5,151C 393.506,151.5 384.506,151.666 375.5,151.5C 375.5,146.167 375.5,140.833 375.5,135.5 Z"/></g>
<g><path style="opacity:1" fill="#8bcde8" d="M 343.5,487.5 C 337.5,487.5 331.5,487.5 325.5,487.5C 330.527,481.777 333.694,475.11 335,467.5C 335.667,410.5 335.667,353.5 335,296.5C 328.485,277.978 315.319,269.644 295.5,271.5C 295.5,268.833 295.5,266.167 295.5,263.5C 299.936,263.79 304.27,263.29 308.5,262C 309.893,260.829 310.727,259.329 311,257.5C 311.961,244.405 311.628,231.405 310,218.5C 308.829,217.107 307.329,216.273 305.5,216C 277.167,215.333 248.833,215.333 220.5,216C 219.069,216.465 217.903,217.299 217,218.5C 215.372,231.405 215.039,244.405 216,257.5C 216.398,260.232 217.898,262.065 220.5,263C 224.152,263.499 227.818,263.665 231.5,263.5C 231.5,266.167 231.5,268.833 231.5,271.5C 219.156,269.558 208.822,273.058 200.5,282C 201.679,284.343 203.346,286.176 205.5,287.5C 203.06,290.455 201.227,293.789 200,297.5C 199.5,303.825 199.334,310.158 199.5,316.5C 199.205,318.423 198.372,320.09 197,321.5C 195.333,319.833 193.667,318.167 192,316.5C 191.667,308.167 191.333,299.833 191,291.5C 186.3,274.967 175.8,264.301 159.5,259.5C 159.5,252.833 159.5,246.167 159.5,239.5C 162.167,239.5 164.833,239.5 167.5,239.5C 167.5,226.167 167.5,212.833 167.5,199.5C 247.5,199.5 327.5,199.5 407.5,199.5C 407.5,292.833 407.5,386.167 407.5,479.5C 386.167,479.5 364.833,479.5 343.5,479.5C 343.5,482.167 343.5,484.833 343.5,487.5 Z"/></g>
<g><path style="opacity:1" fill="#37a0c5" d="M 423.5,199.5 C 444.833,199.5 466.167,199.5 487.5,199.5C 487.5,292.833 487.5,386.167 487.5,479.5C 466.167,479.5 444.833,479.5 423.5,479.5C 423.5,386.167 423.5,292.833 423.5,199.5 Z"/></g>
<g><path style="opacity:0.999" fill="#000000" d="M 325.5,487.5 C 321.629,491.272 316.962,493.772 311.5,495C 287.502,495.5 263.502,495.667 239.5,495.5C 239.5,492.833 239.5,490.167 239.5,487.5C 239.5,484.833 239.5,482.167 239.5,479.5C 262.502,479.667 285.502,479.5 308.5,479C 313.333,476.833 316.833,473.333 319,468.5C 319.5,461.508 319.666,454.508 319.5,447.5C 303.5,447.5 287.5,447.5 271.5,447.5C 271.5,444.833 271.5,442.167 271.5,439.5C 271.5,436.833 271.5,434.167 271.5,431.5C 287.5,431.5 303.5,431.5 319.5,431.5C 319.5,399.5 319.5,367.5 319.5,335.5C 290.167,335.5 260.833,335.5 231.5,335.5C 231.5,332.833 231.5,330.167 231.5,327.5C 231.5,324.833 231.5,322.167 231.5,319.5C 260.833,319.5 290.167,319.5 319.5,319.5C 319.666,312.492 319.5,305.492 319,298.5C 316.833,293.667 313.333,290.167 308.5,288C 293.504,287.5 278.504,287.333 263.5,287.5C 263.5,282.167 263.5,276.833 263.5,271.5C 268.833,271.5 274.167,271.5 279.5,271.5C 279.5,268.833 279.5,266.167 279.5,263.5C 268.833,263.5 258.167,263.5 247.5,263.5C 247.666,269.509 247.499,275.509 247,281.5C 246.727,283.329 245.893,284.829 244.5,286C 235.909,287.244 227.242,287.911 218.5,288C 215.827,289.001 213.493,290.501 211.5,292.5C 209.481,290.81 207.481,289.144 205.5,287.5C 203.346,286.176 201.679,284.343 200.5,282C 208.822,273.058 219.156,269.558 231.5,271.5C 231.5,268.833 231.5,266.167 231.5,263.5C 227.818,263.665 224.152,263.499 220.5,263C 217.898,262.065 216.398,260.232 216,257.5C 215.039,244.405 215.372,231.405 217,218.5C 217.903,217.299 219.069,216.465 220.5,216C 248.833,215.333 277.167,215.333 305.5,216C 307.329,216.273 308.829,217.107 310,218.5C 311.628,231.405 311.961,244.405 311,257.5C 310.727,259.329 309.893,260.829 308.5,262C 304.27,263.29 299.936,263.79 295.5,263.5C 295.5,266.167 295.5,268.833 295.5,271.5C 315.319,269.644 328.485,277.978 335,296.5C 335.667,353.5 335.667,410.5 335,467.5C 333.694,475.11 330.527,481.777 325.5,487.5 Z"/></g>
<g><path style="opacity:1" fill="#efde9b" d="M 231.5,231.5 C 252.833,231.5 274.167,231.5 295.5,231.5C 295.5,236.833 295.5,242.167 295.5,247.5C 274.167,247.5 252.833,247.5 231.5,247.5C 231.5,242.167 231.5,236.833 231.5,231.5 Z"/></g>
<g><path style="opacity:0.986" fill="#030201" d="M 159.5,259.5 C 175.8,264.301 186.3,274.967 191,291.5C 191.333,299.833 191.667,308.167 192,316.5C 193.667,318.167 195.333,319.833 197,321.5C 198.372,320.09 199.205,318.423 199.5,316.5C 202.4,311.036 205.567,305.703 209,300.5C 213.72,302.443 218.22,304.776 222.5,307.5C 219.153,314.193 215.82,320.86 212.5,327.5C 210.307,332.052 207.974,336.552 205.5,341C 246.594,361.692 261.927,394.526 251.5,439.5C 245.013,459.642 232.68,474.975 214.5,485.5C 213.29,485.932 212.29,486.599 211.5,487.5C 196.012,495.052 179.679,497.552 162.5,495C 158.035,494.301 153.702,493.134 149.5,491.5C 149.167,491 148.833,490.5 148.5,490C 149.274,487.846 149.941,485.679 150.5,483.5C 152.293,481.574 153.293,479.241 153.5,476.5C 177.072,483.437 198.405,479.271 217.5,464C 238.538,443.544 244.371,419.377 235,391.5C 228.225,375.725 217.059,364.225 201.5,357C 200.056,356.219 198.723,356.386 197.5,357.5C 194.628,363.412 191.628,369.245 188.5,375C 196.611,376.724 203.945,380.057 210.5,385C 208.557,389.72 206.224,394.22 203.5,398.5C 199.833,396.667 196.167,394.833 192.5,393C 179.677,395.782 169.344,391.949 161.5,381.5C 157.5,379.5 153.5,377.5 149.5,375.5C 148.417,374.635 148.251,373.635 149,372.5C 150.912,368.34 153.079,364.34 155.5,360.5C 161.412,363.372 167.245,366.372 173,369.5C 176.654,363.861 179.487,357.861 181.5,351.5C 163.14,350.342 146.973,355.676 133,367.5C 130.963,365.294 128.797,363.294 126.5,361.5C 124.967,359.645 123.3,357.812 121.5,356C 132.352,346.073 145.019,339.573 159.5,336.5C 169.2,335.43 178.867,335.263 188.5,336C 185.833,333.333 183.167,330.667 180.5,328C 173.508,327.5 166.508,327.334 159.5,327.5C 141.135,325.307 129.302,315.307 124,297.5C 121.348,284.945 120.015,272.278 120,259.5C 120.5,257.667 121.667,256.5 123.5,256C 135.6,255.99 147.6,257.157 159.5,259.5 Z"/></g>
<g><path style="opacity:1" fill="#e53f41" d="M 231.5,327.5 C 225.167,327.5 218.833,327.5 212.5,327.5C 215.82,320.86 219.153,314.193 222.5,307.5C 218.22,304.776 213.72,302.443 209,300.5C 205.567,305.703 202.4,311.036 199.5,316.5C 199.334,310.158 199.5,303.825 200,297.5C 201.227,293.789 203.06,290.455 205.5,287.5C 207.481,289.144 209.481,290.81 211.5,292.5C 213.493,290.501 215.827,289.001 218.5,288C 227.242,287.911 235.909,287.244 244.5,286C 245.893,284.829 246.727,283.329 247,281.5C 247.499,275.509 247.666,269.509 247.5,263.5C 258.167,263.5 268.833,263.5 279.5,263.5C 279.5,266.167 279.5,268.833 279.5,271.5C 274.167,271.5 268.833,271.5 263.5,271.5C 263.5,276.833 263.5,282.167 263.5,287.5C 278.504,287.333 293.504,287.5 308.5,288C 313.333,290.167 316.833,293.667 319,298.5C 319.5,305.492 319.666,312.492 319.5,319.5C 290.167,319.5 260.833,319.5 231.5,319.5C 231.5,322.167 231.5,324.833 231.5,327.5 Z"/></g>
<g><path style="opacity:1" fill="#329763" d="M 137.5,273.5 C 144.241,273.684 150.908,274.518 157.5,276C 165.502,278.003 171.002,282.836 174,290.5C 175.318,293.406 175.652,296.406 175,299.5C 170,294.5 165,289.5 160,284.5C 156.167,288.333 152.333,292.167 148.5,296C 153.5,301 158.5,306 163.5,311C 152.889,311.066 145.389,306.232 141,296.5C 139.399,288.894 138.232,281.227 137.5,273.5 Z"/></g>
<g><path style="opacity:1" fill="#8bcce7" d="M 159.5,327.5 C 166.508,327.334 173.508,327.5 180.5,328C 183.167,330.667 185.833,333.333 188.5,336C 178.867,335.263 169.2,335.43 159.5,336.5C 159.5,333.5 159.5,330.5 159.5,327.5 Z"/></g>
<g><path style="opacity:1" fill="#efdd9b" d="M 212.5,327.5 C 218.833,327.5 225.167,327.5 231.5,327.5C 231.5,330.167 231.5,332.833 231.5,335.5C 260.833,335.5 290.167,335.5 319.5,335.5C 319.5,367.5 319.5,399.5 319.5,431.5C 303.5,431.5 287.5,431.5 271.5,431.5C 271.5,434.167 271.5,436.833 271.5,439.5C 264.833,439.5 258.167,439.5 251.5,439.5C 261.927,394.526 246.594,361.692 205.5,341C 207.974,336.552 210.307,332.052 212.5,327.5 Z"/></g>
<g><path style="opacity:0.999" fill="#e78603" d="M 150.5,483.5 C 147.167,482.167 143.833,480.833 140.5,479.5C 146.925,472.223 152.425,464.223 157,455.5C 174.667,447.515 179.334,434.849 171,417.5C 167.214,412.94 162.547,409.606 157,407.5C 148.508,390.505 135.675,378.172 118.5,370.5C 121.167,367.5 123.833,364.5 126.5,361.5C 128.797,363.294 130.963,365.294 133,367.5C 146.973,355.676 163.14,350.342 181.5,351.5C 179.487,357.861 176.654,363.861 173,369.5C 167.245,366.372 161.412,363.372 155.5,360.5C 153.079,364.34 150.912,368.34 149,372.5C 148.251,373.635 148.417,374.635 149.5,375.5C 153.5,377.5 157.5,379.5 161.5,381.5C 169.344,391.949 179.677,395.782 192.5,393C 196.167,394.833 199.833,396.667 203.5,398.5C 206.224,394.22 208.557,389.72 210.5,385C 203.945,380.057 196.611,376.724 188.5,375C 191.628,369.245 194.628,363.412 197.5,357.5C 198.723,356.386 200.056,356.219 201.5,357C 217.059,364.225 228.225,375.725 235,391.5C 244.371,419.377 238.538,443.544 217.5,464C 198.405,479.271 177.072,483.437 153.5,476.5C 153.293,479.241 152.293,481.574 150.5,483.5 Z"/></g>
<g><path style="opacity:0.974" fill="#010100" d="M 118.5,370.5 C 135.675,378.172 148.508,390.505 157,407.5C 162.547,409.606 167.214,412.94 171,417.5C 179.334,434.849 174.667,447.515 157,455.5C 152.425,464.223 146.925,472.223 140.5,479.5C 121.199,494.905 99.532,499.405 75.5,493C 56.366,486.866 42.5327,474.7 34,456.5C 16.0194,448.565 11.0194,435.565 19,417.5C 22.4136,412.748 26.9136,409.581 32.5,408C 51.3692,373.405 80.0358,360.905 118.5,370.5 Z"/></g>
<g><path style="opacity:1" fill="#a2c329" d="M 86.5,383.5 C 115.258,381.459 134.758,393.792 145,420.5C 145.903,421.701 147.069,422.535 148.5,423C 158,423.186 161.167,427.686 158,436.5C 153.667,438.5 149.333,440.5 145,442.5C 134.781,469.362 115.281,481.529 86.5,479C 66.2484,474.296 52.7484,462.129 46,442.5C 42.4534,440.383 38.6201,438.883 34.5,438C 31.2306,434.547 30.7306,430.714 33,426.5C 37.2743,424.378 41.6077,422.378 46,420.5C 52.99,400.94 66.49,388.607 86.5,383.5 Z"/></g>
<g><path style="opacity:1" fill="#000000" d="M 63.5,407.5 C 68.8333,407.5 74.1667,407.5 79.5,407.5C 79.5,412.833 79.5,418.167 79.5,423.5C 74.1667,423.5 68.8333,423.5 63.5,423.5C 63.5,418.167 63.5,412.833 63.5,407.5 Z"/></g>
<g><path style="opacity:1" fill="#000000" d="M 111.5,423.5 C 116.833,423.5 122.167,423.5 127.5,423.5C 127.5,428.833 127.5,434.167 127.5,439.5C 122.167,439.5 116.833,439.5 111.5,439.5C 111.5,434.167 111.5,428.833 111.5,423.5 Z"/></g>
<g><path style="opacity:1" fill="#000000" d="M 79.5,439.5 C 84.8333,439.5 90.1667,439.5 95.5,439.5C 95.5,444.833 95.5,450.167 95.5,455.5C 90.1667,455.5 84.8333,455.5 79.5,455.5C 79.5,450.167 79.5,444.833 79.5,439.5 Z"/></g>
<g><path style="opacity:1" fill="#e43f41" d="M 251.5,439.5 C 258.167,439.5 264.833,439.5 271.5,439.5C 271.5,442.167 271.5,444.833 271.5,447.5C 287.5,447.5 303.5,447.5 319.5,447.5C 319.666,454.508 319.5,461.508 319,468.5C 316.833,473.333 313.333,476.833 308.5,479C 285.502,479.5 262.502,479.667 239.5,479.5C 239.5,482.167 239.5,484.833 239.5,487.5C 232.5,487.5 225.5,487.5 218.5,487.5C 217.329,486.655 215.995,485.989 214.5,485.5C 232.68,474.975 245.013,459.642 251.5,439.5 Z"/></g>
<g><path style="opacity:1" fill="#92bad1" d="M 214.5,485.5 C 215.995,485.989 217.329,486.655 218.5,487.5C 216.167,487.5 213.833,487.5 211.5,487.5C 212.29,486.599 213.29,485.932 214.5,485.5 Z"/></g>
</svg>
