<?xml version="1.0" encoding="UTF-8"?>
<!DOCTYPE svg PUBLIC "-//W3C//DTD SVG 1.1//EN" "http://www.w3.org/Graphics/SVG/1.1/DTD/svg11.dtd">
<svg xmlns="http://www.w3.org/2000/svg" version="1.1" width="512px" height="512px" style="shape-rendering:geometricPrecision; text-rendering:geometricPrecision; image-rendering:optimizeQuality; fill-rule:evenodd; clip-rule:evenodd" xmlns:xlink="http://www.w3.org/1999/xlink">
<g><path style="opacity:0.979" fill="#020303" d="M 214.5,-0.5 C 220.833,-0.5 227.167,-0.5 233.5,-0.5C 235.604,1.37183 236.937,3.70516 237.5,6.5C 236.892,9.95832 234.892,12.4583 231.5,14C 227.167,14.3333 222.833,14.6667 218.5,15C 217.069,15.4652 215.903,16.2986 215,17.5C 213.547,28.0631 213.047,38.7298 213.5,49.5C 219.5,49.5 225.5,49.5 231.5,49.5C 231.334,45.4862 231.501,41.4862 232,37.5C 236.667,30.8333 241.333,30.8333 246,37.5C 246.499,41.4862 246.666,45.4862 246.5,49.5C 252.5,49.5 258.5,49.5 264.5,49.5C 264.334,45.4862 264.501,41.4862 265,37.5C 269.667,30.8333 274.333,30.8333 279,37.5C 279.499,41.1516 279.665,44.8183 279.5,48.5C 285.31,49.4896 291.31,49.8229 297.5,49.5C 297.953,38.7298 297.453,28.0631 296,17.5C 294.829,16.1068 293.329,15.2735 291.5,15C 287.514,14.5012 283.514,14.3345 279.5,14.5C 271.826,14.6664 264.159,14.4997 256.5,14C 253.676,12.1642 252.01,9.66418 251.5,6.5C 251.998,3.67365 253.331,1.34032 255.5,-0.5C 269.167,-0.5 282.833,-0.5 296.5,-0.5C 305.761,2.9386 311.261,9.60526 313,19.5C 313.915,31.5578 313.581,43.5578 312,55.5C 308.699,61.7331 303.533,64.7331 296.5,64.5C 296.215,66.288 296.548,67.9547 297.5,69.5C 310.698,78.5296 324.031,87.363 337.5,96C 342.285,100.069 345.119,105.236 346,111.5C 346.667,120.167 346.667,128.833 346,137.5C 345.202,142.394 343.702,147.061 341.5,151.5C 343.527,154.221 345.027,157.221 346,160.5C 346.667,190.5 346.667,220.5 346,250.5C 345.428,254.142 343.928,257.309 341.5,260C 347.666,277.276 348.166,294.776 343,312.5C 340.667,318.167 338.333,323.833 336,329.5C 334.455,334.724 333.622,340.057 333.5,345.5C 337.345,365.55 341.512,385.55 346,405.5C 346.667,429.167 346.667,452.833 346,476.5C 342.611,494.716 332.111,506.382 314.5,511.5C 275.167,511.5 235.833,511.5 196.5,511.5C 178.889,506.382 168.389,494.716 165,476.5C 164.333,452.833 164.333,429.167 165,405.5C 169.488,385.55 173.655,365.55 177.5,345.5C 177.378,340.057 176.545,334.724 175,329.5C 166.007,312.222 162.674,293.888 165,274.5C 165.651,269.393 167.151,264.559 169.5,260C 167.356,257.547 165.856,254.714 165,251.5C 164.333,221.167 164.333,190.833 165,160.5C 165.973,157.221 167.473,154.221 169.5,151.5C 167.298,147.061 165.798,142.394 165,137.5C 164.333,128.833 164.333,120.167 165,111.5C 165.881,105.236 168.715,100.069 173.5,96C 186.969,87.363 200.302,78.5296 213.5,69.5C 214.452,67.9547 214.785,66.288 214.5,64.5C 207.467,64.7331 202.301,61.7331 199,55.5C 197.419,43.5578 197.085,31.5578 198,19.5C 199.739,9.60526 205.239,2.9386 214.5,-0.5 Z"/></g>
<g><path style="opacity:1" fill="#eaf5f9" d="M 237.5,6.5 C 242.167,6.5 246.833,6.5 251.5,6.5C 252.01,9.66418 253.676,12.1642 256.5,14C 264.159,14.4997 271.826,14.6664 279.5,14.5C 280.801,15.8816 281.634,17.5483 282,19.5C 282.5,29.1609 282.666,38.8276 282.5,48.5C 281.5,48.5 280.5,48.5 279.5,48.5C 279.665,44.8183 279.499,41.1516 279,37.5C 274.333,30.8333 269.667,30.8333 265,37.5C 264.501,41.4862 264.334,45.4862 264.5,49.5C 258.5,49.5 252.5,49.5 246.5,49.5C 246.666,45.4862 246.499,41.4862 246,37.5C 241.333,30.8333 236.667,30.8333 232,37.5C 231.501,41.4862 231.334,45.4862 231.5,49.5C 225.5,49.5 219.5,49.5 213.5,49.5C 213.047,38.7298 213.547,28.0631 215,17.5C 215.903,16.2986 217.069,15.4652 218.5,15C 222.833,14.6667 227.167,14.3333 231.5,14C 234.892,12.4583 236.892,9.95832 237.5,6.5 Z"/></g>
<g><path style="opacity:1" fill="#ccecf8" d="M 279.5,14.5 C 283.514,14.3345 287.514,14.5012 291.5,15C 293.329,15.2735 294.829,16.1068 296,17.5C 297.453,28.0631 297.953,38.7298 297.5,49.5C 291.31,49.8229 285.31,49.4896 279.5,48.5C 280.5,48.5 281.5,48.5 282.5,48.5C 282.666,38.8276 282.5,29.1609 282,19.5C 281.634,17.5483 280.801,15.8816 279.5,14.5 Z"/></g>
<g><path style="opacity:1" fill="#46545a" d="M 281.5,64.5 C 276.167,64.5 270.833,64.5 265.5,64.5C 253.833,64.5 242.167,64.5 230.5,64.5C 230.795,66.7354 230.461,68.7354 229.5,70.5C 229.5,68.1667 229.5,65.8333 229.5,63.5C 247.008,63.17 264.341,63.5033 281.5,64.5 Z"/></g>
<g><path style="opacity:1" fill="#cfeffb" d="M 265.5,64.5 C 264.7,69.1264 266.034,72.9597 269.5,76C 284.612,85.3051 299.112,95.4718 313,106.5C 316.661,120.641 316.161,134.641 311.5,148.5C 269.499,148.667 227.499,148.5 185.5,148C 183.599,145.03 182.099,141.864 181,138.5C 180.053,128.733 180.387,119.066 182,109.5C 196.08,99.8761 210.247,90.3761 224.5,81C 227.603,78.194 229.27,74.694 229.5,70.5C 230.461,68.7354 230.795,66.7354 230.5,64.5C 242.167,64.5 253.833,64.5 265.5,64.5 Z"/></g>
<g><path style="opacity:1" fill="#99d5f6" d="M 265.5,64.5 C 270.833,64.5 276.167,64.5 281.5,64.5C 280.476,70.8827 282.143,76.3827 286.5,81C 300.167,90 313.833,99 327.5,108C 328.701,108.903 329.535,110.069 330,111.5C 330.923,121.574 330.59,131.574 329,141.5C 327.961,143.746 326.794,145.913 325.5,148C 320.845,148.499 316.179,148.666 311.5,148.5C 316.161,134.641 316.661,120.641 313,106.5C 299.112,95.4718 284.612,85.3051 269.5,76C 266.034,72.9597 264.7,69.1264 265.5,64.5 Z"/></g>
<g><path style="opacity:1" fill="#71c0f5" d="M 315.5,163.5 C 315.5,169.833 315.5,176.167 315.5,182.5C 298.058,190.059 293.558,202.392 302,219.5C 305.533,224.208 310.033,227.541 315.5,229.5C 315.5,235.5 315.5,241.5 315.5,247.5C 320.5,247.5 325.5,247.5 330.5,247.5C 296.669,248.332 262.669,248.832 228.5,249C 225.875,251.196 224.875,254.03 225.5,257.5C 220.167,254.833 214.833,254.833 209.5,257.5C 210.125,254.03 209.125,251.196 206.5,249C 197.657,248.83 188.99,248.33 180.5,247.5C 180.5,241.833 180.5,236.167 180.5,230.5C 184.702,230.817 188.702,230.483 192.5,229.5C 207.69,225.797 214.524,216.131 213,200.5C 207.39,185.601 196.557,179.268 180.5,181.5C 180.5,175.5 180.5,169.5 180.5,163.5C 225.5,163.5 270.5,163.5 315.5,163.5 Z"/></g>
<g><path style="opacity:1" fill="#1d9cf2" d="M 315.5,163.5 C 320.5,163.5 325.5,163.5 330.5,163.5C 330.5,169.5 330.5,175.5 330.5,181.5C 325.405,181.221 320.405,181.555 315.5,182.5C 315.5,176.167 315.5,169.833 315.5,163.5 Z"/></g>
<g><path style="opacity:1" fill="#030405" d="M 250.5,181.5 C 269.995,181.494 279.495,191.161 279,210.5C 274.292,225.445 264.126,231.612 248.5,229C 235.358,223.557 229.858,213.724 232,199.5C 235.441,190.557 241.608,184.557 250.5,181.5 Z"/></g>
<g><path style="opacity:1" fill="#e6f1f5" d="M 180.5,196.5 C 186.061,195.802 191.227,196.802 196,199.5C 199.77,205.046 198.937,209.879 193.5,214C 189.179,214.499 184.846,214.666 180.5,214.5C 180.5,208.5 180.5,202.5 180.5,196.5 Z"/></g>
<g><path style="opacity:1" fill="#f6f6f6" d="M 252.5,196.5 C 260.986,196.151 264.82,200.151 264,208.5C 261.598,214.092 257.431,215.925 251.5,214C 244.631,207.724 244.965,201.891 252.5,196.5 Z"/></g>
<g><path style="opacity:1" fill="#cceaf5" d="M 318.5,196.5 C 322.5,196.5 326.5,196.5 330.5,196.5C 330.5,202.5 330.5,208.5 330.5,214.5C 326.154,214.666 321.821,214.499 317.5,214C 310.642,207.676 310.976,201.843 318.5,196.5 Z"/></g>
<g><path style="opacity:1" fill="#1d9df3" d="M 315.5,229.5 C 316.5,229.5 317.5,229.5 318.5,229.5C 322.298,230.483 326.298,230.817 330.5,230.5C 330.5,236.167 330.5,241.833 330.5,247.5C 325.5,247.5 320.5,247.5 315.5,247.5C 315.5,241.5 315.5,235.5 315.5,229.5 Z"/></g>
<g><path style="opacity:1" fill="#2e4f65" d="M 192.5,229.5 C 188.702,230.483 184.702,230.817 180.5,230.5C 180.5,236.167 180.5,241.833 180.5,247.5C 179.51,241.69 179.177,235.69 179.5,229.5C 183.833,229.5 188.167,229.5 192.5,229.5 Z"/></g>
<g><path style="opacity:1" fill="#0c4062" d="M 318.5,229.5 C 322.833,229.5 327.167,229.5 331.5,229.5C 331.823,235.69 331.49,241.69 330.5,247.5C 330.5,241.833 330.5,236.167 330.5,230.5C 326.298,230.817 322.298,230.483 318.5,229.5 Z"/></g>
<g><path style="opacity:1" fill="#ceeefa" d="M 225.5,257.5 C 226.167,260.167 227.833,261.833 230.5,262.5C 257.336,263.167 284.336,263.833 311.5,264.5C 314.274,269.485 315.607,274.818 315.5,280.5C 270.5,280.5 225.5,280.5 180.5,280.5C 180.263,274.136 181.929,268.303 185.5,263C 192.5,262.667 199.5,262.333 206.5,262C 208.141,260.871 209.141,259.371 209.5,257.5C 214.833,254.833 220.167,254.833 225.5,257.5 Z"/></g>
<g><path style="opacity:1" fill="#89b4ca" d="M 230.5,262.5 C 262.174,262.167 293.84,262.5 325.5,263.5C 329.52,268.866 331.187,274.866 330.5,281.5C 280.331,281.832 230.331,281.499 180.5,280.5C 225.5,280.5 270.5,280.5 315.5,280.5C 315.607,274.818 314.274,269.485 311.5,264.5C 284.336,263.833 257.336,263.167 230.5,262.5 Z"/></g>
<g><path style="opacity:1" fill="#cfeffa" d="M 314.5,296.5 C 314.613,301.33 313.78,305.997 312,310.5C 309.396,316.818 306.896,323.151 304.5,329.5C 299.552,330.559 294.552,330.726 289.5,330C 282.167,327 274.833,324 267.5,321C 259.5,319 251.5,319 243.5,321C 235.709,324.562 227.709,327.562 219.5,330C 208.582,330.81 198.415,328.31 189,322.5C 184.862,314.252 182.028,305.586 180.5,296.5C 225.167,296.5 269.833,296.5 314.5,296.5 Z"/></g>
<g><path style="opacity:1" fill="#99d5f5" d="M 314.5,296.5 C 319.833,296.5 325.167,296.5 330.5,296.5C 328.972,305.586 326.138,314.252 322,322.5C 316.217,324.976 310.383,327.309 304.5,329.5C 306.896,323.151 309.396,316.818 312,310.5C 313.78,305.997 314.613,301.33 314.5,296.5 Z"/></g>
<g><path style="opacity:1" fill="#cdedf9" d="M 302.5,345.5 C 303.475,356.04 305.475,366.373 308.5,376.5C 303.134,379.171 297.468,380.005 291.5,379C 279.958,373.652 267.958,369.819 255.5,367.5C 251.079,367.855 246.746,368.688 242.5,370C 234.308,373.397 225.975,376.397 217.5,379C 214.5,379.667 211.5,379.667 208.5,379C 201.677,376.451 195.01,373.617 188.5,370.5C 190.691,364.689 192.024,358.689 192.5,352.5C 193.167,348.833 193.833,345.167 194.5,341.5C 202.794,345.155 211.46,346.322 220.5,345C 230.11,342.463 239.444,339.13 248.5,335C 252.833,334.333 257.167,334.333 261.5,335C 270.167,338.333 278.833,341.667 287.5,345C 292.489,345.499 297.489,345.666 302.5,345.5 Z"/></g>
<g><path style="opacity:1" fill="#98d4f5" d="M 316.5,341.5 C 317.167,345.167 317.833,348.833 318.5,352.5C 318.939,358.696 320.273,364.696 322.5,370.5C 318.074,373.046 313.408,375.046 308.5,376.5C 305.475,366.373 303.475,356.04 302.5,345.5C 307.225,344.369 311.892,343.036 316.5,341.5 Z"/></g>
<g><path style="opacity:1" fill="#72838a" d="M 194.5,341.5 C 193.833,345.167 193.167,348.833 192.5,352.5C 192.176,348.445 192.509,344.445 193.5,340.5C 194.107,340.624 194.44,340.957 194.5,341.5 Z"/></g>
<g><path style="opacity:1" fill="#547485" d="M 316.5,341.5 C 316.56,340.957 316.893,340.624 317.5,340.5C 318.491,344.445 318.824,348.445 318.5,352.5C 317.833,348.833 317.167,345.167 316.5,341.5 Z"/></g>
<g><path style="opacity:1" fill="#cdedf9" d="M 312.5,391.5 C 315.071,401.657 316.071,411.991 315.5,422.5C 311.485,423.895 307.485,425.395 303.5,427C 299.167,427.667 294.833,427.667 290.5,427C 281.609,423.389 272.609,420.055 263.5,417C 257.833,416.333 252.167,416.333 246.5,417C 237.833,420.333 229.167,423.667 220.5,427C 216.167,427.667 211.833,427.667 207.5,427C 198.72,423.777 190.054,420.277 181.5,416.5C 180.338,411.533 180.171,406.533 181,401.5C 182.328,396.522 183.495,391.522 184.5,386.5C 190.997,388.077 197.331,390.243 203.5,393C 211.254,395.084 218.921,394.75 226.5,392C 235.901,387.922 245.568,384.755 255.5,382.5C 257.167,382.667 258.833,382.833 260.5,383C 270.434,386.867 280.434,390.533 290.5,394C 294.167,394.667 297.833,394.667 301.5,394C 305.145,393.005 308.812,392.172 312.5,391.5 Z"/></g>
<g><path style="opacity:1" fill="#98d4f4" d="M 315.5,422.5 C 316.071,411.991 315.071,401.657 312.5,391.5C 316.817,389.06 321.483,387.393 326.5,386.5C 327.505,391.522 328.672,396.522 330,401.5C 330.829,406.533 330.662,411.533 329.5,416.5C 324.807,418.515 320.141,420.515 315.5,422.5 Z"/></g>
<g><path style="opacity:1" fill="#cdedf9" d="M 313.5,439.5 C 315.467,447.097 316.134,455.097 315.5,463.5C 270.5,463.5 225.5,463.5 180.5,463.5C 180.334,453.161 180.5,442.828 181,432.5C 191.049,437.35 201.549,440.684 212.5,442.5C 217.943,442.378 223.276,441.545 228.5,440C 237.068,435.643 246.068,432.81 255.5,431.5C 257.833,431.667 260.167,431.833 262.5,432C 271.021,435.729 279.688,439.062 288.5,442C 297.042,443.042 305.375,442.209 313.5,439.5 Z"/></g>
<g><path style="opacity:1" fill="#99d5f6" d="M 315.5,463.5 C 316.134,455.097 315.467,447.097 313.5,439.5C 318.732,437.191 324.065,434.857 329.5,432.5C 330.499,442.812 330.832,453.145 330.5,463.5C 325.5,463.5 320.5,463.5 315.5,463.5 Z"/></g>
<g><path style="opacity:1" fill="#cfeffb" d="M 314.5,478.5 C 312.479,485.518 308.813,491.518 303.5,496.5C 268.832,496.667 234.165,496.5 199.5,496C 190.793,493.46 184.793,487.96 181.5,479.5C 225.828,478.5 270.162,478.167 314.5,478.5 Z"/></g>
<g><path style="opacity:1" fill="#98d3f3" d="M 314.5,478.5 C 319.544,478.173 324.544,478.506 329.5,479.5C 324.54,490.787 315.873,496.454 303.5,496.5C 308.813,491.518 312.479,485.518 314.5,478.5 Z"/></g>
</svg>
