<?xml version="1.0" encoding="UTF-8"?>
<!DOCTYPE svg PUBLIC "-//W3C//DTD SVG 1.1//EN" "http://www.w3.org/Graphics/SVG/1.1/DTD/svg11.dtd">
<svg xmlns="http://www.w3.org/2000/svg" version="1.1" width="512px" height="512px" style="shape-rendering:geometricPrecision; text-rendering:geometricPrecision; image-rendering:optimizeQuality; fill-rule:evenodd; clip-rule:evenodd" xmlns:xlink="http://www.w3.org/1999/xlink">
<g><path style="opacity:0.967" fill="#010100" d="M 265.5,-0.5 C 274.167,-0.5 282.833,-0.5 291.5,-0.5C 294.485,1.25495 296.985,3.58828 299,6.5C 303.094,15.1201 306.594,23.9534 309.5,33C 309.356,37.954 307.356,41.954 303.5,45C 294.833,49 286.167,53 277.5,57C 275.622,58.5429 274.122,60.3762 273,62.5C 265.005,80.7961 262.339,99.7961 265,119.5C 265.55,123.703 266.717,127.703 268.5,131.5C 281.332,138.666 290.666,148.999 296.5,162.5C 315.07,147.687 335.736,143.853 358.5,151C 366.326,154.41 373.66,158.577 380.5,163.5C 392.843,162.456 404.676,159.456 416,154.5C 419.059,154.944 421.559,156.277 423.5,158.5C 424.1,162.516 423.1,166.016 420.5,169C 410.563,173.479 400.23,176.646 389.5,178.5C 394.439,188.046 400.606,196.713 408,204.5C 411.038,201.631 413.871,198.631 416.5,195.5C 419.667,192.502 423,189.669 426.5,187C 435.118,186.613 437.951,190.447 435,198.5C 429.5,204 424,209.5 418.5,215C 426.287,222.394 434.954,228.561 444.5,233.5C 446.326,219.853 450.826,207.186 458,195.5C 470.308,179.024 482.808,162.691 495.5,146.5C 492.479,142.812 489.146,139.479 485.5,136.5C 482.854,133.188 479.854,130.188 476.5,127.5C 467.024,134.475 457.691,141.642 448.5,149C 444.345,150.054 440.678,149.22 437.5,146.5C 436.014,142.606 436.681,139.106 439.5,136C 449.5,128.333 459.5,120.667 469.5,113C 474.987,110.815 480.32,111.149 485.5,114C 494.765,122.76 503.431,131.927 511.5,141.5C 511.5,144.833 511.5,148.167 511.5,151.5C 498.353,168.431 485.187,185.431 472,202.5C 463.314,215.909 459.648,230.576 461,246.5C 474.092,262.275 478.426,280.275 474,300.5C 472.08,307.671 469.08,314.338 465,320.5C 412.277,378.93 352.777,428.763 286.5,470C 281.305,473.466 276.305,473.299 271.5,469.5C 271.791,466.963 271.958,464.296 272,461.5C 313.424,435.415 352.591,406.248 389.5,374C 412.031,353.136 433.531,331.303 454,308.5C 465.177,286.05 461.343,266.55 442.5,250C 412,234.167 388.833,211 373,180.5C 369.833,177.333 366.667,174.167 363.5,171C 359.626,168.063 355.293,166.229 350.5,165.5C 330.453,159.789 313.619,165.123 300,181.5C 299.444,190.065 297.777,198.398 295,206.5C 283.546,232.076 271.546,257.409 259,282.5C 256.303,285.87 252.803,287.204 248.5,286.5C 245.349,283.864 244.182,280.531 245,276.5C 259.375,248.754 272.375,220.421 284,191.5C 285.943,165.449 274.443,148.616 249.5,141C 216.644,135.903 187.977,122.237 163.5,100C 159.342,97.672 155.008,95.8387 150.5,94.5C 130.89,90.756 115.057,96.756 103,112.5C 99.6733,119.131 96.3399,125.798 93,132.5C 90.3583,135.029 87.1916,136.029 83.5,135.5C 82.2058,134.71 81.0391,133.71 80,132.5C 85.527,98.648 105.527,80.3147 140,77.5C 148.444,77.826 156.61,79.4927 164.5,82.5C 176.38,78.4553 186.546,71.7886 195,62.5C 201.584,52.3337 207.918,42.0003 214,31.5C 227.023,14.0761 244.19,3.40943 265.5,-0.5 Z"/></g>
<g><path style="opacity:1" fill="#3ab44d" d="M 287.5,19.5 C 268.753,20.1176 252.92,27.451 240,41.5C 232.417,52.9982 225.083,64.6648 218,76.5C 213.301,81.5336 208.301,86.2002 203,90.5C 202.275,95.958 204.775,98.958 210.5,99.5C 208.766,103.3 206.766,106.966 204.5,110.5C 195.409,106.295 187.409,100.629 180.5,93.5C 190.34,87.8325 199.174,80.8325 207,72.5C 214.583,61.0018 221.917,49.3352 229,37.5C 243.973,20.396 262.807,12.896 285.5,15C 286.582,16.3297 287.249,17.8297 287.5,19.5 Z"/></g>
<g><path style="opacity:1" fill="#4cc25d" d="M 287.5,19.5 C 289.631,23.5949 291.631,27.7615 293.5,32C 284.833,36.3333 276.167,40.6667 267.5,45C 263.182,48.3148 260.015,52.4814 258,57.5C 248.946,79.3791 246.113,102.046 249.5,125.5C 238.709,124.243 228.375,121.41 218.5,117C 221.795,110.242 224.962,103.409 228,96.5C 229.291,88.212 225.791,85.0454 217.5,87C 214.253,90.6602 211.92,94.8269 210.5,99.5C 204.775,98.958 202.275,95.958 203,90.5C 208.301,86.2002 213.301,81.5336 218,76.5C 225.083,64.6648 232.417,52.9982 240,41.5C 252.92,27.451 268.753,20.1176 287.5,19.5 Z"/></g>
<g><path style="opacity:0.999" fill="#fc7b65" d="M 150.5,94.5 C 142.528,100.306 135.695,107.306 130,115.5C 111.741,152.35 95.4072,190.017 81,228.5C 62.692,283.925 49.8587,340.591 42.5,398.5C 38.2557,403.253 38.589,407.586 43.5,411.5C 47.7477,433.381 59.081,450.381 77.5,462.5C 48.6226,460.138 28.7893,445.471 18,418.5C 15.7713,411.006 14.6046,403.339 14.5,395.5C 23.6923,314.394 45.1923,236.728 79,162.5C 79.8178,158.469 78.6511,155.136 75.5,152.5C 78.4032,147.023 81.0698,141.357 83.5,135.5C 87.1916,136.029 90.3583,135.029 93,132.5C 96.3399,125.798 99.6733,119.131 103,112.5C 115.057,96.756 130.89,90.756 150.5,94.5 Z"/></g>
<g><path style="opacity:1" fill="#fd8e82" d="M 150.5,94.5 C 155.008,95.8387 159.342,97.672 163.5,100C 187.977,122.237 216.644,135.903 249.5,141C 274.443,148.616 285.943,165.449 284,191.5C 272.375,220.421 259.375,248.754 245,276.5C 244.182,280.531 245.349,283.864 248.5,286.5C 245.106,291.911 242.106,297.578 239.5,303.5C 234.834,301.469 231.001,302.469 228,306.5C 197.204,357.979 161.038,405.479 119.5,449C 106.988,458.128 92.9881,462.628 77.5,462.5C 59.081,450.381 47.7477,433.381 43.5,411.5C 49.8476,413.489 53.5143,411.156 54.5,404.5C 52.6335,398.531 48.6335,396.531 42.5,398.5C 49.8587,340.591 62.692,283.925 81,228.5C 95.4072,190.017 111.741,152.35 130,115.5C 135.695,107.306 142.528,100.306 150.5,94.5 Z"/></g>
<g><path style="opacity:1" fill="#060302" d="M 131.5,120.5 C 137.766,119.117 141.433,121.45 142.5,127.5C 141.647,134.103 137.98,136.27 131.5,134C 127.541,129.501 127.541,125.001 131.5,120.5 Z"/></g>
<g><path style="opacity:0.995" fill="#3ab44d" d="M 485.5,136.5 C 468.729,148.759 452.062,161.259 435.5,174C 427.018,178.717 418.018,182.05 408.5,184C 408.043,184.414 407.709,184.914 407.5,185.5C 408.531,186.7 409.365,188.034 410,189.5C 411.535,192.294 413.702,194.294 416.5,195.5C 413.871,198.631 411.038,201.631 408,204.5C 400.606,196.713 394.439,188.046 389.5,178.5C 400.23,176.646 410.563,173.479 420.5,169C 423.1,166.016 424.1,162.516 423.5,158.5C 428.461,154.874 433.128,150.874 437.5,146.5C 440.678,149.22 444.345,150.054 448.5,149C 457.691,141.642 467.024,134.475 476.5,127.5C 479.854,130.188 482.854,133.188 485.5,136.5 Z"/></g>
<g><path style="opacity:1" fill="#4cc25d" d="M 485.5,136.5 C 489.146,139.479 492.479,142.812 495.5,146.5C 482.808,162.691 470.308,179.024 458,195.5C 450.826,207.186 446.326,219.853 444.5,233.5C 434.954,228.561 426.287,222.394 418.5,215C 424,209.5 429.5,204 435,198.5C 437.951,190.447 435.118,186.613 426.5,187C 423,189.669 419.667,192.502 416.5,195.5C 413.702,194.294 411.535,192.294 410,189.5C 409.365,188.034 408.531,186.7 407.5,185.5C 407.709,184.914 408.043,184.414 408.5,184C 418.018,182.05 427.018,178.717 435.5,174C 452.062,161.259 468.729,148.759 485.5,136.5 Z"/></g>
<g><path style="opacity:0.97" fill="#020101" d="M 75.5,152.5 C 78.6511,155.136 79.8178,158.469 79,162.5C 45.1923,236.728 23.6923,314.394 14.5,395.5C 14.6046,403.339 15.7713,411.006 18,418.5C 28.7893,445.471 48.6226,460.138 77.5,462.5C 92.9881,462.628 106.988,458.128 119.5,449C 161.038,405.479 197.204,357.979 228,306.5C 231.001,302.469 234.834,301.469 239.5,303.5C 242.24,305.9 243.073,308.9 242,312.5C 223.308,343.892 202.641,373.892 180,402.5C 164.153,421.011 148.32,439.511 132.5,458C 146.53,485.675 168.863,498.175 199.5,495.5C 204.211,494.99 208.878,494.156 213.5,493C 224.753,487.402 235.753,481.402 246.5,475C 250.132,474.481 253.132,475.647 255.5,478.5C 257.152,482.421 256.485,485.921 253.5,489C 243.327,494.921 232.994,500.587 222.5,506C 216.469,508.168 210.469,510.001 204.5,511.5C 195.833,511.5 187.167,511.5 178.5,511.5C 152.004,505.837 132.171,491.17 119,467.5C 99.5137,477.804 79.0137,480.304 57.5,475C 26.0388,464.374 6.7055,442.874 -0.5,410.5C -0.5,402.167 -0.5,393.833 -0.5,385.5C 8.2314,322.242 23.7314,260.575 46,200.5C 52.1549,184.691 58.9883,169.191 66.5,154C 69.3508,152.711 72.3508,152.211 75.5,152.5 Z"/></g>
<g><path style="opacity:1" fill="#fccf5a" d="M 350.5,165.5 C 340.022,165.936 330.855,169.603 323,176.5C 322.333,177.833 321.667,179.167 321,180.5C 321.132,193.343 318.798,205.676 314,217.5C 281.082,296.745 237.082,368.745 182,433.5C 168.708,454.574 169.541,475.074 184.5,495C 189.489,495.499 194.489,495.666 199.5,495.5C 168.863,498.175 146.53,485.675 132.5,458C 148.32,439.511 164.153,421.011 180,402.5C 202.641,373.892 223.308,343.892 242,312.5C 243.073,308.9 242.24,305.9 239.5,303.5C 242.106,297.578 245.106,291.911 248.5,286.5C 252.803,287.204 256.303,285.87 259,282.5C 271.546,257.409 283.546,232.076 295,206.5C 297.777,198.398 299.444,190.065 300,181.5C 313.619,165.123 330.453,159.789 350.5,165.5 Z"/></g>
<g><path style="opacity:1" fill="#fde359" d="M 350.5,165.5 C 355.293,166.229 359.626,168.063 363.5,171C 366.667,174.167 369.833,177.333 373,180.5C 388.833,211 412,234.167 442.5,250C 461.343,266.55 465.177,286.05 454,308.5C 433.531,331.303 412.031,353.136 389.5,374C 352.591,406.248 313.424,435.415 272,461.5C 271.958,464.296 271.791,466.963 271.5,469.5C 266.167,472.5 260.833,475.5 255.5,478.5C 253.132,475.647 250.132,474.481 246.5,475C 235.753,481.402 224.753,487.402 213.5,493C 208.878,494.156 204.211,494.99 199.5,495.5C 194.489,495.666 189.489,495.499 184.5,495C 169.541,475.074 168.708,454.574 182,433.5C 237.082,368.745 281.082,296.745 314,217.5C 318.798,205.676 321.132,193.343 321,180.5C 321.667,179.167 322.333,177.833 323,176.5C 330.855,169.603 340.022,165.936 350.5,165.5 Z"/></g>
<g><path style="opacity:1" fill="#0e0706" d="M 233.5,169.5 C 244.132,169.593 246.799,174.093 241.5,183C 232.895,185.734 229.062,182.567 230,173.5C 231.376,172.295 232.542,170.962 233.5,169.5 Z"/></g>
<g><path style="opacity:1" fill="#0f0807" d="M 236.5,198.5 C 244.161,197.663 247.661,200.996 247,208.5C 243.455,214.209 239.121,214.875 234,210.5C 231.511,205.757 232.345,201.757 236.5,198.5 Z"/></g>
<g><path style="opacity:1" fill="#090703" d="M 412.5,269.5 C 420.201,269.362 423.367,273.029 422,280.5C 417.619,285.821 413.285,285.821 409,280.5C 407.662,275.96 408.829,272.293 412.5,269.5 Z"/></g>
<g><path style="opacity:1" fill="#090703" d="M 383.5,277.5 C 391.494,276.329 394.994,279.663 394,287.5C 391.487,291.212 387.987,292.378 383.5,291C 378.209,286.423 378.209,281.923 383.5,277.5 Z"/></g>
<g><path style="opacity:1" fill="#0e0c05" d="M 405.5,298.5 C 413.489,297.989 416.655,301.656 415,309.5C 409.408,315.315 404.742,314.648 401,307.5C 400.377,303.412 401.877,300.412 405.5,298.5 Z"/></g>
<g><path style="opacity:1" fill="#060302" d="M 71.5,390.5 C 77.7658,389.117 81.4325,391.45 82.5,397.5C 81.6472,404.103 77.9805,406.27 71.5,404C 67.5413,399.501 67.5413,395.001 71.5,390.5 Z"/></g>
<g><path style="opacity:1" fill="#0c0504" d="M 43.5,411.5 C 38.589,407.586 38.2557,403.253 42.5,398.5C 48.6335,396.531 52.6335,398.531 54.5,404.5C 53.5143,411.156 49.8476,413.489 43.5,411.5 Z"/></g>
<g><path style="opacity:1" fill="#0e0706" d="M 64.5,418.5 C 70.6295,417.555 74.2962,420.055 75.5,426C 73.1273,433.875 68.6273,435.375 62,430.5C 59.5112,425.757 60.3445,421.757 64.5,418.5 Z"/></g>
<g><path style="opacity:1" fill="#060502" d="M 211.5,444.5 C 218.669,443.513 222.169,446.513 222,453.5C 221.055,457.112 218.721,458.779 215,458.5C 210.212,458.379 207.712,455.879 207.5,451C 208.205,448.458 209.539,446.292 211.5,444.5 Z"/></g>
<g><path style="opacity:1" fill="#060502" d="M 184.5,456.5 C 190.766,455.117 194.433,457.45 195.5,463.5C 194.647,470.103 190.98,472.27 184.5,470C 180.541,465.501 180.541,461.001 184.5,456.5 Z"/></g>
</svg>
