<?xml version="1.0" encoding="UTF-8"?>
<!DOCTYPE svg PUBLIC "-//W3C//DTD SVG 1.1//EN" "http://www.w3.org/Graphics/SVG/1.1/DTD/svg11.dtd">
<svg xmlns="http://www.w3.org/2000/svg" version="1.1" width="512px" height="512px" style="shape-rendering:geometricPrecision; text-rendering:geometricPrecision; image-rendering:optimizeQuality; fill-rule:evenodd; clip-rule:evenodd" xmlns:xlink="http://www.w3.org/1999/xlink">
<g><path style="opacity:0.985" fill="#020101" d="M 184.5,63.5 C 188.182,63.3347 191.848,63.5014 195.5,64C 197.333,64.5 198.5,65.6667 199,67.5C 199.333,94.1667 199.667,120.833 200,147.5C 213.546,133.621 229.046,122.454 246.5,114C 269.219,86.2169 298.386,69.3835 334,63.5C 338.028,62.778 341.028,64.1113 343,67.5C 343.333,97.1667 343.667,126.833 344,156.5C 359.255,138.576 377.422,124.409 398.5,114C 421.219,86.2169 450.386,69.3835 486,63.5C 488.917,63.3349 491.583,64.0015 494,65.5C 495.663,187.419 495.996,309.419 495,431.5C 490.554,443.155 482.054,449.655 469.5,451C 442.315,452.161 417.648,444.827 395.5,429C 375.563,413.063 358.396,394.563 344,373.5C 358.093,444.768 331.593,467.268 264.5,441C 238.086,427.861 216.586,409.028 200,384.5C 199.667,400.167 199.333,415.833 199,431.5C 194.554,443.155 186.054,449.655 173.5,451C 146.315,452.161 121.648,444.827 99.5,429C 31.3605,374.625 4.52719,304.125 19,217.5C 30.6295,169.876 58.4628,135.376 102.5,114C 124.33,88.2508 151.663,71.4175 184.5,63.5 Z"/></g>
<g><path style="opacity:1" fill="#fd9393" d="M 180.5,81.5 C 181.5,81.5 182.5,81.5 183.5,81.5C 183.5,94.1667 183.5,106.833 183.5,119.5C 174.141,120.1 166.975,124.434 162,132.5C 156.864,146.092 160.364,156.926 172.5,165C 175.923,166.904 179.59,167.737 183.5,167.5C 180.893,174.048 177.726,180.381 174,186.5C 160.648,217.927 156.315,250.594 161,284.5C 163.843,310.209 171.176,334.542 183,357.5C 183.667,367.167 183.667,376.833 183,386.5C 170.195,374.175 155.362,365.008 138.5,359C 129.001,355.723 119.335,353.056 109.5,351C 102.698,348.183 96.8648,344.016 92,338.5C 84.3379,326.856 79.0046,314.19 76,300.5C 59.415,225.29 78.2483,160.79 132.5,107C 146.986,95.5909 162.986,87.0909 180.5,81.5 Z"/></g>
<g><path style="opacity:1" fill="#fd9393" d="M 324.5,81.5 C 325.5,81.5 326.5,81.5 327.5,81.5C 327.5,94.1667 327.5,106.833 327.5,119.5C 318.141,120.1 310.975,124.434 306,132.5C 300.864,146.092 304.364,156.926 316.5,165C 319.923,166.904 323.59,167.737 327.5,167.5C 327.666,173.176 327.499,178.843 327,184.5C 312.676,216.414 308.01,249.747 313,284.5C 315.16,303.807 319.827,322.474 327,340.5C 327.667,355.833 327.667,371.167 327,386.5C 314.195,374.175 299.362,365.008 282.5,359C 273.001,355.723 263.335,353.056 253.5,351C 246.698,348.183 240.865,344.016 236,338.5C 228.338,326.856 223.005,314.19 220,300.5C 203.415,225.29 222.248,160.79 276.5,107C 290.986,95.5909 306.986,87.0909 324.5,81.5 Z"/></g>
<g><path style="opacity:1" fill="#fd9393" d="M 476.5,81.5 C 477.5,81.5 478.5,81.5 479.5,81.5C 479.5,94.1667 479.5,106.833 479.5,119.5C 470.141,120.1 462.975,124.434 458,132.5C 452.864,146.092 456.364,156.926 468.5,165C 471.923,166.904 475.59,167.737 479.5,167.5C 479.667,240.501 479.5,313.501 479,386.5C 466.195,374.175 451.362,365.008 434.5,359C 425.001,355.723 415.335,353.056 405.5,351C 398.698,348.183 392.865,344.016 388,338.5C 380.338,326.856 375.005,314.19 372,300.5C 355.415,225.29 374.248,160.79 428.5,107C 442.986,95.5909 458.986,87.0909 476.5,81.5 Z"/></g>
<g><path style="opacity:1" fill="#ebc1a0" d="M 180.5,135.5 C 181.5,135.5 182.5,135.5 183.5,135.5C 183.5,140.833 183.5,146.167 183.5,151.5C 177.048,150.608 174.548,146.941 176,140.5C 177.025,138.313 178.525,136.646 180.5,135.5 Z"/></g>
<g><path style="opacity:1" fill="#ebc1a0" d="M 324.5,135.5 C 325.5,135.5 326.5,135.5 327.5,135.5C 327.5,140.833 327.5,146.167 327.5,151.5C 321.048,150.608 318.548,146.941 320,140.5C 321.025,138.313 322.525,136.646 324.5,135.5 Z"/></g>
<g><path style="opacity:1" fill="#ebc1a0" d="M 476.5,135.5 C 477.5,135.5 478.5,135.5 479.5,135.5C 479.5,140.833 479.5,146.167 479.5,151.5C 473.048,150.608 470.548,146.941 472,140.5C 473.025,138.313 474.525,136.646 476.5,135.5 Z"/></g>
<g><path style="opacity:1" fill="#e86d6b" d="M 79.5,147.5 C 80.0431,147.56 80.3764,147.893 80.5,148.5C 64.8745,174.996 56.7078,203.663 56,234.5C 53.4947,265.617 57.1614,295.95 67,325.5C 73.2322,343.391 84.7322,356.557 101.5,365C 122.243,368.8 141.576,376.134 159.5,387C 170.281,394.452 178.114,404.285 183,416.5C 183.667,420.167 183.667,423.833 183,427.5C 181.833,430 180,431.833 177.5,433C 164.665,436.513 151.998,435.846 139.5,431C 116.774,422.615 97.607,409.115 82,390.5C 40.419,343.213 24.419,288.213 34,225.5C 40.6785,194.467 55.8452,168.467 79.5,147.5 Z"/></g>
<g><path style="opacity:1" fill="#e86d6b" d="M 223.5,147.5 C 224.043,147.56 224.376,147.893 224.5,148.5C 208.874,174.996 200.708,203.663 200,234.5C 197.495,265.617 201.161,295.95 211,325.5C 217.232,343.391 228.732,356.557 245.5,365C 266.243,368.8 285.576,376.134 303.5,387C 314.281,394.452 322.114,404.285 327,416.5C 327.667,420.167 327.667,423.833 327,427.5C 325.833,430 324,431.833 321.5,433C 308.665,436.513 295.998,435.846 283.5,431C 260.774,422.615 241.607,409.115 226,390.5C 184.419,343.213 168.419,288.213 178,225.5C 184.679,194.467 199.845,168.467 223.5,147.5 Z"/></g>
<g><path style="opacity:1" fill="#e86d6b" d="M 375.5,147.5 C 376.043,147.56 376.376,147.893 376.5,148.5C 360.874,174.996 352.708,203.663 352,234.5C 349.495,265.617 353.161,295.95 363,325.5C 369.232,343.391 380.732,356.557 397.5,365C 418.243,368.8 437.576,376.134 455.5,387C 466.281,394.452 474.114,404.285 479,416.5C 479.667,420.167 479.667,423.833 479,427.5C 477.833,430 476,431.833 473.5,433C 460.665,436.513 447.998,435.846 435.5,431C 412.774,422.615 393.607,409.115 378,390.5C 336.419,343.213 320.419,288.213 330,225.5C 336.679,194.467 351.845,168.467 375.5,147.5 Z"/></g>
<g><path style="opacity:1" fill="#0d0707" d="M 140.5,151.5 C 151.167,152.003 153.833,156.836 148.5,166C 139.42,169.215 135.253,166.048 136,156.5C 137.025,154.313 138.525,152.646 140.5,151.5 Z"/></g>
<g><path style="opacity:1" fill="#0d0707" d="M 284.5,151.5 C 295.167,152.003 297.833,156.836 292.5,166C 283.42,169.215 279.253,166.048 280,156.5C 281.025,154.313 282.525,152.646 284.5,151.5 Z"/></g>
<g><path style="opacity:1" fill="#0d0707" d="M 436.5,151.5 C 447.167,152.003 449.833,156.836 444.5,166C 435.42,169.215 431.253,166.048 432,156.5C 433.025,154.313 434.525,152.646 436.5,151.5 Z"/></g>
<g><path style="opacity:1" fill="#040202" d="M 105.5,247.5 C 119.866,246.259 129.699,252.259 135,265.5C 136.817,280.369 130.651,290.203 116.5,295C 102.082,296.535 92.5818,290.368 88,276.5C 86.6691,262.493 92.5024,252.826 105.5,247.5 Z"/></g>
<g><path style="opacity:1" fill="#040202" d="M 249.5,247.5 C 263.866,246.259 273.699,252.259 279,265.5C 280.817,280.369 274.651,290.203 260.5,295C 246.082,296.535 236.582,290.368 232,276.5C 230.669,262.493 236.502,252.826 249.5,247.5 Z"/></g>
<g><path style="opacity:1" fill="#040202" d="M 401.5,247.5 C 415.866,246.259 425.699,252.259 431,265.5C 432.817,280.369 426.651,290.203 412.5,295C 398.082,296.535 388.582,290.368 384,276.5C 382.669,262.493 388.502,252.826 401.5,247.5 Z"/></g>
<g><path style="opacity:1" fill="#eac1a0" d="M 108.5,263.5 C 116.658,262.823 120.158,266.49 119,274.5C 116.774,278.861 113.274,280.361 108.5,279C 104.139,276.774 102.639,273.274 104,268.5C 105.025,266.313 106.525,264.646 108.5,263.5 Z"/></g>
<g><path style="opacity:1" fill="#eac1a0" d="M 252.5,263.5 C 260.658,262.823 264.158,266.49 263,274.5C 260.774,278.861 257.274,280.361 252.5,279C 248.139,276.774 246.639,273.274 248,268.5C 249.025,266.313 250.525,264.646 252.5,263.5 Z"/></g>
<g><path style="opacity:1" fill="#eac1a0" d="M 404.5,263.5 C 412.658,262.823 416.158,266.49 415,274.5C 412.774,278.861 409.274,280.361 404.5,279C 400.139,276.774 398.639,273.274 400,268.5C 401.025,266.313 402.525,264.646 404.5,263.5 Z"/></g>
<g><path style="opacity:1" fill="#0d0707" d="M 116.5,311.5 C 127.167,312.003 129.833,316.836 124.5,326C 115.42,329.215 111.253,326.048 112,316.5C 113.025,314.313 114.525,312.646 116.5,311.5 Z"/></g>
<g><path style="opacity:1" fill="#0d0707" d="M 260.5,311.5 C 271.167,312.003 273.833,316.836 268.5,326C 259.42,329.215 255.253,326.048 256,316.5C 257.025,314.313 258.525,312.646 260.5,311.5 Z"/></g>
<g><path style="opacity:1" fill="#0d0707" d="M 412.5,311.5 C 423.167,312.003 425.833,316.836 420.5,326C 411.42,329.215 407.253,326.048 408,316.5C 409.025,314.313 410.525,312.646 412.5,311.5 Z"/></g>
</svg>
