<?xml version="1.0" encoding="UTF-8"?>
<!DOCTYPE svg PUBLIC "-//W3C//DTD SVG 1.1//EN" "http://www.w3.org/Graphics/SVG/1.1/DTD/svg11.dtd">
<svg xmlns="http://www.w3.org/2000/svg" version="1.1" width="512px" height="512px" style="shape-rendering:geometricPrecision; text-rendering:geometricPrecision; image-rendering:optimizeQuality; fill-rule:evenodd; clip-rule:evenodd" xmlns:xlink="http://www.w3.org/1999/xlink">
<g><path style="opacity:0.971" fill="#020101" d="M 460.5,-0.5 C 469.167,-0.5 477.833,-0.5 486.5,-0.5C 492.838,0.839566 499.172,2.6729 505.5,5C 508.146,5.80409 510.146,7.30409 511.5,9.5C 511.5,12.1667 511.5,14.8333 511.5,17.5C 505.202,37.0959 495.035,54.4293 481,69.5C 461.523,88.3035 441.023,105.803 419.5,122C 402.376,136.123 386.209,151.29 371,167.5C 347.703,196.186 328.37,227.519 313,261.5C 298.724,297.661 284.058,333.661 269,369.5C 249.015,414.15 217.848,448.65 175.5,473C 172.124,473.485 169.124,472.652 166.5,470.5C 166.335,467.482 166.502,464.482 167,461.5C 209.887,434.941 240.887,398.274 260,351.5C 272.723,319.054 285.723,286.72 299,254.5C 320.233,205.61 350.4,163.11 389.5,127C 408.167,111.667 426.833,96.3333 445.5,81C 452.49,75.0096 459.157,68.6762 465.5,62C 459.703,52.3691 452.036,44.5357 442.5,38.5C 440.659,45.8518 438.492,53.1851 436,60.5C 431.048,74.2908 421.548,82.9575 407.5,86.5C 404.034,87.0315 400.534,87.3648 397,87.5C 391.331,87.263 385.831,86.4296 380.5,85C 354.473,100.598 327.64,114.764 300,127.5C 305.333,180.827 288.833,226.327 250.5,264C 211.229,298.871 165.229,315.538 112.5,314C 88.2761,311.138 67.7761,300.971 51,283.5C 33.2953,320.643 21.6286,359.643 16,400.5C 11.804,425.455 14.804,449.455 25,472.5C 35.2636,489.551 50.4303,497.551 70.5,496.5C 79.3231,495.962 87.9898,494.462 96.5,492C 109.602,488.196 122.435,483.696 135,478.5C 138.463,479.137 141.296,480.803 143.5,483.5C 143.944,489.431 141.278,493.265 135.5,495C 117.438,503.01 98.7712,508.51 79.5,511.5C 71.1667,511.5 62.8333,511.5 54.5,511.5C 30.9257,506.433 15.0923,492.433 7,469.5C 3.65474,459.575 1.15474,449.575 -0.5,439.5C -0.5,426.833 -0.5,414.167 -0.5,401.5C 7.36954,352.721 22.2029,306.054 44,261.5C 45.0458,259.91 46.2125,258.41 47.5,257C 76.9109,246.197 106.244,235.197 135.5,224C 174.669,206.934 210.335,184.601 242.5,157C 256.167,144 269.833,131 283.5,118C 315.939,104.201 346.773,87.7014 376,68.5C 377.328,62.178 379.995,56.5113 384,51.5C 397.209,36.1453 413.709,26.3119 433.5,22C 438.244,16.5161 442.244,10.5161 445.5,4C 450.482,2.01036 455.482,0.510365 460.5,-0.5 Z"/></g>
<g><path style="opacity:1" fill="#554e56" d="M 465.5,14.5 C 475.477,13.9548 485.144,15.2881 494.5,18.5C 490.594,30.549 484.428,41.2157 476,50.5C 468.979,40.6456 460.479,32.3123 450.5,25.5C 452.167,22.8333 453.833,20.1667 455.5,17.5C 458.832,16.1347 462.165,15.1347 465.5,14.5 Z"/></g>
<g><path style="opacity:1" fill="#c36a34" d="M 422.5,42.5 C 423.675,42.281 424.675,42.6143 425.5,43.5C 423.691,50.4269 421.191,57.0936 418,63.5C 410.723,70.9087 401.89,73.5754 391.5,71.5C 393.359,65.4563 396.693,60.2896 401.5,56C 408.225,50.977 415.225,46.477 422.5,42.5 Z"/></g>
<g><path style="opacity:1" fill="#d68954" d="M 166.5,470.5 C 158.96,475.102 151.294,479.435 143.5,483.5C 141.296,480.803 138.463,479.137 135,478.5C 122.435,483.696 109.602,488.196 96.5,492C 87.9898,494.462 79.3231,495.962 70.5,496.5C 119.056,479.458 160.222,451.458 194,412.5C 205.001,397.173 215.001,381.173 224,364.5C 240.215,330.071 255.882,295.404 271,260.5C 284.236,233.691 298.236,207.358 313,181.5C 326.982,160.181 343.815,141.348 363.5,125C 378.833,112.333 394.167,99.6667 409.5,87C 408.906,86.5357 408.239,86.369 407.5,86.5C 421.548,82.9575 431.048,74.2908 436,60.5C 438.492,53.1851 440.659,45.8518 442.5,38.5C 452.036,44.5357 459.703,52.3691 465.5,62C 459.157,68.6762 452.49,75.0096 445.5,81C 426.833,96.3333 408.167,111.667 389.5,127C 350.4,163.11 320.233,205.61 299,254.5C 285.723,286.72 272.723,319.054 260,351.5C 240.887,398.274 209.887,434.941 167,461.5C 166.502,464.482 166.335,467.482 166.5,470.5 Z"/></g>
<g><path style="opacity:1" fill="#e99a57" d="M 407.5,86.5 C 408.239,86.369 408.906,86.5357 409.5,87C 394.167,99.6667 378.833,112.333 363.5,125C 343.815,141.348 326.982,160.181 313,181.5C 298.236,207.358 284.236,233.691 271,260.5C 255.882,295.404 240.215,330.071 224,364.5C 215.001,381.173 205.001,397.173 194,412.5C 160.222,451.458 119.056,479.458 70.5,496.5C 50.4303,497.551 35.2636,489.551 25,472.5C 14.804,449.455 11.804,425.455 16,400.5C 21.6286,359.643 33.2953,320.643 51,283.5C 67.7761,300.971 88.2761,311.138 112.5,314C 165.229,315.538 211.229,298.871 250.5,264C 288.833,226.327 305.333,180.827 300,127.5C 327.64,114.764 354.473,100.598 380.5,85C 385.831,86.4296 391.331,87.263 397,87.5C 400.534,87.3648 404.034,87.0315 407.5,86.5 Z"/></g>
<g><path style="opacity:1" fill="#e11e2c" d="M 255.5,198.5 C 250.233,206.764 244.233,214.431 237.5,221.5C 234.555,220.532 231.555,220.366 228.5,221C 200.655,249.098 167.655,268.765 129.5,280C 114.382,284.462 99.0483,285.462 83.5,283C 74.7358,281.036 67.2358,276.87 61,270.5C 60.3333,269.833 60.3333,269.167 61,268.5C 86.5606,259.202 112.061,249.702 137.5,240C 170.551,225.65 201.551,207.983 230.5,187C 244.706,175.28 258.706,163.613 272.5,152C 266.653,164.862 260.153,177.362 253,189.5C 252.333,191.167 252.333,192.833 253,194.5C 254.095,195.693 254.928,197.027 255.5,198.5 Z"/></g>
<g><path style="opacity:1" fill="#f9f9f9" d="M 237.5,221.5 C 244.233,214.431 250.233,206.764 255.5,198.5C 260.065,200.353 263.898,199.353 267,195.5C 274.388,183.391 280.721,170.724 286,157.5C 282.405,202.201 262.571,237.701 226.5,264C 203.584,280.455 178.251,291.455 150.5,297C 139.199,298.425 127.865,298.759 116.5,298C 154.42,291.203 188.086,275.537 217.5,251C 224.333,244.833 231.167,238.667 238,232.5C 240.035,228.719 239.868,225.052 237.5,221.5 Z"/></g>
</svg>
