<?xml version="1.0" encoding="UTF-8"?>
<!DOCTYPE svg PUBLIC "-//W3C//DTD SVG 1.1//EN" "http://www.w3.org/Graphics/SVG/1.1/DTD/svg11.dtd">
<svg xmlns="http://www.w3.org/2000/svg" version="1.1" width="512px" height="512px" style="shape-rendering:geometricPrecision; text-rendering:geometricPrecision; image-rendering:optimizeQuality; fill-rule:evenodd; clip-rule:evenodd" xmlns:xlink="http://www.w3.org/1999/xlink">
<g><path style="opacity:0.979" fill="#070706" d="M 211.5,-0.5 C 240.167,-0.5 268.833,-0.5 297.5,-0.5C 307.577,3.0805 314.077,10.0805 317,20.5C 317.667,38.5 317.667,56.5 317,74.5C 315.106,77.8442 312.273,79.1776 308.5,78.5C 309.138,84.0114 310.304,89.3447 312,94.5C 347.778,86.7252 375.778,98.0586 396,128.5C 412.801,162.389 408.634,193.389 383.5,221.5C 397.198,244.768 403.865,269.935 403.5,297C 399.296,355.913 394.129,414.746 388,473.5C 382.543,493.792 369.709,506.458 349.5,511.5C 286.167,511.5 222.833,511.5 159.5,511.5C 141.282,507.122 128.782,496.122 122,478.5C 119.879,469.292 118.545,459.958 118,450.5C 113.607,402.505 109.273,354.505 105,306.5C 102.946,274.757 110.279,245.423 127,218.5C 129.994,215.38 133.494,214.714 137.5,216.5C 140.305,219.246 141.139,222.579 140,226.5C 126.796,247.778 120.296,270.945 120.5,296C 124.851,353.199 129.685,410.366 135,467.5C 138.398,482.564 147.564,492.064 162.5,496C 216.166,496.5 269.832,496.667 323.5,496.5C 338.346,499.077 351.68,495.911 363.5,487C 368.093,481.983 371.26,476.149 373,469.5C 377.88,416.486 382.88,363.486 388,310.5C 391.078,253.147 368.245,209.647 319.5,180C 310.163,170.839 305.163,159.672 304.5,146.5C 293.833,146.5 283.167,146.5 272.5,146.5C 249.5,146.5 226.5,146.5 203.5,146.5C 203.234,157.132 200.067,166.799 194,175.5C 182.898,183.302 172.065,191.469 161.5,200C 159.833,200.667 158.167,200.667 156.5,200C 155.307,198.905 153.973,198.072 152.5,197.5C 150.195,194.616 150.029,191.616 152,188.5C 160.65,180.18 170.15,173.014 180.5,167C 183.933,163.896 186.1,160.063 187,155.5C 191.237,129.91 195.737,104.41 200.5,79C 195.621,79.1564 192.455,76.9897 191,72.5C 190.333,56.5 190.333,40.5 191,24.5C 192.908,12.0947 199.742,3.76135 211.5,-0.5 Z M 325.5,139.5 C 342.257,138.752 353.09,146.419 358,162.5C 359.42,170.563 357.42,177.563 352,183.5C 344.952,177.722 337.452,172.555 329.5,168C 322.272,160.58 319.272,151.747 320.5,141.5C 322.336,140.972 324.003,140.306 325.5,139.5 Z"/></g>
<g><path style="opacity:1" fill="#fb3768" d="M 265.5,14.5 C 266.653,16.8068 267.82,19.1401 269,21.5C 269.5,35.1626 269.667,48.8293 269.5,62.5C 248.5,62.5 227.5,62.5 206.5,62.5C 206.333,49.1625 206.5,35.8292 207,22.5C 208.458,20.04 210.291,17.8734 212.5,16C 230.073,14.5274 247.739,14.0274 265.5,14.5 Z"/></g>
<g><path style="opacity:1" fill="#e53260" d="M 265.5,14.5 C 274.839,14.3335 284.173,14.5002 293.5,15C 297.667,16.5 300.5,19.3333 302,23.5C 302.5,36.8292 302.667,50.1625 302.5,63.5C 270.329,63.8316 238.329,63.4982 206.5,62.5C 227.5,62.5 248.5,62.5 269.5,62.5C 269.667,48.8293 269.5,35.1626 269,21.5C 267.82,19.1401 266.653,16.8068 265.5,14.5 Z"/></g>
<g><path style="opacity:1" fill="#eef2fd" d="M 260.5,78.5 C 263.069,95.9172 266.069,113.25 269.5,130.5C 248.473,131.155 227.806,130.488 207.5,128.5C 209.949,111.803 212.616,95.1366 215.5,78.5C 230.5,78.5 245.5,78.5 260.5,78.5 Z"/></g>
<g><path style="opacity:1" fill="#dfe5f4" d="M 260.5,78.5 C 271.5,78.5 282.5,78.5 293.5,78.5C 295.846,95.8843 298.513,113.218 301.5,130.5C 290.833,130.5 280.167,130.5 269.5,130.5C 266.069,113.25 263.069,95.9172 260.5,78.5 Z"/></g>
<g><path style="opacity:1" fill="#ebeef9" d="M 319.5,107.5 C 355.941,104.785 379.441,120.785 390,155.5C 392.859,175.749 387.526,193.416 374,208.5C 370.5,204.167 367,199.833 363.5,195.5C 372.465,183.972 375.632,170.972 373,156.5C 362.824,129.494 343.657,119.494 315.5,126.5C 315.53,121.243 314.864,116.076 313.5,111C 315.223,109.251 317.223,108.084 319.5,107.5 Z"/></g>
<g><path style="opacity:1" fill="#acafb8" d="M 207.5,128.5 C 227.806,130.488 248.473,131.155 269.5,130.5C 280.167,130.5 290.833,130.5 301.5,130.5C 270.004,131.498 238.338,131.832 206.5,131.5C 206.263,130.209 206.596,129.209 207.5,128.5 Z"/></g>
<g><path style="opacity:1" fill="#ee7407" d="M 272.5,146.5 C 271.952,155.473 274.452,163.473 280,170.5C 313.915,190.085 337.249,218.419 350,255.5C 353.702,267.099 355.202,278.766 354.5,290.5C 333.006,241.405 295.34,218.238 241.5,221C 187.629,231.204 156.463,263.37 148,317.5C 147.333,324.167 147.333,330.833 148,337.5C 151.24,369.143 154.24,400.81 157,432.5C 159.836,450.336 170.002,461.502 187.5,466C 230.833,466.667 274.167,466.667 317.5,466C 326.475,465.177 334.141,461.677 340.5,455.5C 342.468,472.247 336.802,485.914 323.5,496.5C 269.832,496.667 216.166,496.5 162.5,496C 147.564,492.064 138.398,482.564 135,467.5C 129.685,410.366 124.851,353.199 120.5,296C 120.296,270.945 126.796,247.778 140,226.5C 141.139,222.579 140.305,219.246 137.5,216.5C 142.119,209.879 147.119,203.546 152.5,197.5C 153.973,198.072 155.307,198.905 156.5,200C 158.167,200.667 159.833,200.667 161.5,200C 172.065,191.469 182.898,183.302 194,175.5C 200.067,166.799 203.234,157.132 203.5,146.5C 226.5,146.5 249.5,146.5 272.5,146.5 Z"/></g>
<g><path style="opacity:1" fill="#d66906" d="M 272.5,146.5 C 283.167,146.5 293.833,146.5 304.5,146.5C 305.163,159.672 310.163,170.839 319.5,180C 368.245,209.647 391.078,253.147 388,310.5C 382.88,363.486 377.88,416.486 373,469.5C 371.26,476.149 368.093,481.983 363.5,487C 351.68,495.911 338.346,499.077 323.5,496.5C 336.802,485.914 342.468,472.247 340.5,455.5C 345.821,449.861 349.321,443.194 351,435.5C 352.309,427.869 352.642,420.203 352,412.5C 350.736,410.393 348.903,409.393 346.5,409.5C 347.084,401.16 347.751,392.826 348.5,384.5C 352.658,384.34 355.492,382.34 357,378.5C 357.699,365.81 358.699,353.143 360,340.5C 361.963,323.366 360.13,306.7 354.5,290.5C 355.202,278.766 353.702,267.099 350,255.5C 337.249,218.419 313.915,190.085 280,170.5C 274.452,163.473 271.952,155.473 272.5,146.5 Z"/></g>
<g><path style="opacity:1" fill="#090807" d="M 354.5,290.5 C 360.13,306.7 361.963,323.366 360,340.5C 358.699,353.143 357.699,365.81 357,378.5C 355.492,382.34 352.658,384.34 348.5,384.5C 345.852,384.262 344.018,382.928 343,380.5C 343.222,362.779 344.389,345.112 346.5,327.5C 343.723,283.569 321.723,254.069 280.5,239C 236.34,229.014 201.507,242.514 176,279.5C 165.21,296.997 160.876,315.997 163,336.5C 165.82,368.517 168.82,400.517 172,432.5C 174.064,442.231 179.897,448.397 189.5,451C 232.5,451.667 275.5,451.667 318.5,451C 328.882,447.952 335.049,441.119 337,430.5C 337.333,425.5 337.667,420.5 338,415.5C 339.172,411.163 342.006,409.163 346.5,409.5C 348.903,409.393 350.736,410.393 352,412.5C 352.642,420.203 352.309,427.869 351,435.5C 349.321,443.194 345.821,449.861 340.5,455.5C 334.141,461.677 326.475,465.177 317.5,466C 274.167,466.667 230.833,466.667 187.5,466C 170.002,461.502 159.836,450.336 157,432.5C 154.24,400.81 151.24,369.143 148,337.5C 147.333,330.833 147.333,324.167 148,317.5C 156.463,263.37 187.629,231.204 241.5,221C 295.34,218.238 333.006,241.405 354.5,290.5 Z"/></g>
<g><path style="opacity:1" fill="#eef2fc" d="M 348.5,384.5 C 347.751,392.826 347.084,401.16 346.5,409.5C 342.006,409.163 339.172,411.163 338,415.5C 337.667,420.5 337.333,425.5 337,430.5C 335.049,441.119 328.882,447.952 318.5,451C 275.5,451.667 232.5,451.667 189.5,451C 179.897,448.397 174.064,442.231 172,432.5C 168.82,400.517 165.82,368.517 163,336.5C 160.876,315.997 165.21,296.997 176,279.5C 201.507,242.514 236.34,229.014 280.5,239C 321.723,254.069 343.723,283.569 346.5,327.5C 344.389,345.112 343.222,362.779 343,380.5C 344.018,382.928 345.852,384.262 348.5,384.5 Z"/></g>
<g><path style="opacity:1" fill="#0a0808" d="M 247.5,423.5 C 247.831,414.808 247.498,406.141 246.5,397.5C 245.893,397.624 245.56,397.957 245.5,398.5C 237.4,402.049 229.4,405.883 221.5,410C 217.726,411.183 214.559,410.349 212,407.5C 210.73,399.603 210.063,391.603 210,383.5C 201.667,376.5 193.333,369.5 185,362.5C 184.363,351.825 184.03,341.158 184,330.5C 184.785,328.714 185.951,327.214 187.5,326C 197.774,324.206 208.107,323.539 218.5,324C 220.286,324.785 221.786,325.951 223,327.5C 223.08,322.227 222.247,317.06 220.5,312C 220.625,310.373 221.125,308.873 222,307.5C 231.196,297.97 240.696,288.803 250.5,280C 253.634,279.21 256.634,279.543 259.5,281C 268.03,289.864 276.863,298.364 286,306.5C 286.958,308.199 287.458,310.033 287.5,312C 286.392,317.525 285.559,323.025 285,328.5C 287.244,324.576 290.578,322.909 295,323.5C 303.503,324.3 312.003,325.134 320.5,326C 322.333,326.5 323.5,327.667 324,329.5C 324.667,340.167 324.667,350.833 324,361.5C 323.215,363.286 322.049,364.786 320.5,366C 313.333,371.833 306.167,377.667 299,383.5C 298.667,390.5 298.333,397.5 298,404.5C 296.125,410.155 292.292,411.989 286.5,410C 278.255,405.961 270.089,401.794 262,397.5C 261.667,406.833 261.333,416.167 261,425.5C 257.832,429.533 253.999,430.367 249.5,428C 248.418,426.67 247.751,425.17 247.5,423.5 Z"/></g>
<g><path style="opacity:1" fill="#f83767" d="M 253.5,297.5 C 259.742,302.236 265.576,307.569 271,313.5C 271.667,315.833 271.667,318.167 271,320.5C 268.414,331.59 266.247,342.756 264.5,354C 264.923,361.058 268.589,363.391 275.5,361C 282.167,353.667 288.833,346.333 295.5,339C 300.174,338.667 304.84,338.833 309.5,339.5C 309.666,344.844 309.499,350.177 309,355.5C 301,362.167 293,368.833 285,375.5C 283.931,380.755 283.097,386.089 282.5,391.5C 273.345,386.287 263.845,381.954 254,378.5C 244.321,382.005 234.988,386.338 226,391.5C 225.891,386.386 225.224,381.386 224,376.5C 216.037,369.024 207.704,362.024 199,355.5C 198.501,350.177 198.334,344.844 198.5,339.5C 203.172,338.997 207.839,338.831 212.5,339C 218.833,346 225.167,353 231.5,360C 238.852,363.568 243.186,361.401 244.5,353.5C 241.642,340.709 238.975,327.876 236.5,315C 241.686,308.648 247.352,302.815 253.5,297.5 Z"/></g>
<g><path style="opacity:1" fill="#494a4d" d="M 245.5,398.5 C 245.56,397.957 245.893,397.624 246.5,397.5C 247.498,406.141 247.831,414.808 247.5,423.5C 246.833,415.167 246.167,406.833 245.5,398.5 Z"/></g>
</svg>
