<?xml version="1.0" encoding="UTF-8"?>
<!DOCTYPE svg PUBLIC "-//W3C//DTD SVG 1.1//EN" "http://www.w3.org/Graphics/SVG/1.1/DTD/svg11.dtd">
<svg xmlns="http://www.w3.org/2000/svg" version="1.1" width="256px" height="256px" style="shape-rendering:geometricPrecision; text-rendering:geometricPrecision; image-rendering:optimizeQuality; fill-rule:evenodd; clip-rule:evenodd" xmlns:xlink="http://www.w3.org/1999/xlink">
<g><path style="opacity:0.972" fill="#0a0704" d="M 96.5,-0.5 C 102.5,-0.5 108.5,-0.5 114.5,-0.5C 115.11,0.391047 115.443,1.39105 115.5,2.5C 114.972,3.72065 114.305,4.88732 113.5,6C 108.914,6.19713 104.414,6.69713 100,7.5C 99.5006,13.1569 99.3339,18.8236 99.5,24.5C 113.5,24.5 127.5,24.5 141.5,24.5C 146.167,24.5 150.833,24.5 155.5,24.5C 155.808,18.5746 155.475,12.7412 154.5,7C 145.506,6.50023 136.506,6.33356 127.5,6.5C 126.143,5.40974 125.143,4.07641 124.5,2.5C 125.11,1.60895 125.443,0.608953 125.5,-0.5C 136.5,-0.5 147.5,-0.5 158.5,-0.5C 161.049,1.55577 162.549,4.22244 163,7.5C 163.839,14.5667 163.506,21.5667 162,28.5C 159.303,31.8705 155.803,33.2038 151.5,32.5C 151.334,37.1785 151.501,41.8452 152,46.5C 166.914,57.4095 181.247,69.0761 195,81.5C 196.275,83.7173 197.275,86.0506 198,88.5C 198.667,141.167 198.667,193.833 198,246.5C 196.386,250.277 193.886,253.277 190.5,255.5C 148.5,255.5 106.5,255.5 64.5,255.5C 61.1141,253.277 58.6141,250.277 57,246.5C 56.3333,193.833 56.3333,141.167 57,88.5C 58.9219,82.5701 62.4219,77.7368 67.5,74C 79.3333,64.8333 91.1667,55.6667 103,46.5C 103.499,41.8452 103.666,37.1785 103.5,32.5C 97.6545,33.3324 93.8212,30.9991 92,25.5C 91.3333,19.1667 91.3333,12.8333 92,6.5C 92.9042,3.76664 94.4042,1.43331 96.5,-0.5 Z"/></g>
<g><path style="opacity:0.991" fill="#fabf42" d="M 115.5,2.5 C 118.5,2.5 121.5,2.5 124.5,2.5C 125.143,4.07641 126.143,5.40974 127.5,6.5C 131.97,7.48612 136.637,7.81946 141.5,7.5C 141.5,13.1667 141.5,18.8333 141.5,24.5C 127.5,24.5 113.5,24.5 99.5,24.5C 99.3339,18.8236 99.5006,13.1569 100,7.5C 104.414,6.69713 108.914,6.19713 113.5,6C 114.305,4.88732 114.972,3.72065 115.5,2.5 Z"/></g>
<g><path style="opacity:1" fill="#eaa433" d="M 127.5,6.5 C 136.506,6.33356 145.506,6.50023 154.5,7C 155.475,12.7412 155.808,18.5746 155.5,24.5C 150.833,24.5 146.167,24.5 141.5,24.5C 141.5,18.8333 141.5,13.1667 141.5,7.5C 136.637,7.81946 131.97,7.48612 127.5,6.5 Z"/></g>
<g><path style="opacity:1" fill="#f9eba9" d="M 133.5,32.5 C 133.334,39.5079 133.5,46.5079 134,53.5C 134.667,54.8333 135.333,56.1667 136,57.5C 150.31,68.3089 164.476,79.3089 178.5,90.5C 180.086,92.1727 180.753,94.1727 180.5,96.5C 183.833,96.5 187.167,96.5 190.5,96.5C 158.003,97.3324 125.336,97.8324 92.5,98C 91.7476,98.6708 91.4142,99.5041 91.5,100.5C 88.1667,100.5 84.8333,100.5 81.5,100.5C 81.1961,99.8501 80.8627,99.1835 80.5,98.5C 75.2079,97.5052 69.8746,97.1718 64.5,97.5C 64.0349,93.2076 64.8682,89.2076 67,85.5C 81.0458,73.7858 95.3791,62.4525 110,51.5C 110.5,45.1754 110.666,38.8421 110.5,32.5C 118.167,32.5 125.833,32.5 133.5,32.5 Z"/></g>
<g><path style="opacity:1" fill="#f9dc74" d="M 133.5,32.5 C 137.167,32.5 140.833,32.5 144.5,32.5C 144.334,38.8421 144.5,45.1754 145,51.5C 158.257,61.5457 171.424,71.7123 184.5,82C 189.123,85.7456 191.123,90.5789 190.5,96.5C 187.167,96.5 183.833,96.5 180.5,96.5C 180.753,94.1727 180.086,92.1727 178.5,90.5C 164.476,79.3089 150.31,68.3089 136,57.5C 135.333,56.1667 134.667,54.8333 134,53.5C 133.5,46.5079 133.334,39.5079 133.5,32.5 Z"/></g>
<g><path style="opacity:1" fill="#d57e49" d="M 81.5,100.5 C 84.8333,100.5 88.1667,100.5 91.5,100.5C 91.5106,102.017 92.1772,103.184 93.5,104C 122.498,104.5 151.498,104.667 180.5,104.5C 180.5,143.833 180.5,183.167 180.5,222.5C 177.482,222.335 174.482,222.502 171.5,223C 170.177,223.816 169.511,224.983 169.5,226.5C 165.731,226.244 162.064,226.577 158.5,227.5C 158.773,225.549 158.107,224.049 156.5,223C 125.835,222.5 95.1685,222.333 64.5,222.5C 64.5,183.167 64.5,143.833 64.5,104.5C 69.5111,104.666 74.5111,104.499 79.5,104C 80.8228,103.184 81.4894,102.017 81.5,100.5 Z"/></g>
<g><path style="opacity:1" fill="#c86d36" d="M 180.5,104.5 C 183.833,104.5 187.167,104.5 190.5,104.5C 190.5,143.833 190.5,183.167 190.5,222.5C 187.167,222.5 183.833,222.5 180.5,222.5C 180.5,183.167 180.5,143.833 180.5,104.5 Z"/></g>
<g><path style="opacity:1" fill="#060502" d="M 121.5,113.5 C 127.072,112.99 132.405,113.823 137.5,116C 145.436,122.371 150.436,130.538 152.5,140.5C 160.698,140.575 163.865,144.575 162,152.5C 156.835,164.99 154.502,177.99 155,191.5C 149.378,208.734 137.544,215.901 119.5,213C 102.858,205.152 96.0243,191.985 99,173.5C 96.7541,165.349 94.5874,157.183 92.5,149C 92.9732,142.913 96.3065,140.413 102.5,141.5C 104.9,129.33 111.233,119.996 121.5,113.5 Z"/></g>
<g><path style="opacity:1" fill="#fbde75" d="M 123.5,121.5 C 124.873,121.343 126.207,121.51 127.5,122C 134.577,129.392 138.243,138.225 138.5,148.5C 135.067,151.059 131.401,153.392 127.5,155.5C 121.585,152.293 115.752,148.96 110,145.5C 109.948,138.327 112.281,131.994 117,126.5C 118.758,124.235 120.925,122.568 123.5,121.5 Z"/></g>
<g><path style="opacity:1" fill="#f4c857" d="M 123.5,121.5 C 130.791,119.892 136.291,122.558 140,129.5C 142.532,133.728 144.365,138.228 145.5,143C 144.428,146.228 142.094,148.061 138.5,148.5C 138.243,138.225 134.577,129.392 127.5,122C 126.207,121.51 124.873,121.343 123.5,121.5 Z"/></g>
<g><path style="opacity:1" fill="#84bd25" d="M 99.5,148.5 C 106.275,152.057 112.942,155.89 119.5,160C 114.825,162.336 110.492,165.169 106.5,168.5C 103.775,161.994 101.442,155.327 99.5,148.5 Z"/></g>
<g><path style="opacity:1" fill="#92d027" d="M 122.5,205.5 C 125.187,205.664 127.854,205.497 130.5,205C 133.04,202.795 135.207,200.295 137,197.5C 138.92,184.225 141.42,171.059 144.5,158C 144.472,156.93 144.139,156.097 143.5,155.5C 147.176,152.328 151.176,150.328 155.5,149.5C 149.91,163.282 147.077,177.616 147,192.5C 142.237,203.629 134.07,207.962 122.5,205.5 Z"/></g>
<g><path style="opacity:1" fill="#a0e32d" d="M 143.5,155.5 C 144.139,156.097 144.472,156.93 144.5,158C 141.42,171.059 138.92,184.225 137,197.5C 135.207,200.295 133.04,202.795 130.5,205C 127.854,205.497 125.187,205.664 122.5,205.5C 112.465,202.781 107.132,196.114 106.5,185.5C 107.119,180.094 109.453,175.594 113.5,172C 123.394,166.222 133.394,160.722 143.5,155.5 Z"/></g>
<g><path style="opacity:1" fill="#f8e9a8" d="M 169.5,226.5 C 169.511,228.017 170.177,229.184 171.5,230C 174.482,230.498 177.482,230.665 180.5,230.5C 180.666,235.179 180.499,239.845 180,244.5C 179.626,245.416 179.126,246.25 178.5,247C 181.146,247.497 183.813,247.664 186.5,247.5C 147.335,248.665 108.002,248.831 68.5,248C 66.6667,247.5 65.5,246.333 65,244.5C 64.5008,239.845 64.3342,235.179 64.5,230.5C 95.1685,230.667 125.835,230.5 156.5,230C 157.381,229.292 158.047,228.458 158.5,227.5C 162.064,226.577 165.731,226.244 169.5,226.5 Z"/></g>
<g><path style="opacity:1" fill="#fee077" d="M 180.5,230.5 C 183.833,230.5 187.167,230.5 190.5,230.5C 190.666,235.179 190.499,239.845 190,244.5C 189.28,246.056 188.113,247.056 186.5,247.5C 183.813,247.664 181.146,247.497 178.5,247C 179.126,246.25 179.626,245.416 180,244.5C 180.499,239.845 180.666,235.179 180.5,230.5 Z"/></g>
</svg>
