<?xml version="1.0" encoding="UTF-8"?>
<!DOCTYPE svg PUBLIC "-//W3C//DTD SVG 1.1//EN" "http://www.w3.org/Graphics/SVG/1.1/DTD/svg11.dtd">
<svg xmlns="http://www.w3.org/2000/svg" version="1.1" width="512px" height="512px" style="shape-rendering:geometricPrecision; text-rendering:geometricPrecision; image-rendering:optimizeQuality; fill-rule:evenodd; clip-rule:evenodd" xmlns:xlink="http://www.w3.org/1999/xlink">
<g><path style="opacity:0.989" fill="#030100" d="M 317.5,59.5 C 318.048,61.5323 319.381,62.5323 321.5,62.5C 323.308,62.4914 324.975,62.9914 326.5,64C 330.5,66.6667 334.5,69.3333 338.5,72C 339.965,73.7742 341.298,75.6075 342.5,77.5C 343.167,80.1667 344.833,81.8333 347.5,82.5C 351.06,85.9404 353.893,89.9404 356,94.5C 357.154,95.7433 358.488,96.7433 360,97.5C 362.962,103.257 365.795,109.09 368.5,115C 373.599,117.883 378.933,120.217 384.5,122C 390.669,125.918 396.669,130.085 402.5,134.5C 402.5,135.833 403.167,136.5 404.5,136.5C 408.72,140.202 413.387,143.369 418.5,146C 423.657,153.049 428.99,159.882 434.5,166.5C 434.427,168.027 435.094,169.027 436.5,169.5C 440.035,173.539 442.869,178.206 445,183.5C 446.414,188.644 448.081,193.644 450,198.5C 450.667,223.167 450.667,247.833 450,272.5C 447.263,281.709 443.93,290.709 440,299.5C 435.59,305.551 431.09,311.551 426.5,317.5C 421,349.339 407,376.506 384.5,399C 373.055,408.563 360.722,416.896 347.5,424C 340.403,426.476 333.403,429.142 326.5,432C 319.246,433.764 311.913,435.098 304.5,436C 270.833,436.667 237.167,436.667 203.5,436C 142.789,425.954 103.122,391.621 84.5,333C 83.2535,327.181 82.0868,321.348 81,315.5C 68.7637,302.156 61.0971,286.489 58,268.5C 57.3333,246.167 57.3333,223.833 58,201.5C 58.4517,198.123 59.1184,194.789 60,191.5C 63.3286,184.175 66.6619,176.842 70,169.5C 83.2347,150.105 100.401,135.105 121.5,124.5C 122.287,123.758 122.953,122.925 123.5,122C 149.093,109.18 176.093,100.514 204.5,96C 210.148,92.0153 215.481,87.6819 220.5,83C 228.347,79.7905 235.681,75.7905 242.5,71C 246.951,69.8779 250.951,67.8779 254.5,65C 257.096,63.8644 259.763,63.031 262.5,62.5C 263.833,62.5 264.5,61.8333 264.5,60.5C 270.911,58.3548 277.577,56.8548 284.5,56C 295.857,54.5601 306.857,55.7267 317.5,59.5 Z"/></g>
<g><path style="opacity:1" fill="#ca7801" d="M 264.5,60.5 C 264.5,61.8333 263.833,62.5 262.5,62.5C 262.5,61.1667 263.167,60.5 264.5,60.5 Z"/></g>
<g><path style="opacity:1" fill="#71241c" d="M 317.5,59.5 C 319.632,59.5544 320.965,60.5544 321.5,62.5C 319.381,62.5323 318.048,61.5323 317.5,59.5 Z"/></g>
<g><path style="opacity:1" fill="#a18701" d="M 299.5,75.5 C 299.167,75.5 298.833,75.5 298.5,75.5C 294.5,75.5 290.5,75.5 286.5,75.5C 288.223,74.1999 290.39,73.5332 293,73.5C 295.61,73.5332 297.777,74.1999 299.5,75.5 Z"/></g>
<g><path style="opacity:1" fill="#fddb00" d="M 286.5,75.5 C 290.5,75.5 294.5,75.5 298.5,75.5C 304.158,80.6578 309.658,85.9911 315,91.5C 318.644,97.4673 322.644,103.134 327,108.5C 344.132,140.761 360.132,173.428 375,206.5C 376.915,216.908 375.082,226.575 369.5,235.5C 362.368,245.244 353.702,253.41 343.5,260C 339.072,262.541 334.738,265.041 330.5,267.5C 283.447,280.593 235.947,281.926 188,271.5C 168.651,266.57 150.818,258.57 134.5,247.5C 127.915,242.086 122.248,235.919 117.5,229C 136.752,216.761 154.252,202.261 170,185.5C 171.968,181.54 174.635,178.207 178,175.5C 183.925,161.978 189.592,148.311 195,134.5C 197.955,131.174 200.955,127.841 204,124.5C 204.333,123.5 204.667,122.5 205,121.5C 225.055,100.716 248.888,85.8828 276.5,77C 279.793,76.1744 283.126,75.6744 286.5,75.5 Z"/></g>
<g><path style="opacity:1" fill="#fabe07" d="M 298.5,75.5 C 298.833,75.5 299.167,75.5 299.5,75.5C 305.929,75.8788 311.929,77.7121 317.5,81C 324.636,85.9695 330.969,91.8029 336.5,98.5C 340.444,104.746 344.611,110.746 349,116.5C 363.374,142.884 376.374,169.884 388,197.5C 389.608,200.772 391.608,203.772 394,206.5C 395.246,219.934 391.08,231.434 381.5,241C 377.203,243.304 373.536,246.304 370.5,250C 358.045,257.725 344.711,263.558 330.5,267.5C 334.738,265.041 339.072,262.541 343.5,260C 353.702,253.41 362.368,245.244 369.5,235.5C 375.082,226.575 376.915,216.908 375,206.5C 360.132,173.428 344.132,140.761 327,108.5C 322.644,103.134 318.644,97.4673 315,91.5C 309.658,85.9911 304.158,80.6578 298.5,75.5 Z"/></g>
<g><path style="opacity:1" fill="#932821" d="M 342.5,77.5 C 344.549,78.8818 346.215,80.5484 347.5,82.5C 344.833,81.8333 343.167,80.1667 342.5,77.5 Z"/></g>
<g><path style="opacity:1" fill="#706100" d="M 303.5,112.5 C 301.5,112.5 299.5,112.5 297.5,112.5C 297.97,111.307 298.97,110.64 300.5,110.5C 302.03,110.64 303.03,111.307 303.5,112.5 Z"/></g>
<g><path style="opacity:1" fill="#030200" d="M 297.5,112.5 C 299.5,112.5 301.5,112.5 303.5,112.5C 309.127,114.588 310.961,118.588 309,124.5C 306.103,129.155 301.937,130.655 296.5,129C 292.673,125.692 291.506,121.526 293,116.5C 293.792,114.356 295.292,113.023 297.5,112.5 Z"/></g>
<g><path style="opacity:1" fill="#f99401" d="M 181.5,119.5 C 182.043,119.56 182.376,119.893 182.5,120.5C 177.866,127.304 173.866,134.47 170.5,142C 151.676,148.03 134.343,156.696 118.5,168C 85.5806,200.731 86.9139,232.065 122.5,262C 128.971,265.819 135.304,269.819 141.5,274C 149.401,276.886 157.067,280.219 164.5,284C 200.149,293.783 236.483,298.116 273.5,297C 295.739,294.299 317.739,290.299 339.5,285C 355.5,279.499 370.5,272.166 384.5,263C 388.673,258.494 393.173,254.327 398,250.5C 401.077,245.306 404.411,240.306 408,235.5C 412.455,224.125 413.455,212.458 411,200.5C 402.42,183.672 394.087,166.672 386,149.5C 385.212,147.835 384.878,146.169 385,144.5C 403.5,156.334 417.834,172.001 428,191.5C 434.579,212.028 432.246,231.361 421,249.5C 411.456,263.377 399.623,274.877 385.5,284C 351.494,302.585 315.16,313.252 276.5,316C 221.909,321.284 170.909,310.617 123.5,284C 118.444,279.946 113.11,276.279 107.5,273C 103.667,267.833 99.1667,263.333 94,259.5C 90.8982,254.282 87.5648,249.282 84,244.5C 73.8709,223.771 74.0376,203.104 84.5,182.5C 88.5785,177.343 92.4118,172.01 96,166.5C 99.1667,164.667 101.667,162.167 103.5,159C 109.48,155.431 114.98,151.265 120,146.5C 126.494,142.733 132.994,139.066 139.5,135.5C 153.406,129.537 167.406,124.204 181.5,119.5 Z"/></g>
<g><path style="opacity:1" fill="#a66400" d="M 402.5,134.5 C 403.833,134.5 404.5,135.167 404.5,136.5C 404.5,135.167 403.833,134.5 402.5,134.5 Z"/></g>
<g><path style="opacity:1" fill="#080600" d="M 240.5,139.5 C 249.878,138.38 254.044,142.38 253,151.5C 250.367,156.732 246.201,158.565 240.5,157C 233.888,151.169 233.888,145.336 240.5,139.5 Z"/></g>
<g><path style="opacity:1" fill="#723b20" d="M 156.5,166.5 C 158.355,166.272 159.188,166.939 159,168.5C 146.161,184.344 131.161,197.677 114,208.5C 114.732,204.174 116.232,200.007 118.5,196C 122.476,191.354 126.476,186.687 130.5,182C 139.326,176.913 147.993,171.746 156.5,166.5 Z"/></g>
<g><path style="opacity:1" fill="#944b03" d="M 434.5,166.5 C 435.906,166.973 436.573,167.973 436.5,169.5C 435.094,169.027 434.427,168.027 434.5,166.5 Z"/></g>
<g><path style="opacity:1" fill="#060400" d="M 315.5,186.5 C 325.658,185.157 329.825,189.49 328,199.5C 322.881,204.491 317.381,204.825 311.5,200.5C 310.415,197.227 310.248,193.894 311,190.5C 312.992,189.672 314.492,188.339 315.5,186.5 Z"/></g>
<g><path style="opacity:1" fill="#0b0801" d="M 184.5,223.5 C 194.158,221.993 198.325,225.993 197,235.5C 194.647,240.426 190.814,242.26 185.5,241C 180.268,238.367 178.435,234.201 180,228.5C 181.025,226.313 182.525,224.646 184.5,223.5 Z"/></g>
<g><path style="opacity:1" fill="#0d0a01" d="M 260.5,231.5 C 265.626,231.029 269.46,233.029 272,237.5C 273.833,247.667 269.667,251.833 259.5,250C 255.326,247.193 253.493,243.36 254,238.5C 256.372,236.297 258.539,233.963 260.5,231.5 Z"/></g>
<g><path style="opacity:1" fill="#f07900" d="M 211.5,331.5 C 212.183,333.176 213.517,333.843 215.5,333.5C 239.994,336.158 264.494,336.158 289,333.5C 309.068,330.486 328.901,326.32 348.5,321C 356.694,317.406 365.027,314.073 373.5,311C 395.035,300.327 413.869,286.161 430,268.5C 429.987,271.897 429.321,275.23 428,278.5C 417.788,302.544 400.955,320.211 377.5,331.5C 376.713,332.242 376.047,333.075 375.5,334C 319.689,360.369 261.189,368.202 200,357.5C 186.114,353.921 172.281,350.088 158.5,346C 151.415,342.297 144.082,338.964 136.5,336C 125.11,329.645 114.444,322.312 104.5,314C 94.9298,305.359 87.4298,295.193 82,283.5C 79.8744,278.674 78.8744,273.674 79,268.5C 88.2413,280.074 99.0746,289.907 111.5,298C 118.278,300.923 124.611,304.59 130.5,309C 143.414,314.412 156.414,319.412 169.5,324C 183.414,327.147 197.414,329.647 211.5,331.5 Z"/></g>
<g><path style="opacity:1" fill="#5a2d03" d="M 211.5,331.5 C 213.483,331.157 214.817,331.824 215.5,333.5C 213.517,333.843 212.183,333.176 211.5,331.5 Z"/></g>
<g><path style="opacity:1" fill="#9e512c" d="M 374.5,354.5 C 375.573,355.251 375.74,356.251 375,357.5C 361.567,381.767 342.734,400.434 318.5,413.5C 311.663,415.359 304.663,416.525 297.5,417C 267.5,417.667 237.5,417.667 207.5,417C 169.354,411.529 139.52,393.029 118,361.5C 113.842,354.226 110.675,346.893 108.5,339.5C 118.212,346.112 128.379,352.112 139,357.5C 203.319,383.509 269.152,387.509 336.5,369.5C 349.442,365.023 362.109,360.023 374.5,354.5 Z"/></g>
<g><path style="opacity:1" fill="#753c21" d="M 318.5,413.5 C 342.734,400.434 361.567,381.767 375,357.5C 375.74,356.251 375.573,355.251 374.5,354.5C 383.619,350.547 392.119,345.547 400,339.5C 398.883,345.595 396.717,351.429 393.5,357C 389.635,361.875 386.135,367.041 383,372.5C 379.083,374.996 376.083,378.33 374,382.5C 362.802,392.854 350.302,401.354 336.5,408C 330.557,410.149 324.557,411.982 318.5,413.5 Z"/></g>
</svg>
