<?xml version="1.0" encoding="UTF-8"?>
<!DOCTYPE svg PUBLIC "-//W3C//DTD SVG 1.1//EN" "http://www.w3.org/Graphics/SVG/1.1/DTD/svg11.dtd">
<svg xmlns="http://www.w3.org/2000/svg" version="1.1" width="512px" height="512px" style="shape-rendering:geometricPrecision; text-rendering:geometricPrecision; image-rendering:optimizeQuality; fill-rule:evenodd; clip-rule:evenodd" xmlns:xlink="http://www.w3.org/1999/xlink">
<g><path style="opacity:0.964" fill="#020201" d="M 266.5,-0.5 C 272.5,-0.5 278.5,-0.5 284.5,-0.5C 304.298,4.95041 324.298,10.1171 344.5,15C 355.724,21.949 360.724,32.1157 359.5,45.5C 359.498,50.5558 358.998,55.5558 358,60.5C 350.359,85.0889 342.526,109.589 334.5,134C 351.721,126.396 369.055,118.729 386.5,111C 397.633,107.828 407.799,109.661 417,116.5C 428.733,130.967 439.733,145.967 450,161.5C 460.284,177.567 459.95,193.233 449,208.5C 447.269,210.617 445.102,212.117 442.5,213C 432.305,216.841 422.139,220.675 412,224.5C 408.571,224.191 406.071,222.524 404.5,219.5C 403.971,215.808 404.971,212.642 407.5,210C 417,206.167 426.5,202.333 436,198.5C 441.364,194.076 443.364,188.41 442,181.5C 439.916,175.661 437.083,170.327 433.5,165.5C 425.588,154.019 417.421,142.686 409,131.5C 406.048,126.94 401.881,124.94 396.5,125.5C 392.307,125.398 388.307,126.231 384.5,128C 364.5,137.667 344.5,147.333 324.5,157C 316.878,158.378 313.378,155.211 314,147.5C 320.866,125.069 328.033,102.735 335.5,80.5C 318.202,76.7277 301.202,71.8944 284.5,66C 277.577,62.0769 276.91,57.4102 282.5,52C 284.833,51.3333 287.167,51.3333 289.5,52C 306.01,58.547 323.01,62.3803 340.5,63.5C 345.477,52.8589 345.644,42.1922 341,31.5C 340.097,30.2986 338.931,29.4652 337.5,29C 318.689,24.9639 300.022,20.2973 281.5,15C 270.428,12.7871 262.262,16.6204 257,26.5C 246.777,50.1687 237.944,74.3353 230.5,99C 248.062,106.076 266.062,111.743 284.5,116C 288.875,121.121 288.209,125.455 282.5,129C 280.167,129.667 277.833,129.667 275.5,129C 258.989,124.662 242.656,119.829 226.5,114.5C 223.116,130.688 220.616,147.021 219,163.5C 216.195,169.568 211.695,171.068 205.5,168C 190.234,161.691 175.068,155.191 160,148.5C 154.001,124.508 148.001,100.508 142,76.5C 141.5,76 141,75.5 140.5,75C 132.841,74.5003 125.174,74.3336 117.5,74.5C 118.253,89.3531 120.42,104.02 124,118.5C 124.929,122.244 124.429,125.744 122.5,129C 120.801,129.958 118.967,130.458 117,130.5C 110.821,128.746 104.655,126.913 98.5,125C 95.8333,124.333 93.1667,124.333 90.5,125C 77.3621,138.714 72.8621,154.88 77,173.5C 88.2344,181.063 99.7344,188.229 111.5,195C 113.744,198.303 114.077,201.803 112.5,205.5C 110.142,208.236 107.142,209.07 103.5,208C 92.1667,201.333 80.8333,194.667 69.5,188C 62.0672,181.38 58.7338,173.046 59.5,163C 59.9433,145.496 65.61,129.996 76.5,116.5C 85.2028,108.495 95.2028,106.495 106.5,110.5C 104.348,99.753 102.681,88.9196 101.5,78C 101.636,68.8769 105.97,62.8769 114.5,60C 125.24,59.0716 135.907,59.4049 146.5,61C 151.333,63.1667 154.833,66.6667 157,71.5C 162.104,93.1871 167.271,114.854 172.5,136.5C 182.808,141.57 193.308,146.237 204,150.5C 210.731,107.639 222.731,66.3061 240,26.5C 244.412,12.9232 253.245,3.92323 266.5,-0.5 Z"/></g>
<g><path style="opacity:1" fill="#fdd571" d="M 433.5,165.5 C 392.966,182.431 352.632,199.931 312.5,218C 302.877,224.113 296.544,232.613 293.5,243.5C 283.259,241.898 279.759,245.898 283,255.5C 284.995,257.747 287.495,258.747 290.5,258.5C 290.225,268.268 288.058,277.601 284,286.5C 273.935,305.628 263.602,324.628 253,343.5C 245.848,358.457 241.014,374.124 238.5,390.5C 237.167,390.5 235.833,390.5 234.5,390.5C 230.475,390.184 226.475,390.017 222.5,390C 218.024,393.661 217.357,397.994 220.5,403C 224.72,404.342 229.053,405.175 233.5,405.5C 234.209,406.404 235.209,406.737 236.5,406.5C 234.449,436.797 236.449,466.797 242.5,496.5C 211.826,496.833 181.159,496.5 150.5,495.5C 155.008,483.809 159.008,471.976 162.5,460C 184.454,461.434 206.454,461.768 228.5,461C 234.133,455.513 233.466,450.846 226.5,447C 205.827,446.62 185.161,446.12 164.5,445.5C 164.522,435.777 162.689,426.444 159,417.5C 154.622,413.065 149.788,409.232 144.5,406C 123.331,392.916 102.331,379.583 81.5,366C 69.1099,354.943 65.9432,341.776 72,326.5C 74.8354,322.661 78.502,319.994 83,318.5C 97.7562,324.197 112.59,329.697 127.5,335C 132.492,337.161 137.159,339.828 141.5,343C 146.597,348.1 152.264,352.433 158.5,356C 165.622,358.026 170.122,355.526 172,348.5C 171.627,338.523 171.127,328.523 170.5,318.5C 170.572,312.799 170.906,307.133 171.5,301.5C 194.664,311.117 218.664,313.95 243.5,310C 246.916,304.536 245.916,300.203 240.5,297C 226.793,296.885 213.126,296.218 199.5,295C 190.575,293.365 182.575,289.865 175.5,284.5C 180.96,270.639 183.793,256.305 184,241.5C 170.609,230.885 156.442,221.385 141.5,213C 137.345,211.946 133.678,212.78 130.5,215.5C 124.5,212.167 118.5,208.833 112.5,205.5C 114.077,201.803 113.744,198.303 111.5,195C 99.7344,188.229 88.2344,181.063 77,173.5C 72.8621,154.88 77.3621,138.714 90.5,125C 93.1667,124.333 95.8333,124.333 98.5,125C 104.655,126.913 110.821,128.746 117,130.5C 118.967,130.458 120.801,129.958 122.5,129C 124.429,125.744 124.929,122.244 124,118.5C 120.42,104.02 118.253,89.3531 117.5,74.5C 125.174,74.3336 132.841,74.5003 140.5,75C 141,75.5 141.5,76 142,76.5C 148.001,100.508 154.001,124.508 160,148.5C 175.068,155.191 190.234,161.691 205.5,168C 211.695,171.068 216.195,169.568 219,163.5C 220.616,147.021 223.116,130.688 226.5,114.5C 242.656,119.829 258.989,124.662 275.5,129C 277.833,129.667 280.167,129.667 282.5,129C 288.209,125.455 288.875,121.121 284.5,116C 266.062,111.743 248.062,106.076 230.5,99C 237.944,74.3353 246.777,50.1687 257,26.5C 262.262,16.6204 270.428,12.7871 281.5,15C 300.022,20.2973 318.689,24.9639 337.5,29C 338.931,29.4652 340.097,30.2986 341,31.5C 345.644,42.1922 345.477,52.8589 340.5,63.5C 323.01,62.3803 306.01,58.547 289.5,52C 287.167,51.3333 284.833,51.3333 282.5,52C 276.91,57.4102 277.577,62.0769 284.5,66C 301.202,71.8944 318.202,76.7277 335.5,80.5C 328.033,102.735 320.866,125.069 314,147.5C 313.378,155.211 316.878,158.378 324.5,157C 344.5,147.333 364.5,137.667 384.5,128C 388.307,126.231 392.307,125.398 396.5,125.5C 401.881,124.94 406.048,126.94 409,131.5C 417.421,142.686 425.588,154.019 433.5,165.5 Z"/></g>
<g><path style="opacity:1" fill="#f9b857" d="M 433.5,165.5 C 437.083,170.327 439.916,175.661 442,181.5C 443.364,188.41 441.364,194.076 436,198.5C 426.5,202.333 417,206.167 407.5,210C 404.971,212.642 403.971,215.808 404.5,219.5C 398.681,221.656 393.015,223.99 387.5,226.5C 385.873,223.213 383.207,221.546 379.5,221.5C 363.716,225.054 351.383,233.554 342.5,247C 325.913,247.48 309.58,246.313 293.5,243.5C 296.544,232.613 302.877,224.113 312.5,218C 352.632,199.931 392.966,182.431 433.5,165.5 Z"/></g>
<g><path style="opacity:0.972" fill="#030201" d="M 242.5,496.5 C 256.5,496.5 270.5,496.5 284.5,496.5C 282.413,478.546 280.579,460.546 279,442.5C 278.26,431.473 278.426,420.473 279.5,409.5C 264.049,409.429 248.716,408.095 233.5,405.5C 229.053,405.175 224.72,404.342 220.5,403C 217.357,397.994 218.024,393.661 222.5,390C 226.475,390.017 230.475,390.184 234.5,390.5C 249.906,393.366 265.572,394.533 281.5,394C 284.636,375.597 291.136,358.431 301,342.5C 310.997,329.179 319.997,315.179 328,300.5C 329.821,295.548 331.488,290.548 333,285.5C 333.643,277.729 334.809,270.062 336.5,262.5C 321.132,261.497 305.798,260.164 290.5,258.5C 287.495,258.747 284.995,257.747 283,255.5C 279.759,245.898 283.259,241.898 293.5,243.5C 309.58,246.313 325.913,247.48 342.5,247C 351.383,233.554 363.716,225.054 379.5,221.5C 383.207,221.546 385.873,223.213 387.5,226.5C 388.125,229.97 387.125,232.804 384.5,235C 377.058,237.887 370.058,241.554 363.5,246C 357.624,250.88 353.791,257.047 352,264.5C 350.66,284.536 344.994,303.202 335,320.5C 326.942,331.56 319.275,342.893 312,354.5C 299.092,378.536 293.259,404.203 294.5,431.5C 294.607,455.797 297.274,479.797 302.5,503.5C 302.052,506.673 300.719,509.339 298.5,511.5C 246.167,511.5 193.833,511.5 141.5,511.5C 136.809,509.631 134.143,506.131 133.5,501C 138.523,484.927 143.356,468.761 148,452.5C 148.667,446.833 148.667,441.167 148,435.5C 147.846,431.902 146.846,428.569 145,425.5C 120.415,409.791 95.9149,393.958 71.5,378C 50.824,358.37 47.9907,336.536 63,312.5C 70.9792,304.286 80.4792,301.786 91.5,305C 105.756,310.53 120.089,315.863 134.5,321C 142.104,324.382 148.938,328.882 155,334.5C 154.001,323.813 154.334,313.146 156,302.5C 159.858,285.093 164.025,267.759 168.5,250.5C 168.471,248.971 167.804,247.804 166.5,247C 155.431,239.604 144.098,232.604 132.5,226C 129.681,222.894 129.014,219.394 130.5,215.5C 133.678,212.78 137.345,211.946 141.5,213C 156.442,221.385 170.609,230.885 184,241.5C 183.793,256.305 180.96,270.639 175.5,284.5C 182.575,289.865 190.575,293.365 199.5,295C 213.126,296.218 226.793,296.885 240.5,297C 245.916,300.203 246.916,304.536 243.5,310C 218.664,313.95 194.664,311.117 171.5,301.5C 170.906,307.133 170.572,312.799 170.5,318.5C 171.127,328.523 171.627,338.523 172,348.5C 170.122,355.526 165.622,358.026 158.5,356C 152.264,352.433 146.597,348.1 141.5,343C 137.159,339.828 132.492,337.161 127.5,335C 112.59,329.697 97.7562,324.197 83,318.5C 78.502,319.994 74.8354,322.661 72,326.5C 65.9432,341.776 69.1099,354.943 81.5,366C 102.331,379.583 123.331,392.916 144.5,406C 149.788,409.232 154.622,413.065 159,417.5C 162.689,426.444 164.522,435.777 164.5,445.5C 185.161,446.12 205.827,446.62 226.5,447C 233.466,450.846 234.133,455.513 228.5,461C 206.454,461.768 184.454,461.434 162.5,460C 159.008,471.976 155.008,483.809 150.5,495.5C 181.159,496.5 211.826,496.833 242.5,496.5 Z"/></g>
<g><path style="opacity:1" fill="#f9b857" d="M 290.5,258.5 C 305.798,260.164 321.132,261.497 336.5,262.5C 334.809,270.062 333.643,277.729 333,285.5C 331.488,290.548 329.821,295.548 328,300.5C 319.997,315.179 310.997,329.179 301,342.5C 291.136,358.431 284.636,375.597 281.5,394C 265.572,394.533 249.906,393.366 234.5,390.5C 235.833,390.5 237.167,390.5 238.5,390.5C 241.014,374.124 245.848,358.457 253,343.5C 263.602,324.628 273.935,305.628 284,286.5C 288.058,277.601 290.225,268.268 290.5,258.5 Z"/></g>
<g><path style="opacity:1" fill="#f9b957" d="M 233.5,405.5 C 248.716,408.095 264.049,409.429 279.5,409.5C 278.426,420.473 278.26,431.473 279,442.5C 280.579,460.546 282.413,478.546 284.5,496.5C 270.5,496.5 256.5,496.5 242.5,496.5C 236.449,466.797 234.449,436.797 236.5,406.5C 235.209,406.737 234.209,406.404 233.5,405.5 Z"/></g>
</svg>
