<?xml version="1.0" encoding="UTF-8"?>
<!DOCTYPE svg PUBLIC "-//W3C//DTD SVG 1.1//EN" "http://www.w3.org/Graphics/SVG/1.1/DTD/svg11.dtd">
<svg xmlns="http://www.w3.org/2000/svg" version="1.1" width="512px" height="512px" style="shape-rendering:geometricPrecision; text-rendering:geometricPrecision; image-rendering:optimizeQuality; fill-rule:evenodd; clip-rule:evenodd" xmlns:xlink="http://www.w3.org/1999/xlink">
<g><path style="opacity:0.975" fill="#000000" d="M 287.5,-0.5 C 290.833,-0.5 294.167,-0.5 297.5,-0.5C 300.705,2.05352 302.705,5.38685 303.5,9.5C 300.211,22.867 296.211,36.0337 291.5,49C 292.899,66.5006 292.733,84.0006 291,101.5C 289.805,108.612 288.139,115.612 286,122.5C 281.862,132.428 277.529,142.094 273,151.5C 282,145.833 291,140.167 300,134.5C 307.415,121.335 315.081,108.335 323,95.5C 333.927,78.5719 348.094,65.0719 365.5,55C 375.921,49.3725 386.421,43.8725 397,38.5C 401.129,26.9854 404.796,15.3187 408,3.5C 409.397,1.92975 410.897,0.596413 412.5,-0.5C 415.5,-0.5 418.5,-0.5 421.5,-0.5C 425.63,1.6725 427.63,5.1725 427.5,10C 424.702,22.3584 421.202,34.5251 417,46.5C 417.081,60.8527 416.915,75.186 416.5,89.5C 425.839,89.6665 435.173,89.4998 444.5,89C 453.523,80.9756 462.19,72.6423 470.5,64C 482.333,61.8333 487.167,66.6667 485,78.5C 476.333,88.5 467,97.8333 457,106.5C 448.433,125.316 438.099,142.983 426,159.5C 419.431,166.739 412.265,173.239 404.5,179C 392.096,187.064 379.43,194.731 366.5,202C 362.288,207.943 358.788,214.109 356,220.5C 371.012,206.405 387.845,194.905 406.5,186C 426.283,179.316 446.616,175.316 467.5,174C 475.217,164.617 482.551,154.951 489.5,145C 496.437,141.276 501.937,142.776 506,149.5C 506.667,152.167 506.667,154.833 506,157.5C 499.104,168.397 491.438,178.73 483,188.5C 476.977,210.868 467.977,231.868 456,251.5C 446.833,263.333 436.333,273.833 424.5,283C 338.65,352.094 252.984,421.427 167.5,491C 148.791,503.959 128.125,510.792 105.5,511.5C 96.1667,511.5 86.8333,511.5 77.5,511.5C 73.3701,509.328 71.3701,505.828 71.5,501C 74.6295,486.969 78.1295,473.135 82,459.5C 64.1281,473.193 44.2947,483.193 22.5,489.5C 18.0675,488.903 14.9008,486.57 13,482.5C 9.40288,461.92 8.73622,441.253 11,420.5C 12.7318,412.971 15.0652,405.638 18,398.5C 23.2117,388.737 28.3784,379.07 33.5,369.5C 25.7468,369.435 18.0801,368.601 10.5,367C 4.89116,363.723 3.05783,358.89 5,352.5C 11.354,336.127 19.0206,320.46 28,305.5C 34.5,297.667 41.6667,290.5 49.5,284C 68.5,272.5 87.5,261 106.5,249.5C 138.749,195.334 171.249,141.334 204,87.5C 212.203,77.63 221.369,68.7966 231.5,61C 245.252,53.0401 259.086,45.2068 273,37.5C 276.536,26.5601 279.869,15.5601 283,4.5C 284.025,2.31305 285.525,0.646381 287.5,-0.5 Z M 198.5,302.5 C 181.356,331.445 164.19,360.445 147,389.5C 136.292,398.38 125.459,407.047 114.5,415.5C 133.058,383.391 151.891,351.391 171,319.5C 179.433,312.698 188.599,307.031 198.5,302.5 Z"/></g>
<g><path style="opacity:1" fill="#567900" d="M 197.5,196.5 C 197.491,194.692 197.991,193.025 199,191.5C 214.398,166.427 229.398,141.094 244,115.5C 250.074,103.373 253.574,90.5396 254.5,77C 254.431,75.0145 253.765,73.5145 252.5,72.5C 258.557,69.0534 264.723,65.7201 271,62.5C 273.757,84.7017 270.757,106.035 262,126.5C 252.667,142.5 243.333,158.5 234,174.5C 222.055,182.222 209.888,189.555 197.5,196.5 Z"/></g>
<g><path style="opacity:1" fill="#547600" d="M 376.5,94.5 C 378.153,86.9267 379.153,79.26 379.5,71.5C 384.447,68.021 389.78,65.021 395.5,62.5C 396.498,71.8096 396.832,81.1429 396.5,90.5C 389.764,91.6218 383.097,92.9551 376.5,94.5 Z"/></g>
<g><path style="opacity:1" fill="#609100" d="M 252.5,72.5 C 253.765,73.5145 254.431,75.0145 254.5,77C 253.574,90.5396 250.074,103.373 244,115.5C 229.398,141.094 214.398,166.427 199,191.5C 197.991,193.025 197.491,194.692 197.5,196.5C 179.454,207.499 161.454,217.833 143.5,227.5C 168.801,185.035 194.301,142.702 220,100.5C 228.886,88.7711 239.72,79.4378 252.5,72.5 Z"/></g>
<g><path style="opacity:1" fill="#5e8e00" d="M 379.5,71.5 C 379.153,79.26 378.153,86.9267 376.5,94.5C 362.659,99.9256 349.326,106.092 336.5,113C 346.456,94.5423 360.789,80.709 379.5,71.5 Z"/></g>
<g><path style="opacity:1" fill="#609200" d="M 400.5,110.5 C 404.514,110.334 408.514,110.501 412.5,111C 402.5,126.333 389.833,139 374.5,149C 277.833,206.333 181.167,263.667 84.5,321C 69.4624,329.929 53.4624,333.762 36.5,332.5C 43.7663,316.396 55.0996,303.896 70.5,295C 167.167,237.667 263.833,180.333 360.5,123C 372.943,115.908 386.276,111.741 400.5,110.5 Z"/></g>
<g><path style="opacity:1" fill="#567900" d="M 400.5,110.5 C 410.653,109.506 420.986,109.172 431.5,109.5C 423.325,131.177 409.992,149.01 391.5,163C 292.833,221.667 194.167,280.333 95.5,339C 74.7825,350.175 52.7825,353.675 29.5,349.5C 31.0385,343.434 33.3719,337.767 36.5,332.5C 53.4624,333.762 69.4624,329.929 84.5,321C 181.167,263.667 277.833,206.333 374.5,149C 389.833,139 402.5,126.333 412.5,111C 408.514,110.501 404.514,110.334 400.5,110.5 Z"/></g>
<g><path style="opacity:1" fill="#567900" d="M 100.5,472.5 C 100.791,473.649 101.624,474.316 103,474.5C 121.752,470.707 138.252,462.541 152.5,450C 237.833,380.667 323.167,311.333 408.5,242C 422.428,229.945 432.761,215.445 439.5,198.5C 445.788,196.754 452.121,196.088 458.5,196.5C 452.025,222.974 438.358,244.807 417.5,262C 329.833,333 242.167,404 154.5,475C 136.635,486.784 116.969,491.951 95.5,490.5C 96.2515,484.151 97.9181,478.151 100.5,472.5 Z"/></g>
<g><path style="opacity:1" fill="#609200" d="M 439.5,198.5 C 432.761,215.445 422.428,229.945 408.5,242C 323.167,311.333 237.833,380.667 152.5,450C 138.252,462.541 121.752,470.707 103,474.5C 101.624,474.316 100.791,473.649 100.5,472.5C 102.79,462.92 106.957,454.254 113,446.5C 118.167,441.333 123.333,436.167 128.5,431C 209.833,365 291.167,299 372.5,233C 382.969,224.266 393.969,216.266 405.5,209C 416.191,203.38 427.525,199.88 439.5,198.5 Z"/></g>
<g><path style="opacity:1" fill="#557700" d="M 261.5,297.5 C 269.907,280.86 279.24,264.693 289.5,249C 288.906,248.536 288.239,248.369 287.5,248.5C 300.634,239.604 314.301,231.77 328.5,225C 320.956,236.584 313.79,248.417 307,260.5C 291.959,273.046 276.793,285.379 261.5,297.5 Z"/></g>
<g><path style="opacity:1" fill="#5f9000" d="M 287.5,248.5 C 288.239,248.369 288.906,248.536 289.5,249C 279.24,264.693 269.907,280.86 261.5,297.5C 238.978,315.695 216.478,334.028 194,352.5C 208.085,327.355 222.752,302.355 238,277.5C 254.445,267.696 270.945,258.029 287.5,248.5 Z"/></g>
<g><path style="opacity:1" fill="#557800" d="M 30.5,430.5 C 30.3339,436.176 30.5006,441.843 31,447.5C 41.4504,442.06 50.4504,434.726 58,425.5C 71.7928,404.753 84.9595,383.586 97.5,362C 96.9056,361.536 96.2389,361.369 95.5,361.5C 108.757,354.096 121.924,346.429 135,338.5C 116.331,372.147 96.3309,405.147 75,437.5C 62.532,449.657 48.032,458.657 31.5,464.5C 29.4785,453.058 29.1452,441.725 30.5,430.5 Z"/></g>
<g><path style="opacity:1" fill="#609100" d="M 95.5,361.5 C 96.2389,361.369 96.9056,361.536 97.5,362C 84.9595,383.586 71.7928,404.753 58,425.5C 50.4504,434.726 41.4504,442.06 31,447.5C 30.5006,441.843 30.3339,436.176 30.5,430.5C 31.0762,422.862 32.9095,415.529 36,408.5C 42.6617,395.839 49.8284,383.506 57.5,371.5C 63.6978,369.765 70.0311,368.599 76.5,368C 82.894,365.924 89.2274,363.758 95.5,361.5 Z"/></g>
</svg>
