<?xml version="1.0" encoding="UTF-8"?>
<!DOCTYPE svg PUBLIC "-//W3C//DTD SVG 1.1//EN" "http://www.w3.org/Graphics/SVG/1.1/DTD/svg11.dtd">
<svg xmlns="http://www.w3.org/2000/svg" version="1.1" width="512px" height="512px" style="shape-rendering:geometricPrecision; text-rendering:geometricPrecision; image-rendering:optimizeQuality; fill-rule:evenodd; clip-rule:evenodd" xmlns:xlink="http://www.w3.org/1999/xlink">
<g><path style="opacity:0.989" fill="#030303" d="M 104.5,-0.5 C 123.833,-0.5 143.167,-0.5 162.5,-0.5C 164.85,1.21328 165.85,3.54661 165.5,6.5C 165.167,11.5 162.5,14.1667 157.5,14.5C 142.167,14.5 126.833,14.5 111.5,14.5C 111.5,24.5 111.5,34.5 111.5,44.5C 126.833,44.5 142.167,44.5 157.5,44.5C 186.5,44.5 215.5,44.5 244.5,44.5C 244.5,34.5 244.5,24.5 244.5,14.5C 226.497,14.6666 208.497,14.4999 190.5,14C 187.292,12.5627 185.625,10.0627 185.5,6.5C 185.15,3.54661 186.15,1.21328 188.5,-0.5C 209.833,-0.5 231.167,-0.5 252.5,-0.5C 255.886,1.72286 258.386,4.72286 260,8.5C 260.667,22.5 260.667,36.5 260,50.5C 257.737,56.9402 253.237,59.9402 246.5,59.5C 246.094,67.9174 246.594,76.2508 248,84.5C 257.667,97.5 267.333,110.5 277,123.5C 284.888,136.609 291.721,150.276 297.5,164.5C 350.497,165.333 403.497,165.833 456.5,166C 463.026,169.045 466.026,174.212 465.5,181.5C 460.333,239.5 455.167,297.5 450,355.5C 450.487,361.901 447.653,365.568 441.5,366.5C 435.772,364.898 433.439,361.064 434.5,355C 437.864,316.829 441.197,278.662 444.5,240.5C 414.498,240.667 384.498,240.5 354.5,240C 352.356,239.208 351.023,237.708 350.5,235.5C 349.458,230.867 351.125,227.701 355.5,226C 385.832,225.5 416.165,225.333 446.5,225.5C 447.199,210.48 448.199,195.48 449.5,180.5C 392.833,180.5 336.167,180.5 279.5,180.5C 268.833,180.5 258.167,180.5 247.5,180.5C 248.44,195.504 249.44,210.504 250.5,225.5C 261.167,225.5 271.833,225.5 282.5,225.5C 296.504,225.333 310.504,225.5 324.5,226C 328.875,227.701 330.542,230.867 329.5,235.5C 328.856,238.144 327.189,239.811 324.5,240.5C 300.5,240.5 276.5,240.5 252.5,240.5C 258.524,311.172 264.691,381.838 271,452.5C 272.433,457.598 275.6,461.098 280.5,463C 326.002,463.831 371.335,463.665 416.5,462.5C 421.955,460.874 425.122,457.207 426,451.5C 427.607,431.495 429.273,411.495 431,391.5C 432.641,387.677 435.474,385.677 439.5,385.5C 444.594,386.488 446.927,389.655 446.5,395C 443.087,429.452 440.254,463.952 438,498.5C 437.242,504.714 434.076,509.047 428.5,511.5C 310.5,511.5 192.5,511.5 74.5,511.5C 59.4086,506.907 49.9086,496.907 46,481.5C 45.3333,396.167 45.3333,310.833 46,225.5C 50.5473,173.137 70.5473,127.804 106,89.5C 107,87.5 108,85.5 109,83.5C 110.363,75.5705 110.863,67.5705 110.5,59.5C 104.043,60.0251 99.5428,57.3584 97,51.5C 96.3333,36.8333 96.3333,22.1667 97,7.5C 98.3532,3.64987 100.853,0.983199 104.5,-0.5 Z"/></g>
<g><path style="opacity:1" fill="#fdcdc7" d="M 165.5,6.5 C 172.167,6.5 178.833,6.5 185.5,6.5C 185.625,10.0627 187.292,12.5627 190.5,14C 208.497,14.4999 226.497,14.6666 244.5,14.5C 244.5,24.5 244.5,34.5 244.5,44.5C 215.5,44.5 186.5,44.5 157.5,44.5C 157.5,34.5 157.5,24.5 157.5,14.5C 162.5,14.1667 165.167,11.5 165.5,6.5 Z"/></g>
<g><path style="opacity:1" fill="#fbbeb5" d="M 157.5,14.5 C 157.5,24.5 157.5,34.5 157.5,44.5C 142.167,44.5 126.833,44.5 111.5,44.5C 111.5,34.5 111.5,24.5 111.5,14.5C 126.833,14.5 142.167,14.5 157.5,14.5 Z"/></g>
<g><path style="opacity:1" fill="#98e4fa" d="M 157.5,59.5 C 157.666,69.8387 157.5,80.172 157,90.5C 155.208,96.7513 152.374,102.418 148.5,107.5C 136.322,107.828 124.322,107.495 112.5,106.5C 124.709,93.1821 129.043,77.5154 125.5,59.5C 136.167,59.5 146.833,59.5 157.5,59.5 Z"/></g>
<g><path style="opacity:1" fill="#c7eefd" d="M 157.5,59.5 C 181.833,59.5 206.167,59.5 230.5,59.5C 227.913,77.5178 232.58,93.1845 244.5,106.5C 212.671,107.498 180.671,107.832 148.5,107.5C 152.374,102.418 155.208,96.7513 157,90.5C 157.5,80.172 157.666,69.8387 157.5,59.5 Z"/></g>
<g><path style="opacity:1" fill="#a3cbda" d="M 112.5,106.5 C 124.322,107.495 136.322,107.828 148.5,107.5C 180.671,107.832 212.671,107.498 244.5,106.5C 245.043,106.56 245.376,106.893 245.5,107.5C 200.504,108.667 155.504,108.833 110.5,108C 111.044,107.283 111.711,106.783 112.5,106.5 Z"/></g>
<g><path style="opacity:1" fill="#ddf4fb" d="M 134.5,123.5 C 122.318,139.18 112.152,156.18 104,174.5C 101.517,181.447 99.35,188.447 97.5,195.5C 87.1667,195.5 76.8333,195.5 66.5,195.5C 72.1036,169.629 82.6036,145.962 98,124.5C 110.086,123.512 122.253,123.178 134.5,123.5 Z"/></g>
<g><path style="opacity:1" fill="#f1fafe" d="M 134.5,123.5 C 175.839,123.167 217.172,123.5 258.5,124.5C 267.674,137.181 275.007,150.848 280.5,165.5C 267.496,165.333 254.496,165.5 241.5,166C 237,167.833 233.833,171 232,175.5C 232.053,182.15 232.22,188.816 232.5,195.5C 187.5,195.5 142.5,195.5 97.5,195.5C 99.35,188.447 101.517,181.447 104,174.5C 112.152,156.18 122.318,139.18 134.5,123.5 Z"/></g>
<g><path style="opacity:1" fill="#070707" d="M 187.5,139.5 C 198.818,138.99 201.485,143.49 195.5,153C 186.721,154.888 183.221,151.388 185,142.5C 186.045,141.627 186.878,140.627 187.5,139.5 Z"/></g>
<g><path style="opacity:1" fill="#0c0c0c" d="M 218.5,140.5 C 225.706,140.202 228.873,143.535 228,150.5C 223.333,157.167 218.667,157.167 214,150.5C 213.077,146.017 214.577,142.683 218.5,140.5 Z"/></g>
<g><path style="opacity:1" fill="#070707" d="M 202.5,165.5 C 213.818,164.99 216.485,169.49 210.5,179C 201.721,180.888 198.221,177.388 200,168.5C 201.045,167.627 201.878,166.627 202.5,165.5 Z"/></g>
<g><path style="opacity:1" fill="#98e5fb" d="M 279.5,180.5 C 280.596,195.5 281.596,210.5 282.5,225.5C 271.833,225.5 261.167,225.5 250.5,225.5C 249.44,210.504 248.44,195.504 247.5,180.5C 258.167,180.5 268.833,180.5 279.5,180.5 Z"/></g>
<g><path style="opacity:1" fill="#c7eefd" d="M 279.5,180.5 C 336.167,180.5 392.833,180.5 449.5,180.5C 448.199,195.48 447.199,210.48 446.5,225.5C 416.165,225.333 385.832,225.5 355.5,226C 351.125,227.701 349.458,230.867 350.5,235.5C 347.262,234.252 343.762,233.585 340,233.5C 336.238,233.585 332.738,234.252 329.5,235.5C 330.542,230.867 328.875,227.701 324.5,226C 310.504,225.5 296.504,225.333 282.5,225.5C 281.596,210.5 280.596,195.5 279.5,180.5 Z"/></g>
<g><path style="opacity:1" fill="#e5afa7" d="M 234.5,211.5 C 187.833,211.5 141.167,211.5 94.5,211.5C 93.8734,216.141 93.5401,220.807 93.5,225.5C 82.8333,225.5 72.1667,225.5 61.5,225.5C 61.3925,220.523 62.0591,215.69 63.5,211C 120.668,210.168 177.668,210.335 234.5,211.5 Z"/></g>
<g><path style="opacity:1" fill="#fdcdc7" d="M 234.5,211.5 C 235.314,216.119 235.647,220.786 235.5,225.5C 188.167,225.5 140.833,225.5 93.5,225.5C 93.5401,220.807 93.8734,216.141 94.5,211.5C 141.167,211.5 187.833,211.5 234.5,211.5 Z"/></g>
<g><path style="opacity:1" fill="#f1fafe" d="M 350.5,235.5 C 351.023,237.708 352.356,239.208 354.5,240C 384.498,240.5 414.498,240.667 444.5,240.5C 441.197,278.662 437.864,316.829 434.5,355C 433.439,361.064 435.772,364.898 441.5,366.5C 440.953,372.853 440.286,379.186 439.5,385.5C 435.474,385.677 432.641,387.677 431,391.5C 429.273,411.495 427.607,431.495 426,451.5C 425.122,457.207 421.955,460.874 416.5,462.5C 378.833,462.5 341.167,462.5 303.5,462.5C 299.708,408.793 295.375,355.126 290.5,301.5C 297.051,298.245 298.051,293.745 293.5,288C 291.975,286.991 290.308,286.491 288.5,286.5C 287.673,271.573 286.34,256.74 284.5,242C 298.006,241.831 311.34,241.331 324.5,240.5C 327.189,239.811 328.856,238.144 329.5,235.5C 332.738,234.252 336.238,233.585 340,233.5C 343.762,233.585 347.262,234.252 350.5,235.5 Z"/></g>
<g><path style="opacity:1" fill="#9a9583" d="M 237.5,242.5 C 189.239,241.505 140.905,241.172 92.5,241.5C 82.1667,241.5 71.8333,241.5 61.5,241.5C 61.5,264.833 61.5,288.167 61.5,311.5C 60.5024,288.006 60.1691,264.339 60.5,240.5C 119.843,239.837 178.843,240.504 237.5,242.5 Z"/></g>
<g><path style="opacity:1" fill="#fef4c5" d="M 92.5,241.5 C 92.5,259.833 92.5,278.167 92.5,296.5C 81.4893,300.172 71.156,305.172 61.5,311.5C 61.5,288.167 61.5,264.833 61.5,241.5C 71.8333,241.5 82.1667,241.5 92.5,241.5 Z"/></g>
<g><path style="opacity:1" fill="#fdf7e0" d="M 92.5,241.5 C 140.905,241.172 189.239,241.505 237.5,242.5C 238.109,253.696 239.109,264.863 240.5,276C 240.167,277.5 239.833,279 239.5,280.5C 229.193,286.491 218.193,290.491 206.5,292.5C 202.215,281.937 196.382,272.27 189,263.5C 180.663,256.315 172.996,256.982 166,265.5C 158.6,274.071 153.1,283.738 149.5,294.5C 130.269,289.946 111.269,290.612 92.5,296.5C 92.5,278.167 92.5,259.833 92.5,241.5 Z"/></g>
<g><path style="opacity:1" fill="#dcf2f9" d="M 324.5,240.5 C 311.34,241.331 298.006,241.831 284.5,242C 286.34,256.74 287.673,271.573 288.5,286.5C 284.285,287.215 281.952,289.715 281.5,294C 282.262,299.267 285.262,301.767 290.5,301.5C 295.375,355.126 299.708,408.793 303.5,462.5C 341.167,462.5 378.833,462.5 416.5,462.5C 371.335,463.665 326.002,463.831 280.5,463C 275.6,461.098 272.433,457.598 271,452.5C 264.691,381.838 258.524,311.172 252.5,240.5C 276.5,240.5 300.5,240.5 324.5,240.5 Z"/></g>
<g><path style="opacity:1" fill="#080909" d="M 308.5,267.5 C 315.669,266.513 319.169,269.513 319,276.5C 315.797,281.916 311.464,282.916 306,279.5C 303.523,274.669 304.356,270.669 308.5,267.5 Z"/></g>
<g><path style="opacity:1" fill="#eff8fc" d="M 195.5,306.5 C 195.5,309.5 195.5,312.5 195.5,315.5C 177.52,315.52 168.52,306.52 168.5,288.5C 170.894,283.933 173.894,279.766 177.5,276C 178.167,275.333 178.833,275.333 179.5,276C 187.338,284.843 192.672,295.01 195.5,306.5 Z"/></g>
<g><path style="opacity:1" fill="#0b0c0c" d="M 288.5,286.5 C 290.308,286.491 291.975,286.991 293.5,288C 298.051,293.745 297.051,298.245 290.5,301.5C 285.262,301.767 282.262,299.267 281.5,294C 281.952,289.715 284.285,287.215 288.5,286.5 Z"/></g>
<g><path style="opacity:1" fill="#dbf1f8" d="M 168.5,288.5 C 168.52,306.52 177.52,315.52 195.5,315.5C 195.5,312.5 195.5,309.5 195.5,306.5C 197.866,320.487 191.866,328.154 177.5,329.5C 166.351,327.847 160.684,321.347 160.5,310C 161.109,301.998 163.776,294.831 168.5,288.5 Z"/></g>
<g><path style="opacity:1" fill="#fbf5de" d="M 154.5,367.5 C 151.262,368.748 147.762,369.415 144,369.5C 140.238,369.415 136.738,368.748 133.5,367.5C 132.833,364.833 131.167,363.167 128.5,362.5C 116.678,361.505 104.678,361.172 92.5,361.5C 92.5,345.167 92.5,328.833 92.5,312.5C 109.734,306.116 127.401,304.782 145.5,308.5C 145.327,326.32 153.661,338.154 170.5,344C 196.584,345.591 210.584,333.258 212.5,307C 222.777,304.186 232.777,300.686 242.5,296.5C 244.167,318.503 245.834,340.503 247.5,362.5C 217.498,362.333 187.498,362.5 157.5,363C 155.859,364.129 154.859,365.629 154.5,367.5 Z"/></g>
<g><path style="opacity:1" fill="#fef4c5" d="M 92.5,312.5 C 92.5,328.833 92.5,345.167 92.5,361.5C 82.1667,361.5 71.8333,361.5 61.5,361.5C 61.5,351.167 61.5,340.833 61.5,330.5C 70.7107,322.723 81.044,316.723 92.5,312.5 Z"/></g>
<g><path style="opacity:1" fill="#070707" d="M 376.5,353.5 C 383.669,352.513 387.169,355.513 387,362.5C 382.833,368.759 378.167,369.092 373,363.5C 371.756,359.191 372.923,355.858 376.5,353.5 Z"/></g>
<g><path style="opacity:1" fill="#817d6a" d="M 61.5,330.5 C 61.5,340.833 61.5,351.167 61.5,361.5C 71.8333,361.5 82.1667,361.5 92.5,361.5C 104.678,361.172 116.678,361.505 128.5,362.5C 105.833,362.5 83.1667,362.5 60.5,362.5C 60.1722,351.654 60.5056,340.987 61.5,330.5 Z"/></g>
<g><path style="opacity:1" fill="#f8c9c4" d="M 133.5,367.5 C 136.738,368.748 140.238,369.415 144,369.5C 147.762,369.415 151.262,368.748 154.5,367.5C 153.875,370.97 154.875,373.804 157.5,376C 188.165,376.5 218.832,376.667 249.5,376.5C 249.613,381.518 249.947,386.518 250.5,391.5C 197.833,391.5 145.167,391.5 92.5,391.5C 92.5,386.833 92.5,382.167 92.5,377.5C 104.678,377.828 116.678,377.495 128.5,376.5C 132.473,374.897 134.139,371.897 133.5,367.5 Z"/></g>
<g><path style="opacity:1" fill="#fec0b7" d="M 92.5,377.5 C 92.5,382.167 92.5,386.833 92.5,391.5C 82.1667,391.5 71.8333,391.5 61.5,391.5C 61.5,386.833 61.5,382.167 61.5,377.5C 71.8333,377.5 82.1667,377.5 92.5,377.5 Z"/></g>
<g><path style="opacity:1" fill="#070707" d="M 360.5,378.5 C 367.669,377.513 371.169,380.513 371,387.5C 366.833,393.759 362.167,394.092 357,388.5C 355.756,384.191 356.923,380.858 360.5,378.5 Z"/></g>
<g><path style="opacity:1" fill="#070707" d="M 390.5,378.5 C 397.669,377.513 401.169,380.513 401,387.5C 396.833,393.759 392.167,394.092 387,388.5C 385.756,384.191 386.923,380.858 390.5,378.5 Z"/></g>
<g><path style="opacity:1" fill="#7b625e" d="M 128.5,376.5 C 116.678,377.495 104.678,377.828 92.5,377.5C 82.1667,377.5 71.8333,377.5 61.5,377.5C 61.5,382.167 61.5,386.833 61.5,391.5C 71.8333,391.5 82.1667,391.5 92.5,391.5C 145.167,391.5 197.833,391.5 250.5,391.5C 187.336,392.499 124.002,392.832 60.5,392.5C 60.5,387.167 60.5,381.833 60.5,376.5C 83.1667,376.5 105.833,376.5 128.5,376.5 Z"/></g>
<g><path style="opacity:1" fill="#81898c" d="M 251.5,407.5 C 198.5,407.5 145.5,407.5 92.5,407.5C 82.1667,407.5 71.8333,407.5 61.5,407.5C 61.5,431.167 61.5,454.833 61.5,478.5C 60.5024,454.672 60.1691,430.672 60.5,406.5C 124.336,406.168 188.002,406.501 251.5,407.5 Z"/></g>
<g><path style="opacity:1" fill="#ddf4fb" d="M 92.5,407.5 C 92.1765,414.022 92.5098,420.355 93.5,426.5C 92.1667,429.167 92.1667,431.833 93.5,434.5C 92.5028,454.993 92.1695,475.66 92.5,496.5C 76.7,499.446 66.3667,493.446 61.5,478.5C 61.5,454.833 61.5,431.167 61.5,407.5C 71.8333,407.5 82.1667,407.5 92.5,407.5 Z"/></g>
<g><path style="opacity:1" fill="#f1fafe" d="M 92.5,407.5 C 145.5,407.5 198.5,407.5 251.5,407.5C 255.381,436.9 257.714,466.566 258.5,496.5C 203.167,496.5 147.833,496.5 92.5,496.5C 92.1695,475.66 92.5028,454.993 93.5,434.5C 100.316,439.6 104.982,438.1 107.5,430C 105.996,424.18 102.329,422.18 96.5,424C 95.0577,424.377 94.0577,425.21 93.5,426.5C 92.5098,420.355 92.1765,414.022 92.5,407.5 Z"/></g>
<g><path style="opacity:1" fill="#070707" d="M 93.5,434.5 C 92.1667,431.833 92.1667,429.167 93.5,426.5C 94.0577,425.21 95.0577,424.377 96.5,424C 102.329,422.18 105.996,424.18 107.5,430C 104.982,438.1 100.316,439.6 93.5,434.5 Z"/></g>
<g><path style="opacity:1" fill="#0c0d0d" d="M 228.5,447.5 C 234.629,446.555 238.296,449.055 239.5,455C 237.127,462.875 232.627,464.375 226,459.5C 223.511,454.757 224.345,450.757 228.5,447.5 Z"/></g>
<g><path style="opacity:1" fill="#080909" d="M 80.5,448.5 C 87.6686,447.513 91.1686,450.513 91,457.5C 87.7973,462.916 83.464,463.916 78,460.5C 75.5226,455.669 76.356,451.669 80.5,448.5 Z"/></g>
<g><path style="opacity:1" fill="#070707" d="M 110.5,448.5 C 117.669,447.513 121.169,450.513 121,457.5C 116.833,463.759 112.167,464.092 107,458.5C 105.756,454.191 106.923,450.858 110.5,448.5 Z"/></g>
<g><path style="opacity:1" fill="#0b0c0c" d="M 206.5,466.5 C 213.657,466.155 216.824,469.488 216,476.5C 213.774,480.861 210.274,482.361 205.5,481C 200.003,475.683 200.336,470.85 206.5,466.5 Z"/></g>
<g><path style="opacity:1" fill="#98e4fa" d="M 305.5,478.5 C 306.241,484.471 306.575,490.471 306.5,496.5C 295.5,496.5 284.5,496.5 273.5,496.5C 273.334,489.825 273.5,483.158 274,476.5C 275.399,477.227 276.899,477.727 278.5,478C 287.494,478.5 296.494,478.666 305.5,478.5 Z"/></g>
<g><path style="opacity:1" fill="#c7eefd" d="M 306.5,496.5 C 306.575,490.471 306.241,484.471 305.5,478.5C 342.502,478.667 379.502,478.5 416.5,478C 418.813,477.338 421.146,476.838 423.5,476.5C 423.473,483.186 423.139,489.852 422.5,496.5C 383.833,496.5 345.167,496.5 306.5,496.5 Z"/></g>
</svg>
