<?xml version="1.0" encoding="UTF-8"?>
<!DOCTYPE svg PUBLIC "-//W3C//DTD SVG 1.1//EN" "http://www.w3.org/Graphics/SVG/1.1/DTD/svg11.dtd">
<svg xmlns="http://www.w3.org/2000/svg" version="1.1" width="512px" height="512px" style="shape-rendering:geometricPrecision; text-rendering:geometricPrecision; image-rendering:optimizeQuality; fill-rule:evenodd; clip-rule:evenodd" xmlns:xlink="http://www.w3.org/1999/xlink">
<g><path style="opacity:0.973" fill="#020101" d="M 511.5,194.5 C 511.5,206.5 511.5,218.5 511.5,230.5C 504.796,285.018 475.13,320.518 422.5,337C 406.104,341.344 389.437,343.844 372.5,344.5C 369.504,360.156 363.004,374.156 353,386.5C 325.081,418.888 289.915,439.055 247.5,447C 188.191,458.461 131.191,451.461 76.5,426C 52.3307,413.83 32.4974,396.663 17,374.5C 8.26723,359.789 2.4339,344.123 -0.5,327.5C -0.5,317.167 -0.5,306.833 -0.5,296.5C 6.46964,257.06 24.1363,223.227 52.5,195C 78.6165,172.618 108.95,160.784 143.5,159.5C 145.946,145.274 152.113,132.94 162,122.5C 176.742,108.538 193.575,97.7046 212.5,90C 236.831,80.6669 261.831,73.6669 287.5,69C 317.243,63.0356 347.243,59.7023 377.5,59C 442.94,66.7839 485.773,101.951 506,164.5C 508.443,174.537 510.276,184.537 511.5,194.5 Z"/></g>
<g><path style="opacity:1" fill="#f4fdf9" d="M 349.5,79.5 C 402.032,75.5761 443.198,95.2428 473,138.5C 491.144,171.915 496.144,207.249 488,244.5C 479.518,278.315 459.018,301.481 426.5,314C 409.181,320.585 391.181,323.752 372.5,323.5C 367.259,301.017 356.759,281.35 341,264.5C 322.949,246.773 303.449,230.939 282.5,217C 272.549,215.284 268.049,219.451 269,229.5C 269.915,230.328 270.581,231.328 271,232.5C 292.721,246.539 312.388,263.206 330,282.5C 340.724,294.277 348.057,307.943 352,323.5C 353.322,333.761 352.322,343.761 349,353.5C 337.681,375.821 321.181,393.321 299.5,406C 256.017,428.738 209.683,436.738 160.5,430C 121.891,425.362 87.2247,411.362 56.5,388C 25.5063,361.689 14.0063,328.522 22,288.5C 30.175,253.719 48.0083,225.219 75.5,203C 118.78,174.151 163.447,171.818 209.5,196C 221.521,198.607 226.188,193.94 223.5,182C 222.201,180.674 220.868,179.34 219.5,178C 201.908,169.033 183.575,162.7 164.5,159C 169.04,146.776 176.373,136.443 186.5,128C 205.545,115.085 226.211,105.418 248.5,99C 281.888,90.3278 315.554,83.8278 349.5,79.5 Z"/></g>
<g><path style="opacity:1" fill="#040301" d="M 351.5,99.5 C 402.775,96.0423 439.942,117.042 463,162.5C 465.614,170.008 467.614,177.674 469,185.5C 471.019,196.48 466.519,201.313 455.5,200C 454.333,198.833 453.167,197.667 452,196.5C 444.958,155.129 421.124,129.629 380.5,120C 369.761,119.93 359.094,119.263 348.5,118C 342.589,110.694 343.589,104.527 351.5,99.5 Z"/></g>
<g><path style="opacity:1" fill="#060402" d="M 307.5,165.5 C 317.474,164.308 321.974,168.642 321,178.5C 317.629,183.85 312.796,185.683 306.5,184C 299.612,177.397 299.946,171.23 307.5,165.5 Z"/></g>
<g><path style="opacity:1" fill="#0b0805" d="M 238.5,192.5 C 249.137,192.474 252.971,197.474 250,207.5C 243.185,214.718 237.185,214.051 232,205.5C 231.348,202.406 231.682,199.406 233,196.5C 235.015,195.303 236.849,193.97 238.5,192.5 Z"/></g>
<g><path style="opacity:1" fill="#040302" d="M 134.5,199.5 C 155.473,197.435 175.473,200.935 194.5,210C 197.927,211.796 201.094,213.963 204,216.5C 206.214,226.948 202.047,231.782 191.5,231C 160.006,214.719 129.339,216.053 99.5,235C 94.0319,239.467 88.8653,244.3 84,249.5C 80.5324,254.934 76.699,260.101 72.5,265C 60.1407,267.638 55.6407,262.805 59,250.5C 77.0667,222.891 102.233,205.891 134.5,199.5 Z"/></g>
<g><path style="opacity:1" fill="#0e0c07" d="M 401.5,215.5 C 411.376,215.206 415.876,219.873 415,229.5C 411.417,234.474 406.583,236.308 400.5,235C 393.531,227.945 393.864,221.445 401.5,215.5 Z"/></g>
<g><path style="opacity:1" fill="#070503" d="M 207.5,288.5 C 217.009,287.841 221.176,292.174 220,301.5C 217.497,307.461 212.997,309.628 206.5,308C 198.321,300.95 198.654,294.45 207.5,288.5 Z"/></g>
<g><path style="opacity:1" fill="#0a0804" d="M 100.5,299.5 C 111.866,299.257 116.033,304.59 113,315.5C 105.844,321.478 99.8443,320.478 95,312.5C 94.1138,306.946 95.9471,302.613 100.5,299.5 Z"/></g>
<g><path style="opacity:1" fill="#0e0b06" d="M 268.5,352.5 C 279.063,350.908 283.897,355.241 283,365.5C 280.512,371.736 276.012,373.736 269.5,371.5C 261.865,365.601 261.532,359.267 268.5,352.5 Z"/></g>
<g><path style="opacity:1" fill="#070503" d="M 161.5,367.5 C 170.782,367.18 174.948,371.514 174,380.5C 171.818,386.241 167.651,388.408 161.5,387C 154.717,383.599 152.884,378.433 156,371.5C 157.812,370.023 159.645,368.69 161.5,367.5 Z"/></g>
</svg>
