<?xml version="1.0" encoding="UTF-8"?>
<!DOCTYPE svg PUBLIC "-//W3C//DTD SVG 1.1//EN" "http://www.w3.org/Graphics/SVG/1.1/DTD/svg11.dtd">
<svg xmlns="http://www.w3.org/2000/svg" version="1.1" width="512px" height="512px" style="shape-rendering:geometricPrecision; text-rendering:geometricPrecision; image-rendering:optimizeQuality; fill-rule:evenodd; clip-rule:evenodd" xmlns:xlink="http://www.w3.org/1999/xlink">
<g><path style="opacity:0.981" fill="#401033" d="M 217.5,22.5 C 242.169,22.3334 266.836,22.5 291.5,23C 296.84,24.4101 300.673,27.5768 303,32.5C 304.302,62.7854 304.969,93.1187 305,123.5C 306.408,147.947 310.408,171.947 317,195.5C 318.08,197.996 319.414,200.33 321,202.5C 328.636,211.137 336.636,219.47 345,227.5C 352.997,237.833 357.997,249.5 360,262.5C 360.667,327.833 360.667,393.167 360,458.5C 357.175,469.325 350.342,476.158 339.5,479C 282.833,479.667 226.167,479.667 169.5,479C 159.098,476.265 152.264,469.765 149,459.5C 148.333,393.833 148.333,328.167 149,262.5C 150.935,250.027 155.601,238.693 163,228.5C 172.734,219.435 181.734,209.769 190,199.5C 191.725,196.326 193.058,192.993 194,189.5C 199.285,167.121 202.619,144.455 204,121.5C 204.333,93.1667 204.667,64.8333 205,36.5C 206.236,29.1029 210.403,24.4363 217.5,22.5 Z"/></g>
<g><path style="opacity:1" fill="#f2f6f5" d="M 219.5,33.5 C 236.503,33.3334 253.503,33.5001 270.5,34C 271.471,39.0717 271.805,44.2384 271.5,49.5C 252.833,49.5 234.167,49.5 215.5,49.5C 215.5,45.5 215.5,41.5 215.5,37.5C 215.833,35.1667 217.167,33.8333 219.5,33.5 Z"/></g>
<g><path style="opacity:1" fill="#d6c5ca" d="M 219.5,33.5 C 242.663,32.3369 265.996,32.1703 289.5,33C 290.931,33.4652 292.097,34.2986 293,35.5C 293.499,40.1548 293.666,44.8215 293.5,49.5C 286.167,49.5 278.833,49.5 271.5,49.5C 271.805,44.2384 271.471,39.0717 270.5,34C 253.503,33.5001 236.503,33.3334 219.5,33.5 Z"/></g>
<g><path style="opacity:1" fill="#7c5d74" d="M 215.5,37.5 C 215.5,41.5 215.5,45.5 215.5,49.5C 234.167,49.5 252.833,49.5 271.5,49.5C 278.833,49.5 286.167,49.5 293.5,49.5C 267.339,50.4978 241.005,50.8312 214.5,50.5C 214.182,45.9677 214.515,41.6344 215.5,37.5 Z"/></g>
<g><path style="opacity:1" fill="#d6c6ca" d="M 215.5,59.5 C 215.5,65.5 215.5,71.5 215.5,77.5C 234.167,77.5 252.833,77.5 271.5,77.5C 271.5,74.1667 271.5,70.8333 271.5,67.5C 277.329,68.0002 279.663,65.3335 278.5,59.5C 283.5,59.5 288.5,59.5 293.5,59.5C 293.5,65.8333 293.5,72.1667 293.5,78.5C 267.167,78.5 240.833,78.5 214.5,78.5C 214.177,71.9779 214.51,65.6446 215.5,59.5 Z"/></g>
<g><path style="opacity:1" fill="#f1f5f4" d="M 215.5,59.5 C 221.5,59.5 227.5,59.5 233.5,59.5C 233.055,62.3646 233.722,64.8646 235.5,67C 247.495,67.4999 259.495,67.6665 271.5,67.5C 271.5,70.8333 271.5,74.1667 271.5,77.5C 252.833,77.5 234.167,77.5 215.5,77.5C 215.5,71.5 215.5,65.5 215.5,59.5 Z"/></g>
<g><path style="opacity:1" fill="#931c33" d="M 221.5,88.5 C 219.5,88.5 217.5,88.5 215.5,88.5C 215.5,94.1667 215.5,99.8333 215.5,105.5C 214.51,99.69 214.177,93.69 214.5,87.5C 217.059,87.1984 219.393,87.5318 221.5,88.5 Z"/></g>
<g><path style="opacity:1" fill="#e93038" d="M 221.5,88.5 C 221.5,94.1667 221.5,99.8333 221.5,105.5C 219.5,105.5 217.5,105.5 215.5,105.5C 215.5,99.8333 215.5,94.1667 215.5,88.5C 217.5,88.5 219.5,88.5 221.5,88.5 Z"/></g>
<g><path style="opacity:1" fill="#fefffe" d="M 221.5,88.5 C 225.167,88.5 228.833,88.5 232.5,88.5C 232.5,94.1667 232.5,99.8333 232.5,105.5C 228.833,105.5 225.167,105.5 221.5,105.5C 221.5,99.8333 221.5,94.1667 221.5,88.5 Z"/></g>
<g><path style="opacity:1" fill="#a92335" d="M 274.5,105.5 C 274.5,99.8333 274.5,94.1667 274.5,88.5C 260.833,88.5 247.167,88.5 233.5,88.5C 233.5,94.1667 233.5,99.8333 233.5,105.5C 233.167,105.5 232.833,105.5 232.5,105.5C 232.5,99.8333 232.5,94.1667 232.5,88.5C 252.66,87.5028 272.993,87.1695 293.5,87.5C 293.5,93.5 293.5,99.5 293.5,105.5C 287.167,105.5 280.833,105.5 274.5,105.5 Z"/></g>
<g><path style="opacity:1" fill="#e82832" d="M 274.5,105.5 C 260.833,105.5 247.167,105.5 233.5,105.5C 233.5,99.8333 233.5,94.1667 233.5,88.5C 247.167,88.5 260.833,88.5 274.5,88.5C 274.5,94.1667 274.5,99.8333 274.5,105.5 Z"/></g>
<g><path style="opacity:1" fill="#92fbc6" d="M 224.5,115.5 C 224.5,127.5 224.5,139.5 224.5,151.5C 220.167,151.5 215.833,151.5 211.5,151.5C 212.832,139.529 213.832,127.529 214.5,115.5C 217.833,115.5 221.167,115.5 224.5,115.5 Z"/></g>
<g><path style="opacity:1" fill="#10c16c" d="M 224.5,115.5 C 241.167,115.5 257.833,115.5 274.5,115.5C 274.5,127.5 274.5,139.5 274.5,151.5C 257.833,151.5 241.167,151.5 224.5,151.5C 224.5,139.5 224.5,127.5 224.5,115.5 Z"/></g>
<g><path style="opacity:1" fill="#098244" d="M 274.5,115.5 C 281.167,115.5 287.833,115.5 294.5,115.5C 295.311,127.516 296.311,139.516 297.5,151.5C 289.833,151.5 282.167,151.5 274.5,151.5C 274.5,139.5 274.5,127.5 274.5,115.5 Z"/></g>
<g><path style="opacity:1" fill="#e82933" d="M 221.5,161.5 C 221.672,175.474 218.839,188.808 213,201.5C 205.053,213.114 196.719,224.448 188,235.5C 186.865,240.2 188.699,242.866 193.5,243.5C 195.912,243.594 197.745,242.594 199,240.5C 207.387,229.78 215.387,218.78 223,207.5C 230.56,193.088 233.726,177.754 232.5,161.5C 248.167,161.5 263.833,161.5 279.5,161.5C 281.097,175.222 284.264,188.556 289,201.5C 291.95,206.118 295.284,210.452 299,214.5C 315.381,226.556 325.714,242.556 330,262.5C 330.828,278.339 330.661,294.005 329.5,309.5C 318.981,281.725 298.981,265.558 269.5,261C 239.247,255.844 213.414,264.01 192,285.5C 183.061,296.631 177.394,309.298 175,323.5C 174.333,360.833 174.333,398.167 175,435.5C 176.757,443.496 181.591,448.662 189.5,451C 232.5,451.667 275.5,451.667 318.5,451C 319.745,450.209 321.078,449.709 322.5,449.5C 319.525,452.661 315.858,454.828 311.5,456C 260.834,456.5 210.168,456.667 159.5,456.5C 158.335,392.001 158.168,327.335 159,262.5C 161.018,253.131 164.685,244.464 170,236.5C 176,229.167 182.667,222.5 190,216.5C 196.327,209.497 200.994,201.497 204,192.5C 206.029,182.19 207.862,171.856 209.5,161.5C 213.5,161.5 217.5,161.5 221.5,161.5 Z"/></g>
<g><path style="opacity:1" fill="#fefafa" d="M 221.5,161.5 C 225.167,161.5 228.833,161.5 232.5,161.5C 233.726,177.754 230.56,193.088 223,207.5C 215.387,218.78 207.387,229.78 199,240.5C 197.745,242.594 195.912,243.594 193.5,243.5C 188.699,242.866 186.865,240.2 188,235.5C 196.719,224.448 205.053,213.114 213,201.5C 218.839,188.808 221.672,175.474 221.5,161.5 Z"/></g>
<g><path style="opacity:1" fill="#ac1e32" d="M 279.5,161.5 C 286.167,161.5 292.833,161.5 299.5,161.5C 301.039,174.029 303.539,186.362 307,198.5C 313.429,211.268 322.429,221.935 334,230.5C 342.262,240.025 347.595,251.025 350,263.5C 350.986,328.878 350.653,394.211 349,459.5C 346.249,464.59 342.083,467.757 336.5,469C 281.167,469.667 225.833,469.667 170.5,469C 164.819,466.493 161.152,462.326 159.5,456.5C 210.168,456.667 260.834,456.5 311.5,456C 315.858,454.828 319.525,452.661 322.5,449.5C 327.875,446.786 331.375,442.453 333,436.5C 333.667,398.167 333.667,359.833 333,321.5C 332.329,317.324 331.162,313.324 329.5,309.5C 330.661,294.005 330.828,278.339 330,262.5C 325.714,242.556 315.381,226.556 299,214.5C 295.284,210.452 291.95,206.118 289,201.5C 284.264,188.556 281.097,175.222 279.5,161.5 Z"/></g>
<g><path style="opacity:1" fill="#fff7f7" d="M 179.5,251.5 C 184.42,250.784 187.42,252.784 188.5,257.5C 185.247,264.844 183.08,272.511 182,280.5C 179.451,284.925 176.118,285.592 172,282.5C 171.125,281.127 170.625,279.627 170.5,278C 171.598,268.403 174.598,259.57 179.5,251.5 Z"/></g>
<g><path style="opacity:1" fill="#411033" d="M 329.5,309.5 C 331.162,313.324 332.329,317.324 333,321.5C 333.667,359.833 333.667,398.167 333,436.5C 331.375,442.453 327.875,446.786 322.5,449.5C 321.078,449.709 319.745,450.209 318.5,451C 275.5,451.667 232.5,451.667 189.5,451C 181.591,448.662 176.757,443.496 175,435.5C 174.333,398.167 174.333,360.833 175,323.5C 177.394,309.298 183.061,296.631 192,285.5C 213.414,264.01 239.247,255.844 269.5,261C 298.981,265.558 318.981,281.725 329.5,309.5 Z"/></g>
<g><path style="opacity:1" fill="#f2f5f4" d="M 288.5,277.5 C 288.002,292.153 285.669,306.486 281.5,320.5C 280.188,322.479 278.521,324.145 276.5,325.5C 243.102,312.798 217.935,322.131 201,353.5C 194.281,371.527 195.781,388.86 205.5,405.5C 198.888,408.93 191.888,411.597 184.5,413.5C 184.333,383.831 184.5,354.165 185,324.5C 190.082,296.752 206.249,279.252 233.5,272C 249.637,269.595 265.637,270.262 281.5,274C 284.174,274.67 286.507,275.837 288.5,277.5 Z"/></g>
<g><path style="opacity:1" fill="#dbc9cd" d="M 288.5,277.5 C 305.779,285.998 316.946,299.664 322,318.5C 323.13,338.798 323.63,359.131 323.5,379.5C 323.655,398.587 323.155,417.587 322,436.5C 320.363,438.81 318.196,440.31 315.5,441C 274.167,441.667 232.833,441.667 191.5,441C 188.667,439.5 186.5,437.333 185,434.5C 184.5,427.508 184.334,420.508 184.5,413.5C 191.888,411.597 198.888,408.93 205.5,405.5C 223.078,428.727 245.745,435.56 273.5,426C 302.383,410.724 312.549,387.224 304,355.5C 300.076,345.584 293.909,337.417 285.5,331C 291.672,323.487 299.005,317.487 307.5,313C 310.995,306.479 308.995,303.813 301.5,305C 294.386,309.617 287.719,314.784 281.5,320.5C 285.669,306.486 288.002,292.153 288.5,277.5 Z"/></g>
<g><path style="opacity:1" fill="#421235" d="M 205.5,405.5 C 195.781,388.86 194.281,371.527 201,353.5C 217.935,322.131 243.102,312.798 276.5,325.5C 278.521,324.145 280.188,322.479 281.5,320.5C 287.719,314.784 294.386,309.617 301.5,305C 308.995,303.813 310.995,306.479 307.5,313C 299.005,317.487 291.672,323.487 285.5,331C 293.909,337.417 300.076,345.584 304,355.5C 312.549,387.224 302.383,410.724 273.5,426C 245.745,435.56 223.078,428.727 205.5,405.5 Z"/></g>
<g><path style="opacity:1" fill="#19b267" d="M 273.5,335.5 C 272.674,338.485 271.341,341.151 269.5,343.5C 269.662,341.473 269.495,339.473 269,337.5C 268.25,336.874 267.416,336.374 266.5,336C 261.167,335.667 255.833,335.333 250.5,335C 246.873,333.779 246.873,332.112 250.5,330C 258.943,328.985 266.609,330.818 273.5,335.5 Z"/></g>
<g><path style="opacity:1" fill="#e72833" d="M 257.5,366.5 C 245.933,381.436 231.6,392.769 214.5,400.5C 201.863,378.971 204.197,359.137 221.5,341C 225.332,338.25 229.332,335.75 233.5,333.5C 233.833,333.667 234.167,333.833 234.5,334C 231.941,337.075 231.941,340.075 234.5,343C 242.152,343.931 249.819,344.764 257.5,345.5C 255.164,350.838 252.83,356.172 250.5,361.5C 251.444,365.11 253.777,366.777 257.5,366.5 Z"/></g>
<g><path style="opacity:1" fill="#0e7f45" d="M 273.5,335.5 C 284.424,340.816 291.758,349.316 295.5,361C 294.022,362.478 292.522,363.978 291,365.5C 290.667,365.167 290.333,364.833 290,364.5C 288.661,358.425 286.827,352.592 284.5,347C 282.833,346.333 281.167,346.333 279.5,347C 274.526,349.102 269.526,350.769 264.5,352C 266.067,349.021 267.734,346.188 269.5,343.5C 271.341,341.151 272.674,338.485 273.5,335.5 Z"/></g>
<g><path style="opacity:1" fill="#ac1e32" d="M 214.5,400.5 C 231.6,392.769 245.933,381.436 257.5,366.5C 263.698,363.371 270.198,360.704 277,358.5C 277.772,358.645 278.439,358.978 279,359.5C 279.706,366.727 281.54,373.56 284.5,380C 286.5,380.667 288.5,380.667 290.5,380C 292.667,377.833 294.833,375.667 297,373.5C 296.855,398.324 284.688,413.824 260.5,420C 241.018,422.906 225.685,416.406 214.5,400.5 Z"/></g>
</svg>
