<?xml version="1.0" encoding="UTF-8"?>
<svg version="1.1" xmlns="http://www.w3.org/2000/svg" width="512" height="512">
<path d="M0 0 C2.26575719 1.18120295 3.7903065 2.49958507 5.60221446 4.30691433 C6.32489144 5.02053468 7.04756843 5.73415502 7.79214472 6.46940023 C8.97215745 7.65740485 8.97215745 7.65740485 10.17600882 8.86940956 C11.01726032 9.70456996 11.85851182 10.53973035 12.72525579 11.40019864 C15.06098963 13.72214068 17.38979294 16.05066148 19.71590328 18.3822211 C22.22515507 20.89413854 24.74297609 23.39744126 27.25967276 25.90189552 C32.18901665 30.81016539 37.11005396 35.72668293 42.02797995 40.64639059 C46.02349218 44.64320917 50.0215465 48.63746724 54.02142775 52.62991333 C55.17243558 53.77882204 56.32344266 54.92773151 57.47444898 56.07664174 C58.04728054 56.64842977 58.6201121 57.22021781 59.2103022 57.80933275 C70.04767391 68.62779502 80.87504407 79.45622497 91.69955399 90.28755387 C101.61203693 100.20561606 111.53766711 110.11040199 121.46947233 120.00911174 C131.6593476 130.16529367 141.83995407 140.33068249 152.01068288 150.50603932 C157.72420459 156.22180972 163.44144381 161.93374325 169.16849577 167.63595963 C174.04256506 172.4890723 178.90791588 177.3507186 183.76203022 182.22379366 C186.2406762 184.71163141 188.72324332 187.19520288 191.21674788 189.66815567 C193.91481946 192.34423342 196.59342432 195.03925509 199.2702471 197.73659706 C200.46699025 198.91456343 200.46699025 198.91456343 201.68791002 200.11632711 C202.39754827 200.8377707 203.10718652 201.55921428 203.83832896 202.3025198 C204.45928173 202.92320019 205.0802345 203.54388057 205.72000402 204.18336946 C206.90566885 205.99347878 206.90566885 205.99347878 206.76807439 208.03039545 C205.82023645 210.18794754 204.83980336 211.43222997 203.17452013 213.09377098 C202.59080203 213.68346224 202.00708392 214.27315349 201.40567738 214.88071418 C200.75880185 215.51885118 200.11192633 216.15698818 199.44544852 216.81446266 C198.76264085 217.49983361 198.07983318 218.18520455 197.37633437 218.89134431 C195.07865534 221.19397826 192.77039226 223.48570246 190.46206534 225.77765846 C188.8159744 227.4229035 187.17054315 229.0688088 185.52572501 230.71532631 C181.05121591 235.19069823 176.56749917 239.65674257 172.08211648 244.12121296 C167.87312473 248.31338128 163.67102506 252.51243693 159.46889365 256.71148017 C151.14516284 265.02864403 142.81475366 273.33908543 134.48013175 281.64533424 C126.38352069 289.71441104 118.2900644 297.78663064 110.20083487 305.86310768 C109.70226933 306.36088505 109.20370379 306.85866242 108.69003021 307.37152395 C106.18890939 309.86872968 103.6878505 312.36599743 101.18682241 314.86329603 C80.43603373 335.58298122 59.67428568 356.29166392 38.90566885 376.99347878 C39.65073943 376.99586713 40.39581 376.99825548 41.16345847 377.00071621 C59.30882571 377.05990191 77.45405735 377.13547485 95.59928 377.22919369 C104.37424895 377.27412234 113.14917758 377.31354376 121.92422354 377.33991432 C129.57427531 377.36291815 137.22419917 377.39634278 144.87414944 377.44218034 C148.92319336 377.46608046 152.97211086 377.48483023 157.02122366 377.49109268 C160.83636241 377.49715813 164.65117781 377.51721027 168.46619666 377.54775429 C169.8625132 377.55651121 171.25887203 377.56026197 172.65521491 377.55848694 C180.96418012 377.55126278 188.04024542 377.61568481 195.07754385 382.50129128 C200.8470616 388.41361887 204.06512207 394.17981949 204.34316885 402.55597878 C204.01383621 410.17312424 201.81913319 415.82004002 196.64785635 421.45441628 C190.08111523 427.25552839 182.60363266 428.13614863 174.1336962 428.16706276 C173.36725287 428.17374977 172.60080954 428.18043678 171.81114066 428.18732643 C170.15352178 428.20133214 168.49588413 428.21324028 166.83823645 428.22327423 C164.21575641 428.23973478 161.59341676 428.2629714 158.97100699 428.28817177 C151.51733287 428.35883128 144.06360407 428.41919765 136.60977042 428.47028542 C132.04574202 428.50204024 127.48188022 428.54329674 122.91798651 428.5904808 C121.17885824 428.60651008 119.43969169 428.61882737 117.70051062 428.627388 C115.27311838 428.63951535 112.84612001 428.66365077 110.41885245 428.69050026 C109.69878516 428.6910894 108.97871787 428.69167854 108.23683035 428.69228554 C104.57548775 428.74606611 103.03887406 428.90467531 99.90566885 430.99347878 C98.95503491 434.63757557 98.66654341 437.41378304 99.90566885 440.99347878 C103.60222901 442.15383138 107.12316009 442.13504692 110.9798876 442.16926003 C112.38419922 442.19247324 113.78849612 442.21659117 115.19277823 442.24152565 C117.38680555 442.27646784 119.58029502 442.30589953 121.77456534 442.31940651 C131.47269003 442.39064372 139.72132589 442.64021369 147.4642626 449.14191628 C153.4979594 456.29203514 155.46767155 461.47165554 155.28066885 470.89191628 C154.48260311 477.49258501 151.45694614 482.87592084 146.65566885 487.43097878 C140.07482769 492.32322206 132.91349533 493.44568124 124.89616263 493.27108192 C123.60510852 493.26200189 123.60510852 493.26200189 122.28797251 493.25273842 C119.42786511 493.2293993 116.56849878 493.1846227 113.70864737 493.14020729 C111.64789669 493.11973689 109.58712957 493.10086832 107.52635062 493.08347511 C103.09837681 493.04445722 98.67057816 492.99760539 94.24273741 492.94569016 C87.22632026 492.86700191 80.2100258 492.82753749 73.19325125 492.79741859 C71.41294299 492.78953932 71.41294299 492.78953932 69.5966689 492.78150088 C67.17009457 492.77085812 64.74351979 492.76031592 62.3169446 492.74987209 C45.99227953 492.67824395 29.6689091 492.58214513 13.34536612 492.37311745 C2.31942663 492.2322216 -8.70491893 492.15595153 -19.73178476 492.15286392 C-25.5578922 492.14868347 -31.37969216 492.11241652 -37.20474184 491.99683762 C-64.14757208 490.07570064 -64.14757208 490.07570064 -87.57001722 500.61280918 C-90.31276097 503.71587256 -92.68528122 506.89129268 -94.74669111 510.48435307 C-95.19141232 510.98236455 -95.63613353 511.48037603 -96.09433115 511.99347878 C-99.6166484 511.616024 -101.33456312 510.13014972 -103.79087675 507.68004322 C-104.51355373 506.96642287 -105.23623072 506.25280253 -105.98080701 505.51755732 C-106.76748216 504.72555424 -107.55415732 503.93355116 -108.36467111 503.11754799 C-109.20592261 502.28238759 -110.04717411 501.4472272 -110.91391808 500.58675891 C-113.24965192 498.26481687 -115.57845523 495.93629607 -117.90456557 493.60473645 C-120.41381736 491.09281901 -122.93163838 488.58951629 -125.44833505 486.08506203 C-130.37767894 481.17679216 -135.29871625 476.26027462 -140.21664224 471.34056696 C-144.21215448 467.34374838 -148.21020879 463.34949031 -152.21009004 459.35704422 C-153.36109787 458.20813551 -154.51210495 457.05922604 -155.66311127 455.91031581 C-156.52235861 455.05263376 -156.52235861 455.05263376 -157.39896449 454.1776248 C-168.2363362 443.35916253 -179.06370636 432.53073258 -189.88821628 421.69940368 C-199.80069923 411.78134149 -209.7263294 401.87655556 -219.65813462 391.97784581 C-229.84800989 381.82166388 -240.02861637 371.65627506 -250.19934517 361.48091823 C-255.91286688 355.76514783 -261.6301061 350.0532143 -267.35715806 344.35099792 C-272.23122735 339.49788525 -277.09657817 334.63623895 -281.95069251 329.76316389 C-284.42933849 327.27532614 -286.91190561 324.79175467 -289.40541017 322.31880188 C-292.10348175 319.64272413 -294.78208661 316.94770246 -297.45890939 314.25036049 C-298.25673816 313.46504957 -299.05456692 312.67973866 -299.87657231 311.87063044 C-300.58621056 311.14918685 -301.29584881 310.42774327 -302.02699125 309.68443775 C-302.64794402 309.06375736 -303.26889679 308.44307698 -303.90866631 307.80358809 C-305.09433115 305.99347878 -305.09433115 305.99347878 -305.08780992 304.08850825 C-303.65702857 301.07130327 -301.62479561 299.14488425 -299.26601064 296.78204823 C-298.75616633 296.2672444 -298.24632202 295.75244057 -297.72102788 295.22203663 C-295.99972314 293.48771204 -294.26786525 291.76432296 -292.53590524 290.04064369 C-291.29156845 288.79142106 -290.04788406 287.5415483 -288.80479926 286.29107982 C-285.37828187 282.84810142 -281.94239516 279.41460665 -278.50491881 275.98257434 C-274.80281115 272.28312924 -271.10930498 268.57511365 -267.4146589 264.86821938 C-260.17224155 257.60471438 -252.92155302 250.3495205 -245.66769465 243.09744301 C-239.77490089 237.20595498 -233.88466252 231.31192406 -227.99624193 225.41606522 C-226.30248588 223.72021006 -224.60872907 222.02435566 -222.91497153 220.328502 C-222.0720512 219.48453814 -221.22913087 218.64057429 -220.3606675 217.77103577 C-204.40750268 201.79895578 -188.44435817 185.83687844 -172.47832546 169.87766305 C-157.85587402 155.26079043 -143.24667628 140.63075165 -128.6435736 125.99455073 C-113.6644978 110.98178707 -98.67621095 95.97827645 -83.67796725 80.9846614 C-75.25147349 72.56041699 -66.82880283 64.13243041 -58.41585481 55.69465637 C-51.25525673 48.51310868 -44.08610577 41.3402392 -36.90554651 34.17864766 C-33.23902135 30.52131876 -29.57671845 26.86000169 -25.92506921 23.18781471 C-22.58688496 19.83106307 -19.23753115 16.48590915 -15.87861506 13.14990637 C-14.66088021 11.93639346 -13.44741783 10.71857614 -12.23854222 9.4962376 C-10.60361322 7.84433693 -8.95428463 6.20836331 -7.30017507 4.57570362 C-6.38483171 3.66008787 -5.46948834 2.74447213 -4.5264073 1.80111045 C-2.09433115 -0.00652122 -2.09433115 -0.00652122 0 0 Z " fill="#020101" transform="translate(305.09433114528656,0.0065212249755859375)"/>
<path d="M0 0 C3.85027991 1.78200687 6.2799142 4.07675405 9.25 7.125 C10.14203125 8.03507813 11.0340625 8.94515625 11.953125 9.8828125 C12.96632813 10.93082031 12.96632813 10.93082031 14 12 C12.42780802 15.91189274 9.73889499 18.43800205 6.73828125 21.28125 C5.69164143 22.29774906 4.64543 23.31468938 3.59960938 24.33203125 C1.9518575 25.92383104 0.30052307 27.51140476 -1.35864258 29.09130859 C-2.9624277 30.62276569 -4.55032074 32.1693175 -6.13671875 33.71875 C-6.63870285 34.18865356 -7.14068695 34.65855713 -7.65788269 35.1427002 C-9.212874 36.61708669 -9.212874 36.61708669 -11 39 C-10.83476407 42.54082576 -9.12150221 44.33680182 -6.6875 46.8125 C-6.09324219 47.43769531 -5.49898438 48.06289062 -4.88671875 48.70703125 C-3.13777844 50.18484444 -3.13777844 50.18484444 -1.23461914 49.91503906 C2.05864851 48.56650119 4.20494074 46.16280865 6.640625 43.65234375 C7.16767029 43.12105362 7.69471558 42.58976349 8.23773193 42.04237366 C9.91567187 40.34767175 11.58286728 38.64282783 13.25 36.9375 C14.38732745 35.78512255 15.52534066 34.63342148 16.6640625 33.48242188 C19.45071992 30.66272816 22.22778792 27.83389412 25 25 C28.54023647 26.67132419 30.99347254 28.63339333 33.8125 31.375 C34.62332031 32.14585937 35.43414062 32.91671875 36.26953125 33.7109375 C38 36 38 36 37.88649827 37.84077805 C36.6588306 40.83097787 34.82992845 42.54892038 32.54649639 44.83661366 C32.07717305 45.31089651 31.60784971 45.78517937 31.12430444 46.27383444 C29.5408321 47.87031898 27.94683234 49.45586007 26.35270691 51.04170227 C25.20736539 52.19193 24.06267627 53.34280766 22.91858655 54.49428052 C19.76570315 57.6636203 16.6034605 60.8234766 13.43961942 63.98187268 C10.03199214 67.38683684 6.63296875 70.80037126 3.23280334 74.21278381 C-3.4320924 80.89876472 -10.10525504 87.57643533 -16.78159121 94.25099049 C-22.20527761 99.67337105 -27.62640769 105.09829435 -33.04572105 110.52504539 C-34.60466952 112.08609296 -36.16361873 113.64713978 -37.72256869 115.20818585 C-38.49840474 115.98506543 -39.27424079 116.76194501 -40.07358702 117.56236639 C-54.75630969 132.26400318 -69.44900985 146.95563752 -84.14460018 161.64441022 C-97.60307845 175.09730959 -111.04829891 188.56337168 -124.48742775 202.03559826 C-138.27321028 215.85506965 -152.06820311 229.66528513 -165.87315482 243.4656083 C-173.62895366 251.21915791 -181.38092689 258.97644519 -189.12317848 266.74352455 C-195.71285195 273.3541489 -202.31107478 279.9560877 -208.92070965 286.54675613 C-212.29559966 289.9124507 -215.66625937 293.28212121 -219.02627182 296.66267395 C-222.09800002 299.75297266 -225.18088413 302.83165032 -228.27334329 305.9011996 C-229.39417396 307.01780914 -230.51073562 308.1387224 -231.62270472 309.26415697 C-233.1269534 310.78538394 -234.64554529 312.29060956 -236.16897297 313.79259205 C-237.43262856 315.05665621 -237.43262856 315.05665621 -238.72181255 316.34625703 C-241 318 -241 318 -243.14080638 317.90578526 C-246.07505079 316.47624327 -248.0002003 314.27610758 -250.25 311.9375 C-251.14203125 311.01839844 -252.0340625 310.09929687 -252.953125 309.15234375 C-253.96632812 308.08693359 -253.96632812 308.08693359 -255 307 C-253.52907056 303.60153322 -251.63668019 301.38868606 -249.02414608 298.78084373 C-248.18824914 297.9415814 -247.3523522 297.10231906 -246.49112505 296.23762453 C-245.56769621 295.32070349 -244.64426737 294.40378245 -243.69285583 293.45907593 C-242.70558631 292.47165037 -241.71875789 291.48378361 -240.73233372 290.49551356 C-238.0182827 287.77892755 -235.29803185 285.06862434 -232.57675326 282.35928106 C-229.6440083 279.43721616 -226.7170437 276.50937157 -223.78939819 273.5821991 C-218.71522132 268.51038579 -213.63744821 263.44219611 -208.55727959 258.37638474 C-201.21059544 251.05036557 -193.86990271 243.71836675 -186.53076351 236.38479002 C-174.62162548 224.48491081 -162.70839305 212.58913974 -150.79223633 200.69628906 C-150.07887271 199.98431876 -149.36550909 199.27234846 -148.6305284 198.53880329 C-147.916255 197.82592543 -147.2019816 197.11304756 -146.46606356 196.37856734 C-136.33546539 186.26774373 -126.20584093 176.15594595 -116.07739258 166.04296875 C-115.36459149 165.33125851 -114.65179039 164.61954826 -113.91738927 163.88627104 C-102.04711197 152.03399531 -90.17884983 140.17970304 -78.31162411 128.32437193 C-70.98648714 121.00683894 -63.65927589 113.69139386 -56.32939912 106.3786086 C-51.31133946 101.3720886 -46.29495235 96.36389716 -41.27989488 91.35436986 C-38.38289529 88.46071243 -35.48504352 85.56792092 -32.58501244 82.67730141 C-29.93372734 80.03460559 -27.28471236 77.38965676 -24.63752855 74.74285288 C-23.21841651 73.32517413 -21.7968078 71.90999595 -20.37513155 70.49488866 C-19.12519776 69.2438184 -19.12519776 69.2438184 -17.85001278 67.96747398 C-17.12545137 67.24437644 -16.40088997 66.5212789 -15.65437216 65.77626932 C-13.92692541 64.08913505 -13.92692541 64.08913505 -13 62 C-13.58265625 61.74476563 -14.1653125 61.48953125 -14.765625 61.2265625 C-17.21388223 59.88258913 -18.81743248 58.38189704 -20.75 56.375 C-21.67039062 55.42753906 -21.67039062 55.42753906 -22.609375 54.4609375 C-23.06828125 53.97882813 -23.5271875 53.49671875 -24 53 C-29.91504031 57.90698821 -35.3397843 63.20185852 -40.76329041 68.64303589 C-41.73844677 69.61775556 -42.71382311 70.59225519 -43.68939883 71.56655514 C-46.35519954 74.23013014 -49.01788945 76.89679567 -51.68006194 79.56399632 C-54.55681334 82.44507975 -57.43646818 85.32325868 -60.31576538 88.20179749 C-65.2991971 93.18470571 -70.28079951 98.16943668 -75.26115227 103.15542221 C-82.46184526 110.36425386 -89.665309 117.57031159 -96.86944468 124.77570261 C-108.55855712 136.46700185 -120.24543621 148.16053095 -131.9309082 159.85546875 C-143.27999463 171.21373892 -154.63013439 182.5709548 -165.98168945 193.92675781 C-166.68179435 194.62712543 -167.38189925 195.32749305 -168.10321944 196.04908393 C-171.61556453 199.56273409 -175.1279303 203.07636356 -178.64030635 206.58998275 C-207.7634122 235.72344963 -236.88289254 264.86053817 -266 294 C-269.85027991 292.21799313 -272.2799142 289.92324595 -275.25 286.875 C-276.14203125 285.96492188 -277.0340625 285.05484375 -277.953125 284.1171875 C-278.96632813 283.06917969 -278.96632813 283.06917969 -280 282 C-278.45316038 278.31784881 -276.22368755 275.97506137 -273.41227531 273.16617966 C-272.94059974 272.6921964 -272.46892417 272.21821313 -271.9829554 271.72986674 C-270.39519852 270.13680009 -268.80038616 268.55098984 -267.20553589 266.96502686 C-266.05668791 265.81530701 -264.90827941 264.66514789 -263.76027405 263.51458669 C-260.59964254 260.34947392 -257.43279307 257.19064659 -254.26491761 254.03278637 C-250.85163005 250.62811978 -247.44410778 247.21769184 -244.03588867 243.80795288 C-238.12854976 237.89956426 -232.21755423 231.99485431 -226.30407333 226.09261322 C-217.75413351 217.55891379 -209.20970868 209.01971007 -200.66662838 200.47914425 C-186.80656274 186.62345801 -172.94203482 172.77224582 -159.07470703 158.92382812 C-145.60231495 145.46978851 -132.1320209 132.01365406 -118.66455078 118.5546875 C-117.83469146 117.72535362 -117.00483213 116.89601975 -116.14982556 116.04155454 C-111.98676064 111.88109966 -107.82373702 107.72060347 -103.66073394 103.56008673 C-69.11355637 69.03364928 -34.55913915 34.51446425 0 0 Z " fill="#AF7745" transform="translate(450,170)"/>
<path d="M0 0 C0.94468549 0.0272486 1.88937098 0.05449719 2.8626833 0.08257151 C22.28602659 0.64745904 41.7024802 1.52719927 61.0747354 3.07121551 C62.53440283 3.18673935 63.99449713 3.29700821 65.45498681 3.4016248 C67.44342543 3.54748819 69.42977533 3.72104123 71.41586304 3.89602661 C72.52545568 3.98845201 73.63504833 4.08087742 74.778265 4.17610359 C78.20025578 5.01622993 79.50816128 6.08887699 81.625 8.875 C82.09418683 12.62849462 82.15636381 14.91348453 80.3125 18.25 C76.79645636 21.6358198 72.47917229 21.00773632 67.91577148 20.98510742 C66.29031879 20.98565018 64.66486611 20.98623718 63.03941345 20.98686218 C61.7464652 20.98471993 61.7464652 20.98471993 60.42739677 20.98253441 C55.85192899 20.9790095 51.27658333 21.00483201 46.70117188 21.02539062 C40.88360363 21.04967879 35.06639105 21.06547594 29.2487793 21.05004883 C24.54414002 21.03833995 19.84038315 21.05591377 15.13588142 21.09249306 C13.34949705 21.10107082 11.56302742 21.09908602 9.77667046 21.085989 C-4.35131987 20.93174708 -4.35131987 20.93174708 -16.375 27.875 C-22.3011735 34.29730307 -22.74299962 40.168884 -22.6484375 48.61328125 C-22.11824602 54.93770815 -19.66910327 58.93365464 -15.0625 63.1875 C-9.51695983 67.87368286 -3.72061311 69.31111426 3.38671875 69.24609375 C4.84961192 69.26345885 6.3125025 69.28104338 7.77539062 69.29882812 C10.05318717 69.30892976 12.33082445 69.31248636 14.60864258 69.31079102 C16.8268082 69.31435988 19.04376803 69.34167162 21.26171875 69.37109375 C22.57873779 69.37294678 23.89575684 69.3747998 25.25268555 69.37670898 C29.13017542 69.9496444 30.30105469 70.78637151 32.625 73.875 C33.19140625 75.875 33.19140625 75.875 33.1875 77.875 C33.20941406 78.535 33.23132813 79.195 33.25390625 79.875 C32.2481059 83.07357004 30.40732347 84.08343287 27.625 85.875 C24.83321603 86.25197899 22.44387039 86.39985366 19.65873718 86.35601807 C18.8622559 86.35943577 18.06577462 86.36285347 17.24515754 86.36637473 C14.57933066 86.37295741 11.91451323 86.35097171 9.2487793 86.32910156 C7.33673629 86.32797317 5.42469154 86.32860679 3.51264954 86.33087158 C-1.67712323 86.33201996 -6.86652672 86.30849043 -12.05621362 86.28057575 C-17.48009895 86.25558285 -22.9039926 86.25322176 -28.32792664 86.24847412 C-38.59847235 86.23603816 -48.86884789 86.20320806 -59.13931865 86.16307616 C-70.8320539 86.11837784 -82.52479724 86.09637627 -94.21759665 86.07629442 C-118.2701588 86.03447605 -142.32256987 85.96411184 -166.375 85.875 C-165.99839296 85.45771605 -165.62178593 85.04043211 -165.23376656 84.6105032 C-161.51526173 80.39681117 -158.45776003 76.05554328 -155.50341797 71.28735352 C-148.77706838 60.78389015 -141.27898687 50.97702175 -133.25 41.4375 C-132.51921989 40.56890099 -131.78843979 39.70030197 -131.03551483 38.80538177 C-95.07513316 -3.02207583 -51.3233814 -1.56366621 0 0 Z " fill="#B17845" transform="translate(410.375,390.125)"/>
<path d="M0 0 C3.54023647 1.67132419 5.99347254 3.63339333 8.8125 6.375 C9.62332031 7.14585937 10.43414062 7.91671875 11.26953125 8.7109375 C13 11 13 11 12.88649827 12.84077805 C11.6588306 15.83097787 9.82992845 17.54892038 7.54649639 19.83661366 C7.07717305 20.31089651 6.60784971 20.78517937 6.12430444 21.27383444 C4.5408321 22.87031898 2.94683234 24.45586007 1.35270691 26.04170227 C0.20736539 27.19193 -0.93732373 28.34280766 -2.08141345 29.49428052 C-5.23429685 32.6636203 -8.3965395 35.8234766 -11.56038058 38.98187268 C-14.96800786 42.38683684 -18.36703125 45.80037126 -21.76719666 49.21278381 C-28.4320924 55.89876472 -35.10525504 62.57643533 -41.78159121 69.25099049 C-47.20527761 74.67337105 -52.62640769 80.09829435 -58.04572105 85.52504539 C-59.60466952 87.08609296 -61.16361873 88.64713978 -62.72256869 90.20818585 C-63.49840474 90.98506543 -64.27424079 91.76194501 -65.07358702 92.56236639 C-79.75630969 107.26400318 -94.44900985 121.95563752 -109.14460018 136.64441022 C-122.60307845 150.09730959 -136.04829891 163.56337168 -149.48742775 177.03559826 C-163.27321028 190.85506965 -177.06820311 204.66528513 -190.87315482 218.4656083 C-198.62895366 226.21915791 -206.38092689 233.97644519 -214.12317848 241.74352455 C-220.71285195 248.3541489 -227.31107478 254.9560877 -233.92070965 261.54675613 C-237.29559966 264.9124507 -240.66625937 268.28212121 -244.02627182 271.66267395 C-247.09800002 274.75297266 -250.18088413 277.83165032 -253.27334329 280.9011996 C-254.39417396 282.01780914 -255.51073562 283.1387224 -256.62270472 284.26415697 C-258.1269534 285.78538394 -259.64554529 287.29060956 -261.16897297 288.79259205 C-262.43262856 290.05665621 -262.43262856 290.05665621 -263.72181255 291.34625703 C-266 293 -266 293 -268.14080638 292.90578526 C-271.07505079 291.47624327 -273.0002003 289.27610758 -275.25 286.9375 C-276.14203125 286.01839844 -277.0340625 285.09929687 -277.953125 284.15234375 C-278.96632813 283.08693359 -278.96632813 283.08693359 -280 282 C-278.52907056 278.60153322 -276.63668019 276.38868606 -274.02414608 273.78084373 C-272.77030067 272.52195023 -272.77030067 272.52195023 -271.49112505 271.23762453 C-270.10598179 269.86224297 -270.10598179 269.86224297 -268.69285583 268.45907593 C-267.70558631 267.47165037 -266.71875789 266.48378361 -265.73233372 265.49551356 C-263.0182827 262.77892755 -260.29803185 260.06862434 -257.57675326 257.35928106 C-254.6440083 254.43721616 -251.7170437 251.50937157 -248.78939819 248.5821991 C-243.71522132 243.51038579 -238.63744821 238.44219611 -233.55727959 233.37638474 C-226.21059544 226.05036557 -218.86990271 218.71836675 -211.53076351 211.38479002 C-199.62162548 199.48491081 -187.70839305 187.58913974 -175.79223633 175.69628906 C-175.07887271 174.98431876 -174.36550909 174.27234846 -173.6305284 173.53880329 C-172.5591183 172.4694865 -172.5591183 172.4694865 -171.46606356 171.37856734 C-161.33546539 161.26774373 -151.20584093 151.15594595 -141.07739258 141.04296875 C-140.36459149 140.33125851 -139.65179039 139.61954826 -138.91738927 138.88627104 C-127.04711197 127.03399531 -115.17884983 115.17970304 -103.31162411 103.32437193 C-95.98648714 96.00683894 -88.65927589 88.69139386 -81.32939912 81.3786086 C-76.31133946 76.3720886 -71.29495235 71.36389716 -66.27989488 66.35436986 C-63.38289529 63.46071243 -60.48504352 60.56792092 -57.58501244 57.67730141 C-54.93372734 55.03460559 -52.28471236 52.38965676 -49.63752855 49.74285288 C-48.21841651 48.32517413 -46.7968078 46.90999595 -45.37513155 45.49488866 C-44.54184235 44.66084182 -43.70855316 43.82679497 -42.85001278 42.96747398 C-41.76317067 41.88282767 -41.76317067 41.88282767 -40.65437216 40.77626932 C-38.92692541 39.08913505 -38.92692541 39.08913505 -38 37 C-38.639375 36.7525 -39.27875 36.505 -39.9375 36.25 C-42 35 -42 35 -42.9375 33.25 C-43 31 -43 31 -40.91015625 28.421875 C-39.97042969 27.54015625 -39.03070313 26.6584375 -38.0625 25.75 C-37.12535156 24.85796875 -36.18820312 23.9659375 -35.22265625 23.046875 C-34.48917969 22.37140625 -33.75570312 21.6959375 -33 21 C-32.2575 21.680625 -31.515 22.36125 -30.75 23.0625 C-28.31254154 25.18845899 -28.31254154 25.18845899 -26.18066406 24.95532227 C-22.94813226 23.5391896 -20.77922022 21.14648331 -18.359375 18.65234375 C-17.83232971 18.12105362 -17.30528442 17.58976349 -16.76226807 17.04237366 C-15.08432813 15.34767175 -13.41713272 13.64282783 -11.75 11.9375 C-10.61267255 10.78512255 -9.47465934 9.63342148 -8.3359375 8.48242188 C-5.54928008 5.66272816 -2.77221208 2.83389412 0 0 Z " fill="#FAE5A3" transform="translate(475,195)"/>
<path d="M0 0 C16.17 0 32.34 0 49 0 C49 5.28 49 10.56 49 16 C54.28 16 59.56 16 65 16 C65 10.72 65 5.44 65 0 C81.17 0 97.34 0 114 0 C114 16.17 114 32.34 114 49 C97.83 49 81.66 49 65 49 C65 43.72 65 38.44 65 33 C59.72 33 54.44 33 49 33 C49 38.28 49 43.56 49 49 C32.83 49 16.66 49 0 49 C0 32.83 0 16.66 0 0 Z " fill="#ECCDB1" transform="translate(77,272)"/>
<path d="M0 0 C0 16.17 0 32.34 0 49 C-5.28 49 -10.56 49 -16 49 C-16 54.28 -16 59.56 -16 65 C-10.72 65 -5.44 65 0 65 C0 81.17 0 97.34 0 114 C-16.17 114 -32.34 114 -49 114 C-49 97.83 -49 81.66 -49 65 C-43.72 65 -38.44 65 -33 65 C-33 59.72 -33 54.44 -33 49 C-38.28 49 -43.56 49 -49 49 C-49 42.24828843 -49 42.24828843 -45.14794922 38.37158203 C-44.30642303 37.51114288 -43.46489685 36.65070374 -42.59786987 35.76419067 C-41.67611969 34.85458588 -40.75436951 33.94498108 -39.8046875 33.0078125 C-38.85411131 32.0531921 -37.90442711 31.09768274 -36.95559692 30.1413269 C-34.966008 28.14290364 -32.96600176 26.15570541 -30.95800781 24.17578125 C-28.38844588 21.64040553 -25.84676802 19.07903834 -23.31229973 16.50863838 C-21.35680721 14.53143549 -19.38721156 12.56878242 -17.41308975 10.61019516 C-16.01255926 9.21559796 -14.62407725 7.80893473 -13.23580933 6.40213013 C-12.37537018 5.56060394 -11.51493103 4.71907776 -10.62841797 3.85205078 C-9.87785126 3.10625763 -9.12728455 2.36046448 -8.35397339 1.59207153 C-6 0 -6 0 0 0 Z " fill="#DBAF88" transform="translate(256,77)"/>
<path d="M0 0 C16.17 0 32.34 0 49 0 C49 16.17 49 32.34 49 49 C32.83 49 16.66 49 0 49 C0 32.83 0 16.66 0 0 Z " fill="#DDB089" transform="translate(207,272)"/>
<path d="M0 0 C16.17 0 32.34 0 49 0 C49 16.17 49 32.34 49 49 C32.83 49 16.66 49 0 49 C0 32.83 0 16.66 0 0 Z " fill="#DDB089" transform="translate(272,207)"/>
<path d="M0 0 C16.17 0 32.34 0 49 0 C49 16.17 49 32.34 49 49 C32.83 49 16.66 49 0 49 C0 32.83 0 16.66 0 0 Z " fill="#EECEB3" transform="translate(207,207)"/>
<path d="M0 0 C16.17 0 32.34 0 49 0 C49 16.17 49 32.34 49 49 C32.83 49 16.66 49 0 49 C0 32.83 0 16.66 0 0 Z " fill="#EECEB2" transform="translate(142,207)"/>
<path d="M0 0 C16.17 0 32.34 0 49 0 C49 16.17 49 32.34 49 49 C32.83 49 16.66 49 0 49 C0 32.83 0 16.66 0 0 Z " fill="#ECCDB1" transform="translate(337,142)"/>
<path d="M0 0 C16.17 0 32.34 0 49 0 C49 16.17 49 32.34 49 49 C32.83 49 16.66 49 0 49 C0 32.83 0 16.66 0 0 Z " fill="#EDCDB2" transform="translate(272,142)"/>
<path d="M0 0 C16.17 0 32.34 0 49 0 C49 16.17 49 32.34 49 49 C32.83 49 16.66 49 0 49 C0 32.83 0 16.66 0 0 Z " fill="#ECCDB1" transform="translate(272,77)"/>
<path d="M0 0 C16.17 0 32.34 0 49 0 C49 15.84 49 31.68 49 48 C32.83 48 16.66 48 0 48 C0 32.16 0 16.32 0 0 Z " fill="#DEB18A" transform="translate(142,338)"/>
<path d="M0 0 C15.84 0 31.68 0 48 0 C48 15.84 48 31.68 48 48 C24.87363245 48 24.87363245 48 17.01306152 41.03283691 C16.53244263 40.50315308 16.05182373 39.97346924 15.55664062 39.42773438 C12.81203338 36.46490147 9.9579905 33.70072369 6.96716309 30.98693848 C-3.00904175 19.73147269 0 17.54458317 0 0 Z " fill="#EFCFB3" transform="translate(77,338)"/>
<path d="M0 0 C23.12636755 0 23.12636755 0 30.98693848 6.96716309 C31.46755737 7.49684692 31.94817627 8.02653076 32.44335938 8.57226562 C35.18796662 11.53509853 38.0420095 14.29927631 41.03283691 17.01306152 C51.00904175 28.26852731 48 30.45541683 48 48 C32.16 48 16.32 48 0 48 C0 32.16 0 16.32 0 0 Z " fill="#DEB18A" transform="translate(338,77)"/>
<path d="M0 0 C0 16.17 0 32.34 0 49 C-17.82 49 -35.64 49 -54 49 C-47.23796518 41.11095937 -47.23796518 41.11095937 -43.55859375 37.34985352 C-42.7375415 36.50951065 -41.91648926 35.66916779 -41.07055664 34.80335999 C-37.36408339 31.03861331 -33.65295352 27.27862655 -29.93261719 23.52758789 C-27.96924707 21.54629754 -26.01478151 19.55680307 -24.06738281 17.55981445 C-21.24925438 14.6700638 -18.40708263 11.80512348 -15.5625 8.94140625 C-14.69359131 8.0446669 -13.82468262 7.14792755 -12.92944336 6.22401428 C-12.10839111 5.40573654 -11.28733887 4.5874588 -10.44140625 3.74438477 C-9.72670166 3.01937271 -9.01199707 2.29436066 -8.27563477 1.54737854 C-6 0 -6 0 0 0 Z " fill="#D8AC86" transform="translate(126,207)"/>
<path d="M0 0 C0 16.17 0 32.34 0 49 C-16.17 49 -32.34 49 -49 49 C-49 42.24828843 -49 42.24828843 -45.14794922 38.37158203 C-44.30642303 37.51114288 -43.46489685 36.65070374 -42.59786987 35.76419067 C-41.67611969 34.85458588 -40.75436951 33.94498108 -39.8046875 33.0078125 C-38.85411131 32.0531921 -37.90442711 31.09768274 -36.95559692 30.1413269 C-34.966008 28.14290364 -32.96600176 26.15570541 -30.95800781 24.17578125 C-28.38844588 21.64040553 -25.84676802 19.07903834 -23.31229973 16.50863838 C-21.35680721 14.53143549 -19.38721156 12.56878242 -17.41308975 10.61019516 C-16.01255926 9.21559796 -14.62407725 7.80893473 -13.23580933 6.40213013 C-12.37537018 5.56060394 -11.51493103 4.71907776 -10.62841797 3.85205078 C-9.87785126 3.10625763 -9.12728455 2.36046448 -8.35397339 1.59207153 C-6 0 -6 0 0 0 Z " fill="#E9CAAF" transform="translate(191,142)"/>
<path d="M0 0 C17.16 0 34.32 0 52 0 C50.13269393 3.73461214 48.60026151 5.66686043 45.72143555 8.58496094 C44.83679123 9.48559265 43.95214691 10.38622437 43.04069519 11.31414795 C42.07318363 12.28803464 41.1051794 13.2614321 40.13671875 14.234375 C39.14256903 15.23749464 38.14849565 16.24068993 37.15449524 17.24395752 C35.07260894 19.34230938 32.98639016 21.43624886 30.89770508 23.52783203 C28.22249908 26.20843364 25.56383986 28.90483205 22.90884686 31.60543442 C20.8626537 33.6813615 18.80530683 35.74595296 16.74469948 37.80756378 C15.75941091 38.79705831 14.77824385 39.7906747 13.80133629 40.78844452 C12.43502958 42.18159605 11.05124004 43.5575364 9.66674805 44.93261719 C8.493321 46.11365021 8.493321 46.11365021 7.29618835 47.31854248 C5 49 5 49 0 49 C0 32.83 0 16.66 0 0 Z " fill="#E7C8AD" transform="translate(337,207)"/>
<path d="M0 0 C16.17 0 32.34 0 49 0 C49 5.60201173 48.73971043 5.88806487 45.0402832 9.60668945 C43.74312126 10.9274926 43.74312126 10.9274926 42.41975403 12.27497864 C41.46406341 13.22171957 40.50772304 14.16780499 39.55078125 15.11328125 C38.57553552 16.09189601 37.60103296 17.0712519 36.62724304 18.05131531 C34.58480449 20.10112102 32.53360726 22.14162187 30.47583008 24.17602539 C27.840218 26.78314986 25.22769201 29.41208065 22.62131977 32.04839802 C20.6134408 34.07435413 18.59379263 36.08823817 16.57039452 38.09868431 C15.60228648 39.06345949 14.63787191 40.03195574 13.67727089 41.0042057 C12.33251984 42.36166888 10.96995707 43.70141687 9.60668945 45.0402832 C8.45086113 46.19014458 8.45086113 46.19014458 7.27168274 47.36323547 C5 49 5 49 0 49 C0 32.83 0 16.66 0 0 Z " fill="#E7C8AD" transform="translate(207,337)"/>
<path d="M0 0 C16.17 0 32.34 0 49 0 C49 5.60201173 48.73971043 5.88806487 45.0402832 9.60668945 C43.74312126 10.9274926 43.74312126 10.9274926 42.41975403 12.27497864 C41.46406341 13.22171957 40.50772304 14.16780499 39.55078125 15.11328125 C38.57553552 16.09189601 37.60103296 17.0712519 36.62724304 18.05131531 C34.58480449 20.10112102 32.53360726 22.14162187 30.47583008 24.17602539 C27.840218 26.78314986 25.22769201 29.41208065 22.62131977 32.04839802 C20.6134408 34.07435413 18.59379263 36.08823817 16.57039452 38.09868431 C15.60228648 39.06345949 14.63787191 40.03195574 13.67727089 41.0042057 C12.33251984 42.36166888 10.96995707 43.70141687 9.60668945 45.0402832 C8.45086113 46.19014458 8.45086113 46.19014458 7.27168274 47.36323547 C5 49 5 49 0 49 C0 32.83 0 16.66 0 0 Z " fill="#E7C8AD" transform="translate(272,272)"/>
<path d="M0 0 C1.21899414 1.24243164 1.21899414 1.24243164 2.72265625 3.09765625 C6.23162357 7.22526442 9.96844912 11.05588637 13.80859375 14.87109375 C14.42368805 15.48288483 15.03878235 16.0946759 15.67251587 16.7250061 C17.59224164 18.63113499 19.5144574 20.53471773 21.4375 22.4375 C24.00153083 24.97502922 26.56228341 27.51580167 29.12109375 30.05859375 C29.71160019 30.64080185 30.30210663 31.22300995 30.9105072 31.82286072 C32.2925931 33.19646066 33.64923119 34.595592 35 36 C35 36.33 35 36.66 35 37 C11.24 37 -12.52 37 -37 37 C-35.32327512 33.64655024 -34.30345109 32.05164855 -31.77539062 29.51660156 C-31.12131226 28.85621887 -30.46723389 28.19583618 -29.79333496 27.51544189 C-29.08809692 26.81425232 -28.38285889 26.11306274 -27.65625 25.390625 C-26.93135376 24.66381531 -26.20645752 23.93700562 -25.45959473 23.18817139 C-23.92880989 21.65602721 -22.39550303 20.12639925 -20.85986328 18.59912109 C-18.5018923 16.25188369 -16.15480454 13.89414222 -13.80859375 11.53515625 C-12.32095364 10.04883718 -10.83269356 8.56313831 -9.34375 7.078125 C-8.63851196 6.3688385 -7.93327393 5.659552 -7.20666504 4.92877197 C-6.55258667 4.28099792 -5.8985083 3.63322388 -5.22460938 2.96582031 C-4.36095764 2.10455536 -4.36095764 2.10455536 -3.4798584 1.22589111 C-2 0 -2 0 0 0 Z " fill="#DCAF89" transform="translate(306,23)"/>
<path d="M0 0 C0 22.77 0 45.54 0 69 C-7.87311724 62.25161379 -7.87311724 62.25161379 -10.33325195 59.7644043 C-10.88684891 59.20750412 -11.44044586 58.65060394 -12.01081848 58.076828 C-12.5808812 57.49846695 -13.15094391 56.9201059 -13.73828125 56.32421875 C-14.34512253 55.71359085 -14.95196381 55.10296295 -15.57719421 54.47383118 C-17.49143922 52.54749227 -19.40236661 50.61791543 -21.3125 48.6875 C-23.84740255 46.12605066 -26.38557218 43.56790438 -28.92578125 41.01171875 C-29.79605705 40.12899544 -29.79605705 40.12899544 -30.68391418 39.22843933 C-33.56032976 36.24530515 -33.56032976 36.24530515 -37 34 C-35.69555104 31.13264852 -34.29962515 29.03884534 -32.09838867 26.79199219 C-31.51405563 26.19167175 -30.9297226 25.59135132 -30.3276825 24.97283936 C-29.69747696 24.33727112 -29.06727142 23.70170288 -28.41796875 23.046875 C-27.76677567 22.38665344 -27.11558258 21.72643188 -26.44465637 21.04620361 C-25.06797681 19.65503832 -23.68848698 18.26664917 -22.30639648 16.88085938 C-20.19329622 14.75582894 -18.09956874 12.61286576 -16.00585938 10.46875 C-14.66521559 9.11864568 -13.32345547 7.76964876 -11.98046875 6.421875 C-11.35633591 5.77820984 -10.73220306 5.13454468 -10.0891571 4.47137451 C-9.49536758 3.88366272 -8.90157806 3.29595093 -8.28979492 2.69042969 C-7.77398361 2.16954773 -7.2581723 1.64866577 -6.72673035 1.11199951 C-5 0 -5 0 0 0 Z " fill="#ECCDB1" transform="translate(60,272)"/>
<path d="M0 0 C23.43 0 46.86 0 71 0 C69.33037306 3.33925388 68.35708077 4.88982537 65.83544922 7.39160156 C64.87467972 8.35214447 64.87467972 8.35214447 63.89450073 9.33209229 C63.20486237 10.01140808 62.515224 10.69072388 61.8046875 11.390625 C61.09724396 12.09523865 60.38980042 12.79985229 59.66091919 13.52581787 C57.40360138 15.7719539 55.13942367 18.01103009 52.875 20.25 C51.34199047 21.77297717 49.80943285 23.29640939 48.27734375 24.8203125 C44.52345427 28.55216815 40.76391086 32.27825351 37 36 C33.96167743 34.64052727 31.86255442 33.11126454 29.51660156 30.75952148 C28.85621887 30.10221542 28.19583618 29.44490936 27.51544189 28.76768494 C26.81425232 28.05930984 26.11306274 27.35093475 25.390625 26.62109375 C24.66381531 25.89382584 23.93700562 25.16655792 23.18817139 24.41725159 C21.6561141 22.88217714 20.12648406 21.3446769 18.59912109 19.80493164 C16.25021599 17.43771767 13.89335453 15.07865581 11.53515625 12.72070312 C10.04900526 11.22963886 8.56331205 9.73811816 7.078125 8.24609375 C6.3688385 7.53569443 5.659552 6.8252951 4.92877197 6.09336853 C4.28099792 5.43921463 3.63322388 4.78506073 2.96582031 4.11108398 C2.39164368 3.53309555 1.81746704 2.95510712 1.22589111 2.35960388 C0 1 0 1 0 0 Z " fill="#DCAF89" transform="translate(122,403)"/>
<path d="M0 0 C7.875 6.75 7.875 6.75 10.45678711 9.34326172 C11.0368602 9.92341034 11.61693329 10.50355896 12.21458435 11.10128784 C12.81279495 11.70465973 13.41100555 12.30803162 14.02734375 12.9296875 C14.66112442 13.56488312 15.29490509 14.20007874 15.94789124 14.85452271 C17.94681406 16.85898716 19.94220784 18.86692214 21.9375 20.875 C23.30250133 22.24502389 24.6677336 23.61481774 26.03320312 24.984375 C29.35814211 28.32026543 32.67992353 31.65927036 36 35 C34.69368671 37.87493262 33.29561601 39.96224204 31.08251953 42.20800781 C30.4949588 42.80832825 29.90739807 43.40864868 29.30203247 44.02716064 C28.66868988 44.66272888 28.03534729 45.29829712 27.3828125 45.953125 C26.72924774 46.61334656 26.07568298 47.27356812 25.40231323 47.95379639 C24.02134301 49.34487615 22.63765989 50.73326727 21.25146484 52.11914062 C19.12918837 54.24580298 17.0234208 56.38794602 14.91796875 58.53125 C13.57389822 59.88118633 12.22887781 61.23017772 10.8828125 62.578125 C10.25351837 63.22179016 9.62422424 63.86545532 8.9758606 64.52862549 C8.38199554 65.11633728 7.78813049 65.70404907 7.17626953 66.30957031 C6.65823761 66.83045227 6.14020569 67.35133423 5.60647583 67.88800049 C4 69 4 69 0 69 C0 46.23 0 23.46 0 0 Z " fill="#DCAF89" transform="translate(403,122)"/>
</svg>
