<?xml version="1.0" encoding="UTF-8"?>
<!DOCTYPE svg PUBLIC "-//W3C//DTD SVG 1.1//EN" "http://www.w3.org/Graphics/SVG/1.1/DTD/svg11.dtd">
<svg xmlns="http://www.w3.org/2000/svg" version="1.1" width="512px" height="512px" style="shape-rendering:geometricPrecision; text-rendering:geometricPrecision; image-rendering:optimizeQuality; fill-rule:evenodd; clip-rule:evenodd" xmlns:xlink="http://www.w3.org/1999/xlink">
<g><path style="opacity:1" fill="#030202" d="M 242.5,38.5 C 286.172,39.7859 329.838,41.2859 373.5,43C 376.196,43.6898 378.363,45.1898 380,47.5C 384.799,64.361 389.132,81.361 393,98.5C 393.667,100.833 393.667,103.167 393,105.5C 376.221,132.887 359.054,160.054 341.5,187C 393.833,218.667 446.167,250.333 498.5,282C 505.946,286.759 508.613,293.593 506.5,302.5C 506.022,320.519 505.189,338.519 504,356.5C 502.552,360.488 499.719,362.988 495.5,364C 457.47,377.566 419.303,390.732 381,403.5C 378.366,403.066 375.866,402.233 373.5,401C 333.632,376.302 293.632,351.802 253.5,327.5C 223.431,373.961 193.597,420.627 164,467.5C 162.457,469.378 160.624,470.878 158.5,472C 153.792,472.496 149.125,472.162 144.5,471C 104.524,463.205 64.5241,455.538 24.5,448C 19.4272,447.559 15.9272,445.059 14,440.5C 9.69525,420.987 6.69525,401.32 5,381.5C 37.796,332.74 70.9626,284.24 104.5,236C 92.5,228.667 80.5,221.333 68.5,214C 66.6217,212.457 65.1217,210.624 64,208.5C 63.3333,184.833 63.3333,161.167 64,137.5C 64.786,134.417 66.6193,132.251 69.5,131C 106.782,118.462 144.115,106.128 181.5,94C 183.5,93.3333 185.5,93.3333 187.5,94C 191.191,96.0192 194.858,97.6858 198.5,99C 211.333,80.1667 224.167,61.3333 237,42.5C 238.5,40.5313 240.333,39.198 242.5,38.5 Z"/></g>
<g><path style="opacity:1" fill="#975e58" d="M 251.5,60.5 C 284.854,61.1677 318.188,62.501 351.5,64.5C 348.833,68.5 346.167,72.5 343.5,76.5C 308.847,78.5367 274.181,79.2034 239.5,78.5C 243.134,72.2102 247.134,66.2102 251.5,60.5 Z"/></g>
<g><path style="opacity:1" fill="#ba857d" d="M 365.5,81.5 C 367.918,86.8159 369.584,92.4825 370.5,98.5C 370.423,100.299 369.923,101.966 369,103.5C 295.75,218.331 222.75,333.331 150,448.5C 149.275,449.059 148.442,449.392 147.5,449.5C 109.796,442.272 72.1289,434.939 34.5,427.5C 31.6677,417.883 30.0011,408.216 29.5,398.5C 65.0661,405.474 100.733,411.974 136.5,418C 143.09,419.852 148.59,418.352 153,413.5C 223.662,302.682 294.496,192.015 365.5,81.5 Z"/></g>
<g><path style="opacity:1" fill="#975e58" d="M 283.5,99.5 C 298.504,99.3334 313.504,99.5001 328.5,100C 324.748,106.172 320.748,112.172 316.5,118C 281.176,119.473 245.843,120.14 210.5,120C 214.624,114.254 218.624,108.42 222.5,102.5C 242.98,101.265 263.313,100.265 283.5,99.5 Z"/></g>
<g><path style="opacity:1" fill="#975e58" d="M 134.5,192.5 C 134.586,191.504 134.252,190.671 133.5,190C 128.326,186.97 123.326,183.804 118.5,180.5C 128.239,180.254 132.406,175.254 131,165.5C 122.02,157.746 112.186,151.079 101.5,145.5C 100.167,144.833 100.167,144.167 101.5,143.5C 128.972,133.73 156.639,124.897 184.5,117C 185.535,118.507 185.368,120.007 184,121.5C 167.637,145.346 151.137,169.013 134.5,192.5 Z"/></g>
<g><path style="opacity:1" fill="#975e58" d="M 257.5,140.5 C 272.182,140.167 286.848,140.501 301.5,141.5C 297.417,148.668 293.084,155.668 288.5,162.5C 252.135,164.546 215.802,165.546 179.5,165.5C 184.5,158.167 189.5,150.833 194.5,143.5C 215.646,142.243 236.646,141.243 257.5,140.5 Z"/></g>
<g><path style="opacity:1" fill="#47322f" d="M 86.5,161.5 C 85.5048,173.655 85.1714,185.989 85.5,198.5C 84.175,185.994 84.175,173.327 85.5,160.5C 86.1067,160.624 86.44,160.957 86.5,161.5 Z"/></g>
<g><path style="opacity:1" fill="#bb867d" d="M 86.5,161.5 C 97.1839,167.861 107.851,174.194 118.5,180.5C 123.326,183.804 128.326,186.97 133.5,190C 134.252,190.671 134.586,191.504 134.5,192.5C 129.25,201.249 123.416,209.582 117,217.5C 106.239,211.539 95.7394,205.206 85.5,198.5C 85.1714,185.989 85.5048,173.655 86.5,161.5 Z"/></g>
<g><path style="opacity:1" fill="#975e58" d="M 236.5,185.5 C 248.838,185.333 261.171,185.5 273.5,186C 268.833,193 264.167,200 259.5,207C 222.486,208.505 185.486,209.505 148.5,210C 153.695,202.971 158.695,195.805 163.5,188.5C 187.991,187.446 212.324,186.446 236.5,185.5 Z"/></g>
<g><path style="opacity:1" fill="#975e58" d="M 328.5,205.5 C 335.058,208.712 341.391,212.379 347.5,216.5C 337.661,237.511 327.328,258.177 316.5,278.5C 308.33,273.583 300.33,268.416 292.5,263C 305.147,244.197 317.147,225.031 328.5,205.5 Z"/></g>
<g><path style="opacity:1" fill="#975e58" d="M 365.5,227.5 C 372.01,230.585 378.01,234.418 383.5,239C 373.954,259.924 364.287,280.757 354.5,301.5C 347.834,298.169 341.501,294.336 335.5,290C 345.912,269.343 355.912,248.51 365.5,227.5 Z"/></g>
<g><path style="opacity:1" fill="#965e58" d="M 208.5,229.5 C 220.838,229.333 233.171,229.5 245.5,230C 241.043,236.414 236.709,242.914 232.5,249.5C 200.172,250.658 167.839,251.658 135.5,252.5C 130.5,252.167 125.5,251.833 120.5,251.5C 124.586,244.993 128.92,238.66 133.5,232.5C 158.661,231.516 183.661,230.516 208.5,229.5 Z"/></g>
<g><path style="opacity:1" fill="#985e58" d="M 401.5,250.5 C 408.48,253.292 415.147,256.792 421.5,261C 422.059,261.725 422.392,262.558 422.5,263.5C 415.432,280.535 408.266,297.535 401,314.5C 395.838,316.888 390.505,318.888 385,320.5C 380.288,318.74 376.455,315.907 373.5,312C 382.985,291.533 392.318,271.033 401.5,250.5 Z"/></g>
<g><path style="opacity:1" fill="#975e58" d="M 195.5,271.5 C 203.174,271.334 210.841,271.5 218.5,272C 213.5,279.667 208.5,287.333 203.5,295C 165.179,296.752 126.846,297.752 88.5,298C 93.8333,290.333 99.1667,282.667 104.5,275C 134.993,273.84 165.327,272.673 195.5,271.5 Z"/></g>
<g><path style="opacity:1" fill="#965d57" d="M 441.5,273.5 C 451.139,279.322 460.806,285.155 470.5,291C 456.48,296.288 442.48,300.788 428.5,304.5C 433.036,294.219 437.369,283.886 441.5,273.5 Z"/></g>
<g><path style="opacity:1" fill="#bb867d" d="M 280.5,282.5 C 310.233,299.54 339.566,317.373 368.5,336C 373.158,338.912 377.991,341.412 383,343.5C 416.303,332.6 449.47,321.267 482.5,309.5C 483.666,321.152 483.833,332.819 483,344.5C 449.555,356.593 416.055,368.593 382.5,380.5C 343.965,356.801 305.298,333.301 266.5,310C 264.993,309.163 264.493,307.996 265,306.5C 270.39,298.617 275.557,290.617 280.5,282.5 Z"/></g>
<g><path style="opacity:1" fill="#975e58" d="M 162.5,317.5 C 171.192,317.169 179.859,317.502 188.5,318.5C 183.749,326.337 178.749,334.004 173.5,341.5C 134.192,343.97 94.8584,345.47 55.5,346C 60.7048,339.092 65.5382,331.926 70,324.5C 71.2468,322.315 73.0801,320.982 75.5,320.5C 104.657,319.658 133.657,318.658 162.5,317.5 Z"/></g>
<g><path style="opacity:1" fill="#975e58" d="M 142.5,364.5 C 147.844,364.334 153.177,364.501 158.5,365C 151.875,375.082 145.375,385.249 139,395.5C 138.107,396.081 137.107,396.415 136,396.5C 102.223,390.096 68.3897,384.096 34.5,378.5C 35.6645,375.307 37.3312,372.307 39.5,369.5C 73.9825,367.655 108.316,365.989 142.5,364.5 Z"/></g>
</svg>
