<?xml version="1.0" encoding="UTF-8"?>
<!DOCTYPE svg PUBLIC "-//W3C//DTD SVG 1.1//EN" "http://www.w3.org/Graphics/SVG/1.1/DTD/svg11.dtd">
<svg xmlns="http://www.w3.org/2000/svg" version="1.1" width="512px" height="512px" style="shape-rendering:geometricPrecision; text-rendering:geometricPrecision; image-rendering:optimizeQuality; fill-rule:evenodd; clip-rule:evenodd" xmlns:xlink="http://www.w3.org/1999/xlink">
<g><path style="opacity:0.984" fill="#262525" d="M 117.5,-0.5 C 120.5,-0.5 123.5,-0.5 126.5,-0.5C 141.382,5.96619 156.549,11.9662 172,17.5C 192.681,8.12477 214.181,2.12477 236.5,-0.5C 249.167,-0.5 261.833,-0.5 274.5,-0.5C 296.831,2.12729 318.331,8.12729 339,17.5C 354.451,11.9662 369.618,5.96619 384.5,-0.5C 387.5,-0.5 390.5,-0.5 393.5,-0.5C 394.458,0.961599 395.624,2.29493 397,3.5C 397.277,22.5052 397.277,41.5052 397,60.5C 407.136,71.4397 415.803,83.4397 423,96.5C 439.636,101.869 456.47,106.702 473.5,111C 479.095,113.354 480.928,117.521 479,123.5C 468.333,137.5 457.667,151.5 447,165.5C 447.231,183.144 447.565,200.811 448,218.5C 462.908,229.038 478.075,239.205 493.5,249C 496.167,253.333 496.167,257.667 493.5,262C 478.075,271.795 462.908,281.962 448,292.5C 447.565,310.189 447.231,327.856 447,345.5C 457.667,359.5 468.333,373.5 479,387.5C 480.928,393.479 479.095,397.646 473.5,400C 456.47,404.298 439.636,409.131 423,414.5C 415.803,427.56 407.136,439.56 397,450.5C 397.277,469.495 397.277,488.495 397,507.5C 395.624,508.705 394.458,510.038 393.5,511.5C 391.167,511.5 388.833,511.5 386.5,511.5C 370.908,505.131 355.075,499.131 339,493.5C 318.321,502.875 296.821,508.875 274.5,511.5C 261.833,511.5 249.167,511.5 236.5,511.5C 214.179,508.875 192.679,502.875 172,493.5C 156.549,499.034 141.382,505.034 126.5,511.5C 123.5,511.5 120.5,511.5 117.5,511.5C 116.542,510.038 115.376,508.705 114,507.5C 113.723,488.495 113.723,469.495 114,450.5C 103.864,439.56 95.197,427.56 88,414.5C 70.6567,408.943 53.1567,403.776 35.5,399C 33.6667,398.5 32.5,397.333 32,395.5C 31.3333,392.833 31.3333,390.167 32,387.5C 42.6667,373.5 53.3333,359.5 64,345.5C 63.7687,327.856 63.4353,310.189 63,292.5C 48.0919,281.962 32.9252,271.795 17.5,262C 14.8333,257.667 14.8333,253.333 17.5,249C 32.9252,239.205 48.0919,229.038 63,218.5C 63.4498,200.481 63.7831,182.481 64,164.5C 52.9515,151.12 42.2849,137.453 32,123.5C 31.3333,120.833 31.3333,118.167 32,115.5C 32.5,113.667 33.6667,112.5 35.5,112C 53.1567,107.224 70.6567,102.057 88,96.5C 95.197,83.4397 103.864,71.4397 114,60.5C 113.723,41.5052 113.723,22.5052 114,3.5C 115.376,2.29493 116.542,0.961599 117.5,-0.5 Z"/></g>
<g><path style="opacity:1" fill="#fecb3d" d="M 232.5,63.5 C 247.833,63.5 263.167,63.5 278.5,63.5C 281.955,70.574 287.122,72.2406 294,68.5C 294.704,66.7216 295.204,64.8882 295.5,63C 287.575,47.6531 279.242,32.4864 270.5,17.5C 285.951,17.4225 300.951,20.2558 315.5,26C 323.1,29.0535 330.6,32.2202 338,35.5C 341.141,34.3975 344.307,33.3975 347.5,32.5C 358.384,39.8693 368.884,47.8693 379,56.5C 379.181,59.6946 379.681,62.6946 380.5,65.5C 380.709,66.9217 381.209,68.255 382,69.5C 410.02,98.511 426.353,133.178 431,173.5C 431.333,190.833 431.667,208.167 432,225.5C 433.52,229.158 436.02,231.824 439.5,233.5C 439.5,248.167 439.5,262.833 439.5,277.5C 436.515,279.255 434.015,281.588 432,284.5C 437.626,337.576 424.96,385.576 394,428.5C 389.289,433.706 384.789,439.039 380.5,444.5C 379.677,447.977 379.177,451.644 379,455.5C 369.594,464.775 359.094,472.441 347.5,478.5C 344.307,477.603 341.141,476.603 338,475.5C 317.935,485.311 296.768,491.644 274.5,494.5C 273.167,494.167 271.833,493.833 270.5,493.5C 278.667,479.167 286.833,464.833 295,450.5C 295.899,444.381 293.232,440.715 287,439.5C 282.401,440.265 279.568,442.931 278.5,447.5C 263.167,447.5 247.833,447.5 232.5,447.5C 228.334,438.432 222.834,437.432 216,444.5C 215.333,446.5 215.333,448.5 216,450.5C 224.167,464.833 232.333,479.167 240.5,493.5C 231.73,494.32 223.064,493.487 214.5,491C 201.41,487.525 188.743,482.858 176.5,477C 171.669,476.222 167.003,476.722 162.5,478.5C 151.774,471.705 141.608,464.038 132,455.5C 131.823,451.644 131.323,447.977 130.5,444.5C 103.898,415.961 87.3983,382.294 81,343.5C 79.8943,323.851 79.2276,304.184 79,284.5C 76.9853,281.588 74.4853,279.255 71.5,277.5C 71.5,262.833 71.5,248.167 71.5,233.5C 74.9804,231.824 77.4804,229.158 79,225.5C 73.127,172.644 85.7936,124.977 117,82.5C 120.632,77.8663 124.632,73.533 129,69.5C 129.791,68.255 130.291,66.9217 130.5,65.5C 131.321,62.3586 131.821,59.0252 132,55.5C 141.608,46.962 151.774,39.2953 162.5,32.5C 165.807,33.481 169.14,34.481 172.5,35.5C 186.032,29.0451 200.032,23.8784 214.5,20C 223.048,17.4195 231.714,16.5862 240.5,17.5C 231.758,32.4864 223.425,47.6531 215.5,63C 217.156,70.8594 221.489,73.026 228.5,69.5C 230.252,67.7541 231.585,65.7541 232.5,63.5 Z"/></g>
<g><path style="opacity:0.997" fill="#f2a238" d="M 162.5,32.5 C 151.774,39.2953 141.608,46.962 132,55.5C 131.821,59.0252 131.321,62.3586 130.5,65.5C 130.333,50.163 130.5,34.8297 131,19.5C 141.704,23.5619 152.204,27.8952 162.5,32.5 Z"/></g>
<g><path style="opacity:1" fill="#f2a238" d="M 380.5,65.5 C 379.681,62.6946 379.181,59.6946 379,56.5C 368.884,47.8693 358.384,39.8693 347.5,32.5C 358.067,28.1931 368.733,23.8597 379.5,19.5C 380.499,34.8189 380.833,50.1522 380.5,65.5 Z"/></g>
<g><path style="opacity:1" fill="#f4a338" d="M 278.5,63.5 C 263.167,63.5 247.833,63.5 232.5,63.5C 239.903,50.3629 247.57,37.3629 255.5,24.5C 263.43,37.3629 271.097,50.3629 278.5,63.5 Z"/></g>
<g><path style="opacity:1" fill="#282625" d="M 200.5,103.5 C 187.838,102.167 175.171,100.833 162.5,99.5C 166.647,112.441 171.313,125.107 176.5,137.5C 179.527,146.991 176.193,151.491 166.5,151C 165.333,149.833 164.167,148.667 163,147.5C 156.53,129.756 149.863,112.089 143,94.5C 140.823,87.7068 143.156,83.7068 150,82.5C 170.626,83.7612 191.126,85.9279 211.5,89C 215.32,92.9553 215.487,97.122 212,101.5C 208.38,103.183 204.546,103.85 200.5,103.5 Z"/></g>
<g><path style="opacity:1" fill="#282725" d="M 335.5,135.5 C 340.229,123.646 344.563,111.646 348.5,99.5C 334.339,100.631 320.339,101.965 306.5,103.5C 298.869,103.702 295.703,100.036 297,92.5C 297.833,90.3333 299.333,88.8333 301.5,88C 322.113,85.4657 342.779,83.7991 363.5,83C 368.224,85.4353 369.724,89.2686 368,94.5C 361.137,112.089 354.47,129.756 348,147.5C 343.255,152.743 338.588,152.743 334,147.5C 333.191,143.305 333.691,139.305 335.5,135.5 Z"/></g>
<g><path style="opacity:0.998" fill="#f4a338" d="M 200.5,103.5 C 193.549,112.957 186.382,122.291 179,131.5C 177.441,133.217 176.608,135.217 176.5,137.5C 171.313,125.107 166.647,112.441 162.5,99.5C 175.171,100.833 187.838,102.167 200.5,103.5 Z"/></g>
<g><path style="opacity:0.998" fill="#f3a238" d="M 335.5,135.5 C 327.306,124.978 318.973,114.478 310.5,104C 309.207,103.51 307.873,103.343 306.5,103.5C 320.339,101.965 334.339,100.631 348.5,99.5C 344.563,111.646 340.229,123.646 335.5,135.5 Z"/></g>
<g><path style="opacity:1" fill="#fcd995" d="M 117.5,111.5 C 125.658,110.823 129.158,114.49 128,122.5C 119.222,138.167 113.222,154.834 110,172.5C 105.667,176.5 101.333,176.5 97,172.5C 96.296,170.722 95.796,168.888 95.5,167C 98.447,146.639 105.78,128.139 117.5,111.5 Z"/></g>
<g><path style="opacity:1" fill="#ee9f38" d="M 74.5,117.5 C 75.8734,117.343 77.2068,117.51 78.5,118C 74.5422,126.539 71.3755,135.373 69,144.5C 64.0751,137.653 58.9085,130.986 53.5,124.5C 60.5276,121.999 67.5276,119.666 74.5,117.5 Z"/></g>
<g><path style="opacity:1" fill="#f0a038" d="M 432.5,118.5 C 440.887,119.187 449.221,121.187 457.5,124.5C 452.092,130.986 446.925,137.653 442,144.5C 439.697,135.417 436.531,126.75 432.5,118.5 Z"/></g>
<g><path style="opacity:1" fill="#2b2926" d="M 231.5,169.5 C 230.333,173.316 227.667,175.316 223.5,175.5C 218.291,175.123 215.625,172.29 215.5,167C 217.364,159.903 221.697,157.903 228.5,161C 230.93,163.305 231.93,166.138 231.5,169.5 Z"/></g>
<g><path style="opacity:1" fill="#282725" d="M 159.5,185.5 C 148.695,190.734 138.362,196.734 128.5,203.5C 138.362,210.266 148.695,216.266 159.5,221.5C 161.508,223.268 163.674,224.934 166,226.5C 168.101,230.665 167.601,234.498 164.5,238C 162.635,239.301 160.635,239.635 158.5,239C 140.507,229.339 122.84,219.172 105.5,208.5C 102.24,203.298 103.24,199.132 108.5,196C 124.5,186.667 140.5,177.333 156.5,168C 164.708,167.548 167.875,171.381 166,179.5C 163.963,181.706 161.797,183.706 159.5,185.5 Z"/></g>
<g><path style="opacity:1" fill="#272625" d="M 351.5,222.5 C 362.008,216.414 372.342,210.081 382.5,203.5C 372.342,196.919 362.008,190.586 351.5,184.5C 345.106,182.379 342.939,178.046 345,171.5C 347.412,168.208 350.579,167.041 354.5,168C 371.167,177.667 387.833,187.333 404.5,197C 408.379,201.298 408.379,205.631 404.5,210C 388.5,219.333 372.5,228.667 356.5,238C 346.498,239.999 342.665,236.166 345,226.5C 346.944,224.779 349.11,223.446 351.5,222.5 Z"/></g>
<g><path style="opacity:0.999" fill="#f4a338" d="M 231.5,169.5 C 231.281,170.675 231.614,171.675 232.5,172.5C 236.528,174.845 240.528,177.178 244.5,179.5C 243.259,182.508 243.426,185.508 245,188.5C 250.749,192.292 256.582,195.958 262.5,199.5C 249.637,207.43 236.637,215.097 223.5,222.5C 223.5,206.833 223.5,191.167 223.5,175.5C 227.667,175.316 230.333,173.316 231.5,169.5 Z"/></g>
<g><path style="opacity:1" fill="#272625" d="M 223.5,222.5 C 236.637,215.097 249.637,207.43 262.5,199.5C 256.582,195.958 250.749,192.292 245,188.5C 243.426,185.508 243.259,182.508 244.5,179.5C 247.68,175.296 251.68,174.463 256.5,177C 265.833,182.333 275.167,187.667 284.5,193C 287.848,196.419 288.348,200.252 286,204.5C 266.412,216.379 246.579,227.879 226.5,239C 222.048,239.86 218.548,238.36 216,234.5C 214.684,228.133 217.184,224.133 223.5,222.5 Z"/></g>
<g><path style="opacity:1" fill="#f3a338" d="M 159.5,185.5 C 159.5,197.5 159.5,209.5 159.5,221.5C 148.695,216.266 138.362,210.266 128.5,203.5C 138.362,196.734 148.695,190.734 159.5,185.5 Z"/></g>
<g><path style="opacity:1" fill="#f2a238" d="M 351.5,184.5 C 362.008,190.586 372.342,196.919 382.5,203.5C 372.342,210.081 362.008,216.414 351.5,222.5C 351.5,209.833 351.5,197.167 351.5,184.5 Z"/></g>
<g><path style="opacity:1" fill="#f4a338" d="M 71.5,233.5 C 71.5,248.167 71.5,262.833 71.5,277.5C 60.3566,270.425 49.3566,263.092 38.5,255.5C 49.3566,247.908 60.3566,240.575 71.5,233.5 Z"/></g>
<g><path style="opacity:1" fill="#f3a338" d="M 439.5,233.5 C 450.643,240.575 461.643,247.908 472.5,255.5C 461.959,263.598 450.959,270.931 439.5,277.5C 439.5,262.833 439.5,248.167 439.5,233.5 Z"/></g>
<g><path style="opacity:1" fill="#282725" d="M 159.5,289.5 C 148.695,294.734 138.362,300.734 128.5,307.5C 138.362,314.266 148.695,320.266 159.5,325.5C 162.485,327.255 164.985,329.588 167,332.5C 168.167,340.667 164.667,344.167 156.5,343C 139.169,333.337 122.169,323.17 105.5,312.5C 102.24,307.298 103.24,303.132 108.5,300C 124.5,290.667 140.5,281.333 156.5,272C 166.126,271.29 169.292,275.457 166,284.5C 163.674,286.066 161.508,287.732 159.5,289.5 Z"/></g>
<g><path style="opacity:1" fill="#272625" d="M 287.5,288.5 C 274.363,295.903 261.363,303.57 248.5,311.5C 261.068,319.617 274.068,326.95 287.5,333.5C 289.508,335.268 291.674,336.934 294,338.5C 296.335,348.166 292.502,351.999 282.5,350C 263.37,339.033 244.37,327.866 225.5,316.5C 222.248,311.253 223.248,307.086 228.5,304C 247.167,293.333 265.833,282.667 284.5,272C 294.048,271.253 297.215,275.42 294,284.5C 291.948,286.058 289.781,287.392 287.5,288.5 Z"/></g>
<g><path style="opacity:1" fill="#272625" d="M 351.5,326.5 C 362.008,320.414 372.342,314.081 382.5,307.5C 372.342,300.919 362.008,294.586 351.5,288.5C 345.106,286.379 342.939,282.046 345,275.5C 347.412,272.208 350.579,271.041 354.5,272C 371.167,281.667 387.833,291.333 404.5,301C 408.379,305.298 408.379,309.631 404.5,314C 388.5,323.333 372.5,332.667 356.5,342C 351.474,343.494 347.308,342.327 344,338.5C 342.684,332.133 345.184,328.133 351.5,326.5 Z"/></g>
<g><path style="opacity:1" fill="#f3a338" d="M 159.5,289.5 C 159.5,301.5 159.5,313.5 159.5,325.5C 148.695,320.266 138.362,314.266 128.5,307.5C 138.362,300.734 148.695,294.734 159.5,289.5 Z"/></g>
<g><path style="opacity:1" fill="#f4a338" d="M 287.5,288.5 C 287.5,303.5 287.5,318.5 287.5,333.5C 274.068,326.95 261.068,319.617 248.5,311.5C 261.363,303.57 274.363,295.903 287.5,288.5 Z"/></g>
<g><path style="opacity:1" fill="#f2a238" d="M 351.5,288.5 C 362.008,294.586 372.342,300.919 382.5,307.5C 372.342,314.081 362.008,320.414 351.5,326.5C 351.5,313.833 351.5,301.167 351.5,288.5 Z"/></g>
<g><path style="opacity:1" fill="#fcd995" d="M 404.5,335.5 C 408.987,335.161 412.487,336.827 415,340.5C 413.224,360.162 407.224,378.495 397,395.5C 391.837,401.062 387.171,400.729 383,394.5C 382.333,392.167 382.333,389.833 383,387.5C 391.431,372.876 397.098,357.209 400,340.5C 401.193,338.503 402.693,336.836 404.5,335.5 Z"/></g>
<g><path style="opacity:1" fill="#282725" d="M 176.5,373.5 C 171.066,385.459 166.399,397.792 162.5,410.5C 175.215,409.98 187.882,408.98 200.5,407.5C 205.118,406.924 209.285,407.924 213,410.5C 215.598,416.138 214.098,420.305 208.5,423C 189.127,424.554 169.793,426.387 150.5,428.5C 142.937,427.263 140.437,422.929 143,415.5C 149.735,397.794 156.569,380.127 163.5,362.5C 168.333,358.262 172.833,358.595 177,363.5C 177.543,366.868 177.376,370.201 176.5,373.5 Z"/></g>
<g><path style="opacity:1" fill="#272625" d="M 306.5,407.5 C 320.658,409.273 334.992,410.44 349.5,411C 344.38,398.457 339.38,385.957 334.5,373.5C 331.313,363.876 334.646,359.376 344.5,360C 345.667,361.167 346.833,362.333 348,363.5C 354.667,380.833 361.333,398.167 368,415.5C 370.29,424.206 366.957,428.539 358,428.5C 339.146,426.898 320.313,425.065 301.5,423C 297.489,420.649 295.989,417.149 297,412.5C 298.945,408.61 302.112,406.943 306.5,407.5 Z"/></g>
<g><path style="opacity:1" fill="#ec9e38" d="M 68.5,366.5 C 69.1174,366.611 69.6174,366.944 70,367.5C 72.041,376.29 74.8744,384.79 78.5,393C 75.7929,393.328 73.1262,392.995 70.5,392C 64.6276,390.619 58.961,388.786 53.5,386.5C 58.9957,380.161 63.9957,373.495 68.5,366.5 Z"/></g>
<g><path style="opacity:1" fill="#eea038" d="M 441.5,366.5 C 446.814,373.097 452.147,379.764 457.5,386.5C 449.318,389.462 440.985,391.628 432.5,393C 436.202,384.393 439.202,375.56 441.5,366.5 Z"/></g>
<g><path style="opacity:0.997" fill="#f4a338" d="M 176.5,373.5 C 176.608,375.783 177.441,377.783 179,379.5C 186.382,388.709 193.549,398.043 200.5,407.5C 187.882,408.98 175.215,409.98 162.5,410.5C 166.399,397.792 171.066,385.459 176.5,373.5 Z"/></g>
<g><path style="opacity:1" fill="#f1a238" d="M 334.5,373.5 C 339.38,385.957 344.38,398.457 349.5,411C 334.992,410.44 320.658,409.273 306.5,407.5C 309.888,407.812 312.388,406.479 314,403.5C 320.333,395.167 326.667,386.833 333,378.5C 334.009,376.975 334.509,375.308 334.5,373.5 Z"/></g>
<g><path style="opacity:1" fill="#f3a238" d="M 232.5,447.5 C 247.833,447.5 263.167,447.5 278.5,447.5C 271.097,460.637 263.43,473.637 255.5,486.5C 247.57,473.637 239.903,460.637 232.5,447.5 Z"/></g>
<g><path style="opacity:0.997" fill="#f3a338" d="M 130.5,444.5 C 131.323,447.977 131.823,451.644 132,455.5C 141.608,464.038 151.774,471.705 162.5,478.5C 152.204,483.105 141.704,487.438 131,491.5C 130.5,475.837 130.333,460.17 130.5,444.5 Z"/></g>
<g><path style="opacity:1" fill="#f2a238" d="M 380.5,444.5 C 380.5,455.5 380.5,466.5 380.5,477.5C 381.097,482.294 380.43,486.627 378.5,490.5C 367.934,486.871 357.601,482.871 347.5,478.5C 359.094,472.441 369.594,464.775 379,455.5C 379.177,451.644 379.677,447.977 380.5,444.5 Z"/></g>
<g><path style="opacity:1" fill="#694e2b" d="M 380.5,477.5 C 381.486,481.97 381.819,486.637 381.5,491.5C 380.209,491.737 379.209,491.404 378.5,490.5C 380.43,486.627 381.097,482.294 380.5,477.5 Z"/></g>
</svg>
