<?xml version="1.0" encoding="UTF-8"?>
<!DOCTYPE svg PUBLIC "-//W3C//DTD SVG 1.1//EN" "http://www.w3.org/Graphics/SVG/1.1/DTD/svg11.dtd">
<svg xmlns="http://www.w3.org/2000/svg" version="1.1" width="512px" height="512px" style="shape-rendering:geometricPrecision; text-rendering:geometricPrecision; image-rendering:optimizeQuality; fill-rule:evenodd; clip-rule:evenodd" xmlns:xlink="http://www.w3.org/1999/xlink">
<g><path style="opacity:0.977" fill="#010100" d="M 511.5,244.5 C 511.5,255.5 511.5,266.5 511.5,277.5C 503.69,333.131 475.69,375.298 427.5,404C 382.096,426.717 335.43,429.551 287.5,412.5C 225.907,427.563 166.24,422.063 108.5,396C 70.2173,377.717 41.0507,349.884 21,312.5C 15.453,300.693 11.6197,288.36 9.5,275.5C 5.46816,275.814 2.13482,274.481 -0.5,271.5C -0.5,268.5 -0.5,265.5 -0.5,262.5C 1.93399,259.562 4.60066,256.729 7.5,254C 4.60066,251.271 1.93399,248.438 -0.5,245.5C -0.5,242.833 -0.5,240.167 -0.5,237.5C 1.68343,233.741 5.01676,232.075 9.5,232.5C 16.8873,196.893 34.2206,167.059 61.5,143C 107.872,105.651 161.039,87.1507 221,87.5C 255.637,87.0503 288.97,93.3836 321,106.5C 349.005,93.6037 378.171,89.7704 408.5,95C 425.743,99.3695 440.243,108.203 452,121.5C 485.059,156.071 504.892,197.071 511.5,244.5 Z"/></g>
<g><path style="opacity:1" fill="#785447" d="M 207.5,104.5 C 232.445,104.327 257.112,106.827 281.5,112C 287.275,113.813 292.942,115.813 298.5,118C 251.279,146.217 216.446,185.383 194,235.5C 181.917,262.486 178.583,290.486 184,319.5C 186.359,329.55 190.359,338.883 196,347.5C 214.608,369.117 236.442,386.617 261.5,400C 205.401,409.028 152.401,400.028 102.5,373C 72.0481,355.213 49.2148,330.38 34,298.5C 31.119,291.025 28.9523,283.358 27.5,275.5C 27.8333,274.833 28.1667,274.167 28.5,273.5C 35.7122,277.063 40.3789,274.896 42.5,267C 42.3749,265.373 41.8749,263.873 41,262.5C 38.1149,259.952 35.6149,257.118 33.5,254C 35.6149,250.882 38.1149,248.048 41,245.5C 42.3093,234.308 37.8093,230.975 27.5,235.5C 30.1353,216.197 37.302,198.531 49,182.5C 78.8916,145.119 117.392,121.286 164.5,111C 178.903,108.35 193.236,106.183 207.5,104.5 Z"/></g>
<g><path style="opacity:1" fill="#88c048" d="M 401.5,111.5 C 429.157,132.343 439.657,160.009 433,194.5C 432.147,198.469 431.481,202.469 431,206.5C 430.617,207.056 430.117,207.389 429.5,207.5C 425.716,204.576 421.383,203.743 416.5,205C 410.21,206.823 403.877,208.489 397.5,210C 392.176,215.046 392.176,220.046 397.5,225C 400.167,225.667 402.833,225.667 405.5,225C 412.173,223.498 418.84,221.998 425.5,220.5C 426.043,220.56 426.376,220.893 426.5,221.5C 425.235,224.796 424.068,228.129 423,231.5C 420.916,237.339 418.083,242.673 414.5,247.5C 413.71,246.206 412.71,245.039 411.5,244C 404.003,242.501 396.503,241.001 389,239.5C 382.099,240.75 379.766,244.75 382,251.5C 382.465,252.931 383.299,254.097 384.5,255C 391.334,257.192 398.334,258.692 405.5,259.5C 406.263,260.268 407.263,260.768 408.5,261C 402.107,271.394 394.94,281.227 387,290.5C 386.79,288.942 386.29,287.609 385.5,286.5C 381.042,280.207 375.708,274.707 369.5,270C 360.115,269.378 356.615,273.544 359,282.5C 363.5,287 368,291.5 372.5,296C 375.014,297.252 377.68,297.752 380.5,297.5C 365.076,316.037 347.076,331.537 326.5,344C 318.568,348.795 310.568,353.295 302.5,357.5C 285.197,363.097 267.53,364.597 249.5,362C 222,355.833 205.167,339 199,311.5C 195.935,286.817 199.602,263.151 210,240.5C 239.207,178.621 286.04,136.454 350.5,114C 367.385,109.196 384.385,108.362 401.5,111.5 Z"/></g>
<g><path style="opacity:1" fill="#54892f" d="M 401.5,111.5 C 429.863,118.032 446.363,135.698 451,164.5C 452.419,197.585 444.419,228.252 427,256.5C 400.854,298.652 365.354,330.152 320.5,351C 314.515,353.272 308.515,355.439 302.5,357.5C 310.568,353.295 318.568,348.795 326.5,344C 347.076,331.537 365.076,316.037 380.5,297.5C 384.947,295.239 386.614,291.572 385.5,286.5C 386.29,287.609 386.79,288.942 387,290.5C 394.94,281.227 402.107,271.394 408.5,261C 407.263,260.768 406.263,260.268 405.5,259.5C 413.339,259.161 416.339,255.161 414.5,247.5C 418.083,242.673 420.916,237.339 423,231.5C 424.068,228.129 425.235,224.796 426.5,221.5C 426.376,220.893 426.043,220.56 425.5,220.5C 430.314,217.357 431.647,213.023 429.5,207.5C 430.117,207.389 430.617,207.056 431,206.5C 431.481,202.469 432.147,198.469 433,194.5C 439.657,160.009 429.157,132.343 401.5,111.5 Z"/></g>
<g><path style="opacity:1" fill="#040302" d="M 191.5,122.5 C 198.622,120.885 202.955,123.552 204.5,130.5C 202.726,137.441 198.393,139.941 191.5,138C 186.208,132.835 186.208,127.668 191.5,122.5 Z"/></g>
<g><path style="opacity:1" fill="#030501" d="M 377.5,129.5 C 386.161,128.329 389.994,131.996 389,140.5C 384.92,148.329 380.587,155.996 376,163.5C 370.186,169.205 365.186,168.538 361,161.5C 360.333,159.5 360.333,157.5 361,155.5C 365.789,146.225 371.289,137.558 377.5,129.5 Z"/></g>
<g><path style="opacity:1" fill="#020101" d="M 158.5,130.5 C 168.743,130.817 171.743,135.65 167.5,145C 143.973,153.756 122.64,166.089 103.5,182C 98.4664,186.699 93.7998,191.699 89.5,197C 78.4907,199.654 74.6574,195.487 78,184.5C 90.7882,169.039 105.955,156.539 123.5,147C 135.016,140.906 146.683,135.406 158.5,130.5 Z"/></g>
<g><path style="opacity:1" fill="#020200" d="M 341.5,131.5 C 348.304,130.221 352.304,132.888 353.5,139.5C 352.113,147.936 350.279,156.27 348,164.5C 343.62,169.343 338.954,169.677 334,165.5C 333.192,163.577 332.692,161.577 332.5,159.5C 333.894,152.15 335.394,144.816 337,137.5C 338.332,135.34 339.832,133.34 341.5,131.5 Z"/></g>
<g><path style="opacity:1" fill="#050702" d="M 405.5,143.5 C 414.056,143.219 417.889,147.219 417,155.5C 410.167,163.667 402.667,171.167 394.5,178C 389.467,179.567 385.633,178.067 383,173.5C 382.333,171.167 382.333,168.833 383,166.5C 390.702,158.965 398.202,151.298 405.5,143.5 Z"/></g>
<g><path style="opacity:1" fill="#020301" d="M 302.5,148.5 C 307.223,147.553 311.056,148.886 314,152.5C 316.211,159.176 317.711,166.01 318.5,173C 317.602,180.125 313.602,182.792 306.5,181C 305.333,179.833 304.167,178.667 303,177.5C 300.211,169.359 298.878,161.026 299,152.5C 299.69,150.65 300.856,149.316 302.5,148.5 Z"/></g>
<g><path style="opacity:1" fill="#040602" d="M 419.5,168.5 C 428.874,168.357 432.374,172.69 430,181.5C 421.769,187.394 413.269,192.894 404.5,198C 394.623,198.441 391.456,193.941 395,184.5C 403.317,179.267 411.484,173.934 419.5,168.5 Z"/></g>
<g><path style="opacity:1" fill="#050702" d="M 332.5,174.5 C 342.543,173.701 346.043,178.034 343,187.5C 338.404,191.432 333.737,191.432 329,187.5C 326.343,182.084 327.51,177.75 332.5,174.5 Z"/></g>
<g><path style="opacity:1" fill="#4d332d" d="M 401.5,395.5 C 467.054,353.006 491.221,293.339 474,216.5C 472.548,209.624 470.048,203.291 466.5,197.5C 467.442,189.538 468.275,181.538 469,173.5C 494.255,215.207 500.255,259.541 487,306.5C 472.758,345.741 446.924,374.575 409.5,393C 406.904,394.136 404.237,394.969 401.5,395.5 Z"/></g>
<g><path style="opacity:1" fill="#030501" d="M 268.5,174.5 C 271.32,174.248 273.986,174.748 276.5,176C 281,180.5 285.5,185 290,189.5C 293,196.834 290.666,201.501 283,203.5C 281.373,203.375 279.873,202.875 278.5,202C 274,197.5 269.5,193 265,188.5C 262.267,182.722 263.434,178.056 268.5,174.5 Z"/></g>
<g><path style="opacity:1" fill="#020301" d="M 367.5,181.5 C 376.657,180.489 380.49,184.489 379,193.5C 374,198.833 369,198.833 364,193.5C 362.593,188.643 363.76,184.643 367.5,181.5 Z"/></g>
<g><path style="opacity:1" fill="#030401" d="M 327.5,197.5 C 329.857,197.337 332.19,197.503 334.5,198C 337.833,200.667 341.167,203.333 344.5,206C 349.201,206.719 353.867,206.553 358.5,205.5C 362.687,206.017 364.687,208.351 364.5,212.5C 364.406,214.923 363.906,217.256 363,219.5C 354.419,229.117 350.086,240.451 350,253.5C 344.537,261.999 336.704,265.499 326.5,264C 323.007,264.942 319.674,266.275 316.5,268C 299.802,282.43 292.636,278.93 295,257.5C 293.093,253.59 290.427,250.256 287,247.5C 285.266,240.427 287.433,234.594 293.5,230C 304.333,224.5 312.5,216.333 318,205.5C 320.772,202.217 323.939,199.55 327.5,197.5 Z"/></g>
<g><path style="opacity:1" fill="#785447" d="M 466.5,197.5 C 470.048,203.291 472.548,209.624 474,216.5C 491.221,293.339 467.054,353.006 401.5,395.5C 392.036,399.816 382.036,402.65 371.5,404C 331.951,409.024 295.284,401.024 261.5,380C 299.233,378.867 333.566,367.533 364.5,346C 408.019,316.151 439.519,276.651 459,227.5C 462.132,217.638 464.632,207.638 466.5,197.5 Z"/></g>
<g><path style="opacity:1" fill="#010200" d="M 429.5,207.5 C 431.647,213.023 430.314,217.357 425.5,220.5C 418.84,221.998 412.173,223.498 405.5,225C 402.833,225.667 400.167,225.667 397.5,225C 392.176,220.046 392.176,215.046 397.5,210C 403.877,208.489 410.21,206.823 416.5,205C 421.383,203.743 425.716,204.576 429.5,207.5 Z"/></g>
<g><path style="opacity:1" fill="#040502" d="M 239.5,212.5 C 248.305,213.761 256.972,215.594 265.5,218C 268.848,221.419 269.348,225.252 267,229.5C 264.694,231.888 261.861,232.888 258.5,232.5C 251.769,231.658 245.102,230.491 238.5,229C 231.671,223.003 232.004,217.503 239.5,212.5 Z"/></g>
<g><path style="opacity:1" fill="#88bf48" d="M 325.5,214.5 C 328.946,216.109 332.279,217.943 335.5,220C 339.833,220.333 344.167,220.667 348.5,221C 341.788,229.299 338.121,238.799 337.5,249.5C 327.26,249.87 318.093,253.203 310,259.5C 310.473,251.249 307.973,244.083 302.5,238C 311.71,231.624 319.376,223.791 325.5,214.5 Z"/></g>
<g><path style="opacity:1" fill="#060803" d="M 375.5,214.5 C 383.498,214 387.331,217.667 387,225.5C 384.89,230.945 381.056,232.778 375.5,231C 368.881,225.471 368.881,219.971 375.5,214.5 Z"/></g>
<g><path style="opacity:1" fill="#020401" d="M 414.5,247.5 C 416.339,255.161 413.339,259.161 405.5,259.5C 398.334,258.692 391.334,257.192 384.5,255C 383.299,254.097 382.465,252.931 382,251.5C 379.766,244.75 382.099,240.75 389,239.5C 396.503,241.001 404.003,242.501 411.5,244C 412.71,245.039 413.71,246.206 414.5,247.5 Z"/></g>
<g><path style="opacity:1" fill="#010200" d="M 266.5,241.5 C 275.657,240.489 279.49,244.489 278,253.5C 273.625,258.381 268.958,258.715 264,254.5C 261.606,249.527 262.44,245.194 266.5,241.5 Z"/></g>
<g><path style="opacity:1" fill="#030401" d="M 244.5,246.5 C 252.498,246 256.331,249.667 256,257.5C 255.215,259.286 254.049,260.786 252.5,262C 243.074,265.442 233.408,267.442 223.5,268C 217.355,263.306 217.021,258.306 222.5,253C 230.026,251.123 237.359,248.956 244.5,246.5 Z"/></g>
<g><path style="opacity:1" fill="#030401" d="M 385.5,286.5 C 386.614,291.572 384.947,295.239 380.5,297.5C 377.68,297.752 375.014,297.252 372.5,296C 368,291.5 363.5,287 359,282.5C 356.615,273.544 360.115,269.378 369.5,270C 375.708,274.707 381.042,280.207 385.5,286.5 Z"/></g>
<g><path style="opacity:1" fill="#030401" d="M 244.5,274.5 C 254.863,274.656 258.03,279.323 254,288.5C 245.437,294.697 236.27,299.697 226.5,303.5C 219.037,301.909 216.871,297.575 220,290.5C 227.976,284.77 236.142,279.436 244.5,274.5 Z"/></g>
<g><path style="opacity:1" fill="#050802" d="M 275.5,274.5 C 282.985,274.483 286.485,278.15 286,285.5C 283.89,290.945 280.056,292.778 274.5,291C 267.539,284.963 267.872,279.463 275.5,274.5 Z"/></g>
<g><path style="opacity:1" fill="#060803" d="M 310.5,281.5 C 319.153,280.987 322.653,284.987 321,293.5C 318.72,297.768 315.22,299.268 310.5,298C 305.845,295.103 304.345,290.937 306,285.5C 307.397,283.93 308.897,282.596 310.5,281.5 Z"/></g>
<g><path style="opacity:1" fill="#030401" d="M 335.5,291.5 C 340.742,290.271 344.575,291.937 347,296.5C 349.018,303.053 350.518,309.719 351.5,316.5C 350.303,323.273 346.303,325.773 339.5,324C 338.069,323.535 336.903,322.701 336,321.5C 334.166,314.165 332.333,306.832 330.5,299.5C 330.672,295.807 332.339,293.141 335.5,291.5 Z"/></g>
<g><path style="opacity:1" fill="#040502" d="M 254.5,294.5 C 263.711,293.542 267.545,297.542 266,306.5C 259.865,313.636 253.365,320.469 246.5,327C 240.376,331.043 235.542,329.876 232,323.5C 231.294,321.029 231.627,318.695 233,316.5C 240.369,309.298 247.536,301.965 254.5,294.5 Z"/></g>
<g><path style="opacity:1" fill="#030401" d="M 304.5,304.5 C 307.978,304.184 311.312,304.684 314.5,306C 315.958,308.077 316.624,310.41 316.5,313C 315.221,321.618 313.387,330.118 311,338.5C 303.093,343.631 297.927,341.631 295.5,332.5C 297.022,324.433 298.855,316.433 301,308.5C 302.376,307.295 303.542,305.962 304.5,304.5 Z"/></g>
<g><path style="opacity:1" fill="#030401" d="M 277.5,305.5 C 286.174,305.006 289.674,309.006 288,317.5C 283.92,325.329 279.587,332.996 275,340.5C 264.414,345.859 259.748,342.526 261,330.5C 265.253,323.663 269.253,316.663 273,309.5C 274.397,307.93 275.897,306.596 277.5,305.5 Z"/></g>
</svg>
