<?xml version="1.0" encoding="UTF-8"?>
<!DOCTYPE svg PUBLIC "-//W3C//DTD SVG 1.1//EN" "http://www.w3.org/Graphics/SVG/1.1/DTD/svg11.dtd">
<svg xmlns="http://www.w3.org/2000/svg" version="1.1" width="512px" height="512px" style="shape-rendering:geometricPrecision; text-rendering:geometricPrecision; image-rendering:optimizeQuality; fill-rule:evenodd; clip-rule:evenodd" xmlns:xlink="http://www.w3.org/1999/xlink">
<g><path style="opacity:0.968" fill="#010000" d="M 511.5,165.5 C 511.5,174.5 511.5,183.5 511.5,192.5C 510.737,196.952 509.237,201.285 507,205.5C 503.922,207.931 500.422,208.931 496.5,208.5C 493.861,206.691 491.694,204.358 490,201.5C 490.24,194.158 490.573,186.825 491,179.5C 480.771,188.029 470.271,196.196 459.5,204C 450.755,206.872 445.589,203.705 444,194.5C 443.25,184.415 441.917,174.415 440,164.5C 436.908,170.522 434.574,176.856 433,183.5C 417.244,192.921 406.244,206.255 400,223.5C 398.015,240.175 405.348,248.841 422,249.5C 428.856,248.858 435.69,248.358 442.5,248C 446.015,249.018 448.348,251.185 449.5,254.5C 450.684,258.801 449.684,262.634 446.5,266C 438.729,268.64 430.729,270.307 422.5,271C 413.438,282.016 402.438,290.349 389.5,296C 382.223,297.467 374.889,297.801 367.5,297C 345.508,292.972 323.675,289.472 302,286.5C 298.291,294.199 293.791,301.366 288.5,308C 292.5,312 296.5,316 300.5,320C 316.833,320.333 333.167,320.667 349.5,321C 355.633,325.409 356.8,330.909 353,337.5C 352.097,338.701 350.931,339.535 349.5,340C 330.167,340.667 310.833,340.667 291.5,340C 285.684,335.018 280.017,329.851 274.5,324.5C 270.017,328.572 265.351,332.406 260.5,336C 268.167,343.667 275.833,351.333 283.5,359C 299.833,359.333 316.167,359.667 332.5,360C 340.5,366.333 340.5,372.667 332.5,379C 313.167,379.667 293.833,379.667 274.5,379C 263.363,368.863 252.529,358.363 242,347.5C 236.148,351.009 229.981,353.843 223.5,356C 238.167,370.667 252.833,385.333 267.5,400C 283.833,400.333 300.167,400.667 316.5,401C 323.49,406.296 324.157,412.296 318.5,419C 316.913,419.862 315.246,420.529 313.5,421C 304.833,421.167 296.167,421.333 287.5,421.5C 277.763,421.628 268.096,421.128 258.5,420C 242.348,404.682 226.348,389.182 210.5,373.5C 204.353,378.48 198.353,383.646 192.5,389C 174.4,401.801 156.566,414.967 139,428.5C 139.383,444.522 140.049,460.522 141,476.5C 137.707,493.959 127.207,503.625 109.5,505.5C 102.639,504.824 96.3054,502.657 90.5,499C 83.211,492.717 77.0443,485.551 72,477.5C 71.023,475.26 70.523,472.927 70.5,470.5C 48.5,467.833 36.1667,455.5 33.5,433.5C 28.2917,433.063 23.625,431.23 19.5,428C 14.6667,423.167 9.83333,418.333 5,413.5C 2.6738,409.983 0.840466,406.317 -0.5,402.5C -0.5,397.167 -0.5,391.833 -0.5,386.5C 4.53168,371.816 14.865,363.816 30.5,362.5C 45.3907,363.709 60.2241,365.042 75,366.5C 82.3676,355.109 90.7009,344.442 100,334.5C 108.59,319.57 119.09,306.07 131.5,294C 115.304,278.138 99.4709,261.971 84,245.5C 82.3731,227.232 82.0398,208.899 83,190.5C 85.6277,182.843 90.7944,180.343 98.5,183C 100.333,184.167 101.833,185.667 103,187.5C 103.333,203.833 103.667,220.167 104,236.5C 118.667,251.167 133.333,265.833 148,280.5C 150.256,274.062 153.09,267.896 156.5,262C 145.637,251.471 135.137,240.637 125,229.5C 124.333,210.167 124.333,190.833 125,171.5C 128.655,166.725 133.488,165.225 139.5,167C 141.333,168.167 142.833,169.667 144,171.5C 145.275,188.114 145.941,204.78 146,221.5C 153.333,228.833 160.667,236.167 168,243.5C 171.594,238.649 175.428,233.983 179.5,229.5C 174.149,223.983 168.982,218.316 164,212.5C 163.333,193.167 163.333,173.833 164,154.5C 168.391,148.374 173.891,147.208 180.5,151C 181.701,151.903 182.535,153.069 183,154.5C 184.275,171.114 184.941,187.78 185,204.5C 188.667,208.167 192.333,211.833 196,215.5C 203.248,210.458 210.748,205.791 218.5,201.5C 214.453,179.887 210.62,158.22 207,136.5C 204.941,123.407 207.608,111.407 215,100.5C 220.301,94.1979 225.968,88.1979 232,82.5C 235.236,48.9498 252.069,25.1165 282.5,11C 303.477,1.61263 321.644,5.44597 337,22.5C 344.548,34.5602 346.548,47.5602 343,61.5C 333.419,96.4143 310.919,117.581 275.5,125C 271.263,129.477 268.929,134.81 268.5,141C 271.123,156.446 274.123,171.78 277.5,187C 282.833,187.667 288.167,187.667 293.5,187C 338.562,140.021 364.062,83.8544 370,18.5C 374.655,13.082 380.155,12.082 386.5,15.5C 388.78,17.6635 390.114,20.3301 390.5,23.5C 386.007,73.3176 370.007,118.984 342.5,160.5C 343.002,161.521 343.668,161.688 344.5,161C 387.086,132.249 434.086,116.916 485.5,115C 493.04,121.203 493.04,127.536 485.5,134C 475.655,135.118 465.989,136.785 456.5,139C 458.756,151.121 460.923,163.287 463,175.5C 473.744,167.212 484.577,159.045 495.5,151C 501.581,149.142 506.081,150.975 509,156.5C 509.841,159.628 510.675,162.628 511.5,165.5 Z M 424.5,146.5 C 421.114,154.321 418.114,162.321 415.5,170.5C 394.912,185.005 382.412,204.672 378,229.5C 373.611,233.355 368.444,235.355 362.5,235.5C 347.233,232.813 332.067,229.813 317,226.5C 316.333,221.167 316.333,215.833 317,210.5C 347.456,180.346 383.29,159.013 424.5,146.5 Z"/></g>
<g><path style="opacity:1" fill="#fb7977" d="M 298.5,26.5 C 302.703,26.0761 306.703,26.5761 310.5,28C 301,37.5 291.5,47 282,56.5C 279.122,62.6698 280.289,67.8365 285.5,72C 288.964,72.8166 292.298,72.4833 295.5,71C 304.681,61.6523 314.014,52.4856 323.5,43.5C 322.643,75.0013 306.976,95.1679 276.5,104C 268.114,107.478 260.948,105.978 255,99.5C 250.118,63.5615 264.618,39.2282 298.5,26.5 Z"/></g>
<g><path style="opacity:1" fill="#fa9998" d="M 235.5,107.5 C 240.458,113.125 245.791,118.458 251.5,123.5C 248.641,131.933 247.808,140.599 249,149.5C 251.734,163.139 254.234,176.806 256.5,190.5C 249.984,191.046 243.651,192.38 237.5,194.5C 233.942,172.15 230.275,149.816 226.5,127.5C 226.542,124.741 227.042,122.075 228,119.5C 229.96,115.066 232.46,111.066 235.5,107.5 Z"/></g>
<g><path style="opacity:0.996" fill="#fc7977" d="M 496.5,208.5 C 493.863,215.777 490.196,222.444 485.5,228.5C 476.299,223.866 470.299,226.366 467.5,236C 468.093,238.683 469.093,241.183 470.5,243.5C 464.219,248.474 457.219,252.141 449.5,254.5C 448.348,251.185 446.015,249.018 442.5,248C 435.69,248.358 428.856,248.858 422,249.5C 405.348,248.841 398.015,240.175 400,223.5C 406.244,206.255 417.244,192.921 433,183.5C 434.574,176.856 436.908,170.522 440,164.5C 441.917,174.415 443.25,184.415 444,194.5C 445.589,203.705 450.755,206.872 459.5,204C 470.271,196.196 480.771,188.029 491,179.5C 490.573,186.825 490.24,194.158 490,201.5C 491.694,204.358 493.861,206.691 496.5,208.5 Z"/></g>
<g><path style="opacity:1" fill="#fd7a78" d="M 269.5,207.5 C 278.418,207.183 287.251,207.516 296,208.5C 299.424,259.633 279.924,299.133 237.5,327C 229.3,331.786 220.633,335.286 211.5,337.5C 205.661,313.993 190.994,298.993 167.5,292.5C 167.167,291.833 166.833,291.167 166.5,290.5C 184.588,242.628 218.922,214.962 269.5,207.5 Z"/></g>
<g><path style="opacity:0.937" fill="#050202" d="M 485.5,228.5 C 490.704,237.724 488.204,243.724 478,246.5C 474.956,246.548 472.456,245.548 470.5,243.5C 469.093,241.183 468.093,238.683 467.5,236C 470.299,226.366 476.299,223.866 485.5,228.5 Z"/></g>
<g><path style="opacity:1" fill="#f99897" d="M 313.5,247.5 C 326.573,249.548 339.573,252.048 352.5,255C 363.653,256.688 374.32,255.188 384.5,250.5C 388.833,255.5 393.5,260.167 398.5,264.5C 393.155,272.588 385.655,276.922 376,277.5C 353.783,274.103 331.616,270.436 309.5,266.5C 311.582,260.348 312.915,254.015 313.5,247.5 Z"/></g>
<g><path style="opacity:1" fill="#fb9998" d="M 143.5,310.5 C 165.591,308.122 181.424,316.789 191,336.5C 193.596,344.538 194.096,352.705 192.5,361C 185.648,367.517 178.482,373.684 171,379.5C 164.084,355.752 148.918,340.086 125.5,332.5C 131.145,324.857 137.145,317.524 143.5,310.5 Z"/></g>
<g><path style="opacity:1" fill="#fbbab9" d="M 111.5,352.5 C 133.638,353.466 147.138,364.8 152,386.5C 152.814,388.902 152.647,391.235 151.5,393.5C 145.853,398.323 139.853,402.657 133.5,406.5C 126.5,389.5 114.5,377.5 97.5,370.5C 101.809,364.195 106.475,358.195 111.5,352.5 Z"/></g>
<g><path style="opacity:1" fill="#fc7977" d="M 26.5,383.5 C 45.1653,384.619 63.832,385.786 82.5,387C 104.606,393.107 116.439,407.607 118,430.5C 119.57,446.14 120.237,461.807 120,477.5C 116.867,483.327 112.034,485.493 105.5,484C 100.699,480.201 96.1994,476.034 92,471.5C 90.7758,466.614 90.1091,461.614 90,456.5C 89.2155,454.714 88.0488,453.214 86.5,452C 79.5284,450.958 72.5284,449.958 65.5,449C 54.6286,441.337 50.1286,430.837 52,417.5C 50.6811,415.513 48.8477,414.346 46.5,414C 41.7176,413.881 37.0509,413.215 32.5,412C 27.5854,407.756 23.4187,402.923 20,397.5C 18.6694,391.163 20.8361,386.497 26.5,383.5 Z"/></g>
</svg>
