<?xml version="1.0" encoding="UTF-8"?>
<!DOCTYPE svg PUBLIC "-//W3C//DTD SVG 1.1//EN" "http://www.w3.org/Graphics/SVG/1.1/DTD/svg11.dtd">
<svg xmlns="http://www.w3.org/2000/svg" version="1.1" width="512px" height="512px" style="shape-rendering:geometricPrecision; text-rendering:geometricPrecision; image-rendering:optimizeQuality; fill-rule:evenodd; clip-rule:evenodd" xmlns:xlink="http://www.w3.org/1999/xlink">
<g><path style="opacity:0.974" fill="#030101" d="M 284.5,-0.5 C 295.5,-0.5 306.5,-0.5 317.5,-0.5C 321.445,4.00263 321.445,8.50263 317.5,13C 304.335,12.9116 291.335,14.2449 278.5,17C 255.164,25.5014 241.498,42.0014 237.5,66.5C 240.5,66.5 243.5,66.5 246.5,66.5C 249.138,55.3924 255.138,46.5591 264.5,40C 288.248,25.4846 313.914,20.6513 341.5,25.5C 345.5,29.5 345.5,33.5 341.5,37.5C 329.866,38.3801 318.199,39.2134 306.5,40C 293.62,41.7356 281.953,46.4022 271.5,54C 267.546,57.1169 264.546,60.9503 262.5,65.5C 297.184,66.071 331.85,66.9043 366.5,68C 438.593,80.4262 485.426,121.593 507,191.5C 508.625,198.947 510.125,206.28 511.5,213.5C 511.5,225.5 511.5,237.5 511.5,249.5C 501.045,303.438 468.712,335.605 414.5,346C 396.881,348.453 379.548,347.453 362.5,343C 352.333,351.833 342.167,360.667 332,369.5C 319.96,411.875 293.127,440.375 251.5,455C 234.544,460.286 217.211,462.286 199.5,461C 190.422,459.781 181.422,458.448 172.5,457C 151.428,475.184 130.428,493.351 109.5,511.5C 106.833,511.5 104.167,511.5 101.5,511.5C 97.7442,507.664 95.2442,502.997 94,497.5C 87.8065,475.351 90.9732,454.685 103.5,435.5C 72.9535,425.115 54.1202,404.115 47,372.5C 44.8333,362.667 48.6667,358.833 58.5,361C 89.6941,371.176 120.861,381.343 152,391.5C 166.681,389.499 179.848,383.999 191.5,375C 200.311,366.216 206.144,355.716 209,343.5C 210.509,341.081 212.675,340.081 215.5,340.5C 222.688,342.807 224.521,347.474 221,354.5C 218.931,359.541 216.764,364.541 214.5,369.5C 238.392,392.69 267.059,403.69 300.5,402.5C 318.127,377.658 324.96,349.991 321,319.5C 318.779,296.836 311.779,275.836 300,256.5C 277.986,287.257 248.486,306.59 211.5,314.5C 209.011,314.702 206.677,314.202 204.5,313C 193.909,294.37 177.909,284.37 156.5,283C 136.467,282.912 116.467,282.245 96.5,281C 41.6563,267.993 9.32295,233.826 -0.5,178.5C -0.5,172.167 -0.5,165.833 -0.5,159.5C 0.626561,158.878 1.62656,158.045 2.5,157C 8.52751,156.83 14.5275,156.33 20.5,155.5C 26.5621,117.941 47.8955,94.1073 84.5,84C 97.4578,82.4559 110.458,82.1225 123.5,83C 126.394,85.9087 127.227,89.4087 126,93.5C 124.992,95.259 123.492,96.4257 121.5,97C 95.0819,93.4675 72.2485,100.634 53,118.5C 43.7958,129.409 37.9625,141.909 35.5,156C 39.1667,156.667 42.8333,156.667 46.5,156C 52.2783,137.552 64.2783,124.885 82.5,118C 103.846,110.249 125.846,107.582 148.5,110C 153.833,114.667 153.833,119.333 148.5,124C 129.047,122.904 110.047,125.238 91.5,131C 78.6798,135.83 69.0131,144.163 62.5,156C 99.1667,156.333 135.833,156.667 172.5,157C 233.377,164.832 279.877,194.665 312,246.5C 317.047,255.926 321.547,265.593 325.5,275.5C 331.131,278.488 337.131,280.488 343.5,281.5C 370.698,279.123 387.531,264.79 394,238.5C 395.255,210.506 382.422,192.672 355.5,185C 340.833,184.667 326.167,184.333 311.5,184C 307.271,183.271 304.938,180.771 304.5,176.5C 305.508,173.972 307.174,171.805 309.5,170C 315.167,169.667 320.833,169.333 326.5,169C 351.996,145.829 370.33,117.995 381.5,85.5C 371.616,83.3646 361.616,82.0312 351.5,81.5C 306.67,80.5013 261.67,80.1679 216.5,80.5C 216.263,81.791 216.596,82.791 217.5,83.5C 219.324,100.148 224.824,115.481 234,129.5C 234.612,132.611 233.779,135.277 231.5,137.5C 228.927,138.555 226.261,138.722 223.5,138C 208.237,118.125 201.403,95.6249 203,70.5C 204.167,69.3333 205.333,68.1667 206.5,67C 211.823,66.5006 217.156,66.334 222.5,66.5C 227.983,30.02 248.65,7.68668 284.5,-0.5 Z"/></g>
<g><path style="opacity:1" fill="#756044" d="M 351.5,81.5 C 306.488,80.8385 261.821,81.5051 217.5,83.5C 216.596,82.791 216.263,81.791 216.5,80.5C 261.67,80.1679 306.67,80.5013 351.5,81.5 Z"/></g>
<g><path style="opacity:0.999" fill="#fed295" d="M 351.5,81.5 C 361.616,82.0312 371.616,83.3646 381.5,85.5C 370.33,117.995 351.996,145.829 326.5,169C 320.833,169.333 315.167,169.667 309.5,170C 307.174,171.805 305.508,173.972 304.5,176.5C 294.804,176.075 285.47,174.075 276.5,170.5C 276.662,168.473 276.495,166.473 276,164.5C 272.266,161.048 268.1,158.215 263.5,156C 260.826,154.412 257.992,153.245 255,152.5C 252.718,153.29 250.552,154.29 248.5,155.5C 242.157,150.157 236.491,144.157 231.5,137.5C 233.779,135.277 234.612,132.611 234,129.5C 224.824,115.481 219.324,100.148 217.5,83.5C 261.821,81.5051 306.488,80.8385 351.5,81.5 Z"/></g>
<g><path style="opacity:1" fill="#ea5468" d="M 395.5,90.5 C 426.409,101.135 451.409,119.801 470.5,146.5C 453.918,172.895 430.418,189.895 400,197.5C 393.827,190.664 386.994,184.497 379.5,179C 369.222,173.346 358.222,170.013 346.5,169C 368.264,146.322 384.598,120.155 395.5,90.5 Z"/></g>
<g><path style="opacity:1" fill="#060504" d="M 297.5,96.5 C 303.229,96.2123 308.896,96.5456 314.5,97.5C 318.969,102.517 318.303,106.684 312.5,110C 307.5,110.667 302.5,110.667 297.5,110C 292.193,105.375 292.193,100.875 297.5,96.5 Z"/></g>
<g><path style="opacity:0.935" fill="#040302" d="M 276.5,170.5 C 274.866,173.237 272.366,174.57 269,174.5C 261.641,172.153 254.975,168.486 249,163.5C 248.503,160.854 248.336,158.187 248.5,155.5C 250.552,154.29 252.718,153.29 255,152.5C 257.992,153.245 260.826,154.412 263.5,156C 268.1,158.215 272.266,161.048 276,164.5C 276.495,166.473 276.662,168.473 276.5,170.5 Z"/></g>
<g><path style="opacity:1" fill="#fd8c8c" d="M 477.5,160.5 C 479.074,160.937 480.241,161.937 481,163.5C 498.78,197.501 502.113,232.834 491,269.5C 487.989,277.694 483.822,285.194 478.5,292C 448.75,293.037 422.917,283.537 401,263.5C 404.08,256.928 406.413,249.928 408,242.5C 409.26,231.933 408.427,221.6 405.5,211.5C 429.741,204.303 450.574,191.636 468,173.5C 471.665,169.492 474.832,165.159 477.5,160.5 Z"/></g>
<g><path style="opacity:1" fill="#fdd295" d="M 14.5,170.5 C 66.1677,170.333 117.834,170.5 169.5,171C 178.172,172.548 186.839,174.048 195.5,175.5C 182.985,211.839 162.318,242.673 133.5,268C 83.2096,271.946 46.3763,251.779 23,207.5C 17.7833,195.69 14.95,183.357 14.5,170.5 Z"/></g>
<g><path style="opacity:1" fill="#ea5468" d="M 208.5,180.5 C 243.176,192.007 270.842,212.84 291.5,243C 273.234,273.606 246.568,291.939 211.5,298C 197.454,278.972 178.454,268.805 154.5,267.5C 179.027,242.621 197.027,213.621 208.5,180.5 Z"/></g>
<g><path style="opacity:1" fill="#050403" d="M 102.5,188.5 C 108.176,188.334 113.843,188.501 119.5,189C 124.833,193.333 124.833,197.667 119.5,202C 113.833,202.667 108.167,202.667 102.5,202C 97.2475,197.506 97.2475,193.006 102.5,188.5 Z"/></g>
<g><path style="opacity:0.999" fill="#fd8d8d" d="M 215.5,340.5 C 216.325,331.364 214.991,322.697 211.5,314.5C 248.486,306.59 277.986,287.257 300,256.5C 311.779,275.836 318.779,296.836 321,319.5C 324.96,349.991 318.127,377.658 300.5,402.5C 267.059,403.69 238.392,392.69 214.5,369.5C 216.764,364.541 218.931,359.541 221,354.5C 224.521,347.474 222.688,342.807 215.5,340.5 Z"/></g>
<g><path style="opacity:1" fill="#e95468" d="M 391.5,274.5 C 412.814,292.564 437.481,303.398 465.5,307C 436.663,330.903 403.997,338.236 367.5,329C 361.839,318.175 356.839,307.008 352.5,295.5C 361.008,292.83 369.341,289.664 377.5,286C 382.647,282.68 387.314,278.847 391.5,274.5 Z"/></g>
<g><path style="opacity:1" fill="#6f5b55" d="M 330.5,293.5 C 333.09,293.918 335.423,294.918 337.5,296.5C 342.695,308.085 347.695,319.751 352.5,331.5C 347.175,336.656 341.675,341.656 336,346.5C 336.144,328.609 334.311,310.942 330.5,293.5 Z"/></g>
<g><path style="opacity:1" fill="#705c56" d="M 64.5,378.5 C 91.3356,387.056 118.169,395.723 145,404.5C 151.667,417.841 157.833,431.508 163.5,445.5C 145.278,461.523 126.778,477.189 108,492.5C 101.511,469.304 107.177,449.638 125,433.5C 125.667,430.833 125.667,428.167 125,425.5C 124.097,424.299 122.931,423.465 121.5,423C 92.7258,420.62 73.7258,405.787 64.5,378.5 Z"/></g>
<g><path style="opacity:1" fill="#e95468" d="M 204.5,381.5 C 217.971,392.1 232.638,400.933 248.5,408C 261.18,412.42 274.18,415.42 287.5,417C 256.106,444.119 220.106,452.785 179.5,443C 177.667,442.5 176.5,441.333 176,439.5C 170.871,427.581 166.037,415.581 161.5,403.5C 178.799,401.685 193.133,394.352 204.5,381.5 Z"/></g>
</svg>
