<?xml version="1.0" encoding="UTF-8"?>
<!DOCTYPE svg PUBLIC "-//W3C//DTD SVG 1.1//EN" "http://www.w3.org/Graphics/SVG/1.1/DTD/svg11.dtd">
<svg xmlns="http://www.w3.org/2000/svg" version="1.1" width="512px" height="512px" style="shape-rendering:geometricPrecision; text-rendering:geometricPrecision; image-rendering:optimizeQuality; fill-rule:evenodd; clip-rule:evenodd" xmlns:xlink="http://www.w3.org/1999/xlink">
<g><path style="opacity:0.977" fill="#010201" d="M 511.5,49.5 C 511.5,63.1667 511.5,76.8333 511.5,90.5C 501.016,176.786 467.183,252.453 410,317.5C 371.618,361.763 325.784,395.93 272.5,420C 229.993,438.585 185.659,445.585 139.5,441C 130.09,439.856 120.923,437.689 112,434.5C 94.3152,449.937 74.8152,462.77 53.5,473C 38.2272,479.091 22.7272,484.591 7,489.5C 3.99195,489.006 1.49195,487.673 -0.5,485.5C -0.5,482.5 -0.5,479.5 -0.5,476.5C 1.30826,475.093 3.30826,473.926 5.5,473C 35.0646,465.049 62.0646,452.049 86.5,434C 91.1547,430.345 95.488,426.345 99.5,422C 93.4081,404.176 90.7414,385.842 91.5,367C 91.7926,329.204 99.626,293.037 115,258.5C 144.363,196.98 186.197,145.48 240.5,104C 260.77,89.0837 282.103,75.7503 304.5,64C 307.167,63.3333 309.833,63.3333 312.5,64C 313.381,64.7083 314.047,65.5416 314.5,66.5C 316.208,70.4588 315.542,73.9588 312.5,77C 234,118.167 174.167,178 133,256.5C 113.718,295.962 105.051,337.629 107,381.5C 107.975,391.355 109.809,401.022 112.5,410.5C 128.926,397.279 141.759,381.279 151,362.5C 153.204,356.223 155.204,349.89 157,343.5C 158.841,325.209 160.174,306.875 161,288.5C 163.69,262.795 173.69,240.462 191,221.5C 195.5,217 200,212.5 204.5,208C 213.453,203.729 217.62,206.562 217,216.5C 183.451,245.78 169.117,282.78 174,327.5C 173.074,335.904 172.074,344.237 171,352.5C 187.667,335.833 204.333,319.167 221,302.5C 231.694,290.109 238.36,275.776 241,259.5C 242.221,244.182 243.221,228.849 244,213.5C 248.804,185.715 262.304,163.215 284.5,146C 293.042,145.579 295.875,149.412 293,157.5C 274.73,172.375 263.397,191.375 259,214.5C 258.321,232.635 256.988,250.635 255,268.5C 270.667,252.833 286.333,237.167 302,221.5C 311.788,209.92 317.788,196.586 320,181.5C 315.245,142.407 327.412,109.907 356.5,84C 365.333,82.1667 368.833,85.6667 367,94.5C 349.969,108.232 339.969,125.899 337,147.5C 336.246,161.571 335.246,175.571 334,189.5C 355.727,168.441 376.727,146.775 397,124.5C 400.115,119.156 402.448,113.489 404,107.5C 405.757,94.8349 407.09,82.1682 408,69.5C 412.333,64.1667 416.667,64.1667 421,69.5C 421.452,80.5186 421.452,91.5186 421,102.5C 435.702,87.9652 450.202,73.2985 464.5,58.5C 471.298,52.2027 477.965,45.7027 484.5,39C 477.574,37.661 470.574,37.161 463.5,37.5C 421.842,38.2648 381.842,46.7648 343.5,63C 338.96,64.3376 335.293,63.1709 332.5,59.5C 331.618,55.0907 332.952,51.5907 336.5,49C 377.498,32.1004 420.164,22.9337 464.5,21.5C 477.119,21.5577 489.453,23.391 501.5,27C 504.734,28.9445 506.9,31.7778 508,35.5C 509.249,40.2782 510.416,44.9449 511.5,49.5 Z"/></g>
<g><path style="opacity:1" fill="#95d879" d="M 463.5,37.5 C 463.175,44.6866 463.509,51.6866 464.5,58.5C 450.202,73.2985 435.702,87.9652 421,102.5C 421.452,91.5186 421.452,80.5186 421,69.5C 416.667,64.1667 412.333,64.1667 408,69.5C 407.09,82.1682 405.757,94.8349 404,107.5C 402.448,113.489 400.115,119.156 397,124.5C 376.727,146.775 355.727,168.441 334,189.5C 335.246,175.571 336.246,161.571 337,147.5C 339.969,125.899 349.969,108.232 367,94.5C 368.833,85.6667 365.333,82.1667 356.5,84C 327.412,109.907 315.245,142.407 320,181.5C 317.788,196.586 311.788,209.92 302,221.5C 286.333,237.167 270.667,252.833 255,268.5C 256.988,250.635 258.321,232.635 259,214.5C 263.397,191.375 274.73,172.375 293,157.5C 295.875,149.412 293.042,145.579 284.5,146C 262.304,163.215 248.804,185.715 244,213.5C 243.221,228.849 242.221,244.182 241,259.5C 238.36,275.776 231.694,290.109 221,302.5C 204.333,319.167 187.667,335.833 171,352.5C 172.074,344.237 173.074,335.904 174,327.5C 169.117,282.78 183.451,245.78 217,216.5C 217.62,206.562 213.453,203.729 204.5,208C 200,212.5 195.5,217 191,221.5C 173.69,240.462 163.69,262.795 161,288.5C 160.174,306.875 158.841,325.209 157,343.5C 155.204,349.89 153.204,356.223 151,362.5C 141.759,381.279 128.926,397.279 112.5,410.5C 109.809,401.022 107.975,391.355 107,381.5C 105.051,337.629 113.718,295.962 133,256.5C 174.167,178 234,118.167 312.5,77C 315.542,73.9588 316.208,70.4588 314.5,66.5C 320.5,64.1667 326.5,61.8333 332.5,59.5C 335.293,63.1709 338.96,64.3376 343.5,63C 381.842,46.7648 421.842,38.2648 463.5,37.5 Z"/></g>
<g><path style="opacity:1" fill="#7bca5e" d="M 463.5,37.5 C 470.574,37.161 477.574,37.661 484.5,39C 477.965,45.7027 471.298,52.2027 464.5,58.5C 463.509,51.6866 463.175,44.6866 463.5,37.5 Z"/></g>
<g><path style="opacity:1" fill="#7fd060" d="M 130.5,414.5 C 178.461,412.51 223.128,399.343 264.5,375C 347.653,323.681 406.987,252.514 442.5,161.5C 456.755,155.752 468.589,146.752 478,134.5C 478.882,127.382 475.716,124.216 468.5,125C 462.295,130.709 455.961,136.209 449.5,141.5C 454.452,122.359 458.452,103.026 461.5,83.5C 472.465,72.0349 483.631,60.7016 495,49.5C 497.591,74.0113 496.258,98.3446 491,122.5C 471.254,210.857 427.754,285.024 360.5,345C 317.594,384.124 267.594,410.124 210.5,423C 187.978,427.427 165.312,428.427 142.5,426C 136.562,425.346 130.729,424.179 125,422.5C 123.743,422.15 123.409,421.483 124,420.5C 126.037,418.294 128.203,416.294 130.5,414.5 Z"/></g>
<g><path style="opacity:1" fill="#95d87a" d="M 461.5,83.5 C 458.452,103.026 454.452,122.359 449.5,141.5C 444.094,144.535 438.428,147.035 432.5,149C 419.143,150.667 405.81,151.667 392.5,152C 415.368,128.965 438.368,106.132 461.5,83.5 Z"/></g>
<g><path style="opacity:1" fill="#96d87a" d="M 442.5,161.5 C 406.987,252.514 347.653,323.681 264.5,375C 223.128,399.343 178.461,412.51 130.5,414.5C 148.327,395.84 166.66,377.673 185.5,360C 199.267,350.299 214.6,344.966 231.5,344C 235.791,340.552 236.458,336.552 233.5,332C 230.456,330.928 227.29,330.428 224,330.5C 220.451,330.804 216.951,330.971 213.5,331C 232.862,311.305 252.528,291.971 272.5,273C 279.992,268.255 287.992,264.588 296.5,262C 311.811,260.511 327.145,259.178 342.5,258C 366.595,254.871 386.429,244.038 402,225.5C 406.303,216.619 403.47,212.453 393.5,213C 383.785,224.393 372.118,233.06 358.5,239C 353.819,240.344 349.153,241.677 344.5,243C 329.143,244.145 313.81,245.145 298.5,246C 320.5,224 342.5,202 364.5,180C 380.274,168.638 397.941,163.972 417.5,166C 425.998,165.287 434.331,163.787 442.5,161.5 Z"/></g>
<g><path style="opacity:1" fill="#030502" d="M 324.5,292.5 C 332.164,291.666 335.664,295 335,302.5C 315.852,327.157 290.686,340.324 259.5,342C 254.687,337.959 254.354,333.625 258.5,329C 285.642,325.933 307.642,313.767 324.5,292.5 Z"/></g>
</svg>
