<?xml version="1.0" encoding="UTF-8"?>
<!DOCTYPE svg PUBLIC "-//W3C//DTD SVG 1.1//EN" "http://www.w3.org/Graphics/SVG/1.1/DTD/svg11.dtd">
<svg xmlns="http://www.w3.org/2000/svg" version="1.1" width="512px" height="512px" style="shape-rendering:geometricPrecision; text-rendering:geometricPrecision; image-rendering:optimizeQuality; fill-rule:evenodd; clip-rule:evenodd" xmlns:xlink="http://www.w3.org/1999/xlink">
<g><path style="opacity:0.981" fill="#020201" d="M 207.5,27.5 C 216.552,27.1929 225.552,27.6929 234.5,29C 251.68,33.9489 269.013,38.2822 286.5,42C 293.167,42.6667 299.833,42.6667 306.5,42C 324.738,38.3606 343.071,37.6939 361.5,40C 373.222,44.0452 383.055,50.8785 391,60.5C 403.678,76.3253 417.178,91.4919 431.5,106C 433.455,106.953 435.122,108.287 436.5,110C 454.753,114.254 464.253,125.754 465,144.5C 469.469,158.241 474.136,171.908 479,185.5C 499.845,265.941 480.678,335.108 421.5,393C 404.076,408.742 384.743,421.742 363.5,432C 348.42,437.804 333.42,443.804 318.5,450C 316.383,451.731 314.883,453.898 314,456.5C 314.017,470.138 308.85,481.305 298.5,490C 294.729,492.219 290.729,493.885 286.5,495C 262.833,495.667 239.167,495.667 215.5,495C 204.603,492.437 197.103,485.937 193,475.5C 193.256,463.433 189.089,453.267 180.5,445C 115.289,424.452 68.1223,383.286 39,321.5C 18.1101,268.402 18.4434,215.402 40,162.5C 41.1508,155.821 40.1508,149.488 37,143.5C 31.673,124.091 38.173,110.591 56.5,103C 63.6652,101.648 70.3319,102.814 76.5,106.5C 79.8752,105.097 83.2086,103.597 86.5,102C 107.974,87.8721 129.974,74.5388 152.5,62C 162.88,53.2849 173.547,44.9516 184.5,37C 191.819,32.6636 199.486,29.4969 207.5,27.5 Z"/></g>
<g><path style="opacity:1" fill="#86c056" d="M 288.5,58.5 C 293.833,59.1667 299.167,59.8333 304.5,60.5C 299.167,63.8333 293.833,67.1667 288.5,70.5C 285.813,70.6641 283.146,70.4974 280.5,70C 267.147,66.4616 253.813,62.7949 240.5,59C 218.732,51.5342 199.065,55.0342 181.5,69.5C 178.213,68.8386 174.88,68.3386 171.5,68C 182.434,56.6968 195.434,48.6968 210.5,44C 217.535,43.4127 224.535,43.746 231.5,45C 250.112,51.2624 269.112,55.7624 288.5,58.5 Z"/></g>
<g><path style="opacity:1" fill="#9fd076" d="M 288.5,70.5 C 280.939,75.8828 273.772,81.8828 267,88.5C 266.253,98.0482 270.42,101.215 279.5,98C 293.52,86.3283 308.52,76.1617 324.5,67.5C 336.947,65.7296 349.28,66.2296 361.5,69C 370.626,73.1254 378.293,79.1254 384.5,87C 365.296,84.1047 347.962,88.4381 332.5,100C 323.591,109.681 317.091,120.848 313,133.5C 309.974,136.864 306.474,137.364 302.5,135C 299.203,132.705 296.203,130.038 293.5,127C 291.112,125.139 288.446,123.806 285.5,123C 275.506,122.5 265.506,122.334 255.5,122.5C 253.549,121.284 252.049,119.618 251,117.5C 244.153,99.9883 231.319,90.6549 212.5,89.5C 207.511,90.333 202.511,90.4996 197.5,90C 195.262,85.596 193.096,81.096 191,76.5C 188.517,73.1767 185.351,70.8434 181.5,69.5C 199.065,55.0342 218.732,51.5342 240.5,59C 253.813,62.7949 267.147,66.4616 280.5,70C 283.146,70.4974 285.813,70.6641 288.5,70.5 Z"/></g>
<g><path style="opacity:1" fill="#86c056" d="M 255.5,122.5 C 265.506,122.334 275.506,122.5 285.5,123C 288.446,123.806 291.112,125.139 293.5,127C 296.203,130.038 299.203,132.705 302.5,135C 306.474,137.364 309.974,136.864 313,133.5C 317.091,120.848 323.591,109.681 332.5,100C 347.962,88.4381 365.296,84.1047 384.5,87C 378.293,79.1254 370.626,73.1254 361.5,69C 349.28,66.2296 336.947,65.7296 324.5,67.5C 334.547,60.9841 345.547,57.1508 357.5,56C 361.796,57.815 365.796,60.1483 369.5,63C 380.535,74.367 391.202,86.0337 401.5,98C 398.343,96.4216 395.01,94.755 391.5,93C 385.569,91.5288 379.569,91.1955 373.5,92C 367.046,94.727 360.712,97.727 354.5,101C 348.556,104.715 344.389,109.882 342,116.5C 340.8,122.969 339.133,129.303 337,135.5C 331.937,139.949 326.437,143.783 320.5,147C 316,151.5 311.5,156 307,160.5C 303.617,153.025 300.617,145.358 298,137.5C 295.416,130.618 290.583,126.118 283.5,124C 273.991,123.83 264.658,123.33 255.5,122.5 Z"/></g>
<g><path style="opacity:1" fill="#3a5425" d="M 288.5,58.5 C 294.509,58.3338 300.509,58.5005 306.5,59C 305.956,59.7172 305.289,60.2172 304.5,60.5C 299.167,59.8333 293.833,59.1667 288.5,58.5 Z"/></g>
<g><path style="opacity:1" fill="#9ece75" d="M 115.5,148.5 C 110.61,136.716 106.276,124.716 102.5,112.5C 115.761,103.192 129.428,94.3591 143.5,86C 154.471,84.6244 165.471,84.2911 176.5,85C 177.333,85.8333 178.167,86.6667 179,87.5C 180.292,96.9183 185.458,103.085 194.5,106C 202.5,106 210.5,106 218.5,106C 224.086,107.581 228.586,110.748 232,115.5C 234.833,120.5 237.667,125.5 240.5,130.5C 231.839,134.025 222.839,135.192 213.5,134C 199.73,131.474 186.063,128.474 172.5,125C 160.624,121.567 149.624,123.233 139.5,130C 132.139,136.07 126.473,143.403 122.5,152C 119.65,152.009 117.317,150.842 115.5,148.5 Z"/></g>
<g><path style="opacity:1" fill="#9fcf76" d="M 393.5,393.5 C 394.999,384.182 396.499,374.849 398,365.5C 398.812,361.311 398.645,357.311 397.5,353.5C 412.168,346.668 425.668,338.002 438,327.5C 442.298,323.063 442.465,318.563 438.5,314C 435.97,312.578 433.303,312.245 430.5,313C 421.012,321.911 410.345,329.078 398.5,334.5C 398.952,328.631 398.119,322.965 396,317.5C 394.506,314.686 392.34,312.686 389.5,311.5C 390.373,305.375 391.707,299.375 393.5,293.5C 412.732,285.977 429.899,275.31 445,261.5C 449.156,256.678 452.489,251.345 455,245.5C 456.078,239.239 453.411,235.906 447,235.5C 445.373,235.625 443.873,236.125 442.5,237C 438.35,245.158 432.683,252.158 425.5,258C 416.079,264.463 406.246,270.296 396,275.5C 397.448,251.732 396.448,228.065 393,204.5C 392.378,200.388 391.378,196.388 390,192.5C 385.042,188.285 380.375,188.619 376,193.5C 376.485,201.523 377.485,209.523 379,217.5C 380.982,237.168 380.982,256.835 379,276.5C 378.527,282.989 377.36,289.322 375.5,295.5C 353.894,279.448 334.061,261.448 316,241.5C 313.347,236.518 310.514,231.685 307.5,227C 300.497,224.169 296.497,226.502 295.5,234C 295.631,236.253 296.131,238.419 297,240.5C 300.888,247.72 305.555,254.386 311,260.5C 330.173,279.849 350.673,297.516 372.5,313.5C 368.927,325.234 364.593,336.567 359.5,347.5C 356.527,351.14 353.194,354.473 349.5,357.5C 324.556,340.402 300.889,321.569 278.5,301C 268.192,291.714 259.859,281.047 253.5,269C 243.45,267.715 239.95,271.881 243,281.5C 246.552,288.382 250.885,294.716 256,300.5C 281.304,325.993 308.471,348.993 337.5,369.5C 307.993,389.408 275.66,403.075 240.5,410.5C 228.735,390.949 220.235,369.949 215,347.5C 208.728,317.61 208.061,287.61 213,257.5C 215.667,251.5 218.333,245.5 221,239.5C 222.41,238.213 223.91,237.046 225.5,236C 235.764,232.2 245.764,227.866 255.5,223C 262.707,216.086 266.873,207.586 268,197.5C 268.883,194.898 270.383,192.731 272.5,191C 284.488,187.668 296.488,184.335 308.5,181C 316.803,173.698 324.803,166.031 332.5,158C 341.54,154.958 348.04,149.124 352,140.5C 353.847,133.444 355.847,126.444 358,119.5C 365.955,111.598 375.455,107.765 386.5,108C 395.167,114 403.833,120 412.5,126C 421.116,127.173 429.783,127.839 438.5,128C 441.102,128.883 443.269,130.383 445,132.5C 451.178,155.036 458.178,177.37 466,199.5C 480.65,272.214 460.817,333.714 406.5,384C 402.551,387.796 398.217,390.963 393.5,393.5 Z"/></g>
<g><path style="opacity:1" fill="#86bf56" d="M 102.5,112.5 C 106.276,124.716 110.61,136.716 115.5,148.5C 113.284,147.797 111.451,146.464 110,144.5C 103.691,136.023 97.1909,127.69 90.5,119.5C 93.9932,116.349 97.9932,114.016 102.5,112.5 Z"/></g>
<g><path style="opacity:1" fill="#9fcf76" d="M 177.5,253.5 C 178.42,256.508 179.754,259.341 181.5,262C 181.272,262.399 180.938,262.565 180.5,262.5C 174.507,261.332 170.674,263.665 169,269.5C 167.156,284.973 168.99,299.973 174.5,314.5C 161.799,313.404 149.132,313.404 136.5,314.5C 136.895,304.434 136.395,294.434 135,284.5C 130,277.833 125,277.833 120,284.5C 119.943,290.315 120.11,296.149 120.5,302C 120.61,308.067 119.943,313.9 118.5,319.5C 112.848,321.991 107.514,324.991 102.5,328.5C 93.2309,307.445 86.7309,285.445 83,262.5C 75.7693,255.012 70.6026,256.178 67.5,266C 71.997,292.496 79.6637,317.996 90.5,342.5C 89.3073,346.911 87.8073,351.244 86,355.5C 85.5026,358.146 85.3359,360.813 85.5,363.5C 48.1574,320.385 33.6574,270.385 42,213.5C 44.9619,197.318 49.6286,181.651 56,166.5C 56.6629,163.023 57.1629,159.523 57.5,156C 55.6262,148.045 53.9595,140.045 52.5,132C 52.0345,124.436 55.5345,119.936 63,118.5C 65.8192,118.993 68.3192,120.16 70.5,122C 81.8333,135 93.1667,148 104.5,161C 111.225,166.031 118.558,170.031 126.5,173C 135.389,177.556 141.889,184.39 146,193.5C 154.212,212.47 160.212,232.136 164,252.5C 168.125,257.491 172.625,257.825 177.5,253.5 Z"/></g>
<g><path style="opacity:1" fill="#87c157" d="M 284.5,148.5 C 276.548,147.397 268.548,147.23 260.5,148C 252.49,151.006 244.49,154.006 236.5,157C 214.915,158.542 193.582,156.709 172.5,151.5C 166.224,153.249 163.39,157.249 164,163.5C 174.279,182.062 182.946,201.396 190,221.5C 193.06,224.936 196.393,225.269 200,222.5C 212.75,203.748 228.25,187.582 246.5,174C 251.396,170.7 256.73,168.367 262.5,167C 270.167,166.667 277.833,166.333 285.5,166C 287.751,165.252 289.084,163.752 289.5,161.5C 290.67,163.65 291.67,165.984 292.5,168.5C 292.167,168.833 291.833,169.167 291.5,169.5C 284.55,171.19 277.55,172.69 270.5,174C 265.164,176.325 260.664,179.825 257,184.5C 253.87,193.155 250.37,201.655 246.5,210C 235.833,214.667 225.167,219.333 214.5,224C 212.333,226.167 210.167,228.333 208,230.5C 198.3,247.477 193.467,265.811 193.5,285.5C 190.833,281.167 188.167,276.833 185.5,272.5C 185.925,268.017 184.259,264.683 180.5,262.5C 180.938,262.565 181.272,262.399 181.5,262C 179.754,259.341 178.42,256.508 177.5,253.5C 176.115,225.172 167.948,198.838 153,174.5C 148.072,168.899 142.572,164.065 136.5,160C 140.068,151.518 145.735,144.852 153.5,140C 169.591,140.182 185.258,142.848 200.5,148C 220.922,152.929 240.255,150.262 258.5,140C 265.833,139.333 273.167,139.333 280.5,140C 282.782,142.397 284.116,145.231 284.5,148.5 Z"/></g>
<g><path style="opacity:1" fill="#9fd076" d="M 284.5,148.5 C 286.734,152.522 288.401,156.856 289.5,161.5C 289.084,163.752 287.751,165.252 285.5,166C 277.833,166.333 270.167,166.667 262.5,167C 256.73,168.367 251.396,170.7 246.5,174C 228.25,187.582 212.75,203.748 200,222.5C 196.393,225.269 193.06,224.936 190,221.5C 182.946,201.396 174.279,182.062 164,163.5C 163.39,157.249 166.224,153.249 172.5,151.5C 193.582,156.709 214.915,158.542 236.5,157C 244.49,154.006 252.49,151.006 260.5,148C 268.548,147.23 276.548,147.397 284.5,148.5 Z"/></g>
<g><path style="opacity:1" fill="#030402" d="M 389.5,311.5 C 386.417,321.631 383.084,331.797 379.5,342C 379.833,342.5 380.167,343 380.5,343.5C 386.805,341.014 392.805,338.014 398.5,334.5C 410.345,329.078 421.012,321.911 430.5,313C 433.303,312.245 435.97,312.578 438.5,314C 442.465,318.563 442.298,323.063 438,327.5C 425.668,338.002 412.168,346.668 397.5,353.5C 387.797,357.436 378.297,361.769 369,366.5C 359.167,386.638 346.667,404.805 331.5,421C 323.333,422.167 319.833,418.667 321,410.5C 330.14,399.525 338.307,387.858 345.5,375.5C 343.122,373.122 340.455,371.122 337.5,369.5C 308.471,348.993 281.304,325.993 256,300.5C 250.885,294.716 246.552,288.382 243,281.5C 239.95,271.881 243.45,267.715 253.5,269C 259.859,281.047 268.192,291.714 278.5,301C 300.889,321.569 324.556,340.402 349.5,357.5C 350.406,358.965 351.739,359.965 353.5,360.5C 356.322,356.524 358.322,352.191 359.5,347.5C 364.593,336.567 368.927,325.234 372.5,313.5C 350.673,297.516 330.173,279.849 311,260.5C 305.555,254.386 300.888,247.72 297,240.5C 296.131,238.419 295.631,236.253 295.5,234C 296.497,226.502 300.497,224.169 307.5,227C 310.514,231.685 313.347,236.518 316,241.5C 334.061,261.448 353.894,279.448 375.5,295.5C 377.36,289.322 378.527,282.989 379,276.5C 380.982,256.835 380.982,237.168 379,217.5C 377.485,209.523 376.485,201.523 376,193.5C 380.375,188.619 385.042,188.285 390,192.5C 391.378,196.388 392.378,200.388 393,204.5C 396.448,228.065 397.448,251.732 396,275.5C 406.246,270.296 416.079,264.463 425.5,258C 432.683,252.158 438.35,245.158 442.5,237C 443.873,236.125 445.373,235.625 447,235.5C 453.411,235.906 456.078,239.239 455,245.5C 452.489,251.345 449.156,256.678 445,261.5C 429.899,275.31 412.732,285.977 393.5,293.5C 391.707,299.375 390.373,305.375 389.5,311.5 Z"/></g>
<g><path style="opacity:1" fill="#9aca73" d="M 185.5,272.5 C 188.167,276.833 190.833,281.167 193.5,285.5C 193.514,296.526 193.681,307.526 194,318.5C 185.919,304.086 183.086,288.752 185.5,272.5 Z"/></g>
<g><path style="opacity:1" fill="#d1e4c1" d="M 389.5,311.5 C 392.34,312.686 394.506,314.686 396,317.5C 398.119,322.965 398.952,328.631 398.5,334.5C 392.805,338.014 386.805,341.014 380.5,343.5C 380.167,343 379.833,342.5 379.5,342C 383.084,331.797 386.417,321.631 389.5,311.5 Z"/></g>
<g><path style="opacity:1" fill="#d1e4c1" d="M 118.5,319.5 C 117.546,329.772 115.379,339.772 112,349.5C 107.96,342.876 104.794,335.876 102.5,328.5C 107.514,324.991 112.848,321.991 118.5,319.5 Z"/></g>
<g><path style="opacity:1" fill="#d0e3c1" d="M 90.5,342.5 C 100.179,363.353 112.512,382.519 127.5,400C 124.701,399.268 122.034,397.934 119.5,396C 106.703,386.703 95.3698,375.87 85.5,363.5C 85.3359,360.813 85.5026,358.146 86,355.5C 87.8073,351.244 89.3073,346.911 90.5,342.5 Z"/></g>
<g><path style="opacity:1" fill="#cadeb9" d="M 359.5,347.5 C 358.322,352.191 356.322,356.524 353.5,360.5C 351.739,359.965 350.406,358.965 349.5,357.5C 353.194,354.473 356.527,351.14 359.5,347.5 Z"/></g>
<g><path style="opacity:1" fill="#d6e9c6" d="M 174.5,314.5 C 180.397,328.9 188.897,341.566 200,352.5C 206.254,378.942 216.587,403.609 231,426.5C 241.074,439.941 253.908,449.608 269.5,455.5C 276.963,453.909 279.129,449.575 276,442.5C 263.279,436.777 252.613,428.444 244,417.5C 242.295,415.423 241.128,413.09 240.5,410.5C 275.66,403.075 307.993,389.408 337.5,369.5C 340.455,371.122 343.122,373.122 345.5,375.5C 338.307,387.858 330.14,399.525 321,410.5C 319.833,418.667 323.333,422.167 331.5,421C 346.667,404.805 359.167,386.638 369,366.5C 378.297,361.769 387.797,357.436 397.5,353.5C 398.645,357.311 398.812,361.311 398,365.5C 396.499,374.849 394.999,384.182 393.5,393.5C 372.007,410.913 347.674,423.08 320.5,430C 310.061,434.106 302.561,441.273 298,451.5C 296.701,458.608 295.034,465.608 293,472.5C 291.062,475.106 288.562,476.939 285.5,478C 263.23,479.634 240.897,479.968 218.5,479C 209.27,474.375 205.436,466.875 207,456.5C 206.55,454.481 205.717,452.648 204.5,451C 212.719,452.572 221.052,453.239 229.5,453C 236.311,447.67 235.977,442.67 228.5,438C 183.198,430.165 148.198,406.999 123.5,368.5C 128.809,350.6 133.143,332.6 136.5,314.5C 149.132,313.404 161.799,313.404 174.5,314.5 Z"/></g>
</svg>
