<?xml version="1.0" encoding="UTF-8"?>
<!DOCTYPE svg PUBLIC "-//W3C//DTD SVG 1.1//EN" "http://www.w3.org/Graphics/SVG/1.1/DTD/svg11.dtd">
<svg xmlns="http://www.w3.org/2000/svg" version="1.1" width="512px" height="512px" style="shape-rendering:geometricPrecision; text-rendering:geometricPrecision; image-rendering:optimizeQuality; fill-rule:evenodd; clip-rule:evenodd" xmlns:xlink="http://www.w3.org/1999/xlink">
<g><path style="opacity:0.994" fill="#000001" d="M 162.5,-0.5 C 224.5,-0.5 286.5,-0.5 348.5,-0.5C 358.119,2.74272 364.953,9.07606 369,18.5C 369.968,34.8722 370.968,51.2055 372,67.5C 397.047,98.2119 421.714,129.212 446,160.5C 455.278,173.061 461.278,187.061 464,202.5C 465.649,295.474 465.983,388.474 465,481.5C 461.082,496.915 451.582,506.915 436.5,511.5C 315.833,511.5 195.167,511.5 74.5,511.5C 59.4176,506.915 49.9176,496.915 46,481.5C 45.0173,388.474 45.3506,295.474 47,202.5C 49.7217,187.061 55.7217,173.061 65,160.5C 89.2863,129.212 113.953,98.2119 139,67.5C 140.032,51.2055 141.032,34.8722 142,18.5C 146.047,9.07606 152.881,2.74272 162.5,-0.5 Z"/></g>
<g><path style="opacity:1" fill="#5fa3fe" d="M 167.5,19.5 C 225.834,19.3333 284.168,19.5 342.5,20C 345.913,21.0774 348.413,23.2441 350,26.5C 350.5,37.495 350.667,48.495 350.5,59.5C 287.167,59.5 223.833,59.5 160.5,59.5C 160.333,48.495 160.5,37.495 161,26.5C 162.694,23.6424 164.861,21.309 167.5,19.5 Z"/></g>
<g><path style="opacity:1" fill="#fefefe" d="M 444.5,211.5 C 444.5,213.167 444.5,214.833 444.5,216.5C 381.5,216.5 318.5,216.5 255.5,216.5C 254.813,199.271 249.98,183.271 241,168.5C 218.436,138.546 195.27,109.046 171.5,80C 232.833,79.3333 294.167,79.3333 355.5,80C 380.714,110.878 405.547,142.045 430,173.5C 438.087,184.927 442.92,197.594 444.5,211.5 Z"/></g>
<g><path style="opacity:1" fill="#c4d2dd" d="M 188.5,224.5 C 180.101,226.425 171.434,227.092 162.5,226.5C 162.221,220.221 158.888,216.888 152.5,216.5C 147.609,217.058 144.609,219.725 143.5,224.5C 135.101,226.425 126.434,227.092 117.5,226.5C 117.765,221.436 115.431,218.436 110.5,217.5C 96.0095,216.504 81.3428,216.171 66.5,216.5C 66.5,214.833 66.5,213.167 66.5,211.5C 68.0799,197.594 72.9132,184.927 81,173.5C 104.333,144.167 127.667,114.833 151,85.5C 175,116.167 199,146.833 223,177.5C 230.677,189.366 234.844,202.366 235.5,216.5C 221.829,216.333 208.163,216.5 194.5,217C 191.183,218.48 189.183,220.98 188.5,224.5 Z"/></g>
<g><path style="opacity:1" fill="#2b2e31" d="M 66.5,211.5 C 66.5,213.167 66.5,214.833 66.5,216.5C 81.3428,216.171 96.0095,216.504 110.5,217.5C 95.5,217.5 80.5,217.5 65.5,217.5C 65.2053,215.265 65.5386,213.265 66.5,211.5 Z"/></g>
<g><path style="opacity:1" fill="#343434" d="M 444.5,211.5 C 445.461,213.265 445.795,215.265 445.5,217.5C 381.998,217.832 318.664,217.499 255.5,216.5C 318.5,216.5 381.5,216.5 444.5,216.5C 444.5,214.833 444.5,213.167 444.5,211.5 Z"/></g>
<g><path style="opacity:1" fill="#040506" d="M 162.5,226.5 C 161.065,235.381 156.065,238.215 147.5,235C 143.952,232.409 142.618,228.909 143.5,224.5C 144.609,219.725 147.609,217.058 152.5,216.5C 158.888,216.888 162.221,220.221 162.5,226.5 Z"/></g>
<g><path style="opacity:1" fill="#5fa3fe" d="M 143.5,224.5 C 142.618,228.909 143.952,232.409 147.5,235C 156.065,238.215 161.065,235.381 162.5,226.5C 171.434,227.092 180.101,226.425 188.5,224.5C 187.231,230.059 189.231,233.892 194.5,236C 208.163,236.5 221.829,236.667 235.5,236.5C 235.5,301.5 235.5,366.5 235.5,431.5C 178.833,431.5 122.167,431.5 65.5,431.5C 65.5,366.5 65.5,301.5 65.5,236.5C 80.5037,236.667 95.5037,236.5 110.5,236C 115.317,234.68 117.651,231.514 117.5,226.5C 126.434,227.092 135.101,226.425 143.5,224.5 Z"/></g>
<g><path style="opacity:1" fill="#5fa3fd" d="M 255.5,236.5 C 318.833,236.5 382.167,236.5 445.5,236.5C 445.5,301.5 445.5,366.5 445.5,431.5C 382.167,431.5 318.833,431.5 255.5,431.5C 255.5,366.5 255.5,301.5 255.5,236.5 Z"/></g>
<g><path style="opacity:1" fill="#020203" d="M 340.5,283.5 C 370.298,280.963 390.132,293.63 400,321.5C 404.488,350.03 393.655,370.196 367.5,382C 341.174,389.077 320.674,381.243 306,358.5C 294.745,333.559 299.245,312.059 319.5,294C 326.035,289.399 333.035,285.899 340.5,283.5 Z"/></g>
<g><path style="opacity:1" fill="#fcfcfc" d="M 343.5,303.5 C 368.515,302.02 381.015,313.687 381,338.5C 375.973,358.496 363.139,366.996 342.5,364C 324.769,357.035 317.602,344.202 321,325.5C 325.109,314.557 332.609,307.223 343.5,303.5 Z"/></g>
<g><path style="opacity:1" fill="#c4d2dd" d="M 65.5,451.5 C 122.167,451.5 178.833,451.5 235.5,451.5C 235.5,464.833 235.5,478.167 235.5,491.5C 183.166,491.667 130.832,491.5 78.5,491C 71.9028,488.737 67.7361,484.237 66,477.5C 65.5002,468.84 65.3336,460.173 65.5,451.5 Z"/></g>
<g><path style="opacity:1" fill="#fefefe" d="M 255.5,451.5 C 318.833,451.5 382.167,451.5 445.5,451.5C 445.666,460.173 445.5,468.84 445,477.5C 443.264,484.237 439.097,488.737 432.5,491C 373.501,491.5 314.501,491.667 255.5,491.5C 255.5,478.167 255.5,464.833 255.5,451.5 Z"/></g>
</svg>
