<?xml version="1.0" encoding="UTF-8"?>
<!DOCTYPE svg PUBLIC "-//W3C//DTD SVG 1.1//EN" "http://www.w3.org/Graphics/SVG/1.1/DTD/svg11.dtd">
<svg xmlns="http://www.w3.org/2000/svg" version="1.1" width="512px" height="512px" style="shape-rendering:geometricPrecision; text-rendering:geometricPrecision; image-rendering:optimizeQuality; fill-rule:evenodd; clip-rule:evenodd" xmlns:xlink="http://www.w3.org/1999/xlink">
<g><path style="opacity:0.958" fill="#010000" d="M 409.5,-0.5 C 416.167,-0.5 422.833,-0.5 429.5,-0.5C 474.483,7.48275 501.817,33.8161 511.5,78.5C 511.5,87.8333 511.5,97.1667 511.5,106.5C 499.538,155.001 468.538,180.668 418.5,183.5C 379.04,181.873 350.874,163.207 334,127.5C 319.995,83.8658 330.161,47.0325 364.5,17C 378.147,7.50985 393.147,1.67652 409.5,-0.5 Z"/></g>
<g><path style="opacity:1" fill="#c86d58" d="M 411.5,15.5 C 417.365,16.2626 422.698,18.4293 427.5,22C 461.943,49.2461 471.776,83.7461 457,125.5C 448.612,143.888 435.445,157.722 417.5,167C 414.518,167.498 411.518,167.665 408.5,167.5C 373.824,160.659 352.324,139.993 344,105.5C 339.668,71.6716 351.502,45.1716 379.5,26C 389.37,19.9877 400.036,16.4877 411.5,15.5 Z"/></g>
<g><path style="opacity:1" fill="#b95c4b" d="M 411.5,15.5 C 447.211,13.6863 473.378,28.6863 490,60.5C 502.983,96.0685 495.483,126.569 467.5,152C 449.777,165.083 430.11,170.249 408.5,167.5C 411.518,167.665 414.518,167.498 417.5,167C 435.445,157.722 448.612,143.888 457,125.5C 471.776,83.7461 461.943,49.2461 427.5,22C 422.698,18.4293 417.365,16.2626 411.5,15.5 Z"/></g>
<g><path style="opacity:0.962" fill="#020000" d="M -0.5,156.5 C -0.5,147.833 -0.5,139.167 -0.5,130.5C 1.4795,119.299 5.31283,108.632 11,98.5C 14.0027,96.3593 17.1693,96.0259 20.5,97.5C 22.4613,99.2916 23.7946,101.458 24.5,104C 6.42785,142.567 13.0945,176.234 44.5,205C 57.1952,214.68 71.5285,219.846 87.5,220.5C 129.946,219.687 156.446,198.687 167,157.5C 171.989,117.973 156.489,89.8059 120.5,73C 109.92,68.8015 98.9201,66.9682 87.5,67.5C 68.6174,68.2756 52.284,75.109 38.5,88C 35.3188,88.5971 32.3188,88.0971 29.5,86.5C 27.7069,83.7413 27.2069,80.7413 28,77.5C 51.4887,54.9972 79.322,47.1638 111.5,54C 147.42,62.9212 170.586,85.0879 181,120.5C 182.325,126.782 183.325,133.115 184,139.5C 225.656,130.052 259.323,142.385 285,176.5C 306.057,212.513 305.39,248.179 283,283.5C 258.416,313.367 226.916,324.867 188.5,318C 156.484,310.644 134.318,291.81 122,261.5C 118.848,252.074 116.848,242.408 116,232.5C 72.5531,242.574 38.2198,229.241 13,192.5C 6.47886,181.148 1.97886,169.148 -0.5,156.5 Z"/></g>
<g><path style="opacity:1" fill="#c96d58" d="M 87.5,67.5 C 128.775,91.1107 143.275,126.111 131,172.5C 122.571,194.091 108.071,210.091 87.5,220.5C 71.5285,219.846 57.1952,214.68 44.5,205C 13.0945,176.234 6.42785,142.567 24.5,104C 23.7946,101.458 22.4613,99.2916 20.5,97.5C 23.1518,93.5181 26.1518,89.8514 29.5,86.5C 32.3188,88.0971 35.3188,88.5971 38.5,88C 52.284,75.109 68.6174,68.2756 87.5,67.5 Z"/></g>
<g><path style="opacity:1" fill="#b95c4b" d="M 87.5,67.5 C 98.9201,66.9682 109.92,68.8015 120.5,73C 156.489,89.8059 171.989,117.973 167,157.5C 156.446,198.687 129.946,219.687 87.5,220.5C 108.071,210.091 122.571,194.091 131,172.5C 143.275,126.111 128.775,91.1107 87.5,67.5 Z"/></g>
<g><path style="opacity:1" fill="#050201" d="M 372.5,87.5 C 375.602,87.154 378.435,87.8207 381,89.5C 382.61,100.666 387.11,110.499 394.5,119C 397.997,121.583 401.664,123.916 405.5,126C 412.028,127.572 418.528,129.072 425,130.5C 428.659,139.525 425.659,143.859 416,143.5C 385.881,139.055 370.215,121.721 369,91.5C 369.69,89.6498 370.856,88.3164 372.5,87.5 Z"/></g>
<g><path style="opacity:1" fill="#050201" d="M 80.5,92.5 C 85.9586,92.1033 91.2919,92.6033 96.5,94C 98.5037,96.8408 99.0037,100.007 98,103.5C 96.786,105.049 95.286,106.215 93.5,107C 68.2992,109.203 54.7992,123.036 53,148.5C 47.8787,152.875 43.5454,152.209 40,146.5C 40.6603,118.838 54.1603,100.838 80.5,92.5 Z"/></g>
<g><path style="opacity:1" fill="#a34e3d" d="M 195.5,151.5 C 230.376,149.022 257.21,162.355 276,191.5C 284.095,206.888 286.762,223.222 284,240.5C 276.994,272.507 257.827,293.34 226.5,303C 186.303,309.844 156.803,295.344 138,259.5C 133.552,248.93 131.552,237.93 132,226.5C 160.167,211.478 177,188.145 182.5,156.5C 186.736,154.367 191.069,152.701 195.5,151.5 Z"/></g>
<g><path style="opacity:0.963" fill="#020000" d="M 472.5,372.5 C 471.167,371.067 469.667,369.733 468,368.5C 467.077,366.966 466.577,365.299 466.5,363.5C 475.146,323.922 462.146,293.756 427.5,273C 385.422,256.14 351.589,266.307 326,303.5C 321.264,311.21 318.43,319.543 317.5,328.5C 367.598,337.265 395.265,366.931 400.5,417.5C 423.609,415.281 441.942,404.781 455.5,386C 458.79,384.265 462.123,384.099 465.5,385.5C 466.458,385.953 467.292,386.619 468,387.5C 468.667,390.167 468.667,392.833 468,395.5C 450.989,418.427 428.156,431.094 399.5,433.5C 390.859,478.143 364.192,504.143 319.5,511.5C 312.5,511.5 305.5,511.5 298.5,511.5C 251.956,504.123 224.789,477.123 217,430.5C 214.487,382.664 235.32,349.831 279.5,332C 286.447,330.177 293.447,328.677 300.5,327.5C 315.612,271.246 352.279,245.746 410.5,251C 448.426,260.259 472.593,283.759 483,321.5C 486.333,335.167 486.333,348.833 483,362.5C 482.545,369.123 479.045,372.457 472.5,372.5 Z"/></g>
<g><path style="opacity:1" fill="#a34e3d" d="M 472.5,372.5 C 470.452,376.926 468.118,381.26 465.5,385.5C 462.123,384.099 458.79,384.265 455.5,386C 441.942,404.781 423.609,415.281 400.5,417.5C 395.265,366.931 367.598,337.265 317.5,328.5C 318.43,319.543 321.264,311.21 326,303.5C 351.589,266.307 385.422,256.14 427.5,273C 462.146,293.756 475.146,323.922 466.5,363.5C 466.577,365.299 467.077,366.966 468,368.5C 469.667,369.733 471.167,371.067 472.5,372.5 Z"/></g>
<g><path style="opacity:1" fill="#c96d58" d="M 305.5,343.5 C 320.879,352.043 333.212,363.877 342.5,379C 342.272,379.399 341.938,379.565 341.5,379.5C 330.543,371.177 318.21,367.677 304.5,369C 301.606,371.909 300.773,375.409 302,379.5C 303.214,381.049 304.714,382.215 306.5,383C 331.701,385.203 345.201,399.036 347,424.5C 348.488,426.16 350.321,427.16 352.5,427.5C 348.811,458.009 333.477,480.509 306.5,495C 303.518,495.498 300.518,495.665 297.5,495.5C 263.8,489.97 242.633,470.636 234,437.5C 226.994,396.774 241.827,367.274 278.5,349C 287.16,345.435 296.16,343.601 305.5,343.5 Z"/></g>
<g><path style="opacity:1" fill="#b95c4b" d="M 305.5,343.5 C 346.674,344.506 372.841,364.84 384,404.5C 389.085,444.502 373.585,473.336 337.5,491C 324.402,495.973 311.068,497.473 297.5,495.5C 300.518,495.665 303.518,495.498 306.5,495C 333.477,480.509 348.811,458.009 352.5,427.5C 356.09,427.456 358.59,425.789 360,422.5C 360.414,405.328 354.247,390.995 341.5,379.5C 341.938,379.565 342.272,379.399 342.5,379C 333.212,363.877 320.879,352.043 305.5,343.5 Z"/></g>
<g><path style="opacity:1" fill="#050201" d="M 341.5,379.5 C 354.247,390.995 360.414,405.328 360,422.5C 358.59,425.789 356.09,427.456 352.5,427.5C 350.321,427.16 348.488,426.16 347,424.5C 345.201,399.036 331.701,385.203 306.5,383C 304.714,382.215 303.214,381.049 302,379.5C 300.773,375.409 301.606,371.909 304.5,369C 318.21,367.677 330.543,371.177 341.5,379.5 Z"/></g>
</svg>
