<?xml version="1.0" encoding="UTF-8"?>
<!DOCTYPE svg PUBLIC "-//W3C//DTD SVG 1.1//EN" "http://www.w3.org/Graphics/SVG/1.1/DTD/svg11.dtd">
<svg xmlns="http://www.w3.org/2000/svg" version="1.1" width="512px" height="512px" style="shape-rendering:geometricPrecision; text-rendering:geometricPrecision; image-rendering:optimizeQuality; fill-rule:evenodd; clip-rule:evenodd" xmlns:xlink="http://www.w3.org/1999/xlink">
<g><path style="opacity:0.984" fill="#050403" d="M 17.5,-0.5 C 90.8333,-0.5 164.167,-0.5 237.5,-0.5C 245.02,3.01377 251.02,8.3471 255.5,15.5C 259.98,8.3471 265.98,3.01377 273.5,-0.5C 291.833,-0.5 310.167,-0.5 328.5,-0.5C 337.483,2.318 343.317,8.318 346,17.5C 346.5,138.166 346.667,258.833 346.5,379.5C 362.181,377.712 376.681,381.045 390,389.5C 407.012,360.8 425.512,333.133 445.5,306.5C 461.58,328.992 477.413,351.659 493,374.5C 502.704,391.781 508.871,410.114 511.5,429.5C 511.5,438.5 511.5,447.5 511.5,456.5C 504.833,486.5 486.5,504.833 456.5,511.5C 449.167,511.5 441.833,511.5 434.5,511.5C 421.622,509.061 410.289,503.394 400.5,494.5C 390.448,502.86 379.114,508.526 366.5,511.5C 357.167,511.5 347.833,511.5 338.5,511.5C 317.826,508.773 298.492,501.94 280.5,491C 267.167,481.667 253.833,472.333 240.5,463C 172.5,462.667 104.5,462.333 36.5,462C 17.1386,459.011 4.80526,448.177 -0.5,429.5C -0.5,292.167 -0.5,154.833 -0.5,17.5C 2.5,8.5 8.5,2.5 17.5,-0.5 Z"/></g>
<g><path style="opacity:1" fill="#cbd0d8" d="M 65.5,73.5 C 60.1667,73.5 54.8333,73.5 49.5,73.5C 49.8064,70.6146 49.4731,67.9479 48.5,65.5C 37.8333,65.5 27.1667,65.5 16.5,65.5C 16.3334,50.4963 16.5001,35.4963 17,20.5C 18.1667,19.3333 19.3333,18.1667 20.5,17C 91.8333,16.3333 163.167,16.3333 234.5,17C 241.635,26.783 248.635,36.6164 255.5,46.5C 262.365,36.6164 269.365,26.783 276.5,17C 292.833,16.3333 309.167,16.3333 325.5,17C 326.667,18.1667 327.833,19.3333 329,20.5C 329.5,35.4963 329.667,50.4963 329.5,65.5C 241.5,65.5 153.5,65.5 65.5,65.5C 65.5,68.1667 65.5,70.8333 65.5,73.5 Z"/></g>
<g><path style="opacity:1" fill="#ce9d75" d="M 49.5,73.5 C 54.8333,73.5 60.1667,73.5 65.5,73.5C 65.5,76.5 65.5,79.5 65.5,82.5C 153.5,82.5 241.5,82.5 329.5,82.5C 329.833,182.169 329.5,281.836 328.5,381.5C 313.802,384.788 299.802,389.955 286.5,397C 263.224,412.61 240.224,428.61 217.5,445C 156.833,445.667 96.1667,445.667 35.5,445C 27.5486,442.715 21.7152,437.881 18,430.5C 16.5078,314.543 16.0078,198.543 16.5,82.5C 27.5,82.5 38.5,82.5 49.5,82.5C 49.5,79.5 49.5,76.5 49.5,73.5 Z"/></g>
<g><path style="opacity:1" fill="#564334" d="M 48.5,65.5 C 49.4731,67.9479 49.8064,70.6146 49.5,73.5C 49.5,76.5 49.5,79.5 49.5,82.5C 38.5,82.5 27.5,82.5 16.5,82.5C 26.9869,81.5056 37.6536,81.1722 48.5,81.5C 48.5,76.1667 48.5,70.8333 48.5,65.5 Z"/></g>
<g><path style="opacity:1" fill="#080504" d="M 32.5,98.5 C 65.5,98.5 98.5,98.5 131.5,98.5C 131.5,104.167 131.5,109.833 131.5,115.5C 98.5,115.5 65.5,115.5 32.5,115.5C 32.5,109.833 32.5,104.167 32.5,98.5 Z"/></g>
<g><path style="opacity:1" fill="#040302" d="M 297.5,98.5 C 302.833,98.5 308.167,98.5 313.5,98.5C 313.5,103.833 313.5,109.167 313.5,114.5C 313.5,109.167 313.5,103.833 313.5,98.5C 308.167,98.5 302.833,98.5 297.5,98.5 Z"/></g>
<g><path style="opacity:1" fill="#403124" d="M 264.5,98.5 C 264.5,103.833 264.5,109.167 264.5,114.5C 269.5,114.5 274.5,114.5 279.5,114.5C 279.5,109.167 279.5,103.833 279.5,98.5C 280.489,103.975 280.822,109.642 280.5,115.5C 274.833,115.5 269.167,115.5 263.5,115.5C 263.178,109.642 263.511,103.975 264.5,98.5 Z"/></g>
<g><path style="opacity:1" fill="#010000" d="M 264.5,98.5 C 269.5,98.5 274.5,98.5 279.5,98.5C 279.5,103.833 279.5,109.167 279.5,114.5C 274.5,114.5 269.5,114.5 264.5,114.5C 264.5,109.167 264.5,103.833 264.5,98.5 Z"/></g>
<g><path style="opacity:1" fill="#493729" d="M 297.5,98.5 C 297.5,103.833 297.5,109.167 297.5,114.5C 302.833,114.5 308.167,114.5 313.5,114.5C 308.025,115.489 302.358,115.822 296.5,115.5C 296.178,109.642 296.511,103.975 297.5,98.5 Z"/></g>
<g><path style="opacity:1" fill="#080504" d="M 32.5,131.5 C 65.5,131.5 98.5,131.5 131.5,131.5C 131.5,137.167 131.5,142.833 131.5,148.5C 98.5,148.5 65.5,148.5 32.5,148.5C 32.5,142.833 32.5,137.167 32.5,131.5 Z"/></g>
<g><path style="opacity:1" fill="#040303" d="M 160.5,156.5 C 199.271,154.637 230.105,169.304 253,200.5C 283.475,247.469 288.475,297.135 268,349.5C 256.013,379.153 235.513,400.653 206.5,414C 172.097,426.452 140.764,421.118 112.5,398C 84.861,372.219 69.361,340.386 66,302.5C 62.7017,261.406 73.7017,224.74 99,192.5C 115.598,173.625 136.098,161.625 160.5,156.5 Z"/></g>
<g><path style="opacity:1" fill="#e3e6ea" d="M 159.5,173.5 C 184.01,170.873 205.677,177.373 224.5,193C 246.516,214.534 259.35,240.701 263,271.5C 267.098,310.411 257.098,345.078 233,375.5C 205.051,405.52 172.551,411.686 135.5,394C 114.427,380.584 99.5933,362.084 91,338.5C 73.892,289.242 80.892,243.908 112,202.5C 125.036,188.074 140.869,178.407 159.5,173.5 Z"/></g>
<g><path style="opacity:1" fill="#050404" d="M 191.5,206.5 C 189.093,207.794 186.926,209.461 185,211.5C 179.731,206.755 173.564,205.255 166.5,207C 156.335,212.843 153.835,221.009 159,231.5C 165.535,239.074 173.369,240.574 182.5,236C 187.087,232.66 189.42,228.16 189.5,222.5C 192.167,222.5 194.833,222.5 197.5,222.5C 200.167,222.5 202.833,222.5 205.5,222.5C 204.008,241.824 193.675,252.824 174.5,255.5C 152.843,254.361 141.509,243.028 140.5,221.5C 141.157,208.021 147.49,198.188 159.5,192C 173.159,187.465 185.325,189.965 196,199.5C 196.667,200.167 196.667,200.833 196,201.5C 194.293,203.037 192.793,204.704 191.5,206.5 Z"/></g>
<g><path style="opacity:1" fill="#f8d46e" d="M 191.5,206.5 C 195.649,210.939 197.649,216.272 197.5,222.5C 194.833,222.5 192.167,222.5 189.5,222.5C 189.42,228.16 187.087,232.66 182.5,236C 173.369,240.574 165.535,239.074 159,231.5C 153.835,221.009 156.335,212.843 166.5,207C 173.564,205.255 179.731,206.755 185,211.5C 186.926,209.461 189.093,207.794 191.5,206.5 Z"/></g>
<g><path style="opacity:1" fill="#050504" d="M 107.5,288.5 C 110.167,288.5 112.833,288.5 115.5,288.5C 115.774,298.607 120.941,303.941 131,304.5C 141.43,304.238 147.263,298.905 148.5,288.5C 146.321,275.399 138.654,270.233 125.5,273C 123.557,274.555 121.39,275.722 119,276.5C 117.019,275.35 115.186,274.016 113.5,272.5C 111.215,270.882 109.215,268.882 107.5,266.5C 118.585,254.859 131.585,252.359 146.5,259C 165.792,271.881 169.625,288.381 158,308.5C 143.7,323.628 127.867,325.462 110.5,314C 103.432,307.364 99.4324,299.198 98.5,289.5C 101.428,288.516 104.428,288.183 107.5,288.5 Z"/></g>
<g><path style="opacity:1" fill="#060504" d="M 232.5,272.5 C 230.519,274.144 228.519,275.81 226.5,277.5C 217.687,270.56 209.187,270.893 201,278.5C 194.979,288.989 197.145,297.489 207.5,304C 220.767,306.874 228.433,301.708 230.5,288.5C 233.167,288.5 235.833,288.5 238.5,288.5C 241.167,288.5 243.833,288.5 246.5,288.5C 245.763,305.126 237.43,315.959 221.5,321C 201.223,323.448 188.057,314.948 182,295.5C 179.541,275.249 188.041,262.082 207.5,256C 219.069,254.746 229.236,257.912 238,265.5C 238.667,266.167 238.667,266.833 238,267.5C 235.672,268.664 233.838,270.33 232.5,272.5 Z"/></g>
<g><path style="opacity:1" fill="#f7d36e" d="M 113.5,272.5 C 115.186,274.016 117.019,275.35 119,276.5C 121.39,275.722 123.557,274.555 125.5,273C 138.654,270.233 146.321,275.399 148.5,288.5C 147.263,298.905 141.43,304.238 131,304.5C 120.941,303.941 115.774,298.607 115.5,288.5C 112.833,288.5 110.167,288.5 107.5,288.5C 106.738,282.041 108.738,276.707 113.5,272.5 Z"/></g>
<g><path style="opacity:1" fill="#f9d46e" d="M 232.5,272.5 C 237.038,276.77 239.038,282.103 238.5,288.5C 235.833,288.5 233.167,288.5 230.5,288.5C 228.433,301.708 220.767,306.874 207.5,304C 197.145,297.489 194.979,288.989 201,278.5C 209.187,270.893 217.687,270.56 226.5,277.5C 228.519,275.81 230.519,274.144 232.5,272.5 Z"/></g>
<g><path style="opacity:1" fill="#050404" d="M 191.5,338.5 C 189.454,340.279 187.287,341.946 185,343.5C 178.424,337.959 171.258,337.125 163.5,341C 153.935,350.683 154.268,360.017 164.5,369C 173.418,373.306 180.918,371.473 187,363.5C 188.549,360.688 189.382,357.688 189.5,354.5C 192.167,354.5 194.833,354.5 197.5,354.5C 200.167,354.5 202.833,354.5 205.5,354.5C 204.418,372.522 195.085,383.356 177.5,387C 161.981,388.324 150.481,382.157 143,368.5C 136.814,351.732 140.647,337.899 154.5,327C 169.444,318.661 183.277,320.161 196,331.5C 196.667,332.167 196.667,332.833 196,333.5C 194.293,335.037 192.793,336.704 191.5,338.5 Z"/></g>
<g><path style="opacity:1" fill="#f9d46e" d="M 444.5,336.5 C 446.193,337.475 447.693,338.808 449,340.5C 455.611,350.777 462.611,360.777 470,370.5C 488.747,395.748 496.747,424.081 494,455.5C 484.934,484.792 465.1,497.626 434.5,494C 425.284,491.393 417.284,486.726 410.5,480C 425.5,452.461 423.5,426.294 404.5,401.5C 407.195,393.777 410.695,386.443 415,379.5C 424.843,365.138 434.677,350.804 444.5,336.5 Z"/></g>
<g><path style="opacity:1" fill="#f8d36e" d="M 191.5,338.5 C 195.649,342.939 197.649,348.272 197.5,354.5C 194.833,354.5 192.167,354.5 189.5,354.5C 189.382,357.688 188.549,360.688 187,363.5C 180.918,371.473 173.418,373.306 164.5,369C 154.268,360.017 153.935,350.683 163.5,341C 171.258,337.125 178.424,337.959 185,343.5C 187.287,341.946 189.454,340.279 191.5,338.5 Z"/></g>
<g><path style="opacity:1" fill="#060502" d="M 451.5,374.5 C 472.719,398.322 480.885,425.989 476,457.5C 470.085,470.569 459.918,477.569 445.5,478.5C 445.5,472.833 445.5,467.167 445.5,461.5C 453.232,461.389 458.398,457.722 461,450.5C 463.073,430.457 458.406,412.124 447,395.5C 444.045,391.756 441.211,387.922 438.5,384C 443.015,380.97 447.349,377.803 451.5,374.5 Z"/></g>
<g><path style="opacity:1" fill="#f9d46e" d="M 335.5,396.5 C 356.132,392.419 374.299,397.085 390,410.5C 409.283,433.823 409.283,457.156 390,480.5C 374.646,494.054 356.813,498.554 336.5,494C 320.042,491.293 304.709,485.626 290.5,477C 275.362,466.695 260.362,456.195 245.5,445.5C 261.086,433.749 277.086,422.582 293.5,412C 306.88,404.795 320.88,399.628 335.5,396.5 Z"/></g>
<g><path style="opacity:1" fill="#060502" d="M 370.5,445.5 C 376.167,445.5 381.833,445.5 387.5,445.5C 385.013,467.312 372.679,478.312 350.5,478.5C 331.344,477.726 313.678,472.226 297.5,462C 295.671,460.887 294.837,459.387 295,457.5C 297.248,454.672 299.248,451.672 301,448.5C 301.739,447.426 302.739,446.759 304,446.5C 320.745,457.978 339.245,462.811 359.5,461C 367.213,458.751 370.88,453.584 370.5,445.5 Z"/></g>
</svg>
