<?xml version="1.0" encoding="UTF-8"?>
<!DOCTYPE svg PUBLIC "-//W3C//DTD SVG 1.1//EN" "http://www.w3.org/Graphics/SVG/1.1/DTD/svg11.dtd">
<svg xmlns="http://www.w3.org/2000/svg" version="1.1" width="512px" height="512px" style="shape-rendering:geometricPrecision; text-rendering:geometricPrecision; image-rendering:optimizeQuality; fill-rule:evenodd; clip-rule:evenodd" xmlns:xlink="http://www.w3.org/1999/xlink">
<g><path style="opacity:0.958" fill="#030101" d="M 409.5,-0.5 C 416.167,-0.5 422.833,-0.5 429.5,-0.5C 474.483,7.48275 501.817,33.8161 511.5,78.5C 511.5,87.8333 511.5,97.1667 511.5,106.5C 499.538,155.001 468.538,180.668 418.5,183.5C 379.04,181.873 350.874,163.207 334,127.5C 319.995,83.8658 330.161,47.0325 364.5,17C 378.147,7.50985 393.147,1.67652 409.5,-0.5 Z"/></g>
<g><path style="opacity:1" fill="#ca3301" d="M 415.5,15.5 C 417.181,17.0075 419.181,18.0075 421.5,18.5C 423.975,21.2411 426.975,23.2411 430.5,24.5C 438.578,31.2423 445.578,38.9089 451.5,47.5C 452.992,51.8178 454.992,55.8178 457.5,59.5C 466.486,84.3968 465.153,108.73 453.5,132.5C 450.34,136.148 447.673,140.148 445.5,144.5C 444.833,144.5 444.5,144.833 444.5,145.5C 440.5,148.833 436.833,152.5 433.5,156.5C 428.477,159.867 423.477,163.2 418.5,166.5C 415.236,167.324 411.902,167.658 408.5,167.5C 378.813,161.652 358.313,144.652 347,116.5C 336.351,72.3108 351.184,40.1441 391.5,20C 399.18,16.7639 407.18,15.2639 415.5,15.5 Z"/></g>
<g><path style="opacity:1" fill="#ad2e05" d="M 415.5,15.5 C 456.612,15.9874 483.112,35.9874 495,75.5C 500.238,115.842 484.738,145.009 448.5,163C 439.196,166.773 429.529,168.606 419.5,168.5C 419.167,167.833 418.833,167.167 418.5,166.5C 423.477,163.2 428.477,159.867 433.5,156.5C 438.167,153.833 441.833,150.167 444.5,145.5C 444.5,144.833 444.833,144.5 445.5,144.5C 449.156,141.197 451.822,137.197 453.5,132.5C 465.153,108.73 466.486,84.3968 457.5,59.5C 456.54,54.9136 454.54,50.9136 451.5,47.5C 445.578,38.9089 438.578,31.2423 430.5,24.5C 428.049,21.7232 425.049,19.7232 421.5,18.5C 419.181,18.0075 417.181,17.0075 415.5,15.5 Z"/></g>
<g><path style="opacity:1" fill="#c26552" d="M 421.5,18.5 C 425.049,19.7232 428.049,21.7232 430.5,24.5C 426.975,23.2411 423.975,21.2411 421.5,18.5 Z"/></g>
<g><path style="opacity:1" fill="#c26552" d="M 451.5,47.5 C 454.54,50.9136 456.54,54.9136 457.5,59.5C 454.992,55.8178 452.992,51.8178 451.5,47.5 Z"/></g>
<g><path style="opacity:0.962" fill="#040101" d="M -0.5,156.5 C -0.5,147.833 -0.5,139.167 -0.5,130.5C 1.4795,119.299 5.31283,108.632 11,98.5C 14.0027,96.3593 17.1693,96.0259 20.5,97.5C 22.9971,98.6736 24.3305,100.674 24.5,103.5C 21.4483,111.399 18.615,119.399 16,127.5C 11.2114,160.049 21.7114,186.549 47.5,207C 59.3941,214.935 72.3941,219.435 86.5,220.5C 121.423,221.124 146.59,205.791 162,174.5C 176.335,134.174 165.835,102.007 130.5,78C 116.783,70.5468 102.116,67.0468 86.5,67.5C 68.0075,68.5816 52.0075,75.415 38.5,88C 35.9615,88.7958 33.6282,88.6291 31.5,87.5C 31.1583,86.6618 30.4916,86.3284 29.5,86.5C 27.7069,83.7413 27.2069,80.7413 28,77.5C 51.4887,54.9972 79.322,47.1638 111.5,54C 147.42,62.9212 170.586,85.0879 181,120.5C 182.325,126.782 183.325,133.115 184,139.5C 225.656,130.052 259.323,142.385 285,176.5C 306.057,212.513 305.39,248.179 283,283.5C 258.416,313.367 226.916,324.867 188.5,318C 156.484,310.644 134.318,291.81 122,261.5C 118.848,252.074 116.848,242.408 116,232.5C 72.5531,242.574 38.2198,229.241 13,192.5C 6.47886,181.148 1.97886,169.148 -0.5,156.5 Z"/></g>
<g><path style="opacity:1" fill="#ca3301" d="M 86.5,67.5 C 88.8485,69.341 91.5152,70.6743 94.5,71.5C 96.9754,74.2411 99.9754,76.2411 103.5,77.5C 103.5,78.1667 103.833,78.5 104.5,78.5C 108.167,82.8333 112.167,86.8333 116.5,90.5C 125.498,102.16 131.498,115.16 134.5,129.5C 135.089,136.485 135.422,143.485 135.5,150.5C 133.264,168.31 126.598,184.31 115.5,198.5C 111.833,201.5 108.5,204.833 105.5,208.5C 99.2992,212.764 92.9659,216.764 86.5,220.5C 72.3941,219.435 59.3941,214.935 47.5,207C 21.7114,186.549 11.2114,160.049 16,127.5C 18.615,119.399 21.4483,111.399 24.5,103.5C 24.3305,100.674 22.9971,98.6736 20.5,97.5C 21.7007,95.0905 23.3674,93.0905 25.5,91.5C 27.2459,89.7484 29.2459,88.4151 31.5,87.5C 33.6282,88.6291 35.9615,88.7958 38.5,88C 52.0075,75.415 68.0075,68.5816 86.5,67.5 Z"/></g>
<g><path style="opacity:1" fill="#ad2e05" d="M 86.5,67.5 C 102.116,67.0468 116.783,70.5468 130.5,78C 165.835,102.007 176.335,134.174 162,174.5C 146.59,205.791 121.423,221.124 86.5,220.5C 92.9659,216.764 99.2992,212.764 105.5,208.5C 109.833,206.167 113.167,202.833 115.5,198.5C 126.598,184.31 133.264,168.31 135.5,150.5C 136.83,143.443 136.496,136.443 134.5,129.5C 131.498,115.16 125.498,102.16 116.5,90.5C 113.5,85.5 109.5,81.5 104.5,78.5C 103.833,78.5 103.5,78.1667 103.5,77.5C 101.049,74.7232 98.0495,72.7232 94.5,71.5C 91.5152,70.6743 88.8485,69.341 86.5,67.5 Z"/></g>
<g><path style="opacity:1" fill="#c26552" d="M 94.5,71.5 C 98.0495,72.7232 101.049,74.7232 103.5,77.5C 99.9754,76.2411 96.9754,74.2411 94.5,71.5 Z"/></g>
<g><path style="opacity:1" fill="#c26552" d="M 104.5,78.5 C 109.5,81.5 113.5,85.5 116.5,90.5C 112.167,86.8333 108.167,82.8333 104.5,78.5 Z"/></g>
<g><path style="opacity:1" fill="#0e0706" d="M 371.5,87.5 C 375.516,86.8999 379.016,87.8999 382,90.5C 383.846,106.487 391.679,118.321 405.5,126C 410.678,127.798 416.011,128.798 421.5,129C 427.225,130.51 428.892,134.01 426.5,139.5C 425.618,140.76 424.618,141.926 423.5,143C 405.925,144.796 391.425,138.962 380,125.5C 374.261,117.923 370.261,109.589 368,100.5C 367.333,97.5 367.333,94.5 368,91.5C 369.102,90.051 370.269,88.7177 371.5,87.5 Z"/></g>
<g><path style="opacity:0.8" fill="#c86c58" d="M 29.5,86.5 C 30.4916,86.3284 31.1583,86.6618 31.5,87.5C 29.2459,88.4151 27.2459,89.7484 25.5,91.5C 26.0798,89.2512 27.4131,87.5846 29.5,86.5 Z"/></g>
<g><path style="opacity:1" fill="#0b0504" d="M 79.5,92.5 C 84.5111,92.3341 89.5111,92.5007 94.5,93C 95.5,93.5 96.5,94 97.5,94.5C 99.4931,99.4843 98.4931,103.651 94.5,107C 68.7708,108.729 54.9374,122.562 53,148.5C 44.3792,153.918 39.8792,151.418 39.5,141C 40.2126,124.573 47.2126,111.573 60.5,102C 66.4201,97.7065 72.7534,94.5398 79.5,92.5 Z"/></g>
<g><path style="opacity:1" fill="#c26452" d="M 453.5,132.5 C 451.822,137.197 449.156,141.197 445.5,144.5C 447.673,140.148 450.34,136.148 453.5,132.5 Z"/></g>
<g><path style="opacity:1" fill="#bf614f" d="M 134.5,129.5 C 136.496,136.443 136.83,143.443 135.5,150.5C 135.422,143.485 135.089,136.485 134.5,129.5 Z"/></g>
<g><path style="opacity:1" fill="#ac2b00" d="M 202.5,151.5 C 234.314,151.653 258.814,164.986 276,191.5C 286.603,214.139 287.27,237.139 278,260.5C 258.789,295.687 229.289,309.853 189.5,303C 152.273,290.807 133.106,265.307 132,226.5C 160.351,211.461 177.184,188.127 182.5,156.5C 183.912,155.194 185.579,154.36 187.5,154C 192.625,153.075 197.625,152.241 202.5,151.5 Z"/></g>
<g><path style="opacity:1" fill="#c06350" d="M 444.5,145.5 C 441.833,150.167 438.167,153.833 433.5,156.5C 436.833,152.5 440.5,148.833 444.5,145.5 Z"/></g>
<g><path style="opacity:1" fill="#944d3e" d="M 418.5,166.5 C 418.833,167.167 419.167,167.833 419.5,168.5C 415.629,168.815 411.962,168.482 408.5,167.5C 411.902,167.658 415.236,167.324 418.5,166.5 Z"/></g>
<g><path style="opacity:1" fill="#c16451" d="M 115.5,198.5 C 113.167,202.833 109.833,206.167 105.5,208.5C 108.5,204.833 111.833,201.5 115.5,198.5 Z"/></g>
<g><path style="opacity:0.963" fill="#040101" d="M 472.5,372.5 C 470.193,371.023 468.36,369.023 467,366.5C 476.214,322.101 460.714,289.935 420.5,270C 375.329,257.341 342.162,271.841 321,313.5C 319.042,318.329 317.876,323.329 317.5,328.5C 360.568,335.068 387.735,359.401 399,401.5C 400.095,406.78 400.595,412.113 400.5,417.5C 424.146,414.519 443.146,403.519 457.5,384.5C 460.435,383.102 463.102,383.435 465.5,385.5C 466.458,385.953 467.292,386.619 468,387.5C 468.667,390.167 468.667,392.833 468,395.5C 450.989,418.427 428.156,431.094 399.5,433.5C 390.859,478.143 364.192,504.143 319.5,511.5C 312.5,511.5 305.5,511.5 298.5,511.5C 251.956,504.123 224.789,477.123 217,430.5C 214.487,382.664 235.32,349.831 279.5,332C 286.447,330.177 293.447,328.677 300.5,327.5C 315.612,271.246 352.279,245.746 410.5,251C 448.426,260.259 472.593,283.759 483,321.5C 486.333,335.167 486.333,348.833 483,362.5C 482.545,369.123 479.045,372.457 472.5,372.5 Z"/></g>
<g><path style="opacity:1" fill="#ac2b00" d="M 472.5,372.5 C 471.833,373.167 471.167,373.833 470.5,374.5C 468.326,377.515 466.659,380.849 465.5,384.5C 465.5,384.833 465.5,385.167 465.5,385.5C 463.102,383.435 460.435,383.102 457.5,384.5C 443.146,403.519 424.146,414.519 400.5,417.5C 400.595,412.113 400.095,406.78 399,401.5C 387.735,359.401 360.568,335.068 317.5,328.5C 317.876,323.329 319.042,318.329 321,313.5C 342.162,271.841 375.329,257.341 420.5,270C 460.714,289.935 476.214,322.101 467,366.5C 468.36,369.023 470.193,371.023 472.5,372.5 Z"/></g>
<g><path style="opacity:1" fill="#ca3301" d="M 303.5,343.5 C 307.666,346.084 312,348.417 316.5,350.5C 317.262,352.262 318.596,353.262 320.5,353.5C 324.833,358.5 329.5,363.167 334.5,367.5C 336.353,370.695 338.353,373.861 340.5,377C 339.906,377.464 339.239,377.631 338.5,377.5C 330.527,371.965 321.694,368.965 312,368.5C 303.73,367.111 300.063,370.444 301,378.5C 302.395,380.14 303.895,381.64 305.5,383C 330.489,384.322 343.989,397.489 346,422.5C 346.998,425.234 348.832,426.901 351.5,427.5C 350.045,445.212 343.711,460.879 332.5,474.5C 328.833,477.5 325.5,480.833 322.5,484.5C 317.196,488.49 311.53,491.99 305.5,495C 302.854,495.497 300.187,495.664 297.5,495.5C 261.72,489.221 240.22,468.221 233,432.5C 228.969,401.42 239.136,376.254 263.5,357C 275.654,349.004 288.988,344.504 303.5,343.5 Z"/></g>
<g><path style="opacity:1" fill="#ac2e05" d="M 306.5,343.5 C 347.171,345.006 373.004,365.339 384,404.5C 389.113,447.036 371.947,476.536 332.5,493C 320.869,496.384 309.203,497.217 297.5,495.5C 300.187,495.664 302.854,495.497 305.5,495C 311.53,491.99 317.196,488.49 322.5,484.5C 326.833,482.167 330.167,478.833 332.5,474.5C 343.711,460.879 350.045,445.212 351.5,427.5C 355.683,428.154 358.516,426.488 360,422.5C 360.382,403.929 353.215,388.929 338.5,377.5C 339.239,377.631 339.906,377.464 340.5,377C 338.353,373.861 336.353,370.695 334.5,367.5C 330.833,361.833 326.167,357.167 320.5,353.5C 318.596,353.262 317.262,352.262 316.5,350.5C 313.516,347.674 310.183,345.341 306.5,343.5 Z"/></g>
<g><path style="opacity:1" fill="#c26652" d="M 303.5,343.5 C 304.5,343.5 305.5,343.5 306.5,343.5C 310.183,345.341 313.516,347.674 316.5,350.5C 312,348.417 307.666,346.084 303.5,343.5 Z"/></g>
<g><path style="opacity:1" fill="#c26552" d="M 320.5,353.5 C 326.167,357.167 330.833,361.833 334.5,367.5C 329.5,363.167 324.833,358.5 320.5,353.5 Z"/></g>
<g><path style="opacity:1" fill="#0b0504" d="M 338.5,377.5 C 353.215,388.929 360.382,403.929 360,422.5C 358.516,426.488 355.683,428.154 351.5,427.5C 348.832,426.901 346.998,425.234 346,422.5C 343.989,397.489 330.489,384.322 305.5,383C 303.895,381.64 302.395,380.14 301,378.5C 300.063,370.444 303.73,367.111 312,368.5C 321.694,368.965 330.527,371.965 338.5,377.5 Z"/></g>
<g><path style="opacity:0.686" fill="#a1513c" d="M 470.5,374.5 C 469.873,378.42 468.207,381.753 465.5,384.5C 466.659,380.849 468.326,377.515 470.5,374.5 Z"/></g>
<g><path style="opacity:1" fill="#c06350" d="M 332.5,474.5 C 330.167,478.833 326.833,482.167 322.5,484.5C 325.5,480.833 328.833,477.5 332.5,474.5 Z"/></g>
</svg>
