<?xml version="1.0" encoding="UTF-8"?>
<!DOCTYPE svg PUBLIC "-//W3C//DTD SVG 1.1//EN" "http://www.w3.org/Graphics/SVG/1.1/DTD/svg11.dtd">
<svg xmlns="http://www.w3.org/2000/svg" version="1.1" width="512px" height="512px" style="shape-rendering:geometricPrecision; text-rendering:geometricPrecision; image-rendering:optimizeQuality; fill-rule:evenodd; clip-rule:evenodd" xmlns:xlink="http://www.w3.org/1999/xlink">
<g><path style="opacity:0.982" fill="#030202" d="M 114.5,-0.5 C 120.167,-0.5 125.833,-0.5 131.5,-0.5C 141.835,2.32393 149.335,8.65727 154,18.5C 169.333,60.5 184.667,102.5 200,144.5C 223.813,135.462 245.647,138.962 265.5,155C 285.204,154.847 300.204,163.013 310.5,179.5C 322.656,180.086 333.323,184.253 342.5,192C 343.743,193.154 344.743,194.488 345.5,196C 371.109,199.986 396.109,206.319 420.5,215C 434.184,219.704 446.017,227.204 456,237.5C 457.92,240.339 459.587,243.339 461,246.5C 465.795,265.219 470.795,283.885 476,302.5C 483.141,337.859 477.641,371.025 459.5,402C 469.69,408.205 476.023,417.205 478.5,429C 495.572,433.241 506.572,443.741 511.5,460.5C 511.5,466.833 511.5,473.167 511.5,479.5C 506.5,495.833 495.833,506.5 479.5,511.5C 401.833,511.5 324.167,511.5 246.5,511.5C 226.34,505.328 215.34,491.661 213.5,470.5C 183.831,470.667 154.165,470.5 124.5,470C 64.8622,461.689 25.0288,429.189 5,372.5C 2.82468,364.437 0.991345,356.437 -0.5,348.5C -0.5,337.167 -0.5,325.833 -0.5,314.5C 4.9738,291.882 10.8071,269.215 17,246.5C 21.7797,236.72 28.9464,229.22 38.5,224C 58.4376,213.687 79.4376,206.354 101.5,202C 112.789,199.742 124.122,197.742 135.5,196C 138.909,193.966 141.909,191.466 144.5,188.5C 127.765,142.462 110.932,96.4616 94,50.5C 84.8278,26.8671 91.6612,9.86714 114.5,-0.5 Z"/></g>
<g><path style="opacity:1" fill="#f9d46e" d="M 117.5,16.5 C 127.287,14.5804 134.454,17.9137 139,26.5C 154,67.8333 169,109.167 184,150.5C 184.667,151.833 184.667,153.167 184,154.5C 176.374,161.96 170.541,170.626 166.5,180.5C 164.345,181.928 162.179,182.261 160,181.5C 142.53,132.757 124.864,84.0902 107,35.5C 106.336,26.8253 109.836,20.492 117.5,16.5 Z"/></g>
<g><path style="opacity:1" fill="#ddb089" d="M 214.5,156.5 C 225.89,155.182 236.557,157.348 246.5,163C 250.833,166 255.167,169 259.5,172C 266.973,172.057 274.306,173.057 281.5,175C 291.409,179.328 297.076,186.828 298.5,197.5C 312.578,194.43 324.411,198.097 334,208.5C 337.389,214.723 339.223,221.39 339.5,228.5C 353.337,234.67 364.004,244.337 371.5,257.5C 369.228,258.485 366.895,259.319 364.5,260C 300.275,271.782 235.608,274.782 170.5,269C 149.855,267.218 129.522,263.718 109.5,258.5C 115.631,246.045 125.631,239.045 139.5,237.5C 139.226,210.608 152.559,197.108 179.5,197C 182.701,176.05 194.368,162.55 214.5,156.5 Z"/></g>
<g><path style="opacity:1" fill="#070504" d="M 210.5,173.5 C 220.002,172.493 223.502,176.493 221,185.5C 216.333,190.833 211.667,190.833 207,185.5C 205.593,180.556 206.759,176.556 210.5,173.5 Z"/></g>
<g><path style="opacity:1" fill="#0b0806" d="M 277.5,197.5 C 285.033,197.529 288.533,201.196 288,208.5C 283.33,215.977 278.33,216.311 273,209.5C 271.474,204.239 272.974,200.239 277.5,197.5 Z"/></g>
<g><path style="opacity:1" fill="#070504" d="M 210.5,214.5 C 221.832,214.344 224.832,219.177 219.5,229C 209.898,232.069 205.732,228.569 207,218.5C 208.376,217.295 209.542,215.962 210.5,214.5 Z"/></g>
<g><path style="opacity:1" fill="#e0e3e7" d="M 117.5,215.5 C 120.247,215.187 122.914,215.52 125.5,216.5C 124.607,219.084 124.274,221.751 124.5,224.5C 110.036,229.627 99.7024,239.294 93.5,253.5C 78.4371,251.151 64.4371,245.651 51.5,237C 61.5712,231.307 72.2379,226.974 83.5,224C 94.9397,221.048 106.273,218.215 117.5,215.5 Z"/></g>
<g><path style="opacity:1" fill="#e1e4e8" d="M 354.5,215.5 C 379.594,219.144 403.594,226.31 426.5,237C 414.824,244.252 402.324,249.752 389,253.5C 380.951,239.448 370.117,227.948 356.5,219C 355.177,218.184 354.511,217.017 354.5,215.5 Z"/></g>
<g><path style="opacity:1" fill="#0b0806" d="M 169.5,222.5 C 180.313,222.777 183.313,227.61 178.5,237C 169.059,240.544 164.559,237.377 165,227.5C 166.707,225.963 168.207,224.296 169.5,222.5 Z"/></g>
<g><path style="opacity:1" fill="#0a0806" d="M 310.5,230.5 C 318.033,230.529 321.533,234.196 321,241.5C 316.33,248.977 311.33,249.311 306,242.5C 304.474,237.239 305.974,233.239 310.5,230.5 Z"/></g>
<g><path style="opacity:1" fill="#070504" d="M 251.5,239.5 C 260.158,238.327 263.992,241.994 263,250.5C 261.434,253.813 258.767,255.479 255,255.5C 248.582,254.008 246.249,250.008 248,243.5C 249.376,242.295 250.542,240.962 251.5,239.5 Z"/></g>
<g><path style="opacity:1" fill="#c8cdd4" d="M 440.5,246.5 C 446.461,251.619 446.961,257.286 442,263.5C 434.044,270.9 424.878,276.4 414.5,280C 383.066,290.94 350.732,297.94 317.5,301C 252.27,307.068 187.27,305.401 122.5,296C 100.597,292.02 79.2641,286.02 58.5,278C 48.8936,274.042 40.7269,268.208 34,260.5C 31.3443,255.074 32.511,250.74 37.5,247.5C 58.0041,260.842 80.3374,270.009 104.5,275C 192.411,292.614 280.411,292.947 368.5,276C 390.172,271.443 410.839,264.11 430.5,254C 434.08,251.723 437.414,249.223 440.5,246.5 Z"/></g>
<g><path style="opacity:1" fill="#a9b1bc" d="M 218.5,452.5 C 190.574,453.491 162.574,453.824 134.5,453.5C 82.7708,449.914 46.2708,424.581 25,377.5C 13.2018,343.87 13.8684,310.537 27,277.5C 37.2575,286.067 48.7575,292.567 61.5,297C 97.2309,308.946 133.898,316.28 171.5,319C 241.035,324.72 310.035,321.053 378.5,308C 397.951,303.809 416.617,297.475 434.5,289C 440.276,285.556 445.776,281.723 451,277.5C 464.234,310.537 464.901,343.87 453,377.5C 450.527,383.779 447.527,389.779 444,395.5C 424.15,394.345 409.317,402.512 399.5,420C 395.137,420.29 390.804,420.79 386.5,421.5C 385.558,421.392 384.725,421.059 384,420.5C 377.87,407.354 367.703,399.354 353.5,396.5C 348.357,375.072 334.69,363.738 312.5,362.5C 291.41,365.084 277.743,376.584 271.5,397C 253.466,402.203 242.466,414.037 238.5,432.5C 229.457,436.877 222.79,443.543 218.5,452.5 Z"/></g>
<g><path style="opacity:1" fill="#030404" d="M 33.5,312.5 C 39.191,312.98 44.8577,313.646 50.5,314.5C 44.9498,359.238 61.9498,392.072 101.5,413C 106.304,415.213 111.304,416.713 116.5,417.5C 115.5,422.833 114.5,428.167 113.5,433.5C 80.8017,425.217 56.9683,405.884 42,375.5C 33.5137,355.278 30.6804,334.278 33.5,312.5 Z"/></g>
<g><path style="opacity:1" fill="#ddb08a" d="M 306.5,379.5 C 329.27,378.605 339.937,389.605 338.5,412.5C 361.215,411.048 372.382,421.715 372,444.5C 372.308,445.308 372.808,445.975 373.5,446.5C 378.175,443.16 383.175,440.327 388.5,438C 396.377,437.029 404.044,437.862 411.5,440.5C 413.117,420.712 423.783,411.546 443.5,413C 458.187,418.863 464.187,429.696 461.5,445.5C 476.771,442.962 487.604,448.629 494,462.5C 496.842,477.994 491.009,488.494 476.5,494C 400.167,494.667 323.833,494.667 247.5,494C 231.906,485.88 227.406,473.714 234,457.5C 238.924,450.281 245.758,445.948 254.5,444.5C 254.589,421.741 265.923,411.075 288.5,412.5C 286.45,396.922 292.45,385.922 306.5,379.5 Z"/></g>
<g><path style="opacity:1" fill="#070604" d="M 309.5,396.5 C 320.785,396.092 323.785,400.759 318.5,410.5C 308.941,414.117 304.775,410.784 306,400.5C 306.69,398.65 307.856,397.316 309.5,396.5 Z"/></g>
<g><path style="opacity:1" fill="#030404" d="M 147.5,420.5 C 147.5,425.833 147.5,431.167 147.5,436.5C 142.167,436.5 136.833,436.5 131.5,436.5C 131.5,431.167 131.5,425.833 131.5,420.5C 136.833,420.5 142.167,420.5 147.5,420.5 Z"/></g>
<g><path style="opacity:1" fill="#070504" d="M 342.5,429.5 C 353.785,429.092 356.785,433.759 351.5,443.5C 341.941,447.117 337.775,443.784 339,433.5C 339.69,431.65 340.856,430.316 342.5,429.5 Z"/></g>
<g><path style="opacity:1" fill="#070504" d="M 433.5,429.5 C 442.985,428.477 446.485,432.477 444,441.5C 439.333,446.833 434.667,446.833 430,441.5C 428.593,436.556 429.759,432.556 433.5,429.5 Z"/></g>
<g><path style="opacity:1" fill="#3e4044" d="M 147.5,420.5 C 148.489,425.975 148.822,431.642 148.5,437.5C 142.642,437.822 136.975,437.489 131.5,436.5C 136.833,436.5 142.167,436.5 147.5,436.5C 147.5,431.167 147.5,425.833 147.5,420.5 Z"/></g>
<g><path style="opacity:1" fill="#060503" d="M 309.5,437.5 C 320.832,437.344 323.832,442.177 318.5,452C 308.898,455.069 304.732,451.569 306,441.5C 307.376,440.295 308.542,438.962 309.5,437.5 Z"/></g>
<g><path style="opacity:1" fill="#212325" d="M 218.5,452.5 C 204.85,453.833 190.85,454.499 176.5,454.5C 162.329,454.5 148.329,454.167 134.5,453.5C 162.574,453.824 190.574,453.491 218.5,452.5 Z"/></g>
<g><path style="opacity:1" fill="#070504" d="M 259.5,462.5 C 263.257,462.071 266.757,462.737 270,464.5C 273.441,471.946 271.275,476.613 263.5,478.5C 254.689,475.121 253.355,469.787 259.5,462.5 Z"/></g>
<g><path style="opacity:1" fill="#070504" d="M 391.5,462.5 C 401.33,460.829 405.163,464.829 403,474.5C 398.255,479.743 393.588,479.743 389,474.5C 386.696,469.855 387.529,465.855 391.5,462.5 Z"/></g>
</svg>
