<?xml version="1.0" encoding="UTF-8"?>
<!DOCTYPE svg PUBLIC "-//W3C//DTD SVG 1.1//EN" "http://www.w3.org/Graphics/SVG/1.1/DTD/svg11.dtd">
<svg xmlns="http://www.w3.org/2000/svg" version="1.1" width="512px" height="512px" style="shape-rendering:geometricPrecision; text-rendering:geometricPrecision; image-rendering:optimizeQuality; fill-rule:evenodd; clip-rule:evenodd" xmlns:xlink="http://www.w3.org/1999/xlink">
<g><path style="opacity:0.932" fill="#000000" d="M 114.5,-0.5 C 120.167,-0.5 125.833,-0.5 131.5,-0.5C 141.835,2.32393 149.335,8.65727 154,18.5C 169.272,60.152 184.439,101.819 199.5,143.5C 199.631,144.376 199.298,145.043 198.5,145.5C 193.542,147.822 188.875,150.489 184.5,153.5C 168.637,109.746 152.47,66.0795 136,22.5C 127.593,14.5774 119.26,14.5774 111,22.5C 107.891,26.6855 106.891,31.3521 108,36.5C 125.799,85.0905 143.299,133.757 160.5,182.5C 155.055,184.432 149.722,186.765 144.5,189.5C 127.969,143.075 111.136,96.7422 94,50.5C 84.8278,26.8671 91.6612,9.86714 114.5,-0.5 Z"/></g>
<g><path style="opacity:1" fill="#f4fffb" d="M 184.5,153.5 C 175.875,160.73 169.708,169.73 166,180.5C 164.185,181.244 162.352,181.911 160.5,182.5C 143.299,133.757 125.799,85.0905 108,36.5C 106.891,31.3521 107.891,26.6855 111,22.5C 119.26,14.5774 127.593,14.5774 136,22.5C 152.47,66.0795 168.637,109.746 184.5,153.5 Z"/></g>
<g><path style="opacity:0.997" fill="#eebb5d" d="M 346.5,196.5 C 349.96,202.561 352.627,208.895 354.5,215.5C 368.588,225.257 379.921,237.59 388.5,252.5C 388.389,253.117 388.056,253.617 387.5,254C 338.226,267.026 288.059,272.86 237,271.5C 188.357,272.799 140.524,267.299 93.5,255C 92.944,254.617 92.6107,254.117 92.5,253.5C 98.6287,239.372 108.962,229.706 123.5,224.5C 123.704,221.482 124.037,218.482 124.5,215.5C 128.31,208.562 132.643,201.896 137.5,195.5C 139.607,193.273 141.94,191.273 144.5,189.5C 149.722,186.765 155.055,184.432 160.5,182.5C 162.352,181.911 164.185,181.244 166,180.5C 169.708,169.73 175.875,160.73 184.5,153.5C 188.875,150.489 193.542,147.822 198.5,145.5C 199.298,145.043 199.631,144.376 199.5,143.5C 223.641,135.43 245.641,139.263 265.5,155C 285.204,154.847 300.204,163.013 310.5,179.5C 325.054,180.217 337.054,185.884 346.5,196.5 Z"/></g>
<g><path style="opacity:1" fill="#070502" d="M 210.5,173.5 C 218.614,172.121 222.447,175.454 222,183.5C 217.751,190.317 212.751,190.984 207,185.5C 205.593,180.556 206.759,176.556 210.5,173.5 Z"/></g>
<g><path style="opacity:0.945" fill="#000000" d="M 137.5,195.5 C 132.643,201.896 128.31,208.562 124.5,215.5C 99.4708,219.257 75.4708,226.423 52.5,237C 64.9877,244.551 78.321,250.051 92.5,253.5C 92.6107,254.117 92.944,254.617 93.5,255C 140.524,267.299 188.357,272.799 237,271.5C 288.059,272.86 338.226,267.026 387.5,254C 388.056,253.617 388.389,253.117 388.5,252.5C 401.685,249.382 414.018,244.216 425.5,237C 402.836,226.583 379.169,219.416 354.5,215.5C 352.627,208.895 349.96,202.561 346.5,196.5C 371.795,200.157 396.462,206.324 420.5,215C 435.38,220.176 447.88,228.676 458,240.5C 464.613,260.947 470.613,281.614 476,302.5C 483.095,338.015 477.595,371.348 459.5,402.5C 454.249,399.758 448.916,397.425 443.5,395.5C 458.538,370.142 464.038,342.809 460,313.5C 457.783,301.632 454.783,289.965 451,278.5C 436.756,289.372 420.923,297.205 403.5,302C 372.401,310.794 340.734,316.461 308.5,319C 239.052,325.216 170.052,321.883 101.5,309C 78.1554,304.553 56.1554,296.553 35.5,285C 32.6667,282.833 29.8333,280.667 27,278.5C 6.84322,331.039 15.6766,377.872 53.5,419C 75.3516,439.587 101.352,450.92 131.5,453C 160.165,453.5 188.831,453.667 217.5,453.5C 215.445,459.121 214.112,464.787 213.5,470.5C 183.831,470.667 154.165,470.5 124.5,470C 64.8622,461.689 25.0288,429.189 5,372.5C 2.82468,364.437 0.991345,356.437 -0.5,348.5C -0.5,337.167 -0.5,325.833 -0.5,314.5C 4.9738,291.882 10.8071,269.215 17,246.5C 19.6304,239.865 23.7971,234.365 29.5,230C 51.5757,215.97 75.5757,206.637 101.5,202C 113.486,199.636 125.486,197.469 137.5,195.5 Z"/></g>
<g><path style="opacity:1" fill="#0c0904" d="M 277.5,197.5 C 285.033,197.529 288.533,201.196 288,208.5C 283.33,215.977 278.33,216.311 273,209.5C 271.474,204.239 272.974,200.239 277.5,197.5 Z"/></g>
<g><path style="opacity:1" fill="#080602" d="M 210.5,214.5 C 221.832,214.344 224.832,219.177 219.5,229C 209.898,232.069 205.732,228.569 207,218.5C 208.376,217.295 209.542,215.962 210.5,214.5 Z"/></g>
<g><path style="opacity:1" fill="#bac2c0" d="M 124.5,215.5 C 124.037,218.482 123.704,221.482 123.5,224.5C 108.962,229.706 98.6287,239.372 92.5,253.5C 78.321,250.051 64.9877,244.551 52.5,237C 75.4708,226.423 99.4708,219.257 124.5,215.5 Z"/></g>
<g><path style="opacity:1" fill="#bac2c0" d="M 354.5,215.5 C 379.169,219.416 402.836,226.583 425.5,237C 414.018,244.216 401.685,249.382 388.5,252.5C 379.921,237.59 368.588,225.257 354.5,215.5 Z"/></g>
<g><path style="opacity:1" fill="#0c0804" d="M 169.5,222.5 C 180.313,222.777 183.313,227.61 178.5,237C 169.059,240.544 164.559,237.377 165,227.5C 166.707,225.963 168.207,224.296 169.5,222.5 Z"/></g>
<g><path style="opacity:1" fill="#0c0804" d="M 310.5,230.5 C 318.033,230.529 321.533,234.196 321,241.5C 316.33,248.977 311.33,249.311 306,242.5C 304.474,237.239 305.974,233.239 310.5,230.5 Z"/></g>
<g><path style="opacity:1" fill="#070502" d="M 251.5,239.5 C 260.158,238.327 263.992,241.994 263,250.5C 261.434,253.813 258.767,255.479 255,255.5C 248.582,254.008 246.249,250.008 248,243.5C 249.376,242.295 250.542,240.962 251.5,239.5 Z"/></g>
<g><path style="opacity:1" fill="#f4fffb" d="M 36.5,247.5 C 56.6624,260.738 78.6624,269.905 102.5,275C 160.232,287.088 218.565,291.421 277.5,288C 315.796,286.434 353.462,280.767 390.5,271C 408.85,266.227 425.683,258.393 441,247.5C 445.667,252.833 445.667,258.167 441,263.5C 430.976,271.598 419.809,277.765 407.5,282C 361.889,295.85 315.222,303.183 267.5,304C 213.351,306.299 159.685,302.299 106.5,292C 82.3276,287.836 59.9942,279.169 39.5,266C 32.9175,260.673 31.9175,254.506 36.5,247.5 Z"/></g>
<g><path style="opacity:1" fill="#f4fffb" d="M 443.5,395.5 C 423.184,393.998 408.184,402.165 398.5,420C 393.802,420.351 389.136,420.851 384.5,421.5C 379.236,407.581 369.236,398.915 354.5,395.5C 347.138,371.326 330.804,360.492 305.5,363C 287.595,367.405 276.595,378.571 272.5,396.5C 253.804,400.864 242.471,412.531 238.5,431.5C 228.731,436.267 221.731,443.6 217.5,453.5C 188.831,453.667 160.165,453.5 131.5,453C 101.352,450.92 75.3516,439.587 53.5,419C 15.6766,377.872 6.84322,331.039 27,278.5C 29.8333,280.667 32.6667,282.833 35.5,285C 56.1554,296.553 78.1554,304.553 101.5,309C 170.052,321.883 239.052,325.216 308.5,319C 340.734,316.461 372.401,310.794 403.5,302C 420.923,297.205 436.756,289.372 451,278.5C 454.783,289.965 457.783,301.632 460,313.5C 464.038,342.809 458.538,370.142 443.5,395.5 Z"/></g>
<g><path style="opacity:0.928" fill="#000000" d="M 33.5,311.5 C 39.6248,312.092 45.6248,313.258 51.5,315C 45.4102,360.156 62.7436,392.823 103.5,413C 108.02,415.007 112.687,416.507 117.5,417.5C 116.482,423.096 115.148,428.596 113.5,434C 78.7884,425.974 54.2884,405.474 40,372.5C 32.6444,352.752 30.4777,332.419 33.5,311.5 Z"/></g>
<g><path style="opacity:0.997" fill="#efbb5d" d="M 443.5,395.5 C 448.916,397.425 454.249,399.758 459.5,402.5C 464.715,404.876 468.882,408.543 472,413.5C 474.871,418.404 477.038,423.571 478.5,429C 495.572,433.241 506.572,443.741 511.5,460.5C 511.5,466.833 511.5,473.167 511.5,479.5C 506.5,495.833 495.833,506.5 479.5,511.5C 401.833,511.5 324.167,511.5 246.5,511.5C 226.34,505.328 215.34,491.661 213.5,470.5C 214.112,464.787 215.445,459.121 217.5,453.5C 221.731,443.6 228.731,436.267 238.5,431.5C 242.471,412.531 253.804,400.864 272.5,396.5C 276.595,378.571 287.595,367.405 305.5,363C 330.804,360.492 347.138,371.326 354.5,395.5C 369.236,398.915 379.236,407.581 384.5,421.5C 389.136,420.851 393.802,420.351 398.5,420C 408.184,402.165 423.184,393.998 443.5,395.5 Z"/></g>
<g><path style="opacity:1" fill="#080603" d="M 309.5,396.5 C 320.785,396.092 323.785,400.759 318.5,410.5C 308.941,414.117 304.775,410.784 306,400.5C 306.69,398.65 307.856,397.316 309.5,396.5 Z"/></g>
<g><path style="opacity:0.919" fill="#000000" d="M 131.5,419.5 C 137.075,420.452 142.741,420.786 148.5,420.5C 148.5,426.167 148.5,431.833 148.5,437.5C 142.5,437.5 136.5,437.5 130.5,437.5C 131.074,431.516 131.407,425.516 131.5,419.5 Z"/></g>
<g><path style="opacity:1" fill="#080602" d="M 342.5,429.5 C 353.785,429.092 356.785,433.759 351.5,443.5C 341.941,447.117 337.775,443.784 339,433.5C 339.69,431.65 340.856,430.316 342.5,429.5 Z"/></g>
<g><path style="opacity:1" fill="#070502" d="M 433.5,429.5 C 442.985,428.477 446.485,432.477 444,441.5C 439.292,446.684 434.625,446.684 430,441.5C 428.593,436.556 429.759,432.556 433.5,429.5 Z"/></g>
<g><path style="opacity:1" fill="#070502" d="M 309.5,437.5 C 320.832,437.344 323.832,442.177 318.5,452C 308.898,455.069 304.732,451.569 306,441.5C 307.376,440.295 308.542,438.962 309.5,437.5 Z"/></g>
<g><path style="opacity:1" fill="#080502" d="M 259.5,462.5 C 263.257,462.071 266.757,462.737 270,464.5C 273.441,471.946 271.275,476.613 263.5,478.5C 254.689,475.121 253.355,469.787 259.5,462.5 Z"/></g>
<g><path style="opacity:1" fill="#080602" d="M 391.5,462.5 C 401.33,460.829 405.163,464.829 403,474.5C 398.255,479.743 393.588,479.743 389,474.5C 386.696,469.855 387.529,465.855 391.5,462.5 Z"/></g>
</svg>
