<?xml version="1.0" encoding="UTF-8"?>
<!DOCTYPE svg PUBLIC "-//W3C//DTD SVG 1.1//EN" "http://www.w3.org/Graphics/SVG/1.1/DTD/svg11.dtd">
<svg xmlns="http://www.w3.org/2000/svg" version="1.1" width="512px" height="512px" style="shape-rendering:geometricPrecision; text-rendering:geometricPrecision; image-rendering:optimizeQuality; fill-rule:evenodd; clip-rule:evenodd" xmlns:xlink="http://www.w3.org/1999/xlink">
<g><path style="opacity:0.981" fill="#000000" d="M 131.5,-0.5 C 154.833,-0.5 178.167,-0.5 201.5,-0.5C 204.81,1.31244 207.31,3.97911 209,7.5C 209.667,29.1667 209.667,50.8333 209,72.5C 207.374,75.1277 205.374,77.461 203,79.5C 203.562,96.7657 212.062,108.266 228.5,114C 255.916,117.089 273.082,131.922 280,158.5C 280.667,269.5 280.667,380.5 280,491.5C 276.649,501.35 270.149,508.017 260.5,511.5C 198.167,511.5 135.833,511.5 73.5,511.5C 62.8848,508.383 56.0515,501.383 53,490.5C 52.3333,408.167 52.3333,325.833 53,243.5C 54.5707,241.077 56.7374,239.744 59.5,239.5C 62.7845,239.269 65.2845,240.603 67,243.5C 67.0083,325.557 67.6749,407.557 69,489.5C 70.7648,492.473 73.2648,494.64 76.5,496C 123.499,496.5 170.499,496.667 217.5,496.5C 230.504,496.667 243.504,496.5 256.5,496C 261.099,494.402 263.932,491.235 265,486.5C 265.667,378.167 265.667,269.833 265,161.5C 260.722,144.888 250.222,134.722 233.5,131C 221.505,130.5 209.505,130.333 197.5,130.5C 164.498,130.333 131.498,130.5 98.5,131C 83.5391,134.626 73.7058,143.793 69,158.5C 67.7313,177.457 67.0646,196.457 67,215.5C 65.2845,218.397 62.7845,219.731 59.5,219.5C 56.4783,219.572 54.3116,218.238 53,215.5C 52.3333,197.5 52.3333,179.5 53,161.5C 56.4721,139.054 68.9721,124.221 90.5,117C 110.244,115.735 123.41,105.902 130,87.5C 130.821,84.4459 130.655,81.4459 129.5,78.5C 126.744,76.9089 124.911,74.5755 124,71.5C 123.333,50.5 123.333,29.5 124,8.5C 125.642,4.69966 128.142,1.69966 131.5,-0.5 Z"/></g>
<g><path style="opacity:1" fill="#494155" d="M 138.5,14.5 C 157.167,14.5 175.833,14.5 194.5,14.5C 194.5,18.5 194.5,22.5 194.5,26.5C 175.833,26.5 157.167,26.5 138.5,26.5C 138.5,22.5 138.5,18.5 138.5,14.5 Z"/></g>
<g><path style="opacity:1" fill="#494154" d="M 138.5,41.5 C 157.167,41.5 175.833,41.5 194.5,41.5C 194.5,49.5 194.5,57.5 194.5,65.5C 175.833,65.5 157.167,65.5 138.5,65.5C 138.5,57.5 138.5,49.5 138.5,41.5 Z"/></g>
<g><path style="opacity:1" fill="#74cb55" d="M 151.5,80.5 C 150.726,92.7311 153.392,104.064 159.5,114.5C 150.651,114.826 141.984,114.493 133.5,113.5C 141.151,104.281 145.484,93.6144 146.5,81.5C 148.045,80.5481 149.712,80.2148 151.5,80.5 Z"/></g>
<g><path style="opacity:1" fill="#68b648" d="M 151.5,80.5 C 163.5,80.5 175.5,80.5 187.5,80.5C 187.579,93.4978 191.912,104.831 200.5,114.5C 186.833,114.5 173.167,114.5 159.5,114.5C 153.392,104.064 150.726,92.7311 151.5,80.5 Z"/></g>
<g><path style="opacity:1" fill="#4d8736" d="M 133.5,113.5 C 141.984,114.493 150.651,114.826 159.5,114.5C 173.167,114.5 186.833,114.5 200.5,114.5C 190.075,115.177 178.908,115.511 167,115.5C 155.5,115.167 144,114.833 132.5,114.5C 132.624,113.893 132.957,113.56 133.5,113.5 Z"/></g>
<g><path style="opacity:1" fill="#2f6117" d="M 197.5,130.5 C 211.025,140.217 217.692,153.55 217.5,170.5C 178.165,170.333 138.832,170.5 99.5,171C 91.6667,173.5 86.5,178.667 84,186.5C 83.3333,264.833 83.3333,343.167 84,421.5C 85.4056,426.573 88.5723,430.073 93.5,432C 134.832,432.5 176.165,432.667 217.5,432.5C 217.5,453.833 217.5,475.167 217.5,496.5C 170.499,496.667 123.499,496.5 76.5,496C 73.2648,494.64 70.7648,492.473 69,489.5C 67.6749,407.557 67.0083,325.557 67,243.5C 65.2845,240.603 62.7845,239.269 59.5,239.5C 59.5,232.833 59.5,226.167 59.5,219.5C 62.7845,219.731 65.2845,218.397 67,215.5C 67.0646,196.457 67.7313,177.457 69,158.5C 73.7058,143.793 83.5391,134.626 98.5,131C 131.498,130.5 164.498,130.333 197.5,130.5 Z"/></g>
<g><path style="opacity:1" fill="#2b5013" d="M 197.5,130.5 C 209.505,130.333 221.505,130.5 233.5,131C 250.222,134.722 260.722,144.888 265,161.5C 265.667,269.833 265.667,378.167 265,486.5C 263.932,491.235 261.099,494.402 256.5,496C 243.504,496.5 230.504,496.667 217.5,496.5C 217.5,475.167 217.5,453.833 217.5,432.5C 224.841,432.666 232.174,432.5 239.5,432C 244.757,429.744 248.257,425.91 250,420.5C 250.667,342.833 250.667,265.167 250,187.5C 243.97,173.065 233.137,167.399 217.5,170.5C 217.692,153.55 211.025,140.217 197.5,130.5 Z"/></g>
<g><path style="opacity:1" fill="#000000" d="M 217.5,170.5 C 233.137,167.399 243.97,173.065 250,187.5C 250.667,265.167 250.667,342.833 250,420.5C 248.257,425.91 244.757,429.744 239.5,432C 232.174,432.5 224.841,432.666 217.5,432.5C 176.165,432.667 134.832,432.5 93.5,432C 88.5723,430.073 85.4056,426.573 84,421.5C 83.3333,343.167 83.3333,264.833 84,186.5C 86.5,178.667 91.6667,173.5 99.5,171C 138.832,170.5 178.165,170.333 217.5,170.5 Z"/></g>
<g><path style="opacity:1" fill="#e7e8e9" d="M 217.5,185.5 C 217.5,224.833 217.5,264.167 217.5,303.5C 177.833,303.5 138.167,303.5 98.5,303.5C 98.5,266.167 98.5,228.833 98.5,191.5C 98.7385,188.852 100.072,187.018 102.5,186C 140.832,185.5 179.165,185.333 217.5,185.5 Z"/></g>
<g><path style="opacity:1" fill="#cfd5d2" d="M 217.5,185.5 C 222.179,185.334 226.845,185.501 231.5,186C 233.141,187.129 234.141,188.629 234.5,190.5C 234.5,228.167 234.5,265.833 234.5,303.5C 228.833,303.5 223.167,303.5 217.5,303.5C 217.5,264.167 217.5,224.833 217.5,185.5 Z"/></g>
<g><path style="opacity:1" fill="#7a7c7b" d="M 234.5,190.5 C 235.499,228.33 235.832,266.33 235.5,304.5C 189.5,304.5 143.5,304.5 97.5,304.5C 97.1682,266.663 97.5015,228.996 98.5,191.5C 98.5,228.833 98.5,266.167 98.5,303.5C 138.167,303.5 177.833,303.5 217.5,303.5C 223.167,303.5 228.833,303.5 234.5,303.5C 234.5,265.833 234.5,228.167 234.5,190.5 Z"/></g>
<g><path style="opacity:1" fill="#030202" d="M 163.5,204.5 C 187.521,205.039 203.021,216.705 210,239.5C 213.047,266.269 201.88,283.769 176.5,292C 155.59,295.401 139.423,288.234 128,270.5C 117.135,245.454 122.968,225.287 145.5,210C 151.291,207.01 157.291,205.177 163.5,204.5 Z"/></g>
<g><path style="opacity:1" fill="#752323" d="M 160.5,219.5 C 185.174,219.006 196.674,231.006 195,255.5C 189.825,271.842 178.658,279.342 161.5,278C 139.733,270.56 132.9,256.06 141,234.5C 145.688,226.959 152.188,221.959 160.5,219.5 Z"/></g>
<g><path style="opacity:1" fill="#601d10" d="M 98.5,319.5 C 143.997,318.501 189.664,318.168 235.5,318.5C 235.5,326.833 235.5,335.167 235.5,343.5C 189.664,343.832 143.997,343.499 98.5,342.5C 138.167,342.5 177.833,342.5 217.5,342.5C 223.167,342.5 228.833,342.5 234.5,342.5C 234.5,334.833 234.5,327.167 234.5,319.5C 228.833,319.5 223.167,319.5 217.5,319.5C 177.833,319.5 138.167,319.5 98.5,319.5 Z"/></g>
<g><path style="opacity:1" fill="#fb5029" d="M 98.5,319.5 C 138.167,319.5 177.833,319.5 217.5,319.5C 217.5,327.167 217.5,334.833 217.5,342.5C 177.833,342.5 138.167,342.5 98.5,342.5C 98.5,334.833 98.5,327.167 98.5,319.5 Z"/></g>
<g><path style="opacity:1" fill="#e93c1e" d="M 217.5,319.5 C 223.167,319.5 228.833,319.5 234.5,319.5C 234.5,327.167 234.5,334.833 234.5,342.5C 228.833,342.5 223.167,342.5 217.5,342.5C 217.5,334.833 217.5,327.167 217.5,319.5 Z"/></g>
<g><path style="opacity:0.982" fill="#000000" d="M 434.5,511.5 C 402.167,511.5 369.833,511.5 337.5,511.5C 329.453,508.272 324.953,502.272 324,493.5C 320.722,455.162 317.388,416.829 314,378.5C 313.333,372.167 313.333,365.833 314,359.5C 315.5,355.333 318.333,352.5 322.5,351C 364.5,350.333 406.5,350.333 448.5,351C 452.974,352.808 456.141,355.974 458,360.5C 455.108,405.869 451.442,451.203 447,496.5C 445.509,503.817 441.342,508.817 434.5,511.5 Z"/></g>
<g><path style="opacity:1" fill="#888a89" d="M 234.5,417.5 C 234.5,397.833 234.5,378.167 234.5,358.5C 228.833,358.5 223.167,358.5 217.5,358.5C 177.833,358.5 138.167,358.5 98.5,358.5C 98.5,377.833 98.5,397.167 98.5,416.5C 98.5,416.833 98.5,417.167 98.5,417.5C 97.5029,397.674 97.1695,377.674 97.5,357.5C 143.5,357.5 189.5,357.5 235.5,357.5C 235.83,377.674 235.497,397.674 234.5,417.5 Z"/></g>
<g><path style="opacity:1" fill="#cfd4d2" d="M 217.5,358.5 C 223.167,358.5 228.833,358.5 234.5,358.5C 234.5,378.167 234.5,397.833 234.5,417.5C 189.167,417.5 143.833,417.5 98.5,417.5C 98.5,417.167 98.5,416.833 98.5,416.5C 138.167,416.5 177.833,416.5 217.5,416.5C 217.5,397.167 217.5,377.833 217.5,358.5 Z"/></g>
<g><path style="opacity:1" fill="#e8e9ea" d="M 217.5,358.5 C 217.5,377.833 217.5,397.167 217.5,416.5C 177.833,416.5 138.167,416.5 98.5,416.5C 98.5,397.167 98.5,377.833 98.5,358.5C 138.167,358.5 177.833,358.5 217.5,358.5 Z"/></g>
<g><path style="opacity:1" fill="#ddebe5" d="M 395.5,365.5 C 394.768,371.155 394.101,376.821 393.5,382.5C 389.298,382.183 385.298,382.517 381.5,383.5C 376.833,383.5 374.5,385.833 374.5,390.5C 367.5,390.5 360.5,390.5 353.5,390.5C 353.256,387.737 351.923,385.571 349.5,384C 342.842,383.5 336.175,383.334 329.5,383.5C 329.697,377.455 329.363,371.455 328.5,365.5C 350.833,365.5 373.167,365.5 395.5,365.5 Z"/></g>
<g><path style="opacity:1" fill="#d5deda" d="M 395.5,365.5 C 411.167,365.5 426.833,365.5 442.5,365.5C 442.167,371.5 441.833,377.5 441.5,383.5C 421.5,383.5 401.5,383.5 381.5,383.5C 385.298,382.517 389.298,382.183 393.5,382.5C 394.101,376.821 394.768,371.155 395.5,365.5 Z"/></g>
<g><path style="opacity:1" fill="#040404" d="M 133.5,383.5 C 155.169,383.333 176.836,383.5 198.5,384C 204.059,385.458 205.892,388.958 204,394.5C 202.833,395.667 201.667,396.833 200.5,398C 177.833,398.667 155.167,398.667 132.5,398C 126.99,392.73 127.323,387.897 133.5,383.5 Z"/></g>
<g><path style="opacity:1" fill="#762424" d="M 353.5,390.5 C 360.5,390.5 367.5,390.5 374.5,390.5C 374.128,393.923 375.461,396.423 378.5,398C 382.821,398.499 387.154,398.666 391.5,398.5C 389.944,422.508 388.277,446.508 386.5,470.5C 370.167,470.5 353.833,470.5 337.5,470.5C 335.718,446.475 333.718,422.475 331.5,398.5C 337.925,398.87 344.258,398.37 350.5,397C 352.919,395.491 353.919,393.325 353.5,390.5 Z"/></g>
<g><path style="opacity:1" fill="#671717" d="M 391.5,398.5 C 407.5,398.5 423.5,398.5 439.5,398.5C 437.686,422.492 436.019,446.492 434.5,470.5C 418.5,470.5 402.5,470.5 386.5,470.5C 388.277,446.508 389.944,422.508 391.5,398.5 Z"/></g>
<g><path style="opacity:1" fill="#d0d9d5" d="M 339.5,485.5 C 370.167,485.5 400.833,485.5 431.5,485.5C 431.665,488.518 431.498,491.518 431,494.5C 430.5,495 430,495.5 429.5,496C 400.167,496.667 370.833,496.667 341.5,496C 341,495.5 340.5,495 340,494.5C 339.502,491.518 339.335,488.518 339.5,485.5 Z"/></g>
</svg>
