<?xml version="1.0" encoding="UTF-8"?>
<!DOCTYPE svg PUBLIC "-//W3C//DTD SVG 1.1//EN" "http://www.w3.org/Graphics/SVG/1.1/DTD/svg11.dtd">
<svg xmlns="http://www.w3.org/2000/svg" version="1.1" width="512px" height="512px" style="shape-rendering:geometricPrecision; text-rendering:geometricPrecision; image-rendering:optimizeQuality; fill-rule:evenodd; clip-rule:evenodd" xmlns:xlink="http://www.w3.org/1999/xlink">
<g><path style="opacity:0.997" fill="#000000" d="M 455.5,407.5 C 451.363,407.518 448.863,405.518 448,401.5C 447.667,329.5 447.333,257.5 447,185.5C 443.74,176.573 437.573,170.739 428.5,168C 416.167,167.667 403.833,167.333 391.5,167C 375.748,162.915 365.582,153.081 361,137.5C 359.661,128.893 359.161,120.226 359.5,111.5C 338.167,111.5 316.833,111.5 295.5,111.5C 298.568,130.052 293.568,145.885 280.5,159C 274.478,163.231 267.811,165.897 260.5,167C 248.833,167.333 237.167,167.667 225.5,168C 217,171.167 211.167,177 208,185.5C 207.5,208.831 207.333,232.164 207.5,255.5C 212.833,255.5 218.167,255.5 223.5,255.5C 223.333,235.831 223.5,216.164 224,196.5C 224.833,194.333 226.333,192.833 228.5,192C 294.167,191.333 359.833,191.333 425.5,192C 428.232,192.398 430.065,193.898 431,196.5C 431.992,284.557 431.659,372.557 430,460.5C 428.829,461.893 427.329,462.727 425.5,463C 363.501,463.5 301.501,463.667 239.5,463.5C 239.5,468.833 239.5,474.167 239.5,479.5C 308.833,479.5 378.167,479.5 447.5,479.5C 447.334,473.158 447.5,466.825 448,460.5C 449.913,457.72 452.413,456.053 455.5,455.5C 458.617,455.642 461.117,456.976 463,459.5C 463.667,470.167 463.667,480.833 463,491.5C 462.5,493.333 461.333,494.5 459.5,495C 322.753,495.997 186.086,495.663 49.5,494C 48.8742,493.25 48.3742,492.416 48,491.5C 47.8333,452.833 47.6667,414.167 47.5,375.5C 47.3388,336.084 47.8388,296.75 49,257.5C 49.7504,256.874 50.5838,256.374 51.5,256C 98.1655,255.5 144.832,255.333 191.5,255.5C 191.333,231.164 191.5,206.831 192,182.5C 195.56,167.939 204.394,158.106 218.5,153C 230.777,151.749 243.11,151.082 255.5,151C 269.333,149.167 277.167,141.333 279,127.5C 279.012,90.7487 279.679,54.082 281,17.5C 281.75,16.8742 282.584,16.3742 283.5,16C 298.167,15.8333 312.833,15.6667 327.5,15.5C 342.923,15.3481 358.256,15.8481 373.5,17C 374.126,17.7504 374.626,18.5838 375,19.5C 375.333,55.5 375.667,91.5 376,127.5C 376.996,138.822 382.829,146.322 393.5,150C 406.459,151.211 419.459,151.878 432.5,152C 448.667,156.167 458.833,166.333 463,182.5C 463.667,256.167 463.667,329.833 463,403.5C 461.461,406.521 458.961,407.854 455.5,407.5 Z"/></g>
<g><path style="opacity:1" fill="#7f807f" d="M 295.5,31.5 C 316.833,31.5 338.167,31.5 359.5,31.5C 359.5,52.8333 359.5,74.1667 359.5,95.5C 338.167,95.5 316.833,95.5 295.5,95.5C 295.5,74.1667 295.5,52.8333 295.5,31.5 Z"/></g>
<g><path style="opacity:1" fill="#c9dbe7" d="M 455.5,407.5 C 455.5,412.833 455.5,418.167 455.5,423.5C 448.056,425.054 445.889,429.388 449,436.5C 450.734,438.451 452.901,439.451 455.5,439.5C 455.5,444.833 455.5,450.167 455.5,455.5C 452.413,456.053 449.913,457.72 448,460.5C 447.5,466.825 447.334,473.158 447.5,479.5C 378.167,479.5 308.833,479.5 239.5,479.5C 239.5,474.167 239.5,468.833 239.5,463.5C 301.501,463.667 363.501,463.5 425.5,463C 427.329,462.727 428.829,461.893 430,460.5C 431.659,372.557 431.992,284.557 431,196.5C 430.065,193.898 428.232,192.398 425.5,192C 359.833,191.333 294.167,191.333 228.5,192C 226.333,192.833 224.833,194.333 224,196.5C 223.5,216.164 223.333,235.831 223.5,255.5C 218.167,255.5 212.833,255.5 207.5,255.5C 207.333,232.164 207.5,208.831 208,185.5C 211.167,177 217,171.167 225.5,168C 237.167,167.667 248.833,167.333 260.5,167C 267.811,165.897 274.478,163.231 280.5,159C 293.568,145.885 298.568,130.052 295.5,111.5C 316.833,111.5 338.167,111.5 359.5,111.5C 359.161,120.226 359.661,128.893 361,137.5C 365.582,153.081 375.748,162.915 391.5,167C 403.833,167.333 416.167,167.667 428.5,168C 437.573,170.739 443.74,176.573 447,185.5C 447.333,257.5 447.667,329.5 448,401.5C 448.863,405.518 451.363,407.518 455.5,407.5 Z"/></g>
<g><path style="opacity:1" fill="#5e3800" d="M 239.5,207.5 C 298.167,207.5 356.833,207.5 415.5,207.5C 415.5,215.5 415.5,223.5 415.5,231.5C 356.833,231.5 298.167,231.5 239.5,231.5C 239.5,223.5 239.5,215.5 239.5,207.5 Z"/></g>
<g><path style="opacity:1" fill="#a9a6ae" d="M 239.5,247.5 C 298.167,247.5 356.833,247.5 415.5,247.5C 415.5,300.833 415.5,354.167 415.5,407.5C 356.833,407.5 298.167,407.5 239.5,407.5C 239.5,354.167 239.5,300.833 239.5,247.5 Z"/></g>
<g><path style="opacity:1" fill="#d7e6f0" d="M 63.5,271.5 C 68.8333,271.5 74.1667,271.5 79.5,271.5C 79.5,276.833 79.5,282.167 79.5,287.5C 74.1667,287.5 68.8333,287.5 63.5,287.5C 63.5,282.167 63.5,276.833 63.5,271.5 Z"/></g>
<g><path style="opacity:1" fill="#b8d5ed" d="M 95.5,271.5 C 127.5,271.5 159.5,271.5 191.5,271.5C 191.5,276.833 191.5,282.167 191.5,287.5C 159.5,287.5 127.5,287.5 95.5,287.5C 95.5,282.167 95.5,276.833 95.5,271.5 Z"/></g>
<g><path style="opacity:1" fill="#d7e6f0" d="M 207.5,271.5 C 212.833,271.5 218.167,271.5 223.5,271.5C 223.5,276.833 223.5,282.167 223.5,287.5C 218.167,287.5 212.833,287.5 207.5,287.5C 207.5,282.167 207.5,276.833 207.5,271.5 Z"/></g>
<g><path style="opacity:1" fill="#030201" d="M 325.5,272.5 C 354.761,269.961 373.594,282.628 382,310.5C 383.724,323.836 381.058,336.169 374,347.5C 365.131,358.036 355.298,367.536 344.5,376C 318.178,389.104 296.344,383.937 279,360.5C 269.176,340.96 270.509,322.293 283,304.5C 291.565,295.265 300.732,286.765 310.5,279C 315.489,276.514 320.489,274.348 325.5,272.5 Z"/></g>
<g><path style="opacity:1" fill="#6f3f00" d="M 326.5,288.5 C 334.382,287.861 342.049,288.694 349.5,291C 350.451,291.718 350.617,292.551 350,293.5C 331.167,312.333 312.333,331.167 293.5,350C 292.833,350.667 292.167,350.667 291.5,350C 289.049,345.518 288.049,340.684 288.5,335.5C 287.945,329.77 289.112,324.437 292,319.5C 299.802,310.697 307.969,302.197 316.5,294C 319.767,291.87 323.1,290.037 326.5,288.5 Z"/></g>
<g><path style="opacity:1" fill="#d7e5f0" d="M 63.5,303.5 C 68.8333,303.5 74.1667,303.5 79.5,303.5C 79.0167,345.227 79.5167,386.894 81,428.5C 81.9025,429.701 83.0692,430.535 84.5,431C 123.5,431.667 162.5,431.667 201.5,431C 203.329,430.727 204.829,429.893 206,428.5C 207.483,386.894 207.983,345.227 207.5,303.5C 212.833,303.5 218.167,303.5 223.5,303.5C 223.5,351.5 223.5,399.5 223.5,447.5C 170.167,447.5 116.833,447.5 63.5,447.5C 63.5,399.5 63.5,351.5 63.5,303.5 Z"/></g>
<g><path style="opacity:1" fill="#5e3800" d="M 95.5,303.5 C 100.833,303.5 106.167,303.5 111.5,303.5C 111.5,340.833 111.5,378.167 111.5,415.5C 106.167,415.5 100.833,415.5 95.5,415.5C 95.5,378.167 95.5,340.833 95.5,303.5 Z"/></g>
<g><path style="opacity:1" fill="#5e3800" d="M 127.5,303.5 C 138.167,303.5 148.833,303.5 159.5,303.5C 159.5,340.833 159.5,378.167 159.5,415.5C 148.833,415.5 138.167,415.5 127.5,415.5C 127.5,378.167 127.5,340.833 127.5,303.5 Z"/></g>
<g><path style="opacity:1" fill="#5e3800" d="M 175.5,303.5 C 180.833,303.5 186.167,303.5 191.5,303.5C 191.5,340.833 191.5,378.167 191.5,415.5C 186.167,415.5 180.833,415.5 175.5,415.5C 175.5,378.167 175.5,340.833 175.5,303.5 Z"/></g>
<g><path style="opacity:1" fill="#5e3700" d="M 361.5,304.5 C 362.496,304.414 363.329,304.748 364,305.5C 368.014,316.945 367.014,327.945 361,338.5C 353.5,346 346,353.5 338.5,361C 327.945,367.014 316.945,368.014 305.5,364C 304.549,363.282 304.383,362.449 305,361.5C 324.035,342.632 342.868,323.632 361.5,304.5 Z"/></g>
<g><path style="opacity:1" fill="#5e3800" d="M 239.5,423.5 C 298.167,423.5 356.833,423.5 415.5,423.5C 415.5,431.5 415.5,439.5 415.5,447.5C 356.833,447.5 298.167,447.5 239.5,447.5C 239.5,439.5 239.5,431.5 239.5,423.5 Z"/></g>
<g><path style="opacity:0.939" fill="#050606" d="M 455.5,423.5 C 461.158,423.158 463.824,425.824 463.5,431.5C 463.824,437.176 461.158,439.842 455.5,439.5C 452.901,439.451 450.734,438.451 449,436.5C 445.889,429.388 448.056,425.054 455.5,423.5 Z"/></g>
<g><path style="opacity:1" fill="#b8d5ed" d="M 63.5,463.5 C 116.833,463.5 170.167,463.5 223.5,463.5C 223.5,468.833 223.5,474.167 223.5,479.5C 170.167,479.5 116.833,479.5 63.5,479.5C 63.5,474.167 63.5,468.833 63.5,463.5 Z"/></g>
</svg>
