<?xml version="1.0" encoding="UTF-8"?>
<!DOCTYPE svg PUBLIC "-//W3C//DTD SVG 1.1//EN" "http://www.w3.org/Graphics/SVG/1.1/DTD/svg11.dtd">
<svg xmlns="http://www.w3.org/2000/svg" version="1.1" width="512px" height="512px" style="shape-rendering:geometricPrecision; text-rendering:geometricPrecision; image-rendering:optimizeQuality; fill-rule:evenodd; clip-rule:evenodd" xmlns:xlink="http://www.w3.org/1999/xlink">
<g><path style="opacity:0.981" fill="#010101" d="M 246.5,-0.5 C 266.833,-0.5 287.167,-0.5 307.5,-0.5C 320.592,3.42807 328.759,12.0947 332,25.5C 332.667,42.8333 332.667,60.1667 332,77.5C 331.034,80.9651 328.868,83.2984 325.5,84.5C 324.167,104.167 324.167,123.833 325.5,143.5C 342.906,159.284 360.406,174.951 378,190.5C 379.439,192.275 380.439,194.275 381,196.5C 379.481,292.512 377.148,388.512 374,484.5C 371.187,498.475 363.02,507.475 349.5,511.5C 283.167,511.5 216.833,511.5 150.5,511.5C 142.23,507.727 137.063,501.394 135,492.5C 134.333,485.167 134.333,477.833 135,470.5C 136.272,467.778 138.439,466.444 141.5,466.5C 144.745,467.04 147.245,468.706 149,471.5C 149.333,477.5 149.667,483.5 150,489.5C 150.69,492.196 152.19,494.363 154.5,496C 163.494,496.5 172.494,496.666 181.5,496.5C 202.259,496.977 222.925,496.477 243.5,495C 244.701,494.097 245.535,492.931 246,491.5C 247.427,470.856 248.26,450.189 248.5,429.5C 224.833,429.5 201.167,429.5 177.5,429.5C 167.5,429.5 157.5,429.5 147.5,429.5C 147.666,435.176 147.499,440.843 147,446.5C 144.987,448.248 142.82,449.582 140.5,450.5C 136.756,450.046 134.256,448.046 133,444.5C 131.102,414.52 130.102,384.52 130,354.5C 132.533,349.306 136.7,346.472 142.5,346C 153.828,345.5 165.162,345.333 176.5,345.5C 175.833,333.836 175.667,322.17 176,310.5C 177.191,307.466 179.358,305.799 182.5,305.5C 186.562,305.724 189.395,307.724 191,311.5C 191.5,323.162 191.667,334.829 191.5,346.5C 203.5,346.5 215.5,346.5 227.5,346.5C 228.978,346.762 230.311,346.429 231.5,345.5C 244.375,314.478 266.709,304.645 298.5,316C 318.641,327.788 326.808,345.288 323,368.5C 313.377,396.404 293.877,408.07 264.5,403.5C 264.339,419.171 264.006,434.838 263.5,450.5C 295.5,450.5 327.5,450.5 359.5,450.5C 361.5,374.835 363.5,299.169 365.5,223.5C 306.669,222.501 247.669,222.168 188.5,222.5C 189.555,243.488 189.722,264.488 189,285.5C 186.987,287.248 184.82,288.582 182.5,289.5C 178.756,289.046 176.256,287.046 175,283.5C 173.721,254.839 173.054,226.173 173,197.5C 174.617,193.103 177.117,189.269 180.5,186C 197,171.5 213.5,157 230,142.5C 230.667,123.5 230.667,104.5 230,85.5C 225.908,83.7425 223.241,80.7425 222,76.5C 221.333,60.1667 221.333,43.8333 222,27.5C 225.063,13.6095 233.229,4.27618 246.5,-0.5 Z"/></g>
<g><path style="opacity:1" fill="#f4bf69" d="M 314.5,23.5 C 289.5,24.8333 264.5,24.8333 239.5,23.5C 242.054,19.7814 245.387,16.9481 249.5,15C 267.5,14.3333 285.5,14.3333 303.5,15C 308.726,15.9326 312.393,18.766 314.5,23.5 Z"/></g>
<g><path style="opacity:1" fill="#41331c" d="M 239.5,23.5 C 264.5,24.8333 289.5,24.8333 314.5,23.5C 315.043,23.56 315.376,23.8933 315.5,24.5C 289.833,25.8333 264.167,25.8333 238.5,24.5C 238.624,23.8933 238.957,23.56 239.5,23.5 Z"/></g>
<g><path style="opacity:1" fill="#bb9557" d="M 237.5,40.5 C 263.995,39.5021 290.661,39.1688 317.5,39.5C 317.5,49.8333 317.5,60.1667 317.5,70.5C 290.661,70.8312 263.995,70.4979 237.5,69.5C 263.833,69.5 290.167,69.5 316.5,69.5C 316.5,65.5 316.5,61.5 316.5,57.5C 316.5,51.8333 316.5,46.1667 316.5,40.5C 302.5,40.5 288.5,40.5 274.5,40.5C 262.167,40.5 249.833,40.5 237.5,40.5 Z"/></g>
<g><path style="opacity:1" fill="#fbc56d" d="M 237.5,40.5 C 249.833,40.5 262.167,40.5 274.5,40.5C 279.427,47.8099 286.094,52.9765 294.5,56C 301.771,57.3003 309.104,57.8003 316.5,57.5C 316.5,61.5 316.5,65.5 316.5,69.5C 290.167,69.5 263.833,69.5 237.5,69.5C 237.5,59.8333 237.5,50.1667 237.5,40.5 Z"/></g>
<g><path style="opacity:1" fill="#fbcc7e" d="M 274.5,40.5 C 288.5,40.5 302.5,40.5 316.5,40.5C 316.5,46.1667 316.5,51.8333 316.5,57.5C 309.104,57.8003 301.771,57.3003 294.5,56C 286.094,52.9765 279.427,47.8099 274.5,40.5 Z"/></g>
<g><path style="opacity:1" fill="#e3dfe3" d="M 280.5,85.5 C 280.5,100.167 280.5,114.833 280.5,129.5C 268.833,129.5 257.167,129.5 245.5,129.5C 245.5,114.833 245.5,100.167 245.5,85.5C 257.167,85.5 268.833,85.5 280.5,85.5 Z"/></g>
<g><path style="opacity:1" fill="#eeecee" d="M 280.5,85.5 C 289.833,85.5 299.167,85.5 308.5,85.5C 308.5,100.167 308.5,114.833 308.5,129.5C 299.167,129.5 289.833,129.5 280.5,129.5C 280.5,114.833 280.5,100.167 280.5,85.5 Z"/></g>
<g><path style="opacity:1" fill="#eebd00" d="M 308.5,145.5 C 298.494,145.334 288.494,145.5 278.5,146C 274.2,151.301 269.534,156.301 264.5,161C 251.371,171.794 238.538,182.96 226,194.5C 223.826,198.546 222.993,202.879 223.5,207.5C 271.167,207.5 318.833,207.5 366.5,207.5C 307.336,208.499 248.002,208.832 188.5,208.5C 188.335,205.482 188.502,202.482 189,199.5C 207.333,183.167 225.667,166.833 244,150.5C 245.128,148.655 245.628,146.655 245.5,144.5C 266.673,144.169 287.673,144.503 308.5,145.5 Z"/></g>
<g><path style="opacity:1" fill="#fdd301" d="M 308.5,145.5 C 309.02,149.536 311.02,152.703 314.5,155C 331.667,170.167 348.833,185.333 366,200.5C 366.497,202.81 366.663,205.143 366.5,207.5C 318.833,207.5 271.167,207.5 223.5,207.5C 222.993,202.879 223.826,198.546 226,194.5C 238.538,182.96 251.371,171.794 264.5,161C 269.534,156.301 274.2,151.301 278.5,146C 288.494,145.5 298.494,145.334 308.5,145.5 Z"/></g>
<g><path style="opacity:1" fill="#968a94" d="M 365.5,223.5 C 318.167,223.5 270.833,223.5 223.5,223.5C 223.857,233.006 224.524,242.34 225.5,251.5C 221.044,253.892 216.377,256.058 211.5,258C 205.908,263.479 205.075,269.645 209,276.5C 212.939,284.045 216.606,291.712 220,299.5C 221.965,301.55 224.132,303.217 226.5,304.5C 226.185,318.579 226.518,332.579 227.5,346.5C 215.5,346.5 203.5,346.5 191.5,346.5C 191.667,334.829 191.5,323.162 191,311.5C 189.395,307.724 186.562,305.724 182.5,305.5C 182.5,300.167 182.5,294.833 182.5,289.5C 184.82,288.582 186.987,287.248 189,285.5C 189.722,264.488 189.555,243.488 188.5,222.5C 247.669,222.168 306.669,222.501 365.5,223.5 Z"/></g>
<g><path style="opacity:1" fill="#a89ca7" d="M 365.5,223.5 C 363.5,299.169 361.5,374.835 359.5,450.5C 327.5,450.5 295.5,450.5 263.5,450.5C 264.006,434.838 264.339,419.171 264.5,403.5C 293.877,408.07 313.377,396.404 323,368.5C 326.808,345.288 318.641,327.788 298.5,316C 266.709,304.645 244.375,314.478 231.5,345.5C 230.311,346.429 228.978,346.762 227.5,346.5C 226.518,332.579 226.185,318.579 226.5,304.5C 229.187,304.664 231.854,304.497 234.5,304C 263.524,291.403 292.524,291.403 321.5,304C 328.267,305.53 333.434,303.364 337,297.5C 340.667,290.167 344.333,282.833 348,275.5C 350.887,268.75 349.72,262.916 344.5,258C 336.634,254.045 328.468,250.878 320,248.5C 314.838,249.837 312.671,253.171 313.5,258.5C 312.549,257.081 312.216,255.415 312.5,253.5C 307.219,252.444 301.886,251.777 296.5,251.5C 296.747,248.495 295.747,245.995 293.5,244C 280.898,242.2 268.231,242.2 255.5,244C 245.416,246.212 235.416,248.712 225.5,251.5C 224.524,242.34 223.857,233.006 223.5,223.5C 270.833,223.5 318.167,223.5 365.5,223.5 Z"/></g>
<g><path style="opacity:1" fill="#040404" d="M 296.5,251.5 C 295.723,254.112 294.056,255.945 291.5,257C 267.305,255.44 244.305,259.773 222.5,270C 225.229,276.124 228.229,282.124 231.5,288C 241.865,284.553 252.532,281.887 263.5,280C 284.291,277.47 304.291,280.304 323.5,288.5C 327.887,282.392 331.22,275.726 333.5,268.5C 327.345,266.836 321.345,264.67 315.5,262C 314.695,260.887 314.028,259.721 313.5,258.5C 312.671,253.171 314.838,249.837 320,248.5C 328.468,250.878 336.634,254.045 344.5,258C 349.72,262.916 350.887,268.75 348,275.5C 344.333,282.833 340.667,290.167 337,297.5C 333.434,303.364 328.267,305.53 321.5,304C 292.524,291.403 263.524,291.403 234.5,304C 231.854,304.497 229.187,304.664 226.5,304.5C 224.132,303.217 221.965,301.55 220,299.5C 216.606,291.712 212.939,284.045 209,276.5C 205.075,269.645 205.908,263.479 211.5,258C 216.377,256.058 221.044,253.892 225.5,251.5C 235.416,248.712 245.416,246.212 255.5,244C 268.231,242.2 280.898,242.2 293.5,244C 295.747,245.995 296.747,248.495 296.5,251.5 Z"/></g>
<g><path style="opacity:1" fill="#f5f3f4" d="M 296.5,251.5 C 301.886,251.777 307.219,252.444 312.5,253.5C 312.216,255.415 312.549,257.081 313.5,258.5C 314.028,259.721 314.695,260.887 315.5,262C 321.345,264.67 327.345,266.836 333.5,268.5C 331.22,275.726 327.887,282.392 323.5,288.5C 304.291,280.304 284.291,277.47 263.5,280C 252.532,281.887 241.865,284.553 231.5,288C 228.229,282.124 225.229,276.124 222.5,270C 244.305,259.773 267.305,255.44 291.5,257C 294.056,255.945 295.723,254.112 296.5,251.5 Z"/></g>
<g><path style="opacity:1" fill="#998c97" d="M 268.5,326.5 C 287.381,323.852 300.548,331.185 308,348.5C 310.337,378.663 296.504,391.997 266.5,388.5C 266.667,377.162 266.5,365.828 266,354.5C 264.5,351.667 262.333,349.5 259.5,348C 255.532,347.058 251.532,346.225 247.5,345.5C 251.867,336.166 258.867,329.833 268.5,326.5 Z"/></g>
<g><path style="opacity:1" fill="#a5e6ef" d="M 174.5,361.5 C 175.397,379.156 176.064,396.822 176.5,414.5C 166.5,414.5 156.5,414.5 146.5,414.5C 146.052,396.836 145.718,379.169 145.5,361.5C 155.167,361.5 164.833,361.5 174.5,361.5 Z"/></g>
<g><path style="opacity:1" fill="#d3f1f5" d="M 174.5,361.5 C 200.167,361.5 225.833,361.5 251.5,361.5C 250.815,379.158 250.482,396.825 250.5,414.5C 225.833,414.5 201.167,414.5 176.5,414.5C 176.064,396.822 175.397,379.156 174.5,361.5 Z"/></g>
<g><path style="opacity:1" fill="#fbdd30" d="M 177.5,429.5 C 178.583,449.818 179.416,470.151 180,490.5C 180.813,492.436 181.313,494.436 181.5,496.5C 172.494,496.666 163.494,496.5 154.5,496C 152.19,494.363 150.69,492.196 150,489.5C 149.667,483.5 149.333,477.5 149,471.5C 147.245,468.706 144.745,467.04 141.5,466.5C 140.806,461.195 140.472,455.862 140.5,450.5C 142.82,449.582 144.987,448.248 147,446.5C 147.499,440.843 147.666,435.176 147.5,429.5C 157.5,429.5 167.5,429.5 177.5,429.5 Z"/></g>
<g><path style="opacity:1" fill="#fde359" d="M 177.5,429.5 C 201.167,429.5 224.833,429.5 248.5,429.5C 248.26,450.189 247.427,470.856 246,491.5C 245.535,492.931 244.701,494.097 243.5,495C 222.925,496.477 202.259,496.977 181.5,496.5C 181.313,494.436 180.813,492.436 180,490.5C 179.416,470.151 178.583,449.818 177.5,429.5 Z"/></g>
<g><path style="opacity:1" fill="#a28701" d="M 262.5,466.5 C 294.662,465.502 326.996,465.168 359.5,465.5C 359.821,471.026 359.488,476.36 358.5,481.5C 358.5,476.5 358.5,471.5 358.5,466.5C 326.5,466.5 294.5,466.5 262.5,466.5 Z"/></g>
<g><path style="opacity:1" fill="#fdd302" d="M 262.5,466.5 C 294.5,466.5 326.5,466.5 358.5,466.5C 358.5,471.5 358.5,476.5 358.5,481.5C 357.641,488.865 353.641,493.698 346.5,496C 317.835,496.5 289.169,496.667 260.5,496.5C 261.167,486.5 261.833,476.5 262.5,466.5 Z"/></g>
</svg>
