<?xml version="1.0" encoding="UTF-8"?>
<!DOCTYPE svg PUBLIC "-//W3C//DTD SVG 1.1//EN" "http://www.w3.org/Graphics/SVG/1.1/DTD/svg11.dtd">
<svg xmlns="http://www.w3.org/2000/svg" version="1.1" width="512px" height="512px" style="shape-rendering:geometricPrecision; text-rendering:geometricPrecision; image-rendering:optimizeQuality; fill-rule:evenodd; clip-rule:evenodd" xmlns:xlink="http://www.w3.org/1999/xlink">
<g><path style="opacity:0.969" fill="#030201" d="M 215.5,-0.5 C 242.167,-0.5 268.833,-0.5 295.5,-0.5C 301.165,2.13007 304.998,6.4634 307,12.5C 307.667,29.1667 307.667,45.8333 307,62.5C 306.632,63.91 305.799,64.91 304.5,65.5C 301.687,100.077 300.854,134.744 302,169.5C 358.546,193.253 388.38,235.919 391.5,297.5C 387.978,328.964 383.478,360.298 378,391.5C 377.307,397.663 375.974,403.663 374,409.5C 372.005,411.747 369.505,412.747 366.5,412.5C 362.133,410.952 360.133,407.785 360.5,403C 364.847,372.418 369.68,341.918 375,311.5C 378.483,254.051 354.649,212.551 303.5,187C 298.909,185.136 294.243,183.47 289.5,182C 288.667,181.167 287.833,180.333 287,179.5C 285.521,156.924 285.021,134.257 285.5,111.5C 265.5,111.5 245.5,111.5 225.5,111.5C 225.5,118.167 225.5,124.833 225.5,131.5C 225.97,147.596 225.47,163.596 224,179.5C 202.92,187.37 184.253,199.036 168,214.5C 143.154,242.038 132.488,274.371 136,311.5C 145.796,371.479 155.463,431.479 165,491.5C 165.833,493.667 167.333,495.167 169.5,496C 219.832,496.5 270.166,496.667 320.5,496.5C 327.508,496.666 334.508,496.5 341.5,496C 342.931,495.535 344.097,494.701 345,493.5C 348.739,474.603 352.072,455.603 355,436.5C 357.381,433.326 360.548,431.659 364.5,431.5C 367.925,432.984 369.925,435.651 370.5,439.5C 367.527,456.808 364.694,474.142 362,491.5C 360.261,501.395 354.761,508.061 345.5,511.5C 285.5,511.5 225.5,511.5 165.5,511.5C 156.239,508.061 150.739,501.395 149,491.5C 140.108,435.15 131.108,378.816 122,322.5C 113.582,260.185 135.748,212.352 188.5,179C 195.169,175.415 202.002,172.248 209,169.5C 210.161,134.719 209.327,100.053 206.5,65.5C 205.201,64.91 204.368,63.91 204,62.5C 203.333,45.8333 203.333,29.1667 204,12.5C 204.806,9.55438 206.139,6.88772 208,4.5C 210.479,2.68589 212.979,1.01922 215.5,-0.5 Z"/></g>
<g><path style="opacity:1" fill="#f9f2e9" d="M 272.5,14.5 C 272.5,26.8333 272.5,39.1667 272.5,51.5C 265.998,50.5625 262.331,53.2292 261.5,59.5C 254.5,59.5 247.5,59.5 240.5,59.5C 240.062,55.8078 238.062,53.3078 234.5,52C 229.177,51.5006 223.844,51.334 218.5,51.5C 218.333,39.8286 218.5,28.1619 219,16.5C 219.5,16 220,15.5 220.5,15C 237.83,14.5001 255.163,14.3334 272.5,14.5 Z"/></g>
<g><path style="opacity:1" fill="#f2dbbd" d="M 272.5,14.5 C 278.509,14.3338 284.509,14.5005 290.5,15C 291,15.5 291.5,16 292,16.5C 292.5,28.1619 292.667,39.8286 292.5,51.5C 285.833,51.5 279.167,51.5 272.5,51.5C 272.5,39.1667 272.5,26.8333 272.5,14.5 Z"/></g>
<g><path style="opacity:1" fill="#1b92f2" d="M 240.5,59.5 C 247.5,59.5 254.5,59.5 261.5,59.5C 261.41,63.6645 263.41,65.9979 267.5,66.5C 268.473,76.0838 268.806,85.7504 268.5,95.5C 274.5,95.5 280.5,95.5 286.5,95.5C 266.004,96.6626 245.337,96.8293 224.5,96C 224,95.5 223.5,95 223,94.5C 222.5,85.1726 222.334,75.8393 222.5,66.5C 226.846,66.6657 231.179,66.499 235.5,66C 238.493,64.8415 240.16,62.6748 240.5,59.5 Z"/></g>
<g><path style="opacity:1" fill="#1681f0" d="M 267.5,66.5 C 274.5,66.5 281.5,66.5 288.5,66.5C 288.666,75.8393 288.5,85.1726 288,94.5C 287.617,95.056 287.117,95.3893 286.5,95.5C 280.5,95.5 274.5,95.5 268.5,95.5C 268.806,85.7504 268.473,76.0838 267.5,66.5 Z"/></g>
<g><path style="opacity:1" fill="#f9cb84" d="M 366.5,412.5 C 365.724,418.821 365.058,425.154 364.5,431.5C 360.548,431.659 357.381,433.326 355,436.5C 352.072,455.603 348.739,474.603 345,493.5C 344.097,494.701 342.931,495.535 341.5,496C 334.508,496.5 327.508,496.666 320.5,496.5C 331.171,442.654 341.338,388.654 351,334.5C 352.96,316.164 352.96,297.83 351,279.5C 344.172,244.677 324.672,219.843 292.5,205C 284.5,202 276.5,199 268.5,196C 266.641,194.442 265.141,192.609 264,190.5C 262.524,170.926 262.024,151.259 262.5,131.5C 250.167,131.5 237.833,131.5 225.5,131.5C 225.5,124.833 225.5,118.167 225.5,111.5C 245.5,111.5 265.5,111.5 285.5,111.5C 285.021,134.257 285.521,156.924 287,179.5C 287.833,180.333 288.667,181.167 289.5,182C 294.243,183.47 298.909,185.136 303.5,187C 354.649,212.551 378.483,254.051 375,311.5C 369.68,341.918 364.847,372.418 360.5,403C 360.133,407.785 362.133,410.952 366.5,412.5 Z"/></g>
<g><path style="opacity:1" fill="#fad59d" d="M 225.5,131.5 C 237.833,131.5 250.167,131.5 262.5,131.5C 262.024,151.259 262.524,170.926 264,190.5C 265.141,192.609 266.641,194.442 268.5,196C 276.5,199 284.5,202 292.5,205C 324.672,219.843 344.172,244.677 351,279.5C 352.96,297.83 352.96,316.164 351,334.5C 341.338,388.654 331.171,442.654 320.5,496.5C 270.166,496.667 219.832,496.5 169.5,496C 167.333,495.167 165.833,493.667 165,491.5C 155.463,431.479 145.796,371.479 136,311.5C 132.488,274.371 143.154,242.038 168,214.5C 184.253,199.036 202.92,187.37 224,179.5C 225.47,163.596 225.97,147.596 225.5,131.5 Z"/></g>
<g><path style="opacity:1" fill="#050505" d="M 232.5,248.5 C 232.673,252.17 231.007,254.67 227.5,256C 217.506,256.5 207.506,256.666 197.5,256.5C 197.5,263.167 197.5,269.833 197.5,276.5C 210.171,276.667 222.838,276.5 235.5,276C 251.262,264.682 266.929,264.682 282.5,276C 284.473,276.495 286.473,276.662 288.5,276.5C 296.833,276.5 305.167,276.5 313.5,276.5C 313.5,269.833 313.5,263.167 313.5,256.5C 305.167,256.5 296.833,256.5 288.5,256.5C 278.828,256.666 269.161,256.5 259.5,256C 256.183,254.52 254.183,252.02 253.5,248.5C 253.933,245.805 255.266,243.638 257.5,242C 278.5,241.333 299.5,241.333 320.5,242C 323.937,243.105 326.437,245.272 328,248.5C 328.667,297.833 328.667,347.167 328,396.5C 320.034,437.133 295.367,458.466 254,460.5C 226.94,459.426 206.273,447.426 192,424.5C 187.194,415.749 184.194,406.416 183,396.5C 182.333,347.167 182.333,297.833 183,248.5C 184.5,245.667 186.667,243.5 189.5,242C 202.5,241.333 215.5,241.333 228.5,242C 231.693,243.026 233.026,245.192 232.5,248.5 Z"/></g>
<g><path style="opacity:1" fill="#1c95f7" d="M 232.5,248.5 C 239.5,248.5 246.5,248.5 253.5,248.5C 254.183,252.02 256.183,254.52 259.5,256C 269.161,256.5 278.828,256.666 288.5,256.5C 288.5,263.167 288.5,269.833 288.5,276.5C 286.473,276.662 284.473,276.495 282.5,276C 266.929,264.682 251.262,264.682 235.5,276C 222.838,276.5 210.171,276.667 197.5,276.5C 197.5,269.833 197.5,263.167 197.5,256.5C 207.506,256.666 217.506,256.5 227.5,256C 231.007,254.67 232.673,252.17 232.5,248.5 Z"/></g>
<g><path style="opacity:1" fill="#1785f8" d="M 288.5,256.5 C 296.833,256.5 305.167,256.5 313.5,256.5C 313.5,263.167 313.5,269.833 313.5,276.5C 305.167,276.5 296.833,276.5 288.5,276.5C 288.5,269.833 288.5,263.167 288.5,256.5 Z"/></g>
<g><path style="opacity:1" fill="#f4c071" d="M 254.5,282.5 C 258.703,282.076 262.703,282.576 266.5,284C 261,289.5 255.5,295 250,300.5C 248.15,303.463 248.15,306.463 250,309.5C 253.026,312.864 256.526,313.364 260.5,311C 266,305.5 271.5,300 277,294.5C 279.74,311.802 272.573,322.968 255.5,328C 238.234,329.677 230.734,321.844 233,304.5C 237.019,293.982 244.186,286.648 254.5,282.5 Z"/></g>
<g><path style="opacity:1" fill="#faf3ea" d="M 287.5,322.5 C 288.167,334.329 288.5,346.329 288.5,358.5C 288.499,370.852 287.832,382.852 286.5,394.5C 266.24,393.346 245.906,393.18 225.5,394C 220.177,398.62 220.177,403.286 225.5,408C 245.164,408.5 264.831,408.667 284.5,408.5C 279.586,424.506 269.586,436.839 254.5,445.5C 223.495,443.335 204.661,427.002 198,396.5C 197.5,361.502 197.333,326.502 197.5,291.5C 205.5,291.5 213.5,291.5 221.5,291.5C 215.356,305.798 216.523,319.465 225,332.5C 235.478,343.208 247.978,346.375 262.5,342C 272.796,337.871 281.13,331.371 287.5,322.5 Z"/></g>
<g><path style="opacity:1" fill="#f6dec0" d="M 254.5,445.5 C 269.586,436.839 279.586,424.506 284.5,408.5C 290.293,404.613 290.96,399.947 286.5,394.5C 287.832,382.852 288.499,370.852 288.5,358.5C 288.5,346.329 288.167,334.329 287.5,322.5C 292.645,312.77 294.311,302.436 292.5,291.5C 299.5,291.5 306.5,291.5 313.5,291.5C 313.667,326.502 313.5,361.502 313,396.5C 306.103,427.898 286.603,444.231 254.5,445.5 Z"/></g>
<g><path style="opacity:1" fill="#060605" d="M 235.5,367.5 C 248.837,367.333 262.171,367.5 275.5,368C 279.212,370.513 280.378,374.013 279,378.5C 277.786,380.049 276.286,381.215 274.5,382C 261.5,382.667 248.5,382.667 235.5,382C 230.235,377.076 230.235,372.242 235.5,367.5 Z"/></g>
<g><path style="opacity:1" fill="#020202" d="M 286.5,394.5 C 290.96,399.947 290.293,404.613 284.5,408.5C 264.831,408.667 245.164,408.5 225.5,408C 220.177,403.286 220.177,398.62 225.5,394C 245.906,393.18 266.24,393.346 286.5,394.5 Z"/></g>
</svg>
