<?xml version="1.0" encoding="UTF-8"?>
<!DOCTYPE svg PUBLIC "-//W3C//DTD SVG 1.1//EN" "http://www.w3.org/Graphics/SVG/1.1/DTD/svg11.dtd">
<svg xmlns="http://www.w3.org/2000/svg" version="1.1" width="512px" height="512px" style="shape-rendering:geometricPrecision; text-rendering:geometricPrecision; image-rendering:optimizeQuality; fill-rule:evenodd; clip-rule:evenodd" xmlns:xlink="http://www.w3.org/1999/xlink">
<g><path style="opacity:0.967" fill="#000100" d="M 300.5,-0.5 C 303.5,-0.5 306.5,-0.5 309.5,-0.5C 326.195,6.34901 341.528,15.5157 355.5,27C 378.579,46.3196 387.746,70.8196 383,100.5C 409.556,86.546 437.723,81.7127 467.5,86C 481.122,91.0636 487.289,100.897 486,115.5C 482.854,129.309 474.188,136.643 460,137.5C 425.625,133.947 397.792,145.614 376.5,172.5C 420.494,225.813 435.327,286.48 421,354.5C 398.007,436.494 345.173,487.66 262.5,508C 255.336,509.044 248.336,510.211 241.5,511.5C 228.167,511.5 214.833,511.5 201.5,511.5C 165.586,507.463 132.752,495.13 103,474.5C 87.7,488.721 71.2,490.221 53.5,479C 40.0896,465.137 37.9229,449.637 47,432.5C 48.8123,429.72 50.979,427.22 53.5,425C 20.3428,376.552 9.17618,323.385 20,265.5C 36.9049,193.599 79.4049,143.432 147.5,115C 186.978,100.417 227.145,97.9172 268,107.5C 262.466,91.0354 262.133,74.3687 267,57.5C 273.816,35.52 284.982,16.1867 300.5,-0.5 Z"/></g>
<g><path style="opacity:1" fill="#8da900" d="M 327.5,131.5 C 338.64,125.601 345.14,116.268 347,103.5C 352.379,84.5538 349.712,66.8871 339,50.5C 329.814,38.4763 318.647,28.8096 305.5,21.5C 306.052,19.2971 307.385,18.4638 309.5,19C 328.207,27.0469 344.04,38.8803 357,54.5C 366.389,68.2294 369.056,83.2294 365,99.5C 363.258,105.725 360.925,111.725 358,117.5C 350.676,123.824 343.676,130.491 337,137.5C 333.532,135.856 330.365,133.856 327.5,131.5 Z"/></g>
<g><path style="opacity:1" fill="#a3c300" d="M 305.5,21.5 C 318.647,28.8096 329.814,38.4763 339,50.5C 349.712,66.8871 352.379,84.5538 347,103.5C 345.14,116.268 338.64,125.601 327.5,131.5C 317.257,125.546 306.591,120.379 295.5,116C 283.332,102.819 278.832,87.3191 282,69.5C 286.411,51.6812 294.244,35.6812 305.5,21.5 Z"/></g>
<g><path style="opacity:1" fill="#9c502c" d="M 429.5,102.5 C 440.838,102.333 452.172,102.5 463.5,103C 469.296,107.24 469.963,112.24 465.5,118C 424.406,114.963 390.406,128.796 363.5,159.5C 359.814,155.98 355.981,152.647 352,149.5C 352.044,147.721 352.711,146.055 354,144.5C 374.466,122.018 399.632,108.018 429.5,102.5 Z"/></g>
<g><path style="opacity:1" fill="#5fa817" d="M 277.5,127.5 C 341.902,159.9 379.736,211.9 391,283.5C 396.834,359.777 369.667,420.943 309.5,467C 300.572,472.792 291.572,478.292 282.5,483.5C 218.736,504.318 159.736,494.818 105.5,455C 102.833,454.333 100.167,454.333 97.5,455C 93.0362,460.47 87.7028,464.803 81.5,468C 65.6667,469.5 58.5,462.333 60,446.5C 63.1969,440.297 67.5302,434.964 73,430.5C 74.373,428.305 74.7063,425.971 74,423.5C 26.8201,358.539 20.8201,289.872 56,217.5C 86.4891,164.379 131.989,132.212 192.5,121C 221.337,117.276 249.67,119.443 277.5,127.5 Z"/></g>
<g><path style="opacity:1" fill="#529113" d="M 277.5,127.5 C 349.034,152.876 392.2,202.876 407,277.5C 415.792,352.384 390.626,412.884 331.5,459C 316.528,469.819 300.195,477.986 282.5,483.5C 291.572,478.292 300.572,472.792 309.5,467C 369.667,420.943 396.834,359.777 391,283.5C 379.736,211.9 341.902,159.9 277.5,127.5 Z"/></g>
<g><path style="opacity:1" fill="#f3f4f2" d="M 202.5,136.5 C 210.611,136.065 218.611,136.565 226.5,138C 230.677,142.954 230.343,147.62 225.5,152C 181.187,152.652 143.187,168.319 111.5,199C 100.491,201.654 96.6574,197.487 100,186.5C 128.74,158.713 162.907,142.047 202.5,136.5 Z"/></g>
<g><path style="opacity:1" fill="#030600" d="M 226.5,400.5 C 235.896,400.376 239.396,404.709 237,413.5C 231.514,419.08 226.514,418.747 222,412.5C 221.333,410.167 221.333,407.833 222,405.5C 223.366,403.638 224.866,401.972 226.5,400.5 Z"/></g>
<g><path style="opacity:1" fill="#030500" d="M 285.5,409.5 C 296.559,409.054 299.892,413.888 295.5,424C 290.21,427.722 285.71,426.888 282,421.5C 280.593,416.643 281.76,412.643 285.5,409.5 Z"/></g>
<g><path style="opacity:1" fill="#030500" d="M 251.5,426.5 C 262.621,426.107 265.954,430.941 261.5,441C 257.122,444.487 252.955,444.32 249,440.5C 246.418,435.12 247.251,430.453 251.5,426.5 Z"/></g>
<g><path style="opacity:1" fill="#040600" d="M 184.5,434.5 C 192.523,434.683 196.023,438.683 195,446.5C 192.459,451.069 188.625,452.569 183.5,451C 176.657,445.052 176.991,439.552 184.5,434.5 Z"/></g>
<g><path style="opacity:1" fill="#040701" d="M 218.5,434.5 C 226.865,434.36 230.365,438.36 229,446.5C 226.459,451.069 222.625,452.569 217.5,451C 210.671,445.003 211.004,439.503 218.5,434.5 Z"/></g>
<g><path style="opacity:1" fill="#020400" d="M 286.5,443.5 C 295.207,443.037 298.707,447.037 297,455.5C 291.916,462.059 286.916,462.059 282,455.5C 280.309,450.131 281.809,446.131 286.5,443.5 Z"/></g>
<g><path style="opacity:1" fill="#030600" d="M 200.5,460.5 C 209.658,459.491 213.492,463.491 212,472.5C 206.159,479.394 200.825,479.061 196,471.5C 195.333,469.833 195.333,468.167 196,466.5C 197.332,464.34 198.832,462.34 200.5,460.5 Z"/></g>
<g><path style="opacity:1" fill="#030500" d="M 243.5,460.5 C 252.909,460.387 256.409,464.72 254,473.5C 248.091,479.348 243.091,478.681 239,471.5C 237.776,466.626 239.276,462.959 243.5,460.5 Z"/></g>
</svg>
