<?xml version="1.0" encoding="UTF-8"?>
<!DOCTYPE svg PUBLIC "-//W3C//DTD SVG 1.1//EN" "http://www.w3.org/Graphics/SVG/1.1/DTD/svg11.dtd">
<svg xmlns="http://www.w3.org/2000/svg" version="1.1" width="512px" height="512px" style="shape-rendering:geometricPrecision; text-rendering:geometricPrecision; image-rendering:optimizeQuality; fill-rule:evenodd; clip-rule:evenodd" xmlns:xlink="http://www.w3.org/1999/xlink">
<g><path style="opacity:0.974" fill="#010100" d="M 511.5,134.5 C 511.5,137.5 511.5,140.5 511.5,143.5C 491.443,163.305 467.11,172.305 438.5,170.5C 434.438,169.65 430.438,168.483 426.5,167C 420.124,157.266 412.791,148.266 404.5,140C 396.679,133.251 388.012,127.751 378.5,123.5C 366.16,142.361 361.66,163.028 365,185.5C 370.951,217.94 388.784,241.106 418.5,255C 419.635,255.749 420.635,255.583 421.5,254.5C 427.682,243.121 432.182,231.121 435,218.5C 437.64,215.599 440.807,213.932 444.5,213.5C 450.063,215.064 453.063,218.731 453.5,224.5C 450.676,243.642 443.343,260.809 431.5,276C 426.241,279.23 421.074,279.063 416,275.5C 411.462,352.439 377.962,412.939 315.5,457C 266.942,487.978 214.275,498.312 157.5,488C 145.933,484.588 134.266,481.588 122.5,479C 108.423,478.96 94.4231,477.96 80.5,476C 60.5433,471.377 47.71,459.211 42,439.5C 39.6659,429.828 37.3325,420.162 35,410.5C 15.5392,381.259 3.7059,349.259 -0.5,314.5C -0.5,301.167 -0.5,287.833 -0.5,274.5C 9.05506,202.525 44.0551,146.692 104.5,107C 110.667,103.136 116,103.97 120.5,109.5C 121.989,113.243 121.822,116.91 120,120.5C 80.1777,145.659 51.1777,179.992 33,223.5C 14.673,270.998 15.0063,318.331 34,365.5C 40.7456,378.659 47.7456,391.659 55,404.5C 57.2606,415.279 59.9273,425.946 63,436.5C 66.2644,446.765 73.0978,453.265 83.5,456C 97.4229,457.92 111.423,458.92 125.5,459C 143.326,463.832 161.326,467.832 179.5,471C 259.661,474.838 321.494,443.338 365,376.5C 385.631,341.974 395.298,304.641 394,264.5C 357.428,238.342 341.094,202.675 345,157.5C 346.246,150.605 347.746,143.772 349.5,137C 345.721,123.554 337.055,115.221 323.5,112C 312.497,111.889 301.497,111.889 290.5,112C 278.197,109.344 266.197,105.677 254.5,101C 247.286,99.0199 239.953,97.6865 232.5,97C 213.141,95.4868 193.974,96.6535 175,100.5C 169.858,99.8445 166.358,97.1779 164.5,92.5C 163.77,86.1198 166.437,81.9532 172.5,80C 199.112,74.5384 225.778,74.205 252.5,79C 265.167,83 277.833,87 290.5,91C 302.867,91.0967 315.2,91.0967 327.5,91C 342.337,76.1607 351.504,58.3273 355,37.5C 363.053,19.8173 375.886,14.9839 393.5,23C 404.187,31.8555 409.187,43.3555 408.5,57.5C 408.049,65.9221 406.382,74.0888 403.5,82C 403.833,82.5 404.167,83 404.5,83.5C 453.068,73.9543 488.735,90.9543 511.5,134.5 Z"/></g>
<g><path style="opacity:1" fill="#a7806b" d="M 377.5,39.5 C 382.696,40.1925 385.863,43.1925 387,48.5C 388.389,61.2223 386.056,73.2223 380,84.5C 373.996,94.5117 367.496,104.178 360.5,113.5C 356.5,108.833 352.167,104.5 347.5,100.5C 355.719,90.4288 362.553,79.4288 368,67.5C 370.506,60.3028 372.506,52.9695 374,45.5C 374.926,43.3083 376.093,41.3083 377.5,39.5 Z"/></g>
<g><path style="opacity:0.942" fill="#040300" d="M 156.5,94.5 C 157.406,104.094 153.073,108.594 143.5,108C 140.642,106.306 138.309,104.139 136.5,101.5C 136.479,90.3463 141.813,86.1796 152.5,89C 154.819,90.1474 156.152,91.9807 156.5,94.5 Z"/></g>
<g><path style="opacity:1" fill="#fece32" d="M 164.5,92.5 C 166.358,97.1779 169.858,99.8445 175,100.5C 193.974,96.6535 213.141,95.4868 232.5,97C 239.953,97.6865 247.286,99.0199 254.5,101C 266.197,105.677 278.197,109.344 290.5,112C 301.497,111.889 312.497,111.889 323.5,112C 337.055,115.221 345.721,123.554 349.5,137C 347.746,143.772 346.246,150.605 345,157.5C 341.094,202.675 357.428,238.342 394,264.5C 395.298,304.641 385.631,341.974 365,376.5C 321.494,443.338 259.661,474.838 179.5,471C 161.326,467.832 143.326,463.832 125.5,459C 111.423,458.92 97.4229,457.92 83.5,456C 73.0978,453.265 66.2644,446.765 63,436.5C 59.9273,425.946 57.2606,415.279 55,404.5C 47.7456,391.659 40.7456,378.659 34,365.5C 15.0063,318.331 14.673,270.998 33,223.5C 51.1777,179.992 80.1777,145.659 120,120.5C 121.822,116.91 121.989,113.243 120.5,109.5C 125.833,106.833 131.167,104.167 136.5,101.5C 138.309,104.139 140.642,106.306 143.5,108C 153.073,108.594 157.406,104.094 156.5,94.5C 159.067,93.525 161.733,92.8583 164.5,92.5 Z"/></g>
<g><path style="opacity:1" fill="#00c26c" d="M 417.5,100.5 C 448.548,98.0237 472.214,109.857 488.5,136C 473.625,148.024 456.625,152.19 437.5,148.5C 426.691,132.023 412.691,119.023 395.5,109.5C 396.779,107.854 398.445,106.687 400.5,106C 406.232,103.992 411.898,102.158 417.5,100.5 Z"/></g>
<g><path style="opacity:0.998" fill="#86db5f" d="M 438.5,170.5 C 439.986,175.445 441.32,180.445 442.5,185.5C 434.779,188.954 432.613,194.62 436,202.5C 438.398,205.108 441.231,206.775 444.5,207.5C 444.5,209.5 444.5,211.5 444.5,213.5C 440.807,213.932 437.64,215.599 435,218.5C 432.182,231.121 427.682,243.121 421.5,254.5C 420.635,255.583 419.635,255.749 418.5,255C 388.784,241.106 370.951,217.94 365,185.5C 361.66,163.028 366.16,142.361 378.5,123.5C 388.012,127.751 396.679,133.251 404.5,140C 412.791,148.266 420.124,157.266 426.5,167C 430.438,168.483 434.438,169.65 438.5,170.5 Z"/></g>
<g><path style="opacity:1" fill="#070501" d="M 212.5,155.5 C 222.987,154.486 227.487,159.153 226,169.5C 222.657,174.218 218.157,175.718 212.5,174C 210.333,173.167 208.833,171.667 208,169.5C 206.309,163.61 207.809,158.944 212.5,155.5 Z"/></g>
<g><path style="opacity:0.934" fill="#010200" d="M 442.5,185.5 C 453.713,187.321 456.879,193.321 452,203.5C 449.838,205.496 447.338,206.83 444.5,207.5C 441.231,206.775 438.398,205.108 436,202.5C 432.613,194.62 434.779,188.954 442.5,185.5 Z"/></g>
<g><path style="opacity:1" fill="#070501" d="M 278.5,241.5 C 288.421,240.255 292.921,244.588 292,254.5C 289.081,260.025 284.581,261.858 278.5,260C 270.663,253.715 270.663,247.548 278.5,241.5 Z"/></g>
<g><path style="opacity:1" fill="#0a0702" d="M 192.5,250.5 C 203.464,250.772 207.298,256.105 204,266.5C 197.912,272.111 192.245,271.778 187,265.5C 184.873,259.082 186.706,254.082 192.5,250.5 Z"/></g>
<g><path style="opacity:1" fill="#0a0702" d="M 338.5,291.5 C 347.854,291.681 352.02,296.348 351,305.5C 347.843,310.492 343.343,312.325 337.5,311C 329.202,304.009 329.535,297.509 338.5,291.5 Z"/></g>
<g><path style="opacity:1" fill="#070501" d="M 97.5,293.5 C 107.421,292.255 111.921,296.588 111,306.5C 108.081,312.025 103.581,313.858 97.5,312C 89.663,305.715 89.663,299.548 97.5,293.5 Z"/></g>
<g><path style="opacity:1" fill="#0a0702" d="M 227.5,335.5 C 236.854,335.681 241.02,340.348 240,349.5C 236.843,354.492 232.343,356.325 226.5,355C 218.202,348.009 218.535,341.509 227.5,335.5 Z"/></g>
<g><path style="opacity:1" fill="#050301" d="M 304.5,377.5 C 313.344,376.852 317.844,380.852 318,389.5C 305.993,409.094 288.827,421.76 266.5,427.5C 257.54,425.505 255.04,420.172 259,411.5C 268.331,407.584 277.164,402.751 285.5,397C 292.036,390.631 298.369,384.131 304.5,377.5 Z"/></g>
<g><path style="opacity:1" fill="#080601" d="M 130.5,403.5 C 140.557,403.052 144.723,407.718 143,417.5C 140.367,422.732 136.201,424.565 130.5,423C 124.975,420.081 123.142,415.581 125,409.5C 126.36,406.977 128.193,404.977 130.5,403.5 Z"/></g>
<g><path style="opacity:1" fill="#090701" d="M 235.5,417.5 C 246.814,416.854 250.98,421.854 248,432.5C 241.687,439.342 235.687,439.009 230,431.5C 229.013,425.611 230.847,420.944 235.5,417.5 Z"/></g>
</svg>
