<?xml version="1.0" encoding="UTF-8"?>
<!DOCTYPE svg PUBLIC "-//W3C//DTD SVG 1.1//EN" "http://www.w3.org/Graphics/SVG/1.1/DTD/svg11.dtd">
<svg xmlns="http://www.w3.org/2000/svg" version="1.1" width="512px" height="512px" style="shape-rendering:geometricPrecision; text-rendering:geometricPrecision; image-rendering:optimizeQuality; fill-rule:evenodd; clip-rule:evenodd" xmlns:xlink="http://www.w3.org/1999/xlink">
<g><path style="opacity:0.991" fill="#241f20" d="M 141.5,-0.5 C 144.5,-0.5 147.5,-0.5 150.5,-0.5C 164.424,6.25607 174.924,16.5894 182,30.5C 185.397,38.692 188.397,47.0253 191,55.5C 209.076,49.7539 226.909,50.5872 244.5,58C 257.962,63.4776 269.795,71.311 280,81.5C 283.333,88.1667 283.333,94.8333 280,101.5C 261.742,123.296 238.409,135.296 210,137.5C 203.406,137.01 196.906,136.01 190.5,134.5C 189.793,137.786 189.46,141.119 189.5,144.5C 230.426,148.463 264.759,165.463 292.5,195.5C 334.828,169.879 376.828,170.379 418.5,197C 458.365,228.568 478.698,270.068 479.5,321.5C 479.173,335.621 477.173,349.455 473.5,363C 488.152,368.008 493.985,378.175 491,393.5C 479.03,443.643 449.863,479.81 403.5,502C 392.389,506.441 381.056,509.607 369.5,511.5C 359.5,511.5 349.5,511.5 339.5,511.5C 299.88,504.37 268.047,484.703 244,452.5C 184.968,481.311 130.135,474.811 79.5,433C 23.3504,379.905 6.85041,316.405 30,242.5C 39.2321,220.606 52.3988,201.44 69.5,185C 73.7065,181.852 78.0398,181.686 82.5,184.5C 84.7222,188.096 84.8889,191.763 83,195.5C 36.3396,241.065 24.0063,294.731 46,356.5C 53.6676,376.53 64.8343,394.197 79.5,409.5C 120.375,452.41 168.708,463.743 224.5,443.5C 228.606,441.976 232.273,439.809 235.5,437C 226.52,420.873 220.52,403.707 217.5,385.5C 218.796,374.581 224.63,367.248 235,363.5C 234.659,356.782 233.659,350.115 232,343.5C 229.491,325.027 230.158,306.694 234,288.5C 236.408,285.38 239.574,284.047 243.5,284.5C 246.943,286.04 248.943,288.707 249.5,292.5C 244.735,316.207 245.735,339.54 252.5,362.5C 320.335,363.832 388.335,363.832 456.5,362.5C 469.816,314.179 461.316,270.179 431,230.5C 412.651,209.076 389.485,196.743 361.5,193.5C 334.453,192.03 310.786,200.197 290.5,218C 283.427,224.402 277.094,231.402 271.5,239C 268.303,241.12 265.303,240.953 262.5,238.5C 259.167,234.99 258.667,230.99 261,226.5C 267.039,219.631 273.206,212.964 279.5,206.5C 276.812,203.146 273.812,200.146 270.5,197.5C 256.354,183.752 239.688,174.085 220.5,168.5C 209.036,164.141 197.036,161.808 184.5,161.5C 184.483,163.565 184.15,165.565 183.5,167.5C 179.888,172.926 175.221,173.926 169.5,170.5C 169.443,169.391 169.11,168.391 168.5,167.5C 168.5,165.167 168.5,162.833 168.5,160.5C 165.615,160.194 162.948,160.527 160.5,161.5C 144.712,163.152 129.546,167.152 115,173.5C 111.537,172.863 108.704,171.197 106.5,168.5C 106.239,160.918 109.906,156.418 117.5,155C 134.876,148.225 152.876,144.725 171.5,144.5C 172.592,138.861 173.592,133.194 174.5,127.5C 172.765,124.257 170.432,121.423 167.5,119C 139.784,126.824 114.784,121.491 92.5,103C 85.5733,98.0751 80.0733,91.9085 76,84.5C 75.0229,79.2661 75.6896,74.2661 78,69.5C 98.8736,48.6506 124.04,39.4839 153.5,42C 159.401,43.3048 165.067,44.9714 170.5,47C 164.538,31.3709 154.038,19.8709 139,12.5C 136.606,7.52717 137.44,3.19384 141.5,-0.5 Z"/></g>
<g><path style="opacity:1" fill="#a6fda7" d="M 167.5,66.5 C 161.247,79.2532 151.247,87.4199 137.5,91C 123.886,93.0161 110.886,91.1828 98.5,85.5C 96.1878,83.8545 94.1878,81.8545 92.5,79.5C 108.07,63.3868 127.07,56.2201 149.5,58C 156.458,59.03 162.458,61.8634 167.5,66.5 Z"/></g>
<g><path style="opacity:1" fill="#83e99f" d="M 167.5,66.5 C 181.251,76.2338 181.917,86.7338 169.5,98C 154.662,107.769 138.995,109.102 122.5,102C 113.564,97.7117 105.564,92.2117 98.5,85.5C 110.886,91.1828 123.886,93.0161 137.5,91C 151.247,87.4199 161.247,79.2532 167.5,66.5 Z"/></g>
<g><path style="opacity:1" fill="#68d860" d="M 259.5,98.5 C 253.242,100.482 246.909,102.316 240.5,104C 223.034,107.678 207.867,103.512 195,91.5C 194.517,90.552 194.351,89.552 194.5,88.5C 194.91,83.3326 194.243,78.3326 192.5,73.5C 195.275,70.9555 198.609,69.4555 202.5,69C 227.3,66.6554 248.633,74.1554 266.5,91.5C 264.452,94.215 262.118,96.5483 259.5,98.5 Z"/></g>
<g><path style="opacity:1" fill="#59af5f" d="M 194.5,88.5 C 194.351,89.552 194.517,90.552 195,91.5C 207.867,103.512 223.034,107.678 240.5,104C 246.909,102.316 253.242,100.482 259.5,98.5C 243.192,114.66 223.526,121.827 200.5,120C 192.78,118.555 186.447,114.889 181.5,109C 187.251,102.982 191.585,96.1485 194.5,88.5 Z"/></g>
<g><path style="opacity:1" fill="#945059" d="M 160.5,161.5 C 162.948,160.527 165.615,160.194 168.5,160.5C 168.5,162.833 168.5,165.167 168.5,167.5C 167.539,165.735 167.205,163.735 167.5,161.5C 165.167,161.5 162.833,161.5 160.5,161.5 Z"/></g>
<g><path style="opacity:1" fill="#fc7d8e" d="M 160.5,161.5 C 162.833,161.5 165.167,161.5 167.5,161.5C 167.205,163.735 167.539,165.735 168.5,167.5C 169.11,168.391 169.443,169.391 169.5,170.5C 151.701,173.24 135.368,179.573 120.5,189.5C 115.874,187.517 112.04,188.517 109,192.5C 108.501,196.821 108.334,201.154 108.5,205.5C 107.686,203.369 107.186,201.036 107,198.5C 88.9381,213.22 74.6047,230.887 64,251.5C 58.6667,255.5 54,260.167 50,265.5C 49.5203,273.779 50.3536,281.945 52.5,290C 50.725,296.741 50.225,303.575 51,310.5C 52.5883,313.174 53.755,316.008 54.5,319C 52.6129,322.775 51.6129,326.775 51.5,331C 52.746,347.151 56.5794,362.651 63,377.5C 68.2555,388.346 73.7555,399.012 79.5,409.5C 64.8343,394.197 53.6676,376.53 46,356.5C 24.0063,294.731 36.3396,241.065 83,195.5C 84.8889,191.763 84.7222,188.096 82.5,184.5C 90.2509,178.741 98.2509,173.408 106.5,168.5C 108.704,171.197 111.537,172.863 115,173.5C 129.546,167.152 144.712,163.152 160.5,161.5 Z"/></g>
<g><path style="opacity:1" fill="#fa7c8d" d="M 220.5,168.5 C 208.221,166.381 195.887,166.048 183.5,167.5C 184.15,165.565 184.483,163.565 184.5,161.5C 197.036,161.808 209.036,164.141 220.5,168.5 Z"/></g>
<g><path style="opacity:1" fill="#fd5771" d="M 220.5,168.5 C 239.688,174.085 256.354,183.752 270.5,197.5C 264.622,204.558 258.455,211.558 252,218.5C 247.605,224.566 243.605,230.9 240,237.5C 234.488,241.257 229.154,245.257 224,249.5C 223.333,252.5 223.333,255.5 224,258.5C 225.336,261.009 226.17,263.676 226.5,266.5C 224.985,274.576 223.152,282.576 221,290.5C 219.148,300.745 218.315,311.078 218.5,321.5C 218.73,333.587 219.563,345.587 221,357.5C 211.416,364.331 206.249,373.664 205.5,385.5C 206.54,393.996 208.374,402.329 211,410.5C 214.96,421.75 219.46,432.75 224.5,443.5C 168.708,463.743 120.375,452.41 79.5,409.5C 73.7555,399.012 68.2555,388.346 63,377.5C 56.5794,362.651 52.746,347.151 51.5,331C 51.6129,326.775 52.6129,322.775 54.5,319C 53.755,316.008 52.5883,313.174 51,310.5C 50.225,303.575 50.725,296.741 52.5,290C 50.3536,281.945 49.5203,273.779 50,265.5C 54,260.167 58.6667,255.5 64,251.5C 74.6047,230.887 88.9381,213.22 107,198.5C 107.186,201.036 107.686,203.369 108.5,205.5C 108.738,208.148 110.072,209.982 112.5,211C 121.205,212.632 125.205,208.966 124.5,200C 125.254,195.568 123.921,192.068 120.5,189.5C 135.368,179.573 151.701,173.24 169.5,170.5C 175.221,173.926 179.888,172.926 183.5,167.5C 195.887,166.048 208.221,166.381 220.5,168.5 Z"/></g>
<g><path style="opacity:1" fill="#282022" d="M 120.5,189.5 C 123.921,192.068 125.254,195.568 124.5,200C 125.205,208.966 121.205,212.632 112.5,211C 110.072,209.982 108.738,208.148 108.5,205.5C 108.334,201.154 108.501,196.821 109,192.5C 112.04,188.517 115.874,187.517 120.5,189.5 Z"/></g>
<g><path style="opacity:1" fill="#282021" d="M 172.5,188.5 C 176.909,187.618 180.409,188.952 183,192.5C 183.667,197.5 183.667,202.5 183,207.5C 182.5,209.333 181.333,210.5 179.5,211C 174.269,212.724 170.435,211.224 168,206.5C 167.333,202.167 167.333,197.833 168,193.5C 169.059,191.341 170.559,189.674 172.5,188.5 Z"/></g>
<g><path style="opacity:1" fill="#251f21" d="M 231.5,188.5 C 236.635,187.426 240.468,189.093 243,193.5C 243.667,197.833 243.667,202.167 243,206.5C 240.565,211.224 236.731,212.724 231.5,211C 229.951,209.786 228.785,208.286 228,206.5C 227.333,202.167 227.333,197.833 228,193.5C 228.997,191.677 230.164,190.01 231.5,188.5 Z"/></g>
<g><path style="opacity:1" fill="#fef1b8" d="M 361.5,193.5 C 390.96,207.797 412.126,230.131 425,260.5C 431.449,268.286 437.116,276.619 442,285.5C 442.667,288.833 442.667,292.167 442,295.5C 440.686,301.476 439.353,307.476 438,313.5C 437.469,329.749 435.302,345.749 431.5,361.5C 371.837,362.5 312.17,362.833 252.5,362.5C 245.735,339.54 244.735,316.207 249.5,292.5C 248.943,288.707 246.943,286.04 243.5,284.5C 244.021,279.273 245.354,274.273 247.5,269.5C 255.323,269.846 258.823,266.179 258,258.5C 256.975,256.313 255.475,254.646 253.5,253.5C 256.737,248.701 259.737,243.701 262.5,238.5C 265.303,240.953 268.303,241.12 271.5,239C 277.094,231.402 283.427,224.402 290.5,218C 310.786,200.197 334.453,192.03 361.5,193.5 Z"/></g>
<g><path style="opacity:1" fill="#f1d9a5" d="M 361.5,193.5 C 389.485,196.743 412.651,209.076 431,230.5C 461.316,270.179 469.816,314.179 456.5,362.5C 388.335,363.832 320.335,363.832 252.5,362.5C 312.17,362.833 371.837,362.5 431.5,361.5C 435.302,345.749 437.469,329.749 438,313.5C 439.353,307.476 440.686,301.476 442,295.5C 442.667,292.167 442.667,288.833 442,285.5C 437.116,276.619 431.449,268.286 425,260.5C 412.126,230.131 390.96,207.797 361.5,193.5 Z"/></g>
<g><path style="opacity:1" fill="#d94867" d="M 270.5,197.5 C 273.812,200.146 276.812,203.146 279.5,206.5C 273.206,212.964 267.039,219.631 261,226.5C 258.667,230.99 259.167,234.99 262.5,238.5C 259.737,243.701 256.737,248.701 253.5,253.5C 245.836,252.666 242.336,256 243,263.5C 243.979,265.968 245.479,267.968 247.5,269.5C 245.354,274.273 244.021,279.273 243.5,284.5C 239.574,284.047 236.408,285.38 234,288.5C 230.158,306.694 229.491,325.027 232,343.5C 233.659,350.115 234.659,356.782 235,363.5C 224.63,367.248 218.796,374.581 217.5,385.5C 220.52,403.707 226.52,420.873 235.5,437C 232.273,439.809 228.606,441.976 224.5,443.5C 219.46,432.75 214.96,421.75 211,410.5C 208.374,402.329 206.54,393.996 205.5,385.5C 206.249,373.664 211.416,364.331 221,357.5C 219.563,345.587 218.73,333.587 218.5,321.5C 218.315,311.078 219.148,300.745 221,290.5C 223.152,282.576 224.985,274.576 226.5,266.5C 226.17,263.676 225.336,261.009 224,258.5C 223.333,255.5 223.333,252.5 224,249.5C 229.154,245.257 234.488,241.257 240,237.5C 243.605,230.9 247.605,224.566 252,218.5C 258.455,211.558 264.622,204.558 270.5,197.5 Z"/></g>
<g><path style="opacity:1" fill="#272021" d="M 82.5,228.5 C 87.635,227.426 91.4683,229.093 94,233.5C 94.6667,237.833 94.6667,242.167 94,246.5C 91.5647,251.224 87.7314,252.724 82.5,251C 81,250.167 79.8333,249 79,247.5C 78.3333,242.5 78.3333,237.5 79,232.5C 80.3756,231.295 81.5423,229.962 82.5,228.5 Z"/></g>
<g><path style="opacity:1" fill="#282021" d="M 142.5,228.5 C 146.909,227.618 150.409,228.952 153,232.5C 153.667,237.5 153.667,242.5 153,247.5C 152.5,249.333 151.333,250.5 149.5,251C 143.708,252.989 139.875,251.155 138,245.5C 137.333,241.833 137.333,238.167 138,234.5C 138.804,231.854 140.304,229.854 142.5,228.5 Z"/></g>
<g><path style="opacity:1" fill="#261f21" d="M 202.5,228.5 C 206.803,227.796 210.303,229.13 213,232.5C 213.667,237.167 213.667,241.833 213,246.5C 210.565,251.224 206.731,252.724 201.5,251C 199.951,249.786 198.785,248.286 198,246.5C 197.333,242.167 197.333,237.833 198,233.5C 199.025,231.313 200.525,229.646 202.5,228.5 Z"/></g>
<g><path style="opacity:1" fill="#282223" d="M 253.5,253.5 C 255.475,254.646 256.975,256.313 258,258.5C 258.823,266.179 255.323,269.846 247.5,269.5C 245.479,267.968 243.979,265.968 243,263.5C 242.336,256 245.836,252.666 253.5,253.5 Z"/></g>
<g><path style="opacity:1" fill="#ff7d8e" d="M 59.5,265.5 C 65.9227,264.975 68.756,267.975 68,274.5C 64.8141,280.717 61.1475,281.05 57,275.5C 56.0239,271.673 56.8572,268.34 59.5,265.5 Z"/></g>
<g><path style="opacity:1" fill="#f4dca7" d="M 422.5,279.5 C 431.361,279.884 434.861,284.551 433,293.5C 431.309,297.213 428.475,298.379 424.5,297C 418.695,291.726 418.028,285.893 422.5,279.5 Z"/></g>
<g><path style="opacity:1" fill="#282021" d="M 83.5,284.5 C 87.9869,284.161 91.4869,285.827 94,289.5C 94.6667,293.833 94.6667,298.167 94,302.5C 89.33,309.977 84.33,310.311 79,303.5C 78.3333,298.833 78.3333,294.167 79,289.5C 80.025,287.313 81.525,285.646 83.5,284.5 Z"/></g>
<g><path style="opacity:1" fill="#261f21" d="M 142.5,284.5 C 146.803,283.796 150.303,285.13 153,288.5C 153.667,293.5 153.667,298.5 153,303.5C 148.829,309.729 144.163,310.062 139,304.5C 138.333,299.167 138.333,293.833 139,288.5C 140.376,287.295 141.542,285.962 142.5,284.5 Z"/></g>
<g><path style="opacity:1" fill="#272021" d="M 202.5,284.5 C 207.28,283.641 210.78,285.308 213,289.5C 213.839,294.921 213.506,300.254 212,305.5C 206.05,310.244 201.383,309.244 198,302.5C 197.333,298.167 197.333,293.833 198,289.5C 199.025,287.313 200.525,285.646 202.5,284.5 Z"/></g>
<g><path style="opacity:1" fill="#272021" d="M 83.5,340.5 C 88.4206,340.043 91.9206,342.043 94,346.5C 94.6667,350.5 94.6667,354.5 94,358.5C 91.305,364.098 87.1383,365.598 81.5,363C 80.2986,362.097 79.4652,360.931 79,359.5C 78.3333,354.833 78.3333,350.167 79,345.5C 80.025,343.313 81.525,341.646 83.5,340.5 Z"/></g>
<g><path style="opacity:1" fill="#261f21" d="M 143.5,340.5 C 147.426,340.047 150.592,341.38 153,344.5C 153.667,349.833 153.667,355.167 153,360.5C 148.255,365.743 143.588,365.743 139,360.5C 138.333,355.167 138.333,349.833 139,344.5C 140.397,342.93 141.897,341.596 143.5,340.5 Z"/></g>
<g><path style="opacity:1" fill="#272021" d="M 202.5,340.5 C 207.023,340.18 210.523,341.846 213,345.5C 213.667,350.167 213.667,354.833 213,359.5C 209.911,364.305 205.744,365.472 200.5,363C 197.588,357.539 196.755,351.706 198,345.5C 199.707,343.963 201.207,342.296 202.5,340.5 Z"/></g>
<g><path style="opacity:1" fill="#fd5771" d="M 462.5,379.5 C 459.966,393.932 455.133,407.599 448,420.5C 445.845,427.455 443.845,434.455 442,441.5C 439.439,447.208 434.939,450.041 428.5,450C 409.623,469.862 386.956,483.529 360.5,491C 352.256,492.739 343.922,493.572 335.5,493.5C 307.199,487.598 283.699,473.598 265,451.5C 249.033,432.396 238.533,410.563 233.5,386C 233.99,383.497 235.323,381.497 237.5,380C 312.499,379.5 387.499,379.333 462.5,379.5 Z"/></g>
<g><path style="opacity:1" fill="#d84867" d="M 462.5,379.5 C 469.676,377.549 474.009,380.049 475.5,387C 464.059,437.771 434.059,472.438 385.5,491C 368.874,495.775 352.207,496.608 335.5,493.5C 343.922,493.572 352.256,492.739 360.5,491C 386.956,483.529 409.623,469.862 428.5,450C 434.939,450.041 439.439,447.208 442,441.5C 443.845,434.455 445.845,427.455 448,420.5C 455.133,407.599 459.966,393.932 462.5,379.5 Z"/></g>
<g><path style="opacity:1" fill="#292022" d="M 113.5,388.5 C 118.421,388.043 121.921,390.043 124,394.5C 124.667,398.5 124.667,402.5 124,406.5C 119.736,413.491 114.736,414.157 109,408.5C 108.333,403.5 108.333,398.5 109,393.5C 110.025,391.313 111.525,389.646 113.5,388.5 Z"/></g>
<g><path style="opacity:1" fill="#282022" d="M 173.5,388.5 C 177.888,387.943 181.055,389.61 183,393.5C 183.667,398.167 183.667,402.833 183,407.5C 179.841,412.721 175.674,413.721 170.5,410.5C 169.416,409.335 168.583,408.002 168,406.5C 167.333,402.5 167.333,398.5 168,394.5C 169.36,391.977 171.193,389.977 173.5,388.5 Z"/></g>
<g><path style="opacity:1" fill="#282022" d="M 271.5,395.5 C 276.742,394.271 280.575,395.937 283,400.5C 283.667,404.167 283.667,407.833 283,411.5C 280.983,416.924 277.15,418.758 271.5,417C 270.333,415.833 269.167,414.667 268,413.5C 267.333,408.833 267.333,404.167 268,399.5C 268.69,397.65 269.856,396.316 271.5,395.5 Z"/></g>
<g><path style="opacity:1" fill="#282022" d="M 324.5,395.5 C 329.742,394.271 333.575,395.937 336,400.5C 336.667,404.167 336.667,407.833 336,411.5C 333.983,416.924 330.15,418.758 324.5,417C 323.333,415.833 322.167,414.667 321,413.5C 320.333,408.833 320.333,404.167 321,399.5C 321.69,397.65 322.856,396.316 324.5,395.5 Z"/></g>
<g><path style="opacity:1" fill="#282022" d="M 377.5,395.5 C 382.742,394.271 386.575,395.937 389,400.5C 389.667,404.167 389.667,407.833 389,411.5C 386.983,416.924 383.15,418.758 377.5,417C 376.333,415.833 375.167,414.667 374,413.5C 373.333,408.833 373.333,404.167 374,399.5C 374.69,397.65 375.856,396.316 377.5,395.5 Z"/></g>
<g><path style="opacity:1" fill="#282022" d="M 430.5,395.5 C 435.742,394.271 439.575,395.937 442,400.5C 442.667,404.167 442.667,407.833 442,411.5C 439.983,416.924 436.15,418.758 430.5,417C 429.333,415.833 428.167,414.667 427,413.5C 426.333,408.833 426.333,404.167 427,399.5C 427.69,397.65 428.856,396.316 430.5,395.5 Z"/></g>
<g><path style="opacity:1" fill="#272021" d="M 298.5,437.5 C 303.152,436.984 306.652,438.651 309,442.5C 309.826,447.589 309.492,452.589 308,457.5C 302.035,462.175 297.368,461.175 294,454.5C 293.333,450.5 293.333,446.5 294,442.5C 295.059,440.341 296.559,438.674 298.5,437.5 Z"/></g>
<g><path style="opacity:1" fill="#272021" d="M 351.5,437.5 C 356.152,436.984 359.652,438.651 362,442.5C 362.826,447.589 362.492,452.589 361,457.5C 355.035,462.175 350.368,461.175 347,454.5C 346.333,450.5 346.333,446.5 347,442.5C 348.059,440.341 349.559,438.674 351.5,437.5 Z"/></g>
<g><path style="opacity:1" fill="#272021" d="M 404.5,437.5 C 409.152,436.984 412.652,438.651 415,442.5C 415.826,447.589 415.492,452.589 414,457.5C 408.035,462.175 403.368,461.175 400,454.5C 399.333,450.5 399.333,446.5 400,442.5C 401.059,440.341 402.559,438.674 404.5,437.5 Z"/></g>
</svg>
