<?xml version="1.0" encoding="UTF-8"?>
<!DOCTYPE svg PUBLIC "-//W3C//DTD SVG 1.1//EN" "http://www.w3.org/Graphics/SVG/1.1/DTD/svg11.dtd">
<svg xmlns="http://www.w3.org/2000/svg" version="1.1" width="512px" height="512px" style="shape-rendering:geometricPrecision; text-rendering:geometricPrecision; image-rendering:optimizeQuality; fill-rule:evenodd; clip-rule:evenodd" xmlns:xlink="http://www.w3.org/1999/xlink">
<g><path style="opacity:0.987" fill="#010000" d="M 316.5,-0.5 C 327.5,-0.5 338.5,-0.5 349.5,-0.5C 389.532,6.35862 423.365,24.6919 451,54.5C 477.372,88.7281 484.372,126.728 472,168.5C 468.335,180.833 463.502,192.666 457.5,204C 487.592,229.019 505.592,260.853 511.5,299.5C 511.5,310.833 511.5,322.167 511.5,333.5C 505.197,381.94 484.197,422.774 448.5,456C 412.797,484.101 372.13,496.434 326.5,493C 305.143,491.661 284.476,487.161 264.5,479.5C 241.921,495.959 216.921,506.626 189.5,511.5C 179.167,511.5 168.833,511.5 158.5,511.5C 128.531,506.182 102.198,493.349 79.5,473C 29.0864,427.128 16.4197,372.295 41.5,308.5C 18.829,287.486 4.829,261.82 -0.5,231.5C -0.5,220.5 -0.5,209.5 -0.5,198.5C 4.70495,164.423 17.8716,133.756 39,106.5C 61.5622,82.1335 89.3955,67.6335 122.5,63C 138.137,61.492 153.803,61.1587 169.5,62C 180.532,63.4519 191.532,64.7852 202.5,66C 227.606,36.6054 258.606,15.9388 295.5,4C 302.621,2.41113 309.621,0.911125 316.5,-0.5 Z"/></g>
<g><path style="opacity:1" fill="#a30052" d="M 317.5,19.5 C 366.738,17.374 407.238,35.0407 439,72.5C 456.871,98.0941 461.871,126.094 454,156.5C 451.599,165.37 448.599,174.036 445,182.5C 410.778,104.86 351.112,63.8604 266,59.5C 256.15,60.2071 246.317,60.7071 236.5,61C 259.557,39.4366 286.557,25.6032 317.5,19.5 Z"/></g>
<g><path style="opacity:1" fill="#a30052" d="M 257.5,127.5 C 263.026,127.179 268.36,127.512 273.5,128.5C 266.416,135.082 260.25,142.415 255,150.5C 255.307,162.138 260.807,165.638 271.5,161C 285.289,142.197 302.789,128.03 324,118.5C 324.772,118.645 325.439,118.978 326,119.5C 330.582,131.747 332.582,144.414 332,157.5C 336.876,164.625 342.543,165.291 349,159.5C 350.975,155.946 351.808,152.113 351.5,148C 350.992,135.802 348.659,123.969 344.5,112.5C 347.668,110.127 351.335,109.127 355.5,109.5C 357.371,109.859 358.871,110.859 360,112.5C 375.646,132.125 386.813,154.125 393.5,178.5C 393.043,179.298 392.376,179.631 391.5,179.5C 334.956,175.471 282.956,188.804 235.5,219.5C 213.04,187.33 203.54,151.663 207,112.5C 208.077,103.856 210.244,95.5231 213.5,87.5C 254.24,75.1778 294.24,77.1778 333.5,93.5C 320.998,97.752 308.998,103.085 297.5,109.5C 276.49,106.819 255.49,106.986 234.5,110C 227.754,114.539 226.754,120.206 231.5,127C 233.209,128.545 235.209,129.378 237.5,129.5C 244.105,128.175 250.772,127.509 257.5,127.5 Z"/></g>
<g><path style="opacity:1" fill="#7d0045" d="M 132.5,81.5 C 146.212,81.1155 159.879,81.6155 173.5,83C 101.344,127.14 68.177,191.64 74,276.5C 75.3979,287.49 77.5646,298.323 80.5,309C 80.1667,309.5 79.8333,310 79.5,310.5C 22.7611,274.953 6.26112,225.62 30,162.5C 47.8876,114.768 82.0542,87.7677 132.5,81.5 Z"/></g>
<g><path style="opacity:1" fill="#a30052" d="M 187.5,97.5 C 181.262,143.928 190.929,187.261 216.5,227.5C 170.638,244.526 132.471,272.193 102,310.5C 79.9385,233.361 99.1052,168.528 159.5,116C 168.727,109.561 178.06,103.395 187.5,97.5 Z"/></g>
<g><path style="opacity:1" fill="#7c0044" d="M 355.5,109.5 C 357.628,108.371 359.961,108.204 362.5,109C 390.45,128.106 410.783,153.273 423.5,184.5C 412.727,182.657 402.06,180.991 391.5,179.5C 392.376,179.631 393.043,179.298 393.5,178.5C 386.813,154.125 375.646,132.125 360,112.5C 358.871,110.859 357.371,109.859 355.5,109.5 Z"/></g>
<g><path style="opacity:1" fill="#610031" d="M 257.5,127.5 C 263.319,126.347 269.319,126.181 275.5,127C 274.956,127.717 274.289,128.217 273.5,128.5C 268.36,127.512 263.026,127.179 257.5,127.5 Z"/></g>
<g><path style="opacity:1" fill="#c50088" d="M 155.5,152.5 C 162.348,151.855 166.515,154.855 168,161.5C 168.761,191.471 157.928,216.304 135.5,236C 131.909,238.805 127.909,239.805 123.5,239C 120.619,237.749 118.786,235.583 118,232.5C 116.109,203.427 125.609,178.594 146.5,158C 149.596,156.128 152.596,154.295 155.5,152.5 Z"/></g>
<g><path style="opacity:1" fill="#a20051" d="M 398.5,200.5 C 401.725,223.64 400.891,246.64 396,269.5C 395.392,271.066 394.558,272.4 393.5,273.5C 370.08,250.948 342.747,234.781 311.5,225C 300.349,221.97 289.016,219.97 277.5,219C 316.048,201.136 356.381,194.969 398.5,200.5 Z"/></g>
<g><path style="opacity:1" fill="#7d0045" d="M 398.5,200.5 C 410.276,201.52 421.61,204.187 432.5,208.5C 439.508,235.951 440.341,263.617 435,291.5C 433.253,299.072 430.92,306.406 428,313.5C 417.412,299.41 405.912,286.076 393.5,273.5C 394.558,272.4 395.392,271.066 396,269.5C 400.891,246.64 401.725,223.64 398.5,200.5 Z"/></g>
<g><path style="opacity:1" fill="#7d0045" d="M 457.5,232.5 C 486.488,263.995 496.988,300.995 489,343.5C 481.678,381.656 463.845,413.823 435.5,440C 396.577,469.724 352.91,479.724 304.5,470C 296.709,468.469 289.042,466.469 281.5,464C 287.167,458.333 292.833,452.667 298.5,447C 363.362,433.792 410.529,397.626 440,338.5C 455.239,304.735 461.072,269.401 457.5,232.5 Z"/></g>
<g><path style="opacity:1" fill="#a30052" d="M 387.5,296.5 C 374.801,329.865 354.134,357.198 325.5,378.5C 328.868,369.895 331.535,361.062 333.5,352C 331.918,345.091 327.584,342.091 320.5,343C 318.376,344.122 316.543,345.622 315,347.5C 310.558,367.557 301.058,384.724 286.5,399C 284.557,400.555 282.39,401.722 280,402.5C 279.5,402.167 279,401.833 278.5,401.5C 263.223,372.104 256.389,340.771 258,307.5C 253.195,301.919 247.862,301.252 242,305.5C 240.133,307.808 239.133,310.475 239,313.5C 238.598,332.713 240.431,351.713 244.5,370.5C 240.039,369.944 235.706,368.777 231.5,367C 219.596,361.546 207.596,356.38 195.5,351.5C 187.853,353.114 185.02,357.78 187,365.5C 187.465,366.931 188.299,368.097 189.5,369C 208.953,380.151 229.619,388.151 251.5,393C 254.229,397.626 256.563,402.459 258.5,407.5C 258.119,408.931 257.119,409.764 255.5,410C 233.966,414.767 212.299,415.6 190.5,412.5C 154.876,394.876 128.21,368.21 110.5,332.5C 138.461,294.024 174.461,265.857 218.5,248C 269.101,230.79 315.768,238.123 358.5,270C 368.662,278.33 378.329,287.164 387.5,296.5 Z"/></g>
<g><path style="opacity:1" fill="#7e0045" d="M 387.5,296.5 C 399.628,308.254 409.961,321.421 418.5,336C 392.073,386.046 351.073,416.379 295.5,427C 294.025,424.691 292.358,422.524 290.5,420.5C 305.935,409.624 317.602,395.624 325.5,378.5C 354.134,357.198 374.801,329.865 387.5,296.5 Z"/></g>
<g><path style="opacity:1" fill="#a30052" d="M 250.5,449.5 C 255.5,450.167 260.5,450.833 265.5,451.5C 198.91,508.212 135.743,504.545 76,440.5C 48.3058,404.659 42.3058,365.326 58,322.5C 58.414,322.043 58.914,321.709 59.5,321.5C 69.7177,328.11 80.3844,333.943 91.5,339C 124.59,404.225 177.59,441.058 250.5,449.5 Z"/></g>
<g><path style="opacity:1" fill="#7b0044" d="M 258.5,407.5 C 262.711,415.061 267.378,422.394 272.5,429.5C 243.437,431.731 216.103,426.064 190.5,412.5C 212.299,415.6 233.966,414.767 255.5,410C 257.119,409.764 258.119,408.931 258.5,407.5 Z"/></g>
<g><path style="opacity:1" fill="#430022" d="M 250.5,449.5 C 255.875,449.172 261.208,449.505 266.5,450.5C 266.376,451.107 266.043,451.44 265.5,451.5C 260.5,450.833 255.5,450.167 250.5,449.5 Z"/></g>
</svg>
