<?xml version="1.0" encoding="UTF-8"?>
<!DOCTYPE svg PUBLIC "-//W3C//DTD SVG 1.1//EN" "http://www.w3.org/Graphics/SVG/1.1/DTD/svg11.dtd">
<svg xmlns="http://www.w3.org/2000/svg" version="1.1" width="512px" height="512px" style="shape-rendering:geometricPrecision; text-rendering:geometricPrecision; image-rendering:optimizeQuality; fill-rule:evenodd; clip-rule:evenodd" xmlns:xlink="http://www.w3.org/1999/xlink">
<g><path style="opacity:0.994" fill="#010100" d="M 144.5,7.5 C 220.861,7.0211 297.194,7.5211 373.5,9C 417.801,18.5636 448.301,44.397 465,86.5C 467.786,94.6431 469.786,102.976 471,111.5C 471.333,140.833 471.667,170.167 472,199.5C 488.333,203.833 498.667,214.167 503,230.5C 503.667,311.167 503.667,391.833 503,472.5C 498.833,488.667 488.667,498.833 472.5,503C 327.833,503.667 183.167,503.667 38.5,503C 22.3333,498.833 12.1667,488.667 8,472.5C 7.33333,391.833 7.33333,311.167 8,230.5C 12.1667,214.333 22.3333,204.167 38.5,200C 52.5,199.667 66.5,199.333 80.5,199C 47.798,178.956 34.298,149.789 40,111.5C 48.6348,61.7222 76.8015,28.5555 124.5,12C 131.259,10.2849 137.925,8.78494 144.5,7.5 Z"/></g>
<g><path style="opacity:1" fill="#b07845" d="M 146.5,23.5 C 152.176,23.3339 157.843,23.5006 163.5,24C 129.841,44.4439 110.008,74.2772 104,113.5C 99.9726,143.604 109.139,168.771 131.5,189C 142.723,195.348 151.89,203.848 159,214.5C 162.262,219.79 164.428,225.457 165.5,231.5C 150.143,230.643 135.31,232.976 121,238.5C 117.053,217.782 107.22,200.282 91.5,186C 63.5087,170.44 51.6754,146.607 56,114.5C 62.7484,74.1567 84.9151,45.9901 122.5,30C 130.459,27.1794 138.459,25.0127 146.5,23.5 Z"/></g>
<g><path style="opacity:1" fill="#b07845" d="M 210.5,23.5 C 216.176,23.3339 221.843,23.5006 227.5,24C 193.841,44.4439 174.008,74.2772 168,113.5C 163.973,143.604 173.139,168.771 195.5,189C 206.723,195.348 215.89,203.848 223,214.5C 226.262,219.79 228.428,225.457 229.5,231.5C 213.5,231.5 197.5,231.5 181.5,231.5C 178.584,213.075 169.917,197.909 155.5,186C 127.509,170.44 115.675,146.607 120,114.5C 126.748,74.1567 148.915,45.9901 186.5,30C 194.459,27.1794 202.459,25.0127 210.5,23.5 Z"/></g>
<g><path style="opacity:1" fill="#b07745" d="M 274.5,23.5 C 280.176,23.3339 285.843,23.5006 291.5,24C 257.841,44.4439 238.008,74.2772 232,113.5C 227.892,152.453 242.726,181.62 276.5,201C 289.531,213.757 295.697,229.257 295,247.5C 280.239,238.098 264.073,232.932 246.5,232C 242.909,213.484 233.909,198.15 219.5,186C 191.509,170.44 179.675,146.607 184,114.5C 190.748,74.1567 212.915,45.9901 250.5,30C 258.459,27.1794 266.459,25.0127 274.5,23.5 Z"/></g>
<g><path style="opacity:1" fill="#cb9b74" d="M 338.5,23.5 C 392.17,21.0745 429.337,44.4079 450,93.5C 451.538,98.448 452.872,103.448 454,108.5C 455.636,153.801 455.969,199.134 455,244.5C 447.5,281.333 425.333,303.5 388.5,311C 369.421,313.638 352.255,309.138 337,297.5C 331.571,284.292 323.904,272.626 314,262.5C 312.3,250.182 310.633,237.849 309,225.5C 304.543,209.712 296.043,196.546 283.5,186C 252.072,167.105 240.905,139.605 250,103.5C 259.795,68.7062 281.295,44.2062 314.5,30C 322.459,27.1794 330.459,25.0127 338.5,23.5 Z"/></g>
<g><path style="opacity:1" fill="#030201" d="M 339.5,39.5 C 393.414,37.9366 426.581,63.27 439,115.5C 439.969,160.866 439.636,206.199 438,251.5C 429.746,280.237 410.579,294.904 380.5,295.5C 355.57,295.389 338.737,283.722 330,260.5C 328.333,247.836 326.667,235.169 325,222.5C 317.66,196.836 302.493,177.336 279.5,164C 265.793,150.704 260.626,134.537 264,115.5C 272.68,73.6536 297.847,48.3203 339.5,39.5 Z"/></g>
<g><path style="opacity:1" fill="#fd816d" d="M 340.5,55.5 C 382.19,53.2471 409.357,71.9137 422,111.5C 423.641,156.796 423.974,202.129 423,247.5C 414.354,272.418 396.854,282.918 370.5,279C 357,274.833 348.167,266 344,252.5C 344.731,209.452 327.231,176.285 291.5,153C 282.458,145.885 278.458,136.551 279.5,125C 283.704,87.6318 304.037,64.4652 340.5,55.5 Z"/></g>
<g><path style="opacity:1" fill="#050201" d="M 351.5,71.5 C 376.49,72.7337 393.99,84.7337 404,107.5C 405.156,111.123 406.156,114.789 407,118.5C 407.5,126.827 407.666,135.16 407.5,143.5C 402.167,143.5 396.833,143.5 391.5,143.5C 393.833,128.605 391,114.939 383,102.5C 374.632,93.0665 364.132,88.0665 351.5,87.5C 351.5,82.1667 351.5,76.8333 351.5,71.5 Z"/></g>
<g><path style="opacity:1" fill="#020100" d="M 295.5,111.5 C 305.557,111.135 315.557,111.635 325.5,113C 328.244,113.803 330.911,114.803 333.5,116C 338.558,120.057 343.892,123.724 349.5,127C 358.16,127.5 366.827,127.666 375.5,127.5C 375.5,132.833 375.5,138.167 375.5,143.5C 366.161,143.666 356.827,143.5 347.5,143C 339.572,141.039 332.905,137.039 327.5,131C 325.5,130 323.5,129 321.5,128C 312.84,127.5 304.173,127.334 295.5,127.5C 295.5,122.167 295.5,116.833 295.5,111.5 Z"/></g>
<g><path style="opacity:1" fill="#000000" d="M 391.5,159.5 C 396.833,159.5 402.167,159.5 407.5,159.5C 407.5,164.833 407.5,170.167 407.5,175.5C 402.167,175.5 396.833,175.5 391.5,175.5C 391.5,170.167 391.5,164.833 391.5,159.5 Z"/></g>
<g><path style="opacity:1" fill="#050201" d="M 351.5,183.5 C 356.833,183.5 362.167,183.5 367.5,183.5C 368.026,189.218 370.193,194.218 374,198.5C 383.38,208.278 392.047,218.611 400,229.5C 404.838,237.512 407.338,246.179 407.5,255.5C 402.167,255.5 396.833,255.5 391.5,255.5C 391.363,248.213 389.196,241.547 385,235.5C 375.624,225.126 366.624,214.46 358,203.5C 354.124,197.371 351.957,190.705 351.5,183.5 Z"/></g>
<g><path style="opacity:1" fill="#cbd0d8" d="M 455.5,463.5 C 450.167,463.5 444.833,463.5 439.5,463.5C 439.5,460.833 439.5,458.167 439.5,455.5C 306.833,455.667 174.166,455.5 41.5,455C 33,451.833 27.1667,446 24,437.5C 23.3333,369.5 23.3333,301.5 24,233.5C 26.6887,226.143 31.522,220.643 38.5,217C 48.4303,215.87 58.4303,215.37 68.5,215.5C 77.5,215.667 86.5,215.833 95.5,216C 101.813,225.557 104.313,236.057 103,247.5C 67.5862,272.337 51.7528,306.504 55.5,350C 52.2808,379.024 61.2808,403.357 82.5,423C 100.17,437.084 120.17,442.084 142.5,438C 153.177,433.328 163.843,428.661 174.5,424C 190.833,423.333 207.167,423.333 223.5,424C 226.893,424.798 230.226,425.798 233.5,427C 261.96,444.549 289.626,443.216 316.5,423C 330.927,410.314 339.761,394.481 343,375.5C 343.555,356.813 343.555,338.146 343,319.5C 374.421,332.291 404.254,329.124 432.5,310C 461.8,286.323 475.133,255.49 472.5,217.5C 479.62,220.785 484.453,226.118 487,233.5C 487.667,301.5 487.667,369.5 487,437.5C 481.296,451.674 470.796,457.674 455.5,455.5C 455.5,458.167 455.5,460.833 455.5,463.5 Z"/></g>
<g><path style="opacity:1" fill="#fd816d" d="M 145.5,247.5 C 180.502,247.333 215.502,247.5 250.5,248C 290.551,254.383 315.718,277.216 326,316.5C 332.104,348.452 320.937,371.952 292.5,387C 274.285,394.678 257.285,392.678 241.5,381C 236.212,379.126 230.879,377.459 225.5,376C 207.833,375.333 190.167,375.333 172.5,376C 167.363,377.268 162.363,378.934 157.5,381C 136.933,394.928 116.266,394.928 95.5,381C 71.7958,360.538 65.2958,335.372 76,305.5C 89.0411,273.953 112.208,254.62 145.5,247.5 Z"/></g>
<g><path style="opacity:1" fill="#000000" d="M 199.5,263.5 C 204.833,263.5 210.167,263.5 215.5,263.5C 215.5,268.833 215.5,274.167 215.5,279.5C 210.167,279.5 204.833,279.5 199.5,279.5C 199.5,274.167 199.5,268.833 199.5,263.5 Z"/></g>
<g><path style="opacity:1" fill="#040201" d="M 231.5,263.5 C 257.275,261.812 278.775,270.478 296,289.5C 297.966,292.601 299.8,295.768 301.5,299C 297.623,302.194 293.456,305.027 289,307.5C 275.517,286.843 256.35,277.51 231.5,279.5C 231.5,274.167 231.5,268.833 231.5,263.5 Z"/></g>
<g><path style="opacity:1" fill="#010000" d="M 119.5,271.5 C 127.507,271.334 135.507,271.5 143.5,272C 154.212,275.044 161.379,281.877 165,292.5C 165.903,293.701 167.069,294.535 168.5,295C 178.828,295.5 189.161,295.666 199.5,295.5C 199.5,300.833 199.5,306.167 199.5,311.5C 187.438,311.915 175.438,311.415 163.5,310C 158.481,307.985 154.315,304.818 151,300.5C 149.576,296.207 147.409,292.374 144.5,289C 136.251,287.594 127.917,287.094 119.5,287.5C 119.5,282.167 119.5,276.833 119.5,271.5 Z"/></g>
<g><path style="opacity:1" fill="#050201" d="M 304.5,327.5 C 307.211,327.185 309.544,327.852 311.5,329.5C 312.006,351.483 302.006,366.316 281.5,374C 275.871,375.197 270.204,375.53 264.5,375C 255.219,369.86 245.552,365.527 235.5,362C 228.988,359.957 222.322,359.124 215.5,359.5C 215.5,354.167 215.5,348.833 215.5,343.5C 234.112,343.567 251.112,348.733 266.5,359C 286.399,358.766 296.066,348.6 295.5,328.5C 298.482,328.037 301.482,327.704 304.5,327.5 Z"/></g>
<g><path style="opacity:1" fill="#5d2f28" d="M 304.5,327.5 C 306.607,326.532 308.941,326.198 311.5,326.5C 311.5,327.5 311.5,328.5 311.5,329.5C 309.544,327.852 307.211,327.185 304.5,327.5 Z"/></g>
<g><path style="opacity:1" fill="#000000" d="M 183.5,343.5 C 188.833,343.5 194.167,343.5 199.5,343.5C 199.5,348.833 199.5,354.167 199.5,359.5C 194.167,359.5 188.833,359.5 183.5,359.5C 183.5,354.167 183.5,348.833 183.5,343.5 Z"/></g>
<g><path style="opacity:1" fill="#000000" d="M 455.5,359.5 C 460.833,359.5 466.167,359.5 471.5,359.5C 471.5,364.833 471.5,370.167 471.5,375.5C 466.167,375.5 460.833,375.5 455.5,375.5C 455.5,370.167 455.5,364.833 455.5,359.5 Z"/></g>
<g><path style="opacity:1" fill="#cb9b73" d="M 74.5,383.5 C 93.7963,403.653 117.13,410.82 144.5,405C 154.51,400.661 164.51,396.328 174.5,392C 190.833,391.333 207.167,391.333 223.5,392C 231.599,393.717 238.932,397.05 245.5,402C 275.565,412.57 301.732,406.403 324,383.5C 317.775,403.72 304.275,416.553 283.5,422C 267.967,425.949 253.967,422.949 241.5,413C 227.793,408.037 213.627,406.204 199,407.5C 190.167,407.667 181.333,407.833 172.5,408C 167.363,409.268 162.363,410.934 157.5,413C 134.286,427.987 111.953,426.654 90.5,409C 83.0057,401.842 77.6723,393.342 74.5,383.5 Z"/></g>
<g><path style="opacity:1" fill="#000000" d="M 455.5,391.5 C 460.833,391.5 466.167,391.5 471.5,391.5C 471.5,396.833 471.5,402.167 471.5,407.5C 466.167,407.5 460.833,407.5 455.5,407.5C 455.5,402.167 455.5,396.833 455.5,391.5 Z"/></g>
<g><path style="opacity:1" fill="#000000" d="M 455.5,423.5 C 460.833,423.5 466.167,423.5 471.5,423.5C 471.5,428.833 471.5,434.167 471.5,439.5C 466.167,439.5 460.833,439.5 455.5,439.5C 455.5,434.167 455.5,428.833 455.5,423.5 Z"/></g>
<g><path style="opacity:1" fill="#a9b1bc" d="M 439.5,463.5 C 444.833,463.5 450.167,463.5 455.5,463.5C 455.5,466.167 455.5,468.833 455.5,471.5C 467.051,472.813 477.551,470.147 487,463.5C 486.533,475.652 480.366,483.485 468.5,487C 326.167,487.667 183.833,487.667 41.5,487C 30.2013,483.059 24.368,475.225 24,463.5C 28.6925,466.929 33.8592,469.429 39.5,471C 172.833,471.5 306.166,471.667 439.5,471.5C 439.5,468.833 439.5,466.167 439.5,463.5 Z"/></g>
</svg>
