<?xml version="1.0" encoding="UTF-8"?>
<!DOCTYPE svg PUBLIC "-//W3C//DTD SVG 1.1//EN" "http://www.w3.org/Graphics/SVG/1.1/DTD/svg11.dtd">
<svg xmlns="http://www.w3.org/2000/svg" version="1.1" width="512px" height="512px" style="shape-rendering:geometricPrecision; text-rendering:geometricPrecision; image-rendering:optimizeQuality; fill-rule:evenodd; clip-rule:evenodd" xmlns:xlink="http://www.w3.org/1999/xlink">
<g><path style="opacity:0.969" fill="#010101" d="M 511.5,158.5 C 511.5,163.167 511.5,167.833 511.5,172.5C 505.598,188.363 499.765,204.363 494,220.5C 490.667,232.5 490.667,244.5 494,256.5C 499.765,272.637 505.598,288.637 511.5,304.5C 511.5,309.167 511.5,313.833 511.5,318.5C 505.964,330.436 496.631,335.269 483.5,333C 477.21,330.188 471.21,326.855 465.5,323C 462.146,320.11 461.146,316.61 462.5,312.5C 465.136,309.349 468.469,308.182 472.5,309C 477.881,312.69 483.548,315.857 489.5,318.5C 494.938,317.289 497.105,313.956 496,308.5C 489.799,291.565 483.799,274.565 478,257.5C 474.71,244.823 474.71,232.156 478,219.5C 483.803,202.424 489.803,185.424 496,168.5C 496.053,159.27 491.886,156.77 483.5,161C 461.5,175 439.5,189 417.5,203C 428.34,212.345 433.006,224.178 431.5,238.5C 432.97,252.809 428.304,264.643 417.5,274C 426.833,280 436.167,286 445.5,292C 447.744,295.303 448.077,298.803 446.5,302.5C 443.796,305.303 440.463,306.137 436.5,305C 423.833,297 411.167,289 398.5,281C 395.574,281.065 392.574,281.232 389.5,281.5C 386.713,281.574 384.213,282.24 382,283.5C 380.07,296.753 379.07,310.086 379,323.5C 378.167,325.667 376.667,327.167 374.5,328C 346.998,333.999 321.664,329.165 298.5,313.5C 274.115,323.596 248.782,329.93 222.5,332.5C 225.202,343.004 226.036,353.671 225,364.5C 221.047,380.403 210.88,387.237 194.5,385C 178.661,381.582 164.994,374.249 153.5,363C 141.997,353.007 132.997,341.174 126.5,327.5C 79.1468,316.749 38.9801,293.749 6,258.5C 3.09834,254.8 0.931677,250.8 -0.5,246.5C -0.5,241.167 -0.5,235.833 -0.5,230.5C 1.4539,225.935 3.9539,221.602 7,217.5C 38.8669,184.809 77.0336,162.809 121.5,151.5C 125.547,151.18 128.214,152.847 129.5,156.5C 129.846,159.602 129.179,162.435 127.5,165C 116.631,168.067 105.964,171.734 95.5,176C 105.333,187.833 115.167,199.667 125,211.5C 136.236,229.413 136.236,247.413 125,265.5C 115.167,277.333 105.333,289.167 95.5,301C 120.996,311.9 147.662,317.566 175.5,318C 204.128,319.895 232.128,317.061 259.5,309.5C 269.334,307.39 279,304.557 288.5,301C 302.292,294.271 315.958,287.271 329.5,280C 352.483,270.255 376.483,265.255 401.5,265C 409,262.833 413.833,258 416,250.5C 416.913,241.424 416.58,232.424 415,223.5C 412.833,218.667 409.333,215.167 404.5,213C 379.261,212.405 354.928,207.405 331.5,198C 290.13,172.573 245.13,159.406 196.5,158.5C 183.437,158.097 170.437,158.764 157.5,160.5C 153.01,160.003 150.01,157.669 148.5,153.5C 148.642,150.383 149.976,147.883 152.5,146C 187.569,141.591 222.403,143.091 257,150.5C 291.646,127.306 329.48,120.139 370.5,129C 372.286,129.785 373.786,130.951 375,132.5C 375.364,153.598 376.864,174.598 379.5,195.5C 385.869,195.575 392.202,195.742 398.5,196C 426.59,178.238 454.923,160.905 483.5,144C 496.631,141.731 505.964,146.564 511.5,158.5 Z"/></g>
<g><path style="opacity:1" fill="#697b8b" d="M 342.5,141.5 C 330.767,149.234 321.433,159.234 314.5,171.5C 302.388,165.776 290.054,160.61 277.5,156C 297.841,145.232 319.507,140.398 342.5,141.5 Z"/></g>
<g><path style="opacity:1" fill="#8494a3" d="M 342.5,141.5 C 348.523,141.502 354.523,141.835 360.5,142.5C 360.363,159.243 361.363,175.909 363.5,192.5C 345.797,188.476 329.464,181.476 314.5,171.5C 321.433,159.234 330.767,149.234 342.5,141.5 Z"/></g>
<g><path style="opacity:1" fill="#28cc68" d="M 148.5,153.5 C 150.01,157.669 153.01,160.003 157.5,160.5C 170.437,158.764 183.437,158.097 196.5,158.5C 182.906,179.727 178.906,202.727 184.5,227.5C 174.886,231.617 167.719,238.283 163,247.5C 161.663,253.813 162.996,259.48 167,264.5C 179.896,276.701 195.063,284.868 212.5,289C 218.813,290.385 225.146,291.552 231.5,292.5C 240.2,299.185 249.533,304.851 259.5,309.5C 232.128,317.061 204.128,319.895 175.5,318C 147.662,317.566 120.996,311.9 95.5,301C 105.333,289.167 115.167,277.333 125,265.5C 136.236,247.413 136.236,229.413 125,211.5C 115.167,199.667 105.333,187.833 95.5,176C 105.964,171.734 116.631,168.067 127.5,165C 129.179,162.435 129.846,159.602 129.5,156.5C 135.852,155.608 142.185,154.608 148.5,153.5 Z"/></g>
<g><path style="opacity:1" fill="#72d88b" d="M 196.5,158.5 C 245.13,159.406 290.13,172.573 331.5,198C 354.928,207.405 379.261,212.405 404.5,213C 409.333,215.167 412.833,218.667 415,223.5C 416.58,232.424 416.913,241.424 416,250.5C 413.833,258 409,262.833 401.5,265C 376.483,265.255 352.483,270.255 329.5,280C 315.958,287.271 302.292,294.271 288.5,301C 279,304.557 269.334,307.39 259.5,309.5C 249.533,304.851 240.2,299.185 231.5,292.5C 241.813,292.342 250.813,288.842 258.5,282C 270.03,272.152 277.863,259.985 282,245.5C 283.828,230.655 277.661,220.822 263.5,216C 245,210.992 226.666,211.658 208.5,218C 200.138,220.351 192.138,223.518 184.5,227.5C 178.906,202.727 182.906,179.727 196.5,158.5 Z"/></g>
<g><path style="opacity:0.999" fill="#8596a4" d="M 462.5,312.5 C 457.455,308.805 452.122,305.472 446.5,302.5C 448.077,298.803 447.744,295.303 445.5,292C 436.167,286 426.833,280 417.5,274C 428.304,264.643 432.97,252.809 431.5,238.5C 433.006,224.178 428.34,212.345 417.5,203C 439.5,189 461.5,175 483.5,161C 491.886,156.77 496.053,159.27 496,168.5C 489.803,185.424 483.803,202.424 478,219.5C 474.71,232.156 474.71,244.823 478,257.5C 483.799,274.565 489.799,291.565 496,308.5C 497.105,313.956 494.938,317.289 489.5,318.5C 483.548,315.857 477.881,312.69 472.5,309C 468.469,308.182 465.136,309.349 462.5,312.5 Z"/></g>
<g><path style="opacity:1" fill="#00bf3f" d="M 79.5,182.5 C 81.7157,183.203 83.549,184.536 85,186.5C 94.3333,197.833 103.667,209.167 113,220.5C 120.333,232.5 120.333,244.5 113,256.5C 103.667,267.833 94.3333,279.167 85,290.5C 83.6106,292.227 81.9439,293.561 80,294.5C 54.2309,282.731 32.5643,265.731 15,243.5C 13.4749,236.886 15.1415,231.22 20,226.5C 37.6753,208.763 57.5087,194.096 79.5,182.5 Z"/></g>
<g><path style="opacity:1" fill="#020402" d="M 231.5,292.5 C 225.146,291.552 218.813,290.385 212.5,289C 195.063,284.868 179.896,276.701 167,264.5C 162.996,259.48 161.663,253.813 163,247.5C 167.719,238.283 174.886,231.617 184.5,227.5C 192.138,223.518 200.138,220.351 208.5,218C 226.666,211.658 245,210.992 263.5,216C 277.661,220.822 283.828,230.655 282,245.5C 277.863,259.985 270.03,272.152 258.5,282C 250.813,288.842 241.813,292.342 231.5,292.5 Z"/></g>
<g><path style="opacity:1" fill="#8495a4" d="M 245.5,272.5 C 230.493,267.659 220.66,257.659 216,242.5C 215.245,238.745 215.411,235.078 216.5,231.5C 232.981,225.578 249.148,226.245 265,233.5C 268.112,239.043 268.112,244.71 265,250.5C 260.412,259.585 253.912,266.918 245.5,272.5 Z"/></g>
<g><path style="opacity:1" fill="#697b8c" d="M 216.5,231.5 C 215.411,235.078 215.245,238.745 216,242.5C 220.66,257.659 230.493,267.659 245.5,272.5C 242.119,275.934 237.953,277.601 233,277.5C 212.655,275.615 194.655,268.282 179,255.5C 177.813,253.956 177.48,252.289 178,250.5C 189.116,240.841 201.95,234.507 216.5,231.5 Z"/></g>
<g><path style="opacity:1" fill="#8394a3" d="M 364.5,299.5 C 363.681,302.305 363.181,305.305 363,308.5C 356.461,303.144 351.295,296.81 347.5,289.5C 353.061,286.607 359.061,284.941 365.5,284.5C 364.836,289.473 364.503,294.473 364.5,299.5 Z"/></g>
<g><path style="opacity:1" fill="#697a8b" d="M 347.5,289.5 C 351.295,296.81 356.461,303.144 363,308.5C 363.181,305.305 363.681,302.305 364.5,299.5C 364.5,304.5 364.5,309.5 364.5,314.5C 346.657,317.019 329.99,313.853 314.5,305C 324.747,298.209 335.747,293.043 347.5,289.5 Z"/></g>
<g><path style="opacity:1" fill="#697b8b" d="M 146.5,330.5 C 166.41,332.914 186.41,333.914 206.5,333.5C 217.56,370.95 206.56,379.45 173.5,359C 168,354.167 162.5,349.333 157,344.5C 152.874,340.22 149.374,335.554 146.5,330.5 Z"/></g>
</svg>
