<?xml version="1.0" encoding="UTF-8"?>
<!DOCTYPE svg PUBLIC "-//W3C//DTD SVG 1.1//EN" "http://www.w3.org/Graphics/SVG/1.1/DTD/svg11.dtd">
<svg xmlns="http://www.w3.org/2000/svg" version="1.1" width="512px" height="512px" style="shape-rendering:geometricPrecision; text-rendering:geometricPrecision; image-rendering:optimizeQuality; fill-rule:evenodd; clip-rule:evenodd" xmlns:xlink="http://www.w3.org/1999/xlink">
<g><path style="opacity:0.984" fill="#020101" d="M 359.5,73.5 C 357.502,78.7526 353.669,81.086 348,80.5C 322.167,74.5557 296,72.0557 269.5,73C 251.944,74.2015 236.777,80.7015 224,92.5C 220.584,96.8308 218.084,101.664 216.5,107C 218.417,110.806 221.417,113.473 225.5,115C 311.23,142.91 397.064,170.41 483,197.5C 485.981,197.919 488.314,196.919 490,194.5C 491.901,187.477 491.901,180.477 490,173.5C 483.243,157.738 473.077,144.572 459.5,134C 447.349,124.419 434.349,116.086 420.5,109C 415.64,105.162 414.307,100.328 416.5,94.5C 419.415,90.3586 423.415,88.8586 428.5,90C 455.723,103.024 478.89,121.191 498,144.5C 504.162,153.485 508.662,163.152 511.5,173.5C 511.5,180.5 511.5,187.5 511.5,194.5C 510.269,197.687 509.103,201.02 508,204.5C 505.606,207.385 503.439,210.385 501.5,213.5C 507.485,231.546 502.818,246.212 487.5,257.5C 489.437,268.538 486.937,278.538 480,287.5C 467.117,302.194 450.951,311.027 431.5,314C 401.722,318.475 372.055,317.642 342.5,311.5C 340.448,311.616 339.115,312.616 338.5,314.5C 350.095,329.573 350.428,344.906 339.5,360.5C 345.51,375.317 344.343,389.65 336,403.5C 323.838,420.344 308.004,432.51 288.5,440C 242.952,456.692 195.952,463.025 147.5,459C 116.73,457.248 87.3967,449.915 59.5,437C 42.3889,428.889 29.5555,416.389 21,399.5C 16.6492,389.315 15.4825,378.815 17.5,368C 8.6869,363.034 2.6869,355.868 -0.5,346.5C -0.5,340.833 -0.5,335.167 -0.5,329.5C 2.64105,320.409 8.30771,313.242 16.5,308C 13.7382,294.458 15.9049,281.624 23,269.5C 36.4198,251.197 53.9198,238.363 75.5,231C 108.953,220.192 143.286,214.692 178.5,214.5C 172.743,201.197 171.577,187.531 175,173.5C 175.739,169.938 177.239,166.772 179.5,164C 168.011,150.986 166.511,136.819 175,121.5C 180.317,114.339 187.317,109.673 196,107.5C 200.275,86.4574 212.108,71.2907 231.5,62C 255.373,52.9467 280.04,49.9467 305.5,53C 321.365,54.5063 337.031,57.1729 352.5,61C 358.322,63.1386 360.655,67.3053 359.5,73.5 Z"/></g>
<g><path style="opacity:0.95" fill="#020200" d="M 398.5,86.5 C 391.855,95.6772 385.355,95.6772 379,86.5C 378.503,84.1902 378.337,81.8568 378.5,79.5C 380.522,75.0647 384.022,72.7314 389,72.5C 396.285,74.297 399.452,78.9637 398.5,86.5 Z"/></g>
<g><path style="opacity:0.999" fill="#c9e357" d="M 359.5,73.5 C 365.972,75.1018 372.305,77.1018 378.5,79.5C 378.337,81.8568 378.503,84.1902 379,86.5C 385.355,95.6772 391.855,95.6772 398.5,86.5C 404.196,89.6776 410.196,92.3443 416.5,94.5C 414.307,100.328 415.64,105.162 420.5,109C 434.349,116.086 447.349,124.419 459.5,134C 473.077,144.572 483.243,157.738 490,173.5C 491.901,180.477 491.901,187.477 490,194.5C 488.314,196.919 485.981,197.919 483,197.5C 397.064,170.41 311.23,142.91 225.5,115C 221.417,113.473 218.417,110.806 216.5,107C 218.084,101.664 220.584,96.8308 224,92.5C 236.777,80.7015 251.944,74.2015 269.5,73C 296,72.0557 322.167,74.5557 348,80.5C 353.669,81.086 357.502,78.7526 359.5,73.5 Z"/></g>
<g><path style="opacity:1" fill="#fce3be" d="M 196.5,128.5 C 199.187,128.336 201.854,128.503 204.5,129C 295.856,158.671 387.19,188.337 478.5,218C 480.667,218.833 482.167,220.333 483,222.5C 485.385,231.771 482.051,237.437 473,239.5C 466.376,237.677 459.709,236.011 453,234.5C 451.833,234.667 450.667,234.833 449.5,235C 446.5,237.333 443.5,239.667 440.5,242C 433.363,244.004 427.53,242.171 423,236.5C 414.861,220.317 401.694,213.817 383.5,217C 379.268,218.95 374.934,220.617 370.5,222C 368.167,222.667 365.833,222.667 363.5,222C 356.945,218.445 352.112,213.279 349,206.5C 337.232,194.35 323.732,192.184 308.5,200C 300.819,202.001 294.319,200.167 289,194.5C 277.654,173.161 260.82,167.328 238.5,177C 233.007,178.358 228.173,177.191 224,173.5C 221.906,168.277 219.74,163.11 217.5,158C 208.788,154.878 200.288,151.378 192,147.5C 188.06,139.829 189.56,133.496 196.5,128.5 Z"/></g>
<g><path style="opacity:1" fill="#c9e357" d="M 198.5,173.5 C 199.978,173.238 201.311,173.571 202.5,174.5C 209.209,191.19 221.543,198.69 239.5,197C 244.021,196.271 248.354,194.937 252.5,193C 258.606,191.413 263.772,192.913 268,197.5C 280.804,220.766 299.304,226.599 323.5,215C 327.421,214.041 330.588,215.208 333,218.5C 345.307,241.027 363.14,247.194 386.5,237C 392.052,235.804 397.219,236.637 402,239.5C 414.806,263.656 433.14,268.99 457,255.5C 461.606,256.367 465.273,258.701 468,262.5C 467.866,266.797 466.533,270.797 464,274.5C 455.581,284.129 445.081,290.296 432.5,293C 395.334,298.983 358.668,296.65 322.5,286C 285.444,276.304 251.778,259.97 221.5,237C 211.778,228.956 203.945,219.456 198,208.5C 193.035,197.704 192.369,186.704 196,175.5C 196.995,174.934 197.828,174.267 198.5,173.5 Z"/></g>
<g><path style="opacity:1" fill="#fd6876" d="M 144.5,236.5 C 160.837,236.333 177.17,236.5 193.5,237C 207.444,251.621 223.11,263.954 240.5,274C 264.944,287.389 290.61,297.722 317.5,305C 225.307,306.664 132.974,306.997 40.5,306C 38.714,305.215 37.214,304.049 36,302.5C 34.8597,292.918 37.1931,284.251 43,276.5C 58.2301,260.462 76.7301,249.962 98.5,245C 113.794,241.176 129.128,238.342 144.5,236.5 Z"/></g>
<g><path style="opacity:1" fill="#f6a0a8" d="M 25.5,326.5 C 123.834,326.333 222.167,326.5 320.5,327C 329.732,334.296 329.732,341.63 320.5,349C 313.5,349.333 306.5,349.667 299.5,350C 295.521,353.648 291.855,357.648 288.5,362C 283.137,365.246 277.803,365.246 272.5,362C 254.294,345.123 236.294,345.457 218.5,363C 212.472,366.265 206.472,366.265 200.5,363C 193.63,355.482 185.13,351.315 175,350.5C 171.742,350.493 168.575,350.993 165.5,352C 159.156,355.504 153.156,359.504 147.5,364C 143.594,365.434 139.594,365.767 135.5,365C 129.658,361.246 123.991,357.246 118.5,353C 110.363,349.486 102.029,348.819 93.5,351C 87.4712,353.679 82.1379,357.346 77.5,362C 66.7378,366.625 59.0711,363.458 54.5,352.5C 53.3349,351.416 52.0016,350.583 50.5,350C 41.7316,349.942 33.065,349.275 24.5,348C 17.6492,340.493 17.9825,333.326 25.5,326.5 Z"/></g>
<g><path style="opacity:1" fill="#fd6876" d="M 99.5,369.5 C 102.941,369.301 106.274,369.801 109.5,371C 130.137,390.286 150.803,390.286 171.5,371C 174.634,370.21 177.634,370.543 180.5,372C 199.808,389.822 219.142,389.822 238.5,372C 243.041,369.301 247.708,368.968 252.5,371C 271.575,389.315 290.242,388.982 308.5,370C 323.009,368.194 327.176,374.027 321,387.5C 315.217,398.283 307.051,406.783 296.5,413C 268.49,427.087 238.824,435.42 207.5,438C 165.911,442.841 125.244,438.841 85.5,426C 68.9976,420.679 55.1643,411.512 44,398.5C 38.8107,390.936 36.4773,382.603 37,373.5C 38.1851,371.156 40.0185,370.323 42.5,371C 56.1561,386.245 71.8228,388.579 89.5,378C 93.0247,375.302 96.3581,372.469 99.5,369.5 Z"/></g>
</svg>
