<?xml version="1.0" encoding="UTF-8"?>
<!DOCTYPE svg PUBLIC "-//W3C//DTD SVG 1.1//EN" "http://www.w3.org/Graphics/SVG/1.1/DTD/svg11.dtd">
<svg xmlns="http://www.w3.org/2000/svg" version="1.1" width="256px" height="256px" style="shape-rendering:geometricPrecision; text-rendering:geometricPrecision; image-rendering:optimizeQuality; fill-rule:evenodd; clip-rule:evenodd" xmlns:xlink="http://www.w3.org/1999/xlink">
<g><path style="opacity:0.983" fill="#010101" d="M 78.5,8.5 C 80.5273,8.33788 82.5273,8.50454 84.5,9C 86.0175,10.6851 87.6841,12.1851 89.5,13.5C 91.6909,10.9573 94.3575,9.29062 97.5,8.5C 100.642,9.29062 103.309,10.9573 105.5,13.5C 107.691,10.9573 110.358,9.29062 113.5,8.5C 116.642,9.29062 119.309,10.9573 121.5,13.5C 123.691,10.9573 126.358,9.29062 129.5,8.5C 132.642,9.29062 135.309,10.9573 137.5,13.5C 139.691,10.9573 142.358,9.29062 145.5,8.5C 148.642,9.29062 151.309,10.9573 153.5,13.5C 155.316,12.1851 156.983,10.6851 158.5,9C 160.5,8.33333 162.5,8.33333 164.5,9C 166.017,10.6851 167.684,12.1851 169.5,13.5C 171.691,10.9573 174.358,9.29062 177.5,8.5C 181.99,10.4699 185.823,13.4699 189,17.5C 189.298,24.3227 188.298,30.9894 186,37.5C 185.333,99.5 185.333,161.5 186,223.5C 188.483,228.599 189.483,233.932 189,239.5C 186.167,242.333 183.333,245.167 180.5,248C 178.5,248.667 176.5,248.667 174.5,248C 172.983,246.315 171.316,244.815 169.5,243.5C 167.309,246.043 164.642,247.709 161.5,248.5C 158.358,247.709 155.691,246.043 153.5,243.5C 151.309,246.043 148.642,247.709 145.5,248.5C 142.358,247.709 139.691,246.043 137.5,243.5C 135.309,246.043 132.642,247.709 129.5,248.5C 126.358,247.709 123.691,246.043 121.5,243.5C 119.309,246.043 116.642,247.709 113.5,248.5C 110.358,247.709 107.691,246.043 105.5,243.5C 103.309,246.043 100.642,247.709 97.5,248.5C 94.3575,247.709 91.6909,246.043 89.5,243.5C 87.3091,246.043 84.6425,247.709 81.5,248.5C 77.0102,246.53 73.1769,243.53 70,239.5C 69.5168,233.932 70.5168,228.599 73,223.5C 73.6667,161.5 73.6667,99.5 73,37.5C 70.702,30.9894 69.702,24.3227 70,17.5C 73.0379,14.6306 75.8712,11.6306 78.5,8.5 Z"/></g>
<g><path style="opacity:1" fill="#3296e6" d="M 80.5,18.5 C 83.4887,20.4836 86.4887,22.4836 89.5,24.5C 92.4241,22.9181 95.0908,20.9181 97.5,18.5C 99.9092,20.9181 102.576,22.9181 105.5,24.5C 108.424,22.9181 111.091,20.9181 113.5,18.5C 115.909,20.9181 118.576,22.9181 121.5,24.5C 124.424,22.9181 127.091,20.9181 129.5,18.5C 131.909,20.9181 134.576,22.9181 137.5,24.5C 140.424,22.9181 143.091,20.9181 145.5,18.5C 147.909,20.9181 150.576,22.9181 153.5,24.5C 156.424,22.9181 159.091,20.9181 161.5,18.5C 163.909,20.9181 166.576,22.9181 169.5,24.5C 172.424,22.9181 175.091,20.9181 177.5,18.5C 179.505,19.3372 180.505,20.8372 180.5,23C 179.75,26.1635 179.084,29.3301 178.5,32.5C 173.489,32.3341 168.489,32.5007 163.5,33C 160.833,35.3333 160.833,37.6667 163.5,40C 168.155,40.4992 172.821,40.6658 177.5,40.5C 177.667,91.5011 177.5,142.501 177,193.5C 167.238,184.537 155.738,179.204 142.5,177.5C 141.369,175.926 141.202,174.259 142,172.5C 145.082,169.341 147.416,165.675 149,161.5C 149.5,153.173 149.666,144.84 149.5,136.5C 162.018,136.495 166.851,130.495 164,118.5C 162.039,115.865 159.539,114.031 156.5,113C 138.833,112.333 121.167,112.333 103.5,113C 102.692,113.308 102.025,113.808 101.5,114.5C 98.0761,120.952 95.5761,127.619 94,134.5C 94.5,135 95,135.5 95.5,136C 100.155,136.499 104.821,136.666 109.5,136.5C 109.334,144.84 109.5,153.173 110,161.5C 111.513,165.681 113.846,169.348 117,172.5C 117.494,174.134 117.66,175.801 117.5,177.5C 103.862,178.904 92.0284,184.237 82,193.5C 81.5,142.501 81.3333,91.5011 81.5,40.5C 90.8333,40.5 100.167,40.5 109.5,40.5C 109.666,44.8461 109.499,49.1794 109,53.5C 99,60.8333 99,68.1667 109,75.5C 109.333,84.5 109.667,93.5 110,102.5C 111.466,104.325 113.299,104.825 115.5,104C 120.052,101.557 124.718,99.3904 129.5,97.5C 134.282,99.3904 138.948,101.557 143.5,104C 145.701,104.825 147.534,104.325 149,102.5C 149.333,93.5 149.667,84.5 150,75.5C 160,68.1667 160,60.8333 150,53.5C 149.172,49.1287 149.339,44.7953 150.5,40.5C 153.984,38.4005 154.318,35.9005 151.5,33C 127.836,32.5 104.169,32.3334 80.5,32.5C 79.9164,29.3301 79.2497,26.1635 78.5,23C 78.5186,21.167 79.1852,19.667 80.5,18.5 Z"/></g>
<g><path style="opacity:1" fill="#ea413e" d="M 117.5,40.5 C 125.5,40.5 133.5,40.5 141.5,40.5C 141.5,43.5 141.5,46.5 141.5,49.5C 133.493,48.205 125.493,48.205 117.5,49.5C 117.5,46.5 117.5,43.5 117.5,40.5 Z"/></g>
<g><path style="opacity:1" fill="#f5af30" d="M 121.5,56.5 C 130.665,55.4421 139.332,56.9421 147.5,61C 149.994,63.2436 149.994,65.5769 147.5,68C 137.92,72.7254 127.92,73.7254 117.5,71C 114.751,69.8773 112.251,68.3773 110,66.5C 109.333,65.1667 109.333,63.8333 110,62.5C 113.575,59.7976 117.408,57.7976 121.5,56.5 Z"/></g>
<g><path style="opacity:1" fill="#e8413e" d="M 117.5,79.5 C 125.493,80.795 133.493,80.795 141.5,79.5C 141.827,84.2137 141.493,88.8804 140.5,93.5C 136.947,91.5565 133.281,89.8898 129.5,88.5C 125.719,89.8898 122.053,91.5565 118.5,93.5C 117.507,88.8804 117.173,84.2137 117.5,79.5 Z"/></g>
<g><path style="opacity:1" fill="#fcb431" d="M 107.5,120.5 C 118.833,120.5 130.167,120.5 141.5,120.5C 141.292,122.92 141.626,125.253 142.5,127.5C 129.513,128.666 116.513,128.833 103.5,128C 104.973,125.552 106.307,123.052 107.5,120.5 Z"/></g>
<g><path style="opacity:1" fill="#dd9d2b" d="M 151.5,120.5 C 157.488,120.664 158.821,123.164 155.5,128C 149.403,128.147 148.07,125.647 151.5,120.5 Z"/></g>
<g><path style="opacity:1" fill="#3397e8" d="M 117.5,136.5 C 120.167,136.5 122.833,136.5 125.5,136.5C 125.5,141.833 125.5,147.167 125.5,152.5C 122.833,152.5 120.167,152.5 117.5,152.5C 117.5,147.167 117.5,141.833 117.5,136.5 Z"/></g>
<g><path style="opacity:1" fill="#3397e8" d="M 133.5,136.5 C 136.167,136.5 138.833,136.5 141.5,136.5C 141.5,141.833 141.5,147.167 141.5,152.5C 138.833,152.5 136.167,152.5 133.5,152.5C 133.5,147.167 133.5,141.833 133.5,136.5 Z"/></g>
<g><path style="opacity:1" fill="#e8edf1" d="M 118.5,160.5 C 125.863,160.169 133.197,160.503 140.5,161.5C 138.517,163.984 136.35,166.317 134,168.5C 133.5,184.497 133.333,200.497 133.5,216.5C 130.833,216.5 128.167,216.5 125.5,216.5C 125.667,200.497 125.5,184.497 125,168.5C 122.218,166.229 120.051,163.563 118.5,160.5 Z"/></g>
<g><path style="opacity:1" fill="#fcb331" d="M 105.5,220.5 C 102.833,220.5 100.167,220.5 97.5,220.5C 97.4894,218.983 96.8228,217.816 95.5,217C 90.8452,216.501 86.1785,216.334 81.5,216.5C 80.8008,208.063 83.8008,201.23 90.5,196C 98.6114,190.24 107.611,186.74 117.5,185.5C 117.5,195.833 117.5,206.167 117.5,216.5C 114.15,216.335 110.817,216.502 107.5,217C 106.177,217.816 105.511,218.983 105.5,220.5 Z"/></g>
<g><path style="opacity:1" fill="#fcb431" d="M 141.5,185.5 C 151.394,186.783 160.394,190.283 168.5,196C 175.199,201.23 178.199,208.063 177.5,216.5C 165.5,216.5 153.5,216.5 141.5,216.5C 141.5,206.167 141.5,195.833 141.5,185.5 Z"/></g>
<g><path style="opacity:1" fill="#3294e3" d="M 97.5,220.5 C 100.167,220.5 102.833,220.5 105.5,220.5C 105.511,222.017 106.177,223.184 107.5,224C 130.84,224.167 154.174,224.667 177.5,225.5C 178.699,228.432 179.699,231.432 180.5,234.5C 180.272,236.397 179.272,237.73 177.5,238.5C 175.091,236.082 172.424,234.082 169.5,232.5C 166.576,234.082 163.909,236.082 161.5,238.5C 159.091,236.082 156.424,234.082 153.5,232.5C 150.576,234.082 147.909,236.082 145.5,238.5C 143.091,236.082 140.424,234.082 137.5,232.5C 134.576,234.082 131.909,236.082 129.5,238.5C 127.091,236.082 124.424,234.082 121.5,232.5C 118.576,234.082 115.909,236.082 113.5,238.5C 111.091,236.082 108.424,234.082 105.5,232.5C 102.576,234.082 99.9092,236.082 97.5,238.5C 95.0908,236.082 92.4241,234.082 89.5,232.5C 86.5759,234.082 83.9092,236.082 81.5,238.5C 79.7282,237.73 78.7282,236.397 78.5,234.5C 79.3005,231.432 80.3005,228.432 81.5,225.5C 86.1315,224.672 90.7982,224.172 95.5,224C 96.8228,223.184 97.4894,222.017 97.5,220.5 Z"/></g>
</svg>
