<?xml version="1.0" encoding="UTF-8"?>
<!DOCTYPE svg PUBLIC "-//W3C//DTD SVG 1.1//EN" "http://www.w3.org/Graphics/SVG/1.1/DTD/svg11.dtd">
<svg xmlns="http://www.w3.org/2000/svg" version="1.1" width="512px" height="512px" style="shape-rendering:geometricPrecision; text-rendering:geometricPrecision; image-rendering:optimizeQuality; fill-rule:evenodd; clip-rule:evenodd" xmlns:xlink="http://www.w3.org/1999/xlink">
<g><path style="opacity:0.975" fill="#020201" d="M 511.5,177.5 C 511.5,184.5 511.5,191.5 511.5,198.5C 505.675,221.656 491.009,235.656 467.5,240.5C 462.324,268.215 456.824,295.881 451,323.5C 445.495,343.004 432.662,353.837 412.5,356C 382.5,356.333 352.5,356.667 322.5,357C 314.013,368.747 302.68,376.247 288.5,379.5C 287.808,380.025 287.308,380.692 287,381.5C 281.256,410.222 275.256,438.889 269,467.5C 263.254,480.915 253.42,489.748 239.5,494C 192.199,495.637 144.865,495.97 97.5,495C 77.8824,492.383 65.3824,481.549 60,462.5C 54.1763,434.881 48.6763,407.215 43.5,379.5C 19.9914,374.656 5.32473,360.656 -0.5,337.5C -0.5,330.5 -0.5,323.5 -0.5,316.5C 2.81383,303.551 9.4805,292.551 19.5,283.5C 28.6852,226.158 60.0185,186.325 113.5,164C 138.242,155.494 163.575,152.828 189.5,156C 193,152.5 196.5,149 200,145.5C 205.481,106.024 223.314,73.5244 253.5,48C 257.816,44.0354 262.483,43.5354 267.5,46.5C 268.908,50.2588 268.742,53.9255 267,57.5C 236.373,81.7449 219.039,113.412 215,152.5C 212.349,155.43 209.516,158.264 206.5,161C 226.483,167.486 244.483,177.319 260.5,190.5C 269.724,199.412 278.391,208.912 286.5,219C 308.199,230.547 326.532,226.547 341.5,207C 344.167,206.333 346.833,206.333 349.5,207C 355.899,215.739 364.232,221.739 374.5,225C 384.785,226.756 394.452,225.089 403.5,220C 408.52,215.978 413.186,211.644 417.5,207C 420.634,206.21 423.634,206.543 426.5,208C 439.16,225.139 455.493,229.805 475.5,222C 498.476,206.54 502.643,187.04 488,163.5C 483.86,160.272 480.194,156.605 477,152.5C 470.529,100.053 443.363,62.8859 395.5,41C 386.267,36.7752 376.6,34.2752 366.5,33.5C 348.884,30.5461 331.217,31.0461 313.5,35C 305.712,37.2072 298.046,39.7072 290.5,42.5C 287.689,42.026 285.355,40.6927 283.5,38.5C 281.78,31.6916 284.447,27.525 291.5,26C 345.671,6.92694 395.338,14.9269 440.5,50C 469.562,75.2834 486.729,107.117 492,145.5C 501.865,154.251 508.365,164.918 511.5,177.5 Z"/></g>
<g><path style="opacity:1" fill="#db7e65" d="M 366.5,33.5 C 338.269,45.4057 316.269,64.4057 300.5,90.5C 291.131,78.5898 279.798,76.4232 266.5,84C 257.599,92.968 256.099,103.135 262,114.5C 267.621,122.06 275.121,125.394 284.5,124.5C 282.686,133.11 281.186,141.776 280,150.5C 266.28,160.274 259.78,173.607 260.5,190.5C 244.483,177.319 226.483,167.486 206.5,161C 209.516,158.264 212.349,155.43 215,152.5C 219.039,113.412 236.373,81.7449 267,57.5C 268.742,53.9255 268.908,50.2588 267.5,46.5C 272.588,43.4288 277.922,40.7622 283.5,38.5C 285.355,40.6927 287.689,42.026 290.5,42.5C 298.046,39.7072 305.712,37.2072 313.5,35C 331.217,31.0461 348.884,30.5461 366.5,33.5 Z"/></g>
<g><path style="opacity:1" fill="#e2917f" d="M 366.5,33.5 C 376.6,34.2752 386.267,36.7752 395.5,41C 443.363,62.8859 470.529,100.053 477,152.5C 480.194,156.605 483.86,160.272 488,163.5C 502.643,187.04 498.476,206.54 475.5,222C 455.493,229.805 439.16,225.139 426.5,208C 423.634,206.543 420.634,206.21 417.5,207C 413.186,211.644 408.52,215.978 403.5,220C 394.452,225.089 384.785,226.756 374.5,225C 364.232,221.739 355.899,215.739 349.5,207C 346.833,206.333 344.167,206.333 341.5,207C 326.532,226.547 308.199,230.547 286.5,219C 278.391,208.912 269.724,199.412 260.5,190.5C 259.78,173.607 266.28,160.274 280,150.5C 281.186,141.776 282.686,133.11 284.5,124.5C 301.172,118.478 306.506,107.145 300.5,90.5C 316.269,64.4057 338.269,45.4057 366.5,33.5 Z"/></g>
<g><path style="opacity:1" fill="#040302" d="M 300.5,90.5 C 306.506,107.145 301.172,118.478 284.5,124.5C 275.121,125.394 267.621,122.06 262,114.5C 256.099,103.135 257.599,92.968 266.5,84C 279.798,76.4232 291.131,78.5898 300.5,90.5 Z"/></g>
<g><path style="opacity:1" fill="#040302" d="M 395.5,79.5 C 415.351,77.8555 424.851,86.8555 424,106.5C 419.94,119.453 411.107,125.286 397.5,124C 384.22,119.613 378.387,110.447 380,96.5C 382.936,88.7339 388.102,83.0672 395.5,79.5 Z"/></g>
<g><path style="opacity:1" fill="#015a7a" d="M 277.5,94.5 C 285.113,93.6141 288.613,96.9474 288,104.5C 283.781,110.742 279.115,111.075 274,105.5C 272.663,100.872 273.83,97.2054 277.5,94.5 Z"/></g>
<g><path style="opacity:1" fill="#015b7a" d="M 398.5,94.5 C 404.766,93.1171 408.433,95.4504 409.5,101.5C 407.443,109.779 402.943,111.446 396,106.5C 393.511,101.757 394.345,97.7565 398.5,94.5 Z"/></g>
<g><path style="opacity:1" fill="#010101" d="M 347.5,127.5 C 360.916,125.289 370.416,130.289 376,142.5C 378.711,154.905 374.544,164.072 363.5,170C 350.401,174.362 340.568,170.529 334,158.5C 329.78,144.28 334.28,133.946 347.5,127.5 Z"/></g>
<g><path style="opacity:1" fill="#015c7b" d="M 350.5,142.5 C 361.818,141.99 364.485,146.49 358.5,156C 354.334,158.251 350.834,157.417 348,153.5C 346.812,149.259 347.645,145.592 350.5,142.5 Z"/></g>
<g><path style="opacity:1" fill="#db7e65" d="M 185.5,172.5 C 140.697,192.984 112.697,227.318 101.5,275.5C 95.1133,263.142 85.1133,258.642 71.5,262C 56.1715,271.207 53.3382,283.374 63,298.5C 68.9821,304.405 76.1487,306.738 84.5,305.5C 78.6056,317.288 78.1056,329.288 83,341.5C 83.66,343.324 84.8267,344.657 86.5,345.5C 72.6611,364.17 54.9945,369.003 33.5,360C 16.5889,348.212 11.0889,332.378 17,312.5C 19.0836,308.664 21.417,304.997 24,301.5C 28,298.833 31.3333,295.5 34,291.5C 40.3619,241.495 65.8619,204.995 110.5,182C 134.65,170.905 159.65,167.738 185.5,172.5 Z"/></g>
<g><path style="opacity:1" fill="#e2917f" d="M 185.5,172.5 C 224.893,179.079 255.393,199.079 277,232.5C 288.11,250.6 294.443,270.266 296,291.5C 299.946,295.446 303.946,299.446 308,303.5C 315.096,313.064 317.429,323.731 315,335.5C 306.024,360.072 288.858,368.905 263.5,362C 255.652,358.487 249.319,353.154 244.5,346C 241.833,345.333 239.167,345.333 236.5,346C 222.011,364.941 204.011,369.274 182.5,359C 177.833,355.667 173.833,351.667 170.5,347C 167.634,345.543 164.634,345.21 161.5,346C 156.336,353.244 149.669,358.577 141.5,362C 138.038,364.239 136.705,367.406 137.5,371.5C 130.826,372.783 124.159,372.783 117.5,371.5C 117.896,368.518 117.229,365.851 115.5,363.5C 107.205,360.044 100.539,354.544 95.5,347C 92.6492,345.711 89.6492,345.211 86.5,345.5C 84.8267,344.657 83.66,343.324 83,341.5C 78.1056,329.288 78.6056,317.288 84.5,305.5C 98.4227,300.333 104.089,290.333 101.5,275.5C 112.697,227.318 140.697,192.984 185.5,172.5 Z"/></g>
<g><path style="opacity:1" fill="#030202" d="M 153.5,200.5 C 172.207,200.042 181.374,209.042 181,227.5C 174.685,244.572 163.185,249.406 146.5,242C 135.886,233.303 133.719,222.803 140,210.5C 143.802,206.037 148.302,202.703 153.5,200.5 Z"/></g>
<g><path style="opacity:1" fill="#015c7b" d="M 156.5,215.5 C 163.657,215.155 166.824,218.488 166,225.5C 161.833,231.759 157.167,232.092 152,226.5C 150.393,221.438 151.893,217.772 156.5,215.5 Z"/></g>
<g><path style="opacity:1" fill="#10cdaf" d="M 448.5,257.5 C 438.354,254.841 429.854,249.508 423,241.5C 422.722,242.416 422.222,243.082 421.5,243.5C 422.223,238.16 423.057,232.827 424,227.5C 431.684,234.895 440.85,238.895 451.5,239.5C 450.909,245.594 449.909,251.594 448.5,257.5 Z"/></g>
<g><path style="opacity:1" fill="#1dcaad" d="M 337.5,340.5 C 337.667,309.832 337.5,279.165 337,248.5C 327.76,255.605 317.26,258.939 305.5,258.5C 303.043,252.484 300.376,246.484 297.5,240.5C 311.901,241.957 325.401,238.957 338,231.5C 338.831,268.002 338.664,304.336 337.5,340.5 Z"/></g>
<g><path style="opacity:1" fill="#10cfb0" d="M 404.5,257.5 C 404.657,256.127 404.49,254.793 404,253.5C 385.868,261.777 369.035,259.777 353.5,247.5C 353.334,242.156 353.501,236.823 354,231.5C 370.708,241.958 388.208,243.291 406.5,235.5C 406.833,236.5 407.167,237.5 407.5,238.5C 406.732,245.013 405.732,251.346 404.5,257.5 Z"/></g>
<g><path style="opacity:1" fill="#5cdfc2" d="M 448.5,257.5 C 443.859,280.207 439.025,302.873 434,325.5C 428.76,335.232 420.594,340.232 409.5,340.5C 411.165,328.522 412.331,316.522 413,304.5C 407.837,298.938 403.171,299.271 399,305.5C 397.826,316.893 396.326,328.226 394.5,339.5C 380.85,340.499 367.183,340.833 353.5,340.5C 353.5,309.5 353.5,278.5 353.5,247.5C 369.035,259.777 385.868,261.777 404,253.5C 404.49,254.793 404.657,256.127 404.5,257.5C 404.374,262.011 404.04,266.511 403.5,271C 403.438,279.64 407.438,282.307 415.5,279C 416.46,277.581 417.293,276.081 418,274.5C 418.757,264.111 419.924,253.777 421.5,243.5C 422.222,243.082 422.722,242.416 423,241.5C 429.854,249.508 438.354,254.841 448.5,257.5 Z"/></g>
<g><path style="opacity:1" fill="#030202" d="M 230.5,248.5 C 251.968,248.124 260.801,258.458 257,279.5C 250.56,291.43 240.727,295.597 227.5,292C 214.776,284.723 210.943,274.223 216,260.5C 219.541,254.78 224.374,250.78 230.5,248.5 Z"/></g>
<g><path style="opacity:1" fill="#5bdec1" d="M 337.5,340.5 C 334.833,340.5 332.167,340.5 329.5,340.5C 334.026,317.909 327.526,299.243 310,284.5C 308.82,275.779 307.32,267.112 305.5,258.5C 317.26,258.939 327.76,255.605 337,248.5C 337.5,279.165 337.667,309.832 337.5,340.5 Z"/></g>
<g><path style="opacity:1" fill="#040202" d="M 101.5,275.5 C 104.089,290.333 98.4227,300.333 84.5,305.5C 76.1487,306.738 68.9821,304.405 63,298.5C 53.3382,283.374 56.1715,271.207 71.5,262C 85.1133,258.642 95.1133,263.142 101.5,275.5 Z"/></g>
<g><path style="opacity:1" fill="#015b7b" d="M 232.5,263.5 C 240.656,262.821 244.156,266.488 243,274.5C 238.959,279.313 234.625,279.646 230,275.5C 227.696,270.855 228.529,266.855 232.5,263.5 Z"/></g>
<g><path style="opacity:1" fill="#015b7b" d="M 76.5,275.5 C 82.6295,274.555 86.2962,277.055 87.5,283C 86.2961,289.106 82.6294,291.439 76.5,290C 71.2138,285.169 71.2138,280.335 76.5,275.5 Z"/></g>
<g><path style="opacity:1" fill="#040202" d="M 138.5,275.5 C 160.862,276.011 169.362,287.011 164,308.5C 154.229,321.754 142.395,323.921 128.5,315C 116.401,297.812 119.734,284.645 138.5,275.5 Z"/></g>
<g><path style="opacity:1" fill="#015b7b" d="M 141.5,290.5 C 148.657,290.155 151.824,293.488 151,300.5C 146.833,306.759 142.167,307.092 137,301.5C 135.393,296.438 136.893,292.772 141.5,290.5 Z"/></g>
<g><path style="opacity:1" fill="#f9ca82" d="M 86.5,366.5 C 91.7287,403.987 96.7287,441.654 101.5,479.5C 90.421,479.254 82.2543,474.254 77,464.5C 70.0789,436.061 64.2455,407.395 59.5,378.5C 70.1229,377.966 79.1229,373.966 86.5,366.5 Z"/></g>
<g><path style="opacity:1" fill="#f9ca82" d="M 267.5,396.5 C 257.112,393.316 248.445,387.649 241.5,379.5C 241.33,375.355 241.997,371.355 243.5,367.5C 251.729,374.023 261.062,378.023 271.5,379.5C 270.163,385.187 268.83,390.854 267.5,396.5 Z"/></g>
<g><path style="opacity:1" fill="#facb83" d="M 157.5,386.5 C 146.112,395.902 133.112,399.236 118.5,396.5C 119.919,418.862 122.419,441.195 126,463.5C 128.255,469.684 131.755,475.018 136.5,479.5C 129.382,480.105 122.548,479.438 116,477.5C 112.326,444.105 108.159,410.771 103.5,377.5C 103.833,376.5 104.167,375.5 104.5,374.5C 109.843,377.699 114.176,376.699 117.5,371.5C 124.159,372.783 130.826,372.783 137.5,371.5C 138.928,374.091 141.095,375.758 144,376.5C 148.846,375.576 153.18,373.576 157,370.5C 157.499,375.823 157.666,381.156 157.5,386.5 Z"/></g>
<g><path style="opacity:1" fill="#f6c87f" d="M 224.5,392.5 C 206.656,400.389 189.823,398.722 174,387.5C 173.5,418.165 173.333,448.832 173.5,479.5C 172.336,443.336 172.169,407.002 173,370.5C 189.719,380.985 207.219,382.318 225.5,374.5C 226.489,380.58 226.156,386.58 224.5,392.5 Z"/></g>
<g><path style="opacity:1" fill="#fbdd75" d="M 241.5,379.5 C 248.445,387.649 257.112,393.316 267.5,396.5C 263.783,417.917 259.617,439.25 255,460.5C 250.589,472.422 242.089,478.755 229.5,479.5C 233.076,446.058 237.076,412.725 241.5,379.5 Z"/></g>
<g><path style="opacity:1" fill="#fee077" d="M 157.5,386.5 C 157.5,417.5 157.5,448.5 157.5,479.5C 150.5,479.5 143.5,479.5 136.5,479.5C 131.755,475.018 128.255,469.684 126,463.5C 122.419,441.195 119.919,418.862 118.5,396.5C 133.112,399.236 146.112,395.902 157.5,386.5 Z"/></g>
<g><path style="opacity:1" fill="#fee076" d="M 224.5,392.5 C 221.047,421.488 217.713,450.488 214.5,479.5C 200.833,479.5 187.167,479.5 173.5,479.5C 173.333,448.832 173.5,418.165 174,387.5C 189.823,398.722 206.656,400.389 224.5,392.5 Z"/></g>
</svg>
