<?xml version="1.0" encoding="UTF-8"?>
<!DOCTYPE svg PUBLIC "-//W3C//DTD SVG 1.1//EN" "http://www.w3.org/Graphics/SVG/1.1/DTD/svg11.dtd">
<svg xmlns="http://www.w3.org/2000/svg" version="1.1" width="512px" height="512px" style="shape-rendering:geometricPrecision; text-rendering:geometricPrecision; image-rendering:optimizeQuality; fill-rule:evenodd; clip-rule:evenodd" xmlns:xlink="http://www.w3.org/1999/xlink">
<g><path style="opacity:0.986" fill="#020101" d="M 511.5,127.5 C 511.5,165.5 511.5,203.5 511.5,241.5C 481.439,263.347 450.105,283.513 417.5,302C 403.738,308.882 389.738,315.215 375.5,321C 337.455,333.348 299.788,346.681 262.5,361C 250.01,367.078 237.677,373.411 225.5,380C 188.299,403.434 150.632,426.101 112.5,448C 106.167,450 99.8333,450 93.5,448C 58.0232,435.119 26.6899,415.952 -0.5,390.5C -0.5,348.833 -0.5,307.167 -0.5,265.5C 8.14447,246.887 19.3111,229.887 33,214.5C 53.0002,193.912 77.1669,180.746 105.5,175C 126.45,173.042 147.45,171.708 168.5,171C 187.204,169.575 204.871,164.575 221.5,156C 232.672,148.915 243.672,141.581 254.5,134C 267.488,127.507 280.155,120.507 292.5,113C 295.5,112.333 298.5,112.333 301.5,113C 303.324,113.66 304.657,114.827 305.5,116.5C 307.542,122.03 306.542,126.863 302.5,131C 289.662,138.587 276.662,145.92 263.5,153C 277.082,160.707 290.582,168.54 304,176.5C 307.039,187.464 302.872,192.298 291.5,191C 275.729,182.698 259.896,174.531 244,166.5C 222.996,180.614 199.829,188.78 174.5,191C 154.488,191.867 134.488,192.867 114.5,194C 75.4588,201.6 46.2921,222.767 27,257.5C 25.0863,260.298 24.0863,263.298 24,266.5C 49.5034,282.584 74.8367,298.917 100,315.5C 110.562,294.099 125.062,275.765 143.5,260.5C 132.082,253.707 120.582,247.04 109,240.5C 103.846,229.289 107.346,223.789 119.5,224C 134.294,231.966 148.961,240.133 163.5,248.5C 175.842,242.108 188.842,237.608 202.5,235C 221.806,233.738 241.139,232.738 260.5,232C 279.851,230.66 298.184,225.66 315.5,217C 325.5,210.333 335.5,203.667 345.5,197C 359.995,189.254 374.328,181.254 388.5,173C 403.492,162.502 418.825,152.502 434.5,143C 447.207,136.098 460.54,130.764 474.5,127C 451.331,112.583 428.331,97.9163 405.5,83C 391.991,84.49 378.824,87.6566 366,92.5C 361.34,91.7634 357.84,89.4301 355.5,85.5C 354.536,79.2615 356.869,74.7615 362.5,72C 377.75,66.4838 393.417,63.1505 409.5,62C 441.48,81.9688 473.48,101.969 505.5,122C 508.023,123.36 510.023,125.193 511.5,127.5 Z"/></g>
<g><path style="opacity:0.999" fill="#fdb7b5" d="M 305.5,116.5 C 310.585,112.744 315.918,109.411 321.5,106.5C 328.816,112.526 334.982,111.526 340,103.5C 340.495,100.469 340.329,97.4686 339.5,94.5C 344.833,91.5 350.167,88.5 355.5,85.5C 357.84,89.4301 361.34,91.7634 366,92.5C 378.824,87.6566 391.991,84.49 405.5,83C 428.331,97.9163 451.331,112.583 474.5,127C 460.54,130.764 447.207,136.098 434.5,143C 418.825,152.502 403.492,162.502 388.5,173C 374.328,181.254 359.995,189.254 345.5,197C 335.5,203.667 325.5,210.333 315.5,217C 298.184,225.66 279.851,230.66 260.5,232C 241.139,232.738 221.806,233.738 202.5,235C 188.842,237.608 175.842,242.108 163.5,248.5C 148.961,240.133 134.294,231.966 119.5,224C 107.346,223.789 103.846,229.289 109,240.5C 120.582,247.04 132.082,253.707 143.5,260.5C 125.062,275.765 110.562,294.099 100,315.5C 74.8367,298.917 49.5034,282.584 24,266.5C 24.0863,263.298 25.0863,260.298 27,257.5C 46.2921,222.767 75.4588,201.6 114.5,194C 134.488,192.867 154.488,191.867 174.5,191C 199.829,188.78 222.996,180.614 244,166.5C 259.896,174.531 275.729,182.698 291.5,191C 302.872,192.298 307.039,187.464 304,176.5C 290.582,168.54 277.082,160.707 263.5,153C 276.662,145.92 289.662,138.587 302.5,131C 306.542,126.863 307.542,122.03 305.5,116.5 Z"/></g>
<g><path style="opacity:0.945" fill="#060404" d="M 339.5,94.5 C 340.329,97.4686 340.495,100.469 340,103.5C 334.982,111.526 328.816,112.526 321.5,106.5C 318.672,100.311 320.006,95.1444 325.5,91C 330.907,89.6077 335.574,90.7744 339.5,94.5 Z"/></g>
<g><path style="opacity:1" fill="#fbfbfb" d="M 485.5,144.5 C 487.5,144.5 489.5,144.5 491.5,144.5C 491.5,154.167 491.5,163.833 491.5,173.5C 483.804,174.424 476.471,176.591 469.5,180C 458.167,186.333 446.833,192.667 435.5,199C 419.013,204.496 403.013,211.162 387.5,219C 370.07,230.798 352.903,242.965 336,255.5C 331.024,253.543 325.857,253.043 320.5,254C 296.228,269.468 270.228,281.135 242.5,289C 227.227,292.517 211.894,295.85 196.5,299C 184.206,302.98 172.54,308.314 161.5,315C 145.912,326.044 130.412,337.211 115,348.5C 114.333,342.5 114.333,336.5 115,330.5C 132.311,290.436 162.144,265.269 204.5,255C 209.489,254.251 214.489,253.585 219.5,253C 243.734,253.563 267.734,251.563 291.5,247C 303.014,244.385 314.014,240.385 324.5,235C 335.672,227.915 346.672,220.581 357.5,213C 386.167,198.342 413.5,181.675 439.5,163C 454.129,154.743 469.462,148.576 485.5,144.5 Z"/></g>
<g><path style="opacity:1" fill="#fc8d8c" d="M 116.5,422.5 C 115.503,406.008 115.17,389.342 115.5,372.5C 132.955,360.219 150.288,347.719 167.5,335C 188.109,321.462 210.775,313.462 235.5,311C 267.41,303.873 297.077,291.539 324.5,274C 328.362,274.001 332.195,274.501 336,275.5C 339.357,275.406 342.523,274.573 345.5,273C 363.891,259.61 382.557,246.61 401.5,234C 413.929,228.412 426.596,223.412 439.5,219C 453.326,211.921 466.992,204.588 480.5,197C 483.871,195.932 487.204,194.765 490.5,193.5C 491.666,206.154 491.833,218.82 491,231.5C 467.258,247.624 443.091,263.124 418.5,278C 403.545,286.098 388.212,293.431 372.5,300C 343.316,310.395 313.982,320.395 284.5,330C 260.629,338.768 237.629,349.435 215.5,362C 182.615,382.392 149.615,402.559 116.5,422.5 Z"/></g>
<g><path style="opacity:1" fill="#fbfbfb" d="M 94.5,335.5 C 94.8264,344.349 94.493,353.016 93.5,361.5C 85.0815,358.124 77.0815,353.958 69.5,349C 62.416,341.912 54.7493,335.578 46.5,330C 38.1261,324.81 29.1261,321.31 19.5,319.5C 19.3335,308.828 19.5002,298.161 20,287.5C 44.9831,303.4 69.8164,319.4 94.5,335.5 Z"/></g>
<g><path style="opacity:1" fill="#545454" d="M 94.5,335.5 C 95.8218,344.342 95.8218,353.342 94.5,362.5C 93.8933,362.376 93.56,362.043 93.5,361.5C 94.493,353.016 94.8264,344.349 94.5,335.5 Z"/></g>
<g><path style="opacity:1" fill="#fc8d8b" d="M 19.5,340.5 C 24.7926,341.432 29.7926,343.265 34.5,346C 44.1667,353.667 53.8333,361.333 63.5,369C 73.7446,374.039 83.9113,379.206 94,384.5C 94.6667,398.5 94.6667,412.5 94,426.5C 66.5666,415.795 41.9,400.795 20,381.5C 19.5001,367.837 19.3334,354.171 19.5,340.5 Z"/></g>
<g><path style="opacity:1" fill="#a75e5d" d="M 115.5,372.5 C 115.17,389.342 115.503,406.008 116.5,422.5C 116.44,423.043 116.107,423.376 115.5,423.5C 114.173,406.338 114.173,389.338 115.5,372.5 Z"/></g>
</svg>
