<?xml version="1.0" encoding="UTF-8"?>
<!DOCTYPE svg PUBLIC "-//W3C//DTD SVG 1.1//EN" "http://www.w3.org/Graphics/SVG/1.1/DTD/svg11.dtd">
<svg xmlns="http://www.w3.org/2000/svg" version="1.1" width="512px" height="512px" style="shape-rendering:geometricPrecision; text-rendering:geometricPrecision; image-rendering:optimizeQuality; fill-rule:evenodd; clip-rule:evenodd" xmlns:xlink="http://www.w3.org/1999/xlink">
<g><path style="opacity:0.987" fill="#020100" d="M 206.5,-0.5 C 282.5,-0.5 358.5,-0.5 434.5,-0.5C 450.027,4.19751 459.527,14.5308 463,30.5C 463.333,42.1667 463.667,53.8333 464,65.5C 474.333,86.1667 484.667,106.833 495,127.5C 499.089,136.767 501.755,146.434 503,156.5C 503.667,261.167 503.667,365.833 503,470.5C 498.956,492.039 486.456,505.706 465.5,511.5C 337.833,511.5 210.167,511.5 82.5,511.5C 39.8536,502.684 15.0203,476.684 8,433.5C 4.79716,413.071 12.2972,398.237 30.5,389C 34.6612,387.263 38.9945,386.263 43.5,386C 57.1667,372.333 70.8333,358.667 84.5,345C 87.9236,344.253 91.2569,344.42 94.5,345.5C 96.8074,349.066 96.9741,352.732 95,356.5C 85.1667,366.333 75.3333,376.167 65.5,386C 88.4976,386.5 111.498,386.667 134.5,386.5C 161.835,386.667 189.169,386.5 216.5,386C 202.965,372.298 189.299,358.798 175.5,345.5C 168.302,335.459 158.969,328.292 147.5,324C 139.3,322.463 131.634,323.797 124.5,328C 121.833,330 119.167,332 116.5,334C 113.228,334.788 110.228,334.288 107.5,332.5C 104.209,326.538 105.543,321.705 111.5,318C 119.169,312.165 127.836,308.999 137.5,308.5C 137.333,257.832 137.5,207.166 138,156.5C 139.245,146.434 141.911,136.767 146,127.5C 156.333,106.833 166.667,86.1667 177,65.5C 177.333,53.8333 177.667,42.1667 178,30.5C 181.473,14.5308 190.973,4.19751 206.5,-0.5 Z"/></g>
<g><path style="opacity:1" fill="#fdde60" d="M 315.5,14.5 C 310.903,18.9423 307.737,24.2756 306,30.5C 305.5,40.1609 305.334,49.8276 305.5,59.5C 267.833,59.5 230.167,59.5 192.5,59.5C 192.105,49.4343 192.605,39.4343 194,29.5C 196.899,22.2684 202.066,17.4351 209.5,15C 244.832,14.5 280.165,14.3333 315.5,14.5 Z"/></g>
<g><path style="opacity:1" fill="#feed6d" d="M 315.5,14.5 C 354.894,14.0177 394.228,14.5177 433.5,16C 440,18.5 444.5,23 447,29.5C 448.395,39.4343 448.895,49.4343 448.5,59.5C 400.833,59.5 353.167,59.5 305.5,59.5C 305.334,49.8276 305.5,40.1609 306,30.5C 307.737,24.2756 310.903,18.9423 315.5,14.5 Z"/></g>
<g><path style="opacity:1" fill="#fe6b51" d="M 301.5,74.5 C 290.742,95.6838 280.242,117.017 270,138.5C 267.715,144.638 266.548,150.972 266.5,157.5C 266.167,157.5 265.833,157.5 265.5,157.5C 228.5,157.5 191.5,157.5 154.5,157.5C 154.5,155.833 154.5,154.167 154.5,152.5C 155.082,146.919 156.582,141.586 159,136.5C 169.167,116.167 179.333,95.8333 189.5,75.5C 226.827,74.5001 264.161,74.1668 301.5,74.5 Z"/></g>
<g><path style="opacity:1" fill="#fe876f" d="M 301.5,74.5 C 351.504,74.1667 401.504,74.5001 451.5,75.5C 461.667,95.8333 471.833,116.167 482,136.5C 484.418,141.586 485.918,146.919 486.5,152.5C 486.5,154.167 486.5,155.833 486.5,157.5C 413.167,157.5 339.833,157.5 266.5,157.5C 266.548,150.972 267.715,144.638 270,138.5C 280.242,117.017 290.742,95.6838 301.5,74.5 Z"/></g>
<g><path style="opacity:1" fill="#070201" d="M 254.5,99.5 C 258.803,98.7962 262.303,100.13 265,103.5C 265.667,109.5 265.667,115.5 265,121.5C 262.335,126.434 258.502,127.601 253.5,125C 252.107,123.829 251.273,122.329 251,120.5C 250.333,115.167 250.333,109.833 251,104.5C 251.997,102.677 253.164,101.01 254.5,99.5 Z"/></g>
<g><path style="opacity:1" fill="#070302" d="M 379.5,99.5 C 384.28,98.6409 387.78,100.308 390,104.5C 390.667,109.833 390.667,115.167 390,120.5C 387.91,126.292 384.076,127.792 378.5,125C 377.299,124.097 376.465,122.931 376,121.5C 375.333,115.5 375.333,109.5 376,103.5C 377.376,102.295 378.542,100.962 379.5,99.5 Z"/></g>
<g><path style="opacity:1" fill="#080403" d="M 300.5,111.5 C 306.005,110.586 310.338,112.42 313.5,117C 317.072,118.405 320.739,118.738 324.5,118C 327.772,116.392 330.772,114.392 333.5,112C 343.504,111.333 346.337,115.5 342,124.5C 327.621,136.396 313.288,136.396 299,124.5C 295.287,119.589 295.787,115.256 300.5,111.5 Z"/></g>
<g><path style="opacity:1" fill="#da5c46" d="M 154.5,152.5 C 154.5,154.167 154.5,155.833 154.5,157.5C 191.5,157.5 228.5,157.5 265.5,157.5C 265.5,157.833 265.5,158.167 265.5,158.5C 228.167,158.5 190.833,158.5 153.5,158.5C 153.205,156.265 153.539,154.265 154.5,152.5 Z"/></g>
<g><path style="opacity:1" fill="#db7560" d="M 486.5,152.5 C 487.461,154.265 487.795,156.265 487.5,158.5C 413.5,158.5 339.5,158.5 265.5,158.5C 265.5,158.167 265.5,157.833 265.5,157.5C 265.833,157.5 266.167,157.5 266.5,157.5C 339.833,157.5 413.167,157.5 486.5,157.5C 486.5,155.833 486.5,154.167 486.5,152.5 Z"/></g>
<g><path style="opacity:1" fill="#fd876f" d="M 265.5,173.5 C 265.5,194.5 265.5,215.5 265.5,236.5C 250.927,266.824 245.26,298.824 248.5,332.5C 230.893,336.274 220.06,346.94 216,364.5C 199.44,347.272 182.274,330.772 164.5,315C 160.797,312.646 156.797,311.146 152.5,310.5C 152.5,264.833 152.5,219.167 152.5,173.5C 190.167,173.5 227.833,173.5 265.5,173.5 Z"/></g>
<g><path style="opacity:1" fill="#fd9a86" d="M 265.5,173.5 C 339.833,173.5 414.167,173.5 488.5,173.5C 488.667,271.834 488.5,370.167 488,468.5C 485.019,482.813 476.519,491.98 462.5,496C 402.168,496.5 341.834,496.667 281.5,496.5C 270.519,487.531 265.186,475.865 265.5,461.5C 265.418,459.748 266.251,458.748 268,458.5C 304.034,477.642 339.867,477.142 375.5,457C 410.222,433.723 426.389,401.223 424,359.5C 418.567,344.565 408.067,335.565 392.5,332.5C 394.601,306.579 391.768,281.246 384,256.5C 381.761,253.038 378.594,251.705 374.5,252.5C 371.5,246.5 368.5,240.5 365.5,234.5C 368.036,231.993 368.869,228.993 368,225.5C 352.541,202.684 331.374,194.184 304.5,200C 287.094,207.576 274.094,219.743 265.5,236.5C 265.5,215.5 265.5,194.5 265.5,173.5 Z"/></g>
<g><path style="opacity:1" fill="#fbdc5f" d="M 335.5,216.5 C 326.695,223.103 320.028,231.437 315.5,241.5C 307.912,241.048 301.745,243.714 297,249.5C 295.204,258.539 298.704,261.872 307.5,259.5C 302.392,273.682 299.725,288.348 299.5,303.5C 291.342,303.895 285.676,307.728 282.5,315C 283.576,321.41 287.243,323.743 293.5,322C 296.041,318.801 299.041,317.968 302.5,319.5C 301.5,319.5 300.5,319.5 299.5,319.5C 299.58,327.887 300.247,336.22 301.5,344.5C 289.541,338.791 277.041,334.791 264,332.5C 260.411,304.461 264.078,277.461 275,251.5C 280.543,239.226 288.377,228.726 298.5,220C 310.272,211.519 322.605,210.353 335.5,216.5 Z"/></g>
<g><path style="opacity:1" fill="#fceb6d" d="M 335.5,216.5 C 338.09,217.128 340.423,218.295 342.5,220C 347.939,224.527 352.939,229.527 357.5,235C 360.261,235.722 362.927,235.555 365.5,234.5C 368.5,240.5 371.5,246.5 374.5,252.5C 371.877,253.953 370.21,256.12 369.5,259C 376.961,282.937 379.628,307.437 377.5,332.5C 356.148,335.681 337.148,344.014 320.5,357.5C 314.314,352.91 307.98,348.577 301.5,344.5C 300.247,336.22 299.58,327.887 299.5,319.5C 300.5,319.5 301.5,319.5 302.5,319.5C 307.663,323.833 312.497,323.5 317,318.5C 318.202,314.207 317.035,310.707 313.5,308C 309.089,305.585 304.422,304.085 299.5,303.5C 299.725,288.348 302.392,273.682 307.5,259.5C 309.022,257.667 311.022,256.667 313.5,256.5C 316.537,258.009 319.703,259.342 323,260.5C 329.41,259.424 331.743,255.757 330,249.5C 326.243,244.872 321.41,242.205 315.5,241.5C 320.028,231.437 326.695,223.103 335.5,216.5 Z"/></g>
<g><path style="opacity:1" fill="#060502" d="M 315.5,241.5 C 321.41,242.205 326.243,244.872 330,249.5C 331.743,255.757 329.41,259.424 323,260.5C 319.703,259.342 316.537,258.009 313.5,256.5C 311.022,256.667 309.022,257.667 307.5,259.5C 298.704,261.872 295.204,258.539 297,249.5C 301.745,243.714 307.912,241.048 315.5,241.5 Z"/></g>
<g><path style="opacity:1" fill="#070603" d="M 333.5,275.5 C 343.218,273.684 351.384,276.351 358,283.5C 359.101,289.657 356.601,292.991 350.5,293.5C 347.245,292.737 344.079,291.737 341,290.5C 338.456,290.384 336.289,291.217 334.5,293C 326.225,295.057 322.725,291.89 324,283.5C 326.747,280.246 329.914,277.58 333.5,275.5 Z"/></g>
<g><path style="opacity:1" fill="#080603" d="M 299.5,303.5 C 304.422,304.085 309.089,305.585 313.5,308C 317.035,310.707 318.202,314.207 317,318.5C 312.497,323.5 307.663,323.833 302.5,319.5C 299.041,317.968 296.041,318.801 293.5,322C 287.243,323.743 283.576,321.41 282.5,315C 285.676,307.728 291.342,303.895 299.5,303.5 Z"/></g>
<g><path style="opacity:0.998" fill="#fde2c0" d="M 175.5,345.5 C 161.5,358.833 147.833,372.5 134.5,386.5C 111.498,386.667 88.4976,386.5 65.5,386C 75.3333,376.167 85.1667,366.333 95,356.5C 96.9741,352.732 96.8074,349.066 94.5,345.5C 99.1667,341.5 103.5,337.167 107.5,332.5C 110.228,334.288 113.228,334.788 116.5,334C 119.167,332 121.833,330 124.5,328C 131.634,323.797 139.3,322.463 147.5,324C 158.969,328.292 168.302,335.459 175.5,345.5 Z"/></g>
<g><path style="opacity:1" fill="#fcefdb" d="M 175.5,345.5 C 189.299,358.798 202.965,372.298 216.5,386C 189.169,386.5 161.835,386.667 134.5,386.5C 147.833,372.5 161.5,358.833 175.5,345.5 Z"/></g>
<g><path style="opacity:1" fill="#d0e959" d="M 256.5,347.5 C 262.762,384.596 283.095,410.763 317.5,426C 324.96,428.766 332.626,430.599 340.5,431.5C 340.656,439.529 340.323,447.529 339.5,455.5C 315.501,460.667 293.167,456.667 272.5,443.5C 271.776,440.549 271.943,437.549 273,434.5C 276.143,407.316 264.309,391.149 237.5,386C 230.959,380.298 228.792,373.131 231,364.5C 235.111,352.218 243.611,346.552 256.5,347.5 Z"/></g>
<g><path style="opacity:1" fill="#dff372" d="M 256.5,347.5 C 292.631,350.809 318.465,368.809 334,401.5C 338.382,411.027 340.549,421.027 340.5,431.5C 332.626,430.599 324.96,428.766 317.5,426C 283.095,410.763 262.762,384.596 256.5,347.5 Z"/></g>
<g><path style="opacity:1" fill="#b2cf40" d="M 409.5,379.5 C 409.5,377.167 409.5,374.833 409.5,372.5C 391.221,375.308 374.888,382.474 360.5,394C 356.893,397.098 353.893,400.598 351.5,404.5C 346.659,391.821 339.992,380.154 331.5,369.5C 349.809,352.12 371.476,345.286 396.5,349C 408.538,355.963 412.872,366.129 409.5,379.5 Z"/></g>
<g><path style="opacity:1" fill="#c1da4a" d="M 409.5,379.5 C 405.608,405.194 393.274,425.694 372.5,441C 367.358,444.904 361.691,447.738 355.5,449.5C 356.459,434.251 355.126,419.251 351.5,404.5C 353.893,400.598 356.893,397.098 360.5,394C 374.888,382.474 391.221,375.308 409.5,372.5C 409.5,374.833 409.5,377.167 409.5,379.5 Z"/></g>
<g><path style="opacity:1" fill="#626877" d="M 115.5,401.5 C 107.037,409.725 103.871,419.725 106,431.5C 109.946,460.756 124.779,482.423 150.5,496.5C 128.497,496.667 106.497,496.5 84.5,496C 57.6254,490.79 38.792,475.623 28,450.5C 23.8766,439.526 22.5433,428.192 24,416.5C 26.899,409.268 32.0657,404.435 39.5,402C 64.8311,401.5 90.1645,401.333 115.5,401.5 Z"/></g>
<g><path style="opacity:1" fill="#6f7688" d="M 115.5,401.5 C 157.501,401.333 199.501,401.5 241.5,402C 249.245,404.744 254.745,409.911 258,417.5C 259.769,450.703 245.936,474.869 216.5,490C 209.959,492.402 203.292,494.402 196.5,496C 181.17,496.5 165.837,496.667 150.5,496.5C 124.779,482.423 109.946,460.756 106,431.5C 103.871,419.725 107.037,409.725 115.5,401.5 Z"/></g>
<g><path style="opacity:1" fill="#fc866f" d="M 265.5,461.5 C 265.186,475.865 270.519,487.531 281.5,496.5C 266.163,496.667 250.83,496.5 235.5,496C 248.608,487.068 258.608,475.568 265.5,461.5 Z"/></g>
</svg>
