<?xml version="1.0" encoding="UTF-8"?>
<!DOCTYPE svg PUBLIC "-//W3C//DTD SVG 1.1//EN" "http://www.w3.org/Graphics/SVG/1.1/DTD/svg11.dtd">
<svg xmlns="http://www.w3.org/2000/svg" version="1.1" width="512px" height="512px" style="shape-rendering:geometricPrecision; text-rendering:geometricPrecision; image-rendering:optimizeQuality; fill-rule:evenodd; clip-rule:evenodd" xmlns:xlink="http://www.w3.org/1999/xlink">
<g><path style="opacity:0.992" fill="#1a0f28" d="M 426.5,85.5 C 424.193,84.0226 422.36,82.0226 421,79.5C 420.991,73.6899 421.158,67.8565 421.5,62C 421.325,34.7215 408.325,26.0548 382.5,36C 352.902,49.6193 326.235,67.4526 302.5,89.5C 307.833,92.8333 308.833,97.1667 305.5,102.5C 304.312,103.84 302.812,104.507 301,104.5C 297.989,103.41 295.156,101.91 292.5,100C 291.5,99.3333 290.5,99.3333 289.5,100C 284.135,105.699 278.469,111.033 272.5,116C 277.302,118.807 281.469,122.307 285,126.5C 285.342,133.156 282.175,135.989 275.5,135C 271.323,132.152 267.156,129.318 263,126.5C 257.043,131.455 251.377,136.788 246,142.5C 245.493,143.996 245.993,145.163 247.5,146C 252,149.167 256.5,152.333 261,155.5C 264.359,163.296 261.859,167.13 253.5,167C 247.362,163.028 241.362,158.862 235.5,154.5C 229.011,161.157 222.678,167.99 216.5,175C 225.2,177.34 232.7,181.84 239,188.5C 240.5,196.333 237.333,199.5 229.5,198C 224.833,194.667 220.167,191.333 215.5,188C 213.396,185.958 212.229,183.458 212,180.5C 211.667,180.833 211.333,181.167 211,181.5C 211.029,193.159 211.529,204.826 212.5,216.5C 218.275,219.87 218.941,224.037 214.5,229C 212.975,230.009 211.308,230.509 209.5,230.5C 208.729,241.564 207.396,252.564 205.5,263.5C 207.857,263.337 210.19,263.503 212.5,264C 217.167,267.333 221.833,270.667 226.5,274C 230.601,278.294 230.268,282.294 225.5,286C 223.5,286.667 221.5,286.667 219.5,286C 214.833,282.667 210.167,279.333 205.5,276C 204.668,275.312 204.002,275.479 203.5,276.5C 201.5,284.5 199.5,292.5 197.5,300.5C 200.484,302.984 203.318,305.65 206,308.5C 207.105,313.956 204.938,317.289 199.5,318.5C 197.303,318.152 195.47,317.152 194,315.5C 187.856,333.696 181.356,351.362 174.5,368.5C 188.105,355.723 202.438,343.89 217.5,333C 212.636,328.965 212.302,324.632 216.5,320C 218.833,319.333 221.167,319.333 223.5,320C 225.699,321.697 228.032,323.197 230.5,324.5C 237.833,319.833 245.167,315.167 252.5,310.5C 247.5,306.34 242.334,302.34 237,298.5C 234.523,294.22 235.356,290.72 239.5,288C 242.303,287.245 244.97,287.578 247.5,289C 250.99,291.911 254.656,294.578 258.5,297C 261.135,298.961 262.969,301.461 264,304.5C 272.967,299.6 282.133,295.1 291.5,291C 293.173,279.778 298.506,277.612 307.5,284.5C 317.106,280.02 327.106,276.853 337.5,275C 338.167,274.333 338.833,273.667 339.5,273C 336.711,272.759 334.044,272.092 331.5,271C 326.667,267.5 321.833,264 317,260.5C 313.95,252.901 316.45,249.067 324.5,249C 329.833,252.667 335.167,256.333 340.5,260C 341.863,261.945 342.697,264.112 343,266.5C 347.833,258.167 352.667,249.833 357.5,241.5C 351.064,237.198 344.898,232.531 339,227.5C 338.011,220.825 340.844,217.658 347.5,218C 353.276,221.444 358.776,225.277 364,229.5C 367.706,221.922 371.539,214.422 375.5,207C 370.379,203.547 365.546,199.714 361,195.5C 359.895,190.044 362.062,186.711 367.5,185.5C 372.538,188.23 377.538,190.897 382.5,193.5C 385.481,186.199 388.481,178.865 391.5,171.5C 388.946,169.292 386.446,166.959 384,164.5C 383.632,154.04 387.965,151.707 397,157.5C 400.058,150.993 402.725,144.326 405,137.5C 407.239,134.038 410.406,132.705 414.5,133.5C 418.314,136.152 419.481,139.819 418,144.5C 409.397,167.872 399.564,190.705 388.5,213C 403.581,219.08 414.414,229.58 421,244.5C 423.566,250.863 425.732,257.363 427.5,264C 426.28,270.113 422.614,272.446 416.5,271C 412.017,267.147 407.017,266.48 401.5,269C 398.167,271 394.833,273 391.5,275C 388.861,275.588 386.527,275.088 384.5,273.5C 381.329,268.694 381.996,264.527 386.5,261C 393.14,256.348 400.474,253.348 408.5,252C 403.5,240.333 395.167,232 383.5,227C 382.365,226.251 381.365,226.417 380.5,227.5C 372.087,243.328 363.42,258.994 354.5,274.5C 362.104,276.973 369.438,279.973 376.5,283.5C 389.164,295.825 396.83,310.825 399.5,328.5C 398.153,335.455 394.153,337.621 387.5,335C 382.043,327.262 375.043,325.595 366.5,330C 336.215,365.96 301.882,397.293 263.5,424C 242.676,437.912 220.343,448.912 196.5,457C 178.22,462.785 159.553,464.785 140.5,463C 134,472.167 127.5,481.333 121,490.5C 117.744,492.429 114.244,492.929 110.5,492C 98.911,483.622 87.411,475.122 76,466.5C 74.4643,461.734 75.4643,457.401 79,453.5C 84.8333,445.667 90.6667,437.833 96.5,430C 90.4791,419.605 86.6458,408.438 85,396.5C 81.0107,353.099 87.0107,311.099 103,270.5C 105.196,267.875 108.03,266.875 111.5,267.5C 114.273,268.955 115.94,271.288 116.5,274.5C 102.937,309.943 96.7706,346.609 98,384.5C 99.2435,399.479 103.577,413.479 111,426.5C 113.134,382.829 120.801,340.163 134,298.5C 142.9,271.807 150.566,244.807 157,217.5C 166.363,213.189 170.363,216.189 169,226.5C 167.922,232.557 166.589,238.557 165,244.5C 152.171,283.322 141.171,322.655 132,362.5C 127.481,382.606 125.481,402.939 126,423.5C 175.058,352.285 198.725,273.285 197,186.5C 192.05,167.358 179.884,157.358 160.5,156.5C 164.325,165.066 164.491,173.733 161,182.5C 148.71,202.743 137.71,223.743 128,245.5C 125.096,247.227 121.93,247.893 118.5,247.5C 115.054,244.349 114.221,240.682 116,236.5C 124.378,217.408 134.044,199.074 145,181.5C 152.399,169.029 149.399,160.029 136,154.5C 133.144,149.08 134.311,144.913 139.5,142C 148.833,141.333 158.167,141.333 167.5,142C 172.876,142.802 178.043,144.302 183,146.5C 192.702,136.727 196.369,125.06 194,111.5C 191,109.833 188.667,107.5 187,104.5C 186.07,101.15 186.903,98.3167 189.5,96C 208.493,92.3794 226.16,95.7127 242.5,106C 245.667,109.167 248.833,112.333 252,115.5C 280.502,86.9813 311.335,61.4813 344.5,39C 362.074,27.0444 381.408,19.8778 402.5,17.5C 421.604,19.1027 432.437,29.436 435,48.5C 436.812,58.8243 436.812,69.1576 435,79.5C 433.492,83.3404 430.658,85.3404 426.5,85.5 Z"/></g>
<g><path style="opacity:1" fill="#f0cf32" d="M 426.5,85.5 C 426.341,89.2909 425.675,92.9576 424.5,96.5C 419.114,96.3773 415.947,99.044 415,104.5C 413.285,109.732 412.618,115.065 413,120.5C 414.397,122.07 415.897,123.404 417.5,124.5C 416.304,127.421 415.304,130.421 414.5,133.5C 410.406,132.705 407.239,134.038 405,137.5C 402.725,144.326 400.058,150.993 397,157.5C 387.965,151.707 383.632,154.04 384,164.5C 386.446,166.959 388.946,169.292 391.5,171.5C 388.481,178.865 385.481,186.199 382.5,193.5C 377.538,190.897 372.538,188.23 367.5,185.5C 362.062,186.711 359.895,190.044 361,195.5C 365.546,199.714 370.379,203.547 375.5,207C 371.539,214.422 367.706,221.922 364,229.5C 358.776,225.277 353.276,221.444 347.5,218C 340.844,217.658 338.011,220.825 339,227.5C 344.898,232.531 351.064,237.198 357.5,241.5C 352.667,249.833 347.833,258.167 343,266.5C 342.697,264.112 341.863,261.945 340.5,260C 335.167,256.333 329.833,252.667 324.5,249C 316.45,249.067 313.95,252.901 317,260.5C 321.833,264 326.667,267.5 331.5,271C 334.044,272.092 336.711,272.759 339.5,273C 338.833,273.667 338.167,274.333 337.5,275C 327.106,276.853 317.106,280.02 307.5,284.5C 298.506,277.612 293.173,279.778 291.5,291C 282.133,295.1 272.967,299.6 264,304.5C 262.969,301.461 261.135,298.961 258.5,297C 254.656,294.578 250.99,291.911 247.5,289C 244.97,287.578 242.303,287.245 239.5,288C 235.356,290.72 234.523,294.22 237,298.5C 242.334,302.34 247.5,306.34 252.5,310.5C 245.167,315.167 237.833,319.833 230.5,324.5C 228.032,323.197 225.699,321.697 223.5,320C 221.167,319.333 218.833,319.333 216.5,320C 212.302,324.632 212.636,328.965 217.5,333C 202.438,343.89 188.105,355.723 174.5,368.5C 181.356,351.362 187.856,333.696 194,315.5C 195.47,317.152 197.303,318.152 199.5,318.5C 204.938,317.289 207.105,313.956 206,308.5C 203.318,305.65 200.484,302.984 197.5,300.5C 199.5,292.5 201.5,284.5 203.5,276.5C 204.002,275.479 204.668,275.312 205.5,276C 210.167,279.333 214.833,282.667 219.5,286C 221.5,286.667 223.5,286.667 225.5,286C 230.268,282.294 230.601,278.294 226.5,274C 221.833,270.667 217.167,267.333 212.5,264C 210.19,263.503 207.857,263.337 205.5,263.5C 207.396,252.564 208.729,241.564 209.5,230.5C 211.308,230.509 212.975,230.009 214.5,229C 218.941,224.037 218.275,219.87 212.5,216.5C 211.529,204.826 211.029,193.159 211,181.5C 211.333,181.167 211.667,180.833 212,180.5C 212.229,183.458 213.396,185.958 215.5,188C 220.167,191.333 224.833,194.667 229.5,198C 237.333,199.5 240.5,196.333 239,188.5C 232.7,181.84 225.2,177.34 216.5,175C 222.678,167.99 229.011,161.157 235.5,154.5C 241.362,158.862 247.362,163.028 253.5,167C 261.859,167.13 264.359,163.296 261,155.5C 256.5,152.333 252,149.167 247.5,146C 245.993,145.163 245.493,143.996 246,142.5C 251.377,136.788 257.043,131.455 263,126.5C 267.156,129.318 271.323,132.152 275.5,135C 282.175,135.989 285.342,133.156 285,126.5C 281.469,122.307 277.302,118.807 272.5,116C 278.469,111.033 284.135,105.699 289.5,100C 290.5,99.3333 291.5,99.3333 292.5,100C 295.156,101.91 297.989,103.41 301,104.5C 302.812,104.507 304.312,103.84 305.5,102.5C 308.833,97.1667 307.833,92.8333 302.5,89.5C 326.235,67.4526 352.902,49.6193 382.5,36C 408.325,26.0548 421.325,34.7215 421.5,62C 421.158,67.8565 420.991,73.6899 421,79.5C 422.36,82.0226 424.193,84.0226 426.5,85.5 Z"/></g>
<g><path style="opacity:1" fill="#1c1028" d="M 380.5,54.5 C 382.857,54.3367 385.19,54.5034 387.5,55C 393.09,59.0452 398.59,63.2119 404,67.5C 405.447,75.3864 402.28,78.5531 394.5,77C 388.551,73.4405 383.051,69.2738 378,64.5C 376.861,60.5789 377.695,57.2456 380.5,54.5 Z"/></g>
<g><path style="opacity:1" fill="#1d1128" d="M 341.5,73.5 C 344.794,73.259 347.794,74.0924 350.5,76C 355.271,79.1375 359.771,82.6375 364,86.5C 365.822,93.9987 362.989,97.4987 355.5,97C 349.396,92.863 343.563,88.363 338,83.5C 337.333,81.5 337.333,79.5 338,77.5C 339.376,76.2949 340.542,74.9616 341.5,73.5 Z"/></g>
<g><path style="opacity:0.976" fill="#1a0f28" d="M 424.5,96.5 C 427.892,97.5641 429.892,99.8975 430.5,103.5C 428.975,109.604 427.141,115.604 425,121.5C 423.005,123.747 420.505,124.747 417.5,124.5C 415.897,123.404 414.397,122.07 413,120.5C 412.618,115.065 413.285,109.732 415,104.5C 415.947,99.044 419.114,96.3773 424.5,96.5 Z"/></g>
<g><path style="opacity:1" fill="#1d1128" d="M 374.5,98.5 C 377.187,98.3359 379.854,98.5026 382.5,99C 387.167,102.333 391.833,105.667 396.5,109C 400.756,113.385 400.423,117.385 395.5,121C 393.5,121.667 391.5,121.667 389.5,121C 384.167,117.333 378.833,113.667 373.5,110C 370.659,105.874 370.992,102.04 374.5,98.5 Z"/></g>
<g><path style="opacity:1" fill="#1d1128" d="M 317.5,105.5 C 320.187,105.336 322.854,105.503 325.5,106C 330.167,109.333 334.833,112.667 339.5,116C 343.743,120.432 343.41,124.432 338.5,128C 336.5,128.667 334.5,128.667 332.5,128C 327.167,124.333 321.833,120.667 316.5,117C 313.659,112.874 313.992,109.04 317.5,105.5 Z"/></g>
<g><path style="opacity:1" fill="#a7bf47" d="M 208.5,110.5 C 218.267,110.14 227.267,112.974 235.5,119C 238.236,121.148 240.236,123.814 241.5,127C 229.346,140.488 217.18,153.988 205,167.5C 202.074,163.318 198.907,159.318 195.5,155.5C 200.364,149.11 204.197,142.11 207,134.5C 209.362,126.449 209.862,118.449 208.5,110.5 Z"/></g>
<g><path style="opacity:1" fill="#1d1128" d="M 353.5,129.5 C 355.927,129.523 358.26,130.023 360.5,131C 365.333,134.5 370.167,138 375,141.5C 377.54,146.097 376.707,149.93 372.5,153C 370.029,153.706 367.695,153.373 365.5,152C 360.667,148.5 355.833,145 351,141.5C 348.523,136.669 349.356,132.669 353.5,129.5 Z"/></g>
<g><path style="opacity:1" fill="#1c1028" d="M 296.5,136.5 C 298.927,136.523 301.26,137.023 303.5,138C 308.333,141.5 313.167,145 318,148.5C 321.319,156.389 318.819,160.223 310.5,160C 304.403,156.201 298.569,152.035 293,147.5C 291.518,142.774 292.685,139.107 296.5,136.5 Z"/></g>
<g><path style="opacity:0.999" fill="#c4e153" d="M 111.5,267.5 C 113.833,260.833 116.167,254.167 118.5,247.5C 121.93,247.893 125.096,247.227 128,245.5C 137.71,223.743 148.71,202.743 161,182.5C 164.491,173.733 164.325,165.066 160.5,156.5C 179.884,157.358 192.05,167.358 197,186.5C 198.725,273.285 175.058,352.285 126,423.5C 125.481,402.939 127.481,382.606 132,362.5C 141.171,322.655 152.171,283.322 165,244.5C 166.589,238.557 167.922,232.557 169,226.5C 170.363,216.189 166.363,213.189 157,217.5C 150.566,244.807 142.9,271.807 134,298.5C 120.801,340.163 113.134,382.829 111,426.5C 103.577,413.479 99.2435,399.479 98,384.5C 96.7706,346.609 102.937,309.943 116.5,274.5C 115.94,271.288 114.273,268.955 111.5,267.5 Z"/></g>
<g><path style="opacity:1" fill="#1c1028" d="M 329.5,161.5 C 331.857,161.337 334.19,161.503 336.5,162C 342.449,165.56 347.949,169.726 353,174.5C 354.5,182.333 351.333,185.5 343.5,184C 338.333,180.167 333.167,176.333 328,172.5C 325.689,168.374 326.189,164.707 329.5,161.5 Z"/></g>
<g><path style="opacity:1" fill="#1b1028" d="M 272.5,168.5 C 274.857,168.337 277.19,168.503 279.5,169C 285.449,172.56 290.949,176.726 296,181.5C 297.5,189.333 294.333,192.5 286.5,191C 281.833,187.667 277.167,184.333 272.5,181C 268.565,176.837 268.565,172.67 272.5,168.5 Z"/></g>
<g><path style="opacity:1" fill="#1e1228" d="M 308.5,192.5 C 317.1,195.241 324.6,199.907 331,206.5C 331.833,213.667 328.667,216.833 321.5,216C 315.396,211.863 309.563,207.363 304,202.5C 303.077,198.017 304.577,194.683 308.5,192.5 Z"/></g>
<g><path style="opacity:1" fill="#1d1128" d="M 251.5,199.5 C 260.1,202.241 267.6,206.907 274,213.5C 274.833,220.667 271.667,223.833 264.5,223C 258.91,218.955 253.41,214.788 248,210.5C 245.718,205.732 246.885,202.065 251.5,199.5 Z"/></g>
<g><path style="opacity:1" fill="#1b1028" d="M 284.5,224.5 C 286.527,224.338 288.527,224.505 290.5,225C 296.612,228.779 302.445,232.945 308,237.5C 309.5,245.333 306.333,248.5 298.5,247C 293.5,243.5 288.5,240 283.5,236.5C 280.64,232.2 280.973,228.2 284.5,224.5 Z"/></g>
<g><path style="opacity:0.997" fill="#a7bf47" d="M 384.5,273.5 C 381.484,276.52 378.817,279.854 376.5,283.5C 369.438,279.973 362.104,276.973 354.5,274.5C 363.42,258.994 372.087,243.328 380.5,227.5C 381.365,226.417 382.365,226.251 383.5,227C 395.167,232 403.5,240.333 408.5,252C 400.474,253.348 393.14,256.348 386.5,261C 381.996,264.527 381.329,268.694 384.5,273.5 Z"/></g>
<g><path style="opacity:1" fill="#1d1128" d="M 227.5,231.5 C 229.527,231.338 231.527,231.505 233.5,232C 239.612,235.779 245.445,239.945 251,244.5C 252.822,251.999 249.989,255.499 242.5,255C 236.396,250.863 230.563,246.363 225,241.5C 223.861,237.579 224.695,234.246 227.5,231.5 Z"/></g>
<g><path style="opacity:1" fill="#1c1028" d="M 261.5,256.5 C 264.187,256.336 266.854,256.503 269.5,257C 274.667,260.833 279.833,264.667 285,268.5C 287.219,276.271 284.386,279.771 276.5,279C 271.167,275.333 265.833,271.667 260.5,268C 257.751,263.908 258.084,260.075 261.5,256.5 Z"/></g>
<g><path style="opacity:1" fill="#c4e253" d="M 335.5,288.5 C 356.876,285.51 371.542,293.843 379.5,313.5C 375.154,313.334 370.821,313.501 366.5,314C 362.673,315.746 359.007,317.746 355.5,320C 321.941,361.244 282.608,395.577 237.5,423C 212.569,438.144 185.569,446.977 156.5,449.5C 150.71,449.509 145.044,448.675 139.5,447C 165.035,437.399 189.368,425.399 212.5,411C 241.865,391.985 270.532,371.985 298.5,351C 305.504,346.163 312.837,341.829 320.5,338C 324.654,333.601 324.321,329.601 319.5,326C 313.708,325.88 308.374,327.547 303.5,331C 273.024,353.406 242.024,375.072 210.5,396C 188.111,410.362 164.444,422.362 139.5,432C 138.5,432.667 137.5,432.667 136.5,432C 187.964,363.596 254.297,315.763 335.5,288.5 Z"/></g>
<g><path style="opacity:1" fill="#a6be47" d="M 104.5,442.5 C 111.249,448.231 118.583,453.231 126.5,457.5C 122.192,463.641 117.692,469.641 113,475.5C 106.026,470.693 99.193,465.693 92.5,460.5C 96.5204,454.443 100.52,448.443 104.5,442.5 Z"/></g>
</svg>
