<?xml version="1.0" encoding="UTF-8"?>
<!DOCTYPE svg PUBLIC "-//W3C//DTD SVG 1.1//EN" "http://www.w3.org/Graphics/SVG/1.1/DTD/svg11.dtd">
<svg xmlns="http://www.w3.org/2000/svg" version="1.1" width="256px" height="256px" style="shape-rendering:geometricPrecision; text-rendering:geometricPrecision; image-rendering:optimizeQuality; fill-rule:evenodd; clip-rule:evenodd" xmlns:xlink="http://www.w3.org/1999/xlink">
<g><path style="opacity:0.952" fill="#030202" d="M 179.5,-0.5 C 182.167,-0.5 184.833,-0.5 187.5,-0.5C 209.076,11.2247 226.91,27.2247 241,47.5C 251.655,63.6132 250.655,78.9465 238,93.5C 230.901,103.099 221.401,107.432 209.5,106.5C 207.028,127.967 195.362,141.3 174.5,146.5C 173.446,146.32 172.446,145.987 171.5,145.5C 168.94,158.785 162.606,169.952 152.5,179C 146.039,184.098 138.706,186.265 130.5,185.5C 128.017,206.977 116.351,220.31 95.5,225.5C 94.2638,224.754 92.9305,224.421 91.5,224.5C 89.9605,236.577 84.9605,246.911 76.5,255.5C 73.8333,255.5 71.1667,255.5 68.5,255.5C 43.2936,242.462 23.7936,223.462 10,198.5C 5.34398,185.127 7.67731,173.127 17,162.5C 24.5,152.833 34.3333,148.166 46.5,148.5C 48.2338,131.6 56.5671,119.1 71.5,111C 76.1258,110.018 80.7924,109.184 85.5,108.5C 86.2132,106.224 86.7132,103.891 87,101.5C 88.7889,99.771 90.9556,99.1043 93.5,99.5C 94.172,100.267 95.0053,100.934 96,101.5C 96.1946,107.564 96.8613,113.564 98,119.5C 108,136.833 118,154.167 128,171.5C 133.862,175.462 139.695,175.295 145.5,171C 157.65,160.894 161.483,148.394 157,133.5C 147.337,116.169 137.17,99.1689 126.5,82.5C 124.636,81.0069 122.47,80.3403 120,80.5C 116.729,80.7215 113.563,81.3881 110.5,82.5C 108.793,82.2716 107.126,81.9383 105.5,81.5C 105.232,78.8806 105.565,76.3806 106.5,74C 112.273,70.1554 118.607,68.6554 125.5,69.5C 127.234,52.5997 135.567,40.0997 150.5,32C 155.066,30.6908 159.733,30.1908 164.5,30.5C 166.039,18.4241 171.039,8.09079 179.5,-0.5 Z"/></g>
<g><path style="opacity:1" fill="#f161a6" d="M 190.5,73.5 C 189.833,72.5 189.167,71.5 188.5,70.5C 192.235,64.5198 190.568,61.5198 183.5,61.5C 181.819,58.7972 180.153,56.1305 178.5,53.5C 179.897,52.1806 180.563,50.5139 180.5,48.5C 179.303,45.0995 177.803,41.7662 176,38.5C 173.631,27.2774 176.631,17.9441 185,10.5C 207.654,22.4874 224.987,39.8207 237,62.5C 238.176,76.024 233.01,86.524 221.5,94C 217.129,97.1836 212.795,97.1836 208.5,94C 204.271,88.0987 200.437,81.9321 197,75.5C 195.103,73.9837 192.936,73.317 190.5,73.5 Z"/></g>
<g><path style="opacity:1" fill="#fcebd7" d="M 178.5,53.5 C 180.153,56.1305 181.819,58.7972 183.5,61.5C 179.63,64.2968 179.63,67.1301 183.5,70C 185.134,70.4935 186.801,70.6602 188.5,70.5C 189.167,71.5 189.833,72.5 190.5,73.5C 188.609,75.8357 188.109,78.5024 189,81.5C 203.95,99.7424 202.45,116.576 184.5,132C 175.422,138.077 168.589,136.244 164,126.5C 155,110.5 146,94.5 137,78.5C 134.593,61.4839 141.093,48.9839 156.5,41C 159.303,40.245 161.97,40.5783 164.5,42C 167.978,45.2992 170.978,48.9659 173.5,53C 175.134,53.4935 176.801,53.6602 178.5,53.5 Z"/></g>
<g><path style="opacity:1" fill="#0c0a0a" d="M 183.5,61.5 C 190.568,61.5198 192.235,64.5198 188.5,70.5C 186.801,70.6602 185.134,70.4935 183.5,70C 179.63,67.1301 179.63,64.2968 183.5,61.5 Z"/></g>
<g><path style="opacity:0.998" fill="#f162a6" d="M 93.5,99.5 C 93.9402,96.6202 94.9402,93.9535 96.5,91.5C 104.439,93.6043 106.772,90.9377 103.5,83.5C 103.833,82.5 104.5,81.8333 105.5,81.5C 107.126,81.9383 108.793,82.2716 110.5,82.5C 113.563,81.3881 116.729,80.7215 120,80.5C 122.47,80.3403 124.636,81.0069 126.5,82.5C 137.17,99.1689 147.337,116.169 157,133.5C 161.483,148.394 157.65,160.894 145.5,171C 139.695,175.295 133.862,175.462 128,171.5C 118,154.167 108,136.833 98,119.5C 96.8613,113.564 96.1946,107.564 96,101.5C 95.0053,100.934 94.172,100.267 93.5,99.5 Z"/></g>
<g><path style="opacity:0.88" fill="#080305" d="M 103.5,83.5 C 106.772,90.9377 104.439,93.6043 96.5,91.5C 94.233,89.3669 94.0664,87.0335 96,84.5C 98.2415,82.2854 100.742,81.9521 103.5,83.5 Z"/></g>
<g><path style="opacity:1" fill="#fbead6" d="M 77.5,119.5 C 81.5164,118.9 85.0164,119.9 88,122.5C 99.4409,141.047 110.108,160.047 120,179.5C 120.563,195.884 113.396,207.384 98.5,214C 94.8201,215.027 91.6534,214.194 89,211.5C 77.2848,192.735 66.6181,173.402 57,153.5C 57.029,137.989 63.8623,126.656 77.5,119.5 Z"/></g>
<g><path style="opacity:1" fill="#080707" d="M 69.5,150.5 C 73.6826,149.846 76.516,151.512 78,155.5C 79.746,159.327 81.746,162.993 84,166.5C 84.8333,171.667 82.6667,173.833 77.5,173C 71.9645,167.105 68.7978,160.272 68,152.5C 68.7172,151.956 69.2172,151.289 69.5,150.5 Z"/></g>
<g><path style="opacity:1" fill="#f161a6" d="M 38.5,158.5 C 42.587,158.294 46.087,159.627 49,162.5C 59.3333,180.5 69.6667,198.5 80,216.5C 81.6042,227.353 78.6042,236.686 71,244.5C 49.0643,232.898 32.0643,216.231 20,194.5C 17.5271,187.171 18.1937,180.171 22,173.5C 26.4477,167.213 31.9477,162.213 38.5,158.5 Z"/></g>
<g><path style="opacity:1" fill="#121110" d="M 84.5,176.5 C 90.0001,175.831 92.1667,178.165 91,183.5C 87.5922,187.483 84.5922,187.15 82,182.5C 81.4585,179.918 82.2918,177.918 84.5,176.5 Z"/></g>
</svg>
