<?xml version="1.0" encoding="UTF-8"?>
<!DOCTYPE svg PUBLIC "-//W3C//DTD SVG 1.1//EN" "http://www.w3.org/Graphics/SVG/1.1/DTD/svg11.dtd">
<svg xmlns="http://www.w3.org/2000/svg" version="1.1" width="512px" height="512px" style="shape-rendering:geometricPrecision; text-rendering:geometricPrecision; image-rendering:optimizeQuality; fill-rule:evenodd; clip-rule:evenodd" xmlns:xlink="http://www.w3.org/1999/xlink">
<g><path style="opacity:0.99" fill="#1d0d12" d="M 281.5,108.5 C 289.927,103.62 298.593,99.2867 307.5,95.5C 359.118,76.9361 405.785,85.4361 447.5,121C 451.416,124.41 454.749,128.243 457.5,132.5C 458.08,134.749 459.413,136.415 461.5,137.5C 467.092,145.029 472.426,152.696 477.5,160.5C 480.592,166.353 483.426,172.353 486,178.5C 486.667,180.167 486.667,181.833 486,183.5C 480.929,189.794 474.763,194.794 467.5,198.5C 457.917,203.459 448.25,208.126 438.5,212.5C 437.903,212.735 437.57,213.235 437.5,214C 453.74,249.801 459.574,287.301 455,326.5C 446.196,404.297 404.362,454.464 329.5,477C 270.806,493.303 213.139,490.303 156.5,468C 96.1602,440.235 62.6602,393.069 56,326.5C 50.3789,281.606 58.7122,239.606 81,200.5C 102.675,167.22 132.509,144.387 170.5,132C 191.678,125.398 213.345,121.564 235.5,120.5C 229.097,99.3592 219.263,80.0259 206,62.5C 203.35,54.6278 204.35,47.2945 209,40.5C 216.424,33.8734 224.59,28.3734 233.5,24C 242.146,22.3262 249.313,24.8262 255,31.5C 267.477,56.4029 275.144,82.7362 278,110.5C 278.816,109.177 279.983,108.511 281.5,108.5 Z"/></g>
<g><path style="opacity:1" fill="#d47505" d="M 261.5,110.5 C 261.5,113.5 261.5,116.5 261.5,119.5C 258.5,119.5 255.5,119.5 252.5,119.5C 245.182,96.8637 234.682,75.8637 221,56.5C 220.333,54.8333 220.333,53.1667 221,51.5C 225.546,47.2861 230.379,43.4527 235.5,40C 237.769,39.2419 239.936,39.4086 242,40.5C 253.174,62.5288 259.674,85.8622 261.5,110.5 Z"/></g>
<g><path style="opacity:0.657" fill="#72c549" d="M 307.5,95.5 C 298.593,99.2867 289.927,103.62 281.5,108.5C 288.743,101.545 297.409,97.2119 307.5,95.5 Z"/></g>
<g><path style="opacity:1" fill="#7cd24c" d="M 467.5,176.5 C 467.631,177.239 467.464,177.906 467,178.5C 436.507,170.838 406.34,162.505 376.5,153.5C 382.639,149.441 382.972,144.941 377.5,140C 349.835,130.227 321.502,123.56 292.5,120C 333.783,96.044 375.45,95.3773 417.5,118C 440.16,132.485 456.827,151.985 467.5,176.5 Z"/></g>
<g><path style="opacity:1" fill="#80450b" d="M 261.5,110.5 C 262.479,113.625 262.813,116.958 262.5,120.5C 258.958,120.813 255.625,120.479 252.5,119.5C 255.5,119.5 258.5,119.5 261.5,119.5C 261.5,116.5 261.5,113.5 261.5,110.5 Z"/></g>
<g><path style="opacity:1" fill="#f7962b" d="M 273.5,151.5 C 273.427,153.027 274.094,154.027 275.5,154.5C 276.723,158.049 278.723,161.049 281.5,163.5C 310.805,202.817 350.139,221.817 399.5,220.5C 398.432,221.434 397.099,221.768 395.5,221.5C 405.289,255.004 407.123,289.004 401,323.5C 386.211,380.956 350.044,417.122 292.5,432C 247.301,443.328 202.634,441.661 158.5,427C 124.436,415.241 98.6023,393.741 81,362.5C 80.5357,363.094 80.369,363.761 80.5,364.5C 76.4485,352.952 73.6151,340.952 72,328.5C 64.3275,278.135 75.6608,232.801 106,192.5C 130.127,165.678 159.96,148.512 195.5,141C 218.926,135.752 242.593,134.252 266.5,136.5C 269.118,141.401 271.452,146.401 273.5,151.5 Z"/></g>
<g><path style="opacity:1" fill="#6fc23e" d="M 376.5,153.5 C 406.34,162.505 436.507,170.838 467,178.5C 467.464,177.906 467.631,177.239 467.5,176.5C 468.791,177.542 468.791,178.708 467.5,180C 426.571,208.733 383.238,213.066 337.5,193C 313.87,179.537 295.87,160.703 283.5,136.5C 312.639,137.47 340.973,142.97 368.5,153C 371.146,153.497 373.813,153.664 376.5,153.5 Z"/></g>
<g><path style="opacity:0.984" fill="#445c2a" d="M 457.5,132.5 C 459.167,133.5 460.5,134.833 461.5,136.5C 461.5,136.833 461.5,137.167 461.5,137.5C 459.413,136.415 458.08,134.749 457.5,132.5 Z"/></g>
<g><path style="opacity:0.49" fill="#74c848" d="M 461.5,136.5 C 468.827,143.149 474.16,151.149 477.5,160.5C 472.426,152.696 467.092,145.029 461.5,137.5C 461.5,137.167 461.5,136.833 461.5,136.5 Z"/></g>
<g><path style="opacity:1" fill="#91ad3e" d="M 273.5,151.5 C 274.906,151.973 275.573,152.973 275.5,154.5C 274.094,154.027 273.427,153.027 273.5,151.5 Z"/></g>
<g><path style="opacity:1" fill="#83a73d" d="M 275.5,154.5 C 278.241,156.975 280.241,159.975 281.5,163.5C 278.723,161.049 276.723,158.049 275.5,154.5 Z"/></g>
<g><path style="opacity:1" fill="#fea85b" d="M 174.5,167.5 C 183.556,167.043 186.723,171.043 184,179.5C 146.149,194.016 121.482,220.683 110,259.5C 105.667,263.5 101.333,263.5 97,259.5C 96.0945,253.206 97.0945,247.206 100,241.5C 114.747,206.586 139.58,181.919 174.5,167.5 Z"/></g>
<g><path style="opacity:0.341" fill="#74c248" d="M 467.5,198.5 C 459.084,205.54 449.418,210.206 438.5,212.5C 448.25,208.126 457.917,203.459 467.5,198.5 Z"/></g>
<g><path style="opacity:1" fill="#fd871d" d="M 80.5,364.5 C 80.369,363.761 80.5357,363.094 81,362.5C 98.6023,393.741 124.436,415.241 158.5,427C 202.634,441.661 247.301,443.328 292.5,432C 350.044,417.122 386.211,380.956 401,323.5C 407.123,289.004 405.289,255.004 395.5,221.5C 397.099,221.768 398.432,221.434 399.5,220.5C 406.822,219.334 414.156,218.5 421.5,218C 435.316,243.768 441.316,271.268 439.5,300.5C 440.253,388.19 398.253,443.023 313.5,465C 262.311,476.791 212.311,473.124 163.5,454C 122.436,436.441 94.769,406.608 80.5,364.5 Z"/></g>
<g><path style="opacity:1" fill="#fea85b" d="M 95.5,277.5 C 99.6838,276.704 102.85,278.037 105,281.5C 105.667,290.833 105.667,300.167 105,309.5C 102.019,313.696 98.1856,314.529 93.5,312C 92.7894,310.745 91.956,309.579 91,308.5C 90.3333,299.833 90.3333,291.167 91,282.5C 92.0591,280.341 93.5591,278.674 95.5,277.5 Z"/></g>
</svg>
