<?xml version="1.0" encoding="UTF-8"?>
<!DOCTYPE svg PUBLIC "-//W3C//DTD SVG 1.1//EN" "http://www.w3.org/Graphics/SVG/1.1/DTD/svg11.dtd">
<svg xmlns="http://www.w3.org/2000/svg" version="1.1" width="512px" height="512px" style="shape-rendering:geometricPrecision; text-rendering:geometricPrecision; image-rendering:optimizeQuality; fill-rule:evenodd; clip-rule:evenodd" xmlns:xlink="http://www.w3.org/1999/xlink">
<g><path style="opacity:0.972" fill="#000000" d="M 284.5,47.5 C 282.732,50.3843 280.066,51.7176 276.5,51.5C 259.435,45.7991 243.602,48.1324 229,58.5C 231.76,62.2807 235.093,65.9473 239,69.5C 245.613,77.727 249.78,87.0604 251.5,97.5C 251.5,101.5 251.5,105.5 251.5,109.5C 262.546,110.526 273.213,109.026 283.5,105C 285.747,103.723 287.747,102.223 289.5,100.5C 298.791,94.5717 301.958,86.2384 299,75.5C 296.603,71.3768 294.77,67.0435 293.5,62.5C 293.628,60.0452 294.628,58.0452 296.5,56.5C 301.126,54.5168 304.96,55.5168 308,59.5C 316.183,73.3058 317.35,87.6391 311.5,102.5C 327.876,116.148 341.542,131.981 352.5,150C 399.201,156.594 438.034,177.427 469,212.5C 469.963,216.149 469.463,219.482 467.5,222.5C 464.555,223.468 461.555,223.634 458.5,223C 410.094,170.98 351.428,153.98 282.5,172C 220.108,194.608 182.274,238.441 169,303.5C 161.182,370.002 183.682,423.502 236.5,464C 285.209,496.673 337.209,503.006 392.5,483C 451.873,456.946 486.373,411.779 496,347.5C 499.668,313.177 493.334,280.843 477,250.5C 476.024,246.673 476.857,243.34 479.5,240.5C 482.546,239.115 485.546,239.281 488.5,241C 500.874,262.682 508.54,285.848 511.5,310.5C 511.5,323.167 511.5,335.833 511.5,348.5C 501.683,415.65 466.35,464.15 405.5,494C 336.877,521.101 273.544,512.101 215.5,467C 206.099,458.268 197.432,448.935 189.5,439C 117.079,436.486 61.9125,404.653 24,343.5C 11.0823,319.916 2.91566,294.916 -0.5,268.5C -0.5,255.167 -0.5,241.833 -0.5,228.5C 6.04022,177.582 28.7069,135.415 67.5,102C 59.3196,77.3497 65.9863,57.683 87.5,43C 109.234,30.5312 131.067,30.3645 153,42.5C 153.333,34.1667 153.667,25.8333 154,17.5C 155.722,9.44365 160.556,4.27699 168.5,2C 182.5,1.33333 196.5,1.33333 210.5,2C 217.262,3.76327 221.762,7.92994 224,14.5C 224.168,23.8511 224.668,33.1845 225.5,42.5C 243.496,32.6114 262.163,31.1114 281.5,38C 284.647,40.6009 285.647,43.7676 284.5,47.5 Z"/></g>
<g><path style="opacity:1" fill="#346307" d="M 207.5,17.5 C 199.167,17.5 190.833,17.5 182.5,17.5C 182.5,27.5 182.5,37.5 182.5,47.5C 178.833,48.1667 175.167,48.8333 171.5,49.5C 169.525,39.5541 168.858,29.2208 169.5,18.5C 169.611,17.8826 169.944,17.3826 170.5,17C 183.007,16.1735 195.34,16.3401 207.5,17.5 Z"/></g>
<g><path style="opacity:1" fill="#417c09" d="M 207.5,17.5 C 208.117,17.6107 208.617,17.944 209,18.5C 209.832,29.1823 209.666,39.8489 208.5,50.5C 199.998,48.1905 191.331,47.1905 182.5,47.5C 182.5,37.5 182.5,27.5 182.5,17.5C 190.833,17.5 199.167,17.5 207.5,17.5 Z"/></g>
<g><path style="opacity:1" fill="#244406" d="M 169.5,18.5 C 168.858,29.2208 169.525,39.5541 171.5,49.5C 170.791,50.404 169.791,50.7373 168.5,50.5C 168.172,39.6536 168.506,28.9869 169.5,18.5 Z"/></g>
<g><path style="opacity:0.999" fill="#75b21c" d="M 284.5,47.5 C 289.066,49.7305 293.066,52.7305 296.5,56.5C 294.628,58.0452 293.628,60.0452 293.5,62.5C 294.77,67.0435 296.603,71.3768 299,75.5C 301.958,86.2384 298.791,94.5717 289.5,100.5C 280.161,100.666 270.827,100.5 261.5,100C 257.996,99.6967 254.662,98.8634 251.5,97.5C 249.78,87.0604 245.613,77.727 239,69.5C 235.093,65.9473 231.76,62.2807 229,58.5C 243.602,48.1324 259.435,45.7991 276.5,51.5C 280.066,51.7176 282.732,50.3843 284.5,47.5 Z"/></g>
<g><path style="opacity:1" fill="#75b31c" d="M 127.5,97.5 C 126.539,99.2646 126.205,101.265 126.5,103.5C 97.093,98.0258 88.093,81.3591 99.5,53.5C 117.714,45.3578 134.714,47.3578 150.5,59.5C 137.696,69.1169 130.029,81.7836 127.5,97.5 Z"/></g>
<g><path style="opacity:1" fill="#5d8e16" d="M 99.5,53.5 C 88.093,81.3591 97.093,98.0258 126.5,103.5C 126.205,101.265 126.539,99.2646 127.5,97.5C 127.5,101.5 127.5,105.5 127.5,109.5C 118.109,109.853 108.775,109.353 99.5,108C 80.7807,102.729 74.6141,90.8952 81,72.5C 85.3293,64.3379 91.4959,58.0046 99.5,53.5 Z"/></g>
<g><path style="opacity:1" fill="#76b31c" d="M 230.5,120.5 C 213.792,122.802 197.459,121.302 181.5,116C 165.363,108.228 158.863,95.3948 162,77.5C 162.984,74.0409 164.15,70.7075 165.5,67.5C 181.011,61.0186 196.678,60.852 212.5,67C 229.949,75.789 238.115,89.9556 237,109.5C 235.828,113.858 233.661,117.525 230.5,120.5 Z"/></g>
<g><path style="opacity:1" fill="#5d8e16" d="M 165.5,67.5 C 164.15,70.7075 162.984,74.0409 162,77.5C 158.863,95.3948 165.363,108.228 181.5,116C 197.459,121.302 213.792,122.802 230.5,120.5C 223.297,126.41 214.963,129.91 205.5,131C 194.5,131.667 183.5,131.667 172.5,131C 140.583,124.595 133.083,107.429 150,79.5C 154.745,74.8865 159.912,70.8865 165.5,67.5 Z"/></g>
<g><path style="opacity:1" fill="#5e8f16" d="M 251.5,97.5 C 254.662,98.8634 257.996,99.6967 261.5,100C 270.827,100.5 280.161,100.666 289.5,100.5C 287.747,102.223 285.747,103.723 283.5,105C 273.213,109.026 262.546,110.526 251.5,109.5C 251.5,105.5 251.5,101.5 251.5,97.5 Z"/></g>
<g><path style="opacity:1" fill="#42092d" d="M 94.5,121.5 C 78.5802,148.171 70.9136,177.171 71.5,208.5C 72.0097,260.502 90.843,304.502 128,340.5C 130.032,289.273 150.199,246.773 188.5,213C 194.122,208.198 200.122,204.031 206.5,200.5C 154.485,255.913 140.318,319.913 164,392.5C 168.032,402.897 172.865,412.897 178.5,422.5C 118.672,418.172 72.5054,390.839 40,340.5C 11.6371,291.828 6.63711,240.828 25,187.5C 36.0794,158.092 53.746,133.425 78,113.5C 83.1278,117.149 88.6278,119.815 94.5,121.5 Z"/></g>
<g><path style="opacity:1" fill="#530c39" d="M 206.5,200.5 C 200.122,204.031 194.122,208.198 188.5,213C 150.199,246.773 130.032,289.273 128,340.5C 90.843,304.502 72.0097,260.502 71.5,208.5C 70.9136,177.171 78.5802,148.171 94.5,121.5C 107.432,123.418 120.432,124.752 133.5,125.5C 142.914,137.211 155.248,143.711 170.5,145C 188.369,147.482 206.035,146.482 223.5,142C 232.858,138.978 240.191,133.311 245.5,125C 262.604,124.938 279.271,122.271 295.5,117C 297.587,116.208 299.421,115.041 301,113.5C 313.811,123.806 324.644,135.806 333.5,149.5C 284.57,150.685 242.237,167.685 206.5,200.5 Z"/></g>
<g><path style="opacity:0.999" fill="#4f0c37" d="M 467.5,222.5 C 472.489,227.803 476.489,233.803 479.5,240.5C 476.857,243.34 476.024,246.673 477,250.5C 493.334,280.843 499.668,313.177 496,347.5C 486.373,411.779 451.873,456.946 392.5,483C 337.209,503.006 285.209,496.673 236.5,464C 183.682,423.502 161.182,370.002 169,303.5C 182.274,238.441 220.108,194.608 282.5,172C 351.428,153.98 410.094,170.98 458.5,223C 461.555,223.634 464.555,223.468 467.5,222.5 Z"/></g>
<g><path style="opacity:1" fill="#020000" d="M 185.5,355.5 C 187.404,355.738 188.738,356.738 189.5,358.5C 190.36,361.632 191.36,364.632 192.5,367.5C 196.629,383.909 203.629,398.909 213.5,412.5C 224.916,427.917 238.583,440.917 254.5,451.5C 266.166,459.332 278.833,464.998 292.5,468.5C 308.162,473.792 324.162,475.459 340.5,473.5C 397.43,468.467 438.597,440.467 464,389.5C 487.287,332.229 479.287,279.896 440,232.5C 397.617,189.61 347.117,175.776 288.5,191C 231.796,211.713 198.296,251.88 188,311.5C 187.667,318.167 187.333,324.833 187,331.5C 185.841,334.493 183.675,336.16 180.5,336.5C 174.389,335.822 171.722,332.322 172.5,326C 176.099,265.095 204.099,219.428 256.5,189C 302.717,166.16 349.717,164.493 397.5,184C 456.961,213.882 488.294,262.216 491.5,329C 488.782,395.326 458.116,443.66 399.5,474C 342.469,498.079 288.469,492.746 237.5,458C 205.444,433.737 185.111,401.904 176.5,362.5C 176.866,356.802 179.866,354.468 185.5,355.5 Z"/></g>
<g><path style="opacity:1" fill="#d1193e" d="M 340.5,473.5 C 338.473,473.662 336.473,473.495 334.5,473C 340.208,470.82 345.208,467.654 349.5,463.5C 357.305,460.433 364.305,456.099 370.5,450.5C 382.194,451.728 393.194,449.561 403.5,444C 405.618,442.951 407.284,441.451 408.5,439.5C 436.467,427.408 447.8,406.241 442.5,376C 464.689,360.773 472.855,339.939 467,313.5C 462.478,301.106 454.644,291.439 443.5,284.5C 447.706,262.699 441.706,244.199 425.5,229C 411.108,218.606 395.108,214.939 377.5,218C 361.944,195.701 340.944,188.034 314.5,195C 301.995,199.904 292.329,208.07 285.5,219.5C 260.783,213.943 241.283,221.61 227,242.5C 222.809,249.629 220.309,257.296 219.5,265.5C 215.18,272.462 213.513,280.129 214.5,288.5C 202.905,298.013 196.239,310.347 194.5,325.5C 192.135,329.424 190.635,333.757 190,338.5C 189.753,345.361 189.587,352.028 189.5,358.5C 188.738,356.738 187.404,355.738 185.5,355.5C 184.432,354.566 183.099,354.232 181.5,354.5C 181.167,348.5 180.833,342.5 180.5,336.5C 183.675,336.16 185.841,334.493 187,331.5C 187.333,324.833 187.667,318.167 188,311.5C 198.296,251.88 231.796,211.713 288.5,191C 347.117,175.776 397.617,189.61 440,232.5C 479.287,279.896 487.287,332.229 464,389.5C 438.597,440.467 397.43,468.467 340.5,473.5 Z"/></g>
<g><path style="opacity:1" fill="#040203" d="M 408.5,439.5 C 398.47,442.004 388.47,442.004 378.5,439.5C 375.84,443.161 373.174,446.828 370.5,450.5C 364.305,456.099 357.305,460.433 349.5,463.5C 322.219,471.076 300.886,463.076 285.5,439.5C 262.299,445.149 243.466,438.482 229,419.5C 220.566,405.999 218.066,391.499 221.5,376C 203.745,363.998 194.745,347.164 194.5,325.5C 196.239,310.347 202.905,298.013 214.5,288.5C 217.654,287.178 219.988,285.011 221.5,282C 220.066,276.59 219.399,271.09 219.5,265.5C 220.309,257.296 222.809,249.629 227,242.5C 241.283,221.61 260.783,213.943 285.5,219.5C 292.329,208.07 301.995,199.904 314.5,195C 340.944,188.034 361.944,195.701 377.5,218C 395.108,214.939 411.108,218.606 425.5,229C 441.706,244.199 447.706,262.699 443.5,284.5C 454.644,291.439 462.478,301.106 467,313.5C 472.855,339.939 464.689,360.773 442.5,376C 447.8,406.241 436.467,427.408 408.5,439.5 Z"/></g>
<g><path style="opacity:1" fill="#fde6ea" d="M 375.5,251.5 C 374.91,255.603 373.91,259.603 372.5,263.5C 368.406,262.705 365.239,264.038 363,267.5C 355.187,286.628 345.687,304.795 334.5,322C 332.833,322.667 331.167,322.667 329.5,322C 314.939,299.709 303.439,275.876 295,250.5C 293.153,229.679 301.986,215.512 321.5,208C 345.053,203.859 360.886,213.026 369,235.5C 369.333,239.167 369.667,242.833 370,246.5C 371.076,249.079 372.909,250.746 375.5,251.5 Z"/></g>
<g><path style="opacity:1" fill="#fbbcce" d="M 265.5,231.5 C 270.547,231.337 275.547,231.671 280.5,232.5C 279.112,239.856 279.279,247.189 281,254.5C 284.985,268.303 290.485,281.47 297.5,294C 285.833,288.847 273.833,284.18 261.5,280C 253.057,277.524 244.557,277.024 236,278.5C 232.103,254.306 241.936,238.64 265.5,231.5 Z"/></g>
<g><path style="opacity:1" fill="#fbbccf" d="M 372.5,263.5 C 373.91,259.603 374.91,255.603 375.5,251.5C 379.683,252.154 382.516,250.488 384,246.5C 384.212,241.742 384.378,237.075 384.5,232.5C 406.963,229.81 421.796,239.144 429,260.5C 429.499,266.491 429.666,272.491 429.5,278.5C 418.252,276.556 407.252,277.389 396.5,281C 386.622,285.947 376.622,290.281 366.5,294C 370.067,287.699 373.234,281.199 376,274.5C 377.482,269.774 376.315,266.107 372.5,263.5 Z"/></g>
<g><path style="opacity:1" fill="#a61431" d="M 219.5,265.5 C 219.399,271.09 220.066,276.59 221.5,282C 219.988,285.011 217.654,287.178 214.5,288.5C 213.513,280.129 215.18,272.462 219.5,265.5 Z"/></g>
<g><path style="opacity:1" fill="#fde6ea" d="M 262.5,371.5 C 259.833,372.167 257.167,372.833 254.5,373.5C 253.797,371.284 252.464,369.451 250.5,368C 222.004,365.507 208.504,350.007 210,321.5C 216.281,300.95 230.114,291.117 251.5,292C 271.79,298.477 291.123,307.144 309.5,318C 311.959,321.75 314.292,325.583 316.5,329.5C 314.292,333.417 311.959,337.25 309.5,341C 294.748,349.043 279.748,356.543 264.5,363.5C 262.771,365.851 262.104,368.518 262.5,371.5 Z"/></g>
<g><path style="opacity:1" fill="#fde6ea" d="M 412.5,291.5 C 431.889,291.065 445.389,299.732 453,317.5C 457.913,343.903 447.413,360.403 421.5,367C 418.5,367.667 415.5,367.667 412.5,367C 391.954,360.477 372.454,351.644 354,340.5C 351.833,336.833 349.667,333.167 347.5,329.5C 349.708,325.583 352.041,321.75 354.5,318C 373.069,307.211 392.402,298.378 412.5,291.5 Z"/></g>
<g><path style="opacity:1" fill="#a71431" d="M 194.5,325.5 C 194.745,347.164 203.745,363.998 221.5,376C 218.066,391.499 220.566,405.999 229,419.5C 243.466,438.482 262.299,445.149 285.5,439.5C 300.886,463.076 322.219,471.076 349.5,463.5C 345.208,467.654 340.208,470.82 334.5,473C 336.473,473.495 338.473,473.662 340.5,473.5C 324.162,475.459 308.162,473.792 292.5,468.5C 293.239,468.631 293.906,468.464 294.5,468C 287.017,462.852 281.35,456.185 277.5,448C 269.875,449.732 262.209,450.898 254.5,451.5C 238.583,440.917 224.916,427.917 213.5,412.5C 214.048,404.123 215.214,395.789 217,387.5C 206.719,382.219 198.719,374.552 193,364.5C 192.517,365.448 192.351,366.448 192.5,367.5C 191.36,364.632 190.36,361.632 189.5,358.5C 189.587,352.028 189.753,345.361 190,338.5C 190.635,333.757 192.135,329.424 194.5,325.5 Z"/></g>
<g><path style="opacity:1" fill="#fce6ea" d="M 329.5,336.5 C 332.044,336.104 334.211,336.771 336,338.5C 349.406,360.313 360.406,383.313 369,407.5C 370.585,433.917 358.251,448.917 332,452.5C 305.738,448.908 293.405,433.908 295,407.5C 303.855,382.459 315.355,358.792 329.5,336.5 Z"/></g>
<g><path style="opacity:1" fill="#d1193e" d="M 213.5,412.5 C 203.629,398.909 196.629,383.909 192.5,367.5C 192.351,366.448 192.517,365.448 193,364.5C 198.719,374.552 206.719,382.219 217,387.5C 215.214,395.789 214.048,404.123 213.5,412.5 Z"/></g>
<g><path style="opacity:1" fill="#fbbccf" d="M 254.5,373.5 C 257.167,372.833 259.833,372.167 262.5,371.5C 265.152,375.314 268.819,376.481 273.5,375C 281.731,371.028 289.731,367.528 297.5,364.5C 288.616,379.988 282.616,396.488 279.5,414C 279.976,418.16 280.309,422.327 280.5,426.5C 257.446,429.289 242.279,419.623 235,397.5C 234.333,392.167 234.333,386.833 235,381.5C 240.05,381.449 245.216,381.282 250.5,381C 253.024,379.117 254.358,376.617 254.5,373.5 Z"/></g>
<g><path style="opacity:1" fill="#fbbccf" d="M 366.5,363.5 C 382.079,372.971 398.913,378.971 417,381.5C 421.176,381.192 425.342,380.858 429.5,380.5C 432.012,404.66 421.678,420.16 398.5,427C 394.167,427.667 389.833,427.667 385.5,427C 384.376,426.161 383.709,424.994 383.5,423.5C 384.886,416.797 384.719,410.13 383,403.5C 378.559,389.665 373.059,376.331 366.5,363.5 Z"/></g>
<g><path style="opacity:1" fill="#a61431" d="M 408.5,439.5 C 407.284,441.451 405.618,442.951 403.5,444C 393.194,449.561 382.194,451.728 370.5,450.5C 373.174,446.828 375.84,443.161 378.5,439.5C 388.47,442.004 398.47,442.004 408.5,439.5 Z"/></g>
<g><path style="opacity:1" fill="#d0193e" d="M 292.5,468.5 C 278.833,464.998 266.166,459.332 254.5,451.5C 262.209,450.898 269.875,449.732 277.5,448C 281.35,456.185 287.017,462.852 294.5,468C 293.906,468.464 293.239,468.631 292.5,468.5 Z"/></g>
</svg>
