<?xml version="1.0" encoding="UTF-8"?>
<!DOCTYPE svg PUBLIC "-//W3C//DTD SVG 1.1//EN" "http://www.w3.org/Graphics/SVG/1.1/DTD/svg11.dtd">
<svg xmlns="http://www.w3.org/2000/svg" version="1.1" width="512px" height="512px" style="shape-rendering:geometricPrecision; text-rendering:geometricPrecision; image-rendering:optimizeQuality; fill-rule:evenodd; clip-rule:evenodd" xmlns:xlink="http://www.w3.org/1999/xlink">
<g><path style="opacity:0.959" fill="#010100" d="M 207.5,-0.5 C 211.167,-0.5 214.833,-0.5 218.5,-0.5C 234.458,4.10303 249.458,10.9364 263.5,20C 266.667,21.8333 269.167,24.3333 271,27.5C 271.703,29.9291 271.537,32.2625 270.5,34.5C 267.754,37.3054 264.421,38.1387 260.5,37C 251.335,30.0056 241.335,24.5056 230.5,20.5C 225.49,18.0888 220.157,16.4221 214.5,15.5C 213.307,44.7977 223.64,68.9644 245.5,88C 252.631,92.8988 260.298,96.7322 268.5,99.5C 277.818,102.998 287.484,104.664 297.5,104.5C 294.761,88.0172 288.928,72.6839 280,58.5C 279.481,54.8679 280.647,51.8679 283.5,49.5C 288.273,47.7902 292.106,49.1235 295,53.5C 300.411,62.3223 304.744,71.6557 308,81.5C 318.826,54.0677 333.659,29.2344 352.5,7C 359.167,3.66667 365.833,3.66667 372.5,7C 381.886,15.2635 390.719,24.0968 399,33.5C 403.663,42.9099 401.83,50.7432 393.5,57C 377.18,67.3149 362.68,79.8149 350,94.5C 345.017,110.554 351.017,119.554 368,121.5C 372.923,121.192 377.423,119.692 381.5,117C 385.939,112.562 389.606,107.562 392.5,102C 399.538,98.5489 403.872,100.549 405.5,108C 398.538,129.159 383.871,138.825 361.5,137C 348.783,134.895 339.617,128.062 334,116.5C 331.626,120.75 329.126,124.916 326.5,129C 362.589,143.757 387.089,169.591 400,206.5C 407.671,227.861 411.005,249.861 410,272.5C 408.736,274.607 406.903,275.607 404.5,275.5C 399.882,276.051 397.049,274.051 396,269.5C 395.359,236.925 386.359,206.925 369,179.5C 343.725,148.298 310.892,134.798 270.5,139C 261.563,140.234 252.896,142.401 244.5,145.5C 201.555,161.28 174.055,191.28 162,235.5C 160.058,244.557 159.225,253.724 159.5,263C 160.17,279.03 161.17,295.03 162.5,311C 162.332,348.504 153.166,383.671 135,416.5C 129.083,425.331 123.417,434.331 118,443.5C 112.182,466.698 120.016,483.531 141.5,494C 144.117,494.822 146.784,495.322 149.5,495.5C 208.4,500.142 261.067,484.309 307.5,448C 355.226,410.067 384.059,360.901 394,300.5C 396.15,297.037 399.316,295.704 403.5,296.5C 405.371,296.859 406.871,297.859 408,299.5C 407.12,319.559 402.787,338.893 395,357.5C 364.439,427.395 313.272,475.229 241.5,501C 224.645,505.87 207.645,509.37 190.5,511.5C 176.5,511.5 162.5,511.5 148.5,511.5C 118.791,505.786 102.791,487.786 100.5,457.5C 100.253,449.488 101.753,441.821 105,434.5C 113.795,421.691 121.795,408.357 129,394.5C 145.756,356.704 150.756,317.371 144,276.5C 141.662,212.318 168.829,165.485 225.5,136C 247.806,126.847 270.806,122.013 294.5,121.5C 294.291,120.914 293.957,120.414 293.5,120C 240.948,115.992 209.781,88.1589 200,36.5C 198.602,27.2031 198.268,17.8697 199,8.5C 200.714,4.28983 203.547,1.28983 207.5,-0.5 Z"/></g>
<g><path style="opacity:1" fill="#259b34" d="M 230.5,20.5 C 228.898,43.2217 235.398,63.8883 250,82.5C 256.029,88.5493 262.196,94.216 268.5,99.5C 260.298,96.7322 252.631,92.8988 245.5,88C 223.64,68.9644 213.307,44.7977 214.5,15.5C 220.157,16.4221 225.49,18.0888 230.5,20.5 Z"/></g>
<g><path style="opacity:0.995" fill="#2fa843" d="M 230.5,20.5 C 241.335,24.5056 251.335,30.0056 260.5,37C 264.421,38.1387 267.754,37.3054 270.5,34.5C 275.948,38.6087 280.281,43.6087 283.5,49.5C 280.647,51.8679 279.481,54.8679 280,58.5C 288.928,72.6839 294.761,88.0172 297.5,104.5C 287.484,104.664 277.818,102.998 268.5,99.5C 262.196,94.216 256.029,88.5493 250,82.5C 235.398,63.8883 228.898,43.2217 230.5,20.5 Z"/></g>
<g><path style="opacity:1" fill="#7c553a" d="M 372.5,29.5 C 360.732,44.6925 350.732,61.0259 342.5,78.5C 330.312,93.0409 319.645,108.708 310.5,125.5C 319.514,88.4639 335.347,54.4639 358,23.5C 359.813,19.9328 362.313,19.0995 365.5,21C 368.447,23.4356 370.78,26.2689 372.5,29.5 Z"/></g>
<g><path style="opacity:1" fill="#905e3d" d="M 372.5,29.5 C 377.692,33.51 381.859,38.1767 385,43.5C 369.504,53.4903 355.338,65.157 342.5,78.5C 350.732,61.0259 360.732,44.6925 372.5,29.5 Z"/></g>
<g><path style="opacity:1" fill="#fea82b" d="M 404.5,275.5 C 404.623,282.529 404.29,289.529 403.5,296.5C 399.316,295.704 396.15,297.037 394,300.5C 384.059,360.901 355.226,410.067 307.5,448C 261.067,484.309 208.4,500.142 149.5,495.5C 129.889,477.943 125.722,457.276 137,433.5C 163.269,397.361 176.769,356.861 177.5,312C 175.841,295.201 174.508,278.368 173.5,261.5C 176.724,210.984 200.057,172.984 243.5,147.5C 244.298,147.043 244.631,146.376 244.5,145.5C 252.896,142.401 261.563,140.234 270.5,139C 310.892,134.798 343.725,148.298 369,179.5C 386.359,206.925 395.359,236.925 396,269.5C 397.049,274.051 399.882,276.051 404.5,275.5 Z"/></g>
<g><path style="opacity:1" fill="#f3971d" d="M 244.5,145.5 C 244.631,146.376 244.298,147.043 243.5,147.5C 200.057,172.984 176.724,210.984 173.5,261.5C 174.508,278.368 175.841,295.201 177.5,312C 176.769,356.861 163.269,397.361 137,433.5C 125.722,457.276 129.889,477.943 149.5,495.5C 146.784,495.322 144.117,494.822 141.5,494C 120.016,483.531 112.182,466.698 118,443.5C 123.417,434.331 129.083,425.331 135,416.5C 153.166,383.671 162.332,348.504 162.5,311C 161.17,295.03 160.17,279.03 159.5,263C 159.225,253.724 160.058,244.557 162,235.5C 174.055,191.28 201.555,161.28 244.5,145.5 Z"/></g>
</svg>
