<?xml version="1.0" encoding="UTF-8"?>
<!DOCTYPE svg PUBLIC "-//W3C//DTD SVG 1.1//EN" "http://www.w3.org/Graphics/SVG/1.1/DTD/svg11.dtd">
<svg xmlns="http://www.w3.org/2000/svg" version="1.1" width="512px" height="512px" style="shape-rendering:geometricPrecision; text-rendering:geometricPrecision; image-rendering:optimizeQuality; fill-rule:evenodd; clip-rule:evenodd" xmlns:xlink="http://www.w3.org/1999/xlink">
<g><path style="opacity:0.975" fill="#030302" d="M 361.5,-0.5 C 367.167,-0.5 372.833,-0.5 378.5,-0.5C 402.355,8.54299 410.855,25.543 404,50.5C 401.916,54.3359 399.583,58.0026 397,61.5C 368.167,90.3333 339.333,119.167 310.5,148C 318.039,158.688 320.539,170.521 318,183.5C 316.706,190.42 314.04,196.753 310,202.5C 298.096,214.408 285.596,225.575 272.5,236C 317.833,236.333 363.167,236.667 408.5,237C 425.906,239.739 437.073,249.572 442,266.5C 443.438,298.138 443.938,329.804 443.5,361.5C 459.224,361.063 474.891,361.563 490.5,363C 501.034,367.257 508.034,374.757 511.5,385.5C 511.5,394.833 511.5,404.167 511.5,413.5C 507.051,426.442 498.051,434.276 484.5,437C 474.506,437.5 464.506,437.666 454.5,437.5C 451.578,455.278 448.078,472.944 444,490.5C 439.403,501.27 431.57,508.27 420.5,511.5C 407.833,511.5 395.167,511.5 382.5,511.5C 380.396,509.628 379.063,507.295 378.5,504.5C 379.053,501.413 380.72,498.913 383.5,497C 394.5,496.667 405.5,496.333 416.5,496C 423.667,494.167 428.167,489.667 430,482.5C 432.029,472.853 433.863,463.187 435.5,453.5C 436.953,448.712 437.953,443.712 438.5,438.5C 439.043,438.44 439.376,438.107 439.5,437.5C 316.835,436.5 194.168,436.167 71.5,436.5C 71.2627,437.791 71.596,438.791 72.5,439.5C 74.9321,452.828 77.4321,466.161 80,479.5C 81.3183,488.148 86.1516,493.648 94.5,496C 119.498,496.5 144.498,496.667 169.5,496.5C 230.834,496.333 292.168,496.5 353.5,497C 357.518,497.863 359.518,500.363 359.5,504.5C 359.429,507.652 358.095,509.986 355.5,511.5C 267.167,511.5 178.833,511.5 90.5,511.5C 79.43,508.27 71.5966,501.27 67,490.5C 62.9222,472.944 59.4222,455.278 56.5,437.5C 46.4944,437.666 36.4944,437.5 26.5,437C 12.949,434.276 3.94895,426.442 -0.5,413.5C -0.5,404.167 -0.5,394.833 -0.5,385.5C 2.50031,374.378 9.50031,366.878 20.5,363C 36.1091,361.563 51.7757,361.063 67.5,361.5C 67.3334,332.498 67.5,303.498 68,274.5C 69.2731,257.447 77.7731,245.613 93.5,239C 102.062,237.191 110.728,236.024 119.5,235.5C 176.625,176.875 234.292,118.708 292.5,61C 296.353,58.8664 300.02,59.033 303.5,61.5C 305.832,64.6854 305.999,68.0187 304,71.5C 292.5,83 281,94.5 269.5,106C 274.035,110.703 278.702,115.203 283.5,119.5C 288.506,125.686 294.173,130.853 300.5,135C 329.667,105.833 358.833,76.6667 388,47.5C 391.893,40.9357 392.393,34.269 389.5,27.5C 384.453,17.1841 376.12,13.0175 364.5,15C 361.554,15.8061 358.888,17.1395 356.5,19C 346.5,29 336.5,39 326.5,49C 322.851,49.963 319.518,49.463 316.5,47.5C 314.05,44.3996 313.883,41.0663 316,37.5C 326.167,27.3333 336.333,17.1667 346.5,7C 351.324,3.92148 356.324,1.42148 361.5,-0.5 Z"/></g>
<g><path style="opacity:1" fill="#b67b71" d="M 389.5,27.5 C 382.976,25.582 376.976,26.7487 371.5,31C 341.965,60.368 312.632,89.868 283.5,119.5C 278.702,115.203 274.035,110.703 269.5,106C 281,94.5 292.5,83 304,71.5C 305.999,68.0187 305.832,64.6854 303.5,61.5C 307.833,56.8333 312.167,52.1667 316.5,47.5C 319.518,49.463 322.851,49.963 326.5,49C 336.5,39 346.5,29 356.5,19C 358.888,17.1395 361.554,15.8061 364.5,15C 376.12,13.0175 384.453,17.1841 389.5,27.5 Z"/></g>
<g><path style="opacity:1" fill="#c28e85" d="M 389.5,27.5 C 392.393,34.269 391.893,40.9357 388,47.5C 358.833,76.6667 329.667,105.833 300.5,135C 294.173,130.853 288.506,125.686 283.5,119.5C 312.632,89.868 341.965,60.368 371.5,31C 376.976,26.7487 382.976,25.582 389.5,27.5 Z"/></g>
<g><path style="opacity:1" fill="#ded0cb" d="M 272.5,130.5 C 230.201,172.299 188.035,214.299 146,256.5C 138.642,266.262 135.809,277.262 137.5,289.5C 127.71,280.287 124.21,268.954 127,255.5C 128.279,250.275 130.612,245.609 134,241.5C 175.167,200.333 216.333,159.167 257.5,118C 258.5,117.333 259.5,117.333 260.5,118C 264.704,122.036 268.704,126.202 272.5,130.5 Z"/></g>
<g><path style="opacity:1" fill="#f1e8e4" d="M 272.5,130.5 C 283.239,139.737 292.739,150.07 301,161.5C 304.907,172.284 303.907,182.617 298,192.5C 281.167,207.333 264.333,222.167 247.5,237C 238.167,237.333 228.833,237.667 219.5,238C 209.442,240.391 202.942,246.557 200,256.5C 199.667,263.5 199.333,270.5 199,277.5C 190.503,286.342 180.67,293.175 169.5,298C 157.11,300.919 146.443,298.086 137.5,289.5C 135.809,277.262 138.642,266.262 146,256.5C 188.035,214.299 230.201,172.299 272.5,130.5 Z"/></g>
<g><path style="opacity:1" fill="#fdd05a" d="M 128.5,302.5 C 127.503,321.993 127.17,341.66 127.5,361.5C 112.833,361.5 98.1667,361.5 83.5,361.5C 83.3334,330.832 83.5,300.165 84,269.5C 89.0844,256.422 98.5844,250.922 112.5,253C 108.918,272.421 114.252,288.921 128.5,302.5 Z"/></g>
<g><path style="opacity:1" fill="#fce259" d="M 127.5,361.5 C 127.17,341.66 127.503,321.993 128.5,302.5C 136.467,308.648 145.467,312.315 155.5,313.5C 156.919,314.451 158.585,314.784 160.5,314.5C 160.216,316.415 160.549,318.081 161.5,319.5C 165.38,336.536 176.047,344.036 193.5,342C 205.318,338.537 212.152,330.704 214,318.5C 214.333,298.5 214.667,278.5 215,258.5C 216.167,256 218,254.167 220.5,253C 283.5,252.333 346.5,252.333 409.5,253C 418.229,255.395 424.062,260.895 427,269.5C 427.5,300.165 427.667,330.832 427.5,361.5C 327.5,361.5 227.5,361.5 127.5,361.5 Z"/></g>
<g><path style="opacity:1" fill="#060502" d="M 306.5,263.5 C 310.426,263.047 313.592,264.38 316,267.5C 316.333,277.5 316.667,287.5 317,297.5C 321.647,307.241 328.814,309.741 338.5,305C 340.617,303.269 342.117,301.102 343,298.5C 343.333,288.5 343.667,278.5 344,268.5C 348.219,262.258 352.885,261.925 358,267.5C 358.333,286.5 358.667,305.5 359,324.5C 362.473,335.966 369.64,339.133 380.5,334C 383.106,332.062 384.939,329.562 386,326.5C 386.333,306.833 386.667,287.167 387,267.5C 392.034,262.171 396.701,262.504 401,268.5C 401.667,287.833 401.667,307.167 401,326.5C 394.417,348.708 380.25,355.875 358.5,348C 348.097,341.36 343.43,331.86 344.5,319.5C 322.655,326.828 308.489,319.495 302,297.5C 301.333,287.833 301.333,278.167 302,268.5C 303.025,266.313 304.525,264.646 306.5,263.5 Z"/></g>
<g><path style="opacity:1" fill="#f8cb58" d="M 198.5,297.5 C 199.165,300.984 199.499,304.651 199.5,308.5C 201.659,317.347 198.659,323.513 190.5,327C 183.241,328.424 178.408,325.59 176,318.5C 175.186,316.098 175.353,313.765 176.5,311.5C 184.881,308.319 192.214,303.653 198.5,297.5 Z"/></g>
<g><path style="opacity:1" fill="#83762e" d="M 155.5,313.5 C 157.5,313.5 159.5,313.5 161.5,313.5C 161.5,315.5 161.5,317.5 161.5,319.5C 160.549,318.081 160.216,316.415 160.5,314.5C 158.585,314.784 156.919,314.451 155.5,313.5 Z"/></g>
<g><path style="opacity:1" fill="#518ad0" d="M 482.5,377.5 C 360.166,377.333 237.833,377.5 115.5,378C 110.138,383.96 108.138,390.96 109.5,399C 108.372,407.434 110.372,414.934 115.5,421.5C 85.4981,421.667 55.4981,421.5 25.5,421C 20.6667,418.833 17.1667,415.333 15,410.5C 14.3333,403.167 14.3333,395.833 15,388.5C 17.5864,382.912 21.7531,379.079 27.5,377C 179.334,376.167 331.001,376.334 482.5,377.5 Z"/></g>
<g><path style="opacity:1" fill="#81ade2" d="M 482.5,377.5 C 493.517,380.337 498.184,387.504 496.5,399C 498.459,409.759 494.459,417.092 484.5,421C 361.5,421.5 238.5,421.667 115.5,421.5C 110.372,414.934 108.372,407.434 109.5,399C 108.138,390.96 110.138,383.96 115.5,378C 237.833,377.5 360.166,377.333 482.5,377.5 Z"/></g>
<g><path style="opacity:1" fill="#3b689c" d="M 438.5,438.5 C 377.668,437.833 316.668,437.5 255.5,437.5C 194.163,437.5 133.163,438.167 72.5,439.5C 71.596,438.791 71.2627,437.791 71.5,436.5C 194.168,436.167 316.835,436.5 439.5,437.5C 439.376,438.107 439.043,438.44 438.5,438.5 Z"/></g>
<g><path style="opacity:1" fill="#528fd7" d="M 438.5,438.5 C 437.953,443.712 436.953,448.712 435.5,453.5C 342.499,453.333 249.499,453.5 156.5,454C 158.663,464.46 160.83,474.96 163,485.5C 164.564,489.555 166.731,493.221 169.5,496.5C 144.498,496.667 119.498,496.5 94.5,496C 86.1516,493.648 81.3183,488.148 80,479.5C 77.4321,466.161 74.9321,452.828 72.5,439.5C 133.163,438.167 194.163,437.5 255.5,437.5C 316.668,437.5 377.668,437.833 438.5,438.5 Z"/></g>
<g><path style="opacity:0.999" fill="#81ade2" d="M 435.5,453.5 C 433.863,463.187 432.029,472.853 430,482.5C 428.167,489.667 423.667,494.167 416.5,496C 405.5,496.333 394.5,496.667 383.5,497C 380.72,498.913 379.053,501.413 378.5,504.5C 372.167,504.5 365.833,504.5 359.5,504.5C 359.518,500.363 357.518,497.863 353.5,497C 292.168,496.5 230.834,496.333 169.5,496.5C 166.731,493.221 164.564,489.555 163,485.5C 160.83,474.96 158.663,464.46 156.5,454C 249.499,453.5 342.499,453.333 435.5,453.5 Z"/></g>
</svg>
