<?xml version="1.0" encoding="UTF-8"?>
<!DOCTYPE svg PUBLIC "-//W3C//DTD SVG 1.1//EN" "http://www.w3.org/Graphics/SVG/1.1/DTD/svg11.dtd">
<svg xmlns="http://www.w3.org/2000/svg" version="1.1" width="512px" height="512px" style="shape-rendering:geometricPrecision; text-rendering:geometricPrecision; image-rendering:optimizeQuality; fill-rule:evenodd; clip-rule:evenodd" xmlns:xlink="http://www.w3.org/1999/xlink">
<g><path style="opacity:0.976" fill="#020200" d="M 417.5,289.5 C 417.027,293.772 414.694,296.438 410.5,297.5C 365.488,296.838 320.821,297.505 276.5,299.5C 269.177,331.778 262.177,364.111 255.5,396.5C 254.596,397.209 254.263,398.209 254.5,399.5C 334.5,399.5 414.5,399.5 494.5,399.5C 494.784,397.585 494.451,395.919 493.5,394.5C 486.657,362.127 479.657,329.794 472.5,297.5C 463.827,297.666 455.16,297.5 446.5,297C 445.584,296.626 444.75,296.126 444,295.5C 443.155,293.389 442.322,291.389 441.5,289.5C 441.933,286.805 443.266,284.638 445.5,283C 457.5,282.333 469.5,282.333 481.5,283C 482.931,283.465 484.097,284.299 485,285.5C 493.866,324.287 502.699,362.954 511.5,401.5C 511.5,426.167 511.5,450.833 511.5,475.5C 509.738,477.7 507.404,478.867 504.5,479C 417.833,479.667 331.167,479.667 244.5,479C 241.506,478.594 239.339,477.094 238,474.5C 237.333,450.5 237.333,426.5 238,402.5C 242.606,382.129 246.94,361.796 251,341.5C 240.033,347.4 228.867,352.9 217.5,358C 169.5,358.667 121.5,358.667 73.5,358C 71.2663,356.362 69.933,354.195 69.5,351.5C 70.1705,348.662 71.5038,346.162 73.5,344C 117.832,343.5 162.165,343.333 206.5,343.5C 206.5,281.167 206.5,218.833 206.5,156.5C 142.5,156.5 78.5,156.5 14.5,156.5C 14.5,218.833 14.5,281.167 14.5,343.5C 23.1731,343.334 31.8397,343.5 40.5,344C 43.278,345.713 44.9446,348.213 45.5,351.5C 45.067,354.195 43.7337,356.362 41.5,358C 28.8333,358.667 16.1667,358.667 3.5,358C 1.64977,357.31 0.316435,356.144 -0.5,354.5C -0.5,284.5 -0.5,214.5 -0.5,144.5C 75.253,105.957 151.586,68.4573 228.5,32C 299.224,31.0098 369.891,31.3432 440.5,33C 442.333,33.5 443.5,34.6667 444,36.5C 444.667,106.167 444.667,175.833 444,245.5C 443.07,247.552 441.57,249.052 439.5,250C 417.5,260.667 395.5,271.333 373.5,282C 386.833,282.333 400.167,282.667 413.5,283C 415.734,284.638 417.067,286.805 417.5,289.5 Z"/></g>
<g><path style="opacity:1" fill="#fee01b" d="M 213.5,140.5 C 156.331,140.832 99.3309,140.499 42.5,139.5C 104.807,109.014 167.14,78.5135 229.5,48C 287.5,47.3333 345.5,47.3333 403.5,48C 340.18,78.9355 276.847,109.769 213.5,140.5 Z"/></g>
<g><path style="opacity:1" fill="#9b9221" d="M 426.5,53.5 C 427.209,52.596 428.209,52.2627 429.5,52.5C 429.832,114.336 429.499,176.002 428.5,237.5C 429.163,175.824 428.496,114.491 426.5,53.5 Z"/></g>
<g><path style="opacity:1" fill="#fef036" d="M 426.5,53.5 C 428.496,114.491 429.163,175.824 428.5,237.5C 417.025,243.403 405.359,249.07 393.5,254.5C 393.5,192.833 393.5,131.167 393.5,69.5C 404.373,63.8967 415.373,58.5634 426.5,53.5 Z"/></g>
<g><path style="opacity:1" fill="#fef46a" d="M 393.5,69.5 C 393.5,131.167 393.5,192.833 393.5,254.5C 375.227,263.636 356.894,272.803 338.5,282C 315.167,282.333 291.833,282.667 268.5,283C 266.333,283.833 264.833,285.333 264,287.5C 261.862,299.365 259.028,311.031 255.5,322.5C 244.812,327.512 234.145,332.512 223.5,337.5C 222.501,276.336 222.168,215.002 222.5,153.5C 279.312,125.261 336.312,97.2612 393.5,69.5 Z"/></g>
<g><path style="opacity:1" fill="#988610" d="M 42.5,139.5 C 99.3309,140.499 156.331,140.832 213.5,140.5C 156.001,141.665 98.3348,141.832 40.5,141C 41.0442,140.283 41.7109,139.783 42.5,139.5 Z"/></g>
<g><path style="opacity:1" fill="#dcd35c" d="M 222.5,153.5 C 222.168,215.002 222.501,276.336 223.5,337.5C 223.44,338.043 223.107,338.376 222.5,338.5C 221.168,276.668 221.168,215.001 222.5,153.5 Z"/></g>
<g><path style="opacity:1" fill="#fef035" d="M 69.5,351.5 C 61.5,351.5 53.5,351.5 45.5,351.5C 44.9446,348.213 43.278,345.713 40.5,344C 31.8397,343.5 23.1731,343.334 14.5,343.5C 14.5,281.167 14.5,218.833 14.5,156.5C 78.5,156.5 142.5,156.5 206.5,156.5C 206.5,218.833 206.5,281.167 206.5,343.5C 162.165,343.333 117.832,343.5 73.5,344C 71.5038,346.162 70.1705,348.662 69.5,351.5 Z"/></g>
<g><path style="opacity:1" fill="#010100" d="M 174.5,179.5 C 178.603,178.769 182.103,179.769 185,182.5C 185.667,204.5 185.667,226.5 185,248.5C 183.982,251.683 181.815,253.016 178.5,252.5C 175.675,252.881 173.509,251.881 172,249.5C 171.333,227.167 171.333,204.833 172,182.5C 173.045,181.627 173.878,180.627 174.5,179.5 Z"/></g>
<g><path style="opacity:0.999" fill="#fee01b" d="M 417.5,289.5 C 424.5,289.5 431.5,289.5 438.5,289.5C 446.034,325.965 454.034,362.298 462.5,398.5C 393.159,399.163 324.159,398.497 255.5,396.5C 262.177,364.111 269.177,331.778 276.5,299.5C 321.264,298.838 365.931,298.172 410.5,297.5C 414.694,296.438 417.027,293.772 417.5,289.5 Z"/></g>
<g><path style="opacity:1" fill="#f4d505" d="M 438.5,289.5 C 439.5,289.5 440.5,289.5 441.5,289.5C 442.322,291.389 443.155,293.389 444,295.5C 444.75,296.126 445.584,296.626 446.5,297C 455.16,297.5 463.827,297.666 472.5,297.5C 479.657,329.794 486.657,362.127 493.5,394.5C 493.5,395.833 493.5,397.167 493.5,398.5C 483.167,398.5 472.833,398.5 462.5,398.5C 454.034,362.298 446.034,325.965 438.5,289.5 Z"/></g>
<g><path style="opacity:1" fill="#cbb315" d="M 410.5,297.5 C 365.931,298.172 321.264,298.838 276.5,299.5C 320.821,297.505 365.488,296.838 410.5,297.5 Z"/></g>
<g><path style="opacity:1" fill="#b9a313" d="M 493.5,394.5 C 494.451,395.919 494.784,397.585 494.5,399.5C 414.5,399.5 334.5,399.5 254.5,399.5C 254.263,398.209 254.596,397.209 255.5,396.5C 324.159,398.497 393.159,399.163 462.5,398.5C 472.833,398.5 483.167,398.5 493.5,398.5C 493.5,397.167 493.5,395.833 493.5,394.5 Z"/></g>
<g><path style="opacity:1" fill="#fef46a" d="M 463.5,414.5 C 463.5,430.833 463.5,447.167 463.5,463.5C 393.167,463.5 322.833,463.5 252.5,463.5C 252.5,447.167 252.5,430.833 252.5,414.5C 322.833,414.5 393.167,414.5 463.5,414.5 Z"/></g>
<g><path style="opacity:1" fill="#fff136" d="M 463.5,414.5 C 474.5,414.5 485.5,414.5 496.5,414.5C 496.5,430.833 496.5,447.167 496.5,463.5C 485.5,463.5 474.5,463.5 463.5,463.5C 463.5,447.167 463.5,430.833 463.5,414.5 Z"/></g>
</svg>
