<?xml version="1.0" encoding="UTF-8"?>
<!DOCTYPE svg PUBLIC "-//W3C//DTD SVG 1.1//EN" "http://www.w3.org/Graphics/SVG/1.1/DTD/svg11.dtd">
<svg xmlns="http://www.w3.org/2000/svg" version="1.1" width="512px" height="512px" style="shape-rendering:geometricPrecision; text-rendering:geometricPrecision; image-rendering:optimizeQuality; fill-rule:evenodd; clip-rule:evenodd" xmlns:xlink="http://www.w3.org/1999/xlink">
<g><path style="opacity:0.966" fill="#010100" d="M 348.5,-0.5 C 360.5,-0.5 372.5,-0.5 384.5,-0.5C 388.093,0.15259 391.759,0.985924 395.5,2C 398.321,4.14128 399.654,6.97461 399.5,10.5C 398.59,13.7926 396.59,16.2926 393.5,18C 340.312,8.75287 302.978,28.5862 281.5,77.5C 283.5,77.8333 285.5,78.1667 287.5,78.5C 308.087,90.6272 329.42,101.461 351.5,111C 386.783,119.906 415.617,110.073 438,81.5C 449.621,65.0918 458.454,47.2584 464.5,28C 462.288,27.2109 460.288,27.3775 458.5,28.5C 442.81,28.8293 427.477,26.6627 412.5,22C 408.651,19.6524 406.984,16.1524 407.5,11.5C 408.203,9.28428 409.536,7.45095 411.5,6C 415.167,5.33333 418.833,5.33333 422.5,6C 434.647,9.22706 446.981,10.5604 459.5,10C 465.195,8.14703 470.862,6.31369 476.5,4.5C 483.808,5.76083 486.641,10.0942 485,17.5C 478.558,53.8936 462.058,84.727 435.5,110C 403.901,134.893 369.568,139.227 332.5,123C 318.388,116.445 304.721,109.111 291.5,101C 286.068,97.9505 280.402,95.4505 274.5,93.5C 264.419,107.994 254.585,122.661 245,137.5C 244.528,141.634 245.028,145.634 246.5,149.5C 245.903,149.735 245.57,150.235 245.5,151C 248.002,161.012 249.335,171.178 249.5,181.5C 253.684,181.149 257.684,180.482 261.5,179.5C 267.555,178.556 272.722,175.889 277,171.5C 278.008,164.076 282.175,161.243 289.5,163C 294.366,166.933 295.533,171.766 293,177.5C 288.179,186.641 280.679,192.474 270.5,195C 245.8,202.731 222.133,200.564 199.5,188.5C 192.775,183.053 189.942,176.053 191,167.5C 196.156,160.898 201.49,160.898 207,167.5C 207.621,172.124 210.121,175.291 214.5,177C 220.281,179.428 226.281,180.928 232.5,181.5C 232.293,170.476 230.626,159.809 227.5,149.5C 222.693,128.411 215.693,108.078 206.5,88.5C 209.002,79.0558 214.502,76.7224 223,81.5C 228.388,92.2741 233.221,103.274 237.5,114.5C 244.914,104.006 252.081,93.3391 259,82.5C 268.745,56.4465 284.245,34.6132 305.5,17C 318.549,7.80198 332.883,1.96865 348.5,-0.5 Z"/></g>
<g><path style="opacity:1" fill="#a2e160" d="M 399.5,10.5 C 402.096,11.2653 404.763,11.5987 407.5,11.5C 406.984,16.1524 408.651,19.6524 412.5,22C 427.477,26.6627 442.81,28.8293 458.5,28.5C 459.239,28.369 459.906,28.5357 460.5,29C 446.476,40.5146 430.81,49.1812 413.5,55C 407.833,56 402.167,57 396.5,58C 359.088,59.2494 322.755,66.0827 287.5,78.5C 285.5,78.1667 283.5,77.8333 281.5,77.5C 302.978,28.5862 340.312,8.75287 393.5,18C 396.59,16.2926 398.59,13.7926 399.5,10.5 Z"/></g>
<g><path style="opacity:1" fill="#24b65e" d="M 458.5,28.5 C 460.288,27.3775 462.288,27.2109 464.5,28C 458.454,47.2584 449.621,65.0918 438,81.5C 415.617,110.073 386.783,119.906 351.5,111C 329.42,101.461 308.087,90.6272 287.5,78.5C 322.755,66.0827 359.088,59.2494 396.5,58C 402.167,57 407.833,56 413.5,55C 430.81,49.1812 446.476,40.5146 460.5,29C 459.906,28.5357 459.239,28.369 458.5,28.5 Z"/></g>
<g><path style="opacity:0.966" fill="#020000" d="M 219.5,148.5 C 217.851,153.138 214.518,155.471 209.5,155.5C 136.363,133.99 84.5293,157.99 54,227.5C 42.855,258.15 40.5217,289.483 47,321.5C 60.6905,382.081 90.1905,433.247 135.5,475C 146.206,482.853 157.873,488.853 170.5,493C 189.971,494.524 208.971,492.191 227.5,486C 235.833,485.333 244.167,485.333 252.5,486C 264.773,488.636 277.107,490.969 289.5,493C 312.671,495.898 332.671,489.398 349.5,473.5C 367.684,458.152 383.184,440.485 396,420.5C 418.472,385.549 433.138,347.549 440,306.5C 441.911,284.526 440.244,262.86 435,241.5C 431.583,230.835 427.749,220.335 423.5,210C 424.299,206.896 425.966,204.396 428.5,202.5C 431.546,201.115 434.546,201.281 437.5,203C 440.629,206.752 443.129,210.919 445,215.5C 460.648,256.82 462.648,298.82 451,341.5C 435.888,395.868 408.388,442.701 368.5,482C 352.87,496.312 334.87,506.146 314.5,511.5C 305.5,511.5 296.5,511.5 287.5,511.5C 272.52,507.967 257.354,504.967 242,502.5C 226.992,505.012 212.159,508.012 197.5,511.5C 188.5,511.5 179.5,511.5 170.5,511.5C 151.333,506.916 134.333,498.083 119.5,485C 69.3753,436.928 38.542,378.428 27,309.5C 20.5748,254.806 35.5748,207.139 72,166.5C 103.195,136.071 140.362,124.571 183.5,132C 194.97,133.826 206.137,136.659 217,140.5C 218.707,142.909 219.54,145.575 219.5,148.5 Z"/></g>
<g><path style="opacity:0.961" fill="#020000" d="M 421.5,191.5 C 418.201,192.376 414.868,192.543 411.5,192C 398.067,176.222 382.067,163.888 363.5,155C 348.429,148.752 332.762,146.418 316.5,148C 299.07,150.643 281.737,153.81 264.5,157.5C 258.056,158.29 254.056,155.623 252.5,149.5C 252.786,145.889 254.452,143.056 257.5,141C 271.868,138.158 286.201,135.158 300.5,132C 351.858,123.663 393.025,140.163 424,181.5C 424.657,185.192 423.824,188.525 421.5,191.5 Z"/></g>
<g><path style="opacity:1" fill="#dc2b2b" d="M 219.5,148.5 C 222.279,148.279 224.946,148.612 227.5,149.5C 230.626,159.809 232.293,170.476 232.5,181.5C 226.281,180.928 220.281,179.428 214.5,177C 210.121,175.291 207.621,172.124 207,167.5C 201.49,160.898 196.156,160.898 191,167.5C 189.942,176.053 192.775,183.053 199.5,188.5C 190.371,193.447 182.204,199.78 175,207.5C 150.02,236.41 136.354,270.077 134,308.5C 131.346,337.249 134.679,365.249 144,392.5C 165.194,438.86 201.028,466.026 251.5,474C 284.196,478.659 316.863,478.493 349.5,473.5C 332.671,489.398 312.671,495.898 289.5,493C 277.107,490.969 264.773,488.636 252.5,486C 244.167,485.333 235.833,485.333 227.5,486C 208.971,492.191 189.971,494.524 170.5,493C 157.873,488.853 146.206,482.853 135.5,475C 90.1905,433.247 60.6905,382.081 47,321.5C 40.5217,289.483 42.855,258.15 54,227.5C 84.5293,157.99 136.363,133.99 209.5,155.5C 214.518,155.471 217.851,153.138 219.5,148.5 Z"/></g>
<g><path style="opacity:1" fill="#f84747" d="M 421.5,191.5 C 424.083,194.997 426.416,198.664 428.5,202.5C 425.966,204.396 424.299,206.896 423.5,210C 427.749,220.335 431.583,230.835 435,241.5C 440.244,262.86 441.911,284.526 440,306.5C 433.138,347.549 418.472,385.549 396,420.5C 383.184,440.485 367.684,458.152 349.5,473.5C 316.863,478.493 284.196,478.659 251.5,474C 201.028,466.026 165.194,438.86 144,392.5C 134.679,365.249 131.346,337.249 134,308.5C 136.354,270.077 150.02,236.41 175,207.5C 182.204,199.78 190.371,193.447 199.5,188.5C 222.133,200.564 245.8,202.731 270.5,195C 280.679,192.474 288.179,186.641 293,177.5C 295.533,171.766 294.366,166.933 289.5,163C 282.175,161.243 278.008,164.076 277,171.5C 272.722,175.889 267.555,178.556 261.5,179.5C 259.712,179.785 258.045,179.452 256.5,178.5C 254.652,171.659 255.819,165.326 260,159.5C 261.622,158.901 263.122,158.234 264.5,157.5C 281.737,153.81 299.07,150.643 316.5,148C 332.762,146.418 348.429,148.752 363.5,155C 382.067,163.888 398.067,176.222 411.5,192C 414.868,192.543 418.201,192.376 421.5,191.5 Z"/></g>
<g><path style="opacity:1" fill="#d12a2a" d="M 246.5,149.5 C 248.5,149.5 250.5,149.5 252.5,149.5C 254.056,155.623 258.056,158.29 264.5,157.5C 263.122,158.234 261.622,158.901 260,159.5C 255.819,165.326 254.652,171.659 256.5,178.5C 258.045,179.452 259.712,179.785 261.5,179.5C 257.684,180.482 253.684,181.149 249.5,181.5C 249.335,171.178 248.002,161.012 245.5,151C 245.57,150.235 245.903,149.735 246.5,149.5 Z"/></g>
<g><path style="opacity:1" fill="#fb8080" d="M 375.5,211.5 C 389.804,211.939 399.638,218.939 405,232.5C 410.94,248.201 410.94,263.868 405,279.5C 397.416,294.696 386.25,298.196 371.5,290C 364.221,282.949 359.388,274.449 357,264.5C 352.556,247.264 355.556,231.597 366,217.5C 369.18,215.338 372.346,213.338 375.5,211.5 Z"/></g>
</svg>
