<?xml version="1.0" encoding="UTF-8"?>
<!DOCTYPE svg PUBLIC "-//W3C//DTD SVG 1.1//EN" "http://www.w3.org/Graphics/SVG/1.1/DTD/svg11.dtd">
<svg xmlns="http://www.w3.org/2000/svg" version="1.1" width="512px" height="512px" style="shape-rendering:geometricPrecision; text-rendering:geometricPrecision; image-rendering:optimizeQuality; fill-rule:evenodd; clip-rule:evenodd" xmlns:xlink="http://www.w3.org/1999/xlink">
<g><path style="opacity:0.97" fill="#020200" d="M 46.5,-0.5 C 65.5,-0.5 84.5,-0.5 103.5,-0.5C 131.164,3.74667 153.331,17.08 170,39.5C 183.47,17.3483 202.97,4.01495 228.5,-0.5C 233.833,-0.5 239.167,-0.5 244.5,-0.5C 246.136,0.748938 247.303,2.4156 248,4.5C 248.667,16.5 248.667,28.5 248,40.5C 247.426,42.492 246.259,43.992 244.5,45C 219.391,46.9409 206.391,60.4409 205.5,85.5C 230.757,90.9601 252.757,102.46 271.5,120C 292.205,140.067 308.205,163.4 319.5,190C 385.361,192.994 435.194,222.494 469,278.5C 494.881,332.069 492.548,384.403 462,435.5C 430.915,479.132 388.748,504.465 335.5,511.5C 322.5,511.5 309.5,511.5 296.5,511.5C 277.807,508.887 259.641,503.887 242,496.5C 227.827,503.835 212.994,508.835 197.5,511.5C 187.167,511.5 176.833,511.5 166.5,511.5C 135.482,506.074 108.982,492.074 87,469.5C 52.3279,430.468 31.9946,384.801 26,332.5C 18.383,269.248 30.7164,210.248 63,155.5C 73.3635,140.133 85.5301,126.3 99.5,114C 91.7046,107.873 84.2046,101.373 77,94.5C 75.253,90.8749 75.0863,87.2083 76.5,83.5C 79.7679,81.3439 83.1013,81.1772 86.5,83C 106.18,104.507 130.513,117.007 159.5,120.5C 159.998,116.781 159.164,113.447 157,110.5C 138.667,90.1667 120.333,69.8333 102,49.5C 100.5,41.6667 103.667,38.5 111.5,40C 127.068,56.7296 142.402,73.5629 157.5,90.5C 157.783,91.2891 158.283,91.9558 159,92.5C 159.499,86.5092 159.666,80.5092 159.5,74.5C 160.36,67.7075 161.527,61.0408 163,54.5C 149.464,33.8105 130.63,20.6438 106.5,15C 90.5305,13.6762 74.5305,13.1762 58.5,13.5C 58.596,19.198 59.096,24.8646 60,30.5C 62.7023,36.5928 63.7023,42.9262 63,49.5C 61.8978,50.949 60.7311,52.2823 59.5,53.5C 56.0295,54.1252 53.1962,53.1252 51,50.5C 45.0295,35.0403 42.6962,19.0403 44,2.5C 45.045,1.62656 45.8783,0.626561 46.5,-0.5 Z"/></g>
<g><path style="opacity:0.998" fill="#aadf32" d="M 159.5,74.5 C 158.833,79.8333 158.167,85.1667 157.5,90.5C 142.402,73.5629 127.068,56.7296 111.5,40C 103.667,38.5 100.5,41.6667 102,49.5C 120.333,69.8333 138.667,90.1667 157,110.5C 159.164,113.447 159.998,116.781 159.5,120.5C 130.513,117.007 106.18,104.507 86.5,83C 83.1013,81.1772 79.7679,81.3439 76.5,83.5C 69.8089,74.122 64.1423,64.122 59.5,53.5C 60.7311,52.2823 61.8978,50.949 63,49.5C 63.7023,42.9262 62.7023,36.5928 60,30.5C 59.096,24.8646 58.596,19.198 58.5,13.5C 74.5305,13.1762 90.5305,13.6762 106.5,15C 130.63,20.6438 149.464,33.8105 163,54.5C 161.527,61.0408 160.36,67.7075 159.5,74.5 Z"/></g>
<g><path style="opacity:1" fill="#463b98" d="M 225.5,14.5 C 228.167,14.5 230.833,14.5 233.5,14.5C 233.5,20.5 233.5,26.5 233.5,32.5C 211.586,36.2437 197.753,48.9104 192,70.5C 191.667,86.5 191.333,102.5 191,118.5C 188.604,121.013 185.604,122.013 182,121.5C 179.833,121.333 177.667,121.167 175.5,121C 175,120.5 174.5,120 174,119.5C 173.333,102.5 173.333,85.5 174,68.5C 181.179,40.8236 198.346,22.8236 225.5,14.5 Z"/></g>
<g><path style="opacity:1" fill="#6a8c1f" d="M 159.5,74.5 C 159.666,80.5092 159.499,86.5092 159,92.5C 158.283,91.9558 157.783,91.2891 157.5,90.5C 158.167,85.1667 158.833,79.8333 159.5,74.5 Z"/></g>
<g><path style="opacity:1" fill="#eeae47" d="M 205.5,100.5 C 232.482,107.319 254.982,121.319 273,142.5C 285.338,157.029 295.505,173.029 303.5,190.5C 236.543,197.336 188.043,230.67 158,290.5C 135.972,348.974 144.305,402.641 183,451.5C 195.815,465.291 209.982,477.291 225.5,487.5C 198.277,499.875 170.611,500.708 142.5,490C 111.68,475.849 87.847,454.016 71,424.5C 45.7497,377.684 35.083,327.684 39,274.5C 42.5964,224.343 60.2631,180.01 92,141.5C 98.7566,133.905 106.257,127.238 114.5,121.5C 139.493,134.074 165.827,138.24 193.5,134C 199.492,131.341 203.325,126.841 205,120.5C 205.5,113.842 205.666,107.175 205.5,100.5 Z"/></g>
<g><path style="opacity:1" fill="#f1d543" d="M 299.5,204.5 C 353.601,201.247 399.434,218.914 437,257.5C 478.034,308.049 483.701,362.382 454,420.5C 427.583,462.482 389.75,487.649 340.5,496C 284.884,503.069 237.384,486.903 198,447.5C 161.355,406.038 151.021,358.705 167,305.5C 185.213,258.954 218.046,227.788 265.5,212C 276.896,209.13 288.229,206.63 299.5,204.5 Z"/></g>
<g><path style="opacity:1" fill="#050402" d="M 322.5,237.5 C 323.026,240.808 321.693,242.974 318.5,244C 268.481,244.761 231.648,266.928 208,310.5C 190.761,357.044 200.594,396.877 237.5,430C 276.407,459.415 318.741,465.415 364.5,448C 419.156,422.187 440.323,379.687 428,320.5C 423.305,306.768 416.305,294.435 407,283.5C 406.282,280.593 406.782,277.926 408.5,275.5C 411.113,274.565 413.779,274.398 416.5,275C 445.742,308.258 453.576,346.091 440,388.5C 420.9,434.335 386.733,461.502 337.5,470C 286.286,476.269 243.786,460.102 210,421.5C 178.486,376.477 177.486,330.811 207,284.5C 235.357,248.573 272.523,230.74 318.5,231C 321.693,232.026 323.026,234.192 322.5,237.5 Z"/></g>
<g><path style="opacity:1" fill="#ededf8" d="M 322.5,237.5 C 334.301,238.727 345.968,240.727 357.5,243.5C 357.047,247.426 358.38,250.592 361.5,253C 365.534,254.937 369.701,256.437 374,257.5C 376.802,257.68 378.969,256.68 380.5,254.5C 390.907,260.04 400.24,267.04 408.5,275.5C 406.782,277.926 406.282,280.593 407,283.5C 416.305,294.435 423.305,306.768 428,320.5C 440.323,379.687 419.156,422.187 364.5,448C 318.741,465.415 276.407,459.415 237.5,430C 200.594,396.877 190.761,357.044 208,310.5C 231.648,266.928 268.481,244.761 318.5,244C 321.693,242.974 323.026,240.808 322.5,237.5 Z"/></g>
<g><path style="opacity:1" fill="#090805" d="M 380.5,254.5 C 378.969,256.68 376.802,257.68 374,257.5C 369.701,256.437 365.534,254.937 361.5,253C 358.38,250.592 357.047,247.426 357.5,243.5C 359.292,241.539 361.458,240.205 364,239.5C 370.561,240.945 376.227,243.945 381,248.5C 381.678,250.598 381.511,252.598 380.5,254.5 Z"/></g>
<g><path style="opacity:1" fill="#030304" d="M 308.5,263.5 C 328.314,261.157 339.481,269.824 342,289.5C 355.26,281.663 367.26,283.33 378,294.5C 384.133,304.788 383.967,314.955 377.5,325C 396.842,327.341 405.342,338.174 403,357.5C 398.906,369.643 390.406,376.143 377.5,377C 387.76,387.224 389.26,398.724 382,411.5C 371.546,422.466 359.712,424.3 346.5,417C 345,415.5 343.5,414 342,412.5C 339.511,432.316 328.345,440.816 308.5,438C 297.102,433.394 290.935,424.894 290,412.5C 281.869,421.316 272.035,423.816 260.5,420C 244.99,410.466 241.49,397.633 250,381.5C 251.5,380 253,378.5 254.5,377C 235.043,374.276 226.543,363.11 229,343.5C 233.664,332.081 242.164,325.915 254.5,325C 244.455,314.634 242.955,303.134 250,290.5C 260.355,279.365 272.189,277.532 285.5,285C 287,286.5 288.5,288 290,289.5C 291.032,277.077 297.199,268.41 308.5,263.5 Z"/></g>
<g><path style="opacity:1" fill="#463b96" d="M 311.5,277.5 C 325.123,276.935 329.623,282.935 325,295.5C 319,300.833 313,300.833 307,295.5C 302.667,287.957 304.167,281.957 311.5,277.5 Z"/></g>
<g><path style="opacity:1" fill="#463b98" d="M 266.5,294.5 C 278.462,293.439 283.295,298.773 281,310.5C 277.364,316.177 272.197,318.01 265.5,316C 257.273,308.345 257.607,301.178 266.5,294.5 Z"/></g>
<g><path style="opacity:1" fill="#463b98" d="M 352.5,298.5 C 367.125,298.277 371.458,304.777 365.5,318C 358.12,322.265 351.953,321.098 347,314.5C 346.333,311.167 346.333,307.833 347,304.5C 348.769,302.383 350.602,300.383 352.5,298.5 Z"/></g>
<g><path style="opacity:1" fill="#eaeaf4" d="M 295.5,304.5 C 306.389,314.854 318.389,316.188 331.5,308.5C 333.509,324.509 342.509,333.509 358.5,335.5C 352.486,344.835 351.986,354.502 357,364.5C 358.309,366.976 360.142,368.976 362.5,370.5C 346.495,372.505 337.495,381.505 335.5,397.5C 327.513,388.919 317.846,386.419 306.5,390C 302.591,391.782 299.258,394.282 296.5,397.5C 295.187,380.854 286.187,371.854 269.5,370.5C 278.081,362.513 280.581,352.846 277,341.5C 275.218,337.591 272.718,334.258 269.5,331.5C 286.387,330.282 295.053,321.282 295.5,304.5 Z"/></g>
<g><path style="opacity:1" fill="#040405" d="M 308.5,328.5 C 322.979,326.322 333.479,331.655 340,344.5C 343.854,359.288 339.021,370.122 325.5,377C 309.785,381.39 298.618,376.223 292,361.5C 288.452,345.929 293.952,334.929 308.5,328.5 Z"/></g>
<g><path style="opacity:1" fill="#463b97" d="M 249.5,339.5 C 260.865,339.028 265.699,344.362 264,355.5C 257,364.833 250,364.833 243,355.5C 241.062,348.389 243.229,343.056 249.5,339.5 Z"/></g>
<g><path style="opacity:1" fill="#463b97" d="M 374.5,339.5 C 385.865,339.028 390.699,344.362 389,355.5C 384.672,362.696 378.838,364.196 371.5,360C 367.741,356.257 366.574,351.757 368,346.5C 369.694,343.642 371.861,341.309 374.5,339.5 Z"/></g>
<g><path style="opacity:1" fill="#463b97" d="M 311.5,342.5 C 325.123,341.935 329.623,347.935 325,360.5C 319,365.833 313,365.833 307,360.5C 302.885,353.071 304.385,347.071 311.5,342.5 Z"/></g>
<g><path style="opacity:1" fill="#463b97" d="M 265.5,385.5 C 280.737,384.814 285.07,391.314 278.5,405C 265.833,410.324 259.666,406.157 260,392.5C 261.666,390.004 263.5,387.671 265.5,385.5 Z"/></g>
<g><path style="opacity:1" fill="#463b98" d="M 356.5,385.5 C 368.454,383.7 373.621,388.7 372,400.5C 367.225,408.12 361.058,409.453 353.5,404.5C 348.76,397.119 349.76,390.786 356.5,385.5 Z"/></g>
<g><path style="opacity:1" fill="#463b97" d="M 311.5,402.5 C 324.183,401.674 329.017,407.341 326,419.5C 319.953,425.728 313.62,426.062 307,420.5C 302.885,413.071 304.385,407.071 311.5,402.5 Z"/></g>
</svg>
