<?xml version="1.0" encoding="UTF-8"?>
<!DOCTYPE svg PUBLIC "-//W3C//DTD SVG 1.1//EN" "http://www.w3.org/Graphics/SVG/1.1/DTD/svg11.dtd">
<svg xmlns="http://www.w3.org/2000/svg" version="1.1" width="512px" height="512px" style="shape-rendering:geometricPrecision; text-rendering:geometricPrecision; image-rendering:optimizeQuality; fill-rule:evenodd; clip-rule:evenodd" xmlns:xlink="http://www.w3.org/1999/xlink">
<g><path style="opacity:0.942" fill="#000000" d="M 191.5,19.5 C 213.856,19.1609 236.19,19.6609 258.5,21C 261.231,23.8966 262.231,27.3966 261.5,31.5C 265.514,31.3345 269.514,31.5012 273.5,32C 275.333,32.5 276.5,33.6667 277,35.5C 277.5,50.4963 277.667,65.4963 277.5,80.5C 286.173,80.3336 294.84,80.5002 303.5,81C 304,81.5 304.5,82 305,82.5C 305.5,102.164 305.667,121.831 305.5,141.5C 306.833,141.5 308.167,141.5 309.5,141.5C 309.055,138.635 309.722,136.135 311.5,134C 336.833,132 362.167,132 387.5,134C 388,134.5 388.5,135 389,135.5C 389.667,142.5 389.667,149.5 389,156.5C 388.5,157.667 387.667,158.5 386.5,159C 361.833,161 337.167,161 312.5,159C 310.085,157.535 309.085,155.368 309.5,152.5C 305.818,152.665 302.152,152.499 298.5,152C 296.277,151.348 295.11,149.848 295,147.5C 295.037,154.348 294.037,161.014 292,167.5C 288.553,171.444 284.72,174.777 280.5,177.5C 281.623,182.38 283.79,186.713 287,190.5C 294.387,197.887 301.721,205.221 309,212.5C 312.711,217.59 315.044,223.257 316,229.5C 316.667,303.167 316.667,376.833 316,450.5C 312.723,469.234 302.556,482.734 285.5,491C 241.167,491.667 196.833,491.667 152.5,491C 135.628,483.463 125.462,470.63 122,452.5C 121.333,377.833 121.333,303.167 122,228.5C 123.245,222.678 125.578,217.345 129,212.5C 135.667,204.5 143,197.167 151,190.5C 154.268,185.964 156.435,180.964 157.5,175.5C 150.26,174.095 145.76,169.762 144,162.5C 143.333,155.833 143.333,149.167 144,142.5C 146.235,134.264 151.568,129.597 160,128.5C 160.833,116.153 160.666,103.82 159.5,91.5C 154.876,100.645 147.542,104.145 137.5,102C 125.821,96.1439 122.988,87.3106 129,75.5C 136.878,67.7198 145.378,66.8864 154.5,73C 156.371,75.37 158.038,77.87 159.5,80.5C 160.333,65.5111 160.833,50.5111 161,35.5C 161.5,33.6667 162.667,32.5 164.5,32C 168.486,31.5012 172.486,31.3345 176.5,31.5C 176.336,28.8127 176.503,26.146 177,23.5C 177.308,22.6919 177.808,22.0253 178.5,21.5C 182.967,20.8864 187.3,20.2197 191.5,19.5 Z M 171.5,42.5 C 173.167,42.5 174.833,42.5 176.5,42.5C 176.335,45.8499 176.502,49.1832 177,52.5C 177.5,53 178,53.5 178.5,54C 205.167,57.3067 231.834,57.3067 258.5,54C 259.667,53.5 260.5,52.6667 261,51.5C 261.498,48.5184 261.665,45.5184 261.5,42.5C 263.167,42.5 264.833,42.5 266.5,42.5C 266.5,55.1667 266.5,67.8333 266.5,80.5C 234.833,80.5 203.167,80.5 171.5,80.5C 171.5,67.8333 171.5,55.1667 171.5,42.5 Z M 171.5,91.5 C 203.167,91.5 234.833,91.5 266.5,91.5C 266.5,103.833 266.5,116.167 266.5,128.5C 234.833,128.5 203.167,128.5 171.5,128.5C 171.5,116.167 171.5,103.833 171.5,91.5 Z M 277.5,91.5 C 283.167,91.5 288.833,91.5 294.5,91.5C 294.667,108.837 294.5,126.17 294,143.5C 292.291,134.287 286.791,129.62 277.5,129.5C 277.5,116.833 277.5,104.167 277.5,91.5 Z"/></g>
<g><path style="opacity:1" fill="#ae6527" d="M 196.5,30.5 C 203.833,30.5 211.167,30.5 218.5,30.5C 218.5,35.5 218.5,40.5 218.5,45.5C 207.81,45.6785 197.143,45.3452 186.5,44.5C 186.5,39.8333 186.5,35.1667 186.5,30.5C 189.833,30.5 193.167,30.5 196.5,30.5 Z"/></g>
<g><path style="opacity:1" fill="#864a1f" d="M 196.5,30.5 C 214.67,29.4318 233.003,29.4318 251.5,30.5C 251.5,35.1667 251.5,39.8333 251.5,44.5C 240.518,45.2859 229.518,45.6192 218.5,45.5C 218.5,40.5 218.5,35.5 218.5,30.5C 211.167,30.5 203.833,30.5 196.5,30.5 Z"/></g>
<g><path style="opacity:1" fill="#a86125" d="M 139.5,79.5 C 146.799,78.3714 149.965,81.3714 149,88.5C 144.902,93.8036 140.902,93.8036 137,88.5C 135.927,84.9003 136.76,81.9003 139.5,79.5 Z"/></g>
<g><path style="opacity:1" fill="#394c7e" d="M 218.5,139.5 C 218.5,148.167 218.5,156.833 218.5,165.5C 198.497,165.667 178.497,165.5 158.5,165C 157.069,164.535 155.903,163.701 155,162.5C 154.333,155.833 154.333,149.167 155,142.5C 155.833,141.667 156.667,140.833 157.5,140C 177.831,139.5 198.164,139.333 218.5,139.5 Z"/></g>
<g><path style="opacity:1" fill="#252c43" d="M 218.5,139.5 C 238.836,139.333 259.169,139.5 279.5,140C 281.333,140.5 282.5,141.667 283,143.5C 283.667,149.5 283.667,155.5 283,161.5C 281.833,162.667 280.667,163.833 279.5,165C 259.169,165.5 238.836,165.667 218.5,165.5C 218.5,156.833 218.5,148.167 218.5,139.5 Z"/></g>
<g><path style="opacity:1" fill="#84491f" d="M 327.5,142.5 C 344.847,142.346 362.18,142.679 379.5,143.5C 379.5,145.5 379.5,147.5 379.5,149.5C 359.5,149.5 339.5,149.5 319.5,149.5C 319.5,147.5 319.5,145.5 319.5,143.5C 322.385,143.806 325.052,143.473 327.5,142.5 Z"/></g>
<g><path style="opacity:1" fill="#92a4cd" d="M 218.5,175.5 C 218.5,210.833 218.5,246.167 218.5,281.5C 201.801,281.147 185.134,281.647 168.5,283C 159.874,284.324 151.541,286.658 143.5,290C 142.333,291.167 141.167,292.333 140,293.5C 139.333,345.167 139.333,396.833 140,448.5C 142.374,459.197 148.207,467.363 157.5,473C 178.164,473.5 198.831,473.667 219.5,473.5C 219.5,476.167 219.5,478.833 219.5,481.5C 198.164,481.667 176.831,481.5 155.5,481C 142.455,474.42 134.622,463.92 132,449.5C 131.333,376.833 131.333,304.167 132,231.5C 132.994,225.847 135.327,220.847 139,216.5C 148.038,209.13 156.038,200.796 163,191.5C 165.536,186.393 167.369,181.06 168.5,175.5C 185.167,175.5 201.833,175.5 218.5,175.5 Z"/></g>
<g><path style="opacity:1" fill="#394c7e" d="M 218.5,175.5 C 235.5,175.5 252.5,175.5 269.5,175.5C 270.439,181.909 272.605,187.909 276,193.5C 284.024,202.523 292.358,211.19 301,219.5C 303.514,223.525 305.181,227.859 306,232.5C 306.667,304.167 306.667,375.833 306,447.5C 303.588,462.907 295.421,474.074 281.5,481C 260.836,481.5 240.169,481.667 219.5,481.5C 219.5,478.833 219.5,476.167 219.5,473.5C 239.503,473.667 259.503,473.5 279.5,473C 290.211,467.435 296.377,458.602 298,446.5C 298.167,419.5 298.333,392.5 298.5,365.5C 298.659,337.749 298.159,310.082 297,282.5C 295.426,281.152 293.593,280.486 291.5,280.5C 267.229,284.116 242.895,284.45 218.5,281.5C 218.5,246.167 218.5,210.833 218.5,175.5 Z"/></g>
<g><path style="opacity:1" fill="#050506" d="M 219.5,473.5 C 198.831,473.667 178.164,473.5 157.5,473C 148.207,467.363 142.374,459.197 140,448.5C 139.333,396.833 139.333,345.167 140,293.5C 141.167,292.333 142.333,291.167 143.5,290C 151.541,286.658 159.874,284.324 168.5,283C 185.134,281.647 201.801,281.147 218.5,281.5C 242.895,284.45 267.229,284.116 291.5,280.5C 293.593,280.486 295.426,281.152 297,282.5C 298.159,310.082 298.659,337.749 298.5,365.5C 298.333,392.5 298.167,419.5 298,446.5C 296.377,458.602 290.211,467.435 279.5,473C 259.503,473.5 239.503,473.667 219.5,473.5 Z"/></g>
<g><path style="opacity:1" fill="#fad42b" d="M 218.5,292.5 C 218.5,349.5 218.5,406.5 218.5,463.5C 199.164,463.667 179.83,463.5 160.5,463C 155.05,459.206 151.55,454.039 150,447.5C 149.333,397.833 149.333,348.167 150,298.5C 157.741,294.856 165.908,292.689 174.5,292C 189.339,291.172 204.006,291.339 218.5,292.5 Z"/></g>
<g><path style="opacity:1" fill="#f7bd2b" d="M 218.5,292.5 C 239.845,293.564 261.178,293.564 282.5,292.5C 284.167,292.5 285.833,292.5 287.5,292.5C 287.5,344.167 287.5,395.833 287.5,447.5C 286.391,454.108 283.057,459.275 277.5,463C 257.836,463.5 238.169,463.667 218.5,463.5C 218.5,406.5 218.5,349.5 218.5,292.5 Z"/></g>
<g><path style="opacity:1" fill="#836417" d="M 282.5,292.5 C 284.265,291.539 286.265,291.205 288.5,291.5C 288.832,343.669 288.499,395.669 287.5,447.5C 287.5,395.833 287.5,344.167 287.5,292.5C 285.833,292.5 284.167,292.5 282.5,292.5 Z"/></g>
</svg>
