<?xml version="1.0" encoding="UTF-8"?>
<!DOCTYPE svg PUBLIC "-//W3C//DTD SVG 1.1//EN" "http://www.w3.org/Graphics/SVG/1.1/DTD/svg11.dtd">
<svg xmlns="http://www.w3.org/2000/svg" version="1.1" width="512px" height="512px" style="shape-rendering:geometricPrecision; text-rendering:geometricPrecision; image-rendering:optimizeQuality; fill-rule:evenodd; clip-rule:evenodd" xmlns:xlink="http://www.w3.org/1999/xlink">
<g><path style="opacity:0.978" fill="#020101" d="M 173.5,-0.5 C 228.5,-0.5 283.5,-0.5 338.5,-0.5C 347.417,2.58294 353.584,8.58294 357,17.5C 358.611,35.1138 358.944,52.7805 358,70.5C 355.5,82.3333 348.333,89.5 336.5,92C 358.645,102.904 380.311,114.57 401.5,127C 428.158,151.621 434.658,180.788 421,214.5C 414.172,226.991 406.172,238.657 397,249.5C 384.141,270.99 380.474,293.99 386,318.5C 391.113,332.727 396.78,346.727 403,360.5C 412.071,388.452 419.738,416.785 426,445.5C 428.427,480.359 412.927,502.359 379.5,511.5C 297.167,511.5 214.833,511.5 132.5,511.5C 96.8973,500.663 81.7307,476.663 87,439.5C 93.0661,413.902 100.066,388.568 108,363.5C 113.391,349.719 119.057,336.052 125,322.5C 132.149,295.876 128.482,270.876 114,247.5C 103.702,236.187 95.3684,223.521 89,209.5C 78.213,177.212 85.3797,149.712 110.5,127C 115.505,122.678 120.505,122.511 125.5,126.5C 126.984,129.584 126.818,132.584 125,135.5C 96.937,158.107 91.937,185.107 110,216.5C 117.734,225.636 124.734,235.303 131,245.5C 135.017,253.195 138.184,261.195 140.5,269.5C 153.171,269.667 165.838,269.5 178.5,269C 194.53,238.057 220.03,221.557 255,219.5C 286.472,220.478 310.972,233.811 328.5,259.5C 330.027,262.719 331.693,265.885 333.5,269C 346.18,269.833 358.846,269.666 371.5,268.5C 373.774,261.283 376.607,254.283 380,247.5C 386.945,236.889 394.278,226.556 402,216.5C 416.312,193.551 415.979,170.885 401,148.5C 396.425,143.254 391.258,138.754 385.5,135C 358.167,120.667 330.833,106.333 303.5,92C 271.664,91.1693 239.997,91.336 208.5,92.5C 187.527,103.32 166.527,114.154 145.5,125C 143.833,125.667 142.167,125.667 140.5,125C 138.935,123.588 137.269,122.421 135.5,121.5C 134.9,117.484 135.9,113.984 138.5,111C 150.99,104.922 163.323,98.5887 175.5,92C 163.261,89.3625 156.095,81.8625 154,69.5C 153.072,52.1219 153.405,34.7886 155,17.5C 158.416,8.58294 164.583,2.58294 173.5,-0.5 Z"/></g>
<g><path style="opacity:1" fill="#669fd4" d="M 311.5,14.5 C 313.97,18.095 314.97,22.095 314.5,26.5C 313.778,26.9175 313.278,27.5842 313,28.5C 312.333,40.1667 312.333,51.8333 313,63.5C 313.717,64.0442 314.217,64.7109 314.5,65.5C 314.929,69.4587 313.929,72.9587 311.5,76C 267.168,76.5 222.835,76.6667 178.5,76.5C 174.67,75.5147 171.837,73.1813 170,69.5C 169.333,53.5 169.333,37.5 170,21.5C 171.5,18.6667 173.667,16.5 176.5,15C 221.499,14.5 266.499,14.3333 311.5,14.5 Z"/></g>
<g><path style="opacity:1" fill="#5786b3" d="M 311.5,14.5 C 319.174,14.3336 326.841,14.5003 334.5,15C 337.937,16.1049 340.437,18.2716 342,21.5C 342.667,37.5 342.667,53.5 342,69.5C 341.214,72.5827 339.381,74.7494 336.5,76C 309.547,77.1495 282.547,77.6495 255.5,77.5C 229.664,77.5 203.998,77.1666 178.5,76.5C 222.835,76.6667 267.168,76.5 311.5,76C 313.929,72.9587 314.929,69.4587 314.5,65.5C 318.825,67.316 322.659,66.6493 326,63.5C 326.812,51.454 326.646,39.454 325.5,27.5C 321.991,24.1216 318.325,23.7883 314.5,26.5C 314.97,22.095 313.97,18.095 311.5,14.5 Z"/></g>
<g><path style="opacity:1" fill="#010202" d="M 253.5,24.5 C 257.426,24.0466 260.592,25.3799 263,28.5C 263.667,39.5 263.667,50.5 263,61.5C 260.975,66.1447 257.475,67.6447 252.5,66C 250.951,64.786 249.785,63.286 249,61.5C 248.333,50.8333 248.333,40.1667 249,29.5C 250.025,27.313 251.525,25.6464 253.5,24.5 Z"/></g>
<g><path style="opacity:1" fill="#030406" d="M 284.5,24.5 C 289.152,23.984 292.652,25.6507 295,29.5C 295.667,40.1667 295.667,50.8333 295,61.5C 292.087,66.6894 287.92,67.8561 282.5,65C 281.874,64.2496 281.374,63.4162 281,62.5C 280.333,51.1667 280.333,39.8333 281,28.5C 282.376,27.2949 283.542,25.9616 284.5,24.5 Z"/></g>
<g><path style="opacity:1" fill="#040608" d="M 189.5,24.5 C 194.28,23.6409 197.78,25.3075 200,29.5C 200.667,40.1667 200.667,50.8333 200,61.5C 197.565,66.2238 193.731,67.7238 188.5,66C 187.299,65.0975 186.465,63.9308 186,62.5C 185.333,51.1667 185.333,39.8333 186,28.5C 187.376,27.2949 188.542,25.9616 189.5,24.5 Z"/></g>
<g><path style="opacity:1" fill="#040508" d="M 221.5,24.5 C 225.426,24.0466 228.592,25.3799 231,28.5C 231.667,39.8333 231.667,51.1667 231,62.5C 228.487,66.2115 224.987,67.3782 220.5,66C 218.951,64.786 217.785,63.286 217,61.5C 216.333,50.8333 216.333,40.1667 217,29.5C 218.059,27.3408 219.559,25.6741 221.5,24.5 Z"/></g>
<g><path style="opacity:1" fill="#010102" d="M 314.5,65.5 C 314.217,64.7109 313.717,64.0442 313,63.5C 312.333,51.8333 312.333,40.1667 313,28.5C 313.278,27.5842 313.778,26.9175 314.5,26.5C 318.325,23.7883 321.991,24.1216 325.5,27.5C 326.646,39.454 326.812,51.454 326,63.5C 322.659,66.6493 318.825,67.316 314.5,65.5 Z"/></g>
<g><path style="opacity:1" fill="#f6e19b" d="M 208.5,92.5 C 228.503,92.3334 248.503,92.5 268.5,93C 293.976,105.57 318.976,118.903 343.5,133C 364.728,151.355 371.895,174.188 365,201.5C 359.6,215.312 351.934,227.645 342,238.5C 337.914,245.003 334.081,251.67 330.5,258.5C 330.043,259.298 329.376,259.631 328.5,259.5C 310.972,233.811 286.472,220.478 255,219.5C 220.03,221.557 194.53,238.057 178.5,269C 165.838,269.5 153.171,269.667 140.5,269.5C 138.184,261.195 135.017,253.195 131,245.5C 124.734,235.303 117.734,225.636 110,216.5C 91.937,185.107 96.937,158.107 125,135.5C 126.818,132.584 126.984,129.584 125.5,126.5C 128.817,124.863 132.15,123.196 135.5,121.5C 137.269,122.421 138.935,123.588 140.5,125C 142.167,125.667 143.833,125.667 145.5,125C 166.527,114.154 187.527,103.32 208.5,92.5 Z"/></g>
<g><path style="opacity:1" fill="#d8c689" d="M 208.5,92.5 C 239.997,91.336 271.664,91.1693 303.5,92C 330.833,106.333 358.167,120.667 385.5,135C 391.258,138.754 396.425,143.254 401,148.5C 415.979,170.885 416.312,193.551 402,216.5C 394.278,226.556 386.945,236.889 380,247.5C 376.607,254.283 373.774,261.283 371.5,268.5C 358.846,269.666 346.18,269.833 333.5,269C 331.693,265.885 330.027,262.719 328.5,259.5C 329.376,259.631 330.043,259.298 330.5,258.5C 334.081,251.67 337.914,245.003 342,238.5C 351.934,227.645 359.6,215.312 365,201.5C 371.895,174.188 364.728,151.355 343.5,133C 318.976,118.903 293.976,105.57 268.5,93C 248.503,92.5 228.503,92.3334 208.5,92.5 Z"/></g>
<g><path style="opacity:1" fill="#fbb00e" d="M 246.5,235.5 C 251.959,235.103 257.292,235.603 262.5,237C 282.749,248.972 295.582,266.472 301,289.5C 301.808,293.027 301.641,296.36 300.5,299.5C 297.213,295.721 293.213,292.887 288.5,291C 277.391,287.61 266.391,283.943 255.5,280C 252.449,276.784 250.616,272.951 250,268.5C 248.033,266.73 245.7,265.73 243,265.5C 230.426,273.072 220.093,283.072 212,295.5C 203.202,311.129 205.035,325.296 217.5,338C 220.339,339.92 223.339,341.587 226.5,343C 244.768,344.627 263.101,344.96 281.5,344C 285.818,343.174 289.818,341.674 293.5,339.5C 286.815,354.043 276.149,365.543 261.5,374C 257.347,376.079 253.014,377.579 248.5,378.5C 247.657,376.827 246.324,375.66 244.5,375C 207.585,365.92 187.918,342.42 185.5,304.5C 187.42,272.156 203.42,249.989 233.5,238C 237.703,236.431 242.036,235.598 246.5,235.5 Z"/></g>
<g><path style="opacity:1" fill="#d3940d" d="M 246.5,235.5 C 283.074,232.881 308.574,248.547 323,282.5C 332.399,318.523 321.566,346.69 290.5,367C 282.44,370.765 274.106,373.765 265.5,376C 263.549,377.734 262.549,379.901 262.5,382.5C 258.167,382.5 253.833,382.5 249.5,382.5C 249.567,381.041 249.234,379.708 248.5,378.5C 253.014,377.579 257.347,376.079 261.5,374C 276.149,365.543 286.815,354.043 293.5,339.5C 306.096,327.818 308.429,314.484 300.5,299.5C 301.641,296.36 301.808,293.027 301,289.5C 295.582,266.472 282.749,248.972 262.5,237C 257.292,235.603 251.959,235.103 246.5,235.5 Z"/></g>
<g><path style="opacity:1" fill="#050402" d="M 300.5,299.5 C 308.429,314.484 306.096,327.818 293.5,339.5C 289.818,341.674 285.818,343.174 281.5,344C 263.101,344.96 244.768,344.627 226.5,343C 223.339,341.587 220.339,339.92 217.5,338C 205.035,325.296 203.202,311.129 212,295.5C 220.093,283.072 230.426,273.072 243,265.5C 245.7,265.73 248.033,266.73 250,268.5C 250.616,272.951 252.449,276.784 255.5,280C 266.391,283.943 277.391,287.61 288.5,291C 293.213,292.887 297.213,295.721 300.5,299.5 Z"/></g>
<g><path style="opacity:1" fill="#fcb10e" d="M 172.5,324.5 C 162.013,325.494 151.346,325.828 140.5,325.5C 141.666,319.51 142.833,313.51 144,307.5C 144.731,299.798 144.564,292.131 143.5,284.5C 153.167,284.5 162.833,284.5 172.5,284.5C 169.833,297.833 169.833,311.167 172.5,324.5 Z"/></g>
<g><path style="opacity:1" fill="#d3940c" d="M 371.5,325.5 C 360.654,325.828 349.987,325.494 339.5,324.5C 342.136,311.158 342.136,297.825 339.5,284.5C 349.19,284.168 358.856,284.502 368.5,285.5C 367.379,291.114 367.212,296.78 368,302.5C 368.952,310.211 370.119,317.878 371.5,325.5 Z"/></g>
<g><path style="opacity:1" fill="#f4df9a" d="M 239.5,285.5 C 243.114,289.608 247.447,292.775 252.5,295C 263.604,298.418 274.604,302.085 285.5,306C 291.174,311.052 292.008,316.886 288,323.5C 286.062,326.106 283.562,327.939 280.5,329C 264.167,329.667 247.833,329.667 231.5,329C 223.189,325.093 220.023,318.593 222,309.5C 226.12,300.264 231.953,292.264 239.5,285.5 Z"/></g>
<g><path style="opacity:1" fill="#322303" d="M 172.5,324.5 C 173.043,324.56 173.376,324.893 173.5,325.5C 162.34,326.824 151.34,326.824 140.5,325.5C 151.346,325.828 162.013,325.494 172.5,324.5 Z"/></g>
<g><path style="opacity:1" fill="#2a1d03" d="M 339.5,324.5 C 349.987,325.494 360.654,325.828 371.5,325.5C 360.66,326.824 349.66,326.824 338.5,325.5C 338.624,324.893 338.957,324.56 339.5,324.5 Z"/></g>
<g><path style="opacity:1" fill="#f6e19b" d="M 249.5,382.5 C 253.833,382.5 258.167,382.5 262.5,382.5C 263.211,386.71 265.711,389.044 270,389.5C 298.234,383.99 319.067,368.657 332.5,343.5C 333.496,343.414 334.329,343.748 335,344.5C 340.983,357.446 345.983,370.779 350,384.5C 356.689,407.421 362.189,430.588 366.5,454C 365.714,472.083 358.047,486.25 343.5,496.5C 274.499,496.667 205.499,496.5 136.5,496C 109.249,488.402 97.749,470.568 102,442.5C 106.84,423.473 111.84,404.473 117,385.5C 121.952,370.476 127.786,355.809 134.5,341.5C 149.167,340.167 163.833,340.167 178.5,341.5C 191.915,367.382 212.915,383.382 241.5,389.5C 246.05,389.281 248.717,386.948 249.5,382.5 Z"/></g>
<g><path style="opacity:1" fill="#d9c78a" d="M 343.5,496.5 C 358.047,486.25 365.714,472.083 366.5,454C 362.189,430.588 356.689,407.421 350,384.5C 345.983,370.779 340.983,357.446 335,344.5C 334.329,343.748 333.496,343.414 332.5,343.5C 332.804,342.85 333.137,342.183 333.5,341.5C 348.397,340.177 363.23,340.177 378,341.5C 393.891,377.56 405.058,415.06 411.5,454C 409.424,477.074 397.091,491.074 374.5,496C 364.172,496.5 353.839,496.666 343.5,496.5 Z"/></g>
</svg>
