<?xml version="1.0" encoding="UTF-8"?>
<!DOCTYPE svg PUBLIC "-//W3C//DTD SVG 1.1//EN" "http://www.w3.org/Graphics/SVG/1.1/DTD/svg11.dtd">
<svg xmlns="http://www.w3.org/2000/svg" version="1.1" width="512px" height="512px" style="shape-rendering:geometricPrecision; text-rendering:geometricPrecision; image-rendering:optimizeQuality; fill-rule:evenodd; clip-rule:evenodd" xmlns:xlink="http://www.w3.org/1999/xlink">
<g><path style="opacity:0.983" fill="#010101" d="M 511.5,147.5 C 511.5,157.833 511.5,168.167 511.5,178.5C 505.992,222.358 484.658,256.191 447.5,280C 424.503,294.16 399.837,304.494 373.5,311C 404.872,314.435 435.872,320.102 466.5,328C 482.332,331.996 496.166,339.496 508,350.5C 508.941,352.727 510.108,354.727 511.5,356.5C 511.5,361.5 511.5,366.5 511.5,371.5C 506.508,392.625 495.508,410.125 478.5,424C 454.014,443.245 426.68,457.245 396.5,466C 318.369,487.783 239.369,491.45 159.5,477C 117.345,469.843 78.3446,454.843 42.5,432C 26.7678,420.606 14.2678,406.44 5,389.5C 2.99182,383.768 1.15849,378.102 -0.5,372.5C -0.5,366.833 -0.5,361.167 -0.5,355.5C 5.64213,345.054 14.6421,337.887 26.5,334C 46.9703,326.632 67.9703,321.299 89.5,318C 90.3873,313.961 90.054,309.961 88.5,306C 64.492,299.829 42.8254,289.162 23.5,274C 10.6874,262.866 2.6874,249.032 -0.5,232.5C -0.5,223.5 -0.5,214.5 -0.5,205.5C 6.29326,170.877 27.2933,150.377 62.5,144C 68.1219,142.742 73.7885,141.742 79.5,141C 110.806,138.572 142.139,136.572 173.5,135C 197.646,133.174 220.646,127.174 242.5,117C 254.677,109.825 266.01,101.492 276.5,92C 291.98,75.8447 308.647,61.178 326.5,48C 352.652,30.9618 381.319,23.6284 412.5,26C 437.762,30.598 458.595,42.7647 475,62.5C 494.856,87.5809 507.023,115.914 511.5,147.5 Z"/></g>
<g><path style="opacity:1" fill="#5e7a84" d="M 414.5,44.5 C 440.277,61.8147 458.277,85.3147 468.5,115C 468.43,115.765 468.097,116.265 467.5,116.5C 458.992,91.8312 442.992,73.9978 419.5,63C 399.13,55.9142 379.463,57.5809 360.5,68C 353.332,72.0827 346.332,76.4161 339.5,81C 321.5,97.6667 303.5,114.333 285.5,131C 254.587,153.531 219.92,166.197 181.5,169C 157.536,170.898 133.536,172.231 109.5,173C 95.7783,174.228 82.1116,175.895 68.5,178C 39.1071,184.937 28.2737,203.104 36,232.5C 41.1142,242.614 48.6142,250.448 58.5,256C 70.8594,262.955 83.8594,268.455 97.5,272.5C 94.7755,277.678 92.4422,283.011 90.5,288.5C 69.9174,282.492 51.2508,272.992 34.5,260C 18.7123,244.292 13.2123,225.458 18,203.5C 23.4646,182.035 36.9646,168.535 58.5,163C 73.9118,158.989 89.5785,156.655 105.5,156C 142.174,156.138 178.507,152.805 214.5,146C 237.148,140.508 257.482,130.508 275.5,116C 290.468,102.7 305.134,89.0337 319.5,75C 337.913,59.6276 358.913,49.2942 382.5,44C 393.24,41.9092 403.906,42.0759 414.5,44.5 Z"/></g>
<g><path style="opacity:1" fill="#36464e" d="M 414.5,44.5 C 433.027,49.1866 448.527,58.8533 461,73.5C 484.548,102.618 495.548,135.951 494,173.5C 488.98,217.395 467.146,249.895 428.5,271C 416.916,277.246 404.916,282.413 392.5,286.5C 414.03,276.299 432.863,262.299 449,244.5C 461.196,229.984 469.029,213.651 472.5,195.5C 479.694,168.631 478.028,142.298 467.5,116.5C 468.097,116.265 468.43,115.765 468.5,115C 458.277,85.3147 440.277,61.8147 414.5,44.5 Z"/></g>
<g><path style="opacity:1" fill="#baa380" d="M 390.5,75.5 C 410.057,74.8499 425.891,82.1833 438,97.5C 461.157,129.762 465.824,164.428 452,201.5C 445.364,214.805 435.864,225.639 423.5,234C 405.182,245.658 385.515,254.324 364.5,260C 323.07,269.895 281.07,273.895 238.5,272C 225.967,261.7 211.634,255.033 195.5,252C 177.331,248.26 158.998,246.594 140.5,247C 130.041,248.153 120.375,251.486 111.5,257C 92.3978,254.451 75.0644,247.451 59.5,236C 49.6183,226.654 47.7849,215.821 54,203.5C 58.8571,199.488 64.3571,196.654 70.5,195C 80.0636,192.906 89.7303,191.573 99.5,191C 127.841,189.444 156.174,187.778 184.5,186C 235.522,181.479 279.522,161.812 316.5,127C 331.822,108.669 349.822,93.6687 370.5,82C 377.119,79.2926 383.786,77.126 390.5,75.5 Z"/></g>
<g><path style="opacity:1" fill="#040302" d="M 379.5,96.5 C 409.257,91.6191 429.757,102.952 441,130.5C 442.904,136.874 442.904,143.207 441,149.5C 435.522,154.002 430.855,153.335 427,147.5C 423.614,120.386 408.447,109.22 381.5,114C 376.333,115.04 371.333,116.54 366.5,118.5C 359.414,117.011 356.914,112.677 359,105.5C 360.167,104.333 361.333,103.167 362.5,102C 368.254,100.025 373.921,98.1919 379.5,96.5 Z"/></g>
<g><path style="opacity:1" fill="#5e7a84" d="M 472.5,195.5 C 469.029,213.651 461.196,229.984 449,244.5C 432.863,262.299 414.03,276.299 392.5,286.5C 357.362,298.25 321.196,304.584 284,305.5C 270.741,306.62 260.574,301.453 253.5,290C 281.966,289.23 310.299,286.897 338.5,283C 367.281,278.307 394.614,269.307 420.5,256C 445.942,242.73 463.275,222.563 472.5,195.5 Z"/></g>
<g><path style="opacity:1" fill="#fc9201" d="M 197.5,270.5 C 202.101,273.924 206.601,277.591 211,281.5C 216.785,289.621 222.952,297.454 229.5,305C 238.39,311.945 248.39,316.445 259.5,318.5C 268.945,323.482 278.945,326.982 289.5,329C 306.003,331.047 322.337,333.88 338.5,337.5C 344.052,340.871 349.219,344.871 354,349.5C 358.542,354.629 360.375,360.629 359.5,367.5C 365.282,367.311 370.948,367.978 376.5,369.5C 378.838,373.739 382.505,375.739 387.5,375.5C 393.103,379.698 396.437,385.032 397.5,391.5C 299.452,403.753 201.452,403.42 103.5,390.5C 102.631,388.283 102.298,385.95 102.5,383.5C 102.933,380.805 104.266,378.638 106.5,377C 110.833,376 115.167,375 119.5,374C 121.871,372.257 123.205,369.923 123.5,367C 116.714,351.027 111.547,334.527 108,317.5C 107.333,308.5 107.333,299.5 108,290.5C 112.928,273.917 124.095,265.083 141.5,264C 160.629,263.25 179.296,265.416 197.5,270.5 Z"/></g>
<g><path style="opacity:1" fill="#ec7900" d="M 197.5,270.5 C 211.255,272.793 222.755,279.127 232,289.5C 238.98,301.312 248.147,310.978 259.5,318.5C 248.39,316.445 238.39,311.945 229.5,305C 222.952,297.454 216.785,289.621 211,281.5C 206.601,277.591 202.101,273.924 197.5,270.5 Z"/></g>
<g><path style="opacity:1" fill="#36464e" d="M 364.5,329.5 C 396.84,331.217 428.84,336.383 460.5,345C 467.757,347.872 473.257,352.705 477,359.5C 477.425,365.153 475.258,369.653 470.5,373C 466.613,376.111 462.28,378.444 457.5,380C 449.713,382.072 441.879,383.905 434,385.5C 432.833,385.167 431.667,384.833 430.5,384.5C 422.729,369.446 410.396,361.112 393.5,359.5C 392.771,354.707 390.937,350.374 388,346.5C 384.5,343 381,339.5 377.5,336C 373.423,333.295 369.09,331.128 364.5,329.5 Z"/></g>
<g><path style="opacity:1" fill="#36464e" d="M 89.5,335.5 C 91.4672,335.261 93.3005,335.594 95,336.5C 96.8003,344.401 99.3003,352.067 102.5,359.5C 91.2547,364.988 85.2547,373.988 84.5,386.5C 62.7077,384.053 42.041,377.886 22.5,368C 19.6367,366.636 17.6367,364.47 16.5,361.5C 22.8791,354.971 30.5458,350.471 39.5,348C 55.9957,342.607 72.6624,338.441 89.5,335.5 Z"/></g>
<g><path style="opacity:1" fill="#ed7a00" d="M 338.5,337.5 C 348.782,340.206 358.449,344.373 367.5,350C 374.473,354.768 377.473,361.268 376.5,369.5C 370.948,367.978 365.282,367.311 359.5,367.5C 360.375,360.629 358.542,354.629 354,349.5C 349.219,344.871 344.052,340.871 338.5,337.5 Z"/></g>
<g><path style="opacity:1" fill="#040200" d="M 158.5,357.5 C 209.893,365.127 261.56,368.627 313.5,368C 318.836,367.53 324.17,367.03 329.5,366.5C 338.355,366.874 341.188,371.207 338,379.5C 336.786,381.049 335.286,382.215 333.5,383C 313.904,385.395 294.237,386.062 274.5,385C 235.351,382.932 196.351,379.265 157.5,374C 150.671,368.003 151.004,362.503 158.5,357.5 Z"/></g>
<g><path style="opacity:1" fill="#e67700" d="M 387.5,375.5 C 397.602,376.143 406.102,380.143 413,387.5C 413.432,388.6 412.932,389.267 411.5,389.5C 406.814,390.168 402.148,390.834 397.5,391.5C 396.437,385.032 393.103,379.698 387.5,375.5 Z"/></g>
<g><path style="opacity:1" fill="#8f5301" d="M 102.5,383.5 C 102.298,385.95 102.631,388.283 103.5,390.5C 102.275,389.848 101.608,388.681 101.5,387C 101.514,385.615 101.848,384.449 102.5,383.5 Z"/></g>
<g><path style="opacity:1" fill="#36454d" d="M 406.5,442.5 C 426.037,433.141 443.537,420.808 459,405.5C 461.266,401.958 463.766,398.625 466.5,395.5C 472.924,392.637 479.591,390.47 486.5,389C 469.615,410.792 448.281,426.792 422.5,437C 417.244,439.141 411.91,440.974 406.5,442.5 Z"/></g>
<g><path style="opacity:1" fill="#5f7c86" d="M 466.5,395.5 C 463.766,398.625 461.266,401.958 459,405.5C 443.537,420.808 426.037,433.141 406.5,442.5C 375.936,454.048 344.269,461.548 311.5,465C 252.814,471.463 194.814,467.796 137.5,454C 105.735,446.201 76.4016,433.201 49.5,415C 40.1294,407.297 31.7961,398.63 24.5,389C 35.0569,392.294 45.7236,395.628 56.5,399C 107.986,409.091 159.986,415.091 212.5,417C 284.601,419.717 356.268,415.383 427.5,404C 440.689,401.952 453.689,399.119 466.5,395.5 Z"/></g>
</svg>
