<?xml version="1.0" encoding="UTF-8"?>
<!DOCTYPE svg PUBLIC "-//W3C//DTD SVG 1.1//EN" "http://www.w3.org/Graphics/SVG/1.1/DTD/svg11.dtd">
<svg xmlns="http://www.w3.org/2000/svg" version="1.1" width="512px" height="512px" style="shape-rendering:geometricPrecision; text-rendering:geometricPrecision; image-rendering:optimizeQuality; fill-rule:evenodd; clip-rule:evenodd" xmlns:xlink="http://www.w3.org/1999/xlink">
<g><path style="opacity:0.974" fill="#020200" d="M 511.5,248.5 C 511.5,252.5 511.5,256.5 511.5,260.5C 510.441,262.555 508.775,263.889 506.5,264.5C 503.138,264.93 500.305,263.93 498,261.5C 494.37,223.08 480.87,188.747 457.5,158.5C 450.167,165.167 443.167,172.167 436.5,179.5C 452.815,231.385 448.982,281.718 425,330.5C 397.27,376.983 356.437,404.483 302.5,413C 271.463,416.803 240.963,414.303 211,405.5C 207.011,408.322 203.511,411.656 200.5,415.5C 196.702,418.796 193.036,422.296 189.5,426C 240.74,464.646 297.407,475.313 359.5,458C 369.133,455.179 378.467,451.679 387.5,447.5C 451.908,414.528 488.408,361.861 497,289.5C 498.945,285.61 502.112,283.943 506.5,284.5C 508.795,285.136 510.461,286.469 511.5,288.5C 511.5,292.833 511.5,297.167 511.5,301.5C 497.932,381.14 453.932,436.64 379.5,468C 339.085,482.647 297.919,485.147 256,475.5C 182.544,491.113 118.044,473.946 62.5,424C 26.3716,388.242 5.37157,345.075 -0.5,294.5C -0.5,281.167 -0.5,267.833 -0.5,254.5C 7.98571,186.997 40.6524,134.83 97.5,98C 125.708,81.1543 156.208,71.3209 189,68.5C 194.292,68.0541 197.459,70.3874 198.5,75.5C 197.678,77.3885 196.845,79.3885 196,81.5C 195.25,82.1258 194.416,82.6258 193.5,83C 173.361,84.625 154.028,89.2916 135.5,97C 196.849,101.098 249.349,124.598 293,167.5C 293.254,176.561 289.088,179.394 280.5,176C 246.452,143.474 206.119,122.807 159.5,114C 142.817,112.306 126.151,112.139 109.5,113.5C 103.752,113.41 98.7515,115.244 94.5,119C 86.1254,125.529 78.1254,132.529 70.5,140C 74.8206,140.499 79.1539,140.666 83.5,140.5C 111.697,141.398 138.697,147.565 164.5,159C 169.749,163.698 169.415,168.031 163.5,172C 161.167,172.667 158.833,172.667 156.5,172C 129.419,160.248 101.086,154.748 71.5,155.5C 65.4639,155.469 59.6306,156.469 54,158.5C 12.2062,216.06 3.53958,278.393 28,345.5C 44.7952,385.91 71.9619,417.41 109.5,440C 118.282,444.726 127.282,448.892 136.5,452.5C 164.676,464.356 194.009,468.189 224.5,464C 207.203,456.357 191.203,446.691 176.5,435C 172.417,430.755 171.583,425.922 174,420.5C 184.529,409.637 195.363,399.137 206.5,389C 276.193,393.885 333.693,370.051 379,317.5C 384.914,309.34 390.581,301.007 396,292.5C 400.777,228.255 379.61,174.421 332.5,131C 301.158,104.172 264.825,88.5057 223.5,84C 220.122,82.0575 218.122,79.2241 217.5,75.5C 218.962,71.5404 221.796,69.2071 226,68.5C 236.26,69.7755 246.427,71.6089 256.5,74C 264.805,76.7729 273.138,79.1063 281.5,81C 296.833,68.341 307.333,52.5076 313,33.5C 320.697,27.4388 326.697,28.7721 331,37.5C 334.627,53.0446 335.294,68.7113 333,84.5C 331.488,92.0373 328.988,99.204 325.5,106C 374.957,142.381 403.791,191.214 412,252.5C 419.081,226.949 421.748,200.949 420,174.5C 429.803,163.696 439.97,153.196 450.5,143C 456.97,139.205 462.803,140.038 468,145.5C 491.555,175.994 506.055,210.327 511.5,248.5 Z"/></g>
<g><path style="opacity:1" fill="#7b543a" d="M 317.5,62.5 C 319.463,73.3501 318.297,84.0167 314,94.5C 313.632,95.91 312.799,96.91 311.5,97.5C 306.299,94.737 301.299,91.737 296.5,88.5C 304.948,80.9007 311.948,72.2341 317.5,62.5 Z"/></g>
<g><path style="opacity:1" fill="#99b647" d="M 198.5,75.5 C 204.833,75.5 211.167,75.5 217.5,75.5C 218.122,79.2241 220.122,82.0575 223.5,84C 264.825,88.5057 301.158,104.172 332.5,131C 379.61,174.421 400.777,228.255 396,292.5C 390.581,301.007 384.914,309.34 379,317.5C 333.693,370.051 276.193,393.885 206.5,389C 195.363,399.137 184.529,409.637 174,420.5C 171.583,425.922 172.417,430.755 176.5,435C 191.203,446.691 207.203,456.357 224.5,464C 194.009,468.189 164.676,464.356 136.5,452.5C 131.138,447.967 125.138,444.134 118.5,441C 52.6666,393.943 23.1666,329.776 30,248.5C 34.9576,215.616 46.9576,185.616 66,158.5C 67.7189,157.131 69.5522,156.131 71.5,155.5C 101.086,154.748 129.419,160.248 156.5,172C 158.833,172.667 161.167,172.667 163.5,172C 169.415,168.031 169.749,163.698 164.5,159C 138.697,147.565 111.697,141.398 83.5,140.5C 83.3893,139.883 83.056,139.383 82.5,139C 91.114,129.88 100.114,121.38 109.5,113.5C 126.151,112.139 142.817,112.306 159.5,114C 206.119,122.807 246.452,143.474 280.5,176C 289.088,179.394 293.254,176.561 293,167.5C 249.349,124.598 196.849,101.098 135.5,97C 154.028,89.2916 173.361,84.625 193.5,83C 194.416,82.6258 195.25,82.1258 196,81.5C 196.845,79.3885 197.678,77.3885 198.5,75.5 Z"/></g>
<g><path style="opacity:1" fill="#88a031" d="M 109.5,113.5 C 100.114,121.38 91.114,129.88 82.5,139C 83.056,139.383 83.3893,139.883 83.5,140.5C 79.1539,140.666 74.8206,140.499 70.5,140C 78.1254,132.529 86.1254,125.529 94.5,119C 98.7515,115.244 103.752,113.41 109.5,113.5 Z"/></g>
<g><path style="opacity:1" fill="#89a231" d="M 71.5,155.5 C 69.5522,156.131 67.7189,157.131 66,158.5C 46.9576,185.616 34.9576,215.616 30,248.5C 23.1666,329.776 52.6666,393.943 118.5,441C 125.138,444.134 131.138,447.967 136.5,452.5C 127.282,448.892 118.282,444.726 109.5,440C 71.9619,417.41 44.7952,385.91 28,345.5C 3.53958,278.393 12.2062,216.06 54,158.5C 59.6306,156.469 65.4639,155.469 71.5,155.5 Z"/></g>
<g><path style="opacity:0.999" fill="#fab85f" d="M 506.5,264.5 C 506.5,271.167 506.5,277.833 506.5,284.5C 502.112,283.943 498.945,285.61 497,289.5C 488.408,361.861 451.908,414.528 387.5,447.5C 387.44,446.957 387.107,446.624 386.5,446.5C 319.132,467.213 257.132,456.88 200.5,415.5C 203.511,411.656 207.011,408.322 211,405.5C 240.963,414.303 271.463,416.803 302.5,413C 356.437,404.483 397.27,376.983 425,330.5C 448.982,281.718 452.815,231.385 436.5,179.5C 443.167,172.167 450.167,165.167 457.5,158.5C 480.87,188.747 494.37,223.08 498,261.5C 500.305,263.93 503.138,264.93 506.5,264.5 Z"/></g>
<g><path style="opacity:1" fill="#744d14" d="M 430.5,254.5 C 430.806,251.615 430.473,248.948 429.5,246.5C 429.892,244.821 430.392,243.154 431,241.5C 431.814,246.02 431.647,250.354 430.5,254.5 Z"/></g>
<g><path style="opacity:1" fill="#f8a42a" d="M 429.5,246.5 C 430.473,248.948 430.806,251.615 430.5,254.5C 426.254,317.523 395.588,362.023 338.5,388C 317.925,396.182 296.592,399.849 274.5,399C 342.808,381.692 391.308,340.859 420,276.5C 423.875,266.708 427.042,256.708 429.5,246.5 Z"/></g>
<g><path style="opacity:1" fill="#fba62c" d="M 200.5,415.5 C 257.132,456.88 319.132,467.213 386.5,446.5C 387.107,446.624 387.44,446.957 387.5,447.5C 378.467,451.679 369.133,455.179 359.5,458C 297.407,475.313 240.74,464.646 189.5,426C 193.036,422.296 196.702,418.796 200.5,415.5 Z"/></g>
</svg>
