<?xml version="1.0" encoding="UTF-8"?>
<!DOCTYPE svg PUBLIC "-//W3C//DTD SVG 1.1//EN" "http://www.w3.org/Graphics/SVG/1.1/DTD/svg11.dtd">
<svg xmlns="http://www.w3.org/2000/svg" version="1.1" width="512px" height="512px" style="shape-rendering:geometricPrecision; text-rendering:geometricPrecision; image-rendering:optimizeQuality; fill-rule:evenodd; clip-rule:evenodd" xmlns:xlink="http://www.w3.org/1999/xlink">
<g><path style="opacity:0.978" fill="#010100" d="M 210.5,-0.5 C 215.5,-0.5 220.5,-0.5 225.5,-0.5C 239.083,3.76606 246.416,13.0994 247.5,27.5C 246.134,35.2795 244.634,42.9462 243,50.5C 266.335,22.6361 295.835,5.63612 331.5,-0.5C 342.167,-0.5 352.833,-0.5 363.5,-0.5C 389.786,3.31662 414.786,11.4833 438.5,24C 442.796,28.5147 443.63,33.6814 441,39.5C 424.696,69.1391 402.196,92.9724 373.5,111C 361.845,117.441 349.512,122.108 336.5,125C 346.514,130.678 355.68,137.511 364,145.5C 368.401,150.769 368.568,156.102 364.5,161.5C 361.023,163.258 357.357,163.758 353.5,163C 313.354,126.735 266.687,114.068 213.5,125C 174.841,148.764 152.008,183.264 145,228.5C 143.768,245.641 144.768,262.641 148,279.5C 151.61,290.829 155.11,302.162 158.5,313.5C 157.713,321.448 153.379,324.615 145.5,323C 143.714,322.215 142.214,321.049 141,319.5C 112.903,256.618 119.569,197.952 161,143.5C 167.5,135.667 174.667,128.5 182.5,122C 120.998,116.921 73.4977,140.088 40,191.5C 16.0446,235.213 13.3779,280.213 32,326.5C 52.0886,374.504 84.5886,411.671 129.5,438C 143.711,445.272 158.044,452.272 172.5,459C 185.256,466.72 196.922,475.886 207.5,486.5C 213.77,479.725 220.77,473.891 228.5,469C 233.165,468.057 237.165,469.223 240.5,472.5C 243.22,477.433 242.72,482.099 239,486.5C 229.339,494.33 220.172,502.663 211.5,511.5C 208.833,511.5 206.167,511.5 203.5,511.5C 196.729,505.23 190.062,498.73 183.5,492C 176.676,486.755 169.676,481.755 162.5,477C 139.75,467.128 118.083,455.462 97.5,442C 43.8607,402.556 11.194,350.056 -0.5,284.5C -0.5,272.5 -0.5,260.5 -0.5,248.5C 9.63817,181.726 45.9715,135.56 108.5,110C 130.517,102.275 153.184,99.1088 176.5,100.5C 177.876,71.5751 182.71,43.2418 191,15.5C 195.32,7.33206 201.82,1.99873 210.5,-0.5 Z"/></g>
<g><path style="opacity:1" fill="#c38861" d="M 214.5,19.5 C 221.603,18.2018 225.603,21.0351 226.5,28C 219.271,52.98 215.604,78.48 215.5,104.5C 209.5,105.833 203.5,105.833 197.5,104.5C 197.915,77.6913 201.749,51.358 209,25.5C 210.36,22.9774 212.193,20.9774 214.5,19.5 Z"/></g>
<g><path style="opacity:1" fill="#45c071" d="M 333.5,19.5 C 362.737,18.4472 390.57,24.1139 417,36.5C 402.558,63.6033 381.392,84.1033 353.5,98C 318.921,110.392 284.921,108.892 251.5,93.5C 290.766,76.9536 331.766,68.787 374.5,69C 379.824,65.3599 381.324,60.5265 379,54.5C 373.863,50.0927 367.863,48.426 361,49.5C 324.106,51.3464 288.273,58.1797 253.5,70C 269.16,49.6643 288.827,34.6643 312.5,25C 319.514,22.705 326.514,20.8716 333.5,19.5 Z"/></g>
<g><path style="opacity:0.999" fill="#fd5959" d="M 364.5,161.5 C 374.793,172.067 383.126,184.067 389.5,197.5C 321.996,190.163 264.829,210.83 218,259.5C 183.388,303.796 177.388,351.796 200,403.5C 213.256,428.918 232.09,448.918 256.5,463.5C 250.843,465.993 245.51,468.993 240.5,472.5C 237.165,469.223 233.165,468.057 228.5,469C 220.77,473.891 213.77,479.725 207.5,486.5C 196.922,475.886 185.256,466.72 172.5,459C 158.044,452.272 143.711,445.272 129.5,438C 84.5886,411.671 52.0886,374.504 32,326.5C 13.3779,280.213 16.0446,235.213 40,191.5C 73.4977,140.088 120.998,116.921 182.5,122C 174.667,128.5 167.5,135.667 161,143.5C 119.569,197.952 112.903,256.618 141,319.5C 142.214,321.049 143.714,322.215 145.5,323C 153.379,324.615 157.713,321.448 158.5,313.5C 155.11,302.162 151.61,290.829 148,279.5C 144.768,262.641 143.768,245.641 145,228.5C 152.008,183.264 174.841,148.764 213.5,125C 266.687,114.068 313.354,126.735 353.5,163C 357.357,163.758 361.023,163.258 364.5,161.5 Z"/></g>
<g><path style="opacity:0.982" fill="#020100" d="M 511.5,345.5 C 511.5,358.5 511.5,371.5 511.5,384.5C 509.687,402.079 505.187,419.079 498,435.5C 495.026,442.57 489.859,445.236 482.5,443.5C 477.879,439.525 476.379,434.525 478,428.5C 485.364,413.029 489.698,396.696 491,379.5C 493.705,342.322 485.705,307.656 467,275.5C 460,265.167 453,254.833 446,244.5C 441.135,234.94 436.969,225.107 433.5,215C 422.572,216.393 411.572,217.559 400.5,218.5C 343.395,209.024 292.395,222.191 247.5,258C 212.761,289.219 200.261,327.719 210,373.5C 222.994,416.494 251.161,443.994 294.5,456C 334.69,494.476 380.024,501.809 430.5,478C 432.833,477.333 435.167,477.333 437.5,478C 439.66,479.332 441.66,480.832 443.5,482.5C 445.497,487.71 444.497,492.21 440.5,496C 425.544,503.708 409.878,508.875 393.5,511.5C 382.833,511.5 372.167,511.5 361.5,511.5C 331.502,507.335 305.502,494.835 283.5,474C 274.256,471.042 265.256,467.542 256.5,463.5C 232.09,448.918 213.256,428.918 200,403.5C 177.388,351.796 183.388,303.796 218,259.5C 264.829,210.83 321.996,190.163 389.5,197.5C 397.803,198.287 406.137,198.12 414.5,197C 423.633,195.3 432.633,193.133 441.5,190.5C 444.366,191.182 446.866,192.516 449,194.5C 452.748,209.075 458.082,223.075 465,236.5C 490.902,268.366 506.402,304.699 511.5,345.5 Z"/></g>
<g><path style="opacity:0.999" fill="#f3c66d" d="M 482.5,443.5 C 479.179,448.129 475.846,452.796 472.5,457.5C 463.753,452.082 457.753,454.249 454.5,464C 455.021,467.066 456.021,469.899 457.5,472.5C 453.112,476.221 448.445,479.555 443.5,482.5C 441.66,480.832 439.66,479.332 437.5,478C 435.167,477.333 432.833,477.333 430.5,478C 380.024,501.809 334.69,494.476 294.5,456C 251.161,443.994 222.994,416.494 210,373.5C 200.261,327.719 212.761,289.219 247.5,258C 292.395,222.191 343.395,209.024 400.5,218.5C 411.572,217.559 422.572,216.393 433.5,215C 436.969,225.107 441.135,234.94 446,244.5C 453,254.833 460,265.167 467,275.5C 485.705,307.656 493.705,342.322 491,379.5C 489.698,396.696 485.364,413.029 478,428.5C 476.379,434.525 477.879,439.525 482.5,443.5 Z"/></g>
<g><path style="opacity:1" fill="#030201" d="M 387.5,268.5 C 391.514,268.334 395.514,268.501 399.5,269C 401.081,269.707 402.581,270.54 404,271.5C 420.14,299.393 427.14,329.393 425,361.5C 422.694,379.616 414.527,394.449 400.5,406C 378.616,421.299 354.282,430.299 327.5,433C 320.833,433.667 314.167,433.667 307.5,433C 303.455,428.418 300.289,423.251 298,417.5C 285.647,390.718 281.314,362.718 285,333.5C 292.215,310.552 306.715,294.052 328.5,284C 347.513,275.843 367.179,270.676 387.5,268.5 Z"/></g>
<g><path style="opacity:1" fill="#fd5959" d="M 386.5,288.5 C 390.224,288.05 392.391,289.717 393,293.5C 402.877,315.131 406.877,337.798 405,361.5C 399.906,381.266 387.739,394.766 368.5,402C 352.173,408.832 335.173,412.665 317.5,413.5C 311.074,397.719 306.574,381.386 304,364.5C 299.837,342.309 306.337,324.142 323.5,310C 342.902,297.922 363.902,290.755 386.5,288.5 Z"/></g>
<g><path style="opacity:1" fill="#0d0403" d="M 159.5,343.5 C 170.147,342.98 174.647,347.98 173,358.5C 166.828,366.287 160.828,366.287 155,358.5C 154.627,356.302 154.127,354.135 153.5,352C 154.927,348.743 156.927,345.91 159.5,343.5 Z"/></g>
<g><path style="opacity:0.937" fill="#060402" d="M 472.5,457.5 C 477.408,466.759 474.742,472.759 464.5,475.5C 461.862,475.07 459.529,474.07 457.5,472.5C 456.021,469.899 455.021,467.066 454.5,464C 457.753,454.249 463.753,452.082 472.5,457.5 Z"/></g>
</svg>
