<?xml version="1.0" encoding="UTF-8"?>
<!DOCTYPE svg PUBLIC "-//W3C//DTD SVG 1.1//EN" "http://www.w3.org/Graphics/SVG/1.1/DTD/svg11.dtd">
<svg xmlns="http://www.w3.org/2000/svg" version="1.1" width="512px" height="512px" style="shape-rendering:geometricPrecision; text-rendering:geometricPrecision; image-rendering:optimizeQuality; fill-rule:evenodd; clip-rule:evenodd" xmlns:xlink="http://www.w3.org/1999/xlink">
<g><path style="opacity:0.964" fill="#020202" d="M 434.5,183.5 C 431.653,186.909 427.987,188.076 423.5,187C 412.672,182.004 401.672,177.504 390.5,173.5C 282.535,142.454 186.701,164.121 103,238.5C 102.333,250.5 102.333,262.5 103,274.5C 143.596,312.053 191.096,336.886 245.5,349C 249.488,350.484 251.154,353.317 250.5,357.5C 249.282,361.38 246.615,363.38 242.5,363.5C 233.072,361.308 223.738,359.141 214.5,357C 235.319,373.575 256.319,389.908 277.5,406C 281.625,406.854 285.625,406.52 289.5,405C 298.5,393.333 307.5,381.667 316.5,370C 302.798,369.862 289.131,369.195 275.5,368C 271.512,366.516 269.846,363.683 270.5,359.5C 272.949,353.952 277.282,351.952 283.5,353.5C 358.566,356.754 425.566,335.254 484.5,289C 488.194,286.313 490.694,282.813 492,278.5C 492.333,270.833 492.667,263.167 493,255.5C 494.616,251.442 495.783,247.275 496.5,243C 496.435,240.409 495.935,237.909 495,235.5C 491.5,230.667 487.333,226.5 482.5,223C 473.44,216.275 464.107,209.942 454.5,204C 449.84,200.853 448.507,196.686 450.5,191.5C 453.007,188.964 456.007,188.131 459.5,189C 476.515,198.428 492.015,209.928 506,223.5C 508.326,227.017 510.16,230.683 511.5,234.5C 511.5,239.833 511.5,245.167 511.5,250.5C 510.678,252.389 509.845,254.389 509,256.5C 509.201,267.389 507.868,278.055 505,288.5C 500.876,294.958 495.71,300.458 489.5,305C 444.497,339.153 393.831,360.153 337.5,368C 326.788,382.589 315.955,397.089 305,411.5C 292.431,424.28 278.597,425.78 263.5,416C 230.833,390 198.167,364 165.5,338C 139.737,324.457 116.071,307.957 94.5,288.5C 74.0163,307.15 53.683,325.983 33.5,345C 18.8219,353.269 7.48858,350.103 -0.5,335.5C -0.5,330.833 -0.5,326.167 -0.5,321.5C 4.8442,300.274 9.51086,278.774 13.5,257C 9.38594,234.921 4.71927,213.088 -0.5,191.5C -0.5,186.833 -0.5,182.167 -0.5,177.5C 7.36211,163.69 18.3621,160.523 32.5,168C 38.9689,173.468 45.1356,179.301 51,185.5C 51.7358,188.592 51.5691,191.592 50.5,194.5C 47.9928,197.036 44.9928,197.869 41.5,197C 35.1667,191.333 28.8333,185.667 22.5,180C 15.8336,179.004 13.3336,181.837 15,188.5C 20.0281,211.141 24.8614,233.808 29.5,256.5C 26.9101,268.449 24.5768,280.449 22.5,292.5C 19.4092,304.442 16.7425,316.609 14.5,329C 15.2077,333.051 17.541,334.718 21.5,334C 43.6338,314.201 65.4671,294.035 87,273.5C 87.6667,262.167 87.6667,250.833 87,239.5C 82.3314,235.663 77.8314,231.663 73.5,227.5C 69.5298,224.361 66.0298,220.695 63,216.5C 62.2069,213.259 62.7069,210.259 64.5,207.5C 67.6004,205.05 70.9337,204.883 74.5,207C 80.8021,212.301 86.8021,217.968 92.5,224C 93.5,224.667 94.5,224.667 95.5,224C 117.592,204.445 141.925,188.112 168.5,175C 213.998,130.744 267.998,101.911 330.5,88.5C 340.298,88.649 348.131,92.649 354,100.5C 361.837,118.017 369.671,135.517 377.5,153C 395.7,158.288 413.366,164.955 430.5,173C 434.048,175.591 435.382,179.091 434.5,183.5 Z"/></g>
<g><path style="opacity:1" fill="#9ba8b6" d="M 346.5,122.5 C 325.732,120.421 305.065,119.088 284.5,118.5C 299.128,112.124 314.295,107.458 330,104.5C 334.656,103.995 338.323,105.662 341,109.5C 343.327,113.653 345.16,117.987 346.5,122.5 Z"/></g>
<g><path style="opacity:1" fill="#8b9aa5" d="M 284.5,118.5 C 305.065,119.088 325.732,120.421 346.5,122.5C 350.451,131.076 354.451,139.743 358.5,148.5C 357.5,148.833 356.5,149.167 355.5,149.5C 307.021,140.372 259.354,143.372 212.5,158.5C 211.304,158.154 211.304,157.654 212.5,157C 234.869,141.313 258.869,128.479 284.5,118.5 Z"/></g>
<g><path style="opacity:1" fill="#d7e5ea" d="M 390.5,173.5 C 387.821,196.164 381.154,217.497 370.5,237.5C 369.684,235.856 368.35,234.69 366.5,234C 348.439,228.535 330.439,222.869 312.5,217C 303.027,215.989 296.194,219.823 292,228.5C 291.333,246.833 291.333,265.167 292,283.5C 294.247,292.032 299.747,296.366 308.5,296.5C 319.32,294.449 329.987,291.782 340.5,288.5C 340.938,288.435 341.272,288.601 341.5,289C 324.131,312.218 304.797,333.718 283.5,353.5C 277.282,351.952 272.949,353.952 270.5,359.5C 263.758,359.489 257.092,358.822 250.5,357.5C 251.154,353.317 249.488,350.484 245.5,349C 191.096,336.886 143.596,312.053 103,274.5C 102.333,262.5 102.333,250.5 103,238.5C 186.701,164.121 282.535,142.454 390.5,173.5 Z"/></g>
<g><path style="opacity:1" fill="#c3d1db" d="M 390.5,173.5 C 401.672,177.504 412.672,182.004 423.5,187C 427.987,188.076 431.653,186.909 434.5,183.5C 439.833,186.167 445.167,188.833 450.5,191.5C 448.507,196.686 449.84,200.853 454.5,204C 464.107,209.942 473.44,216.275 482.5,223C 487.333,226.5 491.5,230.667 495,235.5C 495.935,237.909 496.435,240.409 496.5,243C 495.783,247.275 494.616,251.442 493,255.5C 492.667,263.167 492.333,270.833 492,278.5C 490.694,282.813 488.194,286.313 484.5,289C 425.566,335.254 358.566,356.754 283.5,353.5C 304.797,333.718 324.131,312.218 341.5,289C 341.272,288.601 340.938,288.435 340.5,288.5C 349.342,285.196 358.342,282.03 367.5,279C 370.349,276.441 371.183,273.274 370,269.5C 368.362,267.266 366.195,265.933 363.5,265.5C 362.947,259.208 363.614,253.208 365.5,247.5C 370.024,245.803 371.691,242.469 370.5,237.5C 381.154,217.497 387.821,196.164 390.5,173.5 Z"/></g>
<g><path style="opacity:0.998" fill="#9daab8" d="M 50.5,194.5 C 55.1251,198.824 59.7918,203.157 64.5,207.5C 62.7069,210.259 62.2069,213.259 63,216.5C 66.0298,220.695 69.5298,224.361 73.5,227.5C 61.0754,252.951 44.2421,275.284 23,294.5C 22.5357,293.906 22.369,293.239 22.5,292.5C 24.5768,280.449 26.9101,268.449 29.5,256.5C 24.8614,233.808 20.0281,211.141 15,188.5C 13.3336,181.837 15.8336,179.004 22.5,180C 28.8333,185.667 35.1667,191.333 41.5,197C 44.9928,197.869 47.9928,197.036 50.5,194.5 Z"/></g>
<g><path style="opacity:1" fill="#060707" d="M 258.5,186.5 C 264.979,184.784 268.979,187.117 270.5,193.5C 268.372,196.96 266.706,200.626 265.5,204.5C 266.183,208.199 267.683,211.532 270,214.5C 270.646,220.027 268.146,223.027 262.5,223.5C 259.889,223.444 257.722,222.444 256,220.5C 247.909,208.423 248.743,197.089 258.5,186.5 Z"/></g>
<g><path style="opacity:1" fill="#040505" d="M 399.5,192.5 C 405.06,192.397 408.06,195.064 408.5,200.5C 400.508,237.677 400.508,274.843 408.5,312C 409.094,317.334 406.761,320.168 401.5,320.5C 398.889,320.444 396.722,319.444 395,317.5C 385.458,277.893 385.125,238.226 394,198.5C 395.36,195.977 397.193,193.977 399.5,192.5 Z"/></g>
<g><path style="opacity:1" fill="#060707" d="M 199.5,208.5 C 205.53,207.868 208.863,210.535 209.5,216.5C 207.877,220.077 206.543,223.743 205.5,227.5C 205.304,230.774 206.471,233.441 209,235.5C 209.989,244.511 206.156,247.677 197.5,245C 191.059,238.074 188.892,229.907 191,220.5C 192.952,215.74 195.786,211.74 199.5,208.5 Z"/></g>
<g><path style="opacity:1" fill="#030404" d="M 370.5,237.5 C 371.691,242.469 370.024,245.803 365.5,247.5C 362.813,247.664 360.146,247.497 357.5,247C 340.925,241.361 324.258,236.361 307.5,232C 306.508,248.423 306.175,264.923 306.5,281.5C 308.527,281.662 310.527,281.495 312.5,281C 329.381,275.364 346.381,270.198 363.5,265.5C 366.195,265.933 368.362,267.266 370,269.5C 371.183,273.274 370.349,276.441 367.5,279C 358.342,282.03 349.342,285.196 340.5,288.5C 329.987,291.782 319.32,294.449 308.5,296.5C 299.747,296.366 294.247,292.032 292,283.5C 291.333,265.167 291.333,246.833 292,228.5C 296.194,219.823 303.027,215.989 312.5,217C 330.439,222.869 348.439,228.535 366.5,234C 368.35,234.69 369.684,235.856 370.5,237.5 Z"/></g>
<g><path style="opacity:1" fill="#8b9aa5" d="M 73.5,227.5 C 77.8314,231.663 82.3314,235.663 87,239.5C 87.6667,250.833 87.6667,262.167 87,273.5C 65.4671,294.035 43.6338,314.201 21.5,334C 17.541,334.718 15.2077,333.051 14.5,329C 16.7425,316.609 19.4092,304.442 22.5,292.5C 22.369,293.239 22.5357,293.906 23,294.5C 44.2421,275.284 61.0754,252.951 73.5,227.5 Z"/></g>
<g><path style="opacity:1" fill="#9eabb9" d="M 365.5,247.5 C 363.614,253.208 362.947,259.208 363.5,265.5C 346.381,270.198 329.381,275.364 312.5,281C 310.527,281.495 308.527,281.662 306.5,281.5C 306.175,264.923 306.508,248.423 307.5,232C 324.258,236.361 340.925,241.361 357.5,247C 360.146,247.497 362.813,247.664 365.5,247.5 Z"/></g>
<g><path style="opacity:1" fill="#070707" d="M 155.5,238.5 C 161.428,237.123 165.095,239.289 166.5,245C 165.092,249.145 163.425,253.145 161.5,257C 163.167,260.667 164.833,264.333 166.5,268C 165.424,274.41 161.757,276.743 155.5,275C 143.506,262.671 143.506,250.504 155.5,238.5 Z"/></g>
<g><path style="opacity:1" fill="#050506" d="M 234.5,238.5 C 242.773,236.941 246.273,240.274 245,248.5C 244.385,250.116 243.385,251.449 242,252.5C 241.833,253.833 241.667,255.167 241.5,256.5C 242.187,260.64 243.52,264.474 245.5,268C 244.729,274.565 241.062,276.898 234.5,275C 227.376,267.952 224.876,259.452 227,249.5C 228.549,245.13 231.049,241.463 234.5,238.5 Z"/></g>
<g><path style="opacity:1" fill="#050505" d="M 198.5,267.5 C 206.794,266.036 210.294,269.37 209,277.5C 208.385,279.116 207.385,280.449 206,281.5C 205.833,282.833 205.667,284.167 205.5,285.5C 206.36,289.68 207.693,293.68 209.5,297.5C 208.23,303.588 204.563,305.755 198.5,304C 190.977,297.07 188.477,288.57 191,278.5C 192.549,274.13 195.049,270.463 198.5,267.5 Z"/></g>
<g><path style="opacity:1" fill="#060707" d="M 260.5,289.5 C 265.899,289.564 269.232,292.23 270.5,297.5C 268.372,300.96 266.706,304.626 265.5,308.5C 265.847,311.528 267.014,314.194 269,316.5C 271.057,324.775 267.89,328.275 259.5,327C 249.445,317.428 247.945,306.595 255,294.5C 256.73,292.598 258.563,290.931 260.5,289.5 Z"/></g>
<g><path style="opacity:1" fill="#8b9aa6" d="M 250.5,357.5 C 257.092,358.822 263.758,359.489 270.5,359.5C 269.846,363.683 271.512,366.516 275.5,368C 289.131,369.195 302.798,369.862 316.5,370C 307.5,381.667 298.5,393.333 289.5,405C 285.625,406.52 281.625,406.854 277.5,406C 256.319,389.908 235.319,373.575 214.5,357C 223.738,359.141 233.072,361.308 242.5,363.5C 246.615,363.38 249.282,361.38 250.5,357.5 Z"/></g>
</svg>
