<?xml version="1.0" encoding="UTF-8"?>
<!DOCTYPE svg PUBLIC "-//W3C//DTD SVG 1.1//EN" "http://www.w3.org/Graphics/SVG/1.1/DTD/svg11.dtd">
<svg xmlns="http://www.w3.org/2000/svg" version="1.1" width="512px" height="512px" style="shape-rendering:geometricPrecision; text-rendering:geometricPrecision; image-rendering:optimizeQuality; fill-rule:evenodd; clip-rule:evenodd" xmlns:xlink="http://www.w3.org/1999/xlink">
<g><path style="opacity:0.976" fill="#020200" d="M 211.5,-0.5 C 220.833,-0.5 230.167,-0.5 239.5,-0.5C 243.811,1.6467 246.978,4.98004 249,9.5C 250.363,17.4295 250.863,25.4295 250.5,33.5C 261.507,33.0011 272.173,34.6678 282.5,38.5C 316.42,29.8465 350.087,30.6798 383.5,41C 412.294,50.8121 434.128,68.9788 449,95.5C 449.686,99.2843 448.519,102.284 445.5,104.5C 442.254,106.115 439.254,105.782 436.5,103.5C 423.769,82.4323 406.102,67.099 383.5,57.5C 360.581,49.0166 336.914,46.1833 312.5,49C 325.484,55.1567 337.484,62.8234 348.5,72C 366.058,71.3086 382.392,75.3086 397.5,84C 401.577,87.1385 402.41,90.9719 400,95.5C 398.406,97.2971 396.406,98.2971 394,98.5C 389.657,96.7447 385.491,94.578 381.5,92C 376.887,90.3364 372.221,89.3364 367.5,89C 376.558,99.1231 384.891,109.79 392.5,121C 400.37,121.026 408.037,122.193 415.5,124.5C 418.991,125.837 422.157,127.837 425,130.5C 427.796,136.907 425.796,140.907 419,142.5C 414.336,140.919 409.836,138.919 405.5,136.5C 405.167,136.833 404.833,137.167 404.5,137.5C 414.126,150.291 424.626,162.291 436,173.5C 440.271,182.453 437.438,186.62 427.5,186C 422.333,182.167 417.833,177.667 414,172.5C 414.146,176.959 415.146,181.292 417,185.5C 420.067,191.143 423.233,196.643 426.5,202C 425.424,208.41 421.757,210.743 415.5,209C 414.295,207.624 412.962,206.458 411.5,205.5C 400.909,188.816 395.742,170.483 396,150.5C 387.155,138.795 378.322,127.128 369.5,115.5C 366.159,131.156 367.325,146.49 373,161.5C 375.216,169.943 372.049,173.776 363.5,173C 360.018,169.582 357.852,165.415 357,160.5C 352.921,147.103 351.588,133.437 353,119.5C 354.829,113.195 356.163,106.861 357,100.5C 347.791,89.9811 337.291,80.9811 325.5,73.5C 324.749,74.376 324.249,75.376 324,76.5C 323.333,85.8333 323.333,95.1667 324,104.5C 325.177,111.696 327.344,118.53 330.5,125C 328.797,132.451 324.464,134.451 317.5,131C 308.966,113.454 306.133,94.954 309,75.5C 309.361,72.4748 309.861,69.4748 310.5,66.5C 310.167,65.8333 309.833,65.1667 309.5,64.5C 302.219,60.2901 294.552,57.9568 286.5,57.5C 269.578,151.345 307.911,207.012 401.5,224.5C 422.762,229.366 444.429,232.033 466.5,232.5C 465.843,197.071 459.843,162.571 448.5,129C 449.299,125.896 450.966,123.396 453.5,121.5C 457.08,120.923 460.08,121.923 462.5,124.5C 475.835,162.34 482.335,201.34 482,241.5C 481.654,243.848 480.487,245.681 478.5,247C 459.398,248.019 440.398,247.019 421.5,244C 408.077,241.78 394.744,239.447 381.5,237C 398.657,260.483 411.157,286.317 419,314.5C 427.307,362.299 417.974,406.299 391,446.5C 387.761,451.708 383.261,453.374 377.5,451.5C 376.928,449.745 376.094,448.078 375,446.5C 374.333,444.833 374.333,443.167 375,441.5C 405.16,399.852 413.493,354.186 400,304.5C 388.825,276.467 373.825,250.801 355,227.5C 299.071,204.375 269.737,162.375 267,101.5C 261.821,97.4967 255.988,95.1633 249.5,94.5C 249.334,100.176 249.501,105.843 250,111.5C 257.967,119.392 260.633,128.725 258,139.5C 252.879,143.875 248.545,143.209 245,137.5C 245.097,130.031 242.264,124.031 236.5,119.5C 217.835,112.767 207.335,119.434 205,139.5C 199.879,143.875 195.545,143.209 192,137.5C 191.009,127.476 194.009,118.809 201,111.5C 201.499,105.843 201.666,100.176 201.5,94.5C 191.885,95.5588 184.051,99.8921 178,107.5C 171.533,121.218 164.866,134.885 158,148.5C 145.657,169.685 130.823,189.018 113.5,206.5C 109.768,209.144 106.102,209.144 102.5,206.5C 100.568,203.823 100.068,200.823 101,197.5C 115.203,182.078 128.203,165.745 140,148.5C 148.953,131.594 157.619,114.594 166,97.5C 175.214,86.309 187.048,79.9756 201.5,78.5C 201.333,55.8309 201.5,33.1642 202,10.5C 203.599,5.40601 206.766,1.73934 211.5,-0.5 Z M 250.5,49.5 C 257.589,49.3407 264.589,50.0073 271.5,51.5C 269.51,62.0854 268.01,72.752 267,83.5C 262.076,81.1428 256.91,79.4761 251.5,78.5C 250.502,68.8563 250.168,59.1896 250.5,49.5 Z"/></g>
<g><path style="opacity:1" fill="#8ac626" d="M 217.5,14.5 C 223.358,14.1778 229.025,14.5111 234.5,15.5C 234.5,35.8333 234.5,56.1667 234.5,76.5C 228.833,76.5 223.167,76.5 217.5,76.5C 217.5,55.8333 217.5,35.1667 217.5,14.5 Z"/></g>
<g><path style="opacity:1" fill="#1b2808" d="M 234.5,15.5 C 235.498,44.3285 235.831,73.3285 235.5,102.5C 234.209,102.737 233.209,102.404 232.5,101.5C 234.468,93.5671 235.135,85.2337 234.5,76.5C 234.5,56.1667 234.5,35.8333 234.5,15.5 Z"/></g>
<g><path style="opacity:1" fill="#9ee02d" d="M 383.5,57.5 C 399.922,76.5053 411.255,98.3387 417.5,123C 417.164,124.03 416.497,124.53 415.5,124.5C 408.037,122.193 400.37,121.026 392.5,121C 384.891,109.79 376.558,99.1231 367.5,89C 372.221,89.3364 376.887,90.3364 381.5,92C 385.491,94.578 389.657,96.7447 394,98.5C 396.406,98.2971 398.406,97.2971 400,95.5C 402.41,90.9719 401.577,87.1385 397.5,84C 382.392,75.3086 366.058,71.3086 348.5,72C 337.484,62.8234 325.484,55.1567 312.5,49C 336.914,46.1833 360.581,49.0166 383.5,57.5 Z"/></g>
<g><path style="opacity:1" fill="#a0e32d" d="M 411.5,205.5 C 410.305,211.898 407.972,217.898 404.5,223.5C 403.675,224.386 402.675,224.719 401.5,224.5C 307.911,207.012 269.578,151.345 286.5,57.5C 294.552,57.9568 302.219,60.2901 309.5,64.5C 309.833,65.1667 310.167,65.8333 310.5,66.5C 309.861,69.4748 309.361,72.4748 309,75.5C 306.133,94.954 308.966,113.454 317.5,131C 324.464,134.451 328.797,132.451 330.5,125C 327.344,118.53 325.177,111.696 324,104.5C 323.333,95.1667 323.333,85.8333 324,76.5C 324.249,75.376 324.749,74.376 325.5,73.5C 337.291,80.9811 347.791,89.9811 357,100.5C 356.163,106.861 354.829,113.195 353,119.5C 351.588,133.437 352.921,147.103 357,160.5C 357.852,165.415 360.018,169.582 363.5,173C 372.049,173.776 375.216,169.943 373,161.5C 367.325,146.49 366.159,131.156 369.5,115.5C 378.322,127.128 387.155,138.795 396,150.5C 395.742,170.483 400.909,188.816 411.5,205.5 Z"/></g>
<g><path style="opacity:1" fill="#95d428" d="M 383.5,57.5 C 406.102,67.099 423.769,82.4323 436.5,103.5C 439.254,105.782 442.254,106.115 445.5,104.5C 448.423,110.015 451.09,115.682 453.5,121.5C 450.966,123.396 449.299,125.896 448.5,129C 459.843,162.571 465.843,197.071 466.5,232.5C 444.429,232.033 422.762,229.366 401.5,224.5C 402.675,224.719 403.675,224.386 404.5,223.5C 407.972,217.898 410.305,211.898 411.5,205.5C 412.962,206.458 414.295,207.624 415.5,209C 421.757,210.743 425.424,208.41 426.5,202C 423.233,196.643 420.067,191.143 417,185.5C 415.146,181.292 414.146,176.959 414,172.5C 417.833,177.667 422.333,182.167 427.5,186C 437.438,186.62 440.271,182.453 436,173.5C 424.626,162.291 414.126,150.291 404.5,137.5C 404.833,137.167 405.167,136.833 405.5,136.5C 409.836,138.919 414.336,140.919 419,142.5C 425.796,140.907 427.796,136.907 425,130.5C 422.157,127.837 418.991,125.837 415.5,124.5C 416.497,124.53 417.164,124.03 417.5,123C 411.255,98.3387 399.922,76.5053 383.5,57.5 Z"/></g>
<g><path style="opacity:1" fill="#7fb522" d="M 217.5,14.5 C 217.5,35.1667 217.5,55.8333 217.5,76.5C 223.167,76.5 228.833,76.5 234.5,76.5C 235.135,85.2337 234.468,93.5671 232.5,101.5C 227.435,101.219 222.435,101.552 217.5,102.5C 216.17,73.0028 216.17,43.6694 217.5,14.5 Z"/></g>
<g><path style="opacity:1" fill="#fee076" d="M 236.5,119.5 C 241.954,176.072 269.287,218.239 318.5,246C 327.806,250.318 336.973,254.818 346,259.5C 381.309,316.293 382.643,373.96 350,432.5C 331.939,462.408 306.773,483.741 274.5,496.5C 262.495,496.667 250.495,496.5 238.5,496C 221.818,492.995 205.151,489.995 188.5,487C 157.803,468.627 139.303,441.793 133,406.5C 130.289,401.56 126.456,400.393 121.5,403C 119.408,404.853 118.408,407.186 118.5,410C 125.175,446.978 144.175,475.645 175.5,496C 140.3,494.316 110.467,480.816 86,455.5C 49.5849,413.843 37.2515,365.843 49,311.5C 55.3394,291.49 64.3394,272.823 76,255.5C 81.6667,247.5 87.3333,239.5 93,231.5C 93.843,227.897 93.343,224.564 91.5,221.5C 94.9224,216.322 98.589,211.322 102.5,206.5C 106.102,209.144 109.768,209.144 113.5,206.5C 130.823,189.018 145.657,169.685 158,148.5C 164.866,134.885 171.533,121.218 178,107.5C 184.051,99.8921 191.885,95.5588 201.5,94.5C 201.666,100.176 201.499,105.843 201,111.5C 194.009,118.809 191.009,127.476 192,137.5C 195.545,143.209 199.879,143.875 205,139.5C 207.335,119.434 217.835,112.767 236.5,119.5 Z"/></g>
<g><path style="opacity:1" fill="#fdcf5a" d="M 377.5,451.5 C 373.5,455.833 369.5,460.167 365.5,464.5C 362.302,463.066 358.968,462.566 355.5,463C 332.524,483.611 305.524,494.777 274.5,496.5C 306.773,483.741 331.939,462.408 350,432.5C 382.643,373.96 381.309,316.293 346,259.5C 336.973,254.818 327.806,250.318 318.5,246C 269.287,218.239 241.954,176.072 236.5,119.5C 242.264,124.031 245.097,130.031 245,137.5C 248.545,143.209 252.879,143.875 258,139.5C 260.633,128.725 257.967,119.392 250,111.5C 249.501,105.843 249.334,100.176 249.5,94.5C 255.988,95.1633 261.821,97.4967 267,101.5C 269.737,162.375 299.071,204.375 355,227.5C 373.825,250.801 388.825,276.467 400,304.5C 413.493,354.186 405.16,399.852 375,441.5C 374.333,443.167 374.333,444.833 375,446.5C 376.094,448.078 376.928,449.745 377.5,451.5 Z"/></g>
<g><path style="opacity:1" fill="#050402" d="M 185.5,203.5 C 193.794,202.036 197.294,205.37 196,213.5C 191.272,227.622 184.938,240.956 177,253.5C 164.174,269.808 152.841,287.141 143,305.5C 136.355,319.081 132.688,333.414 132,348.5C 126.879,352.875 122.545,352.209 119,346.5C 118.282,331.09 121.282,316.424 128,302.5C 131.931,294.248 136.265,286.248 141,278.5C 150.247,265.674 159.247,252.674 168,239.5C 174.142,227.53 179.975,215.53 185.5,203.5 Z"/></g>
<g><path style="opacity:0.966" fill="#020201" d="M 91.5,221.5 C 93.343,224.564 93.843,227.897 93,231.5C 87.3333,239.5 81.6667,247.5 76,255.5C 64.3394,272.823 55.3394,291.49 49,311.5C 37.2515,365.843 49.5849,413.843 86,455.5C 110.467,480.816 140.3,494.316 175.5,496C 144.175,475.645 125.175,446.978 118.5,410C 118.408,407.186 119.408,404.853 121.5,403C 126.456,400.393 130.289,401.56 133,406.5C 139.303,441.793 157.803,468.627 188.5,487C 205.151,489.995 221.818,492.995 238.5,496C 250.495,496.5 262.495,496.667 274.5,496.5C 305.524,494.777 332.524,483.611 355.5,463C 358.968,462.566 362.302,463.066 365.5,464.5C 366.989,468.243 366.822,471.91 365,475.5C 342.486,495.507 316.32,507.507 286.5,511.5C 269.833,511.5 253.167,511.5 236.5,511.5C 222.285,509.41 208.119,506.41 194,502.5C 189.614,505.728 185.114,508.728 180.5,511.5C 174.833,511.5 169.167,511.5 163.5,511.5C 102.512,500.359 61.0123,465.693 39,407.5C 21.5615,357.322 26.2281,309.322 53,263.5C 61.6638,248.506 71.4971,234.339 82.5,221C 85.592,220.264 88.592,220.431 91.5,221.5 Z"/></g>
<g><path style="opacity:1" fill="#0c0a05" d="M 297.5,283.5 C 304.676,283.173 307.842,286.506 307,293.5C 304.774,297.861 301.274,299.361 296.5,298C 290.881,292.595 291.215,287.762 297.5,283.5 Z"/></g>
<g><path style="opacity:1" fill="#0e0c06" d="M 263.5,355.5 C 271.201,355.362 274.367,359.029 273,366.5C 267.919,371.986 263.252,371.653 259,365.5C 258.333,363.833 258.333,362.167 259,360.5C 260.366,358.638 261.866,356.972 263.5,355.5 Z"/></g>
<g><path style="opacity:1" fill="#0a0804" d="M 343.5,355.5 C 353.11,355.936 355.776,360.436 351.5,369C 342.319,372.325 338.485,369.158 340,359.5C 341.376,358.295 342.542,356.962 343.5,355.5 Z"/></g>
</svg>
