<?xml version="1.0" encoding="UTF-8"?>
<!DOCTYPE svg PUBLIC "-//W3C//DTD SVG 1.1//EN" "http://www.w3.org/Graphics/SVG/1.1/DTD/svg11.dtd">
<svg xmlns="http://www.w3.org/2000/svg" version="1.1" width="512px" height="512px" style="shape-rendering:geometricPrecision; text-rendering:geometricPrecision; image-rendering:optimizeQuality; fill-rule:evenodd; clip-rule:evenodd" xmlns:xlink="http://www.w3.org/1999/xlink">
<g><path style="opacity:0.976" fill="#020202" d="M 511.5,258.5 C 511.5,261.833 511.5,265.167 511.5,268.5C 504.488,279.353 495.821,288.853 485.5,297C 450.694,323.407 412.027,342.407 369.5,354C 364.496,355.002 361.163,353.168 359.5,348.5C 359.338,346.473 359.505,344.473 360,342.5C 362.67,339.75 365.836,337.917 369.5,337C 361.065,322.196 355.732,306.362 353.5,289.5C 343.618,290.646 333.952,292.313 324.5,294.5C 312.031,296.328 299.531,297.995 287,299.5C 261.004,294.012 243.504,278.678 234.5,253.5C 186.503,252.667 138.503,252.167 90.5,252C 84.2316,250.799 78.2316,248.799 72.5,246C 57.1068,236.46 41.1068,227.96 24.5,220.5C 24.1667,220.833 23.8333,221.167 23.5,221.5C 29.0031,232.178 31.6698,243.512 31.5,255.5C 39.84,255.334 48.1733,255.5 56.5,256C 59.3229,256.992 61.3229,258.825 62.5,261.5C 62.7553,265.493 61.0886,268.326 57.5,270C 48.9217,270.182 40.4217,270.682 32,271.5C 30.9973,282.678 28.4973,293.511 24.5,304C 24.8333,304.5 25.1667,305 25.5,305.5C 41.944,297.779 57.944,289.279 73.5,280C 80.8666,276.76 88.5333,274.594 96.5,273.5C 107.226,273.078 117.56,274.912 127.5,279C 144.566,290.395 161.899,301.395 179.5,312C 193.379,319.608 207.713,326.108 222.5,331.5C 258.805,345.747 296.472,350.58 335.5,346C 337.826,347.805 339.492,349.972 340.5,352.5C 339.823,358.338 336.49,361.171 330.5,361C 308.768,363.283 287.101,362.783 265.5,359.5C 264.167,359.667 262.833,359.833 261.5,360C 246.706,375.115 229.039,380.115 208.5,375C 201.674,372.725 195.007,370.058 188.5,367C 185.64,363.319 184.807,359.152 186,354.5C 190.133,349.366 194.633,344.532 199.5,340C 196.995,338.247 194.329,336.747 191.5,335.5C 170.159,349.235 149.159,348.735 128.5,334C 125.82,330.577 124.987,326.744 126,322.5C 130.649,317.017 135.482,311.684 140.5,306.5C 125.045,290.963 106.712,286.129 85.5,292C 72.024,299.573 58.3573,306.906 44.5,314C 33.3949,319.219 22.0615,323.886 10.5,328C 6.07671,329.118 2.41004,327.951 -0.5,324.5C -0.5,321.5 -0.5,318.5 -0.5,315.5C 17.3786,290.378 21.5452,263.045 12,233.5C 8.83586,225.163 4.6692,217.497 -0.5,210.5C -0.5,207.833 -0.5,205.167 -0.5,202.5C 2.55598,198.759 6.55598,197.593 11.5,199C 36.1809,207.674 59.5143,219.008 81.5,233C 97.303,239.442 112.636,238.442 127.5,230C 138.758,221.579 150.424,213.746 162.5,206.5C 163.332,196.517 163.832,186.517 164,176.5C 164.606,173.452 166.106,170.952 168.5,169C 176.712,164.727 185.045,160.727 193.5,157C 198.181,155.519 201.848,156.686 204.5,160.5C 204.893,163.93 204.227,167.096 202.5,170C 194.924,173.372 187.424,176.872 180,180.5C 179.333,186.167 179.333,191.833 180,197.5C 243.137,162.753 309.304,155.253 378.5,175C 347.295,152.534 312.628,144.534 274.5,151C 260.386,152.487 246.553,155.32 233,159.5C 229.17,158.826 226.336,156.826 224.5,153.5C 224.589,150.061 225.922,147.228 228.5,145C 263.996,133.835 299.996,131.501 336.5,138C 367.715,146.552 393.715,163.218 414.5,188C 447.259,201.451 476.425,220.284 502,244.5C 505.451,249.092 508.618,253.758 511.5,258.5 Z"/></g>
<g><path style="opacity:0.998" fill="#ececef" d="M 204.5,160.5 C 211.172,158.165 217.838,155.832 224.5,153.5C 226.336,156.826 229.17,158.826 233,159.5C 246.553,155.32 260.386,152.487 274.5,151C 312.628,144.534 347.295,152.534 378.5,175C 309.304,155.253 243.137,162.753 180,197.5C 179.333,191.833 179.333,186.167 180,180.5C 187.424,176.872 194.924,173.372 202.5,170C 204.227,167.096 204.893,163.93 204.5,160.5 Z"/></g>
<g><path style="opacity:1" fill="#9f96a2" d="M 325.5,193.5 C 321.384,210.78 310.551,221.114 293,224.5C 291.319,224.392 290.152,223.725 289.5,222.5C 291.669,207.991 295.669,193.991 301.5,180.5C 310.536,179.369 319.536,179.702 328.5,181.5C 326.268,185.196 325.268,189.196 325.5,193.5 Z"/></g>
<g><path style="opacity:1" fill="#9f95a2" d="M 273.5,225.5 C 264.983,225.826 256.65,225.493 248.5,224.5C 250.093,210.796 253.259,197.463 258,184.5C 266.956,181.818 276.122,180.651 285.5,181C 279.707,195.339 275.707,210.172 273.5,225.5 Z"/></g>
<g><path style="opacity:1" fill="#897f8c" d="M 289.5,222.5 C 290.152,223.725 291.319,224.392 293,224.5C 310.551,221.114 321.384,210.78 325.5,193.5C 328.107,197.315 331.774,198.482 336.5,197C 339.734,193.367 342.068,189.201 343.5,184.5C 352.346,184.364 361.012,185.864 369.5,189C 361.355,203.934 355.688,219.767 352.5,236.5C 344.193,237.498 335.86,237.831 327.5,237.5C 328.207,232.151 328.707,226.818 329,221.5C 327.607,218.634 325.274,217.301 322,217.5C 318.726,217.301 316.393,218.634 315,221.5C 313.712,226.773 312.878,232.106 312.5,237.5C 304.167,237.5 295.833,237.5 287.5,237.5C 287.444,232.269 288.111,227.269 289.5,222.5 Z"/></g>
<g><path style="opacity:1" fill="#9e94a1" d="M 232.5,225.5 C 224.097,226.134 216.097,225.467 208.5,223.5C 208.906,215.399 210.072,207.399 212,199.5C 220.757,194.966 229.924,191.3 239.5,188.5C 239.833,189.167 240.167,189.833 240.5,190.5C 237.072,202.113 234.405,213.78 232.5,225.5 Z"/></g>
<g><path style="opacity:1" fill="#c4bfc6" d="M 452.5,225.5 C 456.144,229.988 459.644,234.655 463,239.5C 463.667,241.833 463.667,244.167 463,246.5C 459.547,251.621 455.714,256.454 451.5,261C 443.976,267.031 436.643,273.198 429.5,279.5C 425.486,279.334 421.486,279.501 417.5,280C 415.536,281.451 414.203,283.284 413.5,285.5C 412.931,288.063 411.597,290.23 409.5,292C 398.026,298.988 386.026,304.821 373.5,309.5C 359.992,269.71 363.326,231.377 383.5,194.5C 384,194.167 384.5,193.833 385,193.5C 409.043,201.107 431.543,211.773 452.5,225.5 Z"/></g>
<g><path style="opacity:1" fill="#9d93a0" d="M 192.5,225.5 C 182.652,225.827 172.986,225.494 163.5,224.5C 173.399,217.628 183.899,211.628 195,206.5C 194.425,212.833 193.592,219.167 192.5,225.5 Z"/></g>
<g><path style="opacity:1" fill="#040405" d="M 397.5,214.5 C 419.509,213.344 430.009,223.677 429,245.5C 421.205,264.484 408.038,269.651 389.5,261C 376.072,248.532 375.072,235.198 386.5,221C 390.096,218.539 393.763,216.373 397.5,214.5 Z"/></g>
<g><path style="opacity:1" fill="#c4bfc6" d="M 324.5,294.5 C 327.92,305.634 325.254,315.467 316.5,324C 309.11,329.524 300.777,332.524 291.5,333C 268.424,335.336 245.424,334.836 222.5,331.5C 207.713,326.108 193.379,319.608 179.5,312C 161.899,301.395 144.566,290.395 127.5,279C 117.56,274.912 107.226,273.078 96.5,273.5C 86.6208,265.76 75.2875,261.76 62.5,261.5C 61.3229,258.825 59.3229,256.992 56.5,256C 48.1733,255.5 39.84,255.334 31.5,255.5C 31.6698,243.512 29.0031,232.178 23.5,221.5C 23.8333,221.167 24.1667,220.833 24.5,220.5C 41.1068,227.96 57.1068,236.46 72.5,246C 78.2316,248.799 84.2316,250.799 90.5,252C 138.503,252.167 186.503,252.667 234.5,253.5C 243.504,278.678 261.004,294.012 287,299.5C 299.531,297.995 312.031,296.328 324.5,294.5 Z"/></g>
<g><path style="opacity:1" fill="#897f8c" d="M 163.5,224.5 C 172.986,225.494 182.652,225.827 192.5,225.5C 192.354,229.519 192.021,233.519 191.5,237.5C 175.83,237.667 160.163,237.5 144.5,237C 150.716,232.611 157.049,228.444 163.5,224.5 Z"/></g>
<g><path style="opacity:1" fill="#897f8c" d="M 208.5,223.5 C 216.097,225.467 224.097,226.134 232.5,225.5C 232.759,229.24 232.426,232.906 231.5,236.5C 223.193,237.498 214.86,237.831 206.5,237.5C 206.911,232.662 207.578,227.995 208.5,223.5 Z"/></g>
<g><path style="opacity:1" fill="#887e8b" d="M 248.5,224.5 C 256.65,225.493 264.983,225.826 273.5,225.5C 272.57,229.4 272.237,233.4 272.5,237.5C 263.833,237.5 255.167,237.5 246.5,237.5C 246.884,232.99 247.551,228.657 248.5,224.5 Z"/></g>
<g><path style="opacity:1" fill="#fafafa" d="M 400.5,229.5 C 411.673,229.496 415.839,234.829 413,245.5C 406.965,252.065 400.965,252.065 395,245.5C 392.024,238.462 393.857,233.129 400.5,229.5 Z"/></g>
<g><path style="opacity:1" fill="#aea9b3" d="M 452.5,225.5 C 467.962,234.791 481.795,246.124 494,259.5C 495.301,261.365 495.635,263.365 495,265.5C 491.201,270.301 487.034,274.801 482.5,279C 464.836,279.5 447.17,279.667 429.5,279.5C 436.643,273.198 443.976,267.031 451.5,261C 455.714,256.454 459.547,251.621 463,246.5C 463.667,244.167 463.667,241.833 463,239.5C 459.644,234.655 456.144,229.988 452.5,225.5 Z"/></g>
<g><path style="opacity:1" fill="#bebdc0" d="M 350.5,253.5 C 342.833,253.5 335.167,253.5 327.5,253.5C 301.995,253.169 276.661,253.502 251.5,254.5C 250.957,254.44 250.624,254.107 250.5,253.5C 283.998,252.17 317.331,252.17 350.5,253.5 Z"/></g>
<g><path style="opacity:1" fill="#f0f0f3" d="M 327.5,253.5 C 325.843,259.652 322.177,264.152 316.5,267C 300.555,270.157 284.555,272.991 268.5,275.5C 260.271,270.602 254.604,263.602 251.5,254.5C 276.661,253.502 301.995,253.169 327.5,253.5 Z"/></g>
<g><path style="opacity:1" fill="#dddbe0" d="M 327.5,253.5 C 335.167,253.5 342.833,253.5 350.5,253.5C 350.5,260.5 350.5,267.5 350.5,274.5C 329.878,278.048 309.212,281.381 288.5,284.5C 280.792,283.643 274.125,280.643 268.5,275.5C 284.555,272.991 300.555,270.157 316.5,267C 322.177,264.152 325.843,259.652 327.5,253.5 Z"/></g>
<g><path style="opacity:1" fill="#aba6b0" d="M 62.5,261.5 C 75.2875,261.76 86.6208,265.76 96.5,273.5C 88.5333,274.594 80.8666,276.76 73.5,280C 57.944,289.279 41.944,297.779 25.5,305.5C 25.1667,305 24.8333,304.5 24.5,304C 28.4973,293.511 30.9973,282.678 32,271.5C 40.4217,270.682 48.9217,270.182 57.5,270C 61.0886,268.326 62.7553,265.493 62.5,261.5 Z"/></g>
<g><path style="opacity:1" fill="#ada8b2" d="M 359.5,348.5 C 353.166,349.944 346.833,351.277 340.5,352.5C 339.492,349.972 337.826,347.805 335.5,346C 296.472,350.58 258.805,345.747 222.5,331.5C 245.424,334.836 268.424,335.336 291.5,333C 300.777,332.524 309.11,329.524 316.5,324C 325.254,315.467 327.92,305.634 324.5,294.5C 333.952,292.313 343.618,290.646 353.5,289.5C 355.732,306.362 361.065,322.196 369.5,337C 365.836,337.917 362.67,339.75 360,342.5C 359.505,344.473 359.338,346.473 359.5,348.5 Z"/></g>
<g><path style="opacity:1" fill="#ada8b2" d="M 413.5,285.5 C 412.822,289.273 414.156,292.106 417.5,294C 432.167,294.333 446.833,294.667 461.5,295C 437.879,311.394 412.379,324.227 385,333.5C 380.116,326.018 376.282,318.018 373.5,309.5C 386.026,304.821 398.026,298.988 409.5,292C 411.597,290.23 412.931,288.063 413.5,285.5 Z"/></g>
<g><path style="opacity:1" fill="#9a919d" d="M 154.5,314.5 C 161.472,318.655 168.472,322.822 175.5,327C 164.7,332.168 154.366,331.501 144.5,325C 148.037,321.631 151.371,318.131 154.5,314.5 Z"/></g>
<g><path style="opacity:1" fill="#9c929f" d="M 215.5,345.5 C 224.816,348.772 234.149,351.939 243.5,355C 231.712,362.317 219.379,363.317 206.5,358C 205.549,357.282 205.383,356.449 206,355.5C 209.371,352.297 212.538,348.964 215.5,345.5 Z"/></g>
</svg>
