<?xml version="1.0" encoding="UTF-8"?>
<!DOCTYPE svg PUBLIC "-//W3C//DTD SVG 1.1//EN" "http://www.w3.org/Graphics/SVG/1.1/DTD/svg11.dtd">
<svg xmlns="http://www.w3.org/2000/svg" version="1.1" width="512px" height="512px" style="shape-rendering:geometricPrecision; text-rendering:geometricPrecision; image-rendering:optimizeQuality; fill-rule:evenodd; clip-rule:evenodd" xmlns:xlink="http://www.w3.org/1999/xlink">
<g><path style="opacity:0.98" fill="#010001" d="M 220.5,-0.5 C 243.833,-0.5 267.167,-0.5 290.5,-0.5C 320.694,1.21069 350.694,5.37736 380.5,12C 393.797,15.2064 406.13,20.5398 417.5,28C 420.762,30.592 423.262,33.7587 425,37.5C 426.628,56.4347 426.962,75.4347 426,94.5C 424.834,99.4986 422.167,103.499 418,106.5C 417.773,124.577 420.44,142.243 426,159.5C 433.726,177.285 441.726,194.952 450,212.5C 455.252,227.758 458.585,243.425 460,259.5C 460.667,322.833 460.667,386.167 460,449.5C 455.453,462.051 447.287,471.551 435.5,478C 407.724,491.946 378.391,500.946 347.5,505C 328.082,507.773 308.749,509.94 289.5,511.5C 266.5,511.5 243.5,511.5 220.5,511.5C 186.825,509.473 153.492,504.307 120.5,496C 101.468,491.314 83.8018,483.647 67.5,473C 59.6558,467.165 54.1558,459.665 51,450.5C 50.3333,385.167 50.3333,319.833 51,254.5C 54.0897,227.23 62.7564,201.897 77,178.5C 87.7627,155.686 92.7627,131.686 92,106.5C 89.1742,103.516 86.8409,100.183 85,96.5C 84.0363,76.4352 84.3696,56.4352 86,36.5C 89.878,30.9547 94.7114,26.4547 100.5,23C 119.596,14.2253 139.596,8.55865 160.5,6C 180.573,3.09394 200.573,0.927269 220.5,-0.5 Z"/></g>
<g><path style="opacity:1" fill="#01a7f2" d="M 380.5,30.5 C 394.766,39.3044 395.099,48.6378 381.5,58.5C 358.062,65.0195 334.062,69.1862 309.5,71C 276.851,72.5553 244.184,72.8887 211.5,72C 179.068,70.5392 147.401,64.8725 116.5,55C 113.167,53.3333 109.833,51.6667 106.5,50C 100.342,47.2041 100.008,43.8708 105.5,40C 120.096,32.8016 135.429,27.8016 151.5,25C 222.217,13.4793 292.884,13.8126 363.5,26C 369.316,27.0612 374.982,28.5612 380.5,30.5 Z"/></g>
<g><path style="opacity:1" fill="#0274b8" d="M 380.5,30.5 C 389.697,32.7312 398.363,36.2312 406.5,41C 407.804,41.804 408.471,42.9707 408.5,44.5C 407.394,47.4411 405.394,49.6078 402.5,51C 395.806,54.3976 388.806,56.8976 381.5,58.5C 395.099,48.6378 394.766,39.3044 380.5,30.5 Z"/></g>
<g><path style="opacity:1" fill="#273491" d="M 380.5,104.5 C 384.762,102.074 388.262,98.7405 391,94.5C 391.167,91.1667 391.333,87.8333 391.5,84.5C 391.486,80.7614 390.82,77.428 389.5,74.5C 395.767,72.2887 401.934,69.6221 408,66.5C 408.667,75.1667 408.667,83.8333 408,92.5C 399.886,98.8044 390.72,102.804 380.5,104.5 Z"/></g>
<g><path style="opacity:1" fill="#3e4fb2" d="M 389.5,74.5 C 390.82,77.428 391.486,80.7614 391.5,84.5C 391.333,87.8333 391.167,91.1667 391,94.5C 388.262,98.7405 384.762,102.074 380.5,104.5C 377.361,105.887 374.028,107.054 370.5,108C 318.306,118.061 265.639,121.394 212.5,118C 179.717,116.648 147.717,110.981 116.5,101C 110.823,98.925 105.989,95.7584 102,91.5C 101.168,83.1467 101.335,74.8134 102.5,66.5C 116.94,73.0525 131.94,77.8858 147.5,81C 207.932,90.3249 268.599,91.9916 329.5,86C 349.768,83.3452 369.768,79.5119 389.5,74.5 Z"/></g>
<g><path style="opacity:1" fill="#f24234" d="M 386.5,121.5 C 390.463,150.895 399.63,178.895 414,205.5C 420.843,222.205 425.176,239.538 427,257.5C 427.667,320.5 427.667,383.5 427,446.5C 425.64,452.22 422.974,457.22 419,461.5C 414.934,465.077 410.768,468.411 406.5,471.5C 379.237,482.052 350.904,488.552 321.5,491C 256.146,498.704 191.479,495.038 127.5,480C 107.45,475.327 89.2829,466.827 73,454.5C 70.5584,451.952 68.8917,448.952 68,445.5C 67.3333,382.833 67.3333,320.167 68,257.5C 71.1026,230.858 79.7692,206.191 94,183.5C 103.106,162.077 108.606,139.744 110.5,116.5C 126.181,122.001 142.181,126.168 158.5,129C 221.823,137.649 285.156,137.649 348.5,129C 361.268,126.946 373.934,124.446 386.5,121.5 Z"/></g>
<g><path style="opacity:1" fill="#c31d1d" d="M 406.5,471.5 C 410.768,468.411 414.934,465.077 419,461.5C 422.974,457.22 425.64,452.22 427,446.5C 427.667,383.5 427.667,320.5 427,257.5C 425.176,239.538 420.843,222.205 414,205.5C 399.63,178.895 390.463,150.895 386.5,121.5C 390.656,119.665 394.989,117.999 399.5,116.5C 401.878,140.013 407.712,162.679 417,184.5C 431.661,208.484 440.328,234.484 443,262.5C 443.667,323.5 443.667,384.5 443,445.5C 439.934,451.9 435.434,457.067 429.5,461C 422.308,465.597 414.642,469.097 406.5,471.5 Z"/></g>
<g><path style="opacity:1" fill="#0b0201" d="M 132.5,144.5 C 141.896,144.376 145.396,148.709 143,157.5C 137.514,163.08 132.514,162.747 128,156.5C 127.333,154.167 127.333,151.833 128,149.5C 129.366,147.638 130.866,145.972 132.5,144.5 Z"/></g>
<g><path style="opacity:1" fill="#040100" d="M 157.5,153.5 C 220.66,164.075 283.827,164.075 347,153.5C 355.46,153.29 358.793,157.29 357,165.5C 355.833,166.667 354.667,167.833 353.5,169C 288.911,181.331 224.244,181.665 159.5,170C 152.309,165.306 151.642,159.806 157.5,153.5 Z"/></g>
<g><path style="opacity:1" fill="#050201" d="M 162.5,247.5 C 224.168,247.333 285.834,247.5 347.5,248C 361.225,251.391 370.058,259.891 374,273.5C 374.667,309.167 374.667,344.833 374,380.5C 370.433,396.399 360.6,405.899 344.5,409C 284.5,409.667 224.5,409.667 164.5,409C 148.109,405.276 138.609,395.109 136,378.5C 135.333,344.167 135.333,309.833 136,275.5C 139.274,260.73 148.107,251.397 162.5,247.5 Z"/></g>
<g><path style="opacity:1" fill="#080101" d="M 89.5,264.5 C 98.1606,263.329 101.994,266.996 101,275.5C 98.5647,280.224 94.7314,281.724 89.5,280C 82.889,274.798 82.889,269.631 89.5,264.5 Z"/></g>
<g><path style="opacity:1" fill="#f4f4f4" d="M 166.5,264.5 C 222.501,264.333 278.501,264.5 334.5,265C 337.231,267.626 339.064,270.793 340,274.5C 340.667,309.833 340.667,345.167 340,380.5C 339.296,384.625 337.463,388.125 334.5,391C 278.501,391.5 222.501,391.667 166.5,391.5C 158.822,389.988 154.322,385.321 153,377.5C 152.333,344.167 152.333,310.833 153,277.5C 154.845,270.341 159.345,266.008 166.5,264.5 Z"/></g>
<g><path style="opacity:1" fill="#c2cacd" d="M 166.5,264.5 C 225.332,263.335 284.332,263.168 343.5,264C 349.841,265.675 354.341,269.508 357,275.5C 357.667,310.5 357.667,345.5 357,380.5C 354.833,385.333 351.333,388.833 346.5,391C 315.88,392.152 285.213,392.652 254.5,392.5C 224.998,392.5 195.665,392.167 166.5,391.5C 222.501,391.667 278.501,391.5 334.5,391C 337.463,388.125 339.296,384.625 340,380.5C 340.667,345.167 340.667,309.833 340,274.5C 339.064,270.793 337.231,267.626 334.5,265C 278.501,264.5 222.501,264.333 166.5,264.5 Z"/></g>
<g><path style="opacity:1" fill="#030000" d="M 89.5,298.5 C 94.635,297.426 98.4683,299.093 101,303.5C 101.667,345.5 101.667,387.5 101,429.5C 98.4586,434.069 94.6253,435.569 89.5,434C 87.6217,432.457 86.1217,430.624 85,428.5C 84.3333,386.833 84.3333,345.167 85,303.5C 86.0591,301.341 87.5591,299.674 89.5,298.5 Z"/></g>
</svg>
