<?xml version="1.0" encoding="UTF-8"?>
<!DOCTYPE svg PUBLIC "-//W3C//DTD SVG 1.1//EN" "http://www.w3.org/Graphics/SVG/1.1/DTD/svg11.dtd">
<svg xmlns="http://www.w3.org/2000/svg" version="1.1" width="512px" height="512px" style="shape-rendering:geometricPrecision; text-rendering:geometricPrecision; image-rendering:optimizeQuality; fill-rule:evenodd; clip-rule:evenodd" xmlns:xlink="http://www.w3.org/1999/xlink">
<g><path style="opacity:0.987" fill="#000000" d="M 113.5,275.5 C 115.98,276.912 118.313,278.578 120.5,280.5C 119.399,282.642 118.399,284.808 117.5,287C 123.528,287.83 129.528,287.664 135.5,286.5C 137.846,280.457 141.18,275.124 145.5,270.5C 149.644,273.476 153.644,276.643 157.5,280C 155.968,282.034 154.635,284.201 153.5,286.5C 175.826,287.666 198.159,287.833 220.5,287C 225.333,284.833 228.833,281.333 231,276.5C 231.5,261.504 231.667,246.504 231.5,231.5C 215.5,231.5 199.5,231.5 183.5,231.5C 183.5,226.167 183.5,220.833 183.5,215.5C 199.5,215.5 215.5,215.5 231.5,215.5C 231.5,207.5 231.5,199.5 231.5,191.5C 210.167,191.5 188.833,191.5 167.5,191.5C 167.939,203.909 167.439,216.242 166,228.5C 154.416,237.874 143.582,248.041 133.5,259C 132.5,259.667 131.5,259.667 130.5,259C 128.937,257.053 126.937,255.886 124.5,255.5C 122.548,254.215 120.882,252.549 119.5,250.5C 123.645,245.187 127.979,240.02 132.5,235C 138.759,229.952 144.926,224.786 151,219.5C 151.333,206.167 151.667,192.833 152,179.5C 152.374,178.584 152.874,177.75 153.5,177C 179.411,175.518 205.411,175.018 231.5,175.5C 231.5,159.5 231.5,143.5 231.5,127.5C 202.096,125.928 183.596,110.928 176,82.5C 172.476,56.3512 181.643,36.1845 203.5,22C 208.951,19.4051 214.618,17.4051 220.5,16C 243.833,15.3333 267.167,15.3333 290.5,16C 308.627,19.9692 321.96,30.1359 330.5,46.5C 379.83,47.3333 429.163,47.8333 478.5,48C 492.482,53.4572 497.982,63.6239 495,78.5C 492.167,86.6667 486.667,92.1667 478.5,95C 429.163,95.1667 379.83,95.6667 330.5,96.5C 319.62,116.778 302.62,127.112 279.5,127.5C 279.5,143.5 279.5,159.5 279.5,175.5C 305.589,175.018 331.589,175.518 357.5,177C 358.126,177.75 358.626,178.584 359,179.5C 359.333,192.833 359.667,206.167 360,219.5C 407.229,254.176 424.229,300.176 411,357.5C 394.304,402.597 376.637,447.264 358,491.5C 356.745,492.211 355.579,493.044 354.5,494C 289.557,495.656 224.557,495.989 159.5,495C 154.124,493.444 150.624,489.944 149,484.5C 134.529,446.755 119.863,409.088 105,371.5C 95.1459,346.887 92.8126,321.554 98,295.5C 99.6552,287.208 102.655,279.541 107,272.5C 109.253,273.377 111.419,274.377 113.5,275.5 Z"/></g>
<g><path style="opacity:1" fill="#915639" d="M 231.5,31.5 C 236.833,31.5 242.167,31.5 247.5,31.5C 247.5,47.5 247.5,63.5 247.5,79.5C 242.167,79.5 236.833,79.5 231.5,79.5C 231.5,63.5 231.5,47.5 231.5,31.5 Z"/></g>
<g><path style="opacity:1" fill="#915639" d="M 263.5,31.5 C 268.833,31.5 274.167,31.5 279.5,31.5C 279.5,47.5 279.5,63.5 279.5,79.5C 274.167,79.5 268.833,79.5 263.5,79.5C 263.5,63.5 263.5,47.5 263.5,31.5 Z"/></g>
<g><path style="opacity:1" fill="#905539" d="M 212.5,35.5 C 213.5,35.5 214.5,35.5 215.5,35.5C 215.5,50.1667 215.5,64.8333 215.5,79.5C 207.5,79.5 199.5,79.5 191.5,79.5C 189.413,60.3448 196.413,45.6782 212.5,35.5 Z"/></g>
<g><path style="opacity:1" fill="#915539" d="M 295.5,35.5 C 306.55,40.0539 314.05,48.0539 318,59.5C 319.167,60.6667 320.333,61.8333 321.5,63C 372.5,63.3333 423.5,63.6667 474.5,64C 479.535,67.0133 480.702,71.1799 478,76.5C 477.097,77.7014 475.931,78.5348 474.5,79C 414.834,79.5 355.168,79.6667 295.5,79.5C 295.5,64.8333 295.5,50.1667 295.5,35.5 Z"/></g>
<g><path style="opacity:1" fill="#fdb430" d="M 199.5,96.5 C 236.664,95.3356 273.998,95.1689 311.5,96C 299.944,108.484 285.61,113.817 268.5,112C 267.069,112.465 265.903,113.299 265,114.5C 263.524,134.741 263.024,155.075 263.5,175.5C 258.167,175.5 252.833,175.5 247.5,175.5C 247.976,155.075 247.476,134.741 246,114.5C 244.829,113.107 243.329,112.273 241.5,112C 224.795,113.8 210.795,108.634 199.5,96.5 Z"/></g>
<g><path style="opacity:0.999" fill="#f8e78f" d="M 113.5,275.5 C 116.657,268.517 120.324,261.85 124.5,255.5C 126.937,255.886 128.937,257.053 130.5,259C 131.5,259.667 132.5,259.667 133.5,259C 143.582,248.041 154.416,237.874 166,228.5C 167.439,216.242 167.939,203.909 167.5,191.5C 188.833,191.5 210.167,191.5 231.5,191.5C 231.5,199.5 231.5,207.5 231.5,215.5C 215.5,215.5 199.5,215.5 183.5,215.5C 183.5,220.833 183.5,226.167 183.5,231.5C 199.5,231.5 215.5,231.5 231.5,231.5C 231.667,246.504 231.5,261.504 231,276.5C 228.833,281.333 225.333,284.833 220.5,287C 198.159,287.833 175.826,287.666 153.5,286.5C 154.635,284.201 155.968,282.034 157.5,280C 153.644,276.643 149.644,273.476 145.5,270.5C 141.18,275.124 137.846,280.457 135.5,286.5C 129.528,287.664 123.528,287.83 117.5,287C 118.399,284.808 119.399,282.642 120.5,280.5C 118.313,278.578 115.98,276.912 113.5,275.5 Z"/></g>
<g><path style="opacity:1" fill="#feb530" d="M 247.5,191.5 C 252.833,191.5 258.167,191.5 263.5,191.5C 263.5,199.5 263.5,207.5 263.5,215.5C 258.167,215.5 252.833,215.5 247.5,215.5C 247.5,207.5 247.5,199.5 247.5,191.5 Z"/></g>
<g><path style="opacity:1" fill="#f9e88f" d="M 279.5,191.5 C 300.833,191.5 322.167,191.5 343.5,191.5C 343.5,199.5 343.5,207.5 343.5,215.5C 322.167,215.5 300.833,215.5 279.5,215.5C 279.5,207.5 279.5,199.5 279.5,191.5 Z"/></g>
<g><path style="opacity:1" fill="#feb430" d="M 294.5,303.5 C 254.024,334.156 209.19,356.823 160,371.5C 158.97,371.836 158.47,372.503 158.5,373.5C 153.494,362.134 148.994,350.467 145,338.5C 142.9,326.775 143.067,315.108 145.5,303.5C 170.169,303.667 194.836,303.5 219.5,303C 232.858,300.749 241.691,293.249 246,280.5C 247.423,264.215 247.923,247.882 247.5,231.5C 252.833,231.5 258.167,231.5 263.5,231.5C 263.333,246.17 263.5,260.837 264,275.5C 267.134,292.485 277.301,301.818 294.5,303.5 Z"/></g>
<g><path style="opacity:1" fill="#f9e78f" d="M 360.5,242.5 C 346.167,258.167 331.167,273.167 315.5,287.5C 307.16,287.666 298.827,287.5 290.5,287C 285.667,284.833 282.167,281.333 280,276.5C 279.5,261.504 279.333,246.504 279.5,231.5C 302.836,231.333 326.169,231.5 349.5,232C 353.624,235.055 357.291,238.555 360.5,242.5 Z"/></g>
<g><path style="opacity:1" fill="#f4de72" d="M 360.5,242.5 C 375.479,254.252 386.479,269.085 393.5,287C 367.502,287.5 341.502,287.667 315.5,287.5C 331.167,273.167 346.167,258.167 360.5,242.5 Z"/></g>
<g><path style="opacity:1" fill="#0b0a06" d="M 165.5,249.5 C 169.15,253.427 172.817,257.427 176.5,261.5C 172.814,265.02 168.981,268.353 165,271.5C 161.318,267.985 157.818,264.318 154.5,260.5C 157.881,256.452 161.548,252.785 165.5,249.5 Z"/></g>
<g><path style="opacity:1" fill="#f9b12f" d="M 142.5,377.5 C 141.85,377.196 141.183,376.863 140.5,376.5C 136.883,377.654 133.216,378.654 129.5,379.5C 128.287,379.747 127.62,380.414 127.5,381.5C 117.496,362.81 112.163,342.81 111.5,321.5C 111.667,315.483 112.001,309.483 112.5,303.5C 118.167,303.5 123.833,303.5 129.5,303.5C 126.756,316.524 126.923,329.524 130,342.5C 133.673,354.353 137.84,366.02 142.5,377.5 Z"/></g>
<g><path style="opacity:1" fill="#fea812" d="M 294.5,303.5 C 329.167,303.5 363.833,303.5 398.5,303.5C 400.17,317.912 399.67,332.246 397,346.5C 380.258,390.897 363.424,435.23 346.5,479.5C 285.83,479.833 225.163,479.5 164.5,478.5C 151.869,446.245 139.536,413.912 127.5,381.5C 127.62,380.414 128.287,379.747 129.5,379.5C 133.216,378.654 136.883,377.654 140.5,376.5C 141.183,376.863 141.85,377.196 142.5,377.5C 144.423,382.098 146.257,386.765 148,391.5C 148.519,392.516 149.353,393.182 150.5,393.5C 155.274,392.252 159.608,390.252 163.5,387.5C 161.432,382.962 159.765,378.295 158.5,373.5C 158.47,372.503 158.97,371.836 160,371.5C 209.19,356.823 254.024,334.156 294.5,303.5 Z"/></g>
</svg>
