<?xml version="1.0" encoding="UTF-8"?>
<!DOCTYPE svg PUBLIC "-//W3C//DTD SVG 1.1//EN" "http://www.w3.org/Graphics/SVG/1.1/DTD/svg11.dtd">
<svg xmlns="http://www.w3.org/2000/svg" version="1.1" width="512px" height="512px" style="shape-rendering:geometricPrecision; text-rendering:geometricPrecision; image-rendering:optimizeQuality; fill-rule:evenodd; clip-rule:evenodd" xmlns:xlink="http://www.w3.org/1999/xlink">
<g><path style="opacity:0.985" fill="#272626" d="M 182.5,-0.5 C 201.5,-0.5 220.5,-0.5 239.5,-0.5C 239.783,0.28913 240.283,0.955796 241,1.5C 241.667,15.8333 241.667,30.1667 241,44.5C 239.826,46.6709 237.993,47.6709 235.5,47.5C 234.557,84.1939 240.057,119.861 252,154.5C 261.393,178.679 270.393,203.013 279,227.5C 285.776,250.379 290.109,273.713 292,297.5C 292.667,326.833 292.667,356.167 292,385.5C 290.89,387.037 289.39,387.703 287.5,387.5C 284.288,387.288 282.288,385.621 281.5,382.5C 281.5,364.167 281.5,345.833 281.5,327.5C 234.5,327.5 187.5,327.5 140.5,327.5C 140.5,371.5 140.5,415.5 140.5,459.5C 170.167,459.5 199.833,459.5 229.5,459.5C 231.935,460.27 233.269,461.937 233.5,464.5C 233.152,467.019 231.819,468.853 229.5,470C 199.835,470.5 170.169,470.667 140.5,470.5C 140.183,476.909 140.683,483.243 142,489.5C 144.147,494.816 147.98,498.149 153.5,499.5C 189.669,500.83 226.002,500.83 262.5,499.5C 262.376,498.893 262.043,498.56 261.5,498.5C 258.399,487.329 256.066,475.995 254.5,464.5C 254.333,446.164 254.5,427.83 255,409.5C 255.833,408.667 256.667,407.833 257.5,407C 267.494,406.5 277.494,406.334 287.5,406.5C 317.835,406.333 348.168,406.5 378.5,407C 379.308,407.308 379.975,407.808 380.5,408.5C 381.686,427.806 381.519,447.14 380,466.5C 378.423,482.499 373.923,497.499 366.5,511.5C 294.5,511.5 222.5,511.5 150.5,511.5C 145.683,509.503 141.183,506.836 137,503.5C 133.889,499.613 131.556,495.28 130,490.5C 129.333,426.167 129.333,361.833 130,297.5C 132.383,267.636 138.716,238.636 149,210.5C 156.667,190.5 164.333,170.5 172,150.5C 182.808,117.041 187.641,82.7079 186.5,47.5C 184.418,47.528 182.584,46.8613 181,45.5C 180.333,30.8333 180.333,16.1667 181,1.5C 181.717,0.955796 182.217,0.28913 182.5,-0.5 Z"/></g>
<g><path style="opacity:1" fill="#c95122" d="M 191.5,10.5 C 204.5,10.5 217.5,10.5 230.5,10.5C 230.5,18.8333 230.5,27.1667 230.5,35.5C 217.5,35.5 204.5,35.5 191.5,35.5C 191.5,27.1667 191.5,18.8333 191.5,10.5 Z"/></g>
<g><path style="opacity:1" fill="#fdfdfd" d="M 224.5,64.5 C 224.5,68.5 224.5,72.5 224.5,76.5C 215.5,76.5 206.5,76.5 197.5,76.5C 197.5,71.8333 197.5,67.1667 197.5,62.5C 197.5,57.5 197.5,52.5 197.5,47.5C 206.167,47.5 214.833,47.5 223.5,47.5C 223.907,53.1613 224.24,58.828 224.5,64.5 Z"/></g>
<g><path style="opacity:1" fill="#9f9f9f" d="M 197.5,62.5 C 197.5,67.1667 197.5,71.8333 197.5,76.5C 206.5,76.5 215.5,76.5 224.5,76.5C 224.5,72.5 224.5,68.5 224.5,64.5C 225.485,68.6344 225.818,72.9677 225.5,77.5C 215.833,77.5 206.167,77.5 196.5,77.5C 196.179,72.3054 196.513,67.3054 197.5,62.5 Z"/></g>
<g><path style="opacity:1" fill="#fdc035" d="M 281.5,316.5 C 234.833,316.5 188.167,316.5 141.5,316.5C 141.5,311.167 141.5,305.833 141.5,300.5C 143.252,270.576 149.418,241.576 160,213.5C 170.991,186.193 180.991,158.526 190,130.5C 193.467,116.702 195.3,102.702 195.5,88.5C 205.833,88.5 216.167,88.5 226.5,88.5C 227.705,106.065 230.539,123.399 235,140.5C 244.47,166.577 254.137,192.577 264,218.5C 275.305,250.192 281.138,282.859 281.5,316.5 Z"/></g>
<g><path style="opacity:1" fill="#584929" d="M 141.5,300.5 C 141.5,305.833 141.5,311.167 141.5,316.5C 188.167,316.5 234.833,316.5 281.5,316.5C 234.67,317.499 187.67,317.832 140.5,317.5C 140.178,311.642 140.511,305.975 141.5,300.5 Z"/></g>
<g><path style="opacity:1" fill="#bebebe" d="M 281.5,382.5 C 280.503,364.674 280.17,346.674 280.5,328.5C 234.167,328.5 187.833,328.5 141.5,328.5C 141.5,371.833 141.5,415.167 141.5,458.5C 171.005,458.169 200.338,458.502 229.5,459.5C 199.833,459.5 170.167,459.5 140.5,459.5C 140.5,415.5 140.5,371.5 140.5,327.5C 187.5,327.5 234.5,327.5 281.5,327.5C 281.5,345.833 281.5,364.167 281.5,382.5 Z"/></g>
<g><path style="opacity:1" fill="#fdfdfd" d="M 281.5,382.5 C 282.288,385.621 284.288,387.288 287.5,387.5C 287.5,393.833 287.5,400.167 287.5,406.5C 277.494,406.334 267.494,406.5 257.5,407C 256.667,407.833 255.833,408.667 255,409.5C 254.5,427.83 254.333,446.164 254.5,464.5C 247.5,464.5 240.5,464.5 233.5,464.5C 233.269,461.937 231.935,460.27 229.5,459.5C 200.338,458.502 171.005,458.169 141.5,458.5C 141.5,415.167 141.5,371.833 141.5,328.5C 187.833,328.5 234.167,328.5 280.5,328.5C 280.17,346.674 280.503,364.674 281.5,382.5 Z"/></g>
<g><path style="opacity:1" fill="#2a2a2a" d="M 172.5,388.5 C 180.167,388.5 187.833,388.5 195.5,388.5C 195.5,384.167 195.5,379.833 195.5,375.5C 187.5,375.5 179.5,375.5 171.5,375.5C 168.283,375.115 166.616,373.281 166.5,370C 166.643,367.849 167.643,366.182 169.5,365C 178.16,364.5 186.827,364.334 195.5,364.5C 195.334,358.824 195.501,353.157 196,347.5C 199.619,344.657 202.952,344.99 206,348.5C 206.499,353.823 206.666,359.156 206.5,364.5C 214.84,364.334 223.173,364.5 231.5,365C 236.395,367.823 236.729,371.157 232.5,375C 223.84,375.5 215.173,375.666 206.5,375.5C 206.5,379.833 206.5,384.167 206.5,388.5C 214.507,388.334 222.507,388.5 230.5,389C 231.667,389.5 232.5,390.333 233,391.5C 233.667,400.833 233.667,410.167 233,419.5C 230.36,421.873 227.193,423.207 223.5,423.5C 226.333,427.167 229.167,430.833 232,434.5C 233.756,439.406 232.089,442.073 227,442.5C 224.497,442.01 222.497,440.677 221,438.5C 217.358,433.358 213.525,428.358 209.5,423.5C 204.533,422.338 199.533,422.171 194.5,423C 189.689,429.312 184.689,435.478 179.5,441.5C 173.197,443.363 170.364,441.03 171,434.5C 174.167,430.667 177.333,426.833 180.5,423C 177.167,422.667 173.833,422.333 170.5,422C 169.874,421.25 169.374,420.416 169,419.5C 168.333,409.833 168.333,400.167 169,390.5C 169.816,389.177 170.983,388.511 172.5,388.5 Z"/></g>
<g><path style="opacity:1" fill="#c2c2c2" d="M 171.5,375.5 C 179.5,375.5 187.5,375.5 195.5,375.5C 195.5,379.833 195.5,384.167 195.5,388.5C 187.833,388.5 180.167,388.5 172.5,388.5C 179.648,387.508 186.981,387.175 194.5,387.5C 194.5,383.833 194.5,380.167 194.5,376.5C 186.648,376.825 178.982,376.492 171.5,375.5 Z"/></g>
<g><path style="opacity:1" fill="#fefefe" d="M 179.5,399.5 C 193.833,399.5 208.167,399.5 222.5,399.5C 222.5,403.5 222.5,407.5 222.5,411.5C 208.167,411.5 193.833,411.5 179.5,411.5C 179.5,407.5 179.5,403.5 179.5,399.5 Z"/></g>
<g><path style="opacity:1" fill="#59372c" d="M 265.5,418.5 C 300.329,417.502 335.329,417.168 370.5,417.5C 370.819,422.363 370.486,427.03 369.5,431.5C 369.5,427.167 369.5,422.833 369.5,418.5C 334.833,418.5 300.167,418.5 265.5,418.5 Z"/></g>
<g><path style="opacity:1" fill="#7b4230" d="M 265.5,418.5 C 300.167,418.5 334.833,418.5 369.5,418.5C 369.5,422.833 369.5,427.167 369.5,431.5C 334.833,431.5 300.167,431.5 265.5,431.5C 265.5,427.167 265.5,422.833 265.5,418.5 Z"/></g>
<g><path style="opacity:1" fill="#7b4130" d="M 265.5,442.5 C 300.167,442.5 334.833,442.5 369.5,442.5C 370.119,462.393 366.786,481.559 359.5,500C 330.835,500.5 302.169,500.667 273.5,500.5C 267.381,481.664 264.714,462.331 265.5,442.5 Z"/></g>
<g><path style="opacity:1" fill="#fec036" d="M 233.5,464.5 C 240.5,464.5 247.5,464.5 254.5,464.5C 256.066,475.995 258.399,487.329 261.5,498.5C 225.671,499.498 189.671,499.832 153.5,499.5C 147.98,498.149 144.147,494.816 142,489.5C 140.683,483.243 140.183,476.909 140.5,470.5C 170.169,470.667 199.835,470.5 229.5,470C 231.819,468.853 233.152,467.019 233.5,464.5 Z"/></g>
<g><path style="opacity:1" fill="#d09f32" d="M 261.5,498.5 C 262.043,498.56 262.376,498.893 262.5,499.5C 226.002,500.83 189.669,500.83 153.5,499.5C 189.671,499.832 225.671,499.498 261.5,498.5 Z"/></g>
</svg>
