<?xml version="1.0" encoding="UTF-8"?>
<!DOCTYPE svg PUBLIC "-//W3C//DTD SVG 1.1//EN" "http://www.w3.org/Graphics/SVG/1.1/DTD/svg11.dtd">
<svg xmlns="http://www.w3.org/2000/svg" version="1.1" width="512px" height="512px" style="shape-rendering:geometricPrecision; text-rendering:geometricPrecision; image-rendering:optimizeQuality; fill-rule:evenodd; clip-rule:evenodd" xmlns:xlink="http://www.w3.org/1999/xlink">
<g><path style="opacity:0.981" fill="#030303" d="M 452.5,-0.5 C 457.5,-0.5 462.5,-0.5 467.5,-0.5C 486.118,7.41026 492.285,21.0769 486,40.5C 470,60.5 454,80.5 438,100.5C 427.69,115.613 418.523,131.447 410.5,148C 420.919,158.999 429.752,171.165 437,184.5C 445.661,203.781 447.994,223.781 444,244.5C 437.667,269.5 431.333,294.5 425,319.5C 424.096,324.907 420.929,327.574 415.5,327.5C 411.332,326.17 409.332,323.336 409.5,319C 410.788,311.694 412.288,304.528 414,297.5C 399.444,311.516 383.278,323.182 365.5,332.5C 296.375,363.324 225.042,369.491 151.5,351C 113.948,341.484 81.4481,323.317 54,296.5C 62.3278,331.145 70.9945,365.811 80,400.5C 82.6897,410.592 85.6897,420.592 89,430.5C 103.659,454.324 124.159,470.99 150.5,480.5C 181.419,493.42 213.752,498.587 247.5,496C 279.663,494.376 309.996,486.042 338.5,471C 353.811,462.588 366.311,451.088 376,436.5C 379.494,430.512 382.161,424.179 384,417.5C 389.013,394.277 395.179,371.443 402.5,349C 405.014,347.748 407.68,347.248 410.5,347.5C 415.109,349.725 416.609,353.391 415,358.5C 409.509,379.462 404.176,400.462 399,421.5C 391.83,444.004 378.664,462.17 359.5,476C 328.195,496.713 293.861,508.546 256.5,511.5C 241.5,511.5 226.5,511.5 211.5,511.5C 181.788,508.545 153.454,500.379 126.5,487C 107.21,476.71 91.3765,462.544 79,444.5C 76.0602,438.954 73.3935,433.287 71,427.5C 55.6667,367.5 40.3333,307.5 25,247.5C 17.9556,207.633 29.4556,174.133 59.5,147C 92.8028,118.855 131.136,101.188 174.5,94C 216.763,86.3311 258.93,86.8311 301,95.5C 328.716,83.8929 355.216,70.0596 380.5,54C 384.149,53.037 387.482,53.537 390.5,55.5C 392.091,59.524 391.757,63.3573 389.5,67C 380.43,73.0639 371.097,78.7305 361.5,84C 344.346,92.0771 327.346,100.41 310.5,109C 290.288,122.928 277.122,141.762 271,165.5C 269.032,177.781 270.699,189.448 276,200.5C 277.049,202.618 278.549,204.284 280.5,205.5C 285.74,211.626 292.407,215.459 300.5,217C 335.6,217.866 362.433,203.366 381,173.5C 395.177,139.459 413.177,107.793 435,78.5C 447.333,63.5 459.667,48.5 472,33.5C 474.759,24.8463 471.925,18.6796 463.5,15C 460.036,14.1834 456.702,14.5167 453.5,16C 448.973,19.6987 444.639,23.532 440.5,27.5C 432.727,33.4299 425.06,39.5966 417.5,46C 413.567,46.8844 409.901,46.3844 406.5,44.5C 404.391,38.9922 405.725,34.4922 410.5,31C 420.792,23.0434 430.792,14.71 440.5,6C 444.147,3.01273 448.147,0.846059 452.5,-0.5 Z"/></g>
<g><path style="opacity:1" fill="#da616c" d="M 280.5,205.5 C 285.391,205.468 290.057,204.801 294.5,203.5C 303.12,207.767 312.12,208.6 321.5,206C 352.847,196.653 372.68,176.153 381,144.5C 382.638,134.568 381.138,125.235 376.5,116.5C 394.144,84.2241 415.478,54.5574 440.5,27.5C 444.639,23.532 448.973,19.6987 453.5,16C 456.702,14.5167 460.036,14.1834 463.5,15C 471.925,18.6796 474.759,24.8463 472,33.5C 459.667,48.5 447.333,63.5 435,78.5C 413.177,107.793 395.177,139.459 381,173.5C 362.433,203.366 335.6,217.866 300.5,217C 292.407,215.459 285.74,211.626 280.5,205.5 Z"/></g>
<g><path style="opacity:0.998" fill="#de7d83" d="M 440.5,27.5 C 415.478,54.5574 394.144,84.2241 376.5,116.5C 366.728,106.973 355.061,103.806 341.5,107C 306.019,117.804 285.686,141.471 280.5,178C 280.641,189.126 285.308,197.626 294.5,203.5C 290.057,204.801 285.391,205.468 280.5,205.5C 278.549,204.284 277.049,202.618 276,200.5C 270.699,189.448 269.032,177.781 271,165.5C 277.122,141.762 290.288,122.928 310.5,109C 327.346,100.41 344.346,92.0771 361.5,84C 371.097,78.7305 380.43,73.0639 389.5,67C 391.757,63.3573 392.091,59.524 390.5,55.5C 396.152,52.3371 401.485,48.6705 406.5,44.5C 409.901,46.3844 413.567,46.8844 417.5,46C 425.06,39.5966 432.727,33.4299 440.5,27.5 Z"/></g>
<g><path style="opacity:1" fill="#f4f1f1" d="M 209.5,104.5 C 234.639,103.614 259.639,104.947 284.5,108.5C 285.932,108.733 286.432,109.4 286,110.5C 282.131,114.034 278.631,117.867 275.5,122C 223.416,115.575 173.082,122.241 124.5,142C 102.329,150.988 83.4956,164.488 68,182.5C 44.5426,219.895 49.3759,253.395 82.5,283C 104.677,300.089 129.344,312.422 156.5,320C 225.742,338.862 292.742,332.862 357.5,302C 373.726,293.44 387.893,282.273 400,268.5C 421.682,237.248 420.516,206.914 396.5,177.5C 397.86,172.447 400.027,167.781 403,163.5C 437.126,200.23 439.46,238.897 410,279.5C 392.099,299.707 370.599,314.873 345.5,325C 273.872,352.637 201.872,353.637 129.5,328C 97.5869,316.07 71.4203,296.57 51,269.5C 31.8907,237.258 33.2241,205.925 55,175.5C 73.3205,152.736 96.1539,135.902 123.5,125C 151.246,113.729 179.913,106.895 209.5,104.5 Z"/></g>
<g><path style="opacity:1" fill="#040202" d="M 376.5,116.5 C 381.138,125.235 382.638,134.568 381,144.5C 372.68,176.153 352.847,196.653 321.5,206C 312.12,208.6 303.12,207.767 294.5,203.5C 285.308,197.626 280.641,189.126 280.5,178C 285.686,141.471 306.019,117.804 341.5,107C 355.061,103.806 366.728,106.973 376.5,116.5 Z"/></g>
<g><path style="opacity:1" fill="#ecc783" d="M 365.5,143.5 C 365.631,142.761 365.464,142.094 365,141.5C 361.698,150.107 357.365,158.107 352,165.5C 346.934,171.059 342.1,176.725 337.5,182.5C 327.999,189.408 317.332,192.574 305.5,192C 300.765,190.932 297.598,188.099 296,183.5C 295.918,161.832 304.752,144.665 322.5,132C 333.038,123.397 345.038,120.064 358.5,122C 362.333,123.167 364.833,125.667 366,129.5C 366.815,134.352 366.648,139.019 365.5,143.5 Z"/></g>
<g><path style="opacity:1" fill="#eae2df" d="M 258.5,155.5 C 255.946,156.388 253.279,156.721 250.5,156.5C 209.478,153.948 170.145,160.781 132.5,177C 129.814,179.546 128.814,182.713 129.5,186.5C 123.5,189.833 117.5,193.167 111.5,196.5C 109.678,194.84 107.511,193.84 105,193.5C 88.7456,202.758 77.079,216.092 70,233.5C 66.6468,220.718 68.6468,208.718 76,197.5C 85.9634,183.539 98.4634,172.372 113.5,164C 161.416,139.07 212.083,130.237 265.5,137.5C 262.038,143.087 259.704,149.087 258.5,155.5 Z"/></g>
<g><path style="opacity:1" fill="#080604" d="M 325.5,142.5 C 332.484,143.664 339.484,144.831 346.5,146C 351.711,150.299 351.711,154.632 346.5,159C 339.032,159.861 331.699,159.195 324.5,157C 319.003,151.683 319.336,146.85 325.5,142.5 Z"/></g>
<g><path style="opacity:1" fill="#deb366" d="M 365.5,143.5 C 360.81,159.898 351.477,172.898 337.5,182.5C 342.1,176.725 346.934,171.059 352,165.5C 357.365,158.107 361.698,150.107 365,141.5C 365.464,142.094 365.631,142.761 365.5,143.5 Z"/></g>
<g><path style="opacity:1" fill="#545150" d="M 258.5,155.5 C 257.666,156.748 256.333,157.415 254.5,157.5C 252.955,157.489 251.622,157.156 250.5,156.5C 253.279,156.721 255.946,156.388 258.5,155.5 Z"/></g>
<g><path style="opacity:1" fill="#050402" d="M 310.5,167.5 C 318.885,166.716 322.051,170.383 320,178.5C 316.269,182.05 312.269,182.383 308,179.5C 305.523,174.669 306.356,170.669 310.5,167.5 Z"/></g>
<g><path style="opacity:1" fill="#eec884" d="M 251.5,171.5 C 252.209,172.404 253.209,172.737 254.5,172.5C 254.187,176.042 254.521,179.375 255.5,182.5C 256.398,196.546 261.731,208.546 271.5,218.5C 263.112,225.72 255.612,233.72 249,242.5C 247.874,248.453 249.207,253.786 253,258.5C 260.833,266.333 268.667,274.167 276.5,282C 278.976,284.571 281.976,286.071 285.5,286.5C 283.507,288.163 281.174,289.33 278.5,290C 232.442,304.673 185.775,307.173 138.5,297.5C 116.838,289.92 98.0042,277.92 82,261.5C 80.3674,246.992 84.034,233.992 93,222.5C 98.6979,216.468 104.698,210.801 111,205.5C 112.818,202.584 112.984,199.584 111.5,196.5C 117.5,193.167 123.5,189.833 129.5,186.5C 130.848,189.508 133.182,190.841 136.5,190.5C 157.878,182.488 179.878,176.655 202.5,173C 218.805,171.694 235.138,171.194 251.5,171.5 Z"/></g>
<g><path style="opacity:1" fill="#7d6945" d="M 251.5,171.5 C 252.833,171.5 254.167,171.5 255.5,171.5C 255.5,175.167 255.5,178.833 255.5,182.5C 254.521,179.375 254.187,176.042 254.5,172.5C 253.209,172.737 252.209,172.404 251.5,171.5 Z"/></g>
<g><path style="opacity:1" fill="#0b0906" d="M 210.5,190.5 C 217.175,190.334 223.842,190.5 230.5,191C 237.933,195.337 238.266,200.003 231.5,205C 223.833,205.667 216.167,205.667 208.5,205C 202.947,199.366 203.613,194.533 210.5,190.5 Z"/></g>
<g><path style="opacity:1" fill="#e5dddb" d="M 386.5,191.5 C 387.496,191.414 388.329,191.748 389,192.5C 398.735,205.367 402.069,219.7 399,235.5C 396.527,229.221 393.527,223.221 390,217.5C 385.645,212.646 381.478,207.646 377.5,202.5C 380.747,198.986 383.747,195.32 386.5,191.5 Z"/></g>
<g><path style="opacity:1" fill="#020201" d="M 132.5,212.5 C 149.837,212.333 167.17,212.5 184.5,213C 189.573,214.406 193.073,217.572 195,222.5C 195.667,237.5 195.667,252.5 195,267.5C 193.594,272.573 190.428,276.073 185.5,278C 167.5,278.667 149.5,278.667 131.5,278C 126.851,275.545 124.017,271.712 123,266.5C 122.333,252.167 122.333,237.833 123,223.5C 124.627,218.382 127.793,214.715 132.5,212.5 Z"/></g>
<g><path style="opacity:1" fill="#e9bb69" d="M 138.5,297.5 C 185.775,307.173 232.442,304.673 278.5,290C 281.174,289.33 283.507,288.163 285.5,286.5C 290.375,286.763 294.708,285.43 298.5,282.5C 317.549,274.892 334.383,263.892 349,249.5C 354.532,240.535 356.032,230.868 353.5,220.5C 357.405,218.297 361.238,215.964 365,213.5C 381.278,225.393 388.278,241.393 386,261.5C 370.908,277.221 353.075,289.055 332.5,297C 276.475,318.266 219.475,321.266 161.5,306C 153.542,303.629 145.875,300.796 138.5,297.5 Z"/></g>
<g><path style="opacity:1" fill="#edc883" d="M 353.5,220.5 C 356.032,230.868 354.532,240.535 349,249.5C 334.383,263.892 317.549,274.892 298.5,282.5C 309.798,270.702 321.298,259.035 333,247.5C 336.293,241.327 336.293,235.327 333,229.5C 340.137,227.181 346.971,224.181 353.5,220.5 Z"/></g>
<g><path style="opacity:1" fill="#faf1e1" d="M 180.5,227.5 C 180.5,239.5 180.5,251.5 180.5,263.5C 166.5,263.5 152.5,263.5 138.5,263.5C 138.5,251.5 138.5,239.5 138.5,227.5C 152.5,227.5 166.5,227.5 180.5,227.5 Z"/></g>
<g><path style="opacity:1" fill="#0a0805" d="M 214.5,227.5 C 224.832,227.675 227.499,232.175 222.5,241C 214.412,243.875 210.579,241.042 211,232.5C 211.997,230.677 213.164,229.01 214.5,227.5 Z"/></g>
<g><path style="opacity:1" fill="#f8eedf" d="M 283.5,227.5 C 288.441,229.09 293.441,230.59 298.5,232C 303.833,232.333 309.167,232.667 314.5,233C 316.5,235 318.5,237 320.5,239C 309.653,250.014 298.653,260.848 287.5,271.5C 279.833,263.5 272.167,255.5 264.5,247.5C 270.855,240.813 277.188,234.146 283.5,227.5 Z"/></g>
<g><path style="opacity:1" fill="#090704" d="M 99.5,239.5 C 107.775,238.706 110.942,242.373 109,250.5C 104.632,255.711 100.299,255.711 96,250.5C 94.6628,245.916 95.8295,242.249 99.5,239.5 Z"/></g>
<g><path style="opacity:1" fill="#050301" d="M 351.5,252.5 C 359.775,251.706 362.942,255.373 361,263.5C 356.167,268.333 351.333,273.167 346.5,278C 338.878,279.378 335.378,276.211 336,268.5C 340.698,262.637 345.865,257.303 351.5,252.5 Z"/></g>
<g><path style="opacity:1" fill="#817b74" d="M 180.5,227.5 C 166.5,227.5 152.5,227.5 138.5,227.5C 138.5,239.5 138.5,251.5 138.5,263.5C 152.5,263.5 166.5,263.5 180.5,263.5C 166.343,264.496 152.01,264.829 137.5,264.5C 137.5,251.833 137.5,239.167 137.5,226.5C 152.01,226.171 166.343,226.504 180.5,227.5 Z"/></g>
<g><path style="opacity:1" fill="#090704" d="M 223.5,276.5 C 231.446,277.138 239.113,278.972 246.5,282C 249.864,285.026 250.364,288.526 248,292.5C 246.278,294.444 244.111,295.444 241.5,295.5C 235.538,293.94 229.538,292.44 223.5,291C 216.929,286.072 216.929,281.239 223.5,276.5 Z"/></g>
<g><path style="opacity:1" fill="#ede5e2" d="M 365.5,332.5 C 366.586,332.62 367.253,333.287 367.5,334.5C 362.956,354.678 357.789,374.678 352,394.5C 351.51,393.207 351.343,391.873 351.5,390.5C 353.225,378.824 354.725,367.157 356,355.5C 351.428,350.188 346.761,350.188 342,355.5C 337.376,383.249 332.542,410.916 327.5,438.5C 316.533,448.791 304.2,457.124 290.5,463.5C 292.64,434.657 294.973,405.824 297.5,377C 298.134,369.634 294.801,366.301 287.5,367C 286,368.5 284.5,370 283,371.5C 279.977,404.488 277.144,437.488 274.5,470.5C 263.976,473.895 253.309,476.895 242.5,479.5C 242.832,445.663 242.498,411.996 241.5,378.5C 239.691,372.097 235.691,370.264 229.5,373C 228.299,373.903 227.465,375.069 227,376.5C 226.5,411.165 226.333,445.832 226.5,480.5C 224.695,482.197 222.361,483.03 219.5,483C 196.375,485.335 173.375,484.502 150.5,480.5C 124.159,470.99 103.659,454.324 89,430.5C 85.6897,420.592 82.6897,410.592 80,400.5C 70.9945,365.811 62.3278,331.145 54,296.5C 81.4481,323.317 113.948,341.484 151.5,351C 225.042,369.491 296.375,363.324 365.5,332.5 Z"/></g>
<g><path style="opacity:1" fill="#e7dcd7" d="M 415.5,327.5 C 413.211,333.989 411.545,340.655 410.5,347.5C 407.68,347.248 405.014,347.748 402.5,349C 395.179,371.443 389.013,394.277 384,417.5C 382.161,424.179 379.494,430.512 376,436.5C 366.311,451.088 353.811,462.588 338.5,471C 309.996,486.042 279.663,494.376 247.5,496C 213.752,498.587 181.419,493.42 150.5,480.5C 173.375,484.502 196.375,485.335 219.5,483C 222.361,483.03 224.695,482.197 226.5,480.5C 228.825,486.154 232.825,487.654 238.5,485C 239.701,484.097 240.535,482.931 241,481.5C 241.5,447.168 241.667,412.835 241.5,378.5C 242.498,411.996 242.832,445.663 242.5,479.5C 253.309,476.895 263.976,473.895 274.5,470.5C 273.666,478.164 277,481.664 284.5,481C 286.552,480.07 288.052,478.57 289,476.5C 289.292,472.118 289.792,467.785 290.5,463.5C 304.2,457.124 316.533,448.791 327.5,438.5C 326.998,443.347 326.331,448.18 325.5,453C 325.53,458.029 328.03,460.862 333,461.5C 335.527,460.976 337.527,459.642 339,457.5C 343.183,435.058 347.349,412.725 351.5,390.5C 351.343,391.873 351.51,393.207 352,394.5C 357.789,374.678 362.956,354.678 367.5,334.5C 367.253,333.287 366.586,332.62 365.5,332.5C 383.278,323.182 399.444,311.516 414,297.5C 412.288,304.528 410.788,311.694 409.5,319C 409.332,323.336 411.332,326.17 415.5,327.5 Z"/></g>
<g><path style="opacity:1" fill="#050505" d="M 115.5,351.5 C 118.649,351.211 121.649,351.711 124.5,353C 126.2,356.291 127.367,359.791 128,363.5C 133.266,393.095 138.099,422.761 142.5,452.5C 142.17,459.994 138.504,462.494 131.5,460C 129.513,458.681 128.346,456.848 128,454.5C 123.039,422.398 117.539,390.398 111.5,358.5C 112.071,355.687 113.404,353.354 115.5,351.5 Z"/></g>
<g><path style="opacity:1" fill="#050505" d="M 351.5,390.5 C 347.349,412.725 343.183,435.058 339,457.5C 337.527,459.642 335.527,460.976 333,461.5C 328.03,460.862 325.53,458.029 325.5,453C 326.331,448.18 326.998,443.347 327.5,438.5C 332.542,410.916 337.376,383.249 342,355.5C 346.761,350.188 351.428,350.188 356,355.5C 354.725,367.157 353.225,378.824 351.5,390.5 Z"/></g>
<g><path style="opacity:1" fill="#060606" d="M 175.5,366.5 C 179.713,366.22 182.88,367.887 185,371.5C 188.9,406.762 191.566,442.095 193,477.5C 186.811,483.529 182.144,482.529 179,474.5C 176.69,440.948 173.857,407.448 170.5,374C 170.625,372.373 171.125,370.873 172,369.5C 173.518,368.837 174.685,367.837 175.5,366.5 Z"/></g>
<g><path style="opacity:1" fill="#060606" d="M 290.5,463.5 C 289.792,467.785 289.292,472.118 289,476.5C 288.052,478.57 286.552,480.07 284.5,481C 277,481.664 273.666,478.164 274.5,470.5C 277.144,437.488 279.977,404.488 283,371.5C 284.5,370 286,368.5 287.5,367C 294.801,366.301 298.134,369.634 297.5,377C 294.973,405.824 292.64,434.657 290.5,463.5 Z"/></g>
<g><path style="opacity:1" fill="#040404" d="M 241.5,378.5 C 241.667,412.835 241.5,447.168 241,481.5C 240.535,482.931 239.701,484.097 238.5,485C 232.825,487.654 228.825,486.154 226.5,480.5C 226.333,445.832 226.5,411.165 227,376.5C 227.465,375.069 228.299,373.903 229.5,373C 235.691,370.264 239.691,372.097 241.5,378.5 Z"/></g>
</svg>
