<?xml version="1.0" encoding="UTF-8"?>
<!DOCTYPE svg PUBLIC "-//W3C//DTD SVG 1.1//EN" "http://www.w3.org/Graphics/SVG/1.1/DTD/svg11.dtd">
<svg xmlns="http://www.w3.org/2000/svg" version="1.1" width="512px" height="512px" style="shape-rendering:geometricPrecision; text-rendering:geometricPrecision; image-rendering:optimizeQuality; fill-rule:evenodd; clip-rule:evenodd" xmlns:xlink="http://www.w3.org/1999/xlink">
<g><path style="opacity:0.981" fill="#020101" d="M 341.5,102.5 C 339.542,107.736 335.709,110.069 330,109.5C 277.441,97.8737 224.274,93.707 170.5,97C 139.339,99.5399 109.672,107.54 81.5,121C 35.9638,145.894 15.4638,184.394 20,236.5C 31.3332,294.838 65.4999,332.672 122.5,350C 159.401,359.433 195.401,356.767 230.5,342C 259.811,327.844 289.478,314.51 319.5,302C 328.716,298.928 338.05,296.261 347.5,294C 371.271,290.537 394.938,286.537 418.5,282C 437.214,277.474 454.214,269.474 469.5,258C 487.841,241.979 494.341,222.145 489,198.5C 482.067,185.227 472.567,174.06 460.5,165C 445.275,153.883 428.941,144.549 411.5,137C 407.026,133.413 405.693,128.913 407.5,123.5C 410.851,118.106 415.517,116.606 421.5,119C 451.818,131.33 477.651,149.83 499,174.5C 504.835,182.831 509.002,191.831 511.5,201.5C 511.5,229.167 511.5,256.833 511.5,284.5C 506.638,307.883 494.305,326.383 474.5,340C 455.957,351.517 435.957,359.517 414.5,364C 397.244,367.157 379.911,369.824 362.5,372C 339.3,376.734 316.966,384.067 295.5,394C 275.074,404.213 254.408,413.88 233.5,423C 167.413,447.148 106.747,437.815 51.5,395C 22.4988,369.496 5.16551,337.663 -0.5,299.5C -0.5,267.833 -0.5,236.167 -0.5,204.5C 7.40492,152.737 35.7383,116.904 84.5,97C 111.136,86.1387 138.803,79.4721 167.5,77C 223.86,72.4636 279.527,76.7969 334.5,90C 339.792,92.4086 342.125,96.5753 341.5,102.5 Z"/></g>
<g><path style="opacity:0.999" fill="#fbe8ce" d="M 341.5,102.5 C 349.391,103.723 357.058,105.723 364.5,108.5C 364.052,118.557 368.718,122.723 378.5,121C 381.023,119.64 383.023,117.807 384.5,115.5C 392.305,117.768 399.972,120.435 407.5,123.5C 405.693,128.913 407.026,133.413 411.5,137C 428.941,144.549 445.275,153.883 460.5,165C 472.567,174.06 482.067,185.227 489,198.5C 494.341,222.145 487.841,241.979 469.5,258C 454.214,269.474 437.214,277.474 418.5,282C 394.938,286.537 371.271,290.537 347.5,294C 338.05,296.261 328.716,298.928 319.5,302C 289.478,314.51 259.811,327.844 230.5,342C 195.401,356.767 159.401,359.433 122.5,350C 65.4999,332.672 31.3332,294.838 20,236.5C 15.4638,184.394 35.9638,145.894 81.5,121C 109.672,107.54 139.339,99.5399 170.5,97C 224.274,93.707 277.441,97.8737 330,109.5C 335.709,110.069 339.542,107.736 341.5,102.5 Z"/></g>
<g><path style="opacity:0.941" fill="#030202" d="M 384.5,115.5 C 383.023,117.807 381.023,119.64 378.5,121C 368.718,122.723 364.052,118.557 364.5,108.5C 369.453,100.536 375.619,99.5358 383,105.5C 384.645,108.845 385.145,112.178 384.5,115.5 Z"/></g>
<g><path style="opacity:1" fill="#030202" d="M 143.5,323.5 C 144.183,319.98 146.183,317.48 149.5,316C 171.193,316.993 192.193,313.66 212.5,306C 233.438,296.864 254.105,287.197 274.5,277C 300.102,265.244 326.769,256.91 354.5,252C 384.247,250.277 411.914,241.944 437.5,227C 449.931,218.435 450.598,209.102 439.5,199C 426.314,188.9 411.981,180.566 396.5,174C 315.953,139.473 232.287,128.473 145.5,141C 122.222,144.972 101.222,153.972 82.5,168C 61.0625,189.007 54.2292,214.174 62,243.5C 65.807,257.452 72.4736,269.785 82,280.5C 83.112,284.981 82.2787,288.981 79.5,292.5C 75.6126,294.887 71.6126,295.054 67.5,293C 45.941,268.632 36.7743,240.132 40,207.5C 43.8408,181.308 56.6741,160.808 78.5,146C 97.3466,134.272 117.68,126.272 139.5,122C 232.939,108.128 322.939,120.128 409.5,158C 427.798,165.388 443.965,175.888 458,189.5C 470.538,204.806 470.538,220.139 458,235.5C 442.376,248.73 424.542,257.897 404.5,263C 384.959,267.393 365.292,271.059 345.5,274C 321.583,279.416 298.583,287.416 276.5,298C 252.09,311.207 226.757,322.207 200.5,331C 184.337,334.516 168.003,335.85 151.5,335C 145.875,333.21 143.208,329.377 143.5,323.5 Z"/></g>
<g><path style="opacity:1" fill="#f4818b" d="M 143.5,323.5 C 134.755,322.564 126.422,320.231 118.5,316.5C 119.897,306.727 115.564,302.227 105.5,303C 103.341,304.059 101.674,305.559 100.5,307.5C 92.9717,303.236 85.9717,298.236 79.5,292.5C 82.2787,288.981 83.112,284.981 82,280.5C 72.4736,269.785 65.807,257.452 62,243.5C 54.2292,214.174 61.0625,189.007 82.5,168C 101.222,153.972 122.222,144.972 145.5,141C 232.287,128.473 315.953,139.473 396.5,174C 411.981,180.566 426.314,188.9 439.5,199C 450.598,209.102 449.931,218.435 437.5,227C 411.914,241.944 384.247,250.277 354.5,252C 326.769,256.91 300.102,265.244 274.5,277C 254.105,287.197 233.438,296.864 212.5,306C 192.193,313.66 171.193,316.993 149.5,316C 146.183,317.48 144.183,319.98 143.5,323.5 Z"/></g>
<g><path style="opacity:1" fill="#040202" d="M 152.5,214.5 C 169.938,212.694 185.938,216.527 200.5,226C 212.886,238.037 213.719,250.87 203,264.5C 190.987,274.227 177.154,278.894 161.5,278.5C 145.599,278.159 132.432,272.159 122,260.5C 114.057,244.205 117.89,231.372 133.5,222C 139.599,218.585 145.932,216.085 152.5,214.5 Z"/></g>
<g><path style="opacity:1" fill="#f3f3f3" d="M 154.5,234.5 C 162.971,234.05 171.304,234.883 179.5,237C 182.912,238.455 186.079,240.288 189,242.5C 190.301,244.365 190.635,246.365 190,248.5C 182.515,255.735 173.515,259.069 163,258.5C 153.132,258.88 144.799,255.547 138,248.5C 137.247,244.507 138.747,241.674 142.5,240C 146.475,237.854 150.475,236.02 154.5,234.5 Z"/></g>
<g><path style="opacity:1" fill="#daa788" d="M 490.5,264.5 C 493.077,285.913 486.077,303.746 469.5,318C 453,330.175 434.667,338.509 414.5,343C 392.193,346.786 369.859,350.453 347.5,354C 326.866,359.211 306.866,366.211 287.5,375C 261.76,388.872 235.093,400.539 207.5,410C 146.658,424.92 94.4913,410.087 51,365.5C 34.0302,345.929 24.0302,323.263 21,297.5C 47.5096,338.697 85.0096,363.863 133.5,373C 167.032,378.215 199.698,374.882 231.5,363C 257.073,351.881 282.406,340.214 307.5,328C 325.61,320.519 344.276,314.853 363.5,311C 391.55,308.77 418.883,303.103 445.5,294C 462.928,287.636 477.928,277.803 490.5,264.5 Z"/></g>
<g><path style="opacity:1" fill="#0a0606" d="M 118.5,316.5 C 113.398,323.586 107.565,324.253 101,318.5C 99.3533,314.843 99.1867,311.177 100.5,307.5C 101.674,305.559 103.341,304.059 105.5,303C 115.564,302.227 119.897,306.727 118.5,316.5 Z"/></g>
</svg>
