<?xml version="1.0" encoding="UTF-8"?>
<!DOCTYPE svg PUBLIC "-//W3C//DTD SVG 1.1//EN" "http://www.w3.org/Graphics/SVG/1.1/DTD/svg11.dtd">
<svg xmlns="http://www.w3.org/2000/svg" version="1.1" width="512px" height="512px" style="shape-rendering:geometricPrecision; text-rendering:geometricPrecision; image-rendering:optimizeQuality; fill-rule:evenodd; clip-rule:evenodd" xmlns:xlink="http://www.w3.org/1999/xlink">
<g><path style="opacity:0.98" fill="#000000" d="M 345.5,-0.5 C 348.167,-0.5 350.833,-0.5 353.5,-0.5C 354.836,1.01027 356.003,2.67694 357,4.5C 357.5,15.1615 357.667,25.8281 357.5,36.5C 374.977,36.1444 385.477,44.4777 389,61.5C 389.667,203.167 389.667,344.833 389,486.5C 386.954,499.371 379.787,507.704 367.5,511.5C 294.5,511.5 221.5,511.5 148.5,511.5C 136.676,507.835 129.509,499.835 127,487.5C 126.333,345.167 126.333,202.833 127,60.5C 129.312,48.1897 136.478,40.3564 148.5,37C 186.833,36.6667 225.167,36.3333 263.5,36C 291.041,24.0577 318.375,11.8911 345.5,-0.5 Z"/></g>
<g><path style="opacity:1" fill="#6f6f6f" d="M 339.5,19.5 C 341.45,24.7351 342.117,30.4018 341.5,36.5C 328.829,36.6666 316.162,36.4999 303.5,36C 315.71,30.7247 327.71,25.2247 339.5,19.5 Z"/></g>
<g><path style="opacity:1" fill="#080f0f" d="M 152.5,51.5 C 222.501,51.3333 292.501,51.5 362.5,52C 370.247,54.2502 373.914,59.4169 373.5,67.5C 296.5,67.5 219.5,67.5 142.5,67.5C 142.246,59.7843 145.579,54.451 152.5,51.5 Z"/></g>
<g><path style="opacity:1" fill="#282c29" d="M 350.5,82.5 C 350.5,95.8333 350.5,109.167 350.5,122.5C 281.167,122.5 211.833,122.5 142.5,122.5C 142.5,109.167 142.5,95.8333 142.5,82.5C 211.833,82.5 281.167,82.5 350.5,82.5 Z"/></g>
<g><path style="opacity:1" fill="#383838" d="M 350.5,82.5 C 358.167,82.5 365.833,82.5 373.5,82.5C 373.5,95.8333 373.5,109.167 373.5,122.5C 365.833,122.5 358.167,122.5 350.5,122.5C 350.5,109.167 350.5,95.8333 350.5,82.5 Z"/></g>
<g><path style="opacity:1" fill="#081010" d="M 373.5,137.5 C 365.833,137.5 358.167,137.5 350.5,137.5C 350.5,228.833 350.5,320.167 350.5,411.5C 281.167,411.5 211.833,411.5 142.5,411.5C 142.5,319.833 142.5,228.167 142.5,136.5C 219.668,136.167 296.668,136.501 373.5,137.5 Z"/></g>
<g><path style="opacity:1" fill="#282b29" d="M 373.5,137.5 C 373.5,228.833 373.5,320.167 373.5,411.5C 365.833,411.5 358.167,411.5 350.5,411.5C 350.5,320.167 350.5,228.833 350.5,137.5C 358.167,137.5 365.833,137.5 373.5,137.5 Z"/></g>
<g><path style="opacity:1" fill="#232907" d="M 260.5,168.5 C 258.104,166.788 255.438,166.288 252.5,167C 248.075,168.966 243.409,170.3 238.5,171C 237.833,171.667 237.167,172.333 236.5,173C 234.144,173.155 231.811,173.155 229.5,173C 228.066,175.221 226.066,176.721 223.5,177.5C 222.253,179.042 222.253,180.542 223.5,182C 227.234,183.825 231.234,184.825 235.5,185C 236.931,185.465 238.097,186.299 239,187.5C 240.211,190.552 241.045,193.719 241.5,197C 241.475,198.876 240.809,200.376 239.5,201.5C 239.807,196.618 238.974,191.951 237,187.5C 231.915,187.013 227.081,185.679 222.5,183.5C 221.607,180.916 221.274,178.249 221.5,175.5C 224.599,175.908 226.933,174.741 228.5,172C 231.577,171.539 234.244,170.372 236.5,168.5C 241.054,168.638 245.721,168.305 250.5,167.5C 250.5,166.167 250.5,164.833 250.5,163.5C 255.075,162.902 258.408,164.568 260.5,168.5 Z"/></g>
<g><path style="opacity:1" fill="#21231a" d="M 202.5,171.5 C 198.591,171.124 195.591,172.457 193.5,175.5C 192.909,176.151 192.243,176.818 191.5,177.5C 187.541,178.327 183.541,178.827 179.5,179C 174.655,180.962 169.655,182.462 164.5,183.5C 163.596,184.209 163.263,185.209 163.5,186.5C 166.167,186.5 168.833,186.5 171.5,186.5C 176.034,188.233 180.701,189.566 185.5,190.5C 187.74,193.806 189.073,197.472 189.5,201.5C 189.685,203.196 190.519,204.529 192,205.5C 192.497,208.146 192.664,210.813 192.5,213.5C 191.778,213.082 191.278,212.416 191,211.5C 190.667,212.833 190.333,214.167 190,215.5C 189.374,213.287 189.541,211.12 190.5,209C 190.153,205.986 188.486,204.319 185.5,204C 184.874,203.25 184.374,202.416 184,201.5C 183.893,198.869 183.727,196.369 183.5,194C 176.235,192.244 168.902,190.911 161.5,190C 158.603,186.352 158.937,183.019 162.5,180C 167.177,179.189 171.511,177.522 175.5,175C 184.19,175.166 192.19,172.999 199.5,168.5C 201.213,168.879 202.213,169.879 202.5,171.5 Z"/></g>
<g><path style="opacity:1" fill="#242907" d="M 202.5,171.5 C 203.287,173.104 204.62,173.771 206.5,173.5C 206.611,174.117 206.944,174.617 207.5,175C 211.152,175.499 214.818,175.665 218.5,175.5C 218.5,176.833 218.5,178.167 218.5,179.5C 214.365,176.963 209.698,175.796 204.5,176C 202.833,174.833 201.167,173.667 199.5,172.5C 198.145,173.188 197.145,174.188 196.5,175.5C 195.5,175.5 194.5,175.5 193.5,175.5C 195.591,172.457 198.591,171.124 202.5,171.5 Z"/></g>
<g><path style="opacity:1" fill="#30390a" d="M 303.5,171.5 C 307.365,172.733 311.199,174.066 315,175.5C 316.907,178.309 318.574,181.309 320,184.5C 319.93,187.992 320.763,190.992 322.5,193.5C 322.843,195.483 322.176,196.817 320.5,197.5C 320.052,193.476 319.386,189.476 318.5,185.5C 316.856,182.655 315.356,179.655 314,176.5C 311.34,175.166 308.506,174.332 305.5,174C 304.619,173.292 303.953,172.458 303.5,171.5 Z"/></g>
<g><path style="opacity:1" fill="#586315" d="M 164.5,183.5 C 166.508,185.083 168.841,186.083 171.5,186.5C 168.833,186.5 166.167,186.5 163.5,186.5C 163.263,185.209 163.596,184.209 164.5,183.5 Z"/></g>
<g><path style="opacity:1" fill="#81912a" d="M 218.5,181.5 C 219.531,183.961 220.198,186.627 220.5,189.5C 219.833,191.833 219.167,194.167 218.5,196.5C 218.5,191.5 218.5,186.5 218.5,181.5 Z"/></g>
<g><path style="opacity:1" fill="#22241f" d="M 310.5,226.5 C 311.968,225.221 312.635,223.554 312.5,221.5C 312.5,221.167 312.5,220.833 312.5,220.5C 313.15,220.196 313.817,219.863 314.5,219.5C 315.321,216.553 315.821,213.553 316,210.5C 318.265,209.084 319.431,207.084 319.5,204.5C 320.5,204.5 321.5,204.5 322.5,204.5C 322.439,201.512 323.105,198.679 324.5,196C 324.316,194.624 323.649,193.791 322.5,193.5C 320.763,190.992 319.93,187.992 320,184.5C 318.574,181.309 316.907,178.309 315,175.5C 311.199,174.066 307.365,172.733 303.5,171.5C 299.043,172.29 295.877,174.624 294,178.5C 291.603,180.782 288.769,182.116 285.5,182.5C 282.467,182.868 279.8,182.202 277.5,180.5C 275.565,179.85 273.565,179.517 271.5,179.5C 271.66,177.801 271.494,176.134 271,174.5C 267.324,172.585 263.824,170.585 260.5,168.5C 258.408,164.568 255.075,162.902 250.5,163.5C 250.5,164.833 250.5,166.167 250.5,167.5C 245.721,168.305 241.054,168.638 236.5,168.5C 241.461,166.413 246.461,164.247 251.5,162C 253.833,161.333 256.167,161.333 258.5,162C 263.451,165.816 268.785,169.15 274.5,172C 275.337,173.011 275.67,174.178 275.5,175.5C 276.552,175.351 277.552,175.517 278.5,176C 279.305,177.972 280.639,179.472 282.5,180.5C 285.59,179.647 288.09,177.98 290,175.5C 290.333,175.833 290.667,176.167 291,176.5C 291.492,175.451 291.326,174.451 290.5,173.5C 294.527,171.486 298.527,169.486 302.5,167.5C 306.49,169.992 310.823,171.659 315.5,172.5C 316.875,175.547 319.208,176.88 322.5,176.5C 324.079,183.205 325.413,189.871 326.5,196.5C 325.326,202.302 322.826,207.302 319,211.5C 317.935,217.027 316.269,222.36 314,227.5C 312.989,226.663 311.822,226.33 310.5,226.5 Z"/></g>
<g><path style="opacity:1" fill="#353d0b" d="M 185.5,190.5 C 187.411,190.574 188.578,191.574 189,193.5C 189.497,196.146 189.664,198.813 189.5,201.5C 189.073,197.472 187.74,193.806 185.5,190.5 Z"/></g>
<g><path style="opacity:1" fill="#9aad28" d="M 265.5,195.5 C 265.443,196.609 265.11,197.609 264.5,198.5C 263.414,198.62 262.747,199.287 262.5,200.5C 262.747,201.713 263.414,202.38 264.5,202.5C 265.438,204.756 265.438,207.09 264.5,209.5C 263.5,209.5 262.5,209.5 261.5,209.5C 262.097,205.257 262.097,200.924 261.5,196.5C 262.959,196.567 264.292,196.234 265.5,195.5 Z"/></g>
<g><path style="opacity:1" fill="#545f0c" d="M 264.5,198.5 C 264.5,199.833 264.5,201.167 264.5,202.5C 263.414,202.38 262.747,201.713 262.5,200.5C 262.747,199.287 263.414,198.62 264.5,198.5 Z"/></g>
<g><path style="opacity:1" fill="#21250d" d="M 322.5,193.5 C 323.649,193.791 324.316,194.624 324.5,196C 323.105,198.679 322.439,201.512 322.5,204.5C 321.5,204.5 320.5,204.5 319.5,204.5C 319.431,207.084 318.265,209.084 316,210.5C 315.821,213.553 315.321,216.553 314.5,219.5C 313.817,219.863 313.15,220.196 312.5,220.5C 313.931,217.006 314.764,213.339 315,209.5C 317.872,206.042 319.705,202.042 320.5,197.5C 322.176,196.817 322.843,195.483 322.5,193.5 Z"/></g>
<g><path style="opacity:1" fill="#adc70f" d="M 218.5,179.5 C 218.5,180.167 218.5,180.833 218.5,181.5C 218.5,186.5 218.5,191.5 218.5,196.5C 216.284,197.816 214.284,199.483 212.5,201.5C 211.913,208.258 211.913,214.925 212.5,221.5C 211.069,222.78 210.402,224.447 210.5,226.5C 209.421,231.552 209.754,236.552 211.5,241.5C 211.328,242.492 211.662,243.158 212.5,243.5C 212.5,243.833 212.5,244.167 212.5,244.5C 212.5,244.833 212.5,245.167 212.5,245.5C 212.674,248.874 213.174,252.207 214,255.5C 215.011,256.337 216.178,256.67 217.5,256.5C 217.5,258.167 217.5,259.833 217.5,261.5C 216.5,261.5 215.5,261.5 214.5,261.5C 213.515,264.456 212.515,267.456 211.5,270.5C 209.506,267.432 206.839,266.765 203.5,268.5C 202.319,266.865 202.319,265.198 203.5,263.5C 202.09,259.649 200.257,255.982 198,252.5C 197.73,249.776 197.23,247.109 196.5,244.5C 196.833,243.833 197.167,243.167 197.5,242.5C 195.431,237.625 193.764,232.625 192.5,227.5C 195.64,217.77 195.14,208.436 191,199.5C 190.24,195.775 190.407,192.108 191.5,188.5C 190.167,188.5 188.833,188.5 187.5,188.5C 189.332,186.702 189.665,184.868 188.5,183C 192.322,181.613 194.989,179.113 196.5,175.5C 197.145,174.188 198.145,173.188 199.5,172.5C 201.167,173.667 202.833,174.833 204.5,176C 209.698,175.796 214.365,176.963 218.5,179.5 Z"/></g>
<g><path style="opacity:1" fill="#acc613" d="M 303.5,171.5 C 303.953,172.458 304.619,173.292 305.5,174C 308.506,174.332 311.34,175.166 314,176.5C 315.356,179.655 316.856,182.655 318.5,185.5C 319.386,189.476 320.052,193.476 320.5,197.5C 319.705,202.042 317.872,206.042 315,209.5C 314.764,213.339 313.931,217.006 312.5,220.5C 312.5,220.833 312.5,221.167 312.5,221.5C 310.554,222.035 309.554,223.368 309.5,225.5C 308.546,233.87 308.546,242.203 309.5,250.5C 309.336,253.187 309.503,255.854 310,258.5C 314.032,261.898 315.865,266.231 315.5,271.5C 315.462,275.985 314.629,280.319 313,284.5C 312.583,285.756 311.75,286.423 310.5,286.5C 309.087,288.496 307.754,290.663 306.5,293C 307.191,294.067 307.691,295.234 308,296.5C 308.667,297.833 309.333,297.833 310,296.5C 310.495,298.473 310.662,300.473 310.5,302.5C 308.876,302.64 307.71,301.973 307,300.5C 305.206,302.464 305.706,303.964 308.5,305C 307.57,306.194 306.903,307.527 306.5,309C 308.038,314.367 308.705,319.867 308.5,325.5C 308.712,332.988 308.045,338.988 306.5,343.5C 305.5,343.5 304.5,343.5 303.5,343.5C 303.719,344.675 303.386,345.675 302.5,346.5C 302.11,342.065 300.443,338.398 297.5,335.5C 297.5,335.167 297.5,334.833 297.5,334.5C 297.566,331.085 298.732,328.085 301,325.5C 301.499,319.843 301.666,314.176 301.5,308.5C 302.873,308.657 304.207,308.49 305.5,308C 304.513,297.248 304.18,286.415 304.5,275.5C 305.5,275.5 306.5,275.5 307.5,275.5C 307.579,272.729 307.079,270.063 306,267.5C 305.751,268.624 305.251,269.624 304.5,270.5C 302.872,264.564 301.205,258.897 299.5,253.5C 298.272,252.694 297.272,251.694 296.5,250.5C 295.222,245.194 295.222,239.861 296.5,234.5C 296.303,232.318 295.636,230.318 294.5,228.5C 295.187,226.823 295.854,225.156 296.5,223.5C 297.695,223.134 298.361,222.301 298.5,221C 298.337,215.007 298.337,209.007 298.5,203C 299.039,197.738 296.706,194.738 291.5,194C 285.052,193.673 278.718,192.84 272.5,191.5C 272.323,189.019 273.323,187.186 275.5,186C 278.377,184.873 281.377,184.206 284.5,184C 285.056,183.617 285.389,183.117 285.5,182.5C 288.769,182.116 291.603,180.782 294,178.5C 295.877,174.624 299.043,172.29 303.5,171.5 Z"/></g>
<g><path style="opacity:1" fill="#1e2405" d="M 189.5,201.5 C 190.482,202.141 191.482,202.807 192.5,203.5C 192.833,206.333 193.167,209.167 193.5,212C 193.515,217.607 192.848,223.107 191.5,228.5C 191.167,228.5 190.833,228.5 190.5,228.5C 190.06,224.821 190.727,221.488 192.5,218.5C 192.5,216.833 192.5,215.167 192.5,213.5C 192.664,210.813 192.497,208.146 192,205.5C 190.519,204.529 189.685,203.196 189.5,201.5 Z"/></g>
<g><path style="opacity:1" fill="#212803" d="M 220.5,189.5 C 220.664,192.187 220.497,194.854 220,197.5C 217.667,199.5 215.333,201.5 213,203.5C 212.31,208.142 212.81,212.642 214.5,217C 214.693,219.008 214.026,220.508 212.5,221.5C 211.913,214.925 211.913,208.258 212.5,201.5C 214.284,199.483 216.284,197.816 218.5,196.5C 219.167,194.167 219.833,191.833 220.5,189.5 Z"/></g>
<g><path style="opacity:0.909" fill="#000000" d="M 78.5,208.5 C 81.5184,208.335 84.5184,208.502 87.5,209C 94.2821,213.448 100.782,218.281 107,223.5C 109.167,233.333 105.333,237.167 95.5,235C 89.8333,231.167 84.1667,227.333 78.5,223.5C 73.1783,218.464 73.1783,213.464 78.5,208.5 Z"/></g>
<g><path style="opacity:0.909" fill="#000000" d="M 423.5,208.5 C 433.497,206.991 437.33,210.991 435,220.5C 428.806,225.687 422.306,230.52 415.5,235C 405.667,237.167 401.833,233.333 404,223.5C 410.4,218.254 416.9,213.254 423.5,208.5 Z"/></g>
<g><path style="opacity:1" fill="#adc80d" d="M 265.5,194.5 C 265.5,194.833 265.5,195.167 265.5,195.5C 264.292,196.234 262.959,196.567 261.5,196.5C 262.097,200.924 262.097,205.257 261.5,209.5C 262.5,209.5 263.5,209.5 264.5,209.5C 264.409,218.233 265.076,226.9 266.5,235.5C 264.777,237.78 264.111,240.447 264.5,243.5C 264.5,243.833 264.5,244.167 264.5,244.5C 263.235,245.514 262.569,247.014 262.5,249C 265.19,255.927 266.857,263.094 267.5,270.5C 267.5,271.167 267.5,271.833 267.5,272.5C 266.109,274.571 264.276,276.238 262,277.5C 261.249,282.211 259.749,286.544 257.5,290.5C 255.955,291.23 255.122,292.563 255,294.5C 254.503,292.19 254.337,289.857 254.5,287.5C 252.856,287.714 251.356,287.38 250,286.5C 249.667,287.167 249.333,287.833 249,288.5C 248.183,282.305 248.683,276.305 250.5,270.5C 249.013,265.553 247.68,260.553 246.5,255.5C 246.511,253.146 247.344,251.146 249,249.5C 249.333,253.167 249.667,256.833 250,260.5C 250.436,253.583 253.269,247.916 258.5,243.5C 257.349,242.269 256.183,242.269 255,243.5C 254.947,240.755 253.78,238.755 251.5,237.5C 250.808,238.025 250.308,238.692 250,239.5C 249.667,238.167 249.333,236.833 249,235.5C 248.581,236.672 247.915,237.672 247,238.5C 246.399,236.863 245.899,235.197 245.5,233.5C 246.772,228.161 246.772,222.828 245.5,217.5C 246.822,217.33 247.989,217.663 249,218.5C 249.667,217.167 249.667,215.833 249,214.5C 248.667,214.833 248.333,215.167 248,215.5C 247.014,213.222 246.18,210.889 245.5,208.5C 246.274,207.289 247.107,207.289 248,208.5C 248.483,207.552 248.649,206.552 248.5,205.5C 252.853,206.994 253.52,205.827 250.5,202C 251.373,195.097 251.373,188.097 250.5,181C 251.653,179.117 253.319,178.284 255.5,178.5C 256.167,176.181 256.334,173.847 256,171.5C 254.088,173.994 252.254,173.827 250.5,171C 252.78,170.767 254.78,169.934 256.5,168.5C 258.824,168.877 259.491,169.877 258.5,171.5C 259.105,173.481 260.105,173.815 261.5,172.5C 263.444,173.189 265.444,173.689 267.5,174C 268.38,175.356 268.714,176.856 268.5,178.5C 264.537,178.089 260.87,178.922 257.5,181C 254.014,184.417 253.68,188.083 256.5,192C 256.05,193.285 255.383,194.452 254.5,195.5C 254.833,196.5 255.5,197.167 256.5,197.5C 257.909,193.246 259.075,188.913 260,184.5C 262.683,184.479 265.517,184.145 268.5,183.5C 267.495,187.169 266.495,190.836 265.5,194.5 Z"/></g>
<g><path style="opacity:1" fill="#232522" d="M 236.5,168.5 C 234.244,170.372 231.577,171.539 228.5,172C 226.933,174.741 224.599,175.908 221.5,175.5C 221.274,178.249 221.607,180.916 222.5,183.5C 227.081,185.679 231.915,187.013 237,187.5C 238.974,191.951 239.807,196.618 239.5,201.5C 238.167,203.167 238.167,204.833 239.5,206.5C 239.527,208.199 240.194,209.533 241.5,210.5C 240.698,211.952 240.198,213.618 240,215.5C 240.121,212.079 238.788,209.412 236,207.5C 235.073,203.738 235.573,200.238 237.5,197C 236.713,194.901 236.38,192.734 236.5,190.5C 232.362,190.578 228.862,189.245 226,186.5C 225.798,188.256 225.298,189.922 224.5,191.5C 223.575,192.641 222.741,192.641 222,191.5C 221.46,193.135 221.96,194.468 223.5,195.5C 221.602,199.721 219.269,203.554 216.5,207C 218.085,210.331 218.918,213.831 219,217.5C 217.901,221.141 216.234,224.475 214,227.5C 213.722,226.584 213.222,225.918 212.5,225.5C 212.5,224.167 212.5,222.833 212.5,221.5C 214.026,220.508 214.693,219.008 214.5,217C 212.81,212.642 212.31,208.142 213,203.5C 215.333,201.5 217.667,199.5 220,197.5C 220.497,194.854 220.664,192.187 220.5,189.5C 220.198,186.627 219.531,183.961 218.5,181.5C 218.5,180.833 218.5,180.167 218.5,179.5C 218.5,178.167 218.5,176.833 218.5,175.5C 214.818,175.665 211.152,175.499 207.5,175C 206.944,174.617 206.611,174.117 206.5,173.5C 208.304,172.838 210.304,172.505 212.5,172.5C 215.454,172.291 218.121,172.958 220.5,174.5C 223.45,173.034 226.117,171.2 228.5,169C 231.146,168.503 233.813,168.336 236.5,168.5 Z"/></g>
<g><path style="opacity:1" fill="#212705" d="M 239.5,206.5 C 242.269,207.771 243.602,209.938 243.5,213C 242.77,219.526 242.436,226.026 242.5,232.5C 242.602,235.37 243.768,237.703 246,239.5C 246.467,244.675 246.3,249.842 245.5,255C 246.29,260.372 247.29,265.705 248.5,271C 248.592,273.821 247.926,276.321 246.5,278.5C 247.283,274.854 247.45,271.188 247,267.5C 246.29,266.027 245.124,265.36 243.5,265.5C 243.826,256.651 243.493,247.984 242.5,239.5C 241.551,229.886 241.218,220.219 241.5,210.5C 240.194,209.533 239.527,208.199 239.5,206.5 Z"/></g>
<g><path style="opacity:1" fill="#9fb330" d="M 264.5,209.5 C 265.117,209.611 265.617,209.944 266,210.5C 266.497,213.146 266.664,215.813 266.5,218.5C 265.897,220.626 265.897,222.959 266.5,225.5C 267.7,228.969 267.7,232.302 266.5,235.5C 265.076,226.9 264.409,218.233 264.5,209.5 Z"/></g>
<g><path style="opacity:1" fill="#252c08" d="M 277.5,180.5 C 279.8,182.202 282.467,182.868 285.5,182.5C 285.389,183.117 285.056,183.617 284.5,184C 281.377,184.206 278.377,184.873 275.5,186C 273.323,187.186 272.323,189.019 272.5,191.5C 278.718,192.84 285.052,193.673 291.5,194C 296.706,194.738 299.039,197.738 298.5,203C 298.337,209.007 298.337,215.007 298.5,221C 298.361,222.301 297.695,223.134 296.5,223.5C 295.755,214.867 295.255,206.2 295,197.5C 290.352,195.892 285.519,195.058 280.5,195C 277.178,193.624 274.011,192.124 271,190.5C 269.667,192.5 268.333,194.5 267,196.5C 267.088,204.007 266.921,211.341 266.5,218.5C 266.664,215.813 266.497,213.146 266,210.5C 265.617,209.944 265.117,209.611 264.5,209.5C 265.438,207.09 265.438,204.756 264.5,202.5C 264.5,201.167 264.5,199.833 264.5,198.5C 265.11,197.609 265.443,196.609 265.5,195.5C 265.5,195.167 265.5,194.833 265.5,194.5C 268.74,192.887 270.24,190.22 270,186.5C 271.848,183.959 274.348,182.959 277.5,183.5C 277.5,182.5 277.5,181.5 277.5,180.5 Z"/></g>
<g><path style="opacity:1" fill="#222421" d="M 296.5,223.5 C 294.519,224.894 292.852,226.727 291.5,229C 293.203,230.37 294.536,232.036 295.5,234C 295.192,235.459 294.525,236.626 293.5,237.5C 291.781,234.677 290.447,231.677 289.5,228.5C 289.453,225.927 290.453,223.927 292.5,222.5C 293.329,219.198 293.996,215.865 294.5,212.5C 294.232,208.23 294.066,203.896 294,199.5C 288.568,198.095 283.068,196.928 277.5,196C 270.933,193.908 267.933,196.241 268.5,203C 268.481,206.708 269.148,210.208 270.5,213.5C 270.289,215.686 269.956,217.853 269.5,220C 270.931,225.256 271.598,230.423 271.5,235.5C 271.297,237.208 270.464,238.541 269,239.5C 268.304,244.877 267.47,250.21 266.5,255.5C 264.783,252.155 264.116,248.489 264.5,244.5C 264.5,244.167 264.5,243.833 264.5,243.5C 266.516,240.101 268.183,236.435 269.5,232.5C 269.445,229.64 268.445,227.307 266.5,225.5C 265.897,222.959 265.897,220.626 266.5,218.5C 266.921,211.341 267.088,204.007 267,196.5C 268.333,194.5 269.667,192.5 271,190.5C 274.011,192.124 277.178,193.624 280.5,195C 285.519,195.058 290.352,195.892 295,197.5C 295.255,206.2 295.755,214.867 296.5,223.5 Z"/></g>
<g><path style="opacity:1" fill="#212702" d="M 312.5,221.5 C 312.635,223.554 311.968,225.221 310.5,226.5C 310.5,227.5 310.5,228.5 310.5,229.5C 310.151,233.742 310.817,237.742 312.5,241.5C 311.504,241.586 310.671,241.252 310,240.5C 309.501,235.511 309.334,230.511 309.5,225.5C 309.554,223.368 310.554,222.035 312.5,221.5 Z"/></g>
<g><path style="opacity:1" fill="#232907" d="M 296.5,223.5 C 295.854,225.156 295.187,226.823 294.5,228.5C 295.636,230.318 296.303,232.318 296.5,234.5C 295.222,239.861 295.222,245.194 296.5,250.5C 295.85,250.196 295.183,249.863 294.5,249.5C 293.513,246.232 293.18,242.898 293.5,239.5C 293.5,238.833 293.5,238.167 293.5,237.5C 294.525,236.626 295.192,235.459 295.5,234C 294.536,232.036 293.203,230.37 291.5,229C 292.852,226.727 294.519,224.894 296.5,223.5 Z"/></g>
<g><path style="opacity:1" fill="#202504" d="M 212.5,221.5 C 212.5,222.833 212.5,224.167 212.5,225.5C 212.5,227.5 212.5,229.5 212.5,231.5C 212.5,235.5 212.5,239.5 212.5,243.5C 211.662,243.158 211.328,242.492 211.5,241.5C 211.249,236.493 210.916,231.493 210.5,226.5C 210.402,224.447 211.069,222.78 212.5,221.5 Z"/></g>
<g><path style="opacity:1" fill="#2c340a" d="M 266.5,225.5 C 268.445,227.307 269.445,229.64 269.5,232.5C 268.183,236.435 266.516,240.101 264.5,243.5C 264.111,240.447 264.777,237.78 266.5,235.5C 267.7,232.302 267.7,228.969 266.5,225.5 Z"/></g>
<g><path style="opacity:1" fill="#222523" d="M 192.5,218.5 C 190.727,221.488 190.06,224.821 190.5,228.5C 189.883,228.611 189.383,228.944 189,229.5C 188.825,234.019 188.325,238.353 187.5,242.5C 186.503,242.53 185.836,242.03 185.5,241C 188.059,238.205 188.059,235.371 185.5,232.5C 187.399,228.178 188.732,223.678 189.5,219C 190.176,217.317 191.176,217.15 192.5,218.5 Z"/></g>
<g><path style="opacity:1" fill="#95a826" d="M 190.5,228.5 C 190.833,228.5 191.167,228.5 191.5,228.5C 191.335,232.182 191.501,235.848 192,239.5C 193.411,241.65 194.245,243.984 194.5,246.5C 189.537,241.423 188.204,235.423 190.5,228.5 Z"/></g>
<g><path style="opacity:1" fill="#72811a" d="M 210.5,226.5 C 210.916,231.493 211.249,236.493 211.5,241.5C 209.754,236.552 209.421,231.552 210.5,226.5 Z"/></g>
<g><path style="opacity:1" fill="#1f221d" d="M 212.5,309.5 C 213.15,307.565 213.483,305.565 213.5,303.5C 213.5,302.833 213.5,302.167 213.5,301.5C 217.136,296.618 218.47,291.285 217.5,285.5C 216.89,284.609 216.557,283.609 216.5,282.5C 217.614,278.491 217.614,274.491 216.5,270.5C 216.723,267.466 218.056,265.133 220.5,263.5C 219.873,262.583 219.539,261.583 219.5,260.5C 220.139,259.903 220.472,259.07 220.5,258C 218.796,255.084 217.796,251.917 217.5,248.5C 216.5,248.5 215.5,248.5 214.5,248.5C 214.843,246.517 214.176,245.183 212.5,244.5C 212.5,244.167 212.5,243.833 212.5,243.5C 212.5,239.5 212.5,235.5 212.5,231.5C 213.117,231.389 213.617,231.056 214,230.5C 214.626,232.713 214.459,234.88 213.5,237C 216.981,244.244 220.315,251.577 223.5,259C 222.117,263.102 220.45,267.102 218.5,271C 220.459,273.686 220.792,276.519 219.5,279.5C 221.172,283.37 221.672,287.37 221,291.5C 219.315,297.91 217.482,304.243 215.5,310.5C 214.787,308.565 213.787,308.232 212.5,309.5 Z"/></g>
<g><path style="opacity:1" fill="#91a42c" d="M 309.5,225.5 C 309.334,230.511 309.501,235.511 310,240.5C 310.671,241.252 311.504,241.586 312.5,241.5C 312.289,244.848 311.289,247.848 309.5,250.5C 308.546,242.203 308.546,233.87 309.5,225.5 Z"/></g>
<g><path style="opacity:1" fill="#21241a" d="M 293.5,239.5 C 293.18,242.898 293.513,246.232 294.5,249.5C 295.183,249.863 295.85,250.196 296.5,250.5C 297.272,251.694 298.272,252.694 299.5,253.5C 300.764,258.093 300.431,262.593 298.5,267C 299.203,270.936 300.203,274.77 301.5,278.5C 301.5,281.833 301.5,285.167 301.5,288.5C 301.5,294.167 301.5,299.833 301.5,305.5C 301.34,307.153 300.674,308.486 299.5,309.5C 297.598,312.337 296.931,315.671 297.5,319.5C 296.883,319.611 296.383,319.944 296,320.5C 294.141,316.045 294.475,311.711 297,307.5C 297.448,297.426 298.115,287.426 299,277.5C 298.667,278.167 298.333,278.833 298,279.5C 295.342,273.595 294.676,267.595 296,261.5C 296.556,263.595 297.056,263.762 297.5,262C 296.533,256.899 294.366,252.399 291,248.5C 290.333,244.833 290.333,241.167 291,237.5C 291.417,238.756 292.25,239.423 293.5,239.5 Z"/></g>
<g><path style="opacity:1" fill="#212703" d="M 212.5,245.5 C 212.5,245.167 212.5,244.833 212.5,244.5C 214.176,245.183 214.843,246.517 214.5,248.5C 215.5,248.5 216.5,248.5 217.5,248.5C 217.796,251.917 218.796,255.084 220.5,258C 220.472,259.07 220.139,259.903 219.5,260.5C 219.004,256.806 217.337,253.639 214.5,251C 214.046,248.97 213.38,247.137 212.5,245.5 Z"/></g>
<g><path style="opacity:0.905" fill="#000000" d="M 47.5,253.5 C 66.1696,253.333 84.8363,253.5 103.5,254C 108.906,255.98 110.739,259.814 109,265.5C 107.891,267.815 106.057,269.315 103.5,270C 84.8333,270.667 66.1667,270.667 47.5,270C 41.5318,267.609 39.6985,263.442 42,257.5C 43.4998,255.531 45.3331,254.198 47.5,253.5 Z"/></g>
<g><path style="opacity:0.905" fill="#000000" d="M 407.5,253.5 C 426.17,253.333 444.836,253.5 463.5,254C 469.468,256.391 471.302,260.558 469,266.5C 467.681,268.487 465.848,269.654 463.5,270C 444.833,270.667 426.167,270.667 407.5,270C 401.458,267.163 399.958,262.663 403,256.5C 404.409,255.219 405.909,254.219 407.5,253.5 Z"/></g>
<g><path style="opacity:1" fill="#202608" d="M 312.5,241.5 C 313.638,244.304 313.805,247.304 313,250.5C 311.603,251.226 310.769,252.393 310.5,254C 312.447,257.898 314.614,261.732 317,265.5C 317.167,267.833 317.333,270.167 317.5,272.5C 316.748,277.803 315.415,282.969 313.5,288C 313.528,289.07 313.861,289.903 314.5,290.5C 314.5,290.833 314.5,291.167 314.5,291.5C 313.861,292.097 313.528,292.93 313.5,294C 314.054,295.551 314.72,297.051 315.5,298.5C 315.547,300.038 314.88,301.038 313.5,301.5C 312.903,297.266 311.57,293.266 309.5,289.5C 309.685,288.416 310.018,287.416 310.5,286.5C 311.75,286.423 312.583,285.756 313,284.5C 314.629,280.319 315.462,275.985 315.5,271.5C 315.865,266.231 314.032,261.898 310,258.5C 309.503,255.854 309.336,253.187 309.5,250.5C 311.289,247.848 312.289,244.848 312.5,241.5 Z"/></g>
<g><path style="opacity:1" fill="#232624" d="M 242.5,239.5 C 243.493,247.984 243.826,256.651 243.5,265.5C 245.124,265.36 246.29,266.027 247,267.5C 247.45,271.188 247.283,274.854 246.5,278.5C 245.5,278.5 244.5,278.5 243.5,278.5C 242.903,278.265 242.57,277.765 242.5,277C 243.079,275.086 244.079,273.419 245.5,272C 240.551,263.762 239.218,254.929 241.5,245.5C 241.679,242.869 241.013,240.535 239.5,238.5C 239.667,238.167 239.833,237.833 240,237.5C 240.708,238.381 241.542,239.047 242.5,239.5 Z"/></g>
<g><path style="opacity:1" fill="#2a3109" d="M 264.5,244.5 C 264.116,248.489 264.783,252.155 266.5,255.5C 268.401,260.55 268.735,265.55 267.5,270.5C 266.857,263.094 265.19,255.927 262.5,249C 262.569,247.014 263.235,245.514 264.5,244.5 Z"/></g>
<g><path style="opacity:1" fill="#232808" d="M 190.5,228.5 C 188.204,235.423 189.537,241.423 194.5,246.5C 199.24,256.688 200.573,267.354 198.5,278.5C 197.672,272.013 197.172,265.346 197,258.5C 196.764,256.881 195.931,255.881 194.5,255.5C 193.833,252.167 193.167,248.833 192.5,245.5C 190.011,245.759 188.344,244.759 187.5,242.5C 188.325,238.353 188.825,234.019 189,229.5C 189.383,228.944 189.883,228.611 190.5,228.5 Z"/></g>
<g><path style="opacity:1" fill="#242623" d="M 194.5,255.5 C 195.931,255.881 196.764,256.881 197,258.5C 197.172,265.346 197.672,272.013 198.5,278.5C 198.5,279.167 198.5,279.833 198.5,280.5C 197.71,281.609 197.21,282.942 197,284.5C 195.806,281.652 194.639,278.819 193.5,276C 194.216,269.131 194.55,262.297 194.5,255.5 Z"/></g>
<g><path style="opacity:1" fill="#a7be1f" d="M 193.5,175.5 C 194.5,175.5 195.5,175.5 196.5,175.5C 194.989,179.113 192.322,181.613 188.5,183C 189.665,184.868 189.332,186.702 187.5,188.5C 188.833,188.5 190.167,188.5 191.5,188.5C 190.407,192.108 190.24,195.775 191,199.5C 195.14,208.436 195.64,217.77 192.5,227.5C 193.764,232.625 195.431,237.625 197.5,242.5C 197.167,243.167 196.833,243.833 196.5,244.5C 197.23,247.109 197.73,249.776 198,252.5C 200.257,255.982 202.09,259.649 203.5,263.5C 202.319,265.198 202.319,266.865 203.5,268.5C 206.839,266.765 209.506,267.432 211.5,270.5C 212.515,267.456 213.515,264.456 214.5,261.5C 215.5,261.5 216.5,261.5 217.5,261.5C 217.5,259.833 217.5,258.167 217.5,256.5C 216.178,256.67 215.011,256.337 214,255.5C 213.174,252.207 212.674,248.874 212.5,245.5C 213.38,247.137 214.046,248.97 214.5,251C 217.337,253.639 219.004,256.806 219.5,260.5C 218.079,263.009 216.412,265.343 214.5,267.5C 213.517,271.298 213.183,275.298 213.5,279.5C 213.5,281.5 214.5,282.5 216.5,282.5C 216.557,283.609 216.89,284.609 217.5,285.5C 217.977,288.917 216.977,291.584 214.5,293.5C 214.148,287.411 213.148,281.411 211.5,275.5C 210.086,276.624 208.586,277.624 207,278.5C 206.833,278.167 206.667,277.833 206.5,277.5C 208.327,275.513 209.327,273.179 209.5,270.5C 204.706,271.776 202.706,274.776 203.5,279.5C 202.874,285.298 202.207,290.964 201.5,296.5C 201.257,290.816 200.757,285.149 200,279.5C 199.617,278.944 199.117,278.611 198.5,278.5C 200.573,267.354 199.24,256.688 194.5,246.5C 194.245,243.984 193.411,241.65 192,239.5C 191.501,235.848 191.335,232.182 191.5,228.5C 192.848,223.107 193.515,217.607 193.5,212C 193.167,209.167 192.833,206.333 192.5,203.5C 191.482,202.807 190.482,202.141 189.5,201.5C 189.664,198.813 189.497,196.146 189,193.5C 188.578,191.574 187.411,190.574 185.5,190.5C 180.701,189.566 176.034,188.233 171.5,186.5C 168.841,186.083 166.508,185.083 164.5,183.5C 169.655,182.462 174.655,180.962 179.5,179C 183.541,178.827 187.541,178.327 191.5,177.5C 192.243,176.818 192.909,176.151 193.5,175.5 Z"/></g>
<g><path style="opacity:1" fill="#aec90a" d="M 177.5,180.5 C 182.986,180.031 186.319,180.364 187.5,181.5C 187.762,182.978 187.429,184.311 186.5,185.5C 183.916,186.393 181.249,186.726 178.5,186.5C 178.5,185.5 178.5,184.5 178.5,183.5C 176.181,184.167 173.847,184.334 171.5,184C 174.019,183.414 176.019,182.247 177.5,180.5 Z"/></g>
<g><path style="opacity:1" fill="#212321" d="M 314.5,290.5 C 313.861,289.903 313.528,289.07 313.5,288C 315.415,282.969 316.748,277.803 317.5,272.5C 317.333,270.167 317.167,267.833 317,265.5C 314.614,261.732 312.447,257.898 310.5,254C 310.769,252.393 311.603,251.226 313,250.5C 313.805,247.304 313.638,244.304 312.5,241.5C 310.817,237.742 310.151,233.742 310.5,229.5C 311.496,229.414 312.329,229.748 313,230.5C 313.333,229.833 313.667,229.167 314,228.5C 314.728,231.23 314.562,233.897 313.5,236.5C 316.824,242.518 316.824,248.685 313.5,255C 321.16,266.607 321.493,278.44 314.5,290.5 Z"/></g>
<g><path style="opacity:1" fill="#909f27" d="M 214.5,267.5 C 214.073,270.788 214.74,273.788 216.5,276.5C 215.452,277.548 214.452,278.548 213.5,279.5C 213.183,275.298 213.517,271.298 214.5,267.5 Z"/></g>
<g><path style="opacity:1" fill="#222802" d="M 219.5,260.5 C 219.539,261.583 219.873,262.583 220.5,263.5C 218.056,265.133 216.723,267.466 216.5,270.5C 217.614,274.491 217.614,278.491 216.5,282.5C 214.5,282.5 213.5,281.5 213.5,279.5C 214.452,278.548 215.452,277.548 216.5,276.5C 214.74,273.788 214.073,270.788 214.5,267.5C 216.412,265.343 218.079,263.009 219.5,260.5 Z"/></g>
<g><path style="opacity:1" fill="#1e2503" d="M 198.5,278.5 C 199.117,278.611 199.617,278.944 200,279.5C 200.757,285.149 201.257,290.816 201.5,296.5C 201.167,297.5 200.5,298.167 199.5,298.5C 199.823,292.31 199.49,286.31 198.5,280.5C 198.5,279.833 198.5,279.167 198.5,278.5 Z"/></g>
<g><path style="opacity:1" fill="#48500b" d="M 301.5,278.5 C 303.402,281.337 304.069,284.671 303.5,288.5C 302.833,288.5 302.167,288.5 301.5,288.5C 301.5,285.167 301.5,281.833 301.5,278.5 Z"/></g>
<g><path style="opacity:1" fill="#adc80e" d="M 214.5,293.5 C 214.768,295.099 214.434,296.432 213.5,297.5C 211.531,300.794 210.365,304.461 210,308.5C 208.984,309.634 208.317,309.301 208,307.5C 207.426,309.492 206.259,310.992 204.5,312C 205.428,312.388 206.095,313.055 206.5,314C 205.347,315.654 204.013,317.154 202.5,318.5C 203.326,319.451 203.492,320.451 203,321.5C 202.241,317.862 201.075,314.529 199.5,311.5C 197.286,310.608 196.286,308.942 196.5,306.5C 197.025,303.971 198.025,301.638 199.5,299.5C 199.5,299.167 199.5,298.833 199.5,298.5C 200.5,298.167 201.167,297.5 201.5,296.5C 202.207,290.964 202.874,285.298 203.5,279.5C 202.706,274.776 204.706,271.776 209.5,270.5C 209.327,273.179 208.327,275.513 206.5,277.5C 206.667,277.833 206.833,278.167 207,278.5C 208.586,277.624 210.086,276.624 211.5,275.5C 213.148,281.411 214.148,287.411 214.5,293.5 Z"/></g>
<g><path style="opacity:1" fill="#2b3605" d="M 217.5,285.5 C 218.47,291.285 217.136,296.618 213.5,301.5C 213.5,300.167 213.5,298.833 213.5,297.5C 214.434,296.432 214.768,295.099 214.5,293.5C 216.977,291.584 217.977,288.917 217.5,285.5 Z"/></g>
<g><path style="opacity:1" fill="#202505" d="M 243.5,278.5 C 244.5,278.5 245.5,278.5 246.5,278.5C 246.636,281.551 246.302,284.551 245.5,287.5C 243.754,290.437 242.421,293.437 241.5,296.5C 242.956,290.609 243.623,284.609 243.5,278.5 Z"/></g>
<g><path style="opacity:0.908" fill="#000000" d="M 95.5,288.5 C 105.33,286.829 109.163,290.829 107,300.5C 101.59,304.788 96.0897,308.955 90.5,313C 84.4485,317.696 79.2818,316.863 75,310.5C 74.4163,307.743 74.7496,305.077 76,302.5C 82.6811,297.97 89.1811,293.304 95.5,288.5 Z"/></g>
<g><path style="opacity:0.908" fill="#000000" d="M 407.5,288.5 C 410.187,288.336 412.854,288.503 415.5,289C 421.5,293 427.5,297 433.5,301C 438.602,308.63 436.768,313.796 428,316.5C 420.66,313.159 413.827,308.992 407.5,304C 402.227,298.743 402.227,293.577 407.5,288.5 Z"/></g>
<g><path style="opacity:1" fill="#252b08" d="M 267.5,272.5 C 266.781,274.764 266.448,277.097 266.5,279.5C 265.417,279.539 264.417,279.873 263.5,280.5C 261.403,285.622 259.403,290.788 257.5,296C 258.355,302.968 259.022,309.968 259.5,317C 259.494,319.033 259.161,320.866 258.5,322.5C 258.806,319.615 258.473,316.948 257.5,314.5C 256.2,306.487 256.2,298.487 257.5,290.5C 259.749,286.544 261.249,282.211 262,277.5C 264.276,276.238 266.109,274.571 267.5,272.5 Z"/></g>
<g><path style="opacity:1" fill="#a2b33b" d="M 301.5,288.5 C 302.167,288.5 302.833,288.5 303.5,288.5C 304.117,294.598 303.45,300.265 301.5,305.5C 301.5,299.833 301.5,294.167 301.5,288.5 Z"/></g>
<g><path style="opacity:1" fill="#a7be21" d="M 299.5,253.5 C 301.205,258.897 302.872,264.564 304.5,270.5C 305.251,269.624 305.751,268.624 306,267.5C 307.079,270.063 307.579,272.729 307.5,275.5C 306.5,275.5 305.5,275.5 304.5,275.5C 304.18,286.415 304.513,297.248 305.5,308C 304.207,308.49 302.873,308.657 301.5,308.5C 301.666,314.176 301.499,319.843 301,325.5C 298.732,328.085 297.566,331.085 297.5,334.5C 296.03,331.314 296.53,328.314 299,325.5C 298.817,320.116 298.984,314.782 299.5,309.5C 300.674,308.486 301.34,307.153 301.5,305.5C 303.45,300.265 304.117,294.598 303.5,288.5C 304.069,284.671 303.402,281.337 301.5,278.5C 300.203,274.77 299.203,270.936 298.5,267C 300.431,262.593 300.764,258.093 299.5,253.5 Z"/></g>
<g><path style="opacity:1" fill="#a5bc25" d="M 310.5,286.5 C 310.018,287.416 309.685,288.416 309.5,289.5C 311.57,293.266 312.903,297.266 313.5,301.5C 313.5,301.833 313.5,302.167 313.5,302.5C 310.491,303.997 308.824,306.497 308.5,310C 308.808,311.459 309.475,312.626 310.5,313.5C 309.415,320.677 309.415,327.843 310.5,335C 309.383,337.731 308.717,340.565 308.5,343.5C 305.39,346.967 303.057,350.967 301.5,355.5C 301.709,356.994 302.376,358.161 303.5,359C 302.244,359.417 301.577,360.25 301.5,361.5C 300.833,361.833 300.167,362.167 299.5,362.5C 298.36,355.66 298.36,348.827 299.5,342C 299.125,339.711 298.459,337.545 297.5,335.5C 300.443,338.398 302.11,342.065 302.5,346.5C 303.386,345.675 303.719,344.675 303.5,343.5C 304.5,343.5 305.5,343.5 306.5,343.5C 308.045,338.988 308.712,332.988 308.5,325.5C 308.705,319.867 308.038,314.367 306.5,309C 306.903,307.527 307.57,306.194 308.5,305C 305.706,303.964 305.206,302.464 307,300.5C 307.71,301.973 308.876,302.64 310.5,302.5C 310.662,300.473 310.495,298.473 310,296.5C 309.333,297.833 308.667,297.833 308,296.5C 307.691,295.234 307.191,294.067 306.5,293C 307.754,290.663 309.087,288.496 310.5,286.5 Z"/></g>
<g><path style="opacity:1" fill="#293005" d="M 213.5,303.5 C 213.483,305.565 213.15,307.565 212.5,309.5C 212.5,311.5 212.5,313.5 212.5,315.5C 212.5,315.833 212.5,316.167 212.5,316.5C 211.839,314.866 211.506,313.033 211.5,311C 211.3,308.134 211.967,305.634 213.5,303.5 Z"/></g>
<g><path style="opacity:1" fill="#202604" d="M 199.5,299.5 C 198.025,301.638 197.025,303.971 196.5,306.5C 196.286,308.942 197.286,310.608 199.5,311.5C 199.078,315.712 199.744,319.712 201.5,323.5C 200.607,326.084 200.274,328.751 200.5,331.5C 199.716,327.096 198.716,322.596 197.5,318C 199.563,314.24 198.563,311.74 194.5,310.5C 194.187,307.753 194.52,305.086 195.5,302.5C 196.283,300.712 197.616,299.712 199.5,299.5 Z"/></g>
<g><path style="opacity:1" fill="#252c04" d="M 313.5,302.5 C 311.69,305.931 310.69,309.598 310.5,313.5C 309.475,312.626 308.808,311.459 308.5,310C 308.824,306.497 310.491,303.997 313.5,302.5 Z"/></g>
<g><path style="opacity:1" fill="#202220" d="M 314.5,291.5 C 318.524,297.719 318.191,303.886 313.5,310C 316.053,315.451 316.053,320.951 313.5,326.5C 314.42,329.434 315.087,332.434 315.5,335.5C 315.564,337.557 314.898,339.223 313.5,340.5C 313.5,337.5 313.5,334.5 313.5,331.5C 312.5,331.5 311.5,331.5 310.5,331.5C 310.789,326.825 311.789,322.325 313.5,318C 313.95,315.374 312.95,313.874 310.5,313.5C 310.69,309.598 311.69,305.931 313.5,302.5C 313.5,302.167 313.5,301.833 313.5,301.5C 314.88,301.038 315.547,300.038 315.5,298.5C 314.72,297.051 314.054,295.551 313.5,294C 313.528,292.93 313.861,292.097 314.5,291.5 Z"/></g>
<g><path style="opacity:1" fill="#acc614" d="M 260.5,168.5 C 263.824,170.585 267.324,172.585 271,174.5C 271.494,176.134 271.66,177.801 271.5,179.5C 273.565,179.517 275.565,179.85 277.5,180.5C 277.5,181.5 277.5,182.5 277.5,183.5C 274.348,182.959 271.848,183.959 270,186.5C 270.24,190.22 268.74,192.887 265.5,194.5C 266.495,190.836 267.495,187.169 268.5,183.5C 265.517,184.145 262.683,184.479 260,184.5C 259.075,188.913 257.909,193.246 256.5,197.5C 255.5,197.167 254.833,196.5 254.5,195.5C 255.383,194.452 256.05,193.285 256.5,192C 253.68,188.083 254.014,184.417 257.5,181C 260.87,178.922 264.537,178.089 268.5,178.5C 268.714,176.856 268.38,175.356 267.5,174C 265.444,173.689 263.444,173.189 261.5,172.5C 260.105,173.815 259.105,173.481 258.5,171.5C 259.491,169.877 258.824,168.877 256.5,168.5C 254.78,169.934 252.78,170.767 250.5,171C 252.254,173.827 254.088,173.994 256,171.5C 256.334,173.847 256.167,176.181 255.5,178.5C 253.319,178.284 251.653,179.117 250.5,181C 251.373,188.097 251.373,195.097 250.5,202C 253.52,205.827 252.853,206.994 248.5,205.5C 248.649,206.552 248.483,207.552 248,208.5C 247.107,207.289 246.274,207.289 245.5,208.5C 246.18,210.889 247.014,213.222 248,215.5C 248.333,215.167 248.667,214.833 249,214.5C 249.667,215.833 249.667,217.167 249,218.5C 247.989,217.663 246.822,217.33 245.5,217.5C 246.772,222.828 246.772,228.161 245.5,233.5C 245.899,235.197 246.399,236.863 247,238.5C 247.915,237.672 248.581,236.672 249,235.5C 249.333,236.833 249.667,238.167 250,239.5C 250.308,238.692 250.808,238.025 251.5,237.5C 253.78,238.755 254.947,240.755 255,243.5C 256.183,242.269 257.349,242.269 258.5,243.5C 253.269,247.916 250.436,253.583 250,260.5C 249.667,256.833 249.333,253.167 249,249.5C 247.344,251.146 246.511,253.146 246.5,255.5C 247.68,260.553 249.013,265.553 250.5,270.5C 248.683,276.305 248.183,282.305 249,288.5C 249.333,287.833 249.667,287.167 250,286.5C 251.356,287.38 252.856,287.714 254.5,287.5C 254.337,289.857 254.503,292.19 255,294.5C 255.122,292.563 255.955,291.23 257.5,290.5C 256.2,298.487 256.2,306.487 257.5,314.5C 257.114,323.019 256.447,331.519 255.5,340C 255.615,342.732 256.448,345.232 258,347.5C 258.498,350.482 258.665,353.482 258.5,356.5C 257.662,356.842 257.328,357.508 257.5,358.5C 256.883,358.611 256.383,358.944 256,359.5C 255.895,363.37 255.062,367.037 253.5,370.5C 252.575,369.359 251.741,369.359 251,370.5C 250.76,368.148 249.927,366.148 248.5,364.5C 247.416,362.681 246.082,361.015 244.5,359.5C 243.534,357.604 243.201,355.604 243.5,353.5C 244.496,353.586 245.329,353.252 246,352.5C 246.49,350.455 246.323,348.455 245.5,346.5C 245.5,343.167 245.5,339.833 245.5,336.5C 243.21,327.729 242.043,318.729 242,309.5C 238.97,305.556 238.803,301.556 241.5,297.5C 241.5,297.167 241.5,296.833 241.5,296.5C 242.421,293.437 243.754,290.437 245.5,287.5C 246.302,284.551 246.636,281.551 246.5,278.5C 247.926,276.321 248.592,273.821 248.5,271C 247.29,265.705 246.29,260.372 245.5,255C 246.3,249.842 246.467,244.675 246,239.5C 243.768,237.703 242.602,235.37 242.5,232.5C 242.436,226.026 242.77,219.526 243.5,213C 243.602,209.938 242.269,207.771 239.5,206.5C 238.167,204.833 238.167,203.167 239.5,201.5C 240.809,200.376 241.475,198.876 241.5,197C 241.045,193.719 240.211,190.552 239,187.5C 238.097,186.299 236.931,185.465 235.5,185C 231.234,184.825 227.234,183.825 223.5,182C 222.253,180.542 222.253,179.042 223.5,177.5C 226.066,176.721 228.066,175.221 229.5,173C 231.811,173.155 234.144,173.155 236.5,173C 237.167,172.333 237.833,171.667 238.5,171C 243.409,170.3 248.075,168.966 252.5,167C 255.438,166.288 258.104,166.788 260.5,168.5 Z"/></g>
<g><path style="opacity:1" fill="#a9c11c" d="M 213.5,297.5 C 213.5,298.833 213.5,300.167 213.5,301.5C 213.5,302.167 213.5,302.833 213.5,303.5C 211.967,305.634 211.3,308.134 211.5,311C 211.506,313.033 211.839,314.866 212.5,316.5C 213.902,321.867 213.735,327.2 212,332.5C 211.5,341.16 211.334,349.827 211.5,358.5C 211.843,360.483 211.176,361.817 209.5,362.5C 209.011,361.005 208.345,359.671 207.5,358.5C 207.5,358.167 207.5,357.833 207.5,357.5C 207.167,354.167 206.833,350.833 206.5,347.5C 206.843,345.517 206.176,344.183 204.5,343.5C 204.53,338.921 203.196,334.921 200.5,331.5C 200.274,328.751 200.607,326.084 201.5,323.5C 199.744,319.712 199.078,315.712 199.5,311.5C 201.075,314.529 202.241,317.862 203,321.5C 203.492,320.451 203.326,319.451 202.5,318.5C 204.013,317.154 205.347,315.654 206.5,314C 206.095,313.055 205.428,312.388 204.5,312C 206.259,310.992 207.426,309.492 208,307.5C 208.317,309.301 208.984,309.634 210,308.5C 210.365,304.461 211.531,300.794 213.5,297.5 Z"/></g>
<g><path style="opacity:1" fill="#232905" d="M 212.5,316.5 C 214.006,319.356 214.672,322.523 214.5,326C 212.705,336.652 212.038,347.486 212.5,358.5C 212.167,358.5 211.833,358.5 211.5,358.5C 211.334,349.827 211.5,341.16 212,332.5C 213.735,327.2 213.902,321.867 212.5,316.5 Z"/></g>
<g><path style="opacity:1" fill="#232a05" d="M 241.5,297.5 C 238.803,301.556 238.97,305.556 242,309.5C 242.043,318.729 243.21,327.729 245.5,336.5C 244.833,336.5 244.167,336.5 243.5,336.5C 242.026,328.008 241.192,319.341 241,310.5C 238.463,307.14 236.963,303.473 236.5,299.5C 237.552,297.744 239.219,297.077 241.5,297.5 Z"/></g>
<g><path style="opacity:1" fill="#232523" d="M 214.5,361.5 C 213.833,360.833 213.167,360.167 212.5,359.5C 212.5,359.167 212.5,358.833 212.5,358.5C 212.038,347.486 212.705,336.652 214.5,326C 214.672,322.523 214.006,319.356 212.5,316.5C 212.5,316.167 212.5,315.833 212.5,315.5C 213.268,314.737 213.768,313.737 214,312.5C 214.414,312.957 214.914,313.291 215.5,313.5C 216.98,317.166 217.647,320.999 217.5,325C 217.28,337.305 216.28,349.472 214.5,361.5 Z"/></g>
<g><path style="opacity:1" fill="#262d08" d="M 200.5,331.5 C 203.196,334.921 204.53,338.921 204.5,343.5C 204.157,345.483 204.824,346.817 206.5,347.5C 206.833,350.833 207.167,354.167 207.5,357.5C 206.85,355.553 205.683,353.887 204,352.5C 203.643,345.254 202.476,338.254 200.5,331.5 Z"/></g>
<g><path style="opacity:1" fill="#282f06" d="M 299.5,309.5 C 298.984,314.782 298.817,320.116 299,325.5C 296.53,328.314 296.03,331.314 297.5,334.5C 297.5,334.833 297.5,335.167 297.5,335.5C 298.459,337.545 299.125,339.711 299.5,342C 298.36,348.827 298.36,355.66 299.5,362.5C 298.883,362.389 298.383,362.056 298,361.5C 297.856,351.603 297.023,341.77 295.5,332C 295.667,330.167 295.833,328.333 296,326.5C 297.883,325.347 298.716,323.681 298.5,321.5C 298.167,320.833 297.833,320.167 297.5,319.5C 296.931,315.671 297.598,312.337 299.5,309.5 Z"/></g>
<g><path style="opacity:1" fill="#1e220d" d="M 310.5,313.5 C 312.95,313.874 313.95,315.374 313.5,318C 311.789,322.325 310.789,326.825 310.5,331.5C 311.5,331.5 312.5,331.5 313.5,331.5C 313.5,334.5 313.5,337.5 313.5,340.5C 313.737,341.791 313.404,342.791 312.5,343.5C 311.167,343.5 309.833,343.5 308.5,343.5C 308.717,340.565 309.383,337.731 310.5,335C 309.415,327.843 309.415,320.677 310.5,313.5 Z"/></g>
<g><path style="opacity:1" fill="#667507" d="M 204.5,343.5 C 206.176,344.183 206.843,345.517 206.5,347.5C 204.824,346.817 204.157,345.483 204.5,343.5 Z"/></g>
<g><path style="opacity:1" fill="#222321" d="M 298.5,321.5 C 298.716,323.681 297.883,325.347 296,326.5C 295.833,328.333 295.667,330.167 295.5,332C 297.023,341.77 297.856,351.603 298,361.5C 298.383,362.056 298.883,362.389 299.5,362.5C 300.167,362.167 300.833,361.833 301.5,361.5C 302.496,361.586 303.329,361.252 304,360.5C 304.176,357.118 304.676,353.785 305.5,350.5C 307.009,348.344 308.009,346.01 308.5,343.5C 309.833,343.5 311.167,343.5 312.5,343.5C 310.136,347.059 308.136,350.892 306.5,355C 307.504,356.798 308.004,358.632 308,360.5C 305.858,364.471 303.024,367.805 299.5,370.5C 298.349,371.731 297.183,371.731 296,370.5C 295.204,366.245 295.371,362.079 296.5,358C 296,357.5 295.5,357 295,356.5C 294.308,351.638 294.475,346.805 295.5,342C 294.462,338.387 293.129,334.887 291.5,331.5C 292.984,328.531 294.484,325.531 296,322.5C 296.671,321.748 297.504,321.414 298.5,321.5 Z"/></g>
<g><path style="opacity:1" fill="#293007" d="M 308.5,343.5 C 308.009,346.01 307.009,348.344 305.5,350.5C 304.676,353.785 304.176,357.118 304,360.5C 303.329,361.252 302.496,361.586 301.5,361.5C 301.577,360.25 302.244,359.417 303.5,359C 302.376,358.161 301.709,356.994 301.5,355.5C 303.057,350.967 305.39,346.967 308.5,343.5 Z"/></g>
<g><path style="opacity:1" fill="#242a0b" d="M 207.5,358.5 C 208.345,359.671 209.011,361.005 209.5,362.5C 210.93,365.989 211.764,369.656 212,373.5C 212.383,374.056 212.883,374.389 213.5,374.5C 212.811,375.774 211.977,375.774 211,374.5C 208.957,369.371 207.79,364.037 207.5,358.5 Z"/></g>
<g><path style="opacity:1" fill="#a0b435" d="M 211.5,358.5 C 211.833,358.5 212.167,358.5 212.5,358.5C 212.5,358.833 212.5,359.167 212.5,359.5C 212.401,362.673 213.068,365.673 214.5,368.5C 213.844,370.453 213.511,372.453 213.5,374.5C 212.883,374.389 212.383,374.056 212,373.5C 211.764,369.656 210.93,365.989 209.5,362.5C 211.176,361.817 211.843,360.483 211.5,358.5 Z"/></g>
<g><path style="opacity:1" fill="#1f2120" d="M 194.5,310.5 C 198.563,311.74 199.563,314.24 197.5,318C 198.716,322.596 199.716,327.096 200.5,331.5C 202.476,338.254 203.643,345.254 204,352.5C 205.683,353.887 206.85,355.553 207.5,357.5C 207.5,357.833 207.5,358.167 207.5,358.5C 207.79,364.037 208.957,369.371 211,374.5C 211.977,375.774 212.811,375.774 213.5,374.5C 215.88,371.325 216.88,367.658 216.5,363.5C 216.343,362.127 216.51,360.793 217,359.5C 217.642,362.277 218.476,364.944 219.5,367.5C 218.667,372.489 218.5,377.489 219,382.5C 214.169,382.079 210.502,379.413 208,374.5C 207.685,371.628 207.185,368.795 206.5,366C 204.68,364.193 203.513,362.027 203,359.5C 202.285,349.874 200.285,340.54 197,331.5C 196.231,328.901 196.398,326.401 197.5,324C 195.189,320.939 194.022,317.439 194,313.5C 191.585,310.968 190.919,307.968 192,304.5C 192.002,307.051 192.836,309.051 194.5,310.5 Z"/></g>
<g><path style="opacity:1" fill="#202607" d="M 212.5,359.5 C 213.167,360.167 213.833,360.833 214.5,361.5C 214.5,362.833 215.167,363.5 216.5,363.5C 216.88,367.658 215.88,371.325 213.5,374.5C 213.511,372.453 213.844,370.453 214.5,368.5C 213.068,365.673 212.401,362.673 212.5,359.5 Z"/></g>
<g><path style="opacity:1" fill="#20221d" d="M 266.5,279.5 C 266.137,284.756 264.304,289.423 261,293.5C 260.408,301.677 260.575,309.844 261.5,318C 261.693,321.243 261.027,324.243 259.5,327C 260.473,330.926 260.473,334.926 259.5,339C 260.5,343.333 261.5,347.667 262.5,352C 262.163,355.523 261.663,359.023 261,362.5C 260.667,361.5 260.333,360.5 260,359.5C 260.589,366.486 260.256,373.486 259,380.5C 257.196,387.148 253.363,392.148 247.5,395.5C 242.894,393.192 241.394,389.525 243,384.5C 245.793,378.589 246.793,372.589 246,366.5C 245.465,368.271 244.631,368.604 243.5,367.5C 242.806,364.912 241.64,362.579 240,360.5C 239.107,357.084 239.607,353.917 241.5,351C 240.623,348.085 239.957,345.085 239.5,342C 239.439,340.289 240.106,338.956 241.5,338C 240.611,332.18 239.611,326.346 238.5,320.5C 238.604,318.291 238.937,316.124 239.5,314C 237.469,310.407 236.136,306.574 235.5,302.5C 235.52,301.274 235.853,300.274 236.5,299.5C 236.963,303.473 238.463,307.14 241,310.5C 241.192,319.341 242.026,328.008 243.5,336.5C 243.5,339.833 243.5,343.167 243.5,346.5C 243.5,348.833 243.5,351.167 243.5,353.5C 243.201,355.604 243.534,357.604 244.5,359.5C 246.082,361.015 247.416,362.681 248.5,364.5C 249.801,372.208 249.467,379.875 247.5,387.5C 247.64,389.03 248.307,390.03 249.5,390.5C 251.741,389.7 252.741,388.034 252.5,385.5C 253.5,385.5 254.5,385.5 255.5,385.5C 256.43,378.195 257.097,370.862 257.5,363.5C 257.5,361.833 257.5,360.167 257.5,358.5C 257.328,357.508 257.662,356.842 258.5,356.5C 257.522,345.385 257.522,334.052 258.5,322.5C 259.161,320.866 259.494,319.033 259.5,317C 259.022,309.968 258.355,302.968 257.5,296C 259.403,290.788 261.403,285.622 263.5,280.5C 264.417,279.873 265.417,279.539 266.5,279.5 Z"/></g>
<g><path style="opacity:1" fill="#242b07" d="M 257.5,363.5 C 257.097,370.862 256.43,378.195 255.5,385.5C 254.5,385.5 253.5,385.5 252.5,385.5C 252.741,388.034 251.741,389.7 249.5,390.5C 250.8,386.568 252.633,382.901 255,379.5C 255.369,373.954 256.203,368.62 257.5,363.5 Z"/></g>
<g><path style="opacity:1" fill="#a5ba27" d="M 257.5,358.5 C 257.5,360.167 257.5,361.833 257.5,363.5C 256.203,368.62 255.369,373.954 255,379.5C 252.633,382.901 250.8,386.568 249.5,390.5C 248.307,390.03 247.64,389.03 247.5,387.5C 249.467,379.875 249.801,372.208 248.5,364.5C 249.927,366.148 250.76,368.148 251,370.5C 251.741,369.359 252.575,369.359 253.5,370.5C 255.062,367.037 255.895,363.37 256,359.5C 256.383,358.944 256.883,358.611 257.5,358.5 Z"/></g>
<g><path style="opacity:1" fill="#232a03" d="M 243.5,346.5 C 244.167,346.5 244.833,346.5 245.5,346.5C 246.323,348.455 246.49,350.455 246,352.5C 245.329,353.252 244.496,353.586 243.5,353.5C 243.5,351.167 243.5,348.833 243.5,346.5 Z"/></g>
<g><path style="opacity:1" fill="#283105" d="M 257.5,314.5 C 258.473,316.948 258.806,319.615 258.5,322.5C 257.522,334.052 257.522,345.385 258.5,356.5C 258.665,353.482 258.498,350.482 258,347.5C 256.448,345.232 255.615,342.732 255.5,340C 256.447,331.519 257.114,323.019 257.5,314.5 Z"/></g>
<g><path style="opacity:1" fill="#636e1a" d="M 243.5,336.5 C 244.167,336.5 244.833,336.5 245.5,336.5C 245.5,339.833 245.5,343.167 245.5,346.5C 244.833,346.5 244.167,346.5 243.5,346.5C 243.5,343.167 243.5,339.833 243.5,336.5 Z"/></g>
<g><path style="opacity:1" fill="#282b28" d="M 373.5,426.5 C 365.833,426.5 358.167,426.5 350.5,426.5C 350.666,436.506 350.5,446.506 350,456.5C 348.598,460.975 346.431,464.975 343.5,468.5C 276.5,468.5 209.5,468.5 142.5,468.5C 142.5,454.167 142.5,439.833 142.5,425.5C 219.668,425.167 296.668,425.501 373.5,426.5 Z"/></g>
<g><path style="opacity:1" fill="#383838" d="M 373.5,426.5 C 373.5,440.5 373.5,454.5 373.5,468.5C 363.5,468.5 353.5,468.5 343.5,468.5C 346.431,464.975 348.598,460.975 350,456.5C 350.5,446.506 350.666,436.506 350.5,426.5C 358.167,426.5 365.833,426.5 373.5,426.5 Z"/></g>
<g><path style="opacity:1" fill="#080f0f" d="M 142.5,483.5 C 219.5,483.5 296.5,483.5 373.5,483.5C 372.945,490.464 369.278,494.631 362.5,496C 292.833,496.667 223.167,496.667 153.5,496C 146.486,494.817 142.819,490.651 142.5,483.5 Z"/></g>
</svg>
