<?xml version="1.0" encoding="UTF-8"?>
<!DOCTYPE svg PUBLIC "-//W3C//DTD SVG 1.1//EN" "http://www.w3.org/Graphics/SVG/1.1/DTD/svg11.dtd">
<svg xmlns="http://www.w3.org/2000/svg" version="1.1" width="512px" height="512px" style="shape-rendering:geometricPrecision; text-rendering:geometricPrecision; image-rendering:optimizeQuality; fill-rule:evenodd; clip-rule:evenodd" xmlns:xlink="http://www.w3.org/1999/xlink">
<g><path style="opacity:0.98" fill="#000000" d="M 345.5,-0.5 C 348.167,-0.5 350.833,-0.5 353.5,-0.5C 354.836,1.01027 356.003,2.67694 357,4.5C 357.5,15.1615 357.667,25.8281 357.5,36.5C 374.977,36.1444 385.477,44.4777 389,61.5C 389.667,203.167 389.667,344.833 389,486.5C 386.954,499.371 379.787,507.704 367.5,511.5C 294.5,511.5 221.5,511.5 148.5,511.5C 136.676,507.835 129.509,499.835 127,487.5C 126.333,345.167 126.333,202.833 127,60.5C 129.312,48.1897 136.478,40.3564 148.5,37C 186.833,36.6667 225.167,36.3333 263.5,36C 291.041,24.0577 318.375,11.8911 345.5,-0.5 Z"/></g>
<g><path style="opacity:1" fill="#6f6f6f" d="M 339.5,19.5 C 341.45,24.7351 342.117,30.4018 341.5,36.5C 328.829,36.6666 316.162,36.4999 303.5,36C 315.71,30.7247 327.71,25.2247 339.5,19.5 Z"/></g>
<g><path style="opacity:1" fill="#dbd900" d="M 153.5,51.5 C 223.167,51.3333 292.834,51.5 362.5,52C 370.222,54.2733 373.888,59.4399 373.5,67.5C 296.5,67.5 219.5,67.5 142.5,67.5C 142.221,59.3761 145.887,54.0428 153.5,51.5 Z"/></g>
<g><path style="opacity:1" fill="#fefb00" d="M 350.5,82.5 C 350.5,95.8333 350.5,109.167 350.5,122.5C 281.499,122.667 212.499,122.5 143.5,122C 142.511,108.913 142.177,95.7461 142.5,82.5C 211.833,82.5 281.167,82.5 350.5,82.5 Z"/></g>
<g><path style="opacity:1" fill="#dbd900" d="M 350.5,82.5 C 358.167,82.5 365.833,82.5 373.5,82.5C 373.5,95.8333 373.5,109.167 373.5,122.5C 365.833,122.5 358.167,122.5 350.5,122.5C 350.5,109.167 350.5,95.8333 350.5,82.5 Z"/></g>
<g><path style="opacity:1" fill="#fefb00" d="M 350.5,137.5 C 350.5,228.5 350.5,319.5 350.5,410.5C 281.431,411.833 212.264,411.833 143,410.5C 142.5,319.501 142.333,228.501 142.5,137.5C 211.833,137.5 281.167,137.5 350.5,137.5 Z"/></g>
<g><path style="opacity:1" fill="#dbd900" d="M 350.5,137.5 C 358.167,137.5 365.833,137.5 373.5,137.5C 373.5,228.5 373.5,319.5 373.5,410.5C 365.833,410.5 358.167,410.5 350.5,410.5C 350.5,319.5 350.5,228.5 350.5,137.5 Z"/></g>
<g><path style="opacity:0.909" fill="#000000" d="M 78.5,208.5 C 81.5184,208.335 84.5184,208.502 87.5,209C 94.2821,213.448 100.782,218.281 107,223.5C 109.167,233.333 105.333,237.167 95.5,235C 89.8333,231.167 84.1667,227.333 78.5,223.5C 73.1783,218.464 73.1783,213.464 78.5,208.5 Z"/></g>
<g><path style="opacity:0.909" fill="#000000" d="M 423.5,208.5 C 433.497,206.991 437.33,210.991 435,220.5C 428.806,225.687 422.306,230.52 415.5,235C 405.667,237.167 401.833,233.333 404,223.5C 410.4,218.254 416.9,213.254 423.5,208.5 Z"/></g>
<g><path style="opacity:1" fill="#20231c" d="M 251.5,161.5 C 256.769,160.556 260.936,162.222 264,166.5C 267.721,167.943 271.221,169.777 274.5,172C 275.337,173.011 275.67,174.178 275.5,175.5C 276.93,175.421 278.264,175.754 279.5,176.5C 280.734,180.949 283.068,181.616 286.5,178.5C 290.745,173.368 296.078,169.701 302.5,167.5C 306.82,170.158 311.487,171.991 316.5,173C 317.45,175.91 319.45,177.077 322.5,176.5C 324.079,183.205 325.413,189.871 326.5,196.5C 325.326,202.302 322.826,207.302 319,211.5C 317.959,217.29 316.126,222.79 313.5,228C 314.795,230.801 314.795,233.634 313.5,236.5C 315.174,238.349 316.174,240.516 316.5,243C 315.779,246.824 315.113,250.657 314.5,254.5C 315.885,258.483 317.385,262.483 319,266.5C 320.43,274.936 318.93,282.77 314.5,290C 315.877,293.212 316.877,296.546 317.5,300C 316.554,303.51 315.22,306.843 313.5,310C 316.053,315.451 316.053,320.951 313.5,326.5C 316.244,332.275 316.078,337.942 313,343.5C 310.193,346.944 308.027,350.777 306.5,355C 307.504,356.798 308.004,358.632 308,360.5C 306.13,362.405 304.63,364.572 303.5,367C 301.697,367.637 300.364,368.803 299.5,370.5C 298.311,371.429 296.978,371.762 295.5,371.5C 294.852,361.642 294.852,351.808 295.5,342C 294.462,338.387 293.129,334.887 291.5,331.5C 293.151,328.198 294.818,324.864 296.5,321.5C 293.903,316.766 294.07,312.099 297,307.5C 297.352,299.823 297.852,292.156 298.5,284.5C 297.374,278.456 296.041,272.456 294.5,266.5C 295.292,263.874 295.959,261.208 296.5,258.5C 295.425,254.677 293.591,251.344 291,248.5C 290.321,243.971 290.487,239.471 291.5,235C 290.597,232.921 289.931,230.754 289.5,228.5C 292.094,223.598 293.761,218.265 294.5,212.5C 294.232,208.23 294.066,203.896 294,199.5C 288.568,198.095 283.068,196.928 277.5,196C 271.187,193.828 268.187,195.994 268.5,202.5C 269.512,212.466 270.512,222.466 271.5,232.5C 269.207,237.961 267.874,243.794 267.5,250C 269.073,256.123 270.406,262.289 271.5,268.5C 271.333,270.167 271.167,271.833 271,273.5C 267.371,280.011 264.037,286.678 261,293.5C 260.408,301.677 260.575,309.844 261.5,318C 261.693,321.243 261.027,324.243 259.5,327C 260.473,330.926 260.473,334.926 259.5,339C 260.39,343.251 261.39,347.418 262.5,351.5C 261.251,361.156 260.085,370.823 259,380.5C 257.196,387.148 253.363,392.148 247.5,395.5C 242.894,393.192 241.394,389.525 243,384.5C 244.65,381.137 245.817,377.637 246.5,374C 244.483,369.465 242.316,364.965 240,360.5C 239.107,357.084 239.607,353.917 241.5,351C 240.623,348.085 239.957,345.085 239.5,342C 239.914,332.621 239.914,323.288 239.5,314C 237.469,310.407 236.136,306.574 235.5,302.5C 239.113,293.825 241.613,284.825 243,275.5C 243.827,274.338 244.66,273.171 245.5,272C 240.551,263.762 239.218,254.929 241.5,245.5C 240.807,241.618 239.807,237.785 238.5,234C 238.58,227.18 238.913,220.347 239.5,213.5C 239.418,210.907 238.252,208.907 236,207.5C 235.073,203.738 235.573,200.238 237.5,197C 236.713,194.901 236.38,192.734 236.5,190.5C 232.362,190.578 228.862,189.245 226,186.5C 225.76,189.362 224.593,191.695 222.5,193.5C 223.528,198.041 221.862,201.374 217.5,203.5C 216.353,205.765 216.186,208.098 217,210.5C 218.363,211.893 219.196,213.559 219.5,215.5C 218.302,220.227 216.302,224.56 213.5,228.5C 214.107,232.489 214.773,236.489 215.5,240.5C 217.747,246.829 220.413,252.996 223.5,259C 222.117,263.102 220.45,267.102 218.5,271C 220.459,273.686 220.792,276.519 219.5,279.5C 220.477,282.263 221.143,285.096 221.5,288C 219.853,296.431 217.52,304.597 214.5,312.5C 216.927,316.259 217.927,320.425 217.5,325C 216.519,336.49 216.352,347.99 217,359.5C 217.642,362.277 218.476,364.944 219.5,367.5C 218.667,372.489 218.5,377.489 219,382.5C 214.169,382.079 210.502,379.413 208,374.5C 207.667,372.167 207.333,369.833 207,367.5C 204.782,365.355 203.449,362.688 203,359.5C 202.285,349.874 200.285,340.54 197,331.5C 196.231,328.901 196.398,326.401 197.5,324C 195.189,320.939 194.022,317.439 194,313.5C 190.338,307.156 191.338,301.489 197,296.5C 198.22,289.2 197.053,282.367 193.5,276C 195.44,263.864 193.107,252.698 186.5,242.5C 186.167,240.5 185.833,238.5 185.5,236.5C 186.853,229.896 188.52,223.396 190.5,217C 189.262,214.382 189.262,211.715 190.5,209C 188.698,206.183 186.532,203.683 184,201.5C 183.893,198.869 183.727,196.369 183.5,194C 176.235,192.244 168.902,190.911 161.5,190C 158.413,185.256 159.413,181.589 164.5,179C 168.6,178.783 172.267,177.449 175.5,175C 184.19,175.166 192.19,172.999 199.5,168.5C 205.302,171.911 211.636,173.411 218.5,173C 219.025,173.692 219.692,174.192 220.5,174.5C 223.45,173.034 226.117,171.2 228.5,169C 236.886,168.304 244.553,165.804 251.5,161.5 Z"/></g>
<g><path style="opacity:1" fill="#f5f2f5" d="M 195.5,172.5 C 199.911,172.203 203.911,173.369 207.5,176C 210.833,176.333 214.167,176.667 217.5,177C 218.773,180.883 220.106,184.717 221.5,188.5C 221.47,194.504 218.804,198.671 213.5,201C 212.707,202.085 212.04,203.252 211.5,204.5C 212.244,207.443 212.744,210.443 213,213.5C 214.236,214.399 215.07,215.566 215.5,217C 210.715,224.266 209.548,232.099 212,240.5C 213.828,246.982 216.328,253.149 219.5,259C 218.514,263.466 216.848,267.633 214.5,271.5C 216.776,274.234 217.11,277.234 215.5,280.5C 216.892,282.577 217.558,284.911 217.5,287.5C 214.742,295.813 212.742,304.313 211.5,313C 212.833,317 214.167,321 215.5,325C 214.815,327.54 213.981,330.04 213,332.5C 212.703,339.684 212.203,346.85 211.5,354C 212.36,358.508 213.694,362.842 215.5,367C 214.841,369.462 214.507,371.962 214.5,374.5C 213.178,374.67 212.011,374.337 211,373.5C 210.035,365.875 208.035,358.542 205,351.5C 205.468,344.545 203.801,338.212 200,332.5C 199.248,329.106 199.415,325.773 200.5,322.5C 198.859,319.442 198.026,316.108 198,312.5C 195.984,311.161 194.817,309.328 194.5,307C 195.881,303.937 197.714,301.104 200,298.5C 200.167,295.5 200.333,292.5 200.5,289.5C 199.037,279.271 198.204,268.938 198,258.5C 195.75,252.403 192.75,246.737 189,241.5C 188.833,240.333 188.667,239.167 188.5,238C 189.588,231.404 191.088,224.904 193,218.5C 194.931,211.31 193.264,205.31 188,200.5C 187.605,198.821 187.772,197.155 188.5,195.5C 188.471,193.971 187.804,192.804 186.5,192C 179.047,189.22 171.381,187.22 163.5,186C 162.167,184.667 162.167,183.333 163.5,182C 172.325,179.603 181.325,177.936 190.5,177C 192.618,175.951 194.284,174.451 195.5,172.5 Z"/></g>
<g><path style="opacity:1" fill="#f5f2f5" d="M 299.5,171.5 C 302.665,170.964 305.331,171.797 307.5,174C 310.095,174.226 312.595,174.726 315,175.5C 318.531,182.042 321.031,188.875 322.5,196C 321.111,201.782 318.611,206.948 315,211.5C 314.667,214.167 314.333,216.833 314,219.5C 310.943,223.112 309.443,227.279 309.5,232C 309.945,236.524 310.945,240.858 312.5,245C 312.233,248.703 311.233,252.203 309.5,255.5C 311.04,259.213 313.207,262.547 316,265.5C 316.667,269.5 316.667,273.5 316,277.5C 314.362,282.08 312.529,286.58 310.5,291C 310.93,292.434 311.764,293.601 313,294.5C 313.821,300.548 312.654,306.214 309.5,311.5C 311.321,313.475 312.321,315.809 312.5,318.5C 311.733,321.098 310.733,323.598 309.5,326C 312.275,331.58 312.109,337.08 309,342.5C 304.881,347.749 302.714,353.749 302.5,360.5C 301.167,361.833 299.833,363.167 298.5,364.5C 297.278,357.502 297.278,350.502 298.5,343.5C 297.066,340.392 296.4,337.059 296.5,333.5C 297.152,328.976 298.152,324.476 299.5,320C 299.044,317.853 298.711,315.686 298.5,313.5C 299.103,303.768 300.103,294.101 301.5,284.5C 301.292,278.672 300.292,273.006 298.5,267.5C 299.369,263.182 299.536,258.849 299,254.5C 294.46,248.526 293.293,241.859 295.5,234.5C 295.558,231.911 294.892,229.577 293.5,227.5C 294.614,225.215 295.947,223.048 297.5,221C 296.879,214.735 296.879,208.402 297.5,202C 297.498,199.414 296.498,197.414 294.5,196C 287.382,195.05 280.382,193.717 273.5,192C 272.167,190.333 272.167,188.667 273.5,187C 277.833,185.333 282.167,183.667 286.5,182C 290.537,178.001 294.871,174.501 299.5,171.5 Z"/></g>
<g><path style="opacity:1" fill="#f5f2f5" d="M 253.5,164.5 C 254.873,164.343 256.207,164.51 257.5,165C 261.541,168.02 265.874,170.686 270.5,173C 272.153,176.625 274.486,179.625 277.5,182C 275.367,183.916 273.034,185.749 270.5,187.5C 269.811,189.444 269.311,191.444 269,193.5C 264.199,196.363 263.366,200.03 266.5,204.5C 266.244,205.689 265.911,206.856 265.5,208C 267.78,211.759 268.113,215.759 266.5,220C 267.376,223.628 268.043,227.295 268.5,231C 266.105,237.012 264.772,243.346 264.5,250C 265.576,256.045 266.909,262.045 268.5,268C 265.479,278.212 261.479,288.045 256.5,297.5C 257.277,304.153 257.943,310.82 258.5,317.5C 255.507,328.472 255.841,339.306 259.5,350C 258.538,361.343 256.704,372.51 254,383.5C 252.221,386.785 249.721,389.118 246.5,390.5C 246.148,387.927 246.648,385.594 248,383.5C 248.667,378.167 248.667,372.833 248,367.5C 246.008,363.684 244.174,359.851 242.5,356C 242.672,353.83 243.672,352.163 245.5,351C 243.164,345.041 242.83,338.875 244.5,332.5C 242.907,324.939 242.074,317.272 242,309.5C 240.128,307.562 239.295,305.229 239.5,302.5C 242.591,294.137 244.757,285.471 246,276.5C 247.698,275.471 248.532,273.971 248.5,272C 246.773,266.304 245.107,260.637 243.5,255C 244.862,250.389 245.862,245.723 246.5,241C 245.333,239.833 244.167,238.667 243,237.5C 242.667,228.167 242.333,218.833 242,209.5C 240.214,208.223 239.048,206.556 238.5,204.5C 241.255,197.117 239.922,190.617 234.5,185C 230.75,184.74 227.084,184.073 223.5,183C 221.536,180.833 221.202,178.499 222.5,176C 226.941,172.742 231.941,171.075 237.5,171C 242.819,168.497 248.152,166.331 253.5,164.5 Z"/></g>
<g><path style="opacity:0.905" fill="#000000" d="M 47.5,253.5 C 66.1696,253.333 84.8363,253.5 103.5,254C 108.906,255.98 110.739,259.814 109,265.5C 107.891,267.815 106.057,269.315 103.5,270C 84.8333,270.667 66.1667,270.667 47.5,270C 41.5318,267.609 39.6985,263.442 42,257.5C 43.4998,255.531 45.3331,254.198 47.5,253.5 Z"/></g>
<g><path style="opacity:0.905" fill="#000000" d="M 407.5,253.5 C 426.17,253.333 444.836,253.5 463.5,254C 469.468,256.391 471.302,260.558 469,266.5C 467.681,268.487 465.848,269.654 463.5,270C 444.833,270.667 426.167,270.667 407.5,270C 401.458,267.163 399.958,262.663 403,256.5C 404.409,255.219 405.909,254.219 407.5,253.5 Z"/></g>
<g><path style="opacity:0.908" fill="#000000" d="M 95.5,288.5 C 105.33,286.829 109.163,290.829 107,300.5C 101.59,304.788 96.0897,308.955 90.5,313C 84.4485,317.696 79.2818,316.863 75,310.5C 74.4163,307.743 74.7496,305.077 76,302.5C 82.6811,297.97 89.1811,293.304 95.5,288.5 Z"/></g>
<g><path style="opacity:0.908" fill="#000000" d="M 407.5,288.5 C 410.187,288.336 412.854,288.503 415.5,289C 421.5,293 427.5,297 433.5,301C 438.602,308.63 436.768,313.796 428,316.5C 420.66,313.159 413.827,308.992 407.5,304C 402.227,298.743 402.227,293.577 407.5,288.5 Z"/></g>
<g><path style="opacity:1" fill="#fefb00" d="M 350.5,426.5 C 350.666,436.506 350.5,446.506 350,456.5C 348.598,460.975 346.431,464.975 343.5,468.5C 276.5,468.5 209.5,468.5 142.5,468.5C 142.5,454.167 142.5,439.833 142.5,425.5C 212.002,425.167 281.335,425.501 350.5,426.5 Z"/></g>
<g><path style="opacity:1" fill="#dbd900" d="M 350.5,426.5 C 358.167,426.5 365.833,426.5 373.5,426.5C 373.5,440.5 373.5,454.5 373.5,468.5C 363.5,468.5 353.5,468.5 343.5,468.5C 346.431,464.975 348.598,460.975 350,456.5C 350.5,446.506 350.666,436.506 350.5,426.5 Z"/></g>
<g><path style="opacity:1" fill="#dbd900" d="M 142.5,483.5 C 219.5,483.5 296.5,483.5 373.5,483.5C 372.96,490.411 369.293,494.578 362.5,496C 292.833,496.667 223.167,496.667 153.5,496C 146.486,494.817 142.819,490.651 142.5,483.5 Z"/></g>
</svg>
