<?xml version="1.0" encoding="UTF-8"?>
<!DOCTYPE svg PUBLIC "-//W3C//DTD SVG 1.1//EN" "http://www.w3.org/Graphics/SVG/1.1/DTD/svg11.dtd">
<svg xmlns="http://www.w3.org/2000/svg" version="1.1" width="512px" height="512px" style="shape-rendering:geometricPrecision; text-rendering:geometricPrecision; image-rendering:optimizeQuality; fill-rule:evenodd; clip-rule:evenodd" xmlns:xlink="http://www.w3.org/1999/xlink">
<g><path style="opacity:0.98" fill="#000000" d="M 345.5,-0.5 C 348.167,-0.5 350.833,-0.5 353.5,-0.5C 354.836,1.01027 356.003,2.67694 357,4.5C 357.5,15.1615 357.667,25.8281 357.5,36.5C 374.977,36.1444 385.477,44.4777 389,61.5C 389.667,203.167 389.667,344.833 389,486.5C 386.954,499.371 379.787,507.704 367.5,511.5C 294.5,511.5 221.5,511.5 148.5,511.5C 136.676,507.835 129.509,499.835 127,487.5C 126.333,345.167 126.333,202.833 127,60.5C 129.312,48.1897 136.478,40.3564 148.5,37C 186.833,36.6667 225.167,36.3333 263.5,36C 291.041,24.0577 318.375,11.8911 345.5,-0.5 Z"/></g>
<g><path style="opacity:1" fill="#6f6f6f" d="M 339.5,19.5 C 341.45,24.7351 342.117,30.4018 341.5,36.5C 328.829,36.6666 316.162,36.4999 303.5,36C 315.71,30.7247 327.71,25.2247 339.5,19.5 Z"/></g>
<g><path style="opacity:1" fill="#080f0f" d="M 152.5,51.5 C 222.501,51.3333 292.501,51.5 362.5,52C 370.247,54.2502 373.914,59.4169 373.5,67.5C 296.5,67.5 219.5,67.5 142.5,67.5C 142.246,59.7843 145.579,54.451 152.5,51.5 Z"/></g>
<g><path style="opacity:1" fill="#282c29" d="M 350.5,82.5 C 350.5,95.8333 350.5,109.167 350.5,122.5C 281.167,122.5 211.833,122.5 142.5,122.5C 142.5,109.167 142.5,95.8333 142.5,82.5C 211.833,82.5 281.167,82.5 350.5,82.5 Z"/></g>
<g><path style="opacity:1" fill="#383838" d="M 350.5,82.5 C 358.167,82.5 365.833,82.5 373.5,82.5C 373.5,95.8333 373.5,109.167 373.5,122.5C 365.833,122.5 358.167,122.5 350.5,122.5C 350.5,109.167 350.5,95.8333 350.5,82.5 Z"/></g>
<g><path style="opacity:1" fill="#081010" d="M 373.5,137.5 C 365.833,137.5 358.167,137.5 350.5,137.5C 350.5,228.833 350.5,320.167 350.5,411.5C 281.167,411.5 211.833,411.5 142.5,411.5C 142.5,319.833 142.5,228.167 142.5,136.5C 219.668,136.167 296.668,136.501 373.5,137.5 Z"/></g>
<g><path style="opacity:1" fill="#282b29" d="M 373.5,137.5 C 373.5,228.833 373.5,320.167 373.5,411.5C 365.833,411.5 358.167,411.5 350.5,411.5C 350.5,320.167 350.5,228.833 350.5,137.5C 358.167,137.5 365.833,137.5 373.5,137.5 Z"/></g>
<g><path style="opacity:1" fill="#52a5bc" d="M 277.5,180.5 C 277.649,181.552 277.483,182.552 277,183.5C 274.054,184.293 271.887,185.96 270.5,188.5C 270.242,192.3 268.409,195.3 265,197.5C 264.252,199.84 264.752,201.84 266.5,203.5C 266.5,204.5 266.5,205.5 266.5,206.5C 265.903,206.735 265.57,207.235 265.5,208C 267.78,211.759 268.113,215.759 266.5,220C 267.376,223.628 268.043,227.295 268.5,231C 268.591,233.775 267.924,236.275 266.5,238.5C 263.52,247.255 264.02,255.921 268,264.5C 268.667,266.833 268.667,269.167 268,271.5C 265.042,279.417 261.542,287.083 257.5,294.5C 257.809,304.355 257.809,314.355 257.5,324.5C 255.735,333.097 256.402,341.597 259.5,350C 258.538,361.343 256.704,372.51 254,383.5C 252.221,386.785 249.721,389.118 246.5,390.5C 246.5,389.5 246.5,388.5 246.5,387.5C 248.488,381.053 248.988,374.386 248,367.5C 247.059,365.273 245.892,363.273 244.5,361.5C 243.621,359.772 242.954,357.939 242.5,356C 242.672,353.83 243.672,352.163 245.5,351C 243.164,345.041 242.83,338.875 244.5,332.5C 242.907,324.939 242.074,317.272 242,309.5C 241.617,308.944 241.117,308.611 240.5,308.5C 238.797,302.454 239.631,296.787 243,291.5C 244.475,286.937 245.308,282.27 245.5,277.5C 245.5,277.167 245.5,276.833 245.5,276.5C 247.478,275.683 248.478,274.183 248.5,272C 248.167,268.487 247.001,265.321 245,262.5C 244.174,259.207 243.674,255.874 243.5,252.5C 245.043,248.914 246.043,245.08 246.5,241C 245.295,239.624 243.962,238.458 242.5,237.5C 242.666,228.161 242.5,218.827 242,209.5C 240.214,208.223 239.048,206.556 238.5,204.5C 241.255,197.117 239.922,190.617 234.5,185C 230.75,184.74 227.084,184.073 223.5,183C 221.536,180.833 221.202,178.499 222.5,176C 226.941,172.742 231.941,171.075 237.5,171C 240.069,170.102 242.402,168.935 244.5,167.5C 245.492,167.672 246.158,167.338 246.5,166.5C 250.163,165.659 253.83,165.159 257.5,165C 261.541,168.02 265.874,170.686 270.5,173C 271.656,176.655 273.99,179.155 277.5,180.5 Z"/></g>
<g><path style="opacity:1" fill="#52a5bc" d="M 310.5,226.5 C 309.357,229.976 309.19,233.642 310,237.5C 313.152,242.38 313.319,247.38 310.5,252.5C 310.5,252.833 310.5,253.167 310.5,253.5C 309.402,254.601 309.235,255.934 310,257.5C 316.127,262.839 318.127,269.506 316,277.5C 314.362,282.08 312.529,286.58 310.5,291C 310.93,292.434 311.764,293.601 313,294.5C 313.821,300.548 312.654,306.214 309.5,311.5C 311.321,313.475 312.321,315.809 312.5,318.5C 311.733,321.098 310.733,323.598 309.5,326C 311.215,329.675 311.715,333.508 311,337.5C 306.907,344.739 304.074,352.406 302.5,360.5C 301.167,361.833 299.833,363.167 298.5,364.5C 297.278,357.502 297.278,350.502 298.5,343.5C 295.884,337.139 295.884,330.806 298.5,324.5C 298.5,323.833 298.5,323.167 298.5,322.5C 298.966,318.363 298.966,314.029 298.5,309.5C 299.487,304.695 299.821,299.695 299.5,294.5C 301.019,291.474 301.685,288.141 301.5,284.5C 301.292,278.672 300.292,273.006 298.5,267.5C 298.753,265.142 299.086,262.808 299.5,260.5C 299.662,258.473 299.495,256.473 299,254.5C 294.46,248.526 293.293,241.859 295.5,234.5C 295.558,231.911 294.892,229.577 293.5,227.5C 294.614,225.215 295.947,223.048 297.5,221C 296.59,213.243 296.257,205.409 296.5,197.5C 295.3,196.469 293.966,195.635 292.5,195C 285.5,195.039 278.834,193.872 272.5,191.5C 272.286,189.856 272.62,188.356 273.5,187C 277.261,185.436 280.928,183.936 284.5,182.5C 289.092,178.527 294.092,175.027 299.5,172C 302.649,170.965 305.316,171.632 307.5,174C 310.095,174.226 312.595,174.726 315,175.5C 318.531,182.042 321.031,188.875 322.5,196C 321.111,201.782 318.611,206.948 315,211.5C 314.667,214.167 314.333,216.833 314,219.5C 312.295,221.577 311.128,223.91 310.5,226.5 Z"/></g>
<g><path style="opacity:1" fill="#52a5bc" d="M 218.5,254.5 C 219.668,260.682 218.335,266.348 214.5,271.5C 216.776,274.234 217.11,277.234 215.5,280.5C 218.236,286.981 217.736,293.315 214,299.5C 213.502,302.482 213.335,305.482 213.5,308.5C 212.191,309.624 211.525,311.124 211.5,313C 212.833,317 214.167,321 215.5,325C 214.815,327.54 213.981,330.04 213,332.5C 212.703,339.684 212.203,346.85 211.5,354C 211.452,357.044 212.452,359.544 214.5,361.5C 214.5,362.167 214.5,362.833 214.5,363.5C 215.331,367.088 215.331,370.755 214.5,374.5C 213.178,374.67 212.011,374.337 211,373.5C 210.035,365.875 208.035,358.542 205,351.5C 205.468,344.545 203.801,338.212 200,332.5C 199.248,329.106 199.415,325.773 200.5,322.5C 198.859,319.442 198.026,316.108 198,312.5C 195.984,311.161 194.817,309.328 194.5,307C 195.881,303.937 197.714,301.104 200,298.5C 200.167,295.5 200.333,292.5 200.5,289.5C 199.037,279.271 198.204,268.938 198,258.5C 196.136,254.773 194.303,251.106 192.5,247.5C 192.5,246.833 192.167,246.5 191.5,246.5C 190.279,243.766 189.279,240.933 188.5,238C 189.588,231.404 191.088,224.904 193,218.5C 194.931,211.31 193.264,205.31 188,200.5C 189.81,193.464 186.976,190.131 179.5,190.5C 174.589,187.939 169.256,186.606 163.5,186.5C 162.272,184.99 162.272,183.49 163.5,182C 172.325,179.603 181.325,177.936 190.5,177C 195.734,171.353 201.401,171.02 207.5,176C 211.089,176.207 214.589,176.707 218,177.5C 218.858,181.321 220.025,184.988 221.5,188.5C 221.47,194.504 218.804,198.671 213.5,201C 212.707,202.085 212.04,203.252 211.5,204.5C 212.244,207.443 212.744,210.443 213,213.5C 214.236,214.399 215.07,215.566 215.5,217C 212.466,221.146 210.8,225.813 210.5,231C 210.988,237.424 212.488,243.591 215,249.5C 215.697,251.584 216.864,253.251 218.5,254.5 Z"/></g>
<g><path style="opacity:1" fill="#242b03" d="M 277.5,180.5 C 279.456,182.148 281.789,182.815 284.5,182.5C 280.928,183.936 277.261,185.436 273.5,187C 272.62,188.356 272.286,189.856 272.5,191.5C 271.599,190.71 270.932,189.71 270.5,188.5C 271.887,185.96 274.054,184.293 277,183.5C 277.483,182.552 277.649,181.552 277.5,180.5 Z"/></g>
<g><path style="opacity:1" fill="#23251f" d="M 310.5,226.5 C 311.128,223.91 312.295,221.577 314,219.5C 314.333,216.833 314.667,214.167 315,211.5C 318.611,206.948 321.111,201.782 322.5,196C 321.031,188.875 318.531,182.042 315,175.5C 312.595,174.726 310.095,174.226 307.5,174C 305.316,171.632 302.649,170.965 299.5,172C 294.092,175.027 289.092,178.527 284.5,182.5C 281.789,182.815 279.456,182.148 277.5,180.5C 273.99,179.155 271.656,176.655 270.5,173C 265.874,170.686 261.541,168.02 257.5,165C 253.83,165.159 250.163,165.659 246.5,166.5C 245.325,166.719 244.325,166.386 243.5,165.5C 246.436,164.885 249.103,163.718 251.5,162C 253.833,161.333 256.167,161.333 258.5,162C 263.451,165.816 268.785,169.15 274.5,172C 275.337,173.011 275.67,174.178 275.5,175.5C 276.552,175.351 277.552,175.517 278.5,176C 280.919,181.348 284.253,181.848 288.5,177.5C 289.185,175.453 290.351,173.786 292,172.5C 295.597,170.951 299.097,169.284 302.5,167.5C 306.49,169.992 310.823,171.659 315.5,172.5C 316.833,174.5 318.5,176.167 320.5,177.5C 319.975,178.192 319.308,178.692 318.5,179C 319.227,180.399 319.727,181.899 320,183.5C 320.219,182.062 320.719,180.729 321.5,179.5C 322.187,181.274 323.02,182.941 324,184.5C 324.084,188.561 324.917,192.561 326.5,196.5C 325.326,202.302 322.826,207.302 319,211.5C 318.667,212.833 318.333,214.167 318,215.5C 317.282,214.549 316.449,214.383 315.5,215C 316.574,215.739 317.241,216.739 317.5,218C 316.53,221.244 315.363,224.41 314,227.5C 312.989,226.663 311.822,226.33 310.5,226.5 Z"/></g>
<g><path style="opacity:1" fill="#20231b" d="M 244.5,167.5 C 242.402,168.935 240.069,170.102 237.5,171C 231.941,171.075 226.941,172.742 222.5,176C 221.202,178.499 221.536,180.833 223.5,183C 227.084,184.073 230.75,184.74 234.5,185C 239.922,190.617 241.255,197.117 238.5,204.5C 239.048,206.556 240.214,208.223 242,209.5C 242.5,218.827 242.666,228.161 242.5,237.5C 241.67,228.676 241.17,219.676 241,210.5C 240.333,217.167 239.667,217.167 239,210.5C 234.932,206.451 234.432,201.951 237.5,197C 236.713,194.901 236.38,192.734 236.5,190.5C 232.362,190.578 228.862,189.245 226,186.5C 225.798,188.256 225.298,189.922 224.5,191.5C 223.575,192.641 222.741,192.641 222,191.5C 224.041,196.528 222.541,200.528 217.5,203.5C 217.167,204.667 216.833,205.833 216.5,207C 217.205,209.896 218.205,212.729 219.5,215.5C 218.302,220.227 216.302,224.56 213.5,228.5C 214.783,231.318 214.783,234.152 213.5,237C 216.739,243.434 219.906,249.934 223,256.5C 223.864,260.034 223.031,263.034 220.5,265.5C 220.507,262.962 220.841,260.462 221.5,258C 221.285,256.092 220.285,254.926 218.5,254.5C 216.864,253.251 215.697,251.584 215,249.5C 212.488,243.591 210.988,237.424 210.5,231C 210.8,225.813 212.466,221.146 215.5,217C 215.07,215.566 214.236,214.399 213,213.5C 212.744,210.443 212.244,207.443 211.5,204.5C 212.04,203.252 212.707,202.085 213.5,201C 218.804,198.671 221.47,194.504 221.5,188.5C 220.025,184.988 218.858,181.321 218,177.5C 214.589,176.707 211.089,176.207 207.5,176C 201.401,171.02 195.734,171.353 190.5,177C 181.325,177.936 172.325,179.603 163.5,182C 162.272,183.49 162.272,184.99 163.5,186.5C 163.804,187.15 164.137,187.817 164.5,188.5C 169.462,189.496 174.462,190.163 179.5,190.5C 186.976,190.131 189.81,193.464 188,200.5C 193.264,205.31 194.931,211.31 193,218.5C 191.088,224.904 189.588,231.404 188.5,238C 189.279,240.933 190.279,243.766 191.5,246.5C 191.657,247.873 191.49,249.207 191,250.5C 190.052,246.764 188.218,243.597 185.5,241C 188.059,238.205 188.059,235.371 185.5,232.5C 187.356,227.376 189.023,222.209 190.5,217C 189.262,214.382 189.262,211.715 190.5,209C 190.153,205.986 188.486,204.319 185.5,204C 183.406,201.366 183.073,198.533 184.5,195.5C 183.286,193.931 181.619,193.098 179.5,193C 173.612,191.372 167.612,190.372 161.5,190C 159.346,187.237 159.18,184.404 161,181.5C 165.876,179.552 170.71,177.385 175.5,175C 183.388,175.125 190.722,173.292 197.5,169.5C 199.439,171.618 201.606,171.951 204,170.5C 209.534,171.804 215.034,173.138 220.5,174.5C 223.45,173.034 226.117,171.2 228.5,169C 232.656,168.815 236.656,167.982 240.5,166.5C 241.849,166.846 243.183,167.179 244.5,167.5 Z"/></g>
<g><path style="opacity:1" fill="#1d2105" d="M 163.5,186.5 C 169.256,186.606 174.589,187.939 179.5,190.5C 174.462,190.163 169.462,189.496 164.5,188.5C 164.137,187.817 163.804,187.15 163.5,186.5 Z"/></g>
<g><path style="opacity:0.909" fill="#000000" d="M 78.5,208.5 C 81.5184,208.335 84.5184,208.502 87.5,209C 94.2821,213.448 100.782,218.281 107,223.5C 109.167,233.333 105.333,237.167 95.5,235C 89.8333,231.167 84.1667,227.333 78.5,223.5C 73.1783,218.464 73.1783,213.464 78.5,208.5 Z"/></g>
<g><path style="opacity:0.909" fill="#000000" d="M 423.5,208.5 C 433.497,206.991 437.33,210.991 435,220.5C 428.806,225.687 422.306,230.52 415.5,235C 405.667,237.167 401.833,233.333 404,223.5C 410.4,218.254 416.9,213.254 423.5,208.5 Z"/></g>
<g><path style="opacity:1" fill="#20231c" d="M 270.5,188.5 C 270.932,189.71 271.599,190.71 272.5,191.5C 278.834,193.872 285.5,195.039 292.5,195C 293.966,195.635 295.3,196.469 296.5,197.5C 296.257,205.409 296.59,213.243 297.5,221C 295.947,223.048 294.614,225.215 293.5,227.5C 294.892,229.577 295.558,231.911 295.5,234.5C 293.293,241.859 294.46,248.526 299,254.5C 299.495,256.473 299.662,258.473 299.5,260.5C 298.833,260.5 298.167,260.5 297.5,260.5C 296.159,256.157 293.992,252.157 291,248.5C 290.333,244.833 290.333,241.167 291,237.5C 291.998,240.028 292.831,240.028 293.5,237.5C 291.767,234.619 290.434,231.619 289.5,228.5C 289.453,225.927 290.453,223.927 292.5,222.5C 293.329,219.198 293.996,215.865 294.5,212.5C 294.232,208.23 294.066,203.896 294,199.5C 288.568,198.095 283.068,196.928 277.5,196C 275.167,195.333 272.833,195.333 270.5,196C 269.335,198.732 268.002,201.232 266.5,203.5C 264.752,201.84 264.252,199.84 265,197.5C 268.409,195.3 270.242,192.3 270.5,188.5 Z"/></g>
<g><path style="opacity:1" fill="#20231c" d="M 266.5,206.5 C 266.721,209.097 267.221,209.097 268,206.5C 268.374,207.416 268.874,208.25 269.5,209C 268.424,210.726 268.257,212.559 269,214.5C 269.333,213.167 269.667,211.833 270,210.5C 270.592,213.694 270.426,216.861 269.5,220C 270.167,223.333 270.833,226.667 271.5,230C 271.019,232.374 270.852,234.874 271,237.5C 269.644,238.38 268.144,238.714 266.5,238.5C 267.924,236.275 268.591,233.775 268.5,231C 268.043,227.295 267.376,223.628 266.5,220C 268.113,215.759 267.78,211.759 265.5,208C 265.57,207.235 265.903,206.735 266.5,206.5 Z"/></g>
<g><path style="opacity:1" fill="#1f221a" d="M 310.5,226.5 C 310.461,228.359 311.294,229.692 313,230.5C 313.333,229.833 313.667,229.167 314,228.5C 314.728,231.23 314.562,233.897 313.5,236.5C 315.174,238.349 316.174,240.516 316.5,243C 315.934,246.897 315.101,250.731 314,254.5C 313.29,253.027 312.124,252.36 310.5,252.5C 313.319,247.38 313.152,242.38 310,237.5C 309.19,233.642 309.357,229.976 310.5,226.5 Z"/></g>
<g><path style="opacity:1" fill="#1c2005" d="M 242.5,237.5 C 243.962,238.458 245.295,239.624 246.5,241C 246.043,245.08 245.043,248.914 243.5,252.5C 243.818,247.968 243.485,243.634 242.5,239.5C 242.5,238.833 242.5,238.167 242.5,237.5 Z"/></g>
<g><path style="opacity:1" fill="#222420" d="M 242.5,239.5 C 243.485,243.634 243.818,247.968 243.5,252.5C 243.674,255.874 244.174,259.207 245,262.5C 247.001,265.321 248.167,268.487 248.5,272C 248.478,274.183 247.478,275.683 245.5,276.5C 244.909,275.849 244.243,275.182 243.5,274.5C 244.311,273.784 244.978,272.95 245.5,272C 240.551,263.762 239.218,254.929 241.5,245.5C 241.679,242.869 241.013,240.535 239.5,238.5C 239.667,238.167 239.833,237.833 240,237.5C 240.708,238.381 241.542,239.047 242.5,239.5 Z"/></g>
<g><path style="opacity:0.905" fill="#000000" d="M 47.5,253.5 C 66.1696,253.333 84.8363,253.5 103.5,254C 108.906,255.98 110.739,259.814 109,265.5C 107.891,267.815 106.057,269.315 103.5,270C 84.8333,270.667 66.1667,270.667 47.5,270C 41.5318,267.609 39.6985,263.442 42,257.5C 43.4998,255.531 45.3331,254.198 47.5,253.5 Z"/></g>
<g><path style="opacity:0.905" fill="#000000" d="M 407.5,253.5 C 426.17,253.333 444.836,253.5 463.5,254C 469.468,256.391 471.302,260.558 469,266.5C 467.681,268.487 465.848,269.654 463.5,270C 444.833,270.667 426.167,270.667 407.5,270C 401.458,267.163 399.958,262.663 403,256.5C 404.409,255.219 405.909,254.219 407.5,253.5 Z"/></g>
<g><path style="opacity:1" fill="#20231d" d="M 310.5,253.5 C 310.461,255.359 311.294,256.692 313,257.5C 313.333,256.833 313.667,256.167 314,255.5C 321.15,266.883 321.317,278.383 314.5,290C 315.877,293.212 316.877,296.546 317.5,300C 316.554,303.51 315.22,306.843 313.5,310C 316.053,315.451 316.053,320.951 313.5,326.5C 314.98,330.395 315.48,334.395 315,338.5C 311.791,343.749 308.958,349.249 306.5,355C 307.504,356.798 308.004,358.632 308,360.5C 306.13,362.405 304.63,364.572 303.5,367C 301.356,368.146 299.523,369.646 298,371.5C 297.5,371.333 297,371.167 296.5,371C 295.167,366.667 295.167,362.333 296.5,358C 296,357.5 295.5,357 295,356.5C 294.308,351.638 294.475,346.805 295.5,342C 294.56,338.513 293.226,335.18 291.5,332C 291.935,328.937 292.768,328.77 294,331.5C 294.687,328.543 296.187,326.209 298.5,324.5C 295.884,330.806 295.884,337.139 298.5,343.5C 297.278,350.502 297.278,357.502 298.5,364.5C 299.833,363.167 301.167,361.833 302.5,360.5C 304.074,352.406 306.907,344.739 311,337.5C 311.715,333.508 311.215,329.675 309.5,326C 310.733,323.598 311.733,321.098 312.5,318.5C 312.321,315.809 311.321,313.475 309.5,311.5C 312.654,306.214 313.821,300.548 313,294.5C 311.764,293.601 310.93,292.434 310.5,291C 312.529,286.58 314.362,282.08 316,277.5C 318.127,269.506 316.127,262.839 310,257.5C 309.235,255.934 309.402,254.601 310.5,253.5 Z"/></g>
<g><path style="opacity:1" fill="#21231e" d="M 192.5,247.5 C 194.303,251.106 196.136,254.773 198,258.5C 198.204,268.938 199.037,279.271 200.5,289.5C 200.333,292.5 200.167,295.5 200,298.5C 197.714,301.104 195.881,303.937 194.5,307C 194.817,309.328 195.984,311.161 198,312.5C 198.026,316.108 198.859,319.442 200.5,322.5C 199.415,325.773 199.248,329.106 200,332.5C 203.801,338.212 205.468,344.545 205,351.5C 208.035,358.542 210.035,365.875 211,373.5C 212.011,374.337 213.178,374.67 214.5,374.5C 215.331,370.755 215.331,367.088 214.5,363.5C 216.045,362.77 216.878,361.437 217,359.5C 217.216,361.384 217.883,363.051 219,364.5C 218.333,370.5 218.333,376.5 219,382.5C 214.169,382.079 210.502,379.413 208,374.5C 207.685,371.628 207.185,368.795 206.5,366C 204.68,364.193 203.513,362.027 203,359.5C 202.285,349.874 200.285,340.54 197,331.5C 196.231,328.901 196.398,326.401 197.5,324C 195.189,320.939 194.022,317.439 194,313.5C 190.338,307.156 191.338,301.489 197,296.5C 198.22,289.2 197.053,282.367 193.5,276C 194.249,269.308 194.582,262.642 194.5,256C 193.383,253.269 192.717,250.435 192.5,247.5 Z"/></g>
<g><path style="opacity:1" fill="#1c1f0a" d="M 297.5,260.5 C 298.167,260.5 298.833,260.5 299.5,260.5C 299.086,262.808 298.753,265.142 298.5,267.5C 300.292,273.006 301.292,278.672 301.5,284.5C 301.685,288.141 301.019,291.474 299.5,294.5C 299.428,284.119 298.762,273.786 297.5,263.5C 297.5,262.5 297.5,261.5 297.5,260.5 Z"/></g>
<g><path style="opacity:1" fill="#1d2109" d="M 218.5,254.5 C 220.285,254.926 221.285,256.092 221.5,258C 220.841,260.462 220.507,262.962 220.5,265.5C 220.291,266.922 219.791,268.255 219,269.5C 218.667,268.833 218.333,268.167 218,267.5C 217.505,269.473 217.338,271.473 217.5,273.5C 217.293,278.644 217.96,283.644 219.5,288.5C 217.455,295.229 215.455,301.896 213.5,308.5C 213.335,305.482 213.502,302.482 214,299.5C 217.736,293.315 218.236,286.981 215.5,280.5C 217.11,277.234 216.776,274.234 214.5,271.5C 218.335,266.348 219.668,260.682 218.5,254.5 Z"/></g>
<g><path style="opacity:0.908" fill="#000000" d="M 95.5,288.5 C 105.33,286.829 109.163,290.829 107,300.5C 101.59,304.788 96.0897,308.955 90.5,313C 84.4485,317.696 79.2818,316.863 75,310.5C 74.4163,307.743 74.7496,305.077 76,302.5C 82.6811,297.97 89.1811,293.304 95.5,288.5 Z"/></g>
<g><path style="opacity:0.908" fill="#000000" d="M 407.5,288.5 C 410.187,288.336 412.854,288.503 415.5,289C 421.5,293 427.5,297 433.5,301C 438.602,308.63 436.768,313.796 428,316.5C 420.66,313.159 413.827,308.992 407.5,304C 402.227,298.743 402.227,293.577 407.5,288.5 Z"/></g>
<g><path style="opacity:1" fill="#212422" d="M 297.5,263.5 C 298.762,273.786 299.428,284.119 299.5,294.5C 299.821,299.695 299.487,304.695 298.5,309.5C 297.521,312.625 297.187,315.958 297.5,319.5C 296.883,319.611 296.383,319.944 296,320.5C 294.141,316.045 294.475,311.711 297,307.5C 297.352,299.823 297.852,292.156 298.5,284.5C 297.374,278.456 296.041,272.456 294.5,266.5C 295.154,264.885 295.654,263.218 296,261.5C 296.278,262.416 296.778,263.082 297.5,263.5 Z"/></g>
<g><path style="opacity:1" fill="#1d2207" d="M 257.5,294.5 C 258.331,302.303 258.998,310.136 259.5,318C 259.467,320.61 258.8,322.777 257.5,324.5C 257.809,314.355 257.809,304.355 257.5,294.5 Z"/></g>
<g><path style="opacity:1" fill="#1e2304" d="M 298.5,309.5 C 298.966,314.029 298.966,318.363 298.5,322.5C 298.443,321.391 298.11,320.391 297.5,319.5C 297.187,315.958 297.521,312.625 298.5,309.5 Z"/></g>
<g><path style="opacity:1" fill="#232522" d="M 245.5,277.5 C 245.308,282.27 244.475,286.937 243,291.5C 239.631,296.787 238.797,302.454 240.5,308.5C 241.449,318.114 241.782,327.781 241.5,337.5C 240.579,331.948 239.579,326.282 238.5,320.5C 238.604,318.291 238.937,316.124 239.5,314C 237.469,310.407 236.136,306.574 235.5,302.5C 238.909,294.105 241.409,285.438 243,276.5C 243.671,277.252 244.504,277.586 245.5,277.5 Z"/></g>
<g><path style="opacity:1" fill="#1f211e" d="M 216.5,333.5 C 215.176,337.107 214.509,341.107 214.5,345.5C 214.509,349.893 215.176,353.893 216.5,357.5C 215.194,358.467 214.527,359.801 214.5,361.5C 212.452,359.544 211.452,357.044 211.5,354C 212.203,346.85 212.703,339.684 213,332.5C 213.981,330.04 214.815,327.54 215.5,325C 214.167,321 212.833,317 211.5,313C 211.525,311.124 212.191,309.624 213.5,308.5C 215.455,301.896 217.455,295.229 219.5,288.5C 217.96,283.644 217.293,278.644 217.5,273.5C 219.27,272.615 220.27,273.448 220.5,276C 220.089,277.144 219.756,278.311 219.5,279.5C 220.477,282.263 221.143,285.096 221.5,288C 219.853,296.431 217.52,304.597 214.5,312.5C 215.863,313.893 216.696,315.559 217,317.5C 217.781,322.917 217.615,328.25 216.5,333.5 Z"/></g>
<g><path style="opacity:1" fill="#212320" d="M 266.5,238.5 C 266.262,241.406 266.928,243.24 268.5,244C 267.616,248.18 267.116,252.346 267,256.5C 267.667,253.833 268.333,253.833 269,256.5C 271.183,261.995 271.849,267.661 271,273.5C 267.371,280.011 264.037,286.678 261,293.5C 260.408,301.677 260.575,309.844 261.5,318C 261.693,321.243 261.027,324.243 259.5,327C 260.237,331.754 260.237,336.588 259.5,341.5C 257.883,336.084 257.216,330.417 257.5,324.5C 258.8,322.777 259.467,320.61 259.5,318C 258.998,310.136 258.331,302.303 257.5,294.5C 261.542,287.083 265.042,279.417 268,271.5C 268.667,269.167 268.667,266.833 268,264.5C 264.02,255.921 263.52,247.255 266.5,238.5 Z"/></g>
<g><path style="opacity:1" fill="#393d3b" d="M 216.5,333.5 C 216.5,341.5 216.5,349.5 216.5,357.5C 215.176,353.893 214.509,349.893 214.5,345.5C 214.509,341.107 215.176,337.107 216.5,333.5 Z"/></g>
<g><path style="opacity:1" fill="#202318" d="M 257.5,324.5 C 257.216,330.417 257.883,336.084 259.5,341.5C 262.967,348.223 263.467,355.223 261,362.5C 260.667,361.5 260.333,360.5 260,359.5C 260.589,366.486 260.256,373.486 259,380.5C 258.667,377.5 258.333,374.5 258,371.5C 257.667,376.167 257.333,380.833 257,385.5C 255.441,387.217 254.608,389.217 254.5,391.5C 251.138,391.07 248.305,392.07 246,394.5C 245.5,393.333 244.667,392.5 243.5,392C 244.527,391.487 245.527,390.987 246.5,390.5C 249.721,389.118 252.221,386.785 254,383.5C 256.704,372.51 258.538,361.343 259.5,350C 256.402,341.597 255.735,333.097 257.5,324.5 Z"/></g>
<g><path style="opacity:1" fill="#1e2015" d="M 240.5,308.5 C 241.117,308.611 241.617,308.944 242,309.5C 242.074,317.272 242.907,324.939 244.5,332.5C 242.83,338.875 243.164,345.041 245.5,351C 243.672,352.163 242.672,353.83 242.5,356C 242.954,357.939 243.621,359.772 244.5,361.5C 241.107,359.927 239.774,357.26 240.5,353.5C 240.925,349.793 240.592,345.959 239.5,342C 239.519,340.167 240.185,338.667 241.5,337.5C 241.782,327.781 241.449,318.114 240.5,308.5 Z"/></g>
<g><path style="opacity:1" fill="#20221e" d="M 240.5,353.5 C 239.774,357.26 241.107,359.927 244.5,361.5C 245.892,363.273 247.059,365.273 248,367.5C 248.988,374.386 248.488,381.053 246.5,387.5C 245.849,386.909 245.182,386.243 244.5,385.5C 243.702,387.078 243.202,388.744 243,390.5C 244.704,382.993 245.87,375.493 246.5,368C 246.333,367.5 246.167,367 246,366.5C 245.465,368.271 244.631,368.604 243.5,367.5C 242.806,364.912 241.64,362.579 240,360.5C 239.204,357.961 239.371,355.628 240.5,353.5 Z"/></g>
<g><path style="opacity:1" fill="#282b28" d="M 373.5,426.5 C 365.833,426.5 358.167,426.5 350.5,426.5C 350.5,430.5 350.5,434.5 350.5,438.5C 281.167,438.5 211.833,438.5 142.5,438.5C 142.5,434.167 142.5,429.833 142.5,425.5C 219.668,425.167 296.668,425.501 373.5,426.5 Z"/></g>
<g><path style="opacity:1" fill="#383838" d="M 373.5,426.5 C 373.5,440.5 373.5,454.5 373.5,468.5C 363.5,468.5 353.5,468.5 343.5,468.5C 347.755,463.653 350.088,457.987 350.5,451.5C 350.5,447.167 350.5,442.833 350.5,438.5C 350.5,434.5 350.5,430.5 350.5,426.5C 358.167,426.5 365.833,426.5 373.5,426.5 Z"/></g>
<g><path style="opacity:1" fill="#52a5bc" d="M 142.5,438.5 C 211.833,438.5 281.167,438.5 350.5,438.5C 350.5,442.833 350.5,447.167 350.5,451.5C 281.167,451.5 211.833,451.5 142.5,451.5C 142.5,447.167 142.5,442.833 142.5,438.5 Z"/></g>
<g><path style="opacity:1" fill="#282c28" d="M 142.5,451.5 C 211.833,451.5 281.167,451.5 350.5,451.5C 350.088,457.987 347.755,463.653 343.5,468.5C 276.5,468.5 209.5,468.5 142.5,468.5C 142.5,462.833 142.5,457.167 142.5,451.5 Z"/></g>
<g><path style="opacity:1" fill="#080f0f" d="M 142.5,483.5 C 219.5,483.5 296.5,483.5 373.5,483.5C 372.945,490.464 369.278,494.631 362.5,496C 292.833,496.667 223.167,496.667 153.5,496C 146.486,494.817 142.819,490.651 142.5,483.5 Z"/></g>
</svg>
