<?xml version="1.0" encoding="UTF-8"?>
<!DOCTYPE svg PUBLIC "-//W3C//DTD SVG 1.1//EN" "http://www.w3.org/Graphics/SVG/1.1/DTD/svg11.dtd">
<svg xmlns="http://www.w3.org/2000/svg" version="1.1" width="512px" height="512px" style="shape-rendering:geometricPrecision; text-rendering:geometricPrecision; image-rendering:optimizeQuality; fill-rule:evenodd; clip-rule:evenodd" xmlns:xlink="http://www.w3.org/1999/xlink">
<g><path style="opacity:0.974" fill="#010102" d="M 223.5,-0.5 C 226.167,-0.5 228.833,-0.5 231.5,-0.5C 239.105,13.4589 245.272,28.1255 250,43.5C 254.943,59.9398 258.943,76.6065 262,93.5C 271.632,88.8827 281.799,86.0494 292.5,85C 316.786,82.118 340.119,85.4513 362.5,95C 366.699,97.4327 368.032,100.933 366.5,105.5C 364.866,108.237 362.366,109.57 359,109.5C 348.485,105.385 337.652,102.385 326.5,100.5C 305.715,97.2527 285.715,99.7527 266.5,108C 265.328,109.868 265.495,111.702 267,113.5C 290.354,146.094 322.187,162.094 362.5,161.5C 375.903,161.719 388.903,159.553 401.5,155C 403.223,154.477 404.556,153.477 405.5,152C 403.8,148.768 401.966,145.601 400,142.5C 394.333,136.833 388.667,131.167 383,125.5C 381.276,122.264 381.11,118.93 382.5,115.5C 385.594,113.653 388.928,113.153 392.5,114C 403.787,122.623 412.954,133.123 420,145.5C 423.532,157.928 419.032,166.095 406.5,170C 353.646,186.767 307.146,176.267 267,138.5C 266.798,151.859 266.298,165.193 265.5,178.5C 265.833,179.167 266.167,179.833 266.5,180.5C 287.406,171.471 306.906,173.804 325,187.5C 355.786,177.072 378.786,186.072 394,214.5C 398.257,226.714 398.59,239.047 395,251.5C 391.868,258.268 388.368,264.768 384.5,271C 387.851,284.353 386.851,297.353 381.5,310C 396.574,331.196 397.074,352.696 383,374.5C 375.678,382.996 366.845,389.329 356.5,393.5C 366.789,424.485 357.456,447.318 328.5,462C 321.379,464.524 314.046,465.691 306.5,465.5C 302.662,489.667 288.996,505.001 265.5,511.5C 258.833,511.5 252.167,511.5 245.5,511.5C 222,504.997 208.334,489.664 204.5,465.5C 174.333,464.993 156.333,449.993 150.5,420.5C 150.244,415.428 152.578,412.428 157.5,411.5C 160.508,411.877 163.008,413.211 165,415.5C 166.824,432.809 175.991,443.809 192.5,448.5C 212.745,452.291 226.911,444.625 235,425.5C 238.007,414.525 236.673,404.192 231,394.5C 230.5,394 230,393.5 229.5,393C 222.476,392.675 215.476,392.175 208.5,391.5C 203.87,389.79 199.37,387.79 195,385.5C 184.836,390.916 174.002,393.249 162.5,392.5C 140.354,389.174 125.854,376.841 119,355.5C 114.917,338.074 118.417,322.407 129.5,308.5C 124.131,296.033 123.131,283.199 126.5,270C 111.361,250.061 109.527,228.895 121,206.5C 137.765,184.053 159.432,177.719 186,187.5C 206.195,172.402 227.195,171.068 249,183.5C 250.526,166.196 250.86,148.862 250,131.5C 210.488,173.256 162.988,185.756 107.5,169C 99.8302,166.763 93.9969,162.263 90,155.5C 89.3333,152.167 89.3333,148.833 90,145.5C 95.5512,133.938 103.385,124.105 113.5,116C 152.192,83.5287 195.692,75.0287 244,90.5C 239.659,62.8048 231.659,36.1381 220,10.5C 218.663,5.87205 219.83,2.20539 223.5,-0.5 Z"/></g>
<g><path style="opacity:1" fill="#99e49b" d="M 201.5,98.5 C 210.841,109.572 212.008,121.572 205,134.5C 194.069,144.709 181.903,153.043 168.5,159.5C 147.034,162.719 126.367,160.052 106.5,151.5C 105.432,149.813 105.599,148.146 107,146.5C 130.659,115.253 162.159,99.2531 201.5,98.5 Z"/></g>
<g><path style="opacity:1" fill="#6dd4a0" d="M 201.5,98.5 C 216.888,98.4217 231.555,101.588 245.5,108C 246.535,109.507 246.368,111.007 245,112.5C 225.808,138.191 200.308,153.858 168.5,159.5C 181.903,153.043 194.069,144.709 205,134.5C 212.008,121.572 210.841,109.572 201.5,98.5 Z"/></g>
<g><path style="opacity:1" fill="#99e49b" d="M 326.5,100.5 C 341.154,107.642 354.321,116.975 366,128.5C 371.54,140.318 370.373,151.318 362.5,161.5C 322.187,162.094 290.354,146.094 267,113.5C 265.495,111.702 265.328,109.868 266.5,108C 285.715,99.7527 305.715,97.2527 326.5,100.5 Z"/></g>
<g><path style="opacity:1" fill="#6ed4a1" d="M 326.5,100.5 C 337.652,102.385 348.485,105.385 359,109.5C 362.366,109.57 364.866,108.237 366.5,105.5C 372.099,108.438 377.433,111.771 382.5,115.5C 381.11,118.93 381.276,122.264 383,125.5C 388.667,131.167 394.333,136.833 400,142.5C 401.966,145.601 403.8,148.768 405.5,152C 404.556,153.477 403.223,154.477 401.5,155C 388.903,159.553 375.903,161.719 362.5,161.5C 370.373,151.318 371.54,140.318 366,128.5C 354.321,116.975 341.154,107.642 326.5,100.5 Z"/></g>
<g><path style="opacity:1" fill="#6153af" d="M 216.5,190.5 C 235.111,189.891 247.945,198.225 255,215.5C 258.898,238.216 250.065,253.383 228.5,261C 224.514,261.499 220.514,261.666 216.5,261.5C 233.209,246.666 237.709,228.666 230,207.5C 226.428,201.095 221.928,195.428 216.5,190.5 Z"/></g>
<g><path style="opacity:1" fill="#6153ae" d="M 286.5,190.5 C 309.764,190.761 323.097,202.428 326.5,225.5C 325.159,243.671 315.826,255.504 298.5,261C 294.514,261.499 290.514,261.666 286.5,261.5C 306.232,242.542 308.732,221.542 294,198.5C 291.295,195.964 288.795,193.297 286.5,190.5 Z"/></g>
<g><path style="opacity:1" fill="#6c5fb3" d="M 216.5,190.5 C 221.928,195.428 226.428,201.095 230,207.5C 237.709,228.666 233.209,246.666 216.5,261.5C 213.833,261.167 211.167,260.833 208.5,260.5C 210.826,254.686 212.659,248.686 214,242.5C 216.615,225.071 211.781,210.071 199.5,197.5C 204.426,193.412 210.093,191.079 216.5,190.5 Z"/></g>
<g><path style="opacity:1" fill="#6d60b4" d="M 286.5,190.5 C 288.795,193.297 291.295,195.964 294,198.5C 308.732,221.542 306.232,242.542 286.5,261.5C 277.696,260.768 270.696,256.935 265.5,250C 270.267,239.984 272.1,229.484 271,218.5C 269.27,212.416 267.604,206.416 266,200.5C 271.578,194.628 278.411,191.295 286.5,190.5 Z"/></g>
<g><path style="opacity:1" fill="#6253af" d="M 160.5,198.5 C 183.749,198.589 196.749,210.089 199.5,233C 199.286,251.552 190.286,263.552 172.5,269C 168.179,269.499 163.846,269.666 159.5,269.5C 177.01,254.453 181.51,236.119 173,214.5C 169.518,208.484 165.351,203.151 160.5,198.5 Z"/></g>
<g><path style="opacity:1" fill="#6153ae" d="M 343.5,198.5 C 359.557,197.776 371.39,204.443 379,218.5C 386.933,242.709 379.1,259.543 355.5,269C 351.179,269.499 346.846,269.666 342.5,269.5C 359.256,254.676 363.756,236.676 356,215.5C 352.303,209.419 348.137,203.752 343.5,198.5 Z"/></g>
<g><path style="opacity:1" fill="#6d60b4" d="M 160.5,198.5 C 165.351,203.151 169.518,208.484 173,214.5C 181.51,236.119 177.01,254.453 159.5,269.5C 140.108,265.606 129.774,253.773 128.5,234C 129,220.494 135,210.161 146.5,203C 150.892,200.591 155.558,199.091 160.5,198.5 Z"/></g>
<g><path style="opacity:1" fill="#6c5fb2" d="M 343.5,198.5 C 348.137,203.752 352.303,209.419 356,215.5C 363.756,236.676 359.256,254.676 342.5,269.5C 336.04,269.104 330.373,266.77 325.5,262.5C 338.373,249.023 343.207,233.023 340,214.5C 338.7,209.905 336.867,205.572 334.5,201.5C 337.038,199.441 340.038,198.441 343.5,198.5 Z"/></g>
<g><path style="opacity:1" fill="#aaa4d3" d="M 265.5,270.5 C 270.047,286.101 267.547,300.434 258,313.5C 255.584,316.423 252.75,318.757 249.5,320.5C 237.18,318.658 228.513,312.158 223.5,301C 225.254,292.937 225.921,284.77 225.5,276.5C 236.705,274.896 246.705,270.563 255.5,263.5C 258.9,265.856 262.233,268.189 265.5,270.5 Z"/></g>
<g><path style="opacity:1" fill="#958cc8" d="M 265.5,270.5 C 273.018,274.381 281.018,276.714 289.5,277.5C 292.071,301.19 281.738,315.69 258.5,321C 255.304,321.805 252.304,321.638 249.5,320.5C 252.75,318.757 255.584,316.423 258,313.5C 267.547,300.434 270.047,286.101 265.5,270.5 Z"/></g>
<g><path style="opacity:1" fill="#948bc7" d="M 170.5,320.5 C 184.211,310.003 189.878,296.337 187.5,279.5C 191.276,277.099 194.943,274.433 198.5,271.5C 202.184,273.839 206.184,275.172 210.5,275.5C 213.058,305.252 199.725,320.252 170.5,320.5 Z"/></g>
<g><path style="opacity:1" fill="#aaa4d4" d="M 341.5,284.5 C 343.607,285.468 345.941,285.802 348.5,285.5C 348.823,299.351 343.823,310.851 333.5,320C 331.975,321.009 330.308,321.509 328.5,321.5C 315.957,319.117 307.624,311.951 303.5,300C 305.421,292.037 305.755,284.037 304.5,276C 306.832,274.043 309.499,272.543 312.5,271.5C 320.82,278.826 330.486,283.16 341.5,284.5 Z"/></g>
<g><path style="opacity:1" fill="#aaa4d3" d="M 187.5,279.5 C 189.878,296.337 184.211,310.003 170.5,320.5C 155.668,318.175 145.835,309.842 141,295.5C 139.809,290.233 139.309,284.899 139.5,279.5C 155.525,286.137 171.525,286.137 187.5,279.5 Z"/></g>
<g><path style="opacity:1" fill="#948bc7" d="M 328.5,321.5 C 330.308,321.509 331.975,321.009 333.5,320C 343.823,310.851 348.823,299.351 348.5,285.5C 345.941,285.802 343.607,285.468 341.5,284.5C 346.179,284.666 350.845,284.499 355.5,284C 360.541,282.424 365.541,281.091 370.5,280C 372.842,299.642 364.842,313.309 346.5,321C 340.371,322.52 334.371,322.687 328.5,321.5 Z"/></g>
<g><path style="opacity:1" fill="#6b5eb1" d="M 233.5,331.5 C 236.49,350.211 230.824,365.544 216.5,377.5C 213.15,377.494 210.15,376.494 207.5,374.5C 219.749,357.134 221.749,338.634 213.5,319C 214.025,318.308 214.692,317.808 215.5,317.5C 220.636,323.306 226.636,327.973 233.5,331.5 Z"/></g>
<g><path style="opacity:1" fill="#6c5fb3" d="M 300.5,323.5 C 308.758,344.316 304.425,362.483 287.5,378C 290.482,378.498 293.482,378.665 296.5,378.5C 284.753,380.53 274.586,377.196 266,368.5C 268.031,362.383 269.698,356.05 271,349.5C 271.499,343.843 271.666,338.176 271.5,332.5C 280.6,329.778 288.267,324.778 294.5,317.5C 296.854,319.188 298.854,321.188 300.5,323.5 Z"/></g>
<g><path style="opacity:1" fill="#6c5fb3" d="M 179.5,335.5 C 181.888,341.615 182.054,347.948 180,354.5C 176.6,363.392 171.433,371.059 164.5,377.5C 146.603,374.77 136.103,364.437 133,346.5C 131.569,337.226 133.735,328.892 139.5,321.5C 150.639,332.325 163.972,336.991 179.5,335.5 Z"/></g>
<g><path style="opacity:1" fill="#6152ae" d="M 346.5,378.5 C 343.482,378.665 340.482,378.498 337.5,378C 351.857,366.759 357.19,352.259 353.5,334.5C 359.248,331.782 364.581,328.282 369.5,324C 370.167,323.333 370.833,323.333 371.5,324C 381.58,342.026 378.913,358.026 363.5,372C 358.38,375.65 352.713,377.817 346.5,378.5 Z"/></g>
<g><path style="opacity:1" fill="#6253af" d="M 300.5,323.5 C 307.668,329.984 316.001,334.317 325.5,336.5C 328.219,359.064 318.552,373.064 296.5,378.5C 293.482,378.665 290.482,378.498 287.5,378C 304.425,362.483 308.758,344.316 300.5,323.5 Z"/></g>
<g><path style="opacity:1" fill="#6152ad" d="M 164.5,377.5 C 171.433,371.059 176.6,363.392 180,354.5C 182.054,347.948 181.888,341.615 179.5,335.5C 187.218,334.752 194.552,332.918 201.5,330C 206.896,346.258 202.896,359.925 189.5,371C 182.013,376.327 173.68,378.494 164.5,377.5 Z"/></g>
<g><path style="opacity:1" fill="#6152ae" d="M 233.5,331.5 C 240.741,334.96 248.408,336.293 256.5,335.5C 258.17,356.337 249.17,370.17 229.5,377C 225.179,377.499 220.846,377.666 216.5,377.5C 230.824,365.544 236.49,350.211 233.5,331.5 Z"/></g>
<g><path style="opacity:1" fill="#6a5db0" d="M 353.5,334.5 C 357.19,352.259 351.857,366.759 337.5,378C 340.482,378.498 343.482,378.665 346.5,378.5C 340.72,380.02 335.053,379.353 329.5,376.5C 339.272,364.942 343.272,351.608 341.5,336.5C 345.557,336.152 349.557,335.486 353.5,334.5 Z"/></g>
<g><path style="opacity:1" fill="#958cc8" d="M 250.5,449.5 C 269.166,432.699 272.666,413.033 261,390.5C 258.665,387.335 256.165,384.335 253.5,381.5C 253.811,380.522 254.478,379.855 255.5,379.5C 263.633,387.332 273.299,392.332 284.5,394.5C 294.336,412.109 292.003,427.942 277.5,442C 269.471,448.016 260.471,450.516 250.5,449.5 Z"/></g>
<g><path style="opacity:1" fill="#a9a3d3" d="M 253.5,381.5 C 256.165,384.335 258.665,387.335 261,390.5C 272.666,413.033 269.166,432.699 250.5,449.5C 246.854,449.423 243.521,448.423 240.5,446.5C 253.56,427.637 254.893,407.97 244.5,387.5C 247.518,385.474 250.518,383.474 253.5,381.5 Z"/></g>
<g><path style="opacity:0.997" fill="#aba5d4" d="M 208.5,391.5 C 219.13,412.785 215.796,431.618 198.5,448C 196.527,448.495 194.527,448.662 192.5,448.5C 175.991,443.809 166.824,432.809 165,415.5C 163.008,413.211 160.508,411.877 157.5,411.5C 158.15,404.887 159.816,398.553 162.5,392.5C 174.002,393.249 184.836,390.916 195,385.5C 199.37,387.79 203.87,389.79 208.5,391.5 Z"/></g>
<g><path style="opacity:1" fill="#958cc8" d="M 305.5,449.5 C 319.596,437.386 325.096,422.053 322,403.5C 320.014,398.195 317.514,393.195 314.5,388.5C 315.15,388.196 315.817,387.863 316.5,387.5C 323.642,391.536 331.309,393.869 339.5,394.5C 348.901,412.008 346.567,427.842 332.5,442C 324.441,447.853 315.441,450.353 305.5,449.5 Z"/></g>
<g><path style="opacity:1" fill="#a9a3d3" d="M 314.5,388.5 C 317.514,393.195 320.014,398.195 322,403.5C 325.096,422.053 319.596,437.386 305.5,449.5C 301.187,449.731 297.521,448.398 294.5,445.5C 306.068,429.085 308.402,411.418 301.5,392.5C 306.093,391.936 310.426,390.603 314.5,388.5 Z"/></g>
<g><path style="opacity:1" fill="#958cc9" d="M 208.5,391.5 C 215.476,392.175 222.476,392.675 229.5,393C 230,393.5 230.5,394 231,394.5C 236.673,404.192 238.007,414.525 235,425.5C 226.911,444.625 212.745,452.291 192.5,448.5C 194.527,448.662 196.527,448.495 198.5,448C 215.796,431.618 219.13,412.785 208.5,391.5 Z"/></g>
<g><path style="opacity:1" fill="#6152ae" d="M 248.5,495.5 C 253.944,493.902 258.11,490.569 261,485.5C 265.537,478.433 268.37,470.766 269.5,462.5C 289.676,453.685 295.176,459.352 286,479.5C 276.682,492.753 264.182,498.086 248.5,495.5 Z"/></g>
<g><path style="opacity:1" fill="#6c5fb3" d="M 269.5,462.5 C 268.37,470.766 265.537,478.433 261,485.5C 258.11,490.569 253.944,493.902 248.5,495.5C 229.971,490.992 220.971,479.325 221.5,460.5C 223.607,459.363 225.773,458.363 228,457.5C 241.148,464.716 254.982,466.382 269.5,462.5 Z"/></g>
</svg>
