<?xml version="1.0" encoding="UTF-8"?>
<!DOCTYPE svg PUBLIC "-//W3C//DTD SVG 1.1//EN" "http://www.w3.org/Graphics/SVG/1.1/DTD/svg11.dtd">
<svg xmlns="http://www.w3.org/2000/svg" version="1.1" width="512px" height="512px" style="shape-rendering:geometricPrecision; text-rendering:geometricPrecision; image-rendering:optimizeQuality; fill-rule:evenodd; clip-rule:evenodd" xmlns:xlink="http://www.w3.org/1999/xlink">
<g><path style="opacity:0.968" fill="#030202" d="M 327.5,123.5 C 326.961,126.042 325.628,128.208 323.5,130C 317.833,130.333 312.167,130.667 306.5,131C 317.53,142.549 325.363,156.049 330,171.5C 340.342,209.856 338.342,247.523 324,284.5C 319.729,294.099 313.895,302.599 306.5,310C 355.002,310.832 403.335,310.665 451.5,309.5C 456.6,308.745 461.266,306.912 465.5,304C 480,290.173 489.167,273.34 493,253.5C 499.248,224.237 497.248,195.571 487,167.5C 481.855,153.357 473.022,142.19 460.5,134C 454.364,131.822 448.031,130.988 441.5,131.5C 410.832,131.667 380.165,131.5 349.5,131C 346.183,129.52 344.183,127.02 343.5,123.5C 343.327,119.83 344.993,117.33 348.5,116C 383.833,115.333 419.167,115.333 454.5,116C 472.584,119.745 485.751,129.912 494,146.5C 502.99,164.297 508.823,182.964 511.5,202.5C 511.5,214.5 511.5,226.5 511.5,238.5C 508.833,260.141 501.999,280.474 491,299.5C 483.7,311.803 473.2,319.969 459.5,324C 395.203,325.649 330.87,325.982 266.5,325C 253.119,322.301 242.286,315.468 234,304.5C 215.358,275.267 207.358,243.267 210,208.5C 211.626,182.289 219.626,158.289 234,136.5C 242.286,125.532 253.119,118.699 266.5,116C 285.167,115.333 303.833,115.333 322.5,116C 325.789,117.41 327.456,119.91 327.5,123.5 Z"/></g>
<g><path style="opacity:1" fill="#f37b7b" d="M 327.5,123.5 C 332.833,123.5 338.167,123.5 343.5,123.5C 344.183,127.02 346.183,129.52 349.5,131C 380.165,131.5 410.832,131.667 441.5,131.5C 461.014,152.175 471.514,176.842 473,205.5C 476.094,235.451 470.761,263.784 457,290.5C 452.927,297.908 447.427,304.075 440.5,309C 444.152,309.499 447.818,309.665 451.5,309.5C 403.335,310.665 355.002,310.832 306.5,310C 313.895,302.599 319.729,294.099 324,284.5C 338.342,247.523 340.342,209.856 330,171.5C 325.363,156.049 317.53,142.549 306.5,131C 312.167,130.667 317.833,130.333 323.5,130C 325.628,128.208 326.961,126.042 327.5,123.5 Z"/></g>
<g><path style="opacity:1" fill="#f8b0b0" d="M 265.5,131.5 C 279.14,129.574 290.307,133.907 299,144.5C 311.311,161.135 318.644,179.802 321,200.5C 323.796,226.679 320.462,252.013 311,276.5C 306.729,286.099 300.895,294.599 293.5,302C 276.735,313.552 261.568,311.718 248,296.5C 234.941,278.33 227.608,257.996 226,235.5C 222.284,206.828 227.284,179.828 241,154.5C 246.794,144.202 254.961,136.536 265.5,131.5 Z"/></g>
<g><path style="opacity:1" fill="#ed6060" d="M 441.5,131.5 C 448.031,130.988 454.364,131.822 460.5,134C 473.022,142.19 481.855,153.357 487,167.5C 497.248,195.571 499.248,224.237 493,253.5C 489.167,273.34 480,290.173 465.5,304C 461.266,306.912 456.6,308.745 451.5,309.5C 447.818,309.665 444.152,309.499 440.5,309C 447.427,304.075 452.927,297.908 457,290.5C 470.761,263.784 476.094,235.451 473,205.5C 471.514,176.842 461.014,152.175 441.5,131.5 Z"/></g>
<g><path style="opacity:1" fill="#070404" d="M 278.5,152.5 C 282.192,151.971 285.358,152.971 288,155.5C 290.106,160.15 291.606,164.984 292.5,170C 291.729,176.565 288.062,178.898 281.5,177C 276.59,170.676 274.423,163.509 275,155.5C 276.145,154.364 277.312,153.364 278.5,152.5 Z"/></g>
<g><path style="opacity:0.979" fill="#030201" d="M -0.5,284.5 C -0.5,266.833 -0.5,249.167 -0.5,231.5C 3.75661,224.417 9.75661,219.25 17.5,216C 21.5305,215.182 24.8639,216.349 27.5,219.5C 28.6283,226.742 25.6283,231.242 18.5,233C 12.9897,237.522 13.6564,241.189 20.5,244C 38.5784,252.269 57.5784,256.936 77.5,258C 103.644,259.478 129.644,258.312 155.5,254.5C 167.86,252.214 179.527,248.047 190.5,242C 194.5,239.333 194.5,236.667 190.5,234C 179.819,228.161 168.486,223.994 156.5,221.5C 121.354,216.291 86.187,216.291 51,221.5C 46.6078,221.565 43.7745,219.565 42.5,215.5C 42.5535,209.612 45.5535,206.445 51.5,206C 89.9582,199.582 128.292,200.249 166.5,208C 178.294,210.4 189.294,214.733 199.5,221C 203.52,224.011 206.353,227.844 208,232.5C 208.667,249.833 208.667,267.167 208,284.5C 206.414,287.919 204.248,290.919 201.5,293.5C 210.281,296.636 217.781,301.636 224,308.5C 225.562,310.957 226.562,313.624 227,316.5C 227.667,331.5 227.667,346.5 227,361.5C 225.142,368.698 220.975,374.198 214.5,378C 200.432,385.601 185.432,390.268 169.5,392C 134.054,397.108 98.7207,396.441 63.5,390C 50.3102,387.494 37.9769,382.827 26.5,376C 22.4802,372.989 19.6468,369.156 18,364.5C 17.3333,347.5 17.3333,330.5 18,313.5C 19.2899,309.76 21.4565,306.593 24.5,304C 19.5899,301.143 14.5899,298.476 9.5,296C 5.55494,292.565 2.22161,288.732 -0.5,284.5 Z"/></g>
<g><path style="opacity:1" fill="#060404" d="M 248.5,207.5 C 256.395,207.86 263.229,210.86 269,216.5C 270.743,222.757 268.41,226.424 262,227.5C 256.242,225.287 250.909,222.287 246,218.5C 244.812,214.259 245.645,210.592 248.5,207.5 Z"/></g>
<g><path style="opacity:0.999" fill="#f6afaf" d="M 42.5,215.5 C 43.7745,219.565 46.6078,221.565 51,221.5C 86.187,216.291 121.354,216.291 156.5,221.5C 159.923,224.822 163.756,227.822 168,230.5C 170.886,234.598 171.219,238.931 169,243.5C 164.808,247.806 160.308,251.473 155.5,254.5C 129.644,258.312 103.644,259.478 77.5,258C 57.5784,256.936 38.5784,252.269 20.5,244C 13.6564,241.189 12.9897,237.522 18.5,233C 25.6283,231.242 28.6283,226.742 27.5,219.5C 32.4993,218.167 37.4993,216.834 42.5,215.5 Z"/></g>
<g><path style="opacity:1" fill="#ef7a7a" d="M 156.5,221.5 C 168.486,223.994 179.819,228.161 190.5,234C 194.5,236.667 194.5,239.333 190.5,242C 179.527,248.047 167.86,252.214 155.5,254.5C 160.308,251.473 164.808,247.806 169,243.5C 171.219,238.931 170.886,234.598 168,230.5C 163.756,227.822 159.923,224.822 156.5,221.5 Z"/></g>
<g><path style="opacity:1" fill="#070505" d="M 62.5,226.5 C 68.9251,226.13 75.2584,226.63 81.5,228C 84.886,231.373 85.386,235.206 83,239.5C 82.2496,240.126 81.4162,240.626 80.5,241C 74.3877,241.909 68.3877,241.576 62.5,240C 57.2086,235.423 57.2086,230.923 62.5,226.5 Z"/></g>
<g><path style="opacity:1" fill="#080505" d="M 125.5,230.5 C 136.192,229.094 139.525,233.261 135.5,243C 129.81,245.924 123.81,247.257 117.5,247C 112.687,242.959 112.354,238.625 116.5,234C 119.571,232.704 122.571,231.538 125.5,230.5 Z"/></g>
<g><path style="opacity:1" fill="#060404" d="M 282.5,250.5 C 290.201,250.362 293.367,254.029 292,261.5C 288.869,265.633 285.369,269.466 281.5,273C 273.209,274.955 269.709,271.788 271,263.5C 274.67,258.998 278.503,254.665 282.5,250.5 Z"/></g>
<g><path style="opacity:1" fill="#f17979" d="M 172.5,265.5 C 171.949,271.196 171.116,276.863 170,282.5C 165.838,287.832 160.672,291.832 154.5,294.5C 111.638,302.809 69.3046,300.643 27.5,288C 22.9188,286.129 18.7522,283.629 15,280.5C 14.3333,272.833 14.3333,265.167 15,257.5C 22.6891,261.842 30.8558,265.009 39.5,267C 83.9656,276.163 128.299,275.663 172.5,265.5 Z"/></g>
<g><path style="opacity:1" fill="#eb5f5f" d="M 154.5,294.5 C 160.672,291.832 165.838,287.832 170,282.5C 171.116,276.863 171.949,271.196 172.5,265.5C 179.681,263.718 186.515,261.051 193,257.5C 193.667,264.833 193.667,272.167 193,279.5C 189.09,283.208 184.59,286.042 179.5,288C 171.347,290.955 163.014,293.121 154.5,294.5 Z"/></g>
<g><path style="opacity:1" fill="#f7b0b0" d="M 175.5,305.5 C 184.235,307.392 188.735,312.725 189,321.5C 186.872,324.63 184.372,327.463 181.5,330C 176.261,332.787 170.928,335.287 165.5,337.5C 133.045,340.794 100.711,339.961 68.5,335C 56.3064,332.826 44.9731,328.492 34.5,322C 31.7907,318.695 32.4573,316.028 36.5,314C 40.0837,311.789 43.9171,310.289 48,309.5C 90.7886,316.996 133.289,315.662 175.5,305.5 Z"/></g>
<g><path style="opacity:1" fill="#f27a7a" d="M 175.5,305.5 C 185.569,304.776 195.235,306.942 204.5,312C 213.195,315.998 213.528,320.332 205.5,325C 199.71,327.646 193.876,330.146 188,332.5C 185.667,336.99 186.167,340.99 189.5,344.5C 189.91,350.621 189.41,356.621 188,362.5C 186.954,364.09 185.787,365.59 184.5,367C 179.73,370.381 174.73,373.214 169.5,375.5C 168.737,376.268 167.737,376.768 166.5,377C 133.043,380.935 99.7101,380.268 66.5,375C 57.1282,373.075 48.1282,370.075 39.5,366C 37.04,364.542 34.8734,362.709 33,360.5C 32.3333,353.167 32.3333,345.833 33,338.5C 45.4229,344.9 58.5895,349.066 72.5,351C 103.527,355.575 134.527,355.575 165.5,351C 169.124,348.839 170.291,345.672 169,341.5C 167.624,340.295 166.458,338.962 165.5,337.5C 170.928,335.287 176.261,332.787 181.5,330C 184.372,327.463 186.872,324.63 189,321.5C 188.735,312.725 184.235,307.392 175.5,305.5 Z"/></g>
<g><path style="opacity:1" fill="#eb5f5f" d="M 169.5,375.5 C 174.73,373.214 179.73,370.381 184.5,367C 185.787,365.59 186.954,364.09 188,362.5C 189.41,356.621 189.91,350.621 189.5,344.5C 197.175,344.894 204.342,342.894 211,338.5C 211.667,345.833 211.667,353.167 211,360.5C 204.805,366.02 197.639,369.853 189.5,372C 182.963,373.923 176.296,375.09 169.5,375.5 Z"/></g>
</svg>
