<?xml version="1.0" encoding="UTF-8"?>
<!DOCTYPE svg PUBLIC "-//W3C//DTD SVG 1.1//EN" "http://www.w3.org/Graphics/SVG/1.1/DTD/svg11.dtd">
<svg xmlns="http://www.w3.org/2000/svg" version="1.1" width="512px" height="512px" style="shape-rendering:geometricPrecision; text-rendering:geometricPrecision; image-rendering:optimizeQuality; fill-rule:evenodd; clip-rule:evenodd" xmlns:xlink="http://www.w3.org/1999/xlink">
<g><path style="opacity:0.99" fill="#1e120b" d="M 153.5,15.5 C 172.17,15.3334 190.836,15.5001 209.5,16C 216.228,18.9432 219.894,24.1099 220.5,31.5C 219.146,39.4378 217.48,47.2711 215.5,55C 222.167,55.3333 228.833,55.6667 235.5,56C 244.894,61.0452 248.228,68.8785 245.5,79.5C 247.325,99.3317 238.325,107.332 218.5,103.5C 219.568,119.869 224.735,134.869 234,148.5C 238,153.833 242,159.167 246,164.5C 257,174.5 268,184.5 279,194.5C 292.188,212.759 296.855,233.093 293,255.5C 288.667,322.5 284.333,389.5 280,456.5C 278.599,476.813 268.099,489.647 248.5,495C 203.833,495.667 159.167,495.667 114.5,495C 94.9013,489.647 84.4013,476.813 83,456.5C 78.6667,389.5 74.3333,322.5 70,255.5C 66.8234,235.385 70.3234,216.552 80.5,199C 63.7488,171.281 60.9155,142.114 72,111.5C 81.9159,90.0842 97.4159,74.0842 118.5,63.5C 120.745,60.0879 123.745,57.5879 127.5,56C 134.167,55.6667 140.833,55.3333 147.5,55C 145.52,47.2711 143.854,39.4378 142.5,31.5C 143.225,24.0216 146.892,18.6883 153.5,15.5 Z M 142.5,106.5 C 143.586,106.62 144.253,107.287 144.5,108.5C 141.307,129.553 132.307,147.553 117.5,162.5C 110.078,136.684 118.412,118.018 142.5,106.5 Z"/></g>
<g><path style="opacity:1" fill="#8a4504" d="M 159.5,31.5 C 174.167,31.5 188.833,31.5 203.5,31.5C 202.038,39.4788 200.704,47.4788 199.5,55.5C 187.5,55.5 175.5,55.5 163.5,55.5C 162.296,47.4788 160.962,39.4788 159.5,31.5 Z"/></g>
<g><path style="opacity:1" fill="#e7e4db" d="M 133.5,71.5 C 165.5,71.5 197.5,71.5 229.5,71.5C 229.5,76.8333 229.5,82.1667 229.5,87.5C 197.5,87.5 165.5,87.5 133.5,87.5C 133.5,82.1667 133.5,76.8333 133.5,71.5 Z"/></g>
<g><path style="opacity:1" fill="#b7ada3" d="M 115.5,83.5 C 117.239,86.7478 118.406,90.4144 119,94.5C 120.046,96.0905 121.213,97.5905 122.5,99C 97.0959,119.842 91.0959,145.342 104.5,175.5C 101.229,179.601 97.3958,183.268 93,186.5C 82.4217,169.579 79.0883,151.246 83,131.5C 88.1372,111.534 98.9705,95.534 115.5,83.5 Z"/></g>
<g><path style="opacity:1" fill="#f8b33f" d="M 161.5,103.5 C 174.833,103.5 188.167,103.5 201.5,103.5C 206.6,143.209 225.6,174.376 258.5,197C 273.071,210.656 279.404,227.489 277.5,247.5C 213.5,247.5 149.5,247.5 85.5,247.5C 83.4712,221.722 93.4712,202.222 115.5,189C 141.985,166.532 157.318,138.032 161.5,103.5 Z"/></g>
<g><path style="opacity:1" fill="#20140c" d="M 195.5,159.5 C 199.426,159.047 202.592,160.38 205,163.5C 212.487,175.662 221.487,186.662 232,196.5C 233.316,205.901 229.482,209.401 220.5,207C 209.159,196.334 199.325,184.501 191,171.5C 189.309,166.131 190.809,162.131 195.5,159.5 Z"/></g>
<g><path style="opacity:1" fill="#24160d" d="M 242.5,215.5 C 253.167,216.003 255.833,220.836 250.5,230C 241.42,233.215 237.253,230.048 238,220.5C 239.025,218.313 240.525,216.646 242.5,215.5 Z"/></g>
<g><path style="opacity:0.989" fill="#1e120b" d="M 338.5,243.5 C 368.502,243.333 398.502,243.5 428.5,244C 430.333,244.5 431.5,245.667 432,247.5C 438.372,273.153 443.872,298.987 448.5,325C 446.631,349.402 434.298,366.069 411.5,375C 405.038,377.449 398.371,378.949 391.5,379.5C 391.5,404.833 391.5,430.167 391.5,455.5C 413.818,457.128 424.318,469.128 423,491.5C 422.5,493.333 421.333,494.5 419.5,495C 395.5,495.667 371.5,495.667 347.5,495C 345.667,494.5 344.5,493.333 344,491.5C 342.682,469.128 353.182,457.128 375.5,455.5C 375.5,430.167 375.5,404.833 375.5,379.5C 357.636,377.651 342.469,370.317 330,357.5C 320.049,344.361 316.716,329.695 320,313.5C 324.828,290.69 330.161,268.023 336,245.5C 336.995,244.934 337.828,244.267 338.5,243.5 Z"/></g>
<g><path style="opacity:1" fill="#f3f1ee" d="M 348.5,259.5 C 371.833,259.5 395.167,259.5 418.5,259.5C 421.163,272.154 423.83,284.821 426.5,297.5C 426.43,298.772 426.097,299.938 425.5,301C 417.401,304.615 409.067,305.282 400.5,303C 392.68,299.837 385.347,295.837 378.5,291C 366.647,286.946 354.647,286.446 342.5,289.5C 344.372,279.474 346.372,269.474 348.5,259.5 Z"/></g>
<g><path style="opacity:1" fill="#e6e2da" d="M 87.5,263.5 C 150.167,263.5 212.833,263.5 275.5,263.5C 272.373,314.16 269.373,364.826 266.5,415.5C 209.833,415.5 153.167,415.5 96.5,415.5C 93.6268,364.829 90.6268,314.163 87.5,263.5 Z"/></g>
<g><path style="opacity:1" fill="#1f130d" d="M 157.5,279.5 C 176.772,279.435 188.772,288.768 193.5,307.5C 212.186,300.007 226.686,305.007 237,322.5C 245.384,341.886 244.05,360.552 233,378.5C 218.024,394.484 202.191,395.484 185.5,381.5C 166.936,396.527 150.436,394.527 136,375.5C 126.824,358.149 126.157,340.482 134,322.5C 143.943,306.08 157.776,300.246 175.5,305C 171.918,297.538 165.918,294.205 157.5,295C 152.208,289.835 152.208,284.668 157.5,279.5 Z"/></g>
<g><path style="opacity:1" fill="#b1173c" d="M 352.5,302.5 C 358.678,302.107 364.678,302.94 370.5,305C 377.833,309 385.167,313 392.5,317C 405.542,320.371 418.542,320.204 431.5,316.5C 433.614,331.333 428.947,343.5 417.5,353C 394.786,366.972 372.12,366.972 349.5,353C 334.492,340.164 331.492,325.164 340.5,308C 344.481,305.838 348.481,304.005 352.5,302.5 Z"/></g>
<g><path style="opacity:1" fill="#b1173c" d="M 158.5,319.5 C 163.618,318.889 168.285,320.056 172.5,323C 175.5,326.667 178.5,330.333 181.5,334C 184.167,334.667 186.833,334.667 189.5,334C 192.5,330.333 195.5,326.667 198.5,323C 208.06,317.515 215.893,319.348 222,328.5C 223.608,331.382 224.941,334.382 226,337.5C 228.175,349.038 226.175,359.705 220,369.5C 213.519,376.163 206.353,376.996 198.5,372C 195.344,368.688 192.677,365.021 190.5,361C 182.943,358.029 178.11,360.529 176,368.5C 166.121,378.387 157.121,377.721 149,366.5C 144.704,357.3 143.371,347.633 145,337.5C 147.357,329.738 151.857,323.738 158.5,319.5 Z"/></g>
<g><path style="opacity:1" fill="#f9b33f" d="M 98.5,431.5 C 153.833,431.5 209.167,431.5 264.5,431.5C 264.698,441.204 264.198,450.87 263,460.5C 260.167,470 254,476.167 244.5,479C 202.167,479.667 159.833,479.667 117.5,479C 108.573,475.74 102.739,469.573 100,460.5C 98.8018,450.87 98.3018,441.204 98.5,431.5 Z"/></g>
<g><path style="opacity:1" fill="#f1efeb" d="M 370.5,471.5 C 379.173,471.334 387.84,471.5 396.5,472C 400.072,473.569 403.072,475.902 405.5,479C 390.833,479.667 376.167,479.667 361.5,479C 364.106,475.882 367.106,473.382 370.5,471.5 Z"/></g>
</svg>
