<?xml version="1.0" encoding="UTF-8"?>
<!DOCTYPE svg PUBLIC "-//W3C//DTD SVG 1.1//EN" "http://www.w3.org/Graphics/SVG/1.1/DTD/svg11.dtd">
<svg xmlns="http://www.w3.org/2000/svg" version="1.1" width="512px" height="512px" style="shape-rendering:geometricPrecision; text-rendering:geometricPrecision; image-rendering:optimizeQuality; fill-rule:evenodd; clip-rule:evenodd" xmlns:xlink="http://www.w3.org/1999/xlink">
<g><path style="opacity:0.977" fill="#020201" d="M 229.5,-0.5 C 246.833,-0.5 264.167,-0.5 281.5,-0.5C 284.2,1.04602 286.033,3.37935 287,6.5C 295.328,40.811 303.495,75.1443 311.5,109.5C 319.903,109.13 328.236,109.63 336.5,111C 347.965,114.798 354.798,122.631 357,134.5C 357.333,148.167 357.667,161.833 358,175.5C 369.711,177.546 377.377,184.212 381,195.5C 382.634,231.461 382.967,267.461 382,303.5C 380.5,308.164 377.334,310.831 372.5,311.5C 367.395,310.575 363.895,307.575 362,302.5C 361.667,268.5 361.333,234.5 361,200.5C 360.626,199.584 360.126,198.75 359.5,198C 290.915,196.34 222.249,196.007 153.5,197C 151.667,197.5 150.5,198.667 150,200.5C 149.333,296.167 149.333,391.833 150,487.5C 151.167,488.667 152.333,489.833 153.5,491C 221.915,491.993 290.249,491.66 358.5,490C 359.333,489.167 360.167,488.333 361,487.5C 361.333,454.5 361.667,421.5 362,388.5C 363.749,383.541 367.249,380.875 372.5,380.5C 377.339,381.172 380.505,383.838 382,388.5C 382.667,421.5 382.667,454.5 382,487.5C 379.634,499.363 372.801,507.363 361.5,511.5C 290.833,511.5 220.167,511.5 149.5,511.5C 138.228,507.387 131.394,499.387 129,487.5C 128.333,391.833 128.333,296.167 129,200.5C 131.211,186.622 139.211,178.288 153,175.5C 153.333,161.5 153.667,147.5 154,133.5C 156.654,122.18 163.488,114.68 174.5,111C 182.764,109.63 191.097,109.13 199.5,109.5C 207.505,75.1443 215.672,40.811 224,6.5C 224.967,3.37935 226.8,1.04602 229.5,-0.5 Z"/></g>
<g><path style="opacity:1" fill="#fccb68" d="M 289.5,105.5 C 289.5,106.833 289.5,108.167 289.5,109.5C 266.833,109.5 244.167,109.5 221.5,109.5C 221.5,108.167 221.5,106.833 221.5,105.5C 228.373,76.881 235.04,48.2143 241.5,19.5C 250.833,19.5 260.167,19.5 269.5,19.5C 276.162,48.1499 282.829,76.8166 289.5,105.5 Z"/></g>
<g><path style="opacity:1" fill="#9c7d40" d="M 221.5,105.5 C 221.5,106.833 221.5,108.167 221.5,109.5C 244.167,109.5 266.833,109.5 289.5,109.5C 289.5,108.167 289.5,106.833 289.5,105.5C 290.451,106.919 290.784,108.585 290.5,110.5C 267.167,110.5 243.833,110.5 220.5,110.5C 220.216,108.585 220.549,106.919 221.5,105.5 Z"/></g>
<g><path style="opacity:1" fill="#f9f6f4" d="M 336.5,137.5 C 336.5,150.167 336.5,162.833 336.5,175.5C 332.5,175.5 328.5,175.5 324.5,175.5C 324.823,169.31 324.49,163.31 323.5,157.5C 321.329,150.579 316.663,148.079 309.5,150C 307.21,151.777 305.543,153.944 304.5,156.5C 303.51,162.645 303.177,168.978 303.5,175.5C 297.5,175.5 291.5,175.5 285.5,175.5C 285.823,168.978 285.49,162.645 284.5,156.5C 281.826,150.332 277.16,148.166 270.5,150C 268.21,151.777 266.543,153.944 265.5,156.5C 264.51,162.645 264.177,168.978 264.5,175.5C 258.5,175.5 252.5,175.5 246.5,175.5C 246.823,168.978 246.49,162.645 245.5,156.5C 242.826,150.332 238.16,148.166 231.5,150C 229.21,151.777 227.543,153.944 226.5,156.5C 225.51,162.645 225.177,168.978 225.5,175.5C 219.5,175.5 213.5,175.5 207.5,175.5C 207.823,168.978 207.49,162.645 206.5,156.5C 203.44,149.645 198.44,147.812 191.5,151C 189.266,152.638 187.933,154.805 187.5,157.5C 186.51,163.31 186.177,169.31 186.5,175.5C 182.5,175.5 178.5,175.5 174.5,175.5C 174.5,162.833 174.5,150.167 174.5,137.5C 174.84,134.325 176.507,132.159 179.5,131C 230.167,130.333 280.833,130.333 331.5,131C 334.493,132.159 336.16,134.325 336.5,137.5 Z"/></g>
<g><path style="opacity:1" fill="#8e8c8b" d="M 174.5,137.5 C 174.5,150.167 174.5,162.833 174.5,175.5C 178.5,175.5 182.5,175.5 186.5,175.5C 186.177,169.31 186.51,163.31 187.5,157.5C 187.5,163.833 187.5,170.167 187.5,176.5C 182.833,176.5 178.167,176.5 173.5,176.5C 173.171,163.323 173.505,150.323 174.5,137.5 Z"/></g>
<g><path style="opacity:1" fill="#8e8c8b" d="M 336.5,137.5 C 337.495,150.323 337.829,163.323 337.5,176.5C 332.833,176.5 328.167,176.5 323.5,176.5C 323.5,170.167 323.5,163.833 323.5,157.5C 324.49,163.31 324.823,169.31 324.5,175.5C 328.5,175.5 332.5,175.5 336.5,175.5C 336.5,162.833 336.5,150.167 336.5,137.5 Z"/></g>
<g><path style="opacity:1" fill="#969493" d="M 206.5,156.5 C 207.49,162.645 207.823,168.978 207.5,175.5C 213.5,175.5 219.5,175.5 225.5,175.5C 225.177,168.978 225.51,162.645 226.5,156.5C 226.5,163.167 226.5,169.833 226.5,176.5C 219.833,176.5 213.167,176.5 206.5,176.5C 206.5,169.833 206.5,163.167 206.5,156.5 Z"/></g>
<g><path style="opacity:1" fill="#969493" d="M 245.5,156.5 C 246.49,162.645 246.823,168.978 246.5,175.5C 252.5,175.5 258.5,175.5 264.5,175.5C 264.177,168.978 264.51,162.645 265.5,156.5C 265.5,163.167 265.5,169.833 265.5,176.5C 258.833,176.5 252.167,176.5 245.5,176.5C 245.5,169.833 245.5,163.167 245.5,156.5 Z"/></g>
<g><path style="opacity:1" fill="#969493" d="M 284.5,156.5 C 285.49,162.645 285.823,168.978 285.5,175.5C 291.5,175.5 297.5,175.5 303.5,175.5C 303.177,168.978 303.51,162.645 304.5,156.5C 304.5,163.167 304.5,169.833 304.5,176.5C 297.833,176.5 291.167,176.5 284.5,176.5C 284.5,169.833 284.5,163.167 284.5,156.5 Z"/></g>
<g><path style="opacity:1" fill="#fed98e" d="M 372.5,311.5 C 372.5,319.5 372.5,327.5 372.5,335.5C 366.079,336.087 362.413,339.587 361.5,346C 362.413,352.413 366.079,355.913 372.5,356.5C 372.5,364.5 372.5,372.5 372.5,380.5C 367.249,380.875 363.749,383.541 362,388.5C 361.667,421.5 361.333,454.5 361,487.5C 360.167,488.333 359.333,489.167 358.5,490C 290.249,491.66 221.915,491.993 153.5,491C 152.333,489.833 151.167,488.667 150,487.5C 149.333,391.833 149.333,296.167 150,200.5C 150.5,198.667 151.667,197.5 153.5,197C 222.249,196.007 290.915,196.34 359.5,198C 360.126,198.75 360.626,199.584 361,200.5C 361.333,234.5 361.667,268.5 362,302.5C 363.895,307.575 367.395,310.575 372.5,311.5 Z"/></g>
<g><path style="opacity:1" fill="#060403" d="M 241.5,243.5 C 252.216,243.156 262.882,243.656 273.5,245C 284.572,247.755 293.072,253.922 299,263.5C 299.333,269.833 299.667,276.167 300,282.5C 306.085,283.312 312.252,283.812 318.5,284C 321.913,285.077 324.413,287.244 326,290.5C 326.667,335.833 326.667,381.167 326,426.5C 324.923,429.913 322.756,432.413 319.5,434C 276.5,434.667 233.5,434.667 190.5,434C 189,432.5 187.5,431 186,429.5C 184.348,383.225 184.015,336.892 185,290.5C 186.5,287.667 188.667,285.5 191.5,284C 197.884,283.794 204.217,283.294 210.5,282.5C 208.043,268.983 212.376,258.483 223.5,251C 229.328,247.788 235.328,245.288 241.5,243.5 Z"/></g>
<g><path style="opacity:1" fill="#fdcb68" d="M 243.5,263.5 C 251.174,263.334 258.841,263.5 266.5,264C 271.193,264.71 275.36,266.543 279,269.5C 278.335,278.379 280.002,286.712 284,294.5C 289.987,301.242 297.487,304.242 306.5,303.5C 306.5,340.5 306.5,377.5 306.5,414.5C 272.5,414.5 238.5,414.5 204.5,414.5C 204.5,377.5 204.5,340.5 204.5,303.5C 217.393,304.099 226.226,298.432 231,286.5C 231.333,280.833 231.667,275.167 232,269.5C 235.574,266.822 239.407,264.822 243.5,263.5 Z"/></g>
<g><path style="opacity:0.934" fill="#050402" d="M 372.5,335.5 C 381.268,337.618 384.101,342.952 381,351.5C 378.971,354.596 376.138,356.262 372.5,356.5C 366.079,355.913 362.413,352.413 361.5,346C 362.413,339.587 366.079,336.087 372.5,335.5 Z"/></g>
</svg>
