<?xml version="1.0" encoding="UTF-8"?>
<!DOCTYPE svg PUBLIC "-//W3C//DTD SVG 1.1//EN" "http://www.w3.org/Graphics/SVG/1.1/DTD/svg11.dtd">
<svg xmlns="http://www.w3.org/2000/svg" version="1.1" width="512px" height="512px" style="shape-rendering:geometricPrecision; text-rendering:geometricPrecision; image-rendering:optimizeQuality; fill-rule:evenodd; clip-rule:evenodd" xmlns:xlink="http://www.w3.org/1999/xlink">
<g><path style="opacity:0.99" fill="#000000" d="M 128.5,-0.5 C 213.167,-0.5 297.833,-0.5 382.5,-0.5C 389.816,1.98409 394.649,6.98409 397,14.5C 397.667,23.1667 397.667,31.8333 397,40.5C 395.362,42.7337 393.195,44.067 390.5,44.5C 387.413,43.947 384.913,42.2803 383,39.5C 382.667,32.5 382.333,25.5 382,18.5C 380.833,17.3333 379.667,16.1667 378.5,15C 373.177,14.5006 367.844,14.334 362.5,14.5C 285.833,14.3333 209.166,14.5 132.5,15C 131.333,16.1667 130.167,17.3333 129,18.5C 128.333,43.1667 128.333,67.8333 129,92.5C 130.167,93.6667 131.333,94.8333 132.5,96C 209.166,96.5 285.833,96.6667 362.5,96.5C 367.844,96.666 373.177,96.4994 378.5,96C 379.667,94.8333 380.833,93.6667 382,92.5C 382.333,84.5 382.667,76.5 383,68.5C 383.374,67.5838 383.874,66.7504 384.5,66C 386.611,65.1553 388.611,64.322 390.5,63.5C 393.195,63.933 395.362,65.2663 397,67.5C 397.667,77.1667 397.667,86.8333 397,96.5C 393.819,104.683 387.986,110.017 379.5,112.5C 385.646,137.751 391.479,163.084 397,188.5C 397.667,245.833 397.667,303.167 397,360.5C 395.728,363.222 393.561,364.556 390.5,364.5C 385.96,364.292 383.293,361.959 382.5,357.5C 382.5,315.167 382.5,272.833 382.5,230.5C 375.5,230.5 368.5,230.5 361.5,230.5C 283.833,230.5 206.167,230.5 128.5,230.5C 128.5,298.5 128.5,366.5 128.5,434.5C 213.335,434.833 298.002,434.499 382.5,433.5C 382.333,418.496 382.5,403.496 383,388.5C 384.913,385.72 387.413,384.053 390.5,383.5C 393.669,383.839 395.836,385.505 397,388.5C 397.667,422.5 397.667,456.5 397,490.5C 394.086,500.911 387.586,507.911 377.5,511.5C 296.167,511.5 214.833,511.5 133.5,511.5C 123.414,507.911 116.914,500.911 114,490.5C 113.333,389.833 113.333,289.167 114,188.5C 115.746,179.77 117.746,171.104 120,162.5C 121.812,159.179 124.645,157.845 128.5,158.5C 132.429,159.758 134.429,162.424 134.5,166.5C 132.605,174.808 130.771,183.142 129,191.5C 128.5,199.493 128.334,207.493 128.5,215.5C 206.167,215.5 283.833,215.5 361.5,215.5C 368.5,215.5 375.5,215.5 382.5,215.5C 382.666,207.493 382.5,199.493 382,191.5C 375.843,164.877 370.01,138.21 364.5,111.5C 357.5,111.5 350.5,111.5 343.5,111.5C 277.833,111.5 212.167,111.5 146.5,111.5C 145.432,119.242 143.932,126.909 142,134.5C 140.055,138.39 136.888,140.057 132.5,139.5C 128.683,138.044 127.016,135.211 127.5,131C 128.131,124.676 129.465,118.51 131.5,112.5C 123.014,110.017 117.181,104.683 114,96.5C 113.333,69.1667 113.333,41.8333 114,14.5C 115.413,11.3388 117.08,8.33883 119,5.5C 121.843,2.83733 125.009,0.837327 128.5,-0.5 Z"/></g>
<g><path style="opacity:1" fill="#fc7f86" d="M 362.5,14.5 C 363.816,41.8144 363.816,69.1478 362.5,96.5C 285.833,96.6667 209.166,96.5 132.5,96C 131.333,94.8333 130.167,93.6667 129,92.5C 128.333,67.8333 128.333,43.1667 129,18.5C 130.167,17.3333 131.333,16.1667 132.5,15C 209.166,14.5 285.833,14.3333 362.5,14.5 Z"/></g>
<g><path style="opacity:1" fill="#fc636e" d="M 362.5,14.5 C 367.844,14.334 373.177,14.5006 378.5,15C 379.667,16.1667 380.833,17.3333 382,18.5C 382.333,25.5 382.667,32.5 383,39.5C 384.913,42.2803 387.413,43.947 390.5,44.5C 390.5,50.8333 390.5,57.1667 390.5,63.5C 388.611,64.322 386.611,65.1553 384.5,66C 383.874,66.7504 383.374,67.5838 383,68.5C 382.667,76.5 382.333,84.5 382,92.5C 380.833,93.6667 379.667,94.8333 378.5,96C 373.177,96.4994 367.844,96.666 362.5,96.5C 363.816,69.1478 363.816,41.8144 362.5,14.5 Z"/></g>
<g><path style="opacity:1" fill="#e9f5fe" d="M 343.5,111.5 C 348.696,137.62 354.529,163.62 361,189.5C 361.5,198.16 361.666,206.827 361.5,215.5C 283.833,215.5 206.167,215.5 128.5,215.5C 128.334,207.493 128.5,199.493 129,191.5C 130.771,183.142 132.605,174.808 134.5,166.5C 134.429,162.424 132.429,159.758 128.5,158.5C 129.833,152.167 131.167,145.833 132.5,139.5C 136.888,140.057 140.055,138.39 142,134.5C 143.932,126.909 145.432,119.242 146.5,111.5C 212.167,111.5 277.833,111.5 343.5,111.5 Z"/></g>
<g><path style="opacity:1" fill="#d5e9fb" d="M 343.5,111.5 C 350.5,111.5 357.5,111.5 364.5,111.5C 370.01,138.21 375.843,164.877 382,191.5C 382.5,199.493 382.666,207.493 382.5,215.5C 375.5,215.5 368.5,215.5 361.5,215.5C 361.666,206.827 361.5,198.16 361,189.5C 354.529,163.62 348.696,137.62 343.5,111.5 Z"/></g>
<g><path style="opacity:1" fill="#b35a5f" d="M 361.5,230.5 C 361.5,230.833 361.5,231.167 361.5,231.5C 284.167,231.5 206.833,231.5 129.5,231.5C 129.5,298.833 129.5,366.167 129.5,433.5C 206.833,433.5 284.167,433.5 361.5,433.5C 368.5,433.5 375.5,433.5 382.5,433.5C 298.002,434.499 213.335,434.833 128.5,434.5C 128.5,366.5 128.5,298.5 128.5,230.5C 206.167,230.5 283.833,230.5 361.5,230.5 Z"/></g>
<g><path style="opacity:1" fill="#fa7e85" d="M 361.5,231.5 C 361.5,252.167 361.5,272.833 361.5,293.5C 352.778,292.003 344.111,292.17 335.5,294C 332.357,299.006 333.024,303.339 337.5,307C 341.167,307.333 344.833,307.667 348.5,308C 344.798,317.687 337.798,321.353 327.5,319C 313.609,312.388 310.109,302.222 317,288.5C 325.228,279.604 334.728,278.104 345.5,284C 353.788,285.291 356.955,281.791 355,273.5C 346.047,266.387 335.88,263.887 324.5,266C 305.255,273.242 296.755,287.076 299,307.5C 308.999,333.054 326.499,340.221 351.5,329C 355.963,325.198 359.297,320.698 361.5,315.5C 361.5,329.833 361.5,344.167 361.5,358.5C 359.264,356.107 356.597,354.273 353.5,353C 287.833,352.333 222.167,352.333 156.5,353C 147.882,358.075 144.549,365.575 146.5,375.5C 144.589,386.514 148.589,394.347 158.5,399C 223.167,399.667 287.833,399.667 352.5,399C 355.862,397.657 358.862,395.824 361.5,393.5C 361.5,406.833 361.5,420.167 361.5,433.5C 284.167,433.5 206.833,433.5 129.5,433.5C 129.5,366.167 129.5,298.833 129.5,231.5C 206.833,231.5 284.167,231.5 361.5,231.5 Z"/></g>
<g><path style="opacity:1" fill="#fd636e" d="M 361.5,231.5 C 368.167,231.5 374.833,231.5 381.5,231.5C 381.168,273.67 381.501,315.67 382.5,357.5C 383.293,361.959 385.96,364.292 390.5,364.5C 390.5,370.833 390.5,377.167 390.5,383.5C 387.413,384.053 384.913,385.72 383,388.5C 382.5,403.496 382.333,418.496 382.5,433.5C 375.5,433.5 368.5,433.5 361.5,433.5C 361.5,420.167 361.5,406.833 361.5,393.5C 363.995,387.821 364.995,381.821 364.5,375.5C 365.025,369.471 364.025,363.804 361.5,358.5C 361.5,344.167 361.5,329.833 361.5,315.5C 362.979,310.803 363.979,305.97 364.5,301C 364.452,298.078 363.452,295.578 361.5,293.5C 361.5,272.833 361.5,252.167 361.5,231.5 Z"/></g>
<g><path style="opacity:1" fill="#d6545d" d="M 361.5,231.5 C 361.5,231.167 361.5,230.833 361.5,230.5C 368.5,230.5 375.5,230.5 382.5,230.5C 382.5,272.833 382.5,315.167 382.5,357.5C 381.501,315.67 381.168,273.67 381.5,231.5C 374.833,231.5 368.167,231.5 361.5,231.5 Z"/></g>
<g><path style="opacity:1" fill="#060202" d="M 161.5,265.5 C 165.516,264.9 169.016,265.9 172,268.5C 175.972,279.715 179.638,291.049 183,302.5C 186.135,291.429 189.468,280.429 193,269.5C 197.924,264.244 202.924,264.244 208,269.5C 212.084,288.589 215.918,307.755 219.5,327C 217.076,334.882 212.576,336.382 206,331.5C 203.35,321.566 201.016,311.566 199,301.5C 196.333,310.833 193.667,320.167 191,329.5C 189.471,332.934 186.804,334.6 183,334.5C 180.186,334.592 177.853,333.592 176,331.5C 173.202,322.105 170.202,312.772 167,303.5C 164.458,312.73 162.124,322.063 160,331.5C 152.91,336.453 148.41,334.619 146.5,326C 150.078,307.52 153.578,289.02 157,270.5C 158.025,268.313 159.525,266.646 161.5,265.5 Z"/></g>
<g><path style="opacity:1" fill="#060303" d="M 253.5,265.5 C 263.865,264.235 273.032,266.901 281,273.5C 283.677,282.156 280.511,285.989 271.5,285C 266.48,280.996 260.813,279.663 254.5,281C 251.141,283.034 250.808,285.368 253.5,288C 261.449,290.758 269.115,294.091 276.5,298C 287.382,308.967 287.049,319.634 275.5,330C 260.391,337.66 246.891,335.494 235,323.5C 232.485,317.327 234.485,313.327 241,311.5C 245.462,313.937 249.962,316.437 254.5,319C 260.076,320.472 264.909,319.305 269,315.5C 269.536,313.433 269.036,311.599 267.5,310C 259.751,306.861 252.084,303.528 244.5,300C 233.605,289.361 233.939,279.028 245.5,269C 248.158,267.522 250.825,266.355 253.5,265.5 Z"/></g>
<g><path style="opacity:1" fill="#050202" d="M 361.5,293.5 C 363.452,295.578 364.452,298.078 364.5,301C 363.979,305.97 362.979,310.803 361.5,315.5C 359.297,320.698 355.963,325.198 351.5,329C 326.499,340.221 308.999,333.054 299,307.5C 296.755,287.076 305.255,273.242 324.5,266C 335.88,263.887 346.047,266.387 355,273.5C 356.955,281.791 353.788,285.291 345.5,284C 334.728,278.104 325.228,279.604 317,288.5C 310.109,302.222 313.609,312.388 327.5,319C 337.798,321.353 344.798,317.687 348.5,308C 344.833,307.667 341.167,307.333 337.5,307C 333.024,303.339 332.357,299.006 335.5,294C 344.111,292.17 352.778,292.003 361.5,293.5 Z"/></g>
<g><path style="opacity:1" fill="#050303" d="M 361.5,358.5 C 364.025,363.804 365.025,369.471 364.5,375.5C 364.995,381.821 363.995,387.821 361.5,393.5C 358.862,395.824 355.862,397.657 352.5,399C 287.833,399.667 223.167,399.667 158.5,399C 148.589,394.347 144.589,386.514 146.5,375.5C 144.549,365.575 147.882,358.075 156.5,353C 222.167,352.333 287.833,352.333 353.5,353C 356.597,354.273 359.264,356.107 361.5,358.5 Z"/></g>
<g><path style="opacity:1" fill="#7a6d7a" d="M 162.5,367.5 C 162.5,372.833 162.5,378.167 162.5,383.5C 224.5,383.5 286.5,383.5 348.5,383.5C 348.5,378.167 348.5,372.833 348.5,367.5C 349.489,372.975 349.822,378.642 349.5,384.5C 286.833,384.5 224.167,384.5 161.5,384.5C 161.178,378.642 161.511,372.975 162.5,367.5 Z"/></g>
<g><path style="opacity:1" fill="#908290" d="M 162.5,367.5 C 224.5,367.5 286.5,367.5 348.5,367.5C 348.5,372.833 348.5,378.167 348.5,383.5C 286.5,383.5 224.5,383.5 162.5,383.5C 162.5,378.167 162.5,372.833 162.5,367.5 Z"/></g>
<g><path style="opacity:1" fill="#e9f5fe" d="M 128.5,449.5 C 206.167,449.5 283.833,449.5 361.5,449.5C 361.667,462.171 361.5,474.838 361,487.5C 360.378,490.739 359.212,493.739 357.5,496.5C 284.166,496.667 210.833,496.5 137.5,496C 133.333,494.5 130.5,491.667 129,487.5C 128.5,474.838 128.333,462.171 128.5,449.5 Z"/></g>
<g><path style="opacity:1" fill="#c8dae9" d="M 128.5,449.5 C 212.998,448.501 297.665,448.167 382.5,448.5C 382.667,461.504 382.5,474.504 382,487.5C 380.5,491.667 377.667,494.5 373.5,496C 368.177,496.499 362.844,496.666 357.5,496.5C 359.212,493.739 360.378,490.739 361,487.5C 361.5,474.838 361.667,462.171 361.5,449.5C 283.833,449.5 206.167,449.5 128.5,449.5 Z"/></g>
</svg>
