<?xml version="1.0" encoding="UTF-8"?>
<!DOCTYPE svg PUBLIC "-//W3C//DTD SVG 1.1//EN" "http://www.w3.org/Graphics/SVG/1.1/DTD/svg11.dtd">
<svg xmlns="http://www.w3.org/2000/svg" version="1.1" width="512px" height="512px" style="shape-rendering:geometricPrecision; text-rendering:geometricPrecision; image-rendering:optimizeQuality; fill-rule:evenodd; clip-rule:evenodd" xmlns:xlink="http://www.w3.org/1999/xlink">
<g><path style="opacity:0.978" fill="#020202" d="M 332.5,124.5 C 330.56,127.833 327.56,129.5 323.5,129.5C 291.634,119.041 262.634,124.208 236.5,145C 218.888,164.294 199.221,180.961 177.5,195C 173.482,197.226 169.315,199.059 165,200.5C 165.001,209.513 165.501,218.513 166.5,227.5C 166.562,231.337 167.562,234.837 169.5,238C 182.833,245.667 196.167,253.333 209.5,261C 223.213,268.238 237.713,273.071 253,275.5C 257.365,275.188 261.532,274.522 265.5,273.5C 278.833,271.833 292.167,270.167 305.5,268.5C 309.098,252.731 318.765,242.565 334.5,238C 339.167,237.667 343.833,237.333 348.5,237C 357.641,228.344 368.141,221.844 380,217.5C 382.467,191.898 374.8,169.898 357,151.5C 356.341,148.112 356.508,144.779 357.5,141.5C 361.052,139.132 364.719,138.965 368.5,141C 386.846,161.208 396.179,185.041 396.5,212.5C 436.722,207.869 468.556,221.869 492,254.5C 507.874,281.415 510.874,309.748 501,339.5C 495.172,354.99 486.005,368.156 473.5,379C 483.167,379.333 492.833,379.667 502.5,380C 506.277,381.614 509.277,384.114 511.5,387.5C 511.5,390.833 511.5,394.167 511.5,397.5C 505.048,411.076 498.548,424.742 492,438.5C 487.001,445.079 480.501,449.245 472.5,451C 462.506,451.5 452.506,451.666 442.5,451.5C 442.839,460.226 442.339,468.893 441,477.5C 438.333,484.097 433.5,488.263 426.5,490C 347.167,490.667 267.833,490.667 188.5,490C 184.482,489.137 182.482,486.637 182.5,482.5C 183.108,479.042 185.108,476.542 188.5,475C 262.499,474.5 336.499,474.333 410.5,474.5C 415.544,474.827 420.544,474.494 425.5,473.5C 426.465,466.224 426.799,458.891 426.5,451.5C 421.167,451.5 415.833,451.5 410.5,451.5C 301.833,451.5 193.167,451.5 84.5,451.5C 84.2012,458.891 84.5345,466.224 85.5,473.5C 105.158,474.333 124.825,474.833 144.5,475C 148.768,475.766 151.101,478.266 151.5,482.5C 151.673,486.17 150.007,488.67 146.5,490C 124.769,490.967 103.103,490.633 81.5,489C 75.6667,487.167 71.8333,483.333 70,477.5C 68.6614,468.893 68.1614,460.226 68.5,451.5C 58.4944,451.666 48.4944,451.5 38.5,451C 30.4993,449.245 23.9993,445.079 19,438.5C 12.4522,424.742 5.95223,411.076 -0.5,397.5C -0.5,394.167 -0.5,390.833 -0.5,387.5C 4.24765,380.678 10.9143,377.678 19.5,378.5C 11.5833,360.495 9.08329,341.829 12,322.5C 13.9411,320.13 16.4411,318.797 19.5,318.5C 21.6755,319.739 23.5088,321.406 25,323.5C 24.3053,343.34 28.472,362.007 37.5,379.5C 88.3306,380.499 139.331,380.832 190.5,380.5C 190.768,378.901 190.434,377.568 189.5,376.5C 189.304,349.695 202.637,336.029 229.5,335.5C 236.819,337.077 243.319,340.41 249,345.5C 251.754,343.873 254.588,342.373 257.5,341C 258.097,339.938 258.43,338.772 258.5,337.5C 256.958,329.051 255.625,320.718 254.5,312.5C 253.947,304.903 252.947,297.403 251.5,290C 232.714,287.404 215.047,281.404 198.5,272C 184.5,264 170.5,256 156.5,248C 106.009,231.163 66.0089,244.83 36.5,289C 33.5184,289.498 30.5184,289.665 27.5,289.5C 24.2164,285.9 23.7164,281.9 26,277.5C 30.9086,269.921 36.5753,262.921 43,256.5C 43.8688,249.727 46.0355,243.394 49.5,237.5C 33.4843,218.057 33.8177,198.89 50.5,180C 65.8212,168.572 81.8212,167.572 98.5,177C 103.349,181.681 108.015,186.515 112.5,191.5C 120.871,190.588 129.205,189.422 137.5,188C 134.576,180.227 131.076,172.727 127,165.5C 114.448,153.814 101.615,142.481 88.5,131.5C 65.5017,140.113 48.0017,133.78 36,112.5C 28.9579,89.2719 36.1246,72.1052 57.5,61C 60.43,60.3937 63.2633,59.5604 66,58.5C 71.4083,28.7555 88.9083,16.9222 118.5,23C 139.441,32.7206 147.108,48.8873 141.5,71.5C 141.833,72.1667 142.167,72.8333 142.5,73.5C 153.5,83.3333 164.5,93.1667 175.5,103C 185.78,108.657 196.78,112.324 208.5,114C 223.407,116.568 238.407,117.568 253.5,117C 278.276,107.067 303.276,106.401 328.5,115C 331.963,117.15 333.296,120.316 332.5,124.5 Z"/></g>
<g><path style="opacity:1" fill="#f7e6d2" d="M 142.5,126.5 C 132.725,118.567 123.059,110.4 113.5,102C 111.5,101.333 109.5,101.333 107.5,102C 91.4124,109.77 77.9124,106.603 67,92.5C 63.7679,87.6392 62.2679,82.3059 62.5,76.5C 65.8044,74.5829 69.4711,73.4162 73.5,73C 77,71.5 79.5,69 81,65.5C 81.8571,41.6736 93.6904,32.8403 116.5,39C 121.445,41.9456 124.945,46.1122 127,51.5C 127.826,58.6059 127.326,65.6059 125.5,72.5C 125.594,74.9228 126.094,77.2562 127,79.5C 137.298,89.2943 147.798,98.961 158.5,108.5C 153.487,114.843 148.154,120.843 142.5,126.5 Z"/></g>
<g><path style="opacity:1" fill="#e6ceb8" d="M 62.5,76.5 C 62.2679,82.3059 63.7679,87.6392 67,92.5C 77.9124,106.603 91.4124,109.77 107.5,102C 109.5,101.333 111.5,101.333 113.5,102C 123.059,110.4 132.725,118.567 142.5,126.5C 137.839,132.659 132.673,138.326 127,143.5C 116.471,133.971 105.638,124.805 94.5,116C 91.5,115.333 88.5,115.333 85.5,116C 68.4072,124.086 56.2406,119.586 49,102.5C 46.9311,90.3014 51.4311,81.6347 62.5,76.5 Z"/></g>
<g><path style="opacity:1" fill="#fc8e16" d="M 170.5,181.5 C 169.414,181.38 168.747,180.713 168.5,179.5C 164.68,165.037 159.68,151.037 153.5,137.5C 156.787,133.041 160.287,128.708 164,124.5C 166.05,122.112 168.384,120.112 171,118.5C 189.24,126.8 208.406,131.467 228.5,132.5C 217.678,143.155 206.678,153.655 195.5,164C 187.563,170.443 179.23,176.276 170.5,181.5 Z"/></g>
<g><path style="opacity:0.999" fill="#fe8f16" d="M 332.5,124.5 C 342.083,128.448 350.417,134.115 357.5,141.5C 356.508,144.779 356.341,148.112 357,151.5C 374.8,169.898 382.467,191.898 380,217.5C 368.141,221.844 357.641,228.344 348.5,237C 343.833,237.333 339.167,237.667 334.5,238C 318.765,242.565 309.098,252.731 305.5,268.5C 292.167,270.167 278.833,271.833 265.5,273.5C 259.928,272.921 254.594,271.421 249.5,269C 231.017,257.201 212.017,246.201 192.5,236C 184.1,232.255 175.433,229.422 166.5,227.5C 165.501,218.513 165.001,209.513 165,200.5C 169.315,199.059 173.482,197.226 177.5,195C 199.221,180.961 218.888,164.294 236.5,145C 262.634,124.208 291.634,119.041 323.5,129.5C 327.56,129.5 330.56,127.833 332.5,124.5 Z"/></g>
<g><path style="opacity:1" fill="#eb7b09" d="M 153.5,137.5 C 159.68,151.037 164.68,165.037 168.5,179.5C 168.747,180.713 169.414,181.38 170.5,181.5C 165.33,184.834 159.663,186.668 153.5,187C 150.143,176.12 145.31,165.953 139,156.5C 138.333,155.5 138.333,154.5 139,153.5C 143.699,147.971 148.532,142.638 153.5,137.5 Z"/></g>
<g><path style="opacity:1" fill="#f5e4d0" d="M 72.5,185.5 C 78.5944,185.418 84.2611,186.918 89.5,190C 94.1894,195.687 99.1894,201.021 104.5,206C 119.497,205.449 134.497,204.616 149.5,203.5C 150.967,212.485 151.3,221.485 150.5,230.5C 121.419,221.948 93.5853,224.948 67,239.5C 66.6667,237.167 66.3333,234.833 66,232.5C 60.9956,227.155 56.9956,221.155 54,214.5C 52.3391,199.69 58.5058,190.023 72.5,185.5 Z"/></g>
<g><path style="opacity:1" fill="#ea7a0a" d="M 166.5,227.5 C 175.433,229.422 184.1,232.255 192.5,236C 212.017,246.201 231.017,257.201 249.5,269C 254.594,271.421 259.928,272.921 265.5,273.5C 261.532,274.522 257.365,275.188 253,275.5C 237.713,273.071 223.213,268.238 209.5,261C 196.167,253.333 182.833,245.667 169.5,238C 167.562,234.837 166.562,231.337 166.5,227.5 Z"/></g>
<g><path style="opacity:1" fill="#fe8f16" d="M 485.5,276.5 C 485.169,322.993 462.836,353.16 418.5,367C 406.883,368.554 395.216,368.887 383.5,368C 359.003,360.917 334.003,357.751 308.5,358.5C 304.458,351.43 301.292,344.097 299,336.5C 307.189,329.092 314.189,320.759 320,311.5C 328.843,295.815 337.177,279.815 345,263.5C 371.836,227.779 406.002,218.279 447.5,235C 465.586,243.917 478.252,257.75 485.5,276.5 Z"/></g>
<g><path style="opacity:0.999" fill="#fe8f16" d="M 254.5,312.5 C 254.808,314.924 254.474,317.257 253.5,319.5C 244.643,323.716 236.643,329.049 229.5,335.5C 202.637,336.029 189.304,349.695 189.5,376.5C 189.5,377.5 189.5,378.5 189.5,379.5C 138.833,379.5 88.1667,379.5 37.5,379.5C 28.472,362.007 24.3053,343.34 25,323.5C 23.5088,321.406 21.6755,319.739 19.5,318.5C 20.9517,308.481 23.6184,298.814 27.5,289.5C 30.5184,289.665 33.5184,289.498 36.5,289C 66.0089,244.83 106.009,231.163 156.5,248C 170.5,256 184.5,264 198.5,272C 215.047,281.404 232.714,287.404 251.5,290C 252.947,297.403 253.947,304.903 254.5,312.5 Z"/></g>
<g><path style="opacity:1" fill="#f3e3cf" d="M 301.5,311.5 C 291.203,313.093 280.869,314.426 270.5,315.5C 268.94,306.666 267.607,297.666 266.5,288.5C 281.621,287.136 296.621,284.969 311.5,282C 317.053,278.395 320.22,273.228 321,266.5C 323.133,262.067 326.3,258.567 330.5,256C 323.736,274.994 314.07,293.494 301.5,311.5 Z"/></g>
<g><path style="opacity:1" fill="#ea7a09" d="M 485.5,276.5 C 496.454,305.189 492.62,331.855 474,356.5C 465.172,366.673 454.672,374.506 442.5,380C 420.833,380.667 399.167,380.667 377.5,380C 363.782,377.135 349.948,375.302 336,374.5C 329.87,374.28 323.87,374.947 318,376.5C 314.055,370.944 310.888,364.944 308.5,358.5C 334.003,357.751 359.003,360.917 383.5,368C 395.216,368.887 406.883,368.554 418.5,367C 462.836,353.16 485.169,322.993 485.5,276.5 Z"/></g>
<g><path style="opacity:1" fill="#e2cbb6" d="M 301.5,311.5 C 294.843,322.148 285.509,329.482 273.5,333.5C 271.715,327.681 270.715,321.681 270.5,315.5C 280.869,314.426 291.203,313.093 301.5,311.5 Z"/></g>
<g><path style="opacity:1" fill="#e8790a" d="M 254.5,312.5 C 255.625,320.718 256.958,329.051 258.5,337.5C 258.43,338.772 258.097,339.938 257.5,341C 254.588,342.373 251.754,343.873 249,345.5C 243.319,340.41 236.819,337.077 229.5,335.5C 236.643,329.049 244.643,323.716 253.5,319.5C 254.474,317.257 254.808,314.924 254.5,312.5 Z"/></g>
<g><path style="opacity:1" fill="#f6e5d2" d="M 293.5,363.5 C 284.306,369.103 274.639,374.27 264.5,379C 245.17,379.5 225.836,379.667 206.5,379.5C 201.608,365.449 206.275,355.949 220.5,351C 223.167,350.333 225.833,350.333 228.5,351C 234.125,353.479 239.458,356.479 244.5,360C 247.928,360.701 251.262,360.368 254.5,359C 264.457,354.07 274.457,349.237 284.5,344.5C 288.32,350.472 291.32,356.805 293.5,363.5 Z"/></g>
<g><path style="opacity:1" fill="#d1bca8" d="M 293.5,363.5 C 296.955,368.746 299.622,374.413 301.5,380.5C 269.662,380.832 237.996,380.498 206.5,379.5C 225.836,379.667 245.17,379.5 264.5,379C 274.639,374.27 284.306,369.103 293.5,363.5 Z"/></g>
<g><path style="opacity:1" fill="#854a0a" d="M 189.5,376.5 C 190.434,377.568 190.768,378.901 190.5,380.5C 139.331,380.832 88.3306,380.499 37.5,379.5C 88.1667,379.5 138.833,379.5 189.5,379.5C 189.5,378.5 189.5,377.5 189.5,376.5 Z"/></g>
<g><path style="opacity:1" fill="#4fb7fe" d="M 16.5,395.5 C 170.5,395.5 324.5,395.5 478.5,395.5C 473.322,408.857 467.322,421.857 460.5,434.5C 320.502,435.5 180.502,435.833 40.5,435.5C 37.0108,434.523 34.1775,432.523 32,429.5C 26.5476,418.264 21.3809,406.931 16.5,395.5 Z"/></g>
<g><path style="opacity:1" fill="#328cbc" d="M 16.5,395.5 C 175.666,394.5 334.999,394.167 494.5,394.5C 489.901,406.37 484.734,418.036 479,429.5C 476.635,432.869 473.468,435.036 469.5,436C 326.333,436.833 183.333,436.666 40.5,435.5C 180.502,435.833 320.502,435.5 460.5,434.5C 467.322,421.857 473.322,408.857 478.5,395.5C 324.5,395.5 170.5,395.5 16.5,395.5 Z"/></g>
<g><path style="opacity:1" fill="#4fb7fe" d="M 410.5,451.5 C 410.5,459.167 410.5,466.833 410.5,474.5C 336.499,474.333 262.499,474.5 188.5,475C 185.108,476.542 183.108,479.042 182.5,482.5C 172.167,482.5 161.833,482.5 151.5,482.5C 151.101,478.266 148.768,475.766 144.5,475C 124.825,474.833 105.158,474.333 85.5,473.5C 84.5345,466.224 84.2012,458.891 84.5,451.5C 193.167,451.5 301.833,451.5 410.5,451.5 Z"/></g>
<g><path style="opacity:1" fill="#34aae2" d="M 410.5,451.5 C 415.833,451.5 421.167,451.5 426.5,451.5C 426.799,458.891 426.465,466.224 425.5,473.5C 420.544,474.494 415.544,474.827 410.5,474.5C 410.5,466.833 410.5,459.167 410.5,451.5 Z"/></g>
</svg>
