<?xml version="1.0" encoding="UTF-8"?>
<!DOCTYPE svg PUBLIC "-//W3C//DTD SVG 1.1//EN" "http://www.w3.org/Graphics/SVG/1.1/DTD/svg11.dtd">
<svg xmlns="http://www.w3.org/2000/svg" version="1.1" width="512px" height="512px" style="shape-rendering:geometricPrecision; text-rendering:geometricPrecision; image-rendering:optimizeQuality; fill-rule:evenodd; clip-rule:evenodd" xmlns:xlink="http://www.w3.org/1999/xlink">
<g><path style="opacity:0.974" fill="#020202" d="M 292.5,-0.5 C 298.5,-0.5 304.5,-0.5 310.5,-0.5C 326.646,5.48001 337.646,16.6467 343.5,33C 343.401,36.8358 341.735,39.6691 338.5,41.5C 335.813,41.6641 333.146,41.4974 330.5,41C 326.923,36.9343 323.589,32.7676 320.5,28.5C 310.183,14.3001 298.183,12.8001 284.5,24C 266.104,44.4028 259.604,68.2362 265,95.5C 268.781,97.3078 272.615,98.9745 276.5,100.5C 278.868,101.783 281.035,103.45 283,105.5C 283.497,108.146 283.664,110.813 283.5,113.5C 281.66,115.168 279.66,116.668 277.5,118C 275.833,118.667 274.167,118.667 272.5,118C 240.711,100.488 207.044,94.9876 171.5,101.5C 192.753,113.254 213.086,126.421 232.5,141C 237.753,145.875 237.753,150.709 232.5,155.5C 228.101,157.157 224.101,156.491 220.5,153.5C 198.973,137.18 175.973,123.013 151.5,111C 148.923,109.75 146.257,109.416 143.5,110C 118.65,121.941 98.3162,139.274 82.5,162C 97.5252,167.016 112.192,172.849 126.5,179.5C 131.791,183.336 132.791,188.169 129.5,194C 127.487,195.257 125.321,196.091 123,196.5C 118.978,195.238 115.144,193.572 111.5,191.5C 95.9369,184.645 79.9369,178.979 63.5,174.5C 60.1178,170.978 59.2844,166.978 61,162.5C 80.3063,130.859 106.806,107.359 140.5,92C 175.281,78.2645 210.448,77.0978 246,88.5C 243.316,58.5469 252.15,32.7135 272.5,11C 278.489,5.84344 285.156,2.0101 292.5,-0.5 Z"/></g>
<g><path style="opacity:1" fill="#d6fbbc" d="M 320.5,28.5 C 305.666,32.8223 294.5,41.8223 287,55.5C 279.25,69.4995 275.75,84.4995 276.5,100.5C 272.615,98.9745 268.781,97.3078 265,95.5C 259.604,68.2362 266.104,44.4028 284.5,24C 298.183,12.8001 310.183,14.3001 320.5,28.5 Z"/></g>
<g><path style="opacity:1" fill="#bdf890" d="M 320.5,28.5 C 323.589,32.7676 326.923,36.9343 330.5,41C 333.146,41.4974 335.813,41.6641 338.5,41.5C 341.557,48.8356 343.224,56.5023 343.5,64.5C 335.546,72.2943 328.046,80.6276 321,89.5C 313.516,100.802 307.349,112.802 302.5,125.5C 295.99,121.747 289.656,117.747 283.5,113.5C 283.664,110.813 283.497,108.146 283,105.5C 281.035,103.45 278.868,101.783 276.5,100.5C 275.75,84.4995 279.25,69.4995 287,55.5C 294.5,41.8223 305.666,32.8223 320.5,28.5 Z"/></g>
<g><path style="opacity:0.972" fill="#020201" d="M 425.5,226.5 C 424.618,222.091 425.952,218.591 429.5,216C 440.135,213.023 449.135,207.523 456.5,199.5C 467.923,190.283 469.423,179.616 461,167.5C 448.971,155.652 434.471,149.319 417.5,148.5C 414.482,148.335 411.482,148.502 408.5,149C 403.457,153.712 398.123,158.045 392.5,162C 388.259,163.188 384.592,162.355 381.5,159.5C 380.532,156.555 380.366,153.555 381,150.5C 386.333,145.833 391.667,141.167 397,136.5C 409.543,123.744 416.377,108.41 417.5,90.5C 418.907,78.8094 414.24,70.6427 403.5,66C 389.311,63.6399 375.978,65.9733 363.5,73C 343.144,86.673 328.478,105.006 319.5,128C 323.076,132.082 327.076,135.582 331.5,138.5C 341.934,148.595 351.601,159.261 360.5,170.5C 363.474,175.149 366.474,179.816 369.5,184.5C 377.662,198.493 384.996,212.826 391.5,227.5C 414.835,309.28 391.168,373.447 320.5,420C 272.32,448.064 221.32,454.731 167.5,440C 149.631,432.599 131.297,426.599 112.5,422C 87.2857,418.402 66.4524,426.235 50,445.5C 42.1807,460.416 44.3474,473.916 56.5,486C 71.7018,495.922 87.0351,495.922 102.5,486C 107.755,482.749 112.422,478.749 116.5,474C 124.867,469.029 130.2,471.195 132.5,480.5C 132.423,482.299 131.923,483.966 131,485.5C 119.455,498.564 105.288,507.231 88.5,511.5C 81.5,511.5 74.5,511.5 67.5,511.5C 36.8578,501.572 24.0245,480.572 29,448.5C 30.1146,444.271 31.7813,440.271 34,436.5C 42.8295,426.67 50.4962,416.004 57,404.5C 62.865,387.438 62.5317,370.438 56,353.5C 50.7996,339.565 45.7996,325.565 41,311.5C 33.127,279.993 32.4604,248.326 39,216.5C 39.1812,208.149 43.3478,204.149 51.5,204.5C 54.8734,206.372 56.8734,209.205 57.5,213C 54.6938,223.019 53.1938,233.186 53,243.5C 58.1173,245.643 63.284,247.643 68.5,249.5C 114.389,270.535 153.556,300.535 186,339.5C 191.236,349.923 188.069,354.756 176.5,354C 150.374,323.194 120.04,297.528 85.5,277C 74.7413,271.287 63.7413,266.12 52.5,261.5C 52.0104,274.264 53.1771,286.931 56,299.5C 61.4353,317.035 67.4353,334.369 74,351.5C 79.7031,369.648 79.8698,387.815 74.5,406C 74.8333,406.5 75.1667,407 75.5,407.5C 79.6105,405.555 83.9438,404.389 88.5,404C 96.5,403.333 104.5,403.333 112.5,404C 120.58,405.687 128.58,407.687 136.5,410C 151.555,416.129 166.888,421.463 182.5,426C 225.133,434.69 265.799,429.19 304.5,409.5C 299.297,390.755 292.131,372.755 283,355.5C 282.055,345.773 286.222,342.273 295.5,345C 296.333,345.833 297.167,346.667 298,347.5C 306.596,364.161 314.096,381.161 320.5,398.5C 343.696,382.307 361.029,361.307 372.5,335.5C 361.05,309.253 346.55,284.919 329,262.5C 325.456,255.171 327.456,250.505 335,248.5C 338.855,248.595 341.855,250.262 344,253.5C 357.503,271.827 369.503,291.16 380,311.5C 384.768,291.649 384.602,271.983 379.5,252.5C 371.594,219.015 356.094,189.682 333,164.5C 323.269,154.1 312.936,144.433 302,135.5C 299.991,132.05 300.158,128.717 302.5,125.5C 307.349,112.802 313.516,100.802 321,89.5C 328.046,80.6276 335.546,72.2943 343.5,64.5C 356.363,55.3755 370.697,49.8755 386.5,48C 416.863,45.0369 433.196,58.7035 435.5,89C 435.145,103.924 431.145,117.757 423.5,130.5C 441.247,133.377 456.913,140.544 470.5,152C 481.658,162.476 485.825,175.309 483,190.5C 473.704,212.961 457.204,226.961 433.5,232.5C 429.335,232.425 426.668,230.425 425.5,226.5 Z"/></g>
<g><path style="opacity:1" fill="#d7fcbd" d="M 417.5,90.5 C 400.537,86.5706 384.537,89.0706 369.5,98C 353.187,108.144 340.521,121.644 331.5,138.5C 327.076,135.582 323.076,132.082 319.5,128C 328.478,105.006 343.144,86.673 363.5,73C 375.978,65.9733 389.311,63.6399 403.5,66C 414.24,70.6427 418.907,78.8094 417.5,90.5 Z"/></g>
<g><path style="opacity:1" fill="#bdf890" d="M 417.5,90.5 C 416.377,108.41 409.543,123.744 397,136.5C 391.667,141.167 386.333,145.833 381,150.5C 380.366,153.555 380.532,156.555 381.5,159.5C 374.592,163.453 367.592,167.12 360.5,170.5C 351.601,159.261 341.934,148.595 331.5,138.5C 340.521,121.644 353.187,108.144 369.5,98C 384.537,89.0706 400.537,86.5706 417.5,90.5 Z"/></g>
<g><path style="opacity:1" fill="#fdf1e2" d="M 283.5,113.5 C 289.656,117.747 295.99,121.747 302.5,125.5C 300.158,128.717 299.991,132.05 302,135.5C 312.936,144.433 323.269,154.1 333,164.5C 356.094,189.682 371.594,219.015 379.5,252.5C 377.228,253.764 374.895,253.598 372.5,252C 338.748,201.079 292.082,168.913 232.5,155.5C 237.753,150.709 237.753,145.875 232.5,141C 213.086,126.421 192.753,113.254 171.5,101.5C 207.044,94.9876 240.711,100.488 272.5,118C 274.167,118.667 275.833,118.667 277.5,118C 279.66,116.668 281.66,115.168 283.5,113.5 Z"/></g>
<g><path style="opacity:1" fill="#fdf1e2" d="M 220.5,153.5 C 197.397,152.129 175.064,155.962 153.5,165C 144.128,169.35 135.128,174.183 126.5,179.5C 112.192,172.849 97.5252,167.016 82.5,162C 98.3162,139.274 118.65,121.941 143.5,110C 146.257,109.416 148.923,109.75 151.5,111C 175.973,123.013 198.973,137.18 220.5,153.5 Z"/></g>
<g><path style="opacity:1" fill="#9be962" d="M 417.5,148.5 C 417.167,149.833 416.833,151.167 416.5,152.5C 403.132,166.365 387.465,177.032 369.5,184.5C 366.474,179.816 363.474,175.149 360.5,170.5C 367.592,167.12 374.592,163.453 381.5,159.5C 384.592,162.355 388.259,163.188 392.5,162C 398.123,158.045 403.457,153.712 408.5,149C 411.482,148.502 414.482,148.335 417.5,148.5 Z"/></g>
<g><path style="opacity:1" fill="#d6fbbb" d="M 417.5,148.5 C 434.471,149.319 448.971,155.652 461,167.5C 469.423,179.616 467.923,190.283 456.5,199.5C 451.981,177.467 438.981,162.633 417.5,155C 416.748,154.329 416.414,153.496 416.5,152.5C 416.833,151.167 417.167,149.833 417.5,148.5 Z"/></g>
<g><path style="opacity:1" fill="#feead1" d="M 220.5,153.5 C 224.101,156.491 228.101,157.157 232.5,155.5C 292.082,168.913 338.748,201.079 372.5,252C 374.895,253.598 377.228,253.764 379.5,252.5C 384.602,271.983 384.768,291.649 380,311.5C 369.503,291.16 357.503,271.827 344,253.5C 341.855,250.262 338.855,248.595 335,248.5C 327.456,250.505 325.456,255.171 329,262.5C 346.55,284.919 361.05,309.253 372.5,335.5C 361.029,361.307 343.696,382.307 320.5,398.5C 314.096,381.161 306.596,364.161 298,347.5C 297.167,346.667 296.333,345.833 295.5,345C 286.222,342.273 282.055,345.773 283,355.5C 292.131,372.755 299.297,390.755 304.5,409.5C 265.799,429.19 225.133,434.69 182.5,426C 166.888,421.463 151.555,416.129 136.5,410C 128.58,407.687 120.58,405.687 112.5,404C 104.5,403.333 96.5,403.333 88.5,404C 83.9438,404.389 79.6105,405.555 75.5,407.5C 75.1667,407 74.8333,406.5 74.5,406C 79.8698,387.815 79.7031,369.648 74,351.5C 67.4353,334.369 61.4353,317.035 56,299.5C 53.1771,286.931 52.0104,274.264 52.5,261.5C 63.7413,266.12 74.7413,271.287 85.5,277C 120.04,297.528 150.374,323.194 176.5,354C 188.069,354.756 191.236,349.923 186,339.5C 153.556,300.535 114.389,270.535 68.5,249.5C 69.3764,249.631 70.0431,249.298 70.5,248.5C 80.7931,226.904 94.4598,207.904 111.5,191.5C 115.144,193.572 118.978,195.238 123,196.5C 125.321,196.091 127.487,195.257 129.5,194C 132.791,188.169 131.791,183.336 126.5,179.5C 135.128,174.183 144.128,169.35 153.5,165C 175.064,155.962 197.397,152.129 220.5,153.5 Z"/></g>
<g><path style="opacity:1" fill="#bdf990" d="M 416.5,152.5 C 416.414,153.496 416.748,154.329 417.5,155C 438.981,162.633 451.981,177.467 456.5,199.5C 449.135,207.523 440.135,213.023 429.5,216C 425.952,218.591 424.618,222.091 425.5,226.5C 414.216,228.58 402.883,228.914 391.5,227.5C 384.996,212.826 377.662,198.493 369.5,184.5C 387.465,177.032 403.132,166.365 416.5,152.5 Z"/></g>
<g><path style="opacity:1" fill="#fdf1e2" d="M 63.5,174.5 C 79.9369,178.979 95.9369,184.645 111.5,191.5C 94.4598,207.904 80.7931,226.904 70.5,248.5C 70.0431,249.298 69.3764,249.631 68.5,249.5C 63.284,247.643 58.1173,245.643 53,243.5C 53.1938,233.186 54.6938,223.019 57.5,213C 56.8734,209.205 54.8734,206.372 51.5,204.5C 54.9128,194.261 58.9128,184.261 63.5,174.5 Z"/></g>
<g><path style="opacity:1" fill="#060505" d="M 237.5,272.5 C 241.131,272.16 244.464,272.994 247.5,275C 253.333,282.167 259.167,289.333 265,296.5C 266.828,307.008 262.662,310.841 252.5,308C 247.375,301.207 241.875,294.707 236,288.5C 231.069,282.657 231.569,277.324 237.5,272.5 Z"/></g>
</svg>
