<?xml version="1.0" encoding="UTF-8"?>
<!DOCTYPE svg PUBLIC "-//W3C//DTD SVG 1.1//EN" "http://www.w3.org/Graphics/SVG/1.1/DTD/svg11.dtd">
<svg xmlns="http://www.w3.org/2000/svg" version="1.1" width="512px" height="512px" style="shape-rendering:geometricPrecision; text-rendering:geometricPrecision; image-rendering:optimizeQuality; fill-rule:evenodd; clip-rule:evenodd" xmlns:xlink="http://www.w3.org/1999/xlink">
<g><path style="opacity:0.971" fill="#2b2b2b" d="M 350.5,12.5 C 377.029,12.3371 396.196,24.0038 408,47.5C 410.245,54.3509 410.912,61.3509 410,68.5C 406.573,78.6827 403.739,89.016 401.5,99.5C 404.602,111.065 405.102,122.731 403,134.5C 401.112,139.945 398.445,144.945 395,149.5C 388.613,155.887 382.279,162.221 376,168.5C 372.585,176.229 369.918,184.229 368,192.5C 362.921,200.914 356.421,208.081 348.5,214C 335.212,220.556 323.046,228.722 312,238.5C 302.621,255.434 292.121,271.6 280.5,287C 281.167,287.667 281.833,287.667 282.5,287C 301.167,272.333 319.833,257.667 338.5,243C 352.286,229.886 365.286,216.219 377.5,202C 385.632,195.92 394.465,194.42 404,197.5C 408.833,192.667 413.667,187.833 418.5,183C 432.406,171.352 448.072,168.019 465.5,173C 487.171,184.328 494.671,201.828 488,225.5C 480.502,238.682 469.335,247.182 454.5,251C 450.241,254.358 447.074,258.525 445,263.5C 433.333,277.707 418.833,281.874 401.5,276C 397.962,280.016 393.795,283.183 389,285.5C 391.874,309.337 381.374,323.837 357.5,329C 353.179,329.499 348.846,329.666 344.5,329.5C 342.599,339.237 336.933,345.737 327.5,349C 322.159,350.844 316.659,351.677 311,351.5C 302.408,351.04 293.908,349.874 285.5,348C 273.602,346.69 261.935,347.69 250.5,351C 243.206,356.626 236.206,362.626 229.5,369C 236.089,367.69 242.756,366.357 249.5,365C 253.833,364.333 258.167,364.333 262.5,365C 265.333,368.663 265,371.996 261.5,375C 245.108,376.019 230.108,381.019 216.5,390C 233.137,406.562 238.304,426.062 232,448.5C 218.244,475.963 196.077,487.463 165.5,483C 160.363,481.732 155.363,480.066 150.5,478C 141.761,472.268 132.761,466.935 123.5,462C 117.296,459.083 110.963,458.416 104.5,460C 101.433,463.297 99.2666,467.131 98,471.5C 97.5265,480.064 95.1931,488.064 91,495.5C 85.7332,498.783 82.2332,497.449 80.5,491.5C 83.6656,485.332 85.6656,478.832 86.5,472C 75.1944,473.443 63.8611,475.11 52.5,477C 45.5963,478.783 39.5963,482.117 34.5,487C 25.5,488.333 23.1667,485 27.5,477C 34.8982,471.135 43.2315,467.135 52.5,465C 61.5329,463.885 70.5329,462.552 79.5,461C 97.4947,456.095 103.661,444.595 98,426.5C 94.2784,415.392 90.2784,404.392 86,393.5C 79.0548,367.327 86.5548,346.494 108.5,331C 135.205,317.94 158.039,322.774 177,345.5C 195.044,327.535 202.21,305.869 198.5,280.5C 198.882,274.845 201.882,273.011 207.5,275C 209.004,276.491 209.837,278.324 210,280.5C 210.667,289.167 210.667,297.833 210,306.5C 208.833,310.813 208.166,315.147 208,319.5C 220.936,306.922 232.936,293.588 244,279.5C 251.891,263.459 253.558,246.792 249,229.5C 245.446,223.06 242.446,216.393 240,209.5C 239.333,204.5 239.333,199.5 240,194.5C 242.02,189.157 244.853,184.324 248.5,180C 235.587,164.783 235.42,149.283 248,133.5C 258.548,123.762 271.048,119.595 285.5,121C 292.239,114.357 297.073,106.524 300,97.5C 300.667,92.1667 300.667,86.8333 300,81.5C 293.459,54.4276 301.959,33.5943 325.5,19C 333.606,15.3915 341.939,13.2249 350.5,12.5 Z M 274.5,274.5 C 258.611,297.572 240.277,318.739 219.5,338C 210.051,345.815 200.884,353.981 192,362.5C 189.46,360.295 187.293,357.795 185.5,355C 211.019,334.981 233.685,312.148 253.5,286.5C 261.016,283.247 268.016,279.247 274.5,274.5 Z M 249.5,326.5 C 247.68,331.479 245.847,336.479 244,341.5C 229.778,352.049 216.445,363.715 204,376.5C 201.885,374.938 200.885,372.938 201,370.5C 217.037,355.627 233.204,340.96 249.5,326.5 Z"/></g>
<g><path style="opacity:1" fill="#709955" d="M 344.5,23.5 C 367.639,21.1534 385.139,29.8201 397,49.5C 398.467,53.3697 399.301,57.3697 399.5,61.5C 397.894,71.0534 395.394,80.3867 392,89.5C 391.786,102.533 392.119,115.533 393,128.5C 391.891,132.719 390.225,136.719 388,140.5C 380.357,147.811 373.024,155.477 366,163.5C 362.126,171.122 359.459,179.122 358,187.5C 354.598,194.237 349.765,199.737 343.5,204C 337.37,207.3 331.37,210.8 325.5,214.5C 325.167,214.167 324.833,213.833 324.5,213.5C 349.088,164.907 364.255,113.574 370,59.5C 366.626,56.5948 363.626,56.9281 361,60.5C 353.671,113.159 338.005,163.159 314,210.5C 313.345,203.89 311.679,197.557 309,191.5C 301.427,181.022 295.427,169.689 291,157.5C 288.018,146.577 289.351,136.244 295,126.5C 305.924,116.399 311.424,103.899 311.5,89C 310.513,80.6893 309.513,72.356 308.5,64C 311.54,42.4641 323.54,28.9641 344.5,23.5 Z"/></g>
<g><path style="opacity:1" fill="#6f9955" d="M 269.5,132.5 C 273.167,132.5 276.833,132.5 280.5,132.5C 277.744,149.149 280.577,164.815 289,179.5C 295.237,187.306 299.903,195.972 303,205.5C 303.667,214.167 303.667,222.833 303,231.5C 292.961,244.539 281.294,255.873 268,265.5C 273.529,254.096 278.863,242.429 284,230.5C 288.13,220.738 290.63,210.571 291.5,200C 291.911,194.743 289.578,192.743 284.5,194C 283.667,194.833 282.833,195.667 282,196.5C 278.642,215.576 272.308,233.576 263,250.5C 262.83,243.77 262.163,237.103 261,230.5C 258.215,222.929 254.881,215.595 251,208.5C 249.105,204.148 249.105,199.815 251,195.5C 253.333,192.5 255.667,189.5 258,186.5C 261.093,178.901 259.426,172.568 253,167.5C 248.133,158.258 249.133,149.591 256,141.5C 259.882,137.429 264.382,134.429 269.5,132.5 Z"/></g>
<g><path style="opacity:1" fill="#709955" d="M 443.5,181.5 C 459.162,179.746 470.662,185.746 478,199.5C 481.443,212.564 478.276,223.73 468.5,233C 460.673,236.279 453.006,239.945 445.5,244C 440.592,249.819 435.925,255.819 431.5,262C 422.123,268.901 412.456,269.234 402.5,263C 400.833,262.333 399.167,262.333 397.5,263C 393.643,269.195 388.309,273.528 381.5,276C 379.333,276.167 377.167,276.333 375,276.5C 362.625,273.282 350.125,270.449 337.5,268C 367.649,251.093 399.316,237.76 432.5,228C 435.747,221.574 433.747,218.574 426.5,219C 398.498,227.548 371.498,238.214 345.5,251C 351.969,245.532 358.136,239.699 364,233.5C 369.793,226.039 375.959,218.872 382.5,212C 386.381,209.059 390.714,207.225 395.5,206.5C 398.229,206.295 400.562,207.128 402.5,209C 404.5,209.667 406.5,209.667 408.5,209C 418.032,196.952 429.698,187.785 443.5,181.5 Z"/></g>
<g><path style="opacity:1" fill="#6f9955" d="M 318.5,278.5 C 327.879,278.224 337.212,278.724 346.5,280C 356.667,283.415 367,286.249 377.5,288.5C 380.111,305.425 372.778,315.258 355.5,318C 349.5,318.333 343.5,318.667 337.5,319C 336.667,319.833 335.833,320.667 335,321.5C 334.343,332.492 328.51,338.658 317.5,340C 311.833,340.667 306.167,340.667 300.5,340C 290.969,337.689 281.303,336.356 271.5,336C 293.948,321.859 317.448,309.692 342,299.5C 343.267,295.269 341.767,292.602 337.5,291.5C 324.942,296.112 312.608,301.279 300.5,307C 287.156,314.16 274.156,321.493 261.5,329C 268.316,317.51 276.649,307.176 286.5,298C 297.095,291.208 307.762,284.708 318.5,278.5 Z"/></g>
<g><path style="opacity:1" fill="#b2456b" d="M 162.5,346.5 C 153.46,345.238 145.127,347.071 137.5,352C 133.332,355.336 129.332,358.836 125.5,362.5C 121.051,354.215 120.384,345.548 123.5,336.5C 138.315,332.433 151.315,335.767 162.5,346.5 Z"/></g>
<g><path style="opacity:1" fill="#e8b097" d="M 123.5,336.5 C 120.384,345.548 121.051,354.215 125.5,362.5C 125.5,362.833 125.5,363.167 125.5,363.5C 116.594,371.978 111.428,382.311 110,394.5C 119.099,405.022 128.433,415.356 138,425.5C 139.46,429.819 138.126,432.819 134,434.5C 132.775,434.138 131.609,433.638 130.5,433C 122.647,424.782 115.147,416.282 108,407.5C 108.04,414.342 109.373,421.009 112,427.5C 116.43,436.039 121.596,444.039 127.5,451.5C 121.668,449.543 115.668,448.543 109.5,448.5C 110.904,440.478 110.737,432.478 109,424.5C 104.137,410.913 99.4708,397.246 95,383.5C 92.9325,365.137 99.4325,350.637 114.5,340C 117.309,338.259 120.309,337.092 123.5,336.5 Z"/></g>
<g><path style="opacity:1" fill="#f8809f" d="M 162.5,346.5 C 181.841,367.678 200.675,389.345 219,411.5C 223.574,420.7 224.74,430.367 222.5,440.5C 213.753,448.301 204.087,449.468 193.5,444C 162.687,424.022 140.02,397.189 125.5,363.5C 125.5,363.167 125.5,362.833 125.5,362.5C 129.332,358.836 133.332,355.336 137.5,352C 145.127,347.071 153.46,345.238 162.5,346.5 Z"/></g>
<g><path style="opacity:1" fill="#fdecc6" d="M 125.5,363.5 C 140.02,397.189 162.687,424.022 193.5,444C 204.087,449.468 213.753,448.301 222.5,440.5C 216.628,459.783 203.628,470.617 183.5,473C 176.351,473.912 169.351,473.245 162.5,471C 150.667,464.636 139,458.136 127.5,451.5C 121.596,444.039 116.43,436.039 112,427.5C 109.373,421.009 108.04,414.342 108,407.5C 115.147,416.282 122.647,424.782 130.5,433C 131.609,433.638 132.775,434.138 134,434.5C 138.126,432.819 139.46,429.819 138,425.5C 128.433,415.356 119.099,405.022 110,394.5C 111.428,382.311 116.594,371.978 125.5,363.5 Z"/></g>
<g><path style="opacity:1" fill="#eab399" d="M 149.5,443.5 C 156.968,444.674 158.301,448.174 153.5,454C 148.178,454.34 146.011,451.84 147,446.5C 148.045,445.627 148.878,444.627 149.5,443.5 Z"/></g>
</svg>
