<?xml version="1.0" encoding="UTF-8"?>
<!DOCTYPE svg PUBLIC "-//W3C//DTD SVG 1.1//EN" "http://www.w3.org/Graphics/SVG/1.1/DTD/svg11.dtd">
<svg xmlns="http://www.w3.org/2000/svg" version="1.1" width="512px" height="512px" style="shape-rendering:geometricPrecision; text-rendering:geometricPrecision; image-rendering:optimizeQuality; fill-rule:evenodd; clip-rule:evenodd" xmlns:xlink="http://www.w3.org/1999/xlink">
<g><path style="opacity:0.982" fill="#020201" d="M 511.5,240.5 C 511.5,245.167 511.5,249.833 511.5,254.5C 508.973,261.365 504.306,266.365 497.5,269.5C 496.667,285.823 496.167,302.156 496,318.5C 494.096,331.886 489.263,344.053 481.5,355C 478.649,356.289 475.649,356.789 472.5,356.5C 472.315,354.804 471.481,353.471 470,352.5C 469.333,350.167 469.333,347.833 470,345.5C 475.449,336.153 479.116,326.153 481,315.5C 481.5,300.504 481.667,285.504 481.5,270.5C 354.833,270.667 228.166,270.5 101.5,270C 99.5359,268.549 98.2026,266.716 97.5,264.5C 96.8258,260.683 98.1592,257.85 101.5,256C 231.5,255.667 361.5,255.333 491.5,255C 495.861,252.774 497.361,249.274 496,244.5C 494.786,242.951 493.286,241.785 491.5,241C 457.167,240.667 422.833,240.333 388.5,240C 385.156,238.106 383.822,235.273 384.5,231.5C 384.738,228.852 386.072,227.018 388.5,226C 401.496,225.5 414.496,225.333 427.5,225.5C 427.667,197.498 427.5,169.498 427,141.5C 424.518,136.182 420.351,133.515 414.5,133.5C 410.626,134.435 406.96,135.935 403.5,138C 362.663,161.919 321.663,185.586 280.5,209C 273.693,212.449 271.026,217.949 272.5,225.5C 301.502,225.333 330.502,225.5 359.5,226C 361.644,226.792 362.977,228.292 363.5,230.5C 364.542,235.133 362.875,238.299 358.5,240C 253.501,240.5 148.501,240.667 43.5,240.5C 35.16,240.334 26.8267,240.5 18.5,241C 13.5639,244.958 13.2305,249.291 17.5,254C 35.0726,255.473 52.7393,255.973 70.5,255.5C 75.2075,256.559 77.2075,259.559 76.5,264.5C 75.7457,267.091 74.079,268.924 71.5,270C 62.5062,270.5 53.5062,270.666 44.5,270.5C 39.5,270.5 34.5,270.5 29.5,270.5C 29.3334,285.504 29.5001,300.504 30,315.5C 37.5089,351.009 59.0089,372.509 94.5,380C 125.5,380.333 156.5,380.667 187.5,381C 190.821,382.812 192.155,385.645 191.5,389.5C 190.746,392.091 189.079,393.924 186.5,395C 170.17,395.5 153.837,395.667 137.5,395.5C 130.833,395.5 124.167,395.5 117.5,395.5C 117.334,399.846 117.501,404.179 118,408.5C 118.5,409 119,409.5 119.5,410C 210.334,410.832 301.001,410.666 391.5,409.5C 392.117,409.389 392.617,409.056 393,408.5C 393.499,404.179 393.666,399.846 393.5,395.5C 334.499,395.667 275.499,395.5 216.5,395C 214.536,393.549 213.203,391.716 212.5,389.5C 211.845,385.645 213.179,382.812 216.5,381C 281.833,380.667 347.167,380.333 412.5,380C 425.961,378.846 438.294,374.513 449.5,367C 453.327,366.024 456.66,366.857 459.5,369.5C 460.885,372.546 460.719,375.546 459,378.5C 444.073,389.642 427.24,395.309 408.5,395.5C 408.877,402.257 408.377,408.924 407,415.5C 404.773,420.06 401.273,423.226 396.5,425C 302.5,425.667 208.5,425.667 114.5,425C 109.727,423.226 106.227,420.06 104,415.5C 102.623,408.924 102.123,402.257 102.5,395.5C 57.1219,392.053 28.2886,368.386 16,324.5C 14.9151,306.194 14.0818,287.861 13.5,269.5C 6.69416,266.365 2.0275,261.365 -0.5,254.5C -0.5,249.833 -0.5,245.167 -0.5,240.5C 3.45265,231.891 10.1193,226.557 19.5,224.5C 16.016,217.532 13.6827,210.199 12.5,202.5C 14.2851,185.214 23.7851,175.881 41,174.5C 49.8246,175.642 58.6579,176.642 67.5,177.5C 67.3335,168.161 67.5002,158.827 68,149.5C 73.7205,129.721 86.5538,122.554 106.5,128C 118.749,135.041 130.916,142.207 143,149.5C 146.267,138.973 150.601,128.973 156,119.5C 167.678,109.414 180.178,108.247 193.5,116C 199.117,122.073 204.617,128.239 210,134.5C 218,121.167 226,107.833 234,94.5C 244.045,85.1654 255.545,82.9987 268.5,88C 270.5,89.3333 272.5,90.6667 274.5,92C 282.126,102.746 289.126,113.912 295.5,125.5C 301.652,119.848 307.652,114.015 313.5,108C 328.006,100.432 340.84,102.599 352,114.5C 356.254,124.176 359.587,134.176 362,144.5C 376.085,136.207 390.252,128.04 404.5,120C 422.073,115.205 434.573,121.039 442,137.5C 443.381,150.788 443.881,164.121 443.5,177.5C 452.342,176.642 461.175,175.642 470,174.5C 487.215,175.881 496.715,185.214 498.5,202.5C 497.317,210.199 494.984,217.532 491.5,224.5C 500.881,226.557 507.547,231.891 511.5,240.5 Z"/></g>
<g><path style="opacity:1" fill="#fccf5a" d="M 300.5,166.5 C 288.888,172.976 277.221,179.476 265.5,186C 250.97,194.704 243.97,207.537 244.5,224.5C 221.994,224.831 199.66,224.497 177.5,223.5C 200.362,183.612 223.362,143.779 246.5,104C 252.768,99.3213 258.934,99.4879 265,104.5C 277.098,125.031 288.931,145.698 300.5,166.5 Z"/></g>
<g><path style="opacity:1" fill="#fcc143" d="M 344.5,140.5 C 334.167,146.5 323.833,152.5 313.5,158.5C 309.978,152.802 306.645,146.969 303.5,141C 309.455,134.043 315.789,127.376 322.5,121C 330.255,117.741 336.422,119.574 341,126.5C 342.484,131.101 343.65,135.768 344.5,140.5 Z"/></g>
<g><path style="opacity:1" fill="#fbc043" d="M 193.5,139.5 C 188.477,150.235 182.477,160.235 175.5,169.5C 168.68,166.258 162.347,162.258 156.5,157.5C 159.568,149.128 162.735,140.794 166,132.5C 170.563,126.441 176.397,124.941 183.5,128C 187.416,131.41 190.749,135.243 193.5,139.5 Z"/></g>
<g><path style="opacity:1" fill="#0e0b05" d="M 250.5,126.5 C 256.766,125.117 260.433,127.45 261.5,133.5C 259.171,142.207 254.671,143.54 248,137.5C 245.826,133.193 246.659,129.526 250.5,126.5 Z"/></g>
<g><path style="opacity:1" fill="#fccf5a" d="M 384.5,231.5 C 377.302,233.14 370.302,232.807 363.5,230.5C 362.977,228.292 361.644,226.792 359.5,226C 330.502,225.5 301.502,225.333 272.5,225.5C 271.026,217.949 273.693,212.449 280.5,209C 321.663,185.586 362.663,161.919 403.5,138C 406.96,135.935 410.626,134.435 414.5,133.5C 420.351,133.515 424.518,136.182 427,141.5C 427.5,169.498 427.667,197.498 427.5,225.5C 414.496,225.333 401.496,225.5 388.5,226C 386.072,227.018 384.738,228.852 384.5,231.5 Z"/></g>
<g><path style="opacity:1" fill="#f8ae36" d="M 193.5,139.5 C 196.635,142.808 199.635,146.308 202.5,150C 197.278,158.952 191.945,167.786 186.5,176.5C 182.599,174.392 178.933,172.059 175.5,169.5C 182.477,160.235 188.477,150.235 193.5,139.5 Z"/></g>
<g><path style="opacity:1" fill="#fbce59" d="M 168.5,183.5 C 160.845,196.806 153.178,210.139 145.5,223.5C 150.12,224.493 154.786,224.827 159.5,224.5C 134.005,225.498 108.339,225.831 82.5,225.5C 82.3334,200.831 82.5,176.164 83,151.5C 87.8623,140.838 95.3623,138.671 105.5,145C 126.564,157.859 147.564,170.692 168.5,183.5 Z"/></g>
<g><path style="opacity:1" fill="#f8ae35" d="M 344.5,140.5 C 346.449,144.629 347.283,148.962 347,153.5C 338,158.833 329,164.167 320,169.5C 317.822,165.806 315.655,162.139 313.5,158.5C 323.833,152.5 334.167,146.5 344.5,140.5 Z"/></g>
<g><path style="opacity:1" fill="#0b0803" d="M 235.5,152.5 C 241.766,151.117 245.433,153.45 246.5,159.5C 245.647,166.103 241.98,168.27 235.5,166C 230.248,161.506 230.248,157.006 235.5,152.5 Z"/></g>
<g><path style="opacity:1" fill="#0a0703" d="M 265.5,151.5 C 275.11,151.936 277.776,156.436 273.5,165C 264.319,168.325 260.485,165.158 262,155.5C 263.376,154.295 264.542,152.962 265.5,151.5 Z"/></g>
<g><path style="opacity:1" fill="#0d0a04" d="M 401.5,155.5 C 408.568,155.261 411.734,158.595 411,165.5C 408.774,169.861 405.274,171.361 400.5,170C 395.003,164.683 395.336,159.85 401.5,155.5 Z"/></g>
<g><path style="opacity:1" fill="#060402" d="M 100.5,165.5 C 111.818,164.99 114.485,169.49 108.5,179C 102.24,180.879 98.5729,178.712 97.5,172.5C 97.6946,169.782 98.6946,167.449 100.5,165.5 Z"/></g>
<g><path style="opacity:1" fill="#fcc043" d="M 300.5,166.5 C 302.835,169.531 304.835,172.865 306.5,176.5C 293.998,184.252 281.332,191.752 268.5,199C 262.379,203.747 258.712,209.914 257.5,217.5C 256.532,219.607 256.198,221.941 256.5,224.5C 252.5,224.5 248.5,224.5 244.5,224.5C 243.97,207.537 250.97,194.704 265.5,186C 277.221,179.476 288.888,172.976 300.5,166.5 Z"/></g>
<g><path style="opacity:1" fill="#0c0904" d="M 375.5,170.5 C 382.568,170.261 385.734,173.595 385,180.5C 382.774,184.861 379.274,186.361 374.5,185C 369.003,179.683 369.336,174.85 375.5,170.5 Z"/></g>
<g><path style="opacity:1" fill="#080602" d="M 126.5,180.5 C 134.201,180.362 137.367,184.029 136,191.5C 131.537,196.741 127.204,196.741 123,191.5C 121.518,186.774 122.685,183.107 126.5,180.5 Z"/></g>
<g><path style="opacity:1" fill="#fbc043" d="M 168.5,183.5 C 172.441,185.14 176.108,187.306 179.5,190C 172.948,201.609 166.281,213.109 159.5,224.5C 154.786,224.827 150.12,224.493 145.5,223.5C 153.178,210.139 160.845,196.806 168.5,183.5 Z"/></g>
<g><path style="opacity:1" fill="#070502" d="M 399.5,185.5 C 409.745,184.57 412.745,188.736 408.5,198C 399.249,201.416 395.415,198.25 397,188.5C 398.045,187.627 398.878,186.627 399.5,185.5 Z"/></g>
<g><path style="opacity:1" fill="#fcc143" d="M 53.5,191.5 C 54.4766,202.419 54.8099,213.419 54.5,224.5C 48.5,224.5 42.5,224.5 36.5,224.5C 31.9311,216.381 29.4311,207.714 29,198.5C 30.1049,195.063 32.2716,192.563 35.5,191C 41.5368,190.303 47.5368,190.47 53.5,191.5 Z"/></g>
<g><path style="opacity:1" fill="#fcc143" d="M 474.5,224.5 C 468.167,224.5 461.833,224.5 455.5,224.5C 455.19,213.419 455.523,202.419 456.5,191.5C 462.797,190.461 469.13,190.294 475.5,191C 481.061,194.29 483.227,199.123 482,205.5C 479.786,211.981 477.286,218.314 474.5,224.5 Z"/></g>
<g><path style="opacity:1" fill="#f3ab35" d="M 53.5,191.5 C 58.1831,192.074 62.8498,192.74 67.5,193.5C 67.5,204.167 67.5,214.833 67.5,225.5C 56.9865,225.828 46.6532,225.494 36.5,224.5C 42.5,224.5 48.5,224.5 54.5,224.5C 54.8099,213.419 54.4766,202.419 53.5,191.5 Z"/></g>
<g><path style="opacity:1" fill="#f6ad36" d="M 456.5,191.5 C 455.523,202.419 455.19,213.419 455.5,224.5C 461.833,224.5 468.167,224.5 474.5,224.5C 464.013,225.494 453.346,225.828 442.5,225.5C 442.5,214.833 442.5,204.167 442.5,193.5C 447.15,192.74 451.817,192.074 456.5,191.5 Z"/></g>
<g><path style="opacity:1" fill="#070502" d="M 329.5,198.5 C 337.885,197.716 341.051,201.383 339,209.5C 334.667,213.5 330.333,213.5 326,209.5C 324.518,204.774 325.685,201.107 329.5,198.5 Z"/></g>
<g><path style="opacity:1" fill="#0e0a04" d="M 210.5,198.5 C 218.164,197.666 221.664,201 221,208.5C 216.701,214.496 212.034,214.829 207,209.5C 205.662,204.96 206.829,201.293 210.5,198.5 Z"/></g>
<g><path style="opacity:1" fill="#d9b04a" d="M 257.5,217.5 C 257.5,220.167 257.5,222.833 257.5,225.5C 230.492,225.833 203.492,225.5 176.5,224.5C 176.624,223.893 176.957,223.56 177.5,223.5C 199.66,224.497 221.994,224.831 244.5,224.5C 248.5,224.5 252.5,224.5 256.5,224.5C 256.198,221.941 256.532,219.607 257.5,217.5 Z"/></g>
<g><path style="opacity:1" fill="#99e39b" d="M 363.5,230.5 C 370.302,232.807 377.302,233.14 384.5,231.5C 383.822,235.273 385.156,238.106 388.5,240C 422.833,240.333 457.167,240.667 491.5,241C 493.286,241.785 494.786,242.951 496,244.5C 497.361,249.274 495.861,252.774 491.5,255C 361.5,255.333 231.5,255.667 101.5,256C 98.1592,257.85 96.8258,260.683 97.5,264.5C 94.2622,263.252 90.7622,262.585 87,262.5C 83.2378,262.585 79.7378,263.252 76.5,264.5C 77.2075,259.559 75.2075,256.559 70.5,255.5C 61.6822,254.507 52.6822,254.173 43.5,254.5C 43.5,249.833 43.5,245.167 43.5,240.5C 148.501,240.667 253.501,240.5 358.5,240C 362.875,238.299 364.542,235.133 363.5,230.5 Z"/></g>
<g><path style="opacity:1" fill="#8cd79e" d="M 43.5,240.5 C 43.5,245.167 43.5,249.833 43.5,254.5C 52.6822,254.173 61.6822,254.507 70.5,255.5C 52.7393,255.973 35.0726,255.473 17.5,254C 13.2305,249.291 13.5639,244.958 18.5,241C 26.8267,240.5 35.16,240.334 43.5,240.5 Z"/></g>
<g><path style="opacity:1" fill="#baf39a" d="M 97.5,264.5 C 98.2026,266.716 99.5359,268.549 101.5,270C 228.166,270.5 354.833,270.667 481.5,270.5C 481.667,285.504 481.5,300.504 481,315.5C 479.116,326.153 475.449,336.153 470,345.5C 469.333,347.833 469.333,350.167 470,352.5C 471.481,353.471 472.315,354.804 472.5,356.5C 469.527,360.14 466.194,363.473 462.5,366.5C 346.001,365.667 229.334,365.167 112.5,365C 75.1014,356.268 52.6014,333.102 45,295.5C 44.5003,287.173 44.3336,278.84 44.5,270.5C 53.5062,270.666 62.5062,270.5 71.5,270C 74.079,268.924 75.7457,267.091 76.5,264.5C 79.7378,263.252 83.2378,262.585 87,262.5C 90.7622,262.585 94.2622,263.252 97.5,264.5 Z"/></g>
<g><path style="opacity:1" fill="#9ae49b" d="M 44.5,270.5 C 44.3336,278.84 44.5003,287.173 45,295.5C 52.6014,333.102 75.1014,356.268 112.5,365C 229.334,365.167 346.001,365.667 462.5,366.5C 461.306,367.272 460.306,368.272 459.5,369.5C 456.66,366.857 453.327,366.024 449.5,367C 438.294,374.513 425.961,378.846 412.5,380C 347.167,380.333 281.833,380.667 216.5,381C 213.179,382.812 211.845,385.645 212.5,389.5C 209.262,388.252 205.762,387.585 202,387.5C 198.238,387.585 194.738,388.252 191.5,389.5C 192.155,385.645 190.821,382.812 187.5,381C 156.5,380.667 125.5,380.333 94.5,380C 59.0089,372.509 37.5089,351.009 30,315.5C 29.5001,300.504 29.3334,285.504 29.5,270.5C 34.5,270.5 39.5,270.5 44.5,270.5 Z"/></g>
<g><path style="opacity:1" fill="#baf39a" d="M 212.5,389.5 C 213.203,391.716 214.536,393.549 216.5,395C 275.499,395.5 334.499,395.667 393.5,395.5C 393.666,399.846 393.499,404.179 393,408.5C 392.617,409.056 392.117,409.389 391.5,409.5C 306.833,409.5 222.167,409.5 137.5,409.5C 137.5,404.833 137.5,400.167 137.5,395.5C 153.837,395.667 170.17,395.5 186.5,395C 189.079,393.924 190.746,392.091 191.5,389.5C 194.738,388.252 198.238,387.585 202,387.5C 205.762,387.585 209.262,388.252 212.5,389.5 Z"/></g>
<g><path style="opacity:1" fill="#9adb92" d="M 137.5,395.5 C 137.5,400.167 137.5,404.833 137.5,409.5C 222.167,409.5 306.833,409.5 391.5,409.5C 301.001,410.666 210.334,410.832 119.5,410C 119,409.5 118.5,409 118,408.5C 117.501,404.179 117.334,399.846 117.5,395.5C 124.167,395.5 130.833,395.5 137.5,395.5 Z"/></g>
</svg>
