<?xml version="1.0" encoding="UTF-8"?>
<!DOCTYPE svg PUBLIC "-//W3C//DTD SVG 1.1//EN" "http://www.w3.org/Graphics/SVG/1.1/DTD/svg11.dtd">
<svg xmlns="http://www.w3.org/2000/svg" version="1.1" width="512px" height="512px" style="shape-rendering:geometricPrecision; text-rendering:geometricPrecision; image-rendering:optimizeQuality; fill-rule:evenodd; clip-rule:evenodd" xmlns:xlink="http://www.w3.org/1999/xlink">
<g><path style="opacity:0.967" fill="#020100" d="M 252.5,-0.5 C 255.167,-0.5 257.833,-0.5 260.5,-0.5C 262.144,0.316435 263.31,1.64977 264,3.5C 264.333,15.5 264.667,27.5 265,39.5C 269.323,34.0833 274.823,31.5833 281.5,32C 282.942,32.3768 283.942,33.2101 284.5,34.5C 285.987,37.9133 285.82,41.2467 284,44.5C 274.791,49.1893 269.291,56.5226 267.5,66.5C 285.249,62.1241 302.916,57.4574 320.5,52.5C 327.649,53.7972 329.815,57.7972 327,64.5C 326.097,65.7014 324.931,66.5348 323.5,67C 316.815,68.8375 310.148,70.6708 303.5,72.5C 293.213,75.4279 282.88,78.2612 272.5,81C 271.549,81.7175 271.383,82.5509 272,83.5C 281.144,91.0013 291.644,93.8346 303.5,92C 320.925,89.7801 336.591,83.4468 350.5,73C 360.335,65.6647 369.002,57.1647 376.5,47.5C 378.104,46.713 378.771,45.3797 378.5,43.5C 360.812,37.7459 342.646,34.4126 324,33.5C 317.921,33.469 311.921,34.1357 306,35.5C 302.15,35.1462 299.65,33.1462 298.5,29.5C 297.801,24.056 300.134,20.8893 305.5,20C 333.349,16.3115 360.349,19.6448 386.5,30C 394.762,36.6099 396.596,44.7765 392,54.5C 380.01,69.1622 366.177,81.6622 350.5,92C 341.219,97.1396 331.552,101.473 321.5,105C 387.918,129.084 432.418,174.584 455,241.5C 475.22,314.739 461.554,380.739 414,439.5C 376.622,481.106 330.122,505.106 274.5,511.5C 261.167,511.5 247.833,511.5 234.5,511.5C 215.028,509.048 196.028,504.215 177.5,497C 171.804,495.07 166.637,492.236 162,488.5C 160.304,485.881 160.137,483.214 161.5,480.5C 162.962,479.542 164.295,478.376 165.5,477C 167.167,476.333 168.833,476.333 170.5,477C 203.931,493.392 238.931,499.226 275.5,494.5C 335.529,487.249 382.696,458.915 417,409.5C 451.464,353.11 457.464,293.777 435,231.5C 401.923,157.954 345.09,117.621 264.5,110.5C 264.5,121.5 264.5,132.5 264.5,143.5C 273.467,141.707 280.8,137.207 286.5,130C 289.95,126.244 293.95,125.578 298.5,128C 301.723,131.112 302.223,134.612 300,138.5C 281.852,158.495 260.019,163.995 234.5,155C 226.124,150.621 218.957,144.787 213,137.5C 211.178,130.001 214.011,126.501 221.5,127C 226.789,130.62 231.789,134.62 236.5,139C 240.474,141.602 244.807,143.102 249.5,143.5C 249.5,132.5 249.5,121.5 249.5,110.5C 235.044,110.221 221.044,112.221 207.5,116.5C 198.985,118.726 190.485,121.06 182,123.5C 180.833,123.333 179.667,123.167 178.5,123C 177.295,121.624 175.962,120.458 174.5,119.5C 173.618,115.091 174.952,111.591 178.5,109C 201.043,100.391 224.376,95.5581 248.5,94.5C 248.333,64.4981 248.5,34.4981 249,4.5C 249.997,2.67694 251.164,1.01027 252.5,-0.5 Z"/></g>
<g><path style="opacity:1" fill="#99d904" d="M 298.5,29.5 C 299.65,33.1462 302.15,35.1462 306,35.5C 311.921,34.1357 317.921,33.469 324,33.5C 342.646,34.4126 360.812,37.7459 378.5,43.5C 378.771,45.3797 378.104,46.713 376.5,47.5C 365.011,56.7538 352.345,64.2538 338.5,70C 329.631,72.3408 320.631,73.8408 311.5,74.5C 308.41,74.4783 305.743,73.8117 303.5,72.5C 310.148,70.6708 316.815,68.8375 323.5,67C 324.931,66.5348 326.097,65.7014 327,64.5C 329.815,57.7972 327.649,53.7972 320.5,52.5C 302.916,57.4574 285.249,62.1241 267.5,66.5C 269.291,56.5226 274.791,49.1893 284,44.5C 285.82,41.2467 285.987,37.9133 284.5,34.5C 289.161,32.8374 293.827,31.1707 298.5,29.5 Z"/></g>
<g><path style="opacity:1" fill="#8cc603" d="M 376.5,47.5 C 369.002,57.1647 360.335,65.6647 350.5,73C 336.591,83.4468 320.925,89.7801 303.5,92C 291.644,93.8346 281.144,91.0013 272,83.5C 271.383,82.5509 271.549,81.7175 272.5,81C 282.88,78.2612 293.213,75.4279 303.5,72.5C 305.743,73.8117 308.41,74.4783 311.5,74.5C 320.631,73.8408 329.631,72.3408 338.5,70C 352.345,64.2538 365.011,56.7538 376.5,47.5 Z"/></g>
<g><path style="opacity:1" fill="#fe9710" d="M 275.5,494.5 C 208.67,485.826 158.17,452.492 124,394.5C 89.0186,326.591 90.0186,259.258 127,192.5C 147.267,160.062 174.101,134.729 207.5,116.5C 221.044,112.221 235.044,110.221 249.5,110.5C 249.5,121.5 249.5,132.5 249.5,143.5C 244.807,143.102 240.474,141.602 236.5,139C 231.789,134.62 226.789,130.62 221.5,127C 214.011,126.501 211.178,130.001 213,137.5C 218.957,144.787 226.124,150.621 234.5,155C 260.019,163.995 281.852,158.495 300,138.5C 302.223,134.612 301.723,131.112 298.5,128C 293.95,125.578 289.95,126.244 286.5,130C 280.8,137.207 273.467,141.707 264.5,143.5C 264.5,132.5 264.5,121.5 264.5,110.5C 345.09,117.621 401.923,157.954 435,231.5C 457.464,293.777 451.464,353.11 417,409.5C 382.696,458.915 335.529,487.249 275.5,494.5 Z"/></g>
<g><path style="opacity:0.999" fill="#ec8600" d="M 207.5,116.5 C 174.101,134.729 147.267,160.062 127,192.5C 90.0186,259.258 89.0186,326.591 124,394.5C 158.17,452.492 208.67,485.826 275.5,494.5C 238.931,499.226 203.931,493.392 170.5,477C 168.833,476.333 167.167,476.333 165.5,477C 164.295,478.376 162.962,479.542 161.5,480.5C 156.932,478.597 152.598,476.264 148.5,473.5C 149.901,470.123 149.735,466.79 148,463.5C 87.2747,420.374 58.9414,361.374 63,286.5C 70.753,219.479 103.42,168.812 161,134.5C 162.695,131.211 162.862,127.878 161.5,124.5C 165.723,122.556 170.056,120.889 174.5,119.5C 175.962,120.458 177.295,121.624 178.5,123C 179.667,123.167 180.833,123.333 182,123.5C 190.485,121.06 198.985,118.726 207.5,116.5 Z"/></g>
<g><path style="opacity:0.958" fill="#010000" d="M 161.5,124.5 C 162.862,127.878 162.695,131.211 161,134.5C 103.42,168.812 70.753,219.479 63,286.5C 58.9414,361.374 87.2747,420.374 148,463.5C 149.735,466.79 149.901,470.123 148.5,473.5C 148.423,474.75 147.756,475.583 146.5,476C 143.833,476.667 141.167,476.667 138.5,476C 79.7136,433.949 49.0469,376.449 46.5,303.5C 48.1455,237.718 73.8122,183.551 123.5,141C 132.487,134.172 141.821,127.838 151.5,122C 155.368,121.028 158.701,121.861 161.5,124.5 Z"/></g>
<g><path style="opacity:1" fill="#090400" d="M 389.5,205.5 C 404.672,205.864 409.172,212.864 403,226.5C 393.436,233.189 386.436,231.189 382,220.5C 381.333,218.167 381.333,215.833 382,213.5C 384.028,210.308 386.528,207.641 389.5,205.5 Z"/></g>
<g><path style="opacity:1" fill="#050200" d="M 403.5,251.5 C 415.823,249.991 421.323,255.324 420,267.5C 416.56,274.214 411.06,276.714 403.5,275C 397.333,271.155 395.166,265.655 397,258.5C 398.694,255.642 400.861,253.309 403.5,251.5 Z"/></g>
<g><path style="opacity:1" fill="#050200" d="M 140.5,276.5 C 152.823,274.991 158.323,280.324 157,292.5C 154.895,297.893 150.895,300.56 145,300.5C 135.599,298.724 131.933,293.057 134,283.5C 135.694,280.642 137.861,278.309 140.5,276.5 Z"/></g>
<g><path style="opacity:1" fill="#050200" d="M 185.5,276.5 C 199.187,275.346 204.354,281.346 201,294.5C 197.105,299.688 191.939,301.522 185.5,300C 178.93,296.345 176.763,290.845 179,283.5C 180.694,280.642 182.861,278.309 185.5,276.5 Z"/></g>
<g><path style="opacity:1" fill="#060200" d="M 413.5,295.5 C 421.226,294.802 424.893,298.302 424.5,306C 422.924,349.458 407.59,387.124 378.5,419C 369.961,422.451 365.794,419.618 366,410.5C 394.561,379.177 409.228,342.177 410,299.5C 411.376,298.295 412.542,296.962 413.5,295.5 Z"/></g>
<g><path style="opacity:1" fill="#070300" d="M 162.5,309.5 C 174.127,307.97 179.96,312.97 180,324.5C 176.994,332.064 171.494,334.897 163.5,333C 156.994,329.834 154.494,324.667 156,317.5C 157.479,314.172 159.645,311.506 162.5,309.5 Z"/></g>
<g><path style="opacity:1" fill="#050200" d="M 271.5,414.5 C 286.656,413.812 291.49,420.479 286,434.5C 279.597,439.773 273.263,439.773 267,434.5C 262.543,426.332 264.043,419.665 271.5,414.5 Z"/></g>
<g><path style="opacity:1" fill="#0a0500" d="M 337.5,426.5 C 351.443,426.927 355.943,433.594 351,446.5C 341.43,454.352 334.097,452.685 329,441.5C 328.21,434.41 331.044,429.41 337.5,426.5 Z"/></g>
<g><path style="opacity:1" fill="#060300" d="M 301.5,445.5 C 308.974,444.261 314.474,446.928 318,453.5C 318.767,467.042 312.601,471.876 299.5,468C 291.133,459.699 291.8,452.199 301.5,445.5 Z"/></g>
<g><path style="opacity:1" fill="#090400" d="M 259.5,457.5 C 271.751,457.706 276.584,463.706 274,475.5C 269.206,482.541 263.039,484.041 255.5,480C 247.834,470.807 249.167,463.307 259.5,457.5 Z"/></g>
</svg>
