<?xml version="1.0" encoding="UTF-8"?>
<!DOCTYPE svg PUBLIC "-//W3C//DTD SVG 1.1//EN" "http://www.w3.org/Graphics/SVG/1.1/DTD/svg11.dtd">
<svg xmlns="http://www.w3.org/2000/svg" version="1.1" width="512px" height="512px" style="shape-rendering:geometricPrecision; text-rendering:geometricPrecision; image-rendering:optimizeQuality; fill-rule:evenodd; clip-rule:evenodd" xmlns:xlink="http://www.w3.org/1999/xlink">
<g><path style="opacity:0.98" fill="#020101" d="M 349.5,-0.5 C 380.833,-0.5 412.167,-0.5 443.5,-0.5C 457.08,18.3229 469.913,37.6563 482,57.5C 482.667,206.5 482.667,355.5 482,504.5C 481.096,507.233 479.596,509.567 477.5,511.5C 423.5,511.5 369.5,511.5 315.5,511.5C 313.525,510.354 312.025,508.687 311,506.5C 310.333,356.167 310.333,205.833 311,55.5C 323.128,36.2085 335.961,17.5418 349.5,-0.5 Z"/></g>
<g><path style="opacity:1" fill="#f0f3e6" d="M 464.5,101.5 C 444.5,101.5 424.5,101.5 404.5,101.5C 404.5,107.5 404.5,113.5 404.5,119.5C 424.5,119.5 444.5,119.5 464.5,119.5C 464.5,124.833 464.5,130.167 464.5,135.5C 419.167,135.5 373.833,135.5 328.5,135.5C 328.5,130.167 328.5,124.833 328.5,119.5C 339.833,119.5 351.167,119.5 362.5,119.5C 362.5,113.5 362.5,107.5 362.5,101.5C 351.167,101.5 339.833,101.5 328.5,101.5C 328.333,87.8293 328.5,74.1626 329,60.5C 337,48.5 345,36.5 353,24.5C 358.917,33.3314 364.583,42.3314 370,51.5C 370.5,62.495 370.667,73.495 370.5,84.5C 376.167,84.5 381.833,84.5 387.5,84.5C 387.667,71.8289 387.5,59.1623 387,46.5C 380.664,37.1655 374.831,27.4988 369.5,17.5C 377.058,16.187 384.558,16.187 392,17.5C 399,29.1667 406,40.8333 413,52.5C 413.5,63.1615 413.667,73.8281 413.5,84.5C 419.167,84.5 424.833,84.5 430.5,84.5C 430.667,72.1622 430.5,59.8288 430,47.5C 423.959,37.2501 417.792,27.0835 411.5,17C 419.167,16.3333 426.833,16.3333 434.5,17C 444.333,31.5 454.167,46 464,60.5C 464.5,74.1626 464.667,87.8293 464.5,101.5 Z"/></g>
<g><path style="opacity:1" fill="#695c42" d="M 464.5,101.5 C 445.007,102.497 425.34,102.83 405.5,102.5C 405.5,107.833 405.5,113.167 405.5,118.5C 425.34,118.17 445.007,118.503 464.5,119.5C 444.5,119.5 424.5,119.5 404.5,119.5C 404.5,113.5 404.5,107.5 404.5,101.5C 424.5,101.5 444.5,101.5 464.5,101.5 Z"/></g>
<g><path style="opacity:0.979" fill="#010000" d="M 252.5,511.5 C 211.833,511.5 171.167,511.5 130.5,511.5C 113.436,506.267 102.603,494.933 98,477.5C 97.5001,463.504 97.3334,449.504 97.5,435.5C 82.163,435.667 66.8297,435.5 51.5,435C 38.206,432.706 30.706,424.873 29,411.5C 28.3333,378.5 28.3333,345.5 29,312.5C 30.8624,300.972 37.3624,293.472 48.5,290C 64.8299,289.5 81.1633,289.333 97.5,289.5C 97.8177,276.774 97.1511,264.107 95.5,251.5C 96.5693,223.505 109.903,204.005 135.5,193C 150.893,188.586 166.227,183.92 181.5,179C 210.862,167.969 232.195,148.302 245.5,120C 251.267,117.3 256.1,118.467 260,123.5C 276.463,146.098 287.796,171.098 294,198.5C 299.049,222.105 296.383,244.771 286,266.5C 285.667,336.833 285.333,407.167 285,477.5C 280.397,494.933 269.564,506.267 252.5,511.5 Z M 81.5,341.5 C 86.8333,341.5 92.1667,341.5 97.5,341.5C 97.5,355.5 97.5,369.5 97.5,383.5C 92.1667,383.5 86.8333,383.5 81.5,383.5C 81.5,369.5 81.5,355.5 81.5,341.5 Z"/></g>
<g><path style="opacity:1" fill="#74674d" d="M 328.5,101.5 C 339.833,101.5 351.167,101.5 362.5,101.5C 362.5,107.5 362.5,113.5 362.5,119.5C 351.167,119.5 339.833,119.5 328.5,119.5C 339.321,118.505 350.321,118.172 361.5,118.5C 361.5,113.167 361.5,107.833 361.5,102.5C 350.321,102.828 339.321,102.495 328.5,101.5 Z"/></g>
<g><path style="opacity:1" fill="#7f807a" d="M 328.5,119.5 C 328.5,124.833 328.5,130.167 328.5,135.5C 373.833,135.5 419.167,135.5 464.5,135.5C 419.003,136.499 373.336,136.832 327.5,136.5C 327.178,130.642 327.511,124.975 328.5,119.5 Z"/></g>
<g><path style="opacity:1" fill="#a6c0cf" d="M 328.5,153.5 C 373.833,153.5 419.167,153.5 464.5,153.5C 464.5,158.833 464.5,164.167 464.5,169.5C 419.167,169.5 373.833,169.5 328.5,169.5C 328.5,164.167 328.5,158.833 328.5,153.5 Z"/></g>
<g><path style="opacity:1" fill="#f3d87e" d="M 245.5,152.5 C 248.918,169.085 246.418,185.085 238,200.5C 230.242,211.628 219.742,218.628 206.5,221.5C 207.505,226.522 208.672,231.522 210,236.5C 213.872,237.255 217.705,236.755 221.5,235C 243.004,225.498 256.504,209.331 262,186.5C 263.065,180.182 264.065,173.848 265,167.5C 275.691,188.26 280.024,210.26 278,233.5C 277.036,241.055 274.87,248.222 271.5,255C 218.834,255.5 166.168,255.667 113.5,255.5C 112.115,234.094 121.115,218.927 140.5,210C 154.684,205.204 169.017,200.87 183.5,197C 206.208,188.943 225.708,176.11 242,158.5C 243.421,156.595 244.588,154.595 245.5,152.5 Z"/></g>
<g><path style="opacity:1" fill="#6b7b86" d="M 328.5,153.5 C 328.5,158.833 328.5,164.167 328.5,169.5C 373.833,169.5 419.167,169.5 464.5,169.5C 419.003,170.499 373.336,170.832 327.5,170.5C 327.178,164.642 327.511,158.975 328.5,153.5 Z"/></g>
<g><path style="opacity:1" fill="#71572b" d="M 328.5,187.5 C 328.168,220.004 328.502,252.338 329.5,284.5C 329.44,285.043 329.107,285.376 328.5,285.5C 327.17,252.669 327.17,220.002 328.5,187.5 Z"/></g>
<g><path style="opacity:1" fill="#f2ba5c" d="M 328.5,187.5 C 373.833,187.5 419.167,187.5 464.5,187.5C 464.5,212.5 464.5,237.5 464.5,262.5C 456.749,265.125 448.749,266.459 440.5,266.5C 430.422,265.608 420.422,264.108 410.5,262C 379.756,256.93 352.756,264.43 329.5,284.5C 328.502,252.338 328.168,220.004 328.5,187.5 Z"/></g>
<g><path style="opacity:1" fill="#464033" d="M 345.5,204.5 C 345.5,209.833 345.5,215.167 345.5,220.5C 350.833,220.5 356.167,220.5 361.5,220.5C 361.5,215.167 361.5,209.833 361.5,204.5C 362.489,209.975 362.822,215.642 362.5,221.5C 356.5,221.5 350.5,221.5 344.5,221.5C 344.178,215.642 344.511,209.975 345.5,204.5 Z"/></g>
<g><path style="opacity:1" fill="#000000" d="M 345.5,204.5 C 350.833,204.5 356.167,204.5 361.5,204.5C 361.5,209.833 361.5,215.167 361.5,220.5C 356.167,220.5 350.833,220.5 345.5,220.5C 345.5,215.167 345.5,209.833 345.5,204.5 Z"/></g>
<g><path style="opacity:1" fill="#000000" d="M 174.5,221.5 C 180.167,221.5 185.833,221.5 191.5,221.5C 191.5,227.167 191.5,232.833 191.5,238.5C 185.833,238.5 180.167,238.5 174.5,238.5C 174.5,232.833 174.5,227.167 174.5,221.5 Z"/></g>
<g><path style="opacity:1" fill="#000000" d="M 379.5,230.5 C 384.833,230.5 390.167,230.5 395.5,230.5C 395.5,235.833 395.5,241.167 395.5,246.5C 390.167,246.5 384.833,246.5 379.5,246.5C 379.5,241.167 379.5,235.833 379.5,230.5 Z"/></g>
<g><path style="opacity:1" fill="#50493a" d="M 379.5,230.5 C 384.975,229.511 390.642,229.178 396.5,229.5C 396.5,235.5 396.5,241.5 396.5,247.5C 390.642,247.822 384.975,247.489 379.5,246.5C 384.833,246.5 390.167,246.5 395.5,246.5C 395.5,241.167 395.5,235.833 395.5,230.5C 390.167,230.5 384.833,230.5 379.5,230.5 Z"/></g>
<g><path style="opacity:1" fill="#9b7047" d="M 115.5,272.5 C 115.5,334.833 115.5,397.167 115.5,459.5C 135.34,459.17 155.007,459.503 174.5,460.5C 154.5,460.5 134.5,460.5 114.5,460.5C 114.168,397.664 114.501,334.998 115.5,272.5 Z"/></g>
<g><path style="opacity:1" fill="#bf8a58" d="M 115.5,272.5 C 166.5,272.5 217.5,272.5 268.5,272.5C 268.667,339.167 268.5,405.834 268,472.5C 265.5,484.333 258.333,491.5 246.5,494C 209.167,494.667 171.833,494.667 134.5,494C 126.186,491.519 120.186,486.352 116.5,478.5C 135.822,477.5 155.155,477.167 174.5,477.5C 174.5,471.833 174.5,466.167 174.5,460.5C 155.007,459.503 135.34,459.17 115.5,459.5C 115.5,397.167 115.5,334.833 115.5,272.5 Z"/></g>
<g><path style="opacity:1" fill="#f58b98" d="M 330.5,400.5 C 328.508,372.52 327.842,344.186 328.5,315.5C 337.188,296.991 351.522,285.157 371.5,280C 383.117,278.446 394.784,278.113 406.5,279C 417.442,280.987 428.442,282.487 439.5,283.5C 447.904,283.043 456.238,282.043 464.5,280.5C 464.667,309.169 464.5,337.835 464,366.5C 453.484,387.858 436.317,400.025 412.5,403C 403.167,403.667 393.833,403.667 384.5,403C 373.127,400.465 361.627,398.965 350,398.5C 343.402,398.402 336.902,399.068 330.5,400.5 Z"/></g>
<g><path style="opacity:1" fill="#050301" d="M 217.5,289.5 C 228.833,289.5 240.167,289.5 251.5,289.5C 251.5,306.5 251.5,323.5 251.5,340.5C 245.833,340.5 240.167,340.5 234.5,340.5C 234.5,329.167 234.5,317.833 234.5,306.5C 228.833,306.5 223.167,306.5 217.5,306.5C 217.5,300.833 217.5,295.167 217.5,289.5 Z"/></g>
<g><path style="opacity:1" fill="#040202" d="M 383.5,298.5 C 392.369,297.53 397.202,301.53 398,310.5C 402.925,315.713 408.759,319.546 415.5,322C 427.582,322.959 437.749,327.792 446,336.5C 451.648,345.153 452.981,354.487 450,364.5C 447.002,372.164 441.502,376.997 433.5,379C 415.047,383.039 396.381,384.373 377.5,383C 352.319,376.137 340.819,359.637 343,333.5C 346.211,324.579 351.711,317.413 359.5,312C 367.724,307.726 375.724,303.226 383.5,298.5 Z"/></g>
<g><path style="opacity:1" fill="#f1ba5c" d="M 52.5,306.5 C 67.5,306.5 82.5,306.5 97.5,306.5C 97.5,312.167 97.5,317.833 97.5,323.5C 86.1667,323.5 74.8333,323.5 63.5,323.5C 63.5,349.167 63.5,374.833 63.5,400.5C 74.8333,400.5 86.1667,400.5 97.5,400.5C 97.5,406.167 97.5,411.833 97.5,417.5C 82.163,417.667 66.8297,417.5 51.5,417C 49.3333,416.167 47.8333,414.667 47,412.5C 46.3333,378.833 46.3333,345.167 47,311.5C 48.7297,309.598 50.563,307.931 52.5,306.5 Z"/></g>
<g><path style="opacity:1" fill="#734147" d="M 328.5,315.5 C 327.842,344.186 328.508,372.52 330.5,400.5C 329.791,401.404 328.791,401.737 327.5,401.5C 327.169,372.662 327.502,343.995 328.5,315.5 Z"/></g>
<g><path style="opacity:1" fill="#eff2e5" d="M 381.5,318.5 C 385.224,321.719 388.891,325.219 392.5,329C 402.528,335.678 413.528,340.012 425.5,342C 434.162,345.664 436.662,351.83 433,360.5C 430.602,361.856 428.102,363.023 425.5,364C 410.239,366.273 394.905,366.94 379.5,366C 365.111,361.391 358.611,351.558 360,336.5C 361.561,333.217 363.727,330.383 366.5,328C 371.564,324.809 376.564,321.642 381.5,318.5 Z"/></g>
<g><path style="opacity:1" fill="#f1b95c" d="M 463.5,396.5 C 464.498,428.996 464.832,461.662 464.5,494.5C 418.833,494.5 373.167,494.5 327.5,494.5C 327.167,469.491 327.5,444.491 328.5,419.5C 335.546,416.659 342.879,415.325 350.5,415.5C 366.08,417.82 381.746,419.487 397.5,420.5C 422.926,421.363 444.926,413.363 463.5,396.5 Z"/></g>
<g><path style="opacity:1" fill="#020202" d="M 430.5,434.5 C 436.167,434.5 441.833,434.5 447.5,434.5C 447.943,447.574 447.443,460.574 446,473.5C 444.786,475.049 443.286,476.215 441.5,477C 432.173,477.5 422.839,477.666 413.5,477.5C 413.5,471.833 413.5,466.167 413.5,460.5C 419.167,460.5 424.833,460.5 430.5,460.5C 430.5,451.833 430.5,443.167 430.5,434.5 Z"/></g>
<g><path style="opacity:1" fill="#020100" d="M 191.5,460.5 C 197.167,460.5 202.833,460.5 208.5,460.5C 208.5,466.167 208.5,471.833 208.5,477.5C 202.833,477.5 197.167,477.5 191.5,477.5C 191.5,471.833 191.5,466.167 191.5,460.5 Z"/></g>
</svg>
