<?xml version="1.0" encoding="UTF-8"?>
<!DOCTYPE svg PUBLIC "-//W3C//DTD SVG 1.1//EN" "http://www.w3.org/Graphics/SVG/1.1/DTD/svg11.dtd">
<svg xmlns="http://www.w3.org/2000/svg" version="1.1" width="512px" height="512px" style="shape-rendering:geometricPrecision; text-rendering:geometricPrecision; image-rendering:optimizeQuality; fill-rule:evenodd; clip-rule:evenodd" xmlns:xlink="http://www.w3.org/1999/xlink">
<g><path style="opacity:0.977" fill="#010100" d="M 511.5,333.5 C 511.5,335.167 511.5,336.833 511.5,338.5C 508.363,364.82 494.029,381.986 468.5,390C 413.198,391.308 357.865,391.975 302.5,392C 297.953,410.024 293.953,428.191 290.5,446.5C 316.682,442.84 335.849,452.506 348,475.5C 351.034,482.906 352.034,490.573 351,498.5C 349.773,500.726 347.939,502.226 345.5,503C 285.5,503.667 225.5,503.667 165.5,503C 160.552,501.279 158.552,497.779 159.5,492.5C 162.074,467.84 175.407,452.673 199.5,447C 206.492,446.5 213.492,446.334 220.5,446.5C 217.047,428.191 213.047,410.024 208.5,392C 153.135,391.975 97.8019,391.308 42.5,390C 16.9712,381.987 2.63783,364.82 -0.5,338.5C -0.5,336.833 -0.5,335.167 -0.5,333.5C 0.651961,330.185 2.98529,328.018 6.5,327C 18.1619,326.5 29.8286,326.333 41.5,326.5C 50.1082,256.527 58.6082,186.527 67,116.5C 66.5443,111.251 68.3777,107.084 72.5,104C 122.5,103.667 172.5,103.333 222.5,103C 217.386,96.2169 215.052,88.5502 215.5,80C 216.476,59.0145 227.142,45.6811 247.5,40C 255.55,15.4582 272.55,4.79152 298.5,8C 304.095,10.354 305.928,14.5207 304,20.5C 302.833,21.6667 301.667,22.8333 300.5,24C 295.167,24.3333 289.833,24.6667 284.5,25C 274.54,26.4672 268.207,31.9672 265.5,41.5C 288.447,48.6936 298.28,64.3603 295,88.5C 294.048,93.9016 291.882,98.735 288.5,103C 338.5,103.333 388.5,103.667 438.5,104C 442.325,106.818 444.158,110.652 444,115.5C 453,185.167 462,254.833 471,324.5C 481.917,326.301 493.084,327.134 504.5,327C 508.015,328.018 510.348,330.185 511.5,333.5 Z"/></g>
<g><path style="opacity:1" fill="#ef661c" d="M 268.5,99.5 C 258.172,87.8385 247.505,76.5052 236.5,65.5C 243.217,57.2059 251.884,54.3726 262.5,57C 280.07,65.7101 283.903,78.5435 274,95.5C 272.549,97.4641 270.716,98.7974 268.5,99.5 Z"/></g>
<g><path style="opacity:1" fill="#e5530f" d="M 236.5,65.5 C 247.505,76.5052 258.172,87.8385 268.5,99.5C 266.779,101.694 264.445,102.861 261.5,103C 243.712,105.443 233.712,97.7768 231.5,80C 231.485,74.5432 233.152,69.7099 236.5,65.5 Z"/></g>
<g><path style="opacity:1" fill="#d8a508" d="M 427.5,120.5 C 408.5,120.5 389.5,120.5 370.5,120.5C 344.167,120.5 317.833,120.5 291.5,120.5C 272.833,120.5 254.167,120.5 235.5,120.5C 222.167,120.5 208.833,120.5 195.5,120.5C 174.497,120.333 153.497,120.5 132.5,121C 143.833,133 155.167,145 166.5,157C 169.365,157.183 172.031,157.683 174.5,158.5C 164.828,158.334 155.161,158.5 145.5,159C 135.2,161.267 125.2,164.434 115.5,168.5C 114.761,168.631 114.094,168.464 113.5,168C 102.967,156.635 92.2999,145.468 81.5,134.5C 81.9389,129.597 82.6056,124.763 83.5,120C 198.334,119.167 313.001,119.334 427.5,120.5 Z"/></g>
<g><path style="opacity:1" fill="#e9b70c" d="M 195.5,120.5 C 212.833,139.5 230.167,158.5 247.5,177.5C 240.349,177.303 233.349,176.137 226.5,174C 215.658,169.275 204.658,164.941 193.5,161C 187.202,159.838 180.869,159.005 174.5,158.5C 172.031,157.683 169.365,157.183 166.5,157C 155.167,145 143.833,133 132.5,121C 153.497,120.5 174.497,120.333 195.5,120.5 Z"/></g>
<g><path style="opacity:1" fill="#edbe0f" d="M 195.5,120.5 C 208.833,120.5 222.167,120.5 235.5,120.5C 251.478,138.147 267.478,155.813 283.5,173.5C 281.363,174.787 279.03,175.621 276.5,176C 266.866,177.147 257.2,177.647 247.5,177.5C 230.167,158.5 212.833,139.5 195.5,120.5 Z"/></g>
<g><path style="opacity:1" fill="#f0c513" d="M 235.5,120.5 C 254.167,120.5 272.833,120.5 291.5,120.5C 302.61,134.09 314.61,146.756 327.5,158.5C 321.981,160.053 316.314,161.553 310.5,163C 301.691,167.074 292.691,170.574 283.5,173.5C 267.478,155.813 251.478,138.147 235.5,120.5 Z"/></g>
<g><path style="opacity:1" fill="#f5d018" d="M 291.5,120.5 C 317.833,120.5 344.167,120.5 370.5,120.5C 387.294,139.13 404.294,157.63 421.5,176C 424.036,176.186 426.369,176.686 428.5,177.5C 422.409,177.382 416.409,176.549 410.5,175C 397.125,169.143 383.458,164.143 369.5,160C 355.568,157.412 341.568,156.912 327.5,158.5C 314.61,146.756 302.61,134.09 291.5,120.5 Z"/></g>
<g><path style="opacity:1" fill="#f9d71c" d="M 370.5,120.5 C 389.5,120.5 408.5,120.5 427.5,120.5C 430.401,139.335 433.067,158.335 435.5,177.5C 433.167,177.5 430.833,177.5 428.5,177.5C 426.369,176.686 424.036,176.186 421.5,176C 404.294,157.63 387.294,139.13 370.5,120.5 Z"/></g>
<g><path style="opacity:1" fill="#dca203" d="M 81.5,134.5 C 92.2999,145.468 102.967,156.635 113.5,168C 114.094,168.464 114.761,168.631 115.5,168.5C 103.447,175.094 90.4474,178.094 76.5,177.5C 77.4456,162.944 79.1123,148.611 81.5,134.5 Z"/></g>
<g><path style="opacity:1" fill="#e37814" d="M 173.5,174.5 C 187.162,175.078 199.828,178.745 211.5,185.5C 211.062,185.435 210.728,185.601 210.5,186C 228.333,205.167 246.167,224.333 264,243.5C 265.699,244.406 267.533,244.739 269.5,244.5C 260.343,245.658 251.009,245.824 241.5,245C 234.535,244.093 227.869,242.26 221.5,239.5C 220.928,237.745 220.094,236.078 219,234.5C 200.5,214.833 182,195.167 163.5,175.5C 166.768,174.513 170.102,174.18 173.5,174.5 Z"/></g>
<g><path style="opacity:1" fill="#f38f24" d="M 374.5,178.5 C 374.062,178.435 373.728,178.601 373.5,179C 391.449,197.738 409.282,216.571 427,235.5C 429.741,238.729 432.241,242.062 434.5,245.5C 426.709,245.811 419.042,244.978 411.5,243C 403.054,239.943 394.721,236.61 386.5,233C 370.005,227.146 353.005,224.646 335.5,225.5C 323.167,212.167 310.833,198.833 298.5,185.5C 322.873,172.363 348.206,170.03 374.5,178.5 Z"/></g>
<g><path style="opacity:1" fill="#dd710f" d="M 173.5,174.5 C 170.102,174.18 166.768,174.513 163.5,175.5C 182,195.167 200.5,214.833 219,234.5C 220.094,236.078 220.928,237.745 221.5,239.5C 199.798,228.714 176.798,224.048 152.5,225.5C 141.539,213.37 130.372,201.37 119,189.5C 118.209,188.255 117.709,186.922 117.5,185.5C 135.099,175.646 153.766,171.98 173.5,174.5 Z"/></g>
<g><path style="opacity:1" fill="#f79629" d="M 374.5,178.5 C 384.991,181.831 395.324,185.665 405.5,190C 416.054,192.222 426.72,193.722 437.5,194.5C 440.402,211.38 442.402,228.38 443.5,245.5C 440.5,245.5 437.5,245.5 434.5,245.5C 432.241,242.062 429.741,238.729 427,235.5C 409.282,216.571 391.449,197.738 373.5,179C 373.728,178.601 374.062,178.435 374.5,178.5 Z"/></g>
<g><path style="opacity:1" fill="#d56708" d="M 117.5,185.5 C 117.709,186.922 118.209,188.255 119,189.5C 130.372,201.37 141.539,213.37 152.5,225.5C 146.968,226.649 141.301,227.816 135.5,229C 122.129,234.79 108.462,239.79 94.5,244C 85.8856,245.297 77.2189,245.797 68.5,245.5C 70.0028,228.145 71.6695,210.812 73.5,193.5C 88.7145,193.631 103.381,190.965 117.5,185.5 Z"/></g>
<g><path style="opacity:1" fill="#e8811a" d="M 211.5,185.5 C 240.471,196.111 269.471,196.111 298.5,185.5C 310.833,198.833 323.167,212.167 335.5,225.5C 329.138,226.449 322.804,227.616 316.5,229C 304.233,233.866 291.9,238.533 279.5,243C 276.173,243.61 272.839,244.11 269.5,244.5C 267.533,244.739 265.699,244.406 264,243.5C 246.167,224.333 228.333,205.167 210.5,186C 210.728,185.601 211.062,185.435 211.5,185.5 Z"/></g>
<g><path style="opacity:1" fill="#eab80c" d="M 179.5,242.5 C 176.482,242.335 173.482,242.502 170.5,243C 197.072,270.402 223.072,298.235 248.5,326.5C 233.833,326.5 219.167,326.5 204.5,326.5C 180.534,299.866 156.201,273.533 131.5,247.5C 137.722,244.481 144.389,242.647 151.5,242C 161.009,241.176 170.343,241.342 179.5,242.5 Z"/></g>
<g><path style="opacity:1" fill="#f6cf18" d="M 354.5,242.5 C 354.062,242.435 353.728,242.601 353.5,243C 379.373,270.703 405.039,298.537 430.5,326.5C 405.167,326.5 379.833,326.5 354.5,326.5C 336.572,307.008 318.405,287.675 300,268.5C 296.596,264.606 293.429,260.606 290.5,256.5C 301.804,251.338 313.471,246.838 325.5,243C 335.295,241.331 344.962,241.164 354.5,242.5 Z"/></g>
<g><path style="opacity:1" fill="#f8d61c" d="M 354.5,242.5 C 359.552,242.45 364.552,242.95 369.5,244C 383.068,249.285 396.735,254.285 410.5,259C 422.41,261.072 434.41,261.905 446.5,261.5C 449.326,283.141 451.993,304.807 454.5,326.5C 446.5,326.5 438.5,326.5 430.5,326.5C 405.039,298.537 379.373,270.703 353.5,243C 353.728,242.601 354.062,242.435 354.5,242.5 Z"/></g>
<g><path style="opacity:1" fill="#edbe0f" d="M 179.5,242.5 C 183.504,243.224 187.504,244.057 191.5,245C 204.786,250.369 218.119,255.203 231.5,259.5C 231.062,259.435 230.728,259.601 230.5,260C 251.372,282.036 272.039,304.203 292.5,326.5C 277.833,326.5 263.167,326.5 248.5,326.5C 223.072,298.235 197.072,270.402 170.5,243C 173.482,242.502 176.482,242.335 179.5,242.5 Z"/></g>
<g><path style="opacity:1" fill="#e6b109" d="M 131.5,247.5 C 156.201,273.533 180.534,299.866 204.5,326.5C 187.497,326.667 170.497,326.5 153.5,326C 132.961,304.297 112.628,282.464 92.5,260.5C 105.852,257.605 118.852,253.271 131.5,247.5 Z"/></g>
<g><path style="opacity:1" fill="#f0c513" d="M 290.5,256.5 C 293.429,260.606 296.596,264.606 300,268.5C 318.405,287.675 336.572,307.008 354.5,326.5C 333.833,326.5 313.167,326.5 292.5,326.5C 272.039,304.203 251.372,282.036 230.5,260C 230.728,259.601 231.062,259.435 231.5,259.5C 251.379,262.694 271.045,261.694 290.5,256.5 Z"/></g>
<g><path style="opacity:1" fill="#dea606" d="M 92.5,260.5 C 112.628,282.464 132.961,304.297 153.5,326C 170.497,326.5 187.497,326.667 204.5,326.5C 219.167,326.5 233.833,326.5 248.5,326.5C 263.167,326.5 277.833,326.5 292.5,326.5C 313.167,326.5 333.833,326.5 354.5,326.5C 379.833,326.5 405.167,326.5 430.5,326.5C 438.5,326.5 446.5,326.5 454.5,326.5C 322.668,327.5 190.668,327.833 58.5,327.5C 60.6125,305.486 62.9458,283.486 65.5,261.5C 74.5182,261.552 83.5182,261.218 92.5,260.5 Z"/></g>
<g><path style="opacity:1" fill="#043b56" d="M 88.5,343.5 C 97.6272,353.797 106.961,363.963 116.5,374C 149.832,374.5 183.165,374.667 216.5,374.5C 247.833,374.5 279.167,374.5 310.5,374.5C 343.833,374.5 377.167,374.5 410.5,374.5C 426.833,374.5 443.167,374.5 459.5,374.5C 323.334,375.666 187.001,375.833 50.5,375C 32.7998,371.465 21.7998,360.965 17.5,343.5C 41.1667,343.5 64.8333,343.5 88.5,343.5 Z"/></g>
<g><path style="opacity:1" fill="#094965" d="M 88.5,343.5 C 121.833,343.5 155.167,343.5 188.5,343.5C 198.075,353.676 207.408,364.01 216.5,374.5C 183.165,374.667 149.832,374.5 116.5,374C 106.961,363.963 97.6272,353.797 88.5,343.5 Z"/></g>
<g><path style="opacity:1" fill="#105571" d="M 188.5,343.5 C 219.833,343.5 251.167,343.5 282.5,343.5C 291.592,353.99 300.925,364.324 310.5,374.5C 279.167,374.5 247.833,374.5 216.5,374.5C 207.408,364.01 198.075,353.676 188.5,343.5 Z"/></g>
<g><path style="opacity:1" fill="#16627e" d="M 282.5,343.5 C 315.833,343.5 349.167,343.5 382.5,343.5C 391.833,353.833 401.167,364.167 410.5,374.5C 377.167,374.5 343.833,374.5 310.5,374.5C 300.925,364.324 291.592,353.99 282.5,343.5 Z"/></g>
<g><path style="opacity:1" fill="#1c6e8a" d="M 382.5,343.5 C 419.5,343.5 456.5,343.5 493.5,343.5C 489.181,361.485 477.847,371.818 459.5,374.5C 443.167,374.5 426.833,374.5 410.5,374.5C 401.167,364.167 391.833,353.833 382.5,343.5 Z"/></g>
<g><path style="opacity:1" fill="#0b273a" d="M 284.5,393.5 C 271.876,391.519 258.876,390.852 245.5,391.5C 238.745,390.877 232.412,391.544 226.5,393.5C 225.596,392.791 225.263,391.791 225.5,390.5C 245.5,390.5 265.5,390.5 285.5,390.5C 285.737,391.791 285.404,392.791 284.5,393.5 Z"/></g>
<g><path style="opacity:1" fill="#0f416a" d="M 245.5,391.5 C 255.828,403.161 266.495,414.495 277.5,425.5C 276.059,432.481 274.725,439.481 273.5,446.5C 270.167,446.5 266.833,446.5 263.5,446.5C 252.897,433.561 241.564,421.227 229.5,409.5C 228.286,404.216 227.286,398.882 226.5,393.5C 232.412,391.544 238.745,390.877 245.5,391.5 Z"/></g>
<g><path style="opacity:1" fill="#175079" d="M 245.5,391.5 C 258.876,390.852 271.876,391.519 284.5,393.5C 282.594,404.27 280.261,414.937 277.5,425.5C 266.495,414.495 255.828,403.161 245.5,391.5 Z"/></g>
<g><path style="opacity:1" fill="#08355e" d="M 229.5,409.5 C 241.564,421.227 252.897,433.561 263.5,446.5C 254.833,446.5 246.167,446.5 237.5,446.5C 235.155,434.096 232.488,421.762 229.5,409.5 Z"/></g>
<g><path style="opacity:1" fill="#105571" d="M 244.5,463.5 C 251.167,471.167 257.833,478.833 264.5,486.5C 253.167,486.5 241.833,486.5 230.5,486.5C 223.855,478.747 216.855,471.247 209.5,464C 221.162,463.5 232.829,463.333 244.5,463.5 Z"/></g>
<g><path style="opacity:1" fill="#1a6985" d="M 244.5,463.5 C 265.5,463.5 286.5,463.5 307.5,463.5C 320.764,465.433 329.431,472.766 333.5,485.5C 310.673,486.498 287.673,486.831 264.5,486.5C 257.833,478.833 251.167,471.167 244.5,463.5 Z"/></g>
<g><path style="opacity:1" fill="#094661" d="M 307.5,463.5 C 286.5,463.5 265.5,463.5 244.5,463.5C 232.829,463.333 221.162,463.5 209.5,464C 216.855,471.247 223.855,478.747 230.5,486.5C 212.659,486.83 194.992,486.497 177.5,485.5C 181.525,473.313 189.858,465.813 202.5,463C 237.669,462.169 272.669,462.336 307.5,463.5 Z"/></g>
<g><path style="opacity:1" fill="#061920" d="M 177.5,485.5 C 194.992,486.497 212.659,486.83 230.5,486.5C 241.833,486.5 253.167,486.5 264.5,486.5C 287.673,486.831 310.673,486.498 333.5,485.5C 334.043,485.56 334.376,485.893 334.5,486.5C 281.833,487.833 229.167,487.833 176.5,486.5C 176.624,485.893 176.957,485.56 177.5,485.5 Z"/></g>
</svg>
