<?xml version="1.0" encoding="UTF-8"?>
<!DOCTYPE svg PUBLIC "-//W3C//DTD SVG 1.1//EN" "http://www.w3.org/Graphics/SVG/1.1/DTD/svg11.dtd">
<svg xmlns="http://www.w3.org/2000/svg" version="1.1" width="256px" height="256px" style="shape-rendering:geometricPrecision; text-rendering:geometricPrecision; image-rendering:optimizeQuality; fill-rule:evenodd; clip-rule:evenodd" xmlns:xlink="http://www.w3.org/1999/xlink">
<g><path style="opacity:0.922" fill="#050101" d="M 107.5,-0.5 C 116.833,-0.5 126.167,-0.5 135.5,-0.5C 168.328,4.99224 189.661,23.6589 199.5,55.5C 231.156,65.4849 249.823,86.8183 255.5,119.5C 255.5,128.833 255.5,138.167 255.5,147.5C 244.5,199.34 213.834,233.84 163.5,251C 156.741,252.715 150.075,254.215 143.5,255.5C 132.833,255.5 122.167,255.5 111.5,255.5C 89.2123,252.345 68.8789,244.179 50.5,231C 44.3214,229.499 38.3214,227.499 32.5,225C 30.3834,223.269 28.8834,221.102 28,218.5C 26.9192,213.764 25.5859,209.097 24,204.5C 11.2129,185.961 3.04621,165.628 -0.5,143.5C -0.5,132.833 -0.5,122.167 -0.5,111.5C 3.23019,87.0365 12.7302,65.0365 28,45.5C 30.3437,41.733 33.5104,40.3996 37.5,41.5C 38.2178,43.1368 38.3845,44.8034 38,46.5C 3.60034,87.9704 -2.39966,133.304 20,182.5C 24,189.167 28,195.833 32,202.5C 33.7375,206.661 34.7375,210.995 35,215.5C 35.7083,216.381 36.5416,217.047 37.5,217.5C 37.9528,218.458 38.6195,219.292 39.5,220C 44.7288,220.446 49.7288,221.779 54.5,224C 69.6101,234.72 86.2768,241.887 104.5,245.5C 154.414,253.361 194.914,237.361 226,197.5C 242.841,173.802 249.841,147.469 247,118.5C 246.802,116.618 246.302,114.952 245.5,113.5C 238.453,85.9596 221.12,68.6263 193.5,61.5C 186.301,33.4675 168.634,15.9675 140.5,9C 114,4.16691 89.3338,8.83358 66.5,23C 59.5505,27.6153 52.8838,32.6153 46.5,38C 44.8034,38.3845 43.1368,38.2178 41.5,37.5C 40.0374,35.4017 40.2041,33.4017 42,31.5C 60.716,14.4294 82.5493,3.7627 107.5,-0.5 Z"/></g>
<g><path style="opacity:0.999" fill="#fa5b48" d="M 193.5,61.5 C 191.455,63.8408 189.455,66.1741 187.5,68.5C 185.883,67.962 184.216,67.6287 182.5,67.5C 176.577,39.3314 159.243,23.1648 130.5,19C 121.058,18.0605 111.725,18.5605 102.5,20.5C 55.9951,34.1735 28.1618,64.8402 19,112.5C 15.9048,141.374 22.5715,167.707 39,191.5C 41.3972,195.624 43.2306,199.957 44.5,204.5C 42.3498,206.922 42.0165,209.589 43.5,212.5C 40.9108,213.419 38.9108,215.086 37.5,217.5C 36.5416,217.047 35.7083,216.381 35,215.5C 34.7375,210.995 33.7375,206.661 32,202.5C 28,195.833 24,189.167 20,182.5C -2.39966,133.304 3.60034,87.9704 38,46.5C 38.3845,44.8034 38.2178,43.1368 37.5,41.5C 38.5,39.8333 39.8333,38.5 41.5,37.5C 43.1368,38.2178 44.8034,38.3845 46.5,38C 52.8838,32.6153 59.5505,27.6153 66.5,23C 89.3338,8.83358 114,4.16691 140.5,9C 168.634,15.9675 186.301,33.4675 193.5,61.5 Z"/></g>
<g><path style="opacity:1" fill="#fe975e" d="M 182.5,67.5 C 155.167,94.5 127.833,121.5 100.5,148.5C 108.766,123.326 103.266,101.66 84,83.5C 70.4608,56.6496 76.6275,35.6496 102.5,20.5C 111.725,18.5605 121.058,18.0605 130.5,19C 159.243,23.1648 176.577,39.3314 182.5,67.5 Z"/></g>
<g><path style="opacity:1" fill="#fe7b58" d="M 102.5,20.5 C 76.6275,35.6496 70.4608,56.6496 84,83.5C 103.266,101.66 108.766,123.326 100.5,148.5C 82.1667,167.5 63.5,186.167 44.5,204.5C 43.2306,199.957 41.3972,195.624 39,191.5C 22.5715,167.707 15.9048,141.374 19,112.5C 28.1618,64.8402 55.9951,34.1735 102.5,20.5 Z"/></g>
<g><path style="opacity:1" fill="#f63c38" d="M 193.5,61.5 C 221.12,68.6263 238.453,85.9596 245.5,113.5C 246.062,125.858 244.229,137.858 240,149.5C 239.536,148.906 239.369,148.239 239.5,147.5C 244.088,119.75 235.755,96.9163 214.5,79C 206.228,73.6316 197.228,70.1316 187.5,68.5C 189.455,66.1741 191.455,63.8408 193.5,61.5 Z"/></g>
<g><path style="opacity:1" fill="#0d0906" d="M 182.5,67.5 C 184.216,67.6287 185.883,67.962 187.5,68.5C 197.228,70.1316 206.228,73.6316 214.5,79C 235.755,96.9163 244.088,119.75 239.5,147.5C 235.32,167.196 226.82,184.862 214,200.5C 212.211,202.229 210.044,202.896 207.5,202.5C 206.489,200.598 206.322,198.598 207,196.5C 227.954,173.154 235.787,146.154 230.5,115.5C 223.592,92.4199 208.259,79.2532 184.5,76C 176.167,84.3333 167.833,92.6667 159.5,101C 174.907,111.008 179.741,124.842 174,142.5C 162.168,169.833 141.668,180.333 112.5,174C 106.297,171.984 100.797,168.817 96,164.5C 81.8333,178.667 67.6667,192.833 53.5,207C 64.6283,212.731 75.6283,218.731 86.5,225C 92.6221,227.613 98.9554,229.447 105.5,230.5C 139.482,236.921 169.815,229.088 196.5,207C 198.598,206.322 200.598,206.489 202.5,207.5C 202.66,209.199 202.494,210.866 202,212.5C 184.898,226.803 165.398,235.803 143.5,239.5C 120.42,242.627 98.4199,239.127 77.5,229C 70.1667,224.667 62.8333,220.333 55.5,216C 51.5597,214.524 47.5597,213.357 43.5,212.5C 42.0165,209.589 42.3498,206.922 44.5,204.5C 63.5,186.167 82.1667,167.5 100.5,148.5C 127.833,121.5 155.167,94.5 182.5,67.5 Z"/></g>
<g><path style="opacity:1" fill="#fef0d5" d="M 230.5,115.5 C 230.921,127.641 228.754,139.307 224,150.5C 200.754,201.247 161.254,227.913 105.5,230.5C 98.9554,229.447 92.6221,227.613 86.5,225C 75.6283,218.731 64.6283,212.731 53.5,207C 67.6667,192.833 81.8333,178.667 96,164.5C 100.797,168.817 106.297,171.984 112.5,174C 141.668,180.333 162.168,169.833 174,142.5C 179.741,124.842 174.907,111.008 159.5,101C 167.833,92.6667 176.167,84.3333 184.5,76C 208.259,79.2532 223.592,92.4199 230.5,115.5 Z"/></g>
<g><path style="opacity:1" fill="#fdd16d" d="M 166.5,119.5 C 163.953,129.683 158.953,138.35 151.5,145.5C 146.5,144.5 144.5,146.5 145.5,151.5C 136.322,160.251 125.322,164.917 112.5,165.5C 108.229,164.364 104.563,162.198 101.5,159C 118.5,142 135.5,125 152.5,108C 154.635,107.365 156.635,107.699 158.5,109C 162.175,111.828 164.842,115.328 166.5,119.5 Z"/></g>
<g><path style="opacity:1" fill="#ce3845" d="M 245.5,113.5 C 246.302,114.952 246.802,116.618 247,118.5C 249.841,147.469 242.841,173.802 226,197.5C 194.914,237.361 154.414,253.361 104.5,245.5C 119.101,245.717 133.434,243.883 147.5,240C 146.207,239.51 144.873,239.343 143.5,239.5C 165.398,235.803 184.898,226.803 202,212.5C 202.494,210.866 202.66,209.199 202.5,207.5C 203.833,205.5 205.5,203.833 207.5,202.5C 210.044,202.896 212.211,202.229 214,200.5C 226.82,184.862 235.32,167.196 239.5,147.5C 239.369,148.239 239.536,148.906 240,149.5C 244.229,137.858 246.062,125.858 245.5,113.5 Z"/></g>
<g><path style="opacity:1" fill="#f9b062" d="M 166.5,119.5 C 170.768,145.131 160.102,161.298 134.5,168C 129.167,168.667 123.833,168.667 118.5,168C 116.277,167.434 114.277,166.6 112.5,165.5C 125.322,164.917 136.322,160.251 145.5,151.5C 151.167,153.167 153.167,151.167 151.5,145.5C 158.953,138.35 163.953,129.683 166.5,119.5 Z"/></g>
<g><path style="opacity:1" fill="#fade9c" d="M 230.5,115.5 C 235.787,146.154 227.954,173.154 207,196.5C 206.322,198.598 206.489,200.598 207.5,202.5C 205.5,203.833 203.833,205.5 202.5,207.5C 200.598,206.489 198.598,206.322 196.5,207C 169.815,229.088 139.482,236.921 105.5,230.5C 161.254,227.913 200.754,201.247 224,150.5C 228.754,139.307 230.921,127.641 230.5,115.5 Z"/></g>
<g><path style="opacity:1" fill="#17130b" d="M 147.5,123.5 C 150.352,123.352 152.019,124.686 152.5,127.5C 150.167,132.833 147.833,132.833 145.5,127.5C 145.752,125.927 146.418,124.594 147.5,123.5 Z"/></g>
<g><path style="opacity:1" fill="#150f08" d="M 151.5,145.5 C 153.167,151.167 151.167,153.167 145.5,151.5C 144.5,146.5 146.5,144.5 151.5,145.5 Z"/></g>
<g><path style="opacity:1" fill="#f43b38" d="M 43.5,212.5 C 47.5597,213.357 51.5597,214.524 55.5,216C 62.8333,220.333 70.1667,224.667 77.5,229C 98.4199,239.127 120.42,242.627 143.5,239.5C 144.873,239.343 146.207,239.51 147.5,240C 133.434,243.883 119.101,245.717 104.5,245.5C 86.2768,241.887 69.6101,234.72 54.5,224C 49.7288,221.779 44.7288,220.446 39.5,220C 38.6195,219.292 37.9528,218.458 37.5,217.5C 38.9108,215.086 40.9108,213.419 43.5,212.5 Z"/></g>
</svg>
