<?xml version="1.0" encoding="UTF-8"?>
<!DOCTYPE svg PUBLIC "-//W3C//DTD SVG 1.1//EN" "http://www.w3.org/Graphics/SVG/1.1/DTD/svg11.dtd">
<svg xmlns="http://www.w3.org/2000/svg" version="1.1" width="512px" height="512px" style="shape-rendering:geometricPrecision; text-rendering:geometricPrecision; image-rendering:optimizeQuality; fill-rule:evenodd; clip-rule:evenodd" xmlns:xlink="http://www.w3.org/1999/xlink">
<g><path style="opacity:0.98" fill="#1c1211" d="M 234.5,-0.5 C 245.833,-0.5 257.167,-0.5 268.5,-0.5C 273.205,3.87438 276.705,9.20772 279,15.5C 284.675,28.519 289.508,41.8523 293.5,55.5C 309.526,64.4361 324.026,75.4361 337,88.5C 340.357,92.3562 343.524,96.3562 346.5,100.5C 347.5,100.833 348.5,101.167 349.5,101.5C 377.543,96.8523 404.877,99.3523 431.5,109C 459.634,122.481 476.467,144.648 482,175.5C 485.47,199.542 485.136,223.542 481,247.5C 461.232,298.237 447.566,350.571 440,404.5C 438.348,420.494 438.182,436.494 439.5,452.5C 433.751,478.75 417.751,494.916 391.5,501C 365.089,505.293 339.589,502.127 315,491.5C 303.507,503.164 289.674,509.831 273.5,511.5C 262.167,511.5 250.833,511.5 239.5,511.5C 223.933,508.582 210.433,501.582 199,490.5C 173.087,501.46 146.254,504.96 118.5,501C 92.9939,494.327 76.9939,478.16 70.5,452.5C 72.796,423.918 70.9627,395.584 65,367.5C 56.5835,326.826 44.9168,287.159 30,248.5C 26.8463,228.608 25.8463,208.608 27,188.5C 31.1305,141.711 55.9638,112.877 101.5,102C 121.628,97.5365 141.795,97.3698 162,101.5C 162.833,101.167 163.667,100.833 164.5,100.5C 178.78,81.8805 196.114,66.8805 216.5,55.5C 210.776,41.0518 204.776,26.7184 198.5,12.5C 199.171,6.33023 202.504,2.4969 208.5,1C 217.343,0.829591 226.01,0.329591 234.5,-0.5 Z"/></g>
<g><path style="opacity:1" fill="#4f6f10" d="M 257.5,21.5 C 247.442,20.86 237.775,21.5267 228.5,23.5C 227.596,22.791 227.263,21.791 227.5,20.5C 237.681,20.1726 247.681,20.506 257.5,21.5 Z"/></g>
<g><path style="opacity:1" fill="#82ce0f" d="M 257.5,21.5 C 275.832,59.7861 282.665,100.119 278,142.5C 279.563,145.728 282.063,147.895 285.5,149C 293.155,150.666 300.488,153.166 307.5,156.5C 299.891,159.478 291.891,161.312 283.5,162C 263.783,164.234 244.116,163.9 224.5,161C 216.368,159.559 208.702,157.059 201.5,153.5C 214.593,150.151 227.926,147.985 241.5,147C 245.055,145.111 247.555,142.277 249,138.5C 251.003,98.5141 244.17,60.1808 228.5,23.5C 237.775,21.5267 247.442,20.86 257.5,21.5 Z"/></g>
<g><path style="opacity:1" fill="#d50606" d="M 413.5,167.5 C 414.931,167.881 415.764,168.881 416,170.5C 422.355,194.017 423.022,217.684 418,241.5C 397.104,295.752 383.104,351.752 376,409.5C 375.667,424.167 375.333,438.833 375,453.5C 369.542,467.134 359.708,475.467 345.5,478.5C 338.499,477.499 331.832,475.499 325.5,472.5C 332.344,459.463 338.51,446.13 344,432.5C 345.951,421.538 341.451,416.705 330.5,418C 328.714,418.785 327.214,419.951 326,421.5C 319.058,438.715 311.058,455.382 302,471.5C 295.994,480.167 287.827,485.667 277.5,488C 226.46,497.277 200.294,476.11 199,424.5C 195.787,417.518 190.62,415.685 183.5,419C 179.139,422.253 177.473,426.586 178.5,432C 178.907,445.459 181.907,458.292 187.5,470.5C 176.86,474.909 165.86,477.909 154.5,479.5C 137.776,477.963 126.276,469.296 120,453.5C 120.412,427.688 118.745,402.022 115,376.5C 106.118,330.757 93.4517,286.091 77,242.5C 71.699,217.635 72.3657,192.969 79,168.5C 87.6841,144.486 104.517,129.653 129.5,124C 135.818,122.983 142.152,122.15 148.5,121.5C 156.092,123.049 163.759,123.549 171.5,123C 173.286,122.215 174.786,121.049 176,119.5C 187.451,101.881 202.285,87.8811 220.5,77.5C 225.208,93.8809 226.541,110.548 224.5,127.5C 203.049,129.446 182.716,135.279 163.5,145C 156.616,149.601 149.95,154.435 143.5,159.5C 128.696,152.033 113.029,148.866 96.5,150C 91.2685,152.633 89.4351,156.799 91,162.5C 92.4488,165.616 94.6155,168.116 97.5,170C 108.015,170.836 118.348,172.836 128.5,176C 147.802,183.973 159.968,198.14 165,218.5C 168.396,222.203 172.563,223.369 177.5,222C 224.792,188.007 268.125,192.674 307.5,236C 313.89,237.942 318.723,236.109 322,230.5C 325.988,198.174 343.822,178.007 375.5,170C 388.078,167.938 400.744,167.105 413.5,167.5 Z"/></g>
<g><path style="opacity:1" fill="#d30606" d="M 359.5,122.5 C 377.555,125.024 392.555,133.024 404.5,146.5C 395.406,146.292 386.406,147.126 377.5,149C 365.814,151.566 354.481,154.9 343.5,159C 331.883,144.601 317.05,135.101 299,130.5C 298.585,115.135 298.251,99.8017 298,84.5C 312.5,96.3333 325.667,109.5 337.5,124C 344.873,124.227 352.206,123.727 359.5,122.5 Z"/></g>
<g><path style="opacity:1" fill="#e62424" d="M 148.5,121.5 C 142.152,122.15 135.818,122.983 129.5,124C 104.517,129.653 87.6841,144.486 79,168.5C 72.3657,192.969 71.699,217.635 77,242.5C 93.4517,286.091 106.118,330.757 115,376.5C 118.745,402.022 120.412,427.688 120,453.5C 126.276,469.296 137.776,477.963 154.5,479.5C 132.903,484.81 114.403,479.477 99,463.5C 96.746,459.993 94.746,456.327 93,452.5C 93.7661,424.625 91.7661,396.959 87,369.5C 78.5467,326.017 66.2134,283.684 50,242.5C 46.5586,223.242 45.8919,203.909 48,184.5C 53.0554,150.112 72.5554,129.279 106.5,122C 120.631,120.272 134.631,120.105 148.5,121.5 Z"/></g>
<g><path style="opacity:1" fill="#b90808" d="M 359.5,122.5 C 380.135,119.781 400.469,121.614 420.5,128C 446.398,140.267 460.564,160.767 463,189.5C 463.904,207.607 462.904,225.607 460,243.5C 439.766,293.769 426.099,345.769 419,399.5C 418.143,418.545 417.143,437.545 416,456.5C 405.268,474.938 389.101,483.271 367.5,481.5C 359.859,481.764 352.526,480.764 345.5,478.5C 359.708,475.467 369.542,467.134 375,453.5C 375.333,438.833 375.667,424.167 376,409.5C 383.104,351.752 397.104,295.752 418,241.5C 423.022,217.684 422.355,194.017 416,170.5C 415.764,168.881 414.931,167.881 413.5,167.5C 419.142,164.49 420.975,159.823 419,153.5C 415.706,148.104 410.872,145.77 404.5,146.5C 392.555,133.024 377.555,125.024 359.5,122.5 Z"/></g>
<g><path style="opacity:1" fill="#4faa24" d="M 201.5,153.5 C 208.702,157.059 216.368,159.559 224.5,161C 244.116,163.9 263.783,164.234 283.5,162C 291.891,161.312 299.891,159.478 307.5,156.5C 315.81,159.495 322.477,164.662 327.5,172C 317.541,181.412 310.207,192.579 305.5,205.5C 288.321,191.246 268.655,182.413 246.5,179C 222.12,176.44 199.787,181.94 179.5,195.5C 175.321,187.826 170.155,180.826 164,174.5C 163.333,173.833 163.333,173.167 164,172.5C 174.641,162.664 187.141,156.331 201.5,153.5 Z"/></g>
<g><path style="opacity:1" fill="#1e1210" d="M 186.5,260.5 C 195.328,259.003 199.995,262.67 200.5,271.5C 196.5,305.168 196.5,338.834 200.5,372.5C 199.101,383.459 193.434,386.625 183.5,382C 181.683,380.2 180.516,378.034 180,375.5C 174.083,339.495 174.083,303.495 180,267.5C 181.694,264.642 183.861,262.309 186.5,260.5 Z"/></g>
<g><path style="opacity:1" fill="#1d1210" d="M 343.5,259.5 C 349.347,258.84 353.513,261.173 356,266.5C 361.956,302.495 361.956,338.495 356,374.5C 353.733,382.716 348.566,385.216 340.5,382C 339.667,381.167 338.833,380.333 338,379.5C 336.907,375.784 336.407,371.95 336.5,368C 340.374,336.177 340.374,304.344 336.5,272.5C 336.667,270.167 336.833,267.833 337,265.5C 339.063,263.266 341.229,261.266 343.5,259.5 Z"/></g>
</svg>
