<?xml version="1.0" encoding="UTF-8"?>
<!DOCTYPE svg PUBLIC "-//W3C//DTD SVG 1.1//EN" "http://www.w3.org/Graphics/SVG/1.1/DTD/svg11.dtd">
<svg xmlns="http://www.w3.org/2000/svg" version="1.1" width="512px" height="512px" style="shape-rendering:geometricPrecision; text-rendering:geometricPrecision; image-rendering:optimizeQuality; fill-rule:evenodd; clip-rule:evenodd" xmlns:xlink="http://www.w3.org/1999/xlink">
<g><path style="opacity:0.972" fill="#020201" d="M 136.5,-0.5 C 142.167,-0.5 147.833,-0.5 153.5,-0.5C 159.022,1.26512 164.022,4.09846 168.5,8C 177.069,15.8995 184.903,24.3995 192,33.5C 221.776,10.3581 255.276,2.1914 292.5,9C 319.617,19.3622 332.617,39.1955 331.5,68.5C 331.162,75.5457 330.495,82.5457 329.5,89.5C 350.682,89.5457 370.348,95.0457 388.5,106C 419.889,127.39 445.056,154.556 464,187.5C 465.137,191.463 464.303,194.796 461.5,197.5C 457.336,199.307 453.669,198.64 450.5,195.5C 432.869,164.37 409.203,138.87 379.5,119C 374.047,115.938 368.38,113.438 362.5,111.5C 341.361,102.349 320.027,102.183 298.5,111C 276.598,120.556 257.765,134.39 242,152.5C 200.451,202.415 175.117,259.749 166,324.5C 159.761,396.888 188.928,449.054 253.5,481C 284.285,494.187 316.285,499.02 349.5,495.5C 394.746,492.157 432.58,473.824 463,440.5C 493.54,400.658 503.54,355.991 493,306.5C 487.4,278.034 478.4,250.701 466,224.5C 465.182,220.469 466.349,217.136 469.5,214.5C 472.93,214.107 476.096,214.773 479,216.5C 495.835,251.16 506.668,287.493 511.5,325.5C 511.5,338.5 511.5,351.5 511.5,364.5C 499.947,436.233 459.28,482.733 389.5,504C 376.857,507.362 364.191,509.862 351.5,511.5C 337.5,511.5 323.5,511.5 309.5,511.5C 291.136,509.222 273.136,504.889 255.5,498.5C 237.864,504.889 219.864,509.222 201.5,511.5C 187.5,511.5 173.5,511.5 159.5,511.5C 110.5,506.749 69.3331,486.416 36,450.5C 33.8935,446.688 34.3935,443.355 37.5,440.5C 40.6418,438.039 43.9752,437.872 47.5,440C 70.1635,465.001 97.8301,481.834 130.5,490.5C 165.589,498.821 200.589,498.321 235.5,489C 172.602,452.044 144.435,396.878 151,323.5C 161.234,248.709 192.068,184.042 243.5,129.5C 227.053,115.677 208.053,107.677 186.5,105.5C 166.051,103.863 147.051,108.696 129.5,120C 104.955,136.212 84.7883,156.712 69,181.5C 41.3105,223.563 23.6438,269.563 16,319.5C 11.6346,352.227 16.3013,383.56 30,413.5C 31.3376,418.04 30.1709,421.707 26.5,424.5C 22.0907,425.382 18.5907,424.048 16,420.5C 7.37137,402.632 1.87137,383.966 -0.5,364.5C -0.5,351.5 -0.5,338.5 -0.5,325.5C 8.49184,259.197 33.6585,199.863 75,147.5C 95.2194,123.111 120.053,105.111 149.5,93.5C 143.282,77.7796 133.448,64.7796 120,54.5C 107.853,36.5151 109.687,20.0151 125.5,5C 129.259,3.12073 132.925,1.28739 136.5,-0.5 Z"/></g>
<g><path style="opacity:1" fill="#cd8a5c" d="M 196.5,75.5 C 190.521,74.9622 184.521,74.6288 178.5,74.5C 171.928,74.3198 165.595,74.9865 159.5,76.5C 151.787,63.2667 141.953,51.6 130,41.5C 124.343,26.4749 129.343,17.4749 145,14.5C 148.383,14.5166 151.55,15.3499 154.5,17C 174.176,32.4968 188.176,51.9968 196.5,75.5 Z"/></g>
<g><path style="opacity:1" fill="#a0cf75" d="M 315.5,75.5 C 306.253,76.5615 297.253,78.7282 288.5,82C 279.608,86.2802 270.608,90.2802 261.5,94C 253.142,95.696 245.475,94.196 238.5,89.5C 249.829,83.0081 261.829,77.8415 274.5,74C 277.886,70.6269 278.386,66.7936 276,62.5C 271.656,60.1087 267.156,59.942 262.5,62C 251.213,66.3129 240.213,71.1462 229.5,76.5C 225.979,62.7984 220.313,50.1317 212.5,38.5C 237.536,22.2634 264.536,18.0968 293.5,26C 305.156,31.6558 312.322,40.8225 315,53.5C 315.5,60.8258 315.666,68.1591 315.5,75.5 Z"/></g>
<g><path style="opacity:1" fill="#8cc256" d="M 212.5,38.5 C 220.313,50.1317 225.979,62.7984 229.5,76.5C 224.979,79.3526 220.479,82.3526 216,85.5C 212.222,72.2752 207.055,59.6085 200.5,47.5C 203.929,43.7376 207.929,40.7376 212.5,38.5 Z"/></g>
<g><path style="opacity:1" fill="#c37846" d="M 196.5,75.5 C 199.343,80.367 201.009,85.7004 201.5,91.5C 189.183,90.7149 176.85,90.3816 164.5,90.5C 163.231,85.6932 161.564,81.0265 159.5,76.5C 165.595,74.9865 171.928,74.3198 178.5,74.5C 184.521,74.6288 190.521,74.9622 196.5,75.5 Z"/></g>
<g><path style="opacity:1" fill="#8cc256" d="M 315.5,75.5 C 315.772,81.0787 314.772,86.4121 312.5,91.5C 291.214,96.3103 272.214,105.644 255.5,119.5C 245.504,111.681 234.837,104.847 223.5,99C 228.134,95.1877 233.134,92.021 238.5,89.5C 245.475,94.196 253.142,95.696 261.5,94C 270.608,90.2802 279.608,86.2802 288.5,82C 297.253,78.7282 306.253,76.5615 315.5,75.5 Z"/></g>
<g><path style="opacity:1" fill="#f2d87e" d="M 186.5,105.5 C 184.217,105.608 182.217,106.441 180.5,108C 147.971,139.867 122.471,176.7 104,218.5C 83.5623,262.585 72.3956,308.918 70.5,357.5C 71.3288,410.801 91.3288,455.134 130.5,490.5C 97.8301,481.834 70.1635,465.001 47.5,440C 43.9752,437.872 40.6418,438.039 37.5,440.5C 33.8005,435.144 30.1339,429.81 26.5,424.5C 30.1709,421.707 31.3376,418.04 30,413.5C 16.3013,383.56 11.6346,352.227 16,319.5C 23.6438,269.563 41.3105,223.563 69,181.5C 84.7883,156.712 104.955,136.212 129.5,120C 147.051,108.696 166.051,103.863 186.5,105.5 Z"/></g>
<g><path style="opacity:1" fill="#f5ee99" d="M 186.5,105.5 C 208.053,107.677 227.053,115.677 243.5,129.5C 192.068,184.042 161.234,248.709 151,323.5C 144.435,396.878 172.602,452.044 235.5,489C 200.589,498.321 165.589,498.821 130.5,490.5C 91.3288,455.134 71.3288,410.801 70.5,357.5C 72.3956,308.918 83.5623,262.585 104,218.5C 122.471,176.7 147.971,139.867 180.5,108C 182.217,106.441 184.217,105.608 186.5,105.5 Z"/></g>
<g><path style="opacity:1" fill="#eec762" d="M 362.5,111.5 C 331.051,131.783 305.884,158.117 287,190.5C 266.226,224.992 252.059,261.992 244.5,301.5C 229.299,309.542 220.799,322.209 219,339.5C 217.869,362.44 224.536,382.774 239,400.5C 244.729,406.397 250.562,412.064 256.5,417.5C 256.062,417.435 255.728,417.601 255.5,418C 277.031,455.695 308.364,481.529 349.5,495.5C 316.285,499.02 284.285,494.187 253.5,481C 188.928,449.054 159.761,396.888 166,324.5C 175.117,259.749 200.451,202.415 242,152.5C 257.765,134.39 276.598,120.556 298.5,111C 320.027,102.183 341.361,102.349 362.5,111.5 Z"/></g>
<g><path style="opacity:1" fill="#f3d87e" d="M 362.5,111.5 C 368.38,113.438 374.047,115.938 379.5,119C 409.203,138.87 432.869,164.37 450.5,195.5C 453.669,198.64 457.336,199.307 461.5,197.5C 464.423,203.015 467.09,208.682 469.5,214.5C 466.349,217.136 465.182,220.469 466,224.5C 478.4,250.701 487.4,278.034 493,306.5C 503.54,355.991 493.54,400.658 463,440.5C 432.58,473.824 394.746,492.157 349.5,495.5C 308.364,481.529 277.031,455.695 255.5,418C 255.728,417.601 256.062,417.435 256.5,417.5C 289.513,434.41 309.347,424.41 316,387.5C 319.777,358.837 311.943,334.004 292.5,313C 280.822,302.552 267.155,297.885 251.5,299C 249.1,299.744 246.767,300.577 244.5,301.5C 252.059,261.992 266.226,224.992 287,190.5C 305.884,158.117 331.051,131.783 362.5,111.5 Z"/></g>
<g><path style="opacity:1" fill="#040302" d="M 256.5,417.5 C 250.562,412.064 244.729,406.397 239,400.5C 224.536,382.774 217.869,362.44 219,339.5C 220.799,322.209 229.299,309.542 244.5,301.5C 246.767,300.577 249.1,299.744 251.5,299C 267.155,297.885 280.822,302.552 292.5,313C 311.943,334.004 319.777,358.837 316,387.5C 309.347,424.41 289.513,434.41 256.5,417.5 Z"/></g>
<g><path style="opacity:1" fill="#040402" d="M 396.5,298.5 C 421.493,297.986 436.66,309.986 442,334.5C 444.641,374.058 428.808,403.558 394.5,423C 372.225,430.779 357.058,423.612 349,401.5C 340.311,371.294 345.311,343.627 364,318.5C 372.799,308.359 383.632,301.692 396.5,298.5 Z"/></g>
<g><path style="opacity:1" fill="#50697d" d="M 266.5,315.5 C 255.767,329.12 252.601,344.453 257,361.5C 262.251,381.018 272.751,397.018 288.5,409.5C 285.481,411.337 282.148,411.837 278.5,411C 263.659,405.166 252.159,395.332 244,381.5C 234.13,365.919 231.463,349.253 236,331.5C 241.685,316.876 251.852,311.542 266.5,315.5 Z"/></g>
<g><path style="opacity:1" fill="#50687d" d="M 414.5,317.5 C 401.101,324.073 391.601,334.406 386,348.5C 380.736,363.396 379.069,378.729 381,394.5C 381.384,400.165 383.218,405.165 386.5,409.5C 378.797,413.209 372.297,411.542 367,404.5C 355.815,379.661 357.481,355.661 372,332.5C 380.39,319.556 392.224,313.389 407.5,314C 410.174,314.67 412.507,315.837 414.5,317.5 Z"/></g>
<g><path style="opacity:1" fill="#697f97" d="M 266.5,315.5 C 271.013,316.172 275.013,318.005 278.5,321C 294.665,335.335 302.332,353.335 301.5,375C 301.795,384.609 299.961,393.776 296,402.5C 294.264,405.739 291.764,408.073 288.5,409.5C 272.751,397.018 262.251,381.018 257,361.5C 252.601,344.453 255.767,329.12 266.5,315.5 Z"/></g>
<g><path style="opacity:1" fill="#697f97" d="M 414.5,317.5 C 421.128,322.056 425.294,328.389 427,336.5C 429.592,364.478 419.759,386.978 397.5,404C 394.09,406.372 390.423,408.205 386.5,409.5C 383.218,405.165 381.384,400.165 381,394.5C 379.069,378.729 380.736,363.396 386,348.5C 391.601,334.406 401.101,324.073 414.5,317.5 Z"/></g>
</svg>
