<?xml version="1.0" encoding="UTF-8"?>
<!DOCTYPE svg PUBLIC "-//W3C//DTD SVG 1.1//EN" "http://www.w3.org/Graphics/SVG/1.1/DTD/svg11.dtd">
<svg xmlns="http://www.w3.org/2000/svg" version="1.1" width="512px" height="512px" style="shape-rendering:geometricPrecision; text-rendering:geometricPrecision; image-rendering:optimizeQuality; fill-rule:evenodd; clip-rule:evenodd" xmlns:xlink="http://www.w3.org/1999/xlink">
<g><path style="opacity:0.963" fill="#010100" d="M 102.5,43.5 C 107.511,43.3341 112.511,43.5007 117.5,44C 125.6,45.9005 133.767,47.4005 142,48.5C 152.286,46.5116 162.619,44.8449 173,43.5C 183.726,44.7785 194.393,46.4452 205,48.5C 215.286,46.5116 225.619,44.8449 236,43.5C 244.957,44.2244 253.79,45.7244 262.5,48C 270.229,48.1431 277.895,48.8097 285.5,50C 294.335,53.8025 300.335,60.3025 303.5,69.5C 313.314,74.9093 322.648,81.076 331.5,88C 341.771,90.5876 352.104,92.921 362.5,95C 372.338,101.085 382.004,107.418 391.5,114C 401.956,115.824 412.289,118.158 422.5,121C 430.443,125.944 438.109,131.277 445.5,137C 469.667,143.836 477.501,159.003 469,182.5C 466.667,186.167 464.333,189.833 462,193.5C 458,208.167 454,222.833 450,237.5C 442.333,249.833 434.667,262.167 427,274.5C 423.311,289.254 419.311,303.921 415,318.5C 407.083,330.665 399.416,342.999 392,355.5C 388.823,368.543 385.489,381.543 382,394.5C 375.085,407.337 367.418,419.67 359,431.5C 356.531,439.242 353.864,446.908 351,454.5C 342.896,465.976 332.063,470.143 318.5,467C 313.814,464.964 309.147,462.964 304.5,461C 295.052,459.51 285.719,457.51 276.5,455C 268.557,450.056 260.891,444.723 253.5,439C 243.123,435.323 232.456,432.656 221.5,431C 211.984,425.744 202.984,419.744 194.5,413C 177.1,408.775 159.6,404.942 142,401.5C 131.339,403.499 120.672,405.499 110,407.5C 101.087,406.051 92.2537,404.217 83.5,402C 68.8967,404.486 56.73,400.319 47,389.5C 45.107,386.382 43.7736,383.049 43,379.5C 42.4017,371.443 42.9017,363.443 44.5,355.5C 42.0785,341.049 40.0785,326.549 38.5,312C 39.9553,297.267 41.9553,282.6 44.5,268C 41.847,253.75 39.847,239.417 38.5,225C 40.0318,210.61 42.0318,196.277 44.5,182C 42.0093,167.557 40.0093,153.057 38.5,138.5C 40.0635,123.784 42.0635,109.117 44.5,94.5C 37.5679,61.5975 50.9012,46.0975 84.5,48C 90.701,46.7831 96.701,45.2831 102.5,43.5 Z"/></g>
<g><path style="opacity:1" fill="#3f5524" d="M 103.5,54.5 C 107.846,54.3343 112.179,54.501 116.5,55C 124.631,57.5775 132.964,59.0775 141.5,59.5C 152.009,57.8983 162.509,56.2316 173,54.5C 183.483,56.2719 193.983,57.9386 204.5,59.5C 215.009,57.8983 225.509,56.2316 236,54.5C 243.913,55.5136 251.746,57.0136 259.5,59C 266.5,59.3333 273.5,59.6667 280.5,60C 287.647,62.9549 291.647,68.2882 292.5,76C 291.053,83.4526 290.553,90.9526 291,98.5C 293.486,111.415 295.319,124.415 296.5,137.5C 294.936,152.22 292.936,166.887 290.5,181.5C 293.044,195.764 295.044,210.097 296.5,224.5C 294.891,238.546 292.891,252.546 290.5,266.5C 292.734,280.973 294.734,295.473 296.5,310C 294.954,324.895 292.954,339.728 290.5,354.5C 292.051,362.109 292.551,369.776 292,377.5C 290.601,383.9 286.767,388.066 280.5,390C 274.167,390.333 267.833,390.667 261.5,391C 253.071,392.988 244.571,394.488 236,395.5C 225.474,394.028 214.974,392.362 204.5,390.5C 194.021,392.33 183.521,393.997 173,395.5C 162.474,394.028 151.974,392.362 141.5,390.5C 130.729,392.487 119.896,394.154 109,395.5C 100.75,394.517 92.5836,393.017 84.5,391C 78.1667,390.667 71.8333,390.333 65.5,390C 57.2458,386.581 53.2458,380.415 53.5,371.5C 54.9941,363.549 55.4941,355.549 55,347.5C 52.4611,335.101 50.6278,322.601 49.5,310C 51.445,295.829 53.445,281.663 55.5,267.5C 53.6073,253.145 51.6073,238.811 49.5,224.5C 51.1744,210.12 53.1744,195.787 55.5,181.5C 53.4995,166.829 51.4995,152.162 49.5,137.5C 51.4531,122.661 53.4531,107.828 55.5,93C 48.9366,67.8938 58.6033,56.5604 84.5,59C 91.0651,57.9249 97.3984,56.4249 103.5,54.5 Z"/></g>
<g><path style="opacity:1" fill="#3f5524" d="M 302.5,82.5 C 303.552,82.3505 304.552,82.5172 305.5,83C 312.891,88.723 320.557,94.0564 328.5,99C 338.838,101.334 349.172,103.668 359.5,106C 368.996,112.582 378.662,118.915 388.5,125C 399.032,126.572 409.365,128.906 419.5,132C 430.486,140.984 442.486,148.317 455.5,154C 461.558,160.118 463.058,167.284 460,175.5C 456.145,181.21 452.812,187.21 450,193.5C 446.515,206.441 443.181,219.441 440,232.5C 431.749,245.333 423.749,258.333 416,271.5C 412.509,284.462 409.176,297.462 406,310.5C 398.584,323.001 390.917,335.335 383,347.5C 378.747,362.099 374.747,376.765 371,391.5C 363.917,403.335 356.583,415.002 349,426.5C 346.136,434.092 343.469,441.758 341,449.5C 334.818,456.443 327.318,458.276 318.5,455C 316.112,453.139 313.446,451.806 310.5,451C 300.017,449.199 289.684,446.866 279.5,444C 271.778,437.945 263.778,432.278 255.5,427C 246.239,424.748 236.906,422.748 227.5,421C 217.313,415.484 207.647,409.15 198.5,402C 200.423,401.192 202.423,400.692 204.5,400.5C 214.651,402.697 224.818,404.697 235,406.5C 246.316,405.308 257.483,403.308 268.5,400.5C 286.461,403.18 297.794,395.846 302.5,378.5C 312.067,379.892 321.4,382.225 330.5,385.5C 335.15,384.734 336.65,382.068 335,377.5C 333.421,375.959 331.587,374.792 329.5,374C 320.979,371.203 312.313,369.037 303.5,367.5C 301.731,361.267 301.231,354.934 302,348.5C 303.357,337.686 305.357,327.019 308,316.5C 312.979,319.072 318.146,321.238 323.5,323C 334.042,324.719 344.375,327.219 354.5,330.5C 358.79,329.6 360.29,326.934 359,322.5C 358.097,321.299 356.931,320.465 355.5,320C 343.191,316.56 330.857,313.227 318.5,310C 314.423,308.213 310.59,306.046 307,303.5C 305.003,291.521 303.169,279.521 301.5,267.5C 302.284,260.129 303.284,252.796 304.5,245.5C 306.308,245.491 307.975,245.991 309.5,247C 325.011,260.418 343.011,268.418 363.5,271C 368.283,272.706 373.116,274.206 378,275.5C 381.539,275.78 383.372,274.113 383.5,270.5C 382.523,266.99 380.19,264.823 376.5,264C 363.967,261.411 351.634,258.078 339.5,254C 329.033,247.698 318.7,241.198 308.5,234.5C 306.818,217.078 304.485,199.744 301.5,182.5C 313.341,183.28 324.341,186.78 334.5,193C 345.03,202.171 357.03,208.838 370.5,213C 381.265,214.487 391.765,216.987 402,220.5C 409.106,217.527 409.272,214.027 402.5,210C 390.143,206.773 377.809,203.44 365.5,200C 353.001,192.918 340.668,185.585 328.5,178C 320.436,174.699 312.103,172.533 303.5,171.5C 304.613,160.151 305.947,148.817 307.5,137.5C 305.885,124.474 304.051,111.474 302,98.5C 301.391,93.1387 301.558,87.8054 302.5,82.5 Z"/></g>
<g><path style="opacity:1" fill="#020301" d="M 88.5,132.5 C 102.594,133.655 116.594,135.321 130.5,137.5C 143.92,136.478 157.253,134.811 170.5,132.5C 180.697,132.691 190.697,134.191 200.5,137C 209.167,137.667 217.833,137.667 226.5,137C 236.981,133.595 247.647,132.428 258.5,133.5C 261.356,137.04 261.023,140.206 257.5,143C 245.995,143.501 234.662,145.168 223.5,148C 209.886,149.442 196.553,148.109 183.5,144C 179.833,143.833 176.167,143.667 172.5,143.5C 158.689,145.362 144.855,147.029 131,148.5C 122.907,149.03 115.074,147.864 107.5,145C 101.207,143.977 94.8737,143.311 88.5,143C 84.5654,139.504 84.5654,136.004 88.5,132.5 Z"/></g>
<g><path style="opacity:1" fill="#020301" d="M 88.5,192.5 C 102.708,193.929 116.875,195.596 131,197.5C 144.823,195.753 158.657,194.086 172.5,192.5C 186.046,193.85 199.546,195.517 213,197.5C 216.833,197.333 220.667,197.167 224.5,197C 235.251,193.448 246.251,192.115 257.5,193C 261.436,196.159 261.436,199.492 257.5,203C 246.338,203.54 235.338,205.206 224.5,208C 217.167,208.667 209.833,208.667 202.5,208C 192.382,204.98 182.049,203.48 171.5,203.5C 157.555,205.42 143.555,207.087 129.5,208.5C 115.963,205.868 102.296,204.035 88.5,203C 84.5803,199.458 84.5803,195.958 88.5,192.5 Z"/></g>
<g><path style="opacity:1" fill="#010200" d="M 87.5,252.5 C 98.7487,252.116 109.749,253.616 120.5,257C 124,257.167 127.5,257.333 131,257.5C 144.771,255.434 158.604,253.767 172.5,252.5C 186.388,253.765 200.222,255.431 214,257.5C 226.087,256.374 238.087,254.707 250,252.5C 252.833,252.667 255.667,252.833 258.5,253C 261.167,256 261.167,259 258.5,262C 245.656,263.047 232.989,265.047 220.5,268C 209.178,269.353 198.178,268.02 187.5,264C 182.538,263.127 177.538,262.627 172.5,262.5C 158.4,264.899 144.233,266.899 130,268.5C 115.825,266.276 101.658,264.11 87.5,262C 84.8752,258.763 84.8752,255.596 87.5,252.5 Z"/></g>
<g><path style="opacity:1" fill="#010100" d="M 87.5,312.5 C 93.1764,312.334 98.8431,312.501 104.5,313C 122.822,318.89 141.155,318.89 159.5,313C 168.167,312.333 176.833,312.333 185.5,313C 194.521,315.38 203.688,316.88 213,317.5C 225.436,316.472 237.769,314.806 250,312.5C 252.833,312.667 255.667,312.833 258.5,313C 261.167,316 261.167,319 258.5,322C 247.607,322.371 236.94,324.038 226.5,327C 213.605,328.388 200.938,327.388 188.5,324C 173.265,321.421 158.265,322.421 143.5,327C 135.167,327.667 126.833,327.667 118.5,327C 108.67,324.389 98.6701,322.722 88.5,322C 84.9678,319.172 84.6344,316.005 87.5,312.5 Z"/></g>
</svg>
