<?xml version="1.0" encoding="UTF-8"?>
<!DOCTYPE svg PUBLIC "-//W3C//DTD SVG 1.1//EN" "http://www.w3.org/Graphics/SVG/1.1/DTD/svg11.dtd">
<svg xmlns="http://www.w3.org/2000/svg" version="1.1" width="512px" height="512px" style="shape-rendering:geometricPrecision; text-rendering:geometricPrecision; image-rendering:optimizeQuality; fill-rule:evenodd; clip-rule:evenodd" xmlns:xlink="http://www.w3.org/1999/xlink">
<g><path style="opacity:0.983" fill="#010100" d="M 511.5,318.5 C 511.5,326.167 511.5,333.833 511.5,341.5C 507.397,360.443 497.73,375.943 482.5,388C 492.509,407.341 491.675,426.175 480,444.5C 469.956,457.272 456.789,463.772 440.5,464C 429.559,490.915 409.559,502.915 380.5,500C 367.426,497.265 356.593,490.765 348,480.5C 334.742,496.863 317.575,503.363 296.5,500C 291.117,498.761 285.95,496.928 281,494.5C 200.787,520.793 129.454,505.793 67,449.5C 28.1047,410.04 5.60472,362.706 -0.5,307.5C -0.5,292.5 -0.5,277.5 -0.5,262.5C 3.72568,219.322 16.8924,178.988 39,141.5C 42.7843,136.537 47.6176,135.203 53.5,137.5C 55.168,139.34 56.668,141.34 58,143.5C 58.6667,145.167 58.6667,146.833 58,148.5C 36.7247,184.66 24.058,223.66 20,265.5C 14.9646,344.492 43.7979,407.658 106.5,455C 134.568,474.028 165.568,484.528 199.5,486.5C 199.667,448.165 199.5,409.832 199,371.5C 180.967,343.313 181.134,315.313 199.5,287.5C 200.832,207.666 200.832,127.666 199.5,47.5C 198.893,47.6236 198.56,47.9569 198.5,48.5C 188.801,58.5308 177.468,66.3642 164.5,72C 147.26,76.5225 130.926,83.1892 115.5,92C 112.5,92.6667 109.5,92.6667 106.5,92C 105.211,90.1978 103.544,89.0312 101.5,88.5C 99.4873,82.7251 100.821,77.8918 105.5,74C 119.899,65.4691 135.232,59.1357 151.5,55C 164.726,50.1376 176.226,42.6376 186,32.5C 192.458,23.7565 198.291,14.5898 203.5,5C 209.585,2.23745 214.752,3.40412 219,8.5C 227.114,29.5488 241.614,44.3821 262.5,53C 321.105,69.2761 363.605,104.776 390,159.5C 410.649,163.981 424.149,176.315 430.5,196.5C 460.828,194.99 479.661,208.99 487,238.5C 488.838,250.135 487.004,261.135 481.5,271.5C 497.312,283.458 507.312,299.125 511.5,318.5 Z"/></g>
<g><path style="opacity:1" fill="#1d1510" d="M 198.5,48.5 C 198.56,47.9569 198.893,47.6236 199.5,47.5C 200.832,127.666 200.832,207.666 199.5,287.5C 199.833,207.665 199.499,127.998 198.5,48.5 Z"/></g>
<g><path style="opacity:1" fill="#9f765a" d="M 221.5,49.5 C 220.167,104.5 220.167,159.5 221.5,214.5C 221.217,215.289 220.717,215.956 220,216.5C 219.167,160.497 219.333,104.497 220.5,48.5C 221.107,48.6236 221.44,48.9569 221.5,49.5 Z"/></g>
<g><path style="opacity:1" fill="#bd8b6a" d="M 198.5,48.5 C 199.499,127.998 199.833,207.665 199.5,287.5C 181.134,315.313 180.967,343.313 199,371.5C 199.5,409.832 199.667,448.165 199.5,486.5C 165.568,484.528 134.568,474.028 106.5,455C 43.7979,407.658 14.9646,344.492 20,265.5C 24.058,223.66 36.7247,184.66 58,148.5C 58.6667,146.833 58.6667,145.167 58,143.5C 56.668,141.34 55.168,139.34 53.5,137.5C 58.119,130.879 63.119,124.546 68.5,118.5C 83.6714,122.992 88.6714,117.659 83.5,102.5C 89.2139,97.4513 95.2139,92.7846 101.5,88.5C 103.544,89.0312 105.211,90.1978 106.5,92C 109.5,92.6667 112.5,92.6667 115.5,92C 130.926,83.1892 147.26,76.5225 164.5,72C 177.468,66.3642 188.801,58.5308 198.5,48.5 Z"/></g>
<g><path style="opacity:1" fill="#bd8b6a" d="M 221.5,49.5 C 232.422,60.2326 245.088,68.3993 259.5,74C 293.74,82.8593 322.24,100.693 345,127.5C 353.825,138.477 361.658,150.144 368.5,162.5C 361.156,166.515 354.49,171.515 348.5,177.5C 331.748,160.8 312.415,156.8 290.5,165.5C 290.984,156.306 287.984,148.472 281.5,142C 273.304,139.1 268.304,141.933 266.5,150.5C 267.099,153.702 268.266,156.702 270,159.5C 270.667,163.5 270.667,167.5 270,171.5C 265.797,179.312 263.964,187.646 264.5,196.5C 247.121,195.507 232.788,201.507 221.5,214.5C 220.167,159.5 220.167,104.5 221.5,49.5 Z"/></g>
<g><path style="opacity:0.936" fill="#020101" d="M 83.5,102.5 C 88.6714,117.659 83.6714,122.992 68.5,118.5C 63.6037,111.291 64.937,105.458 72.5,101C 76.3566,100.242 80.0233,100.742 83.5,102.5 Z"/></g>
<g><path style="opacity:1" fill="#030201" d="M 139.5,140.5 C 153.013,141.91 156.179,148.577 149,160.5C 148.333,164.167 148.333,167.833 149,171.5C 156.236,185.13 156.236,198.797 149,212.5C 142.508,219.425 136.508,219.092 131,211.5C 130.333,208.833 130.333,206.167 131,203.5C 133.177,199.969 134.344,196.136 134.5,192C 132.881,185.473 131.048,178.973 129,172.5C 126.682,159.718 130.182,149.051 139.5,140.5 Z"/></g>
<g><path style="opacity:1" fill="#f8d89d" d="M 307.5,180.5 C 322.604,179.793 332.771,186.46 338,200.5C 338.667,284.5 338.667,368.5 338,452.5C 333.44,472.383 320.94,481.55 300.5,480C 282.482,474.459 273.982,462.293 275,443.5C 277.3,435.893 280.467,428.726 284.5,422C 282.093,413.463 276.76,410.797 268.5,414C 260.755,422.324 256.422,432.157 255.5,443.5C 241.368,441.875 232.202,434.209 228,420.5C 226.806,413.479 227.806,406.813 231,400.5C 231.899,398.673 233.233,397.34 235,396.5C 243.369,399.657 251.869,400.157 260.5,398C 265.833,392.333 265.833,386.667 260.5,381C 222.891,378.254 204.724,358.087 206,320.5C 210.553,300.947 222.387,288.114 241.5,282C 246.769,280.894 252.103,280.227 257.5,280C 263.795,277.575 265.962,273.075 264,266.5C 260.954,261.53 256.454,259.53 250.5,260.5C 245.126,260.573 239.959,261.573 235,263.5C 226.296,248.584 228.129,235.084 240.5,223C 248.547,216.924 257.547,214.924 267.5,217C 271.029,230.848 279.196,240.681 292,246.5C 300.342,244.828 303.342,239.828 301,231.5C 294.374,226.551 289.708,220.217 287,212.5C 285.04,196.066 291.874,185.399 307.5,180.5 Z"/></g>
<g><path style="opacity:1" fill="#f8d99d" d="M 379.5,180.5 C 399.835,180.336 410.001,190.336 410,210.5C 409.489,212.878 408.822,215.212 408,217.5C 404.015,223.148 399.682,228.481 395,233.5C 394.225,240.936 397.558,245.27 405,246.5C 412.466,243.377 418.466,238.377 423,231.5C 425.587,226.829 427.753,221.995 429.5,217C 449.65,214.512 462.15,223.012 467,242.5C 468.013,250.14 466.346,257.14 462,263.5C 454.409,260.802 446.576,259.968 438.5,261C 432.831,263.815 430.998,268.315 433,274.5C 434.167,277 436,278.833 438.5,280C 466.362,280.874 483.862,294.707 491,321.5C 493.501,348.343 482.334,366.843 457.5,377C 451.282,378.722 444.949,379.722 438.5,380C 432.975,382.919 431.142,387.419 433,393.5C 434.935,397.802 438.268,399.802 443,399.5C 449.877,398.564 456.71,397.731 463.5,397C 473.823,414.045 470.823,428.378 454.5,440C 450.401,442.09 446.067,443.256 441.5,443.5C 440.655,433.464 437.155,424.464 431,416.5C 425.906,411.722 420.573,411.389 415,415.5C 413.743,417.513 412.909,419.679 412.5,422C 415.266,428.129 418.099,434.296 421,440.5C 423.975,461.743 415.141,474.91 394.5,480C 376.419,480.923 364.585,472.756 359,455.5C 358.333,370.5 358.333,285.5 359,200.5C 362.444,190.221 369.278,183.554 379.5,180.5 Z"/></g>
<g><path style="opacity:1" fill="#030201" d="M 78.5,211.5 C 89.8614,210.686 94.0281,215.686 91,226.5C 80.4997,241.668 77.1664,258.335 81,276.5C 84.5734,285.647 87.5734,294.981 90,304.5C 91.8857,313.195 91.8857,321.862 90,330.5C 83.5084,337.425 77.5084,337.092 72,329.5C 71.6667,323.5 71.3333,317.5 71,311.5C 67.6725,300.182 64.3391,288.849 61,277.5C 57.2298,256.456 60.8964,236.789 72,218.5C 73.6941,215.642 75.8607,213.309 78.5,211.5 Z"/></g>
<g><path style="opacity:1" fill="#030201" d="M 134.5,289.5 C 141.654,288.157 146.487,290.823 149,297.5C 149.896,310.594 147.896,323.26 143,335.5C 142.032,343.314 142.699,350.98 145,358.5C 149.527,366.221 153.527,374.221 157,382.5C 161.635,397.839 161.635,413.173 157,428.5C 152.681,434.98 147.181,436.147 140.5,432C 139.54,430.581 138.707,429.081 138,427.5C 138.007,422.787 138.673,418.12 140,413.5C 141.066,405.006 140.399,396.672 138,388.5C 133.966,380.48 129.966,372.48 126,364.5C 122.8,354.045 121.8,343.379 123,332.5C 127.885,320.296 130.218,307.629 130,294.5C 131.366,292.638 132.866,290.972 134.5,289.5 Z"/></g>
<g><path style="opacity:1" fill="#ba8969" d="M 219.5,447.5 C 230.174,457.501 242.84,463.168 257.5,464.5C 259.18,469.361 261.514,473.861 264.5,478C 249.998,483.382 234.998,486.215 219.5,486.5C 219.5,473.5 219.5,460.5 219.5,447.5 Z"/></g>
</svg>
