<?xml version="1.0" encoding="UTF-8"?>
<!DOCTYPE svg PUBLIC "-//W3C//DTD SVG 1.1//EN" "http://www.w3.org/Graphics/SVG/1.1/DTD/svg11.dtd">
<svg xmlns="http://www.w3.org/2000/svg" version="1.1" width="512px" height="512px" style="shape-rendering:geometricPrecision; text-rendering:geometricPrecision; image-rendering:optimizeQuality; fill-rule:evenodd; clip-rule:evenodd" xmlns:xlink="http://www.w3.org/1999/xlink">
<g><path style="opacity:0.979" fill="#030201" d="M 511.5,426.5 C 511.5,432.167 511.5,437.833 511.5,443.5C 506.858,457.038 497.525,465.871 483.5,470C 459.181,476.046 434.515,480.046 409.5,482C 385.547,484.247 361.547,485.747 337.5,486.5C 333.715,486.589 330.048,486.089 326.5,485C 324.549,483.266 323.549,481.099 323.5,478.5C 324.183,474.98 326.183,472.48 329.5,471C 371.739,470.094 413.739,466.594 455.5,460.5C 465.098,459.136 474.431,456.636 483.5,453C 489.857,449.982 494.023,445.149 496,438.5C 496.667,435.833 496.667,433.167 496,430.5C 494.167,423.831 491.5,417.498 488,411.5C 476.583,392.997 464.916,374.664 453,356.5C 437.09,336.809 416.923,329.809 392.5,335.5C 385.07,336.7 378.07,339.2 371.5,343C 362.833,349 354.167,355 345.5,361C 334.303,367.399 322.303,371.399 309.5,373C 281.934,375.029 254.6,378.696 227.5,384C 202.028,389.185 181.528,402.018 166,422.5C 156.594,438.281 160.427,449.781 177.5,457C 195.534,461.95 213.867,465.283 232.5,467C 254.107,469.256 275.774,470.589 297.5,471C 300.892,472.542 302.892,475.042 303.5,478.5C 303.456,482.09 301.789,484.59 298.5,486C 258.76,486.084 219.427,482.084 180.5,474C 156.655,468.837 144.655,454.171 144.5,430C 80.1614,413.331 36.328,373.831 13,311.5C 6.2456,292.209 1.7456,272.542 -0.5,252.5C -0.5,237.833 -0.5,223.167 -0.5,208.5C 4.26555,155.14 25.5989,109.64 63.5,72C 79.7207,57.3827 98.054,46.0494 118.5,38C 123.308,36.5744 126.641,38.0744 128.5,42.5C 129.186,46.287 128.186,49.4537 125.5,52C 102.47,60.844 82.4703,74.1774 65.5,92C 75.2244,90.1858 84.8911,87.8525 94.5,85C 100.833,84.3333 107.167,84.3333 113.5,85C 125.5,87.3333 137.5,89.6667 149.5,92C 152.227,92.8184 154.894,92.6517 157.5,91.5C 165.564,79.6101 176.23,70.7768 189.5,65C 209.326,61.5839 226.993,53.5839 242.5,41C 219.5,40.3333 196.5,40.3333 173.5,41C 167.614,41.4688 161.781,42.3021 156,43.5C 151.768,43.0466 149.268,40.7132 148.5,36.5C 148.163,32.0057 150.163,29.1724 154.5,28C 163.781,26.5066 173.114,25.5066 182.5,25C 221.5,24.3333 260.5,24.3333 299.5,25C 315.605,25.3556 330.272,30.0223 343.5,39C 355.377,51.7208 367.711,64.0541 380.5,76C 391.455,83.7686 403.455,89.4353 416.5,93C 428.389,102.262 435.555,114.429 438,129.5C 440.52,148.444 442.52,167.444 444,186.5C 445.88,194.264 448.88,201.597 453,208.5C 455.978,215.345 456.645,222.345 455,229.5C 452.507,235.157 449.507,240.49 446,245.5C 443.122,252.711 442.788,260.044 445,267.5C 453.614,279.291 454.614,291.625 448,304.5C 443.544,310.625 438.711,316.458 433.5,322C 448.736,329.562 461.236,340.395 471,354.5C 480.832,371.502 491.166,388.169 502,404.5C 506.05,411.584 509.216,418.917 511.5,426.5 Z"/></g>
<g><path style="opacity:0.999" fill="#c56b34" d="M 148.5,36.5 C 149.268,40.7132 151.768,43.0466 156,43.5C 161.781,42.3021 167.614,41.4688 173.5,41C 196.5,40.3333 219.5,40.3333 242.5,41C 226.993,53.5839 209.326,61.5839 189.5,65C 176.23,70.7768 165.564,79.6101 157.5,91.5C 154.894,92.6517 152.227,92.8184 149.5,92C 137.5,89.6667 125.5,87.3333 113.5,85C 107.167,84.3333 100.833,84.3333 94.5,85C 84.8911,87.8525 75.2244,90.1858 65.5,92C 82.4703,74.1774 102.47,60.844 125.5,52C 128.186,49.4537 129.186,46.287 128.5,42.5C 135.107,40.2977 141.774,38.2977 148.5,36.5 Z"/></g>
<g><path style="opacity:1" fill="#fcd0a2" d="M 377.5,92.5 C 388.67,111.187 396.837,131.187 402,152.5C 404.331,180.577 403.498,208.577 399.5,236.5C 400.601,247.373 401.934,258.206 403.5,269C 403.231,278.142 400.731,286.642 396,294.5C 388.743,305.916 380.577,316.582 371.5,326.5C 359.522,333.491 347.855,340.991 336.5,349C 329.821,352.506 322.821,355.173 315.5,357C 301.529,358.83 287.529,360.33 273.5,361.5C 272.167,361.5 270.833,361.5 269.5,361.5C 269.5,360.5 269.5,359.5 269.5,358.5C 274.002,328.482 278.669,298.482 283.5,268.5C 282.006,262.75 278.339,260.584 272.5,262C 268.944,265.686 267.111,270.186 267,275.5C 262.09,305.118 257.59,334.784 253.5,364.5C 234.536,366.438 216.203,370.938 198.5,378C 197.167,378.667 195.833,378.667 194.5,378C 187.914,373.423 183.747,367.256 182,359.5C 181.667,346.5 181.333,333.5 181,320.5C 180.101,316.462 178.434,312.795 176,309.5C 169.461,303.292 162.627,297.459 155.5,292C 140.313,275.436 134.146,255.936 137,233.5C 138.115,229.271 139.781,225.271 142,221.5C 146.729,217.102 150.729,212.102 154,206.5C 156.584,200.419 158.251,194.085 159,187.5C 158.977,168.5 158.977,149.5 159,130.5C 164.724,96.1095 184.891,76.6095 219.5,72C 233.336,65.2539 246.336,57.2539 258.5,48C 263.855,44.8823 269.522,42.549 275.5,41C 287.535,40.1917 299.535,40.5251 311.5,42C 321.87,43.8515 330.87,48.3515 338.5,55.5C 349.929,69.5987 362.929,81.932 377.5,92.5 Z"/></g>
<g><path style="opacity:1" fill="#fdba84" d="M 377.5,92.5 C 387.495,98.6616 398.162,103.495 409.5,107C 413.759,110.358 416.926,114.525 419,119.5C 422.149,128.246 424.149,137.246 425,146.5C 426.144,161.19 427.478,175.856 429,190.5C 429.844,194.211 430.844,197.877 432,201.5C 435.672,207.84 438.505,214.507 440.5,221.5C 436.07,230.695 431.904,240.028 428,249.5C 427.283,255.225 427.616,260.891 429,266.5C 431.24,273.967 433.74,281.3 436.5,288.5C 436.196,292.114 435.029,295.448 433,298.5C 427.167,305.667 420.667,312.167 413.5,318C 398.807,317.756 384.807,320.589 371.5,326.5C 380.577,316.582 388.743,305.916 396,294.5C 400.731,286.642 403.231,278.142 403.5,269C 401.934,258.206 400.601,247.373 399.5,236.5C 403.498,208.577 404.331,180.577 402,152.5C 396.837,131.187 388.67,111.187 377.5,92.5 Z"/></g>
<g><path style="opacity:1" fill="#a95b2b" d="M 96.5,99.5 C 101.844,99.334 107.177,99.5006 112.5,100C 124.791,102.493 137.125,104.66 149.5,106.5C 146.756,114.609 144.756,122.942 143.5,131.5C 136.5,128 129.5,124.5 122.5,121C 118.831,119.416 114.998,118.582 111,118.5C 99.0759,120.516 87.2426,123.016 75.5,126C 63.8333,126.667 52.1667,126.667 40.5,126C 43.0617,121.032 46.2284,116.532 50,112.5C 65.7284,108.53 81.2284,104.196 96.5,99.5 Z"/></g>
<g><path style="opacity:1" fill="#050403" d="M 269.5,103.5 C 273.426,103.047 276.592,104.38 279,107.5C 285.667,119.5 292.333,131.5 299,143.5C 303.863,131.244 308.53,118.911 313,106.5C 317.333,102.5 321.667,102.5 326,106.5C 326.738,110.261 326.405,113.928 325,117.5C 319.137,132.756 313.47,148.09 308,163.5C 304.225,170.574 299.558,171.241 294,165.5C 284.667,148.833 275.333,132.167 266,115.5C 264.593,110.643 265.76,106.643 269.5,103.5 Z"/></g>
<g><path style="opacity:1" fill="#c66c34" d="M 107.5,133.5 C 111.747,133.178 115.747,134.011 119.5,136C 127.254,140.294 135.087,144.461 143,148.5C 144.976,162.836 144.976,177.17 143,191.5C 142.027,198.281 138.86,203.781 133.5,208C 123.225,209.685 113.058,211.851 103,214.5C 93.3365,210.753 83.8365,206.586 74.5,202C 67.79,198.286 60.79,197.62 53.5,200C 41.1667,204.5 28.8333,209 16.5,213.5C 16.8769,188.155 22.5436,163.989 33.5,141C 47.1002,142.318 60.7668,142.651 74.5,142C 85.652,139.296 96.652,136.463 107.5,133.5 Z"/></g>
<g><path style="opacity:1" fill="#060403" d="M 364.5,148.5 C 371.319,148.483 374.486,151.817 374,158.5C 365.022,169.646 355.855,180.646 346.5,191.5C 359.064,195.641 371.731,199.475 384.5,203C 388.875,208.121 388.209,212.455 382.5,216C 380.167,216.667 377.833,216.667 375.5,216C 360.338,211.087 345.005,206.754 329.5,203C 325.723,200.089 324.556,196.256 326,191.5C 338.357,176.648 351.19,162.315 364.5,148.5 Z"/></g>
<g><path style="opacity:1" fill="#060403" d="M 228.5,150.5 C 230.655,150.372 232.655,150.872 234.5,152C 243.667,161.833 252.833,171.667 262,181.5C 265.325,190.681 262.158,194.515 252.5,193C 243,182.833 233.5,172.667 224,162.5C 222.309,157.131 223.809,153.131 228.5,150.5 Z"/></g>
<g><path style="opacity:1" fill="#060403" d="M 197.5,201.5 C 200.271,201.421 202.937,201.921 205.5,203C 219.047,209.607 232.713,215.94 246.5,222C 249.723,225.112 250.223,228.612 248,232.5C 236.141,245.358 223.975,257.858 211.5,270C 203.839,270.67 200.673,267.17 202,259.5C 210.833,250 219.667,240.5 228.5,231C 217.653,225.41 206.653,220.077 195.5,215C 192.397,209.886 193.064,205.386 197.5,201.5 Z"/></g>
<g><path style="opacity:1" fill="#a95b2b" d="M 58.5,213.5 C 60.5273,213.338 62.5273,213.505 64.5,214C 75.5983,219.55 86.9317,224.55 98.5,229C 106.061,228.758 113.561,227.591 121,225.5C 121.833,225.833 122.667,226.167 123.5,226.5C 120.323,236.653 119.656,246.987 121.5,257.5C 114.163,257.128 106.829,256.628 99.5,256C 92.0625,251.563 84.3958,247.563 76.5,244C 63.8367,244.127 51.17,244.127 38.5,244C 30.7952,242.157 23.1285,240.157 15.5,238C 14.2175,235.205 14.2175,232.372 15.5,229.5C 30.0866,224.531 44.4199,219.197 58.5,213.5 Z"/></g>
<g><path style="opacity:1" fill="#050403" d="M 330.5,251.5 C 333.93,251.107 337.096,251.773 340,253.5C 345.667,265.5 351.333,277.5 357,289.5C 357.834,299.003 353.834,302.003 345,298.5C 339.061,286.956 333.394,275.289 328,263.5C 325.455,258.723 326.288,254.723 330.5,251.5 Z"/></g>
<g><path style="opacity:1" fill="#c66c34" d="M 15.5,253.5 C 34.4049,259.407 53.7382,261.24 73.5,259C 81.0406,263.27 88.7073,267.27 96.5,271C 106.194,271.301 115.861,271.968 125.5,273C 131.749,288.252 141.416,300.919 154.5,311C 147.5,311.333 140.5,311.667 133.5,312C 127.981,315.597 121.981,317.763 115.5,318.5C 98.902,314.517 82.2353,310.85 65.5,307.5C 60.5558,307.537 55.8891,308.703 51.5,311C 46.2288,314.553 40.7288,317.719 35,320.5C 33.1814,318.874 31.8481,316.874 31,314.5C 23.165,294.826 17.9983,274.493 15.5,253.5 Z"/></g>
<g><path style="opacity:1" fill="#a95b2b" d="M 62.5,322.5 C 65.5184,322.335 68.5184,322.502 71.5,323C 86.1579,327.914 101.158,331.414 116.5,333.5C 123.792,333.359 130.458,331.192 136.5,327C 146.494,326.5 156.494,326.334 166.5,326.5C 166.5,335.167 166.5,343.833 166.5,352.5C 154.162,352.333 141.829,352.5 129.5,353C 122.8,355.4 116.133,357.9 109.5,360.5C 103.379,357.605 97.3786,354.439 91.5,351C 88.2265,349.798 84.8931,348.798 81.5,348C 70.4849,347.832 59.4849,347.332 48.5,346.5C 45.4873,342.798 43.3206,338.798 42,334.5C 48.6823,330.081 55.5156,326.081 62.5,322.5 Z"/></g>
<g><path style="opacity:1" fill="#fccfa1" d="M 455.5,460.5 C 457.811,457.337 459.978,454.003 462,450.5C 465.216,442.858 465.216,435.191 462,427.5C 460.333,423.833 458.667,420.167 457,416.5C 445.416,398.334 434.083,380.001 423,361.5C 414.774,350.432 404.608,341.765 392.5,335.5C 416.923,329.809 437.09,336.809 453,356.5C 464.916,374.664 476.583,392.997 488,411.5C 491.5,417.498 494.167,423.831 496,430.5C 496.667,433.167 496.667,435.833 496,438.5C 494.023,445.149 489.857,449.982 483.5,453C 474.431,456.636 465.098,459.136 455.5,460.5 Z"/></g>
<g><path style="opacity:1" fill="#fde4c0" d="M 392.5,335.5 C 404.608,341.765 414.774,350.432 423,361.5C 434.083,380.001 445.416,398.334 457,416.5C 458.667,420.167 460.333,423.833 462,427.5C 465.216,435.191 465.216,442.858 462,450.5C 459.978,454.003 457.811,457.337 455.5,460.5C 413.739,466.594 371.739,470.094 329.5,471C 326.183,472.48 324.183,474.98 323.5,478.5C 316.864,479.616 310.197,479.616 303.5,478.5C 302.892,475.042 300.892,472.542 297.5,471C 275.774,470.589 254.107,469.256 232.5,467C 213.867,465.283 195.534,461.95 177.5,457C 160.427,449.781 156.594,438.281 166,422.5C 181.528,402.018 202.028,389.185 227.5,384C 254.6,378.696 281.934,375.029 309.5,373C 322.303,371.399 334.303,367.399 345.5,361C 354.167,355 362.833,349 371.5,343C 378.07,339.2 385.07,336.7 392.5,335.5 Z"/></g>
<g><path style="opacity:1" fill="#715c48" d="M 269.5,358.5 C 269.5,359.5 269.5,360.5 269.5,361.5C 270.833,361.5 272.167,361.5 273.5,361.5C 272.081,362.451 270.415,362.784 268.5,362.5C 268.232,360.901 268.566,359.568 269.5,358.5 Z"/></g>
<g><path style="opacity:1" fill="#c56b34" d="M 61.5,362.5 C 68.9059,362.152 76.2392,362.652 83.5,364C 89.5,367.333 95.5,370.667 101.5,374C 106.818,375.929 112.151,375.929 117.5,374C 122.397,371.717 127.397,369.717 132.5,368C 144.5,367.333 156.5,367.333 168.5,368C 171.339,375.341 175.672,381.674 181.5,387C 170.006,394.995 160.006,404.495 151.5,415.5C 123.276,409.72 98.2762,397.554 76.5,379C 70.9018,373.909 65.9018,368.409 61.5,362.5 Z"/></g>
<g><path style="opacity:1" fill="#0c0b09" d="M 343.5,394.5 C 351.149,394.314 354.315,397.981 353,405.5C 348.748,411.653 344.081,411.986 339,406.5C 337.309,401.131 338.809,397.131 343.5,394.5 Z"/></g>
<g><path style="opacity:1" fill="#0c0b09" d="M 257.5,414.5 C 265.986,414.161 269.152,418.161 267,426.5C 261.408,432.315 256.742,431.648 253,424.5C 252.077,420.017 253.577,416.683 257.5,414.5 Z"/></g>
<g><path style="opacity:1" fill="#0c0a08" d="M 399.5,431.5 C 407.656,430.821 411.156,434.488 410,442.5C 404.854,449.406 400.187,449.073 396,441.5C 395.182,437.469 396.349,434.136 399.5,431.5 Z"/></g>
</svg>
