<?xml version="1.0" encoding="UTF-8"?>
<!DOCTYPE svg PUBLIC "-//W3C//DTD SVG 1.1//EN" "http://www.w3.org/Graphics/SVG/1.1/DTD/svg11.dtd">
<svg xmlns="http://www.w3.org/2000/svg" version="1.1" width="512px" height="512px" style="shape-rendering:geometricPrecision; text-rendering:geometricPrecision; image-rendering:optimizeQuality; fill-rule:evenodd; clip-rule:evenodd" xmlns:xlink="http://www.w3.org/1999/xlink">
<g><path style="opacity:0.981" fill="#010100" d="M 395.5,115.5 C 394.892,118.958 392.892,121.458 389.5,123C 381.31,122.46 373.643,124.127 366.5,128C 361.944,131.803 357.61,135.803 353.5,140C 348.167,142 342.833,144 337.5,146C 332.913,150.228 331.413,155.394 333,161.5C 335.704,165.611 337.204,170.111 337.5,175C 336.551,181.387 334.884,187.554 332.5,193.5C 334.462,199.757 336.129,206.091 337.5,212.5C 336.439,219.014 334.772,225.347 332.5,231.5C 334.314,237.628 335.981,243.795 337.5,250C 337.165,255.507 335.665,260.674 333,265.5C 331.095,274.134 334.261,279.967 342.5,283C 386.669,283.831 430.669,283.665 474.5,282.5C 480.812,280.515 484.145,276.182 484.5,269.5C 482.024,263.065 480.357,256.398 479.5,249.5C 481.019,243.627 482.686,237.794 484.5,232C 481.97,225.589 480.304,218.922 479.5,212C 480.872,205.922 482.538,199.922 484.5,194C 482.323,187.635 480.656,181.135 479.5,174.5C 480.724,168.218 482.39,162.051 484.5,156C 484.167,152 482.5,148.667 479.5,146C 474.922,144.183 470.256,142.683 465.5,141.5C 459.731,136.906 454.064,132.073 448.5,127C 445.833,126 443.167,125 440.5,124C 433.167,123.667 425.833,123.333 418.5,123C 415.722,121.287 414.055,118.787 413.5,115.5C 413.444,112.439 414.778,110.272 417.5,109C 427.561,108.105 437.561,108.438 447.5,110C 457.094,112.625 464.761,117.958 470.5,126C 497.63,133.093 505.963,149.593 495.5,175.5C 497.679,181.535 499.345,187.702 500.5,194C 499.554,200.675 497.887,207.175 495.5,213.5C 497.679,219.535 499.345,225.702 500.5,232C 499.674,238.665 497.674,244.999 494.5,251C 500.691,261.554 501.358,272.221 496.5,283C 503.834,284.51 508.834,288.677 511.5,295.5C 511.5,309.167 511.5,322.833 511.5,336.5C 505.808,365.339 489.475,385.839 462.5,398C 456.37,400.449 450.037,402.116 443.5,403C 343.833,403.667 244.167,403.667 144.5,403C 142.266,401.362 140.933,399.195 140.5,396.5C 141.01,393.336 142.676,390.836 145.5,389C 245.535,388.989 345.535,388.322 445.5,387C 474.329,378.84 491.163,360.006 496,330.5C 496.667,320.167 496.667,309.833 496,299.5C 490.259,298.525 484.425,298.192 478.5,298.5C 324.166,298.333 169.833,298.5 15.5,299C 14.1588,312.126 14.3255,325.293 16,338.5C 19.9839,353.505 28.1506,365.505 40.5,374.5C 47.4301,380.467 55.4301,384.634 64.5,387C 81.7951,388.246 99.1284,388.912 116.5,389C 117.416,389.374 118.25,389.874 119,390.5C 119.845,392.611 120.678,394.611 121.5,396.5C 121.256,399.263 119.923,401.429 117.5,403C 100.833,403.667 84.1667,403.667 67.5,403C 38.0152,398.005 17.1819,381.838 5,354.5C 2.83236,348.469 0.999023,342.469 -0.5,336.5C -0.5,322.833 -0.5,309.167 -0.5,295.5C 1.97974,289.025 6.64641,285.025 13.5,283.5C 9.46177,272.252 10.4618,261.418 16.5,251C 13.3262,244.999 11.3262,238.665 10.5,232C 11.6546,225.702 13.3212,219.535 15.5,213.5C 13.2279,207.346 11.5612,201.013 10.5,194.5C 11.5612,187.987 13.2279,181.654 15.5,175.5C 5.06831,149.53 13.4016,133.03 40.5,126C 47.3769,117.056 56.3769,111.39 67.5,109C 91.1667,108.333 114.833,108.333 138.5,109C 149.192,111.672 157.858,117.339 164.5,126C 169.391,127.71 174.225,129.543 179,131.5C 183.775,129.543 188.609,127.71 193.5,126C 200.142,117.339 208.808,111.672 219.5,109C 243.167,108.333 266.833,108.333 290.5,109C 301.623,111.39 310.623,117.056 317.5,126C 322.391,127.71 327.225,129.543 332,131.5C 336.775,129.543 341.609,127.71 346.5,126C 358.085,111.689 373.085,106.022 391.5,109C 393.734,110.638 395.067,112.805 395.5,115.5 Z"/></g>
<g><path style="opacity:0.999" fill="#fcbf63" d="M 395.5,115.5 C 401.5,115.5 407.5,115.5 413.5,115.5C 414.055,118.787 415.722,121.287 418.5,123C 425.833,123.333 433.167,123.667 440.5,124C 443.167,125 445.833,126 448.5,127C 454.064,132.073 459.731,136.906 465.5,141.5C 464.25,141.577 463.417,142.244 463,143.5C 461.791,149.886 462.791,155.886 466,161.5C 466.667,165.5 466.667,169.5 466,173.5C 463.779,177.906 462.279,182.572 461.5,187.5C 462.153,191.809 463.653,195.809 466,199.5C 466.667,203.5 466.667,207.5 466,211.5C 463.928,215.642 462.428,219.975 461.5,224.5C 462.302,229.073 463.802,233.406 466,237.5C 468.102,246.86 465.602,254.693 458.5,261C 453.313,263.418 447.98,265.418 442.5,267C 439.061,269.527 436.061,272.527 433.5,276C 430.167,278 426.833,280 423.5,282C 440.497,282.5 457.497,282.667 474.5,282.5C 430.669,283.665 386.669,283.831 342.5,283C 334.261,279.967 331.095,274.134 333,265.5C 335.665,260.674 337.165,255.507 337.5,250C 335.981,243.795 334.314,237.628 332.5,231.5C 334.772,225.347 336.439,219.014 337.5,212.5C 336.129,206.091 334.462,199.757 332.5,193.5C 334.884,187.554 336.551,181.387 337.5,175C 337.204,170.111 335.704,165.611 333,161.5C 331.413,155.394 332.913,150.228 337.5,146C 342.833,144 348.167,142 353.5,140C 357.61,135.803 361.944,131.803 366.5,128C 373.643,124.127 381.31,122.46 389.5,123C 392.892,121.458 394.892,118.958 395.5,115.5 Z"/></g>
<g><path style="opacity:1" fill="#fdc064" d="M 159.5,141.5 C 158.25,141.577 157.417,142.244 157,143.5C 156.833,145.5 156.667,147.5 156.5,149.5C 157.982,155.632 159.316,161.799 160.5,168C 159.747,174.489 158.413,180.822 156.5,187C 157.85,193.353 159.183,199.686 160.5,206C 159.854,212.407 158.521,218.573 156.5,224.5C 156.341,229.189 157.507,233.522 160,237.5C 162.188,246.938 159.688,254.772 152.5,261C 147.313,263.418 141.98,265.418 136.5,267C 130.172,274.486 122.505,279.986 113.5,283.5C 87.8312,283.667 62.1645,283.5 36.5,283C 28.2522,279.922 25.0856,274.089 27,265.5C 29.7453,260.519 31.2453,255.186 31.5,249.5C 29.9809,243.627 28.3142,237.794 26.5,232C 28.885,225.716 30.5517,219.216 31.5,212.5C 30.2764,206.218 28.6097,200.051 26.5,194C 28.9792,187.893 30.6459,181.56 31.5,175C 31.219,169.489 29.719,164.322 27,159.5C 25.7813,154.102 27.2813,149.602 31.5,146C 36.8333,144 42.1667,142 47.5,140C 52.1337,136.368 56.467,132.368 60.5,128C 63.3821,126.392 66.3821,125.059 69.5,124C 91.5,123.333 113.5,123.333 135.5,124C 138.618,125.059 141.618,126.392 144.5,128C 149.19,132.921 154.19,137.421 159.5,141.5 Z"/></g>
<g><path style="opacity:1" fill="#fcc064" d="M 312.5,141.5 C 311.25,141.577 310.417,142.244 310,143.5C 308.849,150.179 309.849,156.512 313,162.5C 313.667,166.5 313.667,170.5 313,174.5C 310.928,178.642 309.428,182.975 308.5,187.5C 309.153,191.809 310.653,195.809 313,199.5C 313.667,203.5 313.667,207.5 313,211.5C 310.928,215.642 309.428,219.975 308.5,224.5C 309.302,229.073 310.802,233.406 313,237.5C 315.102,246.86 312.602,254.693 305.5,261C 300.167,263 294.833,265 289.5,267C 283.598,273.945 276.598,279.445 268.5,283.5C 242.165,283.667 215.831,283.5 189.5,283C 181.252,279.922 178.086,274.089 180,265.5C 182.665,260.674 184.165,255.507 184.5,250C 182.981,243.795 181.314,237.628 179.5,231.5C 181.772,225.347 183.439,219.014 184.5,212.5C 183.129,206.091 181.462,199.757 179.5,193.5C 181.736,187.684 183.403,181.684 184.5,175.5C 184.234,170.436 182.734,165.769 180,161.5C 178.413,155.394 179.913,150.228 184.5,146C 189.833,144 195.167,142 200.5,140C 205.056,136.197 209.39,132.197 213.5,128C 216.382,126.392 219.382,125.059 222.5,124C 244.167,123.333 265.833,123.333 287.5,124C 291.518,124.919 295.185,126.586 298.5,129C 302.766,133.774 307.432,137.941 312.5,141.5 Z"/></g>
<g><path style="opacity:1" fill="#fbb240" d="M 159.5,141.5 C 162.253,142.022 164.92,142.856 167.5,144C 164.638,149.832 163.804,155.998 165,162.5C 166.513,166.853 168.013,171.187 169.5,175.5C 168.291,179.589 166.791,183.589 165,187.5C 164.066,196.489 165.566,204.989 169.5,213C 166.962,218.747 165.295,224.747 164.5,231C 165.047,237.803 166.713,244.303 169.5,250.5C 166.805,256.727 165.138,263.227 164.5,270C 164.572,274.385 165.572,278.552 167.5,282.5C 149.512,283.5 131.512,283.833 113.5,283.5C 122.505,279.986 130.172,274.486 136.5,267C 141.98,265.418 147.313,263.418 152.5,261C 159.688,254.772 162.188,246.938 160,237.5C 157.507,233.522 156.341,229.189 156.5,224.5C 158.521,218.573 159.854,212.407 160.5,206C 159.183,199.686 157.85,193.353 156.5,187C 158.413,180.822 159.747,174.489 160.5,168C 159.316,161.799 157.982,155.632 156.5,149.5C 156.667,147.5 156.833,145.5 157,143.5C 157.417,142.244 158.25,141.577 159.5,141.5 Z"/></g>
<g><path style="opacity:1" fill="#fab240" d="M 312.5,141.5 C 315.054,142.606 317.721,143.439 320.5,144C 318.179,147.466 317.179,151.3 317.5,155.5C 317.942,162.489 319.609,169.155 322.5,175.5C 321.291,179.589 319.791,183.589 318,187.5C 317.066,196.489 318.566,204.989 322.5,213C 319.962,218.747 318.295,224.747 317.5,231C 318.047,237.803 319.713,244.303 322.5,250.5C 319.831,256.517 318.165,262.85 317.5,269.5C 317.713,274.017 318.713,278.35 320.5,282.5C 303.179,283.5 285.846,283.833 268.5,283.5C 276.598,279.445 283.598,273.945 289.5,267C 294.833,265 300.167,263 305.5,261C 312.602,254.693 315.102,246.86 313,237.5C 310.802,233.406 309.302,229.073 308.5,224.5C 309.428,219.975 310.928,215.642 313,211.5C 313.667,207.5 313.667,203.5 313,199.5C 310.653,195.809 309.153,191.809 308.5,187.5C 309.428,182.975 310.928,178.642 313,174.5C 313.667,170.5 313.667,166.5 313,162.5C 309.849,156.512 308.849,150.179 310,143.5C 310.417,142.244 311.25,141.577 312.5,141.5 Z"/></g>
<g><path style="opacity:1" fill="#fdb340" d="M 465.5,141.5 C 470.256,142.683 474.922,144.183 479.5,146C 482.5,148.667 484.167,152 484.5,156C 482.39,162.051 480.724,168.218 479.5,174.5C 480.656,181.135 482.323,187.635 484.5,194C 482.538,199.922 480.872,205.922 479.5,212C 480.304,218.922 481.97,225.589 484.5,232C 482.686,237.794 481.019,243.627 479.5,249.5C 480.357,256.398 482.024,263.065 484.5,269.5C 484.145,276.182 480.812,280.515 474.5,282.5C 457.497,282.667 440.497,282.5 423.5,282C 426.833,280 430.167,278 433.5,276C 436.061,272.527 439.061,269.527 442.5,267C 447.98,265.418 453.313,263.418 458.5,261C 465.602,254.693 468.102,246.86 466,237.5C 463.802,233.406 462.302,229.073 461.5,224.5C 462.428,219.975 463.928,215.642 466,211.5C 466.667,207.5 466.667,203.5 466,199.5C 463.653,195.809 462.153,191.809 461.5,187.5C 462.279,182.572 463.779,177.906 466,173.5C 466.667,169.5 466.667,165.5 466,161.5C 462.791,155.886 461.791,149.886 463,143.5C 463.417,142.244 464.25,141.577 465.5,141.5 Z"/></g>
<g><path style="opacity:1" fill="#050301" d="M 84.5,154.5 C 86.8568,154.337 89.1902,154.503 91.5,155C 93.3333,155.5 94.5,156.667 95,158.5C 95.6667,162.167 95.6667,165.833 95,169.5C 92.8027,176.227 89.8027,182.561 86,188.5C 85.1492,194.253 85.4826,199.92 87,205.5C 98.5418,222.993 98.2085,240.327 86,257.5C 86.0111,262.1 85.0111,266.433 83,270.5C 74.2238,274.526 70.0571,271.692 70.5,262C 70.4933,258.742 70.9933,255.575 72,252.5C 74.4121,247.341 77.0788,242.341 80,237.5C 80.6667,232.833 80.6667,228.167 80,223.5C 67.3689,205.182 67.3689,186.848 80,168.5C 79.5974,163.107 81.0974,158.44 84.5,154.5 Z"/></g>
<g><path style="opacity:1" fill="#060402" d="M 123.5,154.5 C 128.742,153.271 132.575,154.937 135,159.5C 135.518,163.551 135.184,167.551 134,171.5C 131.439,177.725 128.439,183.725 125,189.5C 124.333,193.833 124.333,198.167 125,202.5C 127.412,207.659 130.079,212.659 133,217.5C 135.868,225.052 136.202,232.719 134,240.5C 131.527,246.779 128.527,252.779 125,258.5C 124.667,261.5 124.333,264.5 124,267.5C 121.774,271.861 118.274,273.361 113.5,272C 111.951,270.786 110.785,269.286 110,267.5C 108.822,257.368 111.488,248.368 118,240.5C 120.852,234.645 121.185,228.645 119,222.5C 106.799,205.661 106.466,188.661 118,171.5C 119.737,167.339 120.737,163.005 121,158.5C 121.662,157.016 122.496,155.683 123.5,154.5 Z"/></g>
<g><path style="opacity:1" fill="#060402" d="M 237.5,154.5 C 239.857,154.337 242.19,154.503 244.5,155C 246.333,155.5 247.5,156.667 248,158.5C 248.667,162.167 248.667,165.833 248,169.5C 245.803,176.227 242.803,182.561 239,188.5C 237.079,193.484 237.079,198.484 239,203.5C 251.63,221.472 251.63,239.472 239,257.5C 237.927,261.084 237.26,264.75 237,268.5C 233.644,272.948 229.644,273.615 225,270.5C 223.437,265.282 223.104,259.949 224,254.5C 226.231,249.269 228.897,244.269 232,239.5C 233.439,234.238 233.772,228.904 233,223.5C 226.54,215.124 223.04,205.624 222.5,195C 223.021,185.795 226.187,177.628 232,170.5C 232.993,166.558 233.66,162.558 234,158.5C 235.376,157.295 236.542,155.962 237.5,154.5 Z"/></g>
<g><path style="opacity:1" fill="#070502" d="M 276.5,154.5 C 280.603,153.769 284.103,154.769 287,157.5C 288.538,168.351 285.871,178.017 279,186.5C 277,192.5 277,198.5 279,204.5C 287.945,217.091 289.945,230.758 285,245.5C 282.412,249.674 280.079,254.007 278,258.5C 277.84,262.287 277.174,265.954 276,269.5C 267.818,274.985 263.318,272.818 262.5,263C 262.641,259.448 263.141,255.948 264,252.5C 266.921,247.659 269.588,242.659 272,237.5C 272.667,232.5 272.667,227.5 272,222.5C 259.796,205.378 259.463,188.044 271,170.5C 272.073,166.916 272.74,163.25 273,159.5C 273.997,157.677 275.164,156.01 276.5,154.5 Z"/></g>
<g><path style="opacity:1" fill="#070502" d="M 390.5,154.5 C 392.857,154.337 395.19,154.503 397.5,155C 399.333,155.5 400.5,156.667 401,158.5C 401.667,162.167 401.667,165.833 401,169.5C 398.803,176.227 395.803,182.561 392,188.5C 390.079,193.484 390.079,198.484 392,203.5C 404.665,221.487 404.665,239.487 392,257.5C 390.927,261.084 390.26,264.75 390,268.5C 386.644,272.948 382.644,273.615 378,270.5C 374.934,264.303 374.934,257.97 378,251.5C 380.936,246.627 383.603,241.627 386,236.5C 386.667,232.5 386.667,228.5 386,224.5C 383.936,220.039 381.602,215.706 379,211.5C 374.916,201.932 374.583,192.266 378,182.5C 380.936,177.627 383.603,172.627 386,167.5C 385.527,162.339 387.027,158.006 390.5,154.5 Z"/></g>
<g><path style="opacity:1" fill="#070402" d="M 429.5,154.5 C 433.603,153.769 437.103,154.769 440,157.5C 441.538,168.351 438.871,178.017 432,186.5C 430,192.5 430,198.5 432,204.5C 443.575,222.666 443.242,240.666 431,258.5C 430.74,262.25 430.073,265.916 429,269.5C 420.818,274.985 416.318,272.818 415.5,263C 415.641,259.448 416.141,255.948 417,252.5C 419.921,247.659 422.588,242.659 425,237.5C 425.667,232.833 425.667,228.167 425,223.5C 422.299,218.147 419.632,212.814 417,207.5C 415.081,199.477 415.081,191.477 417,183.5C 422.253,176.33 425.253,168.33 426,159.5C 426.997,157.677 428.164,156.01 429.5,154.5 Z"/></g>
<g><path style="opacity:1" fill="#00b864" d="M 478.5,298.5 C 482.317,322.875 475.651,343.709 458.5,361C 448.104,369.692 436.104,374.692 422.5,376C 297.5,376.667 172.5,376.667 47.5,376C 45.1341,375.56 42.8008,375.06 40.5,374.5C 28.1506,365.505 19.9839,353.505 16,338.5C 14.3255,325.293 14.1588,312.126 15.5,299C 169.833,298.5 324.166,298.333 478.5,298.5 Z"/></g>
<g><path style="opacity:1" fill="#00a654" d="M 478.5,298.5 C 484.425,298.192 490.259,298.525 496,299.5C 496.667,309.833 496.667,320.167 496,330.5C 491.163,360.006 474.329,378.84 445.5,387C 345.535,388.322 245.535,388.989 145.5,389C 142.676,390.836 141.01,393.336 140.5,396.5C 134.167,396.5 127.833,396.5 121.5,396.5C 120.678,394.611 119.845,392.611 119,390.5C 118.25,389.874 117.416,389.374 116.5,389C 99.1284,388.912 81.7951,388.246 64.5,387C 55.4301,384.634 47.4301,380.467 40.5,374.5C 42.8008,375.06 45.1341,375.56 47.5,376C 172.5,376.667 297.5,376.667 422.5,376C 436.104,374.692 448.104,369.692 458.5,361C 475.651,343.709 482.317,322.875 478.5,298.5 Z"/></g>
</svg>
