<?xml version="1.0" encoding="UTF-8"?>
<!DOCTYPE svg PUBLIC "-//W3C//DTD SVG 1.1//EN" "http://www.w3.org/Graphics/SVG/1.1/DTD/svg11.dtd">
<svg xmlns="http://www.w3.org/2000/svg" version="1.1" width="512px" height="512px" style="shape-rendering:geometricPrecision; text-rendering:geometricPrecision; image-rendering:optimizeQuality; fill-rule:evenodd; clip-rule:evenodd" xmlns:xlink="http://www.w3.org/1999/xlink">
<g><path style="opacity:0.99" fill="#030200" d="M 233.5,-0.5 C 248.167,-0.5 262.833,-0.5 277.5,-0.5C 367.555,10.0943 435.388,54.4276 481,132.5C 497.855,164.278 508.022,197.945 511.5,233.5C 511.5,248.167 511.5,262.833 511.5,277.5C 500.906,367.555 456.572,435.388 378.5,481C 346.722,497.855 313.055,508.022 277.5,511.5C 262.833,511.5 248.167,511.5 233.5,511.5C 143.445,500.906 75.612,456.572 30,378.5C 13.1449,346.722 2.97822,313.055 -0.5,277.5C -0.5,262.833 -0.5,248.167 -0.5,233.5C 10.0943,143.445 54.4276,75.612 132.5,30C 164.278,13.1449 197.945,2.97822 233.5,-0.5 Z"/></g>
<g><path style="opacity:1" fill="#f4cb4b" d="M 235.5,14.5 C 251.555,14.0824 267.555,14.7491 283.5,16.5C 274.5,26.1667 265.167,35.5 255.5,44.5C 245.833,35.5 236.5,26.1667 227.5,16.5C 230.306,15.8324 232.972,15.1657 235.5,14.5 Z"/></g>
<g><path style="opacity:1" fill="#f3b735" d="M 213.5,24.5 C 202.743,28.7125 192.409,33.7125 182.5,39.5C 188.662,32.5045 195.329,26.0045 202.5,20C 207.515,18.3938 211.181,19.8938 213.5,24.5 Z"/></g>
<g><path style="opacity:1" fill="#fcd34e" d="M 301.5,19.5 C 304.607,19.3512 307.607,19.8512 310.5,21C 321.833,32.3333 333.167,43.6667 344.5,55C 331.626,68.2086 318.459,81.042 305,93.5C 291.694,81.361 278.861,68.6943 266.5,55.5C 278.188,43.4793 289.855,31.4793 301.5,19.5 Z"/></g>
<g><path style="opacity:1" fill="#fdd34e" d="M 213.5,24.5 C 224.146,34.479 234.479,44.8123 244.5,55.5C 231.833,68.8333 218.833,81.8333 205.5,94.5C 192.681,81.1806 179.681,68.014 166.5,55C 171.702,49.6303 177.035,44.4636 182.5,39.5C 192.409,33.7125 202.743,28.7125 213.5,24.5 Z"/></g>
<g><path style="opacity:1" fill="#e9af32" d="M 167.5,30.5 C 168.239,30.369 168.906,30.5357 169.5,31C 165,35.5 160.5,40 156,44.5C 154.167,42.6667 152.333,40.8333 150.5,39C 155.98,35.5934 161.647,32.76 167.5,30.5 Z"/></g>
<g><path style="opacity:1" fill="#efc84a" d="M 341.5,31.5 C 341.56,30.9569 341.893,30.6236 342.5,30.5C 348.652,33.0766 354.652,35.9099 360.5,39C 358.667,40.8333 356.833,42.6667 355,44.5C 350.631,39.9633 346.131,35.6299 341.5,31.5 Z"/></g>
<g><path style="opacity:1" fill="#f4b834" d="M 134.5,46.5 C 138.302,47.7786 141.469,50.1119 144,53.5C 144.667,54.5 144.667,55.5 144,56.5C 131.333,69.1667 118.667,81.8333 106,94.5C 101.333,89.8333 96.6667,85.1667 92,80.5C 91.3333,79.8333 91.3333,79.1667 92,78.5C 105.25,66.4754 119.416,55.8087 134.5,46.5 Z"/></g>
<g><path style="opacity:1" fill="#f9d04d" d="M 373.5,46.5 C 381.223,49.8647 388.556,54.0314 395.5,59C 403.61,65.1423 411.443,71.6423 419,78.5C 419.667,79.1667 419.667,79.8333 419,80.5C 414.333,85.1667 409.667,89.8333 405,94.5C 392.333,81.8333 379.667,69.1667 367,56.5C 366.333,55.5 366.333,54.5 367,53.5C 369.372,51.2968 371.539,48.9635 373.5,46.5 Z"/></g>
<g><path style="opacity:1" fill="#fad14d" d="M 154.5,66.5 C 155.552,66.3505 156.552,66.5172 157.5,67C 170.209,79.3744 182.542,92.0411 194.5,105C 182.042,118.459 169.209,131.626 156,144.5C 142.833,131.333 129.667,118.167 116.5,105C 129.369,92.2985 142.035,79.4652 154.5,66.5 Z"/></g>
<g><path style="opacity:1" fill="#fad14d" d="M 353.5,66.5 C 354.552,66.3505 355.552,66.5172 356.5,67C 369.167,79.6667 381.833,92.3333 394.5,105C 381.626,118.209 368.459,131.042 355,143.5C 341.5,131.333 328.667,118.5 316.5,105C 328.66,92.0064 340.993,79.1731 353.5,66.5 Z"/></g>
<g><path style="opacity:1" fill="#fed44e" d="M 254.5,66.5 C 268.247,78.7445 281.581,91.5778 294.5,105C 281.653,118.014 268.653,130.847 255.5,143.5C 242.347,130.847 229.347,118.014 216.5,105C 229.369,92.2985 242.035,79.4652 254.5,66.5 Z"/></g>
<g><path style="opacity:1" fill="#f4b734" d="M 79.5,90.5 C 85.2416,94.7347 90.5749,99.568 95.5,105C 82.3333,118.167 69.1667,131.333 56,144.5C 52.8333,141.333 49.6667,138.167 46.5,135C 55.9244,118.978 66.9244,104.145 79.5,90.5 Z"/></g>
<g><path style="opacity:1" fill="#f9d04d" d="M 429.5,90.5 C 432.056,91.5434 434.223,93.2101 436,95.5C 446.662,107.829 456.162,120.995 464.5,135C 461.333,138.167 458.167,141.333 455,144.5C 441.833,131.333 428.667,118.167 415.5,105C 420.37,100.298 425.037,95.4646 429.5,90.5 Z"/></g>
<g><path style="opacity:1" fill="#fbd24d" d="M 75.5,163.5 C 75.3433,162.127 75.51,160.793 76,159.5C 79.8675,151.104 83.7008,142.77 87.5,134.5C 93.4639,128.035 99.6306,121.702 106,115.5C 118.667,128.167 131.333,140.833 144,153.5C 144.667,154.5 144.667,155.5 144,156.5C 131.626,169.209 118.959,181.542 106,193.5C 95.3402,184.007 85.1735,174.007 75.5,163.5 Z"/></g>
<g><path style="opacity:1" fill="#fcd34e" d="M 204.5,116.5 C 205.552,116.351 206.552,116.517 207.5,117C 220.014,129.347 232.348,141.847 244.5,154.5C 231.833,167.833 218.833,180.833 205.5,193.5C 192.347,180.847 179.347,168.014 166.5,155C 179.369,142.298 192.035,129.465 204.5,116.5 Z"/></g>
<g><path style="opacity:1" fill="#fcd34e" d="M 303.5,116.5 C 304.552,116.351 305.552,116.517 306.5,117C 319.167,129.667 331.833,142.333 344.5,155C 331.653,168.014 318.653,180.847 305.5,193.5C 292.167,180.833 279.167,167.833 266.5,154.5C 278.855,141.813 291.188,129.146 303.5,116.5 Z"/></g>
<g><path style="opacity:1" fill="#fbd14d" d="M 404.5,115.5 C 417.965,128.465 431.299,141.631 444.5,155C 431.626,168.209 418.459,181.042 405,193.5C 391.5,181.333 378.667,168.5 366.5,155C 378.993,141.673 391.66,128.506 404.5,115.5 Z"/></g>
<g><path style="opacity:1" fill="#f0b534" d="M 87.5,134.5 C 83.7008,142.77 79.8675,151.104 76,159.5C 75.51,160.793 75.3433,162.127 75.5,163.5C 72.3694,160.871 69.3694,158.038 66.5,155C 73.3685,147.964 80.3685,141.131 87.5,134.5 Z"/></g>
<g><path style="opacity:1" fill="#e9af32" d="M 38.5,149.5 C 41.2254,150.713 43.5588,152.546 45.5,155C 40.6667,159.833 35.8333,164.667 31,169.5C 32.6098,162.593 35.1098,155.927 38.5,149.5 Z"/></g>
<g><path style="opacity:1" fill="#edc649" d="M 470.5,149.5 C 475.524,155.217 478.691,161.884 480,169.5C 475.167,164.667 470.333,159.833 465.5,155C 467.373,153.296 469.04,151.463 470.5,149.5 Z"/></g>
<g><path style="opacity:1" fill="#f7b935" d="M 69.5,179.5 C 61.7207,199.514 58.054,220.181 58.5,241.5C 57.6857,243.273 56.3524,243.773 54.5,243C 41.68,231.189 30.0134,218.522 19.5,205C 19.6251,203.373 20.1251,201.873 21,200.5C 32.6667,188.833 44.3333,177.167 56,165.5C 60.7033,170.035 65.2033,174.702 69.5,179.5 Z"/></g>
<g><path style="opacity:1" fill="#fcd34e" d="M 155.5,165.5 C 168.812,178.146 181.812,191.146 194.5,204.5C 181.833,217.833 168.833,230.833 155.5,243.5C 142.347,230.847 129.347,218.014 116.5,205C 129.702,191.965 142.702,178.798 155.5,165.5 Z"/></g>
<g><path style="opacity:1" fill="#fad14d" d="M 254.5,165.5 C 268.428,177.759 281.761,190.759 294.5,204.5C 281.833,217.833 268.833,230.833 255.5,243.5C 242.167,230.833 229.167,217.833 216.5,204.5C 229.188,191.479 241.855,178.479 254.5,165.5 Z"/></g>
<g><path style="opacity:1" fill="#fcd34e" d="M 354.5,165.5 C 367.965,178.465 381.299,191.631 394.5,205C 381.653,218.014 368.653,230.847 355.5,243.5C 342.167,230.833 329.167,217.833 316.5,204.5C 329.188,191.479 341.855,178.479 354.5,165.5 Z"/></g>
<g><path style="opacity:1" fill="#fbd24d" d="M 454.5,165.5 C 466.465,176.965 478.298,188.631 490,200.5C 491.373,202.695 491.706,205.029 491,207.5C 484.968,213.198 479.301,219.198 474,225.5C 467.957,231.878 461.624,237.878 455,243.5C 441.541,231.042 428.374,218.209 415.5,205C 428.702,191.965 441.702,178.798 454.5,165.5 Z"/></g>
<g><path style="opacity:1" fill="#fad14d" d="M 69.5,179.5 C 78.2983,187.798 86.965,196.298 95.5,205C 83.2985,217.369 70.9651,229.535 58.5,241.5C 58.054,220.181 61.7207,199.514 69.5,179.5 Z"/></g>
<g><path style="opacity:1" fill="#fed44e" d="M 105.5,215.5 C 118.812,228.146 131.812,241.146 144.5,254.5C 131.847,267.653 119.014,280.653 106,293.5C 92.9859,280.653 80.1525,267.653 67.5,254.5C 80.1879,241.479 92.8546,228.479 105.5,215.5 Z"/></g>
<g><path style="opacity:1" fill="#fbd14d" d="M 204.5,215.5 C 218.428,227.759 231.761,240.759 244.5,254.5C 231.833,267.833 218.833,280.833 205.5,293.5C 192.167,280.833 179.167,267.833 166.5,254.5C 179.188,241.479 191.855,228.479 204.5,215.5 Z"/></g>
<g><path style="opacity:1" fill="#fbd14d" d="M 304.5,215.5 C 318.428,227.759 331.761,240.759 344.5,254.5C 331.833,267.833 318.833,280.833 305.5,293.5C 292.167,280.833 279.167,267.833 266.5,254.5C 279.188,241.479 291.855,228.479 304.5,215.5 Z"/></g>
<g><path style="opacity:1" fill="#fed44e" d="M 404.5,215.5 C 417.812,228.146 430.812,241.146 443.5,254.5C 430.847,267.653 418.014,280.653 405,293.5C 391.986,280.653 379.153,267.653 366.5,254.5C 379.188,241.479 391.855,228.479 404.5,215.5 Z"/></g>
<g><path style="opacity:1" fill="#f2b634" d="M 15.5,225.5 C 25.4321,235.096 35.4321,244.763 45.5,254.5C 36.1667,264.5 26.5,274.167 16.5,283.5C 14.2072,264.208 13.8738,244.874 15.5,225.5 Z"/></g>
<g><path style="opacity:1" fill="#f7ce4c" d="M 493.5,225.5 C 494.787,226.871 495.453,228.705 495.5,231C 497.018,248.541 496.685,266.041 494.5,283.5C 484.5,274.167 474.833,264.5 465.5,254.5C 475.576,245.426 484.909,235.759 493.5,225.5 Z"/></g>
<g><path style="opacity:1" fill="#f9bb35" d="M 57.5,267.5 C 58.4725,289.003 62.1392,310.003 68.5,330.5C 64.5368,334.964 60.3702,339.298 56,343.5C 44,331.5 32,319.5 20,307.5C 19.3333,305.5 19.3333,303.5 20,301.5C 32,289.5 44,277.5 56,265.5C 56.7172,266.044 57.2172,266.711 57.5,267.5 Z"/></g>
<g><path style="opacity:1" fill="#fad14d" d="M 154.5,265.5 C 168.428,277.759 181.761,290.759 194.5,304.5C 181.833,317.833 168.833,330.833 155.5,343.5C 142.167,330.833 129.167,317.833 116.5,304.5C 129.188,291.479 141.855,278.479 154.5,265.5 Z"/></g>
<g><path style="opacity:1" fill="#fbd14d" d="M 254.5,265.5 C 268.428,277.759 281.761,290.759 294.5,304.5C 281.833,317.833 268.833,330.833 255.5,343.5C 242.167,330.833 229.167,317.833 216.5,304.5C 229.188,291.479 241.855,278.479 254.5,265.5 Z"/></g>
<g><path style="opacity:1" fill="#fad14d" d="M 354.5,265.5 C 368.428,277.759 381.761,290.759 394.5,304.5C 381.833,317.833 368.833,330.833 355.5,343.5C 342.167,330.833 329.167,317.833 316.5,304.5C 329.188,291.479 341.855,278.479 354.5,265.5 Z"/></g>
<g><path style="opacity:1" fill="#fed44e" d="M 454.5,265.5 C 466.798,277.298 478.965,289.298 491,301.5C 491.667,303.5 491.667,305.5 491,307.5C 479,319.5 467,331.5 455,343.5C 441.986,330.653 429.153,317.653 416.5,304.5C 429.188,291.479 441.855,278.479 454.5,265.5 Z"/></g>
<g><path style="opacity:1" fill="#fed44e" d="M 57.5,267.5 C 70.1457,279.479 82.479,291.812 94.5,304.5C 86.1457,313.521 77.479,322.188 68.5,330.5C 62.1392,310.003 58.4725,289.003 57.5,267.5 Z"/></g>
<g><path style="opacity:1" fill="#fcd34e" d="M 85.5,372.5 C 81.2819,364.064 77.6153,355.398 74.5,346.5C 84.479,335.854 94.8123,325.521 105.5,315.5C 118.833,328.167 131.833,341.167 144.5,354.5C 131.847,367.653 119.014,380.653 106,393.5C 98.9641,386.632 92.1307,379.632 85.5,372.5 Z"/></g>
<g><path style="opacity:1" fill="#fcd34e" d="M 204.5,315.5 C 218.428,327.759 231.761,340.759 244.5,354.5C 231.833,367.833 218.833,380.833 205.5,393.5C 192.681,380.181 179.681,367.014 166.5,354C 179.369,341.298 192.035,328.465 204.5,315.5 Z"/></g>
<g><path style="opacity:1" fill="#fcd34e" d="M 304.5,315.5 C 318.247,327.744 331.581,340.578 344.5,354C 331.333,367.167 318.167,380.333 305,393.5C 291.986,380.653 279.153,367.653 266.5,354.5C 279.188,341.479 291.855,328.479 304.5,315.5 Z"/></g>
<g><path style="opacity:1" fill="#fcd34e" d="M 404.5,315.5 C 418.288,327.454 431.288,340.287 443.5,354C 431.042,367.459 418.209,380.626 405,393.5C 391.986,380.653 379.153,367.653 366.5,354.5C 379.188,341.479 391.855,328.479 404.5,315.5 Z"/></g>
<g><path style="opacity:1" fill="#e7ae31" d="M 29.5,338.5 C 34.4646,342.963 39.2979,347.63 44,352.5C 43.7354,355.82 42.0688,358.487 39,360.5C 35.0065,353.514 31.8398,346.181 29.5,338.5 Z"/></g>
<g><path style="opacity:1" fill="#eac348" d="M 480.5,338.5 C 481.573,339.251 481.74,340.251 481,341.5C 478.379,348.039 475.379,354.373 472,360.5C 468.931,358.487 467.265,355.82 467,352.5C 471.703,347.965 476.203,343.298 480.5,338.5 Z"/></g>
<g><path style="opacity:1" fill="#f1b634" d="M 74.5,346.5 C 77.6153,355.398 81.2819,364.064 85.5,372.5C 79.5353,367.036 73.7019,361.37 68,355.5C 68.6682,351.629 70.8349,348.629 74.5,346.5 Z"/></g>
<g><path style="opacity:1" fill="#f2b634" d="M 54.5,365.5 C 55.552,365.351 56.552,365.517 57.5,366C 69.6667,378.167 81.8333,390.333 94,402.5C 94.6667,403.5 94.6667,404.5 94,405.5C 89.3186,410.349 84.4852,415.015 79.5,419.5C 66.7345,406.64 55.9012,392.307 47,376.5C 46.3333,375.5 46.3333,374.5 47,373.5C 49.705,370.964 52.205,368.297 54.5,365.5 Z"/></g>
<g><path style="opacity:1" fill="#f7ce4c" d="M 453.5,365.5 C 457.642,367.12 461.142,369.786 464,373.5C 464.667,374.5 464.667,375.5 464,376.5C 455.099,392.307 444.265,406.64 431.5,419.5C 426.515,415.015 421.681,410.349 417,405.5C 416.333,404.5 416.333,403.5 417,402.5C 429.369,390.298 441.535,377.965 453.5,365.5 Z"/></g>
<g><path style="opacity:1" fill="#fcd34e" d="M 154.5,365.5 C 168.428,377.759 181.761,390.759 194.5,404.5C 181.847,417.653 169.014,430.653 156,443.5C 142.833,430.333 129.667,417.167 116.5,404C 129.369,391.298 142.035,378.465 154.5,365.5 Z"/></g>
<g><path style="opacity:1" fill="#fad14d" d="M 254.5,365.5 C 268.428,377.759 281.761,390.759 294.5,404.5C 281.833,417.833 268.833,430.833 255.5,443.5C 242.167,430.833 229.167,417.833 216.5,404.5C 229.188,391.479 241.855,378.479 254.5,365.5 Z"/></g>
<g><path style="opacity:1" fill="#fcd34e" d="M 354.5,365.5 C 368.247,377.744 381.581,390.578 394.5,404C 381.333,417.167 368.167,430.333 355,443.5C 341.986,430.653 329.153,417.653 316.5,404.5C 329.188,391.479 341.855,378.479 354.5,365.5 Z"/></g>
<g><path style="opacity:1" fill="#f3b634" d="M 104.5,415.5 C 105.552,415.351 106.552,415.517 107.5,416C 119.667,428.167 131.833,440.333 144,452.5C 144.667,453.5 144.667,454.5 144,455.5C 141,458.5 138,461.5 135,464.5C 119.081,455.203 104.414,444.203 91,431.5C 90.3333,430.833 90.3333,430.167 91,429.5C 95.7033,424.965 100.203,420.298 104.5,415.5 Z"/></g>
<g><path style="opacity:1" fill="#f7cf4c" d="M 403.5,415.5 C 404.552,415.351 405.552,415.517 406.5,416C 411,420.5 415.5,425 420,429.5C 420.667,430.167 420.667,430.833 420,431.5C 406.586,444.203 391.919,455.203 376,464.5C 373,461.5 370,458.5 367,455.5C 366.333,454.5 366.333,453.5 367,452.5C 379.369,440.298 391.535,427.965 403.5,415.5 Z"/></g>
<g><path style="opacity:1" fill="#fdd34e" d="M 212.5,485.5 C 203.784,482.641 195.451,478.974 187.5,474.5C 180.368,467.869 173.368,461.036 166.5,454C 179.347,440.986 192.347,428.153 205.5,415.5C 218.833,428.167 231.833,441.167 244.5,454.5C 233.843,464.831 223.176,475.165 212.5,485.5 Z"/></g>
<g><path style="opacity:1" fill="#fdd34e" d="M 304.5,415.5 C 318.247,427.744 331.581,440.578 344.5,454C 331.927,467.075 318.927,479.575 305.5,491.5C 304.833,491.333 304.167,491.167 303.5,491C 291.292,478.625 278.959,466.459 266.5,454.5C 279.188,441.479 291.855,428.479 304.5,415.5 Z"/></g>
<g><path style="opacity:1" fill="#e4ab31" d="M 155.5,464.5 C 161.298,469.797 166.965,475.297 172.5,481C 164.944,479.068 157.611,476.234 150.5,472.5C 149.479,471.998 149.312,471.332 150,470.5C 152.04,468.63 153.873,466.63 155.5,464.5 Z"/></g>
<g><path style="opacity:1" fill="#e9c248" d="M 354.5,464.5 C 357.146,466.479 359.479,468.812 361.5,471.5C 354.209,475.82 346.542,478.986 338.5,481C 344.036,475.631 349.37,470.131 354.5,464.5 Z"/></g>
<g><path style="opacity:1" fill="#fdd34e" d="M 252.5,496.5 C 244.484,496.011 236.484,494.678 228.5,492.5C 237.146,483.188 246.146,474.188 255.5,465.5C 265.319,474.819 274.986,484.319 284.5,494C 273.95,496.038 263.283,496.872 252.5,496.5 Z"/></g>
<g><path style="opacity:1" fill="#f6b935" d="M 187.5,474.5 C 195.451,478.974 203.784,482.641 212.5,485.5C 210.554,489.317 207.554,491.15 203.5,491C 197.964,485.631 192.63,480.131 187.5,474.5 Z"/></g>
<g><path style="opacity:1" fill="#c79d34" d="M 228.5,492.5 C 236.484,494.678 244.484,496.011 252.5,496.5C 243.432,496.704 234.432,496.037 225.5,494.5C 226.357,493.575 227.357,492.908 228.5,492.5 Z"/></g>
</svg>
