<?xml version="1.0" encoding="UTF-8"?>
<!DOCTYPE svg PUBLIC "-//W3C//DTD SVG 1.1//EN" "http://www.w3.org/Graphics/SVG/1.1/DTD/svg11.dtd">
<svg xmlns="http://www.w3.org/2000/svg" version="1.1" width="512px" height="512px" style="shape-rendering:geometricPrecision; text-rendering:geometricPrecision; image-rendering:optimizeQuality; fill-rule:evenodd; clip-rule:evenodd" xmlns:xlink="http://www.w3.org/1999/xlink">
<g><path style="opacity:0.98" fill="#000100" d="M 511.5,226.5 C 511.5,230.5 511.5,234.5 511.5,238.5C 499.928,261.102 483.595,279.602 462.5,294C 450.225,302.098 437.558,309.598 424.5,316.5C 444.325,349.439 449.825,384.439 441,421.5C 438.137,424.515 434.637,426.349 430.5,427C 410.736,428.248 391.402,425.915 372.5,420C 362.353,416.091 352.353,411.924 342.5,407.5C 340.645,416.015 335.312,420.682 326.5,421.5C 324.133,421.158 321.8,420.658 319.5,420C 303.365,410.516 288.198,399.683 274,387.5C 262.167,418 241,439.167 210.5,451C 189.502,458.999 167.835,464.333 145.5,467C 124.075,469.699 102.575,471.533 81,472.5C 67.74,472.407 60.9066,465.74 60.5,452.5C 62.1547,412.039 72.6547,374.039 92,338.5C 96.9184,330.415 102.418,322.748 108.5,315.5C 85.4881,308.829 63.4881,299.663 42.5,288C 25.7574,277.752 11.4241,264.919 -0.5,249.5C -0.5,245.5 -0.5,241.5 -0.5,237.5C 13.9523,216.402 33.2856,201.235 57.5,192C 76.1806,184.93 95.514,180.93 115.5,180C 128.86,179.861 142.193,179.695 155.5,179.5C 158.88,175.473 163.214,172.973 168.5,172C 177.869,114.909 207.535,71.9095 257.5,43C 265.323,37.5195 273.323,37.1862 281.5,42C 315.983,74.7363 332.983,115.07 332.5,163C 332.075,170.919 331.575,178.752 331,186.5C 390.325,166.894 445.491,175.06 496.5,211C 502.403,215.401 507.403,220.568 511.5,226.5 Z"/></g>
<g><path style="opacity:1" fill="#007700" d="M 270.5,211.5 C 277.988,207.59 285.655,203.924 293.5,200.5C 303.826,155.121 296.659,112.788 272,73.5C 268.718,69.2406 265.218,65.2406 261.5,61.5C 264.337,58.8126 267.671,57.3126 271.5,57C 295.91,80.6559 310.077,109.489 314,143.5C 314.667,155.5 314.667,167.5 314,179.5C 313.574,184.574 312.741,189.574 311.5,194.5C 298.233,200.132 285.566,206.799 273.5,214.5C 272.145,213.812 271.145,212.812 270.5,211.5 Z"/></g>
<g><path style="opacity:1" fill="#008800" d="M 261.5,61.5 C 265.218,65.2406 268.718,69.2406 272,73.5C 296.659,112.788 303.826,155.121 293.5,200.5C 285.655,203.924 277.988,207.59 270.5,211.5C 265.626,207.474 260.459,203.808 255,200.5C 255.822,173.091 258.988,145.924 264.5,119C 263.602,111.875 259.602,109.208 252.5,111C 250.622,112.543 249.122,114.376 248,116.5C 242.753,140.89 239.586,165.557 238.5,190.5C 228.821,187.44 219.154,184.274 209.5,181C 201.975,178.701 194.309,177.201 186.5,176.5C 193.729,126.328 218.729,87.9943 261.5,61.5 Z"/></g>
<g><path style="opacity:1" fill="#a2c100" d="M 213.5,200.5 C 227.405,207.883 239.572,217.549 250,229.5C 256.976,238.787 261.809,249.121 264.5,260.5C 264.145,261.522 263.478,262.189 262.5,262.5C 250.052,246.207 234.552,233.873 216,225.5C 208.647,227.209 206.314,231.542 209,238.5C 226.352,249.517 241.518,263.017 254.5,279C 245.627,276.89 236.627,274.89 227.5,273C 217.178,272.066 206.845,271.232 196.5,270.5C 184.371,255.57 176.538,238.57 173,219.5C 171.373,209.873 170.207,200.207 169.5,190.5C 184.846,191.339 199.512,194.672 213.5,200.5 Z"/></g>
<g><path style="opacity:1" fill="#5fa716" d="M 437.5,200.5 C 451.153,208.098 463.986,217.098 476,227.5C 477.915,231.623 477.582,235.623 475,239.5C 461.5,262.333 443.333,280.5 420.5,294C 410.272,300.281 399.606,305.781 388.5,310.5C 387.702,310.957 387.369,311.624 387.5,312.5C 374.341,317.109 361.008,321.109 347.5,324.5C 346.536,293.206 330.536,276.206 299.5,273.5C 300.17,269.656 302.504,267.156 306.5,266C 340.699,249.783 376.699,240.45 414.5,238C 420.08,232.514 419.747,227.514 413.5,223C 382.511,223.277 352.511,228.943 323.5,240C 314.249,244.129 304.915,247.962 295.5,251.5C 293.465,242.892 289.799,235.059 284.5,228C 316.807,206.176 352.474,194.676 391.5,193.5C 407.216,193.453 422.549,195.786 437.5,200.5 Z"/></g>
<g><path style="opacity:1" fill="#008800" d="M 106.5,197.5 C 122.195,197.229 137.862,197.563 153.5,198.5C 154.506,208.873 155.84,219.206 157.5,229.5C 133.178,227.241 108.845,227.074 84.5,229C 80.7235,231.955 79.5568,235.788 81,240.5C 81.5,242.333 82.6667,243.5 84.5,244C 111.242,243.822 137.909,244.989 164.5,247.5C 167.985,257.291 172.318,266.624 177.5,275.5C 158.474,279.014 141.474,286.848 126.5,299C 83.6267,293.48 47.1267,275.313 17,244.5C 17.3983,242.369 18.3983,240.369 20,238.5C 43.7774,214.195 72.6108,200.528 106.5,197.5 Z"/></g>
<g><path style="opacity:1" fill="#8da800" d="M 213.5,200.5 C 239.182,206.742 259.349,220.742 274,242.5C 279.971,253.05 282.804,264.384 282.5,276.5C 279.159,277.005 275.826,277.172 272.5,277C 269.727,271.736 266.393,266.903 262.5,262.5C 263.478,262.189 264.145,261.522 264.5,260.5C 261.809,249.121 256.976,238.787 250,229.5C 239.572,217.549 227.405,207.883 213.5,200.5 Z"/></g>
<g><path style="opacity:1" fill="#529013" d="M 437.5,200.5 C 458.964,207.005 477.964,217.672 494.5,232.5C 485.987,250.185 473.654,264.685 457.5,276C 435.746,291.045 412.413,303.212 387.5,312.5C 387.369,311.624 387.702,310.957 388.5,310.5C 399.606,305.781 410.272,300.281 420.5,294C 443.333,280.5 461.5,262.333 475,239.5C 477.582,235.623 477.915,231.623 476,227.5C 463.986,217.098 451.153,208.098 437.5,200.5 Z"/></g>
<g><path style="opacity:1" fill="#5fa716" d="M 222.5,322.5 C 224.192,340.06 231.026,355.394 243,368.5C 239.453,391.084 228.953,409.918 211.5,425C 204.549,430.153 197.549,434.987 190.5,439.5C 153.897,449.487 116.563,454.487 78.5,454.5C 79.1902,409.377 92.3568,368.377 118,331.5C 150.464,293.792 190.964,280.958 239.5,293C 197.628,313.21 163.461,342.377 137,380.5C 136.126,391.628 140.793,394.962 151,390.5C 169.847,362.484 193.68,339.818 222.5,322.5 Z"/></g>
<g><path style="opacity:1" fill="#a1c100" d="M 291.5,291.5 C 297.166,290.278 301.666,291.945 305,296.5C 311.184,308.39 314.517,321.057 315,334.5C 316.107,352.947 315.107,371.281 312,389.5C 311.764,391.119 310.931,392.119 309.5,392.5C 290.878,381.045 275.711,366.045 264,347.5C 258.319,337.084 256.652,326.084 259,314.5C 260.579,308.997 263.413,304.33 267.5,300.5C 280.412,314.635 290.579,330.635 298,348.5C 302.954,352.677 307.62,352.343 312,347.5C 312.061,338.914 309.728,330.914 305,323.5C 299.144,312.814 292.31,302.814 284.5,293.5C 286.51,291.829 288.843,291.162 291.5,291.5 Z"/></g>
<g><path style="opacity:1" fill="#8da800" d="M 291.5,291.5 C 313.183,287.766 326.017,296.766 330,318.5C 333.652,344.953 332.985,371.286 328,397.5C 327.167,399.5 326.333,401.5 325.5,403.5C 320.101,399.811 314.767,396.144 309.5,392.5C 310.931,392.119 311.764,391.119 312,389.5C 315.107,371.281 316.107,352.947 315,334.5C 314.517,321.057 311.184,308.39 305,296.5C 301.666,291.945 297.166,290.278 291.5,291.5 Z"/></g>
<g><path style="opacity:1" fill="#529113" d="M 190.5,439.5 C 197.549,434.987 204.549,430.153 211.5,425C 228.953,409.918 239.453,391.084 243,368.5C 231.026,355.394 224.192,340.06 222.5,322.5C 228.828,318.363 235.328,314.363 242,310.5C 238.948,333.851 245.115,354.517 260.5,372.5C 249.603,407.729 226.27,430.062 190.5,439.5 Z"/></g>
<g><path style="opacity:1" fill="#007600" d="M 402.5,408.5 C 405.167,408.5 407.833,408.5 410.5,408.5C 413.429,380.742 408.596,354.409 396,329.5C 395.329,328.748 394.496,328.414 393.5,328.5C 397.874,326.422 402.374,324.422 407,322.5C 424.325,348.945 431.158,377.945 427.5,409.5C 418.983,409.826 410.65,409.493 402.5,408.5 Z"/></g>
<g><path style="opacity:1" fill="#008800" d="M 393.5,328.5 C 394.496,328.414 395.329,328.748 396,329.5C 408.596,354.409 413.429,380.742 410.5,408.5C 407.833,408.5 405.167,408.5 402.5,408.5C 382.206,406.098 363.706,399.098 347,387.5C 348.936,372.282 349.77,356.949 349.5,341.5C 351.199,341.34 352.866,341.506 354.5,342C 371.358,352.024 384.691,365.524 394.5,382.5C 400.363,385.881 404.863,384.548 408,378.5C 408.743,375.217 408.076,372.217 406,369.5C 397.912,355.846 387.412,344.346 374.5,335C 380.757,332.526 387.09,330.359 393.5,328.5 Z"/></g>
</svg>
