<?xml version="1.0" encoding="UTF-8"?>
<!DOCTYPE svg PUBLIC "-//W3C//DTD SVG 1.1//EN" "http://www.w3.org/Graphics/SVG/1.1/DTD/svg11.dtd">
<svg xmlns="http://www.w3.org/2000/svg" version="1.1" width="512px" height="512px" style="shape-rendering:geometricPrecision; text-rendering:geometricPrecision; image-rendering:optimizeQuality; fill-rule:evenodd; clip-rule:evenodd" xmlns:xlink="http://www.w3.org/1999/xlink">
<g><path style="opacity:0.985" fill="#010000" d="M 234.5,-0.5 C 248.5,-0.5 262.5,-0.5 276.5,-0.5C 367.766,11.0369 432.933,58.3702 472,141.5C 484.188,170.774 490.355,201.274 490.5,233C 490.072,253.154 489.905,273.321 490,293.5C 481.455,378.161 440.622,441.661 367.5,484C 338.785,498.964 308.451,508.131 276.5,511.5C 262.5,511.5 248.5,511.5 234.5,511.5C 143.234,499.963 78.0675,452.63 39,369.5C 26.8772,340.386 20.7105,310.053 20.5,278.5C 20.959,257.844 21.1257,237.177 21,216.5C 29.8391,132.248 70.6725,69.081 143.5,27C 172.215,12.0355 202.549,2.86884 234.5,-0.5 Z"/></g>
<g><path style="opacity:1" fill="#7d4444" d="M 270.5,446.5 C 269.167,446.5 267.833,446.5 266.5,446.5C 266.825,438.648 266.492,430.982 265.5,423.5C 263.635,417.728 259.635,415.228 253.5,416C 249.104,416.73 246.27,419.23 245,423.5C 244.5,431.159 244.334,438.826 244.5,446.5C 233.37,447.211 222.536,445.878 212,442.5C 211.333,440.5 211.333,438.5 212,436.5C 213.583,431 215.083,425.5 216.5,420C 215.003,411.513 210.003,408.179 201.5,410C 199.714,410.785 198.214,411.951 197,413.5C 194.226,420.258 192.226,427.258 191,434.5C 190.481,435.516 189.647,436.182 188.5,436.5C 177.812,433.716 167.812,429.383 158.5,423.5C 161.415,418.002 164.581,412.668 168,407.5C 171.878,395.049 167.378,389.549 154.5,391C 148.882,397.062 144.382,403.896 141,411.5C 140.439,412.022 139.772,412.355 139,412.5C 129.552,406.518 120.719,399.685 112.5,392C 118.699,386.136 124.532,379.969 130,373.5C 130.693,363.195 125.859,358.695 115.5,360C 109.531,364.967 103.865,370.301 98.5,376C 97.8333,376.667 97.1667,376.667 96.5,376C 89.0675,367.904 82.4009,359.237 76.5,350C 83.9193,345.875 91.086,341.375 98,336.5C 101.505,325.691 97.6712,320.191 86.5,320C 79.431,323.4 72.5976,327.233 66,331.5C 60.6329,321.573 56.1329,311.239 52.5,300.5C 59.9719,297.545 67.6386,295.045 75.5,293C 82.6815,285.77 82.0148,279.436 73.5,274C 72,273.833 70.5,273.667 69,273.5C 61.4555,275.095 53.9555,276.762 46.5,278.5C 44.3291,267.283 42.9957,255.949 42.5,244.5C 50.84,244.666 59.1733,244.5 67.5,244C 71.8019,242.065 73.8019,238.732 73.5,234C 73.3911,229.117 71.0578,225.784 66.5,224C 58.5069,223.5 50.5069,223.334 42.5,223.5C 42.8835,212.049 44.2168,200.715 46.5,189.5C 53.8814,191.682 61.3814,193.349 69,194.5C 77.8819,194.108 81.5485,189.442 80,180.5C 79.2155,178.714 78.0488,177.214 76.5,176C 68.6608,173.207 60.6608,171.04 52.5,169.5C 55.5589,158.494 59.8922,147.994 65.5,138C 72.2998,140.733 78.9665,144.067 85.5,148C 97.431,149.07 101.598,143.904 98,132.5C 91.0924,127.295 83.9257,122.462 76.5,118C 82.3022,109.564 88.4688,101.398 95,93.5C 95.8373,91.9926 97.0039,91.4926 98.5,92C 103.865,97.6995 109.531,103.033 115.5,108C 126.963,109.539 131.463,104.706 129,93.5C 123.866,87.3647 118.366,81.5313 112.5,76C 120.79,68.2071 129.79,61.3737 139.5,55.5C 143.958,62.2488 148.292,69.0821 152.5,76C 165.362,80.643 170.862,76.143 169,62.5C 165.248,56.6641 161.748,50.6641 158.5,44.5C 168.527,38.6019 179.194,34.2685 190.5,31.5C 192.194,39.275 194.361,46.9416 197,54.5C 202.409,60.5739 208.075,60.9072 214,55.5C 215.552,53.2318 216.385,50.7318 216.5,48C 215.047,40.688 213.047,33.5213 210.5,26.5C 211.025,25.8076 211.692,25.3076 212.5,25C 223.069,22.8491 233.735,21.6825 244.5,21.5C 244.094,29.9174 244.594,38.2508 246,46.5C 249.748,52.5422 254.915,54.0422 261.5,51C 263.049,49.786 264.215,48.286 265,46.5C 266.406,38.2508 266.906,29.9174 266.5,21.5C 277.994,21.7911 289.327,23.2911 300.5,26C 298.041,33.1678 296.041,40.5012 294.5,48C 296.065,57.4462 301.398,60.7796 310.5,58C 311.667,56.8333 312.833,55.6667 314,54.5C 316.635,46.9593 318.802,39.2927 320.5,31.5C 331.646,34.6596 342.313,38.9929 352.5,44.5C 349,50.8333 345.5,57.1667 342,63.5C 339.638,72.1247 342.805,77.1247 351.5,78.5C 354.028,78.2372 356.361,77.4039 358.5,76C 362.708,69.0821 367.042,62.2488 371.5,55.5C 381.21,61.3737 390.21,68.2071 398.5,76C 392.634,81.5313 387.134,87.3647 382,93.5C 379.667,99.5033 381.167,104.337 386.5,108C 390.295,108.837 393.961,108.504 397.5,107C 402.681,101.652 408.015,96.485 413.5,91.5C 421.421,99.5896 428.421,108.423 434.5,118C 427.06,122.442 419.894,127.275 413,132.5C 409.277,143.431 413.11,148.598 424.5,148C 431.745,144.21 439.078,140.71 446.5,137.5C 451.09,147.934 455.09,158.601 458.5,169.5C 450.162,170.418 442.162,172.585 434.5,176C 429.244,181.594 429.244,187.26 434.5,193C 436.534,194.006 438.7,194.506 441,194.5C 448.897,193.067 456.73,191.4 464.5,189.5C 466.783,200.711 468.116,212.045 468.5,223.5C 459.75,223.09 451.084,223.59 442.5,225C 439.134,227.038 437.467,230.038 437.5,234C 437.198,238.732 439.198,242.065 443.5,244C 451.827,244.5 460.16,244.666 468.5,244.5C 467.922,255.928 466.589,267.262 464.5,278.5C 456.663,276.946 448.83,275.279 441,273.5C 433.137,274.362 429.803,278.695 431,286.5C 431.69,289.196 433.19,291.363 435.5,293C 443.291,295.189 450.958,297.689 458.5,300.5C 454.867,311.239 450.367,321.573 445,331.5C 438.402,327.233 431.569,323.4 424.5,320C 413.329,320.191 409.495,325.691 413,336.5C 419.914,341.375 427.081,345.875 434.5,350C 428.599,359.237 421.932,367.904 414.5,376C 413.833,376.667 413.167,376.667 412.5,376C 407.135,370.301 401.469,364.967 395.5,360C 385.16,358.675 380.326,363.175 381,373.5C 386.468,379.969 392.301,386.136 398.5,392C 390.281,399.685 381.448,406.518 372,412.5C 367.619,407.434 363.953,401.767 361,395.5C 357.212,390.847 352.378,389.347 346.5,391C 341.919,394.438 340.419,398.938 342,404.5C 345.486,410.802 348.986,417.135 352.5,423.5C 343.023,428.994 333.023,433.327 322.5,436.5C 321.353,436.182 320.519,435.516 320,434.5C 318.774,427.258 316.774,420.258 314,413.5C 307.629,407.889 301.629,408.222 296,414.5C 295.042,416.199 294.542,418.033 294.5,420C 296.588,427.517 298.421,435.017 300,442.5C 290.352,444.968 280.519,446.301 270.5,446.5 Z"/></g>
<g><path style="opacity:1" fill="#030101" d="M 251.5,74.5 C 262.486,73.6526 266.986,78.6526 265,89.5C 258.549,97.3086 252.216,97.3086 246,89.5C 244.087,82.9698 245.92,77.9698 251.5,74.5 Z"/></g>
<g><path style="opacity:1" fill="#010000" d="M 221.5,75.5 C 222.822,75.33 223.989,75.6634 225,76.5C 232.833,95.5 240.667,114.5 248.5,133.5C 229.034,141.933 209.534,150.266 190,158.5C 181.003,138.839 172.836,118.839 165.5,98.5C 184.452,91.352 203.118,83.6853 221.5,75.5 Z"/></g>
<g><path style="opacity:1" fill="#010000" d="M 286.5,75.5 C 306.245,82.9706 325.912,90.6373 345.5,98.5C 338.164,118.839 329.997,138.839 321,158.5C 301.427,150.296 281.927,141.962 262.5,133.5C 270.515,114.141 278.515,94.8076 286.5,75.5 Z"/></g>
<g><path style="opacity:1" fill="#925151" d="M 209.5,103.5 C 210.978,103.238 212.311,103.571 213.5,104.5C 215.638,110.247 217.971,115.914 220.5,121.5C 214.383,124.723 208.05,127.723 201.5,130.5C 198.544,124.467 195.877,118.3 193.5,112C 193.645,111.228 193.978,110.561 194.5,110C 199.642,107.906 204.642,105.74 209.5,103.5 Z"/></g>
<g><path style="opacity:1" fill="#925151" d="M 298.5,102.5 C 305.144,105.155 311.478,108.322 317.5,112C 315.117,118.324 312.45,124.491 309.5,130.5C 302.802,128.057 296.468,125.057 290.5,121.5C 293.174,115.138 295.841,108.804 298.5,102.5 Z"/></g>
<g><path style="opacity:1" fill="#040202" d="M 145.5,118.5 C 151.898,117.053 156.731,119.053 160,124.5C 161.419,133.006 157.919,138.006 149.5,139.5C 141.291,137.718 138.125,132.718 140,124.5C 141.36,121.977 143.193,119.977 145.5,118.5 Z"/></g>
<g><path style="opacity:1" fill="#040101" d="M 356.5,118.5 C 366.992,116.834 371.826,121.167 371,131.5C 369.327,136.434 365.827,139.1 360.5,139.5C 351.279,136.344 348.779,130.344 353,121.5C 354.518,120.837 355.685,119.837 356.5,118.5 Z"/></g>
<g><path style="opacity:1" fill="#020000" d="M 120.5,143.5 C 140.013,151.893 159.68,159.893 179.5,167.5C 171.629,187.582 163.462,207.582 155,227.5C 136.239,219.538 117.406,211.704 98.5,204C 97.572,203.612 96.9054,202.945 96.5,202C 104.604,182.516 112.604,163.016 120.5,143.5 Z"/></g>
<g><path style="opacity:1" fill="#010000" d="M 389.5,143.5 C 398.598,163.111 406.931,183.111 414.5,203.5C 395.309,211.009 376.142,218.676 357,226.5C 356.228,226.355 355.561,226.022 355,225.5C 347.305,206.609 339.471,187.776 331.5,169C 331.905,168.055 332.572,167.388 333.5,167C 352.371,159.39 371.038,151.557 389.5,143.5 Z"/></g>
<g><path style="opacity:1" fill="#030101" d="M 250.5,148.5 C 262.324,146.824 267.158,151.824 265,163.5C 258.667,170.167 252.333,170.167 246,163.5C 244.254,157.342 245.754,152.342 250.5,148.5 Z"/></g>
<g><path style="opacity:1" fill="#925151" d="M 131.5,171.5 C 138.477,173.992 145.143,176.992 151.5,180.5C 149.504,187.158 146.504,193.158 142.5,198.5C 136.456,196.653 130.623,194.32 125,191.5C 126.833,184.807 129,178.141 131.5,171.5 Z"/></g>
<g><path style="opacity:1" fill="#925050" d="M 377.5,171.5 C 378.497,171.47 379.164,171.97 379.5,173C 382.436,179.009 384.603,185.176 386,191.5C 379.79,194.02 373.624,196.687 367.5,199.5C 364.563,193.29 361.896,186.957 359.5,180.5C 365.32,177.117 371.32,174.117 377.5,171.5 Z"/></g>
<g><path style="opacity:1" fill="#020100" d="M 245.5,180.5 C 272.141,179.16 296.808,185.327 319.5,199C 346.762,221.167 347.429,244.167 321.5,268C 298.067,282.958 272.4,289.291 244.5,287C 218.695,285.675 196.861,275.842 179,257.5C 165.406,234.433 169.573,214.933 191.5,199C 208.041,188.32 226.041,182.154 245.5,180.5 Z"/></g>
<g><path style="opacity:1" fill="#935151" d="M 240.5,202.5 C 263.989,200.042 285.989,204.542 306.5,216C 322.746,228.666 322.413,240.999 305.5,253C 270.72,271.463 236.387,270.796 202.5,251C 198.578,247.749 195.412,243.916 193,239.5C 191.676,233.657 192.676,228.324 196,223.5C 208.645,211.76 223.479,204.76 240.5,202.5 Z"/></g>
<g><path style="opacity:1" fill="#050202" d="M 102.5,223.5 C 112.86,223.355 117.36,228.355 116,238.5C 112.723,244.109 107.89,245.942 101.5,244C 93.2891,236.671 93.6224,229.838 102.5,223.5 Z"/></g>
<g><path style="opacity:1" fill="#010000" d="M 219.5,223.5 C 243.502,223.333 267.502,223.5 291.5,224C 297.109,227.277 298.942,232.11 297,238.5C 295.833,241 294,242.833 291.5,244C 267.5,244.667 243.5,244.667 219.5,244C 213.891,240.723 212.058,235.89 214,229.5C 215.36,226.977 217.193,224.977 219.5,223.5 Z"/></g>
<g><path style="opacity:1" fill="#040201" d="M 401.5,223.5 C 411.388,223.217 415.888,227.884 415,237.5C 411.96,243.603 407.126,245.769 400.5,244C 392.248,236.766 392.581,229.933 401.5,223.5 Z"/></g>
<g><path style="opacity:1" fill="#010000" d="M 152.5,241.5 C 153.822,241.33 154.989,241.663 156,242.5C 163.833,261.5 171.667,280.5 179.5,299.5C 160.365,308.214 141.032,316.548 121.5,324.5C 112.786,305.365 104.452,286.032 96.5,266.5C 97.09,265.201 98.09,264.368 99.5,264C 117.472,256.962 135.138,249.462 152.5,241.5 Z"/></g>
<g><path style="opacity:1" fill="#010000" d="M 355.5,241.5 C 375.586,249.048 395.252,257.382 414.5,266.5C 406.548,286.032 398.214,305.365 389.5,324.5C 369.968,316.548 350.635,308.214 331.5,299.5C 339.515,280.141 347.515,260.808 355.5,241.5 Z"/></g>
<g><path style="opacity:1" fill="#925151" d="M 140.5,269.5 C 141.978,269.238 143.311,269.571 144.5,270.5C 147.434,276.638 149.767,282.971 151.5,289.5C 144.833,291.833 138.167,294.167 131.5,296.5C 129.472,290.252 127.138,284.085 124.5,278C 129.708,274.896 135.042,272.063 140.5,269.5 Z"/></g>
<g><path style="opacity:1" fill="#925151" d="M 366.5,269.5 C 373.761,271.082 380.428,273.916 386.5,278C 383.862,284.085 381.528,290.252 379.5,296.5C 372.833,294.167 366.167,291.833 359.5,289.5C 361.826,282.844 364.16,276.177 366.5,269.5 Z"/></g>
<g><path style="opacity:1" fill="#030101" d="M 251.5,299.5 C 265.087,299.846 268.754,306.013 262.5,318C 250.347,322.67 244.847,318.504 246,305.5C 247.36,302.977 249.193,300.977 251.5,299.5 Z"/></g>
<g><path style="opacity:1" fill="#010000" d="M 189.5,310.5 C 209.405,318.12 229.071,326.286 248.5,335C 240.296,354.573 231.962,374.073 223.5,393.5C 205.615,385.724 187.615,378.224 169.5,371C 167.777,370.477 166.444,369.477 165.5,368C 173.101,348.635 181.101,329.469 189.5,310.5 Z"/></g>
<g><path style="opacity:1" fill="#010000" d="M 318.5,310.5 C 321.595,310.626 323.428,312.293 324,315.5C 331.167,333 338.333,350.5 345.5,368C 344.556,369.477 343.223,370.477 341.5,371C 323.261,378.371 305.094,385.871 287,393.5C 278.962,373.927 270.796,354.427 262.5,335C 281.192,326.72 299.859,318.554 318.5,310.5 Z"/></g>
<g><path style="opacity:1" fill="#030101" d="M 145.5,329.5 C 153.732,328.075 158.732,331.408 160.5,339.5C 158.641,348.594 153.308,351.761 144.5,349C 137.533,341.989 137.866,335.489 145.5,329.5 Z"/></g>
<g><path style="opacity:1" fill="#050202" d="M 356.5,329.5 C 368.779,328.421 373.279,333.754 370,345.5C 362.854,352.622 356.52,351.955 351,343.5C 350.333,340.833 350.333,338.167 351,335.5C 352.699,333.304 354.533,331.304 356.5,329.5 Z"/></g>
<g><path style="opacity:1" fill="#925151" d="M 200.5,338.5 C 207.563,340.187 214.23,342.854 220.5,346.5C 218.057,353.198 215.057,359.532 211.5,365.5C 205.592,362.962 199.758,360.295 194,357.5C 195.549,351.044 197.716,344.71 200.5,338.5 Z"/></g>
<g><path style="opacity:1" fill="#925151" d="M 306.5,338.5 C 307.978,338.238 309.311,338.571 310.5,339.5C 312.971,344.942 315.304,350.442 317.5,356C 317.355,356.772 317.022,357.439 316.5,358C 310.71,360.646 304.876,363.146 299,365.5C 295.883,359.326 293.05,352.993 290.5,346.5C 295.894,343.803 301.227,341.136 306.5,338.5 Z"/></g>
<g><path style="opacity:1" fill="#e1e4e7" d="M 63.5,369.5 C 119.189,442.708 193.189,475.208 285.5,467C 353.228,456.363 407.228,424.196 447.5,370.5C 413.35,435.444 360.017,474.611 287.5,488C 209.985,497.17 145.152,473.003 93,415.5C 81.3993,401.298 71.5659,385.965 63.5,369.5 Z"/></g>
<g><path style="opacity:1" fill="#050202" d="M 250.5,373.5 C 261.988,372.154 266.822,377.154 265,388.5C 258.667,396.5 252.333,396.5 246,388.5C 244.85,386.246 244.516,383.913 245,381.5C 246.243,378.424 248.077,375.757 250.5,373.5 Z"/></g>
<g><path style="opacity:1" fill="#2f1a1a" d="M 265.5,423.5 C 266.492,430.982 266.825,438.648 266.5,446.5C 267.833,446.5 269.167,446.5 270.5,446.5C 269.081,447.451 267.415,447.784 265.5,447.5C 265.5,439.5 265.5,431.5 265.5,423.5 Z"/></g>
</svg>
