<?xml version="1.0" encoding="UTF-8"?>
<!DOCTYPE svg PUBLIC "-//W3C//DTD SVG 1.1//EN" "http://www.w3.org/Graphics/SVG/1.1/DTD/svg11.dtd">
<svg xmlns="http://www.w3.org/2000/svg" version="1.1" width="512px" height="512px" style="shape-rendering:geometricPrecision; text-rendering:geometricPrecision; image-rendering:optimizeQuality; fill-rule:evenodd; clip-rule:evenodd" xmlns:xlink="http://www.w3.org/1999/xlink">
<g><path style="opacity:0.966" fill="#060403" d="M 96.5,41.5 C 99.7935,41.259 102.794,42.0924 105.5,44C 244.841,158.202 279.341,298.702 209,465.5C 204.606,470.044 199.773,470.544 194.5,467C 58.4184,356.192 22.5851,218.692 87,54.5C 88.6667,51.1667 90.3333,47.8333 92,44.5C 93.4087,43.2189 94.9087,42.2189 96.5,41.5 Z"/></g>
<g><path style="opacity:0.965" fill="#060403" d="M 409.5,41.5 C 413.115,41.2055 416.282,42.2055 419,44.5C 453.237,118.157 462.57,194.823 447,274.5C 436.284,315.259 418.618,352.592 394,386.5C 371.207,418.293 344.04,445.793 312.5,469C 308.327,469.831 304.827,468.665 302,465.5C 233.843,307.35 263.343,170.85 390.5,56C 396.734,50.9197 403.067,46.0864 409.5,41.5 Z"/></g>
<g><path style="opacity:1" fill="#fcbf00" d="M 132.5,93.5 C 133.5,95.1667 134.833,96.5 136.5,97.5C 168.526,130.851 193.026,169.184 210,212.5C 224.357,253.736 229.024,296.069 224,339.5C 221.668,360.824 217.668,381.824 212,402.5C 208.4,412.878 202.9,422.044 195.5,430C 185.269,427.889 175.936,423.555 167.5,417C 77.8222,326.107 52.6555,219.607 92,97.5C 94.6338,91.7279 98.1338,86.5612 102.5,82C 109.577,79.7626 116.244,80.7626 122.5,85C 126,87.6686 129.333,90.502 132.5,93.5 Z"/></g>
<g><path style="opacity:1" fill="#fcbe00" d="M 401.5,81.5 C 411.452,85.2874 418.286,92.2874 422,102.5C 428.987,129.437 433.654,156.771 436,184.5C 440.436,252.104 423.102,313.438 384,368.5C 371.911,385.492 358.744,401.659 344.5,417C 336.616,423.609 327.616,428.109 317.5,430.5C 314.053,429.361 311.219,427.361 309,424.5C 305,417.167 301,409.833 297,402.5C 294.648,386.387 291.648,370.387 288,354.5C 278.107,288.179 289.441,225.846 322,167.5C 339.089,138.405 359.589,111.905 383.5,88C 389.004,84.1125 395.004,81.9458 401.5,81.5 Z"/></g>
<g><path style="opacity:1" fill="#7e5441" d="M 136.5,97.5 C 134.833,96.5 133.5,95.1667 132.5,93.5C 132.435,93.0618 132.601,92.7284 133,92.5C 134.802,93.7893 135.969,95.4559 136.5,97.5 Z"/></g>
</svg>
