<?xml version="1.0" encoding="UTF-8"?>
<!DOCTYPE svg PUBLIC "-//W3C//DTD SVG 1.1//EN" "http://www.w3.org/Graphics/SVG/1.1/DTD/svg11.dtd">
<svg xmlns="http://www.w3.org/2000/svg" version="1.1" width="512px" height="512px" style="shape-rendering:geometricPrecision; text-rendering:geometricPrecision; image-rendering:optimizeQuality; fill-rule:evenodd; clip-rule:evenodd" xmlns:xlink="http://www.w3.org/1999/xlink">
<g><path style="opacity:0.96" fill="#030401" d="M 266.5,9.5 C 281.119,7.2047 293.286,11.538 303,22.5C 305.692,25.6919 308.192,29.0252 310.5,32.5C 320.861,28.1232 330.861,28.9566 340.5,35C 351.291,42.094 357.957,51.9273 360.5,64.5C 392.032,59.1796 408.032,72.6796 408.5,105C 408.643,115.152 406.643,124.819 402.5,134C 431.286,137.483 441.786,153.317 434,181.5C 429.899,191.19 423.732,199.357 415.5,206C 408.833,210.667 402.167,215.333 395.5,220C 417.711,225.935 423.211,239.101 412,259.5C 408.133,263.702 403.967,267.535 399.5,271C 385.333,277.498 372.833,286.331 362,297.5C 360.368,299.933 358.868,302.433 357.5,305C 370.816,341.263 374.316,378.43 368,416.5C 362.856,444.327 349.023,466.494 326.5,483C 311.512,491.387 295.512,494.387 278.5,492C 260.803,501.585 242.136,504.252 222.5,500C 216.215,498.438 210.381,495.938 205,492.5C 176.096,494.714 154.096,483.381 139,458.5C 127.394,437.741 121.894,415.408 122.5,391.5C 123.19,366.716 127.857,342.716 136.5,319.5C 132.466,298.769 123.633,280.435 110,264.5C 104.333,258.5 98.6667,252.5 93,246.5C 85.4759,237.877 83.4759,228.211 87,217.5C 90.0641,212.211 94.5641,208.711 100.5,207C 91.1168,203.275 83.9501,197.108 79,188.5C 76.4802,178.696 79.6468,171.196 88.5,166C 77.9746,157.473 73.8079,146.64 76,133.5C 81.0731,122.607 89.5731,115.94 101.5,113.5C 95.5913,97.7285 99.5913,85.2285 113.5,76C 118.416,74.8394 123.416,74.1728 128.5,74C 132.785,63.763 139.452,55.4296 148.5,49C 151.948,47.0728 155.615,45.7394 159.5,45C 172.876,21.4869 192.542,13.8203 218.5,22C 224.981,24.1572 231.148,26.9905 237,30.5C 244.537,20.108 254.371,13.108 266.5,9.5 Z"/></g>
<g><path style="opacity:1" fill="#96bd10" d="M 268.5,17.5 C 283.43,16.5476 294.597,22.5476 302,35.5C 304.925,40.847 307.425,46.347 309.5,52C 321.727,50.1968 330.894,54.6968 337,65.5C 339.434,74.9833 337.101,82.9833 330,89.5C 329.175,91.7008 329.675,93.5341 331.5,95C 347.029,93.5101 358.196,99.6767 365,113.5C 366.468,119.86 365.135,125.526 361,130.5C 356.592,134.743 351.759,138.409 346.5,141.5C 343.833,143.833 343.833,146.167 346.5,148.5C 364.592,156.319 365.926,166.153 350.5,178C 340.369,181.983 330.702,186.816 321.5,192.5C 318.454,196.195 319.287,198.528 324,199.5C 335.162,195.131 344.495,197.465 352,206.5C 353.408,213.942 351.741,220.609 347,226.5C 333.834,238.99 322.168,252.657 312,267.5C 304.398,280.37 298.731,294.037 295,308.5C 276.778,274.061 266.778,237.395 265,198.5C 264.131,195.606 262.298,194.439 259.5,195C 233.865,222.295 211.698,252.129 193,284.5C 189.527,276.221 185.527,268.221 181,260.5C 171.667,249.833 161.667,239.833 151,230.5C 146.692,225.552 143.692,219.885 142,213.5C 140.678,204.649 144.178,198.482 152.5,195C 157.167,194.333 161.833,194.333 166.5,195C 170.29,196.646 174.123,198.146 178,199.5C 181.293,198.862 182.293,196.862 181,193.5C 178.5,189.667 175.333,186.5 171.5,184C 160.177,178.086 150.01,170.586 141,161.5C 133.205,146.137 133.872,131.137 143,116.5C 145.592,113.238 148.759,110.738 152.5,109C 160.679,106.741 168.845,104.574 177,102.5C 177.667,100.833 177.667,99.1667 177,97.5C 165.85,84.7607 162.183,70.094 166,53.5C 174.152,31.5064 189.652,23.3397 212.5,29C 220.836,31.3355 228.503,35.0021 235.5,40C 237.167,40.6667 238.833,40.6667 240.5,40C 247.443,29.3819 256.776,21.8819 268.5,17.5 Z"/></g>
<g><path style="opacity:1" fill="#81a700" d="M 318.5,37.5 C 334.875,38.6918 346.042,47.0251 352,62.5C 352.945,66.1141 353.612,69.7808 354,73.5C 355.466,75.3249 357.299,75.8249 359.5,75C 376.961,66.8181 389.794,71.3181 398,88.5C 401.833,102.841 400.833,116.841 395,130.5C 384.582,141.76 386.916,146.094 402,143.5C 422.609,144.452 430.942,155.119 427,175.5C 422.854,186.985 415.687,196.152 405.5,203C 397.833,208 390.167,213 382.5,218C 379.781,220.382 377.447,223.049 375.5,226C 376,228.5 377.5,230 380,230.5C 390.794,226.257 400.128,228.257 408,236.5C 410.103,246.496 406.937,254.662 398.5,261C 388.167,267.333 377.833,273.667 367.5,280C 362.624,284.708 357.957,289.541 353.5,294.5C 346.97,280.606 340.303,266.772 333.5,253C 339.987,245.845 346.487,238.678 353,231.5C 360.793,222.485 362.46,212.485 358,201.5C 354.104,196.113 348.937,192.446 342.5,190.5C 351.281,187.364 358.781,182.364 365,175.5C 371.595,162.931 369.095,152.598 357.5,144.5C 377.528,129.044 378.528,112.544 360.5,95C 354.888,91.3611 348.888,88.5278 342.5,86.5C 349.47,61.6203 340.136,47.1203 314.5,43C 313.549,42.2825 313.383,41.4491 314,40.5C 315.409,39.2189 316.909,38.2189 318.5,37.5 Z"/></g>
<g><path style="opacity:1" fill="#81a800" d="M 155.5,54.5 C 156.497,54.4701 157.164,54.9701 157.5,56C 155.443,70.7718 158.443,84.4385 166.5,97C 145.02,99.4805 132.187,111.314 128,132.5C 125.619,147.293 129.286,160.293 139,171.5C 145.278,177.111 152.112,181.944 159.5,186C 138.472,188.673 130.639,200.173 136,220.5C 138.147,225.46 140.814,230.127 144,234.5C 151.863,242.698 160.03,250.531 168.5,258C 158.509,273.478 149.676,289.644 142,306.5C 137.055,288.939 128.722,273.272 117,259.5C 108.916,251.42 101.582,242.753 95,233.5C 91.546,221.125 96.3793,214.791 109.5,214.5C 113.501,215.35 117.501,215.85 121.5,216C 124.265,213.034 123.932,210.367 120.5,208C 111.833,203.333 103.167,198.667 94.5,194C 82.7114,183.418 84.378,175.418 99.5,170C 101.325,168.534 101.825,166.701 101,164.5C 91.4876,159.127 85.6543,151.127 83.5,140.5C 85.4683,131.694 90.8016,125.861 99.5,123C 104.167,122.667 108.833,122.333 113.5,122C 115.325,120.534 115.825,118.701 115,116.5C 108.071,110.71 105.737,103.376 108,94.5C 110.255,89.4586 113.755,85.6253 118.5,83C 123.637,82.463 128.637,82.7963 133.5,84C 137.645,71.7021 144.978,61.8688 155.5,54.5 Z"/></g>
<g><path style="opacity:1" fill="#dde7ab" d="M 256.5,209.5 C 259.608,232.831 265.108,255.831 273,278.5C 280.418,296.419 288.418,314.085 297,331.5C 311.525,366.499 314.525,402.499 306,439.5C 292.303,483.1 263.136,499.933 218.5,490C 202.895,483.727 191.061,473.227 183,458.5C 170.105,432.238 165.771,404.571 170,375.5C 173.719,348.01 182.052,322.01 195,297.5C 212.308,265.865 232.808,236.532 256.5,209.5 Z"/></g>
<g><path style="opacity:1" fill="#c9d396" d="M 327.5,259.5 C 342.751,286.742 353.584,315.742 360,346.5C 363.547,370.554 363.214,394.554 359,418.5C 353.884,442.586 341.384,461.752 321.5,476C 311.567,481.817 300.901,484.151 289.5,483C 304.939,466.951 314.106,447.784 317,425.5C 320.356,399.804 318.69,374.47 312,349.5C 308.49,339.634 304.99,329.801 301.5,320C 304.593,297.326 313.26,277.159 327.5,259.5 Z"/></g>
<g><path style="opacity:1" fill="#c8d295" d="M 173.5,264.5 C 179.871,273.567 184.537,283.567 187.5,294.5C 173.237,321.457 164.737,350.124 162,380.5C 157.49,413.443 164.156,443.776 182,471.5C 185.465,475.967 189.298,480.133 193.5,484C 177.025,483.179 163.525,476.346 153,463.5C 140.892,447.184 133.892,428.85 132,408.5C 129.364,369.376 137.031,332.376 155,297.5C 160.672,286.149 166.839,275.149 173.5,264.5 Z"/></g>
</svg>
