<?xml version="1.0" encoding="UTF-8"?>
<!DOCTYPE svg PUBLIC "-//W3C//DTD SVG 1.1//EN" "http://www.w3.org/Graphics/SVG/1.1/DTD/svg11.dtd">
<svg xmlns="http://www.w3.org/2000/svg" version="1.1" width="512px" height="512px" style="shape-rendering:geometricPrecision; text-rendering:geometricPrecision; image-rendering:optimizeQuality; fill-rule:evenodd; clip-rule:evenodd" xmlns:xlink="http://www.w3.org/1999/xlink">
<g><path style="opacity:0.989" fill="#030100" d="M 222.5,15.5 C 234.44,13.7636 245.44,16.0969 255.5,22.5C 266.98,15.4483 279.314,13.615 292.5,17C 304.268,21.1022 312.435,28.9355 317,40.5C 327.452,32.2629 339.285,29.4295 352.5,32C 368.667,36.1667 378.833,46.3333 383,62.5C 383.809,68.7489 383.642,74.9156 382.5,81C 395.42,86.9174 403.587,96.7507 407,110.5C 420.662,121.183 425.996,135.183 423,152.5C 421.703,157.894 419.537,162.894 416.5,167.5C 423.737,179.235 425.403,191.735 421.5,205C 422.191,206.067 422.691,207.234 423,208.5C 423.667,219.167 423.667,229.833 423,240.5C 412.667,323.167 402.333,405.833 392,488.5C 391.594,491.494 390.094,493.661 387.5,495C 299.5,495.667 211.5,495.667 123.5,495C 121.667,494.5 120.5,493.333 120,491.5C 108.926,407.905 98.259,324.239 88,240.5C 87.0544,222.447 87.3878,204.447 89,186.5C 93.3232,175.178 100.823,166.678 111.5,161C 104.044,150.666 101.544,139.166 104,126.5C 105.078,121.013 107.244,116.013 110.5,111.5C 102.588,98.1152 101.422,84.1152 107,69.5C 118.169,50.2121 134.669,43.3787 156.5,49C 168.187,53.3524 176.687,61.1858 182,72.5C 185.73,71.5399 189.563,71.2065 193.5,71.5C 186.275,43.9474 195.942,25.2807 222.5,15.5 Z"/></g>
<g><path style="opacity:1" fill="#fce46a" d="M 225.5,31.5 C 229.514,31.3345 233.514,31.5012 237.5,32C 243.614,35.1311 249.447,38.6311 255,42.5C 257.321,42.0905 259.487,41.2572 261.5,40C 271.095,30.3107 281.762,28.9773 293.5,36C 306.833,49 306.833,62 293.5,75C 289.252,77.7881 284.586,79.4548 279.5,80C 278.333,81.1667 277.167,82.3333 276,83.5C 275.333,87.6613 275.833,91.6613 277.5,95.5C 259.513,94.4098 245.68,101.41 236,116.5C 230.422,108.111 230.089,99.4442 235,90.5C 236.643,85.5724 235.143,82.0724 230.5,80C 213.75,76.591 206.25,66.4244 208,49.5C 211.353,40.9815 217.186,34.9815 225.5,31.5 Z"/></g>
<g><path style="opacity:1" fill="#fcb431" d="M 337.5,47.5 C 354.521,46.2025 364.521,53.8692 367.5,70.5C 367.274,75.4051 366.107,80.0718 364,84.5C 362.622,88.8981 363.788,92.3981 367.5,95C 374.199,95.5619 379.865,98.2285 384.5,103C 366.817,103.834 354.151,112.167 346.5,128C 331.251,125.251 317.918,129.084 306.5,139.5C 296.476,132.111 293.31,122.445 297,110.5C 301.384,101.447 308.55,96.2801 318.5,95C 323.143,92.9276 324.643,89.4276 323,84.5C 315.619,67.275 320.452,54.9416 337.5,47.5 Z"/></g>
<g><path style="opacity:1" fill="#fbb331" d="M 137.5,63.5 C 154.43,62.2695 164.597,69.9362 168,86.5C 170.072,91.1433 173.572,92.6433 178.5,91C 193.814,84.0732 205.647,87.9065 214,102.5C 215.949,108.193 215.949,113.86 214,119.5C 209.943,121.779 205.777,123.946 201.5,126C 197.618,129.389 193.618,132.556 189.5,135.5C 179.311,117.904 163.978,110.071 143.5,112C 137.091,114.214 131.091,116.881 125.5,120C 130.747,115.782 131.58,110.949 128,105.5C 118.715,96.4722 117.049,86.1389 123,74.5C 126.906,69.4044 131.739,65.7377 137.5,63.5 Z"/></g>
<g><path style="opacity:1" fill="#fcb431" d="M 265.5,111.5 C 270.203,111.437 274.87,111.771 279.5,112.5C 278.521,126.231 282.521,138.231 291.5,148.5C 288.128,151.36 285.795,154.86 284.5,159C 285.367,163.873 287.867,167.706 292,170.5C 295.56,177.159 296.394,184.159 294.5,191.5C 284.828,191.334 275.161,191.5 265.5,192C 261.806,193.198 258.472,195.032 255.5,197.5C 249.879,194.601 247.046,189.935 247,183.5C 244.398,179.788 240.898,178.622 236.5,180C 219.416,187.528 207.25,182.695 200,165.5C 197.807,154.412 201.307,145.579 210.5,139C 219.123,134.458 227.79,134.458 236.5,139C 241.428,140.643 244.928,139.143 247,134.5C 248.965,123.376 255.132,115.709 265.5,111.5 Z"/></g>
<g><path style="opacity:1" fill="#fce56b" d="M 377.5,119.5 C 390.613,117.805 400.113,122.805 406,134.5C 407.492,139.411 407.826,144.411 407,149.5C 403.869,155.614 400.369,161.447 396.5,167C 396.909,169.321 397.743,171.487 399,173.5C 405.1,178.368 407.934,184.701 407.5,192.5C 397.527,191.437 387.527,191.271 377.5,192C 373.806,193.198 370.472,195.032 367.5,197.5C 362.551,195.526 358.551,192.36 355.5,188C 353.167,187.333 350.833,187.333 348.5,188C 330.28,195.637 318.113,190.137 312,171.5C 310.403,161.191 313.903,153.024 322.5,147C 331.123,142.458 339.79,142.458 348.5,147C 353.428,148.643 356.928,147.143 359,142.5C 360.965,131.376 367.132,123.709 377.5,119.5 Z"/></g>
<g><path style="opacity:1" fill="#fbe46a" d="M 145.5,127.5 C 162.745,126.258 172.745,134.091 175.5,151C 175.358,155.76 174.192,160.26 172,164.5C 170.729,171.902 173.896,175.736 181.5,176C 184,176.885 186.333,178.052 188.5,179.5C 191.106,183.609 194.273,187.276 198,190.5C 198.749,191.635 198.583,192.635 197.5,193.5C 195.5,194.833 193.5,196.167 191.5,197.5C 187.634,194.567 183.301,192.734 178.5,192C 170.167,191.333 161.833,191.333 153.5,192C 149.806,193.198 146.472,195.032 143.5,197.5C 139.634,194.567 135.301,192.734 130.5,192C 121.709,191.6 113.042,191.434 104.5,191.5C 108.85,181.979 116.183,176.479 126.5,175C 131.143,172.928 132.643,169.428 131,164.5C 123.598,147.311 128.431,134.978 145.5,127.5 Z"/></g>
<g><path style="opacity:1" fill="#e7413e" d="M 108.5,207.5 C 115.841,207.334 123.174,207.5 130.5,208C 132.667,208.833 134.167,210.333 135,212.5C 140.616,301.478 145.783,390.478 150.5,479.5C 145.167,479.5 139.833,479.5 134.5,479.5C 124.253,398.524 114.086,317.524 104,236.5C 103.333,228.5 103.333,220.5 104,212.5C 105.025,210.313 106.525,208.646 108.5,207.5 Z"/></g>
<g><path style="opacity:1" fill="#e9413e" d="M 156.5,207.5 C 163.841,207.334 171.174,207.5 178.5,208C 180.667,208.833 182.167,210.333 183,212.5C 184.754,237.488 186.254,262.488 187.5,287.5C 182.365,286.426 178.532,288.093 176,292.5C 175.333,320.833 175.333,349.167 176,377.5C 176.398,380.232 177.898,382.065 180.5,383C 184.821,383.499 189.154,383.666 193.5,383.5C 195.323,415.492 196.99,447.492 198.5,479.5C 187.833,479.5 177.167,479.5 166.5,479.5C 162.145,391.631 157.145,303.798 151.5,216C 151.525,212.105 153.192,209.272 156.5,207.5 Z"/></g>
<g><path style="opacity:1" fill="#ea413e" d="M 204.5,207.5 C 217.171,207.333 229.838,207.5 242.5,208C 243.931,208.465 245.097,209.299 246,210.5C 247.481,236.077 247.981,261.744 247.5,287.5C 232.833,287.5 218.167,287.5 203.5,287.5C 202.616,263.641 201.283,239.808 199.5,216C 199.525,212.105 201.192,209.272 204.5,207.5 Z"/></g>
<g><path style="opacity:1" fill="#ea413e" d="M 268.5,207.5 C 281.171,207.333 293.838,207.5 306.5,208C 308.667,208.833 310.167,210.333 311,212.5C 309.855,237.478 308.688,262.478 307.5,287.5C 292.833,287.5 278.167,287.5 263.5,287.5C 263.333,262.498 263.5,237.498 264,212.5C 265.025,210.313 266.525,208.646 268.5,207.5 Z"/></g>
<g><path style="opacity:1" fill="#e9413e" d="M 332.5,207.5 C 339.841,207.334 347.174,207.5 354.5,208C 357.934,209.529 359.6,212.196 359.5,216C 353.855,303.798 348.855,391.631 344.5,479.5C 333.833,479.5 323.167,479.5 312.5,479.5C 314.01,447.492 315.677,415.492 317.5,383.5C 322.599,383.825 327.599,383.325 332.5,382C 333.893,380.829 334.727,379.329 335,377.5C 335.667,349.167 335.667,320.833 335,292.5C 332.342,288.437 328.509,286.771 323.5,287.5C 324.746,262.488 326.246,237.488 328,212.5C 329.025,210.313 330.525,208.646 332.5,207.5 Z"/></g>
<g><path style="opacity:1" fill="#e7413e" d="M 380.5,207.5 C 388.611,207.065 396.611,207.565 404.5,209C 405.701,209.903 406.535,211.069 407,212.5C 407.167,216.5 407.333,220.5 407.5,224.5C 397.905,309.591 387.572,394.591 376.5,479.5C 371.167,479.5 365.833,479.5 360.5,479.5C 365.217,390.478 370.384,301.478 376,212.5C 377.025,210.313 378.525,208.646 380.5,207.5 Z"/></g>
<g><path style="opacity:1" fill="#fee66b" d="M 191.5,303.5 C 234.167,303.5 276.833,303.5 319.5,303.5C 319.5,324.833 319.5,346.167 319.5,367.5C 276.833,367.5 234.167,367.5 191.5,367.5C 191.5,346.167 191.5,324.833 191.5,303.5 Z"/></g>
<g><path style="opacity:1" fill="#020200" d="M 220.5,327.5 C 243.502,327.333 266.502,327.5 289.5,328C 295.462,330.405 296.962,334.571 294,340.5C 292.829,341.893 291.329,342.727 289.5,343C 266.5,343.667 243.5,343.667 220.5,343C 213.889,337.798 213.889,332.631 220.5,327.5 Z"/></g>
<g><path style="opacity:1" fill="#ea413e" d="M 209.5,383.5 C 222.167,383.5 234.833,383.5 247.5,383.5C 247.5,415.5 247.5,447.5 247.5,479.5C 236.5,479.5 225.5,479.5 214.5,479.5C 213.381,447.47 211.714,415.47 209.5,383.5 Z"/></g>
<g><path style="opacity:1" fill="#ea413e" d="M 263.5,383.5 C 276.167,383.5 288.833,383.5 301.5,383.5C 299.286,415.47 297.619,447.47 296.5,479.5C 285.5,479.5 274.5,479.5 263.5,479.5C 263.5,447.5 263.5,415.5 263.5,383.5 Z"/></g>
</svg>
