<?xml version="1.0" encoding="UTF-8"?>
<!DOCTYPE svg PUBLIC "-//W3C//DTD SVG 1.1//EN" "http://www.w3.org/Graphics/SVG/1.1/DTD/svg11.dtd">
<svg xmlns="http://www.w3.org/2000/svg" version="1.1" width="512px" height="512px" style="shape-rendering:geometricPrecision; text-rendering:geometricPrecision; image-rendering:optimizeQuality; fill-rule:evenodd; clip-rule:evenodd" xmlns:xlink="http://www.w3.org/1999/xlink">
<g><path style="opacity:0.985" fill="#020101" d="M 511.5,381.5 C 511.5,387.5 511.5,393.5 511.5,399.5C 506.27,413.818 495.937,421.985 480.5,424C 444.833,424.667 409.167,424.667 373.5,424C 369.848,421.855 368.182,418.689 368.5,414.5C 369.07,410.088 371.403,406.922 375.5,405C 408.833,404.667 442.167,404.333 475.5,404C 481.146,403.553 485.98,401.387 490,397.5C 491.52,393.625 491.854,389.625 491,385.5C 489.42,379.008 486.754,373.008 483,367.5C 466.975,344.077 446.808,325.077 422.5,310.5C 419.645,317.187 416.478,323.854 413,330.5C 402.797,343.7 390.63,345.867 376.5,337C 367.649,326.457 362.149,314.29 360,300.5C 359.058,294.197 358.391,287.863 358,281.5C 350.928,279.518 343.761,277.852 336.5,276.5C 336.606,294.99 333.773,312.99 328,330.5C 325.401,338.093 320.901,344.259 314.5,349C 296.105,355.892 283.272,350.059 276,331.5C 270,313.994 267.166,295.994 267.5,277.5C 260.336,278.532 253.336,280.199 246.5,282.5C 245.144,299.399 240.644,315.399 233,330.5C 222.752,343.702 210.585,345.868 196.5,337C 189.465,329.434 184.632,320.601 182,310.5C 160.231,323.93 141.231,340.597 125,360.5C 120.811,366.877 117.145,373.544 114,380.5C 108.898,393.47 113.065,401.303 126.5,404C 181.167,404.333 235.833,404.667 290.5,405C 295.799,406.129 298.799,409.296 299.5,414.5C 299.135,418.737 297.135,421.904 293.5,424C 236.833,424.667 180.167,424.667 123.5,424C 98.9381,419.609 88.6047,405.109 92.5,380.5C 80.8286,380.667 69.1619,380.5 57.5,380C 33.9663,377.135 20.1329,363.968 16,340.5C 15.6667,298.833 15.3333,257.167 15,215.5C 7.5768,204.373 2.41013,192.373 -0.5,179.5C -0.5,171.167 -0.5,162.833 -0.5,154.5C 8.04402,121.786 28.7107,100.619 61.5,91C 78.2453,86.736 95.2453,85.4026 112.5,87C 122.335,88.3334 131.835,90.8334 141,94.5C 155.227,88.6888 170.06,86.0222 185.5,86.5C 201.159,85.9319 216.159,88.7653 230.5,95C 270.5,95.6667 310.5,95.6667 350.5,95C 386.253,81.797 420.92,84.1304 454.5,102C 489.468,124.897 500.635,156.397 488,196.5C 485.446,203.276 482.113,209.609 478,215.5C 477.333,253.167 477.333,290.833 478,328.5C 493.758,343.369 504.925,361.035 511.5,381.5 Z"/></g>
<g><path style="opacity:1" fill="#fdd3b4" d="M 83.5,106.5 C 103.146,105.496 122.146,108.496 140.5,115.5C 166.876,104.528 193.543,103.695 220.5,113C 255.375,127.249 267.875,152.416 258,188.5C 254.523,196.122 250.523,203.455 246,210.5C 245.5,227.83 245.333,245.163 245.5,262.5C 195.035,275.174 152.202,300.507 117,338.5C 111.798,345.07 106.965,351.903 102.5,359C 86.1667,359.667 69.8333,359.667 53.5,359C 43.2503,355.028 37.417,347.528 36,336.5C 35.6667,293.833 35.3333,251.167 35,208.5C 7.81677,167.069 16.3168,135.236 60.5,113C 68.1627,110.338 75.8294,108.172 83.5,106.5 Z"/></g>
<g><path style="opacity:1" fill="#fea86a" d="M 262.5,117.5 C 292.833,116.833 323.167,116.167 353.5,115.5C 379.638,105.444 405.971,104.944 432.5,114C 473.426,133.445 483.093,163.112 461.5,203C 426.167,203.333 390.833,203.667 355.5,204C 346.288,210.292 346.288,216.625 355.5,223C 389.165,223.5 422.832,223.667 456.5,223.5C 456.833,252.174 456.5,280.841 455.5,309.5C 399.672,265.118 336.339,247.785 265.5,257.5C 265.333,243.496 265.5,229.496 266,215.5C 283.056,191.18 286.389,165.18 276,137.5C 272.233,130.286 267.733,123.62 262.5,117.5 Z"/></g>
<g><path style="opacity:1" fill="#885a39" d="M 353.5,115.5 C 323.167,116.167 292.833,116.833 262.5,117.5C 261.957,117.44 261.624,117.107 261.5,116.5C 292.159,115.5 322.826,115.167 353.5,115.5 Z"/></g>
<g><path style="opacity:1" fill="#090706" d="M 82.5,144.5 C 93.1763,144.328 97.343,149.328 95,159.5C 88.0422,166.638 82.0422,165.971 77,157.5C 75.5708,151.7 77.4041,147.367 82.5,144.5 Z"/></g>
<g><path style="opacity:1" fill="#060504" d="M 143.5,154.5 C 153.503,154.002 157.67,158.668 156,168.5C 153.119,173.19 148.952,175.023 143.5,174C 137.891,170.723 136.058,165.89 138,159.5C 139.73,157.598 141.563,155.931 143.5,154.5 Z"/></g>
<g><path style="opacity:1" fill="#090706" d="M 105.5,174.5 C 118.138,173.484 122.305,178.817 118,190.5C 114.319,193.36 110.152,194.193 105.5,193C 98.8502,186.713 98.8502,180.546 105.5,174.5 Z"/></g>
<g><path style="opacity:1" fill="#0a0807" d="M 71.5,200.5 C 81.4921,199.327 85.9921,203.66 85,213.5C 78.1321,223.077 71.7987,222.744 66,212.5C 65.4129,207.344 67.2462,203.344 71.5,200.5 Z"/></g>
<g><path style="opacity:1" fill="#fbd1b2" d="M 287.5,274.5 C 297.167,274.5 306.833,274.5 316.5,274.5C 316.975,287.316 315.809,299.982 313,312.5C 311.608,318.072 309.608,323.405 307,328.5C 305.148,332.077 302.482,333.077 299,331.5C 294.647,324.787 291.647,317.454 290,309.5C 288.066,297.912 287.232,286.245 287.5,274.5 Z"/></g>
<g><path style="opacity:1" fill="#fda86a" d="M 368.5,414.5 C 360.5,414.5 352.5,414.5 344.5,414.5C 342.18,406.172 336.847,403.338 328.5,406C 325.404,408.029 323.738,410.862 323.5,414.5C 315.5,414.5 307.5,414.5 299.5,414.5C 298.799,409.296 295.799,406.129 290.5,405C 235.833,404.667 181.167,404.333 126.5,404C 113.065,401.303 108.898,393.47 114,380.5C 117.145,373.544 120.811,366.877 125,360.5C 141.231,340.597 160.231,323.93 182,310.5C 184.632,320.601 189.465,329.434 196.5,337C 210.585,345.868 222.752,343.702 233,330.5C 240.644,315.399 245.144,299.399 246.5,282.5C 253.336,280.199 260.336,278.532 267.5,277.5C 267.166,295.994 270,313.994 276,331.5C 283.272,350.059 296.105,355.892 314.5,349C 320.901,344.259 325.401,338.093 328,330.5C 333.773,312.99 336.606,294.99 336.5,276.5C 343.761,277.852 350.928,279.518 358,281.5C 358.391,287.863 359.058,294.197 360,300.5C 362.149,314.29 367.649,326.457 376.5,337C 390.63,345.867 402.797,343.7 413,330.5C 416.478,323.854 419.645,317.187 422.5,310.5C 446.808,325.077 466.975,344.077 483,367.5C 486.754,373.008 489.42,379.008 491,385.5C 491.854,389.625 491.52,393.625 490,397.5C 485.98,401.387 481.146,403.553 475.5,404C 442.167,404.333 408.833,404.667 375.5,405C 371.403,406.922 369.07,410.088 368.5,414.5 Z"/></g>
<g><path style="opacity:1" fill="#facfb1" d="M 378.5,288.5 C 387.516,291.176 395.85,295.176 403.5,300.5C 402.103,305.192 400.603,309.859 399,314.5C 397.462,319.4 394.296,321.9 389.5,322C 382.682,311.905 379.015,300.739 378.5,288.5 Z"/></g>
<g><path style="opacity:1" fill="#f9cfb1" d="M 220.5,290.5 C 221.833,290.5 223.167,290.5 224.5,290.5C 223.944,300.337 221.444,309.67 217,318.5C 213.616,323.809 210.283,323.809 207,318.5C 204.044,312.964 201.877,307.131 200.5,301C 207.042,297.229 213.709,293.729 220.5,290.5 Z"/></g>
<g><path style="opacity:0.944" fill="#040201" d="M 344.5,414.5 C 342.832,423.51 337.498,426.676 328.5,424C 325.108,421.715 323.441,418.548 323.5,414.5C 323.738,410.862 325.404,408.029 328.5,406C 336.847,403.338 342.18,406.172 344.5,414.5 Z"/></g>
</svg>
