<?xml version="1.0" encoding="UTF-8"?>
<!DOCTYPE svg PUBLIC "-//W3C//DTD SVG 1.1//EN" "http://www.w3.org/Graphics/SVG/1.1/DTD/svg11.dtd">
<svg xmlns="http://www.w3.org/2000/svg" version="1.1" width="512px" height="512px" style="shape-rendering:geometricPrecision; text-rendering:geometricPrecision; image-rendering:optimizeQuality; fill-rule:evenodd; clip-rule:evenodd" xmlns:xlink="http://www.w3.org/1999/xlink">
<g><path style="opacity:0.972" fill="#020101" d="M 378.5,-0.5 C 404.5,-0.5 430.5,-0.5 456.5,-0.5C 463.393,1.89027 468.226,6.55693 471,13.5C 472.464,22.1198 472.798,30.7865 472,39.5C 471.561,44.1069 469.061,46.4402 464.5,46.5C 462.037,46.2189 459.87,45.2189 458,43.5C 456.76,35.2427 456.093,26.9094 456,18.5C 455.5,16.6667 454.333,15.5 452.5,15C 427.5,14.3333 402.5,14.3333 377.5,15C 372.809,15.9443 368.142,16.7776 363.5,17.5C 308.006,29.8561 265.506,60.1895 236,108.5C 208.12,159.112 203.786,211.778 223,266.5C 243.35,318.184 279.184,354.684 330.5,376C 339.953,379.613 349.619,382.446 359.5,384.5C 378.098,387.986 396.931,389.319 416,388.5C 428.167,388.333 440.333,388.167 452.5,388C 454.333,387.5 455.5,386.333 456,384.5C 456.333,279.833 456.667,175.167 457,70.5C 458.913,67.7197 461.413,66.053 464.5,65.5C 468.892,66.3917 471.392,69.0584 472,73.5C 472.987,178.863 472.654,284.196 471,389.5C 468.5,396 464,400.5 457.5,403C 436.537,404.596 415.537,404.929 394.5,404C 367.005,403.376 340.672,397.543 315.5,386.5C 314.667,422.829 314.167,459.162 314,495.5C 311.374,502.954 306.54,508.288 299.5,511.5C 273.167,511.5 246.833,511.5 220.5,511.5C 202.102,509.114 184.102,504.614 166.5,498C 160.985,496.142 158.652,492.308 159.5,486.5C 161.602,484.115 164.269,482.782 167.5,482.5C 179.225,486.853 191.225,490.186 203.5,492.5C 209.651,493.926 215.984,495.093 222.5,496C 246.833,496.667 271.167,496.667 295.5,496C 296.333,495.167 297.167,494.333 298,493.5C 299.654,454.918 299.988,416.251 299,377.5C 291.698,373.03 284.532,368.363 277.5,363.5C 276.667,395.161 276.167,426.828 276,458.5C 273.287,467.214 267.454,472.381 258.5,474C 194.093,478.04 142.926,454.207 105,402.5C 99.9691,395.099 95.4691,387.432 91.5,379.5C 72.58,335.21 71.58,290.544 88.5,245.5C 108.575,203.261 140.241,173.094 183.5,155C 189.99,152.447 196.657,150.613 203.5,149.5C 205.161,141.183 207.828,133.183 211.5,125.5C 208.495,124.892 205.495,125.226 202.5,126.5C 149.211,138.975 108.044,168.309 79,214.5C 50.4878,268.135 46.8211,323.469 68,380.5C 83.2793,417.775 107.946,447.108 142,468.5C 143.82,471.753 143.987,475.087 142.5,478.5C 138.488,482.304 134.155,482.471 129.5,479C 81.5382,446.648 52.3715,401.814 42,344.5C 29.8567,261.335 57.0233,194.501 123.5,144C 152.159,124.332 183.826,112.332 218.5,108C 253.584,45.1073 306.917,8.94068 378.5,-0.5 Z"/></g>
<g><path style="opacity:0.999" fill="#fccd84" d="M 464.5,46.5 C 464.5,52.8333 464.5,59.1667 464.5,65.5C 461.413,66.053 458.913,67.7197 457,70.5C 456.667,175.167 456.333,279.833 456,384.5C 455.5,386.333 454.333,387.5 452.5,388C 440.333,388.167 428.167,388.333 416,388.5C 396.931,389.319 378.098,387.986 359.5,384.5C 340.003,375.41 321.67,364.244 304.5,351C 278.927,329.277 260.26,302.777 248.5,271.5C 284.805,338.33 341.138,369.83 417.5,366C 426.333,363.833 431.833,358.333 434,349.5C 434.667,250.5 434.667,151.5 434,52.5C 431.401,44.2343 425.901,39.0677 417.5,37C 338.852,33.6373 281.852,66.8039 246.5,136.5C 262.967,90.1994 292.634,55.0327 335.5,31C 344.807,26.1903 354.14,21.6903 363.5,17.5C 368.142,16.7776 372.809,15.9443 377.5,15C 402.5,14.3333 427.5,14.3333 452.5,15C 454.333,15.5 455.5,16.6667 456,18.5C 456.093,26.9094 456.76,35.2427 458,43.5C 459.87,45.2189 462.037,46.2189 464.5,46.5 Z"/></g>
<g><path style="opacity:1" fill="#fabe63" d="M 363.5,17.5 C 354.14,21.6903 344.807,26.1903 335.5,31C 292.634,55.0327 262.967,90.1994 246.5,136.5C 228.597,181.813 229.263,226.813 248.5,271.5C 260.26,302.777 278.927,329.277 304.5,351C 321.67,364.244 340.003,375.41 359.5,384.5C 349.619,382.446 339.953,379.613 330.5,376C 279.184,354.684 243.35,318.184 223,266.5C 203.786,211.778 208.12,159.112 236,108.5C 265.506,60.1895 308.006,29.8561 363.5,17.5 Z"/></g>
<g><path style="opacity:1" fill="#030301" d="M 248.5,271.5 C 229.263,226.813 228.597,181.813 246.5,136.5C 281.852,66.8039 338.852,33.6373 417.5,37C 425.901,39.0677 431.401,44.2343 434,52.5C 434.667,151.5 434.667,250.5 434,349.5C 431.833,358.333 426.333,363.833 417.5,366C 341.138,369.83 284.805,338.33 248.5,271.5 Z"/></g>
<g><path style="opacity:1" fill="#fdeeab" d="M 372.5,349.5 C 302.283,316.704 269.116,261.371 273,183.5C 283.177,121.166 317.344,77.8326 375.5,53.5C 388.751,51.589 402.085,51.089 415.5,52C 416.667,53.1667 417.833,54.3333 419,55.5C 419.667,152.833 419.667,250.167 419,347.5C 418.5,349.333 417.333,350.5 415.5,351C 401.052,351.987 386.719,351.487 372.5,349.5 Z"/></g>
<g><path style="opacity:1" fill="#fcde76" d="M 375.5,53.5 C 317.344,77.8326 283.177,121.166 273,183.5C 269.116,261.371 302.283,316.704 372.5,349.5C 318.162,337.329 279.995,305.662 258,254.5C 236.647,187.732 252.147,131.232 304.5,85C 325.454,68.5256 349.121,58.0256 375.5,53.5 Z"/></g>
<g><path style="opacity:1" fill="#060604" d="M 355.5,73.5 C 357.857,73.3367 360.19,73.5034 362.5,74C 367.475,79.5921 369.642,86.0921 369,93.5C 364.667,98.8333 360.333,98.8333 356,93.5C 353.404,88.3975 352.07,83.0641 352,77.5C 352.69,75.6498 353.856,74.3164 355.5,73.5 Z"/></g>
<g><path style="opacity:1" fill="#070705" d="M 320.5,104.5 C 329.595,104.077 332.762,108.077 330,116.5C 327.167,119.333 324.333,122.167 321.5,125C 312.895,127.734 309.062,124.567 310,115.5C 313.704,111.964 317.204,108.298 320.5,104.5 Z"/></g>
<g><path style="opacity:1" fill="#020302" d="M 368.5,121.5 C 373.08,121.113 377.414,121.947 381.5,124C 388.074,129.904 393.908,136.404 399,143.5C 399.823,147.738 399.156,151.738 397,155.5C 391.096,162.074 384.596,167.908 377.5,173C 373.705,173.837 370.039,173.504 366.5,172C 359.567,165.74 353.401,158.907 348,151.5C 347.163,147.705 347.496,144.039 349,140.5C 355.395,133.937 361.895,127.603 368.5,121.5 Z"/></g>
<g><path style="opacity:1" fill="#faca82" d="M 88.5,245.5 C 104.152,201.011 132.152,166.511 172.5,142C 182.472,136.528 192.472,131.361 202.5,126.5C 205.495,125.226 208.495,124.892 211.5,125.5C 207.828,133.183 205.161,141.183 203.5,149.5C 196.657,150.613 189.99,152.447 183.5,155C 140.241,173.094 108.575,203.261 88.5,245.5 Z"/></g>
<g><path style="opacity:1" fill="#fabe63" d="M 202.5,126.5 C 192.472,131.361 182.472,136.528 172.5,142C 132.152,166.511 104.152,201.011 88.5,245.5C 71.58,290.544 72.58,335.21 91.5,379.5C 104.484,415.337 126.484,444.503 157.5,467C 172.653,477.049 187.986,485.549 203.5,492.5C 191.225,490.186 179.225,486.853 167.5,482.5C 164.269,482.782 161.602,484.115 159.5,486.5C 153.682,484.09 148.015,481.423 142.5,478.5C 143.987,475.087 143.82,471.753 142,468.5C 107.946,447.108 83.2793,417.775 68,380.5C 46.8211,323.469 50.4878,268.135 79,214.5C 108.044,168.309 149.211,138.975 202.5,126.5 Z"/></g>
<g><path style="opacity:1" fill="#8edab3" d="M 372.5,137.5 C 376.75,140.079 380.417,143.412 383.5,147.5C 380.5,151.167 377.167,154.5 373.5,157.5C 369.833,154.5 366.5,151.167 363.5,147.5C 366.522,144.147 369.522,140.813 372.5,137.5 Z"/></g>
<g><path style="opacity:1" fill="#0b0a07" d="M 286.5,157.5 C 289.649,157.211 292.649,157.711 295.5,159C 298.949,161.482 302.116,164.315 305,167.5C 306.326,175.171 303.159,178.671 295.5,178C 289.542,174.879 285.208,170.379 282.5,164.5C 282.974,161.689 284.307,159.355 286.5,157.5 Z"/></g>
<g><path style="opacity:1" fill="#fcde76" d="M 198.5,171.5 C 150.022,198.2 122.189,239.2 115,294.5C 112.918,371.039 146.418,425.372 215.5,457.5C 163.45,446.29 125.95,416.623 103,368.5C 78.6048,302.007 92.1048,244.507 143.5,196C 160.152,182.588 178.652,172.421 199,165.5C 199.18,167.488 199.014,169.488 198.5,171.5 Z"/></g>
<g><path style="opacity:1" fill="#fcedab" d="M 198.5,171.5 C 190.322,241.767 211.489,301.434 262,350.5C 262.667,385.167 262.667,419.833 262,454.5C 261.167,456.667 259.667,458.167 257.5,459C 243.412,459.982 229.412,459.482 215.5,457.5C 146.418,425.372 112.918,371.039 115,294.5C 122.189,239.2 150.022,198.2 198.5,171.5 Z"/></g>
<g><path style="opacity:1" fill="#040403" d="M 298.5,196.5 C 302.41,196.263 306.077,197.096 309.5,199C 315.699,204.864 321.532,211.031 327,217.5C 328.041,222.44 327.374,227.106 325,231.5C 319.429,237.742 313.262,243.242 306.5,248C 302.375,248.854 298.375,248.52 294.5,247C 287.593,240.764 281.427,233.931 276,226.5C 275.183,223.036 275.517,219.702 277,216.5C 283.108,208.554 290.274,201.887 298.5,196.5 Z"/></g>
<g><path style="opacity:1" fill="#080705" d="M 360.5,196.5 C 366.29,196.096 371.956,196.596 377.5,198C 380.886,201.373 381.386,205.206 379,209.5C 378.25,210.126 377.416,210.626 376.5,211C 370.388,211.909 364.388,211.576 358.5,210C 355.443,204.958 356.11,200.458 360.5,196.5 Z"/></g>
<g><path style="opacity:1" fill="#070604" d="M 163.5,212.5 C 171.885,211.716 175.051,215.383 173,223.5C 169.833,226.667 166.667,229.833 163.5,233C 159.22,235.477 155.72,234.644 153,230.5C 152.333,228.167 152.333,225.833 153,223.5C 156.03,219.305 159.53,215.639 163.5,212.5 Z"/></g>
<g><path style="opacity:1" fill="#8dd8b1" d="M 300.5,212.5 C 304.905,215.396 308.905,218.896 312.5,223C 309,226.5 305.5,230 302,233.5C 298.5,230 295,226.5 291.5,223C 295.107,219.902 298.107,216.402 300.5,212.5 Z"/></g>
<g><path style="opacity:1" fill="#040403" d="M 379.5,232.5 C 385.526,231.676 390.693,233.342 395,237.5C 399.318,246.444 401.985,255.777 403,265.5C 401.99,269.843 399.49,273.01 395.5,275C 389.5,277 383.5,279 377.5,281C 370.676,282.945 365.176,281.112 361,275.5C 358.864,268.758 356.531,262.091 354,255.5C 352.574,249.184 354.407,244.017 359.5,240C 366.304,237.569 372.971,235.069 379.5,232.5 Z"/></g>
<g><path style="opacity:1" fill="#8ad4ae" d="M 381.5,247.5 C 382.75,247.577 383.583,248.244 384,249.5C 385.684,253.716 386.851,258.049 387.5,262.5C 383.059,263.424 378.725,264.758 374.5,266.5C 371.839,261.85 370.172,256.85 369.5,251.5C 373.784,250.739 377.784,249.405 381.5,247.5 Z"/></g>
<g><path style="opacity:1" fill="#080705" d="M 176.5,254.5 C 184.161,253.663 187.661,256.996 187,264.5C 184.203,268.299 181.036,271.799 177.5,275C 169.412,277.875 165.579,275.042 166,266.5C 169.336,262.332 172.836,258.332 176.5,254.5 Z"/></g>
<g><path style="opacity:1" fill="#070705" d="M 129.5,265.5 C 136.364,266.184 142.198,269.184 147,274.5C 149.023,282.126 146.19,285.959 138.5,286C 134.385,283.552 130.552,280.719 127,277.5C 124.523,272.669 125.356,268.669 129.5,265.5 Z"/></g>
<g><path style="opacity:1" fill="#0b0a07" d="M 329.5,273.5 C 336.319,273.483 339.486,276.817 339,283.5C 334.67,290.547 328.503,294.047 320.5,294C 316.875,291.794 315.708,288.627 317,284.5C 320.716,280.282 324.883,276.615 329.5,273.5 Z"/></g>
<g><path style="opacity:1" fill="#040403" d="M 140.5,304.5 C 145.287,303.97 149.62,305.137 153.5,308C 159.742,313.571 165.242,319.738 170,326.5C 170.823,330.738 170.156,334.738 168,338.5C 162.136,344.699 155.969,350.532 149.5,356C 144.49,357.125 139.823,356.458 135.5,354C 129.258,348.429 123.758,342.262 119,335.5C 118.146,331.375 118.48,327.375 120,323.5C 126.429,316.565 133.262,310.232 140.5,304.5 Z"/></g>
<g><path style="opacity:1" fill="#070705" d="M 191.5,304.5 C 197.262,304.149 202.928,304.649 208.5,306C 212.875,311.121 212.209,315.455 206.5,319C 201.167,319.667 195.833,319.667 190.5,319C 185.003,313.683 185.336,308.85 191.5,304.5 Z"/></g>
<g><path style="opacity:1" fill="#080705" d="M 365.5,305.5 C 371.29,305.096 376.956,305.596 382.5,307C 385.886,310.373 386.386,314.206 384,318.5C 383.25,319.126 382.416,319.626 381.5,320C 375.388,320.909 369.388,320.576 363.5,319C 360.443,313.958 361.11,309.458 365.5,305.5 Z"/></g>
<g><path style="opacity:1" fill="#8ad4ae" d="M 143.5,320.5 C 147.75,323.079 151.417,326.412 154.5,330.5C 151.468,334.366 147.968,337.699 144,340.5C 140.213,337.716 136.713,334.549 133.5,331C 137.037,327.631 140.371,324.131 143.5,320.5 Z"/></g>
<g><path style="opacity:1" fill="#030302" d="M 221.5,340.5 C 228.258,339.251 233.758,341.251 238,346.5C 242.617,355.334 244.95,364.667 245,374.5C 243.998,378.68 241.498,381.514 237.5,383C 231.5,385 225.5,387 219.5,389C 211.872,390.933 206.372,388.433 203,381.5C 201,375.5 199,369.5 197,363.5C 195.642,358.007 196.809,353.173 200.5,349C 207.48,345.847 214.48,343.013 221.5,340.5 Z"/></g>
<g><path style="opacity:1" fill="#89d1ab" d="M 223.5,355.5 C 224.5,355.5 225.5,355.5 226.5,355.5C 227.833,360.5 229.167,365.5 230.5,370.5C 225.382,371.429 220.382,372.762 215.5,374.5C 214.571,369.382 213.238,364.382 211.5,359.5C 215.805,358.765 219.805,357.432 223.5,355.5 Z"/></g>
<g><path style="opacity:1" fill="#f8c981" d="M 203.5,492.5 C 187.986,485.549 172.653,477.049 157.5,467C 126.484,444.503 104.484,415.337 91.5,379.5C 95.4691,387.432 99.9691,395.099 105,402.5C 142.926,454.207 194.093,478.04 258.5,474C 267.454,472.381 273.287,467.214 276,458.5C 276.167,426.828 276.667,395.161 277.5,363.5C 284.532,368.363 291.698,373.03 299,377.5C 299.988,416.251 299.654,454.918 298,493.5C 297.167,494.333 296.333,495.167 295.5,496C 271.167,496.667 246.833,496.667 222.5,496C 215.984,495.093 209.651,493.926 203.5,492.5 Z"/></g>
<g><path style="opacity:1" fill="#080705" d="M 171.5,381.5 C 179.201,381.362 182.367,385.029 181,392.5C 178.183,395.647 175.016,398.48 171.5,401C 162.242,404.295 158.409,401.128 160,391.5C 164.026,388.302 167.859,384.968 171.5,381.5 Z"/></g>
<g><path style="opacity:1" fill="#070704" d="M 208.5,413.5 C 214.262,413.149 219.928,413.649 225.5,415C 229.875,420.121 229.209,424.455 223.5,428C 218.167,428.667 212.833,428.667 207.5,428C 202.003,422.683 202.336,417.85 208.5,413.5 Z"/></g>
</svg>
