<?xml version="1.0" encoding="UTF-8"?>
<!DOCTYPE svg PUBLIC "-//W3C//DTD SVG 1.1//EN" "http://www.w3.org/Graphics/SVG/1.1/DTD/svg11.dtd">
<svg xmlns="http://www.w3.org/2000/svg" version="1.1" width="512px" height="512px" style="shape-rendering:geometricPrecision; text-rendering:geometricPrecision; image-rendering:optimizeQuality; fill-rule:evenodd; clip-rule:evenodd" xmlns:xlink="http://www.w3.org/1999/xlink">
<g><path style="opacity:0.96" fill="#020201" d="M 219.5,-0.5 C 228.5,-0.5 237.5,-0.5 246.5,-0.5C 274.944,4.64402 298.111,18.644 316,41.5C 318.054,45.6126 317.887,49.6126 315.5,53.5C 314.209,53.2627 313.209,53.596 312.5,54.5C 310.143,54.6633 307.81,54.4966 305.5,54C 300.975,47.9794 295.975,42.4794 290.5,37.5C 290.027,36.0937 289.027,35.427 287.5,35.5C 285.781,33.4852 283.781,31.8185 281.5,30.5C 281.027,29.0937 280.027,28.427 278.5,28.5C 278.027,27.0937 277.027,26.427 275.5,26.5C 269.626,22.7793 263.293,20.1126 256.5,18.5C 253.093,16.9257 249.427,15.9257 245.5,15.5C 213.001,10.001 189.168,21.6677 174,50.5C 168.06,62.7138 162.393,75.0471 157,87.5C 152.095,98.3145 146.428,108.648 140,118.5C 134.357,126.479 127.191,132.645 118.5,137C 111.75,138.749 105.084,140.749 98.5,143C 84.4231,153.334 73.2565,166.167 65,181.5C 47.6686,211.156 42.3353,242.822 49,276.5C 55.6097,297.219 68.1097,313.385 86.5,325C 100.831,333.499 116.164,339.332 132.5,342.5C 137.206,344.375 142.206,345.375 147.5,345.5C 147.917,346.124 148.584,346.457 149.5,346.5C 150.713,346.253 151.38,345.586 151.5,344.5C 155.959,333.921 160.126,323.254 164,312.5C 165.014,309.656 166.848,307.656 169.5,306.5C 171.833,306.5 174.167,306.5 176.5,306.5C 179.305,309.246 180.139,312.579 179,316.5C 165.962,343.907 156.962,372.573 152,402.5C 146.75,438.007 159.916,463.673 191.5,479.5C 192.605,480.6 193.938,481.267 195.5,481.5C 196.514,482.674 197.847,483.34 199.5,483.5C 220.811,496.163 243.478,499.497 267.5,493.5C 269.898,493.741 271.898,493.074 273.5,491.5C 277.708,490.398 281.708,488.731 285.5,486.5C 291.121,482.757 296.455,478.757 301.5,474.5C 303.027,474.573 304.027,473.906 304.5,472.5C 307.07,470.386 309.403,468.053 311.5,465.5C 313.262,464.738 314.262,463.404 314.5,461.5C 318.56,457.767 321.893,453.434 324.5,448.5C 325.906,448.027 326.573,447.027 326.5,445.5C 327.906,445.027 328.573,444.027 328.5,442.5C 334.634,428.898 341.301,415.565 348.5,402.5C 349.906,402.027 350.573,401.027 350.5,399.5C 350.328,398.508 350.662,397.842 351.5,397.5C 352.906,397.027 353.573,396.027 353.5,394.5C 356.837,389.824 360.17,385.157 363.5,380.5C 364.906,380.027 365.573,379.027 365.5,377.5C 366.833,376.167 368.167,374.833 369.5,373.5C 371.262,372.738 372.262,371.404 372.5,369.5C 374.167,368.5 375.5,367.167 376.5,365.5C 378.404,365.262 379.738,364.262 380.5,362.5C 383.586,358.79 387.253,355.79 391.5,353.5C 393.027,353.573 394.027,352.906 394.5,351.5C 396.027,351.573 397.027,350.906 397.5,349.5C 399.336,347.412 401.669,346.079 404.5,345.5C 406.027,345.573 407.027,344.906 407.5,343.5C 409.966,342.366 412.633,342.199 415.5,343C 416.381,343.708 417.047,344.542 417.5,345.5C 417.842,346.338 418.508,346.672 419.5,346.5C 419.789,349.649 419.289,352.649 418,355.5C 393.719,368.114 375.053,386.447 362,410.5C 354.984,424.531 347.984,438.531 341,452.5C 322.536,483.794 295.702,503.461 260.5,511.5C 251.167,511.5 241.833,511.5 232.5,511.5C 202.613,505.473 176.447,492.14 154,471.5C 141.671,455.513 135.504,437.346 135.5,417C 136.251,398.16 139.584,379.827 145.5,362C 122.238,358.016 100.238,350.349 79.5,339C 38.5295,311.515 23.0295,273.349 33,224.5C 40.2726,189.446 56.7726,159.612 82.5,135C 91.1113,128.53 100.778,124.53 111.5,123C 115.951,120.217 120.117,117.05 124,113.5C 129.166,106.505 133.833,99.1718 138,91.5C 145.864,72.7729 154.531,54.4396 164,36.5C 176.429,15.0371 194.929,2.70378 219.5,-0.5 Z"/></g>
<g><path style="opacity:1" fill="#feefd2" d="M 245.5,15.5 C 251.957,18.897 258.29,22.5637 264.5,26.5C 265.585,28.5869 267.251,29.9202 269.5,30.5C 270.167,30.5 270.5,30.8333 270.5,31.5C 273.5,35.1667 276.833,38.5 280.5,41.5C 286.417,49.6684 292.084,58.0018 297.5,66.5C 298.603,70.497 300.269,74.1637 302.5,77.5C 302.928,80.7846 303.928,83.7846 305.5,86.5C 307.265,95.6694 309.265,104.669 311.5,113.5C 312.468,115.607 312.802,117.941 312.5,120.5C 312.613,125.518 312.947,130.518 313.5,135.5C 303.24,135.896 293.24,137.23 283.5,139.5C 279.878,139.322 276.544,139.989 273.5,141.5C 267.062,141.985 261.062,143.651 255.5,146.5C 253.11,148.02 250.443,149.02 247.5,149.5C 241.076,151.21 235.409,154.21 230.5,158.5C 221.258,163.74 213.591,170.74 207.5,179.5C 204.529,181.443 202.529,184.109 201.5,187.5C 201.573,189.027 200.906,190.027 199.5,190.5C 196.498,193.161 194.498,196.495 193.5,200.5C 188.459,207.914 184.459,215.914 181.5,224.5C 177.878,230.018 175.211,236.018 173.5,242.5C 171.707,244.426 170.707,246.759 170.5,249.5C 168.069,253.111 166.403,257.111 165.5,261.5C 163.707,263.426 162.707,265.759 162.5,268.5C 159.039,274.43 156.373,280.764 154.5,287.5C 150.374,294.759 147.041,302.425 144.5,310.5C 142.707,312.426 141.707,314.759 141.5,317.5C 141.598,319.553 140.931,321.22 139.5,322.5C 137.206,325.37 135.872,328.703 135.5,332.5C 133.733,334.792 132.733,337.458 132.5,340.5C 132.5,341.167 132.5,341.833 132.5,342.5C 116.164,339.332 100.831,333.499 86.5,325C 68.1097,313.385 55.6097,297.219 49,276.5C 42.3353,242.822 47.6686,211.156 65,181.5C 73.2565,166.167 84.4231,153.334 98.5,143C 105.084,140.749 111.75,138.749 118.5,137C 127.191,132.645 134.357,126.479 140,118.5C 146.428,108.648 152.095,98.3145 157,87.5C 162.393,75.0471 168.06,62.7138 174,50.5C 189.168,21.6677 213.001,10.001 245.5,15.5 Z"/></g>
<g><path style="opacity:1" fill="#f4fbf6" d="M 256.5,18.5 C 263.293,20.1126 269.626,22.7793 275.5,26.5C 275.973,27.9063 276.973,28.573 278.5,28.5C 278.973,29.9063 279.973,30.573 281.5,30.5C 283.781,31.8185 285.781,33.4852 287.5,35.5C 287.973,36.9063 288.973,37.573 290.5,37.5C 295.975,42.4794 300.975,47.9794 305.5,54C 307.81,54.4966 310.143,54.6633 312.5,54.5C 314.573,55.2995 316.24,56.6329 317.5,58.5C 317.75,60.674 318.75,62.3406 320.5,63.5C 321.455,65.7457 322.122,68.079 322.5,70.5C 320.685,71.7908 319.685,73.6241 319.5,76C 326.507,97.2059 330.507,119.039 331.5,141.5C 331.5,145.833 331.5,150.167 331.5,154.5C 329.585,154.216 327.919,154.549 326.5,155.5C 302.856,155.926 279.856,159.76 257.5,167C 252.868,168.649 248.535,170.816 244.5,173.5C 242.973,173.427 241.973,174.094 241.5,175.5C 238.766,177.714 235.766,179.714 232.5,181.5C 230.146,184.521 227.479,187.188 224.5,189.5C 223.094,189.973 222.427,190.973 222.5,192.5C 222.167,193.5 221.5,194.167 220.5,194.5C 219.094,194.973 218.427,195.973 218.5,197.5C 216.102,200.232 214.102,203.232 212.5,206.5C 211.094,206.973 210.427,207.973 210.5,209.5C 199.091,231.03 188.924,253.03 180,275.5C 177.496,280.326 177.996,284.66 181.5,288.5C 180.447,292.934 179.114,297.268 177.5,301.5C 176.609,302.261 175.942,303.261 175.5,304.5C 173.369,305.169 171.369,305.835 169.5,306.5C 166.848,307.656 165.014,309.656 164,312.5C 160.126,323.254 155.959,333.921 151.5,344.5C 150.292,345.234 148.959,345.567 147.5,345.5C 142.206,345.375 137.206,344.375 132.5,342.5C 132.5,341.833 132.5,341.167 132.5,340.5C 134.267,338.208 135.267,335.542 135.5,332.5C 137.403,329.47 138.737,326.137 139.5,322.5C 140.931,321.22 141.598,319.553 141.5,317.5C 143.293,315.574 144.293,313.241 144.5,310.5C 148.626,303.241 151.959,295.575 154.5,287.5C 157.961,281.57 160.627,275.236 162.5,268.5C 164.293,266.574 165.293,264.241 165.5,261.5C 167.931,257.889 169.597,253.889 170.5,249.5C 172.293,247.574 173.293,245.241 173.5,242.5C 176.734,236.815 179.401,230.815 181.5,224.5C 186.008,216.818 190.008,208.818 193.5,200.5C 196,197.506 198,194.173 199.5,190.5C 200.906,190.027 201.573,189.027 201.5,187.5C 203.984,185.2 205.984,182.533 207.5,179.5C 214.893,172.103 222.56,165.103 230.5,158.5C 236.333,155.751 241.999,152.751 247.5,149.5C 250.443,149.02 253.11,148.02 255.5,146.5C 261.709,145.202 267.709,143.536 273.5,141.5C 277.078,141.451 280.411,140.785 283.5,139.5C 293.81,138.28 304.143,137.28 314.5,136.5C 314.473,130.949 313.806,125.616 312.5,120.5C 312.802,117.941 312.468,115.607 311.5,113.5C 310.757,104.106 308.757,95.106 305.5,86.5C 305.472,83.0836 304.472,80.0836 302.5,77.5C 301.779,73.3114 300.113,69.6448 297.5,66.5C 293.562,56.9457 287.895,48.6123 280.5,41.5C 278.167,37.1667 274.833,33.8333 270.5,31.5C 270.5,30.8333 270.167,30.5 269.5,30.5C 268.415,28.4131 266.749,27.0798 264.5,26.5C 261.634,23.4789 258.3,20.9789 254.5,19C 255.094,18.5357 255.761,18.369 256.5,18.5 Z"/></g>
<g><path style="opacity:1" fill="#f8b964" d="M 245.5,15.5 C 249.427,15.9257 253.093,16.9257 256.5,18.5C 255.761,18.369 255.094,18.5357 254.5,19C 258.3,20.9789 261.634,23.4789 264.5,26.5C 258.29,22.5637 251.957,18.897 245.5,15.5 Z"/></g>
<g><path style="opacity:1" fill="#ffbe67" d="M 264.5,26.5 C 266.749,27.0798 268.415,28.4131 269.5,30.5C 267.251,29.9202 265.585,28.5869 264.5,26.5 Z"/></g>
<g><path style="opacity:1" fill="#8d652b" d="M 275.5,26.5 C 277.027,26.427 278.027,27.0937 278.5,28.5C 276.973,28.573 275.973,27.9063 275.5,26.5 Z"/></g>
<g><path style="opacity:1" fill="#946a2d" d="M 278.5,28.5 C 280.027,28.427 281.027,29.0937 281.5,30.5C 279.973,30.573 278.973,29.9063 278.5,28.5 Z"/></g>
<g><path style="opacity:1" fill="#ffbc62" d="M 270.5,31.5 C 274.833,33.8333 278.167,37.1667 280.5,41.5C 276.833,38.5 273.5,35.1667 270.5,31.5 Z"/></g>
<g><path style="opacity:1" fill="#9e7130" d="M 287.5,35.5 C 289.027,35.427 290.027,36.0937 290.5,37.5C 288.973,37.573 287.973,36.9063 287.5,35.5 Z"/></g>
<g><path style="opacity:1" fill="#0d0a07" d="M 230.5,36.5 C 241.116,35.9247 244.45,40.4247 240.5,50C 230.921,53.7355 226.421,50.5689 227,40.5C 228.376,39.2949 229.542,37.9616 230.5,36.5 Z"/></g>
<g><path style="opacity:1" fill="#ffbf6c" d="M 280.5,41.5 C 287.895,48.6123 293.562,56.9457 297.5,66.5C 292.084,58.0018 286.417,49.6684 280.5,41.5 Z"/></g>
<g><path style="opacity:0.953" fill="#f6b359" d="M 312.5,54.5 C 313.209,53.596 314.209,53.2627 315.5,53.5C 316.441,55.0495 317.107,56.7162 317.5,58.5C 316.24,56.6329 314.573,55.2995 312.5,54.5 Z"/></g>
<g><path style="opacity:1" fill="#060403" d="M 252.5,55.5 C 261.211,54.3803 265.044,58.047 264,66.5C 259.62,71.3433 254.954,71.6767 250,67.5C 247.511,62.7565 248.345,58.7565 252.5,55.5 Z"/></g>
<g><path style="opacity:0.765" fill="#ffbc5d" d="M 317.5,58.5 C 319.25,59.6594 320.25,61.326 320.5,63.5C 318.75,62.3406 317.75,60.674 317.5,58.5 Z"/></g>
<g><path style="opacity:0.974" fill="#060402" d="M 433.5,338.5 C 433.737,337.209 433.404,336.209 432.5,335.5C 432.192,333.076 432.526,330.743 433.5,328.5C 438.923,324.082 443.589,319.082 447.5,313.5C 448.906,313.027 449.573,312.027 449.5,310.5C 463.447,284.431 467.613,256.764 462,227.5C 459.634,218.43 455.467,210.43 449.5,203.5C 440.541,190.731 428.541,181.897 413.5,177C 405.958,174.531 398.291,172.531 390.5,171C 350.433,167.253 310.766,169.586 271.5,178C 248.917,184.584 232.417,198.417 222,219.5C 211.177,241.479 201.177,263.812 192,286.5C 189.695,288.93 186.862,289.93 183.5,289.5C 182.833,289.167 182.167,288.833 181.5,288.5C 177.996,284.66 177.496,280.326 180,275.5C 188.924,253.03 199.091,231.03 210.5,209.5C 211.906,209.027 212.573,208.027 212.5,206.5C 214.102,203.232 216.102,200.232 218.5,197.5C 219.906,197.027 220.573,196.027 220.5,194.5C 221.5,194.167 222.167,193.5 222.5,192.5C 223.906,192.027 224.573,191.027 224.5,189.5C 227.479,187.188 230.146,184.521 232.5,181.5C 235.766,179.714 238.766,177.714 241.5,175.5C 243.027,175.573 244.027,174.906 244.5,173.5C 248.535,170.816 252.868,168.649 257.5,167C 279.856,159.76 302.856,155.926 326.5,155.5C 328.5,155.5 330.5,155.5 332.5,155.5C 332.819,150.637 332.486,145.97 331.5,141.5C 330.507,119.039 326.507,97.2059 319.5,76C 319.685,73.6241 320.685,71.7908 322.5,70.5C 323.167,70.1667 323.833,69.8333 324.5,69.5C 327.656,68.3774 330.489,69.0441 333,71.5C 339.191,86.9295 343.191,102.93 345,119.5C 346.496,130.787 347.33,142.121 347.5,153.5C 373.591,151.808 398.924,155.308 423.5,164C 465.741,183.952 484.574,217.452 480,264.5C 477.854,287.612 470.188,308.612 457,327.5C 452.801,332.034 448.301,336.201 443.5,340C 439.928,340.847 436.594,340.347 433.5,338.5 Z"/></g>
<g><path style="opacity:1" fill="#f8b95e" d="M 320.5,63.5 C 322.316,65.1184 323.649,67.1184 324.5,69.5C 323.833,69.8333 323.167,70.1667 322.5,70.5C 322.122,68.079 321.455,65.7457 320.5,63.5 Z"/></g>
<g><path style="opacity:1" fill="#ffc06d" d="M 297.5,66.5 C 300.113,69.6448 301.779,73.3114 302.5,77.5C 300.269,74.1637 298.603,70.497 297.5,66.5 Z"/></g>
<g><path style="opacity:1" fill="#ffbe66" d="M 302.5,77.5 C 304.472,80.0836 305.472,83.0836 305.5,86.5C 303.928,83.7846 302.928,80.7846 302.5,77.5 Z"/></g>
<g><path style="opacity:1" fill="#ffc06e" d="M 305.5,86.5 C 308.757,95.106 310.757,104.106 311.5,113.5C 309.265,104.669 307.265,95.6694 305.5,86.5 Z"/></g>
<g><path style="opacity:0.863" fill="#000000" d="M 385.5,101.5 C 394.656,99.832 398.823,103.499 398,112.5C 395.459,117.069 391.625,118.569 386.5,117C 381.776,114.565 380.276,110.731 382,105.5C 382.69,103.65 383.856,102.316 385.5,101.5 Z"/></g>
<g><path style="opacity:0.859" fill="#000000" d="M 409.5,124.5 C 416.148,123.654 420.148,126.487 421.5,133C 419.703,139.736 415.369,142.069 408.5,140C 404.139,137.774 402.639,134.274 404,129.5C 405.107,126.887 406.94,125.22 409.5,124.5 Z"/></g>
<g><path style="opacity:1" fill="#080503" d="M 231.5,130.5 C 239.712,129.226 243.546,132.559 243,140.5C 240.459,145.069 236.625,146.569 231.5,145C 226.225,140.122 226.225,135.289 231.5,130.5 Z"/></g>
<g><path style="opacity:1" fill="#ffbe67" d="M 312.5,120.5 C 313.806,125.616 314.473,130.949 314.5,136.5C 304.143,137.28 293.81,138.28 283.5,139.5C 293.24,137.23 303.24,135.896 313.5,135.5C 312.947,130.518 312.613,125.518 312.5,120.5 Z"/></g>
<g><path style="opacity:1" fill="#ffbd64" d="M 283.5,139.5 C 280.411,140.785 277.078,141.451 273.5,141.5C 276.544,139.989 279.878,139.322 283.5,139.5 Z"/></g>
<g><path style="opacity:1" fill="#ffbe67" d="M 273.5,141.5 C 267.709,143.536 261.709,145.202 255.5,146.5C 261.062,143.651 267.062,141.985 273.5,141.5 Z"/></g>
<g><path style="opacity:1" fill="#ffbf6b" d="M 247.5,149.5 C 241.999,152.751 236.333,155.751 230.5,158.5C 235.409,154.21 241.076,151.21 247.5,149.5 Z"/></g>
<g><path style="opacity:1" fill="#a17330" d="M 331.5,141.5 C 332.486,145.97 332.819,150.637 332.5,155.5C 330.5,155.5 328.5,155.5 326.5,155.5C 327.919,154.549 329.585,154.216 331.5,154.5C 331.5,150.167 331.5,145.833 331.5,141.5 Z"/></g>
<g><path style="opacity:1" fill="#0e0b07" d="M 124.5,162.5 C 128.257,162.071 131.757,162.737 135,164.5C 138.07,174.101 134.57,178.267 124.5,177C 119.176,171.999 119.176,167.165 124.5,162.5 Z"/></g>
<g><path style="opacity:1" fill="#fef0d3" d="M 449.5,203.5 C 449.077,204.265 448.743,205.098 448.5,206C 455.642,228.037 455.142,249.87 447,271.5C 442.061,281.045 437.394,290.711 433,300.5C 429.211,306.623 424.378,311.79 418.5,316C 402.364,324.968 387.031,334.301 372.5,344C 363.03,352.469 353.863,361.303 345,370.5C 334.718,393.064 323.385,415.064 311,436.5C 299.646,453.19 285.146,466.357 267.5,476C 253.238,479.265 238.905,482.099 224.5,484.5C 214.187,482.898 204.021,480.565 194,477.5C 192.699,477.639 191.866,478.305 191.5,479.5C 159.916,463.673 146.75,438.007 152,402.5C 156.962,372.573 165.962,343.907 179,316.5C 180.139,312.579 179.305,309.246 176.5,306.5C 177.038,304.883 177.371,303.216 177.5,301.5C 180.01,297.813 182.01,293.813 183.5,289.5C 186.862,289.93 189.695,288.93 192,286.5C 201.177,263.812 211.177,241.479 222,219.5C 232.417,198.417 248.917,184.584 271.5,178C 310.766,169.586 350.433,167.253 390.5,171C 398.291,172.531 405.958,174.531 413.5,177C 428.541,181.897 440.541,190.731 449.5,203.5 Z"/></g>
<g><path style="opacity:1" fill="#ffbc62" d="M 230.5,158.5 C 222.56,165.103 214.893,172.103 207.5,179.5C 213.591,170.74 221.258,163.74 230.5,158.5 Z"/></g>
<g><path style="opacity:1" fill="#785625" d="M 244.5,173.5 C 244.027,174.906 243.027,175.573 241.5,175.5C 241.973,174.094 242.973,173.427 244.5,173.5 Z"/></g>
<g><path style="opacity:1" fill="#ffbf6a" d="M 207.5,179.5 C 205.984,182.533 203.984,185.2 201.5,187.5C 202.529,184.109 204.529,181.443 207.5,179.5 Z"/></g>
<g><path style="opacity:1" fill="#9c702f" d="M 224.5,189.5 C 224.573,191.027 223.906,192.027 222.5,192.5C 222.427,190.973 223.094,189.973 224.5,189.5 Z"/></g>
<g><path style="opacity:1" fill="#976c2d" d="M 220.5,194.5 C 220.573,196.027 219.906,197.027 218.5,197.5C 218.427,195.973 219.094,194.973 220.5,194.5 Z"/></g>
<g><path style="opacity:1" fill="#ffbe68" d="M 199.5,190.5 C 198,194.173 196,197.506 193.5,200.5C 194.498,196.495 196.498,193.161 199.5,190.5 Z"/></g>
<g><path style="opacity:1" fill="#f4fbf5" d="M 449.5,203.5 C 455.467,210.43 459.634,218.43 462,227.5C 467.613,256.764 463.447,284.431 449.5,310.5C 448.094,310.973 447.427,311.973 447.5,313.5C 443.589,319.082 438.923,324.082 433.5,328.5C 432.526,330.743 432.192,333.076 432.5,335.5C 432.586,336.496 432.252,337.329 431.5,338C 428.593,339.609 425.927,341.442 423.5,343.5C 421.5,344.167 419.5,344.833 417.5,345.5C 417.047,344.542 416.381,343.708 415.5,343C 412.633,342.199 409.966,342.366 407.5,343.5C 405.973,343.427 404.973,344.094 404.5,345.5C 401.669,346.079 399.336,347.412 397.5,349.5C 395.973,349.427 394.973,350.094 394.5,351.5C 392.973,351.427 391.973,352.094 391.5,353.5C 387.253,355.79 383.586,358.79 380.5,362.5C 378.596,362.738 377.262,363.738 376.5,365.5C 375.5,367.167 374.167,368.5 372.5,369.5C 370.738,370.262 369.738,371.596 369.5,373.5C 368.167,374.833 366.833,376.167 365.5,377.5C 364.094,377.973 363.427,378.973 363.5,380.5C 360.17,385.157 356.837,389.824 353.5,394.5C 352.094,394.973 351.427,395.973 351.5,397.5C 350.662,397.842 350.328,398.508 350.5,399.5C 349.094,399.973 348.427,400.973 348.5,402.5C 341.301,415.565 334.634,428.898 328.5,442.5C 327.094,442.973 326.427,443.973 326.5,445.5C 325.094,445.973 324.427,446.973 324.5,448.5C 321.893,453.434 318.56,457.767 314.5,461.5C 312.738,462.262 311.738,463.596 311.5,465.5C 309.403,468.053 307.07,470.386 304.5,472.5C 302.973,472.427 301.973,473.094 301.5,474.5C 296.455,478.757 291.121,482.757 285.5,486.5C 281.708,488.731 277.708,490.398 273.5,491.5C 271.214,491.595 269.214,492.262 267.5,493.5C 243.478,499.497 220.811,496.163 199.5,483.5C 198.817,481.824 197.483,481.157 195.5,481.5C 193.938,481.267 192.605,480.6 191.5,479.5C 191.866,478.305 192.699,477.639 194,477.5C 204.021,480.565 214.187,482.898 224.5,484.5C 238.905,482.099 253.238,479.265 267.5,476C 285.146,466.357 299.646,453.19 311,436.5C 323.385,415.064 334.718,393.064 345,370.5C 353.863,361.303 363.03,352.469 372.5,344C 387.031,334.301 402.364,324.968 418.5,316C 424.378,311.79 429.211,306.623 433,300.5C 437.394,290.711 442.061,281.045 447,271.5C 455.142,249.87 455.642,228.037 448.5,206C 448.743,205.098 449.077,204.265 449.5,203.5 Z"/></g>
<g><path style="opacity:1" fill="#0c0906" d="M 364.5,204.5 C 368.422,204.069 371.922,205.069 375,207.5C 377.335,217.166 373.502,220.999 363.5,219C 359.326,213.882 359.66,209.049 364.5,204.5 Z"/></g>
<g><path style="opacity:1" fill="#946a2d" d="M 212.5,206.5 C 212.573,208.027 211.906,209.027 210.5,209.5C 210.427,207.973 211.094,206.973 212.5,206.5 Z"/></g>
<g><path style="opacity:1" fill="#ffbe68" d="M 193.5,200.5 C 190.008,208.818 186.008,216.818 181.5,224.5C 184.459,215.914 188.459,207.914 193.5,200.5 Z"/></g>
<g><path style="opacity:1" fill="#090704" d="M 418.5,220.5 C 426.661,219.171 430.495,222.505 430,230.5C 427.459,235.069 423.625,236.569 418.5,235C 413.189,230.045 413.189,225.212 418.5,220.5 Z"/></g>
<g><path style="opacity:1" fill="#ffbe68" d="M 181.5,224.5 C 179.401,230.815 176.734,236.815 173.5,242.5C 175.211,236.018 177.878,230.018 181.5,224.5 Z"/></g>
<g><path style="opacity:1" fill="#0d0a07" d="M 262.5,237.5 C 271.211,236.38 275.044,240.047 274,248.5C 269.947,253.008 265.28,253.674 260,250.5C 257.458,245.438 258.292,241.105 262.5,237.5 Z"/></g>
<g><path style="opacity:1" fill="#ffbf6a" d="M 173.5,242.5 C 173.293,245.241 172.293,247.574 170.5,249.5C 170.707,246.759 171.707,244.426 173.5,242.5 Z"/></g>
<g><path style="opacity:1" fill="#ffbe67" d="M 170.5,249.5 C 169.597,253.889 167.931,257.889 165.5,261.5C 166.403,257.111 168.069,253.111 170.5,249.5 Z"/></g>
<g><path style="opacity:1" fill="#ffbe69" d="M 165.5,261.5 C 165.293,264.241 164.293,266.574 162.5,268.5C 162.707,265.759 163.707,263.426 165.5,261.5 Z"/></g>
<g><path style="opacity:1" fill="#0b0805" d="M 95.5,274.5 C 103.712,273.226 107.546,276.559 107,284.5C 105.471,287.934 102.804,289.6 99,289.5C 92.4353,288.729 90.102,285.062 92,278.5C 93.1022,277.051 94.2689,275.718 95.5,274.5 Z"/></g>
<g><path style="opacity:1" fill="#ffbe69" d="M 162.5,268.5 C 160.627,275.236 157.961,281.57 154.5,287.5C 156.373,280.764 159.039,274.43 162.5,268.5 Z"/></g>
<g><path style="opacity:1" fill="#febf6b" d="M 181.5,288.5 C 182.167,288.833 182.833,289.167 183.5,289.5C 182.01,293.813 180.01,297.813 177.5,301.5C 179.114,297.268 180.447,292.934 181.5,288.5 Z"/></g>
<g><path style="opacity:1" fill="#ffbf69" d="M 154.5,287.5 C 151.959,295.575 148.626,303.241 144.5,310.5C 147.041,302.425 150.374,294.759 154.5,287.5 Z"/></g>
<g><path style="opacity:1" fill="#b78641" d="M 177.5,301.5 C 177.371,303.216 177.038,304.883 176.5,306.5C 174.167,306.5 171.833,306.5 169.5,306.5C 171.369,305.835 173.369,305.169 175.5,304.5C 175.942,303.261 176.609,302.261 177.5,301.5 Z"/></g>
<g><path style="opacity:1" fill="#0a0705" d="M 344.5,306.5 C 351.269,304.687 355.602,307.021 357.5,313.5C 355.593,320.139 351.259,322.306 344.5,320C 339.193,315.375 339.193,310.875 344.5,306.5 Z"/></g>
<g><path style="opacity:1" fill="#8b632a" d="M 449.5,310.5 C 449.573,312.027 448.906,313.027 447.5,313.5C 447.427,311.973 448.094,310.973 449.5,310.5 Z"/></g>
<g><path style="opacity:1" fill="#ffbf6b" d="M 144.5,310.5 C 144.293,313.241 143.293,315.574 141.5,317.5C 141.707,314.759 142.707,312.426 144.5,310.5 Z"/></g>
<g><path style="opacity:1" fill="#0d0a07" d="M 323.5,321.5 C 330.88,321.05 334.38,324.384 334,331.5C 333.215,333.286 332.049,334.786 330.5,336C 327.5,336.667 324.5,336.667 321.5,336C 315.947,330.366 316.613,325.533 323.5,321.5 Z"/></g>
<g><path style="opacity:1" fill="#ffbf6b" d="M 139.5,322.5 C 138.737,326.137 137.403,329.47 135.5,332.5C 135.872,328.703 137.206,325.37 139.5,322.5 Z"/></g>
<g><path style="opacity:0.463" fill="#fabb5d" d="M 432.5,335.5 C 433.404,336.209 433.737,337.209 433.5,338.5C 430.45,340.692 427.117,342.358 423.5,343.5C 425.927,341.442 428.593,339.609 431.5,338C 432.252,337.329 432.586,336.496 432.5,335.5 Z"/></g>
<g><path style="opacity:1" fill="#ffbf6a" d="M 135.5,332.5 C 135.267,335.542 134.267,338.208 132.5,340.5C 132.733,337.458 133.733,334.792 135.5,332.5 Z"/></g>
<g><path style="opacity:1" fill="#785625" d="M 407.5,343.5 C 407.027,344.906 406.027,345.573 404.5,345.5C 404.973,344.094 405.973,343.427 407.5,343.5 Z"/></g>
<g><path style="opacity:0.612" fill="#fab962" d="M 423.5,343.5 C 422.564,344.974 421.23,345.974 419.5,346.5C 418.508,346.672 417.842,346.338 417.5,345.5C 419.5,344.833 421.5,344.167 423.5,343.5 Z"/></g>
<g><path style="opacity:1" fill="#92682c" d="M 151.5,344.5 C 151.38,345.586 150.713,346.253 149.5,346.5C 148.584,346.457 147.917,346.124 147.5,345.5C 148.959,345.567 150.292,345.234 151.5,344.5 Z"/></g>
<g><path style="opacity:1" fill="#845e28" d="M 397.5,349.5 C 397.027,350.906 396.027,351.573 394.5,351.5C 394.973,350.094 395.973,349.427 397.5,349.5 Z"/></g>
<g><path style="opacity:1" fill="#886129" d="M 394.5,351.5 C 394.027,352.906 393.027,353.573 391.5,353.5C 391.973,352.094 392.973,351.427 394.5,351.5 Z"/></g>
<g><path style="opacity:0.867" fill="#000000" d="M 60.5,361.5 C 70.7887,359.367 74.9554,363.367 73,373.5C 68.3154,378.447 63.3154,378.78 58,374.5C 55.4582,369.438 56.2915,365.105 60.5,361.5 Z"/></g>
<g><path style="opacity:1" fill="#90672b" d="M 380.5,362.5 C 379.738,364.262 378.404,365.262 376.5,365.5C 377.262,363.738 378.596,362.738 380.5,362.5 Z"/></g>
<g><path style="opacity:1" fill="#8d652a" d="M 372.5,369.5 C 372.262,371.404 371.262,372.738 369.5,373.5C 369.738,371.596 370.738,370.262 372.5,369.5 Z"/></g>
<g><path style="opacity:1" fill="#93692c" d="M 365.5,377.5 C 365.573,379.027 364.906,380.027 363.5,380.5C 363.427,378.973 364.094,377.973 365.5,377.5 Z"/></g>
<g><path style="opacity:1" fill="#9e7130" d="M 353.5,394.5 C 353.573,396.027 352.906,397.027 351.5,397.5C 351.427,395.973 352.094,394.973 353.5,394.5 Z"/></g>
<g><path style="opacity:1" fill="#976c2e" d="M 350.5,399.5 C 350.573,401.027 349.906,402.027 348.5,402.5C 348.427,400.973 349.094,399.973 350.5,399.5 Z"/></g>
<g><path style="opacity:1" fill="#100c08" d="M 274.5,427.5 C 279.447,426.628 283.613,427.961 287,431.5C 288.032,438.426 285.032,442.093 278,442.5C 269.542,439.396 268.376,434.396 274.5,427.5 Z"/></g>
<g><path style="opacity:1" fill="#90672c" d="M 328.5,442.5 C 328.573,444.027 327.906,445.027 326.5,445.5C 326.427,443.973 327.094,442.973 328.5,442.5 Z"/></g>
<g><path style="opacity:1" fill="#a47531" d="M 326.5,445.5 C 326.573,447.027 325.906,448.027 324.5,448.5C 324.427,446.973 325.094,445.973 326.5,445.5 Z"/></g>
<g><path style="opacity:1" fill="#91682c" d="M 314.5,461.5 C 314.262,463.404 313.262,464.738 311.5,465.5C 311.738,463.596 312.738,462.262 314.5,461.5 Z"/></g>
<g><path style="opacity:1" fill="#876029" d="M 304.5,472.5 C 304.027,473.906 303.027,474.573 301.5,474.5C 301.973,473.094 302.973,472.427 304.5,472.5 Z"/></g>
<g><path style="opacity:1" fill="#eba847" d="M 195.5,481.5 C 197.483,481.157 198.817,481.824 199.5,483.5C 197.847,483.34 196.514,482.674 195.5,481.5 Z"/></g>
<g><path style="opacity:1" fill="#7c5928" d="M 273.5,491.5 C 271.898,493.074 269.898,493.741 267.5,493.5C 269.214,492.262 271.214,491.595 273.5,491.5 Z"/></g>
</svg>
