<?xml version="1.0" encoding="UTF-8"?>
<!DOCTYPE svg PUBLIC "-//W3C//DTD SVG 1.1//EN" "http://www.w3.org/Graphics/SVG/1.1/DTD/svg11.dtd">
<svg xmlns="http://www.w3.org/2000/svg" version="1.1" width="512px" height="512px" style="shape-rendering:geometricPrecision; text-rendering:geometricPrecision; image-rendering:optimizeQuality; fill-rule:evenodd; clip-rule:evenodd" xmlns:xlink="http://www.w3.org/1999/xlink">
<g><path style="opacity:0.98" fill="#000000" d="M 205.5,55.5 C 241.528,55.0536 277.528,55.5536 313.5,57C 386.842,71.6754 433.008,115.175 452,187.5C 454.939,202.019 456.105,216.686 455.5,231.5C 322.167,231.5 188.833,231.5 55.5,231.5C 54.8995,162.174 84.2329,110.007 143.5,75C 163.179,64.938 183.846,58.438 205.5,55.5 Z"/></g>
<g><path style="opacity:1" fill="#fece82" d="M 207.5,71.5 C 239.168,71.3334 270.835,71.5 302.5,72C 359.51,79.5721 400.677,109.072 426,160.5C 433.994,177.968 438.494,196.301 439.5,215.5C 316.833,215.5 194.167,215.5 71.5,215.5C 78.4983,147.337 114.165,101.504 178.5,78C 188.19,75.3241 197.857,73.1574 207.5,71.5 Z"/></g>
<g><path style="opacity:1" fill="#ffe8c2" d="M 172.5,95.5 C 180.678,94.8424 184.178,98.5091 183,106.5C 179.108,112.259 174.441,112.926 169,108.5C 166.325,103.011 167.492,98.6776 172.5,95.5 Z"/></g>
<g><path style="opacity:1" fill="#ffe9c3" d="M 145.5,111.5 C 154.207,111.037 157.707,115.037 156,123.5C 139.605,135.556 126.439,150.389 116.5,168C 107.42,171.215 103.253,168.048 104,158.5C 114.868,140.137 128.702,124.47 145.5,111.5 Z"/></g>
<g><path style="opacity:1" fill="#ddac6c" d="M 389.5,140.5 C 391.655,140.372 393.655,140.872 395.5,142C 407.217,156.435 415.217,172.768 419.5,191C 419.624,195.352 417.624,198.018 413.5,199C 393.744,199.975 374.077,199.642 354.5,198C 349.998,192.522 350.665,187.855 356.5,184C 371.178,183.833 385.845,183.333 400.5,182.5C 396.033,171.564 390.533,161.23 384,151.5C 383.333,149.5 383.333,147.5 384,145.5C 385.73,143.598 387.563,141.931 389.5,140.5 Z"/></g>
<g><path style="opacity:0.993" fill="#000000" d="M 55.5,375.5 C 188.833,375.5 322.167,375.5 455.5,375.5C 455.667,387.171 455.5,398.838 455,410.5C 449.5,434.667 434.667,449.5 410.5,455C 307.167,455.667 203.833,455.667 100.5,455C 76.3333,449.5 61.5,434.667 56,410.5C 55.5001,398.838 55.3335,387.171 55.5,375.5 Z"/></g>
<g><path style="opacity:1" fill="#fece82" d="M 71.5,391.5 C 194.167,391.5 316.833,391.5 439.5,391.5C 441.31,415.839 430.644,431.673 407.5,439C 356.833,439.167 306.167,439.333 255.5,439.5C 203.456,439.658 151.456,439.158 99.5,438C 79.0656,429.313 69.7322,413.813 71.5,391.5 Z"/></g>
<g><path style="opacity:1" fill="#ddac6c" d="M 324.5,407.5 C 352.835,407.333 381.169,407.5 409.5,408C 415.462,410.405 416.962,414.571 414,420.5C 412.829,421.893 411.329,422.727 409.5,423C 381.167,423.667 352.833,423.667 324.5,423C 317.889,417.798 317.889,412.631 324.5,407.5 Z"/></g>
</svg>
