<?xml version="1.0" encoding="UTF-8"?>
<!DOCTYPE svg PUBLIC "-//W3C//DTD SVG 1.1//EN" "http://www.w3.org/Graphics/SVG/1.1/DTD/svg11.dtd">
<svg xmlns="http://www.w3.org/2000/svg" version="1.1" width="512px" height="512px" style="shape-rendering:geometricPrecision; text-rendering:geometricPrecision; image-rendering:optimizeQuality; fill-rule:evenodd; clip-rule:evenodd" xmlns:xlink="http://www.w3.org/1999/xlink">
<g><path style="opacity:0.971" fill="#010101" d="M 422.5,218.5 C 418.091,219.382 414.591,218.048 412,214.5C 408.438,204.274 401.271,198.441 390.5,197C 386.848,196.501 383.182,196.335 379.5,196.5C 370.407,196.199 362.074,198.532 354.5,203.5C 376.892,216.959 385.726,236.626 381,262.5C 379.371,269.562 376.871,276.228 373.5,282.5C 394.996,283.663 416.663,283.829 438.5,283C 448.876,267.172 447.71,252.339 435,238.5C 434.444,236.115 434.61,233.782 435.5,231.5C 439.01,228.167 443.01,227.667 447.5,230C 461.79,244.953 465.123,262.119 457.5,281.5C 471.822,282.333 486.155,282.833 500.5,283C 505.212,284.553 508.879,287.386 511.5,291.5C 511.5,295.167 511.5,298.833 511.5,302.5C 510.217,304.868 508.55,307.035 506.5,309C 479.657,323.255 452.657,337.255 425.5,351C 406.261,359.143 386.261,364.476 365.5,367C 329.019,368.129 292.519,368.629 256,368.5C 219.149,368.626 182.315,368.126 145.5,367C 125.515,364.504 106.182,359.504 87.5,352C 83.6756,349.351 82.3423,345.851 83.5,341.5C 86.2054,337.83 89.8721,336.663 94.5,338C 115.333,346.625 136.999,351.625 159.5,353C 224.512,353.805 289.512,353.638 354.5,352.5C 374.759,350.686 394.426,346.186 413.5,339C 439.651,326.091 465.651,312.925 491.5,299.5C 492.289,299.217 492.956,298.717 493.5,298C 334.833,297.333 176.167,297.333 17.5,298C 18.0442,298.717 18.7109,299.217 19.5,299.5C 34.4732,307.321 49.4732,315.154 64.5,323C 67.5415,326.041 68.2082,329.541 66.5,333.5C 65.9423,334.79 64.9423,335.623 63.5,336C 60.8333,336.667 58.1667,336.667 55.5,336C 38.6583,326.745 21.6583,317.745 4.5,309C 2.44965,307.035 0.782988,304.868 -0.5,302.5C -0.5,298.833 -0.5,295.167 -0.5,291.5C 2.12126,287.386 5.78792,284.553 10.5,283C 29.1667,282.667 47.8333,282.333 66.5,282C 61.2511,255.506 71.2511,237.172 96.5,227C 103.127,218.704 110.127,210.704 117.5,203C 139.324,188.37 161.991,186.87 185.5,198.5C 190.725,195.78 195.225,192.113 199,187.5C 212.22,162.98 232.72,148.48 260.5,144C 278.96,140.542 296.627,142.876 313.5,151C 318.923,154.419 323.756,158.585 328,163.5C 332.859,173.08 337.526,182.747 342,192.5C 364.884,178.129 388.384,176.963 412.5,189C 420.395,194.238 425.062,201.571 426.5,211C 426.57,214.366 425.237,216.866 422.5,218.5 Z"/></g>
<g><path style="opacity:1" fill="#febc85" d="M 269.5,158.5 C 280.642,157.781 288.809,162.448 294,172.5C 296.922,178.264 299.255,184.264 301,190.5C 307.005,201.504 315.838,209.337 327.5,214C 342.14,226.584 347.64,242.417 344,261.5C 341.904,269.022 338.738,276.022 334.5,282.5C 298.151,283.16 262.151,282.494 226.5,280.5C 232.315,262.741 228.315,247.575 214.5,235C 203.35,230.509 197.183,222.342 196,210.5C 207.461,202.903 216.128,192.903 222,180.5C 235.223,167.64 251.057,160.306 269.5,158.5 Z"/></g>
<g><path style="opacity:1" fill="#f2a66a" d="M 269.5,158.5 C 283.765,156.285 297.098,159.118 309.5,167C 316.442,173.379 320.942,181.212 323,190.5C 329.228,205.062 339.728,215.228 354.5,221C 368.019,234.285 371.185,249.785 364,267.5C 361.808,273.241 358.641,278.241 354.5,282.5C 347.833,282.5 341.167,282.5 334.5,282.5C 338.738,276.022 341.904,269.022 344,261.5C 347.64,242.417 342.14,226.584 327.5,214C 315.838,209.337 307.005,201.504 301,190.5C 299.255,184.264 296.922,178.264 294,172.5C 288.809,162.448 280.642,157.781 269.5,158.5 Z"/></g>
<g><path style="opacity:1" fill="#0b0805" d="M 286.5,192.5 C 292.243,191.803 297.076,193.47 301,197.5C 302.439,203.629 300.106,207.296 294,208.5C 290.345,207.949 287.011,206.615 284,204.5C 281.523,199.669 282.356,195.669 286.5,192.5 Z"/></g>
<g><path style="opacity:1" fill="#fcba84" d="M 379.5,196.5 C 383.169,199.841 385.836,203.841 387.5,208.5C 384.168,213.493 383.668,218.826 386,224.5C 389.303,226.744 392.803,227.077 396.5,225.5C 400.234,229.88 404.901,233.047 410.5,235C 424.703,248.403 427.369,263.903 418.5,281.5C 403.515,282.499 388.515,282.833 373.5,282.5C 376.871,276.228 379.371,269.562 381,262.5C 385.726,236.626 376.892,216.959 354.5,203.5C 362.074,198.532 370.407,196.199 379.5,196.5 Z"/></g>
<g><path style="opacity:1" fill="#f0a569" d="M 379.5,196.5 C 383.182,196.335 386.848,196.501 390.5,197C 401.271,198.441 408.438,204.274 412,214.5C 414.591,218.048 418.091,219.382 422.5,218.5C 425.167,224.5 429.5,228.833 435.5,231.5C 434.61,233.782 434.444,236.115 435,238.5C 447.71,252.339 448.876,267.172 438.5,283C 416.663,283.829 394.996,283.663 373.5,282.5C 388.515,282.833 403.515,282.499 418.5,281.5C 427.369,263.903 424.703,248.403 410.5,235C 404.901,233.047 400.234,229.88 396.5,225.5C 398.927,221.191 399.76,216.524 399,211.5C 395.809,207.935 391.976,206.935 387.5,208.5C 385.836,203.841 383.169,199.841 379.5,196.5 Z"/></g>
<g><path style="opacity:1" fill="#fdbb85" d="M 152.5,206.5 C 157.383,211.596 160.717,217.596 162.5,224.5C 155.326,223.519 151.826,226.519 152,233.5C 152.73,239.008 155.73,242.341 161,243.5C 166.634,242.58 169.134,239.247 168.5,233.5C 174.236,237.124 179.736,241.124 185,245.5C 192.7,256.966 193.533,268.966 187.5,281.5C 152.84,282.5 118.173,282.833 83.5,282.5C 76.6725,268.76 79.3392,256.927 91.5,247C 104.151,242.339 113.651,234.172 120,222.5C 128.523,212.489 139.356,207.155 152.5,206.5 Z"/></g>
<g><path style="opacity:1" fill="#eba268" d="M 152.5,206.5 C 162.042,205.294 170.708,207.461 178.5,213C 182.33,220.482 186.163,227.982 190,235.5C 197,241.167 204,246.833 211,252.5C 216.346,263.389 215.179,273.556 207.5,283C 165.998,283.831 124.665,283.665 83.5,282.5C 118.173,282.833 152.84,282.5 187.5,281.5C 193.533,268.966 192.7,256.966 185,245.5C 179.736,241.124 174.236,237.124 168.5,233.5C 167.217,229.909 165.217,226.909 162.5,224.5C 160.717,217.596 157.383,211.596 152.5,206.5 Z"/></g>
<g><path style="opacity:1" fill="#0d0906" d="M 238.5,207.5 C 245.216,207.375 249.049,210.709 250,217.5C 250.753,221.493 249.253,224.326 245.5,226C 240.232,227.45 236.732,225.617 235,220.5C 232.325,215.011 233.492,210.678 238.5,207.5 Z"/></g>
<g><path style="opacity:1" fill="#070503" d="M 396.5,225.5 C 392.803,227.077 389.303,226.744 386,224.5C 383.668,218.826 384.168,213.493 387.5,208.5C 391.976,206.935 395.809,207.935 399,211.5C 399.76,216.524 398.927,221.191 396.5,225.5 Z"/></g>
<g><path style="opacity:1" fill="#0e0a07" d="M 162.5,224.5 C 165.217,226.909 167.217,229.909 168.5,233.5C 169.134,239.247 166.634,242.58 161,243.5C 155.73,242.341 152.73,239.008 152,233.5C 151.826,226.519 155.326,223.519 162.5,224.5 Z"/></g>
<g><path style="opacity:1" fill="#0c0906" d="M 128.5,249.5 C 138.615,250.111 141.115,254.778 136,263.5C 132.95,267.13 129.117,268.297 124.5,267C 119.949,263.26 119.449,259.093 123,254.5C 124.812,252.7 126.645,251.033 128.5,249.5 Z"/></g>
<g><path style="opacity:1" fill="#090604" d="M 405.5,249.5 C 410.877,249.676 415.377,251.676 419,255.5C 419.452,263.708 415.619,266.875 407.5,265C 401.493,263.328 399.327,259.495 401,253.5C 402.397,251.93 403.897,250.596 405.5,249.5 Z"/></g>
<g><path style="opacity:1" fill="#0b0705" d="M 300.5,251.5 C 309.06,250.877 312.227,254.544 310,262.5C 307.455,266.059 304.121,268.392 300,269.5C 293.46,267.215 291.794,262.882 295,256.5C 296.73,254.598 298.563,252.931 300.5,251.5 Z"/></g>
<g><path style="opacity:1" fill="#876345" d="M 226.5,280.5 C 262.151,282.494 298.151,283.16 334.5,282.5C 341.167,282.5 347.833,282.5 354.5,282.5C 311.67,283.499 268.67,283.832 225.5,283.5C 225.263,282.209 225.596,281.209 226.5,280.5 Z"/></g>
<g><path style="opacity:1" fill="#646d76" d="M 491.5,299.5 C 480.679,298.505 469.679,298.172 458.5,298.5C 311.999,298.167 165.666,298.5 19.5,299.5C 18.7109,299.217 18.0442,298.717 17.5,298C 176.167,297.333 334.833,297.333 493.5,298C 492.956,298.717 492.289,299.217 491.5,299.5 Z"/></g>
<g><path style="opacity:1" fill="#d6eafc" d="M 19.5,299.5 C 165.666,298.5 311.999,298.167 458.5,298.5C 457.883,300.229 456.883,301.729 455.5,303C 434.342,313.745 413.342,324.745 392.5,336C 380.084,342.382 367.417,347.882 354.5,352.5C 289.512,353.638 224.512,353.805 159.5,353C 136.999,351.625 115.333,346.625 94.5,338C 89.8721,336.663 86.2054,337.83 83.5,341.5C 77.6818,339.09 72.0151,336.423 66.5,333.5C 68.2082,329.541 67.5415,326.041 64.5,323C 49.4732,315.154 34.4732,307.321 19.5,299.5 Z"/></g>
<g><path style="opacity:1" fill="#c1dffb" d="M 458.5,298.5 C 469.679,298.172 480.679,298.505 491.5,299.5C 465.651,312.925 439.651,326.091 413.5,339C 394.426,346.186 374.759,350.686 354.5,352.5C 367.417,347.882 380.084,342.382 392.5,336C 413.342,324.745 434.342,313.745 455.5,303C 456.883,301.729 457.883,300.229 458.5,298.5 Z"/></g>
</svg>
