<?xml version="1.0" encoding="UTF-8"?>
<!DOCTYPE svg PUBLIC "-//W3C//DTD SVG 1.1//EN" "http://www.w3.org/Graphics/SVG/1.1/DTD/svg11.dtd">
<svg xmlns="http://www.w3.org/2000/svg" version="1.1" width="512px" height="512px" style="shape-rendering:geometricPrecision; text-rendering:geometricPrecision; image-rendering:optimizeQuality; fill-rule:evenodd; clip-rule:evenodd" xmlns:xlink="http://www.w3.org/1999/xlink">
<g><path style="opacity:0.975" fill="#020100" d="M 511.5,268.5 C 511.5,300.167 511.5,331.833 511.5,363.5C 501.923,410.242 473.59,438.075 426.5,447C 312.5,447.667 198.5,447.667 84.5,447C 37.4101,438.075 9.07674,410.242 -0.5,363.5C -0.5,331.833 -0.5,300.167 -0.5,268.5C 11.7039,177.467 60.0372,113.967 144.5,78C 180.463,64.6037 217.463,60.4371 255.5,65.5C 342.13,56.7481 412.63,86.0814 467,153.5C 491.97,187.909 506.803,226.242 511.5,268.5 Z"/></g>
<g><path style="opacity:1" fill="#fec34e" d="M 389.5,106.5 C 438.522,147.557 466.355,200.223 473,264.5C 473.667,296.833 473.667,329.167 473,361.5C 467.855,393.449 451.021,416.782 422.5,431.5C 310.873,432.662 199.207,432.829 87.5,432C 58.035,427.279 36.3683,411.779 22.5,385.5C 25.1566,384.985 27.8233,385.485 30.5,387C 51.6603,388.51 65.8269,379.343 73,359.5C 74.2439,355.221 74.5772,350.888 74,346.5C 72.4293,344.077 70.2626,342.744 67.5,342.5C 67.5,337.5 67.5,332.5 67.5,327.5C 70.852,326.747 73.0187,324.747 74,321.5C 68.2742,258.018 85.2742,201.685 125,152.5C 180.102,92.4651 247.935,69.2985 328.5,83C 350.104,87.8077 370.437,95.641 389.5,106.5 Z"/></g>
<g><path style="opacity:1" fill="#fce9c2" d="M 67.5,327.5 C 67.5,332.5 67.5,337.5 67.5,342.5C 64.2155,342.269 61.7155,343.603 60,346.5C 59.1111,364.059 49.9445,372.559 32.5,372C 23.7372,369.57 17.9038,364.07 15,355.5C 14.3333,327.167 14.3333,298.833 15,270.5C 24.0187,198.216 59.5187,143.383 121.5,106C 145.551,92.4268 171.218,84.0935 198.5,81C 123.012,115.099 77.5119,172.932 62,254.5C 59.5612,276.769 58.8945,299.102 60,321.5C 60.8635,325.518 63.3635,327.518 67.5,327.5 Z"/></g>
<g><path style="opacity:1" fill="#f8a53e" d="M 389.5,106.5 C 452.064,143.649 487.564,198.649 496,271.5C 496.667,301.167 496.667,330.833 496,360.5C 488.004,401.33 463.504,424.997 422.5,431.5C 451.021,416.782 467.855,393.449 473,361.5C 473.667,329.167 473.667,296.833 473,264.5C 466.355,200.223 438.522,147.557 389.5,106.5 Z"/></g>
<g><path style="opacity:1" fill="#f68a2f" d="M 282.5,123.5 C 286.426,123.047 289.592,124.38 292,127.5C 292.667,212.833 292.667,298.167 292,383.5C 287.667,388.833 283.333,388.833 279,383.5C 278.333,298.167 278.333,212.833 279,127.5C 280.376,126.295 281.542,124.962 282.5,123.5 Z"/></g>
<g><path style="opacity:1" fill="#f68a2f" d="M 222.5,135.5 C 226.462,135.067 229.628,136.4 232,139.5C 232.667,220.833 232.667,302.167 232,383.5C 227.667,388.833 223.333,388.833 219,383.5C 218.333,302.167 218.333,220.833 219,139.5C 220.102,138.051 221.269,136.718 222.5,135.5 Z"/></g>
<g><path style="opacity:1" fill="#f68a2f" d="M 342.5,135.5 C 346.462,135.067 349.628,136.4 352,139.5C 352.667,200.833 352.667,262.167 352,323.5C 347.667,328.833 343.333,328.833 339,323.5C 338.333,262.167 338.333,200.833 339,139.5C 340.102,138.051 341.269,136.718 342.5,135.5 Z"/></g>
<g><path style="opacity:1" fill="#f68a2f" d="M 162.5,178.5 C 166.426,178.047 169.592,179.38 172,182.5C 172.667,249.5 172.667,316.5 172,383.5C 167.667,388.833 163.333,388.833 159,383.5C 158.333,316.5 158.333,249.5 159,182.5C 160.376,181.295 161.542,179.962 162.5,178.5 Z"/></g>
<g><path style="opacity:1" fill="#f68a2f" d="M 402.5,178.5 C 406.426,178.047 409.592,179.38 412,182.5C 412.667,249.5 412.667,316.5 412,383.5C 407.667,388.833 403.333,388.833 399,383.5C 398.333,316.5 398.333,249.5 399,182.5C 400.376,181.295 401.542,179.962 402.5,178.5 Z"/></g>
<g><path style="opacity:1" fill="#f68a2f" d="M 342.5,342.5 C 346.684,341.704 349.85,343.037 352,346.5C 352.667,358.833 352.667,371.167 352,383.5C 347.667,388.833 343.333,388.833 339,383.5C 338.333,371.167 338.333,358.833 339,346.5C 339.69,344.65 340.856,343.316 342.5,342.5 Z"/></g>
</svg>
