<?xml version="1.0" encoding="UTF-8"?>
<!DOCTYPE svg PUBLIC "-//W3C//DTD SVG 1.1//EN" "http://www.w3.org/Graphics/SVG/1.1/DTD/svg11.dtd">
<svg xmlns="http://www.w3.org/2000/svg" version="1.1" width="512px" height="512px" style="shape-rendering:geometricPrecision; text-rendering:geometricPrecision; image-rendering:optimizeQuality; fill-rule:evenodd; clip-rule:evenodd" xmlns:xlink="http://www.w3.org/1999/xlink">
<g><path style="opacity:1" fill="#000000" d="M 79.5,15.5 C 196.833,15.5 314.167,15.5 431.5,15.5C 435.82,16.3228 438.32,18.9895 439,23.5C 441.871,38.6975 445.038,53.6975 448.5,68.5C 450.462,75.5959 451.796,82.9293 452.5,90.5C 454.98,109.047 457.98,127.381 461.5,145.5C 462.895,149.591 463.562,153.924 463.5,158.5C 463.532,163.391 464.199,168.057 465.5,172.5C 465.444,177.731 466.111,182.731 467.5,187.5C 467.444,192.731 468.111,197.731 469.5,202.5C 469.779,211.057 470.779,219.391 472.5,227.5C 472.523,233.712 473.19,239.712 474.5,245.5C 474.854,255.707 475.854,265.707 477.5,275.5C 478.482,278.962 478.815,282.629 478.5,286.5C 478.725,292.855 478.892,299.188 479,305.5C 477.299,309.875 474.133,311.542 469.5,310.5C 466.812,309.976 465.312,308.309 465,305.5C 459.21,239.512 450.876,173.845 440,108.5C 439.333,212.833 439.333,317.167 440,421.5C 449.697,434.684 459.53,447.684 469.5,460.5C 469.461,461.756 469.961,462.756 471,463.5C 471.827,449.994 471.66,436.66 470.5,423.5C 470.3,393.943 468.967,364.443 466.5,335C 467.406,330.593 470.073,328.093 474.5,327.5C 474.833,327.5 475.167,327.5 475.5,327.5C 479.884,329.24 482.05,332.574 482,337.5C 483.026,355.999 484.193,374.333 485.5,392.5C 486.494,401.652 486.827,410.985 486.5,420.5C 486.667,443.836 486.5,467.169 486,490.5C 484.437,493.023 482.27,494.69 479.5,495.5C 330.167,495.5 180.833,495.5 31.5,495.5C 29.9812,494.59 28.3146,493.757 26.5,493C 25.3913,491.124 24.3913,489.291 23.5,487.5C 23.1137,455.649 23.7804,423.983 25.5,392.5C 26.7299,379.683 27.3966,366.683 27.5,353.5C 27.4702,342.971 28.1369,332.638 29.5,322.5C 31.6339,303.353 33.3005,284.02 34.5,264.5C 34.1872,260.958 34.5206,257.625 35.5,254.5C 37.4765,242.712 38.8099,230.712 39.5,218.5C 41.1396,210.717 42.1396,202.717 42.5,194.5C 43.889,189.731 44.5557,184.731 44.5,179.5C 46.4681,170.39 47.8014,161.057 48.5,151.5C 50.7943,141.06 52.4609,130.393 53.5,119.5C 53.8451,113.155 57.1785,109.822 63.5,109.5C 67.5277,110.164 69.5277,112.497 69.5,116.5C 49.6232,236.688 39.6232,357.688 39.5,479.5C 151.833,479.5 264.167,479.5 376.5,479.5C 376.405,444.817 377.072,410.15 378.5,375.5C 383.588,287.372 392.922,199.705 406.5,112.5C 411.311,88.8212 415.978,64.9879 420.5,41C 420.167,40.1667 419.833,39.3333 419.5,38.5C 409.143,46.3776 403.81,56.8776 403.5,70C 405.12,76.7581 405.953,83.5914 406,90.5C 404.934,93.5631 402.767,95.0631 399.5,95C 288.167,95.5 176.834,95.6667 65.5,95.5C 59.5,95.5 53.5,95.5 47.5,95.5C 45.7095,94.6087 43.8761,93.6087 42,92.5C 34.8842,77.258 34.7175,61.9246 41.5,46.5C 41.9977,43.6737 43.3311,41.3403 45.5,39.5C 49.1384,35.5259 52.8051,31.5259 56.5,27.5C 57.2623,25.7376 58.5956,24.7376 60.5,24.5C 67.0236,21.7365 73.357,18.7365 79.5,15.5 Z"/></g>
<g><path style="opacity:0.996" fill="#464a50" d="M 79.5,15.5 C 73.357,18.7365 67.0236,21.7365 60.5,24.5C 66.1543,20.1739 72.4877,17.1739 79.5,15.5 Z"/></g>
<g><path style="opacity:0.867" fill="#474b52" d="M 56.5,27.5 C 52.8051,31.5259 49.1384,35.5259 45.5,39.5C 47.7774,34.2227 51.4441,30.2227 56.5,27.5 Z"/></g>
<g><path style="opacity:1" fill="#cfd7d9" d="M 85.5,31.5 C 86.0754,47.5842 94.0754,58.0842 109.5,63C 202.499,63.5 295.499,63.6667 388.5,63.5C 388.324,68.8797 388.658,74.213 389.5,79.5C 277.167,79.5 164.833,79.5 52.5,79.5C 49.0245,56.9468 57.6912,41.1135 78.5,32C 80.8098,31.5034 83.1432,31.3367 85.5,31.5 Z"/></g>
<g><path style="opacity:1" fill="#e8f0f1" d="M 85.5,31.5 C 191.501,31.3333 297.501,31.5 403.5,32C 395.095,40.9732 390.095,51.4732 388.5,63.5C 295.499,63.6667 202.499,63.5 109.5,63C 94.0754,58.0842 86.0754,47.5842 85.5,31.5 Z"/></g>
<g><path style="opacity:1" fill="#b6bcbd" d="M 406.5,112.5 C 324.002,111.501 241.335,111.167 158.5,111.5C 158.5,114.167 158.5,116.833 158.5,119.5C 149.432,119.119 140.432,119.619 131.5,121C 128.651,123.559 127.817,126.726 129,130.5C 129.5,132.333 130.667,133.5 132.5,134C 139.746,135.391 147.079,135.891 154.5,135.5C 154.16,140.89 153.493,146.223 152.5,151.5C 145.426,151.161 138.426,151.661 131.5,153C 128.114,156.373 127.614,160.206 130,164.5C 130.75,165.126 131.584,165.626 132.5,166C 138.407,167.361 144.407,167.861 150.5,167.5C 149.6,172.772 149.267,178.105 149.5,183.5C 155.69,183.177 161.69,183.51 167.5,184.5C 140.701,182.488 117.368,190.321 97.5,208C 82.7661,224.708 81.2661,242.541 93,261.5C 99.0149,267.348 104.848,273.348 110.5,279.5C 87.1205,284.209 76.9538,298.543 80,322.5C 82.4549,330.622 87.4549,336.622 95,340.5C 95.3333,376.167 95.6667,411.833 96,447.5C 97.7673,454.336 101.934,456.169 108.5,453C 109.609,451.124 110.609,449.291 111.5,447.5C 116.833,447.5 122.167,447.5 127.5,447.5C 128.327,452.004 130.993,454.504 135.5,455C 172.833,455.667 210.167,455.667 247.5,455C 252,454.5 254.5,452 255,447.5C 255.5,436.505 255.667,425.505 255.5,414.5C 260.167,418.833 264.833,423.167 269.5,427.5C 267.346,430.763 267.179,434.096 269,437.5C 275.261,445.208 282.761,451.375 291.5,456C 312.846,461.327 329.679,454.827 342,436.5C 354.827,418.195 360.327,397.861 358.5,375.5C 365.167,375.5 371.833,375.5 378.5,375.5C 377.072,410.15 376.405,444.817 376.5,479.5C 264.167,479.5 151.833,479.5 39.5,479.5C 39.6232,357.688 49.6232,236.688 69.5,116.5C 69.5277,112.497 67.5277,110.164 63.5,109.5C 63.5,108.833 63.1667,108.5 62.5,108.5C 63.6073,104.189 64.6073,99.8555 65.5,95.5C 176.834,95.6667 288.167,95.5 399.5,95C 402.767,95.0631 404.934,93.5631 406,90.5C 405.953,83.5914 405.12,76.7581 403.5,70C 403.81,56.8776 409.143,46.3776 419.5,38.5C 419.833,39.3333 420.167,40.1667 420.5,41C 415.978,64.9879 411.311,88.8212 406.5,112.5 Z"/></g>
<g><path style="opacity:0.875" fill="#464a51" d="M 431.5,15.5 C 436.558,15.1143 439.391,17.4476 440,22.5C 443.287,37.7664 446.12,53.0997 448.5,68.5C 445.038,53.6975 441.871,38.6975 439,23.5C 438.32,18.9895 435.82,16.3228 431.5,15.5 Z"/></g>
<g><path style="opacity:0.337" fill="#464a50" d="M 41.5,46.5 C 34.7175,61.9246 34.8842,77.258 42,92.5C 43.8761,93.6087 45.7095,94.6087 47.5,95.5C 45.0637,95.683 42.897,95.0163 41,93.5C 33.5242,77.6194 33.6909,61.9528 41.5,46.5 Z"/></g>
<g><path style="opacity:1" fill="#ced6d8" d="M 406.5,112.5 C 392.922,199.705 383.588,287.372 378.5,375.5C 371.833,375.5 365.167,375.5 358.5,375.5C 357.008,358.197 350.841,342.864 340,329.5C 298.833,288.333 257.667,247.167 216.5,206C 202.326,193.913 185.993,186.746 167.5,184.5C 161.69,183.51 155.69,183.177 149.5,183.5C 149.267,178.105 149.6,172.772 150.5,167.5C 204.168,167.667 257.834,167.5 311.5,167C 316.176,166.296 318.843,163.629 319.5,159C 318.442,154.948 315.775,152.614 311.5,152C 258.501,151.5 205.501,151.333 152.5,151.5C 153.493,146.223 154.16,140.89 154.5,135.5C 217.501,135.667 280.501,135.5 343.5,135C 349.094,133.629 351.594,130.129 351,124.5C 349.048,122.106 346.548,120.606 343.5,120C 281.834,119.5 220.168,119.333 158.5,119.5C 158.5,116.833 158.5,114.167 158.5,111.5C 241.335,111.167 324.002,111.501 406.5,112.5 Z"/></g>
<g><path style="opacity:0.675" fill="#45494f" d="M 62.5,108.5 C 63.1667,108.5 63.5,108.833 63.5,109.5C 57.1785,109.822 53.8451,113.155 53.5,119.5C 52.5835,112.429 55.5835,108.763 62.5,108.5 Z"/></g>
<g><path style="opacity:1" fill="#cdd4d7" d="M 469.5,310.5 C 470.568,311.434 471.901,311.768 473.5,311.5C 473.392,316.87 473.725,322.203 474.5,327.5C 470.073,328.093 467.406,330.593 466.5,335C 468.967,364.443 470.3,393.943 470.5,423.5C 470.829,436.011 470.495,448.345 469.5,460.5C 459.53,447.684 449.697,434.684 440,421.5C 439.333,317.167 439.333,212.833 440,108.5C 450.876,173.845 459.21,239.512 465,305.5C 465.312,308.309 466.812,309.976 469.5,310.5 Z"/></g>
<g><path style="opacity:1" fill="#e5edee" d="M 393.5,461.5 C 392.505,450.346 392.172,439.012 392.5,427.5C 394.825,320.754 404.992,214.754 423,109.5C 423.667,213.833 423.667,318.167 423,422.5C 413.334,435.66 403.501,448.66 393.5,461.5 Z"/></g>
<g><path style="opacity:1" fill="#000000" d="M 158.5,119.5 C 220.168,119.333 281.834,119.5 343.5,120C 346.548,120.606 349.048,122.106 351,124.5C 351.594,130.129 349.094,133.629 343.5,135C 280.501,135.5 217.501,135.667 154.5,135.5C 147.079,135.891 139.746,135.391 132.5,134C 130.667,133.5 129.5,132.333 129,130.5C 127.817,126.726 128.651,123.559 131.5,121C 140.432,119.619 149.432,119.119 158.5,119.5 Z"/></g>
<g><path style="opacity:0.912" fill="#474a51" d="M 452.5,90.5 C 456.453,108.551 459.453,126.884 461.5,145.5C 457.98,127.381 454.98,109.047 452.5,90.5 Z"/></g>
<g><path style="opacity:0.445" fill="#474a52" d="M 53.5,119.5 C 52.4609,130.393 50.7943,141.06 48.5,151.5C 49.3225,140.573 50.9891,129.906 53.5,119.5 Z"/></g>
<g><path style="opacity:1" fill="#000000" d="M 152.5,151.5 C 205.501,151.333 258.501,151.5 311.5,152C 315.775,152.614 318.442,154.948 319.5,159C 318.843,163.629 316.176,166.296 311.5,167C 257.834,167.5 204.168,167.667 150.5,167.5C 144.407,167.861 138.407,167.361 132.5,166C 131.584,165.626 130.75,165.126 130,164.5C 127.614,160.206 128.114,156.373 131.5,153C 138.426,151.661 145.426,151.161 152.5,151.5 Z"/></g>
<g><path style="opacity:0.667" fill="#40444a" d="M 463.5,158.5 C 464.972,162.919 465.638,167.586 465.5,172.5C 464.199,168.057 463.532,163.391 463.5,158.5 Z"/></g>
<g><path style="opacity:0.682" fill="#464950" d="M 48.5,151.5 C 47.8014,161.057 46.4681,170.39 44.5,179.5C 45.0117,169.918 46.3451,160.584 48.5,151.5 Z"/></g>
<g><path style="opacity:0.725" fill="#454a50" d="M 465.5,172.5 C 466.889,177.269 467.556,182.269 467.5,187.5C 466.111,182.731 465.444,177.731 465.5,172.5 Z"/></g>
<g><path style="opacity:0.828" fill="#454952" d="M 44.5,179.5 C 44.5557,184.731 43.889,189.731 42.5,194.5C 42.4443,189.269 43.111,184.269 44.5,179.5 Z"/></g>
<g><path style="opacity:1" fill="#030302" d="M 167.5,184.5 C 185.993,186.746 202.326,193.913 216.5,206C 257.667,247.167 298.833,288.333 340,329.5C 350.841,342.864 357.008,358.197 358.5,375.5C 360.327,397.861 354.827,418.195 342,436.5C 329.679,454.827 312.846,461.327 291.5,456C 282.761,451.375 275.261,445.208 269,437.5C 267.179,434.096 267.346,430.763 269.5,427.5C 271.926,425.782 274.593,425.282 277.5,426C 281.8,429.298 285.8,432.965 289.5,437C 302.174,445.124 314.007,443.957 325,433.5C 334.094,422.648 339.927,410.315 342.5,396.5C 346.29,375.201 341.29,356.201 327.5,339.5C 320.015,347.486 312.348,355.319 304.5,363C 298.495,367.167 291.829,369 284.5,368.5C 280.009,367.919 276.009,366.252 272.5,363.5C 263.121,352.16 262.621,340.493 271,328.5C 278.333,321.167 285.667,313.833 293,306.5C 293.667,305.5 293.667,304.5 293,303.5C 290.167,300.667 287.333,297.833 284.5,295C 283.5,294.333 282.5,294.333 281.5,295C 278.333,298.167 275.167,301.333 272,304.5C 274.935,320.199 269.768,332.199 256.5,340.5C 255.505,346.128 255.171,351.794 255.5,357.5C 255.5,376.5 255.5,395.5 255.5,414.5C 255.667,425.505 255.5,436.505 255,447.5C 254.5,452 252,454.5 247.5,455C 210.167,455.667 172.833,455.667 135.5,455C 130.993,454.504 128.327,452.004 127.5,447.5C 127.544,443.91 129.211,441.41 132.5,440C 168.165,439.5 203.832,439.333 239.5,439.5C 239.5,431.5 239.5,423.5 239.5,415.5C 239.5,392.833 239.5,370.167 239.5,347.5C 239.777,342.269 240.943,337.269 243,332.5C 247,328.5 251,324.5 255,320.5C 258.755,308.517 254.921,300.35 243.5,296C 232.485,295.168 221.485,295.334 210.5,296.5C 216.331,299.993 216.997,304.326 212.5,309.5C 209.904,310.265 207.237,310.599 204.5,310.5C 197.865,305.759 197.865,300.926 204.5,296C 197.508,295.5 190.508,295.334 183.5,295.5C 161.5,295.5 139.5,295.5 117.5,295.5C 107.64,293.35 100.473,296.683 96,305.5C 95.0968,311.281 95.4301,316.947 97,322.5C 100,324.833 103,327.167 106,329.5C 107.92,332.339 109.587,335.339 111,338.5C 111.5,374.832 111.667,411.165 111.5,447.5C 110.609,449.291 109.609,451.124 108.5,453C 101.934,456.169 97.7673,454.336 96,447.5C 95.6667,411.833 95.3333,376.167 95,340.5C 87.4549,336.622 82.4549,330.622 80,322.5C 76.9538,298.543 87.1205,284.209 110.5,279.5C 104.848,273.348 99.0149,267.348 93,261.5C 81.2661,242.541 82.7661,224.708 97.5,208C 117.368,190.321 140.701,182.488 167.5,184.5 Z"/></g>
<g><path style="opacity:0.489" fill="#464950" d="M 467.5,187.5 C 468.889,192.269 469.556,197.269 469.5,202.5C 468.111,197.731 467.444,192.731 467.5,187.5 Z"/></g>
<g><path style="opacity:1" fill="#f1a167" d="M 146.5,200.5 C 147.5,200.5 148.5,200.5 149.5,200.5C 152.092,228.546 160.092,254.88 173.5,279.5C 159.496,279.667 145.496,279.5 131.5,279C 121.266,269.436 111.766,259.269 103,248.5C 98.8864,238.834 99.8864,229.834 106,221.5C 114.163,213.175 123.663,207.009 134.5,203C 138.453,201.852 142.453,201.018 146.5,200.5 Z"/></g>
<g><path style="opacity:1" fill="#f2b68b" d="M 146.5,200.5 C 164.151,197.868 180.817,201.035 196.5,210C 199.561,211.373 201.394,213.54 202,216.5C 194.667,223.833 187.333,231.167 180,238.5C 172.505,249.623 172.839,260.623 181,271.5C 191.962,280.66 203.129,280.827 214.5,272C 222.348,264.319 230.015,256.486 237.5,248.5C 241.652,252.151 245.652,255.984 249.5,260C 243.167,266.333 236.833,272.667 230.5,279C 211.503,279.5 192.503,279.667 173.5,279.5C 160.092,254.88 152.092,228.546 149.5,200.5C 148.5,200.5 147.5,200.5 146.5,200.5 Z"/></g>
<g><path style="opacity:0.789" fill="#42464d" d="M 42.5,194.5 C 42.1396,202.717 41.1396,210.717 39.5,218.5C 39.6962,210.263 40.6962,202.263 42.5,194.5 Z"/></g>
<g><path style="opacity:0.498" fill="#474c52" d="M 469.5,202.5 C 471.221,210.609 472.221,218.943 472.5,227.5C 470.779,219.391 469.779,211.057 469.5,202.5 Z"/></g>
<g><path style="opacity:1" fill="#e79c66" d="M 213.5,226.5 C 218.559,229.729 222.726,233.729 226,238.5C 218.1,247.069 209.6,254.903 200.5,262C 195.572,263.643 192.072,262.143 190,257.5C 189.245,254.697 189.578,252.03 191,249.5C 198.702,241.965 206.202,234.298 213.5,226.5 Z"/></g>
<g><path style="opacity:0.819" fill="#464a51" d="M 39.5,218.5 C 38.8099,230.712 37.4765,242.712 35.5,254.5C 36.0437,242.273 37.377,230.273 39.5,218.5 Z"/></g>
<g><path style="opacity:0.827" fill="#474b51" d="M 472.5,227.5 C 473.946,233.274 474.612,239.274 474.5,245.5C 473.19,239.712 472.523,233.712 472.5,227.5 Z"/></g>
<g><path style="opacity:0.812" fill="#44474f" d="M 474.5,245.5 C 476.278,255.28 477.278,265.28 477.5,275.5C 475.854,265.707 474.854,255.707 474.5,245.5 Z"/></g>
<g><path style="opacity:1" fill="#e99d66" d="M 259.5,271.5 C 263.48,275.145 267.48,278.811 271.5,282.5C 269.167,285.5 266.5,288.167 263.5,290.5C 259.357,287.065 255.024,283.898 250.5,281C 253.704,277.964 256.704,274.797 259.5,271.5 Z"/></g>
<g><path style="opacity:0.79" fill="#45484f" d="M 34.5,264.5 C 33.3005,284.02 31.6339,303.353 29.5,322.5C 30.2183,302.94 31.8849,283.607 34.5,264.5 Z"/></g>
<g><path style="opacity:1" fill="#f2a167" d="M 117.5,295.5 C 111.761,303.542 109.928,312.542 112,322.5C 113.115,327.245 115.948,330.412 120.5,332C 123.04,334.205 125.207,336.705 127,339.5C 127.499,345.157 127.666,350.824 127.5,356.5C 127.5,358.5 127.5,360.5 127.5,362.5C 128.004,379.834 134.67,394.167 147.5,405.5C 141.973,407.221 140.14,410.888 142,416.5C 144.955,420.277 148.788,421.443 153.5,420C 155.141,418.871 156.141,417.371 156.5,415.5C 157.302,414.048 157.802,412.382 158,410.5C 162.875,412.878 168.042,414.378 173.5,415C 184.674,415.17 195.674,415.67 206.5,416.5C 204.444,425.614 208.111,429.447 217.5,428C 220.649,424.659 221.316,420.825 219.5,416.5C 225.979,415.509 232.646,415.176 239.5,415.5C 239.5,423.5 239.5,431.5 239.5,439.5C 203.832,439.333 168.165,439.5 132.5,440C 129.211,441.41 127.544,443.91 127.5,447.5C 122.167,447.5 116.833,447.5 111.5,447.5C 111.667,411.165 111.5,374.832 111,338.5C 109.587,335.339 107.92,332.339 106,329.5C 103,327.167 100,324.833 97,322.5C 95.4301,316.947 95.0968,311.281 96,305.5C 100.473,296.683 107.64,293.35 117.5,295.5 Z"/></g>
<g><path style="opacity:1" fill="#f5b88c" d="M 117.5,295.5 C 139.5,295.5 161.5,295.5 183.5,295.5C 198.675,316.678 217.342,334.011 239.5,347.5C 239.5,370.167 239.5,392.833 239.5,415.5C 232.646,415.176 225.979,415.509 219.5,416.5C 215.093,412.59 210.76,412.59 206.5,416.5C 195.674,415.67 184.674,415.17 173.5,415C 168.042,414.378 162.875,412.878 158,410.5C 157.802,412.382 157.302,414.048 156.5,415.5C 157.032,409.031 154.032,405.697 147.5,405.5C 134.67,394.167 128.004,379.834 127.5,362.5C 129.154,363.75 130.821,365.084 132.5,366.5C 133.449,367.152 134.615,367.486 136,367.5C 138.008,367.693 139.508,367.026 140.5,365.5C 145.357,356.82 142.691,352.32 132.5,352C 130.313,353.025 128.646,354.525 127.5,356.5C 127.666,350.824 127.499,345.157 127,339.5C 125.207,336.705 123.04,334.205 120.5,332C 115.948,330.412 113.115,327.245 112,322.5C 109.928,312.542 111.761,303.542 117.5,295.5 Z"/></g>
<g><path style="opacity:1" fill="#f6cbac" d="M 183.5,295.5 C 190.508,295.334 197.508,295.5 204.5,296C 197.865,300.926 197.865,305.759 204.5,310.5C 205.449,311.152 206.615,311.486 208,311.5C 210.008,311.693 211.508,311.026 212.5,309.5C 216.997,304.326 216.331,299.993 210.5,296.5C 221.485,295.334 232.485,295.168 243.5,296C 254.921,300.35 258.755,308.517 255,320.5C 251,324.5 247,328.5 243,332.5C 240.943,337.269 239.777,342.269 239.5,347.5C 217.342,334.011 198.675,316.678 183.5,295.5 Z"/></g>
<g><path style="opacity:0.22" fill="#484c53" d="M 478.5,286.5 C 479.859,292.974 480.359,299.64 480,306.5C 478.809,309.534 476.642,311.201 473.5,311.5C 471.901,311.768 470.568,311.434 469.5,310.5C 474.133,311.542 477.299,309.875 479,305.5C 478.892,299.188 478.725,292.855 478.5,286.5 Z"/></g>
<g><path style="opacity:1" fill="#8e7e76" d="M 212.5,309.5 C 211.508,311.026 210.008,311.693 208,311.5C 206.615,311.486 205.449,311.152 204.5,310.5C 207.237,310.599 209.904,310.265 212.5,309.5 Z"/></g>
<g><path style="opacity:1" fill="#111010" d="M 140.5,325.5 C 137.904,326.265 135.237,326.599 132.5,326.5C 126.845,322.711 126.178,318.211 130.5,313C 135.558,310.683 139.725,311.849 143,316.5C 143.667,318.167 143.667,319.833 143,321.5C 141.905,322.693 141.072,324.027 140.5,325.5 Z"/></g>
<g><path style="opacity:1" fill="#e89c66" d="M 303.5,317.5 C 304.552,317.351 305.552,317.517 306.5,318C 309.667,321.167 312.833,324.333 316,327.5C 316.667,328.167 316.667,328.833 316,329.5C 308.833,336.667 301.667,343.833 294.5,351C 283.918,355.599 279.585,352.099 281.5,340.5C 288.855,332.813 296.188,325.146 303.5,317.5 Z"/></g>
<g><path style="opacity:1" fill="#8d7769" d="M 140.5,325.5 C 139.508,327.026 138.008,327.693 136,327.5C 134.615,327.486 133.449,327.152 132.5,326.5C 135.237,326.599 137.904,326.265 140.5,325.5 Z"/></g>
<g><path style="opacity:1" fill="#0c0b0b" d="M 169.5,333.5 C 180.697,333.835 183.364,338.668 177.5,348C 168.834,349.664 165,346.164 166,337.5C 167.376,336.295 168.542,334.962 169.5,333.5 Z"/></g>
<g><path style="opacity:1" fill="#eab189" d="M 272.5,363.5 C 266.716,361.772 261.049,359.772 255.5,357.5C 255.171,351.794 255.505,346.128 256.5,340.5C 269.768,332.199 274.935,320.199 272,304.5C 275.167,301.333 278.333,298.167 281.5,295C 282.5,294.333 283.5,294.333 284.5,295C 287.333,297.833 290.167,300.667 293,303.5C 293.667,304.5 293.667,305.5 293,306.5C 285.667,313.833 278.333,321.167 271,328.5C 262.621,340.493 263.121,352.16 272.5,363.5 Z"/></g>
<g><path style="opacity:1" fill="#efb489" d="M 342.5,396.5 C 342.5,389.5 342.5,382.5 342.5,375.5C 322.753,375.492 303.42,373.159 284.5,368.5C 291.829,369 298.495,367.167 304.5,363C 312.348,355.319 320.015,347.486 327.5,339.5C 341.29,356.201 346.29,375.201 342.5,396.5 Z"/></g>
<g><path style="opacity:0.694" fill="#464a50" d="M 475.5,327.5 C 480.781,328.016 483.281,331.016 483,336.5C 484.388,355.145 485.221,373.811 485.5,392.5C 484.193,374.333 483.026,355.999 482,337.5C 482.05,332.574 479.884,329.24 475.5,327.5 Z"/></g>
<g><path style="opacity:1" fill="#111010" d="M 220.5,357.5 C 217.904,358.265 215.237,358.599 212.5,358.5C 206.845,354.711 206.178,350.211 210.5,345C 215.558,342.683 219.725,343.849 223,348.5C 223.667,350.167 223.667,351.833 223,353.5C 221.905,354.693 221.072,356.027 220.5,357.5 Z"/></g>
<g><path style="opacity:1" fill="#111010" d="M 140.5,365.5 C 137.904,366.265 135.237,366.599 132.5,366.5C 130.821,365.084 129.154,363.75 127.5,362.5C 127.5,360.5 127.5,358.5 127.5,356.5C 128.646,354.525 130.313,353.025 132.5,352C 142.691,352.32 145.357,356.82 140.5,365.5 Z"/></g>
<g><path style="opacity:1" fill="#f2a167" d="M 255.5,357.5 C 261.049,359.772 266.716,361.772 272.5,363.5C 276.009,366.252 280.009,367.919 284.5,368.5C 303.42,373.159 322.753,375.492 342.5,375.5C 342.5,382.5 342.5,389.5 342.5,396.5C 339.927,410.315 334.094,422.648 325,433.5C 314.007,443.957 302.174,445.124 289.5,437C 285.8,432.965 281.8,429.298 277.5,426C 274.593,425.282 271.926,425.782 269.5,427.5C 264.833,423.167 260.167,418.833 255.5,414.5C 255.5,395.5 255.5,376.5 255.5,357.5 Z"/></g>
<g><path style="opacity:1" fill="#8d7769" d="M 220.5,357.5 C 219.508,359.026 218.008,359.693 216,359.5C 214.615,359.486 213.449,359.152 212.5,358.5C 215.237,358.599 217.904,358.265 220.5,357.5 Z"/></g>
<g><path style="opacity:1" fill="#8d7769" d="M 140.5,365.5 C 139.508,367.026 138.008,367.693 136,367.5C 134.615,367.486 133.449,367.152 132.5,366.5C 135.237,366.599 137.904,366.265 140.5,365.5 Z"/></g>
<g><path style="opacity:1" fill="#111010" d="M 188.5,389.5 C 185.904,390.265 183.237,390.599 180.5,390.5C 174.845,386.711 174.178,382.211 178.5,377C 183.558,374.683 187.725,375.849 191,380.5C 191.667,382.167 191.667,383.833 191,385.5C 189.905,386.693 189.072,388.027 188.5,389.5 Z"/></g>
<g><path style="opacity:0.858" fill="#474a51" d="M 27.5,353.5 C 27.3966,366.683 26.7299,379.683 25.5,392.5C 25.3564,379.305 26.0231,366.305 27.5,353.5 Z"/></g>
<g><path style="opacity:1" fill="#8d7769" d="M 188.5,389.5 C 187.508,391.026 186.008,391.693 184,391.5C 182.615,391.486 181.449,391.152 180.5,390.5C 183.237,390.599 185.904,390.265 188.5,389.5 Z"/></g>
<g><path style="opacity:1" fill="#0c0b0b" d="M 147.5,405.5 C 154.032,405.697 157.032,409.031 156.5,415.5C 156.141,417.371 155.141,418.871 153.5,420C 148.788,421.443 144.955,420.277 142,416.5C 140.14,410.888 141.973,407.221 147.5,405.5 Z"/></g>
<g><path style="opacity:1" fill="#0c0b0b" d="M 219.5,416.5 C 221.316,420.825 220.649,424.659 217.5,428C 208.111,429.447 204.444,425.614 206.5,416.5C 210.76,412.59 215.093,412.59 219.5,416.5 Z"/></g>
<g><path style="opacity:1" fill="#e4ebed" d="M 431.5,436.5 C 442.632,450.072 453.298,464.072 463.5,478.5C 442.174,479.666 420.841,479.833 399.5,479C 410.383,464.956 421.05,450.79 431.5,436.5 Z"/></g>
<g><path style="opacity:0.891" fill="#464a51" d="M 486.5,420.5 C 487.663,443.996 487.83,467.663 487,491.5C 485.461,494.521 482.961,495.854 479.5,495.5C 482.27,494.69 484.437,493.023 486,490.5C 486.5,467.169 486.667,443.836 486.5,420.5 Z"/></g>
<g><path style="opacity:1" fill="#8c9296" d="M 470.5,423.5 C 471.66,436.66 471.827,449.994 471,463.5C 469.961,462.756 469.461,461.756 469.5,460.5C 470.495,448.345 470.829,436.011 470.5,423.5 Z"/></g>
<g><path style="opacity:1" fill="#8e9499" d="M 392.5,427.5 C 392.172,439.012 392.505,450.346 393.5,461.5C 393.217,462.289 392.717,462.956 392,463.5C 391.174,451.326 391.34,439.326 392.5,427.5 Z"/></g>
<g><path style="opacity:0.786" fill="#484b51" d="M 23.5,487.5 C 24.3913,489.291 25.3913,491.124 26.5,493C 28.3146,493.757 29.9812,494.59 31.5,495.5C 25.8333,495.833 23.1667,493.167 23.5,487.5 Z"/></g>
</svg>
