<?xml version="1.0" encoding="UTF-8"?>
<!DOCTYPE svg PUBLIC "-//W3C//DTD SVG 1.1//EN" "http://www.w3.org/Graphics/SVG/1.1/DTD/svg11.dtd">
<svg xmlns="http://www.w3.org/2000/svg" version="1.1" width="512px" height="512px" style="shape-rendering:geometricPrecision; text-rendering:geometricPrecision; image-rendering:optimizeQuality; fill-rule:evenodd; clip-rule:evenodd" xmlns:xlink="http://www.w3.org/1999/xlink">
<g><path style="opacity:0.96" fill="#020100" d="M 247.5,-0.5 C 252.833,-0.5 258.167,-0.5 263.5,-0.5C 282.19,6.50176 290.523,20.1684 288.5,40.5C 307.192,39.1187 323.359,44.7854 337,57.5C 338.747,61.1251 338.914,64.7917 337.5,68.5C 334.436,70.343 331.103,70.843 327.5,70C 302.933,50.2541 280.267,52.2541 259.5,76C 256.833,76.6667 254.167,76.6667 251.5,76C 237.247,57.6906 219.247,52.3573 197.5,60C 179.405,71.0942 165.905,86.2609 157,105.5C 139.691,149.452 118.691,191.452 94,231.5C 81.3456,253.803 72.3456,277.47 67,302.5C 65.3135,373.301 93.8135,428.135 152.5,467C 219.74,505.66 287.407,506.327 355.5,469C 418.208,428.753 447.375,371.253 443,296.5C 436.887,273.831 428.22,252.164 417,231.5C 388.05,183.937 363.717,134.27 344,82.5C 344.662,81.0161 345.496,79.6828 346.5,78.5C 349.877,77.0985 353.21,77.2652 356.5,79C 358.543,82.2534 360.71,85.4201 363,88.5C 381.643,135.119 403.976,179.785 430,222.5C 472.81,294.762 469.476,364.762 420,432.5C 382.992,478.259 335.159,504.592 276.5,511.5C 262.5,511.5 248.5,511.5 234.5,511.5C 153.085,500.568 95.9185,457.568 63,382.5C 50.1644,349.151 47.8311,315.151 56,280.5C 62.5813,260.426 70.9147,241.093 81,222.5C 105.024,183.785 125.357,143.119 142,100.5C 152.134,78.0304 167.634,60.1971 188.5,47C 199.192,41.5617 210.526,39.395 222.5,40.5C 220.477,20.1684 228.81,6.50176 247.5,-0.5 Z"/></g>
<g><path style="opacity:1" fill="#56b340" d="M 258.5,15.5 C 256.801,15.3398 255.134,15.5065 253.5,16C 250.836,18.6692 249.002,21.8359 248,25.5C 247.5,34.1603 247.334,42.8269 247.5,51.5C 244.777,49.7188 241.943,48.0521 239,46.5C 238.333,39.8333 238.333,33.1667 239,26.5C 242.747,17.3869 249.247,13.7203 258.5,15.5 Z"/></g>
<g><path style="opacity:1" fill="#6ed35a" d="M 258.5,15.5 C 264.877,16.6971 269.377,20.3638 272,26.5C 272.667,33.1667 272.667,39.8333 272,46.5C 266.057,49.8884 260.557,53.8884 255.5,58.5C 252.788,56.1152 250.122,53.7819 247.5,51.5C 247.334,42.8269 247.5,34.1603 248,25.5C 249.002,21.8359 250.836,18.6692 253.5,16C 255.134,15.5065 256.801,15.3398 258.5,15.5 Z"/></g>
<g><path style="opacity:1" fill="#fe923a" d="M 337.5,68.5 C 340.471,71.8076 343.471,75.141 346.5,78.5C 345.496,79.6828 344.662,81.0161 344,82.5C 363.717,134.27 388.05,183.937 417,231.5C 428.22,252.164 436.887,273.831 443,296.5C 447.375,371.253 418.208,428.753 355.5,469C 287.407,506.327 219.74,505.66 152.5,467C 93.8135,428.135 65.3135,373.301 67,302.5C 72.3456,277.47 81.3456,253.803 94,231.5C 118.691,191.452 139.691,149.452 157,105.5C 165.905,86.2609 179.405,71.0942 197.5,60C 219.247,52.3573 237.247,57.6906 251.5,76C 254.167,76.6667 256.833,76.6667 259.5,76C 280.267,52.2541 302.933,50.2541 327.5,70C 331.103,70.843 334.436,70.343 337.5,68.5 Z"/></g>
<g><path style="opacity:1" fill="#040201" d="M 187.5,371.5 C 190.755,371.014 193.422,372.014 195.5,374.5C 206.885,399.386 223.885,419.553 246.5,435C 258.047,438.231 268.047,435.565 276.5,427C 315.154,392.053 330.654,348.553 323,296.5C 317.698,247.252 301.698,201.919 275,160.5C 264.595,150.453 253.095,148.953 240.5,156C 230.119,168.579 221.619,182.413 215,197.5C 192.833,245.836 183.833,296.503 188,349.5C 186.945,352.056 185.112,353.723 182.5,354.5C 179.495,354.747 176.995,353.747 175,351.5C 171.707,336.701 170.707,321.701 172,306.5C 175.991,250.194 193.324,198.527 224,151.5C 235.632,137.964 250.132,133.464 267.5,138C 275.791,140.732 282.624,145.566 288,152.5C 328.903,216.531 344.57,286.198 335,361.5C 324.563,397.885 303.73,426.718 272.5,448C 258.091,453.723 244.424,452.39 231.5,444C 215.459,430.967 201.959,415.8 191,398.5C 187.606,392.382 184.773,386.049 182.5,379.5C 182.672,375.807 184.339,373.141 187.5,371.5 Z"/></g>
<g><path style="opacity:1" fill="#634a85" d="M 187.5,371.5 C 185.388,366.069 183.721,360.403 182.5,354.5C 185.112,353.723 186.945,352.056 188,349.5C 183.833,296.503 192.833,245.836 215,197.5C 221.619,182.413 230.119,168.579 240.5,156C 253.095,148.953 264.595,150.453 275,160.5C 301.698,201.919 317.698,247.252 323,296.5C 330.654,348.553 315.154,392.053 276.5,427C 268.047,435.565 258.047,438.231 246.5,435C 223.885,419.553 206.885,399.386 195.5,374.5C 193.422,372.014 190.755,371.014 187.5,371.5 Z"/></g>
<g><path style="opacity:1" fill="#040306" d="M 240.5,183.5 C 246.766,182.117 250.433,184.45 251.5,190.5C 250.871,196.631 247.538,199.131 241.5,198C 235.192,193.615 234.859,188.782 240.5,183.5 Z"/></g>
<g><path style="opacity:1" fill="#050307" d="M 262.5,183.5 C 270.167,182.024 274,185.024 274,192.5C 270.77,198.893 266.437,199.893 261,195.5C 258.66,191.052 259.16,187.052 262.5,183.5 Z"/></g>
<g><path style="opacity:1" fill="#040205" d="M 224.5,220.5 C 233.06,219.877 236.227,223.544 234,231.5C 229.585,236.726 225.251,236.726 221,231.5C 219.663,226.872 220.83,223.205 224.5,220.5 Z"/></g>
<g><path style="opacity:1" fill="#040306" d="M 279.5,220.5 C 290.818,220.081 293.485,224.581 287.5,234C 281.164,236.545 277.164,234.378 275.5,227.5C 276.071,224.687 277.404,222.354 279.5,220.5 Z"/></g>
<g><path style="opacity:1" fill="#020103" d="M 252.5,232.5 C 260.775,231.706 263.942,235.373 262,243.5C 257.585,248.726 253.251,248.726 249,243.5C 247.663,238.872 248.83,235.205 252.5,232.5 Z"/></g>
<g><path style="opacity:1" fill="#040306" d="M 212.5,259.5 C 221.33,258.162 224.83,261.829 223,270.5C 218.959,275.313 214.625,275.646 210,271.5C 207.668,266.83 208.501,262.83 212.5,259.5 Z"/></g>
<g><path style="opacity:1" fill="#040306" d="M 291.5,259.5 C 299.113,258.614 302.613,261.947 302,269.5C 297.283,276.152 292.617,276.152 288,269.5C 286.756,265.191 287.923,261.858 291.5,259.5 Z"/></g>
<g><path style="opacity:1" fill="#040205" d="M 242.5,265.5 C 250.161,264.663 253.661,267.996 253,275.5C 249.455,281.209 245.121,281.875 240,277.5C 237.511,272.757 238.345,268.757 242.5,265.5 Z"/></g>
<g><path style="opacity:1" fill="#040205" d="M 261.5,265.5 C 269.161,264.663 272.661,267.996 272,275.5C 268.455,281.209 264.121,281.875 259,277.5C 256.511,272.757 257.345,268.757 261.5,265.5 Z"/></g>
<g><path style="opacity:1" fill="#040205" d="M 207.5,299.5 C 215.201,299.362 218.367,303.029 217,310.5C 211.919,315.986 207.252,315.653 203,309.5C 202.077,305.017 203.577,301.683 207.5,299.5 Z"/></g>
<g><path style="opacity:1" fill="#040205" d="M 237.5,299.5 C 246.054,298.872 249.221,302.538 247,310.5C 242.162,316.036 237.829,315.703 234,309.5C 232.756,305.191 233.923,301.858 237.5,299.5 Z"/></g>
<g><path style="opacity:1" fill="#040306" d="M 266.5,299.5 C 272.766,298.117 276.433,300.45 277.5,306.5C 276.871,312.631 273.538,315.131 267.5,314C 261.4,309.398 261.066,304.565 266.5,299.5 Z"/></g>
<g><path style="opacity:1" fill="#040306" d="M 297.5,299.5 C 303.629,298.555 307.296,301.055 308.5,307C 307.261,312.984 303.594,315.317 297.5,314C 292.225,309.122 292.225,304.289 297.5,299.5 Z"/></g>
<g><path style="opacity:1" fill="#020104" d="M 238.5,333.5 C 246.885,332.716 250.051,336.383 248,344.5C 243.585,349.726 239.251,349.726 235,344.5C 233.518,339.774 234.685,336.107 238.5,333.5 Z"/></g>
<g><path style="opacity:1" fill="#020104" d="M 266.5,333.5 C 274.885,332.716 278.051,336.383 276,344.5C 271.585,349.726 267.251,349.726 263,344.5C 261.518,339.774 262.685,336.107 266.5,333.5 Z"/></g>
<g><path style="opacity:1" fill="#040205" d="M 208.5,340.5 C 217.772,340.083 220.772,344.083 217.5,352.5C 212.501,356.874 208.334,356.207 205,350.5C 203.756,346.191 204.923,342.858 208.5,340.5 Z"/></g>
<g><path style="opacity:1" fill="#020104" d="M 295.5,340.5 C 305.493,339.655 308.493,343.822 304.5,353C 295.961,356.451 291.794,353.618 292,344.5C 293.032,342.973 294.199,341.64 295.5,340.5 Z"/></g>
<g><path style="opacity:1" fill="#030204" d="M 251.5,364.5 C 262.818,363.99 265.485,368.49 259.5,378C 255.334,380.251 251.834,379.417 249,375.5C 247.812,371.259 248.645,367.592 251.5,364.5 Z"/></g>
<g><path style="opacity:1" fill="#020103" d="M 224.5,377.5 C 232.775,376.706 235.942,380.373 234,388.5C 229.585,393.726 225.251,393.726 221,388.5C 219.518,383.774 220.685,380.107 224.5,377.5 Z"/></g>
<g><path style="opacity:1" fill="#040205" d="M 280.5,377.5 C 289.003,376.825 292.17,380.492 290,388.5C 285.667,393.833 281.333,393.833 277,388.5C 275.663,383.872 276.83,380.205 280.5,377.5 Z"/></g>
<g><path style="opacity:1" fill="#040205" d="M 252.5,406.5 C 261.06,405.877 264.227,409.544 262,417.5C 257.585,422.726 253.251,422.726 249,417.5C 247.518,412.774 248.685,409.107 252.5,406.5 Z"/></g>
</svg>
