<?xml version="1.0" encoding="UTF-8"?>
<!DOCTYPE svg PUBLIC "-//W3C//DTD SVG 1.1//EN" "http://www.w3.org/Graphics/SVG/1.1/DTD/svg11.dtd">
<svg xmlns="http://www.w3.org/2000/svg" version="1.1" width="512px" height="512px" style="shape-rendering:geometricPrecision; text-rendering:geometricPrecision; image-rendering:optimizeQuality; fill-rule:evenodd; clip-rule:evenodd" xmlns:xlink="http://www.w3.org/1999/xlink">
<g><path style="opacity:0.99" fill="#040301" d="M 233.5,-0.5 C 248.167,-0.5 262.833,-0.5 277.5,-0.5C 367.555,10.0943 435.388,54.4276 481,132.5C 497.855,164.278 508.022,197.945 511.5,233.5C 511.5,248.167 511.5,262.833 511.5,277.5C 500.906,367.555 456.572,435.388 378.5,481C 346.722,497.855 313.055,508.022 277.5,511.5C 262.833,511.5 248.167,511.5 233.5,511.5C 143.445,500.906 75.612,456.572 30,378.5C 13.1449,346.722 2.97822,313.055 -0.5,277.5C -0.5,262.833 -0.5,248.167 -0.5,233.5C 10.0943,143.445 54.4276,75.612 132.5,30C 164.278,13.1449 197.945,2.97822 233.5,-0.5 Z"/></g>
<g><path style="opacity:1" fill="#9d7622" d="M 232.5,15.5 C 231.167,16.1667 229.833,16.8333 228.5,17.5C 227.957,17.44 227.624,17.1067 227.5,16.5C 229.045,15.5481 230.712,15.2148 232.5,15.5 Z"/></g>
<g><path style="opacity:1" fill="#f6f1e8" d="M 276.5,15.5 C 278.5,16.1667 280.5,16.8333 282.5,17.5C 273.854,26.8123 264.854,35.8123 255.5,44.5C 246.146,35.8123 237.146,26.8123 228.5,17.5C 229.833,16.8333 231.167,16.1667 232.5,15.5C 247.153,14.223 261.82,14.223 276.5,15.5 Z"/></g>
<g><path style="opacity:1" fill="#9b8130" d="M 276.5,15.5 C 278.924,15.1924 281.257,15.5258 283.5,16.5C 283.376,17.1067 283.043,17.44 282.5,17.5C 280.5,16.8333 278.5,16.1667 276.5,15.5 Z"/></g>
<g><path style="opacity:1" fill="#d3c7b7" d="M 212.5,23.5 C 212.167,24.1667 211.833,24.8333 211.5,25.5C 201.994,30.4192 192.327,35.0858 182.5,39.5C 188.297,33.2019 194.297,27.0352 200.5,21C 205.422,18.3833 209.422,19.2166 212.5,23.5 Z"/></g>
<g><path style="opacity:1" fill="#fdfbf5" d="M 343.5,54.5 C 342.89,55.391 342.557,56.391 342.5,57.5C 330.16,69.6733 317.66,81.6733 305,93.5C 291.694,81.361 278.861,68.6943 266.5,55.5C 278.194,42.9723 290.361,30.9723 303,19.5C 305.464,20.1608 307.964,20.6608 310.5,21C 321.702,32.0349 332.702,43.2016 343.5,54.5 Z"/></g>
<g><path style="opacity:1" fill="#f6c441" d="M 212.5,23.5 C 213.5,23.8333 214.167,24.5 214.5,25.5C 213.5,25.5 212.5,25.5 211.5,25.5C 211.833,24.8333 212.167,24.1667 212.5,23.5 Z"/></g>
<g><path style="opacity:1" fill="#fdfcf9" d="M 211.5,25.5 C 212.5,25.5 213.5,25.5 214.5,25.5C 224.812,35.1457 234.812,45.1457 244.5,55.5C 232.146,68.521 219.479,81.1877 206.5,93.5C 193.167,80.8333 180.167,67.8333 167.5,54.5C 172.167,49.1667 177.167,44.1667 182.5,39.5C 192.327,35.0858 201.994,30.4192 211.5,25.5 Z"/></g>
<g><path style="opacity:1" fill="#cecfce" d="M 166.5,30.5 C 167.552,30.3505 168.552,30.5172 169.5,31C 165.113,35.3874 160.779,39.7208 156.5,44C 153.735,43.2797 151.401,41.6131 149.5,39C 155.069,35.8725 160.736,33.0392 166.5,30.5 Z"/></g>
<g><path style="opacity:1" fill="#eddbb6" d="M 341.5,31.5 C 348.189,32.246 354.522,34.746 360.5,39C 358.649,40.6837 356.982,42.5171 355.5,44.5C 350.813,40.1449 346.146,35.8115 341.5,31.5 Z"/></g>
<g><path style="opacity:1" fill="#d1cac0" d="M 134.5,46.5 C 138.067,48.5566 141.234,51.2232 144,54.5C 144.667,55.1667 144.667,55.8333 144,56.5C 131.333,69.1667 118.667,81.8333 106,94.5C 101.333,89.8333 96.6667,85.1667 92,80.5C 91.3333,79.8333 91.3333,79.1667 92,78.5C 105.25,66.4754 119.416,55.8087 134.5,46.5 Z"/></g>
<g><path style="opacity:1" fill="#fbf6ed" d="M 374.5,46.5 C 390.946,54.8173 405.779,65.4839 419,78.5C 419.667,79.1667 419.667,79.8333 419,80.5C 414.333,85.1667 409.667,89.8333 405,94.5C 392.333,81.8333 379.667,69.1667 367,56.5C 366.333,55.8333 366.333,55.1667 367,54.5C 369.705,51.9638 372.205,49.2971 374.5,46.5 Z"/></g>
<g><path style="opacity:1" fill="#a28732" d="M 167.5,54.5 C 180.167,67.8333 193.167,80.8333 206.5,93.5C 206.103,94.525 205.437,94.6917 204.5,94C 192,81.5 179.5,69 167,56.5C 166.308,55.5632 166.475,54.8966 167.5,54.5 Z"/></g>
<g><path style="opacity:1" fill="#89732a" d="M 343.5,54.5 C 344.715,55.779 344.382,56.779 342.5,57.5C 342.557,56.391 342.89,55.391 343.5,54.5 Z"/></g>
<g><path style="opacity:1" fill="#fdfbf7" d="M 154.5,66.5 C 168.428,78.7592 181.761,91.7592 194.5,105.5C 182.139,118.694 169.306,131.361 156,143.5C 142.541,131.042 129.374,118.209 116.5,105C 129.369,92.2985 142.035,79.4652 154.5,66.5 Z"/></g>
<g><path style="opacity:1" fill="#fdfbf7" d="M 354.5,66.5 C 368.247,78.7445 381.581,91.5778 394.5,105C 381.626,118.209 368.459,131.042 355,143.5C 341.694,131.361 328.861,118.694 316.5,105.5C 329.188,92.4793 341.855,79.4793 354.5,66.5 Z"/></g>
<g><path style="opacity:1" fill="#fffdf8" d="M 293.5,104.5 C 292.89,105.391 292.557,106.391 292.5,107.5C 280.5,119.167 268.5,130.833 256.5,142.5C 242.885,130.553 229.885,117.886 217.5,104.5C 229.812,91.521 242.479,78.8543 255.5,66.5C 268.521,78.8543 281.188,91.521 293.5,104.5 Z"/></g>
<g><path style="opacity:1" fill="#d0c8be" d="M 79.5,90.5 C 85.2416,94.7347 90.5749,99.568 95.5,105C 82.3333,118.167 69.1667,131.333 56,144.5C 52.8333,141.333 49.6667,138.167 46.5,135C 55.9244,118.978 66.9244,104.145 79.5,90.5 Z"/></g>
<g><path style="opacity:1" fill="#fbf6eb" d="M 429.5,90.5 C 431.716,91.2026 433.549,92.5359 435,94.5C 445.994,107.159 455.827,120.659 464.5,135C 461.333,138.167 458.167,141.333 455,144.5C 442.333,131.833 429.667,119.167 417,106.5C 416.333,105.5 416.333,104.5 417,103.5C 421.37,99.2978 425.537,94.9645 429.5,90.5 Z"/></g>
<g><path style="opacity:1" fill="#a28732" d="M 217.5,104.5 C 229.885,117.886 242.885,130.553 256.5,142.5C 256.483,144.028 255.816,144.528 254.5,144C 242,131.5 229.5,119 217,106.5C 216.308,105.563 216.475,104.897 217.5,104.5 Z"/></g>
<g><path style="opacity:1" fill="#90782d" d="M 293.5,104.5 C 294.715,105.779 294.382,106.779 292.5,107.5C 292.557,106.391 292.89,105.391 293.5,104.5 Z"/></g>
<g><path style="opacity:1" fill="#fcfaf6" d="M 75.5,163.5 C 75.5,162.833 75.5,162.167 75.5,161.5C 76.9313,160.22 77.5979,158.553 77.5,156.5C 78.3382,156.158 78.6716,155.492 78.5,154.5C 80.9569,151.249 82.6236,147.582 83.5,143.5C 86.2583,140.322 88.2583,136.655 89.5,132.5C 94.479,126.854 99.8123,121.521 105.5,116.5C 118.788,128.287 131.622,140.62 144,153.5C 144.667,154.5 144.667,155.5 144,156.5C 131.626,169.209 118.959,181.542 106,193.5C 95.3402,184.007 85.1735,174.007 75.5,163.5 Z"/></g>
<g><path style="opacity:1" fill="#fffdfa" d="M 243.5,153.5 C 231.756,166.747 219.422,179.581 206.5,192C 205.906,192.464 205.239,192.631 204.5,192.5C 191.702,180.202 179.035,167.702 166.5,155C 179.362,141.804 192.529,128.97 206,116.5C 218.368,129.035 230.868,141.369 243.5,153.5 Z"/></g>
<g><path style="opacity:1" fill="#fffdfa" d="M 306.5,192.5 C 305.761,192.631 305.094,192.464 304.5,192C 292.298,179.631 279.965,167.465 267.5,155.5C 278.925,142.559 291.259,129.726 304.5,117C 305.167,116.333 305.833,116.333 306.5,117C 319.167,129.667 331.833,142.333 344.5,155C 331.965,167.702 319.298,180.202 306.5,192.5 Z"/></g>
<g><path style="opacity:1" fill="#fcf9f4" d="M 403.5,116.5 C 404.552,116.351 405.552,116.517 406.5,117C 419.167,129.667 431.833,142.333 444.5,155C 431.626,168.209 418.459,181.042 405,193.5C 391.5,181.333 378.667,168.5 366.5,155C 378.66,142.006 390.993,129.173 403.5,116.5 Z"/></g>
<g><path style="opacity:1" fill="#f2bd3c" d="M 89.5,132.5 C 88.2583,136.655 86.2583,140.322 83.5,143.5C 83.8769,141.742 84.5435,140.075 85.5,138.5C 85.3764,137.893 85.0431,137.56 84.5,137.5C 85.8333,135.5 87.5,133.833 89.5,132.5 Z"/></g>
<g><path style="opacity:1" fill="#d1c4b2" d="M 84.5,137.5 C 85.0431,137.56 85.3764,137.893 85.5,138.5C 84.5435,140.075 83.8769,141.742 83.5,143.5C 81.0431,146.751 79.3764,150.418 78.5,154.5C 78.6716,155.492 78.3382,156.158 77.5,156.5C 76.0687,157.78 75.4021,159.447 75.5,161.5C 75.5,162.167 75.5,162.833 75.5,163.5C 72.3694,160.871 69.3694,158.038 66.5,155C 72.3686,148.964 78.3686,143.13 84.5,137.5 Z"/></g>
<g><path style="opacity:1" fill="#d3bb98" d="M 38.5,149.5 C 41.2254,150.713 43.5588,152.546 45.5,155C 40.6667,159.833 35.8333,164.667 31,169.5C 32.6098,162.593 35.1098,155.927 38.5,149.5 Z"/></g>
<g><path style="opacity:1" fill="#fcc842" d="M 83.5,143.5 C 82.6236,147.582 80.9569,151.249 78.5,154.5C 79.3764,150.418 81.0431,146.751 83.5,143.5 Z"/></g>
<g><path style="opacity:1" fill="#f3e1bc" d="M 470.5,149.5 C 475.524,155.217 478.691,161.884 480,169.5C 475.167,164.667 470.333,159.833 465.5,155C 467.373,153.296 469.04,151.463 470.5,149.5 Z"/></g>
<g><path style="opacity:1" fill="#a88c34" d="M 267.5,155.5 C 279.965,167.465 292.298,179.631 304.5,192C 305.094,192.464 305.761,192.631 306.5,192.5C 305.749,193.573 304.749,193.74 303.5,193C 290.911,180.914 278.911,168.414 267.5,155.5 Z"/></g>
<g><path style="opacity:1" fill="#fcc741" d="M 77.5,156.5 C 77.5979,158.553 76.9313,160.22 75.5,161.5C 75.4021,159.447 76.0687,157.78 77.5,156.5 Z"/></g>
<g><path style="opacity:1" fill="#d1cdc7" d="M 70.5,180.5 C 69.8333,180.5 69.1667,180.5 68.5,180.5C 67.0762,182.515 66.4095,184.848 66.5,187.5C 63.2962,201.183 60.6295,214.849 58.5,228.5C 57.673,233.346 57.0063,238.346 56.5,243.5C 44.2015,231.702 32.0349,219.702 20,207.5C 19.3333,205.833 19.3333,204.167 20,202.5C 31.637,189.862 43.637,177.529 56,165.5C 61.0365,170.369 65.8698,175.369 70.5,180.5 Z"/></g>
<g><path style="opacity:1" fill="#fefbf5" d="M 155.5,165.5 C 168.812,178.146 181.812,191.146 194.5,204.5C 181.833,217.833 168.833,230.833 155.5,243.5C 142.347,230.847 129.347,218.014 116.5,205C 129.702,191.965 142.702,178.798 155.5,165.5 Z"/></g>
<g><path style="opacity:1" fill="#fefdfa" d="M 254.5,166.5 C 255.239,166.369 255.906,166.536 256.5,167C 269.014,179.681 281.681,192.181 294.5,204.5C 281.833,217.833 268.833,230.833 255.5,243.5C 242.167,230.833 229.167,217.833 216.5,204.5C 229.521,192.146 242.188,179.479 254.5,166.5 Z"/></g>
<g><path style="opacity:1" fill="#fefbf5" d="M 353.5,166.5 C 354.922,166.709 356.255,167.209 357.5,168C 369.833,180.333 382.167,192.667 394.5,205C 381.653,218.014 368.653,230.847 355.5,243.5C 342.167,230.833 329.167,217.833 316.5,204.5C 328.855,191.813 341.188,179.146 353.5,166.5 Z"/></g>
<g><path style="opacity:1" fill="#fdfbf7" d="M 454.5,165.5 C 466.465,176.965 478.298,188.631 490,200.5C 491.373,202.695 491.706,205.029 491,207.5C 478.986,219.681 466.819,231.681 454.5,243.5C 441.306,231.139 428.639,218.306 416.5,205C 428.993,191.673 441.66,178.506 454.5,165.5 Z"/></g>
<g><path style="opacity:1" fill="#8f772c" d="M 243.5,153.5 C 244.573,154.251 244.74,155.251 244,156.5C 231.833,168.667 219.667,180.833 207.5,193C 206.251,193.74 205.251,193.573 204.5,192.5C 205.239,192.631 205.906,192.464 206.5,192C 219.422,179.581 231.756,166.747 243.5,153.5 Z"/></g>
<g><path style="opacity:1" fill="#fbf8f3" d="M 68.5,180.5 C 69.1667,180.5 69.8333,180.5 70.5,180.5C 79.0074,188.174 87.0074,196.341 94.5,205C 83.34,217.327 71.6733,229.16 59.5,240.5C 58.5166,236.702 58.1832,232.702 58.5,228.5C 60.6295,214.849 63.2962,201.183 66.5,187.5C 67.9238,185.485 68.5905,183.152 68.5,180.5 Z"/></g>
<g><path style="opacity:1" fill="#fdcb45" d="M 68.5,180.5 C 68.5905,183.152 67.9238,185.485 66.5,187.5C 66.4095,184.848 67.0762,182.515 68.5,180.5 Z"/></g>
<g><path style="opacity:1" fill="#fffcf8" d="M 105.5,215.5 C 118.812,228.146 131.812,241.146 144.5,254.5C 131.847,267.653 119.014,280.653 106,293.5C 93.1667,280.667 80.3333,267.833 67.5,255C 80.006,241.661 92.6727,228.494 105.5,215.5 Z"/></g>
<g><path style="opacity:1" fill="#fdfbf7" d="M 204.5,215.5 C 218.428,227.759 231.761,240.759 244.5,254.5C 231.833,267.833 218.833,280.833 205.5,293.5C 192.167,280.833 179.167,267.833 166.5,254.5C 179.908,242.094 192.574,229.094 204.5,215.5 Z"/></g>
<g><path style="opacity:1" fill="#fdfbf7" d="M 304.5,215.5 C 317.765,228.43 331.098,241.43 344.5,254.5C 331.833,267.833 318.833,280.833 305.5,293.5C 292.167,280.833 279.167,267.833 266.5,254.5C 279.188,241.479 291.855,228.479 304.5,215.5 Z"/></g>
<g><path style="opacity:1" fill="#fffcf8" d="M 404.5,215.5 C 417.812,228.146 430.812,241.146 443.5,254.5C 430.833,267.5 418.167,280.5 405.5,293.5C 392.167,280.833 379.167,267.833 366.5,254.5C 379.188,241.479 391.855,228.479 404.5,215.5 Z"/></g>
<g><path style="opacity:1" fill="#a07822" d="M 44.5,255.5 C 35.5356,246.035 26.3689,236.702 17,227.5C 16.8138,230.036 16.3138,232.369 15.5,234.5C 15.1826,231.428 15.5159,228.428 16.5,225.5C 26.1525,234.652 35.6525,243.986 45,253.5C 45.6917,254.437 45.525,255.103 44.5,255.5 Z"/></g>
<g><path style="opacity:1" fill="#cdc9c3" d="M 44.5,255.5 C 35.8333,264.833 26.8333,273.833 17.5,282.5C 16.8333,280.5 16.1667,278.5 15.5,276.5C 14.2436,262.474 14.2436,248.474 15.5,234.5C 16.3138,232.369 16.8138,230.036 17,227.5C 26.3689,236.702 35.5356,246.035 44.5,255.5 Z"/></g>
<g><path style="opacity:1" fill="#faf5eb" d="M 493.5,226.5 C 494.167,229.167 494.833,231.833 495.5,234.5C 496.756,248.474 496.756,262.474 495.5,276.5C 494.833,278.5 494.167,280.5 493.5,282.5C 483.854,273.521 474.521,264.188 465.5,254.5C 475.188,245.479 484.521,236.146 493.5,226.5 Z"/></g>
<g><path style="opacity:1" fill="#a38832" d="M 493.5,226.5 C 493.56,225.957 493.893,225.624 494.5,225.5C 495.484,228.428 495.817,231.428 495.5,234.5C 494.833,231.833 494.167,229.167 493.5,226.5 Z"/></g>
<g><path style="opacity:1" fill="#e9bc40" d="M 58.5,228.5 C 58.1832,232.702 58.5166,236.702 59.5,240.5C 58.8333,241.833 57.8333,242.833 56.5,243.5C 57.0063,238.346 57.673,233.346 58.5,228.5 Z"/></g>
<g><path style="opacity:1" fill="#d3cdc5" d="M 55.5,266.5 C 56.1667,267.833 56.8333,269.167 57.5,270.5C 59.291,288.243 62.291,305.91 66.5,323.5C 66.8333,326.167 67.1667,328.833 67.5,331.5C 63.5,335.167 59.5,338.833 55.5,342.5C 43.5349,331.035 31.7015,319.369 20,307.5C 19.3333,305.5 19.3333,303.5 20,301.5C 31.7015,289.631 43.5349,277.965 55.5,266.5 Z"/></g>
<g><path style="opacity:1" fill="#fefdfa" d="M 154.5,265.5 C 168.428,277.759 181.761,290.759 194.5,304.5C 181.833,317.833 168.833,330.833 155.5,343.5C 142.833,330.5 130.167,317.5 117.5,304.5C 129.486,292.014 141.652,279.681 154,267.5C 154.464,266.906 154.631,266.239 154.5,265.5 Z"/></g>
<g><path style="opacity:1" fill="#fcf9f4" d="M 254.5,265.5 C 268.428,277.759 281.761,290.759 294.5,304.5C 281.833,317.833 268.833,330.833 255.5,343.5C 242.167,330.833 229.167,317.833 216.5,304.5C 229.188,291.479 241.855,278.479 254.5,265.5 Z"/></g>
<g><path style="opacity:1" fill="#fefdfa" d="M 354.5,265.5 C 367.764,278.098 380.764,291.098 393.5,304.5C 380.833,317.5 368.167,330.5 355.5,343.5C 342.167,330.833 329.167,317.833 316.5,304.5C 329.188,291.479 341.855,278.479 354.5,265.5 Z"/></g>
<g><path style="opacity:1" fill="#fffcf6" d="M 454.5,265.5 C 466.798,277.298 478.965,289.298 491,301.5C 491.667,303.5 491.667,305.5 491,307.5C 479,319.5 467,331.5 455,343.5C 441.986,330.653 429.153,317.653 416.5,304.5C 429.188,291.479 441.855,278.479 454.5,265.5 Z"/></g>
<g><path style="opacity:1" fill="#deac35" d="M 55.5,266.5 C 57.0252,265.611 58.0252,266.278 58.5,268.5C 57.6618,268.842 57.3284,269.508 57.5,270.5C 56.8333,269.167 56.1667,267.833 55.5,266.5 Z"/></g>
<g><path style="opacity:1" fill="#fefffe" d="M 58.5,268.5 C 70.1454,280.479 81.812,292.479 93.5,304.5C 85.4786,312.854 77.4786,321.187 69.5,329.5C 68.5,327.5 67.5,325.5 66.5,323.5C 62.291,305.91 59.291,288.243 57.5,270.5C 57.3284,269.508 57.6618,268.842 58.5,268.5 Z"/></g>
<g><path style="opacity:1" fill="#9a8130" d="M 58.5,268.5 C 71.4272,279.759 83.7606,291.759 95.5,304.5C 87.1457,313.521 78.479,322.188 69.5,330.5C 69.5,330.167 69.5,329.833 69.5,329.5C 77.4786,321.187 85.4786,312.854 93.5,304.5C 81.812,292.479 70.1454,280.479 58.5,268.5 Z"/></g>
<g><path style="opacity:1" fill="#987321" d="M 15.5,276.5 C 16.1667,278.5 16.8333,280.5 17.5,282.5C 17.44,283.043 17.1067,283.376 16.5,283.5C 15.5258,281.257 15.1924,278.924 15.5,276.5 Z"/></g>
<g><path style="opacity:1" fill="#967d2e" d="M 495.5,276.5 C 495.808,278.924 495.474,281.257 494.5,283.5C 493.893,283.376 493.56,283.043 493.5,282.5C 494.167,280.5 494.833,278.5 495.5,276.5 Z"/></g>
<g><path style="opacity:1" fill="#fefdfb" d="M 106.5,316.5 C 118.465,328.965 130.631,341.298 143,353.5C 143.464,354.094 143.631,354.761 143.5,355.5C 131.202,368.298 118.702,380.965 106,393.5C 99.6306,387.298 93.4639,380.965 87.5,374.5C 86.9213,371.669 85.588,369.336 83.5,367.5C 82.6236,363.418 80.9569,359.751 78.5,356.5C 78.6716,355.508 78.3382,354.842 77.5,354.5C 77.5979,352.447 76.9313,350.78 75.5,349.5C 75.6716,348.508 75.3382,347.842 74.5,347.5C 84.8603,336.128 95.527,325.795 106.5,316.5 Z"/></g>
<g><path style="opacity:1" fill="#a88c34" d="M 106.5,316.5 C 119.414,327.911 131.914,339.911 144,352.5C 144.74,353.749 144.573,354.749 143.5,355.5C 143.631,354.761 143.464,354.094 143,353.5C 130.631,341.298 118.465,328.965 106.5,316.5 Z"/></g>
<g><path style="opacity:1" fill="#fdfbf7" d="M 204.5,315.5 C 218.428,327.759 231.761,340.759 244.5,354.5C 231.833,367.833 218.833,380.833 205.5,393.5C 192.639,380.473 179.972,367.306 167.5,354C 179.66,341.006 191.993,328.173 204.5,315.5 Z"/></g>
<g><path style="opacity:1" fill="#fdfbf7" d="M 304.5,315.5 C 318.288,327.454 331.288,340.287 343.5,354C 331.333,367.5 318.5,380.333 305,392.5C 291.694,380.361 278.861,367.694 266.5,354.5C 279.188,341.479 291.855,328.479 304.5,315.5 Z"/></g>
<g><path style="opacity:1" fill="#fffcf8" d="M 404.5,315.5 C 417.764,328.098 430.764,341.098 443.5,354.5C 430.847,367.653 418.014,380.653 405,393.5C 391.986,380.653 379.153,367.653 366.5,354.5C 379.188,341.479 391.855,328.479 404.5,315.5 Z"/></g>
<g><path style="opacity:1" fill="#fac43e" d="M 66.5,323.5 C 67.5,325.5 68.5,327.5 69.5,329.5C 69.5,329.833 69.5,330.167 69.5,330.5C 68.8333,330.5 68.5,330.833 68.5,331.5C 68.1667,331.5 67.8333,331.5 67.5,331.5C 67.1667,328.833 66.8333,326.167 66.5,323.5 Z"/></g>
<g><path style="opacity:1" fill="#84641d" d="M 67.5,331.5 C 67.8333,331.5 68.1667,331.5 68.5,331.5C 65.0371,335.464 61.3705,339.298 57.5,343C 56.5632,343.692 55.8966,343.525 55.5,342.5C 59.5,338.833 63.5,335.167 67.5,331.5 Z"/></g>
<g><path style="opacity:1" fill="#c0a13b" d="M 479.5,343.5 C 479.672,342.508 479.338,341.842 478.5,341.5C 479.122,340.373 479.955,339.373 481,338.5C 481.599,340.535 481.099,342.201 479.5,343.5 Z"/></g>
<g><path style="opacity:1" fill="#bb8d28" d="M 32.5,341.5 C 31.6618,341.842 31.3284,342.508 31.5,343.5C 29.9014,342.201 29.4014,340.535 30,338.5C 31.045,339.373 31.8783,340.373 32.5,341.5 Z"/></g>
<g><path style="opacity:1" fill="#c7b69c" d="M 32.5,341.5 C 37.1456,345.479 41.479,349.812 45.5,354.5C 43.2092,356.288 41.0425,358.288 39,360.5C 35.3998,355.301 32.8998,349.635 31.5,343.5C 31.3284,342.508 31.6618,341.842 32.5,341.5 Z"/></g>
<g><path style="opacity:1" fill="#ebe1cc" d="M 478.5,341.5 C 479.338,341.842 479.672,342.508 479.5,343.5C 478.234,349.36 475.9,354.693 472.5,359.5C 470.167,357.833 468.167,355.833 466.5,353.5C 470.167,349.167 474.167,345.167 478.5,341.5 Z"/></g>
<g><path style="opacity:1" fill="#d3c6b5" d="M 74.5,347.5 C 75.3382,347.842 75.6716,348.508 75.5,349.5C 75.4021,351.553 76.0687,353.22 77.5,354.5C 78.3382,354.842 78.6716,355.508 78.5,356.5C 79.3764,360.582 81.0431,364.249 83.5,367.5C 83.6716,368.492 83.3382,369.158 82.5,369.5C 77.1608,364.494 71.8275,359.494 66.5,354.5C 69.1864,352.144 71.853,349.811 74.5,347.5 Z"/></g>
<g><path style="opacity:1" fill="#fcc842" d="M 75.5,349.5 C 76.9313,350.78 77.5979,352.447 77.5,354.5C 76.0687,353.22 75.4021,351.553 75.5,349.5 Z"/></g>
<g><path style="opacity:1" fill="#9e8431" d="M 466.5,353.5 C 468.167,355.833 470.167,357.833 472.5,359.5C 472.103,360.525 471.437,360.692 470.5,360C 469,358.5 467.5,357 466,355.5C 465.308,354.563 465.475,353.897 466.5,353.5 Z"/></g>
<g><path style="opacity:1" fill="#fcc842" d="M 78.5,356.5 C 80.9569,359.751 82.6236,363.418 83.5,367.5C 81.0431,364.249 79.3764,360.582 78.5,356.5 Z"/></g>
<g><path style="opacity:1" fill="#cdc7bf" d="M 55.5,365.5 C 68.7473,377.244 81.5806,389.578 94,402.5C 94.6667,403.5 94.6667,404.5 94,405.5C 89.3186,410.349 84.4852,415.015 79.5,419.5C 66.215,406.548 55.215,391.881 46.5,375.5C 49.5222,372.147 52.5222,368.813 55.5,365.5 Z"/></g>
<g><path style="opacity:1" fill="#f9f5ee" d="M 453.5,365.5 C 457.75,368.079 461.417,371.412 464.5,375.5C 455.749,391.909 444.749,406.575 431.5,419.5C 426.515,415.015 421.681,410.349 417,405.5C 416.333,404.5 416.333,403.5 417,402.5C 429.369,390.298 441.535,377.965 453.5,365.5 Z"/></g>
<g><path style="opacity:1" fill="#fdfbf7" d="M 156.5,366.5 C 168.465,378.965 180.631,391.298 193,403.5C 193.464,404.094 193.631,404.761 193.5,405.5C 181.202,418.298 168.702,430.965 156,443.5C 143.667,431.167 131.333,418.833 119,406.5C 118.018,405.241 117.685,403.908 118,402.5C 130.167,390.333 142.333,378.167 154.5,366C 155.437,365.308 156.103,365.475 156.5,366.5 Z"/></g>
<g><path style="opacity:1" fill="#a38833" d="M 156.5,366.5 C 169.414,377.911 181.914,389.911 194,402.5C 194.74,403.749 194.573,404.749 193.5,405.5C 193.631,404.761 193.464,404.094 193,403.5C 180.631,391.298 168.465,378.965 156.5,366.5 Z"/></g>
<g><path style="opacity:1" fill="#fefdfa" d="M 254.5,365.5 C 268.428,377.759 281.761,390.759 294.5,404.5C 281.5,417.167 268.5,429.833 255.5,442.5C 242.5,429.833 229.5,417.167 216.5,404.5C 229.188,391.479 241.855,378.479 254.5,365.5 Z"/></g>
<g><path style="opacity:1" fill="#fefbf5" d="M 354.5,365.5 C 368.094,377.426 381.094,390.092 393.5,403.5C 381.504,417.329 368.671,430.329 355,442.5C 341.694,430.361 328.861,417.694 316.5,404.5C 329.188,391.479 341.855,378.479 354.5,365.5 Z"/></g>
<g><path style="opacity:1" fill="#f6bf3c" d="M 83.5,367.5 C 85.588,369.336 86.9213,371.669 87.5,374.5C 85.5,373.167 83.8333,371.5 82.5,369.5C 83.3382,369.158 83.6716,368.492 83.5,367.5 Z"/></g>
<g><path style="opacity:1" fill="#cec7bf" d="M 104.5,415.5 C 105.552,415.351 106.552,415.517 107.5,416C 119.667,428.167 131.833,440.333 144,452.5C 144.667,453.5 144.667,454.5 144,455.5C 141,458.5 138,461.5 135,464.5C 119.081,455.203 104.414,444.203 91,431.5C 90.3333,430.833 90.3333,430.167 91,429.5C 95.7033,424.965 100.203,420.298 104.5,415.5 Z"/></g>
<g><path style="opacity:1" fill="#f8f4eb" d="M 403.5,415.5 C 404.552,415.351 405.552,415.517 406.5,416C 411,420.5 415.5,425 420,429.5C 420.667,430.167 420.667,430.833 420,431.5C 410.104,440.728 399.604,449.228 388.5,457C 384.215,460.149 379.549,462.149 374.5,463C 372,460.5 369.5,458 367,455.5C 366.333,454.5 366.333,453.5 367,452.5C 379.369,440.298 391.535,427.965 403.5,415.5 Z"/></g>
<g><path style="opacity:1" fill="#fffdfb" d="M 206.5,416.5 C 218.465,428.965 230.631,441.298 243,453.5C 243.464,454.094 243.631,454.761 243.5,455.5C 233.167,465.167 223.167,475.167 213.5,485.5C 212.833,485.5 212.167,485.5 211.5,485.5C 210.22,484.069 208.553,483.402 206.5,483.5C 206.158,482.662 205.492,482.328 204.5,482.5C 201.249,480.043 197.582,478.376 193.5,477.5C 191.664,475.412 189.331,474.079 186.5,473.5C 179.702,467.203 173.035,460.703 166.5,454C 179.167,441.333 191.833,428.667 204.5,416C 205.437,415.308 206.103,415.475 206.5,416.5 Z"/></g>
<g><path style="opacity:1" fill="#a78b33" d="M 206.5,416.5 C 219.414,427.911 231.914,439.911 244,452.5C 244.74,453.749 244.573,454.749 243.5,455.5C 243.631,454.761 243.464,454.094 243,453.5C 230.631,441.298 218.465,428.965 206.5,416.5 Z"/></g>
<g><path style="opacity:1" fill="#fffcf8" d="M 304.5,415.5 C 318.247,427.744 331.581,440.578 344.5,454C 331.927,467.075 318.927,479.575 305.5,491.5C 304.833,491.333 304.167,491.167 303.5,491C 291.319,478.652 278.986,466.486 266.5,454.5C 279.188,441.479 291.855,428.479 304.5,415.5 Z"/></g>
<g><path style="opacity:1" fill="#cdbca3" d="M 169.5,478.5 C 169.158,479.338 168.492,479.672 167.5,479.5C 161.085,477.805 155.085,475.138 149.5,471.5C 151.483,469.016 153.65,466.683 156,464.5C 160.703,469.035 165.203,473.702 169.5,478.5 Z"/></g>
<g><path style="opacity:1" fill="#ece1c9" d="M 343.5,479.5 C 342.508,479.672 341.842,479.338 341.5,478.5C 345.296,474.202 349.296,470.036 353.5,466C 357.003,466.293 359.669,468.126 361.5,471.5C 355.969,475.266 349.969,477.933 343.5,479.5 Z"/></g>
<g><path style="opacity:1" fill="#fbf7f0" d="M 256.5,466.5 C 265.298,475.798 274.298,484.965 283.5,494C 280.964,494.186 278.631,494.686 276.5,495.5C 259.495,496.886 242.495,496.719 225.5,495C 235.167,485.333 244.833,475.667 254.5,466C 255.437,465.308 256.103,465.475 256.5,466.5 Z"/></g>
<g><path style="opacity:1" fill="#a08632" d="M 256.5,466.5 C 266.759,475.091 276.426,484.424 285.5,494.5C 282.572,495.484 279.572,495.817 276.5,495.5C 278.631,494.686 280.964,494.186 283.5,494C 274.298,484.965 265.298,475.798 256.5,466.5 Z"/></g>
<g><path style="opacity:1" fill="#f8c13d" d="M 186.5,473.5 C 189.331,474.079 191.664,475.412 193.5,477.5C 192.508,477.328 191.842,477.662 191.5,478.5C 189.5,477.167 187.833,475.5 186.5,473.5 Z"/></g>
<g><path style="opacity:1" fill="#d4c6b4" d="M 193.5,477.5 C 196.751,479.957 200.418,481.624 204.5,482.5C 205.492,482.328 206.158,482.662 206.5,483.5C 207.78,484.931 209.447,485.598 211.5,485.5C 212.167,485.5 212.833,485.5 213.5,485.5C 211.396,487.099 209.396,488.932 207.5,491C 206.167,491.667 204.833,491.667 203.5,491C 199.296,486.964 195.296,482.798 191.5,478.5C 191.842,477.662 192.508,477.328 193.5,477.5 Z"/></g>
<g><path style="opacity:1" fill="#ad8225" d="M 169.5,478.5 C 170.627,479.122 171.627,479.955 172.5,481C 170.465,481.599 168.799,481.099 167.5,479.5C 168.492,479.672 169.158,479.338 169.5,478.5 Z"/></g>
<g><path style="opacity:1" fill="#fcc842" d="M 193.5,477.5 C 197.582,478.376 201.249,480.043 204.5,482.5C 200.418,481.624 196.751,479.957 193.5,477.5 Z"/></g>
<g><path style="opacity:1" fill="#af9236" d="M 341.5,478.5 C 341.842,479.338 342.508,479.672 343.5,479.5C 342.201,481.099 340.535,481.599 338.5,481C 339.373,479.955 340.373,479.122 341.5,478.5 Z"/></g>
<g><path style="opacity:1" fill="#fcc741" d="M 206.5,483.5 C 208.553,483.402 210.22,484.069 211.5,485.5C 209.447,485.598 207.78,484.931 206.5,483.5 Z"/></g>
</svg>
