<?xml version="1.0" encoding="UTF-8"?>
<!DOCTYPE svg PUBLIC "-//W3C//DTD SVG 1.1//EN" "http://www.w3.org/Graphics/SVG/1.1/DTD/svg11.dtd">
<svg xmlns="http://www.w3.org/2000/svg" version="1.1" width="512px" height="512px" style="shape-rendering:geometricPrecision; text-rendering:geometricPrecision; image-rendering:optimizeQuality; fill-rule:evenodd; clip-rule:evenodd" xmlns:xlink="http://www.w3.org/1999/xlink">
<g><path style="opacity:0.972" fill="#010000" d="M 511.5,456.5 C 511.5,459.5 511.5,462.5 511.5,465.5C 510.023,467.807 508.023,469.64 505.5,471C 338.833,471.667 172.167,471.667 5.5,471C 2.97739,469.64 0.977392,467.807 -0.5,465.5C -0.5,462.5 -0.5,459.5 -0.5,456.5C 1.06914,453.772 3.40247,451.938 6.5,451C 12.5,450.667 18.5,450.333 24.5,450C 37.8333,436.667 51.1667,423.333 64.5,410C 69.0759,406.847 73.7425,406.68 78.5,409.5C 81.2009,413.409 82.0342,417.742 81,422.5C 72.036,431.393 63.2026,440.393 54.5,449.5C 53.9569,449.56 53.6236,449.893 53.5,450.5C 188.167,451.833 322.833,451.833 457.5,450.5C 457.376,449.893 457.043,449.56 456.5,449.5C 414.828,407.995 372.995,366.661 331,325.5C 318.349,330.957 305.183,333.457 291.5,333C 283.338,331.508 276.672,327.508 271.5,321C 262.968,316.235 253.968,315.235 244.5,318C 238.833,322.333 233.167,326.667 227.5,331C 218.686,335.469 209.353,337.136 199.5,336C 191.135,334.524 182.969,332.357 175,329.5C 164.522,339.978 154.022,350.478 143.5,361C 138.266,364.105 132.933,364.271 127.5,361.5C 124.678,356.412 124.845,351.412 128,346.5C 135.833,338.667 143.667,330.833 151.5,323C 103.793,302.733 65.2932,271.233 36,228.5C 33.3333,223.833 30.6667,219.167 28,214.5C 23.9741,193.879 32.3074,181.879 53,178.5C 59.4021,179.079 65.2354,181.246 70.5,185C 124.306,234.034 186.639,249.367 257.5,231C 278.008,224.579 297.008,215.246 314.5,203C 324.5,195 334.5,187 344.5,179C 371.939,170.641 399.272,161.974 426.5,153C 431.251,147.134 435.084,140.634 438,133.5C 448.079,110.185 453.912,85.8521 455.5,60.5C 451.154,60.6657 446.821,60.499 442.5,60C 435.128,55.779 433.628,49.9456 438,42.5C 439.171,41.1068 440.671,40.2735 442.5,40C 452.6,39.0513 462.6,39.3846 472.5,41C 474.049,42.214 475.215,43.714 476,45.5C 477.117,69.6786 474.117,93.3453 467,116.5C 461.83,131.838 455.83,146.838 449,161.5C 442.844,193.616 436.177,225.616 429,257.5C 427.066,261.759 424.732,265.759 422,269.5C 401.695,288.909 378.862,304.742 353.5,317C 397.833,361.333 442.167,405.667 486.5,450C 493.579,450.114 500.579,450.781 507.5,452C 509.07,453.397 510.404,454.897 511.5,456.5 Z"/></g>
<g><path style="opacity:1" fill="#84d78a" d="M 421.5,176.5 C 422.5,176.5 423.5,176.5 424.5,176.5C 423.119,186.24 421.285,195.907 419,205.5C 411.985,198.652 405.152,191.652 398.5,184.5C 406.21,181.665 413.877,178.998 421.5,176.5 Z"/></g>
<g><path style="opacity:1" fill="#fd7c96" d="M 360.5,194.5 C 368.704,193.462 376.371,194.962 383.5,199C 391.752,206.517 399.586,214.35 407,222.5C 412.915,233.087 412.915,243.754 407,254.5C 376.85,285.083 340.517,304.75 298,313.5C 292.101,312.629 287.268,309.796 283.5,305C 259.704,290.241 238.038,292.908 218.5,313C 214.381,314.947 210.047,316.113 205.5,316.5C 137.428,302.905 84.9281,266.905 48,208.5C 46.6714,202.166 49.1714,199.332 55.5,200C 111.437,251.322 176.771,269.322 251.5,254C 289.86,244.493 323.193,226.16 351.5,199C 354.592,197.454 357.592,195.954 360.5,194.5 Z"/></g>
<g><path style="opacity:1" fill="#fe5c7c" d="M 456.5,449.5 C 322.5,450.833 188.5,450.833 54.5,449.5C 63.2026,440.393 72.036,431.393 81,422.5C 82.0342,417.742 81.2009,413.409 78.5,409.5C 84.1667,404.167 89.8333,398.833 95.5,393.5C 110.882,398.118 116.216,392.784 111.5,377.5C 116.5,371.833 121.833,366.5 127.5,361.5C 132.933,364.271 138.266,364.105 143.5,361C 154.022,350.478 164.522,339.978 175,329.5C 182.969,332.357 191.135,334.524 199.5,336C 209.353,337.136 218.686,335.469 227.5,331C 233.167,326.667 238.833,322.333 244.5,318C 253.968,315.235 262.968,316.235 271.5,321C 276.672,327.508 283.338,331.508 291.5,333C 305.183,333.457 318.349,330.957 331,325.5C 372.995,366.661 414.828,407.995 456.5,449.5 Z"/></g>
<g><path style="opacity:0.949" fill="#040101" d="M 111.5,377.5 C 116.216,392.784 110.882,398.118 95.5,393.5C 91.1667,378.5 96.5,373.167 111.5,377.5 Z"/></g>
<g><path style="opacity:1" fill="#873142" d="M 54.5,449.5 C 188.5,450.833 322.5,450.833 456.5,449.5C 457.043,449.56 457.376,449.893 457.5,450.5C 322.833,451.833 188.167,451.833 53.5,450.5C 53.6236,449.893 53.9569,449.56 54.5,449.5 Z"/></g>
</svg>
