<?xml version="1.0" encoding="UTF-8"?>
<!DOCTYPE svg PUBLIC "-//W3C//DTD SVG 1.1//EN" "http://www.w3.org/Graphics/SVG/1.1/DTD/svg11.dtd">
<svg xmlns="http://www.w3.org/2000/svg" version="1.1" width="512px" height="512px" style="shape-rendering:geometricPrecision; text-rendering:geometricPrecision; image-rendering:optimizeQuality; fill-rule:evenodd; clip-rule:evenodd" xmlns:xlink="http://www.w3.org/1999/xlink">
<g><path style="opacity:0.988" fill="#231f20" d="M 246.5,-0.5 C 252.5,-0.5 258.5,-0.5 264.5,-0.5C 277.475,4.30343 286.808,13.1368 292.5,26C 314.389,26.185 328.556,36.685 335,57.5C 335.942,63.8033 336.609,70.1366 337,76.5C 342.635,81.1335 347.968,86.1335 353,91.5C 359.922,102.196 362.255,113.863 360,126.5C 358.451,133.42 355.951,139.92 352.5,146C 356.819,152.94 359.985,160.44 362,168.5C 364.241,180.563 362.241,191.897 356,202.5C 351.644,207.854 346.977,212.854 342,217.5C 345.407,235.167 341.241,250.667 329.5,264C 318.015,273.128 305.015,276.128 290.5,273C 277.313,295.173 258.98,300.839 235.5,290C 229.108,285.541 224.108,279.874 220.5,273C 195.483,277.584 178.65,268.084 170,244.5C 169.045,240.223 168.545,235.889 168.5,231.5C 168.919,226.814 169.085,222.147 169,217.5C 162.982,212.146 157.648,206.146 153,199.5C 146.866,185.888 146.533,172.222 152,158.5C 155.038,154.793 157.205,150.626 158.5,146C 149.724,130.899 148.224,115.065 154,98.5C 158.205,88.2904 165.539,81.6238 176,78.5C 178.009,78.7579 179.843,79.4245 181.5,80.5C 183.288,83.2281 183.788,86.2281 183,89.5C 178.384,93.7875 174.05,98.4541 170,103.5C 164.658,115.065 165.658,126.065 173,136.5C 174.947,142.819 174.947,149.152 173,155.5C 162.946,168.144 161.946,181.477 170,195.5C 171.371,197.041 172.871,198.375 174.5,199.5C 179.273,202.776 182.773,207.11 185,212.5C 185.189,220.508 185.189,228.508 185,236.5C 189.342,254.084 200.176,260.418 217.5,255.5C 227.173,256.006 234.007,260.673 238,269.5C 240.747,272.754 243.914,275.42 247.5,277.5C 259.899,281.193 269.065,277.193 275,265.5C 277.747,262.246 280.914,259.58 284.5,257.5C 288.654,255.274 292.987,254.941 297.5,256.5C 313.066,258.8 322.566,252.133 326,236.5C 325.811,228.508 325.811,220.508 326,212.5C 329.57,205.595 334.57,199.929 341,195.5C 349.054,181.477 348.054,168.144 338,155.5C 336.053,149.152 336.053,142.819 338,136.5C 345.342,126.065 346.342,115.065 341,103.5C 339.334,100.669 337.168,98.3355 334.5,96.5C 321.797,88.409 316.63,76.7423 319,61.5C 314.568,47.6919 305.068,41.5252 290.5,43C 285.259,41.7612 281.092,38.9279 278,34.5C 275.667,30.5 273.333,26.5 271,22.5C 269.729,21.1175 268.229,20.1175 266.5,19.5C 257.009,13.4407 248.176,14.4407 240,22.5C 236.997,29.1686 232.831,35.0019 227.5,40C 220.863,42.9796 213.863,44.313 206.5,44C 201.882,46.9504 197.548,50.2838 193.5,54C 190.808,54.4298 188.141,54.2631 185.5,53.5C 181.019,46.8889 182.019,41.0556 188.5,36C 197.655,29.1696 207.988,25.503 219.5,25C 224.861,12.4679 233.861,3.96788 246.5,-0.5 Z"/></g>
<g><path style="opacity:1" fill="#d0b0fc" d="M 266.5,19.5 C 256.341,22.8219 249.174,29.4885 245,39.5C 243.833,41.3333 242.333,42.8333 240.5,44C 221.059,43.4683 208.225,52.3016 202,70.5C 201.879,77.2464 201.212,83.913 200,90.5C 198.833,92.3333 197.667,94.1667 196.5,96C 177.28,107.342 171.78,123.509 180,144.5C 184.186,149.816 185.519,155.816 184,162.5C 179.94,167.953 176.94,173.953 175,180.5C 174.5,186.825 174.334,193.158 174.5,199.5C 172.871,198.375 171.371,197.041 170,195.5C 161.946,181.477 162.946,168.144 173,155.5C 174.947,149.152 174.947,142.819 173,136.5C 165.658,126.065 164.658,115.065 170,103.5C 174.05,98.4541 178.384,93.7875 183,89.5C 183.788,86.2281 183.288,83.2281 181.5,80.5C 181.938,71.3597 183.271,62.3597 185.5,53.5C 188.141,54.2631 190.808,54.4298 193.5,54C 197.548,50.2838 201.882,46.9504 206.5,44C 213.863,44.313 220.863,42.9796 227.5,40C 232.831,35.0019 236.997,29.1686 240,22.5C 248.176,14.4407 257.009,13.4407 266.5,19.5 Z"/></g>
<g><path style="opacity:1" fill="#c890fe" d="M 266.5,19.5 C 268.229,20.1175 269.729,21.1175 271,22.5C 273.333,26.5 275.667,30.5 278,34.5C 281.092,38.9279 285.259,41.7612 290.5,43C 305.068,41.5252 314.568,47.6919 319,61.5C 316.63,76.7423 321.797,88.409 334.5,96.5C 336.344,109.212 333.844,121.212 327,132.5C 326.233,136.594 326.566,140.594 328,144.5C 342.204,166.925 338.871,186.259 318,202.5C 317.333,203.833 316.667,205.167 316,206.5C 318.357,219.9 316.357,232.566 310,244.5C 306.358,249.146 301.858,252.646 296.5,255C 297.056,255.383 297.389,255.883 297.5,256.5C 292.987,254.941 288.654,255.274 284.5,257.5C 279.329,255.155 273.996,254.989 268.5,257C 263.97,263.042 258.97,268.709 253.5,274C 251.273,274.941 249.273,276.108 247.5,277.5C 243.914,275.42 240.747,272.754 238,269.5C 234.007,260.673 227.173,256.006 217.5,255.5C 200.176,260.418 189.342,254.084 185,236.5C 185.189,228.508 185.189,220.508 185,212.5C 182.773,207.11 179.273,202.776 174.5,199.5C 174.334,193.158 174.5,186.825 175,180.5C 176.94,173.953 179.94,167.953 184,162.5C 185.519,155.816 184.186,149.816 180,144.5C 171.78,123.509 177.28,107.342 196.5,96C 197.667,94.1667 198.833,92.3333 200,90.5C 201.212,83.913 201.879,77.2464 202,70.5C 208.225,52.3016 221.059,43.4683 240.5,44C 242.333,42.8333 243.833,41.3333 245,39.5C 249.174,29.4885 256.341,22.8219 266.5,19.5 Z"/></g>
<g><path style="opacity:1" fill="#252023" d="M 219.5,61.5 C 231.516,61.3432 234.349,66.3432 228,76.5C 227.333,79.5 227.333,82.5 228,85.5C 239.407,99.4548 239.241,113.288 227.5,127C 218.188,131.599 213.688,128.766 214,118.5C 215.29,116.208 216.957,114.208 219,112.5C 220.483,109.298 220.817,105.964 220,102.5C 208.883,88.9009 208.716,75.2342 219.5,61.5 Z"/></g>
<g><path style="opacity:1" fill="#ae71fa" d="M 334.5,96.5 C 337.168,98.3355 339.334,100.669 341,103.5C 346.342,115.065 345.342,126.065 338,136.5C 336.053,142.819 336.053,149.152 338,155.5C 348.054,168.144 349.054,181.477 341,195.5C 334.57,199.929 329.57,205.595 326,212.5C 325.811,220.508 325.811,228.508 326,236.5C 322.566,252.133 313.066,258.8 297.5,256.5C 297.389,255.883 297.056,255.383 296.5,255C 301.858,252.646 306.358,249.146 310,244.5C 316.357,232.566 318.357,219.9 316,206.5C 316.667,205.167 317.333,203.833 318,202.5C 338.871,186.259 342.204,166.925 328,144.5C 326.566,140.594 326.233,136.594 327,132.5C 333.844,121.212 336.344,109.212 334.5,96.5 Z"/></g>
<g><path style="opacity:1" fill="#252022" d="M 286.5,100.5 C 297.798,101.434 300.298,106.767 294,116.5C 293.333,119.167 293.333,121.833 294,124.5C 297.172,128.841 299.839,133.508 302,138.5C 304.015,149.788 300.849,159.288 292.5,167C 283.457,170.292 279.29,167.126 280,157.5C 285.378,153.414 287.378,148.08 286,141.5C 276.726,130.97 275.059,119.303 281,106.5C 282.36,103.977 284.193,101.977 286.5,100.5 Z"/></g>
<g><path style="opacity:1" fill="#252023" d="M 237.5,162.5 C 246.791,160.702 250.624,164.368 249,173.5C 245.498,177.833 244.832,182.5 247,187.5C 258.951,202.051 258.118,215.884 244.5,229C 235.339,231.509 231.505,228.009 233,218.5C 241.577,210.911 241.577,203.245 233,195.5C 227.397,183.527 228.897,172.527 237.5,162.5 Z"/></g>
<g><path style="opacity:0.989" fill="#231f20" d="M 166.5,511.5 C 160.833,511.5 155.167,511.5 149.5,511.5C 142.219,508.775 135.386,505.108 129,500.5C 105.372,514.041 85.7057,509.708 70,487.5C 67.0665,481.032 64.7332,474.366 63,467.5C 62.1667,466.667 61.3333,465.833 60.5,465C 42.9192,459.752 31.7525,448.252 27,430.5C 26.2525,421.72 26.5859,413.054 28,404.5C 27.3333,403.167 26.6667,401.833 26,400.5C 10.7405,388.389 4.74048,372.723 8,353.5C 10.5953,345.811 14.0953,338.644 18.5,332C 12.0586,317.562 11.8919,303.062 18,288.5C 23.9102,279.596 31.9102,273.263 42,269.5C 46.5583,236.654 64.725,224.488 96.5,233C 102.01,236.588 107.343,240.422 112.5,244.5C 134.182,236.449 151.349,242.116 164,261.5C 166.115,266.896 168.615,272.063 171.5,277C 193.451,281.284 206.284,294.451 210,316.5C 210.12,323.173 210.12,329.839 210,336.5C 234.935,355.511 239.769,378.678 224.5,406C 226.522,411.212 228.688,416.379 231,421.5C 236.863,443.593 230.03,460.427 210.5,472C 206.23,473.254 201.896,474.254 197.5,475C 196.299,475.903 195.465,477.069 195,478.5C 192.352,495.634 182.852,506.634 166.5,511.5 Z"/></g>
<g><path style="opacity:0.988" fill="#241f20" d="M 361.5,511.5 C 355.833,511.5 350.167,511.5 344.5,511.5C 328.148,506.634 318.648,495.634 316,478.5C 315.535,477.069 314.701,475.903 313.5,475C 291.28,471.275 279.28,458.109 277.5,435.5C 278.101,430.789 278.935,426.122 280,421.5C 282.312,416.379 284.478,411.212 286.5,406C 271.236,378.651 276.07,355.485 301,336.5C 298.801,322.358 301.135,309.025 308,296.5C 315.694,285.565 326.194,279.065 339.5,277C 341.587,273.492 343.92,270.158 346.5,267C 348.81,266.503 351.143,266.337 353.5,266.5C 356.661,268.141 358.328,270.807 358.5,274.5C 357.602,281.46 354.269,286.96 348.5,291C 342.118,293.229 335.785,295.562 329.5,298C 318.217,307.187 314.55,318.854 318.5,333C 318.053,338.677 316.219,343.844 313,348.5C 309.185,352.072 305.185,355.405 301,358.5C 293.365,369.324 292.532,380.658 298.5,392.5C 299.907,394.308 301.074,396.308 302,398.5C 302.667,403.5 302.667,408.5 302,413.5C 299.393,418.38 297.06,423.38 295,428.5C 292.432,447.934 300.932,458.434 320.5,460C 326.061,462.562 329.894,466.728 332,472.5C 332.407,476.285 333.241,479.952 334.5,483.5C 340.152,494.331 348.818,497.831 360.5,494C 365.367,490.735 370.367,487.735 375.5,485C 384.429,483.31 392.429,485.31 399.5,491C 411.581,493.209 420.748,489.042 427,478.5C 428.757,470.784 431.424,463.45 435,456.5C 437.592,453.238 440.759,450.738 444.5,449C 459.876,445.765 467.876,436.265 468.5,420.5C 466.84,413.58 466.34,406.58 467,399.5C 468.333,396.833 469.667,394.167 471,391.5C 475.279,387.711 479.279,383.711 483,379.5C 490.03,366.823 488.863,355.157 479.5,344.5C 475.266,334.352 475.766,324.352 481,314.5C 482.744,304.73 479.91,296.563 472.5,290C 458.265,286.364 451.098,277.197 451,262.5C 450.33,259.826 449.163,257.493 447.5,255.5C 444.028,249.391 438.695,246.058 431.5,245.5C 426.797,245.901 422.464,247.401 418.5,250C 413.222,256.556 406.388,260.056 398,260.5C 391.646,258.72 385.146,257.554 378.5,257C 375.558,255.564 373.558,253.397 372.5,250.5C 372.218,243.284 375.718,239.95 383,240.5C 388.456,240.757 393.623,242.091 398.5,244.5C 402.309,241.858 405.976,239.025 409.5,236C 428.417,225.285 445.25,227.785 460,243.5C 465.143,251.397 468.143,260.064 469,269.5C 490.965,278.413 500.298,294.746 497,318.5C 495.899,323.137 494.399,327.637 492.5,332C 495.685,336.883 498.518,342.05 501,347.5C 507.922,368.804 502.588,386.471 485,400.5C 482.13,404.256 481.797,408.256 484,412.5C 486.98,439.161 475.813,456.661 450.5,465C 449.667,465.833 448.833,466.667 448,467.5C 444.975,486.758 434.475,499.925 416.5,507C 403.99,510.164 392.49,507.997 382,500.5C 375.614,505.108 368.781,508.775 361.5,511.5 Z"/></g>
<g><path style="opacity:1" fill="#daa24f" d="M 205.5,455.5 C 204.7,450.306 203.867,444.972 203,439.5C 199.962,433.492 197.462,427.326 195.5,421C 198.158,413.837 200.992,406.67 204,399.5C 206.162,381.492 199.496,367.826 184,358.5C 183,356.5 182,354.5 181,352.5C 181.055,344.836 181.055,337.169 181,329.5C 176.445,311.618 164.945,301.452 146.5,299C 145.333,297.833 144.167,296.667 143,295.5C 139.759,284.824 133.926,275.991 125.5,269C 116.121,262.693 106.454,262.026 96.5,267C 93.8333,267.667 91.1667,267.667 88.5,267C 84.2171,264.385 80.2171,261.385 76.5,258C 72.7415,256.121 69.0748,254.287 65.5,252.5C 73.6032,244.135 82.6032,243.302 92.5,250C 96.6098,254.109 101.277,257.443 106.5,260C 116.12,259.034 125.787,258.368 135.5,258C 140.519,260.015 144.685,263.182 148,267.5C 151.239,272.876 153.905,278.542 156,284.5C 158.167,286.667 160.333,288.833 162.5,291C 168.833,293.333 175.167,295.667 181.5,298C 192.783,307.187 196.45,318.854 192.5,333C 192.947,338.677 194.781,343.844 198,348.5C 201.815,352.072 205.815,355.405 210,358.5C 218.906,372.022 218.573,385.355 209,398.5C 208.333,403.5 208.333,408.5 209,413.5C 211.607,418.38 213.94,423.38 216,428.5C 217.499,436.373 216.166,443.706 212,450.5C 210.242,452.765 208.075,454.432 205.5,455.5 Z"/></g>
<g><path style="opacity:1" fill="#fcdd6e" d="M 447.5,255.5 C 442.667,255.375 438,256.208 433.5,258C 428.42,262.087 423.087,265.754 417.5,269C 408.653,267.293 399.653,266.626 390.5,267C 381.741,269.628 374.908,274.795 370,282.5C 367.541,288.559 364.708,294.392 361.5,300C 354.147,302.876 346.814,305.876 339.5,309C 327.102,319.425 322.435,332.592 325.5,348.5C 325.393,351.567 324.893,354.567 324,357.5C 318.946,363.044 313.613,368.377 308,373.5C 304.787,379.925 301.621,386.259 298.5,392.5C 292.532,380.658 293.365,369.324 301,358.5C 305.185,355.405 309.185,352.072 313,348.5C 316.219,343.844 318.053,338.677 318.5,333C 314.55,318.854 318.217,307.187 329.5,298C 335.785,295.562 342.118,293.229 348.5,291C 354.269,286.96 357.602,281.46 358.5,274.5C 358.328,270.807 356.661,268.141 353.5,266.5C 357.625,258.596 363.958,253.263 372.5,250.5C 373.558,253.397 375.558,255.564 378.5,257C 385.146,257.554 391.646,258.72 398,260.5C 406.388,260.056 413.222,256.556 418.5,250C 422.464,247.401 426.797,245.901 431.5,245.5C 438.695,246.058 444.028,249.391 447.5,255.5 Z"/></g>
<g><path style="opacity:1" fill="#cc8d4f" d="M 65.5,252.5 C 69.0748,254.287 72.7415,256.121 76.5,258C 80.2171,261.385 84.2171,264.385 88.5,267C 91.1667,267.667 93.8333,267.667 96.5,267C 106.454,262.026 116.121,262.693 125.5,269C 133.926,275.991 139.759,284.824 143,295.5C 144.167,296.667 145.333,297.833 146.5,299C 164.945,301.452 176.445,311.618 181,329.5C 181.055,337.169 181.055,344.836 181,352.5C 182,354.5 183,356.5 184,358.5C 199.496,367.826 206.162,381.492 204,399.5C 200.992,406.67 198.158,413.837 195.5,421C 197.462,427.326 199.962,433.492 203,439.5C 203.867,444.972 204.7,450.306 205.5,455.5C 198.973,456.638 192.64,458.805 186.5,462C 183.386,465.06 180.886,468.56 179,472.5C 177.111,490.08 167.611,497.247 150.5,494C 145.458,490.479 140.125,487.479 134.5,485C 130.5,484.333 126.5,484.333 122.5,485C 119.447,486.527 116.447,488.027 113.5,489.5C 107.981,486.823 103.481,482.823 100,477.5C 97.3324,470.15 94.6658,462.816 92,455.5C 91.1667,454.667 90.3333,453.833 89.5,453C 73.5796,449.41 63.0796,439.91 58,424.5C 57.3397,415.404 57.673,406.404 59,397.5C 58.2754,395.051 57.2754,392.717 56,390.5C 40.5172,379.049 35.1839,364.049 40,345.5C 41.5843,341.325 43.9177,337.659 47,334.5C 48.3365,331.991 49.1698,329.324 49.5,326.5C 48.5025,321.674 47.0025,317.007 45,312.5C 43.9986,303.681 44.4986,295.015 46.5,286.5C 52.9961,283.544 57.1628,278.544 59,271.5C 58.708,264.206 60.8747,257.873 65.5,252.5 Z"/></g>
<g><path style="opacity:1" fill="#ae71f9" d="M 284.5,257.5 C 280.914,259.58 277.747,262.246 275,265.5C 269.065,277.193 259.899,281.193 247.5,277.5C 249.273,276.108 251.273,274.941 253.5,274C 258.97,268.709 263.97,263.042 268.5,257C 273.996,254.989 279.329,255.155 284.5,257.5 Z"/></g>
<g><path style="opacity:1" fill="#feb64f" d="M 447.5,255.5 C 449.163,257.493 450.33,259.826 451,262.5C 451.098,277.197 458.265,286.364 472.5,290C 479.91,296.563 482.744,304.73 481,314.5C 475.766,324.352 475.266,334.352 479.5,344.5C 478.259,350.326 476.425,355.993 474,361.5C 469.013,368.151 463.68,374.485 458,380.5C 457.192,382.423 456.692,384.423 456.5,386.5C 463.472,412.732 454.139,429.898 428.5,438C 421.97,443.663 418.47,450.829 418,459.5C 410.891,475.305 398.725,482.138 381.5,480C 377.385,478.777 373.718,476.777 370.5,474C 365.643,471.79 360.976,472.123 356.5,475C 350.46,481.071 343.127,483.904 334.5,483.5C 333.241,479.952 332.407,476.285 332,472.5C 329.894,466.728 326.061,462.562 320.5,460C 300.932,458.434 292.432,447.934 295,428.5C 297.06,423.38 299.393,418.38 302,413.5C 302.667,408.5 302.667,403.5 302,398.5C 301.074,396.308 299.907,394.308 298.5,392.5C 301.621,386.259 304.787,379.925 308,373.5C 313.613,368.377 318.946,363.044 324,357.5C 324.893,354.567 325.393,351.567 325.5,348.5C 322.435,332.592 327.102,319.425 339.5,309C 346.814,305.876 354.147,302.876 361.5,300C 364.708,294.392 367.541,288.559 370,282.5C 374.908,274.795 381.741,269.628 390.5,267C 399.653,266.626 408.653,267.293 417.5,269C 423.087,265.754 428.42,262.087 433.5,258C 438,256.208 442.667,255.375 447.5,255.5 Z"/></g>
<g><path style="opacity:1" fill="#b87f4f" d="M 46.5,286.5 C 44.4986,295.015 43.9986,303.681 45,312.5C 47.0025,317.007 48.5025,321.674 49.5,326.5C 49.1698,329.324 48.3365,331.991 47,334.5C 43.9177,337.659 41.5843,341.325 40,345.5C 35.1839,364.049 40.5172,379.049 56,390.5C 57.2754,392.717 58.2754,395.051 59,397.5C 57.673,406.404 57.3397,415.404 58,424.5C 63.0796,439.91 73.5796,449.41 89.5,453C 90.3333,453.833 91.1667,454.667 92,455.5C 94.6658,462.816 97.3324,470.15 100,477.5C 103.481,482.823 107.981,486.823 113.5,489.5C 100.879,493.961 91.046,490.294 84,478.5C 82.2445,470.795 79.5778,463.462 76,456.5C 71.2601,451.379 65.4268,448.212 58.5,447C 50.3227,442.494 45.1561,435.661 43,426.5C 43.7546,417.544 44.0879,408.544 44,399.5C 42.6667,396.833 41.3333,394.167 40,391.5C 35.7207,387.711 31.7207,383.711 28,379.5C 20.8616,366.469 22.195,354.469 32,343.5C 35.6735,333.584 35.0069,323.917 30,314.5C 28.0808,300.658 33.5808,291.324 46.5,286.5 Z"/></g>
<g><path style="opacity:1" fill="#252020" d="M 58.5,301.5 C 62.8027,300.796 66.3027,302.13 69,305.5C 69.3333,310.833 69.6667,316.167 70,321.5C 73.6482,325.479 77.6482,329.145 82,332.5C 89.7259,344.387 89.2259,355.887 80.5,367C 69.2726,367.74 66.106,362.906 71,352.5C 72.4659,347.265 70.9659,343.099 66.5,340C 60.0986,336.256 55.932,330.756 54,323.5C 53.3333,318.167 53.3333,312.833 54,307.5C 55.332,305.34 56.832,303.34 58.5,301.5 Z"/></g>
<g><path style="opacity:1" fill="#262120" d="M 444.5,306.5 C 450.308,305.652 454.142,307.985 456,313.5C 458.317,327.688 453.483,338.521 441.5,346C 439.959,347.579 438.792,349.413 438,351.5C 437.981,356.124 438.814,360.624 440.5,365C 439.729,371.565 436.062,373.898 429.5,372C 420.396,362.131 419.229,351.298 426,339.5C 430.033,335.132 434.366,331.132 439,327.5C 439.906,325.256 440.406,322.923 440.5,320.5C 438.198,314.621 439.531,309.954 444.5,306.5 Z"/></g>
<g><path style="opacity:1" fill="#262120" d="M 364.5,321.5 C 371.413,319.918 375.58,322.584 377,329.5C 378.228,337.81 376.562,345.477 372,352.5C 367,356.167 362.667,360.5 359,365.5C 358.333,367.5 358.333,369.5 359,371.5C 361.78,375.633 362.113,379.966 360,384.5C 355.291,388.769 350.958,388.436 347,383.5C 338.472,366.416 342.472,353.083 359,343.5C 360.545,340.698 361.378,337.698 361.5,334.5C 359.332,329.323 360.332,324.99 364.5,321.5 Z"/></g>
<g><path style="opacity:1" fill="#262120" d="M 145.5,326.5 C 148.862,326.07 151.695,327.07 154,329.5C 155.12,335.441 155.953,341.441 156.5,347.5C 159.828,350.658 163.328,353.658 167,356.5C 174.869,367.342 175.536,378.675 169,390.5C 161.459,395.727 156.626,393.894 154.5,385C 154.909,382.679 155.743,380.513 157,378.5C 157.667,375.833 157.667,373.167 157,370.5C 153.352,366.521 149.352,362.855 145,359.5C 139.307,350.521 137.974,340.854 141,330.5C 142.397,328.93 143.897,327.596 145.5,326.5 Z"/></g>
<g><path style="opacity:1" fill="#e88d4f" d="M 479.5,344.5 C 488.863,355.157 490.03,366.823 483,379.5C 479.279,383.711 475.279,387.711 471,391.5C 469.667,394.167 468.333,396.833 467,399.5C 466.34,406.58 466.84,413.58 468.5,420.5C 467.876,436.265 459.876,445.765 444.5,449C 440.759,450.738 437.592,453.238 435,456.5C 431.424,463.45 428.757,470.784 427,478.5C 420.748,489.042 411.581,493.209 399.5,491C 392.429,485.31 384.429,483.31 375.5,485C 370.367,487.735 365.367,490.735 360.5,494C 348.818,497.831 340.152,494.331 334.5,483.5C 343.127,483.904 350.46,481.071 356.5,475C 360.976,472.123 365.643,471.79 370.5,474C 373.718,476.777 377.385,478.777 381.5,480C 398.725,482.138 410.891,475.305 418,459.5C 418.47,450.829 421.97,443.663 428.5,438C 454.139,429.898 463.472,412.732 456.5,386.5C 456.692,384.423 457.192,382.423 458,380.5C 463.68,374.485 469.013,368.151 474,361.5C 476.425,355.993 478.259,350.326 479.5,344.5 Z"/></g>
<g><path style="opacity:1" fill="#252020" d="M 109.5,389.5 C 112.93,389.107 116.096,389.773 119,391.5C 120.12,397.441 120.953,403.441 121.5,409.5C 125.792,413.29 129.958,417.29 134,421.5C 139.909,431.754 139.909,442.087 134,452.5C 126.535,457.724 121.702,455.891 119.5,447C 122.22,442.553 123.053,437.72 122,432.5C 118.352,428.521 114.352,424.855 110,421.5C 104.788,413.6 103.121,404.933 105,395.5C 105.804,392.854 107.304,390.854 109.5,389.5 Z"/></g>
<g><path style="opacity:1" fill="#262120" d="M 392.5,394.5 C 399.413,392.918 403.58,395.584 405,402.5C 406.224,410.821 404.557,418.488 400,425.5C 395,429.167 390.667,433.5 387,438.5C 387.964,444.11 388.63,449.777 389,455.5C 386.335,460.434 382.502,461.601 377.5,459C 365.739,441.596 368.906,427.429 387,416.5C 388.545,413.698 389.378,410.698 389.5,407.5C 387.332,402.323 388.332,397.99 392.5,394.5 Z"/></g>
</svg>
