<?xml version="1.0" encoding="UTF-8"?>
<!DOCTYPE svg PUBLIC "-//W3C//DTD SVG 1.1//EN" "http://www.w3.org/Graphics/SVG/1.1/DTD/svg11.dtd">
<svg xmlns="http://www.w3.org/2000/svg" version="1.1" width="256px" height="256px" style="shape-rendering:geometricPrecision; text-rendering:geometricPrecision; image-rendering:optimizeQuality; fill-rule:evenodd; clip-rule:evenodd" xmlns:xlink="http://www.w3.org/1999/xlink">
<g><path style="opacity:0.949" fill="#040302" d="M 6.5,-0.5 C 66.1667,-0.5 125.833,-0.5 185.5,-0.5C 187.596,1.43331 189.096,3.76664 190,6.5C 190.667,70.8333 190.667,135.167 190,199.5C 189.184,200.823 188.017,201.489 186.5,201.5C 184.983,201.489 183.816,200.823 183,199.5C 182.5,159.501 182.333,119.501 182.5,79.5C 179.167,79.5 175.833,79.5 172.5,79.5C 133.832,79.3333 95.1652,79.5 56.5,80C 37.9253,83.5346 22.4253,92.3679 10,106.5C 9.33333,153.5 9.33333,200.5 10,247.5C 67.2643,248.833 124.431,248.833 181.5,247.5C 182.331,236.341 182.831,225.007 183,213.5C 183.816,212.177 184.983,211.511 186.5,211.5C 188.017,211.511 189.184,212.177 190,213.5C 190.667,225.167 190.667,236.833 190,248.5C 189.096,251.233 187.596,253.567 185.5,255.5C 125.833,255.5 66.1667,255.5 6.5,255.5C 4.30409,254.146 2.80409,252.146 2,249.5C 1.33333,182.5 1.33333,115.5 2,48.5C 2.81595,47.1772 3.98261,46.5106 5.5,46.5C 6.53095,47.2485 7.69762,47.9152 9,48.5C 9.16712,64.1773 9.66712,79.844 10.5,95.5C 24.1862,82.3249 40.5196,74.4915 59.5,72C 97.1652,71.5 134.832,71.3333 172.5,71.5C 175.833,71.5 179.167,71.5 182.5,71.5C 182.827,49.9245 182.494,28.4245 181.5,7C 124.332,6.16813 67.3319,6.3348 10.5,7.5C 9.67011,16.6577 9.17011,25.991 9,35.5C 7.69762,36.0848 6.53095,36.7515 5.5,37.5C 3.98261,37.4894 2.81595,36.8228 2,35.5C 1.33333,25.5 1.33333,15.5 2,5.5C 2.80409,2.85408 4.30409,0.854084 6.5,-0.5 Z"/></g>
<g><path style="opacity:0.893" fill="#000000" d="M 215.5,4.5 C 217.722,4.17798 219.556,4.84464 221,6.5C 222.646,25.8076 223.979,45.141 225,64.5C 226.359,45.11 228.025,25.7767 230,6.5C 232.333,3.83333 234.667,3.83333 237,6.5C 236.245,24.495 235.578,42.495 235,60.5C 238.333,43.1617 242.166,25.995 246.5,9C 250.508,7.58437 252.841,8.91771 253.5,13C 248.833,35.6691 244.166,58.3358 239.5,81C 241.685,82.8531 243.518,85.0197 245,87.5C 245.667,114.167 245.667,140.833 245,167.5C 243.446,169.996 241.613,172.163 239.5,174C 244.654,197.436 249.154,220.936 253,244.5C 249.844,247.399 247.178,247.065 245,243.5C 241.795,227.139 238.461,210.806 235,194.5C 235.145,210.519 235.979,226.519 237.5,242.5C 237.333,244.5 237.167,246.5 237,248.5C 232.905,251.637 230.238,250.637 229,245.5C 227.888,227.15 226.554,208.817 225,190.5C 223.979,209.859 222.646,229.192 221,248.5C 219.135,250.673 216.969,251.007 214.5,249.5C 214.167,246.5 213.833,243.5 213.5,240.5C 214.589,223.82 215.423,207.153 216,190.5C 212.588,208.893 208.921,227.226 205,245.5C 202.936,246.591 200.769,246.758 198.5,246C 197.892,244.769 197.559,243.436 197.5,242C 201.641,219.463 205.974,196.963 210.5,174.5C 209.611,172.102 208.111,170.102 206,168.5C 205.333,141.167 205.333,113.833 206,86.5C 207.757,84.5923 209.257,82.5923 210.5,80.5C 205.974,58.0368 201.641,35.5368 197.5,13C 197.559,11.5643 197.892,10.231 198.5,9C 200.769,8.2419 202.936,8.40857 205,9.5C 208.921,27.7741 212.588,46.1074 216,64.5C 215.423,47.8472 214.589,31.1805 213.5,14.5C 213.591,10.9023 214.257,7.56896 215.5,4.5 Z"/></g>
<g><path style="opacity:1" fill="#fbeed7" d="M 10.5,7.5 C 64.5,7.5 118.5,7.5 172.5,7.5C 172.5,28.8333 172.5,50.1667 172.5,71.5C 134.832,71.3333 97.1652,71.5 59.5,72C 40.5196,74.4915 24.1862,82.3249 10.5,95.5C 9.66712,79.844 9.16712,64.1773 9,48.5C 7.69762,47.9152 6.53095,47.2485 5.5,46.5C 5.5,43.5 5.5,40.5 5.5,37.5C 6.53095,36.7515 7.69762,36.0848 9,35.5C 9.17011,25.991 9.67011,16.6577 10.5,7.5 Z"/></g>
<g><path style="opacity:1" fill="#dbc7aa" d="M 10.5,7.5 C 67.3319,6.3348 124.332,6.16813 181.5,7C 182.494,28.4245 182.827,49.9245 182.5,71.5C 179.167,71.5 175.833,71.5 172.5,71.5C 172.5,50.1667 172.5,28.8333 172.5,7.5C 118.5,7.5 64.5,7.5 10.5,7.5 Z"/></g>
<g><path style="opacity:1" fill="#0f0f0d" d="M 26.5,22.5 C 33.2916,21.6673 39.6249,22.834 45.5,26C 51.9606,39.5697 47.6272,46.4031 32.5,46.5C 32.6653,50.1817 32.4986,53.8484 32,57.5C 29.6667,60.1667 27.3333,60.1667 25,57.5C 24.3333,46.5 24.3333,35.5 25,24.5C 25.7172,23.9558 26.2172,23.2891 26.5,22.5 Z"/></g>
<g><path style="opacity:1" fill="#090807" d="M 62.5,22.5 C 65.9523,22.4483 68.119,24.115 69,27.5C 72.6967,36.9231 76.1967,46.4231 79.5,56C 78.5527,59.0723 76.5527,60.0723 73.5,59C 72.373,57.2467 71.373,55.4134 70.5,53.5C 66.2047,52.3391 61.8713,52.1725 57.5,53C 56.6919,55.0876 55.6919,57.0876 54.5,59C 50,59.8333 48.1667,58 49,53.5C 51.863,46.578 54.5297,39.578 57,32.5C 58.0859,28.6536 59.9193,25.3203 62.5,22.5 Z"/></g>
<g><path style="opacity:1" fill="#0b0a09" d="M 92.5,22.5 C 97.0345,22.267 101.368,23.1003 105.5,25C 109.534,28.1422 109.368,30.9755 105,33.5C 101.596,30.8214 97.7622,29.9881 93.5,31C 92.1667,32.3333 92.1667,33.6667 93.5,35C 97.5811,36.4715 101.581,38.1382 105.5,40C 109.714,44.2002 110.548,49.0336 108,54.5C 101.841,60.101 95.0077,60.9343 87.5,57C 85.552,55.561 84.2186,53.7277 83.5,51.5C 83.7753,49.3911 84.942,48.0578 87,47.5C 89.9118,49.9559 93.2451,51.6226 97,52.5C 102.346,52.2068 103.513,50.0402 100.5,46C 94.9231,44.2999 90.0897,41.4665 86,37.5C 85.3333,34.5 85.3333,31.5 86,28.5C 88.0627,26.2659 90.2294,24.2659 92.5,22.5 Z"/></g>
<g><path style="opacity:1" fill="#141312" d="M 115.5,22.5 C 122.175,22.3337 128.842,22.5004 135.5,23C 138.167,25.3333 138.167,27.6667 135.5,30C 133.527,30.4955 131.527,30.6621 129.5,30.5C 129.666,39.5062 129.5,48.5062 129,57.5C 126.667,60.1667 124.333,60.1667 122,57.5C 121.5,48.5062 121.334,39.5062 121.5,30.5C 114.187,31.2266 112.187,28.5599 115.5,22.5 Z"/></g>
<g><path style="opacity:1" fill="#080807" d="M 149.5,22.5 C 152.325,22.0807 154.491,23.0807 156,25.5C 159.792,35.4137 163.292,45.4137 166.5,55.5C 165.658,59.923 163.492,60.5897 160,57.5C 159.598,56.1279 159.098,54.7946 158.5,53.5C 153.88,52.5067 149.214,52.1734 144.5,52.5C 144.997,57.9915 142.664,60.1582 137.5,59C 136.919,58.1074 136.585,57.1074 136.5,56C 139.89,44.4005 144.223,33.2338 149.5,22.5 Z"/></g>
<g><path style="opacity:1" fill="#f4e8d2" d="M 32.5,30.5 C 34.8568,30.3367 37.1902,30.5034 39.5,31C 42.1003,33.459 42.1003,35.959 39.5,38.5C 37.2534,39.3742 34.9201,39.7076 32.5,39.5C 32.5,36.5 32.5,33.5 32.5,30.5 Z"/></g>
<g><path style="opacity:1" fill="#eadec9" d="M 66.5,43.5 C 64.8333,44.8333 63.1667,44.8333 61.5,43.5C 63.1203,34.2159 64.7869,34.2159 66.5,43.5 Z"/></g>
<g><path style="opacity:1" fill="#e7dbc6" d="M 154.5,43.5 C 152.735,44.4614 150.735,44.7947 148.5,44.5C 150.379,34.845 152.379,34.5116 154.5,43.5 Z"/></g>
<g><path style="opacity:1" fill="#787166" d="M 61.5,43.5 C 63.1667,44.8333 64.8333,44.8333 66.5,43.5C 67.0431,43.56 67.3764,43.8933 67.5,44.5C 65.1667,45.8333 62.8333,45.8333 60.5,44.5C 60.6236,43.8933 60.9569,43.56 61.5,43.5 Z"/></g>
<g><path style="opacity:1" fill="#6c665d" d="M 154.5,43.5 C 155.043,43.56 155.376,43.8933 155.5,44.5C 153.027,45.7969 150.693,45.7969 148.5,44.5C 150.735,44.7947 152.735,44.4614 154.5,43.5 Z"/></g>
<g><path style="opacity:1" fill="#fb7f86" d="M 172.5,79.5 C 172.5,135.5 172.5,191.5 172.5,247.5C 175.5,247.5 178.5,247.5 181.5,247.5C 124.431,248.833 67.2643,248.833 10,247.5C 9.33333,200.5 9.33333,153.5 10,106.5C 22.4253,92.3679 37.9253,83.5346 56.5,80C 95.1652,79.5 133.832,79.3333 172.5,79.5 Z"/></g>
<g><path style="opacity:1" fill="#f6616b" d="M 172.5,79.5 C 175.833,79.5 179.167,79.5 182.5,79.5C 182.333,119.501 182.5,159.501 183,199.5C 183.816,200.823 184.983,201.489 186.5,201.5C 186.5,204.833 186.5,208.167 186.5,211.5C 184.983,211.511 183.816,212.177 183,213.5C 182.831,225.007 182.331,236.341 181.5,247.5C 178.5,247.5 175.5,247.5 172.5,247.5C 172.5,191.5 172.5,135.5 172.5,79.5 Z"/></g>
<g><path style="opacity:1" fill="#96d97b" d="M 228.5,90.5 C 228.5,115.167 228.5,139.833 228.5,164.5C 223.5,164.5 218.5,164.5 213.5,164.5C 213.5,139.833 213.5,115.167 213.5,90.5C 218.5,90.5 223.5,90.5 228.5,90.5 Z"/></g>
<g><path style="opacity:1" fill="#66c343" d="M 228.5,90.5 C 231.5,90.5 234.5,90.5 237.5,90.5C 237.5,115.167 237.5,139.833 237.5,164.5C 234.5,164.5 231.5,164.5 228.5,164.5C 228.5,139.833 228.5,115.167 228.5,90.5 Z"/></g>
<g><path style="opacity:1" fill="#0b0805" d="M 64.5,105.5 C 66.6547,105.372 68.6547,105.872 70.5,107C 76.6667,113.167 82.8333,119.333 89,125.5C 89.6667,127.833 89.6667,130.167 89,132.5C 79.7948,146.264 82.2948,157.431 96.5,166C 104.639,168.856 111.973,167.522 118.5,162C 121.303,161.245 123.97,161.578 126.5,163C 132.333,168.833 138.167,174.667 144,180.5C 146.251,184.666 145.417,188.166 141.5,191C 112.227,211.019 85.0603,208.519 60,183.5C 48.9535,168.979 44.9535,152.646 48,134.5C 50.4595,122.928 55.9595,113.261 64.5,105.5 Z"/></g>
<g><path style="opacity:1" fill="#f5e078" d="M 65.5,114.5 C 67.8863,115.373 69.8863,116.873 71.5,119C 58.676,136.408 58.176,154.242 70,172.5C 88.6922,192.502 109.359,194.835 132,179.5C 133.685,181.017 135.185,182.684 136.5,184.5C 130.869,189.817 124.202,193.317 116.5,195C 89.6346,199.651 70.1346,189.817 58,165.5C 51.3745,147.054 53.8745,130.054 65.5,114.5 Z"/></g>
<g><path style="opacity:1" fill="#f3df77" d="M 76.5,124.5 C 78.4788,125.812 80.1455,127.479 81.5,129.5C 71.6444,148.422 75.9778,162.922 94.5,173C 104.02,175.735 113.02,174.568 121.5,169.5C 123.316,170.815 124.983,172.315 126.5,174C 117.368,181.066 107.034,183.399 95.5,181C 75.3358,173.523 66.8358,159.023 70,137.5C 71.1258,132.582 73.2925,128.248 76.5,124.5 Z"/></g>
</svg>
