<?xml version="1.0" encoding="UTF-8"?>
<!DOCTYPE svg PUBLIC "-//W3C//DTD SVG 1.1//EN" "http://www.w3.org/Graphics/SVG/1.1/DTD/svg11.dtd">
<svg xmlns="http://www.w3.org/2000/svg" version="1.1" width="512px" height="512px" style="shape-rendering:geometricPrecision; text-rendering:geometricPrecision; image-rendering:optimizeQuality; fill-rule:evenodd; clip-rule:evenodd" xmlns:xlink="http://www.w3.org/1999/xlink">
<g><path style="opacity:0.984" fill="#010000" d="M 126.5,-0.5 C 178.833,-0.5 231.167,-0.5 283.5,-0.5C 285.578,1.39043 286.911,3.72376 287.5,6.5C 286.59,9.79257 284.59,12.2926 281.5,14C 231.167,14.3333 180.833,14.6667 130.5,15C 127.667,16.5 125.5,18.6667 124,21.5C 123.333,34.8333 123.333,48.1667 124,61.5C 124.786,64.5827 126.619,66.7494 129.5,68C 198.833,68.5 268.166,68.6667 337.5,68.5C 352.504,68.6666 367.504,68.4999 382.5,68C 384.333,66.8333 385.833,65.3333 387,63.5C 387.667,49.1667 387.667,34.8333 387,20.5C 386.215,18.714 385.049,17.214 383.5,16C 368.238,14.5478 352.905,14.0478 337.5,14.5C 326.495,14.6665 315.495,14.4998 304.5,14C 301.676,12.1642 300.01,9.66418 299.5,6.5C 299.998,3.67365 301.331,1.34032 303.5,-0.5C 330.833,-0.5 358.167,-0.5 385.5,-0.5C 393.062,2.56003 398.562,7.89337 402,15.5C 403.605,31.446 403.938,47.446 403,63.5C 401.02,74.6457 394.52,81.3124 383.5,83.5C 383.666,90.8409 383.5,98.1742 383,105.5C 382.363,107.303 381.197,108.636 379.5,109.5C 378.549,127.147 383.716,142.814 395,156.5C 409.371,167.868 420.371,181.868 428,198.5C 430.294,205.01 431.961,211.677 433,218.5C 433.667,287.833 433.667,357.167 433,426.5C 428.288,451.716 414.121,469.382 390.5,479.5C 387.13,495.528 377.797,506.195 362.5,511.5C 291.5,511.5 220.5,511.5 149.5,511.5C 133.709,506.642 124.376,495.976 121.5,479.5C 98.3543,469.52 84.1877,452.186 79,427.5C 78.3333,357.167 78.3333,286.833 79,216.5C 81.5603,200.718 87.8937,186.718 98,174.5C 105.054,167.446 112.054,160.446 119,153.5C 129.055,140.505 133.555,125.838 132.5,109.5C 130.803,108.636 129.637,107.303 129,105.5C 128.5,98.1742 128.334,90.8409 128.5,83.5C 118.361,81.5307 111.861,75.5307 109,65.5C 108.333,49.8333 108.333,34.1667 109,18.5C 111.66,9.13798 117.493,2.80465 126.5,-0.5 Z"/></g>
<g><path style="opacity:0.999" fill="#be7a4b" d="M 287.5,6.5 C 291.5,6.5 295.5,6.5 299.5,6.5C 300.01,9.66418 301.676,12.1642 304.5,14C 315.495,14.4998 326.495,14.6665 337.5,14.5C 338.594,16.3594 339.427,18.3594 340,20.5C 340.667,34.8333 340.667,49.1667 340,63.5C 339.153,65.1932 338.32,66.8599 337.5,68.5C 268.166,68.6667 198.833,68.5 129.5,68C 126.619,66.7494 124.786,64.5827 124,61.5C 123.333,48.1667 123.333,34.8333 124,21.5C 125.5,18.6667 127.667,16.5 130.5,15C 180.833,14.6667 231.167,14.3333 281.5,14C 284.59,12.2926 286.59,9.79257 287.5,6.5 Z"/></g>
<g><path style="opacity:1" fill="#a76b42" d="M 337.5,14.5 C 352.905,14.0478 368.238,14.5478 383.5,16C 385.049,17.214 386.215,18.714 387,20.5C 387.667,34.8333 387.667,49.1667 387,63.5C 385.833,65.3333 384.333,66.8333 382.5,68C 367.504,68.4999 352.504,68.6666 337.5,68.5C 338.32,66.8599 339.153,65.1932 340,63.5C 340.667,49.1667 340.667,34.8333 340,20.5C 339.427,18.3594 338.594,16.3594 337.5,14.5 Z"/></g>
<g><path style="opacity:1" fill="#4d321f" d="M 367.5,94.5 C 367.5,91.1667 367.5,87.8333 367.5,84.5C 293.167,84.5 218.833,84.5 144.5,84.5C 144.5,87.8333 144.5,91.1667 144.5,94.5C 143.518,91.0381 143.185,87.3714 143.5,83.5C 218.5,83.5 293.5,83.5 368.5,83.5C 368.815,87.3714 368.482,91.0381 367.5,94.5 Z"/></g>
<g><path style="opacity:1" fill="#7f5332" d="M 367.5,94.5 C 293.167,94.5 218.833,94.5 144.5,94.5C 144.5,91.1667 144.5,87.8333 144.5,84.5C 218.833,84.5 293.167,84.5 367.5,84.5C 367.5,87.8333 367.5,91.1667 367.5,94.5 Z"/></g>
<g><path style="opacity:1" fill="#b33122" d="M 362.5,110.5 C 346.833,110.5 331.167,110.5 315.5,110.5C 315.5,113.5 315.5,116.5 315.5,119.5C 314.523,116.713 314.19,113.713 314.5,110.5C 259.5,110.5 204.5,110.5 149.5,110.5C 149.815,114.371 149.482,118.038 148.5,121.5C 148.5,117.5 148.5,113.5 148.5,109.5C 220.002,109.167 291.335,109.501 362.5,110.5 Z"/></g>
<g><path style="opacity:1" fill="#ed945b" d="M 315.5,119.5 C 315.624,126.663 317.291,133.33 320.5,139.5C 321.46,144.086 323.46,148.086 326.5,151.5C 328.326,153.147 329.66,155.147 330.5,157.5C 331.419,160.089 333.086,162.089 335.5,163.5C 337.5,164.833 339.167,166.5 340.5,168.5C 344.5,173.167 348.833,177.5 353.5,181.5C 357.494,185.479 360.494,190.145 362.5,195.5C 362.707,198.241 363.707,200.574 365.5,202.5C 367.41,205.452 368.41,208.786 368.5,212.5C 369.021,216.481 369.354,220.481 369.5,224.5C 368.5,224.5 367.5,224.5 366.5,224.5C 286.394,198.603 207.061,200.77 128.5,231C 127.299,231.903 126.465,233.069 126,234.5C 125.333,277.167 125.333,319.833 126,362.5C 126.785,364.286 127.951,365.786 129.5,367C 144.833,367.667 160.167,367.667 175.5,367C 177.734,365.362 179.067,363.195 179.5,360.5C 183.833,360.5 188.167,360.5 192.5,360.5C 193.01,363.674 194.677,366.008 197.5,367.5C 254.998,368.499 312.664,368.832 370.5,368.5C 370.5,385.5 370.5,402.5 370.5,419.5C 370.714,425.964 369.381,431.964 366.5,437.5C 364.326,440.515 362.659,443.849 361.5,447.5C 360.471,450.891 358.471,453.557 355.5,455.5C 353.167,457.167 351.167,459.167 349.5,461.5C 346.556,463.311 343.556,465.144 340.5,467C 273.167,467.5 205.834,467.667 138.5,467.5C 121.692,464.682 108.859,456.015 100,441.5C 97.7339,437.034 96.0672,432.368 95,427.5C 93.3533,358.197 93.02,288.864 94,219.5C 96.3683,206.433 101.702,194.766 110,184.5C 118,177.833 125.333,170.5 132,162.5C 140.818,150.193 146.318,136.526 148.5,121.5C 149.482,118.038 149.815,114.371 149.5,110.5C 204.5,110.5 259.5,110.5 314.5,110.5C 314.19,113.713 314.523,116.713 315.5,119.5 Z"/></g>
<g><path style="opacity:1" fill="#ce804e" d="M 362.5,110.5 C 363.757,141.016 376.59,165.349 401,183.5C 410.327,194.464 415.994,207.13 418,221.5C 418.667,288.5 418.667,355.5 418,422.5C 412.899,447.768 397.732,462.768 372.5,467.5C 362.828,467.666 353.161,467.5 343.5,467C 345.996,465.669 347.996,463.836 349.5,461.5C 352.5,460.5 354.5,458.5 355.5,455.5C 358.471,453.557 360.471,450.891 361.5,447.5C 364.207,444.753 365.873,441.42 366.5,437.5C 369.381,431.964 370.714,425.964 370.5,419.5C 371.497,402.675 371.83,385.675 371.5,368.5C 375.042,368.813 378.375,368.479 381.5,367.5C 383.504,366.327 385.004,364.66 386,362.5C 386.667,320.167 386.667,277.833 386,235.5C 385.293,233.919 384.46,232.419 383.5,231C 379.693,229.572 376.026,228.072 372.5,226.5C 370.951,221.896 369.618,217.229 368.5,212.5C 368.41,208.786 367.41,205.452 365.5,202.5C 365.293,199.759 364.293,197.426 362.5,195.5C 360.494,190.145 357.494,185.479 353.5,181.5C 350.167,176.167 345.833,171.833 340.5,168.5C 339.167,166.5 337.5,164.833 335.5,163.5C 334.581,160.911 332.914,158.911 330.5,157.5C 329.66,155.147 328.326,153.147 326.5,151.5C 325.008,147.182 323.008,143.182 320.5,139.5C 318.806,132.724 317.139,126.057 315.5,119.5C 315.5,116.5 315.5,113.5 315.5,110.5C 331.167,110.5 346.833,110.5 362.5,110.5 Z"/></g>
<g><path style="opacity:1" fill="#e9402d" d="M 315.5,119.5 C 317.139,126.057 318.806,132.724 320.5,139.5C 317.291,133.33 315.624,126.663 315.5,119.5 Z"/></g>
<g><path style="opacity:1" fill="#e8402d" d="M 320.5,139.5 C 323.008,143.182 325.008,147.182 326.5,151.5C 323.46,148.086 321.46,144.086 320.5,139.5 Z"/></g>
<g><path style="opacity:1" fill="#ea402d" d="M 330.5,157.5 C 332.914,158.911 334.581,160.911 335.5,163.5C 333.086,162.089 331.419,160.089 330.5,157.5 Z"/></g>
<g><path style="opacity:1" fill="#e8402c" d="M 340.5,168.5 C 345.833,171.833 350.167,176.167 353.5,181.5C 348.833,177.5 344.5,173.167 340.5,168.5 Z"/></g>
<g><path style="opacity:1" fill="#ea402d" d="M 362.5,195.5 C 364.293,197.426 365.293,199.759 365.5,202.5C 363.707,200.574 362.707,198.241 362.5,195.5 Z"/></g>
<g><path style="opacity:1" fill="#050302" d="M 366.5,224.5 C 368.214,225.738 370.214,226.405 372.5,226.5C 376.026,228.072 379.693,229.572 383.5,231C 384.46,232.419 385.293,233.919 386,235.5C 386.667,277.833 386.667,320.167 386,362.5C 385.004,364.66 383.504,366.327 381.5,367.5C 320.167,367.5 258.833,367.5 197.5,367.5C 194.677,366.008 193.01,363.674 192.5,360.5C 193.143,357.012 195.143,354.512 198.5,353C 240.165,352.5 281.832,352.333 323.5,352.5C 339.5,352.5 355.5,352.5 371.5,352.5C 371.667,315.832 371.5,279.165 371,242.5C 337.586,230.273 303.086,223.273 267.5,221.5C 223.904,220.153 181.571,226.819 140.5,241.5C 140.5,278.5 140.5,315.5 140.5,352.5C 151.505,352.333 162.505,352.5 173.5,353C 177.062,354.308 179.062,356.808 179.5,360.5C 179.067,363.195 177.734,365.362 175.5,367C 160.167,367.667 144.833,367.667 129.5,367C 127.951,365.786 126.785,364.286 126,362.5C 125.333,319.833 125.333,277.167 126,234.5C 126.465,233.069 127.299,231.903 128.5,231C 207.061,200.77 286.394,198.603 366.5,224.5 Z"/></g>
<g><path style="opacity:1" fill="#f6e19b" d="M 267.5,221.5 C 291.323,230.487 308.156,246.821 318,270.5C 320.449,276.63 322.116,282.963 323,289.5C 323.5,310.497 323.667,331.497 323.5,352.5C 281.832,352.333 240.165,352.5 198.5,353C 195.143,354.512 193.143,357.012 192.5,360.5C 188.167,360.5 183.833,360.5 179.5,360.5C 179.062,356.808 177.062,354.308 173.5,353C 162.505,352.5 151.505,352.333 140.5,352.5C 140.5,315.5 140.5,278.5 140.5,241.5C 181.571,226.819 223.904,220.153 267.5,221.5 Z"/></g>
<g><path style="opacity:1" fill="#d9c78a" d="M 267.5,221.5 C 303.086,223.273 337.586,230.273 371,242.5C 371.5,279.165 371.667,315.832 371.5,352.5C 355.5,352.5 339.5,352.5 323.5,352.5C 323.667,331.497 323.5,310.497 323,289.5C 322.116,282.963 320.449,276.63 318,270.5C 308.156,246.821 291.323,230.487 267.5,221.5 Z"/></g>
<g><path style="opacity:1" fill="#d73b29" d="M 368.5,212.5 C 369.618,217.229 370.951,221.896 372.5,226.5C 370.214,226.405 368.214,225.738 366.5,224.5C 367.5,224.5 368.5,224.5 369.5,224.5C 369.354,220.481 369.021,216.481 368.5,212.5 Z"/></g>
<g><path style="opacity:1" fill="#bc3424" d="M 197.5,367.5 C 258.833,367.5 320.167,367.5 381.5,367.5C 378.375,368.479 375.042,368.813 371.5,368.5C 371.83,385.675 371.497,402.675 370.5,419.5C 370.5,402.5 370.5,385.5 370.5,368.5C 312.664,368.832 254.998,368.499 197.5,367.5 Z"/></g>
<g><path style="opacity:1" fill="#ea402d" d="M 366.5,437.5 C 365.873,441.42 364.207,444.753 361.5,447.5C 362.659,443.849 364.326,440.515 366.5,437.5 Z"/></g>
<g><path style="opacity:1" fill="#e03e2b" d="M 355.5,455.5 C 354.5,458.5 352.5,460.5 349.5,461.5C 351.167,459.167 353.167,457.167 355.5,455.5 Z"/></g>
<g><path style="opacity:1" fill="#c43625" d="M 349.5,461.5 C 347.996,463.836 345.996,465.669 343.5,467C 353.161,467.5 362.828,467.666 372.5,467.5C 294.5,468.833 216.5,468.833 138.5,467.5C 205.834,467.667 273.167,467.5 340.5,467C 343.556,465.144 346.556,463.311 349.5,461.5 Z"/></g>
<g><path style="opacity:1" fill="#2a1b10" d="M 372.5,484.5 C 294.833,483.167 217.167,483.167 139.5,484.5C 138.957,484.44 138.624,484.107 138.5,483.5C 216.833,482.167 295.167,482.167 373.5,483.5C 373.376,484.107 373.043,484.44 372.5,484.5 Z"/></g>
<g><path style="opacity:1" fill="#7f5232" d="M 372.5,484.5 C 369.392,490.772 364.392,494.605 357.5,496C 289.167,496.667 220.833,496.667 152.5,496C 146.392,493.98 142.059,490.147 139.5,484.5C 217.167,483.167 294.833,483.167 372.5,484.5 Z"/></g>
</svg>
