<?xml version="1.0" encoding="UTF-8"?>
<!DOCTYPE svg PUBLIC "-//W3C//DTD SVG 1.1//EN" "http://www.w3.org/Graphics/SVG/1.1/DTD/svg11.dtd">
<svg xmlns="http://www.w3.org/2000/svg" version="1.1" width="512px" height="512px" style="shape-rendering:geometricPrecision; text-rendering:geometricPrecision; image-rendering:optimizeQuality; fill-rule:evenodd; clip-rule:evenodd" xmlns:xlink="http://www.w3.org/1999/xlink">
<g><path style="opacity:0.984" fill="#020201" d="M 225.5,15.5 C 274.622,12.6789 322.956,17.5122 370.5,30C 403.335,38.5846 433.001,53.2513 459.5,74C 471.624,84.7752 481.457,97.2752 489,111.5C 491.066,116.363 492.732,121.363 494,126.5C 495.642,173.796 495.975,221.129 495,268.5C 484.103,351.026 441.27,410.193 366.5,446C 359.061,449.035 351.561,451.868 344,454.5C 343.667,466.833 343.333,479.167 343,491.5C 342.5,493.333 341.333,494.5 339.5,495C 282.751,495.992 226.084,495.658 169.5,494C 168.874,493.25 168.374,492.416 168,491.5C 167.667,479.167 167.333,466.833 167,454.5C 101.136,432.238 55.1363,388.904 29,324.5C 22.1459,306.417 17.8125,287.75 16,268.5C 15.3333,222.833 15.3333,177.167 16,131.5C 18.4297,117.867 23.763,105.534 32,94.5C 51.6423,71.5881 75.4756,54.4214 103.5,43C 142.827,27.3708 183.493,18.2041 225.5,15.5 Z"/></g>
<g><path style="opacity:1" fill="#d2d2d2" d="M 227.5,31.5 C 282.258,28.5599 335.591,35.7266 387.5,53C 408.296,60.7294 427.629,71.0627 445.5,84C 458.713,94.374 468.713,107.207 475.5,122.5C 453.476,99.2487 426.809,82.0821 395.5,71C 319.123,45.3723 241.456,40.7057 162.5,57C 129.785,63.9023 99.1184,75.9023 70.5,93C 57.6977,101.658 46.1977,111.825 36,123.5C 40.6622,110.062 48.4955,98.5616 59.5,89C 80.2489,72.4545 103.249,59.7878 128.5,51C 160.821,40.4355 193.821,33.9355 227.5,31.5 Z"/></g>
<g><path style="opacity:1" fill="#d16a23" d="M 231.5,63.5 C 290.525,60.5261 347.525,69.6927 402.5,91C 423.312,99.8112 441.812,111.978 458,127.5C 466.786,136.732 473.286,147.398 477.5,159.5C 469.518,180.283 456.184,196.783 437.5,209C 402.81,230.566 365.143,244.233 324.5,250C 267.744,258.89 211.411,256.89 155.5,244C 119.995,235.578 87.995,220.244 59.5,198C 47.4669,187.432 38.8002,174.599 33.5,159.5C 40.7869,140.376 52.7869,124.876 69.5,113C 101.164,91.8437 135.831,77.8437 173.5,71C 192.899,67.7982 212.233,65.2982 231.5,63.5 Z"/></g>
<g><path style="opacity:1" fill="#050200" d="M 232.5,79.5 C 258.285,78.8228 275.952,90.3228 285.5,114C 287.87,121.13 288.036,128.297 286,135.5C 281.745,142.54 275.578,145.04 267.5,143C 261.363,141.399 255.363,139.399 249.5,137C 245.389,136.059 241.222,135.559 237,135.5C 226.896,137.216 216.729,138.049 206.5,138C 194.406,134.332 189.573,126.165 192,113.5C 195.502,102.67 202.002,94.1701 211.5,88C 218.182,84.0582 225.182,81.2248 232.5,79.5 Z"/></g>
<g><path style="opacity:1" fill="#030100" d="M 353.5,86.5 C 360.987,86.0582 368.32,86.8916 375.5,89C 379.274,90.3019 382.441,92.4686 385,95.5C 385.667,97.5 385.667,99.5 385,101.5C 381,108.167 377,114.833 373,121.5C 358.147,137.171 340.98,140.338 321.5,131C 318.208,128.588 317.041,125.421 318,121.5C 321.667,115.167 325.333,108.833 329,102.5C 335.722,94.7369 343.889,89.4035 353.5,86.5 Z"/></g>
<g><path style="opacity:1" fill="#ee843b" d="M 232.5,95.5 C 249.968,94.4804 262.468,101.814 270,117.5C 271.544,120.791 271.711,124.124 270.5,127.5C 261.803,123.909 252.803,121.409 243.5,120C 231.771,119.901 220.104,120.568 208.5,122C 207.015,117.433 207.849,113.266 211,109.5C 217.19,103.166 224.357,98.4995 232.5,95.5 Z"/></g>
<g><path style="opacity:1" fill="#40a385" d="M 355.5,102.5 C 358.898,102.18 362.232,102.513 365.5,103.5C 360.248,116.104 350.915,121.437 337.5,119.5C 341.029,111.094 347.029,105.427 355.5,102.5 Z"/></g>
<g><path style="opacity:1" fill="#050200" d="M 136.5,104.5 C 150.734,107.29 157.567,115.956 157,130.5C 148.613,137.197 143.28,135.197 141,124.5C 138.629,121.794 135.963,119.461 133,117.5C 130.186,111.938 131.352,107.605 136.5,104.5 Z"/></g>
<g><path style="opacity:1" fill="#040100" d="M 91.5,125.5 C 101.165,125.416 108.665,129.416 114,137.5C 125.95,161.767 118.45,176.6 91.5,182C 72.4281,186.266 62.7615,178.599 62.5,159C 62.7354,148.862 66.7354,140.529 74.5,134C 80.1041,130.866 85.7707,128.033 91.5,125.5 Z"/></g>
<g><path style="opacity:1" fill="#040100" d="M 410.5,131.5 C 424.621,129.716 435.454,134.716 443,146.5C 446.219,154.125 446.219,161.791 443,169.5C 422.885,207.363 401.552,208.029 379,171.5C 375.477,164.968 375.81,158.635 380,152.5C 387.913,142.135 398.08,135.135 410.5,131.5 Z"/></g>
<g><path style="opacity:1" fill="#aa4b0a" d="M 93.5,141.5 C 97.3298,142.485 100.163,144.819 102,148.5C 104.753,152.333 105.086,156.333 103,160.5C 95.7385,165.107 87.9052,167.107 79.5,166.5C 77.6702,160.126 78.5035,154.126 82,148.5C 85.8137,146.016 89.6471,143.682 93.5,141.5 Z"/></g>
<g><path style="opacity:1" fill="#ab4c0a" d="M 412.5,147.5 C 425.732,146.221 430.899,151.887 428,164.5C 424.043,171.955 418.543,177.955 411.5,182.5C 403.495,177.682 397.162,171.182 392.5,163C 394.433,158.732 397.433,155.399 401.5,153C 405.259,151.121 408.925,149.287 412.5,147.5 Z"/></g>
<g><path style="opacity:1" fill="#0b0302" d="M 300.5,159.5 C 306.925,158.534 310.592,161.201 311.5,167.5C 311.113,172.72 308.279,175.387 303,175.5C 297.398,173.971 295.065,170.304 296,164.5C 297.059,162.341 298.559,160.674 300.5,159.5 Z"/></g>
<g><path style="opacity:1" fill="#030100" d="M 173.5,166.5 C 189.87,164.775 203.37,170.108 214,182.5C 218.498,189.33 222.331,196.496 225.5,204C 224.626,208.543 221.96,211.543 217.5,213C 195.689,220.672 178.522,214.838 166,195.5C 162.613,190.06 159.78,184.393 157.5,178.5C 157.756,175.729 159.09,173.562 161.5,172C 165.475,169.854 169.475,168.02 173.5,166.5 Z"/></g>
<g><path style="opacity:1" fill="#040200" d="M 325.5,180.5 C 338.142,180.623 345.975,186.956 349,199.5C 350.289,208.42 347.123,215.254 339.5,220C 332.139,223.426 324.472,225.093 316.5,225C 311.427,223.594 307.927,220.428 306,215.5C 302.083,198 308.583,186.333 325.5,180.5 Z"/></g>
<g><path style="opacity:1" fill="#40a385" d="M 177.5,182.5 C 190.89,181.568 200.223,187.234 205.5,199.5C 191.645,201.316 182.311,195.649 177.5,182.5 Z"/></g>
<g><path style="opacity:1" fill="#f1f1f1" d="M 31.5,190.5 C 45.2192,207.383 61.5526,221.216 80.5,232C 112.644,248.937 146.644,260.27 182.5,266C 250.92,276.599 318.254,271.932 384.5,252C 411.507,243.166 436.174,230.166 458.5,213C 466.072,206.099 472.905,198.599 479,190.5C 479.667,212.5 479.667,234.5 479,256.5C 472.532,336.637 433.365,394.47 361.5,430C 343.136,437.674 324.136,443.007 304.5,446C 274.522,447.574 244.522,447.907 214.5,447C 149.812,439.58 99.3121,409.08 63,355.5C 44.6408,325.755 34.3074,293.421 32,258.5C 31.5,235.836 31.3334,213.169 31.5,190.5 Z"/></g>
<g><path style="opacity:1" fill="#0b0302" d="M 124.5,191.5 C 130.925,190.534 134.592,193.201 135.5,199.5C 135.113,204.72 132.279,207.387 127,207.5C 121.398,205.971 119.065,202.304 120,196.5C 121.059,194.341 122.559,192.674 124.5,191.5 Z"/></g>
<g><path style="opacity:1" fill="#a4490a" d="M 328.5,196.5 C 332.337,198.498 333.67,201.498 332.5,205.5C 328.686,207.438 324.686,208.771 320.5,209.5C 320.211,206.351 320.711,203.351 322,200.5C 324.314,199.267 326.481,197.933 328.5,196.5 Z"/></g>
<g><path style="opacity:1" fill="#060201" d="M 258.5,208.5 C 267.207,208.037 270.707,212.037 269,220.5C 266.146,222.598 263.479,224.931 261,227.5C 259.719,231.037 257.886,234.204 255.5,237C 245.941,239.444 242.108,235.611 244,225.5C 246.914,218.094 251.747,212.428 258.5,208.5 Z"/></g>
<g><path style="opacity:1" fill="#d6d6d6" d="M 183.5,458.5 C 206.803,462.639 230.303,464.305 254,463.5C 278.694,464.249 303.194,462.582 327.5,458.5C 327.5,465.5 327.5,472.5 327.5,479.5C 279.5,479.5 231.5,479.5 183.5,479.5C 183.5,472.5 183.5,465.5 183.5,458.5 Z"/></g>
</svg>
