<?xml version="1.0" encoding="UTF-8"?>
<!DOCTYPE svg PUBLIC "-//W3C//DTD SVG 1.1//EN" "http://www.w3.org/Graphics/SVG/1.1/DTD/svg11.dtd">
<svg xmlns="http://www.w3.org/2000/svg" version="1.1" width="512px" height="512px" style="shape-rendering:geometricPrecision; text-rendering:geometricPrecision; image-rendering:optimizeQuality; fill-rule:evenodd; clip-rule:evenodd" xmlns:xlink="http://www.w3.org/1999/xlink">
<g><path style="opacity:0.973" fill="#030201" d="M 122.5,-0.5 C 128.167,-0.5 133.833,-0.5 139.5,-0.5C 143.317,0.840466 146.983,2.6738 150.5,5C 155.5,9.33333 160.5,13.6667 165.5,18C 171.345,20.2479 177.012,19.9145 182.5,17C 186.8,13.7019 190.8,10.0352 194.5,6C 198.434,3.53607 202.434,1.36941 206.5,-0.5C 212.5,-0.5 218.5,-0.5 224.5,-0.5C 233.675,3.47788 241.675,9.31121 248.5,17C 254.861,20.2719 261.194,20.2719 267.5,17C 274.303,9.34045 282.303,3.50712 291.5,-0.5C 297.5,-0.5 303.5,-0.5 309.5,-0.5C 317.302,2.58644 323.969,7.41977 329.5,14C 334.877,19.1022 341.211,20.7689 348.5,19C 352.5,16.3333 356.5,13.6667 360.5,11C 373.23,7.01765 382.73,10.851 389,22.5C 390.476,27.0759 390.81,31.7426 390,36.5C 386.85,47.7838 383.017,58.7838 378.5,69.5C 387.35,164.402 388.683,259.402 382.5,354.5C 382.833,355.5 383.167,356.5 383.5,357.5C 405.306,345.29 425.639,347.457 444.5,364C 470.283,387.975 476.783,416.475 464,449.5C 449.573,482.451 425.073,503.117 390.5,511.5C 381.5,511.5 372.5,511.5 363.5,511.5C 345.652,508.077 329.319,501.077 314.5,490.5C 291.718,495.534 269.385,494.034 247.5,486C 241.592,483.465 236.092,480.298 231,476.5C 218.716,482.322 206.882,481.489 195.5,474C 191.357,469.767 187.023,465.767 182.5,462C 177.317,459.185 171.984,458.852 166.5,461C 160.542,465.289 154.876,469.956 149.5,475C 130.919,484.357 114.919,481.023 101.5,465C 96.6762,460.504 91.0096,458.837 84.5,460C 79.9226,462.239 75.5893,464.905 71.5,468C 52.1592,472.638 41.9926,465.138 41,445.5C 43.1996,433.564 47.3663,422.398 53.5,412C 45.949,334.019 43.449,255.852 46,177.5C 46.3065,165.811 46.9731,154.144 48,142.5C 49.4373,139.292 51.9373,137.625 55.5,137.5C 61.5167,139.347 63.85,143.514 62.5,150C 58.5533,236.645 60.5533,323.145 68.5,409.5C 81.4839,410.698 94.4839,411.698 107.5,412.5C 140.918,416.092 174.584,417.758 208.5,417.5C 209.953,404.546 216.62,395.38 228.5,390C 239.817,385.793 251.484,384.46 263.5,386C 276.177,391.339 288.843,396.673 301.5,402C 313.641,403.927 325.141,402.093 336,396.5C 338.511,396.84 340.678,397.84 342.5,399.5C 344.208,403.459 343.542,406.959 340.5,410C 324.095,418.386 307.095,419.719 289.5,414C 284.289,411.053 278.955,408.72 273.5,407C 278.711,412.542 283.544,418.375 288,424.5C 297.25,438.665 306.25,452.998 315,467.5C 343.583,498.216 376.75,504.383 414.5,486C 433.303,472.9 446.136,455.4 453,433.5C 458.596,401.779 446.763,379.279 417.5,366C 407.813,364.164 398.813,365.83 390.5,371C 380.804,377.851 371.47,385.184 362.5,393C 359.502,393.891 356.836,393.391 354.5,391.5C 352.707,388.741 352.207,385.741 353,382.5C 357.033,378.132 361.366,374.132 366,370.5C 372.674,270.094 371.84,169.761 363.5,69.5C 279.478,59.4551 195.478,58.1217 111.5,65.5C 96.8281,66.06 82.3281,67.7267 68,70.5C 66.4899,86.4857 65.1565,102.486 64,118.5C 62.2926,121.59 59.7926,123.59 56.5,124.5C 53.3308,124.161 51.1641,122.495 50,119.5C 49.9174,101.742 51.084,84.0755 53.5,66.5C 46.0085,54.5269 41.8419,41.5269 41,27.5C 45.2885,12.2801 55.1218,6.78014 70.5,11C 74.6661,13.9175 78.9994,16.5841 83.5,19C 89.3044,20.2238 94.6378,19.2238 99.5,16C 105.893,8.49305 113.56,2.99305 122.5,-0.5 Z"/></g>
<g><path style="opacity:1" fill="#e9e9e9" d="M 117.5,49.5 C 116.167,49.5 114.833,49.5 113.5,49.5C 111.627,42.5478 109.96,35.5478 108.5,28.5C 112.665,24.5032 116.998,20.6699 121.5,17C 127.789,13.8056 134.123,13.8056 140.5,17C 146.59,23.0933 153.256,28.4266 160.5,33C 173.285,37.5541 184.952,35.5541 195.5,27C 198.5,24 201.5,21 204.5,18C 210.476,14.1879 216.81,13.5213 223.5,16C 228.5,20.3333 233.5,24.6667 238.5,29C 249.234,36.3947 260.568,37.3947 272.5,32C 279.744,27.4266 286.41,22.0933 292.5,16C 299.173,13.5673 305.507,14.2339 311.5,18C 328.663,38.771 347.83,40.9377 369,24.5C 373.895,25.7058 375.895,28.7058 375,33.5C 372.995,40.3494 370.495,47.016 367.5,53.5C 366,53.8333 364.5,54.1667 363,54.5C 281.317,45.0049 199.483,43.3382 117.5,49.5 Z"/></g>
<g><path style="opacity:1" fill="#d6d6d6" d="M 108.5,28.5 C 109.96,35.5478 111.627,42.5478 113.5,49.5C 114.833,49.5 116.167,49.5 117.5,49.5C 100.017,51.6464 82.3506,53.1464 64.5,54C 59.5735,45.786 57.0735,36.9527 57,27.5C 59.4973,25.5218 62.3307,25.0218 65.5,26C 79.2134,37.656 93.5467,38.4893 108.5,28.5 Z"/></g>
<g><path style="opacity:1" fill="#e29341" d="M 354.5,391.5 C 350.529,394.156 346.529,396.823 342.5,399.5C 340.678,397.84 338.511,396.84 336,396.5C 325.141,402.093 313.641,403.927 301.5,402C 288.843,396.673 276.177,391.339 263.5,386C 251.484,384.46 239.817,385.793 228.5,390C 216.62,395.38 209.953,404.546 208.5,417.5C 174.584,417.758 140.918,416.092 107.5,412.5C 110.167,412.5 112.833,412.5 115.5,412.5C 113.31,379.513 111.31,346.513 109.5,313.5C 143.378,351.3 185.711,367.134 236.5,361C 290.766,351.718 326.933,321.218 345,269.5C 356.14,205.613 332.973,158.78 275.5,129C 241.232,114.668 206.232,112.668 170.5,123C 146.353,131.394 126.019,145.227 109.5,164.5C 111.025,131.444 113.358,98.4439 116.5,65.5C 114.833,65.5 113.167,65.5 111.5,65.5C 195.478,58.1217 279.478,59.4551 363.5,69.5C 371.84,169.761 372.674,270.094 366,370.5C 361.366,374.132 357.033,378.132 353,382.5C 352.207,385.741 352.707,388.741 354.5,391.5 Z"/></g>
<g><path style="opacity:1" fill="#e08323" d="M 111.5,65.5 C 113.167,65.5 114.833,65.5 116.5,65.5C 113.358,98.4439 111.025,131.444 109.5,164.5C 76.9902,207.655 73.8236,252.988 100,300.5C 102.998,304.992 106.165,309.325 109.5,313.5C 111.31,346.513 113.31,379.513 115.5,412.5C 112.833,412.5 110.167,412.5 107.5,412.5C 94.4839,411.698 81.4839,410.698 68.5,409.5C 60.5533,323.145 58.5533,236.645 62.5,150C 63.85,143.514 61.5167,139.347 55.5,137.5C 55.2941,133.102 55.6274,128.768 56.5,124.5C 59.7926,123.59 62.2926,121.59 64,118.5C 65.1565,102.486 66.4899,86.4857 68,70.5C 82.3281,67.7267 96.8281,66.06 111.5,65.5 Z"/></g>
<g><path style="opacity:1" fill="#050302" d="M 109.5,313.5 C 106.165,309.325 102.998,304.992 100,300.5C 73.8236,252.988 76.9902,207.655 109.5,164.5C 126.019,145.227 146.353,131.394 170.5,123C 206.232,112.668 241.232,114.668 275.5,129C 332.973,158.78 356.14,205.613 345,269.5C 326.933,321.218 290.766,351.718 236.5,361C 185.711,367.134 143.378,351.3 109.5,313.5 Z"/></g>
<g><path style="opacity:1" fill="#eaeaea" d="M 108.5,283.5 C 108.231,253.152 108.564,222.819 109.5,192.5C 126.555,161.978 152.222,142.478 186.5,134C 235.106,124.598 276.273,137.764 310,173.5C 335.352,205.317 340.685,240.317 326,278.5C 306.021,318.765 273.521,341.599 228.5,347C 183.555,350.363 146.722,334.863 118,300.5C 114.176,295.182 111.009,289.516 108.5,283.5 Z"/></g>
<g><path style="opacity:1" fill="#050403" d="M 264.5,173.5 C 292.448,174.922 310.281,189.256 318,216.5C 320.278,249.11 307.778,274.276 280.5,292C 252.238,306.297 225.238,304.297 199.5,286C 181.516,288.977 163.849,287.644 146.5,282C 121.601,271.41 110.434,252.577 113,225.5C 116.907,210.933 126.407,202.766 141.5,201C 150.092,199.875 158.426,200.875 166.5,204C 172.712,207.273 179.046,210.273 185.5,213C 196.478,216.01 206.478,214.01 215.5,207C 225.8,197.854 236.467,189.188 247.5,181C 252.888,177.603 258.555,175.103 264.5,173.5 Z"/></g>
<g><path style="opacity:1" fill="#fdce63" d="M 264.5,188.5 C 284.372,189.18 297.205,199.18 303,218.5C 304.597,247.136 292.764,268.303 267.5,282C 242.189,291.206 220.022,286.372 201,267.5C 191.491,252.717 182.158,238.05 173,223.5C 186.549,230.812 200.382,231.312 214.5,225C 227.224,216.633 239.224,207.3 250.5,197C 255.064,193.89 259.731,191.056 264.5,188.5 Z"/></g>
<g><path style="opacity:1" fill="#d5d5d5" d="M 109.5,192.5 C 108.564,222.819 108.231,253.152 108.5,283.5C 97.3166,262.009 94.4833,239.342 100,215.5C 102.116,207.3 105.282,199.633 109.5,192.5 Z"/></g>
<g><path style="opacity:1" fill="#fcbf4f" d="M 184.5,270.5 C 179.025,271.489 173.358,271.822 167.5,271.5C 140.317,269.16 127.15,254.494 128,227.5C 130.059,219.123 135.226,216.289 143.5,219C 150.208,222.702 156.041,227.535 161,233.5C 169.344,245.523 177.177,257.857 184.5,270.5 Z"/></g>
<g><path style="opacity:1" fill="#9b7631" d="M 184.5,270.5 C 185.043,270.56 185.376,270.893 185.5,271.5C 179.346,272.817 173.346,272.817 167.5,271.5C 173.358,271.822 179.025,271.489 184.5,270.5 Z"/></g>
<g><path style="opacity:1" fill="#fdce63" d="M 342.5,399.5 C 346.529,396.823 350.529,394.156 354.5,391.5C 356.836,393.391 359.502,393.891 362.5,393C 371.47,385.184 380.804,377.851 390.5,371C 398.813,365.83 407.813,364.164 417.5,366C 446.763,379.279 458.596,401.779 453,433.5C 446.136,455.4 433.303,472.9 414.5,486C 376.75,504.383 343.583,498.216 315,467.5C 306.25,452.998 297.25,438.665 288,424.5C 283.544,418.375 278.711,412.542 273.5,407C 278.955,408.72 284.289,411.053 289.5,414C 307.095,419.719 324.095,418.386 340.5,410C 343.542,406.959 344.208,403.459 342.5,399.5 Z"/></g>
<g><path style="opacity:1" fill="#fcbf4f" d="M 233.5,403.5 C 240.393,402.655 246.727,404.155 252.5,408C 257.634,412.133 262.468,416.633 267,421.5C 279.663,439.49 291.83,457.823 303.5,476.5C 276.651,481.916 253.151,475.582 233,457.5C 221.493,442.229 219.493,425.895 227,408.5C 229.326,406.934 231.492,405.268 233.5,403.5 Z"/></g>
<g><path style="opacity:1" fill="#d6d6d6" d="M 114.5,428.5 C 111.617,435.576 109.617,442.909 108.5,450.5C 99.6446,444.914 89.9779,443.081 79.5,445C 73.3983,447.799 67.565,450.965 62,454.5C 59.849,454.357 58.1824,453.357 57,451.5C 57.1352,441.917 59.6352,432.917 64.5,424.5C 65.3333,424.167 66.1667,423.833 67,423.5C 82.7987,425.525 98.6321,427.191 114.5,428.5 Z"/></g>
<g><path style="opacity:1" fill="#0d0a04" d="M 415.5,426.5 C 424.721,427.109 427.388,431.609 423.5,440C 414.912,443.394 410.746,440.561 411,431.5C 412.193,429.503 413.693,427.836 415.5,426.5 Z"/></g>
<g><path style="opacity:1" fill="#0c0904" d="M 435.5,427.5 C 443.794,426.036 447.294,429.37 446,437.5C 441.333,444.167 436.667,444.167 432,437.5C 431.333,435.5 431.333,433.5 432,431.5C 433.376,430.295 434.542,428.962 435.5,427.5 Z"/></g>
<g><path style="opacity:1" fill="#e8e8e8" d="M 114.5,428.5 C 145.481,430.509 176.481,432.175 207.5,433.5C 209.056,444.675 213.056,454.841 219.5,464C 216.167,464.667 212.833,464.667 209.5,464C 203.542,459.711 197.876,455.044 192.5,450C 178.329,442.074 164.662,442.741 151.5,452C 147.8,456.035 143.8,459.702 139.5,463C 133.807,464.949 128.14,464.949 122.5,463C 117.639,458.968 112.972,454.801 108.5,450.5C 109.617,442.909 111.617,435.576 114.5,428.5 Z"/></g>
<g><path style="opacity:1" fill="#0b0904" d="M 425.5,444.5 C 433.775,443.706 436.942,447.373 435,455.5C 429.885,461.075 425.219,460.742 421,454.5C 420.333,452.833 420.333,451.167 421,449.5C 422.366,447.638 423.866,445.972 425.5,444.5 Z"/></g>
</svg>
