<?xml version="1.0" encoding="UTF-8"?>
<!DOCTYPE svg PUBLIC "-//W3C//DTD SVG 1.1//EN" "http://www.w3.org/Graphics/SVG/1.1/DTD/svg11.dtd">
<svg xmlns="http://www.w3.org/2000/svg" version="1.1" width="512px" height="512px" style="shape-rendering:geometricPrecision; text-rendering:geometricPrecision; image-rendering:optimizeQuality; fill-rule:evenodd; clip-rule:evenodd" xmlns:xlink="http://www.w3.org/1999/xlink">
<g><path style="opacity:0.97" fill="#020101" d="M 511.5,263.5 C 511.5,274.833 511.5,286.167 511.5,297.5C 500.249,363.26 462.249,404.76 397.5,422C 388.956,424.146 380.289,425.313 371.5,425.5C 367.128,423.947 364.795,420.78 364.5,416C 368.823,392.864 366.656,370.364 358,348.5C 340.93,307.097 312.43,276.264 272.5,256C 269.333,252.833 266.167,249.667 263,246.5C 256.028,235.553 249.861,224.219 244.5,212.5C 234.825,186.66 216.825,169.493 190.5,161C 126.059,142.256 74.8922,160.422 37,215.5C 17.5669,248.58 11.9002,283.914 20,321.5C 26.426,352.34 39.2593,380.007 58.5,404.5C 83.596,434.068 114.596,455.235 151.5,468C 194.444,482.661 238.444,487.661 283.5,483C 305.171,479.894 324.505,471.561 341.5,458C 345.021,457.309 348.355,457.809 351.5,459.5C 353.971,463.318 354.138,467.318 352,471.5C 334.858,486.226 315.025,495.393 292.5,499C 224.978,508.162 161.312,496.495 101.5,464C 42.5675,428.354 8.56753,376.187 -0.5,307.5C -0.5,295.167 -0.5,282.833 -0.5,270.5C 8.26149,210.904 40.2615,169.07 95.5,145C 129.156,132.59 162.822,132.423 196.5,144.5C 220.858,153.022 239.691,168.355 253,190.5C 259.885,205.937 267.552,220.937 276,235.5C 284.372,243.606 293.872,250.106 304.5,255C 347.299,285.491 373.466,326.657 383,378.5C 383.5,387.827 383.666,397.161 383.5,406.5C 389.314,406.296 394.981,405.296 400.5,403.5C 447.382,388.784 477.549,357.784 491,310.5C 496.53,288.143 495.53,266.143 488,244.5C 486.254,240.673 484.254,237.007 482,233.5C 471.707,220.871 461.04,208.538 450,196.5C 444.418,189.337 440.418,181.337 438,172.5C 432.951,115.533 406.784,71.3663 359.5,40C 351.83,35.6629 343.83,32.1629 335.5,29.5C 303.653,20.8776 275.987,28.0443 252.5,51C 239.249,65.4257 228.583,81.5923 220.5,99.5C 217.301,102.057 213.634,103.057 209.5,102.5C 205.706,99.0068 204.539,94.6735 206,89.5C 216.904,64.8289 232.738,43.9956 253.5,27C 290.74,3.3977 328.74,2.3977 367.5,24C 419.691,57.8262 448.858,105.993 455,168.5C 457.708,176.25 461.708,183.25 467,189.5C 482.737,203.895 495.404,220.561 505,239.5C 507.822,247.463 509.988,255.463 511.5,263.5 Z"/></g>
<g><path style="opacity:1" fill="#fed2a5" d="M 335.5,29.5 C 351.535,52.9155 348.202,73.0822 325.5,90C 307.301,108.21 293.468,129.376 284,153.5C 279.696,165.582 275.53,177.582 271.5,189.5C 258.394,162.229 237.727,143.062 209.5,132C 204.141,130.679 200.474,132.513 198.5,137.5C 201.162,125.513 204.829,113.846 209.5,102.5C 213.634,103.057 217.301,102.057 220.5,99.5C 228.583,81.5923 239.249,65.4257 252.5,51C 275.987,28.0443 303.653,20.8776 335.5,29.5 Z"/></g>
<g><path style="opacity:1" fill="#febc7a" d="M 335.5,29.5 C 343.83,32.1629 351.83,35.6629 359.5,40C 406.784,71.3663 432.951,115.533 438,172.5C 440.418,181.337 444.418,189.337 450,196.5C 461.04,208.538 471.707,220.871 482,233.5C 484.254,237.007 486.254,240.673 488,244.5C 495.53,266.143 496.53,288.143 491,310.5C 477.549,357.784 447.382,388.784 400.5,403.5C 401.763,380.414 398.263,358.081 390,336.5C 371.098,289.272 339.265,253.772 294.5,230C 292.667,228.167 290.833,226.333 289,224.5C 282.626,213.086 276.793,201.419 271.5,189.5C 275.53,177.582 279.696,165.582 284,153.5C 293.468,129.376 307.301,108.21 325.5,90C 348.202,73.0822 351.535,52.9155 335.5,29.5 Z"/></g>
<g><path style="opacity:1" fill="#0c0805" d="M 352.5,98.5 C 360.523,98.683 364.023,102.683 363,110.5C 360.565,115.224 356.731,116.724 351.5,115C 344.671,109.003 345.004,103.503 352.5,98.5 Z"/></g>
<g><path style="opacity:1" fill="#0c0a08" d="M 271.5,105.5 C 279.034,105.53 282.534,109.197 282,116.5C 279.646,122.095 275.479,123.928 269.5,122C 263.725,115.701 264.392,110.201 271.5,105.5 Z"/></g>
<g><path style="opacity:1" fill="#fca863" d="M 271.5,189.5 C 276.793,201.419 282.626,213.086 289,224.5C 290.833,226.333 292.667,228.167 294.5,230C 339.265,253.772 371.098,289.272 390,336.5C 398.263,358.081 401.763,380.414 400.5,403.5C 394.981,405.296 389.314,406.296 383.5,406.5C 383.666,397.161 383.5,387.827 383,378.5C 373.466,326.657 347.299,285.491 304.5,255C 293.872,250.106 284.372,243.606 276,235.5C 267.552,220.937 259.885,205.937 253,190.5C 239.691,168.355 220.858,153.022 196.5,144.5C 196.721,141.933 197.388,139.599 198.5,137.5C 200.474,132.513 204.141,130.679 209.5,132C 237.727,143.062 258.394,162.229 271.5,189.5 Z"/></g>
<g><path style="opacity:1" fill="#fed2a5" d="M 244.5,212.5 C 241.433,223.093 234.766,230.593 224.5,235C 216.762,236.697 209.096,238.53 201.5,240.5C 200.318,233.733 196.318,231.233 189.5,233C 184.638,235.949 183.305,240.116 185.5,245.5C 140.086,266.926 112.086,302.259 101.5,351.5C 95.9176,344.978 90.4176,344.978 85,351.5C 84.6633,361.683 89.1633,365.016 98.5,361.5C 102.055,386.705 91.2216,401.371 66,405.5C 63.4494,405.375 60.9494,405.042 58.5,404.5C 39.2593,380.007 26.426,352.34 20,321.5C 11.9002,283.914 17.5669,248.58 37,215.5C 74.8922,160.422 126.059,142.256 190.5,161C 216.825,169.493 234.825,186.66 244.5,212.5 Z"/></g>
<g><path style="opacity:1" fill="#0b0704" d="M 325.5,162.5 C 333.523,162.683 337.023,166.683 336,174.5C 333.459,179.069 329.625,180.569 324.5,179C 317.657,173.052 317.991,167.552 325.5,162.5 Z"/></g>
<g><path style="opacity:1" fill="#060504" d="M 142.5,170.5 C 153.565,169.39 157.398,174.057 154,184.5C 148.369,186.481 143.369,189.481 139,193.5C 136.302,198.609 133.802,203.776 131.5,209C 123.52,212.512 118.854,210.012 117.5,201.5C 120.343,186.665 128.676,176.331 142.5,170.5 Z"/></g>
<g><path style="opacity:1" fill="#febc7a" d="M 244.5,212.5 C 249.861,224.219 256.028,235.553 263,246.5C 266.167,249.667 269.333,252.833 272.5,256C 312.43,276.264 340.93,307.097 358,348.5C 366.656,370.364 368.823,392.864 364.5,416C 364.795,420.78 367.128,423.947 371.5,425.5C 367.882,438.753 361.215,450.086 351.5,459.5C 348.355,457.809 345.021,457.309 341.5,458C 324.505,471.561 305.171,479.894 283.5,483C 238.444,487.661 194.444,482.661 151.5,468C 114.596,455.235 83.596,434.068 58.5,404.5C 60.9494,405.042 63.4494,405.375 66,405.5C 91.2216,401.371 102.055,386.705 98.5,361.5C 100.978,358.671 101.978,355.338 101.5,351.5C 112.086,302.259 140.086,266.926 185.5,245.5C 193.324,251.868 198.658,250.201 201.5,240.5C 209.096,238.53 216.762,236.697 224.5,235C 234.766,230.593 241.433,223.093 244.5,212.5 Z"/></g>
<g><path style="opacity:1" fill="#080603" d="M 412.5,217.5 C 421.657,216.489 425.49,220.489 424,229.5C 418.903,236.13 413.903,236.13 409,229.5C 407.593,224.643 408.76,220.643 412.5,217.5 Z"/></g>
<g><path style="opacity:1" fill="#090604" d="M 356.5,219.5 C 365.158,218.327 368.992,221.994 368,230.5C 365.565,235.224 361.731,236.724 356.5,235C 349.875,229.754 349.875,224.587 356.5,219.5 Z"/></g>
<g><path style="opacity:1" fill="#0d0a07" d="M 201.5,240.5 C 198.658,250.201 193.324,251.868 185.5,245.5C 183.305,240.116 184.638,235.949 189.5,233C 196.318,231.233 200.318,233.733 201.5,240.5 Z"/></g>
<g><path style="opacity:1" fill="#0b0907" d="M 98.5,236.5 C 107.211,235.38 111.044,239.047 110,247.5C 104.13,255.726 98.7968,255.393 94,246.5C 93.4379,242.232 94.9379,238.898 98.5,236.5 Z"/></g>
<g><path style="opacity:1" fill="#070403" d="M 435.5,268.5 C 442.284,268.08 448.95,268.58 455.5,270C 461.205,275.814 460.538,280.814 453.5,285C 447.833,285.333 442.167,285.667 436.5,286C 431.882,288.95 427.548,292.284 423.5,296C 414.128,295.953 410.961,291.453 414,282.5C 419.805,275.49 426.971,270.824 435.5,268.5 Z"/></g>
<g><path style="opacity:1" fill="#0b0805" d="M 274.5,293.5 C 284.543,292.701 288.043,297.034 285,306.5C 279.186,312.205 274.186,311.538 270,304.5C 268.776,299.626 270.276,295.959 274.5,293.5 Z"/></g>
<g><path style="opacity:1" fill="#0b0805" d="M 237.5,299.5 C 246.711,298.542 250.545,302.542 249,311.5C 242.675,318.634 237.342,317.968 233,309.5C 232.333,308.167 232.333,306.833 233,305.5C 234.332,303.34 235.832,301.34 237.5,299.5 Z"/></g>
<g><path style="opacity:1" fill="#090604" d="M 160.5,321.5 C 168.879,320.715 172.712,324.381 172,332.5C 166.581,340.41 161.248,340.41 156,332.5C 155.333,330.5 155.333,328.5 156,326.5C 157.366,324.638 158.866,322.972 160.5,321.5 Z"/></g>
<g><path style="opacity:1" fill="#0c0905" d="M 419.5,333.5 C 428.874,333.357 432.374,337.69 430,346.5C 424.514,352.08 419.514,351.747 415,345.5C 413.474,340.239 414.974,336.239 419.5,333.5 Z"/></g>
<g><path style="opacity:1" fill="#080605" d="M 101.5,351.5 C 101.978,355.338 100.978,358.671 98.5,361.5C 89.1633,365.016 84.6633,361.683 85,351.5C 90.4176,344.978 95.9176,344.978 101.5,351.5 Z"/></g>
<g><path style="opacity:1" fill="#0b0805" d="M 271.5,360.5 C 279.523,360.683 283.023,364.683 282,372.5C 279.459,377.069 275.625,378.569 270.5,377C 263.671,371.003 264.004,365.503 271.5,360.5 Z"/></g>
<g><path style="opacity:1" fill="#060402" d="M 178.5,378.5 C 184.93,378.023 188.596,380.856 189.5,387C 185.615,395.279 182.115,403.779 179,412.5C 178.517,421.859 178.517,431.192 179,440.5C 178.015,444.666 175.348,446.666 171,446.5C 166.652,446.666 163.985,444.666 163,440.5C 158.583,420.918 161.583,402.584 172,385.5C 173.694,382.642 175.861,380.309 178.5,378.5 Z"/></g>
<g><path style="opacity:1" fill="#0b0705" d="M 299.5,414.5 C 306.985,414.483 310.485,418.15 310,425.5C 307.983,430.924 304.15,432.758 298.5,431C 291.518,425.057 291.852,419.557 299.5,414.5 Z"/></g>
</svg>
