<?xml version="1.0" encoding="UTF-8"?>
<!DOCTYPE svg PUBLIC "-//W3C//DTD SVG 1.1//EN" "http://www.w3.org/Graphics/SVG/1.1/DTD/svg11.dtd">
<svg xmlns="http://www.w3.org/2000/svg" version="1.1" width="512px" height="512px" style="shape-rendering:geometricPrecision; text-rendering:geometricPrecision; image-rendering:optimizeQuality; fill-rule:evenodd; clip-rule:evenodd" xmlns:xlink="http://www.w3.org/1999/xlink">
<g><path style="opacity:0.985" fill="#030200" d="M 232.5,-0.5 C 237.5,-0.5 242.5,-0.5 247.5,-0.5C 254.439,2.96962 261.439,6.46962 268.5,10C 273.648,14.4662 277.148,19.9662 279,26.5C 280.958,40.9956 282.791,55.4956 284.5,70C 288.637,72.906 292.97,75.5726 297.5,78C 305.434,86.1207 309.268,95.954 309,107.5C 312.394,106.544 315.894,106.211 319.5,106.5C 319.526,94.3245 319.193,82.1579 318.5,70C 316.962,59.1277 320.295,50.1277 328.5,43C 333.014,39.9088 337.347,36.5755 341.5,33C 348.914,29.3586 356.58,28.6919 364.5,31C 375.344,35.0755 384.344,41.5755 391.5,50.5C 398.308,48.9339 404.974,49.4339 411.5,52C 418.912,56.741 425.745,62.241 432,68.5C 433.608,71.3821 434.941,74.3821 436,77.5C 434.721,135.286 427.221,192.286 413.5,248.5C 421.105,253.799 425.438,261.132 426.5,270.5C 414.334,345.499 402.167,420.499 390,495.5C 387.315,503.35 382.148,508.684 374.5,511.5C 303.5,511.5 232.5,511.5 161.5,511.5C 154.829,508.328 149.996,503.328 147,496.5C 134.509,421.223 122.343,345.89 110.5,270.5C 110.915,263.338 113.748,257.338 119,252.5C 119.667,250.833 119.667,249.167 119,247.5C 106.897,206.854 92.23,167.187 75,128.5C 73.4572,110.417 79.9572,95.9173 94.5,85C 98.0569,83.5921 101.724,82.5921 105.5,82C 100.442,73.4967 98.2749,64.33 99,54.5C 102.658,43.6887 108.491,34.1887 116.5,26C 121.093,23.1804 126.093,21.6804 131.5,21.5C 141.995,22.164 151.995,24.664 161.5,29C 163.667,31.1667 165.833,33.3333 168,35.5C 172.586,44.9241 176.586,54.5908 180,64.5C 186.92,56.8941 194.92,50.8941 204,46.5C 202.564,37.8839 203.564,29.5506 207,21.5C 213.896,12.0893 222.396,4.756 232.5,-0.5 Z"/></g>
<g><path style="opacity:1" fill="#f99439" d="M 267.5,61.5 C 267.5,63.1667 267.5,64.8333 267.5,66.5C 265.585,66.2155 263.919,66.5489 262.5,67.5C 259.646,67.9239 256.979,68.9239 254.5,70.5C 254.167,69.6667 253.833,68.8333 253.5,68C 250.97,50.8124 248.803,33.6457 247,16.5C 250.73,18.5226 254.563,20.3559 258.5,22C 261.106,23.9384 262.939,26.4384 264,29.5C 265.257,40.163 266.424,50.8297 267.5,61.5 Z"/></g>
<g><path style="opacity:1" fill="#f5c759" d="M 229.5,19.5 C 230.496,19.4142 231.329,19.7476 232,20.5C 233.873,30.9452 235.373,41.4452 236.5,52C 236.167,53.5 235.833,55 235.5,56.5C 230.869,54.1733 226.202,51.8399 221.5,49.5C 219.94,43.2391 219.44,36.9058 220,30.5C 223.002,26.6662 226.169,22.9995 229.5,19.5 Z"/></g>
<g><path style="opacity:1" fill="#f79339" d="M 181.5,165.5 C 181.784,167.415 181.451,169.081 180.5,170.5C 169.652,125.288 154.985,81.2879 136.5,38.5C 143.92,37.9888 150.42,40.3221 156,45.5C 163.787,64.1922 170.787,83.1922 177,102.5C 179.628,123.423 181.128,144.423 181.5,165.5 Z"/></g>
<g><path style="opacity:1" fill="#f7c85a" d="M 121.5,43.5 C 129.442,59.9624 136.442,76.9624 142.5,94.5C 142.333,94.8333 142.167,95.1667 142,95.5C 137.194,88.8597 130.694,85.5264 122.5,85.5C 119.625,76.876 116.958,68.2094 114.5,59.5C 114.667,57.8333 114.833,56.1667 115,54.5C 117.421,50.9291 119.587,47.2625 121.5,43.5 Z"/></g>
<g><path style="opacity:1" fill="#f39138" d="M 362.5,47.5 C 365.646,49.5749 368.979,51.4082 372.5,53C 374.227,54.3894 375.561,56.0561 376.5,58C 374.358,60.4685 371.858,62.6351 369,64.5C 367.333,66.8333 365.667,69.1667 364,71.5C 363.357,63.5046 362.857,55.5046 362.5,47.5 Z"/></g>
<g><path style="opacity:1" fill="#f6c85a" d="M 346.5,48.5 C 348.461,61.9404 349.628,75.6071 350,89.5C 350.667,100.833 350.667,112.167 350,123.5C 346.302,119.069 341.802,115.736 336.5,113.5C 335.726,97.9852 334.726,82.4852 333.5,67C 333.267,63.5411 334.101,60.3745 336,57.5C 339.692,54.6352 343.192,51.6352 346.5,48.5 Z"/></g>
<g><path style="opacity:1" fill="#f89439" d="M 219.5,171.5 C 219.5,167.5 219.5,163.5 219.5,159.5C 224.976,157.003 226.976,152.67 225.5,146.5C 223.867,118.645 221.034,90.9784 217,63.5C 221.088,65.7942 225.255,67.9609 229.5,70C 232.139,75.0752 235.139,79.9085 238.5,84.5C 234.517,89.4662 232.517,95.1329 232.5,101.5C 235.49,123.071 237.49,144.738 238.5,166.5C 231.573,166.148 225.24,167.814 219.5,171.5 Z"/></g>
<g><path style="opacity:1" fill="#915621" d="M 267.5,61.5 C 268.461,63.2646 268.795,65.2646 268.5,67.5C 266.5,67.5 264.5,67.5 262.5,67.5C 263.919,66.5489 265.585,66.2155 267.5,66.5C 267.5,64.8333 267.5,63.1667 267.5,61.5 Z"/></g>
<g><path style="opacity:1" fill="#f8c95a" d="M 219.5,159.5 C 219.5,163.5 219.5,167.5 219.5,171.5C 214.562,175.936 209.729,180.603 205,185.5C 202.806,188.554 201.139,191.888 200,195.5C 200.593,211.195 201.76,226.861 203.5,242.5C 203.975,245.082 203.308,247.082 201.5,248.5C 199.833,248.5 198.167,248.5 196.5,248.5C 197.545,222.509 197.712,196.509 197,170.5C 195.258,139.42 192.924,108.42 190,77.5C 193,73.1667 196.667,69.5 201,66.5C 201.333,66.8333 201.667,67.1667 202,67.5C 206.245,96.0393 209.245,124.706 211,153.5C 212.172,157.837 215.006,159.837 219.5,159.5 Z"/></g>
<g><path style="opacity:1" fill="#f9ca5a" d="M 390.5,68.5 C 391.461,70.2646 391.795,72.2646 391.5,74.5C 389.115,125.022 382.782,175.022 372.5,224.5C 371.865,228.905 373.531,231.905 377.5,233.5C 376.57,237.796 375.737,242.13 375,246.5C 371.27,247.46 367.437,247.793 363.5,247.5C 363.557,232.802 362.89,218.135 361.5,203.5C 362.577,190.182 363.41,176.849 364,163.5C 364.178,159.879 365.845,157.212 369,155.5C 372.457,130.261 375.124,104.928 377,79.5C 380.29,74.2813 384.79,70.6147 390.5,68.5 Z"/></g>
<g><path style="opacity:1" fill="#f69339" d="M 363.5,247.5 C 367.437,247.793 371.27,247.46 375,246.5C 375.737,242.13 376.57,237.796 377.5,233.5C 381.355,234.155 384.188,232.821 386,229.5C 397.511,176.41 404.678,122.743 407.5,68.5C 411.94,71.4729 416.107,74.8062 420,78.5C 421.079,81.7121 421.579,85.0454 421.5,88.5C 417.818,142.104 409.985,195.104 398,247.5C 386.402,248.829 374.902,248.829 363.5,247.5 Z"/></g>
<g><path style="opacity:1" fill="#5f4d22" d="M 390.5,68.5 C 390.56,67.9569 390.893,67.6236 391.5,67.5C 392.797,69.9732 392.797,72.3066 391.5,74.5C 391.795,72.2646 391.461,70.2646 390.5,68.5 Z"/></g>
<g><path style="opacity:1" fill="#f89439" d="M 277.5,219.5 C 277.895,190.735 276.562,162.069 273.5,133.5C 278.976,132.001 280.976,128.334 279.5,122.5C 278.206,109.418 276.706,96.4182 275,83.5C 280.332,85.9969 285.332,88.9969 290,92.5C 290.667,93.8333 291.333,95.1667 292,96.5C 292.834,103.011 293.667,109.511 294.5,116C 291.013,120.155 287.513,124.322 284,128.5C 281.19,132.931 280.024,137.764 280.5,143C 288.502,196.605 290.502,250.438 286.5,304.5C 285.264,305.246 283.93,305.579 282.5,305.5C 281.782,276.775 280.115,248.108 277.5,219.5 Z"/></g>
<g><path style="opacity:1" fill="#f9ca5a" d="M 273.5,133.5 C 276.562,162.069 277.895,190.735 277.5,219.5C 275.555,210.368 274.055,201.035 273,191.5C 269.608,182.608 263.442,176.608 254.5,173.5C 252.825,149.772 250.491,126.105 247.5,102.5C 248.701,95.4384 252.534,90.105 259,86.5C 259.333,86.8333 259.667,87.1667 260,87.5C 262.327,101.453 264.327,115.453 266,129.5C 267.539,132.521 270.039,133.854 273.5,133.5 Z"/></g>
<g><path style="opacity:1" fill="#f99439" d="M 135.5,247.5 C 143.196,247.831 150.862,247.497 158.5,246.5C 157.009,242.2 155.676,237.867 154.5,233.5C 158.003,232.351 159.669,229.851 159.5,226C 151.949,199.731 143.116,173.898 133,148.5C 125.922,131.756 118.755,115.089 111.5,98.5C 121.908,98.2029 129.908,102.37 135.5,111C 140.423,111.955 143.923,110.121 146,105.5C 162.071,152.116 173.904,199.782 181.5,248.5C 165.991,248.83 150.658,248.496 135.5,247.5 Z"/></g>
<g><path style="opacity:1" fill="#facb5b" d="M 154.5,233.5 C 155.676,237.867 157.009,242.2 158.5,246.5C 150.862,247.497 143.196,247.831 135.5,247.5C 123.032,205.273 107.866,163.939 90,123.5C 89.759,116.298 92.0923,109.965 97,104.5C 116.667,145.174 133.001,187.174 146,230.5C 148.196,233.125 151.03,234.125 154.5,233.5 Z"/></g>
<g><path style="opacity:1" fill="#f89439" d="M 325.5,255.5 C 325.189,244.086 325.523,232.752 326.5,221.5C 328.371,221.141 329.871,220.141 331,218.5C 330.735,187.11 327.901,155.943 322.5,125C 322.667,124.5 322.833,124 323,123.5C 328.332,125.997 333.332,128.997 338,132.5C 341.716,147.21 344.049,162.21 345,177.5C 346.68,201.147 347.847,224.813 348.5,248.5C 339.451,246.76 331.784,249.093 325.5,255.5 Z"/></g>
<g><path style="opacity:1" fill="#f9ca5a" d="M 326.5,221.5 C 325.523,232.752 325.189,244.086 325.5,255.5C 323.512,257.465 322.012,259.798 321,262.5C 318.998,275.172 313.332,285.839 304,294.5C 304.59,243.623 301.757,192.957 295.5,142.5C 296.701,135.438 300.534,130.105 307,126.5C 307.333,126.833 307.667,127.167 308,127.5C 312.85,157.669 316.183,188.002 318,218.5C 320.196,221.125 323.03,222.125 326.5,221.5 Z"/></g>
<g><path style="opacity:1" fill="#5e3816" d="M 181.5,165.5 C 182.638,168.304 182.805,171.304 182,174.5C 181.209,173.255 180.709,171.922 180.5,170.5C 181.451,169.081 181.784,167.415 181.5,165.5 Z"/></g>
<g><path style="opacity:1" fill="#fa953a" d="M 235.5,295.5 C 234.727,274.509 234.394,253.509 234.5,232.5C 233.209,232.737 232.209,232.404 231.5,231.5C 234.97,232.125 237.804,231.125 240,228.5C 240.167,213.489 240.667,198.489 241.5,183.5C 245.833,185.667 250.167,187.833 254.5,190C 256.617,191.731 258.117,193.898 259,196.5C 264.31,233.306 267.143,270.306 267.5,307.5C 255.071,307.943 244.405,303.943 235.5,295.5 Z"/></g>
<g><path style="opacity:1" fill="#f9ca5a" d="M 231.5,231.5 C 232.209,232.404 233.209,232.737 234.5,232.5C 234.394,253.509 234.727,274.509 235.5,295.5C 221.452,285.373 216.285,271.706 220,254.5C 217.608,235.526 215.942,216.526 215,197.5C 217.647,193.686 220.813,190.353 224.5,187.5C 225.359,200.831 226.192,214.165 227,227.5C 227.748,229.751 229.248,231.084 231.5,231.5 Z"/></g>
<g><path style="opacity:1" fill="#977b37" d="M 203.5,242.5 C 204.468,244.607 204.802,246.941 204.5,249.5C 203.209,249.737 202.209,249.404 201.5,248.5C 203.308,247.082 203.975,245.082 203.5,242.5 Z"/></g>
<g><path style="opacity:1" fill="#fe5267" d="M 340.5,263.5 C 356.5,263.5 372.5,263.5 388.5,263.5C 377.174,333.788 366.174,404.121 355.5,474.5C 289.762,474.83 224.096,474.496 158.5,473.5C 148.219,407.812 137.719,342.146 127,276.5C 126.333,273.167 126.333,269.833 127,266.5C 128.214,264.951 129.714,263.785 131.5,263C 153.5,262.333 175.5,262.333 197.5,263C 200.381,264.251 202.214,266.417 203,269.5C 209.811,297.644 227.311,315.144 255.5,322C 290.378,326.15 315.545,312.65 331,281.5C 332.644,276.923 333.978,272.256 335,267.5C 336.451,265.536 338.284,264.203 340.5,263.5 Z"/></g>
<g><path style="opacity:1" fill="#c4314e" d="M 340.5,263.5 C 361.996,262.337 383.663,262.171 405.5,263C 410.069,265.541 411.569,269.375 410,274.5C 398.106,347.533 386.106,420.533 374,493.5C 373.097,494.701 371.931,495.535 370.5,496C 302.167,496.667 233.833,496.667 165.5,496C 164.333,494.833 163.167,493.667 162,492.5C 160.83,486.147 159.664,479.813 158.5,473.5C 224.096,474.496 289.762,474.83 355.5,474.5C 366.174,404.121 377.174,333.788 388.5,263.5C 372.5,263.5 356.5,263.5 340.5,263.5 Z"/></g>
</svg>
