<?xml version="1.0" encoding="UTF-8"?>
<!DOCTYPE svg PUBLIC "-//W3C//DTD SVG 1.1//EN" "http://www.w3.org/Graphics/SVG/1.1/DTD/svg11.dtd">
<svg xmlns="http://www.w3.org/2000/svg" version="1.1" width="512px" height="512px" style="shape-rendering:geometricPrecision; text-rendering:geometricPrecision; image-rendering:optimizeQuality; fill-rule:evenodd; clip-rule:evenodd" xmlns:xlink="http://www.w3.org/1999/xlink">
<g><path style="opacity:0.988" fill="#0f0e0f" d="M 511.5,226.5 C 511.5,259.5 511.5,292.5 511.5,325.5C 506.653,341.314 497.653,354.481 484.5,365C 458.479,383.69 429.813,397.023 398.5,405C 304.581,427.935 210.581,428.268 116.5,406C 83.6539,398.238 53.6539,384.571 26.5,365C 13.3465,354.481 4.34654,341.314 -0.5,325.5C -0.5,292.5 -0.5,259.5 -0.5,226.5C 3.89875,211.238 12.2321,198.405 24.5,188C 42.6681,173.911 62.6681,162.911 84.5,155C 131.518,138.997 179.852,130.664 229.5,130C 232.848,131.856 234.848,134.689 235.5,138.5C 234.91,144.597 231.577,148.431 225.5,150C 171.37,151.159 119.37,162.159 69.5,183C 55.1883,189.735 42.3549,198.568 31,209.5C 17.3332,224.503 15.9999,240.503 27,257.5C 35.6551,267.823 45.8217,276.323 57.5,283C 91.1659,300.555 126.833,311.888 164.5,317C 236.916,327.52 308.916,325.186 380.5,310C 406.396,303.814 431.063,294.481 454.5,282C 469.005,273.827 480.505,262.66 489,248.5C 493.848,233.706 490.848,220.706 480,209.5C 466.086,196.453 450.253,186.286 432.5,179C 419.404,173.801 406.071,169.301 392.5,165.5C 380.023,212.808 349.69,240.974 301.5,250C 286.796,253.192 272.129,253.192 257.5,250C 252.333,247.5 248.5,243.667 246,238.5C 235.646,203.16 239.146,169.827 256.5,138.5C 278.205,106.637 308.538,89.8032 347.5,88C 357.268,87.2146 366.934,87.8813 376.5,90C 382.571,93.0702 386.904,97.7369 389.5,104C 393.084,117.583 394.917,131.416 395,145.5C 425.345,153.259 453.512,165.759 479.5,183C 494.73,194.355 505.397,208.855 511.5,226.5 Z"/></g>
<g><path style="opacity:1" fill="#7fd149" d="M 340.5,108.5 C 349.839,108.334 359.173,108.5 368.5,109C 369.667,109.5 370.5,110.333 371,111.5C 376.783,138.244 373.783,163.911 362,188.5C 341.978,219.262 313.478,233.762 276.5,232C 291.333,215.167 306.167,198.333 321,181.5C 325.592,170.092 321.759,164.925 309.5,166C 293.667,183.833 277.833,201.667 262,219.5C 255.082,179.221 267.915,147.054 300.5,123C 313.027,115.66 326.36,110.827 340.5,108.5 Z"/></g>
<g><path style="opacity:1" fill="#be512f" d="M 235.5,138.5 C 242.5,138.5 249.5,138.5 256.5,138.5C 239.146,169.827 235.646,203.16 246,238.5C 248.5,243.667 252.333,247.5 257.5,250C 272.129,253.192 286.796,253.192 301.5,250C 349.69,240.974 380.023,212.808 392.5,165.5C 406.071,169.301 419.404,173.801 432.5,179C 450.253,186.286 466.086,196.453 480,209.5C 490.848,220.706 493.848,233.706 489,248.5C 480.505,262.66 469.005,273.827 454.5,282C 431.063,294.481 406.396,303.814 380.5,310C 308.916,325.186 236.916,327.52 164.5,317C 126.833,311.888 91.1659,300.555 57.5,283C 45.8217,276.323 35.6551,267.823 27,257.5C 15.9999,240.503 17.3332,224.503 31,209.5C 42.3549,198.568 55.1883,189.735 69.5,183C 119.37,162.159 171.37,151.159 225.5,150C 231.577,148.431 234.91,144.597 235.5,138.5 Z"/></g>
<g><path style="opacity:1" fill="#13100f" d="M 162.5,180.5 C 174.308,180.466 177.808,185.799 173,196.5C 162.072,202.038 156.739,198.705 157,186.5C 158.36,183.977 160.193,181.977 162.5,180.5 Z"/></g>
<g><path style="opacity:1" fill="#131010" d="M 432.5,208.5 C 442.039,207.869 446.206,212.203 445,221.5C 440.684,227.997 435.351,228.997 429,224.5C 424.927,217.914 426.094,212.581 432.5,208.5 Z"/></g>
<g><path style="opacity:1" fill="#141010" d="M 74.5,221.5 C 85.3793,220.534 89.546,225.2 87,235.5C 80.8333,242.412 75.1667,242.079 70,234.5C 68.3809,228.968 69.8809,224.634 74.5,221.5 Z"/></g>
<g><path style="opacity:1" fill="#131010" d="M 198.5,260.5 C 206.186,259.14 210.853,262.14 212.5,269.5C 210.761,278.037 205.761,280.87 197.5,278C 191.922,271.798 192.256,265.965 198.5,260.5 Z"/></g>
<g><path style="opacity:1" fill="#131010" d="M 352.5,264.5 C 362.039,263.869 366.206,268.203 365,277.5C 360.684,283.997 355.351,284.997 349,280.5C 344.927,273.914 346.094,268.581 352.5,264.5 Z"/></g>
<g><path style="opacity:1" fill="#a24025" d="M 19.5,278.5 C 35.1447,292.667 52.8114,303.834 72.5,312C 129.084,333.598 187.751,344.098 248.5,343.5C 303.582,344.321 357.582,337.155 410.5,322C 440.61,313.699 467.443,299.532 491,279.5C 499.79,314.197 488.957,340.364 458.5,358C 425.31,376.136 389.977,388.136 352.5,394C 285.098,404.332 217.765,403.999 150.5,393C 116.25,387.028 83.917,375.695 53.5,359C 22.2968,340.964 10.9635,314.131 19.5,278.5 Z"/></g>
</svg>
