<?xml version="1.0" encoding="UTF-8"?>
<!DOCTYPE svg PUBLIC "-//W3C//DTD SVG 1.1//EN" "http://www.w3.org/Graphics/SVG/1.1/DTD/svg11.dtd">
<svg xmlns="http://www.w3.org/2000/svg" version="1.1" width="512px" height="512px" style="shape-rendering:geometricPrecision; text-rendering:geometricPrecision; image-rendering:optimizeQuality; fill-rule:evenodd; clip-rule:evenodd" xmlns:xlink="http://www.w3.org/1999/xlink">
<g><path style="opacity:0.991" fill="#090808" d="M 511.5,252.5 C 511.5,271.833 511.5,291.167 511.5,310.5C 505.753,343.324 488.586,368.324 460,385.5C 459.5,394.494 459.334,403.494 459.5,412.5C 472.574,412.057 485.574,412.557 498.5,414C 506.288,418.273 510.622,424.773 511.5,433.5C 511.5,435.167 511.5,436.833 511.5,438.5C 510.084,448.141 504.751,454.641 495.5,458C 363.167,458.667 230.833,458.667 98.5,458C 76.8587,449.895 68.3587,434.395 73,411.5C 74.5982,406.468 77.0982,401.968 80.5,398C 36.6259,393.092 9.62586,369.259 -0.5,326.5C -0.5,300.167 -0.5,273.833 -0.5,247.5C 3.92349,207.401 18.0902,171.068 42,138.5C 45.0412,135.458 48.5412,134.792 52.5,136.5C 55.2202,139.678 56.0536,143.345 55,147.5C 21.3679,194.022 8.0346,246.022 15,303.5C 26.6061,299.559 33.6061,291.559 36,279.5C 35.6657,206.641 66.1657,151.141 127.5,113C 166.737,91.0523 208.404,84.719 252.5,94C 326.623,113.79 372.79,160.956 391,235.5C 393.745,250.371 395.078,265.371 395,280.5C 397.519,291.511 404.019,298.844 414.5,302.5C 414.56,303.043 414.893,303.376 415.5,303.5C 416.827,286.338 416.827,269.338 415.5,252.5C 407.984,182.196 373.984,129.029 313.5,93C 239.926,55.7018 168.592,59.3685 99.5,104C 91.6491,110.095 83.9824,116.428 76.5,123C 73.0187,124.999 69.6854,124.832 66.5,122.5C 64.033,119.02 63.8664,115.353 66,111.5C 102.441,77.5367 145.608,58.0367 195.5,53C 234.167,52.3333 272.833,52.3333 311.5,53C 397.85,63.7085 459.016,108.542 495,187.5C 503.374,208.571 508.874,230.238 511.5,252.5 Z"/></g>
<g><path style="opacity:1" fill="#eeeeee" d="M 415.5,252.5 C 415.83,269.342 415.497,286.008 414.5,302.5C 404.019,298.844 397.519,291.511 395,280.5C 395.078,265.371 393.745,250.371 391,235.5C 372.79,160.956 326.623,113.79 252.5,94C 208.404,84.719 166.737,91.0523 127.5,113C 66.1657,151.141 35.6657,206.641 36,279.5C 33.6061,291.559 26.6061,299.559 15,303.5C 8.0346,246.022 21.3679,194.022 55,147.5C 56.0536,143.345 55.2202,139.678 52.5,136.5C 56.8062,131.527 61.4729,126.86 66.5,122.5C 69.6854,124.832 73.0187,124.999 76.5,123C 83.9824,116.428 91.6491,110.095 99.5,104C 168.592,59.3685 239.926,55.7018 313.5,93C 373.984,129.029 407.984,182.196 415.5,252.5 Z"/></g>
<g><path style="opacity:1" fill="#e3636d" d="M 337.5,72.5 C 346.514,77.51 355.847,82.3434 365.5,87C 437.751,131.307 473.751,196.14 473.5,281.5C 475.999,305.176 471.166,327.176 459,347.5C 457.961,348.71 456.794,349.71 455.5,350.5C 451.108,338.772 442.775,331.772 430.5,329.5C 432.236,297.789 431.736,266.123 429,234.5C 413.649,155.496 369.149,99.9961 295.5,68C 309.684,67.7289 323.684,69.2289 337.5,72.5 Z"/></g>
<g><path style="opacity:1" fill="#d86765" d="M 337.5,72.5 C 419.051,95.2177 470.551,147.551 492,229.5C 496.77,257.006 497.77,284.673 495,312.5C 490.289,334.43 479.123,352.264 461.5,366C 460.552,366.483 459.552,366.649 458.5,366.5C 458.775,360.879 457.775,355.545 455.5,350.5C 456.794,349.71 457.961,348.71 459,347.5C 471.166,327.176 475.999,305.176 473.5,281.5C 473.751,196.14 437.751,131.307 365.5,87C 355.847,82.3434 346.514,77.51 337.5,72.5 Z"/></g>
<g><path style="opacity:1" fill="#f2c2c5" d="M 202.5,104.5 C 270.025,103.003 321.525,130.67 357,187.5C 360.773,194.712 364.273,202.045 367.5,209.5C 351.388,209.36 336.721,213.86 323.5,223C 314.4,230.097 305.9,237.931 298,246.5C 289.187,258.645 279.02,269.478 267.5,279C 249.054,290.427 230.054,291.427 210.5,282C 201.057,275.974 194.89,267.474 192,256.5C 192.016,238.13 192.683,219.797 194,201.5C 187.929,170.483 170.095,149.65 140.5,139C 133.606,137.282 126.606,136.282 119.5,136C 144.473,118.288 172.14,107.788 202.5,104.5 Z"/></g>
<g><path style="opacity:1" fill="#f190b8" d="M 114.5,151.5 C 148.347,152.175 169.847,168.842 179,201.5C 179.667,207.833 179.667,214.167 179,220.5C 172.676,241.05 174.676,260.717 185,279.5C 192.952,290.453 201.285,301.12 210,311.5C 213.292,316.583 216.459,321.75 219.5,327C 203.5,327.333 187.5,327.667 171.5,328C 157.867,331.631 148.7,340.131 144,353.5C 142.609,363.1 142.109,372.767 142.5,382.5C 119.498,382.667 96.4976,382.5 73.5,382C 38.9474,374.618 19.6141,353.452 15.5,318.5C 35.8178,313.344 47.6511,300.344 51,279.5C 49.7609,234.543 63.5942,195.043 92.5,161C 99.3358,156.409 106.669,153.242 114.5,151.5 Z"/></g>
<g><path style="opacity:1" fill="#fdd6d3" d="M 352.5,225.5 C 357.844,225.334 363.177,225.501 368.5,226C 370.676,226.163 372.509,226.996 374,228.5C 378.264,245.561 380.264,262.895 380,280.5C 383.764,300.763 395.598,313.429 415.5,318.5C 415.5,321.5 415.5,324.5 415.5,327.5C 355.496,327.833 295.496,327.5 235.5,326.5C 232.092,318.679 227.926,311.346 223,304.5C 251.539,307.165 275.539,297.165 295,274.5C 306.125,258.375 319.625,244.541 335.5,233C 341.072,229.988 346.739,227.488 352.5,225.5 Z"/></g>
<g><path style="opacity:1" fill="#c0c0c0" d="M 415.5,252.5 C 416.827,269.338 416.827,286.338 415.5,303.5C 414.893,303.376 414.56,303.043 414.5,302.5C 415.497,286.008 415.83,269.342 415.5,252.5 Z"/></g>
<g><path style="opacity:1" fill="#e3636d" d="M 172.5,342.5 C 206.502,342.333 240.502,342.5 274.5,343C 271.65,347.532 269.484,352.366 268,357.5C 267.667,376.5 267.333,395.5 267,414.5C 262.009,435.14 248.842,444.64 227.5,443C 218.795,440.296 213.629,434.462 212,425.5C 211.444,403.273 200.277,389.773 178.5,385C 171.508,384.5 164.508,384.334 157.5,384.5C 157.08,374.753 157.58,365.086 159,355.5C 162.076,349.589 166.576,345.255 172.5,342.5 Z"/></g>
<g><path style="opacity:1" fill="#f2c1c4" d="M 313.5,443.5 C 309.229,439.376 306.396,434.376 305,428.5C 304.667,405.5 304.333,382.5 304,359.5C 302.891,355.281 301.225,351.281 299,347.5C 297.89,345.963 296.39,345.297 294.5,345.5C 304.104,340.683 312.938,342.016 321,349.5C 323.442,352.048 325.108,355.048 326,358.5C 326.333,380.833 326.667,403.167 327,425.5C 327.984,431.786 330.151,437.62 333.5,443C 326.842,443.5 320.175,443.666 313.5,443.5 Z"/></g>
<g><path style="opacity:1" fill="#e2636d" d="M 392.5,386.5 C 392.5,393.5 392.5,400.5 392.5,407.5C 389.675,407.081 387.509,408.081 386,410.5C 384.755,416.39 384.088,422.39 384,428.5C 379.113,439.725 370.613,444.559 358.5,443C 349.566,440.399 344.066,434.566 342,425.5C 341.667,402.833 341.333,380.167 341,357.5C 340.056,352.113 337.89,347.28 334.5,343C 353.509,342.167 372.509,342.334 391.5,343.5C 385.969,351.454 383.636,360.287 384.5,370C 384.667,373.833 384.833,377.667 385,381.5C 386.33,385.007 388.83,386.673 392.5,386.5 Z"/></g>
<g><path style="opacity:1" fill="#efbfc2" d="M 432.5,443.5 C 427.069,437.888 423.569,431.221 422,423.5C 421.667,402.167 421.333,380.833 421,359.5C 420.261,355.615 418.927,351.948 417,348.5C 415.871,346.859 414.371,345.859 412.5,345.5C 422.85,341.473 432.017,343.473 440,351.5C 441.608,354.382 442.941,357.382 444,360.5C 444.333,382.167 444.667,403.833 445,425.5C 446.147,431.948 448.647,437.781 452.5,443C 445.842,443.5 439.175,443.666 432.5,443.5 Z"/></g>
<g><path style="opacity:1" fill="#fdd6d3" d="M 294.5,345.5 C 296.39,345.297 297.89,345.963 299,347.5C 301.225,351.281 302.891,355.281 304,359.5C 304.333,382.5 304.667,405.5 305,428.5C 306.396,434.376 309.229,439.376 313.5,443.5C 298.83,443.667 284.163,443.5 269.5,443C 276.353,435.129 280.52,425.962 282,415.5C 282.333,396.833 282.667,378.167 283,359.5C 284.866,353.142 288.699,348.475 294.5,345.5 Z"/></g>
<g><path style="opacity:1" fill="#fcd6d3" d="M 412.5,345.5 C 414.371,345.859 415.871,346.859 417,348.5C 418.927,351.948 420.261,355.615 421,359.5C 421.333,380.833 421.667,402.167 422,423.5C 423.569,431.221 427.069,437.888 432.5,443.5C 419.483,443.832 406.483,443.499 393.5,442.5C 399.558,432.109 401.058,421.109 398,409.5C 396.416,408.139 394.582,407.472 392.5,407.5C 392.5,400.5 392.5,393.5 392.5,386.5C 395.561,386.556 397.728,385.222 399,382.5C 399.089,373.758 399.756,365.091 401,356.5C 403.406,351.259 407.239,347.592 412.5,345.5 Z"/></g>
<g><path style="opacity:1" fill="#fed7d4" d="M 105.5,400.5 C 125.503,400.333 145.503,400.5 165.5,401C 172.767,409.8 176.267,419.967 176,431.5C 177.343,435.51 179.509,439.01 182.5,442C 155.502,442.5 128.502,442.667 101.5,442.5C 94.616,440.785 90.116,436.452 88,429.5C 86.0426,419.372 88.8759,410.872 96.5,404C 99.1476,401.95 102.148,400.784 105.5,400.5 Z"/></g>
<g><path style="opacity:1" fill="#ecbec0" d="M 105.5,400.5 C 129.33,399.337 153.33,399.17 177.5,400C 186.404,401.904 192.571,407.071 196,415.5C 196.164,421.97 197.164,428.304 199,434.5C 199.848,437.698 201.348,440.531 203.5,443C 169.331,443.831 135.331,443.664 101.5,442.5C 128.502,442.667 155.502,442.5 182.5,442C 179.509,439.01 177.343,435.51 176,431.5C 176.267,419.967 172.767,409.8 165.5,401C 145.503,400.5 125.503,400.333 105.5,400.5 Z"/></g>
<g><path style="opacity:1" fill="#de616a" d="M 461.5,427.5 C 471.506,427.334 481.506,427.5 491.5,428C 498.075,433.133 498.075,438.133 491.5,443C 477.091,445.965 467.091,440.798 461.5,427.5 Z"/></g>
</svg>
