<?xml version="1.0" encoding="UTF-8"?>
<!DOCTYPE svg PUBLIC "-//W3C//DTD SVG 1.1//EN" "http://www.w3.org/Graphics/SVG/1.1/DTD/svg11.dtd">
<svg xmlns="http://www.w3.org/2000/svg" version="1.1" width="512px" height="512px" style="shape-rendering:geometricPrecision; text-rendering:geometricPrecision; image-rendering:optimizeQuality; fill-rule:evenodd; clip-rule:evenodd" xmlns:xlink="http://www.w3.org/1999/xlink">
<g><path style="opacity:0.985" fill="#020101" d="M 207.5,119.5 C 260.695,115.8 310.695,126.634 357.5,152C 400.511,176.507 443.845,200.507 487.5,224C 505.179,239.944 508.346,258.444 497,279.5C 491.101,287.537 483.267,292.704 473.5,295C 444.167,295.333 414.833,295.667 385.5,296C 400.256,305.127 414.756,314.627 429,324.5C 440.224,338.365 442.557,353.699 436,370.5C 430.096,381.066 421.262,387.899 409.5,391C 317.833,391.667 226.167,391.667 134.5,391C 89.2035,386.266 50.7035,367.766 19,335.5C 8.61623,322.967 4.94956,308.633 8,292.5C 10.3881,282.551 15.2215,274.051 22.5,267C 37.67,257.914 53.0034,249.081 68.5,240.5C 55.3593,225.589 51.8593,208.589 58,189.5C 62.3263,178.175 69.8263,169.675 80.5,164C 99.4897,153.005 119.156,143.339 139.5,135C 161.705,127.196 184.372,122.029 207.5,119.5 Z"/></g>
<g><path style="opacity:1" fill="#f9d8c0" d="M 449.5,231.5 C 412.473,233.128 375.473,232.628 338.5,230C 337.402,229.23 337.402,228.397 338.5,227.5C 342.32,224.747 345.986,221.747 349.5,218.5C 334.062,194.115 313.062,176.281 286.5,165C 271.75,158.419 256.417,153.919 240.5,151.5C 239.399,156.773 238.733,162.106 238.5,167.5C 280.13,173.295 312.797,193.295 336.5,227.5C 335.228,228.434 333.728,229.101 332,229.5C 307.973,227.061 284.14,223.394 260.5,218.5C 231.484,186.32 195.484,166.654 152.5,159.5C 151.617,164.132 150.95,168.798 150.5,173.5C 143.454,168.787 137.787,162.787 133.5,155.5C 206.721,125.841 278.387,129.341 348.5,166C 385.511,187.174 422.845,207.841 460.5,228C 456.968,229.632 453.301,230.799 449.5,231.5 Z"/></g>
<g><path style="opacity:1" fill="#070505" d="M 338.5,227.5 C 337.833,227.5 337.167,227.5 336.5,227.5C 312.797,193.295 280.13,173.295 238.5,167.5C 238.733,162.106 239.399,156.773 240.5,151.5C 256.417,153.919 271.75,158.419 286.5,165C 313.062,176.281 334.062,194.115 349.5,218.5C 345.986,221.747 342.32,224.747 338.5,227.5 Z"/></g>
<g><path style="opacity:1" fill="#f0c5aa" d="M 133.5,155.5 C 137.787,162.787 143.454,168.787 150.5,173.5C 151.211,175.201 152.545,176.201 154.5,176.5C 165.33,185.091 177.33,191.924 190.5,197C 200.434,200.867 210.434,204.533 220.5,208C 222.066,208.765 223.399,208.598 224.5,207.5C 230.294,212.123 235.961,216.956 241.5,222C 188.88,210.514 137.38,214.347 87,233.5C 79.0113,229.214 74.178,222.547 72.5,213.5C 101.307,209.096 130.307,207.096 159.5,207.5C 159.5,202.167 159.5,196.833 159.5,191.5C 130.641,190.891 101.975,192.891 73.5,197.5C 75.2683,190.814 78.935,185.314 84.5,181C 100.497,171.832 116.83,163.332 133.5,155.5 Z"/></g>
<g><path style="opacity:1" fill="#f6d5bd" d="M 154.5,176.5 C 180.597,180.888 203.931,191.221 224.5,207.5C 223.399,208.598 222.066,208.765 220.5,208C 210.434,204.533 200.434,200.867 190.5,197C 177.33,191.924 165.33,185.091 154.5,176.5 Z"/></g>
<g><path style="opacity:1" fill="#000000" d="M 271.5,199.5 C 276.833,199.5 282.167,199.5 287.5,199.5C 287.5,204.833 287.5,210.167 287.5,215.5C 282.167,215.5 276.833,215.5 271.5,215.5C 271.5,210.167 271.5,204.833 271.5,199.5 Z"/></g>
<g><path style="opacity:1" fill="#000000" d="M 367.5,199.5 C 372.833,199.5 378.167,199.5 383.5,199.5C 383.5,204.833 383.5,210.167 383.5,215.5C 378.167,215.5 372.833,215.5 367.5,215.5C 367.5,210.167 367.5,204.833 367.5,199.5 Z"/></g>
<g><path style="opacity:1" fill="#f1c6ab" d="M 260.5,218.5 C 284.14,223.394 307.973,227.061 332,229.5C 333.728,229.101 335.228,228.434 336.5,227.5C 337.167,227.5 337.833,227.5 338.5,227.5C 337.402,228.397 337.402,229.23 338.5,230C 375.473,232.628 412.473,233.128 449.5,231.5C 433.472,235.053 417.138,237.553 400.5,239C 363.5,239.667 326.5,239.667 289.5,239C 283.206,236.402 276.873,233.902 270.5,231.5C 267.143,227.148 263.809,222.815 260.5,218.5 Z"/></g>
<g><path style="opacity:1" fill="#f8d8c0" d="M 164.5,231.5 C 214.008,229.033 260.341,239.866 303.5,264C 334.669,283.417 365.669,303.084 396.5,323C 374.53,333.1 351.53,339.766 327.5,343C 263.5,343.667 199.5,343.667 135.5,343C 100.767,337.053 66.1,330.72 31.5,324C 27.9834,320.134 25.6501,315.634 24.5,310.5C 53.2383,305.299 82.2383,302.965 111.5,303.5C 111.5,298.167 111.5,292.833 111.5,287.5C 82.6656,287.242 53.9989,289.242 25.5,293.5C 27.1746,287.331 30.5079,282.164 35.5,278C 62.1522,260.676 90.8189,247.676 121.5,239C 135.826,235.613 150.159,233.113 164.5,231.5 Z"/></g>
<g><path style="opacity:1" fill="#efb69f" d="M 477.5,238.5 C 479.371,238.859 480.871,239.859 482,241.5C 490.142,253.598 488.976,264.765 478.5,275C 475.618,276.608 472.618,277.941 469.5,279C 449.833,279.667 430.167,279.667 410.5,279C 398.448,269.97 385.448,262.47 371.5,256.5C 369.355,258.732 367.855,261.399 367,264.5C 365.85,266.754 365.516,269.087 366,271.5C 371.212,273.856 376.379,276.356 381.5,279C 373.5,279.667 365.5,279.667 357.5,279C 345.167,271.333 332.833,263.667 320.5,256C 351.188,255.909 381.854,255.243 412.5,254C 435.214,252.648 456.881,247.482 477.5,238.5 Z"/></g>
<g><path style="opacity:1" fill="#050404" d="M 192.5,248.5 C 214.843,251.559 235.843,258.726 255.5,270C 276.049,281.713 294.049,296.547 309.5,314.5C 305.817,317.999 301.817,320.999 297.5,323.5C 275.945,301.384 250.945,284.217 222.5,272C 212.058,268.24 201.391,265.407 190.5,263.5C 190.626,258.414 191.293,253.414 192.5,248.5 Z"/></g>
<g><path style="opacity:1" fill="#050404" d="M 104.5,256.5 C 126.843,259.559 147.843,266.726 167.5,278C 188.049,289.713 206.049,304.547 221.5,322.5C 217.817,325.999 213.817,328.999 209.5,331.5C 187.945,309.384 162.945,292.217 134.5,280C 124.058,276.24 113.391,273.407 102.5,271.5C 102.626,266.414 103.293,261.414 104.5,256.5 Z"/></g>
<g><path style="opacity:1" fill="#000000" d="M 319.5,287.5 C 324.833,287.5 330.167,287.5 335.5,287.5C 335.5,292.833 335.5,298.167 335.5,303.5C 330.167,303.5 324.833,303.5 319.5,303.5C 319.5,298.167 319.5,292.833 319.5,287.5 Z"/></g>
<g><path style="opacity:1" fill="#000000" d="M 127.5,303.5 C 132.833,303.5 138.167,303.5 143.5,303.5C 143.5,308.833 143.5,314.167 143.5,319.5C 138.167,319.5 132.833,319.5 127.5,319.5C 127.5,314.167 127.5,308.833 127.5,303.5 Z"/></g>
<g><path style="opacity:1" fill="#000000" d="M 239.5,311.5 C 244.833,311.5 250.167,311.5 255.5,311.5C 255.5,316.833 255.5,322.167 255.5,327.5C 250.167,327.5 244.833,327.5 239.5,327.5C 239.5,322.167 239.5,316.833 239.5,311.5 Z"/></g>
<g><path style="opacity:1" fill="#f0c5aa" d="M 411.5,334.5 C 415.526,334.677 418.359,336.677 420,340.5C 425.919,352.023 424.086,362.19 414.5,371C 411.618,372.608 408.618,373.941 405.5,375C 390.833,375.667 376.167,375.667 361.5,375C 353.483,368.326 344.817,362.659 335.5,358C 361.943,353.462 387.276,345.628 411.5,334.5 Z"/></g>
<g><path style="opacity:1" fill="#efb79f" d="M 56.5,345.5 C 56.7352,344.903 57.2352,344.57 58,344.5C 83.4122,349.849 108.912,354.683 134.5,359C 185.5,359.333 236.5,359.667 287.5,360C 303.672,362.391 319.006,367.391 333.5,375C 267.833,375.667 202.167,375.667 136.5,375C 107.392,371.605 80.7248,361.771 56.5,345.5 Z"/></g>
</svg>
