<?xml version="1.0" encoding="UTF-8"?>
<!DOCTYPE svg PUBLIC "-//W3C//DTD SVG 1.1//EN" "http://www.w3.org/Graphics/SVG/1.1/DTD/svg11.dtd">
<svg xmlns="http://www.w3.org/2000/svg" version="1.1" width="256px" height="256px" style="shape-rendering:geometricPrecision; text-rendering:geometricPrecision; image-rendering:optimizeQuality; fill-rule:evenodd; clip-rule:evenodd" xmlns:xlink="http://www.w3.org/1999/xlink">
<g><path style="opacity:0.954" fill="#020100" d="M 77.5,-0.5 C 110.833,-0.5 144.167,-0.5 177.5,-0.5C 177.987,0.473444 178.487,1.47344 179,2.5C 179.667,11.8333 179.667,21.1667 179,30.5C 177.188,33.8212 174.355,35.1546 170.5,34.5C 170.333,49.5037 170.5,64.5037 171,79.5C 173.667,83.5 176.333,87.5 179,91.5C 179.667,145.167 179.667,198.833 179,252.5C 178.487,253.527 177.987,254.527 177.5,255.5C 144.167,255.5 110.833,255.5 77.5,255.5C 77.0133,254.527 76.5133,253.527 76,252.5C 75.3333,198.833 75.3333,145.167 76,91.5C 78.6667,87.5 81.3333,83.5 84,79.5C 84.4999,64.5037 84.6666,49.5037 84.5,34.5C 80.6453,35.1546 77.8119,33.8212 76,30.5C 75.3333,21.1667 75.3333,11.8333 76,2.5C 76.5133,1.47344 77.0133,0.473444 77.5,-0.5 Z"/></g>
<g><path style="opacity:1" fill="#33383f" d="M 84.5,7.5 C 113.167,7.5 141.833,7.5 170.5,7.5C 170.5,13.5 170.5,19.5 170.5,25.5C 141.833,25.5 113.167,25.5 84.5,25.5C 84.5,19.5 84.5,13.5 84.5,7.5 Z"/></g>
<g><path style="opacity:1" fill="#59646f" d="M 85.5,8.5 C 113.5,8.5 141.5,8.5 169.5,8.5C 169.5,13.8333 169.5,19.1667 169.5,24.5C 141.5,24.5 113.5,24.5 85.5,24.5C 85.5,19.1667 85.5,13.8333 85.5,8.5 Z"/></g>
<g><path style="opacity:1" fill="#e86769" d="M 93.5,33.5 C 110.5,33.5 127.5,33.5 144.5,33.5C 144.333,48.5037 144.5,63.5037 145,78.5C 148.012,81.2499 150.679,80.9166 153,77.5C 153.5,62.8371 153.667,48.1705 153.5,33.5C 156.167,33.5 158.833,33.5 161.5,33.5C 161.333,49.8367 161.5,66.1701 162,82.5C 165.889,86.949 168.722,91.949 170.5,97.5C 141.833,97.5 113.167,97.5 84.5,97.5C 86.2778,91.949 89.1111,86.949 93,82.5C 93.4999,66.1701 93.6666,49.8367 93.5,33.5 Z"/></g>
<g><path style="opacity:1" fill="#937c4b" d="M 169.5,191.5 C 169.5,163.167 169.5,134.833 169.5,106.5C 141.5,106.5 113.5,106.5 85.5,106.5C 85.5,134.833 85.5,163.167 85.5,191.5C 84.502,163.005 84.1687,134.338 84.5,105.5C 113.167,105.5 141.833,105.5 170.5,105.5C 170.831,134.338 170.498,163.005 169.5,191.5 Z"/></g>
<g><path style="opacity:1" fill="#fed681" d="M 169.5,191.5 C 141.5,191.5 113.5,191.5 85.5,191.5C 85.5,163.167 85.5,134.833 85.5,106.5C 113.5,106.5 141.5,106.5 169.5,106.5C 169.5,134.833 169.5,163.167 169.5,191.5 Z"/></g>
<g><path style="opacity:1" fill="#0c0806" d="M 155.5,127.5 C 160.494,127.329 162.328,129.662 161,134.5C 157.651,137.682 154.484,141.015 151.5,144.5C 153.856,147.022 156.023,149.688 158,152.5C 158.929,156.244 158.429,159.744 156.5,163C 136.545,175.568 115.712,177.402 94,168.5C 93.3333,166.833 93.3333,165.167 94,163.5C 107.833,155 119,143.833 127.5,130C 130.167,129.333 132.833,129.333 135.5,130C 138.646,132.312 141.646,134.812 144.5,137.5C 148.213,134.116 151.879,130.783 155.5,127.5 Z"/></g>
<g><path style="opacity:1" fill="#e16466" d="M 131.5,138.5 C 137.536,143.523 143.369,148.856 149,154.5C 149.667,155.5 149.667,156.5 149,157.5C 136.232,164.799 122.732,166.965 108.5,164C 117.676,156.777 125.343,148.277 131.5,138.5 Z"/></g>
<g><path style="opacity:1" fill="#7a3637" d="M 84.5,199.5 C 113.167,199.5 141.833,199.5 170.5,199.5C 170.5,215.5 170.5,231.5 170.5,247.5C 141.833,247.5 113.167,247.5 84.5,247.5C 84.5,231.5 84.5,215.5 84.5,199.5 Z"/></g>
<g><path style="opacity:1" fill="#e86769" d="M 85.5,200.5 C 113.5,200.5 141.5,200.5 169.5,200.5C 169.5,215.833 169.5,231.167 169.5,246.5C 141.5,246.5 113.5,246.5 85.5,246.5C 85.5,231.167 85.5,215.833 85.5,200.5 Z"/></g>
<g><path style="opacity:1" fill="#040302" d="M 130.5,230.5 C 138.167,230.5 145.833,230.5 153.5,230.5C 153.5,224.167 153.5,217.833 153.5,211.5C 155.563,208.027 158.063,207.694 161,210.5C 161.667,219.167 161.667,227.833 161,236.5C 160.5,237 160,237.5 159.5,238C 149.5,238.667 139.5,238.667 129.5,238C 126.72,234.979 127.053,232.479 130.5,230.5 Z"/></g>
<g><path style="opacity:1" fill="#6f4a36" d="M 153.5,211.5 C 153.5,217.833 153.5,224.167 153.5,230.5C 145.833,230.5 138.167,230.5 130.5,230.5C 137.648,229.508 144.981,229.175 152.5,229.5C 152.177,223.31 152.51,217.31 153.5,211.5 Z"/></g>
<g><path style="opacity:1" fill="#110c08" d="M 104.5,229.5 C 108.514,229.334 112.514,229.501 116.5,230C 119.167,232.667 119.167,235.333 116.5,238C 112.5,238.667 108.5,238.667 104.5,238C 101.899,235.17 101.899,232.337 104.5,229.5 Z"/></g>
</svg>
