<?xml version="1.0" encoding="UTF-8"?>
<!DOCTYPE svg PUBLIC "-//W3C//DTD SVG 1.1//EN" "http://www.w3.org/Graphics/SVG/1.1/DTD/svg11.dtd">
<svg xmlns="http://www.w3.org/2000/svg" version="1.1" width="512px" height="512px" style="shape-rendering:geometricPrecision; text-rendering:geometricPrecision; image-rendering:optimizeQuality; fill-rule:evenodd; clip-rule:evenodd" xmlns:xlink="http://www.w3.org/1999/xlink">
<g><path style="opacity:0.973" fill="#010201" d="M 511.5,92.5 C 511.5,100.5 511.5,108.5 511.5,116.5C 505.196,142.104 492.863,164.437 474.5,183.5C 509.222,215.387 518.722,253.72 503,298.5C 497.687,310.301 490.521,320.801 481.5,330C 478.067,331.912 474.733,331.745 471.5,329.5C 469.903,326.681 469.403,323.681 470,320.5C 494.735,293.722 501.068,263.056 489,228.5C 486.245,221.98 482.745,215.98 478.5,210.5C 456.895,184.184 429.228,173.851 395.5,179.5C 432.123,207.783 444.623,244.45 433,289.5C 431.428,294.304 429.595,298.971 427.5,303.5C 419.699,318.302 409.033,330.635 395.5,340.5C 396.376,341.251 397.376,341.751 398.5,342C 407.5,342.667 416.5,342.667 425.5,342C 432.924,340.137 440.257,337.97 447.5,335.5C 450.731,335.782 453.398,337.115 455.5,339.5C 456.006,343.007 455.34,346.174 453.5,349C 428.041,360.521 402.208,361.355 376,351.5C 369.718,354.096 363.218,355.762 356.5,356.5C 361.579,401.506 344.912,435.673 306.5,459C 264.864,478.446 226.53,473.446 191.5,444C 176.07,428.811 166.403,410.478 162.5,389C 163.002,384.668 165.335,382.168 169.5,381.5C 172.505,381.253 175.005,382.253 177,384.5C 179.045,394.481 182.545,403.814 187.5,412.5C 205.709,442.942 232.709,457.109 268.5,455C 301.183,449.746 324.016,431.912 337,401.5C 345.801,376.924 343.801,353.258 331,330.5C 329.054,327.58 326.887,324.913 324.5,322.5C 307.908,300.788 285.741,289.788 258,289.5C 214.651,293.845 187.651,317.179 177,359.5C 175.005,361.747 172.505,362.747 169.5,362.5C 166.852,362.262 165.018,360.928 164,358.5C 163.525,350.871 164.859,343.538 168,336.5C 182.349,303.41 207.182,283.244 242.5,276C 242.704,273.379 242.704,270.545 242.5,267.5C 158.825,266.565 87.9919,236.232 30,176.5C 14.7718,159.043 4.6051,139.043 -0.5,116.5C -0.5,108.5 -0.5,100.5 -0.5,92.5C 7.82082,62.0296 27.8208,44.8629 59.5,41C 90.2883,39.1969 118.955,46.1969 145.5,62C 178.741,83.9813 215.407,94.4813 255.5,93.5C 295.593,94.4813 332.259,83.9813 365.5,62C 392.045,46.1969 420.712,39.1969 451.5,41C 483.179,44.8629 503.179,62.0296 511.5,92.5 Z"/></g>
<g><path style="opacity:1" fill="#08a46c" d="M 452.5,56.5 C 454.481,60.1827 454.981,64.1827 454,68.5C 450.067,86.3645 442.4,102.365 431,116.5C 414.657,135.585 395.823,151.752 374.5,165C 372.655,166.128 370.655,166.628 368.5,166.5C 328.603,156.19 294.603,166.024 266.5,196C 198.865,200.515 137.865,182.848 83.5,143C 74.9003,136.404 66.9003,129.07 59.5,121C 54.5439,118.393 50.7106,119.56 48,124.5C 47.3333,126.167 47.3333,127.833 48,129.5C 59.9848,143.564 73.8182,155.397 89.5,165C 128.629,190.877 171.629,205.71 218.5,209.5C 156.062,215.393 98.0625,201.726 44.5,168.5C 23.8589,148.207 14.0255,123.541 15,94.5C 21.0187,74.4815 34.1854,61.9815 54.5,57C 77.4212,54.042 99.4212,57.3753 120.5,67C 136.992,75.412 153.325,84.0787 169.5,93C 195.941,103.688 223.441,108.855 252,108.5C 298.63,110.317 341.13,98.1503 379.5,72C 402.303,59.3808 426.636,54.2142 452.5,56.5 Z"/></g>
<g><path style="opacity:1" fill="#108c5d" d="M 452.5,56.5 C 484.549,63.1313 498.882,82.6313 495.5,115C 489.914,138.69 478.081,158.523 460,174.5C 448.69,169.048 436.857,165.214 424.5,163C 438.388,154.284 450.888,143.784 462,131.5C 464.515,125.327 462.515,121.327 456,119.5C 454.373,119.625 452.873,120.125 451.5,121C 435.655,137.58 417.655,151.247 397.5,162C 390.513,164.998 383.346,167.498 376,169.5C 373.28,168.767 370.78,167.767 368.5,166.5C 370.655,166.628 372.655,166.128 374.5,165C 395.823,151.752 414.657,135.585 431,116.5C 442.4,102.365 450.067,86.3645 454,68.5C 454.981,64.1827 454.481,60.1827 452.5,56.5 Z"/></g>
<g><path style="opacity:1" fill="#000302" d="M 82.5,88.5 C 84.8568,88.3367 87.1902,88.5034 89.5,89C 110.405,102.531 132.738,113.198 156.5,121C 161.951,125.754 161.617,130.087 155.5,134C 153.167,134.667 150.833,134.667 148.5,134C 123.911,125.789 101.077,114.289 80,99.5C 78.8118,95.2586 79.6451,91.5919 82.5,88.5 Z"/></g>
<g><path style="opacity:1" fill="#000302" d="M 413.5,88.5 C 419.766,87.1171 423.433,89.4504 424.5,95.5C 424.444,98.1113 423.444,100.278 421.5,102C 368.355,135.664 310.188,151.164 247,148.5C 224.917,148.721 203.084,146.554 181.5,142C 175.422,135.386 176.589,130.552 185,127.5C 232.562,135.862 280.062,135.362 327.5,126C 358.57,118.623 387.237,106.123 413.5,88.5 Z"/></g>
<g><path style="opacity:1" fill="#108c5d" d="M 44.5,168.5 C 98.0625,201.726 156.062,215.393 218.5,209.5C 230.832,210.038 243.165,210.704 255.5,211.5C 247.842,224.136 243.842,237.802 243.5,252.5C 194.979,252.537 149.646,240.704 107.5,217C 90.8046,206.988 74.8046,195.988 59.5,184C 54.2969,178.965 49.2969,173.798 44.5,168.5 Z"/></g>
<g><path style="opacity:1" fill="#e3f3c2" d="M 405.5,210.5 C 408.427,254.838 390.093,286.671 350.5,306C 345.571,307.81 340.571,309.31 335.5,310.5C 320.432,293.46 301.766,282.294 279.5,277C 272.547,275.837 265.547,275.337 258.5,275.5C 253.726,233.541 270.059,203.041 307.5,184C 344.807,170.869 376.974,178.702 404,207.5C 404.513,208.527 405.013,209.527 405.5,210.5 Z"/></g>
<g><path style="opacity:1" fill="#b6e668" d="M 478.5,210.5 C 480.704,242.039 470.371,268.872 447.5,291C 441.282,295.939 434.615,300.106 427.5,303.5C 429.595,298.971 431.428,294.304 433,289.5C 444.623,244.45 432.123,207.783 395.5,179.5C 429.228,173.851 456.895,184.184 478.5,210.5 Z"/></g>
<g><path style="opacity:1" fill="#050504" d="M 349.5,203.5 C 356.515,203.669 360.682,207.336 362,214.5C 363.297,225.443 360.131,234.777 352.5,242.5C 343.91,233.814 341.077,223.48 344,211.5C 345.273,208.403 347.107,205.736 349.5,203.5 Z"/></g>
<g><path style="opacity:1" fill="#d8f1b0" d="M 405.5,210.5 C 423.765,234.897 427.599,261.564 417,290.5C 404.503,319.647 382.67,336.647 351.5,341.5C 349.847,335.188 347.347,329.188 344,323.5C 340.918,319.266 338.084,314.933 335.5,310.5C 340.571,309.31 345.571,307.81 350.5,306C 390.093,286.671 408.427,254.838 405.5,210.5 Z"/></g>
<g><path style="opacity:1" fill="#9fe22c" d="M 478.5,210.5 C 482.745,215.98 486.245,221.98 489,228.5C 501.068,263.056 494.735,293.722 470,320.5C 469.403,323.681 469.903,326.681 471.5,329.5C 466.475,333.345 461.142,336.678 455.5,339.5C 453.398,337.115 450.731,335.782 447.5,335.5C 440.257,337.97 432.924,340.137 425.5,342C 416.5,342.667 407.5,342.667 398.5,342C 397.376,341.751 396.376,341.251 395.5,340.5C 409.033,330.635 419.699,318.302 427.5,303.5C 434.615,300.106 441.282,295.939 447.5,291C 470.371,268.872 480.704,242.039 478.5,210.5 Z"/></g>
<g><path style="opacity:1" fill="#040502" d="M 455.5,226.5 C 461.772,226.262 465.605,229.262 467,235.5C 469.352,247.607 466.185,257.94 457.5,266.5C 449.923,257.927 447.09,247.927 449,236.5C 450.431,232.626 452.597,229.293 455.5,226.5 Z"/></g>
<g><path style="opacity:1" fill="#070706" d="M 304.5,236.5 C 315.771,235.478 325.438,238.812 333.5,246.5C 322.467,257.176 310.134,259.009 296.5,252C 292.5,248.333 292.5,244.667 296.5,241C 299.099,239.205 301.766,237.705 304.5,236.5 Z"/></g>
<g><path style="opacity:1" fill="#060705" d="M 341.5,261.5 C 353.484,271.874 355.651,284.207 348,298.5C 344.333,302.5 340.667,302.5 337,298.5C 329.957,285.144 331.457,272.81 341.5,261.5 Z"/></g>
<g><path style="opacity:1" fill="#b7e869" d="M 324.5,322.5 C 327.963,357.221 316.296,385.554 289.5,407.5C 283.313,395.397 273.313,389.397 259.5,389.5C 260.405,400.615 265.072,409.615 273.5,416.5C 244.112,430.016 215.612,428.35 188,411.5C 187.601,411.728 187.435,412.062 187.5,412.5C 182.545,403.814 179.045,394.481 177,384.5C 175.005,382.253 172.505,381.253 169.5,381.5C 168.312,375.178 168.312,368.844 169.5,362.5C 172.505,362.747 175.005,361.747 177,359.5C 187.651,317.179 214.651,293.845 258,289.5C 285.741,289.788 307.908,300.788 324.5,322.5 Z"/></g>
<g><path style="opacity:1" fill="#040502" d="M 250.5,315.5 C 257.515,315.669 261.682,319.336 263,326.5C 264.297,337.443 261.131,346.777 253.5,354.5C 244.883,345.809 242.05,335.475 245,323.5C 246.273,320.403 248.107,317.736 250.5,315.5 Z"/></g>
<g><path style="opacity:1" fill="#9fe12b" d="M 324.5,322.5 C 326.887,324.913 329.054,327.58 331,330.5C 343.801,353.258 345.801,376.924 337,401.5C 324.016,431.912 301.183,449.746 268.5,455C 232.709,457.109 205.709,442.942 187.5,412.5C 187.435,412.062 187.601,411.728 188,411.5C 215.612,428.35 244.112,430.016 273.5,416.5C 275.593,417.045 277.593,417.878 279.5,419C 288.173,420.15 291.506,416.316 289.5,407.5C 316.296,385.554 327.963,357.221 324.5,322.5 Z"/></g>
<g><path style="opacity:1" fill="#060803" d="M 215.5,349.5 C 228.481,350.658 236.814,357.491 240.5,370C 242.015,373.329 242.348,376.662 241.5,380C 225.492,379.31 215.492,371.31 211.5,356C 212.205,353.458 213.539,351.292 215.5,349.5 Z"/></g>
<g><path style="opacity:1" fill="#050703" d="M 278.5,359.5 C 289.559,358.853 299.226,362.186 307.5,369.5C 298.46,378.345 287.793,381.178 275.5,378C 266.687,374.727 265.354,369.727 271.5,363C 273.925,361.787 276.259,360.621 278.5,359.5 Z"/></g>
<g><path style="opacity:1" fill="#030401" d="M 289.5,407.5 C 291.506,416.316 288.173,420.15 279.5,419C 277.593,417.878 275.593,417.045 273.5,416.5C 265.072,409.615 260.405,400.615 259.5,389.5C 273.313,389.397 283.313,395.397 289.5,407.5 Z"/></g>
</svg>
