<?xml version="1.0" encoding="UTF-8"?>
<!DOCTYPE svg PUBLIC "-//W3C//DTD SVG 1.1//EN" "http://www.w3.org/Graphics/SVG/1.1/DTD/svg11.dtd">
<svg xmlns="http://www.w3.org/2000/svg" version="1.1" width="512px" height="512px" style="shape-rendering:geometricPrecision; text-rendering:geometricPrecision; image-rendering:optimizeQuality; fill-rule:evenodd; clip-rule:evenodd" xmlns:xlink="http://www.w3.org/1999/xlink">
<g><path style="opacity:0.991" fill="#000000" d="M 136.5,7.5 C 215.834,7.33334 295.167,7.5 374.5,8C 382.667,10.8333 388.167,16.3333 391,24.5C 391.667,39.8333 391.667,55.1667 391,70.5C 388.256,78.245 383.089,83.745 375.5,87C 376.063,103.362 382.396,117.029 394.5,128C 403.335,133.585 412.335,138.919 421.5,144C 435.533,155.229 444.033,169.729 447,187.5C 447.667,277.833 447.667,368.167 447,458.5C 441.5,482.667 426.667,497.5 402.5,503C 304.5,503.667 206.5,503.667 108.5,503C 84.3333,497.5 69.5,482.667 64,458.5C 63.3333,368.167 63.3333,277.833 64,187.5C 66.9673,169.729 75.4673,155.229 89.5,144C 98.665,138.919 107.665,133.585 116.5,128C 128.602,117.034 134.936,103.367 135.5,87C 127.911,83.745 122.744,78.245 120,70.5C 119.333,55.1667 119.333,39.8333 120,24.5C 123.019,16.3156 128.519,10.649 136.5,7.5 Z"/></g>
<g><path style="opacity:1" fill="#74808f" d="M 375.5,41.5 C 370.341,39.8173 365.008,39.1506 359.5,39.5C 354.167,39.5 348.833,39.5 343.5,39.5C 338.167,39.5 332.833,39.5 327.5,39.5C 322.167,39.5 316.833,39.5 311.5,39.5C 306.167,39.5 300.833,39.5 295.5,39.5C 290.167,39.5 284.833,39.5 279.5,39.5C 274.167,39.5 268.833,39.5 263.5,39.5C 258.167,39.5 252.833,39.5 247.5,39.5C 242.167,39.5 236.833,39.5 231.5,39.5C 226.167,39.5 220.833,39.5 215.5,39.5C 210.167,39.5 204.833,39.5 199.5,39.5C 194.167,39.5 188.833,39.5 183.5,39.5C 178.167,39.5 172.833,39.5 167.5,39.5C 162.167,39.5 156.833,39.5 151.5,39.5C 145.942,39.0008 140.608,39.6674 135.5,41.5C 135.334,37.1539 135.501,32.8206 136,28.5C 136.833,26.3333 138.333,24.8333 140.5,24C 217.167,23.3333 293.833,23.3333 370.5,24C 372.667,24.8333 374.167,26.3333 375,28.5C 375.499,32.8206 375.666,37.1539 375.5,41.5 Z"/></g>
<g><path style="opacity:1" fill="#87919f" d="M 151.5,39.5 C 151.5,50.1667 151.5,60.8333 151.5,71.5C 147.818,71.6653 144.152,71.4986 140.5,71C 139.069,70.5348 137.903,69.7014 137,68.5C 135.557,59.6079 135.057,50.6079 135.5,41.5C 140.608,39.6674 145.942,39.0008 151.5,39.5 Z"/></g>
<g><path style="opacity:1" fill="#87929f" d="M 167.5,39.5 C 172.833,39.5 178.167,39.5 183.5,39.5C 183.5,50.1667 183.5,60.8333 183.5,71.5C 178.167,71.5 172.833,71.5 167.5,71.5C 167.5,60.8333 167.5,50.1667 167.5,39.5 Z"/></g>
<g><path style="opacity:1" fill="#87929f" d="M 199.5,39.5 C 204.833,39.5 210.167,39.5 215.5,39.5C 215.5,50.1667 215.5,60.8333 215.5,71.5C 210.167,71.5 204.833,71.5 199.5,71.5C 199.5,60.8333 199.5,50.1667 199.5,39.5 Z"/></g>
<g><path style="opacity:1" fill="#87929f" d="M 231.5,39.5 C 236.833,39.5 242.167,39.5 247.5,39.5C 247.5,50.1667 247.5,60.8333 247.5,71.5C 242.167,71.5 236.833,71.5 231.5,71.5C 231.5,60.8333 231.5,50.1667 231.5,39.5 Z"/></g>
<g><path style="opacity:1" fill="#87929f" d="M 263.5,39.5 C 268.833,39.5 274.167,39.5 279.5,39.5C 279.5,50.1667 279.5,60.8333 279.5,71.5C 274.167,71.5 268.833,71.5 263.5,71.5C 263.5,60.8333 263.5,50.1667 263.5,39.5 Z"/></g>
<g><path style="opacity:1" fill="#87929f" d="M 295.5,39.5 C 300.833,39.5 306.167,39.5 311.5,39.5C 311.5,50.1667 311.5,60.8333 311.5,71.5C 306.167,71.5 300.833,71.5 295.5,71.5C 295.5,60.8333 295.5,50.1667 295.5,39.5 Z"/></g>
<g><path style="opacity:1" fill="#87929f" d="M 327.5,39.5 C 332.833,39.5 338.167,39.5 343.5,39.5C 343.5,50.1667 343.5,60.8333 343.5,71.5C 338.167,71.5 332.833,71.5 327.5,71.5C 327.5,60.8333 327.5,50.1667 327.5,39.5 Z"/></g>
<g><path style="opacity:1" fill="#87919f" d="M 359.5,39.5 C 365.008,39.1506 370.341,39.8173 375.5,41.5C 375.914,50.5822 375.414,59.5822 374,68.5C 372.829,69.8932 371.329,70.7265 369.5,71C 366.183,71.4983 362.85,71.665 359.5,71.5C 359.5,60.8333 359.5,50.1667 359.5,39.5 Z"/></g>
<g><path style="opacity:1" fill="#e9f5fc" d="M 273.5,87.5 C 273.165,92.1772 272.665,96.8439 272,101.5C 271.764,103.119 270.931,104.119 269.5,104.5C 248.02,100.628 227.686,103.795 208.5,114C 187.399,122.397 167.066,121.064 147.5,110C 149.856,102.7 151.189,95.1997 151.5,87.5C 192.167,87.5 232.833,87.5 273.5,87.5 Z"/></g>
<g><path style="opacity:1" fill="#c5e0fa" d="M 273.5,87.5 C 302.167,87.5 330.833,87.5 359.5,87.5C 360.174,95.2115 361.174,102.878 362.5,110.5C 354.155,112.892 345.822,115.392 337.5,118C 328.536,119.384 319.536,119.717 310.5,119C 296.75,114.112 283.083,109.278 269.5,104.5C 270.931,104.119 271.764,103.119 272,101.5C 272.665,96.8439 273.165,92.1772 273.5,87.5 Z"/></g>
<g><path style="opacity:1" fill="#f8ddb0" d="M 268.5,121.5 C 261.937,150.537 251.27,177.871 236.5,203.5C 219.616,168.224 191.616,151.057 152.5,152C 115.541,161.464 96.5409,185.297 95.5,223.5C 95.4408,230.704 96.6074,237.704 99,244.5C 107.514,267.521 116.014,290.521 124.5,313.5C 119.056,317.73 113.056,321.23 106.5,324C 97.7015,328.068 88.7015,331.568 79.5,334.5C 79.3333,286.166 79.5,237.832 80,189.5C 82.7043,176.919 88.8709,166.419 98.5,158C 107.665,152.919 116.665,147.585 125.5,142C 131.055,136.781 136.222,131.281 141,125.5C 161.308,136.107 182.475,138.273 204.5,132C 215.634,127.433 226.967,123.433 238.5,120C 246.167,119.333 253.833,119.333 261.5,120C 264.036,120.186 266.369,120.686 268.5,121.5 Z"/></g>
<g><path style="opacity:1" fill="#f3ce87" d="M 268.5,121.5 C 278.131,124.146 287.464,127.646 296.5,132C 311.732,136.296 327.065,136.63 342.5,133C 351.804,129.895 361.137,127.228 370.5,125C 374.756,131.26 379.756,136.927 385.5,142C 394.335,147.585 403.335,152.919 412.5,158C 422.129,166.419 428.296,176.919 431,189.5C 431.667,278.167 431.667,366.833 431,455.5C 426.5,472 416,482.5 399.5,487C 302.123,487.991 204.79,487.657 107.5,486C 93.0919,480.59 83.9252,470.424 80,455.5C 79.5,415.168 79.3333,374.835 79.5,334.5C 88.7015,331.568 97.7015,328.068 106.5,324C 113.056,321.23 119.056,317.73 124.5,313.5C 133.058,333.74 143.391,353.073 155.5,371.5C 140.101,395.104 139.601,419.104 154,443.5C 173.383,468.849 198.55,477.016 229.5,468C 238.401,465.866 247.068,463.033 255.5,459.5C 275.26,468.754 295.927,472.254 317.5,470C 341.78,464.122 357.613,449.288 365,425.5C 370.515,405.912 367.348,387.912 355.5,371.5C 365.95,355.604 375.117,338.938 383,321.5C 393.927,293.72 404.26,265.72 414,237.5C 419.255,206.921 409.755,182.088 385.5,163C 355.201,145.685 326.534,148.018 299.5,170C 284.593,183.637 274.093,200.137 268,219.5C 264.342,227.486 260.175,235.153 255.5,242.5C 247.844,230.187 241.51,217.187 236.5,203.5C 251.27,177.871 261.937,150.537 268.5,121.5 Z"/></g>
<g><path style="opacity:1" fill="#020301" d="M 236.5,203.5 C 241.51,217.187 247.844,230.187 255.5,242.5C 260.175,235.153 264.342,227.486 268,219.5C 274.093,200.137 284.593,183.637 299.5,170C 326.534,148.018 355.201,145.685 385.5,163C 409.755,182.088 419.255,206.921 414,237.5C 404.26,265.72 393.927,293.72 383,321.5C 375.117,338.938 365.95,355.604 355.5,371.5C 367.348,387.912 370.515,405.912 365,425.5C 357.613,449.288 341.78,464.122 317.5,470C 295.927,472.254 275.26,468.754 255.5,459.5C 247.068,463.033 238.401,465.866 229.5,468C 198.55,477.016 173.383,468.849 154,443.5C 139.601,419.104 140.101,395.104 155.5,371.5C 143.391,353.073 133.058,333.74 124.5,313.5C 116.014,290.521 107.514,267.521 99,244.5C 96.6074,237.704 95.4408,230.704 95.5,223.5C 96.5409,185.297 115.541,161.464 152.5,152C 191.616,151.057 219.616,168.224 236.5,203.5 Z"/></g>
<g><path style="opacity:1" fill="#76b55a" d="M 154.5,167.5 C 159.844,167.334 165.177,167.501 170.5,168C 172.78,168.233 174.78,169.066 176.5,170.5C 174.986,180.573 175.486,190.573 178,200.5C 188.544,230.8 199.878,260.8 212,290.5C 235.802,339.969 270.635,379.803 316.5,410C 326.706,415.959 337.372,420.959 348.5,425C 347.74,426.441 347.074,427.941 346.5,429.5C 343.002,430.967 339.336,431.633 335.5,431.5C 313.448,429.76 293.114,422.927 274.5,411C 230.874,381.367 198.04,342.534 176,294.5C 165.47,267.244 155.137,239.911 145,212.5C 141.53,197.368 143.53,183.034 151,169.5C 152.302,168.915 153.469,168.249 154.5,167.5 Z"/></g>
<g><path style="opacity:1" fill="#659c4e" d="M 338.5,167.5 C 344.509,167.334 350.509,167.501 356.5,168C 357.766,168.309 358.933,168.809 360,169.5C 368.852,186.325 369.852,203.658 363,221.5C 354.47,243.422 346.137,265.422 338,287.5C 331.787,302.264 324.287,316.264 315.5,329.5C 306.99,321.002 299.657,311.669 293.5,301.5C 307.596,269.722 320.429,237.389 332,204.5C 335.438,192.665 336.272,180.665 334.5,168.5C 336.099,168.768 337.432,168.434 338.5,167.5 Z"/></g>
<g><path style="opacity:1" fill="#94c97d" d="M 191.5,176.5 C 202.434,182.933 211.267,191.6 218,202.5C 239.535,254.613 268.868,301.613 306,343.5C 318,355.5 330,367.5 342,379.5C 347.265,386.861 350.431,395.028 351.5,404C 351.167,405.5 350.833,407 350.5,408.5C 332.086,401.466 315.419,391.632 300.5,379C 265.377,349.607 238.877,313.774 221,271.5C 212,247.833 203,224.167 194,200.5C 191.985,192.627 191.152,184.627 191.5,176.5 Z"/></g>
<g><path style="opacity:1" fill="#76b459" d="M 317.5,176.5 C 318.805,178.397 319.471,180.731 319.5,183.5C 319.317,189.263 318.484,194.929 317,200.5C 308,224.167 299,247.833 290,271.5C 287.711,277.044 285.044,282.377 282,287.5C 277,279.833 272,272.167 267,264.5C 265.627,262.305 265.294,259.971 266,257.5C 276.527,237.779 286.527,217.779 296,197.5C 299.167,193.667 302.333,189.833 305.5,186C 309.399,182.589 313.399,179.422 317.5,176.5 Z"/></g>
<g><path style="opacity:1" fill="#93c97d" d="M 128.5,180.5 C 125.852,197.096 127.685,213.43 134,229.5C 143.389,254.611 153.056,279.611 163,304.5C 188.194,357.403 225.694,399.237 275.5,430C 293.327,438.882 311.327,445.048 329.5,448.5C 315.504,456.043 300.837,457.543 285.5,453C 261.11,446.64 239.443,435.307 220.5,419C 187.452,391.28 161.952,357.78 144,318.5C 133.111,291.387 122.778,264.053 113,236.5C 108.346,214.981 113.512,196.314 128.5,180.5 Z"/></g>
<g><path style="opacity:1" fill="#76b459" d="M 381.5,180.5 C 397.355,195.916 402.855,214.583 398,236.5C 388.222,264.053 377.889,291.387 367,318.5C 360.532,332.608 352.865,345.941 344,358.5C 337.821,353.654 332.321,348.154 327.5,342C 335.978,327.546 343.811,312.713 351,297.5C 359.667,274.833 368.333,252.167 377,229.5C 383.349,213.573 384.849,197.239 381.5,180.5 Z"/></g>
<g><path style="opacity:1" fill="#72af57" d="M 165.5,385.5 C 170.026,389.863 174.026,394.697 177.5,400C 172.417,403.87 166.75,406.703 160.5,408.5C 159.154,400.214 160.821,392.547 165.5,385.5 Z"/></g>
<g><path style="opacity:1" fill="#62994c" d="M 188.5,412.5 C 193.781,416.444 198.781,420.777 203.5,425.5C 191.578,430.084 179.244,431.917 166.5,431C 164.442,429.51 163.109,427.51 162.5,425C 171.624,421.604 180.29,417.437 188.5,412.5 Z"/></g>
<g><path style="opacity:1" fill="#73b057" d="M 216.5,437.5 C 223.239,440.711 229.572,444.711 235.5,449.5C 221.892,454.897 207.892,456.397 193.5,454C 189.221,452.527 185.221,450.527 181.5,448C 190.43,445.677 199.43,443.343 208.5,441C 211.476,440.295 214.142,439.129 216.5,437.5 Z"/></g>
</svg>
