<?xml version="1.0" encoding="UTF-8"?>
<!DOCTYPE svg PUBLIC "-//W3C//DTD SVG 1.1//EN" "http://www.w3.org/Graphics/SVG/1.1/DTD/svg11.dtd">
<svg xmlns="http://www.w3.org/2000/svg" version="1.1" width="512px" height="512px" style="shape-rendering:geometricPrecision; text-rendering:geometricPrecision; image-rendering:optimizeQuality; fill-rule:evenodd; clip-rule:evenodd" xmlns:xlink="http://www.w3.org/1999/xlink">
<g><path style="opacity:0.976" fill="#020000" d="M 246.5,97.5 C 246.518,101.637 244.518,104.137 240.5,105C 214.5,105.333 188.5,105.667 162.5,106C 201.551,131.612 218.384,167.778 213,214.5C 207.624,247.506 190.791,272.673 162.5,290C 176.829,290.5 191.163,290.667 205.5,290.5C 216.712,246.123 244.712,218.623 289.5,208C 312.794,204.47 335.294,207.304 357,216.5C 383.224,205.309 410.058,203.642 437.5,211.5C 446.138,214.651 454.471,218.651 462.5,223.5C 472.898,179.519 459.564,144.686 422.5,119C 409.18,111.254 394.847,106.754 379.5,105.5C 340.165,105.667 300.832,105.5 261.5,105C 258.292,103.563 256.625,101.063 256.5,97.5C 256.081,94.6755 257.081,92.5088 259.5,91C 302.5,90.3333 345.5,90.3333 388.5,91C 433.794,98.9592 463.627,124.792 478,168.5C 479.548,175.123 480.882,181.789 482,188.5C 492.137,182.902 497.137,174.236 497,162.5C 501.829,157.232 506.663,157.232 511.5,162.5C 511.5,167.167 511.5,171.833 511.5,176.5C 509.162,185.039 504.495,192.205 497.5,198C 504.349,203.894 509.016,211.061 511.5,219.5C 511.5,224.167 511.5,228.833 511.5,233.5C 507.795,237.887 503.461,238.554 498.5,235.5C 496.742,228.74 494.575,222.073 492,215.5C 489.244,212.073 485.91,209.407 482,207.5C 480.741,215.964 478.907,224.297 476.5,232.5C 495.262,251.021 506.929,273.354 511.5,299.5C 511.5,309.167 511.5,318.833 511.5,328.5C 503.22,373.623 477.22,403.457 433.5,418C 407.238,424.406 381.738,422.24 357,411.5C 326.228,424.63 295.395,424.797 264.5,412C 262.773,409.096 262.107,405.93 262.5,402.5C 263.962,401.542 265.295,400.376 266.5,399C 267.667,398.833 268.833,398.667 270,398.5C 285.891,404.843 302.391,407.343 319.5,406C 321.708,405.809 323.708,405.309 325.5,404.5C 364.212,396.626 389.045,373.626 400,335.5C 407.823,291.99 393.323,258.156 356.5,234C 347.779,228.816 338.446,225.316 328.5,223.5C 286.429,216.618 253.596,230.951 230,266.5C 212.886,299.532 213.552,332.199 232,364.5C 238.93,373.434 246.597,381.767 255,389.5C 255.718,392.407 255.218,395.074 253.5,397.5C 249.83,401.297 245.83,401.464 241.5,398C 213.568,374.084 200.234,343.584 201.5,306.5C 168.498,306.667 135.498,306.5 102.5,306C 57.7666,302.254 25.9333,280.087 7,239.5C 3.69091,230.583 1.19091,221.583 -0.5,212.5C -0.5,202.833 -0.5,193.167 -0.5,183.5C 6.86864,142.293 29.8686,113.46 68.5,97C 76.2638,94.0591 84.2638,92.0591 92.5,91C 142.5,90.3333 192.5,90.3333 242.5,91C 245.222,92.2725 246.556,94.4392 246.5,97.5 Z"/></g>
<g><path style="opacity:1" fill="#ae2f2f" d="M 246.5,97.5 C 249.833,97.5 253.167,97.5 256.5,97.5C 256.625,101.063 258.292,103.563 261.5,105C 300.832,105.5 340.165,105.667 379.5,105.5C 421.937,126.008 442.104,160.008 440,207.5C 439.878,209.437 439.045,210.77 437.5,211.5C 410.058,203.642 383.224,205.309 357,216.5C 335.294,207.304 312.794,204.47 289.5,208C 244.712,218.623 216.712,246.123 205.5,290.5C 191.163,290.667 176.829,290.5 162.5,290C 190.791,272.673 207.624,247.506 213,214.5C 218.384,167.778 201.551,131.612 162.5,106C 188.5,105.667 214.5,105.333 240.5,105C 244.518,104.137 246.518,101.637 246.5,97.5 Z"/></g>
<g><path style="opacity:1" fill="#d26060" d="M 123.5,107.5 C 134.268,112.926 143.601,120.26 151.5,129.5C 147.818,129.335 144.152,129.501 140.5,130C 135.083,135.021 135.416,139.688 141.5,144C 148.456,145.856 153.123,143.523 155.5,137C 155.242,134.991 154.575,133.157 153.5,131.5C 174.066,154.039 182.566,180.706 179,211.5C 173.134,246.339 154.634,271.839 123.5,288C 124.094,288.464 124.761,288.631 125.5,288.5C 78.024,295.511 43.524,277.511 22,234.5C 5.64944,186.889 17.8161,148.389 58.5,119C 78.8982,106.935 100.565,103.102 123.5,107.5 Z"/></g>
<g><path style="opacity:1" fill="#8f2e2e" d="M 379.5,105.5 C 394.847,106.754 409.18,111.254 422.5,119C 459.564,144.686 472.898,179.519 462.5,223.5C 454.471,218.651 446.138,214.651 437.5,211.5C 439.045,210.77 439.878,209.437 440,207.5C 442.104,160.008 421.937,126.008 379.5,105.5 Z"/></g>
<g><path style="opacity:1" fill="#c94545" d="M 123.5,107.5 C 157.351,114.179 180.851,133.512 194,165.5C 206.663,206.496 197.163,241.329 165.5,270C 153.831,279.667 140.497,285.833 125.5,288.5C 124.761,288.631 124.094,288.464 123.5,288C 154.634,271.839 173.134,246.339 179,211.5C 182.566,180.706 174.066,154.039 153.5,131.5C 152.5,131.167 151.833,130.5 151.5,129.5C 143.601,120.26 134.268,112.926 123.5,107.5 Z"/></g>
<g><path style="opacity:1" fill="#0b0404" d="M 151.5,129.5 C 151.833,130.5 152.5,131.167 153.5,131.5C 154.575,133.157 155.242,134.991 155.5,137C 153.123,143.523 148.456,145.856 141.5,144C 135.416,139.688 135.083,135.021 140.5,130C 144.152,129.501 147.818,129.335 151.5,129.5 Z"/></g>
<g><path style="opacity:1" fill="#060202" d="M 51.5,138.5 C 56.7654,137.571 61.2654,138.904 65,142.5C 66.6433,147.428 65.1433,150.928 60.5,153C 50.8528,155.625 46.6861,152.125 48,142.5C 49.3756,141.295 50.5423,139.962 51.5,138.5 Z"/></g>
<g><path style="opacity:1" fill="#0a0403" d="M 102.5,146.5 C 105.518,146.335 108.518,146.502 111.5,147C 117.292,150.508 117.958,154.841 113.5,160C 108.312,162.349 103.478,161.849 99,158.5C 96.4576,153.361 97.6243,149.361 102.5,146.5 Z"/></g>
<g><path style="opacity:1" fill="#090303" d="M 26.5,180.5 C 30.9113,180.021 35.078,180.688 39,182.5C 41.8987,192.607 38.0654,196.773 27.5,195C 22.8567,192.928 21.3567,189.428 23,184.5C 23.6897,182.65 24.8564,181.316 26.5,180.5 Z"/></g>
<g><path style="opacity:1" fill="#0b0404" d="M 158.5,180.5 C 162.182,180.335 165.848,180.501 169.5,181C 175.056,186.552 174.39,191.219 167.5,195C 160.798,196.95 156.465,194.616 154.5,188C 154.927,184.977 156.261,182.477 158.5,180.5 Z"/></g>
<g><path style="opacity:1" fill="#0b0404" d="M 106.5,195.5 C 112.07,194.416 116.57,196.083 120,200.5C 120.93,203.85 120.097,206.683 117.5,209C 112.241,211.425 107.408,210.925 103,207.5C 100.458,202.361 101.624,198.361 106.5,195.5 Z"/></g>
<g><path style="opacity:1" fill="#d16060" d="M 328.5,223.5 C 327.761,223.369 327.094,223.536 326.5,224C 337.511,229.202 346.845,236.369 354.5,245.5C 350.033,245.133 345.7,245.633 341.5,247C 338.392,251.688 339.059,255.688 343.5,259C 347.167,259.667 350.833,259.667 354.5,259C 358.782,255.722 359.448,251.889 356.5,247.5C 366.409,257.616 373.575,269.616 378,283.5C 390.428,337.108 372.928,377.441 325.5,404.5C 323.708,405.309 321.708,405.809 319.5,406C 302.391,407.343 285.891,404.843 270,398.5C 268.833,398.667 267.667,398.833 266.5,399C 265.295,400.376 263.962,401.542 262.5,402.5C 259.339,401.087 256.339,399.42 253.5,397.5C 255.218,395.074 255.718,392.407 255,389.5C 246.597,381.767 238.93,373.434 232,364.5C 213.552,332.199 212.886,299.532 230,266.5C 253.596,230.951 286.429,216.618 328.5,223.5 Z"/></g>
<g><path style="opacity:1" fill="#d16060" d="M 419.5,222.5 C 430.616,228.766 440.782,236.432 450,245.5C 450.464,246.094 450.631,246.761 450.5,247.5C 472.433,271.613 480.6,299.946 475,332.5C 467.102,365.115 448.935,389.115 420.5,404.5C 419.048,405.302 417.382,405.802 415.5,406C 401.044,407.817 387.044,406.151 373.5,401C 411.022,369.766 424.189,330.266 413,282.5C 405.587,259.818 392.421,241.318 373.5,227C 378.675,224.961 384.008,223.294 389.5,222C 399.547,221.217 409.547,221.383 419.5,222.5 Z"/></g>
<g><path style="opacity:1" fill="#c94545" d="M 328.5,223.5 C 338.446,225.316 347.779,228.816 356.5,234C 393.323,258.156 407.823,291.99 400,335.5C 389.045,373.626 364.212,396.626 325.5,404.5C 372.928,377.441 390.428,337.108 378,283.5C 373.575,269.616 366.409,257.616 356.5,247.5C 355.5,247.167 354.833,246.5 354.5,245.5C 346.845,236.369 337.511,229.202 326.5,224C 327.094,223.536 327.761,223.369 328.5,223.5 Z"/></g>
<g><path style="opacity:1" fill="#c94545" d="M 419.5,222.5 C 459.24,231.74 484.407,256.073 495,295.5C 500.902,342.87 482.735,377.37 440.5,399C 434.002,401.557 427.335,403.39 420.5,404.5C 448.935,389.115 467.102,365.115 475,332.5C 480.6,299.946 472.433,271.613 450.5,247.5C 450.631,246.761 450.464,246.094 450,245.5C 440.782,236.432 430.616,228.766 419.5,222.5 Z"/></g>
<g><path style="opacity:1" fill="#0b0404" d="M 66.5,224.5 C 73.4575,223.14 78.1242,225.64 80.5,232C 80.2971,234.406 79.2971,236.406 77.5,238C 72.2409,240.425 67.4075,239.925 63,236.5C 60.4576,231.361 61.6243,227.361 66.5,224.5 Z"/></g>
<g><path style="opacity:1" fill="#080303" d="M 138.5,240.5 C 142.182,240.335 145.848,240.501 149.5,241C 154.833,245.333 154.833,249.667 149.5,254C 145.044,254.867 140.711,254.534 136.5,253C 133.445,248.162 134.112,243.996 138.5,240.5 Z"/></g>
<g><path style="opacity:1" fill="#080303" d="M 354.5,245.5 C 354.833,246.5 355.5,247.167 356.5,247.5C 359.448,251.889 358.782,255.722 354.5,259C 350.833,259.667 347.167,259.667 343.5,259C 339.059,255.688 338.392,251.688 341.5,247C 345.7,245.633 350.033,245.133 354.5,245.5 Z"/></g>
<g><path style="opacity:1" fill="#050202" d="M 450.5,247.5 C 453.448,251.889 452.782,255.722 448.5,259C 444.833,259.667 441.167,259.667 437.5,259C 432.743,255.089 432.41,250.922 436.5,246.5C 441.405,244.917 446.072,245.251 450.5,247.5 Z"/></g>
<g><path style="opacity:1" fill="#0b0404" d="M 254.5,254.5 C 259.765,253.571 264.265,254.904 268,258.5C 269.4,265.767 266.4,269.433 259,269.5C 253.454,269.95 250.287,267.45 249.5,262C 249.831,258.52 251.498,256.02 254.5,254.5 Z"/></g>
<g><path style="opacity:1" fill="#0a0403" d="M 304.5,262.5 C 308.637,262.146 312.637,262.646 316.5,264C 320.005,267.19 320.338,270.69 317.5,274.5C 313.156,277.793 308.489,278.293 303.5,276C 299.285,271.134 299.618,266.634 304.5,262.5 Z"/></g>
<g><path style="opacity:1" fill="#070202" d="M 424.5,275.5 C 429.765,274.571 434.265,275.904 438,279.5C 438.543,289.013 434.043,292.513 424.5,290C 420.723,287.089 419.556,283.256 421,278.5C 422.145,277.364 423.312,276.364 424.5,275.5 Z"/></g>
<g><path style="opacity:1" fill="#090303" d="M 228.5,296.5 C 232.967,296.133 237.3,296.633 241.5,298C 244.6,302.733 243.934,306.733 239.5,310C 235.833,310.667 232.167,310.667 228.5,310C 223.248,305.506 223.248,301.006 228.5,296.5 Z"/></g>
<g><path style="opacity:1" fill="#060202" d="M 361.5,296.5 C 365.182,296.335 368.848,296.501 372.5,297C 377.833,301.333 377.833,305.667 372.5,310C 368.442,310.767 364.442,310.6 360.5,309.5C 356.265,304.712 356.599,300.379 361.5,296.5 Z"/></g>
<g><path style="opacity:1" fill="#050202" d="M 455.5,296.5 C 459.182,296.335 462.848,296.501 466.5,297C 471.726,301.251 471.726,305.585 466.5,310C 462.833,310.667 459.167,310.667 455.5,310C 450.209,305.423 450.209,300.923 455.5,296.5 Z"/></g>
<g><path style="opacity:1" fill="#060202" d="M 308.5,311.5 C 313.765,310.571 318.265,311.904 322,315.5C 323.378,319.942 322.212,323.442 318.5,326C 308.849,328.659 304.349,325.159 305,315.5C 306.376,314.295 307.542,312.962 308.5,311.5 Z"/></g>
<g><path style="opacity:1" fill="#040101" d="M 268.5,340.5 C 273.765,339.571 278.265,340.904 282,344.5C 283.643,349.428 282.143,352.928 277.5,355C 268.339,357.162 264.173,353.662 265,344.5C 266.376,343.295 267.542,341.962 268.5,340.5 Z"/></g>
<g><path style="opacity:1" fill="#0a0403" d="M 342.5,355.5 C 353.612,354.419 357.278,358.919 353.5,369C 348.558,371.121 343.725,370.954 339,368.5C 336.186,362.938 337.352,358.605 342.5,355.5 Z"/></g>
<g><path style="opacity:1" fill="#0a0403" d="M 436.5,355.5 C 447.612,354.419 451.278,358.919 447.5,369C 442.558,371.121 437.725,370.954 433,368.5C 430.348,363.039 431.514,358.706 436.5,355.5 Z"/></g>
</svg>
