<?xml version="1.0" encoding="UTF-8"?>
<!DOCTYPE svg PUBLIC "-//W3C//DTD SVG 1.1//EN" "http://www.w3.org/Graphics/SVG/1.1/DTD/svg11.dtd">
<svg xmlns="http://www.w3.org/2000/svg" version="1.1" width="512px" height="512px" style="shape-rendering:geometricPrecision; text-rendering:geometricPrecision; image-rendering:optimizeQuality; fill-rule:evenodd; clip-rule:evenodd" xmlns:xlink="http://www.w3.org/1999/xlink">
<g><path style="opacity:0.963" fill="#000100" d="M 340.5,-0.5 C 348.167,-0.5 355.833,-0.5 363.5,-0.5C 369.476,0.988814 375.476,2.82215 381.5,5C 399.714,13.6074 418.048,21.9407 436.5,30C 442.989,33.135 444.823,37.9684 442,44.5C 427.133,59.6986 412.633,75.1986 398.5,91C 376.346,111.599 350.679,117.599 321.5,109C 305.393,103.105 292.393,93.1049 282.5,79C 276.975,78.9356 271.475,79.4356 266,80.5C 259,79.984 252.167,78.6507 245.5,76.5C 245.167,76.8333 244.833,77.1667 244.5,77.5C 246.683,88.0496 248.016,98.7162 248.5,109.5C 286.65,115.158 313.817,135.492 330,170.5C 334.42,181.846 337.754,193.513 340,205.5C 342.669,214.504 346.669,222.837 352,230.5C 403.943,281.602 419.943,342.269 400,412.5C 390.324,438.386 374.491,459.553 352.5,476C 348.673,476.976 345.34,476.143 342.5,473.5C 341.508,470.221 341.341,466.888 342,463.5C 379.88,431.707 396.213,391.041 391,341.5C 387.748,317.74 379.748,295.74 367,275.5C 355.667,261.5 344.333,247.5 333,233.5C 329.784,227.736 327.117,221.736 325,215.5C 322.253,204.432 319.253,193.432 316,182.5C 303.65,150.972 280.816,132.638 247.5,127.5C 246.527,133.184 246.527,138.85 247.5,144.5C 251.114,140.835 255.447,139.668 260.5,141C 262.333,141.5 263.5,142.667 264,144.5C 264.667,147.167 264.667,149.833 264,152.5C 254.097,162.433 242.264,166.1 228.5,163.5C 222.146,161.573 216.646,158.24 212,153.5C 208.931,143.898 212.431,139.732 222.5,141C 224.527,142.879 226.86,144.046 229.5,144.5C 229.375,138.797 229.708,133.13 230.5,127.5C 222.187,127.578 214.187,129.244 206.5,132.5C 203.308,131.634 200.641,129.968 198.5,127.5C 197.229,123.3 198.229,119.633 201.5,116.5C 210.752,112.437 220.419,110.104 230.5,109.5C 230.179,91.0589 226.345,73.3922 219,56.5C 215.389,50.556 211.389,44.8893 207,39.5C 206.336,29.4122 210.836,25.9122 220.5,29C 226.489,34.6538 231.323,41.1538 235,48.5C 247.154,60.5059 261.654,64.5059 278.5,60.5C 286.684,27.3152 307.35,6.98184 340.5,-0.5 Z"/></g>
<g><path style="opacity:1" fill="#2eca6d" d="M 341.5,16.5 C 350.635,16.0071 359.635,16.8404 368.5,19C 386.073,25.7923 403.073,33.6256 419.5,42.5C 410.184,52.9834 400.684,63.3167 391,73.5C 367.832,98.1711 341.665,102.004 312.5,85C 306.052,79.1138 300.052,72.7805 294.5,66C 300.894,40.4449 316.561,23.9449 341.5,16.5 Z"/></g>
<g><path style="opacity:1" fill="#92cb51" d="M 198.5,127.5 C 200.641,129.968 203.308,131.634 206.5,132.5C 214.187,129.244 222.187,127.578 230.5,127.5C 229.708,133.13 229.375,138.797 229.5,144.5C 226.86,144.046 224.527,142.879 222.5,141C 212.431,139.732 208.931,143.898 212,153.5C 216.646,158.24 222.146,161.573 228.5,163.5C 222.153,177.377 218.987,192.044 219,207.5C 216.001,223.162 211.001,238.162 204,252.5C 192.08,273.339 180.413,294.339 169,315.5C 157.415,342.435 153.748,370.435 158,399.5C 160.8,438.453 177.633,469.453 208.5,492.5C 166.582,486.305 132.749,466.639 107,433.5C 84.2802,396.662 78.9469,357.328 91,315.5C 99.8653,287.315 115.199,263.315 137,243.5C 148.692,227.77 155.692,210.103 158,190.5C 163.525,171.976 173.525,156.309 188,143.5C 188.843,139.897 188.343,136.564 186.5,133.5C 190.255,131.096 194.255,129.096 198.5,127.5 Z"/></g>
<g><path style="opacity:1" fill="#a2e160" d="M 342.5,473.5 C 339.634,475.432 336.634,477.099 333.5,478.5C 331.731,477.579 330.065,476.412 328.5,475C 326.5,474.333 324.5,474.333 322.5,475C 286.361,492.451 248.361,498.284 208.5,492.5C 177.633,469.453 160.8,438.453 158,399.5C 153.748,370.435 157.415,342.435 169,315.5C 180.413,294.339 192.08,273.339 204,252.5C 211.001,238.162 216.001,223.162 219,207.5C 218.987,192.044 222.153,177.377 228.5,163.5C 242.264,166.1 254.097,162.433 264,152.5C 264.667,149.833 264.667,147.167 264,144.5C 263.5,142.667 262.333,141.5 260.5,141C 255.447,139.668 251.114,140.835 247.5,144.5C 246.527,138.85 246.527,133.184 247.5,127.5C 280.816,132.638 303.65,150.972 316,182.5C 319.253,193.432 322.253,204.432 325,215.5C 327.117,221.736 329.784,227.736 333,233.5C 344.333,247.5 355.667,261.5 367,275.5C 379.748,295.74 387.748,317.74 391,341.5C 396.213,391.041 379.88,431.707 342,463.5C 341.341,466.888 341.508,470.221 342.5,473.5 Z"/></g>
<g><path style="opacity:0.964" fill="#010100" d="M 186.5,133.5 C 188.343,136.564 188.843,139.897 188,143.5C 173.525,156.309 163.525,171.976 158,190.5C 155.692,210.103 148.692,227.77 137,243.5C 115.199,263.315 99.8653,287.315 91,315.5C 78.9469,357.328 84.2802,396.662 107,433.5C 132.749,466.639 166.582,486.305 208.5,492.5C 248.361,498.284 286.361,492.451 322.5,475C 324.5,474.333 326.5,474.333 328.5,475C 330.065,476.412 331.731,477.579 333.5,478.5C 335.021,482.404 334.521,486.071 332,489.5C 309.121,501.423 284.954,508.756 259.5,511.5C 245.5,511.5 231.5,511.5 217.5,511.5C 171.364,507.295 132.53,488.295 101,454.5C 71.1548,415.971 61.1548,372.637 71,324.5C 79.1081,287.939 96.7748,256.939 124,231.5C 129.305,224.558 133.305,216.891 136,208.5C 139.483,178.364 152.316,153.198 174.5,133C 178.682,130.862 182.682,131.029 186.5,133.5 Z"/></g>
</svg>
