<?xml version="1.0" encoding="UTF-8"?>
<!DOCTYPE svg PUBLIC "-//W3C//DTD SVG 1.1//EN" "http://www.w3.org/Graphics/SVG/1.1/DTD/svg11.dtd">
<svg xmlns="http://www.w3.org/2000/svg" version="1.1" width="512px" height="512px" style="shape-rendering:geometricPrecision; text-rendering:geometricPrecision; image-rendering:optimizeQuality; fill-rule:evenodd; clip-rule:evenodd" xmlns:xlink="http://www.w3.org/1999/xlink">
<g><path style="opacity:0.963" fill="#010101" d="M 250.5,-0.5 C 253.833,-0.5 257.167,-0.5 260.5,-0.5C 262.771,1.26589 264.937,3.26589 267,5.5C 272.334,14.6954 278.501,23.1954 285.5,31C 287.971,31.7063 290.305,31.373 292.5,30C 296.167,26.3333 299.833,22.6667 303.5,19C 309.86,15.803 315.693,16.6364 321,21.5C 321.667,22.8333 322.333,24.1667 323,25.5C 323.652,47.3421 322.319,69.0088 319,90.5C 327.685,83.7403 337.185,78.407 347.5,74.5C 355.496,75.163 359.83,79.4964 360.5,87.5C 359.656,91.8741 358.656,96.2075 357.5,100.5C 357.437,102.481 358.104,104.148 359.5,105.5C 369.104,106.996 378.771,108.163 388.5,109C 395.433,112.372 397.933,117.872 396,125.5C 392.333,132.833 388.667,140.167 385,147.5C 384.333,149.167 384.333,150.833 385,152.5C 389.836,155.341 395.002,157.507 400.5,159C 405.685,163.947 406.851,169.781 404,176.5C 402.5,178 401,179.5 399.5,181C 356.678,202.873 311.344,216.373 263.5,221.5C 263.333,259.168 263.5,296.835 264,334.5C 282.456,314.554 304.956,301.554 331.5,295.5C 329.936,283.106 330.436,270.773 333,258.5C 334.306,253.699 337.473,251.366 342.5,251.5C 345.826,253.336 347.826,256.17 348.5,260C 345.546,270.711 344.88,281.544 346.5,292.5C 362.136,292.116 371.97,284.449 376,269.5C 376.305,262.817 376.305,256.15 376,249.5C 380.415,244.274 384.749,244.274 389,249.5C 392.388,260.142 391.888,270.642 387.5,281C 397.881,279.29 408.214,277.123 418.5,274.5C 424.095,274.928 426.595,277.928 426,283.5C 425.215,285.286 424.049,286.786 422.5,288C 411.958,290.549 401.625,293.549 391.5,297C 402.886,304.607 408.22,315.107 407.5,328.5C 402.912,332.812 398.745,332.479 395,327.5C 390.234,311.206 379.401,303.373 362.5,304C 358.124,304.843 354.124,306.343 350.5,308.5C 360.833,330.167 376.833,346.167 398.5,356.5C 402.161,345.168 409.827,340.835 421.5,343.5C 419.44,334.676 422.107,327.843 429.5,323C 425.675,320.175 422.175,317.008 419,313.5C 417.078,307.617 418.911,303.451 424.5,301C 434.412,301.113 444.079,299.78 453.5,297C 448.864,291.204 448.364,285.038 452,278.5C 454.285,276.093 456.451,273.593 458.5,271C 453.603,269.593 449.103,267.427 445,264.5C 441.797,260.392 440.297,255.725 440.5,250.5C 431.526,253.151 422.859,256.651 414.5,261C 407.719,262.547 404.052,259.88 403.5,253C 404.201,248.406 405.201,243.906 406.5,239.5C 402.281,240.021 398.614,238.854 395.5,236C 393.288,232.696 391.455,229.196 390,225.5C 381.776,234.226 373.276,234.559 364.5,226.5C 362.673,228.5 361.006,230.667 359.5,233C 356.312,234.316 352.978,234.816 349.5,234.5C 346.78,231.322 345.946,227.655 347,223.5C 350.167,219 353.333,214.5 356.5,210C 365.629,205.156 372.463,207.323 377,216.5C 391.226,201.15 401.226,203.484 407,223.5C 412.333,219.5 417.667,219.5 423,223.5C 426.133,228.57 426.3,233.737 423.5,239C 431.057,236.706 438.724,234.373 446.5,232C 457.552,230.719 462.052,235.552 460,246.5C 459.086,248.664 457.919,250.664 456.5,252.5C 462.263,255.479 468.263,257.979 474.5,260C 477.393,264.025 478.226,268.525 477,273.5C 473.167,278 469.333,282.5 465.5,287C 468.418,288.709 471.252,290.542 474,292.5C 478.368,300.392 476.535,306.225 468.5,310C 460.269,312.18 451.935,313.846 443.5,315C 447.825,317.975 450.492,321.975 451.5,327C 449.949,335.203 444.949,338.87 436.5,338C 442.814,358.52 435.814,365.353 415.5,358.5C 415.857,367.84 411.523,373.173 402.5,374.5C 371.398,363.565 349.065,343.065 335.5,313C 303.886,318.226 280.053,334.726 264,362.5C 262.429,416.375 247.262,466.042 218.5,511.5C 215.5,511.5 212.5,511.5 209.5,511.5C 206.78,508.322 205.946,504.655 207,500.5C 220.152,476.532 230.819,451.532 239,425.5C 242.303,413.351 244.636,401.018 246,388.5C 246.907,373.813 241.073,362.647 228.5,355C 211.367,349.216 194.033,344.049 176.5,339.5C 173,345.833 169.5,352.167 166,358.5C 162.848,363.16 158.681,364.493 153.5,362.5C 152.928,360.745 152.094,359.078 151,357.5C 150.333,355.833 150.333,354.167 151,352.5C 154.801,347.196 157.967,341.53 160.5,335.5C 145.065,327.035 131.898,329.702 121,343.5C 118.451,347.81 116.285,352.31 114.5,357C 102.766,359.57 99.2658,355.07 104,343.5C 107.706,335.799 112.873,329.299 119.5,324C 109.517,321.336 99.5165,318.669 89.5,316C 85.7229,313.089 84.5563,309.256 86,304.5C 87.5941,302.703 89.5941,301.703 92,301.5C 102.216,303.409 112.216,306.076 122,309.5C 122.5,309.167 123,308.833 123.5,308.5C 119.037,297.994 118.537,287.328 122,276.5C 124.559,273.651 127.726,272.817 131.5,274C 133.333,274.5 134.5,275.667 135,277.5C 132.842,288.99 134.842,299.656 141,309.5C 147.199,316.141 154.866,319.808 164,320.5C 167.081,295.823 161.248,273.49 146.5,253.5C 141.794,259.146 135.794,260.979 128.5,259C 126.023,257.357 123.69,255.524 121.5,253.5C 119.564,257.188 117.231,260.688 114.5,264C 111.439,266.035 108.105,267.201 104.5,267.5C 105.654,271.637 106.654,275.804 107.5,280C 107.044,287.58 103.044,290.246 95.5,288C 87.4923,284.078 79.3256,280.578 71,277.5C 70.6736,282.146 69.3403,286.479 67,290.5C 62.631,294.012 57.7977,296.678 52.5,298.5C 56.3047,301.806 59.138,305.806 61,310.5C 61.9861,315.708 60.8194,320.374 57.5,324.5C 67.2967,327.142 77.2967,328.642 87.5,329C 92.0685,331.541 93.5685,335.375 92,340.5C 88.9749,343.938 85.8083,347.271 82.5,350.5C 84.856,353.022 87.0227,355.688 89,358.5C 89.7666,362.558 89.5999,366.558 88.5,370.5C 92.4112,370.692 96.4112,370.859 100.5,371C 107.19,373.026 111.023,377.526 112,384.5C 118.418,381.042 124.585,377.209 130.5,373C 132.167,372.333 133.833,372.333 135.5,373C 137.078,374.094 138.745,374.928 140.5,375.5C 142.094,380.552 140.761,384.719 136.5,388C 128.788,392.856 120.788,397.19 112.5,401C 100.898,402.4 95.3984,397.233 96,385.5C 75.8378,392.838 68.6711,386.172 74.5,365.5C 61.6072,365.355 57.4405,359.355 62,347.5C 63.5,346 65,344.5 66.5,343C 58.156,341.13 49.8227,339.13 41.5,337C 34.7648,333.678 32.9315,328.511 36,321.5C 38.894,318.639 42.0607,316.139 45.5,314C 42.1167,310.072 38.6167,306.239 35,302.5C 32.4179,296.713 33.2512,291.546 37.5,287C 43.2153,284.929 48.882,282.762 54.5,280.5C 50.2342,274.777 49.5676,268.777 52.5,262.5C 54.8362,260.2 57.6696,258.867 61,258.5C 70.0361,260.512 78.7027,263.512 87,267.5C 85.9275,263.294 85.5942,258.961 86,254.5C 87.9643,250.201 91.2977,247.868 96,247.5C 99.1469,248.662 102.314,249.662 105.5,250.5C 106.047,243.567 109.047,238.067 114.5,234C 117.928,233.299 121.262,233.632 124.5,235C 127.369,238.204 130.535,241.037 134,243.5C 138.64,235.388 145.14,233.221 153.5,237C 174.274,261.991 182.941,290.658 179.5,323C 196.398,328.144 213.398,333.144 230.5,338C 236.535,340.71 242.035,344.21 247,348.5C 247.5,306.168 247.667,263.835 247.5,221.5C 220.769,218.068 194.435,212.568 168.5,205C 162.769,203.773 159.769,200.273 159.5,194.5C 161.336,191.174 164.17,189.174 168,188.5C 191.779,195.889 215.946,201.555 240.5,205.5C 242.948,206.473 245.615,206.806 248.5,206.5C 248.824,199.646 248.491,192.979 247.5,186.5C 238.665,163.898 221.999,152.398 197.5,152C 190.833,147.333 190.833,142.667 197.5,138C 217.477,137.212 234.311,144.045 248,158.5C 248.333,138.833 248.667,119.167 249,99.5C 253.801,95.2508 258.134,95.5841 262,100.5C 262.333,119.833 262.667,139.167 263,158.5C 277.2,142.88 294.7,136.38 315.5,139C 319.875,144.121 319.209,148.455 313.5,152C 289.031,152.387 272.365,163.887 263.5,186.5C 262.509,192.979 262.176,199.646 262.5,206.5C 265.385,206.806 268.052,206.473 270.5,205.5C 302.365,200.617 333.365,192.45 363.5,181C 370.779,178.027 377.779,174.527 384.5,170.5C 372.394,165.954 367.228,157.287 369,144.5C 372.372,137.588 375.872,130.755 379.5,124C 371.484,123.039 363.484,122.039 355.5,121C 350.559,119.212 346.893,116.046 344.5,111.5C 342.091,105.937 341.091,100.27 341.5,94.5C 331.995,100.418 322.662,106.585 313.5,113C 305.417,115.14 301.084,112.14 300.5,104C 305.13,82.0649 307.297,59.8983 307,37.5C 299.854,45.3258 291.02,48.1591 280.5,46C 276.56,44.1135 273.06,41.6135 270,38.5C 265.647,31.1145 260.814,24.1145 255.5,17.5C 250.186,24.1145 245.353,31.1145 241,38.5C 232.457,46.8282 222.624,48.6615 211.5,44C 208.705,42.2068 206.205,40.0402 204,37.5C 203.82,59.8806 205.987,82.0473 210.5,104C 209.916,112.14 205.583,115.14 197.5,113C 188.338,106.585 179.005,100.418 169.5,94.5C 170.742,102.95 168.409,110.45 162.5,117C 158.928,119.637 154.928,121.303 150.5,122C 144.058,122.083 137.725,122.749 131.5,124C 135.128,130.755 138.628,137.588 142,144.5C 143.772,157.287 138.606,165.954 126.5,170.5C 132.198,173.344 137.531,176.677 142.5,180.5C 142.552,182.903 142.219,185.236 141.5,187.5C 139.206,191.252 135.872,192.419 131.5,191C 124.833,187.667 118.167,184.333 111.5,181C 105.411,176.01 103.911,169.843 107,162.5C 108.543,160.622 110.376,159.122 112.5,158C 116.608,156.973 120.608,155.64 124.5,154C 125.894,153.044 126.561,151.711 126.5,150C 123.083,141.665 119.25,133.498 115,125.5C 113.067,117.872 115.567,112.372 122.5,109C 132.229,108.163 141.896,106.996 151.5,105.5C 152.896,104.148 153.563,102.481 153.5,100.5C 151.692,95.2812 150.859,89.9478 151,84.5C 154.035,75.9558 159.868,73.1225 168.5,76C 176.598,80.4369 184.431,85.2703 192,90.5C 188.681,69.0088 187.348,47.3421 188,25.5C 190.114,19.6894 194.281,16.6894 200.5,16.5C 202.889,17.1805 205.222,18.0138 207.5,19C 211.167,22.6667 214.833,26.3333 218.5,30C 222.388,32.2225 225.888,31.7225 229,28.5C 234,20.8333 239,13.1667 244,5.5C 246.063,3.26589 248.229,1.26589 250.5,-0.5 Z"/></g>
<g><path style="opacity:1" fill="#95d879" d="M 344.5,111.5 C 342.027,115.771 339.527,120.104 337,124.5C 334.863,132.041 337.03,137.874 343.5,142C 347.787,143.488 352.12,144.822 356.5,146C 357.833,148.333 357.833,150.667 356.5,153C 327.251,169.027 296.251,180.194 263.5,186.5C 272.365,163.887 289.031,152.387 313.5,152C 319.209,148.455 319.875,144.121 315.5,139C 294.7,136.38 277.2,142.88 263,158.5C 262.667,139.167 262.333,119.833 262,100.5C 258.134,95.5841 253.801,95.2508 249,99.5C 248.667,119.167 248.333,138.833 248,158.5C 234.311,144.045 217.477,137.212 197.5,138C 190.833,142.667 190.833,147.333 197.5,152C 221.999,152.398 238.665,163.898 247.5,186.5C 247.5,187.833 247.5,189.167 247.5,190.5C 231.303,193.309 214.97,194.142 198.5,193C 179.635,189.58 160.968,185.413 142.5,180.5C 137.531,176.677 132.198,173.344 126.5,170.5C 138.606,165.954 143.772,157.287 142,144.5C 138.628,137.588 135.128,130.755 131.5,124C 137.725,122.749 144.058,122.083 150.5,122C 154.928,121.303 158.928,119.637 162.5,117C 168.409,110.45 170.742,102.95 169.5,94.5C 179.005,100.418 188.338,106.585 197.5,113C 205.583,115.14 209.916,112.14 210.5,104C 205.987,82.0473 203.82,59.8806 204,37.5C 206.205,40.0402 208.705,42.2068 211.5,44C 222.624,48.6615 232.457,46.8282 241,38.5C 245.353,31.1145 250.186,24.1145 255.5,17.5C 260.814,24.1145 265.647,31.1145 270,38.5C 273.06,41.6135 276.56,44.1135 280.5,46C 291.02,48.1591 299.854,45.3258 307,37.5C 307.297,59.8983 305.13,82.0649 300.5,104C 301.084,112.14 305.417,115.14 313.5,113C 322.662,106.585 331.995,100.418 341.5,94.5C 341.091,100.27 342.091,105.937 344.5,111.5 Z"/></g>
<g><path style="opacity:1" fill="#7fd060" d="M 344.5,111.5 C 346.893,116.046 350.559,119.212 355.5,121C 363.484,122.039 371.484,123.039 379.5,124C 375.872,130.755 372.372,137.588 369,144.5C 367.228,157.287 372.394,165.954 384.5,170.5C 377.779,174.527 370.779,178.027 363.5,181C 333.365,192.45 302.365,200.617 270.5,205.5C 268.167,205.5 265.833,205.5 263.5,205.5C 263.5,199.167 263.5,192.833 263.5,186.5C 296.251,180.194 327.251,169.027 356.5,153C 357.833,150.667 357.833,148.333 356.5,146C 352.12,144.822 347.787,143.488 343.5,142C 337.03,137.874 334.863,132.041 337,124.5C 339.527,120.104 342.027,115.771 344.5,111.5 Z"/></g>
<g><path style="opacity:1" fill="#7dcd5f" d="M 142.5,180.5 C 160.968,185.413 179.635,189.58 198.5,193C 214.97,194.142 231.303,193.309 247.5,190.5C 247.5,195.5 247.5,200.5 247.5,205.5C 245.167,205.5 242.833,205.5 240.5,205.5C 215.946,201.555 191.779,195.889 168,188.5C 164.17,189.174 161.336,191.174 159.5,194.5C 153.733,191.796 147.733,189.462 141.5,187.5C 142.219,185.236 142.552,182.903 142.5,180.5 Z"/></g>
<g><path style="opacity:1" fill="#3e672f" d="M 263.5,186.5 C 263.5,192.833 263.5,199.167 263.5,205.5C 265.833,205.5 268.167,205.5 270.5,205.5C 268.052,206.473 265.385,206.806 262.5,206.5C 262.176,199.646 262.509,192.979 263.5,186.5 Z"/></g>
<g><path style="opacity:1" fill="#416931" d="M 247.5,186.5 C 248.491,192.979 248.824,199.646 248.5,206.5C 245.615,206.806 242.948,206.473 240.5,205.5C 242.833,205.5 245.167,205.5 247.5,205.5C 247.5,200.5 247.5,195.5 247.5,190.5C 247.5,189.167 247.5,187.833 247.5,186.5 Z"/></g>
<g><path style="opacity:0.999" fill="#94d678" d="M 342.5,251.5 C 344.557,245.719 346.89,240.053 349.5,234.5C 352.978,234.816 356.312,234.316 359.5,233C 361.006,230.667 362.673,228.5 364.5,226.5C 373.276,234.559 381.776,234.226 390,225.5C 391.455,229.196 393.288,232.696 395.5,236C 398.614,238.854 402.281,240.021 406.5,239.5C 405.201,243.906 404.201,248.406 403.5,253C 404.052,259.88 407.719,262.547 414.5,261C 422.859,256.651 431.526,253.151 440.5,250.5C 440.297,255.725 441.797,260.392 445,264.5C 449.103,267.427 453.603,269.593 458.5,271C 456.451,273.593 454.285,276.093 452,278.5C 448.364,285.038 448.864,291.204 453.5,297C 444.079,299.78 434.412,301.113 424.5,301C 418.911,303.451 417.078,307.617 419,313.5C 422.175,317.008 425.675,320.175 429.5,323C 422.107,327.843 419.44,334.676 421.5,343.5C 409.827,340.835 402.161,345.168 398.5,356.5C 376.833,346.167 360.833,330.167 350.5,308.5C 354.124,306.343 358.124,304.843 362.5,304C 379.401,303.373 390.234,311.206 395,327.5C 398.745,332.479 402.912,332.812 407.5,328.5C 408.22,315.107 402.886,304.607 391.5,297C 401.625,293.549 411.958,290.549 422.5,288C 424.049,286.786 425.215,285.286 426,283.5C 426.595,277.928 424.095,274.928 418.5,274.5C 408.214,277.123 397.881,279.29 387.5,281C 391.888,270.642 392.388,260.142 389,249.5C 384.749,244.274 380.415,244.274 376,249.5C 376.305,256.15 376.305,262.817 376,269.5C 371.97,284.449 362.136,292.116 346.5,292.5C 344.88,281.544 345.546,270.711 348.5,260C 347.826,256.17 345.826,253.336 342.5,251.5 Z"/></g>
<g><path style="opacity:0.999" fill="#94d678" d="M 153.5,362.5 C 149.5,367.167 145.167,371.5 140.5,375.5C 138.745,374.928 137.078,374.094 135.5,373C 133.833,372.333 132.167,372.333 130.5,373C 124.585,377.209 118.418,381.042 112,384.5C 111.023,377.526 107.19,373.026 100.5,371C 96.4112,370.859 92.4112,370.692 88.5,370.5C 89.5999,366.558 89.7666,362.558 89,358.5C 87.0227,355.688 84.856,353.022 82.5,350.5C 85.8083,347.271 88.9749,343.938 92,340.5C 93.5685,335.375 92.0685,331.541 87.5,329C 77.2967,328.642 67.2967,327.142 57.5,324.5C 60.8194,320.374 61.9861,315.708 61,310.5C 59.138,305.806 56.3047,301.806 52.5,298.5C 57.7977,296.678 62.631,294.012 67,290.5C 69.3403,286.479 70.6736,282.146 71,277.5C 79.3256,280.578 87.4923,284.078 95.5,288C 103.044,290.246 107.044,287.58 107.5,280C 106.654,275.804 105.654,271.637 104.5,267.5C 108.105,267.201 111.439,266.035 114.5,264C 117.231,260.688 119.564,257.188 121.5,253.5C 123.69,255.524 126.023,257.357 128.5,259C 135.794,260.979 141.794,259.146 146.5,253.5C 161.248,273.49 167.081,295.823 164,320.5C 154.866,319.808 147.199,316.141 141,309.5C 134.842,299.656 132.842,288.99 135,277.5C 134.5,275.667 133.333,274.5 131.5,274C 127.726,272.817 124.559,273.651 122,276.5C 118.537,287.328 119.037,297.994 123.5,308.5C 123,308.833 122.5,309.167 122,309.5C 112.216,306.076 102.216,303.409 92,301.5C 89.5941,301.703 87.5941,302.703 86,304.5C 84.5563,309.256 85.7229,313.089 89.5,316C 99.5165,318.669 109.517,321.336 119.5,324C 112.873,329.299 107.706,335.799 104,343.5C 99.2658,355.07 102.766,359.57 114.5,357C 116.285,352.31 118.451,347.81 121,343.5C 131.898,329.702 145.065,327.035 160.5,335.5C 157.967,341.53 154.801,347.196 151,352.5C 150.333,354.167 150.333,355.833 151,357.5C 152.094,359.078 152.928,360.745 153.5,362.5 Z"/></g>
</svg>
