<?xml version="1.0" encoding="UTF-8"?>
<!DOCTYPE svg PUBLIC "-//W3C//DTD SVG 1.1//EN" "http://www.w3.org/Graphics/SVG/1.1/DTD/svg11.dtd">
<svg xmlns="http://www.w3.org/2000/svg" version="1.1" width="512px" height="512px" style="shape-rendering:geometricPrecision; text-rendering:geometricPrecision; image-rendering:optimizeQuality; fill-rule:evenodd; clip-rule:evenodd" xmlns:xlink="http://www.w3.org/1999/xlink">
<g><path style="opacity:0.974" fill="#000101" d="M 411.5,-0.5 C 415.5,-0.5 419.5,-0.5 423.5,-0.5C 433.482,4.59873 436.982,12.5987 434,23.5C 414.833,50.6667 395.667,77.8333 376.5,105C 380.29,103.694 384.29,102.861 388.5,102.5C 401.797,104.393 407.297,112.059 405,125.5C 401.582,131.337 397.916,137.004 394,142.5C 386.333,150.833 378.667,159.167 371,167.5C 357.783,188.728 342.283,208.228 324.5,226C 366.914,243.579 396.247,273.745 412.5,316.5C 411.552,327.281 405.718,333.281 395,334.5C 373.944,328.315 353.444,320.648 333.5,311.5C 331.052,337.468 330.886,363.468 333,389.5C 338.34,402.35 344.84,414.517 352.5,426C 378.312,445.079 405.312,462.413 433.5,478C 443.684,484.578 446.184,493.411 441,504.5C 438.559,507.454 435.725,509.787 432.5,511.5C 428.5,511.5 424.5,511.5 420.5,511.5C 381.03,499.519 343.197,483.519 307,463.5C 293.74,470.409 280.24,476.909 266.5,483C 192.155,510.343 137.321,488.843 102,418.5C 95.0319,404.295 91.0319,389.295 90,373.5C 73.8156,347.036 69.4822,318.703 77,288.5C 85.0078,257.866 98.3411,229.866 117,204.5C 122.533,193.505 125.533,181.839 126,169.5C 126.667,160.5 126.667,151.5 126,142.5C 122.47,133.577 119.137,124.577 116,115.5C 112.171,104.713 111.171,93.7134 113,82.5C 117.022,71.9851 124.688,66.9851 136,67.5C 146.027,67.9527 155.527,70.4527 164.5,75C 179.622,82.4746 193.955,91.1412 207.5,101C 219.011,109.847 230.511,118.681 242,127.5C 257.679,120.607 273.845,115.107 290.5,111C 292.996,109.92 295.33,108.586 297.5,107C 331.833,74 366.167,41 400.5,8C 404.067,4.92047 407.733,2.08713 411.5,-0.5 Z M 276.5,278.5 C 283.638,283.139 290.638,287.973 297.5,293C 284.682,328.741 278.182,365.574 278,403.5C 268.871,408.102 259.371,411.936 249.5,415C 233.514,419.53 217.347,423.03 201,425.5C 201.09,398.476 207.756,373.143 221,349.5C 226.587,339.32 232.921,329.654 240,320.5C 252.003,306.333 264.169,292.333 276.5,278.5 Z"/></g>
<g><path style="opacity:1" fill="#00808b" d="M 294.5,136.5 C 298.232,135.924 301.898,134.757 305.5,133C 313.668,127.748 322.001,122.748 330.5,118C 343.604,100.151 355.937,82.3177 367.5,64.5C 384.075,49.4272 400.242,33.7606 416,17.5C 394.513,49.2445 372.346,80.7445 349.5,112C 335.667,120.082 322,128.416 308.5,137C 303.893,136.69 299.227,136.524 294.5,136.5 Z"/></g>
<g><path style="opacity:1" fill="#00b8d0" d="M 367.5,64.5 C 355.937,82.3177 343.604,100.151 330.5,118C 322.001,122.748 313.668,127.748 305.5,133C 301.898,134.757 298.232,135.924 294.5,136.5C 287.954,137.437 282.621,140.437 278.5,145.5C 267.958,142.854 260.458,146.521 256,156.5C 255.788,159.758 255.288,162.924 254.5,166C 219.695,189.786 187.528,216.953 158,247.5C 148.952,258.213 140.286,269.213 132,280.5C 131.536,279.906 131.369,279.239 131.5,278.5C 158.135,228.017 193.802,184.85 238.5,149C 256.56,139.471 275.56,132.471 295.5,128C 300.28,126.444 304.613,124.111 308.5,121C 328.036,101.963 347.702,83.1296 367.5,64.5 Z"/></g>
<g><path style="opacity:1" fill="#7d8c92" d="M 132.5,84.5 C 136.582,84.3436 140.582,84.8436 144.5,86C 163.049,93.5637 180.383,103.23 196.5,115C 206.055,122.271 215.389,129.771 224.5,137.5C 174.959,179.205 136.126,229.205 108,287.5C 101.599,302.37 96.5989,317.703 93,333.5C 89.8375,314.445 91.5041,295.779 98,277.5C 107.819,253.05 120.153,230.05 135,208.5C 140.466,194.708 143.466,180.375 144,165.5C 144.667,157.5 144.667,149.5 144,141.5C 139.683,128.857 135.349,116.191 131,103.5C 129.641,98.2247 129.308,92.8913 130,87.5C 131.045,86.6266 131.878,85.6266 132.5,84.5 Z"/></g>
<g><path style="opacity:1" fill="#36464e" d="M 294.5,215.5 C 297.394,214.118 299.894,212.118 302,209.5C 315.034,195.755 326.368,180.755 336,164.5C 346.422,153.802 356.255,142.636 365.5,131C 365.272,130.601 364.938,130.435 364.5,130.5C 371.96,126.768 379.627,123.601 387.5,121C 378.456,133.717 368.289,145.551 357,156.5C 342.404,178.772 325.904,199.605 307.5,219C 302.942,218.534 298.609,217.368 294.5,215.5 Z"/></g>
<g><path style="opacity:1" fill="#5f7c8a" d="M 364.5,130.5 C 364.938,130.435 365.272,130.601 365.5,131C 356.255,142.636 346.422,153.802 336,164.5C 326.368,180.755 315.034,195.755 302,209.5C 299.894,212.118 297.394,214.118 294.5,215.5C 283.551,212.707 274.218,215.374 266.5,223.5C 261.703,223.121 257.036,223.621 252.5,225C 245.904,229.594 240.738,235.427 237,242.5C 235.959,247.44 236.626,252.106 239,256.5C 242.322,259.988 245.822,263.321 249.5,266.5C 235.814,281.685 222.314,297.018 209,312.5C 186.911,339.353 172.911,370.02 167,404.5C 166.5,411.158 166.334,417.825 166.5,424.5C 162.378,424.303 158.378,423.47 154.5,422C 134.506,390.53 131.339,357.364 145,322.5C 151.129,307.57 158.795,293.57 168,280.5C 192.112,249.721 219.612,222.221 250.5,198C 259.934,191.532 269.101,184.699 278,177.5C 290.972,190.465 304.305,190.798 318,178.5C 324.158,169.273 324.992,159.607 320.5,149.5C 328.5,144.5 336.5,139.5 344.5,134.5C 347.438,135.575 350.438,135.741 353.5,135C 357.188,133.487 360.855,131.987 364.5,130.5 Z"/></g>
<g><path style="opacity:1" fill="#00818d" d="M 278.5,145.5 C 275.02,150.255 272.686,155.588 271.5,161.5C 229.793,190.035 192.626,223.702 160,262.5C 139.373,288.763 126.04,318.43 120,351.5C 119.333,360.167 119.333,368.833 120,377.5C 121.84,388.045 124.173,398.378 127,408.5C 120.208,402.714 114.541,396.048 110,388.5C 104.365,349.307 111.532,312.64 131.5,278.5C 131.369,279.239 131.536,279.906 132,280.5C 140.286,269.213 148.952,258.213 158,247.5C 187.528,216.953 219.695,189.786 254.5,166C 255.288,162.924 255.788,159.758 256,156.5C 260.458,146.521 267.958,142.854 278.5,145.5 Z"/></g>
<g><path style="opacity:1" fill="#ececec" d="M 294.5,153.5 C 303.161,152.329 306.994,155.996 306,164.5C 300.667,172.5 295.333,172.5 290,164.5C 288.776,159.626 290.276,155.959 294.5,153.5 Z"/></g>
<g><path style="opacity:1" fill="#36464e" d="M 266.5,223.5 C 264.205,226.297 261.705,228.964 259,231.5C 250.98,243.948 251.98,255.615 262,266.5C 262.667,267.167 262.667,267.833 262,268.5C 241.717,289.439 223.717,312.106 208,336.5C 195.624,357.628 187.624,380.294 184,404.5C 183.5,411.826 183.334,419.159 183.5,426.5C 177.705,426.56 172.038,425.893 166.5,424.5C 166.334,417.825 166.5,411.158 167,404.5C 172.911,370.02 186.911,339.353 209,312.5C 222.314,297.018 235.814,281.685 249.5,266.5C 245.822,263.321 242.322,259.988 239,256.5C 236.626,252.106 235.959,247.44 237,242.5C 240.738,235.427 245.904,229.594 252.5,225C 257.036,223.621 261.703,223.121 266.5,223.5 Z"/></g>
<g><path style="opacity:1" fill="#7d8c92" d="M 301.5,236.5 C 333.344,252.343 357.677,276.009 374.5,307.5C 374.376,308.107 374.043,308.44 373.5,308.5C 360.06,304.115 347.06,298.615 334.5,292C 330.256,277.544 320.923,272.544 306.5,277C 295.284,270.448 284.617,263.114 274.5,255C 270.965,252.293 269.798,248.793 271,244.5C 274.131,240.367 277.631,236.534 281.5,233C 284.03,231.578 286.697,231.245 289.5,232C 293.571,233.63 297.571,235.13 301.5,236.5 Z"/></g>
<g><path style="opacity:1" fill="#525a5e" d="M 301.5,236.5 C 343.857,249.528 374.857,275.861 394.5,315.5C 394.167,315.833 393.833,316.167 393.5,316.5C 386.802,313.608 380.135,310.941 373.5,308.5C 374.043,308.44 374.376,308.107 374.5,307.5C 357.677,276.009 333.344,252.343 301.5,236.5 Z"/></g>
<g><path style="opacity:1" fill="#007f8a" d="M 398.5,485.5 C 400.842,485.225 400.842,484.392 398.5,483C 376.997,470.752 355.997,457.752 335.5,444C 328.707,438.875 322.207,433.375 316,427.5C 310.667,416.833 305.333,406.167 300,395.5C 299.002,390.396 298.169,385.396 297.5,380.5C 298.45,350.37 304.617,321.37 316,293.5C 314.467,325.45 314.134,357.45 315,389.5C 320.226,403.955 326.559,417.955 334,431.5C 346.434,444.132 360.268,454.965 375.5,464C 392.167,474 408.833,484 425.5,494C 416.25,491.938 407.25,489.105 398.5,485.5 Z"/></g>
<g><path style="opacity:1" fill="#00b9d1" d="M 297.5,380.5 C 298.169,385.396 299.002,390.396 300,395.5C 305.333,406.167 310.667,416.833 316,427.5C 322.207,433.375 328.707,438.875 335.5,444C 355.997,457.752 376.997,470.752 398.5,483C 400.842,484.392 400.842,485.225 398.5,485.5C 386.633,481.568 374.966,477.068 363.5,472C 346.588,464.071 329.922,455.738 313.5,447C 307.747,446.149 302.08,446.483 296.5,448C 269.53,465.434 240.03,475.268 208,477.5C 174.652,475.249 148.819,460.249 130.5,432.5C 130.833,432.167 131.167,431.833 131.5,431.5C 152.073,441.373 173.739,445.207 196.5,443C 228.746,440.273 259.413,431.94 288.5,418C 293.285,413.931 296.119,408.764 297,402.5C 297.5,395.174 297.666,387.841 297.5,380.5 Z"/></g>
</svg>
