<?xml version="1.0" encoding="UTF-8"?>
<!DOCTYPE svg PUBLIC "-//W3C//DTD SVG 1.1//EN" "http://www.w3.org/Graphics/SVG/1.1/DTD/svg11.dtd">
<svg xmlns="http://www.w3.org/2000/svg" version="1.1" width="512px" height="512px" style="shape-rendering:geometricPrecision; text-rendering:geometricPrecision; image-rendering:optimizeQuality; fill-rule:evenodd; clip-rule:evenodd" xmlns:xlink="http://www.w3.org/1999/xlink">
<g><path style="opacity:0.984" fill="#020101" d="M 284.5,-0.5 C 290.167,-0.5 295.833,-0.5 301.5,-0.5C 314.492,3.65946 322.992,12.3261 327,25.5C 327.88,32.159 328.714,38.8256 329.5,45.5C 350.384,41.6904 364.551,49.6904 372,69.5C 374.029,77.2502 373.696,84.9169 371,92.5C 363.519,104.187 360.019,117.02 360.5,131C 362.603,140.476 364.603,149.976 366.5,159.5C 365.321,168.865 362.154,177.531 357,185.5C 355.843,189.782 355.01,194.116 354.5,198.5C 361.909,197.621 368.909,198.788 375.5,202C 377.727,204.564 379.561,207.397 381,210.5C 381.667,225.833 381.667,241.167 381,256.5C 379.836,259.495 377.669,261.161 374.5,261.5C 371.389,260.913 368.889,259.246 367,256.5C 366.831,242.327 366.331,228.327 365.5,214.5C 332.002,213.336 298.336,213.169 264.5,214C 264,214.5 263.5,215 263,215.5C 262.333,249.833 262.333,284.167 263,318.5C 267.967,320.21 272.8,322.21 277.5,324.5C 295.585,337.944 300.418,355.277 292,376.5C 288.397,383.266 283.563,388.933 277.5,393.5C 272.998,395.557 268.331,397.224 263.5,398.5C 262.5,431.16 262.167,463.827 262.5,496.5C 267.5,496.5 272.5,496.5 277.5,496.5C 302.836,496.667 328.169,496.5 353.5,496C 358.935,494.231 362.768,490.731 365,485.5C 366.32,417.878 366.987,350.211 367,282.5C 368.476,279.333 370.976,277.667 374.5,277.5C 377.195,277.933 379.362,279.266 381,281.5C 381.667,349.5 381.667,417.5 381,485.5C 377.75,498.914 369.583,507.581 356.5,511.5C 289.167,511.5 221.833,511.5 154.5,511.5C 141.858,507.691 133.692,499.357 130,486.5C 129.333,469.833 129.333,453.167 130,436.5C 131.272,433.778 133.439,432.444 136.5,432.5C 139.617,432.642 142.117,433.976 144,436.5C 144.06,452.886 144.727,469.22 146,485.5C 150.037,493.438 156.537,497.104 165.5,496.5C 193.167,496.5 220.833,496.5 248.5,496.5C 248.5,463.833 248.5,431.167 248.5,398.5C 226.82,393.482 215.82,379.815 215.5,357.5C 217.387,337.108 228.22,324.108 248,318.5C 248.5,293.836 248.667,269.169 248.5,244.5C 218.5,244.5 188.5,244.5 158.5,244.5C 153.901,244.2 149.401,244.533 145,245.5C 144.667,300.833 144.333,356.167 144,411.5C 142.117,414.024 139.617,415.358 136.5,415.5C 133.478,415.572 131.312,414.238 130,411.5C 129.333,354.833 129.333,298.167 130,241.5C 134.19,231.649 141.69,227.316 152.5,228.5C 152.494,223.785 151.994,219.118 151,214.5C 147.127,206.75 143.793,198.75 141,190.5C 140.333,185.833 140.333,181.167 141,176.5C 146.443,161.655 146.776,146.655 142,131.5C 138.463,125.091 135.463,118.424 133,111.5C 130.699,86.1057 142.199,71.7724 167.5,68.5C 171.988,68.8641 176.322,69.8641 180.5,71.5C 187.481,57.5363 198.815,49.8697 214.5,48.5C 216.038,48.6728 217.538,49.0062 219,49.5C 227.238,33.5491 240.238,26.5491 258,28.5C 261.514,13.8248 270.348,4.15814 284.5,-0.5 Z"/></g>
<g><path style="opacity:1" fill="#fcae69" d="M 270.5,198.5 C 270.086,196.192 269.753,193.858 269.5,191.5C 269.724,189.545 270.391,187.879 271.5,186.5C 274.091,185.746 275.924,184.079 277,181.5C 276.855,170.748 279.521,160.748 285,151.5C 285.667,145.5 285.667,139.5 285,133.5C 282.717,128.603 280.717,123.603 279,118.5C 278.333,108.833 278.333,99.1667 279,89.5C 283.149,80.7118 285.982,71.5451 287.5,62C 286.589,51.3444 282.089,42.511 274,35.5C 273.327,25.3646 277.827,18.5312 287.5,15C 306.384,14.389 314.717,23.5556 312.5,42.5C 312.333,47.1667 312.167,51.8333 312,56.5C 302.186,69.5825 300.853,83.5825 308,98.5C 311.071,116.481 307.737,133.148 298,148.5C 295.538,158.483 296.538,168.15 301,177.5C 301.5,184.492 301.666,191.492 301.5,198.5C 291.167,198.5 280.833,198.5 270.5,198.5 Z"/></g>
<g><path style="opacity:1" fill="#fcbb85" d="M 271.5,186.5 C 270.391,187.879 269.724,189.545 269.5,191.5C 269.753,193.858 270.086,196.192 270.5,198.5C 260.266,197.196 253.1,201.196 249,210.5C 248.5,216.825 248.334,223.158 248.5,229.5C 242.833,229.5 237.167,229.5 231.5,229.5C 230.588,225.869 230.421,222.203 231,218.5C 238.893,202.034 241.56,184.701 239,166.5C 236.687,158.563 234.187,150.73 231.5,143C 234.457,134.242 237.29,125.408 240,116.5C 240.667,106.167 240.667,95.8333 240,85.5C 238.595,79.6177 236.595,73.951 234,68.5C 231.975,50.8581 239.809,42.6914 257.5,44C 269.774,48.3816 274.274,56.8816 271,69.5C 267.817,75.531 265.483,81.8643 264,88.5C 263.333,98.1667 263.333,107.833 264,117.5C 264.997,124.157 266.997,130.49 270,136.5C 270.667,140.5 270.667,144.5 270,148.5C 265.464,156.772 262.964,165.605 262.5,175C 260.903,182.692 263.903,186.526 271.5,186.5 Z"/></g>
<g><path style="opacity:1" fill="#fbbb85" d="M 333.5,59.5 C 352.351,59.842 359.851,69.1754 356,87.5C 346.724,103.569 343.391,120.902 346,139.5C 347.815,145.773 349.315,152.106 350.5,158.5C 350.393,161.567 349.893,164.567 349,167.5C 342.509,176.808 339.342,187.141 339.5,198.5C 331.833,198.5 324.167,198.5 316.5,198.5C 316.666,190.826 316.5,183.159 316,175.5C 312.214,168.601 310.881,161.268 312,153.5C 316.889,146.172 320.222,138.172 322,129.5C 323.302,118.191 323.635,106.857 323,95.5C 320.909,89.9857 319.409,84.3191 318.5,78.5C 319.463,68.8812 324.463,62.5479 333.5,59.5 Z"/></g>
<g><path style="opacity:1" fill="#faac69" d="M 215.5,226.5 C 210.265,228.45 204.598,229.117 198.5,228.5C 198.261,224.158 197.927,219.824 197.5,215.5C 200.195,215.067 202.362,213.734 204,211.5C 204.725,204.601 206.391,197.934 209,191.5C 209.829,184.766 209.496,178.099 208,171.5C 199.626,158.984 195.793,145.151 196.5,130C 198.587,121.075 200.253,112.075 201.5,103C 201.333,100.5 201.167,98 201,95.5C 199.148,90.6004 197.314,85.7671 195.5,81C 196.749,73.1713 201.083,67.8379 208.5,65C 211.817,64.5017 215.15,64.335 218.5,64.5C 219.347,72.2079 221.513,79.5412 225,86.5C 227.484,102.954 225.151,118.621 218,133.5C 217.161,140.567 217.494,147.567 219,154.5C 223.74,162.722 225.573,171.556 224.5,181C 224.333,185.5 224.167,190 224,194.5C 221.897,202.04 219.23,209.373 216,216.5C 215.502,219.817 215.335,223.15 215.5,226.5 Z"/></g>
<g><path style="opacity:1" fill="#fbbb85" d="M 197.5,215.5 C 197.927,219.824 198.261,224.158 198.5,228.5C 204.598,229.117 210.265,228.45 215.5,226.5C 216.404,227.209 216.737,228.209 216.5,229.5C 200.5,229.5 184.5,229.5 168.5,229.5C 168.38,215.396 164.547,202.396 157,190.5C 156.262,188.047 155.762,185.547 155.5,183C 161.627,164.37 162.127,145.536 157,126.5C 152.822,119.324 149.655,111.824 147.5,104C 149.325,89.8402 157.325,83.5069 171.5,85C 183.605,88.693 188.438,96.8597 186,109.5C 182.335,117.823 181.001,126.489 182,135.5C 182.803,143.197 183.803,150.863 185,158.5C 187.242,165.246 190.242,171.579 194,177.5C 195.141,184.816 194.141,191.816 191,198.5C 190.333,202.833 190.333,207.167 191,211.5C 192.638,213.734 194.805,215.067 197.5,215.5 Z"/></g>
<g><path style="opacity:1" fill="#cdcde0" d="M 365.5,214.5 C 336.167,214.5 306.833,214.5 277.5,214.5C 277.5,251.167 277.5,287.833 277.5,324.5C 272.8,322.21 267.967,320.21 263,318.5C 262.333,284.167 262.333,249.833 263,215.5C 263.5,215 264,214.5 264.5,214C 298.336,213.169 332.002,213.336 365.5,214.5 Z"/></g>
<g><path style="opacity:0.999" fill="#e8e8fd" d="M 365.5,214.5 C 366.331,228.327 366.831,242.327 367,256.5C 368.889,259.246 371.389,260.913 374.5,261.5C 374.5,266.833 374.5,272.167 374.5,277.5C 370.976,277.667 368.476,279.333 367,282.5C 366.987,350.211 366.32,417.878 365,485.5C 362.768,490.731 358.935,494.231 353.5,496C 328.169,496.5 302.836,496.667 277.5,496.5C 277.5,462.167 277.5,427.833 277.5,393.5C 283.563,388.933 288.397,383.266 292,376.5C 300.418,355.277 295.585,337.944 277.5,324.5C 277.5,287.833 277.5,251.167 277.5,214.5C 306.833,214.5 336.167,214.5 365.5,214.5 Z"/></g>
<g><path style="opacity:1" fill="#cfcfe3" d="M 158.5,244.5 C 158.333,323.834 158.5,403.167 159,482.5C 160.125,487.733 162.291,492.4 165.5,496.5C 156.537,497.104 150.037,493.438 146,485.5C 144.727,469.22 144.06,452.886 144,436.5C 142.117,433.976 139.617,432.642 136.5,432.5C 136.5,426.833 136.5,421.167 136.5,415.5C 139.617,415.358 142.117,414.024 144,411.5C 144.333,356.167 144.667,300.833 145,245.5C 149.401,244.533 153.901,244.2 158.5,244.5 Z"/></g>
<g><path style="opacity:1" fill="#e7e7fd" d="M 158.5,244.5 C 188.5,244.5 218.5,244.5 248.5,244.5C 248.667,269.169 248.5,293.836 248,318.5C 228.22,324.108 217.387,337.108 215.5,357.5C 215.82,379.815 226.82,393.482 248.5,398.5C 248.5,431.167 248.5,463.833 248.5,496.5C 220.833,496.5 193.167,496.5 165.5,496.5C 162.291,492.4 160.125,487.733 159,482.5C 158.5,403.167 158.333,323.834 158.5,244.5 Z"/></g>
<g><path style="opacity:1" fill="#fcdc72" d="M 246.5,382.5 C 244.945,379.06 243.112,375.727 241,372.5C 238.132,364.281 237.799,355.948 240,347.5C 242.356,343.003 244.856,338.67 247.5,334.5C 262.668,330.949 273.501,336.282 280,350.5C 282.637,373.524 272.47,384.691 249.5,384C 248.263,383.768 247.263,383.268 246.5,382.5 Z"/></g>
<g><path style="opacity:1" fill="#eec759" d="M 247.5,334.5 C 244.856,338.67 242.356,343.003 240,347.5C 237.799,355.948 238.132,364.281 241,372.5C 243.112,375.727 244.945,379.06 246.5,382.5C 235.96,378.128 230.293,370.128 229.5,358.5C 230.58,346.76 236.58,338.76 247.5,334.5 Z"/></g>
<g><path style="opacity:1" fill="#cdcde0" d="M 277.5,393.5 C 277.5,427.833 277.5,462.167 277.5,496.5C 272.5,496.5 267.5,496.5 262.5,496.5C 262.167,463.827 262.5,431.16 263.5,398.5C 268.331,397.224 272.998,395.557 277.5,393.5 Z"/></g>
</svg>
