<?xml version="1.0" encoding="UTF-8"?>
<!DOCTYPE svg PUBLIC "-//W3C//DTD SVG 1.1//EN" "http://www.w3.org/Graphics/SVG/1.1/DTD/svg11.dtd">
<svg xmlns="http://www.w3.org/2000/svg" version="1.1" width="512px" height="512px" style="shape-rendering:geometricPrecision; text-rendering:geometricPrecision; image-rendering:optimizeQuality; fill-rule:evenodd; clip-rule:evenodd" xmlns:xlink="http://www.w3.org/1999/xlink">
<g><path style="opacity:0.975" fill="#030000" d="M 320.5,-0.5 C 331.833,-0.5 343.167,-0.5 354.5,-0.5C 358.905,1.41184 361.739,4.74518 363,9.5C 363.667,21.1667 363.667,32.8333 363,44.5C 361.895,49.2062 359.062,52.3729 354.5,54C 340.906,53.8253 327.573,55.492 314.5,59C 303.759,63.4058 295.092,70.4058 288.5,80C 294.402,81.9505 300.068,84.4505 305.5,87.5C 350.073,73.8582 386.073,85.6915 413.5,123C 428.033,126.841 440.199,134.341 450,145.5C 450.927,148.863 450.427,151.863 448.5,154.5C 445.681,156.097 442.681,156.597 439.5,156C 430.159,146.328 418.826,140.328 405.5,138C 386.833,137.333 368.167,137.333 349.5,138C 343.715,139.477 338.215,141.644 333,144.5C 332.333,145.5 332.333,146.5 333,147.5C 342.602,159.907 346.269,173.907 344,189.5C 339.586,219.734 335.919,250.068 333,280.5C 331.516,284.488 328.683,286.154 324.5,285.5C 319.675,283.526 317.675,279.859 318.5,274.5C 321.288,247.065 324.788,219.732 329,192.5C 332.199,169.064 323.366,151.897 302.5,141C 298.877,139.844 295.211,138.844 291.5,138C 278.171,137.5 264.837,137.333 251.5,137.5C 240.162,137.333 228.828,137.5 217.5,138C 190.769,146.408 178.936,164.574 182,192.5C 188.261,230.089 192.095,267.922 193.5,306C 193.03,324.539 191.863,343.039 190,361.5C 187.148,378.798 184.481,396.131 182,413.5C 179.377,448.428 193.544,473.928 224.5,490C 239.802,496.709 255.469,498.209 271.5,494.5C 302.69,486.141 321.856,466.141 329,434.5C 329.667,427.5 329.667,420.5 329,413.5C 323.523,383.209 320.023,352.709 318.5,322C 318.667,318.167 318.833,314.333 319,310.5C 320.129,308.859 321.629,307.859 323.5,307.5C 327.49,306.616 330.323,307.949 332,311.5C 332.669,324.527 333.669,337.527 335,350.5C 338.729,374.604 341.896,398.771 344.5,423C 344.082,444.089 337.416,462.922 324.5,479.5C 333.083,484.85 342.416,486.683 352.5,485C 380.873,480.967 400.04,465.467 410,438.5C 412.294,432.249 414.294,425.916 416,419.5C 427.019,348.72 438.686,278.053 451,207.5C 452.656,198.685 452.823,189.852 451.5,181C 451.886,177.122 453.886,174.622 457.5,173.5C 462.944,172.801 466.111,175.134 467,180.5C 467.336,184.689 467.836,188.856 468.5,193C 456.497,267.85 444.331,342.683 432,417.5C 428.147,444.045 416.314,466.212 396.5,484C 375.265,498.914 351.931,503.58 326.5,498C 321.888,496.361 317.554,494.194 313.5,491.5C 300.001,501.753 285.001,508.42 268.5,511.5C 259.833,511.5 251.167,511.5 242.5,511.5C 225.999,508.42 210.999,501.753 197.5,491.5C 187.83,497.918 177.163,500.918 165.5,500.5C 122.532,498.049 95.0318,476.049 83,434.5C 68.5823,354.16 55.0823,273.66 42.5,193C 44.8352,157.008 63.1685,133.674 97.5,123C 105.3,109.856 116.133,100.356 130,94.5C 132.802,94.3199 134.969,95.3199 136.5,97.5C 137.984,100.584 137.818,103.584 136,106.5C 130.015,110.656 124.515,115.323 119.5,120.5C 118.957,120.56 118.624,120.893 118.5,121.5C 130.148,122.499 141.814,122.832 153.5,122.5C 158.199,123.341 162.866,123.341 167.5,122.5C 173.573,113.922 180.573,106.089 188.5,99C 179.575,97.7521 170.575,97.0854 161.5,97C 159.251,95.6484 157.584,93.8151 156.5,91.5C 155.822,87.7273 157.156,84.894 160.5,83C 175.869,80.629 190.869,82.129 205.5,87.5C 212.14,83.7865 219.14,80.9532 226.5,79C 242.686,34.4303 274.019,7.93033 320.5,-0.5 Z"/></g>
<g><path style="opacity:1" fill="#00be82" d="M 347.5,39.5 C 347.5,35.8333 347.5,32.1667 347.5,28.5C 314.727,27.8032 287.56,39.8032 266,64.5C 251.732,80.7819 243.565,99.7819 241.5,121.5C 257.009,121.17 272.342,121.504 287.5,122.5C 263.831,122.333 240.164,122.5 216.5,123C 206.973,124.931 198.307,128.764 190.5,134.5C 187.961,132.8 185.295,131.3 182.5,130C 181.549,129.282 181.383,128.449 182,127.5C 196.503,109.343 215.003,97.1763 237.5,91C 242.393,79.0483 248.226,67.5483 255,56.5C 278.384,25.5646 309.55,11.5646 348.5,14.5C 348.826,23.0168 348.493,31.3501 347.5,39.5 Z"/></g>
<g><path style="opacity:1" fill="#0dcf8e" d="M 347.5,39.5 C 315.341,36.6644 290.508,48.6644 273,75.5C 271.2,88.0546 276.7,95.2212 289.5,97C 305.675,103.917 319.009,114.417 329.5,128.5C 326.709,130.735 323.709,132.735 320.5,134.5C 310.642,127.406 299.642,123.406 287.5,122.5C 272.342,121.504 257.009,121.17 241.5,121.5C 243.565,99.7819 251.732,80.7819 266,64.5C 287.56,39.8032 314.727,27.8032 347.5,28.5C 347.5,32.1667 347.5,35.8333 347.5,39.5 Z"/></g>
<g><path style="opacity:0.996" fill="#fa626d" d="M 156.5,91.5 C 157.584,93.8151 159.251,95.6484 161.5,97C 170.575,97.0854 179.575,97.7521 188.5,99C 180.573,106.089 173.573,113.922 167.5,122.5C 162.866,123.341 158.199,123.341 153.5,122.5C 142.167,121.833 130.833,121.167 119.5,120.5C 124.515,115.323 130.015,110.656 136,106.5C 137.818,103.584 137.984,100.584 136.5,97.5C 142.853,94.4939 149.519,92.4939 156.5,91.5 Z"/></g>
<g><path style="opacity:1" fill="#fa626d" d="M 391.5,120.5 C 379.5,121.167 367.5,121.833 355.5,122.5C 351.425,122.998 347.425,122.998 343.5,122.5C 337.427,113.922 330.427,106.089 322.5,99C 349.352,94.1069 372.352,101.274 391.5,120.5 Z"/></g>
<g><path style="opacity:1" fill="#b94850" d="M 119.5,120.5 C 130.833,121.167 142.167,121.833 153.5,122.5C 141.814,122.832 130.148,122.499 118.5,121.5C 118.624,120.893 118.957,120.56 119.5,120.5 Z"/></g>
<g><path style="opacity:1" fill="#bb4951" d="M 391.5,120.5 C 392.043,120.56 392.376,120.893 392.5,121.5C 380.185,122.499 367.851,122.832 355.5,122.5C 367.5,121.833 379.5,121.167 391.5,120.5 Z"/></g>
<g><path style="opacity:1" fill="#e31e2c" d="M 135.5,137.5 C 112.934,151.933 102.434,172.6 104,199.5C 116.671,275.523 129.337,351.523 142,427.5C 147.487,449.668 159.321,467.502 177.5,481C 179.134,481.494 180.801,481.66 182.5,481.5C 146.148,490.079 119.648,477.412 103,443.5C 99.9308,435.626 97.2641,427.626 95,419.5C 83.7565,347.039 71.7565,274.706 59,202.5C 56.5478,168.969 71.3811,147.469 103.5,138C 114.161,137.5 124.828,137.333 135.5,137.5 Z"/></g>
<g><path style="opacity:1" fill="#f92a39" d="M 135.5,137.5 C 150.129,135.906 164.129,138.073 177.5,144C 178.022,144.561 178.355,145.228 178.5,146C 170.716,156.351 166.716,168.018 166.5,181C 169.298,206.552 172.465,232.052 176,257.5C 178.851,285.803 179.185,314.137 177,342.5C 173.237,369.309 169.737,396.143 166.5,423C 166.918,444.089 173.584,462.922 186.5,479.5C 185.423,480.705 184.09,481.372 182.5,481.5C 180.801,481.66 179.134,481.494 177.5,481C 159.321,467.502 147.487,449.668 142,427.5C 129.337,351.523 116.671,275.523 104,199.5C 102.434,172.6 112.934,151.933 135.5,137.5 Z"/></g>
<g><path style="opacity:1" fill="#e31e2c" d="M 251.5,137.5 C 236.047,147.819 227.381,162.319 225.5,181C 229.164,206.815 232.664,232.648 236,258.5C 239.365,291.53 239.031,324.53 235,357.5C 232.427,375.843 229.76,394.177 227,412.5C 224.001,448.337 237.835,475.504 268.5,494C 269.448,494.483 270.448,494.649 271.5,494.5C 255.469,498.209 239.802,496.709 224.5,490C 193.544,473.928 179.377,448.428 182,413.5C 184.481,396.131 187.148,378.798 190,361.5C 191.863,343.039 193.03,324.539 193.5,306C 192.095,267.922 188.261,230.089 182,192.5C 178.936,164.574 190.769,146.408 217.5,138C 228.828,137.5 240.162,137.333 251.5,137.5 Z"/></g>
<g><path style="opacity:1" fill="#fa2a39" d="M 251.5,137.5 C 264.837,137.333 278.171,137.5 291.5,138C 295.211,138.844 298.877,139.844 302.5,141C 323.366,151.897 332.199,169.064 329,192.5C 324.788,219.732 321.288,247.065 318.5,274.5C 317.675,279.859 319.675,283.526 324.5,285.5C 326.142,293.029 325.808,300.362 323.5,307.5C 321.629,307.859 320.129,308.859 319,310.5C 318.833,314.333 318.667,318.167 318.5,322C 320.023,352.709 323.523,383.209 329,413.5C 329.667,420.5 329.667,427.5 329,434.5C 321.856,466.141 302.69,486.141 271.5,494.5C 270.448,494.649 269.448,494.483 268.5,494C 237.835,475.504 224.001,448.337 227,412.5C 229.76,394.177 232.427,375.843 235,357.5C 239.031,324.53 239.365,291.53 236,258.5C 232.664,232.648 229.164,206.815 225.5,181C 227.381,162.319 236.047,147.819 251.5,137.5 Z"/></g>
<g><path style="opacity:1" fill="#e31e2c" d="M 448.5,154.5 C 452.3,160.435 455.3,166.768 457.5,173.5C 453.886,174.622 451.886,177.122 451.5,181C 452.823,189.852 452.656,198.685 451,207.5C 438.686,278.053 427.019,348.72 416,419.5C 414.294,425.916 412.294,432.249 410,438.5C 400.04,465.467 380.873,480.967 352.5,485C 342.416,486.683 333.083,484.85 324.5,479.5C 337.416,462.922 344.082,444.089 344.5,423C 341.896,398.771 338.729,374.604 335,350.5C 333.669,337.527 332.669,324.527 332,311.5C 330.323,307.949 327.49,306.616 323.5,307.5C 325.808,300.362 326.142,293.029 324.5,285.5C 328.683,286.154 331.516,284.488 333,280.5C 335.919,250.068 339.586,219.734 344,189.5C 346.269,173.907 342.602,159.907 333,147.5C 332.333,146.5 332.333,145.5 333,144.5C 338.215,141.644 343.715,139.477 349.5,138C 368.167,137.333 386.833,137.333 405.5,138C 418.826,140.328 430.159,146.328 439.5,156C 442.681,156.597 445.681,156.097 448.5,154.5 Z"/></g>
</svg>
