<?xml version="1.0" encoding="UTF-8"?>
<!DOCTYPE svg PUBLIC "-//W3C//DTD SVG 1.1//EN" "http://www.w3.org/Graphics/SVG/1.1/DTD/svg11.dtd">
<svg xmlns="http://www.w3.org/2000/svg" version="1.1" width="512px" height="512px" style="shape-rendering:geometricPrecision; text-rendering:geometricPrecision; image-rendering:optimizeQuality; fill-rule:evenodd; clip-rule:evenodd" xmlns:xlink="http://www.w3.org/1999/xlink">
<g><path style="opacity:0.975" fill="#010201" d="M 231.5,-0.5 C 247.167,-0.5 262.833,-0.5 278.5,-0.5C 288.762,4.11618 294.428,12.1162 295.5,23.5C 292.104,35.6879 288.104,47.6879 283.5,59.5C 297.395,59.7657 311.062,61.599 324.5,65C 330.608,66.7352 332.941,70.5686 331.5,76.5C 329.732,79.3843 327.066,80.7176 323.5,80.5C 308.737,76.9512 293.737,75.6178 278.5,76.5C 278.171,89.6774 278.505,102.677 279.5,115.5C 294.536,119.021 308.369,125.354 321,134.5C 331.163,126.001 342.663,120.001 355.5,116.5C 354.54,111.914 352.54,107.914 349.5,104.5C 348.191,101.222 346.358,98.2223 344,95.5C 343.403,92.3188 343.903,89.3188 345.5,86.5C 348.779,85.5078 352.112,85.3412 355.5,86C 362.584,93.7707 368.084,102.604 372,112.5C 425.516,110.339 460.85,134.673 478,185.5C 482.58,206.68 480.913,227.347 473,247.5C 457.059,281.714 441.393,316.047 426,350.5C 424.213,356.366 423.213,362.366 423,368.5C 421.044,398.17 419.044,427.837 417,457.5C 410.123,490.465 389.79,508.132 356,510.5C 337.154,509.244 321.488,501.577 309,487.5C 301.214,499.792 290.38,507.792 276.5,511.5C 262.5,511.5 248.5,511.5 234.5,511.5C 220.62,507.792 209.786,499.792 202,487.5C 181.737,509.486 157.57,515.319 129.5,505C 109.299,495.46 97.4657,479.627 94,457.5C 91.9558,427.837 89.9558,398.17 88,368.5C 87.7868,362.366 86.7868,356.366 85,350.5C 69,315.167 53,279.833 37,244.5C 22.3315,199.851 32.8315,162.351 68.5,132C 89.4283,116.134 112.928,109.634 139,112.5C 155.773,74.8454 184.939,57.1788 226.5,59.5C 221.896,47.6879 217.896,35.6879 214.5,23.5C 215.281,11.9071 220.948,3.90709 231.5,-0.5 Z"/></g>
<g><path style="opacity:1" fill="#6ebd42" d="M 235.5,14.5 C 248.171,14.3334 260.838,14.5001 273.5,15C 278.904,17.0828 280.737,20.9162 279,26.5C 274,39.8333 269,53.1667 264,66.5C 263.5,82.1631 263.333,97.8298 263.5,113.5C 257.833,113.5 252.167,113.5 246.5,113.5C 246.667,97.8298 246.5,82.1631 246,66.5C 240.232,52.1951 235.065,37.6951 230.5,23C 230.542,21.0326 231.042,19.1992 232,17.5C 233.518,16.8366 234.685,15.8366 235.5,14.5 Z"/></g>
<g><path style="opacity:1" fill="#7fc456" d="M 230.5,116.5 C 230.5,112.167 230.5,107.833 230.5,103.5C 227.784,103.678 225.117,104.178 222.5,105C 211.891,108.646 201.391,112.48 191,116.5C 188.453,116.238 185.953,115.738 183.5,115C 176.536,110.684 169.202,107.184 161.5,104.5C 170.561,89.2961 183.894,80.1294 201.5,77C 211.494,76.5002 221.494,76.3335 231.5,76.5C 231.829,90.0105 231.496,103.344 230.5,116.5 Z"/></g>
<g><path style="opacity:0.998" fill="#7fc456" d="M 331.5,76.5 C 336.909,78.8642 341.576,82.1975 345.5,86.5C 343.903,89.3188 343.403,92.3188 344,95.5C 346.358,98.2223 348.191,101.222 349.5,104.5C 341.696,107.397 334.029,110.897 326.5,115C 324.419,115.869 322.253,116.369 320,116.5C 313.252,114.712 306.752,112.212 300.5,109C 293.584,106.688 286.584,104.855 279.5,103.5C 279.5,107.5 279.5,111.5 279.5,115.5C 278.505,102.677 278.171,89.6774 278.5,76.5C 293.737,75.6178 308.737,76.9512 323.5,80.5C 327.066,80.7176 329.732,79.3843 331.5,76.5 Z"/></g>
<g><path style="opacity:1" fill="#6dbb42" d="M 230.5,116.5 C 215.595,119.37 202.095,125.37 190,134.5C 180.092,126.294 168.925,120.294 156.5,116.5C 155.417,115.635 155.251,114.635 156,113.5C 157.357,110.102 159.19,107.102 161.5,104.5C 169.202,107.184 176.536,110.684 183.5,115C 185.953,115.738 188.453,116.238 191,116.5C 201.391,112.48 211.891,108.646 222.5,105C 225.117,104.178 227.784,103.678 230.5,103.5C 230.5,107.833 230.5,112.167 230.5,116.5 Z"/></g>
<g><path style="opacity:1" fill="#6dbb42" d="M 349.5,104.5 C 352.54,107.914 354.54,111.914 355.5,116.5C 342.663,120.001 331.163,126.001 321,134.5C 308.369,125.354 294.536,119.021 279.5,115.5C 279.5,111.5 279.5,107.5 279.5,103.5C 286.584,104.855 293.584,106.688 300.5,109C 306.752,112.212 313.252,114.712 320,116.5C 322.253,116.369 324.419,115.869 326.5,115C 334.029,110.897 341.696,107.397 349.5,104.5 Z"/></g>
<g><path style="opacity:1" fill="#6ebd42" d="M 149.5,130.5 C 109.746,153.895 94.9126,188.228 105,233.5C 106.47,238.243 108.136,242.909 110,247.5C 125.607,281.048 140.941,314.714 156,348.5C 157.625,353.712 158.625,359.045 159,364.5C 160.891,396.871 163.225,429.204 166,461.5C 168.415,470.999 172.915,479.333 179.5,486.5C 160.092,498.12 141.425,496.954 123.5,483C 116.558,476.621 112.058,468.788 110,459.5C 107.49,425.846 105.156,392.18 103,358.5C 102.461,355.471 101.794,352.471 101,349.5C 85.4426,312.832 69.1092,276.498 52,240.5C 39.0942,204.959 46.2609,174.126 73.5,148C 95.9413,129.081 121.275,123.248 149.5,130.5 Z"/></g>
<g><path style="opacity:1" fill="#80c657" d="M 346.5,301.5 C 347.831,295.172 349.164,288.838 350.5,282.5C 352.099,282.768 353.432,282.434 354.5,281.5C 357.091,280.746 358.924,279.079 360,276.5C 362.882,264.537 365.549,252.537 368,240.5C 371.587,203.369 360.254,171.703 334,145.5C 333.493,144.004 333.993,142.837 335.5,142C 368.236,121.003 400.57,121.67 432.5,144C 463.698,169.955 472.532,202.121 459,240.5C 441.891,276.498 425.557,312.832 410,349.5C 409.461,352.529 408.794,355.529 408,358.5C 405.844,392.18 403.51,425.846 401,459.5C 394.22,481.602 379.22,493.269 356,494.5C 345.276,494.217 335.776,490.717 327.5,484C 323.333,479.833 319.167,475.667 315,471.5C 315.215,466.824 315.882,462.157 317,457.5C 328.335,409.493 339.669,361.493 351,313.5C 351.667,310.5 351.667,307.5 351,304.5C 349.729,303.117 348.229,302.117 346.5,301.5 Z"/></g>
<g><path style="opacity:1" fill="#93ce6e" d="M 354.5,281.5 C 353.432,282.434 352.099,282.768 350.5,282.5C 349.164,288.838 347.831,295.172 346.5,301.5C 341.615,300.856 338.448,302.856 337,307.5C 324.177,361.792 311.51,416.126 299,470.5C 295.167,483.667 286.667,492.167 273.5,496C 261.5,496.667 249.5,496.667 237.5,496C 224.333,492.167 215.833,483.667 212,470.5C 206.51,447.541 201.177,424.541 196,401.5C 194.552,396.856 191.385,394.856 186.5,395.5C 185.285,390.209 184.285,384.876 183.5,379.5C 186.661,377.859 188.328,375.193 188.5,371.5C 179.095,329.067 169.261,286.734 159,244.5C 152.783,198.772 169.283,163.939 208.5,140C 246.848,122.003 283.182,125.336 317.5,150C 344.428,173.368 356.261,202.868 353,238.5C 350.34,250.138 347.84,261.804 345.5,273.5C 345.381,279.716 348.381,282.383 354.5,281.5 Z"/></g>
<g><path style="opacity:1" fill="#80c557" d="M 149.5,130.5 C 160.23,132.532 169.563,137.198 177.5,144.5C 147.852,173.951 137.019,209.285 145,250.5C 154.854,292.584 165.021,334.584 175.5,376.5C 177.578,378.986 180.245,379.986 183.5,379.5C 184.285,384.876 185.285,390.209 186.5,395.5C 183.057,396.783 181.39,399.283 181.5,403C 186.341,425.032 191.341,447.032 196.5,469C 192.049,475.952 186.382,481.786 179.5,486.5C 172.915,479.333 168.415,470.999 166,461.5C 163.225,429.204 160.891,396.871 159,364.5C 158.625,359.045 157.625,353.712 156,348.5C 140.941,314.714 125.607,281.048 110,247.5C 108.136,242.909 106.47,238.243 105,233.5C 94.9126,188.228 109.746,153.895 149.5,130.5 Z"/></g>
</svg>
