<?xml version="1.0" encoding="UTF-8"?>
<!DOCTYPE svg PUBLIC "-//W3C//DTD SVG 1.1//EN" "http://www.w3.org/Graphics/SVG/1.1/DTD/svg11.dtd">
<svg xmlns="http://www.w3.org/2000/svg" version="1.1" width="512px" height="512px" style="shape-rendering:geometricPrecision; text-rendering:geometricPrecision; image-rendering:optimizeQuality; fill-rule:evenodd; clip-rule:evenodd" xmlns:xlink="http://www.w3.org/1999/xlink">
<g><path style="opacity:0.978" fill="#020100" d="M 325.5,32.5 C 337.121,31.9047 347.788,34.738 357.5,41C 371.904,53.9649 382.738,69.4649 390,87.5C 394.928,99.8784 398.928,112.545 402,125.5C 434.994,116.725 459.661,127.392 476,157.5C 482.156,172.302 486.489,187.636 489,203.5C 495.609,247.966 497.276,292.632 494,337.5C 491.798,368.847 485.131,399.181 474,428.5C 452.493,480.003 416.993,492.836 367.5,467C 365.093,464.715 362.593,462.549 360,460.5C 338.876,481.694 315.043,485.194 288.5,471C 271.128,460.296 257.961,445.796 249,427.5C 241.82,414.479 236.32,400.813 232.5,386.5C 191.754,396.875 153.754,390.709 118.5,368C 111.905,363.409 105.905,358.076 100.5,352C 57.6121,343.562 34.2788,317.562 30.5,274C 30.6956,256.717 35.029,240.55 43.5,225.5C 17.8194,197.449 9.3194,164.783 18,127.5C 23.6142,107.872 36.4476,99.7052 56.5,103C 72.5862,108.007 79.4195,118.84 77,135.5C 75.6104,139.947 73.4438,143.947 70.5,147.5C 70.8333,147.833 71.1667,148.167 71.5,148.5C 79.0369,144.616 87.0369,142.949 95.5,143.5C 96.4637,118.364 109.13,102.531 133.5,96C 177.657,90.3432 220.991,94.0099 263.5,107C 275.296,111.481 286.796,116.647 298,122.5C 304.475,118.843 311.308,116.177 318.5,114.5C 317.644,110.43 316.477,106.43 315,102.5C 309.586,92.669 303.919,83.0023 298,73.5C 293.771,50.581 302.938,36.9144 325.5,32.5 Z"/></g>
<g><path style="opacity:1" fill="#54b368" d="M 322.5,49.5 C 331.878,48.2806 340.545,50.1139 348.5,55C 376.389,84.9713 388.889,120.471 386,161.5C 385.124,165.7 384.291,169.867 383.5,174C 378.678,176.672 374.011,179.505 369.5,182.5C 360.169,176.835 350.169,172.835 339.5,170.5C 341.859,144.736 338.692,119.736 330,95.5C 325.159,85.8089 319.825,76.4756 314,67.5C 312.3,59.2372 315.133,53.2372 322.5,49.5 Z"/></g>
<g><path style="opacity:1" fill="#f6b94a" d="M 153.5,110.5 C 192.306,107.829 229.973,112.995 266.5,126C 272.638,128.234 278.305,131.234 283.5,135C 280.264,138.409 277.597,142.242 275.5,146.5C 266.446,147.084 257.446,147.917 248.5,149C 241.307,152.2 235.307,156.867 230.5,163C 222.461,162.662 214.461,161.662 206.5,160C 183.694,155.379 164.861,161.879 150,179.5C 143.632,172.571 141.966,164.571 145,155.5C 146.377,153.246 147.877,151.08 149.5,149C 145.687,145.264 141.687,141.764 137.5,138.5C 131.26,145.65 127.76,153.984 127,163.5C 115.146,172.594 105.646,183.594 98.5,196.5C 85.8873,190.55 76.2207,181.55 69.5,169.5C 74.772,165.03 80.772,161.863 87.5,160C 94.6062,159.926 101.606,159.26 108.5,158C 109.46,156.581 110.293,155.081 111,153.5C 110.008,123.993 124.175,109.659 153.5,110.5 Z"/></g>
<g><path style="opacity:1" fill="#54b268" d="M 43.5,118.5 C 50.806,117.41 56.6393,119.744 61,125.5C 61.6667,127.167 61.6667,128.833 61,130.5C 45.9636,156.448 49.7969,179.281 72.5,199C 81.715,206.205 91.8817,211.705 103,215.5C 105.7,215.27 108.033,214.27 110,212.5C 114.367,200.925 120.867,190.758 129.5,182C 130.167,181.333 130.833,181.333 131.5,182C 133.575,186.079 136.408,189.579 140,192.5C 136.769,201.206 134.102,210.206 132,219.5C 131.592,230.216 131.925,240.882 133,251.5C 124.791,256.206 117.291,261.873 110.5,268.5C 102.741,261.326 97.2409,252.659 94,242.5C 76.5943,232.763 61.261,220.429 48,205.5C 32.3268,181.795 27.9935,156.128 35,128.5C 36.6871,124.084 39.5205,120.751 43.5,118.5 Z"/></g>
<g><path style="opacity:1" fill="#e23d5b" d="M 404.5,167.5 C 403.5,167.5 402.5,167.5 401.5,167.5C 401.5,165.833 401.5,164.167 401.5,162.5C 401.228,155.529 401.894,148.696 403.5,142C 429.846,134 449.346,142.167 462,166.5C 467.718,181.037 471.718,196.037 474,211.5C 481.849,266.602 481.182,321.602 472,376.5C 468.186,397.941 461.186,418.274 451,437.5C 435.407,463.584 413.573,470.417 385.5,458C 374.366,453.206 367.199,445.039 364,433.5C 358.698,409.523 357.198,385.356 359.5,361C 354.264,359.661 348.93,359.161 343.5,359.5C 342.384,373.801 342.218,388.134 343,402.5C 344.959,417.282 347.292,431.949 350,446.5C 334.525,464.216 316.358,467.383 295.5,456C 281.481,446.31 270.647,433.81 263,418.5C 244.352,378.24 234.019,335.907 232,291.5C 231.122,263.48 231.456,235.48 233,207.5C 233.725,195.87 236.725,184.87 242,174.5C 244.946,169.555 249.112,166.055 254.5,164C 264.107,162.775 273.774,162.108 283.5,162C 288.409,154.421 294.075,147.421 300.5,141C 307.169,135.332 314.836,131.832 323.5,130.5C 324.8,142.835 324.8,155.168 323.5,167.5C 296.594,165.291 274.428,174.291 257,194.5C 244.621,213.319 241.287,233.653 247,255.5C 247.388,256.428 248.055,257.095 249,257.5C 253.429,255.856 257.929,254.523 262.5,253.5C 257.625,235.166 260.458,218.166 271,202.5C 280.408,191.8 292.241,185.633 306.5,184C 323.814,181.746 340.148,184.746 355.5,193C 356.357,193.689 357.023,194.522 357.5,195.5C 355.949,197.884 354.615,200.384 353.5,203C 357.377,206.194 361.544,209.027 366,211.5C 373.855,198.975 384.689,190.141 398.5,185C 411.436,181.991 423.603,183.824 435,190.5C 437.958,186.084 440.792,181.584 443.5,177C 431.508,169.919 418.508,166.752 404.5,167.5 Z"/></g>
<g><path style="opacity:1" fill="#6e1e2c" d="M 401.5,162.5 C 401.5,164.167 401.5,165.833 401.5,167.5C 402.5,167.5 403.5,167.5 404.5,167.5C 403.432,168.434 402.099,168.768 400.5,168.5C 400.205,166.265 400.539,164.265 401.5,162.5 Z"/></g>
<g><path style="opacity:1" fill="#f7b94a" d="M 181.5,175.5 C 195.295,175.027 208.961,176.027 222.5,178.5C 218.493,194.558 216.327,210.891 216,227.5C 215.28,250.511 215.447,273.511 216.5,296.5C 191.85,295.26 172.017,284.926 157,265.5C 140.622,233.6 145.455,205.434 171.5,181C 174.767,178.871 178.101,177.038 181.5,175.5 Z"/></g>
<g><path style="opacity:1" fill="#f6b84a" d="M 56.5,236.5 C 64.2102,242.2 72.2102,247.533 80.5,252.5C 85.0146,263.538 91.5146,273.204 100,281.5C 97.1868,288.514 94.8534,295.848 93,303.5C 91.5717,313.535 91.0717,323.535 91.5,333.5C 58.9906,320.47 44.4906,296.47 48,261.5C 49.1485,252.563 51.9819,244.229 56.5,236.5 Z"/></g>
<g><path style="opacity:1" fill="#000000" d="M 431.5,263.5 C 436.833,263.5 442.167,263.5 447.5,263.5C 447.5,268.833 447.5,274.167 447.5,279.5C 442.167,279.5 436.833,279.5 431.5,279.5C 431.5,274.167 431.5,268.833 431.5,263.5 Z"/></g>
<g><path style="opacity:1" fill="#f7b94a" d="M 137.5,266.5 C 153.786,291.851 177.12,307.018 207.5,312C 211.152,312.499 214.818,312.665 218.5,312.5C 220.851,331.94 223.851,351.274 227.5,370.5C 182.218,382.015 143.052,371.348 110,338.5C 102.195,307.81 111.362,283.81 137.5,266.5 Z"/></g>
<g><path style="opacity:1" fill="#000000" d="M 407.5,303.5 C 412.833,303.5 418.167,303.5 423.5,303.5C 423.5,308.833 423.5,314.167 423.5,319.5C 418.167,319.5 412.833,319.5 407.5,319.5C 407.5,314.167 407.5,308.833 407.5,303.5 Z"/></g>
</svg>
