<?xml version="1.0" encoding="UTF-8"?>
<!DOCTYPE svg PUBLIC "-//W3C//DTD SVG 1.1//EN" "http://www.w3.org/Graphics/SVG/1.1/DTD/svg11.dtd">
<svg xmlns="http://www.w3.org/2000/svg" version="1.1" width="512px" height="512px" style="shape-rendering:geometricPrecision; text-rendering:geometricPrecision; image-rendering:optimizeQuality; fill-rule:evenodd; clip-rule:evenodd" xmlns:xlink="http://www.w3.org/1999/xlink">
<g><path style="opacity:0.98" fill="#020100" d="M 365.5,191.5 C 363.052,190.527 360.385,190.194 357.5,190.5C 359.254,172.204 359.754,153.87 359,135.5C 351.72,112.236 335.887,101.736 311.5,104C 319.439,112.71 324.605,122.877 327,134.5C 327.505,169.764 324.672,204.764 318.5,239.5C 315.794,239.425 313.127,239.092 310.5,238.5C 308.236,237.781 305.903,237.448 303.5,237.5C 305.994,218.88 308.161,200.214 310,181.5C 311.374,166.188 311.708,150.854 311,135.5C 306.5,119 296,108.5 279.5,104C 263.5,103.333 247.5,103.333 231.5,104C 215,108.5 204.5,119 200,135.5C 199.405,148.178 199.572,160.845 200.5,173.5C 197.833,173.5 195.167,173.5 192.5,173.5C 189.833,173.5 187.167,173.5 184.5,173.5C 183.541,160.846 183.374,148.179 184,135.5C 186.109,123.449 191.276,112.949 199.5,104C 175.138,101.703 159.305,112.203 152,135.5C 151.297,149.849 151.464,164.183 152.5,178.5C 149.615,178.194 146.948,178.527 144.5,179.5C 141.794,179.575 139.127,179.908 136.5,180.5C 135.411,164.521 135.245,148.521 136,132.5C 141.5,108.333 156.333,93.5 180.5,88C 194.829,87.5001 209.163,87.3334 223.5,87.5C 224.605,71.7692 217.272,63.2692 201.5,62C 200.874,61.2496 200.374,60.4162 200,59.5C 199.036,45.4059 199.369,31.4059 201,17.5C 236.992,13.9952 264.659,27.6619 284,58.5C 288.784,67.3516 292.284,76.685 294.5,86.5C 307.875,87.0743 321.208,87.9077 334.5,89C 356.046,95.8714 369.546,110.371 375,132.5C 375.902,152.555 375.402,172.555 373.5,192.5C 370.763,192.599 368.096,192.265 365.5,191.5 Z"/></g>
<g><path style="opacity:1" fill="#77ab53" d="M 215.5,32.5 C 248.049,37.38 268.716,55.7134 277.5,87.5C 264.833,87.5 252.167,87.5 239.5,87.5C 241.341,68.4949 233.508,55.4949 216,48.5C 215.501,43.1771 215.334,37.8437 215.5,32.5 Z"/></g>
<g><path style="opacity:0.999" fill="#f8a91e" d="M 192.5,173.5 C 194.364,201.077 198.03,228.411 203.5,255.5C 191.5,255.5 179.5,255.5 167.5,255.5C 165.693,246.872 168.026,239.705 174.5,234C 179.82,232.441 184.986,230.608 190,228.5C 191.611,215.236 191.944,201.903 191,188.5C 190.535,187.069 189.701,185.903 188.5,185C 185.425,183.993 182.258,183.493 179,183.5C 167.419,184.582 156.252,187.248 145.5,191.5C 144.728,187.548 144.395,183.548 144.5,179.5C 146.948,178.527 149.615,178.194 152.5,178.5C 151.464,164.183 151.297,149.849 152,135.5C 159.305,112.203 175.138,101.703 199.5,104C 191.276,112.949 186.109,123.449 184,135.5C 183.374,148.179 183.541,160.846 184.5,173.5C 187.167,173.5 189.833,173.5 192.5,173.5 Z"/></g>
<g><path style="opacity:0.999" fill="#f6a20e" d="M 365.5,191.5 C 365.414,195.857 365.08,200.19 364.5,204.5C 359.572,211.272 354.406,217.939 349,224.5C 343.08,234.097 339.247,244.43 337.5,255.5C 327.5,255.5 317.5,255.5 307.5,255.5C 308.593,249.852 309.593,244.186 310.5,238.5C 313.127,239.092 315.794,239.425 318.5,239.5C 324.672,204.764 327.505,169.764 327,134.5C 324.605,122.877 319.439,112.71 311.5,104C 335.887,101.736 351.72,112.236 359,135.5C 359.754,153.87 359.254,172.204 357.5,190.5C 360.385,190.194 363.052,190.527 365.5,191.5 Z"/></g>
<g><path style="opacity:1" fill="#fdb330" d="M 310.5,238.5 C 309.593,244.186 308.593,249.852 307.5,255.5C 279.76,259.614 262.593,275.281 256,302.5C 255.501,308.157 255.334,313.824 255.5,319.5C 252.833,319.5 250.167,319.5 247.5,319.5C 248.558,306.399 245.558,294.399 238.5,283.5C 240.509,281.831 242.509,280.164 244.5,278.5C 234.183,264.842 220.517,257.175 203.5,255.5C 198.03,228.411 194.364,201.077 192.5,173.5C 195.167,173.5 197.833,173.5 200.5,173.5C 199.572,160.845 199.405,148.178 200,135.5C 204.5,119 215,108.5 231.5,104C 247.5,103.333 263.5,103.333 279.5,104C 296,108.5 306.5,119 311,135.5C 311.708,150.854 311.374,166.188 310,181.5C 308.161,200.214 305.994,218.88 303.5,237.5C 305.903,237.448 308.236,237.781 310.5,238.5 Z"/></g>
<g><path style="opacity:1" fill="#080501" d="M 234.5,120.5 C 235.496,120.414 236.329,120.748 237,121.5C 238.781,125.395 240.281,129.395 241.5,133.5C 239.52,136.809 237.186,139.809 234.5,142.5C 229.632,141.727 225.298,139.894 221.5,137C 223.834,129.784 228.168,124.284 234.5,120.5 Z"/></g>
<g><path style="opacity:1" fill="#040200" d="M 217.5,155.5 C 222.833,155.5 228.167,155.5 233.5,155.5C 233.259,174.42 235.259,193.087 239.5,211.5C 234.311,213.271 228.978,214.271 223.5,214.5C 219.608,195.033 217.608,175.366 217.5,155.5 Z"/></g>
<g><path style="opacity:0.985" fill="#020100" d="M 203.5,255.5 C 220.517,257.175 234.183,264.842 244.5,278.5C 242.509,280.164 240.509,281.831 238.5,283.5C 236.79,285.2 234.79,286.533 232.5,287.5C 221.605,274.885 207.939,269.885 191.5,272.5C 199.56,280.951 204.726,290.951 207,302.5C 207.805,325.905 206.805,349.238 204,372.5C 199.261,404.342 193.594,436.008 187,467.5C 185.694,471.446 183.861,475.112 181.5,478.5C 188.476,479.664 195.476,479.831 202.5,479C 209.046,476.982 214.213,473.148 218,467.5C 225.207,437.466 230.873,407.133 235,376.5C 238.057,375.549 241.223,375.216 244.5,375.5C 246.861,375.674 249.194,376.007 251.5,376.5C 247.432,406.674 242.266,436.674 236,466.5C 230.99,481.51 220.823,491.01 205.5,495C 166.333,495.174 127.167,495.341 88,495.5C 69.1552,499.05 53.4885,493.716 41,479.5C 38.1956,475.557 36.1956,471.223 35,466.5C 25.9564,425.906 19.623,384.906 16,343.5C 7.35114,275.982 36.8511,246.649 104.5,255.5C 120.167,255.5 135.833,255.5 151.5,255.5C 149.687,236.778 157.354,223.778 174.5,216.5C 175.495,211.208 175.828,205.875 175.5,200.5C 148.643,204.012 129.31,218.012 117.5,242.5C 117,242.833 116.5,243.167 116,243.5C 113.567,242.521 111.067,241.855 108.5,241.5C 106.118,240.428 103.784,239.262 101.5,238C 110.182,216.818 124.849,201.318 145.5,191.5C 156.252,187.248 167.419,184.582 179,183.5C 182.258,183.493 185.425,183.993 188.5,185C 189.701,185.903 190.535,187.069 191,188.5C 191.944,201.903 191.611,215.236 190,228.5C 184.986,230.608 179.82,232.441 174.5,234C 168.026,239.705 165.693,246.872 167.5,255.5C 179.5,255.5 191.5,255.5 203.5,255.5 Z"/></g>
<g><path style="opacity:0.975" fill="#010100" d="M 255.5,319.5 C 255.334,313.824 255.501,308.157 256,302.5C 262.593,275.281 279.76,259.614 307.5,255.5C 317.5,255.5 327.5,255.5 337.5,255.5C 339.247,244.43 343.08,234.097 349,224.5C 354.406,217.939 359.572,211.272 364.5,204.5C 374.054,196.885 384.72,191.052 396.5,187C 406.63,183.894 416.963,182.894 427.5,184C 428.416,184.374 429.25,184.874 430,185.5C 431.631,199.406 431.964,213.406 431,227.5C 430.626,228.416 430.126,229.25 429.5,230C 413.728,231.269 406.395,239.769 407.5,255.5C 474.616,247.116 503.783,276.449 495,343.5C 491.377,384.907 485.043,425.907 476,466.5C 470.99,481.51 460.823,491.01 445.5,495C 432.167,495.667 418.833,495.667 405.5,495C 393.768,491.634 383.768,485.468 375.5,476.5C 367.243,485.463 357.243,491.63 345.5,495C 332.167,495.667 318.833,495.667 305.5,495C 290.177,491.01 280.01,481.51 275,466.5C 265.956,425.906 259.623,384.906 256,343.5C 255.5,335.507 255.334,327.507 255.5,319.5 Z"/></g>
<g><path style="opacity:0.997" fill="#77ab53" d="M 104.5,255.5 C 105.83,250.85 107.163,246.183 108.5,241.5C 111.067,241.855 113.567,242.521 116,243.5C 116.5,243.167 117,242.833 117.5,242.5C 129.31,218.012 148.643,204.012 175.5,200.5C 175.828,205.875 175.495,211.208 174.5,216.5C 157.354,223.778 149.687,236.778 151.5,255.5C 135.833,255.5 120.167,255.5 104.5,255.5 Z"/></g>
<g><path style="opacity:1" fill="#77aa52" d="M 407.5,200.5 C 410.167,200.5 412.833,200.5 415.5,200.5C 415.828,205.875 415.495,211.208 414.5,216.5C 402.701,220.466 395.201,228.466 392,240.5C 391.083,249.909 391.416,259.242 393,268.5C 393.903,269.701 395.069,270.535 396.5,271C 413.5,271.333 430.5,271.667 447.5,272C 464.026,276.526 474.526,287.026 479,303.5C 479.804,326.24 478.804,348.907 476,371.5C 471.409,401.637 466.076,431.637 460,461.5C 457.5,470.667 451.667,476.5 442.5,479C 430.109,479.917 417.776,479.584 405.5,478C 402.339,476.587 399.339,474.92 396.5,473C 392.467,468.632 388.134,464.632 383.5,461C 377.353,458.79 371.353,459.124 365.5,462C 361.833,465.667 358.167,469.333 354.5,473C 350.557,475.804 346.223,477.804 341.5,479C 330.5,479.667 319.5,479.667 308.5,479C 296.066,474.664 289.566,465.831 289,452.5C 280.962,415.196 275.295,377.529 272,339.5C 271.333,327.5 271.333,315.5 272,303.5C 276.5,287 287,276.5 303.5,272C 318.568,271.952 333.568,271.285 348.5,270C 351.575,260.563 354.741,251.063 358,241.5C 368.381,220.272 384.881,206.605 407.5,200.5 Z"/></g>
<g><path style="opacity:1" fill="#e34b3e" d="M 63.5,271.5 C 68.8746,271.172 74.2079,271.505 79.5,272.5C 71.4383,280.956 66.2716,290.956 64,302.5C 63.1716,335.065 65.505,367.398 71,399.5C 75.2406,422.184 79.5739,444.851 84,467.5C 85.3061,471.446 87.1394,475.112 89.5,478.5C 82.5237,479.664 75.5237,479.831 68.5,479C 56.0658,474.664 49.5658,465.831 49,452.5C 40.6328,413.896 34.9661,374.896 32,335.5C 31.0852,323.442 31.4186,311.442 33,299.5C 38.6109,285.05 48.7776,275.717 63.5,271.5 Z"/></g>
<g><path style="opacity:1" fill="#f15143" d="M 111.5,271.5 C 127.17,271.333 142.837,271.5 158.5,272C 175.583,276.083 186.416,286.583 191,303.5C 191.993,326.25 190.993,348.917 188,371.5C 183.465,400.243 178.465,428.909 173,457.5C 171.492,468.674 165.326,475.841 154.5,479C 140.764,479.945 127.097,479.612 113.5,478C 104.349,474.207 99.1828,467.373 98,457.5C 93.0545,431.881 88.3879,406.214 84,380.5C 80.6091,354.929 79.2758,329.263 80,303.5C 84.6827,286.985 95.1827,276.318 111.5,271.5 Z"/></g>
<g><path style="opacity:0.998" fill="#e44b3e" d="M 238.5,283.5 C 245.558,294.399 248.558,306.399 247.5,319.5C 247.419,338.218 246.419,356.885 244.5,375.5C 241.223,375.216 238.057,375.549 235,376.5C 230.873,407.133 225.207,437.466 218,467.5C 214.213,473.148 209.046,476.982 202.5,479C 195.476,479.831 188.476,479.664 181.5,478.5C 183.861,475.112 185.694,471.446 187,467.5C 193.594,436.008 199.261,404.342 204,372.5C 206.805,349.238 207.805,325.905 207,302.5C 204.726,290.951 199.56,280.951 191.5,272.5C 207.939,269.885 221.605,274.885 232.5,287.5C 234.79,286.533 236.79,285.2 238.5,283.5 Z"/></g>
<g><path style="opacity:1" fill="#010201" d="M 305.5,287.5 C 318.837,287.333 332.171,287.5 345.5,288C 351.462,290.405 352.962,294.571 350,300.5C 346.453,302.617 342.62,304.117 338.5,305C 333.66,311.621 334.994,316.621 342.5,320C 344.049,321.214 345.215,322.714 346,324.5C 344.743,329.042 344.077,333.708 344,338.5C 344.833,340.667 346.333,342.167 348.5,343C 352.309,343.588 355.976,343.088 359.5,341.5C 362.63,341.648 365.13,342.982 367,345.5C 367.16,349.287 367.826,352.954 369,356.5C 373.333,360.5 377.667,360.5 382,356.5C 383.174,352.954 383.84,349.287 384,345.5C 385.167,344.333 386.333,343.167 387.5,342C 392.549,342.037 397.549,342.37 402.5,343C 404.667,342.167 406.167,340.667 407,338.5C 406.923,333.708 406.257,329.042 405,324.5C 407.166,320.914 410.166,318.247 414,316.5C 417.167,307.686 414,303.186 404.5,303C 401.187,301.434 399.521,298.767 399.5,295C 399.703,292.594 400.703,290.594 402.5,289C 416.406,287.369 430.406,287.036 444.5,288C 459.785,293.479 466.118,304.313 463.5,320.5C 461.691,361.996 456.191,402.996 447,443.5C 441.006,458.589 429.839,465.089 413.5,463C 409.714,461.607 406.048,459.941 402.5,458C 384.485,433.336 366.485,433.336 348.5,458C 328.456,468.54 313.623,463.707 304,443.5C 294.808,402.992 289.308,361.992 287.5,320.5C 285.037,304.683 291.037,293.683 305.5,287.5 Z"/></g>
<g><path style="opacity:1" fill="#090201" d="M 114.5,288.5 C 115.496,288.414 116.329,288.748 117,289.5C 118.993,293.312 120.493,297.312 121.5,301.5C 119.52,304.809 117.186,307.809 114.5,310.5C 109.632,309.727 105.298,307.894 101.5,305C 103.834,297.784 108.168,292.284 114.5,288.5 Z"/></g>
<g><path style="opacity:1" fill="#639340" d="M 308.5,303.5 C 312.555,303.176 316.555,303.509 320.5,304.5C 318.432,313.662 320.598,321.662 327,328.5C 326.208,347.203 335.041,357.87 353.5,360.5C 361.973,375.896 373.973,379.396 389.5,371C 393.126,368.21 395.792,364.71 397.5,360.5C 415.957,357.871 424.79,347.205 424,328.5C 430.402,321.662 432.568,313.662 430.5,304.5C 444.747,300.912 450.414,306.412 447.5,321C 445.878,362.152 440.044,402.652 430,442.5C 425.996,446.612 421.163,448.112 415.5,447C 409.489,440.361 402.823,434.361 395.5,429C 379.314,420.714 363.981,422.047 349.5,433C 345.491,437.375 341.491,441.708 337.5,446C 326.285,449.305 319.785,445.138 318,433.5C 312.478,406.699 308.144,379.699 305,352.5C 303.795,337.848 303.462,323.181 304,308.5C 305.025,306.313 306.525,304.646 308.5,303.5 Z"/></g>
<g><path style="opacity:1" fill="#040100" d="M 97.5,323.5 C 102.833,323.5 108.167,323.5 113.5,323.5C 113.079,342.449 115.079,361.116 119.5,379.5C 114.311,381.271 108.978,382.271 103.5,382.5C 99.6085,363.033 97.6085,343.366 97.5,323.5 Z"/></g>
</svg>
