<?xml version="1.0" encoding="UTF-8"?>
<!DOCTYPE svg PUBLIC "-//W3C//DTD SVG 1.1//EN" "http://www.w3.org/Graphics/SVG/1.1/DTD/svg11.dtd">
<svg xmlns="http://www.w3.org/2000/svg" version="1.1" width="512px" height="512px" style="shape-rendering:geometricPrecision; text-rendering:geometricPrecision; image-rendering:optimizeQuality; fill-rule:evenodd; clip-rule:evenodd" xmlns:xlink="http://www.w3.org/1999/xlink">
<g><path style="opacity:0.979" fill="#010101" d="M 243.5,-0.5 C 251.5,-0.5 259.5,-0.5 267.5,-0.5C 311.406,10.7566 335.739,39.0899 340.5,84.5C 352.748,83.2051 361.248,88.2051 366,99.5C 366.667,106.5 366.667,113.5 366,120.5C 362.937,130.066 356.437,135.4 346.5,136.5C 361.786,247.332 377.119,358.166 392.5,469C 390.77,491.006 379.437,505.172 358.5,511.5C 289.833,511.5 221.167,511.5 152.5,511.5C 131.563,505.172 120.23,491.006 118.5,469C 133.793,358.153 149.127,247.319 164.5,136.5C 154.563,135.4 148.063,130.066 145,120.5C 144.333,113.5 144.333,106.5 145,99.5C 149.752,88.2051 158.252,83.2051 170.5,84.5C 175.261,39.0899 199.594,10.7566 243.5,-0.5 Z"/></g>
<g><path style="opacity:1" fill="#cdd6da" d="M 246.5,17.5 C 250.846,17.3343 255.179,17.501 259.5,18C 272.746,25.4125 282.746,35.9125 289.5,49.5C 288.398,50.1757 287.398,50.8423 286.5,51.5C 281.352,54.6051 280.186,58.9385 283,64.5C 286.421,67.5363 290.254,68.203 294.5,66.5C 295.966,67.347 296.8,68.6803 297,70.5C 297.994,75.118 298.494,79.7847 298.5,84.5C 261.5,84.5 224.5,84.5 187.5,84.5C 190.676,57.2957 204.01,36.7957 227.5,23C 233.462,19.8454 239.796,18.0121 246.5,17.5 Z"/></g>
<g><path style="opacity:1" fill="#5f7b89" d="M 246.5,17.5 C 284.103,16.0842 308.936,33.4176 321,69.5C 322.636,74.3751 323.469,79.3751 323.5,84.5C 315.167,84.5 306.833,84.5 298.5,84.5C 298.494,79.7847 297.994,75.118 297,70.5C 296.8,68.6803 295.966,67.347 294.5,66.5C 297.861,62.6038 298.361,58.2705 296,53.5C 293.096,51.7732 289.93,51.1065 286.5,51.5C 287.398,50.8423 288.398,50.1757 289.5,49.5C 282.746,35.9125 272.746,25.4125 259.5,18C 255.179,17.501 250.846,17.3343 246.5,17.5 Z"/></g>
<g><path style="opacity:1" fill="#070808" d="M 252.5,33.5 C 261.153,32.9867 264.653,36.9867 263,45.5C 260.774,49.8608 257.274,51.3608 252.5,50C 247.931,47.4586 246.431,43.6253 248,38.5C 249.193,36.5029 250.693,34.8362 252.5,33.5 Z"/></g>
<g><path style="opacity:1" fill="#070707" d="M 218.5,50.5 C 227.174,50.006 230.674,54.006 229,62.5C 226.459,67.0685 222.625,68.5685 217.5,67C 213.723,64.0453 212.557,60.212 214,55.5C 215.193,53.5029 216.693,51.8362 218.5,50.5 Z"/></g>
<g><path style="opacity:1" fill="#030404" d="M 286.5,51.5 C 289.93,51.1065 293.096,51.7732 296,53.5C 298.361,58.2705 297.861,62.6038 294.5,66.5C 290.254,68.203 286.421,67.5363 283,64.5C 280.186,58.9385 281.352,54.6051 286.5,51.5 Z"/></g>
<g><path style="opacity:1" fill="#ced7db" d="M 164.5,102.5 C 217.5,102.5 270.5,102.5 323.5,102.5C 323.805,107.762 323.471,112.928 322.5,118C 269.834,118.5 217.168,118.667 164.5,118.5C 163.542,118.047 162.708,117.381 162,116.5C 161.333,112.5 161.333,108.5 162,104.5C 162.708,103.619 163.542,102.953 164.5,102.5 Z"/></g>
<g><path style="opacity:1" fill="#566972" d="M 164.5,102.5 C 224.999,101.335 285.665,101.168 346.5,102C 348.995,104.219 349.995,107.052 349.5,110.5C 349.995,113.948 348.995,116.781 346.5,119C 285.665,119.832 224.999,119.665 164.5,118.5C 217.168,118.667 269.834,118.5 322.5,118C 323.471,112.928 323.805,107.762 323.5,102.5C 270.5,102.5 217.5,102.5 164.5,102.5 Z"/></g>
<g><path style="opacity:1" fill="#f4f4f4" d="M 300.5,136.5 C 304.593,167.149 308.593,197.816 312.5,228.5C 299.716,227.978 287.049,228.811 274.5,231C 262.647,234.396 250.98,238.396 239.5,243C 215.59,248.293 191.923,247.46 168.5,240.5C 172.839,205.928 177.505,171.428 182.5,137C 221.832,136.5 261.165,136.333 300.5,136.5 Z"/></g>
<g><path style="opacity:1" fill="#9c9c9c" d="M 300.5,136.5 C 310.083,136.182 319.583,136.515 329,137.5C 333.569,169.459 337.736,201.459 341.5,233.5C 331.876,231.679 322.21,230.012 312.5,228.5C 308.593,197.816 304.593,167.149 300.5,136.5 Z"/></g>
<g><path style="opacity:1" fill="#9d9d9d" d="M 318.5,247.5 C 319.925,256.81 321.259,266.143 322.5,275.5C 322.427,277.59 322.094,279.59 321.5,281.5C 315.593,284.223 314.093,288.557 317,294.5C 318.129,296.141 319.629,297.141 321.5,297.5C 322.568,298.434 323.901,298.768 325.5,298.5C 326.164,302.823 326.831,307.157 327.5,311.5C 327.489,313.045 327.156,314.378 326.5,315.5C 317.847,314.987 314.347,318.987 316,327.5C 319.52,332.904 324.02,333.904 329.5,330.5C 330.763,336.659 331.763,342.992 332.5,349.5C 324.839,350.82 322.339,355.153 325,362.5C 326.129,364.141 327.629,365.141 329.5,365.5C 331.265,366.461 333.265,366.795 335.5,366.5C 336.017,372.019 336.684,377.519 337.5,383C 337.43,383.765 337.097,384.265 336.5,384.5C 329.785,382.358 325.452,384.691 323.5,391.5C 325.765,400.896 330.765,402.896 338.5,397.5C 339.222,397.918 339.722,398.584 340,399.5C 340.882,405.504 341.715,411.504 342.5,417.5C 340.585,417.216 338.919,417.549 337.5,418.5C 332.893,420.772 331.393,424.438 333,429.5C 335.281,433.593 338.781,435.26 343.5,434.5C 344.222,434.918 344.722,435.584 345,436.5C 346.068,442.476 346.901,448.476 347.5,454.5C 340.036,449.564 335.036,451.398 332.5,460C 333.398,467.125 337.398,469.792 344.5,468C 346.027,466.968 347.36,465.801 348.5,464.5C 349.825,475.859 346.492,485.859 338.5,494.5C 277.499,494.667 216.499,494.5 155.5,494C 140.12,488.082 133.953,476.916 137,460.5C 146.363,392.723 156.196,325.057 166.5,257.5C 188.748,264.913 211.415,266.413 234.5,262C 250.717,256.594 267.051,251.594 283.5,247C 295.361,244.874 307.028,245.04 318.5,247.5 Z"/></g>
<g><path style="opacity:1" fill="#414141" d="M 318.5,247.5 C 327.745,248.395 336.745,250.395 345.5,253.5C 355.306,325.307 364.972,397.141 374.5,469C 374.02,482.297 367.354,490.63 354.5,494C 349.177,494.499 343.844,494.666 338.5,494.5C 346.492,485.859 349.825,475.859 348.5,464.5C 349.994,460.975 349.661,457.642 347.5,454.5C 346.901,448.476 346.068,442.476 345,436.5C 344.722,435.584 344.222,434.918 343.5,434.5C 350.237,430.065 350.904,424.899 345.5,419C 342.854,418.503 340.187,418.336 337.5,418.5C 338.919,417.549 340.585,417.216 342.5,417.5C 341.715,411.504 340.882,405.504 340,399.5C 339.722,398.584 339.222,397.918 338.5,397.5C 341.552,392.529 340.886,388.195 336.5,384.5C 337.097,384.265 337.43,383.765 337.5,383C 336.684,377.519 336.017,372.019 335.5,366.5C 333.265,366.795 331.265,366.461 329.5,365.5C 339.481,366.214 342.648,361.881 339,352.5C 337.266,350.549 335.099,349.549 332.5,349.5C 331.763,342.992 330.763,336.659 329.5,330.5C 334.249,324.243 333.249,319.243 326.5,315.5C 327.156,314.378 327.489,313.045 327.5,311.5C 326.831,307.157 326.164,302.823 325.5,298.5C 323.901,298.768 322.568,298.434 321.5,297.5C 327.925,298.466 331.592,295.799 332.5,289.5C 331.592,283.201 327.925,280.534 321.5,281.5C 322.094,279.59 322.427,277.59 322.5,275.5C 321.259,266.143 319.925,256.81 318.5,247.5 Z"/></g>
<g><path style="opacity:1" fill="#050505" d="M 183.5,281.5 C 192.161,280.329 195.994,283.996 195,292.5C 192.565,297.224 188.731,298.724 183.5,297C 176.89,291.802 176.89,286.636 183.5,281.5 Z"/></g>
<g><path style="opacity:1" fill="#030303" d="M 321.5,281.5 C 327.925,280.534 331.592,283.201 332.5,289.5C 331.592,295.799 327.925,298.466 321.5,297.5C 319.629,297.141 318.129,296.141 317,294.5C 314.093,288.557 315.593,284.223 321.5,281.5 Z"/></g>
<g><path style="opacity:1" fill="#070707" d="M 183.5,315.5 C 192.658,314.491 196.492,318.491 195,327.5C 187.041,335.135 181.541,333.635 178.5,323C 179.546,320.114 181.213,317.614 183.5,315.5 Z"/></g>
<g><path style="opacity:1" fill="#050505" d="M 326.5,315.5 C 333.249,319.243 334.249,324.243 329.5,330.5C 324.02,333.904 319.52,332.904 316,327.5C 314.347,318.987 317.847,314.987 326.5,315.5 Z"/></g>
<g><path style="opacity:1" fill="#010101" d="M 226.5,332.5 C 238.505,332.333 250.505,332.5 262.5,333C 285.997,341.495 293.83,357.662 286,381.5C 281.328,390.34 274.162,396.007 264.5,398.5C 257.754,397.366 255.254,393.366 257,386.5C 260.06,383.386 263.56,380.886 267.5,379C 275.973,366.75 273.64,357.083 260.5,350C 253.174,349.5 245.841,349.334 238.5,349.5C 238.667,378.835 238.5,408.169 238,437.5C 233.751,444.317 228.751,444.984 223,439.5C 221.354,405.56 221.021,371.56 222,337.5C 223.025,335.313 224.525,333.646 226.5,332.5 Z"/></g>
<g><path style="opacity:1" fill="#080808" d="M 175.5,349.5 C 183.498,349 187.331,352.667 187,360.5C 181.996,367.842 176.663,368.176 171,361.5C 169.474,356.239 170.974,352.239 175.5,349.5 Z"/></g>
<g><path style="opacity:1" fill="#050505" d="M 332.5,349.5 C 335.099,349.549 337.266,350.549 339,352.5C 342.648,361.881 339.481,366.214 329.5,365.5C 327.629,365.141 326.129,364.141 325,362.5C 322.339,355.153 324.839,350.82 332.5,349.5 Z"/></g>
<g><path style="opacity:1" fill="#080808" d="M 175.5,383.5 C 184.858,383.342 188.358,387.675 186,396.5C 181.577,401.191 176.91,401.524 172,397.5C 169.267,391.722 170.434,387.056 175.5,383.5 Z"/></g>
<g><path style="opacity:1" fill="#070707" d="M 336.5,384.5 C 340.886,388.195 341.552,392.529 338.5,397.5C 330.765,402.896 325.765,400.896 323.5,391.5C 325.452,384.691 329.785,382.358 336.5,384.5 Z"/></g>
<g><path style="opacity:1" fill="#080808" d="M 167.5,417.5 C 175.865,417.36 179.365,421.36 178,429.5C 172.715,436.156 167.382,436.156 162,429.5C 160.873,424.089 162.707,420.089 167.5,417.5 Z"/></g>
<g><path style="opacity:1" fill="#040404" d="M 337.5,418.5 C 340.187,418.336 342.854,418.503 345.5,419C 350.904,424.899 350.237,430.065 343.5,434.5C 338.781,435.26 335.281,433.593 333,429.5C 331.393,424.438 332.893,420.772 337.5,418.5 Z"/></g>
<g><path style="opacity:1" fill="#090909" d="M 167.5,451.5 C 175.523,451.683 179.023,455.683 178,463.5C 175.459,468.069 171.625,469.569 166.5,468C 159.724,462.132 160.058,456.632 167.5,451.5 Z"/></g>
<g><path style="opacity:1" fill="#070707" d="M 347.5,454.5 C 349.661,457.642 349.994,460.975 348.5,464.5C 347.36,465.801 346.027,466.968 344.5,468C 337.398,469.792 333.398,467.125 332.5,460C 335.036,451.398 340.036,449.564 347.5,454.5 Z"/></g>
</svg>
