<?xml version="1.0" encoding="UTF-8"?>
<!DOCTYPE svg PUBLIC "-//W3C//DTD SVG 1.1//EN" "http://www.w3.org/Graphics/SVG/1.1/DTD/svg11.dtd">
<svg xmlns="http://www.w3.org/2000/svg" version="1.1" width="512px" height="512px" style="shape-rendering:geometricPrecision; text-rendering:geometricPrecision; image-rendering:optimizeQuality; fill-rule:evenodd; clip-rule:evenodd" xmlns:xlink="http://www.w3.org/1999/xlink">
<g><path style="opacity:0.981" fill="#020200" d="M 250.5,-0.5 C 254.167,-0.5 257.833,-0.5 261.5,-0.5C 279.153,16.1158 290.653,36.4491 296,60.5C 297.918,71.0924 299.251,81.759 300,92.5C 330.318,68.1776 361.818,66.3442 394.5,87C 399.301,90.799 403.801,94.9657 408,99.5C 410.18,102.359 411.68,105.526 412.5,109C 411.896,111.468 410.562,113.468 408.5,115C 382.32,123.253 358.653,135.919 337.5,153C 333.938,156.058 330.938,159.558 328.5,163.5C 359.241,185.446 378.074,215.113 385,252.5C 386.61,299.48 386.943,346.48 386,393.5C 379.188,445.639 351.688,482.139 303.5,503C 297.751,506.094 291.751,506.927 285.5,505.5C 284.295,504.423 283.628,503.09 283.5,501.5C 282.893,494.932 285.893,491.098 292.5,490C 280.167,481.5 267.833,473 255.5,464.5C 245.589,471.277 235.923,478.277 226.5,485.5C 223.66,486.423 221.326,488.09 219.5,490.5C 227.181,493.669 235.181,495.336 243.5,495.5C 250.133,496.214 256.8,496.714 263.5,497C 266.442,498.436 268.442,500.603 269.5,503.5C 268.818,506.881 267.151,509.548 264.5,511.5C 256.5,511.5 248.5,511.5 240.5,511.5C 181.358,501.53 143.858,467.53 128,409.5C 126.289,401.254 125.289,392.921 125,384.5C 124.333,346.833 124.333,309.167 125,271.5C 126.889,225.877 146.389,190.043 183.5,164C 171.197,147.171 155.197,135.171 135.5,128C 125.371,124.551 115.038,121.884 104.5,120C 98.5165,115.068 97.3498,109.234 101,102.5C 110.462,91.6979 121.628,83.1979 134.5,77C 138.97,74.8582 143.637,74.1915 148.5,75C 150.819,76.1474 152.152,77.9807 152.5,80.5C 152.736,85.0375 150.736,88.0375 146.5,89.5C 135.515,92.6449 126.181,98.4782 118.5,107C 151.371,113.417 177.705,129.917 197.5,156.5C 205.477,152.008 213.977,149.008 223,147.5C 226.82,147.318 229.32,148.985 230.5,152.5C 230.702,154.989 230.202,157.323 229,159.5C 226.217,160.928 223.383,162.262 220.5,163.5C 222.55,165.547 224.883,167.214 227.5,168.5C 236.766,175.145 246.1,181.812 255.5,188.5C 267.305,180.528 278.972,172.361 290.5,164C 277.355,159.032 263.688,156.865 249.5,157.5C 247.422,155.61 246.089,153.276 245.5,150.5C 245.78,147.713 247.113,145.547 249.5,144C 272.017,142.147 293.35,146.314 313.5,156.5C 317.203,152.798 320.537,148.798 323.5,144.5C 343.421,127.363 365.754,114.03 390.5,104.5C 376.689,90.4431 360.023,85.2764 340.5,89C 323.112,94.5255 308.112,103.859 295.5,117C 290.498,119.601 286.665,118.434 284,113.5C 287.794,80.3482 280.461,50.0149 262,22.5C 259.824,20.1251 257.657,17.7918 255.5,15.5C 239.825,33.5297 230.658,54.5297 228,78.5C 227.667,90.5 227.333,102.5 227,114.5C 224.166,118.417 220.666,119.251 216.5,117C 203.236,103.53 187.569,93.8633 169.5,88C 168.188,85.5201 167.188,83.0201 166.5,80.5C 168.514,75.493 172.181,73.6596 177.5,75C 189.616,78.3912 200.616,83.8912 210.5,91.5C 212.101,63.5308 220.601,37.8641 236,14.5C 240.416,8.91384 245.249,3.91384 250.5,-0.5 Z"/></g>
<g><path style="opacity:1" fill="#6bc629" d="M 323.5,144.5 C 291.549,125.344 257.549,120.511 221.5,130C 215.796,131.315 210.796,129.982 206.5,126C 195.686,112.92 182.352,103.253 166.5,97C 159.685,94.5661 153.018,92.0661 146.5,89.5C 150.736,88.0375 152.736,85.0375 152.5,80.5C 157.073,79.9766 161.74,79.9766 166.5,80.5C 167.188,83.0201 168.188,85.5201 169.5,88C 187.569,93.8633 203.236,103.53 216.5,117C 220.666,119.251 224.166,118.417 227,114.5C 227.333,102.5 227.667,90.5 228,78.5C 230.658,54.5297 239.825,33.5297 255.5,15.5C 257.657,17.7918 259.824,20.1251 262,22.5C 280.461,50.0149 287.794,80.3482 284,113.5C 286.665,118.434 290.498,119.601 295.5,117C 308.112,103.859 323.112,94.5255 340.5,89C 360.023,85.2764 376.689,90.4431 390.5,104.5C 365.754,114.03 343.421,127.363 323.5,144.5 Z"/></g>
<g><path style="opacity:1" fill="#5daa23" d="M 146.5,89.5 C 153.018,92.0661 159.685,94.5661 166.5,97C 182.352,103.253 195.686,112.92 206.5,126C 210.796,129.982 215.796,131.315 221.5,130C 257.549,120.511 291.549,125.344 323.5,144.5C 320.537,148.798 317.203,152.798 313.5,156.5C 293.35,146.314 272.017,142.147 249.5,144C 247.113,145.547 245.78,147.713 245.5,150.5C 240.47,150.98 235.47,151.647 230.5,152.5C 229.32,148.985 226.82,147.318 223,147.5C 213.977,149.008 205.477,152.008 197.5,156.5C 177.705,129.917 151.371,113.417 118.5,107C 126.181,98.4782 135.515,92.6449 146.5,89.5 Z"/></g>
<g><path style="opacity:1" fill="#d4ac00" d="M 245.5,150.5 C 246.089,153.276 247.422,155.61 249.5,157.5C 241.302,159.599 233.968,163.266 227.5,168.5C 224.883,167.214 222.55,165.547 220.5,163.5C 223.383,162.262 226.217,160.928 229,159.5C 230.202,157.323 230.702,154.989 230.5,152.5C 235.47,151.647 240.47,150.98 245.5,150.5 Z"/></g>
<g><path style="opacity:1" fill="#f9c800" d="M 249.5,157.5 C 263.688,156.865 277.355,159.032 290.5,164C 278.972,172.361 267.305,180.528 255.5,188.5C 246.1,181.812 236.766,175.145 227.5,168.5C 233.968,163.266 241.302,159.599 249.5,157.5 Z"/></g>
<g><path style="opacity:1" fill="#daaf00" d="M 213.5,177.5 C 197.989,189.003 186.655,203.669 179.5,221.5C 173.022,217.424 166.689,213.09 160.5,208.5C 171.737,192.259 186.07,179.593 203.5,170.5C 206.9,172.856 210.233,175.189 213.5,177.5 Z"/></g>
<g><path style="opacity:1" fill="#fbca00" d="M 307.5,170.5 C 325.359,178.853 339.693,191.353 350.5,208C 339.965,216.195 329.132,224.028 318,231.5C 301.746,220.29 285.579,208.956 269.5,197.5C 282.185,188.475 294.851,179.475 307.5,170.5 Z"/></g>
<g><path style="opacity:1" fill="#fcca00" d="M 213.5,177.5 C 222.285,183.112 230.952,188.945 239.5,195C 241.007,195.837 241.507,197.004 241,198.5C 225.254,209.623 209.421,220.623 193.5,231.5C 188.766,228.145 184.1,224.812 179.5,221.5C 186.655,203.669 197.989,189.003 213.5,177.5 Z"/></g>
<g><path style="opacity:1" fill="#fcca00" d="M 254.5,206.5 C 271.455,217.319 288.122,228.652 304.5,240.5C 288.167,251.833 271.833,263.167 255.5,274.5C 239.199,263.523 223.199,252.19 207.5,240.5C 223.185,229.142 238.852,217.809 254.5,206.5 Z"/></g>
<g><path style="opacity:1" fill="#d8ae00" d="M 152.5,221.5 C 161.782,227.452 170.782,233.785 179.5,240.5C 166.828,249.662 153.995,258.662 141,267.5C 141.066,251.234 144.9,235.901 152.5,221.5 Z"/></g>
<g><path style="opacity:1" fill="#f7c700" d="M 357.5,221.5 C 359.335,222.122 360.502,223.456 361,225.5C 367.457,238.789 370.457,252.789 370,267.5C 357.079,258.623 344.246,249.623 331.5,240.5C 340.234,234.145 348.901,227.812 357.5,221.5 Z"/></g>
<g><path style="opacity:1" fill="#fcca00" d="M 166.5,298.5 C 166.24,288.128 166.573,277.794 167.5,267.5C 176.138,261.51 184.804,255.51 193.5,249.5C 209.801,260.477 225.801,271.81 241.5,283.5C 225.801,295.19 209.801,306.523 193.5,317.5C 184.258,311.391 175.258,305.057 166.5,298.5 Z"/></g>
<g><path style="opacity:1" fill="#fcca00" d="M 317.5,249.5 C 334.016,260.59 350.349,271.923 366.5,283.5C 350.458,294.944 334.292,306.277 318,317.5C 301.746,306.29 285.579,294.956 269.5,283.5C 285.529,272.157 301.529,260.824 317.5,249.5 Z"/></g>
<g><path style="opacity:1" fill="#d7ad00" d="M 167.5,267.5 C 166.573,277.794 166.24,288.128 166.5,298.5C 159.185,293.526 151.851,288.526 144.5,283.5C 152.185,278.141 159.851,272.808 167.5,267.5 Z"/></g>
<g><path style="opacity:1" fill="#fcca00" d="M 254.5,292.5 C 271.455,303.319 288.122,314.652 304.5,326.5C 288.341,338.08 272.008,349.413 255.5,360.5C 239.199,349.523 223.199,338.19 207.5,326.5C 223.185,315.142 238.852,303.809 254.5,292.5 Z"/></g>
<g><path style="opacity:1" fill="#987a00" d="M 369.5,300.5 C 369.56,299.957 369.893,299.624 370.5,299.5C 371.833,317.5 371.833,335.5 370.5,353.5C 369.893,353.376 369.56,353.043 369.5,352.5C 370.833,335.167 370.833,317.833 369.5,300.5 Z"/></g>
<g><path style="opacity:1" fill="#ddb200" d="M 140.5,299.5 C 153.781,308.117 166.781,317.117 179.5,326.5C 166.828,335.662 153.995,344.662 141,353.5C 140.5,335.503 140.333,317.503 140.5,299.5 Z"/></g>
<g><path style="opacity:1" fill="#fbca00" d="M 369.5,300.5 C 370.833,317.833 370.833,335.167 369.5,352.5C 356.577,344.25 343.91,335.583 331.5,326.5C 343.91,317.417 356.577,308.75 369.5,300.5 Z"/></g>
<g><path style="opacity:1" fill="#fcca00" d="M 167.5,385.5 C 166.6,375.198 166.267,364.865 166.5,354.5C 175.258,347.943 184.258,341.609 193.5,335.5C 209.801,346.477 225.801,357.81 241.5,369.5C 225.801,381.19 209.801,392.523 193.5,403.5C 184.804,397.49 176.138,391.49 167.5,385.5 Z"/></g>
<g><path style="opacity:1" fill="#fcca00" d="M 317.5,335.5 C 334.016,346.59 350.349,357.923 366.5,369.5C 350.458,380.944 334.292,392.277 318,403.5C 301.708,392.277 285.542,380.944 269.5,369.5C 285.529,358.157 301.529,346.824 317.5,335.5 Z"/></g>
<g><path style="opacity:1" fill="#d7ad00" d="M 166.5,354.5 C 166.267,364.865 166.6,375.198 167.5,385.5C 159.851,380.192 152.185,374.859 144.5,369.5C 151.851,364.474 159.185,359.474 166.5,354.5 Z"/></g>
<g><path style="opacity:1" fill="#fcca00" d="M 254.5,378.5 C 271.405,389.391 288.071,400.724 304.5,412.5C 288.341,424.08 272.008,435.413 255.5,446.5C 239.199,435.523 223.199,424.19 207.5,412.5C 223.185,401.142 238.852,389.809 254.5,378.5 Z"/></g>
<g><path style="opacity:1" fill="#d9af00" d="M 140.5,385.5 C 153.285,393.778 165.952,402.278 178.5,411C 179.451,411.718 179.617,412.551 179,413.5C 170.304,419.696 161.47,425.696 152.5,431.5C 145.037,417.104 141.037,401.771 140.5,385.5 Z"/></g>
<g><path style="opacity:1" fill="#f8c800" d="M 369.5,385.5 C 370.827,393.113 370.327,400.78 368,408.5C 365.888,416.629 362.721,424.296 358.5,431.5C 349.325,425.413 340.325,419.079 331.5,412.5C 344.233,403.478 356.9,394.478 369.5,385.5 Z"/></g>
<g><path style="opacity:1" fill="#fcca00" d="M 213.5,475.5 C 212.448,475.649 211.448,475.483 210.5,475C 196.531,463.186 185.864,449.019 178.5,432.5C 183.177,428.503 188.177,424.837 193.5,421.5C 209.421,432.377 225.254,443.377 241,454.5C 241.507,455.996 241.007,457.163 239.5,458C 230.952,464.055 222.285,469.888 213.5,475.5 Z"/></g>
<g><path style="opacity:1" fill="#fcca00" d="M 317.5,421.5 C 328.979,429.077 340.312,436.91 351.5,445C 340.477,461.359 326.31,474.192 309,483.5C 295.671,474.329 282.504,464.995 269.5,455.5C 285.567,444.145 301.567,432.811 317.5,421.5 Z"/></g>
<g><path style="opacity:1" fill="#d9af00" d="M 178.5,432.5 C 185.864,449.019 196.531,463.186 210.5,475C 211.448,475.483 212.448,475.649 213.5,475.5C 209.875,478.11 206.208,480.777 202.5,483.5C 184.906,474.36 170.572,461.527 159.5,445C 165.733,440.585 172.067,436.418 178.5,432.5 Z"/></g>
<g><path style="opacity:1" fill="#fbc900" d="M 283.5,501.5 C 278.853,502.296 274.186,502.963 269.5,503.5C 268.442,500.603 266.442,498.436 263.5,497C 256.8,496.714 250.133,496.214 243.5,495.5C 237.372,492.937 231.705,489.603 226.5,485.5C 235.923,478.277 245.589,471.277 255.5,464.5C 267.833,473 280.167,481.5 292.5,490C 285.893,491.098 282.893,494.932 283.5,501.5 Z"/></g>
<g><path style="opacity:1" fill="#cca400" d="M 226.5,485.5 C 231.705,489.603 237.372,492.937 243.5,495.5C 235.181,495.336 227.181,493.669 219.5,490.5C 221.326,488.09 223.66,486.423 226.5,485.5 Z"/></g>
</svg>
