<?xml version="1.0" encoding="UTF-8"?>
<!DOCTYPE svg PUBLIC "-//W3C//DTD SVG 1.1//EN" "http://www.w3.org/Graphics/SVG/1.1/DTD/svg11.dtd">
<svg xmlns="http://www.w3.org/2000/svg" version="1.1" width="512px" height="512px" style="shape-rendering:geometricPrecision; text-rendering:geometricPrecision; image-rendering:optimizeQuality; fill-rule:evenodd; clip-rule:evenodd" xmlns:xlink="http://www.w3.org/1999/xlink">
<g><path style="opacity:0.98" fill="#020202" d="M 312.5,47.5 C 322.839,47.3335 333.172,47.5002 343.5,48C 361.404,53.588 369.237,65.7547 367,84.5C 356.553,126.674 344.386,168.341 330.5,209.5C 331.667,209.833 332.833,210.167 334,210.5C 355.784,207.299 377.618,206.799 399.5,209C 414.055,212.777 427.055,219.443 438.5,229C 442.5,231 446.5,233 450.5,235C 461.365,237.72 472.365,239.72 483.5,241C 500.917,249.677 507.084,263.51 502,282.5C 500.503,286.165 498.503,289.498 496,292.5C 462.722,329.465 425.555,361.632 384.5,389C 357.998,405.417 331.664,422.083 305.5,439C 267.633,460.709 227.299,467.709 184.5,460C 160.273,451.893 143.273,436.06 133.5,412.5C 107.521,405.318 84.8542,392.485 65.5,374C 22.8529,347.873 3.68623,309.707 8,259.5C 10.5944,241.38 16.9277,224.713 27,209.5C 99.3777,116.042 194.544,62.0423 312.5,47.5 Z"/></g>
<g><path style="opacity:1" fill="#d8d8d8" d="M 57.5,277.5 C 52.3519,250.401 57.1853,225.068 72,201.5C 88.3373,179.157 106.837,158.657 127.5,140C 136.94,132.958 145.94,125.458 154.5,117.5C 210.865,82.9053 272.198,65.072 338.5,64C 312.724,71.2777 286.724,77.9444 260.5,84C 201.183,101.724 150.016,132.557 107,176.5C 80.9218,205.325 64.4218,238.992 57.5,277.5 Z"/></g>
<g><path style="opacity:1" fill="#595a5c" d="M 338.5,83.5 C 339.239,83.369 339.906,83.5357 340.5,84C 323.872,116.756 307.372,149.589 291,182.5C 281.681,199.475 271.181,215.642 259.5,231C 224.372,244.132 192.872,262.965 165,287.5C 151.051,302.644 140.551,319.977 133.5,339.5C 118.357,347.6 102.69,353.6 86.5,357.5C 101.461,302.807 127.627,254.474 165,212.5C 201.848,171.961 243.681,137.795 290.5,110C 306.723,101.392 322.723,92.5591 338.5,83.5 Z"/></g>
<g><path style="opacity:1" fill="#dadada" d="M 80.5,324.5 C 78.9826,324.489 77.8159,323.823 77,322.5C 75.6667,320.5 74.3333,318.5 73,316.5C 72.5002,307.84 72.3336,299.173 72.5,290.5C 78.0108,242.975 98.6775,203.475 134.5,172C 177.801,132.848 228.134,107.182 285.5,95C 215.32,134.708 157.82,188.208 113,255.5C 99.5762,277.267 88.7429,300.267 80.5,324.5 Z"/></g>
<g><path style="opacity:1" fill="#c7c7c7" d="M 154.5,117.5 C 145.94,125.458 136.94,132.958 127.5,140C 106.837,158.657 88.3373,179.157 72,201.5C 57.1853,225.068 52.3519,250.401 57.5,277.5C 56.0699,287.091 55.4033,296.757 55.5,306.5C 55.9344,320.559 56.7677,334.559 58,348.5C 27.3532,319.883 17.3532,285.216 28,244.5C 30.8647,236.438 34.5314,228.771 39,221.5C 70.5604,178.856 109.06,144.189 154.5,117.5 Z"/></g>
<g><path style="opacity:1" fill="#d8d8d8" d="M 338.5,122.5 C 339.097,122.735 339.43,123.235 339.5,124C 330.677,154.638 321.343,185.138 311.5,215.5C 303.574,217.053 295.741,219.053 288,221.5C 287.5,221.167 287,220.833 286.5,220.5C 305.896,189.047 323.229,156.38 338.5,122.5 Z"/></g>
<g><path style="opacity:1" fill="#fdd896" d="M 486.5,276.5 C 454.981,306.524 420.981,333.358 384.5,357C 361.167,371.667 337.833,386.333 314.5,401C 283.643,417.964 250.643,425.298 215.5,423C 182.661,415.829 161.828,395.996 153,363.5C 152.185,355.68 151.352,348.013 150.5,340.5C 157.364,322.13 168.031,306.297 182.5,293C 239.647,248.836 304.48,225.669 377,223.5C 397.051,223.293 414.551,229.793 429.5,243C 443.937,251.624 459.604,255.957 476.5,256C 485.595,260.023 488.928,266.857 486.5,276.5 Z"/></g>
<g><path style="opacity:1" fill="#050403" d="M 348.5,239.5 C 360.167,239.5 371.833,239.5 383.5,239.5C 383.5,244.833 383.5,250.167 383.5,255.5C 336.529,252.869 292.695,263.202 252,286.5C 249.042,282.084 246.208,277.584 243.5,273C 276.109,254.074 311.109,242.907 348.5,239.5 Z"/></g>
<g><path style="opacity:1" fill="#f5c86c" d="M 486.5,276.5 C 472.443,294.394 456.777,310.894 439.5,326C 422.894,340.631 405.56,354.297 387.5,367C 357.336,386.583 327.003,405.916 296.5,425C 265.038,442.759 231.371,449.759 195.5,446C 157.457,433.248 140.291,406.748 144,366.5C 145.297,357.586 147.464,348.92 150.5,340.5C 151.352,348.013 152.185,355.68 153,363.5C 161.828,395.996 182.661,415.829 215.5,423C 250.643,425.298 283.643,417.964 314.5,401C 337.833,386.333 361.167,371.667 384.5,357C 420.981,333.358 454.981,306.524 486.5,276.5 Z"/></g>
<g><path style="opacity:1" fill="#050403" d="M 401.5,313.5 C 406.154,316.831 409.32,321.165 411,326.5C 358.202,367.64 298.702,394.307 232.5,406.5C 231.994,401.477 231.327,396.477 230.5,391.5C 293.819,378.663 350.819,352.663 401.5,313.5 Z"/></g>
<g><path style="opacity:1" fill="#b8b8b8" d="M 72.5,290.5 C 72.3336,299.173 72.5002,307.84 73,316.5C 74.3333,318.5 75.6667,320.5 77,322.5C 77.8159,323.823 78.9826,324.489 80.5,324.5C 78.1111,329.998 76.1111,335.665 74.5,341.5C 71.6318,324.426 70.9651,307.426 72.5,290.5 Z"/></g>
<g><path style="opacity:1" fill="#c4c4c4" d="M 127.5,359.5 C 128.497,359.47 129.164,359.97 129.5,361C 128.012,366.216 127.346,371.549 127.5,377C 127.859,382.522 128.025,388.022 128,393.5C 114.736,388.953 102.57,382.453 91.5,374C 104.04,370.216 116.04,365.383 127.5,359.5 Z"/></g>
</svg>
