<?xml version="1.0" encoding="UTF-8"?>
<!DOCTYPE svg PUBLIC "-//W3C//DTD SVG 1.1//EN" "http://www.w3.org/Graphics/SVG/1.1/DTD/svg11.dtd">
<svg xmlns="http://www.w3.org/2000/svg" version="1.1" width="512px" height="512px" style="shape-rendering:geometricPrecision; text-rendering:geometricPrecision; image-rendering:optimizeQuality; fill-rule:evenodd; clip-rule:evenodd" xmlns:xlink="http://www.w3.org/1999/xlink">
<g><path style="opacity:0.496" fill="#314e54" d="M 509.5,13.5 C 500.774,8.36229 495.107,10.6956 492.5,20.5C 492.797,12.0385 497.13,8.53846 505.5,10C 507.324,10.66 508.657,11.8267 509.5,13.5 Z"/></g>
<g><path style="opacity:1" fill="#050808" d="M 509.5,13.5 C 510.338,13.8417 510.672,14.5084 510.5,15.5C 510.365,21.181 510.032,26.8477 509.5,32.5C 508.023,46.4084 504.69,59.7418 499.5,72.5C 496.796,77.5907 494.463,82.924 492.5,88.5C 491.083,93.6788 488.417,98.0121 484.5,101.5C 480.5,104.833 476.833,108.5 473.5,112.5C 469.929,116.121 465.596,118.454 460.5,119.5C 458.335,119.116 456.668,119.783 455.5,121.5C 456.879,124.259 458.213,126.925 459.5,129.5C 460.358,137.132 460.691,144.799 460.5,152.5C 458.463,157.617 456.796,162.95 455.5,168.5C 452.992,172.182 450.992,176.182 449.5,180.5C 443.331,191.996 435.997,202.663 427.5,212.5C 422.195,218.14 416.861,223.807 411.5,229.5C 408.208,231.458 405.208,233.791 402.5,236.5C 401.284,238.451 399.618,239.951 397.5,241C 393.606,243.446 389.606,245.612 385.5,247.5C 381.827,249 378.494,251 375.5,253.5C 363.836,261.001 351.836,268.001 339.5,274.5C 334.976,276.043 330.976,278.377 327.5,281.5C 322.632,283.382 318.299,286.048 314.5,289.5C 310.317,291.087 306.65,293.421 303.5,296.5C 299.608,298.062 296.275,300.395 293.5,303.5C 287.353,308.408 281.02,313.075 274.5,317.5C 270.949,319.111 267.949,321.444 265.5,324.5C 263.761,327.243 261.427,329.243 258.5,330.5C 254.9,332.43 251.9,335.097 249.5,338.5C 240.588,345.907 232.088,353.907 224,362.5C 223.536,363.094 223.369,363.761 223.5,364.5C 213.536,377.131 203.203,389.465 192.5,401.5C 186.441,406.557 181.107,412.224 176.5,418.5C 175.833,419.833 174.833,420.833 173.5,421.5C 169.9,423.43 166.9,426.097 164.5,429.5C 162.431,432.573 159.764,434.906 156.5,436.5C 152.949,438.111 149.949,440.444 147.5,443.5C 138.553,449.117 129.886,455.117 121.5,461.5C 116.976,463.043 112.976,465.377 109.5,468.5C 102.516,471.325 95.849,474.659 89.5,478.5C 87.5739,480.293 85.2406,481.293 82.5,481.5C 77.117,482.734 72.117,484.734 67.5,487.5C 63.9017,489.74 59.9017,491.074 55.5,491.5C 47.6128,493.054 39.9461,495.054 32.5,497.5C 29.0915,498.903 25.4248,499.57 21.5,499.5C 17.8119,499.55 14.1452,499.884 10.5,500.5C 7.66399,500.41 4.99733,499.743 2.5,498.5C -0.0892804,493.9 -0.0892804,489.233 2.5,484.5C 2.42702,482.973 3.09368,481.973 4.5,481.5C 8.911,476.352 12.5777,470.686 15.5,464.5C 21.6692,453.489 28.3359,442.822 35.5,432.5C 39.2513,428.005 42.2513,423.005 44.5,417.5C 47.4124,410.668 51.0791,404.334 55.5,398.5C 59.5095,393.823 62.5095,388.489 64.5,382.5C 64.3284,381.508 64.6618,380.842 65.5,380.5C 68.5926,376.653 70.9259,372.32 72.5,367.5C 78.5406,358.086 83.5406,348.086 87.5,337.5C 87.9925,335.181 88.9925,333.181 90.5,331.5C 93.2895,327.584 95.2895,323.251 96.5,318.5C 96.7073,315.759 97.7073,313.426 99.5,311.5C 103.962,302.898 107.629,293.898 110.5,284.5C 114.205,274.479 119.538,265.479 126.5,257.5C 130.215,254.393 133.215,250.727 135.5,246.5C 136.419,243.911 138.086,241.911 140.5,240.5C 148.5,233.167 156.167,225.5 163.5,217.5C 163.5,216.833 163.833,216.5 164.5,216.5C 168.436,214.234 171.769,211.234 174.5,207.5C 179.248,202.416 184.581,198.083 190.5,194.5C 195.409,191.926 199.742,188.592 203.5,184.5C 204.262,182.738 205.596,181.738 207.5,181.5C 211.392,179.938 214.725,177.605 217.5,174.5C 221.392,172.938 224.725,170.605 227.5,167.5C 229.147,165.674 231.147,164.34 233.5,163.5C 238.709,161.281 243.376,158.281 247.5,154.5C 263.669,143.243 280.669,133.243 298.5,124.5C 302.655,123.258 306.322,121.258 309.5,118.5C 309.842,117.662 310.508,117.328 311.5,117.5C 321.151,113.341 330.484,108.675 339.5,103.5C 340.78,102.069 342.447,101.402 344.5,101.5C 349.382,100.208 354.048,98.5412 358.5,96.5C 364.448,93.7618 370.781,92.0951 377.5,91.5C 395.644,88.8479 413.311,90.5146 430.5,96.5C 446.7,106.077 460.2,103.077 471,87.5C 476.016,79.1384 480.182,70.4717 483.5,61.5C 486.572,54.2176 488.572,46.551 489.5,38.5C 489.872,32.2676 490.872,26.2676 492.5,20.5C 495.107,10.6956 500.774,8.36229 509.5,13.5 Z"/></g>
<g><path style="opacity:0.548" fill="#314e54" d="M 510.5,15.5 C 510.833,15.5 511.167,15.5 511.5,15.5C 511.5,19.1667 511.5,22.8333 511.5,26.5C 510.833,28.5 510.167,30.5 509.5,32.5C 510.032,26.8477 510.365,21.181 510.5,15.5 Z"/></g>
<g><path style="opacity:0.48" fill="#314e54" d="M 489.5,38.5 C 488.572,46.551 486.572,54.2176 483.5,61.5C 485.054,53.6128 487.054,45.9461 489.5,38.5 Z"/></g>
<g><path style="opacity:0.472" fill="#314e54" d="M 499.5,72.5 C 498.84,76.3127 497.674,79.9793 496,83.5C 495.303,85.5844 494.136,87.2511 492.5,88.5C 494.463,82.924 496.796,77.5907 499.5,72.5 Z"/></g>
<g><path style="opacity:0.571" fill="#314e54" d="M 430.5,96.5 C 413.311,90.5146 395.644,88.8479 377.5,91.5C 379.292,90.6909 381.292,90.1909 383.5,90C 398.151,88.3662 412.484,89.6995 426.5,94C 428.066,94.6082 429.4,95.4415 430.5,96.5 Z"/></g>
<g><path style="opacity:0.479" fill="#314e54" d="M 358.5,96.5 C 354.048,98.5412 349.382,100.208 344.5,101.5C 348.664,98.6657 353.331,96.999 358.5,96.5 Z"/></g>
<g><path style="opacity:0.505" fill="#314e54" d="M 484.5,101.5 C 481.833,106.167 478.167,109.833 473.5,112.5C 476.833,108.5 480.5,104.833 484.5,101.5 Z"/></g>
<g><path style="opacity:0.498" fill="#314e54" d="M 339.5,103.5 C 330.484,108.675 321.151,113.341 311.5,117.5C 320.248,111.793 329.581,107.126 339.5,103.5 Z"/></g>
<g><path style="opacity:1" fill="#5dcb65" d="M 387.5,108.5 C 403.603,106.36 418.27,109.86 431.5,119C 444.217,132.576 446.051,147.742 437,164.5C 427.989,179.86 417.989,194.527 407,208.5C 400.624,214.6 393.79,220.1 386.5,225C 358.833,241.333 331.167,257.667 303.5,274C 255.986,303.513 215.486,340.68 182,385.5C 141.541,432.244 91.208,463.244 31,478.5C 30.5,478.167 30,477.833 29.5,477.5C 70.8218,415.202 105.655,349.202 134,279.5C 147.263,259.356 163.097,241.356 181.5,225.5C 231.923,184.429 286.59,149.596 345.5,121C 359.203,115.248 373.203,111.082 387.5,108.5 Z"/></g>
<g><path style="opacity:0.503" fill="#314e54" d="M 309.5,118.5 C 306.322,121.258 302.655,123.258 298.5,124.5C 301.678,121.742 305.345,119.742 309.5,118.5 Z"/></g>
<g><path style="opacity:0.507" fill="#314e54" d="M 460.5,119.5 C 459.791,120.404 458.791,120.737 457.5,120.5C 458.461,123.426 459.127,126.426 459.5,129.5C 458.213,126.925 456.879,124.259 455.5,121.5C 456.668,119.783 458.335,119.116 460.5,119.5 Z"/></g>
<g><path style="opacity:0.603" fill="#314e54" d="M 459.5,129.5 C 460.268,130.263 460.768,131.263 461,132.5C 461.821,139.346 461.654,146.013 460.5,152.5C 460.691,144.799 460.358,137.132 459.5,129.5 Z"/></g>
<g><path style="opacity:0.52" fill="#314e54" d="M 460.5,152.5 C 460.013,158.291 458.346,163.624 455.5,168.5C 456.796,162.95 458.463,157.617 460.5,152.5 Z"/></g>
<g><path style="opacity:0.526" fill="#314e54" d="M 247.5,154.5 C 243.376,158.281 238.709,161.281 233.5,163.5C 237.624,159.719 242.291,156.719 247.5,154.5 Z"/></g>
<g><path style="opacity:1" fill="#070a0a" d="M 316.5,156.5 C 327.868,156.354 331.535,161.52 327.5,172C 303.835,185.497 280.502,199.497 257.5,214C 244.883,222.949 232.55,232.283 220.5,242C 216.132,246.033 212.132,250.366 208.5,255C 202.848,258.878 198.015,258.045 194,252.5C 193.163,248.705 193.496,245.039 195,241.5C 214.895,220.988 237.061,203.488 261.5,189C 279.742,177.905 298.076,167.072 316.5,156.5 Z"/></g>
<g><path style="opacity:0.508" fill="#314e54" d="M 227.5,167.5 C 224.725,170.605 221.392,172.938 217.5,174.5C 220.275,171.395 223.608,169.062 227.5,167.5 Z"/></g>
<g><path style="opacity:0.447" fill="#314e54" d="M 455.5,168.5 C 454.54,173.086 452.54,177.086 449.5,180.5C 450.992,176.182 452.992,172.182 455.5,168.5 Z"/></g>
<g><path style="opacity:0.491" fill="#314e54" d="M 217.5,174.5 C 214.725,177.605 211.392,179.938 207.5,181.5C 210.275,178.395 213.608,176.062 217.5,174.5 Z"/></g>
<g><path style="opacity:0.5" fill="#314e54" d="M 203.5,184.5 C 199.742,188.592 195.409,191.926 190.5,194.5C 194.258,190.408 198.591,187.074 203.5,184.5 Z"/></g>
<g><path style="opacity:0.533" fill="#314e54" d="M 174.5,207.5 C 171.769,211.234 168.436,214.234 164.5,216.5C 167.231,212.766 170.564,209.766 174.5,207.5 Z"/></g>
<g><path style="opacity:0.528" fill="#314e54" d="M 427.5,212.5 C 423.548,219.453 418.214,225.12 411.5,229.5C 416.861,223.807 422.195,218.14 427.5,212.5 Z"/></g>
<g><path style="opacity:0.462" fill="#314e54" d="M 163.5,217.5 C 156.167,225.5 148.5,233.167 140.5,240.5C 140.369,239.761 140.536,239.094 141,238.5C 148.089,230.906 155.589,223.906 163.5,217.5 Z"/></g>
<g><path style="opacity:0.518" fill="#314e54" d="M 411.5,229.5 C 409.363,232.973 406.363,235.306 402.5,236.5C 405.208,233.791 408.208,231.458 411.5,229.5 Z"/></g>
<g><path style="opacity:0.493" fill="#314e54" d="M 135.5,246.5 C 133.215,250.727 130.215,254.393 126.5,257.5C 128.785,253.273 131.785,249.607 135.5,246.5 Z"/></g>
<g><path style="opacity:0.535" fill="#314e54" d="M 385.5,247.5 C 382.839,250.502 379.505,252.502 375.5,253.5C 378.494,251 381.827,249 385.5,247.5 Z"/></g>
<g><path style="opacity:0.49" fill="#314e54" d="M 339.5,274.5 C 336.024,277.623 332.024,279.957 327.5,281.5C 330.976,278.377 334.976,276.043 339.5,274.5 Z"/></g>
<g><path style="opacity:0.492" fill="#314e54" d="M 327.5,281.5 C 323.677,284.916 319.343,287.582 314.5,289.5C 318.299,286.048 322.632,283.382 327.5,281.5 Z"/></g>
<g><path style="opacity:0.494" fill="#314e54" d="M 110.5,284.5 C 107.629,293.898 103.962,302.898 99.5,311.5C 102.371,302.102 106.038,293.102 110.5,284.5 Z"/></g>
<g><path style="opacity:0.505" fill="#314e54" d="M 314.5,289.5 C 311.35,292.579 307.683,294.913 303.5,296.5C 306.65,293.421 310.317,291.087 314.5,289.5 Z"/></g>
<g><path style="opacity:0.482" fill="#314e54" d="M 303.5,296.5 C 300.725,299.605 297.392,301.938 293.5,303.5C 296.275,300.395 299.608,298.062 303.5,296.5 Z"/></g>
<g><path style="opacity:0.488" fill="#314e54" d="M 274.5,317.5 C 272.051,320.556 269.051,322.889 265.5,324.5C 267.949,321.444 270.949,319.111 274.5,317.5 Z"/></g>
<g><path style="opacity:0.474" fill="#314e54" d="M 96.5,318.5 C 95.2895,323.251 93.2895,327.584 90.5,331.5C 91.7105,326.749 93.7105,322.416 96.5,318.5 Z"/></g>
<g><path style="opacity:0.502" fill="#314e54" d="M 258.5,330.5 C 256.1,333.903 253.1,336.57 249.5,338.5C 251.9,335.097 254.9,332.43 258.5,330.5 Z"/></g>
<g><path style="opacity:0.534" fill="#314e54" d="M 87.5,337.5 C 83.5406,348.086 78.5406,358.086 72.5,367.5C 76.9921,357.182 81.9921,347.182 87.5,337.5 Z"/></g>
<g><path style="opacity:0.481" fill="#314e54" d="M 249.5,338.5 C 241.167,347.5 232.5,356.167 223.5,364.5C 223.369,363.761 223.536,363.094 224,362.5C 232.088,353.907 240.588,345.907 249.5,338.5 Z"/></g>
<g><path style="opacity:0.498" fill="#314e54" d="M 72.5,367.5 C 70.9259,372.32 68.5926,376.653 65.5,380.5C 67.0741,375.68 69.4074,371.347 72.5,367.5 Z"/></g>
<g><path style="opacity:0.498" fill="#314e54" d="M 64.5,382.5 C 62.5095,388.489 59.5095,393.823 55.5,398.5C 57.9969,392.835 60.9969,387.502 64.5,382.5 Z"/></g>
<g><path style="opacity:0.566" fill="#314e54" d="M 192.5,401.5 C 187.893,407.776 182.559,413.443 176.5,418.5C 181.107,412.224 186.441,406.557 192.5,401.5 Z"/></g>
<g><path style="opacity:0.486" fill="#314e54" d="M 44.5,417.5 C 42.2513,423.005 39.2513,428.005 35.5,432.5C 37.7487,426.995 40.7487,421.995 44.5,417.5 Z"/></g>
<g><path style="opacity:0.483" fill="#314e54" d="M 173.5,421.5 C 171.1,424.903 168.1,427.57 164.5,429.5C 166.9,426.097 169.9,423.43 173.5,421.5 Z"/></g>
<g><path style="opacity:0.512" fill="#314e54" d="M 156.5,436.5 C 154.051,439.556 151.051,441.889 147.5,443.5C 149.949,440.444 152.949,438.111 156.5,436.5 Z"/></g>
<g><path style="opacity:0.502" fill="#314e54" d="M 147.5,443.5 C 139.665,450.663 130.998,456.663 121.5,461.5C 129.886,455.117 138.553,449.117 147.5,443.5 Z"/></g>
<g><path style="opacity:0.496" fill="#314e54" d="M 121.5,461.5 C 118.024,464.623 114.024,466.957 109.5,468.5C 112.976,465.377 116.976,463.043 121.5,461.5 Z"/></g>
<g><path style="opacity:0.484" fill="#314e54" d="M 15.5,464.5 C 12.5777,470.686 8.911,476.352 4.5,481.5C 7.42233,475.314 11.089,469.648 15.5,464.5 Z"/></g>
<g><path style="opacity:0.442" fill="#314e54" d="M 109.5,468.5 C 103.419,472.874 96.7524,476.207 89.5,478.5C 95.849,474.659 102.516,471.325 109.5,468.5 Z"/></g>
<g><path style="opacity:0.52" fill="#314e54" d="M 82.5,481.5 C 77.8954,484.296 72.8954,486.296 67.5,487.5C 72.117,484.734 77.117,482.734 82.5,481.5 Z"/></g>
<g><path style="opacity:0.605" fill="#314e54" d="M 2.5,484.5 C -0.0892804,489.233 -0.0892804,493.9 2.5,498.5C 1.5,497.833 0.5,497.167 -0.5,496.5C -0.5,493.5 -0.5,490.5 -0.5,487.5C 0.271873,486.306 1.27187,485.306 2.5,484.5 Z"/></g>
<g><path style="opacity:0.518" fill="#314e54" d="M 55.5,491.5 C 48.2176,494.572 40.551,496.572 32.5,497.5C 39.9461,495.054 47.6128,493.054 55.5,491.5 Z"/></g>
<g><path style="opacity:0.461" fill="#314e54" d="M 2.5,498.5 C 4.99733,499.743 7.66399,500.41 10.5,500.5C 14.1452,499.884 17.8119,499.55 21.5,499.5C 16.4105,501.242 11.0772,501.742 5.5,501C 4.05773,500.623 3.05773,499.79 2.5,498.5 Z"/></g>
</svg>
