<?xml version="1.0" encoding="UTF-8"?>
<!DOCTYPE svg PUBLIC "-//W3C//DTD SVG 1.1//EN" "http://www.w3.org/Graphics/SVG/1.1/DTD/svg11.dtd">
<svg xmlns="http://www.w3.org/2000/svg" version="1.1" width="512px" height="512px" style="shape-rendering:geometricPrecision; text-rendering:geometricPrecision; image-rendering:optimizeQuality; fill-rule:evenodd; clip-rule:evenodd" xmlns:xlink="http://www.w3.org/1999/xlink">
<g><path style="opacity:0.976" fill="#030201" d="M 235.5,-0.5 C 247.5,-0.5 259.5,-0.5 271.5,-0.5C 283.604,0.281002 286.604,5.94767 280.5,16.5C 316.87,26.7031 340.036,50.0364 350,86.5C 355.079,81.274 360.079,81.274 365,86.5C 370.5,128.006 363.5,167.339 344,204.5C 341.358,207.029 338.192,208.029 334.5,207.5C 330.76,204.357 329.593,200.357 331,195.5C 346.045,166.988 352.712,136.655 351,104.5C 262.833,166.667 174.667,228.833 86.5,291C 77.961,294.451 73.7943,291.618 74,282.5C 132.72,199.287 191.22,115.954 249.5,32.5C 253.691,26.6453 258.024,20.812 262.5,15C 239.508,13.8882 217.175,17.2215 195.5,25C 123.584,53.5792 70.0843,102.413 35,171.5C 20.3993,201.172 13.7326,232.505 15,265.5C 17.3718,277.399 19.2051,289.399 20.5,301.5C 20.3333,304.5 20.1667,307.5 20,310.5C 14.0399,323.598 16.2066,335.098 26.5,345C 32.2489,348.799 38.5823,350.466 45.5,350C 48.0226,351.36 50.0226,353.193 51.5,355.5C 51.1214,362.044 47.6214,365.378 41,365.5C 16.877,362.878 3.71029,349.544 1.5,325.5C 2.20319,317.392 3.53652,309.392 5.5,301.5C 3.77925,291.309 1.77925,281.309 -0.5,271.5C -0.5,259.5 -0.5,247.5 -0.5,235.5C 6.06028,194.707 21.2269,157.374 45,123.5C 82.5092,70.9839 131.343,33.1506 191.5,10C 206.009,5.26973 220.676,1.76973 235.5,-0.5 Z"/></g>
<g><path style="opacity:0.999" fill="#fccf8b" d="M 249.5,32.5 C 231.042,32.4353 213.042,35.9353 195.5,43C 127.013,71.8195 77.1798,119.986 46,187.5C 36.5162,208.458 31.6828,230.458 31.5,253.5C 32.8579,269.592 34.8579,285.592 37.5,301.5C 37.6497,309.585 36.3164,317.418 33.5,325C 34.0784,329.746 36.7451,332.246 41.5,332.5C 49.1916,330.357 57.0249,329.024 65,328.5C 73.9592,329.137 82.7926,330.47 91.5,332.5C 83.0116,337.987 76.6782,345.321 72.5,354.5C 65.5666,353.158 58.5666,353.492 51.5,355.5C 50.0226,353.193 48.0226,351.36 45.5,350C 38.5823,350.466 32.2489,348.799 26.5,345C 16.2066,335.098 14.0399,323.598 20,310.5C 20.1667,307.5 20.3333,304.5 20.5,301.5C 19.2051,289.399 17.3718,277.399 15,265.5C 13.7326,232.505 20.3993,201.172 35,171.5C 70.0843,102.413 123.584,53.5792 195.5,25C 217.175,17.2215 239.508,13.8882 262.5,15C 258.024,20.812 253.691,26.6453 249.5,32.5 Z"/></g>
<g><path style="opacity:1" fill="#fedf9b" d="M 249.5,32.5 C 191.22,115.954 132.72,199.287 74,282.5C 73.7943,291.618 77.961,294.451 86.5,291C 174.667,228.833 262.833,166.667 351,104.5C 352.712,136.655 346.045,166.988 331,195.5C 329.593,200.357 330.76,204.357 334.5,207.5C 330.997,212.502 327.997,217.835 325.5,223.5C 278.547,221.325 233.547,229.492 190.5,248C 154.485,263.574 126.318,288.074 106,321.5C 102.122,326.56 97.2887,330.226 91.5,332.5C 82.7926,330.47 73.9592,329.137 65,328.5C 57.0249,329.024 49.1916,330.357 41.5,332.5C 36.7451,332.246 34.0784,329.746 33.5,325C 36.3164,317.418 37.6497,309.585 37.5,301.5C 34.8579,285.592 32.8579,269.592 31.5,253.5C 31.6828,230.458 36.5162,208.458 46,187.5C 77.1798,119.986 127.013,71.8195 195.5,43C 213.042,35.9353 231.042,32.4353 249.5,32.5 Z"/></g>
<g><path style="opacity:1" fill="#b6e87a" d="M 286.5,35.5 C 259.497,73.3432 232.664,111.343 206,149.5C 205,158.163 208.833,161.663 217.5,160C 254.325,133.754 291.325,107.754 328.5,82C 329.823,81.1841 330.489,80.0174 330.5,78.5C 332.92,83.826 334.586,89.4926 335.5,95.5C 335.471,97.0293 334.804,98.196 333.5,99C 260.07,150.131 186.904,201.631 114,253.5C 114.044,251.721 114.711,250.055 116,248.5C 166.667,176.5 217.333,104.5 268,32.5C 274.29,32.1055 280.457,33.1055 286.5,35.5 Z"/></g>
<g><path style="opacity:1" fill="#d3ee7a" d="M 286.5,35.5 C 307.768,43.102 322.435,57.4353 330.5,78.5C 330.489,80.0174 329.823,81.1841 328.5,82C 291.325,107.754 254.325,133.754 217.5,160C 208.833,161.663 205,158.163 206,149.5C 232.664,111.343 259.497,73.3432 286.5,35.5 Z"/></g>
<g><path style="opacity:0.98" fill="#030302" d="M 325.5,223.5 C 379.578,225.027 428.911,240.861 473.5,271C 487.083,281.248 498.583,293.415 508,307.5C 508.484,309.913 508.15,312.246 507,314.5C 504.104,316.609 500.938,318.109 497.5,319C 504.447,330.022 509.114,341.855 511.5,354.5C 511.5,363.167 511.5,371.833 511.5,380.5C 509.114,393.145 504.447,404.978 497.5,416C 500.938,416.891 504.104,418.391 507,420.5C 509,423.833 509,427.167 507,430.5C 481.748,461.724 449.914,483.557 411.5,496C 386.934,503.946 361.934,509.112 336.5,511.5C 319.5,511.5 302.5,511.5 285.5,511.5C 236.396,507.854 191.396,492.354 150.5,465C 132.091,451.261 117.257,434.428 106,414.5C 100.332,407.754 93.499,402.587 85.5,399C 71.9616,386.882 67.6282,372.049 72.5,354.5C 76.6782,345.321 83.0116,337.987 91.5,332.5C 97.2887,330.226 102.122,326.56 106,321.5C 126.318,288.074 154.485,263.574 190.5,248C 233.547,229.492 278.547,221.325 325.5,223.5 Z"/></g>
<g><path style="opacity:1" fill="#fed08c" d="M 279.5,348.5 C 273.833,349.167 268.167,349.833 262.5,350.5C 261.303,346.647 258.637,344.647 254.5,344.5C 224.856,349.806 195.19,354.973 165.5,360C 157.911,364.529 157.578,369.529 164.5,375C 264.192,392.171 363.859,409.337 463.5,426.5C 463.918,427.222 464.584,427.722 465.5,428C 449.938,442.199 432.271,453.199 412.5,461C 354.494,482.323 295.494,485.323 235.5,470C 207.328,462.249 181.994,449.249 159.5,431C 147.42,419.261 137.253,406.094 129,391.5C 121.532,383.693 113.199,377.027 104,371.5C 103.333,368.833 103.333,366.167 104,363.5C 121.104,353.729 134.104,340.063 143,322.5C 148.926,317.243 153.26,310.91 156,303.5C 156.687,297.796 156.521,292.13 155.5,286.5C 181.796,266.859 211.13,253.359 243.5,246C 305.399,232.297 365.732,237.297 424.5,261C 448.2,271.045 468.866,285.378 486.5,304C 418.778,315.676 351.111,327.676 283.5,340C 280.679,342.141 279.346,344.975 279.5,348.5 Z"/></g>
<g><path style="opacity:1" fill="#f8bb7e" d="M 155.5,286.5 C 156.521,292.13 156.687,297.796 156,303.5C 153.26,310.91 148.926,317.243 143,322.5C 134.104,340.063 121.104,353.729 104,363.5C 103.333,366.167 103.333,368.833 104,371.5C 113.199,377.027 121.532,383.693 129,391.5C 137.253,406.094 147.42,419.261 159.5,431C 181.994,449.249 207.328,462.249 235.5,470C 295.494,485.323 354.494,482.323 412.5,461C 432.271,453.199 449.938,442.199 465.5,428C 464.584,427.722 463.918,427.222 463.5,426.5C 471.154,427.998 478.82,429.498 486.5,431C 463.151,454.85 435.485,471.85 403.5,482C 333.054,504.024 263.721,501.024 195.5,473C 161.971,458.827 136.138,435.994 118,404.5C 111.93,396.756 104.43,390.923 95.5,387C 84.8986,376.073 83.7319,364.24 92,351.5C 99.5105,346.411 106.844,341.078 114,335.5C 120.611,325.223 127.611,315.223 135,305.5C 141.403,298.593 148.236,292.26 155.5,286.5 Z"/></g>
<g><path style="opacity:1" fill="#95d679" d="M 489.5,336.5 C 442.69,343.877 396.024,352.044 349.5,361C 346.606,363.909 345.773,367.409 347,371.5C 348.637,373.81 350.804,375.31 353.5,376C 395.504,383.334 437.504,390.667 479.5,398C 482.817,398.498 486.15,398.665 489.5,398.5C 486.86,404.816 483.026,410.149 478,414.5C 389.189,398.948 300.355,383.448 211.5,368C 226.983,364.473 242.65,361.473 258.5,359C 261.844,357.106 263.178,354.273 262.5,350.5C 268.167,349.833 273.833,349.167 279.5,348.5C 282.492,353.257 286.825,354.757 292.5,353C 353.622,342.23 414.789,331.73 476,321.5C 477.764,321.544 479.431,321.878 481,322.5C 484.096,327.028 486.929,331.695 489.5,336.5 Z"/></g>
<g><path style="opacity:1" fill="#b7ea7b" d="M 489.5,336.5 C 498.717,357.152 498.717,377.819 489.5,398.5C 486.15,398.665 482.817,398.498 479.5,398C 437.504,390.667 395.504,383.334 353.5,376C 350.804,375.31 348.637,373.81 347,371.5C 345.773,367.409 346.606,363.909 349.5,361C 396.024,352.044 442.69,343.877 489.5,336.5 Z"/></g>
</svg>
