<?xml version="1.0" encoding="UTF-8"?>
<!DOCTYPE svg PUBLIC "-//W3C//DTD SVG 1.1//EN" "http://www.w3.org/Graphics/SVG/1.1/DTD/svg11.dtd">
<svg xmlns="http://www.w3.org/2000/svg" version="1.1" width="512px" height="512px" style="shape-rendering:geometricPrecision; text-rendering:geometricPrecision; image-rendering:optimizeQuality; fill-rule:evenodd; clip-rule:evenodd" xmlns:xlink="http://www.w3.org/1999/xlink">
<g><path style="opacity:0.979" fill="#010100" d="M 342.5,-0.5 C 345.5,-0.5 348.5,-0.5 351.5,-0.5C 353.807,0.977392 355.64,2.97739 357,5.5C 362.983,43.1272 375.983,78.1272 396,110.5C 396.023,89.7443 396.689,69.0776 398,48.5C 404.689,41.6449 411.023,41.9782 417,49.5C 441.851,90.0525 455.851,134.053 459,181.5C 460.158,177.203 461.158,172.869 462,168.5C 462.901,157.482 463.901,146.482 465,135.5C 468.699,130.728 473.533,129.228 479.5,131C 501.775,153.153 510.941,179.986 507,211.5C 506.105,220.64 504.439,229.64 502,238.5C 497.043,253.737 491.543,268.737 485.5,283.5C 485.667,284.5 485.833,285.5 486,286.5C 490.432,278.035 497.265,274.535 506.5,276C 508.362,277.366 510.028,278.866 511.5,280.5C 511.5,284.167 511.5,287.833 511.5,291.5C 502.398,331.315 486.231,367.982 463,401.5C 444.444,425.275 420.777,441.608 392,450.5C 387.224,450.209 384.057,447.876 382.5,443.5C 381.553,438.777 382.886,434.944 386.5,432C 428.984,414.498 454.151,382.998 462,337.5C 472.253,272.519 458.586,213.186 421,159.5C 408.743,143.632 393.576,131.465 375.5,123C 351.882,114.115 329.215,116.115 307.5,129C 287.476,142.355 271.643,159.522 260,180.5C 232.962,229.727 223.962,282.061 233,337.5C 239.173,373.622 257.34,401.789 287.5,422C 294.77,425.214 301.603,429.047 308,433.5C 309.149,436.393 309.649,439.393 309.5,442.5C 307.639,446.777 304.306,449.11 299.5,449.5C 271.077,439.4 247.744,422.4 229.5,398.5C 224.766,390.037 219.766,381.704 214.5,373.5C 209.894,364.622 205.561,355.622 201.5,346.5C 193.468,326.71 187.135,306.377 182.5,285.5C 185.518,275.159 191.518,272.993 200.5,279C 203.349,282.016 206.349,284.85 209.5,287.5C 211.768,280.798 210.268,275.131 205,270.5C 187.603,234.912 184.936,198.245 197,160.5C 201.038,149.584 207.204,140.084 215.5,132C 221.979,129.493 226.812,131.326 230,137.5C 229.962,152.792 231.962,167.792 236,182.5C 237.81,153.457 243.977,125.29 254.5,98C 240.808,86.6566 225.142,79.3232 207.5,76C 150.616,65.869 107.45,85.369 78,134.5C 74.2683,141.96 71.1016,149.626 68.5,157.5C 60.8162,176.7 51.1495,194.867 39.5,212C 42.6228,211.279 45.6228,209.946 48.5,208C 63.2995,196.701 76.6328,183.867 88.5,169.5C 93.0269,164.859 98.0269,164.359 103.5,168C 107.325,172.633 107.491,177.467 104,182.5C 97.1831,190.618 90.0165,198.451 82.5,206C 74.8096,212.031 67.4763,218.365 60.5,225C 61.8204,245.755 64.8204,266.255 69.5,286.5C 68.9782,317.468 66.1449,348.134 61,378.5C 65.0635,372.764 68.7302,366.764 72,360.5C 83.9014,335.695 96.5681,311.361 110,287.5C 113.243,282.172 117.076,277.339 121.5,273C 124.555,272.366 127.555,272.532 130.5,273.5C 135.03,276.283 136.53,280.283 135,285.5C 121.898,306.028 110.065,327.361 99.5,349.5C 109.811,365.644 122.977,378.978 139,389.5C 138.558,371.601 140.224,353.934 144,336.5C 150.425,327.273 156.758,327.273 163,336.5C 163.495,339.531 163.329,342.531 162.5,345.5C 156.188,372.053 158.021,398.053 168,423.5C 172.231,433.627 176.731,443.627 181.5,453.5C 190.32,436.524 197.487,418.857 203,400.5C 205.824,397.502 209.324,396.168 213.5,396.5C 216.784,398.117 219.451,400.45 221.5,403.5C 220.339,413.487 217.839,423.154 214,432.5C 207.449,446.268 201.449,460.268 196,474.5C 193.573,485.058 191.907,495.724 191,506.5C 189.634,508.362 188.134,510.028 186.5,511.5C 183.5,511.5 180.5,511.5 177.5,511.5C 175.193,510.023 173.36,508.023 172,505.5C 171.383,494.662 169.717,483.995 167,473.5C 158.482,454.447 150.649,435.114 143.5,415.5C 122.391,405.227 104.724,390.727 90.5,372C 85.9062,376.933 82.0728,382.766 79,389.5C 72.1448,400.348 63.9781,410.182 54.5,419C 48.9897,423.168 42.9897,426.502 36.5,429C 26.3333,430.167 21.8333,425.667 23,415.5C 33.61,401.693 39.9433,386.027 42,368.5C 46.7617,341.359 49.0951,314.026 49,286.5C 45.1813,269.583 42.0146,252.583 39.5,235.5C 27.1773,240.512 14.844,240.678 2.5,236C 1.36362,234.855 0.363622,233.688 -0.5,232.5C -0.5,229.5 -0.5,226.5 -0.5,223.5C 5.41077,218.768 11.2441,213.768 17,208.5C 34.3333,183.836 48,157.169 58,128.5C 69.4259,105.744 85.7592,87.4104 107,73.5C 104.31,54.7033 106.976,36.7033 115,19.5C 119.164,14.289 124.33,13.1223 130.5,16C 142.347,35.4913 159.514,47.658 182,52.5C 200.04,48.9833 215.04,40.3167 227,26.5C 228.886,22.5598 231.386,19.0598 234.5,16C 240.67,13.1223 245.836,14.289 250,19.5C 258.054,37.0356 260.72,55.369 258,74.5C 259.255,75.2106 260.421,76.044 261.5,77C 262.332,77.6877 262.998,77.521 263.5,76.5C 268.238,65.3476 274.238,55.0142 281.5,45.5C 287.517,42.1923 292.684,43.1923 297,48.5C 298.311,69.0776 298.977,89.7443 299,110.5C 321.544,78.7328 334.544,43.3995 338,4.5C 339.366,2.63834 340.866,0.971672 342.5,-0.5 Z"/></g>
<g><path style="opacity:1" fill="#9cd063" d="M 127.5,46.5 C 132.339,50.5008 137.339,54.3341 142.5,58C 137.244,60.1407 131.91,61.9741 126.5,63.5C 126.375,57.7969 126.708,52.1302 127.5,46.5 Z"/></g>
<g><path style="opacity:1" fill="#9ace62" d="M 236.5,46.5 C 238.479,52.2858 238.812,58.2858 237.5,64.5C 232.204,62.568 226.871,60.7346 221.5,59C 226.982,55.3455 231.982,51.1789 236.5,46.5 Z"/></g>
<g><path style="opacity:1" fill="#a0d666" d="M 347.5,59.5 C 348.75,59.5774 349.583,60.244 350,61.5C 354.547,74.426 360.047,86.926 366.5,99C 360.251,98.136 353.918,97.636 347.5,97.5C 342.151,97.7007 336.818,98.034 331.5,98.5C 337.612,85.8342 342.945,72.8342 347.5,59.5 Z"/></g>
<g><path style="opacity:1" fill="#fd5959" d="M 201.5,346.5 C 188.692,337.759 175.692,337.425 162.5,345.5C 163.329,342.531 163.495,339.531 163,336.5C 156.758,327.273 150.425,327.273 144,336.5C 140.224,353.934 138.558,371.601 139,389.5C 122.977,378.978 109.811,365.644 99.5,349.5C 110.065,327.361 121.898,306.028 135,285.5C 136.53,280.283 135.03,276.283 130.5,273.5C 129.883,271.771 128.883,270.271 127.5,269C 124.5,268.333 121.5,268.333 118.5,269C 106.516,272.33 94.5162,275.663 82.5,279C 77.8445,280.993 73.5112,283.493 69.5,286.5C 64.8204,266.255 61.8204,245.755 60.5,225C 67.4763,218.365 74.8096,212.031 82.5,206C 90.0165,198.451 97.1831,190.618 104,182.5C 107.491,177.467 107.325,172.633 103.5,168C 98.0269,164.359 93.0269,164.859 88.5,169.5C 84.599,160.939 77.9324,156.939 68.5,157.5C 71.1016,149.626 74.2683,141.96 78,134.5C 107.45,85.369 150.616,65.869 207.5,76C 225.142,79.3232 240.808,86.6566 254.5,98C 243.977,125.29 237.81,153.457 236,182.5C 231.962,167.792 229.962,152.792 230,137.5C 226.812,131.326 221.979,129.493 215.5,132C 207.204,140.084 201.038,149.584 197,160.5C 184.936,198.245 187.603,234.912 205,270.5C 210.268,275.131 211.768,280.798 209.5,287.5C 206.349,284.85 203.349,282.016 200.5,279C 191.518,272.993 185.518,275.159 182.5,285.5C 187.135,306.377 193.468,326.71 201.5,346.5 Z"/></g>
<g><path style="opacity:1" fill="#4c6530" d="M 277.5,126.5 C 277.827,116.652 277.494,106.986 276.5,97.5C 276.461,96.2438 276.961,95.2438 278,94.5C 278.825,105.341 278.659,116.008 277.5,126.5 Z"/></g>
<g><path style="opacity:1" fill="#4c6530" d="M 418.5,97.5 C 417.506,106.986 417.173,116.652 417.5,126.5C 416.341,116.008 416.175,105.341 417,94.5C 418.039,95.2438 418.539,96.2438 418.5,97.5 Z"/></g>
<g><path style="opacity:1" fill="#040101" d="M 164.5,105.5 C 164.842,106.338 165.508,106.672 166.5,106.5C 171.801,110.466 176.801,114.8 181.5,119.5C 185.942,114.716 190.942,110.716 196.5,107.5C 197.5,107.167 198.167,106.5 198.5,105.5C 203.594,102.923 208.594,100.089 213.5,97C 223.553,95.3905 228.053,99.5572 227,109.5C 225.878,111.624 224.378,113.457 222.5,115C 213.787,119.717 205.621,125.217 198,131.5C 194.264,138.766 191.598,146.432 190,154.5C 184.942,159.383 179.609,159.716 174,155.5C 172.615,145.94 169.115,137.273 163.5,129.5C 156.171,124.167 148.504,119.333 140.5,115C 134.302,109.631 133.968,103.964 139.5,98C 143.471,96.0873 147.471,96.0873 151.5,98C 155.888,100.523 160.222,103.023 164.5,105.5 Z"/></g>
<g><path style="opacity:1" fill="#9cd163" d="M 276.5,97.5 C 277.494,106.986 277.827,116.652 277.5,126.5C 272.534,131.301 267.7,136.301 263,141.5C 265.635,126.3 270.135,111.633 276.5,97.5 Z"/></g>
<g><path style="opacity:1" fill="#9cd163" d="M 418.5,97.5 C 424.865,111.633 429.365,126.3 432,141.5C 427.3,136.301 422.466,131.301 417.5,126.5C 417.173,116.652 417.506,106.986 418.5,97.5 Z"/></g>
<g><path style="opacity:1" fill="#cf925e" d="M 164.5,105.5 C 175.833,105.5 187.167,105.5 198.5,105.5C 198.167,106.5 197.5,107.167 196.5,107.5C 186.681,106.506 176.681,106.173 166.5,106.5C 165.508,106.672 164.842,106.338 164.5,105.5 Z"/></g>
<g><path style="opacity:1" fill="#9fd465" d="M 166.5,106.5 C 176.681,106.173 186.681,106.506 196.5,107.5C 190.942,110.716 185.942,114.716 181.5,119.5C 176.801,114.8 171.801,110.466 166.5,106.5 Z"/></g>
<g><path style="opacity:0.998" fill="#fa8989" d="M 382.5,443.5 C 374.621,445.48 366.621,446.813 358.5,447.5C 354.357,436.508 347.857,434.841 339,442.5C 338.648,444.247 338.148,445.914 337.5,447.5C 327.94,446.907 318.607,445.24 309.5,442.5C 309.649,439.393 309.149,436.393 308,433.5C 301.603,429.047 294.77,425.214 287.5,422C 257.34,401.789 239.173,373.622 233,337.5C 223.962,282.061 232.962,229.727 260,180.5C 271.643,159.522 287.476,142.355 307.5,129C 329.215,116.115 351.882,114.115 375.5,123C 393.576,131.465 408.743,143.632 421,159.5C 458.586,213.186 472.253,272.519 462,337.5C 454.151,382.998 428.984,414.498 386.5,432C 382.886,434.944 381.553,438.777 382.5,443.5 Z"/></g>
<g><path style="opacity:1" fill="#040202" d="M 338.5,133.5 C 358.296,132.276 375.63,138.109 390.5,151C 411.264,170.444 426.431,193.611 436,220.5C 449.218,258.014 452.552,296.347 446,335.5C 433.009,396.149 395.509,424.649 333.5,421C 297.824,416.091 272.657,397.258 258,364.5C 247.139,337.865 243.139,310.199 246,281.5C 248.906,241.108 261.906,204.441 285,171.5C 294.287,159.876 305.12,150.043 317.5,142C 324.382,138.548 331.382,135.715 338.5,133.5 Z"/></g>
<g><path style="opacity:1" fill="#fcfcfc" d="M 340.5,153.5 C 351.281,152.715 361.281,155.215 370.5,161C 389.524,175.702 403.69,194.202 413,216.5C 431.787,260.579 434.453,305.579 421,351.5C 409.807,380.683 388.641,397.183 357.5,401C 308.669,403.835 279.169,381.335 269,333.5C 259.147,276.59 271.147,224.923 305,178.5C 314.563,166.743 326.397,158.41 340.5,153.5 Z"/></g>
<g><path style="opacity:1" fill="#a2d767" d="M 68.5,157.5 C 77.9324,156.939 84.599,160.939 88.5,169.5C 76.6328,183.867 63.2995,196.701 48.5,208C 45.6228,209.946 42.6228,211.279 39.5,212C 51.1495,194.867 60.8162,176.7 68.5,157.5 Z"/></g>
<g><path style="opacity:1" fill="#090909" d="M 344.5,168.5 C 354.191,169.338 357.691,174.338 355,183.5C 349.83,189.67 344.33,190.004 338.5,184.5C 334.443,176.732 336.443,171.399 344.5,168.5 Z"/></g>
<g><path style="opacity:1" fill="#9dd164" d="M 482.5,172.5 C 486.087,180.671 487.754,189.337 487.5,198.5C 487.524,212.73 484.857,226.397 479.5,239.5C 476.59,229.102 473.257,218.769 469.5,208.5C 475.429,197.044 479.762,185.044 482.5,172.5 Z"/></g>
<g><path style="opacity:1" fill="#9ed365" d="M 212.5,175.5 C 215.82,186.774 220.153,197.774 225.5,208.5C 221.308,219.959 217.808,231.625 215,243.5C 208.76,221.035 207.926,198.369 212.5,175.5 Z"/></g>
<g><path style="opacity:1" fill="#070707" d="M 311.5,206.5 C 321.823,204.992 326.323,209.325 325,219.5C 322.081,225.025 317.581,226.858 311.5,225C 306.782,221.657 305.282,217.157 307,211.5C 308.025,209.313 309.525,207.646 311.5,206.5 Z"/></g>
<g><path style="opacity:1" fill="#050505" d="M 372.5,206.5 C 382.823,204.992 387.323,209.325 386,219.5C 383.081,225.025 378.581,226.858 372.5,225C 365.85,218.713 365.85,212.546 372.5,206.5 Z"/></g>
<g><path style="opacity:1" fill="#090909" d="M 288.5,237.5 C 298.492,236.327 302.992,240.66 302,250.5C 299.081,256.025 294.581,257.858 288.5,256C 280.547,249.836 280.547,243.669 288.5,237.5 Z"/></g>
<g><path style="opacity:1" fill="#080808" d="M 342.5,237.5 C 352.046,236.224 356.546,240.224 356,249.5C 353.611,255.777 349.111,257.943 342.5,256C 334.55,249.748 334.55,243.581 342.5,237.5 Z"/></g>
<g><path style="opacity:1" fill="#090909" d="M 398.5,237.5 C 408.492,236.327 412.992,240.66 412,250.5C 409.081,256.025 404.581,257.858 398.5,256C 390.547,249.836 390.547,243.669 398.5,237.5 Z"/></g>
<g><path style="opacity:1" fill="#0d0403" d="M 147.5,250.5 C 158.597,250.077 162.763,255.077 160,265.5C 153.127,272.576 147.127,271.91 142,263.5C 140.571,257.7 142.404,253.367 147.5,250.5 Z"/></g>
<g><path style="opacity:1" fill="#a2d767" d="M 130.5,273.5 C 127.555,272.532 124.555,272.366 121.5,273C 117.076,277.339 113.243,282.172 110,287.5C 96.5681,311.361 83.9014,335.695 72,360.5C 68.7302,366.764 65.0635,372.764 61,378.5C 66.1449,348.134 68.9782,317.468 69.5,286.5C 73.5112,283.493 77.8445,280.993 82.5,279C 94.5162,275.663 106.516,272.33 118.5,269C 121.5,268.333 124.5,268.333 127.5,269C 128.883,270.271 129.883,271.771 130.5,273.5 Z"/></g>
<g><path style="opacity:1" fill="#060606" d="M 311.5,270.5 C 321.543,269.378 326.043,273.712 325,283.5C 322.185,289.169 317.685,291.002 311.5,289C 306.78,285.702 305.28,281.202 307,275.5C 308.366,273.638 309.866,271.972 311.5,270.5 Z"/></g>
<g><path style="opacity:1" fill="#050505" d="M 372.5,270.5 C 383.041,269.539 387.541,274.205 386,284.5C 382.702,289.22 378.202,290.72 372.5,289C 365.862,282.881 365.862,276.714 372.5,270.5 Z"/></g>
<g><path style="opacity:1" fill="#0c0c0c" d="M 289.5,305.5 C 299.666,305.818 303.5,310.818 301,320.5C 298.103,325.155 293.937,326.655 288.5,325C 280.188,318.058 280.522,311.558 289.5,305.5 Z"/></g>
<g><path style="opacity:1" fill="#0b0b0b" d="M 343.5,305.5 C 355.204,306.254 358.704,311.921 354,322.5C 348.012,327.001 342.679,326.335 338,320.5C 335.873,314.082 337.706,309.082 343.5,305.5 Z"/></g>
<g><path style="opacity:1" fill="#0c0c0c" d="M 399.5,305.5 C 409.666,305.818 413.5,310.818 411,320.5C 408.103,325.155 403.937,326.655 398.5,325C 390.188,318.058 390.522,311.558 399.5,305.5 Z"/></g>
<g><path style="opacity:1" fill="#a3d968" d="M 201.5,346.5 C 205.561,355.622 209.894,364.622 214.5,373.5C 214.111,381.164 213.778,388.83 213.5,396.5C 209.324,396.168 205.824,397.502 203,400.5C 197.487,418.857 190.32,436.524 181.5,453.5C 176.731,443.627 172.231,433.627 168,423.5C 158.021,398.053 156.188,372.053 162.5,345.5C 175.692,337.425 188.692,337.759 201.5,346.5 Z"/></g>
<g><path style="opacity:1" fill="#070707" d="M 312.5,339.5 C 322.462,339.124 326.629,343.791 325,353.5C 319.983,360.307 314.316,360.974 308,355.5C 304.994,348.771 306.494,343.438 312.5,339.5 Z"/></g>
<g><path style="opacity:1" fill="#080808" d="M 373.5,339.5 C 386.046,340.094 389.38,345.927 383.5,357C 378.145,360.79 373.311,360.29 369,355.5C 365.994,348.771 367.494,343.438 373.5,339.5 Z"/></g>
<g><path style="opacity:1" fill="#080808" d="M 343.5,366.5 C 353.462,366.124 357.629,370.791 356,380.5C 350.983,387.307 345.316,387.974 339,382.5C 335.994,375.771 337.494,370.438 343.5,366.5 Z"/></g>
<g><path style="opacity:0.967" fill="#f85958" d="M 214.5,373.5 C 219.766,381.704 224.766,390.037 229.5,398.5C 226.46,399.68 223.794,401.347 221.5,403.5C 219.451,400.45 216.784,398.117 213.5,396.5C 213.778,388.83 214.111,381.164 214.5,373.5 Z"/></g>
<g><path style="opacity:0.94" fill="#030101" d="M 358.5,447.5 C 355.925,457.579 349.925,460.246 340.5,455.5C 338.014,453.422 337.014,450.755 337.5,447.5C 338.148,445.914 338.648,444.247 339,442.5C 347.857,434.841 354.357,436.508 358.5,447.5 Z"/></g>
</svg>
