<?xml version="1.0" encoding="UTF-8"?>
<!DOCTYPE svg PUBLIC "-//W3C//DTD SVG 1.1//EN" "http://www.w3.org/Graphics/SVG/1.1/DTD/svg11.dtd">
<svg xmlns="http://www.w3.org/2000/svg" version="1.1" width="512px" height="512px" style="shape-rendering:geometricPrecision; text-rendering:geometricPrecision; image-rendering:optimizeQuality; fill-rule:evenodd; clip-rule:evenodd" xmlns:xlink="http://www.w3.org/1999/xlink">
<g><path style="opacity:0.984" fill="#030201" d="M 511.5,200.5 C 511.5,205.833 511.5,211.167 511.5,216.5C 507.923,226.586 501.256,234.086 491.5,239C 494.62,245.091 496.287,251.591 496.5,258.5C 503.945,263.414 508.945,270.08 511.5,278.5C 511.5,283.833 511.5,289.167 511.5,294.5C 507.78,304.564 501.114,312.231 491.5,317.5C 494.693,323.754 496.359,330.421 496.5,337.5C 503.945,342.414 508.945,349.08 511.5,357.5C 511.5,362.833 511.5,368.167 511.5,373.5C 507.923,383.586 501.256,391.086 491.5,396C 499.238,412.371 496.238,426.371 482.5,438C 479.382,439.893 476.049,441.226 472.5,442C 458.744,441.939 446.078,445.605 434.5,453C 429.96,454.338 426.293,453.171 423.5,449.5C 422.618,445.091 423.952,441.591 427.5,439C 440.354,430.953 454.354,426.953 469.5,427C 478.129,423.241 481.629,416.741 480,407.5C 477.552,400.353 472.718,397.519 465.5,399C 438.275,414.426 409.275,419.26 378.5,413.5C 367.587,409.885 356.92,405.385 346.5,400C 337.642,397.621 328.642,396.955 319.5,398C 317.277,398.566 315.277,399.4 313.5,400.5C 284.272,416.381 253.606,419.881 221.5,411C 211.5,406.667 201.5,402.333 191.5,398C 184.5,397.333 177.5,397.333 170.5,398C 158.047,403.56 145.381,408.56 132.5,413C 113.413,416.621 94.4125,416.287 75.5,412C 65.2668,408.217 55.2668,403.884 45.5,399C 36.5309,398.119 31.5309,402.286 30.5,411.5C 30.838,419.008 34.5046,424.175 41.5,427C 48.9729,427.057 56.3062,428.057 63.5,430C 73.9641,434.901 84.6308,439.234 95.5,443C 110.242,445.262 124.909,444.928 139.5,442C 151.064,437.05 162.731,432.384 174.5,428C 181.5,427.333 188.5,427.333 195.5,428C 207.713,432.106 219.713,436.773 231.5,442C 246.091,444.928 260.758,445.262 275.5,443C 288.611,438.278 301.611,433.278 314.5,428C 321.167,427.333 327.833,427.333 334.5,428C 348.265,432.715 361.932,437.715 375.5,443C 387.119,444.221 398.785,444.888 410.5,445C 412.464,446.451 413.797,448.284 414.5,450.5C 415.178,454.273 413.844,457.106 410.5,459C 386.005,462.634 363.005,458.301 341.5,446C 331.544,442.325 321.544,441.992 311.5,445C 274.167,465.667 236.833,465.667 199.5,445C 191.496,442.809 183.496,442.476 175.5,444C 167.717,447.058 160.05,450.392 152.5,454C 127.05,462.859 101.716,462.526 76.5,453C 70.0703,449.451 63.4036,446.451 56.5,444C 50.5,443.333 44.5,442.667 38.5,442C 20.4157,436.016 12.9157,423.516 16,404.5C 16.4791,401.376 17.6457,398.543 19.5,396C 9.74371,391.086 3.07704,383.586 -0.5,373.5C -0.5,368.167 -0.5,362.833 -0.5,357.5C 2.05526,349.08 7.05526,342.414 14.5,337.5C 14.6408,330.421 16.3074,323.754 19.5,317.5C 9.88617,312.231 3.2195,304.564 -0.5,294.5C -0.5,289.167 -0.5,283.833 -0.5,278.5C 2.05526,270.08 7.05526,263.414 14.5,258.5C 14.7135,251.591 16.3802,245.091 19.5,239C 9.74371,234.086 3.07704,226.586 -0.5,216.5C -0.5,211.167 -0.5,205.833 -0.5,200.5C 6.47342,181.662 20.1401,173.495 40.5,176C 45.0864,177.018 47.4198,179.851 47.5,184.5C 46.4419,187.397 44.4419,189.564 41.5,191C 36.8452,191.499 32.1785,191.666 27.5,191.5C 17.4056,195.346 13.2389,202.679 15,213.5C 17.5864,219.088 21.7531,222.921 27.5,225C 34.9572,225.137 42.2905,226.137 49.5,228C 57.9507,231.392 66.284,235.059 74.5,239C 91.9039,243.808 109.571,244.808 127.5,242C 139.28,238.444 150.613,233.778 161.5,228C 173.107,225.213 184.774,224.88 196.5,227C 206.5,231.333 216.5,235.667 226.5,240C 241.307,243.391 256.307,244.391 271.5,243C 278.333,241.585 285,239.585 291.5,237C 317.979,221.506 344.313,221.839 370.5,238C 390.937,244.611 411.604,245.277 432.5,240C 442.065,236.551 451.399,232.551 460.5,228C 464.447,226.846 468.447,226.013 472.5,225.5C 483.457,227.439 491.29,223.439 496,213.5C 497.375,197.542 490.042,190.208 474,191.5C 470.317,191.501 466.817,191.835 463.5,192.5C 451.049,194.389 439.382,198.555 428.5,205C 414.433,210.027 400.1,210.861 385.5,207.5C 374.599,201.057 362.933,196.223 350.5,193C 342.227,191.67 333.893,191.17 325.5,191.5C 318.395,191.444 311.395,192.277 304.5,194C 292.047,199.56 279.381,204.56 266.5,209C 256.224,210.289 246.224,209.456 236.5,206.5C 226.39,201.851 216.057,197.684 205.5,194C 195.599,192.016 185.599,191.182 175.5,191.5C 168.695,191.225 162.028,192.058 155.5,194C 145.935,197.449 136.601,201.449 127.5,206C 113.829,210.411 100.162,210.578 86.5,206.5C 78.855,203.012 71.1883,199.512 63.5,196C 60.8144,193.454 59.8144,190.287 60.5,186.5C 61.9761,183.698 64.3094,182.032 67.5,181.5C 75.607,184.719 83.607,188.219 91.5,192C 100.092,194.659 108.758,194.992 117.5,193C 125.951,189.608 134.284,185.941 142.5,182C 150.675,179.365 159.009,177.365 167.5,176C 161.361,165.586 157.195,154.419 155,142.5C 153.478,127.533 153.145,112.533 154,97.5C 154.465,96.0692 155.299,94.9025 156.5,94C 192.52,86.7307 224.687,94.5641 253,117.5C 262.467,94.0316 278.301,76.1982 300.5,64C 308.783,59.4371 317.283,55.6037 326,52.5C 328.981,52.0815 331.314,53.0815 333,55.5C 338.682,66.8644 344.349,78.1978 350,89.5C 360.198,119.349 357.365,147.849 341.5,175C 357.739,177.525 373.072,182.858 387.5,191C 398.045,195.151 408.712,195.485 419.5,192C 439.286,180.387 460.619,175.054 483.5,176C 498.045,178.387 507.378,186.554 511.5,200.5 Z"/></g>
<g><path style="opacity:1" fill="#67b180" d="M 319.5,144.5 C 321.421,140.491 322.588,136.157 323,131.5C 325.162,111.768 321.328,93.4351 311.5,76.5C 314.945,74.2742 318.611,72.2742 322.5,70.5C 331.073,82.9819 336.907,96.6486 340,111.5C 341.94,126.513 340.107,141.013 334.5,155C 334.15,156.257 333.483,156.591 332.5,156C 328.567,151.558 324.233,147.724 319.5,144.5 Z"/></g>
<g><path style="opacity:1" fill="#7fbd94" d="M 311.5,76.5 C 321.328,93.4351 325.162,111.768 323,131.5C 322.588,136.157 321.421,140.491 319.5,144.5C 298.341,135.084 279.841,138.751 264,155.5C 263.091,118.947 278.924,92.6133 311.5,76.5 Z"/></g>
<g><path style="opacity:1" fill="#66af7e" d="M 248.5,155.5 C 244.998,146.418 239.331,138.585 231.5,132C 213.447,117.484 192.78,110.65 169.5,111.5C 169.5,110.167 169.5,108.833 169.5,107.5C 197.527,104.457 222.193,111.957 243.5,130C 245.709,131.873 247.542,134.04 249,136.5C 248.682,142.788 248.516,149.121 248.5,155.5 Z"/></g>
<g><path style="opacity:1" fill="#7fbd94" d="M 169.5,111.5 C 192.78,110.65 213.447,117.484 231.5,132C 239.331,138.585 244.998,146.418 248.5,155.5C 250.205,168.312 252.538,180.979 255.5,193.5C 250.799,194.731 246.132,194.564 241.5,193C 224.416,183.305 206.082,177.639 186.5,176C 172.396,156.834 166.729,135.334 169.5,111.5 Z"/></g>
<g><path style="opacity:1" fill="#cf5f5f" d="M 291.5,154.5 C 308.32,153.071 319.987,160.071 326.5,175.5C 306.597,176.635 288.097,182.301 271,192.5C 267.038,174.095 273.871,161.428 291.5,154.5 Z"/></g>
<g><path style="opacity:1" fill="#f9bf6a" d="M 47.5,184.5 C 51.8595,185.007 56.1928,185.673 60.5,186.5C 59.8144,190.287 60.8144,193.454 63.5,196C 71.1883,199.512 78.855,203.012 86.5,206.5C 78.2794,207.882 69.9461,207.716 61.5,206C 50.4145,200.283 39.0811,195.449 27.5,191.5C 32.1785,191.666 36.8452,191.499 41.5,191C 44.4419,189.564 46.4419,187.397 47.5,184.5 Z"/></g>
<g><path style="opacity:1" fill="#fccd88" d="M 27.5,191.5 C 39.0811,195.449 50.4145,200.283 61.5,206C 69.9461,207.716 78.2794,207.882 86.5,206.5C 100.162,210.578 113.829,210.411 127.5,206C 136.601,201.449 145.935,197.449 155.5,194C 162.028,192.058 168.695,191.225 175.5,191.5C 188.876,196.347 202.209,201.513 215.5,207C 222.679,207.821 229.679,207.655 236.5,206.5C 246.224,209.456 256.224,210.289 266.5,209C 279.381,204.56 292.047,199.56 304.5,194C 311.395,192.277 318.395,191.444 325.5,191.5C 337.296,195.722 348.963,200.556 360.5,206C 368.773,207.33 377.107,207.83 385.5,207.5C 400.1,210.861 414.433,210.027 428.5,205C 439.382,198.555 451.049,194.389 463.5,192.5C 474.593,201.131 477.593,212.131 472.5,225.5C 468.447,226.013 464.447,226.846 460.5,228C 451.399,232.551 442.065,236.551 432.5,240C 411.604,245.277 390.937,244.611 370.5,238C 344.313,221.839 317.979,221.506 291.5,237C 285,239.585 278.333,241.585 271.5,243C 256.307,244.391 241.307,243.391 226.5,240C 216.5,235.667 206.5,231.333 196.5,227C 184.774,224.88 173.107,225.213 161.5,228C 150.613,233.778 139.28,238.444 127.5,242C 109.571,244.808 91.9039,243.808 74.5,239C 66.284,235.059 57.9507,231.392 49.5,228C 42.2905,226.137 34.9572,225.137 27.5,225C 21.7531,222.921 17.5864,219.088 15,213.5C 13.2389,202.679 17.4056,195.346 27.5,191.5 Z"/></g>
<g><path style="opacity:1" fill="#f8be69" d="M 175.5,191.5 C 185.599,191.182 195.599,192.016 205.5,194C 216.057,197.684 226.39,201.851 236.5,206.5C 229.679,207.655 222.679,207.821 215.5,207C 202.209,201.513 188.876,196.347 175.5,191.5 Z"/></g>
<g><path style="opacity:1" fill="#f8be69" d="M 325.5,191.5 C 333.893,191.17 342.227,191.67 350.5,193C 362.933,196.223 374.599,201.057 385.5,207.5C 377.107,207.83 368.773,207.33 360.5,206C 348.963,200.556 337.296,195.722 325.5,191.5 Z"/></g>
<g><path style="opacity:1" fill="#f9bf69" d="M 472.5,225.5 C 477.593,212.131 474.593,201.131 463.5,192.5C 466.817,191.835 470.317,191.501 474,191.5C 490.042,190.208 497.375,197.542 496,213.5C 491.29,223.439 483.457,227.439 472.5,225.5 Z"/></g>
<g><path style="opacity:1" fill="#c58558" d="M 170.5,240.5 C 178.228,240.189 185.895,240.689 193.5,242C 201.283,245.058 208.95,248.392 216.5,252C 241.366,260.308 266.366,260.641 291.5,253C 300.833,249 310.167,245 319.5,241C 328.642,239.955 337.642,240.621 346.5,243C 375.28,259.235 405.613,262.902 437.5,254C 447.973,249.677 458.473,245.51 469,241.5C 476.386,242.891 480.219,247.391 480.5,255C 480.149,261.041 477.482,265.708 472.5,269C 464.109,269.91 455.776,271.243 447.5,273C 440.167,276.333 432.833,279.667 425.5,283C 419.68,285.163 413.68,286.496 407.5,287C 397.833,287.667 388.167,287.667 378.5,287C 373.744,285.978 369.077,284.644 364.5,283C 356.064,278.782 347.398,275.115 338.5,272C 329.491,270.101 320.491,270.101 311.5,272C 303.586,274.75 295.919,278.083 288.5,282C 259.629,291.628 231.962,288.961 205.5,274C 193.244,269.938 180.91,269.604 168.5,273C 158.234,278.311 147.568,282.644 136.5,286C 124.209,287.536 111.876,287.87 99.5,287C 93.5997,286.108 87.933,284.442 82.5,282C 69.6618,273.965 55.6618,269.965 40.5,270C 34.0431,266.934 30.7097,261.768 30.5,254.5C 31.8655,243.933 37.5321,240.1 47.5,243C 75.1709,259.033 104.504,263.033 135.5,255C 147.485,250.666 159.151,245.833 170.5,240.5 Z"/></g>
<g><path style="opacity:1" fill="#0a0604" d="M 178.5,252.5 C 183.297,252.121 187.964,252.621 192.5,254C 195.886,257.373 196.386,261.206 194,265.5C 191.072,267.038 187.906,267.704 184.5,267.5C 176.198,268.961 172.698,265.628 174,257.5C 175.025,255.313 176.525,253.646 178.5,252.5 Z"/></g>
<g><path style="opacity:1" fill="#0a0604" d="M 318.5,252.5 C 323.297,252.121 327.964,252.621 332.5,254C 335.769,257.453 336.269,261.286 334,265.5C 331.072,267.038 327.906,267.704 324.5,267.5C 315.665,268.832 312.165,265.166 314,256.5C 315.397,254.93 316.897,253.596 318.5,252.5 Z"/></g>
<g><path style="opacity:1" fill="#030201" d="M 95.5,268.5 C 100.897,268.215 106.23,268.549 111.5,269.5C 115.577,273.968 115.244,278.134 110.5,282C 105.5,282.667 100.5,282.667 95.5,282C 91.5413,277.501 91.5413,273.001 95.5,268.5 Z"/></g>
<g><path style="opacity:1" fill="#0a0604" d="M 397.5,268.5 C 402.511,268.334 407.511,268.501 412.5,269C 418.133,274.487 417.466,279.154 410.5,283C 406.5,283.667 402.5,283.667 398.5,283C 392.192,278.615 391.859,273.782 397.5,268.5 Z"/></g>
<g><path style="opacity:1" fill="#f9ca87" d="M 476.5,284.5 C 478.107,290.993 477.773,297.326 475.5,303.5C 471.51,303.999 467.51,304.499 463.5,305C 455.049,308.392 446.716,312.059 438.5,316C 422.233,321.248 405.566,322.915 388.5,321C 383.375,320.135 378.375,318.802 373.5,317C 365.284,313.059 356.951,309.392 348.5,306C 337.228,303.203 325.894,302.869 314.5,305C 306.717,308.058 299.05,311.392 291.5,315C 274.724,321.238 257.391,323.238 239.5,321C 233.332,319.944 227.332,318.277 221.5,316C 213.284,312.059 204.951,308.392 196.5,305C 184.748,302.762 173.082,303.095 161.5,306C 150.38,312.04 138.713,316.707 126.5,320C 114.543,321.532 102.543,321.865 90.5,321C 85.0359,320.174 79.7025,318.841 74.5,317C 65.3887,312.443 56.0554,308.443 46.5,305C 39.1166,304.219 31.7833,303.219 24.5,302C 13.8419,295.296 11.6752,286.463 18,275.5C 18.7387,274.426 19.7387,273.759 21,273.5C 29.5524,283.351 40.3857,287.518 53.5,286C 63.3979,289.411 73.0646,293.411 82.5,298C 105.602,304.271 128.602,303.938 151.5,297C 158.833,293.667 166.167,290.333 173.5,287C 181.491,285.043 189.491,285.043 197.5,287C 228.157,304.149 260.157,307.149 293.5,296C 300.167,293 306.833,290 313.5,287C 322.267,284.807 330.934,285.14 339.5,288C 366.619,303.172 395.286,306.838 425.5,299C 434.833,295 444.167,291 453.5,287C 461.14,285.883 468.806,285.05 476.5,284.5 Z"/></g>
<g><path style="opacity:1" fill="#f7be69" d="M 475.5,303.5 C 477.773,297.326 478.107,290.993 476.5,284.5C 481.42,281.442 485.92,277.776 490,273.5C 494.262,276.69 496.429,281.023 496.5,286.5C 494.621,298.372 487.621,304.038 475.5,303.5 Z"/></g>
<g><path style="opacity:1" fill="#c58559" d="M 454.5,325.5 C 461.523,332.346 463.19,340.346 459.5,349.5C 453.933,349.52 448.6,350.687 443.5,353C 410.022,371.306 376.689,370.973 343.5,352C 332.244,349.125 320.91,348.791 309.5,351C 301.717,354.058 294.05,357.392 286.5,361C 266.603,367.909 246.603,368.242 226.5,362C 218.064,357.782 209.398,354.115 200.5,351C 190.167,349 179.833,349 169.5,351C 157.697,357.068 145.364,361.735 132.5,365C 120.83,366.967 109.163,366.967 97.5,365C 84.8563,361.179 72.523,356.513 60.5,351C 53.4827,350.047 46.4827,349.047 39.5,348C 31.4154,342.846 28.9154,335.679 32,326.5C 34.0283,322.574 37.195,320.241 41.5,319.5C 52.9253,323.711 64.2586,328.211 75.5,333C 99.9061,338.72 123.906,337.387 147.5,329C 155.05,325.392 162.717,322.058 170.5,319C 177.167,318.333 183.833,318.333 190.5,319C 199.398,322.115 208.064,325.782 216.5,330C 250.169,341.215 282.503,338.215 313.5,321C 324.124,317.828 334.79,317.828 345.5,321C 358.873,327.791 372.873,332.791 387.5,336C 410.862,338.687 433.195,335.187 454.5,325.5 Z"/></g>
<g><path style="opacity:1" fill="#be7a4b" d="M 459.5,349.5 C 463.19,340.346 461.523,332.346 454.5,325.5C 458.678,322.545 463.345,320.545 468.5,319.5C 478.22,322.089 482.053,328.422 480,338.5C 475.691,346.74 468.857,350.406 459.5,349.5 Z"/></g>
<g><path style="opacity:1" fill="#090503" d="M 108.5,348.5 C 113.959,348.103 119.292,348.603 124.5,350C 127.774,355.369 126.774,359.702 121.5,363C 116.713,363.879 112.047,363.545 107.5,362C 103.305,357.044 103.639,352.544 108.5,348.5 Z"/></g>
<g><path style="opacity:1" fill="#090503" d="M 248.5,348.5 C 253.959,348.103 259.292,348.603 264.5,350C 267.774,355.369 266.774,359.702 261.5,363C 256.713,363.879 252.047,363.545 247.5,362C 243.305,357.044 243.639,352.544 248.5,348.5 Z"/></g>
<g><path style="opacity:1" fill="#090503" d="M 385.5,348.5 C 390.959,348.103 396.292,348.603 401.5,350C 404.774,355.369 403.774,359.702 398.5,363C 393.713,363.879 389.047,363.545 384.5,362C 380.305,357.044 380.639,352.544 385.5,348.5 Z"/></g>
<g><path style="opacity:1" fill="#facc88" d="M 475.5,362.5 C 477.728,369.037 478.061,375.703 476.5,382.5C 472.165,382.917 467.832,383.417 463.5,384C 455.001,387.278 446.667,390.945 438.5,395C 420.492,400.544 402.158,401.878 383.5,399C 371.505,395.17 359.839,390.503 348.5,385C 338.638,382.582 328.638,381.915 318.5,383C 305.619,387.44 292.953,392.44 280.5,398C 265.21,400.776 249.876,401.11 234.5,399C 222.287,394.894 210.287,390.227 198.5,385C 187.592,382.048 176.592,381.715 165.5,384C 154.167,388.667 142.833,393.333 131.5,398C 128.529,398.794 125.529,399.461 122.5,400C 111.833,400.667 101.167,400.667 90.5,400C 85.0359,399.174 79.7025,397.841 74.5,396C 66.284,392.059 57.9507,388.392 49.5,385C 41.1948,383.392 32.8615,382.059 24.5,381C 16.3244,376.482 13.1577,369.649 15,360.5C 16.2559,356.984 18.2559,353.984 21,351.5C 31.1187,362.211 43.6187,367.044 58.5,366C 67.1667,369.667 75.8333,373.333 84.5,377C 102.676,382.053 121.009,382.72 139.5,379C 151.554,375.315 163.221,370.648 174.5,365C 181.833,364.333 189.167,364.333 196.5,365C 208.966,371.4 221.966,376.4 235.5,380C 252.384,382.614 269.051,381.614 285.5,377C 295.281,373.276 304.948,369.276 314.5,365C 321.5,364.333 328.5,364.333 335.5,365C 345.94,369.886 356.606,374.22 367.5,378C 384.401,382.329 401.401,382.662 418.5,379C 430.935,375.449 442.935,370.782 454.5,365C 461.62,364.894 468.62,364.06 475.5,362.5 Z"/></g>
<g><path style="opacity:1" fill="#f7bd68" d="M 476.5,382.5 C 478.061,375.703 477.728,369.037 475.5,362.5C 481.216,360.201 486.049,356.534 490,351.5C 499.002,361.485 498.502,370.985 488.5,380C 484.702,381.783 480.702,382.616 476.5,382.5 Z"/></g>
<g><path style="opacity:1" fill="#c17c4d" d="M 378.5,413.5 C 369.62,415.471 360.62,415.971 351.5,415C 342.602,411.885 333.936,408.218 325.5,404C 321.56,402.524 317.56,401.357 313.5,400.5C 315.277,399.4 317.277,398.566 319.5,398C 328.642,396.955 337.642,397.621 346.5,400C 356.92,405.385 367.587,409.885 378.5,413.5 Z"/></g>
<g><path style="opacity:1" fill="#c58558" d="M 313.5,400.5 C 317.56,401.357 321.56,402.524 325.5,404C 333.936,408.218 342.602,411.885 351.5,415C 360.62,415.971 369.62,415.471 378.5,413.5C 409.275,419.26 438.275,414.426 465.5,399C 472.718,397.519 477.552,400.353 480,407.5C 481.629,416.741 478.129,423.241 469.5,427C 454.354,426.953 440.354,430.953 427.5,439C 423.952,441.591 422.618,445.091 423.5,449.5C 420.518,449.963 417.518,450.296 414.5,450.5C 413.797,448.284 412.464,446.451 410.5,445C 398.785,444.888 387.119,444.221 375.5,443C 361.932,437.715 348.265,432.715 334.5,428C 327.833,427.333 321.167,427.333 314.5,428C 301.611,433.278 288.611,438.278 275.5,443C 260.758,445.262 246.091,444.928 231.5,442C 219.713,436.773 207.713,432.106 195.5,428C 188.5,427.333 181.5,427.333 174.5,428C 162.731,432.384 151.064,437.05 139.5,442C 124.909,444.928 110.242,445.262 95.5,443C 84.6308,439.234 73.9641,434.901 63.5,430C 56.3062,428.057 48.9729,427.057 41.5,427C 34.5046,424.175 30.838,419.008 30.5,411.5C 31.5309,402.286 36.5309,398.119 45.5,399C 55.2668,403.884 65.2668,408.217 75.5,412C 94.4125,416.287 113.413,416.621 132.5,413C 145.381,408.56 158.047,403.56 170.5,398C 177.5,397.333 184.5,397.333 191.5,398C 201.5,402.333 211.5,406.667 221.5,411C 253.606,419.881 284.272,416.381 313.5,400.5 Z"/></g>
<g><path style="opacity:1" fill="#040201" d="M 178.5,405.5 C 183.628,405.112 188.628,405.612 193.5,407C 197.957,412.135 197.29,416.468 191.5,420C 187.167,420.667 182.833,420.667 178.5,420C 173.214,415.169 173.214,410.335 178.5,405.5 Z"/></g>
<g><path style="opacity:1" fill="#050301" d="M 455.5,407.5 C 460.628,407.112 465.628,407.612 470.5,409C 474.654,414.056 473.987,418.39 468.5,422C 463.382,422.888 458.382,422.555 453.5,421C 450.409,415.799 451.075,411.299 455.5,407.5 Z"/></g>
<g><path style="opacity:1" fill="#080503" d="M 43.5,410.5 C 48.5111,410.334 53.5111,410.501 58.5,411C 64.0563,416.552 63.3896,421.219 56.5,425C 52.0442,425.867 47.7109,425.534 43.5,424C 39.5413,419.501 39.5413,415.001 43.5,410.5 Z"/></g>
<g><path style="opacity:1" fill="#090503" d="M 352.5,417.5 C 357.297,417.121 361.964,417.621 366.5,419C 369.886,422.373 370.386,426.206 368,430.5C 365.072,432.038 361.906,432.704 358.5,432.5C 349.665,433.832 346.165,430.166 348,421.5C 349.397,419.93 350.897,418.596 352.5,417.5 Z"/></g>
</svg>
