<?xml version="1.0" encoding="UTF-8"?>
<!DOCTYPE svg PUBLIC "-//W3C//DTD SVG 1.1//EN" "http://www.w3.org/Graphics/SVG/1.1/DTD/svg11.dtd">
<svg xmlns="http://www.w3.org/2000/svg" version="1.1" width="512px" height="512px" style="shape-rendering:geometricPrecision; text-rendering:geometricPrecision; image-rendering:optimizeQuality; fill-rule:evenodd; clip-rule:evenodd" xmlns:xlink="http://www.w3.org/1999/xlink">
<g><path style="opacity:0.961" fill="#020100" d="M 402.5,-0.5 C 423.5,-0.5 444.5,-0.5 465.5,-0.5C 467.27,1.11327 468.436,3.11327 469,5.5C 469.333,33.1667 469.667,60.8333 470,88.5C 485.709,118.872 493.209,151.206 492.5,185.5C 487.907,289.854 445.241,374.687 364.5,440C 311.855,481.165 252.188,504.998 185.5,511.5C 170.167,511.5 154.833,511.5 139.5,511.5C 110.673,509.289 83.34,501.456 57.5,488C 41.6148,479.115 29.4481,466.615 21,450.5C 16.3594,432.09 21.526,416.923 36.5,405C 50.1427,394.59 64.9761,386.09 81,379.5C 84.005,380.027 86.505,381.36 88.5,383.5C 90.3532,388.065 89.3532,391.898 85.5,395C 68.3735,401.969 53.2068,411.803 40,424.5C 34.2277,431.237 33.2277,438.571 37,446.5C 45.1496,459.813 56.3162,469.813 70.5,476.5C 91.3037,486.703 113.304,492.869 136.5,495C 258.265,499.033 354.099,451.533 424,352.5C 466.661,287.521 482.661,216.521 472,139.5C 468.909,124.725 463.742,110.725 456.5,97.5C 446.854,94.6724 437.187,92.0058 427.5,89.5C 419.756,87.2722 411.923,85.2722 404,83.5C 402.395,84.1007 401.062,85.1007 400,86.5C 382.74,112.675 366.74,139.675 352,167.5C 296.772,261.725 219.606,331.891 120.5,378C 117.923,379.25 115.257,379.584 112.5,379C 110.963,377.293 109.296,375.793 107.5,374.5C 106.971,370.808 107.971,367.642 110.5,365C 199.902,324.261 271.402,262.761 325,180.5C 341.399,153.092 357.399,125.425 373,97.5C 378.844,88.4785 385.178,79.8119 392,71.5C 394.597,49.5351 396.93,27.5351 399,5.5C 399.564,3.11327 400.73,1.11327 402.5,-0.5 Z"/></g>
<g><path style="opacity:1" fill="#56b440" d="M 414.5,15.5 C 420.167,15.5 425.833,15.5 431.5,15.5C 431.615,35.6025 432.615,55.6025 434.5,75.5C 426.155,73.7062 417.988,71.3729 410,68.5C 409.333,63.5 409.333,58.5 410,53.5C 411.362,40.666 412.862,27.9993 414.5,15.5 Z"/></g>
<g><path style="opacity:1" fill="#6fd55a" d="M 431.5,15.5 C 438.5,15.5 445.5,15.5 452.5,15.5C 452.5,36.8333 452.5,58.1667 452.5,79.5C 446.427,78.4816 440.427,77.1483 434.5,75.5C 432.615,55.6025 431.615,35.6025 431.5,15.5 Z"/></g>
<g><path style="opacity:1" fill="#3b7230" d="M 414.5,15.5 C 427.323,14.5045 440.323,14.1712 453.5,14.5C 453.831,36.3398 453.497,58.0064 452.5,79.5C 452.5,58.1667 452.5,36.8333 452.5,15.5C 445.5,15.5 438.5,15.5 431.5,15.5C 425.833,15.5 420.167,15.5 414.5,15.5 Z"/></g>
<g><path style="opacity:1" fill="#fdb73a" d="M 427.5,89.5 C 418.713,110.195 410.713,131.195 403.5,152.5C 402.781,154.764 402.448,157.097 402.5,159.5C 401.778,159.082 401.278,158.416 401,157.5C 398.544,162.741 396.377,168.075 394.5,173.5C 387.671,175.378 385.671,179.711 388.5,186.5C 361.702,242.477 323.035,288.644 272.5,325C 249.003,341.254 224.67,356.254 199.5,370C 176.833,382 154.167,394 131.5,406C 122.131,411.346 113.131,417.179 104.5,423.5C 103.318,416.733 99.3176,414.233 92.5,416C 86.76,421.789 87.4267,426.622 94.5,430.5C 88.4627,436.37 82.9627,442.704 78,449.5C 72.9537,457.804 70.4537,466.804 70.5,476.5C 56.3162,469.813 45.1496,459.813 37,446.5C 33.2277,438.571 34.2277,431.237 40,424.5C 53.2068,411.803 68.3735,401.969 85.5,395C 89.3532,391.898 90.3532,388.065 88.5,383.5C 95.266,381.282 101.599,378.282 107.5,374.5C 109.296,375.793 110.963,377.293 112.5,379C 115.257,379.584 117.923,379.25 120.5,378C 219.606,331.891 296.772,261.725 352,167.5C 366.74,139.675 382.74,112.675 400,86.5C 401.062,85.1007 402.395,84.1007 404,83.5C 411.923,85.2722 419.756,87.2722 427.5,89.5 Z"/></g>
<g><path style="opacity:1" fill="#fde038" d="M 427.5,89.5 C 437.187,92.0058 446.854,94.6724 456.5,97.5C 463.742,110.725 468.909,124.725 472,139.5C 482.661,216.521 466.661,287.521 424,352.5C 354.099,451.533 258.265,499.033 136.5,495C 113.304,492.869 91.3037,486.703 70.5,476.5C 70.4537,466.804 72.9537,457.804 78,449.5C 82.9627,442.704 88.4627,436.37 94.5,430.5C 99.6417,430.607 102.975,428.273 104.5,423.5C 113.131,417.179 122.131,411.346 131.5,406C 154.167,394 176.833,382 199.5,370C 224.67,356.254 249.003,341.254 272.5,325C 323.035,288.644 361.702,242.477 388.5,186.5C 397.954,190.876 402.454,187.876 402,177.5C 400.117,174.976 397.617,173.642 394.5,173.5C 396.377,168.075 398.544,162.741 401,157.5C 401.278,158.416 401.778,159.082 402.5,159.5C 404.663,165.489 408.663,166.989 414.5,164C 418.769,159.291 418.436,154.958 413.5,151C 409.928,150.153 406.594,150.653 403.5,152.5C 410.713,131.195 418.713,110.195 427.5,89.5 Z"/></g>
<g><path style="opacity:1" fill="#090701" d="M 402.5,159.5 C 402.448,157.097 402.781,154.764 403.5,152.5C 406.594,150.653 409.928,150.153 413.5,151C 418.436,154.958 418.769,159.291 414.5,164C 408.663,166.989 404.663,165.489 402.5,159.5 Z"/></g>
<g><path style="opacity:1" fill="#0c0702" d="M 373.5,156.5 C 384.818,155.99 387.485,160.49 381.5,170C 372.913,172.753 369.08,169.587 370,160.5C 371.376,159.295 372.542,157.962 373.5,156.5 Z"/></g>
<g><path style="opacity:1" fill="#080601" d="M 394.5,173.5 C 397.617,173.642 400.117,174.976 402,177.5C 402.454,187.876 397.954,190.876 388.5,186.5C 385.671,179.711 387.671,175.378 394.5,173.5 Z"/></g>
<g><path style="opacity:1" fill="#080601" d="M 440.5,175.5 C 447.01,174.244 451.01,176.744 452.5,183C 448.521,199.747 443.688,216.247 438,232.5C 430.862,238.801 426.029,237.301 423.5,228C 428.699,212.37 433.199,196.537 437,180.5C 437.997,178.677 439.164,177.01 440.5,175.5 Z"/></g>
<g><path style="opacity:1" fill="#050401" d="M 414.5,252.5 C 422.614,251.121 426.447,254.454 426,262.5C 383.781,349.876 317.614,411.71 227.5,448C 211.271,454.299 194.771,459.799 178,464.5C 172.18,462.996 170.18,459.329 172,453.5C 172.465,452.069 173.299,450.903 174.5,450C 243.811,430.936 303.311,395.769 353,344.5C 377.643,316.674 398.143,286.008 414.5,252.5 Z"/></g>
<g><path style="opacity:1" fill="#090601" d="M 113.5,396.5 C 121.494,395.329 124.994,398.663 124,406.5C 119.701,412.496 115.034,412.829 110,407.5C 108.663,402.872 109.83,399.205 113.5,396.5 Z"/></g>
<g><path style="opacity:1" fill="#0e0a03" d="M 104.5,423.5 C 102.975,428.273 99.6417,430.607 94.5,430.5C 87.4267,426.622 86.76,421.789 92.5,416C 99.3176,414.233 103.318,416.733 104.5,423.5 Z"/></g>
<g><path style="opacity:1" fill="#0f0c04" d="M 120.5,420.5 C 127.88,420.05 131.38,423.384 131,430.5C 128.565,435.224 124.731,436.724 119.5,435C 114.003,429.683 114.336,424.85 120.5,420.5 Z"/></g>
</svg>
