<?xml version="1.0" encoding="UTF-8"?>
<!DOCTYPE svg PUBLIC "-//W3C//DTD SVG 1.1//EN" "http://www.w3.org/Graphics/SVG/1.1/DTD/svg11.dtd">
<svg xmlns="http://www.w3.org/2000/svg" version="1.1" width="512px" height="512px" style="shape-rendering:geometricPrecision; text-rendering:geometricPrecision; image-rendering:optimizeQuality; fill-rule:evenodd; clip-rule:evenodd" xmlns:xlink="http://www.w3.org/1999/xlink">
<g><path style="opacity:0.98" fill="#010100" d="M 415.5,63.5 C 432.359,60.8485 444.859,66.8485 453,81.5C 454.975,85.9626 455.808,90.6292 455.5,95.5C 475.829,96.4957 486.496,107.162 487.5,127.5C 486.853,143.642 478.853,154.142 463.5,159C 458.167,159.667 452.833,159.667 447.5,159C 444.57,157.682 441.57,157.015 438.5,157C 425.667,169.833 412.833,182.667 400,195.5C 398.29,200.993 400.123,204.16 405.5,205C 420.759,206.94 436.092,207.94 451.5,208C 480.062,217.597 491.896,237.43 487,267.5C 484.324,286.878 476.99,304.212 465,319.5C 442.875,341.95 419.709,363.116 395.5,383C 425.586,383.015 455.586,383.682 485.5,385C 487.942,389.052 488.109,393.219 486,397.5C 473.833,409.667 461.667,421.833 449.5,434C 441.711,440.727 432.711,445.06 422.5,447C 311.167,447.667 199.833,447.667 88.5,447C 78.2886,445.06 69.2886,440.727 61.5,434C 48.6371,421.471 36.1371,408.638 24,395.5C 23.3333,392.833 23.3333,390.167 24,387.5C 24.5,385.667 25.6667,384.5 27.5,384C 41.8333,383.667 56.1667,383.333 70.5,383C 44.0533,365.529 28.5533,341.029 24,309.5C 20.4837,240.387 44.9837,183.554 97.5,139C 148.157,99.8376 204.824,87.1709 267.5,101C 277.939,105.05 287.605,110.384 296.5,117C 308.804,128.304 320.804,139.97 332.5,152C 340.131,151.809 347.797,151.476 355.5,151C 368.333,138.167 381.167,125.333 394,112.5C 392.465,107.018 391.632,101.351 391.5,95.5C 392.262,79.2744 400.262,68.6077 415.5,63.5 Z"/></g>
<g><path style="opacity:1" fill="#c1e5f2" d="M 418.5,79.5 C 430.304,77.9905 437.304,82.9905 439.5,94.5C 438.178,99.4422 437.678,104.442 438,109.5C 439.167,110.667 440.333,111.833 441.5,113C 447.12,112.369 452.787,112.036 458.5,112C 469.864,115.56 473.697,123.06 470,134.5C 465.585,141.976 459.085,144.809 450.5,143C 447.146,140.968 443.813,138.968 440.5,137C 438.029,136.294 435.695,136.627 433.5,138C 419.653,152.014 405.653,165.847 391.5,179.5C 384.5,173.167 377.833,166.5 371.5,159.5C 385.153,145.347 398.986,131.347 413,117.5C 413.704,115.722 414.204,113.888 414.5,112C 413.527,108.355 411.694,105.188 409,102.5C 405.564,92.0447 408.731,84.378 418.5,79.5 Z"/></g>
<g><path style="opacity:1" fill="#c57729" d="M 205.5,111.5 C 235.684,106.797 263.017,113.297 287.5,131C 297.348,140.681 307.014,150.514 316.5,160.5C 306.713,168.785 297.38,177.618 288.5,187C 285.618,188.608 282.618,189.941 279.5,191C 232.416,191.612 201.249,214.112 186,258.5C 178.468,301.288 192.968,334.122 229.5,357C 263.08,373.171 295.08,370.504 325.5,349C 349.314,328.855 360.814,303.022 360,271.5C 360.667,269.5 361.333,267.5 362,265.5C 369.333,256.833 377.333,248.833 386,241.5C 391.098,235.304 394.598,228.304 396.5,220.5C 412.711,222.976 429.044,224.143 445.5,224C 457.5,225.666 465.667,232.166 470,243.5C 473.051,269.014 466.385,291.681 450,311.5C 431.167,329 412.333,346.5 393.5,364C 380.272,374.445 365.272,380.778 348.5,383C 270.833,383.667 193.167,383.667 115.5,383C 75.3074,375.14 50.4741,351.307 41,311.5C 36.2607,239.818 63.0941,183.318 121.5,142C 147.237,125.367 175.237,115.201 205.5,111.5 Z"/></g>
<g><path style="opacity:1" fill="#dca969" d="M 124.5,159.5 C 132.658,158.823 136.158,162.49 135,170.5C 132.774,174.861 129.274,176.361 124.5,175C 120.139,172.774 118.639,169.274 120,164.5C 121.025,162.313 122.525,160.646 124.5,159.5 Z"/></g>
<g><path style="opacity:1" fill="#c57729" d="M 339.5,167.5 C 345.176,167.334 350.843,167.501 356.5,168C 365.333,176.833 374.167,185.667 383,194.5C 385.358,206.859 383.025,218.192 376,228.5C 368.636,236.198 360.97,243.531 353,250.5C 348.662,256.176 345.662,262.51 344,269.5C 345.403,310.733 326.57,337.566 287.5,350C 243.68,355.498 214.847,337.332 201,295.5C 195.913,262.519 207.079,236.686 234.5,218C 250.339,209.297 267.339,205.297 285.5,206C 290.945,204.112 295.945,201.445 300.5,198C 307.833,190.667 315.167,183.333 322.5,176C 327.731,172.102 333.397,169.269 339.5,167.5 Z"/></g>
<g><path style="opacity:1" fill="#dcab6a" d="M 100.5,181.5 C 108.033,181.529 111.533,185.196 111,192.5C 103.557,201.277 96.8906,210.61 91,220.5C 85.5556,230.836 80.889,241.502 77,252.5C 69.9125,257.618 65.0792,255.951 62.5,247.5C 70.04,222.404 82.7067,200.404 100.5,181.5 Z"/></g>
<g><path style="opacity:1" fill="#dca969" d="M 268.5,223.5 C 276.658,222.823 280.158,226.49 279,234.5C 276.774,238.861 273.274,240.361 268.5,239C 264.139,236.774 262.639,233.274 264,228.5C 265.025,226.313 266.525,224.646 268.5,223.5 Z"/></g>
<g><path style="opacity:1" fill="#dcaa6a" d="M 236.5,236.5 C 244.709,235.872 248.209,239.539 247,247.5C 243.667,251.5 240.333,255.5 237,259.5C 233.459,266.122 231.126,273.122 230,280.5C 227.091,283.394 223.591,284.227 219.5,283C 216.534,280.735 215.201,277.735 215.5,274C 217.463,258.564 224.463,246.064 236.5,236.5 Z"/></g>
<g><path style="opacity:1" fill="#955a20" d="M 438.5,271.5 C 447.493,270.66 450.993,274.66 449,283.5C 446.252,288.666 443.252,293.666 440,298.5C 422.469,315.699 404.635,332.533 386.5,349C 376,351.833 372.167,348 375,337.5C 391.667,322.167 408.333,306.833 425,291.5C 429.721,284.952 434.221,278.285 438.5,271.5 Z"/></g>
<g><path style="opacity:1" fill="#c2e6f3" d="M 51.5,400.5 C 187.333,399.334 323.333,399.167 459.5,400C 450.063,410.443 439.729,419.776 428.5,428C 425.44,428.848 422.44,429.848 419.5,431C 310.167,431.667 200.833,431.667 91.5,431C 85.178,429.672 79.5113,427.005 74.5,423C 66.9649,415.298 59.2983,407.798 51.5,400.5 Z"/></g>
</svg>
