<?xml version="1.0" encoding="UTF-8"?>
<!DOCTYPE svg PUBLIC "-//W3C//DTD SVG 1.1//EN" "http://www.w3.org/Graphics/SVG/1.1/DTD/svg11.dtd">
<svg xmlns="http://www.w3.org/2000/svg" version="1.1" width="512px" height="512px" style="shape-rendering:geometricPrecision; text-rendering:geometricPrecision; image-rendering:optimizeQuality; fill-rule:evenodd; clip-rule:evenodd" xmlns:xlink="http://www.w3.org/1999/xlink">
<g><path style="opacity:0.987" fill="#010202" d="M 55.5,-0.5 C 150.5,-0.5 245.5,-0.5 340.5,-0.5C 342.85,1.21328 343.85,3.54661 343.5,6.5C 343.456,10.0897 341.789,12.5897 338.5,14C 245.833,14.3333 153.167,14.6667 60.5,15C 59.6667,15.8333 58.8333,16.6667 58,17.5C 57.3333,29.5 57.3333,41.5 58,53.5C 58.8333,54.3333 59.6667,55.1667 60.5,56C 167.166,56.5 273.833,56.6667 380.5,56.5C 398.184,60.1417 404.518,53.1417 399.5,35.5C 404.518,17.8583 398.184,10.8583 380.5,14.5C 376.486,14.6655 372.486,14.4988 368.5,14C 365.211,12.5897 363.544,10.0897 363.5,6.5C 363.688,3.79385 364.688,1.46052 366.5,-0.5C 378.167,-0.5 389.833,-0.5 401.5,-0.5C 407.622,2.79574 411.789,7.79574 414,14.5C 414.667,28.5 414.667,42.5 414,56.5C 411.607,66.1175 405.44,71.1175 395.5,71.5C 401.287,155.188 407.454,238.854 414,322.5C 430.983,324.053 448.149,325.22 465.5,326C 474.801,330.316 479.801,337.65 480.5,348C 479.855,360.974 473.189,368.641 460.5,371C 446.171,371.5 431.837,371.667 417.5,371.5C 420.423,408.328 423.423,445.162 426.5,482C 425.324,496.553 417.99,506.387 404.5,511.5C 305.167,511.5 205.833,511.5 106.5,511.5C 104.331,509.66 102.998,507.326 102.5,504.5C 103.322,502.611 104.155,500.611 105,498.5C 105.75,497.874 106.584,497.374 107.5,497C 201.166,496.5 294.833,496.333 388.5,496.5C 402.595,498.889 409.928,493.056 410.5,479C 410.042,474.171 409.709,469.338 409.5,464.5C 409.5,463.167 409.5,461.833 409.5,460.5C 288.833,460.5 168.167,460.5 47.5,460.5C 47.5,461.833 47.5,463.167 47.5,464.5C 41.3697,490.203 51.3697,501.037 77.5,497C 81.0762,498.354 83.0762,500.854 83.5,504.5C 82.937,507.295 81.6037,509.628 79.5,511.5C 70.5,511.5 61.5,511.5 52.5,511.5C 39.1813,506.499 31.848,496.832 30.5,482.5C 41.3944,345.54 51.7277,208.54 61.5,71.5C 52.1233,71.0629 45.9566,66.3962 43,57.5C 42.3333,43.1667 42.3333,28.8333 43,14.5C 44.8277,7.50927 48.9944,2.50927 55.5,-0.5 Z"/></g>
<g><path style="opacity:0.999" fill="#e8f3fc" d="M 343.5,6.5 C 350.167,6.5 356.833,6.5 363.5,6.5C 363.544,10.0897 365.211,12.5897 368.5,14C 372.486,14.4988 376.486,14.6655 380.5,14.5C 381.818,28.4701 381.818,42.4701 380.5,56.5C 273.833,56.6667 167.166,56.5 60.5,56C 59.6667,55.1667 58.8333,54.3333 58,53.5C 57.3333,41.5 57.3333,29.5 58,17.5C 58.8333,16.6667 59.6667,15.8333 60.5,15C 153.167,14.6667 245.833,14.3333 338.5,14C 341.789,12.5897 343.456,10.0897 343.5,6.5 Z"/></g>
<g><path style="opacity:1" fill="#d2e6f7" d="M 380.5,14.5 C 398.184,10.8583 404.518,17.8583 399.5,35.5C 404.518,53.1417 398.184,60.1417 380.5,56.5C 381.818,42.4701 381.818,28.4701 380.5,14.5 Z"/></g>
<g><path style="opacity:1" fill="#010101" d="M 188.5,28.5 C 215.169,28.3334 241.835,28.5 268.5,29C 273.726,33.2514 273.726,37.5847 268.5,42C 241.833,42.6667 215.167,42.6667 188.5,42C 183.224,37.4699 183.224,32.9699 188.5,28.5 Z"/></g>
<g><path style="opacity:1" fill="#89c8fd" d="M 361.5,71.5 C 368.596,155.721 374.929,240.055 380.5,324.5C 373.167,324.5 365.833,324.5 358.5,324.5C 360.19,307.684 353.19,296.517 337.5,291C 324.833,290.333 312.167,290.333 299.5,291C 289.869,293.296 283.369,299.129 280,308.5C 278.978,314.119 278.145,319.786 277.5,325.5C 272.2,327.423 268.7,331.09 267,336.5C 266.333,351.833 266.333,367.167 267,382.5C 269.434,396.934 277.601,406.434 291.5,411C 308.833,411.667 326.167,411.667 343.5,411C 356.89,407.944 365.39,399.777 369,386.5C 370.25,381.58 370.75,376.58 370.5,371.5C 375.5,371.5 380.5,371.5 385.5,371.5C 386.724,396.2 388.391,420.866 390.5,445.5C 276.833,445.5 163.167,445.5 49.5,445.5C 58.1703,320.785 67.5037,196.119 77.5,71.5C 116.5,71.5 155.5,71.5 194.5,71.5C 194.667,94.5024 194.5,117.502 194,140.5C 184.129,149.434 179.296,160.601 179.5,174C 179.053,188.338 183.887,200.504 194,210.5C 194.333,231.5 194.667,252.5 195,273.5C 198.829,283.493 205.329,285.659 214.5,280C 219.033,276.572 223.7,273.406 228.5,270.5C 234.473,273.824 240.14,277.658 245.5,282C 253.74,284.63 259.24,281.796 262,273.5C 262.333,252.5 262.667,231.5 263,210.5C 274.914,197.869 279.58,182.869 277,165.5C 275.182,155.526 270.515,147.193 263,140.5C 262.5,117.502 262.333,94.5024 262.5,71.5C 295.5,71.5 328.5,71.5 361.5,71.5 Z"/></g>
<g><path style="opacity:1" fill="#dbc166" d="M 245.5,129.5 C 246.497,110.674 246.83,91.674 246.5,72.5C 234.5,72.5 222.5,72.5 210.5,72.5C 210.5,91.5 210.5,110.5 210.5,129.5C 209.503,110.341 209.17,91.0072 209.5,71.5C 222.167,71.5 234.833,71.5 247.5,71.5C 247.833,91.178 247.5,110.845 246.5,130.5C 245.893,130.376 245.56,130.043 245.5,129.5 Z"/></g>
<g><path style="opacity:1" fill="#fee076" d="M 245.5,129.5 C 233.81,125.599 222.143,125.599 210.5,129.5C 210.5,110.5 210.5,91.5 210.5,72.5C 222.5,72.5 234.5,72.5 246.5,72.5C 246.83,91.674 246.497,110.674 245.5,129.5 Z"/></g>
<g><path style="opacity:1" fill="#5eb3f9" d="M 361.5,71.5 C 367.5,71.5 373.5,71.5 379.5,71.5C 386.343,156.123 392.676,240.79 398.5,325.5C 384.99,325.829 371.656,325.496 358.5,324.5C 365.833,324.5 373.167,324.5 380.5,324.5C 374.929,240.055 368.596,155.721 361.5,71.5 Z"/></g>
<g><path style="opacity:1" fill="#fb636e" d="M 221.5,141.5 C 250.833,140.332 264.333,154.332 262,183.5C 258.606,195.894 250.773,204.061 238.5,208C 223.04,211.624 210.207,207.457 200,195.5C 191.405,179.204 192.905,164.037 204.5,150C 209.712,146.061 215.379,143.227 221.5,141.5 Z"/></g>
<g><path style="opacity:1" fill="#fadc74" d="M 209.5,220.5 C 218.921,223.404 228.587,224.237 238.5,223C 241.352,222.731 244.018,221.897 246.5,220.5C 247.833,235.167 247.833,249.833 246.5,264.5C 243.025,262.192 239.692,259.692 236.5,257C 231.167,253.667 225.833,253.667 220.5,257C 217.308,259.692 213.975,262.192 210.5,264.5C 209.501,249.848 209.167,235.182 209.5,220.5 Z"/></g>
<g><path style="opacity:1" fill="#dde9f1" d="M 303.5,304.5 C 313.506,304.334 323.506,304.5 333.5,305C 342.512,308.858 345.845,315.692 343.5,325.5C 326.833,325.5 310.167,325.5 293.5,325.5C 291.285,315.602 294.619,308.602 303.5,304.5 Z"/></g>
<g><path style="opacity:1" fill="#a5914d" d="M 458.5,340.5 C 399.833,340.5 341.167,340.5 282.5,340.5C 282.5,354.5 282.5,368.5 282.5,382.5C 281.504,368.343 281.171,354.01 281.5,339.5C 340.669,339.168 399.669,339.501 458.5,340.5 Z"/></g>
<g><path style="opacity:1" fill="#fee076" d="M 458.5,340.5 C 463.987,342.138 465.82,345.805 464,351.5C 462.833,352.667 461.667,353.833 460.5,355C 428.167,355.333 395.833,355.667 363.5,356C 360.384,357.449 357.884,359.616 356,362.5C 355.667,369.167 355.333,375.833 355,382.5C 353.237,389.262 349.07,393.762 342.5,396C 326.167,396.667 309.833,396.667 293.5,396C 287.408,393.414 283.741,388.914 282.5,382.5C 282.5,368.5 282.5,354.5 282.5,340.5C 341.167,340.5 399.833,340.5 458.5,340.5 Z"/></g>
<g><path style="opacity:1" fill="#5db2f8" d="M 370.5,371.5 C 380.987,370.506 391.654,370.172 402.5,370.5C 404.626,395.47 406.293,420.47 407.5,445.5C 401.833,445.5 396.167,445.5 390.5,445.5C 388.391,420.866 386.724,396.2 385.5,371.5C 380.5,371.5 375.5,371.5 370.5,371.5 Z"/></g>
<g><path style="opacity:1" fill="#030507" d="M 81.5,394.5 C 86.439,393.352 89.939,395.019 92,399.5C 92.6667,406.167 92.6667,412.833 92,419.5C 87.7481,425.653 83.0814,425.986 78,420.5C 77.3333,413.167 77.3333,405.833 78,398.5C 79.0319,396.973 80.1986,395.64 81.5,394.5 Z"/></g>
<g><path style="opacity:1" fill="#030507" d="M 110.5,394.5 C 115.439,393.352 118.939,395.019 121,399.5C 121.667,406.167 121.667,412.833 121,419.5C 116.748,425.653 112.081,425.986 107,420.5C 106.333,413.167 106.333,405.833 107,398.5C 108.032,396.973 109.199,395.64 110.5,394.5 Z"/></g>
<g><path style="opacity:1" fill="#030507" d="M 139.5,394.5 C 144.439,393.352 147.939,395.019 150,399.5C 150.667,406.167 150.667,412.833 150,419.5C 145.748,425.653 141.081,425.986 136,420.5C 135.333,413.167 135.333,405.833 136,398.5C 137.032,396.973 138.199,395.64 139.5,394.5 Z"/></g>
<g><path style="opacity:1" fill="#aab3ba" d="M 409.5,464.5 C 408.596,463.791 408.263,462.791 408.5,461.5C 402.833,461.5 397.167,461.5 391.5,461.5C 277.167,461.5 162.833,461.5 48.5,461.5C 48.7373,462.791 48.404,463.791 47.5,464.5C 47.5,463.167 47.5,461.833 47.5,460.5C 168.167,460.5 288.833,460.5 409.5,460.5C 409.5,461.833 409.5,463.167 409.5,464.5 Z"/></g>
<g><path style="opacity:1" fill="#e9f5fe" d="M 391.5,461.5 C 392.638,470.756 392.805,480.089 392,489.5C 390.733,491.814 389.566,494.148 388.5,496.5C 294.833,496.333 201.166,496.5 107.5,497C 106.584,497.374 105.75,497.874 105,498.5C 104.155,500.611 103.322,502.611 102.5,504.5C 96.1667,504.5 89.8333,504.5 83.5,504.5C 83.0762,500.854 81.0762,498.354 77.5,497C 51.3697,501.037 41.3697,490.203 47.5,464.5C 48.404,463.791 48.7373,462.791 48.5,461.5C 162.833,461.5 277.167,461.5 391.5,461.5 Z"/></g>
<g><path style="opacity:1" fill="#d6e9fb" d="M 391.5,461.5 C 397.167,461.5 402.833,461.5 408.5,461.5C 408.263,462.791 408.596,463.791 409.5,464.5C 409.709,469.338 410.042,474.171 410.5,479C 409.928,493.056 402.595,498.889 388.5,496.5C 389.566,494.148 390.733,491.814 392,489.5C 392.805,480.089 392.638,470.756 391.5,461.5 Z"/></g>
</svg>
