<?xml version="1.0" encoding="UTF-8"?>
<!DOCTYPE svg PUBLIC "-//W3C//DTD SVG 1.1//EN" "http://www.w3.org/Graphics/SVG/1.1/DTD/svg11.dtd">
<svg xmlns="http://www.w3.org/2000/svg" version="1.1" width="512px" height="512px" style="shape-rendering:geometricPrecision; text-rendering:geometricPrecision; image-rendering:optimizeQuality; fill-rule:evenodd; clip-rule:evenodd" xmlns:xlink="http://www.w3.org/1999/xlink">
<g><path style="opacity:0.969" fill="#010100" d="M 349.5,170.5 C 346.087,171.987 342.753,171.82 339.5,170C 321.604,144.936 298.937,125.436 271.5,111.5C 269.784,114.861 268.118,118.195 266.5,121.5C 245.568,145.221 220.568,150.555 191.5,137.5C 160.83,146.892 137.33,137.892 121,110.5C 120.439,109.978 119.772,109.645 119,109.5C 58.6283,139.192 23.9616,187.525 15,254.5C 11.5531,299.726 22.8865,340.726 49,377.5C 49.6667,379.5 49.6667,381.5 49,383.5C 47.9055,385.078 47.0722,386.745 46.5,388.5C 42.7432,388.929 39.2432,388.263 36,386.5C 15.6533,357.957 3.48659,326.291 -0.5,291.5C -0.5,278.5 -0.5,265.5 -0.5,252.5C 9.59663,179.126 47.93,126.293 114.5,94C 109.846,76.3176 109.346,58.4842 113,40.5C 119.318,17.7553 134.151,8.25528 157.5,12C 171.926,15.4429 184.759,21.9429 196,31.5C 210.105,16.5776 227.272,10.411 247.5,13C 256.376,16.014 263.209,21.514 268,29.5C 274.937,43.8505 278.437,59.0172 278.5,75C 277.895,82.2042 277.395,89.3709 277,96.5C 307.569,111.736 332.569,133.402 352,161.5C 353.07,165.142 352.236,168.142 349.5,170.5 Z"/></g>
<g><path style="opacity:1" fill="#469637" d="M 182.5,41.5 C 158.802,67.8442 156.136,96.1775 174.5,126.5C 157.025,127.51 143.859,120.51 135,105.5C 127.599,88.9699 124.599,71.6366 126,53.5C 128.312,29.1665 140.812,21.3331 163.5,30C 170.53,32.8409 176.863,36.6743 182.5,41.5 Z"/></g>
<g><path style="opacity:1" fill="#76ba4c" d="M 230.5,27.5 C 244.371,25.5345 253.537,31.2012 258,44.5C 259.961,49.6767 261.294,55.01 262,60.5C 262.768,72.1986 262.435,83.8653 261,95.5C 253.986,121.268 237.152,132.435 210.5,129C 187.888,121.297 177.721,105.464 180,81.5C 189.105,56.2293 205.939,38.2293 230.5,27.5 Z"/></g>
<g><path style="opacity:1" fill="#2e781f" d="M 182.5,41.5 C 184.225,41.8425 184.725,42.8425 184,44.5C 160.713,69.8609 158.546,96.8609 177.5,125.5C 176.675,126.386 175.675,126.719 174.5,126.5C 156.136,96.1775 158.802,67.8442 182.5,41.5 Z"/></g>
<g><path style="opacity:1" fill="#fd9a35" d="M 266.5,121.5 C 278.647,127.724 280.647,136.224 272.5,147C 265.047,152.713 256.713,156.713 247.5,159C 211.472,167.665 175.472,167.665 139.5,159C 133.264,156.883 127.264,154.216 121.5,151C 116.977,147.977 113.31,144.144 110.5,139.5C 63.6127,187.674 46.446,245.007 59,311.5C 74.4186,374.078 111.585,418.078 170.5,443.5C 172.63,445.127 174.63,446.96 176.5,449C 135.259,445.209 99.5919,429.209 69.5,401C 65.6871,398.974 62.0204,399.14 58.5,401.5C 54.4718,397.141 50.4718,392.807 46.5,388.5C 47.0722,386.745 47.9055,385.078 49,383.5C 49.6667,381.5 49.6667,379.5 49,377.5C 22.8865,340.726 11.5531,299.726 15,254.5C 23.9616,187.525 58.6283,139.192 119,109.5C 119.772,109.645 120.439,109.978 121,110.5C 137.33,137.892 160.83,146.892 191.5,137.5C 220.568,150.555 245.568,145.221 266.5,121.5 Z"/></g>
<g><path style="opacity:1" fill="#fead4c" d="M 349.5,170.5 C 353.085,176.002 356.419,181.669 359.5,187.5C 358.542,188.962 357.376,190.295 356,191.5C 355.833,192.833 355.667,194.167 355.5,195.5C 358.751,204.754 361.918,214.087 365,223.5C 371.204,245.808 373.038,268.475 370.5,291.5C 287.499,291.333 204.499,291.5 121.5,292C 114.632,295.025 110.632,300.191 109.5,307.5C 112.49,360.798 132.823,406.132 170.5,443.5C 111.585,418.078 74.4186,374.078 59,311.5C 46.446,245.007 63.6127,187.674 110.5,139.5C 113.31,144.144 116.977,147.977 121.5,151C 127.264,154.216 133.264,156.883 139.5,159C 175.472,167.665 211.472,167.665 247.5,159C 256.713,156.713 265.047,152.713 272.5,147C 280.647,136.224 278.647,127.724 266.5,121.5C 268.118,118.195 269.784,114.861 271.5,111.5C 298.937,125.436 321.604,144.936 339.5,170C 342.753,171.82 346.087,171.987 349.5,170.5 Z"/></g>
<g><path style="opacity:0.983" fill="#030201" d="M 359.5,187.5 C 363.192,186.971 366.358,187.971 369,190.5C 383.33,222.301 389.163,255.635 386.5,290.5C 391.511,290.334 396.511,290.501 401.5,291C 405.046,292.256 407.046,294.756 407.5,298.5C 406.59,300.019 405.757,301.685 405,303.5C 404.184,304.823 403.017,305.489 401.5,305.5C 377.158,305.167 352.824,305.5 328.5,306.5C 328.624,307.107 328.957,307.44 329.5,307.5C 360.132,337.632 390.632,367.965 421,398.5C 444.248,372.322 456.748,341.655 458.5,306.5C 449.494,306.666 440.494,306.5 431.5,306C 428.41,304.293 426.41,301.793 425.5,298.5C 426.183,294.98 428.183,292.48 431.5,291C 453.5,290.333 475.5,290.333 497.5,291C 503.841,292.844 508.507,296.678 511.5,302.5C 511.5,308.833 511.5,315.167 511.5,321.5C 502.063,389.084 468.063,440.25 409.5,475C 343.498,508.977 277.498,508.977 211.5,475C 206.833,472 202.167,469 197.5,466C 144.151,466.226 97.9839,448.392 59,412.5C 57.253,408.875 57.0863,405.208 58.5,401.5C 62.0204,399.14 65.6871,398.974 69.5,401C 99.5919,429.209 135.259,445.209 176.5,449C 174.63,446.96 172.63,445.127 170.5,443.5C 132.823,406.132 112.49,360.798 109.5,307.5C 110.632,300.191 114.632,295.025 121.5,292C 204.499,291.5 287.499,291.333 370.5,291.5C 373.038,268.475 371.204,245.808 365,223.5C 361.918,214.087 358.751,204.754 355.5,195.5C 355.667,194.167 355.833,192.833 356,191.5C 357.376,190.295 358.542,188.962 359.5,187.5 Z"/></g>
<g><path style="opacity:1" fill="#f54e42" d="M 407.5,298.5 C 413.5,298.5 419.5,298.5 425.5,298.5C 426.41,301.793 428.41,304.293 431.5,306C 440.494,306.5 449.494,306.666 458.5,306.5C 456.748,341.655 444.248,372.322 421,398.5C 390.632,367.965 360.132,337.632 329.5,307.5C 353.5,306.833 377.5,306.167 401.5,305.5C 403.017,305.489 404.184,304.823 405,303.5C 405.757,301.685 406.59,300.019 407.5,298.5 Z"/></g>
<g><path style="opacity:1" fill="#300f0c" d="M 162.5,306.5 C 205.669,305.169 249.002,305.169 292.5,306.5C 292.376,307.107 292.043,307.44 291.5,307.5C 248.67,306.501 205.67,306.168 162.5,306.5 Z"/></g>
<g><path style="opacity:1" fill="#32100d" d="M 401.5,305.5 C 377.5,306.167 353.5,306.833 329.5,307.5C 328.957,307.44 328.624,307.107 328.5,306.5C 352.824,305.5 377.158,305.167 401.5,305.5 Z"/></g>
<g><path style="opacity:1" fill="#fbf1c0" d="M 125.5,306.5 C 132.833,306.5 140.167,306.5 147.5,306.5C 153.51,377.028 189.177,425.862 254.5,453C 314.282,471.846 368.616,461.846 417.5,423C 452.118,391.927 470.785,353.094 473.5,306.5C 481.087,306.186 488.587,306.519 496,307.5C 490.216,382.254 453.716,436.087 386.5,469C 314.101,498.039 247.767,488.039 187.5,439C 148.041,403.583 127.374,359.417 125.5,306.5 Z"/></g>
<g><path style="opacity:1" fill="#f54e42" d="M 162.5,306.5 C 205.67,306.168 248.67,306.501 291.5,307.5C 260.868,337.632 230.368,367.965 200,398.5C 176.664,372.343 164.164,341.676 162.5,306.5 Z"/></g>
<g><path style="opacity:1" fill="#7d362f" d="M 301.5,318.5 C 301.56,317.957 301.893,317.624 302.5,317.5C 303.5,360.828 303.833,404.162 303.5,447.5C 300.287,447.81 297.287,447.477 294.5,446.5C 297.167,446.5 299.833,446.5 302.5,446.5C 302.832,403.663 302.499,360.997 301.5,318.5 Z"/></g>
<g><path style="opacity:1" fill="#834940" d="M 319.5,318.5 C 318.501,360.997 318.168,403.663 318.5,446.5C 320.833,446.5 323.167,446.5 325.5,446.5C 323.052,447.473 320.385,447.806 317.5,447.5C 317.167,404.162 317.5,360.828 318.5,317.5C 319.107,317.624 319.44,317.957 319.5,318.5 Z"/></g>
<g><path style="opacity:1" fill="#fc6e60" d="M 301.5,318.5 C 302.499,360.997 302.832,403.663 302.5,446.5C 299.833,446.5 297.167,446.5 294.5,446.5C 262.412,442.952 234.412,430.452 210.5,409C 240.701,378.632 271.035,348.465 301.5,318.5 Z"/></g>
<g><path style="opacity:1" fill="#fc8c7b" d="M 319.5,318.5 C 350.006,348.172 380.006,378.339 409.5,409C 385.939,430.938 357.939,443.438 325.5,446.5C 323.167,446.5 320.833,446.5 318.5,446.5C 318.168,403.663 318.501,360.997 319.5,318.5 Z"/></g>
<g><path style="opacity:1" fill="#070101" d="M 190.5,324.5 C 201.966,324.763 204.466,329.763 198,339.5C 188.277,345.435 183.944,342.768 185,331.5C 186.666,329.004 188.5,326.671 190.5,324.5 Z"/></g>
<g><path style="opacity:1" fill="#080201" d="M 422.5,324.5 C 432.755,324.257 437.255,329.257 436,339.5C 429.897,344.194 424.897,343.194 421,336.5C 418.784,332.132 419.284,328.132 422.5,324.5 Z"/></g>
<g><path style="opacity:1" fill="#0b0302" d="M 205.5,345.5 C 212.568,345.261 215.734,348.595 215,355.5C 214.215,357.286 213.049,358.786 211.5,360C 207.823,360.718 204.157,361.051 200.5,361C 195.013,357.39 194.346,353.056 198.5,348C 200.927,347.098 203.26,346.264 205.5,345.5 Z"/></g>
<g><path style="opacity:1" fill="#0d0402" d="M 410.5,345.5 C 415.486,345.33 419.986,346.663 424,349.5C 426.565,358.608 423.065,362.441 413.5,361C 407.49,359.992 404.99,356.492 406,350.5C 407.193,348.503 408.693,346.836 410.5,345.5 Z"/></g>
<g><path style="opacity:1" fill="#0a0302" d="M 253.5,391.5 C 263.09,392.136 266.257,397.136 263,406.5C 258.333,413.167 253.667,413.167 249,406.5C 248.333,403.167 248.333,399.833 249,396.5C 250.025,394.313 251.525,392.646 253.5,391.5 Z"/></g>
<g><path style="opacity:1" fill="#090403" d="M 362.5,391.5 C 366.794,391.198 369.961,392.864 372,396.5C 372.667,399.833 372.667,403.167 372,406.5C 369.224,411.092 365.391,412.258 360.5,410C 359.299,409.097 358.465,407.931 358,406.5C 357.333,402.833 357.333,399.167 358,395.5C 359.397,393.93 360.897,392.596 362.5,391.5 Z"/></g>
<g><path style="opacity:1" fill="#0d0504" d="M 276.5,402.5 C 285.054,401.872 288.221,405.538 286,413.5C 283.455,417.059 280.121,419.392 276,420.5C 269.204,418.907 267.204,414.907 270,408.5C 272.063,406.266 274.229,404.266 276.5,402.5 Z"/></g>
<g><path style="opacity:1" fill="#0b0504" d="M 337.5,402.5 C 343.269,401.634 347.769,403.634 351,408.5C 353.607,413.456 352.44,417.289 347.5,420C 345.029,420.706 342.695,420.373 340.5,419C 338.667,417.167 336.833,415.333 335,413.5C 332.584,409.078 333.417,405.411 337.5,402.5 Z"/></g>
</svg>
