<?xml version="1.0" encoding="UTF-8"?>
<!DOCTYPE svg PUBLIC "-//W3C//DTD SVG 1.1//EN" "http://www.w3.org/Graphics/SVG/1.1/DTD/svg11.dtd">
<svg xmlns="http://www.w3.org/2000/svg" version="1.1" width="512px" height="512px" style="shape-rendering:geometricPrecision; text-rendering:geometricPrecision; image-rendering:optimizeQuality; fill-rule:evenodd; clip-rule:evenodd" xmlns:xlink="http://www.w3.org/1999/xlink">
<g><path style="opacity:0.971" fill="#010201" d="M 283.5,-0.5 C 302.167,-0.5 320.833,-0.5 339.5,-0.5C 341.739,1.47656 343.073,3.97656 343.5,7C 339.468,20.2634 335.134,33.4301 330.5,46.5C 341.485,47.3324 352.485,47.8324 363.5,48C 365.871,49.7432 367.205,52.0766 367.5,55C 346.397,111.642 324.897,168.142 303,224.5C 294.927,248.199 289.927,272.532 288,297.5C 287.667,345.833 287.333,394.167 287,442.5C 286.587,445.232 285.92,447.899 285,450.5C 283.303,452.699 281.803,455.032 280.5,457.5C 285.993,470.148 290.993,482.981 295.5,496C 293.104,503.761 288.27,505.595 281,501.5C 275.766,488.603 270.266,475.937 264.5,463.5C 263.667,477.488 263.167,491.488 263,505.5C 262.436,507.887 261.27,509.887 259.5,511.5C 256.833,511.5 254.167,511.5 251.5,511.5C 249.856,510.684 248.69,509.35 248,507.5C 247.5,492.837 247.333,478.17 247.5,463.5C 245.876,463.36 244.71,464.027 244,465.5C 239.529,477.246 234.862,488.913 230,500.5C 226.281,503.902 222.114,504.402 217.5,502C 215.019,497.977 214.852,493.811 217,489.5C 221.371,478.594 225.871,467.761 230.5,457C 227.193,454.222 225.026,450.722 224,446.5C 223.667,400.167 223.333,353.833 223,307.5C 222.21,277.549 216.543,248.549 206,220.5C 184.467,165.729 163.633,110.729 143.5,55.5C 143.151,52.0286 144.484,49.5286 147.5,48C 159.167,47.6667 170.833,47.3333 182.5,47C 179.665,39.3279 177.332,31.4945 175.5,23.5C 175.151,20.0286 176.484,17.5286 179.5,16C 198.167,15.3333 216.833,15.3333 235.5,16C 237.049,17.214 238.215,18.714 239,20.5C 244.465,38.5612 250.131,56.5612 256,74.5C 264.198,50.9075 272.198,27.2409 280,3.5C 280.69,1.64977 281.856,0.316435 283.5,-0.5 Z"/></g>
<g><path style="opacity:1" fill="#93c97f" d="M 308.5,14.5 C 295.872,48.7268 282.872,82.7268 269.5,116.5C 266.06,110.329 264.56,103.663 265,96.5C 273.802,69.7592 282.802,43.0925 292,16.5C 297.197,14.5798 302.697,13.9132 308.5,14.5 Z"/></g>
<g><path style="opacity:1" fill="#add980" d="M 308.5,14.5 C 313.833,14.5 319.167,14.5 324.5,14.5C 321.167,25.5 317.833,36.5 314.5,47.5C 308.569,47.0555 304.735,49.7222 303,55.5C 301.067,60.4671 299.233,65.4671 297.5,70.5C 297.728,73.5665 299.061,75.8998 301.5,77.5C 300.799,83.205 298.799,88.205 295.5,92.5C 292.348,91.9586 289.848,92.9586 288,95.5C 282.941,107.343 278.274,119.343 274,131.5C 271.789,126.702 270.289,121.702 269.5,116.5C 282.872,82.7268 295.872,48.7268 308.5,14.5 Z"/></g>
<g><path style="opacity:1" fill="#7bbc7f" d="M 210.5,30.5 C 226.224,74.836 242.057,119.169 258,163.5C 258.377,164.942 259.21,165.942 260.5,166.5C 258.771,170.845 256.938,175.178 255,179.5C 253.819,175.637 251.986,172.137 249.5,169C 247.19,168.503 244.857,168.337 242.5,168.5C 240.507,162.51 238.507,156.51 236.5,150.5C 240.764,146.929 241.597,142.596 239,137.5C 228.137,109.912 217.47,82.2451 207,54.5C 205.795,50.1231 202.961,47.7898 198.5,47.5C 197.242,42.0578 195.575,36.7245 193.5,31.5C 199.128,30.5046 204.794,30.1712 210.5,30.5 Z"/></g>
<g><path style="opacity:1" fill="#93c97f" d="M 210.5,30.5 C 215.833,30.5 221.167,30.5 226.5,30.5C 238.688,70.5668 251.188,110.567 264,150.5C 264.667,152.833 264.667,155.167 264,157.5C 262.729,160.484 261.562,163.484 260.5,166.5C 259.21,165.942 258.377,164.942 258,163.5C 242.057,119.169 226.224,74.836 210.5,30.5 Z"/></g>
<g><path style="opacity:1" fill="#7cbc7f" d="M 194.5,63.5 C 189.156,63.334 183.823,63.5006 178.5,64C 198.329,115.483 218.162,166.983 238,218.5C 242.778,233.61 246.611,248.944 249.5,264.5C 244.681,265.827 240.181,267.827 236,270.5C 232.584,252.835 227.917,235.501 222,218.5C 201.862,166.582 182.029,114.582 162.5,62.5C 173.346,62.1722 184.013,62.5056 194.5,63.5 Z"/></g>
<g><path style="opacity:1" fill="#94ca80" d="M 194.5,63.5 C 205.09,90.7655 215.59,118.099 226,145.5C 228.061,149.981 231.561,151.648 236.5,150.5C 238.507,156.51 240.507,162.51 242.5,168.5C 238.686,171.152 237.519,174.819 239,179.5C 251.071,206.879 260.237,235.212 266.5,264.5C 266.333,265.167 266.167,265.833 266,266.5C 260.677,264.763 255.177,264.096 249.5,264.5C 246.611,248.944 242.778,233.61 238,218.5C 218.162,166.983 198.329,115.483 178.5,64C 183.823,63.5006 189.156,63.334 194.5,63.5 Z"/></g>
<g><path style="opacity:1" fill="#94ca80" d="M 347.5,64.5 C 342.36,63.5119 337.026,63.1786 331.5,63.5C 311.5,116.5 291.5,169.5 271.5,222.5C 268.271,215.489 265.604,208.156 263.5,200.5C 275.371,168.721 287.537,137.055 300,105.5C 303.149,99.3001 301.649,94.9668 295.5,92.5C 298.799,88.205 300.799,83.205 301.5,77.5C 304.214,78.863 306.881,78.6963 309.5,77C 312.402,72.6313 314.736,67.9646 316.5,63C 327.182,62.1676 337.849,62.3343 348.5,63.5C 348.376,64.1067 348.043,64.44 347.5,64.5 Z"/></g>
<g><path style="opacity:1" fill="#adda81" d="M 347.5,64.5 C 328.968,113.594 310.134,162.594 291,211.5C 286.185,224.61 282.185,237.943 279,251.5C 276.31,241.881 273.81,232.215 271.5,222.5C 291.5,169.5 311.5,116.5 331.5,63.5C 337.026,63.1786 342.36,63.5119 347.5,64.5 Z"/></g>
<g><path style="opacity:1" fill="#fceaaf" d="M 253.5,279.5 C 254.055,285.154 254.555,290.82 255,296.5C 255.333,340.167 255.667,383.833 256,427.5C 258.065,435.454 263.232,439.454 271.5,439.5C 271.42,444.149 269.086,446.982 264.5,448C 257.833,448.667 251.167,448.667 244.5,448C 242,446.833 240.167,445 239,442.5C 238.333,392.167 238.333,341.833 239,291.5C 241.315,284.344 246.148,280.344 253.5,279.5 Z"/></g>
<g><path style="opacity:1" fill="#fef5d7" d="M 253.5,279.5 C 265.219,280.204 271.052,286.538 271,298.5C 271.5,345.499 271.667,392.499 271.5,439.5C 263.232,439.454 258.065,435.454 256,427.5C 255.667,383.833 255.333,340.167 255,296.5C 254.555,290.82 254.055,285.154 253.5,279.5 Z"/></g>
</svg>
