<?xml version="1.0" encoding="UTF-8"?>
<!DOCTYPE svg PUBLIC "-//W3C//DTD SVG 1.1//EN" "http://www.w3.org/Graphics/SVG/1.1/DTD/svg11.dtd">
<svg xmlns="http://www.w3.org/2000/svg" version="1.1" width="512px" height="512px" style="shape-rendering:geometricPrecision; text-rendering:geometricPrecision; image-rendering:optimizeQuality; fill-rule:evenodd; clip-rule:evenodd" xmlns:xlink="http://www.w3.org/1999/xlink">
<g><path style="opacity:0.97" fill="#020001" d="M 179.5,99.5 C 182.034,101.396 183.701,103.896 184.5,107C 175.084,132.347 176.917,156.847 190,180.5C 192.988,185.482 196.655,189.815 201,193.5C 216.316,186.424 229.983,188.757 242,200.5C 252,214.167 252,227.833 242,241.5C 235.756,248.538 227.923,252.205 218.5,252.5C 217.136,280.203 202.802,291.037 175.5,285C 161.7,281.933 149.366,275.933 138.5,267C 126.028,253.187 112.361,240.853 97.5,230C 74.0269,217.454 49.0269,212.787 22.5,216C 13.1,221.8 12.1,228.8 19.5,237C 20.8333,237.667 22.1667,238.333 23.5,239C 34.1667,239.333 44.8333,239.667 55.5,240C 70.4553,241.981 83.7886,247.648 95.5,257C 108.305,271.146 122.305,283.812 137.5,295C 153.256,304.191 170.256,309.524 188.5,311C 197.482,315.473 200.649,322.64 198,332.5C 192.857,349.634 184.023,364.467 171.5,377C 156.178,389.885 138.512,395.551 118.5,394C 116.281,392.399 114.948,390.233 114.5,387.5C 114.327,383.83 115.993,381.33 119.5,380C 143.415,379.799 161.582,369.633 174,349.5C 177.557,342.163 180.723,334.663 183.5,327C 183.095,326.055 182.428,325.388 181.5,325C 178.11,324.754 174.777,324.254 171.5,323.5C 167.307,336.099 158.641,341.265 145.5,339C 137.145,337.228 129.978,333.395 124,327.5C 119.179,319.821 119.346,312.321 124.5,305C 123.034,304.365 121.7,303.531 120.5,302.5C 113.368,309.518 105.035,311.351 95.5,308C 87.4943,302.334 81.3277,295.167 77,286.5C 76.7542,282.38 76.5876,278.38 76.5,274.5C 72.8363,277.332 68.6697,278.665 64,278.5C 57.766,277.734 51.5993,276.567 45.5,275C 36.9951,270.826 32.9951,263.992 33.5,254.5C 16.8504,256.461 5.51707,249.794 -0.5,234.5C -0.5,229.5 -0.5,224.5 -0.5,219.5C 2.75018,209.753 9.41684,203.587 19.5,201C 53.0659,196.311 84.0659,202.978 112.5,221C 127.167,234.333 141.833,247.667 156.5,261C 168.495,268.863 181.495,271.863 195.5,270C 199.858,267.773 202.024,264.273 202,259.5C 196.912,256.706 191.745,254.039 186.5,251.5C 179.726,260.143 171.059,262.643 160.5,259C 156.5,256.333 152.5,253.667 148.5,251C 139.327,242.796 137.661,233.296 143.5,222.5C 142.167,221.5 140.833,220.5 139.5,219.5C 130.383,224.99 121.383,224.824 112.5,219C 107.565,214.068 103.399,208.568 100,202.5C 97.523,194.215 99.3563,187.048 105.5,181C 103.998,178.456 102.164,176.29 100,174.5C 90.6904,177.396 83.0237,175.062 77,167.5C 72.0594,161.119 68.8927,153.952 67.5,146C 67.974,138.383 71.3073,132.383 77.5,128C 76.5212,125.567 75.8545,123.067 75.5,120.5C 66.8565,121.676 59.6898,119.009 54,112.5C 48.8672,103.447 46.8672,93.7803 48,83.5C 50.0926,78.4213 53.2593,74.2547 57.5,71C 51.5004,57.6631 53.5004,45.6631 63.5,35C 74.596,28.0616 85.9294,27.7283 97.5,34C 99.3333,35.8333 101.167,37.6667 103,39.5C 113.223,65.2815 122.889,91.2815 132,117.5C 140.694,136.905 152.361,154.238 167,169.5C 164.487,159.578 162.987,149.411 162.5,139C 162.658,125.877 165.491,113.377 171,101.5C 173.565,99.8207 176.398,99.154 179.5,99.5 Z"/></g>
<g><path style="opacity:0.967" fill="#020001" d="M 511.5,219.5 C 511.5,224.5 511.5,229.5 511.5,234.5C 505.483,249.794 494.15,256.461 477.5,254.5C 478.005,263.992 474.005,270.826 465.5,275C 457.678,277.625 449.678,278.625 441.5,278C 438.888,277.361 436.554,276.194 434.5,274.5C 434.412,278.38 434.246,282.38 434,286.5C 429.672,295.167 423.506,302.334 415.5,308C 405.965,311.351 397.632,309.518 390.5,302.5C 389.3,303.531 387.966,304.365 386.5,305C 392.988,316.718 390.654,326.385 379.5,334C 374.833,335.667 370.167,337.333 365.5,339C 352.359,341.265 343.693,336.099 339.5,323.5C 336.223,324.254 332.89,324.754 329.5,325C 328.572,325.388 327.905,326.055 327.5,327C 331.503,341.682 338.836,354.349 349.5,365C 357.061,371.447 365.728,375.781 375.5,378C 409.026,377.064 438.693,387.064 464.5,408C 474.667,418.167 484.833,428.333 495,438.5C 505.191,456.133 501.691,470.3 484.5,481C 476.381,483.229 468.381,482.896 460.5,480C 455.684,476.019 451.018,471.852 446.5,467.5C 438.433,474.378 429.767,475.211 420.5,470C 415,465.833 410.167,461 406,455.5C 404.701,452.638 403.868,449.638 403.5,446.5C 404.343,443.152 404.843,439.819 405,436.5C 403,435.833 401,435.167 399,434.5C 398.248,447.419 391.414,454.086 378.5,454.5C 370.795,454.623 363.462,453.123 356.5,450C 349.041,444.121 346.707,436.621 349.5,427.5C 348.372,426.738 347.205,426.071 346,425.5C 338.732,437.86 328.565,441.027 315.5,435C 308.639,430.806 303.139,425.306 299,418.5C 296.771,410.319 298.604,403.153 304.5,397C 302.689,394.053 300.689,394.053 298.5,397C 288.782,400.79 280.282,398.957 273,391.5C 270.333,386.167 267.667,380.833 265,375.5C 262.598,363.475 266.764,354.641 277.5,349C 269.178,333.583 257.178,329.916 241.5,338C 237.849,340.976 235.182,344.642 233.5,349C 244.236,354.641 248.402,363.475 246,375.5C 243.333,380.833 240.667,386.167 238,391.5C 229.134,400.609 219.468,401.609 209,394.5C 206.022,396.663 206.355,398.663 210,400.5C 214.637,409.352 213.804,417.686 207.5,425.5C 203.356,428.476 199.356,431.643 195.5,435C 182.435,441.027 172.268,437.86 165,425.5C 163.795,426.071 162.628,426.738 161.5,427.5C 164.809,440.383 160.142,448.883 147.5,453C 140.202,454.283 132.869,454.617 125.5,454C 116.668,450.504 112.168,444.004 112,434.5C 110.266,435.249 108.433,435.749 106.5,436C 105.978,436.561 105.645,437.228 105.5,438C 108.31,445.282 107.477,452.115 103,458.5C 99.1334,462.702 94.9668,466.535 90.5,470C 81.2334,475.211 72.5667,474.378 64.5,467.5C 60.6819,470.818 57.0152,474.318 53.5,478C 41.2117,484.646 29.5451,483.813 18.5,475.5C 8.81773,463.794 7.98439,451.461 16,438.5C 26.1667,428.333 36.3333,418.167 46.5,408C 58.3896,397.386 72.0563,389.886 87.5,385.5C 91.1542,385.48 93.4876,387.147 94.5,390.5C 94.9804,393.685 94.3137,396.519 92.5,399C 81.3963,403.383 71.063,409.049 61.5,416C 50.0292,426.47 38.8625,437.303 28,448.5C 23.7593,456.446 25.5927,462.613 33.5,467C 37.4525,467.912 41.1191,467.245 44.5,465C 56.5989,451.896 69.5989,439.896 83.5,429C 98.0114,420.497 113.678,416.83 130.5,418C 167.427,413.966 194.261,395.466 211,362.5C 214.333,354.5 217.667,346.5 221,338.5C 235.231,317.848 253.731,313.015 276.5,324C 279.965,326.463 283.131,329.296 286,332.5C 292.95,347.342 300.283,362.008 308,376.5C 330.577,406.367 360.743,420.534 398.5,419C 413.594,421.216 426.928,427.216 438.5,437C 448.167,446.667 457.833,456.333 467.5,466C 479.114,469.056 484.947,464.556 485,452.5C 471.757,435.923 456.591,421.423 439.5,409C 421.781,399.154 402.781,394.487 382.5,395C 355.332,391.812 335.165,378.312 322,354.5C 317.719,345.489 314.552,336.156 312.5,326.5C 312.38,320.122 315.047,315.289 320.5,312C 332.905,309.517 345.239,306.517 357.5,303C 366.286,299.108 374.62,294.441 382.5,289C 393.804,278.697 404.804,268.03 415.5,257C 436.516,241.162 460.183,235.162 486.5,239C 495.107,235.954 497.94,230.12 495,221.5C 493.039,218.865 490.539,217.031 487.5,216C 455.191,211.659 426.191,219.326 400.5,239C 388.401,252.104 375.401,264.104 361.5,275C 346.638,283.639 330.638,287.306 313.5,286C 298.312,280.15 291.312,268.984 292.5,252.5C 271.046,249.636 260.879,237.303 262,215.5C 267.809,195.703 280.975,187.203 301.5,190C 304.742,191.639 308.076,192.639 311.5,193C 330.361,171.058 336.528,145.892 330,117.5C 315.942,78.4598 288.109,59.6265 246.5,61C 228.198,63.9835 212.532,71.9835 199.5,85C 196.177,85.932 193.177,85.432 190.5,83.5C 187.505,78.644 188.172,74.144 192.5,70C 225.592,42.2818 261.592,37.9485 300.5,57C 331.119,75.5452 347.119,102.879 348.5,139C 348.013,149.411 346.513,159.578 344,169.5C 354.46,158.573 363.46,146.573 371,133.5C 373.904,131.773 377.07,131.107 380.5,131.5C 383.651,134.136 384.818,137.469 384,141.5C 368.735,168.435 348.235,190.601 322.5,208C 326.417,216.453 326.417,224.953 322.5,233.5C 322.833,233.833 323.167,234.167 323.5,234.5C 365.069,210.431 395.569,176.431 415,132.5C 423.667,108.5 432.333,84.5 441,60.5C 441.717,46.6067 435.551,42.1067 422.5,47C 421.667,47.8333 420.833,48.6667 420,49.5C 412.272,70.0152 404.939,90.6819 398,111.5C 395.303,114.87 391.803,116.204 387.5,115.5C 383.829,112.707 382.662,109.04 384,104.5C 391.41,82.6023 399.41,60.9356 408,39.5C 415.898,30.5345 425.731,27.3678 437.5,30C 449.832,34.4751 456.499,43.3084 457.5,56.5C 456.681,61.4599 455.348,66.2932 453.5,71C 462.092,77.3707 465.259,85.8707 463,96.5C 461.393,101.988 459.393,107.322 457,112.5C 451.31,119.009 444.144,121.676 435.5,120.5C 435.145,123.067 434.479,125.567 433.5,128C 442.255,134.516 445.088,143.016 442,153.5C 438.947,160.444 434.781,166.611 429.5,172C 423.755,175.525 417.588,176.358 411,174.5C 408.836,176.29 407.002,178.456 405.5,181C 414.125,190.026 414.625,199.526 407,209.5C 403.796,212.369 400.963,215.535 398.5,219C 389.617,224.824 380.617,224.99 371.5,219.5C 370.167,220.5 368.833,221.5 367.5,222.5C 373.343,233.274 371.676,242.774 362.5,251C 358.5,253.667 354.5,256.333 350.5,259C 339.941,262.643 331.274,260.143 324.5,251.5C 319.255,254.039 314.088,256.706 309,259.5C 309.56,266.727 313.56,270.727 321,271.5C 333.049,270.817 344.216,267.317 354.5,261C 369.167,247.667 383.833,234.333 398.5,221C 426.934,202.978 457.934,196.311 491.5,201C 501.583,203.587 508.25,209.753 511.5,219.5 Z"/></g>
<g><path style="opacity:1" fill="#e3377d" d="M 77.5,44.5 C 82.8996,43.7849 87.3996,45.4515 91,49.5C 99.5304,72.7574 107.864,96.0907 116,119.5C 131.365,156.2 155.532,185.7 188.5,208C 184.581,216.441 184.581,224.941 188.5,233.5C 188.167,233.833 187.833,234.167 187.5,234.5C 144.273,209.385 113.106,173.718 94,127.5C 86.197,105.091 78.197,82.7573 70,60.5C 68.5048,53.1617 71.0048,47.8284 77.5,44.5 Z"/></g>
<g><path style="opacity:0.999" fill="#e4377d" d="M 380.5,131.5 C 383.381,126.405 385.714,121.072 387.5,115.5C 391.803,116.204 395.303,114.87 398,111.5C 404.939,90.6819 412.272,70.0152 420,49.5C 420.833,48.6667 421.667,47.8333 422.5,47C 435.551,42.1067 441.717,46.6067 441,60.5C 432.333,84.5 423.667,108.5 415,132.5C 395.569,176.431 365.069,210.431 323.5,234.5C 323.167,234.167 322.833,233.833 322.5,233.5C 326.417,224.953 326.417,216.453 322.5,208C 348.235,190.601 368.735,168.435 384,141.5C 384.818,137.469 383.651,134.136 380.5,131.5 Z"/></g>
<g><path style="opacity:1" fill="#e85691" d="M 94.5,390.5 C 101.074,388.942 107.741,387.942 114.5,387.5C 114.948,390.233 116.281,392.399 118.5,394C 138.512,395.551 156.178,389.885 171.5,377C 184.023,364.467 192.857,349.634 198,332.5C 200.649,322.64 197.482,315.473 188.5,311C 170.256,309.524 153.256,304.191 137.5,295C 122.305,283.812 108.305,271.146 95.5,257C 83.7886,247.648 70.4553,241.981 55.5,240C 44.8333,239.667 34.1667,239.333 23.5,239C 22.1667,238.333 20.8333,237.667 19.5,237C 12.1,228.8 13.1,221.8 22.5,216C 49.0269,212.787 74.0269,217.454 97.5,230C 112.361,240.853 126.028,253.187 138.5,267C 149.366,275.933 161.7,281.933 175.5,285C 202.802,291.037 217.136,280.203 218.5,252.5C 227.923,252.205 235.756,248.538 242,241.5C 252,227.833 252,214.167 242,200.5C 229.983,188.757 216.316,186.424 201,193.5C 196.655,189.815 192.988,185.482 190,180.5C 176.917,156.847 175.084,132.347 184.5,107C 183.701,103.896 182.034,101.396 179.5,99.5C 182.66,93.8562 186.327,88.5229 190.5,83.5C 193.177,85.432 196.177,85.932 199.5,85C 212.532,71.9835 228.198,63.9835 246.5,61C 288.109,59.6265 315.942,78.4598 330,117.5C 336.528,145.892 330.361,171.058 311.5,193C 308.076,192.639 304.742,191.639 301.5,190C 280.975,187.203 267.809,195.703 262,215.5C 260.879,237.303 271.046,249.636 292.5,252.5C 291.312,268.984 298.312,280.15 313.5,286C 330.638,287.306 346.638,283.639 361.5,275C 375.401,264.104 388.401,252.104 400.5,239C 426.191,219.326 455.191,211.659 487.5,216C 490.539,217.031 493.039,218.865 495,221.5C 497.94,230.12 495.107,235.954 486.5,239C 460.183,235.162 436.516,241.162 415.5,257C 404.804,268.03 393.804,278.697 382.5,289C 374.62,294.441 366.286,299.108 357.5,303C 345.239,306.517 332.905,309.517 320.5,312C 315.047,315.289 312.38,320.122 312.5,326.5C 314.552,336.156 317.719,345.489 322,354.5C 335.165,378.312 355.332,391.812 382.5,395C 402.781,394.487 421.781,399.154 439.5,409C 456.591,421.423 471.757,435.923 485,452.5C 484.947,464.556 479.114,469.056 467.5,466C 457.833,456.333 448.167,446.667 438.5,437C 426.928,427.216 413.594,421.216 398.5,419C 360.743,420.534 330.577,406.367 308,376.5C 300.283,362.008 292.95,347.342 286,332.5C 283.131,329.296 279.965,326.463 276.5,324C 253.731,313.015 235.231,317.848 221,338.5C 217.667,346.5 214.333,354.5 211,362.5C 194.261,395.466 167.427,413.966 130.5,418C 113.678,416.83 98.0114,420.497 83.5,429C 69.5989,439.896 56.5989,451.896 44.5,465C 41.1191,467.245 37.4525,467.912 33.5,467C 25.5927,462.613 23.7593,456.446 28,448.5C 38.8625,437.303 50.0292,426.47 61.5,416C 71.063,409.049 81.3963,403.383 92.5,399C 94.3137,396.519 94.9804,393.685 94.5,390.5 Z"/></g>
<g><path style="opacity:1" fill="#0c0407" d="M 278.5,86.5 C 286.201,86.3622 289.367,90.0289 288,97.5C 282.837,103.062 278.171,102.729 274,96.5C 273.333,94.8333 273.333,93.1667 274,91.5C 275.366,89.6383 276.866,87.9717 278.5,86.5 Z"/></g>
<g><path style="opacity:1" fill="#d683a4" d="M 62.5,87.5 C 65.6886,92.0606 68.0219,97.2272 69.5,103C 67.8359,104.767 66.6692,104.267 66,101.5C 64.5178,96.8916 63.3511,92.2249 62.5,87.5 Z"/></g>
<g><path style="opacity:1" fill="#d381a2" d="M 446.5,87.5 C 447.649,87.7911 448.316,88.6244 448.5,90C 447.136,93.7599 445.969,97.5932 445,101.5C 444.331,104.267 443.164,104.767 441.5,103C 443.328,97.8535 444.995,92.6868 446.5,87.5 Z"/></g>
<g><path style="opacity:1" fill="#050103" d="M 305.5,111.5 C 313.885,110.716 317.051,114.383 315,122.5C 311.269,126.05 307.269,126.383 303,123.5C 300.523,118.669 301.356,114.669 305.5,111.5 Z"/></g>
<g><path style="opacity:1" fill="#d985a7" d="M 83.5,143.5 C 86.5589,147.937 89.3922,152.603 92,157.5C 92.6877,158.332 92.521,158.998 91.5,159.5C 86.7079,155.249 84.0413,149.916 83.5,143.5 Z"/></g>
<g><path style="opacity:1" fill="#0c0407" d="M 288.5,143.5 C 296.201,143.362 299.367,147.029 298,154.5C 292.837,160.062 288.171,159.729 284,153.5C 283.438,149.232 284.938,145.898 288.5,143.5 Z"/></g>
<g><path style="opacity:1" fill="#d481a3" d="M 425.5,143.5 C 426.649,143.791 427.316,144.624 427.5,146C 426.339,150.156 424.505,153.989 422,157.5C 420.887,159.329 419.387,160.163 417.5,160C 421.113,154.941 423.779,149.441 425.5,143.5 Z"/></g>
<g><path style="opacity:1" fill="#dd87aa" d="M 114.5,193.5 C 115.239,193.369 115.906,193.536 116.5,194C 120.314,198.649 124.314,203.149 128.5,207.5C 127.277,208.614 125.944,208.781 124.5,208C 121.667,205.167 118.833,202.333 116,199.5C 114.872,197.655 114.372,195.655 114.5,193.5 Z"/></g>
<g><path style="opacity:1" fill="#de88ab" d="M 394.5,193.5 C 396.847,195.03 397.014,197.03 395,199.5C 392.167,202.333 389.333,205.167 386.5,208C 385.056,208.781 383.723,208.614 382.5,207.5C 386.897,203.108 390.897,198.442 394.5,193.5 Z"/></g>
<g><path style="opacity:1" fill="#faf0f0" d="M 211.5,204.5 C 228.636,203.13 235.802,210.796 233,227.5C 228.275,235.864 221.108,239.03 211.5,237C 201.883,231.823 198.717,223.99 202,213.5C 204.406,209.592 207.572,206.592 211.5,204.5 Z"/></g>
<g><path style="opacity:1" fill="#faf0f0" d="M 287.5,204.5 C 302.838,202.682 310.338,209.349 310,224.5C 305.763,236.369 297.597,240.202 285.5,236C 272.982,224.646 273.649,214.146 287.5,204.5 Z"/></g>
<g><path style="opacity:1" fill="#e089ac" d="M 155.5,232.5 C 161.612,235.395 167.279,239.062 172.5,243.5C 171.131,245.124 169.464,245.624 167.5,245C 163.4,242.533 159.566,239.699 156,236.5C 155.51,235.207 155.343,233.873 155.5,232.5 Z"/></g>
<g><path style="opacity:1" fill="#e089ac" d="M 352.5,232.5 C 353.5,232.5 354.5,232.5 355.5,232.5C 355.919,235.325 354.919,237.491 352.5,239C 348.99,241.182 345.49,243.349 342,245.5C 339.868,245.323 338.868,244.323 339,242.5C 343.835,239.511 348.335,236.178 352.5,232.5 Z"/></g>
<g><path style="opacity:1" fill="#de88ab" d="M 48.5,254.5 C 55.7227,254.142 62.3894,255.809 68.5,259.5C 67.7221,261.945 66.0554,263.278 63.5,263.5C 59.869,262.509 56.2023,261.676 52.5,261C 49.3072,259.974 47.9738,257.808 48.5,254.5 Z"/></g>
<g><path style="opacity:1" fill="#de88ab" d="M 453.5,254.5 C 456.5,254.5 459.5,254.5 462.5,254.5C 462.822,256.722 462.155,258.556 460.5,260C 456.059,261.402 451.559,262.568 447,263.5C 444.082,262.932 442.749,261.265 443,258.5C 446.554,257.042 450.054,255.708 453.5,254.5 Z"/></g>
<g><path style="opacity:1" fill="#e88db2" d="M 93.5,278.5 C 94.552,278.351 95.552,278.517 96.5,279C 100.333,282.833 104.167,286.667 108,290.5C 107.854,293.949 106.021,295.115 102.5,294C 99.3333,290.833 96.1667,287.667 93,284.5C 92.3224,282.402 92.4891,280.402 93.5,278.5 Z"/></g>
<g><path style="opacity:1" fill="#e88db2" d="M 414.5,278.5 C 418.225,278.78 419.392,280.78 418,284.5C 414.833,287.667 411.667,290.833 408.5,294C 404.979,295.115 403.146,293.949 403,290.5C 407.037,286.631 410.87,282.631 414.5,278.5 Z"/></g>
<g><path style="opacity:1" fill="#e38bae" d="M 137.5,312.5 C 143.062,315.022 148.729,317.356 154.5,319.5C 155.74,322.297 154.74,323.963 151.5,324.5C 147.06,323.298 142.726,321.798 138.5,320C 136.285,317.758 135.952,315.258 137.5,312.5 Z"/></g>
<g><path style="opacity:1" fill="#e28aae" d="M 371.5,312.5 C 373.722,312.559 374.722,313.725 374.5,316C 374.561,317.711 373.894,319.044 372.5,320C 368.124,321.403 363.79,322.903 359.5,324.5C 356.014,323.875 355.014,322.042 356.5,319C 361.823,317.333 366.823,315.166 371.5,312.5 Z"/></g>
<g><path style="opacity:1" fill="#e88db2" d="M 225.5,365.5 C 230,365.164 231.833,367.164 231,371.5C 228.746,375.007 226.746,378.673 225,382.5C 220.377,384.678 218.377,383.344 219,378.5C 221.705,374.423 223.872,370.09 225.5,365.5 Z"/></g>
<g><path style="opacity:1" fill="#e88db2" d="M 281.5,365.5 C 282.978,365.238 284.311,365.571 285.5,366.5C 287.412,370.66 289.579,374.66 292,378.5C 292.623,383.344 290.623,384.678 286,382.5C 284.254,378.673 282.254,375.007 280,371.5C 279.252,369.16 279.752,367.16 281.5,365.5 Z"/></g>
<g><path style="opacity:1" fill="#e78db1" d="M 193.5,407.5 C 196.955,408.128 198.122,410.128 197,413.5C 193.592,416.453 190.092,419.287 186.5,422C 181.115,423.45 179.448,421.617 181.5,416.5C 186.108,414.213 190.108,411.213 193.5,407.5 Z"/></g>
<g><path style="opacity:1" fill="#e78db2" d="M 315.5,407.5 C 320.435,410.587 325.268,413.921 330,417.5C 330.934,422.083 329.1,423.583 324.5,422C 322.167,420.333 319.833,418.667 317.5,417C 313.229,414.433 312.562,411.266 315.5,407.5 Z"/></g>
<g><path style="opacity:1" fill="#df88ab" d="M 139.5,431.5 C 142.119,431.232 144.619,431.565 147,432.5C 147.63,434.903 146.797,436.737 144.5,438C 140.486,438.39 136.486,438.89 132.5,439.5C 128.009,439.188 126.676,437.022 128.5,433C 132.356,432.823 136.023,432.323 139.5,431.5 Z"/></g>
<g><path style="opacity:1" fill="#db86a8" d="M 363.5,431.5 C 369.832,431.944 376.165,432.444 382.5,433C 384.163,437.519 382.496,439.686 377.5,439.5C 373.827,439.047 370.16,438.547 366.5,438C 364.081,436.491 363.081,434.325 363.5,431.5 Z"/></g>
<g><path style="opacity:1" fill="#e18aad" d="M 89.5,442.5 C 91.4411,444.011 91.9411,446.011 91,448.5C 88.1312,451.704 84.9646,454.537 81.5,457C 79.8333,457.667 78.1667,457.667 76.5,457C 75.5494,456.282 75.3828,455.449 76,454.5C 80.4784,450.365 84.9784,446.365 89.5,442.5 Z"/></g>
<g><path style="opacity:1" fill="#e18aad" d="M 420.5,442.5 C 425.579,446.134 430.412,450.134 435,454.5C 435.667,455.167 435.667,455.833 435,456.5C 433.274,457.576 431.441,457.743 429.5,457C 426.035,454.537 422.869,451.704 420,448.5C 419.322,446.402 419.489,444.402 420.5,442.5 Z"/></g>
</svg>
