<?xml version="1.0" encoding="UTF-8"?>
<!DOCTYPE svg PUBLIC "-//W3C//DTD SVG 1.1//EN" "http://www.w3.org/Graphics/SVG/1.1/DTD/svg11.dtd">
<svg xmlns="http://www.w3.org/2000/svg" version="1.1" width="512px" height="512px" style="shape-rendering:geometricPrecision; text-rendering:geometricPrecision; image-rendering:optimizeQuality; fill-rule:evenodd; clip-rule:evenodd" xmlns:xlink="http://www.w3.org/1999/xlink">
<g><path style="opacity:0.972" fill="#020100" d="M 511.5,212.5 C 511.5,235.5 511.5,258.5 511.5,281.5C 507.345,284.156 502.678,285.656 497.5,286C 486.33,289.836 480.663,297.669 480.5,309.5C 482.111,325.607 491.111,334.107 507.5,335C 509.35,335.69 510.684,336.856 511.5,338.5C 511.5,355.833 511.5,373.167 511.5,390.5C 507.808,401.021 500.475,407.521 489.5,410C 386.167,410.667 282.833,410.667 179.5,410C 177.667,409.5 176.5,408.333 176,406.5C 174.795,384.036 163.129,371.369 141,368.5C 119.098,371.071 107.431,383.404 106,405.5C 105.167,407.667 103.667,409.167 101.5,410C 74.8333,410.667 48.1667,410.667 21.5,410C 10.525,407.521 3.19164,401.021 -0.5,390.5C -0.5,331.167 -0.5,271.833 -0.5,212.5C 51.0108,176.497 102.678,140.664 154.5,105C 162.39,100.404 170.723,99.4036 179.5,102C 196.241,107.469 212.908,113.136 229.5,119C 230.333,119.833 231.167,120.667 232,121.5C 232.532,126.751 232.032,131.918 230.5,137C 233.944,156.125 245.278,165.125 264.5,164C 276.224,161.277 283.724,154.11 287,142.5C 288.823,140.833 290.99,139.833 293.5,139.5C 364.531,162.566 435.531,185.733 506.5,209C 508.323,209.997 509.99,211.164 511.5,212.5 Z"/></g>
<g><path style="opacity:1" fill="#fdce0c" d="M 455.5,207.5 C 416.5,208.167 377.5,208.833 338.5,209.5C 334.833,209.833 332.833,211.833 332.5,215.5C 325.5,216.833 318.5,216.833 311.5,215.5C 311.249,213.83 310.582,212.33 309.5,211C 303.947,209.43 298.281,209.097 292.5,210C 290.859,211.129 289.859,212.629 289.5,214.5C 282.781,216.405 275.781,217.071 268.5,216.5C 267.833,212.5 265.5,210.167 261.5,209.5C 184.833,208.833 108.167,208.167 31.5,207.5C 75.2864,177.554 118.953,147.387 162.5,117C 164.702,115.978 167.035,115.478 169.5,115.5C 185.01,119.559 200.343,124.225 215.5,129.5C 218.027,167.069 237.694,182.569 274.5,176C 284.195,171.629 292.029,165.129 298,156.5C 350.487,173.607 402.987,190.607 455.5,207.5 Z"/></g>
<g><path style="opacity:1" fill="#050300" d="M 159.5,147.5 C 178.521,146.688 187.687,155.688 187,174.5C 183.025,188.249 173.858,194.082 159.5,192C 145.342,187.197 139.842,177.363 143,162.5C 146.206,154.786 151.706,149.786 159.5,147.5 Z"/></g>
<g><path style="opacity:1" fill="#f6c90c" d="M 160.5,161.5 C 167.978,159.888 172.311,162.721 173.5,170C 172.309,177.44 167.975,180.107 160.5,178C 153.899,172.504 153.899,167.004 160.5,161.5 Z"/></g>
<g><path style="opacity:1" fill="#cba509" d="M 31.5,207.5 C 108.167,208.167 184.833,208.833 261.5,209.5C 184.166,209.667 106.833,209.5 29.5,209C 30.0442,208.283 30.7109,207.783 31.5,207.5 Z"/></g>
<g><path style="opacity:1" fill="#cba509" d="M 455.5,207.5 C 456.766,208.09 458.099,208.59 459.5,209C 419.168,209.5 378.835,209.667 338.5,209.5C 377.5,208.833 416.5,208.167 455.5,207.5 Z"/></g>
<g><path style="opacity:1" fill="#080500" d="M 311.5,215.5 C 310.531,221.924 306.698,224.591 300,223.5C 292.674,224.773 289.174,221.773 289.5,214.5C 289.859,212.629 290.859,211.129 292.5,210C 298.281,209.097 303.947,209.43 309.5,211C 310.582,212.33 311.249,213.83 311.5,215.5 Z"/></g>
<g><path style="opacity:1" fill="#fdae0f" d="M 289.5,214.5 C 289.174,221.773 292.674,224.773 300,223.5C 306.698,224.591 310.531,221.924 311.5,215.5C 318.5,216.833 325.5,216.833 332.5,215.5C 332.269,218.785 333.603,221.285 336.5,223C 390.166,223.5 443.832,223.667 497.5,223.5C 497.5,239.5 497.5,255.5 497.5,271.5C 477.346,275.826 466.679,288.326 465.5,309C 466.226,330.217 476.893,343.051 497.5,347.5C 497.667,360.504 497.5,373.504 497,386.5C 495.073,391.428 491.573,394.594 486.5,396C 387.5,396.667 288.5,396.667 189.5,396C 180.068,362.779 158.402,349.779 124.5,357C 106.679,364.326 96.0121,377.492 92.5,396.5C 69.4976,396.667 46.4976,396.5 23.5,396C 20.0976,394.6 17.2643,392.433 15,389.5C 13.5125,334.226 13.0125,278.892 13.5,223.5C 96.834,223.667 180.167,223.5 263.5,223C 266.493,221.841 268.16,219.675 268.5,216.5C 275.781,217.071 282.781,216.405 289.5,214.5 Z"/></g>
<g><path style="opacity:1" fill="#070300" d="M 68.5,256.5 C 93.8488,256.016 106.349,268.349 106,293.5C 100.583,312.23 88.083,320.73 68.5,319C 50.4346,313.049 42.268,300.549 44,281.5C 47.6829,268.651 55.8496,260.318 68.5,256.5 Z"/></g>
<g><path style="opacity:1" fill="#050200" d="M 364.5,256.5 C 387.648,255.312 402.815,265.645 410,287.5C 412.471,311.411 402.304,326.911 379.5,334C 361.982,336.822 348.149,330.989 338,316.5C 327.397,294.501 331.897,276.334 351.5,262C 355.788,259.735 360.121,257.902 364.5,256.5 Z"/></g>
<g><path style="opacity:1" fill="#f89117" d="M 70.5,270.5 C 85.1591,269.993 92.3257,276.993 92,291.5C 88.617,301.945 81.4504,306.445 70.5,305C 57.786,299.081 54.6193,289.914 61,277.5C 63.7901,274.535 66.9567,272.202 70.5,270.5 Z"/></g>
<g><path style="opacity:1" fill="#fb9217" d="M 366.5,270.5 C 387.992,270.511 397.826,281.177 396,302.5C 390.073,317.381 379.24,323.214 363.5,320C 346.927,311.953 342.427,299.453 350,282.5C 354.286,276.698 359.786,272.698 366.5,270.5 Z"/></g>
<g><path style="opacity:1" fill="#060300" d="M 247.5,312.5 C 247.896,315.482 247.229,318.149 245.5,320.5C 226.407,322.392 219.574,332.392 225,350.5C 234.664,361.685 244.998,362.352 256,352.5C 258.549,348.185 259.882,343.519 260,338.5C 261.055,335.944 262.888,334.277 265.5,333.5C 273.071,334.644 275.571,338.977 273,346.5C 267.482,365.85 254.649,374.683 234.5,373C 213.804,366.113 205.637,351.946 210,330.5C 216.402,315.053 227.902,307.887 244.5,309C 245.71,310.039 246.71,311.206 247.5,312.5 Z"/></g>
<g><path style="opacity:1" fill="#fa9217" d="M 247.5,312.5 C 249.11,316.352 252.11,318.852 256.5,320C 261.146,323.474 264.146,327.974 265.5,333.5C 262.888,334.277 261.055,335.944 260,338.5C 259.882,343.519 258.549,348.185 256,352.5C 244.998,362.352 234.664,361.685 225,350.5C 219.574,332.392 226.407,322.392 245.5,320.5C 247.229,318.149 247.896,315.482 247.5,312.5 Z"/></g>
</svg>
