<?xml version="1.0" encoding="UTF-8"?>
<!DOCTYPE svg PUBLIC "-//W3C//DTD SVG 1.1//EN" "http://www.w3.org/Graphics/SVG/1.1/DTD/svg11.dtd">
<svg xmlns="http://www.w3.org/2000/svg" version="1.1" width="512px" height="512px" style="shape-rendering:geometricPrecision; text-rendering:geometricPrecision; image-rendering:optimizeQuality; fill-rule:evenodd; clip-rule:evenodd" xmlns:xlink="http://www.w3.org/1999/xlink">
<g><path style="opacity:0.956" fill="#010100" d="M 247.5,-0.5 C 252.833,-0.5 258.167,-0.5 263.5,-0.5C 281.025,6.53327 288.191,19.5333 285,38.5C 281.186,53.9879 271.353,60.9879 255.5,59.5C 239.647,60.9879 229.814,53.9879 226,38.5C 222.809,19.5333 229.975,6.53327 247.5,-0.5 Z"/></g>
<g><path style="opacity:0.947" fill="#010101" d="M 173.5,12.5 C 200.321,13.7751 211.821,27.7751 208,54.5C 206.037,60.7987 202.203,65.632 196.5,69C 191.482,69.7979 186.816,71.4646 182.5,74C 162.962,75.8091 151.462,66.9757 148,47.5C 147.189,28.8387 155.689,17.172 173.5,12.5 Z"/></g>
<g><path style="opacity:0.948" fill="#010100" d="M 327.5,12.5 C 346.553,11.3949 358.387,20.0616 363,38.5C 363.882,49.9007 360.382,59.7341 352.5,68C 345.562,74.0288 337.562,76.0288 328.5,74C 305.753,68.8964 297.587,55.063 304,32.5C 308.379,21.6107 316.212,14.9441 327.5,12.5 Z"/></g>
<g><path style="opacity:1" fill="#fae4b1" d="M 251.5,14.5 C 266.992,14.8164 272.825,22.483 269,37.5C 267.75,40.1707 265.917,42.3374 263.5,44C 245.373,47.8733 238.207,40.7066 242,22.5C 244.362,18.7553 247.528,16.0886 251.5,14.5 Z"/></g>
<g><path style="opacity:1" fill="#fbf0da" d="M 172.5,28.5 C 189.631,27.7371 196.131,35.7371 192,52.5C 189.426,55.0273 186.26,56.194 182.5,56C 179.359,59.6285 175.692,60.2951 171.5,58C 160.526,47.6508 160.86,37.8175 172.5,28.5 Z"/></g>
<g><path style="opacity:1" fill="#fbcc68" d="M 327.5,28.5 C 343.301,27.7972 349.467,35.1306 346,50.5C 341.647,59.2905 335.481,61.1238 327.5,56C 320.135,55.7964 316.802,51.963 317.5,44.5C 317.811,37.2 321.144,31.8667 327.5,28.5 Z"/></g>
<g><path style="opacity:0.947" fill="#010100" d="M 107.5,51.5 C 128.486,52.3205 139.819,63.1538 141.5,84C 141.976,89.2359 140.81,94.0692 138,98.5C 132.806,102.332 127.973,106.499 123.5,111C 104.958,117.653 91.1243,112.153 82,94.5C 76.1762,71.4612 84.6762,57.1278 107.5,51.5 Z"/></g>
<g><path style="opacity:0.948" fill="#010000" d="M 398.5,51.5 C 418.221,52.5545 429.221,62.8878 431.5,82.5C 429.167,101.5 418.5,112.167 399.5,114.5C 395.221,114.264 391.221,113.097 387.5,111C 383.027,106.499 378.194,102.332 373,98.5C 365.272,78.6767 370.772,63.8433 389.5,54C 392.628,53.1588 395.628,52.3254 398.5,51.5 Z"/></g>
<g><path style="opacity:1" fill="#fae3b1" d="M 105.5,67.5 C 115.839,66.344 122.672,70.6774 126,80.5C 127.747,86.676 125.58,90.676 119.5,92.5C 112.953,100.35 106.12,100.35 99,92.5C 92.7196,81.8999 94.8863,73.5666 105.5,67.5 Z"/></g>
<g><path style="opacity:1" fill="#faaf5a" d="M 395.5,67.5 C 412.766,67.2575 418.599,75.2575 413,91.5C 408.46,97.4021 402.626,99.4021 395.5,97.5C 392.396,93.5747 388.896,90.2414 385,87.5C 384.045,78.4077 387.545,71.741 395.5,67.5 Z"/></g>
<g><path style="opacity:0.952" fill="#010101" d="M 248.5,74.5 C 264.981,72.3218 276.814,78.6551 284,93.5C 288.84,109.671 284.673,122.837 271.5,133C 268.093,134.227 264.593,135.06 261,135.5C 238.408,137.91 226.574,127.744 225.5,105C 226.15,89.5197 233.816,79.353 248.5,74.5 Z"/></g>
<g><path style="opacity:1" fill="#fae4b2" d="M 252.5,89.5 C 267.125,90.6247 272.625,98.2913 269,112.5C 268.214,115.583 266.381,117.749 263.5,119C 257.833,118.333 252.167,118.333 246.5,119C 238.189,109.605 238.523,100.605 247.5,92C 249.315,91.2432 250.981,90.4098 252.5,89.5 Z"/></g>
<g><path style="opacity:0.947" fill="#020100" d="M 174.5,94.5 C 197.2,93.8661 209.533,104.866 211.5,127.5C 211.426,134.559 209.093,140.726 204.5,146C 199.238,148.635 194.238,151.635 189.5,155C 170.835,159.415 158.002,152.581 151,134.5C 147.307,114.2 155.14,100.867 174.5,94.5 Z"/></g>
<g><path style="opacity:0.946" fill="#020100" d="M 325.5,94.5 C 352.153,94.8211 363.653,108.154 360,134.5C 352.998,152.581 340.165,159.415 321.5,155C 316.762,151.635 311.762,148.635 306.5,146C 296.047,129.811 297.713,114.811 311.5,101C 315.877,97.9748 320.544,95.8081 325.5,94.5 Z"/></g>
<g><path style="opacity:1" fill="#fbcd68" d="M 174.5,110.5 C 190.426,109.261 197.259,116.595 195,132.5C 192.64,134.808 189.806,136.308 186.5,137C 182.561,142.211 177.894,142.878 172.5,139C 162.564,128.557 163.231,119.057 174.5,110.5 Z"/></g>
<g><path style="opacity:1" fill="#fbcd68" d="M 325.5,110.5 C 334.399,108.535 340.899,111.535 345,119.5C 347.161,129.977 343.328,137.144 333.5,141C 331.833,141.667 330.167,141.667 328.5,141C 324.832,137.314 320.665,134.481 316,132.5C 314.03,122.788 317.196,115.455 325.5,110.5 Z"/></g>
<g><path style="opacity:0.95" fill="#010101" d="M 51.5,112.5 C 70.7315,109.922 83.8982,117.589 91,135.5C 92.0607,141.724 91.3941,147.724 89,153.5C 78.8399,174.55 63.3399,179.384 42.5,168C 28.5598,156.204 25.7265,142.037 34,125.5C 38.5813,119.41 44.4146,115.077 51.5,112.5 Z"/></g>
<g><path style="opacity:0.95" fill="#010100" d="M 443.5,112.5 C 470.133,110.633 482.633,122.966 481,149.5C 474.384,167.905 461.218,175.739 441.5,173C 437.888,171.861 434.554,170.194 431.5,168C 427.275,161.715 423.442,155.215 420,148.5C 417.929,135.805 422.096,125.639 432.5,118C 436.017,115.674 439.683,113.84 443.5,112.5 Z"/></g>
<g><path style="opacity:1" fill="#f9eed9" d="M 55.5,127.5 C 65.3003,126.482 72.1336,130.482 76,139.5C 77.0482,143.48 75.7149,146.48 72,148.5C 70.617,156.782 65.7837,159.948 57.5,158C 45.8754,153.597 42.3754,145.763 47,134.5C 49.4412,131.546 52.2745,129.213 55.5,127.5 Z"/></g>
<g><path style="opacity:1" fill="#f9cb67" d="M 446.5,127.5 C 455.731,126.365 462.231,130.032 466,138.5C 467.204,148.319 463.038,154.819 453.5,158C 445.216,159.948 440.383,156.782 439,148.5C 433.817,144.91 433.15,140.577 437,135.5C 439.772,132.217 442.939,129.55 446.5,127.5 Z"/></g>
<g><path style="opacity:0.951" fill="#010100" d="M 250.5,149.5 C 276.474,150.309 287.974,163.643 285,189.5C 282.3,199.53 276.133,206.363 266.5,210C 236.904,214.734 223.404,202.234 226,172.5C 229.861,160.136 238.028,152.469 250.5,149.5 Z"/></g>
<g><path style="opacity:0.946" fill="#020201" d="M 381.5,149.5 C 402.559,149.013 414.226,159.18 416.5,180C 414.505,199.826 403.505,210.326 383.5,211.5C 376.441,211.426 370.274,209.093 365,204.5C 362.365,199.238 359.365,194.238 356,189.5C 351.628,173.4 356.794,161.233 371.5,153C 374.85,151.514 378.184,150.347 381.5,149.5 Z"/></g>
<g><path style="opacity:0.945" fill="#020201" d="M 110.5,162.5 C 111.851,164.392 112.518,166.558 112.5,169C 106.46,187.615 113.126,196.281 132.5,195C 135.181,192.806 136.681,189.973 137,186.5C 142.211,182.561 142.878,177.894 139,172.5C 135.688,169.344 132.021,166.677 128,164.5C 126.798,162.323 126.298,159.989 126.5,157.5C 128.994,151.392 133.327,149.892 139.5,153C 154.206,161.233 159.372,173.4 155,189.5C 151.635,194.238 148.635,199.238 146,204.5C 129.798,214.953 114.798,213.286 101,199.5C 94.1548,189.542 92.8214,178.875 97,167.5C 99.9059,161.651 104.406,159.984 110.5,162.5 Z"/></g>
<g><path style="opacity:0.996" fill="#fbe4b2" d="M 126.5,157.5 C 126.298,159.989 126.798,162.323 128,164.5C 132.021,166.677 135.688,169.344 139,172.5C 142.878,177.894 142.211,182.561 137,186.5C 136.681,189.973 135.181,192.806 132.5,195C 113.126,196.281 106.46,187.615 112.5,169C 112.518,166.558 111.851,164.392 110.5,162.5C 114.972,158.456 120.305,156.789 126.5,157.5 Z"/></g>
<g><path style="opacity:1" fill="#f9e3b1" d="M 250.5,165.5 C 268.16,165.477 273.994,173.81 268,190.5C 266.457,192.378 264.624,193.878 262.5,195C 246.581,198.422 239.415,191.922 241,175.5C 243.022,170.98 246.189,167.647 250.5,165.5 Z"/></g>
<g><path style="opacity:1" fill="#fbe5b2" d="M 380.5,165.5 C 395.339,164.172 401.839,170.838 400,185.5C 395.275,193.864 388.108,197.03 378.5,195C 376.192,192.64 374.692,189.806 374,186.5C 368.789,182.561 368.122,177.894 372,172.5C 374.628,169.79 377.461,167.456 380.5,165.5 Z"/></g>
<g><path style="opacity:0.947" fill="#010100" d="M 28.5,185.5 C 44.0887,184.706 55.5887,191.039 63,204.5C 63.5643,207.155 64.0643,209.821 64.5,212.5C 64.1091,237.729 51.4425,248.896 26.5,246C 8.79479,240.767 0.961453,228.934 3,210.5C 6.09178,196.574 14.5918,188.241 28.5,185.5 Z"/></g>
<g><path style="opacity:0.947" fill="#010101" d="M 474.5,185.5 C 498.479,186.309 509.645,198.643 508,222.5C 504.833,235 497,242.833 484.5,246C 459.548,248.885 446.881,237.719 446.5,212.5C 449.294,196.705 458.628,187.705 474.5,185.5 Z"/></g>
<g><path style="opacity:0.947" fill="#010101" d="M 183.5,187.5 C 201.331,185.991 213.831,193.325 221,209.5C 223.297,216.461 222.63,223.127 219,229.5C 216.229,233.282 213.729,237.282 211.5,241.5C 199.031,251.576 186.031,252.076 172.5,243C 156.521,227.86 155.521,211.86 169.5,195C 173.815,191.678 178.482,189.178 183.5,187.5 Z"/></g>
<g><path style="opacity:0.947" fill="#010100" d="M 314.5,187.5 C 341.245,187.074 353.079,200.074 350,226.5C 344.531,241.247 333.864,248.914 318,249.5C 311.229,249.113 305.229,246.78 300,242.5C 297.221,236.479 293.887,230.813 290,225.5C 286.859,209.281 292.693,197.448 307.5,190C 310.004,189.302 312.337,188.469 314.5,187.5 Z"/></g>
<g><path style="opacity:1" fill="#f9e3b1" d="M 27.5,201.5 C 35.1028,200.105 41.6028,202.105 47,207.5C 47.923,209.034 48.423,210.701 48.5,212.5C 46.9481,216.956 46.1148,221.623 46,226.5C 37.3701,233.463 29.0368,233.129 21,225.5C 15.5263,215.422 17.6929,207.422 27.5,201.5 Z"/></g>
<g><path style="opacity:1" fill="#fae4b1" d="M 472.5,201.5 C 489.853,201.225 495.687,209.225 490,225.5C 481.914,233.01 473.581,233.344 465,226.5C 464.519,220.668 463.853,215.001 463,209.5C 465.325,205.765 468.491,203.099 472.5,201.5 Z"/></g>
<g><path style="opacity:1" fill="#f9eed9" d="M 186.5,202.5 C 195.409,201.872 201.909,205.538 206,213.5C 207.282,217.584 206.282,220.918 203,223.5C 201.283,232.115 196.116,235.281 187.5,233C 174.809,227.403 172.142,218.737 179.5,207C 181.898,205.476 184.231,203.976 186.5,202.5 Z"/></g>
<g><path style="opacity:1" fill="#faaf5a" d="M 317.5,202.5 C 331.011,202.549 336.845,209.215 335,222.5C 330.426,231.203 323.259,234.703 313.5,233C 310.737,228.821 307.903,224.654 305,220.5C 304.21,217.366 304.543,214.366 306,211.5C 309.183,207.462 313.016,204.462 317.5,202.5 Z"/></g>
<g><path style="opacity:0.951" fill="#010100" d="M 96.5,225.5 C 129.691,224.188 141.857,239.522 133,271.5C 122.837,284.673 109.671,288.84 93.5,284C 76.2465,274.915 70.7465,261.082 77,242.5C 81.5195,234.475 88.0195,228.809 96.5,225.5 Z"/></g>
<g><path style="opacity:0.956" fill="#010100" d="M 243.5,225.5 C 275.7,220.866 289.2,234.533 284,266.5C 275.721,283.052 262.554,288.885 244.5,284C 231.754,278.579 225.421,268.912 225.5,255C 225.066,241.002 231.066,231.169 243.5,225.5 Z"/></g>
<g><path style="opacity:0.951" fill="#010100" d="M 397.5,225.5 C 416.822,222.569 429.655,230.236 436,248.5C 438.456,266.369 431.29,278.536 414.5,285C 399.282,288.334 387.116,283.834 378,271.5C 377.333,269.5 376.667,267.5 376,265.5C 376.182,260.131 376.016,254.798 375.5,249.5C 377.622,236.712 384.955,228.712 397.5,225.5 Z"/></g>
<g><path style="opacity:1" fill="#facc68" d="M 100.5,240.5 C 107.6,239.813 113.767,241.813 119,246.5C 118.564,251.183 118.731,255.85 119.5,260.5C 118.38,266.421 114.713,269.587 108.5,270C 99.1133,271.388 92.9466,267.555 90,258.5C 89.0885,254.548 89.7552,250.881 92,247.5C 94.4412,244.546 97.2745,242.213 100.5,240.5 Z"/></g>
<g><path style="opacity:1" fill="#fae3b1" d="M 247.5,240.5 C 252.828,241.568 258.162,241.735 263.5,241C 272.085,248.95 272.751,257.617 265.5,267C 253.92,273.475 245.754,270.642 241,258.5C 239.552,251.085 241.719,245.085 247.5,240.5 Z"/></g>
<g><path style="opacity:1" fill="#facc68" d="M 400.5,240.5 C 412.288,238.971 419.288,243.971 421.5,255.5C 419.301,267.19 412.301,272.023 400.5,270C 397.274,268.802 394.441,266.969 392,264.5C 392.537,258.49 392.537,252.49 392,246.5C 394.671,244.098 397.505,242.098 400.5,240.5 Z"/></g>
<g><path style="opacity:0.947" fill="#010100" d="M 188.5,261.5 C 196.662,260.963 203.996,263.13 210.5,268C 213.221,272.617 216.054,277.117 219,281.5C 225.592,302.809 218.092,316.643 196.5,323C 176.858,325.005 164.692,316.505 160,297.5C 159.65,277.685 169.15,265.685 188.5,261.5 Z"/></g>
<g><path style="opacity:0.947" fill="#010100" d="M 314.5,261.5 C 336.174,261.514 348.507,272.181 351.5,293.5C 350.237,308.88 342.237,318.714 327.5,323C 307.528,325.107 294.695,316.607 289,297.5C 288.342,293.428 288.675,289.428 290,285.5C 293.887,280.187 297.221,274.521 300,268.5C 304.477,265.176 309.31,262.843 314.5,261.5 Z"/></g>
<g><path style="opacity:0.947" fill="#010000" d="M 26.5,264.5 C 51.4225,262.088 64.0891,273.421 64.5,298.5C 61.1416,315.882 50.4749,324.882 32.5,325.5C 18.5623,324.381 9.06232,317.381 4,304.5C -0.147397,284.45 7.3526,271.116 26.5,264.5 Z"/></g>
<g><path style="opacity:0.948" fill="#010100" d="M 468.5,264.5 C 482.3,262.151 493.8,266.151 503,276.5C 510.794,289.967 510.127,302.967 501,315.5C 486.88,327.751 472.046,328.584 456.5,318C 450.387,312.94 447.053,306.44 446.5,298.5C 447.595,291.401 449.095,284.401 451,277.5C 455.041,270.609 460.874,266.276 468.5,264.5 Z"/></g>
<g><path style="opacity:1" fill="#f9e3b1" d="M 187.5,277.5 C 191.308,277.163 194.974,277.663 198.5,279C 200.5,283.107 203,286.94 206,290.5C 206.652,293.594 206.318,296.594 205,299.5C 194.693,311.826 185.027,311.492 176,298.5C 174.121,288.25 177.955,281.25 187.5,277.5 Z"/></g>
<g><path style="opacity:1" fill="#f9cb67" d="M 313.5,277.5 C 330.239,276.725 337.072,284.392 334,300.5C 323.323,311.743 313.657,310.743 305,297.5C 304.333,295.167 304.333,292.833 305,290.5C 307.975,286.204 310.808,281.871 313.5,277.5 Z"/></g>
<g><path style="opacity:1" fill="#f8eed8" d="M 29.5,279.5 C 35.8042,278.781 41.3042,280.447 46,284.5C 46.6024,290.26 47.2691,295.927 48,301.5C 42.2408,309.399 34.7408,311.566 25.5,308C 13.9756,296.65 15.3089,287.15 29.5,279.5 Z"/></g>
<g><path style="opacity:1" fill="#facb67" d="M 471.5,279.5 C 487.058,278.223 493.892,285.223 492,300.5C 485.363,310.259 476.863,312.092 466.5,306C 464.951,304.786 463.785,303.286 463,301.5C 463.731,295.927 464.398,290.26 465,284.5C 466.965,282.45 469.132,280.783 471.5,279.5 Z"/></g>
<g><path style="opacity:0.947" fill="#020201" d="M 121.5,299.5 C 129.918,298.365 137.584,300.198 144.5,305C 148.137,310.448 151.637,315.948 155,321.5C 159.415,340.165 152.581,352.998 134.5,360C 117.791,363.773 105.291,358.273 97,343.5C 90.8812,320.729 99.0479,306.062 121.5,299.5 Z"/></g>
<g><path style="opacity:0.945" fill="#020201" d="M 377.5,299.5 C 390.321,298.272 401.154,302.272 410,311.5C 419.537,326.588 418.37,340.755 406.5,354C 389.487,365.258 373.987,363.424 360,348.5C 353.236,339.37 352.236,329.703 357,319.5C 360.042,314.581 363.209,309.748 366.5,305C 369.99,302.588 373.657,300.755 377.5,299.5 Z"/></g>
<g><path style="opacity:0.952" fill="#010100" d="M 244.5,300.5 C 252.917,300.094 261.251,300.594 269.5,302C 280.699,307.89 286.032,317.224 285.5,330C 284.606,349.062 274.606,359.562 255.5,361.5C 236.394,359.562 226.394,349.062 225.5,330C 225.457,315.89 231.79,306.057 244.5,300.5 Z"/></g>
<g><path style="opacity:1" fill="#fbe4b2" d="M 121.5,315.5 C 130.122,313.022 135.289,316.022 137,324.5C 142.31,328.399 142.976,333.066 139,338.5C 131.598,346.456 123.431,347.456 114.5,341.5C 110.687,336.85 109.52,331.516 111,325.5C 113.081,320.584 116.581,317.25 121.5,315.5 Z"/></g>
<g><path style="opacity:1" fill="#fbe5b2" d="M 378.5,315.5 C 395.922,314.077 402.756,321.744 399,338.5C 390.042,347.826 381.042,347.826 372,338.5C 368.122,333.106 368.789,328.439 374,324.5C 374.763,321.059 376.263,318.059 378.5,315.5 Z"/></g>
<g><path style="opacity:1" fill="#f9eed9" d="M 247.5,315.5 C 252.013,316.628 256.513,316.628 261,315.5C 268.962,319.35 271.962,325.684 270,334.5C 266.645,343.597 260.145,347.097 250.5,345C 240.383,339.308 237.883,331.141 243,320.5C 244.707,318.963 246.207,317.296 247.5,315.5 Z"/></g>
<g><path style="opacity:0.949" fill="#010101" d="M 54.5,337.5 C 63.6132,336.152 71.9465,337.985 79.5,343C 83.7249,349.285 87.5582,355.785 91,362.5C 92.8493,380.665 85.016,392.498 67.5,398C 40.8461,400.346 28.3461,388.179 30,361.5C 33.5056,348.677 41.6723,340.677 54.5,337.5 Z"/></g>
<g><path style="opacity:0.949" fill="#010100" d="M 441.5,337.5 C 456.055,335.623 467.888,340.289 477,351.5C 485.273,368.037 482.44,382.204 468.5,394C 446.184,403.786 430.018,397.619 420,375.5C 418.939,369.276 419.606,363.276 422,357.5C 424.917,353.334 427.584,349.001 430,344.5C 433.514,341.5 437.347,339.167 441.5,337.5 Z"/></g>
<g><path style="opacity:1" fill="#f9e3b1" d="M 57.5,352.5 C 65.7811,351.045 70.6144,354.378 72,362.5C 77.1832,366.09 77.8499,370.423 74,375.5C 65.3072,385.728 56.3072,386.061 47,376.5C 43.754,371.137 43.754,365.803 47,360.5C 49.94,356.963 53.44,354.297 57.5,352.5 Z"/></g>
<g><path style="opacity:0.947" fill="#020100" d="M 177.5,353.5 C 181.586,353.884 185.586,354.717 189.5,356C 194.238,359.365 199.238,362.365 204.5,365C 213.815,378.478 213.649,391.978 204,405.5C 190.117,418.701 175.284,419.868 159.5,409C 147.26,395.167 146.426,380.667 157,365.5C 162.494,359.01 169.327,355.01 177.5,353.5 Z"/></g>
<g><path style="opacity:0.946" fill="#020100" d="M 329.5,353.5 C 348.725,355.892 359.392,366.725 361.5,386C 359.995,404.839 349.828,415.005 331,416.5C 311.174,414.505 300.674,403.505 299.5,383.5C 299.333,377.162 301.166,371.495 305,366.5C 309.781,363.197 314.615,360.03 319.5,357C 322.85,355.514 326.184,354.347 329.5,353.5 Z"/></g>
<g><path style="opacity:1" fill="#f9af5a" d="M 445.5,352.5 C 458.755,352.263 465.589,358.596 466,371.5C 461.458,382.855 453.625,386.022 442.5,381C 437.173,377.511 434.673,372.677 435,366.5C 438.71,363.747 440.877,360.08 441.5,355.5C 442.901,354.479 444.235,353.479 445.5,352.5 Z"/></g>
<g><path style="opacity:1" fill="#fbcd68" d="M 176.5,369.5 C 180.91,368.623 184.243,370.123 186.5,374C 189.806,374.692 192.64,376.192 195,378.5C 197.255,394.576 190.422,401.742 174.5,400C 164.811,393.687 162.978,385.52 169,375.5C 171.114,372.879 173.614,370.879 176.5,369.5 Z"/></g>
<g><path style="opacity:1" fill="#fbcd68" d="M 328.5,369.5 C 336.51,369.335 342.01,373.002 345,380.5C 347.195,389.264 344.361,395.764 336.5,400C 320.578,401.742 313.745,394.576 316,378.5C 318.928,376.303 322.095,374.469 325.5,373C 326.71,371.961 327.71,370.794 328.5,369.5 Z"/></g>
<g><path style="opacity:0.952" fill="#010100" d="M 246.5,375.5 C 275.165,372.665 287.998,385.665 285,414.5C 276.166,434.893 261.333,441.06 240.5,433C 227.54,424.57 222.707,412.736 226,397.5C 228.637,386.036 235.47,378.703 246.5,375.5 Z"/></g>
<g><path style="opacity:1" fill="#fae3b1" d="M 246.5,391.5 C 252.166,392.66 257.832,392.827 263.5,392C 269.588,396.252 271.754,402.085 270,409.5C 265.771,420.464 258.271,423.631 247.5,419C 238.568,410.122 238.235,400.956 246.5,391.5 Z"/></g>
<g><path style="opacity:0.947" fill="#010101" d="M 106.5,396.5 C 110.915,396.305 115.249,396.805 119.5,398C 124.771,400.622 129.437,403.955 133.5,408C 139.46,412.923 142.127,419.257 141.5,427C 140.172,446.662 129.672,457.495 110,459.5C 91.5993,457.266 81.4327,446.933 79.5,428.5C 81.3317,411.676 90.3317,401.01 106.5,396.5 Z"/></g>
<g><path style="opacity:0.947" fill="#010000" d="M 395.5,396.5 C 416.602,396.935 428.602,407.602 431.5,428.5C 429.567,446.933 419.401,457.266 401,459.5C 384.884,458.282 374.551,449.949 370,434.5C 368.666,426.8 369.666,419.467 373,412.5C 377.011,409.098 380.844,405.598 384.5,402C 387.99,399.588 391.657,397.755 395.5,396.5 Z"/></g>
<g><path style="opacity:1" fill="#faefda" d="M 106.5,412.5 C 109.579,412.26 112.579,412.593 115.5,413.5C 118.573,417.409 122.073,420.742 126,423.5C 126.277,437.558 119.444,444.058 105.5,443C 95.2773,437.705 92.7773,429.872 98,419.5C 100.628,416.79 103.461,414.456 106.5,412.5 Z"/></g>
<g><path style="opacity:1" fill="#f9cb67" d="M 396.5,412.5 C 413.045,413.597 418.545,421.93 413,437.5C 405.885,444.645 398.218,445.312 390,439.5C 388.065,436.629 386.399,433.629 385,430.5C 383.261,424.814 385.094,420.98 390.5,419C 392.734,416.937 394.734,414.771 396.5,412.5 Z"/></g>
<g><path style="opacity:0.948" fill="#010101" d="M 169.5,436.5 C 173.846,436.334 178.179,436.501 182.5,437C 205.416,441.987 213.583,455.821 207,478.5C 200.612,493.114 189.445,499.614 173.5,498C 155.455,493.614 146.955,482.114 148,463.5C 150.441,450.561 157.608,441.561 169.5,436.5 Z"/></g>
<g><path style="opacity:0.948" fill="#010100" d="M 328.5,436.5 C 350.023,435.849 361.69,446.349 363.5,468C 359.164,492.669 344.831,502.002 320.5,496C 305.033,487.224 299.2,474.058 303,456.5C 304.581,450.914 307.748,446.414 312.5,443C 318.299,441.632 323.632,439.465 328.5,436.5 Z"/></g>
<g><path style="opacity:0.956" fill="#010100" d="M 263.5,511.5 C 258.167,511.5 252.833,511.5 247.5,511.5C 229.975,504.467 222.809,491.467 226,472.5C 229.814,457.012 239.647,450.012 255.5,451.5C 271.353,450.012 281.186,457.012 285,472.5C 288.191,491.467 281.025,504.467 263.5,511.5 Z"/></g>
<g><path style="opacity:1" fill="#fbe4b2" d="M 173.5,451.5 C 178.73,453.276 184.063,454.776 189.5,456C 191.049,457.214 192.215,458.714 193,460.5C 195.298,476.534 188.464,483.7 172.5,482C 163.229,476.176 161.062,468.343 166,458.5C 168.396,455.933 170.896,453.6 173.5,451.5 Z"/></g>
<g><path style="opacity:1" fill="#fab05a" d="M 332.5,451.5 C 341.596,452.931 346.596,458.264 347.5,467.5C 346.053,479.439 339.387,484.272 327.5,482C 319.061,477.279 315.894,470.113 318,460.5C 319.735,456.282 322.901,454.449 327.5,455C 329.584,454.303 331.251,453.136 332.5,451.5 Z"/></g>
<g><path style="opacity:1" fill="#facc68" d="M 247.5,466.5 C 252.828,467.568 258.162,467.735 263.5,467C 272.085,474.95 272.751,483.617 265.5,493C 253.92,499.475 245.754,496.642 241,484.5C 239.552,477.085 241.719,471.085 247.5,466.5 Z"/></g>
</svg>
