<?xml version="1.0" encoding="UTF-8"?>
<!DOCTYPE svg PUBLIC "-//W3C//DTD SVG 1.1//EN" "http://www.w3.org/Graphics/SVG/1.1/DTD/svg11.dtd">
<svg xmlns="http://www.w3.org/2000/svg" version="1.1" width="512px" height="512px" style="shape-rendering:geometricPrecision; text-rendering:geometricPrecision; image-rendering:optimizeQuality; fill-rule:evenodd; clip-rule:evenodd" xmlns:xlink="http://www.w3.org/1999/xlink">
<g><path style="opacity:0.973" fill="#010100" d="M 511.5,202.5 C 511.5,209.167 511.5,215.833 511.5,222.5C 506.014,244.819 492.014,258.652 469.5,264C 454.921,264.904 440.587,263.404 426.5,259.5C 433.247,286.848 423.58,305.348 397.5,315C 386.357,317.073 376.024,315.073 366.5,309C 360.534,303.877 355.534,298.044 351.5,291.5C 349.356,295.222 347.023,298.888 344.5,302.5C 338.92,308.033 332.254,309.866 324.5,308C 315.333,304.5 306.167,301 297,297.5C 296.5,297.833 296,298.167 295.5,298.5C 310.896,346.347 302.73,389.681 271,428.5C 234.75,465.024 191.583,476.857 141.5,464C 136.757,462.53 132.091,460.864 127.5,459C 115.813,452.633 104.147,446.3 92.5,440C 69.6992,430.684 49.0325,434.018 30.5,450C 23.1553,451.828 18.822,448.994 17.5,441.5C 19.5644,436.372 22.3977,431.705 26,427.5C 35.5828,409.076 35.9161,390.409 27,371.5C 19.2841,359.402 12.6175,346.736 7,333.5C 3.68558,323.905 1.18558,314.238 -0.5,304.5C -0.5,294.167 -0.5,283.833 -0.5,273.5C 9.80811,214.356 44.1414,177.523 102.5,163C 133.766,157.571 162.933,163.071 190,179.5C 192.733,163.988 195.066,148.321 197,132.5C 204.776,104.343 223.276,92.3433 252.5,96.5C 254.85,63.8209 272.183,45.4876 304.5,41.5C 315.431,41.5508 324.598,45.5508 332,53.5C 335.134,58.7726 337.967,64.1059 340.5,69.5C 353.492,62.8361 366.826,57.0027 380.5,52C 406.661,47.9976 426.161,57.4976 439,80.5C 446.513,100.326 444.346,118.992 432.5,136.5C 433.053,139.135 433.386,141.801 433.5,144.5C 433.29,148.628 432.79,152.628 432,156.5C 444.406,158.357 456.906,159.857 469.5,161C 492.014,166.348 506.014,180.181 511.5,202.5 Z"/></g>
<g><path style="opacity:1" fill="#548a2f" d="M 408.5,132.5 C 409.607,111.549 400.607,96.7156 381.5,88C 372.598,85.15 363.598,84.8167 354.5,87C 341.263,93.12 327.93,98.9533 314.5,104.5C 310.849,104.257 308.016,102.59 306,99.5C 302.487,83.5147 292.654,75.8481 276.5,76.5C 284.825,62.1057 297.158,56.939 313.5,61C 316.333,62.5 318.5,64.6667 320,67.5C 323.68,84.0807 333.513,89.9141 349.5,85C 360.809,78.845 372.475,73.5116 384.5,69C 408.952,66.7982 422.619,77.7982 425.5,102C 425.902,115.717 420.235,125.884 408.5,132.5 Z"/></g>
<g><path style="opacity:1" fill="#8ac149" d="M 276.5,76.5 C 292.654,75.8481 302.487,83.5147 306,99.5C 308.016,102.59 310.849,104.257 314.5,104.5C 327.93,98.9533 341.263,93.12 354.5,87C 363.598,84.8167 372.598,85.15 381.5,88C 400.607,96.7156 409.607,111.549 408.5,132.5C 400.213,136.658 391.547,140.158 382.5,143C 369.247,149.258 365.581,159.091 371.5,172.5C 366.902,174.423 362.235,176.257 357.5,178C 352.782,181.343 351.282,185.843 353,191.5C 358.115,197.284 362.448,203.618 366,210.5C 366.494,212.134 366.66,213.801 366.5,215.5C 363.15,215.665 359.817,215.498 356.5,215C 351.833,213 347.167,211 342.5,209C 329.015,207.738 321.015,213.738 318.5,227C 319.523,230.405 319.523,233.738 318.5,237C 299.217,240.659 279.884,243.659 260.5,246C 253.652,239.319 246.985,232.486 240.5,225.5C 267.51,185.806 303.51,157.306 348.5,140C 353.446,135.7 353.779,131.033 349.5,126C 347.801,125.042 345.967,124.542 344,124.5C 295.762,141.743 257.096,171.41 228,213.5C 221.316,206.748 214.65,200.081 208,193.5C 209.336,174.145 211.336,154.812 214,135.5C 217.225,121.981 225.725,114.648 239.5,113.5C 248.072,115.717 256.072,114.55 263.5,110C 265.617,108.269 267.117,106.102 268,103.5C 270,95.5 272,87.5 274,79.5C 274.852,78.4293 275.685,77.4293 276.5,76.5 Z"/></g>
<g><path style="opacity:1" fill="#2d7b31" d="M 453.5,246.5 C 465.321,224.766 461.988,205.6 443.5,189C 439.326,186.412 434.993,184.079 430.5,182C 421.53,180.684 412.53,179.517 403.5,178.5C 401.631,178.507 399.964,178.84 398.5,179.5C 395.693,173.511 391.86,168.178 387,163.5C 386.219,162.056 386.386,160.723 387.5,159.5C 396.769,155.8 406.102,152.633 415.5,150C 412.992,159.808 415.992,167.474 424.5,173C 439.799,175.119 455.133,177.119 470.5,179C 494.499,190.842 500.333,208.675 488,232.5C 479.129,243.95 467.629,248.617 453.5,246.5 Z"/></g>
<g><path style="opacity:1" fill="#548a2f" d="M 371.5,172.5 C 376.236,176.745 380.069,181.745 383,187.5C 385.456,201.595 379.956,210.929 366.5,215.5C 366.66,213.801 366.494,212.134 366,210.5C 362.448,203.618 358.115,197.284 353,191.5C 351.282,185.843 352.782,181.343 357.5,178C 362.235,176.257 366.902,174.423 371.5,172.5 Z"/></g>
<g><path style="opacity:1" fill="#ab1356" d="M 236.5,434.5 C 244.575,419.787 250.408,404.12 254,387.5C 254.794,381.692 255.294,375.858 255.5,370C 255.714,365.867 255.048,362.034 253.5,358.5C 255.107,355.222 254.773,352.222 252.5,349.5C 253.629,347.372 253.796,345.039 253,342.5C 250.858,333.576 248.025,324.909 244.5,316.5C 248,319.831 251.666,322.998 255.5,326C 260.194,327.31 263.694,325.81 266,321.5C 266.79,318.366 266.457,315.366 265,312.5C 247.779,295.279 230.613,278.113 213.5,261C 211.167,260.333 208.833,260.333 206.5,261C 204.638,262.366 202.972,263.866 201.5,265.5C 201.649,264.448 201.483,263.448 201,262.5C 188.167,249.667 175.333,236.833 162.5,224C 134.191,200.671 101.857,191.838 65.5,197.5C 90.8512,179.664 118.851,174.164 149.5,181C 165.82,185.16 180.486,192.493 193.5,203C 217.726,226.558 241.226,250.725 264,275.5C 291.684,315.856 293.684,357.523 270,400.5C 261.335,414.332 250.168,425.665 236.5,434.5 Z"/></g>
<g><path style="opacity:1" fill="#4bad4f" d="M 453.5,246.5 C 445.01,245.102 436.51,243.769 428,242.5C 418.569,242.928 412.236,247.594 409,256.5C 408.475,263.084 408.975,269.584 410.5,276C 409.08,291.73 400.413,299.063 384.5,298C 376.084,294.585 369.918,288.752 366,280.5C 359.136,274.379 351.302,272.879 342.5,276C 336.921,279.323 333.421,284.156 332,290.5C 331.439,291.022 330.772,291.355 330,291.5C 314.013,285.451 298.18,279.118 282.5,272.5C 280.167,269.167 277.833,265.833 275.5,262.5C 290.661,258.917 305.995,256.084 321.5,254C 329.026,251.807 333.86,246.974 336,239.5C 336.141,234.899 336.307,230.399 336.5,226C 341.055,226.765 345.388,228.432 349.5,231C 375.132,236.61 391.965,227.11 400,202.5C 400.974,194.694 400.474,187.027 398.5,179.5C 399.964,178.84 401.631,178.507 403.5,178.5C 412.53,179.517 421.53,180.684 430.5,182C 434.993,184.079 439.326,186.412 443.5,189C 461.988,205.6 465.321,224.766 453.5,246.5 Z"/></g>
<g><path style="opacity:1" fill="#e71d62" d="M 201.5,265.5 C 201.421,268.271 201.921,270.937 203,273.5C 216.673,288.006 230.506,302.339 244.5,316.5C 248.025,324.909 250.858,333.576 253,342.5C 253.796,345.039 253.629,347.372 252.5,349.5C 235.702,332.201 218.702,315.035 201.5,298C 190.197,297.432 187.031,302.265 192,312.5C 208.5,329 225,345.5 241.5,362C 246.476,364.174 250.476,363.008 253.5,358.5C 255.048,362.034 255.714,365.867 255.5,370C 255.294,375.858 254.794,381.692 254,387.5C 250.408,404.12 244.575,419.787 236.5,434.5C 203.171,454.208 168.504,456.708 132.5,442C 124.906,438.065 117.573,433.732 110.5,429C 90.8461,418.813 70.1794,415.646 48.5,419.5C 53.3881,391.718 47.5547,366.384 31,343.5C 5.74417,291.608 13.5775,245.441 54.5,205C 57.8777,201.985 61.5444,199.485 65.5,197.5C 101.857,191.838 134.191,200.671 162.5,224C 175.333,236.833 188.167,249.667 201,262.5C 201.483,263.448 201.649,264.448 201.5,265.5 Z"/></g>
<g><path style="opacity:1" fill="#060101" d="M 60.5,236.5 C 64.2194,236.002 67.5527,236.836 70.5,239C 87.029,255.195 103.196,271.695 119,288.5C 121.587,293.413 120.753,297.58 116.5,301C 113.036,301.817 109.702,301.483 106.5,300C 90.3623,282.862 73.8623,266.028 57,249.5C 54.3476,244.039 55.5142,239.706 60.5,236.5 Z"/></g>
<g><path style="opacity:1" fill="#050001" d="M 244.5,316.5 C 230.506,302.339 216.673,288.006 203,273.5C 201.921,270.937 201.421,268.271 201.5,265.5C 202.972,263.866 204.638,262.366 206.5,261C 208.833,260.333 211.167,260.333 213.5,261C 230.613,278.113 247.779,295.279 265,312.5C 266.457,315.366 266.79,318.366 266,321.5C 263.694,325.81 260.194,327.31 255.5,326C 251.666,322.998 248,319.831 244.5,316.5 Z"/></g>
<g><path style="opacity:1" fill="#050001" d="M 48.5,273.5 C 52.2194,273.002 55.5527,273.836 58.5,276C 74.3043,292.805 90.471,309.305 107,325.5C 109.578,336.587 105.412,340.42 94.5,337C 77.3044,320.138 60.4711,302.972 44,285.5C 42.3087,280.131 43.8087,276.131 48.5,273.5 Z"/></g>
<g><path style="opacity:1" fill="#040001" d="M 252.5,349.5 C 254.773,352.222 255.107,355.222 253.5,358.5C 250.476,363.008 246.476,364.174 241.5,362C 225,345.5 208.5,329 192,312.5C 187.031,302.265 190.197,297.432 201.5,298C 218.702,315.035 235.702,332.201 252.5,349.5 Z"/></g>
</svg>
