<?xml version="1.0" encoding="UTF-8"?>
<!DOCTYPE svg PUBLIC "-//W3C//DTD SVG 1.1//EN" "http://www.w3.org/Graphics/SVG/1.1/DTD/svg11.dtd">
<svg xmlns="http://www.w3.org/2000/svg" version="1.1" width="512px" height="512px" style="shape-rendering:geometricPrecision; text-rendering:geometricPrecision; image-rendering:optimizeQuality; fill-rule:evenodd; clip-rule:evenodd" xmlns:xlink="http://www.w3.org/1999/xlink">
<g><path style="opacity:0.969" fill="#030200" d="M 246.5,-0.5 C 253.167,-0.5 259.833,-0.5 266.5,-0.5C 277.401,2.78462 287.401,7.95129 296.5,15C 315.201,32.7023 334.201,50.0356 353.5,67C 378.674,82.7569 404.341,97.7569 430.5,112C 476.551,141.927 503.551,184.094 511.5,238.5C 511.5,249.833 511.5,261.167 511.5,272.5C 506.549,309.403 492.049,342.07 468,370.5C 442.843,397.992 413.343,419.492 379.5,435C 350.833,447.667 322.167,460.333 293.5,473C 292.978,473.561 292.645,474.228 292.5,475C 295.239,485.259 294.072,495.093 289,504.5C 286.175,507.476 283.008,509.809 279.5,511.5C 275.833,511.5 272.167,511.5 268.5,511.5C 259.132,504.642 250.466,496.809 242.5,488C 231.435,479.798 219.435,473.131 206.5,468C 172.683,455.593 139.683,441.259 107.5,425C 69.8197,404.987 40.3197,376.487 19,339.5C 8.93716,319.818 2.43716,299.152 -0.5,277.5C -0.5,265.833 -0.5,254.167 -0.5,242.5C 10.3879,178.396 44.8879,131.729 103,102.5C 105.878,102.831 108.044,104.164 109.5,106.5C 110.961,110.365 110.294,113.865 107.5,117C 64.666,139.502 35.4993,173.669 20,219.5C 11.9138,250.496 12.9138,281.163 23,311.5C 21.3619,242.265 49.5285,189.098 107.5,152C 154.628,124.3 205.628,110.8 260.5,111.5C 316.806,111.321 368.473,126.488 415.5,157C 426.228,164.722 436.061,173.556 445,183.5C 447.035,187.281 446.868,190.948 444.5,194.5C 442.074,196.218 439.407,196.718 436.5,196C 398.832,157.002 352.832,134.836 298.5,129.5C 231.598,119.78 169.265,132.28 111.5,167C 50.5471,209.522 28.3805,267.022 45,339.5C 52.6502,357.491 63.8169,372.991 78.5,386C 103.99,406.088 131.99,422.088 162.5,434C 188.073,443.303 213.073,453.97 237.5,466C 250.329,473.491 261.329,483.157 270.5,495C 274.583,497.521 277.083,496.354 278,491.5C 279.32,481.778 277.32,472.778 272,464.5C 263.833,452.333 253.667,442.167 241.5,434C 210.22,417.064 182.053,395.897 157,370.5C 130.933,338.985 135.433,312.819 170.5,292C 201.581,277.529 234.247,271.862 268.5,275C 289.428,275.982 309.761,279.982 329.5,287C 343.208,291.757 354.708,299.591 364,310.5C 371.581,322.536 372.581,335.202 367,348.5C 360.128,362.048 350.961,373.881 339.5,384C 316.618,402.882 292.618,420.216 267.5,436C 273.105,441.097 278.105,446.597 282.5,452.5C 283.557,454.941 284.89,457.275 286.5,459.5C 321.966,444.398 356.966,428.231 391.5,411C 471.832,367.671 492.832,304.338 454.5,221C 455.207,218.413 456.541,216.246 458.5,214.5C 462.094,212.919 465.261,213.586 468,216.5C 482.712,245.021 489.379,275.354 488,307.5C 508.485,235.623 489.318,176.789 430.5,131C 401.335,113.918 372.335,96.585 343.5,79C 338.167,74.6667 332.833,70.3333 327.5,66C 313.833,53 300.167,40 286.5,27C 275.447,17.7596 262.781,13.7596 248.5,15C 237.971,18.2639 228.638,23.5972 220.5,31C 202.332,50.8435 182.665,68.8435 161.5,85C 154,89.9178 146.333,94.5845 138.5,99C 136.5,99.6667 134.5,99.6667 132.5,99C 131.295,97.6244 129.962,96.4577 128.5,95.5C 126.778,91.2966 127.778,87.7966 131.5,85C 144.38,77.4496 156.713,69.1163 168.5,60C 182.142,46.0254 196.142,32.3587 210.5,19C 220.99,9.59024 232.99,3.09024 246.5,-0.5 Z M 232.5,290.5 C 259.907,288.774 286.907,291.274 313.5,298C 325.038,301.283 335.705,306.283 345.5,313C 356.995,323.133 358.495,334.633 350,347.5C 335.753,366.415 318.919,382.582 299.5,396C 284.965,405.763 270.298,415.263 255.5,424.5C 230.288,409.792 206.288,393.292 183.5,375C 175.928,368.099 169.095,360.599 163,352.5C 157.828,345.655 155.495,337.988 156,329.5C 160.312,319.518 167.146,311.684 176.5,306C 194.332,297.378 212.998,292.212 232.5,290.5 Z"/></g>
<g><path style="opacity:1" fill="#fbd202" d="M 458.5,214.5 C 454.326,207.484 449.659,200.817 444.5,194.5C 446.868,190.948 447.035,187.281 445,183.5C 436.061,173.556 426.228,164.722 415.5,157C 368.473,126.488 316.806,111.321 260.5,111.5C 205.628,110.8 154.628,124.3 107.5,152C 49.5285,189.098 21.3619,242.265 23,311.5C 12.9138,281.163 11.9138,250.496 20,219.5C 35.4993,173.669 64.666,139.502 107.5,117C 110.294,113.865 110.961,110.365 109.5,106.5C 115.997,103.086 122.33,99.4192 128.5,95.5C 129.962,96.4577 131.295,97.6244 132.5,99C 134.5,99.6667 136.5,99.6667 138.5,99C 146.333,94.5845 154,89.9178 161.5,85C 182.665,68.8435 202.332,50.8435 220.5,31C 228.638,23.5972 237.971,18.2639 248.5,15C 262.781,13.7596 275.447,17.7596 286.5,27C 300.167,40 313.833,53 327.5,66C 332.833,70.3333 338.167,74.6667 343.5,79C 372.335,96.585 401.335,113.918 430.5,131C 489.318,176.789 508.485,235.623 488,307.5C 489.379,275.354 482.712,245.021 468,216.5C 465.261,213.586 462.094,212.919 458.5,214.5 Z"/></g>
<g><path style="opacity:1" fill="#fde87c" d="M 298.5,129.5 C 339.448,140.389 374.282,161.389 403,192.5C 434.497,230.819 445.831,274.486 437,323.5C 431.042,348.589 418.542,369.756 399.5,387C 376.878,405.903 351.878,421.237 324.5,433C 311.167,438.667 297.833,444.333 284.5,450C 283.244,450.417 282.577,451.25 282.5,452.5C 278.105,446.597 273.105,441.097 267.5,436C 292.618,420.216 316.618,402.882 339.5,384C 350.961,373.881 360.128,362.048 367,348.5C 372.581,335.202 371.581,322.536 364,310.5C 354.708,299.591 343.208,291.757 329.5,287C 309.761,279.982 289.428,275.982 268.5,275C 234.247,271.862 201.581,277.529 170.5,292C 135.433,312.819 130.933,338.985 157,370.5C 182.053,395.897 210.22,417.064 241.5,434C 253.667,442.167 263.833,452.333 272,464.5C 277.32,472.778 279.32,481.778 278,491.5C 277.083,496.354 274.583,497.521 270.5,495C 261.329,483.157 250.329,473.491 237.5,466C 213.073,453.97 188.073,443.303 162.5,434C 131.99,422.088 103.99,406.088 78.5,386C 63.8169,372.991 52.6502,357.491 45,339.5C 28.3805,267.022 50.5471,209.522 111.5,167C 169.265,132.28 231.598,119.78 298.5,129.5 Z M 232.5,290.5 C 212.998,292.212 194.332,297.378 176.5,306C 167.146,311.684 160.312,319.518 156,329.5C 155.495,337.988 157.828,345.655 163,352.5C 169.095,360.599 175.928,368.099 183.5,375C 206.288,393.292 230.288,409.792 255.5,424.5C 270.298,415.263 284.965,405.763 299.5,396C 318.919,382.582 335.753,366.415 350,347.5C 358.495,334.633 356.995,323.133 345.5,313C 335.705,306.283 325.038,301.283 313.5,298C 286.907,291.274 259.907,288.774 232.5,290.5 Z"/></g>
<g><path style="opacity:1" fill="#fce259" d="M 298.5,129.5 C 352.832,134.836 398.832,157.002 436.5,196C 439.407,196.718 442.074,196.218 444.5,194.5C 449.659,200.817 454.326,207.484 458.5,214.5C 456.541,216.246 455.207,218.413 454.5,221C 492.832,304.338 471.832,367.671 391.5,411C 356.966,428.231 321.966,444.398 286.5,459.5C 284.89,457.275 283.557,454.941 282.5,452.5C 282.577,451.25 283.244,450.417 284.5,450C 297.833,444.333 311.167,438.667 324.5,433C 351.878,421.237 376.878,405.903 399.5,387C 418.542,369.756 431.042,348.589 437,323.5C 445.831,274.486 434.497,230.819 403,192.5C 374.282,161.389 339.448,140.389 298.5,129.5 Z"/></g>
<g><path style="opacity:1" fill="#050502" d="M 168.5,245.5 C 178.741,243.898 182.241,247.898 179,257.5C 166.666,261.415 154.832,266.581 143.5,273C 116.973,290.582 107.806,314.748 116,345.5C 111.333,352.167 106.667,352.167 102,345.5C 94.328,321.887 97.9947,300.22 113,280.5C 128.271,263.62 146.771,251.953 168.5,245.5 Z"/></g>
</svg>
