<?xml version="1.0" encoding="UTF-8"?>
<!DOCTYPE svg PUBLIC "-//W3C//DTD SVG 1.1//EN" "http://www.w3.org/Graphics/SVG/1.1/DTD/svg11.dtd">
<svg xmlns="http://www.w3.org/2000/svg" version="1.1" width="512px" height="512px" style="shape-rendering:geometricPrecision; text-rendering:geometricPrecision; image-rendering:optimizeQuality; fill-rule:evenodd; clip-rule:evenodd" xmlns:xlink="http://www.w3.org/1999/xlink">
<g><path style="opacity:0.983" fill="#000000" d="M 146.5,-0.5 C 219.167,-0.5 291.833,-0.5 364.5,-0.5C 367.342,1.84425 369.175,4.84425 370,8.5C 370.667,164.833 370.667,321.167 370,477.5C 368.846,484.504 364.679,487.837 357.5,487.5C 356.987,493.411 355.987,499.244 354.5,505C 353.366,507.627 351.7,509.793 349.5,511.5C 286.833,511.5 224.167,511.5 161.5,511.5C 159.866,510.028 158.366,508.362 157,506.5C 155.186,500.282 154.019,493.949 153.5,487.5C 146.321,487.837 142.154,484.504 141,477.5C 140.333,321.167 140.333,164.833 141,8.5C 141.825,4.84425 143.658,1.84425 146.5,-0.5 Z"/></g>
<g><path style="opacity:1" fill="#838383" d="M 161.5,19.5 C 224.167,19.5 286.833,19.5 349.5,19.5C 349.5,21.8333 349.5,24.1667 349.5,26.5C 286.833,26.5 224.167,26.5 161.5,26.5C 161.5,24.1667 161.5,21.8333 161.5,19.5 Z"/></g>
<g><path style="opacity:1" fill="#e5e6e5" d="M 162.5,20.5 C 224.5,20.5 286.5,20.5 348.5,20.5C 348.5,22.1667 348.5,23.8333 348.5,25.5C 286.5,25.5 224.5,25.5 162.5,25.5C 162.5,23.8333 162.5,22.1667 162.5,20.5 Z"/></g>
<g><path style="opacity:1" fill="#0070bb" d="M 161.5,46.5 C 210.5,46.5 259.5,46.5 308.5,46.5C 291.855,101.749 275.521,157.082 259.5,212.5C 239.969,211.891 225.802,220.224 217,237.5C 213.167,241.333 209.333,245.167 205.5,249C 190.837,249.5 176.17,249.667 161.5,249.5C 161.5,181.833 161.5,114.167 161.5,46.5 Z"/></g>
<g><path style="opacity:1" fill="#e3e3e3" d="M 329.5,46.5 C 336.167,46.5 342.833,46.5 349.5,46.5C 349.5,114.167 349.5,181.833 349.5,249.5C 334.496,249.667 319.496,249.5 304.5,249C 297.811,243.652 292.645,237.152 289,229.5C 285.29,225.958 281.79,222.292 278.5,218.5C 295.816,161.232 312.816,103.899 329.5,46.5 Z"/></g>
<g><path style="opacity:1" fill="#f7ad3a" d="M 248.5,233.5 C 261.393,231.195 270.56,235.862 276,247.5C 278.801,268.368 269.634,277.868 248.5,276C 235.466,270.098 230.966,260.265 235,246.5C 238.076,240.589 242.576,236.255 248.5,233.5 Z"/></g>
<g><path style="opacity:1" fill="#b22429" d="M 214.5,268.5 C 216.266,271.188 217.933,274.021 219.5,277C 215.167,277.667 210.833,277.667 206.5,277C 209.371,274.297 212.038,271.464 214.5,268.5 Z"/></g>
<g><path style="opacity:1" fill="#e4e4e4" d="M 179.5,297.5 C 197.167,298.167 214.833,298.833 232.5,299.5C 215.678,355.122 199.011,410.788 182.5,466.5C 175.5,466.5 168.5,466.5 161.5,466.5C 161.5,401.167 161.5,335.833 161.5,270.5C 168.863,270.169 176.197,270.503 183.5,271.5C 180.182,275.318 176.682,278.985 173,282.5C 171.085,286.623 171.418,290.623 174,294.5C 175.488,296.16 177.321,297.16 179.5,297.5 Z"/></g>
<g><path style="opacity:1" fill="#b7252a" d="M 294.5,269.5 C 297.899,271.388 300.899,273.888 303.5,277C 299.459,277.827 295.459,277.66 291.5,276.5C 292.788,274.261 293.788,271.928 294.5,269.5 Z"/></g>
<g><path style="opacity:1" fill="#0070ba" d="M 326.5,271.5 C 333.982,270.508 341.648,270.175 349.5,270.5C 349.5,335.833 349.5,401.167 349.5,466.5C 300.829,466.833 252.162,466.5 203.5,465.5C 220.487,409.885 237.321,354.218 254,298.5C 280.094,297.671 306.261,297.171 332.5,297C 338.025,294.081 339.858,289.581 338,283.5C 334.664,278.998 330.831,274.998 326.5,271.5 Z"/></g>
<g><path style="opacity:1" fill="#7a7a7a" d="M 179.5,297.5 C 197.512,297.167 215.512,297.5 233.5,298.5C 233.376,299.107 233.043,299.44 232.5,299.5C 214.833,298.833 197.167,298.167 179.5,297.5 Z"/></g>
<g><path style="opacity:1" fill="#c2c2c2" d="M 174.5,486.5 C 228.5,486.5 282.5,486.5 336.5,486.5C 336.5,488.167 336.5,489.833 336.5,491.5C 282.5,491.5 228.5,491.5 174.5,491.5C 174.5,489.833 174.5,488.167 174.5,486.5 Z"/></g>
</svg>
