<?xml version="1.0" encoding="UTF-8"?>
<!DOCTYPE svg PUBLIC "-//W3C//DTD SVG 1.1//EN" "http://www.w3.org/Graphics/SVG/1.1/DTD/svg11.dtd">
<svg xmlns="http://www.w3.org/2000/svg" version="1.1" width="512px" height="512px" style="shape-rendering:geometricPrecision; text-rendering:geometricPrecision; image-rendering:optimizeQuality; fill-rule:evenodd; clip-rule:evenodd" xmlns:xlink="http://www.w3.org/1999/xlink">
<g><path style="opacity:0.983" fill="#000000" d="M 167.5,134.5 C 164.882,136.331 162.215,137.831 159.5,139C 154.345,133.022 149.678,126.689 145.5,120C 122.833,119.333 100.167,119.333 77.5,120C 75,123.833 72.5,127.667 70,131.5C 60.2968,141.535 50.9635,151.868 42,162.5C 36.3302,171.343 33.1635,181.009 32.5,191.5C 69.5,191.5 106.5,191.5 143.5,191.5C 143.5,194.167 143.5,196.833 143.5,199.5C 143.5,202.167 143.5,204.833 143.5,207.5C 106.167,207.5 68.8333,207.5 31.5,207.5C 31.5,239.5 31.5,271.5 31.5,303.5C 58.1667,303.5 84.8333,303.5 111.5,303.5C 122.167,303.5 132.833,303.5 143.5,303.5C 143.5,306.167 143.5,308.833 143.5,311.5C 143.5,314.167 143.5,316.833 143.5,319.5C 126.5,319.5 109.5,319.5 92.5,319.5C 72.5,319.5 52.5,319.5 32.5,319.5C 32.3359,322.187 32.5026,324.854 33,327.5C 35.6201,337.184 38.1201,346.85 40.5,356.5C 41.5702,367.14 41.7369,377.807 41,388.5C 38.4099,401.602 35.4099,414.602 32,427.5C 31.3333,439.5 31.3333,451.5 32,463.5C 37.8792,479.019 48.3792,483.186 63.5,476C 67.1667,472.333 70.8333,468.667 74.5,465C 77.8005,463.121 81.1338,463.121 84.5,465C 101.678,483.752 119.345,484.252 137.5,466.5C 142.437,469.621 146.437,473.621 149.5,478.5C 135.289,493.846 117.955,499.013 97.5,494C 91.123,491.73 85.2897,488.563 80,484.5C 64.2054,497.39 47.372,498.89 29.5,489C 22.8631,483.556 18.3631,476.722 16,468.5C 15.3333,454.167 15.3333,439.833 16,425.5C 18.0371,414.018 20.7037,402.685 24,391.5C 26,380.833 26,370.167 24,359.5C 20.7037,348.315 18.0371,336.982 16,325.5C 15.3333,278.833 15.3333,232.167 16,185.5C 18.7311,168.708 25.7311,154.041 37,141.5C 43.3333,135.167 49.6667,128.833 56,122.5C 67.1917,107.416 72.3583,90.4158 71.5,71.5C 68.8333,71.5 66.1667,71.5 63.5,71.5C 63.5,66.1667 63.5,60.8333 63.5,55.5C 66.1667,55.5 68.8333,55.5 71.5,55.5C 63.832,21.168 77.1653,7.83469 111.5,15.5C 145.835,7.83469 159.168,21.168 151.5,55.5C 154.167,55.5 156.833,55.5 159.5,55.5C 159.5,60.8333 159.5,66.1667 159.5,71.5C 156.833,71.5 154.167,71.5 151.5,71.5C 150.418,93.5994 157.418,112.599 172.5,128.5C 170.81,130.519 169.144,132.519 167.5,134.5 Z"/></g>
<g><path style="opacity:0.99" fill="#010000" d="M 332.5,145.5 C 345.038,161.257 351.371,179.257 351.5,199.5C 351.5,207.5 351.5,215.5 351.5,223.5C 348.833,223.5 346.167,223.5 343.5,223.5C 340.833,223.5 338.167,223.5 335.5,223.5C 335.5,218.167 335.5,212.833 335.5,207.5C 282.167,207.5 228.833,207.5 175.5,207.5C 175.5,239.5 175.5,271.5 175.5,303.5C 196.833,303.5 218.167,303.5 239.5,303.5C 239.5,306.167 239.5,308.833 239.5,311.5C 239.5,314.167 239.5,316.833 239.5,319.5C 238.5,319.5 237.5,319.5 236.5,319.5C 216.5,319.5 196.5,319.5 176.5,319.5C 176.336,322.187 176.503,324.854 177,327.5C 179.609,337.157 182.109,346.824 184.5,356.5C 185.574,367.473 185.74,378.473 185,389.5C 182.156,402.541 179.156,415.541 176,428.5C 175.333,440.167 175.333,451.833 176,463.5C 181.866,479.016 192.366,483.182 207.5,476C 211.167,472.333 214.833,468.667 218.5,465C 221.833,463 225.167,463 228.5,465C 238.157,477.921 250.657,482.088 266,477.5C 267.919,479.711 269.752,482.045 271.5,484.5C 271.724,486.787 272.391,488.953 273.5,491C 273.355,491.772 273.022,492.439 272.5,493C 254.758,498.615 238.592,495.781 224,484.5C 212.331,495.125 198.831,498.291 183.5,494C 179.423,492.4 175.756,490.234 172.5,487.5C 165.163,480.826 160.996,472.493 160,462.5C 159.333,450.5 159.333,438.5 160,426.5C 162.384,414.347 165.384,402.347 169,390.5C 169.667,380.5 169.667,370.5 169,360.5C 166.333,349.833 163.667,339.167 161,328.5C 160.096,322.865 159.596,317.198 159.5,311.5C 159.5,291.167 159.5,270.833 159.5,250.5C 159.5,233.5 159.5,216.5 159.5,199.5C 159.638,179.243 165.972,161.243 178.5,145.5C 185.095,137.402 192.261,129.735 200,122.5C 211.192,107.416 216.358,90.4158 215.5,71.5C 212.833,71.5 210.167,71.5 207.5,71.5C 207.5,66.1667 207.5,60.8333 207.5,55.5C 210.167,55.5 212.833,55.5 215.5,55.5C 207.832,21.168 221.165,7.83469 255.5,15.5C 289.835,7.83469 303.168,21.168 295.5,55.5C 298.167,55.5 300.833,55.5 303.5,55.5C 303.5,60.8333 303.5,66.1667 303.5,71.5C 300.833,71.5 298.167,71.5 295.5,71.5C 294.642,90.4158 299.808,107.416 311,122.5C 318.739,129.735 325.905,137.402 332.5,145.5 Z"/></g>
<g><path style="opacity:0.974" fill="#000000" d="M 423.5,480.5 C 422.088,478.02 420.422,475.687 418.5,473.5C 421.353,469.813 424.686,466.647 428.5,464C 431.257,463.416 433.923,463.75 436.5,465C 440.167,468.667 443.833,472.333 447.5,476C 460.841,482.736 471.008,479.569 478,466.5C 481.561,444.296 479.561,422.629 472,401.5C 467.252,376.285 469.252,351.618 478,327.5C 478.497,324.854 478.664,322.187 478.5,319.5C 468.167,319.5 457.833,319.5 447.5,319.5C 447.5,316.833 447.5,314.167 447.5,311.5C 447.5,308.833 447.5,306.167 447.5,303.5C 458.167,303.5 468.833,303.5 479.5,303.5C 479.5,271.5 479.5,239.5 479.5,207.5C 478.5,207.5 477.5,207.5 476.5,207.5C 440.167,207.5 403.833,207.5 367.5,207.5C 367.5,204.833 367.5,202.167 367.5,199.5C 367.5,196.833 367.5,194.167 367.5,191.5C 404.5,191.5 441.5,191.5 478.5,191.5C 477.848,181.043 474.681,171.376 469,162.5C 460.037,151.868 450.703,141.535 441,131.5C 436.368,125.228 432.534,118.561 429.5,111.5C 427.181,103.559 425.181,95.5586 423.5,87.5C 423.5,82.1667 423.5,76.8333 423.5,71.5C 407.5,71.5 391.5,71.5 375.5,71.5C 375.5,76.8333 375.5,82.1667 375.5,87.5C 373.819,95.5586 371.819,103.559 369.5,111.5C 364.967,121.551 358.967,130.718 351.5,139C 348.785,137.831 346.118,136.331 343.5,134.5C 341.856,132.519 340.19,130.519 338.5,128.5C 353.582,112.599 360.582,93.5994 359.5,71.5C 356.833,71.5 354.167,71.5 351.5,71.5C 351.5,66.1667 351.5,60.8333 351.5,55.5C 354.167,55.5 356.833,55.5 359.5,55.5C 351.832,21.168 365.165,7.83469 399.5,15.5C 433.835,7.83469 447.168,21.168 439.5,55.5C 442.167,55.5 444.833,55.5 447.5,55.5C 447.5,60.8333 447.5,66.1667 447.5,71.5C 444.833,71.5 442.167,71.5 439.5,71.5C 438.642,90.4158 443.808,107.416 455,122.5C 465.443,131.937 474.776,142.271 483,153.5C 489.172,163.681 493.172,174.681 495,186.5C 496.589,228.149 496.922,269.816 496,311.5C 495.664,318.533 494.998,325.533 494,332.5C 491.665,341.505 489.331,350.505 487,359.5C 485,370.167 485,380.833 487,391.5C 490.296,402.685 492.963,414.018 495,425.5C 495.667,439.5 495.667,453.5 495,467.5C 491.167,482 482,491.167 467.5,495C 454.024,497.717 442.357,494.383 432.5,485C 430.633,484.289 429.133,484.789 428,486.5C 425.898,484.905 424.398,482.905 423.5,480.5 Z"/></g>
<g><path style="opacity:1" fill="#f96d00" d="M 87.5,31.5 C 103.5,31.5 119.5,31.5 135.5,31.5C 135.5,39.5 135.5,47.5 135.5,55.5C 119.5,55.5 103.5,55.5 87.5,55.5C 87.5,47.5 87.5,39.5 87.5,31.5 Z"/></g>
<g><path style="opacity:1" fill="#f25243" d="M 231.5,31.5 C 247.5,31.5 263.5,31.5 279.5,31.5C 279.5,39.5 279.5,47.5 279.5,55.5C 263.5,55.5 247.5,55.5 231.5,55.5C 231.5,47.5 231.5,39.5 231.5,31.5 Z"/></g>
<g><path style="opacity:1" fill="#7db456" d="M 375.5,31.5 C 391.5,31.5 407.5,31.5 423.5,31.5C 423.5,39.5 423.5,47.5 423.5,55.5C 407.5,55.5 391.5,55.5 375.5,55.5C 375.5,47.5 375.5,39.5 375.5,31.5 Z"/></g>
<g><path style="opacity:1" fill="#dfdfdd" d="M 136.5,90.5 C 135.596,89.791 135.263,88.791 135.5,87.5C 119.5,87.5 103.5,87.5 87.5,87.5C 87.7373,88.791 87.404,89.791 86.5,90.5C 87.3197,84.2026 87.653,77.8692 87.5,71.5C 103.5,71.5 119.5,71.5 135.5,71.5C 135.347,77.8692 135.68,84.2026 136.5,90.5 Z"/></g>
<g><path style="opacity:1" fill="#dfdfdd" d="M 280.5,90.5 C 279.596,89.791 279.263,88.791 279.5,87.5C 263.5,87.5 247.5,87.5 231.5,87.5C 231.737,88.791 231.404,89.791 230.5,90.5C 231.32,84.2026 231.653,77.8692 231.5,71.5C 247.5,71.5 263.5,71.5 279.5,71.5C 279.347,77.8692 279.68,84.2026 280.5,90.5 Z"/></g>
<g><path style="opacity:1" fill="#dfe0dd" d="M 423.5,87.5 C 407.5,87.5 391.5,87.5 375.5,87.5C 375.5,82.1667 375.5,76.8333 375.5,71.5C 391.5,71.5 407.5,71.5 423.5,71.5C 423.5,76.8333 423.5,82.1667 423.5,87.5 Z"/></g>
<g><path style="opacity:1" fill="#e9e9e7" d="M 136.5,90.5 C 137.425,94.7902 138.091,99.1235 138.5,103.5C 120.5,103.5 102.5,103.5 84.5,103.5C 84.9088,99.1235 85.5755,94.7902 86.5,90.5C 87.404,89.791 87.7373,88.791 87.5,87.5C 103.5,87.5 119.5,87.5 135.5,87.5C 135.263,88.791 135.596,89.791 136.5,90.5 Z"/></g>
<g><path style="opacity:1" fill="#e9e9e7" d="M 280.5,90.5 C 281.425,94.7902 282.091,99.1235 282.5,103.5C 264.5,103.5 246.5,103.5 228.5,103.5C 228.909,99.1235 229.575,94.7902 230.5,90.5C 231.404,89.791 231.737,88.791 231.5,87.5C 247.5,87.5 263.5,87.5 279.5,87.5C 279.263,88.791 279.596,89.791 280.5,90.5 Z"/></g>
<g><path style="opacity:1" fill="#e9e9e7" d="M 375.5,87.5 C 391.5,87.5 407.5,87.5 423.5,87.5C 425.181,95.5586 427.181,103.559 429.5,111.5C 409.5,111.5 389.5,111.5 369.5,111.5C 371.819,103.559 373.819,95.5586 375.5,87.5 Z"/></g>
<g><path style="opacity:1" fill="#7db356" d="M 369.5,111.5 C 389.5,111.5 409.5,111.5 429.5,111.5C 432.534,118.561 436.368,125.228 441,131.5C 450.703,141.535 460.037,151.868 469,162.5C 474.681,171.376 477.848,181.043 478.5,191.5C 441.5,191.5 404.5,191.5 367.5,191.5C 367.5,194.167 367.5,196.833 367.5,199.5C 362.167,199.5 356.833,199.5 351.5,199.5C 351.371,179.257 345.038,161.257 332.5,145.5C 336.5,142.167 340.167,138.5 343.5,134.5C 346.118,136.331 348.785,137.831 351.5,139C 358.967,130.718 364.967,121.551 369.5,111.5 Z"/></g>
<g><path style="opacity:1" fill="#f96c00" d="M 167.5,134.5 C 170.833,138.5 174.5,142.167 178.5,145.5C 165.972,161.243 159.638,179.243 159.5,199.5C 154.167,199.5 148.833,199.5 143.5,199.5C 143.5,196.833 143.5,194.167 143.5,191.5C 106.5,191.5 69.5,191.5 32.5,191.5C 33.1635,181.009 36.3302,171.343 42,162.5C 50.9635,151.868 60.2968,141.535 70,131.5C 72.5,127.667 75,123.833 77.5,120C 100.167,119.333 122.833,119.333 145.5,120C 149.678,126.689 154.345,133.022 159.5,139C 162.215,137.831 164.882,136.331 167.5,134.5 Z"/></g>
<g><path style="opacity:1" fill="#683823" d="M 221.5,119.5 C 244.169,119.333 266.836,119.5 289.5,120C 297.46,132.971 307.293,144.471 319,154.5C 328.026,165.218 333.192,177.551 334.5,191.5C 281.833,191.5 229.167,191.5 176.5,191.5C 177.808,177.551 182.974,165.218 192,154.5C 203.924,144.425 213.757,132.758 221.5,119.5 Z"/></g>
<g><path style="opacity:1" fill="#f88400" d="M 143.5,199.5 C 148.833,199.5 154.167,199.5 159.5,199.5C 159.5,216.5 159.5,233.5 159.5,250.5C 144.26,268.745 128.26,286.412 111.5,303.5C 84.8333,303.5 58.1667,303.5 31.5,303.5C 31.5,271.5 31.5,239.5 31.5,207.5C 68.8333,207.5 106.167,207.5 143.5,207.5C 143.5,204.833 143.5,202.167 143.5,199.5 Z"/></g>
<g><path style="opacity:1" fill="#d0d24b" d="M 351.5,199.5 C 356.833,199.5 362.167,199.5 367.5,199.5C 367.5,202.167 367.5,204.833 367.5,207.5C 403.833,207.5 440.167,207.5 476.5,207.5C 463.398,229.264 448.398,249.597 431.5,268.5C 431.666,260.493 431.5,252.493 431,244.5C 430.065,241.898 428.232,240.398 425.5,240C 398.169,239.5 370.835,239.333 343.5,239.5C 343.5,234.167 343.5,228.833 343.5,223.5C 346.167,223.5 348.833,223.5 351.5,223.5C 351.5,215.5 351.5,207.5 351.5,199.5 Z"/></g>
<g><path style="opacity:1" fill="#f25143" d="M 343.5,223.5 C 343.5,228.833 343.5,234.167 343.5,239.5C 315.078,239.017 286.745,239.517 258.5,241C 257.299,241.903 256.465,243.069 256,244.5C 255.5,266.831 255.333,289.164 255.5,311.5C 250.167,311.5 244.833,311.5 239.5,311.5C 239.5,308.833 239.5,306.167 239.5,303.5C 218.167,303.5 196.833,303.5 175.5,303.5C 175.5,271.5 175.5,239.5 175.5,207.5C 228.833,207.5 282.167,207.5 335.5,207.5C 335.5,212.833 335.5,218.167 335.5,223.5C 338.167,223.5 340.833,223.5 343.5,223.5 Z"/></g>
<g><path style="opacity:1" fill="#c7c934" d="M 476.5,207.5 C 477.5,207.5 478.5,207.5 479.5,207.5C 479.5,239.5 479.5,271.5 479.5,303.5C 468.833,303.5 458.167,303.5 447.5,303.5C 447.5,306.167 447.5,308.833 447.5,311.5C 442.167,311.5 436.833,311.5 431.5,311.5C 431.5,297.167 431.5,282.833 431.5,268.5C 448.398,249.597 463.398,229.264 476.5,207.5 Z"/></g>
<g><path style="opacity:1" fill="#000000" d="M 47.5,223.5 C 52.8333,223.5 58.1667,223.5 63.5,223.5C 63.5,228.833 63.5,234.167 63.5,239.5C 58.1667,239.5 52.8333,239.5 47.5,239.5C 47.5,234.167 47.5,228.833 47.5,223.5 Z"/></g>
<g><path style="opacity:1" fill="#000000" d="M 191.5,223.5 C 196.833,223.5 202.167,223.5 207.5,223.5C 207.5,228.833 207.5,234.167 207.5,239.5C 202.167,239.5 196.833,239.5 191.5,239.5C 191.5,234.167 191.5,228.833 191.5,223.5 Z"/></g>
<g><path style="opacity:0.998" fill="#010000" d="M 343.5,239.5 C 370.835,239.333 398.169,239.5 425.5,240C 428.232,240.398 430.065,241.898 431,244.5C 431.5,252.493 431.666,260.493 431.5,268.5C 431.5,282.833 431.5,297.167 431.5,311.5C 429.659,334.859 423.159,356.859 412,377.5C 410.022,383.411 408.355,389.411 407,395.5C 404.042,424.287 401.542,453.121 399.5,482C 399.506,484.033 399.839,485.866 400.5,487.5C 399.945,490.787 398.278,493.287 395.5,495C 360.833,495.667 326.167,495.667 291.5,495C 288.906,493.661 287.406,491.494 287,488.5C 286.777,483.75 286.277,479.084 285.5,474.5C 284.925,448.511 283.091,422.511 280,396.5C 278.98,391.087 277.647,385.754 276,380.5C 268.32,365.138 262.32,349.138 258,332.5C 257.083,325.501 256.25,318.501 255.5,311.5C 255.333,289.164 255.5,266.831 256,244.5C 256.465,243.069 257.299,241.903 258.5,241C 286.745,239.517 315.078,239.017 343.5,239.5 Z"/></g>
<g><path style="opacity:1" fill="#f77c00" d="M 159.5,250.5 C 159.5,270.833 159.5,291.167 159.5,311.5C 154.167,311.5 148.833,311.5 143.5,311.5C 143.5,308.833 143.5,306.167 143.5,303.5C 132.833,303.5 122.167,303.5 111.5,303.5C 128.26,286.412 144.26,268.745 159.5,250.5 Z"/></g>
<g><path style="opacity:1" fill="#000000" d="M 47.5,255.5 C 52.8333,255.5 58.1667,255.5 63.5,255.5C 63.5,266.167 63.5,276.833 63.5,287.5C 58.1667,287.5 52.8333,287.5 47.5,287.5C 47.5,276.833 47.5,266.167 47.5,255.5 Z"/></g>
<g><path style="opacity:1" fill="#000000" d="M 191.5,255.5 C 196.833,255.5 202.167,255.5 207.5,255.5C 207.5,266.167 207.5,276.833 207.5,287.5C 202.167,287.5 196.833,287.5 191.5,287.5C 191.5,276.833 191.5,266.167 191.5,255.5 Z"/></g>
<g><path style="opacity:1" fill="#eaebe8" d="M 271.5,255.5 C 319.5,255.5 367.5,255.5 415.5,255.5C 415.5,263.5 415.5,271.5 415.5,279.5C 367.5,279.5 319.5,279.5 271.5,279.5C 271.5,271.5 271.5,263.5 271.5,255.5 Z"/></g>
<g><path style="opacity:1" fill="#f88400" d="M 411.5,333.5 C 404.353,342.43 397.186,351.43 390,360.5C 382.239,368.585 374.906,376.919 368,385.5C 365.76,388.368 362.926,390.368 359.5,391.5C 354.167,391.5 348.833,391.5 343.5,391.5C 343.5,396.833 343.5,402.167 343.5,407.5C 337.167,412.833 330.833,418.167 324.5,423.5C 322.833,423.5 321.167,423.5 319.5,423.5C 319.5,424.833 319.5,426.167 319.5,427.5C 313.441,432.224 307.108,436.557 300.5,440.5C 298.983,425.321 297.483,409.988 296,394.5C 292.713,377.973 287.047,362.307 279,347.5C 273.21,330.635 270.71,313.302 271.5,295.5C 319.5,295.5 367.5,295.5 415.5,295.5C 416.119,308.527 414.785,321.194 411.5,333.5 Z"/></g>
<g><path style="opacity:1" fill="#f76300" d="M 143.5,311.5 C 148.833,311.5 154.167,311.5 159.5,311.5C 159.596,317.198 160.096,322.865 161,328.5C 163.667,339.167 166.333,349.833 169,360.5C 169.667,370.5 169.667,380.5 169,390.5C 165.384,402.347 162.384,414.347 160,426.5C 159.333,438.5 159.333,450.5 160,462.5C 160.996,472.493 165.163,480.826 172.5,487.5C 163.378,488.102 155.711,485.102 149.5,478.5C 146.437,473.621 142.437,469.621 137.5,466.5C 119.345,484.252 101.678,483.752 84.5,465C 81.1338,463.121 77.8005,463.121 74.5,465C 70.8333,468.667 67.1667,472.333 63.5,476C 48.3792,483.186 37.8792,479.019 32,463.5C 31.3333,451.5 31.3333,439.5 32,427.5C 35.4099,414.602 38.4099,401.602 41,388.5C 41.7369,377.807 41.5702,367.14 40.5,356.5C 58.9508,345.713 76.2841,333.379 92.5,319.5C 109.5,319.5 126.5,319.5 143.5,319.5C 143.5,316.833 143.5,314.167 143.5,311.5 Z"/></g>
<g><path style="opacity:1" fill="#5b2d19" d="M 239.5,311.5 C 244.833,311.5 250.167,311.5 255.5,311.5C 256.25,318.501 257.083,325.501 258,332.5C 262.32,349.138 268.32,365.138 276,380.5C 277.647,385.754 278.98,391.087 280,396.5C 283.091,422.511 284.925,448.511 285.5,474.5C 281.669,478.997 277.002,482.331 271.5,484.5C 269.752,482.045 267.919,479.711 266,477.5C 250.657,482.088 238.157,477.921 228.5,465C 225.167,463 221.833,463 218.5,465C 214.833,468.667 211.167,472.333 207.5,476C 192.366,483.182 181.866,479.016 176,463.5C 175.333,451.833 175.333,440.167 176,428.5C 179.156,415.541 182.156,402.541 185,389.5C 185.74,378.473 185.574,367.473 184.5,356.5C 203.249,346.128 220.582,333.795 236.5,319.5C 237.5,319.5 238.5,319.5 239.5,319.5C 239.5,316.833 239.5,314.167 239.5,311.5 Z"/></g>
<g><path style="opacity:1" fill="#78ab53" d="M 431.5,311.5 C 436.833,311.5 442.167,311.5 447.5,311.5C 447.5,314.167 447.5,316.833 447.5,319.5C 457.833,319.5 468.167,319.5 478.5,319.5C 478.664,322.187 478.497,324.854 478,327.5C 469.252,351.618 467.252,376.285 472,401.5C 479.561,422.629 481.561,444.296 478,466.5C 471.008,479.569 460.841,482.736 447.5,476C 443.833,472.333 440.167,468.667 436.5,465C 433.923,463.75 431.257,463.416 428.5,464C 424.686,466.647 421.353,469.813 418.5,473.5C 420.422,475.687 422.088,478.02 423.5,480.5C 416.632,485.433 408.966,487.766 400.5,487.5C 399.839,485.866 399.506,484.033 399.5,482C 401.542,453.121 404.042,424.287 407,395.5C 408.355,389.411 410.022,383.411 412,377.5C 423.159,356.859 429.659,334.859 431.5,311.5 Z"/></g>
<g><path style="opacity:1" fill="#f96c00" d="M 92.5,319.5 C 76.2841,333.379 58.9508,345.713 40.5,356.5C 38.1201,346.85 35.6201,337.184 33,327.5C 32.5026,324.854 32.3359,322.187 32.5,319.5C 52.5,319.5 72.5,319.5 92.5,319.5 Z"/></g>
<g><path style="opacity:1" fill="#683823" d="M 236.5,319.5 C 220.582,333.795 203.249,346.128 184.5,356.5C 182.109,346.824 179.609,337.157 177,327.5C 176.503,324.854 176.336,322.187 176.5,319.5C 196.5,319.5 216.5,319.5 236.5,319.5 Z"/></g>
<g><path style="opacity:1" fill="#000000" d="M 327.5,335.5 C 332.833,335.5 338.167,335.5 343.5,335.5C 343.5,340.833 343.5,346.167 343.5,351.5C 338.167,351.5 332.833,351.5 327.5,351.5C 327.5,346.167 327.5,340.833 327.5,335.5 Z"/></g>
<g><path style="opacity:1" fill="#f67b00" d="M 411.5,333.5 C 408.886,346.172 404.386,358.172 398,369.5C 394.886,377.624 392.553,385.957 391,394.5C 388.196,422.789 386.029,451.122 384.5,479.5C 357.167,479.5 329.833,479.5 302.5,479.5C 301.833,466.5 301.167,453.5 300.5,440.5C 307.108,436.557 313.441,432.224 319.5,427.5C 319.5,431.5 319.5,435.5 319.5,439.5C 324.833,439.5 330.167,439.5 335.5,439.5C 335.5,434.167 335.5,428.833 335.5,423.5C 331.833,423.5 328.167,423.5 324.5,423.5C 330.833,418.167 337.167,412.833 343.5,407.5C 348.833,407.5 354.167,407.5 359.5,407.5C 359.5,402.167 359.5,396.833 359.5,391.5C 362.926,390.368 365.76,388.368 368,385.5C 374.906,376.919 382.239,368.585 390,360.5C 397.186,351.43 404.353,342.43 411.5,333.5 Z"/></g>
<g><path style="opacity:1" fill="#000000" d="M 359.5,391.5 C 359.5,396.833 359.5,402.167 359.5,407.5C 354.167,407.5 348.833,407.5 343.5,407.5C 343.5,402.167 343.5,396.833 343.5,391.5C 348.833,391.5 354.167,391.5 359.5,391.5 Z"/></g>
<g><path style="opacity:1" fill="#000000" d="M 324.5,423.5 C 328.167,423.5 331.833,423.5 335.5,423.5C 335.5,428.833 335.5,434.167 335.5,439.5C 330.167,439.5 324.833,439.5 319.5,439.5C 319.5,435.5 319.5,431.5 319.5,427.5C 319.5,426.167 319.5,424.833 319.5,423.5C 321.167,423.5 322.833,423.5 324.5,423.5 Z"/></g>
</svg>
