<?xml version="1.0" encoding="UTF-8"?>
<!DOCTYPE svg PUBLIC "-//W3C//DTD SVG 1.1//EN" "http://www.w3.org/Graphics/SVG/1.1/DTD/svg11.dtd">
<svg xmlns="http://www.w3.org/2000/svg" version="1.1" width="512px" height="512px" style="shape-rendering:geometricPrecision; text-rendering:geometricPrecision; image-rendering:optimizeQuality; fill-rule:evenodd; clip-rule:evenodd" xmlns:xlink="http://www.w3.org/1999/xlink">
<g><path style="opacity:0.978" fill="#010000" d="M 206.5,-0.5 C 239.167,-0.5 271.833,-0.5 304.5,-0.5C 305.458,0.961599 306.624,2.29493 308,3.5C 308.333,33.8333 308.667,64.1667 309,94.5C 326.05,115.882 342.716,137.548 359,159.5C 363.997,167.829 366.997,176.829 368,186.5C 368.667,286.833 368.667,387.167 368,487.5C 364.755,499.576 357.255,507.576 345.5,511.5C 340.167,511.5 334.833,511.5 329.5,511.5C 320.912,507.761 313.912,501.927 308.5,494C 303.349,491.095 298.015,490.762 292.5,493C 283.38,500.215 273.713,506.381 263.5,511.5C 258.167,511.5 252.833,511.5 247.5,511.5C 237.287,506.381 227.62,500.215 218.5,493C 212.985,490.762 207.651,491.095 202.5,494C 197.088,501.927 190.088,507.761 181.5,511.5C 176.167,511.5 170.833,511.5 165.5,511.5C 153.745,507.576 146.245,499.576 143,487.5C 142.333,387.167 142.333,286.833 143,186.5C 144.003,176.829 147.003,167.829 152,159.5C 168.425,137.653 185.091,115.986 202,94.5C 202.333,64.1667 202.667,33.8333 203,3.5C 204.032,1.97331 205.199,0.639972 206.5,-0.5 Z"/></g>
<g><path style="opacity:1" fill="#ef4633" d="M 217.5,14.5 C 222.833,14.5 228.167,14.5 233.5,14.5C 233.5,29.5 233.5,44.5 233.5,59.5C 228.167,59.5 222.833,59.5 217.5,59.5C 217.5,44.5 217.5,29.5 217.5,14.5 Z"/></g>
<g><path style="opacity:1" fill="#ef001e" d="M 247.5,14.5 C 252.833,14.5 258.167,14.5 263.5,14.5C 263.5,29.5 263.5,44.5 263.5,59.5C 258.167,59.5 252.833,59.5 247.5,59.5C 247.5,44.5 247.5,29.5 247.5,14.5 Z"/></g>
<g><path style="opacity:1" fill="#c7001b" d="M 277.5,14.5 C 282.833,14.5 288.167,14.5 293.5,14.5C 293.5,29.5 293.5,44.5 293.5,59.5C 288.167,59.5 282.833,59.5 277.5,59.5C 277.5,44.5 277.5,29.5 277.5,14.5 Z"/></g>
<g><path style="opacity:1" fill="#5ad1fb" d="M 217.5,74.5 C 242.833,74.5 268.167,74.5 293.5,74.5C 293.5,79.5 293.5,84.5 293.5,89.5C 268.167,89.5 242.833,89.5 217.5,89.5C 217.5,84.5 217.5,79.5 217.5,74.5 Z"/></g>
<g><path style="opacity:1" fill="#8a0010" d="M 309.5,121.5 C 315.32,137.146 321.153,152.812 327,168.5C 328.378,174.432 329.211,180.432 329.5,186.5C 272.833,186.5 216.167,186.5 159.5,186.5C 159.5,185.5 159.5,184.5 159.5,183.5C 160.945,176.273 163.778,169.606 168,163.5C 183.529,144.271 198.696,124.771 213.5,105C 241.5,104.333 269.5,104.333 297.5,105C 301.718,110.378 305.718,115.878 309.5,121.5 Z"/></g>
<g><path style="opacity:1" fill="#62020b" d="M 309.5,121.5 C 321.47,136.313 333.303,151.313 345,166.5C 348.916,172.66 351.416,179.327 352.5,186.5C 344.833,186.5 337.167,186.5 329.5,186.5C 329.211,180.432 328.378,174.432 327,168.5C 321.153,152.812 315.32,137.146 309.5,121.5 Z"/></g>
<g><path style="opacity:1" fill="#582112" d="M 159.5,183.5 C 159.5,184.5 159.5,185.5 159.5,186.5C 216.167,186.5 272.833,186.5 329.5,186.5C 337.167,186.5 344.833,186.5 352.5,186.5C 288.002,187.499 223.335,187.832 158.5,187.5C 158.232,185.901 158.566,184.568 159.5,183.5 Z"/></g>
<g><path style="opacity:1" fill="#81261c" d="M 158.5,202.5 C 158.5,227.833 158.5,253.167 158.5,278.5C 166.684,278.174 174.684,278.508 182.5,279.5C 174.167,279.5 165.833,279.5 157.5,279.5C 157.169,253.661 157.502,227.995 158.5,202.5 Z"/></g>
<g><path style="opacity:1" fill="#fe4a36" d="M 158.5,202.5 C 215.833,202.5 273.167,202.5 330.5,202.5C 330.5,227.833 330.5,253.167 330.5,278.5C 289.663,278.168 248.997,278.501 208.5,279.5C 204.907,280.43 203.241,282.763 203.5,286.5C 198.167,286.5 192.833,286.5 187.5,286.5C 187.759,282.763 186.093,280.43 182.5,279.5C 174.684,278.508 166.684,278.174 158.5,278.5C 158.5,253.167 158.5,227.833 158.5,202.5 Z"/></g>
<g><path style="opacity:1" fill="#fe0020" d="M 330.5,202.5 C 337.833,202.5 345.167,202.5 352.5,202.5C 352.5,227.833 352.5,253.167 352.5,278.5C 345.167,278.5 337.833,278.5 330.5,278.5C 330.5,253.167 330.5,227.833 330.5,202.5 Z"/></g>
<g><path style="opacity:1" fill="#7b1e17" d="M 158.5,202.5 C 223.331,201.501 288.331,201.168 353.5,201.5C 353.5,227.5 353.5,253.5 353.5,279.5C 305.167,279.5 256.833,279.5 208.5,279.5C 248.997,278.501 289.663,278.168 330.5,278.5C 337.833,278.5 345.167,278.5 352.5,278.5C 352.5,253.167 352.5,227.833 352.5,202.5C 345.167,202.5 337.833,202.5 330.5,202.5C 273.167,202.5 215.833,202.5 158.5,202.5 Z"/></g>
<g><path style="opacity:1" fill="#8b0110" d="M 187.5,286.5 C 192.833,286.5 198.167,286.5 203.5,286.5C 202.68,290.222 204.013,292.555 207.5,293.5C 248.663,294.499 289.997,294.832 331.5,294.5C 331.5,299.167 331.5,303.833 331.5,308.5C 273.833,308.5 216.167,308.5 158.5,308.5C 158.5,303.833 158.5,299.167 158.5,294.5C 167.017,294.826 175.35,294.493 183.5,293.5C 186.518,292.145 187.851,289.812 187.5,286.5 Z"/></g>
<g><path style="opacity:1" fill="#81785a" d="M 183.5,293.5 C 175.35,294.493 167.017,294.826 158.5,294.5C 158.5,299.167 158.5,303.833 158.5,308.5C 216.167,308.5 273.833,308.5 331.5,308.5C 338.5,308.5 345.5,308.5 352.5,308.5C 352.5,303.833 352.5,299.167 352.5,294.5C 345.5,294.5 338.5,294.5 331.5,294.5C 289.997,294.832 248.663,294.499 207.5,293.5C 256.167,293.5 304.833,293.5 353.5,293.5C 353.5,298.833 353.5,304.167 353.5,309.5C 288.167,309.5 222.833,309.5 157.5,309.5C 157.5,304.167 157.5,298.833 157.5,293.5C 166.167,293.5 174.833,293.5 183.5,293.5 Z"/></g>
<g><path style="opacity:1" fill="#62000a" d="M 331.5,294.5 C 338.5,294.5 345.5,294.5 352.5,294.5C 352.5,299.167 352.5,303.833 352.5,308.5C 345.5,308.5 338.5,308.5 331.5,308.5C 331.5,303.833 331.5,299.167 331.5,294.5 Z"/></g>
<g><path style="opacity:1" fill="#8a0010" d="M 158.5,324.5 C 215.833,324.5 273.167,324.5 330.5,324.5C 330.667,376.501 330.5,428.501 330,480.5C 329.696,484.548 329.196,488.548 328.5,492.5C 324.696,487.864 320.362,483.697 315.5,480C 305.69,474.412 295.69,474.079 285.5,479C 277.659,484.087 269.992,489.42 262.5,495C 258.572,496.325 254.572,496.658 250.5,496C 242.893,491.391 235.559,486.391 228.5,481C 217.645,474.176 206.645,473.843 195.5,480C 190.167,484 185.5,488.667 181.5,494C 171.968,498.867 164.468,496.7 159,487.5C 158.5,433.168 158.333,378.834 158.5,324.5 Z"/></g>
<g><path style="opacity:1" fill="#60030b" d="M 158.5,324.5 C 222.999,323.335 287.665,323.168 352.5,324C 353.664,376.763 353.831,429.596 353,482.5C 350.903,493.254 344.403,497.754 333.5,496C 331.416,495.303 329.749,494.136 328.5,492.5C 329.196,488.548 329.696,484.548 330,480.5C 330.5,428.501 330.667,376.501 330.5,324.5C 273.167,324.5 215.833,324.5 158.5,324.5 Z"/></g>
</svg>
