<?xml version="1.0" encoding="UTF-8"?>
<!DOCTYPE svg PUBLIC "-//W3C//DTD SVG 1.1//EN" "http://www.w3.org/Graphics/SVG/1.1/DTD/svg11.dtd">
<svg xmlns="http://www.w3.org/2000/svg" version="1.1" width="512px" height="512px" style="shape-rendering:geometricPrecision; text-rendering:geometricPrecision; image-rendering:optimizeQuality; fill-rule:evenodd; clip-rule:evenodd" xmlns:xlink="http://www.w3.org/1999/xlink">
<g><path style="opacity:0.978" fill="#030100" d="M 206.5,-0.5 C 239.167,-0.5 271.833,-0.5 304.5,-0.5C 305.458,0.961599 306.624,2.29493 308,3.5C 308.333,33.8333 308.667,64.1667 309,94.5C 326.05,115.882 342.716,137.548 359,159.5C 363.997,167.829 366.997,176.829 368,186.5C 368.667,286.833 368.667,387.167 368,487.5C 364.755,499.576 357.255,507.576 345.5,511.5C 340.167,511.5 334.833,511.5 329.5,511.5C 320.912,507.761 313.912,501.927 308.5,494C 303.349,491.095 298.015,490.762 292.5,493C 283.38,500.215 273.713,506.381 263.5,511.5C 258.167,511.5 252.833,511.5 247.5,511.5C 237.287,506.381 227.62,500.215 218.5,493C 212.985,490.762 207.651,491.095 202.5,494C 197.088,501.927 190.088,507.761 181.5,511.5C 176.167,511.5 170.833,511.5 165.5,511.5C 153.745,507.576 146.245,499.576 143,487.5C 142.333,387.167 142.333,286.833 143,186.5C 144.003,176.829 147.003,167.829 152,159.5C 168.425,137.653 185.091,115.986 202,94.5C 202.333,64.1667 202.667,33.8333 203,3.5C 204.032,1.97331 205.199,0.639972 206.5,-0.5 Z"/></g>
<g><path style="opacity:1" fill="#ef4633" d="M 217.5,14.5 C 222.833,14.5 228.167,14.5 233.5,14.5C 233.5,29.5 233.5,44.5 233.5,59.5C 228.167,59.5 222.833,59.5 217.5,59.5C 217.5,44.5 217.5,29.5 217.5,14.5 Z"/></g>
<g><path style="opacity:1" fill="#ef001e" d="M 247.5,14.5 C 252.833,14.5 258.167,14.5 263.5,14.5C 263.5,29.5 263.5,44.5 263.5,59.5C 258.167,59.5 252.833,59.5 247.5,59.5C 247.5,44.5 247.5,29.5 247.5,14.5 Z"/></g>
<g><path style="opacity:1" fill="#c7001b" d="M 277.5,14.5 C 282.833,14.5 288.167,14.5 293.5,14.5C 293.5,29.5 293.5,44.5 293.5,59.5C 288.167,59.5 282.833,59.5 277.5,59.5C 277.5,44.5 277.5,29.5 277.5,14.5 Z"/></g>
<g><path style="opacity:1" fill="#5ad1fb" d="M 217.5,74.5 C 242.833,74.5 268.167,74.5 293.5,74.5C 293.5,79.5 293.5,84.5 293.5,89.5C 268.167,89.5 242.833,89.5 217.5,89.5C 217.5,84.5 217.5,79.5 217.5,74.5 Z"/></g>
<g><path style="opacity:1" fill="#fe9e3f" d="M 309.5,121.5 C 309.893,123.284 310.559,124.95 311.5,126.5C 316.931,140.369 322.098,154.369 327,168.5C 328.378,174.432 329.211,180.432 329.5,186.5C 272.833,186.5 216.167,186.5 159.5,186.5C 159.5,185.5 159.5,184.5 159.5,183.5C 160.615,177.4 162.782,171.733 166,166.5C 181.816,145.688 197.983,125.188 214.5,105C 241.833,104.333 269.167,104.333 296.5,105C 301.192,110.219 305.526,115.719 309.5,121.5 Z"/></g>
<g><path style="opacity:1" fill="#752417" d="M 309.5,121.5 C 311.543,122.579 312.876,124.246 313.5,126.5C 312.833,126.5 312.167,126.5 311.5,126.5C 310.559,124.95 309.893,123.284 309.5,121.5 Z"/></g>
<g><path style="opacity:1" fill="#fe8c00" d="M 311.5,126.5 C 312.167,126.5 312.833,126.5 313.5,126.5C 323.118,139.291 332.952,151.958 343,164.5C 346.9,170.369 349.733,176.702 351.5,183.5C 351.5,184.5 351.5,185.5 351.5,186.5C 344.167,186.5 336.833,186.5 329.5,186.5C 329.211,180.432 328.378,174.432 327,168.5C 322.098,154.369 316.931,140.369 311.5,126.5 Z"/></g>
<g><path style="opacity:1" fill="#582112" d="M 159.5,183.5 C 159.5,184.5 159.5,185.5 159.5,186.5C 216.167,186.5 272.833,186.5 329.5,186.5C 336.833,186.5 344.167,186.5 351.5,186.5C 351.5,185.5 351.5,184.5 351.5,183.5C 352.434,184.568 352.768,185.901 352.5,187.5C 287.833,187.5 223.167,187.5 158.5,187.5C 158.232,185.901 158.566,184.568 159.5,183.5 Z"/></g>
<g><path style="opacity:1" fill="#81261c" d="M 158.5,202.5 C 158.5,227.833 158.5,253.167 158.5,278.5C 166.684,278.174 174.684,278.508 182.5,279.5C 174.167,279.5 165.833,279.5 157.5,279.5C 157.169,253.661 157.502,227.995 158.5,202.5 Z"/></g>
<g><path style="opacity:1" fill="#fe4a36" d="M 158.5,202.5 C 215.833,202.5 273.167,202.5 330.5,202.5C 330.5,227.833 330.5,253.167 330.5,278.5C 289.663,278.168 248.997,278.501 208.5,279.5C 204.907,280.43 203.241,282.763 203.5,286.5C 198.167,286.5 192.833,286.5 187.5,286.5C 187.759,282.763 186.093,280.43 182.5,279.5C 174.684,278.508 166.684,278.174 158.5,278.5C 158.5,253.167 158.5,227.833 158.5,202.5 Z"/></g>
<g><path style="opacity:1" fill="#fe0020" d="M 330.5,202.5 C 337.833,202.5 345.167,202.5 352.5,202.5C 352.5,227.833 352.5,253.167 352.5,278.5C 345.167,278.5 337.833,278.5 330.5,278.5C 330.5,253.167 330.5,227.833 330.5,202.5 Z"/></g>
<g><path style="opacity:1" fill="#7b1e17" d="M 158.5,202.5 C 223.331,201.501 288.331,201.168 353.5,201.5C 353.5,227.5 353.5,253.5 353.5,279.5C 305.167,279.5 256.833,279.5 208.5,279.5C 248.997,278.501 289.663,278.168 330.5,278.5C 337.833,278.5 345.167,278.5 352.5,278.5C 352.5,253.167 352.5,227.833 352.5,202.5C 345.167,202.5 337.833,202.5 330.5,202.5C 273.167,202.5 215.833,202.5 158.5,202.5 Z"/></g>
<g><path style="opacity:1" fill="#feefbb" d="M 187.5,286.5 C 192.833,286.5 198.167,286.5 203.5,286.5C 203.241,290.237 204.907,292.57 208.5,293.5C 248.997,294.499 289.663,294.832 330.5,294.5C 330.5,299.167 330.5,303.833 330.5,308.5C 273.167,308.5 215.833,308.5 158.5,308.5C 158.5,303.833 158.5,299.167 158.5,294.5C 166.684,294.826 174.684,294.492 182.5,293.5C 186.093,292.57 187.759,290.237 187.5,286.5 Z"/></g>
<g><path style="opacity:1" fill="#80785a" d="M 182.5,293.5 C 174.684,294.492 166.684,294.826 158.5,294.5C 158.5,299.167 158.5,303.833 158.5,308.5C 215.833,308.5 273.167,308.5 330.5,308.5C 337.833,308.5 345.167,308.5 352.5,308.5C 352.5,303.833 352.5,299.167 352.5,294.5C 345.167,294.5 337.833,294.5 330.5,294.5C 289.663,294.832 248.997,294.499 208.5,293.5C 256.833,293.5 305.167,293.5 353.5,293.5C 353.5,298.833 353.5,304.167 353.5,309.5C 288.167,309.5 222.833,309.5 157.5,309.5C 157.5,304.167 157.5,298.833 157.5,293.5C 165.833,293.5 174.167,293.5 182.5,293.5 Z"/></g>
<g><path style="opacity:1" fill="#ffe17a" d="M 330.5,294.5 C 337.833,294.5 345.167,294.5 352.5,294.5C 352.5,299.167 352.5,303.833 352.5,308.5C 345.167,308.5 337.833,308.5 330.5,308.5C 330.5,303.833 330.5,299.167 330.5,294.5 Z"/></g>
<g><path style="opacity:1" fill="#fe9e3f" d="M 330.5,324.5 C 330.667,376.501 330.5,428.501 330,480.5C 329.76,484.252 329.26,487.919 328.5,491.5C 322.685,484.186 315.352,479.02 306.5,476C 299.645,474.965 292.978,475.632 286.5,478C 278.893,482.609 271.559,487.609 264.5,493C 259.008,497.064 253.341,497.397 247.5,494C 240.045,488.433 232.379,483.099 224.5,478C 214.186,474.213 204.186,474.88 194.5,480C 189.175,484.956 183.841,489.956 178.5,495C 168.267,498.137 161.767,494.637 159,484.5C 158.5,431.168 158.333,377.834 158.5,324.5C 215.833,324.5 273.167,324.5 330.5,324.5 Z"/></g>
<g><path style="opacity:1" fill="#fe8c00" d="M 330.5,324.5 C 337.833,324.5 345.167,324.5 352.5,324.5C 352.667,377.834 352.5,431.168 352,484.5C 348.621,493.608 342.121,497.108 332.5,495C 330.676,494.34 329.343,493.173 328.5,491.5C 329.26,487.919 329.76,484.252 330,480.5C 330.5,428.501 330.667,376.501 330.5,324.5 Z"/></g>
</svg>
