<?xml version="1.0" encoding="UTF-8"?>
<!DOCTYPE svg PUBLIC "-//W3C//DTD SVG 1.1//EN" "http://www.w3.org/Graphics/SVG/1.1/DTD/svg11.dtd">
<svg xmlns="http://www.w3.org/2000/svg" version="1.1" width="512px" height="512px" style="shape-rendering:geometricPrecision; text-rendering:geometricPrecision; image-rendering:optimizeQuality; fill-rule:evenodd; clip-rule:evenodd" xmlns:xlink="http://www.w3.org/1999/xlink">
<g><path style="opacity:0.973" fill="#010203" d="M 68.5,17.5 C 109.873,17.0282 151.206,17.5282 192.5,19C 220.408,26.9834 234.742,45.4834 235.5,74.5C 235.276,94.0032 230.276,112.17 220.5,129C 240.472,159.055 240.472,189.055 220.5,219C 237.187,242.546 240.021,267.713 229,294.5C 226.542,299.253 223.708,303.753 220.5,308C 238.344,334.025 240.177,361.192 226,389.5C 224.167,392 222.333,394.5 220.5,397C 239.507,425.312 240.34,454.145 223,483.5C 220.537,486.965 217.704,490.131 214.5,493C 174.833,493.667 135.167,493.667 95.5,493C 65.0431,486.783 48.7097,468.116 46.5,437C 47.1808,417.293 52.5142,398.96 62.5,382C 41.6711,352.216 41.3378,322.216 61.5,292C 41.5008,262.328 41.5008,232.661 61.5,203C 41.5066,173.29 41.5066,143.623 61.5,114C 41.8092,84.5729 41.6426,55.0729 61,25.5C 63.0282,22.3078 65.5282,19.6411 68.5,17.5 Z"/></g>
<g><path style="opacity:0.972" fill="#030101" d="M 457.5,346.5 C 453.727,347.178 450.894,345.844 449,342.5C 446.598,330.862 441.431,320.695 433.5,312C 393.767,290.915 356.767,265.915 322.5,237C 315.167,229.667 307.833,222.333 300.5,215C 299.551,214.383 298.718,214.549 298,215.5C 286.756,236.099 286.756,256.766 298,277.5C 311.418,296.919 327.585,313.753 346.5,328C 375.347,349.997 405.681,369.83 437.5,387.5C 441.938,381.625 445.605,375.292 448.5,368.5C 450.851,366.771 453.518,366.104 456.5,366.5C 459.658,367.385 461.325,369.552 461.5,373C 458.943,381.615 454.943,389.448 449.5,396.5C 470.941,429.621 469.274,461.454 444.5,492C 424.562,493.149 404.562,493.649 384.5,493.5C 362.806,493.62 341.139,493.12 319.5,492C 294.666,485.5 279.832,469.667 275,444.5C 273.967,422.132 279.134,401.299 290.5,382C 269.671,352.216 269.338,322.216 289.5,292C 269.501,262.328 269.501,232.661 289.5,203C 269.507,173.29 269.507,143.623 289.5,114C 269.809,84.5729 269.643,55.0729 289,25.5C 290.833,22.3333 293.333,19.8333 296.5,18C 336.167,17.3333 375.833,17.3333 415.5,18C 445.805,24.082 462.138,42.582 464.5,73.5C 463.904,93.3879 458.57,111.888 448.5,129C 469.328,158.779 469.661,188.779 449.5,219C 469.441,248.677 469.441,278.344 449.5,308C 457.051,318.323 461.218,329.823 462,342.5C 460.629,344.041 459.129,345.375 457.5,346.5 Z"/></g>
<g><path style="opacity:1" fill="#3c5b63" d="M 182.5,32.5 C 154.995,32.1688 127.662,32.5021 100.5,33.5C 99.7109,33.2172 99.0442,32.7172 98.5,32C 126.67,31.1697 154.67,31.3363 182.5,32.5 Z"/></g>
<g><path style="opacity:1" fill="#fc626d" d="M 327.5,32.5 C 356.33,31.3362 385.33,31.1695 414.5,32C 432.477,35.9778 443.977,46.8111 449,64.5C 451.078,83.112 447.412,100.445 438,116.5C 405.267,82.9111 368.433,54.9111 327.5,32.5 Z"/></g>
<g><path style="opacity:1" fill="#96e3f9" d="M 100.5,33.5 C 127.662,32.5021 154.995,32.1688 182.5,32.5C 207.721,35.7219 220.721,50.0553 221.5,75.5C 220.88,90.399 217.047,104.399 210,117.5C 195.418,101.582 179.584,87.0821 162.5,74C 142.659,59.2455 121.992,45.7455 100.5,33.5 Z"/></g>
<g><path style="opacity:1" fill="#61d9f8" d="M 167.5,193.5 C 161.183,188.672 154.516,184.338 147.5,180.5C 148.435,177.887 148.602,175.221 148,172.5C 141.722,166.373 134.555,161.707 126.5,158.5C 124.045,158.628 122.045,159.628 120.5,161.5C 115.488,156.49 110.155,151.823 104.5,147.5C 106.953,144.697 107.12,141.697 105,138.5C 91.1961,126.366 79.1961,112.7 69,97.5C 58.1301,75.9001 59.1301,54.9001 72,34.5C 113.482,54.9035 151.649,80.7368 186.5,112C 199.306,124.127 209.806,137.961 218,153.5C 226.073,173.944 223.24,192.611 209.5,209.5C 198.67,203.586 188.003,197.419 177.5,191C 173.579,189.861 170.246,190.695 167.5,193.5 Z"/></g>
<g><path style="opacity:1" fill="#fb4553" d="M 300.5,33.5 C 340.952,54.4544 378.285,79.9544 412.5,110C 427.113,123.267 438.613,138.767 447,156.5C 452.434,175.394 449.601,192.894 438.5,209C 398.243,188.187 360.91,162.854 326.5,133C 312.283,120.37 301.116,105.537 293,88.5C 286.335,68.8336 288.835,50.5003 300.5,33.5 Z"/></g>
<g><path style="opacity:1" fill="#97e3f9" d="M 104.5,147.5 C 110.155,151.823 115.488,156.49 120.5,161.5C 119.489,163.402 119.322,165.402 120,167.5C 125.569,173.066 131.735,177.899 138.5,182C 141.741,182.793 144.741,182.293 147.5,180.5C 154.516,184.338 161.183,188.672 167.5,193.5C 166.618,197.909 167.952,201.409 171.5,204C 183.004,210.92 194.671,217.586 206.5,224C 224.389,246.942 226.222,271.108 212,296.5C 211.261,297.574 210.261,298.241 209,298.5C 162.862,274.369 121.195,244.036 84,207.5C 74.4358,197.044 67.4358,185.044 63,171.5C 59.0623,155.224 61.5623,140.057 70.5,126C 71.1667,125.333 71.8333,125.333 72.5,126C 79.8333,133.333 87.1667,140.667 94.5,148C 98.0248,150.128 101.358,149.961 104.5,147.5 Z"/></g>
<g><path style="opacity:1" fill="#fc626d" d="M 298.5,125.5 C 299.239,125.369 299.906,125.536 300.5,126C 326.827,153.483 356.16,177.15 388.5,197C 404.25,206.626 420.084,216.126 436,225.5C 453.081,249.122 453.914,273.289 438.5,298C 398.918,277.86 362.252,253.194 328.5,224C 315.058,211.903 303.891,198.069 295,182.5C 286.673,162.865 287.84,143.865 298.5,125.5 Z"/></g>
<g><path style="opacity:1" fill="#040707" d="M 147.5,180.5 C 144.741,182.293 141.741,182.793 138.5,182C 131.735,177.899 125.569,173.066 120,167.5C 119.322,165.402 119.489,163.402 120.5,161.5C 122.045,159.628 124.045,158.628 126.5,158.5C 134.555,161.707 141.722,166.373 148,172.5C 148.602,175.221 148.435,177.887 147.5,180.5 Z"/></g>
<g><path style="opacity:0.999" fill="#fb4553" d="M 457.5,346.5 C 457.546,353.191 457.212,359.857 456.5,366.5C 453.518,366.104 450.851,366.771 448.5,368.5C 445.605,375.292 441.938,381.625 437.5,387.5C 405.681,369.83 375.347,349.997 346.5,328C 327.585,313.753 311.418,296.919 298,277.5C 286.756,256.766 286.756,236.099 298,215.5C 298.718,214.549 299.551,214.383 300.5,215C 307.833,222.333 315.167,229.667 322.5,237C 356.767,265.915 393.767,290.915 433.5,312C 441.431,320.695 446.598,330.862 449,342.5C 450.894,345.844 453.727,347.178 457.5,346.5 Z"/></g>
<g><path style="opacity:1" fill="#61d9f8" d="M 70.5,214.5 C 97.2923,241.121 126.626,264.621 158.5,285C 174.917,294.959 191.417,304.793 208,314.5C 225.082,338.138 225.916,362.304 210.5,387C 171.594,367.534 135.594,343.534 102.5,315C 93.9691,306.803 85.8025,298.303 78,289.5C 59.076,266.026 56.576,241.026 70.5,214.5 Z"/></g>
<g><path style="opacity:1" fill="#fc626d" d="M 298.5,304.5 C 308.61,313.439 318.61,322.605 328.5,332C 361.264,358.558 396.264,381.892 433.5,402C 447.71,417.977 452.544,436.477 448,457.5C 445.762,464.475 442.595,470.975 438.5,477C 401.785,458.129 367.452,435.462 335.5,409C 321.883,397.72 310.05,384.887 300,370.5C 286.781,348.669 286.281,326.669 298.5,304.5 Z"/></g>
<g><path style="opacity:1" fill="#97e3f9" d="M 70.5,304.5 C 100.75,333.586 133.75,359.086 169.5,381C 181.918,388.293 194.418,395.46 207,402.5C 223.219,423.182 225.886,445.515 215,469.5C 213.623,471.754 212.123,473.92 210.5,476C 208.711,476.52 207.044,476.187 205.5,475C 169.639,455.126 135.972,432.126 104.5,406C 91.8498,394.691 80.6832,382.191 71,368.5C 58.6915,347.163 58.5248,325.83 70.5,304.5 Z"/></g>
<g><path style="opacity:1" fill="#61d9f8" d="M 71.5,394.5 C 105.206,427.359 142.539,455.526 183.5,479C 154.5,479.667 125.5,479.667 96.5,479C 78.961,475.128 67.461,464.628 62,447.5C 60.2089,428.911 63.3755,411.244 71.5,394.5 Z"/></g>
<g><path style="opacity:1" fill="#fb4553" d="M 409.5,477.5 C 381.338,478.498 353.005,478.831 324.5,478.5C 306.881,475.051 295.381,464.718 290,447.5C 288.162,432.731 289.829,418.398 295,404.5C 296.376,400.827 298.21,397.494 300.5,394.5C 333.157,427.178 369.491,454.845 409.5,477.5 Z"/></g>
<g><path style="opacity:1" fill="#962931" d="M 409.5,477.5 C 410.289,477.783 410.956,478.283 411.5,479C 382.33,479.83 353.33,479.664 324.5,478.5C 353.005,478.831 381.338,478.498 409.5,477.5 Z"/></g>
</svg>
