<?xml version="1.0" encoding="UTF-8"?>
<!DOCTYPE svg PUBLIC "-//W3C//DTD SVG 1.1//EN" "http://www.w3.org/Graphics/SVG/1.1/DTD/svg11.dtd">
<svg xmlns="http://www.w3.org/2000/svg" version="1.1" width="512px" height="512px" style="shape-rendering:geometricPrecision; text-rendering:geometricPrecision; image-rendering:optimizeQuality; fill-rule:evenodd; clip-rule:evenodd" xmlns:xlink="http://www.w3.org/1999/xlink">
<g><path style="opacity:0.962" fill="#010100" d="M 247.5,-0.5 C 252.833,-0.5 258.167,-0.5 263.5,-0.5C 271.31,1.84282 276.81,6.84282 280,14.5C 281.614,21.0885 282.781,27.7552 283.5,34.5C 296.581,40.3314 301.414,50.3314 298,64.5C 297.202,69.3944 295.702,74.0611 293.5,78.5C 306.395,87.7649 310.228,100.098 305,115.5C 298.101,132.72 289.101,148.72 278,163.5C 271.739,173.023 267.406,183.356 265,194.5C 264.333,201.833 264.333,209.167 265,216.5C 273.704,207.464 282.038,198.131 290,188.5C 292.883,183.401 295.217,178.067 297,172.5C 300.934,158.7 305.267,145.033 310,131.5C 314.798,119.037 323.298,110.204 335.5,105C 340.238,104.888 344.904,104.722 349.5,104.5C 353.589,96.2438 359.589,89.7438 367.5,85C 374.491,82.5195 380.991,83.3528 387,87.5C 398.072,75.3454 410.572,73.1787 424.5,81C 439.316,96.7291 438.149,111.562 421,125.5C 424.425,137.493 420.925,146.993 410.5,154C 405.953,156.44 401.287,158.607 396.5,160.5C 397.429,172.802 392.429,181.969 381.5,188C 376.156,191.115 370.489,193.448 364.5,195C 351.566,197.409 338.566,199.409 325.5,201C 313.536,202.432 302.536,206.432 292.5,213C 283.908,220.754 276.242,229.254 269.5,238.5C 306.719,240.697 337.886,255.364 363,282.5C 383.539,310.602 388.539,341.268 378,374.5C 370.234,390.943 359.4,405.11 345.5,417C 329.453,430.049 313.119,442.716 296.5,455C 284.103,464.39 274.269,475.89 267,489.5C 265.18,495.384 263.847,501.384 263,507.5C 262.31,509.35 261.144,510.684 259.5,511.5C 256.833,511.5 254.167,511.5 251.5,511.5C 249.856,510.684 248.69,509.35 248,507.5C 247.181,494.535 242.514,483.202 234,473.5C 227.802,466.968 221.302,460.801 214.5,455C 197.881,442.716 181.547,430.049 165.5,417C 148.894,403.071 137.06,385.904 130,365.5C 121.59,309.594 143.423,270.761 195.5,249C 210.402,243.608 225.735,240.108 241.5,238.5C 232.167,224.665 220.167,213.831 205.5,206C 198.992,203.706 192.326,202.04 185.5,201C 169.183,199.575 153.183,196.575 137.5,192C 128.832,188.655 121.999,183.155 117,175.5C 115.491,170.445 114.657,165.445 114.5,160.5C 106.285,157.813 99.1185,153.48 93,147.5C 88.7293,140.51 87.7293,133.176 90,125.5C 70.9833,109.957 70.8166,94.4568 89.5,79C 102.754,73.7348 114.254,76.5681 124,87.5C 130.009,83.3528 136.509,82.5195 143.5,85C 151.411,89.7438 157.411,96.2438 161.5,104.5C 175.997,102.664 187.164,107.997 195,120.5C 197.254,124.007 199.254,127.673 201,131.5C 205.733,145.033 210.066,158.7 214,172.5C 216.612,180.391 220.279,187.724 225,194.5C 232.365,201.53 239.365,208.864 246,216.5C 247.324,205.257 246.324,194.257 243,183.5C 240.194,176.554 236.861,169.888 233,163.5C 221.899,148.72 212.899,132.72 206,115.5C 200.772,100.098 204.605,87.7649 217.5,78.5C 212.516,68.2382 211.35,57.5715 214,46.5C 216.761,40.5736 221.261,36.5736 227.5,34.5C 227.798,24.8206 230.298,15.8206 235,7.5C 238.671,3.92272 242.838,1.25605 247.5,-0.5 Z"/></g>
<g><path style="opacity:1" fill="#8ade6c" d="M 255.5,15.5 C 255.174,50.2397 255.507,84.9063 256.5,119.5C 252.507,119.245 249.674,120.911 248,124.5C 247.667,134.5 247.333,144.5 247,154.5C 237.006,141.163 228.672,126.829 222,111.5C 217.404,99.1798 221.57,92.3465 234.5,91C 237.265,88.0052 238.098,84.5052 237,80.5C 231.688,72.2367 229.022,63.2367 229,53.5C 230.214,51.9512 231.714,50.7845 233.5,50C 237.188,49.8096 240.688,48.9763 244,47.5C 245.545,45.7912 246.378,43.7912 246.5,41.5C 245.452,34.8564 245.286,28.1897 246,21.5C 247.811,17.345 250.977,15.345 255.5,15.5 Z"/></g>
<g><path style="opacity:1" fill="#99f27b" d="M 255.5,15.5 C 260.023,15.345 263.189,17.345 265,21.5C 265.686,28.0205 265.52,34.5205 264.5,41C 265.717,48.132 270.05,51.132 277.5,50C 279.286,50.7845 280.786,51.9512 282,53.5C 281.978,63.2367 279.312,72.2367 274,80.5C 272.902,84.5052 273.735,88.0052 276.5,91C 289.43,92.3465 293.596,99.1798 289,111.5C 282.328,126.829 273.994,141.163 264,154.5C 263.667,144.5 263.333,134.5 263,124.5C 261.841,121.507 259.675,119.84 256.5,119.5C 255.507,84.9063 255.174,50.2397 255.5,15.5 Z"/></g>
<g><path style="opacity:1" fill="#98f17a" d="M 165.5,155.5 C 141.785,135.971 118.452,115.971 95.5,95.5C 97.5586,92.8515 100.225,92.0182 103.5,93C 105.996,94.0804 108.33,95.4138 110.5,97C 113.517,100.086 116.517,103.086 119.5,106C 124.528,107.548 128.528,106.215 131.5,102C 134.167,100 136.833,100 139.5,102C 141.667,104.833 143.833,107.667 146,110.5C 147.93,116.196 150.764,121.363 154.5,126C 159.428,127.394 163.428,126.061 166.5,122C 170.207,121.004 173.541,121.67 176.5,124C 180.288,128.406 183.455,133.239 186,138.5C 189.474,148.395 192.641,158.395 195.5,168.5C 195.267,169.932 194.6,170.432 193.5,170C 187.116,164.615 180.45,159.615 173.5,155C 170.779,154.398 168.113,154.565 165.5,155.5 Z"/></g>
<g><path style="opacity:1" fill="#98f07a" d="M 415.5,95.5 C 392.548,115.971 369.215,135.971 345.5,155.5C 342.887,154.565 340.221,154.398 337.5,155C 330.55,159.615 323.884,164.615 317.5,170C 316.4,170.432 315.733,169.932 315.5,168.5C 318.359,158.395 321.526,148.395 325,138.5C 327.545,133.239 330.712,128.406 334.5,124C 337.459,121.67 340.793,121.004 344.5,122C 347.572,126.061 351.572,127.394 356.5,126C 360.559,120.164 364.059,113.998 367,107.5C 371.719,98.7578 377.219,98.2578 383.5,106C 386.167,106.667 388.833,106.667 391.5,106C 395.859,100.978 400.859,96.6448 406.5,93C 410.142,91.9302 413.142,92.7636 415.5,95.5 Z"/></g>
<g><path style="opacity:1" fill="#89dd6c" d="M 95.5,95.5 C 118.452,115.971 141.785,135.971 165.5,155.5C 162.342,158.794 161.842,162.461 164,166.5C 171.167,172.333 178.333,178.167 185.5,184C 171.611,183.22 157.944,180.887 144.5,177C 139.786,174.949 135.619,172.115 132,168.5C 130.98,164.29 131.98,160.623 135,157.5C 136.291,152.438 134.458,148.938 129.5,147C 120.457,146.059 112.624,142.559 106,136.5C 105.333,135.167 105.333,133.833 106,132.5C 109.082,129.021 110.415,125.021 110,120.5C 109.215,118.714 108.049,117.214 106.5,116C 99.3829,113.218 94.7162,108.218 92.5,101C 92.8996,98.7849 93.8996,96.9516 95.5,95.5 Z"/></g>
<g><path style="opacity:1" fill="#8ade6c" d="M 415.5,95.5 C 419.297,99.1699 419.464,103.17 416,107.5C 412.448,110.719 408.615,113.552 404.5,116C 401.208,118.412 400.041,121.579 401,125.5C 402.08,127.996 403.414,130.33 405,132.5C 405.667,133.833 405.667,135.167 405,136.5C 402.441,139.531 399.274,141.698 395.5,143C 390.155,144.669 384.822,146.335 379.5,148C 375.874,150.251 374.707,153.418 376,157.5C 380.734,162.632 380.567,167.465 375.5,172C 369.334,175.835 362.668,178.502 355.5,180C 345.908,181.992 336.241,182.992 326.5,183C 333.333,177.5 340.167,172 347,166.5C 349.158,162.461 348.658,158.794 345.5,155.5C 369.215,135.971 392.548,115.971 415.5,95.5 Z"/></g>
<g><path style="opacity:1" fill="#d64563" d="M 263.5,463.5 C 247.161,443.217 231.995,421.884 218,399.5C 205.044,373.925 201.044,346.925 206,318.5C 208.699,299.443 216.032,282.443 228,267.5C 228.747,264.076 228.58,260.743 227.5,257.5C 260.935,251.81 292.935,256.31 323.5,271C 357.999,291.508 371.832,321.675 365,361.5C 362.388,369.391 358.721,376.724 354,383.5C 348.833,389.333 343.667,395.167 338.5,401C 319.682,416.241 300.682,431.241 281.5,446C 274.969,451.365 268.969,457.198 263.5,463.5 Z"/></g>
<g><path style="opacity:1" fill="#bd3b59" d="M 227.5,257.5 C 228.58,260.743 228.747,264.076 228,267.5C 216.032,282.443 208.699,299.443 206,318.5C 201.044,346.925 205.044,373.925 218,399.5C 231.995,421.884 247.161,443.217 263.5,463.5C 261.163,466.681 258.996,470.014 257,473.5C 256.282,474.451 255.449,474.617 254.5,474C 249.591,466.421 243.925,459.421 237.5,453C 216.016,435.426 194.349,418.093 172.5,401C 165.246,393.75 158.746,385.917 153,377.5C 136.927,341.34 143.094,309.507 171.5,282C 188.033,269.095 206.699,260.928 227.5,257.5 Z"/></g>
<g><path style="opacity:1" fill="#060102" d="M 269.5,274.5 C 278.524,274.738 287.191,276.571 295.5,280C 299.351,287.463 297.185,291.963 289,293.5C 282.116,292.159 275.283,290.659 268.5,289C 263.003,283.683 263.336,278.85 269.5,274.5 Z"/></g>
<g><path style="opacity:1" fill="#050101" d="M 314.5,290.5 C 317.32,290.248 319.986,290.748 322.5,292C 345.064,309.689 352.897,332.522 346,360.5C 343.952,366.103 340.786,370.936 336.5,375C 329.918,377.458 325.918,375.124 324.5,368C 326.841,362.816 329.341,357.649 332,352.5C 334.714,338.95 332.047,326.616 324,315.5C 318.938,310.775 314.272,305.775 310,300.5C 309.077,296.017 310.577,292.683 314.5,290.5 Z"/></g>
</svg>
