<?xml version="1.0" encoding="UTF-8"?>
<!DOCTYPE svg PUBLIC "-//W3C//DTD SVG 1.1//EN" "http://www.w3.org/Graphics/SVG/1.1/DTD/svg11.dtd">
<svg xmlns="http://www.w3.org/2000/svg" version="1.1" width="512px" height="512px" style="shape-rendering:geometricPrecision; text-rendering:geometricPrecision; image-rendering:optimizeQuality; fill-rule:evenodd; clip-rule:evenodd" xmlns:xlink="http://www.w3.org/1999/xlink">
<g><path style="opacity:0.987" fill="#010201" d="M 232.5,-0.5 C 242.5,-0.5 252.5,-0.5 262.5,-0.5C 287.481,3.40714 307.647,15.4071 323,35.5C 327.279,42.3977 331.279,49.3977 335,56.5C 347.025,60.262 358.525,65.262 369.5,71.5C 402.122,62.6502 426.122,73.1502 441.5,103C 483.221,112.574 501.721,138.741 497,181.5C 494.159,196.846 487.825,210.512 478,222.5C 480.424,236.515 478.924,250.181 473.5,263.5C 499.098,287.653 504.931,315.986 491,348.5C 479.574,367.883 462.907,380.216 441,385.5C 433.337,429.778 411.17,464.612 374.5,490C 354.62,501.796 333.287,508.962 310.5,511.5C 297.833,511.5 285.167,511.5 272.5,511.5C 258.141,509.529 243.808,506.695 229.5,503C 162.478,500.742 108.645,473.242 68,420.5C 65.5106,415.092 66.3439,410.425 70.5,406.5C 74.8566,403.772 79.19,403.939 83.5,407C 116.909,451.045 161.242,475.878 216.5,481.5C 204.296,439.244 181.629,403.744 148.5,375C 135.809,366.651 122.476,359.318 108.5,353C 78.4646,334.627 57.6312,308.794 46,275.5C 44.2997,300.864 47.133,325.697 54.5,350C 54.3687,352.253 53.8687,354.419 53,356.5C 51.1881,358.3 49.3548,359.967 47.5,361.5C 40.2199,362.613 35.7199,359.613 34,352.5C 21.1147,306.851 22.2813,261.518 37.5,216.5C 26.8053,207.967 18.9719,197.3 14,184.5C 8.67876,161.78 15.8454,144.28 35.5,132C 40.3045,129.787 45.3045,128.287 50.5,127.5C 58.6563,87.5084 82.3229,61.6751 121.5,50C 136.545,45.8259 151.879,43.8259 167.5,44C 175.647,25.8523 188.981,13.1856 207.5,6C 215.762,3.01919 224.095,0.852519 232.5,-0.5 Z"/></g>
<g><path style="opacity:1" fill="#72c85a" d="M 218.5,88.5 C 210.76,88.4505 203.094,89.1172 195.5,90.5C 194.817,86.9802 192.817,84.4802 189.5,83C 180.153,81.8459 175.819,86.0126 176.5,95.5C 173.888,96.3705 171.221,97.0372 168.5,97.5C 163.654,91.0783 157.654,89.9116 150.5,94C 126.269,104.741 104.936,119.575 86.5,138.5C 82.3329,134.913 77.6662,132.08 72.5,130C 71.9186,129.107 71.5852,128.107 71.5,127C 78.3391,99.1576 95.3391,80.4909 122.5,71C 129.011,68.7188 135.678,67.0521 142.5,66C 155.568,65.1665 168.568,64.1665 181.5,63C 182.333,62.1667 183.167,61.3333 184,60.5C 190.813,38.4804 205.646,25.3137 228.5,21C 246.269,18.1966 263.602,19.8633 280.5,26C 292.02,31.8517 301.353,40.185 308.5,51C 281.869,48.8724 259.535,57.5391 241.5,77C 235.833,77.3333 230.167,77.6667 224.5,78C 220.547,80.4074 218.547,83.9074 218.5,88.5 Z"/></g>
<g><path style="opacity:1" fill="#a4ed72" d="M 288.5,71.5 C 315.636,70.3682 340.636,77.2015 363.5,92C 366.167,92.6667 368.833,92.6667 371.5,92C 385.554,86.3367 398.887,87.67 411.5,96C 414.206,98.3706 416.539,101.037 418.5,104C 409.868,106.732 402.034,110.899 395,116.5C 391.342,122.07 391.842,127.236 396.5,132C 402.805,134.715 408.139,133.382 412.5,128C 434.226,119.132 453.06,123.298 469,140.5C 477.542,153.69 479.875,168.023 476,183.5C 471.45,196.699 464.45,208.366 455,218.5C 454.333,220.5 454.333,222.5 455,224.5C 457.78,228.179 458.947,232.346 458.5,237C 458.461,242.361 457.461,247.528 455.5,252.5C 455,252.833 454.5,253.167 454,253.5C 446.837,251.002 439.503,249.335 432,248.5C 411.765,159.099 357.265,103.099 268.5,80.5C 270.457,78.5152 272.79,77.0152 275.5,76C 279.846,74.164 284.179,72.664 288.5,71.5 Z"/></g>
<g><path style="opacity:1" fill="#050704" d="M 195.5,90.5 C 195.69,99.4775 191.357,103.311 182.5,102C 179.614,100.615 177.614,98.4488 176.5,95.5C 175.819,86.0126 180.153,81.8459 189.5,83C 192.817,84.4802 194.817,86.9802 195.5,90.5 Z"/></g>
<g><path style="opacity:1" fill="#dafdb5" d="M 218.5,88.5 C 219.52,92.3584 221.853,95.1917 225.5,97C 296.901,98.4386 351.401,129.272 389,189.5C 400.281,208.839 408.114,229.506 412.5,251.5C 385.785,260.052 369.285,278.052 363,305.5C 362.581,314.187 362.581,322.854 363,331.5C 349.536,340.967 338.869,352.967 331,367.5C 321.723,385.499 315.556,404.499 312.5,424.5C 288.181,424.24 266.181,431.074 246.5,445C 243,448.5 239.5,452 236,455.5C 230.016,423.696 228.016,391.696 230,359.5C 237.317,348.081 247.817,341.581 261.5,340C 266.167,339.667 270.833,339.333 275.5,339C 282.792,333.289 283.125,327.289 276.5,321C 260.157,318.525 244.99,321.692 231,330.5C 232.303,300.618 238.97,271.951 251,244.5C 252.833,241.333 255.333,238.833 258.5,237C 287.885,220.811 316.552,221.811 344.5,240C 354.006,241.819 358.506,237.985 358,228.5C 355.543,224.009 352.043,220.509 347.5,218C 323.305,205.142 297.972,202.142 271.5,209C 281.054,197.611 291.721,187.445 303.5,178.5C 306.91,167.067 302.577,162.234 290.5,164C 271.545,177.623 256.045,194.457 244,214.5C 237.235,226.789 231.235,239.456 226,252.5C 215.116,228.53 198.949,209.03 177.5,194C 173.5,192 169.5,190 165.5,188C 153.201,186.96 149.367,192.127 154,203.5C 187.513,221.875 208.346,249.875 216.5,287.5C 212.917,305.001 210.417,322.668 209,340.5C 208.328,365.865 208.661,391.199 210,416.5C 198.644,397.463 184.644,380.463 168,365.5C 169.188,354.07 170.021,342.57 170.5,331C 170.751,314.574 166.585,299.408 158,285.5C 155,281.167 151.333,277.5 147,274.5C 146.373,250.316 139.706,227.983 127,207.5C 123.352,202.685 119.185,198.352 114.5,194.5C 112.617,179.851 107.951,166.184 100.5,153.5C 119.008,134.177 140.674,119.344 165.5,109C 168.154,105.673 169.154,101.839 168.5,97.5C 171.221,97.0372 173.888,96.3705 176.5,95.5C 177.614,98.4488 179.614,100.615 182.5,102C 191.357,103.311 195.69,99.4775 195.5,90.5C 203.094,89.1172 210.76,88.4505 218.5,88.5 Z"/></g>
<g><path style="opacity:1" fill="#71c85a" d="M 50.5,147.5 C 57.5823,146.643 64.249,147.809 70.5,151C 91.0939,168.123 97.5939,189.623 90,215.5C 87.7431,229.582 88.0765,243.582 91,257.5C 95.2002,261.714 100.034,262.548 105.5,260C 106.787,258.59 107.954,257.09 109,255.5C 108.156,243.16 108.49,230.827 110,218.5C 122.21,238.001 127.877,259.334 127,282.5C 130.348,286.847 134.348,290.514 139,293.5C 147.402,305.263 151.235,318.43 150.5,333C 150.576,339.255 149.909,345.422 148.5,351.5C 139.606,345.886 130.273,341.053 120.5,337C 87.9673,317.465 68.134,288.965 61,251.5C 59.8155,236.865 59.1489,222.198 59,207.5C 53,202.167 47,196.833 41,191.5C 27.0231,172.87 30.1898,158.204 50.5,147.5 Z"/></g>
<g><path style="opacity:1" fill="#72c85a" d="M 424.5,268.5 C 451.059,268.181 468.559,280.514 477,305.5C 481.091,333.196 470.258,352.196 444.5,362.5C 443.345,359.554 443.179,356.554 444,353.5C 445.225,346.378 446.559,339.378 448,332.5C 443.85,325.279 438.35,323.946 431.5,328.5C 429.473,331.221 427.973,334.221 427,337.5C 424.339,353.453 422.006,369.453 420,385.5C 412.694,422.651 393.527,451.818 362.5,473C 346.736,482.383 329.736,488.049 311.5,490C 288.039,493.239 265.039,491.405 242.5,484.5C 250.541,465.622 264.541,453.456 284.5,448C 302.03,444.176 319.697,443.51 337.5,446C 342.662,447.834 347.328,450.501 351.5,454C 361.176,454.657 365.342,450.157 364,440.5C 360.407,435.916 355.907,432.416 350.5,430C 344.718,427.571 338.718,426.071 332.5,425.5C 336.301,398.741 346.968,375.241 364.5,355C 370.913,350.377 377.413,345.877 384,341.5C 386.031,336.039 385.697,330.705 383,325.5C 380.368,303.798 388.201,286.965 406.5,275C 412.294,271.905 418.294,269.739 424.5,268.5 Z"/></g>
<g><path style="opacity:0.999" fill="#a4ee73" d="M 70.5,406.5 C 69.0664,403.953 67.3998,401.619 65.5,399.5C 71.2227,394.22 71.8894,388.386 67.5,382C 63.7353,379.427 59.7353,378.927 55.5,380.5C 52.5575,374.282 49.8909,367.949 47.5,361.5C 49.3548,359.967 51.1881,358.3 53,356.5C 53.8687,354.419 54.3687,352.253 54.5,350C 47.133,325.697 44.2997,300.864 46,275.5C 57.6312,308.794 78.4646,334.627 108.5,353C 122.476,359.318 135.809,366.651 148.5,375C 181.629,403.744 204.296,439.244 216.5,481.5C 161.242,475.878 116.909,451.045 83.5,407C 79.19,403.939 74.8566,403.772 70.5,406.5 Z"/></g>
<g><path style="opacity:1" fill="#080a07" d="M 294.5,325.5 C 303.802,325.634 307.969,330.3 307,339.5C 304.081,345.025 299.581,346.858 293.5,345C 288.581,342.259 286.748,338.092 288,332.5C 289.425,329.394 291.592,327.06 294.5,325.5 Z"/></g>
<g><path style="opacity:0.939" fill="#020301" d="M 65.5,399.5 C 54.7109,401.213 49.8776,396.547 51,385.5C 51.9959,383.34 53.4959,381.673 55.5,380.5C 59.7353,378.927 63.7353,379.427 67.5,382C 71.8894,388.386 71.2227,394.22 65.5,399.5 Z"/></g>
</svg>
