<?xml version="1.0" encoding="UTF-8"?>
<!DOCTYPE svg PUBLIC "-//W3C//DTD SVG 1.1//EN" "http://www.w3.org/Graphics/SVG/1.1/DTD/svg11.dtd">
<svg xmlns="http://www.w3.org/2000/svg" version="1.1" width="512px" height="512px" style="shape-rendering:geometricPrecision; text-rendering:geometricPrecision; image-rendering:optimizeQuality; fill-rule:evenodd; clip-rule:evenodd" xmlns:xlink="http://www.w3.org/1999/xlink">
<g><path style="opacity:0.984" fill="#030200" d="M 344.5,-0.5 C 353.167,-0.5 361.833,-0.5 370.5,-0.5C 383.784,1.61215 393.617,8.61215 400,20.5C 435,88.5 470,156.5 505,224.5C 508.534,234.959 508.2,245.293 504,255.5C 491.833,277 475,293.833 453.5,306C 433.25,317.528 411.583,324.861 388.5,328C 373.788,330.324 360.121,327.657 347.5,320C 346,318.5 344.5,317 343,315.5C 328.245,288.325 313.745,260.992 299.5,233.5C 268.382,315.35 237.548,397.35 207,479.5C 197.947,492.455 185.447,499.955 169.5,502C 119.881,505.791 75.2139,492.791 35.5,463C 24.8719,454.709 16.0386,444.876 9,433.5C 2.96575,421.917 1.96575,409.917 6,397.5C 37.9447,312.609 69.6114,227.609 101,142.5C 105.167,133 112,126.167 121.5,122C 133.817,116.864 146.651,114.697 160,115.5C 192.465,116.1 222.798,124.433 251,140.5C 245.526,127.215 239.192,114.215 232,101.5C 228.199,88.4891 229.865,76.1557 237,64.5C 248.054,47.7249 262.221,34.2249 279.5,24C 299.689,11.5533 321.355,3.38662 344.5,-0.5 Z"/></g>
<g><path style="opacity:1" fill="#fd9701" d="M 361.5,16.5 C 368.2,24.9838 369.367,34.3172 365,44.5C 357.786,59.0545 347.62,71.2211 334.5,81C 324.857,87.8227 314.857,93.9894 304.5,99.5C 290.562,104.074 276.229,105.574 261.5,104C 249.601,101.441 245.101,94.274 248,82.5C 254.172,68.6788 263.339,57.1788 275.5,48C 293.349,34.0765 313.349,24.4098 335.5,19C 344.053,16.9965 352.719,16.1631 361.5,16.5 Z"/></g>
<g><path style="opacity:1" fill="#f07a00" d="M 361.5,16.5 C 386.244,19.3274 391.411,30.9941 377,51.5C 357.733,74.8845 333.567,90.8845 304.5,99.5C 314.857,93.9894 324.857,87.8227 334.5,81C 347.62,71.2211 357.786,59.0545 365,44.5C 369.367,34.3172 368.2,24.9838 361.5,16.5 Z"/></g>
<g><path style="opacity:1" fill="#f6bb07" d="M 395.5,51.5 C 426.892,111.282 458.059,171.282 489,231.5C 491.613,239.046 490.613,246.046 486,252.5C 453.5,189.5 421,126.5 388.5,63.5C 391.686,59.9843 394.02,55.9843 395.5,51.5 Z"/></g>
<g><path style="opacity:1" fill="#fadb00" d="M 468.5,255.5 C 465.647,261.687 461.647,267.021 456.5,271.5C 425.052,210.772 393.719,149.938 362.5,89C 366.833,85.3333 371.167,81.6667 375.5,78C 376.332,77.3123 376.998,77.479 377.5,78.5C 408.102,137.37 438.435,196.37 468.5,255.5 Z"/></g>
<g><path style="opacity:1" fill="#fbdb00" d="M 443.5,283.5 C 438.163,289.354 431.829,294.02 424.5,297.5C 392.18,234.86 359.846,172.193 327.5,109.5C 334.626,106.103 341.626,102.437 348.5,98.5C 380.448,160.064 412.115,221.73 443.5,283.5 Z"/></g>
<g><path style="opacity:1" fill="#fada00" d="M 309.5,115.5 C 310.675,115.281 311.675,115.614 312.5,116.5C 345.089,179.344 377.422,242.344 409.5,305.5C 403.786,308.724 397.786,310.057 391.5,309.5C 359.333,247.167 327.167,184.833 295,122.5C 294.316,121.216 294.483,120.049 295.5,119C 300.368,118.116 305.034,116.95 309.5,115.5 Z"/></g>
<g><path style="opacity:1" fill="#f7d800" d="M 262.5,121.5 C 267.214,121.173 271.88,121.507 276.5,122.5C 309.058,184.95 341.058,247.617 372.5,310.5C 364.675,310.172 358.508,306.838 354,300.5C 338,269.167 322,237.833 306,206.5C 303.742,190.649 296.742,177.315 285,166.5C 277.473,151.447 269.973,136.447 262.5,121.5 Z"/></g>
<g><path style="opacity:1" fill="#fde939" d="M 216.5,143.5 C 216.414,144.496 216.748,145.329 217.5,146C 237.875,155.611 254.375,169.778 267,188.5C 275.865,203.247 274.032,216.247 261.5,227.5C 226.633,230.786 193.966,223.619 163.5,206C 146.863,197.102 132.696,185.268 121,170.5C 111.574,152.851 116.408,141.017 135.5,135C 163.318,130.064 190.318,132.897 216.5,143.5 Z"/></g>
<g><path style="opacity:1" fill="#f8d433" d="M 216.5,143.5 C 243.129,152.55 265.296,167.883 283,189.5C 288.985,197.997 289.985,206.997 286,216.5C 279.236,223.299 271.07,226.965 261.5,227.5C 274.032,216.247 275.865,203.247 267,188.5C 254.375,169.778 237.875,155.611 217.5,146C 216.748,145.329 216.414,144.496 216.5,143.5 Z"/></g>
<g><path style="opacity:1" fill="#fada00" d="M 105.5,178.5 C 106.496,178.414 107.329,178.748 108,179.5C 110.95,184.118 114.284,188.452 118,192.5C 118.667,194.167 118.667,195.833 118,197.5C 88.6667,276.167 59.3333,354.833 30,433.5C 22.9972,425.825 19.9972,416.825 21,406.5C 49.6688,330.657 77.8355,254.657 105.5,178.5 Z"/></g>
<g><path style="opacity:1" fill="#fbdb00" d="M 132.5,206.5 C 139.652,210.911 146.652,215.578 153.5,220.5C 123.257,300.313 93.5902,380.313 64.5,460.5C 57.1763,457.08 50.3429,452.746 44,447.5C 43.3333,446.167 43.3333,444.833 44,443.5C 73.4101,364.433 102.91,285.433 132.5,206.5 Z"/></g>
<g><path style="opacity:1" fill="#fbdb00" d="M 183.5,233.5 C 153.724,314.175 123.391,394.509 92.5,474.5C 87.5923,473.046 82.9257,471.046 78.5,468.5C 108.382,388.017 138.548,307.684 169,227.5C 173.668,229.918 178.501,231.918 183.5,233.5 Z"/></g>
<g><path style="opacity:1" fill="#fbbf07" d="M 183.5,233.5 C 188.337,235.327 193.003,237.327 197.5,239.5C 167.43,319.381 137.763,399.381 108.5,479.5C 102.834,478.61 97.5005,476.943 92.5,474.5C 123.391,394.509 153.724,314.175 183.5,233.5 Z"/></g>
<g><path style="opacity:1" fill="#f9bd07" d="M 274.5,241.5 C 275.552,241.351 276.552,241.517 277.5,242C 248.612,317.995 220.112,394.162 192,470.5C 186.423,478.875 178.59,483.541 168.5,484.5C 197.164,405.343 226.331,326.343 256,247.5C 256.5,246.333 257.333,245.5 258.5,245C 264.111,244.514 269.444,243.347 274.5,241.5 Z"/></g>
<g><path style="opacity:1" fill="#fabe07" d="M 213.5,242.5 C 221.75,244.155 230.083,245.155 238.5,245.5C 209.306,325.247 179.806,404.914 150,484.5C 148.302,485.733 146.302,486.4 144,486.5C 137.497,485.791 130.997,485.124 124.5,484.5C 154.167,403.833 183.833,323.167 213.5,242.5 Z"/></g>
<g><path style="opacity:1" fill="#f3b907" d="M 468.5,255.5 C 471.449,259.394 473.282,263.727 474,268.5C 470.278,272.725 466.112,276.392 461.5,279.5C 459.336,277.178 457.669,274.511 456.5,271.5C 461.647,267.021 465.647,261.687 468.5,255.5 Z"/></g>
<g><path style="opacity:1" fill="#f2b907" d="M 443.5,283.5 C 445.675,285.488 446.341,287.821 445.5,290.5C 439.203,294.232 432.703,297.565 426,300.5C 425.487,299.473 424.987,298.473 424.5,297.5C 431.829,294.02 438.163,289.354 443.5,283.5 Z"/></g>
</svg>
