<?xml version="1.0" encoding="UTF-8"?>
<!DOCTYPE svg PUBLIC "-//W3C//DTD SVG 1.1//EN" "http://www.w3.org/Graphics/SVG/1.1/DTD/svg11.dtd">
<svg xmlns="http://www.w3.org/2000/svg" version="1.1" width="512px" height="512px" style="shape-rendering:geometricPrecision; text-rendering:geometricPrecision; image-rendering:optimizeQuality; fill-rule:evenodd; clip-rule:evenodd" xmlns:xlink="http://www.w3.org/1999/xlink">
<g><path style="opacity:0.967" fill="#010000" d="M 223.5,-0.5 C 235.833,-0.5 248.167,-0.5 260.5,-0.5C 315.238,4.06484 350.405,32.7315 366,85.5C 373.826,115.806 381.493,146.139 389,176.5C 391.909,183.324 395.576,189.658 400,195.5C 411.667,207.833 423.333,220.167 435,232.5C 455.491,259.963 466.491,290.963 468,325.5C 478.095,422.171 435.928,481.671 341.5,504C 326.144,507.282 310.811,509.782 295.5,511.5C 276.167,511.5 256.833,511.5 237.5,511.5C 209.63,509.908 182.296,504.741 155.5,496C 103.644,476.472 70.1438,439.972 55,386.5C 36.4637,314.335 37.1303,242.335 57,170.5C 73.3792,113.856 104.546,67.3562 150.5,31C 172.499,14.9981 196.833,4.49809 223.5,-0.5 Z"/></g>
<g><path style="opacity:1" fill="#ee304b" d="M 282.5,21.5 C 297.809,30.6425 309.975,42.9758 319,58.5C 323.917,68.2526 328.25,78.2526 332,88.5C 337.62,108.647 342.453,128.98 346.5,149.5C 335.497,152.674 327.83,159.508 323.5,170C 325.289,178.127 329.956,180.46 337.5,177C 340.124,172.537 343.79,169.371 348.5,167.5C 349.496,167.414 350.329,167.748 351,168.5C 354.141,179.782 359.141,190.115 366,199.5C 376.026,211.022 386.192,222.356 396.5,233.5C 388.736,237.681 380.403,239.514 371.5,239C 364.911,244.205 364.911,249.538 371.5,255C 384.859,256.409 397.193,253.576 408.5,246.5C 424.516,271.724 433.016,299.391 434,329.5C 437.745,360.281 433.745,389.947 422,418.5C 413.838,434.34 403.005,448.173 389.5,460C 378.776,467.688 367.776,474.855 356.5,481.5C 308.59,495.079 259.923,498.245 210.5,491C 121.726,478.703 72.5594,427.87 63,338.5C 53.1421,272.59 60.1421,208.59 84,146.5C 103.239,98.9419 134.405,61.4419 177.5,34C 210.723,15.3803 245.723,11.2137 282.5,21.5 Z"/></g>
<g><path style="opacity:1" fill="#b8183a" d="M 282.5,21.5 C 306.248,27.7476 324.414,41.4143 337,62.5C 341.824,71.1464 345.824,80.1464 349,89.5C 354.619,108.307 359.452,127.307 363.5,146.5C 357.692,147.043 352.026,148.043 346.5,149.5C 342.453,128.98 337.62,108.647 332,88.5C 328.25,78.2526 323.917,68.2526 319,58.5C 309.975,42.9758 297.809,30.6425 282.5,21.5 Z"/></g>
<g><path style="opacity:1" fill="#040202" d="M 162.5,76.5 C 181.28,74.6298 193.447,82.6298 199,100.5C 201.515,120.293 195.348,136.793 180.5,150C 168.147,159.023 155.147,160.356 141.5,154C 130.213,144.059 125.713,131.559 128,116.5C 132.312,96.8232 143.812,83.4899 162.5,76.5 Z"/></g>
<g><path style="opacity:1" fill="#f1f1f1" d="M 165.5,93.5 C 174.073,91.9522 179.573,95.2855 182,103.5C 183.728,116.317 179.894,127.151 170.5,136C 165.522,140.105 159.855,141.771 153.5,141C 145.375,135.64 142.542,128.14 145,118.5C 147.698,106.647 154.532,98.3139 165.5,93.5 Z"/></g>
<g><path style="opacity:1" fill="#040101" d="M 113.5,161.5 C 128.886,160.273 139.052,166.939 144,181.5C 145.167,203 135,213.167 113.5,212C 95.8283,205.698 89.9949,193.531 96,175.5C 100.265,168.721 106.098,164.054 113.5,161.5 Z"/></g>
<g><path style="opacity:1" fill="#b9183a" d="M 396.5,233.5 C 386.192,222.356 376.026,211.022 366,199.5C 359.141,190.115 354.141,179.782 351,168.5C 350.329,167.748 349.496,167.414 348.5,167.5C 349.842,166.207 351.509,165.374 353.5,165C 358.087,164.201 362.587,164.368 367,165.5C 373.309,189.642 385.809,209.808 404.5,226C 401.964,228.705 399.297,231.205 396.5,233.5 Z"/></g>
<g><path style="opacity:1" fill="#ebebeb" d="M 116.5,178.5 C 124.523,178.683 128.023,182.683 127,190.5C 124.459,195.069 120.625,196.569 115.5,195C 110.931,192.459 109.431,188.625 111,183.5C 112.73,181.598 114.563,179.931 116.5,178.5 Z"/></g>
<g><path style="opacity:1" fill="#b8183a" d="M 356.5,481.5 C 367.776,474.855 378.776,467.688 389.5,460C 403.005,448.173 413.838,434.34 422,418.5C 433.745,389.947 437.745,360.281 434,329.5C 433.016,299.391 424.516,271.724 408.5,246.5C 410.72,243.713 413.386,241.38 416.5,239.5C 430.018,252.853 439.184,268.853 444,287.5C 451.915,320.516 453.582,353.849 449,387.5C 441.662,420.82 423.495,446.32 394.5,464C 382.441,471.197 369.774,477.03 356.5,481.5 Z"/></g>
<g><path style="opacity:1" fill="#040101" d="M 84.5,315.5 C 88.6034,314.769 92.1034,315.769 95,318.5C 98.6196,337.308 103.953,355.642 111,373.5C 128.075,410.576 155.909,435.742 194.5,449C 220.837,457.334 247.837,461.334 275.5,461C 280.738,464.274 281.904,468.774 279,474.5C 233.039,479.973 190.205,470.473 150.5,446C 118.048,422.97 96.5476,392.137 86,353.5C 83.2976,343.62 81.1309,333.62 79.5,323.5C 79.6724,319.807 81.3391,317.141 84.5,315.5 Z"/></g>
</svg>
