<?xml version="1.0" encoding="UTF-8"?>
<!DOCTYPE svg PUBLIC "-//W3C//DTD SVG 1.1//EN" "http://www.w3.org/Graphics/SVG/1.1/DTD/svg11.dtd">
<svg xmlns="http://www.w3.org/2000/svg" version="1.1" width="512px" height="512px" style="shape-rendering:geometricPrecision; text-rendering:geometricPrecision; image-rendering:optimizeQuality; fill-rule:evenodd; clip-rule:evenodd" xmlns:xlink="http://www.w3.org/1999/xlink">
<g><path style="opacity:0.969" fill="#000100" d="M 443.5,7.5 C 450.084,5.86833 454.25,8.20166 456,14.5C 458.333,28.5 460.667,42.5 463,56.5C 467.239,96.1163 455.739,130.283 428.5,159C 456.586,163.129 481.086,174.629 502,193.5C 503.483,196.702 503.817,200.036 503,203.5C 502.5,205.333 501.333,206.5 499.5,207C 448.052,207.764 397.386,214.431 347.5,227C 345.137,227.589 344.137,229.089 344.5,231.5C 368.023,230.977 391.023,234.143 413.5,241C 416.167,245.333 416.167,249.667 413.5,254C 393.167,261.667 372.833,269.333 352.5,277C 340.76,282.617 329.593,289.117 319,296.5C 318.312,297.332 318.479,297.998 319.5,298.5C 336.345,306.42 351.679,316.587 365.5,329C 368.167,333.333 368.167,337.667 365.5,342C 363.13,343.036 360.63,343.536 358,343.5C 335.336,339.286 312.502,336.619 289.5,335.5C 257.413,336.217 226.413,342.384 196.5,354C 194.205,357.297 191.538,360.297 188.5,363C 223.419,353.178 259.086,349.178 295.5,351C 301.109,351.108 303.776,353.941 303.5,359.5C 303.485,361.634 302.985,363.634 302,365.5C 274.871,400.326 240.704,425.826 199.5,442C 169.216,450.488 138.882,458.821 108.5,467C 77.9526,476.848 48.2859,488.848 19.5,503C 9.66667,505.167 5.83333,501.333 8,491.5C 16,482.833 24,474.167 32,465.5C 41.2019,436.894 50.2019,408.228 59,379.5C 69.1366,342.134 72.8033,304.134 70,265.5C 68.1465,246.818 66.1465,228.151 64,209.5C 63.3333,204.833 63.3333,200.167 64,195.5C 64.5,193.667 65.6667,192.5 67.5,192C 70.9643,191.183 74.2976,191.517 77.5,193C 89.3869,208.553 100.887,224.387 112,240.5C 116.842,227.149 122.508,214.149 129,201.5C 133.333,198.833 137.667,198.833 142,201.5C 164.302,237.967 165.636,274.967 146,312.5C 139.824,321.853 132.491,330.186 124,337.5C 122.181,341.798 120.848,346.131 120,350.5C 126.739,344.216 133.572,338.05 140.5,332C 147.032,325.802 153.199,319.302 159,312.5C 164.135,294.958 168.802,277.292 173,259.5C 176.922,235.292 174.589,211.625 166,188.5C 161.138,177.582 156.472,166.582 152,155.5C 149.833,145.667 153.667,141.833 163.5,144C 180.711,155.544 194.878,170.044 206,187.5C 211.757,166.652 220.757,147.319 233,129.5C 241.167,118.667 249.333,107.833 257.5,97C 266.599,93.0368 271.265,95.8702 271.5,105.5C 265.628,156.494 258.128,207.161 249,257.5C 252.499,255.752 255.832,253.752 259,251.5C 268.581,238.007 277.914,224.34 287,210.5C 299.95,186.415 304.95,160.748 302,133.5C 299.768,121.174 297.601,108.841 295.5,96.5C 294.725,90.3634 297.392,87.3634 303.5,87.5C 305.634,87.5153 307.634,88.0153 309.5,89C 328.039,106.231 340.873,127.065 348,151.5C 387.48,109.914 418.48,62.5805 441,9.5C 441.995,8.93406 442.828,8.26739 443.5,7.5 Z"/></g>
<g><path style="opacity:1" fill="#477740" d="M 443.5,42.5 C 454.23,89.7035 440.897,128.87 403.5,160C 385.145,161.952 368.145,167.785 352.5,177.5C 351.359,175.579 351.192,173.579 352,171.5C 389.88,133.741 420.38,90.7411 443.5,42.5 Z"/></g>
<g><path style="opacity:1" fill="#67a55f" d="M 317.5,124.5 C 331.785,146.311 337.619,170.311 335,196.5C 332.498,208.507 329.998,220.507 327.5,232.5C 313.571,234.57 299.904,237.403 286.5,241C 313.3,206.637 323.634,167.804 317.5,124.5 Z"/></g>
<g><path style="opacity:1" fill="#68a660" d="M 250.5,133.5 C 247.039,167.053 242.539,200.719 237,234.5C 223.534,293.582 193.368,342.082 146.5,380C 128.6,388.193 111.766,398.027 96,409.5C 98.0388,402.06 100.706,394.726 104,387.5C 124.19,369.4 144.19,351.066 164,332.5C 198.914,294.481 217.914,249.481 221,197.5C 226.278,173.951 236.111,152.618 250.5,133.5 Z"/></g>
<g><path style="opacity:1" fill="#5e9855" d="M 402.5,175.5 C 427.341,173.246 450.341,178.58 471.5,191.5C 430.337,193.373 389.837,199.373 350,209.5C 349.388,204.666 350.221,200.166 352.5,196C 367.79,185.522 384.457,178.689 402.5,175.5 Z"/></g>
<g><path style="opacity:1" fill="#45743e" d="M 182.5,184.5 C 190.898,193.766 197.565,204.266 202.5,216C 200.104,233.083 195.604,249.583 189,265.5C 194.059,237.907 191.892,210.907 182.5,184.5 Z"/></g>
<g><path style="opacity:1" fill="#46753f" d="M 135.5,226.5 C 142.417,239.934 144.917,254.268 143,269.5C 141.536,283.898 136.536,296.898 128,308.5C 127.836,293.859 125.67,279.525 121.5,265.5C 124.988,252.031 129.655,239.031 135.5,226.5 Z"/></g>
<g><path style="opacity:1" fill="#5d9755" d="M 83.5,229.5 C 109.757,260.934 117.59,296.6 107,336.5C 94.6102,368.279 81.9435,399.946 69,431.5C 64.7002,434.798 60.7002,438.465 57,442.5C 64.2892,418.693 71.2892,394.693 78,370.5C 88.3618,323.842 90.1952,276.842 83.5,229.5 Z"/></g>
<g><path style="opacity:1" fill="#46763f" d="M 333.5,247.5 C 347.921,246.991 362.254,247.825 376.5,250C 347.877,258.975 321.877,272.642 298.5,291C 285.962,289.148 273.295,287.981 260.5,287.5C 252.841,287.331 245.341,288.331 238,290.5C 237.167,290.167 236.333,289.833 235.5,289.5C 236.601,287.358 237.601,285.192 238.5,283C 267.26,263.139 298.927,251.305 333.5,247.5 Z"/></g>
<g><path style="opacity:1" fill="#5d9654" d="M 252.5,303.5 C 280.127,301.724 305.794,307.89 329.5,322C 299.427,318.142 269.427,318.809 239.5,324C 230.743,326.04 222.077,328.04 213.5,330C 217.625,323.584 221.625,317.084 225.5,310.5C 234.326,307.044 243.326,304.711 252.5,303.5 Z"/></g>
<g><path style="opacity:1" fill="#1f341c" d="M 263.5,367.5 C 268.348,366.186 273.348,366.186 278.5,367.5C 278.376,368.107 278.043,368.44 277.5,368.5C 273.03,367.514 268.363,367.181 263.5,367.5 Z"/></g>
<g><path style="opacity:1" fill="#477740" d="M 263.5,367.5 C 268.363,367.181 273.03,367.514 277.5,368.5C 249.182,399.935 214.515,421.435 173.5,433C 133.206,441.06 94.0393,452.893 56,468.5C 55.5,468.333 55,468.167 54.5,468C 110.308,406.099 179.974,372.599 263.5,367.5 Z"/></g>
</svg>
