<?xml version="1.0" encoding="UTF-8"?>
<!DOCTYPE svg PUBLIC "-//W3C//DTD SVG 1.1//EN" "http://www.w3.org/Graphics/SVG/1.1/DTD/svg11.dtd">
<svg xmlns="http://www.w3.org/2000/svg" version="1.1" width="512px" height="512px" style="shape-rendering:geometricPrecision; text-rendering:geometricPrecision; image-rendering:optimizeQuality; fill-rule:evenodd; clip-rule:evenodd" xmlns:xlink="http://www.w3.org/1999/xlink">
<g><path style="opacity:0.974" fill="#020101" d="M 120.5,-0.5 C 148.833,-0.5 177.167,-0.5 205.5,-0.5C 208.858,1.69966 211.358,4.69966 213,8.5C 213.667,30.1667 213.667,51.8333 213,73.5C 211.739,79.0927 208.406,82.7594 203,84.5C 202.056,102.22 202.389,119.886 204,137.5C 210.37,150.455 220.87,157.621 235.5,159C 253.891,167.39 264.724,181.557 268,201.5C 266.727,296.842 264.727,392.175 262,487.5C 259.603,499.39 252.769,507.39 241.5,511.5C 189.167,511.5 136.833,511.5 84.5,511.5C 72.3259,507.148 65.4926,498.481 64,485.5C 61.6666,392.164 59.6666,298.83 58,205.5C 59.2295,187.869 67.0628,174.036 81.5,164C 92.2009,159.325 102.868,154.659 113.5,150C 118.317,145.849 121.483,140.682 123,134.5C 124.575,117.873 124.908,101.206 124,84.5C 117.888,82.7224 114.222,78.7224 113,72.5C 112.333,51.5 112.333,30.5 113,9.5C 114.213,5.13051 116.713,1.79717 120.5,-0.5 Z"/></g>
<g><path style="opacity:1" fill="#484054" d="M 128.5,14.5 C 151.5,14.5 174.5,14.5 197.5,14.5C 197.5,23.1667 197.5,31.8333 197.5,40.5C 174.5,40.5 151.5,40.5 128.5,40.5C 128.5,31.8333 128.5,23.1667 128.5,14.5 Z"/></g>
<g><path style="opacity:1" fill="#deebe5" d="M 150.5,55.5 C 150.5,79.1667 150.5,102.833 150.5,126.5C 147.167,126.5 143.833,126.5 140.5,126.5C 140.829,111.324 140.496,96.324 139.5,81.5C 138.755,75.4155 135.421,71.4155 129.5,69.5C 128.507,64.8804 128.173,60.2137 128.5,55.5C 135.833,55.5 143.167,55.5 150.5,55.5 Z"/></g>
<g><path style="opacity:1" fill="#d6dfdb" d="M 150.5,55.5 C 166.167,55.5 181.833,55.5 197.5,55.5C 197.5,60.1667 197.5,64.8333 197.5,69.5C 191.927,70.5717 188.427,73.905 187,79.5C 186.5,95.1631 186.333,110.83 186.5,126.5C 174.5,126.5 162.5,126.5 150.5,126.5C 150.5,102.833 150.5,79.1667 150.5,55.5 Z"/></g>
<g><path style="opacity:1" fill="#a7b0ac" d="M 139.5,81.5 C 140.496,96.324 140.829,111.324 140.5,126.5C 143.833,126.5 147.167,126.5 150.5,126.5C 162.5,126.5 174.5,126.5 186.5,126.5C 171.009,127.496 155.342,127.83 139.5,127.5C 139.5,112.167 139.5,96.8333 139.5,81.5 Z"/></g>
<g><path style="opacity:1" fill="#fa9526" d="M 151.5,142.5 C 151.908,150.481 154.908,157.315 160.5,163C 168.781,166.486 177.114,169.819 185.5,173C 196.103,179.709 202.603,189.209 205,201.5C 205.884,215.371 205.384,229.037 203.5,242.5C 192.627,223.73 176.294,215.564 154.5,218C 138.752,222.079 127.585,231.579 121,246.5C 119.921,249.063 119.421,251.729 119.5,254.5C 113.407,254.139 107.407,254.639 101.5,256C 98.2716,257.563 96.1049,260.063 95,263.5C 94.3333,279.5 94.3333,295.5 95,311.5C 96.2725,314.222 98.4392,315.556 101.5,315.5C 101.5,322.5 101.5,329.5 101.5,336.5C 98.7374,336.744 96.5707,338.077 95,340.5C 94.3333,359.167 94.3333,377.833 95,396.5C 96.8077,400.974 99.9743,404.141 104.5,406C 136.498,406.5 168.498,406.667 200.5,406.5C 199.869,426.16 199.535,445.827 199.5,465.5C 159.234,467.233 119.067,466.566 79,463.5C 76.4829,376.177 74.8163,288.843 74,201.5C 79.6296,182.909 92.1296,172.076 111.5,169C 123.39,163.944 131.723,155.444 136.5,143.5C 141.456,142.506 146.456,142.173 151.5,142.5 Z"/></g>
<g><path style="opacity:1" fill="#e37e22" d="M 151.5,142.5 C 164.184,142.168 176.851,142.501 189.5,143.5C 194.698,156.198 203.698,165.031 216.5,170C 232.931,172.46 244.431,181.293 251,196.5C 252.12,207.445 252.62,218.445 252.5,229.5C 250.833,307.503 249.167,385.503 247.5,463.5C 231.52,464.597 215.52,465.264 199.5,465.5C 199.535,445.827 199.869,426.16 200.5,406.5C 207.508,406.666 214.508,406.5 221.5,406C 227,404.5 230.5,401 232,395.5C 232.667,351.833 232.667,308.167 232,264.5C 230.558,260.725 228.058,257.892 224.5,256C 218.881,254.978 213.214,254.145 207.5,253.5C 206.438,249.714 205.104,246.047 203.5,242.5C 205.384,229.037 205.884,215.371 205,201.5C 202.603,189.209 196.103,179.709 185.5,173C 177.114,169.819 168.781,166.486 160.5,163C 154.908,157.315 151.908,150.481 151.5,142.5 Z"/></g>
<g><path style="opacity:1" fill="#070301" d="M 203.5,242.5 C 205.104,246.047 206.438,249.714 207.5,253.5C 213.214,254.145 218.881,254.978 224.5,256C 228.058,257.892 230.558,260.725 232,264.5C 232.667,308.167 232.667,351.833 232,395.5C 230.5,401 227,404.5 221.5,406C 214.508,406.5 207.508,406.666 200.5,406.5C 168.498,406.667 136.498,406.5 104.5,406C 99.9743,404.141 96.8077,400.974 95,396.5C 94.3333,377.833 94.3333,359.167 95,340.5C 96.5707,338.077 98.7374,336.744 101.5,336.5C 104.754,337.043 107.254,338.71 109,341.5C 109.5,357.83 109.667,374.163 109.5,390.5C 145.329,391.498 181.329,391.832 217.5,391.5C 217.5,350.833 217.5,310.167 217.5,269.5C 213.958,269.187 210.625,269.521 207.5,270.5C 198.637,299.113 179.304,310.613 149.5,305C 132.429,299.099 122.429,287.266 119.5,269.5C 116.167,269.5 112.833,269.5 109.5,269.5C 109.667,282.837 109.5,296.171 109,309.5C 108.101,313.57 105.601,315.57 101.5,315.5C 98.4392,315.556 96.2725,314.222 95,311.5C 94.3333,295.5 94.3333,279.5 95,263.5C 96.1049,260.063 98.2716,257.563 101.5,256C 107.407,254.639 113.407,254.139 119.5,254.5C 119.421,251.729 119.921,249.063 121,246.5C 127.585,231.579 138.752,222.079 154.5,218C 176.294,215.564 192.627,223.73 203.5,242.5 Z"/></g>
<g><path style="opacity:1" fill="#f94f29" d="M 156.5,232.5 C 173.834,231.007 185.667,238.34 192,254.5C 193.833,280.667 181.667,292.833 155.5,291C 139.22,284.714 132.053,272.881 134,255.5C 137.684,243.984 145.184,236.317 156.5,232.5 Z"/></g>
<g><path style="opacity:1" fill="#fce2b6" d="M 207.5,270.5 C 210.5,270.5 213.5,270.5 216.5,270.5C 216.5,310.5 216.5,350.5 216.5,390.5C 180.833,390.5 145.167,390.5 109.5,390.5C 109.667,374.163 109.5,357.83 109,341.5C 107.254,338.71 104.754,337.043 101.5,336.5C 101.5,329.5 101.5,322.5 101.5,315.5C 105.601,315.57 108.101,313.57 109,309.5C 109.5,296.171 109.667,282.837 109.5,269.5C 112.833,269.5 116.167,269.5 119.5,269.5C 122.429,287.266 132.429,299.099 149.5,305C 179.304,310.613 198.637,299.113 207.5,270.5 Z"/></g>
<g><path style="opacity:1" fill="#83765e" d="M 207.5,270.5 C 210.625,269.521 213.958,269.187 217.5,269.5C 217.5,310.167 217.5,350.833 217.5,391.5C 181.329,391.832 145.329,391.498 109.5,390.5C 145.167,390.5 180.833,390.5 216.5,390.5C 216.5,350.5 216.5,310.5 216.5,270.5C 213.5,270.5 210.5,270.5 207.5,270.5 Z"/></g>
<g><path style="opacity:1" fill="#050403" d="M 128.5,328.5 C 151.502,328.333 174.502,328.5 197.5,329C 201.707,332.07 202.54,335.903 200,340.5C 198.829,341.893 197.329,342.727 195.5,343C 173.5,343.667 151.5,343.667 129.5,343C 123.413,338.445 123.08,333.612 128.5,328.5 Z"/></g>
<g><path style="opacity:0.976" fill="#010000" d="M 410.5,511.5 C 384.167,511.5 357.833,511.5 331.5,511.5C 326.544,510.192 321.877,508.025 317.5,505C 293.297,482.395 283.797,454.562 289,421.5C 291.847,393.083 296.847,365.083 304,337.5C 306.365,334.131 309.532,331.964 313.5,331C 351.833,330.333 390.167,330.333 428.5,331C 434.542,333.564 438.375,338.064 440,344.5C 446.944,375.996 451.444,407.83 453.5,440C 453.096,466.802 442.763,488.802 422.5,506C 418.525,508.146 414.525,509.98 410.5,511.5 Z"/></g>
<g><path style="opacity:1" fill="#deebe5" d="M 317.5,346.5 C 337.167,346.5 356.833,346.5 376.5,346.5C 378.275,356.815 379.941,367.148 381.5,377.5C 374.159,377.334 366.826,377.5 359.5,378C 356.211,379.41 354.544,381.91 354.5,385.5C 347.833,385.5 341.167,385.5 334.5,385.5C 333.959,382.251 332.292,379.751 329.5,378C 323.509,377.501 317.509,377.334 311.5,377.5C 312.584,366.872 314.584,356.539 317.5,346.5 Z"/></g>
<g><path style="opacity:1" fill="#d0d8d5" d="M 317.5,346.5 C 352.664,345.336 387.998,345.169 423.5,346C 426.656,356.274 428.989,366.774 430.5,377.5C 414.167,377.5 397.833,377.5 381.5,377.5C 379.941,367.148 378.275,356.815 376.5,346.5C 356.833,346.5 337.167,346.5 317.5,346.5 Z"/></g>
<g><path style="opacity:1" fill="#070605" d="M 129.5,358.5 C 151.503,358.333 173.503,358.5 195.5,359C 202.565,362.726 203.232,367.392 197.5,373C 174.5,373.667 151.5,373.667 128.5,373C 123.057,367.809 123.391,362.976 129.5,358.5 Z"/></g>
<g><path style="opacity:1" fill="#fb9626" d="M 334.5,385.5 C 341.167,385.5 347.833,385.5 354.5,385.5C 355.167,389.5 357.5,391.833 361.5,392.5C 369.316,393.492 377.316,393.826 385.5,393.5C 387.549,408.417 388.882,423.417 389.5,438.5C 389.167,449.495 387.167,460.162 383.5,470.5C 358.833,470.5 334.167,470.5 309.5,470.5C 305.515,460.072 303.515,449.238 303.5,438C 304.121,423.08 305.621,408.247 308,393.5C 315.087,392.685 322.253,392.185 329.5,392C 332.492,390.728 334.159,388.562 334.5,385.5 Z"/></g>
<g><path style="opacity:1" fill="#a75e19" d="M 361.5,392.5 C 385.5,392.5 409.5,392.5 433.5,392.5C 433.5,393.833 433.5,395.167 433.5,396.5C 432.596,395.791 432.263,394.791 432.5,393.5C 416.833,393.5 401.167,393.5 385.5,393.5C 377.316,393.826 369.316,393.492 361.5,392.5 Z"/></g>
<g><path style="opacity:1" fill="#e37e22" d="M 385.5,393.5 C 401.167,393.5 416.833,393.5 432.5,393.5C 432.263,394.791 432.596,395.791 433.5,396.5C 437.106,414.649 438.273,432.982 437,451.5C 435.668,457.662 433.835,463.662 431.5,469.5C 415.514,470.499 399.514,470.833 383.5,470.5C 387.167,460.162 389.167,449.495 389.5,438.5C 388.882,423.417 387.549,408.417 385.5,393.5 Z"/></g>
<g><path style="opacity:1" fill="#d6dfdb" d="M 170.5,481.5 C 179.833,481.5 189.167,481.5 198.5,481.5C 198.5,486.167 198.5,490.833 198.5,495.5C 162.167,495.5 125.833,495.5 89.5,495.5C 85.7324,494.863 82.899,492.863 81,489.5C 79.9571,486.243 79.4571,482.91 79.5,479.5C 109.81,481.083 140.143,481.75 170.5,481.5 Z"/></g>
<g><path style="opacity:1" fill="#bbc3bf" d="M 89.5,495.5 C 125.833,495.5 162.167,495.5 198.5,495.5C 198.5,490.833 198.5,486.167 198.5,481.5C 189.167,481.5 179.833,481.5 170.5,481.5C 195.661,480.402 220.995,479.735 246.5,479.5C 247.651,488.395 243.985,493.895 235.5,496C 186.665,496.832 137.998,496.665 89.5,495.5 Z"/></g>
<g><path style="opacity:1" fill="#8e9391" d="M 419.5,487.5 C 404.342,486.504 389.009,486.17 373.5,486.5C 356.325,486.17 339.325,486.503 322.5,487.5C 321.711,487.217 321.044,486.717 320.5,486C 353.838,485.167 387.172,485.333 420.5,486.5C 420.376,487.107 420.043,487.44 419.5,487.5 Z"/></g>
<g><path style="opacity:1" fill="#d6dfdb" d="M 373.5,486.5 C 371.757,489.75 369.423,492.584 366.5,495C 356.506,495.5 346.506,495.666 336.5,495.5C 330.619,494.951 325.952,492.284 322.5,487.5C 339.325,486.503 356.325,486.17 373.5,486.5 Z"/></g>
<g><path style="opacity:1" fill="#c3cbc7" d="M 373.5,486.5 C 389.009,486.17 404.342,486.504 419.5,487.5C 416.133,491.68 411.8,494.513 406.5,496C 382.996,496.83 359.663,496.663 336.5,495.5C 346.506,495.666 356.506,495.5 366.5,495C 369.423,492.584 371.757,489.75 373.5,486.5 Z"/></g>
</svg>
