<?xml version="1.0" encoding="UTF-8"?>
<!DOCTYPE svg PUBLIC "-//W3C//DTD SVG 1.1//EN" "http://www.w3.org/Graphics/SVG/1.1/DTD/svg11.dtd">
<svg xmlns="http://www.w3.org/2000/svg" version="1.1" width="512px" height="512px" style="shape-rendering:geometricPrecision; text-rendering:geometricPrecision; image-rendering:optimizeQuality; fill-rule:evenodd; clip-rule:evenodd" xmlns:xlink="http://www.w3.org/1999/xlink">
<g><path style="opacity:0.96" fill="#010101" d="M 143.5,-0.5 C 148.833,-0.5 154.167,-0.5 159.5,-0.5C 177.542,5.71143 189.375,18.0448 195,36.5C 196.296,43.3297 197.963,49.9964 200,56.5C 209.894,45.9374 221.394,43.7708 234.5,50C 244.211,57.8051 247.045,67.6384 243,79.5C 241.729,82.4326 240.062,85.0993 238,87.5C 231.301,93.8641 224.968,100.531 219,107.5C 213.829,115.776 212.162,124.776 214,134.5C 215.181,141.263 216.681,147.93 218.5,154.5C 221.976,151.565 224.476,147.898 226,143.5C 228.708,139.896 232.208,137.396 236.5,136C 241.167,131.333 245.833,126.667 250.5,122C 259.936,116.399 269.602,116.066 279.5,121C 292.395,133.709 292.729,146.709 280.5,160C 284.348,164.016 288.348,167.849 292.5,171.5C 296.275,160.125 297.775,148.459 297,136.5C 295.81,131.787 293.81,127.453 291,123.5C 285.032,116.531 278.699,109.864 272,103.5C 263.776,90.6846 264.942,78.8512 275.5,68C 289.081,60.5192 300.914,62.6859 311,74.5C 313.077,60.6051 317.744,47.6051 325,35.5C 338.438,17.241 355.605,12.4077 376.5,21C 389.355,30.8806 395.688,44.0473 395.5,60.5C 394.539,72.3804 391.539,83.7137 386.5,94.5C 387,94.8333 387.5,95.1667 388,95.5C 407.398,90.1114 418.898,97.278 422.5,117C 421.652,129.371 415.319,137.371 403.5,141C 395.529,143.268 387.529,145.435 379.5,147.5C 375.87,147.433 373.537,145.766 372.5,142.5C 371.814,138.713 372.814,135.546 375.5,133C 384.85,129.997 394.183,126.997 403.5,124C 407.779,118.967 407.446,114.3 402.5,110C 397.057,109.244 391.723,109.744 386.5,111.5C 374.417,109.011 369.584,101.678 372,89.5C 374.732,82.6366 377.066,75.6366 379,68.5C 381.113,57.6109 379.113,47.6109 373,38.5C 370.872,36.1923 368.372,34.5256 365.5,33.5C 362.144,31.6206 358.477,31.1206 354.5,32C 343.517,36.4397 336.017,44.273 332,55.5C 329.409,64.4617 327.076,73.4617 325,82.5C 317.933,91.3079 309.766,92.4746 300.5,86C 297.951,82.0848 294.451,79.9181 290,79.5C 283.218,80.039 280.551,83.7057 282,90.5C 289.333,98.5 296.667,106.5 304,114.5C 310.911,124.48 313.911,135.48 313,147.5C 311.549,156.871 309.883,166.204 308,175.5C 304.262,184.624 297.429,188.457 287.5,187C 284.567,185.729 281.901,184.062 279.5,182C 270.167,172 260.833,162 251.5,152C 246.506,148.334 242.006,148.834 238,153.5C 237.183,156.964 237.517,160.298 239,163.5C 254.967,181.135 271.301,198.469 288,215.5C 294.223,224.949 296.556,235.282 295,246.5C 293.669,251.809 292.335,257.142 291,262.5C 284.975,271.485 276.809,273.985 266.5,270C 262.353,267.02 258.686,263.52 255.5,259.5C 250.963,255.545 246.463,255.545 242,259.5C 239.798,263.742 240.131,267.742 243,271.5C 252.95,281.425 261.95,292.092 270,303.5C 275.054,312.337 278.721,321.67 281,331.5C 281.717,330.956 282.217,330.289 282.5,329.5C 289.341,322.728 297.007,316.895 305.5,312C 318.954,306.737 332.621,302.071 346.5,298C 351.436,293.656 351.769,288.99 347.5,284C 341.741,282.058 336.074,282.391 330.5,285C 311.828,286.322 304.661,277.822 309,259.5C 312.864,243.641 322.364,232.807 337.5,227C 359.211,221.156 380.878,215.156 402.5,209C 409.613,204.876 410.28,199.876 404.5,194C 402.722,193.296 400.888,192.796 399,192.5C 383.273,196.89 367.439,200.89 351.5,204.5C 341.052,201.888 336.219,195.221 337,184.5C 339.803,176.422 342.803,168.422 346,160.5C 348.651,156.536 352.151,155.536 356.5,157.5C 358.96,158.91 360.293,161.076 360.5,164C 357.96,172.238 355.293,180.404 352.5,188.5C 366.226,185.315 379.892,181.815 393.5,178C 408.016,175.337 417.849,180.837 423,194.5C 425.566,208.539 420.399,218.373 407.5,224C 385.878,230.156 364.211,236.156 342.5,242C 330.733,247.348 324.233,256.514 323,269.5C 323.561,270.022 324.228,270.355 325,270.5C 334.054,266.511 343.221,266.011 352.5,269C 364.418,276.411 368.251,286.911 364,300.5C 361.55,305.284 358.05,309.117 353.5,312C 343.239,315.531 332.906,318.865 322.5,322C 299.354,330.404 284.521,346.571 278,370.5C 274.088,384.647 270.255,398.814 266.5,413C 272.463,435.222 278.63,457.389 285,479.5C 287.482,484.418 286.982,488.918 283.5,493C 279.286,495.269 275.453,494.769 272,491.5C 267.025,475.602 262.358,459.602 258,443.5C 252.464,462.442 247.13,481.442 242,500.5C 241.203,504.75 239.37,508.417 236.5,511.5C 233.833,511.5 231.167,511.5 228.5,511.5C 225.049,508.59 223.882,504.923 225,500.5C 233.268,471.196 241.435,441.862 249.5,412.5C 243.511,391.544 237.678,370.544 232,349.5C 225.329,327.496 211.163,312.663 189.5,305C 178.332,301.793 167.332,298.126 156.5,294C 144.867,284.611 142.367,273.111 149,259.5C 159.767,248.558 172.1,246.558 186,253.5C 187.022,252.646 187.855,251.646 188.5,250.5C 186.486,244.626 183.986,238.959 181,233.5C 176.754,228.757 171.587,225.423 165.5,223.5C 163.014,221.422 162.014,218.755 162.5,215.5C 165.444,209.317 170.111,207.817 176.5,211C 192.698,219.374 201.698,232.708 203.5,251C 203.017,259.15 199.017,264.816 191.5,268C 182.436,267.813 173.436,267.146 164.5,266C 159.834,270.006 159.334,274.506 163,279.5C 176.385,284.558 189.885,289.391 203.5,294C 213.489,298.913 222.322,305.413 230,313.5C 230.464,312.906 230.631,312.239 230.5,311.5C 232.443,304.184 235.109,297.017 238.5,290C 234.292,284.787 230.459,279.287 227,273.5C 224.696,266.608 225.196,259.941 228.5,253.5C 224.47,251.637 221.637,248.637 220,244.5C 216.14,233.364 215.14,222.031 217,210.5C 218.059,207.382 219.392,204.382 221,201.5C 225.606,195.058 230.772,189.058 236.5,183.5C 232.474,179.275 228.808,174.775 225.5,170C 216.385,171.624 209.218,168.791 204,161.5C 200.933,149.162 198.766,136.662 197.5,124C 198.037,111.764 202.537,101.264 211,92.5C 217.74,86.4301 223.74,79.7634 229,72.5C 229.127,63.6238 224.961,60.4572 216.5,63C 212.783,66.3847 208.783,69.3847 204.5,72C 196.876,73.9363 190.709,71.7696 186,65.5C 183.798,56.1646 181.465,46.8312 179,37.5C 174.808,26.6409 167.308,19.1409 156.5,15C 153.304,14.1955 150.304,14.3622 147.5,15.5C 137.702,19.3886 132.535,26.7219 132,37.5C 131.461,49.3561 133.795,60.6894 139,71.5C 140.331,90.8178 131.664,97.4845 113,91.5C 106.28,92.875 103.613,96.875 105,103.5C 106.873,105.709 109.04,107.542 111.5,109C 124.028,111.464 136.028,115.464 147.5,121C 155.545,126.377 161.378,133.544 165,142.5C 167.47,149.578 170.137,156.578 173,163.5C 176.184,176.785 171.017,184.785 157.5,187.5C 142.074,183.688 126.741,179.688 111.5,175.5C 104.499,176.493 101.665,180.493 103,187.5C 104.543,189.378 106.376,190.878 108.5,192C 120.489,195.498 132.489,198.998 144.5,202.5C 147.077,204.92 148.077,207.92 147.5,211.5C 145.985,214.353 143.652,216.019 140.5,216.5C 125.834,213.417 111.5,209.251 97.5,204C 85.9442,193.137 84.4442,180.97 93,167.5C 100.312,160.955 108.812,158.788 118.5,161C 131.823,164.609 145.157,168.109 158.5,171.5C 155.454,160.19 150.954,149.523 145,139.5C 141.381,135.885 137.214,133.051 132.5,131C 122.5,128 112.5,125 102.5,122C 89.1817,113.573 85.6817,102.073 92,87.5C 100.354,76.6078 111.02,73.6078 124,78.5C 121.503,70.6635 119.17,62.6635 117,54.5C 113.245,35.6738 118.078,19.5072 131.5,6C 135.434,3.53607 139.434,1.36941 143.5,-0.5 Z M 276.5,227.5 C 266.189,221.806 256.189,222.306 246.5,229C 242.985,232.682 239.318,236.182 235.5,239.5C 231.925,231.918 230.759,223.918 232,215.5C 235.066,207.26 240.233,200.593 247.5,195.5C 257.899,205.563 267.566,216.23 276.5,227.5 Z M 249.5,303.5 C 255.122,308.707 259.289,315.041 262,322.5C 264.338,330.021 265.838,337.687 266.5,345.5C 264.775,358.067 261.942,370.4 258,382.5C 253.531,367.625 249.531,352.625 246,337.5C 244.646,325.855 245.813,314.521 249.5,303.5 Z"/></g>
<g><path style="opacity:1" fill="#7cbc7f" d="M 147.5,15.5 C 174.881,114.371 202.548,213.037 230.5,311.5C 230.631,312.239 230.464,312.906 230,313.5C 222.322,305.413 213.489,298.913 203.5,294C 189.885,289.391 176.385,284.558 163,279.5C 159.334,274.506 159.834,270.006 164.5,266C 173.436,267.146 182.436,267.813 191.5,268C 199.017,264.816 203.017,259.15 203.5,251C 201.698,232.708 192.698,219.374 176.5,211C 170.111,207.817 165.444,209.317 162.5,215.5C 157.646,213.703 152.646,212.369 147.5,211.5C 148.077,207.92 147.077,204.92 144.5,202.5C 132.489,198.998 120.489,195.498 108.5,192C 106.376,190.878 104.543,189.378 103,187.5C 101.665,180.493 104.499,176.493 111.5,175.5C 126.741,179.688 142.074,183.688 157.5,187.5C 171.017,184.785 176.184,176.785 173,163.5C 170.137,156.578 167.47,149.578 165,142.5C 161.378,133.544 155.545,126.377 147.5,121C 136.028,115.464 124.028,111.464 111.5,109C 109.04,107.542 106.873,105.709 105,103.5C 103.613,96.875 106.28,92.875 113,91.5C 131.664,97.4845 140.331,90.8178 139,71.5C 133.795,60.6894 131.461,49.3561 132,37.5C 132.535,26.7219 137.702,19.3886 147.5,15.5 Z"/></g>
<g><path style="opacity:1" fill="#94ca80" d="M 230.5,311.5 C 202.548,213.037 174.881,114.371 147.5,15.5C 150.304,14.3622 153.304,14.1955 156.5,15C 167.308,19.1409 174.808,26.6409 179,37.5C 181.465,46.8312 183.798,56.1646 186,65.5C 190.709,71.7696 196.876,73.9363 204.5,72C 208.783,69.3847 212.783,66.3847 216.5,63C 224.961,60.4572 229.127,63.6238 229,72.5C 223.74,79.7634 217.74,86.4301 211,92.5C 202.537,101.264 198.037,111.764 197.5,124C 198.766,136.662 200.933,149.162 204,161.5C 209.218,168.791 216.385,171.624 225.5,170C 228.808,174.775 232.474,179.275 236.5,183.5C 230.772,189.058 225.606,195.058 221,201.5C 219.392,204.382 218.059,207.382 217,210.5C 215.14,222.031 216.14,233.364 220,244.5C 221.637,248.637 224.47,251.637 228.5,253.5C 225.196,259.941 224.696,266.608 227,273.5C 230.459,279.287 234.292,284.787 238.5,290C 235.109,297.017 232.443,304.184 230.5,311.5 Z"/></g>
<g><path style="opacity:1" fill="#7bbb7f" d="M 365.5,33.5 C 362.832,34.4567 361.332,36.4567 361,39.5C 334.215,135.408 307.715,231.408 281.5,327.5C 281.543,328.416 281.876,329.083 282.5,329.5C 282.217,330.289 281.717,330.956 281,331.5C 278.721,321.67 275.054,312.337 270,303.5C 261.95,292.092 252.95,281.425 243,271.5C 240.131,267.742 239.798,263.742 242,259.5C 246.463,255.545 250.963,255.545 255.5,259.5C 258.686,263.52 262.353,267.02 266.5,270C 276.809,273.985 284.975,271.485 291,262.5C 292.335,257.142 293.669,251.809 295,246.5C 296.556,235.282 294.223,224.949 288,215.5C 271.301,198.469 254.967,181.135 239,163.5C 237.517,160.298 237.183,156.964 238,153.5C 242.006,148.834 246.506,148.334 251.5,152C 260.833,162 270.167,172 279.5,182C 281.901,184.062 284.567,185.729 287.5,187C 297.429,188.457 304.262,184.624 308,175.5C 309.883,166.204 311.549,156.871 313,147.5C 313.911,135.48 310.911,124.48 304,114.5C 296.667,106.5 289.333,98.5 282,90.5C 280.551,83.7057 283.218,80.039 290,79.5C 294.451,79.9181 297.951,82.0848 300.5,86C 309.766,92.4746 317.933,91.3079 325,82.5C 327.076,73.4617 329.409,64.4617 332,55.5C 336.017,44.273 343.517,36.4397 354.5,32C 358.477,31.1206 362.144,31.6206 365.5,33.5 Z"/></g>
<g><path style="opacity:0.999" fill="#94cb80" d="M 365.5,33.5 C 368.372,34.5256 370.872,36.1923 373,38.5C 379.113,47.6109 381.113,57.6109 379,68.5C 377.066,75.6366 374.732,82.6366 372,89.5C 369.584,101.678 374.417,109.011 386.5,111.5C 391.723,109.744 397.057,109.244 402.5,110C 407.446,114.3 407.779,118.967 403.5,124C 394.183,126.997 384.85,129.997 375.5,133C 372.814,135.546 371.814,138.713 372.5,142.5C 365.399,145.7 360.065,150.7 356.5,157.5C 352.151,155.536 348.651,156.536 346,160.5C 342.803,168.422 339.803,176.422 337,184.5C 336.219,195.221 341.052,201.888 351.5,204.5C 367.439,200.89 383.273,196.89 399,192.5C 400.888,192.796 402.722,193.296 404.5,194C 410.28,199.876 409.613,204.876 402.5,209C 380.878,215.156 359.211,221.156 337.5,227C 322.364,232.807 312.864,243.641 309,259.5C 304.661,277.822 311.828,286.322 330.5,285C 336.074,282.391 341.741,282.058 347.5,284C 351.769,288.99 351.436,293.656 346.5,298C 332.621,302.071 318.954,306.737 305.5,312C 297.007,316.895 289.341,322.728 282.5,329.5C 281.876,329.083 281.543,328.416 281.5,327.5C 307.715,231.408 334.215,135.408 361,39.5C 361.332,36.4567 362.832,34.4567 365.5,33.5 Z"/></g>
<g><path style="opacity:1" fill="#91c67d" d="M 262.5,132.5 C 271.207,132.037 274.707,136.037 273,144.5C 272.363,146.303 271.197,147.636 269.5,148.5C 265.474,144.805 261.474,141.138 257.5,137.5C 258.882,135.451 260.548,133.785 262.5,132.5 Z"/></g>
<g><path style="opacity:1" fill="#8ec37b" d="M 258.5,239.5 C 268.113,238.596 271.613,242.596 269,251.5C 265.054,247.555 260.554,244.389 255.5,242C 256.942,241.623 257.942,240.79 258.5,239.5 Z"/></g>
</svg>
