<?xml version="1.0" encoding="UTF-8"?>
<!DOCTYPE svg PUBLIC "-//W3C//DTD SVG 1.1//EN" "http://www.w3.org/Graphics/SVG/1.1/DTD/svg11.dtd">
<svg xmlns="http://www.w3.org/2000/svg" version="1.1" width="512px" height="512px" style="shape-rendering:geometricPrecision; text-rendering:geometricPrecision; image-rendering:optimizeQuality; fill-rule:evenodd; clip-rule:evenodd" xmlns:xlink="http://www.w3.org/1999/xlink">
<g><path style="opacity:0.979" fill="#010100" d="M 114.5,-0.5 C 140.167,-0.5 165.833,-0.5 191.5,-0.5C 193.696,0.854084 195.196,2.85408 196,5.5C 196.333,33.5 196.667,61.5 197,89.5C 199.116,119.745 205.449,149.079 216,177.5C 223.451,195.736 231.451,213.736 240,231.5C 254.493,268.13 262.66,306.13 264.5,345.5C 261.5,345.5 258.5,345.5 255.5,345.5C 252.5,345.5 249.5,345.5 246.5,345.5C 246.5,341.167 246.5,336.833 246.5,332.5C 236.5,332.5 226.5,332.5 216.5,332.5C 175.5,332.5 134.5,332.5 93.5,332.5C 93.5,373.5 93.5,414.5 93.5,455.5C 93.5,457.167 93.5,458.833 93.5,460.5C 130.167,460.5 166.833,460.5 203.5,460.5C 203.5,465.833 203.5,471.167 203.5,476.5C 162.833,476.5 122.167,476.5 81.5,476.5C 79.4959,475.327 77.9959,473.66 77,471.5C 76.3333,421.167 76.3333,370.833 77,320.5C 78.1585,317.507 80.3252,315.84 83.5,315.5C 136.833,315.5 190.167,315.5 243.5,315.5C 240.584,288.171 233.751,261.838 223,236.5C 210.894,212.622 200.727,187.956 192.5,162.5C 179.333,162.167 166.167,161.833 153,161.5C 139.483,161.501 126.316,162.167 113.5,163.5C 109.501,175.996 105.001,188.33 100,200.5C 77.5901,241.396 64.2567,285.063 60,331.5C 59.5,385.832 59.3333,440.166 59.5,494.5C 110.5,494.5 161.5,494.5 212.5,494.5C 212.19,497.713 212.523,500.713 213.5,503.5C 213.5,506.167 213.5,508.833 213.5,511.5C 157.833,511.5 102.167,511.5 46.5,511.5C 44.3041,510.146 42.8041,508.146 42,505.5C 41.3333,451.5 41.3333,397.5 42,343.5C 43.6995,304.036 52.0328,266.036 67,229.5C 81.4014,201.698 92.7347,172.698 101,142.5C 105.064,125.72 107.73,108.72 109,91.5C 109.333,63.5 109.667,35.5 110,7.5C 110.451,4.22244 111.951,1.55577 114.5,-0.5 Z"/></g>
<g><path style="opacity:1" fill="#feb430" d="M 161.5,16.5 C 161.5,27.8333 161.5,39.1667 161.5,50.5C 150.167,50.5 138.833,50.5 127.5,50.5C 127.5,39.1667 127.5,27.8333 127.5,16.5C 138.833,16.5 150.167,16.5 161.5,16.5 Z"/></g>
<g><path style="opacity:1" fill="#fea812" d="M 161.5,16.5 C 167.167,16.5 172.833,16.5 178.5,16.5C 178.5,27.8333 178.5,39.1667 178.5,50.5C 172.833,50.5 167.167,50.5 161.5,50.5C 161.5,39.1667 161.5,27.8333 161.5,16.5 Z"/></g>
<g><path style="opacity:1" fill="#7db356" d="M 127.5,68.5 C 136.167,68.5 144.833,68.5 153.5,68.5C 153.386,94.2522 156.386,119.585 162.5,144.5C 147.833,144.5 133.167,144.5 118.5,144.5C 124.134,119.502 127.134,94.1688 127.5,68.5 Z"/></g>
<g><path style="opacity:1" fill="#67a03f" d="M 127.5,68.5 C 144.325,67.5034 161.325,67.1701 178.5,67.5C 179.119,93.4536 182.119,119.12 187.5,144.5C 179.167,144.5 170.833,144.5 162.5,144.5C 156.386,119.585 153.386,94.2522 153.5,68.5C 144.833,68.5 136.167,68.5 127.5,68.5 Z"/></g>
<g><path style="opacity:1" fill="#68a23f" d="M 83.5,315.5 C 80.3252,315.84 78.1585,317.507 77,320.5C 76.3333,370.833 76.3333,421.167 77,471.5C 77.9959,473.66 79.4959,475.327 81.5,476.5C 122.33,477.499 163.33,477.832 204.5,477.5C 204.5,474.833 204.5,472.167 204.5,469.5C 209.833,469.5 215.167,469.5 220.5,469.5C 222.992,480.956 225.992,492.289 229.5,503.5C 224.167,503.5 218.833,503.5 213.5,503.5C 212.523,500.713 212.19,497.713 212.5,494.5C 161.5,494.5 110.5,494.5 59.5,494.5C 59.3333,440.166 59.5,385.832 60,331.5C 64.2567,285.063 77.5901,241.396 100,200.5C 105.001,188.33 109.501,175.996 113.5,163.5C 131.423,162.514 149.423,162.181 167.5,162.5C 169.494,170.314 171.994,177.981 175,185.5C 184.883,206.599 194.217,227.933 203,249.5C 210.216,270.698 215.383,292.364 218.5,314.5C 173.33,314.168 128.33,314.501 83.5,315.5 Z"/></g>
<g><path style="opacity:1" fill="#5d9139" d="M 83.5,315.5 C 128.33,314.501 173.33,314.168 218.5,314.5C 215.383,292.364 210.216,270.698 203,249.5C 194.217,227.933 184.883,206.599 175,185.5C 171.994,177.981 169.494,170.314 167.5,162.5C 149.423,162.181 131.423,162.514 113.5,163.5C 126.316,162.167 139.483,161.501 153,161.5C 166.167,161.833 179.333,162.167 192.5,162.5C 200.727,187.956 210.894,212.622 223,236.5C 233.751,261.838 240.584,288.171 243.5,315.5C 190.167,315.5 136.833,315.5 83.5,315.5 Z"/></g>
<g><path style="opacity:0.97" fill="#010101" d="M 464.5,511.5 C 431.5,511.5 398.5,511.5 365.5,511.5C 365.5,508.833 365.5,506.167 365.5,503.5C 366.477,500.713 366.81,497.713 366.5,494.5C 394.833,494.5 423.167,494.5 451.5,494.5C 451.667,462.832 451.5,431.165 451,399.5C 446.913,357.981 435.746,318.481 417.5,281C 417.625,279.373 418.125,277.873 419,276.5C 426.577,267.688 432.91,258.022 438,247.5C 440.757,241.805 442.257,235.805 442.5,229.5C 402.996,229.168 363.663,229.501 324.5,230.5C 325.966,240.062 329.132,249.062 334,257.5C 338.423,264.011 343.089,270.345 348,276.5C 348.875,277.873 349.375,279.373 349.5,281C 340.008,300.818 332.341,321.318 326.5,342.5C 323.61,342.722 320.943,342.055 318.5,340.5C 317.893,340.624 317.56,340.957 317.5,341.5C 314.933,340.525 312.267,339.858 309.5,339.5C 314.107,319.454 321.107,300.287 330.5,282C 313.565,263.867 305.732,242.367 307,217.5C 307.465,216.069 308.299,214.903 309.5,214C 358.083,212.343 406.75,212.01 455.5,213C 456.931,213.465 458.097,214.299 459,215.5C 461.705,241.05 454.205,263.217 436.5,282C 456.181,322.891 467.015,366.058 469,411.5C 469.667,442.833 469.667,474.167 469,505.5C 468.196,508.146 466.696,510.146 464.5,511.5 Z"/></g>
<g><path style="opacity:0.999" fill="#d5d5d3" d="M 324.5,230.5 C 355.167,230.5 385.833,230.5 416.5,230.5C 415.922,238.143 414.089,245.477 411,252.5C 405.389,262.592 399.223,272.259 392.5,281.5C 413.119,323.418 424.285,367.751 426,414.5C 426.5,440.831 426.667,467.165 426.5,493.5C 406.326,493.17 386.326,493.503 366.5,494.5C 366.81,497.713 366.477,500.713 365.5,503.5C 360.5,503.5 355.5,503.5 350.5,503.5C 356.027,482.376 360.527,460.71 364,438.5C 366.312,413.546 366.979,388.546 366,363.5C 364.101,360.137 361.268,358.137 357.5,357.5C 359.341,352.501 360.341,347.501 360.5,342.5C 362.609,339.41 364.276,335.91 365.5,332C 360.822,329.774 355.989,327.941 351,326.5C 350.228,326.645 349.561,326.978 349,327.5C 347.932,330.871 346.765,334.204 345.5,337.5C 346.243,338.182 346.909,338.849 347.5,339.5C 345.589,339.574 344.422,340.574 344,342.5C 342.358,347.402 341.191,352.402 340.5,357.5C 331.5,357.5 322.5,357.5 313.5,357.5C 314.525,352.067 315.858,346.733 317.5,341.5C 317.56,340.957 317.893,340.624 318.5,340.5C 320.943,342.055 323.61,342.722 326.5,342.5C 332.341,321.318 340.008,300.818 349.5,281C 349.375,279.373 348.875,277.873 348,276.5C 343.089,270.345 338.423,264.011 334,257.5C 329.132,249.062 325.966,240.062 324.5,230.5 Z"/></g>
<g><path style="opacity:1" fill="#c6c6c4" d="M 324.5,230.5 C 363.663,229.501 402.996,229.168 442.5,229.5C 442.257,235.805 440.757,241.805 438,247.5C 432.91,258.022 426.577,267.688 419,276.5C 418.125,277.873 417.625,279.373 417.5,281C 435.746,318.481 446.913,357.981 451,399.5C 451.5,431.165 451.667,462.832 451.5,494.5C 423.167,494.5 394.833,494.5 366.5,494.5C 386.326,493.503 406.326,493.17 426.5,493.5C 426.667,467.165 426.5,440.831 426,414.5C 424.285,367.751 413.119,323.418 392.5,281.5C 399.223,272.259 405.389,262.592 411,252.5C 414.089,245.477 415.922,238.143 416.5,230.5C 385.833,230.5 355.167,230.5 324.5,230.5 Z"/></g>
<g><path style="opacity:1" fill="#060606" d="M 363.5,292.5 C 368.826,294.828 373.826,297.661 378.5,301C 376.12,306.259 373.62,311.425 371,316.5C 365.903,314.369 361.07,311.869 356.5,309C 358.708,303.421 361.041,297.921 363.5,292.5 Z"/></g>
<g><path style="opacity:1" fill="#070707" d="M 360.5,342.5 C 356.12,341.707 351.786,340.707 347.5,339.5C 346.909,338.849 346.243,338.182 345.5,337.5C 346.765,334.204 347.932,330.871 349,327.5C 349.561,326.978 350.228,326.645 351,326.5C 355.989,327.941 360.822,329.774 365.5,332C 364.276,335.91 362.609,339.41 360.5,342.5 Z"/></g>
<g><path style="opacity:1" fill="#dfdfdd" d="M 216.5,332.5 C 187.167,362.5 157.5,392.167 127.5,421.5C 127.5,408.833 127.5,396.167 127.5,383.5C 121.833,383.5 116.167,383.5 110.5,383.5C 109.668,402.329 109.168,421.329 109,440.5C 103.965,445.703 98.798,450.703 93.5,455.5C 93.5,414.5 93.5,373.5 93.5,332.5C 134.5,332.5 175.5,332.5 216.5,332.5 Z"/></g>
<g><path style="opacity:1" fill="#d4d4d2" d="M 216.5,332.5 C 226.5,332.5 236.5,332.5 246.5,332.5C 246.5,336.833 246.5,341.167 246.5,345.5C 249.5,345.5 252.5,345.5 255.5,345.5C 255.5,349.5 255.5,353.5 255.5,357.5C 243.495,357.333 231.495,357.5 219.5,358C 216.417,358.786 214.251,360.619 213,363.5C 211.016,399.169 213.516,434.502 220.5,469.5C 215.167,469.5 209.833,469.5 204.5,469.5C 204.81,466.287 204.477,463.287 203.5,460.5C 166.833,460.5 130.167,460.5 93.5,460.5C 93.5,458.833 93.5,457.167 93.5,455.5C 98.798,450.703 103.965,445.703 109,440.5C 109.168,421.329 109.668,402.329 110.5,383.5C 110.5,403.5 110.5,423.5 110.5,443.5C 116.167,443.5 121.833,443.5 127.5,443.5C 127.5,436.167 127.5,428.833 127.5,421.5C 157.5,392.167 187.167,362.5 216.5,332.5 Z"/></g>
<g><path style="opacity:1" fill="#eaeae8" d="M 347.5,339.5 C 351.786,340.707 356.12,341.707 360.5,342.5C 360.341,347.501 359.341,352.501 357.5,357.5C 351.833,357.5 346.167,357.5 340.5,357.5C 341.191,352.402 342.358,347.402 344,342.5C 344.422,340.574 345.589,339.574 347.5,339.5 Z"/></g>
<g><path style="opacity:1" fill="#000000" d="M 110.5,349.5 C 116.167,349.5 121.833,349.5 127.5,349.5C 127.5,355.167 127.5,360.833 127.5,366.5C 121.833,366.5 116.167,366.5 110.5,366.5C 110.5,360.833 110.5,355.167 110.5,349.5 Z"/></g>
<g><path style="opacity:0.995" fill="#030202" d="M 255.5,357.5 C 274.833,357.5 294.167,357.5 313.5,357.5C 322.5,357.5 331.5,357.5 340.5,357.5C 346.167,357.5 351.833,357.5 357.5,357.5C 361.268,358.137 364.101,360.137 366,363.5C 366.979,388.546 366.312,413.546 364,438.5C 360.527,460.71 356.027,482.376 350.5,503.5C 349.656,506.678 347.989,509.345 345.5,511.5C 308.5,511.5 271.5,511.5 234.5,511.5C 231.334,509.846 229.667,507.179 229.5,503.5C 225.992,492.289 222.992,480.956 220.5,469.5C 213.516,434.502 211.016,399.169 213,363.5C 214.251,360.619 216.417,358.786 219.5,358C 231.495,357.5 243.495,357.333 255.5,357.5 Z"/></g>
<g><path style="opacity:1" fill="#431e1a" d="M 349.5,375.5 C 340.833,375.5 332.167,375.5 323.5,375.5C 292.5,375.5 261.5,375.5 230.5,375.5C 230.5,387.167 230.5,398.833 230.5,410.5C 229.505,398.678 229.172,386.678 229.5,374.5C 269.67,374.168 309.67,374.501 349.5,375.5 Z"/></g>
<g><path style="opacity:1" fill="#7f3931" d="M 323.5,375.5 C 325.968,415.423 321.301,454.423 309.5,492.5C 287.844,493.5 266.177,493.833 244.5,493.5C 236.116,466.484 231.45,438.817 230.5,410.5C 230.5,398.833 230.5,387.167 230.5,375.5C 261.5,375.5 292.5,375.5 323.5,375.5 Z"/></g>
<g><path style="opacity:1" fill="#722f28" d="M 323.5,375.5 C 332.167,375.5 340.833,375.5 349.5,375.5C 351.207,415.739 346.207,455.072 334.5,493.5C 304.336,494.83 274.336,494.83 244.5,493.5C 266.177,493.833 287.844,493.5 309.5,492.5C 321.301,454.423 325.968,415.423 323.5,375.5 Z"/></g>
<g><path style="opacity:1" fill="#010101" d="M 110.5,383.5 C 116.167,383.5 121.833,383.5 127.5,383.5C 127.5,396.167 127.5,408.833 127.5,421.5C 127.5,428.833 127.5,436.167 127.5,443.5C 121.833,443.5 116.167,443.5 110.5,443.5C 110.5,423.5 110.5,403.5 110.5,383.5 Z"/></g>
<g><path style="opacity:1" fill="#47221e" d="M 264.5,402.5 C 263.521,399.375 263.187,396.042 263.5,392.5C 258.167,392.5 252.833,392.5 247.5,392.5C 247.5,396.833 247.5,401.167 247.5,405.5C 246.514,401.03 246.181,396.363 246.5,391.5C 252.5,391.5 258.5,391.5 264.5,391.5C 264.5,395.167 264.5,398.833 264.5,402.5 Z"/></g>
<g><path style="opacity:1" fill="#000000" d="M 264.5,402.5 C 264.5,404.833 264.5,407.167 264.5,409.5C 258.833,409.5 253.167,409.5 247.5,409.5C 247.5,408.167 247.5,406.833 247.5,405.5C 247.5,401.167 247.5,396.833 247.5,392.5C 252.833,392.5 258.167,392.5 263.5,392.5C 263.187,396.042 263.521,399.375 264.5,402.5 Z"/></g>
<g><path style="opacity:1" fill="#020100" d="M 257.5,425.5 C 260.167,425.5 262.833,425.5 265.5,425.5C 267.48,439.193 269.314,452.86 271,466.5C 265.95,468.221 260.783,469.554 255.5,470.5C 253.015,457.755 251.015,444.921 249.5,432C 249.544,430.236 249.878,428.569 250.5,427C 253.036,426.814 255.369,426.314 257.5,425.5 Z"/></g>
<g><path style="opacity:1" fill="#10180b" d="M 203.5,460.5 C 204.477,463.287 204.81,466.287 204.5,469.5C 204.5,472.167 204.5,474.833 204.5,477.5C 163.33,477.832 122.33,477.499 81.5,476.5C 122.167,476.5 162.833,476.5 203.5,476.5C 203.5,471.167 203.5,465.833 203.5,460.5 Z"/></g>
</svg>
