<?xml version="1.0" encoding="UTF-8"?>
<!DOCTYPE svg PUBLIC "-//W3C//DTD SVG 1.1//EN" "http://www.w3.org/Graphics/SVG/1.1/DTD/svg11.dtd">
<svg xmlns="http://www.w3.org/2000/svg" version="1.1" width="512px" height="512px" style="shape-rendering:geometricPrecision; text-rendering:geometricPrecision; image-rendering:optimizeQuality; fill-rule:evenodd; clip-rule:evenodd" xmlns:xlink="http://www.w3.org/1999/xlink">
<g><path style="opacity:0.96" fill="#020404" d="M 187.5,-0.5 C 193.5,-0.5 199.5,-0.5 205.5,-0.5C 210.3,1.16604 214.966,3.33271 219.5,6C 255.333,41.8333 291.167,77.6667 327,113.5C 327.736,116.592 327.569,119.592 326.5,122.5C 322.644,124.88 318.644,125.046 314.5,123C 279.139,87.3054 243.472,51.972 207.5,17C 198.773,13.1996 190.44,13.8662 182.5,19C 177.963,23.3688 173.63,27.8688 169.5,32.5C 129.535,71.9652 89.7013,111.632 50,151.5C 45.1357,160.67 45.469,169.67 51,178.5C 85.6667,213.167 120.333,247.833 155,282.5C 157.054,286.613 156.887,290.613 154.5,294.5C 151.592,295.569 148.592,295.736 145.5,295C 110,259.5 74.5,224 39,188.5C 28.1594,170.457 29.1594,153.124 42,136.5C 84.1667,94.3333 126.333,52.1667 168.5,10C 174.037,4.90133 180.371,1.40133 187.5,-0.5 Z"/></g>
<g><path style="opacity:1" fill="#34bbc6" d="M 326.5,122.5 C 330.167,126.833 334.167,130.833 338.5,134.5C 335.742,138.996 335.909,143.33 339,147.5C 354.014,162.347 368.847,177.347 383.5,192.5C 378.848,197.652 374.015,202.652 369,207.5C 313.167,151.667 257.333,95.8333 201.5,40C 198.247,38.1797 194.913,38.0131 191.5,39.5C 184.979,34.7713 177.645,32.4379 169.5,32.5C 173.63,27.8688 177.963,23.3688 182.5,19C 190.44,13.8662 198.773,13.1996 207.5,17C 243.472,51.972 279.139,87.3054 314.5,123C 318.644,125.046 322.644,124.88 326.5,122.5 Z"/></g>
<g><path style="opacity:1" fill="#78ccd3" d="M 169.5,32.5 C 177.645,32.4379 184.979,34.7713 191.5,39.5C 151.868,79.632 112.035,119.632 72,159.5C 69.8202,163.414 70.1536,167.081 73,170.5C 128.5,226 184,281.5 239.5,337C 234.652,342.015 229.652,346.848 224.5,351.5C 209.014,336.514 193.681,321.347 178.5,306C 174.687,303.974 171.02,304.14 167.5,306.5C 163.167,302.5 158.833,298.5 154.5,294.5C 156.887,290.613 157.054,286.613 155,282.5C 120.333,247.833 85.6667,213.167 51,178.5C 45.469,169.67 45.1357,160.67 50,151.5C 89.7013,111.632 129.535,71.9652 169.5,32.5 Z"/></g>
<g><path style="opacity:0.986" fill="#030404" d="M 338.5,134.5 C 341.445,133.532 344.445,133.366 347.5,134C 363.333,149.833 379.167,165.667 395,181.5C 402.551,174.925 411.384,171.592 421.5,171.5C 444.554,174.72 457.22,187.886 459.5,211C 458.569,224.028 453.236,234.861 443.5,243.5C 450,260.5 456.5,277.5 463,294.5C 465.835,304.656 464.168,313.99 458,322.5C 439.167,341.333 420.333,360.167 401.5,379C 398.076,379.747 394.743,379.58 391.5,378.5C 389.278,374.904 389.111,371.237 391,367.5C 405.369,353.299 419.535,338.965 433.5,324.5C 437.798,320.704 441.964,316.704 446,312.5C 448.915,307.012 449.248,301.345 447,295.5C 441.863,281.754 436.529,268.088 431,254.5C 382.833,302.667 334.667,350.833 286.5,399C 290.756,400.807 295.089,402.307 299.5,403.5C 309.534,408.129 319.867,412.296 330.5,416C 335.44,417.041 340.106,416.374 344.5,414C 352.5,406 360.5,398 368.5,390C 372.189,388.328 375.856,388.495 379.5,390.5C 380.58,393.743 380.747,397.076 380,400.5C 371.5,409 363,417.5 354.5,426C 345.965,432.134 336.632,433.8 326.5,431C 309.5,424.5 292.5,418 275.5,411.5C 254.586,432.327 233.419,432.661 212,412.5C 203.18,398.409 202.18,383.742 209,368.5C 210.141,366.391 211.641,364.558 213.5,363C 198,347.5 182.5,332 167,316.5C 164.991,313.05 165.158,309.717 167.5,306.5C 171.02,304.14 174.687,303.974 178.5,306C 193.681,321.347 209.014,336.514 224.5,351.5C 229.652,346.848 234.652,342.015 239.5,337C 184,281.5 128.5,226 73,170.5C 70.1536,167.081 69.8202,163.414 72,159.5C 112.035,119.632 151.868,79.632 191.5,39.5C 194.913,38.0131 198.247,38.1797 201.5,40C 257.333,95.8333 313.167,151.667 369,207.5C 374.015,202.652 378.848,197.652 383.5,192.5C 368.847,177.347 354.014,162.347 339,147.5C 335.909,143.33 335.742,138.996 338.5,134.5 Z"/></g>
<g><path style="opacity:1" fill="#d6edf0" d="M 195.5,56.5 C 228.749,88.2482 261.583,120.582 294,153.5C 294.749,154.635 294.583,155.635 293.5,156.5C 286.661,160.752 279.994,165.252 273.5,170C 265.187,175.17 256.187,176.836 246.5,175C 199.178,155.012 152.178,155.679 105.5,177C 104.167,177.667 102.833,177.667 101.5,177C 97.6667,173.167 93.8333,169.333 90,165.5C 89.3333,164.5 89.3333,163.5 90,162.5C 125.368,127.299 160.535,91.9654 195.5,56.5 Z"/></g>
<g><path style="opacity:1" fill="#fdf8e2" d="M 305.5,166.5 C 323.082,182.579 340.248,199.246 357,216.5C 357.667,217.5 357.667,218.5 357,219.5C 321.653,255.014 286.153,290.347 250.5,325.5C 204.833,280.5 159.5,235.167 114.5,189.5C 145.588,175.085 177.922,171.585 211.5,179C 222.637,182.268 233.637,185.934 244.5,190C 256.872,191.989 268.538,189.989 279.5,184C 288.06,177.896 296.726,172.062 305.5,166.5 Z"/></g>
<g><path style="opacity:1" fill="#77cad1" d="M 427.5,236.5 C 426.172,215.171 414.839,204.505 393.5,204.5C 397.968,199.867 402.634,195.367 407.5,191C 422.196,184.233 433.696,187.733 442,201.5C 444.707,209.988 443.707,217.988 439,225.5C 435.298,229.37 431.464,233.037 427.5,236.5 Z"/></g>
<g><path style="opacity:1" fill="#090808" d="M 184.5,190.5 C 192.179,191.018 195.012,195.018 193,202.5C 188.199,206.749 183.866,206.416 180,201.5C 178.393,196.438 179.893,192.772 184.5,190.5 Z"/></g>
<g><path style="opacity:1" fill="#afe0e3" d="M 393.5,204.5 C 414.839,204.505 426.172,215.171 427.5,236.5C 371.035,293.465 314.368,350.299 257.5,407C 239.932,416.146 227.432,411.646 220,393.5C 218.791,387.114 219.791,381.114 223,375.5C 279.981,318.686 336.814,261.686 393.5,204.5 Z"/></g>
<g><path style="opacity:1" fill="#090908" d="M 276.5,225.5 C 286.629,226.106 288.963,230.606 283.5,239C 275.391,241.867 271.558,239.034 272,230.5C 273.025,228.313 274.525,226.646 276.5,225.5 Z"/></g>
<g><path style="opacity:1" fill="#0c0c0b" d="M 266.5,253.5 C 274.201,253.362 277.367,257.029 276,264.5C 270.833,270.092 266.167,269.759 262,263.5C 261.333,261.833 261.333,260.167 262,258.5C 263.366,256.638 264.866,254.972 266.5,253.5 Z"/></g>
<g><path style="opacity:1" fill="#f88426" d="M 433.5,324.5 C 428.11,312.036 422.943,299.369 418,286.5C 378.916,326.085 339.416,365.085 299.5,403.5C 295.089,402.307 290.756,400.807 286.5,399C 334.667,350.833 382.833,302.667 431,254.5C 436.529,268.088 441.863,281.754 447,295.5C 449.248,301.345 448.915,307.012 446,312.5C 441.964,316.704 437.798,320.704 433.5,324.5 Z"/></g>
<g><path style="opacity:0.999" fill="#fb9643" d="M 433.5,324.5 C 419.535,338.965 405.369,353.299 391,367.5C 389.111,371.237 389.278,374.904 391.5,378.5C 387.167,382.167 383.167,386.167 379.5,390.5C 375.856,388.495 372.189,388.328 368.5,390C 360.5,398 352.5,406 344.5,414C 340.106,416.374 335.44,417.041 330.5,416C 319.867,412.296 309.534,408.129 299.5,403.5C 339.416,365.085 378.916,326.085 418,286.5C 422.943,299.369 428.11,312.036 433.5,324.5 Z"/></g>
<g><path style="opacity:0.86" fill="#000000" d="M 409.5,391.5 C 418.778,390.376 422.278,394.376 420,403.5C 415.292,408.684 410.625,408.684 406,403.5C 403.841,398.482 405.007,394.482 409.5,391.5 Z"/></g>
<g><path style="opacity:0.86" fill="#000000" d="M 468.5,391.5 C 477.778,390.376 481.278,394.376 479,403.5C 474.292,408.684 469.625,408.684 465,403.5C 462.841,398.482 464.007,394.482 468.5,391.5 Z"/></g>
<g><path style="opacity:0.864" fill="#000000" d="M 394.5,426.5 C 402.198,427.033 405.031,431.033 403,438.5C 402.5,440.333 401.333,441.5 399.5,442C 390.008,443.511 386.508,439.677 389,430.5C 390.5,428.531 392.333,427.198 394.5,426.5 Z"/></g>
<g><path style="opacity:0.856" fill="#000000" d="M 410.5,465.5 C 418.696,465.529 421.863,469.529 420,477.5C 415.745,482.437 411.078,482.771 406,478.5C 403.552,472.74 405.052,468.407 410.5,465.5 Z"/></g>
<g><path style="opacity:0.869" fill="#000000" d="M 334.5,475.5 C 342.614,474.121 346.447,477.454 346,485.5C 342.402,491.703 337.735,492.703 332,488.5C 329.467,483.351 330.3,479.018 334.5,475.5 Z"/></g>
<g><path style="opacity:0.877" fill="#000000" d="M 455.5,511.5 C 452.833,511.5 450.167,511.5 447.5,511.5C 443.075,507.701 442.409,503.201 445.5,498C 454.521,494.051 459.021,496.884 459,506.5C 458.003,508.323 456.836,509.99 455.5,511.5 Z"/></g>
</svg>
