<?xml version="1.0" encoding="UTF-8"?>
<!DOCTYPE svg PUBLIC "-//W3C//DTD SVG 1.1//EN" "http://www.w3.org/Graphics/SVG/1.1/DTD/svg11.dtd">
<svg xmlns="http://www.w3.org/2000/svg" version="1.1" width="512px" height="512px" style="shape-rendering:geometricPrecision; text-rendering:geometricPrecision; image-rendering:optimizeQuality; fill-rule:evenodd; clip-rule:evenodd" xmlns:xlink="http://www.w3.org/1999/xlink">
<g><path style="opacity:0.964" fill="#020000" d="M 274.5,-0.5 C 277.833,-0.5 281.167,-0.5 284.5,-0.5C 294.741,4.62073 305.075,9.78739 315.5,15C 321.26,19.2865 322.76,24.7865 320,31.5C 315.397,36.1043 310.23,39.9376 304.5,43C 314.944,54.9361 318.777,68.7695 316,84.5C 311.866,95.9004 307.533,107.234 303,118.5C 278.772,187.387 278.439,256.387 302,325.5C 306.667,337.5 311.333,349.5 316,361.5C 319.081,377.354 315.247,391.188 304.5,403C 309.333,406.5 314.167,410 319,413.5C 322.876,420.07 322.043,425.904 316.5,431C 306.5,436 296.5,441 286.5,446C 278.19,449.543 272.023,447.377 268,439.5C 267.832,432.837 267.999,426.171 268.5,419.5C 251.667,418.506 238.501,411.172 229,397.5C 219.23,377.191 211.23,356.191 205,334.5C 203.637,330.239 203.304,325.905 204,321.5C 205.129,319.859 206.629,318.859 208.5,318.5C 212.426,318.047 215.592,319.38 218,322.5C 224.159,345.979 232.493,368.646 243,390.5C 248.574,397.595 255.74,401.928 264.5,403.5C 283.892,404.275 296.059,395.275 301,376.5C 301.667,372.5 301.667,368.5 301,364.5C 286.522,332.926 276.856,299.926 272,265.5C 264.678,261.422 257.178,257.755 249.5,254.5C 245.297,251.034 244.63,247.034 247.5,242.5C 250.177,240.568 253.177,240.068 256.5,241C 260.402,243.119 264.402,244.952 268.5,246.5C 268.56,247.043 268.893,247.376 269.5,247.5C 270.803,244.355 270.803,241.355 269.5,238.5C 269.789,234.894 269.456,231.394 268.5,228C 260.982,224.409 253.649,220.576 246.5,216.5C 246.342,213.098 246.676,209.764 247.5,206.5C 249.896,204.788 252.562,204.288 255.5,205C 259.954,207.311 264.454,209.478 269,211.5C 269.322,206.148 269.822,200.814 270.5,195.5C 270.167,194.5 269.833,193.5 269.5,192.5C 262.812,189.488 256.145,186.488 249.5,183.5C 244.248,178.994 244.248,174.494 249.5,170C 251.473,169.505 253.473,169.338 255.5,169.5C 261.031,172.068 266.531,174.735 272,177.5C 276.751,146.246 285.751,116.246 299,87.5C 305.051,66.4362 297.885,51.9362 277.5,44C 272.845,43.5008 268.179,43.3342 263.5,43.5C 253.628,45.5439 246.128,50.8773 241,59.5C 207.312,132.807 197.145,209.307 210.5,289C 211.635,294.351 209.635,297.851 204.5,299.5C 198.188,299.352 195.022,296.019 195,289.5C 181.575,205.138 193.242,124.471 230,47.5C 239.546,34.6426 252.379,27.976 268.5,27.5C 267.999,20.8292 267.832,14.1626 268,7.5C 269.305,4.03864 271.471,1.37197 274.5,-0.5 Z"/></g>
<g><path style="opacity:1" fill="#d14551" d="M 283.5,17.5 C 289.861,19.5131 295.861,22.3465 301.5,26C 298.18,28.9945 294.513,31.4945 290.5,33.5C 288.677,32.2528 286.677,31.5861 284.5,31.5C 284.647,26.7858 284.314,22.1191 283.5,17.5 Z"/></g>
<g><path style="opacity:0.962" fill="#020101" d="M 464.5,210.5 C 460.502,210.361 457.669,208.361 456,204.5C 450.942,163.661 439.609,124.661 422,87.5C 414.022,76.4326 403.189,71.766 389.5,73.5C 376.135,76.9481 367.302,85.2815 363,98.5C 361.859,105.804 362.859,112.804 366,119.5C 378.442,147.704 387.109,177.038 392,207.5C 398.975,203.079 406.475,200.579 414.5,200C 419.833,204.333 419.833,208.667 414.5,213C 407.588,216.372 400.755,219.872 394,223.5C 394.196,229.452 394.53,235.452 395,241.5C 400.213,238.893 405.547,236.56 411,234.5C 418.875,236.873 420.375,241.373 415.5,248C 408.588,251.372 401.755,254.872 395,258.5C 394.501,262.152 394.335,265.818 394.5,269.5C 393.2,272.024 393.2,274.691 394.5,277.5C 395.107,277.376 395.44,277.043 395.5,276.5C 399.598,274.952 403.598,273.119 407.5,271C 415.122,269.622 418.622,272.789 418,280.5C 416.833,281.667 415.667,282.833 414.5,284C 406.922,287.706 399.422,291.539 392,295.5C 387.656,328.196 378.656,359.529 365,389.5C 359.298,410.762 366.798,425.096 387.5,432.5C 402.772,435.794 414.606,430.794 423,417.5C 449.409,359.058 461.409,297.724 459,233.5C 460.86,230.796 463.36,229.129 466.5,228.5C 470.244,228.954 472.744,230.954 474,234.5C 476.974,302.923 463.641,367.923 434,429.5C 424.467,442.351 411.634,449.018 395.5,449.5C 396.222,456.159 396.389,462.825 396,469.5C 394.276,474.897 390.609,477.564 385,477.5C 381.643,477.406 378.477,476.573 375.5,475C 364.934,470.136 354.768,464.636 345,458.5C 341.518,452.917 341.851,447.584 346,442.5C 350.588,439.456 355.088,436.29 359.5,433C 349.228,421.421 345.394,407.921 348,392.5C 352.3,380.6 356.8,368.766 361.5,357C 385.608,287.449 385.441,217.949 361,148.5C 356.467,137.234 352.134,125.9 348,114.5C 345.464,98.9683 349.298,85.3016 359.5,73.5C 354.397,70.1975 349.564,66.5309 345,62.5C 341.039,55.6374 342.206,49.8041 348.5,45C 360.21,38.9737 372.21,33.807 384.5,29.5C 389.96,29.1472 393.793,31.4805 396,36.5C 396.423,43.5095 396.256,50.5095 395.5,57.5C 414.785,58.5533 428.951,67.5533 438,84.5C 454.994,121.971 466.16,161.137 471.5,202C 470.805,206.194 468.471,209.028 464.5,210.5 Z"/></g>
<g><path style="opacity:1" fill="#d94854" d="M 263.5,43.5 C 268.179,43.3342 272.845,43.5008 277.5,44C 297.885,51.9362 305.051,66.4362 299,87.5C 285.751,116.246 276.751,146.246 272,177.5C 266.531,174.735 261.031,172.068 255.5,169.5C 254.432,168.566 253.099,168.232 251.5,168.5C 256.611,139.333 265.445,111.333 278,84.5C 280.462,72.4084 278.128,61.4084 271,51.5C 268.295,48.9638 265.795,46.2971 263.5,43.5 Z"/></g>
<g><path style="opacity:1" fill="#dd636d" d="M 263.5,43.5 C 265.795,46.2971 268.295,48.9638 271,51.5C 278.128,61.4084 280.462,72.4084 278,84.5C 265.445,111.333 256.611,139.333 251.5,168.5C 253.099,168.232 254.432,168.566 255.5,169.5C 253.473,169.338 251.473,169.505 249.5,170C 244.248,174.494 244.248,178.994 249.5,183.5C 247.935,191.076 247.268,198.742 247.5,206.5C 246.676,209.764 246.342,213.098 246.5,216.5C 246.225,225.221 246.558,233.887 247.5,242.5C 244.63,247.034 245.297,251.034 249.5,254.5C 250.35,273.309 253.516,291.976 259,310.5C 264.349,328.217 270.683,345.55 278,362.5C 279.858,373.133 278.192,383.133 273,392.5C 269.927,396.061 267.094,399.728 264.5,403.5C 255.74,401.928 248.574,397.595 243,390.5C 232.493,368.646 224.159,345.979 218,322.5C 215.592,319.38 212.426,318.047 208.5,318.5C 207.01,312.205 205.677,305.872 204.5,299.5C 209.635,297.851 211.635,294.351 210.5,289C 197.145,209.307 207.312,132.807 241,59.5C 246.128,50.8773 253.628,45.5439 263.5,43.5 Z"/></g>
<g><path style="opacity:1" fill="#d45f69" d="M 378.5,47.5 C 379.748,48.3339 380.415,49.6672 380.5,51.5C 381.275,57.5275 378.942,61.5275 373.5,63.5C 369.487,61.4945 365.82,58.9945 362.5,56C 367.768,52.8683 373.101,50.0349 378.5,47.5 Z"/></g>
<g><path style="opacity:0.962" fill="#020101" d="M 83.5,511.5 C 80.1667,511.5 76.8333,511.5 73.5,511.5C 62.5919,506.046 51.5919,500.546 40.5,495C 35.6522,489.396 35.3188,483.563 39.5,477.5C 43.8574,474.136 48.1907,470.802 52.5,467.5C 41.5356,453.795 38.3689,438.461 43,421.5C 83.665,332.188 83.665,242.855 43,153.5C 38.492,136.717 41.6587,121.55 52.5,108C 48.3455,104.194 43.8455,100.694 39,97.5C 34.9749,90.3394 36.1416,84.1728 42.5,79C 52.9555,74.2724 63.2888,69.2724 73.5,64C 83.9335,61.8704 89.6001,66.037 90.5,76.5C 89.7448,81.4736 89.4115,86.4736 89.5,91.5C 113.08,93.5708 128.58,105.904 136,128.5C 178.92,233.692 179.254,339.025 137,444.5C 133.4,454.878 127.9,464.044 120.5,472C 111.553,479.483 101.22,483.317 89.5,483.5C 89.7254,489.855 89.892,496.188 90,502.5C 89.1273,506.525 86.9607,509.525 83.5,511.5 Z"/></g>
<g><path style="opacity:1" fill="#dc636d" d="M 389.5,73.5 C 403.189,71.766 414.022,76.4326 422,87.5C 439.609,124.661 450.942,163.661 456,204.5C 457.669,208.361 460.502,210.361 464.5,210.5C 465.167,216.5 465.833,222.5 466.5,228.5C 463.36,229.129 460.86,230.796 459,233.5C 461.409,297.724 449.409,359.058 423,417.5C 414.606,430.794 402.772,435.794 387.5,432.5C 392.009,430.835 395.509,427.835 398,423.5C 443.063,325.802 448.73,225.802 415,123.5C 410.253,110.258 404.92,97.2584 399,84.5C 395.998,80.6662 392.831,76.9995 389.5,73.5 Z"/></g>
<g><path style="opacity:1" fill="#df7e84" d="M 389.5,73.5 C 392.831,76.9995 395.998,80.6662 399,84.5C 404.92,97.2584 410.253,110.258 415,123.5C 448.73,225.802 443.063,325.802 398,423.5C 395.509,427.835 392.009,430.835 387.5,432.5C 366.798,425.096 359.298,410.762 365,389.5C 378.656,359.529 387.656,328.196 392,295.5C 399.422,291.539 406.922,287.706 414.5,284C 415.667,282.833 416.833,281.667 418,280.5C 418.622,272.789 415.122,269.622 407.5,271C 403.598,273.119 399.598,274.952 395.5,276.5C 394.532,274.393 394.198,272.059 394.5,269.5C 394.335,265.818 394.501,262.152 395,258.5C 401.755,254.872 408.588,251.372 415.5,248C 420.375,241.373 418.875,236.873 411,234.5C 405.547,236.56 400.213,238.893 395,241.5C 394.53,235.452 394.196,229.452 394,223.5C 400.755,219.872 407.588,216.372 414.5,213C 419.833,208.667 419.833,204.333 414.5,200C 406.475,200.579 398.975,203.079 392,207.5C 387.109,177.038 378.442,147.704 366,119.5C 362.859,112.804 361.859,105.804 363,98.5C 367.302,85.2815 376.135,76.9481 389.5,73.5 Z"/></g>
<g><path style="opacity:1" fill="#d56069" d="M 72.5,81.5 C 73.5862,81.62 74.2528,82.2867 74.5,83.5C 73.6381,87.4526 73.3048,91.4526 73.5,95.5C 71.2133,95.7239 69.0466,96.3906 67,97.5C 63.3744,95.3779 59.8744,93.0446 56.5,90.5C 61.8287,87.5021 67.162,84.5021 72.5,81.5 Z"/></g>
<g><path style="opacity:1" fill="#dc636d" d="M 82.5,108.5 C 96.5693,105.774 107.736,110.44 116,122.5C 154.728,206.499 163.061,293.499 141,383.5C 134.508,407.978 125.841,431.644 115,454.5C 107.078,464.76 96.5782,469.093 83.5,467.5C 86.498,464.333 89.3314,461 92,457.5C 142.071,346.578 143.071,235.244 95,123.5C 92.2143,117.208 88.0476,112.208 82.5,108.5 Z"/></g>
<g><path style="opacity:1" fill="#df7e84" d="M 82.5,108.5 C 88.0476,112.208 92.2143,117.208 95,123.5C 143.071,235.244 142.071,346.578 92,457.5C 89.3314,461 86.498,464.333 83.5,467.5C 63.7884,461.946 54.9551,448.946 57,428.5C 71.1669,396.835 80.8336,363.835 86,329.5C 94.6566,325.34 102.99,320.674 111,315.5C 112.955,307.209 109.788,303.709 101.5,305C 97.1667,307.167 92.8333,309.333 88.5,311.5C 87.7283,305.185 87.895,298.852 89,292.5C 95.7551,288.872 102.588,285.372 109.5,282C 113.811,272.637 110.811,268.637 100.5,270C 96.8333,271.833 93.1667,273.667 89.5,275.5C 88.0394,269.303 87.706,263.137 88.5,257C 96.4029,253.467 103.903,249.301 111,244.5C 112.879,238.24 110.712,234.573 104.5,233.5C 98.285,235.606 92.285,238.273 86.5,241.5C 80.5503,208.722 70.7169,177.055 57,146.5C 54.8069,126.531 63.3069,113.864 82.5,108.5 Z"/></g>
<g><path style="opacity:1" fill="#d74853" d="M 249.5,183.5 C 256.145,186.488 262.812,189.488 269.5,192.5C 269.833,193.5 270.167,194.5 270.5,195.5C 269.822,200.814 269.322,206.148 269,211.5C 264.454,209.478 259.954,207.311 255.5,205C 252.562,204.288 249.896,204.788 247.5,206.5C 247.268,198.742 247.935,191.076 249.5,183.5 Z"/></g>
<g><path style="opacity:1" fill="#d84854" d="M 246.5,216.5 C 253.649,220.576 260.982,224.409 268.5,228C 269.456,231.394 269.789,234.894 269.5,238.5C 269.806,241.385 269.473,244.052 268.5,246.5C 264.402,244.952 260.402,243.119 256.5,241C 253.177,240.068 250.177,240.568 247.5,242.5C 246.558,233.887 246.225,225.221 246.5,216.5 Z"/></g>
<g><path style="opacity:1" fill="#692329" d="M 269.5,238.5 C 270.803,241.355 270.803,244.355 269.5,247.5C 268.893,247.376 268.56,247.043 268.5,246.5C 269.473,244.052 269.806,241.385 269.5,238.5 Z"/></g>
<g><path style="opacity:1" fill="#d84854" d="M 249.5,254.5 C 257.178,257.755 264.678,261.422 272,265.5C 276.856,299.926 286.522,332.926 301,364.5C 301.667,368.5 301.667,372.5 301,376.5C 296.059,395.275 283.892,404.275 264.5,403.5C 267.094,399.728 269.927,396.061 273,392.5C 278.192,383.133 279.858,373.133 278,362.5C 270.683,345.55 264.349,328.217 259,310.5C 253.516,291.976 250.35,273.309 249.5,254.5 Z"/></g>
<g><path style="opacity:1" fill="#553032" d="M 394.5,269.5 C 394.198,272.059 394.532,274.393 395.5,276.5C 395.44,277.043 395.107,277.376 394.5,277.5C 393.2,274.691 393.2,272.024 394.5,269.5 Z"/></g>
<g><path style="opacity:1" fill="#cf4550" d="M 289.5,413.5 C 293.957,414.936 297.957,417.27 301.5,420.5C 295.992,423.755 290.325,426.755 284.5,429.5C 283.031,424.667 283.364,420 285.5,415.5C 287.026,415.006 288.359,414.339 289.5,413.5 Z"/></g>
<g><path style="opacity:1" fill="#d05e67" d="M 371.5,443.5 C 374.579,443.804 377.413,444.804 380,446.5C 380.828,450.871 380.661,455.205 379.5,459.5C 373.675,456.755 368.008,453.755 362.5,450.5C 365.75,448.388 368.75,446.055 371.5,443.5 Z"/></g>
<g><path style="opacity:1" fill="#d05e67" d="M 66.5,477.5 C 68.8398,478.086 71.0065,479.086 73,480.5C 74.1946,484.751 74.6946,489.085 74.5,493.5C 67.9627,491.234 61.6294,488.4 55.5,485C 59.3447,482.637 63.0113,480.137 66.5,477.5 Z"/></g>
</svg>
