<?xml version="1.0" encoding="UTF-8"?>
<!DOCTYPE svg PUBLIC "-//W3C//DTD SVG 1.1//EN" "http://www.w3.org/Graphics/SVG/1.1/DTD/svg11.dtd">
<svg xmlns="http://www.w3.org/2000/svg" version="1.1" width="512px" height="512px" style="shape-rendering:geometricPrecision; text-rendering:geometricPrecision; image-rendering:optimizeQuality; fill-rule:evenodd; clip-rule:evenodd" xmlns:xlink="http://www.w3.org/1999/xlink">
<g><path style="opacity:0.985" fill="#051a38" d="M 432.5,28.5 C 451.839,31.5847 470.839,36.0847 489.5,42C 494.661,47.7197 495.828,54.2197 493,61.5C 486.532,68.9695 479.698,76.1362 472.5,83C 498.989,100.821 510.156,125.654 506,157.5C 493.37,208.257 472.536,255.257 443.5,298.5C 452.053,304.881 458.553,312.881 463,322.5C 469.882,316.617 477.048,311.117 484.5,306C 495.9,302.74 502.734,306.907 505,318.5C 507.327,333.774 508.66,349.108 509,364.5C 505.501,371.999 499.667,374.833 491.5,373C 483.835,369.655 476.168,366.655 468.5,364C 460.163,395.333 439.83,412.666 407.5,416C 379.595,418.361 351.762,417.861 324,414.5C 260.556,455.258 191.056,477.925 115.5,482.5C 83.7471,480.797 61.4138,465.463 48.5,436.5C 40.2992,441.865 31.9659,447.031 23.5,452C 14.0737,454.536 7.57371,451.369 4,442.5C 2.43436,424.19 1.7677,405.857 2,387.5C 5.78082,379.695 11.9475,376.862 20.5,379C 29.4114,383.372 38.2447,387.872 47,392.5C 55.0123,366.488 72.179,349.988 98.5,343C 110.518,341.465 122.518,339.798 134.5,338C 80.5087,296.679 40.0087,244.846 13,182.5C 5.18887,155.241 11.3555,131.741 31.5,112C 24.4234,106.379 17.2568,100.879 10,95.5C 4.54248,84.5932 7.37581,76.7599 18.5,72C 30.2827,67.2754 41.9494,62.2754 53.5,57C 64.6994,54.5527 71.3661,58.886 73.5,70C 72.0485,78.7793 71.0485,87.6127 70.5,96.5C 95.9928,95.1705 115.826,105.17 130,126.5C 159.685,195.02 209.185,243.02 278.5,270.5C 324.769,230.005 355.269,179.671 370,119.5C 381.046,92.9624 400.879,77.9624 429.5,74.5C 426.599,64.0621 423.932,53.5621 421.5,43C 422.002,35.6757 425.669,30.8423 432.5,28.5 Z"/></g>
<g><path style="opacity:1" fill="#f19676" d="M 434.5,41.5 C 449.271,44.129 463.937,47.2957 478.5,51C 480.573,51.1183 481.907,52.1183 482.5,54C 475.18,61.9882 467.846,69.9882 460.5,78C 455.381,76.4194 450.047,75.4194 444.5,75C 443.484,74.4806 442.818,73.6473 442.5,72.5C 439.962,62.6765 436.962,53.0098 433.5,43.5C 433.863,42.8165 434.196,42.1499 434.5,41.5 Z"/></g>
<g><path style="opacity:1" fill="#f09675" d="M 57.5,68.5 C 58.5,68.5 59.5,68.5 60.5,68.5C 59.7836,78.5456 58.6169,88.5456 57,98.5C 52.3385,100.08 47.8385,102.08 43.5,104.5C 35.1933,98.8533 27.1933,92.8533 19.5,86.5C 32.0759,80.308 44.7426,74.308 57.5,68.5 Z"/></g>
<g><path style="opacity:1" fill="#f49876" d="M 425.5,86.5 C 461.588,83.9356 484.421,99.9356 494,134.5C 494.667,140.167 494.667,145.833 494,151.5C 466.842,260.612 406.342,345.778 312.5,407C 251.913,444.806 185.913,465.639 114.5,469.5C 84.3954,467.575 65.562,451.908 58,422.5C 54.4028,391.789 66.5695,369.955 94.5,357C 111.723,353.736 129.056,351.07 146.5,349C 175.736,342.977 203.736,333.477 230.5,320.5C 232.674,333.877 235.174,347.211 238,360.5C 238.374,361.416 238.874,362.25 239.5,363C 241.833,363.667 244.167,363.667 246.5,363C 248.516,361.972 249.516,360.305 249.5,358C 246.085,343.265 243.585,328.432 242,313.5C 253.914,306.085 265.414,298.085 276.5,289.5C 284.04,298.053 291.707,306.553 299.5,315C 307.239,315.229 309.406,311.729 306,304.5C 299.5,296.833 293,289.167 286.5,281.5C 296.988,271.845 306.988,261.678 316.5,251C 318.553,250.675 320.553,251.009 322.5,252C 334.087,256.862 345.754,261.529 357.5,266C 363.834,267.329 366.668,264.829 366,258.5C 365.167,257.667 364.333,256.833 363.5,256C 350.799,250.658 338.133,245.325 325.5,240C 352.433,205.295 371.267,166.462 382,123.5C 390.464,104.025 404.964,91.6916 425.5,86.5 Z"/></g>
<g><path style="opacity:1" fill="#f49876" d="M 64.5,108.5 C 88.222,106.28 106.722,114.947 120,134.5C 135.735,170.563 158.068,201.896 187,228.5C 187.617,229.449 187.451,230.282 186.5,231C 175.909,236.876 165.743,243.376 156,250.5C 154.334,257.163 156.834,259.996 163.5,259C 174.768,251.782 186.268,244.949 198,238.5C 208.432,246.295 218.932,253.962 229.5,261.5C 225,269.167 220.5,276.833 216,284.5C 214.195,289.69 215.862,293.024 221,294.5C 222.982,294.01 224.649,293.01 226,291.5C 230.534,283.075 235.534,275.075 241,267.5C 249.44,271.637 257.94,275.637 266.5,279.5C 267.521,280.002 267.688,280.668 267,281.5C 232.94,308.75 194.44,326.584 151.5,335C 95.3213,294.155 53.1546,241.988 25,178.5C 17.23,143.151 30.3967,119.817 64.5,108.5 Z"/></g>
<g><path style="opacity:1" fill="#f29776" d="M 434.5,308.5 C 455.986,324.743 462.153,345.743 453,371.5C 444.34,389.415 430.174,399.915 410.5,403C 396.025,404.293 381.525,405.126 367,405.5C 357.441,405.589 347.941,404.923 338.5,403.5C 375.813,377.187 407.813,345.52 434.5,308.5 Z"/></g>
<g><path style="opacity:1" fill="#f09675" d="M 489.5,317.5 C 490.5,317.5 491.5,317.5 492.5,317.5C 493.717,331.048 495.383,344.548 497.5,358C 497.612,359.662 496.946,360.829 495.5,361.5C 486.711,357.355 477.877,353.355 469,349.5C 468.331,344.487 467.997,339.487 468,334.5C 475.145,328.693 482.312,323.027 489.5,317.5 Z"/></g>
<g><path style="opacity:1" fill="#ef9675" d="M 14.5,390.5 C 24.5584,395.028 34.5584,399.861 44.5,405C 45.8333,411.333 45.8333,417.667 44.5,424C 36.6626,428.751 28.996,433.751 21.5,439C 19.9751,440.009 18.3084,440.509 16.5,440.5C 14.8967,423.784 14.23,407.117 14.5,390.5 Z"/></g>
</svg>
