<?xml version="1.0" encoding="UTF-8"?>
<!DOCTYPE svg PUBLIC "-//W3C//DTD SVG 1.1//EN" "http://www.w3.org/Graphics/SVG/1.1/DTD/svg11.dtd">
<svg xmlns="http://www.w3.org/2000/svg" version="1.1" width="512px" height="512px" style="shape-rendering:geometricPrecision; text-rendering:geometricPrecision; image-rendering:optimizeQuality; fill-rule:evenodd; clip-rule:evenodd" xmlns:xlink="http://www.w3.org/1999/xlink">
<g><path style="opacity:0.986" fill="#030202" d="M 244.5,139.5 C 241.364,145.366 236.531,147.033 230,144.5C 216.499,152.652 208.666,164.486 206.5,180C 206.513,186.219 208.013,192.052 211,197.5C 217.911,206.322 224.577,215.322 231,224.5C 240.179,239.537 245.012,255.87 245.5,273.5C 245.5,274.5 245.5,275.5 245.5,276.5C 253.167,276.5 260.833,276.5 268.5,276.5C 268.821,270.974 268.488,265.64 267.5,260.5C 267.112,253.278 265.612,246.278 263,239.5C 257.861,227.888 252.194,216.554 246,205.5C 237.742,183.019 243.908,165.686 264.5,153.5C 263.067,150.667 262.4,147.667 262.5,144.5C 264.036,141.476 266.536,139.809 270,139.5C 283.908,144.37 297.408,150.203 310.5,157C 353.833,183.667 397.167,210.333 440.5,237C 457.517,251.224 463.017,269.057 457,290.5C 455.193,296.118 452.36,301.118 448.5,305.5C 466.157,306.333 483.824,306.833 501.5,307C 506.02,309.022 509.353,312.189 511.5,316.5C 511.5,325.833 511.5,335.167 511.5,344.5C 508.928,349.307 504.928,352.474 499.5,354C 473.835,354.5 448.169,354.667 422.5,354.5C 420.846,361.963 418.68,369.297 416,376.5C 413.28,381.551 409.113,384.718 403.5,386C 382.167,386.667 360.833,386.667 339.5,386C 336.505,384.836 334.839,382.669 334.5,379.5C 335.055,376.213 336.722,373.713 339.5,372C 359.5,371.667 379.5,371.333 399.5,371C 400.416,370.626 401.25,370.126 402,369.5C 403.609,364.177 405.109,358.844 406.5,353.5C 305.833,353.5 205.167,353.5 104.5,353.5C 105.891,358.844 107.391,364.177 109,369.5C 109.75,370.126 110.584,370.626 111.5,371C 177.833,371.333 244.167,371.667 310.5,372C 313.789,373.41 315.456,375.91 315.5,379.5C 315.256,382.263 313.923,384.429 311.5,386C 243.5,386.667 175.5,386.667 107.5,386C 101.887,384.718 97.7199,381.551 95,376.5C 92.3204,369.297 90.1537,361.963 88.5,354.5C 62.8312,354.667 37.1645,354.5 11.5,354C 6.07189,352.474 2.07189,349.307 -0.5,344.5C -0.5,335.167 -0.5,325.833 -0.5,316.5C 1.6467,312.189 4.98004,309.022 9.5,307C 19.8333,306.333 30.1667,306.333 40.5,307C 42.7337,308.638 44.067,310.805 44.5,313.5C 43.678,315.389 42.8447,317.389 42,319.5C 41.2496,320.126 40.4162,320.626 39.5,321C 31.1733,321.5 22.84,321.666 14.5,321.5C 14.5,327.167 14.5,332.833 14.5,338.5C 164.167,338.5 313.833,338.5 463.5,338.5C 474.5,338.5 485.5,338.5 496.5,338.5C 496.5,332.833 496.5,327.167 496.5,321.5C 485.5,321.5 474.5,321.5 463.5,321.5C 331.833,321.667 200.166,321.5 68.5,321C 67.5838,320.626 66.7504,320.126 66,319.5C 65.1553,317.389 64.322,315.389 63.5,313.5C 63.933,310.805 65.2663,308.638 67.5,307C 77.1667,306.667 86.8333,306.333 96.5,306C 61.6643,281.479 47.1643,247.979 53,205.5C 63.7211,159.779 92.2211,132.946 138.5,125C 165.557,123.872 192.557,124.538 219.5,127C 226.563,128.01 233.563,129.344 240.5,131C 243.321,133.141 244.654,135.975 244.5,139.5 Z"/></g>
<g><path style="opacity:0.998" fill="#fa9266" d="M 244.5,139.5 C 250.5,141.167 256.5,142.833 262.5,144.5C 262.4,147.667 263.067,150.667 264.5,153.5C 243.908,165.686 237.742,183.019 246,205.5C 252.194,216.554 257.861,227.888 263,239.5C 265.612,246.278 267.112,253.278 267.5,260.5C 267.5,265.5 267.5,270.5 267.5,275.5C 259.889,276.076 252.556,275.41 245.5,273.5C 245.012,255.87 240.179,239.537 231,224.5C 224.577,215.322 217.911,206.322 211,197.5C 208.013,192.052 206.513,186.219 206.5,180C 208.666,164.486 216.499,152.652 230,144.5C 236.531,147.033 241.364,145.366 244.5,139.5 Z"/></g>
<g><path style="opacity:1" fill="#f99166" d="M 156.5,139.5 C 160.884,139.174 165.217,139.508 169.5,140.5C 154.501,154.165 146.168,171.165 144.5,191.5C 144.616,205.014 148.45,217.347 156,228.5C 165.286,237.761 173.62,247.761 181,258.5C 183.707,264.202 185.207,270.202 185.5,276.5C 174.495,276.667 163.495,276.5 152.5,276C 126.979,256.457 114.812,230.624 116,198.5C 119.775,179.778 128.608,163.944 142.5,151C 147.421,147.387 152.088,143.554 156.5,139.5 Z"/></g>
<g><path style="opacity:1" fill="#fa9266" d="M 191.5,140.5 C 197.577,140.196 203.577,140.696 209.5,142C 189.611,160.832 186.111,182.332 199,206.5C 208.571,217.969 216.905,230.303 224,243.5C 228.54,254.035 230.707,265.035 230.5,276.5C 220.5,276.5 210.5,276.5 200.5,276.5C 199.847,263.038 195.347,251.038 187,240.5C 179.627,232.796 172.627,224.796 166,216.5C 155.503,195.616 157.837,176.282 173,158.5C 179.062,152.27 185.229,146.27 191.5,140.5 Z"/></g>
<g><path style="opacity:1" fill="#f99166" d="M 126.5,142.5 C 127.552,142.351 128.552,142.517 129.5,143C 96.6163,177.191 91.783,215.024 115,256.5C 118.833,261.667 122.667,266.833 126.5,272C 94.4704,262.127 75.137,240.627 68.5,207.5C 75.8926,175.111 95.2259,153.444 126.5,142.5 Z"/></g>
<g><path style="opacity:1" fill="#fa9266" d="M 302.5,245.5 C 296.167,252.833 289.833,260.167 283.5,267.5C 283.195,256.139 281.028,245.139 277,234.5C 270.923,221.347 264.59,208.347 258,195.5C 255.376,182.582 259.876,173.082 271.5,167C 275.501,164.778 279.667,162.945 284,161.5C 292.88,165.356 301.38,169.856 309.5,175C 297.072,184.029 291.905,196.196 294,211.5C 296.527,222.913 299.36,234.246 302.5,245.5 Z"/></g>
<g><path style="opacity:1" fill="#f99166" d="M 334.5,190.5 C 329.31,203.213 322.81,215.213 315,226.5C 314.517,227.448 314.351,228.448 314.5,229.5C 310.142,220.047 308.309,210.047 309,199.5C 311.37,191.825 316.37,186.825 324,184.5C 327.909,185.869 331.409,187.869 334.5,190.5 Z"/></g>
<g><path style="opacity:1" fill="#fa7b42" d="M 334.5,190.5 C 336.941,191.557 339.275,192.89 341.5,194.5C 336.457,205.762 335.29,217.429 338,229.5C 339.87,235.442 341.536,241.442 343,247.5C 343.667,253.833 343.667,260.167 343,266.5C 342.261,270.062 340.761,273.228 338.5,276C 331.508,276.5 324.508,276.666 317.5,276.5C 319.057,270.769 320.057,264.936 320.5,259C 319.366,248.967 317.366,239.133 314.5,229.5C 314.351,228.448 314.517,227.448 315,226.5C 322.81,215.213 329.31,203.213 334.5,190.5 Z"/></g>
<g><path style="opacity:1" fill="#f97a41" d="M 372.5,264.5 C 371.518,267.962 371.185,271.629 371.5,275.5C 366.305,275.821 361.305,275.487 356.5,274.5C 358.27,265.578 358.77,256.578 358,247.5C 355,237.169 352.834,226.669 351.5,216C 351.322,211.215 352.322,206.715 354.5,202.5C 362.167,207.167 369.833,211.833 377.5,216.5C 380.978,224.251 381.478,232.251 379,240.5C 375.505,248.15 373.338,256.15 372.5,264.5 Z"/></g>
<g><path style="opacity:1" fill="#582b17" d="M 396.5,228.5 C 395.833,230.5 395.167,232.5 394.5,234.5C 394.192,232.076 394.526,229.743 395.5,227.5C 396.107,227.624 396.44,227.957 396.5,228.5 Z"/></g>
<g><path style="opacity:1" fill="#f77a41" d="M 396.5,228.5 C 401.402,230.776 405.735,233.776 409.5,237.5C 405.46,250.252 404.46,263.252 406.5,276.5C 400.167,276.5 393.833,276.5 387.5,276.5C 386.454,266.722 387.954,257.389 392,248.5C 393.286,243.904 394.119,239.237 394.5,234.5C 395.167,232.5 395.833,230.5 396.5,228.5 Z"/></g>
<g><path style="opacity:1" fill="#f77a41" d="M 302.5,245.5 C 306.603,254.494 306.436,263.494 302,272.5C 300.833,273.667 299.667,274.833 298.5,276C 293.511,276.499 288.511,276.666 283.5,276.5C 283.5,273.5 283.5,270.5 283.5,267.5C 289.833,260.167 296.167,252.833 302.5,245.5 Z"/></g>
<g><path style="opacity:1" fill="#f87a41" d="M 422.5,245.5 C 436.704,250.898 443.704,261.232 443.5,276.5C 436.5,276.5 429.5,276.5 422.5,276.5C 419.869,266.154 419.869,255.82 422.5,245.5 Z"/></g>
<g><path style="opacity:1" fill="#9a9a9a" d="M 139.5,290.5 C 179.33,291.499 219.33,291.832 259.5,291.5C 254.167,296.5 248.833,301.5 243.5,306.5C 208.498,306.667 173.498,306.5 138.5,306C 115.443,302.256 96.9432,291.089 83,272.5C 78.8879,266.943 75.8879,260.943 74,254.5C 90.7902,275.482 112.624,287.482 139.5,290.5 Z"/></g>
<g><path style="opacity:1" fill="#b86b4b" d="M 267.5,260.5 C 268.488,265.64 268.821,270.974 268.5,276.5C 260.833,276.5 253.167,276.5 245.5,276.5C 245.5,275.5 245.5,274.5 245.5,273.5C 252.556,275.41 259.889,276.076 267.5,275.5C 267.5,270.5 267.5,265.5 267.5,260.5 Z"/></g>
<g><path style="opacity:1" fill="#b55930" d="M 372.5,264.5 C 372.5,268.5 372.5,272.5 372.5,276.5C 366.794,276.829 361.128,276.495 355.5,275.5C 355.624,274.893 355.957,274.56 356.5,274.5C 361.305,275.487 366.305,275.821 371.5,275.5C 371.185,271.629 371.518,267.962 372.5,264.5 Z"/></g>
<g><path style="opacity:1" fill="#1d1d1d" d="M 139.5,290.5 C 239.502,290.167 339.502,290.5 439.5,291.5C 439.376,292.107 439.043,292.44 438.5,292.5C 379.002,291.501 319.336,291.168 259.5,291.5C 219.33,291.832 179.33,291.499 139.5,290.5 Z"/></g>
<g><path style="opacity:1" fill="#828282" d="M 259.5,291.5 C 319.336,291.168 379.002,291.501 438.5,292.5C 433.57,299.979 426.57,304.479 417.5,306C 359.501,306.5 301.501,306.667 243.5,306.5C 248.833,301.5 254.167,296.5 259.5,291.5 Z"/></g>
<g><path style="opacity:0.998" fill="#def5fc" d="M 44.5,313.5 C 50.8333,313.5 57.1667,313.5 63.5,313.5C 64.322,315.389 65.1553,317.389 66,319.5C 66.7504,320.126 67.5838,320.626 68.5,321C 200.166,321.5 331.833,321.667 463.5,321.5C 463.5,327.167 463.5,332.833 463.5,338.5C 313.833,338.5 164.167,338.5 14.5,338.5C 14.5,332.833 14.5,327.167 14.5,321.5C 22.84,321.666 31.1733,321.5 39.5,321C 40.4162,320.626 41.2496,320.126 42,319.5C 42.8447,317.389 43.678,315.389 44.5,313.5 Z"/></g>
<g><path style="opacity:1" fill="#c7eefc" d="M 463.5,321.5 C 474.5,321.5 485.5,321.5 496.5,321.5C 496.5,327.167 496.5,332.833 496.5,338.5C 485.5,338.5 474.5,338.5 463.5,338.5C 463.5,332.833 463.5,327.167 463.5,321.5 Z"/></g>
<g><path style="opacity:0.997" fill="#93def3" d="M 334.5,379.5 C 328.167,379.5 321.833,379.5 315.5,379.5C 315.456,375.91 313.789,373.41 310.5,372C 244.167,371.667 177.833,371.333 111.5,371C 110.584,370.626 109.75,370.126 109,369.5C 107.391,364.177 105.891,358.844 104.5,353.5C 205.167,353.5 305.833,353.5 406.5,353.5C 405.109,358.844 403.609,364.177 402,369.5C 401.25,370.126 400.416,370.626 399.5,371C 379.5,371.333 359.5,371.667 339.5,372C 336.722,373.713 335.055,376.213 334.5,379.5 Z"/></g>
</svg>
