<?xml version="1.0" encoding="UTF-8"?>
<!DOCTYPE svg PUBLIC "-//W3C//DTD SVG 1.1//EN" "http://www.w3.org/Graphics/SVG/1.1/DTD/svg11.dtd">
<svg xmlns="http://www.w3.org/2000/svg" version="1.1" width="512px" height="512px" style="shape-rendering:geometricPrecision; text-rendering:geometricPrecision; image-rendering:optimizeQuality; fill-rule:evenodd; clip-rule:evenodd" xmlns:xlink="http://www.w3.org/1999/xlink">
<g><path style="opacity:0.98" fill="#020100" d="M 436.5,-0.5 C 447.5,-0.5 458.5,-0.5 469.5,-0.5C 479.362,1.07185 488.195,5.07185 496,11.5C 497.586,13.6705 498.92,16.0038 500,18.5C 504.448,39.7891 504.448,61.1225 500,82.5C 491.754,123.914 476.087,162.248 453,197.5C 442.899,212.701 432.065,227.367 420.5,241.5C 424.544,259.208 424.378,276.875 420,294.5C 416.067,308.1 407.233,316.6 393.5,320C 377.242,322.014 361.742,319.514 347,312.5C 333.952,323.604 320.452,334.104 306.5,344C 304.878,345.295 303.545,346.795 302.5,348.5C 307.615,361.128 309.115,374.128 307,387.5C 304.811,396.357 299.644,402.857 291.5,407C 261.127,418.795 230.793,418.962 200.5,407.5C 194.167,410.167 187.833,412.833 181.5,415.5C 181.552,440.797 181.386,466.13 181,491.5C 177.622,501.376 171.122,508.043 161.5,511.5C 153.5,511.5 145.5,511.5 137.5,511.5C 120.871,509.17 104.871,504.337 89.5,497C 85.0803,493.614 83.4137,489.114 84.5,483.5C 86.2959,482.207 87.9625,480.707 89.5,479C 91.0344,478.077 92.701,477.577 94.5,477.5C 107.059,482.964 120.059,487.13 133.5,490C 141.892,491.799 150.225,491.799 158.5,490C 159.701,489.097 160.535,487.931 161,486.5C 161.187,464.834 161.02,443.168 160.5,421.5C 155.484,422.058 150.484,422.725 145.5,423.5C 145.666,429.176 145.499,434.843 145,440.5C 139.921,448.9 133.921,449.567 127,442.5C 125.63,436.258 125.13,429.925 125.5,423.5C 122.127,422.865 118.794,422.365 115.5,422C 110.404,427.77 104.737,432.77 98.5,437C 89.7175,436.876 85.8841,432.376 87,423.5C 91.8465,417.988 96.6798,412.488 101.5,407C 99.8562,402.571 98.5229,398.071 97.5,393.5C 91.5499,394.771 85.5499,395.271 79.5,395C 72.0231,389.451 71.6898,383.451 78.5,377C 83.8335,375.767 89.1668,374.6 94.5,373.5C 94.5,371.167 94.5,368.833 94.5,366.5C 95.4767,363.713 95.81,360.713 95.5,357.5C 74.9931,357.17 54.6598,357.503 34.5,358.5C 32.0968,358.393 30.2635,359.393 29,361.5C 28.2208,371.919 28.8874,382.253 31,392.5C 34.214,403.308 37.714,413.975 41.5,424.5C 41.4213,428.658 39.7546,431.991 36.5,434.5C 31.9749,436.163 27.8083,435.496 24,432.5C 12.1534,409.601 6.82005,385.268 8,359.5C 11.3945,347.437 19.2278,340.271 31.5,338C 53.8308,337.5 76.1642,337.333 98.5,337.5C 105.311,310.539 115.478,284.872 129,260.5C 141.374,238.242 154.874,216.742 169.5,196C 156.769,180.034 149.436,161.868 147.5,141.5C 148.643,123.701 156.976,110.534 172.5,102C 186.776,95.3475 201.776,91.3475 217.5,90C 231.515,88.6809 245.515,88.3476 259.5,89C 299.244,51.7785 345.244,24.7785 397.5,8C 410.462,4.3384 423.462,1.50507 436.5,-0.5 Z"/></g>
<g><path style="opacity:1" fill="#fd9070" d="M 439.5,19.5 C 449.889,19.1302 460.223,19.6302 470.5,21C 476.15,21.5571 479.983,24.3904 482,29.5C 483.929,53.5922 481.595,77.2589 475,100.5C 468.554,122.002 460.054,142.669 449.5,162.5C 448.833,162.833 448.167,163.167 447.5,163.5C 430.626,158.563 414.292,152.229 398.5,144.5C 397.228,138.449 393.895,133.949 388.5,131C 382.137,130.047 375.804,129.047 369.5,128C 347.371,112.879 327.371,95.2119 309.5,75C 348.527,46.3173 391.861,27.8173 439.5,19.5 Z"/></g>
<g><path style="opacity:1" fill="#070302" d="M 378.5,52.5 C 394.548,53.3676 400.048,61.3676 395,76.5C 387.251,83.993 379.251,84.3263 371,77.5C 364.785,66.5885 367.285,58.2551 378.5,52.5 Z"/></g>
<g><path style="opacity:1" fill="#fd754d" d="M 292.5,87.5 C 293.239,87.369 293.906,87.5357 294.5,88C 311.57,106.849 330.236,123.849 350.5,139C 330.616,150.55 315.116,166.383 304,186.5C 294.16,209.651 300.327,227.151 322.5,239C 344.341,250.327 362.175,245.827 376,225.5C 385.879,206.693 392.046,186.693 394.5,165.5C 408.871,171.681 423.538,177.181 438.5,182C 411.918,221.931 380.251,257.598 343.5,289C 296.923,329.641 245.59,363.308 189.5,390C 172.116,397.908 153.95,402.741 135,404.5C 130.01,405.042 125.51,403.875 121.5,401C 118.344,395.2 116.178,389.034 115,382.5C 114.004,370.402 114.671,358.402 117,346.5C 123.657,319.852 133.657,294.519 147,270.5C 181.763,209.521 223.93,154.021 273.5,104C 279.905,98.4824 286.239,92.9824 292.5,87.5 Z"/></g>
<g><path style="opacity:1" fill="#fb8e6f" d="M 220.5,109.5 C 226.842,109.334 233.175,109.5 239.5,110C 219.655,132.227 200.655,155.06 182.5,178.5C 172.852,165.726 168.352,151.392 169,135.5C 172.263,127.114 178.096,121.281 186.5,118C 197.644,113.881 208.978,111.047 220.5,109.5 Z"/></g>
<g><path style="opacity:1" fill="#fc8f6f" d="M 373.5,149.5 C 374.5,149.5 375.5,149.5 376.5,149.5C 375.471,173.284 369.305,195.617 358,216.5C 354.536,221.815 349.702,224.815 343.5,225.5C 334.618,223.64 327.118,219.306 321,212.5C 319.061,207.527 319.061,202.527 321,197.5C 333.316,175.677 350.816,159.677 373.5,149.5 Z"/></g>
<g><path style="opacity:1" fill="#040101" d="M 221.5,208.5 C 224.607,208.351 227.607,208.851 230.5,210C 234.581,212.702 238.914,215.036 243.5,217C 248.648,221.466 252.148,226.966 254,233.5C 265.667,237.167 273.333,244.833 277,256.5C 283.702,258.529 289.368,262.196 294,267.5C 296.465,273.591 299.298,279.424 302.5,285C 300.646,294.174 295.312,297.174 286.5,294C 282.007,290.166 279.174,285.333 278,279.5C 273.451,277.141 268.951,274.641 264.5,272C 259.941,267.72 256.774,262.553 255,256.5C 243.667,253.167 236.333,245.833 233,234.5C 228.943,232.221 224.777,230.054 220.5,228C 215.919,224.562 214.419,220.062 216,214.5C 217.36,211.977 219.193,209.977 221.5,208.5 Z"/></g>
<g><path style="opacity:1" fill="#f88d6e" d="M 401.5,260.5 C 403.491,271.727 402.325,282.727 398,293.5C 393.635,298.849 387.968,301.182 381,300.5C 375.276,300.36 369.776,299.194 364.5,297C 377.339,285.327 389.672,273.161 401.5,260.5 Z"/></g>
<g><path style="opacity:1" fill="#050201" d="M 173.5,279.5 C 176.271,279.421 178.937,279.921 181.5,281C 185.581,283.702 189.914,286.036 194.5,288C 199.648,292.466 203.148,297.966 205,304.5C 212.046,306.87 218.046,310.87 223,316.5C 225.148,321.289 227.481,325.956 230,330.5C 230.989,342.857 225.822,346.69 214.5,342C 210.577,338.323 208.077,333.823 207,328.5C 200.173,325.752 194.173,321.752 189,316.5C 187.059,312.952 185.393,309.286 184,305.5C 177.892,303.444 172.558,300.111 168,295.5C 166.632,292.262 166.299,288.928 167,285.5C 169.063,283.266 171.229,281.266 173.5,279.5 Z"/></g>
<g><path style="opacity:1" fill="#361f18" d="M 34.5,358.5 C 54.6598,357.503 74.9931,357.17 95.5,357.5C 95.81,360.713 95.4767,363.713 94.5,366.5C 94.5,363.833 94.5,361.167 94.5,358.5C 74.5,358.5 54.5,358.5 34.5,358.5 Z"/></g>
<g><path style="opacity:0.998" fill="#fd8f70" d="M 34.5,358.5 C 54.5,358.5 74.5,358.5 94.5,358.5C 94.5,361.167 94.5,363.833 94.5,366.5C 94.5,368.833 94.5,371.167 94.5,373.5C 89.1668,374.6 83.8335,375.767 78.5,377C 71.6898,383.451 72.0231,389.451 79.5,395C 85.5499,395.271 91.5499,394.771 97.5,393.5C 98.5229,398.071 99.8562,402.571 101.5,407C 96.6798,412.488 91.8465,417.988 87,423.5C 85.8841,432.376 89.7175,436.876 98.5,437C 104.737,432.77 110.404,427.77 115.5,422C 118.794,422.365 122.127,422.865 125.5,423.5C 125.13,429.925 125.63,436.258 127,442.5C 133.921,449.567 139.921,448.9 145,440.5C 145.499,434.843 145.666,429.176 145.5,423.5C 150.484,422.725 155.484,422.058 160.5,421.5C 161.02,443.168 161.187,464.834 161,486.5C 160.535,487.931 159.701,489.097 158.5,490C 150.225,491.799 141.892,491.799 133.5,490C 120.059,487.13 107.059,482.964 94.5,477.5C 92.701,477.577 91.0344,478.077 89.5,479C 87.9625,480.707 86.2959,482.207 84.5,483.5C 78.0269,479.089 71.6935,474.423 65.5,469.5C 67.8247,464.906 67.9914,460.239 66,455.5C 61.0367,450.694 55.87,450.361 50.5,454.5C 45.3409,448.183 40.6742,441.516 36.5,434.5C 39.7546,431.991 41.4213,428.658 41.5,424.5C 37.714,413.975 34.214,403.308 31,392.5C 28.8874,382.253 28.2208,371.919 29,361.5C 30.2635,359.393 32.0968,358.393 34.5,358.5 Z"/></g>
<g><path style="opacity:1" fill="#f98d6e" d="M 282.5,359.5 C 283.496,359.414 284.329,359.748 285,360.5C 287.275,367.685 287.942,375.018 287,382.5C 286.654,384.848 285.487,386.681 283.5,388C 265.341,394.937 246.674,396.937 227.5,394C 246.571,383.476 264.905,371.976 282.5,359.5 Z"/></g>
<g><path style="opacity:0.943" fill="#030101" d="M 65.5,469.5 C 59.6196,473.338 54.1196,472.671 49,467.5C 46.6953,462.695 47.1953,458.362 50.5,454.5C 55.87,450.361 61.0367,450.694 66,455.5C 67.9914,460.239 67.8247,464.906 65.5,469.5 Z"/></g>
</svg>
