<?xml version="1.0" encoding="UTF-8"?>
<!DOCTYPE svg PUBLIC "-//W3C//DTD SVG 1.1//EN" "http://www.w3.org/Graphics/SVG/1.1/DTD/svg11.dtd">
<svg xmlns="http://www.w3.org/2000/svg" version="1.1" width="512px" height="512px" style="shape-rendering:geometricPrecision; text-rendering:geometricPrecision; image-rendering:optimizeQuality; fill-rule:evenodd; clip-rule:evenodd" xmlns:xlink="http://www.w3.org/1999/xlink">
<g><path style="opacity:0.968" fill="#010202" d="M 511.5,171.5 C 511.5,175.5 511.5,179.5 511.5,183.5C 494.24,217.496 494.24,251.496 511.5,285.5C 511.5,289.167 511.5,292.833 511.5,296.5C 507.258,305.288 500.258,308.788 490.5,307C 484.624,304.479 479.124,301.312 474,297.5C 472.281,294.546 472.115,291.546 473.5,288.5C 476.678,285.78 480.345,284.946 484.5,286C 487.167,287.667 489.833,289.333 492.5,291C 493.944,291.781 495.277,291.614 496.5,290.5C 479.177,252.987 479.177,215.487 496.5,178C 496.167,177.5 495.833,177 495.5,176.5C 478.506,185.662 461.839,195.328 445.5,205.5C 459.653,216.465 463.82,230.465 458,247.5C 455.131,253.752 450.964,258.919 445.5,263C 449.6,265.467 453.434,268.301 457,271.5C 457.497,274.146 457.664,276.813 457.5,279.5C 454.408,282.355 450.741,283.188 446.5,282C 438.99,277.817 431.49,273.65 424,269.5C 413.851,270.993 404.017,273.493 394.5,277C 404.36,282.58 407.526,290.746 404,301.5C 398.333,307.5 392.667,313.5 387,319.5C 381.25,328.41 377.25,338.076 375,348.5C 369.06,356.615 361.227,359.115 351.5,356C 333.16,347.327 318.994,334.161 309,316.5C 277.367,331.035 244.2,340.201 209.5,344C 222.073,354.937 224.907,368.103 218,383.5C 199.992,417.863 177.992,420.53 152,391.5C 142.127,376.705 137.627,360.371 138.5,342.5C 108.599,336.714 81.9323,324.214 58.5,305C 33.8483,286.202 14.1816,263.369 -0.5,236.5C -0.5,231.833 -0.5,227.167 -0.5,222.5C 1.44082,216.713 5.10748,212.213 10.5,209C 47.0529,192.694 85.0529,181.027 124.5,174C 128.5,173.333 132.5,173.333 136.5,174C 138.439,175.432 139.772,177.265 140.5,179.5C 140.067,182.387 138.733,184.887 136.5,187C 129.905,188.545 123.239,189.878 116.5,191C 116.043,191.414 115.709,191.914 115.5,192.5C 130.495,222.773 128.328,251.773 109,279.5C 101.045,289.048 91.5448,296.548 80.5,302C 120.643,327.695 164.31,336.362 211.5,328C 228.336,326.2 244.669,322.7 260.5,317.5C 289.8,309.681 317.133,297.514 342.5,281C 371.318,265.462 401.985,255.796 434.5,252C 443.761,246.844 447.261,239.011 445,228.5C 442.737,221.903 438.237,217.736 431.5,216C 392.114,213.991 353.447,207.658 315.5,197C 277.504,189.91 239.17,186.41 200.5,186.5C 188.34,185.669 176.007,185.169 163.5,185C 160.976,183.117 159.642,180.617 159.5,177.5C 159.444,174.439 160.778,172.272 163.5,171C 169.825,170.5 176.158,170.334 182.5,170.5C 185.572,147.45 192.739,125.784 204,105.5C 206.259,102.216 209.259,100.216 213,99.5C 214.967,99.5419 216.801,100.042 218.5,101C 222.2,105.035 226.2,108.702 230.5,112C 232.744,112.906 235.077,113.406 237.5,113.5C 242.758,112.016 248.091,111.516 253.5,112C 254.667,113.167 255.833,114.333 257,115.5C 255.925,124.275 258.425,131.775 264.5,138C 268.749,140.194 273.082,142.194 277.5,144C 279.393,146.917 279.893,150.084 279,153.5C 275.594,160.262 274.927,167.262 277,174.5C 286.112,176.563 295.279,178.063 304.5,179C 311.321,156.342 323.654,137.342 341.5,122C 351.67,112.825 362.17,112.325 373,120.5C 376.576,127.45 379.243,134.784 381,142.5C 385.88,152.579 392.88,160.913 402,167.5C 408.254,179.737 405.42,189.237 393.5,196C 393.833,196.333 394.167,196.667 394.5,197C 404.488,198.222 414.488,198.888 424.5,199C 446.004,186.414 467.671,174.08 489.5,162C 499.458,159.486 506.792,162.653 511.5,171.5 Z"/></g>
<g><path style="opacity:1" fill="#687989" d="M 217.5,122.5 C 216.21,123.058 215.377,124.058 215,125.5C 213.848,141.552 217.348,156.552 225.5,170.5C 227.969,171.168 230.302,171.835 232.5,172.5C 220.85,171.731 209.183,171.398 197.5,171.5C 200.377,153.203 206.044,135.87 214.5,119.5C 215.855,120.188 216.855,121.188 217.5,122.5 Z"/></g>
<g><path style="opacity:1" fill="#8495a4" d="M 217.5,122.5 C 224.924,127.924 233.258,129.924 242.5,128.5C 243.863,140.193 249.863,148.527 260.5,153.5C 260.833,154.333 261.167,155.167 261.5,156C 260.614,161.797 260.28,167.631 260.5,173.5C 251.148,173.566 241.815,173.232 232.5,172.5C 230.302,171.835 227.969,171.168 225.5,170.5C 217.348,156.552 213.848,141.552 215,125.5C 215.377,124.058 216.21,123.058 217.5,122.5 Z"/></g>
<g><path style="opacity:1" fill="#8495a4" d="M 358.5,130.5 C 360.017,130.511 361.184,131.177 362,132.5C 365.697,151.075 374.864,166.242 389.5,178C 388.899,179.605 387.899,180.938 386.5,182C 381.167,185.667 375.833,189.333 370.5,193C 361.509,192.833 352.842,191.333 344.5,188.5C 341.45,167.279 346.116,147.945 358.5,130.5 Z"/></g>
<g><path style="opacity:1" fill="#697b8b" d="M 358.5,130.5 C 346.116,147.945 341.45,167.279 344.5,188.5C 336.614,186.407 328.614,184.74 320.5,183.5C 325.289,164.19 335.289,148.023 350.5,135C 352.817,132.843 355.484,131.343 358.5,130.5 Z"/></g>
<g><path style="opacity:0.999" fill="#c3cdef" d="M 159.5,177.5 C 159.642,180.617 160.976,183.117 163.5,185C 176.007,185.169 188.34,185.669 200.5,186.5C 196.116,186.174 191.783,186.508 187.5,187.5C 184.505,196.456 183.505,205.456 184.5,214.5C 170.793,222.019 158.627,231.686 148,243.5C 147.294,245.971 147.627,248.305 149,250.5C 152.427,253.256 155.093,256.59 157,260.5C 156.333,266.5 155.667,272.5 155,278.5C 165.506,288.919 178.006,292.085 192.5,288C 197.166,286.334 201.499,284.167 205.5,281.5C 208.586,286.092 212.253,290.258 216.5,294C 227.902,303.703 240.568,311.37 254.5,317C 256.473,317.495 258.473,317.662 260.5,317.5C 244.669,322.7 228.336,326.2 211.5,328C 164.31,336.362 120.643,327.695 80.5,302C 91.5448,296.548 101.045,289.048 109,279.5C 128.328,251.773 130.495,222.773 115.5,192.5C 115.709,191.914 116.043,191.414 116.5,191C 123.239,189.878 129.905,188.545 136.5,187C 138.733,184.887 140.067,182.387 140.5,179.5C 146.749,178.477 153.082,177.81 159.5,177.5 Z"/></g>
<g><path style="opacity:0.998" fill="#8495a4" d="M 473.5,288.5 C 468.167,285.5 462.833,282.5 457.5,279.5C 457.664,276.813 457.497,274.146 457,271.5C 453.434,268.301 449.6,265.467 445.5,263C 450.964,258.919 455.131,253.752 458,247.5C 463.82,230.465 459.653,216.465 445.5,205.5C 461.839,195.328 478.506,185.662 495.5,176.5C 495.833,177 496.167,177.5 496.5,178C 479.177,215.487 479.177,252.987 496.5,290.5C 495.277,291.614 493.944,291.781 492.5,291C 489.833,289.333 487.167,287.667 484.5,286C 480.345,284.946 476.678,285.78 473.5,288.5 Z"/></g>
<g><path style="opacity:1" fill="#e7ebf7" d="M 200.5,186.5 C 239.17,186.41 277.504,189.91 315.5,197C 353.447,207.658 392.114,213.991 431.5,216C 438.237,217.736 442.737,221.903 445,228.5C 447.261,239.011 443.761,246.844 434.5,252C 401.985,255.796 371.318,265.462 342.5,281C 317.133,297.514 289.8,309.681 260.5,317.5C 258.473,317.662 256.473,317.495 254.5,317C 240.568,311.37 227.902,303.703 216.5,294C 212.253,290.258 208.586,286.092 205.5,281.5C 221.95,264.296 234.117,244.296 242,221.5C 245.622,212.976 243.455,206.476 235.5,202C 223.055,201.155 211.055,203.155 199.5,208C 194.479,210.179 189.479,212.346 184.5,214.5C 183.505,205.456 184.505,196.456 187.5,187.5C 191.783,186.508 196.116,186.174 200.5,186.5 Z"/></g>
<g><path style="opacity:1" fill="#abbeea" d="M 95.5,195.5 C 98.3252,195.162 100.492,196.162 102,198.5C 114.711,223.534 113.045,247.534 97,270.5C 88.7997,280.351 78.633,287.351 66.5,291.5C 45.8126,274.415 28.6459,254.415 15,231.5C 14.0701,228.15 14.9035,225.317 17.5,223C 42.8006,211.513 68.8006,202.346 95.5,195.5 Z"/></g>
<g><path style="opacity:1" fill="#030303" d="M 205.5,281.5 C 201.499,284.167 197.166,286.334 192.5,288C 178.006,292.085 165.506,288.919 155,278.5C 155.667,272.5 156.333,266.5 157,260.5C 155.093,256.59 152.427,253.256 149,250.5C 147.627,248.305 147.294,245.971 148,243.5C 158.627,231.686 170.793,222.019 184.5,214.5C 189.479,212.346 194.479,210.179 199.5,208C 211.055,203.155 223.055,201.155 235.5,202C 243.455,206.476 245.622,212.976 242,221.5C 234.117,244.296 221.95,264.296 205.5,281.5 Z"/></g>
<g><path style="opacity:1" fill="#07080a" d="M 74.5,215.5 C 79.0226,215.345 82.1893,217.345 84,221.5C 84.6667,226.833 84.6667,232.167 84,237.5C 80.9867,242.535 76.8201,243.702 71.5,241C 70.8742,240.25 70.3742,239.416 70,238.5C 69.3333,232.167 69.3333,225.833 70,219.5C 71.3968,217.93 72.8968,216.596 74.5,215.5 Z"/></g>
<g><path style="opacity:1" fill="#8394a3" d="M 202.5,262.5 C 200.983,262.489 199.816,261.823 199,260.5C 192.455,249.708 190.955,238.375 194.5,226.5C 204.885,220.823 215.885,217.823 227.5,217.5C 221.45,233.95 213.116,248.95 202.5,262.5 Z"/></g>
<g><path style="opacity:1" fill="#697b8c" d="M 194.5,226.5 C 190.955,238.375 192.455,249.708 199,260.5C 199.816,261.823 200.983,262.489 202.5,262.5C 194.754,273.36 184.587,276.693 172,272.5C 172.787,263.205 170.954,254.538 166.5,246.5C 174.768,238.364 184.102,231.697 194.5,226.5 Z"/></g>
<g><path style="opacity:1" fill="#8495a4" d="M 361.5,340.5 C 359.26,339.432 357.426,337.766 356,335.5C 349.021,324.063 344.521,311.73 342.5,298.5C 352.691,291.988 363.524,286.655 375,282.5C 379.656,285.819 384.323,289.152 389,292.5C 389.667,293.5 389.667,294.5 389,295.5C 374.223,307.051 365.056,322.051 361.5,340.5 Z"/></g>
<g><path style="opacity:1" fill="#697a8b" d="M 342.5,298.5 C 344.521,311.73 349.021,324.063 356,335.5C 357.426,337.766 359.26,339.432 361.5,340.5C 360.054,341.613 358.387,341.78 356.5,341C 342.081,334.081 331.081,323.581 323.5,309.5C 330.024,306.074 336.358,302.408 342.5,298.5 Z"/></g>
<g><path style="opacity:1" fill="#6a7b8c" d="M 154.5,344.5 C 161.482,345.124 168.482,345.624 175.5,346C 183.5,349.333 191.5,352.667 199.5,356C 205.696,361.663 207.196,368.497 204,376.5C 200.997,383.169 196.831,389.002 191.5,394C 188.783,396.076 185.783,396.743 182.5,396C 168.546,389.376 159.713,378.543 156,363.5C 154.812,357.222 154.312,350.888 154.5,344.5 Z"/></g>
</svg>
