<?xml version="1.0" encoding="UTF-8"?>
<!DOCTYPE svg PUBLIC "-//W3C//DTD SVG 1.1//EN" "http://www.w3.org/Graphics/SVG/1.1/DTD/svg11.dtd">
<svg xmlns="http://www.w3.org/2000/svg" version="1.1" width="512px" height="512px" style="shape-rendering:geometricPrecision; text-rendering:geometricPrecision; image-rendering:optimizeQuality; fill-rule:evenodd; clip-rule:evenodd" xmlns:xlink="http://www.w3.org/1999/xlink">
<g><path style="opacity:0.97" fill="#fdbeb9" d="M 258.5,4.5 C 260.288,4.21478 261.955,4.54811 263.5,5.5C 270.433,14.2642 276.767,23.4309 282.5,33C 276.104,42.9655 269.104,52.4655 261.5,61.5C 250.833,57.8333 240.167,54.1667 229.5,50.5C 228.167,38.5 228.167,26.5 229.5,14.5C 239.403,11.5334 249.07,8.20008 258.5,4.5 Z"/></g>
<g><path style="opacity:0.967" fill="#fdbdb8" d="M 163.5,63.5 C 174.954,73.1198 185.62,83.6198 195.5,95C 185.667,106.167 175.167,116.667 164,126.5C 153.028,116.695 142.528,106.361 132.5,95.5C 142.855,84.8127 153.188,74.146 163.5,63.5 Z"/></g>
<g><path style="opacity:0.967" fill="#fdbdb8" d="M 345.5,63.5 C 357.093,73.4248 368.093,84.0914 378.5,95.5C 368.472,106.361 357.972,116.695 347,126.5C 335.833,116.667 325.333,106.167 315.5,95C 325.326,84.3401 335.326,73.8401 345.5,63.5 Z"/></g>
<g><path style="opacity:0.68" fill="#042a75" d="M 279.5,138.5 C 263.5,135.833 247.5,135.833 231.5,138.5C 234.577,137.144 237.91,136.311 241.5,136C 250.833,135.333 260.167,135.333 269.5,136C 273.09,136.311 276.423,137.144 279.5,138.5 Z"/></g>
<g><path style="opacity:1" fill="#020103" d="M 279.5,138.5 C 281.515,139.924 283.848,140.59 286.5,140.5C 287.791,140.263 288.791,140.596 289.5,141.5C 301.291,146.894 312.291,153.561 322.5,161.5C 324.833,164.5 327.5,167.167 330.5,169.5C 331.5,169.833 332.167,170.5 332.5,171.5C 338.109,178.778 344.442,185.444 351.5,191.5C 352.5,191.833 353.167,192.5 353.5,193.5C 359.443,201.111 366.109,208.111 373.5,214.5C 374.5,214.833 375.167,215.5 375.5,216.5C 381.443,224.111 388.109,231.111 395.5,237.5C 396.167,237.5 396.5,237.833 396.5,238.5C 402.443,246.111 409.109,253.111 416.5,259.5C 417.5,259.833 418.167,260.5 418.5,261.5C 424.443,269.111 431.109,276.111 438.5,282.5C 439.5,282.833 440.167,283.5 440.5,284.5C 446.109,291.778 452.442,298.444 459.5,304.5C 460.5,304.833 461.167,305.5 461.5,306.5C 463.557,310.067 466.223,313.234 469.5,316C 480.833,316.333 492.167,316.667 503.5,317C 505.848,317.346 507.681,318.513 509,320.5C 510.104,324.72 510.604,329.053 510.5,333.5C 510.245,341.873 509.578,350.206 508.5,358.5C 504.728,374.15 499.728,389.483 493.5,404.5C 493.008,406.819 492.008,408.819 490.5,410.5C 488.412,412.336 487.079,414.669 486.5,417.5C 484.05,419.629 482.383,422.296 481.5,425.5C 481.573,427.027 480.906,428.027 479.5,428.5C 475.738,431.929 472.738,435.929 470.5,440.5C 467.097,442.9 464.43,445.9 462.5,449.5C 460.833,453.167 458.167,455.833 454.5,457.5C 451.437,459.051 448.771,461.218 446.5,464C 446.728,464.399 447.062,464.565 447.5,464.5C 447.158,465.338 446.492,465.672 445.5,465.5C 440.929,467.738 436.929,470.738 433.5,474.5C 433.027,475.906 432.027,476.573 430.5,476.5C 427.296,477.383 424.629,479.05 422.5,481.5C 419.008,482.41 416.008,484.076 413.5,486.5C 412.486,487.674 411.153,488.34 409.5,488.5C 394.483,494.728 379.15,499.728 363.5,503.5C 352.701,504.65 342.034,505.65 331.5,506.5C 280.833,506.5 230.167,506.5 179.5,506.5C 171.005,505.543 162.338,504.877 153.5,504.5C 151.265,504.795 149.265,504.461 147.5,503.5C 142.053,501.723 136.386,500.39 130.5,499.5C 125.784,497.261 120.784,495.595 115.5,494.5C 111.123,491.982 106.456,489.982 101.5,488.5C 99.847,488.34 98.5137,487.674 97.5,486.5C 94.9922,484.076 91.9922,482.41 88.5,481.5C 86.3709,479.05 83.7043,477.383 80.5,476.5C 78.9731,476.573 77.9731,475.906 77.5,474.5C 74.0711,470.738 70.0711,467.738 65.5,465.5C 63.4309,462.427 60.7642,460.094 57.5,458.5C 53.1667,456.167 49.8333,452.833 47.5,448.5C 45.9059,445.236 43.5725,442.569 40.5,440.5C 38.2624,435.929 35.2624,431.929 31.5,428.5C 28.4208,425.35 26.0875,421.683 24.5,417.5C 23.9213,414.669 22.588,412.336 20.5,410.5C 18.659,408.151 17.3257,405.485 16.5,402.5C 8.52964,383.954 3.36297,364.621 1,344.5C 0.333333,337.167 0.333333,329.833 1,322.5C 2.25985,319.572 4.42651,317.739 7.5,317C 18.8333,316.667 30.1667,316.333 41.5,316C 44.7768,313.234 47.4434,310.067 49.5,306.5C 49.8333,305.5 50.5,304.833 51.5,304.5C 58.5577,298.444 64.8911,291.778 70.5,284.5C 70.8333,283.5 71.5,282.833 72.5,282.5C 79.8906,276.111 86.5573,269.111 92.5,261.5C 92.8333,260.5 93.5,259.833 94.5,259.5C 101.891,253.111 108.557,246.111 114.5,238.5C 114.833,237.5 115.5,236.833 116.5,236.5C 123.558,230.444 129.891,223.778 135.5,216.5C 135.833,215.5 136.5,214.833 137.5,214.5C 144.891,208.111 151.557,201.111 157.5,193.5C 157.833,192.5 158.5,191.833 159.5,191.5C 166.891,185.111 173.557,178.111 179.5,170.5C 179.5,169.833 179.833,169.5 180.5,169.5C 183.5,167.167 186.167,164.5 188.5,161.5C 197.162,154.499 206.495,148.499 216.5,143.5C 220.948,140.464 225.948,138.798 231.5,138.5C 247.5,135.833 263.5,135.833 279.5,138.5 Z"/></g>
<g><path style="opacity:0.637" fill="#042a74" d="M 279.5,138.5 C 282.152,138.41 284.485,139.076 286.5,140.5C 283.848,140.59 281.515,139.924 279.5,138.5 Z"/></g>
<g><path style="opacity:0.66" fill="#07266f" d="M 216.5,143.5 C 206.495,148.499 197.162,154.499 188.5,161.5C 196.171,152.993 205.504,146.993 216.5,143.5 Z"/></g>
<g><path style="opacity:0.818" fill="#072771" d="M 289.5,141.5 C 296.973,143.569 303.973,146.736 310.5,151C 315.134,153.811 319.134,157.311 322.5,161.5C 312.291,153.561 301.291,146.894 289.5,141.5 Z"/></g>
<g><path style="opacity:1" fill="#fc7c9f" d="M 257.5,155.5 C 214.958,200.099 195.292,253.432 198.5,315.5C 155.33,315.832 112.33,315.499 69.5,314.5C 70.9387,312.64 72.6053,310.973 74.5,309.5C 76.8333,307.833 78.8333,305.833 80.5,303.5C 85.5279,298.14 90.5279,292.807 95.5,287.5C 97.8333,285.833 99.8333,283.833 101.5,281.5C 106.861,275.807 112.195,270.14 117.5,264.5C 120.243,262.761 122.243,260.427 123.5,257.5C 128.86,252.806 133.86,247.806 138.5,242.5C 141.167,240.5 143.5,238.167 145.5,235.5C 150.528,230.14 155.528,224.807 160.5,219.5C 163.167,217.5 165.5,215.167 167.5,212.5C 172.528,207.14 177.528,201.807 182.5,196.5C 185.243,194.761 187.243,192.427 188.5,189.5C 196.74,181.088 205.407,173.255 214.5,166C 221.009,163.574 227.342,160.907 233.5,158C 241.375,155.985 249.375,155.152 257.5,155.5 Z"/></g>
<g><path style="opacity:1" fill="#fcbdb8" d="M 257.5,155.5 C 275.294,156.266 291.294,162.099 305.5,173C 351.429,219.759 396.762,266.925 441.5,314.5C 360.668,315.499 279.668,315.833 198.5,315.5C 195.292,253.432 214.958,200.099 257.5,155.5 Z"/></g>
<g><path style="opacity:0.643" fill="#0a1d66" d="M 188.5,161.5 C 186.167,164.5 183.5,167.167 180.5,169.5C 182.167,165.833 184.833,163.167 188.5,161.5 Z"/></g>
<g><path style="opacity:0.635" fill="#091d6a" d="M 322.5,161.5 C 326.167,163.167 328.833,165.833 330.5,169.5C 327.5,167.167 324.833,164.5 322.5,161.5 Z"/></g>
<g><path style="opacity:0.591" fill="#042a75" d="M 332.5,171.5 C 339.558,177.556 345.891,184.222 351.5,191.5C 344.442,185.444 338.109,178.778 332.5,171.5 Z"/></g>
<g><path style="opacity:0.804" fill="#062671" d="M 179.5,170.5 C 173.557,178.111 166.891,185.111 159.5,191.5C 165.443,183.889 172.109,176.889 179.5,170.5 Z"/></g>
<g><path style="opacity:1" fill="#7a4b87" d="M 188.5,189.5 C 187.243,192.427 185.243,194.761 182.5,196.5C 183.757,193.573 185.757,191.239 188.5,189.5 Z"/></g>
<g><path style="opacity:0.569" fill="#08266e" d="M 157.5,193.5 C 151.557,201.111 144.891,208.111 137.5,214.5C 143.443,206.889 150.109,199.889 157.5,193.5 Z"/></g>
<g><path style="opacity:0.498" fill="#062872" d="M 353.5,193.5 C 360.891,199.889 367.557,206.889 373.5,214.5C 366.109,208.111 359.443,201.111 353.5,193.5 Z"/></g>
<g><path style="opacity:0.658" fill="#052973" d="M 135.5,216.5 C 129.891,223.778 123.558,230.444 116.5,236.5C 122.109,229.222 128.442,222.556 135.5,216.5 Z"/></g>
<g><path style="opacity:1" fill="#774b87" d="M 167.5,212.5 C 165.5,215.167 163.167,217.5 160.5,219.5C 161.833,216.167 164.167,213.833 167.5,212.5 Z"/></g>
<g><path style="opacity:0.623" fill="#052973" d="M 375.5,216.5 C 382.891,222.889 389.557,229.889 395.5,237.5C 388.109,231.111 381.443,224.111 375.5,216.5 Z"/></g>
<g><path style="opacity:1" fill="#fd7fa0" d="M 298.5,224.5 C 311.727,224.465 315.394,230.298 309.5,242C 302.415,246.292 296.915,244.792 293,237.5C 292.114,231.946 293.947,227.613 298.5,224.5 Z"/></g>
<g><path style="opacity:1" fill="#754a86" d="M 145.5,235.5 C 143.5,238.167 141.167,240.5 138.5,242.5C 139.833,239.167 142.167,236.833 145.5,235.5 Z"/></g>
<g><path style="opacity:0.614" fill="#052873" d="M 114.5,238.5 C 108.557,246.111 101.891,253.111 94.5,259.5C 100.443,251.889 107.109,244.889 114.5,238.5 Z"/></g>
<g><path style="opacity:0.492" fill="#042874" d="M 396.5,238.5 C 403.891,244.889 410.557,251.889 416.5,259.5C 409.109,253.111 402.443,246.111 396.5,238.5 Z"/></g>
<g><path style="opacity:1" fill="#784b87" d="M 123.5,257.5 C 122.243,260.427 120.243,262.761 117.5,264.5C 118.757,261.573 120.757,259.239 123.5,257.5 Z"/></g>
<g><path style="opacity:1" fill="#fd7ea0" d="M 274.5,266.5 C 284.543,265.378 289.043,269.712 288,279.5C 284.431,286.678 279.265,288.178 272.5,284C 266.701,277.312 267.368,271.479 274.5,266.5 Z"/></g>
<g><path style="opacity:1" fill="#fd7fa0" d="M 322.5,266.5 C 335.876,266.361 339.542,272.194 333.5,284C 326.084,288.046 320.584,286.213 317,278.5C 316.413,273.344 318.246,269.344 322.5,266.5 Z"/></g>
<g><path style="opacity:0.567" fill="#08276e" d="M 92.5,261.5 C 86.5573,269.111 79.8906,276.111 72.5,282.5C 78.4427,274.889 85.1094,267.889 92.5,261.5 Z"/></g>
<g><path style="opacity:0.816" fill="#062873" d="M 418.5,261.5 C 425.891,267.889 432.557,274.889 438.5,282.5C 431.109,276.111 424.443,269.111 418.5,261.5 Z"/></g>
<g><path style="opacity:0.624" fill="#042a75" d="M 440.5,284.5 C 447.558,290.556 453.891,297.222 459.5,304.5C 452.442,298.444 446.109,291.778 440.5,284.5 Z"/></g>
<g><path style="opacity:1" fill="#754a87" d="M 101.5,281.5 C 99.8333,283.833 97.8333,285.833 95.5,287.5C 96.5,284.5 98.5,282.5 101.5,281.5 Z"/></g>
<g><path style="opacity:0.788" fill="#052771" d="M 70.5,284.5 C 64.8911,291.778 58.5577,298.444 51.5,304.5C 57.1089,297.222 63.4423,290.556 70.5,284.5 Z"/></g>
<g><path style="opacity:1" fill="#794c87" d="M 80.5,303.5 C 78.8333,305.833 76.8333,307.833 74.5,309.5C 75.5,306.5 77.5,304.5 80.5,303.5 Z"/></g>
<g><path style="opacity:0.482" fill="#052a74" d="M 461.5,306.5 C 464.631,309.129 467.631,311.962 470.5,315C 481.833,315.333 493.167,315.667 504.5,316C 507.598,316.938 509.931,318.772 511.5,321.5C 511.5,329.5 511.5,337.5 511.5,345.5C 510.743,349.881 509.743,354.214 508.5,358.5C 509.578,350.206 510.245,341.873 510.5,333.5C 510.604,329.053 510.104,324.72 509,320.5C 507.681,318.513 505.848,317.346 503.5,317C 492.167,316.667 480.833,316.333 469.5,316C 466.223,313.234 463.557,310.067 461.5,306.5 Z"/></g>
<g><path style="opacity:1" fill="#87568b" d="M 69.5,314.5 C 112.33,315.499 155.33,315.832 198.5,315.5C 198.5,315.833 198.5,316.167 198.5,316.5C 154.832,316.667 111.165,316.5 67.5,316C 68.0442,315.283 68.7109,314.783 69.5,314.5 Z"/></g>
<g><path style="opacity:1" fill="#887899" d="M 441.5,314.5 C 442.289,314.783 442.956,315.283 443.5,316C 361.834,316.5 280.167,316.667 198.5,316.5C 198.5,316.167 198.5,315.833 198.5,315.5C 279.668,315.833 360.668,315.499 441.5,314.5 Z"/></g>
<g><path style="opacity:0.723" fill="#052973" d="M 49.5,306.5 C 47.4434,310.067 44.7768,313.234 41.5,316C 30.1667,316.333 18.8333,316.667 7.5,317C 4.42651,317.739 2.25985,319.572 1,322.5C 0.333333,329.833 0.333333,337.167 1,344.5C 3.36297,364.621 8.52964,383.954 16.5,402.5C 7.57326,384.457 1.9066,365.457 -0.5,345.5C -0.5,337.5 -0.5,329.5 -0.5,321.5C 1.06914,318.772 3.40247,316.938 6.5,316C 17.8333,315.667 29.1667,315.333 40.5,315C 43.3694,311.962 46.3694,309.129 49.5,306.5 Z"/></g>
<g><path style="opacity:1" fill="#675146" d="M 171.5,335.5 C 171.5,335.833 171.5,336.167 171.5,336.5C 121.167,336.5 70.8333,336.5 20.5,336.5C 20.5,337.833 20.5,339.167 20.5,340.5C 19.5489,339.081 19.2155,337.415 19.5,335.5C 70.1667,335.5 120.833,335.5 171.5,335.5 Z"/></g>
<g><path style="opacity:1" fill="#676966" d="M 171.5,336.5 C 171.5,336.167 171.5,335.833 171.5,335.5C 278.167,335.5 384.833,335.5 491.5,335.5C 491.806,338.385 491.473,341.052 490.5,343.5C 490.5,341.167 490.5,338.833 490.5,336.5C 384.167,336.5 277.833,336.5 171.5,336.5 Z"/></g>
<g><path style="opacity:1" fill="#fc8e01" d="M 171.5,336.5 C 172.11,397.709 195.777,447.709 242.5,486.5C 217.164,486.667 191.831,486.5 166.5,486C 97.4566,476.949 50.9566,439.783 27,374.5C 23.4892,363.425 21.3225,352.091 20.5,340.5C 20.5,339.167 20.5,337.833 20.5,336.5C 70.8333,336.5 121.167,336.5 171.5,336.5 Z"/></g>
<g><path style="opacity:1" fill="#fcca4f" d="M 171.5,336.5 C 277.833,336.5 384.167,336.5 490.5,336.5C 490.5,338.833 490.5,341.167 490.5,343.5C 480.562,409.271 444.562,454.104 382.5,478C 372.052,481.373 361.385,483.706 350.5,485C 314.522,486.424 278.522,486.924 242.5,486.5C 195.777,447.709 172.11,397.709 171.5,336.5 Z"/></g>
<g><path style="opacity:0.69" fill="#062871" d="M 508.5,358.5 C 506.278,374.83 501.278,390.163 493.5,404.5C 499.728,389.483 504.728,374.15 508.5,358.5 Z"/></g>
<g><path style="opacity:0.63" fill="#042975" d="M 20.5,410.5 C 22.588,412.336 23.9213,414.669 24.5,417.5C 22.412,415.664 21.0787,413.331 20.5,410.5 Z"/></g>
<g><path style="opacity:0.696" fill="#032a74" d="M 490.5,410.5 C 489.921,413.331 488.588,415.664 486.5,417.5C 487.079,414.669 488.412,412.336 490.5,410.5 Z"/></g>
<g><path style="opacity:0.585" fill="#042974" d="M 486.5,417.5 C 485.617,420.704 483.95,423.371 481.5,425.5C 482.383,422.296 484.05,419.629 486.5,417.5 Z"/></g>
<g><path style="opacity:0.537" fill="#07256f" d="M 479.5,428.5 C 477.262,433.071 474.262,437.071 470.5,440.5C 472.738,435.929 475.738,431.929 479.5,428.5 Z"/></g>
<g><path style="opacity:0.937" fill="#052b76" d="M 31.5,428.5 C 35.2624,431.929 38.2624,435.929 40.5,440.5C 36.7376,437.071 33.7376,433.071 31.5,428.5 Z"/></g>
<g><path style="opacity:0.652" fill="#052675" d="M 40.5,440.5 C 43.5725,442.569 45.9059,445.236 47.5,448.5C 44.4275,446.431 42.0941,443.764 40.5,440.5 Z"/></g>
<g><path style="opacity:0.149" fill="#052775" d="M 470.5,440.5 C 468.57,444.1 465.903,447.1 462.5,449.5C 464.43,445.9 467.097,442.9 470.5,440.5 Z"/></g>
<g><path style="opacity:0.667" fill="#042874" d="M 454.5,457.5 C 452.5,460.167 450.167,462.5 447.5,464.5C 447.062,464.565 446.728,464.399 446.5,464C 448.771,461.218 451.437,459.051 454.5,457.5 Z"/></g>
<g><path style="opacity:0.65" fill="#052775" d="M 57.5,458.5 C 60.7642,460.094 63.4309,462.427 65.5,465.5C 62.2358,463.906 59.5691,461.573 57.5,458.5 Z"/></g>
<g><path style="opacity:0.118" fill="#052874" d="M 445.5,465.5 C 442.071,469.262 438.071,472.262 433.5,474.5C 436.929,470.738 440.929,467.738 445.5,465.5 Z"/></g>
<g><path style="opacity:0.531" fill="#062771" d="M 65.5,465.5 C 70.0711,467.738 74.0711,470.738 77.5,474.5C 72.9289,472.262 68.9289,469.262 65.5,465.5 Z"/></g>
<g><path style="opacity:0.673" fill="#042a75" d="M 80.5,476.5 C 83.7043,477.383 86.3709,479.05 88.5,481.5C 85.2957,480.617 82.6291,478.95 80.5,476.5 Z"/></g>
<g><path style="opacity:0.606" fill="#042874" d="M 430.5,476.5 C 428.371,478.95 425.704,480.617 422.5,481.5C 424.629,479.05 427.296,477.383 430.5,476.5 Z"/></g>
<g><path style="opacity:0.656" fill="#042a75" d="M 88.5,481.5 C 91.9922,482.41 94.9922,484.076 97.5,486.5C 94.0078,485.59 91.0078,483.924 88.5,481.5 Z"/></g>
<g><path style="opacity:0.648" fill="#042a74" d="M 422.5,481.5 C 419.992,483.924 416.992,485.59 413.5,486.5C 416.008,484.076 419.008,482.41 422.5,481.5 Z"/></g>
<g><path style="opacity:0.558" fill="#052776" d="M 101.5,488.5 C 106.456,489.982 111.123,491.982 115.5,494.5C 110.311,493.568 105.644,491.568 101.5,488.5 Z"/></g>
<g><path style="opacity:0.684" fill="#042975" d="M 115.5,494.5 C 120.784,495.595 125.784,497.261 130.5,499.5C 125.085,498.806 120.085,497.14 115.5,494.5 Z"/></g>
<g><path style="opacity:0.627" fill="#062872" d="M 409.5,488.5 C 395.163,496.278 379.83,501.278 363.5,503.5C 379.15,499.728 394.483,494.728 409.5,488.5 Z"/></g>
<g><path style="opacity:0.648" fill="#052974" d="M 130.5,499.5 C 136.386,500.39 142.053,501.723 147.5,503.5C 141.472,503.242 135.806,501.908 130.5,499.5 Z"/></g>
<g><path style="opacity:0.713" fill="#052975" d="M 153.5,504.5 C 162.338,504.877 171.005,505.543 179.5,506.5C 170.6,506.912 161.933,506.246 153.5,504.5 Z"/></g>
<g><path style="opacity:0.713" fill="#062872" d="M 363.5,503.5 C 353.125,506.035 342.459,507.035 331.5,506.5C 342.034,505.65 352.701,504.65 363.5,503.5 Z"/></g>
</svg>
