<?xml version="1.0" encoding="UTF-8"?>
<!DOCTYPE svg PUBLIC "-//W3C//DTD SVG 1.1//EN" "http://www.w3.org/Graphics/SVG/1.1/DTD/svg11.dtd">
<svg xmlns="http://www.w3.org/2000/svg" version="1.1" width="512px" height="512px" style="shape-rendering:geometricPrecision; text-rendering:geometricPrecision; image-rendering:optimizeQuality; fill-rule:evenodd; clip-rule:evenodd" xmlns:xlink="http://www.w3.org/1999/xlink">
<g><path style="opacity:0.971" fill="#010100" d="M 205.5,-0.5 C 239.167,-0.5 272.833,-0.5 306.5,-0.5C 313.351,2.19081 317.518,7.19081 319,14.5C 319.667,30.5 319.667,46.5 319,62.5C 316.264,71.7368 310.097,76.7368 300.5,77.5C 302.1,115.175 303.934,152.841 306,190.5C 307.593,208.069 315.759,221.569 330.5,231C 343.089,242.007 350.589,255.84 353,272.5C 356.209,342.34 359.375,412.173 362.5,482C 361.714,496.452 354.714,506.286 341.5,511.5C 284.167,511.5 226.833,511.5 169.5,511.5C 159.45,507.945 152.95,500.945 150,490.5C 150.751,434.797 152.751,379.13 156,323.5C 157.571,321.077 159.737,319.744 162.5,319.5C 168.883,320.983 171.216,324.983 169.5,331.5C 166.834,383.481 165.001,435.481 164,487.5C 165.779,491.612 168.612,494.778 172.5,497C 223.499,497.5 274.499,497.667 325.5,497.5C 335.47,499.803 342.637,496.47 347,487.5C 345.36,416.472 342.693,345.472 339,274.5C 337.317,265.802 333.983,257.802 329,250.5C 322.378,243.699 315.378,237.366 308,231.5C 300.891,222.616 295.891,212.616 293,201.5C 291.172,188.897 290.339,176.231 290.5,163.5C 284.5,163.5 278.5,163.5 272.5,163.5C 255.167,163.5 237.833,163.5 220.5,163.5C 221.445,180.608 219.278,197.274 214,213.5C 209.027,224.8 201.527,233.966 191.5,241C 175.208,255.863 168.375,274.363 171,296.5C 169.563,299.708 167.063,301.375 163.5,301.5C 158.62,300.608 156.287,297.608 156.5,292.5C 155.519,272.402 161.019,254.402 173,238.5C 180,232.167 187,225.833 194,219.5C 198.95,212.932 202.283,205.599 204,197.5C 206.898,157.548 209.064,117.548 210.5,77.5C 200.037,76.5382 193.871,70.8715 192,60.5C 191.333,45.5 191.333,30.5 192,15.5C 193.849,7.82552 198.349,2.49218 205.5,-0.5 Z"/></g>
<g><path style="opacity:1" fill="#e6e6e6" d="M 286.5,13.5 C 287.833,29.8333 287.833,46.1667 286.5,62.5C 260.498,62.6666 234.498,62.5 208.5,62C 208,61.5 207.5,61 207,60.5C 206.333,45.5 206.333,30.5 207,15.5C 207.75,14.8742 208.584,14.3742 209.5,14C 235.165,13.5 260.831,13.3334 286.5,13.5 Z"/></g>
<g><path style="opacity:1" fill="#c8c8c8" d="M 286.5,13.5 C 291.844,13.334 297.177,13.5006 302.5,14C 303,14.5 303.5,15 304,15.5C 305.135,23.0673 305.635,30.7339 305.5,38.5C 305.333,45.5 305.167,52.5 305,59.5C 304.167,60.3333 303.333,61.1667 302.5,62C 297.177,62.4994 291.844,62.666 286.5,62.5C 287.833,46.1667 287.833,29.8333 286.5,13.5 Z"/></g>
<g><path style="opacity:1" fill="#fe5e00" d="M 225.5,77.5 C 239.833,77.5 254.167,77.5 268.5,77.5C 268.5,84.1667 268.5,90.8333 268.5,97.5C 253.833,97.5 239.167,97.5 224.5,97.5C 224.612,90.8198 224.946,84.1531 225.5,77.5 Z"/></g>
<g><path style="opacity:1" fill="#e55000" d="M 225.5,77.5 C 245.329,76.3375 265.329,76.1709 285.5,77C 286.48,84.0787 286.813,91.2454 286.5,98.5C 265.66,98.8305 244.993,98.4972 224.5,97.5C 239.167,97.5 253.833,97.5 268.5,97.5C 268.5,90.8333 268.5,84.1667 268.5,77.5C 254.167,77.5 239.833,77.5 225.5,77.5 Z"/></g>
<g><path style="opacity:1" fill="#d3f1f5" d="M 270.5,112.5 C 271.045,124.826 271.378,137.16 271.5,149.5C 254.833,149.5 238.167,149.5 221.5,149.5C 222.19,137.172 222.857,124.838 223.5,112.5C 239.167,112.5 254.833,112.5 270.5,112.5 Z"/></g>
<g><path style="opacity:1" fill="#ace7ef" d="M 270.5,112.5 C 276.167,112.5 281.833,112.5 287.5,112.5C 288.194,124.83 288.861,137.164 289.5,149.5C 283.5,149.5 277.5,149.5 271.5,149.5C 271.378,137.16 271.045,124.826 270.5,112.5 Z"/></g>
<g><path style="opacity:1" fill="#fc5d00" d="M 272.5,163.5 C 271.714,180.703 274.214,197.37 280,213.5C 282,216.833 284,220.167 286,223.5C 292.622,230.301 299.622,236.634 307,242.5C 317.058,254.176 321.558,267.509 320.5,282.5C 319.527,282.013 318.527,281.513 317.5,281C 309.507,280.5 301.507,280.334 293.5,280.5C 288.976,259.652 275.976,248.986 254.5,248.5C 234.116,249.886 221.782,260.552 217.5,280.5C 209.493,280.334 201.493,280.5 193.5,281C 190.667,282.5 188.5,284.667 187,287.5C 184.349,350.497 182.349,413.497 181,476.5C 181.73,480.896 184.23,483.73 188.5,485C 214.5,485.667 240.5,485.667 266.5,485C 269.492,483.728 271.159,481.562 271.5,478.5C 278.167,478.5 284.833,478.5 291.5,478.5C 291.444,481.561 292.778,483.728 295.5,485C 304.167,485.667 312.833,485.667 321.5,485C 324.547,484.484 326.88,482.984 328.5,480.5C 329.634,482.966 329.801,485.633 329,488.5C 328.111,491.676 326.945,494.676 325.5,497.5C 274.499,497.667 223.499,497.5 172.5,497C 168.612,494.778 165.779,491.612 164,487.5C 165.001,435.481 166.834,383.481 169.5,331.5C 171.216,324.983 168.883,320.983 162.5,319.5C 163.074,313.516 163.407,307.516 163.5,301.5C 167.063,301.375 169.563,299.708 171,296.5C 168.375,274.363 175.208,255.863 191.5,241C 201.527,233.966 209.027,224.8 214,213.5C 219.278,197.274 221.445,180.608 220.5,163.5C 237.833,163.5 255.167,163.5 272.5,163.5 Z"/></g>
<g><path style="opacity:1" fill="#eb5100" d="M 272.5,163.5 C 278.5,163.5 284.5,163.5 290.5,163.5C 290.339,176.231 291.172,188.897 293,201.5C 295.891,212.616 300.891,222.616 308,231.5C 315.378,237.366 322.378,243.699 329,250.5C 333.983,257.802 337.317,265.802 339,274.5C 342.693,345.472 345.36,416.472 347,487.5C 342.637,496.47 335.47,499.803 325.5,497.5C 326.945,494.676 328.111,491.676 329,488.5C 329.801,485.633 329.634,482.966 328.5,480.5C 330.043,475.681 330.709,470.681 330.5,465.5C 328.444,406.162 326.278,346.829 324,287.5C 323.003,285.677 321.836,284.01 320.5,282.5C 321.558,267.509 317.058,254.176 307,242.5C 299.622,236.634 292.622,230.301 286,223.5C 284,220.167 282,216.833 280,213.5C 274.214,197.37 271.714,180.703 272.5,163.5 Z"/></g>
<g><path style="opacity:1" fill="#060404" d="M 320.5,282.5 C 321.836,284.01 323.003,285.677 324,287.5C 326.278,346.829 328.444,406.162 330.5,465.5C 330.709,470.681 330.043,475.681 328.5,480.5C 326.88,482.984 324.547,484.484 321.5,485C 312.833,485.667 304.167,485.667 295.5,485C 292.778,483.728 291.444,481.561 291.5,478.5C 291.178,476.278 291.845,474.444 293.5,473C 297.363,471.646 301.363,471.146 305.5,471.5C 309.167,471.5 312.833,471.5 316.5,471.5C 314.146,412.52 312.48,353.52 311.5,294.5C 304.492,294.666 297.492,294.5 290.5,294C 288.5,293 286.5,292 284.5,291C 281.666,284.867 278.833,278.701 276,272.5C 268.844,263.747 259.677,260.58 248.5,263C 245.316,263.754 242.649,265.254 240.5,267.5C 234.331,271.859 230.831,277.859 230,285.5C 228.412,290.052 225.245,292.885 220.5,294C 213.508,294.5 206.508,294.666 199.5,294.5C 198.603,353.523 196.937,412.523 194.5,471.5C 218.502,471.333 242.502,471.5 266.5,472C 269.493,473.159 271.16,475.325 271.5,478.5C 271.159,481.562 269.492,483.728 266.5,485C 240.5,485.667 214.5,485.667 188.5,485C 184.23,483.73 181.73,480.896 181,476.5C 182.349,413.497 184.349,350.497 187,287.5C 188.5,284.667 190.667,282.5 193.5,281C 201.493,280.5 209.493,280.334 217.5,280.5C 221.782,260.552 234.116,249.886 254.5,248.5C 275.976,248.986 288.976,259.652 293.5,280.5C 301.507,280.334 309.507,280.5 317.5,281C 318.527,281.513 319.527,282.013 320.5,282.5 Z"/></g>
<g><path style="opacity:1" fill="#ade7ef" d="M 305.5,471.5 C 304.88,417.124 303.047,362.791 300,308.5C 299.5,308 299,307.5 298.5,307C 291.833,306.667 285.167,306.333 278.5,306C 275.898,305.117 273.731,303.617 272,301.5C 270.462,290.257 265.629,280.757 257.5,273C 252.214,269.849 246.548,268.015 240.5,267.5C 242.649,265.254 245.316,263.754 248.5,263C 259.677,260.58 268.844,263.747 276,272.5C 278.833,278.701 281.666,284.867 284.5,291C 286.5,292 288.5,293 290.5,294C 297.492,294.5 304.492,294.666 311.5,294.5C 312.48,353.52 314.146,412.52 316.5,471.5C 312.833,471.5 309.167,471.5 305.5,471.5 Z"/></g>
<g><path style="opacity:1" fill="#d4f2f6" d="M 240.5,267.5 C 246.548,268.015 252.214,269.849 257.5,273C 265.629,280.757 270.462,290.257 272,301.5C 273.731,303.617 275.898,305.117 278.5,306C 285.167,306.333 291.833,306.667 298.5,307C 299,307.5 299.5,308 300,308.5C 303.047,362.791 304.88,417.124 305.5,471.5C 301.363,471.146 297.363,471.646 293.5,473C 291.845,474.444 291.178,476.278 291.5,478.5C 284.833,478.5 278.167,478.5 271.5,478.5C 271.16,475.325 269.493,473.159 266.5,472C 242.502,471.5 218.502,471.333 194.5,471.5C 196.937,412.523 198.603,353.523 199.5,294.5C 206.508,294.666 213.508,294.5 220.5,294C 225.245,292.885 228.412,290.052 230,285.5C 230.831,277.859 234.331,271.859 240.5,267.5 Z"/></g>
</svg>
