<?xml version="1.0" encoding="UTF-8"?>
<!DOCTYPE svg PUBLIC "-//W3C//DTD SVG 1.1//EN" "http://www.w3.org/Graphics/SVG/1.1/DTD/svg11.dtd">
<svg xmlns="http://www.w3.org/2000/svg" version="1.1" width="512px" height="512px" style="shape-rendering:geometricPrecision; text-rendering:geometricPrecision; image-rendering:optimizeQuality; fill-rule:evenodd; clip-rule:evenodd" xmlns:xlink="http://www.w3.org/1999/xlink">
<g><path style="opacity:0.967" fill="#010101" d="M 222.5,-0.5 C 244.5,-0.5 266.5,-0.5 288.5,-0.5C 301.594,5.68647 306.76,16.0198 304,30.5C 300.105,41.5539 292.271,47.5539 280.5,48.5C 280.5,54.1667 280.5,59.8333 280.5,65.5C 290.839,65.3335 301.172,65.5002 311.5,66C 319.087,67.9175 324.587,72.4175 328,79.5C 329.025,87.1301 329.859,94.7968 330.5,102.5C 341.701,109.2 352.201,116.867 362,125.5C 380.987,148.756 384.32,174.089 372,201.5C 364.173,211.819 356.839,222.486 350,233.5C 341.831,252.808 343.164,271.475 354,289.5C 367.332,308.156 379.665,327.489 391,347.5C 394.079,355.893 395.745,364.56 396,373.5C 396.667,406.167 396.667,438.833 396,471.5C 394.159,491.822 383.659,505.156 364.5,511.5C 291.833,511.5 219.167,511.5 146.5,511.5C 130.516,507.015 120.349,496.681 116,480.5C 114.097,464.81 114.097,449.143 116,433.5C 117.638,431.266 119.805,429.933 122.5,429.5C 125.587,430.053 128.087,431.72 130,434.5C 130.048,449.568 130.715,464.568 132,479.5C 135.602,487.883 141.768,493.383 150.5,496C 217.833,496.5 285.166,496.667 352.5,496.5C 366.59,496.573 375.757,489.907 380,476.5C 380.667,439.5 380.667,402.5 380,365.5C 378.799,359.232 376.799,353.232 374,347.5C 360.251,327.675 347.251,307.342 335,286.5C 325.597,261.078 328.264,237.078 343,214.5C 351.967,204.899 358.634,193.899 363,181.5C 366.125,163.992 361.792,148.659 350,135.5C 340.272,127.718 330.105,120.552 319.5,114C 297.169,113.5 274.836,113.333 252.5,113.5C 249.092,112.422 247.092,110.089 246.5,106.5C 246.544,102.91 248.211,100.41 251.5,99C 266.83,98.5001 282.163,98.3334 297.5,98.5C 303.167,98.5 308.833,98.5 314.5,98.5C 314.666,94.4862 314.499,90.4862 314,86.5C 312.833,84 311,82.1667 308.5,81C 272.998,80.169 237.664,80.3357 202.5,81.5C 199.909,82.2543 198.076,83.921 197,86.5C 196.501,90.4862 196.334,94.4862 196.5,98.5C 206.172,98.3335 215.839,98.5002 225.5,99C 229.062,100.308 231.062,102.808 231.5,106.5C 230.999,109.155 229.666,111.322 227.5,113C 214.738,113.038 202.072,113.705 189.5,115C 180.833,121 172.167,127 163.5,133C 146.242,151.131 142.742,171.631 153,194.5C 158.667,202.167 164.333,209.833 170,217.5C 184.987,243.599 185.321,269.932 171,296.5C 157.656,315.189 145.322,334.522 134,354.5C 132.592,358.057 131.592,361.724 131,365.5C 130.667,380.167 130.333,394.833 130,409.5C 128.818,413.023 126.318,415.023 122.5,415.5C 117.939,415.44 115.439,413.107 115,408.5C 114.333,396.833 114.333,385.167 115,373.5C 115.248,359.842 118.914,347.175 126,335.5C 136.333,320.167 146.667,304.833 157,289.5C 167.836,271.475 169.169,252.808 161,233.5C 154.161,222.486 146.827,211.819 139,201.5C 126.68,174.089 130.013,148.756 149,125.5C 158.799,116.867 169.299,109.2 180.5,102.5C 181.141,94.7968 181.975,87.1301 183,79.5C 186.413,72.4175 191.913,67.9175 199.5,66C 209.828,65.5002 220.161,65.3335 230.5,65.5C 230.5,59.8333 230.5,54.1667 230.5,48.5C 210.47,45.1393 202.97,33.4726 208,13.5C 211.257,7.13566 216.091,2.469 222.5,-0.5 Z"/></g>
<g><path style="opacity:1" fill="#d6e0f1" d="M 270.5,14.5 C 274.5,20.5 274.5,26.5 270.5,32.5C 255.83,32.6666 241.163,32.4999 226.5,32C 219.922,26.3029 219.922,20.6363 226.5,15C 241.163,14.5001 255.83,14.3334 270.5,14.5 Z"/></g>
<g><path style="opacity:1" fill="#b7cae6" d="M 270.5,14.5 C 274.846,14.3343 279.179,14.501 283.5,15C 291.159,20.132 291.493,25.7987 284.5,32C 279.845,32.4992 275.179,32.6658 270.5,32.5C 274.5,26.5 274.5,20.5 270.5,14.5 Z"/></g>
<g><path style="opacity:1" fill="#b8cbe8" d="M 246.5,47.5 C 252.5,47.5 258.5,47.5 264.5,47.5C 264.5,53.5 264.5,59.5 264.5,65.5C 258.5,65.5 252.5,65.5 246.5,65.5C 246.5,59.5 246.5,53.5 246.5,47.5 Z"/></g>
<g><path style="opacity:1" fill="#d7e1f1" d="M 202.5,81.5 C 233.833,81.5 265.167,81.5 296.5,81.5C 297.354,87.1209 297.687,92.7876 297.5,98.5C 282.163,98.3334 266.83,98.5001 251.5,99C 248.211,100.41 246.544,102.91 246.5,106.5C 241.5,106.5 236.5,106.5 231.5,106.5C 231.062,102.808 229.062,100.308 225.5,99C 215.839,98.5002 206.172,98.3335 196.5,98.5C 196.334,94.4862 196.501,90.4862 197,86.5C 198.076,83.921 199.909,82.2543 202.5,81.5 Z"/></g>
<g><path style="opacity:1" fill="#b1c1da" d="M 202.5,81.5 C 237.664,80.3357 272.998,80.169 308.5,81C 311,82.1667 312.833,84 314,86.5C 314.499,90.4862 314.666,94.4862 314.5,98.5C 308.833,98.5 303.167,98.5 297.5,98.5C 297.687,92.7876 297.354,87.1209 296.5,81.5C 265.167,81.5 233.833,81.5 202.5,81.5 Z"/></g>
<g><path style="opacity:1" fill="#e6ad40" d="M 231.5,106.5 C 236.5,106.5 241.5,106.5 246.5,106.5C 247.092,110.089 249.092,112.422 252.5,113.5C 271.662,114.332 290.996,114.832 310.5,115C 346.866,135.759 356.033,164.926 338,202.5C 330.163,211.341 323.496,221.008 318,231.5C 311.782,249.605 312.115,267.605 319,285.5C 330.586,305.011 342.92,324.011 356,342.5C 360.071,350.379 362.737,358.712 364,367.5C 364.667,403.167 364.667,438.833 364,474.5C 362.896,483.349 359.063,490.683 352.5,496.5C 285.166,496.667 217.833,496.5 150.5,496C 141.768,493.383 135.602,487.883 132,479.5C 130.715,464.568 130.048,449.568 130,434.5C 128.087,431.72 125.587,430.053 122.5,429.5C 122.5,424.833 122.5,420.167 122.5,415.5C 126.318,415.023 128.818,413.023 130,409.5C 130.333,394.833 130.667,380.167 131,365.5C 131.592,361.724 132.592,358.057 134,354.5C 145.322,334.522 157.656,315.189 171,296.5C 185.321,269.932 184.987,243.599 170,217.5C 164.333,209.833 158.667,202.167 153,194.5C 142.742,171.631 146.242,151.131 163.5,133C 172.167,127 180.833,121 189.5,115C 202.072,113.705 214.738,113.038 227.5,113C 229.666,111.322 230.999,109.155 231.5,106.5 Z"/></g>
<g><path style="opacity:1" fill="#da8c3b" d="M 252.5,113.5 C 274.836,113.333 297.169,113.5 319.5,114C 330.105,120.552 340.272,127.718 350,135.5C 361.792,148.659 366.125,163.992 363,181.5C 358.634,193.899 351.967,204.899 343,214.5C 328.264,237.078 325.597,261.078 335,286.5C 347.251,307.342 360.251,327.675 374,347.5C 376.799,353.232 378.799,359.232 380,365.5C 380.667,402.5 380.667,439.5 380,476.5C 375.757,489.907 366.59,496.573 352.5,496.5C 359.063,490.683 362.896,483.349 364,474.5C 364.667,438.833 364.667,403.167 364,367.5C 362.737,358.712 360.071,350.379 356,342.5C 342.92,324.011 330.586,305.011 319,285.5C 312.115,267.605 311.782,249.605 318,231.5C 323.496,221.008 330.163,211.341 338,202.5C 356.033,164.926 346.866,135.759 310.5,115C 290.996,114.832 271.662,114.332 252.5,113.5 Z"/></g>
<g><path style="opacity:1" fill="#050301" d="M 204.5,148.5 C 237.835,148.333 271.168,148.5 304.5,149C 316.329,151.992 322.996,159.492 324.5,171.5C 320.943,190.396 316.443,209.063 311,227.5C 304.003,231.515 299.503,229.681 297.5,222C 301.255,206.481 305.088,190.981 309,175.5C 310.26,170.186 308.426,166.353 303.5,164C 271.5,163.333 239.5,163.333 207.5,164C 202.055,166.11 200.222,169.944 202,175.5C 205.912,190.981 209.745,206.481 213.5,222C 211.797,229.451 207.464,231.451 200.5,228C 194.664,209.49 189.998,190.657 186.5,171.5C 188.025,160.311 194.025,152.644 204.5,148.5 Z"/></g>
<g><path style="opacity:1" fill="#040302" d="M 197.5,314.5 C 235.501,314.333 273.501,314.5 311.5,315C 320.396,316.895 326.563,322.062 330,330.5C 334.829,371.131 339.329,411.798 343.5,452.5C 343.338,466.156 336.671,474.656 323.5,478C 277.5,478.667 231.5,478.667 185.5,478C 170.671,472.184 164.838,461.351 168,445.5C 172.187,407.15 176.52,368.816 181,330.5C 184.438,322.893 189.938,317.56 197.5,314.5 Z"/></g>
<g><path style="opacity:1" fill="#faf3c5" d="M 297.5,329.5 C 302.59,362.643 306.59,395.976 309.5,429.5C 268.167,429.5 226.833,429.5 185.5,429.5C 185.5,427.833 185.5,426.167 185.5,424.5C 188.19,395.123 191.357,365.789 195,336.5C 195.792,334.413 196.959,332.579 198.5,331C 231.413,329.514 264.413,329.014 297.5,329.5 Z"/></g>
<g><path style="opacity:1" fill="#f4e481" d="M 297.5,329.5 C 301.846,329.334 306.179,329.501 310.5,330C 313.381,331.251 315.214,333.417 316,336.5C 319.643,365.789 322.81,395.123 325.5,424.5C 325.5,426.167 325.5,427.833 325.5,429.5C 320.167,429.5 314.833,429.5 309.5,429.5C 306.59,395.976 302.59,362.643 297.5,329.5 Z"/></g>
<g><path style="opacity:1" fill="#040403" d="M 225.5,347.5 C 245.503,347.333 265.503,347.5 285.5,348C 290.757,350.256 294.257,354.09 296,359.5C 296.667,367.167 296.667,374.833 296,382.5C 294.464,389.369 290.298,393.536 283.5,395C 264.167,395.667 244.833,395.667 225.5,395C 219.836,392.668 216.336,388.501 215,382.5C 214.333,374.833 214.333,367.167 215,359.5C 216.936,354.068 220.436,350.068 225.5,347.5 Z"/></g>
<g><path style="opacity:1" fill="#b8e3a7" d="M 264.5,362.5 C 264.5,368.5 264.5,374.5 264.5,380.5C 252.833,380.5 241.167,380.5 229.5,380.5C 229.5,374.5 229.5,368.5 229.5,362.5C 241.167,362.5 252.833,362.5 264.5,362.5 Z"/></g>
<g><path style="opacity:1" fill="#9bd5a7" d="M 264.5,362.5 C 270.167,362.5 275.833,362.5 281.5,362.5C 281.5,368.5 281.5,374.5 281.5,380.5C 275.833,380.5 270.167,380.5 264.5,380.5C 264.5,374.5 264.5,368.5 264.5,362.5 Z"/></g>
<g><path style="opacity:1" fill="#b4ae88" d="M 185.5,424.5 C 185.5,426.167 185.5,427.833 185.5,429.5C 226.833,429.5 268.167,429.5 309.5,429.5C 314.833,429.5 320.167,429.5 325.5,429.5C 325.5,427.833 325.5,426.167 325.5,424.5C 326.461,426.265 326.795,428.265 326.5,430.5C 279.167,430.5 231.833,430.5 184.5,430.5C 184.205,428.265 184.539,426.265 185.5,424.5 Z"/></g>
<g><path style="opacity:1" fill="#faf3c5" d="M 311.5,445.5 C 312.987,451.605 312.653,457.605 310.5,463.5C 269.832,463.667 229.165,463.5 188.5,463C 186.376,461.878 184.543,460.378 183,458.5C 182.501,454.179 182.334,449.846 182.5,445.5C 225.5,445.5 268.5,445.5 311.5,445.5 Z"/></g>
<g><path style="opacity:1" fill="#f4e481" d="M 311.5,445.5 C 317.167,445.5 322.833,445.5 328.5,445.5C 330.889,459.778 324.889,465.778 310.5,463.5C 312.653,457.605 312.987,451.605 311.5,445.5 Z"/></g>
</svg>
