<?xml version="1.0" encoding="UTF-8"?>
<!DOCTYPE svg PUBLIC "-//W3C//DTD SVG 1.1//EN" "http://www.w3.org/Graphics/SVG/1.1/DTD/svg11.dtd">
<svg xmlns="http://www.w3.org/2000/svg" version="1.1" width="512px" height="512px" style="shape-rendering:geometricPrecision; text-rendering:geometricPrecision; image-rendering:optimizeQuality; fill-rule:evenodd; clip-rule:evenodd" xmlns:xlink="http://www.w3.org/1999/xlink">
<g><path style="opacity:0.987" fill="#020202" d="M 145.5,-0.5 C 218.833,-0.5 292.167,-0.5 365.5,-0.5C 371.65,1.51442 376.15,5.51442 379,11.5C 380.122,19.9278 380.622,28.4278 380.5,37C 380.622,45.5722 380.122,54.0722 379,62.5C 376.239,68.4264 371.739,72.4264 365.5,74.5C 364.513,77.7683 364.18,81.1016 364.5,84.5C 369.78,84.2812 372.78,86.7812 373.5,92C 373.267,97.7323 370.267,100.566 364.5,100.5C 364.958,110.412 368.458,119.079 375,126.5C 383.552,133.386 392.386,139.886 401.5,146C 417.017,158.53 426.183,174.697 429,194.5C 429.984,281.197 429.651,367.863 428,454.5C 419.997,486.006 400.163,505.006 368.5,511.5C 292.833,511.5 217.167,511.5 141.5,511.5C 110.386,504.554 90.8858,485.554 83,454.5C 81.3492,367.863 81.0159,281.197 82,194.5C 84.8165,174.697 93.9832,158.53 109.5,146C 118.265,140.2 126.765,134.034 135,127.5C 142.122,119.92 145.955,110.92 146.5,100.5C 139.022,99.8962 136.189,95.8962 138,88.5C 139.894,85.1558 142.727,83.8224 146.5,84.5C 146.82,81.1016 146.487,77.7683 145.5,74.5C 139.261,72.4264 134.761,68.4264 132,62.5C 130.878,54.0722 130.378,45.5722 130.5,37C 130.378,28.4278 130.878,19.9278 132,11.5C 134.85,5.51442 139.35,1.51442 145.5,-0.5 Z"/></g>
<g><path style="opacity:1" fill="#74cdf8" d="M 332.5,14.5 C 330.943,30.8888 322.276,41.3888 306.5,46C 253.199,47.4739 199.866,47.9739 146.5,47.5C 146.5,37.8333 146.5,28.1667 146.5,18.5C 146.574,16.5891 147.574,15.4224 149.5,15C 210.499,14.5 271.499,14.3333 332.5,14.5 Z"/></g>
<g><path style="opacity:1" fill="#6abdf4" d="M 332.5,14.5 C 342.172,14.3335 351.839,14.5002 361.5,15C 362.416,15.3742 363.25,15.8742 364,16.5C 365.628,29.4048 365.961,42.4048 365,55.5C 364.5,57.3333 363.333,58.5 361.5,59C 312.833,59.3333 264.167,59.6667 215.5,60C 212.211,61.4103 210.544,63.9103 210.5,67.5C 203.833,67.5 197.167,67.5 190.5,67.5C 190.456,63.9103 188.789,61.4103 185.5,60C 173.167,59.6667 160.833,59.3333 148.5,59C 148,58.5 147.5,58 147,57.5C 145.87,50.7684 145.37,43.9351 145.5,37C 145.5,30.6574 145.834,24.4907 146.5,18.5C 146.5,28.1667 146.5,37.8333 146.5,47.5C 199.866,47.9739 253.199,47.4739 306.5,46C 322.276,41.3888 330.943,30.8888 332.5,14.5 Z"/></g>
<g><path style="opacity:1" fill="#f1fafe" d="M 190.5,67.5 C 197.167,67.5 203.833,67.5 210.5,67.5C 211.092,71.0889 213.092,73.4222 216.5,74.5C 260.33,75.4987 304.33,75.832 348.5,75.5C 348.5,78.5 348.5,81.5 348.5,84.5C 286.5,84.5 224.5,84.5 162.5,84.5C 162.5,81.5 162.5,78.5 162.5,75.5C 169.687,75.8245 176.687,75.4912 183.5,74.5C 187.5,73.8333 189.833,71.5 190.5,67.5 Z"/></g>
<g><path style="opacity:1" fill="#b1b6b9" d="M 183.5,74.5 C 176.687,75.4912 169.687,75.8245 162.5,75.5C 162.5,78.5 162.5,81.5 162.5,84.5C 161.521,81.3752 161.187,78.0419 161.5,74.5C 168.833,74.5 176.167,74.5 183.5,74.5 Z"/></g>
<g><path style="opacity:1" fill="#bdc4c8" d="M 216.5,74.5 C 260.833,74.5 305.167,74.5 349.5,74.5C 349.813,78.0419 349.479,81.3752 348.5,84.5C 348.5,81.5 348.5,78.5 348.5,75.5C 304.33,75.832 260.33,75.4987 216.5,74.5 Z"/></g>
<g><path style="opacity:1" fill="#bec5c9" d="M 349.5,104.5 C 348.566,103.432 348.232,102.099 348.5,100.5C 339.5,100.5 330.5,100.5 321.5,100.5C 268.5,100.5 215.5,100.5 162.5,100.5C 162.768,102.099 162.434,103.432 161.5,104.5C 161.5,102.833 161.5,101.167 161.5,99.5C 224.167,99.5 286.833,99.5 349.5,99.5C 349.5,101.167 349.5,102.833 349.5,104.5 Z"/></g>
<g><path style="opacity:1" fill="#f3fafe" d="M 321.5,100.5 C 324.137,106.647 328.137,111.814 333.5,116C 341.657,122.245 349.99,128.245 358.5,134C 376.726,150.836 384.393,171.67 381.5,196.5C 378.636,198.023 376.969,200.357 376.5,203.5C 369.922,204.46 363.255,204.793 356.5,204.5C 356.456,200.91 354.789,198.41 351.5,197C 338.487,196.833 325.487,196.333 312.5,195.5C 295.824,170.647 272.49,160.147 242.5,164C 223.511,168.493 208.844,178.993 198.5,195.5C 164.84,196.5 131.173,196.833 97.5,196.5C 99.7693,180.797 107.103,167.964 119.5,158C 131.544,150.62 142.377,141.787 152,131.5C 157.431,123.303 160.598,114.303 161.5,104.5C 162.434,103.432 162.768,102.099 162.5,100.5C 215.5,100.5 268.5,100.5 321.5,100.5 Z"/></g>
<g><path style="opacity:1" fill="#e1f3fc" d="M 321.5,100.5 C 330.5,100.5 339.5,100.5 348.5,100.5C 348.232,102.099 348.566,103.432 349.5,104.5C 350.745,118.489 356.412,130.322 366.5,140C 379.2,148.361 391.033,157.861 402,168.5C 408.329,176.823 412.163,186.156 413.5,196.5C 402.833,196.5 392.167,196.5 381.5,196.5C 384.393,171.67 376.726,150.836 358.5,134C 349.99,128.245 341.657,122.245 333.5,116C 328.137,111.814 324.137,106.647 321.5,100.5 Z"/></g>
<g><path style="opacity:1" fill="#74cdf7" d="M 266.5,179.5 C 269.654,187.125 272.654,194.792 275.5,202.5C 277.69,204.524 280.023,206.357 282.5,208C 288.078,208.483 293.411,209.816 298.5,212C 301.106,213.938 302.939,216.438 304,219.5C 305.137,231.6 305.637,243.766 305.5,256C 305.5,267.338 305.167,278.505 304.5,289.5C 301.377,285.888 297.544,283.221 293,281.5C 293.13,261.651 284.296,247.484 266.5,239C 260.094,238.073 255.594,240.573 253,246.5C 253.066,270.766 240.9,282.599 216.5,282C 204.819,287.196 200.485,296.03 203.5,308.5C 186.647,316.546 180.98,329.546 186.5,347.5C 181.738,347.698 177.572,349.365 174,352.5C 173.667,341.833 173.333,331.167 173,320.5C 171.59,317.211 169.09,315.544 165.5,315.5C 165.5,308.833 165.5,302.167 165.5,295.5C 169.244,295.046 171.744,293.046 173,289.5C 173.5,271.836 173.667,254.17 173.5,236.5C 180.508,236.666 187.508,236.5 194.5,236C 197.902,234.6 200.736,232.433 203,229.5C 208.603,192.704 229.769,176.038 266.5,179.5 Z"/></g>
<g><path style="opacity:1" fill="#fdf9e2" d="M 376.5,203.5 C 376.667,207.179 378.334,209.846 381.5,211.5C 381.667,266.501 381.5,321.501 381,376.5C 372.832,425.028 345.998,458.528 300.5,477C 289.724,480.297 278.724,482.63 267.5,484C 218.332,484.167 169.332,484.667 120.5,485.5C 107.297,475.442 99.4636,462.109 97,445.5C 96.5,367.501 96.3333,289.501 96.5,211.5C 128.167,211.5 159.833,211.5 191.5,211.5C 190.793,214.786 190.46,218.119 190.5,221.5C 183.159,221.334 175.826,221.5 168.5,222C 164.212,223.564 161.045,226.397 159,230.5C 158.333,250.833 158.333,271.167 159,291.5C 160.638,293.734 162.805,295.067 165.5,295.5C 165.5,302.167 165.5,308.833 165.5,315.5C 162.713,315.78 160.547,317.113 159,319.5C 158.333,349.5 158.333,379.5 159,409.5C 160.089,413.186 162.255,416.019 165.5,418C 195.249,419.159 225.082,419.659 255,419.5C 285.226,419.655 315.393,419.155 345.5,418C 348.745,416.019 350.911,413.186 352,409.5C 352.667,349.833 352.667,290.167 352,230.5C 349.685,226.183 346.185,223.35 341.5,222C 334.508,221.5 327.508,221.334 320.5,221.5C 320.54,218.119 320.207,214.786 319.5,211.5C 329.839,211.666 340.172,211.5 350.5,211C 354.061,210.272 356.061,208.106 356.5,204.5C 363.255,204.793 369.922,204.46 376.5,203.5 Z"/></g>
<g><path style="opacity:1" fill="#fcf7ce" d="M 381.5,211.5 C 392.5,211.5 403.5,211.5 414.5,211.5C 414.667,289.501 414.5,367.501 414,445.5C 410.39,466.9 398.89,482.4 379.5,492C 374.305,493.933 368.972,495.267 363.5,496C 291.167,496.667 218.833,496.667 146.5,496C 136.873,494.739 128.206,491.239 120.5,485.5C 169.332,484.667 218.332,484.167 267.5,484C 278.724,482.63 289.724,480.297 300.5,477C 345.998,458.528 372.832,425.028 381,376.5C 381.5,321.501 381.667,266.501 381.5,211.5 Z"/></g>
<g><path style="opacity:1" fill="#6abcf4" d="M 266.5,179.5 C 284.735,183.897 297.235,194.897 304,212.5C 305.441,218.144 306.774,223.811 308,229.5C 310.264,232.433 313.098,234.6 316.5,236C 323.492,236.5 330.492,236.666 337.5,236.5C 337.667,275.168 337.5,313.835 337,352.5C 333.142,349.988 328.975,348.155 324.5,347C 331.518,328.537 325.851,315.704 307.5,308.5C 309.426,301.641 308.426,295.307 304.5,289.5C 305.167,278.505 305.5,267.338 305.5,256C 305.637,243.766 305.137,231.6 304,219.5C 302.939,216.438 301.106,213.938 298.5,212C 293.411,209.816 288.078,208.483 282.5,208C 280.023,206.357 277.69,204.524 275.5,202.5C 272.654,194.792 269.654,187.125 266.5,179.5 Z"/></g>
<g><path style="opacity:1" fill="#fcf6be" d="M 305.5,361.5 C 306.139,369.382 305.306,377.049 303,384.5C 300.292,388.104 296.792,390.604 292.5,392C 252.835,392.5 213.168,392.667 173.5,392.5C 170.032,378.344 174.698,368.177 187.5,362C 196.167,361.667 204.833,361.333 213.5,361C 217.861,358.774 219.361,355.274 218,350.5C 215.269,347.288 211.769,345.788 207.5,346C 200.201,342.105 198.034,336.272 201,328.5C 202.938,325.894 205.438,324.061 208.5,323C 214.5,322.667 220.5,322.333 226.5,322C 230.934,318.733 231.6,314.733 228.5,310C 225.222,309.081 222.055,307.914 219,306.5C 216.531,302.176 217.364,298.676 221.5,296C 238.94,296.698 252.44,289.864 262,275.5C 264.664,269.674 266.831,263.674 268.5,257.5C 272.707,260.885 275.54,265.218 277,270.5C 277.074,277.606 277.74,284.606 279,291.5C 281.273,294.804 284.439,296.304 288.5,296C 293.218,297.774 294.551,300.94 292.5,305.5C 288.803,306.741 285.303,308.407 282,310.5C 279.471,315.186 280.304,319.019 284.5,322C 290.833,322.333 297.167,322.667 303.5,323C 312.746,327.102 314.913,333.602 310,342.5C 306.012,345.531 301.512,347.364 296.5,348C 291.485,357.435 294.485,361.935 305.5,361.5 Z"/></g>
<g><path style="opacity:1" fill="#050504" d="M 244.5,308.5 C 251.841,308.334 259.174,308.5 266.5,309C 271.833,313.333 271.833,317.667 266.5,322C 259.167,322.667 251.833,322.667 244.5,322C 239.248,317.506 239.248,313.006 244.5,308.5 Z"/></g>
<g><path style="opacity:1" fill="#030302" d="M 233.5,346.5 C 248.504,346.333 263.504,346.5 278.5,347C 284.353,350.451 285.019,354.785 280.5,360C 279.5,360.333 278.5,360.667 277.5,361C 262.833,361.667 248.167,361.667 233.5,361C 226.899,356.171 226.899,351.338 233.5,346.5 Z"/></g>
<g><path style="opacity:1" fill="#faf3ae" d="M 305.5,361.5 C 311.176,361.334 316.843,361.501 322.5,362C 329.598,364.099 334.432,368.599 337,375.5C 337.5,385.161 337.666,394.828 337.5,404.5C 282.833,404.5 228.167,404.5 173.5,404.5C 173.5,400.5 173.5,396.5 173.5,392.5C 213.168,392.667 252.835,392.5 292.5,392C 296.792,390.604 300.292,388.104 303,384.5C 305.306,377.049 306.139,369.382 305.5,361.5 Z"/></g>
</svg>
