<?xml version="1.0" encoding="UTF-8"?>
<!DOCTYPE svg PUBLIC "-//W3C//DTD SVG 1.1//EN" "http://www.w3.org/Graphics/SVG/1.1/DTD/svg11.dtd">
<svg xmlns="http://www.w3.org/2000/svg" version="1.1" width="512px" height="512px" style="shape-rendering:geometricPrecision; text-rendering:geometricPrecision; image-rendering:optimizeQuality; fill-rule:evenodd; clip-rule:evenodd" xmlns:xlink="http://www.w3.org/1999/xlink">
<g><path style="opacity:0.975" fill="#000000" d="M 157.5,-0.5 C 222.5,-0.5 287.5,-0.5 352.5,-0.5C 362.599,3.35675 366.766,10.6901 365,21.5C 363.126,28.6675 360.793,35.6675 358,42.5C 351.547,49.903 343.381,52.903 333.5,51.5C 329.238,63.3634 324.405,75.0301 319,86.5C 318.88,98.808 317.714,110.975 315.5,123C 316.984,143.768 322.151,163.602 331,182.5C 341.333,203.833 351.667,225.167 362,246.5C 391.328,312.474 403.662,381.474 399,453.5C 398.311,469.302 393.978,483.969 386,497.5C 380.446,503.529 373.613,507.362 365.5,509C 361.012,509.76 356.678,510.594 352.5,511.5C 288.167,511.5 223.833,511.5 159.5,511.5C 135.005,511.51 120.172,499.51 115,475.5C 107.944,437.196 107.944,398.863 115,360.5C 120.945,324.002 130.945,288.668 145,254.5C 158.273,226.954 171.273,199.287 184,171.5C 191.331,153.85 194.998,135.517 195,116.5C 192.226,106.366 190.893,96.0329 191,85.5C 186.167,74.5 181.333,63.5 176.5,52.5C 169.932,51.852 163.599,50.352 157.5,48C 153.896,45.2924 151.396,41.7924 150,37.5C 148.01,30.5382 146.176,23.5382 144.5,16.5C 145.529,8.15656 149.862,2.4899 157.5,-0.5 Z"/></g>
<g><path style="opacity:1" fill="#f34234" d="M 339.5,16.5 C 337.756,22.0655 336.423,27.7321 335.5,33.5C 328.776,33.5285 323.443,36.1952 319.5,41.5C 315.818,41.5907 312.651,42.924 310,45.5C 305.336,55.3333 301.17,65.3333 297.5,75.5C 267.167,75.5 236.833,75.5 206.5,75.5C 201.109,64.3762 195.942,53.0428 191,41.5C 184.803,34.3251 176.97,31.4918 167.5,33C 165.74,27.8862 164.073,22.7195 162.5,17.5C 221.496,16.5 280.496,16.1667 339.5,16.5 Z"/></g>
<g><path style="opacity:1" fill="#c51e1d" d="M 339.5,16.5 C 342.167,16.5 344.833,16.5 347.5,16.5C 346.167,22.1667 344.833,27.8333 343.5,33.5C 340.833,33.5 338.167,33.5 335.5,33.5C 336.423,27.7321 337.756,22.0655 339.5,16.5 Z"/></g>
<g><path style="opacity:1" fill="#bf231f" d="M 319.5,41.5 C 314.515,52.8074 309.515,64.1407 304.5,75.5C 271.669,76.83 239.002,76.83 206.5,75.5C 236.833,75.5 267.167,75.5 297.5,75.5C 301.17,65.3333 305.336,55.3333 310,45.5C 312.651,42.924 315.818,41.5907 319.5,41.5 Z"/></g>
<g><path style="opacity:1" fill="#002a2f" d="M 209.5,93.5 C 239.995,92.5019 270.662,92.1685 301.5,92.5C 301.81,95.7131 301.477,98.7131 300.5,101.5C 300.5,98.8333 300.5,96.1667 300.5,93.5C 297.833,93.5 295.167,93.5 292.5,93.5C 264.833,93.5 237.167,93.5 209.5,93.5 Z"/></g>
<g><path style="opacity:1" fill="#00bbd3" d="M 209.5,93.5 C 237.167,93.5 264.833,93.5 292.5,93.5C 292.913,99.037 292.08,104.37 290,109.5C 288.104,127.39 290.271,144.724 296.5,161.5C 266.5,161.5 236.5,161.5 206.5,161.5C 208.758,152.627 210.591,143.627 212,134.5C 212.667,126.167 212.667,117.833 212,109.5C 210.038,104.344 209.205,99.011 209.5,93.5 Z"/></g>
<g><path style="opacity:1" fill="#00818d" d="M 292.5,93.5 C 295.167,93.5 297.833,93.5 300.5,93.5C 300.5,96.1667 300.5,98.8333 300.5,101.5C 295.655,121.516 296.988,141.183 304.5,160.5C 301.914,161.48 299.247,161.813 296.5,161.5C 290.271,144.724 288.104,127.39 290,109.5C 292.08,104.37 292.913,99.037 292.5,93.5 Z"/></g>
<g><path style="opacity:1" fill="#6c4021" d="M 351.5,493.5 C 354.74,490.033 357.24,486.033 359,481.5C 361.93,469.658 363.93,457.658 365,445.5C 365.667,427.5 365.667,409.5 365,391.5C 363.908,380.965 362.408,370.631 360.5,360.5C 364.624,355.914 366.124,350.581 365,344.5C 362.859,341.679 360.025,340.346 356.5,340.5C 352.143,316.926 345.643,293.926 337,271.5C 322.838,240.509 308.672,209.509 294.5,178.5C 299.536,178.938 304.369,178.272 309,176.5C 309.915,177.328 310.581,178.328 311,179.5C 326.198,211.231 340.864,243.231 355,275.5C 376.109,330.595 385.109,387.595 382,446.5C 380.928,458.002 378.928,469.335 376,480.5C 374.533,483.266 372.7,485.766 370.5,488C 364.471,490.924 358.137,492.757 351.5,493.5 Z"/></g>
<g><path style="opacity:1" fill="#90552c" d="M 294.5,178.5 C 308.672,209.509 322.838,240.509 337,271.5C 345.643,293.926 352.143,316.926 356.5,340.5C 354.321,340.84 352.488,341.84 351,343.5C 344.667,353.833 338.333,364.167 332,374.5C 325.375,364.084 318.875,353.584 312.5,343C 301.975,338.514 297.475,342.014 299,353.5C 307,366.833 315,380.167 323,393.5C 323.333,408.167 323.667,422.833 324,437.5C 327.556,442.793 332.056,443.793 337.5,440.5C 338.806,439.088 339.64,437.421 340,435.5C 340.333,421.5 340.667,407.5 341,393.5C 347.511,382.472 354.011,371.472 360.5,360.5C 362.408,370.631 363.908,380.965 365,391.5C 365.667,409.5 365.667,427.5 365,445.5C 363.93,457.658 361.93,469.658 359,481.5C 357.24,486.033 354.74,490.033 351.5,493.5C 288.513,494.641 225.513,494.808 162.5,494C 151.991,494.488 143.158,490.988 136,483.5C 131.412,469.556 128.745,455.223 128,440.5C 125.676,382.113 135.342,325.78 157,271.5C 170.91,240.683 185.076,210.016 199.5,179.5C 231.16,178.5 262.826,178.167 294.5,178.5 Z"/></g>
<g><path style="opacity:1" fill="#030100" d="M 218.5,195.5 C 226.051,195.546 229.551,199.213 229,206.5C 226.273,212.954 223.273,219.288 220,225.5C 214.514,231.08 209.514,230.747 205,224.5C 204.333,222.167 204.333,219.833 205,217.5C 208,211.5 211,205.5 214,199.5C 215.397,197.93 216.897,196.596 218.5,195.5 Z"/></g>
<g><path style="opacity:1" fill="#030100" d="M 192.5,246.5 C 200.542,246.7 204.042,250.7 203,258.5C 195.131,275.106 189.465,292.439 186,310.5C 183.045,314.277 179.212,315.443 174.5,314C 171.684,311.868 170.351,309.035 170.5,305.5C 173.419,286.242 179.253,267.908 188,250.5C 189.397,248.93 190.897,247.596 192.5,246.5 Z"/></g>
<g><path style="opacity:1" fill="#020100" d="M 254.5,340.5 C 270.522,339.76 282.355,346.427 290,360.5C 300.241,381.973 299.908,403.306 289,424.5C 274.955,444.758 257.788,447.924 237.5,434C 224.152,418.313 218.985,400.146 222,379.5C 225.18,359.843 236.013,346.843 254.5,340.5 Z"/></g>
<g><path style="opacity:1" fill="#020100" d="M 356.5,340.5 C 360.025,340.346 362.859,341.679 365,344.5C 366.124,350.581 364.624,355.914 360.5,360.5C 354.011,371.472 347.511,382.472 341,393.5C 340.667,407.5 340.333,421.5 340,435.5C 339.64,437.421 338.806,439.088 337.5,440.5C 332.056,443.793 327.556,442.793 324,437.5C 323.667,422.833 323.333,408.167 323,393.5C 315,380.167 307,366.833 299,353.5C 297.475,342.014 301.975,338.514 312.5,343C 318.875,353.584 325.375,364.084 332,374.5C 338.333,364.167 344.667,353.833 351,343.5C 352.488,341.84 354.321,340.84 356.5,340.5 Z"/></g>
<g><path style="opacity:1" fill="#020100" d="M 174.5,341.5 C 191.698,338.513 203.864,344.846 211,360.5C 213.655,368.212 211.155,372.879 203.5,374.5C 200.889,374.444 198.722,373.444 197,371.5C 193.872,359.649 186.706,355.815 175.5,360C 170.315,364.947 169.149,370.781 172,377.5C 173.543,379.378 175.376,380.878 177.5,382C 195.16,381.728 206.66,389.895 212,406.5C 213.951,424.451 206.451,436.284 189.5,442C 170.069,444.221 158.069,435.888 153.5,417C 155.209,409.647 159.542,407.314 166.5,410C 169.231,412.626 171.064,415.793 172,419.5C 176.563,425.559 182.397,427.059 189.5,424C 197.423,416.7 197.423,409.366 189.5,402C 183.529,400.669 177.529,399.335 171.5,398C 156.501,390.378 150.668,378.212 154,361.5C 156.355,355.157 160.189,349.991 165.5,346C 168.592,344.454 171.592,342.954 174.5,341.5 Z"/></g>
<g><path style="opacity:1" fill="#8f552c" d="M 255.5,357.5 C 264.386,356.861 270.886,360.528 275,368.5C 281.545,382.195 282.212,396.195 277,410.5C 273.043,421.166 265.543,426 254.5,425C 245.714,419.29 240.547,411.124 239,400.5C 236.895,388.4 238.895,377.067 245,366.5C 248.103,362.886 251.603,359.886 255.5,357.5 Z"/></g>
</svg>
