<?xml version="1.0" encoding="UTF-8"?>
<!DOCTYPE svg PUBLIC "-//W3C//DTD SVG 1.1//EN" "http://www.w3.org/Graphics/SVG/1.1/DTD/svg11.dtd">
<svg xmlns="http://www.w3.org/2000/svg" version="1.1" width="512px" height="512px" style="shape-rendering:geometricPrecision; text-rendering:geometricPrecision; image-rendering:optimizeQuality; fill-rule:evenodd; clip-rule:evenodd" xmlns:xlink="http://www.w3.org/1999/xlink">
<g><path style="opacity:0.986" fill="#010201" d="M 103.5,-0.5 C 120.5,-0.5 137.5,-0.5 154.5,-0.5C 156.578,1.39043 157.911,3.72376 158.5,6.5C 157.59,9.79257 155.59,12.2926 152.5,14C 137.167,14.3333 121.833,14.6667 106.5,15C 97.9304,17.9038 92.4304,23.7372 90,32.5C 89.3333,40.5 89.3333,48.5 90,56.5C 92.3407,64.8405 97.5074,70.6738 105.5,74C 150.832,74.5 196.165,74.6667 241.5,74.5C 295.501,74.6667 349.501,74.5 403.5,74C 412.631,71.5353 418.465,65.7019 421,56.5C 421.667,48.5 421.667,40.5 421,32.5C 418.389,22.8883 412.222,17.0549 402.5,15C 348.834,14.5 295.168,14.3333 241.5,14.5C 221.497,14.6666 201.497,14.5 181.5,14C 178.211,12.5897 176.544,10.0897 176.5,6.5C 176.15,3.54661 177.15,1.21328 179.5,-0.5C 255.5,-0.5 331.5,-0.5 407.5,-0.5C 422.582,4.08491 432.082,14.0849 436,29.5C 436.667,39.5 436.667,49.5 436,59.5C 433.373,71.795 426.539,80.9616 415.5,87C 425.857,110.401 436.024,133.901 446,157.5C 448.43,164.316 450.097,171.316 451,178.5C 451.667,205.5 451.667,232.5 451,259.5C 449.362,261.734 447.195,263.067 444.5,263.5C 441.213,262.945 438.713,261.278 437,258.5C 436.5,247.505 436.333,236.505 436.5,225.5C 415.164,225.667 393.831,225.5 372.5,225C 349.245,218.357 337.745,202.857 338,178.5C 335.167,167.667 328.333,160.833 317.5,158C 275.998,157.169 234.665,157.335 193.5,158.5C 182.593,160.906 175.759,167.573 173,178.5C 173.358,203.994 161.191,219.494 136.5,225C 115.836,225.5 95.1694,225.667 74.5,225.5C 74.5,270.833 74.5,316.167 74.5,361.5C 96.5025,361.333 118.503,361.5 140.5,362C 157,366.5 167.5,377 172,393.5C 171.664,419.664 184.497,431.331 210.5,428.5C 216.941,427.54 220.607,430.207 221.5,436.5C 221.025,438.784 220.025,440.784 218.5,442.5C 197.856,447.968 180.356,442.968 166,427.5C 159.896,417.758 156.896,407.091 157,395.5C 153.729,384.727 146.562,378.394 135.5,376.5C 115.34,375.503 95.0069,375.17 74.5,375.5C 74.1703,391.675 74.5036,407.675 75.5,423.5C 82.3735,463.54 105.707,487.707 145.5,496C 180.832,496.5 216.165,496.667 251.5,496.5C 289.168,496.667 326.835,496.5 364.5,496C 406.693,487.642 430.36,462.142 435.5,419.5C 436.496,405.01 436.829,390.343 436.5,375.5C 415.993,375.17 395.66,375.503 375.5,376.5C 364.452,378.378 357.285,384.712 354,395.5C 354.656,421.413 342.489,437.246 317.5,443C 293.167,443.667 268.833,443.667 244.5,443C 242.266,441.362 240.933,439.195 240.5,436.5C 240.544,432.91 242.211,430.41 245.5,429C 269.833,428.667 294.167,428.333 318.5,428C 334.117,421.958 340.951,410.458 339,393.5C 343.456,377.379 353.622,366.879 369.5,362C 391.831,361.5 414.164,361.333 436.5,361.5C 436.333,336.498 436.5,311.498 437,286.5C 438.476,283.333 440.976,281.667 444.5,281.5C 447.263,281.744 449.429,283.077 451,285.5C 451.667,332.5 451.667,379.5 451,426.5C 442.075,473.59 414.242,501.923 367.5,511.5C 292.833,511.5 218.167,511.5 143.5,511.5C 96.7539,501.919 68.9206,473.586 60,426.5C 59.3333,343.833 59.3333,261.167 60,178.5C 60.9034,171.316 62.5701,164.316 65,157.5C 74.9762,133.901 85.1428,110.401 95.5,87C 84.4606,80.9616 77.6272,71.795 75,59.5C 74.3333,49.5 74.3333,39.5 75,29.5C 78.9176,14.0849 88.4176,4.08491 103.5,-0.5 Z"/></g>
<g><path style="opacity:1" fill="#8bdf9e" d="M 158.5,6.5 C 164.5,6.5 170.5,6.5 176.5,6.5C 176.544,10.0897 178.211,12.5897 181.5,14C 201.497,14.5 221.497,14.6666 241.5,14.5C 232.202,34.5008 232.202,54.5008 241.5,74.5C 196.165,74.6667 150.832,74.5 105.5,74C 97.5074,70.6738 92.3407,64.8405 90,56.5C 89.3333,48.5 89.3333,40.5 90,32.5C 92.4304,23.7372 97.9304,17.9038 106.5,15C 121.833,14.6667 137.167,14.3333 152.5,14C 155.59,12.2926 157.59,9.79257 158.5,6.5 Z"/></g>
<g><path style="opacity:1" fill="#b8ebc1" d="M 241.5,14.5 C 295.168,14.3333 348.834,14.5 402.5,15C 412.222,17.0549 418.389,22.8883 421,32.5C 421.667,40.5 421.667,48.5 421,56.5C 418.465,65.7019 412.631,71.5353 403.5,74C 349.501,74.5 295.501,74.6667 241.5,74.5C 232.202,54.5008 232.202,34.5008 241.5,14.5 Z"/></g>
<g><path style="opacity:1" fill="#d0ceeb" d="M 400.5,90.5 C 346.499,90.3333 292.499,90.5 238.5,91C 226.183,107.132 215.517,124.298 206.5,142.5C 174.92,142.246 158.42,157.913 157,189.5C 154.241,200.427 147.407,207.094 136.5,209.5C 116.167,209.5 95.8333,209.5 75.5,209.5C 75.5,200.167 75.5,190.833 75.5,181.5C 75.7861,174.571 77.2861,167.904 80,161.5C 90.1667,137.833 100.333,114.167 110.5,90.5C 207.332,89.1678 303.999,89.1678 400.5,90.5 Z"/></g>
<g><path style="opacity:1" fill="#e4e3f6" d="M 400.5,90.5 C 410.652,114.141 420.818,137.807 431,161.5C 433.205,168.029 434.705,174.696 435.5,181.5C 435.5,190.833 435.5,200.167 435.5,209.5C 415.167,209.5 394.833,209.5 374.5,209.5C 364.024,207.194 357.191,200.86 354,190.5C 354.905,170.129 346.405,155.295 328.5,146C 324.58,144.687 320.58,143.687 316.5,143C 279.835,142.5 243.168,142.333 206.5,142.5C 215.517,124.298 226.183,107.132 238.5,91C 292.499,90.5 346.499,90.3333 400.5,90.5 Z"/></g>
<g><path style="opacity:1" fill="#8bde9e" d="M 193.5,158.5 C 195.199,158.34 196.866,158.506 198.5,159C 181.566,197.324 173.232,237.49 173.5,279.5C 158.591,280.428 149.591,288.094 146.5,302.5C 148.418,315.255 155.751,323.089 168.5,326C 171.482,326.498 174.482,326.665 177.5,326.5C 183.294,362.214 194.294,396.214 210.5,428.5C 184.497,431.331 171.664,419.664 172,393.5C 167.5,377 157,366.5 140.5,362C 118.503,361.5 96.5025,361.333 74.5,361.5C 74.5,316.167 74.5,270.833 74.5,225.5C 95.1694,225.667 115.836,225.5 136.5,225C 161.191,219.494 173.358,203.994 173,178.5C 175.759,167.573 182.593,160.906 193.5,158.5 Z"/></g>
<g><path style="opacity:1" fill="#b8ebc1" d="M 193.5,158.5 C 234.665,157.335 275.998,157.169 317.5,158C 328.333,160.833 335.167,167.667 338,178.5C 337.745,202.857 349.245,218.357 372.5,225C 393.831,225.5 415.164,225.667 436.5,225.5C 436.333,236.505 436.5,247.505 437,258.5C 438.713,261.278 441.213,262.945 444.5,263.5C 444.5,269.5 444.5,275.5 444.5,281.5C 440.976,281.667 438.476,283.333 437,286.5C 436.5,311.498 436.333,336.498 436.5,361.5C 414.164,361.333 391.831,361.5 369.5,362C 353.622,366.879 343.456,377.379 339,393.5C 340.951,410.458 334.117,421.958 318.5,428C 294.167,428.333 269.833,428.667 245.5,429C 242.211,430.41 240.544,432.91 240.5,436.5C 234.167,436.5 227.833,436.5 221.5,436.5C 220.607,430.207 216.941,427.54 210.5,428.5C 194.294,396.214 183.294,362.214 177.5,326.5C 190.679,325.801 199.845,319.467 205,307.5C 206.362,299.085 203.862,292.085 197.5,286.5C 198.966,285.653 199.8,284.32 200,282.5C 200.667,276.833 200.667,271.167 200,265.5C 195.333,260.167 190.667,260.167 186,265.5C 185.501,270.489 185.334,275.489 185.5,280.5C 181.548,279.728 177.548,279.395 173.5,279.5C 173.232,237.49 181.566,197.324 198.5,159C 196.866,158.506 195.199,158.34 193.5,158.5 Z"/></g>
<g><path style="opacity:1" fill="#aba9c1" d="M 75.5,181.5 C 75.5,190.833 75.5,200.167 75.5,209.5C 95.8333,209.5 116.167,209.5 136.5,209.5C 116.007,210.497 95.3401,210.831 74.5,210.5C 74.1729,200.652 74.5062,190.986 75.5,181.5 Z"/></g>
<g><path style="opacity:1" fill="#babac9" d="M 435.5,181.5 C 436.494,190.986 436.827,200.652 436.5,210.5C 415.66,210.831 394.993,210.497 374.5,209.5C 394.833,209.5 415.167,209.5 435.5,209.5C 435.5,200.167 435.5,190.833 435.5,181.5 Z"/></g>
<g><path style="opacity:1" fill="#030303" d="M 197.5,286.5 C 191.055,289.213 187.055,287.213 185.5,280.5C 185.334,275.489 185.501,270.489 186,265.5C 190.667,260.167 195.333,260.167 200,265.5C 200.667,271.167 200.667,276.833 200,282.5C 199.8,284.32 198.966,285.653 197.5,286.5 Z"/></g>
<g><path style="opacity:1" fill="#030403" d="M 325.5,280.5 C 323.945,287.213 319.945,289.213 313.5,286.5C 312.034,285.653 311.2,284.32 311,282.5C 310.333,276.833 310.333,271.167 311,265.5C 315.62,260.177 320.286,260.177 325,265.5C 325.499,270.489 325.666,275.489 325.5,280.5 Z"/></g>
<g><path style="opacity:1" fill="#060806" d="M 236.5,272.5 C 241.213,272.19 244.88,274.023 247.5,278C 252.803,281.246 258.137,281.246 263.5,278C 268.688,271.006 273.855,270.84 279,277.5C 279.667,279.167 279.667,280.833 279,282.5C 272.013,292.241 262.513,296.407 250.5,295C 243.499,293.417 237.666,289.917 233,284.5C 230.458,279.361 231.624,275.361 236.5,272.5 Z"/></g>
<g><path style="opacity:1" fill="#fda1ab" d="M 173.5,279.5 C 177.548,279.395 181.548,279.728 185.5,280.5C 187.055,287.213 191.055,289.213 197.5,286.5C 203.862,292.085 206.362,299.085 205,307.5C 199.845,319.467 190.679,325.801 177.5,326.5C 174.482,326.665 171.482,326.498 168.5,326C 155.751,323.089 148.418,315.255 146.5,302.5C 149.591,288.094 158.591,280.428 173.5,279.5 Z"/></g>
<g><path style="opacity:1" fill="#fda1ab" d="M 313.5,286.5 C 319.945,289.213 323.945,287.213 325.5,280.5C 340.539,277.116 352.706,281.449 362,293.5C 366.645,309.578 360.812,320.078 344.5,325C 329.443,328.982 317.276,324.815 308,312.5C 303.517,302.459 305.351,293.792 313.5,286.5 Z"/></g>
<g><path style="opacity:1" fill="#878599" d="M 135.5,376.5 C 115.5,376.5 95.5,376.5 75.5,376.5C 75.5,392.167 75.5,407.833 75.5,423.5C 74.5036,407.675 74.1703,391.675 74.5,375.5C 95.0069,375.17 115.34,375.503 135.5,376.5 Z"/></g>
<g><path style="opacity:1" fill="#d1cfed" d="M 135.5,376.5 C 146.562,378.394 153.729,384.727 157,395.5C 156.896,407.091 159.896,417.758 166,427.5C 180.356,442.968 197.856,447.968 218.5,442.5C 221.338,449.507 224.838,456.174 229,462.5C 236.33,473.987 243.83,485.32 251.5,496.5C 216.165,496.667 180.832,496.5 145.5,496C 105.707,487.707 82.3735,463.54 75.5,423.5C 75.5,407.833 75.5,392.167 75.5,376.5C 95.5,376.5 115.5,376.5 135.5,376.5 Z"/></g>
<g><path style="opacity:1" fill="#e4e3f6" d="M 375.5,376.5 C 395.5,376.5 415.5,376.5 435.5,376.5C 435.5,390.833 435.5,405.167 435.5,419.5C 430.36,462.142 406.693,487.642 364.5,496C 326.835,496.5 289.168,496.667 251.5,496.5C 243.83,485.32 236.33,473.987 229,462.5C 224.838,456.174 221.338,449.507 218.5,442.5C 220.025,440.784 221.025,438.784 221.5,436.5C 227.833,436.5 234.167,436.5 240.5,436.5C 240.933,439.195 242.266,441.362 244.5,443C 268.833,443.667 293.167,443.667 317.5,443C 342.489,437.246 354.656,421.413 354,395.5C 357.285,384.712 364.452,378.378 375.5,376.5 Z"/></g>
<g><path style="opacity:1" fill="#9797a3" d="M 375.5,376.5 C 395.66,375.503 415.993,375.17 436.5,375.5C 436.829,390.343 436.496,405.01 435.5,419.5C 435.5,405.167 435.5,390.833 435.5,376.5C 415.5,376.5 395.5,376.5 375.5,376.5 Z"/></g>
</svg>
