<?xml version="1.0" encoding="UTF-8"?>
<!DOCTYPE svg PUBLIC "-//W3C//DTD SVG 1.1//EN" "http://www.w3.org/Graphics/SVG/1.1/DTD/svg11.dtd">
<svg xmlns="http://www.w3.org/2000/svg" version="1.1" width="512px" height="512px" style="shape-rendering:geometricPrecision; text-rendering:geometricPrecision; image-rendering:optimizeQuality; fill-rule:evenodd; clip-rule:evenodd" xmlns:xlink="http://www.w3.org/1999/xlink">
<g><path style="opacity:0.983" fill="#030201" d="M 414.5,-0.5 C 417.167,-0.5 419.833,-0.5 422.5,-0.5C 474.441,51.7274 504.107,114.727 511.5,188.5C 511.5,204.833 511.5,221.167 511.5,237.5C 509.421,256.292 505.921,274.958 501,293.5C 499.055,297.39 495.888,299.057 491.5,298.5C 489.117,297.115 487.45,295.115 486.5,292.5C 489.782,276.257 492.615,259.924 495,243.5C 502.24,166.912 482.573,98.2453 436,37.5C 430.623,30.7455 424.79,24.4122 418.5,18.5C 410.681,25.8188 403.014,33.3188 395.5,41C 445.176,95.0179 467.676,158.851 463,232.5C 454.836,313.707 417.336,377.207 350.5,423C 294.189,458.129 233.189,470.462 167.5,460C 162.651,458.655 160.318,455.489 160.5,450.5C 161.938,447.234 164.438,445.234 168,444.5C 254.215,458.317 327.548,433.984 388,371.5C 413.87,343.101 431.37,310.101 440.5,272.5C 460.724,189.063 442.224,115.396 385,51.5C 353.167,83.3333 321.333,115.167 289.5,147C 286.015,149.123 282.682,148.956 279.5,146.5C 279.167,146.5 278.833,146.5 278.5,146.5C 276.346,143.237 276.179,139.904 278,136.5C 323.701,90.9654 369.201,45.2987 414.5,-0.5 Z"/></g>
<g><path style="opacity:1" fill="#96d97a" d="M 486.5,292.5 C 485.698,291.048 485.198,289.382 485,287.5C 447.767,381.066 380.6,441.233 283.5,468C 188.563,489.248 103.229,469.748 27.5,409.5C 31.7967,404.702 36.2967,400.035 41,395.5C 69.1999,421.942 101.867,440.942 139,452.5C 142.48,452.169 144.98,450.502 146.5,447.5C 151.239,448.185 155.905,449.185 160.5,450.5C 160.318,455.489 162.651,458.655 167.5,460C 233.189,470.462 294.189,458.129 350.5,423C 417.336,377.207 454.836,313.707 463,232.5C 467.676,158.851 445.176,95.0179 395.5,41C 403.014,33.3188 410.681,25.8188 418.5,18.5C 424.79,24.4122 430.623,30.7455 436,37.5C 482.573,98.2453 502.24,166.912 495,243.5C 492.615,259.924 489.782,276.257 486.5,292.5 Z"/></g>
<g><path style="opacity:1" fill="#fe4654" d="M 440.5,272.5 C 401.682,363.441 333.015,415.274 234.5,428C 169.708,433.118 112.042,415.618 61.5,375.5C 130.465,306.035 199.632,236.701 269,167.5C 270.822,163.91 270.989,160.243 269.5,156.5C 273.167,153.5 276.5,150.167 279.5,146.5C 282.682,148.956 286.015,149.123 289.5,147C 321.333,115.167 353.167,83.3333 385,51.5C 442.224,115.396 460.724,189.063 440.5,272.5 Z"/></g>
<g><path style="opacity:1" fill="#050101" d="M 343.5,136.5 C 358.759,137.593 363.593,145.26 358,159.5C 356.457,161.378 354.624,162.878 352.5,164C 345.916,165.544 339.249,165.877 332.5,165C 326.892,162.182 324.725,157.682 326,151.5C 330.478,144.851 336.311,139.851 343.5,136.5 Z"/></g>
<g><path style="opacity:0.827" fill="#eb764a" d="M 278.5,146.5 C 278.833,146.5 279.167,146.5 279.5,146.5C 276.5,150.167 273.167,153.5 269.5,156.5C 268.833,156.5 268.5,156.167 268.5,155.5C 271.833,152.5 275.167,149.5 278.5,146.5 Z"/></g>
<g><path style="opacity:0.967" fill="#020100" d="M 268.5,155.5 C 268.5,156.167 268.833,156.5 269.5,156.5C 270.989,160.243 270.822,163.91 269,167.5C 199.632,236.701 130.465,306.035 61.5,375.5C 58.0359,378.462 54.7025,381.629 51.5,385C 78.084,409.637 108.751,427.637 143.5,439C 146.125,441.196 147.125,444.03 146.5,447.5C 144.98,450.502 142.48,452.169 139,452.5C 101.867,440.942 69.1999,421.942 41,395.5C 36.2967,400.035 31.7967,404.702 27.5,409.5C 23.6269,412.186 20.7936,415.519 19,419.5C 81.801,477.324 155.968,502.491 241.5,495C 337.649,482.785 410.482,435.285 460,352.5C 466.546,340.076 472.546,327.409 478,314.5C 480.642,311.971 483.808,310.971 487.5,311.5C 491.241,314.556 492.407,318.556 491,323.5C 464.462,387.747 421.295,437.58 361.5,473C 322.768,494.511 281.435,507.345 237.5,511.5C 221.167,511.5 204.833,511.5 188.5,511.5C 114.493,504.637 51.4932,474.971 -0.5,422.5C -0.5,419.833 -0.5,417.167 -0.5,414.5C 86.2988,328.201 172.965,241.701 259.5,155C 262.592,154.264 265.592,154.431 268.5,155.5 Z"/></g>
<g><path style="opacity:1" fill="#050101" d="M 334.5,215.5 C 351.742,213.888 358.242,221.222 354,237.5C 349.382,243.053 343.549,244.886 336.5,243C 330.931,240.965 326.097,237.798 322,233.5C 319.167,227.599 320.333,222.765 325.5,219C 328.459,217.396 331.459,216.229 334.5,215.5 Z"/></g>
<g><path style="opacity:1" fill="#f92a39" d="M 440.5,272.5 C 431.37,310.101 413.87,343.101 388,371.5C 327.548,433.984 254.215,458.317 168,444.5C 164.438,445.234 161.938,447.234 160.5,450.5C 155.905,449.185 151.239,448.185 146.5,447.5C 147.125,444.03 146.125,441.196 143.5,439C 108.751,427.637 78.084,409.637 51.5,385C 54.7025,381.629 58.0359,378.462 61.5,375.5C 112.042,415.618 169.708,433.118 234.5,428C 333.015,415.274 401.682,363.441 440.5,272.5 Z"/></g>
<g><path style="opacity:1" fill="#050101" d="M 288.5,282.5 C 299.624,281.977 308.124,286.311 314,295.5C 315.833,309.667 309.667,315.833 295.5,314C 285.224,307.499 281.39,298.332 284,286.5C 285.397,284.93 286.897,283.596 288.5,282.5 Z"/></g>
<g><path style="opacity:1" fill="#80d160" d="M 486.5,292.5 C 487.45,295.115 489.117,297.115 491.5,298.5C 489.768,302.697 488.435,307.031 487.5,311.5C 483.808,310.971 480.642,311.971 478,314.5C 472.546,327.409 466.546,340.076 460,352.5C 410.482,435.285 337.649,482.785 241.5,495C 155.968,502.491 81.801,477.324 19,419.5C 20.7936,415.519 23.6269,412.186 27.5,409.5C 103.229,469.748 188.563,489.248 283.5,468C 380.6,441.233 447.767,381.066 485,287.5C 485.198,289.382 485.698,291.048 486.5,292.5 Z"/></g>
<g><path style="opacity:1" fill="#050101" d="M 223.5,320.5 C 231.196,319.432 236.696,322.432 240,329.5C 244.122,336.364 244.455,343.364 241,350.5C 234.853,357.276 228.019,358.109 220.5,353C 218.106,351.048 216.606,348.548 216,345.5C 213.798,335.615 216.298,327.282 223.5,320.5 Z"/></g>
<g><path style="opacity:1" fill="#050101" d="M 151.5,325.5 C 156.609,324.923 160.776,326.59 164,330.5C 166.161,338.59 165.828,346.59 163,354.5C 158.422,360.055 152.588,361.888 145.5,360C 138.805,356.442 135.971,350.942 137,343.5C 140.272,336.08 145.105,330.08 151.5,325.5 Z"/></g>
</svg>
