<?xml version="1.0" encoding="UTF-8"?>
<!DOCTYPE svg PUBLIC "-//W3C//DTD SVG 1.1//EN" "http://www.w3.org/Graphics/SVG/1.1/DTD/svg11.dtd">
<svg xmlns="http://www.w3.org/2000/svg" version="1.1" width="512px" height="512px" style="shape-rendering:geometricPrecision; text-rendering:geometricPrecision; image-rendering:optimizeQuality; fill-rule:evenodd; clip-rule:evenodd" xmlns:xlink="http://www.w3.org/1999/xlink">
<g><path style="opacity:0.989" fill="#020202" d="M 123.5,-0.5 C 194.5,-0.5 265.5,-0.5 336.5,-0.5C 368.756,6.91951 389.59,26.5862 399,58.5C 399.958,63.1232 400.625,67.7899 401,72.5C 401.5,141.833 401.667,211.166 401.5,280.5C 411.605,280.051 421.605,280.551 431.5,282C 433.487,283.319 434.654,285.152 435,287.5C 435.333,298.167 435.667,308.833 436,319.5C 441.691,331.729 450.524,334.563 462.5,328C 465.164,325.331 466.998,322.164 468,318.5C 468.969,295.437 468.635,272.437 467,249.5C 461.239,239.019 453.072,236.519 442.5,242C 439.177,244.483 436.843,247.649 435.5,251.5C 434.517,255.298 434.183,259.298 434.5,263.5C 429.167,263.5 423.833,263.5 418.5,263.5C 418.5,258.167 418.5,252.833 418.5,247.5C 423.202,230.644 434.368,221.644 452,220.5C 470.416,221.919 481.749,231.586 486,249.5C 486.667,273.167 486.667,296.833 486,320.5C 480.453,342.541 466.286,352.041 443.5,349C 429.891,345.058 421.391,336.225 418,322.5C 417.5,314.507 417.334,306.507 417.5,298.5C 412.167,298.5 406.833,298.5 401.5,298.5C 401.667,345.168 401.5,391.835 401,438.5C 398.264,468.816 383.431,490.983 356.5,505C 349.881,507.707 343.214,509.874 336.5,511.5C 265.5,511.5 194.5,511.5 123.5,511.5C 85.528,502.941 64.028,479.274 59,440.5C 58.5,404.168 58.3333,367.835 58.5,331.5C 43.1413,328.228 32.6413,319.228 27,304.5C 20.378,276.406 30.5447,257.406 57.5,247.5C 58.0301,185.812 58.8635,124.145 60,62.5C 67.7848,27.8814 88.9515,6.88139 123.5,-0.5 Z"/></g>
<g><path style="opacity:1" fill="#fcb330" d="M 383.5,90.5 C 377.833,95.8333 372.167,101.167 366.5,106.5C 366.667,93.8289 366.5,81.1623 366,68.5C 360.831,48.9968 348.331,37.4968 328.5,34C 261.833,33.3333 195.167,33.3333 128.5,34C 110.786,38.7131 99.2862,49.8798 94,67.5C 93.5,127.499 93.3333,187.499 93.5,247.5C 87.8333,247.5 82.1667,247.5 76.5,247.5C 76.3333,186.832 76.5,126.166 77,65.5C 83.2532,38.9138 99.7532,22.7472 126.5,17C 196.86,16.023 267.193,16.3563 337.5,18C 371.859,29.8485 387.192,54.0152 383.5,90.5 Z"/></g>
<g><path style="opacity:1" fill="#dcdcda" d="M 177.5,155.5 C 178.498,185.662 178.831,215.995 178.5,246.5C 170.167,246.5 161.833,246.5 153.5,246.5C 153.5,226.833 153.5,207.167 153.5,187.5C 147.833,187.5 142.167,187.5 136.5,187.5C 135.503,206.993 135.17,226.66 135.5,246.5C 127.167,246.5 118.833,246.5 110.5,246.5C 110.052,204.809 110.552,163.142 112,121.5C 116.051,95.9941 125.551,72.8275 140.5,52C 143.167,50 145.833,50 148.5,52C 166.959,76.3756 176.459,103.876 177,134.5C 163.129,146.376 147.296,150.043 129.5,145.5C 128.376,150.207 127.043,154.873 125.5,159.5C 125.781,161.778 127.115,162.945 129.5,163C 146.48,166.586 162.48,164.086 177.5,155.5 Z"/></g>
<g><path style="opacity:1" fill="#e24c4c" d="M 168.5,51.5 C 180.673,50.1753 193.006,50.1753 205.5,51.5C 198.093,63.8734 191.927,76.8734 187,90.5C 182.824,76.4274 176.657,63.4274 168.5,51.5 Z"/></g>
<g><path style="opacity:1" fill="#c4c4c2" d="M 263.5,155.5 C 263.5,185.833 263.5,216.167 263.5,246.5C 255.167,246.5 246.833,246.5 238.5,246.5C 238.5,226.833 238.5,207.167 238.5,187.5C 232.833,187.5 227.167,187.5 221.5,187.5C 221.5,207.167 221.5,226.833 221.5,246.5C 213.167,246.5 204.833,246.5 196.5,246.5C 196.5,208.5 196.5,170.5 196.5,132.5C 198.748,102.918 208.414,76.0849 225.5,52C 229.244,51.0715 232.744,51.5715 236,53.5C 252.39,77.6702 261.39,104.337 263,133.5C 249.323,145.878 233.489,150.044 215.5,146C 213.641,150.574 211.975,155.241 210.5,160C 210.645,160.772 210.978,161.439 211.5,162C 229.768,166.923 247.102,164.757 263.5,155.5 Z"/></g>
<g><path style="opacity:1" fill="#e24c4c" d="M 254.5,50.5 C 266.518,50.1677 278.518,50.501 290.5,51.5C 283.42,63.6603 277.42,76.327 272.5,89.5C 267.297,76.0971 261.297,63.0971 254.5,50.5 Z"/></g>
<g><path style="opacity:1" fill="#dcdcda" d="M 349.5,246.5 C 341.167,246.5 332.833,246.5 324.5,246.5C 324.83,226.66 324.497,206.993 323.5,187.5C 317.833,187.5 312.167,187.5 306.5,187.5C 306.5,207.167 306.5,226.833 306.5,246.5C 298.167,246.5 289.833,246.5 281.5,246.5C 281.039,204.137 281.539,161.803 283,119.5C 286.892,96.3898 295.226,75.0564 308,55.5C 312.359,49.3993 317.026,49.066 322,54.5C 336.757,77.0204 345.591,101.687 348.5,128.5C 347.357,134.832 343.691,139.332 337.5,142C 325.945,147.787 313.945,148.954 301.5,145.5C 299.118,150.307 297.118,155.307 295.5,160.5C 295.709,161.086 296.043,161.586 296.5,162C 315.158,167.23 332.658,164.73 349,154.5C 349.5,185.165 349.667,215.832 349.5,246.5 Z"/></g>
<g><path style="opacity:1" fill="#040404" d="M 140.5,84.5 C 158.461,85.6055 164.627,94.6055 159,111.5C 152.006,118.991 143.84,120.491 134.5,116C 123.687,102.984 125.687,92.4838 140.5,84.5 Z"/></g>
<g><path style="opacity:1" fill="#040404" d="M 226.5,84.5 C 241.88,84.7095 248.38,92.3762 246,107.5C 240.747,118.039 232.581,121.206 221.5,117C 211.797,109.557 210.297,100.724 217,90.5C 219.843,87.8373 223.009,85.8373 226.5,84.5 Z"/></g>
<g><path style="opacity:1" fill="#040404" d="M 311.5,84.5 C 326.13,84.6287 332.963,91.962 332,106.5C 326.403,118.367 317.57,121.534 305.5,116C 295.866,106.002 296.199,96.3351 306.5,87C 308.315,86.2432 309.981,85.4098 311.5,84.5 Z"/></g>
<g><path style="opacity:1" fill="#fea812" d="M 383.5,90.5 C 383.667,145.501 383.5,200.501 383,255.5C 378.128,251.709 372.628,249.375 366.5,248.5C 366.5,201.167 366.5,153.833 366.5,106.5C 372.167,101.167 377.833,95.8333 383.5,90.5 Z"/></g>
<g><path style="opacity:1" fill="#7d7d7b" d="M 196.5,132.5 C 196.5,170.5 196.5,208.5 196.5,246.5C 204.833,246.5 213.167,246.5 221.5,246.5C 213.016,247.493 204.349,247.826 195.5,247.5C 195.168,208.996 195.501,170.663 196.5,132.5 Z"/></g>
<g><path style="opacity:1" fill="#353535" d="M 177.5,155.5 C 177.56,154.957 177.893,154.624 178.5,154.5C 179.83,185.331 179.83,215.997 178.5,246.5C 178.831,215.995 178.498,185.662 177.5,155.5 Z"/></g>
<g><path style="opacity:1" fill="#6b6b6a" d="M 238.5,246.5 C 246.833,246.5 255.167,246.5 263.5,246.5C 263.5,216.167 263.5,185.833 263.5,155.5C 264.499,185.426 264.833,216.093 264.5,247.5C 255.651,247.826 246.984,247.493 238.5,246.5 Z"/></g>
<g><path style="opacity:1" fill="#737372" d="M 136.5,187.5 C 136.5,207.5 136.5,227.5 136.5,247.5C 127.651,247.826 118.984,247.493 110.5,246.5C 118.833,246.5 127.167,246.5 135.5,246.5C 135.17,226.66 135.503,206.993 136.5,187.5 Z"/></g>
<g><path style="opacity:1" fill="#888886" d="M 323.5,187.5 C 324.497,206.993 324.83,226.66 324.5,246.5C 332.833,246.5 341.167,246.5 349.5,246.5C 341.016,247.493 332.349,247.826 323.5,247.5C 323.5,227.5 323.5,207.5 323.5,187.5 Z"/></g>
<g><path style="opacity:0.78" fill="#424242" d="M 418.5,247.5 C 418.5,252.833 418.5,258.167 418.5,263.5C 423.833,263.5 429.167,263.5 434.5,263.5C 434.183,259.298 434.517,255.298 435.5,251.5C 435.5,255.833 435.5,260.167 435.5,264.5C 429.5,264.5 423.5,264.5 417.5,264.5C 417.178,258.642 417.511,252.975 418.5,247.5 Z"/></g>
<g><path style="opacity:1" fill="#f9b12f" d="M 315.5,293.5 C 314.566,292.432 314.232,291.099 314.5,289.5C 223.833,289.5 133.167,289.5 42.5,289.5C 43.5049,275.655 50.8382,267.155 64.5,264C 150.835,263.167 237.169,263.333 323.5,264.5C 317.173,273.149 314.506,282.816 315.5,293.5 Z"/></g>
<g><path style="opacity:1" fill="#e64d4d" d="M 381.5,280.5 C 373.5,280.5 365.5,280.5 357.5,280.5C 357.5,286.5 357.5,292.5 357.5,298.5C 365.5,298.5 373.5,298.5 381.5,298.5C 376.071,311.22 366.404,316.72 352.5,315C 333.154,306.964 327.987,293.464 337,274.5C 347.664,263.338 359.83,261.505 373.5,269C 377.296,272.107 379.963,275.94 381.5,280.5 Z"/></g>
<g><path style="opacity:1" fill="#674444" d="M 381.5,280.5 C 374.018,281.492 366.352,281.825 358.5,281.5C 358.5,286.833 358.5,292.167 358.5,297.5C 366.352,297.175 374.018,297.508 381.5,298.5C 373.5,298.5 365.5,298.5 357.5,298.5C 357.5,292.5 357.5,286.5 357.5,280.5C 365.5,280.5 373.5,280.5 381.5,280.5 Z"/></g>
<g><path style="opacity:1" fill="#fea812" d="M 42.5,289.5 C 133.167,289.5 223.833,289.5 314.5,289.5C 314.232,291.099 314.566,292.432 315.5,293.5C 316.644,300.601 318.978,307.267 322.5,313.5C 236.002,314.499 149.335,314.833 62.5,314.5C 54.0804,312.244 47.9137,307.244 44,299.5C 42.8011,296.274 42.3011,292.941 42.5,289.5 Z"/></g>
<g><path style="opacity:1" fill="#ba7b0c" d="M 322.5,313.5 C 323.043,313.56 323.376,313.893 323.5,314.5C 236.334,315.832 149.334,315.832 62.5,314.5C 149.335,314.833 236.002,314.499 322.5,313.5 Z"/></g>
<g><path style="opacity:1" fill="#5cc9d7" d="M 381.5,324.5 C 382.828,329.288 383.495,334.454 383.5,340C 385.734,370.549 373.068,392.216 345.5,405C 340.565,406.638 335.565,407.971 330.5,409C 263.167,409.667 195.833,409.667 128.5,409C 102.074,403.907 85.2411,388.407 78,362.5C 76.6687,352.55 76.1687,342.55 76.5,332.5C 82.1667,332.5 87.8333,332.5 93.5,332.5C 93.3336,340.174 93.5003,347.841 94,355.5C 97.5147,374.015 108.348,385.849 126.5,391C 195.5,391.667 264.5,391.667 333.5,391C 350.035,386.465 360.535,375.965 365,359.5C 366.187,350.217 366.853,340.883 367,331.5C 372.343,330.009 377.176,327.676 381.5,324.5 Z"/></g>
<g><path style="opacity:1" fill="#4daab7" d="M 348.5,354.5 C 348.5,349.833 348.5,345.167 348.5,340.5C 269.167,340.5 189.833,340.5 110.5,340.5C 110.5,337.833 110.5,335.167 110.5,332.5C 190.167,332.5 269.833,332.5 349.5,332.5C 349.825,340.019 349.492,347.352 348.5,354.5 Z"/></g>
<g><path style="opacity:1" fill="#3fb6c6" d="M 110.5,340.5 C 189.833,340.5 269.167,340.5 348.5,340.5C 348.5,345.167 348.5,349.833 348.5,354.5C 346.628,364.212 340.961,370.712 331.5,374C 263.833,374.667 196.167,374.667 128.5,374C 114.034,367.577 108.034,356.41 110.5,340.5 Z"/></g>
<g><path style="opacity:1" fill="#47acd8" d="M 263.5,426.5 C 241.702,448.799 219.702,470.965 197.5,493C 173.836,493.5 150.169,493.667 126.5,493.5C 98.7978,487.466 82.2978,470.466 77,442.5C 76.3333,427.833 76.3333,413.167 77,398.5C 90.294,414.065 107.127,423.232 127.5,426C 172.832,426.5 218.165,426.667 263.5,426.5 Z"/></g>
<g><path style="opacity:1" fill="#42a0c8" d="M 126.5,493.5 C 150.169,493.667 173.836,493.5 197.5,493C 219.702,470.965 241.702,448.799 263.5,426.5C 287.864,426.918 312.198,426.418 336.5,425C 355.047,421.478 370.547,412.644 383,398.5C 383.667,412.833 383.667,427.167 383,441.5C 379.677,464.309 367.51,480.475 346.5,490C 341.305,491.933 335.972,493.267 330.5,494C 262.332,494.832 194.332,494.665 126.5,493.5 Z"/></g>
</svg>
