<?xml version="1.0" encoding="UTF-8"?>
<!DOCTYPE svg PUBLIC "-//W3C//DTD SVG 1.1//EN" "http://www.w3.org/Graphics/SVG/1.1/DTD/svg11.dtd">
<svg xmlns="http://www.w3.org/2000/svg" version="1.1" width="512px" height="512px" style="shape-rendering:geometricPrecision; text-rendering:geometricPrecision; image-rendering:optimizeQuality; fill-rule:evenodd; clip-rule:evenodd" xmlns:xlink="http://www.w3.org/1999/xlink">
<g><path style="opacity:0.974" fill="#010101" d="M 259.5,7.5 C 262.187,7.33591 264.854,7.50258 267.5,8C 296.925,30.7726 329.925,38.6059 366.5,31.5C 372.544,30.7699 375.711,33.4366 376,39.5C 376.333,56.5 376.667,73.5 377,90.5C 394.505,99.5806 411.172,109.914 427,121.5C 438.551,87.9481 461.217,65.9481 495,55.5C 498.668,55.0003 501.334,56.3336 503,59.5C 503.667,62.5 503.667,65.5 503,68.5C 495.599,90.8703 488.099,113.204 480.5,135.5C 488.099,157.796 495.599,180.13 503,202.5C 503.837,206.295 503.504,209.961 502,213.5C 496.481,216.151 490.981,215.984 485.5,213C 456.604,200.44 437.104,179.273 427,149.5C 419.306,155.36 411.473,161.027 403.5,166.5C 407.333,176.167 411.167,185.833 415,195.5C 415.929,199.244 415.429,202.744 413.5,206C 402.234,207.166 390.9,208.166 379.5,209C 367.946,211.524 358.113,217.024 350,225.5C 343.468,245.898 330.301,252.064 310.5,244C 296.167,234.333 281.833,224.667 267.5,215C 252.178,215.123 236.845,215.457 221.5,216C 219.402,220.628 217.902,225.462 217,230.5C 216.075,240.148 215.408,249.815 215,259.5C 213.471,262.516 210.971,263.849 207.5,263.5C 191.238,257.734 176.571,249.234 163.5,238C 150.633,226.811 139.633,214.144 130.5,200C 121.167,197.333 111.833,194.667 102.5,192C 75.1667,191.667 47.8333,191.333 20.5,191C 9.11313,186.225 4.94647,177.725 8,165.5C 10.0961,160.973 12.9294,156.973 16.5,153.5C 7.58191,146.059 5.08191,136.725 9,125.5C 10.4669,122.734 12.3002,120.234 14.5,118C 33.8333,106.333 53.1667,94.6667 72.5,83C 78.2643,79.7841 84.2643,77.1175 90.5,75C 117.78,69.4108 145.113,64.0774 172.5,59C 185.456,57.2464 198.456,55.9131 211.5,55C 227.395,38.9377 243.395,23.1043 259.5,7.5 Z"/></g>
<g><path style="opacity:1" fill="#86909d" d="M 333.5,50.5 C 338.316,51.3261 343.316,51.8261 348.5,52C 345.116,58.7132 340.95,64.8799 336,70.5C 334.89,72.0368 333.39,72.7035 331.5,72.5C 300.178,63.1362 268.178,57.3029 235.5,55C 245.042,45.1238 254.875,35.6238 265,26.5C 285.51,40.9489 308.344,48.9489 333.5,50.5 Z"/></g>
<g><path style="opacity:1" fill="#737f8d" d="M 331.5,72.5 C 333.39,72.7035 334.89,72.0368 336,70.5C 340.95,64.8799 345.116,58.7132 348.5,52C 343.316,51.8261 338.316,51.3261 333.5,50.5C 342.188,50.5865 350.854,50.2532 359.5,49.5C 359.667,60.8382 359.5,72.1716 359,83.5C 349.79,79.7131 340.624,76.0465 331.5,72.5 Z"/></g>
<g><path style="opacity:1" fill="#bfc6cf" d="M 208.5,71.5 C 285.711,69.1326 355.378,90.4659 417.5,135.5C 365.825,175.306 307.159,196.639 241.5,199.5C 242.176,195.813 243.676,192.48 246,189.5C 251.015,184.318 256.181,179.318 261.5,174.5C 264.37,170.363 264.037,166.529 260.5,163C 232.599,156.26 206.266,160.26 181.5,175C 174.244,180.543 166.744,185.709 159,190.5C 150.284,188.532 141.784,186.032 133.5,183C 143.869,179.823 154.203,176.49 164.5,173C 180.04,165.289 188.707,152.789 190.5,135.5C 201.5,135.5 212.5,135.5 223.5,135.5C 223.5,130.167 223.5,124.833 223.5,119.5C 212.167,119.5 200.833,119.5 189.5,119.5C 188.401,112.963 185.901,106.963 182,101.5C 173.784,92.4447 164.284,85.1113 153.5,79.5C 160.393,77.5545 167.393,76.0545 174.5,75C 185.951,73.4997 197.284,72.333 208.5,71.5 Z"/></g>
<g><path style="opacity:1" fill="#858f9c" d="M 480.5,78.5 C 481.239,78.369 481.906,78.5357 482.5,79C 475.575,97.4405 469.242,116.107 463.5,135C 469.914,154.389 475.914,173.555 481.5,192.5C 459.85,179.177 445.85,160.177 439.5,135.5C 445.932,111.101 459.599,92.1014 480.5,78.5 Z"/></g>
<g><path style="opacity:1" fill="#a6aeba" d="M 106.5,87.5 C 133.496,85.3152 155.33,94.6486 172,115.5C 178.733,131.304 175.567,144.804 162.5,156C 143.337,163.165 123.837,169.332 104,174.5C 78.12,163.144 52.2867,151.644 26.5,140C 22.5,136.667 22.5,133.333 26.5,130C 44.9991,119.252 63.3324,108.252 81.5,97C 89.5151,92.6452 97.8484,89.4785 106.5,87.5 Z"/></g>
<g><path style="opacity:1" fill="#040404" d="M 98.5,95.5 C 114.689,95.1771 121.189,102.844 118,118.5C 111.499,127.834 103.332,129.667 93.5,124C 84.202,112.543 85.8686,103.043 98.5,95.5 Z"/></g>
<g><path style="opacity:1" fill="#000000" d="M 239.5,119.5 C 255.5,119.5 271.5,119.5 287.5,119.5C 287.5,124.833 287.5,130.167 287.5,135.5C 271.5,135.5 255.5,135.5 239.5,135.5C 239.5,130.167 239.5,124.833 239.5,119.5 Z"/></g>
<g><path style="opacity:1" fill="#000000" d="M 303.5,119.5 C 319.5,119.5 335.5,119.5 351.5,119.5C 351.5,124.833 351.5,130.167 351.5,135.5C 335.5,135.5 319.5,135.5 303.5,135.5C 303.5,130.167 303.5,124.833 303.5,119.5 Z"/></g>
<g><path style="opacity:1" fill="#858f9d" d="M 33.5,160.5 C 44.1792,165.23 54.8459,170.063 65.5,175C 52.1667,175.667 38.8333,175.667 25.5,175C 23.7888,173.867 23.2888,172.367 24,170.5C 27.3709,167.297 30.5375,163.964 33.5,160.5 Z"/></g>
<g><path style="opacity:1" fill="#a1a9b5" d="M 226.5,175.5 C 229.85,175.335 233.183,175.502 236.5,176C 230.243,182.68 226.243,190.513 224.5,199.5C 209.973,199.331 195.639,197.665 181.5,194.5C 195.049,184.554 210.049,178.221 226.5,175.5 Z"/></g>
<g><path style="opacity:1" fill="#838d9b" d="M 387.5,174.5 C 388.497,174.47 389.164,174.97 389.5,176C 391.362,180.89 393.362,185.724 395.5,190.5C 373.807,190.672 354.973,198.006 339,212.5C 335.555,217.055 332.888,222.055 331,227.5C 327.832,231.533 323.999,232.367 319.5,230C 309.659,223.58 299.993,216.913 290.5,210C 324.96,203.573 357.293,191.74 387.5,174.5 Z"/></g>
<g><path style="opacity:1" fill="#858f9c" d="M 200.5,213.5 C 197.297,221.539 191.964,227.873 184.5,232.5C 173.788,225.627 164.455,217.127 156.5,207C 171.043,209.606 185.71,211.772 200.5,213.5 Z"/></g>
<g><path style="opacity:1" fill="#737e8d" d="M 200.5,213.5 C 201.87,213.856 202.87,214.69 203.5,216C 200.803,224.625 199.303,233.458 199,242.5C 194.013,239.267 189.18,235.934 184.5,232.5C 191.964,227.873 197.297,221.539 200.5,213.5 Z"/></g>
<g><path style="opacity:0.976" fill="#010101" d="M 243.5,247.5 C 246.978,247.184 250.312,247.684 253.5,249C 268.833,264.333 284.167,279.667 299.5,295C 316.614,296.05 333.614,298.05 350.5,301C 374.898,305.746 399.232,310.746 423.5,316C 448.291,329.228 472.624,343.228 496.5,358C 503.535,365.653 505.369,374.486 502,384.5C 499.956,387.949 497.456,390.949 494.5,393.5C 503.41,401.069 505.91,410.402 502,421.5C 499.359,426.144 495.525,429.311 490.5,431C 463.167,431.333 435.833,431.667 408.5,432C 399.167,434.667 389.833,437.333 380.5,440C 362.319,468.185 337.986,489.185 307.5,503C 304.036,503.817 300.702,503.483 297.5,502C 296.874,501.25 296.374,500.416 296,499.5C 295.592,489.815 294.925,480.148 294,470.5C 293.098,465.462 291.598,460.628 289.5,456C 274.155,455.457 258.822,455.123 243.5,455C 227.349,466.487 210.682,477.153 193.5,487C 176.367,489.509 165.534,482.342 161,465.5C 152.887,457.024 143.054,451.524 131.5,449C 120.1,448.166 108.766,447.166 97.5,446C 95.5715,442.744 95.0715,439.244 96,435.5C 99.8333,425.833 103.667,416.167 107.5,406.5C 99.5269,401.027 91.6935,395.36 84,389.5C 72.4094,423.259 49.5761,445.259 15.5,455.5C 13.0741,455.596 10.9074,454.93 9,453.5C 7.4961,449.961 7.16277,446.295 8,442.5C 15.4012,420.13 22.9012,397.796 30.5,375.5C 22.9012,353.204 15.4012,330.87 8,308.5C 7.04413,304.428 7.54413,300.595 9.5,297C 14.9555,294.901 20.2889,295.234 25.5,298C 54.3956,310.56 73.8956,331.727 84,361.5C 99.9142,349.787 116.748,339.454 134.5,330.5C 135.333,312.176 135.833,293.842 136,275.5C 137.804,272.183 140.637,270.85 144.5,271.5C 181.386,278.994 214.386,270.994 243.5,247.5 Z"/></g>
<g><path style="opacity:1" fill="#86909e" d="M 179.5,312.5 C 178.448,312.649 177.448,312.483 176.5,312C 171.095,305.858 166.428,299.191 162.5,292C 167.684,291.826 172.684,291.326 177.5,290.5C 202.494,288.558 225.327,280.558 246,266.5C 256.125,275.624 265.958,285.124 275.5,295C 242.769,297.018 210.769,302.852 179.5,312.5 Z"/></g>
<g><path style="opacity:1" fill="#737f8e" d="M 177.5,290.5 C 172.684,291.326 167.684,291.826 162.5,292C 166.428,299.191 171.095,305.858 176.5,312C 177.448,312.483 178.448,312.649 179.5,312.5C 170.228,315.652 161.062,319.319 152,323.5C 151.5,312.172 151.333,300.838 151.5,289.5C 160.133,290.377 168.8,290.711 177.5,290.5 Z"/></g>
<g><path style="opacity:1" fill="#bfc6cf" d="M 264.5,311.5 C 295.5,310.205 326.166,312.705 356.5,319C 356.833,319.333 357.167,319.667 357.5,320C 341.391,327.109 329.558,338.609 322,354.5C 321.506,356.134 321.34,357.801 321.5,359.5C 310.167,359.5 298.833,359.5 287.5,359.5C 287.5,364.833 287.5,370.167 287.5,375.5C 298.5,375.5 309.5,375.5 320.5,375.5C 322.691,393.525 332.025,406.358 348.5,414C 358.109,417.153 367.775,420.153 377.5,423C 368.982,425.421 360.482,427.921 352,430.5C 338.946,420.134 324.612,411.8 309,405.5C 293.197,400.67 277.03,398.837 260.5,400C 256.902,400.154 253.569,401.154 250.5,403C 246.963,406.529 246.63,410.363 249.5,414.5C 258.156,421.317 265.156,429.483 270.5,439C 204.851,437.009 146.018,416.175 94,376.5C 93.3828,375.551 93.5494,374.718 94.5,374C 145.402,337.642 202.069,316.809 264.5,311.5 Z"/></g>
<g><path style="opacity:1" fill="#858f9d" d="M 28.5,319.5 C 28.56,318.957 28.8933,318.624 29.5,318.5C 51.1499,331.823 65.1499,350.823 71.5,375.5C 65.1499,400.177 51.1499,419.177 29.5,432.5C 35.0862,413.555 41.0862,394.389 47.5,375C 41.8302,356.155 35.4969,337.655 28.5,319.5 Z"/></g>
<g><path style="opacity:1" fill="#a6aeba" d="M 385.5,327.5 C 397.991,326.287 409.991,328.12 421.5,333C 443.858,345.372 465.692,358.538 487,372.5C 487.667,374.167 487.667,375.833 487,377.5C 461.394,390.052 435.561,402.219 409.5,414C 406.101,414.546 402.768,414.213 399.5,413C 385.167,408.667 370.833,404.333 356.5,400C 338.163,391.158 331.997,376.991 338,357.5C 349.524,340.814 365.357,330.814 385.5,327.5 Z"/></g>
<g><path style="opacity:1" fill="#040404" d="M 402.5,335.5 C 418.689,335.177 425.189,342.844 422,358.5C 415.499,367.834 407.332,369.667 397.5,364C 388.202,352.543 389.869,343.043 402.5,335.5 Z"/></g>
<g><path style="opacity:1" fill="#000000" d="M 159.5,359.5 C 175.5,359.5 191.5,359.5 207.5,359.5C 207.5,364.833 207.5,370.167 207.5,375.5C 191.5,375.5 175.5,375.5 159.5,375.5C 159.5,370.167 159.5,364.833 159.5,359.5 Z"/></g>
<g><path style="opacity:1" fill="#000000" d="M 223.5,359.5 C 239.5,359.5 255.5,359.5 271.5,359.5C 271.5,364.833 271.5,370.167 271.5,375.5C 255.5,375.5 239.5,375.5 223.5,375.5C 223.5,370.167 223.5,364.833 223.5,359.5 Z"/></g>
<g><path style="opacity:1" fill="#858f9d" d="M 476.5,400.5 C 480.131,403.629 483.631,406.963 487,410.5C 487.711,412.367 487.211,413.867 485.5,415C 472.167,415.667 458.833,415.667 445.5,415C 455.924,410.118 466.257,405.285 476.5,400.5 Z"/></g>
<g><path style="opacity:1" fill="#727e8d" d="M 129.5,418.5 C 128.874,423.352 129.874,428.019 132.5,432.5C 126.85,431.922 121.183,431.255 115.5,430.5C 117.836,425.157 120.169,419.824 122.5,414.5C 125.059,415.608 127.392,416.941 129.5,418.5 Z"/></g>
<g><path style="opacity:1" fill="#a4acb7" d="M 274.5,416.5 C 294.588,415.863 312.588,421.863 328.5,434.5C 314.708,437.885 300.708,439.218 286.5,438.5C 284.562,429.952 280.562,422.618 274.5,416.5 Z"/></g>
<g><path style="opacity:1" fill="#858f9d" d="M 129.5,418.5 C 157.952,433.319 187.952,443.985 219.5,450.5C 210.379,457.234 201.045,463.734 191.5,470C 187.001,472.367 183.168,471.533 180,467.5C 174.459,452.293 163.959,442.127 148.5,437C 143.287,434.983 137.954,433.483 132.5,432.5C 129.874,428.019 128.874,423.352 129.5,418.5 Z"/></g>
<g><path style="opacity:1" fill="#848e9b" d="M 326.5,472.5 C 319.808,468.14 314.474,462.474 310.5,455.5C 310.863,454.817 311.196,454.15 311.5,453.5C 325.872,451.326 340.206,449.16 354.5,447C 346.545,457.127 337.212,465.627 326.5,472.5 Z"/></g>
<g><path style="opacity:1" fill="#727e8d" d="M 311.5,453.5 C 311.196,454.15 310.863,454.817 310.5,455.5C 314.474,462.474 319.808,468.14 326.5,472.5C 321.82,475.934 316.987,479.267 312,482.5C 311.298,472.696 309.798,463.029 307.5,453.5C 308.833,453.5 310.167,453.5 311.5,453.5 Z"/></g>
</svg>
