<?xml version="1.0" encoding="UTF-8"?>
<!DOCTYPE svg PUBLIC "-//W3C//DTD SVG 1.1//EN" "http://www.w3.org/Graphics/SVG/1.1/DTD/svg11.dtd">
<svg xmlns="http://www.w3.org/2000/svg" version="1.1" width="512px" height="512px" style="shape-rendering:geometricPrecision; text-rendering:geometricPrecision; image-rendering:optimizeQuality; fill-rule:evenodd; clip-rule:evenodd" xmlns:xlink="http://www.w3.org/1999/xlink">
<g><path style="opacity:0.959" fill="#1d1d1b" d="M 77.5,59.5 C 106.755,56.7522 132.255,65.0855 154,84.5C 154.667,87.5 154.667,90.5 154,93.5C 127.815,120.238 96.982,128.071 61.5,117C 50.851,108.263 47.0176,97.096 50,83.5C 54.3774,69.9528 63.544,61.9528 77.5,59.5 Z"/></g>
<g><path style="opacity:0.96" fill="#1d1d1b" d="M 343.5,62.5 C 370.12,64.2782 381.286,78.2782 377,104.5C 366.141,133.525 345.975,152.858 316.5,162.5C 313.833,160.833 311.167,159.167 308.5,157.5C 301.059,158.966 293.726,158.466 286.5,156C 260.79,144.623 242.956,125.79 233,99.5C 232.651,95.5258 233.985,92.1924 237,89.5C 262.43,82.3743 286.93,84.7076 310.5,96.5C 314.453,84.4011 321.453,74.5678 331.5,67C 335.432,64.9716 339.432,63.4716 343.5,62.5 Z"/></g>
<g><path style="opacity:1" fill="#3e3c3c" d="M 79.5,70.5 C 102.754,68.8097 123.421,75.1431 141.5,89.5C 122.909,105.752 101.242,112.919 76.5,111C 63.8269,107.166 58.6602,98.6655 61,85.5C 64.6489,77.2749 70.8156,72.2749 79.5,70.5 Z"/></g>
<g><path style="opacity:1" fill="#f9d995" d="M 341.5,74.5 C 361.348,74.5096 369.181,84.1762 365,103.5C 355.854,125.147 340.354,140.147 318.5,148.5C 312.751,122.67 318.084,99.5036 334.5,79C 336.898,77.4758 339.231,75.9758 341.5,74.5 Z"/></g>
<g><path style="opacity:0.961" fill="#1d1d1b" d="M 192.5,97.5 C 218.37,99.2664 229.536,112.933 226,138.5C 215.591,168.075 195.424,187.741 165.5,197.5C 163.004,196.42 160.67,195.086 158.5,193.5C 149.812,164.434 153.646,137.101 170,111.5C 175.794,103.864 183.294,99.1976 192.5,97.5 Z"/></g>
<g><path style="opacity:1" fill="#3e3c3c" d="M 256.5,96.5 C 273.72,95.925 290.053,99.425 305.5,107C 306.574,107.739 307.241,108.739 307.5,110C 306.101,115.572 305.434,121.239 305.5,127C 305.867,133.502 306.2,140.002 306.5,146.5C 301.821,146.666 297.155,146.499 292.5,146C 269.915,136.916 254.249,121.083 245.5,98.5C 249.36,98.1916 253.026,97.5249 256.5,96.5 Z"/></g>
<g><path style="opacity:1" fill="#3e3c3c" d="M 190.5,109.5 C 208.553,109.049 216.72,117.716 215,135.5C 206.338,158.662 190.505,174.662 167.5,183.5C 162.238,159.646 166.405,137.646 180,117.5C 182.94,113.963 186.44,111.297 190.5,109.5 Z"/></g>
<g><path style="opacity:0.957" fill="#1d1d1b" d="M 385.5,133.5 C 409.531,131.754 431.198,137.921 450.5,152C 462.954,164.954 464.454,179.121 455,194.5C 446.49,204.671 435.657,208.504 422.5,206C 392.427,195.761 372.094,175.594 361.5,145.5C 362.706,142.921 364.039,140.421 365.5,138C 372.201,136.03 378.868,134.53 385.5,133.5 Z"/></g>
<g><path style="opacity:1" fill="#3e3c3c" d="M 379.5,145.5 C 401.027,142.784 421.027,146.951 439.5,158C 452.702,169.653 452.702,181.32 439.5,193C 430.87,196.548 422.537,195.881 414.5,191C 395.568,181.261 382.568,166.428 375.5,146.5C 377.099,146.768 378.432,146.434 379.5,145.5 Z"/></g>
<g><path style="opacity:0.956" fill="#1d1d1b" d="M 100.5,154.5 C 113.999,153.666 124.833,158.666 133,169.5C 144.865,186.946 150.865,206.279 151,227.5C 159.819,209.176 173.985,203.01 193.5,209C 201.667,213.167 207.833,219.333 212,227.5C 224.476,249.445 228.142,272.778 223,297.5C 218.742,304.023 213.242,305.189 206.5,301C 177.78,290.282 158.614,270.449 149,241.5C 148.564,246.776 145.731,250.109 140.5,251.5C 111.646,243.473 90.4792,226.139 77,199.5C 69.9423,176.457 77.7756,161.457 100.5,154.5 Z"/></g>
<g><path style="opacity:1" fill="#f9d995" d="M 99.5,166.5 C 112.067,165.228 121.234,170.228 127,181.5C 137.503,199.182 141.003,218.182 137.5,238.5C 118.473,231.749 103.307,220.083 92,203.5C 86.9968,196.188 84.9968,188.188 86,179.5C 89.101,173.563 93.601,169.23 99.5,166.5 Z"/></g>
<g><path style="opacity:0.957" fill="#1e1d1b" d="M 248.5,169.5 C 275.281,169.484 298.448,178.484 318,196.5C 318.667,199.833 318.667,203.167 318,206.5C 296.67,227.056 271.17,235.889 241.5,233C 218.858,227.563 210.024,213.396 215,190.5C 218.689,180.809 225.522,174.643 235.5,172C 239.965,171.126 244.298,170.293 248.5,169.5 Z"/></g>
<g><path style="opacity:1" fill="#f8d995" d="M 241.5,181.5 C 265.674,179.561 287.008,186.227 305.5,201.5C 286.697,218.537 264.697,225.037 239.5,221C 226.816,215.984 222.316,206.818 226,193.5C 229.619,187.367 234.786,183.367 241.5,181.5 Z"/></g>
<g><path style="opacity:0.952" fill="#1d1d1b" d="M 347.5,206.5 C 363.683,205.196 375.85,211.529 384,225.5C 397.292,247.916 401.292,271.916 396,297.5C 394.749,300.381 392.583,302.214 389.5,303C 361.521,296.701 340.687,280.868 327,255.5C 317.025,231.891 323.858,215.557 347.5,206.5 Z"/></g>
<g><path style="opacity:1" fill="#3e3c3c" d="M 177.5,217.5 C 186.067,217.299 192.9,220.632 198,227.5C 211.826,246.474 216.326,267.474 211.5,290.5C 190.517,282.676 174.683,269.009 164,249.5C 157.325,233.87 161.825,223.203 177.5,217.5 Z"/></g>
<g><path style="opacity:1" fill="#3e3c3c" d="M 350.5,217.5 C 359.043,217.294 365.876,220.627 371,227.5C 384.641,246.539 389.141,267.539 384.5,290.5C 361.659,281.82 345.159,266.487 335,244.5C 332.408,230.948 337.575,221.948 350.5,217.5 Z"/></g>
<g><path style="opacity:0.96" fill="#1d1d1b" d="M 299.5,247.5 C 305.842,247.334 312.175,247.5 318.5,248C 320,249.5 321.5,251 323,252.5C 322.212,264.98 319.545,276.98 315,288.5C 338.528,293.084 357.528,304.75 372,323.5C 380.991,340.362 378.157,354.862 363.5,367C 348.982,374.968 335.315,373.634 322.5,363C 308.319,350.986 298.319,336.152 292.5,318.5C 284.631,325.905 275.298,330.238 264.5,331.5C 245.792,329.256 235.459,318.756 233.5,300C 234.469,287.691 239.803,277.691 249.5,270C 264.137,257.846 280.803,250.346 299.5,247.5 Z"/></g>
<g><path style="opacity:0.954" fill="#1d1d1b" d="M 67.5,248.5 C 95.7774,247.534 120.277,256.534 141,275.5C 141.667,278.833 141.667,282.167 141,285.5C 116.986,307.88 88.8189,316.046 56.5,310C 39.8091,302.453 33.3091,289.619 37,271.5C 39.7353,261.098 46.2353,254.264 56.5,251C 60.3121,250.205 63.9788,249.371 67.5,248.5 Z"/></g>
<g><path style="opacity:1" fill="#3e3c3c" d="M 301.5,258.5 C 304.5,258.5 307.5,258.5 310.5,258.5C 309.393,268.324 306.56,277.657 302,286.5C 290.786,287.761 286.452,294.094 289,305.5C 282.366,312.993 274.199,317.659 264.5,319.5C 249.766,317.055 243.599,308.388 246,293.5C 255.255,278.921 268.089,268.755 284.5,263C 290.294,261.491 295.961,259.991 301.5,258.5 Z"/></g>
<g><path style="opacity:1" fill="#3e3c3c" d="M 64.5,260.5 C 88.6165,258.54 109.95,265.207 128.5,280.5C 107.763,298.133 84.0964,303.966 57.5,298C 47.1939,290.67 44.6939,281.17 50,269.5C 54.0252,264.931 58.8585,261.931 64.5,260.5 Z"/></g>
<g><path style="opacity:0.959" fill="#1d1d1b" d="M 466.5,295.5 C 476.55,295.718 480.384,300.718 478,310.5C 473.382,337.744 459.882,359.244 437.5,375C 415.237,384.918 399.404,378.751 390,356.5C 387.966,346.26 389.966,336.927 396,328.5C 414.916,307.589 438.416,296.589 466.5,295.5 Z"/></g>
<g><path style="opacity:1" fill="#f9da95" d="M 306.5,299.5 C 330.621,302.136 349.788,313.136 364,332.5C 367.873,345.919 363.373,355.086 350.5,360C 341.59,361.051 333.923,358.384 327.5,352C 313.203,338.909 304.536,322.743 301.5,303.5C 301.5,302.167 301.5,300.833 301.5,299.5C 303.167,299.5 304.833,299.5 306.5,299.5 Z"/></g>
<g><path style="opacity:1" fill="#8d7d59" d="M 306.5,299.5 C 304.833,299.5 303.167,299.5 301.5,299.5C 301.5,300.833 301.5,302.167 301.5,303.5C 300.549,302.081 300.216,300.415 300.5,298.5C 302.735,298.205 304.735,298.539 306.5,299.5 Z"/></g>
<g><path style="opacity:1" fill="#3e3c3c" d="M 459.5,307.5 C 461.833,307.5 464.167,307.5 466.5,307.5C 463.099,331.82 451.432,350.987 431.5,365C 420.783,370.993 411.616,369.16 404,359.5C 399.402,352.138 399.402,344.804 404,337.5C 418.481,320.01 436.981,310.01 459.5,307.5 Z"/></g>
<g><path style="opacity:0.957" fill="#1e1e1b" d="M 163.5,311.5 C 194.008,310.386 219.508,321.053 240,343.5C 251.222,360.3 249.722,375.8 235.5,390C 221.466,398.756 207.799,398.09 194.5,388C 171.58,369.325 160.08,345.158 160,315.5C 161.376,314.295 162.542,312.962 163.5,311.5 Z"/></g>
<g><path style="opacity:0.955" fill="#1d1d1b" d="M 114.5,322.5 C 117.85,322.335 121.183,322.502 124.5,323C 145.847,345.71 154.347,372.544 150,403.5C 142.965,424.269 128.798,431.769 107.5,426C 98.8498,422.559 93.0165,416.392 90,407.5C 84.7724,382.407 89.1057,359.074 103,337.5C 106.666,332.339 110.499,327.339 114.5,322.5 Z"/></g>
<g><path style="opacity:1" fill="#f9d995" d="M 170.5,322.5 C 195.373,323.855 215.873,333.855 232,352.5C 238.881,363.833 237.048,373.666 226.5,382C 216.973,386.201 208.306,384.868 200.5,378C 183.841,363.156 173.841,344.656 170.5,322.5 Z"/></g>
<g><path style="opacity:1" fill="#3e3c3c" d="M 118.5,335.5 C 132.699,350.056 139.699,367.723 139.5,388.5C 140.936,409.909 131.269,418.742 110.5,415C 104.636,411.438 101.136,406.272 100,399.5C 97.7013,381.396 101.035,364.396 110,348.5C 113.082,344.266 115.916,339.933 118.5,335.5 Z"/></g>
<g><path style="opacity:0.955" fill="#1d1d1b" d="M 279.5,346.5 C 282.85,346.335 286.183,346.502 289.5,347C 310.229,369.521 318.729,396.021 315,426.5C 309.494,445.983 296.66,454.15 276.5,451C 262.443,446.762 254.61,437.262 253,422.5C 250.823,393.193 259.656,367.86 279.5,346.5 Z"/></g>
<g><path style="opacity:1" fill="#3e3c3c" d="M 283.5,359.5 C 293.308,369.431 299.808,381.431 303,395.5C 304.474,404.454 304.807,413.454 304,422.5C 302.221,434.56 295.221,440.56 283,440.5C 273.683,439.518 267.683,434.518 265,425.5C 261.552,400.692 267.719,378.692 283.5,359.5 Z"/></g>
</svg>
