<?xml version="1.0" encoding="UTF-8"?>
<!DOCTYPE svg PUBLIC "-//W3C//DTD SVG 1.1//EN" "http://www.w3.org/Graphics/SVG/1.1/DTD/svg11.dtd">
<svg xmlns="http://www.w3.org/2000/svg" version="1.1" width="512px" height="512px" style="shape-rendering:geometricPrecision; text-rendering:geometricPrecision; image-rendering:optimizeQuality; fill-rule:evenodd; clip-rule:evenodd" xmlns:xlink="http://www.w3.org/1999/xlink">
<g><path style="opacity:0.969" fill="#010000" d="M 312.5,7.5 C 348.456,5.23133 369.289,21.898 375,57.5C 386.476,121.339 359.976,152.505 295.5,151C 283.185,148.01 273.685,141.177 267,130.5C 251.693,102.506 251.693,74.5061 267,46.5C 275.789,32.7108 286.956,21.2108 300.5,12C 304.571,10.3695 308.571,8.86954 312.5,7.5 Z"/></g>
<g><path style="opacity:1" fill="#883a1a" d="M 349.5,36.5 C 351.997,54.4174 352.164,72.4174 350,90.5C 347.721,99.5949 342.888,106.928 335.5,112.5C 329.707,96.7405 327.04,80.4071 327.5,63.5C 322.167,63.5 316.833,63.5 311.5,63.5C 310.907,82.7646 313.907,101.431 320.5,119.5C 320.53,120.497 320.03,121.164 319,121.5C 308.528,125.401 297.695,127.401 286.5,127.5C 276.298,116.073 271.298,102.573 271.5,87C 271.735,74.2962 275.568,62.7962 283,52.5C 288.793,45.0386 294.959,37.8719 301.5,31C 313.051,22.7004 325.385,21.3671 338.5,27C 342.949,29.2843 346.616,32.4509 349.5,36.5 Z"/></g>
<g><path style="opacity:1" fill="#511f06" d="M 349.5,36.5 C 354.697,43.5704 357.863,51.5704 359,60.5C 359.667,74.1667 359.667,87.8333 359,101.5C 356.798,112.023 351.131,120.023 342,125.5C 339.293,121.419 337.126,117.086 335.5,112.5C 342.888,106.928 347.721,99.5949 350,90.5C 352.164,72.4174 351.997,54.4174 349.5,36.5 Z"/></g>
<g><path style="opacity:0.968" fill="#010000" d="M 165.5,55.5 C 195.271,52.4798 214.438,65.1465 223,93.5C 225.497,114.849 220.497,134.183 208,151.5C 198.667,163.5 189.333,175.5 180,187.5C 165.446,205.24 146.946,211.407 124.5,206C 99.9494,197.91 87.6161,180.91 87.5,155C 87.7218,135.401 94.2218,118.234 107,103.5C 120.894,88.9369 135.394,75.1036 150.5,62C 155.367,59.2259 160.367,57.0593 165.5,55.5 Z"/></g>
<g><path style="opacity:1" fill="#873a1a" d="M 197.5,95.5 C 197.5,105.699 194.667,115.366 189,124.5C 176.26,141.911 162.76,158.744 148.5,175C 138.438,181.766 127.438,184.266 115.5,182.5C 106.845,174.846 102.845,165.179 103.5,153.5C 112.122,152.138 120.789,151.638 129.5,152C 136.011,153.51 141.177,157.01 145,162.5C 149.72,160.557 154.22,158.224 158.5,155.5C 150.495,141.411 138.328,134.744 122,135.5C 117.141,135.628 112.307,135.961 107.5,136.5C 109.111,129.389 112.278,123.056 117,117.5C 130.167,104.333 143.333,91.1667 156.5,78C 168.625,69.7393 180.958,69.406 193.5,77C 186.333,82.8333 179.833,89.3333 174,96.5C 169.496,103.519 167.329,111.186 167.5,119.5C 172.833,119.5 178.167,119.5 183.5,119.5C 184.036,109.096 188.702,101.096 197.5,95.5 Z"/></g>
<g><path style="opacity:1" fill="#511f06" d="M 115.5,182.5 C 127.438,184.266 138.438,181.766 148.5,175C 162.76,158.744 176.26,141.911 189,124.5C 194.667,115.366 197.5,105.699 197.5,95.5C 199.771,93.7341 201.937,91.7341 204,89.5C 207.194,95.8127 208.194,102.479 207,109.5C 205.715,121.731 201.382,132.731 194,142.5C 182.833,156.333 171.667,170.167 160.5,184C 144.968,194.504 129.968,194.004 115.5,182.5 Z"/></g>
<g><path style="opacity:1" fill="#511f06" d="M 320.5,119.5 C 322.454,123.408 324.454,127.408 326.5,131.5C 317.414,134.584 308.08,135.75 298.5,135C 293.626,133.738 289.626,131.238 286.5,127.5C 297.695,127.401 308.528,125.401 319,121.5C 320.03,121.164 320.53,120.497 320.5,119.5 Z"/></g>
<g><path style="opacity:0.966" fill="#000000" d="M 276.5,175.5 C 315.971,171.803 332.471,189.47 326,228.5C 320.039,251.456 306.872,268.956 286.5,281C 259.169,296.762 230.502,299.762 200.5,290C 178.075,275.958 170.575,256.125 178,230.5C 181.8,220.385 188.3,212.552 197.5,207C 216.57,196.631 236.237,187.631 256.5,180C 263.259,178.285 269.925,176.785 276.5,175.5 Z"/></g>
<g><path style="opacity:1" fill="#883a1a" d="M 302.5,194.5 C 304.689,228.791 290.356,253.457 259.5,268.5C 251.974,260.429 247.974,250.762 247.5,239.5C 242.167,239.5 236.833,239.5 231.5,239.5C 231.717,252.816 235.717,264.816 243.5,275.5C 236.361,277.615 229.027,278.615 221.5,278.5C 199.901,275.059 190.067,262.392 192,240.5C 194.05,232.898 198.217,226.731 204.5,222C 223.57,211.631 243.237,202.631 263.5,195C 274.645,191.87 285.978,190.87 297.5,192C 299.193,192.847 300.86,193.68 302.5,194.5 Z"/></g>
<g><path style="opacity:1" fill="#511f06" d="M 302.5,194.5 C 308.523,198.711 311.523,204.544 311.5,212C 309.83,236.345 298.497,254.678 277.5,267C 273.255,269.039 269.088,271.206 265,273.5C 262.809,272.167 260.976,270.5 259.5,268.5C 290.356,253.457 304.689,228.791 302.5,194.5 Z"/></g>
<g><path style="opacity:0.973" fill="#010000" d="M 86.5,247.5 C 122.339,245.163 147.173,260.496 161,293.5C 163.072,299.048 164.738,304.715 166,310.5C 167.577,327.461 167.91,344.461 167,361.5C 163.328,381.033 153.495,396.533 137.5,408C 118.5,418 99.5,418 80.5,408C 71.8967,402.731 65.3967,395.564 61,386.5C 47.9634,354.38 43.6301,321.046 48,286.5C 53.0146,265.653 65.8479,252.653 86.5,247.5 Z"/></g>
<g><path style="opacity:1" fill="#873a1a" d="M 132.5,390.5 C 114.668,393.409 100.334,387.742 89.5,373.5C 96.1436,369.337 103.477,367.337 111.5,367.5C 111.5,362.167 111.5,356.833 111.5,351.5C 100.91,351.365 90.91,353.698 81.5,358.5C 77.1046,347.585 74.2713,336.252 73,324.5C 71.7169,308.193 71.2169,291.86 71.5,275.5C 77.6963,267.652 85.8629,263.652 96,263.5C 110.394,263.625 122.561,268.792 132.5,279C 99.8201,283.844 82.1534,302.678 79.5,335.5C 84.8333,335.5 90.1667,335.5 95.5,335.5C 96.9734,314.392 107.973,301.225 128.5,296C 133.751,295.196 138.918,295.363 144,296.5C 147.543,303.796 149.876,311.462 151,319.5C 152.121,334.931 151.455,350.265 149,365.5C 145.984,375.547 140.484,383.88 132.5,390.5 Z"/></g>
<g><path style="opacity:0.968" fill="#000000" d="M 353.5,263.5 C 372.503,263.333 391.503,263.5 410.5,264C 447.841,272.68 465.341,296.18 463,334.5C 458.833,352 448,362.833 430.5,367C 394.536,369.455 362.536,359.455 334.5,337C 320.632,324.706 316.132,309.54 321,291.5C 326.791,276.205 337.624,266.872 353.5,263.5 Z"/></g>
<g><path style="opacity:1" fill="#511f06" d="M 71.5,275.5 C 71.2169,291.86 71.7169,308.193 73,324.5C 74.2713,336.252 77.1046,347.585 81.5,358.5C 78.2079,360.776 74.8746,363.109 71.5,365.5C 67.5878,354.849 65.0878,343.849 64,332.5C 63.3333,318.167 63.3333,303.833 64,289.5C 65.2278,284.038 67.7278,279.371 71.5,275.5 Z"/></g>
<g><path style="opacity:1" fill="#4d1e07" d="M 243.5,275.5 C 244.627,276.122 245.627,276.955 246.5,278C 238.033,279.587 229.7,279.754 221.5,278.5C 229.027,278.615 236.361,277.615 243.5,275.5 Z"/></g>
<g><path style="opacity:1" fill="#873a1a" d="M 439.5,343.5 C 429.004,343.942 418.671,342.942 408.5,340.5C 406.19,328.735 408.19,317.735 414.5,307.5C 410.66,305.079 406.66,302.912 402.5,301C 401.365,300.251 400.365,300.417 399.5,301.5C 393.533,311.7 390.867,322.7 391.5,334.5C 373.564,328.463 358.731,318.129 347,303.5C 344.326,298.489 343.159,293.156 343.5,287.5C 346.852,283.485 351.185,280.985 356.5,280C 373.167,279.333 389.833,279.333 406.5,280C 433.665,285.485 447.165,301.985 447,329.5C 446.3,335.239 443.8,339.906 439.5,343.5 Z"/></g>
<g><path style="opacity:1" fill="#511f06" d="M 343.5,287.5 C 343.159,293.156 344.326,298.489 347,303.5C 358.731,318.129 373.564,328.463 391.5,334.5C 392.167,338.833 392.833,343.167 393.5,347.5C 372.706,343.188 354.873,333.521 340,318.5C 333.133,307.163 334.299,296.83 343.5,287.5 Z"/></g>
<g><path style="opacity:0.971" fill="#010000" d="M 248.5,319.5 C 281.575,316.616 304.075,330.616 316,361.5C 325.554,383.876 329.387,407.209 327.5,431.5C 331.863,455.265 325.53,475.431 308.5,492C 291.653,504.16 273.319,506.827 253.5,500C 245.557,496.721 238.723,491.888 233,485.5C 216.707,462.969 206.04,437.969 201,410.5C 194.641,383.954 199.641,359.954 216,338.5C 225.035,328.939 235.868,322.606 248.5,319.5 Z"/></g>
<g><path style="opacity:1" fill="#883a1a" d="M 297.5,362.5 C 302.363,379.96 304.363,397.794 303.5,416C 303.567,426.204 303.067,436.37 302,446.5C 300.774,449.952 299.274,453.285 297.5,456.5C 297.043,457.298 296.376,457.631 295.5,457.5C 285.352,448.534 280.019,437.2 279.5,423.5C 274.167,423.5 268.833,423.5 263.5,423.5C 264.039,441.904 271.039,457.237 284.5,469.5C 284.586,470.496 284.252,471.329 283.5,472C 273.672,477.954 263.006,480.454 251.5,479.5C 248.87,477.372 246.37,475.039 244,472.5C 227.929,448.956 218.596,422.956 216,394.5C 215.188,386.778 215.522,379.111 217,371.5C 217.333,371.167 217.667,370.833 218,370.5C 223.536,372.684 228.703,375.517 233.5,379C 238.988,384.321 244.321,389.821 249.5,395.5C 253.421,392.957 257.254,390.29 261,387.5C 252.853,372.536 240.686,361.869 224.5,355.5C 239.508,334.499 258.508,329.999 281.5,342C 289.123,347.096 294.456,353.929 297.5,362.5 Z"/></g>
<g><path style="opacity:1" fill="#501f05" d="M 408.5,340.5 C 418.671,342.942 429.004,343.942 439.5,343.5C 431.924,350.482 422.924,352.982 412.5,351C 410.674,347.688 409.34,344.188 408.5,340.5 Z"/></g>
<g><path style="opacity:1" fill="#511f06" d="M 297.5,362.5 C 308.48,383.898 313.147,406.731 311.5,431C 311.333,438.833 311.167,446.667 311,454.5C 310.466,458.305 309.466,461.971 308,465.5C 303.391,463.365 299.224,460.698 295.5,457.5C 296.376,457.631 297.043,457.298 297.5,456.5C 299.274,453.285 300.774,449.952 302,446.5C 303.067,436.37 303.567,426.204 303.5,416C 304.363,397.794 302.363,379.96 297.5,362.5 Z"/></g>
<g><path style="opacity:1" fill="#511f06" d="M 89.5,373.5 C 100.334,387.742 114.668,393.409 132.5,390.5C 117.619,401.772 102.286,402.272 86.5,392C 82.9383,388.942 79.9383,385.442 77.5,381.5C 80.8696,377.82 84.8696,375.154 89.5,373.5 Z"/></g>
<g><path style="opacity:1" fill="#501f06" d="M 284.5,469.5 C 288.54,472.865 292.873,475.865 297.5,478.5C 288.842,485.668 278.842,488.501 267.5,487C 261.451,485.806 256.118,483.306 251.5,479.5C 263.006,480.454 273.672,477.954 283.5,472C 284.252,471.329 284.586,470.496 284.5,469.5 Z"/></g>
</svg>
