<?xml version="1.0" encoding="UTF-8"?>
<!DOCTYPE svg PUBLIC "-//W3C//DTD SVG 1.1//EN" "http://www.w3.org/Graphics/SVG/1.1/DTD/svg11.dtd">
<svg xmlns="http://www.w3.org/2000/svg" version="1.1" width="512px" height="512px" style="shape-rendering:geometricPrecision; text-rendering:geometricPrecision; image-rendering:optimizeQuality; fill-rule:evenodd; clip-rule:evenodd" xmlns:xlink="http://www.w3.org/1999/xlink">
<g><path style="opacity:0.973" fill="#010000" d="M 417.5,467.5 C 393.759,479.412 369.092,488.745 343.5,495.5C 314.25,502.625 284.583,505.125 254.5,503C 230.377,499.763 208.377,491.263 188.5,477.5C 158.189,497.543 124.855,506.043 88.5,503C 50.0321,495.872 24.5321,473.705 12,436.5C 8.21605,424.794 6.71605,412.794 7.5,400.5C 8.14633,356.582 19.9797,315.915 43,278.5C 81.4267,215.757 135.26,171.59 204.5,146C 217.188,138.992 229.188,130.992 240.5,122C 252.561,117.222 263.394,119.055 273,127.5C 286.47,104.672 299.137,81.3386 311,57.5C 315.667,45.5 320.333,33.5 325,21.5C 333.453,9.56528 344.953,5.06528 359.5,8C 368.18,10.4235 374.68,15.5902 379,23.5C 383.274,35.6575 387.941,47.6575 393,59.5C 407.255,85.6748 421.255,112.008 435,138.5C 462.438,198.845 477.604,262.179 480.5,328.5C 503.526,336.739 509.36,351.739 498,373.5C 494.31,376.691 490.477,379.691 486.5,382.5C 477.076,410.878 461.076,434.711 438.5,454C 431.868,459.144 424.868,463.644 417.5,467.5 Z"/></g>
<g><path style="opacity:1" fill="#a34a2e" d="M 347.5,23.5 C 354.304,22.8217 359.804,25.155 364,30.5C 375.873,63.9102 391.206,95.5768 410,125.5C 442.828,187.139 459.995,252.806 461.5,322.5C 442.276,315.055 422.942,307.889 403.5,301C 360.205,287.605 316.205,284.439 271.5,291.5C 271.333,259.498 271.5,227.498 272,195.5C 272.517,178.103 276.184,161.437 283,145.5C 291.905,127.353 301.571,109.686 312,92.5C 322.65,72.5344 331.65,51.8677 339,30.5C 341.464,27.519 344.297,25.1856 347.5,23.5 Z"/></g>
<g><path style="opacity:1" fill="#c66349" d="M 249.5,136.5 C 251.167,136.5 252.833,136.5 254.5,136.5C 251.856,149.411 249.69,162.411 248,175.5C 247.833,212.838 247.333,250.171 246.5,287.5C 219.726,294.141 195.059,305.308 172.5,321C 138.612,351.722 129.779,388.555 146,431.5C 149.845,440.532 155.178,448.532 162,455.5C 162.667,456.167 162.667,456.833 162,457.5C 131.569,476.62 98.7358,482.953 63.5,476.5C 40.9343,462.048 27.7676,441.382 24,414.5C 21.9154,371.684 31.5821,331.684 53,294.5C 77.6351,249.864 111.802,214.364 155.5,188C 174.314,177.593 193.648,168.26 213.5,160C 225.923,152.731 237.923,144.897 249.5,136.5 Z"/></g>
<g><path style="opacity:1" fill="#a24a2e" d="M 249.5,136.5 C 257.976,134.41 262.643,137.743 263.5,146.5C 260.041,162.341 257.541,178.341 256,194.5C 255.833,228.172 255.333,261.838 254.5,295.5C 228.668,302.75 205.001,314.25 183.5,330C 149.124,364.814 142.624,404.314 164,448.5C 167.56,454.449 171.726,459.949 176.5,465C 148.68,482.872 118.346,489.872 85.5,486C 77.4737,484.146 70.1404,480.98 63.5,476.5C 98.7358,482.953 131.569,476.62 162,457.5C 162.667,456.833 162.667,456.167 162,455.5C 155.178,448.532 149.845,440.532 146,431.5C 129.779,388.555 138.612,351.722 172.5,321C 195.059,305.308 219.726,294.141 246.5,287.5C 247.333,250.171 247.833,212.838 248,175.5C 249.69,162.411 251.856,149.411 254.5,136.5C 252.833,136.5 251.167,136.5 249.5,136.5 Z"/></g>
<g><path style="opacity:1" fill="#050201" d="M 210.5,184.5 C 213.7,187.866 216.2,191.866 218,196.5C 218.749,197.635 218.583,198.635 217.5,199.5C 146.615,238.97 95.2814,295.97 63.5,370.5C 58.141,368.988 53.141,366.654 48.5,363.5C 82.9922,286.016 136.992,226.349 210.5,184.5 Z"/></g>
<g><path style="opacity:1" fill="#db7561" d="M 452.5,413.5 C 438.967,426.166 423.634,436.333 406.5,444C 373.709,458.726 339.375,467.56 303.5,470.5C 301.304,470.495 299.304,470.162 297.5,469.5C 317.262,465.447 336.929,460.947 356.5,456C 391.448,444.618 420.948,425.118 445,397.5C 445.688,396.668 445.521,396.002 444.5,395.5C 440.65,392.739 436.983,389.739 433.5,386.5C 407.792,416.7 375.459,436.2 336.5,445C 320.053,448.056 303.72,451.556 287.5,455.5C 287.167,456.5 286.833,457.5 286.5,458.5C 287.589,462.097 288.255,465.763 288.5,469.5C 254.861,473.244 224.527,464.411 197.5,443C 181.71,428.924 172.044,411.424 168.5,390.5C 171.849,368.304 182.516,350.471 200.5,337C 255.368,304.099 314.035,295.099 376.5,310C 384.833,312.333 393.167,314.667 401.5,317C 427.5,326.667 453.5,336.333 479.5,346C 487.049,348.93 489.216,354.097 486,361.5C 481.667,365.167 477.333,368.833 473,372.5C 469.61,379.336 466.61,386.336 464,393.5C 460.898,400.719 457.064,407.386 452.5,413.5 Z"/></g>
<g><path style="opacity:1" fill="#050202" d="M 297.5,469.5 C 294.444,470.588 291.444,470.588 288.5,469.5C 288.255,465.763 287.589,462.097 286.5,458.5C 286.833,457.5 287.167,456.5 287.5,455.5C 303.72,451.556 320.053,448.056 336.5,445C 375.459,436.2 407.792,416.7 433.5,386.5C 436.983,389.739 440.65,392.739 444.5,395.5C 445.521,396.002 445.688,396.668 445,397.5C 420.948,425.118 391.448,444.618 356.5,456C 336.929,460.947 317.262,465.447 297.5,469.5 Z"/></g>
<g><path style="opacity:1" fill="#c46249" d="M 168.5,390.5 C 172.044,411.424 181.71,428.924 197.5,443C 224.527,464.411 254.861,473.244 288.5,469.5C 291.444,470.588 294.444,470.588 297.5,469.5C 299.304,470.162 301.304,470.495 303.5,470.5C 339.375,467.56 373.709,458.726 406.5,444C 423.634,436.333 438.967,426.166 452.5,413.5C 441.571,429.928 427.571,443.095 410.5,453C 362.616,478.244 311.616,489.577 257.5,487C 230.771,483.549 207.604,472.716 188,454.5C 172.182,435.868 165.682,414.535 168.5,390.5 Z"/></g>
<g><path style="opacity:0.939" fill="#85391a" d="M 417.5,467.5 C 397.427,488.421 372.761,497.754 343.5,495.5C 369.092,488.745 393.759,479.412 417.5,467.5 Z"/></g>
</svg>
