<?xml version="1.0" encoding="UTF-8"?>
<!DOCTYPE svg PUBLIC "-//W3C//DTD SVG 1.1//EN" "http://www.w3.org/Graphics/SVG/1.1/DTD/svg11.dtd">
<svg xmlns="http://www.w3.org/2000/svg" version="1.1" width="512px" height="512px" style="shape-rendering:geometricPrecision; text-rendering:geometricPrecision; image-rendering:optimizeQuality; fill-rule:evenodd; clip-rule:evenodd" xmlns:xlink="http://www.w3.org/1999/xlink">
<g><path style="opacity:0.967" fill="#010000" d="M 358.5,-0.5 C 364.833,-0.5 371.167,-0.5 377.5,-0.5C 392.031,3.26838 404.698,10.4351 415.5,21C 440.899,44.9569 457.065,74.1235 464,108.5C 466.658,127.056 465.658,145.389 461,163.5C 459.833,166 458,167.833 455.5,169C 414.431,178.586 376.431,171.586 341.5,148C 328.019,137.852 315.853,126.352 305,113.5C 288.589,91.3665 287.256,68.3665 301,44.5C 311.921,28.9114 325.421,16.0781 341.5,6C 347.058,3.20742 352.725,1.04075 358.5,-0.5 Z"/></g>
<g><path style="opacity:1" fill="#c59b6c" d="M 361.5,20.5 C 372.255,18.8822 381.921,21.3822 390.5,28C 424.845,53.688 442.845,88.0213 444.5,131C 444.706,137.812 444.039,144.478 442.5,151C 391.668,156.664 350.835,139.164 320,98.5C 311.323,85.6804 310.323,72.3471 317,58.5C 326.167,45.3333 337.333,34.1667 350.5,25C 354.053,22.8792 357.72,21.3792 361.5,20.5 Z"/></g>
<g><path style="opacity:0.968" fill="#010100" d="M 101.5,108.5 C 149.482,104.104 190.982,118.104 226,150.5C 229.667,154.833 233.333,159.167 237,163.5C 240.186,167.873 242.853,172.54 245,177.5C 245.598,181.053 244.931,184.386 243,187.5C 218.1,224.553 183.266,245.72 138.5,251C 64.4854,258.915 34.3187,226.082 48,152.5C 52.3088,134.189 63.1421,121.355 80.5,114C 87.4515,111.451 94.4515,109.618 101.5,108.5 Z"/></g>
<g><path style="opacity:1" fill="#c59b6c" d="M 99.5,129.5 C 132.937,125.819 163.937,132.652 192.5,150C 204.689,158.022 214.689,168.189 222.5,180.5C 202.87,207.327 176.536,223.494 143.5,229C 125.761,232.329 108.094,231.996 90.5,228C 75.6206,221.437 67.7873,209.937 67,193.5C 66.1917,181.465 66.5251,169.465 68,157.5C 70.8659,146.978 77.0326,139.145 86.5,134C 90.8927,132.329 95.226,130.829 99.5,129.5 Z"/></g>
<g><path style="opacity:0.968" fill="#010000" d="M 308.5,242.5 C 364.225,241.944 408.058,264.277 440,309.5C 454.353,335.384 451.686,359.384 432,381.5C 423.087,391.416 413.254,400.249 402.5,408C 380.796,420.624 359.463,419.957 338.5,406C 292.571,371.299 271.738,325.132 276,267.5C 276.453,260.888 278.286,254.721 281.5,249C 290.294,245.479 299.294,243.312 308.5,242.5 Z"/></g>
<g><path style="opacity:1" fill="#c49a6c" d="M 304.5,263.5 C 353.057,261.531 391.89,279.864 421,318.5C 431.184,333.356 430.851,348.023 420,362.5C 412.833,372.333 404.333,380.833 394.5,388C 377.433,399.958 361.099,398.958 345.5,385C 308.809,354.777 292.642,315.943 297,268.5C 297.309,267.234 297.809,266.067 298.5,265C 300.708,264.809 302.708,264.309 304.5,263.5 Z"/></g>
<g><path style="opacity:0.968" fill="#010100" d="M 180.5,511.5 C 169.5,511.5 158.5,511.5 147.5,511.5C 116.229,508.065 98.062,490.732 93,459.5C 86.9119,408.905 101.412,365.405 136.5,329C 141.454,325.715 146.12,322.048 150.5,318C 154.508,314.911 159.008,313.078 164,312.5C 167.129,312.329 169.963,313.162 172.5,315C 209.859,340.518 230.692,376.018 235,421.5C 235.862,435.204 235.528,448.871 234,462.5C 227.986,491.754 210.152,508.088 180.5,511.5 Z"/></g>
<g><path style="opacity:1" fill="#c59b6c" d="M 163.5,334.5 C 192.884,355.574 209.717,384.241 214,420.5C 214.667,432.167 214.667,443.833 214,455.5C 211.826,476.341 200.326,487.841 179.5,490C 168.833,490.667 158.167,490.667 147.5,490C 128.176,487.677 117.009,476.844 114,457.5C 107.902,412.792 120.735,374.626 152.5,343C 156.235,340.147 159.902,337.313 163.5,334.5 Z"/></g>
<g><path style="opacity:1" fill="#070503" d="M 345.5,351.5 C 352.718,350.87 357.884,353.87 361,360.5C 361.667,362.833 361.667,365.167 361,367.5C 353.249,375.908 346.249,375.241 340,365.5C 338.268,359.314 340.101,354.647 345.5,351.5 Z"/></g>
<g><path style="opacity:1" fill="#060403" d="M 390.5,351.5 C 401.203,351.353 405.37,356.353 403,366.5C 397.535,373.956 390.369,379.122 381.5,382C 370.235,383.307 366.068,378.474 369,367.5C 376.859,362.999 384.026,357.665 390.5,351.5 Z"/></g>
</svg>
