<?xml version="1.0" encoding="UTF-8"?>
<!DOCTYPE svg PUBLIC "-//W3C//DTD SVG 1.1//EN" "http://www.w3.org/Graphics/SVG/1.1/DTD/svg11.dtd">
<svg xmlns="http://www.w3.org/2000/svg" version="1.1" width="512px" height="512px" style="shape-rendering:geometricPrecision; text-rendering:geometricPrecision; image-rendering:optimizeQuality; fill-rule:evenodd; clip-rule:evenodd" xmlns:xlink="http://www.w3.org/1999/xlink">
<g><path style="opacity:0.974" fill="#010101" d="M 250.5,-0.5 C 253.5,-0.5 256.5,-0.5 259.5,-0.5C 288.133,27.2997 316.299,55.633 344,84.5C 354.112,98.8411 355.112,113.841 347,129.5C 339.154,138.012 331.321,146.512 323.5,155C 324.868,169.804 325.868,184.638 326.5,199.5C 326.502,214.506 322.335,228.172 314,240.5C 312.333,242.167 310.667,243.833 309,245.5C 308.57,275.172 308.903,304.839 310,334.5C 317.68,367.506 338.513,384.339 372.5,385C 391.798,390.082 400.298,402.582 398,422.5C 395.238,435.52 387.404,443.687 374.5,447C 352.751,448.85 332.251,444.684 313,434.5C 313.643,439.423 315.31,444.09 318,448.5C 337.907,456.981 344.907,471.648 339,492.5C 334.461,501.876 327.294,508.21 317.5,511.5C 311.833,511.5 306.167,511.5 300.5,511.5C 285.676,506.853 274.176,497.853 266,484.5C 262.23,477.96 258.73,471.293 255.5,464.5C 249.242,480.881 239.242,494.381 225.5,505C 220.633,507.774 215.633,509.941 210.5,511.5C 204.833,511.5 199.167,511.5 193.5,511.5C 174.588,504.358 167.088,490.691 171,470.5C 175,459.833 182.333,452.5 193,448.5C 195.69,444.09 197.357,439.423 198,434.5C 178.749,444.684 158.249,448.85 136.5,447C 118.682,440.88 110.848,428.38 113,409.5C 116.61,396.223 125.11,388.056 138.5,385C 166.526,384.612 186.359,371.779 198,346.5C 198.667,343.833 199.333,341.167 200,338.5C 200.667,307.167 200.667,275.833 200,244.5C 191.824,236.149 186.824,226.149 185,214.5C 184.665,209.481 184.165,204.481 183.5,199.5C 184.118,184.63 185.118,169.797 186.5,155C 178.679,146.512 170.846,138.012 163,129.5C 154.888,113.841 155.888,98.8411 166,84.5C 193.701,55.633 221.867,27.2997 250.5,-0.5 Z"/></g>
<g><path style="opacity:1" fill="#fc911d" d="M 254.5,25.5 C 263.124,34.7205 270.29,45.0539 276,56.5C 298.455,104.99 308.121,155.99 305,209.5C 301.257,228.234 289.757,238.067 270.5,239C 259.5,239.667 248.5,239.667 237.5,239C 219.767,237.261 208.933,227.761 205,210.5C 202.878,166.352 208.878,123.352 223,81.5C 230.684,61.1207 241.184,42.454 254.5,25.5 Z"/></g>
<g><path style="opacity:1" fill="#050200" d="M 249.5,54.5 C 264.283,55.1166 267.617,61.7832 259.5,74.5C 250.69,81.0993 244.69,79.0993 241.5,68.5C 242.61,62.9471 245.277,58.2805 249.5,54.5 Z"/></g>
<g><path style="opacity:1" fill="#d4e0e4" d="M 202.5,76.5 C 203.043,76.56 203.376,76.8933 203.5,77.5C 200.686,85.0811 198.186,92.7478 196,100.5C 194.296,109.648 192.129,118.648 189.5,127.5C 177.559,119.06 175.393,108.727 183,96.5C 189.703,89.9648 196.203,83.2982 202.5,76.5 Z"/></g>
<g><path style="opacity:1" fill="#d4e0e4" d="M 306.5,76.5 C 315.532,84.3651 323.699,93.0318 331,102.5C 333.014,113.14 329.514,121.474 320.5,127.5C 316.79,110.244 312.123,93.244 306.5,76.5 Z"/></g>
<g><path style="opacity:1" fill="#050200" d="M 236.5,89.5 C 243.974,89.1431 248.308,92.6431 249.5,100C 243.615,120.094 239.782,140.594 238,161.5C 235.408,169.441 230.242,171.941 222.5,169C 220.951,167.786 219.785,166.286 219,164.5C 219.509,142.108 222.843,120.108 229,98.5C 230.296,94.381 232.796,91.381 236.5,89.5 Z"/></g>
<g><path style="opacity:1" fill="#dbe6ea" d="M 221.5,256.5 C 243.792,261.698 266.126,261.698 288.5,256.5C 288.333,282.502 288.5,308.502 289,334.5C 297.803,379.829 325.303,403.662 371.5,406C 377.602,410.105 379.102,415.605 376,422.5C 374.786,424.049 373.286,425.215 371.5,426C 355.406,427.715 340.073,425.048 325.5,418C 315.63,412.789 306.296,406.789 297.5,400C 288,398.833 283.833,403 285,412.5C 288.087,430.096 293.754,446.763 302,462.5C 305.237,467.415 309.737,470.248 315.5,471C 322.435,477.817 322.102,484.15 314.5,490C 303.14,491.574 293.973,487.741 287,478.5C 281.886,470.607 277.553,462.274 274,453.5C 270.509,442.535 267.176,431.535 264,420.5C 258.333,415.167 252.667,415.167 247,420.5C 243.824,431.535 240.491,442.535 237,453.5C 232.893,465.56 226.393,476.06 217.5,485C 209.72,491.07 201.554,491.903 193,487.5C 188.107,476.793 191.607,470.293 203.5,468C 207.759,464.642 210.926,460.475 213,455.5C 219.441,440.572 223.941,425.072 226.5,409C 224.901,401.52 220.234,398.52 212.5,400C 191.845,418.775 167.512,427.442 139.5,426C 133.891,422.723 132.058,417.89 134,411.5C 135.167,409 137,407.167 139.5,406C 184.494,404.12 211.661,381.286 221,337.5C 221.5,310.502 221.667,283.502 221.5,256.5 Z"/></g>
<g><path style="opacity:1" fill="#080808" d="M 236.5,309.5 C 242.851,308.057 247.685,310.057 251,315.5C 253.466,326.701 248.966,332.201 237.5,332C 231.067,328.818 228.567,323.651 230,316.5C 231.694,313.642 233.861,311.309 236.5,309.5 Z"/></g>
<g><path style="opacity:1" fill="#060606" d="M 264.5,309.5 C 277.185,308.676 282.018,314.342 279,326.5C 271.894,334.685 265.227,334.351 259,325.5C 257.75,322.923 257.416,320.257 258,317.5C 259.652,314.354 261.819,311.688 264.5,309.5 Z"/></g>
</svg>
