<?xml version="1.0" encoding="UTF-8"?>
<!DOCTYPE svg PUBLIC "-//W3C//DTD SVG 1.1//EN" "http://www.w3.org/Graphics/SVG/1.1/DTD/svg11.dtd">
<svg xmlns="http://www.w3.org/2000/svg" version="1.1" width="512px" height="512px" style="shape-rendering:geometricPrecision; text-rendering:geometricPrecision; image-rendering:optimizeQuality; fill-rule:evenodd; clip-rule:evenodd" xmlns:xlink="http://www.w3.org/1999/xlink">
<g><path style="opacity:0.97" fill="#010100" d="M 199.5,32.5 C 198.892,35.9583 196.892,38.4583 193.5,40C 178.122,41.5752 163.122,44.7418 148.5,49.5C 89.7095,69.6544 48.8762,108.654 26,166.5C 19.6728,183.637 15.8395,201.303 14.5,219.5C 19.804,220.384 25.1374,221.051 30.5,221.5C 35.2502,223.031 40.2502,223.698 45.5,223.5C 53.5894,172.477 76.9228,129.977 115.5,96C 121.048,90.917 125.881,91.417 130,97.5C 130.484,99.9129 130.15,102.246 129,104.5C 90.3692,136.076 67.5358,176.742 60.5,226.5C 70.4272,228.157 80.4272,229.157 90.5,229.5C 91.9675,215.964 95.4675,202.964 101,190.5C 103.909,187.606 107.409,186.773 111.5,188C 113.444,189.722 114.444,191.889 114.5,194.5C 112.341,201.49 110.174,208.49 108,215.5C 106.423,221.062 105.59,226.728 105.5,232.5C 141.785,235.176 178.118,236.343 214.5,236C 237.479,189.701 274.145,160.367 324.5,148C 333.744,146.07 343.078,144.903 352.5,144.5C 362.504,145.335 372.504,145.835 382.5,146C 348.045,83.2685 295.045,47.9351 223.5,40C 220.722,38.2872 219.055,35.7872 218.5,32.5C 218.933,29.8045 220.266,27.6379 222.5,26C 289.631,30.6424 342.798,60.1424 382,114.5C 389.634,126.155 396.468,138.322 402.5,151C 464.006,172.659 500.339,215.492 511.5,279.5C 511.5,284.167 511.5,288.833 511.5,293.5C 508.185,299.697 502.851,302.864 495.5,303C 459.396,309.055 423.063,312.888 386.5,314.5C 389.639,334.303 392.639,354.136 395.5,374C 395.729,377.94 394.062,380.773 390.5,382.5C 386.112,383.057 382.945,381.39 381,377.5C 377.376,356.55 374.209,335.55 371.5,314.5C 366.167,314.5 360.833,314.5 355.5,314.5C 350.833,314.5 346.167,314.5 341.5,314.5C 335.902,352.188 330.068,389.854 324,427.5C 320.638,452.452 331.304,466.785 356,470.5C 358.033,470.494 359.866,470.161 361.5,469.5C 374.287,467.551 383.121,460.551 388,448.5C 390.301,435.488 389.468,422.655 385.5,410C 386.078,405.255 388.744,402.755 393.5,402.5C 397.17,402.327 399.67,403.993 401,407.5C 403.867,419.359 405.2,431.359 405,443.5C 400.723,465.777 387.556,479.611 365.5,485C 340.354,487.847 322.187,478.013 311,455.5C 308.612,449.393 307.445,443.06 307.5,436.5C 313.616,395.803 319.949,355.136 326.5,314.5C 303.062,313.516 279.729,311.516 256.5,308.5C 261.172,346.206 266.838,383.873 273.5,421.5C 271.051,456.448 252.718,477.614 218.5,485C 186.891,488.283 164.058,475.783 150,447.5C 144.647,434.912 143.314,421.912 146,408.5C 154.61,356.507 163.11,304.507 171.5,252.5C 119.178,249.758 67.1781,243.925 15.5,235C 7.70209,234.295 2.36876,230.461 -0.5,223.5C -0.5,218.833 -0.5,214.167 -0.5,209.5C 9.92995,141.441 44.2633,89.2748 102.5,53C 129.522,37.7155 158.522,28.5488 189.5,25.5C 194.99,24.9016 198.324,27.235 199.5,32.5 Z"/></g>
<g><path style="opacity:1" fill="#9f6d4a" d="M 199.5,32.5 C 205.833,32.5 212.167,32.5 218.5,32.5C 219.055,35.7872 220.722,38.2872 223.5,40C 295.045,47.9351 348.045,83.2685 382.5,146C 372.504,145.835 362.504,145.335 352.5,144.5C 343.078,144.903 333.744,146.07 324.5,148C 274.145,160.367 237.479,189.701 214.5,236C 178.118,236.343 141.785,235.176 105.5,232.5C 105.59,226.728 106.423,221.062 108,215.5C 110.174,208.49 112.341,201.49 114.5,194.5C 114.444,191.889 113.444,189.722 111.5,188C 107.409,186.773 103.909,187.606 101,190.5C 95.4675,202.964 91.9675,215.964 90.5,229.5C 80.4272,229.157 70.4272,228.157 60.5,226.5C 67.5358,176.742 90.3692,136.076 129,104.5C 130.15,102.246 130.484,99.9129 130,97.5C 125.881,91.417 121.048,90.917 115.5,96C 76.9228,129.977 53.5894,172.477 45.5,223.5C 40.2502,223.698 35.2502,223.031 30.5,221.5C 38.8644,143.512 77.8644,86.8458 147.5,51.5C 148.298,51.0431 148.631,50.3764 148.5,49.5C 163.122,44.7418 178.122,41.5752 193.5,40C 196.892,38.4583 198.892,35.9583 199.5,32.5 Z"/></g>
<g><path style="opacity:1" fill="#905e3d" d="M 148.5,49.5 C 148.631,50.3764 148.298,51.0431 147.5,51.5C 77.8644,86.8458 38.8644,143.512 30.5,221.5C 25.1374,221.051 19.804,220.384 14.5,219.5C 15.8395,201.303 19.6728,183.637 26,166.5C 48.8762,108.654 89.7095,69.6544 148.5,49.5 Z"/></g>
<g><path style="opacity:1" fill="#925f3d" d="M 231.5,289.5 C 237.943,232.572 266.61,191.238 317.5,165.5C 373.125,152.03 420.958,165.697 461,206.5C 481.439,229.626 493.273,256.626 496.5,287.5C 488.819,288.391 481.152,289.391 473.5,290.5C 472.9,277.528 469.733,265.195 464,253.5C 461.459,248.931 457.625,247.431 452.5,249C 449.606,251.909 448.773,255.409 450,259.5C 455.405,270.21 458.238,281.544 458.5,293.5C 402.93,299.583 347.264,300.75 291.5,297C 271.363,295.483 251.363,292.983 231.5,289.5 Z"/></g>
<g><path style="opacity:1" fill="#7c553a" d="M 317.5,165.5 C 266.61,191.238 237.943,232.572 231.5,289.5C 226.515,288.752 221.515,288.085 216.5,287.5C 223.472,234.031 251.139,195.531 299.5,172C 305.333,169.334 311.333,167.167 317.5,165.5 Z"/></g>
<g><path style="opacity:1" fill="#c8975c" d="M 200.5,251.5 C 191.344,308.083 182.677,364.75 174.5,421.5C 174.433,442.037 182.766,458.037 199.5,469.5C 170.556,461.027 157.723,441.694 161,411.5C 170.013,358.244 178.513,304.91 186.5,251.5C 191.167,251.5 195.833,251.5 200.5,251.5 Z"/></g>
<g><path style="opacity:1" fill="#deb276" d="M 200.5,251.5 C 203.247,251.187 205.914,251.52 208.5,252.5C 204.106,265.164 201.94,278.164 202,291.5C 203.783,297.157 207.616,300.657 213.5,302C 222.104,303.712 230.771,304.879 239.5,305.5C 245.008,341.551 250.842,377.551 257,413.5C 259.271,442.156 246.771,460.656 219.5,469C 212.843,470.68 206.176,470.847 199.5,469.5C 182.766,458.037 174.433,442.037 174.5,421.5C 182.677,364.75 191.344,308.083 200.5,251.5 Z"/></g>
<g><path style="opacity:1" fill="#c8975c" d="M 355.5,314.5 C 349.166,355.173 342.832,395.839 336.5,436.5C 336.782,449.561 341.782,460.394 351.5,469C 354.817,469.498 358.15,469.665 361.5,469.5C 359.866,470.161 358.033,470.494 356,470.5C 331.304,466.785 320.638,452.452 324,427.5C 330.068,389.854 335.902,352.188 341.5,314.5C 346.167,314.5 350.833,314.5 355.5,314.5 Z"/></g>
<g><path style="opacity:0.998" fill="#deb176" d="M 355.5,314.5 C 360.833,314.5 366.167,314.5 371.5,314.5C 374.209,335.55 377.376,356.55 381,377.5C 382.945,381.39 386.112,383.057 390.5,382.5C 391.871,389.099 392.871,395.765 393.5,402.5C 388.744,402.755 386.078,405.255 385.5,410C 389.468,422.655 390.301,435.488 388,448.5C 383.121,460.551 374.287,467.551 361.5,469.5C 358.15,469.665 354.817,469.498 351.5,469C 341.782,460.394 336.782,449.561 336.5,436.5C 342.832,395.839 349.166,355.173 355.5,314.5 Z"/></g>
</svg>
