<?xml version="1.0" encoding="UTF-8"?>
<!DOCTYPE svg PUBLIC "-//W3C//DTD SVG 1.1//EN" "http://www.w3.org/Graphics/SVG/1.1/DTD/svg11.dtd">
<svg xmlns="http://www.w3.org/2000/svg" version="1.1" width="512px" height="512px" style="shape-rendering:geometricPrecision; text-rendering:geometricPrecision; image-rendering:optimizeQuality; fill-rule:evenodd; clip-rule:evenodd" xmlns:xlink="http://www.w3.org/1999/xlink">
<g><path style="opacity:0.977" fill="#010000" d="M 107.5,7.5 C 158.168,7.33334 208.834,7.50001 259.5,8C 261.333,8.5 262.5,9.66667 263,11.5C 263.923,21.5745 263.59,31.5745 262,41.5C 258.64,47.6934 253.807,52.36 247.5,55.5C 244.896,66.3844 239.063,75.0511 230,81.5C 223.608,105.704 222.941,130.037 228,154.5C 248.868,218.772 269.535,283.105 290,347.5C 294.296,362.538 296.13,377.871 295.5,393.5C 326.14,391.042 356.807,390.876 387.5,393C 400.848,394.003 413.848,396.67 426.5,401C 439.161,405.961 443.328,415.127 439,428.5C 432.66,459.504 415.16,481.671 386.5,495C 357.833,506.333 329.167,506.333 300.5,495C 294.418,491.877 288.585,488.377 283,484.5C 281.013,488.151 278.847,491.651 276.5,495C 271.465,497.593 266.132,499.259 260.5,500C 234.926,502.941 209.26,504.108 183.5,503.5C 160.117,503.826 136.784,502.992 113.5,501C 108.094,500.385 102.761,499.385 97.5,498C 93.7926,497.064 90.6259,495.231 88,492.5C 79.6305,475.057 74.2972,456.724 72,437.5C 71.0838,413.471 71.4171,389.471 73,365.5C 74.5287,357.052 76.5287,348.719 79,340.5C 101.014,274.127 122.014,207.461 142,140.5C 143.762,120.529 142.095,100.862 137,81.5C 127.937,75.0511 122.104,66.3844 119.5,55.5C 112.05,51.8849 106.884,46.2182 104,38.5C 103.333,29.5 103.333,20.5 104,11.5C 104.69,9.64977 105.856,8.31643 107.5,7.5 Z"/></g>
<g><path style="opacity:1" fill="#c23d36" d="M 119.5,23.5 C 162.167,23.5 204.833,23.5 247.5,23.5C 247.665,27.1817 247.499,30.8484 247,34.5C 246.167,36.6667 244.667,38.1667 242.5,39C 203.167,39.6667 163.833,39.6667 124.5,39C 122.333,38.1667 120.833,36.6667 120,34.5C 119.501,30.8484 119.335,27.1817 119.5,23.5 Z"/></g>
<g><path style="opacity:1" fill="#a72d24" d="M 137.5,55.5 C 168.174,55.1668 198.841,55.5002 229.5,56.5C 226.611,62.8893 221.945,67.3893 215.5,70C 204.722,71.1197 193.889,71.6197 183,71.5C 173.5,71.3333 164,71.1667 154.5,71C 146.113,68.7779 140.446,63.6112 137.5,55.5 Z"/></g>
<g><path style="opacity:1" fill="#dddedd" d="M 173.5,87.5 C 175.796,102.809 175.963,118.142 174,133.5C 168.259,152.888 162.425,172.221 156.5,191.5C 152.445,191.824 148.445,191.491 144.5,190.5C 151.283,172.991 156.116,154.991 159,136.5C 160.237,119.977 159.07,103.644 155.5,87.5C 161.5,87.5 167.5,87.5 173.5,87.5 Z"/></g>
<g><path style="opacity:1" fill="#ecedec" d="M 173.5,87.5 C 186.167,87.5 198.833,87.5 211.5,87.5C 206.463,109.791 206.297,132.124 211,154.5C 214.734,166.536 218.568,178.536 222.5,190.5C 200.51,191.5 178.51,191.833 156.5,191.5C 162.425,172.221 168.259,152.888 174,133.5C 175.963,118.142 175.796,102.809 173.5,87.5 Z"/></g>
<g><path style="opacity:1" fill="#202020" d="M 150.5,207.5 C 136.672,250.803 122.839,294.137 109,337.5C 106.902,346.087 105.236,354.754 104,363.5C 102.862,387.233 103.528,410.899 106,434.5C 108.948,449.177 113.781,463.177 120.5,476.5C 132.562,479.971 144.895,481.804 157.5,482C 193.511,484.014 229.511,483.848 265.5,481.5C 258.752,483.348 251.752,484.515 244.5,485C 196.731,488.831 149.064,487.997 101.5,482.5C 93.8724,465.323 89.3724,447.323 88,428.5C 86.8856,406.766 87.5523,385.099 90,363.5C 105.928,311.716 122.261,260.049 139,208.5C 142.73,207.54 146.563,207.207 150.5,207.5 Z"/></g>
<g><path style="opacity:1" fill="#404140" d="M 150.5,207.5 C 176.408,207.172 202.241,207.505 228,208.5C 243.535,256.105 258.868,303.772 274,351.5C 278.126,366.219 279.96,381.219 279.5,396.5C 270.671,397.832 262.337,400.665 254.5,405C 251.96,407.205 249.793,409.705 248,412.5C 247.444,435.169 254.611,455.003 269.5,472C 268.257,475.236 266.924,478.403 265.5,481.5C 229.511,483.848 193.511,484.014 157.5,482C 144.895,481.804 132.562,479.971 120.5,476.5C 113.781,463.177 108.948,449.177 106,434.5C 103.528,410.899 102.862,387.233 104,363.5C 105.236,354.754 106.902,346.087 109,337.5C 122.839,294.137 136.672,250.803 150.5,207.5 Z"/></g>
<g><path style="opacity:1" fill="#030100" d="M 180.5,287.5 C 184.131,287.16 187.464,287.994 190.5,290C 203.167,297.333 215.833,304.667 228.5,312C 229.701,312.903 230.535,314.069 231,315.5C 231.667,333.5 231.667,351.5 231,369.5C 219.252,377.627 207.085,385.127 194.5,392C 190,395.428 185,396.762 179.5,396C 164.75,387.543 150.25,378.71 136,369.5C 135.026,350.743 135.36,332.076 137,313.5C 151.481,304.681 165.981,296.015 180.5,287.5 Z"/></g>
<g><path style="opacity:1" fill="#a62d24" d="M 182.5,304.5 C 193.112,310.476 203.779,316.476 214.5,322.5C 215.666,335.487 215.833,348.487 215,361.5C 204.581,367.626 194.081,373.626 183.5,379.5C 173.003,373.752 162.67,367.752 152.5,361.5C 151.167,348.5 151.167,335.5 152.5,322.5C 162.895,316.977 172.895,310.977 182.5,304.5 Z"/></g>
<g><path style="opacity:1" fill="#b6b7b6" d="M 401.5,418.5 C 362.509,414.5 323.509,414.5 284.5,418.5C 279.338,418.251 274.338,417.251 269.5,415.5C 293.371,408.996 317.705,406.329 342.5,407.5C 367.868,406.796 392.868,409.463 417.5,415.5C 412.259,417.015 406.925,418.015 401.5,418.5 Z"/></g>
<g><path style="opacity:1" fill="#424342" d="M 401.5,418.5 C 395.074,420.256 388.408,421.422 381.5,422C 358.852,423.478 336.185,423.811 313.5,423C 303.538,422.473 293.872,420.973 284.5,418.5C 323.509,414.5 362.509,414.5 401.5,418.5 Z"/></g>
<g><path style="opacity:1" fill="#f2cc68" d="M 265.5,431.5 C 290.777,437.602 316.443,440.269 342.5,439.5C 359.542,439.531 376.542,438.697 393.5,437C 402.872,435.191 412.206,433.524 421.5,432C 411.146,462.354 390.146,480.354 358.5,486C 324.863,491.237 297.363,480.737 276,454.5C 271.409,447.319 267.909,439.652 265.5,431.5 Z"/></g>
</svg>
