<?xml version="1.0" encoding="UTF-8"?>
<!DOCTYPE svg PUBLIC "-//W3C//DTD SVG 1.1//EN" "http://www.w3.org/Graphics/SVG/1.1/DTD/svg11.dtd">
<svg xmlns="http://www.w3.org/2000/svg" version="1.1" width="512px" height="512px" style="shape-rendering:geometricPrecision; text-rendering:geometricPrecision; image-rendering:optimizeQuality; fill-rule:evenodd; clip-rule:evenodd" xmlns:xlink="http://www.w3.org/1999/xlink">
<g><path style="opacity:0.98" fill="#020201" d="M 156.5,-0.5 C 185.5,-0.5 214.5,-0.5 243.5,-0.5C 266.977,9.12858 274.811,26.1286 267,50.5C 263.695,57.6386 258.528,62.9719 251.5,66.5C 250.334,84.4907 250.167,102.491 251,120.5C 252.719,141.326 259.385,160.326 271,177.5C 271.333,170.167 271.667,162.833 272,155.5C 273.907,137.923 283.407,126.756 300.5,122C 329.5,121.333 358.5,121.333 387.5,122C 402.298,126.132 411.798,135.632 416,150.5C 416.667,200.167 416.667,249.833 416,299.5C 415.466,303.305 414.466,306.971 413,310.5C 410.581,312.585 407.747,313.585 404.5,313.5C 399.202,308.896 398.036,303.229 401,296.5C 401.5,265.168 401.667,233.835 401.5,202.5C 380.833,202.5 360.167,202.5 339.5,202.5C 322.167,202.5 304.833,202.5 287.5,202.5C 287.333,234.168 287.5,265.835 288,297.5C 292.867,322.699 307.7,338.533 332.5,345C 344.728,346.707 356.395,345.207 367.5,340.5C 371.845,338.993 375.845,336.827 379.5,334C 382.203,330.962 385.203,328.295 388.5,326C 391.531,325.505 394.531,325.671 397.5,326.5C 399.868,330.052 400.035,333.719 398,337.5C 391.131,345.039 383.131,351.039 374,355.5C 373.5,388.832 373.333,422.165 373.5,455.5C 382.652,454.954 391.652,455.788 400.5,458C 414.313,466.095 419.146,477.928 415,493.5C 411.42,502.84 404.92,508.84 395.5,511.5C 361.167,511.5 326.833,511.5 292.5,511.5C 288.169,509.582 284.003,507.248 280,504.5C 274.273,507.348 268.439,509.681 262.5,511.5C 220.833,511.5 179.167,511.5 137.5,511.5C 115.181,506.014 101.348,492.014 96,469.5C 95.3333,398.5 95.3333,327.5 96,256.5C 98.4448,231.83 106.445,209.164 120,188.5C 137.034,168.769 146.7,145.769 149,119.5C 149.833,101.824 149.666,84.1572 148.5,66.5C 132.51,56.8407 126.676,42.8407 131,24.5C 135.443,11.8888 143.943,3.55542 156.5,-0.5 Z M 304.5,349.5 C 307.979,351.742 311.646,353.742 315.5,355.5C 316.5,388.827 316.833,422.16 316.5,455.5C 312.5,455.5 308.5,455.5 304.5,455.5C 304.5,420.167 304.5,384.833 304.5,349.5 Z"/></g>
<g><path style="opacity:1" fill="#a6b79b" d="M 200.5,14.5 C 192.946,21.9627 190.446,30.9627 193,41.5C 194.429,49.0752 198.595,53.7419 205.5,55.5C 190.83,55.6666 176.163,55.4999 161.5,55C 148.203,50.5852 143.036,41.4185 146,27.5C 148.5,22.3333 152.333,18.5 157.5,16C 171.761,14.5514 186.094,14.0514 200.5,14.5 Z"/></g>
<g><path style="opacity:1" fill="#b9cdae" d="M 200.5,14.5 C 213.504,14.3334 226.504,14.5001 239.5,15C 253.717,20.9446 257.884,31.1113 252,45.5C 250.386,48.2366 248.219,50.4033 245.5,52C 240.124,53.5753 234.791,55.242 229.5,57C 228.139,58.5843 227.472,60.4176 227.5,62.5C 222.5,62.5 217.5,62.5 212.5,62.5C 211.833,58.5 209.5,56.1667 205.5,55.5C 198.595,53.7419 194.429,49.0752 193,41.5C 190.446,30.9627 192.946,21.9627 200.5,14.5 Z"/></g>
<g><path style="opacity:1" fill="#919f87" d="M 212.5,62.5 C 217.5,62.5 222.5,62.5 227.5,62.5C 227.5,67.1667 229.833,69.5 234.5,69.5C 234.5,77.5 234.5,85.5 234.5,93.5C 217.975,102.539 207.141,116.206 202,134.5C 200.13,153.851 196.463,172.851 191,191.5C 180.349,214.786 173.349,239.119 170,264.5C 169.5,271.158 169.334,277.825 169.5,284.5C 149.833,284.5 130.167,284.5 110.5,284.5C 108.894,245.149 120.727,210.483 146,180.5C 156.834,160.167 163.167,138.5 165,115.5C 165.5,100.504 165.667,85.5037 165.5,70.5C 178.837,70.6666 192.171,70.4999 205.5,70C 209.768,69.2344 212.101,66.7344 212.5,62.5 Z"/></g>
<g><path style="opacity:1" fill="#a8b99d" d="M 234.5,93.5 C 232.41,136.191 244.91,173.858 272,206.5C 272.5,232.498 272.667,258.498 272.5,284.5C 238.167,284.5 203.833,284.5 169.5,284.5C 169.334,277.825 169.5,271.158 170,264.5C 173.349,239.119 180.349,214.786 191,191.5C 196.463,172.851 200.13,153.851 202,134.5C 207.141,116.206 217.975,102.539 234.5,93.5 Z"/></g>
<g><path style="opacity:1" fill="#bde6e8" d="M 384.5,137.5 C 372.162,137.333 359.829,137.5 347.5,138C 344.358,141.785 341.858,145.952 340,150.5C 339.5,162.495 339.333,174.495 339.5,186.5C 322.167,186.5 304.833,186.5 287.5,186.5C 287.333,175.162 287.5,163.828 288,152.5C 290.013,145.819 294.18,140.986 300.5,138C 314.935,136.858 329.435,136.358 344,136.5C 357.671,136.5 371.171,136.833 384.5,137.5 Z"/></g>
<g><path style="opacity:1" fill="#d3f0f3" d="M 384.5,137.5 C 392.843,139.843 398.176,145.176 400.5,153.5C 400.5,164.5 400.5,175.5 400.5,186.5C 380.167,186.5 359.833,186.5 339.5,186.5C 339.333,174.495 339.5,162.495 340,150.5C 341.858,145.952 344.358,141.785 347.5,138C 359.829,137.5 372.162,137.333 384.5,137.5 Z"/></g>
<g><path style="opacity:1" fill="#9eb7b9" d="M 400.5,153.5 C 401.495,164.654 401.828,175.988 401.5,187.5C 363.33,187.832 325.33,187.499 287.5,186.5C 304.833,186.5 322.167,186.5 339.5,186.5C 359.833,186.5 380.167,186.5 400.5,186.5C 400.5,175.5 400.5,164.5 400.5,153.5 Z"/></g>
<g><path style="opacity:1" fill="#e9d997" d="M 339.5,202.5 C 339.333,234.502 339.5,266.502 340,298.5C 342.603,314.209 349.769,327.375 361.5,338C 363.217,339.559 365.217,340.392 367.5,340.5C 356.395,345.207 344.728,346.707 332.5,345C 307.7,338.533 292.867,322.699 288,297.5C 287.5,265.835 287.333,234.168 287.5,202.5C 304.833,202.5 322.167,202.5 339.5,202.5 Z"/></g>
<g><path style="opacity:1" fill="#f7e8a9" d="M 339.5,202.5 C 360.167,202.5 380.833,202.5 401.5,202.5C 401.667,233.835 401.5,265.168 401,296.5C 398.036,303.229 399.202,308.896 404.5,313.5C 402.421,317.993 400.088,322.326 397.5,326.5C 394.531,325.671 391.531,325.505 388.5,326C 385.203,328.295 382.203,330.962 379.5,334C 375.845,336.827 371.845,338.993 367.5,340.5C 365.217,340.392 363.217,339.559 361.5,338C 349.769,327.375 342.603,314.209 340,298.5C 339.5,266.502 339.333,234.502 339.5,202.5 Z"/></g>
<g><path style="opacity:1" fill="#debe94" d="M 169.5,300.5 C 169.5,300.167 169.5,299.833 169.5,299.5C 204.516,298.84 239.183,299.507 273.5,301.5C 238.906,300.507 204.24,300.174 169.5,300.5 Z"/></g>
<g><path style="opacity:1" fill="#fec376" d="M 169.5,299.5 C 169.5,299.833 169.5,300.167 169.5,300.5C 169.5,309.5 169.5,318.5 169.5,327.5C 151.745,340.225 144.578,357.558 148,379.5C 150.688,393.573 157.855,404.573 169.5,412.5C 169.5,415.167 169.5,417.833 169.5,420.5C 149.833,420.5 130.167,420.5 110.5,420.5C 110.5,380.167 110.5,339.833 110.5,299.5C 130.167,299.5 149.833,299.5 169.5,299.5 Z"/></g>
<g><path style="opacity:1" fill="#fbd6a7" d="M 169.5,300.5 C 204.24,300.174 238.906,300.507 273.5,301.5C 275.506,314.034 280.673,325.034 289,334.5C 289.5,363.498 289.667,392.498 289.5,421.5C 229.664,421.832 169.998,421.499 110.5,420.5C 130.167,420.5 149.833,420.5 169.5,420.5C 169.5,417.833 169.5,415.167 169.5,412.5C 179.91,415.631 190.077,414.964 200,410.5C 222.812,419.932 239.145,413.266 249,390.5C 257.246,366.99 252.413,346.823 234.5,330C 231.378,328.355 228.212,326.855 225,325.5C 226.886,317.424 223.719,313.59 215.5,314C 210.032,318.467 204.865,323.3 200,328.5C 195.5,324 191,319.5 186.5,315C 181.544,312.393 177.711,313.56 175,318.5C 174.313,320.568 174.48,322.568 175.5,324.5C 173.757,326.038 171.757,327.038 169.5,327.5C 169.5,318.5 169.5,309.5 169.5,300.5 Z"/></g>
<g><path style="opacity:1" fill="#050302" d="M 169.5,412.5 C 157.855,404.573 150.688,393.573 148,379.5C 144.578,357.558 151.745,340.225 169.5,327.5C 171.757,327.038 173.757,326.038 175.5,324.5C 174.48,322.568 174.313,320.568 175,318.5C 177.711,313.56 181.544,312.393 186.5,315C 191,319.5 195.5,324 200,328.5C 204.865,323.3 210.032,318.467 215.5,314C 223.719,313.59 226.886,317.424 225,325.5C 228.212,326.855 231.378,328.355 234.5,330C 252.413,346.823 257.246,366.99 249,390.5C 239.145,413.266 222.812,419.932 200,410.5C 190.077,414.964 179.91,415.631 169.5,412.5 Z"/></g>
<g><path style="opacity:1" fill="#fc909d" d="M 178.5,339.5 C 181.187,339.336 183.854,339.503 186.5,340C 195.372,345.653 204.372,345.653 213.5,340C 220.873,338.767 226.706,341.267 231,347.5C 235.691,354.075 237.858,361.408 237.5,369.5C 237.681,379.445 234.681,388.278 228.5,396C 220.903,401.932 213.236,401.932 205.5,396C 201.833,395.333 198.167,395.333 194.5,396C 184.889,402.77 176.389,401.603 169,392.5C 160.753,378.037 160.419,363.37 168,348.5C 171.103,344.886 174.603,341.886 178.5,339.5 Z"/></g>
<g><path style="opacity:1" fill="#667f84" d="M 334.5,360.5 C 332.507,391.816 331.841,423.482 332.5,455.5C 340.833,455.5 349.167,455.5 357.5,455.5C 349.016,456.493 340.349,456.826 331.5,456.5C 331.5,424.167 331.5,391.833 331.5,359.5C 332.791,359.263 333.791,359.596 334.5,360.5 Z"/></g>
<g><path style="opacity:1" fill="#a6d0d7" d="M 357.5,455.5 C 349.167,455.5 340.833,455.5 332.5,455.5C 331.841,423.482 332.507,391.816 334.5,360.5C 342.196,360.646 349.862,360.313 357.5,359.5C 357.5,391.5 357.5,423.5 357.5,455.5 Z"/></g>
<g><path style="opacity:1" fill="#919f87" d="M 169.5,436.5 C 167.469,457.61 171.135,477.61 180.5,496.5C 166.829,496.667 153.163,496.5 139.5,496C 124.965,492.131 115.798,482.965 112,468.5C 110.656,457.882 110.156,447.216 110.5,436.5C 130.167,436.5 149.833,436.5 169.5,436.5 Z"/></g>
<g><path style="opacity:1" fill="#a8b99d" d="M 169.5,436.5 C 209.5,436.5 249.5,436.5 289.5,436.5C 289.831,443.863 289.497,451.197 288.5,458.5C 276.447,465.603 270.947,476.269 272,490.5C 267.925,493.305 263.425,495.138 258.5,496C 232.502,496.5 206.502,496.667 180.5,496.5C 171.135,477.61 167.469,457.61 169.5,436.5 Z"/></g>
<g><path style="opacity:1" fill="#bde6e8" d="M 328.5,471.5 C 323.221,479.767 323.221,488.1 328.5,496.5C 317.495,496.667 306.495,496.5 295.5,496C 288.764,492.024 286.264,486.191 288,478.5C 289.833,476 292,473.833 294.5,472C 305.828,471.5 317.162,471.333 328.5,471.5 Z"/></g>
<g><path style="opacity:1" fill="#d3f0f3" d="M 328.5,471.5 C 350.169,471.333 371.836,471.5 393.5,472C 402.132,477.296 403.632,484.13 398,492.5C 396.167,493.667 394.333,494.833 392.5,496C 371.169,496.5 349.836,496.667 328.5,496.5C 323.221,488.1 323.221,479.767 328.5,471.5 Z"/></g>
</svg>
