<?xml version="1.0" encoding="UTF-8"?>
<!DOCTYPE svg PUBLIC "-//W3C//DTD SVG 1.1//EN" "http://www.w3.org/Graphics/SVG/1.1/DTD/svg11.dtd">
<svg xmlns="http://www.w3.org/2000/svg" version="1.1" width="512px" height="512px" style="shape-rendering:geometricPrecision; text-rendering:geometricPrecision; image-rendering:optimizeQuality; fill-rule:evenodd; clip-rule:evenodd" xmlns:xlink="http://www.w3.org/1999/xlink">
<g><path style="opacity:0.98" fill="#010101" d="M 184.5,-0.5 C 211.5,-0.5 238.5,-0.5 265.5,-0.5C 268.139,1.30904 270.306,3.64238 272,6.5C 272.168,15.8511 272.668,25.1845 273.5,34.5C 287.81,40.7902 292.643,51.4568 288,66.5C 283.712,75.5619 276.545,79.8952 266.5,79.5C 266.333,91.1714 266.5,102.838 267,114.5C 267.202,116.256 267.702,117.922 268.5,119.5C 295.112,99.0769 324.779,92.9103 357.5,101C 361.875,102.701 363.542,105.867 362.5,110.5C 361.517,112.291 360.184,113.791 358.5,115C 328.746,108.193 301.746,113.86 277.5,132C 274.781,134.382 272.447,137.049 270.5,140C 271.822,145.139 273.822,149.973 276.5,154.5C 302.039,125.935 332.039,120.435 366.5,138C 397.886,160.169 406.719,189.335 393,225.5C 387.16,238.34 378.16,248.34 366,255.5C 366.323,260.48 366.823,265.48 367.5,270.5C 386.511,261.987 400.011,247.987 408,228.5C 422.005,188.509 412.672,155.176 380,128.5C 378.18,125.247 378.013,121.913 379.5,118.5C 381.164,117.001 383.164,116.001 385.5,115.5C 389.047,115.957 392.047,117.457 394.5,120C 428.481,151.543 437.981,189.377 423,233.5C 412.059,258.774 394.059,277.108 369,288.5C 368.667,352.5 368.333,416.5 368,480.5C 363.651,496.681 353.484,507.015 337.5,511.5C 262.5,511.5 187.5,511.5 112.5,511.5C 98.1147,507.62 88.2814,498.62 83,484.5C 81.3847,465.552 81.0513,446.552 82,427.5C 83.2725,424.778 85.4392,423.444 88.5,423.5C 90.3885,424.322 92.3885,425.155 94.5,426C 95.1258,426.75 95.6258,427.584 96,428.5C 96.3333,444.833 96.6667,461.167 97,477.5C 99.8333,487 106,493.167 115.5,496C 183.499,496.5 251.499,496.667 319.5,496.5C 336.444,499.124 347.611,492.457 353,476.5C 353.5,429.835 353.667,383.168 353.5,336.5C 345.833,336.5 338.167,336.5 330.5,336.5C 252.5,336.5 174.5,336.5 96.5,336.5C 96.6666,357.169 96.5,377.836 96,398.5C 94.5627,401.708 92.0627,403.375 88.5,403.5C 85.6755,403.919 83.5088,402.919 82,400.5C 81.3333,356.5 81.3333,312.5 82,268.5C 86.5563,240.878 99.7229,218.378 121.5,201C 131.5,194.667 141.5,188.333 151.5,182C 168.023,167.459 178.19,149.293 182,127.5C 183.252,111.525 183.752,95.5252 183.5,79.5C 165.294,77.77 157.794,67.77 161,49.5C 164.031,42.3023 169.198,37.3023 176.5,34.5C 177.332,25.1845 177.832,15.8511 178,6.5C 179.694,3.64238 181.861,1.30904 184.5,-0.5 Z M 323.5,143.5 C 355.622,142.475 375.455,157.475 383,188.5C 385.648,210.527 377.981,227.86 360,240.5C 353.48,226.97 344.647,215.137 333.5,205C 323.677,197.586 313.344,190.919 302.5,185C 297.032,180.533 291.865,175.7 287,170.5C 286.48,168.711 286.813,167.044 288,165.5C 297.283,153.947 309.117,146.614 323.5,143.5 Z"/></g>
<g><path style="opacity:1" fill="#fb7e85" d="M 235.5,14.5 C 235.5,21.1667 235.5,27.8333 235.5,34.5C 221.167,34.5 206.833,34.5 192.5,34.5C 192.5,27.8333 192.5,21.1667 192.5,14.5C 206.833,14.5 221.167,14.5 235.5,14.5 Z"/></g>
<g><path style="opacity:1" fill="#fc636e" d="M 235.5,14.5 C 242.833,14.5 250.167,14.5 257.5,14.5C 257.5,21.1667 257.5,27.8333 257.5,34.5C 250.167,34.5 242.833,34.5 235.5,34.5C 235.5,27.8333 235.5,21.1667 235.5,14.5 Z"/></g>
<g><path style="opacity:1" fill="#a4e4ed" d="M 250.5,49.5 C 251.769,54.4859 251.769,59.4859 250.5,64.5C 227.164,64.6666 203.831,64.5 180.5,64C 174.347,59.7481 174.014,55.0814 179.5,50C 203.164,49.5 226.831,49.3334 250.5,49.5 Z"/></g>
<g><path style="opacity:1" fill="#69d5e3" d="M 250.5,49.5 C 256.842,49.3338 263.175,49.5005 269.5,50C 274.626,52.553 275.793,56.3864 273,61.5C 272.097,62.7014 270.931,63.5348 269.5,64C 263.175,64.4995 256.842,64.6662 250.5,64.5C 251.769,59.4859 251.769,54.4859 250.5,49.5 Z"/></g>
<g><path style="opacity:1" fill="#dbf4f7" d="M 229.5,79.5 C 229.333,95.8367 229.5,112.17 230,128.5C 234.237,153.486 246.071,173.986 265.5,190C 282.316,198.475 297.149,209.642 310,223.5C 320.465,237.105 327.132,252.438 330,269.5C 330.5,286.83 330.667,304.163 330.5,321.5C 252.5,321.5 174.5,321.5 96.5,321.5C 96.3334,304.83 96.5001,288.163 97,271.5C 101.023,247.502 112.523,228.002 131.5,213C 147.977,204.862 162.477,194.028 175,180.5C 188.345,163.475 196.011,144.141 198,122.5C 198.5,108.171 198.667,93.8372 198.5,79.5C 208.833,79.5 219.167,79.5 229.5,79.5 Z"/></g>
<g><path style="opacity:1" fill="#a5e5ee" d="M 229.5,79.5 C 236.833,79.5 244.167,79.5 251.5,79.5C 251.125,96.5348 251.625,113.535 253,130.5C 257.173,156.018 269.006,177.184 288.5,194C 300.338,201.418 312.004,209.085 323.5,217C 339.731,231.625 349.565,249.791 353,271.5C 353.5,288.163 353.667,304.83 353.5,321.5C 345.833,321.5 338.167,321.5 330.5,321.5C 330.667,304.163 330.5,286.83 330,269.5C 327.132,252.438 320.465,237.105 310,223.5C 297.149,209.642 282.316,198.475 265.5,190C 246.071,173.986 234.237,153.486 230,128.5C 229.5,112.17 229.333,95.8367 229.5,79.5 Z"/></g>
<g><path style="opacity:0.999" fill="#a2e2eb" d="M 362.5,110.5 C 368.287,112.894 373.954,115.56 379.5,118.5C 378.013,121.913 378.18,125.247 380,128.5C 412.672,155.176 422.005,188.509 408,228.5C 400.011,247.987 386.511,261.987 367.5,270.5C 366.823,265.48 366.323,260.48 366,255.5C 378.16,248.34 387.16,238.34 393,225.5C 406.719,189.335 397.886,160.169 366.5,138C 332.039,120.435 302.039,125.935 276.5,154.5C 273.822,149.973 271.822,145.139 270.5,140C 272.447,137.049 274.781,134.382 277.5,132C 301.746,113.86 328.746,108.193 358.5,115C 360.184,113.791 361.517,112.291 362.5,110.5 Z"/></g>
<g><path style="opacity:1" fill="#feefac" d="M 330.5,336.5 C 330.667,383.835 330.5,431.168 330,478.5C 328.281,485.613 324.781,491.613 319.5,496.5C 251.499,496.667 183.499,496.5 115.5,496C 106,493.167 99.8333,487 97,477.5C 96.6667,461.167 96.3333,444.833 96,428.5C 95.6258,427.584 95.1258,426.75 94.5,426C 92.3885,425.155 90.3885,424.322 88.5,423.5C 88.5,416.833 88.5,410.167 88.5,403.5C 92.0627,403.375 94.5627,401.708 96,398.5C 96.5,377.836 96.6666,357.169 96.5,336.5C 174.5,336.5 252.5,336.5 330.5,336.5 Z"/></g>
<g><path style="opacity:1" fill="#fee077" d="M 330.5,336.5 C 338.167,336.5 345.833,336.5 353.5,336.5C 353.667,383.168 353.5,429.835 353,476.5C 347.611,492.457 336.444,499.124 319.5,496.5C 324.781,491.613 328.281,485.613 330,478.5C 330.5,431.168 330.667,383.835 330.5,336.5 Z"/></g>
</svg>
