<?xml version="1.0" encoding="UTF-8"?>
<!DOCTYPE svg PUBLIC "-//W3C//DTD SVG 1.1//EN" "http://www.w3.org/Graphics/SVG/1.1/DTD/svg11.dtd">
<svg xmlns="http://www.w3.org/2000/svg" version="1.1" width="512px" height="512px" style="shape-rendering:geometricPrecision; text-rendering:geometricPrecision; image-rendering:optimizeQuality; fill-rule:evenodd; clip-rule:evenodd" xmlns:xlink="http://www.w3.org/1999/xlink">
<g><path style="opacity:0.976" fill="#000000" d="M 264.5,-0.5 C 287.167,-0.5 309.833,-0.5 332.5,-0.5C 353.126,7.88645 361.792,23.3864 358.5,46C 358.333,51.8333 358.167,57.6667 358,63.5C 354.912,77.0875 346.412,84.4208 332.5,85.5C 332.5,96.5 332.5,107.5 332.5,118.5C 347.326,116.143 358.159,121.476 365,134.5C 366.6,145.761 366.933,157.094 366,168.5C 363.49,177.01 358.157,183.01 350,186.5C 348.788,196.575 350.788,205.908 356,214.5C 372.772,223.939 385.439,237.272 394,254.5C 396.442,259.933 398.108,265.6 399,271.5C 405.335,334.351 411.835,397.185 418.5,460C 416.315,487.001 402.315,504.168 376.5,511.5C 324.167,511.5 271.833,511.5 219.5,511.5C 189.544,502.289 176.044,481.956 179,450.5C 185.132,391.847 191.132,333.18 197,274.5C 199.869,255.593 208.369,239.759 222.5,227C 228.947,222.887 235.114,218.387 241,213.5C 245.518,204.73 247.352,195.396 246.5,185.5C 237.602,182.762 232.102,176.762 230,167.5C 229.333,157.833 229.333,148.167 230,138.5C 235.704,123.053 246.87,116.386 263.5,118.5C 263.5,107.5 263.5,96.5 263.5,85.5C 252.343,84.4973 244.343,78.9973 239.5,69C 231.167,68.3333 222.833,68.3333 214.5,69C 204.103,80.066 193.103,90.3993 181.5,100C 164.069,105.865 151.902,100.365 145,83.5C 142.668,73.5076 145.001,64.841 152,57.5C 163.862,45.3036 176.029,33.4703 188.5,22C 192.281,19.7754 196.281,18.1087 200.5,17C 214.5,16.6667 228.5,16.3333 242.5,16C 247.941,7.79951 255.274,2.29951 264.5,-0.5 Z"/></g>
<g><path style="opacity:1" fill="#3e50b4" d="M 317.5,16.5 C 319.94,19.4552 321.773,22.7885 323,26.5C 323.667,38.8333 323.667,51.1667 323,63.5C 322.59,64.9007 322.09,66.234 321.5,67.5C 301.164,67.6666 280.831,67.5 260.5,67C 257.898,66.065 256.398,64.2317 256,61.5C 255.333,50.5 255.333,39.5 256,28.5C 258.5,23.3333 262.333,19.5 267.5,17C 284.163,16.5001 300.83,16.3334 317.5,16.5 Z"/></g>
<g><path style="opacity:1" fill="#273492" d="M 317.5,16.5 C 327.641,14.9879 335.141,18.6546 340,27.5C 340.667,39.1667 340.667,50.8333 340,62.5C 339.167,64.6667 337.667,66.1667 335.5,67C 330.845,67.4992 326.179,67.6658 321.5,67.5C 322.09,66.234 322.59,64.9007 323,63.5C 323.667,51.1667 323.667,38.8333 323,26.5C 321.773,22.7885 319.94,19.4552 317.5,16.5 Z"/></g>
<g><path style="opacity:1" fill="#01a5ef" d="M 222.5,33.5 C 221.968,39.1523 221.635,44.819 221.5,50.5C 215.895,49.9081 210.561,50.7415 205.5,53C 195.137,63.6968 184.471,74.0301 173.5,84C 162.528,84.8759 159.361,80.3759 164,70.5C 176.111,59.3906 187.944,47.8906 199.5,36C 200.833,35.3333 202.167,34.6667 203.5,34C 209.825,33.5005 216.158,33.3338 222.5,33.5 Z"/></g>
<g><path style="opacity:1" fill="#0376ba" d="M 222.5,33.5 C 227.833,33.5 233.167,33.5 238.5,33.5C 238.5,39.1667 238.5,44.8333 238.5,50.5C 232.833,50.5 227.167,50.5 221.5,50.5C 221.635,44.819 221.968,39.1523 222.5,33.5 Z"/></g>
<g><path style="opacity:1" fill="#014d76" d="M 281.5,118.5 C 280.505,107.346 280.172,96.0123 280.5,84.5C 292.167,84.5 303.833,84.5 315.5,84.5C 315.5,96.1667 315.5,107.833 315.5,119.5C 303.988,119.828 292.654,119.495 281.5,118.5 Z"/></g>
<g><path style="opacity:1" fill="#0376bc" d="M 298.5,85.5 C 303.833,85.5 309.167,85.5 314.5,85.5C 314.5,96.5 314.5,107.5 314.5,118.5C 309.167,118.5 303.833,118.5 298.5,118.5C 298.5,107.5 298.5,96.5 298.5,85.5 Z"/></g>
<g><path style="opacity:1" fill="#02a7f2" d="M 298.5,85.5 C 298.5,96.5 298.5,107.5 298.5,118.5C 292.833,118.5 287.167,118.5 281.5,118.5C 281.5,107.5 281.5,96.5 281.5,85.5C 287.167,85.5 292.833,85.5 298.5,85.5 Z"/></g>
<g><path style="opacity:0.968" fill="#010000" d="M 128.5,113.5 C 151.746,112.56 165.913,123.56 171,146.5C 176.898,178.153 167.398,203.986 142.5,224C 113.076,236.952 94.2424,227.786 86,196.5C 80.7498,166.859 89.2498,142.025 111.5,122C 116.731,118.102 122.397,115.269 128.5,113.5 Z"/></g>
<g><path style="opacity:1" fill="#743c20" d="M 136.5,151.5 C 135.947,144.506 133.613,138.172 129.5,132.5C 132.625,131.521 135.958,131.187 139.5,131.5C 139.666,136.179 139.499,140.845 139,145.5C 138.434,147.723 137.6,149.723 136.5,151.5 Z"/></g>
<g><path style="opacity:1" fill="#9d502c" d="M 129.5,132.5 C 133.613,138.172 135.947,144.506 136.5,151.5C 135.538,154.757 134.038,157.757 132,160.5C 122.631,169.537 112.965,178.204 103,186.5C 100.517,165.632 107.35,148.465 123.5,135C 125.407,133.878 127.407,133.045 129.5,132.5 Z"/></g>
<g><path style="opacity:1" fill="#3e50b4" d="M 253.5,136.5 C 279.169,136.333 304.835,136.5 330.5,137C 331.191,138.067 331.691,139.234 332,140.5C 332.667,148.833 332.667,157.167 332,165.5C 331.691,166.766 331.191,167.933 330.5,169C 304.502,169.5 278.502,169.667 252.5,169.5C 249.539,168.607 247.706,166.607 247,163.5C 246.333,156.5 246.333,149.5 247,142.5C 248.406,139.591 250.572,137.591 253.5,136.5 Z"/></g>
<g><path style="opacity:1" fill="#263286" d="M 253.5,136.5 C 282.997,135.336 312.664,135.169 342.5,136C 345.583,136.786 347.749,138.619 349,141.5C 349.667,149.167 349.667,156.833 349,164.5C 347.833,167 346,168.833 343.5,170C 312.997,170.831 282.664,170.664 252.5,169.5C 278.502,169.667 304.502,169.5 330.5,169C 331.191,167.933 331.691,166.766 332,165.5C 332.667,157.167 332.667,148.833 332,140.5C 331.691,139.234 331.191,138.067 330.5,137C 304.835,136.5 279.169,136.333 253.5,136.5 Z"/></g>
<g><path style="opacity:1" fill="#753c21" d="M 116.5,211.5 C 118.716,210.797 120.549,209.464 122,207.5C 128.439,199.957 132.605,191.624 134.5,182.5C 143.147,174.682 149.647,165.349 154,154.5C 157.469,177.402 149.969,195.902 131.5,210C 126.552,212.495 121.552,212.995 116.5,211.5 Z"/></g>
<g><path style="opacity:1" fill="#9c502c" d="M 134.5,182.5 C 132.605,191.624 128.439,199.957 122,207.5C 120.549,209.464 118.716,210.797 116.5,211.5C 111.501,210.051 110.001,207.051 112,202.5C 118.725,194.94 126.225,188.274 134.5,182.5 Z"/></g>
<g><path style="opacity:1" fill="#012f45" d="M 331.5,187.5 C 326.167,187.5 320.833,187.5 315.5,187.5C 298.5,187.5 281.5,187.5 264.5,187.5C 264.81,190.713 264.477,193.713 263.5,196.5C 263.5,193.167 263.5,189.833 263.5,186.5C 286.339,186.169 309.006,186.503 331.5,187.5 Z"/></g>
<g><path style="opacity:1" fill="#01a8f2" d="M 315.5,187.5 C 314.603,197.237 316.103,206.57 320,215.5C 322.463,218.965 325.296,222.131 328.5,225C 343.505,232.504 354.172,244.004 360.5,259.5C 360.376,260.107 360.043,260.44 359.5,260.5C 345.005,253.131 331.005,253.964 317.5,263C 310.693,270.145 303.027,276.145 294.5,281C 280.089,283.128 269.423,277.795 262.5,265C 249.276,254.342 235.109,252.842 220,260.5C 220.032,258.402 220.699,256.402 222,254.5C 223.667,252.167 225.333,249.833 227,247.5C 236.149,239.594 245.483,231.928 255,224.5C 260.616,216.044 263.449,206.71 263.5,196.5C 264.477,193.713 264.81,190.713 264.5,187.5C 281.5,187.5 298.5,187.5 315.5,187.5 Z"/></g>
<g><path style="opacity:1" fill="#0275b9" d="M 315.5,187.5 C 320.833,187.5 326.167,187.5 331.5,187.5C 331.612,199.714 334.446,211.381 340,222.5C 345.628,229.457 352.461,234.957 360.5,239C 373.237,249.569 380.57,263.069 382.5,279.5C 379.984,279.245 377.65,278.411 375.5,277C 369.909,271.578 364.575,266.078 359.5,260.5C 360.043,260.44 360.376,260.107 360.5,259.5C 354.172,244.004 343.505,232.504 328.5,225C 325.296,222.131 322.463,218.965 320,215.5C 316.103,206.57 314.603,197.237 315.5,187.5 Z"/></g>
<g><path style="opacity:0.966" fill="#010000" d="M 106.5,263.5 C 119.113,262.724 129.613,267.057 138,276.5C 157.096,304.578 158.429,333.578 142,363.5C 127.493,383.589 109.659,387.423 88.5,375C 74.2111,360.908 67.2111,343.741 67.5,323.5C 66.8819,300.122 75.8819,281.622 94.5,268C 98.5027,266.151 102.503,264.651 106.5,263.5 Z"/></g>
<g><path style="opacity:1" fill="#9f512c" d="M 335.5,273.5 C 341.81,283.992 351.143,289.325 363.5,289.5C 364.5,290.167 365.5,290.833 366.5,291.5C 372.166,347.491 377.832,403.491 383.5,459.5C 383.164,473.532 377.83,485.199 367.5,494.5C 319.499,494.667 271.499,494.5 223.5,494C 204.091,488.028 194.924,474.862 196,454.5C 201.819,399.187 207.486,343.853 213,288.5C 218.348,281.811 224.848,276.645 232.5,273C 238.595,271.734 244.262,272.734 249.5,276C 267.394,300.972 289.394,305.305 315.5,289C 318.833,285.333 322.167,281.667 325.5,278C 328.48,275.676 331.813,274.176 335.5,273.5 Z"/></g>
<g><path style="opacity:1" fill="#763d21" d="M 363.5,289.5 C 351.143,289.325 341.81,283.992 335.5,273.5C 339.824,272.243 344.157,272.41 348.5,274C 353.703,279.035 358.703,284.202 363.5,289.5 Z"/></g>
<g><path style="opacity:1" fill="#6d381f" d="M 113.5,300.5 C 113.34,293.173 110.34,287.506 104.5,283.5C 106.526,281.498 108.859,281.164 111.5,282.5C 114.162,288.453 114.828,294.453 113.5,300.5 Z"/></g>
<g><path style="opacity:1" fill="#9c502c" d="M 104.5,283.5 C 110.34,287.506 113.34,293.173 113.5,300.5C 112.636,306.923 110.469,312.923 107,318.5C 100.613,326.554 94.6125,334.888 89,343.5C 81.3297,324.251 83.663,306.251 96,289.5C 98.2787,286.619 101.112,284.619 104.5,283.5 Z"/></g>
<g><path style="opacity:1" fill="#763d21" d="M 366.5,291.5 C 371.932,295.216 377.932,297.216 384.5,297.5C 389.419,349.184 394.585,400.85 400,452.5C 402.102,476.56 391.268,490.56 367.5,494.5C 377.83,485.199 383.164,473.532 383.5,459.5C 377.832,403.491 372.166,347.491 366.5,291.5 Z"/></g>
<g><path style="opacity:1" fill="#763d21" d="M 102.5,362.5 C 103.675,362.719 104.675,362.386 105.5,361.5C 112.562,353.598 116.229,344.598 116.5,334.5C 124.429,323.698 129.596,312.365 132,300.5C 138.577,320.369 136.244,339.036 125,356.5C 118.733,363.99 111.233,365.99 102.5,362.5 Z"/></g>
<g><path style="opacity:1" fill="#9c4f2b" d="M 116.5,334.5 C 116.229,344.598 112.562,353.598 105.5,361.5C 104.675,362.386 103.675,362.719 102.5,362.5C 101.371,360.372 101.204,358.039 102,355.5C 106.274,348.069 111.107,341.069 116.5,334.5 Z"/></g>
<g><path style="opacity:1" fill="#f3f2f1" d="M 230.5,457.5 C 229.596,458.209 229.263,459.209 229.5,460.5C 266.833,460.5 304.167,460.5 341.5,460.5C 348.755,462.261 350.922,466.595 348,473.5C 346.786,475.049 345.286,476.215 343.5,477C 304.167,477.667 264.833,477.667 225.5,477C 217.657,474.318 213.324,468.818 212.5,460.5C 215.055,436.841 217.555,413.175 220,389.5C 223.914,382.904 228.914,381.904 235,386.5C 236.057,389.207 236.557,392.04 236.5,395C 234.4,415.833 232.4,436.666 230.5,457.5 Z"/></g>
<g><path style="opacity:1" fill="#b07254" d="M 230.5,457.5 C 267.322,459.165 304.322,460.165 341.5,460.5C 304.167,460.5 266.833,460.5 229.5,460.5C 229.263,459.209 229.596,458.209 230.5,457.5 Z"/></g>
</svg>
