<?xml version="1.0" encoding="UTF-8"?>
<!DOCTYPE svg PUBLIC "-//W3C//DTD SVG 1.1//EN" "http://www.w3.org/Graphics/SVG/1.1/DTD/svg11.dtd">
<svg xmlns="http://www.w3.org/2000/svg" version="1.1" width="512px" height="512px" style="shape-rendering:geometricPrecision; text-rendering:geometricPrecision; image-rendering:optimizeQuality; fill-rule:evenodd; clip-rule:evenodd" xmlns:xlink="http://www.w3.org/1999/xlink">
<g><path style="opacity:0.979" fill="#020000" d="M 56.5,-0.5 C 59.1667,-0.5 61.8333,-0.5 64.5,-0.5C 67.9446,1.72578 71.6112,3.72578 75.5,5.5C 79.3888,3.72578 83.0554,1.72578 86.5,-0.5C 89.1667,-0.5 91.8333,-0.5 94.5,-0.5C 97.9446,1.72578 101.611,3.72578 105.5,5.5C 109.389,3.72578 113.055,1.72578 116.5,-0.5C 119.167,-0.5 121.833,-0.5 124.5,-0.5C 127.945,1.72578 131.611,3.72578 135.5,5.5C 139.389,3.72578 143.055,1.72578 146.5,-0.5C 149.167,-0.5 151.833,-0.5 154.5,-0.5C 157.945,1.72578 161.611,3.72578 165.5,5.5C 169.389,3.72578 173.055,1.72578 176.5,-0.5C 179.167,-0.5 181.833,-0.5 184.5,-0.5C 187.945,1.72578 191.611,3.72578 195.5,5.5C 199.389,3.72578 203.055,1.72578 206.5,-0.5C 209.167,-0.5 211.833,-0.5 214.5,-0.5C 217.945,1.72578 221.611,3.72578 225.5,5.5C 229.389,3.72578 233.055,1.72578 236.5,-0.5C 239.167,-0.5 241.833,-0.5 244.5,-0.5C 247.945,1.72578 251.611,3.72578 255.5,5.5C 259.389,3.72578 263.055,1.72578 266.5,-0.5C 269.167,-0.5 271.833,-0.5 274.5,-0.5C 277.945,1.72578 281.611,3.72578 285.5,5.5C 289.389,3.72578 293.055,1.72578 296.5,-0.5C 299.167,-0.5 301.833,-0.5 304.5,-0.5C 307.945,1.72578 311.611,3.72578 315.5,5.5C 319.389,3.72578 323.055,1.72578 326.5,-0.5C 329.167,-0.5 331.833,-0.5 334.5,-0.5C 337.945,1.72578 341.611,3.72578 345.5,5.5C 349.389,3.72578 353.055,1.72578 356.5,-0.5C 359.167,-0.5 361.833,-0.5 364.5,-0.5C 367.945,1.72578 371.611,3.72578 375.5,5.5C 379.389,3.72578 383.055,1.72578 386.5,-0.5C 389.167,-0.5 391.833,-0.5 394.5,-0.5C 397.945,1.72578 401.611,3.72578 405.5,5.5C 409.389,3.72578 413.055,1.72578 416.5,-0.5C 419.167,-0.5 421.833,-0.5 424.5,-0.5C 427.945,1.72578 431.611,3.72578 435.5,5.5C 439.389,3.72578 443.055,1.72578 446.5,-0.5C 449.167,-0.5 451.833,-0.5 454.5,-0.5C 455.836,1.01027 457.003,2.67694 458,4.5C 458.667,18.8333 458.667,33.1667 458,47.5C 448.333,72.1667 438.667,96.8333 429,121.5C 428.333,210.833 428.333,300.167 429,389.5C 438.667,414.167 448.333,438.833 458,463.5C 458.667,477.833 458.667,492.167 458,506.5C 457.003,508.323 455.836,509.99 454.5,511.5C 451.833,511.5 449.167,511.5 446.5,511.5C 443.055,509.274 439.389,507.274 435.5,505.5C 431.611,507.274 427.945,509.274 424.5,511.5C 421.833,511.5 419.167,511.5 416.5,511.5C 413.055,509.274 409.389,507.274 405.5,505.5C 401.611,507.274 397.945,509.274 394.5,511.5C 391.833,511.5 389.167,511.5 386.5,511.5C 383.055,509.274 379.389,507.274 375.5,505.5C 371.611,507.274 367.945,509.274 364.5,511.5C 361.833,511.5 359.167,511.5 356.5,511.5C 353.055,509.274 349.389,507.274 345.5,505.5C 341.611,507.274 337.945,509.274 334.5,511.5C 331.833,511.5 329.167,511.5 326.5,511.5C 323.055,509.274 319.389,507.274 315.5,505.5C 311.611,507.274 307.945,509.274 304.5,511.5C 301.833,511.5 299.167,511.5 296.5,511.5C 293.055,509.274 289.389,507.274 285.5,505.5C 281.611,507.274 277.945,509.274 274.5,511.5C 271.833,511.5 269.167,511.5 266.5,511.5C 263.055,509.274 259.389,507.274 255.5,505.5C 251.611,507.274 247.945,509.274 244.5,511.5C 241.833,511.5 239.167,511.5 236.5,511.5C 233.055,509.274 229.389,507.274 225.5,505.5C 221.611,507.274 217.945,509.274 214.5,511.5C 211.833,511.5 209.167,511.5 206.5,511.5C 203.055,509.274 199.389,507.274 195.5,505.5C 191.611,507.274 187.945,509.274 184.5,511.5C 181.833,511.5 179.167,511.5 176.5,511.5C 173.055,509.274 169.389,507.274 165.5,505.5C 161.611,507.274 157.945,509.274 154.5,511.5C 151.833,511.5 149.167,511.5 146.5,511.5C 143.055,509.274 139.389,507.274 135.5,505.5C 131.611,507.274 127.945,509.274 124.5,511.5C 121.833,511.5 119.167,511.5 116.5,511.5C 113.055,509.274 109.389,507.274 105.5,505.5C 101.611,507.274 97.9446,509.274 94.5,511.5C 91.8333,511.5 89.1667,511.5 86.5,511.5C 83.0554,509.274 79.3888,507.274 75.5,505.5C 71.6112,507.274 67.9446,509.274 64.5,511.5C 61.8333,511.5 59.1667,511.5 56.5,511.5C 55.1639,509.99 53.9973,508.323 53,506.5C 52.3333,492.167 52.3333,477.833 53,463.5C 62.6667,438.833 72.3333,414.167 82,389.5C 82.3333,333.833 82.6667,278.167 83,222.5C 84.4103,219.211 86.9103,217.544 90.5,217.5C 94.0241,218.018 96.3575,220.018 97.5,223.5C 97.5,276.833 97.5,330.167 97.5,383.5C 101.042,383.813 104.375,383.479 107.5,382.5C 145.812,381.862 182.812,374.696 218.5,361C 248.428,347.358 278.761,334.691 309.5,323C 336.083,315.095 363.083,310.262 390.5,308.5C 393.833,308.5 397.167,308.5 400.5,308.5C 404.833,308.5 409.167,308.5 413.5,308.5C 413.5,248.167 413.5,187.833 413.5,127.5C 408.968,127.182 404.634,127.515 400.5,128.5C 394.974,128.179 389.64,128.512 384.5,129.5C 351.684,131.606 320.018,138.772 289.5,151C 269.167,160 248.833,169 228.5,178C 183.952,195.034 137.952,203.534 90.5,203.5C 86.9103,203.456 84.4103,201.789 83,198.5C 82.6667,172.833 82.3333,147.167 82,121.5C 72.3333,96.8333 62.6667,72.1667 53,47.5C 52.3333,33.1667 52.3333,18.8333 53,4.5C 53.9973,2.67694 55.1639,1.01027 56.5,-0.5 Z"/></g>
<g><path style="opacity:1" fill="#fd3d39" d="M 420.5,15.5 C 420.5,22.5 420.5,29.5 420.5,36.5C 303.167,36.5 185.833,36.5 68.5,36.5C 68.5,30.8333 68.5,25.1667 68.5,19.5C 71.9312,21.3878 75.5979,21.8878 79.5,21C 83.2725,19.0303 87.1059,17.197 91,15.5C 95.442,18.4718 100.275,20.4718 105.5,21.5C 110.906,20.2176 116.072,18.2176 121,15.5C 125.442,18.4718 130.275,20.4718 135.5,21.5C 140.906,20.2176 146.072,18.2176 151,15.5C 155.442,18.4718 160.275,20.4718 165.5,21.5C 170.906,20.2176 176.072,18.2176 181,15.5C 185.442,18.4718 190.275,20.4718 195.5,21.5C 200.906,20.2176 206.072,18.2176 211,15.5C 215.442,18.4718 220.275,20.4718 225.5,21.5C 230.906,20.2176 236.072,18.2176 241,15.5C 245.442,18.4718 250.275,20.4718 255.5,21.5C 260.906,20.2176 266.072,18.2176 271,15.5C 275.442,18.4718 280.275,20.4718 285.5,21.5C 290.906,20.2176 296.072,18.2176 301,15.5C 305.442,18.4718 310.275,20.4718 315.5,21.5C 320.906,20.2176 326.072,18.2176 331,15.5C 335.442,18.4718 340.275,20.4718 345.5,21.5C 350.906,20.2176 356.072,18.2176 361,15.5C 365.442,18.4718 370.275,20.4718 375.5,21.5C 380.906,20.2176 386.072,18.2176 391,15.5C 395.442,18.4718 400.275,20.4718 405.5,21.5C 410.825,20.3384 415.825,18.3384 420.5,15.5 Z"/></g>
<g><path style="opacity:1" fill="#ca3144" d="M 420.5,15.5 C 424.14,17.3201 427.807,19.1534 431.5,21C 435.402,21.8878 439.069,21.3878 442.5,19.5C 442.5,25.1667 442.5,30.8333 442.5,36.5C 435.167,36.5 427.833,36.5 420.5,36.5C 420.5,29.5 420.5,22.5 420.5,15.5 Z"/></g>
<g><path style="opacity:1" fill="#84201f" d="M 68.5,19.5 C 68.5,25.1667 68.5,30.8333 68.5,36.5C 185.833,36.5 303.167,36.5 420.5,36.5C 427.833,36.5 435.167,36.5 442.5,36.5C 442.5,30.8333 442.5,25.1667 442.5,19.5C 443.49,25.31 443.823,31.31 443.5,37.5C 318.167,37.5 192.833,37.5 67.5,37.5C 67.1771,31.31 67.5104,25.31 68.5,19.5 Z"/></g>
<g><path style="opacity:1" fill="#772a18" d="M 438.5,53.5 C 431.687,52.5088 424.687,52.1755 417.5,52.5C 302.332,52.1672 187.332,52.5005 72.5,53.5C 71.9569,53.44 71.6236,53.1067 71.5,52.5C 194.167,51.1667 316.833,51.1667 439.5,52.5C 439.376,53.1067 439.043,53.44 438.5,53.5 Z"/></g>
<g><path style="opacity:1" fill="#fc5c33" d="M 417.5,52.5 C 409.109,72.6702 401.109,93.0035 393.5,113.5C 353.296,115.718 314.629,124.552 277.5,140C 248.839,153.664 219.506,165.664 189.5,176C 161.929,182.963 133.929,186.796 105.5,187.5C 103.167,187.5 100.833,187.5 98.5,187.5C 98.8308,164.327 98.4975,141.327 97.5,118.5C 88.9704,96.9117 80.6371,75.245 72.5,53.5C 187.332,52.5005 302.332,52.1672 417.5,52.5 Z"/></g>
<g><path style="opacity:1" fill="#fc3d39" d="M 417.5,52.5 C 424.687,52.1755 431.687,52.5088 438.5,53.5C 431.124,73.2569 423.457,92.9236 415.5,112.5C 408.197,113.497 400.863,113.831 393.5,113.5C 401.109,93.0035 409.109,72.6702 417.5,52.5 Z"/></g>
<g><path style="opacity:1" fill="#010000" d="M 131.5,97.5 C 164.168,97.3334 196.835,97.5 229.5,98C 233.5,102.333 233.5,106.667 229.5,111C 196.833,111.667 164.167,111.667 131.5,111C 127.541,106.501 127.541,102.001 131.5,97.5 Z"/></g>
<g><path style="opacity:1" fill="#7b2c19" d="M 97.5,118.5 C 98.4975,141.327 98.8308,164.327 98.5,187.5C 100.833,187.5 103.167,187.5 105.5,187.5C 103.052,188.473 100.385,188.806 97.5,188.5C 97.5,165.167 97.5,141.833 97.5,118.5 Z"/></g>
<g><path style="opacity:1" fill="#010000" d="M 131.5,127.5 C 164.168,127.333 196.835,127.5 229.5,128C 233.5,132.333 233.5,136.667 229.5,141C 196.833,141.667 164.167,141.667 131.5,141C 127.541,136.501 127.541,132.001 131.5,127.5 Z"/></g>
<g><path style="opacity:1" fill="#fdb25b" d="M 384.5,129.5 C 389.64,128.512 394.974,128.179 400.5,128.5C 404.5,128.5 408.5,128.5 412.5,128.5C 412.5,188.167 412.5,247.833 412.5,307.5C 408.298,307.183 404.298,307.517 400.5,308.5C 397.167,308.5 393.833,308.5 390.5,308.5C 390.831,283.994 390.498,259.661 389.5,235.5C 396.538,219.878 399.038,203.545 397,186.5C 395.623,181.416 393.457,176.749 390.5,172.5C 390.5,158.167 390.5,143.833 390.5,129.5C 388.5,129.5 386.5,129.5 384.5,129.5 Z"/></g>
<g><path style="opacity:1" fill="#7e582d" d="M 400.5,128.5 C 404.634,127.515 408.968,127.182 413.5,127.5C 413.5,187.833 413.5,248.167 413.5,308.5C 409.167,308.5 404.833,308.5 400.5,308.5C 404.298,307.517 408.298,307.183 412.5,307.5C 412.5,247.833 412.5,188.167 412.5,128.5C 408.5,128.5 404.5,128.5 400.5,128.5 Z"/></g>
<g><path style="opacity:1" fill="#fcce69" d="M 384.5,129.5 C 386.5,129.5 388.5,129.5 390.5,129.5C 390.5,143.833 390.5,158.167 390.5,172.5C 376.569,157.529 360.236,154.362 341.5,163C 328.605,171.289 322.438,183.123 323,198.5C 321.493,206.67 316.993,212.503 309.5,216C 303.683,217.986 297.683,218.986 291.5,219C 266.145,228.88 257.979,246.713 267,272.5C 278.389,290.308 294.556,296.808 315.5,292C 349.599,285.388 374.265,266.555 389.5,235.5C 390.498,259.661 390.831,283.994 390.5,308.5C 363.083,310.262 336.083,315.095 309.5,323C 278.761,334.691 248.428,347.358 218.5,361C 182.812,374.696 145.812,381.862 107.5,382.5C 104.5,382.5 101.5,382.5 98.5,382.5C 98.8323,329.331 98.4989,276.331 97.5,223.5C 96.3575,220.018 94.0241,218.018 90.5,217.5C 90.5,212.833 90.5,208.167 90.5,203.5C 137.952,203.534 183.952,195.034 228.5,178C 248.833,169 269.167,160 289.5,151C 320.018,138.772 351.684,131.606 384.5,129.5 Z"/></g>
<g><path style="opacity:1" fill="#060301" d="M 390.5,172.5 C 393.457,176.749 395.623,181.416 397,186.5C 399.038,203.545 396.538,219.878 389.5,235.5C 374.265,266.555 349.599,285.388 315.5,292C 294.556,296.808 278.389,290.308 267,272.5C 257.979,246.713 266.145,228.88 291.5,219C 297.683,218.986 303.683,217.986 309.5,216C 316.993,212.503 321.493,206.67 323,198.5C 322.438,183.123 328.605,171.289 341.5,163C 360.236,154.362 376.569,157.529 390.5,172.5 Z"/></g>
<g><path style="opacity:1" fill="#fd5c33" d="M 279.5,247.5 C 288.276,254.493 298.276,256.993 309.5,255C 336.991,248.842 353.824,232.009 360,204.5C 362.087,193.277 359.587,183.277 352.5,174.5C 366.247,170.957 376.081,175.624 382,188.5C 383.861,224.284 369.361,251.118 338.5,269C 324.255,275.979 309.255,278.645 293.5,277C 280.624,271.081 275.957,261.247 279.5,247.5 Z"/></g>
<g><path style="opacity:1" fill="#fc7840" d="M 352.5,174.5 C 359.587,183.277 362.087,193.277 360,204.5C 353.824,232.009 336.991,248.842 309.5,255C 298.276,256.993 288.276,254.493 279.5,247.5C 285.926,235.785 295.926,230.618 309.5,232C 328.979,225.547 338.479,212.047 338,191.5C 340.167,183.504 345,177.838 352.5,174.5 Z"/></g>
<g><path style="opacity:1" fill="#060301" d="M 201.5,218.5 C 224.22,215.744 239.387,225.078 247,246.5C 249.094,290.819 230.594,323.319 191.5,344C 175.565,351.313 158.899,353.98 141.5,352C 119.92,344.405 110.753,329.238 114,306.5C 120.182,287.325 133.348,277.825 153.5,278C 161.67,276.493 167.503,271.993 171,264.5C 172.986,258.683 173.986,252.683 174,246.5C 178.684,232.65 187.851,223.316 201.5,218.5 Z"/></g>
<g><path style="opacity:1" fill="#7b6533" d="M 97.5,223.5 C 98.4989,276.331 98.8323,329.331 98.5,382.5C 101.5,382.5 104.5,382.5 107.5,382.5C 104.375,383.479 101.042,383.813 97.5,383.5C 97.5,330.167 97.5,276.833 97.5,223.5 Z"/></g>
<g><path style="opacity:1" fill="#fd5c33" d="M 129.5,307.5 C 138.276,314.493 148.276,316.993 159.5,315C 186.991,308.842 203.824,292.009 210,264.5C 212.087,253.277 209.587,243.277 202.5,234.5C 216.247,230.957 226.081,235.624 232,248.5C 233.861,284.284 219.361,311.118 188.5,329C 174.255,335.979 159.255,338.645 143.5,337C 130.624,331.081 125.957,321.247 129.5,307.5 Z"/></g>
<g><path style="opacity:1" fill="#fc7840" d="M 202.5,234.5 C 209.587,243.277 212.087,253.277 210,264.5C 203.824,292.009 186.991,308.842 159.5,315C 148.276,316.993 138.276,314.493 129.5,307.5C 135.926,295.785 145.926,290.618 159.5,292C 178.979,285.547 188.479,272.047 188,251.5C 190.167,243.504 195,237.838 202.5,234.5 Z"/></g>
<g><path style="opacity:1" fill="#cb3144" d="M 384.5,324.5 C 389.64,323.512 394.974,323.179 400.5,323.5C 404.5,323.5 408.5,323.5 412.5,323.5C 412.169,346.673 412.502,369.673 413.5,392.5C 422.033,414.1 430.366,435.767 438.5,457.5C 431.687,458.491 424.687,458.825 417.5,458.5C 408.682,436.192 399.849,413.859 391,391.5C 390.5,369.169 390.333,346.836 390.5,324.5C 388.5,324.5 386.5,324.5 384.5,324.5 Z"/></g>
<g><path style="opacity:1" fill="#601720" d="M 400.5,323.5 C 404.634,322.515 408.968,322.182 413.5,322.5C 413.5,345.833 413.5,369.167 413.5,392.5C 412.502,369.673 412.169,346.673 412.5,323.5C 408.5,323.5 404.5,323.5 400.5,323.5 Z"/></g>
<g><path style="opacity:1" fill="#fc3d39" d="M 384.5,324.5 C 386.5,324.5 388.5,324.5 390.5,324.5C 390.333,346.836 390.5,369.169 391,391.5C 399.849,413.859 408.682,436.192 417.5,458.5C 302.332,458.833 187.332,458.5 72.5,457.5C 79.5685,437.633 87.2352,417.966 95.5,398.5C 141.463,398.381 185.796,389.881 228.5,373C 255.821,360.506 283.488,348.839 311.5,338C 335.233,330.22 359.566,325.72 384.5,324.5 Z"/></g>
<g><path style="opacity:1" fill="#010000" d="M 281.5,369.5 C 314.168,369.333 346.835,369.5 379.5,370C 383.5,374.333 383.5,378.667 379.5,383C 346.833,383.667 314.167,383.667 281.5,383C 277.541,378.501 277.541,374.001 281.5,369.5 Z"/></g>
<g><path style="opacity:1" fill="#010000" d="M 281.5,399.5 C 314.168,399.333 346.835,399.5 379.5,400C 383.5,404.333 383.5,408.667 379.5,413C 346.833,413.667 314.167,413.667 281.5,413C 277.541,408.501 277.541,404.001 281.5,399.5 Z"/></g>
<g><path style="opacity:1" fill="#86201f" d="M 72.5,457.5 C 187.332,458.5 302.332,458.833 417.5,458.5C 424.687,458.825 431.687,458.491 438.5,457.5C 439.043,457.56 439.376,457.893 439.5,458.5C 316.833,459.833 194.167,459.833 71.5,458.5C 71.6236,457.893 71.9569,457.56 72.5,457.5 Z"/></g>
<g><path style="opacity:1" fill="#ca3144" d="M 68.5,474.5 C 185.833,474.5 303.167,474.5 420.5,474.5C 420.5,481.5 420.5,488.5 420.5,495.5C 415.825,492.662 410.825,490.662 405.5,489.5C 400.201,490.646 395.201,492.646 390.5,495.5C 385.799,492.646 380.799,490.646 375.5,489.5C 370.201,490.646 365.201,492.646 360.5,495.5C 355.799,492.646 350.799,490.646 345.5,489.5C 340.201,490.646 335.201,492.646 330.5,495.5C 325.799,492.646 320.799,490.646 315.5,489.5C 310.201,490.646 305.201,492.646 300.5,495.5C 295.799,492.646 290.799,490.646 285.5,489.5C 280.201,490.646 275.201,492.646 270.5,495.5C 265.799,492.646 260.799,490.646 255.5,489.5C 250.201,490.646 245.201,492.646 240.5,495.5C 235.799,492.646 230.799,490.646 225.5,489.5C 220.201,490.646 215.201,492.646 210.5,495.5C 205.799,492.646 200.799,490.646 195.5,489.5C 190.201,490.646 185.201,492.646 180.5,495.5C 176.833,493.667 173.167,491.833 169.5,490C 166.833,489.333 164.167,489.333 161.5,490C 157.833,491.833 154.167,493.667 150.5,495.5C 145.799,492.646 140.799,490.646 135.5,489.5C 130.201,490.646 125.201,492.646 120.5,495.5C 115.799,492.646 110.799,490.646 105.5,489.5C 100.201,490.646 95.2009,492.646 90.5,495.5C 86.8333,493.667 83.1667,491.833 79.5,490C 75.6284,489.109 71.9618,489.609 68.5,491.5C 67.1843,485.68 67.1843,480.013 68.5,474.5 Z"/></g>
<g><path style="opacity:1" fill="#8d2941" d="M 68.5,474.5 C 192.999,473.334 317.666,473.167 442.5,474C 443.807,479.779 443.807,485.612 442.5,491.5C 439.038,489.609 435.372,489.109 431.5,490C 427.807,491.847 424.14,493.68 420.5,495.5C 420.5,488.5 420.5,481.5 420.5,474.5C 303.167,474.5 185.833,474.5 68.5,474.5 Z"/></g>
</svg>
