<?xml version="1.0" encoding="UTF-8"?>
<!DOCTYPE svg PUBLIC "-//W3C//DTD SVG 1.1//EN" "http://www.w3.org/Graphics/SVG/1.1/DTD/svg11.dtd">
<svg xmlns="http://www.w3.org/2000/svg" version="1.1" width="512px" height="512px" style="shape-rendering:geometricPrecision; text-rendering:geometricPrecision; image-rendering:optimizeQuality; fill-rule:evenodd; clip-rule:evenodd" xmlns:xlink="http://www.w3.org/1999/xlink">
<g><path style="opacity:0.96" fill="#020000" d="M 193.5,-0.5 C 198.167,-0.5 202.833,-0.5 207.5,-0.5C 214.816,3.62753 221.483,8.7942 227.5,15C 235.91,15.8496 244.243,17.183 252.5,19C 258.244,23.319 261.244,29.1523 261.5,36.5C 259.196,47.5764 255.03,57.9097 249,67.5C 245.292,73.7506 241.459,79.9173 237.5,86C 248.006,100.184 253.339,116.184 253.5,134C 251.111,154.614 247.944,175.114 244,195.5C 241.185,240.409 256.018,278.243 288.5,309C 296.333,314.833 304.167,320.667 312,326.5C 312.497,328.81 312.663,331.143 312.5,333.5C 309.749,336.437 306.415,337.604 302.5,337C 250.68,303.533 226.18,255.699 229,193.5C 232,177.833 235,162.167 238,146.5C 241.677,123.198 235.177,103.365 218.5,87C 209.066,79.787 198.399,75.6203 186.5,74.5C 175.866,73.6634 165.532,74.9967 155.5,78.5C 152.689,78.026 150.355,76.6927 148.5,74.5C 148.154,71.3979 148.821,68.5645 150.5,66C 157.432,62.9765 164.598,60.8099 172,59.5C 172.282,45.5717 174.282,31.9051 178,18.5C 180.838,10.0953 186.005,3.76199 193.5,-0.5 Z"/></g>
<g><path style="opacity:1" fill="#e1746e" d="M 198.5,13.5 C 200.989,13.2978 203.323,13.7978 205.5,15C 210.876,20.0443 216.542,24.711 222.5,29C 230.15,30.0414 237.817,31.0414 245.5,32C 246.61,34.7372 246.777,37.5706 246,40.5C 240.513,52.8152 234.013,64.4819 226.5,75.5C 214.94,66.8917 201.94,61.8917 187.5,60.5C 186.313,45.9556 188.48,31.9556 194,18.5C 195.059,16.3408 196.559,14.6741 198.5,13.5 Z"/></g>
<g><path style="opacity:1" fill="#d23636" d="M 148.5,74.5 C 150.355,76.6927 152.689,78.026 155.5,78.5C 165.532,74.9967 175.866,73.6634 186.5,74.5C 204.574,85.9436 215.741,102.277 220,123.5C 220.785,135.865 220.451,148.198 219,160.5C 216.654,174.242 213.988,187.909 211,201.5C 206.081,256.098 223.248,302.264 262.5,340C 281.325,353.579 300.325,366.913 319.5,380C 336.423,392.686 347.757,409.186 353.5,429.5C 345.174,446.693 331.507,457.193 312.5,461C 289.38,463.176 267.38,459.176 246.5,449C 204.351,427.187 170.851,396.02 146,355.5C 113.907,303.37 98.9066,246.703 101,185.5C 103.246,151.412 114.913,121.079 136,94.5C 136.712,91.5624 136.212,88.8957 134.5,86.5C 138.422,81.5526 143.089,77.5526 148.5,74.5 Z"/></g>
<g><path style="opacity:1" fill="#ba2121" d="M 186.5,74.5 C 198.399,75.6203 209.066,79.787 218.5,87C 235.177,103.365 241.677,123.198 238,146.5C 235,162.167 232,177.833 229,193.5C 226.18,255.699 250.68,303.533 302.5,337C 306.415,337.604 309.749,336.437 312.5,333.5C 317.284,337.399 322.284,341.066 327.5,344.5C 325.047,347.303 324.88,350.303 327,353.5C 336.748,361.246 345.081,370.246 352,380.5C 358.155,392.457 360.155,405.124 358,418.5C 356.943,422.449 355.443,426.116 353.5,429.5C 347.757,409.186 336.423,392.686 319.5,380C 300.325,366.913 281.325,353.579 262.5,340C 223.248,302.264 206.081,256.098 211,201.5C 213.988,187.909 216.654,174.242 219,160.5C 220.451,148.198 220.785,135.865 220,123.5C 215.741,102.277 204.574,85.9436 186.5,74.5 Z"/></g>
<g><path style="opacity:0.957" fill="#020000" d="M 134.5,86.5 C 136.212,88.8957 136.712,91.5624 136,94.5C 114.913,121.079 103.246,151.412 101,185.5C 98.9066,246.703 113.907,303.37 146,355.5C 170.851,396.02 204.351,427.187 246.5,449C 267.38,459.176 289.38,463.176 312.5,461C 331.507,457.193 345.174,446.693 353.5,429.5C 355.443,426.116 356.943,422.449 358,418.5C 360.155,405.124 358.155,392.457 352,380.5C 345.081,370.246 336.748,361.246 327,353.5C 324.88,350.303 325.047,347.303 327.5,344.5C 330.826,340.712 334.493,340.546 338.5,344C 363.098,362.025 374.598,386.192 373,416.5C 389.138,423.229 403.805,432.229 417,443.5C 427.658,456.206 426.825,468.039 414.5,479C 408.5,482 402.5,485 396.5,488C 393.524,493.453 390.691,498.953 388,504.5C 385.559,507.454 382.725,509.787 379.5,511.5C 375.5,511.5 371.5,511.5 367.5,511.5C 361.129,508.879 355.629,504.879 351,499.5C 343.642,490.309 336.475,480.976 329.5,471.5C 312.096,477.153 294.43,477.987 276.5,474C 244.679,466.257 216.346,451.924 191.5,431C 130.604,375.712 95.7711,306.879 87,224.5C 82.453,181.094 90.7863,140.428 112,102.5C 115,98.1667 118,93.8333 121,89.5C 124.73,84.3556 129.23,83.3556 134.5,86.5 Z"/></g>
<g><path style="opacity:1" fill="#070101" d="M 177.5,164.5 C 185.339,165.18 187.839,169.18 185,176.5C 177.461,184.37 170.294,192.537 163.5,201C 157.367,204.107 153.367,202.44 151.5,196C 151.625,194.373 152.125,192.873 153,191.5C 160.726,182.007 168.892,173.007 177.5,164.5 Z"/></g>
<g><path style="opacity:1" fill="#060101" d="M 187.5,236.5 C 195.4,236.234 198.233,239.901 196,247.5C 188.382,255.906 180.882,264.406 173.5,273C 163.869,275.616 160.703,272.116 164,262.5C 172.094,253.908 179.927,245.242 187.5,236.5 Z"/></g>
<g><path style="opacity:1" fill="#070101" d="M 216.5,303.5 C 223.996,302.174 227.496,305.174 227,312.5C 219.833,321.667 212.667,330.833 205.5,340C 195.884,343.297 192.384,340.131 195,330.5C 202.175,321.47 209.342,312.47 216.5,303.5 Z"/></g>
<g><path style="opacity:1" fill="#060101" d="M 261.5,359.5 C 268.169,359.005 271.336,362.005 271,368.5C 264.667,377.833 258.333,387.167 252,396.5C 247.574,400.781 243.574,400.448 240,395.5C 239.333,393.5 239.333,391.5 240,389.5C 246.674,379.017 253.841,369.017 261.5,359.5 Z"/></g>
<g><path style="opacity:1" fill="#e2746e" d="M 368.5,431.5 C 382.818,436.74 395.651,444.406 407,454.5C 410.089,458.204 410.256,462.037 407.5,466C 402.377,469.044 397.044,471.711 391.5,474C 388.705,475.793 386.205,477.96 384,480.5C 381.34,485.798 378.673,491.131 376,496.5C 373.455,497.797 370.955,497.631 368.5,496C 359.076,485.913 350.409,475.247 342.5,464C 354.36,455.649 363.026,444.815 368.5,431.5 Z"/></g>
</svg>
