<?xml version="1.0" encoding="UTF-8"?>
<!DOCTYPE svg PUBLIC "-//W3C//DTD SVG 1.1//EN" "http://www.w3.org/Graphics/SVG/1.1/DTD/svg11.dtd">
<svg xmlns="http://www.w3.org/2000/svg" version="1.1" width="512px" height="512px" style="shape-rendering:geometricPrecision; text-rendering:geometricPrecision; image-rendering:optimizeQuality; fill-rule:evenodd; clip-rule:evenodd" xmlns:xlink="http://www.w3.org/1999/xlink">
<g><path style="opacity:0.987" fill="#020101" d="M 328.5,-0.5 C 342.5,-0.5 356.5,-0.5 370.5,-0.5C 396.282,1.92881 419.949,10.4288 441.5,25C 456.544,36.5782 467.044,51.4115 473,69.5C 480.961,90.9693 485.461,113.136 486.5,136C 486.525,159.752 479.691,181.252 466,200.5C 453.375,216.127 440.375,231.46 427,246.5C 418.416,257.324 411.083,268.991 405,281.5C 403.21,285.995 402.376,290.661 402.5,295.5C 404.768,310.443 406.601,325.443 408,340.5C 411.135,391.116 394.969,434.283 359.5,470C 331.162,494.001 298.496,507.834 261.5,511.5C 248.833,511.5 236.167,511.5 223.5,511.5C 126.308,495.832 62.8077,440.832 33,346.5C 19.4293,297.345 22.7627,249.345 43,202.5C 64.198,157.948 93.698,119.781 131.5,88C 188.999,40.5888 254.666,11.0888 328.5,-0.5 Z"/></g>
<g><path style="opacity:1" fill="#e48a9c" d="M 328.5,19.5 C 357.467,17.4954 385.467,21.6621 412.5,32C 450.434,49.0231 461.934,76.8564 447,115.5C 435.682,96.1788 420.849,80.0121 402.5,67C 392.953,61.5838 383.286,61.2505 373.5,66C 364.903,74.0252 362.07,83.8586 365,95.5C 368.883,104.484 371.55,113.817 373,123.5C 373.853,135.556 375.187,147.556 377,159.5C 380.401,173.136 386.568,185.303 395.5,196C 392.152,202.207 389.486,208.707 387.5,215.5C 364.363,196.838 348.53,173.171 340,144.5C 335.572,127.268 331.572,109.935 328,92.5C 321.917,68.333 311.083,46.6663 295.5,27.5C 299.914,25.3928 304.581,23.8928 309.5,23C 315.972,21.8126 322.306,20.6459 328.5,19.5 Z"/></g>
<g><path style="opacity:1" fill="#ac3d52" d="M 283.5,258.5 C 283.313,256.436 282.813,254.436 282,252.5C 279.14,246.78 276.307,241.114 273.5,235.5C 279.517,228.42 278.517,222.587 270.5,218C 267.445,217.366 264.445,217.532 261.5,218.5C 258.985,212.652 255.318,207.652 250.5,203.5C 250.167,201.167 248.833,199.833 246.5,199.5C 249.324,195.64 250.158,191.307 249,186.5C 230.362,166.862 211.362,147.528 192,128.5C 181.476,116.302 172.976,102.802 166.5,88C 198.803,64.3461 234.136,46.1794 272.5,33.5C 285.167,46.049 295.001,60.7157 302,77.5C 304.531,84.0914 306.864,90.758 309,97.5C 313,114.833 317,132.167 321,149.5C 331.498,185.663 351.832,214.996 382,237.5C 381.833,247.84 381.167,258.174 380,268.5C 380.087,290.893 379.087,313.227 377,335.5C 376.17,340.323 374.836,344.989 373,349.5C 360.741,335.802 346.574,324.636 330.5,316C 321.866,308.87 315.033,300.37 310,290.5C 305.061,280.955 300.394,271.289 296,261.5C 292.425,257.769 288.258,256.769 283.5,258.5 Z"/></g>
<g><path style="opacity:1" fill="#ad4054" d="M 384.5,82.5 C 389.69,82.9258 394.357,84.7591 398.5,88C 413.465,102.285 426.132,118.285 436.5,136C 427.061,149.936 417.061,163.436 406.5,176.5C 401.384,169.6 397.884,161.933 396,153.5C 395.443,131.487 391.443,110.154 384,89.5C 383.444,87.1152 383.61,84.7819 384.5,82.5 Z"/></g>
<g><path style="opacity:1" fill="#e58a9c" d="M 246.5,199.5 C 248.833,199.833 250.167,201.167 250.5,203.5C 254.229,208.567 257.562,213.901 260.5,219.5C 255.346,228.369 257.68,234.369 267.5,237.5C 269.597,237.023 271.597,236.357 273.5,235.5C 276.307,241.114 279.14,246.78 282,252.5C 282.813,254.436 283.313,256.436 283.5,258.5C 279.095,260.881 277.262,264.547 278,269.5C 285.778,289.067 296.111,307.067 309,323.5C 320.724,332.945 332.891,341.778 345.5,350C 352.385,356.382 358.718,363.216 364.5,370.5C 362.837,374.496 360.671,378.163 358,381.5C 345.747,370.12 331.58,361.953 315.5,357C 291.912,354.749 280.246,365.582 280.5,389.5C 280.859,406.247 284.526,422.247 291.5,437.5C 287.511,440.161 283.178,442.328 278.5,444C 269.644,446.964 260.644,449.464 251.5,451.5C 250.353,451.182 249.519,450.516 249,449.5C 239.826,417.691 222.66,391.191 197.5,370C 183.339,360.086 169.006,350.419 154.5,341C 133.581,326.082 116.081,307.915 102,286.5C 86.3709,261.407 73.5376,234.907 63.5,207C 65.9428,201.281 68.7762,195.781 72,190.5C 79.1165,206.204 89.2832,219.704 102.5,231C 110.833,238 119.167,245 127.5,252C 139.647,264.035 151.314,276.368 162.5,289C 184.341,299.566 197.508,292.733 202,268.5C 203.525,252.366 201.525,236.699 196,221.5C 194,218.167 192,214.833 190,211.5C 181.03,201.53 171.697,191.863 162,182.5C 159.667,179.167 157.333,175.833 155,172.5C 149.805,160.581 144.805,148.581 140,136.5C 136.62,130.236 133.12,124.069 129.5,118C 135.174,111.662 141.508,105.996 148.5,101C 149.332,100.312 149.998,100.479 150.5,101.5C 157.595,116.035 166.429,129.368 177,141.5C 195.362,159.528 213.362,177.862 231,196.5C 235.414,201.683 240.58,202.683 246.5,199.5 Z"/></g>
<g><path style="opacity:1" fill="#ad3c52" d="M 464.5,125.5 C 467.357,144.4 464.19,162.4 455,179.5C 449.387,188.112 443.387,196.446 437,204.5C 424.917,217.246 413.583,230.579 403,244.5C 403.809,227.735 408.476,212.068 417,197.5C 429.421,179.657 442.088,161.99 455,144.5C 458.705,138.423 461.872,132.09 464.5,125.5 Z"/></g>
<g><path style="opacity:1" fill="#ad3f54" d="M 113.5,132.5 C 115.074,132.937 116.241,133.937 117,135.5C 124.527,151.75 131.861,168.083 139,184.5C 141.422,188.344 144.089,192.01 147,195.5C 156.642,204.81 165.975,214.476 175,224.5C 181.972,238.034 184.305,252.367 182,267.5C 180.778,275.348 177.278,276.515 171.5,271C 162.274,258.768 151.94,247.435 140.5,237C 127.738,226.909 115.572,216.076 104,204.5C 94.2105,193.258 88.5438,180.258 87,165.5C 95.2874,154.048 104.121,143.048 113.5,132.5 Z"/></g>
<g><path style="opacity:0.98" fill="#ffc6d0" d="M 250.5,203.5 C 255.318,207.652 258.985,212.652 261.5,218.5C 261.5,219.167 261.167,219.5 260.5,219.5C 257.562,213.901 254.229,208.567 250.5,203.5 Z"/></g>
<g><path style="opacity:1" fill="#080606" d="M 273.5,235.5 C 271.597,236.357 269.597,237.023 267.5,237.5C 257.68,234.369 255.346,228.369 260.5,219.5C 261.167,219.5 261.5,219.167 261.5,218.5C 264.445,217.532 267.445,217.366 270.5,218C 278.517,222.587 279.517,228.42 273.5,235.5 Z"/></g>
<g><path style="opacity:1" fill="#ac3d53" d="M 52.5,235.5 C 53.4972,235.47 54.1639,235.97 54.5,237C 66.3822,266.951 82.2156,294.451 102,319.5C 110.167,329 119,337.833 128.5,346C 147.223,359.722 166.223,373.056 185.5,386C 207.861,404.206 222.528,427.372 229.5,455.5C 180.157,461.091 136.49,448.257 98.5,417C 59.2819,377.366 41.7819,329.533 46,273.5C 47.4128,260.689 49.5795,248.023 52.5,235.5 Z"/></g>
<g><path style="opacity:1" fill="#ac3c52" d="M 385.5,371.5 C 379.83,423.248 352.83,459.415 304.5,480C 253.42,498.12 203.753,494.786 155.5,470C 202.11,480.094 247.776,476.76 292.5,460C 335.108,442.556 366.108,413.056 385.5,371.5 Z"/></g>
<g><path style="opacity:1" fill="#ad4055" d="M 304.5,375.5 C 313.165,376.327 321.165,379.16 328.5,384C 334.924,387.923 340.924,392.423 346.5,397.5C 335.872,409.965 323.538,420.298 309.5,428.5C 303.005,414.188 299.838,399.188 300,383.5C 300.738,380.352 302.238,377.685 304.5,375.5 Z"/></g>
</svg>
