<?xml version="1.0" encoding="UTF-8"?>
<!DOCTYPE svg PUBLIC "-//W3C//DTD SVG 1.1//EN" "http://www.w3.org/Graphics/SVG/1.1/DTD/svg11.dtd">
<svg xmlns="http://www.w3.org/2000/svg" version="1.1" width="512px" height="512px" style="shape-rendering:geometricPrecision; text-rendering:geometricPrecision; image-rendering:optimizeQuality; fill-rule:evenodd; clip-rule:evenodd" xmlns:xlink="http://www.w3.org/1999/xlink">
<g><path style="opacity:0.987" fill="#020101" d="M 328.5,-0.5 C 342.5,-0.5 356.5,-0.5 370.5,-0.5C 396.282,1.92881 419.949,10.4288 441.5,25C 456.544,36.5782 467.044,51.4115 473,69.5C 480.961,90.9693 485.461,113.136 486.5,136C 486.525,159.752 479.691,181.252 466,200.5C 453.375,216.127 440.375,231.46 427,246.5C 418.416,257.324 411.083,268.991 405,281.5C 403.21,285.995 402.376,290.661 402.5,295.5C 404.768,310.443 406.601,325.443 408,340.5C 411.135,391.116 394.969,434.283 359.5,470C 331.162,494.001 298.496,507.834 261.5,511.5C 248.833,511.5 236.167,511.5 223.5,511.5C 126.308,495.832 62.8077,440.832 33,346.5C 19.4293,297.345 22.7627,249.345 43,202.5C 64.198,157.948 93.698,119.781 131.5,88C 188.999,40.5888 254.666,11.0888 328.5,-0.5 Z"/></g>
<g><path style="opacity:1" fill="#fc99ac" d="M 328.5,19.5 C 357.467,17.4954 385.467,21.6621 412.5,32C 450.441,49.035 461.941,76.8684 447,115.5C 437.02,99.8471 425.186,85.6804 411.5,73C 402.658,65.0528 392.325,61.7195 380.5,63C 373.819,65.0133 368.986,69.18 366,75.5C 364.456,82.0839 364.123,88.7506 365,95.5C 368.883,104.484 371.55,113.817 373,123.5C 373.853,135.556 375.187,147.556 377,159.5C 380.401,173.136 386.568,185.303 395.5,196C 392.152,202.207 389.486,208.707 387.5,215.5C 364.363,196.838 348.53,173.171 340,144.5C 334.685,119.557 328.351,94.8903 321,70.5C 314.324,55.0124 305.824,40.6791 295.5,27.5C 299.914,25.3928 304.581,23.8928 309.5,23C 315.972,21.8126 322.306,20.6459 328.5,19.5 Z"/></g>
<g><path style="opacity:1" fill="#e5516a" d="M 283.5,257.5 C 280.698,249.898 277.365,242.565 273.5,235.5C 279.517,228.42 278.517,222.587 270.5,218C 267.445,217.366 264.445,217.532 261.5,218.5C 257.336,211.513 252.669,204.846 247.5,198.5C 250.046,195.229 250.879,191.562 250,187.5C 229,165.833 208,144.167 187,122.5C 178.775,111.892 171.942,100.392 166.5,88C 198.246,64.7906 232.912,46.7906 270.5,34C 271.944,33.2195 273.277,33.3861 274.5,34.5C 290.672,52.8359 302.172,73.8359 309,97.5C 313,114.833 317,132.167 321,149.5C 331.498,185.663 351.832,214.996 382,237.5C 382.08,245.204 381.413,252.871 380,260.5C 379.667,279.5 379.333,298.5 379,317.5C 378.596,328.489 376.596,339.155 373,349.5C 360.229,335.713 345.729,324.213 329.5,315C 321.137,307.309 314.303,298.476 309,288.5C 304.394,279.622 300.061,270.622 296,261.5C 292.556,258.117 288.39,256.784 283.5,257.5 Z"/></g>
<g><path style="opacity:1" fill="#e4536b" d="M 384.5,82.5 C 388.511,82.5016 392.178,83.6683 395.5,86C 411.78,100.583 425.447,117.25 436.5,136C 427.061,149.936 417.061,163.436 406.5,176.5C 401.996,170.491 398.829,163.824 397,156.5C 394.746,141.536 392.746,126.536 391,111.5C 389.602,104.972 387.602,98.6387 385,92.5C 384.502,89.1832 384.335,85.8499 384.5,82.5 Z"/></g>
<g><path style="opacity:1" fill="#fd99ac" d="M 247.5,198.5 C 252.669,204.846 257.336,211.513 261.5,218.5C 255.865,225.222 256.532,231.389 263.5,237C 267.026,237.69 270.36,237.19 273.5,235.5C 277.365,242.565 280.698,249.898 283.5,257.5C 281.873,259.63 280.04,261.63 278,263.5C 277.333,265.5 277.333,267.5 278,269.5C 285.694,288.563 295.694,306.23 308,322.5C 311.261,325.216 314.428,328.049 317.5,331C 335.73,341.059 351.397,354.226 364.5,370.5C 362.837,374.496 360.671,378.163 358,381.5C 345.747,370.12 331.58,361.953 315.5,357C 297.171,353.407 285.671,360.573 281,378.5C 279.32,399.083 282.82,418.75 291.5,437.5C 279.041,444.293 265.707,448.96 251.5,451.5C 250.558,451.392 249.725,451.059 249,450.5C 240.276,418.14 223.109,391.307 197.5,370C 183.339,360.086 169.006,350.419 154.5,341C 120.802,315.621 95.6356,283.454 79,244.5C 73.6952,232.057 68.5286,219.557 63.5,207C 65.9428,201.281 68.7762,195.781 72,190.5C 79.1165,206.204 89.2832,219.704 102.5,231C 110.833,238 119.167,245 127.5,252C 139.749,264.559 151.749,277.226 163.5,290C 184.992,298.902 197.825,291.735 202,268.5C 203.525,252.366 201.525,236.699 196,221.5C 192.827,215.819 189.161,210.486 185,205.5C 173.892,195.398 163.892,184.398 155,172.5C 149.943,161.328 145.276,149.995 141,138.5C 137.551,131.401 133.718,124.568 129.5,118C 135.174,111.662 141.508,105.996 148.5,101C 149.332,100.312 149.998,100.479 150.5,101.5C 157.507,115.525 166.007,128.525 176,140.5C 195.474,159.641 214.641,179.141 233.5,199C 238.329,202.33 242.995,202.163 247.5,198.5 Z"/></g>
<g><path style="opacity:1" fill="#cb4761" d="M 464.5,125.5 C 467.83,151.17 461.33,174.17 445,194.5C 430.248,210.581 416.248,227.248 403,244.5C 403.809,227.735 408.476,212.068 417,197.5C 429.421,179.657 442.088,161.99 455,144.5C 458.705,138.423 461.872,132.09 464.5,125.5 Z"/></g>
<g><path style="opacity:1" fill="#e4526b" d="M 113.5,132.5 C 115.074,132.937 116.241,133.937 117,135.5C 124.527,151.75 131.861,168.083 139,184.5C 149.185,198.693 160.851,211.693 174,223.5C 180.43,234.22 183.263,245.887 182.5,258.5C 182.914,263.99 181.914,269.157 179.5,274C 178.167,274.667 176.833,274.667 175.5,274C 164.231,260.729 152.231,248.062 139.5,236C 127.406,226.577 115.906,216.41 105,205.5C 94.6309,194.098 88.6309,180.765 87,165.5C 95.2874,154.048 104.121,143.048 113.5,132.5 Z"/></g>
<g><path style="opacity:1" fill="#0a0708" d="M 273.5,235.5 C 270.36,237.19 267.026,237.69 263.5,237C 256.532,231.389 255.865,225.222 261.5,218.5C 264.445,217.532 267.445,217.366 270.5,218C 278.517,222.587 279.517,228.42 273.5,235.5 Z"/></g>
<g><path style="opacity:1" fill="#e5516a" d="M 228.5,452.5 C 227.198,454.028 225.531,455.028 223.5,455.5C 171.568,460.256 127.068,444.589 90,408.5C 50.9163,361.463 37.5829,307.796 50,247.5C 50.5758,243.512 51.9091,239.845 54,236.5C 66.0997,266.052 81.7663,293.385 101,318.5C 109.833,328.667 119.333,338.167 129.5,347C 146.485,359.493 163.818,371.493 181.5,383C 205.243,400.637 220.91,423.803 228.5,452.5 Z"/></g>
<g><path style="opacity:1" fill="#ca4761" d="M 385.5,371.5 C 379.827,423.256 352.827,459.423 304.5,480C 253.42,498.104 203.753,494.771 155.5,470C 202.121,480.204 247.788,476.871 292.5,460C 335.108,442.556 366.108,413.056 385.5,371.5 Z"/></g>
<g><path style="opacity:1" fill="#e4536b" d="M 303.5,376.5 C 311.919,375.916 319.586,378.083 326.5,383C 332.108,386.276 337.442,389.943 342.5,394C 343.899,395.062 344.899,396.395 345.5,398C 335.176,410.159 323.176,420.325 309.5,428.5C 303.003,414.181 299.836,399.181 300,383.5C 300.653,380.861 301.82,378.527 303.5,376.5 Z"/></g>
<g><path style="opacity:1" fill="#b06d7a" d="M 228.5,452.5 C 229.404,453.209 229.737,454.209 229.5,455.5C 227.5,455.5 225.5,455.5 223.5,455.5C 225.531,455.028 227.198,454.028 228.5,452.5 Z"/></g>
</svg>
