<?xml version="1.0" encoding="UTF-8"?>
<!DOCTYPE svg PUBLIC "-//W3C//DTD SVG 1.1//EN" "http://www.w3.org/Graphics/SVG/1.1/DTD/svg11.dtd">
<svg xmlns="http://www.w3.org/2000/svg" version="1.1" width="512px" height="512px" style="shape-rendering:geometricPrecision; text-rendering:geometricPrecision; image-rendering:optimizeQuality; fill-rule:evenodd; clip-rule:evenodd" xmlns:xlink="http://www.w3.org/1999/xlink">
<g><path style="opacity:0.987" fill="#020101" d="M 328.5,-0.5 C 342.5,-0.5 356.5,-0.5 370.5,-0.5C 396.282,1.92881 419.949,10.4288 441.5,25C 456.544,36.5782 467.044,51.4115 473,69.5C 480.961,90.9693 485.461,113.136 486.5,136C 486.525,159.752 479.691,181.252 466,200.5C 453.375,216.127 440.375,231.46 427,246.5C 418.416,257.324 411.083,268.991 405,281.5C 403.21,285.995 402.376,290.661 402.5,295.5C 404.768,310.443 406.601,325.443 408,340.5C 411.135,391.116 394.969,434.283 359.5,470C 331.162,494.001 298.496,507.834 261.5,511.5C 248.833,511.5 236.167,511.5 223.5,511.5C 126.308,495.832 62.8077,440.832 33,346.5C 19.4293,297.345 22.7627,249.345 43,202.5C 64.198,157.948 93.698,119.781 131.5,88C 188.999,40.5888 254.666,11.0888 328.5,-0.5 Z"/></g>
<g><path style="opacity:1" fill="#fcdde3" d="M 328.5,19.5 C 357.464,17.6191 385.464,21.7857 412.5,32C 449.922,48.6686 461.589,76.1686 447.5,114.5C 438.887,103.38 430.053,92.38 421,81.5C 414.299,74.9007 406.799,69.4007 398.5,65C 384.355,58.7772 373.521,62.2772 366,75.5C 364.456,82.0839 364.123,88.7506 365,95.5C 367.935,102.638 370.268,109.971 372,117.5C 373.711,131.494 375.377,145.494 377,159.5C 380.401,173.136 386.568,185.303 395.5,196C 392.274,202.352 389.44,208.852 387,215.5C 363.478,195.809 347.478,171.143 339,141.5C 334.141,117.538 328.141,93.8717 321,70.5C 314.324,55.0124 305.824,40.6791 295.5,27.5C 306.239,23.5542 317.239,20.8875 328.5,19.5 Z"/></g>
<g><path style="opacity:1" fill="#fe9db0" d="M 283.5,258.5 C 280.868,250.57 277.202,243.237 272.5,236.5C 279.821,229.288 279.154,223.121 270.5,218C 267.445,217.366 264.445,217.532 261.5,218.5C 257.212,211.582 252.212,205.249 246.5,199.5C 250.359,195.707 251.192,191.374 249,186.5C 228.333,165.167 207.667,143.833 187,122.5C 178.775,111.892 171.942,100.392 166.5,88C 198.246,64.7906 232.912,46.7906 270.5,34C 271.944,33.2195 273.277,33.3861 274.5,34.5C 290.672,52.8359 302.172,73.8359 309,97.5C 313,114.833 317,132.167 321,149.5C 331.498,185.663 351.832,214.996 382,237.5C 381.34,246.797 380.673,256.131 380,265.5C 379.833,287.186 379.166,308.853 378,330.5C 377.079,337.028 375.412,343.362 373,349.5C 360.229,335.713 345.729,324.213 329.5,315C 321.137,307.309 314.303,298.476 309,288.5C 304.394,279.622 300.061,270.622 296,261.5C 292.463,257.773 288.297,256.773 283.5,258.5 Z"/></g>
<g><path style="opacity:1" fill="#fc9caf" d="M 384.5,82.5 C 388.511,82.5016 392.178,83.6683 395.5,86C 411.78,100.583 425.447,117.25 436.5,136C 427.061,149.936 417.061,163.436 406.5,176.5C 402.001,170.501 398.835,163.835 397,156.5C 394.839,142.905 393.172,129.238 392,115.5C 390.422,107.618 388.089,99.9515 385,92.5C 384.502,89.1832 384.335,85.8499 384.5,82.5 Z"/></g>
<g><path style="opacity:1" fill="#fddee4" d="M 246.5,199.5 C 252.212,205.249 257.212,211.582 261.5,218.5C 255.62,225.719 256.62,231.886 264.5,237C 267.192,237.43 269.859,237.263 272.5,236.5C 277.202,243.237 280.868,250.57 283.5,258.5C 278.99,260.853 277.157,264.52 278,269.5C 286.078,290.84 297.578,310.006 312.5,327C 323.833,335 335.167,343 346.5,351C 353.052,357.049 359.052,363.549 364.5,370.5C 362.837,374.496 360.671,378.163 358,381.5C 345.747,370.12 331.58,361.953 315.5,357C 299.379,353.476 288.212,359.31 282,374.5C 278.874,396.415 282.041,417.415 291.5,437.5C 279.045,443.821 265.878,448.487 252,451.5C 250.674,451.245 249.674,450.578 249,449.5C 240.224,417.418 223.057,390.918 197.5,370C 178.557,357.39 159.891,344.39 141.5,331C 114.535,306.686 93.7016,277.852 79,244.5C 73.6952,232.057 68.5286,219.557 63.5,207C 65.9428,201.281 68.7762,195.781 72,190.5C 79.1165,206.204 89.2832,219.704 102.5,231C 110.833,238 119.167,245 127.5,252C 139.749,264.559 151.749,277.226 163.5,290C 184.973,298.927 197.807,291.76 202,268.5C 203.36,252.384 201.36,236.717 196,221.5C 192.827,215.819 189.161,210.486 185,205.5C 173.892,195.398 163.892,184.398 155,172.5C 149.943,161.328 145.276,149.995 141,138.5C 137.551,131.401 133.718,124.568 129.5,118C 135.174,111.662 141.508,105.996 148.5,101C 149.332,100.312 149.998,100.479 150.5,101.5C 160.145,120.311 172.312,137.311 187,152.5C 203.167,167.333 218.667,182.833 233.5,199C 237.745,202.152 242.078,202.319 246.5,199.5 Z"/></g>
<g><path style="opacity:1" fill="#f95a7a" d="M 464.5,125.5 C 467.553,145.734 463.72,164.734 453,182.5C 442.178,198.664 429.845,213.664 416,227.5C 411.667,233.167 407.333,238.833 403,244.5C 403.749,228.51 408.082,213.51 416,199.5C 429,181.167 442,162.833 455,144.5C 458.705,138.423 461.872,132.09 464.5,125.5 Z"/></g>
<g><path style="opacity:1" fill="#fc9caf" d="M 113.5,132.5 C 115.074,132.937 116.241,133.937 117,135.5C 124.527,151.75 131.861,168.083 139,184.5C 149.185,198.693 160.851,211.693 174,223.5C 181.795,237.147 184.461,251.814 182,267.5C 181.358,269.762 180.525,271.929 179.5,274C 178.167,274.667 176.833,274.667 175.5,274C 164.231,260.729 152.231,248.062 139.5,236C 127.406,226.577 115.906,216.41 105,205.5C 94.6309,194.098 88.6309,180.765 87,165.5C 95.2874,154.048 104.121,143.048 113.5,132.5 Z"/></g>
<g><path style="opacity:1" fill="#0a0707" d="M 272.5,236.5 C 269.859,237.263 267.192,237.43 264.5,237C 256.62,231.886 255.62,225.719 261.5,218.5C 264.445,217.532 267.445,217.366 270.5,218C 279.154,223.121 279.821,229.288 272.5,236.5 Z"/></g>
<g><path style="opacity:1" fill="#fd9daf" d="M 53.5,236.5 C 65.9961,265.833 81.8294,293.167 101,318.5C 109.833,328.667 119.333,338.167 129.5,347C 146.485,359.493 163.818,371.493 181.5,383C 205.862,401.538 221.862,425.705 229.5,455.5C 187.092,460.192 148.092,451.026 112.5,428C 71.0314,395.907 48.8647,353.407 46,300.5C 44.6495,282.628 45.9828,264.961 50,247.5C 50.711,243.645 51.8777,239.979 53.5,236.5 Z"/></g>
<g><path style="opacity:1" fill="#f85a79" d="M 385.5,371.5 C 379.569,421.982 353.236,457.815 306.5,479C 254.894,498.151 204.561,495.151 155.5,470C 204.041,480.668 251.374,476.668 297.5,458C 333.619,441.876 361.452,416.709 381,382.5C 383.066,379.039 384.566,375.373 385.5,371.5 Z"/></g>
<g><path style="opacity:1" fill="#fa9bae" d="M 303.5,376.5 C 307.915,376.305 312.249,376.805 316.5,378C 327.444,383.122 337.444,389.622 346.5,397.5C 335.654,409.685 323.321,420.019 309.5,428.5C 302.691,414.264 299.524,399.264 300,383.5C 300.653,380.861 301.82,378.527 303.5,376.5 Z"/></g>
</svg>
