<?xml version="1.0" encoding="UTF-8"?>
<!DOCTYPE svg PUBLIC "-//W3C//DTD SVG 1.1//EN" "http://www.w3.org/Graphics/SVG/1.1/DTD/svg11.dtd">
<svg xmlns="http://www.w3.org/2000/svg" version="1.1" width="512px" height="512px" style="shape-rendering:geometricPrecision; text-rendering:geometricPrecision; image-rendering:optimizeQuality; fill-rule:evenodd; clip-rule:evenodd" xmlns:xlink="http://www.w3.org/1999/xlink">
<g><path style="opacity:1" fill="#020001" d="M 254.5,-0.5 C 257.5,-0.5 260.5,-0.5 263.5,-0.5C 267.858,0.394393 272.191,1.72773 276.5,3.5C 280.608,7.11352 283.775,11.4469 286,16.5C 287.24,27.4424 287.907,38.4424 288,49.5C 289.277,51.7472 290.777,53.7472 292.5,55.5C 294.25,56.6594 295.25,58.326 295.5,60.5C 297.043,65.0242 299.377,69.0242 302.5,72.5C 302.709,73.9217 303.209,75.255 304,76.5C 311.582,80.4101 316.582,86.4101 319,94.5C 319.333,113.167 319.667,131.833 320,150.5C 327.281,154.632 334.114,159.298 340.5,164.5C 344.167,166.167 346.833,168.833 348.5,172.5C 350.794,176.127 353.46,179.461 356.5,182.5C 358.446,186.439 360.779,190.106 363.5,193.5C 369.365,202.587 373.031,212.587 374.5,223.5C 374.741,228.694 375.407,233.694 376.5,238.5C 377.164,240.81 377.497,243.31 377.5,246C 377.138,254.013 376.471,261.846 375.5,269.5C 374.139,280.306 373.472,291.306 373.5,302.5C 371.804,318.639 370.804,334.973 370.5,351.5C 368.804,367.639 367.804,383.973 367.5,400.5C 366.139,411.306 365.472,422.306 365.5,433.5C 365.821,439.026 365.488,444.36 364.5,449.5C 363.53,456.659 362.864,463.993 362.5,471.5C 362.59,474.152 361.924,476.485 360.5,478.5C 356.696,486.312 351.696,493.312 345.5,499.5C 341.967,503.435 337.634,506.101 332.5,507.5C 326.146,509.343 319.813,510.677 313.5,511.5C 273.5,511.5 233.5,511.5 193.5,511.5C 188.599,510.087 183.932,508.087 179.5,505.5C 176.525,502.677 173.192,500.344 169.5,498.5C 167.29,498.106 165.957,496.773 165.5,494.5C 163.218,490.223 160.551,486.223 157.5,482.5C 155.415,480.316 154.415,477.649 154.5,474.5C 153.35,463.701 152.35,453.034 151.5,442.5C 150.51,436.69 150.177,430.69 150.5,424.5C 150.525,411.976 149.859,399.643 148.5,387.5C 147.51,381.69 147.177,375.69 147.5,369.5C 147.193,350.976 146.193,332.642 144.5,314.5C 143.51,308.69 143.177,302.69 143.5,296.5C 143.525,283.976 142.859,271.643 141.5,259.5C 140.167,251.167 140.167,242.833 141.5,234.5C 143.868,218.729 148.868,203.729 156.5,189.5C 156.414,188.504 156.748,187.671 157.5,187C 159.134,186.506 160.801,186.34 162.5,186.5C 161.512,181.808 162.846,178.141 166.5,175.5C 171.5,171.167 176.167,166.5 180.5,161.5C 183.601,158.067 187.268,155.4 191.5,153.5C 193.757,153.038 195.757,152.038 197.5,150.5C 198.201,130.145 198.868,109.811 199.5,89.5C 200.78,83.9226 204.113,80.2559 209.5,78.5C 210.822,78.67 211.989,78.3366 213,77.5C 216.447,71.6044 219.614,65.6044 222.5,59.5C 223.079,56.6689 224.412,54.3356 226.5,52.5C 227.79,51.9423 228.623,50.9423 229,49.5C 229.097,38.7753 229.763,28.1086 231,17.5C 233.168,11.1725 237.001,6.17254 242.5,2.5C 242.842,1.66175 243.508,1.32842 244.5,1.5C 248.011,1.10057 251.344,0.433899 254.5,-0.5 Z"/></g>
<g><path style="opacity:0.747" fill="#540221" d="M 246.5,-0.5 C 249.167,-0.5 251.833,-0.5 254.5,-0.5C 251.344,0.433899 248.011,1.10057 244.5,1.5C 245.167,0.833333 245.833,0.166667 246.5,-0.5 Z"/></g>
<g><path style="opacity:0.625" fill="#4e0222" d="M 263.5,-0.5 C 265.833,-0.5 268.167,-0.5 270.5,-0.5C 272.81,0.324982 274.81,1.65832 276.5,3.5C 272.191,1.72773 267.858,0.394393 263.5,-0.5 Z"/></g>
<g><path style="opacity:1" fill="#aa80e1" d="M 280.5,74.5 C 273.508,75.1663 266.341,75.4997 259,75.5C 251.467,75.4972 244.301,74.8306 237.5,73.5C 241.309,66.5542 245.142,59.5542 249,52.5C 249.333,42.1667 249.667,31.8333 250,21.5C 250.5,21 251,20.5 251.5,20C 256.871,19.3239 262.204,19.4905 267.5,20.5C 267.333,31.1719 267.5,41.8385 268,52.5C 272.44,59.7164 276.606,67.0497 280.5,74.5 Z"/></g>
<g><path style="opacity:0.415" fill="#4e0225" d="M 276.5,3.5 C 281.543,6.04962 285.043,10.0496 287,15.5C 288.24,26.4424 288.907,37.4424 289,48.5C 290.705,50.5766 291.872,52.91 292.5,55.5C 290.777,53.7472 289.277,51.7472 288,49.5C 287.907,38.4424 287.24,27.4424 286,16.5C 283.775,11.4469 280.608,7.11352 276.5,3.5 Z"/></g>
<g><path style="opacity:0.223" fill="#4c0323" d="M 242.5,2.5 C 237.001,6.17254 233.168,11.1725 231,17.5C 229.763,28.1086 229.097,38.7753 229,49.5C 228.623,50.9423 227.79,51.9423 226.5,52.5C 226.709,51.0783 227.209,49.745 228,48.5C 228.097,37.7753 228.763,27.1086 230,16.5C 231.92,9.75089 236.086,5.08422 242.5,2.5 Z"/></g>
<g><path style="opacity:0.58" fill="#4b0423" d="M 222.5,59.5 C 219.614,65.6044 216.447,71.6044 213,77.5C 211.989,78.3366 210.822,78.67 209.5,78.5C 214.068,72.3774 218.401,66.0441 222.5,59.5 Z"/></g>
<g><path style="opacity:0.798" fill="#4b0324" d="M 295.5,60.5 C 298.623,63.9758 300.957,67.9758 302.5,72.5C 299.377,69.0242 297.043,65.0242 295.5,60.5 Z"/></g>
<g><path style="opacity:1" fill="#5c1640" d="M 237.5,73.5 C 244.301,74.8306 251.467,75.4972 259,75.5C 266.341,75.4997 273.508,75.1663 280.5,74.5C 281.043,74.56 281.376,74.8933 281.5,75.5C 266.515,76.4993 251.515,76.8327 236.5,76.5C 236.263,75.209 236.596,74.209 237.5,73.5 Z"/></g>
<g><path style="opacity:0.92" fill="#4d0324" d="M 199.5,89.5 C 198.868,109.811 198.201,130.145 197.5,150.5C 195.757,152.038 193.757,153.038 191.5,153.5C 192.914,151.946 194.581,150.612 196.5,149.5C 197.333,130.175 197.833,110.842 198,91.5C 198.278,90.5842 198.778,89.9175 199.5,89.5 Z"/></g>
<g><path style="opacity:1" fill="#ab81e2" d="M 299.5,96.5 C 300.15,111.538 299.483,126.205 297.5,140.5C 270.665,134.901 243.999,135.234 217.5,141.5C 217.176,126.255 217.509,111.089 218.5,96C 245.572,95.1763 272.572,95.343 299.5,96.5 Z"/></g>
<g><path style="opacity:0.63" fill="#4d0323" d="M 302.5,72.5 C 307.502,76.4551 312.336,80.7885 317,85.5C 318.562,87.9573 319.562,90.624 320,93.5C 320.333,112.167 320.667,130.833 321,149.5C 328.541,153.215 335.041,158.215 340.5,164.5C 334.114,159.298 327.281,154.632 320,150.5C 319.667,131.833 319.333,113.167 319,94.5C 316.582,86.4101 311.582,80.4101 304,76.5C 303.209,75.255 302.709,73.9217 302.5,72.5 Z"/></g>
<g><path style="opacity:1" fill="#763976" d="M 299.5,96.5 C 300.496,111.324 300.829,126.324 300.5,141.5C 299.209,141.737 298.209,141.404 297.5,140.5C 299.483,126.205 300.15,111.538 299.5,96.5 Z"/></g>
<g><path style="opacity:1" fill="#fda584" d="M 291.5,159.5 C 316.343,176.682 328.676,200.515 328.5,231C 328.05,250.38 326.717,269.547 324.5,288.5C 321.57,286.926 319.07,287.592 317,290.5C 316.333,298.167 316.333,305.833 317,313.5C 317.708,314.381 318.542,315.047 319.5,315.5C 320.568,316.434 321.901,316.768 323.5,316.5C 323.663,323.062 322.996,329.395 321.5,335.5C 309.238,333.791 296.905,333.291 284.5,334C 280.462,335.537 276.295,336.703 272,337.5C 274.483,307.95 265.983,282.116 246.5,260C 243.5,258 240.5,258 237.5,260C 227.68,267.821 218.513,276.321 210,285.5C 191.161,309.216 187.495,335.216 199,363.5C 200.484,366.992 201.984,370.492 203.5,374C 200.551,380.046 196.718,385.546 192,390.5C 183.959,406.872 187.792,419.705 203.5,429C 212.429,430.125 221.429,430.625 230.5,430.5C 238.5,430.333 246.5,430.167 254.5,430C 264.61,428.383 271.61,422.883 275.5,413.5C 294.962,408.029 309.295,396.362 318.5,378.5C 319.164,380.81 319.497,383.31 319.5,386C 319.127,395.89 318.294,405.723 317,415.5C 313.706,424.956 307.54,431.622 298.5,435.5C 295.272,429.409 291.438,429.076 287,434.5C 286.506,436.134 286.34,437.801 286.5,439.5C 253.498,439.667 220.498,439.5 187.5,439C 181.514,437.592 176.348,434.758 172,430.5C 171.802,428.618 171.302,426.952 170.5,425.5C 167.41,367.672 164.41,309.839 161.5,252C 159.804,223.069 169.471,198.735 190.5,179C 195.795,175.012 201.128,171.012 206.5,167C 211.46,165.516 216.126,163.516 220.5,161C 233.016,157.074 245.849,155.574 259,156.5C 270.132,155.977 280.965,156.977 291.5,159.5 Z"/></g>
<g><path style="opacity:1" fill="#fb7a85" d="M 291.5,159.5 C 327.109,170.621 348.609,194.621 356,231.5C 356.667,243.167 356.667,254.833 356,266.5C 352,331.833 348,397.167 344,462.5C 341.95,476.767 334.116,486.267 320.5,491C 277.787,491.978 235.121,491.645 192.5,490C 184.009,486.21 177.843,480.044 174,471.5C 171.912,456.25 170.745,440.917 170.5,425.5C 171.302,426.952 171.802,428.618 172,430.5C 176.348,434.758 181.514,437.592 187.5,439C 220.498,439.5 253.498,439.667 286.5,439.5C 286.334,444.844 286.501,450.177 287,455.5C 291.163,459.747 294.829,459.414 298,454.5C 298.5,448.175 298.666,441.842 298.5,435.5C 307.54,431.622 313.706,424.956 317,415.5C 318.294,405.723 319.127,395.89 319.5,386C 319.497,383.31 319.164,380.81 318.5,378.5C 324.069,367.29 327.736,355.456 329.5,343C 329.397,341.439 329.063,339.939 328.5,338.5C 326.125,337.34 323.792,336.34 321.5,335.5C 322.996,329.395 323.663,323.062 323.5,316.5C 321.901,316.768 320.568,316.434 319.5,315.5C 322.652,316.041 325.152,315.041 327,312.5C 327.831,305.144 327.665,297.811 326.5,290.5C 325.478,290.145 324.811,289.478 324.5,288.5C 326.717,269.547 328.05,250.38 328.5,231C 328.676,200.515 316.343,176.682 291.5,159.5 Z"/></g>
<g><path style="opacity:0.567" fill="#4e0123" d="M 180.5,161.5 C 176.167,166.5 171.5,171.167 166.5,175.5C 170.167,169.833 174.833,165.167 180.5,161.5 Z"/></g>
<g><path style="opacity:0.816" fill="#4a0324" d="M 348.5,172.5 C 352.3,174.963 354.967,178.296 356.5,182.5C 353.46,179.461 350.794,176.127 348.5,172.5 Z"/></g>
<g><path style="opacity:1" fill="#fffdfc" d="M 234.5,179.5 C 244.503,179.002 248.67,183.668 247,193.5C 245.833,196 244,197.833 241.5,199C 238.405,199.714 235.405,200.714 232.5,202C 222.521,202.335 218.687,197.502 221,187.5C 224.753,183.431 229.253,180.764 234.5,179.5 Z"/></g>
<g><path style="opacity:0.055" fill="#4c0322" d="M 356.5,182.5 C 360.01,185.358 362.343,189.024 363.5,193.5C 360.779,190.106 358.446,186.439 356.5,182.5 Z"/></g>
<g><path style="opacity:0.675" fill="#4d0223" d="M 156.5,189.5 C 148.868,203.729 143.868,218.729 141.5,234.5C 142.332,218.003 147.332,203.003 156.5,189.5 Z"/></g>
<g><path style="opacity:1" fill="#fffdfc" d="M 195.5,212.5 C 202.785,212.129 207.118,215.462 208.5,222.5C 205.373,233.3 203.207,244.3 202,255.5C 196.261,260.773 190.595,260.773 185,255.5C 182.105,242.289 183.772,229.622 190,217.5C 191.73,215.598 193.563,213.931 195.5,212.5 Z"/></g>
<g><path style="opacity:0.543" fill="#500224" d="M 374.5,223.5 C 376.145,228.234 376.811,233.234 376.5,238.5C 375.407,233.694 374.741,228.694 374.5,223.5 Z"/></g>
<g><path style="opacity:1" fill="#0b0507" d="M 321.5,335.5 C 323.792,336.34 326.125,337.34 328.5,338.5C 329.063,339.939 329.397,341.439 329.5,343C 327.736,355.456 324.069,367.29 318.5,378.5C 309.295,396.362 294.962,408.029 275.5,413.5C 271.61,422.883 264.61,428.383 254.5,430C 246.5,430.167 238.5,430.333 230.5,430.5C 221.429,430.625 212.429,430.125 203.5,429C 187.792,419.705 183.959,406.872 192,390.5C 196.718,385.546 200.551,380.046 203.5,374C 201.984,370.492 200.484,366.992 199,363.5C 187.495,335.216 191.161,309.216 210,285.5C 218.513,276.321 227.68,267.821 237.5,260C 240.5,258 243.5,258 246.5,260C 265.983,282.116 274.483,307.95 272,337.5C 276.295,336.703 280.462,335.537 284.5,334C 296.905,333.291 309.238,333.791 321.5,335.5 Z"/></g>
<g><path style="opacity:0.574" fill="#4c0324" d="M 141.5,259.5 C 142.859,271.643 143.525,283.976 143.5,296.5C 142.141,284.357 141.475,272.024 141.5,259.5 Z"/></g>
<g><path style="opacity:1" fill="#04e7c1" d="M 240.5,272.5 C 255.655,290.803 261.821,311.803 259,335.5C 256.789,344.261 252.789,351.928 247,358.5C 243.691,356.785 240.191,355.785 236.5,355.5C 237.895,341.448 239.395,327.448 241,313.5C 236.577,308.101 232.577,308.435 229,314.5C 227.251,328.157 225.585,341.824 224,355.5C 219.884,357.141 216.384,359.641 213.5,363C 201.742,343.385 201.575,323.218 213,302.5C 221.012,291.326 230.179,281.326 240.5,272.5 Z"/></g>
<g><path style="opacity:1" fill="#070203" d="M 324.5,288.5 C 324.811,289.478 325.478,290.145 326.5,290.5C 327.665,297.811 327.831,305.144 327,312.5C 325.152,315.041 322.652,316.041 319.5,315.5C 318.542,315.047 317.708,314.381 317,313.5C 316.333,305.833 316.333,298.167 317,290.5C 319.07,287.592 321.57,286.926 324.5,288.5 Z"/></g>
<g><path style="opacity:0.514" fill="#4e0224" d="M 375.5,269.5 C 375.528,280.694 374.861,291.694 373.5,302.5C 373.472,291.306 374.139,280.306 375.5,269.5 Z"/></g>
<g><path style="opacity:0.648" fill="#4d0324" d="M 144.5,314.5 C 146.193,332.642 147.193,350.976 147.5,369.5C 145.807,351.358 144.807,333.024 144.5,314.5 Z"/></g>
<g><path style="opacity:1" fill="#02e8c2" d="M 286.5,345.5 C 296.521,345.371 306.521,345.704 316.5,346.5C 313.695,365.614 305.029,381.447 290.5,394C 286.446,396.694 282.112,398.861 277.5,400.5C 276.277,397.053 274.777,393.72 273,390.5C 266.923,383.591 261.423,376.258 256.5,368.5C 259.795,362.742 263.461,357.242 267.5,352C 273.708,349.098 280.041,346.932 286.5,345.5 Z"/></g>
<g><path style="opacity:0.18" fill="#4d0224" d="M 373.5,302.5 C 373.196,319.027 372.196,335.361 370.5,351.5C 370.804,334.973 371.804,318.639 373.5,302.5 Z"/></g>
<g><path style="opacity:1" fill="#fdfcfc" d="M 228.5,366.5 C 232.747,366.178 236.747,367.011 240.5,369C 249.049,379.214 257.215,389.714 265,400.5C 266.287,407.417 264.121,412.917 258.5,417C 241.591,418.638 224.591,418.971 207.5,418C 199.786,413.395 197.619,406.895 201,398.5C 207.333,390.167 213.667,381.833 220,373.5C 222.441,370.546 225.275,368.213 228.5,366.5 Z"/></g>
<g><path style="opacity:0.733" fill="#4c0225" d="M 370.5,351.5 C 370.196,368.027 369.196,384.361 367.5,400.5C 367.804,383.973 368.804,367.639 370.5,351.5 Z"/></g>
<g><path style="opacity:0.574" fill="#4c0324" d="M 148.5,387.5 C 149.859,399.643 150.525,411.976 150.5,424.5C 149.141,412.357 148.475,400.024 148.5,387.5 Z"/></g>
<g><path style="opacity:0.899" fill="#4b0324" d="M 367.5,400.5 C 367.528,411.694 366.861,422.694 365.5,433.5C 365.472,422.306 366.139,411.306 367.5,400.5 Z"/></g>
<g><path style="opacity:1" fill="#0f0506" d="M 298.5,435.5 C 298.666,441.842 298.5,448.175 298,454.5C 294.829,459.414 291.163,459.747 287,455.5C 286.501,450.177 286.334,444.844 286.5,439.5C 286.34,437.801 286.506,436.134 287,434.5C 291.438,429.076 295.272,429.409 298.5,435.5 Z"/></g>
<g><path style="opacity:0.545" fill="#4e0224" d="M 364.5,449.5 C 364.906,457.079 364.239,464.412 362.5,471.5C 362.864,463.993 363.53,456.659 364.5,449.5 Z"/></g>
<g><path style="opacity:0.478" fill="#4b0324" d="M 151.5,442.5 C 152.35,453.034 153.35,463.701 154.5,474.5C 152.982,470.434 152.149,466.101 152,461.5C 151.5,455.175 151.334,448.842 151.5,442.5 Z"/></g>
<g><path style="opacity:0.392" fill="#4e0224" d="M 360.5,478.5 C 358.158,487.492 353.158,494.492 345.5,499.5C 351.696,493.312 356.696,486.312 360.5,478.5 Z"/></g>
<g><path style="opacity:0.667" fill="#4e0224" d="M 157.5,482.5 C 160.551,486.223 163.218,490.223 165.5,494.5C 161.664,491.322 158.998,487.322 157.5,482.5 Z"/></g>
<g><path style="opacity:0.992" fill="#4e0226" d="M 169.5,498.5 C 173.192,500.344 176.525,502.677 179.5,505.5C 175.458,504.149 172.125,501.815 169.5,498.5 Z"/></g>
<g><path style="opacity:0.701" fill="#4d0227" d="M 332.5,507.5 C 329.655,509.224 326.655,510.558 323.5,511.5C 320.167,511.5 316.833,511.5 313.5,511.5C 319.813,510.677 326.146,509.343 332.5,507.5 Z"/></g>
</svg>
