<?xml version="1.0" encoding="UTF-8"?>
<!DOCTYPE svg PUBLIC "-//W3C//DTD SVG 1.1//EN" "http://www.w3.org/Graphics/SVG/1.1/DTD/svg11.dtd">
<svg xmlns="http://www.w3.org/2000/svg" version="1.1" width="512px" height="512px" style="shape-rendering:geometricPrecision; text-rendering:geometricPrecision; image-rendering:optimizeQuality; fill-rule:evenodd; clip-rule:evenodd" xmlns:xlink="http://www.w3.org/1999/xlink">
<g><path style="opacity:0.98" fill="#010101" d="M 367.5,-0.5 C 373.833,-0.5 380.167,-0.5 386.5,-0.5C 407.606,5.55586 426.273,16.0559 442.5,31C 458.902,45.3894 473.069,61.5561 485,79.5C 492.348,90.8763 497.348,103.21 500,116.5C 500.757,123.198 500.591,129.864 499.5,136.5C 498.293,138.449 496.627,139.949 494.5,141C 480.341,148.246 466.341,155.746 452.5,163.5C 452.353,171.496 448.353,175.829 440.5,176.5C 437.693,176.098 435.027,175.598 432.5,175C 396.476,212.014 362.31,250.514 330,290.5C 317.333,303.833 304.667,317.167 292,330.5C 292.291,333.295 292.791,336.129 293.5,339C 293.054,345.894 289.387,349.727 282.5,350.5C 279.833,349.877 277.333,348.877 275,347.5C 270.167,352.333 265.333,357.167 260.5,362C 264.32,366.633 264.487,371.466 261,376.5C 245.5,392 230,407.5 214.5,423C 209.5,426.333 204.5,426.333 199.5,423C 157.972,381.806 116.806,340.306 76,298.5C 75.3333,295.5 75.3333,292.5 76,289.5C 92.1377,272.362 108.638,255.528 125.5,239C 130.363,236.671 134.863,237.171 139,240.5C 143.833,235.667 148.667,230.833 153.5,226C 148.08,215.904 150.913,209.737 162,207.5C 165.044,207.664 167.877,208.164 170.5,209C 203.717,175.771 238.717,144.771 275.5,116C 292.98,100.353 309.98,84.1867 326.5,67.5C 321.792,56.2504 325.459,49.5837 337.5,47.5C 345.667,32.5 353.833,17.5 362,2.5C 363.876,1.39127 365.709,0.391268 367.5,-0.5 Z"/></g>
<g><path style="opacity:1" fill="#a75c5c" d="M 376.5,20.5 C 388.823,22.4942 400.156,26.9942 410.5,34C 437.379,52.872 458.545,76.7053 474,105.5C 477.355,111.722 478.521,118.222 477.5,125C 464.326,132.421 450.993,139.588 437.5,146.5C 409.847,119.347 382.347,92.0138 355,64.5C 354.333,63.5 354.333,62.5 355,61.5C 362.702,48.0952 369.869,34.4285 376.5,20.5 Z"/></g>
<g><path style="opacity:1" fill="#f3f5f8" d="M 275.5,209.5 C 250.994,209.831 226.661,209.498 202.5,208.5C 230.681,182.407 259.681,157.24 289.5,133C 307.647,116.686 325.314,99.8531 342.5,82.5C 352.486,91.9857 362.319,101.652 372,111.5C 372.667,112.167 372.667,112.833 372,113.5C 339.965,145.701 307.799,177.701 275.5,209.5 Z"/></g>
<g><path style="opacity:1" fill="#f2f4f7" d="M 369.5,209.5 C 348.66,209.831 327.993,209.497 307.5,208.5C 333.839,181.328 360.672,154.661 388,128.5C 398.5,137.667 408.333,147.5 417.5,158C 401.646,175.352 385.646,192.518 369.5,209.5 Z"/></g>
<g><path style="opacity:1" fill="#929395" d="M 202.5,208.5 C 226.661,209.498 250.994,209.831 275.5,209.5C 250.67,210.663 225.67,210.83 200.5,210C 201.044,209.283 201.711,208.783 202.5,208.5 Z"/></g>
<g><path style="opacity:1" fill="#454647" d="M 307.5,208.5 C 327.993,209.497 348.66,209.831 369.5,209.5C 348.663,210.828 327.663,210.828 306.5,209.5C 306.624,208.893 306.957,208.56 307.5,208.5 Z"/></g>
<g><path style="opacity:1" fill="#ec5463" d="M 190.5,232.5 C 243.665,231.335 296.998,231.168 350.5,232C 338.548,246.074 326.714,260.241 315,274.5C 301.667,288.5 288.333,302.5 275,316.5C 246.965,288.298 218.799,260.298 190.5,232.5 Z"/></g>
<g><path style="opacity:1" fill="#c9ced6" d="M 168.5,241.5 C 199.083,270.581 229.249,300.248 259,330.5C 255.21,336.472 250.377,341.806 244.5,346.5C 214.68,316.18 184.68,286.014 154.5,256C 159.37,251.298 164.037,246.465 168.5,241.5 Z"/></g>
<g><path style="opacity:1" fill="#a65c5c" d="M 130.5,264.5 C 136.09,268.749 141.423,273.416 146.5,278.5C 141.868,285.237 142.868,291.07 149.5,296C 154.057,296.674 158.391,296.341 162.5,295C 167,299.5 171.5,304 176,308.5C 174.97,310.947 174.137,313.614 173.5,316.5C 176.019,326.587 182.019,329.253 191.5,324.5C 196.485,328.985 201.319,333.651 206,338.5C 205.044,340.909 204.544,343.576 204.5,346.5C 204.5,353.167 207.833,356.5 214.5,356.5C 217.131,356.679 219.465,356.013 221.5,354.5C 227.377,359.194 232.21,364.528 236,370.5C 226.333,380.167 216.667,389.833 207,399.5C 171.833,364.333 136.667,329.167 101.5,294C 111.369,284.298 121.036,274.465 130.5,264.5 Z"/></g>
<g><path style="opacity:0.895" fill="#000000" d="M 102.5,404.5 C 113.318,403.817 118.151,408.817 117,419.5C 111.17,428.046 104.503,428.713 97,421.5C 94.1496,414.219 95.983,408.553 102.5,404.5 Z"/></g>
<g><path style="opacity:0.9" fill="#000000" d="M 59.5,447.5 C 71.6263,446.453 76.4596,451.786 74,463.5C 67.3333,471.5 60.6667,471.5 54,463.5C 51.7525,456.742 53.5858,451.409 59.5,447.5 Z"/></g>
<g><path style="opacity:0.898" fill="#000000" d="M 144.5,447.5 C 153.465,445.651 158.798,449.151 160.5,458C 158.245,468.421 152.245,471.421 142.5,467C 138.741,463.257 137.574,458.757 139,453.5C 140.36,450.977 142.193,448.977 144.5,447.5 Z"/></g>
<g><path style="opacity:0.898" fill="#000000" d="M 26.5,511.5 C 23.1667,511.5 19.8333,511.5 16.5,511.5C 14.193,510.023 12.3597,508.023 11,505.5C 9.88484,491.975 15.7182,487.475 28.5,492C 34.16,499.188 33.4933,505.688 26.5,511.5 Z"/></g>
<g><path style="opacity:0.895" fill="#000000" d="M 111.5,511.5 C 108.167,511.5 104.833,511.5 101.5,511.5C 94.5546,505.657 93.8879,499.157 99.5,492C 112.282,487.475 118.115,491.975 117,505.5C 115.64,508.023 113.807,510.023 111.5,511.5 Z"/></g>
<g><path style="opacity:0.9" fill="#000000" d="M 196.5,511.5 C 193.5,511.5 190.5,511.5 187.5,511.5C 180.564,506.701 179.23,500.701 183.5,493.5C 188.586,488.799 193.92,488.466 199.5,492.5C 204.781,499.732 203.781,506.065 196.5,511.5 Z"/></g>
</svg>
