<?xml version="1.0" encoding="UTF-8"?>
<!DOCTYPE svg PUBLIC "-//W3C//DTD SVG 1.1//EN" "http://www.w3.org/Graphics/SVG/1.1/DTD/svg11.dtd">
<svg xmlns="http://www.w3.org/2000/svg" version="1.1" width="512px" height="512px" style="shape-rendering:geometricPrecision; text-rendering:geometricPrecision; image-rendering:optimizeQuality; fill-rule:evenodd; clip-rule:evenodd" xmlns:xlink="http://www.w3.org/1999/xlink">
<g><path style="opacity:0.971" fill="#020202" d="M 129.5,-0.5 C 141.5,-0.5 153.5,-0.5 165.5,-0.5C 203.919,4.71003 237.586,20.21 266.5,46C 335.028,114.194 403.194,182.694 471,251.5C 493.149,279.117 506.649,310.451 511.5,345.5C 511.5,357.5 511.5,369.5 511.5,381.5C 501.914,439.937 469.914,481.104 415.5,505C 407.837,507.662 400.171,509.828 392.5,511.5C 382.833,511.5 373.167,511.5 363.5,511.5C 336.302,506.07 311.636,494.904 289.5,478C 281.833,471.667 274.167,465.333 266.5,459C 192.306,385.139 118.473,310.973 45,236.5C 29.0656,218.318 16.3989,197.985 7,175.5C 3.84458,166.202 1.34458,156.869 -0.5,147.5C -0.5,137.833 -0.5,128.167 -0.5,118.5C 3.82105,96.3557 13.1544,76.5223 27.5,59C 30.4816,58.502 33.4816,58.3354 36.5,58.5C 36.6854,60.1958 37.5187,61.5291 39,62.5C 39.6667,64.5 39.6667,66.5 39,68.5C 28.4096,82.6816 20.743,98.3483 16,115.5C 12.4847,139.78 16.4847,162.78 28,184.5C 44.8851,213.03 65.7184,238.53 90.5,261C 105.754,274.961 122.421,286.961 140.5,297C 175.796,315.823 210.463,314.823 244.5,294C 294.466,260.889 315.966,214.389 309,154.5C 298.388,102.062 270.222,62.2282 224.5,35C 187.483,14.3313 148.483,9.33129 107.5,20C 89.5262,26.1509 73.1928,35.1509 58.5,47C 55.3893,47.6125 52.7226,46.7791 50.5,44.5C 47.9134,41.3152 47.9134,37.9819 50.5,34.5C 73.2891,14.9409 99.6225,3.27427 129.5,-0.5 Z"/></g>
<g><path style="opacity:1" fill="#eceafd" d="M 36.5,58.5 C 41.5542,54.1125 46.2208,49.4458 50.5,44.5C 52.7226,46.7791 55.3893,47.6125 58.5,47C 73.1928,35.1509 89.5262,26.1509 107.5,20C 148.483,9.33129 187.483,14.3313 224.5,35C 270.222,62.2282 298.388,102.062 309,154.5C 315.966,214.389 294.466,260.889 244.5,294C 210.463,314.823 175.796,315.823 140.5,297C 122.421,286.961 105.754,274.961 90.5,261C 65.7184,238.53 44.8851,213.03 28,184.5C 16.4847,162.78 12.4847,139.78 16,115.5C 20.743,98.3483 28.4096,82.6816 39,68.5C 39.6667,66.5 39.6667,64.5 39,62.5C 37.5187,61.5291 36.6854,60.1958 36.5,58.5 Z"/></g>
<g><path style="opacity:1" fill="#050505" d="M 151.5,77.5 C 174.365,76.1911 193.532,83.8577 209,100.5C 223.625,121.651 224.292,143.318 211,165.5C 208.715,167.907 206.549,170.407 204.5,173C 195.895,175.734 192.062,172.567 193,163.5C 206.463,149.32 209.13,133.32 201,115.5C 187.601,96.5833 169.434,89.4166 146.5,94C 120.224,104.118 106.557,123.285 105.5,151.5C 106.948,183.459 122.614,205.293 152.5,217C 186.187,227.999 215.854,221.332 241.5,197C 250.333,195.167 253.833,198.667 252,207.5C 226.28,232.181 195.78,241.348 160.5,235C 112.304,221.816 89.1369,190.316 91,140.5C 96.085,113.435 110.918,93.935 135.5,82C 140.821,79.9414 146.155,78.4414 151.5,77.5 Z"/></g>
<g><path style="opacity:1" fill="#f6465d" d="M 384.5,186.5 C 371.069,223.056 361.902,260.723 357,299.5C 355.586,314.971 354.419,330.305 353.5,345.5C 331.149,322.815 309.482,299.481 288.5,275.5C 307.562,253.701 319.395,228.368 324,199.5C 327.222,170.615 323.889,142.615 314,115.5C 337.702,139.035 361.202,162.701 384.5,186.5 Z"/></g>
<g><path style="opacity:1" fill="#fe6d7f" d="M 384.5,186.5 C 412.889,213.388 440.056,241.388 466,270.5C 500.341,319.214 505.675,370.88 482,425.5C 477.241,434.022 471.741,442.022 465.5,449.5C 464.635,450.583 463.635,450.749 462.5,450C 452.833,441 443.167,432 433.5,423C 429.91,421.178 426.243,421.011 422.5,422.5C 416.871,418.206 411.537,413.539 406.5,408.5C 408.842,405.283 409.009,401.95 407,398.5C 388.66,381.327 370.827,363.66 353.5,345.5C 354.419,330.305 355.586,314.971 357,299.5C 361.902,260.723 371.069,223.056 384.5,186.5 Z"/></g>
<g><path style="opacity:1" fill="#d2d2fe" d="M 355.5,369.5 C 358.276,413.269 368.276,455.269 385.5,495.5C 368.852,497.671 352.852,495.171 337.5,488C 314.645,477.13 293.979,463.13 275.5,446C 232.5,403 189.5,360 146.5,317C 188.751,332.125 227.751,326.125 263.5,299C 268.333,294.833 273.167,290.667 278,286.5C 303.672,314.338 329.505,342.004 355.5,369.5 Z"/></g>
<g><path style="opacity:1" fill="#eceafd" d="M 355.5,369.5 C 369.328,383.161 383.328,396.661 397.5,410C 400.741,410.793 403.741,410.293 406.5,408.5C 411.537,413.539 416.871,418.206 422.5,422.5C 420.168,425.685 420.001,429.019 422,432.5C 432.5,442.333 443,452.167 453.5,462C 436.748,478.713 416.748,489.713 393.5,495C 390.854,495.497 388.187,495.664 385.5,495.5C 368.276,455.269 358.276,413.269 355.5,369.5 Z"/></g>
</svg>
