<?xml version="1.0" encoding="UTF-8"?>
<!DOCTYPE svg PUBLIC "-//W3C//DTD SVG 1.1//EN" "http://www.w3.org/Graphics/SVG/1.1/DTD/svg11.dtd">
<svg xmlns="http://www.w3.org/2000/svg" version="1.1" width="512px" height="512px" style="shape-rendering:geometricPrecision; text-rendering:geometricPrecision; image-rendering:optimizeQuality; fill-rule:evenodd; clip-rule:evenodd" xmlns:xlink="http://www.w3.org/1999/xlink">
<g><path style="opacity:0.984" fill="#020100" d="M 224.5,-0.5 C 245.167,-0.5 265.833,-0.5 286.5,-0.5C 293.816,1.98409 298.649,6.98409 301,14.5C 302.235,30.1276 302.902,45.7942 303,61.5C 309.957,72.8791 308.457,83.0457 298.5,92C 295.691,93.7411 292.691,94.9078 289.5,95.5C 289.167,129.84 289.5,164.173 290.5,198.5C 329.313,218.537 345.313,249.871 338.5,292.5C 336.805,293.174 335.138,293.841 333.5,294.5C 330.207,293.59 327.707,291.59 326,288.5C 327.967,261.616 318.801,239.449 298.5,222C 290.716,217.36 282.883,212.86 275,208.5C 273.623,201.924 273.123,195.257 273.5,188.5C 269.833,188.5 266.167,188.5 262.5,188.5C 254.167,188.5 245.833,188.5 237.5,188.5C 237.877,195.257 237.377,201.924 236,208.5C 228.085,212.874 220.252,217.374 212.5,222C 198.403,233.693 189.57,248.527 186,266.5C 185.333,288.167 185.333,309.833 186,331.5C 194.509,320.47 203.009,309.47 211.5,298.5C 224.694,281.978 238.028,265.478 251.5,249C 256.846,247.348 261.013,248.848 264,253.5C 283.952,279.787 304.285,305.787 325,331.5C 325.333,326.5 325.667,321.5 326,316.5C 327.707,313.41 330.207,311.41 333.5,310.5C 336.749,311.041 339.249,312.708 341,315.5C 341.667,375.167 341.667,434.833 341,494.5C 338.316,503.016 332.816,508.683 324.5,511.5C 278.5,511.5 232.5,511.5 186.5,511.5C 178.184,508.683 172.684,503.016 170,494.5C 169.333,418.5 169.333,342.5 170,266.5C 175.179,235.158 192.012,212.491 220.5,198.5C 221.5,164.173 221.833,129.84 221.5,95.5C 206.681,91.199 201.181,81.5323 205,66.5C 205.748,64.6675 206.748,63.0009 208,61.5C 208.098,45.7942 208.765,30.1276 210,14.5C 212.351,6.98409 217.184,1.98409 224.5,-0.5 Z"/></g>
<g><path style="opacity:1" fill="#b94429" d="M 250.5,15.5 C 250.5,27.8333 250.5,40.1667 250.5,52.5C 242.167,52.5 233.833,52.5 225.5,52.5C 225.5,41.5 225.5,30.5 225.5,19.5C 225.511,17.9826 226.177,16.8159 227.5,16C 235.159,15.5003 242.826,15.3336 250.5,15.5 Z"/></g>
<g><path style="opacity:1" fill="#cd4b2d" d="M 250.5,15.5 C 261.505,15.3335 272.505,15.5002 283.5,16C 284.823,16.8159 285.489,17.9826 285.5,19.5C 285.5,30.5 285.5,41.5 285.5,52.5C 273.833,52.5 262.167,52.5 250.5,52.5C 250.5,40.1667 250.5,27.8333 250.5,15.5 Z"/></g>
<g><path style="opacity:1" fill="#5f2315" d="M 225.5,19.5 C 225.5,30.5 225.5,41.5 225.5,52.5C 233.833,52.5 242.167,52.5 250.5,52.5C 262.167,52.5 273.833,52.5 285.5,52.5C 285.5,41.5 285.5,30.5 285.5,19.5C 286.495,30.6544 286.828,41.9877 286.5,53.5C 265.833,53.5 245.167,53.5 224.5,53.5C 224.172,41.9877 224.505,30.6544 225.5,19.5 Z"/></g>
<g><path style="opacity:1" fill="#2f6236" d="M 223.5,68.5 C 244.836,68.3334 266.169,68.5 287.5,69C 292.233,71.9218 292.566,75.2552 288.5,79C 266.5,79.6667 244.5,79.6667 222.5,79C 218.514,75.1046 218.847,71.6046 223.5,68.5 Z"/></g>
<g><path style="opacity:1" fill="#358738" d="M 258.5,95.5 C 251.833,102.833 244.833,109.833 237.5,116.5C 237.5,109.5 237.5,102.5 237.5,95.5C 244.5,95.5 251.5,95.5 258.5,95.5 Z"/></g>
<g><path style="opacity:1" fill="#f7faf7" d="M 258.5,95.5 C 263.5,95.5 268.5,95.5 273.5,95.5C 273.5,98.5 273.5,101.5 273.5,104.5C 261.5,116.167 249.5,127.833 237.5,139.5C 237.5,131.833 237.5,124.167 237.5,116.5C 244.833,109.833 251.833,102.833 258.5,95.5 Z"/></g>
<g><path style="opacity:1" fill="#3b8b3d" d="M 273.5,104.5 C 273.5,110.833 273.5,117.167 273.5,123.5C 261.86,135.806 249.86,147.806 237.5,159.5C 237.5,152.833 237.5,146.167 237.5,139.5C 249.5,127.833 261.5,116.167 273.5,104.5 Z"/></g>
<g><path style="opacity:1" fill="#fbfdfb" d="M 273.5,123.5 C 273.5,131.167 273.5,138.833 273.5,146.5C 264.5,154.833 255.833,163.5 247.5,172.5C 244.167,172.5 240.833,172.5 237.5,172.5C 237.5,168.167 237.5,163.833 237.5,159.5C 249.86,147.806 261.86,135.806 273.5,123.5 Z"/></g>
<g><path style="opacity:1" fill="#368939" d="M 273.5,146.5 C 273.5,155.167 273.5,163.833 273.5,172.5C 264.833,172.5 256.167,172.5 247.5,172.5C 255.833,163.5 264.5,154.833 273.5,146.5 Z"/></g>
<g><path style="opacity:1" fill="#ac3e13" d="M 262.5,188.5 C 262.936,200.243 262.436,211.91 261,223.5C 259.833,225.333 258.333,226.833 256.5,228C 226.886,242.439 211.886,265.939 211.5,298.5C 203.009,309.47 194.509,320.47 186,331.5C 185.333,309.833 185.333,288.167 186,266.5C 189.57,248.527 198.403,233.693 212.5,222C 220.252,217.374 228.085,212.874 236,208.5C 237.377,201.924 237.877,195.257 237.5,188.5C 245.833,188.5 254.167,188.5 262.5,188.5 Z"/></g>
<g><path style="opacity:1" fill="#bf4516" d="M 262.5,188.5 C 266.167,188.5 269.833,188.5 273.5,188.5C 273.123,195.257 273.623,201.924 275,208.5C 282.883,212.86 290.716,217.36 298.5,222C 318.801,239.449 327.967,261.616 326,288.5C 327.707,291.59 330.207,293.59 333.5,294.5C 333.5,299.833 333.5,305.167 333.5,310.5C 330.207,311.41 327.707,313.41 326,316.5C 325.667,321.5 325.333,326.5 325,331.5C 304.285,305.787 283.952,279.787 264,253.5C 261.013,248.848 256.846,247.348 251.5,249C 238.028,265.478 224.694,281.978 211.5,298.5C 211.886,265.939 226.886,242.439 256.5,228C 258.333,226.833 259.833,225.333 261,223.5C 262.436,211.91 262.936,200.243 262.5,188.5 Z"/></g>
<g><path style="opacity:1" fill="#fdf8f7" d="M 294.5,228.5 C 296.466,231.996 298.799,235.329 301.5,238.5C 304.663,240.916 307.996,243.082 311.5,245C 308.167,247 304.833,249 301.5,251C 298.707,254.081 296.54,257.581 295,261.5C 291.439,253.606 285.605,248.106 277.5,245C 285.656,242.01 291.323,236.51 294.5,228.5 Z"/></g>
<g><path style="opacity:1" fill="#fdf7f5" d="M 307.5,264.5 C 319.133,264.267 322.133,269.1 316.5,279C 306.899,282.07 302.733,278.57 304,268.5C 305.376,267.295 306.542,265.962 307.5,264.5 Z"/></g>
<g><path style="opacity:1" fill="#f3f5f3" d="M 223.5,413.5 C 221.157,410.793 218.823,408.126 216.5,405.5C 219.716,401.868 220.216,397.868 218,393.5C 207.643,380.643 197.476,367.643 187.5,354.5C 209.937,325.945 232.604,297.612 255.5,269.5C 278.396,297.612 301.063,325.945 323.5,354.5C 301.357,383.143 279.024,411.643 256.5,440C 254.613,440.163 253.113,439.329 252,437.5C 246.359,429.691 240.525,422.025 234.5,414.5C 231.063,411.051 227.396,410.718 223.5,413.5 Z"/></g>
<g><path style="opacity:1" fill="#317d37" d="M 254.5,277.5 C 255.496,277.414 256.329,277.748 257,278.5C 277.024,303.69 296.857,329.023 316.5,354.5C 296.638,380.901 276.305,406.901 255.5,432.5C 234.695,406.901 214.362,380.901 194.5,354.5C 214.524,328.815 234.524,303.148 254.5,277.5 Z"/></g>
<g><path style="opacity:1" fill="#fbfdfb" d="M 254.5,302.5 C 268.941,319.327 282.941,336.661 296.5,354.5C 283.216,372.452 269.549,390.119 255.5,407.5C 241.451,390.119 227.784,372.452 214.5,354.5C 228.264,337.414 241.598,320.081 254.5,302.5 Z"/></g>
<g><path style="opacity:1" fill="#317d37" d="M 249.5,336.5 C 268.521,336.014 276.021,345.014 272,363.5C 264.799,373.845 255.632,376.012 244.5,370C 237.06,362.62 235.56,354.12 240,344.5C 242.772,341.217 245.939,338.55 249.5,336.5 Z"/></g>
<g><path style="opacity:1" fill="#ab3e13" d="M 210.5,406.5 C 210.5,427.167 210.5,447.833 210.5,468.5C 202.167,468.5 193.833,468.5 185.5,468.5C 185.333,438.498 185.5,408.498 186,378.5C 192.382,385.88 198.382,393.547 204,401.5C 205.758,403.765 207.925,405.432 210.5,406.5 Z"/></g>
<g><path style="opacity:1" fill="#bf4515" d="M 210.5,495.5 C 210.5,491.5 210.5,487.5 210.5,483.5C 215.164,482.663 217.498,479.83 217.5,475C 216.595,471.26 214.261,469.094 210.5,468.5C 210.5,447.833 210.5,427.167 210.5,406.5C 212.565,406.483 214.565,406.15 216.5,405.5C 218.823,408.126 221.157,410.793 223.5,413.5C 221.537,416.518 221.037,419.851 222,423.5C 231.472,436.272 241.305,448.772 251.5,461C 254.167,461.667 256.833,461.667 259.5,461C 281.714,433.788 303.547,406.288 325,378.5C 325.667,416.167 325.667,453.833 325,491.5C 323.833,492.667 322.667,493.833 321.5,495C 284.502,495.5 247.502,495.667 210.5,495.5 Z"/></g>
<g><path style="opacity:1" fill="#040100" d="M 230.5,468.5 C 238.174,468.334 245.841,468.5 253.5,469C 257.212,471.513 258.378,475.013 257,479.5C 256.5,481.333 255.333,482.5 253.5,483C 245.833,483.667 238.167,483.667 230.5,483C 223.885,478.084 223.885,473.251 230.5,468.5 Z"/></g>
<g><path style="opacity:1" fill="#a83d13" d="M 210.5,483.5 C 210.5,487.5 210.5,491.5 210.5,495.5C 203.492,495.666 196.492,495.5 189.5,495C 185.886,492.056 184.553,488.223 185.5,483.5C 193.833,483.5 202.167,483.5 210.5,483.5 Z"/></g>
</svg>
