<?xml version="1.0" encoding="UTF-8"?>
<!DOCTYPE svg PUBLIC "-//W3C//DTD SVG 1.1//EN" "http://www.w3.org/Graphics/SVG/1.1/DTD/svg11.dtd">
<svg xmlns="http://www.w3.org/2000/svg" version="1.1" width="512px" height="512px" style="shape-rendering:geometricPrecision; text-rendering:geometricPrecision; image-rendering:optimizeQuality; fill-rule:evenodd; clip-rule:evenodd" xmlns:xlink="http://www.w3.org/1999/xlink">
<g><path style="opacity:0.989" fill="#010000" d="M 107.5,-0.5 C 137.5,-0.5 167.5,-0.5 197.5,-0.5C 204.906,8.37644 208.572,18.7098 208.5,30.5C 208.261,34.5162 207.928,38.5162 207.5,42.5C 218.231,42.0973 228.898,42.5973 239.5,44C 250.035,47.0979 258.702,52.9312 265.5,61.5C 338.164,62.3333 410.831,62.8333 483.5,63C 500.844,69.5089 508.011,82.0089 505,100.5C 501.833,111.667 494.667,118.833 483.5,122C 410.831,122.167 338.164,122.667 265.5,123.5C 258.702,132.069 250.035,137.902 239.5,141C 228.898,142.403 218.231,142.903 207.5,142.5C 210.771,163.519 204.938,181.519 190,196.5C 183.198,206.86 181.864,217.86 186,229.5C 190.609,237.107 195.609,244.441 201,251.5C 205.545,261.343 208.378,271.677 209.5,282.5C 227.359,290.678 242.526,302.345 255,317.5C 294.595,274.973 342.428,261.806 398.5,278C 450.26,298.339 479.26,336.172 485.5,391.5C 492.508,391.334 499.508,391.5 506.5,392C 508.362,393.366 510.028,394.866 511.5,396.5C 511.5,402.167 511.5,407.833 511.5,413.5C 503.26,446.568 482.26,466.068 448.5,472C 443.794,481.246 438.961,490.412 434,499.5C 429.695,505.328 424.195,509.328 417.5,511.5C 309.5,511.5 201.5,511.5 93.5,511.5C 86.805,509.328 81.305,505.328 77,499.5C 72.0393,490.412 67.2059,481.246 62.5,472C 28.7396,466.068 7.73961,446.568 -0.5,413.5C -0.5,407.833 -0.5,402.167 -0.5,396.5C 0.971672,394.866 2.63834,393.366 4.5,392C 11.4921,391.5 18.4921,391.334 25.5,391.5C 31.3756,338.974 58.3756,301.974 106.5,280.5C 107.043,273.009 105.209,266.009 101,259.5C 76.0601,230.282 76.3934,201.282 102,172.5C 107.227,163.704 108.56,154.371 106,144.5C 91.0718,142.69 75.9052,141.857 60.5,142C 55.7255,138.345 54.2255,133.512 56,127.5C 57.1667,125.667 58.6667,124.167 60.5,123C 70.8494,122.832 81.1827,122.332 91.5,121.5C 87.8678,115.94 85.2012,109.94 83.5,103.5C 75.8549,102.669 68.1883,102.169 60.5,102C 55.7255,98.3449 54.2255,93.5116 56,87.5C 57.1667,85.6667 58.6667,84.1667 60.5,83C 68.1883,82.8315 75.8549,82.3315 83.5,81.5C 85.2063,74.9205 87.873,68.7538 91.5,63C 81.1667,62.6667 70.8333,62.3333 60.5,62C 55.7255,58.3449 54.2255,53.5116 56,47.5C 57.1667,45.6667 58.6667,44.1667 60.5,43C 75.5111,42.8328 90.5111,42.3328 105.5,41.5C 107.255,36.2876 107.755,30.9543 107,25.5C 105.449,20.0659 103.616,14.7326 101.5,9.5C 102.005,5.13861 104.005,1.80527 107.5,-0.5 Z"/></g>
<g><path style="opacity:1" fill="#f7bb00" d="M 127.5,19.5 C 134.289,18.899 140.789,19.5657 147,21.5C 149.451,36.8133 145.118,49.8133 134,60.5C 117.749,86.8432 120.416,111.177 142,133.5C 149.581,147.708 149.247,161.708 141,175.5C 122.807,193.928 118.474,215.261 128,239.5C 132.011,247.527 137.011,254.86 143,261.5C 144.759,265.009 145.926,268.675 146.5,272.5C 140.066,272.327 133.733,272.994 127.5,274.5C 126.402,265.624 123.569,257.291 119,249.5C 115,244.167 111,238.833 107,233.5C 101.797,220.827 102.463,208.493 109,196.5C 128.719,175.903 132.719,152.569 121,126.5C 116,119.5 111,112.5 106,105.5C 101.891,94.3355 102.891,83.6688 109,73.5C 123.609,58.5085 129.776,40.5085 127.5,19.5 Z"/></g>
<g><path style="opacity:1" fill="#f7bb00" d="M 167.5,19.5 C 174.289,18.899 180.789,19.5657 187,21.5C 189.451,36.8133 185.118,49.8133 174,60.5C 158.207,86.1965 160.541,110.197 181,132.5C 188.488,144.589 189.488,157.256 184,170.5C 176.491,178.847 170.491,188.181 166,198.5C 161.364,214.851 163.03,230.517 171,245.5C 176.159,251.817 180.826,258.484 185,265.5C 186.352,268.72 187.186,272.053 187.5,275.5C 180.594,274.396 173.761,273.062 167,271.5C 165.43,262.454 162.096,254.121 157,246.5C 142.144,231.827 139.478,215.161 149,196.5C 168.6,176.764 172.934,154.097 162,128.5C 157.719,121.885 153.053,115.552 148,109.5C 139.802,92.84 142.469,78.1733 156,65.5C 165.693,51.7112 169.526,36.3778 167.5,19.5 Z"/></g>
<g><path style="opacity:1" fill="#def1fc" d="M 197.5,62.5 C 208.838,62.3335 220.172,62.5001 231.5,63C 248.943,68.4476 256.777,80.2809 255,98.5C 251.6,111.901 243.1,119.734 229.5,122C 218.818,122.832 208.151,122.666 197.5,121.5C 194.524,117.356 191.357,113.356 188,109.5C 186.589,107.35 185.755,105.016 185.5,102.5C 192.841,102.666 200.174,102.5 207.5,102C 213.679,100.155 216.179,95.9881 215,89.5C 214.315,86.9427 212.815,85.1094 210.5,84C 201.909,82.7559 193.242,82.0892 184.5,82C 188.271,75.0742 192.604,68.5742 197.5,62.5 Z"/></g>
<g><path style="opacity:1" fill="#dff3fe" d="M 274.5,82.5 C 342.167,82.3333 409.834,82.5 477.5,83C 485.871,86.1186 487.704,91.6186 483,99.5C 481.352,100.717 479.519,101.55 477.5,102C 409.834,102.5 342.167,102.667 274.5,102.5C 275.724,95.8204 275.724,89.1538 274.5,82.5 Z"/></g>
<g><path style="opacity:1" fill="#f8bb00" d="M 141.5,291.5 C 200.289,288.837 240.123,314.837 261,369.5C 263.524,376.621 264.691,383.954 264.5,391.5C 257.833,391.5 251.167,391.5 244.5,391.5C 239.696,357.872 222.029,333.705 191.5,319C 149.327,304.001 113.493,313.168 84,346.5C 73.7458,359.76 67.9124,374.76 66.5,391.5C 59.8333,391.5 53.1667,391.5 46.5,391.5C 51.7526,346.407 75.4193,315.24 117.5,298C 125.459,295.179 133.459,293.013 141.5,291.5 Z"/></g>
<g><path style="opacity:1" fill="#f8bb00" d="M 341.5,291.5 C 400.307,288.861 440.14,314.861 461,369.5C 463.524,376.621 464.691,383.954 464.5,391.5C 457.833,391.5 451.167,391.5 444.5,391.5C 436.998,345.831 410.331,319.331 364.5,312C 327.08,310.043 298.08,324.543 277.5,355.5C 274.171,348.842 270.838,342.176 267.5,335.5C 286.445,311.223 311.112,296.557 341.5,291.5 Z"/></g>
<g><path style="opacity:1" fill="#f9bb00" d="M 145.5,331.5 C 185.301,329.808 211.468,347.808 224,385.5C 224.495,387.473 224.662,389.473 224.5,391.5C 217.825,391.666 211.158,391.5 204.5,391C 196.935,365.862 179.935,352.695 153.5,351.5C 128.858,353.975 113.191,367.142 106.5,391C 99.8417,391.5 93.175,391.666 86.5,391.5C 90.3722,368.114 102.705,350.614 123.5,339C 130.708,335.765 138.042,333.265 145.5,331.5 Z"/></g>
<g><path style="opacity:1" fill="#f9bb00" d="M 345.5,331.5 C 385.301,329.808 411.468,347.808 424,385.5C 424.495,387.473 424.662,389.473 424.5,391.5C 417.825,391.666 411.158,391.5 404.5,391C 396.935,365.862 379.935,352.695 353.5,351.5C 328.858,353.975 313.191,367.142 306.5,391C 299.842,391.5 293.175,391.666 286.5,391.5C 290.372,368.114 302.705,350.614 323.5,339C 330.708,335.765 338.042,333.265 345.5,331.5 Z"/></g>
<g><path style="opacity:1" fill="#f9bc00" d="M 148.5,371.5 C 164.692,369.759 176.359,376.092 183.5,390.5C 164.833,391.833 146.167,391.833 127.5,390.5C 131.702,380.96 138.702,374.626 148.5,371.5 Z"/></g>
<g><path style="opacity:1" fill="#f9bc00" d="M 348.5,371.5 C 364.692,369.759 376.359,376.092 383.5,390.5C 364.833,391.833 346.167,391.833 327.5,390.5C 331.702,380.96 338.702,374.626 348.5,371.5 Z"/></g>
<g><path style="opacity:1" fill="#fe627a" d="M 371.5,461.5 C 364.833,461.5 358.167,461.5 351.5,461.5C 351.123,454.957 347.623,451.624 341,451.5C 334.921,452.079 331.754,455.412 331.5,461.5C 324.833,461.5 318.167,461.5 311.5,461.5C 310.821,456.632 308.154,453.465 303.5,452C 222.5,451.667 141.5,451.333 60.5,451C 39.5741,445.74 26.2408,432.74 20.5,412C 177.167,411.333 333.833,411.333 490.5,412C 484.523,433.643 470.523,446.643 448.5,451C 425.167,451.333 401.833,451.667 378.5,452C 374.108,453.606 371.775,456.772 371.5,461.5 Z"/></g>
<g><path style="opacity:1" fill="#070304" d="M 351.5,461.5 C 349.057,471.052 343.39,473.552 334.5,469C 332.798,466.765 331.798,464.265 331.5,461.5C 331.754,455.412 334.921,452.079 341,451.5C 347.623,451.624 351.123,454.957 351.5,461.5 Z"/></g>
<g><path style="opacity:1" fill="#756d6d" d="M 311.5,461.5 C 318.167,461.5 324.833,461.5 331.5,461.5C 331.798,464.265 332.798,466.765 334.5,469C 343.39,473.552 349.057,471.052 351.5,461.5C 358.167,461.5 364.833,461.5 371.5,461.5C 371.775,466.228 374.108,469.394 378.5,471C 394.167,471.333 409.833,471.667 425.5,472C 422.872,476.755 420.372,481.588 418,486.5C 416.363,488.81 414.196,490.31 411.5,491C 307.167,491.667 202.833,491.667 98.5,491C 96.3762,489.878 94.5429,488.378 93,486.5C 90.6276,481.588 88.1276,476.755 85.5,472C 158.5,471.667 231.5,471.333 304.5,471C 308.892,469.394 311.225,466.228 311.5,461.5 Z"/></g>
</svg>
