<?xml version="1.0" encoding="UTF-8"?>
<!DOCTYPE svg PUBLIC "-//W3C//DTD SVG 1.1//EN" "http://www.w3.org/Graphics/SVG/1.1/DTD/svg11.dtd">
<svg xmlns="http://www.w3.org/2000/svg" version="1.1" width="256px" height="256px" style="shape-rendering:geometricPrecision; text-rendering:geometricPrecision; image-rendering:optimizeQuality; fill-rule:evenodd; clip-rule:evenodd" xmlns:xlink="http://www.w3.org/1999/xlink">
<g><path style="opacity:0.987" fill="#060400" d="M 31.5,-0.5 C 95.5,-0.5 159.5,-0.5 223.5,-0.5C 227.718,3.84949 228.552,8.84949 226,14.5C 224.92,16.9962 223.586,19.3295 222,21.5C 221.333,92.1667 221.333,162.833 222,233.5C 226.105,238.478 227.771,244.145 227,250.5C 226.003,252.323 224.836,253.99 223.5,255.5C 159.5,255.5 95.5,255.5 31.5,255.5C 28.9687,253.269 27.6354,250.436 27.5,247C 28.6245,242.246 30.4578,237.746 33,233.5C 33.6667,162.833 33.6667,92.1667 33,21.5C 29.2473,16.3593 27.5806,10.6926 28,4.5C 28.9973,2.67694 30.1639,1.01027 31.5,-0.5 Z"/></g>
<g><path style="opacity:1" fill="#ef8d00" d="M 36.5,7.5 C 97.1703,7.16671 157.837,7.50004 218.5,8.5C 217.294,11.0794 215.961,13.5794 214.5,16C 156.5,16.6667 98.5,16.6667 40.5,16C 38.7535,13.3413 37.4202,10.508 36.5,7.5 Z"/></g>
<g><path style="opacity:1" fill="#fbdb00" d="M 42.5,25.5 C 96.5,25.5 150.5,25.5 204.5,25.5C 204.826,33.6841 204.492,41.6841 203.5,49.5C 200.086,39.6107 193.086,34.2773 182.5,33.5C 179.328,33.4491 176.328,34.1158 173.5,35.5C 161.748,26.9177 150.581,27.5843 140,37.5C 131.64,33.5473 123.306,33.5473 115,37.5C 108.552,30.7957 100.719,28.2957 91.5,30C 87.7257,31.3019 84.559,33.4686 82,36.5C 67.5848,30.8696 57.2515,35.203 51,49.5C 49.9678,55.91 51.1345,61.91 54.5,67.5C 43.8667,79.0003 43.8667,90.5003 54.5,102C 52.2613,105.883 50.9279,110.049 50.5,114.5C 51.0274,119.082 52.3607,123.415 54.5,127.5C 49.1918,135.942 49.1918,144.442 54.5,153C 44.0033,164.42 44.0033,175.92 54.5,187.5C 48.5086,197.744 49.5086,207.244 57.5,216C 65.1867,222.114 73.3534,222.947 82,218.5C 88.5693,225.497 96.4026,227.331 105.5,224C 108.952,222.209 112.118,220.042 115,217.5C 123.306,221.453 131.64,221.453 140,217.5C 150.634,227.256 161.8,227.923 173.5,219.5C 183.049,223.228 191.549,221.561 199,214.5C 201.041,211.752 202.541,208.752 203.5,205.5C 204.492,213.316 204.826,221.316 204.5,229.5C 150.5,229.5 96.5,229.5 42.5,229.5C 42.5,161.5 42.5,93.5 42.5,25.5 Z"/></g>
<g><path style="opacity:1" fill="#e2b005" d="M 42.5,25.5 C 98.9975,24.501 155.664,24.1677 212.5,24.5C 212.5,93.1667 212.5,161.833 212.5,230.5C 155.664,230.832 98.9975,230.499 42.5,229.5C 96.5,229.5 150.5,229.5 204.5,229.5C 204.826,221.316 204.492,213.316 203.5,205.5C 205.268,199.107 204.268,193.107 200.5,187.5C 211.141,175.969 211.141,164.469 200.5,153C 205.808,144.442 205.808,135.942 200.5,127.5C 202.639,123.415 203.973,119.082 204.5,114.5C 204.072,110.049 202.739,105.883 200.5,102C 211.141,90.5309 211.141,79.0309 200.5,67.5C 204.067,61.8386 205.067,55.8386 203.5,49.5C 204.492,41.6841 204.826,33.6841 204.5,25.5C 150.5,25.5 96.5,25.5 42.5,25.5 Z"/></g>
<g><path style="opacity:1" fill="#0a0601" d="M 203.5,49.5 C 205.067,55.8386 204.067,61.8386 200.5,67.5C 211.141,79.0309 211.141,90.5309 200.5,102C 202.739,105.883 204.072,110.049 204.5,114.5C 203.973,119.082 202.639,123.415 200.5,127.5C 205.808,135.942 205.808,144.442 200.5,153C 211.141,164.469 211.141,175.969 200.5,187.5C 204.268,193.107 205.268,199.107 203.5,205.5C 202.541,208.752 201.041,211.752 199,214.5C 191.549,221.561 183.049,223.228 173.5,219.5C 161.8,227.923 150.634,227.256 140,217.5C 131.64,221.453 123.306,221.453 115,217.5C 112.118,220.042 108.952,222.209 105.5,224C 96.4026,227.331 88.5693,225.497 82,218.5C 73.3534,222.947 65.1867,222.114 57.5,216C 49.5086,207.244 48.5086,197.744 54.5,187.5C 44.0033,175.92 44.0033,164.42 54.5,153C 49.1918,144.442 49.1918,135.942 54.5,127.5C 52.3607,123.415 51.0274,119.082 50.5,114.5C 50.9279,110.049 52.2613,105.883 54.5,102C 43.8667,90.5003 43.8667,79.0003 54.5,67.5C 51.1345,61.91 49.9678,55.91 51,49.5C 57.2515,35.203 67.5848,30.8696 82,36.5C 84.559,33.4686 87.7257,31.3019 91.5,30C 100.719,28.2957 108.552,30.7957 115,37.5C 123.306,33.5473 131.64,33.5473 140,37.5C 150.581,27.5843 161.748,26.9177 173.5,35.5C 176.328,34.1158 179.328,33.4491 182.5,33.5C 193.086,34.2773 200.086,39.6107 203.5,49.5 Z"/></g>
<g><path style="opacity:1" fill="#9e512c" d="M 182.5,42.5 C 189.59,51.7792 188.923,60.4458 180.5,68.5C 192.089,74.9198 194.589,83.9198 188,95.5C 185.766,97.6998 183.266,99.5331 180.5,101C 189.485,109.431 189.818,118.265 181.5,127.5C 189.66,136.585 189.326,145.418 180.5,154C 191.879,160.272 194.379,169.105 188,180.5C 185.957,182.712 183.791,184.712 181.5,186.5C 189.068,194.927 189.401,203.594 182.5,212.5C 178.631,212.149 175.131,210.816 172,208.5C 168.844,210.986 165.678,213.486 162.5,216C 156.306,217.711 151.14,216.211 147,211.5C 143.419,203.738 139.252,203.572 134.5,211C 129.806,212.932 125.139,212.932 120.5,211C 118.571,208.562 116.238,206.728 113.5,205.5C 111.971,205.529 110.804,206.196 110,207.5C 106.082,216.396 99.5816,218.896 90.5,215C 88.3019,212.377 85.8019,210.211 83,208.5C 80.6101,209.278 78.4434,210.445 76.5,212C 62.7567,213.012 57.5901,206.845 61,193.5C 62.6667,191.833 64.3333,190.167 66,188.5C 66.6667,187.167 66.6667,185.833 66,184.5C 63.5122,182.257 60.8456,180.257 58,178.5C 53.0405,169.194 55.2071,162.194 64.5,157.5C 65.5529,156.562 66.2196,155.395 66.5,154C 65.392,151.888 63.892,150.054 62,148.5C 58.1399,141.907 58.8065,135.907 64,130.5C 64.1667,129.5 64.3333,128.5 64.5,127.5C 63.2601,124.411 61.7601,121.411 60,118.5C 59.3333,115.5 59.3333,112.5 60,109.5C 62.3943,106.615 64.5609,103.615 66.5,100.5C 66.3918,99.5581 66.0585,98.7247 65.5,98C 55.9463,94.0501 53.113,87.2168 57,77.5C 59.2336,75.3002 61.7336,73.4669 64.5,72C 65.8045,71.196 66.4712,70.0293 66.5,68.5C 64.5609,65.3852 62.3943,62.3852 60,59.5C 58.1667,46.6667 63.6667,41.1667 76.5,43C 78.4434,44.5555 80.6101,45.7221 83,46.5C 85.7838,44.7201 88.2838,42.5535 90.5,40C 99.4446,35.8821 105.945,38.3821 110,47.5C 110.804,48.8045 111.971,49.4712 113.5,49.5C 116.238,48.2717 118.571,46.4383 120.5,44C 128.112,40.9167 134.445,42.5833 139.5,49C 143.253,49.926 145.42,48.426 146,44.5C 150.176,38.888 155.676,37.0547 162.5,39C 165.678,41.5139 168.844,44.0139 172,46.5C 175.131,44.1839 178.631,42.8506 182.5,42.5 Z"/></g>
<g><path style="opacity:1" fill="#763d21" d="M 182.5,42.5 C 192.949,43.3633 197.116,49.03 195,59.5C 192.606,62.3852 190.439,65.3852 188.5,68.5C 188.876,70.3829 189.876,71.8829 191.5,73C 197.137,74.7984 199.803,78.6318 199.5,84.5C 199.71,91.086 196.71,95.4193 190.5,97.5C 189.447,98.4383 188.78,99.605 188.5,101C 190.653,103.822 192.819,106.656 195,109.5C 196.474,115.336 195.14,120.336 191,124.5C 190.333,126.5 190.333,128.5 191,130.5C 195.207,134.268 196.54,138.934 195,144.5C 193.209,147.952 191.042,151.118 188.5,154C 190.276,157.241 192.942,159.574 196.5,161C 199.42,165.368 200.253,170.201 199,175.5C 195.577,179.118 192.077,182.618 188.5,186C 190.619,189.133 192.786,192.3 195,195.5C 197.116,205.97 192.949,211.637 182.5,212.5C 189.401,203.594 189.068,194.927 181.5,186.5C 183.791,184.712 185.957,182.712 188,180.5C 194.379,169.105 191.879,160.272 180.5,154C 189.326,145.418 189.66,136.585 181.5,127.5C 189.818,118.265 189.485,109.431 180.5,101C 183.266,99.5331 185.766,97.6998 188,95.5C 194.589,83.9198 192.089,74.9198 180.5,68.5C 188.923,60.4458 189.59,51.7792 182.5,42.5 Z"/></g>
<g><path style="opacity:1" fill="#080301" d="M 91.5,55.5 C 94.5184,55.3354 97.5184,55.502 100.5,56C 101.576,57.7261 101.743,59.5594 101,61.5C 98.3761,63.0352 95.5428,64.2018 92.5,65C 90.2256,67.3443 89.0589,70.1776 89,73.5C 86.2841,77.4759 83.6174,77.4759 81,73.5C 80.6367,65.2244 84.1367,59.2244 91.5,55.5 Z"/></g>
<g><path style="opacity:1" fill="#080301" d="M 126.5,63.5 C 129.249,63.2739 131.916,63.6072 134.5,64.5C 135.641,66.4213 135.808,68.4213 135,70.5C 130.494,70.9201 126.828,72.9201 124,76.5C 124.701,82.4667 122.201,84.9667 116.5,84C 114.109,80.7205 113.942,77.2205 116,73.5C 118.738,69.2595 122.238,65.9262 126.5,63.5 Z"/></g>
<g><path style="opacity:1" fill="#090401" d="M 155.5,63.5 C 165.887,63.7224 172.221,68.8891 174.5,79C 174.414,83.7485 172.08,85.4152 167.5,84C 165.879,81.834 165.045,79.334 165,76.5C 163.833,75.3333 162.667,74.1667 161.5,73C 153.78,73.1459 151.78,69.9792 155.5,63.5 Z"/></g>
<g><path style="opacity:1" fill="#000000" d="M 84.5,93.5 C 112.835,93.3334 141.169,93.5 169.5,94C 173.275,95.4421 176.108,97.9421 178,101.5C 178.667,118.5 178.667,135.5 178,152.5C 176.5,156.667 173.667,159.5 169.5,161C 141.167,161.667 112.833,161.667 84.5,161C 80.9421,159.108 78.4421,156.275 77,152.5C 76.3333,135.5 76.3333,118.5 77,101.5C 79.0282,98.3078 81.5282,95.6411 84.5,93.5 Z"/></g>
<g><path style="opacity:1" fill="#f3f3f3" d="M 87.5,102.5 C 112.167,102.5 136.833,102.5 161.5,102.5C 161.825,119.077 161.492,135.577 160.5,152C 136.169,152.5 111.836,152.667 87.5,152.5C 86.5416,152.047 85.7083,151.381 85,150.5C 84.3333,135.167 84.3333,119.833 85,104.5C 85.7083,103.619 86.5416,102.953 87.5,102.5 Z"/></g>
<g><path style="opacity:1" fill="#bbc1c4" d="M 87.5,102.5 C 113.997,101.336 140.664,101.17 167.5,102C 168.333,102.833 169.167,103.667 170,104.5C 170.667,119.833 170.667,135.167 170,150.5C 169.167,151.333 168.333,152.167 167.5,153C 140.664,153.83 113.997,153.664 87.5,152.5C 111.836,152.667 136.169,152.5 160.5,152C 161.492,135.577 161.825,119.077 161.5,102.5C 136.833,102.5 112.167,102.5 87.5,102.5 Z"/></g>
<g><path style="opacity:1" fill="#080301" d="M 168.5,174.5 C 172.099,173.938 174.099,175.438 174.5,179C 173.157,191.003 166.49,196.337 154.5,195C 153.409,192.936 153.242,190.769 154,188.5C 157.32,187.832 160.487,186.665 163.5,185C 164.617,181.131 166.283,177.631 168.5,174.5 Z"/></g>
<g><path style="opacity:1" fill="#0a0401" d="M 87.5,178.5 C 92.7072,178.58 94.8739,181.247 94,186.5C 96.3945,190.387 99.8945,192.387 104.5,192.5C 105.769,194.695 105.769,196.861 104.5,199C 92.9108,200.357 86.2442,195.19 84.5,183.5C 84.7573,181.308 85.7573,179.641 87.5,178.5 Z"/></g>
<g><path style="opacity:1" fill="#ef8d00" d="M 40.5,238.5 C 98.501,238.333 156.501,238.5 214.5,239C 215.961,241.421 217.294,243.921 218.5,246.5C 157.833,247.833 97.1667,247.833 36.5,246.5C 37.8466,243.807 39.1799,241.14 40.5,238.5 Z"/></g>
</svg>
