<?xml version="1.0" encoding="UTF-8"?>
<!DOCTYPE svg PUBLIC "-//W3C//DTD SVG 1.1//EN" "http://www.w3.org/Graphics/SVG/1.1/DTD/svg11.dtd">
<svg xmlns="http://www.w3.org/2000/svg" version="1.1" width="512px" height="512px" style="shape-rendering:geometricPrecision; text-rendering:geometricPrecision; image-rendering:optimizeQuality; fill-rule:evenodd; clip-rule:evenodd" xmlns:xlink="http://www.w3.org/1999/xlink">
<g><path style="opacity:0.975" fill="#000000" d="M 193.5,-0.5 C 201.167,-0.5 208.833,-0.5 216.5,-0.5C 218.578,1.39043 219.911,3.72376 220.5,6.5C 219.59,9.79257 217.59,12.2926 214.5,14C 208.917,14.1911 203.417,14.6911 198,15.5C 197.18,26.41 197.347,37.2433 198.5,48C 236.669,48.8311 274.669,48.6645 312.5,47.5C 313.659,37.008 313.825,26.3414 313,15.5C 306.59,14.5223 300.09,14.189 293.5,14.5C 277.163,14.6666 260.83,14.4999 244.5,14C 241.211,12.5897 239.544,10.0897 239.5,6.5C 239.571,3.34772 240.905,1.01439 243.5,-0.5C 268.167,-0.5 292.833,-0.5 317.5,-0.5C 323.769,2.6057 327.602,7.6057 329,14.5C 329.897,27.2151 329.564,39.8818 328,52.5C 325.668,58.1644 321.501,61.6644 315.5,63C 321.582,90.0746 327.415,117.241 333,144.5C 333.929,148.244 333.429,151.744 331.5,155C 330.255,155.791 328.922,156.291 327.5,156.5C 323.727,157.178 320.894,155.844 319,152.5C 313.003,122.513 306.503,92.6794 299.5,63C 269.997,62.1695 240.664,62.3362 211.5,63.5C 197.241,129.353 183.074,195.353 169,261.5C 166.396,273.789 164.23,286.123 162.5,298.5C 219.5,298.5 276.5,298.5 333.5,298.5C 338.5,298.5 343.5,298.5 348.5,298.5C 341.558,259.893 333.892,221.393 325.5,183C 325.886,179.122 327.886,176.622 331.5,175.5C 336.474,175.299 339.64,177.632 341,182.5C 348.985,219.772 356.651,257.105 364,294.5C 364.667,353.167 364.667,411.833 364,470.5C 359.984,492.013 347.484,505.68 326.5,511.5C 279.167,511.5 231.833,511.5 184.5,511.5C 165.588,506.422 153.421,494.422 148,475.5C 146.371,444.206 146.038,412.873 147,381.5C 148.159,378.507 150.325,376.84 153.5,376.5C 157.624,376.631 160.291,378.631 161.5,382.5C 161.5,399.833 161.5,417.167 161.5,434.5C 224.167,434.5 286.833,434.5 349.5,434.5C 349.832,393.997 349.499,353.663 348.5,313.5C 343.833,313.5 339.167,313.5 334.5,313.5C 276.833,313.5 219.167,313.5 161.5,313.5C 161.667,326.504 161.5,339.504 161,352.5C 159.287,355.278 156.787,356.945 153.5,357.5C 150.331,357.161 148.164,355.495 147,352.5C 146.333,333.167 146.333,313.833 147,294.5C 162.78,217.219 178.947,140.052 195.5,63C 187.427,60.9282 182.927,55.7615 182,47.5C 181.333,36.5 181.333,25.5 182,14.5C 183.398,7.6057 187.231,2.6057 193.5,-0.5 Z"/></g>
<g><path style="opacity:0.997" fill="#e2a15f" d="M 220.5,6.5 C 226.833,6.5 233.167,6.5 239.5,6.5C 239.544,10.0897 241.211,12.5897 244.5,14C 260.83,14.4999 277.163,14.6666 293.5,14.5C 293.5,25.5 293.5,36.5 293.5,47.5C 299.833,47.5 306.167,47.5 312.5,47.5C 274.669,48.6645 236.669,48.8311 198.5,48C 197.347,37.2433 197.18,26.41 198,15.5C 203.417,14.6911 208.917,14.1911 214.5,14C 217.59,12.2926 219.59,9.79257 220.5,6.5 Z"/></g>
<g><path style="opacity:1" fill="#e39441" d="M 293.5,14.5 C 300.09,14.189 306.59,14.5223 313,15.5C 313.825,26.3414 313.659,37.008 312.5,47.5C 306.167,47.5 299.833,47.5 293.5,47.5C 293.5,36.5 293.5,25.5 293.5,14.5 Z"/></g>
<g><path style="opacity:1" fill="#fedf7c" d="M 211.5,63.5 C 236.408,63.1722 261.241,63.5055 286,64.5C 301.206,137.528 316.539,210.528 332,283.5C 332.912,288.464 333.412,293.464 333.5,298.5C 276.5,298.5 219.5,298.5 162.5,298.5C 164.23,286.123 166.396,273.789 169,261.5C 183.074,195.353 197.241,129.353 211.5,63.5 Z"/></g>
<g><path style="opacity:1" fill="#f8cb62" d="M 211.5,63.5 C 240.664,62.3362 269.997,62.1695 299.5,63C 306.503,92.6794 313.003,122.513 319,152.5C 320.894,155.844 323.727,157.178 327.5,156.5C 329.301,162.707 330.634,169.04 331.5,175.5C 327.886,176.622 325.886,179.122 325.5,183C 333.892,221.393 341.558,259.893 348.5,298.5C 343.5,298.5 338.5,298.5 333.5,298.5C 333.412,293.464 332.912,288.464 332,283.5C 316.539,210.528 301.206,137.528 286,64.5C 261.241,63.5055 236.408,63.1722 211.5,63.5 Z"/></g>
<g><path style="opacity:1" fill="#ebf3fe" d="M 334.5,313.5 C 334.5,353.5 334.5,393.5 334.5,433.5C 277.167,433.5 219.833,433.5 162.5,433.5C 162.83,416.325 162.497,399.325 161.5,382.5C 160.291,378.631 157.624,376.631 153.5,376.5C 153.5,370.167 153.5,363.833 153.5,357.5C 156.787,356.945 159.287,355.278 161,352.5C 161.5,339.504 161.667,326.504 161.5,313.5C 219.167,313.5 276.833,313.5 334.5,313.5 Z"/></g>
<g><path style="opacity:1" fill="#cae2fe" d="M 334.5,313.5 C 339.167,313.5 343.833,313.5 348.5,313.5C 348.5,353.5 348.5,393.5 348.5,433.5C 343.833,433.5 339.167,433.5 334.5,433.5C 334.5,393.5 334.5,353.5 334.5,313.5 Z"/></g>
<g><path style="opacity:1" fill="#050504" d="M 249.5,331.5 C 274.442,330.881 290.275,342.548 297,366.5C 298.616,385.096 291.783,399.596 276.5,410C 252.899,420.81 233.732,415.643 219,394.5C 208.573,371.706 213.407,352.873 233.5,338C 238.744,335.315 244.077,333.148 249.5,331.5 Z"/></g>
<g><path style="opacity:1" fill="#fbdc7b" d="M 250.5,346.5 C 266.086,345.876 276.586,352.876 282,367.5C 283.167,390.333 272.333,401.167 249.5,400C 233.948,394.741 227.115,383.907 229,367.5C 232.776,356.889 239.943,349.889 250.5,346.5 Z"/></g>
<g><path style="opacity:1" fill="#636971" d="M 348.5,313.5 C 349.499,353.663 349.832,393.997 349.5,434.5C 286.833,434.5 224.167,434.5 161.5,434.5C 161.5,417.167 161.5,399.833 161.5,382.5C 162.497,399.325 162.83,416.325 162.5,433.5C 219.833,433.5 277.167,433.5 334.5,433.5C 339.167,433.5 343.833,433.5 348.5,433.5C 348.5,393.5 348.5,353.5 348.5,313.5 Z"/></g>
<g><path style="opacity:1" fill="#948046" d="M 348.5,467.5 C 348.5,461.5 348.5,455.5 348.5,449.5C 343.833,449.5 339.167,449.5 334.5,449.5C 277.167,449.5 219.833,449.5 162.5,449.5C 162.5,455.5 162.5,461.5 162.5,467.5C 161.51,461.355 161.177,455.022 161.5,448.5C 224.167,448.5 286.833,448.5 349.5,448.5C 349.823,455.022 349.49,461.355 348.5,467.5 Z"/></g>
<g><path style="opacity:1" fill="#fedf7c" d="M 334.5,449.5 C 336.511,463.615 333.678,476.615 326,488.5C 323.271,491.399 320.438,494.066 317.5,496.5C 274.165,496.667 230.832,496.5 187.5,496C 172.916,491.919 164.582,482.419 162.5,467.5C 162.5,461.5 162.5,455.5 162.5,449.5C 219.833,449.5 277.167,449.5 334.5,449.5 Z"/></g>
<g><path style="opacity:1" fill="#fccd63" d="M 334.5,449.5 C 339.167,449.5 343.833,449.5 348.5,449.5C 348.5,455.5 348.5,461.5 348.5,467.5C 345.64,485.023 335.307,494.69 317.5,496.5C 320.438,494.066 323.271,491.399 326,488.5C 333.678,476.615 336.511,463.615 334.5,449.5 Z"/></g>
</svg>
