<?xml version="1.0" encoding="UTF-8"?>
<!DOCTYPE svg PUBLIC "-//W3C//DTD SVG 1.1//EN" "http://www.w3.org/Graphics/SVG/1.1/DTD/svg11.dtd">
<svg xmlns="http://www.w3.org/2000/svg" version="1.1" width="512px" height="512px" style="shape-rendering:geometricPrecision; text-rendering:geometricPrecision; image-rendering:optimizeQuality; fill-rule:evenodd; clip-rule:evenodd" xmlns:xlink="http://www.w3.org/1999/xlink">
<g><path style="opacity:0.924" fill="#000000" d="M 232.5,15.5 C 243.024,14.1816 246.857,18.5149 244,28.5C 229.755,40.2348 225.422,54.9014 231,72.5C 237.353,82.8744 242.353,93.8744 246,105.5C 251.338,125.642 247.172,143.476 233.5,159C 224.023,161.195 219.856,157.362 221,147.5C 229.61,137.73 232.61,126.396 230,113.5C 226.98,102.125 222.313,91.4584 216,81.5C 206.496,55.5498 211.996,33.5498 232.5,15.5 Z"/></g>
<g><path style="opacity:0.927" fill="#000000" d="M 131.5,47.5 C 141.33,45.8292 145.163,49.8292 143,59.5C 136.031,66.4058 133.031,74.7392 134,84.5C 136.74,91.9099 141.074,98.2432 147,103.5C 158.337,122.932 156.503,141.098 141.5,158C 130.964,161.997 126.464,158.497 128,147.5C 134.969,140.594 137.969,132.261 137,122.5C 134.26,115.09 129.926,108.757 124,103.5C 112.115,82.8457 114.615,64.179 131.5,47.5 Z"/></g>
<g><path style="opacity:0.927" fill="#000000" d="M 323.5,47.5 C 333.33,45.8292 337.163,49.8292 335,59.5C 328.031,66.4058 325.031,74.7392 326,84.5C 328.74,91.9099 333.074,98.2432 339,103.5C 350.337,122.932 348.503,141.098 333.5,158C 322.964,161.997 318.464,158.497 320,147.5C 326.969,140.594 329.969,132.261 329,122.5C 326.26,115.09 321.926,108.757 316,103.5C 304.115,82.8457 306.615,64.179 323.5,47.5 Z"/></g>
<g><path style="opacity:0.989" fill="#010000" d="M 61.5,175.5 C 174.834,175.333 288.167,175.5 401.5,176C 404.094,177.339 405.594,179.506 406,182.5C 407.209,193.467 407.709,204.467 407.5,215.5C 426.503,215.333 445.503,215.5 464.5,216C 480.667,220.167 490.833,230.333 495,246.5C 495.959,270.217 495.626,293.883 494,317.5C 489.589,329.578 481.423,338.078 469.5,343C 436.129,354.735 402.795,366.568 369.5,378.5C 361.499,391.658 352.166,403.824 341.5,415C 389.583,415.009 437.583,415.676 485.5,417C 488.734,440.952 481.401,461.285 463.5,478C 451.499,487.559 437.833,493.226 422.5,495C 311.167,495.667 199.833,495.667 88.5,495C 46.0964,487.693 24.5964,462.527 24,419.5C 24.5,417.667 25.6667,416.5 27.5,416C 58.8333,415.667 90.1667,415.333 121.5,415C 94.8942,386.303 76.7276,352.803 67,314.5C 54.8834,269.147 52.2168,223.48 59,177.5C 59.9947,176.934 60.828,176.267 61.5,175.5 Z M 405.5,263.5 C 416.838,263.333 428.172,263.5 439.5,264C 444,264.5 446.5,267 447,271.5C 447.667,278.167 447.667,284.833 447,291.5C 446.883,294.911 445.383,297.411 442.5,299C 426.935,304.965 411.268,310.299 395.5,315C 400.304,298.144 403.638,280.978 405.5,263.5 Z"/></g>
<g><path style="opacity:1" fill="#dfe1e4" d="M 72.5,191.5 C 138.833,191.5 205.167,191.5 271.5,191.5C 271.5,207.5 271.5,223.5 271.5,239.5C 204.833,239.5 138.167,239.5 71.5,239.5C 71.2279,223.472 71.5613,207.472 72.5,191.5 Z"/></g>
<g><path style="opacity:1" fill="#dfe1e4" d="M 287.5,191.5 C 321.833,191.5 356.167,191.5 390.5,191.5C 391.439,207.472 391.772,223.472 391.5,239.5C 356.833,239.5 322.167,239.5 287.5,239.5C 287.5,223.5 287.5,207.5 287.5,191.5 Z"/></g>
<g><path style="opacity:1" fill="#d6d8da" d="M 407.5,231.5 C 425.17,231.333 442.836,231.5 460.5,232C 469.573,234.739 475.74,240.573 479,249.5C 479.667,269.5 479.667,289.5 479,309.5C 477.342,317.99 472.509,323.824 464.5,327C 436.833,336.833 409.167,346.667 381.5,356.5C 381.167,356.167 380.833,355.833 380.5,355.5C 383.12,348.631 386.12,341.965 389.5,335.5C 410.205,328.098 430.872,320.598 451.5,313C 457.921,309.33 461.755,303.83 463,296.5C 463.667,286.167 463.667,275.833 463,265.5C 459.765,256.599 453.598,250.766 444.5,248C 431.838,247.5 419.171,247.333 406.5,247.5C 406.833,242.167 407.167,236.833 407.5,231.5 Z"/></g>
<g><path style="opacity:1" fill="#f3ad3f" d="M 73.5,255.5 C 139.5,255.5 205.5,255.5 271.5,255.5C 271.666,262.508 271.5,269.508 271,276.5C 260.303,286.863 249.97,297.529 240,308.5C 239.333,336.833 239.333,365.167 240,393.5C 240.398,396.232 241.898,398.065 244.5,399C 267.5,399.667 290.5,399.667 313.5,399C 316.667,398.5 318.5,396.667 319,393.5C 319.667,365.167 319.667,336.833 319,308.5C 309.03,297.529 298.697,286.863 288,276.5C 287.5,269.508 287.334,262.508 287.5,255.5C 321.5,255.5 355.5,255.5 389.5,255.5C 386.286,297.64 374.119,336.974 353,373.5C 343.355,389.149 331.522,402.983 317.5,415C 260.167,415.667 202.833,415.667 145.5,415C 122.821,394.83 105.654,370.663 94,342.5C 82.7214,314.508 75.8881,285.508 73.5,255.5 Z"/></g>
<g><path style="opacity:1" fill="#df7d2f" d="M 278.5,291.5 C 287.078,298.574 295.245,306.24 303,314.5C 303.5,337.498 303.667,360.498 303.5,383.5C 287.5,383.5 271.5,383.5 255.5,383.5C 255.333,360.498 255.5,337.498 256,314.5C 263.702,306.965 271.202,299.298 278.5,291.5 Z"/></g>
<g><path style="opacity:1" fill="#d8dadc" d="M 40.5,431.5 C 183.833,431.5 327.167,431.5 470.5,431.5C 465.384,457.116 450.05,472.616 424.5,478C 367.693,479.152 310.86,479.652 254,479.5C 197.47,479.654 140.97,479.154 84.5,478C 60.0676,471.734 45.4009,456.234 40.5,431.5 Z"/></g>
</svg>
