<?xml version="1.0" encoding="UTF-8"?>
<!DOCTYPE svg PUBLIC "-//W3C//DTD SVG 1.1//EN" "http://www.w3.org/Graphics/SVG/1.1/DTD/svg11.dtd">
<svg xmlns="http://www.w3.org/2000/svg" version="1.1" width="512px" height="512px" style="shape-rendering:geometricPrecision; text-rendering:geometricPrecision; image-rendering:optimizeQuality; fill-rule:evenodd; clip-rule:evenodd" xmlns:xlink="http://www.w3.org/1999/xlink">
<g><path style="opacity:0.917" fill="#000000" d="M 224.5,-0.5 C 227.167,-0.5 229.833,-0.5 232.5,-0.5C 238.637,5.49269 243.471,12.4927 247,20.5C 248.985,33.6971 243.818,42.8637 231.5,48C 228.346,50.7749 227.846,53.9416 230,57.5C 234.392,61.5536 237.559,66.3869 239.5,72C 237.403,79.5417 232.736,81.5417 225.5,78C 220.088,72.2635 215.921,65.7635 213,58.5C 210.93,45.8021 215.763,36.9688 227.5,32C 229.726,30.3805 231.06,28.2138 231.5,25.5C 228.625,19.7851 225.125,14.4518 221,9.5C 220.182,5.46947 221.349,2.13614 224.5,-0.5 Z"/></g>
<g><path style="opacity:0.909" fill="#000000" d="M 167.5,12.5 C 171.192,11.9712 174.358,12.9712 177,15.5C 179.333,18.5 181.667,21.5 184,24.5C 190.182,38.1218 186.682,48.4551 173.5,55.5C 172.447,56.4383 171.78,57.605 171.5,59C 173.298,62.0857 175.464,64.9191 178,67.5C 182.576,77.5221 179.41,82.0221 168.5,81C 164.964,77.7988 161.797,74.2988 159,70.5C 152.286,56.5034 155.786,46.0034 169.5,39C 170.167,38 170.833,37 171.5,36C 169.052,31.8851 166.219,28.0518 163,24.5C 161.474,19.2389 162.974,15.2389 167.5,12.5 Z"/></g>
<g><path style="opacity:0.913" fill="#000000" d="M 281.5,12.5 C 286.874,11.9369 291.041,13.9369 294,18.5C 302.692,28.1163 303.692,38.4496 297,49.5C 293.842,52.0796 290.508,54.4129 287,56.5C 286.333,57.8333 286.333,59.1667 287,60.5C 289.333,63.5 291.667,66.5 294,69.5C 295.846,80.16 291.68,83.66 281.5,80C 277.226,75.726 273.726,70.8927 271,65.5C 268.058,52.7163 272.558,43.7163 284.5,38.5C 284.987,37.5539 285.32,36.5539 285.5,35.5C 282.102,30.7621 279.102,25.7621 276.5,20.5C 277.191,17.0953 278.858,14.4286 281.5,12.5 Z"/></g>
<g><path style="opacity:0.985" fill="#020202" d="M 294.5,511.5 C 243.167,511.5 191.833,511.5 140.5,511.5C 138.15,509.787 137.15,507.453 137.5,504.5C 137.544,500.91 139.211,498.41 142.5,497C 150.159,496.5 157.826,496.334 165.5,496.5C 187.818,496.337 202.318,485.67 209,464.5C 210.617,435.535 210.95,406.535 210,377.5C 202.587,376.519 195.087,376.186 187.5,376.5C 147.594,376.17 107.761,376.503 68,377.5C 67.3333,404.833 67.3333,432.167 68,459.5C 71.2894,478.921 82.4561,491.088 101.5,496C 105.167,496.333 108.833,496.667 112.5,497C 115.789,498.41 117.456,500.91 117.5,504.5C 117.85,507.453 116.85,509.787 114.5,511.5C 109.5,511.5 104.5,511.5 99.5,511.5C 74.1807,505.68 58.6807,490.013 53,464.5C 51.4214,435.857 51.088,407.19 52,378.5C 52.5019,370.161 56.6686,364.495 64.5,361.5C 67.9203,341.073 79.9203,330.74 100.5,330.5C 89.2857,263.881 78.2857,197.214 67.5,130.5C 68.7239,117.107 75.7239,108.274 88.5,104C 182.833,103.333 277.167,103.333 371.5,104C 384.479,108.316 391.479,117.316 392.5,131C 388.817,154.43 384.817,177.764 380.5,201C 396.833,201.333 413.167,201.667 429.5,202C 452.109,209.308 461.609,224.808 458,248.5C 450.871,292.942 443.204,337.275 435,381.5C 429.154,395.348 418.988,404.181 404.5,408C 385.17,408.5 365.836,408.667 346.5,408.5C 343.218,429.526 339.718,450.526 336,471.5C 329.774,492.896 315.94,506.229 294.5,511.5 Z M 373.5,245.5 C 386.167,245.5 398.833,245.5 411.5,245.5C 405.768,283.89 399.602,322.223 393,360.5C 392.097,361.701 390.931,362.535 389.5,363C 377.838,363.5 366.171,363.667 354.5,363.5C 360.617,324.134 366.95,284.8 373.5,245.5 Z"/></g>
<g><path style="opacity:1" fill="#f8f1f2" d="M 350.5,118.5 C 352.633,122.567 353.966,126.9 354.5,131.5C 351.362,148.628 348.362,165.795 345.5,183C 345.392,184.681 344.725,185.848 343.5,186.5C 324.972,177.002 307.806,179.002 292,192.5C 271.986,176.619 251.986,176.619 232,192.5C 211.986,176.619 191.986,176.619 172,192.5C 155.744,179.036 138.244,177.202 119.5,187C 116.72,188.812 114.22,190.979 112,193.5C 110.978,195.702 110.478,198.035 110.5,200.5C 116.284,237.204 122.284,273.871 128.5,310.5C 128.167,311.167 127.833,311.833 127.5,312.5C 122.739,314.294 118.573,316.96 115,320.5C 104.013,257.411 93.5129,194.244 83.5,131C 83.7228,125.432 86.3894,121.432 91.5,119C 177.833,118.5 264.166,118.333 350.5,118.5 Z"/></g>
<g><path style="opacity:1" fill="#ebe1dc" d="M 350.5,118.5 C 356.509,118.334 362.509,118.501 368.5,119C 373.611,121.432 376.277,125.432 376.5,131C 358.054,243.508 339.554,356.008 321,468.5C 314.042,487.95 300.208,497.283 279.5,496.5C 284.361,492.803 288.361,488.303 291.5,483C 291.164,481.97 290.497,481.47 289.5,481.5C 300.278,478.211 306.111,470.878 307,459.5C 321.5,371.833 336,284.167 350.5,196.5C 349.712,192.052 347.379,188.718 343.5,186.5C 344.725,185.848 345.392,184.681 345.5,183C 348.362,165.795 351.362,148.628 354.5,131.5C 353.966,126.9 352.633,122.567 350.5,118.5 Z"/></g>
<g><path style="opacity:1" fill="#fdfdfd" d="M 310.5,198.5 C 311.586,198.62 312.253,199.287 312.5,200.5C 310.616,210.473 308.949,220.473 307.5,230.5C 301.198,230.81 298.532,234.143 299.5,240.5C 292.5,239.167 285.5,237.833 278.5,236.5C 277.746,233.909 276.079,232.076 273.5,231C 225.501,230.5 177.501,230.333 129.5,230.5C 128.927,221.397 127.594,212.397 125.5,203.5C 127.455,199.337 130.789,196.837 135.5,196C 143.045,194.544 150.045,195.877 156.5,200C 162.742,207.393 170.409,209.393 179.5,206C 193.546,192.412 207.879,192.079 222.5,205C 227.988,207.915 233.655,208.248 239.5,206C 244.322,201.844 249.655,198.511 255.5,196C 263.045,194.544 270.045,195.877 276.5,200C 282.728,207.399 290.395,209.399 299.5,206C 302.849,202.995 306.516,200.495 310.5,198.5 Z"/></g>
<g><path style="opacity:1" fill="#efefef" d="M 307.5,230.5 C 308.949,220.473 310.616,210.473 312.5,200.5C 312.253,199.287 311.586,198.62 310.5,198.5C 318.015,194.595 325.682,194.595 333.5,198.5C 333.833,199.667 334.167,200.833 334.5,202C 332.785,211.457 331.451,220.957 330.5,230.5C 322.833,230.5 315.167,230.5 307.5,230.5 Z"/></g>
<g><path style="opacity:1" fill="#ece1dc" d="M 377.5,216.5 C 393.837,216.333 410.17,216.5 426.5,217C 439.25,221.336 444.75,230.169 443,243.5C 435.814,285.804 428.814,328.138 422,370.5C 419.268,382.232 412.101,389.732 400.5,393C 383.17,393.5 365.837,393.667 348.5,393.5C 349.492,388.548 350.158,383.548 350.5,378.5C 365.17,378.667 379.837,378.5 394.5,378C 400.365,376.489 404.532,372.989 407,367.5C 413.774,327.859 420.44,288.192 427,248.5C 429.313,239.961 426.479,234.128 418.5,231C 404.171,230.5 389.837,230.333 375.5,230.5C 375.95,225.798 376.617,221.132 377.5,216.5 Z"/></g>
<g><path style="opacity:1" fill="#cbf39e" d="M 278.5,236.5 C 285.5,237.833 292.5,239.167 299.5,240.5C 300.5,242.833 302.167,244.5 304.5,245.5C 292.845,316.46 281.345,387.46 270,458.5C 269.458,461.292 268.624,463.958 267.5,466.5C 253.167,466.5 238.833,466.5 224.5,466.5C 225.62,435.85 225.787,405.183 225,374.5C 223.033,368.699 219.199,364.699 213.5,362.5C 208.435,339.593 194.269,329.26 171,331.5C 166.798,322.966 160.298,316.799 151.5,313C 148.937,311.921 146.271,311.421 143.5,311.5C 139.882,289.625 136.215,267.792 132.5,246C 179.5,245.667 226.5,245.333 273.5,245C 277.488,243.516 279.154,240.683 278.5,236.5 Z"/></g>
<g><path style="opacity:1" fill="#b2e49e" d="M 304.5,245.5 C 312.174,245.334 319.841,245.5 327.5,246C 315.403,317.413 303.57,388.913 292,460.5C 291.315,463.057 289.815,464.891 287.5,466C 280.842,466.5 274.175,466.666 267.5,466.5C 268.624,463.958 269.458,461.292 270,458.5C 281.345,387.46 292.845,316.46 304.5,245.5 Z"/></g>
<g><path style="opacity:1" fill="#060704" d="M 183.5,275.5 C 194.176,275.328 198.343,280.328 196,290.5C 189.042,297.638 183.042,296.971 178,288.5C 176.831,282.853 178.665,278.519 183.5,275.5 Z"/></g>
<g><path style="opacity:1" fill="#060704" d="M 282.5,275.5 C 293.176,275.328 297.343,280.328 295,290.5C 288.042,297.638 282.042,296.971 277,288.5C 275.831,282.853 277.665,278.519 282.5,275.5 Z"/></g>
<g><path style="opacity:1" fill="#050604" d="M 235.5,310.5 C 245.503,310.002 249.67,314.668 248,324.5C 245.259,329.419 241.092,331.252 235.5,330C 229.975,327.081 228.142,322.581 230,316.5C 231.36,313.977 233.193,311.977 235.5,310.5 Z"/></g>
<g><path style="opacity:1" fill="#97ca81" d="M 156.5,338.5 C 149.797,338.559 143.131,338.726 136.5,339C 134.257,335.438 131.924,331.938 129.5,328.5C 137.896,323.926 145.729,324.926 153,331.5C 154.705,333.577 155.872,335.91 156.5,338.5 Z"/></g>
<g><path style="opacity:1" fill="#b1e39d" d="M 129.5,328.5 C 131.924,331.938 134.257,335.438 136.5,339C 143.131,338.726 149.797,338.559 156.5,338.5C 158.93,344.217 163.263,347.217 169.5,347.5C 172.746,351.569 174.413,356.236 174.5,361.5C 143.167,361.5 111.833,361.5 80.5,361.5C 85.0335,347.15 94.5335,342.484 109,347.5C 113.535,347.066 117.202,345.066 120,341.5C 121.521,335.834 124.687,331.5 129.5,328.5 Z"/></g>
<g><path style="opacity:1" fill="#97ca81" d="M 174.5,361.5 C 174.413,356.236 172.746,351.569 169.5,347.5C 183.134,342.651 192.467,346.984 197.5,360.5C 189.862,361.497 182.196,361.831 174.5,361.5 Z"/></g>
<g><path style="opacity:1" fill="#060704" d="M 265.5,363.5 C 276.176,363.328 280.343,368.328 278,378.5C 271.042,385.638 265.042,384.971 260,376.5C 258.831,370.853 260.665,366.519 265.5,363.5 Z"/></g>
<g><path style="opacity:0.999" fill="#e1996b" d="M 187.5,376.5 C 187.667,405.502 187.5,434.502 187,463.5C 183.836,477.173 176.67,488.173 165.5,496.5C 157.826,496.334 150.159,496.5 142.5,497C 139.211,498.41 137.544,500.91 137.5,504.5C 130.833,504.5 124.167,504.5 117.5,504.5C 117.456,500.91 115.789,498.41 112.5,497C 108.833,496.667 105.167,496.333 101.5,496C 82.4561,491.088 71.2894,478.921 68,459.5C 67.3333,432.167 67.3333,404.833 68,377.5C 107.761,376.503 147.594,376.17 187.5,376.5 Z"/></g>
<g><path style="opacity:1" fill="#cd835b" d="M 187.5,376.5 C 195.087,376.186 202.587,376.519 210,377.5C 210.95,406.535 210.617,435.535 209,464.5C 202.318,485.67 187.818,496.337 165.5,496.5C 176.67,488.173 183.836,477.173 187,463.5C 187.5,434.502 187.667,405.502 187.5,376.5 Z"/></g>
<g><path style="opacity:1" fill="#060704" d="M 253.5,421.5 C 264.176,421.328 268.343,426.328 266,436.5C 259.042,443.638 253.042,442.971 248,434.5C 246.831,428.853 248.665,424.519 253.5,421.5 Z"/></g>
<g><path style="opacity:1" fill="#f9f1f2" d="M 289.5,481.5 C 290.497,481.47 291.164,481.97 291.5,483C 288.361,488.303 284.361,492.803 279.5,496.5C 255.498,496.667 231.498,496.5 207.5,496C 211.548,491.62 215.215,486.954 218.5,482C 242.164,481.5 265.831,481.333 289.5,481.5 Z"/></g>
</svg>
