<?xml version="1.0" encoding="UTF-8"?>
<!DOCTYPE svg PUBLIC "-//W3C//DTD SVG 1.1//EN" "http://www.w3.org/Graphics/SVG/1.1/DTD/svg11.dtd">
<svg xmlns="http://www.w3.org/2000/svg" version="1.1" width="512px" height="512px" style="shape-rendering:geometricPrecision; text-rendering:geometricPrecision; image-rendering:optimizeQuality; fill-rule:evenodd; clip-rule:evenodd" xmlns:xlink="http://www.w3.org/1999/xlink">
<g><path style="opacity:0.97" fill="#020000" d="M 236.5,-0.5 C 247.5,-0.5 258.5,-0.5 269.5,-0.5C 285.635,2.95948 301.968,6.12615 318.5,9C 418.409,31.2429 480.242,92.0762 504,191.5C 518.599,262.043 509.599,329.376 477,393.5C 444.965,451.851 396.465,488.684 331.5,504C 316.817,507.28 302.151,509.78 287.5,511.5C 256.5,511.5 225.5,511.5 194.5,511.5C 149.875,507.459 109.208,492.626 72.5,467C 31.5769,436.01 8.07687,394.843 2,343.5C -3.08804,295.434 10.5786,253.767 43,218.5C 58.5181,202.642 76.0181,189.475 95.5,179C 109.025,173.835 121.692,167.169 133.5,159C 140.711,152.241 144.044,143.908 143.5,134C 131.389,58.9899 162.389,14.1566 236.5,-0.5 Z"/></g>
<g><path style="opacity:1" fill="#e2746e" d="M 268.5,14.5 C 304.645,28.5063 335.145,50.5063 360,80.5C 410.161,143.117 429.828,214.45 419,294.5C 412.634,345.302 393.634,390.635 362,430.5C 336.185,460.158 304.351,480.325 266.5,491C 265.058,491.377 264.058,492.21 263.5,493.5C 198.482,505.245 138.482,493.078 83.5,457C 38.8608,423.724 16.1941,379.058 15.5,323C 16.1875,280.628 32.5209,245.628 64.5,218C 74.4609,209.353 85.1276,201.686 96.5,195C 108.747,188.808 121.08,182.808 133.5,177C 150.191,167.468 158.524,152.968 158.5,133.5C 157.002,122.02 155.669,110.52 154.5,99C 157.861,58.9674 178.527,32.3008 216.5,19C 233.514,13.6549 250.847,12.1549 268.5,14.5 Z"/></g>
<g><path style="opacity:1" fill="#de5b55" d="M 268.5,14.5 C 303.9,19.8699 334.9,34.3699 361.5,58C 429.619,122.675 457.452,201.842 445,295.5C 437.363,355.849 411.53,406.683 367.5,448C 336.906,472.123 302.239,487.289 263.5,493.5C 264.058,492.21 265.058,491.377 266.5,491C 304.351,480.325 336.185,460.158 362,430.5C 393.634,390.635 412.634,345.302 419,294.5C 429.828,214.45 410.161,143.117 360,80.5C 335.145,50.5063 304.645,28.5063 268.5,14.5 Z"/></g>
<g><path style="opacity:1" fill="#612f28" d="M 351.5,482.5 C 400.041,458.79 435.208,422.123 457,372.5C 489.284,295.61 489.617,218.61 458,141.5C 438.432,98.3406 407.932,65.3406 366.5,42.5C 365.893,42.6236 365.56,42.9569 365.5,43.5C 362.375,40.7657 359.042,38.2657 355.5,36C 400.413,51.9042 435.579,80.0708 461,120.5C 489.581,171.168 500.914,225.501 495,283.5C 489.917,339.303 469.251,388.303 433,430.5C 410.428,455.036 383.261,472.369 351.5,482.5 Z"/></g>
<g><path style="opacity:1" fill="#050302" d="M 203.5,76.5 C 205.391,78.8357 205.891,81.5024 205,84.5C 199.063,92.9717 195.063,102.305 193,112.5C 193.514,130.493 193.848,148.493 194,166.5C 191.829,182.349 183.995,194.516 170.5,203C 156.32,210.256 141.987,217.256 127.5,224C 97.1085,242.723 75.9418,268.89 64,302.5C 53.5977,349.293 66.431,388.459 102.5,420C 132.56,444.355 167.06,456.188 206,455.5C 219.257,455.552 232.424,454.552 245.5,452.5C 302.023,440.661 344.523,409.661 373,359.5C 406.088,296.775 411.422,231.775 389,164.5C 375.23,125.41 351.063,94.5766 316.5,72C 301.595,63.1987 285.595,57.6987 268.5,55.5C 253.498,54.2505 239.498,57.4171 226.5,65C 223.177,65.932 220.177,65.432 217.5,63.5C 216.016,60.4161 216.182,57.4161 218,54.5C 240.013,40.9544 263.513,37.7878 288.5,45C 321.488,55.566 348.654,74.3993 370,101.5C 405.05,149.344 420.384,203.011 416,262.5C 411.266,324.457 386.766,376.957 342.5,420C 298.433,457.131 247.433,473.464 189.5,469C 136.034,464.448 94.2004,440.281 64,396.5C 34.9642,340.713 41.2976,289.38 83,242.5C 104.241,220.449 129.408,204.282 158.5,194C 169.746,188.426 176.912,179.593 180,167.5C 180.513,151.642 180.013,135.808 178.5,120C 179.152,104.378 183.985,90.2115 193,77.5C 196.223,73.9829 199.723,73.6496 203.5,76.5 Z"/></g>
<g><path style="opacity:1" fill="#6e4037" d="M 365.5,43.5 C 365.56,42.9569 365.893,42.6236 366.5,42.5C 407.932,65.3406 438.432,98.3406 458,141.5C 489.617,218.61 489.284,295.61 457,372.5C 435.208,422.123 400.041,458.79 351.5,482.5C 342.836,486.084 333.836,488.584 324.5,490C 371.304,469.196 406.471,436.03 430,390.5C 463.817,319.992 470.484,246.992 450,171.5C 433.93,120.643 405.763,77.9762 365.5,43.5 Z"/></g>
<g><path style="opacity:1" fill="#fbbeb5" d="M 268.5,55.5 C 280.756,60.6269 292.089,67.2936 302.5,75.5C 289.13,69.4912 275.13,66.9912 260.5,68C 238.683,72.4874 223.517,84.9874 215,105.5C 209.143,122.027 207.143,139.027 209,156.5C 213.816,177.187 226.982,187.187 248.5,186.5C 261.824,185.5 275.158,185.334 288.5,186C 298.917,189.04 309.25,192.373 319.5,196C 335.759,201.557 349.926,198.391 362,186.5C 364.755,181.476 366.589,176.142 367.5,170.5C 375.586,193.683 379.586,217.683 379.5,242.5C 368.629,221.439 351.962,214.939 329.5,223C 325.29,224.623 321.29,226.623 317.5,229C 305.584,237.578 294.251,246.911 283.5,257C 267.912,269.229 250.579,272.562 231.5,267C 220.442,261.942 211.942,254.108 206,243.5C 187.51,225.152 167.01,222.652 144.5,236C 119.781,252.045 101.615,273.545 90,300.5C 79.2105,334.427 84.2105,365.761 105,394.5C 126.932,417.382 153.765,430.548 185.5,434C 218.861,438.812 251.195,435.145 282.5,423C 297.557,416.149 311.224,407.316 323.5,396.5C 319.482,403.03 314.482,408.863 308.5,414C 289.674,430.412 268.674,443.245 245.5,452.5C 232.424,454.552 219.257,455.552 206,455.5C 167.06,456.188 132.56,444.355 102.5,420C 66.431,388.459 53.5977,349.293 64,302.5C 75.9418,268.89 97.1085,242.723 127.5,224C 141.987,217.256 156.32,210.256 170.5,203C 183.995,194.516 191.829,182.349 194,166.5C 193.848,148.493 193.514,130.493 193,112.5C 195.063,102.305 199.063,92.9717 205,84.5C 205.891,81.5024 205.391,78.8357 203.5,76.5C 206.9,70.8003 211.567,66.467 217.5,63.5C 220.177,65.432 223.177,65.932 226.5,65C 239.498,57.4171 253.498,54.2505 268.5,55.5 Z"/></g>
<g><path style="opacity:1" fill="#fbb0a5" d="M 268.5,55.5 C 285.595,57.6987 301.595,63.1987 316.5,72C 351.063,94.5766 375.23,125.41 389,164.5C 411.422,231.775 406.088,296.775 373,359.5C 344.523,409.661 302.023,440.661 245.5,452.5C 268.674,443.245 289.674,430.412 308.5,414C 314.482,408.863 319.482,403.03 323.5,396.5C 338.776,383.603 350.943,368.27 360,350.5C 360.977,347.183 360.144,344.516 357.5,342.5C 360.11,336.947 362.443,331.281 364.5,325.5C 368.426,325.953 371.592,324.62 374,321.5C 383.061,299.608 386.061,276.942 383,253.5C 382.126,249.712 380.959,246.046 379.5,242.5C 379.586,217.683 375.586,193.683 367.5,170.5C 366.879,155.799 362.712,142.133 355,129.5C 347.414,116.169 338.247,104.002 327.5,93C 319.54,86.5249 311.207,80.6916 302.5,75.5C 292.089,67.2936 280.756,60.6269 268.5,55.5 Z"/></g>
<g><path style="opacity:1" fill="#060303" d="M 302.5,75.5 C 311.207,80.6916 319.54,86.5249 327.5,93C 338.247,104.002 347.414,116.169 355,129.5C 362.712,142.133 366.879,155.799 367.5,170.5C 366.589,176.142 364.755,181.476 362,186.5C 349.926,198.391 335.759,201.557 319.5,196C 309.25,192.373 298.917,189.04 288.5,186C 275.158,185.334 261.824,185.5 248.5,186.5C 226.982,187.187 213.816,177.187 209,156.5C 207.143,139.027 209.143,122.027 215,105.5C 223.517,84.9874 238.683,72.4874 260.5,68C 275.13,66.9912 289.13,69.4912 302.5,75.5 Z"/></g>
<g><path style="opacity:1" fill="#b92121" d="M 329.5,183.5 C 331.833,183.5 334.167,183.5 336.5,183.5C 331.783,145.57 313.449,116.07 281.5,95C 272.298,89.2277 262.298,86.061 251.5,85.5C 262.486,80.6953 273.82,80.1953 285.5,84C 308.826,92.656 326.66,107.823 339,129.5C 346.503,141.338 351.337,154.171 353.5,168C 351.214,181.978 343.214,187.145 329.5,183.5 Z"/></g>
<g><path style="opacity:1" fill="#d13636" d="M 251.5,85.5 C 262.298,86.061 272.298,89.2277 281.5,95C 313.449,116.07 331.783,145.57 336.5,183.5C 334.167,183.5 331.833,183.5 329.5,183.5C 316.358,180.175 303.358,176.342 290.5,172C 274.161,171.756 257.828,171.756 241.5,172C 231.065,171.211 224.899,165.711 223,155.5C 219.951,134.092 224.285,114.425 236,96.5C 240.435,91.7083 245.602,88.0416 251.5,85.5 Z"/></g>
<g><path style="opacity:1" fill="#040302" d="M 243.5,193.5 C 262.657,191.49 275.491,199.49 282,217.5C 284.264,244.897 271.764,258.397 244.5,258C 225.821,251.495 217.655,238.328 220,218.5C 223.616,206.054 231.45,197.721 243.5,193.5 Z"/></g>
<g><path style="opacity:1" fill="#6e4037" d="M 262.5,212.5 C 263.594,223.746 259.594,232.58 250.5,239C 248.091,240.707 245.425,241.54 242.5,241.5C 237.489,239.178 234.656,235.178 234,229.5C 232.483,216.858 237.983,209.524 250.5,207.5C 255.419,207.243 259.419,208.91 262.5,212.5 Z"/></g>
<g><path style="opacity:1" fill="#612f28" d="M 262.5,212.5 C 268.149,217.172 269.982,223.172 268,230.5C 264.593,240.955 257.426,245.455 246.5,244C 244.934,243.392 243.6,242.558 242.5,241.5C 245.425,241.54 248.091,240.707 250.5,239C 259.594,232.58 263.594,223.746 262.5,212.5 Z"/></g>
<g><path style="opacity:1" fill="#050202" d="M 379.5,242.5 C 380.959,246.046 382.126,249.712 383,253.5C 386.061,276.942 383.061,299.608 374,321.5C 371.592,324.62 368.426,325.953 364.5,325.5C 362.261,323.523 360.927,321.023 360.5,318C 363.742,308.275 366.576,298.441 369,288.5C 370.462,278.54 370.795,268.54 370,258.5C 368.171,247.298 362.338,239.131 352.5,234C 348.642,233.19 344.976,233.357 341.5,234.5C 334.273,235.945 327.606,238.778 321.5,243C 308.361,255.144 294.361,266.144 279.5,276C 256.289,287.204 233.956,285.871 212.5,272C 204.476,262.977 196.142,254.31 187.5,246C 175.182,239.613 163.182,240.279 151.5,248C 126.735,264.694 109.568,287.194 100,315.5C 93.5066,365.978 114.34,399.144 162.5,415C 183.428,420.902 204.761,423.068 226.5,421.5C 268.751,418.958 303.584,401.625 331,369.5C 337.623,360.421 344.123,351.254 350.5,342C 352.929,341.297 355.262,341.463 357.5,342.5C 360.144,344.516 360.977,347.183 360,350.5C 350.943,368.27 338.776,383.603 323.5,396.5C 311.224,407.316 297.557,416.149 282.5,423C 251.195,435.145 218.861,438.812 185.5,434C 153.765,430.548 126.932,417.382 105,394.5C 84.2105,365.761 79.2105,334.427 90,300.5C 101.615,273.545 119.781,252.045 144.5,236C 167.01,222.652 187.51,225.152 206,243.5C 211.942,254.108 220.442,261.942 231.5,267C 250.579,272.562 267.912,269.229 283.5,257C 294.251,246.911 305.584,237.578 317.5,229C 321.29,226.623 325.29,224.623 329.5,223C 351.962,214.939 368.629,221.439 379.5,242.5 Z"/></g>
<g><path style="opacity:1" fill="#d23636" d="M 341.5,234.5 C 344.85,234.335 348.183,234.502 351.5,235C 356.729,243.415 359.062,252.582 358.5,262.5C 354.586,316.499 331.586,360.333 289.5,394C 270.293,407.611 249.293,416.778 226.5,421.5C 204.761,423.068 183.428,420.902 162.5,415C 114.34,399.144 93.5066,365.978 100,315.5C 109.568,287.194 126.735,264.694 151.5,248C 163.182,240.279 175.182,239.613 187.5,246C 196.142,254.31 204.476,262.977 212.5,272C 233.956,285.871 256.289,287.204 279.5,276C 294.361,266.144 308.361,255.144 321.5,243C 327.606,238.778 334.273,235.945 341.5,234.5 Z"/></g>
<g><path style="opacity:1" fill="#b92221" d="M 341.5,234.5 C 344.976,233.357 348.642,233.19 352.5,234C 362.338,239.131 368.171,247.298 370,258.5C 370.795,268.54 370.462,278.54 369,288.5C 366.576,298.441 363.742,308.275 360.5,318C 360.927,321.023 362.261,323.523 364.5,325.5C 362.443,331.281 360.11,336.947 357.5,342.5C 355.262,341.463 352.929,341.297 350.5,342C 344.123,351.254 337.623,360.421 331,369.5C 303.584,401.625 268.751,418.958 226.5,421.5C 249.293,416.778 270.293,407.611 289.5,394C 331.586,360.333 354.586,316.499 358.5,262.5C 359.062,252.582 356.729,243.415 351.5,235C 348.183,234.502 344.85,234.335 341.5,234.5 Z"/></g>
</svg>
