<?xml version="1.0" encoding="UTF-8"?>
<!DOCTYPE svg PUBLIC "-//W3C//DTD SVG 1.1//EN" "http://www.w3.org/Graphics/SVG/1.1/DTD/svg11.dtd">
<svg xmlns="http://www.w3.org/2000/svg" version="1.1" width="512px" height="512px" style="shape-rendering:geometricPrecision; text-rendering:geometricPrecision; image-rendering:optimizeQuality; fill-rule:evenodd; clip-rule:evenodd" xmlns:xlink="http://www.w3.org/1999/xlink">
<g><path style="opacity:0.978" fill="#020000" d="M 127.5,-0.5 C 146.833,-0.5 166.167,-0.5 185.5,-0.5C 189.811,1.6467 192.978,4.98004 195,9.5C 195.667,21.1667 195.667,32.8333 195,44.5C 193.028,48.9715 189.862,52.3049 185.5,54.5C 188.395,65.0157 192.562,75.0157 198,84.5C 212.506,108.842 226.506,133.509 240,158.5C 244.554,169.382 247.22,180.716 248,192.5C 248.667,228.167 248.667,263.833 248,299.5C 243.902,322.252 240.402,345.085 237.5,368C 238.078,380.559 240.578,392.725 245,404.5C 252.792,437.608 247.792,468.608 230,497.5C 224.995,504.351 218.495,509.018 210.5,511.5C 200.167,511.5 189.833,511.5 179.5,511.5C 174.825,509.34 170.825,506.174 167.5,502C 160.167,501.333 152.833,501.333 145.5,502C 141.812,506.165 137.478,509.332 132.5,511.5C 122.167,511.5 111.833,511.5 101.5,511.5C 91.3894,507.896 83.8894,501.229 79,491.5C 66.1532,468.425 61.4865,443.758 65,417.5C 66.8456,406.63 69.5123,395.963 73,385.5C 75,373.5 75,361.5 73,349.5C 70.3333,334.167 67.6667,318.833 65,303.5C 64.3333,264.5 64.3333,225.5 65,186.5C 66.2644,176.442 68.931,166.775 73,157.5C 89.3333,128.167 105.667,98.8333 122,69.5C 123.601,64.8642 125.101,60.1975 126.5,55.5C 121.662,52.4805 118.495,48.1471 117,42.5C 116.333,32.1667 116.333,21.8333 117,11.5C 118.621,5.72036 122.121,1.72036 127.5,-0.5 Z"/></g>
<g><path style="opacity:1" fill="#494155" d="M 132.5,14.5 C 148.5,14.5 164.5,14.5 180.5,14.5C 180.5,22.8333 180.5,31.1667 180.5,39.5C 164.5,39.5 148.5,39.5 132.5,39.5C 132.5,31.1667 132.5,22.8333 132.5,14.5 Z"/></g>
<g><path style="opacity:1" fill="#d3dcd8" d="M 181.5,87.5 C 164.658,87.8298 147.992,87.4965 131.5,86.5C 136.358,76.2591 140.025,65.5924 142.5,54.5C 151.506,54.3336 160.506,54.5002 169.5,55C 172.414,66.2417 176.414,77.075 181.5,87.5 Z"/></g>
<g><path style="opacity:1" fill="#99a09d" d="M 131.5,86.5 C 147.992,87.4965 164.658,87.8298 181.5,87.5C 173.91,88.181 165.577,88.5144 156.5,88.5C 147.833,88.1667 139.167,87.8333 130.5,87.5C 130.624,86.8933 130.957,86.56 131.5,86.5 Z"/></g>
<g><path style="opacity:1" fill="#762323" d="M 144.5,103.5 C 155.642,123.779 166.809,144.112 178,164.5C 180.428,170.281 181.928,176.281 182.5,182.5C 166.325,182.17 150.325,182.504 134.5,183.5C 131.606,184.953 129.94,187.286 129.5,190.5C 122.833,190.5 116.167,190.5 109.5,190.5C 109.101,186.266 106.768,183.766 102.5,183C 95.5079,182.5 88.5079,182.334 81.5,182.5C 83.0376,174.054 85.871,166.054 90,158.5C 100.333,140.5 110.667,122.5 121,104.5C 128.747,103.518 136.58,103.185 144.5,103.5 Z"/></g>
<g><path style="opacity:1" fill="#671717" d="M 144.5,103.5 C 160.181,103.167 175.848,103.501 191.5,104.5C 203.968,125.471 215.801,146.805 227,168.5C 228.684,172.716 229.851,177.049 230.5,181.5C 214.675,182.496 198.675,182.83 182.5,182.5C 181.928,176.281 180.428,170.281 178,164.5C 166.809,144.112 155.642,123.779 144.5,103.5 Z"/></g>
<g><path style="opacity:1" fill="#280a0a" d="M 230.5,181.5 C 231.043,181.56 231.376,181.893 231.5,182.5C 199.174,183.5 166.84,183.833 134.5,183.5C 150.325,182.504 166.325,182.17 182.5,182.5C 198.675,182.83 214.675,182.496 230.5,181.5 Z"/></g>
<g><path style="opacity:1" fill="#f94f29" d="M 109.5,190.5 C 116.167,190.5 122.833,190.5 129.5,190.5C 130.054,194.055 132.054,196.388 135.5,197.5C 151.658,198.496 167.991,198.83 184.5,198.5C 184.5,201.167 184.5,203.833 184.5,206.5C 177.945,206.444 171.612,207.611 165.5,210C 157.57,214.27 149.903,218.936 142.5,224C 133.946,226.875 125.28,227.209 116.5,225C 108.997,221.418 101.997,217.085 95.5,212C 90.9808,209.993 86.3141,208.493 81.5,207.5C 80.5975,204.609 80.2641,201.609 80.5,198.5C 88.0191,198.825 95.3524,198.492 102.5,197.5C 106.5,196.833 108.833,194.5 109.5,190.5 Z"/></g>
<g><path style="opacity:1" fill="#8f2d17" d="M 102.5,197.5 C 95.3524,198.492 88.0191,198.825 80.5,198.5C 80.2641,201.609 80.5975,204.609 81.5,207.5C 79.5977,204.663 78.931,201.329 79.5,197.5C 87.1667,197.5 94.8333,197.5 102.5,197.5 Z"/></g>
<g><path style="opacity:1" fill="#d82b14" d="M 135.5,197.5 C 167.833,197.5 200.167,197.5 232.5,197.5C 232.5,206.833 232.5,216.167 232.5,225.5C 228.895,225.201 225.561,224.035 222.5,222C 217.004,218.084 211.337,214.418 205.5,211C 198.723,208.411 191.723,206.911 184.5,206.5C 184.5,203.833 184.5,201.167 184.5,198.5C 167.991,198.83 151.658,198.496 135.5,197.5 Z"/></g>
<g><path style="opacity:1" fill="#facd2f" d="M 176.5,222.5 C 179.167,222.5 181.833,222.5 184.5,222.5C 184.5,231.167 184.5,239.833 184.5,248.5C 177.945,248.444 171.612,249.611 165.5,252C 157.57,256.27 149.903,260.936 142.5,266C 133.946,268.875 125.28,269.209 116.5,267C 108.997,263.418 101.997,259.085 95.5,254C 90.4057,251.579 85.0723,250.079 79.5,249.5C 79.1685,240.475 79.5018,231.475 80.5,222.5C 83.6731,223.21 86.6731,224.377 89.5,226C 115.119,246.515 140.786,246.515 166.5,226C 169.605,224.132 172.938,222.965 176.5,222.5 Z"/></g>
<g><path style="opacity:1" fill="#e9b71a" d="M 176.5,222.5 C 183.52,220.935 190.52,221.435 197.5,224C 204.1,227.605 210.434,231.605 216.5,236C 221.74,238.466 227.073,240.3 232.5,241.5C 232.826,250.349 232.493,259.016 231.5,267.5C 228.309,266.908 225.309,265.741 222.5,264C 217.004,260.084 211.337,256.418 205.5,253C 198.723,250.411 191.723,248.911 184.5,248.5C 184.5,239.833 184.5,231.167 184.5,222.5C 181.833,222.5 179.167,222.5 176.5,222.5 Z"/></g>
<g><path style="opacity:1" fill="#392d07" d="M 232.5,241.5 C 233.822,250.342 233.822,259.342 232.5,268.5C 231.893,268.376 231.56,268.043 231.5,267.5C 232.493,259.016 232.826,250.349 232.5,241.5 Z"/></g>
<g><path style="opacity:0.977" fill="#010000" d="M 414.5,511.5 C 383.5,511.5 352.5,511.5 321.5,511.5C 315.093,508.922 310.926,504.255 309,497.5C 309.336,486.138 310.336,474.804 312,463.5C 313.479,439.665 312.146,415.998 308,392.5C 301.847,368.068 296.847,343.401 293,318.5C 290.415,298.81 289.748,279.143 291,259.5C 292.002,255.32 294.502,252.486 298.5,251C 345.167,250.333 391.833,250.333 438.5,251C 442.529,253.022 445.029,256.188 446,260.5C 447.534,288.09 445.534,315.423 440,342.5C 433.329,368.188 428.329,394.188 425,420.5C 423.25,444.419 424.417,468.252 428.5,492C 427.822,501.491 423.155,507.991 414.5,511.5 Z"/></g>
<g><path style="opacity:1" fill="#f84e29" d="M 176.5,264.5 C 179.167,264.5 181.833,264.5 184.5,264.5C 184.5,272.5 184.5,280.5 184.5,288.5C 149.5,288.5 114.5,288.5 79.5,288.5C 79.5,280.5 79.5,272.5 79.5,264.5C 83.0615,264.965 86.3949,266.132 89.5,268C 115.126,288.56 140.793,288.56 166.5,268C 169.605,266.132 172.938,264.965 176.5,264.5 Z"/></g>
<g><path style="opacity:1" fill="#d02b14" d="M 176.5,264.5 C 185.985,262.245 194.985,263.745 203.5,269C 211.647,276.74 221.314,281.24 232.5,282.5C 232.5,284.833 232.5,287.167 232.5,289.5C 181.331,289.832 130.331,289.499 79.5,288.5C 114.5,288.5 149.5,288.5 184.5,288.5C 184.5,280.5 184.5,272.5 184.5,264.5C 181.833,264.5 179.167,264.5 176.5,264.5 Z"/></g>
<g><path style="opacity:1" fill="#a5aeaa" d="M 430.5,265.5 C 430.5,265.833 430.5,266.167 430.5,266.5C 389.167,266.5 347.833,266.5 306.5,266.5C 306.802,269.059 306.468,271.393 305.5,273.5C 305.5,270.833 305.5,268.167 305.5,265.5C 347.167,265.5 388.833,265.5 430.5,265.5 Z"/></g>
<g><path style="opacity:1" fill="#dbe7e2" d="M 430.5,266.5 C 430.5,269.833 430.5,273.167 430.5,276.5C 404.995,276.169 379.661,276.502 354.5,277.5C 350.907,278.43 349.241,280.763 349.5,284.5C 342.5,284.5 335.5,284.5 328.5,284.5C 328.556,281.439 327.222,279.272 324.5,278C 318.175,277.5 311.842,277.334 305.5,277.5C 305.5,276.167 305.5,274.833 305.5,273.5C 306.468,271.393 306.802,269.059 306.5,266.5C 347.833,266.5 389.167,266.5 430.5,266.5 Z"/></g>
<g><path style="opacity:1" fill="#6f7472" d="M 430.5,265.5 C 431.483,269.298 431.817,273.298 431.5,277.5C 405.833,277.5 380.167,277.5 354.5,277.5C 379.661,276.502 404.995,276.169 430.5,276.5C 430.5,273.167 430.5,269.833 430.5,266.5C 430.5,266.167 430.5,265.833 430.5,265.5 Z"/></g>
<g><path style="opacity:1" fill="#762323" d="M 328.5,284.5 C 335.5,284.5 342.5,284.5 349.5,284.5C 349.327,288.17 350.993,290.67 354.5,292C 363.827,292.5 373.161,292.666 382.5,292.5C 381.325,306.911 379.492,321.244 377,335.5C 371.204,360.347 366.204,385.347 362,410.5C 360.66,429.473 360.16,448.473 360.5,467.5C 349.5,467.5 338.5,467.5 327.5,467.5C 328.375,452.174 328.541,436.841 328,421.5C 326.437,408.099 324.437,394.766 322,381.5C 313.814,352.363 308.647,322.696 306.5,292.5C 311.844,292.666 317.177,292.499 322.5,292C 326.531,291.097 328.531,288.597 328.5,284.5 Z"/></g>
<g><path style="opacity:1" fill="#671717" d="M 382.5,292.5 C 398.5,292.5 414.5,292.5 430.5,292.5C 429.316,309.288 427.149,325.955 424,342.5C 419.037,362.353 414.704,382.353 411,402.5C 408.227,424.104 407.727,445.771 409.5,467.5C 393.167,467.5 376.833,467.5 360.5,467.5C 360.16,448.473 360.66,429.473 362,410.5C 366.204,385.347 371.204,360.347 377,335.5C 379.492,321.244 381.325,306.911 382.5,292.5 Z"/></g>
<g><path style="opacity:1" fill="#762323" d="M 183.5,304.5 C 179.086,325.651 175.753,346.984 173.5,368.5C 175.067,383.502 178.234,398.169 183,412.5C 187.218,438.477 183.385,463.143 171.5,486.5C 161.856,485.473 152.189,485.307 142.5,486C 136.812,487.849 132.145,491.183 128.5,496C 120.833,496.667 113.167,496.667 105.5,496C 102.241,494.789 99.4075,492.956 97,490.5C 81.8673,467.294 76.5339,441.96 81,414.5C 86.3889,399.613 89.5555,384.28 90.5,368.5C 90.2107,361.818 89.7107,355.151 89,348.5C 85.9581,333.915 83.4581,319.249 81.5,304.5C 115.5,304.5 149.5,304.5 183.5,304.5 Z"/></g>
<g><path style="opacity:1" fill="#671717" d="M 183.5,304.5 C 199.5,304.5 215.5,304.5 231.5,304.5C 227.143,325.141 224.143,345.974 222.5,367C 222.521,373.54 223.021,380.04 224,386.5C 226.875,397.457 229.542,408.457 232,419.5C 235.124,444.326 230.124,467.326 217,488.5C 214.795,491.04 212.295,493.207 209.5,495C 201.245,496.572 192.911,496.905 184.5,496C 180.524,492.168 176.19,489.001 171.5,486.5C 183.385,463.143 187.218,438.477 183,412.5C 178.234,398.169 175.067,383.502 173.5,368.5C 175.753,346.984 179.086,325.651 183.5,304.5 Z"/></g>
<g><path style="opacity:1" fill="#ddebe5" d="M 342.5,482.5 C 349.313,483.491 356.313,483.825 363.5,483.5C 363.469,487.484 364.136,491.317 365.5,495C 352.504,495.5 339.504,495.667 326.5,495.5C 325.883,495.389 325.383,495.056 325,494.5C 324.24,490.775 324.407,487.108 325.5,483.5C 331.128,482.505 336.794,482.171 342.5,482.5 Z"/></g>
<g><path style="opacity:1" fill="#cdd6d2" d="M 342.5,482.5 C 365.5,482.5 388.5,482.5 411.5,482.5C 411.942,484.972 412.275,487.472 412.5,490C 412.695,492.352 412.028,494.352 410.5,496C 382.33,496.83 354.33,496.664 326.5,495.5C 339.504,495.667 352.504,495.5 365.5,495C 364.136,491.317 363.469,487.484 363.5,483.5C 356.313,483.825 349.313,483.491 342.5,482.5 Z"/></g>
</svg>
