<?xml version="1.0" encoding="UTF-8"?>
<!DOCTYPE svg PUBLIC "-//W3C//DTD SVG 1.1//EN" "http://www.w3.org/Graphics/SVG/1.1/DTD/svg11.dtd">
<svg xmlns="http://www.w3.org/2000/svg" version="1.1" width="256px" height="256px" style="shape-rendering:geometricPrecision; text-rendering:geometricPrecision; image-rendering:optimizeQuality; fill-rule:evenodd; clip-rule:evenodd" xmlns:xlink="http://www.w3.org/1999/xlink">
<g><path style="opacity:0.948" fill="#060200" d="M 255.5,56.5 C 255.5,59.8333 255.5,63.1667 255.5,66.5C 252.012,72.424 246.678,75.5907 239.5,76C 234.08,77.7884 230.247,81.2884 228,86.5C 225.948,105.552 215.448,116.385 196.5,119C 193.241,120.211 190.408,122.044 188,124.5C 184.544,132.759 181.211,141.092 178,149.5C 175.079,153.092 171.579,155.925 167.5,158C 161.833,159.667 156.167,161.333 150.5,163C 143.161,168.172 139.327,175.339 139,184.5C 133.324,197.157 123.491,203.99 109.5,205C 106.217,206.561 103.383,208.727 101,211.5C 98.3346,219.483 95.668,227.483 93,235.5C 83.4533,251.681 69.9533,256.514 52.5,250C 33.9362,232.937 16.2695,215.103 -0.5,196.5C -0.5,193.167 -0.5,189.833 -0.5,186.5C 3.31055,181.245 8.31055,177.412 14.5,175C 16.4521,172.926 18.2854,170.759 20,168.5C 23.2101,161.454 25.5434,154.121 27,146.5C 32.8276,136.329 41.6609,130.829 53.5,130C 57.7924,128.604 61.2924,126.104 64,122.5C 66.5273,116.348 68.5273,110.015 70,103.5C 72.0751,99.421 74.9084,95.921 78.5,93C 85.1332,89.5911 92.1332,87.2577 99.5,86C 102.295,84.2068 104.795,82.0402 107,79.5C 109.375,73.3022 111.375,66.9688 113,60.5C 116.223,54.2767 121.057,49.7767 127.5,47C 136.43,46.3661 143.93,42.8661 150,36.5C 152.375,30.3022 154.375,23.9688 156,17.5C 162.67,6.16227 172.67,0.828938 186,1.5C 193.268,1.70013 200.101,3.53347 206.5,7C 223.731,22.7301 240.064,39.2301 255.5,56.5 Z"/></g>
<g><path style="opacity:1" fill="#cd5221" d="M 178.5,10.5 C 181.518,10.3354 184.518,10.502 187.5,11C 191.5,15 195.5,19 199.5,23C 198.944,23.3826 198.611,23.8826 198.5,24.5C 189.258,26.2046 182.425,31.2046 178,39.5C 176.333,45.1667 174.667,50.8333 173,56.5C 167.809,63.8478 160.643,67.6811 151.5,68C 142.241,71.5915 136.075,78.0915 133,87.5C 131.746,102.419 123.58,110.252 108.5,111C 99.2413,114.591 93.0746,121.091 90,130.5C 89.5151,140.646 84.6818,147.813 75.5,152C 63.5708,152.607 54.7375,158.107 49,168.5C 47.3716,188.105 37.205,200.272 18.5,205C 15,201.5 11.5,198 8,194.5C 7.33333,192.5 7.33333,190.5 8,188.5C 23.7166,180.764 32.3832,168.097 34,150.5C 38.4949,142.662 45.3283,138.495 54.5,138C 61.3592,136.144 66.8592,132.311 71,126.5C 73.6256,120.38 75.6256,114.047 77,107.5C 82.4223,99.0322 90.2556,94.5322 100.5,94C 107.606,91.2266 112.773,86.3933 116,79.5C 116.601,70.0005 120.434,62.1672 127.5,56C 133.759,53.8504 140.092,51.8504 146.5,50C 152.373,47.0922 156.54,42.5922 159,36.5C 159.601,27.0005 163.434,19.1672 170.5,13C 172.909,11.2932 175.575,10.4598 178.5,10.5 Z"/></g>
<g><path style="opacity:1" fill="#bc4116" d="M 178.5,10.5 C 193.728,8.10582 205.728,13.4392 214.5,26.5C 211.14,26.6159 207.807,26.9492 204.5,27.5C 203.313,25.0246 201.313,24.0246 198.5,24.5C 198.611,23.8826 198.944,23.3826 199.5,23C 195.5,19 191.5,15 187.5,11C 184.518,10.502 181.518,10.3354 178.5,10.5 Z"/></g>
<g><path style="opacity:1" fill="#e19310" d="M 214.5,26.5 C 220.631,32.1305 226.631,37.9638 232.5,44C 228.809,44.4196 225.142,44.9196 221.5,45.5C 216.167,39.5 210.5,33.8333 204.5,28.5C 204.5,28.1667 204.5,27.8333 204.5,27.5C 207.807,26.9492 211.14,26.6159 214.5,26.5 Z"/></g>
<g><path style="opacity:1" fill="#f7b43f" d="M 204.5,28.5 C 210.5,33.8333 216.167,39.5 221.5,45.5C 205.8,48.7064 197.3,58.373 196,74.5C 193.406,81.4276 188.573,85.9276 181.5,88C 163.508,90.664 153.674,101.164 152,119.5C 150.533,122.266 148.7,124.766 146.5,127C 138.578,130.123 130.578,133.123 122.5,136C 114.697,143.104 110.197,151.938 109,162.5C 107.533,165.266 105.7,167.766 103.5,170C 95.4141,172.791 87.4141,175.791 79.5,179C 77.3333,181.167 75.1667,183.333 73,185.5C 69.771,194.511 66.4377,203.511 63,212.5C 59.6325,216.203 55.9658,219.536 52,222.5C 51.51,223.793 51.3433,225.127 51.5,226.5C 48.8333,227.5 46.1667,228.5 43.5,229.5C 37.1877,223.854 31.1877,217.854 25.5,211.5C 33.2875,208.193 40.1208,203.526 46,197.5C 50.778,190.166 53.778,182.166 55,173.5C 57.1667,167.333 61.3333,163.167 67.5,161C 85.6388,158.861 95.8054,148.695 98,130.5C 102.383,121.046 109.883,116.213 120.5,116C 133.315,110.892 140.148,101.392 141,87.5C 142.788,82.0802 146.288,78.2468 151.5,76C 162.366,75.2806 171.199,70.7806 178,62.5C 181.028,55.2744 183.694,47.9411 186,40.5C 190.268,35.1183 195.768,31.9516 202.5,31C 203.381,30.2917 204.047,29.4584 204.5,28.5 Z"/></g>
<g><path style="opacity:1" fill="#bd4115" d="M 228.5,52.5 C 236.16,49.6646 242.327,51.6646 247,58.5C 247.667,60.5 247.667,62.5 247,64.5C 241.067,66.5383 235.234,69.0383 229.5,72C 227.333,74.1667 225.167,76.3333 223,78.5C 220.124,86.5423 217.124,94.5423 214,102.5C 208.574,107.647 202.074,110.481 194.5,111C 181.683,116.115 174.85,125.615 174,139.5C 172.212,144.92 168.712,148.753 163.5,151C 145.189,152.648 134.689,162.481 132,180.5C 129.922,185.568 126.755,189.734 122.5,193C 115.349,194.871 108.349,197.205 101.5,200C 92.5481,207.738 87.7148,217.571 87,229.5C 80.9752,241.591 71.4752,246.425 58.5,244C 56.0038,242.669 54.0038,240.836 52.5,238.5C 64.251,239.768 73.0843,235.434 79,225.5C 80.5929,209.792 88.0929,197.958 101.5,190C 107.211,188.439 112.878,186.772 118.5,185C 120.378,183.457 121.878,181.624 123,179.5C 124.555,164.873 131.722,154.04 144.5,147C 150.254,145.584 155.921,143.917 161.5,142C 163.378,140.457 164.878,138.624 166,136.5C 167.462,121.387 174.962,110.553 188.5,104C 193.876,102.425 199.209,100.758 204.5,99C 205.667,97.8333 206.833,96.6667 208,95.5C 209.964,77.8741 219.13,65.7074 235.5,59C 233.297,56.6278 230.963,54.4611 228.5,52.5 Z"/></g>
<g><path style="opacity:1" fill="#cd5221" d="M 228.5,52.5 C 230.963,54.4611 233.297,56.6278 235.5,59C 219.13,65.7074 209.964,77.8741 208,95.5C 206.833,96.6667 205.667,97.8333 204.5,99C 199.209,100.758 193.876,102.425 188.5,104C 174.962,110.553 167.462,121.387 166,136.5C 164.878,138.624 163.378,140.457 161.5,142C 155.921,143.917 150.254,145.584 144.5,147C 131.722,154.04 124.555,164.873 123,179.5C 121.878,181.624 120.378,183.457 118.5,185C 112.878,186.772 107.211,188.439 101.5,190C 88.0929,197.958 80.5929,209.792 79,225.5C 73.0843,235.434 64.251,239.768 52.5,238.5C 49.1667,235.833 46.1667,232.833 43.5,229.5C 46.1667,228.5 48.8333,227.5 51.5,226.5C 52.8381,228.113 54.5048,228.613 56.5,228C 68.7237,220.737 75.2237,209.904 76,195.5C 78.1055,189.728 81.9389,185.562 87.5,183C 106.257,181.241 116.757,171.075 119,152.5C 120.776,149.059 122.943,145.892 125.5,143C 133.455,139.909 141.455,136.909 149.5,134C 157.266,127.721 161.433,119.555 162,109.5C 164.167,103.333 168.333,99.1667 174.5,97C 192.71,94.7901 202.877,84.6234 205,66.5C 209.656,56.5858 217.489,51.9192 228.5,52.5 Z"/></g>
</svg>
