<?xml version="1.0" encoding="UTF-8"?>
<!DOCTYPE svg PUBLIC "-//W3C//DTD SVG 1.1//EN" "http://www.w3.org/Graphics/SVG/1.1/DTD/svg11.dtd">
<svg xmlns="http://www.w3.org/2000/svg" version="1.1" width="512px" height="512px" style="shape-rendering:geometricPrecision; text-rendering:geometricPrecision; image-rendering:optimizeQuality; fill-rule:evenodd; clip-rule:evenodd" xmlns:xlink="http://www.w3.org/1999/xlink">
<g><path style="opacity:0.971" fill="#010100" d="M 244.5,163.5 C 242.525,162.354 241.025,160.687 240,158.5C 240.097,148.034 239.097,137.701 237,127.5C 233.659,119.798 228.659,113.464 222,108.5C 206.819,119.886 201.486,134.886 206,153.5C 209.123,163.62 214.957,171.787 223.5,178C 228.252,178.773 232.919,178.607 237.5,177.5C 284.835,177.333 332.168,177.5 379.5,178C 389.248,180.082 395.415,185.916 398,195.5C 398.5,246.499 398.667,297.499 398.5,348.5C 430.502,348.333 462.502,348.5 494.5,349C 502.944,351.283 508.611,356.45 511.5,364.5C 511.5,369.167 511.5,373.833 511.5,378.5C 509.11,385.393 504.443,390.226 497.5,393C 486.224,394.243 474.891,394.91 463.5,395C 456.388,403.118 448.388,410.118 439.5,416C 435.943,417.408 432.276,418.408 428.5,419C 312.833,419.667 197.167,419.667 81.5,419C 74.7754,417.873 68.7754,415.207 63.5,411C 58.1667,405.667 52.8333,400.333 47.5,395C 36.1094,394.91 24.7761,394.243 13.5,393C 6.55693,390.226 1.89027,385.393 -0.5,378.5C -0.5,373.833 -0.5,369.167 -0.5,364.5C 2.38949,356.45 8.05616,351.283 16.5,349C 48.4983,348.5 80.4983,348.333 112.5,348.5C 112.333,297.499 112.5,246.499 113,195.5C 114.975,187.523 119.808,182.023 127.5,179C 140.431,177.723 153.431,177.057 166.5,177C 151.823,160.124 147.656,140.957 154,119.5C 154.903,118.299 156.069,117.465 157.5,117C 169.865,113.434 182.031,113.934 194,118.5C 199.406,107.432 207.24,98.5986 217.5,92C 223.204,90.685 228.204,92.0184 232.5,96C 251.398,113.026 258.565,134.193 254,159.5C 251.85,162.963 248.684,164.296 244.5,163.5 Z"/></g>
<g><path style="opacity:0.997" fill="#4dde65" d="M 244.5,163.5 C 242.694,168.446 240.361,173.112 237.5,177.5C 232.919,178.607 228.252,178.773 223.5,178C 214.957,171.787 209.123,163.62 206,153.5C 201.486,134.886 206.819,119.886 222,108.5C 228.659,113.464 233.659,119.798 237,127.5C 239.097,137.701 240.097,148.034 240,158.5C 241.025,160.687 242.525,162.354 244.5,163.5 Z"/></g>
<g><path style="opacity:1" fill="#5ded72" d="M 166.5,130.5 C 171.844,130.334 177.177,130.501 182.5,131C 184.762,131.642 186.929,132.475 189,133.5C 188.201,149.647 192.368,164.314 201.5,177.5C 199.926,178.631 198.259,178.798 196.5,178C 174.763,169.713 164.763,153.88 166.5,130.5 Z"/></g>
<g><path style="opacity:1" fill="#fef8ea" d="M 133.5,193.5 C 209.167,193.5 284.833,193.5 360.5,193.5C 360.667,234.168 360.5,274.835 360,315.5C 358.5,321 355,324.5 349.5,326C 275.834,326.5 202.167,326.667 128.5,326.5C 128.5,283.833 128.5,241.167 128.5,198.5C 129.167,195.833 130.833,194.167 133.5,193.5 Z"/></g>
<g><path style="opacity:1" fill="#c9c3b6" d="M 133.5,193.5 C 173.999,192.833 214.665,192.5 255.5,192.5C 296.916,192.339 338.249,192.839 379.5,194C 381.049,195.214 382.215,196.714 383,198.5C 383.667,248.5 383.667,298.5 383,348.5C 298.237,349.665 213.403,349.832 128.5,349C 127.168,298.736 127.168,248.569 128.5,198.5C 128.5,241.167 128.5,283.833 128.5,326.5C 202.167,326.667 275.834,326.5 349.5,326C 355,324.5 358.5,321 360,315.5C 360.5,274.835 360.667,234.168 360.5,193.5C 284.833,193.5 209.167,193.5 133.5,193.5 Z"/></g>
<g><path style="opacity:1" fill="#0a0a09" d="M 206.5,206.5 C 213.657,206.155 216.824,209.488 216,216.5C 211.333,223.167 206.667,223.167 202,216.5C 201.077,212.017 202.577,208.683 206.5,206.5 Z"/></g>
<g><path style="opacity:1" fill="#0a0a09" d="M 336.5,206.5 C 343.657,206.155 346.824,209.488 346,216.5C 341.333,223.167 336.667,223.167 332,216.5C 331.077,212.017 332.577,208.683 336.5,206.5 Z"/></g>
<g><path style="opacity:1" fill="#0a0a09" d="M 156.5,236.5 C 163.657,236.155 166.824,239.488 166,246.5C 161.333,253.167 156.667,253.167 152,246.5C 151.077,242.017 152.577,238.683 156.5,236.5 Z"/></g>
<g><path style="opacity:1" fill="#0a0a09" d="M 206.5,267.5 C 213.657,267.155 216.824,270.488 216,277.5C 211.333,284.167 206.667,284.167 202,277.5C 201.077,273.017 202.577,269.683 206.5,267.5 Z"/></g>
<g><path style="opacity:1" fill="#0a0a09" d="M 336.5,296.5 C 343.657,296.155 346.824,299.488 346,306.5C 341.333,313.167 336.667,313.167 332,306.5C 331.077,302.017 332.577,298.683 336.5,296.5 Z"/></g>
<g><path style="opacity:1" fill="#c6745b" d="M 368.5,385.5 C 292.238,386.497 215.904,386.83 139.5,386.5C 139.22,383.713 137.887,381.547 135.5,380C 97.1667,379.667 58.8333,379.333 20.5,379C 12.9112,374.471 12.5779,369.471 19.5,364C 176.5,363.333 333.5,363.333 490.5,364C 496.632,366.625 497.966,370.792 494.5,376.5C 493.335,377.584 492.002,378.417 490.5,379C 450.833,379.333 411.167,379.667 371.5,380C 369.84,381.488 368.84,383.321 368.5,385.5 Z"/></g>
<g><path style="opacity:1" fill="#b36450" d="M 368.5,385.5 C 368.146,388.961 369.479,391.461 372.5,393C 395.833,393.333 419.167,393.667 442.5,394C 438.775,398.526 434.108,401.526 428.5,403C 312.5,403.667 196.5,403.667 80.5,403C 75.7845,400.973 71.7845,397.973 68.5,394C 90.8333,393.667 113.167,393.333 135.5,393C 137.734,391.362 139.067,389.195 139.5,386.5C 215.904,386.83 292.238,386.497 368.5,385.5 Z"/></g>
</svg>
