<?xml version="1.0" encoding="UTF-8"?>
<!DOCTYPE svg PUBLIC "-//W3C//DTD SVG 1.1//EN" "http://www.w3.org/Graphics/SVG/1.1/DTD/svg11.dtd">
<svg xmlns="http://www.w3.org/2000/svg" version="1.1" width="512px" height="512px" style="shape-rendering:geometricPrecision; text-rendering:geometricPrecision; image-rendering:optimizeQuality; fill-rule:evenodd; clip-rule:evenodd" xmlns:xlink="http://www.w3.org/1999/xlink">
<g><path style="opacity:0.981" fill="#010100" d="M 248.5,-0.5 C 253.5,-0.5 258.5,-0.5 263.5,-0.5C 276.297,5.7514 281.797,16.0847 280,30.5C 273.321,52.5785 274.321,74.2452 283,95.5C 298.707,84.969 315.873,81.469 334.5,85C 346.129,88.1572 357.795,91.1572 369.5,94C 376.458,95.064 383.458,95.7306 390.5,96C 398.8,97.4267 401.966,102.26 400,110.5C 396.759,117.668 393.093,124.335 389,130.5C 418.972,146.139 441.972,168.806 458,198.5C 458.867,203.098 457.7,207.098 454.5,210.5C 449.901,212.28 445.567,211.78 441.5,209C 428.619,188.12 412.286,170.453 392.5,156C 385.881,151.607 378.714,148.441 371,146.5C 360.689,152.162 349.856,156.662 338.5,160C 337.572,160.388 336.905,161.055 336.5,162C 342.71,185.53 341.543,208.696 333,231.5C 330.119,236.19 325.952,238.023 320.5,237C 306.313,228.408 292.646,219.075 279.5,209C 271.922,201.926 264.922,194.426 258.5,186.5C 235.454,194.737 215.454,207.57 198.5,225C 192.197,227.984 187.363,226.484 184,220.5C 175.441,201.545 173.274,181.879 177.5,161.5C 164.663,158.999 152.663,154.332 141.5,147.5C 130.278,151.443 119.944,156.943 110.5,164C 103.5,170.333 96.5,176.667 89.5,183C 85.0999,185.284 81.0999,184.784 77.5,181.5C 73.4805,176.215 73.6471,170.881 78,165.5C 91.0875,152.742 105.587,141.908 121.5,133C 115.814,127.124 110.98,120.624 107,113.5C 105.574,108.243 106.741,103.743 110.5,100C 120.414,98.65 130.414,97.65 140.5,97C 154.469,94.4496 168.469,92.1162 182.5,90C 194.78,88.6021 206.78,89.7688 218.5,93.5C 218.833,92.1667 219.167,90.8333 219.5,89.5C 216.263,68.9842 217.096,48.6508 222,28.5C 226.248,14.4279 235.081,4.76126 248.5,-0.5 Z"/></g>
<g><path style="opacity:1" fill="#85da5e" d="M 252.5,19.5 C 257.578,18.7452 259.911,20.9118 259.5,26C 250.634,65.13 257.3,101.463 279.5,135C 287.981,137.858 292.981,134.858 294.5,126C 293.879,122.253 292.546,118.753 290.5,115.5C 301.763,105.933 314.763,102.433 329.5,105C 344.011,109.281 358.678,112.948 373.5,116C 357.723,132.555 338.39,142.222 315.5,145C 311.337,147.821 309.837,151.655 311,156.5C 316.547,164.27 319.881,172.937 321,182.5C 321.621,192.225 321.121,201.891 319.5,211.5C 298.813,201.987 282.646,187.32 271,167.5C 268.74,165.523 266.073,164.523 263,164.5C 238.965,171.766 217.131,183.1 197.5,198.5C 194.197,183.538 195.197,168.872 200.5,154.5C 200.307,149.138 197.641,145.638 192.5,144C 170.912,141.702 152.245,133.202 136.5,118.5C 152.753,115.236 169.087,112.402 185.5,110C 199.566,108.641 212.733,111.475 225,118.5C 227.872,128.738 231.705,138.572 236.5,148C 245,152.912 250.666,150.745 253.5,141.5C 250.106,130.819 246.606,120.152 243,109.5C 238.383,86.3167 237.383,62.9834 240,39.5C 241.929,31.282 246.096,24.6153 252.5,19.5 Z"/></g>
<g><path style="opacity:1" fill="#fc4747" d="M 454.5,210.5 C 456.444,214.723 458.111,219.056 459.5,223.5C 451.733,230.167 451.733,236.667 459.5,243C 462.146,243.497 464.813,243.664 467.5,243.5C 468.015,245.894 468.681,248.228 469.5,250.5C 466.13,251.432 463.63,253.432 462,256.5C 461.815,264.215 462.482,271.882 464,279.5C 467.387,325.334 455.387,366.668 428,403.5C 378.548,465.234 314.048,494.401 234.5,491C 164.216,481.99 110.049,447.823 72,388.5C 42.5851,337.595 38.4184,284.595 59.5,229.5C 59.423,227.701 58.923,226.034 58,224.5C 56.2927,222.963 54.7927,221.296 53.5,219.5C 56.0903,214.651 58.4236,209.651 60.5,204.5C 65.6977,206.305 70.531,205.638 75,202.5C 76.4039,200.361 77.2372,198.028 77.5,195.5C 76.9556,192.084 75.6223,189.084 73.5,186.5C 74.803,184.858 76.1363,183.191 77.5,181.5C 81.0999,184.784 85.0999,185.284 89.5,183C 96.5,176.667 103.5,170.333 110.5,164C 119.944,156.943 130.278,151.443 141.5,147.5C 152.663,154.332 164.663,158.999 177.5,161.5C 173.274,181.879 175.441,201.545 184,220.5C 187.363,226.484 192.197,227.984 198.5,225C 215.454,207.57 235.454,194.737 258.5,186.5C 264.922,194.426 271.922,201.926 279.5,209C 292.646,219.075 306.313,228.408 320.5,237C 325.952,238.023 330.119,236.19 333,231.5C 341.543,208.696 342.71,185.53 336.5,162C 336.905,161.055 337.572,160.388 338.5,160C 349.856,156.662 360.689,152.162 371,146.5C 378.714,148.441 385.881,151.607 392.5,156C 412.286,170.453 428.619,188.12 441.5,209C 445.567,211.78 449.901,212.28 454.5,210.5 Z"/></g>
<g><path style="opacity:0.944" fill="#020000" d="M 73.5,186.5 C 75.6223,189.084 76.9556,192.084 77.5,195.5C 77.2372,198.028 76.4039,200.361 75,202.5C 70.531,205.638 65.6977,206.305 60.5,204.5C 57.1873,199.847 56.6873,194.847 59,189.5C 63.1367,185.458 67.9701,184.458 73.5,186.5 Z"/></g>
<g><path style="opacity:0.969" fill="#020000" d="M 53.5,219.5 C 54.7927,221.296 56.2927,222.963 58,224.5C 58.923,226.034 59.423,227.701 59.5,229.5C 38.4184,284.595 42.5851,337.595 72,388.5C 110.049,447.823 164.216,481.99 234.5,491C 314.048,494.401 378.548,465.234 428,403.5C 455.387,366.668 467.387,325.334 464,279.5C 462.482,271.882 461.815,264.215 462,256.5C 463.63,253.432 466.13,251.432 469.5,250.5C 475.308,249.652 479.142,251.985 481,257.5C 492.242,314.192 480.908,365.858 447,412.5C 403.523,469.663 346.023,502.663 274.5,511.5C 260.5,511.5 246.5,511.5 232.5,511.5C 145.818,499.923 82.6515,455.257 43,377.5C 20.2308,326 19.7308,274.334 41.5,222.5C 44.9594,219.769 48.9594,218.769 53.5,219.5 Z"/></g>
<g><path style="opacity:0.945" fill="#050101" d="M 467.5,243.5 C 464.813,243.664 462.146,243.497 459.5,243C 451.733,236.667 451.733,230.167 459.5,223.5C 470.252,222.43 474.752,227.43 473,238.5C 471.621,240.715 469.787,242.381 467.5,243.5 Z"/></g>
<g><path style="opacity:1" fill="#050101" d="M 361.5,415.5 C 371.513,415.011 375.68,419.677 374,429.5C 372.878,431.624 371.378,433.457 369.5,435C 351.279,448.78 331.279,459.447 309.5,467C 301.68,468.252 297.347,464.919 296.5,457C 296.557,454.272 297.557,451.939 299.5,450C 322.522,442.332 343.188,430.832 361.5,415.5 Z"/></g>
<g><path style="opacity:1" fill="#0d0302" d="M 275.5,454.5 C 286.915,454.413 290.749,459.746 287,470.5C 279.815,476.525 273.815,475.525 269,467.5C 268.483,461.868 270.649,457.535 275.5,454.5 Z"/></g>
</svg>
