<?xml version="1.0" encoding="UTF-8"?>
<!DOCTYPE svg PUBLIC "-//W3C//DTD SVG 1.1//EN" "http://www.w3.org/Graphics/SVG/1.1/DTD/svg11.dtd">
<svg xmlns="http://www.w3.org/2000/svg" version="1.1" width="512px" height="512px" style="shape-rendering:geometricPrecision; text-rendering:geometricPrecision; image-rendering:optimizeQuality; fill-rule:evenodd; clip-rule:evenodd" xmlns:xlink="http://www.w3.org/1999/xlink">
<g><path style="opacity:0.973" fill="#020200" d="M 131.5,-0.5 C 135.5,-0.5 139.5,-0.5 143.5,-0.5C 156.452,6.28627 166.285,16.2863 173,29.5C 175.667,34.8333 178.333,40.1667 181,45.5C 187.301,31.7186 195.467,19.2186 205.5,8C 209.557,4.64516 213.89,1.81182 218.5,-0.5C 222.833,-0.5 227.167,-0.5 231.5,-0.5C 239.785,3.98383 244.951,10.9838 247,20.5C 250.867,45.0081 249.867,69.3415 244,93.5C 237.774,121.892 227.107,148.226 212,172.5C 222,182.5 232,192.5 242,202.5C 240.616,187.903 240.282,173.236 241,158.5C 241.791,147.427 245.958,137.927 253.5,130C 263.445,124.771 272.778,125.771 281.5,133C 293.048,144.389 302.048,157.556 308.5,172.5C 315.068,158.776 323.402,146.276 333.5,135C 354.569,120.138 368.402,125.305 375,150.5C 379.511,198.608 370.178,243.942 347,286.5C 344.29,290.753 341.457,294.92 338.5,299C 348.667,309.167 358.833,319.333 369,329.5C 368.624,320.021 368.124,310.521 367.5,301C 367.265,288.708 369.431,276.875 374,265.5C 383.597,252.182 395.097,250.349 408.5,260C 420.405,271.584 429.571,285.084 436,300.5C 441.397,288.701 448.064,277.701 456,267.5C 461.971,259.694 469.804,255.027 479.5,253.5C 488.627,254.454 495.127,259.121 499,267.5C 503.02,278.469 504.853,289.803 504.5,301.5C 504.409,309.194 503.909,316.861 503,324.5C 501.828,328.837 498.994,330.837 494.5,330.5C 491.603,329.442 489.436,327.442 488,324.5C 488.218,316.341 488.718,308.174 489.5,300C 489.794,290.379 487.96,281.212 484,272.5C 482.883,270.876 481.383,269.876 479.5,269.5C 476.893,270.137 474.56,271.304 472.5,273C 459.431,287.297 450.097,303.797 444.5,322.5C 453.957,351.785 458.124,381.785 457,412.5C 462.447,403.94 467.114,394.94 471,385.5C 475.003,374.156 479.003,362.822 483,351.5C 485.565,349.821 488.398,349.154 491.5,349.5C 494.529,351.05 496.196,353.55 496.5,357C 490.716,382.061 480.716,405.227 466.5,426.5C 479.819,440.319 493.319,453.986 507,467.5C 508.546,470.592 510.046,473.592 511.5,476.5C 511.5,481.5 511.5,486.5 511.5,491.5C 507.833,501.167 501.167,507.833 491.5,511.5C 486.5,511.5 481.5,511.5 476.5,511.5C 473.592,510.046 470.592,508.546 467.5,507C 453.986,493.319 440.319,479.819 426.5,466.5C 379.314,496.63 327.981,508.13 272.5,501C 252.625,493.003 248.791,480.169 261,462.5C 272.562,451.3 285.729,442.467 300.5,436C 285.084,429.571 271.584,420.405 260,408.5C 250.35,395.091 252.184,383.591 265.5,374C 277.039,369.402 289.039,367.235 301.5,367.5C 310.853,368.154 320.186,368.654 329.5,369C 319.333,358.833 309.167,348.667 299,338.5C 269.425,358.141 236.925,370.307 201.5,375C 184.486,378.094 167.486,378.094 150.5,375C 139.385,373.379 131.552,367.546 127,357.5C 125.656,350.612 126.99,344.278 131,338.5C 134.833,333.333 139.333,328.833 144.5,325C 153.443,318.902 162.776,313.402 172.5,308.5C 157.521,302.098 144.354,293.098 133,281.5C 121.407,262.62 126.241,249.787 147.5,243C 156.223,241.073 165.056,240.24 174,240.5C 183.567,240.614 193.067,241.114 202.5,242C 192.319,231.652 181.986,221.486 171.5,211.5C 150.343,225.575 127.343,235.575 102.5,241.5C 98.8459,241.343 96.1793,239.676 94.5,236.5C 93.7046,232.406 95.038,229.239 98.5,227C 119.463,221.684 139.13,213.351 157.5,202C 141.783,203.065 126.116,202.398 110.5,200C 96.1294,197.26 81.9627,193.76 68,189.5C 50.8365,194.663 35.3365,202.83 21.5,214C 18.5429,217.116 16.2095,220.616 14.5,224.5C 16.4552,228.663 19.7885,231.163 24.5,232C 27.7895,232.882 31.1228,233.548 34.5,234C 46.1767,234.318 57.8434,234.318 69.5,234C 71.4641,235.451 72.7974,237.284 73.5,239.5C 74.1544,243.683 72.4877,246.516 68.5,248C 52.4337,250.262 36.4337,249.929 20.5,247C 10.9838,244.951 3.98383,239.785 -0.5,231.5C -0.5,227.167 -0.5,222.833 -0.5,218.5C 3.85321,210.641 9.51988,203.807 16.5,198C 25.6736,191.577 35.3403,185.91 45.5,181C 30.4248,174.91 17.2581,166.076 6,154.5C 3.28937,151.067 1.1227,147.4 -0.5,143.5C -0.5,139.5 -0.5,135.5 -0.5,131.5C 3.58276,123.26 10.2494,118.094 19.5,116C 34.0341,112.9 48.7008,111.9 63.5,113C 55.6573,102.467 49.4906,90.9665 45,78.5C 41.3693,68.9683 41.7026,59.6349 46,50.5C 52.3598,43.6143 60.1932,41.1143 69.5,43C 85.4933,46.7475 99.9933,53.5809 113,63.5C 111.819,48.6952 112.819,34.0285 116,19.5C 118.094,10.2494 123.26,3.58276 131.5,-0.5 Z"/></g>
<g><path style="opacity:1" fill="#cfe758" d="M 135.5,14.5 C 138.425,14.4598 141.091,15.2932 143.5,17C 151.204,24.0329 157.37,32.1996 162,41.5C 179.641,75.7266 187.974,112.06 187,150.5C 179.003,133.834 169.003,118.501 157,104.5C 148.667,96.1667 140.333,87.8333 132,79.5C 127.976,60.5193 127.643,41.5193 131,22.5C 132.259,19.6441 133.759,16.9774 135.5,14.5 Z"/></g>
<g><path style="opacity:1" fill="#c0d849" d="M 222.5,14.5 C 225.325,14.0807 227.491,15.0807 229,17.5C 231.672,22.856 233.339,28.5227 234,34.5C 234.903,69.6493 228.237,103.316 214,135.5C 210.508,143.153 206.508,150.487 202,157.5C 203.719,126.862 199.552,97.0282 189.5,68C 194.663,50.8365 202.83,35.3365 214,21.5C 216.996,19.2674 219.829,16.9341 222.5,14.5 Z"/></g>
<g><path style="opacity:1" fill="#def271" d="M 61.5,57.5 C 76.5573,60.0274 90.224,65.8608 102.5,75C 130.648,95.4751 153.482,120.642 171,150.5C 173.562,155.624 175.562,160.957 177,166.5C 178.833,175.333 175.333,178.833 166.5,177C 156.514,174.008 147.181,169.675 138.5,164C 105.948,142.12 80.448,113.953 62,79.5C 59.772,74.5443 58.272,69.3776 57.5,64C 57.7225,61.0379 59.0558,58.8712 61.5,57.5 Z"/></g>
<g><path style="opacity:1" fill="#cee758" d="M 30.5,128.5 C 47.0081,127.631 63.3414,128.798 79.5,132C 99.5666,154.675 122.9,173.008 149.5,187C 105.903,187.799 65.5699,176.799 28.5,154C 24.3672,150.869 20.5338,147.369 17,143.5C 12.6451,136.809 14.4785,132.643 22.5,131C 25.3102,130.218 27.9768,129.384 30.5,128.5 Z"/></g>
<g><path style="opacity:1" fill="#def271" d="M 262.5,142.5 C 265.893,142.062 268.893,142.895 271.5,145C 282.975,157.435 291.808,171.601 298,187.5C 308.306,213.363 314.139,240.196 315.5,268C 315.397,277.724 313.897,287.224 311,296.5C 307.676,302.659 303.509,303.159 298.5,298C 287.941,286.394 279.774,273.228 274,258.5C 260.137,225.45 254.471,191.117 257,155.5C 257.774,150.665 259.608,146.332 262.5,142.5 Z"/></g>
<g><path style="opacity:1" fill="#c0d94a" d="M 348.5,142.5 C 355.62,142.448 359.453,146.114 360,153.5C 363.405,200.215 353.405,243.882 330,284.5C 331.275,254.091 326.775,224.591 316.5,196C 322.758,175.281 333.425,157.448 348.5,142.5 Z"/></g>
<g><path style="opacity:1" fill="#b1cf40" d="M 199.5,182.5 C 216.132,198.632 232.632,214.965 249,231.5C 251.731,239.86 254.564,248.193 257.5,256.5C 257.167,256.833 256.833,257.167 256.5,257.5C 248.193,254.564 239.86,251.731 231.5,249C 215.167,232.667 198.833,216.333 182.5,200C 184.986,196.863 186.819,193.363 188,189.5C 192.114,187.531 195.948,185.197 199.5,182.5 Z"/></g>
<g><path style="opacity:0.999" fill="#c0d94a" d="M 94.5,236.5 C 87.5528,237.824 80.5528,238.824 73.5,239.5C 72.7974,237.284 71.4641,235.451 69.5,234C 57.8434,234.318 46.1767,234.318 34.5,234C 31.1228,233.548 27.7895,232.882 24.5,232C 19.7885,231.163 16.4552,228.663 14.5,224.5C 16.2095,220.616 18.5429,217.116 21.5,214C 35.3365,202.83 50.8365,194.663 68,189.5C 81.9627,193.76 96.1294,197.26 110.5,200C 126.116,202.398 141.783,203.065 157.5,202C 139.13,213.351 119.463,221.684 98.5,227C 95.038,229.239 93.7046,232.406 94.5,236.5 Z"/></g>
<g><path style="opacity:1" fill="#cfe758" d="M 161.5,255.5 C 197.746,254.916 232.413,262.083 265.5,277C 269.875,284.251 274.375,291.418 279,298.5C 282.833,303.667 287.333,308.167 292.5,312C 278.072,315.811 263.406,316.478 248.5,314C 213.181,309.676 180.848,297.676 151.5,278C 148.296,275.131 145.463,271.965 143,268.5C 142.056,265.653 142.556,263.153 144.5,261C 150.001,258.221 155.668,256.387 161.5,255.5 Z"/></g>
<g><path style="opacity:1" fill="#def271" d="M 390.5,269.5 C 393.425,269.46 396.091,270.293 398.5,272C 409.395,283.573 417.895,296.74 424,311.5C 434.958,338.458 441.125,366.458 442.5,395.5C 442.499,402.54 441.999,409.54 441,416.5C 440.102,420.795 438.269,424.628 435.5,428C 431.671,428.758 428.338,427.758 425.5,425C 415.293,414.098 407.46,401.598 402,387.5C 387.902,354.577 381.902,320.244 384,284.5C 384.923,278.877 387.09,273.877 390.5,269.5 Z"/></g>
<g><path style="opacity:0.999" fill="#c0d94a" d="M 494.5,330.5 C 493.607,336.856 492.607,343.189 491.5,349.5C 488.398,349.154 485.565,349.821 483,351.5C 479.003,362.822 475.003,374.156 471,385.5C 467.114,394.94 462.447,403.94 457,412.5C 458.124,381.785 453.957,351.785 444.5,322.5C 450.097,303.797 459.431,287.297 472.5,273C 474.56,271.304 476.893,270.137 479.5,269.5C 481.383,269.876 482.883,270.876 484,272.5C 487.96,281.212 489.794,290.379 489.5,300C 488.718,308.174 488.218,316.341 488,324.5C 489.436,327.442 491.603,329.442 494.5,330.5 Z"/></g>
<g><path style="opacity:1" fill="#b2cf40" d="M 325.5,310.5 C 326.552,310.351 327.552,310.517 328.5,311C 344.667,327.167 360.833,343.333 377,359.5C 379.348,367.894 381.848,376.227 384.5,384.5C 376.155,382.108 367.822,379.608 359.5,377C 343.333,360.833 327.167,344.667 311,328.5C 312.031,324.413 313.698,320.413 316,316.5C 319.485,314.85 322.651,312.85 325.5,310.5 Z"/></g>
<g><path style="opacity:1" fill="#c0d94a" d="M 194.5,316.5 C 223.294,326.49 252.961,330.99 283.5,330C 274.556,336.306 264.889,341.306 254.5,345C 223.64,357.306 191.64,362.639 158.5,361C 152.624,360.379 147.458,358.212 143,354.5C 142.333,352.5 142.333,350.5 143,348.5C 148.901,341.601 155.734,335.768 163.5,331C 173.683,325.572 184.017,320.738 194.5,316.5 Z"/></g>
<g><path style="opacity:1" fill="#cfe859" d="M 284.5,383.5 C 322.903,381.68 359.403,389.014 394,405.5C 400.313,418.97 409.146,430.47 420.5,440C 372.657,445.207 327.991,435.541 286.5,411C 281.077,407.581 276.244,403.415 272,398.5C 268.033,393.538 268.867,389.705 274.5,387C 277.98,385.897 281.313,384.731 284.5,383.5 Z"/></g>
<g><path style="opacity:1" fill="#b2d040" d="M 453.5,437.5 C 468.442,450.608 482.609,464.608 496,479.5C 496.491,493.991 489.991,498.824 476.5,494C 463.667,481.167 450.833,468.333 438,455.5C 439.846,452.126 441.512,448.46 443,444.5C 446.962,442.775 450.462,440.442 453.5,437.5 Z"/></g>
<g><path style="opacity:1" fill="#c0d849" d="M 320.5,444.5 C 340.859,450.061 361.526,454.227 382.5,457C 392.526,457.498 402.526,457.498 412.5,457C 371.419,481.682 327.085,491.682 279.5,487C 269.616,485.205 267.449,480.372 273,472.5C 286.935,459.949 302.768,450.616 320.5,444.5 Z"/></g>
</svg>
