<?xml version="1.0" encoding="UTF-8"?>
<!DOCTYPE svg PUBLIC "-//W3C//DTD SVG 1.1//EN" "http://www.w3.org/Graphics/SVG/1.1/DTD/svg11.dtd">
<svg xmlns="http://www.w3.org/2000/svg" version="1.1" width="512px" height="512px" style="shape-rendering:geometricPrecision; text-rendering:geometricPrecision; image-rendering:optimizeQuality; fill-rule:evenodd; clip-rule:evenodd" xmlns:xlink="http://www.w3.org/1999/xlink">
<g><path style="opacity:0.981" fill="#000000" d="M 102.5,110.5 C 103.209,111.404 104.209,111.737 105.5,111.5C 106.919,112.451 108.585,112.784 110.5,112.5C 110.5,114.5 110.5,116.5 110.5,118.5C 109.26,132.275 107.26,145.942 104.5,159.5C 121.167,159.5 137.833,159.5 154.5,159.5C 163.833,159.5 173.167,159.5 182.5,159.5C 180.669,149.183 178.836,138.849 177,128.5C 176.057,117.518 175.557,106.518 175.5,95.5C 166.167,95.5 156.833,95.5 147.5,95.5C 132.833,95.5 118.167,95.5 103.5,95.5C 100.833,95.5 98.1667,95.5 95.5,95.5C 95.3334,72.1643 95.5,48.831 96,25.5C 97.8333,21 101,17.8333 105.5,16C 130.833,15.3333 156.167,15.3333 181.5,16C 186,17.8333 189.167,21 191,25.5C 191.333,51.1667 191.667,76.8333 192,102.5C 192.11,122.939 195.11,142.939 201,162.5C 211.337,186.177 218.004,210.844 221,236.5C 221.619,244.326 222.119,252.159 222.5,260C 220.5,304.667 218.5,349.333 216.5,394C 217.419,409.013 219.585,423.846 223,438.5C 223.667,447.167 223.667,455.833 223,464.5C 218.833,480.667 208.667,490.833 192.5,495C 159.833,495.667 127.167,495.667 94.5,495C 78.3333,490.833 68.1667,480.667 64,464.5C 63.3333,455.833 63.3333,447.167 64,438.5C 67.4146,423.846 69.5813,409.013 70.5,394C 68.5138,348.499 66.5138,302.999 64.5,257.5C 65.0562,237.83 67.8896,218.496 73,199.5C 79.2711,182.353 84.9378,165.02 90,147.5C 92.732,135.311 94.232,122.977 94.5,110.5C 97.1667,110.5 99.8333,110.5 102.5,110.5 Z"/></g>
<g><path style="opacity:1" fill="#dededc" d="M 111.5,31.5 C 132.833,31.5 154.167,31.5 175.5,31.5C 175.5,36.8333 175.5,42.1667 175.5,47.5C 159.5,47.5 143.5,47.5 127.5,47.5C 127.5,52.8333 127.5,58.1667 127.5,63.5C 143.5,63.5 159.5,63.5 175.5,63.5C 175.5,68.8333 175.5,74.1667 175.5,79.5C 154.167,79.5 132.833,79.5 111.5,79.5C 111.5,63.5 111.5,47.5 111.5,31.5 Z"/></g>
<g><path style="opacity:0.981" fill="#000000" d="M 258.5,55.5 C 315.168,55.3333 371.834,55.5 428.5,56C 429.931,56.4652 431.097,57.2986 432,58.5C 448.421,147.949 452.088,237.949 443,328.5C 437.667,375.833 432.333,423.167 427,470.5C 425.737,481.76 419.904,489.593 409.5,494C 366.559,495.65 323.559,495.984 280.5,495C 268.592,491.091 261.758,482.924 260,470.5C 251.868,405.309 245.201,339.975 240,274.5C 236.752,202.971 241.419,131.971 254,61.5C 254.599,58.7458 256.099,56.7458 258.5,55.5 Z"/></g>
<g><path style="opacity:1" fill="#f1f1f1" d="M 268.5,71.5 C 318.5,71.5 368.5,71.5 418.5,71.5C 421.154,87.4141 423.154,103.414 424.5,119.5C 370.5,119.5 316.5,119.5 262.5,119.5C 264.008,103.436 266.008,87.436 268.5,71.5 Z"/></g>
<g><path style="opacity:1" fill="#f3d231" d="M 103.5,95.5 C 118.167,95.5 132.833,95.5 147.5,95.5C 147.334,105.172 147.5,114.839 148,124.5C 149.935,136.215 152.102,147.882 154.5,159.5C 137.833,159.5 121.167,159.5 104.5,159.5C 107.26,145.942 109.26,132.275 110.5,118.5C 111.468,116.393 111.802,114.059 111.5,111.5C 109.5,111.5 107.5,111.5 105.5,111.5C 104.209,111.737 103.209,111.404 102.5,110.5C 102.751,105.493 103.084,100.493 103.5,95.5 Z"/></g>
<g><path style="opacity:1" fill="#eecb21" d="M 147.5,95.5 C 156.833,95.5 166.167,95.5 175.5,95.5C 175.557,106.518 176.057,117.518 177,128.5C 178.836,138.849 180.669,149.183 182.5,159.5C 173.167,159.5 163.833,159.5 154.5,159.5C 152.102,147.882 149.935,136.215 148,124.5C 147.5,114.839 147.334,105.172 147.5,95.5 Z"/></g>
<g><path style="opacity:1" fill="#4e4410" d="M 105.5,111.5 C 107.5,111.5 109.5,111.5 111.5,111.5C 111.802,114.059 111.468,116.393 110.5,118.5C 110.5,116.5 110.5,114.5 110.5,112.5C 108.585,112.784 106.919,112.451 105.5,111.5 Z"/></g>
<g><path style="opacity:1" fill="#dededc" d="M 259.5,135.5 C 315.5,135.5 371.5,135.5 427.5,135.5C 432.899,198.173 432.732,260.84 427,323.5C 423.161,359.555 418.994,395.555 414.5,431.5C 366.833,431.5 319.167,431.5 271.5,431.5C 266.411,383.867 261.578,336.2 257,288.5C 254.438,237.437 255.271,186.437 259.5,135.5 Z"/></g>
<g><path style="opacity:1" fill="#020201" d="M 334.5,147.5 C 359.753,144.971 381.253,152.638 399,170.5C 399.667,172.5 399.667,174.5 399,176.5C 368.528,207.972 337.695,239.139 306.5,270C 303.97,271.422 301.303,271.755 298.5,271C 272.977,244.77 268.477,215.27 285,182.5C 296.919,164.296 313.419,152.629 334.5,147.5 Z"/></g>
<g><path style="opacity:1" fill="#f7d840" d="M 338.5,164.5 C 338.828,176.012 338.495,187.346 337.5,198.5C 329.855,190.521 322.188,182.521 314.5,174.5C 321.313,168.43 329.313,165.097 338.5,164.5 Z"/></g>
<g><path style="opacity:1" fill="#312b0c" d="M 338.5,164.5 C 339.824,176.007 339.824,187.673 338.5,199.5C 337.893,199.376 337.56,199.043 337.5,198.5C 338.495,187.346 338.828,176.012 338.5,164.5 Z"/></g>
<g><path style="opacity:1" fill="#bea631" d="M 356.5,164.5 C 355.167,175.5 355.167,186.5 356.5,197.5C 356.217,198.289 355.717,198.956 355,199.5C 354.167,187.486 354.334,175.486 355.5,163.5C 356.107,163.624 356.44,163.957 356.5,164.5 Z"/></g>
<g><path style="opacity:1" fill="#f3d43f" d="M 356.5,164.5 C 365.048,165.901 372.715,169.235 379.5,174.5C 372.146,182.521 364.479,190.188 356.5,197.5C 355.167,186.5 355.167,175.5 356.5,164.5 Z"/></g>
<g><path style="opacity:1" fill="#dddddb" d="M 98.5,175.5 C 128.5,175.5 158.5,175.5 188.5,175.5C 193.897,189.859 198.397,204.526 202,219.5C 204.376,231.386 205.543,243.386 205.5,255.5C 164.167,255.5 122.833,255.5 81.5,255.5C 81.6154,243.397 82.782,231.397 85,219.5C 88.6032,204.526 93.1032,189.859 98.5,175.5 Z"/></g>
<g><path style="opacity:1" fill="#f7d840" d="M 326.5,209.5 C 315.346,210.495 304.012,210.828 292.5,210.5C 293.097,201.313 296.43,193.313 302.5,186.5C 310.521,194.188 318.521,201.855 326.5,209.5 Z"/></g>
<g><path style="opacity:1" fill="#050505" d="M 110.5,190.5 C 115.6,192.215 120.6,194.215 125.5,196.5C 119.369,210.559 115.702,225.226 114.5,240.5C 109.18,239.761 103.846,239.094 98.5,238.5C 100.599,221.997 104.599,205.997 110.5,190.5 Z"/></g>
<g><path style="opacity:1" fill="#312b0c" d="M 326.5,209.5 C 327.043,209.56 327.376,209.893 327.5,210.5C 315.673,211.824 304.007,211.824 292.5,210.5C 304.012,210.828 315.346,210.495 326.5,209.5 Z"/></g>
<g><path style="opacity:1" fill="#efd13e" d="M 292.5,226.5 C 304.171,226.333 315.838,226.5 327.5,227C 319.319,235.348 310.986,243.514 302.5,251.5C 296.685,244.196 293.351,235.863 292.5,226.5 Z"/></g>
<g><path style="opacity:1" fill="#000000" d="M 356.5,247.5 C 374.17,247.333 391.836,247.5 409.5,248C 411.329,248.273 412.829,249.107 414,250.5C 415.64,268.743 415.973,287.076 415,305.5C 414.727,307.329 413.893,308.829 412.5,310C 393.899,311.628 375.232,311.961 356.5,311C 355.069,310.535 353.903,309.701 353,308.5C 351.372,289.899 351.039,271.232 352,252.5C 353.025,250.313 354.525,248.646 356.5,247.5 Z"/></g>
<g><path style="opacity:1" fill="#eaebe8" d="M 367.5,263.5 C 378.167,263.5 388.833,263.5 399.5,263.5C 399.5,274.167 399.5,284.833 399.5,295.5C 388.833,295.5 378.167,295.5 367.5,295.5C 367.5,284.833 367.5,274.167 367.5,263.5 Z"/></g>
<g><path style="opacity:1" fill="#f3d230" d="M 176.5,271.5 C 176.5,279.5 176.5,287.5 176.5,295.5C 152.167,295.5 127.833,295.5 103.5,295.5C 103.5,300.833 103.5,306.167 103.5,311.5C 127.5,311.5 151.5,311.5 175.5,311.5C 174.806,316.805 174.472,322.138 174.5,327.5C 153.5,327.5 132.5,327.5 111.5,327.5C 111.5,332.833 111.5,338.167 111.5,343.5C 132.167,343.5 152.833,343.5 173.5,343.5C 173.5,351.5 173.5,359.5 173.5,367.5C 144.167,367.5 114.833,367.5 85.5,367.5C 84.3112,335.491 82.9779,303.491 81.5,271.5C 113.167,271.5 144.833,271.5 176.5,271.5 Z"/></g>
<g><path style="opacity:1" fill="#eecb21" d="M 176.5,271.5 C 186.167,271.5 195.833,271.5 205.5,271.5C 204.022,303.491 202.689,335.491 201.5,367.5C 192.167,367.5 182.833,367.5 173.5,367.5C 173.5,359.5 173.5,351.5 173.5,343.5C 174.812,341.257 175.478,338.59 175.5,335.5C 175.497,332.645 175.164,329.978 174.5,327.5C 174.472,322.138 174.806,316.805 175.5,311.5C 178.167,311.5 180.833,311.5 183.5,311.5C 183.5,306.167 183.5,300.833 183.5,295.5C 181.167,295.5 178.833,295.5 176.5,295.5C 176.5,287.5 176.5,279.5 176.5,271.5 Z"/></g>
<g><path style="opacity:1" fill="#070707" d="M 300.5,283.5 C 303.794,283.259 306.794,284.092 309.5,286C 320.667,297.167 331.833,308.333 343,319.5C 345.94,322.884 346.273,326.551 344,330.5C 332.167,342.333 320.333,354.167 308.5,366C 305.134,367.879 301.8,367.879 298.5,366C 286.667,354.167 274.833,342.333 263,330.5C 260.727,326.551 261.06,322.884 264,319.5C 276.062,307.271 288.228,295.271 300.5,283.5 Z"/></g>
<g><path style="opacity:1" fill="#000000" d="M 176.5,295.5 C 178.833,295.5 181.167,295.5 183.5,295.5C 183.5,300.833 183.5,306.167 183.5,311.5C 180.833,311.5 178.167,311.5 175.5,311.5C 151.5,311.5 127.5,311.5 103.5,311.5C 103.5,306.167 103.5,300.833 103.5,295.5C 127.833,295.5 152.167,295.5 176.5,295.5 Z"/></g>
<g><path style="opacity:1" fill="#e9e9e7" d="M 302.5,303.5 C 310.758,310.089 318.425,317.422 325.5,325.5C 318.5,333.167 311.167,340.5 303.5,347.5C 295.833,340.5 288.5,333.167 281.5,325.5C 288.521,318.146 295.521,310.813 302.5,303.5 Z"/></g>
<g><path style="opacity:1" fill="#000000" d="M 174.5,327.5 C 175.164,329.978 175.497,332.645 175.5,335.5C 175.478,338.59 174.812,341.257 173.5,343.5C 152.833,343.5 132.167,343.5 111.5,343.5C 111.5,338.167 111.5,332.833 111.5,327.5C 132.5,327.5 153.5,327.5 174.5,327.5 Z"/></g>
<g><path style="opacity:1" fill="#000000" d="M 340.5,351.5 C 358.17,351.333 375.836,351.5 393.5,352C 395.329,352.273 396.829,353.107 398,354.5C 399.64,372.743 399.973,391.076 399,409.5C 398.727,411.329 397.893,412.829 396.5,414C 377.899,415.628 359.232,415.961 340.5,415C 339.069,414.535 337.903,413.701 337,412.5C 335.372,393.899 335.039,375.232 336,356.5C 337.025,354.313 338.525,352.646 340.5,351.5 Z"/></g>
<g><path style="opacity:1" fill="#eaebe8" d="M 351.5,367.5 C 362.167,367.5 372.833,367.5 383.5,367.5C 383.5,378.167 383.5,388.833 383.5,399.5C 372.833,399.5 362.167,399.5 351.5,399.5C 351.5,388.833 351.5,378.167 351.5,367.5 Z"/></g>
<g><path style="opacity:1" fill="#dededc" d="M 86.5,383.5 C 124.5,383.5 162.5,383.5 200.5,383.5C 200.334,392.839 200.5,402.173 201,411.5C 205.943,427.489 207.943,443.822 207,460.5C 204.167,470 198,476.167 188.5,479C 158.167,479.667 127.833,479.667 97.5,479C 88.1292,475.631 82.2959,469.131 80,459.5C 79.3333,453.167 79.3333,446.833 80,440.5C 82.2566,429.884 84.2566,419.217 86,408.5C 86.4997,400.173 86.6664,391.84 86.5,383.5 Z"/></g>
<g><path style="opacity:1" fill="#f1f1f1" d="M 274.5,447.5 C 320.5,447.5 366.5,447.5 412.5,447.5C 411.924,455.52 411.09,463.52 410,471.5C 409.214,474.583 407.381,476.749 404.5,478C 384.062,479.15 363.562,479.65 343,479.5C 323.5,479.333 304,479.167 284.5,479C 280.667,477.833 278.167,475.333 277,471.5C 275.619,463.55 274.786,455.55 274.5,447.5 Z"/></g>
</svg>
