<?xml version="1.0" encoding="UTF-8"?>
<!DOCTYPE svg PUBLIC "-//W3C//DTD SVG 1.1//EN" "http://www.w3.org/Graphics/SVG/1.1/DTD/svg11.dtd">
<svg xmlns="http://www.w3.org/2000/svg" version="1.1" width="512px" height="512px" style="shape-rendering:geometricPrecision; text-rendering:geometricPrecision; image-rendering:optimizeQuality; fill-rule:evenodd; clip-rule:evenodd" xmlns:xlink="http://www.w3.org/1999/xlink">
<g><path style="opacity:0.96" fill="#020102" d="M 233.5,-0.5 C 247.5,-0.5 261.5,-0.5 275.5,-0.5C 373.634,10.1343 444.801,59.4676 489,147.5C 500.925,174.088 508.425,201.755 511.5,230.5C 511.5,245.5 511.5,260.5 511.5,275.5C 501.509,361.02 460.843,427.52 389.5,475C 354.584,495.917 316.918,508.084 276.5,511.5C 262.167,511.5 247.833,511.5 233.5,511.5C 136.192,500.103 66.0257,450.436 23,362.5C 10.6113,334.602 2.77795,305.602 -0.5,275.5C -0.5,260.167 -0.5,244.833 -0.5,229.5C 5.99235,170.854 29.4923,120.187 70,77.5C 73.6788,75.3108 77.5121,74.9774 81.5,76.5C 83.343,79.5637 83.843,82.8971 83,86.5C 23.6172,149.018 2.95051,222.685 21,307.5C 40.4235,384.587 85.5902,440.754 156.5,476C 205.896,497.043 256.896,501.876 309.5,490.5C 397.394,467.106 456.228,412.439 486,326.5C 512.161,231.297 490.328,149.13 420.5,80C 390.204,52.6049 355.204,33.4383 315.5,22.5C 238.478,3.01546 168.811,17.5155 106.5,66C 102.567,66.8844 98.9007,66.3844 95.5,64.5C 93.5988,59.6468 94.5988,55.4801 98.5,52C 138.448,21.6263 183.448,4.12625 233.5,-0.5 Z"/></g>
<g><path style="opacity:1" fill="#f0edf0" d="M 315.5,22.5 C 403.11,60.6464 455.277,126.98 472,221.5C 481.415,313.972 450.915,390.139 380.5,450C 358.523,466.65 334.856,480.15 309.5,490.5C 256.896,501.876 205.896,497.043 156.5,476C 85.5902,440.754 40.4235,384.587 21,307.5C 2.95051,222.685 23.6172,149.018 83,86.5C 83.843,82.8971 83.343,79.5637 81.5,76.5C 85.8722,72.1256 90.5389,68.1256 95.5,64.5C 98.9007,66.3844 102.567,66.8844 106.5,66C 168.811,17.5155 238.478,3.01546 315.5,22.5 Z"/></g>
<g><path style="opacity:1" fill="#dfdbdf" d="M 315.5,22.5 C 355.204,33.4383 390.204,52.6049 420.5,80C 490.328,149.13 512.161,231.297 486,326.5C 456.228,412.439 397.394,467.106 309.5,490.5C 334.856,480.15 358.523,466.65 380.5,450C 450.915,390.139 481.415,313.972 472,221.5C 455.277,126.98 403.11,60.6464 315.5,22.5 Z"/></g>
<g><path style="opacity:1" fill="#050403" d="M 309.5,434.5 C 312.162,432.732 315.162,432.065 318.5,432.5C 327.979,438.695 336.479,437.361 344,428.5C 345.759,425.392 346.592,422.059 346.5,418.5C 347.167,411.833 350.833,408.167 357.5,407.5C 372.247,411.845 382.747,406.845 389,392.5C 389.498,389.518 389.665,386.518 389.5,383.5C 390.593,381.651 391.926,379.984 393.5,378.5C 394.819,377.103 396.486,376.437 398.5,376.5C 415.303,380.198 423.136,373.531 422,356.5C 414.528,347.037 416.361,340.203 427.5,336C 433.77,331.291 435.936,325.124 434,317.5C 430.268,311.535 430.768,306.035 435.5,301C 447.088,298.982 452.254,292.149 451,280.5C 449.851,276.516 447.518,273.516 444,271.5C 439.552,264.218 441.052,258.718 448.5,255C 457.318,245.973 457.651,236.64 449.5,227C 443.643,225.664 439.143,222.497 436,217.5C 435.242,213.671 436.242,210.338 439,207.5C 442.574,198.982 440.24,192.649 432,188.5C 429.826,185.454 429.159,182.12 430,178.5C 436.705,166.755 433.872,158.255 421.5,153C 417.81,152.419 414.144,152.585 410.5,153.5C 407.37,153.352 404.87,152.018 403,149.5C 403.214,141.625 400.381,135.125 394.5,130C 389.544,127.402 384.377,126.902 379,128.5C 369.459,125.407 367.126,119.407 372,110.5C 372.347,99.5108 367.013,93.5108 356,92.5C 350.652,94.2449 345.152,95.5782 339.5,96.5C 336.891,95.5569 334.891,93.8903 333.5,91.5C 332.365,80.5249 326.365,75.6916 315.5,77C 307.369,82.6931 301.035,81.0265 296.5,72C 292.782,69.7016 288.782,69.0349 284.5,70C 279.808,73.9335 274.808,74.4335 269.5,71.5C 269.167,70.5 268.5,69.8333 267.5,69.5C 263.793,57.6643 255.793,53.1643 243.5,56C 240.405,56.9354 238.071,58.7687 236.5,61.5C 233.746,65.8997 231.08,70.3997 228.5,75C 224.954,76.1737 221.287,76.8404 217.5,77C 213.228,79.2737 209.561,82.2737 206.5,86C 200.524,87.828 195.857,86.1613 192.5,81C 180.949,74.7391 171.782,77.2391 165,88.5C 164.667,93.1667 164.333,97.8333 164,102.5C 162.333,106.5 159.333,108.5 155,108.5C 150.516,107.336 146.016,106.336 141.5,105.5C 127.056,107.451 119.889,115.784 120,130.5C 118.408,134.887 115.242,137.22 110.5,137.5C 94.9946,134.509 87.828,140.842 89,156.5C 96.4334,166.201 94.6001,173.368 83.5,178C 80.9598,180.205 78.7932,182.705 77,185.5C 76.7711,193.317 77.4377,200.983 79,208.5C 78.2155,210.286 77.0488,211.786 75.5,213C 62.931,215.657 58.0976,223.157 61,235.5C 62.9678,239.46 65.6345,242.793 69,245.5C 69.8512,249.042 69.3512,252.375 67.5,255.5C 54.9509,262.292 52.1176,271.958 59,284.5C 62.2975,287.567 66.1308,289.733 70.5,291C 76.8802,296.527 77.0469,302.361 71,308.5C 70.2617,312.261 70.5951,315.928 72,319.5C 75.0855,322.517 78.0855,325.517 81,328.5C 81.6667,330.5 81.6667,332.5 81,334.5C 74.5875,345.923 77.0875,354.756 88.5,361C 92.0157,361.499 95.5157,361.333 99,360.5C 103.716,360.285 107.049,362.285 109,366.5C 109.428,381.439 116.928,387.772 131.5,385.5C 140.786,387.737 143.286,393.07 139,401.5C 138.392,415.893 145.226,422.393 159.5,421C 171.511,414.256 178.344,417.756 180,431.5C 183.509,436.838 188.342,438.672 194.5,437C 202.936,431.477 209.602,433.144 214.5,442C 220.345,445.454 226.012,445.12 231.5,441C 236.117,439.703 239.95,440.87 243,444.5C 247.648,457.407 256.482,461.573 269.5,457C 274.281,454.218 277.614,450.218 279.5,445C 282.753,443.18 286.087,443.013 289.5,444.5C 293.249,448.593 293.416,452.926 290,457.5C 281.024,470.726 268.524,475.893 252.5,473C 243.71,470.362 236.876,465.195 232,457.5C 220.238,461.354 209.905,459.021 201,450.5C 185.217,455.188 173.384,450.355 165.5,436C 139.27,439.263 125.27,427.763 123.5,401.5C 112.344,400.342 103.844,395.008 98,385.5C 96.8551,382.568 96.0218,379.568 95.5,376.5C 72.3242,374.485 61.4909,361.819 63,338.5C 63.5,337 64,335.5 64.5,334C 55.4871,324.982 53.1538,314.482 57.5,302.5C 43.2208,292.846 38.0541,279.513 42,262.5C 43.9297,256.968 47.0964,252.301 51.5,248.5C 39.9985,229.504 43.4985,213.838 62,201.5C 62.0273,197.867 61.8606,194.2 61.5,190.5C 61.2701,184.688 62.7701,179.355 66,174.5C 69.1603,170.709 72.327,167.042 75.5,163.5C 70.3055,146.399 75.3055,133.232 90.5,124C 95.6557,122.038 100.989,121.205 106.5,121.5C 109.314,105.513 118.648,95.3462 134.5,91C 139.537,90.3369 144.537,90.5036 149.5,91.5C 151.808,78.3539 159.142,69.1873 171.5,64C 182.424,61.0672 192.424,62.9006 201.5,69.5C 206.442,65.3624 212.109,62.8624 218.5,62C 226.111,44.5244 239.444,37.5244 258.5,41C 267.29,43.6383 274.124,48.805 279,56.5C 290.643,52.8266 300.977,55.1599 310,63.5C 325.76,58.7983 337.593,63.6316 345.5,78C 371.733,74.7407 385.733,86.2407 387.5,112.5C 400.469,113.972 409.635,120.639 415,132.5C 415.494,134.134 415.66,135.801 415.5,137.5C 432.125,137.621 442.958,145.621 448,161.5C 448.445,168.248 448.112,174.914 447,181.5C 455.391,189.904 457.558,199.738 453.5,211C 471.277,223.697 475.111,239.864 465,259.5C 462.982,261.35 461.149,263.35 459.5,265.5C 468.807,278.511 468.64,291.511 459,304.5C 456.214,307.888 452.881,310.554 449,312.5C 450.156,320.296 449.489,327.963 447,335.5C 443.741,340.885 439.908,345.718 435.5,350C 439.926,365.387 435.926,378.054 423.5,388C 417.343,391.706 410.676,393.206 403.5,392.5C 400.137,409.698 389.803,420.198 372.5,424C 368.514,424.499 364.514,424.666 360.5,424.5C 358.147,439.355 349.48,448.188 334.5,451C 326.652,452.403 319.319,451.07 312.5,447C 307.458,443.672 306.458,439.505 309.5,434.5 Z"/></g>
<g><path style="opacity:1" fill="#d98557" d="M 267.5,69.5 C 263.478,67.9946 259.311,66.9946 255,66.5C 250.544,67.6581 246.044,68.1581 241.5,68C 239,66.5127 237.334,64.3461 236.5,61.5C 238.071,58.7687 240.405,56.9354 243.5,56C 255.793,53.1643 263.793,57.6643 267.5,69.5 Z"/></g>
<g><path style="opacity:1" fill="#e09873" d="M 236.5,61.5 C 237.334,64.3461 239,66.5127 241.5,68C 246.044,68.1581 250.544,67.6581 255,66.5C 259.311,66.9946 263.478,67.9946 267.5,69.5C 268.5,69.8333 269.167,70.5 269.5,71.5C 269.511,73.0174 270.177,74.1841 271.5,75C 276.622,75.5677 281.622,75.0677 286.5,73.5C 296.438,74.0502 302.938,79.0502 306,88.5C 306.903,89.7014 308.069,90.5348 309.5,91C 313.914,90.3209 318.414,89.8209 323,89.5C 326.69,89.3821 330.19,90.0487 333.5,91.5C 334.891,93.8903 336.891,95.5569 339.5,96.5C 344.891,103.48 347.058,111.48 346,120.5C 349.319,124.005 353.486,125.505 358.5,125C 364.074,127.194 368.574,130.694 372,135.5C 373.942,139.838 375.775,144.171 377.5,148.5C 388.407,148.181 397.24,152.181 404,160.5C 406.177,164.031 407.344,167.864 407.5,172C 406.559,177.234 405.726,182.4 405,187.5C 414.896,195.615 417.063,205.448 411.5,217C 411.862,218.225 412.362,219.391 413,220.5C 428.724,229.34 433.057,242.006 426,258.5C 422.943,262.049 420.109,265.716 417.5,269.5C 419.829,273.351 421.995,277.351 424,281.5C 427.024,295.286 422.19,305.119 409.5,311C 408.299,311.903 407.465,313.069 407,314.5C 408.346,320.693 408.679,327.026 408,333.5C 406.667,336.167 405.333,338.833 404,341.5C 400.396,344.285 397.062,347.285 394,350.5C 394.398,355.709 395.232,360.876 396.5,366C 396.418,370.408 395.418,374.575 393.5,378.5C 391.926,379.984 390.593,381.651 389.5,383.5C 382.825,388.765 375.158,390.931 366.5,390C 365.667,390.833 364.833,391.667 364,392.5C 363.072,398.145 360.905,403.145 357.5,407.5C 350.833,408.167 347.167,411.833 346.5,418.5C 339.054,420.892 331.387,422.058 323.5,422C 322.667,422.833 321.833,423.667 321,424.5C 320.902,427.522 320.068,430.189 318.5,432.5C 315.162,432.065 312.162,432.732 309.5,434.5C 306.744,436.447 304.078,438.614 301.5,441C 297.911,443.631 293.911,444.797 289.5,444.5C 286.087,443.013 282.753,443.18 279.5,445C 277.614,450.218 274.281,454.218 269.5,457C 256.482,461.573 247.648,457.407 243,444.5C 239.95,440.87 236.117,439.703 231.5,441C 226.012,445.12 220.345,445.454 214.5,442C 209.602,433.144 202.936,431.477 194.5,437C 188.342,438.672 183.509,436.838 180,431.5C 178.344,417.756 171.511,414.256 159.5,421C 145.226,422.393 138.392,415.893 139,401.5C 143.286,393.07 140.786,387.737 131.5,385.5C 116.928,387.772 109.428,381.439 109,366.5C 107.049,362.285 103.716,360.285 99,360.5C 95.5157,361.333 92.0157,361.499 88.5,361C 77.0875,354.756 74.5875,345.923 81,334.5C 81.6667,332.5 81.6667,330.5 81,328.5C 78.0855,325.517 75.0855,322.517 72,319.5C 70.5951,315.928 70.2617,312.261 71,308.5C 77.0469,302.361 76.8802,296.527 70.5,291C 66.1308,289.733 62.2975,287.567 59,284.5C 52.1176,271.958 54.9509,262.292 67.5,255.5C 69.3512,252.375 69.8512,249.042 69,245.5C 65.6345,242.793 62.9678,239.46 61,235.5C 58.0976,223.157 62.931,215.657 75.5,213C 77.0488,211.786 78.2155,210.286 79,208.5C 77.4377,200.983 76.7711,193.317 77,185.5C 78.7932,182.705 80.9598,180.205 83.5,178C 94.6001,173.368 96.4334,166.201 89,156.5C 87.828,140.842 94.9946,134.509 110.5,137.5C 115.242,137.22 118.408,134.887 120,130.5C 119.889,115.784 127.056,107.451 141.5,105.5C 146.016,106.336 150.516,107.336 155,108.5C 159.333,108.5 162.333,106.5 164,102.5C 164.333,97.8333 164.667,93.1667 165,88.5C 171.782,77.2391 180.949,74.7391 192.5,81C 195.857,86.1613 200.524,87.828 206.5,86C 209.561,82.2737 213.228,79.2737 217.5,77C 221.287,76.8404 224.954,76.1737 228.5,75C 231.08,70.3997 233.746,65.8997 236.5,61.5 Z"/></g>
<g><path style="opacity:1" fill="#d78456" d="M 333.5,91.5 C 330.19,90.0487 326.69,89.3821 323,89.5C 318.414,89.8209 313.914,90.3209 309.5,91C 308.069,90.5348 306.903,89.7014 306,88.5C 302.938,79.0502 296.438,74.0502 286.5,73.5C 281.622,75.0677 276.622,75.5677 271.5,75C 270.177,74.1841 269.511,73.0174 269.5,71.5C 274.808,74.4335 279.808,73.9335 284.5,70C 288.782,69.0349 292.782,69.7016 296.5,72C 301.035,81.0265 307.369,82.6931 315.5,77C 326.365,75.6916 332.365,80.5249 333.5,91.5 Z"/></g>
<g><path style="opacity:1" fill="#da8657" d="M 393.5,378.5 C 395.418,374.575 396.418,370.408 396.5,366C 395.232,360.876 394.398,355.709 394,350.5C 397.062,347.285 400.396,344.285 404,341.5C 405.333,338.833 406.667,336.167 408,333.5C 408.679,327.026 408.346,320.693 407,314.5C 407.465,313.069 408.299,311.903 409.5,311C 422.19,305.119 427.024,295.286 424,281.5C 421.995,277.351 419.829,273.351 417.5,269.5C 420.109,265.716 422.943,262.049 426,258.5C 433.057,242.006 428.724,229.34 413,220.5C 412.362,219.391 411.862,218.225 411.5,217C 417.063,205.448 414.896,195.615 405,187.5C 405.726,182.4 406.559,177.234 407.5,172C 407.344,167.864 406.177,164.031 404,160.5C 397.24,152.181 388.407,148.181 377.5,148.5C 375.775,144.171 373.942,139.838 372,135.5C 368.574,130.694 364.074,127.194 358.5,125C 353.486,125.505 349.319,124.005 346,120.5C 347.058,111.48 344.891,103.48 339.5,96.5C 345.152,95.5782 350.652,94.2449 356,92.5C 367.013,93.5108 372.347,99.5108 372,110.5C 367.126,119.407 369.459,125.407 379,128.5C 384.377,126.902 389.544,127.402 394.5,130C 400.381,135.125 403.214,141.625 403,149.5C 404.87,152.018 407.37,153.352 410.5,153.5C 414.144,152.585 417.81,152.419 421.5,153C 433.872,158.255 436.705,166.755 430,178.5C 429.159,182.12 429.826,185.454 432,188.5C 440.24,192.649 442.574,198.982 439,207.5C 436.242,210.338 435.242,213.671 436,217.5C 439.143,222.497 443.643,225.664 449.5,227C 457.651,236.64 457.318,245.973 448.5,255C 441.052,258.718 439.552,264.218 444,271.5C 447.518,273.516 449.851,276.516 451,280.5C 452.254,292.149 447.088,298.982 435.5,301C 430.768,306.035 430.268,311.535 434,317.5C 435.936,325.124 433.77,331.291 427.5,336C 416.361,340.203 414.528,347.037 422,356.5C 423.136,373.531 415.303,380.198 398.5,376.5C 396.486,376.437 394.819,377.103 393.5,378.5 Z"/></g>
<g><path style="opacity:1" fill="#0c0805" d="M 223.5,128.5 C 230.943,127.938 234.443,131.271 234,138.5C 233.167,140.667 231.667,142.167 229.5,143C 225.903,144.277 222.236,144.61 218.5,144C 212.925,138.885 213.258,134.219 219.5,130C 221.058,129.79 222.391,129.29 223.5,128.5 Z"/></g>
<g><path style="opacity:1" fill="#080503" d="M 290.5,133.5 C 295.955,132.888 299.288,135.222 300.5,140.5C 299.631,143.941 298.464,147.274 297,150.5C 290.003,154.515 285.503,152.681 283.5,145C 284.469,140.21 286.802,136.377 290.5,133.5 Z"/></g>
<g><path style="opacity:1" fill="#070403" d="M 170.5,155.5 C 180.439,154.683 183.606,159.017 180,168.5C 176.274,175.565 171.608,176.232 166,170.5C 164.988,164.706 166.488,159.706 170.5,155.5 Z"/></g>
<g><path style="opacity:1" fill="#060302" d="M 335.5,159.5 C 344.689,159.478 348.523,164.144 347,173.5C 344.774,177.861 341.274,179.361 336.5,178C 332.608,173.94 331.108,169.107 332,163.5C 332.69,161.65 333.856,160.316 335.5,159.5 Z"/></g>
<g><path style="opacity:1" fill="#080503" d="M 246.5,173.5 C 256.599,172.778 260.432,177.445 258,187.5C 253.748,193.653 249.081,193.986 244,188.5C 243.333,184.5 243.333,180.5 244,176.5C 245.045,175.627 245.878,174.627 246.5,173.5 Z"/></g>
<g><path style="opacity:1" fill="#050302" d="M 293.5,198.5 C 298.765,197.571 303.265,198.904 307,202.5C 308.643,207.428 307.143,210.928 302.5,213C 298.375,213.854 294.375,213.52 290.5,212C 287.127,206.391 288.127,201.891 293.5,198.5 Z"/></g>
<g><path style="opacity:1" fill="#070403" d="M 120.5,205.5 C 126.428,204.123 130.095,206.289 131.5,212C 130.802,215.262 129.802,218.428 128.5,221.5C 124.892,224.925 121.059,225.259 117,222.5C 114.354,215.95 115.521,210.283 120.5,205.5 Z"/></g>
<g><path style="opacity:1" fill="#090504" d="M 344.5,212.5 C 354.052,212.197 357.052,216.364 353.5,225C 350.654,227.173 347.488,228.673 344,229.5C 337.894,228.296 335.561,224.629 337,218.5C 339.114,215.879 341.614,213.879 344.5,212.5 Z"/></g>
<g><path style="opacity:1" fill="#0b0705" d="M 226.5,218.5 C 234.342,217.83 239.342,221.33 241.5,229C 240.245,234.295 236.912,236.628 231.5,236C 227.216,233.553 224.216,230.053 222.5,225.5C 223.071,222.687 224.404,220.354 226.5,218.5 Z"/></g>
<g><path style="opacity:1" fill="#0a0604" d="M 168.5,219.5 C 173.259,219.581 177.593,220.915 181.5,223.5C 184.666,232.518 181.333,236.351 171.5,235C 165.446,233.957 162.946,230.457 164,224.5C 165.025,222.313 166.525,220.646 168.5,219.5 Z"/></g>
<g><path style="opacity:1" fill="#0b0705" d="M 390.5,233.5 C 400.493,232.655 403.493,236.822 399.5,246C 397.037,248.565 394.037,250.065 390.5,250.5C 383.121,249.076 381.121,245.076 384.5,238.5C 386.544,236.781 388.544,235.114 390.5,233.5 Z"/></g>
<g><path style="opacity:1" fill="#060403" d="M 121.5,265.5 C 126.945,265.425 131.112,267.758 134,272.5C 135.833,281.333 132.333,284.833 123.5,283C 121.667,281.167 119.833,279.333 118,277.5C 115.458,272.361 116.624,268.361 121.5,265.5 Z"/></g>
<g><path style="opacity:1" fill="#0b0705" d="M 247.5,265.5 C 254.469,266.126 259.136,269.793 261.5,276.5C 260.189,282.643 256.523,284.809 250.5,283C 241.355,278.151 240.355,272.318 247.5,265.5 Z"/></g>
<g><path style="opacity:1" fill="#0c0805" d="M 364.5,271.5 C 368.426,271.047 371.592,272.38 374,275.5C 374.667,279.5 374.667,283.5 374,287.5C 368.309,293.293 363.643,292.626 360,285.5C 358.311,279.655 359.811,274.988 364.5,271.5 Z"/></g>
<g><path style="opacity:1" fill="#070403" d="M 191.5,275.5 C 197.523,274.197 201.189,276.53 202.5,282.5C 199.999,289.744 194.999,292.911 187.5,292C 183.293,288.93 182.46,285.097 185,280.5C 187.352,278.97 189.519,277.303 191.5,275.5 Z"/></g>
<g><path style="opacity:1" fill="#060403" d="M 301.5,284.5 C 303.857,284.337 306.19,284.503 308.5,285C 310.667,287.167 312.833,289.333 315,291.5C 316.378,299.122 313.211,302.622 305.5,302C 296.793,297.541 295.46,291.708 301.5,284.5 Z"/></g>
<g><path style="opacity:1" fill="#090503" d="M 243.5,332.5 C 253.525,331.731 256.525,335.898 252.5,345C 249.654,347.173 246.488,348.673 243,349.5C 236.438,347.825 234.438,343.825 237,337.5C 239.326,335.934 241.492,334.268 243.5,332.5 Z"/></g>
<g><path style="opacity:1" fill="#0c0805" d="M 336.5,334.5 C 340.426,334.047 343.592,335.38 346,338.5C 346.667,342.5 346.667,346.5 346,350.5C 340.408,356.315 335.742,355.648 332,348.5C 330.309,342.61 331.809,337.944 336.5,334.5 Z"/></g>
<g><path style="opacity:1" fill="#080503" d="M 166.5,344.5 C 176.317,344.149 180.817,348.815 180,358.5C 174.694,363.979 169.694,363.645 165,357.5C 161.287,352.589 161.787,348.256 166.5,344.5 Z"/></g>
<g><path style="opacity:1" fill="#0a0605" d="M 302.5,362.5 C 312.599,361.778 316.432,366.445 314,376.5C 311.774,380.861 308.274,382.361 303.5,381C 301.667,380.5 300.5,379.333 300,377.5C 299.333,373.5 299.333,369.5 300,365.5C 301.045,364.627 301.878,363.627 302.5,362.5 Z"/></g>
<g><path style="opacity:1" fill="#0d0806" d="M 220.5,381.5 C 226.289,381.811 231.122,384.144 235,388.5C 235.671,396.159 232.171,399.326 224.5,398C 214.399,394.306 213.066,388.806 220.5,381.5 Z"/></g>
<g><path style="opacity:1" fill="#d78456" d="M 389.5,383.5 C 389.665,386.518 389.498,389.518 389,392.5C 382.747,406.845 372.247,411.845 357.5,407.5C 360.905,403.145 363.072,398.145 364,392.5C 364.833,391.667 365.667,390.833 366.5,390C 375.158,390.931 382.825,388.765 389.5,383.5 Z"/></g>
<g><path style="opacity:1" fill="#d98557" d="M 346.5,418.5 C 346.592,422.059 345.759,425.392 344,428.5C 336.479,437.361 327.979,438.695 318.5,432.5C 320.068,430.189 320.902,427.522 321,424.5C 321.833,423.667 322.667,422.833 323.5,422C 331.387,422.058 339.054,420.892 346.5,418.5 Z"/></g>
</svg>
