<?xml version="1.0" encoding="UTF-8"?>
<!DOCTYPE svg PUBLIC "-//W3C//DTD SVG 1.1//EN" "http://www.w3.org/Graphics/SVG/1.1/DTD/svg11.dtd">
<svg xmlns="http://www.w3.org/2000/svg" version="1.1" width="512px" height="512px" style="shape-rendering:geometricPrecision; text-rendering:geometricPrecision; image-rendering:optimizeQuality; fill-rule:evenodd; clip-rule:evenodd" xmlns:xlink="http://www.w3.org/1999/xlink">
<g><path style="opacity:0.982" fill="#020201" d="M 212.5,-0.5 C 223.5,-0.5 234.5,-0.5 245.5,-0.5C 306.8,6.06273 357.3,32.7294 397,79.5C 414,95.8333 431,112.167 448,128.5C 484.588,167.347 505.755,213.347 511.5,266.5C 511.5,279.833 511.5,293.167 511.5,306.5C 500.941,390.815 457.941,452.315 382.5,491C 358.446,501.761 333.446,508.594 307.5,511.5C 293.5,511.5 279.5,511.5 265.5,511.5C 202.226,504.032 150.226,475.865 109.5,427C 99.7807,419.737 91.2807,411.237 84,401.5C 59.508,381.352 39.8414,357.352 25,329.5C 23.593,324.599 24.7597,320.599 28.5,317.5C 32.51,315.737 36.1767,316.237 39.5,319C 84.7325,397.797 153.066,435.13 244.5,431C 317.371,421.388 371.871,384.888 408,321.5C 434.098,269.738 438.764,216.072 422,160.5C 396.481,89.3198 347.314,43.4865 274.5,23C 256.381,19.0052 238.047,17.1719 219.5,17.5C 212.855,18.1498 206.522,19.9831 200.5,23C 181.124,33.0154 163.124,45.0154 146.5,59C 114.333,85.8333 84.8333,115.333 58,147.5C 48.6116,159.889 39.6116,172.555 31,185.5C 26.3648,193.104 22.5315,201.104 19.5,209.5C 87.0477,203.982 139.881,173.316 178,117.5C 192.165,94.5109 202.332,69.8442 208.5,43.5C 210.898,40.8007 213.898,39.4674 217.5,39.5C 221.702,41.0366 224.035,44.0366 224.5,48.5C 222.163,57.8462 219.83,67.1795 217.5,76.5C 192.866,143.968 146.866,190.468 79.5,216C 59.3299,222.667 38.6632,226.834 17.5,228.5C 17.2208,238.77 18.2208,248.77 20.5,258.5C 21.8619,267.976 23.8619,277.31 26.5,286.5C 26.3078,288.577 25.8078,290.577 25,292.5C 23.3333,293.733 21.8333,295.067 20.5,296.5C 14.9409,297.769 11.1076,295.769 9,290.5C 4.52474,274.952 1.35807,259.286 -0.5,243.5C -0.5,233.167 -0.5,222.833 -0.5,212.5C 6.12313,191.923 15.9565,172.923 29,155.5C 65.1667,107.333 107.333,65.1667 155.5,29C 172.923,15.9565 191.923,6.12313 212.5,-0.5 Z"/></g>
<g><path style="opacity:1" fill="#f7e3c3" d="M 219.5,17.5 C 219.605,24.9118 218.938,32.2451 217.5,39.5C 213.898,39.4674 210.898,40.8007 208.5,43.5C 202.332,69.8442 192.165,94.5109 178,117.5C 139.881,173.316 87.0477,203.982 19.5,209.5C 22.5315,201.104 26.3648,193.104 31,185.5C 39.6116,172.555 48.6116,159.889 58,147.5C 84.8333,115.333 114.333,85.8333 146.5,59C 163.124,45.0154 181.124,33.0154 200.5,23C 206.522,19.9831 212.855,18.1498 219.5,17.5 Z"/></g>
<g><path style="opacity:1" fill="#fbc95e" d="M 219.5,17.5 C 238.047,17.1719 256.381,19.0052 274.5,23C 347.314,43.4865 396.481,89.3198 422,160.5C 438.764,216.072 434.098,269.738 408,321.5C 371.871,384.888 317.371,421.388 244.5,431C 153.066,435.13 84.7325,397.797 39.5,319C 36.1767,316.237 32.51,315.737 28.5,317.5C 25.8353,310.507 23.1687,303.507 20.5,296.5C 21.8333,295.067 23.3333,293.733 25,292.5C 25.8078,290.577 26.3078,288.577 26.5,286.5C 23.8619,277.31 21.8619,267.976 20.5,258.5C 20.5,257.5 20.5,256.5 20.5,255.5C 95.0618,248.824 151.895,213.824 191,150.5C 203.921,127.234 212.754,102.567 217.5,76.5C 219.83,67.1795 222.163,57.8462 224.5,48.5C 224.035,44.0366 221.702,41.0366 217.5,39.5C 218.938,32.2451 219.605,24.9118 219.5,17.5 Z"/></g>
<g><path style="opacity:1" fill="#090807" d="M 167.5,66.5 C 175.985,66.1497 179.818,70.1497 179,78.5C 176.103,83.1549 171.937,84.6549 166.5,83C 162.723,80.0453 161.557,76.212 163,71.5C 164.025,69.313 165.525,67.6464 167.5,66.5 Z"/></g>
<g><path style="opacity:1" fill="#e5b258" d="M 217.5,76.5 C 212.754,102.567 203.921,127.234 191,150.5C 151.895,213.824 95.0618,248.824 20.5,255.5C 20.5,256.5 20.5,257.5 20.5,258.5C 18.2208,248.77 17.2208,238.77 17.5,228.5C 38.6632,226.834 59.3299,222.667 79.5,216C 146.866,190.468 192.866,143.968 217.5,76.5 Z"/></g>
<g><path style="opacity:1" fill="#090603" d="M 265.5,100.5 C 274.374,99.8713 278.208,103.871 277,112.5C 272.02,118.706 266.687,119.04 261,113.5C 259.379,107.923 260.879,103.589 265.5,100.5 Z"/></g>
<g><path style="opacity:1" fill="#090807" d="M 113.5,118.5 C 123.157,116.992 127.323,120.992 126,130.5C 120.546,136.938 115.213,136.938 110,130.5C 108.593,125.643 109.76,121.643 113.5,118.5 Z"/></g>
<g><path style="opacity:1" fill="#e4b057" d="M 441.5,164.5 C 454.425,189.853 461.925,216.853 464,245.5C 470.085,251.084 475.418,250.418 480,243.5C 480.162,235.455 479.495,227.455 478,219.5C 476.322,211.412 474.656,203.412 473,195.5C 506.266,271.01 499.599,342.677 453,410.5C 402.992,473.234 337.825,500.4 257.5,492C 235.777,489.07 215.111,482.737 195.5,473C 273.306,491.763 342.973,475.763 404.5,425C 450.387,383.724 475.22,332.224 479,270.5C 473.159,263.606 467.825,263.939 463,271.5C 453.481,352.777 411.981,410.944 338.5,446C 291.431,464.878 243.431,467.544 194.5,454C 183.432,450.644 172.766,446.311 162.5,441C 236.726,459.525 304.392,445.858 365.5,400C 429.979,344.602 457.146,274.435 447,189.5C 445.637,181.049 443.803,172.716 441.5,164.5 Z"/></g>
<g><path style="opacity:1" fill="#050301" d="M 306.5,189.5 C 330.956,189.788 342.456,202.122 341,226.5C 334.786,244.357 322.286,252.191 303.5,250C 287.129,244.294 279.629,232.794 281,215.5C 285.053,210.992 289.72,210.326 295,213.5C 296.88,217.273 298.213,221.273 299,225.5C 302.655,232.07 308.155,234.237 315.5,232C 323.859,226.974 325.692,220.14 321,211.5C 317.369,207.603 312.869,205.77 307.5,206C 302.845,203.103 301.345,198.937 303,193.5C 304.376,192.295 305.542,190.962 306.5,189.5 Z"/></g>
<g><path style="opacity:1" fill="#040301" d="M 136.5,222.5 C 160.839,223.494 172.005,236.161 170,260.5C 163.665,278.09 151.165,285.59 132.5,283C 114.855,277.028 107.855,265.028 111.5,247C 121.155,242.584 126.322,245.75 127,256.5C 132.723,267.599 140.39,269.266 150,261.5C 155.615,253.158 154.115,246.325 145.5,241C 139.689,241.344 135.189,239.177 132,234.5C 131.333,232.167 131.333,229.833 132,227.5C 133.366,225.638 134.866,223.972 136.5,222.5 Z"/></g>
<g><path style="opacity:1" fill="#040301" d="M 232.5,296.5 C 256.448,297.28 267.614,309.614 266,333.5C 260.207,351.822 247.707,359.655 228.5,357C 211.26,351.124 204.093,339.291 207,321.5C 211.667,317.5 216.333,317.5 221,321.5C 221.176,329.023 224.343,334.857 230.5,339C 244.469,341.031 250.303,335.198 248,321.5C 244.517,315.7 239.35,312.867 232.5,313C 227.931,310.459 226.431,306.625 228,301.5C 229.025,299.313 230.525,297.646 232.5,296.5 Z"/></g>
<g><path style="opacity:1" fill="#090603" d="M 328.5,300.5 C 337.825,299.327 341.992,303.327 341,312.5C 336.628,318.174 331.628,318.841 326,314.5C 323.418,309.12 324.251,304.453 328.5,300.5 Z"/></g>
<g><path style="opacity:1" fill="#0c0904" d="M 143.5,318.5 C 152.034,318.861 155.534,323.194 154,331.5C 148.155,338.424 142.821,338.091 138,330.5C 137.333,328.167 137.333,325.833 138,323.5C 139.73,321.598 141.563,319.931 143.5,318.5 Z"/></g>
</svg>
