<?xml version="1.0" encoding="UTF-8"?>
<!DOCTYPE svg PUBLIC "-//W3C//DTD SVG 1.1//EN" "http://www.w3.org/Graphics/SVG/1.1/DTD/svg11.dtd">
<svg xmlns="http://www.w3.org/2000/svg" version="1.1" width="512px" height="512px" style="shape-rendering:geometricPrecision; text-rendering:geometricPrecision; image-rendering:optimizeQuality; fill-rule:evenodd; clip-rule:evenodd" xmlns:xlink="http://www.w3.org/1999/xlink">
<g><path style="opacity:0.962" fill="#020201" d="M 233.5,-0.5 C 248.167,-0.5 262.833,-0.5 277.5,-0.5C 367.555,10.0943 435.388,54.4276 481,132.5C 497.855,164.278 508.022,197.945 511.5,233.5C 511.5,248.167 511.5,262.833 511.5,277.5C 500.906,367.555 456.572,435.388 378.5,481C 346.722,497.855 313.055,508.022 277.5,511.5C 262.833,511.5 248.167,511.5 233.5,511.5C 143.445,500.906 75.612,456.572 30,378.5C 13.1449,346.722 2.97822,313.055 -0.5,277.5C -0.5,262.833 -0.5,248.167 -0.5,233.5C 10.0943,143.445 54.4276,75.612 132.5,30C 164.278,13.1449 197.945,2.97822 233.5,-0.5 Z"/></g>
<g><path style="opacity:1" fill="#fdfdfd" d="M 373.5,45.5 C 439.73,98.9736 473.063,168.64 473.5,254.5C 473.744,317.938 454.577,374.605 416,424.5C 403.222,438.78 389.722,452.113 375.5,464.5C 306.641,502.078 235.641,506.578 162.5,478C 74.7654,437.424 25.5987,368.924 15,272.5C 11.9969,171.647 53.4969,95.4799 139.5,44C 204.428,10.1083 271.428,5.44167 340.5,30C 352.034,34.1178 363.034,39.2844 373.5,45.5 Z"/></g>
<g><path style="opacity:1" fill="#fcecae" d="M 373.5,45.5 C 439.985,84.5396 480.152,142.206 494,218.5C 504.384,308.177 475.884,382.677 408.5,442C 398.165,450.499 387.165,457.999 375.5,464.5C 389.722,452.113 403.222,438.78 416,424.5C 454.577,374.605 473.744,317.938 473.5,254.5C 473.063,168.64 439.73,98.9736 373.5,45.5 Z"/></g>
<g><path style="opacity:1" fill="#050404" d="M 117.5,127.5 C 119.218,129.926 119.718,132.593 119,135.5C 67.1643,201.393 60.4977,271.727 99,346.5C 138.325,409.084 195.158,438.918 269.5,436C 349.173,425.988 402.339,383.154 429,307.5C 448.756,226.094 425.922,159.594 360.5,108C 300.788,68.7573 238.454,64.0906 173.5,94C 160.148,101.339 147.482,109.672 135.5,119C 132.593,119.718 129.926,119.218 127.5,117.5C 124.611,113.429 124.944,109.596 128.5,106C 178.223,66.1529 234.556,52.1529 297.5,64C 369.609,82.7763 418.109,127.276 443,197.5C 462.577,271.914 446.411,337.248 394.5,393.5C 344.719,440.873 285.719,459.039 217.5,448C 150.746,432.568 103.246,393.734 75,331.5C 50.5648,268.686 55.5648,208.352 90,150.5C 95.3333,143.167 100.667,135.833 106,128.5C 109.596,124.944 113.429,124.611 117.5,127.5 Z"/></g>
<g><path style="opacity:1" fill="#faebad" d="M 117.5,127.5 C 120.5,123.833 123.833,120.5 127.5,117.5C 129.926,119.218 132.593,119.718 135.5,119C 147.482,109.672 160.148,101.339 173.5,94C 238.454,64.0906 300.788,68.7573 360.5,108C 425.922,159.594 448.756,226.094 429,307.5C 402.339,383.154 349.173,425.988 269.5,436C 195.158,438.918 138.325,409.084 99,346.5C 60.4977,271.727 67.1643,201.393 119,135.5C 119.718,132.593 119.218,129.926 117.5,127.5 Z"/></g>
<g><path style="opacity:1" fill="#040302" d="M 246.5,89.5 C 306.78,88.393 354.947,111.726 391,159.5C 424.062,209.31 430.062,262.31 409,318.5C 379.48,382.31 329.48,416.643 259,421.5C 254.759,422.267 251.425,420.933 249,417.5C 248.667,369.5 248.333,321.5 248,273.5C 214.833,306.667 181.667,339.833 148.5,373C 145.634,374.457 142.634,374.79 139.5,374C 97.9372,330.955 82.4372,279.788 93,220.5C 110.833,153.333 153.333,110.833 220.5,93C 229.259,91.4074 237.926,90.2407 246.5,89.5 Z"/></g>
<g><path style="opacity:1" fill="#fecd52" d="M 326.5,122.5 C 369.219,163.116 388.052,213.116 383,272.5C 380.496,303.347 370.829,331.681 354,357.5C 345.988,368.005 337.488,378.005 328.5,387.5C 309.474,397.953 289.14,403.953 267.5,405.5C 266.167,405.5 264.833,405.5 263.5,405.5C 263.832,354.664 263.499,303.997 262.5,253.5C 262.084,251.248 260.751,249.748 258.5,249C 255.697,248.245 253.03,248.578 250.5,250C 214.986,285.68 179.32,321.18 143.5,356.5C 104.819,310.888 94.9857,259.555 114,202.5C 135.24,151.599 172.74,119.766 226.5,107C 261.628,101.222 294.961,106.388 326.5,122.5 Z"/></g>
<g><path style="opacity:1" fill="#fbb632" d="M 326.5,122.5 C 382.85,155.454 409.35,204.788 406,270.5C 399.115,322.326 373.281,361.326 328.5,387.5C 337.488,378.005 345.988,368.005 354,357.5C 370.829,331.681 380.496,303.347 383,272.5C 388.052,213.116 369.219,163.116 326.5,122.5 Z"/></g>
<g><path style="opacity:1" fill="#050402" d="M 250.5,134.5 C 269.853,134.018 278.687,143.351 277,162.5C 272.746,175.216 263.913,180.716 250.5,179C 235.899,173.297 230.732,162.797 235,147.5C 238.542,141.157 243.709,136.824 250.5,134.5 Z"/></g>
<g><path style="opacity:1" fill="#ffb834" d="M 207.5,149.5 C 215.489,148.989 218.655,152.656 217,160.5C 212.667,165.833 208.333,165.833 204,160.5C 202.663,155.916 203.829,152.249 207.5,149.5 Z"/></g>
<g><path style="opacity:1" fill="#f6e6a9" d="M 252.5,149.5 C 260.489,148.989 263.655,152.656 262,160.5C 257.667,165.833 253.333,165.833 249,160.5C 247.663,155.916 248.829,152.249 252.5,149.5 Z"/></g>
<g><path style="opacity:1" fill="#ffb834" d="M 335.5,188.5 C 343.494,187.329 346.994,190.663 346,198.5C 341.333,203.833 336.667,203.833 332,198.5C 330.755,194.235 331.922,190.902 335.5,188.5 Z"/></g>
<g><path style="opacity:1" fill="#ffb834" d="M 153.5,203.5 C 161.494,202.329 164.994,205.663 164,213.5C 159.333,218.833 154.667,218.833 150,213.5C 148.755,209.235 149.922,205.902 153.5,203.5 Z"/></g>
<g><path style="opacity:1" fill="#ffb834" d="M 183.5,203.5 C 191.494,202.329 194.994,205.663 194,213.5C 189.333,218.833 184.667,218.833 180,213.5C 178.755,209.235 179.922,205.902 183.5,203.5 Z"/></g>
<g><path style="opacity:1" fill="#ffb834" d="M 251.5,218.5 C 262.818,217.99 265.485,222.49 259.5,232C 248.105,232.803 245.439,228.303 251.5,218.5 Z"/></g>
<g><path style="opacity:1" fill="#050402" d="M 150.5,233.5 C 170.331,231.835 179.831,240.835 179,260.5C 173.297,275.101 162.797,280.268 147.5,276C 132.645,265.807 130.645,253.474 141.5,239C 144.596,237.128 147.596,235.295 150.5,233.5 Z"/></g>
<g><path style="opacity:1" fill="#050402" d="M 347.5,233.5 C 367.331,231.835 376.831,240.835 376,260.5C 370.297,275.101 359.797,280.268 344.5,276C 329.645,265.807 327.645,253.474 338.5,239C 341.596,237.128 344.596,235.295 347.5,233.5 Z"/></g>
<g><path style="opacity:1" fill="#f6e6a9" d="M 153.5,248.5 C 161.494,247.329 164.994,250.663 164,258.5C 159.333,263.833 154.667,263.833 150,258.5C 148.755,254.235 149.922,250.902 153.5,248.5 Z"/></g>
<g><path style="opacity:1" fill="#f6e6a9" d="M 350.5,248.5 C 358.494,247.329 361.994,250.663 361,258.5C 356.333,263.833 351.667,263.833 347,258.5C 345.755,254.235 346.922,250.902 350.5,248.5 Z"/></g>
<g><path style="opacity:1" fill="#7f6729" d="M 262.5,253.5 C 263.499,303.997 263.832,354.664 263.5,405.5C 264.833,405.5 266.167,405.5 267.5,405.5C 266.081,406.451 264.415,406.784 262.5,406.5C 262.5,355.5 262.5,304.5 262.5,253.5 Z"/></g>
<g><path style="opacity:1" fill="#050402" d="M 293.5,278.5 C 306.916,276.289 316.416,281.289 322,293.5C 324.711,305.905 320.544,315.072 309.5,321C 296.401,325.362 286.568,321.529 280,309.5C 275.78,295.28 280.28,284.946 293.5,278.5 Z"/></g>
<g><path style="opacity:1" fill="#f7e7aa" d="M 296.5,293.5 C 307.818,292.99 310.485,297.49 304.5,307C 293.105,307.803 290.439,303.303 296.5,293.5 Z"/></g>
<g><path style="opacity:1" fill="#ffb834" d="M 350.5,293.5 C 358.494,292.329 361.994,295.663 361,303.5C 356.333,308.833 351.667,308.833 347,303.5C 345.755,299.235 346.922,295.902 350.5,293.5 Z"/></g>
<g><path style="opacity:1" fill="#ffb834" d="M 296.5,338.5 C 307.818,337.99 310.485,342.49 304.5,352C 293.105,352.803 290.439,348.303 296.5,338.5 Z"/></g>
</svg>
