<?xml version="1.0" encoding="UTF-8"?>
<!DOCTYPE svg PUBLIC "-//W3C//DTD SVG 1.1//EN" "http://www.w3.org/Graphics/SVG/1.1/DTD/svg11.dtd">
<svg xmlns="http://www.w3.org/2000/svg" version="1.1" width="512px" height="512px" style="shape-rendering:geometricPrecision; text-rendering:geometricPrecision; image-rendering:optimizeQuality; fill-rule:evenodd; clip-rule:evenodd" xmlns:xlink="http://www.w3.org/1999/xlink">
<g><path style="opacity:0.981" fill="#020201" d="M 287.5,-0.5 C 293.833,-0.5 300.167,-0.5 306.5,-0.5C 346.662,22.3271 378.662,53.6605 402.5,93.5C 400.313,95.4216 397.98,97.0883 395.5,98.5C 392.534,99.398 389.7,100.731 387,102.5C 371.976,78.4646 353.643,57.1313 332,38.5C 330.932,44.4762 330.099,50.4762 329.5,56.5C 328.378,58.2884 328.211,60.2884 329,62.5C 387.994,120.819 410.994,191.152 398,273.5C 395,287.998 390.833,302.164 385.5,316C 385.978,317.642 386.978,318.809 388.5,319.5C 392.238,324.634 395.738,329.967 399,335.5C 431.374,262.781 430.208,190.614 395.5,119C 398.407,117.391 401.073,115.558 403.5,113.5C 406.052,112.307 408.552,110.973 411,109.5C 438.072,163.337 446.406,220.004 436,279.5C 429.154,315.722 415.487,349.056 395,379.5C 388.519,385.157 381.019,388.824 372.5,390.5C 381.938,419.978 384.771,449.978 381,480.5C 374.027,493.42 363.527,502.253 349.5,507C 343.747,508.686 338.081,510.186 332.5,511.5C 322.833,511.5 313.167,511.5 303.5,511.5C 288.675,509.258 275.342,503.425 263.5,494C 257.554,488.379 253.721,481.546 252,473.5C 250.832,410.936 221.998,366.769 165.5,341C 147.815,334.197 129.482,330.863 110.5,331C 98.6501,328.322 89.4834,321.822 83,311.5C 65.5297,278.524 66.5297,246.191 86,214.5C 91.0491,208.399 97.2158,203.899 104.5,201C 148.002,197.334 189.336,205.167 228.5,224.5C 227.298,226.78 226.298,229.114 225.5,231.5C 223.127,233.579 221.794,236.246 221.5,239.5C 198.711,230.517 175.211,223.85 151,219.5C 150.167,219.833 149.333,220.167 148.5,220.5C 150.513,224.527 152.513,228.527 154.5,232.5C 155.578,235.402 156.244,238.402 156.5,241.5C 226.632,255.461 279.799,293.128 316,354.5C 328.786,377.029 337.286,401.029 341.5,426.5C 343.806,426.993 346.139,427.326 348.5,427.5C 353.075,429.787 357.741,432.121 362.5,434.5C 352.883,363.434 319.216,306.601 261.5,264C 253.587,258.458 245.42,253.292 237,248.5C 237.575,245.337 238.742,242.337 240.5,239.5C 241.632,232.673 244.965,231.173 250.5,235C 268.862,245.771 285.695,258.605 301,273.5C 315.711,222.021 305.377,176.354 270,136.5C 258.851,126.928 247.517,117.594 236,108.5C 230.386,100.053 227.553,90.7196 227.5,80.5C 230.112,52.0804 242.446,28.9137 264.5,11C 271.701,6.06604 279.368,2.2327 287.5,-0.5 Z"/></g>
<g><path style="opacity:1" fill="#f5bb81" d="M 290.5,17.5 C 300.287,15.5804 307.454,18.9137 312,27.5C 315.237,53.2146 307.07,74.7146 287.5,92C 278.623,99.9592 268.29,103.293 256.5,102C 251.449,99.2801 248.282,95.1135 247,89.5C 245.232,64.1991 254.066,43.3657 273.5,27C 278.938,23.2845 284.605,20.1178 290.5,17.5 Z"/></g>
<g><path style="opacity:1" fill="#f3ba81" d="M 395.5,98.5 C 398.421,103.341 401.088,108.341 403.5,113.5C 401.073,115.558 398.407,117.391 395.5,119C 430.208,190.614 431.374,262.781 399,335.5C 395.738,329.967 392.238,324.634 388.5,319.5C 389.497,319.53 390.164,319.03 390.5,318C 421.359,232.333 409.192,153.499 354,81.5C 346.328,72.6618 338.162,64.3285 329.5,56.5C 330.099,50.4762 330.932,44.4762 332,38.5C 353.643,57.1313 371.976,78.4646 387,102.5C 389.7,100.731 392.534,99.398 395.5,98.5 Z"/></g>
<g><path style="opacity:1" fill="#f6e68a" d="M 329.5,56.5 C 338.162,64.3285 346.328,72.6618 354,81.5C 409.192,153.499 421.359,232.333 390.5,318C 390.164,319.03 389.497,319.53 388.5,319.5C 386.978,318.809 385.978,317.642 385.5,316C 390.833,302.164 395,287.998 398,273.5C 410.994,191.152 387.994,120.819 329,62.5C 328.211,60.2884 328.378,58.2884 329.5,56.5 Z"/></g>
<g><path style="opacity:1" fill="#f8ea8c" d="M 319.5,79.5 C 349.822,107.77 369.656,142.437 379,183.5C 388.56,224.48 385.727,264.48 370.5,303.5C 364.683,300.17 359.016,296.67 353.5,293C 372.854,230.645 364.354,172.478 328,118.5C 321.688,110.687 315.188,103.02 308.5,95.5C 312.973,90.6984 316.64,85.365 319.5,79.5 Z"/></g>
<g><path style="opacity:1" fill="#f9ea8c" d="M 294.5,108.5 C 298.067,110.557 301.234,113.223 304,116.5C 345.449,167.582 356.282,224.582 336.5,287.5C 335.5,287.833 334.5,288.167 333.5,288.5C 327.488,287.966 321.488,287.299 315.5,286.5C 337.251,222.481 324.584,166.314 277.5,118C 283.825,115.804 289.491,112.637 294.5,108.5 Z"/></g>
<g><path style="opacity:1" fill="#f4bb81" d="M 110.5,217.5 C 114.605,217.234 118.605,217.734 122.5,219C 130.205,223.908 135.372,230.741 138,239.5C 144.254,258.378 143.587,277.045 136,295.5C 125.816,316.273 113.15,317.94 98,300.5C 90.2216,285.059 87.5549,268.725 90,251.5C 92.0399,237.056 98.8732,225.723 110.5,217.5 Z"/></g>
<g><path style="opacity:1" fill="#f4bb81" d="M 225.5,231.5 C 230.307,234.405 235.307,237.072 240.5,239.5C 238.742,242.337 237.575,245.337 237,248.5C 245.42,253.292 253.587,258.458 261.5,264C 319.216,306.601 352.883,363.434 362.5,434.5C 357.741,432.121 353.075,429.787 348.5,427.5C 335.186,370.362 306.186,322.862 261.5,285C 229.903,259.536 194.236,242.036 154.5,232.5C 152.513,228.527 150.513,224.527 148.5,220.5C 149.333,220.167 150.167,219.833 151,219.5C 175.211,223.85 198.711,230.517 221.5,239.5C 221.794,236.246 223.127,233.579 225.5,231.5 Z"/></g>
<g><path style="opacity:1" fill="#f5e58a" d="M 154.5,232.5 C 194.236,242.036 229.903,259.536 261.5,285C 306.186,322.862 335.186,370.362 348.5,427.5C 346.139,427.326 343.806,426.993 341.5,426.5C 337.286,401.029 328.786,377.029 316,354.5C 279.799,293.128 226.632,255.461 156.5,241.5C 156.244,238.402 155.578,235.402 154.5,232.5 Z"/></g>
<g><path style="opacity:1" fill="#faeb8d" d="M 162.5,260.5 C 234.81,278.979 285.31,322.645 314,391.5C 317.755,401.262 320.589,411.262 322.5,421.5C 317.5,422.167 312.5,422.833 307.5,423.5C 305.533,423.739 303.699,423.406 302,422.5C 298.692,406.571 293.025,391.571 285,377.5C 279.753,380.206 274.586,383.04 269.5,386C 276.599,398.962 281.933,412.629 285.5,427C 280.196,430.322 274.862,433.655 269.5,437C 268.552,437.483 267.552,437.649 266.5,437.5C 255.184,386.691 226.184,349.857 179.5,327C 168.002,321.778 156.002,318.278 143.5,316.5C 147.764,310.299 151.764,303.966 155.5,297.5C 187.994,305.407 215.994,321.074 239.5,344.5C 244.384,340.802 248.218,336.468 251,331.5C 225.565,306.359 195.399,289.359 160.5,280.5C 159.513,277.232 159.18,273.898 159.5,270.5C 159.881,266.881 160.881,263.548 162.5,260.5 Z"/></g>
<g><path style="opacity:1" fill="#988f56" d="M 162.5,260.5 C 160.881,263.548 159.881,266.881 159.5,270.5C 159.5,266.833 159.5,263.167 159.5,259.5C 160.791,259.263 161.791,259.596 162.5,260.5 Z"/></g>
<g><path style="opacity:1" fill="#f2b980" d="M 329.5,305.5 C 350.802,310.562 368.302,321.562 382,338.5C 387.958,347.899 387.958,357.232 382,366.5C 377.137,370.177 371.637,372.177 365.5,372.5C 356.83,348.219 344.83,325.886 329.5,305.5 Z"/></g>
<g><path style="opacity:1" fill="#070603" d="M 263.5,346.5 C 268.152,350.836 272.152,355.836 275.5,361.5C 271.135,365.189 266.469,368.522 261.5,371.5C 257.779,367.112 254.445,362.445 251.5,357.5C 255.532,353.826 259.532,350.159 263.5,346.5 Z"/></g>
<g><path style="opacity:1" fill="#746d41" d="M 322.5,421.5 C 323.043,421.56 323.376,421.893 323.5,422.5C 318.208,423.495 312.875,423.828 307.5,423.5C 312.5,422.833 317.5,422.167 322.5,421.5 Z"/></g>
<g><path style="opacity:1" fill="#f4bb81" d="M 306.5,440.5 C 324.01,438.877 340.343,442.377 355.5,451C 368.605,461.545 368.605,472.212 355.5,483C 339.771,492.457 322.771,495.79 304.5,493C 292.591,491.129 282.424,485.963 274,477.5C 270.426,472.163 269.426,466.497 271,460.5C 274.933,454.566 280.1,450.066 286.5,447C 293.119,444.293 299.786,442.126 306.5,440.5 Z"/></g>
</svg>
