<?xml version="1.0" encoding="UTF-8"?>
<!DOCTYPE svg PUBLIC "-//W3C//DTD SVG 1.1//EN" "http://www.w3.org/Graphics/SVG/1.1/DTD/svg11.dtd">
<svg xmlns="http://www.w3.org/2000/svg" version="1.1" width="512px" height="512px" style="shape-rendering:geometricPrecision; text-rendering:geometricPrecision; image-rendering:optimizeQuality; fill-rule:evenodd; clip-rule:evenodd" xmlns:xlink="http://www.w3.org/1999/xlink">
<g><path style="opacity:0.98" fill="#030200" d="M 244.5,15.5 C 266.486,12.7121 284.819,19.3788 299.5,35.5C 326.334,23.7531 349.834,28.4198 370,49.5C 374.15,55.6333 377.65,62.1333 380.5,69C 412.39,68.5548 432.557,83.7215 441,114.5C 442.022,119.897 442.355,125.23 442,130.5C 471.575,142.102 484.575,163.769 481,195.5C 480.064,201.143 478.23,206.476 475.5,211.5C 494.906,229.455 500.406,251.122 492,276.5C 488.437,285.654 482.937,293.321 475.5,299.5C 487.247,326.334 482.58,349.834 461.5,370C 455.367,374.15 448.867,377.65 442,380.5C 440.746,420.254 420.246,440.92 380.5,442.5C 375.632,462.095 364.965,477.595 348.5,489C 314.095,503.612 287.595,494.779 269,462.5C 263.67,452.174 259.17,441.507 255.5,430.5C 250.721,446.39 243.555,461.056 234,474.5C 215.481,495.754 192.981,501.254 166.5,491C 147.533,480.174 135.533,464.007 130.5,442.5C 90.7494,440.916 70.2494,420.249 69,380.5C 37.5145,367.537 24.8478,344.203 31,310.5C 32.0114,306.632 33.5114,302.966 35.5,299.5C 16.0938,281.545 10.5938,259.878 19,234.5C 22.5633,225.346 28.0633,217.679 35.5,211.5C 23.7035,184.65 28.3701,161.15 49.5,141C 55.6333,136.85 62.1333,133.35 69,130.5C 68.5531,98.6111 83.7198,78.4444 114.5,70C 119.897,69.1363 125.231,68.803 130.5,69C 142.102,39.4247 163.769,26.4247 195.5,30C 201.143,30.9365 206.476,32.7698 211.5,35.5C 220.504,25.4999 231.504,18.8332 244.5,15.5 Z"/></g>
<g><path style="opacity:1" fill="#fdb531" d="M 247.5,31.5 C 267.106,29.9695 282.106,37.4695 292.5,54C 293.873,54.8749 295.373,55.3749 297,55.5C 303.692,51.4072 310.858,48.2406 318.5,46C 344.586,44.0829 360.419,55.9162 366,81.5C 366.785,83.286 367.951,84.786 369.5,86C 376.819,85.7163 384.153,85.7163 391.5,86C 412.703,90.7015 424.037,103.868 425.5,125.5C 424.997,130.844 424.83,136.177 425,141.5C 426.167,142.667 427.333,143.833 428.5,145C 453.688,149.844 465.855,165.01 465,190.5C 463.917,198.332 460.917,205.332 456,211.5C 455.333,213.167 455.333,214.833 456,216.5C 460.917,221.148 465.917,225.815 471,230.5C 482.249,247.085 482.249,263.752 471,280.5C 466.892,285.21 462.225,289.21 457,292.5C 456.125,293.873 455.625,295.373 455.5,297C 459.593,303.692 462.759,310.858 465,318.5C 466.808,345.03 454.641,360.863 428.5,366C 427.333,367.167 426.167,368.333 425,369.5C 424.748,374.495 424.914,379.495 425.5,384.5C 424.483,406.682 413.15,420.182 391.5,425C 384.153,425.284 376.819,425.284 369.5,425C 368.333,426.167 367.167,427.333 366,428.5C 364.118,441.595 359.451,453.595 352,464.5C 337.097,480.186 319.93,483.353 300.5,474C 290.462,465.779 282.962,455.612 278,443.5C 275.158,435.639 272.325,427.806 269.5,420C 287.825,426.734 303.992,423.234 318,409.5C 321.721,404.725 324.388,399.391 326,393.5C 327.231,380.88 327.898,368.214 328,355.5C 329.163,349.674 331.997,344.841 336.5,341C 359,329.504 377.833,313.671 393,293.5C 425.247,241.529 422.581,191.529 385,143.5C 349.727,106.117 306.227,87.4499 254.5,87.5C 202.965,87.8584 159.798,106.858 125,144.5C 91.3445,187.41 86.6778,233.41 111,282.5C 126.698,307.862 147.865,327.362 174.5,341C 178.551,344.721 181.384,349.221 183,354.5C 183.099,367.547 183.766,380.547 185,393.5C 191.949,414.447 206.449,424.28 228.5,423C 231.911,422.474 235.245,421.641 238.5,420.5C 239.167,420.833 239.833,421.167 240.5,421.5C 236.148,440.375 227.481,456.875 214.5,471C 191.868,485.197 172.368,481.697 156,460.5C 150.182,450.553 146.515,439.887 145,428.5C 143.833,427.333 142.667,426.167 141.5,425C 122.17,429.3 106.003,424.133 93,409.5C 89.2959,404.058 86.9626,398.058 86,391.5C 85.7163,384.153 85.7163,376.819 86,369.5C 82.1805,366.189 77.6805,364.356 72.5,364C 49.6186,353.402 41.4519,335.902 48,311.5C 49.8287,307.172 52.162,303.172 55,299.5C 55.6667,297.833 55.6667,296.167 55,294.5C 50.0832,289.852 45.0832,285.185 40,280.5C 25.1134,255.382 29.7801,234.715 54,218.5C 54.8749,217.127 55.3749,215.627 55.5,214C 51.4129,207.318 48.2462,200.152 46,192.5C 44.0721,166.423 55.9054,150.59 81.5,145C 83.286,144.215 84.786,143.049 86,141.5C 81.7005,122.167 86.8672,106.001 101.5,93C 108.638,87.7875 116.638,85.2875 125.5,85.5C 130.844,86.0032 136.177,86.1699 141.5,86C 143.049,84.786 144.215,83.286 145,81.5C 150.437,56.3878 165.937,44.5545 191.5,46C 198.929,47.3825 205.596,50.3825 211.5,55C 213.167,55.6667 214.833,55.6667 216.5,55C 221.148,50.0832 225.815,45.0832 230.5,40C 235.731,36.1023 241.397,33.269 247.5,31.5 Z"/></g>
<g><path style="opacity:1" fill="#fdd239" d="M 238.5,103.5 C 275.384,100.472 309.717,108.306 341.5,127C 370.719,145.225 389.552,171.058 398,204.5C 403.282,251.765 386.448,288.931 347.5,316C 336.853,321.24 327.353,328.073 319,336.5C 315.578,341.345 313.245,346.678 312,352.5C 311.667,364.833 311.333,377.167 311,389.5C 303.618,406.295 291.451,411.129 274.5,404C 265.699,397.262 262.199,388.429 264,377.5C 267.784,351.149 275.784,326.149 288,302.5C 290.112,298.722 292.612,295.222 295.5,292C 321.864,287.561 345.364,277.061 366,260.5C 369.215,251.42 366.048,247.253 356.5,248C 333.942,265.637 308.276,275.637 279.5,278C 240.734,283.464 204.067,277.13 169.5,259C 164.882,256.05 160.548,252.716 156.5,249C 146,246.167 142.167,250 145,260.5C 165.619,277.162 189.119,287.662 215.5,292C 221.467,299.424 226.3,307.591 230,316.5C 238.561,338.142 244.394,360.475 247.5,383.5C 245.001,400.827 235.001,408.66 217.5,407C 209,403.833 203.167,398 200,389.5C 199.667,377.167 199.333,364.833 199,352.5C 196.703,342.533 191.536,334.366 183.5,328C 155,314.167 133.833,293 120,264.5C 103.905,222.735 110.571,185.068 140,151.5C 167.137,123.848 199.97,107.848 238.5,103.5 Z"/></g>
<g><path style="opacity:1" fill="#fab231" d="M 265.5,294.5 C 268.518,294.335 271.518,294.502 274.5,295C 266.667,309.169 260.333,324.003 255.5,339.5C 250.873,324.581 244.873,310.247 237.5,296.5C 246.991,295.833 256.325,295.167 265.5,294.5 Z"/></g>
</svg>
