<?xml version="1.0" encoding="UTF-8"?>
<!DOCTYPE svg PUBLIC "-//W3C//DTD SVG 1.1//EN" "http://www.w3.org/Graphics/SVG/1.1/DTD/svg11.dtd">
<svg xmlns="http://www.w3.org/2000/svg" version="1.1" width="512px" height="512px" style="shape-rendering:geometricPrecision; text-rendering:geometricPrecision; image-rendering:optimizeQuality; fill-rule:evenodd; clip-rule:evenodd" xmlns:xlink="http://www.w3.org/1999/xlink">
<g><path style="opacity:0.992" fill="#000000" d="M 511.5,166.5 C 511.5,172.5 511.5,178.5 511.5,184.5C 505.399,217.012 486.566,238.346 455,248.5C 454.667,322.167 454.333,395.833 454,469.5C 449.167,487.667 437.667,499.167 419.5,504C 337.167,504.667 254.833,504.667 172.5,504C 154.748,499.247 143.248,488.081 138,470.5C 136.587,450.203 136.087,429.869 136.5,409.5C 123.496,409.667 110.496,409.5 97.5,409C 76.2399,406.076 62.7399,394.243 57,373.5C 56.8333,299.831 56.3333,226.164 55.5,152.5C 24.0435,142.718 5.37678,121.718 -0.5,89.5C -0.5,83.5 -0.5,77.5 -0.5,71.5C 5.63471,38.8616 24.6347,17.6949 56.5,8C 160.47,6.3465 264.47,6.01317 368.5,7C 402.333,14.1667 422.833,34.6667 430,68.5C 430.913,79.5871 430.413,90.5871 428.5,101.5C 466.889,100.262 493.389,117.262 508,152.5C 509.199,157.295 510.366,161.962 511.5,166.5 Z"/></g>
<g><path style="opacity:1" fill="#f4b442" d="M 70.5,40.5 C 166.167,40.3333 261.834,40.5 357.5,41C 376.872,42.7039 389.372,52.8706 395,71.5C 397.209,101.961 383.042,118.127 352.5,120C 346.307,122.193 342.141,126.359 340,132.5C 339.667,210.167 339.333,287.833 339,365.5C 338.768,368.738 337.268,371.238 334.5,373C 255.877,374.655 177.21,374.988 98.5,374C 94.5021,372.514 92.0021,369.68 91,365.5C 90.6667,287.5 90.3333,209.5 90,131.5C 88.3321,127.658 85.8321,124.491 82.5,122C 74.8655,120.278 67.1988,118.611 59.5,117C 36.9972,105.477 29.8305,87.6432 38,63.5C 45.1469,50.505 55.9802,42.8384 70.5,40.5 Z"/></g>
<g><path style="opacity:0.997" fill="#040201" d="M 156.5,100.5 C 169.831,100.317 175.331,106.651 173,119.5C 167.642,127.932 160.476,129.765 151.5,125C 143.681,114.897 145.348,106.73 156.5,100.5 Z"/></g>
<g><path style="opacity:0.998" fill="#050301" d="M 269.5,100.5 C 285.538,101.256 290.371,108.923 284,123.5C 277,128.833 270,128.833 263,123.5C 257.01,113.49 259.177,105.823 269.5,100.5 Z"/></g>
<g><path style="opacity:1" fill="#a67618" d="M 403.5,136.5 C 415.838,136.333 428.171,136.5 440.5,137C 466.269,141.778 478.102,157.278 476,183.5C 469.854,205.292 455.354,216.125 432.5,216C 426.64,217.859 422.807,221.693 421,227.5C 420.989,306.544 420.322,385.544 419,464.5C 416.924,467.588 414.091,469.421 410.5,470C 333.833,470.667 257.167,470.667 180.5,470C 175.763,469.052 172.929,466.219 172,461.5C 171.5,443.836 171.333,426.17 171.5,408.5C 227.168,408.667 282.834,408.5 338.5,408C 356.667,403.167 368.167,391.667 373,373.5C 373.333,299.833 373.667,226.167 374,152.5C 385.287,149.61 395.121,144.277 403.5,136.5 Z"/></g>
<g><path style="opacity:0.998" fill="#030200" d="M 212.5,185.5 C 225.673,184.505 231.506,190.505 230,203.5C 226.219,211.305 220.053,214.138 211.5,212C 203.185,206.553 201.352,199.387 206,190.5C 207.965,188.45 210.132,186.783 212.5,185.5 Z"/></g>
<g><path style="opacity:0.997" fill="#050301" d="M 155.5,270.5 C 167.503,269.347 173.669,274.68 174,286.5C 169.116,298.014 161.283,300.514 150.5,294C 144.089,284.348 145.755,276.514 155.5,270.5 Z"/></g>
<g><path style="opacity:0.998" fill="#030200" d="M 268.5,270.5 C 277.433,268.857 283.599,272.191 287,280.5C 287.139,293.026 280.973,298.526 268.5,297C 256.547,288.132 256.547,279.298 268.5,270.5 Z"/></g>
</svg>
