<?xml version="1.0" encoding="UTF-8"?>
<!DOCTYPE svg PUBLIC "-//W3C//DTD SVG 1.1//EN" "http://www.w3.org/Graphics/SVG/1.1/DTD/svg11.dtd">
<svg xmlns="http://www.w3.org/2000/svg" version="1.1" width="512px" height="512px" style="shape-rendering:geometricPrecision; text-rendering:geometricPrecision; image-rendering:optimizeQuality; fill-rule:evenodd; clip-rule:evenodd" xmlns:xlink="http://www.w3.org/1999/xlink">
<g><path style="opacity:0.983" fill="#010100" d="M 156.5,-0.5 C 159.5,-0.5 162.5,-0.5 165.5,-0.5C 192.588,19.6871 204.421,46.6871 201,80.5C 216.163,73.9044 231.996,71.7377 248.5,74C 253.79,74.9575 256.624,78.1242 257,83.5C 259.735,106.062 254.568,126.562 241.5,145C 244.126,145.995 246.793,146.328 249.5,146C 252.206,140.753 255.04,135.586 258,130.5C 263.976,125.52 270.31,125.186 277,129.5C 274.402,101.962 282.235,77.7951 300.5,57C 306.345,53.5462 312.012,53.8796 317.5,58C 326.272,63.7727 334.105,70.6061 341,78.5C 353.531,46.6594 376.698,28.3261 410.5,23.5C 412.965,23.4777 415.298,23.9777 417.5,25C 422.829,32.648 425.995,41.148 427,50.5C 430.512,73.4452 425.678,94.4452 412.5,113.5C 422.959,114.781 432.959,117.614 442.5,122C 444.487,123.319 445.654,125.152 446,127.5C 444.816,153.369 433.982,174.203 413.5,190C 417.257,191.81 420.924,193.81 424.5,196C 426.783,199.177 427.617,202.677 427,206.5C 422.516,228.31 411.349,245.81 393.5,259C 400.142,260.893 405.642,264.393 410,269.5C 410.905,275.794 409.905,281.794 407,287.5C 400.568,303.605 390.068,316.438 375.5,326C 388.417,331.925 399.25,340.425 408,351.5C 408.667,354.167 408.667,356.833 408,359.5C 387.704,390.895 358.871,404.395 321.5,400C 309.931,398.089 299.264,393.922 289.5,387.5C 286.688,400.659 284.855,413.992 284,427.5C 282.104,453.47 280.77,479.47 280,505.5C 278.64,508.023 276.807,510.023 274.5,511.5C 271.5,511.5 268.5,511.5 265.5,511.5C 262.8,509.954 260.967,507.621 260,504.5C 259.761,464.331 262.261,424.331 267.5,384.5C 254.23,384.613 241.73,381.613 230,375.5C 213.245,389.92 193.745,396.92 171.5,396.5C 171.667,432.835 171.5,469.168 171,505.5C 169.64,508.023 167.807,510.023 165.5,511.5C 162.5,511.5 159.5,511.5 156.5,511.5C 153.8,509.954 151.967,507.621 151,504.5C 150.5,468.502 150.333,432.502 150.5,396.5C 144.435,396.739 138.435,396.239 132.5,395C 128.677,393.359 126.677,390.526 126.5,386.5C 126.547,381.907 128.547,378.407 132.5,376C 138.48,376.072 144.48,376.239 150.5,376.5C 148.862,339.532 129.862,317.866 93.5,311.5C 90.7131,310.523 87.7131,310.19 84.5,310.5C 84.1984,313.059 84.5318,315.393 85.5,317.5C 85.8674,321.967 85.3674,326.3 84,330.5C 81.4768,333.288 78.3101,334.621 74.5,334.5C 70.0134,334.18 67.1801,331.847 66,327.5C 64,317.5 64,307.5 66,297.5C 66.7845,295.714 67.9512,294.214 69.5,293C 73.1837,291.896 76.8504,290.73 80.5,289.5C 66.9404,270.21 62.107,248.876 66,225.5C 69.4751,219.773 74.6418,217.273 81.5,218C 66.4629,197.686 61.6296,175.186 67,150.5C 70.8195,147.189 75.3195,145.356 80.5,145C 66.998,125.495 62.1647,103.995 66,80.5C 67.1217,78.3762 68.6217,76.5429 70.5,75C 82.1393,73.0748 93.8059,73.0748 105.5,75C 110.9,76.2438 116.066,78.0772 121,80.5C 118.157,46.8697 129.991,19.8697 156.5,-0.5 Z"/></g>
<g><path style="opacity:1" fill="#fbd68c" d="M 160.5,22.5 C 181.988,43.7368 186.821,68.4035 175,96.5C 171.705,103.433 167.205,109.433 161.5,114.5C 147.849,101.9 141.182,86.2337 141.5,67.5C 142.091,49.9944 148.424,34.9944 160.5,22.5 Z"/></g>
<g><path style="opacity:1" fill="#fbd68c" d="M 401.5,45.5 C 402.833,45.5 404.167,45.5 405.5,45.5C 412.497,79.3261 401.164,104.826 371.5,122C 367.693,123.881 363.693,125.047 359.5,125.5C 351.902,87.3577 365.902,60.691 401.5,45.5 Z"/></g>
<g><path style="opacity:1" fill="#fbd78d" d="M 309.5,78.5 C 325.15,88.0779 334.65,102.078 338,120.5C 339.824,134.929 337.49,148.595 331,161.5C 329.638,164.236 327.804,166.569 325.5,168.5C 302.643,151.448 293.81,128.781 299,100.5C 301.182,92.4708 304.682,85.1375 309.5,78.5 Z"/></g>
<g><path style="opacity:1" fill="#fcd78d" d="M 85.5,93.5 C 120.06,95.2228 141.56,112.889 150,146.5C 150.499,150.486 150.666,154.486 150.5,158.5C 115.8,157.641 94.3,140.307 86,106.5C 85.501,102.179 85.3343,97.8461 85.5,93.5 Z"/></g>
<g><path style="opacity:1" fill="#fcd78d" d="M 179.5,158.5 C 177.167,158.5 174.833,158.5 172.5,158.5C 172.5,155.833 172.5,153.167 172.5,150.5C 177.083,120.078 194.417,101.245 224.5,94C 228.821,93.501 233.154,93.3343 237.5,93.5C 236.244,124.252 221.244,145.086 192.5,156C 188.297,157.569 183.964,158.402 179.5,158.5 Z"/></g>
<g><path style="opacity:1" fill="#fcd78d" d="M 396.5,134.5 C 405.924,134.154 415.258,134.82 424.5,136.5C 417.342,164.155 399.675,180.655 371.5,186C 363.053,186.95 354.72,186.45 346.5,184.5C 346.167,183.667 345.833,182.833 345.5,182C 353.683,156.649 370.683,140.815 396.5,134.5 Z"/></g>
<g><path style="opacity:1" fill="#fcd78d" d="M 270.5,149.5 C 288.276,156.448 300.109,169.114 306,187.5C 309.709,202.035 309.042,216.368 304,230.5C 303.519,232.478 302.353,233.811 300.5,234.5C 276.715,222.459 264.715,202.959 264.5,176C 264.218,166.631 266.218,157.797 270.5,149.5 Z"/></g>
<g><path style="opacity:1" fill="#67583a" d="M 172.5,150.5 C 172.5,153.167 172.5,155.833 172.5,158.5C 174.833,158.5 177.167,158.5 179.5,158.5C 177.052,159.473 174.385,159.806 171.5,159.5C 171.19,156.287 171.523,153.287 172.5,150.5 Z"/></g>
<g><path style="opacity:1" fill="#fcd78d" d="M 93.5,166.5 C 129.865,172.877 148.865,194.544 150.5,231.5C 118.412,230.543 97.2449,214.877 87,184.5C 86.2811,180.855 85.7811,177.188 85.5,173.5C 85.5,171.167 85.5,168.833 85.5,166.5C 88.1667,166.5 90.8333,166.5 93.5,166.5 Z"/></g>
<g><path style="opacity:1" fill="#fcd88d" d="M 227.5,166.5 C 230.5,166.5 233.5,166.5 236.5,166.5C 236.5,169.833 236.5,173.167 236.5,176.5C 230.579,207.755 211.912,225.755 180.5,230.5C 177.833,230.5 175.167,230.5 172.5,230.5C 172.5,227.5 172.5,224.5 172.5,221.5C 176.223,196.936 189.556,179.769 212.5,170C 217.329,168.042 222.329,166.876 227.5,166.5 Z"/></g>
<g><path style="opacity:1" fill="#9e8758" d="M 227.5,166.5 C 230.625,165.521 233.958,165.187 237.5,165.5C 237.815,169.371 237.482,173.038 236.5,176.5C 236.5,173.167 236.5,169.833 236.5,166.5C 233.5,166.5 230.5,166.5 227.5,166.5 Z"/></g>
<g><path style="opacity:1" fill="#6e5e3e" d="M 93.5,166.5 C 90.8333,166.5 88.1667,166.5 85.5,166.5C 85.5,168.833 85.5,171.167 85.5,173.5C 84.5269,171.052 84.1936,168.385 84.5,165.5C 87.7131,165.19 90.7131,165.523 93.5,166.5 Z"/></g>
<g><path style="opacity:1" fill="#fbd68c" d="M 371.5,205.5 C 378.841,205.334 386.174,205.5 393.5,206C 397.101,206.94 400.601,208.107 404,209.5C 398.698,227.819 387.198,240.986 369.5,249C 354.342,255.6 339.008,256.1 323.5,250.5C 322.386,249.277 322.219,247.944 323,246.5C 332.591,224.968 348.758,211.301 371.5,205.5 Z"/></g>
<g><path style="opacity:1" fill="#fbd68d" d="M 256.5,227.5 C 279.174,242.194 289.008,263.194 286,290.5C 285.226,296 283.392,301 280.5,305.5C 266.6,300.1 255.933,290.933 248.5,278C 256.059,261.919 258.725,245.086 256.5,227.5 Z"/></g>
<g><path style="opacity:1" fill="#ac9360" d="M 172.5,221.5 C 172.5,224.5 172.5,227.5 172.5,230.5C 175.167,230.5 177.833,230.5 180.5,230.5C 177.713,231.477 174.713,231.81 171.5,231.5C 171.187,227.958 171.521,224.625 172.5,221.5 Z"/></g>
<g><path style="opacity:1" fill="#fcd78d" d="M 85.5,238.5 C 120.056,240.219 141.556,257.885 150,291.5C 150.499,295.486 150.666,299.486 150.5,303.5C 123.442,303.39 103.609,291.39 91,267.5C 86.7794,258.285 84.946,248.618 85.5,238.5 Z"/></g>
<g><path style="opacity:1" fill="#fcd78d" d="M 177.5,303.5 C 175.833,303.5 174.167,303.5 172.5,303.5C 172.5,300.167 172.5,296.833 172.5,293.5C 179.783,258.22 201.45,239.886 237.5,238.5C 236.213,269.277 221.213,290.11 192.5,301C 187.588,302.416 182.588,303.249 177.5,303.5 Z"/></g>
<g><path style="opacity:1" fill="#fcd78d" d="M 350.5,273.5 C 359.552,273.193 368.552,273.693 377.5,275C 381.34,275.781 384.673,277.448 387.5,280C 377.512,302.673 360.179,315.673 335.5,319C 323.855,320.837 312.855,319.003 302.5,313.5C 312.167,292.494 328.167,279.161 350.5,273.5 Z"/></g>
<g><path style="opacity:1" fill="#736240" d="M 172.5,293.5 C 172.5,296.833 172.5,300.167 172.5,303.5C 174.167,303.5 175.833,303.5 177.5,303.5C 175.735,304.461 173.735,304.795 171.5,304.5C 171.185,300.629 171.518,296.962 172.5,293.5 Z"/></g>
<g><path style="opacity:1" fill="#7e6b46" d="M 93.5,311.5 C 90.8333,311.5 88.1667,311.5 85.5,311.5C 85.5,313.5 85.5,315.5 85.5,317.5C 84.5318,315.393 84.1984,313.059 84.5,310.5C 87.7131,310.19 90.7131,310.523 93.5,311.5 Z"/></g>
<g><path style="opacity:0.997" fill="#fcd88d" d="M 93.5,311.5 C 129.862,317.866 148.862,339.532 150.5,376.5C 144.48,376.239 138.48,376.072 132.5,376C 128.547,378.407 126.547,381.907 126.5,386.5C 118.333,382.587 110.667,377.92 103.5,372.5C 109.282,363.162 106.948,357.162 96.5,354.5C 93.5829,354.964 90.9163,355.964 88.5,357.5C 83.08,350.333 78.4133,342.667 74.5,334.5C 78.3101,334.621 81.4768,333.288 84,330.5C 85.3674,326.3 85.8674,321.967 85.5,317.5C 85.5,315.5 85.5,313.5 85.5,311.5C 88.1667,311.5 90.8333,311.5 93.5,311.5 Z"/></g>
<g><path style="opacity:1" fill="#fcd78d" d="M 227.5,311.5 C 230.5,311.5 233.5,311.5 236.5,311.5C 236.5,314.833 236.5,318.167 236.5,321.5C 230.57,352.764 211.903,370.764 180.5,375.5C 177.833,375.5 175.167,375.5 172.5,375.5C 172.5,372.5 172.5,369.5 172.5,366.5C 177.751,338.414 194.084,320.247 221.5,312C 223.473,311.505 225.473,311.338 227.5,311.5 Z"/></g>
<g><path style="opacity:1" fill="#a48c5c" d="M 227.5,311.5 C 230.625,310.521 233.958,310.187 237.5,310.5C 237.815,314.371 237.482,318.038 236.5,321.5C 236.5,318.167 236.5,314.833 236.5,311.5C 233.5,311.5 230.5,311.5 227.5,311.5 Z"/></g>
<g><path style="opacity:1" fill="#f6d28a" d="M 255.5,325.5 C 256.376,325.369 257.043,325.702 257.5,326.5C 264.432,337.898 267.099,350.231 265.5,363.5C 258.199,364.034 251.199,362.868 244.5,360C 244.043,359.586 243.709,359.086 243.5,358.5C 250.274,348.51 254.274,337.51 255.5,325.5 Z"/></g>
<g><path style="opacity:1" fill="#fbd78d" d="M 332.5,340.5 C 346.883,339.244 360.55,341.744 373.5,348C 377.619,350.29 381.286,353.124 384.5,356.5C 374.473,369.69 361.14,377.523 344.5,380C 324.953,382.759 307.953,377.592 293.5,364.5C 303.501,351.665 316.501,343.665 332.5,340.5 Z"/></g>
<g><path style="opacity:0.958" fill="#030301" d="M 103.5,372.5 C 91.7069,377.185 86.2069,373.185 87,360.5C 87.5133,359.473 88.0133,358.473 88.5,357.5C 90.9163,355.964 93.5829,354.964 96.5,354.5C 106.948,357.162 109.282,363.162 103.5,372.5 Z"/></g>
<g><path style="opacity:1" fill="#a08959" d="M 172.5,366.5 C 172.5,369.5 172.5,372.5 172.5,375.5C 175.167,375.5 177.833,375.5 180.5,375.5C 177.713,376.477 174.713,376.81 171.5,376.5C 171.187,372.958 171.521,369.625 172.5,366.5 Z"/></g>
</svg>
