<?xml version="1.0" encoding="UTF-8"?>
<!DOCTYPE svg PUBLIC "-//W3C//DTD SVG 1.1//EN" "http://www.w3.org/Graphics/SVG/1.1/DTD/svg11.dtd">
<svg xmlns="http://www.w3.org/2000/svg" version="1.1" width="512px" height="512px" style="shape-rendering:geometricPrecision; text-rendering:geometricPrecision; image-rendering:optimizeQuality; fill-rule:evenodd; clip-rule:evenodd" xmlns:xlink="http://www.w3.org/1999/xlink">
<g><path style="opacity:0.969" fill="#020202" d="M 455.5,200.5 C 458.716,204.132 459.216,208.132 457,212.5C 452.5,218.333 448,224.167 443.5,230C 442.127,230.875 440.627,231.375 439,231.5C 417.509,225.586 396.009,219.92 374.5,214.5C 335.9,205.58 296.9,198.747 257.5,194C 228.361,191.459 199.195,190.959 170,192.5C 165.474,192.135 162.641,189.802 161.5,185.5C 161.58,180.851 163.914,178.018 168.5,177C 178.831,176.292 189.164,175.625 199.5,175C 212.705,156.092 225.539,136.925 238,117.5C 245.575,109.74 254.075,108.574 263.5,114C 277.387,127.887 291.221,141.721 305,155.5C 310.159,168.027 306.659,177.194 294.5,183C 311.469,186.218 328.469,188.884 345.5,191C 357.904,182.936 370.57,175.269 383.5,168C 393.424,165.548 400.924,168.715 406,177.5C 407.072,187.352 407.906,197.186 408.5,207C 417.55,209.346 426.55,211.846 435.5,214.5C 439.036,209.948 442.703,205.448 446.5,201C 449.454,199.281 452.454,199.115 455.5,200.5 Z"/></g>
<g><path style="opacity:1" fill="#595959" d="M 250.5,126.5 C 251.873,126.343 253.207,126.51 254.5,127C 266.667,139.167 278.833,151.333 291,163.5C 291.781,164.944 291.614,166.277 290.5,167.5C 283.482,170.672 277.148,174.839 271.5,180C 253.835,178.881 236.168,177.381 218.5,175.5C 229.193,159.149 239.859,142.816 250.5,126.5 Z"/></g>
<g><path style="opacity:0.973" fill="#020101" d="M 511.5,162.5 C 511.5,175.833 511.5,189.167 511.5,202.5C 507.6,217.595 503.6,232.761 499.5,248C 503.286,263.315 507.286,278.482 511.5,293.5C 511.5,306.833 511.5,320.167 511.5,333.5C 507.201,341.474 500.535,344.308 491.5,342C 481.601,337.768 473.101,331.602 466,323.5C 456.553,309.72 446.72,296.22 436.5,283C 429.754,284.798 422.921,286.632 416,288.5C 412.18,288.682 409.68,287.015 408.5,283.5C 407.705,279.406 409.038,276.239 412.5,274C 416.467,272.4 420.467,270.9 424.5,269.5C 418.899,266.13 412.899,263.63 406.5,262C 382.485,257.156 358.485,256.322 334.5,259.5C 324.427,259.963 314.427,261.129 304.5,263C 284.269,267.058 264.269,272.058 244.5,278C 198.236,283.222 152.07,282.389 106,275.5C 104.236,275.544 102.569,275.878 101,276.5C 98.8911,282.827 96.3911,288.994 93.5,295C 93.6448,295.772 93.9781,296.439 94.5,297C 144.572,314.34 195.906,319.673 248.5,313C 262.161,310.751 275.828,308.584 289.5,306.5C 320.701,300.379 351.534,292.712 382,283.5C 385.83,284.174 388.664,286.174 390.5,289.5C 390.93,292.862 389.93,295.695 387.5,298C 382.713,299.483 378.046,301.15 373.5,303C 378.761,305.545 383.594,308.712 388,312.5C 392.576,319.851 392.576,327.184 388,334.5C 380.157,341.002 373.823,348.668 369,357.5C 361.704,364.046 353.537,365.213 344.5,361C 329.05,350.378 319.383,335.878 315.5,317.5C 304.405,319.238 293.405,321.404 282.5,324C 291.183,331.995 292.683,341.161 287,351.5C 282.279,355.953 278.279,360.953 275,366.5C 270.782,374.936 267.115,383.602 264,392.5C 258.03,399.868 250.53,402.035 241.5,399C 230.76,392.927 221.926,384.761 215,374.5C 206.517,360.882 200.683,346.215 197.5,330.5C 127.59,328.917 63.923,308.417 6.5,269C 3.54644,266.559 1.21311,263.725 -0.5,260.5C -0.5,252.5 -0.5,244.5 -0.5,236.5C 3.03311,230.472 8.03311,225.972 14.5,223C 52.1413,202.508 92.1413,188.674 134.5,181.5C 138.637,181.647 141.303,183.647 142.5,187.5C 142.654,191.025 141.321,193.859 138.5,196C 124.134,198.809 109.967,202.309 96,206.5C 99.5599,214.842 102.56,223.509 105,232.5C 106.832,241.805 106.998,251.138 105.5,260.5C 139.303,265.476 173.303,267.642 207.5,267C 219.556,266.147 231.556,264.813 243.5,263C 279.573,251.233 316.573,244.399 354.5,242.5C 378.091,241.544 401.091,244.71 423.5,252C 432.587,255.448 440.087,260.948 446,268.5C 458.072,286.806 471.239,304.306 485.5,321C 488.673,323.087 492.006,324.921 495.5,326.5C 496.665,316.851 496.832,307.184 496,297.5C 491.85,280.901 488.017,264.234 484.5,247.5C 488.33,230.847 492.163,214.18 496,197.5C 496.832,188.149 496.665,178.816 495.5,169.5C 487.619,172.773 481.286,177.94 476.5,185C 473.247,186.82 469.913,186.987 466.5,185.5C 463.342,182.206 462.842,178.539 465,174.5C 474.002,161.756 486.168,154.922 501.5,154C 506.255,155.261 509.588,158.095 511.5,162.5 Z"/></g>
<g><path style="opacity:1" fill="#828282" d="M 354.5,242.5 C 361.555,233.445 368.221,224.112 374.5,214.5C 396.009,219.92 417.509,225.586 439,231.5C 440.627,231.375 442.127,230.875 443.5,230C 448,224.167 452.5,218.333 457,212.5C 459.216,208.132 458.716,204.132 455.5,200.5C 458.934,195.284 462.601,190.284 466.5,185.5C 469.913,186.987 473.247,186.82 476.5,185C 481.286,177.94 487.619,172.773 495.5,169.5C 496.665,178.816 496.832,188.149 496,197.5C 492.163,214.18 488.33,230.847 484.5,247.5C 488.017,264.234 491.85,280.901 496,297.5C 496.832,307.184 496.665,316.851 495.5,326.5C 492.006,324.921 488.673,323.087 485.5,321C 471.239,304.306 458.072,286.806 446,268.5C 440.087,260.948 432.587,255.448 423.5,252C 401.091,244.71 378.091,241.544 354.5,242.5 Z"/></g>
<g><path style="opacity:1" fill="#575757" d="M 387.5,182.5 C 388.822,182.33 389.989,182.663 391,183.5C 391.5,189.825 391.666,196.158 391.5,202.5C 382.786,200.991 374.119,199.158 365.5,197C 373.07,192.392 380.403,187.558 387.5,182.5 Z"/></g>
<g><path style="opacity:1" fill="#9a9a9a" d="M 161.5,185.5 C 162.641,189.802 165.474,192.135 170,192.5C 199.195,190.959 228.361,191.459 257.5,194C 296.9,198.747 335.9,205.58 374.5,214.5C 368.221,224.112 361.555,233.445 354.5,242.5C 316.573,244.399 279.573,251.233 243.5,263C 231.556,264.813 219.556,266.147 207.5,267C 173.303,267.642 139.303,265.476 105.5,260.5C 106.998,251.138 106.832,241.805 105,232.5C 102.56,223.509 99.5599,214.842 96,206.5C 109.967,202.309 124.134,198.809 138.5,196C 141.321,193.859 142.654,191.025 142.5,187.5C 148.812,186.646 155.145,185.979 161.5,185.5 Z"/></g>
<g><path style="opacity:1" fill="#989898" d="M 77.5,211.5 C 79.3904,211.297 80.8904,211.963 82,213.5C 95.5031,239.951 94.1698,265.617 78,290.5C 73.8333,288.958 70,286.958 66.5,284.5C 75.5725,273.115 79.7392,260.115 79,245.5C 74.7813,239.258 70.1146,238.925 65,244.5C 65.1992,254.176 62.8658,263.176 58,271.5C 55.9495,273.888 53.6162,275.888 51,277.5C 37.9292,271.385 25.7625,263.885 14.5,255C 21.8559,254.273 29.1892,254.44 36.5,255.5C 42.7123,254.427 44.879,250.76 43,244.5C 40.5523,241.527 37.3856,240.027 33.5,240C 28.5,239.667 23.5,239.333 18.5,239C 37.4744,228.177 57.1411,219.011 77.5,211.5 Z"/></g>
<g><path style="opacity:1" fill="#050505" d="M 142.5,214.5 C 150.543,214.04 153.71,217.706 152,225.5C 149.11,231.861 144.277,234.361 137.5,233C 134.208,230.588 133.041,227.421 134,223.5C 137.038,220.631 139.871,217.631 142.5,214.5 Z"/></g>
<g><path style="opacity:1" fill="#040404" d="M 191.5,214.5 C 198.657,214.155 201.824,217.488 201,224.5C 198.019,230.87 193.186,233.703 186.5,233C 182.876,230.839 181.709,227.672 183,223.5C 185.362,219.973 188.196,216.973 191.5,214.5 Z"/></g>
<g><path style="opacity:1" fill="#050505" d="M 239.5,214.5 C 247.543,214.04 250.71,217.706 249,225.5C 246.11,231.861 241.277,234.361 234.5,233C 231.208,230.588 230.041,227.421 231,223.5C 234.038,220.631 236.871,217.631 239.5,214.5 Z"/></g>
<g><path style="opacity:1" fill="#040404" d="M 288.5,214.5 C 295.676,214.173 298.842,217.506 298,224.5C 295.019,230.87 290.186,233.703 283.5,233C 279.876,230.839 278.709,227.672 280,223.5C 282.362,219.973 285.196,216.973 288.5,214.5 Z"/></g>
<g><path style="opacity:1" fill="#faaf36" d="M 408.5,283.5 C 402.579,285.696 396.579,287.696 390.5,289.5C 388.664,286.174 385.83,284.174 382,283.5C 351.534,292.712 320.701,300.379 289.5,306.5C 304.404,293.769 318.904,280.436 333,266.5C 334.458,264.04 336.291,261.873 338.5,260C 337.207,259.51 335.873,259.343 334.5,259.5C 358.485,256.322 382.485,257.156 406.5,262C 412.899,263.63 418.899,266.13 424.5,269.5C 420.467,270.9 416.467,272.4 412.5,274C 409.038,276.239 407.705,279.406 408.5,283.5 Z"/></g>
<g><path style="opacity:1" fill="#fbc043" d="M 334.5,259.5 C 335.873,259.343 337.207,259.51 338.5,260C 336.291,261.873 334.458,264.04 333,266.5C 318.904,280.436 304.404,293.769 289.5,306.5C 275.828,308.584 262.161,310.751 248.5,313C 195.906,319.673 144.572,314.34 94.5,297C 93.9781,296.439 93.6448,295.772 93.5,295C 96.3911,288.994 98.8911,282.827 101,276.5C 102.569,275.878 104.236,275.544 106,275.5C 152.07,282.389 198.236,283.222 244.5,278C 264.269,272.058 284.269,267.058 304.5,263C 314.427,261.129 324.427,259.963 334.5,259.5 Z"/></g>
<g><path style="opacity:1" fill="#f89501" d="M 349.5,307.5 C 351.527,307.338 353.527,307.505 355.5,308C 362.063,313.431 368.73,318.598 375.5,323.5C 368.174,331.521 361.34,339.854 355,348.5C 341.531,340.183 333.365,328.183 330.5,312.5C 337.061,311.278 343.394,309.611 349.5,307.5 Z"/></g>
<g><path style="opacity:1" fill="#fa9601" d="M 255.5,326.5 C 258.187,326.336 260.854,326.503 263.5,327C 267.881,331.045 271.881,335.378 275.5,340C 264.372,352.749 256.205,367.249 251,383.5C 250.275,384.059 249.442,384.392 248.5,384.5C 238.888,379.389 231.388,372.055 226,362.5C 220.14,352.119 215.974,341.119 213.5,329.5C 227.71,329.37 241.71,328.37 255.5,326.5 Z"/></g>
</svg>
