<?xml version="1.0" encoding="UTF-8"?>
<!DOCTYPE svg PUBLIC "-//W3C//DTD SVG 1.1//EN" "http://www.w3.org/Graphics/SVG/1.1/DTD/svg11.dtd">
<svg xmlns="http://www.w3.org/2000/svg" version="1.1" width="512px" height="512px" style="shape-rendering:geometricPrecision; text-rendering:geometricPrecision; image-rendering:optimizeQuality; fill-rule:evenodd; clip-rule:evenodd" xmlns:xlink="http://www.w3.org/1999/xlink">
<g><path style="opacity:0.969" fill="#010101" d="M 195.5,-0.5 C 214.833,-0.5 234.167,-0.5 253.5,-0.5C 285.327,1.47611 316.327,7.97611 346.5,19C 358.508,23.5844 368.674,30.7511 377,40.5C 396.084,81.1442 410.417,123.478 420,167.5C 436.465,236.886 444.132,307.22 443,378.5C 442.934,409.16 437.6,438.827 427,467.5C 415.952,491.73 397.452,506.396 371.5,511.5C 363.5,511.5 355.5,511.5 347.5,511.5C 338.048,509.51 329.048,506.01 320.5,501C 275.833,473.667 231.167,446.333 186.5,419C 131.828,382.314 94.6611,332.48 75,269.5C 71.4124,255.387 69.4124,241.054 69,226.5C 68.2848,168.833 67.9515,111.166 68,53.5C 70.7525,43.172 76.5859,35.0053 85.5,29C 106.83,16.4444 129.83,8.44445 154.5,5C 168.278,2.8984 181.944,1.06507 195.5,-0.5 Z"/></g>
<g><path style="opacity:1" fill="#fdb554" d="M 163.5,96.5 C 164.552,96.6495 165.552,96.4828 166.5,96C 152.32,91.9484 139.32,85.615 127.5,77C 112.69,63.6793 113.024,50.6793 128.5,38C 140.116,29.8597 152.782,23.8597 166.5,20C 165.207,19.51 163.873,19.3433 162.5,19.5C 207.097,12.4997 251.764,12.9997 296.5,21C 315.716,24.3854 334.049,30.3854 351.5,39C 356.588,42.0834 361.088,45.9167 365,50.5C 368.534,56.089 368.201,61.4223 364,66.5C 352.835,77.1689 339.669,84.3356 324.5,88C 271.316,102.198 217.65,105.031 163.5,96.5 Z"/></g>
<g><path style="opacity:1" fill="#faa432" d="M 162.5,19.5 C 163.873,19.3433 165.207,19.51 166.5,20C 152.782,23.8597 140.116,29.8597 128.5,38C 113.024,50.6793 112.69,63.6793 127.5,77C 139.32,85.615 152.32,91.9484 166.5,96C 165.552,96.4828 164.552,96.6495 163.5,96.5C 142.999,93.9582 123.332,88.4582 104.5,80C 98.0504,76.6922 92.217,72.5256 87,67.5C 81.0947,57.7469 82.928,49.5802 92.5,43C 114.074,30.0862 137.408,22.2529 162.5,19.5 Z"/></g>
<g><path style="opacity:1" fill="#a157cc" d="M 403.5,475.5 C 392.467,476.463 381.801,474.963 371.5,471C 356.334,462.252 341.334,453.252 326.5,444C 327.056,443.617 327.389,443.117 327.5,442.5C 336.333,441.033 345,438.866 353.5,436C 358.833,431.667 358.833,427.333 353.5,423C 345.991,423.04 338.658,424.373 331.5,427C 326.844,427.665 322.177,428.165 317.5,428.5C 311.048,428.916 304.715,428.416 298.5,427C 271.167,410 243.833,393 216.5,376C 211.457,371.288 206.123,366.955 200.5,363C 196.561,359.571 193.228,355.737 190.5,351.5C 192.464,347.151 191.464,343.651 187.5,341C 183.94,339.763 180.273,339.263 176.5,339.5C 151.939,311.708 133.772,280.041 122,244.5C 118.389,230.719 116.055,216.719 115,202.5C 114.5,168.502 114.333,134.502 114.5,100.5C 138.627,108.022 163.294,112.855 188.5,115C 236.37,119.354 283.37,115.021 329.5,102C 346.759,97.5415 361.759,89.2081 374.5,77C 375.332,76.3123 375.998,76.479 376.5,77.5C 396.122,128.988 409.622,181.988 417,236.5C 415.082,237.542 413.249,238.708 411.5,240C 397.511,246.828 383.178,252.828 368.5,258C 365.617,262.269 365.95,266.269 369.5,270C 373.236,270.61 376.903,270.277 380.5,269C 393.867,264.377 406.867,258.877 419.5,252.5C 421.317,259.021 422.483,265.688 423,272.5C 428.127,319.434 428.794,366.434 425,413.5C 422.863,432.771 417.53,451.104 409,468.5C 407.303,471.02 405.47,473.353 403.5,475.5 Z"/></g>
<g><path style="opacity:1" fill="#7f33ab" d="M 114.5,100.5 C 114.333,134.502 114.5,168.502 115,202.5C 116.055,216.719 118.389,230.719 122,244.5C 133.772,280.041 151.939,311.708 176.5,339.5C 167.54,338.005 158.54,337.172 149.5,337C 145.885,340.659 145.552,344.659 148.5,349C 161.148,353.386 174.148,355.052 187.5,354C 188.691,353.302 189.691,352.469 190.5,351.5C 193.228,355.737 196.561,359.571 200.5,363C 206.123,366.955 211.457,371.288 216.5,376C 243.833,393 271.167,410 298.5,427C 304.715,428.416 311.048,428.916 317.5,428.5C 303.673,429.331 289.673,429.831 275.5,430C 269.75,435.508 270.417,440.175 277.5,444C 294.234,444.977 310.901,444.477 327.5,442.5C 327.389,443.117 327.056,443.617 326.5,444C 341.334,453.252 356.334,462.252 371.5,471C 381.801,474.963 392.467,476.463 403.5,475.5C 391.768,489.699 376.602,496.699 358,496.5C 348.175,496.419 339.009,493.919 330.5,489C 304.367,473.031 278.367,456.865 252.5,440.5C 257.121,436.594 257.454,432.427 253.5,428C 242.886,425.816 232.219,423.816 221.5,422C 191.996,406.312 165.829,386.145 143,361.5C 137.975,355.309 133.142,348.976 128.5,342.5C 132.461,338.297 132.461,334.13 128.5,330C 124.116,328.543 119.949,326.71 116,324.5C 93.9592,289.668 83.4592,251.668 84.5,210.5C 84.1721,199.321 84.5054,188.321 85.5,177.5C 89.9136,180.373 94.5803,182.707 99.5,184.5C 107.02,182.96 109.02,178.793 105.5,172C 98.0807,167.875 90.914,163.375 84,158.5C 83.3333,133.833 83.3333,109.167 84,84.5C 93.3886,91.278 103.555,96.6113 114.5,100.5 Z"/></g>
<g><path style="opacity:1" fill="#060308" d="M 360.5,120.5 C 364.664,120.143 367.831,121.81 370,125.5C 370.706,127.971 370.373,130.305 369,132.5C 363.06,137.727 356.227,140.56 348.5,141C 344.293,137.93 343.46,134.097 346,129.5C 350.981,126.6 355.815,123.6 360.5,120.5 Z"/></g>
<g><path style="opacity:1" fill="#020103" d="M 318.5,135.5 C 326.712,134.226 330.546,137.559 330,145.5C 329.167,147.667 327.667,149.167 325.5,150C 313.593,152.324 301.593,153.324 289.5,153C 284.644,149.011 284.311,144.678 288.5,140C 298.698,139.019 308.698,137.519 318.5,135.5 Z"/></g>
<g><path style="opacity:1" fill="#040205" d="M 124.5,181.5 C 133.202,182.674 141.869,184.174 150.5,186C 155.833,186.333 161.167,186.667 166.5,187C 173.626,190.643 174.293,195.309 168.5,201C 152.457,202.414 137.123,199.914 122.5,193.5C 119.454,188.741 120.121,184.741 124.5,181.5 Z"/></g>
<g><path style="opacity:1" fill="#2d123d" d="M 85.5,177.5 C 84.5054,188.321 84.1721,199.321 84.5,210.5C 83.176,199.326 83.176,187.993 84.5,176.5C 85.1067,176.624 85.44,176.957 85.5,177.5 Z"/></g>
<g><path style="opacity:1" fill="#030104" d="M 339.5,263.5 C 349.765,261.92 353.265,265.92 350,275.5C 348.829,276.893 347.329,277.727 345.5,278C 322.368,282.509 299.035,284.176 275.5,283C 269.992,278.015 270.325,273.348 276.5,269C 288.167,268.667 299.833,268.333 311.5,268C 321.088,267.235 330.421,265.735 339.5,263.5 Z"/></g>
<g><path style="opacity:1" fill="#030104" d="M 176.5,339.5 C 180.273,339.263 183.94,339.763 187.5,341C 191.464,343.651 192.464,347.151 190.5,351.5C 189.691,352.469 188.691,353.302 187.5,354C 174.148,355.052 161.148,353.386 148.5,349C 145.552,344.659 145.885,340.659 149.5,337C 158.54,337.172 167.54,338.005 176.5,339.5 Z"/></g>
<g><path style="opacity:1" fill="#030104" d="M 327.5,442.5 C 310.901,444.477 294.234,444.977 277.5,444C 270.417,440.175 269.75,435.508 275.5,430C 289.673,429.831 303.673,429.331 317.5,428.5C 322.177,428.165 326.844,427.665 331.5,427C 338.658,424.373 345.991,423.04 353.5,423C 358.833,427.333 358.833,431.667 353.5,436C 345,438.866 336.333,441.033 327.5,442.5 Z"/></g>
</svg>
