<?xml version="1.0" encoding="UTF-8"?>
<!DOCTYPE svg PUBLIC "-//W3C//DTD SVG 1.1//EN" "http://www.w3.org/Graphics/SVG/1.1/DTD/svg11.dtd">
<svg xmlns="http://www.w3.org/2000/svg" version="1.1" width="512px" height="512px" style="shape-rendering:geometricPrecision; text-rendering:geometricPrecision; image-rendering:optimizeQuality; fill-rule:evenodd; clip-rule:evenodd" xmlns:xlink="http://www.w3.org/1999/xlink">
<g><path style="opacity:0.966" fill="#000100" d="M 438.5,4.5 C 443.447,3.62758 447.613,4.96091 451,8.5C 452.57,14.0527 452.903,19.7194 452,25.5C 447.618,44.6481 440.118,62.4815 429.5,79C 455.109,93.2766 476.276,112.443 493,136.5C 511.341,166.896 515.674,199.23 506,233.5C 502.455,247.144 496.788,259.81 489,271.5C 484.8,275.714 479.966,276.548 474.5,274C 446.469,256.971 423.303,234.804 405,207.5C 388.454,180.307 383.621,151.141 390.5,120C 390.167,119.167 389.833,118.333 389.5,117.5C 368.874,128.992 346.874,133.826 323.5,132C 316.833,126 316.833,120 323.5,114C 376.423,111.819 410.923,85.6523 427,35.5C 428.428,25.7837 431.095,16.4504 435,7.5C 436.145,6.36362 437.312,5.36362 438.5,4.5 Z"/></g>
<g><path style="opacity:0.984" fill="#010002" d="M -0.5,450.5 C -0.5,442.5 -0.5,434.5 -0.5,426.5C 3.05558,409.218 11.3889,394.718 24.5,383C 20.8797,375.591 17.3797,368.091 14,360.5C 8.9397,343.613 9.60637,326.946 16,310.5C 21.4405,301.396 27.2739,292.562 33.5,284C 15.0941,256.605 13.9274,228.438 30,199.5C 33.7538,193.742 38.2538,188.575 43.5,184C 51.4193,178.789 59.586,173.955 68,169.5C 63.7104,126.894 81.8771,99.0603 122.5,86C 150.221,80.9043 173.054,89.071 191,110.5C 210.618,91.4689 233.784,85.3022 260.5,92C 287.219,100.883 303.553,119.05 309.5,146.5C 354.023,149.692 377.356,173.692 379.5,218.5C 379.341,241.814 370.341,260.814 352.5,275.5C 383.454,295.143 395.287,323.143 388,359.5C 377.955,389.533 357.122,406.367 325.5,410C 317.604,410.455 309.938,409.288 302.5,406.5C 296.687,410.479 291.687,415.313 287.5,421C 268.156,436.998 246.156,442.331 221.5,437C 214.374,452.127 203.707,464.127 189.5,473C 169.36,483.287 148.86,484.12 128,475.5C 124.4,478.006 121.733,481.339 120,485.5C 94.645,510.681 65.8116,515.515 33.5,500C 15.2282,488.234 3.8949,471.734 -0.5,450.5 Z"/></g>
<g><path style="opacity:1" fill="#76cca6" d="M 418.5,97.5 C 446.783,111.617 467.95,132.95 482,161.5C 492.932,187.01 493.265,212.677 483,238.5C 475.469,216.24 468.136,193.907 461,171.5C 457.046,161.169 450.379,158.502 441,163.5C 440.107,169.672 440.773,175.672 443,181.5C 450.17,201.008 456.504,220.674 462,240.5C 441.954,225.797 426.288,207.464 415,185.5C 407.948,169.183 405.615,152.183 408,134.5C 410.416,121.834 413.916,109.5 418.5,97.5 Z"/></g>
<g><path style="opacity:1" fill="#a96cce" d="M 127.5,103.5 C 149.234,101.454 166.067,109.454 178,127.5C 178.49,128.793 178.657,130.127 178.5,131.5C 148.574,135.91 128.74,152.577 119,181.5C 117.512,187.441 116.345,193.441 115.5,199.5C 90.5147,186.183 82.0147,165.85 90,138.5C 97.2859,121.041 109.786,109.374 127.5,103.5 Z"/></g>
<g><path style="opacity:1" fill="#a96cce" d="M 228.5,110.5 C 251.957,107.488 270.457,115.488 284,134.5C 294.342,157.109 291.175,177.609 274.5,196C 263.906,194.673 253.239,194.007 242.5,194C 234.403,196.533 226.403,199.366 218.5,202.5C 203.024,194.249 194.524,181.249 193,163.5C 191.937,137.083 203.77,119.417 228.5,110.5 Z"/></g>
<g><path style="opacity:1" fill="#040706" d="M 433.5,128.5 C 443.172,129.322 446.672,134.322 444,143.5C 437.833,150.412 432.167,150.079 427,142.5C 425.17,135.832 427.337,131.165 433.5,128.5 Z"/></g>
<g><path style="opacity:1" fill="#a96bcd" d="M 171.5,151.5 C 171.392,178.124 181.726,199.957 202.5,217C 194.056,227.055 188.723,238.555 186.5,251.5C 158.962,249.13 142.129,234.463 136,207.5C 133.767,195.532 136.1,184.532 143,174.5C 150.349,163.966 159.849,156.3 171.5,151.5 Z"/></g>
<g><path style="opacity:1" fill="#a96cce" d="M 310.5,167.5 C 336.938,168.084 353.104,181.418 359,207.5C 362.299,228.284 356.132,245.451 340.5,259C 334.567,262.637 328.234,265.137 321.5,266.5C 321.894,241.455 312.227,221.289 292.5,206C 301.594,194.644 307.594,181.81 310.5,167.5 Z"/></g>
<g><path style="opacity:1" fill="#a96cce" d="M 75.5,189.5 C 82.1903,198.027 89.857,205.86 98.5,213C 105.193,216.754 112.193,219.754 119.5,222C 122.638,227.231 125.304,232.731 127.5,238.5C 110.466,250.884 100.466,267.551 97.5,288.5C 69.8292,291.913 50.9958,280.579 41,254.5C 34.7529,223.02 46.2529,201.354 75.5,189.5 Z"/></g>
<g><path style="opacity:1" fill="#a96cce" d="M 243.5,214.5 C 274.935,211.961 294.435,225.961 302,256.5C 302.896,277.879 294.729,295.045 277.5,308C 251.709,320.343 230.209,315.177 213,292.5C 199.79,266.784 203.624,243.951 224.5,224C 230.393,219.72 236.727,216.553 243.5,214.5 Z"/></g>
<g><path style="opacity:1" fill="#a96cce" d="M 138.5,254.5 C 145.75,259.13 153.417,263.297 161.5,267C 169.202,270.005 177.202,271.171 185.5,270.5C 186.947,285.393 192.28,298.726 201.5,310.5C 193.757,316.742 187.257,324.075 182,332.5C 179.636,336.219 178.136,340.219 177.5,344.5C 165.965,341.506 154.299,340.839 142.5,342.5C 120.398,328.391 112.231,308.391 118,282.5C 122.382,271.297 129.215,261.964 138.5,254.5 Z"/></g>
<g><path style="opacity:1" fill="#aa6cce" d="M 316.5,289.5 C 344.134,287.907 361.301,300.573 368,327.5C 371.807,347.236 366.974,364.403 353.5,379C 340.851,389.034 326.517,392.367 310.5,389C 283.817,378.776 271.484,359.276 273.5,330.5C 294.671,323.995 309.005,310.328 316.5,289.5 Z"/></g>
<g><path style="opacity:1" fill="#a96cce" d="M 49.5,298.5 C 61.2008,305.261 73.8675,308.928 87.5,309.5C 90.7062,309.653 93.7062,308.986 96.5,307.5C 99.1671,325.006 107.167,339.506 120.5,351C 107.843,358.656 98.3434,369.156 92,382.5C 91.5065,384.134 91.3398,385.801 91.5,387.5C 64.6616,391.666 45.8283,381.332 35,356.5C 29.3776,340.207 30.711,324.54 39,309.5C 42.0298,305.305 45.5298,301.639 49.5,298.5 Z"/></g>
<g><path style="opacity:1" fill="#a96cce" d="M 216.5,324.5 C 223.263,327.543 230.263,330.043 237.5,332C 242.767,333.191 248.101,333.691 253.5,333.5C 252.597,350.744 256.43,366.744 265,381.5C 269.967,385.466 274.634,389.799 279,394.5C 279.667,396.5 279.667,398.5 279,400.5C 264.192,416.869 246.192,421.869 225,415.5C 225.309,389.364 215.143,368.531 194.5,353C 198.364,340.749 205.697,331.249 216.5,324.5 Z"/></g>
<g><path style="opacity:1" fill="#a96cce" d="M 150.5,360.5 C 177.04,360.524 194.54,373.19 203,398.5C 208.039,426.257 197.873,446.09 172.5,458C 141.265,465.796 119.765,454.629 108,424.5C 103.824,401.351 110.991,382.518 129.5,368C 136.162,364.171 143.162,361.671 150.5,360.5 Z"/></g>
<g><path style="opacity:1" fill="#a96cce" d="M 37.5,398.5 C 40.1873,398.336 42.854,398.503 45.5,399C 58.597,406.128 72.597,409.294 87.5,408.5C 87.0058,428.524 93.5058,445.858 107,460.5C 108.373,462.695 108.706,465.029 108,467.5C 90.1997,490.028 68.3663,494.862 42.5,482C 22.1439,466.099 15.3106,445.599 22,420.5C 25.4803,411.834 30.647,404.501 37.5,398.5 Z"/></g>
</svg>
