<?xml version="1.0" encoding="UTF-8"?>
<!DOCTYPE svg PUBLIC "-//W3C//DTD SVG 1.1//EN" "http://www.w3.org/Graphics/SVG/1.1/DTD/svg11.dtd">
<svg xmlns="http://www.w3.org/2000/svg" version="1.1" width="512px" height="512px" style="shape-rendering:geometricPrecision; text-rendering:geometricPrecision; image-rendering:optimizeQuality; fill-rule:evenodd; clip-rule:evenodd" xmlns:xlink="http://www.w3.org/1999/xlink">
<g><path style="opacity:0.974" fill="#010100" d="M 131.5,-0.5 C 150.167,-0.5 168.833,-0.5 187.5,-0.5C 188.458,0.961599 189.624,2.29493 191,3.5C 191.167,48.837 191.667,94.1703 192.5,139.5C 212.762,154.26 232.595,169.593 252,185.5C 253.275,187.717 254.275,190.051 255,192.5C 251.165,281.536 246.331,370.536 240.5,459.5C 240.667,461.5 240.833,463.5 241,465.5C 243.77,467.601 245.77,470.268 247,473.5C 247.667,484.833 247.667,496.167 247,507.5C 245.624,508.705 244.458,510.038 243.5,511.5C 187.5,511.5 131.5,511.5 75.5,511.5C 73.0303,509.918 71.5303,507.585 71,504.5C 70.3333,495.833 70.3333,487.167 71,478.5C 71.4973,473.172 73.8306,468.838 78,465.5C 73.4568,377.142 68.2902,288.809 62.5,200.5C 62.8596,191.614 66.5262,184.447 73.5,179C 91.2832,166.218 108.783,153.051 126,139.5C 126.333,95.1667 126.667,50.8333 127,6.5C 127.53,3.41501 129.03,1.08167 131.5,-0.5 Z"/></g>
<g><path style="opacity:1" fill="#646c77" d="M 159.5,15.5 C 159.5,23.5 159.5,31.5 159.5,39.5C 154.167,39.5 148.833,39.5 143.5,39.5C 143.5,31.5 143.5,23.5 143.5,15.5C 148.833,15.5 154.167,15.5 159.5,15.5 Z"/></g>
<g><path style="opacity:1" fill="#424953" d="M 159.5,15.5 C 164.833,15.5 170.167,15.5 175.5,15.5C 175.5,23.5 175.5,31.5 175.5,39.5C 170.167,39.5 164.833,39.5 159.5,39.5C 159.5,31.5 159.5,23.5 159.5,15.5 Z"/></g>
<g><path style="opacity:1" fill="#343a43" d="M 159.5,55.5 C 164.833,55.5 170.167,55.5 175.5,55.5C 175.5,63.5 175.5,71.5 175.5,79.5C 170.167,79.5 164.833,79.5 159.5,79.5C 159.5,71.5 159.5,63.5 159.5,55.5 Z"/></g>
<g><path style="opacity:1" fill="#424953" d="M 159.5,55.5 C 159.5,63.5 159.5,71.5 159.5,79.5C 154.167,79.5 148.833,79.5 143.5,79.5C 143.5,71.5 143.5,63.5 143.5,55.5C 148.833,55.5 154.167,55.5 159.5,55.5 Z"/></g>
<g><path style="opacity:1" fill="#9fd367" d="M 159.5,95.5 C 159.333,114.17 159.5,132.836 160,151.5C 178.898,166.364 198.064,180.864 217.5,195C 219.956,197.408 221.789,200.241 223,203.5C 218.824,290.267 213.657,376.934 207.5,463.5C 202.833,464.167 200.167,466.833 199.5,471.5C 172.833,471.5 146.167,471.5 119.5,471.5C 118.974,468.293 117.308,465.793 114.5,464C 107.842,463.5 101.175,463.334 94.5,463.5C 89.6851,374.482 84.8518,285.482 80,196.5C 100.086,179.786 120.752,163.786 142,148.5C 143.473,130.927 143.973,113.261 143.5,95.5C 148.833,95.5 154.167,95.5 159.5,95.5 Z"/></g>
<g><path style="opacity:1" fill="#8bc051" d="M 159.5,95.5 C 164.833,95.5 170.167,95.5 175.5,95.5C 175.027,113.261 175.527,130.927 177,148.5C 197.847,164.258 218.514,180.258 239,196.5C 233.914,285.465 229.081,374.465 224.5,463.5C 218.833,463.5 213.167,463.5 207.5,463.5C 213.657,376.934 218.824,290.267 223,203.5C 221.789,200.241 219.956,197.408 217.5,195C 198.064,180.864 178.898,166.364 160,151.5C 159.5,132.836 159.333,114.17 159.5,95.5 Z"/></g>
<g><path style="opacity:1" fill="#010101" d="M 152.5,223.5 C 179.242,222.443 197.075,234.443 206,259.5C 207.633,301.801 207.967,344.134 207,386.5C 206.167,388.667 204.667,390.167 202.5,391C 173.5,391.667 144.5,391.667 115.5,391C 113.951,389.786 112.785,388.286 112,386.5C 111.045,344.141 111.378,301.808 113,259.5C 119.405,239.922 132.572,227.922 152.5,223.5 Z"/></g>
<g><path style="opacity:1" fill="#fafafa" d="M 152.5,239.5 C 171.87,237.926 184.703,246.26 191,264.5C 191.5,293.498 191.667,322.498 191.5,351.5C 170.167,351.5 148.833,351.5 127.5,351.5C 127.333,322.498 127.5,293.498 128,264.5C 131.683,251.651 139.85,243.318 152.5,239.5 Z"/></g>
<g><path style="opacity:1" fill="#050404" d="M 153.5,247.5 C 173.491,246.991 183.324,256.658 183,276.5C 176.684,292.908 165.184,298.408 148.5,293C 136.377,284.963 132.877,274.13 138,260.5C 141.869,254.452 147.035,250.118 153.5,247.5 Z"/></g>
<g><path style="opacity:1" fill="#e25160" d="M 156.5,263.5 C 164.32,263.152 167.82,266.819 167,274.5C 161.951,281.154 156.951,281.154 152,274.5C 150.776,269.626 152.276,265.959 156.5,263.5 Z"/></g>
<g><path style="opacity:0.972" fill="#000000" d="M 403.5,511.5 C 374.167,511.5 344.833,511.5 315.5,511.5C 308.982,506.311 308.982,501.144 315.5,496C 327.162,495.5 338.829,495.333 350.5,495.5C 350.667,472.164 350.5,448.831 350,425.5C 324.333,392.167 298.667,358.833 273,325.5C 269.649,320.222 270.482,315.722 275.5,312C 318.5,311.667 361.5,311.333 404.5,311C 413.879,298.41 423.379,285.91 433,273.5C 443.613,268.795 448.28,272.128 447,283.5C 440.167,292.5 433.333,301.5 426.5,310.5C 432.913,311.08 439.247,311.913 445.5,313C 447.429,316.256 447.929,319.756 447,323.5C 420.667,357.833 394.333,392.167 368,426.5C 367.5,449.498 367.333,472.498 367.5,495.5C 379.505,495.333 391.505,495.5 403.5,496C 408.792,501.165 408.792,506.332 403.5,511.5 Z"/></g>
<g><path style="opacity:1" fill="#050505" d="M 140.5,303.5 C 152.505,303.333 164.505,303.5 176.5,304C 181.981,305.476 184.148,308.976 183,314.5C 181.833,316.333 180.333,317.833 178.5,319C 165.833,319.667 153.167,319.667 140.5,319C 137.187,317.434 135.521,314.767 135.5,311C 136.299,307.896 137.966,305.396 140.5,303.5 Z"/></g>
<g><path style="opacity:1" fill="#e5e7eb" d="M 296.5,327.5 C 328.502,327.333 360.502,327.5 392.5,328C 388.12,332.711 384.12,337.711 380.5,343C 356.167,343.667 331.833,343.667 307.5,343C 303.589,337.936 299.922,332.769 296.5,327.5 Z"/></g>
<g><path style="opacity:1" fill="#cdd1d8" d="M 412.5,327.5 C 415.898,327.18 419.232,327.513 422.5,328.5C 418.641,333.191 414.975,338.025 411.5,343C 407.833,343.667 404.167,343.667 400.5,343C 404.63,337.894 408.63,332.727 412.5,327.5 Z"/></g>
<g><path style="opacity:1" fill="#050505" d="M 140.5,327.5 C 152.505,327.333 164.505,327.5 176.5,328C 181.981,329.476 184.148,332.976 183,338.5C 181.833,340.333 180.333,341.833 178.5,343C 165.833,343.667 153.167,343.667 140.5,343C 137.187,341.434 135.521,338.767 135.5,335C 136.299,331.896 137.966,329.396 140.5,327.5 Z"/></g>
<g><path style="opacity:1" fill="#9ccf65" d="M 387.5,360.5 C 391.195,359.874 392.029,360.874 390,363.5C 378.814,377.902 367.647,392.236 356.5,406.5C 344.715,390.876 332.715,375.376 320.5,360C 336.167,359.333 351.833,359.333 367.5,360C 362.212,366.744 357.045,373.577 352,380.5C 351.215,388.382 354.715,391.882 362.5,391C 371.424,381.25 379.757,371.084 387.5,360.5 Z"/></g>
<g><path style="opacity:1" fill="#88bb50" d="M 387.5,360.5 C 390.976,359.357 394.642,359.19 398.5,360C 385.851,376.812 372.851,393.312 359.5,409.5C 358.145,408.812 357.145,407.812 356.5,406.5C 367.647,392.236 378.814,377.902 390,363.5C 392.029,360.874 391.195,359.874 387.5,360.5 Z"/></g>
<g><path style="opacity:1" fill="#e95363" d="M 127.5,367.5 C 148.833,367.5 170.167,367.5 191.5,367.5C 191.5,370.167 191.5,372.833 191.5,375.5C 170.167,375.5 148.833,375.5 127.5,375.5C 127.5,372.833 127.5,370.167 127.5,367.5 Z"/></g>
<g><path style="opacity:1" fill="#8bc051" d="M 119.5,471.5 C 146.167,471.5 172.833,471.5 199.5,471.5C 200.026,474.707 201.692,477.207 204.5,479C 208.152,479.499 211.818,479.665 215.5,479.5C 215.5,484.833 215.5,490.167 215.5,495.5C 172.833,495.5 130.167,495.5 87.5,495.5C 87.5,490.167 87.5,484.833 87.5,479.5C 95.84,479.666 104.173,479.5 112.5,479C 116.768,478.234 119.101,475.734 119.5,471.5 Z"/></g>
<g><path style="opacity:1" fill="#7dae3e" d="M 215.5,479.5 C 220.833,479.5 226.167,479.5 231.5,479.5C 231.5,484.833 231.5,490.167 231.5,495.5C 226.167,495.5 220.833,495.5 215.5,495.5C 215.5,490.167 215.5,484.833 215.5,479.5 Z"/></g>
</svg>
