<?xml version="1.0" encoding="UTF-8"?>
<!DOCTYPE svg PUBLIC "-//W3C//DTD SVG 1.1//EN" "http://www.w3.org/Graphics/SVG/1.1/DTD/svg11.dtd">
<svg xmlns="http://www.w3.org/2000/svg" version="1.1" width="512px" height="512px" style="shape-rendering:geometricPrecision; text-rendering:geometricPrecision; image-rendering:optimizeQuality; fill-rule:evenodd; clip-rule:evenodd" xmlns:xlink="http://www.w3.org/1999/xlink">
<g><path style="opacity:0.978" fill="#010000" d="M 208.5,-0.5 C 239.833,-0.5 271.167,-0.5 302.5,-0.5C 307.754,1.58567 311.588,5.25234 314,10.5C 315.24,26.7946 315.906,43.1279 316,59.5C 339.011,71.8171 347.345,90.8171 341,116.5C 336.483,129.017 328.15,138.017 316,143.5C 315.333,183.5 315.333,223.5 316,263.5C 345.938,279.79 363.938,304.79 370,338.5C 371.616,390.814 371.95,443.148 371,495.5C 369.944,503.376 365.778,508.709 358.5,511.5C 289.833,511.5 221.167,511.5 152.5,511.5C 145.222,508.709 141.056,503.376 140,495.5C 139.05,443.148 139.384,390.814 141,338.5C 147.062,304.79 165.062,279.79 195,263.5C 195.667,223.5 195.667,183.5 195,143.5C 171.968,131.102 163.635,112.102 170,86.5C 174.475,73.8511 182.808,64.8511 195,59.5C 195.094,43.1279 195.76,26.7946 197,10.5C 199.412,5.25234 203.246,1.58567 208.5,-0.5 Z"/></g>
<g><path style="opacity:1" fill="#eeb041" d="M 230.5,33.5 C 247.167,33.5 263.833,33.5 280.5,33.5C 280.5,40.8333 280.5,48.1667 280.5,55.5C 263.833,55.5 247.167,55.5 230.5,55.5C 230.5,48.1667 230.5,40.8333 230.5,33.5 Z"/></g>
<g><path style="opacity:1" fill="#f1ffdf" d="M 212.5,90.5 C 241.169,90.3334 269.835,90.5 298.5,91C 307.884,94.0447 310.217,99.878 305.5,108.5C 304.5,109.333 303.5,110.167 302.5,111C 292.616,110.686 285.45,114.853 281,123.5C 280.333,175.833 280.333,228.167 281,280.5C 282.4,283.902 284.567,286.736 287.5,289C 316.912,300.076 333.079,321.242 336,352.5C 336.5,393.832 336.667,435.165 336.5,476.5C 282.5,476.5 228.5,476.5 174.5,476.5C 174.333,435.165 174.5,393.832 175,352.5C 177.921,321.242 194.088,300.076 223.5,289C 226.433,286.736 228.6,283.902 230,280.5C 230.667,228.167 230.667,175.833 230,123.5C 225.55,114.853 218.384,110.686 208.5,111C 200.5,104.667 200.5,98.3333 208.5,92C 210.058,91.79 211.391,91.29 212.5,90.5 Z"/></g>
<g><path style="opacity:0.997" fill="#0e0502" d="M 268.5,316.5 C 271.311,316.826 273.978,317.659 276.5,319C 296.945,343.153 296.278,366.82 274.5,390C 264.333,391.833 260.167,387.667 262,377.5C 277.173,361.469 277.173,345.469 262,329.5C 260.056,322.98 262.223,318.646 268.5,316.5 Z"/></g>
<g><path style="opacity:0.998" fill="#0e0502" d="M 237.5,364.5 C 250.342,363.516 257.675,369.349 259.5,382C 258.342,392.492 252.508,398.325 242,399.5C 227.84,396.851 222.506,388.517 226,374.5C 228.818,369.839 232.651,366.505 237.5,364.5 Z"/></g>
<g><path style="opacity:0.998" fill="#0e0502" d="M 265.5,392.5 C 276.211,391.101 283.378,395.434 287,405.5C 288.891,416.221 284.724,423.387 274.5,427C 257.507,427.34 250.674,419.174 254,402.5C 256.818,397.839 260.651,394.505 265.5,392.5 Z"/></g>
<g><path style="opacity:0.997" fill="#0e0502" d="M 230.5,406.5 C 246.709,408.915 252.209,417.915 247,433.5C 240.084,441.932 231.584,443.765 221.5,439C 212.174,429.292 212.174,419.626 221.5,410C 224.459,408.396 227.459,407.229 230.5,406.5 Z"/></g>
</svg>
