<?xml version="1.0" encoding="UTF-8"?>
<!DOCTYPE svg PUBLIC "-//W3C//DTD SVG 1.1//EN" "http://www.w3.org/Graphics/SVG/1.1/DTD/svg11.dtd">
<svg xmlns="http://www.w3.org/2000/svg" version="1.1" width="512px" height="512px" style="shape-rendering:geometricPrecision; text-rendering:geometricPrecision; image-rendering:optimizeQuality; fill-rule:evenodd; clip-rule:evenodd" xmlns:xlink="http://www.w3.org/1999/xlink">
<g><path style="opacity:0.978" fill="#000000" d="M 208.5,-0.5 C 239.833,-0.5 271.167,-0.5 302.5,-0.5C 307.754,1.58567 311.588,5.25234 314,10.5C 315.24,26.7946 315.906,43.1279 316,59.5C 339.011,71.8171 347.345,90.8171 341,116.5C 336.483,129.017 328.15,138.017 316,143.5C 315.333,183.5 315.333,223.5 316,263.5C 345.938,279.79 363.938,304.79 370,338.5C 371.616,390.814 371.95,443.148 371,495.5C 369.944,503.376 365.778,508.709 358.5,511.5C 289.833,511.5 221.167,511.5 152.5,511.5C 145.222,508.709 141.056,503.376 140,495.5C 139.05,443.148 139.384,390.814 141,338.5C 147.062,304.79 165.062,279.79 195,263.5C 195.667,223.5 195.667,183.5 195,143.5C 171.968,131.102 163.635,112.102 170,86.5C 174.475,73.8511 182.808,64.8511 195,59.5C 195.094,43.1279 195.76,26.7946 197,10.5C 199.412,5.25234 203.246,1.58567 208.5,-0.5 Z"/></g>
<g><path style="opacity:1" fill="#eeb041" d="M 230.5,33.5 C 247.167,33.5 263.833,33.5 280.5,33.5C 280.5,40.8333 280.5,48.1667 280.5,55.5C 263.833,55.5 247.167,55.5 230.5,55.5C 230.5,48.1667 230.5,40.8333 230.5,33.5 Z"/></g>
<g><path style="opacity:1" fill="#973722" d="M 209.5,90.5 C 239.835,90.3334 270.168,90.5 300.5,91C 308.324,94.1606 310.491,99.6606 307,107.5C 305.833,108.667 304.667,109.833 303.5,111C 292.54,110.716 285.04,115.55 281,125.5C 280.333,176.167 280.333,226.833 281,277.5C 281.854,282.364 284.354,286.197 288.5,289C 315.739,299.239 331.573,318.739 336,347.5C 336.5,390.499 336.667,433.499 336.5,476.5C 282.5,476.5 228.5,476.5 174.5,476.5C 174.333,433.499 174.5,390.499 175,347.5C 179.334,318.668 195.167,299.168 222.5,289C 226.646,286.197 229.146,282.364 230,277.5C 230.667,226.833 230.667,176.167 230,125.5C 226.619,115.885 219.785,111.385 209.5,112C 203.673,108.867 201.507,104.034 203,97.5C 204.694,94.6424 206.861,92.309 209.5,90.5 Z"/></g>
<g><path style="opacity:0.997" fill="#030100" d="M 266.5,317.5 C 269.649,317.211 272.649,317.711 275.5,319C 296.813,342.068 296.813,365.234 275.5,388.5C 266.088,391.929 261.588,388.596 262,378.5C 277.229,361.787 277.229,345.12 262,328.5C 261.333,326.5 261.333,324.5 262,322.5C 263.366,320.638 264.866,318.972 266.5,317.5 Z"/></g>
<g><path style="opacity:0.998" fill="#020000" d="M 238.5,364.5 C 255.215,365.583 261.381,374.25 257,390.5C 250.362,398.867 242.196,400.7 232.5,396C 225.447,389.863 223.614,382.363 227,373.5C 230.158,369.493 233.992,366.493 238.5,364.5 Z"/></g>
<g><path style="opacity:0.998" fill="#020000" d="M 263.5,393.5 C 273.745,391.045 281.245,394.378 286,403.5C 288.85,413.945 285.35,421.445 275.5,426C 265.485,428.242 258.318,424.742 254,415.5C 252.009,405.825 255.176,398.492 263.5,393.5 Z"/></g>
<g><path style="opacity:0.997" fill="#020000" d="M 227.5,407.5 C 244.65,407.486 251.15,415.82 247,432.5C 240.14,442.002 231.64,443.836 221.5,438C 210.757,425.287 212.757,415.12 227.5,407.5 Z"/></g>
</svg>
