<?xml version="1.0" encoding="UTF-8"?>
<!DOCTYPE svg PUBLIC "-//W3C//DTD SVG 1.1//EN" "http://www.w3.org/Graphics/SVG/1.1/DTD/svg11.dtd">
<svg xmlns="http://www.w3.org/2000/svg" version="1.1" width="512px" height="512px" style="shape-rendering:geometricPrecision; text-rendering:geometricPrecision; image-rendering:optimizeQuality; fill-rule:evenodd; clip-rule:evenodd" xmlns:xlink="http://www.w3.org/1999/xlink">
<g><path style="opacity:0.978" fill="#010000" d="M 208.5,-0.5 C 239.833,-0.5 271.167,-0.5 302.5,-0.5C 307.754,1.58567 311.588,5.25234 314,10.5C 315.24,26.7946 315.906,43.1279 316,59.5C 339.011,71.8171 347.345,90.8171 341,116.5C 336.483,129.017 328.15,138.017 316,143.5C 315.333,183.5 315.333,223.5 316,263.5C 345.938,279.79 363.938,304.79 370,338.5C 371.616,390.814 371.95,443.148 371,495.5C 369.944,503.376 365.778,508.709 358.5,511.5C 289.833,511.5 221.167,511.5 152.5,511.5C 145.222,508.709 141.056,503.376 140,495.5C 139.05,443.148 139.384,390.814 141,338.5C 147.062,304.79 165.062,279.79 195,263.5C 195.667,223.5 195.667,183.5 195,143.5C 171.968,131.102 163.635,112.102 170,86.5C 174.475,73.8511 182.808,64.8511 195,59.5C 195.094,43.1279 195.76,26.7946 197,10.5C 199.412,5.25234 203.246,1.58567 208.5,-0.5 Z"/></g>
<g><path style="opacity:1" fill="#eeb041" d="M 230.5,33.5 C 247.167,33.5 263.833,33.5 280.5,33.5C 280.5,40.8333 280.5,48.1667 280.5,55.5C 263.833,55.5 247.167,55.5 230.5,55.5C 230.5,48.1667 230.5,40.8333 230.5,33.5 Z"/></g>
<g><path style="opacity:1" fill="#fe952d" d="M 212.5,90.5 C 241.169,90.3334 269.835,90.5 298.5,91C 304.711,91.7121 308.045,95.2121 308.5,101.5C 307.921,105.576 305.921,108.743 302.5,111C 292.616,110.686 285.45,114.853 281,123.5C 280.333,175.833 280.333,228.167 281,280.5C 282.561,283.783 284.727,286.617 287.5,289C 315.347,298.845 331.514,318.345 336,347.5C 336.5,390.499 336.667,433.499 336.5,476.5C 282.5,476.5 228.5,476.5 174.5,476.5C 174.333,433.499 174.5,390.499 175,347.5C 179.888,317.95 196.388,298.117 224.5,288C 226.7,285.766 228.533,283.266 230,280.5C 230.667,228.167 230.667,175.833 230,123.5C 228.221,119.388 225.388,116.222 221.5,114C 217.167,113 212.833,112 208.5,111C 202.672,106.518 201.505,101.018 205,94.5C 207.255,92.5012 209.755,91.1679 212.5,90.5 Z"/></g>
<g><path style="opacity:0.997" fill="#0c0402" d="M 265.5,317.5 C 268.978,317.184 272.312,317.684 275.5,319C 293.045,335.761 296.211,354.928 285,376.5C 281.882,381.286 278.382,385.786 274.5,390C 264.45,391.739 260.283,387.573 262,377.5C 277.189,361.395 277.189,345.395 262,329.5C 260.593,324.643 261.76,320.643 265.5,317.5 Z"/></g>
<g><path style="opacity:0.998" fill="#0d0402" d="M 237.5,364.5 C 254.505,364.661 261.339,372.995 258,389.5C 249.028,401.498 239.028,402.498 228,392.5C 221.521,379.769 224.687,370.436 237.5,364.5 Z"/></g>
<g><path style="opacity:0.998" fill="#0d0402" d="M 265.5,392.5 C 280.676,392.174 287.843,399.508 287,414.5C 282.462,426.014 274.295,429.848 262.5,426C 253.163,419.497 250.663,410.997 255,400.5C 257.855,396.789 261.355,394.123 265.5,392.5 Z"/></g>
<g><path style="opacity:0.997" fill="#0a0301" d="M 225.5,407.5 C 238.918,405.451 246.918,410.951 249.5,424C 246.862,438.99 238.195,444.324 223.5,440C 215.374,434.007 212.874,426.174 216,416.5C 218.406,412.592 221.572,409.592 225.5,407.5 Z"/></g>
</svg>
