<?xml version="1.0" encoding="UTF-8"?>
<!DOCTYPE svg PUBLIC "-//W3C//DTD SVG 1.1//EN" "http://www.w3.org/Graphics/SVG/1.1/DTD/svg11.dtd">
<svg xmlns="http://www.w3.org/2000/svg" version="1.1" width="512px" height="512px" style="shape-rendering:geometricPrecision; text-rendering:geometricPrecision; image-rendering:optimizeQuality; fill-rule:evenodd; clip-rule:evenodd" xmlns:xlink="http://www.w3.org/1999/xlink">
<g><path style="opacity:0.978" fill="#000000" d="M 208.5,-0.5 C 239.833,-0.5 271.167,-0.5 302.5,-0.5C 307.754,1.58567 311.588,5.25234 314,10.5C 315.24,26.7946 315.906,43.1279 316,59.5C 339.011,71.8171 347.345,90.8171 341,116.5C 336.483,129.017 328.15,138.017 316,143.5C 315.333,183.5 315.333,223.5 316,263.5C 345.938,279.79 363.938,304.79 370,338.5C 371.616,390.814 371.95,443.148 371,495.5C 369.944,503.376 365.778,508.709 358.5,511.5C 289.833,511.5 221.167,511.5 152.5,511.5C 145.222,508.709 141.056,503.376 140,495.5C 139.05,443.148 139.384,390.814 141,338.5C 147.062,304.79 165.062,279.79 195,263.5C 195.667,223.5 195.667,183.5 195,143.5C 171.968,131.102 163.635,112.102 170,86.5C 174.475,73.8511 182.808,64.8511 195,59.5C 195.094,43.1279 195.76,26.7946 197,10.5C 199.412,5.25234 203.246,1.58567 208.5,-0.5 Z"/></g>
<g><path style="opacity:1" fill="#eeb041" d="M 230.5,33.5 C 247.167,33.5 263.833,33.5 280.5,33.5C 280.5,40.8333 280.5,48.1667 280.5,55.5C 263.833,55.5 247.167,55.5 230.5,55.5C 230.5,48.1667 230.5,40.8333 230.5,33.5 Z"/></g>
<g><path style="opacity:0.999" fill="#451a10" d="M 209.5,90.5 C 240.168,90.3334 270.835,90.5 301.5,91C 308.414,94.723 310.247,100.223 307,107.5C 305.457,109.378 303.624,110.878 301.5,112C 291.215,111.385 284.381,115.885 281,125.5C 280.333,175.833 280.333,226.167 281,276.5C 281.742,281.151 283.908,284.984 287.5,288C 314.016,297.512 330.182,316.012 336,343.5C 336.5,388.165 336.667,432.832 336.5,477.5C 282.5,477.5 228.5,477.5 174.5,477.5C 174.333,432.832 174.5,388.165 175,343.5C 180.818,316.012 196.984,297.512 223.5,288C 227.092,284.984 229.258,281.151 230,276.5C 230.667,226.167 230.667,175.833 230,125.5C 226.619,115.885 219.785,111.385 209.5,112C 203.397,108.96 201.231,104.126 203,97.5C 204.425,94.3937 206.592,92.0604 209.5,90.5 Z"/></g>
<g><path style="opacity:0.997" fill="#010000" d="M 267.5,317.5 C 270.893,317.062 273.893,317.895 276.5,320C 292.232,337.361 294.732,356.527 284,377.5C 280.905,383.597 276.239,387.93 270,390.5C 264.939,389.606 262.106,386.606 261.5,381.5C 266.332,375.137 270.165,368.137 273,360.5C 275.257,348.605 271.924,338.605 263,330.5C 260.528,324.779 262.028,320.446 267.5,317.5 Z"/></g>
<g><path style="opacity:0.998" fill="#000000" d="M 236.5,365.5 C 252.65,364.149 259.817,371.483 258,387.5C 253.058,397.719 245.225,400.885 234.5,397C 225.17,390.819 223.004,382.652 228,372.5C 230.441,369.546 233.275,367.213 236.5,365.5 Z"/></g>
<g><path style="opacity:0.998" fill="#000000" d="M 264.5,393.5 C 280.65,392.149 287.817,399.483 286,415.5C 280.332,426.689 271.832,429.522 260.5,424C 253.146,417.315 251.646,409.482 256,400.5C 258.441,397.546 261.275,395.213 264.5,393.5 Z"/></g>
<g><path style="opacity:0.997" fill="#000000" d="M 227.5,407.5 C 245.25,408.012 251.416,416.679 246,433.5C 237.136,443.759 227.803,444.092 218,434.5C 212.138,422.295 215.305,413.295 227.5,407.5 Z"/></g>
</svg>
