<?xml version="1.0" encoding="UTF-8"?>
<!DOCTYPE svg PUBLIC "-//W3C//DTD SVG 1.1//EN" "http://www.w3.org/Graphics/SVG/1.1/DTD/svg11.dtd">
<svg xmlns="http://www.w3.org/2000/svg" version="1.1" width="512px" height="512px" style="shape-rendering:geometricPrecision; text-rendering:geometricPrecision; image-rendering:optimizeQuality; fill-rule:evenodd; clip-rule:evenodd" xmlns:xlink="http://www.w3.org/1999/xlink">
<g><path style="opacity:0.973" fill="#010100" d="M 325.5,-0.5 C 349.5,-0.5 373.5,-0.5 397.5,-0.5C 400.049,1.55577 401.549,4.22244 402,7.5C 402.027,50.8712 402.693,94.2045 404,137.5C 404.899,141.538 406.566,145.205 409,148.5C 419.712,160.876 430.045,173.543 440,186.5C 445.315,194.464 448.982,203.131 451,212.5C 451.667,305.167 451.667,397.833 451,490.5C 448.5,501 442,507.5 431.5,510C 384.833,510.667 338.167,510.667 291.5,510C 281.442,507.609 274.942,501.443 272,491.5C 271.333,397.833 271.333,304.167 272,210.5C 273.977,202.232 277.31,194.566 282,187.5C 291.281,174.617 301.281,162.284 312,150.5C 315.388,146.391 317.721,141.725 319,136.5C 320.296,92.8618 320.962,49.1951 321,5.5C 321.804,2.85408 323.304,0.854084 325.5,-0.5 Z"/></g>
<g><path style="opacity:1" fill="#f97e85" d="M 363.5,14.5 C 363.5,21.1667 363.5,27.8333 363.5,34.5C 354.5,34.5 345.5,34.5 336.5,34.5C 336.5,27.8333 336.5,21.1667 336.5,14.5C 345.5,14.5 354.5,14.5 363.5,14.5 Z"/></g>
<g><path style="opacity:1" fill="#fd646f" d="M 363.5,14.5 C 371.167,14.5 378.833,14.5 386.5,14.5C 386.5,28.8333 386.5,43.1667 386.5,57.5C 378.833,57.5 371.167,57.5 363.5,57.5C 363.5,54.8333 363.5,52.1667 363.5,49.5C 368.266,47.4004 370.099,43.7338 369,38.5C 367.549,36.5359 365.716,35.2026 363.5,34.5C 363.5,27.8333 363.5,21.1667 363.5,14.5 Z"/></g>
<g><path style="opacity:1" fill="#fb7f86" d="M 363.5,49.5 C 363.5,52.1667 363.5,54.8333 363.5,57.5C 355.368,59.0788 353.368,63.5788 357.5,71C 359.345,72.128 361.345,72.628 363.5,72.5C 363.5,75.8333 363.5,79.1667 363.5,82.5C 354.5,82.5 345.5,82.5 336.5,82.5C 336.5,71.5 336.5,60.5 336.5,49.5C 345.5,49.5 354.5,49.5 363.5,49.5 Z"/></g>
<g><path style="opacity:1" fill="#fc636e" d="M 363.5,72.5 C 371.167,72.5 378.833,72.5 386.5,72.5C 386.5,75.8333 386.5,79.1667 386.5,82.5C 378.833,82.5 371.167,82.5 363.5,82.5C 363.5,79.1667 363.5,75.8333 363.5,72.5 Z"/></g>
<g><path style="opacity:1" fill="#fceeac" d="M 386.5,98.5 C 379.167,98.5 371.833,98.5 364.5,98.5C 364.333,110.171 364.5,121.838 365,133.5C 365.856,141.741 368.856,149.074 374,155.5C 386.144,168.639 397.144,182.639 407,197.5C 409.277,202.387 411.277,207.387 413,212.5C 413.5,229.163 413.667,245.83 413.5,262.5C 379.208,261.347 344.875,261.18 310.5,262C 309.333,263.167 308.167,264.333 307,265.5C 306.333,294.5 306.333,323.5 307,352.5C 307.863,356.518 310.363,358.518 314.5,358.5C 314.5,363.5 314.5,368.5 314.5,373.5C 310.91,373.544 308.41,375.211 307,378.5C 306.333,397.5 306.333,416.5 307,435.5C 307.785,437.286 308.951,438.786 310.5,440C 344.875,440.82 379.208,440.653 413.5,439.5C 413.667,456.17 413.5,472.837 413,489.5C 412.293,491.081 411.46,492.581 410.5,494C 416.157,494.499 421.824,494.666 427.5,494.5C 383.335,495.665 339.002,495.831 294.5,495C 290.667,493.833 288.167,491.333 287,487.5C 286.333,396.167 286.333,304.833 287,213.5C 289.197,206.773 292.197,200.439 296,194.5C 304.856,182.798 314.189,171.465 324,160.5C 329.979,153.244 333.646,144.91 335,135.5C 336.152,122.859 336.652,110.192 336.5,97.5C 353.342,97.1702 370.008,97.5035 386.5,98.5 Z"/></g>
<g><path style="opacity:1" fill="#f7e379" d="M 386.5,98.5 C 386.334,108.172 386.5,117.839 387,127.5C 387.182,138.86 390.515,149.193 397,158.5C 408.427,171.256 419.093,184.589 429,198.5C 432.168,203.834 434.501,209.501 436,215.5C 436.667,305.833 436.667,396.167 436,486.5C 434.578,490.758 431.745,493.424 427.5,494.5C 421.824,494.666 416.157,494.499 410.5,494C 411.46,492.581 412.293,491.081 413,489.5C 413.5,472.837 413.667,456.17 413.5,439.5C 413.987,438.527 414.487,437.527 415,436.5C 415.667,379.5 415.667,322.5 415,265.5C 414.487,264.473 413.987,263.473 413.5,262.5C 413.667,245.83 413.5,229.163 413,212.5C 411.277,207.387 409.277,202.387 407,197.5C 397.144,182.639 386.144,168.639 374,155.5C 368.856,149.074 365.856,141.741 365,133.5C 364.5,121.838 364.333,110.171 364.5,98.5C 371.833,98.5 379.167,98.5 386.5,98.5 Z"/></g>
<g><path style="opacity:0.969" fill="#030303" d="M 176.5,511.5 C 146.167,511.5 115.833,511.5 85.5,511.5C 76.7758,507.607 71.6091,500.94 70,491.5C 66.0007,420.516 62.6674,349.516 60,278.5C 61.966,270.531 66.7993,265.031 74.5,262C 93.4506,260.858 112.451,260.358 131.5,260.5C 150.549,260.358 169.549,260.858 188.5,262C 196.612,265.112 201.445,270.946 203,279.5C 200.133,349.505 196.8,419.505 193,489.5C 192.181,500.469 186.681,507.802 176.5,511.5 Z"/></g>
<g><path style="opacity:1" fill="#030201" d="M 413.5,262.5 C 413.987,263.473 414.487,264.473 415,265.5C 415.667,322.5 415.667,379.5 415,436.5C 414.487,437.527 413.987,438.527 413.5,439.5C 379.208,440.653 344.875,440.82 310.5,440C 308.951,438.786 307.785,437.286 307,435.5C 306.333,416.5 306.333,397.5 307,378.5C 308.41,375.211 310.91,373.544 314.5,373.5C 317.195,373.933 319.362,375.266 321,377.5C 321.5,393.497 321.667,409.497 321.5,425.5C 340.5,425.5 359.5,425.5 378.5,425.5C 386.167,425.5 393.833,425.5 401.5,425.5C 401.5,375.833 401.5,326.167 401.5,276.5C 393.833,276.5 386.167,276.5 378.5,276.5C 359.5,276.5 340.5,276.5 321.5,276.5C 321.667,302.169 321.5,327.835 321,353.5C 319.841,356.493 317.675,358.16 314.5,358.5C 310.363,358.518 307.863,356.518 307,352.5C 306.333,323.5 306.333,294.5 307,265.5C 308.167,264.333 309.333,263.167 310.5,262C 344.875,261.18 379.208,261.347 413.5,262.5 Z"/></g>
<g><path style="opacity:1" fill="#fefeef" d="M 163.5,276.5 C 165.002,279.432 165.669,282.599 165.5,286C 164.231,300.474 163.564,314.974 163.5,329.5C 150.829,329.333 138.162,329.5 125.5,330C 122.211,331.41 120.544,333.91 120.5,337.5C 115.5,337.5 110.5,337.5 105.5,337.5C 105.062,333.808 103.062,331.308 99.5,330C 92.1742,329.5 84.8409,329.334 77.5,329.5C 75.9024,312.866 75.4024,296.199 76,279.5C 76.8333,278.667 77.6667,277.833 78.5,277C 106.831,276.5 135.165,276.333 163.5,276.5 Z"/></g>
<g><path style="opacity:1" fill="#eeeed1" d="M 163.5,276.5 C 170.175,276.334 176.842,276.5 183.5,277C 184.931,277.465 186.097,278.299 187,279.5C 187.126,296.182 186.626,312.848 185.5,329.5C 178.167,329.5 170.833,329.5 163.5,329.5C 163.564,314.974 164.231,300.474 165.5,286C 165.669,282.599 165.002,279.432 163.5,276.5 Z"/></g>
<g><path style="opacity:1" fill="#fb7f86" d="M 378.5,276.5 C 378.5,285.167 378.5,293.833 378.5,302.5C 365.829,302.333 353.162,302.5 340.5,303C 334.241,307.167 333.908,311.833 339.5,317C 353.496,317.5 367.496,317.667 381.5,317.5C 380.791,318.404 379.791,318.737 378.5,318.5C 378.5,326.833 378.5,335.167 378.5,343.5C 365.496,343.333 352.496,343.5 339.5,344C 334.167,348.667 334.167,353.333 339.5,358C 352.496,358.5 365.496,358.667 378.5,358.5C 378.5,366.833 378.5,375.167 378.5,383.5C 379.791,383.263 380.791,383.596 381.5,384.5C 367.496,384.333 353.496,384.5 339.5,385C 335.876,387.161 334.709,390.328 336,394.5C 336.833,396.667 338.333,398.167 340.5,399C 353.162,399.5 365.829,399.667 378.5,399.5C 378.5,408.167 378.5,416.833 378.5,425.5C 359.5,425.5 340.5,425.5 321.5,425.5C 321.667,409.497 321.5,393.497 321,377.5C 319.362,375.266 317.195,373.933 314.5,373.5C 314.5,368.5 314.5,363.5 314.5,358.5C 317.675,358.16 319.841,356.493 321,353.5C 321.5,327.835 321.667,302.169 321.5,276.5C 340.5,276.5 359.5,276.5 378.5,276.5 Z"/></g>
<g><path style="opacity:1" fill="#f7616c" d="M 378.5,276.5 C 386.167,276.5 393.833,276.5 401.5,276.5C 401.5,326.167 401.5,375.833 401.5,425.5C 393.833,425.5 386.167,425.5 378.5,425.5C 378.5,416.833 378.5,408.167 378.5,399.5C 385.18,398.806 388.013,395.14 387,388.5C 385.549,386.536 383.716,385.203 381.5,384.5C 380.791,383.596 379.791,383.263 378.5,383.5C 378.5,375.167 378.5,366.833 378.5,358.5C 387.482,357.04 389.482,352.54 384.5,345C 382.655,343.872 380.655,343.372 378.5,343.5C 378.5,335.167 378.5,326.833 378.5,318.5C 379.791,318.737 380.791,318.404 381.5,317.5C 387.532,314.84 388.866,310.674 385.5,305C 383.559,303.097 381.226,302.264 378.5,302.5C 378.5,293.833 378.5,285.167 378.5,276.5 Z"/></g>
<g><path style="opacity:1" fill="#070302" d="M 378.5,302.5 C 381.226,302.264 383.559,303.097 385.5,305C 388.866,310.674 387.532,314.84 381.5,317.5C 367.496,317.667 353.496,317.5 339.5,317C 333.908,311.833 334.241,307.167 340.5,303C 353.162,302.5 365.829,302.333 378.5,302.5 Z"/></g>
<g><path style="opacity:1" fill="#fceead" d="M 105.5,337.5 C 110.5,337.5 115.5,337.5 120.5,337.5C 120.744,340.263 122.077,342.429 124.5,344C 144.671,344.168 164.671,344.668 184.5,345.5C 176.833,345.5 169.167,345.5 161.5,345.5C 160.229,395.983 157.562,446.317 153.5,496.5C 132.164,496.667 110.831,496.5 89.5,496C 88.3333,494.833 87.1667,493.667 86,492.5C 82.849,443.235 80.349,393.902 78.5,344.5C 85.8409,344.666 93.1742,344.5 100.5,344C 103.493,342.841 105.16,340.675 105.5,337.5 Z"/></g>
<g><path style="opacity:1" fill="#030101" d="M 378.5,343.5 C 380.655,343.372 382.655,343.872 384.5,345C 389.482,352.54 387.482,357.04 378.5,358.5C 365.496,358.667 352.496,358.5 339.5,358C 334.167,353.333 334.167,348.667 339.5,344C 352.496,343.5 365.496,343.333 378.5,343.5 Z"/></g>
<g><path style="opacity:1" fill="#fce77c" d="M 184.5,345.5 C 182.173,394.172 179.673,442.838 177,491.5C 176.167,493.667 174.667,495.167 172.5,496C 166.175,496.5 159.842,496.666 153.5,496.5C 157.562,446.317 160.229,395.983 161.5,345.5C 169.167,345.5 176.833,345.5 184.5,345.5 Z"/></g>
<g><path style="opacity:1" fill="#080303" d="M 381.5,384.5 C 383.716,385.203 385.549,386.536 387,388.5C 388.013,395.14 385.18,398.806 378.5,399.5C 365.829,399.667 353.162,399.5 340.5,399C 338.333,398.167 336.833,396.667 336,394.5C 334.709,390.328 335.876,387.161 339.5,385C 353.496,384.5 367.496,384.333 381.5,384.5 Z"/></g>
</svg>
