<?xml version="1.0" encoding="UTF-8"?>
<!DOCTYPE svg PUBLIC "-//W3C//DTD SVG 1.1//EN" "http://www.w3.org/Graphics/SVG/1.1/DTD/svg11.dtd">
<svg xmlns="http://www.w3.org/2000/svg" version="1.1" width="512px" height="512px" style="shape-rendering:geometricPrecision; text-rendering:geometricPrecision; image-rendering:optimizeQuality; fill-rule:evenodd; clip-rule:evenodd" xmlns:xlink="http://www.w3.org/1999/xlink">
<g><path style="opacity:0.978" fill="#010000" d="M 121.5,-0.5 C 149.167,-0.5 176.833,-0.5 204.5,-0.5C 206.27,1.11327 207.436,3.11327 208,5.5C 208.667,18.8333 208.667,32.1667 208,45.5C 207.459,48.209 205.959,50.209 203.5,51.5C 202.333,91.8292 202.167,132.163 203,172.5C 203.725,174.949 204.725,177.283 206,179.5C 211.041,184.598 216.541,189.098 222.5,193C 233.699,204.23 240.532,217.73 243,233.5C 243.667,319.167 243.667,404.833 243,490.5C 240.059,500.936 233.559,507.936 223.5,511.5C 182.833,511.5 142.167,511.5 101.5,511.5C 92.1841,508.349 86.0174,502.016 83,492.5C 82.3333,434.167 82.3333,375.833 83,317.5C 84.7342,315.549 86.9009,314.549 89.5,314.5C 93.0627,314.625 95.5627,316.292 97,319.5C 97.5,374.499 97.6667,429.499 97.5,484.5C 97.5848,490.181 100.251,494.014 105.5,496C 143.5,496.667 181.5,496.667 219.5,496C 222.937,494.895 225.437,492.728 227,489.5C 227.667,403.5 227.667,317.5 227,231.5C 222.754,215.252 213.254,203.085 198.5,195C 190.697,186.768 186.697,176.935 186.5,165.5C 177.833,165.5 169.167,165.5 160.5,165.5C 153.167,165.5 145.833,165.5 138.5,165.5C 138.757,178.242 134.09,188.742 124.5,197C 110.317,205.197 101.484,217.364 98,233.5C 97.6667,252.167 97.3333,270.833 97,289.5C 95.5897,292.789 93.0897,294.456 89.5,294.5C 86.6755,294.919 84.5088,293.919 83,291.5C 82.0554,269.458 82.3887,247.458 84,225.5C 87.8519,211.323 95.3519,199.489 106.5,190C 115.719,186.118 121.219,179.285 123,169.5C 123.667,130.5 123.667,91.5 123,52.5C 120.667,51.5 119,49.8333 118,47.5C 117.333,32.8333 117.333,18.1667 118,3.5C 119.032,1.97331 120.199,0.639972 121.5,-0.5 Z"/></g>
<g><path style="opacity:1" fill="#ee534f" d="M 133.5,14.5 C 143.833,14.5 154.167,14.5 164.5,14.5C 164.5,21.8333 164.5,29.1667 164.5,36.5C 154.167,36.5 143.833,36.5 133.5,36.5C 133.5,29.1667 133.5,21.8333 133.5,14.5 Z"/></g>
<g><path style="opacity:1" fill="#d22f2e" d="M 164.5,14.5 C 173.833,14.5 183.167,14.5 192.5,14.5C 192.5,21.8333 192.5,29.1667 192.5,36.5C 183.167,36.5 173.833,36.5 164.5,36.5C 164.5,29.1667 164.5,21.8333 164.5,14.5 Z"/></g>
<g><path style="opacity:1" fill="#581c1b" d="M 133.5,14.5 C 133.5,21.8333 133.5,29.1667 133.5,36.5C 143.833,36.5 154.167,36.5 164.5,36.5C 173.833,36.5 183.167,36.5 192.5,36.5C 172.674,37.4971 152.674,37.8305 132.5,37.5C 132.175,29.6484 132.508,21.9818 133.5,14.5 Z"/></g>
<g><path style="opacity:1" fill="#b73a37" d="M 186.5,52.5 C 179.167,52.5 171.833,52.5 164.5,52.5C 156.167,52.5 147.833,52.5 139.5,52.5C 139.5,71.5 139.5,90.5 139.5,109.5C 139.5,113.5 139.5,117.5 139.5,121.5C 138.502,98.3393 138.169,75.006 138.5,51.5C 154.675,51.1703 170.675,51.5036 186.5,52.5 Z"/></g>
<g><path style="opacity:1" fill="#ee524f" d="M 164.5,52.5 C 164.949,66.9058 164.449,81.2391 163,95.5C 158.379,105.399 150.546,110.066 139.5,109.5C 139.5,90.5 139.5,71.5 139.5,52.5C 147.833,52.5 156.167,52.5 164.5,52.5 Z"/></g>
<g><path style="opacity:1" fill="#d32f2f" d="M 164.5,52.5 C 171.833,52.5 179.167,52.5 186.5,52.5C 186.5,75.5 186.5,98.5 186.5,121.5C 170.833,121.5 155.167,121.5 139.5,121.5C 139.5,117.5 139.5,113.5 139.5,109.5C 150.546,110.066 158.379,105.399 163,95.5C 164.449,81.2391 164.949,66.9058 164.5,52.5 Z"/></g>
<g><path style="opacity:1" fill="#fcc727" d="M 154.5,136.5 C 154.5,141.167 154.5,145.833 154.5,150.5C 149.167,150.5 143.833,150.5 138.5,150.5C 138.5,145.833 138.5,141.167 138.5,136.5C 143.833,136.5 149.167,136.5 154.5,136.5 Z"/></g>
<g><path style="opacity:1" fill="#fd9f00" d="M 154.5,136.5 C 165.167,136.5 175.833,136.5 186.5,136.5C 186.5,141.167 186.5,145.833 186.5,150.5C 175.833,150.5 165.167,150.5 154.5,150.5C 154.5,145.833 154.5,141.167 154.5,136.5 Z"/></g>
<g><path style="opacity:0.972" fill="#010000" d="M 410.5,511.5 C 368.167,511.5 325.833,511.5 283.5,511.5C 280.106,507.938 279.273,503.938 281,499.5C 293.912,490.626 307.078,482.126 320.5,474C 322.378,472.457 323.878,470.624 325,468.5C 326.639,434.547 326.972,400.547 326,366.5C 325.492,361.988 323.325,358.488 319.5,356C 285.332,341.811 267.665,316.144 266.5,279C 268.722,241.448 271.555,203.948 275,166.5C 276.214,164.951 277.714,163.785 279.5,163C 324.833,162.333 370.167,162.333 415.5,163C 417.667,163.833 419.167,165.333 420,167.5C 423.188,204.972 426.022,242.472 428.5,280C 426.248,317.854 407.581,343.854 372.5,358C 370.898,359.935 369.731,362.101 369,364.5C 368.333,398.5 368.333,432.5 369,466.5C 370.061,469.562 371.894,472.062 374.5,474C 387.418,482.042 400.251,490.208 413,498.5C 415.533,503.649 414.7,507.982 410.5,511.5 Z"/></g>
<g><path style="opacity:0.999" fill="#747474" d="M 160.5,165.5 C 167.77,171.596 174.937,177.93 182,184.5C 188.483,192.801 192.816,202.134 195,212.5C 195.5,229.497 195.667,246.497 195.5,263.5C 168.498,263.333 141.498,263.5 114.5,264C 112.622,265.543 111.122,267.376 110,269.5C 109.333,316.167 109.333,362.833 110,409.5C 111.167,412 113,413.833 115.5,415C 130.167,415.667 144.833,415.667 159.5,415C 163.531,414.097 165.531,411.597 165.5,407.5C 172.167,407.5 178.833,407.5 185.5,407.5C 186.092,411.089 188.092,413.422 191.5,414.5C 192.568,415.434 193.901,415.768 195.5,415.5C 195.667,433.503 195.5,451.503 195,469.5C 192.758,477.408 187.591,482.241 179.5,484C 152.169,484.5 124.835,484.667 97.5,484.5C 97.6667,429.499 97.5,374.499 97,319.5C 95.5627,316.292 93.0627,314.625 89.5,314.5C 89.5,307.833 89.5,301.167 89.5,294.5C 93.0897,294.456 95.5897,292.789 97,289.5C 97.3333,270.833 97.6667,252.167 98,233.5C 101.484,217.364 110.317,205.197 124.5,197C 134.09,188.742 138.757,178.242 138.5,165.5C 145.833,165.5 153.167,165.5 160.5,165.5 Z"/></g>
<g><path style="opacity:1" fill="#414141" d="M 160.5,165.5 C 169.167,165.5 177.833,165.5 186.5,165.5C 186.697,176.935 190.697,186.768 198.5,195C 213.254,203.085 222.754,215.252 227,231.5C 227.667,317.5 227.667,403.5 227,489.5C 225.437,492.728 222.937,494.895 219.5,496C 181.5,496.667 143.5,496.667 105.5,496C 100.251,494.014 97.5848,490.181 97.5,484.5C 124.835,484.667 152.169,484.5 179.5,484C 187.591,482.241 192.758,477.408 195,469.5C 195.5,451.503 195.667,433.503 195.5,415.5C 193.901,415.768 192.568,415.434 191.5,414.5C 198.175,414.666 204.842,414.5 211.5,414C 213.333,413.5 214.5,412.333 215,410.5C 215.667,363.167 215.667,315.833 215,268.5C 214.167,266.333 212.667,264.833 210.5,264C 205.511,263.501 200.511,263.334 195.5,263.5C 195.667,246.497 195.5,229.497 195,212.5C 192.816,202.134 188.483,192.801 182,184.5C 174.937,177.93 167.77,171.596 160.5,165.5 Z"/></g>
<g><path style="opacity:1" fill="#e1f0fb" d="M 289.5,178.5 C 317.833,178.5 346.167,178.5 374.5,178.5C 376.131,198.982 377.798,219.315 379.5,239.5C 379.5,239.833 379.5,240.167 379.5,240.5C 375.466,240.505 371.466,240.838 367.5,241.5C 366.282,237.62 363.615,235.62 359.5,235.5C 334.761,240.937 309.761,244.27 284.5,245.5C 285.242,222.949 286.908,200.616 289.5,178.5 Z"/></g>
<g><path style="opacity:1" fill="#8bc1ed" d="M 289.5,178.5 C 327.998,177.335 366.664,177.169 405.5,178C 407.408,195.738 408.742,213.572 409.5,231.5C 403.491,231.334 397.491,231.501 391.5,232C 388.479,233.539 387.146,236.039 387.5,239.5C 384.833,239.5 382.167,239.5 379.5,239.5C 377.798,219.315 376.131,198.982 374.5,178.5C 346.167,178.5 317.833,178.5 289.5,178.5 Z"/></g>
<g><path style="opacity:1" fill="#d02e2e" d="M 379.5,239.5 C 382.167,239.5 384.833,239.5 387.5,239.5C 387.393,241.903 388.393,243.736 390.5,245C 397.414,245.186 404.247,245.686 411,246.5C 412.355,261.146 412.688,275.812 412,290.5C 405.103,320.396 386.603,338.563 356.5,345C 338.994,347.209 323.327,343.042 309.5,332.5C 346.083,329.286 369.249,309.953 379,274.5C 380.832,263.189 380.999,251.856 379.5,240.5C 379.5,240.167 379.5,239.833 379.5,239.5 Z"/></g>
<g><path style="opacity:1" fill="#ed524f" d="M 379.5,240.5 C 380.999,251.856 380.832,263.189 379,274.5C 369.249,309.953 346.083,329.286 309.5,332.5C 302.233,328.401 296.4,322.734 292,315.5C 282.192,298.316 279.192,279.983 283,260.5C 309.44,259.533 335.607,256.033 361.5,250C 365.823,248.866 367.823,246.033 367.5,241.5C 371.466,240.838 375.466,240.505 379.5,240.5 Z"/></g>
<g><path style="opacity:1" fill="#030302" d="M 195.5,263.5 C 200.511,263.334 205.511,263.501 210.5,264C 212.667,264.833 214.167,266.333 215,268.5C 215.667,315.833 215.667,363.167 215,410.5C 214.5,412.333 213.333,413.5 211.5,414C 204.842,414.5 198.175,414.666 191.5,414.5C 188.092,413.422 186.092,411.089 185.5,407.5C 185.744,404.737 187.077,402.571 189.5,401C 193.152,400.501 196.818,400.335 200.5,400.5C 200.5,397.5 200.5,394.5 200.5,391.5C 175.5,391.5 150.5,391.5 125.5,391.5C 124.523,394.287 124.19,397.287 124.5,400.5C 136.167,400.5 147.833,400.5 159.5,400.5C 163.59,401.002 165.59,403.335 165.5,407.5C 165.531,411.597 163.531,414.097 159.5,415C 144.833,415.667 130.167,415.667 115.5,415C 113,413.833 111.167,412 110,409.5C 109.333,362.833 109.333,316.167 110,269.5C 111.122,267.376 112.622,265.543 114.5,264C 141.498,263.5 168.498,263.333 195.5,263.5 Z"/></g>
<g><path style="opacity:1" fill="#ea514e" d="M 125.5,278.5 C 150.672,278.169 175.672,278.502 200.5,279.5C 193.167,279.5 185.833,279.5 178.5,279.5C 178.822,285.358 178.489,291.025 177.5,296.5C 160.779,287.352 148.279,291.352 140,308.5C 138.375,329.207 147.875,339.04 168.5,338C 171.237,336.924 173.904,335.757 176.5,334.5C 177.713,338.782 177.046,342.949 174.5,347C 178.025,347.179 181.359,347.679 184.5,348.5C 169.496,348.333 154.496,348.5 139.5,349C 136.523,350.145 134.856,352.312 134.5,355.5C 135.366,358.692 137.032,361.359 139.5,363.5C 134.833,363.5 130.167,363.5 125.5,363.5C 125.5,335.167 125.5,306.833 125.5,278.5 Z"/></g>
<g><path style="opacity:1" fill="#d22f2e" d="M 200.5,279.5 C 200.5,311.5 200.5,343.5 200.5,375.5C 175.5,375.5 150.5,375.5 125.5,375.5C 125.5,371.5 125.5,367.5 125.5,363.5C 130.167,363.5 134.833,363.5 139.5,363.5C 155.036,363.81 170.536,363.477 186,362.5C 190.04,360.344 191.374,357.011 190,352.5C 188.549,350.536 186.716,349.203 184.5,348.5C 181.359,347.679 178.025,347.179 174.5,347C 177.046,342.949 177.713,338.782 176.5,334.5C 189.294,322.153 189.627,309.486 177.5,296.5C 178.489,291.025 178.822,285.358 178.5,279.5C 185.833,279.5 193.167,279.5 200.5,279.5 Z"/></g>
<g><path style="opacity:1" fill="#060201" d="M 177.5,296.5 C 189.627,309.486 189.294,322.153 176.5,334.5C 173.904,335.757 171.237,336.924 168.5,338C 147.875,339.04 138.375,329.207 140,308.5C 148.279,291.352 160.779,287.352 177.5,296.5 Z"/></g>
<g><path style="opacity:1" fill="#f4c226" d="M 159.5,306.5 C 167.498,306 171.331,309.667 171,317.5C 168.89,322.945 165.056,324.778 159.5,323C 154.931,320.459 153.431,316.625 155,311.5C 156.366,309.638 157.866,307.972 159.5,306.5 Z"/></g>
<g><path style="opacity:1" fill="#060101" d="M 184.5,348.5 C 186.716,349.203 188.549,350.536 190,352.5C 191.374,357.011 190.04,360.344 186,362.5C 170.536,363.477 155.036,363.81 139.5,363.5C 137.032,361.359 135.366,358.692 134.5,355.5C 134.856,352.312 136.523,350.145 139.5,349C 154.496,348.5 169.496,348.333 184.5,348.5 Z"/></g>
<g><path style="opacity:1" fill="#8cc5f3" d="M 341.5,360.5 C 345.5,360.5 349.5,360.5 353.5,360.5C 353.333,397.168 353.5,433.835 354,470.5C 355.632,476.93 359.132,482.097 364.5,486C 369.833,489.333 375.167,492.667 380.5,496C 358.5,496.667 336.5,496.667 314.5,496C 322.285,491.691 329.452,486.524 336,480.5C 338.496,476.505 340.162,472.172 341,467.5C 341.5,431.835 341.667,396.168 341.5,360.5 Z"/></g>
<g><path style="opacity:1" fill="#9b2927" d="M 125.5,278.5 C 125.5,306.833 125.5,335.167 125.5,363.5C 125.5,367.5 125.5,371.5 125.5,375.5C 150.5,375.5 175.5,375.5 200.5,375.5C 175.339,376.498 150.005,376.831 124.5,376.5C 124.168,343.662 124.502,310.996 125.5,278.5 Z"/></g>
<g><path style="opacity:1" fill="#fcc827" d="M 125.5,391.5 C 150.5,391.5 175.5,391.5 200.5,391.5C 200.5,394.5 200.5,397.5 200.5,400.5C 196.818,400.335 193.152,400.501 189.5,401C 187.077,402.571 185.744,404.737 185.5,407.5C 178.833,407.5 172.167,407.5 165.5,407.5C 165.59,403.335 163.59,401.002 159.5,400.5C 148.346,399.505 137.012,399.172 125.5,399.5C 125.5,396.833 125.5,394.167 125.5,391.5 Z"/></g>
<g><path style="opacity:1" fill="#886c15" d="M 125.5,391.5 C 125.5,394.167 125.5,396.833 125.5,399.5C 137.012,399.172 148.346,399.505 159.5,400.5C 147.833,400.5 136.167,400.5 124.5,400.5C 124.19,397.287 124.523,394.287 125.5,391.5 Z"/></g>
</svg>
