<?xml version="1.0" encoding="UTF-8"?>
<!DOCTYPE svg PUBLIC "-//W3C//DTD SVG 1.1//EN" "http://www.w3.org/Graphics/SVG/1.1/DTD/svg11.dtd">
<svg xmlns="http://www.w3.org/2000/svg" version="1.1" width="512px" height="512px" style="shape-rendering:geometricPrecision; text-rendering:geometricPrecision; image-rendering:optimizeQuality; fill-rule:evenodd; clip-rule:evenodd" xmlns:xlink="http://www.w3.org/1999/xlink">
<g><path style="opacity:0.98" fill="#020101" d="M 181.5,-0.5 C 196.167,-0.5 210.833,-0.5 225.5,-0.5C 230.64,1.81949 233.806,5.81949 235,11.5C 235.023,51.5464 235.69,91.5464 237,131.5C 238,133.5 239,135.5 240,137.5C 255.75,154.579 270.75,172.246 285,190.5C 290.051,200.921 292.217,211.921 291.5,223.5C 321.835,223.333 352.168,223.5 382.5,224C 384.286,224.785 385.786,225.951 387,227.5C 391.505,259.038 394.172,290.705 395,322.5C 390.19,351.307 374.69,372.14 348.5,385C 340.436,388.266 332.103,390.433 323.5,391.5C 323.5,426.5 323.5,461.5 323.5,496.5C 338.17,496.333 352.837,496.5 367.5,497C 370.366,498.393 371.699,500.726 371.5,504C 371.57,507.366 370.237,509.866 367.5,511.5C 289.167,511.5 210.833,511.5 132.5,511.5C 124.519,508.351 119.019,502.684 116,494.5C 115.333,399.167 115.333,303.833 116,208.5C 117.476,198.884 121.143,190.217 127,182.5C 139.628,167.536 152.628,152.869 166,138.5C 167.861,136.112 169.194,133.446 170,130.5C 171.31,90.5464 171.977,50.5464 172,10.5C 173.599,5.40601 176.766,1.73934 181.5,-0.5 Z M 284.5,385.5 C 291.862,388.591 299.529,390.591 307.5,391.5C 307.5,426.5 307.5,461.5 307.5,496.5C 301.833,496.5 296.167,496.5 290.5,496.5C 291.643,467.196 291.809,437.863 291,408.5C 289.513,406 287.346,404.334 284.5,403.5C 284.5,397.5 284.5,391.5 284.5,385.5 Z"/></g>
<g><path style="opacity:1" fill="#e5c39b" d="M 203.5,14.5 C 203.5,20.1667 203.5,25.8333 203.5,31.5C 197.833,31.5 192.167,31.5 186.5,31.5C 186.5,25.8333 186.5,20.1667 186.5,14.5C 192.167,14.5 197.833,14.5 203.5,14.5 Z"/></g>
<g><path style="opacity:1" fill="#f3dbb2" d="M 203.5,14.5 C 208.833,14.5 214.167,14.5 219.5,14.5C 219.5,20.1667 219.5,25.8333 219.5,31.5C 214.167,31.5 208.833,31.5 203.5,31.5C 203.5,25.8333 203.5,20.1667 203.5,14.5 Z"/></g>
<g><path style="opacity:1" fill="#debe97" d="M 219.5,111.5 C 219.5,90.1667 219.5,68.8333 219.5,47.5C 214.167,47.5 208.833,47.5 203.5,47.5C 203.5,68.8333 203.5,90.1667 203.5,111.5C 197.833,111.5 192.167,111.5 186.5,111.5C 186.5,89.8333 186.5,68.1667 186.5,46.5C 197.833,46.5 209.167,46.5 220.5,46.5C 220.831,68.3398 220.497,90.0064 219.5,111.5 Z"/></g>
<g><path style="opacity:1" fill="#f3dbb2" d="M 219.5,111.5 C 214.167,111.5 208.833,111.5 203.5,111.5C 203.5,90.1667 203.5,68.8333 203.5,47.5C 208.833,47.5 214.167,47.5 219.5,47.5C 219.5,68.8333 219.5,90.1667 219.5,111.5 Z"/></g>
<g><path style="opacity:1" fill="#6c4747" d="M 220.5,128.5 C 214.666,127.187 208.833,127.187 203,128.5C 202.426,134.038 201.093,139.372 199,144.5C 190.793,158.914 183.127,173.581 176,188.5C 174.194,194.056 172.861,199.722 172,205.5C 171.5,224.83 171.333,244.164 171.5,263.5C 180.349,263.174 189.016,263.507 197.5,264.5C 187.494,264.334 177.494,264.5 167.5,265C 165.266,266.638 163.933,268.805 163.5,271.5C 157.833,271.5 152.167,271.5 146.5,271.5C 146.556,268.439 145.222,266.272 142.5,265C 138.514,264.501 134.514,264.334 130.5,264.5C 130.333,247.163 130.5,229.83 131,212.5C 131.999,205.168 134.666,198.501 139,192.5C 154.418,175.753 169.084,158.42 183,140.5C 184.797,135.977 185.964,131.31 186.5,126.5C 198.216,125.856 209.549,126.522 220.5,128.5 Z"/></g>
<g><path style="opacity:1" fill="#775252" d="M 220.5,128.5 C 221.331,135.494 223.831,141.827 228,147.5C 242.707,163.872 257.041,180.539 271,197.5C 273.617,202.183 275.117,207.183 275.5,212.5C 275.5,216.167 275.5,219.833 275.5,223.5C 266.651,223.174 257.984,223.507 249.5,224.5C 246.909,225.254 245.076,226.921 244,229.5C 241.423,256.529 238.589,283.529 235.5,310.5C 237.064,345.327 253.397,370.327 284.5,385.5C 284.5,391.5 284.5,397.5 284.5,403.5C 280.676,404.067 278.01,406.067 276.5,409.5C 275.502,432.661 275.169,455.994 275.5,479.5C 253.164,479.667 230.831,479.5 208.5,479C 182.088,470.036 169.754,451.536 171.5,423.5C 180.506,423.666 189.506,423.5 198.5,423C 208.806,421.359 215.306,415.525 218,405.5C 218.667,363.833 218.667,322.167 218,280.5C 214.219,271.216 207.386,265.882 197.5,264.5C 189.016,263.507 180.349,263.174 171.5,263.5C 171.333,244.164 171.5,224.83 172,205.5C 172.861,199.722 174.194,194.056 176,188.5C 183.127,173.581 190.793,158.914 199,144.5C 201.093,139.372 202.426,134.038 203,128.5C 208.833,127.187 214.666,127.187 220.5,128.5 Z"/></g>
<g><path style="opacity:1" fill="#392727" d="M 275.5,212.5 C 276.483,216.298 276.817,220.298 276.5,224.5C 267.5,224.5 258.5,224.5 249.5,224.5C 257.984,223.507 266.651,223.174 275.5,223.5C 275.5,219.833 275.5,216.167 275.5,212.5 Z"/></g>
<g><path style="opacity:1" fill="#837b67" d="M 258.5,239.5 C 277.497,238.833 296.664,238.5 316,238.5C 335.512,238.5 354.678,239.167 373.5,240.5C 343.574,239.508 313.574,239.175 283.5,239.5C 275.167,239.5 266.833,239.5 258.5,239.5 Z"/></g>
<g><path style="opacity:1" fill="#f0d8b0" d="M 258.5,239.5 C 266.833,239.5 275.167,239.5 283.5,239.5C 282.955,245.463 283.621,251.13 285.5,256.5C 280.83,255.415 277.83,257.082 276.5,261.5C 275.507,269.984 275.174,278.651 275.5,287.5C 267.757,288.13 260.424,287.463 253.5,285.5C 254.388,269.942 256.055,254.609 258.5,239.5 Z"/></g>
<g><path style="opacity:1" fill="#f8e9c6" d="M 283.5,239.5 C 313.574,239.175 343.574,239.508 373.5,240.5C 374.942,254.821 376.276,269.154 377.5,283.5C 377.5,284.833 377.5,286.167 377.5,287.5C 348.833,287.5 320.167,287.5 291.5,287.5C 291.826,278.651 291.493,269.984 290.5,261.5C 289.833,258.833 288.167,257.167 285.5,256.5C 283.621,251.13 282.955,245.463 283.5,239.5 Z"/></g>
<g><path style="opacity:1" fill="#887a64" d="M 276.5,261.5 C 276.5,270.5 276.5,279.5 276.5,288.5C 268.5,288.5 260.5,288.5 252.5,288.5C 252.263,287.209 252.596,286.209 253.5,285.5C 260.424,287.463 267.757,288.13 275.5,287.5C 275.174,278.651 275.507,269.984 276.5,261.5 Z"/></g>
<g><path style="opacity:1" fill="#e7c59d" d="M 146.5,271.5 C 152.167,271.5 157.833,271.5 163.5,271.5C 163.933,274.195 165.266,276.362 167.5,278C 177.675,278.17 187.675,278.67 197.5,279.5C 188.833,279.5 180.167,279.5 171.5,279.5C 171.5,290.167 171.5,300.833 171.5,311.5C 158.167,311.5 144.833,311.5 131.5,311.5C 131.5,300.833 131.5,290.167 131.5,279.5C 135.042,279.813 138.375,279.479 141.5,278.5C 144.869,277.441 146.536,275.108 146.5,271.5 Z"/></g>
<g><path style="opacity:1" fill="#f3dab2" d="M 197.5,279.5 C 199.716,280.203 201.549,281.536 203,283.5C 203.667,323.5 203.667,363.5 203,403.5C 201.982,405.928 200.148,407.262 197.5,407.5C 188.833,407.5 180.167,407.5 171.5,407.5C 171.5,380.833 171.5,354.167 171.5,327.5C 175.042,327.813 178.375,327.479 181.5,326.5C 184.853,325.488 186.52,323.154 186.5,319.5C 186.585,315.32 184.585,312.986 180.5,312.5C 177.713,311.523 174.713,311.19 171.5,311.5C 171.5,300.833 171.5,290.167 171.5,279.5C 180.167,279.5 188.833,279.5 197.5,279.5 Z"/></g>
<g><path style="opacity:1" fill="#8b836f" d="M 290.5,261.5 C 291.493,269.984 291.826,278.651 291.5,287.5C 320.167,287.5 348.833,287.5 377.5,287.5C 377.5,286.167 377.5,284.833 377.5,283.5C 378.451,284.919 378.784,286.585 378.5,288.5C 349.167,288.5 319.833,288.5 290.5,288.5C 290.5,279.5 290.5,270.5 290.5,261.5 Z"/></g>
<g><path style="opacity:1" fill="#d94554" d="M 283.5,303.5 C 283.5,324.833 283.5,346.167 283.5,367.5C 259.732,352.939 249.066,331.606 251.5,303.5C 262.167,303.5 272.833,303.5 283.5,303.5 Z"/></g>
<g><path style="opacity:1" fill="#e3636d" d="M 283.5,303.5 C 315.833,303.5 348.167,303.5 380.5,303.5C 381.514,340.301 364.514,364.135 329.5,375C 313.071,378.428 297.738,375.928 283.5,367.5C 283.5,346.167 283.5,324.833 283.5,303.5 Z"/></g>
<g><path style="opacity:1" fill="#947f65" d="M 141.5,278.5 C 138.375,279.479 135.042,279.813 131.5,279.5C 131.5,290.167 131.5,300.833 131.5,311.5C 144.833,311.5 158.167,311.5 171.5,311.5C 174.713,311.19 177.713,311.523 180.5,312.5C 163.833,312.5 147.167,312.5 130.5,312.5C 130.5,301.167 130.5,289.833 130.5,278.5C 134.167,278.5 137.833,278.5 141.5,278.5 Z"/></g>
<g><path style="opacity:1" fill="#8a765e" d="M 181.5,326.5 C 178.375,327.479 175.042,327.813 171.5,327.5C 158.167,327.5 144.833,327.5 131.5,327.5C 131.5,332.833 131.5,338.167 131.5,343.5C 142.679,343.172 153.679,343.505 164.5,344.5C 153.167,344.5 141.833,344.5 130.5,344.5C 130.5,338.5 130.5,332.5 130.5,326.5C 147.5,326.5 164.5,326.5 181.5,326.5 Z"/></g>
<g><path style="opacity:1" fill="#e9c79e" d="M 171.5,327.5 C 171.5,354.167 171.5,380.833 171.5,407.5C 158.167,407.5 144.833,407.5 131.5,407.5C 131.5,391.5 131.5,375.5 131.5,359.5C 142.838,359.667 154.172,359.5 165.5,359C 170.535,355.987 171.702,351.82 169,346.5C 167.67,345.418 166.17,344.751 164.5,344.5C 153.679,343.505 142.679,343.172 131.5,343.5C 131.5,338.167 131.5,332.833 131.5,327.5C 144.833,327.5 158.167,327.5 171.5,327.5 Z"/></g>
<g><path style="opacity:1" fill="#b9a07f" d="M 131.5,359.5 C 131.5,375.5 131.5,391.5 131.5,407.5C 144.833,407.5 158.167,407.5 171.5,407.5C 180.167,407.5 188.833,407.5 197.5,407.5C 175.34,408.497 153.006,408.831 130.5,408.5C 130.17,391.991 130.504,375.658 131.5,359.5 Z"/></g>
<g><path style="opacity:1" fill="#6d4747" d="M 276.5,409.5 C 276.667,436.169 276.5,462.835 276,489.5C 275.14,493.027 272.973,495.193 269.5,496C 224.416,496.989 179.416,496.656 134.5,495C 132.951,493.786 131.785,492.286 131,490.5C 130.5,468.169 130.333,445.836 130.5,423.5C 144.167,423.5 157.833,423.5 171.5,423.5C 169.754,451.536 182.088,470.036 208.5,479C 230.831,479.5 253.164,479.667 275.5,479.5C 275.169,455.994 275.502,432.661 276.5,409.5 Z"/></g>
</svg>
