<?xml version="1.0" encoding="UTF-8"?>
<!DOCTYPE svg PUBLIC "-//W3C//DTD SVG 1.1//EN" "http://www.w3.org/Graphics/SVG/1.1/DTD/svg11.dtd">
<svg xmlns="http://www.w3.org/2000/svg" version="1.1" width="512px" height="512px" style="shape-rendering:geometricPrecision; text-rendering:geometricPrecision; image-rendering:optimizeQuality; fill-rule:evenodd; clip-rule:evenodd" xmlns:xlink="http://www.w3.org/1999/xlink">
<g><path style="opacity:0.979" fill="#000000" d="M 109.5,-0.5 C 134.167,-0.5 158.833,-0.5 183.5,-0.5C 185.134,0.971672 186.634,2.63834 188,4.5C 188.03,43.8717 188.696,83.205 190,122.5C 190.471,124.246 191.138,125.913 192,127.5C 202.925,135.754 213.258,144.754 223,154.5C 236.743,171.039 245.076,190.039 248,211.5C 248.667,305.167 248.667,398.833 248,492.5C 244.983,502.016 238.816,508.349 229.5,511.5C 174.167,511.5 118.833,511.5 63.5,511.5C 51.632,507.454 45.132,499.121 44,486.5C 43.3333,444.167 43.3333,401.833 44,359.5C 45.1015,354.23 48.2681,351.23 53.5,350.5C 58.4439,350.602 61.9439,352.935 64,357.5C 64.3333,401.167 64.6667,444.833 65,488.5C 65.8333,489.333 66.6667,490.167 67.5,491C 119.833,491.667 172.167,491.667 224.5,491C 225.416,490.626 226.25,490.126 227,489.5C 228.162,443.249 228.662,396.916 228.5,350.5C 228.333,304.833 228.167,259.167 228,213.5C 222.284,183.725 206.451,161.058 180.5,145.5C 175.17,140.343 171.503,134.176 169.5,127C 154.167,126.333 138.833,126.333 123.5,127C 121.478,131.546 119.311,136.046 117,140.5C 106.146,149.598 95.4794,158.931 85,168.5C 74.2711,181.63 67.6044,196.63 65,213.5C 64.6667,233.167 64.3333,252.833 64,272.5C 62.4848,277.692 58.9848,280.692 53.5,281.5C 47.777,280.61 44.6104,277.277 44,271.5C 42.9318,249.102 43.5985,226.768 46,204.5C 52.3217,173.529 68.8217,149.696 95.5,133C 99.1043,130.292 101.604,126.792 103,122.5C 103.333,84.5 103.667,46.5 104,8.5C 104.825,4.84425 106.658,1.84425 109.5,-0.5 Z"/></g>
<g><path style="opacity:1" fill="#97a0b2" d="M 124.5,19.5 C 139.167,19.5 153.833,19.5 168.5,19.5C 168.5,48.5 168.5,77.5 168.5,106.5C 153.833,106.5 139.167,106.5 124.5,106.5C 124.5,77.5 124.5,48.5 124.5,19.5 Z"/></g>
<g><path style="opacity:0.98" fill="#000000" d="M 455.5,511.5 C 401.167,511.5 346.833,511.5 292.5,511.5C 281.76,504.879 279.26,495.879 285,484.5C 286.873,482.291 289.04,480.458 291.5,479C 308.765,472.024 325.931,464.857 343,457.5C 343.833,423.495 343.667,389.495 342.5,355.5C 319.499,344.197 305.666,325.864 301,300.5C 299.378,242.519 299.045,184.519 300,126.5C 300.614,122.885 302.447,120.051 305.5,118C 351.5,117.333 397.5,117.333 443.5,118C 445.333,119.167 446.833,120.667 448,122.5C 448.667,181.5 448.667,240.5 448,299.5C 443.109,325.612 428.776,344.612 405,356.5C 404.167,390.172 404.333,423.838 405.5,457.5C 422.793,464.764 440.126,471.931 457.5,479C 467.802,486.511 469.636,495.677 463,506.5C 460.574,508.452 458.074,510.119 455.5,511.5 Z"/></g>
<g><path style="opacity:1" fill="#f4727e" d="M 53.5,350.5 C 53.5,342.5 53.5,334.5 53.5,326.5C 62.6094,324.607 65.7761,319.274 63,310.5C 60.7146,307.108 57.548,305.441 53.5,305.5C 53.5,297.5 53.5,289.5 53.5,281.5C 58.9848,280.692 62.4848,277.692 64,272.5C 64.3333,252.833 64.6667,233.167 65,213.5C 67.6044,196.63 74.2711,181.63 85,168.5C 95.4794,158.931 106.146,149.598 117,140.5C 119.311,136.046 121.478,131.546 123.5,127C 138.833,126.333 154.167,126.333 169.5,127C 171.503,134.176 175.17,140.343 180.5,145.5C 206.451,161.058 222.284,183.725 228,213.5C 228.167,259.167 228.333,304.833 228.5,350.5C 228.662,396.916 228.162,443.249 227,489.5C 226.25,490.126 225.416,490.626 224.5,491C 172.167,491.667 119.833,491.667 67.5,491C 66.6667,490.167 65.8333,489.333 65,488.5C 64.6667,444.833 64.3333,401.167 64,357.5C 61.9439,352.935 58.4439,350.602 53.5,350.5 Z"/></g>
<g><path style="opacity:1" fill="#def5fb" d="M 320.5,137.5 C 356.5,137.5 392.5,137.5 428.5,137.5C 428.5,148.167 428.5,158.833 428.5,169.5C 392.5,169.5 356.5,169.5 320.5,169.5C 320.5,158.833 320.5,148.167 320.5,137.5 Z"/></g>
<g><path style="opacity:1" fill="#f7a1a9" d="M 320.5,189.5 C 356.5,189.5 392.5,189.5 428.5,189.5C 428.667,224.502 428.5,259.502 428,294.5C 422.034,324.14 404.034,339.807 374,341.5C 348.909,340.444 331.909,328.11 323,304.5C 321.964,301.247 321.297,297.914 321,294.5C 320.5,259.502 320.333,224.502 320.5,189.5 Z"/></g>
<g><path style="opacity:1" fill="#080505" d="M 392.5,208.5 C 403.198,208.348 407.365,213.348 405,223.5C 399.125,230.001 393.458,230.001 388,223.5C 385.064,217.058 386.564,212.058 392.5,208.5 Z"/></g>
<g><path style="opacity:1" fill="#060404" d="M 346.5,248.5 C 355.998,247.173 360.498,251.173 360,260.5C 357.575,266.795 353.075,268.962 346.5,267C 341.581,264.259 339.748,260.092 341,254.5C 342.36,251.977 344.193,249.977 346.5,248.5 Z"/></g>
<g><path style="opacity:1" fill="#010101" d="M 91.5,257.5 C 128.895,257.019 166.228,257.519 203.5,259C 205.378,260.543 206.878,262.376 208,264.5C 208.667,298.167 208.667,331.833 208,365.5C 207.573,369.527 205.406,372.027 201.5,373C 164.5,373.667 127.5,373.667 90.5,373C 87.6193,371.749 85.786,369.583 85,366.5C 84.3333,332.5 84.3333,298.5 85,264.5C 86.6941,261.642 88.8607,259.309 91.5,257.5 Z"/></g>
<g><path style="opacity:1" fill="#fefefe" d="M 104.5,277.5 C 132.5,277.5 160.5,277.5 188.5,277.5C 188.5,302.833 188.5,328.167 188.5,353.5C 160.5,353.5 132.5,353.5 104.5,353.5C 104.5,328.167 104.5,302.833 104.5,277.5 Z"/></g>
<g><path style="opacity:1" fill="#080505" d="M 370.5,293.5 C 381.198,293.348 385.365,298.348 383,308.5C 377.125,315.001 371.458,315.001 366,308.5C 363.064,302.058 364.564,297.058 370.5,293.5 Z"/></g>
<g><path style="opacity:0.943" fill="#050202" d="M 53.5,305.5 C 57.548,305.441 60.7146,307.108 63,310.5C 65.7761,319.274 62.6094,324.607 53.5,326.5C 45.1402,324.114 42.3069,318.781 45,310.5C 47.0287,307.404 49.862,305.738 53.5,305.5 Z"/></g>
<g><path style="opacity:1" fill="#ddf3f9" d="M 364.5,361.5 C 371.167,361.5 377.833,361.5 384.5,361.5C 384.333,396.835 384.5,432.168 385,467.5C 386.5,470.333 388.667,472.5 391.5,474C 405.167,479.667 418.833,485.333 432.5,491C 393.833,491.667 355.167,491.667 316.5,491C 330.752,484.805 345.085,478.805 359.5,473C 360.667,471.833 361.833,470.667 363,469.5C 364.481,433.562 364.981,397.562 364.5,361.5 Z"/></g>
</svg>
