<?xml version="1.0" encoding="UTF-8"?>
<!DOCTYPE svg PUBLIC "-//W3C//DTD SVG 1.1//EN" "http://www.w3.org/Graphics/SVG/1.1/DTD/svg11.dtd">
<svg xmlns="http://www.w3.org/2000/svg" version="1.1" width="512px" height="512px" style="shape-rendering:geometricPrecision; text-rendering:geometricPrecision; image-rendering:optimizeQuality; fill-rule:evenodd; clip-rule:evenodd" xmlns:xlink="http://www.w3.org/1999/xlink">
<g><path style="opacity:0.978" fill="#010101" d="M 140.5,-0.5 C 166.167,-0.5 191.833,-0.5 217.5,-0.5C 218.836,1.01027 220.003,2.67694 221,4.5C 221.667,18.5 221.667,32.5 221,46.5C 219.202,48.9725 216.868,50.6392 214,51.5C 213.333,66.5 213.333,81.5 214,96.5C 215.227,98.7261 217.061,100.226 219.5,101C 253.263,103.104 273.763,120.604 281,153.5C 281.667,266.167 281.667,378.833 281,491.5C 278.413,501.583 272.247,508.25 262.5,511.5C 206.5,511.5 150.5,511.5 94.5,511.5C 84.0851,507.378 77.9184,499.711 76,488.5C 75.3333,378.167 75.3333,267.833 76,157.5C 81.4459,122.391 101.946,103.558 137.5,101C 140.232,100.602 142.065,99.1019 143,96.5C 144.617,81.5681 144.951,66.5681 144,51.5C 139.857,50.7743 137.19,48.4409 136,44.5C 135.333,31.5 135.333,18.5 136,5.5C 136.804,2.85408 138.304,0.854084 140.5,-0.5 Z"/></g>
<g><path style="opacity:1" fill="#f16c5f" d="M 153.5,16.5 C 170.5,16.5 187.5,16.5 204.5,16.5C 204.5,22.1667 204.5,27.8333 204.5,33.5C 187.5,33.5 170.5,33.5 153.5,33.5C 153.5,27.8333 153.5,22.1667 153.5,16.5 Z"/></g>
<g><path style="opacity:1" fill="#eeeeee" d="M 161.5,50.5 C 172.833,50.5 184.167,50.5 195.5,50.5C 195.5,56.1667 195.5,61.8333 195.5,67.5C 184.167,67.5 172.833,67.5 161.5,67.5C 161.5,61.8333 161.5,56.1667 161.5,50.5 Z"/></g>
<g><path style="opacity:1" fill="#bedfeb" d="M 263.5,157.5 C 263.5,161.5 263.5,165.5 263.5,169.5C 206.833,169.5 150.167,169.5 93.5,169.5C 93.0517,137.112 109.052,119.946 141.5,118C 151.991,115.509 158.491,109.009 161,98.5C 161.499,93.8452 161.666,89.1785 161.5,84.5C 172.833,84.5 184.167,84.5 195.5,84.5C 194.206,109.04 205.873,120.873 230.5,120C 249.536,125.53 260.536,138.03 263.5,157.5 Z"/></g>
<g><path style="opacity:1" fill="#7a9098" d="M 263.5,157.5 C 264.485,161.634 264.818,165.968 264.5,170.5C 207.331,170.832 150.331,170.499 93.5,169.5C 150.167,169.5 206.833,169.5 263.5,169.5C 263.5,165.5 263.5,161.5 263.5,157.5 Z"/></g>
<g><path style="opacity:1" fill="#e7e2e1" d="M 263.5,187.5 C 263.5,266.833 263.5,346.167 263.5,425.5C 206.833,425.5 150.167,425.5 93.5,425.5C 93.5,346.167 93.5,266.833 93.5,187.5C 150.167,187.5 206.833,187.5 263.5,187.5 Z"/></g>
<g><path style="opacity:1" fill="#040302" d="M 166.5,204.5 C 191.763,201.976 213.596,209.309 232,226.5C 248.192,246.042 250.859,267.376 240,290.5C 225.762,312.457 205.428,323.457 179,323.5C 150.074,323.379 128.74,310.712 115,285.5C 104.896,249.537 117.062,224.037 151.5,209C 156.629,207.494 161.629,205.994 166.5,204.5 Z"/></g>
<g><path style="opacity:1" fill="#fdc060" d="M 168.5,221.5 C 185.811,219.791 201.478,223.958 215.5,234C 232.03,250.668 233.863,268.835 221,288.5C 198.861,308.887 174.361,312.053 147.5,298C 128.768,284.811 123.601,267.644 132,246.5C 140.891,233.31 153.058,224.977 168.5,221.5 Z"/></g>
<g><path style="opacity:1" fill="#050505" d="M 116.5,340.5 C 158.561,340.017 200.561,340.517 242.5,342C 243.667,343.167 244.833,344.333 246,345.5C 246.667,365.167 246.667,384.833 246,404.5C 244.363,406.81 242.196,408.31 239.5,409C 198.833,409.667 158.167,409.667 117.5,409C 114.417,408.214 112.251,406.381 111,403.5C 110.333,384.833 110.333,366.167 111,347.5C 111.938,344.402 113.772,342.069 116.5,340.5 Z"/></g>
<g><path style="opacity:0.978" fill="#000101" d="M 413.5,511.5 C 382.167,511.5 350.833,511.5 319.5,511.5C 317.438,509.59 315.938,507.257 315,504.5C 308.835,457.849 303.168,411.182 298,364.5C 298.739,361.427 300.572,359.26 303.5,358C 345.5,357.333 387.5,357.333 429.5,358C 433.479,359.651 435.479,362.651 435.5,367C 429.463,412.797 423.629,458.631 418,504.5C 417.096,507.233 415.596,509.567 413.5,511.5 Z"/></g>
<g><path style="opacity:1" fill="#f26d5f" d="M 127.5,358.5 C 161.5,358.5 195.5,358.5 229.5,358.5C 229.5,369.5 229.5,380.5 229.5,391.5C 195.5,391.5 161.5,391.5 127.5,391.5C 127.5,380.5 127.5,369.5 127.5,358.5 Z"/></g>
<g><path style="opacity:1" fill="#eaeaea" d="M 316.5,374.5 C 349.833,374.5 383.167,374.5 416.5,374.5C 415.047,386.148 413.714,397.814 412.5,409.5C 381.833,409.5 351.167,409.5 320.5,409.5C 318.92,397.864 317.587,386.197 316.5,374.5 Z"/></g>
<g><path style="opacity:1" fill="#803932" d="M 127.5,358.5 C 161.663,357.502 195.996,357.168 230.5,357.5C 230.5,369.167 230.5,380.833 230.5,392.5C 195.996,392.832 161.663,392.498 127.5,391.5C 161.5,391.5 195.5,391.5 229.5,391.5C 229.5,380.5 229.5,369.5 229.5,358.5C 195.5,358.5 161.5,358.5 127.5,358.5 Z"/></g>
<g><path style="opacity:1" fill="#8d8a8a" d="M 263.5,187.5 C 264.499,266.998 264.833,346.665 264.5,426.5C 207.331,426.832 150.331,426.499 93.5,425.5C 150.167,425.5 206.833,425.5 263.5,425.5C 263.5,346.167 263.5,266.833 263.5,187.5 Z"/></g>
<g><path style="opacity:1" fill="#475154" d="M 409.5,428.5 C 381.186,426.508 352.519,425.841 323.5,426.5C 323.5,427.833 323.5,429.167 323.5,430.5C 322.549,429.081 322.216,427.415 322.5,425.5C 351.833,425.5 381.167,425.5 410.5,425.5C 410.737,426.791 410.404,427.791 409.5,428.5 Z"/></g>
<g><path style="opacity:1" fill="#d0edf5" d="M 409.5,428.5 C 406.833,450.5 404.167,472.5 401.5,494.5C 378.167,494.5 354.833,494.5 331.5,494.5C 328.833,473.167 326.167,451.833 323.5,430.5C 323.5,429.167 323.5,427.833 323.5,426.5C 352.519,425.841 381.186,426.508 409.5,428.5 Z"/></g>
<g><path style="opacity:1" fill="#bee0ec" d="M 93.5,443.5 C 150.5,443.5 207.5,443.5 264.5,443.5C 264.667,458.17 264.5,472.837 264,487.5C 263.214,490.583 261.381,492.749 258.5,494C 205.167,494.667 151.833,494.667 98.5,494C 96.6667,492.833 95.1667,491.333 94,489.5C 93.5001,474.17 93.3334,458.837 93.5,443.5 Z"/></g>
</svg>
