<?xml version="1.0" encoding="UTF-8"?>
<!DOCTYPE svg PUBLIC "-//W3C//DTD SVG 1.1//EN" "http://www.w3.org/Graphics/SVG/1.1/DTD/svg11.dtd">
<svg xmlns="http://www.w3.org/2000/svg" version="1.1" width="512px" height="512px" style="shape-rendering:geometricPrecision; text-rendering:geometricPrecision; image-rendering:optimizeQuality; fill-rule:evenodd; clip-rule:evenodd" xmlns:xlink="http://www.w3.org/1999/xlink">
<g><path style="opacity:0.981" fill="#000100" d="M 100.5,7.5 C 108.174,7.33365 115.841,7.50031 123.5,8C 131.088,11.3334 135.088,17.1667 135.5,25.5C 126.659,60.0674 128.493,94.0674 141,127.5C 158.359,124.798 174.192,128.631 188.5,139C 202.934,151.766 214.767,166.599 224,183.5C 233.431,201.694 241.765,220.361 249,239.5C 268.86,225.517 273.193,207.85 262,186.5C 251.636,176.471 241.636,166.137 232,155.5C 231.071,151.756 231.571,148.256 233.5,145C 246.862,142.998 259.862,144.665 272.5,150C 315.596,168.344 339.596,200.844 344.5,247.5C 380.29,254.289 401.29,275.623 407.5,311.5C 442.87,318.25 461.537,339.583 463.5,375.5C 473.506,375.334 483.506,375.5 493.5,376C 498,377.833 501.167,381 503,385.5C 504.371,427.464 485.204,455.298 445.5,469C 442.529,469.794 439.529,470.461 436.5,471C 418.836,471.5 401.17,471.667 383.5,471.5C 385.39,490.274 377.057,501.274 358.5,504.5C 289.833,503.167 221.167,503.167 152.5,504.5C 133.943,501.274 125.61,490.274 127.5,471.5C 109.83,471.667 92.1635,471.5 74.5,471C 37.6667,463.5 15.5,441.333 8,404.5C 7.33333,398.167 7.33333,391.833 8,385.5C 9.83333,381 13,377.833 17.5,376C 27.4944,375.5 37.4944,375.334 47.5,375.5C 48.3603,346.602 62.0269,326.436 88.5,315C 90.74,314.023 93.0733,313.523 95.5,313.5C 97.3093,295.051 104.643,279.218 117.5,266C 105.225,248.618 95.7253,229.784 89,209.5C 87.4806,200.219 87.1473,190.886 88,181.5C 88.7733,177.847 89.9399,174.347 91.5,171C 85.2088,161.585 79.0421,152.085 73,142.5C 57.8829,123.733 38.7163,110.9 15.5,104C 8.81701,98.7918 6.15034,91.9584 7.5,83.5C 7.29639,65.8751 15.9631,58.3751 33.5,61C 35.6177,62.3454 37.6177,62.8454 39.5,62.5C 36.1329,56.961 32.9663,51.2943 30,45.5C 26.5742,28.8676 33.0742,18.0343 49.5,13C 61.0835,10.1942 70.2502,13.6942 77,23.5C 80.0605,30.6214 83.3938,37.6214 87,44.5C 87.1608,35.7827 87.8275,27.1161 89,18.5C 91.4373,13.2262 95.2706,9.55952 100.5,7.5 Z"/></g>
<g><path style="opacity:1" fill="#72a928" d="M 105.5,23.5 C 109.514,23.3345 113.514,23.5012 117.5,24C 118.081,24.8926 118.415,25.8926 118.5,27C 109.961,63.6554 112.628,99.4888 126.5,134.5C 125.672,135.415 124.672,136.081 123.5,136.5C 107.052,100.347 101.052,62.6807 105.5,23.5 Z"/></g>
<g><path style="opacity:1" fill="#57871b" d="M 54.5,28.5 C 58.3169,27.8258 61.1503,29.1592 63,32.5C 72.0604,52.2879 81.3938,71.9545 91,91.5C 93.5441,95.8934 94.8774,100.56 95,105.5C 87.2968,96.1294 78.6301,87.7961 69,80.5C 61.3333,67.1667 53.6667,53.8333 46,40.5C 45.3333,38.5 45.3333,36.5 46,34.5C 48.6371,32.109 51.4704,30.109 54.5,28.5 Z"/></g>
<g><path style="opacity:1" fill="#74ac28" d="M 24.5,76.5 C 40.0411,81.1041 54.0411,88.6041 66.5,99C 82.5346,113.248 95.0346,130.081 104,149.5C 104.449,152.094 103.449,154.094 101,155.5C 91.767,138.599 79.9337,123.766 65.5,111C 53.116,101.641 39.4493,94.6406 24.5,90C 23.1943,85.5006 23.1943,81.0006 24.5,76.5 Z"/></g>
<g><path style="opacity:1" fill="#58891b" d="M 148.5,143.5 C 164.426,142.796 177.426,148.629 187.5,161C 180.083,165.746 174.917,172.246 172,180.5C 169.223,196.298 175.723,205.298 191.5,207.5C 199.512,207.289 207.012,205.289 214,201.5C 222.152,215.802 228.652,230.802 233.5,246.5C 219.863,247.427 206.196,247.76 192.5,247.5C 192.544,230.045 183.877,222.211 166.5,224C 152.837,228.997 144.004,238.497 140,252.5C 137.473,254.097 134.806,255.43 132,256.5C 123.587,245.356 116.42,233.356 110.5,220.5C 125.455,218.949 136.955,211.949 145,199.5C 151.561,179.958 144.561,169.291 124,167.5C 119.289,167.81 114.789,168.643 110.5,170C 119.912,156.464 132.579,147.63 148.5,143.5 Z"/></g>
<g><path style="opacity:1" fill="#d6eeb3" d="M 282.5,329.5 C 249.231,312.853 219.898,290.853 194.5,263.5C 209.93,264.096 225.263,263.262 240.5,261C 271.903,250.354 286.403,228.521 284,195.5C 280.753,183.84 274.586,174.007 265.5,166C 288.039,173.851 305.205,188.351 317,209.5C 324.831,223.657 328.664,238.824 328.5,255C 329.679,271.769 326.513,287.603 319,302.5C 310.109,315.886 297.942,324.886 282.5,329.5 Z"/></g>
<g><path style="opacity:1" fill="#416414" d="M 196.5,174.5 C 198.017,174.511 199.184,175.177 200,176.5C 201.97,179.968 204.136,183.301 206.5,186.5C 201.69,190.932 196.023,192.432 189.5,191C 185.859,188.155 185.692,184.988 189,181.5C 191.396,178.933 193.896,176.6 196.5,174.5 Z"/></g>
<g><path style="opacity:1" fill="#426514" d="M 120.5,183.5 C 123.518,183.335 126.518,183.502 129.5,184C 133.141,186.845 133.308,190.012 130,193.5C 123.702,201.913 115.536,205.079 105.5,203C 104.146,199.791 104.313,196.624 106,193.5C 109.977,188.774 114.811,185.441 120.5,183.5 Z"/></g>
<g><path style="opacity:1" fill="#426514" d="M 169.5,239.5 C 175.329,239 177.663,241.666 176.5,247.5C 171.156,247.666 165.823,247.499 160.5,247C 163.106,243.882 166.106,241.382 169.5,239.5 Z"/></g>
<g><path style="opacity:1" fill="#bde482" d="M 194.5,263.5 C 219.898,290.853 249.231,312.853 282.5,329.5C 260.49,337.602 238.49,337.435 216.5,329C 206.584,324.461 197.084,319.295 188,313.5C 184.806,317.377 181.973,321.544 179.5,326C 218.342,353.987 259.675,358.154 303.5,338.5C 348.851,356.112 395.851,362.779 444.5,358.5C 446.289,363.999 447.289,369.666 447.5,375.5C 319.5,375.5 191.5,375.5 63.5,375.5C 66.04,348.455 80.7067,332.288 107.5,327C 108.333,326.167 109.167,325.333 110,324.5C 111.007,294.605 125.507,274.772 153.5,265C 167.115,263.594 180.782,263.094 194.5,263.5 Z"/></g>
<g><path style="opacity:1" fill="#d6eeb3" d="M 444.5,358.5 C 395.851,362.779 348.851,356.112 303.5,338.5C 330.904,321.707 344.237,297.04 343.5,264.5C 364.609,268.101 379.443,279.768 388,299.5C 390.588,306.6 391.921,313.933 392,321.5C 392.273,323.329 393.107,324.829 394.5,326C 418.022,326.577 434.689,337.411 444.5,358.5 Z"/></g>
<g><path style="opacity:1" fill="#87888c" d="M 79.5,391.5 C 80.9042,419.659 93.5709,440.992 117.5,455.5C 104.163,455.667 90.8292,455.5 77.5,455C 43.8214,447.155 25.8214,425.989 23.5,391.5C 42.1667,391.5 60.8333,391.5 79.5,391.5 Z"/></g>
<g><path style="opacity:1" fill="#b7b7ba" d="M 79.5,391.5 C 215.5,391.5 351.5,391.5 487.5,391.5C 485.468,424.074 468.801,444.907 437.5,454C 330.86,455.485 224.193,455.985 117.5,455.5C 93.5709,440.992 80.9042,419.659 79.5,391.5 Z"/></g>
<g><path style="opacity:1" fill="#383939" d="M 143.5,471.5 C 218.167,471.5 292.833,471.5 367.5,471.5C 367.854,475.637 367.354,479.637 366,483.5C 363.958,485.604 361.458,486.771 358.5,487C 289.167,487.667 219.833,487.667 150.5,487C 147.417,486.214 145.251,484.381 144,481.5C 143.502,478.183 143.335,474.85 143.5,471.5 Z"/></g>
</svg>
