<?xml version="1.0" encoding="UTF-8"?>
<!DOCTYPE svg PUBLIC "-//W3C//DTD SVG 1.1//EN" "http://www.w3.org/Graphics/SVG/1.1/DTD/svg11.dtd">
<svg xmlns="http://www.w3.org/2000/svg" version="1.1" width="512px" height="512px" style="shape-rendering:geometricPrecision; text-rendering:geometricPrecision; image-rendering:optimizeQuality; fill-rule:evenodd; clip-rule:evenodd" xmlns:xlink="http://www.w3.org/1999/xlink">
<g><path style="opacity:0.976" fill="#010100" d="M 134.5,-0.5 C 157.833,-0.5 181.167,-0.5 204.5,-0.5C 207.858,1.69966 210.358,4.69966 212,8.5C 212.667,24.8333 212.667,41.1667 212,57.5C 210.96,60.9248 208.96,63.5915 206,65.5C 204.133,91.2289 211.466,113.896 228,133.5C 235.288,140.967 242.954,147.967 251,154.5C 253.434,157.795 255.101,161.462 256,165.5C 256.667,274.167 256.667,382.833 256,491.5C 252.948,501.717 246.448,508.383 236.5,511.5C 191.5,511.5 146.5,511.5 101.5,511.5C 89.6499,507.469 83.1499,499.135 82,486.5C 81.3333,381.167 81.3333,275.833 82,170.5C 82.1729,166.281 83.1729,162.281 85,158.5C 95.6418,148.191 105.975,137.524 116,126.5C 128.677,108.126 134.01,87.7931 132,65.5C 128.166,62.833 126.166,59.1663 126,54.5C 125.333,40.1667 125.333,25.8333 126,11.5C 126.64,5.86669 129.474,1.86669 134.5,-0.5 Z"/></g>
<g><path style="opacity:1" fill="#494155" d="M 149.5,14.5 C 149.5,26.8333 149.5,39.1667 149.5,51.5C 146.833,51.5 144.167,51.5 141.5,51.5C 141.5,39.1667 141.5,26.8333 141.5,14.5C 144.167,14.5 146.833,14.5 149.5,14.5 Z"/></g>
<g><path style="opacity:1" fill="#342e3e" d="M 149.5,14.5 C 165.5,14.5 181.5,14.5 197.5,14.5C 197.5,26.8333 197.5,39.1667 197.5,51.5C 181.5,51.5 165.5,51.5 149.5,51.5C 149.5,39.1667 149.5,26.8333 149.5,14.5 Z"/></g>
<g><path style="opacity:1" fill="#8f9997" d="M 190.5,67.5 C 179.5,67.5 168.5,67.5 157.5,67.5C 154.5,67.5 151.5,67.5 148.5,67.5C 148.817,71.7016 148.483,75.7016 147.5,79.5C 147.5,75.1667 147.5,70.8333 147.5,66.5C 162.01,66.1707 176.343,66.5041 190.5,67.5 Z"/></g>
<g><path style="opacity:1" fill="#e2f6f3" d="M 157.5,67.5 C 157.5,77.5 157.5,87.5 157.5,97.5C 153.833,97.5 150.167,97.5 146.5,97.5C 146.5,96.1667 146.5,94.8333 146.5,93.5C 146.998,88.8478 147.331,84.1811 147.5,79.5C 148.483,75.7016 148.817,71.7016 148.5,67.5C 151.5,67.5 154.5,67.5 157.5,67.5 Z"/></g>
<g><path style="opacity:1" fill="#d5e3e0" d="M 157.5,67.5 C 168.5,67.5 179.5,67.5 190.5,67.5C 190.459,77.2208 191.126,86.8874 192.5,96.5C 181.012,97.4949 169.345,97.8283 157.5,97.5C 157.5,87.5 157.5,77.5 157.5,67.5 Z"/></g>
<g><path style="opacity:1" fill="#7e8886" d="M 146.5,93.5 C 146.5,94.8333 146.5,96.1667 146.5,97.5C 150.167,97.5 153.833,97.5 157.5,97.5C 169.345,97.8283 181.012,97.4949 192.5,96.5C 193.043,96.56 193.376,96.8933 193.5,97.5C 177.514,98.4994 161.514,98.8328 145.5,98.5C 145.216,96.5853 145.549,94.9187 146.5,93.5 Z"/></g>
<g><path style="opacity:1" fill="#fc9626" d="M 160.5,113.5 C 162.256,125.671 166.756,136.671 174,146.5C 182.274,152.777 188.274,160.777 192,170.5C 193.093,185.303 193.593,200.136 193.5,215C 193.499,227.519 192.832,239.686 191.5,251.5C 179.402,246.286 167.402,240.786 155.5,235C 151.259,233.812 147.592,234.645 144.5,237.5C 139.081,235.64 133.748,233.473 128.5,231C 127.177,230.184 126.511,229.017 126.5,227.5C 126.731,224.215 125.397,221.715 122.5,220C 114.258,216.295 106.091,212.462 98,208.5C 97.3333,194.833 97.3333,181.167 98,167.5C 107,158.5 116,149.5 125,140.5C 131.063,132.209 136.23,123.376 140.5,114C 147.158,113.5 153.825,113.334 160.5,113.5 Z"/></g>
<g><path style="opacity:1" fill="#e47e22" d="M 160.5,113.5 C 173.184,113.168 185.851,113.501 198.5,114.5C 207.479,134.769 220.979,151.435 239,164.5C 239.791,165.745 240.291,167.078 240.5,168.5C 240.832,203.671 240.498,238.671 239.5,273.5C 223.192,266.677 207.192,259.344 191.5,251.5C 192.832,239.686 193.499,227.519 193.5,215C 193.593,200.136 193.093,185.303 192,170.5C 188.274,160.777 182.274,152.777 174,146.5C 166.756,136.671 162.256,125.671 160.5,113.5 Z"/></g>
<g><path style="opacity:1" fill="#874a14" d="M 240.5,168.5 C 241.83,203.669 241.83,239.002 240.5,274.5C 239.893,274.376 239.56,274.043 239.5,273.5C 240.498,238.671 240.832,203.671 240.5,168.5 Z"/></g>
<g><path style="opacity:1" fill="#f7c24d" d="M 126.5,227.5 C 126.511,229.017 127.177,230.184 128.5,231C 133.748,233.473 139.081,235.64 144.5,237.5C 142.767,241.731 143.767,245.231 147.5,248C 162.522,254.845 177.522,261.678 192.5,268.5C 192.815,272.371 192.482,276.038 191.5,279.5C 160.402,265.452 129.402,251.119 98.5,236.5C 97.5108,232.893 97.1774,229.226 97.5,225.5C 104.5,228.582 111.667,231.249 119,233.5C 122.864,233.131 125.364,231.131 126.5,227.5 Z"/></g>
<g><path style="opacity:1" fill="#494155" d="M 193.5,297.5 C 193.5,310.5 193.5,323.5 193.5,336.5C 161.735,322.119 130.068,307.452 98.5,292.5C 97.334,279.179 97.1673,265.846 98,252.5C 129.784,267.642 161.617,282.642 193.5,297.5 Z"/></g>
<g><path style="opacity:1" fill="#dd9f33" d="M 192.5,268.5 C 208.353,276.259 224.353,283.759 240.5,291C 241.46,294.73 241.793,298.563 241.5,302.5C 224.536,295.349 207.869,287.683 191.5,279.5C 192.482,276.038 192.815,272.371 192.5,268.5 Z"/></g>
<g><path style="opacity:1" fill="#342e3e" d="M 193.5,297.5 C 209.261,304.546 224.928,311.879 240.5,319.5C 241.499,332.483 241.832,345.483 241.5,358.5C 225.203,351.683 209.203,344.35 193.5,336.5C 193.5,323.5 193.5,310.5 193.5,297.5 Z"/></g>
<g><path style="opacity:1" fill="#f4c04c" d="M 193.5,353.5 C 194.036,356.698 193.369,359.365 191.5,361.5C 160.398,347.629 129.398,333.463 98.5,319C 97.3781,315.591 97.2114,312.091 98,308.5C 129.784,323.642 161.617,338.642 193.5,353.5 Z"/></g>
<g><path style="opacity:1" fill="#fc9626" d="M 193.5,379.5 C 193.5,396.5 193.5,413.5 193.5,430.5C 169.831,430.333 146.164,430.5 122.5,431C 116.663,433.198 115.163,437.032 118,442.5C 119.264,444.607 121.097,445.607 123.5,445.5C 146.661,446.498 169.994,446.831 193.5,446.5C 193.5,449.833 193.5,453.167 193.5,456.5C 169.994,456.169 146.661,456.502 123.5,457.5C 116.352,459.806 114.852,464.14 119,470.5C 119.75,471.126 120.584,471.626 121.5,472C 145.498,472.5 169.498,472.667 193.5,472.5C 193.5,480.5 193.5,488.5 193.5,496.5C 163.831,496.667 134.165,496.5 104.5,496C 101.667,494.5 99.5,492.333 98,489.5C 97.1667,438.163 97.3334,386.83 98.5,335.5C 130.313,349.907 161.979,364.574 193.5,379.5 Z"/></g>
<g><path style="opacity:0.971" fill="#030201" d="M 404.5,511.5 C 372.167,511.5 339.833,511.5 307.5,511.5C 300.677,508.834 296.51,503.834 295,496.5C 290.549,451.204 286.882,405.87 284,360.5C 286.281,354.263 290.781,350.763 297.5,350C 336.833,349.333 376.167,349.333 415.5,350C 423.932,351.434 428.599,356.434 429.5,365C 425.334,409.489 421.168,453.989 417,498.5C 414.647,504.685 410.48,509.018 404.5,511.5 Z"/></g>
<g><path style="opacity:1" fill="#da9d32" d="M 193.5,353.5 C 209.137,360.827 224.804,368.16 240.5,375.5C 241.833,378.5 241.833,381.5 240.5,384.5C 223.955,377.058 207.622,369.392 191.5,361.5C 193.369,359.365 194.036,356.698 193.5,353.5 Z"/></g>
<g><path style="opacity:1" fill="#e3f7f4" d="M 365.5,365.5 C 364.966,374.846 364.299,384.18 363.5,393.5C 360.615,393.194 357.948,393.527 355.5,394.5C 351.362,394.973 349.362,397.307 349.5,401.5C 342.5,401.5 335.5,401.5 328.5,401.5C 328.067,398.805 326.734,396.638 324.5,395C 316.841,394.5 309.174,394.334 301.5,394.5C 300.472,384.861 299.806,375.194 299.5,365.5C 321.5,365.5 343.5,365.5 365.5,365.5 Z"/></g>
<g><path style="opacity:1" fill="#d5e4e1" d="M 365.5,365.5 C 381.5,365.5 397.5,365.5 413.5,365.5C 412.645,373.474 411.978,381.474 411.5,389.5C 410.566,390.568 410.232,391.901 410.5,393.5C 394.833,393.5 379.167,393.5 363.5,393.5C 364.299,384.18 364.966,374.846 365.5,365.5 Z"/></g>
<g><path style="opacity:1" fill="#e07d22" d="M 193.5,379.5 C 209.382,386.691 225.216,394.024 241,401.5C 241.667,429.833 241.667,458.167 241,486.5C 239.99,490.843 237.49,494.01 233.5,496C 220.171,496.5 206.837,496.667 193.5,496.5C 193.5,488.5 193.5,480.5 193.5,472.5C 201.507,472.666 209.507,472.5 217.5,472C 222.833,467.333 222.833,462.667 217.5,458C 186.168,457.5 154.835,457.333 123.5,457.5C 146.661,456.502 169.994,456.169 193.5,456.5C 193.5,453.167 193.5,449.833 193.5,446.5C 169.994,446.831 146.661,446.498 123.5,445.5C 154.835,445.667 186.168,445.5 217.5,445C 223.232,439.392 222.565,434.726 215.5,431C 208.174,430.5 200.841,430.334 193.5,430.5C 193.5,413.5 193.5,396.5 193.5,379.5 Z"/></g>
<g><path style="opacity:1" fill="#808987" d="M 411.5,389.5 C 411.5,391.167 411.5,392.833 411.5,394.5C 392.833,394.5 374.167,394.5 355.5,394.5C 357.948,393.527 360.615,393.194 363.5,393.5C 379.167,393.5 394.833,393.5 410.5,393.5C 410.232,391.901 410.566,390.568 411.5,389.5 Z"/></g>
<g><path style="opacity:1" fill="#fc9627" d="M 328.5,401.5 C 335.5,401.5 342.5,401.5 349.5,401.5C 350.621,408.082 354.621,410.749 361.5,409.5C 360.032,429.85 358.365,450.184 356.5,470.5C 340.167,470.5 323.833,470.5 307.5,470.5C 306.499,451.479 305.165,432.479 303.5,413.5C 303.5,412.167 303.5,410.833 303.5,409.5C 309.69,409.823 315.69,409.49 321.5,408.5C 325.463,407.87 327.796,405.537 328.5,401.5 Z"/></g>
<g><path style="opacity:1" fill="#623a0f" d="M 321.5,408.5 C 315.69,409.49 309.69,409.823 303.5,409.5C 303.5,410.833 303.5,412.167 303.5,413.5C 302.549,412.081 302.216,410.415 302.5,408.5C 308.833,408.5 315.167,408.5 321.5,408.5 Z"/></g>
<g><path style="opacity:1" fill="#e47e22" d="M 361.5,409.5 C 377.5,409.5 393.5,409.5 409.5,409.5C 407.502,429.806 405.835,450.14 404.5,470.5C 388.5,470.5 372.5,470.5 356.5,470.5C 358.365,450.184 360.032,429.85 361.5,409.5 Z"/></g>
<g><path style="opacity:1" fill="#0a0501" d="M 193.5,430.5 C 200.841,430.334 208.174,430.5 215.5,431C 222.565,434.726 223.232,439.392 217.5,445C 186.168,445.5 154.835,445.667 123.5,445.5C 121.097,445.607 119.264,444.607 118,442.5C 115.163,437.032 116.663,433.198 122.5,431C 146.164,430.5 169.831,430.333 193.5,430.5 Z"/></g>
<g><path style="opacity:1" fill="#030302" d="M 123.5,457.5 C 154.835,457.333 186.168,457.5 217.5,458C 222.833,462.667 222.833,467.333 217.5,472C 209.507,472.5 201.507,472.666 193.5,472.5C 169.498,472.667 145.498,472.5 121.5,472C 120.584,471.626 119.75,471.126 119,470.5C 114.852,464.14 116.352,459.806 123.5,457.5 Z"/></g>
<g><path style="opacity:1" fill="#c7cecc" d="M 309.5,485.5 C 340.5,485.5 371.5,485.5 402.5,485.5C 402.665,488.518 402.498,491.518 402,494.5C 401.5,495 401,495.5 400.5,496C 371.167,496.667 341.833,496.667 312.5,496C 311.333,495.5 310.5,494.667 310,493.5C 309.503,490.854 309.336,488.187 309.5,485.5 Z"/></g>
</svg>
