<?xml version="1.0" encoding="UTF-8"?>
<!DOCTYPE svg PUBLIC "-//W3C//DTD SVG 1.1//EN" "http://www.w3.org/Graphics/SVG/1.1/DTD/svg11.dtd">
<svg xmlns="http://www.w3.org/2000/svg" version="1.1" width="256px" height="256px" style="shape-rendering:geometricPrecision; text-rendering:geometricPrecision; image-rendering:optimizeQuality; fill-rule:evenodd; clip-rule:evenodd" xmlns:xlink="http://www.w3.org/1999/xlink">
<g><path style="opacity:1" fill="#838383" d="M 110.5,67.5 C 110.027,68.9063 109.027,69.573 107.5,69.5C 107.973,68.0937 108.973,67.427 110.5,67.5 Z"/></g>
<g><path style="opacity:1" fill="#8b8b8b" d="M 96.5,80.5 C 96.573,82.0269 95.9063,83.0269 94.5,83.5C 94.427,81.9731 95.0937,80.9731 96.5,80.5 Z"/></g>
<g><path style="opacity:1" fill="#dcdcdc" d="M 88.5,101.5 C 88.665,104.85 88.4983,108.183 88,111.5C 87.8091,109.292 87.3091,107.292 86.5,105.5C 86.9887,104.005 87.6554,102.671 88.5,101.5 Z"/></g>
<g><path style="opacity:1" fill="#838383" d="M 77.5,109.5 C 77.0269,110.906 76.0269,111.573 74.5,111.5C 74.9731,110.094 75.9731,109.427 77.5,109.5 Z"/></g>
<g><path style="opacity:1" fill="#b0b0b0" d="M 178.5,113.5 C 179.492,113.328 180.158,113.662 180.5,114.5C 179.25,114.577 178.417,115.244 178,116.5C 177.26,115.251 177.427,114.251 178.5,113.5 Z"/></g>
<g><path style="opacity:1" fill="#161514" d="M 178.5,113.5 C 177.427,114.251 177.26,115.251 178,116.5C 178.417,115.244 179.25,114.577 180.5,114.5C 192.639,119.81 200.806,128.81 205,141.5C 210.764,165.801 202.93,184.301 181.5,197C 167.129,203.353 153.129,202.853 139.5,195.5C 139.027,194.094 138.027,193.427 136.5,193.5C 132.908,191.414 129.741,188.747 127,185.5C 111.38,196.205 95.2138,197.205 78.5,188.5C 78.0269,187.094 77.0269,186.427 75.5,186.5C 56.2791,172.664 50.4458,154.331 58,131.5C 58.941,129.273 60.1077,127.273 61.5,125.5C 62.9063,125.027 63.573,124.027 63.5,122.5C 66.1453,117.855 69.8119,114.188 74.5,111.5C 76.0269,111.573 77.0269,110.906 77.5,109.5C 80.0884,107.408 83.0884,106.075 86.5,105.5C 87.3091,107.292 87.8091,109.292 88,111.5C 88.4983,108.183 88.665,104.85 88.5,101.5C 88.7234,94.8295 90.7234,88.8295 94.5,83.5C 95.9063,83.0269 96.573,82.0269 96.5,80.5C 99.1453,75.8547 102.812,72.188 107.5,69.5C 109.027,69.573 110.027,68.9063 110.5,67.5C 114.458,65.0067 118.791,63.1734 123.5,62C 156.697,58.9306 175.364,73.9306 179.5,107C 178.923,109.137 178.59,111.304 178.5,113.5 Z"/></g>
<g><path style="opacity:1" fill="#fde279" d="M 119.5,180.5 C 94.876,185.014 78.0427,175.681 69,152.5C 67.1693,144.872 67.0027,137.205 68.5,129.5C 71.2617,123.57 75.595,119.07 81.5,116C 83.9088,114.293 86.5755,113.46 89.5,113.5C 92.0611,129.972 100.894,141.638 116,148.5C 115.326,159.133 117.492,169.133 122.5,178.5C 121.995,179.919 120.995,180.585 119.5,180.5 Z"/></g>
<g><path style="opacity:1" fill="#f3ba5f" d="M 101.5,87.5 C 97.5361,111.412 106.536,128.245 128.5,138C 136.462,139.831 144.462,139.998 152.5,138.5C 130.975,149.409 113.475,144.742 100,124.5C 93.5458,111.733 94.0458,99.4 101.5,87.5 Z"/></g>
<g><path style="opacity:1" fill="#fde376" d="M 152.5,138.5 C 144.462,139.998 136.462,139.831 128.5,138C 106.536,128.245 97.5361,111.412 101.5,87.5C 110.973,72.4906 124.64,66.6573 142.5,70C 169.872,81.2604 177.372,100.427 165,127.5C 161.882,132.457 157.715,136.124 152.5,138.5 Z"/></g>
<g><path style="opacity:1" fill="#fffdf9" d="M 106.5,94.5 C 108.937,95.2172 111.27,96.2172 113.5,97.5C 112.046,101.699 109.046,103.365 104.5,102.5C 104.283,99.5794 104.949,96.9128 106.5,94.5 Z"/></g>
<g><path style="opacity:1" fill="#fffdf6" d="M 116.5,81.5 C 122.659,85.0637 122.659,88.397 116.5,91.5C 114.684,90.1851 113.017,88.6851 111.5,87C 113.373,85.2962 115.04,83.4628 116.5,81.5 Z"/></g>
<g><path style="opacity:1" fill="#fde277" d="M 180.5,187.5 C 152.396,191.717 135.063,180.05 128.5,152.5C 132.371,152.815 136.038,152.482 139.5,151.5C 149.589,149.706 158.422,145.372 166,138.5C 170.328,133.179 174.162,127.512 177.5,121.5C 199.582,134.926 204.749,153.259 193,176.5C 189.882,181.457 185.715,185.124 180.5,187.5 Z"/></g>
<g><path style="opacity:1" fill="#8b8b8b" d="M 63.5,122.5 C 63.573,124.027 62.9063,125.027 61.5,125.5C 61.427,123.973 62.0937,122.973 63.5,122.5 Z"/></g>
<g><path style="opacity:1" fill="#fffdf6" d="M 83.5,123.5 C 89.6587,127.064 89.6587,130.397 83.5,133.5C 81.6841,132.185 80.0175,130.685 78.5,129C 80.3734,127.296 82.0401,125.463 83.5,123.5 Z"/></g>
<g><path style="opacity:1" fill="#f3ba5f" d="M 68.5,129.5 C 67.0027,137.205 67.1693,144.872 69,152.5C 78.0427,175.681 94.876,185.014 119.5,180.5C 97.9753,191.409 80.4753,186.742 67,166.5C 60.5458,153.733 61.0458,141.4 68.5,129.5 Z"/></g>
<g><path style="opacity:1" fill="#fffdf6" d="M 73.5,136.5 C 75.9366,137.217 78.2699,138.217 80.5,139.5C 79.2528,141.323 78.5861,143.323 78.5,145.5C 76.1944,145.007 73.861,144.674 71.5,144.5C 71.2826,141.579 71.9493,138.913 73.5,136.5 Z"/></g>
<g><path style="opacity:1" fill="#f4bb62" d="M 126.5,151.5 C 130.833,151.5 135.167,151.5 139.5,151.5C 136.038,152.482 132.371,152.815 128.5,152.5C 135.063,180.05 152.396,191.717 180.5,187.5C 162.368,197.52 146.201,194.853 132,179.5C 127.836,173.843 125.336,167.51 124.5,160.5C 123.945,156.988 124.612,153.988 126.5,151.5 Z"/></g>
<g><path style="opacity:1" fill="#96774b" d="M 126.5,151.5 C 124.612,153.988 123.945,156.988 124.5,160.5C 123.799,157.437 123.132,154.27 122.5,151C 124.066,150.235 125.399,150.402 126.5,151.5 Z"/></g>
<g><path style="opacity:1" fill="#a5a5a5" d="M 75.5,186.5 C 77.0269,186.427 78.0269,187.094 78.5,188.5C 76.9731,188.573 75.9731,187.906 75.5,186.5 Z"/></g>
<g><path style="opacity:1" fill="#a5a5a5" d="M 136.5,193.5 C 138.027,193.427 139.027,194.094 139.5,195.5C 137.973,195.573 136.973,194.906 136.5,193.5 Z"/></g>
</svg>
