<?xml version="1.0" encoding="UTF-8"?>
<!DOCTYPE svg PUBLIC "-//W3C//DTD SVG 1.1//EN" "http://www.w3.org/Graphics/SVG/1.1/DTD/svg11.dtd">
<svg xmlns="http://www.w3.org/2000/svg" version="1.1" width="512px" height="512px" style="shape-rendering:geometricPrecision; text-rendering:geometricPrecision; image-rendering:optimizeQuality; fill-rule:evenodd; clip-rule:evenodd" xmlns:xlink="http://www.w3.org/1999/xlink">
<g><path style="opacity:0.982" fill="#030303" d="M 177.5,-0.5 C 182.833,-0.5 188.167,-0.5 193.5,-0.5C 199.356,2.02735 204.522,5.69402 209,10.5C 212.06,16.1788 214.226,22.1788 215.5,28.5C 270.83,29.3333 326.164,29.8333 381.5,30C 391.022,31.1901 397.188,36.3568 400,45.5C 400.667,109.167 400.667,172.833 400,236.5C 397.63,244.369 392.464,249.369 384.5,251.5C 380.062,310.778 376.229,370.112 373,429.5C 370.969,445.448 369.302,461.448 368,477.5C 365.55,482.284 362.05,486.117 357.5,489C 333.828,502.414 308.495,509.914 281.5,511.5C 264.167,511.5 246.833,511.5 229.5,511.5C 207.473,509.723 186.14,504.556 165.5,496C 157.877,492.273 151.044,487.439 145,481.5C 143.25,478.754 142.25,475.754 142,472.5C 136.329,400.592 131.495,328.592 127.5,256.5C 127.167,254.833 126.833,253.167 126.5,251.5C 118.536,249.369 113.37,244.369 111,236.5C 110.333,172.833 110.333,109.167 111,45.5C 113.072,38.4269 117.572,33.5936 124.5,31C 135.111,29.6254 145.778,29.1254 156.5,29.5C 157.126,14.8797 164.126,4.87972 177.5,-0.5 Z"/></g>
<g><path style="opacity:1" fill="#c5e671" d="M 181.5,14.5 C 190.878,13.4327 196.712,17.4327 199,26.5C 208.489,67.7818 217.656,109.115 226.5,150.5C 221.097,151.517 215.764,152.851 210.5,154.5C 198.712,113.635 186.212,72.9687 173,32.5C 171.3,24.2372 174.133,18.2372 181.5,14.5 Z"/></g>
<g><path style="opacity:1" fill="#eeeef1" d="M 273.5,79.5 C 266.549,80.0659 259.882,79.3993 253.5,77.5C 252.746,74.909 251.079,73.0757 248.5,72C 240.173,71.5003 231.84,71.3336 223.5,71.5C 222.249,62.7491 220.582,54.0824 218.5,45.5C 273.168,45.3333 327.834,45.5 382.5,46C 383,46.5 383.5,47 384,47.5C 385.659,109.084 385.992,170.751 385,232.5C 384.5,234.333 383.333,235.5 381.5,236C 321.5,236.333 261.5,236.667 201.5,237C 199.077,238.571 197.744,240.737 197.5,243.5C 190.833,243.5 184.167,243.5 177.5,243.5C 177.16,240.325 175.493,238.159 172.5,237C 158.167,236.667 143.833,236.333 129.5,236C 127.667,235.5 126.5,234.333 126,232.5C 125.008,170.751 125.341,109.084 127,47.5C 127.5,47 128,46.5 128.5,46C 139.5,45.3333 150.5,45.3333 161.5,46C 164.495,54.9712 167.495,63.9712 170.5,73C 166.097,76.3957 161.93,80.229 158,84.5C 155.227,88.8155 153.227,93.4821 152,98.5C 151.333,126.167 151.333,153.833 152,181.5C 154.726,197.226 163.892,206.726 179.5,210C 229.833,210.667 280.167,210.667 330.5,210C 346.667,207.167 356.167,197.667 359,181.5C 359.667,153.833 359.667,126.167 359,98.5C 355.249,83.414 345.749,74.5806 330.5,72C 313.167,71.3333 295.833,71.3333 278.5,72C 275.706,73.755 274.04,76.255 273.5,79.5 Z"/></g>
<g><path style="opacity:1" fill="#c4bfc6" d="M 253.5,77.5 C 259.882,79.3993 266.549,80.0659 273.5,79.5C 273.84,82.6748 275.507,84.8415 278.5,86C 296.167,86.3333 313.833,86.6667 331.5,87C 338.195,89.1906 342.195,93.6906 343.5,100.5C 343.825,107.687 343.491,114.687 342.5,121.5C 331.864,114.605 320.197,112.105 307.5,114C 300.116,116.128 292.783,118.461 285.5,121C 278.833,121.667 272.167,121.667 265.5,121C 255.343,116.294 244.677,113.794 233.5,113.5C 231.816,104.765 229.816,96.0984 227.5,87.5C 234.476,86.6689 241.476,86.1689 248.5,86C 252.488,84.516 254.154,81.6826 253.5,77.5 Z"/></g>
<g><path style="opacity:1" fill="#c1bcc3" d="M 168.5,129.5 C 167.506,120.014 167.173,110.348 167.5,100.5C 168.066,96.2033 170.066,92.7033 173.5,90C 174.332,89.3123 174.998,89.479 175.5,90.5C 178.833,100.833 182.167,111.167 185.5,121.5C 179.419,123.375 173.752,126.041 168.5,129.5 Z"/></g>
<g><path style="opacity:1" fill="#6c696d" d="M 167.5,100.5 C 167.173,110.348 167.506,120.014 168.5,129.5C 168.44,130.043 168.107,130.376 167.5,130.5C 166.177,120.341 166.177,110.341 167.5,100.5 Z"/></g>
<g><path style="opacity:1" fill="#6a686b" d="M 343.5,100.5 C 344.819,107.677 344.819,115.01 343.5,122.5C 342.893,122.376 342.56,122.043 342.5,121.5C 343.491,114.687 343.825,107.687 343.5,100.5 Z"/></g>
<g><path style="opacity:1" fill="#f5eec1" d="M 308.5,129.5 C 326.213,125.609 338.047,132.276 344,149.5C 344.667,159.833 344.667,170.167 344,180.5C 342.5,188.667 337.667,193.5 329.5,195C 279.833,195.667 230.167,195.667 180.5,195C 173.682,193.347 169.348,189.181 167.5,182.5C 208.835,182.667 250.168,182.5 291.5,182C 301.567,179.6 308.067,173.434 311,163.5C 311.5,152.172 311.667,140.838 311.5,129.5C 310.5,129.5 309.5,129.5 308.5,129.5 Z"/></g>
<g><path style="opacity:1" fill="#fbf5df" d="M 308.5,129.5 C 309.5,129.5 310.5,129.5 311.5,129.5C 311.667,140.838 311.5,152.172 311,163.5C 308.067,173.434 301.567,179.6 291.5,182C 250.168,182.5 208.835,182.667 167.5,182.5C 166.394,174.215 166.227,165.882 167,157.5C 170.1,144.867 177.933,138.534 190.5,138.5C 192.813,145.089 194.813,151.755 196.5,158.5C 188.887,157.614 185.387,160.947 186,168.5C 189.298,173.22 193.798,174.72 199.5,173C 207.831,171.836 215.831,169.503 223.5,166C 230.833,165.333 238.167,165.333 245.5,166C 252.643,168.937 259.976,171.27 267.5,173C 271.167,173.667 274.833,173.667 278.5,173C 283.774,169.702 284.774,165.369 281.5,160C 271.051,159.109 261.051,156.442 251.5,152C 248.146,151.545 244.813,151.045 241.5,150.5C 240.38,143.111 239.047,135.778 237.5,128.5C 239.527,128.338 241.527,128.505 243.5,129C 250.405,131.62 257.405,133.953 264.5,136C 273.22,136.839 281.887,136.505 290.5,135C 296.421,132.871 302.421,131.038 308.5,129.5 Z"/></g>
<g><path style="opacity:1" fill="#92d7e3" d="M 177.5,243.5 C 184.167,243.5 190.833,243.5 197.5,243.5C 197.544,247.09 199.211,249.59 202.5,251C 246.499,251.5 290.499,251.667 334.5,251.5C 332.364,290.51 329.864,329.51 327,368.5C 317.055,414.779 288.888,442.612 242.5,452C 218.775,453.016 195.108,452.516 171.5,450.5C 164.627,448.481 158.794,444.814 154,439.5C 150.754,379.48 147.254,319.48 143.5,259.5C 143.5,256.833 143.5,254.167 143.5,251.5C 153.015,251.827 162.348,251.494 171.5,250.5C 175.113,249.637 177.113,247.303 177.5,243.5 Z"/></g>
<g><path style="opacity:1" fill="#202f32" d="M 171.5,250.5 C 162.348,251.494 153.015,251.827 143.5,251.5C 143.5,254.167 143.5,256.833 143.5,259.5C 142.523,256.713 142.19,253.713 142.5,250.5C 152.167,250.5 161.833,250.5 171.5,250.5 Z"/></g>
<g><path style="opacity:1" fill="#79cedd" d="M 334.5,251.5 C 345.5,251.5 356.5,251.5 367.5,251.5C 364.059,314.166 360.559,376.833 357,439.5C 350.352,444.991 343.352,449.991 336,454.5C 335.503,456.81 335.337,459.143 335.5,461.5C 329.211,463.322 322.877,464.989 316.5,466.5C 314.905,462.531 311.905,460.865 307.5,461.5C 278.587,465.575 249.587,466.408 220.5,464C 211.409,462.81 202.409,461.144 193.5,459C 185.662,457.225 178.329,454.392 171.5,450.5C 195.108,452.516 218.775,453.016 242.5,452C 288.888,442.612 317.055,414.779 327,368.5C 329.864,329.51 332.364,290.51 334.5,251.5 Z"/></g>
<g><path style="opacity:1" fill="#ececef" d="M 316.5,466.5 C 322.877,464.989 329.211,463.322 335.5,461.5C 337.292,463.461 339.458,464.795 342,465.5C 345.76,464.858 349.26,463.524 352.5,461.5C 353.795,465.38 353.795,469.214 352.5,473C 338.592,482.64 323.259,488.973 306.5,492C 269.008,498.439 231.674,497.773 194.5,490C 181.19,486.428 169.024,480.594 158,472.5C 157.175,468.789 157.341,465.122 158.5,461.5C 177.987,471.373 198.654,477.206 220.5,479C 251.365,481.827 282.032,480.494 312.5,475C 315.321,472.859 316.654,470.025 316.5,466.5 Z"/></g>
</svg>
