<?xml version="1.0" encoding="UTF-8"?>
<!DOCTYPE svg PUBLIC "-//W3C//DTD SVG 1.1//EN" "http://www.w3.org/Graphics/SVG/1.1/DTD/svg11.dtd">
<svg xmlns="http://www.w3.org/2000/svg" version="1.1" width="512px" height="512px" style="shape-rendering:geometricPrecision; text-rendering:geometricPrecision; image-rendering:optimizeQuality; fill-rule:evenodd; clip-rule:evenodd" xmlns:xlink="http://www.w3.org/1999/xlink">
<g><path style="opacity:0.972" fill="#020101" d="M 327.5,-0.5 C 329.5,-0.5 331.5,-0.5 333.5,-0.5C 338.118,1.95408 341.618,5.62075 344,10.5C 358.244,33.8968 366.91,59.2302 370,86.5C 393.595,66.8724 420.595,54.2058 451,48.5C 459.555,50.0504 462.888,55.0504 461,63.5C 455.284,92.7608 442.784,118.594 423.5,141C 450.247,143.941 475.247,152.274 498.5,166C 503.336,169.015 507.669,172.515 511.5,176.5C 511.5,179.5 511.5,182.5 511.5,185.5C 502.101,193.717 491.434,200.217 479.5,205C 453.896,215.587 427.23,220.087 399.5,218.5C 401.266,240.438 395.433,260.105 382,277.5C 325.472,335.695 267.972,392.862 209.5,449C 192.347,461.913 173.681,472.246 153.5,480C 114.132,490.84 74.7985,501.34 35.5,511.5C 31.8333,511.5 28.1667,511.5 24.5,511.5C 12.0357,508.371 3.70238,500.704 -0.5,488.5C -0.5,482.833 -0.5,477.167 -0.5,471.5C 8.95087,437.037 18.1175,402.37 27,367.5C 36.7778,336.926 52.4444,309.926 74,286.5C 98.8333,261.667 123.667,236.833 148.5,212C 153.448,208.92 158.448,208.753 163.5,211.5C 164.633,214.271 165.633,217.104 166.5,220C 166.007,222.819 164.84,225.319 163,227.5C 144.319,246.014 125.819,264.681 107.5,283.5C 114.184,290.35 120.684,297.35 127,304.5C 128.5,315 124,319.5 113.5,318C 106.35,311.684 99.3496,305.184 92.5,298.5C 70.4011,320.005 54.9011,345.672 46,375.5C 37.3333,408.833 28.6667,442.167 20,475.5C 18.8882,487.717 24.3882,492.551 36.5,490C 72.0303,481.118 107.364,471.618 142.5,461.5C 131.514,450.014 120.348,438.681 109,427.5C 106.409,415.196 111.243,410.696 123.5,414C 136.681,427.347 150.014,440.514 163.5,453.5C 177.525,446.493 190.525,437.993 202.5,428C 216.347,414.319 230.014,400.486 243.5,386.5C 239.182,381.681 234.682,377.015 230,372.5C 226.059,366.208 227.225,361.042 233.5,357C 236.167,356.333 238.833,356.333 241.5,357C 247.302,361.8 252.802,366.967 258,372.5C 281.833,348.667 305.667,324.833 329.5,301C 318.333,289.833 307.167,278.667 296,267.5C 292.354,259.129 294.854,253.796 303.5,251.5C 306.028,251.763 308.361,252.596 310.5,254C 321.347,265.014 332.347,275.848 343.5,286.5C 354.261,277.243 363.761,266.909 372,255.5C 383.732,230.905 381.732,207.572 366,185.5C 352.167,171.667 338.333,157.833 324.5,144C 303.823,129 281.823,126.667 258.5,137C 265.032,143.198 271.199,149.698 277,156.5C 278.5,167 274,171.5 263.5,170C 256.624,162.789 249.457,155.956 242,149.5C 235.805,155.362 229.305,160.862 222.5,166C 220.833,166.667 219.167,166.667 217.5,166C 215.593,164.878 213.593,164.045 211.5,163.5C 208.753,158.448 208.92,153.448 212,148.5C 223.89,134.6 238.057,123.766 254.5,116C 267.115,111.507 280.115,109.674 293.5,110.5C 290.987,71.5472 300.487,35.8805 322,3.5C 323.812,2.02294 325.645,0.689603 327.5,-0.5 Z"/></g>
<g><path style="opacity:1" fill="#c8e156" d="M 315.5,116.5 C 314.523,105.248 314.189,93.9143 314.5,82.5C 316.081,63.5921 321.581,45.9255 331,29.5C 340.588,46.2627 346.588,64.2627 349,83.5C 349.833,102.176 349.666,120.842 348.5,139.5C 339.358,129.101 328.358,121.435 315.5,116.5 Z"/></g>
<g><path style="opacity:1" fill="#dceb98" d="M 433.5,73.5 C 434.873,73.3433 436.207,73.51 437.5,74C 429.068,99.8731 415.068,122.206 395.5,141C 386.808,141.289 378.141,141.789 369.5,142.5C 369.334,133.161 369.5,123.827 370,114.5C 387.928,95.7242 409.095,82.0576 433.5,73.5 Z"/></g>
<g><path style="opacity:1" fill="#a0b545" d="M 314.5,82.5 C 314.189,93.9143 314.523,105.248 315.5,116.5C 314.171,111.208 313.504,105.542 313.5,99.5C 313.501,93.6565 313.834,87.9899 314.5,82.5 Z"/></g>
<g><path style="opacity:1" fill="#dcb8a2" d="M 163.5,211.5 C 169.167,206.5 174.5,201.167 179.5,195.5C 194.833,200.167 200.167,194.833 195.5,179.5C 201.167,174.5 206.5,169.167 211.5,163.5C 213.593,164.045 215.593,164.878 217.5,166C 219.167,166.667 220.833,166.667 222.5,166C 229.305,160.862 235.805,155.362 242,149.5C 249.457,155.956 256.624,162.789 263.5,170C 274,171.5 278.5,167 277,156.5C 271.199,149.698 265.032,143.198 258.5,137C 281.823,126.667 303.823,129 324.5,144C 338.333,157.833 352.167,171.667 366,185.5C 381.732,207.572 383.732,230.905 372,255.5C 363.761,266.909 354.261,277.243 343.5,286.5C 332.347,275.848 321.347,265.014 310.5,254C 308.361,252.596 306.028,251.763 303.5,251.5C 294.854,253.796 292.354,259.129 296,267.5C 307.167,278.667 318.333,289.833 329.5,301C 305.667,324.833 281.833,348.667 258,372.5C 252.802,366.967 247.302,361.8 241.5,357C 238.833,356.333 236.167,356.333 233.5,357C 227.225,361.042 226.059,366.208 230,372.5C 234.682,377.015 239.182,381.681 243.5,386.5C 230.014,400.486 216.347,414.319 202.5,428C 190.525,437.993 177.525,446.493 163.5,453.5C 150.014,440.514 136.681,427.347 123.5,414C 111.243,410.696 106.409,415.196 109,427.5C 120.348,438.681 131.514,450.014 142.5,461.5C 107.364,471.618 72.0303,481.118 36.5,490C 24.3882,492.551 18.8882,487.717 20,475.5C 28.6667,442.167 37.3333,408.833 46,375.5C 54.9011,345.672 70.4011,320.005 92.5,298.5C 99.3496,305.184 106.35,311.684 113.5,318C 124,319.5 128.5,315 127,304.5C 120.684,297.35 114.184,290.35 107.5,283.5C 125.819,264.681 144.319,246.014 163,227.5C 164.84,225.319 166.007,222.819 166.5,220C 165.633,217.104 164.633,214.271 163.5,211.5 Z"/></g>
<g><path style="opacity:1" fill="#c8e156" d="M 372.5,161.5 C 395.954,160.641 419.287,161.808 442.5,165C 456.266,168.309 469.266,173.476 481.5,180.5C 465.602,189.299 448.602,194.799 430.5,197C 418.505,197.5 406.505,197.667 394.5,197.5C 389.868,184.024 382.202,172.524 371.5,163C 372.056,162.617 372.389,162.117 372.5,161.5 Z"/></g>
<g><path style="opacity:0.94" fill="#020201" d="M 195.5,179.5 C 200.167,194.833 194.833,200.167 179.5,195.5C 175.634,188.026 177.3,182.193 184.5,178C 188.357,177.242 192.023,177.742 195.5,179.5 Z"/></g>
<g><path style="opacity:1" fill="#030202" d="M 195.5,244.5 C 198.978,244.184 202.312,244.684 205.5,246C 216,256.5 226.5,267 237,277.5C 238.244,289.627 233.077,293.794 221.5,290C 211.667,280.167 201.833,270.333 192,260.5C 189.156,254.181 190.323,248.847 195.5,244.5 Z"/></g>
</svg>
