<?xml version="1.0" encoding="UTF-8"?>
<!DOCTYPE svg PUBLIC "-//W3C//DTD SVG 1.1//EN" "http://www.w3.org/Graphics/SVG/1.1/DTD/svg11.dtd">
<svg xmlns="http://www.w3.org/2000/svg" version="1.1" width="512px" height="512px" style="shape-rendering:geometricPrecision; text-rendering:geometricPrecision; image-rendering:optimizeQuality; fill-rule:evenodd; clip-rule:evenodd" xmlns:xlink="http://www.w3.org/1999/xlink">
<g><path style="opacity:0.978" fill="#010101" d="M 205.5,-0.5 C 219.5,-0.5 233.5,-0.5 247.5,-0.5C 266.325,1.99912 283.325,8.99912 298.5,20.5C 338.464,17.2719 376.798,23.7719 413.5,40C 453.497,59.1407 471.997,90.974 469,135.5C 466.997,157.847 461.997,179.514 454,200.5C 444.816,224.035 433.649,246.535 420.5,268C 417.649,269.289 414.649,269.789 411.5,269.5C 411.315,267.804 410.481,266.471 409,265.5C 408.333,262.833 408.333,260.167 409,257.5C 430.951,221.598 445.617,182.932 453,141.5C 458.339,101.001 442.839,71.8347 406.5,54C 393.843,48.7251 380.843,44.5585 367.5,41.5C 348.9,35.8997 329.9,33.8997 310.5,35.5C 323.825,57.3094 331.659,80.9761 334,106.5C 353.14,110.32 370.64,117.82 386.5,129C 403.057,144.999 409.89,164.499 407,187.5C 404.167,207.334 398.5,226.334 390,244.5C 369.607,284.857 345.273,322.524 317,357.5C 302.044,376.392 286.377,394.725 270,412.5C 267.668,417.332 265.834,422.332 264.5,427.5C 258.431,441.634 252.931,455.967 248,470.5C 304.12,410.403 354.12,345.736 398,276.5C 401.303,274.256 404.803,273.923 408.5,275.5C 410.68,277.031 411.68,279.198 411.5,282C 410.871,284.993 409.704,287.827 408,290.5C 357.68,367.52 300.513,439.353 236.5,506C 232.259,508.349 227.925,510.182 223.5,511.5C 217.167,511.5 210.833,511.5 204.5,511.5C 201.1,509.963 197.767,508.13 194.5,506C 149.634,461.104 114.134,409.604 88,351.5C 66.8825,305.48 52.2158,257.48 44,207.5C 38.381,169.095 42.381,131.761 56,95.5C 59,89.5 62,83.5 65,77.5C 68.0203,74.3731 71.5203,73.3731 75.5,74.5C 78.6511,77.1361 79.8178,80.4695 79,84.5C 61.1698,117.621 54.1698,152.954 58,190.5C 59.0163,202.632 60.8496,214.632 63.5,226.5C 81.2449,184.255 111.578,155.089 154.5,139C 190.615,126.352 227.615,122.685 265.5,128C 276.957,130.316 287.623,134.482 297.5,140.5C 305.085,146.415 312.085,153.082 318.5,160.5C 323.43,126.224 319.93,92.8906 308,60.5C 295.637,33.8882 274.804,18.8882 245.5,15.5C 200.912,11.0382 159.245,19.8715 120.5,42C 109.319,49.1726 99.3188,57.8393 90.5,68C 87.1322,68.5428 83.7989,68.3761 80.5,67.5C 78.1926,63.9343 78.0259,60.2677 80,56.5C 101.632,32.5712 128.132,16.4045 159.5,8C 174.762,3.99226 190.095,1.15893 205.5,-0.5 Z"/></g>
<g><path style="opacity:1" fill="#555a6e" d="M 245.5,15.5 C 265.125,25.9639 278.958,41.6306 287,62.5C 295.862,87.7577 299.362,113.758 297.5,140.5C 287.623,134.482 276.957,130.316 265.5,128C 227.615,122.685 190.615,126.352 154.5,139C 111.578,155.089 81.2449,184.255 63.5,226.5C 60.8496,214.632 59.0163,202.632 58,190.5C 54.1698,152.954 61.1698,117.621 79,84.5C 79.8178,80.4695 78.6511,77.1361 75.5,74.5C 77.5224,72.4687 79.1891,70.1354 80.5,67.5C 83.7989,68.3761 87.1322,68.5428 90.5,68C 99.3188,57.8393 109.319,49.1726 120.5,42C 159.245,19.8715 200.912,11.0382 245.5,15.5 Z"/></g>
<g><path style="opacity:1" fill="#444652" d="M 245.5,15.5 C 274.804,18.8882 295.637,33.8882 308,60.5C 319.93,92.8906 323.43,126.224 318.5,160.5C 312.085,153.082 305.085,146.415 297.5,140.5C 299.362,113.758 295.862,87.7577 287,62.5C 278.958,41.6306 265.125,25.9639 245.5,15.5 Z"/></g>
<g><path style="opacity:1" fill="#444652" d="M 367.5,41.5 C 416.28,60.0252 437.113,95.3585 430,147.5C 424.87,174.222 416.537,199.888 405,224.5C 379.08,276.046 348.413,324.379 313,369.5C 297.379,389.457 281.379,409.123 265,428.5C 264.601,428.272 264.435,427.938 264.5,427.5C 265.834,422.332 267.668,417.332 270,412.5C 286.377,394.725 302.044,376.392 317,357.5C 345.273,322.524 369.607,284.857 390,244.5C 398.5,226.334 404.167,207.334 407,187.5C 409.89,164.499 403.057,144.999 386.5,129C 370.64,117.82 353.14,110.32 334,106.5C 331.659,80.9761 323.825,57.3094 310.5,35.5C 329.9,33.8997 348.9,35.8997 367.5,41.5 Z"/></g>
<g><path style="opacity:1" fill="#373946" d="M 367.5,41.5 C 380.843,44.5585 393.843,48.7251 406.5,54C 442.839,71.8347 458.339,101.001 453,141.5C 445.617,182.932 430.951,221.598 409,257.5C 408.333,260.167 408.333,262.833 409,265.5C 410.481,266.471 411.315,267.804 411.5,269.5C 410.5,271.5 409.5,273.5 408.5,275.5C 404.803,273.923 401.303,274.256 398,276.5C 354.12,345.736 304.12,410.403 248,470.5C 252.931,455.967 258.431,441.634 264.5,427.5C 264.435,427.938 264.601,428.272 265,428.5C 281.379,409.123 297.379,389.457 313,369.5C 348.413,324.379 379.08,276.046 405,224.5C 416.537,199.888 424.87,174.222 430,147.5C 437.113,95.3585 416.28,60.0252 367.5,41.5 Z"/></g>
<g><path style="opacity:1" fill="#f79359" d="M 337.5,123.5 C 383.153,131.803 400.32,158.47 389,203.5C 376.919,240.331 359.586,274.331 337,305.5C 320.813,328.691 303.48,351.024 285,372.5C 288.975,357.737 293.475,343.07 298.5,328.5C 328.263,292.14 350.763,251.473 366,206.5C 369.276,193.015 370.276,179.348 369,165.5C 364.815,146.162 353.649,132.829 335.5,125.5C 335.5,124.167 336.167,123.5 337.5,123.5 Z"/></g>
<g><path style="opacity:1" fill="#fcaa79" d="M 335.5,125.5 C 353.649,132.829 364.815,146.162 369,165.5C 370.276,179.348 369.276,193.015 366,206.5C 350.763,251.473 328.263,292.14 298.5,328.5C 313.446,280.716 324.612,232.049 332,182.5C 333.332,169.195 334.165,155.862 334.5,142.5C 335.489,137.025 335.822,131.358 335.5,125.5 Z"/></g>
<g><path style="opacity:1" fill="#563928" d="M 337.5,123.5 C 336.167,123.5 335.5,124.167 335.5,125.5C 335.822,131.358 335.489,137.025 334.5,142.5C 334.5,135.833 334.5,129.167 334.5,122.5C 335.791,122.263 336.791,122.596 337.5,123.5 Z"/></g>
<g><path style="opacity:1" fill="#555a6e" d="M 296.5,159.5 C 293.887,187.405 289.72,215.072 284,242.5C 278.451,265.257 272.617,287.924 266.5,310.5C 264.5,310.5 262.5,310.5 260.5,310.5C 216.27,308.245 174.603,317.412 135.5,338C 127.08,343.253 119.08,349.087 111.5,355.5C 94.0164,324.52 80.3497,291.854 70.5,257.5C 83.5285,199.971 118.529,163.471 175.5,148C 201.123,141.508 227.123,139.174 253.5,141C 270.042,142.445 284.376,148.611 296.5,159.5 Z"/></g>
<g><path style="opacity:1" fill="#444652" d="M 296.5,159.5 C 305.973,166.956 312.306,176.456 315.5,188C 309.339,231.804 299.339,274.638 285.5,316.5C 277.219,313.716 268.886,311.716 260.5,310.5C 262.5,310.5 264.5,310.5 266.5,310.5C 272.617,287.924 278.451,265.257 284,242.5C 289.72,215.072 293.887,187.405 296.5,159.5 Z"/></g>
<g><path style="opacity:1" fill="#555a6e" d="M 259.5,325.5 C 260.473,327.068 260.64,328.735 260,330.5C 243.044,384.716 223.211,437.716 200.5,489.5C 169.487,452.509 142.153,412.843 118.5,370.5C 136.571,352.954 157.905,340.788 182.5,334C 207.746,327.46 233.413,324.626 259.5,325.5 Z"/></g>
<g><path style="opacity:1" fill="#444652" d="M 259.5,325.5 C 266.919,326.75 274.253,328.417 281.5,330.5C 264.728,384.984 244.895,438.318 222,490.5C 216.972,495.579 211.139,496.745 204.5,494C 202.616,492.951 201.282,491.451 200.5,489.5C 223.211,437.716 243.044,384.716 260,330.5C 260.64,328.735 260.473,327.068 259.5,325.5 Z"/></g>
</svg>
