<?xml version="1.0" encoding="UTF-8"?>
<!DOCTYPE svg PUBLIC "-//W3C//DTD SVG 1.1//EN" "http://www.w3.org/Graphics/SVG/1.1/DTD/svg11.dtd">
<svg xmlns="http://www.w3.org/2000/svg" version="1.1" width="512px" height="512px" style="shape-rendering:geometricPrecision; text-rendering:geometricPrecision; image-rendering:optimizeQuality; fill-rule:evenodd; clip-rule:evenodd" xmlns:xlink="http://www.w3.org/1999/xlink">
<g><path style="opacity:0.973" fill="#010100" d="M 299.5,-0.5 C 304.167,-0.5 308.833,-0.5 313.5,-0.5C 326.778,5.9677 335.944,16.301 341,30.5C 348.015,48.2269 352.682,66.5602 355,85.5C 372.74,68.8725 393.24,56.7058 416.5,49C 453.128,41.9617 468.295,56.795 462,93.5C 459.509,102.971 455.843,111.971 451,120.5C 443.417,132.581 435.251,144.248 426.5,155.5C 445.083,158.195 463.083,163.028 480.5,170C 494.699,175.056 505.032,184.222 511.5,197.5C 511.5,202.167 511.5,206.833 511.5,211.5C 508.306,219.013 503.306,225.179 496.5,230C 473.613,243.071 448.947,250.738 422.5,253C 404.172,254.731 385.838,254.897 367.5,253.5C 370.808,283.707 361.142,308.874 338.5,329C 301.698,360.141 264.031,390.141 225.5,419C 186.203,447.907 144.537,473.241 100.5,495C 84.285,502.239 67.6183,507.739 50.5,511.5C 42.5,511.5 34.5,511.5 26.5,511.5C 11.8333,508.167 2.83333,499.167 -0.5,484.5C -0.5,476.833 -0.5,469.167 -0.5,461.5C 2.22176,448.301 6.0551,435.301 11,422.5C 19.6122,402.609 29.2788,383.276 40,364.5C 70.8915,314.279 104.892,266.279 142,220.5C 155.333,204.5 168.667,188.5 182,172.5C 202.126,149.858 227.293,140.192 257.5,143.5C 253.404,104.671 258.238,67.0039 272,30.5C 277.056,16.301 286.222,5.9677 299.5,-0.5 Z"/></g>
<g><path style="opacity:1" fill="#47ba7e" d="M 304.5,19.5 C 308.232,19.9504 311.398,21.6171 314,24.5C 328.656,49.4561 335.656,76.4561 335,105.5C 319.932,121.578 307.599,139.578 298,159.5C 291.782,155.807 285.282,152.807 278.5,150.5C 273.241,112.081 277.408,74.7481 291,38.5C 294.061,31.0063 298.561,24.673 304.5,19.5 Z"/></g>
<g><path style="opacity:1" fill="#47bb7f" d="M 425.5,67.5 C 430.599,67.1746 435.599,67.6746 440.5,69C 442.917,71.4794 443.917,74.4794 443.5,78C 443.299,85.9013 441.465,93.4013 438,100.5C 416.833,141.667 385.667,172.833 344.5,194C 342.553,194.991 340.553,195.325 338.5,195C 330.931,186.602 323.264,178.436 315.5,170.5C 334.958,129.873 364.291,98.3733 403.5,76C 410.763,72.6405 418.097,69.8072 425.5,67.5 Z"/></g>
<g><path style="opacity:1" fill="#fc993c" d="M 234.5,163.5 C 252.665,162.124 269.665,165.958 285.5,175C 309.925,189.757 328.425,209.924 341,235.5C 353.12,264.367 348.287,289.867 326.5,312C 281.13,350.84 234.13,387.507 185.5,422C 156.642,441.938 126.309,459.605 94.5,475C 79.0727,482.047 63.0727,487.38 46.5,491C 38.4413,492.414 30.7746,491.414 23.5,488C 19.8125,480.607 18.6458,472.774 20,464.5C 25.9237,438.401 35.5904,413.734 49,390.5C 72.9783,349.204 99.3117,309.537 128,271.5C 150.949,241.949 174.615,212.949 199,184.5C 209.02,174.247 220.854,167.247 234.5,163.5 Z"/></g>
<g><path style="opacity:1" fill="#47bb7e" d="M 406.5,174.5 C 432.432,175.653 457.099,181.819 480.5,193C 485.727,195.393 489.394,199.226 491.5,204.5C 490.909,206.266 490.076,207.933 489,209.5C 484.594,213.288 479.761,216.455 474.5,219C 437.679,233.179 399.679,237.679 360.5,232.5C 358.661,225.485 355.661,218.985 351.5,213C 371.949,203.028 390.282,190.195 406.5,174.5 Z"/></g>
<g><path style="opacity:1" fill="#050201" d="M 239.5,200.5 C 242.941,200.301 246.274,200.801 249.5,202C 260,212.5 270.5,223 281,233.5C 283.898,241.95 280.898,246.95 272,248.5C 269.456,248.616 267.289,247.783 265.5,246C 254.97,235.804 244.803,225.304 235,214.5C 233.454,208.794 234.954,204.127 239.5,200.5 Z"/></g>
<g><path style="opacity:1" fill="#040200" d="M 225.5,271.5 C 228.978,271.184 232.312,271.684 235.5,273C 246,283.5 256.5,294 267,304.5C 269.349,312.812 266.349,317.812 258,319.5C 255.21,318.906 252.71,317.739 250.5,316C 240.303,306.137 230.47,295.971 221,285.5C 219.311,279.655 220.811,274.988 225.5,271.5 Z"/></g>
<g><path style="opacity:1" fill="#0a0502" d="M 155.5,285.5 C 160.05,284.884 164.05,286.051 167.5,289C 176.333,297.833 185.167,306.667 194,315.5C 199.999,324.168 197.999,330.168 188,333.5C 184.823,333.109 181.99,331.943 179.5,330C 169.303,320.137 159.47,309.971 150,299.5C 148.268,293.314 150.101,288.647 155.5,285.5 Z"/></g>
<g><path style="opacity:1" fill="#050201" d="M 209.5,337.5 C 219.823,335.992 224.323,340.325 223,350.5C 220.081,356.025 215.581,357.858 209.5,356C 202.879,349.788 202.879,343.621 209.5,337.5 Z"/></g>
<g><path style="opacity:1" fill="#0a0502" d="M 140.5,356.5 C 144.869,355.923 148.869,356.757 152.5,359C 161.667,368.167 170.833,377.333 180,386.5C 184.568,391.763 184.401,396.93 179.5,402C 174.533,405.589 169.866,405.256 165.5,401C 155.303,391.137 145.47,380.971 136,370.5C 134.311,364.655 135.811,359.988 140.5,356.5 Z"/></g>
<g><path style="opacity:1" fill="#0a0502" d="M 84.5,384.5 C 88.5443,383.958 92.211,384.791 95.5,387C 104.667,396.167 113.833,405.333 123,414.5C 127.389,419.428 127.555,424.595 123.5,430C 120.068,432.072 116.402,432.738 112.5,432C 102.029,422.53 91.8628,412.697 82,402.5C 76.6713,395.486 77.5046,389.486 84.5,384.5 Z"/></g>
</svg>
