<?xml version="1.0" encoding="UTF-8"?>
<!DOCTYPE svg PUBLIC "-//W3C//DTD SVG 1.1//EN" "http://www.w3.org/Graphics/SVG/1.1/DTD/svg11.dtd">
<svg xmlns="http://www.w3.org/2000/svg" version="1.1" width="512px" height="512px" style="shape-rendering:geometricPrecision; text-rendering:geometricPrecision; image-rendering:optimizeQuality; fill-rule:evenodd; clip-rule:evenodd" xmlns:xlink="http://www.w3.org/1999/xlink">
<g><path style="opacity:0.984" fill="#010000" d="M 169.5,-0.5 C 226.833,-0.5 284.167,-0.5 341.5,-0.5C 347.813,2.31434 352.313,6.98101 355,13.5C 355.333,24.5 355.667,35.5 356,46.5C 374.415,77.6659 393.082,108.666 412,139.5C 414.272,144.59 415.606,149.923 416,155.5C 416.667,266.5 416.667,377.5 416,488.5C 414.549,500.119 408.382,507.785 397.5,511.5C 302.833,511.5 208.167,511.5 113.5,511.5C 102.618,507.785 96.4512,500.119 95,488.5C 94.3333,377.167 94.3333,265.833 95,154.5C 95.5539,149.284 96.8873,144.284 99,139.5C 117.918,108.666 136.585,77.6659 155,46.5C 155.333,35.5 155.667,24.5 156,13.5C 158.687,6.98101 163.187,2.31434 169.5,-0.5 Z"/></g>
<g><path style="opacity:1" fill="#f6b74e" d="M 175.5,19.5 C 228.833,19.5 282.167,19.5 335.5,19.5C 335.5,26.1667 335.5,32.8333 335.5,39.5C 282.167,39.5 228.833,39.5 175.5,39.5C 175.5,32.8333 175.5,26.1667 175.5,19.5 Z"/></g>
<g><path style="opacity:1" fill="#fcf3e4" d="M 135.5,149.5 C 129.5,149.5 123.5,149.5 117.5,149.5C 134.903,119.696 152.57,90.0291 170.5,60.5C 222.83,59.3334 275.163,59.1667 327.5,60C 311.959,86.2495 296.292,112.416 280.5,138.5C 234.504,139.333 188.504,139.833 142.5,140C 138.075,141.703 135.741,144.87 135.5,149.5 Z"/></g>
<g><path style="opacity:1" fill="#221d14" d="M 356.5,86.5 C 355.833,154.5 355.167,222.5 354.5,290.5C 354.167,222.163 354.5,153.83 355.5,85.5C 356.107,85.6236 356.44,85.9569 356.5,86.5 Z"/></g>
<g><path style="opacity:1" fill="#d4b27d" d="M 335.5,289.5 C 334.833,222.5 334.167,155.5 333.5,88.5C 333.783,87.7109 334.283,87.0442 335,86.5C 335.5,154.166 335.667,221.833 335.5,289.5 Z"/></g>
<g><path style="opacity:1" fill="#f9d193" d="M 356.5,86.5 C 368.474,107.775 380.974,128.775 394,149.5C 395.079,152.063 395.579,154.729 395.5,157.5C 395.833,264.668 395.499,371.668 394.5,478.5C 381.859,467.365 369.025,456.365 356,445.5C 355.667,418.833 355.333,392.167 355,365.5C 349.132,356.728 342.798,356.395 336,364.5C 335.667,391.5 335.333,418.5 335,445.5C 322.922,456.752 310.422,467.418 297.5,477.5C 296.501,369.335 296.167,261.001 296.5,152.5C 308.316,130.867 320.65,109.534 333.5,88.5C 334.167,155.5 334.833,222.5 335.5,289.5C 338.256,298.751 343.922,300.918 352.5,296C 353.861,294.416 354.528,292.582 354.5,290.5C 355.167,222.5 355.833,154.5 356.5,86.5 Z"/></g>
<g><path style="opacity:1" fill="#fefefe" d="M 117.5,149.5 C 123.5,149.5 129.5,149.5 135.5,149.5C 135.865,153.737 137.865,156.904 141.5,159C 186.165,159.5 230.832,159.667 275.5,159.5C 275.169,269.874 275.502,380.207 276.5,490.5C 223.836,491.667 171.17,491.833 118.5,491C 117.667,490.167 116.833,489.333 116,488.5C 115.333,376.5 115.333,264.5 116,152.5C 116.232,151.263 116.732,150.263 117.5,149.5 Z"/></g>
<g><path style="opacity:1" fill="#d9b780" d="M 296.5,152.5 C 296.167,261.001 296.501,369.335 297.5,477.5C 297.217,478.289 296.717,478.956 296,479.5C 295.167,370.333 295.334,261.333 296.5,152.5 Z"/></g>
<g><path style="opacity:1" fill="#16120c" d="M 395.5,157.5 C 396.832,264.667 396.832,372.001 395.5,479.5C 394.893,479.376 394.56,479.043 394.5,478.5C 395.499,371.668 395.833,264.668 395.5,157.5 Z"/></g>
<g><path style="opacity:1" fill="#030303" d="M 187.5,239.5 C 215.188,238.249 233.688,250.582 243,276.5C 247.587,298.747 241.087,316.913 223.5,331C 198.182,345.348 175.682,341.848 156,320.5C 142.844,301.297 142.177,281.63 154,261.5C 162.492,250.01 173.658,242.676 187.5,239.5 Z"/></g>
<g><path style="opacity:1" fill="#f4b54e" d="M 189.5,259.5 C 207.031,258.336 218.531,266.003 224,282.5C 225.708,308.602 213.541,320.769 187.5,319C 171.278,312.733 164.112,300.9 166,283.5C 169.358,270.977 177.191,262.977 189.5,259.5 Z"/></g>
<g><path style="opacity:1" fill="#090705" d="M 342.5,319.5 C 353.217,320.035 357.05,325.368 354,335.5C 348.942,340.383 343.609,340.716 338,336.5C 333.758,329.274 335.258,323.607 342.5,319.5 Z"/></g>
<g><path style="opacity:1" fill="#030303" d="M 151.5,369.5 C 174.169,369.333 196.836,369.5 219.5,370C 226.398,372.823 228.231,377.657 225,384.5C 223.363,386.81 221.196,388.31 218.5,389C 196.5,389.667 174.5,389.667 152.5,389C 143.65,382.922 143.317,376.422 151.5,369.5 Z"/></g>
<g><path style="opacity:1" fill="#060606" d="M 152.5,399.5 C 180.835,399.333 209.169,399.5 237.5,400C 244.198,402.891 246.365,407.724 244,414.5C 242.457,416.378 240.624,417.878 238.5,419C 209.5,419.667 180.5,419.667 151.5,419C 143.434,412.137 143.767,405.637 152.5,399.5 Z"/></g>
<g><path style="opacity:1" fill="#050505" d="M 153.5,429.5 C 178.502,429.333 203.502,429.5 228.5,430C 234.795,432.425 236.962,436.925 235,443.5C 233.833,446 232,447.833 229.5,449C 203.5,449.667 177.5,449.667 151.5,449C 143.208,441.618 143.875,435.118 153.5,429.5 Z"/></g>
<g><path style="opacity:1" fill="#f3b54e" d="M 344.5,463.5 C 356.519,471.672 367.852,480.839 378.5,491C 356.5,491.667 334.5,491.667 312.5,491C 323.653,482.343 334.32,473.176 344.5,463.5 Z"/></g>
</svg>
